<?xml version="1.0" encoding="utf-8"?>
<!-- Generator: Adobe Illustrator 28.3.0, SVG Export Plug-In . SVG Version: 6.00 Build 0)  -->
<svg version="1.1" id="Layer_1" xmlns="http://www.w3.org/2000/svg" xmlns:xlink="http://www.w3.org/1999/xlink" x="0px" y="0px"
	 viewBox="0 0 321.8 856" style="enable-background:new 0 0 321.8 856;" xml:space="preserve">
<style type="text/css">
	.st0{fill:#FFFFFF;}
</style>
<g>
	<path class="st0" d="M320,161.5c1.6-3.5,2.5-8.4,1.2-11.8c-3-8.1-18.3-11.1-25.4-5.9c-1.6,1.2-3.7,2.3-5.6,2.3
		c-8.5,0.2-17,0.2-25.5-0.1c-7.4-0.2-12.8,3-16.8,9c-1.5,2.4-2.9,4.9-4.1,7.4c-5.3,11.5-10.4,23.1-15.7,34.6
		c-1.1,2.3-2.4,4.4-3.7,6.7c-5.6-11.1-10.2-22.1-16.4-32c-6.8-10.9-19.9-11.9-31-16.4c0.5-0.9,0.9-1.1,1.4-1.3
		c5.6-2.7,11.6-5,11.4-12.8c0-0.7,1-1.3,1.3-2c1-2,2.4-3.9,2.8-6.1c0.7-4.5-0.3-9.7,1.6-13.4c2.4-4.6,0.8-7.8-0.9-11.5
		c-1.3-2.9-2.8-5.7-3.7-8.7c-0.5-1.6-0.8-4.6,0-5.1c4-2.5,3.2-6.3,3.2-9.9c0.1-7.3,1.5-9.4,8.4-12.3c5.6-2.3,6.6-8,2.1-11.9
		c-1-0.9-2-1.7-3.1-2.7c0.3-0.3,2.8-2.8,2.4-6.3c-0.4-3.2-3.1-6-6.7-6.5c0.7-2.5,0.6-4.6,0.5-5.8c-0.1-0.5-0.9-5.8-5.2-9.3
		c-2.2-1.7-3.6-1.6-4.2-3.3c-0.6-1.5-0.1-3.2,0.7-5.3c2.6-7-1-11.3-8.5-10.3c-5.7,0.8-10.5-1.1-14.3-5.4c-0.9-1-7.1-5.3-12.2-5.2
		c-6.2,0.1-10.8,7-12.8,10.6c-4.4-1.7-4.7-1.2-8.6,5.9c-0.7-0.2-1.5-0.4-2.2-0.6c-12.4-3.8-22.5,2.4-24.2,15.3c-0.4,2.8-1.7,3.4-4,4
		c-7.9,2.2-10.5,7.7-7.4,15.3c0.3,0.8,0.8,1.6,1.2,2.6c-3.6,0.3-6.1,1.3-7.5,3.1c-0.2,0.3-2.3,2.9-1.7,6.1c0.5,2.5,2.1,3,7,9.2
		c1.4,1.8,2.1,2.8,1.8,3.9c-0.5,1.8-3.2,1.6-3.9,3.4c-0.9,2.4,2.9,6,3.9,6.9c4.1,3.9,8.5,4.8,8.2,6.3c-0.2,1.1-2.4,1.1-2.9,2.6
		c-0.4,1.3,0.9,2.7,1.4,3.4c2.1,2.7,6.1,3.2,9.8,4.1c-1,1.4-1.7,2.3-2.4,3.2c-3.4,4-3,5.5,2,7.5c2.3,0.9,4.7,1.5,7.5,2.3
		c-1.1,2.4-2,4.2-2.8,6c-2.5,6.3-6.7,9.5-13.8,10.2c-10,0.9-19.9,3.1-29.8,4.8c-1.8,0.3-3.8,0.6-5.2,1.5c-7,4.7-15,6.7-22.8,9.6
		c-5.4,2-10.8,5.6-11.4,11.6c-0.7,6.6-4.2,11.4-7.1,16.8c-5.8,10.8-7.5,22.2-5,34.3c0.7,3.5,1.3,7.2,0.9,10.6
		c-0.8,6.4-1.9,12.9-3.7,19.1c-1.4,4.7-3.3,9.6-6.3,13.4c-5.8,7.4-8.4,15.2-7.7,24.6c0.8,10.9,1.3,21.8-3.4,32.3
		c-2.2,5-0.6,10.3,2.4,14.8c2.6,3.9,2.2,7.4,1.5,11.8c-1.8,10.4-3.4,21-3.8,31.6c-0.4,11.5,3.8,21.6,12.8,29.2c4,3.4,4.2,7,3.6,12
		c-1.8,14.7-3.6,29.4-3.9,44.2c-0.2,9.4-0.3,18.5-2.1,27.8c-1.1,5.4-0.6,11.2-0.4,16.8c0.2,5.7,1.6,11.5,1.3,17.2
		c-0.8,14.3-2.6,28.5-3.3,42.8c-0.5,10.4,4.9,18,14,23c2.8,1.5,7,2.4,8.1,4.7c1.3,2.8-0.2,6.8-0.5,10.3c0,0.5-0.2,1-0.2,1.5
		c-4.4,41.2-9.3,82.5-9,124.1c0.1,11.1-1.2,22.3-3.1,33.3c-1.4,7.9-3.7,16-7.6,23c-7.7,14.1-7.7,16.9,5,27.1
		c0.3,0.2,0.5,0.4,0.8,0.6c2.9,2.1,2.9,4.4,0,6.3c-3.6,2.4-2.5,4.5,0.3,6.5c2.6,1.8,5.2,3.6,7.8,5.5c1,0.8,2.4,1.8,2.5,2.9
		c0.3,5.1,3.5,5.6,7.6,5.8c8.1,0.4,16.3,0.9,24.4,1.6c4.3,0.4,7,2.4,6.9,7.4c0,2.3,0.9,5.1,2.4,6.7c3.6,3.8,8,6.4,13.6,6.5
		c5.5,0.1,10.9,0.9,16.4,1.1c8.8,0.3,17.6,0.6,26.4,0.2c2.3-0.1,5.2-2.2,6.6-4.2c1.9-2.8,1.1-6.1-1.5-8.6c-0.8-0.8-1.6-1.7-2.2-2.7
		c-1.3-2.2-1.6-4.2,1.7-4.8c5-1,10-1.9,14.9-2.9c2.7,8.7,2.7,8.8,11.2,8.9c13,0.2,26,0.1,39,0.5c3.3,0.1,6.5,1.8,9.7,2.9
		c4.8,1.6,9.6,4.7,14.4,4.7c13.1,0.2,26.3-0.8,39.4-1.5c2.9-0.2,5.9-1.1,8.6-2.3c4-1.8,4.4-4.6,1.6-7.9
		c-7.2-8.4-15.7-13.7-27.3-14.5c-14.2-1-25-9.1-35.1-19.8c2.3-0.5,3.8-0.7,5.4-1.1c8.2-2.1,16.5-3.9,24.6-6.4
		c8.6-2.7,9.9-4.8,9.7-13.8c-0.4-20.2-0.9-40.3-1.4-60.5c-0.1-3.3,0.6-5.6,3.6-7.5c8.2-5.2,11.3-12.5,11-22.4
		c-1.5-55.3-2.7-110.6-3.9-165.9c-1.3-63.3-2.5-126.6-3.4-189.9c-0.1-6.9,0.7-14.1,2.9-20.5c4.6-13.2,10.4-25.9,15.8-38.8
		c0.5-1.3,2.4-2.3,3.8-2.8c3.1-1.2,6.8-1.5,9.5-3.2c6-3.9,11.8-8.1,17.2-12.8c3.2-2.8,4.5-5.4,5.9-9c2.3-6,1.6-11.5,0.2-22.4
		c-0.4-2.9-0.7-4.8-1.2-7.3c-0.5-2.6-0.4-5.8-2-7.5c-5.4-5.7-5.6-5.5-2.1-12.7C307.9,186.7,314.3,174.2,320,161.5L320,161.5z"/>
	<g>
		<g>
			<path d="M320,161.5c1.6-3.5,2.5-8.4,1.2-11.8c-3-8.1-18.3-11.1-25.4-5.9c-1.6,1.2-3.7,2.3-5.6,2.3c-8.5,0.2-17,0.2-25.5-0.1
				c-7.4-0.2-12.8,3-16.8,9c-1.5,2.4-2.9,4.9-4.1,7.4c-5.3,11.5-10.4,23.1-15.7,34.6c-1.1,2.3-2.4,4.4-3.7,6.7
				c-5.6-11.1-10.2-22.1-16.4-32c-6.8-10.9-19.9-11.9-31-16.4c0.5-0.9,0.9-1.1,1.4-1.3c5.6-2.7,11.6-5,11.4-12.8c0-0.7,1-1.3,1.3-2
				c1-2,2.4-3.9,2.8-6.1c0.7-4.5-0.3-9.7,1.6-13.4c2.4-4.6,0.8-7.8-0.9-11.5c-1.3-2.9-2.8-5.7-3.7-8.7c-0.5-1.6-0.8-4.6,0-5.1
				c4-2.5,3.2-6.3,3.2-9.9c0.1-7.3,1.5-9.4,8.4-12.3c5.6-2.3,6.6-8,2.1-11.9c-1-0.9-2-1.7-3.1-2.7c0.3-0.3,2.8-2.8,2.4-6.3
				c-0.4-3.2-3.1-6-6.7-6.5c0.7-2.5,0.6-4.6,0.5-5.8c-0.1-0.5-0.9-5.8-5.2-9.3c-2.2-1.7-3.6-1.6-4.2-3.3c-0.6-1.5-0.1-3.2,0.7-5.3
				c2.6-7-1-11.3-8.5-10.3c-5.7,0.8-10.5-1.1-14.3-5.4c-0.9-1-7.1-5.3-12.2-5.2c-6.2,0.1-10.8,7-12.8,10.6c-4.4-1.7-4.7-1.2-8.6,5.9
				c-0.7-0.2-1.5-0.4-2.2-0.6c-12.4-3.8-22.5,2.4-24.2,15.3c-0.4,2.8-1.7,3.4-4,4c-7.9,2.2-10.5,7.7-7.4,15.3
				c0.3,0.8,0.8,1.6,1.2,2.6c-3.6,0.3-6.1,1.3-7.5,3.1c-0.2,0.3-2.3,2.9-1.7,6.1c0.5,2.5,2.1,3,7,9.2c1.4,1.8,2.1,2.8,1.8,3.9
				c-0.5,1.8-3.2,1.6-3.9,3.4c-0.9,2.4,2.9,6,3.9,6.9c4.1,3.9,8.5,4.8,8.2,6.3c-0.2,1.1-2.4,1.1-2.9,2.6c-0.4,1.3,0.9,2.7,1.4,3.4
				c2.1,2.7,6.1,3.2,9.8,4.1c-1,1.4-1.7,2.3-2.4,3.2c-3.4,4-3,5.5,2,7.5c2.3,0.9,4.7,1.5,7.5,2.3c-1.1,2.4-2,4.2-2.8,6
				c-2.5,6.3-6.7,9.5-13.8,10.2c-10,0.9-19.9,3.1-29.8,4.8c-1.8,0.3-3.8,0.6-5.2,1.5c-7,4.7-15,6.7-22.8,9.6
				c-5.4,2-10.8,5.6-11.4,11.6c-0.7,6.6-4.2,11.4-7.1,16.8c-5.8,10.8-7.5,22.2-5,34.3c0.7,3.5,1.3,7.2,0.9,10.6
				c-0.8,6.4-1.9,12.9-3.7,19.1c-1.4,4.7-3.3,9.6-6.3,13.4c-5.8,7.4-8.4,15.2-7.7,24.6c0.8,10.9,1.3,21.8-3.4,32.3
				c-2.2,5-0.6,10.3,2.4,14.8c2.6,3.9,2.2,7.4,1.5,11.8c-1.8,10.4-3.4,21-3.8,31.6c-0.4,11.5,3.8,21.6,12.8,29.2c4,3.4,4.2,7,3.6,12
				c-1.8,14.7-3.6,29.4-3.9,44.2c-0.2,9.4-0.3,18.5-2.1,27.8c-1.1,5.4-0.6,11.2-0.4,16.8c0.2,5.7,1.6,11.5,1.3,17.2
				c-0.8,14.3-2.6,28.5-3.3,42.8c-0.5,10.4,4.9,18,14,23c2.8,1.5,7,2.4,8.1,4.7c1.3,2.8-0.2,6.8-0.5,10.3c0,0.5-0.2,1-0.2,1.5
				c-4.4,41.2-9.3,82.5-9,124.1c0.1,11.1-1.2,22.3-3.1,33.3c-1.4,7.9-3.7,16-7.6,23c-7.7,14.1-7.7,16.9,5,27.1
				c0.3,0.2,0.5,0.4,0.8,0.6c2.9,2.1,2.9,4.4,0,6.3c-3.6,2.4-2.5,4.5,0.3,6.5c2.6,1.8,5.2,3.6,7.8,5.5c1,0.8,2.4,1.8,2.5,2.9
				c0.3,5.1,3.5,5.6,7.6,5.8c8.1,0.4,16.3,0.9,24.4,1.6c4.3,0.4,7,2.4,6.9,7.4c0,2.3,0.9,5.1,2.4,6.7c3.6,3.8,8,6.4,13.6,6.5
				c5.5,0.1,10.9,0.9,16.4,1.1c8.8,0.3,17.6,0.6,26.4,0.2c2.3-0.1,5.2-2.2,6.6-4.2c1.9-2.8,1.1-6.1-1.5-8.6
				c-0.8-0.8-1.6-1.7-2.2-2.7c-1.3-2.2-1.6-4.2,1.7-4.8c5-1,10-1.9,14.9-2.9c2.7,8.7,2.7,8.8,11.2,8.9c13,0.2,26,0.1,39,0.5
				c3.3,0.1,6.5,1.8,9.7,2.9c4.8,1.6,9.6,4.7,14.4,4.7c13.1,0.2,26.3-0.8,39.4-1.5c2.9-0.2,5.9-1.1,8.6-2.3c4-1.8,4.4-4.6,1.6-7.9
				c-7.2-8.4-15.7-13.7-27.3-14.5c-14.2-1-25-9.1-35.1-19.8c2.3-0.5,3.8-0.7,5.4-1.1c8.2-2.1,16.5-3.9,24.6-6.4
				c8.6-2.7,9.9-4.8,9.7-13.8c-0.4-20.2-0.9-40.3-1.4-60.5c-0.1-3.3,0.6-5.6,3.6-7.5c8.2-5.2,11.3-12.5,11-22.4
				c-1.5-55.3-2.7-110.6-3.9-165.9c-1.3-63.3-2.5-126.6-3.4-189.9c-0.1-6.9,0.7-14.1,2.9-20.5c4.6-13.2,10.4-25.9,15.8-38.8
				c0.5-1.3,2.4-2.3,3.8-2.8c3.1-1.2,6.8-1.5,9.5-3.2c6-3.9,11.8-8.1,17.2-12.8c3.2-2.8,4.5-5.4,5.9-9c2.3-6,1.6-11.5,0.2-22.4
				c-0.4-2.9-0.7-4.8-1.2-7.3c-0.5-2.6-0.4-5.8-2-7.5c-5.4-5.7-5.6-5.5-2.1-12.7C307.9,186.7,314.3,174.2,320,161.5L320,161.5z
				 M211.3,229.4c-0.6,0.1-1.1,0.1-1.6,0.2c-1.4-13.7-2.9-27.3-4.3-41C208.6,202.1,218.3,214.7,211.3,229.4L211.3,229.4z
				 M230.9,251.7c-1.4,0.5-3.2-1.2-3.7-1.7c-0.7-0.7-0.6-0.8-1.1-1.3c-1.1-0.9-2.3-1.2-3.7-1.4c-2.5-0.3-4.4-0.3-5.5-0.2
				c-0.4,0-4.3,0.1-7.9-0.1c-3.9-0.2-6.1-0.6-6.2-0.1c-0.1,0.3,0.7,0.7,1.7,1.2c6.1,3.2,8.3,3.7,9.9,5.9c0.4,0.6,1.4,2,1,3.4
				c-0.5,1.8-3.1,2.4-3.4,2.5c-3.5,0.9-5.5-1.6-10.6-1.2c-2.1,0.1-2.3,0.6-2.3,0.7c-0.2,0.7,1.9,1.9,2.9,2.4c3.3,1.8,5,1.4,5.8,2.9
				c0.5,0.9,0.4,2.1,0,2.9c-0.4,1-1.3,1.5-1.6,1.6c-3.7,2.2-10.4-2.4-12.1-0.5c-0.3,0.4-0.4,1-0.2,1.4c0.3,0.9,1.6,0.9,4.1,1.6
				c2.3,0.6,3.5,1,3.8,1.7c0.4,1.1-0.7,3-2.3,3.9c-2.6,1.6-4.8-0.2-9,0.8c-2.1,0.5-3.3,1.5-4.3,2c-6.2,3.8-17.2,4.1-20.8,3.8
				c-10-1-18.7,1.6-27.3,5.6c-14.1,6.5-27.7,13.9-42.1,19.6c-16.8,6.7-34.3,11.8-51.4,17.8c-2.9,1-5.7,2.8-8,4.7
				c-7.5,6.4-11.9,4.6-16.5-3.8c-4-7.3-1.4-12.4,1.7-18.2c4.5-8.5,9.1-16.8,18.8-20.5c1.7-0.6,3.6-0.9,6.7-1.6
				c-4.2,5.5-7.5,9.8-10.7,14c0.5,0.5,1.1,1,1.6,1.4c1-0.8,2.4-1.4,3.1-2.5c8-12.4,19.9-16.7,34.1-17.4c21.9-1,42.3-7.7,62.5-16.1
				c12.2-5.1,22.6-12.5,33.3-19.8c4.4-3,9.1-5.9,14-7.5c14.1-4.6,28.2-2.5,42,2c0.6,0.2,2.2,0.8,3.6,2.4c1.5,1.8,2.4,4.6,1.4,6.6
				C231.8,250.9,231.5,251.5,230.9,251.7L230.9,251.7z M229.9,278.4c-4.3,6.5-8.6,13.1-13.1,19.7C218,287.3,223,279.9,229.9,278.4z
				 M98.3,344.8c18.2,1.5,36.4,2.4,54.6-0.7c18.2-3.1,36.4-5.9,54.6-8.9c0,0.6,0,1.2,0,1.8C171.6,345.4,135.8,355.6,98.3,344.8
				L98.3,344.8z M205.2,390.9c-2.1-11.1-4.3-22.1-6.4-33.2c0.9-0.2,1.9-0.4,2.8-0.6C204.6,368.1,205.9,379.3,205.2,390.9z M77,362
				c2.2-0.9,3.3-1.8,4.4-1.7c10.7,1,21.4,2.2,32,3.3c0.1,0.4,0.2,0.9,0.3,1.3c-9.1,6.5-18.4,12.9-29.1,16.6
				c-2.4,0.8-6.5-0.4-8.6-2.1c-3.7-3.1-6.3-7.3-8.9-12.2c12.3,6.1,23.5,3.7,35.2-2.2C93.9,364.3,85.8,366.5,77,362L77,362z
				 M60.5,329.1c1.7-1.3,2.7-2.5,3.9-3c12.1-4.5,24.2-8.8,35.5-12.8C93.6,322.2,69.7,332.7,60.5,329.1z M86.8,353.6
				c8-4.6,16.8-3.4,25.8-3.1c16.3,0.5,32.6-0.2,48.9-0.4c11.1-0.1,22.2,0,32,0C177.9,361.8,102.7,364.8,86.8,353.6L86.8,353.6z
				 M192.9,367.5c0.5,17.6,0.7,35.2,0.9,52.8c0,2.5-0.4,4.9-0.6,7.4c-0.3,0-0.5,0-0.8,0c-1.4-22.6-2.8-45.2-4.2-68.6
				C193,361.1,192.8,364.6,192.9,367.5L192.9,367.5z M192.2,619.3c0.1,0,0.3-0.1,0.4-0.1c0.1,1.7,0.3,3.4,0.4,5.2
				c0.8,21.3,1.5,42.6,2.4,63.9c0.2,4,1.1,8,1.9,13c-4.8,1.7-10.5,3.8-16.4,5.9C184.7,677.5,188.4,648.4,192.2,619.3L192.2,619.3z
				 M130.9,322.2c0.1-0.6,0.3-1.1,0.4-1.7c14.9,4,29.7,7.4,44.1-1.9c0.1,0.5,0.2,1.1,0.3,1.6c-0.7,0.8-1.2,1.9-2.1,2.5
				c-14.5,10-29.7,18-48,17c-3.7-0.2-7.4-1.9-11.2-2.9c2.3-7,5.6-9.2,11.4-8.7c3.6,0.4,7.3,0.5,10.9,0.8c0.4,0,0.9-0.2,1.6-0.4
				C135.8,326.3,133.3,324.2,130.9,322.2L130.9,322.2z M139.4,318.1c7.7-8.7,14.6-1.4,21.5-0.2C153.9,321.1,147,320.2,139.4,318.1z
				 M187.2,323.9c-4.4,8.5-12.1,11.2-21,11.6C173.2,331.6,180.2,327.8,187.2,323.9z M115.6,341.3c-3.6-0.6-6.7-1-10.1-1.6
				C109.2,336,111.4,336.3,115.6,341.3z M110.8,251.6c0.5-0.1,1-0.2,1.4-0.2c1.2,5.4,2.4,10.7,3.5,16.1c-0.6,0.1-1.2,0.3-1.8,0.4
				C112.9,262.4,111.8,257,110.8,251.6L110.8,251.6z M197,185.3c3.3,15.4,6.3,30.8,9.5,46.6c-4.1,0.6-6.9,1-9.2,1.4
				c-1.3-17.4-2.6-34.7-4.1-53.5C194.9,182.2,196.7,183.6,197,185.3L197,185.3z M184.6,191.7c0.3,0,0.6-0.1,0.9-0.1
				c0.6,5.2,1.4,10.4,1.6,15.6c0.3,7,0.2,13.9-0.1,20.9c-0.1,4.7-0.8,5.1-6,6.4C182.2,220.2,183.4,205.9,184.6,191.7L184.6,191.7z
				 M172.2,227.8c-0.6,0.1-1.3,0.1-1.9,0.2c-0.4-3.6-1.5-7.2-1.2-10.7c0.4-3.9,2.2-7.7,3-11.6c1.3-6.7,2.2-13.4,3.2-20.1
				c0.3-2,0.5-4.1,1.5-6C178.8,196,176.3,212,172.2,227.8L172.2,227.8z M156.1,163.4c-1,5.5,0.6,8.1,5.3,8.8c1,0.1,2.3,3.1,2,4.4
				c-0.2,1.3-2.3,2.9-3.7,3.1c-1.9,0.3-4.5,0.1-5.8-1.1C150.2,175.1,150.9,168.1,156.1,163.4L156.1,163.4z M152.4,147.9
				c1-1,2-2.7,3.1-2.8c1.5-0.1,3,1.1,4.6,1.7c0.1,0.5,0.1,1,0.2,1.5c-1.6,0.9-3.1,2.3-4.8,2.5C154.6,150.9,153.4,148.9,152.4,147.9
				L152.4,147.9z M153.7,183.8c5.7-0.2,11.3-2.6,17.3-4.2c-4.4,5.5-9,11.4-14.4,18.1c8.5,1.2,10.7-5.4,16.1-9.1
				c-2.1,10.4-4.2,19.4-10.3,28c-9.2-12.1-17.9-23.5-27.1-35.6C141.9,182.1,147.8,184,153.7,183.8L153.7,183.8z M183.3,130.2
				c2.2,5.5-2.1,8.2-4.9,11.5c-2.6,2.9-5.2,5.7-7.9,8.4c-0.9,0.9-2.4,2-3.4,1.8c-1-0.2-1.9-1.7-2.8-2.7c-1.3-1.6-2.5-3.3-3.7-4.9
				c-1.6-2.2-5.5-7-7.1-6.3c-1.3,0.6-0.1,4.6-1.5,5.2c-1.2,0.5-2.5-2.4-5.1-2.3c-2.3,0-3.1,2.3-4.6,2c-1.8-0.4-0.7-4.1-2.9-7.1
				c-2.8-3.9-7.4-1.9-10.4-6.3c-1.2-1.8-2.3-4.9-1.4-5.7c0.2-0.2,0.5-0.2,0.6-0.2c1.9-0.1,2.9,4.9,3.9,4.8c1.2-0.1,2.1-7.6,0-8.5
				c-1.2-0.5-2.4,1.6-4.4,1.2c-1.8-0.4-2.8-2.6-3.2-3.6c-2.1-4.9-0.3-10.3,1.7-15.6c2-5.5,3.5-9.8,6.2-10.1c3.1-0.3,5.6,4.5,6.5,4
				c1.5-0.9-5-15-2.5-17.7c0.1-0.1,1.3-1.3,2.9-2.8c0.4-0.3,0.7-0.6,0.9-0.8c2.1,0.9,4.7,1.8,7.9,2.3c2.1,0.3,3.9,0.5,5.6,0.5
				c0.2,0.4,0.5,1,0.8,1.8c0.3,1.2,0.1,1.5,0.4,1.8c0.9,0.7,5-2.1,8.1-5.8c0.9-1,1.2-1.6,1.5-1.5c0.9,0.3,0,6.2-2,11.2
				c-1.3,3.4-2.7,6.8-6,9.8c-3.2,2.9-7.5,4.8-7.1,6.6c0,0.1,0.1,0.5,0.4,0.7c0.2,0.1,0.7,0.3,3.4-1.2c0.8-0.4,1.1-0.7,1.1-0.7
				c3.1-1.8,6.2-4.1,9.6-5.2c1.1-0.4,4.6,2.4,4.6,3.7c0,1.8-2.1,4.5-3.8,5c-9.1,2.8-12.9,10.6-13.5,15.7c-0.4,3.9,2.1,8,3.5,7.9
				c1-0.1,1.2-2.1,2.2-4.7c2.9-7.3,9.2-14.3,15.1-13.8c2.1,0.2,5.9-1,5.1,4.2c-0.2,1.6,3.6,3.6,5.1,5.7c1.9,2.7,5,5.6,1.2,9.3
				C182.9,128.2,183,129.5,183.3,130.2L183.3,130.2z M128.4,80.2c0.8-0.4,1.4-0.1,1.5-0.4c0.4-1-7.3-4.1-7-5.7
				c0.3-1.1,4.5-1.9,7.5,0c3.7,2.3,4,7.6,3.3,8.3c-0.1,0.1-0.4,0.3-0.7,0.7c-0.4,0.5-0.5,0.8-0.7,0.7c-0.2,0-0.3-0.5-0.5-1
				c-0.4-0.8-1.2-1.5-1.4-1.4c-0.4,0.2,1.9,3.4,1,7l0,0c-1,3-3.5,4.5-5,5.4c-0.8,0.4-2.6,1.5-3.1,1c-0.7-0.6,1.5-2.6,2.7-6.7
				C127.1,84.1,126.6,81.1,128.4,80.2L128.4,80.2z M168.5,82c-0.1-1.4-0.4-4.4,0.9-7.5c0.3-0.7,1.7-4.1,3.2-4
				c1.3,0.1,1.6,3.1,3.4,10.2c1.9,7.4,3.5,11.2,2,12.3c-0.3,0.2-0.5,0.2-2.3,0.2c-4.2,0.1-4.2,0.2-5.3,0.2c-3.4-0.2-7.9-1.8-8-3.7
				c-0.1-1.1,1.4-2.3,2.8-2.6c1.9-0.4,3.2,1.3,3.9,0.8C169.9,87.5,168.8,85.5,168.5,82L168.5,82z M184.1,42c2.6,7.5,2,8.7-5.6,10.9
				c-0.2,0-1.5,0.3-2.9,1.2c-0.5,0.3-1.3,0.8-1.2,1c0.3,0.7,9.6-3.1,11.3-0.7c0.5,0.7-0.2,1.2,0.1,4.2c0.2,2.1,0.6,2.8,0.1,3.4
				c-0.8,1-2.8,0.3-4.4,0.2c-2.3-0.1-5.4,0.9-9.4,5.6c-2.8,1.8-3.8,1.8-4.2,1.5c-0.8-0.8,1.1-3.7,0-4.8c-0.4-0.3-0.9-0.4-1.1-0.4
				c-3.1-0.1-6.3-0.3-9.3-1.1c-3.2-0.8-6.2-0.9-9-0.2c-2.1,0.5-5.6,1.2-7.8,4.1c-1.8,2.3-1.6,4.5-3.4,5.2c-1.4,0.5-2.9-0.2-3.9-0.9
				c4.4-5,5.2-10.6,2.9-13.4c-0.4-0.5-1.5-1.6-3.9-1.9c1.1-2.6,2.8-4.9,2.9-7.3c0.6-10.6,8.7-15.9,18.8-11.9
				c2.9,1.2,5.9,2.2,8.8,3.6c5.3,2.5,10.5,3,15.6-0.6C181.4,37.8,183.1,38.9,184.1,42L184.1,42z M117,67.9c-1.6,3.7-4.5,5.4-8.1,5.7
				c-1.8,0.1-4.7-0.4-5.2-1.5c-1.2-2.6-0.2-6.1,0.1-6.5c0.7-1.7,1.8-2.6,1.4-3c-0.3-0.4-1.4,0.3-3.4,0.8c-1.9,0.5-3.4,0.5-4.4,0.5
				c-2.5,0-5.5,0-6.3-1.7c-0.6-1.3,0.1-3.2,1.2-4.2c1.2-1,2.1-0.4,4.3-1.3c0.6-0.3,3.4-1.4,3.9-3.6c0.2-0.8,0.2-1.4-0.4-2.9
				c-2.7-6.1-1.1-9.2,5.5-10.2c2.4-0.4,4.8-0.7,7.9-1.1c-2.7-5.7-4.5-11,1.1-15c3.4-2.5,6.7-3.3,8.1-3.5c3.7-0.5,7.1,0.2,7.1,0.7
				c0,0.7-7.3-0.2-10.5,4.2c-0.9,1.2-1.4,2.8-0.9,3.3c0.9,0.9,4.3-3.8,9.9-4c1.3-0.1,3.2,0.1,5.4-1c0.7-0.3,1.3-0.8,2-1.4
				c3.8-3,1.9-7.1,5.9-9.8c2.1-1.4,3.2-0.8,5.6-3.1c1-1,1.2-1.5,2.6-2.7c1.6-1.4,3-2.1,4.4-2.4c0.8-0.1,2.4,1.3,2.7,2.4
				c1.4,4-2.9,9.6-7.2,9.8c-1.7,0-3.4,0.4-6.3,0.8c8.7,5.2,12.7,3.5,19.2-6.6c6.9,1.2,9.8,13.1,19.8,6.1c0.1,8.8-7.2,4.2-9.9,7.5
				c0.1,1.4,0.6,3.3,0.3,5c-0.4,1.9-1.7,3.7-2.6,5.5c-1.1-1.4-2.5-2.7-3.3-4.2c-1.9-3.8-4.2-6.6-8.5-6.3c0.7,2.2,2.6,5.1,1.9,6.1
				c-2.1,2.8-4.6,1.8-7.1-0.5c-1-0.9-3.9,0.2-5.9,0.7c-0.8,0.2-1.5,1.4-2.2,1.5c-4.7,0.2-6.6,0.9-9.3,2.8c-3.4,2.3-3.2,7.6-4.1,7.5
				c-0.9-0.1-0.3-6.5-1.9-6.9c-0.2,0-0.5,0-0.7,0.1c-0.6,0.4-0.5,1.4-0.4,1.9c0.3,3,1.5,7.8,1.5,7.9c1.1,4.3,0.7,5.2,0.5,5.5
				c-0.5,0.8-1.6,1.4-3.7,2.3c-5.3,2.4-6.3,2.9-6.3,3.2c0.2,1.1,8.7,0,9.5,2.5c0.1,0.5-0.2,1.2-0.9,2.8c-1.1,2.3-1.7,3.5-2.9,4
				c-0.4,0.2-1.5,0.4-3.3-0.3C119,63.6,118.1,65.4,117,67.9L117,67.9z M121.9,121.5c1.6,2.7,3.4,4.4,3.5,6.2
				c0.6,7.9,6.5,12.8,10.3,18.8c1.8,2.8,4.7,4.8,6.3,7.7c1.3,2.2,1.3,5.2,1.9,7.8c0.7,2.8,1.2,5.7,2.1,8.4c1.1,3.1,2.6,6,4.1,9.4
				c-8.1,1.4-20.1-4.4-23.5-11.2c4.2,2.1,7.5,3.9,10.8,5.6c0.2-0.4,0.5-0.8,0.7-1.2c-2.3-1.3-4.5-2.9-6.9-3.7
				c-5.5-1.7-9.6-5-13.2-9.3c-2.4-2.9-4.9-5.9-7.6-8.6c-2.7-2.6-5.7-4.9-9.1-7.9C111.7,139.8,116.4,131.1,121.9,121.5L121.9,121.5z
				 M101.6,148.8c6.4,6.4,12.8,13.3,17.6,21c15,23.8,29.3,48,43.8,72.2c0.6,1-0.3,3-0.6,4.5c-1.5-0.4-3.6-0.4-4.4-1.4
				c-9.4-12.5-18.8-25-27.7-37.8c-6.5-9.4-12.2-19.4-18.2-29.2c-0.3,0.2-0.7,0.4-1.1,0.6c13.5,24.8,27.1,49.5,40.8,74.7
				c-1.8,1.1-3.7,2.3-6.3,3.9c-2-3.7-3.9-6.9-5.6-10.3c-10.3-20.9-20.3-41.9-30.9-62.7c-5.2-10.2-11.3-20.2-20.4-27.5
				c-6-4.8-12.6-8.9-18.7-13.1C77.3,139,93.7,140.9,101.6,148.8L101.6,148.8z M43.8,154.6c11.3-8,28.8-7.6,39.9,0.7
				c14.1,10.5,21.8,25.5,28.3,41.1c7.4,18,13.6,36.5,20.1,54.9c3.6,10.2,3.1,10.9-8.1,14.4c-0.6-1.6-1.4-3.2-1.9-4.9
				c-6-18-11.4-36.2-18-54c-4-10.9-9.5-21.2-15-31.5c-4.3-8-11.3-13.5-19.5-17.3c-10.1-4.7-20-4.1-29.6,2.2
				c-0.2-0.4-0.5-0.8-0.7-1.2C40.7,157.6,42.1,155.9,43.8,154.6L43.8,154.6z M11.6,271.5c0.2-2.9,0-6.6,1.6-8.5
				c11-12.5,13.4-28,15.8-43.5c2.2-14.6,7.7-27.5,18.5-38.1c-2.9,0-9.7,6.6-20.5,20c1.1-11.8,8.1-20.6,15-29.7
				c-3.8,3.2-7.5,6.5-11.3,9.7c2-6.7,6.1-12,11.7-15.9c12-8.4,23-8.1,33.5,2c6,5.8,11,12.9,15,20.3c10.4,18.9,13.3,39.9,15,61.2
				c0.4,5.5,1,11,1.8,16.4c0.7,4.7-0.5,7.5-6.3,7c-2.9-21.1-0.5-43.1-9.8-63.3c1.8,12.1,4.9,24.1,1.8,36.4
				c-2.9-21.2-7.6-41.7-21.8-58.6c-1.5-1.8-3.7-2.9-5.8-4c17,19.4,18.5,44,23.1,67.5c-8.3-16.7-11.6-35.8-24.4-50.3
				c6.6,24.4,14.9,48.2,21.3,72.6c-0.6,0.2-1.2,0.5-1.9,0.7c-7.6-13.7-15.3-27.4-22.9-41.1c-0.4,0.2-0.8,0.4-1.2,0.6
				c4.7,10.3,9.3,20.5,14.1,31.1c-8.6-2.4-16.7-4.8-24.9-6.7c-11.3-2.5-20.8,0.6-28.5,10.2c18.6-5.9,36.4-10.2,51.9,5.5
				c-10.5-4.5-21.2-8.1-33-5c-11.3,3-21.5,7.8-28,16.6C11.6,280.6,11.4,276,11.6,271.5L11.6,271.5z M7.3,312.2
				c1-17.5,14.6-35.7,31.1-41.5c7.8-2.7,15.5-2.2,22.8,1.5c2.2,1.1,4,3.1,5.3,5.7c-5.2-0.7-10.3-1.4-15.5-2.1
				c-0.1,0.3-0.1,0.6-0.2,1l8.3,2.5c-22.7,5.5-39.2,18-48,40.4C7.9,318.4,7.1,315.6,7.3,312.2L7.3,312.2z M17.7,484.8
				c3.2-10.9,2.5-22,2.7-33.1c0.2-15.1,2.2-30.2,3.6-45.2c0.4-4.4,1-9-3-11.9C8.8,385.7,6,373.1,7.3,359.4
				c0.8-8.5,3.3-16.9,5.3-25.3c0.3-1.4,1.4-2.7,2.9-3.9c0.7,17-1.9,34.1,5.8,49.9c0.4,0.9,1.6,1.3,2.9,2.3c2.4-10.8,2.9-21.5,6-31.6
				c0.8,0.1,1.6,0.2,2.5,0.4c-2,22.7-4,45.5-6,68.2c0.4,0.1,0.8,0.3,1.1,0.4c2.6-7.4,5.4-14.8,7.6-22.3c2.4-8,4.4-16.1,6.2-24.2
				c1.8-7.9,3-15.9,5.4-23.8c2.1,10.9,0.6,21.8-0.6,32.6c-1.3,11.2-2.4,22.7-5.9,33.3c-3.4,10.4-9.7,19.9-14.8,29.8
				c5.7-4,6.1,3.9,11.2,4.8c3.3-7.5,6.8-15.4,10.3-23.2c0.4,0.1,0.7,0.2,1.1,0.3c-1.7,8.6-2.6,17.4-5.2,25.6c-1.4,4.4-5.7,8-9,11.6
				c-7.9,8.3-13.4,17.7-15.1,29.1c-0.4,0-0.9,0-1.3,0.1C17.5,490.7,16.9,487.6,17.7,484.8L17.7,484.8z M16.1,557.9
				c0.3-11.8,1.6-23.6,2.5-35.4c0.6-8.3,1.1-16.6,1.6-24.9c0.2-3.9,5.6-8.1,9.5-7c1.1,0.3,2.2,0.8,4,1.4c1.4-3.9,2.6-7.3,3.9-10.7
				c0.2,0,0.5,0,0.7,0.1c-0.3,4.2-0.6,8.3-0.8,12.5c-0.8,14.6-1.7,29.3-2.3,43.9c-0.1,3.1-1.1,5.2-3.8,6.9c-2.8,1.7-5.4,4-7.8,6.3
				c-4.9,4.8-5.6,9.7-2.7,16.1c4.4-3.5,8.8-7,13.3-10.5c0.5,0.3,1,0.6,1.5,0.8c-0.8,6.1-1.7,12.2-2.5,18.2
				C23.7,575.5,15.9,567.7,16.1,557.9L16.1,557.9z M122.3,849.7c-2.5,0.6-5.6,0.9-8.3-0.5c-3.2-1.7-5.3-5.3-5.7-5
				c-0.3,0.2,0.9,1.6,0.3,2.8c-0.3,0.9-1.3,1.5-2.3,1.6c-1.8,0.2-2.7-1.5-4.3-1c-0.7,0.2-0.6,0.5-1.5,0.8c-1.3,0.4-2.4,0.2-2.9,0.1
				c-1.4-0.3-1.6-0.9-2.7-1.2c-2.8-0.8-3.8,1.1-6.9,0.4c-1.5-0.3-1.6-0.6-3.5-0.8c-1.8-0.2-2.1,0.1-3.5,0c-0.2,0-4-0.3-6.6-3.2
				c-0.4-0.4-1.2-1.3-1.6-2.7c-0.2-0.5-0.3-1.1-0.4-1.8c-0.5-6.7-0.8-13.5-1-20.2c0-1,1.2-2.3,2.2-3.1c5.3-4.8,11.9-6.3,18.8-7.1
				c0.9-0.1,2.4,0,2.8,0.6c3.8,4.9,7.6,9.9,11.1,15c1.7,2.4,2.5,5.5,4.4,7.7c3.7,4.2,7.8,8,11.8,11.8
				C125.6,846.7,125.5,848.1,122.3,849.7L122.3,849.7z M111.6,806.9c2.1-4,4-7.4,6.4-11.9v14.3C115.6,808.5,113.7,807.8,111.6,806.9
				L111.6,806.9z M140.4,809.9c-5.5,0.3-11.1,0.5-17.4,0.8c2.1-15.9,7.5-29.5,16.1-41.9c0.5,0.1,0.9,0.2,1.4,0.3L140.4,809.9
				L140.4,809.9z M145.2,710.3c-11.1,34.3-32.1,61-60.4,82.5c-5.4,4.1-11.1,8-16.9,11.5c-7.8,4.6-16.1,4.8-24.5,1.4
				c-8.8-3.6-17.5-7.3-26.4-10.7c-4.1-1.5-4.7-4.2-2.7-7.4c14.4-22.9,14.7-48.7,14.9-74.4c0.4-43.1,5.7-85.7,10.3-128.5
				c2.6-23.8,3.6-47.8,5.7-71.7c1.8-20.7,4.3-41.3,7.3-61.9c4,26.6,7.6,53,16.5,78.4c-7.6-39.6-11.8-79.3-5.1-119.6
				c2.1,8.9,4.5,17.7,6.3,26.6c2,9.7,5,19,11.1,27c1.3,1.6,2.8,3.1,4.6,4.3c-9.7-15.8-10.1-34.2-15.5-51c0.5-0.3,1-0.6,1.4-0.9
				c3.3,2.9,6.6,5.7,9.8,8.6c8.1,7.2,17.2,8.1,27,4.4c0.3-0.1,0.4-0.4,0.8-0.9c-17.5-2.4-30.5-12.5-42.2-24.5
				c-6-6.2-6.1-7.9-1.6-16.3c3.5,5.1,6.8,9.9,10.2,14.7c0.3-0.2,0.6-0.3,0.9-0.5c-3.4-6.6-6.9-13.3-10.3-19.9
				c0.4-0.3,0.8-0.6,1.1-0.9c1.2,0.4,2.5,0.6,3.4,1.4c11.5,9.7,22.7,6.1,33.5-1c5.7-3.7,10.8-8.3,16.2-12.5c1.4-1.1,2.8-2,4.2-3
				l1.5,1.1c-1.7,3-2.8,6.5-5.1,8.8c-11.3,11.7-23.5,22.2-37.9,29.9c-0.4,0.2-0.7,0.6-1.6,1.5c14.7,0.5,25.7-7.5,38.2-12.7
				c-2.7,6.6-5.3,13.3-8.4,21c12.1-15.5,13.9-34.2,21-50.7c0.7,0.1,1.4,0.2,2.1,0.3c0.4,1.8,1.2,3.6,1,5.2
				c-3.2,24.9-5.1,50.1-15,73.7c-5.3,12.6-12.4,23.9-21.3,34.2c-1.2,1.4-2.5,2.7-3.4,4.3c-2.5,3.9-1,8,3.5,7.9
				c4-0.1,8.3-1.9,11.9-3.9c3.4-1.8,6-4.9,9.5-7.1c-3.7,14.4-7.9,28.2-21.1,37.2c-2.6,1.8-5.4,3.4-7.7,5.5c-1.7,1.6-3.1,4-3.6,6.2
				c-0.3,1.6,0.7,3.9,1.9,5.2c0.5,0.6,3.1-0.1,4.4-0.8c14.8-8.8,25.9-20.6,31.2-37.5c7.1-22.4,10.8-45.4,12.8-68.6
				c1.6-18.4,2.2-36.9,3-55.4c0.2-3.9,1.4-5.2,5.2-5.5c4.2-0.4,4.4,2.2,4.4,4.9c-0.2,21.3,0.6,42.7-1.1,63.9
				c-3.5,41.5-8.6,82.8-13,124.3c-0.1,0.8-0.1,1.6-0.1,2.5c0.5,0.2,1,0.3,1.5,0.5c3.1-15.6,6.9-31.2,9.3-46.9
				c7.4-48.2,10.2-96.8,8.9-145.5c-0.1-5.2,0.6-5.5,8.1-6.4c4.9-0.5,3.9,2.9,4.2,5.5c3.1,25.8,1.1,51.6-0.4,77.4
				c-4,68.7-18.2,135.6-36.6,201.7c-12.8,46.3-34.9,88.1-63.9,126.8c2-1.2,4.2-2.1,6-3.5c26.4-20.9,46.7-46.2,59-77.9
				c12.9-33.2,20.6-67.8,27.9-102.5c14.7-70.3,17.7-141.4,15.8-212.9c-0.1-4-0.7-8-0.5-12c0-1.4,1.5-2.7,2.4-4
				c1.1,1.3,3.1,2.4,3.2,3.8c1.5,15.2,3.4,30.5,3.8,45.8c1.5,52.9-0.4,105.7-7.8,158.1C171.4,616.9,160.2,664,145.2,710.3
				L145.2,710.3z M157.3,808.7c-2.8,0-5.6,0.3-8.7,0.5c-1.1-13.6,5.7-46.7,10.4-49.7c0.3,3.5,0.6,6.7,0.9,10c0.8,11,1.4,22,2.5,32.9
				C162.9,806.7,161.7,808.7,157.3,808.7L157.3,808.7z M179.1,798.2c-0.1,3.4-0.3,3.4-5,4.1c1.3-26.1,2.6-51.8,3.9-77.5
				c0.7,0,1.4-0.1,2.1-0.1c0.3,1.2,0.8,2.5,0.7,3.7C180.3,751.7,179.8,775,179.1,798.2L179.1,798.2z M209.6,823.8
				c0,0,1.9-0.3,4.2-0.3c15,0.1,45.6,15.5,44.5,17.9c-0.2,0.4-1.1,0.5-1.9,0.7c-1.2,0.2-1.6,0-3.3,0.1c-0.9,0.1-1,0.2-2.2,0.3
				c-1.1,0.1-1.9,0.1-2.5,0.1c-0.8,0.2-2,0.3-3.4,0.5c-2.3,0.2-3.5,0.3-4.2-0.2c-1-0.7-0.6-1.8-1.7-3.6c-0.8-1.3-1.8-2-2.6-2.5
				c-4.1-3-10.2-2.2-10.3-1.8c0,0.1,0.8,0.2,3.9,1.2c2.7,0.9,3.2,1.3,3.5,1.5c1.1,0.7,2.1,2.7,1.9,4c-0.1,0.4-0.5,1.4-3.5,2.3
				c-1.5,0.5-5.1,1.8-9.4,0.4c-3.2-1-2.4-2.1-6.1-3.7c-2.9-1.2-3.5-0.6-10.2-2.5c-1.8-0.5-2.4-0.7-4-1c-2.4-0.5-4.7-0.7-6.4-0.9
				c0,0-5.4-0.6-5.7-1.7c0,0-0.1-0.2-0.2-0.7c-0.2-0.5-0.2-0.6-0.2-0.7c-0.4-1.2,5.4-3.5,5.4-3.5
				C203.6,826.5,204.6,826.3,209.6,823.8L209.6,823.8z M208.9,787.8c-0.1,1.3-1.5,2.5-2.3,3.8c-0.5-0.2-0.9-0.5-1.4-0.7
				c-0.1-1.3-0.4-2.6-0.4-3.8c0.7-13.6,1.5-27.1,2.2-40.7c0.7,0.1,1.3,0.1,2,0.2c0,8.4,0,16.9,0,25.3
				C209,777.2,209.1,782.5,208.9,787.8L208.9,787.8z M200.9,692c1.1-48.8,2.2-97.3,3.3-145.7c0.8,0,1.5,0,2.3-0.1
				c3.3,47.6,6.6,95.2,10,143.4C211,690.5,206.4,691.2,200.9,692z M234.6,789.1c-3.7,0.8-7.4,2-11.2,2.5c-1.1,0.2-2.4-1.4-3.6-2.2
				c0.9-1.1,1.7-2.8,2.9-3.2c3.4-1.3,8.4-1,10-3.3c1.9-2.9,1.3-7.7,1.4-11.7c0.3-12.8,0.5-25.7,0.7-38.5c0.1-2.5,0.3-5.1,0.5-7.6
				c0.4,0,0.9,0,1.3,0c0.5,4.5,1.2,9,1.4,13.6c0.6,14.7,0.8,29.3,1.4,44C239.4,786.3,238.1,788.3,234.6,789.1L234.6,789.1z
				 M233.4,674.1c-0.1-1.2-0.4-2.5-0.5-3.8c-3-54-5.5-108.1-9.1-162.1c-2.3-34.4-6.1-68.7-9.3-103c-1-10.9-2.2-21.9-3.6-32.8
				c-0.5-3.9-2-7.7-2.7-11.7c-0.3-1.6,0.3-3.3,0.5-5c1.2,1.3,3.1,2.4,3.5,3.9c2.1,8.2,4.5,16.4,5.6,24.8
				c8.8,65.9,14.6,132.1,18.4,198.4c1.6,27.6,3.5,55.2,5.4,82.8C242.4,673.9,242.4,674.1,233.4,674.1z M231.1,294.3
				c0-13.3,11-17,18.6-24c-4.3,0.7-8.5,1.5-12.8,2.1c-3.8,0.5-6.9-0.3-8.1-5.6c8.9-0.5,17.5-1,27.2-1.6
				C248.8,276.6,242.3,287,231.1,294.3L231.1,294.3z M297.9,231.9c-1.7,1.4-4.5,0.1-7.6-0.9c-9.7-3.2-16-1.8-16.5-4.4
				c-0.2-0.8,0.4-1.6,0.6-1.9c2.2-3,8.5-1.7,13.1-0.7c4.1,0.9,11,2.3,11.4,5.4C299.1,230.3,298.6,231.3,297.9,231.9L297.9,231.9z
				 M276.5,217.3c-0.2-1.1,1.6-2.3,2.7-3c2.3-1.2,3.9-0.7,9.4-0.3c5.9,0.3,7.5-0.1,9.4,1.4c0.3,0.2,2.6,2.2,2.1,3.7
				c-0.9,2.8-10.6,1.3-20-0.2C279,218.7,276.8,218.4,276.5,217.3z M297.9,248.8c-0.2,1.5-3.1,1.6-3.3,1.6c-3.2,0.2-4-2.4-8.9-4.8
				c-3.8-1.9-6.6-1.8-7.1-3.8c-0.1-0.6-0.1-1.4,0.3-1.9c0.8-0.9,2.8-0.4,4.5,0.1c9.9,2.8,10.8,4,12.9,5
				C297.3,245.6,298.1,247.7,297.9,248.8L297.9,248.8z M299.7,241.3c-0.4,1.5-2.3,2.7-3.7,2.4c-0.5-0.1-0.8-0.4-0.9-0.4
				c-3-2.3-21.3-4.9-21.5-8.9c-0.1-1.3,1.9-2.4,2.4-2.7c2.1-1.1,4.4-0.6,9,0.7c9,2.4,11.2,3,13.3,5.4
				C300,239.8,299.8,241,299.7,241.3L299.7,241.3z M270.7,152.7c-10.2-0.5-16.2,3.7-20.4,12.5c-8,17.2-16.2,34.2-24.4,51.3
				c-2.8,5.8-5.9,11.5-8.8,17.2c-0.4-0.2-0.9-0.4-1.3-0.6c2.5-4.9,5-9.8,7.4-14.8c8-16.8,16-33.6,24-50.4c1.4-3,2.9-6,4.5-8.9
				c2.2-4.4,6.1-7.2,10.7-7.3c17.1-0.4,34.1-0.1,51.2-0.1c0,0.4,0,0.9,0,1.3C299.2,152.9,284.9,153.4,270.7,152.7L270.7,152.7z"/>
			<path d="M123.3,47.5c-0.1-0.1-0.7,0.5-3.1,1.8c-3.4,1.8-5.2,2.8-6.4,2.7c-2.5-0.1-2.8-2.1-6.7-3.2c-1.6-0.5-4.2-0.9-4.4-0.3
				c-0.4,0.9,5.3,5.8,11.2,5.2C119.5,53.1,123.5,47.8,123.3,47.5L123.3,47.5z"/>
			<path d="M60,544.3c2.4,28.9,3.7,56.6,17.7,81.5C71.9,599.1,66.1,572.4,60,544.3z"/>
			<path d="M68.1,727.3c-2.6,11.8-5.2,23.6-7.7,35.3c0.6,0.1,1.2,0.2,1.8,0.4c6.3-11,6.8-23.2,7.2-35.5
				C69,727.5,68.6,727.4,68.1,727.3L68.1,727.3z"/>
		</g>
		<path class="st0" d="M145.8,68.4c-0.1-0.1,2-2.1,4.8-2.4c1-0.1,2.2,0.1,4.6,0.4c0.7,0.1,1.7,0.3,1.7,0.4c0,0.2-2.4,0-6.1,0.3
			c-1,0.1-2.1,0.2-3.5,0.7C146.3,68.1,145.8,68.4,145.8,68.4L145.8,68.4z"/>
	</g>
</g>
</svg>
