<?xml version="1.0" encoding="utf-8"?>
<!-- Generator: Adobe Illustrator 28.3.0, SVG Export Plug-In . SVG Version: 6.00 Build 0)  -->
<svg version="1.1" id="Layer_1" xmlns="http://www.w3.org/2000/svg" xmlns:xlink="http://www.w3.org/1999/xlink" x="0px" y="0px"
	 viewBox="0 0 511.2 906.5" style="enable-background:new 0 0 511.2 906.5;" xml:space="preserve">
<style type="text/css">
	.st0{fill:#FFFFFF;}
</style>
<g>
	<path class="st0" d="M507.4,310c-8.8-18.8-17.9-37.5-27.1-56.2c-2.5-5.1-3.8-9.7-2-15.6c2.9-9.9,3.6-20.1-6-27.4
		c-6.6-5-10.8-11.6-15-18.4c-2.7-4.4-6.1-8.3-8.9-12.6c-1.5-2.4-3-5.2-3.2-8c-0.8-9.9-6.2-16.1-15.9-18.3c-3.2-0.7-6.5-2.6-8.9-4.9
		c-4.8-4.3-9.9-7.1-16.4-7.6c-3.6-0.3-7.4-0.7-10.6-2.2c-9.7-4.4-19.8-5.1-30.3-4.8c-5,0.1-10.3-0.8-15.1-2.4
		c-4.6-1.6-10.1-3.7-7.8-10.9c0.3-1.1-0.8-2.5-0.9-3.8c-0.1-1.7,0.3-3.4,0.3-5.1c0-1.2,0.3-2.8-0.3-3.6c-3.2-4.1-1.1-5.8,2.6-7.3
		c2.1-0.9,2.4-0.8,3.4-1.6c1.4-1.2,1.7-2.9,2-4c0.5-2.2,0-2.8,0.3-4.4c0.5-2.4,2.4-3.8,3.6-4.9c5.9-4.9,11.1-12.5,10.1-13.7
		c-0.6-0.7-3.3,0.7-3.6,0.2c-0.4-0.8,5.4-3.2,6-7c0.3-2.4-1-5-3.8-8.5c-0.9-1.1-0.9-3.7-0.2-5c2.5-5.2-1.8-18.2-7.1-20.3
		c-0.5-0.2-1-0.5-1.4-0.4c-4,0.9-5.2-1.8-6.4-4.7c-2.2-5.2-5.4-9.8-11.3-11.1c-4-0.9-6.6-2.9-9.1-6.1c-1.7-2.2-5.2-3.2-8-4.2
		c-4.4-1.6-8.9-3.2-13.5-4.2c-3-0.7-6.2-1.1-9.2-0.5c-2.6,0.5-4.9,2.8-7.6,3.7c-1.3,0.4-4.1,0-4.4-0.7c-2-4.8-4.5-2.7-7.5-1.2
		c-2.9,1.4-6.2,3.4-9.1,3.1c-8.7-0.9-11.6,0.9-13.3,9.6c-0.4,1.9-2.2,3.6-3.6,5.2c-1.9,2.4-4.9,4.4-5.6,7c-1.7,6.6-1.3,6.8-8.7,7
		c-4,0.1-5.9,2.4-4.4,5.8c1.4,3.1,4.4,5.5,6.6,8.4c0.9,1.2,2.4,3.6,2,4.1c-4.3,4.8-1.7,7.4,2.2,9.9c0.9,2.9,2.2,5.8,4.1,8.1
		c3.7,4.6,9.9,7.9,6.8,15.5c-0.3,0.7,0.1,1.7,0.4,2.4c1.7,3.5,0.1,6.2-1.7,9.2c-1.5,2.5-3,6.2-2.2,8.6c1.1,3.3,0.5,5.7-1,8.3
		c-2.9,5.1,1,9.6,1.1,14.5c0,2,1,4,1.3,6c0.3,2.6-0.6,5.8,0.7,7.6c3,4.1,7,7.5,10.8,11.4c-7.2,4.2-15.8,0-22.8,4.9
		c-4.4,3.1-10.4,3.9-14.5,7.3c-16.8,13.4-23.6,31.6-23.6,52.8c0,3-0.9,6.7-2.7,9c-8.5,10.9-15.9,22.3-20.7,35.2
		c-1.2,3.2-3.3,4.3-6.5,5.2c-7.3,2-15.4,3.4-21.4,7.7c-13.6,9.7-28.7,14.4-44.4,18.5c-7.8,2-14.4,0.7-20.9-3.3
		c-1.8-1.1-3.7-2.3-5.5-3.5c-4.5-3.2-9.2-3.1-14.2-1.3c-6.2,2.1-12.7,3.6-19,5.8c-2.3,0.8-5.3,2.3-6.2,4.2
		c-4.6,10.5-8.9,21.3-4.8,33.2c1.2,3.4-0.1,5.6-4.5,5.4c-5.8-0.3-11.7-0.2-17.5-0.1c-11.7,0.2-9.9-1.9-11.6,11c-1.1,8.2,8,11.5,7,19
		c0,0.1,0.6,0.3,0.8,0.5c2.6,2.9,5.7,5.4,7.6,8.7c2.1,3.5,4.6,5.5,8.6,5.9c2,0.2,4,0.8,5.9,0.8c9.4,0.2,13.4,6.4,15.3,14.4
		c2.2,9.5,2.5,19-0.5,28.6c-2.6,8.3,1.5,14.1,10.2,15c4.8,0.5,7.5,2.8,8.1,7.3c0.8,6.8,1.7,13.6,1.7,20.4
		c-0.5,76.8-1,153.6-1.8,230.5c-0.4,40.3-1.2,80.7-2.1,121c-0.1,4.5-1,9.3-2.5,13.6c-1.7,5-4.2,9.8-7.1,14.2c-1.8,2.7-4.6,5-7.4,6.6
		c-2.4,1.4-5.6,1.2-8.1,2.3c-2.1,1-5.2,2.5-5.6,4.3c-1.4,6.5-5.9,6.8-10.9,6.7c-4.2-0.1-8.2,0-8.8,5.6c-0.1,0.6-1,1.5-1.7,1.7
		c-5.6,1.6-5.9,5.9-5.9,10.7c-0.1,15.8,0.5,16.6,16.5,16.6c52.5,0.1,105,0.3,157.5,0.4c4,0,8.1,0.1,11.9-0.7
		c1.9-0.4,4.6-2.8,4.8-4.4c0.5-6.5,0.2-13,0.1-19.5c-0.1-5-2.6-8-7.7-8.8c-3.1-0.5-6.2-1.1-9.3-1.9c-1.3-0.3-3.4-1.4-3.4-2.2
		c-0.3-7.1-5.8-7.4-10.6-9.2c-3.9-1.4-9.3-3.1-10.8-6.2c-3.9-8.4-8.9-16.7-9-26.6c-0.6-51-1.5-102-2.1-153
		c-0.8-69.2-1.4-138.3-1.9-207.5c0-5.7,1.1-11.5,2.1-17.2c0.3-1.4,2-3.1,3.4-3.8c8.9-4.3,10.6-8.3,8.1-18
		c-3.1-11.9-1.1-23.4,3.9-34.5c1.8-3.9,4.9-6.1,9.1-7.1c2.5-0.6,6.2-1.4,7-3.1c3.6-7.5,13.5-10.7,13.9-20.4c5.5-4.1,2.9-10,3.4-15.2
		c0.4-4.2-1.5-5.4-5.5-5.4c-23.3-0.1-46.6-0.4-69.9-0.6c-6.7-0.1-13.3-0.1-20-0.3c-1.1,0-2.3-0.4-4.1-0.8c8.3-4.8,16.3-4.6,24.5-2.9
		c17.7,3.7,35.5,4.1,53.1,0.6c12.9-2.5,24.1-8.2,31.2-20.3c2.4-4.1,6.3-7.5,9.9-10.8c5.8-5.4,11.9-10.5,17.8-15.8
		c1-0.9,1.5-2.4,2.2-3.7c0.8,0.5,1.6,1,2.4,1.6c-1.5,4.6-3,9.2-4.5,13.8c-1.6,5-4.6,10.1-4.3,15.1c0.4,6.3,4.6,12.2,2.6,19
		c-0.1,0.3,0.1,0.7,0.3,0.9c5,4.7,2.3,10.8,2.5,16.1c0.2,4.9-2.3,9.8-2.9,14.8c-4.4,34-10.2,68-12.5,102.1
		c-3.6,52.7-4.8,105.5-6.7,158.3c-1.9,50.8-3.4,101.6-5.3,152.4c-0.8,21.8-2.3,43.6-3.8,65.4c-0.5,6.8,2,11.8,7.9,14
		c5.3,2,11.2,2.4,16.9,3.3c3.1,0.5,6.2,0.6,9.3,0.9c0.1,0.6,0.2,1.3,0.3,1.9c-5.4,2.3-10.8,4.8-16.3,7c-6.6,2.6-14,4.2-14.4,13.4
		c0,0.2-0.1,0.3-0.2,0.5c-4.4,8.4-3.5,10.8,5.6,13.4c20.3,5.8,40.5,5.7,60.5-1.3c3.2-1.1,5.7-4.3,8.4-6.5c1.8-1.4,3.4-4.1,5.1-4.2
		c9.1-0.2,18.5-1,27.3,0.8c11.4,2.3,22.6,3.8,34.2,2.7c9.5-0.9,18.9-2,28.3-3.3c4.3-0.6,6.3,0.6,6.3,5c0,6.4,3.6,10.7,8.9,13.4
		c3.7,1.9,7.6,3.7,11.7,4.2c16.4,2.2,32.6,0.4,48.5-4c8.4-2.3,11-9.9,6.1-17.2c-1.7-2.6-4.4-4.5-6.7-6.6c-5-4.4-10.2-8.5-15.2-12.9
		c-1.4-1.2-2.3-2.9-3.6-4.7c5.3-1.3,9.9-2.2,14.3-3.7c13.9-4.7,17.7-14.9,11.8-28.2c-3.1-7-5.9-14.7-6.5-22.3
		c-2.8-35.4-5.7-70.8-6.8-106.2c-2.2-66.9-11.4-133.1-17.9-199.6c-3.2-33.2-6.4-66.3-9.5-99.5c-0.3-2.8,0-5.6,0-8.5
		c1.4,2.4,1.9,4.8,2.3,7.2c2.2,13.9,6.5,26.9,15.7,37.8c2.1,2.6,3.7,3.9,5.4,4.3c3,0.6,5-2.6,6.6-1.7c1.5,0.9,1.5,4.9,0.1,7.6
		c-3.2,6.4-13.5,6.2-14.2,6.1c1.5,3.2,2.9,5.6,3.8,8.3c1.1,3.2,3,3.8,6.1,2.8c12-3.5,19-21.5,12.4-33.2c-2.7-4.8-3.4-8.8-0.8-13.9
		c3.3-6.6,2.3-8.4-3.4-13.2c-4.1-3.4-8-7-11.7-10.9c-4-4.2-6.5-9.3-7.2-15.4c0.7,0.4,1.5,0.7,2,1.2c6.3,6.9,14.4,10.5,23.1,13.3
		c4.2,1.4,8.4,3.2,12.3,5.4c8.3,4.7,17.3,3,22.9-4.7c2-2.7,3-6.2,5.5-8.3c8.3-7.1,9.4-16.5,9.1-26.4c-0.2-5,0-9.5,3.4-13.6
		c1.8-2.2,3.3-4.8,4.4-7.5C512.7,328.2,511.5,318.8,507.4,310L507.4,310z"/>
	<path d="M507.4,310c-8.8-18.8-17.9-37.5-27.1-56.2c-2.5-5.1-3.8-9.7-2-15.6c2.9-9.9,3.6-20.1-6-27.4c-6.6-5-10.8-11.6-15-18.4
		c-2.7-4.4-6.1-8.3-8.9-12.6c-1.5-2.4-3-5.2-3.2-8c-0.8-9.9-6.2-16.1-15.9-18.3c-3.2-0.7-6.5-2.6-8.9-4.9c-4.8-4.3-9.9-7.1-16.4-7.6
		c-3.6-0.3-7.4-0.7-10.6-2.2c-9.7-4.4-19.8-5.1-30.3-4.8c-5,0.1-10.3-0.8-15.1-2.4c-4.6-1.6-10.1-3.7-7.8-10.9
		c0.3-1.1-0.8-2.5-0.9-3.8c-0.1-1.7,0.3-3.4,0.3-5.1c0-1.2,0.3-2.8-0.3-3.6c-3.2-4.1-1.1-5.8,2.6-7.3c2.1-0.9,2.4-0.8,3.4-1.6
		c1.4-1.2,1.7-2.9,2-4c0.5-2.2,0-2.8,0.3-4.4c0.5-2.4,2.4-3.8,3.6-4.9c5.9-4.9,11.1-12.5,10.1-13.7c-0.6-0.7-3.3,0.7-3.6,0.2
		c-0.4-0.8,5.4-3.2,6-7c0.3-2.4-1-5-3.8-8.5c-0.9-1.1-0.9-3.7-0.2-5c2.5-5.2-1.8-18.2-7.1-20.3c-0.5-0.2-1-0.5-1.4-0.4
		c-4,0.9-5.2-1.8-6.4-4.7c-2.2-5.2-5.4-9.8-11.3-11.1c-4-0.9-6.6-2.9-9.1-6.1c-1.7-2.2-5.2-3.2-8-4.2c-4.4-1.6-8.9-3.2-13.5-4.2
		c-3-0.7-6.2-1.1-9.2-0.5c-2.6,0.5-4.9,2.8-7.6,3.7c-1.3,0.4-4.1,0-4.4-0.7c-2-4.8-4.5-2.7-7.5-1.2c-2.9,1.4-6.2,3.4-9.1,3.1
		c-8.7-0.9-11.6,0.9-13.3,9.6c-0.4,1.9-2.2,3.6-3.6,5.2c-1.9,2.4-4.9,4.4-5.6,7c-1.7,6.6-1.3,6.8-8.7,7c-4,0.1-5.9,2.4-4.4,5.8
		c1.4,3.1,4.4,5.5,6.6,8.4c0.9,1.2,2.4,3.6,2,4.1c-4.3,4.8-1.7,7.4,2.2,9.9c0.9,2.9,2.2,5.8,4.1,8.1c3.7,4.6,9.9,7.9,6.8,15.5
		c-0.3,0.7,0.1,1.7,0.4,2.4c1.7,3.5,0.1,6.2-1.7,9.2c-1.5,2.5-3,6.2-2.2,8.6c1.1,3.3,0.5,5.7-1,8.3c-2.9,5.1,1,9.6,1.1,14.5
		c0,2,1,4,1.3,6c0.3,2.6-0.6,5.8,0.7,7.6c3,4.1,7,7.5,10.8,11.4c-7.2,4.2-15.8,0-22.8,4.9c-4.4,3.1-10.4,3.9-14.5,7.3
		c-16.8,13.4-23.6,31.6-23.6,52.8c0,3-0.9,6.7-2.7,9c-8.5,10.9-15.9,22.3-20.7,35.2c-1.2,3.2-3.3,4.3-6.5,5.2
		c-7.3,2-15.4,3.4-21.4,7.7c-13.6,9.7-28.7,14.4-44.4,18.5c-7.8,2-14.4,0.7-20.9-3.3c-1.8-1.1-3.7-2.3-5.5-3.5
		c-4.5-3.2-9.2-3.1-14.2-1.3c-6.2,2.1-12.7,3.6-19,5.8c-2.3,0.8-5.3,2.3-6.2,4.2c-4.6,10.5-8.9,21.3-4.8,33.2
		c1.2,3.4-0.1,5.6-4.5,5.4c-5.8-0.3-11.7-0.2-17.5-0.1c-11.7,0.2-9.9-1.9-11.6,11c-1.1,8.2,8,11.5,7,19c0,0.1,0.6,0.3,0.8,0.5
		c2.6,2.9,5.7,5.4,7.6,8.7c2.1,3.5,4.6,5.5,8.6,5.9c2,0.2,4,0.8,5.9,0.8c9.4,0.2,13.4,6.4,15.3,14.4c2.2,9.5,2.5,19-0.5,28.6
		c-2.6,8.3,1.5,14.1,10.2,15c4.8,0.5,7.5,2.8,8.1,7.3c0.8,6.8,1.7,13.6,1.7,20.4c-0.5,76.8-1,153.6-1.8,230.5
		c-0.4,40.3-1.2,80.7-2.1,121c-0.1,4.5-1,9.3-2.5,13.6c-1.7,5-4.2,9.8-7.1,14.2c-1.8,2.7-4.6,5-7.4,6.6c-2.4,1.4-5.6,1.2-8.1,2.3
		c-2.1,1-5.2,2.5-5.6,4.3c-1.4,6.5-5.9,6.8-10.9,6.7c-4.2-0.1-8.2,0-8.8,5.6c-0.1,0.6-1,1.5-1.7,1.7c-5.6,1.6-5.9,5.9-5.9,10.7
		c-0.1,15.8,0.5,16.6,16.5,16.6c52.5,0.1,105,0.3,157.5,0.4c4,0,8.1,0.1,11.9-0.7c1.9-0.4,4.6-2.8,4.8-4.4c0.5-6.5,0.2-13,0.1-19.5
		c-0.1-5-2.6-8-7.7-8.8c-3.1-0.5-6.2-1.1-9.3-1.9c-1.3-0.3-3.4-1.4-3.4-2.2c-0.3-7.1-5.8-7.4-10.6-9.2c-3.9-1.4-9.3-3.1-10.8-6.2
		c-3.9-8.4-8.9-16.7-9-26.6c-0.6-51-1.5-102-2.1-153c-0.8-69.2-1.4-138.3-1.9-207.5c0-5.7,1.1-11.5,2.1-17.2c0.3-1.4,2-3.1,3.4-3.8
		c8.9-4.3,10.6-8.3,8.1-18c-3.1-11.9-1.1-23.4,3.9-34.5c1.8-3.9,4.9-6.1,9.1-7.1c2.5-0.6,6.2-1.4,7-3.1c3.6-7.5,13.5-10.7,13.9-20.4
		c5.5-4.1,2.9-10,3.4-15.2c0.4-4.2-1.5-5.4-5.5-5.4c-23.3-0.1-46.6-0.4-69.9-0.6c-6.7-0.1-13.3-0.1-20-0.3c-1.1,0-2.3-0.4-4.1-0.8
		c8.3-4.8,16.3-4.6,24.5-2.9c17.7,3.7,35.5,4.1,53.1,0.6c12.9-2.5,24.1-8.2,31.2-20.3c2.4-4.1,6.3-7.5,9.9-10.8
		c5.8-5.4,11.9-10.5,17.8-15.8c1-0.9,1.5-2.4,2.2-3.7c0.8,0.5,1.6,1,2.4,1.6c-1.5,4.6-3,9.2-4.5,13.8c-1.6,5-4.6,10.1-4.3,15.1
		c0.4,6.3,4.6,12.2,2.6,19c-0.1,0.3,0.1,0.7,0.3,0.9c5,4.7,2.3,10.8,2.5,16.1c0.2,4.9-2.3,9.8-2.9,14.8c-4.4,34-10.2,68-12.5,102.1
		c-3.6,52.7-4.8,105.5-6.7,158.3c-1.9,50.8-3.4,101.6-5.3,152.4c-0.8,21.8-2.3,43.6-3.8,65.4c-0.5,6.8,2,11.8,7.9,14
		c5.3,2,11.2,2.4,16.9,3.3c3.1,0.5,6.2,0.6,9.3,0.9c0.1,0.6,0.2,1.3,0.3,1.9c-5.4,2.3-10.8,4.8-16.3,7c-6.6,2.6-14,4.2-14.4,13.4
		c0,0.2-0.1,0.3-0.2,0.5c-4.4,8.4-3.5,10.8,5.6,13.4c20.3,5.8,40.5,5.7,60.5-1.3c3.2-1.1,5.7-4.3,8.4-6.5c1.8-1.4,3.4-4.1,5.1-4.2
		c9.1-0.2,18.5-1,27.3,0.8c11.4,2.3,22.6,3.8,34.2,2.7c9.5-0.9,18.9-2,28.3-3.3c4.3-0.6,6.3,0.6,6.3,5c0,6.4,3.6,10.7,8.9,13.4
		c3.7,1.9,7.6,3.7,11.7,4.2c16.4,2.2,32.6,0.4,48.5-4c8.4-2.3,11-9.9,6.1-17.2c-1.7-2.6-4.4-4.5-6.7-6.6c-5-4.4-10.2-8.5-15.2-12.9
		c-1.4-1.2-2.3-2.9-3.6-4.7c5.3-1.3,9.9-2.2,14.3-3.7c13.9-4.7,17.7-14.9,11.8-28.2c-3.1-7-5.9-14.7-6.5-22.3
		c-2.8-35.4-5.7-70.8-6.8-106.2c-2.2-66.9-11.4-133.1-17.9-199.6c-3.2-33.2-6.4-66.3-9.5-99.5c-0.3-2.8,0-5.6,0-8.5
		c1.4,2.4,1.9,4.8,2.3,7.2c2.2,13.9,6.5,26.9,15.7,37.8c2.1,2.6,3.7,3.9,5.4,4.3c3,0.6,5-2.6,6.6-1.7c1.5,0.9,1.5,4.9,0.1,7.6
		c-3.2,6.4-13.5,6.2-14.2,6.1c1.5,3.2,2.9,5.6,3.8,8.3c1.1,3.2,3,3.8,6.1,2.8c12-3.5,19-21.5,12.4-33.2c-2.7-4.8-3.4-8.8-0.8-13.9
		c3.3-6.6,2.3-8.4-3.4-13.2c-4.1-3.4-8-7-11.7-10.9c-4-4.2-6.5-9.3-7.2-15.4c0.7,0.4,1.5,0.7,2,1.2c6.3,6.9,14.4,10.5,23.1,13.3
		c4.2,1.4,8.4,3.2,12.3,5.4c8.3,4.7,17.3,3,22.9-4.7c2-2.7,3-6.2,5.5-8.3c8.3-7.1,9.4-16.5,9.1-26.4c-0.2-5,0-9.5,3.4-13.6
		c1.8-2.2,3.3-4.8,4.4-7.5C512.7,328.2,511.5,318.8,507.4,310L507.4,310z M423.1,165.7c12.1,8.4,22.1,19.1,29.7,31.9
		c0.7,1.2,1.1,2.7,1.7,4.1c-2.5,1.1-4.6,2-6.8,2.9c0.1,0.3,0.1,0.6,0.2,1c2.7-0.2,5.4-0.5,8.1-0.8c0.2,0.5,0.4,1,0.5,1.6
		c-5.2,2.9-10.4,5.8-15.5,8.7c0.1,0.2,0.1,0.4,0.2,0.6c3.8-0.9,7.6-1.9,11.4-2.6c2.6-0.4,5.3-0.9,7.9-0.5c11.1,1.6,15.5,12.1,9,21.5
		c-0.2,0.3-0.9,0.2-2,0.4c0.9-2.9,1.9-5.4,2.5-8c1-3.8-0.8-5.7-4.6-5.9c-7.8-0.5-14.1,2.9-20.1,7.4c-13,9.9-23.2,22.4-32.2,35.9
		c-8.5,12.8-8.3,19.1,1.1,30.9c-4.9-1.5-8.1-4.7-9.2-9.6c-1.7-7.8-1.6-15.6,1.2-23.1c4.5-11.7,9.8-23,18.5-32.3
		c1-1.1,1.7-2.6,2.6-3.8c-0.4-0.3-0.7-0.6-1.1-0.9c-5.7,6.1-11.3,12.2-16.7,18c-2.9-15.4,3.6-29.6,7.3-44.3
		c-9.9,13.9-11,30.9-16,46.6c-0.6-0.1-1.1-0.1-1.7-0.1v-48.7c-0.6-0.1-1.3-0.1-2-0.1c-0.7,3.8-1.5,7.5-2,11.3
		c-3.9,29.6-7.2,59.2-14,88.3c-2.8,11.8-7.9,21.4-17.5,28.7c-1.4,1-2.9,2-4.3,3c-0.2-0.3-0.4-0.6-0.6-0.8c0.1-0.3,0.2-0.7,0.4-0.9
		c14.7-15.6,17.9-35.8,20.8-55.7c3.2-21.9,4.8-44,7.4-66c1.3-11.3,3.2-22.6,9.5-32.3C404.4,160.3,412.4,158.3,423.1,165.7
		L423.1,165.7z M241.6,350.8c-1.5,0.1-2.9,0-4.9,0c0.8-5,4.5-5.6,7.8-6c14.7-1.5,29.4-3.4,44.2-4c11.9-0.5,23.9,0.6,35.9,1
		c9.8,0.3,19.8-0.5,29.4,1.1c9.7,1.6,19,5.5,28.4,8.4c-0.2,0.7-0.5,1.4-0.8,2c-5-1.8-10.1-3.2-14.9-5.3c-10.6-4.6-21.2-6.1-32.5-3
		c-5.7,1.6-11.8,2-17.8,2.3C291.5,348.6,266.6,349.7,241.6,350.8L241.6,350.8z M312.5,353.9c-2.1,3.8-4.2,7.7-6.4,11.7
		C305.7,356,307.2,353.4,312.5,353.9z M367.9,209.9c-4.5,20.6-8.2,41.5-14.2,61.7c-4.4,14.9-11.7,28.9-18.2,43.1
		c-1.7,3.8-5,7-7.9,10.2c-1.4,1.5-3.6,2.4-5.5,3.5c-0.3-0.3-0.6-0.6-0.9-0.9c0.2-0.7,0.2-1.5,0.7-2c8.4-8.9,12.4-20.1,15.2-31.6
		c7.5-31.1,14.4-62.3,22-93.3c1.8-7.5,5-14.8,8.2-21.9c1.6-3.6,4.7-6.5,7.1-9.7c0.5,0.2,0.9,0.5,1.4,0.8
		C373.2,183.2,370.8,196.6,367.9,209.9L367.9,209.9z M378,188.3c1-5.4,2.6-10.7,4.4-15.9c3.2-9.4,12-15.9,21.8-15.5
		c-13,7.2-17.1,18.4-19,30.7c-3.7,23.7-6.6,47.5-11.4,71c-3.1,15.2-8,30.2-13.7,44.7c-3.1,7.8-9.2,14.5-14.4,21.3
		c-1.6,2.1-4.7,3.2-7.4,4.3c20.5-25.6,22.9-57.2,29.5-87.2C371.8,224,374.5,206.1,378,188.3L378,188.3z M369.9,337.8
		c1.8,0.3,3.6,0.7,5.4,1.2c0.5,0.1,0.8,0.5,2.1,1.2c-46.7-2.5-92.5-4-138.5,2c-1.9-3.3-1.9-4,2.2-4.5c13.7-1.7,27.4-3.9,41.1-4.5
		C311.6,332,340.9,332.4,369.9,337.8L369.9,337.8z M375.9,327.2c3.6-5.1,7.2-10.3,10.9-15.5C386.9,318.2,381.7,325.6,375.9,327.2z
		 M362.8,142.2c3.6-2.1,8.3-2.4,12.5-3.5c0.2,0.6,0.4,1.3,0.6,1.9c-22,13.3-34.5,34.6-46.2,56.6c1.2-1.1,2.5-2.2,3.6-3.4
		c1.2-1.2,2.3-2.4,3.3-3.7c4.7-5.8,9.4-11.7,14.1-17.5c10.5-12.6,24.2-20.2,40-24c5.4-1.3,10.7-1.4,17.1,1.9
		c-25.8,0.2-41.3,14.5-52.3,34c-12.1,21.4-22.6,43.8-33.5,65.9c-4.3,8.6-7.9,17.6-11.7,26.5c-0.9,2.1-1.6,4.3-2.3,6.4l1.6,0.8
		l39.6-71.7c0.3,0.1,0.6,0.2,0.8,0.2c-0.3,1.5-0.6,3-1,4.4c-8.4,28.1-16.7,56.2-25.4,84.1c-2.8,9-7.1,17.4-15,23.1
		c-2.7,1.9-6.3,2.7-9.8,3.3c7.3-7.1,16.3-12.6,18.2-25c-2.6,1.2-4.7,1.7-6.2,2.9c-8.2,6.3-16.2,12.9-24.4,19.1
		c-2.2,1.7-4.9,2.8-7.5,4.2c8.4-17.2,16.4-33.8,24.4-50.4c-0.4-0.2-0.8-0.4-1.2-0.6c-8.9,12.5-17.7,25-26.6,37.4
		c-2.4,3.4-4.8,6.9-7.6,9.9c-1.7,1.9-4.4,2.9-6.6,4.3c-0.6-0.6-1.2-1.1-1.8-1.7c24.4-36.6,46.7-74.3,62.8-114.2
		c-3.5,2.3-11.6,14.5-15,22.4c-3.1,7-5.2,14.6-11.8,19.8c-2.3,1.8-3,5.5-4.7,8.1c-12,18.2-23.9,36.5-36.1,54.6
		c-1.7,2.5-4.8,4.2-8.3,7.2c-0.6-3.8-0.9-6-1.4-9.1c-3.9,3.5-7.5,6.8-11,10c-0.4-0.2-0.8-0.5-1.2-0.8c1.7-3.3,3.1-6.7,5.1-9.8
		c16.2-25.2,32.6-50.2,48.8-75.5c10-15.6,18.9-31.8,29.4-47.1c9.2-13.4,19.6-26.1,30.2-38.5C350.7,149.8,356.8,145.8,362.8,142.2
		L362.8,142.2z M385.9,144.4c-7.5,4.3-15.1,8.5-22.6,12.8C369.2,150,375.8,144.2,385.9,144.4z M353.5,139.3
		c-5.9,5.8-11,11-16.1,16.1c-0.4,0.4-0.8,0.6-1.1,1c-9.8,13.5-14.6,12.7-16.3,13.3c-2.8,1-4.2,1.5-5.5,1.6c-1.6,0.1-3.1-0.1-4.5,0.9
		c-0.5,0.3-1.4,1.2-1.2,1.7c0.4,0.9,4.8,1.1,8.4-0.4c1-0.4,2.3-1.1,3.4-0.6c0.5,0.2,0.9,0.8,1,1.3c0.2,1.2-1.1,2.1-3.3,4.1
		c-2.7,2.5-2.5,2.8-3.7,3.5c-10.5,6.4-21.7,9.4-33.7,4.6c-3.5-1.4-4.9-3-5.8-4.4c-0.4-0.6-1.8-3-1-4.2c1.3-1.8,6.6,0.4,7.2-0.9
		c0.4-0.8-1.3-1.6-2-3.9c-0.6-1.9-0.6-4.7,0.4-5.2c2.2-1.1,10.8,8.1,12.9,10.4c0.5,0.6,1.9,2.1,3.2,1.9c0.8-0.1,1.4-0.8,2-2
		c2.2-4.4,6-6.4,10.2-8.2c0,0,1.7-1.4,4.2-4c9.8-9.8,12.5-23.6,15.3-23.1c1.6,0.3,2.7,4.9,3,6.4c0.4,2.2,0.2,4.2,1.1,4.5
		c0.5,0.2,1.3-0.4,1.6-0.9c1.2-1.6,0.5-4,0.2-5.1c-0.8-2.8-3.9-14.1-0.2-18c0.3-0.3,0.7-0.7,1.2-0.8c2.4-0.5,4.4,4.3,8,7.2
		C344.6,137.7,347.9,139.3,353.5,139.3L353.5,139.3z M301,104.9c-1.9-3.2-3.7-6.3-9.1-5.6c-3.3,0.5-7.1-2.9-10.6-4.5
		c1.5-4.2,3.6-5.4,4.6-5.8c5.1-1.9,13,4,17.1,9.1c0.8,1,2.6,3.4,3,3.1c0.4-0.3-1.2-2.9-1-6.4c0.1-1.6,0.6-2.9,1-3.7
		c2.1,0.4,3.2,1.2,3.9,2c1.1,1.3,0.9,2.2,2.2,3.6c0.4,0.4,2.4,3,3.8,1.9c1.3-1,2.5-2.8,2.7-4.4c0.1-1.8-0.6-4-1.6-5.7
		c-2.1-3.5-1.2-6.7,1.1-9.1c2.9-3.1,6.3-5.7,2-11.1c6,0.2,6.2,2.9,5.7,6.4c-0.4,3.3-0.6,6.7-0.9,10c-0.1,2.3,0.1,4.3,1.2,5.9
		c1,1.4,2,0.9,3.8,2.7c1.6,1.7,2.3,3.5,2.2,4.7c0,0.6-0.2,1.2-0.2,1.2c-0.2,0.7-0.4,1.2-0.6,1.6c-0.4-0.4-1.1-1.1-1.6-2.2
		c-0.6-1.4-0.6-2.6-0.6-3.3c-0.5,0.7-1.1,1.9-1,3.3c0.1,2.3,2,3.2,3.4,6c0.5,1.1,1.2,2.8,1.3,5.1c-0.3-0.1-0.7-0.2-1.1-0.4
		c-0.7-0.5-0.8-1.1-1.5-2.1c-0.2-0.3-0.5-0.7-0.9-1.1c-0.8,0.6-1.1,1.2-1.2,1.6c-0.2,0.8,0.3,1.3,0.2,2.2c-0.1,0.8-0.5,1.4-0.9,1.8
		c-0.9-1.9-1.7-3.7-2.5-5.6c-0.3,1.2-0.7,3-0.6,5.2c0.1,2.2,0.2,3.7,1.3,4.7c1.6,1.3,4,0.6,4.5,0.5c0.1,1.3,0,3.2-1.2,4.8
		c-1.5,1.9-3.2,1.2-4.5,3.1c-0.6,0.9-0.8,2.9-1.1,6.9c-0.1,1.2-0.1,2.1-0.2,2.8c-1.4-0.3-4.5-1.1-7.5-3.8c-3.1-2.9-4.2-6.2-4.5-7.5
		c-1.7,0.7-2.6,1.6-3,2.5c-1,2.3,0.1,4.6,0.9,6.1c1,1.8,3,4.3,4.7,4c0.4-0.1,0.5-0.3,0.9-0.3c1.2,0,2.3,3,3.1,6.1
		c-1.9,0.1-5-0.1-7.7-2c-3.4-2.4-4.3-6.2-4.5-7c-0.7-2.8,0.1-3.6-1-5.8c-1-2-2-1.8-3.6-4c-0.9-1.3-2.5-3.6-2.1-6
		c0.5-2.8,3.2-3,3.8-6C302.6,108.4,302,106.7,301,104.9L301,104.9z M275.5,84.4c-0.2-0.1-0.3,1.7-1.5,2.3c-0.6,0.4-1.7,0.4-2.5,0.2
		c0,0-0.1,0-0.1,0c-1.4-0.5-3.3-2.4-3.2-3.6c0.5-7.5,1.7-14.6,2.3-15.7c2-3.2,3.2-3.2,3.5-3.2c1.4,0.1,2.6,1.9,3,3.5
		c0.2,1,0.1,1.4-0.4,3.8c-0.4,2.1-0.2,2.7-1,8.3c-0.1,0.8-0.1,1.7-0.1,2.5c-0.1,0.9-0.1,1.3,0.1,1.5c0.3,0.3,1,0.1,2-0.4
		c0.9-0.3,1.4-0.6,2.1-1.1c0.6-0.4,0.8-0.7,1.1-0.6c0.3,0,0.5,0.3,1.1,1.3c1,1.6,1,1.6,1,1.8c-0.1,0.5-1.4,0.8-4,1.3
		c-1,0.2-2,0.3-2.7-0.1c-0.2-0.1-0.5-0.3-0.7-0.8C275.5,84.8,275.6,84.4,275.5,84.4L275.5,84.4z M291.2,72.8
		c-1.5-1.5-1.8-2.1-1.6-2.3c0.2-0.3,1.5,0.7,3.4,0.4c0.3,0,2-0.3,2.5-1.3c0.5-0.9-0.3-1.8,0.1-2.3c0.3-0.4,0.9-0.2,3,0.1
		c2.8,0.4,3,0.4,3.1,0.6c0.5,1.1-2.1,4.4-5.5,5.2c-2,0.5-3.7,0-4.6-0.3c3.2,4.6,5.5,5.1,9.7,1.8c2-1.5,3.5-3.7,5.5-5
		c0.7-0.5,1.6-0.7,2.6-1.1c1.6-0.7,2.4-1,2.8-0.8c1.2,0.5,1.6,3.6,0.9,6.3c-0.8,2.8-2.6,4.8-6.1,7.6c-3.6,2.9-4.7,3.4-5.1,5.2
		c-0.7,3,2.2,5.2,1.5,6c-1,1.1-7.6-3.5-13.4-7.5c-4.5-3.2-6-5.6-8-8.3c-0.9-1.2-0.4-3.8,0.2-5.5c0.2-0.5,2.8-0.3,4.3-0.1
		C288.1,71.6,289.6,72.3,291.2,72.8L291.2,72.8z M286.6,63.6c0-0.1,1.9-1,4.1-1.5c0,0,3.3-0.8,5.8-0.3c0.1,0,0.3,0.1,0.5,0.1
		c1.4,0.4,2.5,1.3,2.4,1.5c-0.1,0.2-1.5-0.5-3.2-0.9C291.2,61.4,286.7,63.8,286.6,63.6L286.6,63.6z M321.8,54.8
		c3.2-0.2,5.5-1,6.9-1.8c3.7-1.9,4.9-3.7,7.2-3.8c1.7-0.1,4.2,0.7,7.5,5c-1.3-0.7-3.4-1.5-5.8-1.5c-3.1,0-4.6,1.2-8.1,1.9
		C327.7,55,325.1,55.3,321.8,54.8L321.8,54.8z M344.3,76c-2.1,5.3-5.6,8.1-9.6,11.3c-1.8,1.4-3,2.1-3.7,1.7
		c-1.3-0.7-0.6-4.1-0.5-4.3c0.6-2.7,2.9-5.1,5-6c0.9-0.4,1.9-0.5,3.2-0.4c0.7,0.1,1-0.1,1.1-0.2c1.4-0.3,2.8-1.1,3.6-2
		c2.1-2.3,1.8-6.4,0-8.5c-0.3-0.3-0.9-0.8-2.2-1.6c-2.7-1.8-3.6-1.9-4.1-1.9c-1.3,0-1.9,0.5-2.1,0.3c-0.2-0.4,1.6-2.9,4-2.9
		c2.1-0.1,3.5,1.6,4.4,2.7c0.4,0.5,1.6,2,2.1,4.3C346.1,71.5,345.2,73.9,344.3,76L344.3,76z M318.5,8.9c2.2,1.1,3.6,3.6,3.1,4.3
		c-0.6,0.8-3-1.1-7.1-0.8c-2.5,0.2-5.2,1.1-5.1,1.8c0.1,1.1,7.7-0.1,16.6,3.2c5.6,2.1,12.9,6.4,12.5,10c-0.1,0.8-0.6,1.9-1.3,2
		c-1.3,0.3-2.2-2.8-4.9-3.3c-0.9-0.2-2.1-0.1-2.4,0.5c-0.3,0.8,1.5,1.6,2.8,4.2c0.3,0.6,1.4,2.9,0.4,4c-0.2,0.3-0.6,0.4-0.8,0.5
		c-0.2,0.2-0.5,0.5-0.8,0.5c-1.9,0.2-3.4-6.7-4.8-6.5c-1.3,0.1,0,6.1-3.2,8.6c-2.9,2.3-7.1,0-8.4,2.1c-0.9,1.6,0.6,4,0.9,4.4
		c1.9,3,5.7,3.3,7.5,3.5c5.2,0.6,7.5-1.1,8.3-5.5c0,0,1-1.7,2.5-3.3c3.8-4,14.3-6,18.6-1.3c1.2,1.3,1.6,2.8,2.2,4.5
		c0.7,2.3,1.7,7.4,0.2,8.2c-2.4,1.3-11.5-8.6-15.6-9.1c-0.5-0.1-1.7-0.2-2.3,0.5c-0.4,0.5-0.3,1.3-0.3,1.5c0.4,3.1,8.5,3.4,9.3,7.1
		c0.2,0.9,0,2-0.6,2.2c-1.4,0.6-3.3-4.4-7.2-5.5c-3.8-1.1-6.3,0.6-11.9,4c-5.3,3.3-10.5-0.5-14.8-3c-3.1-1.8-1.9-6.7-1.7-10.5
		c0.1-2,0.5-2.9,1.1-3.5c1.8-1.8,4.9-0.5,5.4-1.7c0.4-0.9-0.9-2.7-2.5-3.8c-3.4-2.4-7.1-0.9-9.9-3.5c-0.5-0.4-0.8-0.9-0.7-1.3
		c0.1-0.8,1.4-0.9,3.3-2c1.5-0.9,2.9-2,2.8-2.3c-0.1-0.2-1.3,0.2-3.5,0.8c-3.3,0.9-5.4,1.5-6,0.7c-0.3-0.4,0-1.7,0.7-4.2
		c0.1-0.3,0.2-0.8,0.1-1.5c-0.1-0.5-0.3-0.9-0.5-1.3c-0.6-1.1-0.9-1.1-0.9-1.4c-0.1-1.1,5.2-2.1,11.7-3.5
		C315.3,8.4,316.8,8,318.5,8.9L318.5,8.9z M267.3,11.4c2.5-2,5.8-3,8.9-4.2c0.9-0.4,2.7-0.4,3.2,0.2c2.8,3.1,5.8,2.1,8.8,0.7
		c1-0.5,2.1-1,3.1-1.5c1.8-0.9,4.6-2.2,6.9-2.4c3.7-0.3,6.9,2.4,8.7,4.4c-2.2-0.4-4-0.4-5.1-0.4c-6.5,0.3-7,3.4-14.7,5.1
		c-1.4,0.3-3.1,0.6-3.8,1.9c-0.5,1.1,0.1,2.2-0.4,4.7c-0.2,0.8-0.3,1.2-0.6,1.5c-0.6,0.7-1.8,0.9-4.7,0.4c-3.8-0.6-5.8-1.6-6-1.2
		c-0.4,0.6,3.1,2.5,2.7,4c-0.4,1.7-5.6,2.8-9.3,0.5c-1.9-1.1-4.6-3.6-3.8-6.1C262.2,16.1,264.8,13.3,267.3,11.4L267.3,11.4z
		 M250.4,28.2c2.8-1.9,3.3-1.6,4.1-2.6c1-1.1,2-2.8,1.3-5.9c-0.2-1-0.5-2.8,0-4.9c0.3-1.3,1.2-5,4.2-6.1c1.8-0.6,3.4-0.1,4.4,0.3
		c-1,0.9-2.3,2.3-3.8,4.1c-2.8,3.4-4.2,5.1-3.9,6.8c0.1,0.5,0.2,0.7,2.8,3.8c2.2,2.7,2.6,3.1,2.6,3.4c0,0,0,0.1,0,0.1
		c-0.2,0.9-3.2,0.8-6.2,1.2c-4.6,0.5-7.4,1.9-7.6,1.5C248.3,29.7,249.1,29.1,250.4,28.2L250.4,28.2z M244.6,41
		c-3.1,1.7-3.9,3.7-5.7,3.6c-2.1-0.2-4.2-3.2-3.7-5.2c0.7-2.7,5.8-3.3,8.8-3c3.2,0.4,5.5,2,6.7,3C249.1,39.4,246.9,39.8,244.6,41
		L244.6,41z M251.6,65.4c-1-0.2,0.7-8.9,1.5-20.2c0.6-8.3,0.4-12.6,2.5-13.3c2.1-0.7,3.5,3.1,8,4.2c3.9,0.9,7.6-0.6,14-4.7
		c4.9-3.2,10.4-5.5,15.8-7.7c1.2-0.5,3.5,0.7,4.7,1.8c3.1,3,4.9,5.8,5.2,6.7c1.2,3.7,0.1,7-0.2,8.3c-0.7,2.3-1.4,2.8-1.4,4.5
		c0.1,2.2,1.4,3.5,2.9,5.5c3,3.9,6.2,9.5,5.2,10.4c-0.3,0.3-2.3-0.4-6.1-1.9c-1-0.4-1.6-0.5-2.2-0.9c-6.1-3.6-12.3-3.5-18.7-0.8
		c-1.1,0.5-1.8,0.8-1.8,0.8c-1.5,0.8-1.6,1.3-2.3,1.4c-1.2,0.2-2.7-0.8-3-1.9c-0.3-1,0.5-1.7,0.2-2.2c-0.5-0.6-2.6-0.1-3.4,1.2
		c-0.5,0.8,0,1.3-0.5,2c-0.6,1-3.1,1-8.1,0.8c-1.5-0.1-2.3-0.1-2.7-0.2c-1.3-0.2-1.6-0.4-2.6-0.1c-2,0.5-3.6,2.2-3.6,2.2
		C252.6,63.5,252.1,65.5,251.6,65.4L251.6,65.4z M258.1,141c-0.5-0.6-1.1-1.5-1.6-2.7c-0.6-1.4-0.7-2.5-0.9-3.8
		c-0.7-5.4-1.7-5.5-1.3-7.5c0.3-1.5,0.8-1.1,2.1-4.5c0.2-0.5,0.8-2.1,0.8-4.2c0-0.8,0-1.7-0.4-1.9c-0.5-0.2-1.6,0.6-2.1,1.6
		c-0.3,0.7-0.2,1.3-0.2,1.8c0,1-0.3,2.3-1.8,4.1c-1-0.8-2.6-2.3-2.9-4.4c-0.2-1.6,0.2-3.2,2-5.5c2.2-2.9,4.8-5.5,1.4-9.6
		c-0.8-0.9,0.2-4.8,1.5-5.7c6.2-4.4,5.1-10.7,4.2-16.3c-0.5-2.9,0.3-3.2,0.4-4c0,0,0-0.3,0-0.5c-0.1-1.4-3.7-4.6-3.2-6.6
		c0-0.1,0.2-0.7,0.6-0.8c1-0.3,1.9,1.8,3.9,2.8c0.9,0.4,2.2,0.8,4.2,0.4c-0.2,5.3,1.3,9.9-2.3,14.2c-0.6,0.7-0.9,1.7-1.1,2.8
		c-0.2,1.3-0.5,2.4-0.5,3.2c0.6,0.3,1.5,0.7,2.5,0.6c1.4-0.2,1.8-1.1,3.4-1.6c1.8-0.5,3.6,0,3.6,0.3c0,0.3-1.3,0.3-2.7,1.1
		c-1.3,0.8-1.9,1.8-2.6,2.8c-2.1,3-4.9,5.8-5.5,5.5c-0.2-0.2,0.9-1.6,0.6-3.4c-0.1-0.5-0.4-1.4-0.7-1.4c-0.7,0-1.6,6.1-0.7,12
		c0.9,6.1,3.5,11.4,4.4,11.2c0.5-0.1,0.1-1.6,0.9-4.3c0.6-2.1,1.6-3.5,2.5-4.9c1.9-2.9,3.2-4.9,5.6-5.5c1.2-0.3,1.1,0.2,4,0.2
		c4.5,0.1,5.8-1,7.7,0.1c1.5,0.8,2.2,2.2,2.2,2.2c0.6,1.2,0.3,1.7,0.9,2.4c1,1.3,3.5,1.7,4.8,0.7c0.6-0.5,0.4-1,1.2-2.1
		c0.7-1,2.1-2.4,2.7-2.2c1.5,0.6-3.9,10.1-0.1,16.7c1.3,2.2,2.2,1.8,3.3,4.2c2,4.5-0.4,8,1.5,10.2c0.8,0.9,2.6,1.8,7,0.8
		c-1.5,4.8-3,6-4.1,6.1c-1.6,0.1-2.3-1.9-4.5-1.9c-1.4,0-1.4,0.9-4.2,2.1c-2.4,1.1-3.3,0.9-4,1.8c-0.7,1-0.5,2.5-0.1,3.6
		c-0.3-0.2-5.1-2.9-4.8-6.1c0-0.4,0.1-0.9,0.5-1.3c1.4-1.6,4.7,1,7-0.4c1.8-1.1,2.1-3.8,2.2-5.8c0.1-0.9,0.2-2-0.3-2.3
		c-0.7-0.3-1.9,1.1-3,2.2c-5.1,5-9.5,3.8-11,7.7c-0.6,1.6,0.1,2-0.8,4.1c-1,2.3-2.7,3.8-4,4.7c-1-5.8-3.2-9.7-5.1-9.6
		c-1.4,0-3.1,2-3.7,2.6c-0.8,0.9-1.3,1.7-1.6,2.3c-1-1.2-2.3-3-3.2-5.4c-1.2-3.3-0.9-5.8-1.9-6.1C260.5,137.9,259.7,138.3,258.1,141
		L258.1,141z M53.9,430.9c0-0.8,0.1-1.6,0.1-2.5c28.1-3.3,56.3-2.3,84.3,2.5H53.9z M54.4,413.1c0-0.4,0-0.9,0-1.3
		c27.7-3.7,55.4-3.5,83.2-0.1c0,0.5,0,0.9,0,1.4L54.4,413.1L54.4,413.1z M131.8,420.7c-25.2,0.7-50.4,1.5-75.6,2.2
		c0-0.6,0-1.2-0.1-1.9C81.3,417.3,106.5,417.8,131.8,420.7L131.8,420.7z M131.7,837.5c-8.4,5.1-55.6,6.9-65.8,0H131.7z M76.4,453.9
		c4.3,6.2,2.6,370.5-1.7,376.5C74.1,704.9,73.6,579.4,76.4,453.9z M85.3,456.7c0.2-1.2,1.3-2.2,1.9-3.4c0.8,0.2,1.6,0.4,2.3,0.6
		c-0.9,125.7-1.9,251.5-2.8,378.5C83.7,828.4,83.1,467.3,85.3,456.7L85.3,456.7z M108.2,831.2V452.6c2.7,4.1,3.8,372.2,1.4,378.7
		C109.1,831.3,108.6,831.2,108.2,831.2L108.2,831.2z M117.4,456c0.4,3.3,1.2,6.5,1.3,9.8c0.5,25.1,1,50.3,1.1,75.5
		c0.6,94,1.2,187.9,1.7,281.9c0,2.4-0.3,4.9-0.5,7.3C117.1,825.6,113.5,462.5,117.4,456L117.4,456z M126.5,503.4c0.6,0,1.2,0,1.8,0
		c0.6,85.9,1.2,171.9,1.7,257.8c-0.3,0-0.6,0-0.8,0C128.3,675.3,127.4,589.3,126.5,503.4L126.5,503.4z M133.4,852.7
		c-15.8,6.4-61.1,5.7-72.1,0H133.4z M179.8,886.3c0,0.9,0,1.8,0,2.7c-55.2,1.1-110.5,0.3-165.7-1.8
		C69.4,884.4,124.6,884.5,179.8,886.3L179.8,886.3z M161.8,879.2H30.6c0-0.3,0-0.6,0-0.9h131.3C161.8,878.6,161.8,878.9,161.8,879.2
		L161.8,879.2z M154.6,861.9c0,0.6,0,1.2,0,1.8c-36,6.2-72,6.2-107.8-1.8H154.6L154.6,861.9z M54,380.8c29.1-4,58.2-3.3,87.2,0H54z
		 M25.6,371.3c46.6-2.7,93.1-2,139.7-0.1C118.7,373.7,72.1,372.8,25.6,371.3z M178,342.2c6.4,0,6.4,0.1,5.5,6.5H7.2v-7.1
		c1.7,0,3.3,0,4.9,0C67.4,341.8,122.7,342,178,342.2L178,342.2z M47.9,312.6c1-0.3,3.5,3.5,9.9,20.9l-10.9,0.1
		c-0.6-3.2-1.3-5.8-1.9-7.5c-1.3-4.2-2.5-6.3-1.4-8.1c0.5-0.8,1-0.8,2.3-2.6C47.4,313.5,47.5,312.7,47.9,312.6L47.9,312.6z
		 M178.6,306.6c-16.3,7.9-33.5,8.4-33.5,8.4c-7.8,0.2-20.8-0.2-27.4-1c-0.8-0.1-3.6-0.5-7.3-0.4c-1.9,0-4.6,0.2-7.7,0.8
		c-0.9,0.2-3.8,0.8-7.3,2c-2.2,0.8-2.7,1.1-5.6,2.2c-1.3,0.5-2.6,0.9-4.8,1.6c-6.7,2-6.7,1.8-10.3,3c-4.9,1.6-5.7,2.4-9.1,2.9
		c-2.4,0.4-5.8,0.9-6.7-0.6c-1-1.6,1.2-4.5,1.5-4.9c1.6-2.2,3.3-2.8,8.7-5.6c5.8-3.1,6.7-3.9,6.6-4.7c0-1.6-3.1-2.9-4.6-3.3
		c-1.7-0.5-2.3-0.1-7.4-0.2c-1.5,0-1.1,0-3.6-0.1c-4.5-0.1-6.8-0.2-7.3-0.1c-6.7,1-8.9,11-13.4,10.4c-0.3,0-1-0.1-1.4-0.7
		c-1-1.2,0.6-3.5,2-6.7c2.9-6.5,1.8-8.9,4.6-11.1c1-0.8,1.7-1,4.4-1.7c5.8-1.6,11.6-3.5,17.6-4.7c2.8-0.6,6.1-0.5,8.9,0.3
		c2.8,0.8,5.2,3,7.8,4.4c5.6,3.2,11.5,4.2,17.8,2.8c6.5-1.5,13-2.7,19.6-4c9.8-2,18.6-6,26.4-12.4c5.9-4.8,12.6-7.9,20.4-8.7
		c5-0.5,9.2,0,11.8,5.1c1.9,3.9,2.3,8,1,11.5c-0.8,2.2-2.1,3.8-2.3,3.9c-1.6,2-3.2,2.5-3.1,3c0.4,1,10.6-2.8,11.9-0.5
		c0.5,0.8-0.4,2.1-1.3,3.4C182.7,304.6,179.3,306.3,178.6,306.6L178.6,306.6z M218.7,222.5c2.3,0,3.3,0.5,3.9,1.2
		c0.9,1.2,0.5,2.9,0.3,3.7c-2.9,11.8-8.5,34.5-21,50.1c0,0-2.8,3.5-8,6.9c-4.4,2.9-6,2.6-6.7,2.4c-2-0.7-2.9-3.1-3.7-6.1
		c-2.5-9.4,0-17.8,0.3-18.8c3.2-11.7,10.9-20.9,18.4-30c2.7-3.3,4-6.3,3.7-10.7c-1.1-13.5,2.4-26.1,9-37.8
		c4.1-7.3,10.1-12.8,17.5-16.6c2.4-1.2,5.1-1.7,7.7-2.5c0.4,0.5,0.8,1.1,1.2,1.6c-2,6.1-4.8,14.3-8.9,23.8
		c-0.9,2.2-10.1,23.7-12.8,22.9c-1.1-0.4-0.1-4.2-1.3-4.6c-2.4-0.8-10.1,14.1-7.9,16C211.5,224.6,213.6,222.5,218.7,222.5
		L218.7,222.5z M246.5,163.8c-5.4,15.8-11.1,32.1-16.6,48.2C228.2,206.3,240.4,171,246.5,163.8z M228.2,241.3
		c2.5-13.6,5.8-27,9.5-40.3c3-10.9,6.9-21.6,10.9-32.1c1.2-3,4.4-5.2,7.3-7.1c-1.8,8.9-4.3,17.8-5.2,26.9
		c-0.9,9.2-0.2,18.5-0.2,27.8c0.4,0,0.9,0,1.3,0.1c0.4-5.9,0.8-11.9,1.4-17.8c0.6-6.1,0.8-12.4,2.1-18.4c1.3-5.9,3.8-11.5,5.8-17.2
		c0.4,0.1,0.8,0.2,1.2,0.4c-1,10.1-2,20.1-3,30.2c0.3,0,0.7,0.1,1,0.1c2.4-9.7,4.8-19.4,7.1-29.1c0.7,0.1,1.4,0.1,2.1,0.2
		c-2.9,21.3-2.4,42,8.3,61.4c-2.2-12.8-4.5-25.7-6.7-38.5c0.3-0.4,0.7-0.8,1-1.2c12.5,8.3,25.4,6.7,39.2,1.5
		c-13.7,22.6-26.7,44.1-40.7,67c-1.4-2.4-2.1-3.5-2.8-4.6c-0.8,0.2-1.4,0.4-2,0.6c-7.3,2.3-14.4,5.3-21.9,6.6
		C233,259.5,226.2,252.5,228.2,241.3L228.2,241.3z M232.6,301.3c1.8-3.9,3.4-7.8,5-11.6c1.6,0.8,3.6,1.8,5.6,2.9l1-1
		c-5.5-7.5-10.6-15.2-8.8-26c4.4,1.9,7.9,3.4,12.9,5.6c-1.8-1.7-2.5-2.3-3.4-3.2c7.5-4,14.5-8.9,24.2-8.7
		c-10.2,20.6-26.3,36-39.9,54.2C226.5,307.6,231,304.9,232.6,301.3L232.6,301.3z M228.4,585.2c0,17.3,0.1,34.6,0,51.9
		c-0.2,64.3-0.5,128.7-0.7,193c0,5.2-2.6,7.9-7.8,8.1c-2.1,0.1-4.3,0-6.7,0c-0.1-1.2-0.4-2.2-0.3-3.1c0.8-52.2,1.2-104.3,2.5-156.4
		c1.5-62.8,3.1-125.6,5.9-188.3c1.6-35.9,5.6-71.7,8.8-107.6c0.6-7.2,2.6-14.4,4.5-21.5c0.5-1.9,2.6-3.4,4-5.1
		c0.4,0.4,0.8,0.9,1.2,1.3c-0.7,8.8-1.4,17.5-2.1,26.3c0.2,0,0.3,0,0.5,0c2.3-9.1,4.5-18.2,6.9-27.3c0.1-0.4,1.4-0.5,2.6-0.8
		c0.1,1.2,0.3,2.2,0.2,3.1c-7.5,72.3-4.6,144.8-3,217.3c1.6,73.1,3.5,146.3,5.5,219.4c0.4,14,1.7,27.9,2.8,41.9
		c0.2,2.9-0.3,4.1-3.4,4.7c-12.2,2.4-12.2,2.4-12.6-9.8C234.5,749.8,231.8,667.5,228.4,585.2L228.4,585.2z M243.6,888.4
		c-1.5,0.9-4.3,2.6-7.5,1.9c-0.8-0.2-3.1-0.6-3.8-2.5c-0.4-1.1-0.2-2.5,0.4-3.4c0.8-1.2,2.2-1.4,2.1-1.6c-0.1-0.3-1.8-0.5-3,0.4
		c-1.5,1.1-0.7,3-2,4.3c-0.7,0.7-2.2,0.7-5.1,0.7c-4-0.1-6.9-0.6-7.9-0.8c-1.6-0.3-1.5-0.4-3.5-0.8c-4.7-0.9-5.4-0.6-5.7-1.1
		c-1.1-2,7-11.4,18.1-13c3.7-0.5,3,0.5,8.5,0c6.5-0.6,10.6-2.2,18.2-2.3c1.5,0,3.3,0.1,5.2,1.1c2.3,1.2,5,4.1,4.4,6.2
		c-0.8,2.9-7,0.9-12.8,5.8C246.8,885.2,246.7,886.5,243.6,888.4L243.6,888.4z M282.3,488.2c-2.5,78.6-5.1,157.2-6.8,235.8
		c-0.9,42.5-0.2,85-0.2,127.5c0,2.8,1.2,6.3-3.9,6.2c-7.2-0.1-10-1.7-10.3-6.5c-4.2-88.7-9-177.4-12.4-266.1
		c-2.6-67.8-2.6-135.6,1.6-203.4c0.5-8.1,2.1-16.2,3.2-24.3c0.4-3.1,1.9-4.5,5.3-3.3c-2.6,100.9,2.5,201.6,9.7,302.3
		c0.5,0,1,0,1.5,0c0-4.8,0-9.7,0-14.5c-0.1-5-0.2-10-0.4-15c-2.2-71.4-4.7-142.9-6.6-214.3c-0.5-17.3,1-34.6,2-51.9
		c0.2-3.3-0.9-8.8,4.9-8.6c5.8,0.1,3.3,5.4,3.9,8.5c0.8,4.2,0.9,8.6,1.5,14.2c1-6.8,1.6-12.2,2.5-17.5c0.6-3.6,4.7-6.4,8-5.2
		c1.1,0.4,2,2.8,2,4.2c-0.2,9.2-0.7,18.3-1.1,27.5C285.3,418.7,283.4,453.5,282.3,488.2L282.3,488.2z M416.9,892.6
		c-1.9,0.9-2.8,1.4-3.8,1.3c-1.9-0.2-2.3-2.2-5.7-5.6c-1.3-1.3-3.9-4-4.6-3.5c-0.6,0.4,0.3,2.6,0.5,3.1c1,2.6,2.1,2.8,2,4
		c-0.1,2.1-3.8,3.7-5.6,4.2c-0.7,0.2-2.4,0.6-4.5,0.3c-0.8-0.1-4.6-0.6-7.6-3.9c-0.6-0.7-1.7-1.8-2.3-3.7c-1.4-5.1,0.5-10,5.5-11.2
		c10.9-2.7,18.2-2.5,18.2-2.5c11.3,0,21.8,2.3,24.3,3.8c3.7,2.3,7.8,5.8,7.2,7.3c-0.2,0.5-0.9,0.7-1.7,1c-1.6,0.6-2.4,0.2-3.9,0.5
		c-1.7,0.3-1.6,0.9-3.6,1.7c-1.3,0.5-2.5,0.6-5,0.8c-4,0.3-4.5-0.1-6.1,0.6C418.7,891.3,418.8,891.7,416.9,892.6L416.9,892.6z
		 M427.3,846.6c-14.4-0.1-27.3,4.7-40.2,10.5c-19.4,8.8-40.3,11.3-61.5,11.3c-7.1,0-7-0.4-7.8-7.5c-10-90.5-13.6-181.4-16.1-272.4
		c-0.2-6.8-0.6-13.6-0.9-20.5c-0.5,0.1-0.9,0.1-1.4,0.2c0.7,49.3,1,98.6,2.2,147.9c1.2,49.3,3.4,98.5,5.1,148.3
		c-2.5,0.2-5.6,0.3-9.1,0.5c-0.2-2.1-0.4-3.7-0.5-5.4c-2.2-64.6-4.7-129.2-6.5-193.8c-2.2-81.3-4.2-162.6-1.5-243.9
		c0.7-21.3,2.7-42.6,4.3-63.8c0.5-7.4,0.8-7.4,9.1-6.1c-5.8,67.5-7.8,135-5,202.8c7-58.8,5.2-118.2,10.9-177.2
		c3.7,12.9,10.1,24.6,10.7,38.5c0.8,20,3.2,39.9,4.9,59.8c0.1,0.9,0.3,1.8,1.5,2.7v-75c0.4-0.2,0.9-0.4,1.3-0.6
		c2.4,2.1,4.5,5.1,7.2,6c7.4,2.5,7.6,8.4,7.5,14.4c-0.2,23-0.4,46-0.8,69c0,2.3-1,4.5-1.5,6.8c-1.8,8.8,2.8,13.6,11.6,12.2
		c3.1-0.5,6.1-1.1,9.9-1.8c0,2.6,0,4.5,0,6.5c0,28.3,0,56.7-0.2,85c0,2.5-1.7,4.9-2,7.4c-0.5,4.1-1.3,8.4-0.7,12.4
		c0.5,3.6,3.5,5.5,7.5,5.2c3.9-0.4,6.2-3,6.5-6.5c0.3-3.6-0.5-7.2-1.1-10.8c-0.5-3-1.9-6-1.9-9c-0.2-28.2-0.2-56.3-0.2-84.5
		c0-2.3,0-4.6,0-7.2c2.5-0.4,4.4-0.7,7.1-1.1c2.9,101.9,6.8,203.3,20.4,304c-5.7-133.4-11.4-266.7-17.1-400.1
		c0.3-0.1,0.6-0.2,0.9-0.2c0.9,4.6,2.3,9.1,2.8,13.7c2.4,23.9,5.4,47.7,6.8,71.6c4.5,73.3,8.1,146.7,12.5,220.1
		c2.2,35.6,5.6,71.1,8.4,106.6c0.2,2.3,0,4.6,0,7.3c-15.6,0.2-27.4,9-39.2,18c4.4-1.8,8.8-3.6,13.1-5.5c4.3-1.8,8.4-4.1,12.8-5.7
		c11.6-4.2,23.4-0.5,30.4,9.5C427.7,846.2,427.5,846.6,427.3,846.6L427.3,846.6z M348.3,503.1v-87.6c10.9,1.8,11.3,2,11.5,11.2
		c0.5,23.8,0.8,47.6,1.4,71.4c0.1,3.5-1.1,4.8-4.5,4.7C353.6,502.7,350.5,503,348.3,503.1L348.3,503.1z M367.3,419.9
		c0.6-0.2,1.3-0.4,1.9-0.6c0.6,1.1,1.7,2.2,1.7,3.4c1.6,25.7,3.1,51.4,4.5,77.1c0,0.5-0.2,1-0.4,2c-1.8,0.1-3.6,0.2-6.2,0.4
		C368.3,474.5,367.8,447.2,367.3,419.9z M425.7,805.7c-0.5,0-1,0.1-1.4,0.1c-10.4-132.1-20.8-264.2-31.2-396.3
		c0.7-0.1,1.4-0.2,2-0.2C410.8,540.9,420.2,673.1,425.7,805.7L425.7,805.7z M481.3,386.7c-1.3,2.6-3.9,4.6-6.2,6.7
		c-0.3,0.2-2.2-0.7-2.7-1.5c-6.6-10-9-21.2-10.4-32.7c0.5-0.2,1-0.5,1.6-0.7c1.5,2.5,2.9,5,4.6,7.4c3.8,5,7.9,9.8,11.5,14.9
		C480.9,382.4,482,385.3,481.3,386.7L481.3,386.7z M484.5,317.3c0.5-2.7,1.7-5.4,3.1-7.7c5.8-9.1,5.1-19.3-2.7-26.8
		c-3.9-3.8-8.5-6.8-12.8-10.2c-0.5,0.4-0.9,0.8-1.4,1.1c1.4,2.1,2.6,4.2,4.1,6.2c10.6,14,8.2,25.7-7.1,35c-7.5,4.5-15,9.3-22.4,14
		c0.2,0.4,0.4,0.8,0.6,1.2c8.8-4.2,17.7-8.3,27.3-12.9c-6.5,12.1-15,20.9-26.8,26.5c-9.5,4.5-19.1,8.8-28,14.3
		c-6.3,3.9-11.6,9.3-17,14.5c-2.2,2.1-3.6,2.6-5.9,4.6c-1.3,1.1-2,1.8-2.6,2.6c-1.9,2.2-2.4,4.4-2.9,5c-6.7,7.5-20.2,9.5-29.4,3.9
		c-2.4-1.5-4.7-2.3-7-2.4c-2.4-0.1-5.2,1-5.6,1.2c-1.8,0.6-1.7,0.8-3.5,1.4c-1.7,0.5-2.7,0.6-4.7,1.4c-1.2,0.5-1.8,0.7-2.1,1.1
		c-0.9,1.2,0.3,2.6,0.2,5.2c-0.1,2-1,4.5-2.1,4.6c-1.5,0.2-3.2-3.9-3.7-5.5c-1-2.9-0.6-5-0.5-5.4c0.1-0.4,0.3-1.4,0.9-2.5
		c1.3-2.5,3.7-3.8,6.3-4.9c6.8-3,11.9-3.6,11.8-4.2c0-0.3-1.6-0.4-2.4-0.4c-2.1,0-3.3,0.6-5.7,1.5c-4.8,1.7-7.2,2.6-8.2,2.7
		c-0.7,0.1-1.7,0.3-2.5,1.1c-0.5,0.6-0.7,1.4-1,2.7c-0.3,1.3-0.2,1.8-0.4,2.5c-0.3,1.8-1.5,4.3-2.6,4.3c-1.7,0-3.4-5.8-3.2-10.6
		c0.1-2.2,0.6-3.4,1.3-4.3c1.1-1.4,2.6-1.7,4-2.1c4-1.1,7.9-2.5,11.9-3.6c5.4-1.5,6.5-1.9,6.5-2.3c-0.1-0.6-3.3-0.6-3.7-0.6
		c-2.3,0-3.6,0.4-7,1.1c-4.4,1-4.6,0.9-7,1.5c-4.2,1.2-5,1.9-5.6,2.6c-0.6,0.9-0.5,1.2-1.7,3.1c-0.6,0.9-1.2,1.8-2.2,2.7
		c-0.7,0.7-2.6,2.4-3.6,1.9c-0.6-0.3-0.5-1.4-0.4-5.1c0.2-5.8,0.2-6.2,0.6-7.2c1.1-2.1,3.2-3.1,5.5-4c11-4.2,21.3-2.8,21.6-4.7
		c0.1-0.5-0.5-0.9-0.9-1.3c-1.7-1.4-3.7-0.7-11.5,0.8c-2.5,0.5-5,1.3-7.5,1.5c-1,0.1-2,0.2-3.2,0.8c-1.3,0.7-1.5,1.4-3,2.3
		c-1,0.6-2.1,1.2-2.8,0.8c-1.1-0.6-0.9-3.8,0.3-6c1.7-3.2,5.4-4.4,8.7-5.3c9.8-2.7,14.6-4,20.5-3.9c11.7,0.3,23.6,4.4,25.4,5.2
		c8.5,4.2,15.7,3,23-2.5c9.9-7.5,20.3-14.5,30.2-22c1.9-1.4,3.3-3.8,4.1-6c5.6-14.8,14.4-26.6,29.8-32.4c0.8-0.3,1.5-0.8,2.2-1.2
		c0.4-0.3,0.6-0.7,0.9-1.1c0-0.5,0.1-0.9,0.1-1.4c-10.3,4.4-15.9-3.9-22.8-8c-6.9-4.2-10.6-11.3-12.7-19.1c-1.1-4.3,0.3-7.1,4.4-8.7
		c1.4-0.5,2.8-1.1,4.2-1.4c8.1-2.1,8.8-1.8,13.6,5.1c1.7,2.4,3.5,4.7,6.2,6.7c-0.1-3.1-0.4-6.1-0.5-9.2c-0.1-4.6,1.5-8.2,6.3-9.6
		c4.6-1.3,7.5,1.1,9.8,4.9c3.7,6.3,7.3,12.8,11.5,18.7c8,11.2,11.1,24.5,15.4,37.2c1.9,5.5-2.5,12.5-8.1,14.3
		C485.5,321.4,484.1,319.7,484.5,317.3L484.5,317.3z M491,360.1c-2.2-6.9-4-12.2-5.5-17.6c-0.3-1,0.4-2.7,1.2-3.4
		c6-4.9,12.1-9.6,18.2-14.4c0.5,0.3,1,0.6,1.5,0.9C501.5,336.6,496.5,347.7,491,360.1L491,360.1z"/>
</g>
</svg>
