<?xml version="1.0" encoding="utf-8"?>
<!-- Generator: Adobe Illustrator 28.3.0, SVG Export Plug-In . SVG Version: 6.00 Build 0)  -->
<svg version="1.1" id="Layer_1" xmlns="http://www.w3.org/2000/svg" xmlns:xlink="http://www.w3.org/1999/xlink" x="0px" y="0px"
	 viewBox="0 0 443.9 950.2" style="enable-background:new 0 0 443.9 950.2;" xml:space="preserve">
<style type="text/css">
	.st0{fill:#FFFFFF;}
</style>
<g>
	<path class="st0" d="M301.4,203.1c2.3-2.4,2.8-5.2,0.1-8c-4.7-4.7-9.1-9.7-14.1-14.1c-4-3.6-8.8-6.4-13.1-9.6
		c-2.5-1.8-5.3-3.4-7.1-5.7c-3.8-4.8-7.8-8.1-14.4-7.1c-1.9,0.3-4.2,0-5.8-0.9c-7.1-3.7-14.2-4.9-22.1-2.1c-4.3,1.5-7.1-2.1-5.8-6.7
		c0.6-2.2,1.6-4.5,1.6-6.8c0-4.9,1.5-6.7,6.9-5.7c7.3,1.4,14.3-2.2,15-7.6c0.6-4.5,1.8-8.5,4.2-12.2c2-3,3.9-6,5.9-9.1
		c7.8,2.3,8.9,1.6,9.7-6.8c1.1-11.1,2-22.2,8.8-31.8c1.7-2.4,2.7-4.3,5.9-5.1c6.1-1.5,8.2-7.2,5.8-13.2c-0.6-1.5-0.2-3.9,0.6-5.5
		c1.5-3.4,1.5-6.2-2.1-8c-4.6-2.3-4.7-5.9-3.1-10.1c0.9-2.3,1-3.9,0.3-4.9c-0.8-1.1-2.2-0.7-4.8-1.4c-2-0.5-3.3-1.2-5.8-2.7
		c-5.4-3.1-4.5-4.6-8.5-6.5c-3.1-1.4-5.3-1.3-6.2-3.2c-0.2-0.4-0.3-0.8-0.2-3.2c0-2.2,0.1-3.9,0.2-5.1c-1.9,1.2-3.9,2.3-6,3.5
		c-1.2,0.7-2.4,1.4-3.7,2.1c-0.7-1.8-1.3-3.7-2-5.6c-3.2,1.1-5.3,2.5-6.7,3.6c-1.5,1.2-1.9,1.9-3.1,2.4c-1.8,0.7-4.3,0.4-7.8-1.8
		c-1.3,1.5-2.3,2.6-2.6,3c-28-3.8-49.2,3.9-61.4,30.5c-0.4-2.1-0.2-4-0.3-5.9c0-1.1-0.2-3.2-0.6-3.2c-1.2-0.2-3.1-0.2-3.9,0.6
		c-2,2-3.5,4.3-3.9,6.9c-0.3,1.7,0.2,2,0.1,4.4c-0.1,2.1-0.5,3.8-0.9,5c-1.2,0.5-3.2,1.2-5.6,1c-3.2-0.3-4.9-2.8-5.9-1.4
		c-1.4,2.1-2.6,4.9-2.4,7.4c0.2,2.7,2,5.2,3,7.9c1.1,3,1,5.2-2.3,7.1c-6,3.4-6.2,8.8-0.8,13.2c1.8,1.4,3.8,2.4,5.9,3.6
		c-2,4.1-4.1,8.4-0.6,11.9c2.9,2.8,6.9,4.5,11.3,7.2c-1.8,2-3.2,4.7-5.3,5.6c-4.3,1.8-3.5,4.4-1.3,6.5c2.7,2.7,6.2,4.6,10,7.2
		c-1.4,1.5-2.8,3.7-4.8,4.9c-8.8,5.1-17.6,10-26.6,14.7c-5.5,3-11.4,4.1-17.8,3.8c-14.6-0.8-27.1,4.5-37.6,14.6
		c-12,11.6-17.5,26-19,42.4c-0.2,3-1.8,6.7-4,8.5C33.7,222,24.6,235.3,20.6,252c-0.9,3.5-2.2,7-3.8,10.3
		c-3.3,6.6-7.9,12.8-10.1,19.7c-3.1,9.8-5.3,20-6.5,30.2c-1.2,10,2.8,14.8,12.2,18c1.6,0.5,3.1,1.2,4.8,1.5c4.4,0.7,7,3.4,9.9,6.7
		c3.9,4.4,8.5,9,13.7,11.2c8.8,3.7,18.2,6.2,27.6,8c8.6,1.6,17.4,1.6,25.3,2.3c2.5,10,5.1,19.3,7.2,28.7c0.8,3.7,1.2,8,0.3,11.6
		c-1.9,7.8-4.7,15.3-7.1,22.9c-3.1,9.7-1.6,12.6,6.2,19.2c6.7,5.7,13.9,11.5,10.6,22.8c-1.9,6.5,0.6,13.4,6.1,18.1
		c3.2,2.8,5.2,5.3,3.3,9.8c-0.6,1.5-0.2,3.8,0.5,5.3c2.7,5.4,1.3,10.2-1.2,15.1c-0.7,1.3-1.2,2.7-1.8,4.1
		c-2.9,7.5-0.5,15.3,6.1,19.7c4.1,2.8,5.4,6.5,3.8,11.4c-5.8,18-10.6,36.5-8,55.5c2.9,20.9-4.2,39.8-9.1,59.2
		c-0.7,2.8-3.3,5.3-5.4,7.6c-18.5,20-27.9,43.2-25.4,70.7c0.3,3.8,0.6,7.6,0.7,11.5c0.3,9.7,0.8,19.3,0.7,29c0,2-1.3,4.8-2.9,5.7
		c-4.8,2.7-6.4,7-7.2,11.9c-0.5,3-0.5,6-1.1,8.9c-1.1,5.3-2.5,10.1-8.9,11.9c-5.2,1.5-8.3,5.9-10.3,10.9c-1.6,4.2-3,8.5-4.8,12.6
		c-3.2,7.1-0.8,12.3,7,13.8c2.9,0.6,6,0.6,9,0.9c3,0.3,4.6,1.2,3.3,4.8c-0.7,2-0.8,4.9,0.2,6.7c1.8,3.3,0.9,6-0.2,9
		c-3.9,10.2-11.2,17.6-20.2,23.5c-6.5,4.2-11.3,9.7-13.7,17.3c-1.9,5.9-2.6,11.4,3.4,15.6c1.1,0.7,1.3,2.6,2,3.9
		c2.8,5.1,6.3,8.3,12.8,8.9c5.5,0.5,10.8,4.1,16.2-0.3c0.2-0.1,0.6,0.2,0.9,0.2c11.9,1.6,19-2.5,23.8-13.3c1.1-2.5,2.4-5.3,4.5-7
		c5.2-4.2,7.6-9.4,7.9-16c0.2-4,1.2-8,1.8-11.7c4.7,1.2,9,3.8,12.1,2.9c4.6-1.4,8.5-5.2,12.4-8.4c2.6-2.1,2.3-4.6,0.3-7.5
		c-2.3-3.3-3.8-7.1-5.6-10.5c4.6-1.4,8.2-2.4,11.7-3.7c3.9-1.4,6.4-0.2,6.7,3.9c0.3,4.1,3.1,6,6.2,5.7c4.6-0.5,9.1-2.2,13.6-3.6
		c2.4-0.7,4.6-1.9,6.8-2.9c0.5,0.4,0.9,0.8,1.4,1.3c-1.5,4.7-3,9.3-4.5,13.9c-1.2,3.5-2.9,6.8-3.6,10.3c-2.3,11.2,3.1,18.2,14.5,19
		c4.3,0.3,8.7-0.5,13,0.1c7.2,1,14.4,2.1,21.3,4.1c6.7,2,13.1,4.9,19.3,8.2c9.5,5.1,19.7,6.4,30.1,5.5c7.3-0.7,15.1-0.3,21.2-5.8
		c7.3-6.6,5.7-15.9-3.5-19.3c-2.3-0.8-5.2-1.6-6.5-3.3c-4.3-5.7-10.2-7.6-16.7-9.1c-5.3-1.2-10.6-2.9-15.8-4.7
		c-9.1-3.2-16.2-9.2-21.8-16.9c-1.6-2.2-2.1-5.2-3.4-8.4c4.3-0.3,7.5-0.5,10.6-0.6c0.8,0,1.9,0.7,2.3,1.3c4.5,7.6,12,8.4,19.6,8.4
		c6.4,0.1,9-3.7,7.2-9.9c-1.2-4-2.9-7.8-4.2-11.8c-1.6-5.1-3.1-10.4,0.1-15.4c3.7-5.7,5.5-11.7,5.1-18.4c-0.2-4.3,1.7-7.3,5.4-9.4
		c2-1.2,4-2.5,5.9-3.7c11.5-7.2,17.3-17.7,17.7-31.2c0.1-5.7,0.1-11.3,0.6-17c0.2-2.3,1.1-5,2.7-6.6c7.5-7.2,10.5-15.9,10.4-26.1
		c-0.1-10,0-20-0.1-30c0-3.8,1.4-6.6,4-9.7c3.1-3.6,5.4-8.3,6.8-13c1.1-3.5,0.4-7.6,0.4-11.4c-0.2-39-0.2-78-0.7-117
		c-0.1-10.8,3.2-18.8,13.5-23.2c1.7-0.7,3.1-2,4.7-2.9c6.8-3.9,9.7-9.8,9.5-17.5c-0.3-9.8-0.5-19.7-1.1-29.5
		c-0.2-3.8,0.6-6.5,3.9-8.4c11.8-7,16.3-17.5,14.5-30.9c-0.3-2-0.2-4-0.3-6c-0.8-26.1-1.6-52.3-2.4-78.5c-0.1-2.8,0.3-5.5,0.5-8.7
		c1.7,0.7,2.8,1.1,3.8,1.5c6.4,3,8.2,2.4,13-2.7c2.4-2.5,5.3-4.6,8.3-6.4c17.4-9.9,29.1-24.9,36.4-43c4.5-11.2,7.6-23.1,11.5-34.6
		c1.8-5.2,4.1-10.2,6.1-15.2c2.6-6.4,6.3-12.6,7.8-19.2c3.3-14.7,1.6-18.2,5.1-33.1c0.5-2.1,1.5-6.3,0.7-11.5
		c-0.5-3.2-1.1-3.1-1.8-6.6c-1.2-6.8,1-7.7-0.6-12.7c-0.4-1.4-1.4-3.5-3.2-7.6c-0.7-1.6-1.1-2.4-1.2-2.6c-3.5-4.6-15-3.1-15.4-0.8
		c-0.1,0.6,1,1.5,3.1,3.2c1.8,1.4,3.4,2.3,4.6,2.9c0.1,2,0.6,3.4,1.1,4.4c0.7,1.4,1.4,2,1.6,3.5c0.1,0.9,0,1.5-0.2,2.8
		c-0.2,1.2-0.5,3-0.9,5.5c-2.2-0.8-5.2-2.3-6.7-5.3c-1.6-3.1-0.4-5.4-2-6.5c-2.5-1.8-6.6,3.1-12.6,2.1c-2.3-0.4-4.1-1.4-5.2-2.2
		c2.2-0.3,5.8-1.3,9.1-4.1c2.4-2.1,5.4-6,4.4-7.6c-0.8-1.2-3.7-0.6-4.9-0.4c-8.2,1.4-20.8-0.6-28.2-6.3
		c-6.6-5.1-11.3-12.9-12.8-22.3c0-0.3,0-0.8-0.2-1c-1.6-2-3-5.2-4.8-5.5c-1.9-0.3-5,1.8-6.2,3.7c-3.2,4.9-4.2,10.6-2.1,16.3
		c1.3,3.4,0.6,6.1-1.4,8.8c-4.3,5.5-8.2,11.4-12.8,16.6c-18.2,20.8-36.4,41.6-55.1,62"/>
	<path d="M279.3,225.6c-3.9,5.1-7.8,10.1-12.5,16.3c0-11.3,0.4-20.9-0.1-30.4c-0.5-10.4-1.5-20.9-3-31.3c-0.5-3.8-2.7-7.5-4.6-10.9
		c-0.9-1.6-3-2.5-5.3-2.9c2.9,13.4,5.8,26.8,8.7,40.2c-0.4,0.1-0.8,0.2-1.2,0.3c-1.3-5.3-2.2-10.7-4.1-15.8
		c-1.9-5.5-4.5-10.7-7.2-15.9c-1-1.9-3.3-3.1-4.9-4.7c-0.4,0.3-0.7,0.6-1,0.8c0.7,3.2,1.5,6.4,2,9.6c2.1,14-1.5,27.5-3.5,41.2
		c-2.2,15.1-4.9,30.2-7.8,45.3c-0.6,3.3-2.5,6.5-4.5,9.2c-1.9,2.7-4.9,4.6-6.9,7.2c-7.1,9.4-16.1,10.6-26.6,6.4
		c3-2.6,6-4.5,10.4-2.2c1.6,0.8,3.9,0.6,5.8,0.4c1-0.1,2.7-1.4,2.6-1.9c-1.6-7.7,5.6-9.6,9-14c0.9-1.2,2.1-2.1,3.1-3.3
		c5.6-6.9,5.3-8.4-1.8-13.3c-4.5-3.1-8.7-6.7-12.8-10.4c-1.6-1.5-2.7-3.6-3.7-5c7,0.4,13.7,1.1,20.5,1.1c1.7,0,4.7-2.1,5-3.6
		c2.9-15.7,5.3-31.5,7.9-47.2c0.1-0.4-0.2-0.9-0.6-2.1c-2.3,0-4.7,0-7.2,0c-3.3-0.1-7,0.8-8.3-4c-0.2-0.8-2.9-1.3-4.3-1.2
		c-4.1,0.4-8.2,1.3-12.5,2.1c1.9-2.8,7.6-1.9,5.9-7c-2.1-6.3-7.4-0.9-11.3-3.2v-10.6c-6.7,0.8-10,5.5-13.6,9.7
		c-0.5,0.6,0.5,2.7,1.1,4c0.9,1.9,2,3.6,2.6,5.9c-10.7-13.3-27.6-12.8-41.1-20.2c7.4,1.8,14.7,3.6,22.7,5.6
		c-1.5-5.2-2.9-10.1-4.6-15.9c5.1,6.4,9.4,12,13.8,17.6c0.4-0.2,0.9-0.4,1.3-0.6c0-4.2,0.2-8.5-0.1-12.7c-0.2-3.3,1.1-4.9,4.1-5.8
		c1.8-0.5,3.5-1.2,5.1-2c5.3-2.5,7.7-7.5,6.2-13.2c-0.8-3.2-2.3-6.3-3.1-9.5c-2.2-8.5-4.2-17.1-6.3-25.6c-0.6-2.4-1.1-4.8-1.6-7.2
		c-0.7-0.5-1.3-0.9-2-1.4c-1.1,1.8-1.9,3.9-3.3,5.4c-4.8,5.2-9.9,10.2-14.9,15.4c-2.5,2.7-5.5,5.1-7.2,8.2
		c-7.9,14.3-21.3,20.5-35.7,25.6c-2.5,0.9-5,1.7-8,2.7c2.2,2.8,4.2,5.1,5.1,6.4c-6.2-1.4-13.3-3.8-20.6-4.5
		c-9.9-0.9-18.7,2.8-26.2,9.3c-13.1,11.4-20.6,25.5-20.9,43.1c-0.1,5.2-0.7,10.5-1,15.8c-0.6,0.1-1.1,0.1-1.7,0.2
		c-0.8-2.3-1.7-4.6-2.7-7.5C40,224.4,30,236.2,26.9,252.7c-0.8,4.5-2.9,8.7-4.6,13c-5.5,13.2-11.4,26.2-16.6,39.5
		c-2,5,1.2,8.4,7,9.8c3.6,0.9,7.4,2,10.6,3.9c17.9,10.6,37.7,15.8,57.6,20.8c11,2.7,21.8,6.1,32.8,9c2.8,0.7,5.7,0.8,9,1.2
		c0.6,9,4.4,17,13.4,21.2c3.9,1.9,8.6,2.2,12.9,3.4c1.5,0.4,4.7,1.4,8,2.9c10.9,4.8,16.6,11.8,18.7,10.2c0.4-0.3,0.5-0.8,0.6-1.3
		c0.5-3.1-3.2-6.1-8.2-9.9c-3.5-2.7-5.3-4.1-7.1-4.9c-2.5-1.1-5-1.7-5.1-3.1c0-0.6,0.4-1.3,1-1.6c1.9-1,4.9,1.9,9.1,4.7
		c4.8,3.3,4.5,2.1,10.5,5.9c9.9,6.3,14.1,11.7,16.9,10.2c0.6-0.3,1-0.9,1.2-1.5c0.6-2.5-3.7-5-12.7-11.8c-7.7-5.8-11.5-8.7-11.6-8.7
		c-4-2.4-8.5-4.5-8.2-6.6c0.1-0.5,0.4-1.1,1-1.4c1.1-0.4,2.4,0.8,3.3,1.6c0.7,0.6,3,2,7.6,4.8c3.8,2.3,3.8,1.5,7.4,3.8
		c1.1,0.7,3.1,2.2,6.8,5.2c2.9,2.3,6.2,4.2,9.1,6.5c1.1,0.9,2.7,2.1,3.9,1.6c0.8-0.3,1.3-1.3,1.4-2.1c0.4-2.2-2-4.1-12.4-12
		c-2.7-2-4.1-3.1-5.9-4.4c-4.1-3-6.2-4.5-7.9-5.8c-5.7-4-8.4-5.7-8.1-7.3c0.1-0.4,0.4-0.8,0.8-1c1.4-0.7,3.7,1.2,4.6,2
		c5,4.1,2.9,0.9,11.6,7.7c3.9,3.1,6.1,5.2,10.7,8.1c2.4,1.6,5.3,3.2,7.1,2.1c1-0.6,1.3-1.7,1.3-1.8c1-3.8-8-7.6-21.5-19
		c-2.1-1.8-4.9-4.2-9.3-6.7c-8.1-4.7-14.9-5.7-17.3-6.2c-1.6-0.4-3.4-0.6-5-0.4c-24.8,2.8-45.4-9.9-67.2-18.1
		c-3.2-1.2-6.4-4.2-7.9-7.2c-7.4-13.9-18.6-22.4-33.6-26.2c-0.4-0.1-0.8-0.5-2-1.3c4.9-5,8.8-10.4,15.7-12.9
		c4.2-1.5,8.9-3.6,11.8-6.9c10.2-11.2,16.8-24.7,22.6-38.6c0.4-1,0.4-2.2,0.6-4c-7.1-1-12.7,3.6-19.1,4.5c-0.3-0.5-0.6-0.9-0.8-1.4
		c12.7-7.8,25.3-15.7,39.1-24.2c-2.8,3.8-4.9,6.7-6.4,8.7c3.8,4.5,7.4,8.7,10.9,12.9c3.2,3.9,6,8,9.5,11.6
		c7.4,7.6,16.6,12.2,27.2,11.6c8.9-0.5,17.9-2,26.5-4.1c7.9-1.9,13.5-7.4,15.9-15.3c1.9-6.2,3-12.6,4.4-18.8c2.8,1.4,2.1,5,2.4,8.6
		c0.5,5.4,2.3,10.7,3,16.2c1.6,12.4-3.7,19.6-15.8,22.5c-13.7,3.2-27.5,2.8-41.2,0.5c-11.2-1.8-20.4-7.8-28.6-15.5
		c-1.2-1.1-3.7-2.4-4.6-1.9c-1.4,0.9-2.8,3.2-2.8,4.8c0.3,5.3,1.3,10.5,2.1,16.2c-0.6-0.1-2.4-0.2-4.9-0.4c4.1,8.9,8,17.4,18.2,20.5
		c-0.1,0.5-0.2,1-0.3,1.5c-2.8-0.5-5.8-0.7-8.5-1.6c-3.1-1-5.9-2.8-9.3-3.7c4,9.9,10.4,17.2,21.3,19.9c-3.4,4.4-4,4.4-17.5,1.7
		c1,5.4,6.3,8.9,21.5,13.7c-3.2,1.9-5.2,3.3-7.5,4.3c-2.4,1-5.5,1-7.4,2.6c-1.6,1.3-2.3,4.1-2.8,6.4c-0.1,0.7,1.9,2.7,2.9,2.7
		c2.1-0.1,4.6-0.6,6-1.9c3.7-3.4,6.7-7.4,10.2-10.9c9-9.1,19.7-15.8,31.4-21c8.2-3.7,16.1-8.1,23.8-12.6c3.1-1.8,5.9-4.4,8.2-7.1
		c4.4-5.3,4.5-10.6,0.4-17.2c1.6,0.7,2.6,1,3.4,1.6c9.6,7.9,7.5,26.6-3.7,31.6c-4.3,1.9-9.2,3-13.9,3.8
		c-21.8,4.1-40.2,13.8-53.4,32.1c-1.2,1.7-2.2,3.5-2.8,5.9c2.9-4.5,17.5-25.5,45.3-31c17.9-3.5,32.4,1.1,38.9,3.6
		c6,2.4,9.5,6.5,11.1,8c11.9,11.7,13.7,26.4,14.4,32.1c1.6,12.5-1,22.3-2.6,27c-4.8,14.7-12.7,27.5-23.5,38.5
		c-16.1,16.3-35.2,22.1-57.6,16.6c-1.3-0.3-2.6-0.5-3.9-0.6c-0.3,0-0.6,0.2-2.3,0.7c3.1,1.4,5.1,2.6,7.4,3.2
		c19.1,5,36.4,0.4,51.8-11.3c21.1-16,32.5-37.8,36.2-63.9c0.4-3.2,3-6.6,5.5-9c10.8-10.4,22.1-20.3,33-30.5
		c19.8-18.6,37.6-34.1,50.7-48.2c2.6-2.8,4.7-5.1,6.1-6.7c-31.5,28.6-63,57.2-94.5,85.8l-1.6-7.7c0.7-0.6,1.8-1.4,3.1-2.4
		c18.2-14.2,30.4-26.4,38.4-34.5c13.5-13.5,29.6-29.6,48.7-48.6l-1.4-1.6c-17.2,17-35.3,34.3-54.3,51.7
		c-12.1,11.1-24.1,21.8-36,32.1c-0.2-1.7-0.6-3.8-1.4-6c-0.9-2.9-2.1-5.3-3.1-7.1c7.9-7.3,11.8-11,11.6-11.2
		c-0.2-0.2-4.4,3-12.5,9.6c-0.6-1-1.3-2-2-3c-1.1-1.6-2.2-3.1-3.3-4.5l6-6.6c-2.5,1.2-5,2.4-7.4,3.5c-2.6-2.5-4.8-4.5-7.4-6.9
		c5.4-5.8,10.8-11.6,16.1-17.3c-3.1,2.8-6.4,5.7-10,8.6c-3.4,2.7-6.7,5.1-9.9,7.4c-0.4-0.5-0.7-0.9-1.1-1.4
		c7.7-7.9,15.5-15.8,23.1-23.8c16.5-17.2,33.2-34.2,49.2-51.8c18.7-20.4,36.9-41.2,55.1-62c4.6-5.2,8.5-11.1,12.8-16.6
		c2.1-2.7,2.7-5.4,1.4-8.8c-2.1-5.7-1.1-11.3,2.1-16.3c1.2-1.9,4.3-4,6.2-3.7c1.9,0.3,3.2,3.5,4.8,5.5c0.2,0.2,0.1,0.7,0.2,1
		c1.4,9.4,6.1,17.1,12.8,22.3c7.4,5.8,19.9,7.8,28.2,6.3c1.2-0.2,4.1-0.8,4.9,0.4c1,1.6-1.9,5.4-4.4,7.6c-3.3,2.9-6.9,3.8-9.1,4.1
		c1.1,0.8,2.9,1.9,5.2,2.2c6,0.9,10.2-3.9,12.6-2.1c1.6,1.1,0.3,3.4,2,6.5c1.5,3,4.5,4.5,6.7,5.3c0.4-2.5,0.7-4.3,0.9-5.5
		c0.2-1.3,0.3-1.9,0.2-2.8c-0.2-1.5-0.9-2.1-1.6-3.5c-0.5-0.9-1-2.4-1.1-4.4c-1.2-0.6-2.8-1.5-4.6-2.9c-2.2-1.7-3.2-2.6-3.1-3.2
		c0.4-2.2,11.9-3.8,15.4,0.8c0.2,0.2,0.5,1,1.2,2.6c1.8,4.1,2.8,6.2,3.2,7.6c1.6,5.1-0.7,5.9,0.6,12.7c0.6,3.5,1.2,3.4,1.8,6.6
		c0.9,5.2-0.2,9.4-0.7,11.5c-3.4,14.9-1.7,18.4-5.1,33.1c-1.5,6.6-5.2,12.8-7.8,19.2c-2.1,5.1-4.4,10-6.1,15.2
		c-3.9,11.5-7,23.4-11.5,34.6c-7.4,18.2-19,33.1-36.4,43c-3,1.7-5.9,3.9-8.3,6.4c-4.8,5-6.6,5.6-13,2.7c-1-0.5-2.1-0.9-3.8-1.5
		c-0.2,3.2-0.5,6-0.5,8.7c0.7,26.1,1.6,52.3,2.4,78.5c0.1,2,0,4,0.3,6c1.8,13.4-2.7,23.9-14.5,30.9c-3.2,1.9-4.1,4.6-3.9,8.4
		c0.6,9.8,0.8,19.6,1.1,29.5c0.2,7.6-2.7,13.6-9.5,17.5c-1.6,0.9-3,2.2-4.7,2.9c-10.3,4.4-13.6,12.3-13.5,23.2
		c0.5,39,0.5,78,0.7,117c0,3.8,0.7,7.9-0.4,11.4c-1.4,4.6-3.7,9.3-6.8,13c-2.6,3-4,5.8-4,9.7c0.1,10,0,20,0.1,30
		c0.1,10.2-2.9,18.9-10.4,26.1c-1.6,1.5-2.5,4.3-2.7,6.6c-0.5,5.6-0.4,11.3-0.6,17c-0.4,13.5-6.2,24-17.7,31.2
		c-2,1.2-3.9,2.6-5.9,3.7c-3.7,2.1-5.6,5.1-5.4,9.4c0.4,6.7-1.5,12.8-5.1,18.4c-3.2,5-1.7,10.3-0.1,15.4c1.3,4,3,7.8,4.2,11.8
		c1.8,6.2-0.8,10-7.2,9.9c-7.6-0.1-15.1-0.8-19.6-8.4c-0.4-0.7-1.5-1.4-2.3-1.3c-3.1,0-6.2,0.3-10.6,0.6c1.2,3.2,1.8,6.1,3.4,8.4
		c5.6,7.7,12.6,13.7,21.8,16.9c5.2,1.8,10.4,3.5,15.8,4.7c6.5,1.5,12.4,3.4,16.7,9.1c1.3,1.8,4.2,2.5,6.5,3.3
		c9.2,3.4,10.9,12.7,3.5,19.3c-6.1,5.5-14,5.2-21.2,5.8c-10.4,0.9-20.5-0.4-30.1-5.5c-6.1-3.3-12.6-6.2-19.3-8.2
		c-6.9-2.1-14.2-3.2-21.3-4.1c-4.2-0.6-8.7,0.2-13-0.1c-11.4-0.8-16.8-7.8-14.5-19c0.7-3.5,2.5-6.9,3.6-10.3c1.6-4.6,3-9.3,4.5-13.9
		c-0.5-0.4-0.9-0.8-1.4-1.3c-2.3,1-4.5,2.2-6.8,2.9c-4.5,1.4-9,3.1-13.6,3.6c-3.2,0.3-5.9-1.6-6.2-5.7c-0.3-4.1-2.8-5.3-6.7-3.9
		c-3.5,1.3-7.2,2.2-11.7,3.7c1.8,3.4,3.3,7.2,5.6,10.5c2,2.9,2.2,5.4-0.3,7.5c-3.9,3.2-7.9,7-12.4,8.4c-3.1,1-7.4-1.6-12.1-2.9
		c-0.6,3.7-1.5,7.7-1.8,11.7c-0.4,6.6-2.8,11.8-7.9,16c-2.1,1.7-3.3,4.5-4.5,7C86,945.8,78.9,949.9,67,948.2c-0.3,0-0.8-0.3-0.9-0.2
		c-5.4,4.3-10.7,0.8-16.2,0.3c-6.4-0.6-10-3.8-12.8-8.9c-0.7-1.3-1-3.1-2-3.9c-6.1-4.2-5.3-9.7-3.4-15.6c2.4-7.5,7.2-13,13.7-17.3
		c9-5.9,16.2-13.2,20.2-23.5c1.2-3,2-5.7,0.2-9c-1-1.8-0.9-4.7-0.2-6.7c1.3-3.6-0.2-4.5-3.3-4.8c-3-0.3-6-0.3-9-0.9
		c-7.8-1.5-10.2-6.7-7-13.8c1.9-4.1,3.2-8.4,4.8-12.6c1.9-5,5-9.5,10.3-10.9c6.4-1.8,7.8-6.6,8.9-11.9c0.6-2.9,0.6-6,1.1-8.9
		c0.8-4.9,2.4-9.2,7.2-11.9c1.6-0.9,2.9-3.7,2.9-5.7c0-9.7-0.4-19.3-0.7-29c-0.1-3.8-0.4-7.7-0.7-11.5c-2.4-27.5,7-50.7,25.4-70.7
		c2.1-2.3,4.7-4.8,5.4-7.6c4.9-19.4,12.1-38.3,9.1-59.2c-2.6-18.9,2.1-37.4,8-55.5c1.6-4.8,0.3-8.6-3.8-11.4
		c-6.6-4.5-9.1-12.3-6.1-19.7c0.5-1.4,1.1-2.8,1.8-4.1c2.5-4.9,3.8-9.7,1.2-15.1c-0.8-1.5-1.1-3.9-0.5-5.3c1.9-4.5-0.1-7-3.3-9.8
		c-5.5-4.7-8-11.5-6.1-18.1c3.3-11.3-3.9-17.1-10.6-22.8c-7.8-6.6-9.3-9.5-6.2-19.2c2.4-7.6,5.3-15.1,7.1-22.9
		c0.9-3.6,0.5-7.9-0.3-11.6c-2-9.4-4.6-18.7-7.2-28.7c-7.9-0.6-16.8-0.6-25.3-2.3c-9.4-1.8-18.8-4.3-27.6-8
		c-5.3-2.2-9.9-6.8-13.7-11.2c-2.9-3.3-5.5-6-9.9-6.7c-1.6-0.2-3.2-0.9-4.8-1.5c-9.3-3.2-13.3-8-12.2-18c1.2-10.2,3.4-20.4,6.5-30.2
		c2.2-6.9,6.8-13.1,10.1-19.7c1.6-3.3,3-6.8,3.8-10.3c4.1-16.7,13.1-30,26.4-40.8c2.2-1.8,3.7-5.5,4-8.5c1.4-16.4,7-30.8,19-42.4
		c10.5-10.1,22.9-15.3,37.6-14.6c6.4,0.3,12.3-0.8,17.8-3.8c8.9-4.8,17.8-9.6,26.6-14.7c2-1.2,3.4-3.4,4.8-4.9
		c-3.7-2.6-7.2-4.5-10-7.2c-2.1-2.1-3-4.7,1.3-6.5c2.1-0.9,3.5-3.6,5.3-5.6c-4.5-2.8-8.5-4.4-11.3-7.2c-3.5-3.5-1.4-7.8,0.6-11.9
		c-2-1.2-4.1-2.2-5.9-3.6c-5.4-4.3-5.2-9.8,0.8-13.2c3.3-1.9,3.4-4.1,2.3-7.1c-1-2.6-2.8-5.2-3-7.9c-0.2-2.5,1-5.3,2.4-7.4
		c1-1.4,2.7,1,5.9,1.4c2.4,0.2,4.4-0.4,5.6-1c0.4-1.2,0.8-2.9,0.9-5c0.1-2.4-0.4-2.7-0.1-4.4c0.5-2.6,1.9-4.9,3.9-6.9
		c0.8-0.8,2.6-0.8,3.9-0.6c0.4,0.1,0.6,2.1,0.6,3.2c0,1.9-0.1,3.8,0.3,5.9C172.5,10.9,193.7,3.2,221.6,7c0.3-0.4,1.2-1.4,2.6-2.9
		c3.4,2.2,5.9,2.5,7.8,1.8c1.2-0.5,1.6-1.2,3.1-2.3c1.4-1.1,3.5-2.5,6.7-3.6c0.7,1.9,1.3,3.7,2,5.6c1.2-0.7,2.4-1.4,3.7-2.1
		c2-1.1,4-2.3,5.9-3.5c-0.1,1.2-0.2,3-0.2,5.1c0,2.3,0,2.7,0.2,3.2c0.8,1.9,3.1,1.8,6.2,3.2c4,1.8,3.2,3.4,8.5,6.5
		c2.5,1.5,3.8,2.2,5.8,2.7c2.6,0.6,4,0.2,4.8,1.4c0.7,1,0.5,2.6-0.3,4.9c-1.6,4.1-1.5,7.7,3.1,10.1c3.6,1.8,3.7,4.5,2.1,8
		c-0.7,1.6-1.2,4-0.6,5.5c2.4,6.1,0.3,11.8-5.8,13.2c-3.2,0.8-4.2,2.7-5.9,5.1c-6.9,9.6-7.8,20.7-8.8,31.8c-0.8,8.4-1.9,9.1-9.7,6.8
		c-2,3.1-4,6.1-5.9,9.1c-2.4,3.7-3.7,7.7-4.2,12.2c-0.7,5.4-7.7,9-15,7.6c-5.4-1-6.8,0.8-6.9,5.7c0,2.3-1,4.5-1.6,6.8
		c-1.3,4.5,1.5,8.2,5.8,6.7c7.9-2.9,15-1.6,22.1,2.1c1.7,0.9,3.9,1.1,5.8,0.9c6.5-0.9,10.6,2.4,14.3,7.1c1.8,2.3,4.7,3.9,7.1,5.7
		c4.4,3.2,9.1,6.1,13.1,9.6c5,4.4,9.4,9.4,14.1,14.1c2.7,2.7,2.2,5.5-0.1,8c-7.1,7.5-14.4,14.8-21.6,22.1c2.9-14.6,1.6-28.4-7-41
		c1.1,13.1,2.8,26,4.7,38.9C277.7,224,278.7,224.8,279.3,225.6L279.3,225.6z M243.4,298.9c3.8-4.6,7.5-9.2,11.3-13.8
		c-2.4,1-4.8,1.9-7.2,2.9c3.6-5.2,7.1-10.4,10.7-15.5c-4.7,4.4-9.4,8.9-14.1,13.3C244,290.1,243.7,294.5,243.4,298.9L243.4,298.9z
		 M221.7,480.5l-1.5-1.1c-1.4,1.9-3,3.6-4.1,5.6c-5.9,11-11.6,22.1-17.4,33.2c-1.1,2.2-2.6,4.2-3.9,6.3c-0.2-0.2-0.5-0.3-0.8-0.4
		c3-9.4,5.9-18.9,9.2-29.3c-12.1,7.7-22.7,14.5-33.4,21.2c-5.8,3.7-12,6.7-17.3,11c-5.3,4.3-11.4,9-14.3,14.9
		c-9.4,19.3-13.2,40.2-11.5,61.7c0.7,8.8,4.1,17.4,6.8,25.9c1.9,6.2,1,9.7-4.2,11.5c-0.9-3.2-1.8-6.5-2.7-9.8c-2,2-3.2,4-3.7,6.2
		c-1.7,7.3-3.9,14.5-4.6,21.9c-0.7,6.9-3.3,12.1-8,17c-14.2,14.8-23.3,31.9-22.8,53.2c0.4,17.7,0.2,35.3,1,53
		c0.3,6.9-1,11.5-7.6,14.2c-3,1.2-4.2,7.4-1.9,11.2c0.9,1.5,4.2,2.6,6.1,2.2c5.2-1,10.4-2.4,15.2-4.5c28.2-12.3,51-31.8,71.3-54.5
		c19-21.3,33.5-45.3,40.8-73.1c5.3-20.3,10.2-40.7,15.1-61.1c1.1-4.5,1.5-9.1,2.2-13.7c-2,2-3.1,4.3-3.8,6.6
		c-2.8,8.4-5.2,16.9-8.2,25.2c-11.4,32.5-22,65.5-39,95.7c-4.8,8.5-10.9,16.4-17.4,23.6c-18.2,20-42,31.9-65.7,43.7
		c-2.5,1.2-5.3,1.8-8.3,2.9c7.7-5.4,15.7-9.6,22-15.6c10.1-9.7,19.3-20.2,28.3-31c8.8-10.5,15.5-22.5,19.5-35.8
		c1.1-3.6,1.5-7.3,2.2-11l-1.6-0.3c-1.8,3.9-3.7,7.7-5.5,11.6c-9.3,20.5-21.7,39-37.9,54.7c-2.6,2.5-5.8,4.3-9.7,7.2
		c0.4-2.8,0.5-4,0.7-5.1c6.6-27,13.1-54.1,20-81c1.4-5.4,3.8-10.8,6.9-15.3c4.9-7,4.8-13.8,1.6-21.2c-1-2.3-2-4.7-2.5-6
		c3.8-0.2,7.3,0.1,10.5-0.7c3.1-0.8,6-2.8,8.9-4.3c3.6-1.9,5.1-4.9,3.4-8.8c-2.1-4.8-0.3-6.8,4.3-8.2c11.6-3.4,19.7-22.9,14.9-31.8
		c14.9-8.4,26.4-20.5,34.2-35.5c7.2-13.9,13.8-28.2,19.1-42.8c13.2-36.5,22.9-74.1,30.8-112.2c0.6-2.9,1-5.9,1.5-8.9
		c-1.5,1.5-2.3,3.1-2.9,4.8c-6.1,17.1-12,34.3-18.3,51.3c-9.8,26.5-19.4,53.2-30.1,79.4c-5,12.4-12.1,23.9-18.3,35.8
		c-0.4-0.2-0.7-0.4-1.1-0.6C196.6,539.1,213.9,511.6,221.7,480.5L221.7,480.5z M66.2,849.8c2.7,0.3,4.7,1.1,6.5,0.8
		c10-1.7,20.1-3.2,29.9-5.7c39.1-9.9,74.1-27.7,103.8-55.4c6.1-5.6,10.2-12.2,11.8-20.4c5.8-30.1,11.6-60.2,17.5-90.2
		c10.7-54.5,18.4-109.4,22.9-164.7c0.7-8.4,1.1-16.8,1.6-25.2c-5.9,28.5-11.3,56.9-16.8,85.4c-11.2,59.1-27.1,117.1-41,175.6
		c-1.2,5-3.5,8.8-7.7,11.8c-13.7,9.7-27.2,19.9-41.2,29.1c-14.2,9.3-28.9,18.1-46.2,20.5c-7.9,1.1-15.9,1.8-23.8,2.6
		c-3.8,0.4-7.1,1-6.8,6.4c0.1,1.7-1.9,4.2-3.6,5.3c-2.2,1.4-4.9,1.8-7.5,2.4c-6.8,1.4-10.5,5.8-12.8,13.6c5-1.8,9.2-2.8,12.9-4.8
		c7.8-4.1,15.8-6.8,24.6-7.8c8.5-0.9,15.9-4.2,22.8-9.4c5.6-4.2,11.8-7.5,17.7-11.2c21.1-13.7,42.1-27.4,63.2-41.1
		c1.4-0.9,2.9-1.9,4.3-2.8c-0.8,2.4-2,4.2-3.4,5.8c-20.1,23.4-44.4,41.3-72.2,54.1c-10.1,4.6-21.6,7.3-32.7,8.1
		C77.9,833.2,72.1,839.9,66.2,849.8L66.2,849.8z M244.9,740.5c4.9-2.1,8.7-4.2,12.8-5.4c5.9-1.8,7.8-5.5,8.2-11.4
		c4-61.5,8.3-123,12.1-184.5c2.2-35.9,3.8-71.9,5.4-107.8c0.5-11.8,0.1-23.6,0.1-35.4C265.7,510,260.4,625.2,244.9,740.5
		L244.9,740.5z M260.1,72.3c2.1-3.2,3.5-6.5,0.2-8.3c-7.3-4-15-7.8-23.5-3.4c-5.6,2.9-10.8,6.8-16.6,9c-4.6,1.7-8,3.9-9.9,8.3
		c-0.6,1.5-1.5,2.3-2.4,2.6c-1,0.3-1.9-0.1-3.6-1c-2-1-4.7-2.4-5-4.7c0-0.3-0.1-1.1,0.3-1.3c1-0.7,3.7,2.3,4.7,1.6
		c0.7-0.5,0.3-2.4-0.1-4.2c-0.5-2.1-0.8-3.2-1.5-3.4c-1.5-0.5-5,2.8-5.5,6.7c-0.3,2-0.5,2.6,0.2,6.5c0.2,1.3-0.4,4-1.1,4.1
		c-1.5,0.4-3.5-0.1-4.9-1c-2.1-1.4-3.9-3.4-5.7-5.2c-2.1-2-3-4.3-2.8-6.7c0.2-2.5,1.7-5.3,4-6.3c2-0.9,3.6-0.1,4-0.9
		c0.5-1.1-2-4.1-4.4-4c-3.1,0.1-4.9,5.3-5,5.7c-2.8,9.8,4.4,21.6,13.5,23.8c0.8,4.8,0.4,9.7,2.4,13.1c6.8,11.5,17.6,18.8,29.5,24.4
		c1.4,0.7,3.4,1,4.9,0.6c2.1-0.5,4.1-1.7,6.1-2.6c-1.2-1.5-2.4-3-3.6-4.6c-0.3-0.4-0.6-0.8-1.2-1.6c2-1.6,4-3.2,6.1-4.9
		c-3.7-5.4-7.8,0.9-11.5-0.3c1.7-5.1,5.3-8.1,8.8-7.2c2.1,0.6,4.7,3,5.6-0.8c0.1-0.2,0.4-1.6-0.2-2.1c-0.3-0.2-0.8-0.1-1.1-0.1
		c-0.8,0.1-1.9-0.1-3.5-1.2c-0.4-0.3-0.8-0.7-0.9-1.2c0-1.1,1.7-1.8,3.6-2.9c1.2-0.7,2.7-1.9,4.4-3.6c0.1,2.4,0.9,3.8,1.5,4.4
		c1.6,1.6,4.8,1.9,12.2,1.8c0.5-8,2.5-16,0.4-24.8c-3.9,3.7-6.6,7.4-10.3,9.3C244,88,239,89,236.3,84c1.1-1.4,1.9-2.3,2.5-3.4
		c0.1-0.2-1.2-1.2-2-1.6c-4.5-2.2-9.1-4.3-14.5-6.9C236,66,248.1,65.5,260.1,72.3L260.1,72.3z M234.3,420.5
		c-5.3,5.8-10.5,11.8-15.9,17.5c-15.6,16.3-32.6,30.7-55.4,35.7c-8.6,1.9-14.9,6.6-20.3,13.4c-2.1,2.7-6.1,4-9.3,5.8
		c-1.5,0.8-3.2,1.3-4.9,1.9c0.8,1.7,1.3,3.6,2.4,5.1c2.3,3.1,4.8,5.9,6.8,8.4c-4.6,3.8-8.5,6.6-11.7,10c-1.6,1.7-3.6,5.3-2.8,6.6
		c1.1,2.1,4.3,3.5,6.9,4.1c1.7,0.4,4.2-0.9,5.8-2.2c23.4-17.7,46.7-35.4,66.5-57.2C215.7,455,224.7,437.6,234.3,420.5L234.3,420.5z
		 M336.6,271.6c-6.1,4.7-12.3,9.1-12.5,19.8c-0.9,43.3-2.9,86.6-4.5,129.8c-0.1,1.9,0,3.8,0,6.9c5.1-3.1,9.1-5.7,13.3-8
		c3.3-1.8,4.5-4.4,4.5-8.1c-0.3-40.6-0.5-81.3-0.8-121.9C336.5,283.8,336.6,277.6,336.6,271.6L336.6,271.6z M54.5,943.1
		c1,0.3,1.9,0,2.1-0.1c1.9-0.7,2.3-2.8,3.7-5.1c1.8-3.2,4.7-5.8,5.5-5.5c1,0.5-2.9,6.4-0.7,9.3c1.4,1.9,5,1.9,7.4,1.1
		c4.2-1.4,6.3-5.9,8.6-10.7c2.8-5.9,2.9-6.9,4.8-10c1.1-1.8,3.4-2.7,4.6-4.5c0.7-1,0.9-3.4,0.2-4.1c-5-5.2-4.6-10.5-1.4-16.5
		c1-1.9,1.5-5.3,0.5-6.8c-3.3-4.6-2.5-8.1,0.8-12.1c1-1.2,1.5-3.8,1-5.2c-1-2.6-2.8-5-4.8-6.9c-1.1-1-3.6-1.6-5.1-1.1
		c-4.8,1.7-7.1,5.8-8,10.7c-0.6,3.4-1.6,6.6-3,9.6c-2.4,5.1-5,8.5-10.9,14.1c-7.9,7.5-15.4,11.9-21.2,19.5c-1,1.4-3,4.1-2.5,7.2
		c0,0.3,0.5,3.7,2.8,4.7c1,0.5,1.8,0.2,2.4,0.9c0.7,0.9,0.2,1.8,0.9,3.1c0.4,0.6,0.7,0.7,1.7,1.5c2,1.5,1.7,2.1,2.9,2.9
		c2.1,1.4,3.5-0.1,5.2,1.3C53.3,941.5,53.2,942.7,54.5,943.1z M119.4,464.2c-2.1,3.8-1.6,7.4,1.3,9.8c3.5,3,7.5,5.5,11.5,7.7
		c3.1,1.8,6.2,1,9.2-1.4c4.8-3.6,9.8-6.9,14.9-10c14-8.4,26.4-18.5,37.2-30.7c1.1-1.2,2-2.6,3-4c-11.8,3.3-21.2,11.1-33.5,13.5
		c1-2.2,1.6-3.6,2.5-5.7c-12.6,0.6-24.7,1.9-37.8-1.8c8.4-3.1,15.5-5.8,23.6-8.8c-6.8-2.6-12.3-4.6-17.6-6.9
		c-2.8-1.2-4.8-0.8-7.2,1.1c-3.5,2.8-7.2,5.4-11.2,7.4c-3.8,1.9-4.2,4.2-1.5,6.9c5.4,5.4,10.8,10.8,19.3,11.4
		c5.4,0.4,10.7,1.3,17.4,2.1c-4.7,3.6-8.3,6.5-12,9.1C128.9,470.7,128.9,470.7,119.4,464.2L119.4,464.2z M354.1,314.4
		c17.9-7,33-16.4,41.6-33.5c5.1-10.3,9.7-20.8,14.7-31.2c2.2-4.6,0.6-6.9-4.3-8.1c-5.6,15.2-17.5,24.7-29.7,34.3
		c-6.6,5.2-12.6,11.3-18.1,17.7C353.4,299.2,352.9,306.5,354.1,314.4L354.1,314.4z M232,906c-4.2-0.2-14.1-0.7-15.9,3.5
		c-2,4.8,7.8,12.8,8.5,13.3c0,0,10.6,8.5,28.1,9.3c0.3,0,1.4,0.1,2.9,0.3c3,0.5,3.8,1.1,6.4,1.8c2.6,0.7,6.2,1.6,8.5-0.2
		c0.3-0.2,1.3-1,1.2-1.8c-0.2-1.5-3.9-1.8-3.9-2.5c0-0.5,1.9-0.3,3.9-1.3c0.5-0.2,3.1-1.6,4-4.5c0.5-1.6,0.2-3.1,0.1-3.7
		c-1.1-4.1-9.1-4.8-17.8-6.8C243.1,909.9,242.6,906.6,232,906L232,906z M83.4,267.7c-6.7,6.4-12.8,12.2-18.2,17.4
		c5.2,6.4,11.3,12.2,15.2,19.3c5.2,9.1,13.8,11.2,22.9,14.8c0.1-7-1-13.2-4.5-18.2C91.9,291.1,86.4,280.6,83.4,267.7L83.4,267.7z
		 M352.9,287.3c8.3-7.2,16.4-13.8,24-20.9c7.5-7,14.7-14.4,21.7-22c4.3-4.7,5.7-10.6,4-17.1c-0.8,0.2-1.1,0.2-1.3,0.4
		c-16.6,15.4-33.2,30.8-49.7,46.3c-1,0.9-1.6,3-1.4,4.3C350.8,281.4,352,284.4,352.9,287.3L352.9,287.3z M296.9,414.8
		c-0.7,0-1.4,0-2.1-0.1c-1.8,53.8-3.6,107.7-5.4,160.9c4.9-4.6,6.3-11.2,6.4-18.4c0.4-28,0.9-56,1.1-84
		C297.1,453.7,296.9,434.3,296.9,414.8L296.9,414.8z M322.2,228.6c9.9-9.1,19.9-18.1,29.8-27.2c12-11,24-22.1,36.2-33
		c1.5-1.4,4.8-3.2,5.4-2.7c6,4.8,5.2-0.7,6.5-3.5c-5.8-3.1-11.2-2.7-16.9,1.9c-7.8,6.5-15.4,13.2-22.9,20.1
		c-12.4,11.3-24.4,23.2-37.2,34.1C318.7,222,318.4,224.4,322.2,228.6L322.2,228.6z M317,220.4c22.7-20.8,45.2-41.3,67.5-61.7
		c-8-4.7-9-4.5-15.8,2.3c-12,12-24,24-36.1,35.9c-5.1,5-10.4,9.8-15.5,14.9C314.7,214.1,313.2,216.8,317,220.4L317,220.4z
		 M309.8,396c0.6-0.1,1.3-0.1,1.9-0.2c4.2-35.6,6.8-71.3,8.1-108c-1.4,0.9-2.1,1.2-2.7,1.7c-5.6,4.4-7,10.5-7,17.3
		c-0.2,27.6-0.7,55.3-1,82.9C309.1,391.9,309.6,393.9,309.8,396L309.8,396z M429.6,186.3c0,0.6-0.5,1.2-1,1.4
		c-1,0.5-2.4,0.1-3.4-1.1c0,0-4.1-2.9-12.2-6.2c-2.7-1.1-5.7-1.1-11.7-1.3c-3.9-0.1-8.5,0-13.6,0.7c-1.4,0.3-2.5,1.2-2.7,2.3
		c-0.3,1.6,1.4,3,2.4,3.5c1.2,0.6,2.9,0.1,4.4,0.1c11.6,0.4,23.9-2.1,33.1,8.1c0.5,0.6,1.4,0.8,2.2,1.1c2.9,0.7,5.1-0.5,4.5-3.4
		c-0.9-3.6,0.7-4.2,3.5-5.1c0.8-0.2,2.4-1.5,2.7-2.7c0.5-2-2.7-4.4-4.6-5.8c-1.3-0.9-4.3-3-13-6c-2.4-0.8-3.6-1.2-4.6-1.5
		c-1.3-0.3-8.7-2.1-16.4,0.4c-3,1-4.1,2-4.2,3c-0.1,0.8,0.4,1.5,0.4,1.6c1.1,1.6,4.3,0.9,6.7,0.7c4.6-0.4,8.3,0.6,10.6,1.2
		c5,1.4,4,2.8,11.5,5.7C426.7,184.1,429.6,185,429.6,186.3L429.6,186.3z M218.5,11.8c-11.9-0.5-22.6-0.2-32.4,5.3
		c-9.9,5.5-17.2,13.2-18.4,25.3c2.7-1.6,5.5-3.2,8.3-4.8c-0.1-0.2-0.1-0.3-0.2-0.5c-1.5,0.3-3,0.7-4.5,1l-0.6-1.6
		c13.2-5.9,26.4-11.8,39.6-17.7c0.3,0.6,0.6,1.2,0.8,1.8c-9,4.1-18,8.1-27.1,12.2c6.9-1.4,13.2-4.8,19.9-5.9
		C212.9,25.5,214.2,18.3,218.5,11.8L218.5,11.8z M108.8,362.3c0.1,1.4,0.3,3.3,0.9,5.7c1.5,5.8,4.5,10.1,10.4,16.6
		c0,0,15.9,17.4,32.5,24.7c0.9,0.4,1.7,0.7,2.5,0.8c3.5,0.8,6.6,0.1,8.6-0.7c-6.1-4-12.1-8-18.2-11.9c0.8-1.7,1.6-3.4,2.3-5.1
		c-0.9-0.6-1.9-1.3-2.8-1.9c-1.2,1.6-2.4,3.3-3.6,4.9c-0.8-0.6-1.7-1.2-2.5-1.8c1.1-2,2.2-4,3.3-6c-0.6-0.5-1.3-1.1-1.9-1.6
		c-1.7,1.8-3.4,3.6-5.2,5.5c-1.6-1.5-3.1-2.9-4.7-4.4c1.6-1.5,3.2-3,4.8-4.4c-0.5-0.7-1.1-1.3-1.6-2c-1.8,0.8-3.6,1.5-5.4,2.3
		C121.8,376.1,115.2,369.2,108.8,362.3L108.8,362.3z M371.6,152.9c-2.6-4.2-4.9-4.1-7.6-1.4c-2.6,2.6-5.4,4.9-7.9,7.6
		c-14.3,15.1-28.6,30.2-42.7,45.4c-1.4,1.5-1.8,4.1-2.6,6.1c2.1-0.9,4.6-1.2,6.1-2.7c16.2-15.8,32.2-31.8,48.2-47.8
		C367.3,158,369.3,155.4,371.6,152.9z M391.3,204.6c-17.7,16.6-34.9,32.8-52,48.9c2.5,4.9,5,4.8,8.4,1.6
		c13.4-12.7,26.9-25.2,40.3-37.9c2.5-2.4,5-4.7,7.8-7.3C394.1,208.1,392.8,206.5,391.3,204.6L391.3,204.6z M325.7,237.7
		c8.7-8.1,17.3-15.9,25.6-24.1c8.9-8.7,17.7-17.6,26.3-26.6c1.3-1.4,1.6-3.7,2.4-5.6c-0.5-0.2-1-0.5-1.5-0.7
		c-1.2,0.9-2.5,1.6-3.5,2.6c-16.7,15.3-33.4,30.6-50.1,45.8C321.4,232.3,322.3,234.8,325.7,237.7L325.7,237.7z M337.3,250.7
		c18.5-17,36.7-33.7,55.1-50.6c-4.8-3-7.4-1.6-10,0.9c-14.1,12.9-28.4,25.6-42.6,38.4c-2.3,2.1-4.9,3.8-7.5,5.9
		C334.5,247.6,335.5,248.7,337.3,250.7L337.3,250.7z M330.6,244.3c1.6-1.2,3-2.1,4.2-3.2c15.1-13.8,30.2-27.6,45.1-41.5
		c1.9-1.8,7-3.5,3.7-7.2c-3.2-3.6-6.1,0.7-8.2,2.7c-9.5,8.6-18.8,17.4-28.1,26.2c-6.1,5.7-12.2,11.3-18.2,17.1
		c-0.8,0.8-1.6,2.3-1.4,3.2C328.1,242.6,329.5,243.3,330.6,244.3L330.6,244.3z M126.2,417.5c-6.1-5.1-12.1-10-17.8-14.7
		c-2.7,7.2-6.1,16-9.2,24.9c-0.3,0.8,1.3,3.1,2.2,3.2c1.8,0.2,4.1-0.1,5.6-1.1C113.1,426.1,118.9,422.2,126.2,417.5z M272.5,249.5
		c-7.3,3.2-7.3,8.4-7.7,13.3c-0.2,2.1,1.6,4.4,1.2,6.4c-1,5.2-2.6,10.3-4.4,16.6c18.2-17.8,36.4-35.6,54.6-53.5
		c-0.4-0.6-0.8-1.2-1.2-1.8c-15.2,14.5-30.5,29-45.7,43.5c0.8-3.8,1.6-7.5,2.3-11.3c14.1-14.3,28.2-28.6,42.3-42.9
		c-8.7,7.8-17.4,15.9-26.2,24.3c-5.7,5.4-11.3,10.9-16.8,16.2C271.5,257.2,271.9,253.8,272.5,249.5L272.5,249.5z M219.2,579.4
		c-11,24.5-22.4,48.8-38.1,70.8C196,642.8,219.5,598.6,219.2,579.4z M267.3,298.1c12.9-15.4,25.9-30.8,39-46.2
		c4.6-5.4,9.2-10.7,13.8-16.1c-20.5,20.2-41,40.4-61.5,60.6c0.4,0.4,0.7,0.8,1.1,1.2c2.1-1.6,4.2-3.2,7.5-5.6c-1.8,5.3-3,9-4.2,12.6
		c20-18.6,40-37.4,60.1-56.1c-0.4-0.4-0.8-0.8-1.1-1.2C303.7,264.2,285.5,281.2,267.3,298.1L267.3,298.1z M344.6,264.4
		c0.5,0.4,0.9,0.8,1.4,1.2c12-10.5,24.2-20.8,36.1-31.5c5.5-5,10.5-10.6,15.6-16.2c1.2-1.3,1.7-3.3,2.5-5c-1.6-0.1-2.2,0.1-2.7,0.6
		c-16.3,15-32.7,29.9-48.9,45C346.9,260,345.9,262.4,344.6,264.4L344.6,264.4z M385.6,189.2c0,0.1-0.3,0.6-0.2,1.2
		c0.3,0.9,1.7,1.3,2.3,1.5c4.6,1.2,13.6,3,19.7,4.6c2.6,0.7,4.9,2.2,7.2,3.6c3.8,2.3,4.7,4.6,7.8,5.1c2,0.3,4.6-0.1,5.2-1.5
		c0.6-1.4-1.1-3.2-2.1-4.4c-1.6-1.8-3.4-2.3-6.1-4.3c-4.7-3.5-7.7-4-10.4-4.7c-1.2-0.3-3.4-0.6-7.9-1.1c-2.5-0.3-3.9-0.4-6.7-0.7
		C388.5,188,386.2,188,385.6,189.2L385.6,189.2z M216.5,35.6c-1.4-4.8-3.7-4.9-7.3-3.2c-8.5,3.8-17.1,7.3-25.7,10.6
		c-8.3,3.2-16.9,5.9-25.3,8.9c-1,0.4-1.8,1.4-3.6,2.8c1.9-0.1,2.6,0,3.2-0.2c15.7-5.8,31.4-11.7,47.1-17.5c0.9-0.3,2.4-1.2,2.6-1
		C210.7,39.7,213.2,35.9,216.5,35.6L216.5,35.6z M196.1,57.7c0.4-0.5,0.8-0.9,1.1-1.4c-1.3-0.9-2.6-2.3-4-2.5
		c-5.1-0.9-9.6,0.9-13.2,4.5c-3.1,3.1-5.7,6.7-8.7,9.8c-1,1-2.7,1.8-4.1,1.8c-6.1,0.3-9.4,3.4-10,10c1.1,0,2.5,0.4,3.3-0.1
		c4.7-2.6,9.2-5.3,13.8-8.1c0.6-0.4,0.9-1.4,1.2-2.1C181.3,56.4,183,55.4,196.1,57.7L196.1,57.7z M411,225.2
		c7.6-10.5,7.1-17-1.8-22.7C410.1,210.1,406,217.6,411,225.2z M204.5,51.1c0.4,0.4,0.4,1.1,0.2,1.6c-0.3,0.7-1.2,0.8-2.5,1.2
		c-0.9,0.2-2.2,0.6-3.6,1.3c0.2,0.8,1.1,3.2,3.3,4c2.4,0.8,5.6-0.8,9.6-5c-6.1-7-9.5-8.1-14.1-4.5c0.6,0.7,1.6,1.5,2.9,1.7
		C202.3,51.6,203.8,50.3,204.5,51.1L204.5,51.1z M342.3,449.8c-5.8-7.1-12.6-12.9-21-16.5C326.4,441.2,333.9,446.1,342.3,449.8z
		 M208.8,42.9c2,1.4,3.8,3.6,6,4c3.7,0.6,7.4-0.2,9.4-5.4C219,41.9,213.9,42.4,208.8,42.9L208.8,42.9z M229.5,29.4
		c4.2,5,8,5.9,12.4,3.5c0.8-0.4,1.9-1.7,1.7-2c-0.5-0.9-1.5-2.1-2.3-2.1C237.7,28.7,234.1,29.1,229.5,29.4L229.5,29.4z M169.3,89.3
		h-15.8c2,4.1,5.3,5.1,8.8,5C165.7,94.2,168.4,92.4,169.3,89.3z M248.1,24.5c4.3,3.6,11.5,2.1,13.9-1.9c0.5-0.9,0.1-2.3,0.2-3.4
		c-1.1,0.4-2.9,0.5-3.2,1.2c-1.2,3.2-3.6,3.4-6.4,3.4C251.1,23.8,249.6,24.3,248.1,24.5L248.1,24.5z M240.6,44.6
		c-3.2-5.2-6.4-6-10-3.5c-0.8,0.6-1.7,1.9-1.6,2.6c0.1,0.8,1.5,2,2.3,2C234.2,45.6,237.1,45.1,240.6,44.6z M212.7,27.5l-0.6-1.1
		c-10.9,4.4-21.9,8.8-32.8,13.2c0.2,0.5,0.4,0.9,0.6,1.4C190.8,36.5,201.7,32,212.7,27.5L212.7,27.5z M252.8,34.1
		c2.2,0.8,4.3,2.1,6.5,2.4c1.1,0.2,2.4-1.4,3.6-2.2c-1.2-1.1-2.3-2.9-3.7-3c0,0-0.7-0.1-1.5,0C256.7,31.6,254.9,32.5,252.8,34.1
		L252.8,34.1z M253.2,41.2c-3.4-3.7-6.8-3.6-10.2,0C246.4,42.5,249.5,44.6,253.2,41.2L253.2,41.2z M152.7,80.1
		c-0.9-2.5-3.4-3.9-5.6-3.4c-2.4,0.5-3.4,3-3.5,3.2c0.8,0.4,2.3,1.2,4.4,1.2C150.2,81.1,151.9,80.5,152.7,80.1L152.7,80.1z
		 M217.4,31c0.5,0.5,1.6,1.7,3.2,2c2.5,0.4,5.2-1.1,6.7-3.9c-1.2-0.1-2.4-0.4-3.6-0.4c-0.4,0-0.9,0-1.2,0
		C221.7,28.6,219.9,28.9,217.4,31L217.4,31z M393.2,173.2c0.4-1-0.1-2.5-1-2.9c-0.3-0.1-0.9-0.2-2.9,0.9c-1.5,0.8-2.5,1.6-3.3,2.2
		c-3.7,2.8-4.9,3.3-4.9,4.4c0,0.5,0.3,1.2,0.9,1.5c1.6,0.9,3.3-2.7,8.4-4.5C391.6,174.4,392.8,174.2,393.2,173.2L393.2,173.2z
		 M217,55.8c3.7,4.3,6.6,3.5,10.2-2.8C223.3,54.1,220.4,54.9,217,55.8L217,55.8z M229.8,26.2c6.3-2.7,8-8.6,10.1-14.8
		C236.4,16.6,233.1,21.4,229.8,26.2z M309.3,215.7c-0.4-0.5-0.8-1-1.2-1.5c-11.5,12.1-23,24.1-34.4,36.2l1,0.8
		C286.2,239.3,297.8,227.5,309.3,215.7L309.3,215.7z"/>
</g>
</svg>
