<?xml version="1.0" encoding="UTF-8"?>
<svg id="Layer_1" data-name="Layer 1" xmlns="http://www.w3.org/2000/svg" viewBox="0 0 498.74 903.61">
  <defs>
    <style>
      .cls-1 {
        fill: #000;
      }

      .cls-1, .cls-2 {
        stroke-width: 0px;
      }

      .cls-2 {
        fill: #fff;
      }
    </style>
  </defs>
  <path class="cls-2" d="M31.15,212.7c-7.98-2.61-12.36-8.51-17.74-15.74-10.99-14.78-14.69-33.93-11.48-43.87.39-1.21,2.71-7.92,5.87-16.07.56-1.44,1.03-2.62,1.33-3.39.37,4.6,1.41,6.55,2.75,6.96,5.35,1.66,22.44-19.14,20.66-39.53-1.19-13.63-10-14.34-14.79-32.65-1.24-4.72-5.15-21.86,2.3-39.53C26.05,14.62,38.38,2.56,42.49,4.64c3.33,1.68-3.44,12.36-1.53,31.37.68,6.74,2.18,21.65,12.75,30.61,5.09,4.32,7,2.77,14.28,7.91,2.03,1.43,11.26,8.18,17.09,19.89,8.67,17.44,5.19,36.65,4.77,38.8-1.63,8.36-4.48,13.27-1.71,19.36,2.71,5.95,7.3,5.33,10.71,10.46,7.72,11.59-1.07,36.75-16.58,43.36-1.87.8-2.34.69-10.2,1.79-29.26,4.09-33.14,7.06-40.92,4.52Z"/>
  <path class="cls-2" d="M243.85,780.04c-6.23,4.73,2.12,18.07-7.24,30.46-5.36,7.1-10.71,6.18-19.61,17.49-4.02,5.12-4.26,7-7.84,9.35-7.85,5.15-15.98,2.17-18,6.12-.79,1.55-.72,4.29,3.22,9.57-5.91,1.73-15.49,4.6-27.45,8.45-12.02,3.87-15.3,5.15-18.4,3.32-8.72-5.16-.16-25.66-9.05-31.07-4.79-2.91-13.05-.46-16.61,4.01-3.1,3.9-.92,7.15-3.29,18.91-1.42,7-2.12,10.5-4.52,13.27-6.15,7.09-15.98,4.07-17.8,8.75-1.47,3.81,3.5,9.77,8.14,13.27,11.72,8.85,26.87,6.26,38.84,4.84,19.59-2.32,39.48.11,59.19-.92,6.77-.35,95.95-4.79,139.35,3.32,2.54.47,15.02,2.88,30.77.3,12.02-1.97,19.33-3.16,21.42-7.54,4.92-10.31-24.01-27.89-109.19-92.9-8.97-6.84-33.36-25.51-41.93-19Z"/>
  <path class="cls-1" d="M437.32,860.59c3.19.87,5.93,1.56,8.63,2.38,8.75,2.66,12.37,7.01,12.31,14.67-.06,7.75-5.38,15.15-13.04,16.98-5.3,1.27-10.83,1.87-16.29,2.16-8.98.47-17.99.32-26.98.68-7.57.3-15.23-.22-22.25,4.08-2.65,1.62-6.41,1.95-9.67,1.99-13.33.16-26.66.04-39.99-.08-5.75-.05-11.25-.82-15.58-5.42-1.04-1.11-3.31-1.76-4.89-1.58-34.57,3.95-69.26,1.68-103.9,2.17-21.33.31-42.65.79-63.97.93-9.81.06-19.64-.3-29.44-.9-7.78-.48-14.19-3.76-17.45-11.36-3.83-8.93.54-16.98,10.08-18.8,1.63-.31,3.3-.52,4.96-.63,3.01-.21,4.49-1.75,4.64-4.76.37-7.8.95-15.59,1.11-23.39.04-1.81-1-3.81-2-5.44-3.98-6.44-6.65-12.85-1.17-19.81.3-.38.75-1.07.61-1.31-3.13-5.48.91-9.4,2.78-13.86.61-1.44.46-3.29.35-4.93-.81-11.91-1.62-23.81-2.65-35.7-.14-1.66-1.15-3.53-2.33-4.77-5.18-5.43-5.46-7.74-3.07-14.34,1.35-3.74,2.39-8.04,1.96-11.91-8.68-78.66-17.37-157.31-28.76-235.65-5.65-38.89-9.21-78.08-13.71-117.14-.13-1.16-.25-2.32-.32-3.48-.32-5.09-1.13-9.19-7.24-11.3-6.63-2.29-8.64-9.25-8.1-15.32.58-6.43-3.28-11.07-4.12-16.75-.27-1.77-.77-3.51-1.1-5.28-.58-3.1-.92-6.26-1.69-9.32-1.12-4.52.86-7.96,4.05-10.44,2.96-2.3,6.62-3.72,10.83-5.98-.98-5.66-1.93-11.86-3.22-17.99-.26-1.25-1.73-2.28-2.75-3.32-3.48-3.54-6.79-7.02-3.44-12.54.56-.92.18-2.6-.13-3.84-2.21-8.8-5.48-17.09-12.63-23.18-1.32-1.12-3.38-1.38-4.66-2.53-2.98-2.65-6.64-5.15-8.25-8.56-1.74-3.67,1.86-6.12,4.84-8.25.99-.71,1.4-2.66,1.51-4.08.33-4.26,1.85-5.4,6.11-4.63,1.29.23,2.73-.35,4.09-.55-.62-1.37-.92-3.04-1.91-4.06-3.31-3.43-6.86-6.62-11.15-10.69,10.53,1.61,16.27,8.97,23.18,14.27-1.53-1.79-3.59-4.28-5.92-7.32-2.89-3.77-5.07-6.26-7-9.82-2.65-4.87-4.29-10.33-7.17-15.03-4.13-6.74-5.09-13.93-3.27-21.15,1.68-6.71,4.51-13.19,7.43-19.5,2.65-5.72,6.42-10.92,9.17-16.61,5.62-11.66,5.33-17.62-.63-28.82,4.09.91,9.24,5.38,11.3,11.17,5.17,14.57,6.34,28.98-3.5,42.39-.99,1.34-1.9,2.74-2.94,4.04-13.69,17.25-11.98,37.79,7.98,52.38-.81-2.29-1.29-3.79-1.88-5.25-1.06-2.64-1.59-5.26-1.64-7.83-.12-5.99,2.33-10.5,3.15-11.91.8-1.36,2.02-3.4,4.41-5.25,1.54-1.19,3.03-1.89,4.09-2.3-.61,2-1.44,4.83-2.36,8.26-1.56,5.82-2.28,8.76-2.22,10.66.11,3.69,1.14,7.34,3.08,10.97.62,1.16,1.05,2.46,1.39,3.74.87,3.31-.35,4.76-3.54,3.12-3.08-1.58-3.55.3-4.43,2.89,2.29-.26,4.22-.55,6.16-.7,3.36-.26,4.7-1.94,5.15-5.38.98-7.53,4.46-13.71,11.56-18.09.45,1.97.76,3.35,1.08,4.74.08,1.02.16,2.03.24,3.05,1.11-3.62,2.28-9.03,1.62-15.42-.55-5.38-.88-8.42-5.63-16.38-2.82-4.73-8.68-19.88-11.84-34.75-1.14-5.37-.8-5.82-2.04-10.47-1.87-7.04-4.2-11.9-2.25-13.55.12-.1.64-.52,1.27-.46,2.1.19,3.22,5.35,5.26,16.95,2.3,13.07,4.03,18.19,5.93,26.75.21.97.65,1.89,1.04,2.81,4.6,10.72,9.22,21.43,13.55,31.5,1.84-2.88,2.65-5.41,3.05-7.27.61-2.83.58-5.62,1.81-5.95.62-.17,1.25.37,1.39.48,2.86,2.41-.94,12.4-2.72,17.08-1.51,3.97-3.92,9.57-7.73,16.02,1.79-.27,3.31-.5,6.01-.91-1.79,1.03-2.76,1.35-3.41,2-1.14,1.14-2.09,2.47-3.12,3.72,1.43.91,2.88,2.62,4.29,2.6,4.37-.08,7.37,1.55,9.14,5.47,1.63,3.63,1.94,6.23-2.29,9.19-3.99,2.79-7.76,6.98-7.49,12.93.05,1.07-.3,2.68-1.05,3.19-4.93,3.39-3.75,8.37-3.78,13.1-.02,4.1-.37,8.21-.35,12.31,0,1.2.7,2.45,1.26,3.59,2.79,5.71,1.06,11.04-4.88,12.79-3.86,1.14-4.54,2.99-3.72,6.49.84,3.54,1.28,7.17,1.94,11,2.83.15,5.47.14,8.08.47,4.13.53,6.59,2.72,9.19,6.37,5.71,8,4.05,15.89,2.11,24.16-.26,1.11-.29,2.28-.47,3.71,4.87,1.97,9.37,1.72,13.83-.92,11.13-6.59,22.87-10.94,36.13-10.14,1.09.07,3.22-1.77,3.33-2.87,1.46-14.6,8.26-26.55,17.34-37.69,2.01-2.46,2.32-6.83,2.31-10.32-.03-15.47,4.19-29.62,12.48-42.58,6.99-10.93,17.02-17.07,29.92-18.55,2.79-.32,5.57-.74,9.16-1.23-.39-2.5-.26-4.91-1.18-6.83-1.88-3.95-.1-6.09,3.13-7.52,1.94-.86,4.17-1.62,6.23-1.53,6.86.29,13.7,1.31,20.56,1.39,3.05.03,6.12-1.51,10.53-2.7-5.95-4.4-9.12-8.41-5.17-14.47-1.69-.32-2.98-.51-4.24-.83-5.42-1.38-6.36-4.42-3.34-9.22.79-1.26,1.03-4.23.24-4.89-4.87-4.08-3.85-7.96.05-12.25-4.1-3.43-4.12-7.2-1.17-11.34,2.46-3.47.88-5.89-2.43-7.64-1.32-.7-2.67-1.36-3.95-2.14-3.35-2.06-4.63-4.86-2.37-8.4,1.68-2.63,1.92-4.65-.8-6.81-2.41-1.93-2.15-4.05.09-6.35,1.72-1.77,3.06-3.92.44-6.48-1.19-1.17-1.48-3.27-2.18-4.95,1.89-.69,3.73-1.58,5.67-2.01,1.19-.26,2.53.18,3.97.32-4.07-9.75,4.01-20.02,16.35-28.02-.66-.49-1.62-1.33-2.43-2.62-1.17-1.86-1.39-3.67-1.44-4.59,6.38.18,11.5.8,15.17,1.39,4.44.71,7.77,1.28,10.05-.44,1.43-1.08,2.5-2.75,3.03-5.04.87-3.82,2.33-3.41,4.49-1.73,6.32,4.93,13.04,7.3,21.01,4.32,2.42-.9,7.03,3.74,7.29,6.62.13,1.41.88,3.34,1.97,3.98,4.44,2.61,6,6.29,5.78,11.29-.08,1.65.75,4.18,1.99,4.9,3.9,2.28,6.31,4.78,4.68,9.63-.26.76.4,1.83.36,1.66,3.23.72,5.72,1.28,8.21,1.83-1.67,2.92-3.34,5.84-4.76,8.32,1.43,1.68,4.91,4.08,4.61,5.83-.43,2.48-3.64,4.47-5.89,6.92.47.55.98,1.39,1.7,1.97,2.75,2.22,1.42,3.45-.64,5.4-2.51,2.38-4.43,5.44-6.27,8.41-.36.58.56,2.39,1.35,3.16,4.29,4.17,4.33,4.62-.27,9.03.85.99,1.81,1.91,2.54,2.99,2.28,3.37,2.63,6.61-1.39,8.9-2.6,1.48-3.31,3.52-1.7,5.75,2.97,4.12,1.11,7.37-1.64,10.23-9.57,9.96-4.22,13.47,4.7,15.72,11.88,2.99,23.99,5.44,36.15,6.89,9.28,1.11,18.13,1.38,21.79,12.15.43,1.26,2.42,2.22,3.88,2.86,24.91,10.88,31.91,32.31,33.26,56.85.27,4.84.86,8.87,4.17,12.78,7.21,8.54,12.05,18.38,13.34,29.66.84,7.35,5.38,12.31,10.35,17.12,1.88,1.82,3.67,3.76,5.27,5.82,2.59,3.34,6.02,6.5,7.24,10.33,1.93,6.06,3.3,12.64,3.15,18.95-.22,9.04,1.41,17.42,4.51,25.79,5.71,15.43,11.23,30.93,16.54,46.5,1.31,3.84,2.52,8.2,2.02,12.09-1.33,10.2,1.77,19.78,3.67,29.37,2.19,11.04-1.4,19.44-8.96,26.33-6.28,5.72-13.61,10.29-20.47,15.37-.25-.33-.5-.65-.75-.98-.04.31-.23.72-.1.92,3.79,5.94,4.13,12.02,3.7,19.22-1,16.58-.43,33.31.46,49.93.55,10.24-1.64,18.82-9.38,25.63-3.26,2.87-4.5,6.25-4.37,10.55.12,3.98-.38,7.98-.7,11.96-.6,7.44-4.52,12.34-11.58,14.71-3.31,1.12-6.65,2.17-9.96,3.28-4.69,1.57-6.85,4.65-6.72,9.78.18,7.32-.27,14.66-.24,21.99.05,12.1-4.13,22.55-12.29,31.32-5.94,6.38-8.28,13.85-8.25,22.36.02,6-.28,11.99-.29,17.99-.02,11.65-4.47,20.92-14.09,27.76-6.94,4.94-7.05,6.17-3.02,13.43.48.87.89,1.79,1.3,2.7,6.1,13.56,5.72,15.02-5.18,24.82-2.95,2.66-5.79,5.56-8.12,8.76-2.59,3.58-1.13,6.21,3.31,6.07,6.31-.21,12.63-1.39,18.44,2.41.78.51,2.32.16,3.4-.15,7.43-2.09,14.56-.41,21.61,1.72,8.58,2.6,11.2,6.24,11.45,15.31.04,1.32,0,2.64,0,4.38ZM313.38,140.47c-5.44-3.02-10.89-6.05-16.33-9.07-.48.7-.96,1.4-1.43,2.1,5.28,4.32,10.55,8.65,16.73,13.7.33-2.44.63-4.66.94-6.87.49,1.39,1.36,2.77,1.41,4.17.17,4.43,1.71,7.69,6.41,8.68,2.09-4.48-1.03-11.33-7.49-15.77-.09,1.12-.16,2.09-.24,3.06ZM215.05,431.1c-1.16-1.01-2.33-2.02-3.57-3.11-1.97,4.34,1.01,9.99,5.45,11.06.47.11,1.18.13,1.34.43,2.47,4.75,2.65,4.85,7.23,3.52-1.75-1.91-3.51-3.82-5.26-5.74,2.38,1.47,4.69,3.09,7.18,4.36,1.47.75,3.46,1.67,4.8,1.24,4.17-1.34,8.15-3.28,12.27-5.03-10.25-3.13-20.01-6.11-29.71-9.08.02.17.15,1.26.28,2.34ZM190.33,852.82c-1-9.57.29-11.19,9.31-13.44,2.19-.55,4.61-1.42,6.21-2.91,10.35-9.6,20.58-19.34,30.64-29.24,1.33-1.31,2.21-3.84,2.11-5.74-.59-11.23-2.64-22.05-8.61-31.96-3.86-6.4-6.82-13.34-10.24-20.01-9.24-18.06-17.1-36.61-18.01-57.22-.46-10.5-2.21-20.35-7.68-29.56-4.17-7.02-3.79-14.62-2.25-22.72,1.69-8.88,3.15-18.25-3.58-26.57-1.9-2.35-2.31-6.61-2.02-9.87.34-3.88,2.4-7.58,3.27-11.46.56-2.48,1.1-5.43.29-7.68-1.89-5.25-2.45-10.28-.66-15.61.45-1.35.68-3.13.19-4.4-2.64-6.74.07-12.19,3.28-17.91,1.37-2.44.76-5.92,1.56-8.79,1.76-6.28-.68-11.91-2.15-17.75-.3-1.19.03-2.74.55-3.91,2.37-5.32,4.36-10.57,1.88-16.49-.42-1.01.66-2.55.66-3.85.01-3.05.65-6.49-.52-9.06-2.2-4.83-1.7-8.72.98-13.11,3.86-6.32,1.09-13.78,2.73-20.57.21-.86-.91-2.08-1.49-3.09-6.75-11.83-1.24-26.78,11.58-31.46,1.2-.44,3.18-.88,3.37-1.66,1.47-6.08,4.19-12.45,3.45-18.35-1.19-9.48-.24-18.18,3.13-26.9,1.5-3.88,3.02-7.77,4.15-11.77,1.81-6.45.74-12.2-3.45-17.85-3.09-4.16-4.75-9.4-6.89-14.24-.77-1.74-1.06-3.7-1.88-6.65-2.92,3.73-4.98,6.74-7.43,9.38-3.25,3.49-6.33,7.53-10.35,9.83-6.31,3.61-9.84,8.97-13.5,14.87-3.43,5.52-7.47,11.56-12.8,14.84-16.19,9.96-33.9,12.88-52.1,5.79-8.49-3.31-16.45-7.99-24.66-12.03-1.68-.83-3.41-1.58-5.7-2.63,0,3.37-.24,5.87.04,8.3,3.72,32.27,7.26,64.56,11.33,96.78,5.65,44.62,12.17,89.12,17.47,133.78,4.89,41.18,8.66,82.5,12.89,123.76.64,6.22,1.83,11.97,6.61,16.75,2.73,2.73,3.1,6.5.88,10.57-1.57,2.89-2.55,6.79-2.08,9.99,1.62,11.19,3.92,22.28,6.13,33.37.45,2.23,1.62,4.33,2.52,6.47,2.51,5.96,5.16,11.86,7.49,17.89.48,1.24.13,3.06-.4,4.38-5.03,12.57-.14,24.2,3.36,35.92,1.02,3.41,3.19,4.14,6.49,2.08,8.11-5.06,17.13-7.16,26.62-7.53,2.3-.09,4.58-.48,7.25-.78ZM282.3,221.47c-1.14-.67-2.87-1.07-3.33-2.05-2.84-6.2-8.31-6.41-13.92-6.68-6.97-.34-14.17.11-20.84-1.55-7.31-1.82-13.08-1.98-17.31,5.09-.11.18-.61.11-.92.16-.47-4-3.18-6.05-6.7-5.67-6.2.68-12.74,1.15-18.36,3.54-10.92,4.65-17.72,13.8-22.26,24.57-4.36,10.32-5.77,21.09-5.04,32.29.19,2.97-.45,7.08-2.38,8.91-11.18,10.64-18.39,22.71-16.92,38.77.22,2.34.03,4.72.03,7.7-11.56-6.1-22.3-5.89-32.27.42-8.19,5.18-15.81,10.89-26.1,6.52-1.23,6.88.44,9.83,5.91,11.41,3.92,1.13,7.88,2.11,12.59,3.37-7.05.93-13.76-4.46-20.96,1.73,8.36,4.03,15.25,7.73,22.45,10.71,10.48,4.34,21.11,4.73,31.82.13,3.35-1.44,7.29-1.47,10.85-2.52,2.12-.63,4.78-1.49,5.88-3.13,3.92-5.88,7.28-12.14,11.16-18.79-2.04-.36-2.99-.69-3.92-.67-5.85.12-8.4-3.22-8.96-8.55-.57-5.41-1-10.84-1.49-16.26,1.34,3.69,1.89,7.46,2.39,11.23.5,3.79,2.54,4.98,6.26,4.22,10.34-2.14,19.22-7.2,23.81-16.58,4.32-8.85,7.2-18.59,9.36-28.24,1.79-8.01-3.1-12.18-11.39-11.23-2.79.32-5.51,1.13-9.07,1.89,9.26-8.18,17.84-15.76,27.46-24.27-6.34,8.39-2.34,14.68,1.95,20.83,1.9,2.72,4,5.33,6.22,7.8,5.07,5.67,11.41,8.63,19.1,7.98,7.3-.62,14.6-1.3,21.85-2.31,10.13-1.42,20.24-3.15,24.98-14.42-.52,5.83-2.6,10.72-7.87,13.11-14.39,6.55-29.4,10.58-45.4,9.6-2.72-.17-5.41-.97-8.79-1.6,2.06,7.04,1.19,14.73,9.72,17.13-9.27-1.4-9.82-9.8-12.57-16.5-2.25,10.61-.51,19.74,7.92,27.2-2.25-.69-4.42-1.7-5.9-3.34-1.7-1.88-2.78-4.32-4.32-6.83-2.18,8.19,2.27,16.09,12.38,22.67-.57,1.03-1.15,2.07-2.36,4.27-3.83-4.99-7.13-9.28-11.29-14.71,3.27,8.98,4.39,17.5,12.42,22.33.61.37,1.18,1.2,1.31,1.9.69,3.8,1.24,7.62,1.88,11.65-1.09-1.15-2.15-2.27-2.52-2.66-2.42,8.23-4.93,16.62-7.36,25.03-4.35,15.05-1.45,22.14,12.04,30.17-1.6.55-3.38.99-4.79.47-6.6-2.44-7.56-2.03-9.48,4.99-.48,1.77-.77,3.59-1.32,5.33-1.47,4.68.19,8.2,4.6,9.57,7.57,2.36,15.27,4.47,23.07,5.85,2.95.52,6.64-.63,9.44-2.09,14-7.31,27.67-15.28,41.75-22.45,17.35-8.85,35.04-17.03,52.48-25.72,12.78-6.36,14.51-12.55,6.76-25.79-1.51-2.58-4.88-4.06-7.4-6.06,2.25-1.78,6.16-4.02,5.67-9.46-2.71.32-5,.75-7.29.81-2.2.06-4.41-.27-6.62-.43,12.71-2.52,16.16-7.29,10.47-15.33-3.98,8-6.14,9.2-12.09,7.49,2.72-3.61,7.43-7.24,8.03-11.45.54-3.74-3.48-8.13-4.93-11.09,6.33,3.03,10.16,2.69,15.33-2.9,1.15-1.25,1.08-3.63,1.65-5.8-4.2.27-7.03.45-9.85.64-.14-.39-.29-.77-.43-1.16,5.86-3.11,12.32-5.65,14.21-13.64-1.57.16-2.38.16-3.15.34-19.72,4.61-37.96-.58-55.64-8.71-6.78-3.12-10.52-10.56-9.15-16.81,1.09,8.93,6.45,13.79,14.57,15.12,8.18,1.33,16.5,1.91,24.78,2.43,11.32.71,20.83-3.57,28.82-11.45,1.78-1.75,3.63-3.45,5.29-5.31,3.62-4.04,9.83-7.24,3.66-14.9,1.95.49,2.74.45,3.07.82,7.95,8.89,19.7,10.82,29.59,16.14,4.49,2.42,7.61,1.22,9.33-3.12.9-2.28,1.37-4.82,1.56-7.28,1.73-21.78-10.6-38.72-31.55-45.01-9.5-2.85-18.33-2.07-27.35.98-2.83.96-5.75,1.86-4.25,5.64-6.89-.89-13.41-1.74-20.5-2.66,17.23-3.2,33.09-11.07,51.12-9.1-.7-1.53-1.53-2.76-2.67-3.5-9.7-6.25-19.72-4.22-29.73-.92-7.11,2.34-14.16,4.86-21.27,7.21-1.53.51-3.18.66-4.77.98-.08-.37-.16-.75-.25-1.12,9.09-3.7,18.17-7.4,28.54-11.63-5.75-1.22-10.25-2.21-14.76-3.12q-10.14-2.03-11.05,8.54c-5.76-.01-9.05,3.87-12.65,7.95-2.12,2.4-6,3.25-9.1,4.79-.17-.36-.34-.71-.51-1.07,1.06-2.29,2.11-4.58,3.17-6.87-.41-.29-.82-.58-1.23-.87-4.48,4.54-8.96,9.08-13.23,13.41-11.05-11.44-16.14-26.28-28.34-35.26-.59.27-1.17.54-1.76.81.9,3.87,1.79,7.74,2.69,11.61-.34.12-.68.24-1.02.36-1.03-1.73-2.07-3.46-3.1-5.18-7.54,4.7-14.95,9.32-22.36,13.94.21.67.43,1.33.64,2,10.38,1.2,20.74,2.9,31.16,3.43,6.59.34,9.04,4.24,10.89,9.82ZM359.03,869.32c.22-.13.43-.26.65-.39,2.56,3.5,5.12,6.99,7.68,10.49.41-.3.83-.59,1.24-.89-.5-1.5-1-2.99-1.61-4.82,1.66.84,2.96,1.5,4.27,2.16.21-.22.42-.44.63-.67-9.92-15.12-19.85-30.23-30.24-46.05,3.76.26,6.14.42,9.33.64-.68-2.84-.92-4.97-1.7-6.87-4.51-11.02-4.86-22.09-2.28-33.76,7.3-33.09,17.88-65.7,15.87-100.3.46,4.5.77,8.98.84,13.46.1,6.81.03,13.62.03,18.96,9.62-17.67,8.22-53.67-3.57-69.4-3.43,7.09-1.93,14.2-.32,21.42-1.4-3.45-2.8-6.9-4.21-10.35-.4.08-.8.15-1.19.23-2.36,8.59-4.72,17.18-7.08,25.77-.46-4.69.16-9.14.55-13.6.84-9.44,2.39-18.92,2.03-28.32-.2-5.29-.44-10.03,1.87-14.9,3.5-7.39,2.81-14.48-2.17-21.16-1.91-2.56-3.29-5.5-4.37-7.34,2.64-.71,5.48-.64,6.98-2.03,3.74-3.47,7.42-7.25,10.15-11.52,5.89-9.19,7.64-19.84,8.88-30.45.82-6.92,1.29-13.98.85-20.91-.5-7.82-6.18-10.4-12.8-6.71-5.52,3.08-11.31,5.7-16.67,9.03-5.06,3.14-9.84,6.76-14.49,10.48-3.56,2.85-5.12,6.76-4.88,11.48.3,5.83-2.03,10.55-6.38,14.56-2.63,2.43-5.6,5.29-6.62,8.53-3.69,11.75-4.46,23.49,5.67,32.85,6.41,5.92,5.64,15.02,10.41,21.6.66.9.09,2.69.09,5.15-4.01-4.34-7.31-7.9-10.7-11.57-2.05,5.61.68,16.02,4.5,22.42,7.54,12.62,14.36,25.5,12.5,41.18-1.06,8.91-.98,17.96-1.54,26.94-.47,7.5-1.13,14.98-1.7,22.47-.59-9.2-.67-18.32-.57-27.45.13-11.3.97-22.63.36-33.88-.27-5.04-3.33-9.94-5.13-14.9-.73.15-1.47.29-2.2.44-5.35,15.29-11.24,30.66-5.38,47.28,5.69,16.15,9.57,32.66,10.46,49.69.86,16.5,3.62,33.23-3.99,49.2-2.12,4.45-1.8,9.41,1.79,13.64.84,1,1.39,2.87,1.09,4.1-2.93,12.36.34,24.41,1.82,36.51.45,3.64,2.38,7.1,3.76,11,2.87-1.14,4.96-1.97,7.53-3-.56,1.55-.95,2.64-1.95,5.4,4.07-1.03,6.92-1.75,10.1-2.56-6.75-10.37-7.47-12.92-5.33-17.83,4.31,8.96,10.74,17.19,14.67,18.09-.81-2.11-1.49-3.87-2.16-5.63-.63-1.66-1.25-3.32-1.87-4.98q6.83,9.96,11.23,7.23c-1.56-3.37-3.13-6.77-4.71-10.16ZM465.66,502.65c.37.34.74.67,1.11,1.01,1.43-.59,3.41-.77,4.21-1.84,5.66-7.51,12.47-14.59,16.21-23.01,4.04-9.09,3.78-19.49.82-29.41-.29-.98-.39-2.72.15-3.12,3.69-2.73,2.63-6.14,1.55-9.47-3.74-11.56-7.5-23.12-11.43-34.62-2.85-8.33-5.97-16.57-9.45-26.19-1.03,8.09-1.86,14.6-2.69,21.1-.55-5.38-.89-10.74-.49-16.04,1.87-24.65-4.29-46.28-23.68-62.77-3.7-3.15-4.73-6.49-4.71-11.04.05-11.6-5.16-20.9-13.52-29.16-2.03,4.17-4.55,4.19-7.93,2.24-5.56-3.21-11.07-6.84-17.09-8.87-10.4-3.51-15.82,1-15.33,11.94.47,10.62,2.77,21.01,8.08,30.15,3.59,6.19,8.46,11.94,13.81,16.7,4.54,4.04,10.88,4.24,16.5,1.23,5.63-3.02,7.49-8.18,6.79-14.38-.02-.15.36-.35.96-.88,4.99,10.15,1.35,20.3,1.79,31.56-6.54-2.48-11.96-4.53-17.37-6.58-.33.54-.66,1.08-.99,1.62,5.18,3.66,10.36,7.32,15.54,10.99-.16.27-.32.55-.48.82-2.17-.32-4.34-.65-7.17-1.07.23,4.65.13,8.82.71,12.89,1.8,12.77,6.68,24.63,16.76,32.53,8.67,6.79,16.68,13.67,22.31,23.15.18.3.73.37,1.22.6v-3.91c2.33,4.88,3.9,9.95,5.83,14.89,2.9,7.43,1.89,13.3-4.11,19.34-3.96,3.99-7.53,10.12-7.88,15.52-.43,6.6,1.23,13.41-.46,20.17-.24.96.92,2.26,1.43,3.4,1.19-.72,3.08-1.18,3.44-2.2,1.21-3.4,2.28-6.94,2.67-10.51.6-5.53,3.15-9.18,10.1-11.63-.4,2.3-.63,3.94-.99,5.55-.3,1.35-1.51,3.21-1.01,3.93,4.96,7.08,1.16,12.96-2.18,18.99-1.14,2.05-2.02,4.23-3.02,6.36ZM362.1,385.8c-.5-.58-1-1.16-1.5-1.74-1.54.47-3.15.77-4.59,1.43-14.68,6.71-29.6,12.96-43.93,20.35-27.66,14.26-54.36,30.4-83.41,41.86-2.63,1.04-6.64,1.56-8.78.28-8.42-5.03-15.48-11.39-13.37-23.04-6.51,4.9-10.42,11.31-7.52,18.73,2.18,5.58,6.58,10.76,11.14,14.84,5.48,4.9,12.18,4.17,18.69.74,22.98-12.1,46.04-24.06,69.08-36.07,1.45-.75,2.91-1.49,4.36-2.23.23.46.45.93.68,1.39-25.7,14.12-51.39,28.24-76.71,42.15,2.18.49,5.27,1.17,8.36,1.86-11.16,2.01-21.54-.73-31.8-5.35-1.2,5.76,1.24,8.86,5.38,10.09,4.73,1.4,9.73,2.42,14.65,2.6,19.01.68,36.48-4.83,52.95-14,3.09-1.72,6.28-3.25,9.43-4.86.26.43.52.86.78,1.29-5.67,4.3-10.96,9.27-17.09,12.76-15.32,8.71-31.21,16.43-46.5,25.19-7.73,4.43-15.06,9.78-21.85,15.57-4.79,4.08-4.87,9.75-1.74,13.62,3.32-3.03,6.56-6.12,9.95-9.05,11.28-9.73,25.02-15.14,38.22-21.46,21.05-10.07,41.86-20.5,61.14-33.83,14.16-9.78,29.41-17.55,46.15-22.27,7.98-2.25,15.66-5.58,23.35-8.75,1.84-.76,3.15-2.81,4.71-4.27l-.95-1.04c-7.41,2.98-14.82,5.96-22.24,8.95-.21-.48-.41-.96-.62-1.44,9.04-4.54,18.82-8.28,21.96-19.41-12.96,10.93-29.7,13.65-43.99,21.46,8.06-6.57,16.73-12.26,24.4-19.08,9.89-8.79,20.21-17.64,22.07-31.08-2.45-3.51-4.41-6.33-6.37-9.15-.7,1.92-.93,3.76-.17,4.98,2.8,4.46,1.26,8.35-1.24,12.09-1.75,2.62-3.56,5.35-5.9,7.4-11.73,10.32-23.44,20.69-35.61,30.49-4.71,3.8-10.61,6.13-15.96,9.13-.2-.36-.41-.73-.61-1.09,2.87-1.96,5.8-3.84,8.59-5.91,10.97-8.11,22.26-15.86,32.7-24.6,5.51-4.62,9.84-10.79,14.07-16.72,1.63-2.28,1.48-5.82,2.15-8.79-36.47,32.08-72,63.7-120.23,75.37,2.05-1.35,4.18-2.58,6.38-3.66,30.18-14.65,59.38-30.92,85.65-51.98,5.41-4.34,10.46-9.13,15.67-13.72ZM281.7,521.04c-7.58,11.32-14.89,22.83-22.82,33.89-7.99,11.14-16.56,21.88-28.52,29.22,9.24-9.37,18.1-19.01,24.02-29.68-11.01,5.61-22.82,10.91-33.87,17.49-8.34,4.96-16.27,10.96-23.33,17.62-5.42,5.11-7.72,12.37-6.51,21.03,8.47-3.75,15.47-.57,22.39,2.22,8.02,3.24,16.06,6.56,23.74,10.51,10.86,5.58,22.03,5.61,33.6,3.54,2.96-.53,4.11-2.02,4.65-4.87,5.34-28.13,10.79-56.24,16.24-84.35,1.95-10.09,3.98-20.16,5.97-30.24-1.34,1.35-2.03,2.85-2.6,4.39-7.86,21.2-15.31,42.56-23.67,63.56-5.66,14.2-12.52,27.94-19.13,41.75-.68,1.41-3.34,2.5-5.1,2.53-.99.02-2.14-2.36-2.99-3.8-.45-.76-.43-1.8-.64-2.79.63-.2,1.7-.54,2.87-.91-4.04-2.3-7.75-4.41-11.71-6.65,16.29-8.57,29.53-21.63,31.99-31.06-6.16,5.28-12.39,10.98-19.01,16.2-7.05,5.55-15.56,7.12-25.71,8.06,35.27-15.14,48.63-45.66,60.14-77.65ZM421.71,687.8c0-5.16.22-8.81-.04-12.43-.98-13.79-1.86-27.59-3.27-41.34-.95-9.29.77-16.95,8.04-23.67,5.96-5.52,5.65-7.21-.26-12.56-7.51-6.81-10.52-14.98-10.13-24.94.78-19.81,1.41-39.62,1.83-59.44.79-36.97,1.41-73.94,2.01-110.91.03-1.78-.82-3.57-1.26-5.35-.63,0-1.27,0-1.9,0-.81,5-2.15,9.98-2.34,15-2.03,52.76-4.16,105.52-5.66,158.3-.98,34.63-1,69.29-1.33,103.93-.02,1.99.32,4.81,1.61,5.81,3.47,2.69,7.55,4.6,12.7,7.59ZM365.53,455.04c-.34-.27-.67-.53-1.01-.8-33.68,21.48-45.26,52.76-39.88,91.29.2-.13.84-.55,1.47-.97,8.32-5.45,16.4-11.33,25.03-16.23,10.69-6.07,14.21-12.43,12.09-24.54-.65-3.71-2.77-4.52-5.65-2.58-2.74,1.85-5.11,4.25-7.67,6.37-2.46,2.03-4.95,4.02-7.43,6.03,5.46-6.91,11.35-13.2,17.07-19.65,7.32-8.25,12.52-17.6,14.36-28.62,1.01-6.06,1.13-12.01-2-18.32-5.57,8.54-7.48,18.78-15.84,24.69,3.16-5.57,6.31-11.13,9.45-16.68ZM75.49,348.26c-5.47.12-6.23,2.47-5.85,5.78.66,5.79,1.16,11.6,1.85,17.39,5.52,46.49,10.98,92.98,16.62,139.45,7.4,60.85,14.94,121.68,22.43,182.53,1.57,12.73,3.09,25.47,4.8,38.18.21,1.56,1.44,2.98,2.2,4.46.52-.23,1.05-.47,1.57-.7-8.36-129.69-31.56-257.67-43.63-387.1ZM324.25,462.77c-.33-.19-.67-.38-1-.57-1.43,2.22-3.39,4.28-4.19,6.71-1.55,4.72-2.9,9.6-3.55,14.51-2.81,21.28-5.38,42.6-7.95,63.91-1.24,10.26-2.28,20.54-3.43,30.97,2.94-1.62,5.7-3.15,8.46-4.67,5.51-3.02,5.86-3.79,2.57-9.18-1.5-2.46-2.29-4.59.29-6.47,6.5-4.75,6.36-11.1,5.68-18.31-2.74-28.9,1.62-55.42,25.71-75.48,5.77-4.81,9.91-11.6,14.68-17.56,1.02-1.28,1.55-2.95,2.31-4.43-.35-.29-.7-.57-1.05-.86-4.69,2.94-9.38,5.89-14.06,8.83.1-.76.22-1.62.5-3.66-10.44,6.51-19.68,12.78-25.75,23.01.26-2.25.52-4.5.78-6.75ZM257.29,125.94c-2.21,4.06-4.15,7.64-6.1,11.22.37.22.73.43,1.1.65,1.29-.74,2.57-1.48,3.86-2.22.22.27.44.53.66.8-.27.77-.79,1.96-1.8,3.15-1.18,1.39-2.49,2.14-3.27,2.51.54.13,1.08.26,1.62.39-.11,2.16,0,4.35-.38,6.46-.34,1.91-1.18,3.74-1.8,5.6.39.09.78.19,1.16.28,2.64-3.05,5.28-6.09,7.91-9.14.47.26.94.52,1.41.79-.79,2.17-1.23,4.57-2.45,6.46-1.6,2.48-4.2,4.35-5.63,6.9-.92,1.64-.51,4.03-.7,6.08.6.07,1.2.15,1.79.22.82-1.67,1.65-3.34,2.47-5.01.15.06.3.13.46.19-.42,1.51-.84,3.03-1.28,4.66,4.95,1.85,6.56-1.98,8.05-4.73,2.34-4.3,8.79-8.11,1.71-14.71,5.3-5.41,10.41-10.54,15.41-15.79,1.16-1.22,1.93-2.8,2.87-4.22-1.55.44-3.08.9-4.64,1.29-.22.06-.53-.23-1.16-.52,1.05-1.5,2.06-2.95,2.34-3.34,3,0,5.44.7,6.74-.22,1.09-.78,1.03-3.42,1.15-5.26.28-4.14.47-8.29.5-12.44.03-3.49,1.76-5.11,5.08-5.48,5.24-.57,10.46-1.21,15.84-1.84-8.75-16.15-30.6-19-44.22-6.26-1.8,1.68-2.33,4.72-3.56,7.38,4.02,0,7-.18,9.94.03,10.94.81,11.69,1.79,10.09,12.56-.12.84-.31,1.67-.47,2.5.52-4.48-4.42-5.09-5.41-4.36-5.4,4.01-8.93.44-12.18-1.56.3-2.4.54-4.27.77-6.15-8.18,8.73-4.2,16.31,2.05,23.42-1.24,1.61-2.23,2.89-4.07,5.27h11.17c-2.93,1.94-5.55,3.27-7.65,5.16-2.49,2.24-4.56,3.48-7.08-.14,3.51-3.99.82-7.04-2.31-10.61ZM280.79,612.4c5.05-3.61,9.54-7.05,14.27-10.11,3.91-2.53,5.96-5.41,4.6-10.31-.55-1.99-.19-4.31.05-6.45.83-7.26,1.74-14.51,2.71-21.75,3.69-27.55,7.35-55.1,11.2-82.63.65-4.65,2.15-9.18,3.26-13.77-.54-.33-1.09-.65-1.63-.98-2.43,3.34-5.93,6.34-7.08,10.07-3.87,12.52-7.66,25.15-10.1,38-6.13,32.36-11.5,64.87-17.29,97.94ZM164.95,877.35c8.87,2.65,14.79-5.62,28.4-10.03,4.75-1.54,11.44-1.73,24.62-2.05,23.6-.57,47.15-2.7,70.76-3.12,2.22-.04,8.92-.14,10.23-3.27.08-.2.38-.93.14-1.73-.67-2.3-5.13-3.01-8.9-3.3-42.17-3.2-60.66,4.61-60.66,4.61-9.24,4.26-18.76,5.28-28.52,1.02-2.63-1.15-6.01-1.73-8.79-1.2-11.19,2.15-19.96,2.9-28.98,6.71-4.6,1.95-6.31,3.07-6.51,4.68-.37,2.84,4,6.41,8.22,7.67ZM210.99,677.19c.82-.41,1.64-.82,2.46-1.23-1.11-3.05-2.22-6.11-3.37-9.26,1.02-.7,2-1.31,2.91-2.01,4.94-3.8,4.96-4.74,1.22-9.88-1.36-1.87-2.2-4.13-3.28-6.21,6.54,5.77,9.26,6.73,14.18,4.29,4.79-2.38,10.33-13.88,9-18.99-.27-1.02-1.08-2.16-1.97-2.73-8.5-5.45-16.78-11.35-25.71-16-6.83-3.56-9.07-1.31-9.25,6.47-.2,8.25-.78,16.49-1.53,24.71-.57,6.23,1.41,11.31,5.27,16.09,2.34,2.9,3.96,6.38,6.03,9.51,1.22,1.83,2.69,3.5,4.05,5.24ZM426.6,422.17c-.38.01-.76.02-1.14.04-.33,2.1-.84,4.18-.96,6.29-1.19,21.77-2.54,43.53-3.4,65.31-.96,24.45-1.6,48.92-2.02,73.38-.08,4.47.4,9.72,2.7,13.27,3.21,4.97,8.36,8.68,13.74,13.98,0-7.76-.11-14.01.04-20.25.1-3.99-.97-7.03-4.65-9.16-3.96-2.28-5.06-5.81-3.72-10.29.75-2.51,1.2-5.22,1.18-7.84-.3-37.96-.69-75.91-1.11-113.86-.04-3.62-.43-7.24-.66-10.87ZM244.8,798.71c-.2.09-.08.7.04,1.66.58,4.65-1.22,7.96-4.54,10.95-6.19,5.56-11.89,11.68-18.28,17.01-13.29,11.07-15.8,13.2-18.79,13.51-3.3.35-4.68,1.06-7.45,2.48-1.58.81-1.87,1.18-1.99,1.57-.72,2.53,5.52,8.08,10.84,7.36,2.32-.31,4.3-1.8,4.54-1.45.18.28-.93,1.34-1.95,2.23.18.1.62.34,1.2.58,12.85,5.21,33.64-17.72,36.1-20.48,2.75-3.08,4.73-5.8,5.71-7.2,3.72-5.29,6.16-10.12,7.7-13.58-2.63-1.33-4.65-2.46-6.75-3.38-1.93-.84-3.38-1.76-4.03-3.2-.68-1.49.51-2.28.06-4.41-.45-2.13-2.02-3.83-2.4-3.66ZM194.04,582.44c1.49-.96,2.73-1.74,3.96-2.53,9.47-6.16,19.08-12.13,28.38-18.54,7.92-5.46,15.97-10.89,23.1-17.3,16.35-14.71,27.19-33.46,36.85-52.94.44-.89.44-2.01.64-3.02-.5-.33-1-.66-1.49-.99-3.28,3.96-6.93,7.68-9.77,11.93-11.94,17.87-25.94,33.8-43.41,46.39-9.1,6.56-18.7,12.42-28.11,18.54-.42.27-1.22-.12-1.82-.02-8.38,1.4-12.65,10.21-8.31,18.47ZM399.08,604.13c-5.17,10.46-10.19,112.78-7.53,118.76,3.91-5.51,8.23-11.66,12.64-17.76,1.36-1.89,2.87-3.68,4.46-5.38,2.94-3.15,2.86-5.77-.47-8.81-3.22-2.95-6.43-5.8-6.4-11.2.1-16.81-.25-33.63-.77-50.43-.26-8.41-1.27-16.79-1.93-25.18ZM214.52,890.55c.07-.41.14-.83.21-1.24-9.58-4.79-19.81-3.48-30.07-3.09,3.47-1.24,7.02-2.51,10.51-2.35,10.92.51,21.83,1.47,32.73,2.42,8.34.73,15.61-1.56,23.15-7.26-3.55-1.94-6.13-4.38-8.95-4.7-12.27-1.42-24.68-3.43-36.92-2.84-7.96.39-15.84,4.61-23.53,7.68-2.8,1.12-4.95,3.89-8.14,6.53,3.87,2.04,6.49,4.55,9.23,4.67,10.57.48,21.18.19,31.77.19ZM302.74,183.24c1.5-3.03,2.14-5.89,2.06-8.65-.17-5.44-3.73-5.92-4.67-11.61-.94-5.67,1.97-7.71.21-13.94-.74-2.63-1.83-4.33-2.17-4.82-1.95-2.83-4.84-4.82-8.41-6.21-4.24-1.65-6.43,1.51-9.06,3.44-1.7,1.25-3.38,2.96-4.18,4.84-.7,1.66-1,4.6-.03,5.67,3.2,3.55,3.59,5.16,3.74,8.1.16,3.06-2.52,3.35-4.35,7.86-.19.46-2.91,7.48.72,13.74,1.63,2.82,3.93,4.42,5.31,5.21-1.21-2.98-1.56-5.54-1.66-7.2-.14-2.31-.24-4.44,1.09-6.48.83-1.27,2.23-2.54,2.7-2.26.93.56-3.57,6.16-1.63,10.73.4.95,1.12,1.95,2.01,4.33.59,1.57.86,2.7.92,2.98.51,2.17.34,2.95.58,3.8.39,1.33,1.84,2.94,6.59,4.08-.73-.81-1.7-2.08-2.45-3.83-.6-1.4-.87-2.67-1-3.62,3.19-.25,3.95-1.76,1.6-4.21-2.11-2.2-2.9-3.91,0-6.03,3.89-2.85,4.29-6.16,1.61-10.34-2.52-3.93-3.78-8.31-.94-12.89-.55,6.62,2.3,11.1,7.93,14.3,3.61,2.05,5.7,5.03,3.54,9.53-.46.95-.07,2.31-.07,3.48ZM238.9,506.55c-9.84,1.41-17.23,5.43-24.53,9.76-12,7.11-16.9,17.41-14.26,31.03,20.55-11.24,38.81-25.44,53.48-43.92-.35-.51-.7-1.01-1.05-1.52-7.16,4.74-14.32,9.48-22.15,14.67,2.92-3.44,5.33-6.27,8.51-10.02ZM433.01,551.28c9.09-3.65,11.1-6.19,10.57-15.92-.8-14.8-1.93-29.59-3.06-44.37-1.38-18.11-2.89-36.21-4.41-54.3-.22-2.57-.82-5.1-1.25-7.65-.62.07-1.23.14-1.85.21v122.02ZM455.67,520.28c-.46,3.37-1.08,6.13-1.16,8.9-.69,22.78-1.29,45.55-1.88,68.33-.04,1.65-.22,3.6.56,4.86.59.95,3.68,1.65,3.84,1.38,2.82-4.74,7.52-9.63,7.57-14.53.2-19.1-1.13-38.22-1.79-57.33-.17-4.87-1.93-8.65-7.14-11.61ZM196.94,563.98c9.84-5.89,19.76-11.61,29.46-17.68,16.16-10.12,29.01-23.72,40.05-39.11,1.11-1.55,1.66-3.51,2.47-5.28-.43-.29-.85-.57-1.28-.86-2.66,2.4-5.27,4.86-7.99,7.19-7.29,6.26-14.17,13.14-22.06,18.53-12.6,8.59-25.84,16.24-38.89,24.16-6.87,4.17-7.34,7.11-1.76,13.06ZM325.43,880.07c.72-3.72-6.04-7.85-8.11-9.12-7.42-4.54-15.13-4.16-22.12-3.44-3.67.38-7.34,1.25-10.99,2.65-2.72,1.04-3.99,2.21-4.65,2.77-.6.51-5.11,4.36-4.64,7.18.9,5.35,19.68,6.11,21.86,6.19,8.59.3,27.51-.37,28.64-6.23ZM320.12,839.08c1.25-8.56-.91-11.75-10.11-14.29-2.51-.69-5.18-1.76-7.11-3.43-5.61-4.87-10.95-10.07-16.27-15.27-2.5-2.44-2.13-2.1-2.88-2.89-6.67-6.89-8.56-10.41-9.7-9.94-1.18.48-.59,4.81.08,7.61,1.49,6.22,4.72,10.41,5.3,11.17,3.16,4.17,6.98,11.31,9.55,24.22,11.05,1,21.06,1.9,31.14,2.81ZM422.7,859.16c-.13-.51-.26-1.02-.38-1.53-.84-.42-1.64-1-2.53-1.24-13.64-3.74-27.45-3.47-41.01-.31-9.1,2.12-8.47,1.24-5.71,11.75.96,3.63,3.21,5.75,7.56,5.76,5.64.01,10.78-.75,15.76-3.71,4.9-2.91,9.73-5.97,15.84-6.57,3.59-.35,6.98-2.7,10.46-4.16ZM405.85,535.52c.54.02,1.07.03,1.61.05l2.65-144.7-1.83-.03c-3.81,48.18-8.45,96.35-2.42,144.68ZM450.57,877.93c-3.89-2.11-6.54-4-9.5-5.01-3.11-1.06-6.48-1.57-9.77-1.79-11.29-.72-22.72-1.55-32.88,4.84-1.9,1.2-2.79,4-4.15,6.07,2.08,1.12,4.12,3.12,6.25,3.22,16.56.8,32.7-1.74,50.05-7.34ZM34.37,173.13c.25-1.17.52-1.93.57-2.71.69-10.16,4.6-18.98,10.88-26.9,2.48-3.13,4.92-6.33,6.99-9.73,5.1-8.41,4.5-23.05-.99-29.46-1.33,10.72-6.86,19.64-11.75,28.95-3.76,7.15-6.74,14.85-8.96,22.62-1.61,5.65-1.84,11.9,3.26,17.23ZM378,445.45c1.39,15.34,2.4,29.4,3.99,43.39,1.52,13.4,4.75,26.7,5.11,40.11.24,9.02,5.18,15.12,8.19,22.99,2.22-5.33-12.97-101.87-17.29-106.49ZM143.22,866.37c-1.7-8.41-3.23-16.56-5.09-24.63-.38-1.66-1.87-4.24-3.03-4.34-4.16-.35-8.39.17-12.24.35v31.76c7.13-1.1,13.59-2.1,20.35-3.14ZM372.8,480.26c-5.6,7.29-8.21,14.64-7.45,23.26.49,5.61.03,11.29.17,16.94.03,1.33.46,3.59,1.19,3.81,5.26,1.59,10.64,2.77,17,4.32-3.72-16.49-7.25-32.12-10.91-48.34ZM372.53,894.88s1.96-.21,4.96-1.19c2.6-.85,4.02-1.28,4.31-2.42.32-1.27-1-3.41-2.2-4.53-3.75-3.46-8.27-3.82-13.05-2.48-5.73,1.61-8.72,1.92-12.49,3.26-4.91,1.74-12.7,2.45-25.1-2.58-.24-.07-.57-.14-.97-.19-3.53-.41-8.49,2.09-8.44,5.48.02,1.64.45,2.71,1.13,3.39,1.79,1.81,4.95,1.38,6.03,1.25,9.93-1.22,30.25,1.67,45.83,0ZM201.25,504.05c12.95-8.39,25.55-16.56,38.15-24.73-5.21.11-10.61,0-15.22,1.83-7.12,2.83-12.26.39-17.18-4.09-1.52-1.39-2.64-3.21-4.17-5.12-2.5,4.16-6.06,7.42-5.72,10.22.4,3.36,4.12,6.32,6.45,9.51q-4.83,7.16-2.29,12.38ZM165.37,891.6c.05-.14.32-.92.22-1.93-.51-4.96-9.41-7.72-13.52-8.99-2.86-.89-13.49-3.56-25-.71-3.3.82-6.55,3.2-9.02,5.67-1.38,1.38-1.78,2.78-1.37,3.87.55,1.48,2.88,1.86,3.96,2.03,23.98,3.68,42.4,6.51,44.73.06ZM283.94,889.21c-12.95-10.02-31.85-6.25-37.19,1.07,5.58,2.96,31.95,2.21,37.19-1.07ZM83.46,217.51c-.01-.42-.03-.84-.04-1.26-10.96-2.56-21.98-1.46-32.92.14-5.87.86-11.63,2.63-17.34,4.34-1.14.34-1.82,2.25-2.71,3.44,1.28.16,2.62.62,3.84.42,5.23-.88,10.4-2.18,15.65-2.91,11.15-1.53,22.35-2.8,33.52-4.18ZM312.08,109.65c-5.98,6.03-8.06,6.28-13.99,1.95-6.04,4.81-4.76,15.64,2.24,18.63,2.69,1.15,4.72,1.2,5.25-2.66.27-1.96,1.57-3.85,2.66-5.62,2.29-3.7,5.37-7.11,3.84-12.31ZM79.54,325.41c-1.33-2.5-1.79-4.73-2.81-5.03-5.94-1.74-11.99-3.22-18.08-4.32-1.52-.28-3.81.75-4.93,1.95-1.19,1.28-1.98,3.51-1.86,5.25.07,1.08,2.15,2.9,3.32,2.9,7.73,0,15.47-.42,24.35-.74ZM122.94,799.45c2.47-.49,4.37-.87,6.77-1.35-1.15-8.48-2.47-16.65-3.29-24.86-.47-4.73-2.7-5.69-7.22-4.64,1.24,10.26,2.45,20.28,3.73,30.86ZM250.74,75.63c-.42.25-.85.5-1.27.75.87,2.37,1.11,5.62,2.81,6.85,1.55,1.12,5.01.73,7.06-.21,5.06-2.34,9.6-7.18,14.7-7.73,7.28-.77,9.92-6.06,14.21-9.9.12-.11.25-.22.36-.34,3.76-3.72,3.75-5.66-.18-9.81-.34.82-.68,1.55-.97,2.31-3.23,8.49-8.21,14.75-18.08,16.02-3.3.43-6.47,2.41-9.52,4.01-3.6,1.89-6.74,2.52-9.12-1.95ZM72.77,313.99c-.61-3.25-.29-6.51-1.75-8.36-3.59-4.57-16.84-3.41-19.93,1.44-.7,1.1-.78,2.85-.52,4.18.12.59,1.76,1.12,2.77,1.25,4.34.58,8.7,1.06,13.07,1.46,1.86.17,3.76.03,6.36.03ZM56.71,255.83c3.08-.64,5.76-1.19,9.05-1.87-.59-4.87-1.06-9.58-1.81-14.25-.13-.79-1.5-2.02-2.2-1.96-3.72.36-7.41,1.07-11.42,1.7,2.32,5.95,4.28,11,6.38,16.38ZM85.43,312.55c2.21-.95,4.96-1.28,5.73-2.69.91-1.68.98-5.45-.11-6.26-2.99-2.2-6.67-3.76-10.3-4.64-1.35-.33-4.42,1.69-4.75,3.09-.49,2.09.02,5.35,1.44,6.74,1.94,1.9,5.14,2.51,7.99,3.76ZM273.37,150.74c-3.69,5.42-6.61,10.21-10.03,14.6-4.45,5.7-3.59,10.85,3.18,14.83.65-1.06,1.31-2.13,1.62-2.66-1.36-1.75-3.21-3.05-3.31-4.47-.19-2.99,6.14-8.63,8.98-9.93,1.51-.69,3.15-3.39,2.97-4.98-.28-2.44-2.09-4.7-3.42-7.4ZM313.51,148.1c-2.51,1.2-4.45,2.49-5.81,3.5-2.61,1.95-4.08,3.08-4.71,5.15-.05.17-.64,2.22.06,4.13,1.2,3.29,5.9,5.44,11.55,4.84-.64-.32-1.67-.94-2.57-2.07-1.33-1.66-1.6-3.43-1.67-4.17,2.17.2,3.61-.4,3.62-.87.07-3.22-.23-6.44-.47-10.51ZM78.4,338.3c-5.47.84-10.86,1.65-16.25,2.49-2.84.44-5.31,1.41-4.99,4.96.31,3.44,1.22,6.52,6.17,6.79-1.99-5.78,2.06-6.54,5.78-7.48,2.09-.53,4.23-1.05,6.37-1.18,3.07-.19,4.13-1.54,2.93-5.57ZM67.97,329.9c0-.12,0-.24-.01-.35-3.3.24-6.66.2-9.88.86-1.44.29-2.59,1.99-3.88,3.05,1.46,1.08,2.96,3.11,4.39,3.06,5.94-.21,11.87-.95,17.77-1.75,1.01-.14,1.86-1.51,2.78-2.31-1.07-.85-2.07-2.28-3.24-2.45-2.6-.37-5.28-.12-7.93-.12ZM148.31,872.85c.17-2.2-17.37-4.6-24.95-2.12-1.24.4-4.02,1.32-5.24,3.81-.34.7-.85,1.73-.45,2.47.98,1.86,6.74.27,16.44-1.53,11.89-2.21,14.15-1.84,14.21-2.63ZM440.2,622.61c-.35,5.3,2.7,10.03,8.82,13.46,1.32-4.99,2.73-9.63,3.63-14.36.16-.84-1.78-2.82-2.89-2.93-.96-.1-2.56,1.52-3.07,2.71-.65,1.52-.48,3.39-.73,5.73-2.18-1.74-3.67-2.93-5.76-4.61ZM81.19,211.04c-8.23-4.02-40.18-.74-44.86,4.95,15.18-1.67,29.99-3.31,44.86-4.95ZM111.65,875.32c-2.21.17-3.85.2-5.46.44-3.12.46-6.2,1.46-6.28,5.18-.08,3.96,2.55,6.35,6.16,7.49,2.66.84,4.54.2,4.69-3.12.15-3.12.54-6.23.88-10ZM282.68,76.94c4.49-4.37,9.95-5.36,15.81-5.4,1.78-.01,3.61-.55,5.31-1.14,5.14-1.78,7.62-7.39,5.13-14.14-.46,9.5-6.36,10.71-12.78,11.22-.99.08-2,.1-2.97.3-5.21,1.06-8.32,4.52-10.51,9.16ZM363.94,312.53c-1.12-.34-3.02-1.61-4.25-1.14-3.06,1.17-5.92,2.99-8.65,4.86-.86.59-1.69,2.31-1.44,3.2.41,1.44,1.45,3.26,2.71,3.8,3.69,1.58,11.86-5.11,11.63-10.72ZM68.59,303.13c.62-.25,1.24-.49,1.86-.74-1.01-7.16-1.94-14.34-3.14-21.47-.13-.75-1.9-1.81-2.77-1.69-.84.11-2.23,1.67-2.13,2.41.79,5.56,1.71,11.12,3.01,16.58.42,1.79,2.08,3.28,3.17,4.91ZM75.84,228.56c-9.44-3.43-31.39-.97-36.58,3.98,13-1.41,24.79-2.7,36.58-3.98ZM138.29,820.67c-.11-.79-.22-1.58-.34-2.37-6.81.56-13.63,1.05-20.42,1.79-.64.07-1.59,1.78-1.52,2.65.07.89,1.26,2.44,1.91,2.42,7.08-.22,14.02-1.22,20.36-4.49ZM260.79,73.36c9.22-2.72,17.77-5.63,23.89-12.96l-.74-1.22c-5.11,3.16-10.22,6.31-15.85,9.79.32-3.22.62-6.15.94-9.32-7.21,2.25-3.95,9.8-8.23,13.72ZM235.55,195.47c-1.84,2.67-3.3,4.81-4.77,6.95.39.29.78.57,1.17.86,2.63-2.44,5.25-4.89,8.25-7.68-2.92-.69-5.25-1.45-7.64-1.76-5.45-.71-9.69,3.24-8.95,8.43.2,1.39,1.53,2.61,2.34,3.91.88-1.19,2.3-2.29,2.52-3.59.67-3.91,2.79-6.05,7.07-7.12ZM318.1,72.37c-5.26,6.02-11.18,6.47-17.91,4.48-2.75-.81-5.89-.52-8.83-.38-.8.04-2.1,1.31-2.15,2.07-.04.69.5,1.43,1.9,2.33,5.22,3.34,14.63,3.9,14.76,3.02.03-.2-.66-.49-2.05-1.06-3.38-1.41-6.03-1.68-8.65-3.49-.37-.26-.74-.55-.68-.76.17-.58,3.37-.12,4.51.05,2.82.4,3.8.65,5.51,1.15,6.59,1.94,11.26-.24,13.58-7.41ZM241.24,95.55c5.16,4.23,12.2,2.05,13.68-3.18.24-.83,1.06-1.54,1.71-2.21.56-.57,1.26-1.01,1.9-1.5-.69-.54-1.35-1.5-2.08-1.55-2.62-.19-5.25-.07-8.87-.07,1.18,2.51,2.13,4.55,3.2,6.85-2.85.5-5.85,1.02-9.54,1.67ZM55.58,271.36c7.59,2.78,14.7-.48,21.98-1.75-7.57-3.27-14.85-2.05-21.98,1.75ZM76.34,259.33c-.05-.49-.11-.99-.16-1.48-7.67-2.57-14.5.72-21.92,3.26.72,1.24,1.35,2.8,1.64,2.74,6.84-1.4,13.64-2.97,20.45-4.52ZM65.54,238.11c.7,5.42,1.35,10.46,2.01,15.51.54.22,1.09.44,1.63.66.84-1.22,2.3-2.39,2.41-3.67.25-2.96-.29-5.98-.25-8.97.05-4.07-1.88-4.85-5.79-3.53ZM391,889.01c.12-.72.24-1.44.36-2.17-4.48-1.66-8.97-3.33-11.76-4.36,1.96,2.09,4.69,5,7.42,7.91-.32.5-.65,1-.97,1.49l4.95-2.88ZM279.9,80.29c-4.99-4.52-14.9.32-18.89,9.8,3.24-2.34,5.83-4.72,8.85-6.26,3.14-1.6,6.69-2.4,10.04-3.54ZM118.92,815.88c7.8.08,13.96-1.6,16.24-4.28-5.94-1.74-14.22.28-16.24,4.28ZM389.16,381.11c.76.02,1.51.04,2.27.06.34-7.44.68-14.88,1.01-22.32-.59-.03-1.18-.06-1.76-.08-.51,7.45-1.01,14.89-1.52,22.34ZM487.96,487.72c9.46-5.78,1.95-14.08,3.23-20.97-1.05,6.8-2.1,13.6-3.23,20.97ZM239.34,105.73c5.7,3.75,13.29,1.45,14.83-4.17-4.75,1.34-9.75,2.74-14.83,4.17ZM324.87,92c.42-.55.83-1.11,1.25-1.66-1.3-.83-2.49-2.01-3.91-2.42-2.56-.74-5.27-.94-7.88-1.53-1.76-.4-3.47-1.07-5.91-1.84,3.92,8.05,11.76,3.7,16.45,7.45ZM401.83,755.08c-3.39-5.65-6.78-11.31-10.58-17.64-.17,8.39,4.44,13.41,10.58,17.64ZM359.61,301.88c.2.69.4,1.38.6,2.06,1.99-.1,4.91.58,5.78-.46,1.42-1.7,1.51-4.51,2.16-6.85l-1.86-.85c-2.22,2.03-4.45,4.07-6.67,6.1ZM133.38,806.49c-.15-.95-.3-1.89-.45-2.84-3.95.5-7.91.96-11.84,1.56-.37.06-.93,1.13-.8,1.56.18.63.96,1.62,1.37,1.57,3.92-.51,7.82-1.21,11.72-1.86ZM124.09,742.24c.12-.83.24-1.65.36-2.48-2.2-.24-4.49-.96-6.58-.58-1.92.35-3.62,1.89-5.41,2.91.26.56.53,1.13.79,1.69,3.61-.51,7.23-1.03,10.84-1.54ZM321.27,97.07c-4.86,1.86-.24,4.71.61,6.44,1.84,3.74,4.98,3.78,8.86.82-2.6-2.61-8.69-1.17-9.47-7.26ZM92.06,318.72c-5.54,2.05-6.07,5.14-2.04,10.24.82-4.09,1.43-7.16,2.04-10.24ZM126.4,747.52c-.05-.7-.11-1.41-.16-2.11-4.39.5-8.78,1.01-13.16,1.51.08.67.15,1.35.23,2.02l13.09-1.42ZM249.79,123.7v-10.65c-4.8,5.5-4.73,8.24,0,10.65Z"/>
  <path class="cls-1" d="M73.03,122.89c2.22.28,1.95,5.69,5.84,12.04,1.19,1.95,2.5,4.02,4.08,3.94,1.91-.1,3.15-3.3,3.61-4.47,2.85-7.29,6.5-35.47-12.03-51.79-4.6-4.05-9.7-7.63-14.93-10.85-21.83-13.45-25.58-36.81-18.17-57.79.48-1.37.98-2.73,1.74-4.83-6.86,1.47-11.35,5.23-14.87,10.08-13,17.88-13.12,37.09-5.31,56.93,1.21,3.07,2.82,6.11,4.81,8.73,7.06,9.32,8.03,19.67,4.85,30.38-2.41,8.1-5.61,16.01-8.94,23.79-3.02,7.04-4.77,14.15-4.3,21.82.24,3.85,1.1,7.42,2.66,10.71,1.12,2.38,3.16,4.95,4.34,6.54,1.17,1.58,1.97,2.54,2.6,3.25,1.35,1.52,2.61,2.71,3.58,3.56-3.98-2.12-9.62-5.97-13.09-12.6-6.81-13-1.45-28.73.96-34.23,3.2-7.29,6.73-14.51,9.04-22.08,3.11-10.2,1.59-19.84-5-28.84-10.28-14.05-12.75-30.06-10.22-47.08,2.46-16.61,11.46-28.81,25.14-37.95.83-.55,1.71-1.06,2.62-1.44,4.52-1.88,7.27,0,6.81,4.95-.23,2.43-1.15,4.84-1.98,7.18-4.4,12.42-6.28,24.84-.71,37.48,2.83,6.43,6.89,11.74,12.77,15.63,4.72,3.13,9.62,6.02,14.12,9.44,14.04,10.67,21.8,24.95,20.9,42.57-.38,7.32-3.84,14.67-6.8,21.62-.92,2.15-2.23,3.29-3.62,3.42-.44.04-1.71.03-4.35-2.99-2.57-2.94-2.48-4.22-5.81-10.44-1.56-2.92-2.74-4.81-1.95-5.93.31-.44.96-.83,1.63-.75Z"/>
  <path class="cls-1" d="M15.29,124.34c.79.49-.99,4.54-2.11,7.4-1.38,3.51-6.77,16.88-5.42,30.43.39,3.95,1.24,7.92,2.6,11.93,2.57,7.58,8.14,11.76,16.14,14.82-.83.25-2.02.51-3.45.43-5.92-.36-9.55-6.53-11.84-9.46-5.36-6.86-7.42-15.16-6.94-23.98.13-2.42.02-4.85-.42-7.18-2.37,20.82,1.02,39.84,18.74,54.93-10.68-2.47-20.21-17.62-22.11-33.32-1.22-10.07.09-18.21,1.16-22.9.45-1.97,3.02-12.7,10.2-20.46.73-.79,2.79-3.01,3.44-2.61Z"/>
  <path class="cls-1" d="M93.36,152.56c-1.65-1.68-.34-5.37.05-6.55,2.7-8.17,3.02-17.29,7.36-38.15.39-1.86,2.24-4.86,3.3-4.81,1.87.08,4.38,1.7,5.35,3.4,6.17,10.77,1.42,30.96-5.81,40.69-1.09,1.46-5.04,6.77-8.62,6.2-.3-.05-1.05-.18-1.63-.77ZM105.2,107.84c-2.82,13.5-5.43,25.97-8.02,38.37,9.95-1.23,15.5-24.62,8.02-38.37Z"/>
  <path class="cls-1" d="M98.45,188.1c2.12-6.99,4.17-13.23,5.9-19.55,1.54-5.67,4.29-10.32,9.06-13.93,3.16-2.4,5.78-5.49,8.78-8.12.87-.76,2.55-1.64,3.24-1.28.89.47,1.67,2.17,1.58,3.26-.17,2.11-.52,4.46-1.62,6.19-6.51,10.19-13.09,20.36-20.08,30.22-1.3,1.83-4.61,2.22-6.85,3.22ZM123.95,153.01c-14.33,5.06-17.88,15.68-18.32,28.27,5.88-9.08,11.76-18.15,18.32-28.27Z"/>
  <path class="cls-2" d="M282.3,221.47c-1.85-5.58-4.3-9.48-10.89-9.82-10.42-.53-20.77-2.23-31.16-3.43-.21-.67-.43-1.33-.64-2,7.41-4.62,14.82-9.24,22.36-13.94,1.03,1.73,2.06,3.45,3.1,5.18.34-.12.68-.24,1.02-.36-.9-3.87-1.79-7.74-2.69-11.61.59-.27,1.17-.54,1.76-.81,12.2,8.98,17.29,23.82,28.34,35.26,4.27-4.33,8.75-8.87,13.23-13.41.41.29.82.58,1.23.87-1.06,2.29-2.11,4.58-3.17,6.87.17.36.34.71.51,1.07,3.09-1.54,6.98-2.39,9.1-4.79,3.6-4.08,6.89-7.97,12.65-7.95q.9-10.55,11.05-8.54c4.51.9,9.01,1.9,14.76,3.12-10.37,4.22-19.45,7.92-28.54,11.63.08.37.16.75.25,1.12,1.59-.32,3.24-.47,4.77-.98,7.11-2.36,14.16-4.87,21.27-7.21,10.01-3.3,20.03-5.33,29.73.92,1.14.74,1.97,1.97,2.67,3.5-18.03-1.98-33.89,5.9-51.12,9.1,7.08.92,13.61,1.76,20.5,2.66-1.5-3.78,1.42-4.68,4.25-5.64,9.01-3.05,17.85-3.83,27.35-.98,20.94,6.29,33.27,23.23,31.55,45.01-.19,2.46-.66,5-1.56,7.28-1.72,4.34-4.84,5.54-9.33,3.12-9.89-5.32-21.64-7.25-29.59-16.14-.33-.37-1.12-.32-3.07-.82,6.17,7.66-.05,10.86-3.66,14.9-1.66,1.86-3.51,3.55-5.29,5.31-7.99,7.88-17.49,12.16-28.82,11.45-8.28-.52-16.6-1.1-24.78-2.43-8.13-1.32-13.48-6.19-14.57-15.12-1.37,6.25,2.37,13.69,9.15,16.81,17.67,8.13,35.91,13.32,55.64,8.71.77-.18,1.58-.18,3.15-.34-1.89,7.99-8.35,10.53-14.21,13.64.14.39.29.77.43,1.16,2.83-.18,5.65-.36,9.85-.64-.57,2.17-.5,4.55-1.65,5.8-5.17,5.59-9,5.93-15.33,2.9,1.45,2.96,5.47,7.35,4.93,11.09-.61,4.22-5.31,7.84-8.03,11.45,5.95,1.71,8.1.52,12.09-7.49,5.69,8.04,2.24,12.81-10.47,15.33,2.21.16,4.42.49,6.62.43,2.29-.06,4.57-.49,7.29-.81.5,5.44-3.42,7.68-5.67,9.46,2.52,1.99,5.89,3.48,7.4,6.06,7.75,13.24,6.02,19.42-6.76,25.79-17.44,8.68-35.13,16.87-52.48,25.72-14.07,7.17-27.74,15.14-41.75,22.45-2.8,1.46-6.48,2.61-9.44,2.09-7.79-1.38-15.5-3.49-23.07-5.85-4.41-1.38-6.08-4.9-4.6-9.57.55-1.74.84-3.57,1.32-5.33,1.92-7.02,2.87-7.43,9.48-4.99,1.42.52,3.19.08,4.79-.47-13.48-8.03-16.39-15.13-12.04-30.17,2.43-8.41,4.93-16.8,7.36-25.03.37.39,1.43,1.51,2.52,2.66-.63-4.03-1.18-7.85-1.88-11.65-.13-.7-.7-1.53-1.31-1.9-8.04-4.82-9.16-13.34-12.42-22.33,4.17,5.43,7.46,9.72,11.29,14.71,1.22-2.2,1.79-3.23,2.36-4.27-10.11-6.58-14.56-14.48-12.38-22.67,1.54,2.51,2.62,4.95,4.32,6.83,1.48,1.64,3.65,2.66,5.9,3.34-8.43-7.46-10.17-16.6-7.92-27.2,2.75,6.7,3.31,15.1,12.57,16.5-8.53-2.4-7.65-10.09-9.72-17.13,3.38.64,6.07,1.44,8.79,1.6,16,.98,31.01-3.05,45.4-9.6,5.27-2.4,7.35-7.28,7.87-13.11-4.74,11.26-14.84,12.99-24.98,14.42-7.25,1.02-14.55,1.69-21.85,2.31-7.69.65-14.02-2.31-19.1-7.98-2.22-2.47-4.32-5.08-6.22-7.8-4.29-6.16-8.3-12.44-1.95-20.83-9.62,8.51-18.2,16.08-27.46,24.27,3.55-.76,6.28-1.57,9.07-1.89,8.29-.95,13.17,3.22,11.39,11.23-2.15,9.65-5.04,19.39-9.36,28.24-4.58,9.39-13.46,14.44-23.81,16.58-3.71.77-5.75-.43-6.26-4.22-.5-3.77-1.05-7.54-2.39-11.23.49,5.42.92,10.85,1.49,16.26.56,5.32,3.1,8.67,8.96,8.55.94-.02,1.89.31,3.92.67-3.88,6.65-7.24,12.91-11.16,18.79-1.09,1.64-3.76,2.5-5.88,3.13-3.56,1.05-7.49,1.08-10.85,2.52-10.71,4.6-21.33,4.22-31.82-.13-7.19-2.98-14.08-6.69-22.45-10.71,7.2-6.19,13.91-.8,20.96-1.73-4.71-1.25-8.67-2.23-12.59-3.37-5.48-1.58-7.15-4.53-5.91-11.41,10.29,4.37,17.91-1.34,26.1-6.52,9.97-6.3,20.71-6.52,32.27-.42,0-2.98.19-5.36-.03-7.7-1.47-16.06,5.74-28.13,16.92-38.77,1.93-1.83,2.57-5.95,2.38-8.91-.73-11.2.68-21.96,5.04-32.29,4.54-10.77,11.34-19.93,22.26-24.57,5.62-2.39,12.16-2.86,18.36-3.54,3.52-.38,6.23,1.67,6.7,5.67.31-.05.81.01.92-.16,4.23-7.07,10-6.91,17.31-5.09,6.66,1.66,13.87,1.21,20.84,1.55,5.61.27,11.08.49,13.92,6.68.45.98,2.18,1.38,3.33,2.05ZM298.16,319.21c1.62.38,3.33.54,4.85,1.17,6.55,2.69,13.21,5.19,19.49,8.41,3.99,2.05,6.83,5.54,5.12,10.69-1.74,5.21-6,6.22-10.78,6.27-2.3.02-4.61,0-6.91,0,15.18,3.74,21.16,9.71,8.35,23.32,3.66-1.98,6.11-3.31,8.79-4.75-.16,1.92-.27,3.31-.38,4.69.48.05.97.09,1.45.14.53-4.81,1.85-9.7,1.38-14.41-.46-4.65-.42-8.71,1.66-13,1.13-2.33,1.9-5.81.97-7.97-4.57-10.64-22.51-18.51-33.99-14.55ZM292.35,296.82c-.23-.09-.47-.18-.7-.26-.32,1.08-.74,2.15-.96,3.26-3.29,16.59-2.33,12.84-16.85,16.95-6,1.7-11.53,5.46-16.86,8.93-2.18,1.42-4.31,4.28-2.19,7.98,7.74-15.67,22.04-13,35.96-13.1.54-8.03,1.06-15.89,1.59-23.76ZM230.22,338.78c1.27,2.06,2.36,4.26,3.85,6.14,3.88,4.89,10.67,7.5,14.96,5.37,5.11-2.54,4.43-7.89,5.86-13.11-13.23,11.4-17.2,11.46-24.68,1.6ZM288.79,350.93c1.16-8.12,2.23-15.54,3.29-22.96-.4-.06-.8-.12-1.19-.18-.32,1.94-.54,3.91-.96,5.82-1.78,7.97-2.94,8.94-11.08,10.23-2.92.46-5.78,1.32-8.67,2,6.22,1.27,13.15-2.31,18.62,5.09ZM278.53,375.21c2.91,3.95,5.83,5.67,9.46,3.69,1.01-.55,1.58-1.88,2.36-2.85-.98-.75-1.99-2.16-2.94-2.12-2.97.13-5.92.81-8.88,1.28ZM146.75,350.71c7.03,1.86,12.89.29,17.12-6.07-5.71,2.02-11.41,4.04-17.12,6.07ZM252.93,354.75c-.54-.06-1.09-.12-1.63-.18-3.99,6.93-5.1,14.17-2.53,20.97,1.29-6.45,2.72-13.62,4.16-20.79ZM239.18,405.37c1.39,8.15,4.76,15.24,11.95,20.02-3.98-6.67-7.97-13.35-11.95-20.02ZM228.56,280.85c3.56.48,6.16-1.67,6.23-3.36.07-1.64-2.19-3.9-5.6-3.91-1.89-.09-3.52,1.04-3.96,2.55-.56,1.92.86,4.3,3.34,4.73ZM238.93,330.36c.34-.21.68-.42,1.01-.63-1.17-2.32-2.35-4.65-3.59-7.09-2.23,1.94-4.05,3.52-5.86,5.1.18.29.36.57.54.86,1.49-.66,2.98-1.33,4.6-2.04,1.05,1.21,2.17,2.51,3.29,3.81Z"/>
  <path class="cls-2" d="M363.73,879.48c-1.77,1.91-3.05,2.24-3.94,2.1-.93-.14-1.68-.82-2.25-.44-.55.36-.3,1.27-1.01,1.73-.36.23-.75.21-.97.2-2.23-.12-5.96-5.43-7.34-4.92-.87.32,0,2.65-1.02,4.47-1.44,2.58-5.97,2.85-10.1,2.56-.87-.06-3.24-.62-5.58-2.4-2.97-2.25-4.86-5.84-6.08-12.95-2.17-12.67-.18-24.66-.93-33.2-.11-1.29-.24-2.76-.66-4.73-.8-3.78-1.69-4.83-2-7.18-.44-3.36.66-6.04,1.21-7.2,7.61-15.97,4.85-32.7,3.99-49.2-.89-17.03-4.76-33.55-10.46-49.69-5.86-16.62.02-31.98,5.38-47.28.73-.15,1.47-.29,2.2-.44,1.79,4.96,4.85,9.85,5.13,14.9.61,11.25-.24,22.58-.36,33.88-.1,9.12-.02,18.25.57,27.45.57-7.49,1.23-14.98,1.7-22.47.56-8.98.48-18.02,1.54-26.94,1.86-15.68-4.96-28.56-12.5-41.18-3.82-6.4-6.55-16.81-4.5-22.42,3.39,3.66,6.69,7.23,10.7,11.57,0-2.46.56-4.25-.09-5.15-4.78-6.58-4.01-15.69-10.41-21.6-10.13-9.36-9.37-21.1-5.67-32.85,1.02-3.24,3.99-6.1,6.62-8.53,4.36-4.01,6.68-8.73,6.38-14.56-.24-4.72,1.32-8.63,4.88-11.48,4.65-3.72,9.43-7.35,14.49-10.48,5.36-3.33,11.15-5.95,16.67-9.03,6.63-3.69,12.3-1.11,12.8,6.71.44,6.93-.04,13.99-.85,20.91-1.25,10.6-3,21.25-8.88,30.45-2.74,4.27-6.41,8.06-10.15,11.52-1.5,1.39-4.34,1.32-6.98,2.03,1.08,1.84,2.47,4.78,4.37,7.34,4.98,6.69,5.67,13.77,2.17,21.16-2.31,4.87-2.07,9.6-1.87,14.9.36,9.4-1.19,18.88-2.03,28.32-.4,4.46-1.02,8.9-.55,13.6,2.36-8.59,4.72-17.18,7.08-25.77.4-.08.8-.15,1.19-.23,1.4,3.45,2.8,6.9,4.21,10.35-1.61-7.22-3.11-14.34.32-21.42,11.79,15.73,13.19,51.73,3.57,69.4,0-5.34.07-12.15-.03-18.96-.06-4.48-.37-8.96-.84-13.46,2.01,34.6-8.57,67.21-15.87,100.3-2.58,11.67-2.23,22.74,2.28,33.76.78,1.91,1.02,4.04,1.7,6.87-3.19-.22-5.57-.38-9.33-.64,10.39,15.82,20.31,30.94,30.24,46.05-.12.2-.32.46-.63.67-.6.38-.98.14-1.46.38-.79.4-.36,1.4-1.2,2.28-.53.55-1.44.93-2.26.8-.85-.14-1.2-.77-1.81-.6-.4.11-.65.48-.79.76ZM329.45,653.2l-1.9.99c3.89,6.9,7.78,13.8,11.66,20.71,1.55-9.76-4.38-15.59-9.76-21.7Z"/>
  <path class="cls-2" d="M465.66,502.65c1-2.12,1.89-4.31,3.02-6.36,3.35-6.03,7.15-11.91,2.18-18.99-.5-.72.71-2.57,1.01-3.93.36-1.61.59-3.25.99-5.55-6.94,2.46-9.5,6.11-10.1,11.63-.39,3.57-1.45,7.12-2.67,10.51-.36,1.01-2.25,1.48-3.44,2.2-.51-1.14-1.67-2.45-1.43-3.4,1.69-6.77.03-13.57.46-20.17.35-5.39,3.91-11.53,7.88-15.52,5.99-6.03,7.01-11.91,4.11-19.34-1.93-4.93-3.49-10-5.83-14.89v3.91c-.49-.23-1.04-.3-1.22-.6-5.63-9.48-13.64-16.36-22.31-23.15-10.09-7.9-14.96-19.76-16.76-32.53-.57-4.07-.47-8.24-.71-12.89,2.82.42,5,.74,7.17,1.07.16-.27.32-.55.48-.82-5.18-3.66-10.36-7.32-15.54-10.99.33-.54.66-1.08.99-1.62,5.42,2.05,10.83,4.1,17.37,6.58-.44-11.26,3.2-21.41-1.79-31.56-.59.53-.98.73-.96.88.69,6.2-1.16,11.37-6.79,14.38-5.62,3.01-11.95,2.81-16.5-1.23-5.35-4.76-10.22-10.51-13.81-16.7-5.31-9.15-7.61-19.53-8.08-30.15-.49-10.94,4.93-15.45,15.33-11.94,6.01,2.03,11.53,5.66,17.09,8.87,3.37,1.95,5.89,1.93,7.93-2.24,8.36,8.26,13.57,17.56,13.52,29.16-.02,4.55,1.01,7.89,4.71,11.04,19.39,16.49,25.55,38.12,23.68,62.77-.4,5.3-.06,10.66.49,16.04.83-6.5,1.66-13,2.69-21.1,3.49,9.63,6.61,17.86,9.45,26.19,3.93,11.5,7.69,23.06,11.43,34.62,1.08,3.33,2.14,6.74-1.55,9.47-.54.4-.44,2.14-.15,3.12,2.96,9.92,3.22,20.32-.82,29.41-3.74,8.42-10.55,15.5-16.21,23.01-.8,1.06-2.78,1.25-4.21,1.84-.37-.34-.74-.67-1.11-1.01Z"/>
  <path class="cls-2" d="M362.1,385.8c-5.22,4.59-10.26,9.38-15.67,13.72-26.27,21.07-55.47,37.33-85.65,51.98-2.21,1.07-4.33,2.3-6.38,3.66,48.23-11.67,83.76-43.28,120.23-75.37-.66,2.97-.52,6.51-2.15,8.79-4.23,5.93-8.56,12.1-14.07,16.72-10.44,8.74-21.73,16.49-32.7,24.6-2.79,2.07-5.72,3.94-8.59,5.91.2.36.41.73.61,1.09,5.36-3,11.25-5.33,15.96-9.13,12.16-9.8,23.87-20.17,35.61-30.49,2.34-2.05,4.15-4.78,5.9-7.4,2.5-3.73,4.03-7.62,1.24-12.09-.76-1.22-.53-3.06.17-4.98,1.96,2.82,3.93,5.64,6.37,9.15-1.86,13.44-12.18,22.29-22.07,31.08-7.67,6.82-16.35,12.51-24.4,19.08,14.28-7.81,31.03-10.53,43.99-21.46-3.15,11.13-12.92,14.86-21.96,19.41.21.48.41.96.62,1.44,7.41-2.98,14.82-5.96,22.24-8.95l.95,1.04c-1.56,1.46-2.87,3.51-4.71,4.27-7.69,3.17-15.37,6.5-23.35,8.75-16.74,4.73-31.99,12.49-46.15,22.27-19.29,13.33-40.09,23.75-61.14,33.83-13.2,6.32-26.94,11.73-38.22,21.46-3.39,2.93-6.63,6.02-9.95,9.05-3.14-3.87-3.05-9.53,1.74-13.62,6.78-5.79,14.11-11.14,21.85-15.57,15.3-8.75,31.18-16.47,46.5-25.19,6.13-3.49,11.42-8.46,17.09-12.76-.26-.43-.52-.86-.78-1.29-3.15,1.62-6.34,3.14-9.43,4.86-16.47,9.17-33.94,14.69-52.95,14-4.92-.18-9.92-1.19-14.65-2.6-4.13-1.23-6.58-4.33-5.38-10.09,10.26,4.63,20.64,7.36,31.8,5.35-3.09-.69-6.17-1.37-8.36-1.86,25.31-13.91,51.01-28.03,76.71-42.15-.23-.46-.45-.93-.68-1.39-1.45.74-2.91,1.48-4.36,2.23-23.03,12.01-46.09,23.97-69.08,36.07-6.51,3.43-13.21,4.16-18.69-.74-4.56-4.08-8.96-9.25-11.14-14.84-2.89-7.42,1.01-13.83,7.52-18.73-2.11,11.65,4.95,18,13.37,23.04,2.14,1.28,6.16.75,8.78-.28,29.04-11.46,55.75-27.6,83.41-41.86,14.33-7.39,29.25-13.64,43.93-20.35,1.45-.66,3.06-.96,4.59-1.43.5.58,1,1.16,1.5,1.74Z"/>
  <path class="cls-2" d="M281.7,521.04c-11.52,31.98-24.87,62.51-60.14,77.65,10.15-.94,18.67-2.51,25.71-8.06,6.62-5.21,12.86-10.92,19.01-16.2-2.46,9.43-15.7,22.49-31.99,31.06,3.95,2.25,7.66,4.35,11.71,6.65-1.16.37-2.24.71-2.87.91.21.99.18,2.03.64,2.79.86,1.43,2.01,3.82,2.99,3.8,1.76-.03,4.42-1.12,5.1-2.53,6.61-13.81,13.47-27.54,19.13-41.75,8.37-21,15.82-42.36,23.67-63.56.57-1.55,1.26-3.05,2.6-4.39-1.99,10.08-4.02,20.15-5.97,30.24-5.45,28.11-10.9,56.22-16.24,84.35-.54,2.85-1.68,4.34-4.65,4.87-11.57,2.07-22.74,2.04-33.6-3.54-7.69-3.95-15.72-7.27-23.74-10.51-6.91-2.79-13.91-5.97-22.39-2.22-1.21-8.66,1.1-15.92,6.51-21.03,7.06-6.66,14.99-12.66,23.33-17.62,11.05-6.58,22.86-11.88,33.87-17.49-5.92,10.67-14.78,20.31-24.02,29.68,11.96-7.33,20.53-18.07,28.52-29.22,7.93-11.06,15.24-22.58,22.82-33.89Z"/>
  <path class="cls-2" d="M421.71,687.8c-5.16-2.99-9.23-4.9-12.7-7.59-1.29-1-1.63-3.83-1.61-5.81.34-34.65.35-69.3,1.33-103.93,1.5-52.78,3.64-105.54,5.66-158.3.19-5.02,1.53-10,2.34-15,.63,0,1.27,0,1.9,0,.44,1.78,1.29,3.57,1.26,5.35-.6,36.97-1.22,73.94-2.01,110.91-.42,19.82-1.05,39.63-1.83,59.44-.39,9.96,2.62,18.13,10.13,24.94,5.91,5.35,6.22,7.04.26,12.56-7.26,6.72-8.98,14.38-8.04,23.67,1.4,13.75,2.29,27.55,3.27,41.34.26,3.62.04,7.28.04,12.43Z"/>
  <path class="cls-2" d="M365.53,455.04c-3.15,5.55-6.3,11.11-9.45,16.68,8.36-5.91,10.27-16.15,15.84-24.69,3.13,6.32,3.01,12.27,2,18.32-1.84,11.02-7.04,20.38-14.36,28.62-5.72,6.45-11.61,12.74-17.07,19.65,2.48-2.01,4.97-4,7.43-6.03,2.56-2.12,4.93-4.52,7.67-6.37,2.88-1.94,5-1.14,5.65,2.58,2.12,12.11-1.39,18.47-12.09,24.54-8.63,4.9-16.71,10.78-25.03,16.23-.64.42-1.28.84-1.47.97-5.38-38.53,6.19-69.81,39.88-91.29.34.27.67.53,1.01.8ZM369.75,460.26c-.37-.19-.74-.39-1.11-.58-2.73,6.16-5.47,12.32-8.2,18.48.44.19.88.37,1.32.56,2.66-6.15,5.33-12.3,7.99-18.45Z"/>
  <path class="cls-2" d="M75.49,348.26c12.07,129.43,35.27,257.41,43.63,387.1-.52.23-1.05.47-1.57.7-.76-1.48-1.99-2.9-2.2-4.46-1.71-12.71-3.24-25.45-4.8-38.18-7.49-60.84-15.04-121.67-22.43-182.53-5.65-46.47-11.11-92.96-16.62-139.45-.69-5.79-1.19-11.6-1.85-17.39-.38-3.31.38-5.66,5.85-5.78Z"/>
  <path class="cls-2" d="M324.25,462.77c-.26,2.25-.52,4.5-.78,6.75,6.07-10.23,15.31-16.5,25.75-23.01-.28,2.04-.39,2.89-.5,3.66,4.68-2.94,9.37-5.88,14.06-8.83.35.29.7.57,1.05.86-.76,1.49-1.29,3.16-2.31,4.43-4.77,5.97-8.91,12.76-14.68,17.56-24.09,20.06-28.45,46.58-25.71,75.48.68,7.21.83,13.56-5.68,18.31-2.58,1.88-1.8,4.01-.29,6.47,3.29,5.38,2.94,6.16-2.57,9.18-2.76,1.51-5.52,3.04-8.46,4.67,1.15-10.43,2.19-20.71,3.43-30.97,2.57-21.31,5.14-42.63,7.95-63.91.65-4.92,2-9.79,3.55-14.51.8-2.43,2.75-4.49,4.19-6.71.33.19.67.38,1,.57Z"/>
  <path class="cls-2" d="M257.29,125.94c3.13,3.57,5.81,6.62,2.31,10.61,2.52,3.63,4.6,2.39,7.08.14,2.11-1.9,4.72-3.23,7.65-5.16h-11.17c1.84-2.39,2.83-3.67,4.07-5.27-6.25-7.11-10.23-14.69-2.05-23.42-.24,1.88-.47,3.75-.77,6.15,3.26,2,6.78,5.57,12.18,1.56.99-.74,5.93-.12,5.41,4.36.16-.83.35-1.67.47-2.5,1.6-10.77.85-11.76-10.09-12.56-2.95-.22-5.92-.03-9.94-.03,1.23-2.66,1.76-5.69,3.56-7.38,13.62-12.74,35.47-9.89,44.22,6.26-5.38.63-10.6,1.27-15.84,1.84-3.31.36-5.05,1.98-5.08,5.48-.03,4.15-.22,8.3-.5,12.44-.13,1.84-.06,4.48-1.15,5.26-1.29.92-3.74.22-6.74.22-.28.4-1.29,1.84-2.34,3.34.63.29.93.58,1.16.52,1.56-.39,3.1-.85,4.64-1.29-.95,1.42-1.72,3.01-2.87,4.22-5,5.24-10.11,10.38-15.41,15.79,7.08,6.6.63,10.4-1.71,14.71-1.49,2.74-3.1,6.57-8.05,4.73.1-.95.19-1.9.29-2.85-.18.52-.49,1.27-1.08,2.03-.41.53-.64.67-.86.99-.39.58-.63,1.61.13,3.61-.8-.91-2.79-3.44-2.44-6.58.14-1.22.58-2.1,1.2-3.33,1.48-2.92,2.91-3.67,4.39-6.03,1.34-2.13,1.98-4.14,2.31-5.49-.76,1.23-1.83,2.67-3.29,4.11-2.75,2.7-5.66,4.13-7.6,4.88.97-2.28,1.94-5,2.72-8.11.61-2.43.99-4.69,1.24-6.71-.54-.13-1.08-.26-1.62-.39.88-.43,2.42-1.32,3.69-3.04.71-.96,1.13-1.9,1.37-2.62-.28.32-1.09,1.17-2.45,1.46-.9.19-1.65.06-2.06-.05-.37-.22-.73-.43-1.1-.65,1.95-3.58,3.89-7.16,6.1-11.22Z"/>
  <path class="cls-2" d="M280.79,612.4c5.78-33.06,11.16-65.57,17.29-97.94,2.43-12.85,6.23-25.49,10.1-38,1.15-3.73,4.65-6.73,7.08-10.07.54.33,1.09.65,1.63.98-1.11,4.59-2.61,9.12-3.26,13.77-3.85,27.53-7.51,55.08-11.2,82.63-.97,7.24-1.88,14.49-2.71,21.75-.24,2.14-.61,4.45-.05,6.45,1.36,4.9-.69,7.78-4.6,10.31-4.73,3.06-9.22,6.51-14.27,10.11Z"/>
  <path class="cls-2" d="M210.99,677.19c-1.36-1.74-2.84-3.4-4.05-5.24-2.07-3.13-3.69-6.61-6.03-9.51-3.85-4.77-5.83-9.86-5.27-16.09.75-8.22,1.34-16.46,1.53-24.71.18-7.78,2.43-10.02,9.25-6.47,8.93,4.65,17.21,10.54,25.71,16,.89.57,1.7,1.71,1.97,2.73,1.34,5.11-4.2,16.61-9,18.99-4.92,2.44-7.65,1.48-14.18-4.29,1.08,2.08,1.92,4.33,3.28,6.21,3.75,5.14,3.73,6.08-1.22,9.88-.91.7-1.89,1.31-2.91,2.01,1.15,3.15,2.26,6.21,3.37,9.26-.82.41-1.64.82-2.46,1.23Z"/>
  <path class="cls-2" d="M426.6,422.17c.23,3.62.62,7.24.66,10.87.42,37.95.81,75.91,1.11,113.86.02,2.62-.43,5.33-1.18,7.84-1.34,4.49-.23,8.01,3.72,10.29,3.69,2.13,4.75,5.17,4.65,9.16-.15,6.24-.04,12.49-.04,20.25-5.38-5.3-10.53-9.01-13.74-13.98-2.29-3.55-2.78-8.8-2.7-13.27.42-24.47,1.06-48.93,2.02-73.38.86-21.78,2.21-43.54,3.4-65.31.12-2.11.63-4.2.96-6.29.38-.01.76-.02,1.14-.04Z"/>
  <path class="cls-2" d="M194.04,582.44c-4.34-8.26-.06-17.07,8.31-18.47.59-.1,1.4.29,1.82.02,9.41-6.12,19.01-11.98,28.11-18.54,17.48-12.59,31.48-28.53,43.41-46.39,2.84-4.25,6.49-7.97,9.77-11.93.5.33,1,.66,1.49.99-.2,1.01-.2,2.13-.64,3.02-9.66,19.47-20.5,38.23-36.85,52.94-7.12,6.41-15.18,11.83-23.1,17.3-9.3,6.41-18.9,12.38-28.38,18.54-1.23.8-2.47,1.58-3.96,2.53Z"/>
  <path class="cls-2" d="M399.08,604.13c.67,8.39,1.67,16.77,1.93,25.18.52,16.8.87,33.62.77,50.43-.03,5.4,3.18,8.25,6.4,11.2,3.32,3.04,3.4,5.66.47,8.81-1.59,1.7-3.1,3.5-4.46,5.38-4.41,6.1-8.73,12.25-12.64,17.76-2.66-5.98,2.36-108.3,7.53-118.76Z"/>
  <path class="cls-2" d="M216.22,890.96c-6.03,4.28-13.09,1.4-26.53,1.5-7.94.06-12.44,1.12-14.85-1.95-1.56-1.97-1.35-4.51-1.32-4.84.14-1.48.93-4.45,6.54-7.9,7.22-4.44,15.8-5.59,25.13-6.31,20.45-1.57,29.22.13,35.09,1.8,3.92,1.12,10.75,3.06,10.78,5.75.03,2.99-8.41,5.84-14.33,6.82-1.43.24-3.62.52-8.83.44-13.88-.21-18.84-2.52-29.98-1.6-3.5.29-7.17.86-7.15,1.07.02.23,3.97-.06,9.18.06,3.11.07,17.39.4,17.78,3.2.08.59-.46,1.21-1.5,1.95Z"/>
  <path class="cls-2" d="M302.74,183.24c0-1.17-.39-2.53.07-3.48,2.16-4.5.07-7.49-3.54-9.53-5.63-3.19-8.48-7.68-7.93-14.3-2.85,4.58-1.58,8.96.94,12.89,2.68,4.18,2.28,7.48-1.61,10.34-2.9,2.13-2.1,3.84,0,6.03,2.35,2.45,1.59,3.97-1.6,4.21,0,1.1.09,2.47-.1,3.79-.03.18-2.01.43-2.13.19-.68-1.38-1.21-2.88-1.49-4.4-.25-1.36.47-3.33-.25-4.1-4.9-5.3-1.95-10.1.44-15.1.87-1.82,1.18-3.91,1.75-5.88-.47-.17-.95-.33-1.42-.5-1.88,3.24-4.1,6.34-5.5,9.78-.76,1.87-.14,4.31-.11,6.49.02,1.15.1,2.29.16,3.44-1.29-.46-2.95-.57-3.81-1.45-1.98-2.04-2.53-11.11-.57-13.16,5.29-5.51,5.73-10.69.45-16.54-.97-1.07-.67-4.01.03-5.67.8-1.88,2.48-3.59,4.18-4.84,2.63-1.94,4.83-5.09,9.06-3.44,5.33,2.07,9.14,5.5,10.58,11.03.36,1.36-1.03,3.09-1.03,4.65,0,3.15-.78,7.17.82,9.28,4.8,6.36,6.32,12.79,2.62,20.26Z"/>
  <path class="cls-2" d="M238.9,506.55c-3.18,3.74-5.58,6.57-8.51,10.02,7.83-5.18,14.99-9.93,22.15-14.67.35.51.7,1.01,1.05,1.52-14.68,18.47-32.93,32.67-53.48,43.92-2.64-13.62,2.26-23.92,14.26-31.03,7.3-4.33,14.69-8.35,24.53-9.76Z"/>
  <path class="cls-2" d="M433.01,551.28v-122.02c.62-.07,1.23-.14,1.85-.21.43,2.55,1.04,5.08,1.25,7.65,1.52,18.1,3.02,36.2,4.41,54.3,1.13,14.78,2.27,29.57,3.06,44.37.52,9.73-1.48,12.27-10.57,15.92Z"/>
  <path class="cls-2" d="M455.67,520.28c5.21,2.96,6.97,6.75,7.14,11.61.66,19.11,1.99,38.23,1.79,57.33-.05,4.9-4.76,9.79-7.57,14.53-.16.27-3.25-.43-3.84-1.38-.78-1.25-.6-3.21-.56-4.86.58-22.78,1.19-45.56,1.88-68.33.08-2.77.71-5.52,1.16-8.9Z"/>
  <path class="cls-2" d="M196.94,563.98c-5.58-5.95-5.11-8.89,1.76-13.06,13.05-7.92,26.3-15.56,38.89-24.16,7.89-5.39,14.77-12.27,22.06-18.53,2.72-2.33,5.33-4.79,7.99-7.19.43.29.85.57,1.28.86-.81,1.77-1.36,3.73-2.47,5.28-11.03,15.4-23.88,29-40.05,39.11-9.7,6.07-19.62,11.79-29.46,17.68Z"/>
  <path class="cls-2" d="M320.12,839.08c-10.08-.91-20.09-1.81-31.14-2.81,2.78-10.39-5.13-17.12-9.32-25.4-.62-1.22-1.12-2.5-1.71-3.73-2.4-5-4.04-7.54-4.28-11.35-.07-1.15-.13-2.28.38-2.52.97-.44,3.03,2.72,6.96,7.1.49.55-.03.2,5.63,5.73,5.32,5.2,10.65,10.4,16.27,15.27,1.92,1.67,4.6,2.73,7.11,3.43,9.19,2.54,11.36,5.73,10.11,14.29Z"/>
  <path class="cls-2" d="M423.47,859.01c.12,1.77-4.55,3.32-9.01,4.97-12.2,4.5-11.15,5.4-20.08,8.02,0,0-6.03,1.77-13.74,1.59-1.32-.03-3.33-.15-5.03-1.51-1.24-.98-2.05-2.43-2.53-4.25-2.77-10.51-3.4-9.63,5.71-11.75,13.56-3.16,27.37-3.43,41.01.31.89.24,1.69.82,2.53,1.24.52.31,1.11.77,1.16,1.38Z"/>
  <path class="cls-2" d="M405.85,535.52c-6.03-48.33-1.39-96.5,2.42-144.68l1.83.03-2.65,144.7c-.54-.02-1.07-.03-1.61-.05Z"/>
  <path class="cls-2" d="M450.57,877.93c.39,5.62-35.49,9.92-50.05,7.34-5.02-.89-6.02-2.33-6.25-3.22-.62-2.36,3.01-5.18,4.15-6.07,8.22-6.39,19.1-5.73,32.88-4.84,2.07.13,5.53.4,9.77,1.79,4.88,1.59,9.36,3.05,9.5,5.01Z"/>
  <path class="cls-2" d="M34.37,173.13c-5.1-5.33-4.86-11.58-3.26-17.23,2.21-7.77,5.2-15.47,8.96-22.62,4.89-9.31,10.42-18.22,11.75-28.95,5.49,6.42,6.09,21.05.99,29.46-2.06,3.41-4.51,6.61-6.99,9.73-6.28,7.91-10.19,16.74-10.88,26.9-.05.78-.32,1.54-.57,2.71Z"/>
  <path class="cls-2" d="M378,445.45c4.32,4.63,19.51,101.17,17.29,106.49-3.01-7.88-7.95-13.97-8.19-22.99-.36-13.4-3.58-26.71-5.11-40.11-1.59-13.99-2.61-28.05-3.99-43.39Z"/>
  <path class="cls-2" d="M372.8,480.26c3.66,16.22,7.19,31.84,10.91,48.34-6.36-1.56-11.75-2.73-17-4.32-.73-.22-1.16-2.48-1.19-3.81-.14-5.65.33-11.33-.17-16.94-.76-8.62,1.85-15.97,7.45-23.26Z"/>
  <path class="cls-2" d="M201.25,504.05q-2.54-5.22,2.29-12.38c-2.33-3.19-6.04-6.15-6.45-9.51-.33-2.8,3.23-6.06,5.72-10.22,1.53,1.91,2.65,3.74,4.17,5.12,4.92,4.48,10.07,6.92,17.18,4.09,4.62-1.84,10.01-1.72,15.22-1.83-12.6,8.17-25.2,16.34-38.15,24.73Z"/>
  <path class="cls-2" d="M283.94,889.21c-5.24,3.27-31.6,4.03-37.19,1.07,5.34-7.32,24.23-11.09,37.19-1.07Z"/>
  <path class="cls-2" d="M83.46,217.51c-11.18,1.38-22.37,2.64-33.52,4.18-5.25.72-10.42,2.03-15.65,2.91-1.22.2-2.56-.26-3.84-.42.89-1.19,1.57-3.1,2.71-3.44,5.71-1.71,11.47-3.48,17.34-4.34,10.93-1.61,21.96-2.71,32.92-.14.01.42.03.84.04,1.26Z"/>
  <path class="cls-2" d="M312.08,109.65c1.53,5.2-1.55,8.61-3.84,12.31-1.09,1.76-2.4,3.65-2.66,5.62-.52,3.86-2.56,3.81-5.25,2.66-7-2.99-8.28-13.83-2.24-18.63,5.93,4.33,8.01,4.08,13.99-1.95Z"/>
  <path class="cls-2" d="M79.54,325.41c-8.88.32-16.62.73-24.35.74-1.18,0-3.25-1.82-3.32-2.9-.12-1.74.66-3.96,1.86-5.25,1.11-1.2,3.4-2.23,4.93-1.95,6.09,1.1,12.14,2.58,18.08,4.32,1.02.3,1.47,2.53,2.81,5.03Z"/>
  <path class="cls-2" d="M122.94,799.45c-1.28-10.58-2.49-20.59-3.73-30.86,4.52-1.05,6.75-.09,7.22,4.64.82,8.22,2.14,16.39,3.29,24.86-2.41.48-4.31.86-6.77,1.35Z"/>
  <path class="cls-2" d="M251.94,72.51c1.12.26-.14,4.92,2,6.28.96.61,2.34.66,5.92-1.21,3.05-1.6,6.22-3.58,9.52-4.01,9.87-1.27,14.85-7.53,18.08-16.02.29-.76.62-1.49.97-2.31,3.93,4.15,3.94,6.08.18,9.81-.12.12-.24.23-.36.34-4.3,3.85-6.94,9.13-14.21,9.9-5.1.54-9.64,5.38-14.7,7.73-2.94,1.36-5.23,1.32-7.06.21-2.21-1.34-3.24-4.35-2.81-6.85.35-2.02,1.71-4.04,2.47-3.86Z"/>
  <path class="cls-2" d="M72.77,313.99c-2.6,0-4.49.14-6.36-.03-4.36-.39-8.72-.88-13.07-1.46-1.01-.13-2.66-.66-2.77-1.25-.26-1.33-.18-3.08.52-4.18,3.09-4.85,16.34-6.01,19.93-1.44,1.46,1.86,1.14,5.11,1.75,8.36Z"/>
  <path class="cls-2" d="M56.71,255.83c-2.1-5.38-4.06-10.43-6.38-16.38,4.02-.64,7.7-1.34,11.42-1.7.69-.07,2.07,1.17,2.2,1.96.75,4.67,1.22,9.39,1.81,14.25-3.29.68-5.97,1.23-9.05,1.87Z"/>
  <path class="cls-2" d="M215.05,431.1c-.13-1.08-.26-2.17-.28-2.34,9.71,2.97,19.47,5.95,29.71,9.08-4.12,1.74-8.1,3.69-12.27,5.03-1.35.43-3.34-.49-4.8-1.24-2.49-1.27-4.8-2.89-7.18-4.36-1.73-2.06-3.45-4.12-5.18-6.17Z"/>
  <path class="cls-2" d="M85.43,312.55c-2.85-1.25-6.05-1.86-7.99-3.76-1.42-1.39-1.93-4.64-1.44-6.74.33-1.41,3.41-3.42,4.75-3.09,3.63.88,7.31,2.44,10.3,4.64,1.09.8,1.02,4.58.11,6.26-.77,1.41-3.52,1.74-5.73,2.69Z"/>
  <path class="cls-2" d="M273.37,150.74c1,.99,3.43,3.7,3.42,7.4,0,2.29-.94,4.01-2.11,6.17-2.35,4.33-4.15,4.75-5.19,7.35-.77,1.91-1.13,5.02,1.3,10-.93.04-3.3.02-5.68-1.48-2.58-1.63-4.13-4.36-4.42-6.98-.32-2.94.75-5.41,2.65-7.86,3.42-4.39,6.34-9.18,10.03-14.6Z"/>
  <path class="cls-2" d="M313.51,148.1c.25,4.06.54,7.29.47,10.51,0,.3-2.27.56-3.62.87-.08,1.73-.18,4.03-.25,5.67-.79-.02-3.92-.2-5.99-2.63-.44-.51-1.25-1.47-1.38-2.82-.11-1.22.34-2.69,3.33-5.71,1.61-1.63,4.04-3.8,7.44-5.89Z"/>
  <path class="cls-2" d="M78.4,338.3c1.2,4.03.14,5.38-2.93,5.57-2.14.14-4.28.65-6.37,1.18-3.72.94-7.76,1.71-5.78,7.48-4.95-.28-5.86-3.35-6.17-6.79-.32-3.54,2.15-4.51,4.99-4.96,5.39-.84,10.78-1.65,16.25-2.49Z"/>
  <path class="cls-2" d="M67.97,329.9c2.65,0,5.34-.26,7.93.12,1.17.17,2.17,1.59,3.24,2.45-.92.8-1.77,2.18-2.78,2.31-5.9.8-11.83,1.54-17.77,1.75-1.43.05-2.92-1.99-4.39-3.06,1.28-1.06,2.44-2.76,3.88-3.05,3.22-.66,6.58-.62,9.88-.86,0,.12,0,.24.01.35Z"/>
  <path class="cls-2" d="M440.2,622.61c2.09,1.68,3.58,2.87,5.76,4.61.25-2.34.09-4.21.73-5.73.51-1.2,2.11-2.81,3.07-2.71,1.11.11,3.05,2.09,2.89,2.93-.89,4.74-2.31,9.38-3.63,14.36-6.12-3.43-9.17-8.16-8.82-13.46Z"/>
  <path class="cls-2" d="M81.19,211.04c-14.87,1.64-29.68,3.27-44.86,4.95,4.68-5.68,36.63-8.97,44.86-4.95Z"/>
  <path class="cls-2" d="M111.65,875.32c-.34,3.76-.73,6.87-.88,10-.16,3.32-2.03,3.96-4.69,3.12-3.61-1.14-6.25-3.53-6.16-7.49.08-3.72,3.16-4.72,6.28-5.18,1.61-.24,3.25-.27,5.46-.44Z"/>
  <path class="cls-2" d="M282.68,76.94c2.2-4.65,5.31-8.11,10.51-9.16.97-.2,1.97-.22,2.97-.3,6.42-.5,12.32-1.72,12.78-11.22,2.49,6.76,0,12.36-5.13,14.14-1.71.59-3.54,1.13-5.31,1.14-5.87.04-11.33,1.02-15.81,5.4Z"/>
  <path class="cls-2" d="M363.94,312.53c.23,5.6-7.93,12.3-11.63,10.72-1.26-.54-2.3-2.36-2.71-3.8-.25-.89.58-2.61,1.44-3.2,2.73-1.86,5.59-3.69,8.65-4.86,1.23-.47,3.13.8,4.25,1.14Z"/>
  <path class="cls-2" d="M68.59,303.13c-1.09-1.63-2.75-3.12-3.17-4.91-1.3-5.46-2.21-11.02-3.01-16.58-.11-.74,1.29-2.3,2.13-2.41.87-.12,2.65.94,2.77,1.69,1.2,7.13,2.13,14.31,3.14,21.47-.62.25-1.24.49-1.86.74Z"/>
  <path class="cls-2" d="M75.84,228.56c-11.79,1.28-23.58,2.57-36.58,3.98,5.18-4.95,27.13-7.41,36.58-3.98Z"/>
  <path class="cls-2" d="M138.29,820.67c-6.34,3.27-13.28,4.27-20.36,4.49-.66.02-1.84-1.53-1.91-2.42-.07-.88.88-2.58,1.52-2.65,6.79-.74,13.61-1.23,20.42-1.79.11.79.22,1.58.34,2.37Z"/>
  <path class="cls-2" d="M260.79,73.36c4.28-3.91,1.03-11.47,8.23-13.72-.26,3.96.49,5.43,1.42,5.89,3.27,1.64,10.63-8.21,13.49-6.35.58.38.71,1.06.74,1.22.47,2.89-6.44,6.16-10.78,8.21-3.06,1.45-7.47,3.28-13.11,4.75Z"/>
  <path class="cls-2" d="M235.55,195.47c-4.28,1.07-6.41,3.21-7.07,7.12-.22,1.3-1.65,2.4-2.52,3.59-.81-1.3-2.14-2.52-2.34-3.91-.75-5.19,3.5-9.15,8.95-8.43,2.39.31,4.72,1.07,7.64,1.76-3,2.79-5.63,5.23-8.25,7.68-.39-.29-.78-.57-1.17-.86,1.47-2.14,2.93-4.27,4.77-6.95Z"/>
  <path class="cls-2" d="M318.1,72.37c-2.32,7.18-7,9.35-13.58,7.41-3.59-1.06-7.4-1.36-11.11-2-.08.48-.16.95-.24,1.43,2.98,1.15,5.96,2.3,8.95,3.45-.12.38-.25.76-.37,1.14-3.55-.95-7.14-1.8-10.63-2.94-.85-.28-1.95-1.57-1.9-2.33.05-.77,1.35-2.04,2.15-2.07,2.95-.14,6.08-.43,8.83.38,6.73,1.99,12.66,1.54,17.91-4.48Z"/>
  <path class="cls-2" d="M241.24,95.55c2.1-.81,3.84-1.31,5.07-1.63,1.31-.34,2.31-.53,2.55-1.23.22-.65-.38-1.18-.85-2.39-.49-1.28-.5-2.47-.43-3.26,4.58-1.18,7.42-.48,8.87.07.37.14,2.13.81,2.08,1.55-.03.5-.88.65-1.9,1.5-1.08.9-1.61,1.85-1.71,2.21-1.48,5.23-8.51,7.41-13.68,3.18Z"/>
  <path class="cls-2" d="M55.58,271.36c7.12-3.8,14.41-5.02,21.98-1.75-7.28,1.28-14.39,4.54-21.98,1.75Z"/>
  <path class="cls-2" d="M215.05,431.1c1.73,2.06,3.45,4.12,5.18,6.17,1.75,1.91,3.51,3.82,5.27,5.73-4.58,1.33-4.76,1.23-7.24-3.52-.15-.3-.87-.32-1.34-.43-4.44-1.07-7.42-6.73-5.45-11.06,1.25,1.08,2.41,2.1,3.57,3.11Z"/>
  <path class="cls-2" d="M76.34,259.33c-6.81,1.54-13.61,3.12-20.45,4.52-.29.06-.91-1.5-1.64-2.74,7.43-2.54,14.25-5.83,21.92-3.26.05.49.11.99.16,1.48Z"/>
  <path class="cls-2" d="M65.54,238.11c3.91-1.32,5.84-.53,5.79,3.53-.04,2.99.5,6.01.25,8.97-.11,1.28-1.56,2.45-2.41,3.67-.54-.22-1.09-.44-1.63-.66-.65-5.04-1.31-10.09-2.01-15.51Z"/>
  <path class="cls-2" d="M313.62,137.41c-3.15-1.69-4.59-.95-8.23-2.09-2.63-.82-6.31-2.6-10.18-6.91-.31,2.82.15,4.93.53,6.17,2.42,7.9,11.49,13,15.62,12.66.53-.04,1.89-.25,3.01.53,1.14.8,1.03,1.93,2.03,2.63,0,0,.01,0,.02,0,1,1.34,2.5,2.31,4.7,2.77.29-1.4.72-4.45-.54-7.9-1.73-4.75-5.5-7.09-6.95-7.87Z"/>
  <path class="cls-2" d="M391,889.01c-.89,2.03-3.36,3.47-4.95,2.88-.86-.32-1.2-1.14-1.67-2.08-2.64-5.24-5.31-6.37-4.77-7.33.99-1.77,11.06.37,11.76,4.36.17.95-.23,1.85-.36,2.17Z"/>
  <path class="cls-2" d="M279.9,80.29c-3.34,1.14-6.89,1.94-10.04,3.54-3.02,1.54-5.61,3.92-8.85,6.26,3.99-9.48,13.9-14.32,18.89-9.8Z"/>
  <path class="cls-2" d="M118.92,815.88c2.01-4,10.3-6.01,16.24-4.28-2.28,2.68-8.43,4.35-16.24,4.28Z"/>
  <path class="cls-2" d="M389.16,381.11c.51-7.45,1.01-14.89,1.52-22.34.59.03,1.18.06,1.76.08-.34,7.44-.68,14.88-1.01,22.32-.76-.02-1.51-.04-2.27-.06Z"/>
  <path class="cls-2" d="M487.96,487.72c1.13-7.37,2.18-14.17,3.23-20.97-1.28,6.89,6.23,15.19-3.23,20.97Z"/>
  <path class="cls-2" d="M239.34,105.73c5.08-1.43,10.08-2.84,14.83-4.17-1.54,5.62-9.13,7.93-14.83,4.17Z"/>
  <path class="cls-2" d="M327.57,92.69c-.28.52-1.66.24-8.27-1.52-5.14-1.36-6.47-1.77-8-3.04-1.49-1.24-2.38-2.63-2.88-3.59,2.44.77,4.14,1.45,5.91,1.84,4.26.96,5.01.47,7.88,1.53,1.7.63,2.92,1.41,3.91,2.42.59.6,1.75,1.79,1.45,2.36Z"/>
  <path class="cls-2" d="M401.83,755.08c-6.13-4.23-10.74-9.25-10.58-17.64,3.8,6.33,7.19,11.99,10.58,17.64Z"/>
  <path class="cls-2" d="M359.61,301.88c2.22-2.03,4.45-4.07,6.67-6.1l1.86.85c-.65,2.34-.74,5.15-2.16,6.85-.87,1.04-3.78.37-5.78.46-.2-.69-.4-1.38-.6-2.06Z"/>
  <path class="cls-2" d="M133.38,806.49c-3.9.65-7.8,1.34-11.72,1.86-.41.05-1.2-.94-1.37-1.57-.12-.43.44-1.51.8-1.56,3.93-.6,7.89-1.06,11.84-1.56.15.95.3,1.89.45,2.84Z"/>
  <path class="cls-2" d="M124.09,742.24c-3.61.51-7.23,1.03-10.84,1.54-.26-.56-.53-1.13-.79-1.69,1.8-1.02,3.49-2.56,5.41-2.91,2.09-.38,4.38.34,6.58.58-.12.83-.24,1.65-.36,2.48Z"/>
  <path class="cls-2" d="M321.27,97.07c.78,6.09,6.86,4.65,9.47,7.26-3.88,2.96-7.01,2.92-8.85-.82-.85-1.73-5.47-4.59-.61-6.44Z"/>
  <path class="cls-2" d="M316.16,127.73c2.46,2.2,3.48,4.23,3.95,5.71.24.75.4,1.58.95,3.1.1.28.83,2.25,1.64,3.69.63,1.13,2.14,3.4,5.49,5.54-1.01-.19-2.48-.57-4.11-1.37-4.45-2.18-9.44-7.21-9.01-12.91.07-.91.31-2.23,1.09-3.76Z"/>
  <path class="cls-2" d="M92.06,318.72c-.61,3.07-1.23,6.15-2.04,10.24-4.02-5.09-3.49-8.19,2.04-10.24Z"/>
  <path class="cls-2" d="M126.4,747.52l-13.09,1.42c-.08-.67-.15-1.35-.23-2.02,4.39-.5,8.78-1.01,13.16-1.51.05.7.11,1.41.16,2.11Z"/>
  <path class="cls-2" d="M249.79,123.7c-4.73-2.41-4.8-5.15,0-10.65v10.65Z"/>
  <path class="cls-2" d="M105.2,107.84c7.48,13.75,1.92,37.14-8.02,38.37,2.59-12.4,5.2-24.87,8.02-38.37Z"/>
  <path class="cls-2" d="M123.95,153.01c-6.56,10.12-12.44,19.19-18.32,28.27.44-12.59,3.98-23.21,18.32-28.27Z"/>
  <path class="cls-1" d="M298.16,319.21c11.48-3.97,29.42,3.91,33.99,14.55.93,2.16.16,5.65-.97,7.97-2.08,4.29-2.12,8.35-1.66,13,.47,4.71-.85,9.6-1.38,14.41-.48-.05-.97-.09-1.45-.14.11-1.38.22-2.77.38-4.69-2.67,1.45-5.13,2.77-8.79,4.75,12.81-13.61,6.83-19.58-8.35-23.32,2.3,0,4.61.02,6.91,0,4.78-.05,9.05-1.06,10.78-6.27,1.71-5.15-1.12-8.64-5.12-10.69-6.29-3.22-12.95-5.72-19.49-8.41-1.52-.62-3.23-.79-4.85-1.17Z"/>
  <path class="cls-1" d="M292.35,296.82c-.53,7.86-1.05,15.73-1.59,23.76-13.92.1-28.22-2.57-35.96,13.1-2.12-3.7.01-6.56,2.19-7.98,5.32-3.47,10.86-7.23,16.86-8.93,14.52-4.12,13.56-.36,16.85-16.95.22-1.11.63-2.17.96-3.26.23.09.47.18.7.26Z"/>
  <path class="cls-1" d="M230.22,338.78c7.47,9.86,11.45,9.8,24.68-1.6-1.43,5.22-.75,10.57-5.86,13.11-4.29,2.13-11.08-.48-14.96-5.37-1.49-1.88-2.58-4.08-3.85-6.14Z"/>
  <path class="cls-1" d="M288.79,350.93c-5.47-7.4-12.41-3.82-18.62-5.09,2.89-.68,5.75-1.54,8.67-2,8.14-1.29,9.3-2.26,11.08-10.23.43-1.92.65-3.88.96-5.82.4.06.8.12,1.19.18-1.06,7.42-2.13,14.84-3.29,22.96Z"/>
  <path class="cls-1" d="M278.53,375.21c2.96-.47,5.9-1.15,8.88-1.28.95-.04,1.96,1.37,2.94,2.12-.77.97-1.35,2.31-2.36,2.85-3.63,1.97-6.55.26-9.46-3.69Z"/>
  <path class="cls-1" d="M146.75,350.71c5.71-2.02,11.41-4.04,17.12-6.07-4.24,6.36-10.1,7.93-17.12,6.07Z"/>
  <path class="cls-1" d="M252.93,354.75c-1.43,7.17-2.87,14.34-4.16,20.79-2.57-6.8-1.46-14.04,2.53-20.97.54.06,1.09.12,1.63.18Z"/>
  <path class="cls-1" d="M239.18,405.37c3.98,6.67,7.97,13.35,11.95,20.02-7.2-4.78-10.56-11.86-11.95-20.02Z"/>
  <path class="cls-1" d="M228.56,280.85c-2.48-.42-3.9-2.81-3.34-4.73.44-1.51,2.08-2.64,3.96-2.55,3.41.02,5.67,2.27,5.6,3.91-.07,1.69-2.67,3.84-6.23,3.36Z"/>
  <path class="cls-1" d="M238.93,330.36c-1.12-1.3-2.24-2.6-3.29-3.81-1.61.72-3.11,1.38-4.6,2.04-.18-.29-.36-.57-.54-.86,1.81-1.58,3.62-3.15,5.86-5.1,1.24,2.45,2.41,4.77,3.59,7.09-.34.21-.68.42-1.01.63Z"/>
  <path class="cls-1" d="M329.45,653.2c5.39,6.11,11.32,11.94,9.76,21.7-3.89-6.9-7.78-13.8-11.66-20.71l1.9-.99Z"/>
  <path class="cls-1" d="M369.75,460.26c-2.66,6.15-5.33,12.3-7.99,18.45-.44-.19-.88-.37-1.32-.56,2.73-6.16,5.47-12.32,8.2-18.48.37.19.74.39,1.11.58Z"/>
  <path class="cls-1" d="M347.31,271.16c-1.06.52-3.1,1.87-2.86,3.35.21,1.29,2.07,2.04,3.35,2.19,3.5.41,7.34-3.12,6.84-4.8-.44-1.5-4.5-2.13-7.33-.74Z"/>
</svg>