<?xml version="1.0" encoding="utf-8"?>
<!-- Generator: Adobe Illustrator 28.3.0, SVG Export Plug-In . SVG Version: 6.00 Build 0)  -->
<svg version="1.1" id="Layer_1" xmlns="http://www.w3.org/2000/svg" xmlns:xlink="http://www.w3.org/1999/xlink" x="0px" y="0px"
	 viewBox="0 0 714 875.2" style="enable-background:new 0 0 714 875.2;" xml:space="preserve">
<style type="text/css">
	.st0{fill:#FFFFFF;}
</style>
<g>
	<path class="st0" d="M712.8,627.9c-0.6-1.1-1.7-2-2.6-3c-11.1-13.1-13.9-29-16-45.7c5.1,0.6,9.8,1.3,12.4-3.6
		c2.7-5.1-2-7.8-3.9-11.5c-3.8-7.1-7.3-14.3-11.1-21.7c5.6-2.2,10.2-3.3,14.1-5.7c2.5-1.5,5.1-4.7,5.5-7.5c0.3-1.7-3-4.8-5.4-5.9
		c-10.8-5.1-16.5-13.6-18.2-25.1c-0.2-1.6-0.6-3.3-0.8-4.9c-3.2-21-9.4-40.6-25.6-55.6c-0.8-0.7-1.2-1.9-1.8-2.8
		c5.4-4.4,6-8.1,1.4-13.1c-2.4-2.6-5.5-5-8.8-6.4c-21.3-9.5-57-13.5-81.2,12c-5.5,5.8-15.3,4.8-21.5-0.3
		c-8.2-6.7-16.5-13.7-25.7-18.7c-14.8-8.1-31.3-11.1-48.2-11.6c-2.8-0.1-5.5-0.3-9.3-0.5c9.9-44.2,19.7-87.8,29.8-132.6
		c8.2,8.1,17.8,6.7,26.7,8.2c3.7,0.6,6.2-0.9,7.5-4.4c1.6-4.2,3.2-8.4,4.6-12.7c3.6-10.9,2.5-21.2-5.7-29.8
		c-6.3-6.5-7.9-13.9-8-21.4c0-2.7,0.3-7.1-1.7-12.6c-0.5-1.3-1-2.3-1.3-2.9c-0.8-1.8-1.6-3.7-2.3-5.6c-0.4-1.1-0.7-2.6-0.4-3.7
		c5.3-23.4,10.7-46.8,16.3-70.2c0.4-1.8,2.2-3.3,3.4-4.9c1.6-2.1,3.5-4,5-6.2c1.4-2.2,1.8-5.2,3.7-6.8c2.6-2.3,6.1-3.6,8.6-4.9
		c-2.3-26-4.5-51.4-6.8-77.5c-0.7,1.3-1.3,2.1-1.6,3c-5.2,14.3-10.3,28.7-15.6,43c-1.6,4.4-3.6,8.6-5.7,12.8
		c-0.4,0.8-1.6,1.1-2.5,1.7c-0.3-0.3-0.5-0.6-0.8-0.9c4.4-10.4,8.7-20.8,13.1-31.2c-0.4-0.2-0.8-0.4-1.3-0.5
		c-5.1,10.6-10.2,21.2-15.2,31.9c-0.7,1.6-1.8,3.8-1.2,5c3.7,6.9,2.7,13.7,0.3,20.6c-0.4,1.1,0.1,2.6,0.3,3.8
		c0.4,2.8,1.9,5.8,1.3,8.4c-5,22.1-10.4,44-15.6,66.1c-0.8,3.4-2.4,5.2-6.2,5.9c-5.8,1-12.4,1.6-12.6,10.1c1.4,2.6,2.7,5.1,4.1,7.6
		c-0.6,0.4-1.1,0.9-1.5,1.3c-6.5-3.4-8.3-6.1-6.2-10.8c1.9-4.3,1.2-7.7-1.3-11.1c-2.6-3.4-5.4-6.7-8-10.2c-1.3-1.7-3-3.4-3.5-5.3
		c-2.7-11.1-9.6-18.8-20.5-20.7c-9.6-1.7-19.7-0.9-29.6-1.2c-1,0-2.1,0.1-2.8-0.3c-4.9-2.9-9.6-6-14.9-9.3c1.1-0.2,2.1-0.8,2.5-0.5
		c6.9,5.1,11.9-2.7,18.1-2.9c2.4-0.1,4.6-4.1,6.9-6.4c0.2-0.2,0.3-0.6,0.4-0.9c1.6-4.8-3.7-12.7-8.9-13.3c-4.4-0.5-8.3-2.9-8.5-7.1
		c-0.2-7,1.1-14,2-22.5c6.7,12.1,15.1,18.4,28.1,15.1c7.4-1.9,12.9-6.1,16.7-13.6c-3.8-1.4-7-2.6-10.4-3.9c3.5-0.5,6.6-0.7,9.6-1.5
		c1.3-0.4,3.4-2.1,3.3-3c-0.9-7.6-2.3-15.2-3.9-22.5c-2.2-10.6-9.1-20.3-17.6-27.3C418.8,2.9,398.4-2.3,376,1
		c-15.5,2.2-28.6,9.8-41.1,18.6c-5.1,3.6-5.1,4.8-1.8,10.3c0.3,0.5,0.5,1.2,0.8,2c-4.4,0.7-8.5,1-12.5,2c-5.1,1.2-5.2,2.7-2.2,6.8
		c2.5,3.5,4.8,7.2,6.5,11.1c1,2.3,0.7,5.1,0.7,7.7c0,2.1-0.7,4.1-0.9,6.2c-0.2,3,0,6-0.5,8.9c-0.8,4.5-4.4,8.8-0.1,13.4
		c0.6,0.7,0,2.6-0.2,3.9c-0.5,2.8-1.1,5.6-1.9,8.3c-1,3.3,0.1,4.6,3.1,6.6c2.7,1.8,5.4,5.9,5.3,9c-0.1,9.2,0.8,11.3,9.4,14.1
		c6,2,6.7,3.5,4.8,10.6c-1.4-0.6-2.7-1.1-4.1-1.6c-9.7-3.8-19-4.9-27.6,2.8c-2.1,1.9-5,3.6-7.8,4.2c-18.6,4.7-29.8,17.4-37.3,34.1
		c-0.9,2.1-0.6,4.7-0.8,7.1c-0.2,2.2,0.3,4.6-0.5,6.5c-3.3,7.8-3.4,8.1,3.9,12.5c-7.5,11.1-14.9,22.2-22.9,34.1
		c-1.7-2.3-4.8-4.8-4.5-6.6c2.1-11.6-4.1-18-12.4-24.6c-6-4.8-13.6-8.9-14.3-18.9c-0.4-5.9-6.9-7.4-12.2-8.8
		c-6.7-1.7-12.6-4.4-15.4-11.4c-3.1-7.8-9.1-11-17-11.8c-4.3-0.4-8.7-0.6-12.8-1.8c-3.1-0.9-5.8-3.4-8.6-5.1
		c-2.4-1.5-4.7-3.8-7.4-4.4c-2.8-0.7-5.9,0.4-8.9,0.3c-3.4-0.1-6.9-0.1-10-1.2c-7.1-2.5-16.3-0.3-20.8,5.6c-0.6,0.8-1.3,2.2-1,3
		c1.8,4.4-1.2,5.5-4.3,7.2c-0.2-1.4-0.3-2.2-0.4-3.4c-2.5,2.3-4.6,4.1-6.9,6.1c-1.3-1.2-2.4-2.5-3.8-3.5
		c-7.3-5.6-14.4-11.3-21.9-16.4c-5.4-3.7-8.5-1.8-8.4,4.8c0.1,5.3,0.9,10.6,1.7,15.9c0.4,2.8-0.3,4.2-2.8,5.5
		c-4.3,2.2-8.3,4.9-12.5,7.2c-1.1,0.6-2.8,0.6-4.1,0.2c-11-3.9-21.9-7.9-32.9-11.8c-2-0.7-4.4-0.4-6.7-0.6c0.1,2.4-0.6,5.2,0.5,7
		c4.1,6.6,8.2,13.4,13.5,19c4.8,5.2,10.2,9,9.8,17.5c-0.2,4.3-0.1,8.1-2.5,11.7c-1,1.5-2.6,2.9-3,4.6c-0.6,2.8-0.6,5.7-0.8,8.5
		c2-0.6,4-1.3,6.7-2.1c-0.5,1.7-0.8,3.4-1.5,4.8c-4.2,8.7-5.2,16.7,1.4,25.2c3,3.9,4.5,9.8,5,14.9c0.8,7.7,1,15.7-0.1,23.4
		c-2.1,15.1-4.4,30.3-8.2,45.1c-1.6,6.3-1,10,3.2,14.6c3.6,4,6.6,8.8,8.7,13.6c2.8,6.2,3.6,7.3,10.6,7.5c2.4,0.1,5.1,0.3,7,1.5
		c6.6,4,13.6,3,18.7-3c1.6-1.9,3.9-3.7,6.2-4.4c8.7-2.6,10.3-4.6,9.8-13.9c0-0.7,0.1-1.4,0.3-3c9.4,9,20.3,13.4,31.9,16.2
		c1,0.2,2.1,2.4,2.2,3.7c0.5,8,1.1,16,0.7,24c-0.2,4.8-1.3,10.1-3.7,14.2c-12.1,20.6-17.7,43.8-27.5,65.3c-0.2,0.5-0.6,1-0.4,1.4
		c0.4,1.3,0.8,3.5,1.5,3.6c5.3,1.2,5.8,5.5,6.4,9.6c2.7,18,10.3,33.6,22.6,47c1.9,2.1,3.7,4.2,5.9,6.8c-1.9,1.2-3.3,2.2-4.9,3.1
		c-14.2,8-29.2,13.8-45.4,16.2c-7.4,1.1-12.9,5.1-15.6,12.5c-2.7,7.5-5.5,15-8,22.6c-1.9,5.5-1.7,11,2.6,15.4
		c4.2,4.3,5.5,9.4,5.6,15c0.1,7.8,0.3,15.7-0.1,23.5c-0.8,15.3,0.9,31-7.4,45.3c-2.8,4.9-0.8,10.8,3.9,13
		c7.8,3.7,11.4,9.8,12.4,17.9c0.3,2.3,1.3,4.5,1.7,6.8c0.9,6.2,4.1,10.3,10,12.5c6.4,2.3,9.8,7.3,12.6,13.3
		c2.8,6,6.3,11.8,10.6,16.8c6,7.2,12.5,6.6,18.2-0.9c1.1-1.5,2.1-3,2.9-4.7c6.9-13.4,6.9-27.2,2.7-41.3c-2.2-7.4-3.4-7.8-10.9-7.6
		c-4.5,0.1-5.4,2-4.5,6c0.8,4,1.3,8,2,12c-1.4-2.1-1.5-4.5-2.1-6.6c-1.5-4.9-2.8-9.8-5.1-14.4c-0.8-1.5-4.3-3-6-2.5
		c-4.6,1.3-8.7,1.6-11.9-2.1c-3.5-4.2-0.1-7.8,1.8-11.3c0.1-0.2,0.2-0.3,0.2-0.4c5.1-8.6,4.9-13-1.9-20.1c-3.6-3.8-5.2-8-5.2-13
		c0.2-13.5,0.6-27,0.7-40.5c0.1-7.4,2.8-13,8.7-17.6c1.8-1.4,3.3-4.8,3.1-7.1c-0.4-4,1.3-5.9,4.6-6.2c7.4-0.8,14.8-1.8,22.3-1.6
		c17.5,0.4,34.9,1.6,52.4,2.2c4.2,0.2,8.5-0.6,14.2-1.1c-0.6,14.5-1,28.2-1.7,42c-0.5,10.2-4.1,19.4-9.8,27.9
		c-9,13.4-7.9,27.2-1.1,41.3c1.3,2.7,2.6,6,2.4,8.9c-0.7,14.6-1.8,29.2-3,43.8c-0.6,6.8-3,13-7.8,18.1c-5.2,5.5-6.4,11.7-4.6,18.9
		c0.6,2.4,0.6,5.9-0.7,7.6c-3.6,4.6-7.6,9.3-12.4,12.4c-4.2,2.7-6.6,5.9-8.8,10.2c-3.9,7.4-8.2,14.8-13.4,21.4
		c-5.8,7.2-5.2,11.9,3.9,14.8c12.7,4,25.6,4,38.6,1.4c10.3-2,12.9-5.4,14.3-15.7c0.4-2.5,1.1-5.3,2.7-7.2c4.6-5.3,5.2-9.3,1.6-15.3
		c-0.9-1.6-2-3.1-2.5-4.8c-1.9-6.2,1.9-10.5,8.3-9.1c7.4,1.5,13-1.8,13.5-9.3c0.3-4.4-0.5-9.5-2.7-13.3c-4.9-8.4-6.5-17-5.4-26.4
		c1.6-13.7,3.4-27.5,4.9-41.2c0.7-6.5,3.3-11.7,8.3-15.9c6.4-5.4,9-12.6,8.4-21c-0.2-2.8-0.4-5.7-1-8.4c-1.7-8-0.5-15.5,2.4-23
		c6-15.9,11.9-31.8,17.8-47.8c1.3-3.4,2.6-6.8,4.1-10.6c44,15,87.8,30.4,135.4,18.2c0.3,2,0.5,3.3,0.6,4.5c0.2,1.5,0.3,3,0.5,4.5
		c3.1,20.1,12.4,37,26.5,51.6c13.9,14.4,18.2,31,8.7,49.4c-6.3,12.2-13.3,24.2-20.7,35.8c-2.9,4.5-5.5,8.5-5.2,14
		c0.2,5.6-1.9,10.8-6.5,14c-11.4,7.7-17.9,18.9-23.9,30.7c-1.9,3.8-1.3,6.1,2.4,7.5c12.6,4.9,25.4,5.1,38.1,0.4
		c3.2-1.2,5.2-3.4,5-7.2c-0.2-3.8,0-7.3,3.3-10.4c1.4-1.3,0.8-5,0.5-7.5c-0.2-1.7-1.4-3.3-2-5.1c-1.8-5.5,0.9-8.9,6.6-8.6
		c10.4,0.6,12.9-2,11.8-12.3c-0.2-1.5-0.3-3-0.6-4.5c-1-5.1-0.2-9.9,2.6-14.4c2.2-3.5,3.9-7.4,5.9-11c7.1-12.8,14.2-25.6,24.8-36.1
		c3.9-3.9,6.7-9.1,9.4-14c3-5.5,1.8-10.5-2.3-15.6c-4.7-5.9-8.9-12.4-12.3-19.2c-5.6-11.2-4.3-22.2,2.3-32.8
		c2.4-3.8,4.4-7.8,6.6-11.8c2.4-4.3,4.7-4.5,7.5-0.4c0.8,1.2,1.5,2.6,1.9,4c5.2,17.6,13.8,33.5,24.3,48.5c4.6,6.6,6.2,13.3,3.3,21.2
		c-3,7.9-2.2,15.6,2,23.1c1.2,2.2,1.7,5.6,1,8c-4,12.3-8.1,24.7-13,36.7c-2.4,5.8-5.9,11.8-10.5,16c-5.8,5.4-8.2,10.9-6.9,18.5
		c0.7,4.3-0.6,8-3.9,10.8c-3.1,2.7-6.5,5.2-9.8,7.7c-2.2,1.7-5.1,2.9-6.8,5c-5.7,7.1-11.1,14.5-16.5,21.9c-5,6.9-4.1,10.1,4.3,12.5
		c12.7,3.6,25.4,2.9,37.9-1.2c5.4-1.8,8.6-5.4,9-11.3c0.1-1.8,0.4-4,1.5-5.2c3.6-4.1,2.9-8.1,0.5-12.4c-2.2-4.1-0.9-7.8,3-9.7
		c2.6-1.3,6-2.1,8.9-1.7c5,0.6,8.5-1.1,9.8-5.6c1-3.1,0.5-6.7,0.3-10.1c-0.3-5.1-2.7-10.7-1.2-15c6.3-18,13.4-35.8,20.9-53.4
		c1.8-4.2,5.5-8,9.1-11c10.1-8.2,14.3-21.5,8-33c-10.3-18.6-12.2-38.5-11.2-59.1c0.1-2.5,1.5-5.4,3.2-7.2
		c19.3-19.7,35-41.5,40.3-69.4c3.5-18.3,3.8-36.8,2-55.3c-1.2-12.7-4.2-25-9.8-36.5c-0.9-1.9-1.5-3.9-2.6-7c4,0.7,7.1,0.7,9.7,1.7
		c11,4.3,18.9,11.7,22.3,23.3c3,10.4,2.6,20.6-0.2,31.1c-1.1,4.2-1.7,9-1,13.2c1.5,8.9,6.5,10.8,14.3,6.2c0.5-0.3,1.2-0.3,3.1-0.8
		c-0.5,8.1-1,15.5-1.6,22.9c-0.5,5.8-1.5,11.6-1.9,17.4c-0.2,3.4,1,5.8,5.3,4.2c0.4,2,0.8,3.8,1,5.6c1.6,12.2,5.1,23.8,11.5,34.3
		c1.1,1.8,2.3,3.8,3.9,5.1c1.2,1,3.4,1.4,4.8,1.1c0.7-0.2,1.4-2.9,1.1-4.2c-0.7-3.4-2-6.7-2.8-10.1c-0.7-2.7-1.2-5.5-2-9.6
		c2.5,1.8,3.6,2.5,4.5,3.4c6.4,5.6,12.6,11.4,19.2,16.8c1.9,1.6,4.7,2.2,7.2,3.1c1.8,0.7,4.2,0.5,5.4,1.7
		c10.6,9.9,23.7,12.2,37.3,13c1.3,0.1,3.3-0.6,3.7-1.5c0.4-1-0.4-2.8-1.1-4L712.8,627.9z"/>
	<g>
		<path d="M360.3,344.1c-0.2-0.5-0.5-0.9-0.7-1.4c0,0.6,0,1.2-0.1,1.8C359.8,344.3,360,344.2,360.3,344.1L360.3,344.1z"/>
		<path d="M339.8,350.9c0-0.1,0-0.3,0-0.4c0,0.1-0.1,0.2-0.1,0.3L339.8,350.9z"/>
		<path d="M712.8,627.9c-0.6-1.1-1.7-2-2.6-3c-11.1-13.1-13.9-29-16-45.7c5.1,0.6,9.8,1.3,12.4-3.6c2.7-5.1-2-7.8-3.9-11.5
			c-3.8-7.1-7.3-14.3-11.1-21.7c5.6-2.2,10.2-3.3,14.1-5.7c2.5-1.5,5.1-4.7,5.5-7.5c0.3-1.7-3-4.8-5.4-5.9
			c-10.8-5.1-16.5-13.6-18.2-25.1c-0.2-1.6-0.6-3.3-0.8-4.9c-3.2-21-9.4-40.6-25.6-55.6c-0.8-0.7-1.2-1.9-1.8-2.8
			c5.4-4.4,6-8.1,1.4-13.1c-2.4-2.6-5.5-5-8.8-6.4c-21.3-9.5-57-13.5-81.2,12c-5.5,5.8-15.3,4.8-21.5-0.3
			c-8.2-6.7-16.5-13.7-25.7-18.7c-14.8-8.1-31.3-11.1-48.2-11.6c-2.8-0.1-5.5-0.3-9.3-0.5c9.9-44.2,19.7-87.8,29.8-132.6
			c8.2,8.1,17.8,6.7,26.7,8.2c3.7,0.6,6.2-0.9,7.5-4.4c1.6-4.2,3.2-8.4,4.6-12.7c3.6-10.9,2.5-21.2-5.7-29.8
			c-6.3-6.5-7.9-13.9-8-21.4c0-2.7,0.3-7.1-1.7-12.6c-0.5-1.3-1-2.3-1.3-2.9c-0.8-1.8-1.6-3.7-2.3-5.6c-0.4-1.1-0.7-2.6-0.4-3.7
			c5.3-23.4,10.7-46.8,16.3-70.2c0.4-1.8,2.2-3.3,3.4-4.9c1.6-2.1,3.5-4,5-6.2c1.4-2.2,1.8-5.2,3.7-6.8c2.6-2.3,6.1-3.6,8.6-4.9
			c-2.3-26-4.5-51.4-6.8-77.5c-0.7,1.3-1.3,2.1-1.6,3c-5.2,14.3-10.3,28.7-15.6,43c-1.6,4.4-3.6,8.6-5.7,12.8
			c-0.4,0.8-1.6,1.1-2.5,1.7c-0.3-0.3-0.5-0.6-0.8-0.9c4.4-10.4,8.7-20.8,13.1-31.2c-0.4-0.2-0.8-0.4-1.3-0.5
			c-5.1,10.6-10.2,21.2-15.2,31.9c-0.7,1.6-1.8,3.8-1.2,5c3.7,6.9,2.7,13.7,0.3,20.6c-0.4,1.1,0.1,2.6,0.3,3.8
			c0.4,2.8,1.9,5.8,1.3,8.4c-5,22.1-10.4,44-15.6,66.1c-0.8,3.4-2.4,5.2-6.2,5.9c-5.8,1-12.4,1.6-12.6,10.1c1.4,2.6,2.7,5.1,4.1,7.6
			c-0.6,0.4-1.1,0.9-1.5,1.3c-6.5-3.4-8.3-6.1-6.2-10.8c1.9-4.3,1.2-7.7-1.3-11.1c-2.6-3.4-5.4-6.7-8-10.2c-1.3-1.7-3-3.4-3.5-5.3
			c-2.7-11.1-9.6-18.8-20.5-20.7c-9.6-1.7-19.7-0.9-29.6-1.2c-1,0-2.1,0.1-2.8-0.3c-4.9-2.9-9.6-6-14.9-9.3c1.1-0.2,2.1-0.8,2.5-0.5
			c6.9,5.1,11.9-2.7,18.1-2.9c2.4-0.1,4.6-4.1,6.9-6.4c0.2-0.2,0.3-0.6,0.4-0.9c1.6-4.8-3.7-12.7-8.9-13.3c-4.4-0.5-8.3-2.9-8.5-7.1
			c-0.2-7,1.1-14,2-22.5c6.7,12.1,15.1,18.4,28.1,15.1c7.4-1.9,12.9-6.1,16.7-13.6c-3.8-1.4-7-2.6-10.4-3.9c3.5-0.5,6.6-0.7,9.6-1.5
			c1.3-0.4,3.4-2.1,3.3-3c-0.9-7.6-2.3-15.2-3.9-22.5c-2.2-10.6-9.1-20.3-17.6-27.3C418.8,2.9,398.4-2.3,376,1
			c-15.5,2.2-28.6,9.8-41.1,18.6c-5.1,3.6-5.1,4.8-1.8,10.3c0.3,0.5,0.5,1.2,0.8,2c-4.4,0.7-8.5,1-12.5,2c-5.1,1.2-5.2,2.7-2.2,6.8
			c2.5,3.5,4.8,7.2,6.5,11.1c1,2.3,0.7,5.1,0.7,7.7c0,2.1-0.7,4.1-0.9,6.2c-0.2,3,0,6-0.5,8.9c-0.8,4.5-4.4,8.8-0.1,13.4
			c0.6,0.7,0,2.6-0.2,3.9c-0.5,2.8-1.1,5.6-1.9,8.3c-1,3.3,0.1,4.6,3.1,6.6c2.7,1.8,5.4,5.9,5.3,9c-0.1,9.2,0.8,11.3,9.4,14.1
			c6,2,6.7,3.5,4.8,10.6c-1.4-0.6-2.7-1.1-4.1-1.6c-9.7-3.8-19-4.9-27.6,2.8c-2.1,1.9-5,3.6-7.8,4.2c-18.6,4.7-29.8,17.4-37.3,34.1
			c-0.9,2.1-0.6,4.7-0.8,7.1c-0.2,2.2,0.3,4.6-0.5,6.5c-3.3,7.8-3.4,8.1,3.9,12.5c-7.5,11.1-14.9,22.2-22.9,34.1
			c-1.7-2.3-4.8-4.8-4.5-6.6c2.1-11.6-4.1-18-12.4-24.6c-6-4.8-13.6-8.9-14.3-18.9c-0.4-5.9-6.9-7.4-12.2-8.8
			c-6.7-1.7-12.6-4.4-15.4-11.4c-3.1-7.8-9.1-11-17-11.8c-4.3-0.4-8.7-0.6-12.8-1.8c-3.1-0.9-5.8-3.4-8.6-5.1
			c-2.4-1.5-4.7-3.8-7.4-4.4c-2.8-0.7-5.9,0.4-8.9,0.3c-3.4-0.1-6.9-0.1-10-1.2c-7.1-2.5-16.3-0.3-20.8,5.6c-0.6,0.8-1.3,2.2-1,3
			c1.8,4.4-1.2,5.5-4.3,7.2c-0.2-1.4-0.3-2.2-0.4-3.4c-2.5,2.3-4.6,4.1-6.9,6.1c-1.3-1.2-2.4-2.5-3.8-3.5
			c-7.3-5.6-14.4-11.3-21.9-16.4c-5.4-3.7-8.5-1.8-8.4,4.8c0.1,5.3,0.9,10.6,1.7,15.9c0.4,2.8-0.3,4.2-2.8,5.5
			c-4.3,2.2-8.3,4.9-12.5,7.2c-1.1,0.6-2.8,0.6-4.1,0.2c-11-3.9-21.9-7.9-32.9-11.8c-2-0.7-4.4-0.4-6.7-0.6c0.1,2.4-0.6,5.2,0.5,7
			c4.1,6.6,8.2,13.4,13.5,19c4.8,5.2,10.2,9,9.8,17.5c-0.2,4.3-0.1,8.1-2.5,11.7c-1,1.5-2.6,2.9-3,4.6c-0.6,2.8-0.6,5.7-0.8,8.5
			c2-0.6,4-1.3,6.7-2.1c-0.5,1.7-0.8,3.4-1.5,4.8c-4.2,8.7-5.2,16.7,1.4,25.2c3,3.9,4.5,9.8,5,14.9c0.8,7.7,1,15.7-0.1,23.4
			c-2.1,15.1-4.4,30.3-8.2,45.1c-1.6,6.3-1,10,3.2,14.6c3.6,4,6.6,8.8,8.7,13.6c2.8,6.2,3.6,7.3,10.6,7.5c2.4,0.1,5.1,0.3,7,1.5
			c6.6,4,13.6,3,18.7-3c1.6-1.9,3.9-3.7,6.2-4.4c8.7-2.6,10.3-4.6,9.8-13.9c0-0.7,0.1-1.4,0.3-3c9.4,9,20.3,13.4,31.9,16.2
			c1,0.2,2.1,2.4,2.2,3.7c0.5,8,1.1,16,0.7,24c-0.2,4.8-1.3,10.1-3.7,14.2c-12.1,20.6-17.7,43.8-27.5,65.3c-0.2,0.5-0.6,1-0.4,1.4
			c0.4,1.3,0.8,3.5,1.5,3.6c5.3,1.2,5.8,5.5,6.4,9.6c2.7,18,10.3,33.6,22.6,47c1.9,2.1,3.7,4.2,5.9,6.8c-1.9,1.2-3.3,2.2-4.9,3.1
			c-14.2,8-29.2,13.8-45.4,16.2c-7.4,1.1-12.9,5.1-15.6,12.5c-2.7,7.5-5.5,15-8,22.6c-1.9,5.5-1.7,11,2.6,15.4
			c4.2,4.3,5.5,9.4,5.6,15c0.1,7.8,0.3,15.7-0.1,23.5c-0.8,15.3,0.9,31-7.4,45.3c-2.8,4.9-0.8,10.8,3.9,13
			c7.8,3.7,11.4,9.8,12.4,17.9c0.3,2.3,1.3,4.5,1.7,6.8c0.9,6.2,4.1,10.3,10,12.5c6.4,2.3,9.8,7.3,12.6,13.3
			c2.8,6,6.3,11.8,10.6,16.8c6,7.2,12.5,6.6,18.2-0.9c1.1-1.5,2.1-3,2.9-4.7c6.9-13.4,6.9-27.2,2.7-41.3c-2.2-7.4-3.4-7.8-10.9-7.6
			c-4.5,0.1-5.4,2-4.5,6c0.8,4,1.3,8,2,12c-1.4-2.1-1.5-4.5-2.1-6.6c-1.5-4.9-2.8-9.8-5.1-14.4c-0.8-1.5-4.3-3-6-2.5
			c-4.6,1.3-8.7,1.6-11.9-2.1c-3.5-4.2-0.1-7.8,1.8-11.3c0.1-0.2,0.2-0.3,0.2-0.4c5.1-8.6,4.9-13-1.9-20.1c-3.6-3.8-5.2-8-5.2-13
			c0.2-13.5,0.6-27,0.7-40.5c0.1-7.4,2.8-13,8.7-17.6c1.8-1.4,3.3-4.8,3.1-7.1c-0.4-4,1.3-5.9,4.6-6.2c7.4-0.8,14.8-1.8,22.3-1.6
			c17.5,0.4,34.9,1.6,52.4,2.2c4.2,0.2,8.5-0.6,14.2-1.1c-0.6,14.5-1,28.2-1.7,42c-0.5,10.2-4.1,19.4-9.8,27.9
			c-9,13.4-7.9,27.2-1.1,41.3c1.3,2.7,2.6,6,2.4,8.9c-0.7,14.6-1.8,29.2-3,43.8c-0.6,6.8-3,13-7.8,18.1c-5.2,5.5-6.4,11.7-4.6,18.9
			c0.6,2.4,0.6,5.9-0.7,7.6c-3.6,4.6-7.6,9.3-12.4,12.4c-4.2,2.7-6.6,5.9-8.8,10.2c-3.9,7.4-8.2,14.8-13.4,21.4
			c-5.8,7.2-5.2,11.9,3.9,14.8c12.7,4,25.6,4,38.6,1.4c10.3-2,12.9-5.4,14.3-15.7c0.4-2.5,1.1-5.3,2.7-7.2c4.6-5.3,5.2-9.3,1.6-15.3
			c-0.9-1.6-2-3.1-2.5-4.8c-1.9-6.2,1.9-10.5,8.3-9.1c7.4,1.5,13-1.8,13.5-9.3c0.3-4.4-0.5-9.5-2.7-13.3c-4.9-8.4-6.5-17-5.4-26.4
			c1.6-13.7,3.4-27.5,4.9-41.2c0.7-6.5,3.3-11.7,8.3-15.9c6.4-5.4,9-12.6,8.4-21c-0.2-2.8-0.4-5.7-1-8.4c-1.7-8-0.5-15.5,2.4-23
			c6-15.9,11.9-31.8,17.8-47.8c1.3-3.4,2.6-6.8,4.1-10.6c44,15,87.8,30.4,135.4,18.2c0.3,2,0.5,3.3,0.6,4.5c0.2,1.5,0.3,3,0.5,4.5
			c3.1,20.1,12.4,37,26.5,51.6c13.9,14.4,18.2,31,8.7,49.4c-6.3,12.2-13.3,24.2-20.7,35.8c-2.9,4.5-5.5,8.5-5.2,14
			c0.2,5.6-1.9,10.8-6.5,14c-11.4,7.7-17.9,18.9-23.9,30.7c-1.9,3.8-1.3,6.1,2.4,7.5c12.6,4.9,25.4,5.1,38.1,0.4
			c3.2-1.2,5.2-3.4,5-7.2c-0.2-3.8,0-7.3,3.3-10.4c1.4-1.3,0.8-5,0.5-7.5c-0.2-1.7-1.4-3.3-2-5.1c-1.8-5.5,0.9-8.9,6.6-8.6
			c10.4,0.6,12.9-2,11.8-12.3c-0.2-1.5-0.3-3-0.6-4.5c-1-5.1-0.2-9.9,2.6-14.4c2.2-3.5,3.9-7.4,5.9-11c7.1-12.8,14.2-25.6,24.8-36.1
			c3.9-3.9,6.7-9.1,9.4-14c3-5.5,1.8-10.5-2.3-15.6c-4.7-5.9-8.9-12.4-12.3-19.2c-5.6-11.2-4.3-22.2,2.3-32.8
			c2.4-3.8,4.4-7.8,6.6-11.8c2.4-4.3,4.7-4.5,7.5-0.4c0.8,1.2,1.5,2.6,1.9,4c5.2,17.6,13.8,33.5,24.3,48.5
			c4.6,6.6,6.2,13.3,3.3,21.2c-3,7.9-2.2,15.6,2,23.1c1.2,2.2,1.7,5.6,1,8c-4,12.3-8.1,24.7-13,36.7c-2.4,5.8-5.9,11.8-10.5,16
			c-5.8,5.4-8.2,10.9-6.9,18.5c0.7,4.3-0.6,8-3.9,10.8c-3.1,2.7-6.5,5.2-9.8,7.7c-2.2,1.7-5.1,2.9-6.8,5
			c-5.7,7.1-11.1,14.5-16.5,21.9c-5,6.9-4.1,10.1,4.3,12.5c12.7,3.6,25.4,2.9,37.9-1.2c5.4-1.8,8.6-5.4,9-11.3
			c0.1-1.8,0.4-4,1.5-5.2c3.6-4.1,2.9-8.1,0.5-12.4c-2.2-4.1-0.9-7.8,3-9.7c2.6-1.3,6-2.1,8.9-1.7c5,0.6,8.5-1.1,9.8-5.6
			c1-3.1,0.5-6.7,0.3-10.1c-0.3-5.1-2.7-10.7-1.2-15c6.3-18,13.4-35.8,20.9-53.4c1.8-4.2,5.5-8,9.1-11c10.1-8.2,14.3-21.5,8-33
			c-10.3-18.6-12.2-38.5-11.2-59.1c0.1-2.5,1.5-5.4,3.2-7.2c19.3-19.7,35-41.5,40.3-69.4c3.5-18.3,3.8-36.8,2-55.3
			c-1.2-12.7-4.2-25-9.8-36.5c-0.9-1.9-1.5-3.9-2.6-7c4,0.7,7.1,0.7,9.7,1.7c11,4.3,18.9,11.7,22.3,23.3c3,10.4,2.6,20.6-0.2,31.1
			c-1.1,4.2-1.7,9-1,13.2c1.5,8.9,6.5,10.8,14.3,6.2c0.5-0.3,1.2-0.3,3.1-0.8c-0.5,8.1-1,15.5-1.6,22.9c-0.5,5.8-1.5,11.6-1.9,17.4
			c-0.2,3.4,1,5.8,5.3,4.2c0.4,2,0.8,3.8,1,5.6c1.6,12.2,5.1,23.8,11.5,34.3c1.1,1.8,2.3,3.8,3.9,5.1c1.2,1,3.4,1.4,4.8,1.1
			c0.7-0.2,1.4-2.9,1.1-4.2c-0.7-3.4-2-6.7-2.8-10.1c-0.7-2.7-1.2-5.5-2-9.6c2.5,1.8,3.6,2.5,4.5,3.4c6.4,5.6,12.6,11.4,19.2,16.8
			c1.9,1.6,4.7,2.2,7.2,3.1c1.8,0.7,4.2,0.5,5.4,1.7c10.6,9.9,23.7,12.2,37.3,13c1.3,0.1,3.3-0.6,3.7-1.5c0.4-1-0.4-2.8-1.1-4
			L712.8,627.9z M97.9,731.4c2.5,8-3,13.8-12.3,13.3C89.7,740.3,93.8,735.9,97.9,731.4z M83.2,698.2c-5.9,3.3-10.8,6.6-16.1,8.8
			c-2.2,0.9-5.7-0.5-8-1.8c-0.7-0.4,0.2-4,0.7-6.1c1.7-8.4,3.8-16.7,5.1-25.2c1-6.4,0.8-12.9,1.3-19.4c0.1-1.8,0.9-3.5,1.4-5.2
			c0.6,0.1,1.2,0.1,1.8,0.2C72.7,665.6,68.5,683.8,83.2,698.2L83.2,698.2z M93.9,592.4c0-6.1,1.1-6.8,5.8-4.8c2.4,1,4.8,1.8,8.7,3.3
			C102.6,591.5,98.3,591.9,93.9,592.4L93.9,592.4z M104.1,578c-11.8,2.2-18.4,11.2-25.8,19.2c-3,3.3-6.2,6.5-9.7,9.3
			c-1.7,1.3-4.3,1.7-6.5,1.8c-3.5,0.1-5.3-1.8-4.2-5.5c1.9-6,3.7-12.1,6-18c2.4-6.4,7.1-10.5,14.1-11.1c10.8-0.8,21.7-1.2,32.6-1.8
			c0.2,0.8,0.4,1.6,0.7,2.5C108.9,575.6,106.6,577.5,104.1,578L104.1,578z M567.3,437.4c-4.3,3.7-6.5,3.6-9.1,0H567.3z M496.9,229.8
			c-3,16.5-5.9,33.1-9.5,49.5c-11.1,50.2-22.5,100.4-33.8,150.6c-1.7,7.5-2.9,15-4.5,22.9c-1.4-0.7-2.5-1.2-2.8-1.3
			c0.6-2.5,2.2-5.1,1.5-6.6c-2.6-5.6-0.3-10.8,0.9-15.9c8.8-39.8,18.1-79.6,26.8-119.5c6-27.3,11.2-54.8,16.8-82.2
			c0.4-1.7,1.4-3.3,2.1-5c0.8,0.1,1.5,0.2,2.2,0.3C496.7,225.1,497.3,227.5,496.9,229.8L496.9,229.8z M310.1,504
			c0.5,0.2,0.9,0.8,1,1.9c-2.5-1.1-5.1-2.1-7.4-3.5c-1-0.6-2-2.3-2-3.5c0.4-6.9,1-13.8,1.6-20.7c0.5,0,1,0.1,1.4,0.1
			c0,5,0.6,10.2-0.2,15.1C303.7,498.7,305.2,502,310.1,504L310.1,504z M308,463.1c-4-3.3-7.8-6.9-11.1-10.8
			c-1.5-1.7-2.2-4.4-2.3-6.8c-0.2-5.8,0-11.6,0.2-17.5c0.2-7.4,4.1-13.1,8.1-19.2c4,1.8,3.4,4.2,2.3,7c-2.7,6.8-5.8,13.5-7.6,20.5
			c-1.5,5.9-2,12.2,4.2,17.8c-4.4-14.1-0.5-26.1,7-37.6c-0.1,1.1,0,2.2-0.3,3.3c-1.6,6.6-3.4,13.2-4.8,19.9
			c-1.8,8.1,0.2,15.2,6.6,20.8c3,2.6,6.2,5.1,9.1,7.7c1.5,1.4,2.8,3,4.1,4.5c-0.4,0.4-0.7,0.8-1.1,1.2
			C317.6,470.3,312.6,466.9,308,463.1L308,463.1z M290.6,478.9c0.7,1.8,1.4,3.7,2.1,5.5c-0.5,0.2-1,0.5-1.5,0.7
			c-1.7-2.6-3.3-5.2-5-7.8c0.2-0.2,0.5-0.4,0.7-0.6C288.2,477.4,289.4,478.1,290.6,478.9z M287.7,469c5.3,5,5.8,7.3,3,9.7
			c-0.7-1.5-1.5-3-2-4.6C288.3,472.9,288.1,471.6,287.7,469z M292.5,363.1c-1.3-2.8-2.6-5.5-3.9-8.3c-3.4-2.4-6.9-4.6-9.9-7.4
			c-0.5-0.5,0.8-3.6,1.9-5.1c1.1-1.5,2.9-2.6,4.5-3.9c1.5,5.6,5,0.4,7.5,2c-1.2,4.4-2.5,9-3.7,13.5l4.9-9c0.3,0.1,0.6,0.2,0.9,0.3
			l-1.6,4.9c0.3,0.1,0.5,0.2,0.8,0.3c1.2-2.5,2.4-5.1,3.8-7.5c0.7-1.1,2-1.8,3-2.7c0.2,1.3,1,2.8,0.7,3.8
			c-2.1,6.2-4.6,12.4-6.9,18.5L292.5,363.1L292.5,363.1z M244.3,276.9c8.3,0.3,21.7,11.8,24.3,20.4
			C258.9,292.5,251.3,285.5,244.3,276.9L244.3,276.9z M266.7,312.6c-0.7,0.4-1.4,0.9-2,1.3c-2.7-4.1-5.3-8.1-8-12.2
			c0.7-0.5,1.4-0.9,2.1-1.4C261.4,304.4,264.1,308.5,266.7,312.6L266.7,312.6z M246.1,263.2c6.4,0,11.9,6.4,12.7,14.3
			c-1.4-1.3-2.3-2-3.5-3.1c0.1,1.1,0.2,1.7,0.3,3.5c-3.6-2.4-6.6-4.5-9.6-6.5c0.1-0.4,0.3-0.9,0.4-1.3c2,0.1,4,0.2,6.1,0.4
			C250.5,268.2,248.4,265.9,246.1,263.2L246.1,263.2z M269.8,319.3c1.6-4.7,2.8-9.6,3.8-14.5c1.3-5.8-0.2-10.8-4.5-15
			c-4.9-4.9-5.8-9.1-1-13.9c8.5-8.7,18.1-16.3,27.8-24.9c3.8,17.4,4.3,33-3.8,47.9c-3.1,5.8-5.1,12.3-8.1,18.2
			c-2.7,5.2-6.3,10.1-9.5,15.1C267.6,327.2,267.4,326,269.8,319.3L269.8,319.3z M301.6,198.7c-0.5-1.3,1.3-3.8,2.5-5.5
			c1.8-2.5,4-4.8,6.3-7.6c-1.4,0.1-2,0.1-3,0.2c2-2.9,3.8-5.7,5.8-8.7c5.1,5.3,8.9,12.2,17.7,12.3c-4.2,10.7-17.5,18.8-29.6,18.7
			c-4.1,0-4.8-0.5-6-4.1c4.2-0.2,8.3-0.4,11.4-0.6C305.1,202,302.5,200.7,301.6,198.7L301.6,198.7z M382,175.4
			c1-0.3,2.6-0.4,3.1,0.2c4,4.2,7.8,8.6,11.6,13c0.5,0.6,0.5,1.8,0.5,1.8c1.2-0.2,2.8-1,3.3-0.6c0.9,0.7,1.8,2.4,1.5,3.4
			c-1.4,6.8-5.2,12.3-11.6,14.6c-14.1,4.9-28,3.6-40.3-5.4c-2.1-1.6-3.6-6.1-2.9-8.7c0.7-2.6,4-5,6.8-6.3c5.6-2.5,11.6-4,17.3-6.2
			c2.1-0.8,3.8-2.5,5.7-3.8c-10.8,3.6-21.2,9.5-33,9c-7.2-0.3-14.4-1.8-21.3-3.8c-2.7-0.8-4.8-4.2-6.8-6.7c-0.4-0.5,0-2.4,0.6-3
			c0.5-0.5,2.2-0.4,3,0.1c18.6,13.1,37.4,9.5,56.3,0.9c2.8-1.3,5.6-2.5,8.4-3.7c0.3,0.4,0.6,0.9,0.9,1.3c-2.7,2.1-5.4,4.2-8,6.3
			C378.7,176.9,380.3,176,382,175.4L382,175.4z M372.1,421.1c0.7,4.6,1.1,8.1,1.9,11.5c1.2,4.8,0.4,8.2-4.3,10.9
			c-1.6,0.9-2.4,4-2.9,6.2c-0.7,2.7-0.8,5.5-1.2,8.2c0.4,0.3,0.8,0.6,1.1,1c5.4-3.7,10.9-7.4,16.5-11.2c0.5,9.6-20.3,21.7-30.3,18.3
			c-3.2-3.9-6.4-7.8-9.5-11.8c-1-1.2-2.1-2.9-2-4.3c0.1-8.1,0.6-16.3,0.9-24.4c0-0.2,0.4-0.5,0.8-0.9c4.3,5,6.6,10.5,3.7,16.8
			c-2.5,5.3-1.3,8.9,3.1,12.4c2.6,2,4.4,4.9,7.3,8.1c1.5-2.7,2.8-4.3,3.1-6c0.8-4.9,1.3-9.9,1.8-14.8c0.2-2.9-1.6-4.1-3.7-6.2
			c-4.1-4-7.1-9.9-8.9-15.5c-1.3-4-0.8-9,0.2-13.3c4-17,14.8-22.9,33.3-18.4c2.9,0.7,5.8,1.7,8.5,2.8c7.2,2.8,9.6,6.6,7.2,14
			c-1.8,5.6-4.6,11.1-8.1,15.8C384.4,428.1,381.1,428.1,372.1,421.1L372.1,421.1z M389.3,529.6v27.3c-1.5-0.3-3.3-0.6-5.7-1
			c1.4-9.2,2.6-17.8,3.9-26.4C388.1,529.5,388.7,529.5,389.3,529.6L389.3,529.6z M297.6,366.8c-2.2-3.6,1.5-13.3,7.4-19.3
			C302.6,353.7,300.3,360,297.6,366.8z M298.4,391.9c-0.6,4-1.2,8-1.8,12c-0.6-0.1-1.2-0.2-1.8-0.4c0.6-4,1.2-7.9,1.9-11.9
			C297.2,391.7,297.8,391.8,298.4,391.9L298.4,391.9z M302.7,361.6c1.8-4,3.2-8,5.3-11.8c0.8-1.5,2.9-2.5,4.3-3.7
			c0.9,1.9,2.9,4.1,2.5,5.6c-2.2,8.5-5,16.8-7.6,25.4C298.9,370.4,298.9,370.3,302.7,361.6L302.7,361.6z M294.2,326.2
			c2.4-0.3,5-0.6,8.4-1c-2.9-5.9-5.3-10.7-7.9-16c3.6,2.2,7,4.2,10.3,6.2c10.8,6.4,22,7.1,33.4,1.6c5.8-2.8,11.3-6.2,16.9-9.3
			c-0.6-0.7-1.8-1.5-1.7-2.1c2.6-12.9,8.1-23.9,20.5-30.2c4.3-2.2,8.4-4.7,12.7-6.9c0.9-0.5,2.1-0.3,3.1-0.4c-0.2,1.2,0,2.6-0.6,3.4
			c-1.6,1.9-3.5,3.4-5.8,5.5c1.5,1.1,2.5,1.9,3.5,2.6c3.9,2.8,7.7,5.8,5.9,11.4c-1.7,5.1-5.5,8.1-10.9,9.1
			c-6.7,1.3-13.3,2.6-19.9,4.3c-2.1,0.5-3.8,2.3-5.7,3.6c12.5-5,25.3-8.2,38.9-5.8c2.6,0.5,5.1,1.7,7.5,3.3
			c-12.6-2.1-24.9-2.4-36.9,2.5c4.4-0.7,8.8-1.8,13.3-2.1c5.4-0.3,10.9,0,16.3,0.4c3.5,0.2,5.7,2.1,5.1,6c-0.2,1.5-0.3,2.9-0.5,4.9
			c-4-2.4-10.8,1.2-12.9-6.6c-0.3,1.5-0.6,2.8-0.9,4.4c7.7,2.9,16.9,2.2,23.8,9.8c-1.6-0.3-2.5-0.3-3.2-0.6
			c-12.2-5.4-24.6-5.4-37-1.2c-8.2,2.8-16.1,6.3-24.1,9.5c-3.9,1.5-7.8,3-11.6,4.6C318,343.7,305.7,335.8,294.2,326.2L294.2,326.2z
			 M315.1,227.2c-2.6,1.2-5.1,2.9-7.9,3.6c-3.2,0.8-8,2.1-9.7,0.6c-1.9-1.7-1.2-6.4-1.6-9.8c0.5-0.1,1-0.2,1.5-0.3
			c0.8,3.1,1.6,6.2,2.4,9.3c0.7-0.1,1.4-0.3,2.1-0.5c-0.7-3.1-1.4-6.1-2.1-9.2c5-2.6,9.9-5.4,14.9-7.8c7.2-3.5,12.6-8.6,15.5-16.2
			c0.4-1.1,1.1-2.1,1.6-3.1c1.1-2.6,3.1-3.9,5.5-2.4c1.2,0.7,2,3.3,1.7,4.8c-1.1,6.2-2.7,12.4-4.1,18.5c-0.4,1.9-0.7,3.9-0.9,5.4
			c10.5,6,20.7,11.8,30.9,17.6c3,1.7,6.1,3.4,9.2,5.1c6.9,3.8,13.1,2.9,18.6-2.6c0.9-0.9,2-1.7,3.6-3c4.5,4.1,8.8,8,13,11.9
			c0,0.5,0,1.1,0,1.6c-2.5,0-5.1,0.4-7.6-0.1c-22.8-4.2-44.6-10.9-63.8-24.4c-3.3-2.3-5.5-1.5-8.5-0.1c-8.8,4-17.6,7.8-26.5,11.5
			c-2.8,1.2-5.2,0.5-6.6-3.1c8.5,2.9,13-4.4,19.5-6.2C315.4,228,315.3,227.6,315.1,227.2L315.1,227.2z M360.6,232.3
			c-6.7-4-13.8-7.3-20.6-11.1c-1.2-0.7-2.6-2.7-2.5-4c0.9-8.4,2.1-16.7,3.2-25.3c0.5,0.4,0.7,0.5,0.7,0.6c0,16.7,11.7,22.5,25,26.6
			c6.2,1.9,12.6,3,18.8,4.9c3.1,0.9,6.7,2.3,6.5,6.5c-0.1,4.3-2.2,7.5-7.3,9.2c1.5-2.4,2.7-4.2,3.8-6
			C378.6,238.9,369.7,237.7,360.6,232.3L360.6,232.3z M320.3,253.7c-2.5,0.9-5.1,2.5-6.9,4.5c-2.1,2.2-3.6,1.7-5.5,0.1
			c-5.9-4.9-5.3-10.9,1.4-14.2c5.2-2.6,10.4-5.3,15.6-7.7c1.9-0.9,4-1.2,6.5-1.9C332.7,246.5,330.2,250.3,320.3,253.7L320.3,253.7z
			 M330.2,269.1c-0.2,0.2-0.5,0.3-0.7,0.5c-0.5,2.9-0.5,6.1-1.6,8.8c-0.8,1.9-3,4.1-4.9,4.5c-1.9,0.4-4.9-0.8-6.3-2.3
			c-5.3-6-5.5-10.7-1.4-16c3-3.9,7.4-4.6,11.2-3C328.4,262.4,329,266.5,330.2,269.1L330.2,269.1z M308.7,284.6
			c2.1,1.5,4.1,3.1,6,4.5c3.1-0.8,6.3-1.8,9.6-2.2c1.4-0.2,3.5,0.7,4.1,1.7c0.6,1,0,2.9-0.4,4.4c-0.2,0.9-1.2,1.7-1.3,2.6
			c0,1.3,0,3.4,0.8,3.8c1,0.5,3,0.2,4-0.6c0.6-0.5,0.6-2.6,0-3.7c-2.6-5.1-1.8-7.5,3.9-7.9c6.6-0.5,13.2-0.1,19.8-0.1
			c0.4,0.7,0.8,1.3,1.2,2c-4.1,7.5-7.4,15.7-12.7,22.3c-4.4,5.5-11.8,7.3-19.1,6.3c-6.8-1-9.5-6-10.5-12.2
			c-0.7-4.2-0.6-8.4-4.9-11.6c-1.9-1.4-1.5-5.7-2.2-8.7C307.5,285.1,308.1,284.8,308.7,284.6L308.7,284.6z M333.6,270.6
			c-0.1-9.4,2.3-11.5,10.5-9.3c2.3,0.6,4.6,1.8,6.6,3.2c3.7,2.5,6.8,5.6,4.9,10.7c-1.9,4.9-8.2,8.1-14.4,7.6
			c-5.1-0.4-6.3-4.2-7.2-8.2C333.7,273,333.7,271.3,333.6,270.6L333.6,270.6z M350.2,257.7c-3.6-2.3-7.7-4-11.2-6.4
			c-1.9-1.3-3.2-3.7-4.7-5.6c0.3-0.3,0.6-0.5,0.9-0.8c0-0.5,0-1,0.1-1.5c0.8-8.3,2.2-9.1,9.4-5.3c7.2,3.8,14.3,7.8,21.5,11.7
			c4,2.2,3.2,4.4,0.3,6.8C360.7,261.4,356.3,261.6,350.2,257.7L350.2,257.7z M369.9,258.6c4.2-3.1,10.3-2.4,13.2,2
			c0.7,1.1,0.4,4.1-0.5,4.7c-4.4,2.8-8.9,6.1-13.8,7.3c-4.8,1.2-6.6-3.9-9.1-7.4C363.5,262.8,366.8,260.9,369.9,258.6L369.9,258.6z
			 M419.9,382.9c-0.2,0.3-0.4,0.6-0.5,0.9c-1.7-1-4-1.5-4.9-3c-3-4.7-5.8-9.6-8-14.7c-2.6-5.9-4.4-12.1-6.6-18.2
			c2.4,11.8,5.4,23.3,12.7,33.1c2.1,2.8,4.9,5.8,9.6,2.3c1.4,2.3,2.7,4.5,4.4,7.5c-6.1-1.4-11.6-1.9-16.5-3.9
			c-2.9-1.2-6-4.2-6.9-7.1c-4.5-15.3-8.4-30.8-12.5-46.2c-0.2-0.9,0-1.9,0-4.5c2.3,2.5,3.7,3.9,5.1,5.4c-0.1-0.6-0.3-1.3-0.7-3.1
			c6.8,4.7,6.7,12.4,10.8,17.4c-1.4-4.3-2.9-8.5-4.3-12.8c0.2-0.1,0.4-0.2,0.5-0.3c11.9,20.2,23.8,40.5,36.1,61.3
			c-1.8,0.4-3.4,0.7-4.3,0.9c-2.9-6-5.1-11.7-8.1-16.9c-6.5-10.9-13.4-21.6-20.1-32.3C410.5,360.2,415.2,371.6,419.9,382.9
			L419.9,382.9z M373.9,358.1c-0.6-6.6-1-13.3-1.9-19.9c-0.7-5.3,1.3-7.8,7.4-7.9c1,3.9,1.9,7.7,2.9,11.5c0.2,0,0.4-0.1,0.6-0.1
			c-0.7-4.3-1.4-8.6-2-13l1.6-1c1.5,2,3.8,3.7,4.4,5.9c3.2,11.5,6.4,23.1,8.8,34.8c1.5,7.4-0.8,10.9-6,12.4
			c-7.3,2-16.1-0.6-18.4-6.1c-1.4-3.1-2.4-6.6-2.7-10c-0.7-9.5-1-18.9-1.3-28.4c0-1.6,0.9-3.3,1.3-4.9c0.4,0,0.8,0.1,1.2,0.1
			c1,9.8,2,19.6,3.2,29.4c0.4,3.3,1.2,6.6,2.4,9.6c1.7,4.4,5.2,6.1,11.1,6C376.3,374.4,374.7,366.5,373.9,358.1L373.9,358.1z
			 M350.7,340.5c0.6-2.2,2.4-4.1,4.3-7.1c1.9,3.9,3.3,6.7,4.6,9.3c0.1-2.5,0.2-5,0.5-7.5c0.1-1,1.5-1.7,2.3-2.6c0.7,0.9,2,1.8,2,2.6
			c-0.3,13.8-0.2,27.6-1.4,41.3c-0.3,3.5-4.4,7-7.3,10c-2.3,2.3-5.4,4-8.3,5.5c-5.5,2.9-9,0.6-8.2-5.6c0.6-4.9,1.8-9.8,3.1-14.6
			C344.9,361.4,347.7,350.9,350.7,340.5L350.7,340.5z M400.5,508.8c0.5-9.1,1.3-18.3,2.6-27.3c0.3-2.4,3.1-4.4,4.7-6.5
			c0.8,0.3,1.5,0.5,2.2,0.8c2.8,25.7,5.5,51.4,8.4,77.8c-5.9,0.5-11.3,1.3-16.7,1.3c-0.9,0-2.7-3-2.7-4.5
			C399.3,536.5,399.8,522.6,400.5,508.8L400.5,508.8z M413,444c2.1-0.6,4.1-1.2,6.1-2.1c1.9-0.8,3.7-1.9,5.9-3.1
			c1.9,4.6,3.6,8.9,5.5,13.8c-7.1,1.4-13.7,2.8-20.3,3.9c-0.9,0.1-2.7-1.2-3-2.2C405.6,449,407.7,445.4,413,444L413,444z
			 M418.4,540.7c-2.1-20.7-4.1-41.4-6.4-62.1c-0.6-5,1-7.2,6.5-7.5c0.5,4.3,1.1,8.7,1.5,13.1c1.8,20.9,3.4,41.8,5.2,62.7
			c0.1,1.6,0.8,3.1,1.2,4.6c-1.9,0.6-3.8,1.3-6.5,2.2C419.3,548.8,418.8,544.8,418.4,540.7L418.4,540.7z M409.5,468.9
			c-3.5-7.4-2.5-9.8,4.8-11.5c4-1,8.1-1.7,12.2-2.3c6.1-0.8,6.9-0.1,7.9,6.7C425.9,464.2,417.7,466.6,409.5,468.9L409.5,468.9z
			 M433.9,449.2c-2.8-5.2-5.6-10.5-8-15c-8,2.8-15.2,5.4-22.4,7.9c-0.2-0.5-0.4-1-0.6-1.5c5-5.2,9.9-10.5,15.1-16
			c4.3,6.7,13.1,8.6,15.6,17.1c2.3,7.6,6,14.8,9,22.1c0.1,0.2-0.2,0.6-0.7,1.9C437.4,460.6,436.6,454.4,433.9,449.2L433.9,449.2z
			 M432,371.2c-3.2-5.6-6-11.2-6.5-18.4c-0.4-7.2-4.5-14.3-7.3-21.3c-2.5-6.3-5.3-12.5-8.3-19.6c2.6-0.3,3.9-0.7,5.2-0.5
			c12.5,1.3,21.8-4.9,29.9-13.3c13.1-13.5,21-29.9,26-47.8c0.5-1.9,1.1-3.7,1.7-6.1c3.5,1.6,6.5,2.6,9,4.3c1,0.7,1.7,3.1,1.4,4.5
			c-1.9,9.1-4.2,18.2-6.2,27.3c-7.6,34.3-15.2,68.6-22.9,102.9c-0.8,3.5-1.7,7-2.8,11.6C443.3,387.4,437,379.8,432,371.2L432,371.2z
			 M408.3,232.9c-4.4-1.6-9-2.9-13.2-4.9c-1.6-0.8-3.4-3.2-3.4-4.8c0-1.9,2-3.7,3-5.2c5,4,9,8,13.7,10.8c4.5,2.6,9.8,4,14.8,5.9
			C418.1,236.7,413.2,234.6,408.3,232.9L408.3,232.9z M417.2,221.8c-0.7,1.5-3.1,3.5-4.2,3.2c-3.5-0.9-7.2-2.3-9.9-4.6
			c-2.8-2.4-1.7-6.1,0.1-9.2c1-1.7,1.9-3.5,2.7-5c3.5,3.9,6.8,7.4,9.8,11C416.7,218.5,417.7,220.7,417.2,221.8L417.2,221.8z
			 M322.1,446.7c-2.2-2.3-3.9-4.1-5.5-5.9c-0.1,0.3-0.1,0.6-0.2,0.9c-1.7-0.5-3.3-0.9-5-1.4c0.6,1.7,1.2,3.4,1.8,5.2v0.2
			c0.2,0.6,0.5,1.2,0.7,1.7l-0.1-0.2c1.2,2.6,2.4,5.3,3.8,8.3c-3-1.9-6.4-4-9.6-6.1c4.4,3.3,8.8,6.7,13.4,10.2
			c-0.4,0.9-1,2.5-1.2,3.3c-2.5-1.1-4.9-1.9-7-3.3c-6-3.9-9.8-9.2-8.9-16.6c0.9-7.1,2.3-14.1,7.7-20.5c1.6,3.5,3,6.6,4.5,9.8
			c-0.4,0.3-0.7,0.5-1.1,0.8c-2-1.3-3.9-2.6-6.3-4.2C311.2,436.5,322.4,436.7,322.1,446.7L322.1,446.7z M311.4,396.3
			c-1-0.7-2.2-2.5-2-3.5c3.2-15.7,7.5-31,15.9-44.9c0.5-0.9,1.6-1.4,3.5-2.9c-1,4.1-1.6,6.9-2.5,10.5c2-4.1,3.7-7.5,5.4-10.9
			c0.8,0.2,1.5,0.5,2.3,0.7c-1.3,5.9-2.6,11.8-3.9,17.7c0.2,0.1,0.4,0.1,0.6,0.2l8-18.8l1.6,0.5c-0.1,1.9-0.3,3.8-0.4,5.7
			c1.1-2.6,2.2-5.3,3.3-7.9l1.2,0.1c0.1,1.3,0.4,2.6,0.2,3.9c-2.5,11.9-4.8,23.8-8,35.5c-1.2,4.5-4.1,8.8-7.1,12.4
			C325.3,399.2,316.6,399.8,311.4,396.3L311.4,396.3z M341.7,467.9c0.6,6.9-5,11-7.9,16.4C334.5,478,338.9,473.3,341.7,467.9z
			 M345.7,470.9c2.8,1.6,3.5,3.8,0.8,6.8c-4.2,4.6-8.3,9.4-12.5,14.1l-1-0.9C337.2,484.3,341.4,477.7,345.7,470.9L345.7,470.9z
			 M340.3,456.8c-0.8-1.1-1.1-2.5-1.6-3.8c0.4-0.3,0.9-0.6,1.3-0.9c4.3,4.6,8.6,9.2,12.9,13.7c0,0,0,0,0,0c2.2,3.8,5.9,3.6,9.2,2.9
			c8.1-1.7,15.2-5.5,22.8-10.4c-0.6,1.3-0.9,3.3-2,3.9c-5.7,3.1-11.5,6-17.4,8.6c-7.4,3.3-11.5,2.4-16.9-3.5
			C345.6,464.1,343,460.4,340.3,456.8L340.3,456.8z M375,473.3c5.8,7.4,7.9,15.6,7.9,25.2c-6-6.3-12-12.6-18.6-19.6
			C368.2,476.9,371.3,475.2,375,473.3z M381.1,503.3c-11.1,14.2-15.7,30.9-21.8,48.3C358.4,537.1,374.3,502,381.1,503.3z M381,574.6
			c0-0.5-0.1-1-0.1-1.5c2.9-0.1,5.7-0.6,8.5-0.3c4.9,0.5,4.8-2,3.8-5.5h-8.6c0,0.1,0,0.3,0,0.4c1.8,0,3.5-0.2,5.3,0.1
			c1.1,0.2,2,1.1,3,1.8c-0.9,0.9-1.7,2.4-2.6,2.5c-3.1,0.3-6.2,0.1-9.3,0.1c-1.4-7.5-0.5-8.8,6.5-9.7c17.8-2.4,35.6-4.9,53.4-7.3
			c1.2-0.2,2.4,0.2,3.9,0.3c0.6-2.8-1.4-2.6-3.7-2.1c-8.8,1.7-17.6,3.8-26.5,5c-9.1,1.3-18.4,1.9-27.8,2.3c4.3-0.7,4.8-4,4.9-8.3
			c0.2-11.2,0.7-22.3,1.3-33.4c0.2-3.1,1.2-6.1,1.9-9.2c0.5,0,1.1,0,1.6,0v46.8c8.8-0.6,16.4-1,24-1.9c2-0.2,3.9-2.1,5.8-3.2
			c0,0,0,0,0,0.1c0.8-0.1,1.5-0.2,2.2-0.2c-1.2-6.3-2.8-12.5-3.4-18.8c-1.9-18.7-3.5-37.4-5.2-56.1c-0.6-7-0.1-7.6,9.8-9
			c0.4,1.1,1,2.3,1.1,3.6c3.1,23.4,6,46.8,9.2,70.2c0.6,4.6-0.4,7.1-5.3,7.7c-2.2,0.3-4.2,1.6-6.3,2.5c4.5-0.8,9.1-1.6,14.2-2.5
			c-3.3-27.1-6.6-53.9-9.8-80.6l1.9-0.4c0.8,2.7,1.9,5.4,2.3,8.2c4,26.7,8,53.3,11.9,80c0.1,0.5,0.1,1,0.2,1.5
			c1.5,11.7,1.6,12.2-9.8,14.1c-18.2,3.1-36.5,5.5-54.8,8c-2.6,0.4-5.4,0-8.1-1c10.6-3.6,21.7-2.6,31.7-4.2L381,574.6L381,574.6z
			 M527.8,231.6c4.3,6.1,4.7,12.6,3.3,19.5c-0.8,4-1.9,8-2.9,12.1c-0.7-0.2-1.2-0.3-1.2-0.3c1.2-8.4-2.7-15.5-6.2-22.6
			c-2.7-5.4-3.1-10.7-1.2-16.5c-1.7,2.5-3.5,5-5.2,7.5c-0.4-0.2-0.8-0.4-1.2-0.6c1.9-4.8,3.8-9.6,5.3-13.5
			C521.4,221.6,524.4,226.7,527.8,231.6L527.8,231.6z M521.8,94.2c0.2-0.6,0.4-1.1,0.6-1.7c4.8-0.3,9.2,0.4,12.9,5.8
			C530.2,96.8,526,95.5,521.8,94.2z M546.1,26.2v50.7c-0.4,0.1-0.8,0.1-1.3,0.2C543,60.1,545.4,43.1,546.1,26.2z M542.5,20.3
			c0.6,0.1,1.2,0.3,1.8,0.4c-1.5,18.6-3,37.2-4.5,55.9c-3.5-1.2-7.9-2.7-12.4-4.2C532.5,55.1,537.5,37.7,542.5,20.3z M522.3,72.4
			c5.7,1.9,11.5,3.9,18.4,6.2c-4.7,3.1-14.6-0.2-18.9-4.8C522,73.3,522.2,72.9,522.3,72.4z M534.8,85.4c-0.2,0.6-0.4,1.1-0.7,1.7
			c-3.4-1.2-6.7-2.5-10.1-3.7c0.2-0.6,0.5-1.2,0.7-1.8C528.1,82.8,531.4,84.1,534.8,85.4z M522,88.6c4.2,1.1,8.4,2.2,12.6,3.3
			c-0.1,0.5-0.3,1-0.4,1.5c-4.2-1-8.4-2-12.6-3C521.7,89.7,521.8,89.2,522,88.6L522,88.6z M523,100.7c0.1-0.3,0.4-0.5,0.8-1.1
			c1.2,0.2,2.7,0.5,4.5,0.8c-0.2,1.7-0.2,3.1-0.6,4.5c-3.7,15.9-7.5,31.8-11.3,47.6c-1.8,7.8-3.8,15.5-5.6,23.3
			c-0.8,3.4-2.5,4.5-5.6,2.1C511.2,152,517.1,126.3,523,100.7L523,100.7z M494.6,180.5c5.6-1.5,10.7,0.6,13,1.6c0,0,4.4,1.8,9,6.7
			c0.8,0.8,1.8,2,1.5,3.4c-0.1,0.7-0.5,1.2-1.1,1.6c1.4,2.4,2.3,6.7,0.6,8.1c0.1,2.2-1.6,5.7-2,6.6c-1,2.2-1.9,2.9-2.2,5.1
			c-0.4,2.1,0.2,2.8-0.5,3.7c-1.2,1.8-4.7,1.5-6.5,1.3c-2.5-0.2-2.5-0.8-9-3.1c-3.2-1.1-4.7-1.6-5.5-3.2c-0.5-1-0.6-2.4,0-3.1
			c0.8-0.8,2.3-0.4,3.1-0.1c5.1,1.3,12.3,2.2,12.7,1.2c0.2-0.5-1.1-1.5-1.9-2c-1.9-1.2-3.5-1-5.9-1.4c-1.9-0.3-7.1-1-7.8-3.5
			c-0.3-0.9,0-2,0.7-2.7c1.1-1.3,3-0.9,9.4-0.1c3.9,0.5,5.9,0.7,6.8,0.7c1.2-0.1,2,0.1,2-0.2c0.1-0.5-2.4-1.7-4.7-2.5
			c-2-0.7-1.9-0.3-4.1-1c-2-0.7-2.7-1.2-4.3-1.3c-1-0.1-1,0.1-2.5,0.1c-2.3,0-4.4,0-5.2-1.2c-0.5-0.7-0.7-1.9-0.2-2.8
			c1.5-3.1,10-4.1,16.3-1.1c1.6,0.8,5.6,3,6.4,2.1l0,0c-0.3-0.2-0.7-0.3-1-0.5c-4.3-2.5-4.6-4.5-8.3-5.6c-0.7-0.2-1-0.2-3.6-1
			c-1.8-0.5-2.2-0.7-3-0.7c-1.3,0-1.4,0.4-3,0.5c-1.3,0.1-2.4,0.2-3.3-0.6c0,0-1-0.9-0.9-1.8C489.7,181.9,493.9,180.8,494.6,180.5
			L494.6,180.5z M480.1,201.5c3.1,2.8,7.1,5,4.3,10.5c-0.7,1.4,0.4,4.7,1.8,5.8c3.1,2.4,2.5,5,1.8,7.9c-1.1,4.7-2.1,9.4-3.1,13.9
			c-4.6-5.6-8.6-10.1-11.5-13.2c-5.7-6.2-8-8.2-8.6-7.8c-0.5,0.4,0.2,2.5,0.6,3.4c0.8,1.8,2,3,2.3,3.3c2.1,2,6,5.9,11.2,11
			c-1.2,0-3.1,0.3-5.1-0.5c-7.6-3.2-14.5-7.4-19.2-14.5c-2.9-4.3-2.6-5.8,1.4-8.8c-4.2-2.1-8.8-3.8-12.8-6.3
			c-5.4-3.4-5.4-6.6-1.1-11.4c6.5-7.2,20-8.3,27.8-2.1C473.5,195.4,476.8,198.5,480.1,201.5L480.1,201.5z M423.6,140.3
			c10.6,1.4,22.5,1.6,31.3,10.2c-10.1-5.4-20.6-6.4-31.2-2.1c-4.1,1.7-7.9,4.2-11.5,6.8c-4.1,2.9-4.1,5.2-0.4,9.8
			c-3.8-5.8,0.2-8.2,4.3-10.4c7.9-4.1,16.1-6,25.1-5c6.9,0.8,11.6,5.1,16.6,9.3c-3.4-0.5-6.8-1-10.2-1.5c5.5,5,16.6,1.7,16.3,13.1
			c-8,1.2-16.5,2-24.7,3.9c-10.8,2.5-21.3,5.2-32.3,0.9c7.6,5.6,15.8,3.8,24,2.3c9.6-1.8,19.3-3.5,29-4.7c5-0.6,9.9,0.7,13.4,4
			c-8.1,0-16.4-0.6-24.6,0.2c-6.6,0.6-13,2.9-19.4,4.5c-13,3.1-24.8,0.6-35-8.2c-6.6-5.6-7.3-12.2-1.7-18.8
			C400.6,145.1,411.5,138.6,423.6,140.3L423.6,140.3z M410.7,107.8c2.6-0.5,5.8-0.6,6.9,3.9c-3.2-0.2-6.1-0.4-9.3-0.6
			c0.8,2.1,1.4,4,2.1,5.9c-0.4,0.3-0.8,0.7-1.2,1c-3.5-3-7-5.9-11-9.3v3.1c-0.4,0-0.8,0.1-1.2,0.1c-0.8-5.1-1.7-10.1-2.5-15.2
			c0.6-0.2,1.2-0.3,1.8-0.4c0.6,1.2,1.3,2.5,1.9,3.7C400.5,105.7,403.9,109.2,410.7,107.8L410.7,107.8z M390.5,102.7
			c2.2,4.2,4.3,8.3,6.7,12.9C390.1,112.4,388.5,109.1,390.5,102.7z M388.3,84.9c5.6,1.2,12.2,0.2,14.8,7.3
			C398,90,391.7,90.3,388.3,84.9z M367.7,41c19.1-5,39.3,9.4,40.1,28.9C400,51.8,387.9,41.3,367.7,41z M430.5,76.2
			c4.3,2.2,7.9,4,12.1,6.1C437.7,84.5,435.6,83.4,430.5,76.2z M446.6,75.3c-0.2,0.6-0.4,1.1-0.6,1.7c-3.5-1.2-7-2.3-10.4-3.4
			c0.2-0.7,0.5-1.4,0.7-2.1C439.7,72.7,443.2,74,446.6,75.3L446.6,75.3z M453.4,65.2c-0.4,0.7-0.7,1.3-1.1,2c-2.7-0.5-5.4-1-8-1.6
			c-7.7-2-15.4-4.3-23.1-6c-4.4-1-6.2-3.5-6.8-7.5h23.4c0,0.4,0,0.8,0,1.3h-17.5c0,0.6,0,1.2-0.1,1.8h18.4c0,0.7,0,1.5,0,2.2
			c-3.3-0.2-6.5-0.2-9.8-0.5c-3.3-0.2-6.5-0.7-10,0.2c4.5,0.8,9.1,1.5,13.6,2.2c5.6,0.9,11.2,1.5,16.7,2.7
			C450.8,62.2,452,64,453.4,65.2L453.4,65.2z M440.4,52.7c6.9-2.5,10.9-0.3,11.4,6.1C443.4,59.7,441.9,58.9,440.4,52.7z M449.6,46.2
			c0.7,1,1.4,2,2,2.9c-0.9,0.5-1.9,1.5-2.8,1.5c-2.5,0-5-0.1-7.4-0.6c-1-0.2-1.8-1.7-2.7-2.6c0.2-0.5,0.4-0.9,0.6-1.4
			c2.7,0.2,5.4,0.4,8,0.6c-1.6-0.5-3.1-1.3-4.7-1.3c-3.9,0-5.8-1.9-6.3-5.5C445.3,36.2,448.7,37.8,449.6,46.2L449.6,46.2z
			 M436.7,24.8c2,1.6,4.3,3.2,6.3,5.1c2.8,2.6,1.5,5.1-1.4,6c-3.3,1-7.4,3-9.3-2.6c-0.5-1.5-2.2-2.6-3.7-4.1
			C431.6,27.6,434.1,26.3,436.7,24.8L436.7,24.8z M357.5,10.6c1.2,3,2.1,5.2,3,7.4c0.2-0.1,0.4-0.1,0.5-0.2
			c-0.9-2.8-1.8-5.5-3.1-9.6c6.7-1.4,13.1-2.9,19.7-4c3.4-0.6,6.8-0.9,10.2-0.9c1,0,2.1,1.3,3.1,2c0,0,0,0,0-0.1
			c0,0.2-0.1,0.4-0.1,0.6c0-0.2,0.1-0.3,0.1-0.6c3.8-4.1,7.6-0.4,12.3-0.2c-2.1,2.8-3.7,5-5.3,7.2l0,0c-1.1-0.5-2.2-1.1-3.4-1.3
			c-3.4-0.4-4.4-2.2-3.7-5.1c-1.5,5.4-6,3.2-10,3.3v19.1c0.5,0,1,0,1.6,0V9.6c2.9,0.7,4.7,1.2,6.3,1.6c-0.7,6.3-1.3,11.9-1.9,17.5
			c0.6,0.1,1.1,0.1,1.7,0.2c0.6-5.9,1.2-11.8,1.8-18c2.9,0.5,5.3,0.9,7.7,1.2c0,2,0,4,0,5.6c0.6-1.1,1.6-2.8,2.4-4.5
			c2.5-5.9,6.9-7.6,13.1-5.1c-0.5,1.1-1,2.2-1.9,4c6.4-1.6,12.5-3,14.2,5.4c4.4-1.3,6.1-0.4,9.7,5.1c-5.7,5.3-6.2,5.3-14.2-0.9
			c0.6-0.9,1.3-1.8,1.9-2.7c-3,1.9-5.8,1.2-8.7-0.4c-3.7-2.1-7.7-3.8-12.1-5.9c-2.8,6.1-5.3,11.8-7.9,17.5c0.5,0.2,1,0.5,1.5,0.7
			c1.5-3.6,3.1-7.2,4.6-10.8c2.4-5.9,2.4-5.9,8-3.1c1.3,0.6,2.4,1.5,3.6,2.2c-0.1,0.2-0.2,0.4-0.3,0.6c0.2-0.2,0.3-0.3,0.5-0.5l0,0
			l-0.1-0.1c2.2,1.5,6.5,1.1,5.1,5.8c4.1-2.8,5.6,0.8,7.6,3.1l1.9,3c-6.1,2.6-12.3,5.1-18.4,7.7c1-1,1.9-2,3.1-2.7
			c3.8-2.4,7.8-4.7,11.7-7c-5,2.5-10,4.9-14.9,7.5c-0.4,0.2-0.2,1.5-0.2,2.5L408,39c0,0,0.1,0.1,0.1,0.1l0,0l0,0
			c0.6,0.7,1.3,1.5,2,2.2c1-0.7,2-1.5,3.1-2.2c4.6-2.7,9.2-5.4,13.8-8.1c0,0,0,0,0,0c1.7,1.5,3.4,3.1,5.8,5.3
			c-6.8,2.4-12.6,4.5-18.4,6.3c-1.1,0.3-2.4-0.2-3.6-0.4c1.2,0.6,2.5,1.9,3.5,1.7c4.5-1.1,9-2.5,13.3-4.2c4-1.6,6.8-1.4,7.5,3.9
			c-6.2,1.3-12.5,2.6-18.8,3.9l0.1,1.4c1.3-0.1,2.5-0.2,3.8-0.4c4.2-0.8,8.5-1.6,12.7-2.7c3.5-0.9,5,0.2,4.8,4
			c-6.5,0.3-12.9,0.5-19.3,0.9c-1.3,0.1-2.6,0.6-4,1c0,0,0,0,0-0.1c-1.7-1.7-3.5-3.2-5.1-5c-9.5-10.2-21.6-13.9-35-14.5
			c-2.5-0.1-5-0.1-7.5,0c-6.3,0.2-12.6,0.6-16.2-6.4c0.1,0.9,0.3,1.7,0.4,2.8c-2.7-2.2-5.2-4.3-7.7-6.4c-0.3,0.3-0.6,0.5-0.9,0.8
			c2.1,3.3,4.2,6.7,6.3,10c-0.3,0.3-0.6,0.5-0.9,0.8c-4.1-3.2-8.2-6.5-13.3-10.5C342.5,19,349.8,14.9,357.5,10.6L357.5,10.6z
			 M324.4,37.4c1.5-0.6,3-1.5,4.6-1.6c2.3-0.2,4.7-0.1,7,0.4c13.2,2.9,26.5,5.4,39.5,9c14.8,4.1,23,14.5,25.1,29.7
			c0.4,2.7,1.2,5.4,2,8.7c-11.1-3.8-22.7-5.1-32.5-12.1c-11.7-8.4-25.4-10.4-39.6-9.4c-0.1-0.5-0.1-1-0.2-1.5
			c2.8-0.6,5.6-1.6,8.5-1.7c13.2-0.4,24.6,4.5,35.4,11.7c4.2,2.8,8.8,4.9,13.5,6.8c-3.7-13.5-12.5-22.3-25-27.6
			c3.2,2.8,6.5,5.5,9.5,8.6c3,3.1,5.6,6.5,7.9,10.1C365,61.6,350,56,333.1,56.6v-6.1c5.2-1.2,10.2-2.5,16.5-4
			C342.1,37.5,332.9,39.2,324.4,37.4L324.4,37.4z M340.8,125.5c-5.4,0-6.6-3.2-3.7-8.2c-0.5-0.5-1.1-1.1-2.1-1.7
			c-0.9-0.5-1.4-0.6-1.5-1c-0.1-0.7,1.6-1.5,2.7-1.8c2.9-0.9,5.9,0.2,7.8,1.3c0.2-0.3,0.5-0.8,0.4-1.3c-0.3-1.6-3.5-2.4-6.3-3
			c-3.7-0.9-6-0.8-6.1-1.7c-0.1-0.4,0.4-0.8,1.3-1.6c1.8-1.7,2.6-1.7,3.2-2.8c0.6-1.2,0.4-2.6,0.3-2.6c-0.1,0-0.2,0.7-0.9,1.5
			c-0.3,0.3-0.6,0.8-1.1,0.9c-1,0.3-1.5-0.7-2.7-0.8c-1.3-0.2-1.6,0.9-3.2,1c-1.3,0.1-2.8-0.4-3.5-1.3c-1.2-1.5-0.3-3.9,0.2-5.2
			c1.3-3.7,2.8-8.3,4.6-14.9c0.5,1,1.4,2.4,2.8,3.8c0.5,0.5,1.4,1.4,2.8,2.2c1.1,0.6,4.4,2.5,8,1.3c3.2-1.1,4.7-3.9,5.1-4.6
			c1.4,0,2.7,0.1,4,0.1c-0.4-0.8-1.1-1.9-2.3-2.9c-1.4-1.2-2.7-1.8-3.6-2.1c1.6,0,3.6,0.2,6,0.8c1.5,0.4,2.9,1,3.9,1.5
			c-0.6-2.9-1.9-4.3-2.7-5c-4-3.5-10.9-1.8-18-0.2c-2.5,0.6-4.9,1.4-4.9,1.4c-1.5,0.5-2.6,1-3.5,1.4c0.2-1.5,0.5-3.1,0.9-4.8
			c0.5-2.6,1.1-5.1,1.8-7.5c17.9,1.6,30.4,6.8,33.5,11.3c1.3,1.9,2,4.6,2.1,6.9c0.2,3.8,0,5.3,1.2,7c1.9,2.5,5.8,2.8,6.1,2.3
			c0.1-0.2-0.8-0.6-1.5-1.8c-1.4-2.2-0.8-4.8-0.6-5.4c0.6-2.6,2.3-4.5,2.5-4.4c0.2,0.1-0.5,1.2-0.6,3.1c0,0.3-0.3,4.6,1.9,5.8
			c1.1,0.6,2.3,0.2,4.8-0.7c3.4-1.1,4.6-2.3,5.1-1.9c0.8,0.7-0.6,4.6-3.5,7.1c-3.3,2.8-7.5,2.6-8.9,2.5c-2,11.6-10.8,17.8-20.2,23
			C348.8,124.4,344.6,125.5,340.8,125.5L340.8,125.5z M340.1,164.4c-4.4-1.1-7.7-4.4-7.8-9.8c3.8,5.8,9.3,8.1,15.8,8.7
			c2.5,0.2,4-0.4,4.8-3c2.5-7.9,5-15.9,8-23.6c2-5.2,4.9-10.1,7.5-15c2.1-3.8,4.4-7.4,6.7-11.1c0.8-1.3,1.7-2.6,3.1-4.8
			c6.9,14.3,11,29.6,28,34.1c-8.6,9.2-19.4,12.6-30.1,15.9c-3.2,1-5.2-0.3-4.7-4.1c0.2-1.6,0.4-3.3,0.7-5.5
			c-5.5,5.8-10.6,11.2-16.3,17.2c4.5-1.3,8.4-2.5,12.3-3.5c6.2-1.6,12.5-3.1,18.7-4.6c1.2-0.4,2.4-0.7,3.2-1
			c-1.8,4.6-3.6,9.3-5.4,14c-1.8,0.7-4,1.4-6,2.4c-12.8,6-25.9,10.7-40.4,8.3c-8.9-1.5-16.3-5.6-19.5-11c1.6-1.2,3.2-2.4,5.2-3.8
			c-0.5-1.2-2.2-3.6-2.1-5.9c0.1-2.1,2-4.2,3.6-7.1c4.7,7.5,8.1,15.1,16.6,16.2c5.5,0.7,11.3-0.2,17-0.4
			C352.8,166.2,346.3,165.9,340.1,164.4L340.1,164.4z M270.8,193.3c1.6-1.3,3-3.3,4.8-3.9c5-1.8,10.2-3,15.3-4.4
			c2.9-0.8,4.7-2.1,5.5-5.5c1.1-5.1,3.2-10,3.9-15.4c-1.4,3.7-2.7,7.4-4.2,11.1c-1.7,4-4.7,6.6-9,6.9c-3.8,0.2-7.7-0.4-11.6-0.6
			c0-0.5,0-1.1,0.1-1.6c5.5-0.8,10.9-1.5,16.4-2.3c-0.1-0.5-0.1-0.9-0.2-1.4c-3.2,0.2-6.4,0.5-9.6,0.6c-3.5,0.1-4.4-1.5-3.2-4.8
			c2.4-6.6,7.1-11.3,12.9-14.8c4-2.4,8.7-3.6,12.9-5.7c2-1,3.6-2.7,5.7-4.3c-0.1,1.3-0.3,2.5-0.5,4.4c5.9-5.1,10.6-10.7,18.5-10.9
			c-10.1,4.1-13.3,13.4-17.3,22.2c-2.4,5.4-5,10.9-8.4,15.6c-4.1,5.6-10,9-16.9,10.8c-4.8,1.3-9.3,3.4-14,5.1
			C271.4,194,271.1,193.6,270.8,193.3L270.8,193.3z M273.4,185.2c5.6-3.8,12.5-0.8,18.4-3.2c0.1,0.5,0.2,1,0.3,1.5
			c-6,1.2-12.1,2.4-18.1,3.6C273.7,186.5,273.5,185.9,273.4,185.2L273.4,185.2z M259.5,231c3.9-4.9,7-10.5,10.6-15.8
			c1.2-1.7,2.7-3.2,4-4.7c3.7,2.5,7.2,4.4,10.1,7c1,1,1.2,3.8,0.6,5.5c-3.1,9.2-6.8,18-13.9,25.1c-1.8,1.8-2.5,4.7-3.7,7.1
			c-1.3,2.5-2.6,5-3.9,7.5c-0.5-0.1-1-0.2-1.6-0.3c-1.3-4.4-1.8-9.3-4.1-13C253.2,242.4,254.8,237,259.5,231L259.5,231z
			 M253.8,250.4c-8.6-2-17.4-3-22.9-11.1C236.3,236.2,252,243.7,253.8,250.4z M240.2,227.2c-9.8-2.8-19.1-5.5-28.5-8.1
			c0.1-0.4,0.2-0.7,0.3-1.1c4.7-0.9,9.4-2.2,14.2-2.7C232.8,214.6,238.3,219.3,240.2,227.2L240.2,227.2z M223.6,208.3
			c-3.7,0.2-6.5,1.1-8.8,0.3c-6.6-2.3-13.4-4.4-18.4-11.4C206.7,198.5,215.9,199.3,223.6,208.3L223.6,208.3z M193.3,181.4
			c4.1,2.4,8.8,3.8,13.1,5.9c2.6,1.3,4.9,3.1,6.9,5.4c-15.5,4.1-25.1-8.6-37.8-12.4C181.8,178,187.5,178,193.3,181.4L193.3,181.4z
			 M184.4,168.4h-31.2C158,159.4,172.9,159.6,184.4,168.4z M182.5,194.8c25.7,22.3,43.9,49.6,54.7,82.1c6.5,19.4,9.8,39,11,59.2
			c0.3,5.3-1.6,8.7-5.8,11.7c-18.1,13.2-37.7,18.5-59.9,13.6c-10.1-2.2-20.2-4.2-30.4-6.1c-2.9-0.5-4.2-1.4-4.1-4.8
			c0.4-19.6,0.2-39.3,0.8-58.9c0.3-9.9,1.9-19.7,3-29.6c8.1,19.6,10.2,40.6,11.4,62c4-27.1-1.6-78.5-19-91.3
			c-0.2,1.3-0.5,2.5-0.9,4.6c-1.8-1.3-3.6-2.1-4.6-3.4c-6.9-9-13.7-18-20.2-27.3c-1.9-2.8-2.7-6.4-3.7-9.8c-2-7.2-3.6-14.5-5.6-21.8
			c-0.7-2.6,0.1-3.8,2.5-4.3c1.8-0.4,3.6-0.6,5.4-0.6C142.6,169,164,178.8,182.5,194.8L182.5,194.8z M80.9,319
			c-0.2-0.1-0.4-0.2-0.6-0.2c4.4-16.3,9-32.6,13.2-49c4.2-16.3,8.2-32.6,12.2-49c0.6,0.1,1.2,0.2,1.8,0.4c0,1.7,0.3,3.5-0.1,5.1
			c-4.2,18.3-8.4,36.6-12.9,54.8c-3,12.3-6.3,24.5-9.7,36.6c-0.7,2.6-1.1,6.8-5.8,3.4h3.7c0.4-1.9,0.9-3.8,1.6-7
			C82.7,316.5,81.8,317.8,80.9,319L80.9,319z M90,314.3c1.5,0.8,3.1,1.6,5.2,2.7c-0.9,1.7-1.9,3.3-2.9,5.2c-1.5-1-2.7-1.9-3.8-2.6
			C89,317.9,89.5,316.2,90,314.3L90,314.3z M121.7,301.1c0,15.6-0.4,31-1.9,47.2c-9.5-2.2-18.5-4.2-27.4-6.3
			C95.6,324.7,106.2,303.5,121.7,301.1L121.7,301.1z M111.2,293.2c-14.1-6.6-13.7-6.5-10.1-21.5c3.5-15,6-30.3,9-45.4
			c0.3-1.5,1.2-2.8,1.8-4.2c1.4,0.7,3.3,1.1,4.1,2.3c6.4,9.2,13,18.4,18.8,28.1c2.2,3.6,2.4,8.5,3.5,12.8
			c-0.9,9.3-3.6,17.6-9.6,24.5C123.6,295.5,118.2,296.5,111.2,293.2L111.2,293.2z M130.9,241.3c-4.6-6.3-9.4-12.4-13.9-18.8
			c-1.2-1.8-1.3-4.3-1.9-6.4c-0.6-2.5-1.2-4.9-1.9-7.7c5.3,1.4,21.3,23.4,22.5,30.5c-1-0.7-1.9-1.4-2.8-2.1c1.5,2.7,3.1,5.4,4.4,8.2
			c0.9,2.2,1.4,4.5,1,7.3C135.8,248.7,133.5,244.9,130.9,241.3L130.9,241.3z M142.4,150.8c3.6-0.1,6,1.5,6.6,6.1
			c-9.8,1.8-19.5,3.6-29.3,5.4c-0.2-0.5-0.3-1.1-0.5-1.6C124.5,152,133.3,151,142.4,150.8L142.4,150.8z M112.7,150.3
			c3.2-1.8,6.8-2.6,10.2,0c-5.8,3.4-11.2,6.6-16.8,9.8C106.8,155.9,108.8,152.4,112.7,150.3z M99.5,169.3c1.7,0.6,4.1,0.7,5.1,1.9
			c1.9,2.4,3.7,5.2,4.4,8.2c3.2,12.1,3.3,24.3,0.5,37.1c-5.9-1.5-11.6-3.2-17.3-4.5c-7.5-1.6-15.1-2.6-22.5-4.3
			c-3-0.7-4.2,0.5-5.3,2.6c0-7.7,1.5-9.1,10-9.5c-2.8-0.3-4.9-0.5-7.7-0.8c1.1-3.4,2-6.5,3-9.7c10.7,3.7,21,7.2,31.3,10.8
			c1.7-9.1,1.2-17.9-2-26.5C98.5,173,99.3,171.1,99.5,169.3L99.5,169.3z M63.6,148.8c2.8,1.8,5.5,3.3,7.9,5.2
			c7.8,6.2,15.5,12.6,23.1,19.1c3.9,3.4,5.8,12.4,3.3,18.1c-5.2-7.3-9.5-14.4-14.8-20.4c-5.3-6.1-11.6-11.2-18.1-16.4
			c2.6,13.9,8.8,26,19.6,37.1C68.8,188.5,61.2,163.2,63.6,148.8z M62.4,190.1c-0.8,0.9-2.3,1.1-3.8,1.1c-3.6,4.5-0.1,15.9,5.7,19.1
			c-2.2-0.3-4.8,0.2-6.3-1c-11.3-8.6-12.8-14.6-4.8-26.6c1.3-2,3.5-3.4,5.2-5C65.6,182.9,66.4,185.3,62.4,190.1L62.4,190.1z
			 M45.6,186.1c-0.3-4.8,6.1-9.6,13.7-11.2c-10.8,6.2-12.6,16.8-13.4,27.7c-0.6,7.1-0.8,14.4-5.8,20.2c-1,1.2-2,2.5-4.1,5
			c-0.9-3.8-2.4-6.4-1.9-8.5c1.2-5.4,2.9-10.9,5.3-15.9C42,197.9,46.1,193.1,45.6,186.1L45.6,186.1z M42,186.9
			c0.2,8.6-5.5,11-10.1,15c-0.8-2.1-1.5-3.8-2.3-6.1C33.2,193.1,37.1,190.4,42,186.9z M21.9,190.3c-3-3.3-6-6.7-9-10
			c0.3-0.4,0.7-0.7,1-1.1l9.7,9.2L21.9,190.3L21.9,190.3z M10.6,175.7c-1.9-0.8-3.4-2.5-5.1-3.8l1.1-1.5
			c10.9,3.8,21.8,7.6,32.7,11.4c0,0.9-0.1,1.8-0.1,2.7c-1.7,0.2-3.7,1.1-5.2,0.6C26,182.1,18.3,178.9,10.6,175.7L10.6,175.7z
			 M29.5,253.6c-4-7.1-1.9-13.6,2.7-20.5c1.8,5.9,3.5,11.1,5.7,18.2c5.6-11.4,10.6-21.6,15.7-31.7c0.5-1.1,1.5-2.5,2.4-2.6
			c1.3-0.1,2.6,0.9,4,1.6c2.8-2.4,4.6-2.5,6.7,0.9c0.3-0.1,0.7-0.2,0.9-0.4c4.8-6.6,9.4-7.7,16.6-3.6c0.9,0.5,1.5,2.4,1.3,3.5
			c-0.5,3.1-1.6,6.1-2.1,8.2c1.7,2.9,4.2,5,4.2,7.3c0.3,7.7-0.9,8.3-8.8,8.4c-4.6,0.1-9.1,1-13.5,1.6c0.8-5.1,2.9-8.1,18.1-9
			c-8.4-0.2-16.7-0.1-24.6,3.6c-2.6,1.2-5.4,10.8-3.2,12.3c4,2.6,2.8,6.3,3.2,9.7c0.4,2.7,0.5,5.5,0.8,8.2c0.6,0.4,1.1,0.7,1.7,1.1
			c2.2-3,4.5-6,6.7-8.9c0.2,0.3,0.5,0.5,0.7,0.8c-1.2,9.4-2.4,18.8-3.7,28.2c0.5,0.1,1,0.1,1.5,0.2c2.9-5.7,3.4-11.8,2.5-18
			c-0.5-3.1,0.2-4.9,3.2-6.2c11.2-4.9,16.1-14.2,17.9-25.8c0.7-4.8,1.8-9.5,2.9-14.2c0.9-3.9,2-7.7,7.9-5.9
			c-1,34.1-15.9,65-23.3,96.9c-15.3-2.5-30-4.9-45.8-7.5c3.2-0.6,5.7-1.8,8-1.4c10.8,1.8,21.5,4.1,32.2,6.2c1,0.2,1.9,0.5,2.9,0.7
			c1.1-3.4,1.1-3.6-1.9-4.1c-6.6-1-13.3-1.8-20-2.7c-2.1-0.3-5,0.4-5-3.3c0-0.8-1.2-1.5-1.8-2.2c-1,1.3-2,2.5-3.1,4h-8.9
			c-0.6-6.5-0.3-6.8,5.4-6.3c4.8,0.5,9.6,1,14.7,1.3c-5.8-1-6.1-4.5-5.5-9.3c1.2-9.5,1.8-19.1,2.7-28.7c-0.5-0.1-1.1-0.1-1.6-0.2
			c-1,8-2,16-2.9,24c-0.1,0.7-0.1,1.3-0.2,2c-0.9,10.1-1.4,10.5-12,8.2c0.2-4,0.4-8.1,0.6-12.2c0.5-10.5-0.5-20.6-5.3-30.2
			C29.9,254.8,29.8,254.2,29.5,253.6L29.5,253.6z M77.7,247.5c-2.6,0.7-5.2,1.4-7.8,2.1l-0.6-2.1c1.7-3.4,4.9-2.4,7.9-1.6
			C77.3,246.4,77.5,246.9,77.7,247.5L77.7,247.5z M55.5,370.5c-1.9,2.2-3.7,2.7-6.5,1.5c-5.1-2.2-8.2-6-10.1-11.1l0,0l0,0L39,361
			c0,0,0-0.1,0-0.1c0,0,0,0,0,0c-1.4-2.6-2.9-5.2-4.5-8.1c0.2-0.1-0.8,0.7-1.8,0.8c-1.6,0.2-3.7,0.4-4.8-0.4c-1.2-0.9-2.2-3.1-2-4.5
			c1.9-10.1,4.1-20.2,6.5-30.2c0.3-1.2,2.5-2.5,4-2.6c3-0.2,6.9-1,6.8,4.2c4.6-2.3,8.8-4.4,11.5,1.8c0.3,0.7,2.6,0.9,3.9,0.6
			c1.9-0.4,3.6-1.3,6-2.2c0.6,7.7-5.9,10.8-9.3,17.1c3-1.3,5-2.3,7-2.9c1.8-0.6,3.8-0.7,5.6-1c0.1,1.7,0.3,3.4,0.3,5.1
			c0,0.6-0.2,1.3-0.2,1.9c-3-1-5.9-1.9-9.4-3C64.7,348.3,63.3,361.3,55.5,370.5L55.5,370.5z M77.8,367.4c-1.3-3.4-2.5-6.9-3.7-10
			c-5.2,6.9-5.2,18.5-15.4,22.8c3.7-7.7,7.2-15.4,11-23c0.8-1.6,1.9-3.2,3.1-4.5c2.3-2.5,4.4-1.9,5.1,1.3c0.9,4.2,1.5,8.4,2.2,12.6
			C79.4,366.9,78.6,367.2,77.8,367.4L77.8,367.4z M83,341.7c-1.3,1-2.6,2.1-3.9,3.1c-2,2.6-4,2.5-6.1,0.1c-4.7-5.2-1.2-16.9,5.7-18
			c1.6-0.2,4.2,1.7,5.4,3.4c1.3,2,2.1,4.7,2,7C86.1,338.8,84.1,340.3,83,341.7L83,341.7z M119.4,367.7c-12.4-2.6-23.7-6.2-33.2-13.8
			c0.3-0.9,0.5-1.7,0.8-2.6c10.7,2.8,21.4,5.6,32.5,8.5V367.7L119.4,367.7z M92.3,347.3c0.1-0.4,0.1-0.9,0.1-1.3
			c1.9,0.2,3.9,0.3,5.8,0.7c25.4,5.2,50.8,10.6,76.2,15.8c4.7,1,9.5,1.6,14.3,2.5c21.8,3.9,40.3-3.3,57.1-16.5
			c4.8-3.7,9.4-7.6,14.1-11.5c0.3,0.3,0.6,0.6,0.9,0.9c-2.9,3.2-5.6,6.8-8.8,9.6c-17,14.7-36.5,23.4-59.3,21.3
			c-10.4-0.9-20.6-3.6-30.9-5.8C138.7,357.9,115.5,352.6,92.3,347.3L92.3,347.3z M173.2,368.7c-0.1,0.6-0.2,1.2-0.3,1.7
			c-14.1-1.1-28.1-2.2-42.2-3.4c-2.3-0.2-5.3-0.4-4.4-4.9C141.9,364.2,157.5,366.5,173.2,368.7L173.2,368.7z M105.2,481.4
			c7.3,1.7,15,2.3,21.7,5.3c8,3.5,15.1,3.5,22.9,0.1c7-3,14.3-5.4,21.4-8c-2.6-0.1-5.6,3.1-7.5-1.2c-0.6,1.2-1,3.3-1.9,3.6
			c-6.7,2.5-13.5,4.6-20.3,6.8c-1.1,0.3-2.4,0.5-3.4,0.2c-10.1-3.1-20.1-6.3-30.2-9.4c0.1-0.5,0.2-0.9,0.3-1.4
			c4.1,0.9,8.2,1.7,12.6,2.6c-0.7-0.8-1.1-1.4-1.6-2c-3.6-0.9-7.2-1.7-10.8-2.6c-0.1-0.5-0.2-1.1-0.3-1.6c1.2-0.7,2.3-1.4,3.8-2.3
			c0.3-2,0.8-5.2,1.3-8.6c2.2,0.6,4.2,1.1,5.5,1.5c1.2-0.9,2.1-1.6,2.9-2.3c0.2-1.4,0.4-2.8,0.6-4.4c-2.3-1.4-4.6-2.8-7-4.2
			c0.1-0.3,0.3-0.5,0.4-0.8c3.6,1.7,7.3,3.2,10.6,5.3c1,0.6,1.2,3,1.2,4.5c-0.1,5.9-0.5,11.7,0.3,17.6c0-4.7-0.5-9.5,0.1-14.1
			c0.8-6.1-0.6-10.4-6.9-12.5c-1.9-0.6-3.3-2.4-4.5-4.4c2.8,0.7,5.6,1.4,8.4,2.1c-2.2-2-4.4-4-6.6-6c0.2-0.4,0.5-0.8,0.8-1.2
			c11.6,2.5,23.2,7.8,35,2.3c9.6-4.5,19-9.5,28.1-15c3.1-1.9,4.9-6,6.4-9.8c-2.4,2.8-4.6,5.7-7.1,8.4c-5.6,6.2-13.1,8.4-21,9.2
			c-4.8,0.5-6.2-1.2-5-5.9c1.3-5.1,3.4-10.1,5-15.2c1.7-5.3,3.2-10.7,4.8-16c-0.4-0.2-0.8-0.4-1.3-0.6c-4.1,6.8-8.3,13.5-13,21.1
			c-0.9-4.3-1.9-8-2.3-11.9c-0.9-10.3-1.5-20.6-2.2-30.9c-0.2-2.8,0.6-4.7,4.1-4.6c18.3,0.2,36.6,0.2,55,0.4c0.3,0,0.5,0.3,1.2,0.8
			c-1.8,3.6-3.7,7.2-5.9,11.5c21.4-7.7,39.2-20,55.8-34.1c0.5,0.2,1,0.4,1.5,0.6c-0.2,2.2,0.1,4.6-0.6,6.6
			c-7.2,20.4-20.1,37-35.1,52.2c-14.2,14.4-31.5,23.9-50.2,31c-7.3,2.8-14.6,5.6-22,8.1c-6.8,2.3-13.7,2.5-20.6,0.3
			c5.6,4,11.9,3.5,17.8,2c8.6-2.3,17.1-5.5,25.4-8.7c17.1-6.7,33.3-15.1,47.2-27.4c12.8-11.3,22.7-24.6,30.7-39.6
			c0.8-1.5,1.7-3.1,2.6-4.6c0.5,0.3,1,0.5,1.5,0.8c-4.5,8.6-9,17.2-13.5,25.8c1.6-1.6,3.8-2.9,4.6-4.8c4.3-9.3,8.2-18.8,11.7-27
			c3.6,3.5,8,7.8,12.6,12.3c-1.4,1.6-5.2,3.3-0.3,6.4c0.4-4.4,0.8-8.4,1.4-14c-0.9,1.9-1.1,2.4-1.4,3c-2.2-3.8-4.4-7.5-6.6-11.2
			c0.4-0.4,0.7-0.8,1-1.1c3.6,0.8,7.3,1.6,11.8,2.6c-0.2-3.5-0.3-6.5-0.4-9.6c2.9,7.5,4.8,15.1,4,23.3c-3,33.2-19.6,57.3-48.1,73.8
			c-28.4,16.4-58.7,28.5-89.3,39.8c-2.2,0.8-5.1,0.8-7.3,0.1c-9.2-2.9-18.3-6.2-27.4-9.5c-1-0.4-1.8-1.2-2.7-1.8
			C104.9,482.3,105.1,481.9,105.2,481.4L105.2,481.4z M133.1,525.4c-3.6-3.2-7.2-6.4-10.8-9.6c0.4-0.4,0.9-0.9,1.3-1.3l10.7,9.5
			C133.9,524.5,133.5,524.9,133.1,525.4z M135.1,504.5c-8.3-2.8-16.7-5.8-24.8-9.1c-2.8-1.1-5.2-3.1-7.8-4.7c0.3-0.7,0.7-1.5,1-2.2
			c9.4,3,18.8,6.3,28.4,8.9c3.3,0.9,7.4,1.2,10.4,0.1c32.5-11.8,64.8-24.5,94.3-42.9c9.9-6.2,18.8-14.1,27.7-20.9
			c-3.6,6.7-8.2,14.2-15.3,18.9c-12.2,8-24.6,16-37.8,22.1c-23.1,10.6-46.9,19.8-70.4,29.5C139.2,505,136.8,505.1,135.1,504.5
			L135.1,504.5z M145.6,528.6c-0.8-4.8,2.9-8.4,7.6-7.2c1.4,0.3,3.2,1,3.8,2.1c4.9,8,9.4,16.2,14.7,25.2
			C159.7,548.8,147.4,538.5,145.6,528.6L145.6,528.6z M152.8,863.6c-6.9,3.9-14.4,4-22.3,0.3c5.8-8.1,11.2-15.7,16.5-23.2
			c8.1,1.2,15.9,2.4,24.6,3.8C167.9,853.9,160.6,859.2,152.8,863.6z M149,834.5c-0.1-0.6-0.2-1.3-0.3-1.9c1.1-0.8,2.1-2,3.4-2.4
			c7.5-2.6,11.8-8.2,14.6-15.3c1-2.6,2.2-5,6.4-2.9c-6.7,10.7,1.1,17.3,8.3,25.3C169.8,836.8,159.2,837.7,149,834.5L149,834.5z
			 M187.9,799.7c-4.3,1.5-9,2.3-13.6,2.5c-4.9,0.2-6.7-3.2-4.7-7.8c0.7-1.7,1.6-3.4,2.9-4.7c5.5-5.7,7.4-12.8,8.5-20.3
			c1.3-9.2,2.7-18.4,4.3-27.6c0.4-2.2,0-5.5,5.1-4.4c-0.6,7.9-1.2,15.7-1.7,23.5c-0.4,5-0.6,10-1,14.9c-0.4,5.1,0.6,9.8,3.4,14.3
			C194.2,795.1,193.4,797.8,187.9,799.7L187.9,799.7z M246,572.7c-2.9,10-5.1,20.4-9.6,29.8c-8.7,18.4-17.9,36.5-23.5,56.1
			c-2.6,9-2.7,18-0.5,27.2c0.5,2.1,0.5,4.3,0.7,6.5c-0.5,0.3-1,0.5-1.4,0.8c-2.1-1.7-4.1-3.3-6.3-5.1c-3,2.2-6.1,4.9-9.7,6.9
			c-3.4,1.9-7.4,3.7-11.2,0.8c-4-3-5-7.4-4.4-12.1c0.3-2.1,1-4.3,2.1-6c8.8-13.2,11.4-28.3,13-43.6c1.8-17.4,3.1-34.8,5.1-52.2
			c0.7-6.2,2.8-12.3,4.5-18.4c1.8-6.8,6.1-11.6,12.1-15.3c5.1-3.1,9.8-6.7,15-10.2c4.6,9.7,9.1,19.3,13.5,29
			C246,568.6,246.5,570.9,246,572.7L246,572.7z M268.5,530.8c-3.9,5.4-9.2,10-14.6,14.1c-5.3,4-8.7,3.3-13-1.8
			c-7.6-9.1-14.2-18.9-18.2-30.7c-0.2,1.3-0.5,2.5-0.7,3.8c-0.9,7.8-4.1,14.7-9.1,20.7c-4.1,5-9,5.7-14,1.7
			c-9.9-8-18.3-17.4-25.2-28.2c-2.3-3.7-1.7-6.2,1.9-8.1c6.9-3.6,13.8-7.3,20.9-10.5c16.4-7.6,33-14.9,49.4-22.6
			c3.4-1.6,5.5-0.8,6.9,2.1c4.5,9,6.9,18.5,3.6,28.4c-1.7,5-3.9,9.9-5.8,14.9c-0.6,1.6-1.3,3.3-1.9,4.9c0.5,0.3,1,0.6,1.6,0.9
			c5.1-7.4,10.2-14.8,15.6-22.5C274.7,506.8,276.1,520.3,268.5,530.8L268.5,530.8z M256.5,462c-2.7-2.9-2.7-5,0.3-7.9
			c12.1-12,18.2-27.3,22.2-43.5c2.3-9.4,3.4-19,5.1-28.5c0.2-1.4,0.5-2.9,0.9-5.6c4.1,6.6,0.8,12.5,1.9,18.1l1.9-11.6l1-0.2
			c0.8,2,2.3,4,2.4,6c0.2,7.9,0,15.9-0.4,23.8c-0.1,1.6-1.6,3.2-2.6,4.7c-1.8,2.6-4.2,4.8-5.5,7.6c-3.5,7.2-2.2,13.9,3.4,19.8
			c0.9,0.9,0.8,2.8,1.1,4.3c-1.2-0.2-2.4-0.5-3.5-0.8c2,2.9,0.6,6.2,0.9,9.3c0,0.2-1,0.4-1.5,0.6c-0.8,0.7-1.6,1.4-2.4,2
			c1.6,0.6,3.6,1.4,5.9,2.3c-1.3,5.5-2.5,10.9-3.9,16.6c-1-0.8-2.1-1.4-3-2.2c-3.7-3.6-7.7-7.1-11-11.1c-2.9-3.6-3.9-7.5-1.3-12.4
			c3.4-6.6,5.8-13.8,8.4-20.7c0.7-2,1-4.1,1.4-6c-4.9,10.8-9.7,21.6-14.7,32.7c-0.5-0.4-1.5-1-2.4-1.7c9,15.3,23,26.2,34.3,39.6
			c-6.8-4.9-14.1-9.1-20.3-14.7C268.2,476.2,262.7,468.8,256.5,462L256.5,462z M303.5,510.5c-2.2,25.9-10.2,49.6-26.9,69.9
			C291.8,559.6,298.4,535.4,303.5,510.5L303.5,510.5z M338.4,603c-7.1,2.7-13.8-0.5-20.6-1.3c-0.6-0.1-1.3-0.2-2.9-0.6
			c7.5,2.6,14.2,5,21,7.4c-0.1,0.4-0.3,0.7-0.4,1.1c-13.2-3.3-26.4-6.7-41.1-10.3c1.3,2.6,1.9,3.8,2.5,5c-0.2,0.1-0.5,0.3-0.7,0.2
			c-3.9-1.9-5.1-4.9-3.6-9.5c1.3,0.7,2.4,1.3,3.5,1.8c3,1.3,5.5,1.4,8.7-0.7c4.9-3.1,10.5-5.6,16.1-7.2c8.3-2.5,14.4,2.2,19.6,8
			C343.1,599.7,342.1,601.7,338.4,603L338.4,603z M315.8,585.9c2.7-6.8,9.5-9,20.6-6.7c-4.6-3.4-9.6-3.8-15-1.1
			c1.5-4.3,8.3-8.3,13.4-8.4c6-0.1,12.5,4.9,15.2,12.3c-1.9-1-3.4-1.8-5-2.7c-0.1,0.2-0.3,0.4-0.4,0.5c0.9,1.1,1.8,2.3,3,3.7
			c-3.5-1.3-6.5-2.4-9.6-3.5c7.6,3.8,10.1,11.2,12.7,18.7C341.5,587.4,329.9,583.3,315.8,585.9L315.8,585.9z M329.8,566.4
			c12.2-6.8,20.7,1.3,23.2,12.4C347.5,569.6,338.8,568.3,329.8,566.4z M359.6,567c-10.7-11.8-22.9-11-36.1-4.3
			c3.6-7.2,10-9.4,22.4-8.7c-6.2-2.2-12.3-1.6-19.2,2.1c1.6-3.2,2.6-5.1,3.6-7c0.1-1.3-0.2-2.8,0.3-3.9c5.2-9.4,3.6-19.4,3-29.3
			c-0.4-5.5-1-10.9-0.5-16.6c0.7,2.1,1.6,4.3,1.9,6.5c2.3,14.8,2.6,29.5-4.4,43.4c5.6-4.2,7.6-10.5,8.2-16.9
			c0.7-7.6,0.9-15.3,0.1-22.9c-1.3-12.7,1.2-23.8,10.8-32.9c4.6,2.1,5,6.1,4,10.9c-4,18.2-7.8,36.4-11.6,54.7
			c-0.2,0.8-0.3,1.6,0.6,2.8c0.7-1.8,1.8-3.4,2.1-5.3c3.4-17,6.6-34,9.9-51c0.3-1.6,0.7-3.3,0.8-4.9c0.4-3.6,2.1-5.4,6.9-4.6
			c-6.8,22.3-10.2,45.1-11.9,68.2c4.5-21.3,8.9-42.6,13.4-63.9c0.5-0.1,1.1-0.3,1.6-0.4c2.7,4.5,5.7,9,8.1,13.7
			c0.5,1-0.2,3.2-1.1,4.4c-10.8,13.5-14.9,29.6-18.3,46c-0.4,1.8,0.4,3.8,1,5.6c0.6,1.9,1.8,3.5,2.7,5.3c0.4,0.7,0.6,1.5,0.6,1.7
			c-4.2-1.9-8.6-3.9-13.1-5.9c4.9,3.6,9.9,7.2,14.8,10.8C360.2,565.4,359.9,566.2,359.6,567L359.6,567z M454.3,573.8
			c-24.8,8.9-50.6,11.2-76.6,11.9c-0.8,0-1.6-0.2-2.4-0.4c-0.3-0.1-0.5-0.4-2.1-1.8c3.8-1,6.5-2,9.2-2.3c8.4-0.8,17-0.8,25.4-2.2
			c14.6-2.4,29-5.5,43.6-8.3c2.8-0.5,3.5-1.9,3.2-4.9c-2.7-23.3-5.1-46.7-7.6-70c-0.2-1.6-0.2-3.2,0.6-5c0.3,1,0.6,1.9,0.8,2.9
			c3.5,24.2,6.9,48.4,10.4,72.6C459.2,570.4,458.4,572.4,454.3,573.8L454.3,573.8z M466.6,551.2c-1.4,0.2-2.9-0.4-4.4-0.6
			c1.3-1,2.4-2.5,3.9-2.9c8.2-2.3,16.4-4.3,24.6-6.5c1.8-0.5,3.5-1,5.5-1.7c-0.5-1.3-0.9-2.3-0.8-2c-11.1,2.9-21.8,5.7-32.5,8.5
			c-0.1-0.5-0.3-1-0.4-1.5c1.7-0.3,3.4-0.7,6-1.2c-2.6-0.3-4.3-0.4-4.7-0.5c3.4-1.3,7.7-3.1,12.1-4.8l0-0.1c-3.1,0.3-6.6,3.5-9-1.3
			l-1.8,0.1c0.5,1.3,1,2.6,1.4,3.8c-0.4,0.2-0.8,0.5-1.3,0.7c-1-1.6-2.5-3.2-2.8-4.9c-3.2-23-6.3-46-9.2-69c-0.5-4,0.6-7.6,6-8
			c1.1-0.1,2.1-2.5,3.1-3.8c0.1-0.3,0.2-0.5,0.3-0.8c-0.7-2.4-1.4-4.8-2.1-7.2c-0.5-1.7-1.1-3.5-1.9-6.1c3.3,4.5,5.9,8,8.6,11.6
			c-0.9-5.3-1.8-10.6-2.7-16c0.5-0.1,1-0.2,1.5-0.3c2.9,14.6,5.8,29.2,8.7,43.8c0.7-0.7,1.3-1.5,2-2.2c-4.3-17.7-8.6-35.4-12.9-53.1
			c0.3-0.2,0.6-0.4,0.9-0.5c1.5,2.7,3.6,5.2,4.6,8.1c3.3,10.3,7,20.5,9,31.1c4.6,24.4,13,47.5,21.4,70.6c0.9,2.5,1.7,5,2.9,8.5
			c-7.3,1.8-14.2,3.5-21.1,5.1C476.5,549.5,471.6,550.5,466.6,551.2L466.6,551.2z M441.4,847.8c4.5-5.4,8.2-9.8,12-14.4
			c2.2,1.1,4.1,2,6.5,3.3C454.5,841.7,451.3,848.9,441.4,847.8L441.4,847.8z M457.1,824.9c8.8-8,18.4-6,23.4,5.2
			C472.2,828.3,464.9,826.6,457.1,824.9z M505.9,753.5c-1.5,4.9-2.9,9.9-4.8,14.7c-3,7.3-4,14.6-3.1,22.5c0.9,7.6-1.8,9.9-9.2,8
			c-3.8-1-7.3-3.4-11.6-5.5c2-2.2,3-3.6,4.3-4.6c8.5-6.8,13.5-15.8,17-25.9c2.8-8.2,6.2-16.1,9.4-24.2c0.6-1.5,1.4-2.9,2.2-4.3
			c0.5,0.1,1,0.2,1.5,0.4C509.6,740.8,507.8,747.2,505.9,753.5L505.9,753.5z M538.8,691.1c1.4,1.5,1.8,4.3,1.9,6.6
			c0,0.7-2.9,2.4-3.7,2c-2.2-1.1-5-2.7-5.6-4.7c-3.7-11.8-6.7-23.7-10-35.5c-0.5-1.7-0.9-3.5-1.4-5.2c-0.4,0-0.8,0-1.3,0
			c-0.3,6.8-1,13.6-0.9,20.3c0.1,6.5,2.2,12.4,7.2,17c2.3,2.1,5.6,4.4,2.5,8.3c-3,3.8-8.1,5.3-12,3.4c-5.1-2.5-6.1-5.4-3.6-10.3
			c3.4-6.8,3.6-13.9,0.3-20.7c-3.1-6.2-7.3-12-10.2-18.3c-3.3-7.4-6.3-15-8.4-22.8c-1.8-6.8,1-12.3,7.4-15.9
			c5.8-3.2,11.3-6.8,17-10.2c6,7.3,8.1,15.8,8.4,25.3c0.4,13.6,1.4,27.2,2.9,40.8C530,678.7,533.5,685.4,538.8,691.1L538.8,691.1z
			 M558.2,547.5c-3.4,6.8-8.5,12.7-12.8,19c-0.3,0.5-0.9,0.8-2.2,1.8c3.6-17.4,5.7-33.9,3.4-51c-0.5,1.4-1.1,2.8-1.5,4.2
			c-6.8,24.8-17.9,47.3-36.5,65.5c-3.8,3.7-6.5,8.4-10.1,12.3c-1,1.1-3.5,1.9-4.8,1.4c-11.8-4.7-22.1-20-22.2-32.5
			c8.1-2.3,16.4-4.2,24.4-7c15.6-5.5,16.5-8,10.7-23.1c-9.3-23.9-17-48.3-22.9-73.3c-3.9-16.6-10.3-32.6-16-48.8
			c-3.8-10.6-3.7-11.7,7.7-11.7c33.6,0,60.9,12.7,79.8,41.1C577.2,478.9,575.5,513.1,558.2,547.5L558.2,547.5z M655.8,424.5
			c0,0.6-0.1,1.2-0.1,1.9c-5.1-0.3-10.2-0.7-16.2-1.1C644,420.1,650.7,420.3,655.8,424.5z M626.8,513.3c7-28,1.8-50.7-23.1-67
			C630.3,453.1,640.7,491,626.8,513.3z M645.5,527.2c-1.9-6.8-2.9-14.3-2.1-21.2c2.4-20.1-1.9-38-13.8-54.6c2.5,1.6,5.4,2.8,7.5,4.8
			c11.5,11,19.8,23.7,20,40.4c0.2,10,0.8,20.1,1.2,30.1c-0.3,0.1-0.6,0.2-0.9,0.4c-3-8.8-6-17.6-9-26.6c-2.6,10.5-1.2,20.5,2.6,30.5
			c3.8,10.2,11.3,17,20.2,22.7C658.3,549.1,649.1,540.4,645.5,527.2L645.5,527.2z M661.2,501.6c-1.1-3.5-2.2-7-2.8-10.6
			c-4.1-22.7-17.9-38.2-36.9-49.6c-9.3-5.6-19.8-6.5-30.5-4.9c-3.6,0.5-7.1,1.1-10.7,1.6c11.7-8,24.5-6.9,37.2-4.5
			c13.4,2.5,23.1,11.2,33,21.1c-5.9-11.1-22.5-22.6-34.3-24.6c-14.7-2.5-28.4,1.5-42.2,6.4c4.2-18.4,44-29.1,65.8-18.1
			c-8.1,0.4-15.9,0.8-23.6,1.2c-0.1,0.4-0.2,0.9-0.3,1.3c22.7,3.5,38.3,16.9,50.2,35.7c-0.8-0.4-1.5-0.9-2.3-1.3
			c-0.7-0.4-1.5-0.6-3.1-1.3c6.8,11.3,14.6,21.5,15.4,34.9c-5-6.7-10-13.5-15.5-20.8c4.8,12.9,9,25.1,13.9,37.1
			c4.1,10,11.7,16.8,22.1,20.4c2.5,0.8,4.8,2.1,8.4,3.7c-6.5,3-11.8,2.7-16.9,0.7C674.8,524.7,665.6,515.4,661.2,501.6L661.2,501.6z
			"/>
		<path d="M476.6,478.5C476.6,478.5,476.5,478.6,476.6,478.5L476.6,478.5L476.6,478.5z"/>
		<path d="M91.7,254.2l-0.9-0.3c-2.3,7.6-4.9,15.1-6.7,22.8c-1.2,5.2-2.9,9.7-7.3,13.1c-3.4,2.6-6.3,5.7-10.2,9.4
			c4.4,2.2,8,4,12.4,6.2C83.3,287.8,87.5,271,91.7,254.2L91.7,254.2z"/>
		<path d="M401.5,33.4c4.4-3.8,7.5-8.6,10.4-13.6c-4.1,4-8.1,8-12.2,12C400.3,32.4,400.9,32.9,401.5,33.4L401.5,33.4z"/>
		<path d="M369.9,27.9c-1.1-5.8-2.3-11.6-3.5-17.4c-0.2,0-0.4,0.1-0.7,0.1c0.9,5.9,1.7,11.7,2.5,17.6
			C368.8,28,369.3,27.9,369.9,27.9L369.9,27.9z"/>
		<path d="M372.1,318.4c-2.7,0.3-5.9,1.7-7.9,0.6c-1.8-1-2.4-4.5-3.8-7.5v11.2c3.4-1.1,7.6-2.5,11.7-4L372.1,318.4z"/>
		<path d="M55.3,361.6c3.9-3.1,5.7-9,4.2-12.4c-1.7-3.9-7-6.2-12.3-5.5c-5.2,0.6-8.3,3.4-8.7,8.5c-0.2,2.9,0.3,5.8,0.6,8.8
			c1.4,0.3,3,0.3,4,1.1C47.4,365.2,51.5,364.7,55.3,361.6L55.3,361.6z"/>
		<path d="M104,201.5c0.4,0.3,0.9,0.6,1.3,0.9c0.9-1.1,2.5-2.1,2.4-3.1c-0.5-9.6,1.7-19.9-5.8-28.1
			C108.6,180.8,105.4,191.2,104,201.5z"/>
	</g>
</g>
</svg>
