<?xml version="1.0" encoding="utf-8"?>
<!-- Generator: Adobe Illustrator 28.3.0, SVG Export Plug-In . SVG Version: 6.00 Build 0)  -->
<svg version="1.1" id="Layer_1" xmlns="http://www.w3.org/2000/svg" xmlns:xlink="http://www.w3.org/1999/xlink" x="0px" y="0px"
	 viewBox="0 0 630.5 873.9" style="enable-background:new 0 0 630.5 873.9;" xml:space="preserve">
<style type="text/css">
	.st0{fill:#FFFFFF;}
</style>
<g>
	<path class="st0" d="M625.9,114.1c6.3-12.6,3.2-24.3,1-36.4c-0.9-5.2-4.9-8-9.7-7.9c-0.6-1.2-1.2-2.4-1.8-3.6
		c-9.9-19.8-25.3-27.7-25.3-27.7c-15.6-7.9-31.6-4.2-40.3-2.1c-4.2,1-9.9,2.3-15.8,5.7c-16.1,9.1-29.4,30.5-26.9,52.4
		c4.5,39.7,57.3,49.9,60.5,50.1c2.8,0.1,4.2,0.2,4.2,0.2c3.9,0.1,4.5-0.2,6,0.1c3.7,0.8,5.8,3.9,6,4.2c1.8,2.7,1.5,5.7,0.8,10.2
		c-1.4,8.7-2.1,13.1-3.7,17.5c-4,10.8-9.7,17.3-12.2,19.9c-2.8,2.9-4.2,4.3-6,4.8c-6.7,1.6-11.8-7.2-20.7-11
		c-0.8-0.4-3.3-1.4-5.1-3.9c-0.6-0.9-1.1-1.8-1.5-3c-1.9-6.1-5.2-11.1-11.6-13.5c-1.2-0.4-2.3-1.9-2.9-3.1c-1-1.9-2.1-3.5-3.3-5
		c-3.3-3.9-8.6-6.9-14.5-9.2c-8.1-3.3-8.7-1.6-14.1-4.5c-1.6-0.9-3.7-2.2-6.8-2.3c-1.6-0.1-2.2,0.3-5.3,0.4
		c-2.8,0.1-4.2,0.2-5.5-0.2c-3.1-1-2.7-3.2-5.6-4.8c-4.6-2.6-11.1,0-13.6,1c-1.8,0.7-1.8,1-4.3,1.9c-2.7,1.1-5,1.9-8.1,2.1
		c-0.2,0-2.4-0.2-6.6-0.6c-2.8-0.3-4.2-0.4-5.3-1.1c-2-1.1-2.9-2.9-3.4-3.8c-0.4-0.7-1.6-2.7-1.4-5.3c0.2-2.5,1.6-5.1,3-7.3
		c1.2-1.9,3.6-3.2,4.5-5.2c4-9.4,7.7-19.1,11.6-28.6c0.7-1.7,1.7-3.5,3.1-4.7c4.7-3.9,9.4-7.6,9.3-14.5c0-0.7,1-1.6,1.7-2.1
		c5-3.1,7.1-7.9,7.1-13.5c0-3.4,0.3-5.7,3.5-7.9c4.7-3.2,3.7-10.4-1.6-11.1c-4.6-0.6-5.5-3.5-6.8-6.3c1.1-1.8,2.3-3.4,3.1-5.1
		c2.4-5.5,0.5-8.4-5.5-8.1c-3.1,0.1-6.1,1-8.4,1.4c-1.7-2.2-2.8-4.5-4.6-5.5c-1.5-0.8-3.8-0.2-5-0.2c-0.7-4.7-1.2-9.6-2.2-14.4
		c-0.2-1.1-3.1-2.7-3.7-2.4c-4.1,2.3-9.3,4.3-11.6,8c-4.2,6.6-9.4,4.3-14.9,4.2c0-1.7,0.1-2.9,0-4c-0.3-4.3-3.2-7.3-7.8-7.6
		c-4.3-0.3-6.9,1.2-7.1,6.1c-0.1,2.1-1.5,4.8-3.2,5.9c-3.9,2.7-8.4,4.5-12.5,6.9c-2.5,1.4-5.8,2.6-7,4.9c-2.1,4.2-5.1,6.8-9.2,8.5
		c-3.5,1.4-6,3.7-5.7,7.8c0.1,1.5-0.1,2.7-0.6,3.6c-0.8,1.3-1.6,1.1-3.6,2.7c-1,0.8-3,2.4-3.5,4.8c-0.1,0.8-0.1,1.7,0,2.6
		c0.1,1.5,0.4,2.6,0.6,3.1c0.6,2.4,0,4.7-0.8,7.5c-0.7,2.5-1.6,4.3-2.6,6.2c-0.9,1.7-1.3,2.5-1.9,3.3c-2.3,3-4.4,3-4.6,4.7
		c-0.1,0.7,0.2,0.9,1.9,3.9c1.6,2.7,2.4,4.1,2.5,4.6c0.4,1.9-0.6,2.4-1.5,7.4c-0.5,2.5-0.6,3.2-0.3,3.9c0.5,1,1.4,1.4,4,2.6
		c3.5,1.7,5.2,2.5,5.7,3.3c1.3,2.2,0.2,5.6,0,6.1c-0.6,1.8-1.5,2.6-1.1,3.6c0.3,0.9,1.2,1,2.8,1.9c1,0.6,3,1.8,3.9,3.6
		c0.9,1.8,0.5,3.8,0,6.4c-0.6,3.2-1.5,3.4-1.2,5c0.3,2.4,2.5,4.6,5.2,5.2c2.5,0.5,4.5-0.6,5-0.9c0.4,1.8,0.8,4.7-0.7,7.2
		c-1.6,2.6-4.5,3.5-5.7,3.9c-9.6,3.1-6.8,5.6-29,14.3c-2.5,1-7.7,2.8-18,6.5c-9.7,3.5-14.7,5.2-19.2,9.9c-1.7,1.8-3.3,3.9-5.8,9.2
		c-8.7,18-12.5,38.6-11.9,49.3c0,1.1,0.3,4.3-0.1,8.8c-0.2,2.6-0.7,5.4-1.7,9.6c-1.3,5.5-2.1,6.8-4,13.3c-2.9,9.5-2.5,10.6-5,17.6
		c-1.2,3.5-2.2,6.2-4,9.6c-3.5,6.6-7.6,10.7-8.9,12.1c-10.6,11.1-25.6,36.5-34,60.8c-1.9,5.4-1.1,4-4.7,15.3
		c-7.2,22.5-10.9,33.7-13.5,38.3c-1.3,2.4-4.2,7.2-5.3,14.2c-0.7,4.3,0,5-0.4,8.8c-0.7,6.3-2.9,7.1-9.7,21c0,0-4.6,9.4-5.8,16.5
		c-0.4,2.5-0.5,5-0.5,5c0,1.4,0,2.4,0.2,4.4c0.3,3.7,0.5,6.5,0.5,6.7c0.6,7.3-4.8,11-4.7,20.6c0,2.5,0.1,5.8,2.3,7.2
		c2.4,1.6,6.4,0.1,7.2-0.2c1.6-0.6,1.8-1.2,4.6-2.4c2.3-1,2.4-0.8,3.3-1.5c1.2-1,1.9-2.2,3.2-4.5c0.8-1.4,0.6-2.3,1.7-2.7
		c3.5-1.6,3.4-4.4,3.4-7.5c0-3.1,0.4-6.2,0.7-9.3c0.6,0,1.2-0.1,1.9-0.1c1,2,3.1,4,2.9,5.9c-0.5,6.9,3.8,11.1,7.9,15.3
		c1.6,1.7,4.2,3,6.6,3.3c7.4,1.2,15.6,0.1,22.1,3c14.1,6.2,27.6,13.9,37.1,26.9c3,4.2,7.2,7.8,9.1,12.4c3.5,8.2,5.6,17,8.4,25.5
		c0.3,1,0.7,2.9,2.1,5c2.4,3.5,5.2,4.3,7,5.9c4.1,3.8,2,12.3,0.9,18.1c-1.5,7.4-1.8,18.5-2.3,40.6c-0.4,15.3,0.5,20.6,3.6,24
		c0.9,0.9,3.4,3.4,3.8,7c0.3,3-1,5.5-1.6,6.6c-4.6,8.6-6.9,18.7-8.3,24.8c-1.6,7-1.9,13-2,15.9c-0.1,7.3,1,6.7,0.5,11.2
		c-0.7,7.3-3.5,8.2-7.6,21.4c-1.1,3.5-1.9,6.7-2.3,8.2c-0.9,3.5-1.8,6.8-2.5,11c-1.5,8.8-2.2,13.1,0,15.5c1.3,1.4,2.1,2.8,5.7,4.6
		c0.9,0.5,1.3,1.9,2.1,2.7c3.5,3.2,6.5,7.6,10.7,9.2c6.9,2.6,14.4,4.5,21.7,4.8c1.6,0.1,19.3,2.8,38.9,8.2c1.7,0.5,3.1,0.9,4,1.1
		c-0.7,1.5-1.8,3.9-3.5,6.6c-4,6.2-6.6,7.3-10.3,12.9c-2.7,4.2-5.7,8.7-4.1,12.1c1.2,2.8,4.8,4.2,9.3,4.5
		c14.5,0.9,29.2,0.7,43.8,0.5c2.3,0,4.9-2,6.7-3.7c5.1-4.8,2.5-10.9,1.9-16.5c-0.7-7-2.3-14-3.5-21c1.7,0.4,3.8,1.2,4.2,2.8
		c0.5,1.9-2.2,3.5-1.6,4.9c0.5,1.2,3.1,1.4,5.1,1.2c1.5-0.1,3,0,4.5-0.4c3.6-0.9,5.9,0.4,8.1,3.2c6.3,8.1,14.9,12.8,24.9,14.4
		c7.2,1.2,13.8-0.6,18.6-4.4c7-5.5,9.9-14.9,8.4-22.5c-1.3-6.5-4.9-6.8-13.1-17.1c0,0-17-21.3-18.2-42.5c-0.1-2.3-0.1-4.8-0.1-4.8
		c0.1-3.4,0.2-6.8,0.5-10.3c0.3-4.2-0.2-8.8,1.2-12.7c6-16.4,12.1-32.8,19.1-48.7c10.6-24.1,12.9-48.3,3.9-73.3
		c-0.3-0.8-0.3-1.7-0.4-2.6c2.9,3.2,7.6,9.4,10.4,18.6c3.1,10.3,1.9,19,1.1,23.4c7.8-1,20.9-4.2,27-14.4c0.9-1.5,1.8-2.8,2.1-4.4
		c1.8-8.8,3.9-17.5,4.9-26.4c0.8-7.2,3.6-12.6,9-17c2.3-1.9,4.5-4,7.1-5.5c9.8-5.7,14.1-14.6,15.2-25.4c2-19.5,4.7-43.4,5-47.1
		c0,0,0.1-1.8,1.6-10.4c0.8-4.7,1-5.6,1.7-5.8c1.6-0.5,4.1,3.5,12.8,14.2c1.2,1.4,1.8,2.2,2.3,2c1.9-0.5,1.5-11.4,0.9-29.6
		c0-1.3-0.9-4.9,1.6-6.9c4.2-3.3,5-7.7,5.1-12.4c0.4-12,0.6-24,1-35.9c0.1-2,0.9-4.1,1.6-6c1-2.7,2.9-5.2,3.2-7.9
		c0.4-4.8,0-9.6-0.2-14.4c-0.2-3.8,0.8-6.6,4.1-8.9c6.4-4.5,9.7-10.7,9-18.8c-0.7-8.1-1.1-16.3-1.5-24.4c-0.1-1.8,0.2-4.6,1.3-5.4
		c5.8-4.3,5.4-10.1,5.1-16.2c-0.8-18.6-1.2-37.2-2.1-55.8c-0.3-5.6-1.3-11.2-2.5-16.7c-0.7-3.5-0.4-6.3,1.8-9.3
		c7.9-11,13.5-23.3,14-36.8c0.6-16.9-0.3-33.8-0.5-50.8c0-5.3-0.6-10.8,0.6-15.8C618.3,136.4,620.7,124.5,625.9,114.1L625.9,114.1z"
		/>
	<g>
		<g>
			<path d="M626.8,114.3c6.3-12.6,3.2-24.3,1-36.5c-0.9-5.2-5-8-9.7-7.9c-0.6-1.2-1.2-2.4-1.8-3.6c-15.1-30.2-39.6-37.3-66.8-32.5
				c-28.4,5.1-45.7,31.4-42.3,60.6c3.4,29.6,33.1,54.2,61.3,50.3c4.3-0.6,6.5,0.9,9.6,3.4c5.8,4.8,6.6,10.1,3.8,16.6
				c-1,2.4-1.7,5.1-2.5,7.6c-3,9.9-7.5,18.9-15.4,25.9c-1.1,0.9-3.6,1.4-4.9,0.8c-5.6-2.6-10.8-5.8-16.4-8.4
				c-3.2-1.5-5.5-3.4-6.6-6.9c-1.9-6.1-5.2-11.1-11.6-13.5c-1.2-0.4-2.3-1.9-2.9-3.2c-3.8-7.4-10.1-11.6-17.8-14.3
				c-4.1-1.4-8.2-3.5-11.7-6.1c-5.2-3.8-10.6-5.5-16.9-3.8c-3.3,0.9-5.9,0.1-8.9-1.6c-7-4.1-14.7-4.5-21.2,0.4
				c-3.6,2.7-6.6,3-10.4,1.8c-1.8-0.5-3.5-1.4-5.3-1.3c-4.9,0.1-6.2-2.9-5.8-6.7c0.2-2.5,1.6-5.1,3-7.4c1.2-1.9,3.6-3.2,4.5-5.2
				c4-9.5,7.7-19.1,11.6-28.6c0.7-1.7,1.7-3.5,3.1-4.7c4.7-3.9,9.4-7.6,9.3-14.6c0-0.7,1-1.6,1.7-2.1c5-3.1,7.1-7.9,7.1-13.5
				c0-3.4,0.3-5.7,3.5-7.9c4.7-3.2,3.7-10.4-1.6-11.2c-4.6-0.6-5.5-3.5-6.8-6.3c1.1-1.8,2.3-3.4,3.1-5.2c2.4-5.5,0.5-8.4-5.5-8.1
				c-3.1,0.1-6.1,1-8.4,1.4c-1.7-2.2-2.8-4.5-4.6-5.5c-1.5-0.8-3.9-0.2-5-0.2c-0.7-4.7-1.2-9.6-2.2-14.4c-0.2-1.1-3.1-2.7-3.7-2.4
				c-4.1,2.3-9.3,4.4-11.7,8.1c-4.2,6.6-9.4,4.3-14.9,4.2c0-1.7,0.1-2.9,0-4c-0.3-4.3-3.2-7.3-7.8-7.6c-4.3-0.3-6.9,1.2-7.1,6.1
				c-0.1,2.1-1.5,4.8-3.2,5.9c-3.9,2.7-8.4,4.5-12.5,6.9c-2.5,1.4-5.9,2.6-7,4.9c-2.1,4.2-5.1,6.8-9.3,8.5c-3.5,1.4-6,3.7-5.7,7.9
				c0.3,3.3-1.1,5-4.2,6.3c-4,1.6-6.4,5.2-4.7,9.2c1.4,3.4,0.2,5.5-1,8.2c-1,2.1-1.2,4.5-2.1,6.7c-0.4,1.1-1.2,2.4-2.1,3
				c-5.7,3.7-6.2,5-2.1,10.5c2.4,3.1,2.3,5.9,1,9.2c-2.6,6.5-2.1,7.4,4.7,9.5c3.9,1.2,6.1,3,4,7.6c-1.5,3.3-1.5,6.4,3,7.8
				c3.9,1.2,3,3.8,1.7,6.8c-2.9,6.4-0.4,10.6,6.5,11.6c1.3,0.2,2.6,0.3,3.9,0.5c0.8,4.2-1.3,6.2-4.7,7.8c-10,4.6-19.8,9.6-29.8,14.1
				c-5.7,2.6-11.5,5.2-17.5,6.7c-10.6,2.5-19.3,7.5-25.2,16.6c-11.2,17.4-17.6,36.1-14,57.3c0.8,4.8-0.4,10.2-1.7,15
				c-3,10.9-7.1,21.5-10,32.4c-1.8,6.9-4.5,12.8-9.8,17.5c-18.7,16.5-28.6,37.8-35.4,61.4c-5.5,19.2-13.2,37.7-19.9,56.5
				c-1.3,3.8-3.5,7.5-3.7,11.3c-0.7,11.8-6.5,21.5-10.9,31.9c-2.2,5.2-3.3,11-4.2,16.7c-1.1,7.1,0.2,6.7-0.6,13.3
				c-1.2,9.6-4,13.6-3.9,23.4c0,3.3,0.4,6,2.3,7.3c2.4,1.6,6.5,0.1,7.2-0.2c1.6-0.6,1.8-1.2,4.6-2.4c2.3-1,2.4-0.8,3.3-1.5
				c1.3-1,1.9-2.2,3.2-4.5c0.8-1.4,0.7-2.3,1.7-2.8c3.5-1.6,3.4-4.4,3.4-7.5c0-3.1,0.4-6.2,0.7-9.3c0.6,0,1.2-0.1,1.9-0.1
				c1,2,3.1,4,2.9,6c-0.5,6.9,3.8,11.1,7.9,15.3c1.6,1.7,4.2,3,6.6,3.3c7.4,1.2,15.6,0.1,22.1,3c14.1,6.2,27.7,13.9,37.2,26.9
				c3,4.2,7.2,7.8,9.1,12.4c3.5,8.2,5.6,17,8.4,25.6c0.6,1.7,0.8,4,2.1,5c6.7,5,5.3,11.8,5.1,18.7c-0.5,16.3-1.4,32.6-1,48.9
				c0.2,7.1,2.1,14.7,5.1,21.1c1.7,3.7,2.5,6.4,1.3,9.9c-3.4,9.9-7.4,19.7-10.2,29.8c-1.9,7-1.3,14.1-1.2,16.6
				c0.1,4.7,0.5,5,0.4,7.7c-0.2,7.8-3.6,10.8-7.4,19.9c-4.2,10-4.6,17.6-5.3,23.8c-0.9,7.4,0.1,14.8,8.2,18.7
				c0.9,0.5,1.3,1.9,2.1,2.7c3.5,3.2,6.5,7.7,10.7,9.2c6.9,2.6,14.4,4.5,21.7,4.8c13.6,0.5,25.7,6.6,39,8.2c0.4,0,0.8,0.5,1.7,1.2
				c-1.5,1.9-2.9,3.5-4.1,5.1c-3.8,5-8.3,9.7-11,15.3c-4.1,8.8-0.7,15.2,8.8,15.8c14.6,0.9,29.2,0.7,43.9,0.5c2.3,0,4.9-2,6.7-3.7
				c5.2-4.8,2.5-11,1.9-16.5c-0.7-7-2.3-14-3.5-21c1.2,1,1.9,2.2,1.8,3.4c-0.6,4.8,1.9,5.9,6,5.5c1.5-0.1,3,0,4.5-0.4
				c3.6-0.9,5.9,0.4,8.1,3.2c6.3,8.1,14.9,12.8,24.9,14.4c16.6,2.8,29.4-10.2,27.1-26.9c-1-7.1-4.5-12.9-9-18.1
				c-10.7-12.2-16.9-26.7-22.3-41.6c-0.5-1.4-0.2-3.2-0.1-4.8c0.1-3.4,0.2-6.9,0.5-10.3c0.3-4.2-0.2-8.8,1.2-12.7
				c6-16.4,12.1-32.8,19.2-48.8c10.7-24.1,12.9-48.4,3.9-73.4c-0.3-0.8-0.3-1.7-0.4-2.6c7.5,13.9,9.4,28.8,8,45.4
				c11.7-5.1,22.2-9.4,30.5-17.8c1.1-1.1,1.8-2.9,2.1-4.5c1.8-8.8,3.9-17.6,4.9-26.5c0.8-7.2,3.6-12.7,9-17.1
				c2.3-1.9,4.5-4.1,7.1-5.5c9.9-5.7,14.2-14.6,15.3-25.5c2-19.6,4.7-43.5,5-47.2c0,0,0.1-1.8,1.6-10.4c0.8-4.7,1.1-5.6,1.7-5.8
				c1.6-0.5,4.1,3.5,12.8,14.2c1.2,1.4,1.8,2.2,2.3,2c1.9-0.5,1.5-11.5,0.9-29.7c0-1.3-0.9-4.9,1.6-6.9c4.3-3.4,5-7.7,5.1-12.4
				c0.4-12,0.6-24,1-36c0.1-2,0.9-4.1,1.6-6c1-2.7,2.9-5.2,3.2-8c0.4-4.8,0-9.6-0.2-14.5c-0.2-3.8,0.8-6.6,4.1-8.9
				c6.4-4.5,9.7-10.7,9.1-18.8c-0.7-8.1-1.2-16.3-1.5-24.4c-0.1-1.8,0.2-4.6,1.4-5.5c5.8-4.3,5.4-10.1,5.1-16.3
				c-0.8-18.6-1.2-37.3-2.1-55.9c-0.3-5.6-1.3-11.2-2.5-16.7c-0.7-3.5-0.4-6.3,1.8-9.3c7.9-11.1,13.5-23.3,14-36.9
				c0.6-16.9-0.3-33.9-0.5-50.9c0-5.3-0.6-10.8,0.6-15.8C619.2,136.6,621.6,124.7,626.8,114.3L626.8,114.3z M555.1,39.3
				c21.4,0.1,34.6,20.7,25.7,40.4c-5.9,12.9-16.2,21.1-29.9,24.3c-18.3,4.2-32.9-8.2-35-27.3C514,60.3,535.3,38.4,555.1,39.3z
				 M488.7,154.3c-1.7,3.8-3.9,7.6-5.3,11.7c-1.4,4.1-2.1,8.6-3.1,12.8c0.5,0.1,1.1,0.2,1.6,0.2c4.2-8.1,4.9-19.8,18.4-18.5
				c-2.4,1.9-4.9,3.8-7.3,5.8c0.2,0.3,0.4,0.6,0.6,0.9l10.5-3.6c0.1,0.2,0.1,0.4,0.2,0.6c-4.3,2.9-8.9,5.5-13,8.7
				c-7.7,6.2-11.7,14-11.1,24.3c0.6,11.1,0.2,22.3,0.2,33.5c-0.1,25-0.1,50-0.3,75c0,2.6-0.3,5.3-0.4,7.9c-0.6,0-1.1,0-1.7,0
				c-0.2-2-0.6-4.1-0.6-6.1c-0.2-19-0.2-38-0.4-57c-0.2-23.5-0.8-47-0.8-70.5c0-5.1,0.9-10.3,2.3-15.2
				C480,159.6,483.6,155.7,488.7,154.3L488.7,154.3z M521.6,272c-7.2,18.6-14.3,37.3-21.7,55.8c-1.9,4.6-5,8.6-7.4,13
				c-3,5.5-6.2,11-8.7,16.8c-2.9,6.7-6.7,12.5-12.1,17.5c-16.4,15.2-31.9,31.3-48.8,45.8c-22.9,19.6-46.9,37.9-75.6,48.8
				c-6.4,2.4-12.8,5.3-19.1,7.9c-0.2-0.6-0.5-1.1-0.8-1.7c3.9-3.6,7.7-7.3,11.5-10.9c16.7-15.7,33.5-31.5,50.3-47.2
				c6.7-6.3,14.4-10.9,22.9-14.8c11.7-5.4,22.7-12.4,35.1-19.3c-2.5,2.9-4.4,5.1-6.4,7.3c-4,4.2-8.5,8-12.1,12.6
				c-11,14-25.7,22.9-40.7,31.6c-10,5.8-19.4,12.4-29.1,18.7l1.2,2.2c12.2-6.2,24.9-11.6,36.5-18.9c22.9-14.5,41.6-33.4,56.1-56.6
				c5.2-8.3,12.7-15.3,19.8-22.3c14.2-14,26-29.4,32.8-48.3c4.5-12.7,9.3-25.3,14-38c0.8-2.1,1.9-4.1,3.9-5.8
				C522.5,268,522.3,270.1,521.6,272L521.6,272z M525.2,272.6c0.5,0.1,1,0.2,1.5,0.3c-1.1,5.9-2,11.8-3.5,17.6
				c-4.6,17.7-8.6,35.6-14.3,53c-6.4,19.4-17.1,36-35.6,46.5c-5.5,3.1-10.2,7.4-15.4,11c-1.5,1-3.6,1.2-5.4,1.8
				c-0.1-0.4-0.2-0.7-0.2-1.1c6.2-4.9,12.1-10.5,18.8-14.7c15.6-9.7,25.3-24.2,31.7-40.7c6.5-16.7,11-34.1,16.2-51.3
				C521.4,287.6,523.2,280,525.2,272.6L525.2,272.6z M383.5,567.6c-0.2-20.5-0.3-40.9-0.3-61.4c0-3,0.9-6,1.3-8.9
				c0.6,0,1.2,0.1,1.9,0.1v46.3c8.2-24.3,11.1-49.9,22.4-73.1c-11.4,33.1-12.9,67.8-16.9,102.4C385,573.4,383.5,572.6,383.5,567.6
				L383.5,567.6z M397.1,679.2c0.8,10.4,2,20.8,2.8,31.2c0.1,1.8-0.2,3.6-0.5,5.5c-2.2-12.1-5-24.2-6.1-36.5
				c-2-24.3-3-48.8-4.2-73.2c-0.3-6.3,0-12.6,1.1-19.1c0.2,1.8,0.5,3.6,0.6,5.4C393,621.5,395,650.4,397.1,679.2z M387.7,522.2
				c0.9-14,1.8-28.1,2.8-42.1c0.8,0,1.5,0.1,2.3,0.2c-0.9,14-1.8,28.1-2.7,42.2L387.7,522.2L387.7,522.2z M373.6,573.3
				c-4.4,1.8-7.3,0.8-7.8-3.7c-2-20-3.8-40.1-5.6-60.1c-0.2-1.9,0-3.9,1.1-5.9c1.5,14,2.9,27.9,4.3,41.9c0.4,0,0.8-0.1,1.1-0.1
				l-1.7-35.5c0.7-0.1,1.4-0.1,2.1-0.2c1.4,7.7,2.8,15.5,4.1,23.1v-32.7c0.2,0,0.4,0,0.6-0.1c0.7,8.9,1.9,17.8,2,26.8
				c0.2,11.8-0.3,23.6-0.4,35.5C373.6,565.9,373.6,569.5,373.6,573.3L373.6,573.3z M313.8,430.3c-0.1-0.4-0.3-0.8-0.4-1.2
				c1.8-0.5,3.6-1.1,5.5-1.5c19.4-4.4,38-11.2,55.7-20.3c7.4-3.8,15-7,22.4-10.6c2.1-1,4.2-2.2,5.8-3.8
				c13.1-12.9,29.8-19.2,46.5-25.5c2.5-0.9,5-1.7,7.5-2.5c-2.9,7.3-8.7,11.2-15.6,14c-19.4,7.6-35.8,19.7-51.5,33
				c-11.1,9.4-24.6,12.9-37.4,15c9.4-4.5,19.8-9.3,30.1-14.4c1.7-0.8,2.9-2.6,4.2-4.4C363.9,421.2,340.3,430.6,313.8,430.3
				L313.8,430.3z M302,385.8c1,4.4,3.4,4.6,6.6,4.7c6.5,0.2,13,0.1,19.4,0.6c2.9,0.2,5.7,1.4,8.5,2.5c-8.7,0-17.4-0.1-26.2,0
				c-4.8,0-9.6,0.6-10-6.3c0-0.8-1.2-1.5-1.9-2.3c-3.2,6.8-0.4,11.2,7.3,11.2c10.3,0,20.6-0.7,31-0.8c6.2-0.1,12.4,0.4,18.6,0.6
				c0.1,0.5,0.2,1,0.3,1.5c-1.6,1.1-3,2.3-4.7,3.2c-13.5,7.8-27.3,15.2-40.6,23.3c-9.8,5.9-23.5-2.3-23.3-13.6
				c0.1-2.6-1.2-5.2-1.3-7.8c-0.2-4.5-1.1-9.5,0.3-13.6c3.5-9.7,10.4-16.9,19.2-22.2C301.3,372.7,300.3,378.7,302,385.8z
				 M307.1,385.1c-2.3-7.4-0.1-12.6,5.7-16.6l1.3,0.6C312,374,309.8,379,307.1,385.1L307.1,385.1z M321.7,379
				c12.8,1.7,24.2,6.7,35.1,14.6c-15.7-2.4-30.8-4.6-45.8-6.9C312.7,378.9,314,377.9,321.7,379L321.7,379z M376.5,392.1
				c5.9-2,11.9-3.1,18.1,0c-26.2,7.5-48.5,24.3-75,30.9C338.2,411.8,355.8,399,376.5,392.1L376.5,392.1z M448.4,356.1
				c2.5-1.3,4.9-3.4,7.5-3.6c1.1-0.1,2.7,3.4,4.4,5.8c-9.5,4.8-18.5,9.3-27.5,13.8c-0.3-0.2-0.6-0.5-0.9-0.8
				c5.9-9.6,11.7-19.3,18.1-29.9c1.4,3,2.2,4.5,2.8,6c-1.8,2.8-3.4,5.5-5,8.1C448.1,355.7,448.2,355.9,448.4,356.1z M468.4,265.1
				c0.4-22,0.1-44,0.5-65.9c0.2-11.5,1.3-22.9,2.2-34.4c0.4-4.5,2.5-8.3,8.4-10.5c-6.5,10.1-7.3,20.3-7.2,30.7
				c0.4,41.1,0.9,82.3,1.4,123.4c0,2.5,0.4,5.2-0.4,7.4c-0.6,1.8-2.8,3.1-4.2,4.6c-0.9-1.6-2.7-3.2-2.7-4.8
				C466.9,298.7,468.1,281.9,468.4,265.1L468.4,265.1z M473.2,342.8c-3.2-2.4-6.2-3.7-7.8-6c-1.1-1.6-0.2-4.6-0.2-7
				c0.3,0.1,0.7,0.2,1,0.3C468.3,333.9,470.4,337.6,473.2,342.8L473.2,342.8z M449.2,158.5c1.5,15.4,3,30.8,4.6,46.2
				c0.6-0.1,1.1-0.1,1.7-0.2c-1-11.2-2-22.4-3.1-33.6c0.6-0.1,1.2-0.2,1.7-0.2c1.3,5,2.5,10.1,3.5,13.9c2.1-9.2-5-19.2-2-29.8
				c0.5,0,0.9,0,1.4,0c1,5.2,2,10.4,3,15.6c0.5,0,0.9-0.1,1.4-0.1c0.5-5.1,1-10.2,1.5-15.3l1.8,0c0.2,1.3,0.7,2.6,0.6,3.9
				c-1.4,31.6-2.3,63.2-4.3,94.8c-1.2,18.6-3.8,37.1-6,55.6c-0.2,1.4-2,3.1-3.5,3.9c-3.3,1.6-7,2.2-10.1,4c-1.6,0.9-3.7,4.2-3.2,5.2
				c1.2,2.4,3.5,4.7,6,6c1.1,0.5,3.5-1.6,5.4-2.6c0.3-0.1,0.6-0.3,1.9-1c0.4,2.9,0.7,5.3,1.1,7.7c-11,2.7-18.6-4.4-16.5-14.6
				c4.9-24.3,10-48.6,14.9-72.9c3.7-18.1,3.2-36-1.2-53.9C447.2,180.2,446.2,169.4,449.2,158.5L449.2,158.5z M450.8,29
				c-4.5,1.6-8.2,3-11.8,4.3C442.2,30.9,444.2,25.3,450.8,29z M446.4,62.4c0.1,1.2-0.7,2.8-2.3,6c-0.4,0.8-1,2.1-2.4,4.1
				c-1.4,2-3.9,3.8-4.2,6c-0.7,5.9-0.6,11.9-0.5,17.9c0.1,4.2-1,6.1-5.5,4.2c0,0-3.3-0.6-6.2-2c-0.3-0.2-0.9-0.4-1.1-1
				c-0.1-0.4-0.1-0.8,0-1c-3.9,0.2-4.3,1.2-4.4,1.5c-0.3,1.3,2.4,3.6,5.1,4.7c1.8,0.8,3.5,0.8,4,2.1c0,0,0.4,1,0,1.6
				c-0.5,0.7-1.9,0.3-4.2-0.1c-3.6-0.6-5.4-0.9-6.8-0.3c-0.9,0.4-2,1.3-2.7,3.5c0.4-0.4,1.1-0.9,2-1.1c0.3-0.1,0.7-0.1,2.9,0.5
				c2.7,0.7,2.8,0.9,3.5,0.9c0.5,0,0.9-0.2,1.2,0.1c0.4,0.3,0.4,1.2,0,1.7c-0.3,0.4-0.7,0.3-1.8,1.1c-0.2,0.1-0.3,0.2-0.6,0.4
				c-0.9,0.7-2.4,1.7-2.3,2.1c0.1,0.3,0,0.9,2.3,2.9c2.6,2.3,3.6,2.4,3.7,3.3c0.1,1.6-3.2,3.1-3.8,3.4c-0.6,0.3-1.1,0.5-1.4,0.5
				c-3.4,0.4-7,0.1-10.2-1c-6.3-2.1-12.8-4.3-18.3-7.8c-3.4-2.2-6.1-6.6-7.6-10.5c-3.2-8.3-4.2-8.8-7.4-11.5c-1.9-1.6-4.3-3-6.5-6.4
				c-1.2-2-1.9-3.8-1.5-4.1c0.6-0.4,3.3,4.2,8.7,5.8c1,0.3,2.9,0.9,3.8,0c0.7-0.7,0.5-2,0.2-4.3c-0.5-3.3-1.3-4.8-0.5-5.5
				c0.4-0.4,1-0.4,1.4-0.2c1.5,0.5,1.2,2.9,2.5,3.4c1.5,0.6,4-2.1,5.1-3.4c2.9-3.2,2.9-4.9,5.3-6.6c1.2-0.8,2.6-1.4,4.5-1.8
				c4.9-1,5.4-4.1,12-9.4c4.8-3.8,7.7-6.2,12.3-7.1c3.6-0.7,6.5-0.3,8.5,0C437.3,55.7,445.9,58.1,446.4,62.4L446.4,62.4z
				 M367.8,68.8c-0.4-0.7,1.7-3.4,4.4-3.5c2.9-0.1,5.1,2.9,4.8,3.5c-0.1,0.3-0.8,0-2.3-0.2C370.5,68,368.1,69.5,367.8,68.8
				L367.8,68.8z M396.2,45.8c-0.1-0.5-1.4-5.1,1.3-8.1c3.1-3.5,9.1-2.5,12.4-0.2c1.2,0.8,1.2,1.3,2.4,2.2c3,2.4,7.1,2.7,11.3,2
				c-1.1,1-2.8,2.4-5.1,2.8c-4,0.7-6.2-2-10-2c-2.1,0-5.2,0.8-8.9,4.8c-0.2-2.5-0.5-3.1-0.7-3.2c-0.2,0-0.4,0.4-1,0.9
				C397.3,45.4,396.6,45.7,396.2,45.8L396.2,45.8z M435,28.5c0.5,0.3,1.2,1.1,1.1,1.9c-0.1,1.2-2.1,1.8-1.9,2.4
				c0.1,0.6,2,0.3,2.5,1.2c0.2,0.5,0,1-0.2,1.3c-0.6,0.9-2,1.1-10.9,0c-1.8-0.2-2.1-0.3-2.2-0.6C422.6,33.1,431.9,26.4,435,28.5
				L435,28.5z M434.8,24.5c0,0.2-1.7,0.2-4.5,1.6c-2.8,1.4-3.4,2.6-6.2,4c-1.5,0.8-2.8,1.1-3.6,1.4c0.7-1.3,1.9-3.2,4-4.7
				C429,23.5,434.7,24.1,434.8,24.5L434.8,24.5z M415.2,24.9c1.9,2,3.3,3.6,4.6,5.1c0,0,0,0,0,0c-1.3,8.3-4.1,10.1-9.5,6.1
				C408.8,31.1,413.8,29.1,415.2,24.9L415.2,24.9z M413.3,17.3c-4.1,2-6.4,4.5-7.6,6.4c-2.6,4-3.1,8.3-6.8,9.9
				c-1,0.4-1.9,0.5-2.5,0.6c0.8-1,1.7-2.6,2.1-4.7c0.7-3.5-0.9-5.5,0.3-7.4c0.8-1.2,2.1-1.3,4.9-1.9
				C406.1,19.6,409.4,18.8,413.3,17.3L413.3,17.3z M397.6,6.1c1,0,1.6,3.9,2,6.3c0.5,3.3,0.9,6.1-0.6,7.6c-0.8,0.8-1.5,0.7-3.5,1.3
				c-2.6,0.8-4.6,1.8-6.1,2.7c0.6-0.9,1.6-2.2,2.6-4C396.2,12.2,396.3,6,397.6,6.1L397.6,6.1z M355.8,48c-0.3,0.4-3.4,4.6-2.1,6.1
				c0.2,0.3,0.7,0.5,1.1,0.4c0.9-0.2,1.7-1.5,3.2-10c0.5-3.1,0.6-4.2,1-5c0-0.1,0.2-0.3,0.3-0.6c1.4-2.3,4.6-4.9,6.2-4.2
				c1.6,0.7,0.5,3.9,2.1,4.7c2.3,1.1,7.1-5,8.2-4.2c0.7,0.5-0.9,3,0,3.7c1,0.9,5.1-0.7,5.2-3.1c0.1-1.5-1.6-3.2-3.3-3.5
				c-2.8-0.5-4.9,2.7-7,1.7c-0.2-0.1-0.8-0.4-1.1-1c-1.6-3.2,2.6-9.6,5.2-9.3c0.6,0.1,0.9,0.5,2.1,0.8c0,0,1.3,0.3,2.6,0.1
				c3.3-0.5,4-5.1,8.5-6.7c0.6-0.2,1.6-0.6,1.9-0.2c1,1.2-6.5,8.6-5.6,9.7c0.4,0.5,2.2-1,5.1-1.6c3.1-0.6,5.9,0.1,7.9,0.9
				c-1.1,5.7-2.9,7.6-4.5,8.1c-0.6,0.2-2.2,0.5-2.2,1c0,0.3,1.2,0.3,1.8,1.3c0.1,0.1,0.3,0.5,0.3,1.1c-0.1,1.3-1.6,1.6-1.9,2.7
				c-0.1,0.5,0,1.2,1.1,2.2c-0.8,3.3-2,4.3-2.9,4.5c-1.1,0.2-1.9-0.6-3.7-1c-1.9-0.4-3.6,0-4.8,0.4c0.2-0.7,1.3-3.8-0.1-5.2
				c-2.2-2.2-9.3,1.9-9.1,2.7c0.1,0.5,3-0.4,3.4,0.5c0.4,0.8-1.4,2.8-3.5,3.5c-3,0.9-6.5-1.2-6.3-2.2c0.2-1.2,5.5-1.1,5.5-1.6
				c0-0.4-2.6-0.5-4.5-0.7c-2.3-0.2-3.4-0.2-3.8,0.2c-1.1,1.2,1.9,3.8,1.8,7.7c-0.1,4-3.5,7.4-6.8,8.7c-1.2,0.5-3.5,1-6,0.2
				c-1.1-0.3-2.3-2.5-2.3-3.8C349.1,52.7,351.4,50.1,355.8,48L355.8,48z M343.6,95.1c-0.6-0.1-1.4-0.5-1.7-1.1
				c-1.1-2.2,3.6-4.9,3.1-8.2c-0.5-3.4-6-4.8-5.6-6c0.1-0.4,0.9-0.7,2.9-0.6c0.7,0.2,8.9,2.5,9,6.2c0,0.3,0,0.8-1.8,3.4
				C346.7,93.1,345.2,95.3,343.6,95.1L343.6,95.1z M349.1,78.1c-0.6-0.3-1.1-1.1-1.1-1.8c0.1-1.4,2.4-2.1,3.7-2.7
				c6.6-2.8,12.9-11.3,13.6-16.2c0.4-2.8,2.2-3.9,5-3.4c2.2,0.4,2-0.4,13.1-2.7c11.6-2.4,9.4-1,12-2.1c1.4-0.5,3.8-1.5,4.9-0.5
				c0.6,0.5,0.8,1.5,0.5,2.1c-0.4,0.7-1.3,0.6-3.4,0.9c-1.7,0.2-1.6,0.5-3.4,0.7c-3.3,0.5-6.6,0.6-9.9,1c-1.2,0.2-2.5,0.8-3.3,1.6
				c-1.1,1.1-1.7,3.6-2.8,3.8c-3,0.5-7,1.7-8.2-0.2c-0.6-1,0-2-0.5-2.2c-0.8-0.4-4.1,2.9-4.5,7c-0.3,2.8,1.1,3.2,0.6,5.1
				c-0.7,2.6-3.3,2.3-9.9,6.6C352.5,77.2,350.6,78.8,349.1,78.1L349.1,78.1z M354.4,88.1c-0.8-1,2.4-5.8,4.5-5.4
				c0.9,0.2,1.4,1.2,3,1.4c1,0.1,1.7-0.3,1.8-0.2C363.8,84.1,355.5,89.4,354.4,88.1L354.4,88.1z M215.9,505.6
				c-0.6,0.2-1.3-0.3-2.1-0.9c-4.5-3.9-5.4-10.2-5.6-11.4c-1-7.4,1.3-10.4-1.3-13.4c-1.3-1.5-3.2-2.3-3.9-2.5
				c-2.4-0.8-4.7-0.5-6.1-0.1c-0.9,0.3-3.8,1.8-7.8,9.4c-2.1,3.9-3.3,8.3-3.6,13.3c-0.4,5.4-2.4,10.7-4.3,15.8
				c-0.2,0.7-1.6,5.2-4.7,6.8c-0.4,0.2-1.4,0.7-2.1,0.3c-0.8-0.5-0.8-1.9-0.7-2.6c0.3-5,2.3-11.6,2.6-12.7c0.4-1.4,0.8-3.8,1.7-8.7
				c1.5-8.6,1.3-11.4,2.1-16.7c0.5-3.3,0.8-8.2,4.7-16.6c4.4-9.4,9-18.5,9.8-29.1c0.3-4,2-8.1,3.9-11.8c9-17.4,15-36,19.9-54.9
				c5-19.4,12.6-37.6,25.8-53c5.3-6.2,11.2-11.8,16.6-17.9c1.1-1.2,1.7-3,2.2-4.7c3.4-11.8,5.3-24.3,10.6-35.2
				c3.5-7.2,3.6-13.4,2.5-20.4c-3.1-19,2.1-35.9,12.2-51.8c5.8-9.1,13.8-14.5,24.6-16.2c4.9-0.8,9.5-3.4,14.3-5.3
				c2.5-0.9,4.9-1.9,7.4-2.9c9.9-5.6,17.1-9.2,22-11.2c1.2-0.5,4.3-1.7,6.5-4.7c1.1-1.5,1.9-3.4,2.3-5.6c2.1-11.6,4.2-23.3,6.7-34.8
				c0.4-2,2.5-4.4,4.4-5c3.3-1.1,5.8,0.9,6.5,4.4c1.9,10,7.1,18.1,13.5,25.8c3.6,4.3,5.9,9,5.9,14c0,3.2-1.2,6-2.5,9.1
				c-2,4.9-3.4,5.3-4.1,5.4c-0.8,0.1-1.4-0.3-1.8-0.6c-3.8-2.4-2.7-9.2-5-9.7c-0.5-0.1-1,0.2-1.3,0.3c-5,2.9,3.1,22.2,3.7,23.8
				c0.6,1.3,1.4,3.2,3,3.5c0.9,0.2,2.1-0.2,5.9-4.7c4.6-5.4,6.9-8.2,8-10.7c0.6-1.3,1.3-3.3,2.7-3.4c0.8-0.1,1.6,0.5,2,1.1
				c2.3,3.2-4.4,10.4-2.9,11.9c1.5,1.5,9-4.1,10.4-2.5c0.4,0.4,0.1,1.1,0,1.6c-1.1,3.7-7.3,4.6-7.2,5.3c0.1,0.4,3,0.6,6-0.6
				c2.5-1,3.7-2.4,5.1-3.7c5.1-4.4,12-5.4,12.3-4.6c0.4,0.9-8,5.3-7.5,6.4c0.2,0.6,2.9,0.3,14.4-3.7c1,6.9,2,14.1,3.2,21.2
				c2.3,13.9,6.3,27.8,3.4,42.1c-0.7,3.4-3,5.4-4,6.6c-5.7,7-15.7,12.4-21.2,10.7c-0.7-0.2-3.1-1.1-3.8-0.2c-0.3,0.4-0.2,1,0,1.3
				c1.2,2.7,12.2,3.3,21.3-0.3c1.6-0.6,3.1-1.4,3.9-0.7c1.5,1.2,0.4,6.3-2.6,9.5c-4,4.2-10.4,4-10.3,4.9c0.1,0.9,7.3-0.4,9.1,2.9
				c0.9,1.6,0.2,3.6-0.2,4.6c-1.3,3.8-2.8,9.6-3.6,18.9c-3.4-3.1-5.8-5.7-8.6-7.8c-1.3-1-3.4-1-5.1-1.5c-7-2-14.2-3.6-21-6.1
				c-6.1-2.2-2.3-13.2-1.1-14.8c1.4-1.9,1.8-2.2,1.8-2.2c0.7-0.6,1.2-0.9,1.4-1.6c0.1-0.5,0-1.2-0.4-1.6c-1-1-3.6,0.7-7,1.6
				c-5.5,1.5-9.7,0-9.9,0.8c-0.1,0.5,1.8,0.9,4.3,2.7c2.1,1.5,4.7,3.3,5,6c0.3,2.4-0.8,4.9-3.5,7.2c-1.5,1.3-3.3,2.4-5.1,3.1
				c-11,4.2-19.1,12-25.8,21.3c-1.5,2-2.9,4.1-4.4,6c-2.1,2.8-4.2,4.4-6.6,4.9c-2.6,0.6-5.9-0.2-8.2-1.9c-1.4-1-2.9-2.5-5.4-2.8
				c-0.8-0.1-1.1,0-1.2,0.2c-0.5,0.7,2,3,4.5,5.2c7.3,6.8,8.6,8.6,13,11.4c4.4,2.8,5.9,2.9,6.8,2.4c1.3-0.8,1.3-2.9,1.3-3.5
				c0.2-8.2,10.6-31.7,24.9-36c7.5-2.3,11.4,0.9,9.3,8.5c-1.4,5-2.5,9.6-2,15.1c0.3,4.2-3.8,9.2-6.7,13.2c-2.5,3.4-6,5.9-9.4,9
				c5.4,4.4,13.5-2.6,16.8,5.9c-3.2,2.2-4,3-3.9,3.1c0.2,0.4,4.6-2.3,6.6-0.8c0.4,0.3,0.8,0.9,0.7,1.4c-0.4,1.4-5.2,0.2-5.9,1.7
				c-0.5,1.2,1.9,4.3,4.9,4.6c3.7,0.4,7.3-3.5,6.8-5.8c-0.3-1.2-1.6-1.3-2.8-2.7c-2.6-3-0.6-8.2-0.5-10.1
				c0.5-13.9,0.2-27.9-0.2-41.9c-0.1-3.5,1.1-5.8,4.1-5c6.5,1.7,13.7,2.9,18.8,6.8c9.1,6.9,9.6,17.1,2.6,27.2
				c-3.9,5.7-9.4,10.4-8.5,18.6c2.3-0.4,5.1-0.8,8-1.2c6.3-1,13,5.7,12.1,12.1c-0.3,1.8-0.9,3.6-1.7,5.2
				c-7.6,15.2-19.4,26.1-34.4,33.7c-1.7,0.9-3.6,1.1-6.1,1.9c0.5-1.9,0.7-2.9,1-4c-0.3,0-0.6,0-0.8,0.1c-1.9,1-3.6,2.4-5.6,3.1
				c-8,2.9-16.1,5.7-24.2,8.2c-2.3,0.7-5.6,0.8-7.4-0.4c-12.5-8.3-25.8-14.6-41.3-15.2c-0.5-14.4,1.3-27.5,9.6-39.3
				c3-4.3,5.6-9.1,7.4-14.1c2.6-7,1.2-13.2-3.7-19.4c-3.7-4.7-6.6-10.7-7.9-16.5c-2-9.1-2.4-18.6-3.3-28c-0.2-1.9,0.4-3.9,0.7-6.3
				c3.9,1.6,7.5,2.8,10.9,4.5c6.3,3.1,12.6,3.8,19.4,2.1c9-2.2,18.4-3.4,27.2-6.4c5.4-1.8,10.4-5.6,14.9-9.4c4.9-4.1,7-9.5,3.6-16.1
				c-1.1-2.1-0.8-4.9-1.2-8.2c-3,0.5-3.8,1.1-3.8,1.6c-0.1,0.9,2.2,1.2,2.7,2.9c0.4,1.3-0.8,2-1.6,4.6c-0.5,1.7-0.3,2.2-0.7,4.7
				c0,0-0.5,3.1-1.5,6.5c-1.3,4-8,6.5-32.9,11.9c-3,0.7-8.6,1.2-15.9,1.6c-6.7,0.4-12.7-2-16.6-7.6c-5.6-7.9-10.7-16.2-15.8-24.1
				c-7.4,6.9-15.8,14.8-24.2,22.6c0.3,0.4,0.6,0.8,0.9,1.2c2.1-0.9,4.1-1.8,6.3-2.6c4.2-1.5,7.5,0.1,8,4.5c0.5,3.6,0.6,7.5-0.5,10.8
				c-3.6,11.2-7.5,22.4-11.9,33.4c-3.9,9.7-10.8,17.2-19.2,23.2c-3.1,2.2-3.1,4-1.1,6.4c3,3.6,3.8,7.3,0.3,11.9
				c3.3-1.2,5.7-2.1,9.4-3.4c-8.8,14.8-13.4,30.4-28.1,40c-10.9,7.1-9.9,10.5-16.3,19.2c0,0-10.4,14-22.9,47.5
				c-0.3,0.7-0.9,2.5-0.8,4.8c0.1,3.4,1.7,5.8,2.1,6.5c3.2,5.2,1.5,11.4,4.2,32.5c0,0.2,0.9,6.9,1.1,15.7
				C217.6,501.3,217.4,505.1,215.9,505.6L215.9,505.6z M263.6,386.7c-5.4,6.3-11.8,11.8-17.5,17.8c-8.7,9.2-17.3,18.7-25.9,28
				c-0.1,0-0.2-0.1-0.3-0.2c3.1-4.2,5.9-8.6,9.2-12.6c5.2-6.1,10.3-12.4,16.2-17.6c19-17.1,31.9-37.8,39-62.2
				c0.9-3.2,2.1-6.3,3.2-9.5c0.2-0.6,0.6-1.2,1.4-1.7c-0.2,1.1-0.3,2.3-0.6,3.4C283.5,351.8,277.1,370.9,263.6,386.7L263.6,386.7z
				 M282.9,430c1.2-3.6,2.8-7,4-10.3c3.9,3.2,7.5,6.2,11.4,9.4c-4.5,2.7-9.4,5.5-15.4,9.1c5.3,3.1,9.6,5.6,14.9,8.6
				C285.8,447.9,279.3,440,282.9,430z M296.4,498.2c-4.5,4.9-4.1,7.3-1.6,13.2c-4.9-1.9-7.2-6-5.5-10.7c1.5-4,3.8-7.8,5.1-11.9
				c0.9-2.8,1.4-6,0.8-8.8c-0.6-3-0.6-4.9,2.5-6.5c2.2-1.1,3.9-3.2,5.8-4.7c-6.5-4.5-4.4-10.6-4.2-15.9c0.2-5.8,8.8-13.4,15.8-14.4
				c0.1,6.5-4.9,9.2-9.3,12.7c2.5,3.1,4.8,2.3,6.7,0.1c2.4-2.7,4.5-5.8,6.8-8.6c1-1.2,2-2.4,3.9-3.1c-0.3,1.7-0.5,3.4-0.8,5.6
				c6.3-2.1,11.4-8.1,19.5-4.9c-12.1,12.6-28,20.3-38.6,33.8c0.2,0.4,0.5,0.7,0.7,1.1c1.4-0.9,2.8-1.7,4.2-2.6
				c14.8-10.4,29.6-20.9,44.5-31.2c1.5-1,3.6-1,5.4-1.5c-0.8,1.6-1.2,3.7-2.5,4.8C343,456,330.3,467,317.8,478.2
				C310.5,484.7,303,491,296.4,498.2L296.4,498.2z M299.4,537.7c0.4-2.3,0.5-4.8,1.4-7c1.9-4.5,4.1-8.7,6.2-13.1
				c-1.3,1.2-2.6,2.3-4,3.6c-4.2-15.4,1.2-26.4,15.5-32c6.8-2.7,13.5-5.7,20.2-8.5c1.5-0.6,3.1-1,5.5-0.7c-1.4,2.2-2.9,4.3-5,7.5
				c7.6-4.2,14.4-7.9,22.2-12.1c-4.1,8.8-8.4,16.2-15.4,21.2c-15.2,10.7-29.1,22.7-40.6,37.4c-1.3,1.7-3.1,2.9-4.6,4.3
				C300.4,538.1,299.9,537.9,299.4,537.7L299.4,537.7z M347.2,507.6c1.1,2.4,1.7,3.3,2,4.4c3.4,14.8,6.8,29.5,10,44.3
				c1.2,5.4,0,6.5-5.3,5.1c-13-3.5-11.1-1.7-12-13.7c-0.5-6.5-1.8-12.9-2-19.3c-0.2-4.3,0.9-8.6,1.4-12.9c0.7,0,1.5-0.1,2.2-0.1
				c2.1,6.7,4.3,13.4,6.4,20.1C350.1,526.6,342.8,518.4,347.2,507.6L347.2,507.6z M337.6,550.6c-5.2,0.4-10.7,0.8-16.7,1.2
				c0.8-11.4,2.9-22.8,8.5-33.2c0.5,0,1.1,0,1.6,0.1C333.2,529.4,335.4,540.2,337.6,550.6L337.6,550.6z M303.1,576.5
				c0.3-7.1,1.5-14.2,2.4-21.3c0.3-2.3,0.4-4.6,0.7-7c1-8.2,8.7-18.7,16.9-22.8c0,0.9,0.1,1.7,0,2.5c-1.6,10-3.3,20-4.9,30
				c-0.7,4.4-2.1,8-6,11c-2.4,1.9-3.9,5.2-5.3,8.1c-0.5,1.1-0.5,3.6,0.2,4c1.1,0.7,3,0.5,4.5,0.3c1.3-0.2,2.5-1,3.7-1.5
				c0.4,3.1,0.7,6,1.1,9C310.6,589.5,302.8,582.9,303.1,576.5L303.1,576.5z M309.9,675.3c1.2-12.5,2.3-25,3.6-38.4
				C315.7,642.5,313.7,665.1,309.9,675.3z M290.5,795c-0.5-0.2-0.9-0.4-1.4-0.5c0.2-2.8-0.1-5.7,0.6-8.4c2.8-10.8,5.9-21.5,8.7-32.2
				c0.8-3.2,1.8-6.6,1.6-9.8c-0.6-11,2.7-20.9,6.7-30.9c3.9-9.8,6.9-20,10.3-30c0.2,3.3,0.2,6.7,0.1,10.4
				c-0.2,7.8-1.2,14.9-2.4,21.1c4.7-12.7,9.4-25.5,14.2-38.4c1.3,12-0.5,20.9-2.4,26.9c-1.9,6.1-4.2,9.9-6.8,19.7
				c-0.7,2.7-0.8,3.5-3,14.8c-2,10.3-3.5,20.6-4.8,31c-0.5,3.8,0.4,7.8,0.8,12.1C303.4,781.8,295.3,785.7,290.5,795L290.5,795z
				 M302.4,801.8c0.7,4.5,2.7,6.7,6.1,5.4c5.5-2.1,7.6,0.2,8.4,5.2c0.2,0.9,0.6,1.8,1.1,3.1C309.7,817.9,300.6,810.4,302.4,801.8z
				 M340.8,748.6c-1.1,2.8-2.9,4.8-2.9,4.8c-2.8,2.1-5.9,3.8-9.1,5.2c-5.6,2.6-10.5,5.8-12.8,12.2c-1-6.7-0.1-11.8,0.7-14.8
				c1.9-7.3,6.4-14.1,7.2-13.7c0.2,0.1,0.1,0.4,0.2,1.4c0.1,0.6,0.5,5,2.1,5.7c1.7,0.8,4.9-2.6,5.4-3.1c4-4.3,3.9-10.3,4.9-13.7
				c0.5-1.8,0.1-3.8,0.1-5.7C337.3,728.1,344.2,739.7,340.8,748.6L340.8,748.6z M401.9,860.2c-0.1,1.4-0.5,7.7-4.8,9.9
				c-2.5,1.3-6.2,1.1-7.6-0.8c-1.6-2,0.4-5.2-0.8-5.9c-1.4-0.8-4.2,3.9-8.2,3.4c-1.2-0.2-1.4-0.7-3.1-0.8c-2.2-0.2-2.5,0.6-4.6,0.5
				c-2.5-0.1-2.9-1.5-5.2-1.3c-1.5,0.1-1.5,0.7-3.1,0.9c-1.6,0.2-3.9-0.1-5.7-1.7c-2.5-2.2-2.4-5.4-2.3-6.5c0.2-2.5,1.5-4.3,2.6-5.6
				c5-6.1,9.4-12.8,14.1-19.2c3.5-4.7,2.9-9.4,1.2-14.7c-1.1-3.5-0.9-7.4-1.4-11.1c-0.5-4.1-0.3-8.4-1.8-12.1
				c-7.4-18.6-15.7-36.8-22.6-55.5c-4.9-13.4-9.4-27.2-11.7-41.2c-1.8-11.1-1.4-23.1,0.5-34.2c2.9-16.8,3.5-33.4,2.3-50.3
				c-0.1-1.8-0.1-3.7-0.1-5.5c0-0.6,0.3-1.3,0.7-3.3c3.8,4.8,6.9,8.8,10.1,12.9c-0.9-6.6-2.5-12.6-7-17.9
				c-8.4-9.8-11.4-21.8-13-34.5c6-1.5,9.5,1.4,13.1,4.4c2,1.6,4.2,3.8,6.5,4.1c4.8,0.6,7.1,3,8.8,7.3c1.9,5.2,4.6,10.2,7.2,15.8
				c-3.7,0.8-7.3,1.5-10.8,2.2c0,0.4-0.1,0.8-0.1,1.2c1.9,0.7,3.8,1.5,5.7,2.1c4.5,1.4,7.8,4.4,8.2,9c0.4,4.7-3.2,6.8-7.5,8
				c-4.1,1.1-5.4,6-1.8,9.4c4.5,4.2,4.6,8.2,2.1,13.3c-0.9,1.9-0.6,4.5-0.2,6.8c1.4,9.3,3.5,18.6,4.3,28
				c2.8,32.6,5.6,65.1,16.1,96.4c1.7,5,4.3,9.7,6.5,14.5c-2.8-26.3-5.8-52.6-8.4-78.9c-0.9-9.4-0.7-18.8,2.5-29.4
				c1.3,3.2,2.4,5.3,3,7.4c3.4,11.6,5.1,23.4,3.6,35.5c-2.3,19.7-3.3,39.5-0.8,59.3c0.2,2,0,4,0,6c1.2,8,2.9,12.3,4.4,14.7
				c0.7,1.2,1.9,2.9,2.2,5.5c0.3,2.3-0.4,3.2,0.1,5.2c0.5,1.8,1.3,1.8,2.8,4.2c0.9,1.4,3.7,4.7,2.3,7.8c-1.6,3.5-1.2,6.4,0,9.5
				c1,2.4,0.8,5.1,0.8,10.2c0,4.5-0.4,4.6-0.2,8.2C401.4,857.7,402,857.7,401.9,860.2L401.9,860.2z M403.7,555.2
				c-1.8,12.8-2.2,25.9-2.6,38.8c-1,33.1-2.2,66.3,1.1,99.4c0.2,2.1,0,4.2,0,6.3c-0.5,0-1,0.1-1.4,0.1c-1.2-11.7-2.6-23.3-3.6-35
				c-2.8-33-2-66,1-98.8c2.6-28.2,6.9-56.2,15.2-83.4c3.7-12.2,9.4-23.9,19.9-32.2c0.7-0.6,1.6-0.9,3.2-0.7
				c-5.3,8.4-10.6,16.8-15.9,25.2c0.4,0.3,0.7,0.6,1.1,0.9c11.7-18.1,25.8-32.7,50.5-34.4c-22.9,9.3-39.1,23.8-46.8,43.4
				c7.2-7.5,15.2-17.7,25-25.8c10.3-8.5,23.8-8.6,36.7-9.3c-0.4,0.3-0.7,0.7-1.1,0.8c-20.4,4.2-34,18.4-47.3,32.5
				C419.7,503.4,407.7,527.6,403.7,555.2L403.7,555.2z M429.1,615.3c5.1,5.5,12.1,10,14,16.1c2.3,7.4,4.4,16.2,0.8,24.5
				c-0.5-9.8-6.6-16.8-11.5-24.4C428.2,625.2,427.8,622.2,429.1,615.3L429.1,615.3z M465.9,824.2c3.5,2.5,9.7,6.8,8.8,9.9
				c-0.2,0.7-0.7,1.1-1.2,1.4c-0.8,0.3-1.5,0.8-1.9,1.5c-0.2,0.5-0.1,0.6-0.4,1.4c-0.2,0.7-0.5,1.5-1,2.2c-0.9,1-1.6,0.6-2.2,1.6
				c-0.5,0.8-0.1,1-0.6,1.9c-0.6,1.1-1.3,0.9-2.2,2.2c-0.5,0.8-0.4,1-0.9,1.6c-0.6,0.8-1.5,1.3-2.1,1.5c-2.7,0.9-5.9-3.1-6.9-2.3
				c-0.4,0.3-0.3,1.1,0,1.5c0.3,0.4,0.8,0.4,1.3,0.6c0.9,0.4,1.4,1.7,1.3,2.4c-0.2,1.5-3.2,2.5-5.5,2.5c-3.4,0.1-7.4-1.7-9-4.8
				c-0.7-1.3-0.7-1.9-1.7-4.6c-0.7-1.9-1.7-3.2-1.9-3.4c-1.3-2-3.4-8.4-7-25.2c3.8-0.8,11.2-1.8,19.7,0.9
				C458.1,818.8,461.7,821.3,465.9,824.2L465.9,824.2z M469.7,556.5c-1.4,8.8-4.2,17.1-9,24.7c-3.2,5-3.6,10.7-0.5,15.7
				c3.1,5,2.2,9-1,13.3c-1.1,1.5-1.9,3.2-3.1,4.5c-1.2,1.2-3.3,3-4.2,2.7c-1.7-0.7-3.8-2.6-4.1-4.3c-0.6-3.3-0.2-6.8-0.2-10.8
				c-1.2,0.7-2.2,1.2-3.1,1.8c-7.6,5.2-16.1,4-20.9-4c-3.6-6.1-6-12.9-8.8-19.5c-0.8-1.7-1.3-3.6-2.9-5.1
				c3.1,10.8,6.3,21.6,9.4,32.5c-5.3-0.1-11.8-6.9-12.1-14.1c-0.4-7.4,0.6-14.9,1-22.4c0.2-3.8,0.8-7.6,0.6-11.4
				c-0.7-22.7,9.8-40,26.1-54.2c5.5-4.8,13-5.8,20.4-4.5c7,1.2,10.5,6.1,12,12.5C472.6,528,472,542.3,469.7,556.5L469.7,556.5z
				 M487.1,574.3c-3-2.6-3-2.7,0-16.9V574.3z M487.7,475.4h-29.5c11.4,2.2,22.8,4.2,29.2,15.8c-3.5-1.6-7.1-3.2-10.6-4.8
				c-0.2,0.2-0.5,0.5-0.7,0.7c2.2,3.1,4.5,6.1,7.4,10.1c-9.2-5.2-18-6.8-27.4-4.8c10,3,20.9,3.9,27.4,13.7
				c-6.4-2.9-12.7-5.6-18.9-8.5c-13.4-6.2-24.5-1.5-34.9,7.1c-2.5,2.1-4.9,4.3-7.7,6c14.2-22.8,30.6-43,57.2-51.7
				c0.5,0.6,0.9,1.2,1.4,1.7c-4.9,3.5-9.7,6.9-15.2,10.9c7.8,1,15,2,22.3,3C487.7,474.9,487.7,475.2,487.7,475.4L487.7,475.4z
				 M493.5,557.5c2.7-4.3,5.6-8.5,2.8-13.8C500.4,549,499.4,554.8,493.5,557.5z M490.7,398.9c-11.7,7.3-23.6,14.4-35.7,21.1
				c-6.5,3.6-13.5,6.1-21.1,5.2c-0.3-0.5-0.6-1-0.9-1.5c2.9-2.2,5.6-4.9,8.9-6.4c13.8-6.5,27.7-12.9,41.8-18.8
				c11.1-4.7,17.3-13.6,22.4-23.7c2.2-4.4,4.1-9,6.1-13.5C510.1,376.8,504.3,390.3,490.7,398.9L490.7,398.9z M512.2,466.7
				c8.2-23.1,16.1-46.2,19.5-70.6C530.6,421.2,524.5,444.8,512.2,466.7z M538.1,320.8c0.4,0,0.8,0,1.2,0V277
				c0.7-0.1,1.4-0.1,2.1-0.2c0.9,5,2.2,10,2.5,15c0.7,9.8,0.2,19.7,1.4,29.4c1.4,10.5-7.8,15-18.5,15.7c2.4-22,4.8-43.6,7.2-65.2
				c0.8,0,1.6-0.1,2.3-0.1c0.6,2.7,1.6,5.4,1.6,8.1c0.2,11.8,0.1,23.7,0.1,35.5C538.1,317.2,538.1,319,538.1,320.8L538.1,320.8z
				 M553.5,414.3c-0.9,28.1-2.8,56.2-3.4,84.4c-0.2,12.2-4.6,20.6-15.1,26.5c-4.6,2.6-9,5.8-12.9,9.4c-7.3,6.7-8.2,14.4-2.4,22.3
				c5.4,7.4,11.8,14.2,17.7,21.3c-8.1-6.6-16-13.6-20.7-23c-1.8-3.7-1.9-8.9-1-13.1c10.5-48.5,17.7-97.6,24.1-146.8
				c2.6-19.7,7.4-38.9,11.2-58.3c1.6-8.3,2-16.8,2.7-25.3c0.6-7.6,0.9-15.3,2.4-22.9c0.1,2.2,0.4,4.4,0.4,6.5
				C555.7,335,554.8,374.6,553.5,414.3L553.5,414.3z M572.8,372.5c-0.7,31-1.8,61.9-2.8,92.9c-0.3,8-1.5,9.7-7.4,11.1
				c2.3-45.6,4.6-91.1,6.8-136.5c0.7,0.1,1.4,0.2,2.1,0.2C572,350.9,573.1,361.7,572.8,372.5L572.8,372.5z M569,254
				c-1.3,1.4-4.4,2.7-6,2.1c-15.6-5.6-31.7-10.3-44.8-21.2c-0.6-0.5-1-1.2-1.8-2.4c9.5-0.6,18.5-1.2,27.4-1.8
				c0.1-0.7,0.1-1.4,0.2-2.2c-10.1-2.3-20.3-4.5-30.4-7.1c-4.9-1.3-10-2.7-14-5.4c-6.2-4.3-5.9-8.1-0.5-13.4
				c0.8-0.8,1.5-1.7,2.9-3.2c-3.8,0-6.8-0.2-9.8,0.1c-4.1,0.4-5.8-1.6-6.3-5.3c-1.3-9.5,4.9-15.3,11-20.6c5.5-4.7,12-3,17,1.1
				c4.7,3.8,8.4,8.7,12.6,13.1c1.2,1.2,2.5,2.5,4,3.2c7.7,3.8,15.6,7.4,23.3,11.2c3.4,1.7,4.3,4,2.7,8.1c-3.8,9.3-2.4,18.7,0.1,28
				c0.5,0,1,0,1.5,0c-0.2-2.3-0.3-4.6-0.6-6.9c-1.2-9.9,0.6-19.4,7.5-26.6c6.8-7.2,12.1-15,15.8-23.6c2.5-5.8,4.9-11.8,5.3-18
				c0.1-1.1,0.2-3.4,1.8-4.9c2-1.8,4.3-0.6,8.3-1.2c6-0.9,8.5-4.8,9.6-3.9c1.3,1-1.7,6.3-5.1,14.1c0,0-3.5,8.1-6.2,16.8
				c-3.3,10.8-0.5,14.2-2.6,26.3C589.2,227.4,580.5,241.5,569,254L569,254z M575.8,267c3.6-0.5,7.2-0.9,11.8-1.5
				C583.5,269.7,579.7,269,575.8,267z M580.6,393.6c-0.5,0-1,0-1.5,0v-24.5c0.5,0,1,0,1.5,0.1V393.6z M594.9,345.7
				c-4.8,3.2-10,5.8-16.7,9.5c1-19.1,1.9-36.9,2.8-55c0.8,0.3,1.3,0.4,1.3,0.5c0.1,1.8,0.2,3.6,0.2,5.5c0,6-0.1,12,0.1,18
				c0.1,3.4,1.1,6.2,5.5,6.2c4.2-0.1,6-2.2,6-6.2c0-2.2,0.2-4.5,0.4-6.7c0.5,0,0.9,0,1.4,0c0.7,7.6,1.6,15.3,2,23
				C598,342.2,596.5,344.7,594.9,345.7L594.9,345.7z M586.6,134.3c-20,5.4-39.2,4.8-56.5-8.4c-14.9-11.4-21.8-32-16.9-50.1
				c0.3-1.1,0.8-2.2,1.2-3.2c-3.4,21,1.5,39.1,19.3,50.9c22.3,14.9,45.5,15,68.6-1.4C598.3,128.7,593.1,132.5,586.6,134.3
				L586.6,134.3z M614.1,128.3c-0.4,0.2-2.9,1.6-4.2,0.7c-1.4-0.9-0.8-3.6-0.8-8.5c0,0-0.4-3.8-0.6-8.5c-0.2-4.5-1.3-8.6-3.5-12.1
				c-1.3-2-3.3-2.6-5.1-5.7c-0.6-1-1.8-2.9-1.1-3.7c0.7-0.9,3.3,0.2,4.4,0.6c4.4,1.8,7.5,4.9,8.9,6.6c1.9,2.3,3.1,4.4,3.6,4.1
				c0.1,0,0.3-0.2-0.1-1.7c-1-3.8-3.2-6-5.5-9.1c-2.6-3.6-1.7-3.2-3.7-5.7c-3.2-4.1-4.9-4-6.1-6.8c-1-2.6-1.1-6.1,0.3-6.8
				c2-1,6.9,4.6,9.8,7.9c1.3,1.5,2.5,3,4.1,5c3.4,4.3,5,6.6,5.3,6.4c0.2-0.1-0.5-1.8-1.3-3.6c-1.5-3.2-3.9-7.6-7.5-13
				c-1.6-2.8-3-5.3-2.4-8.2c0.2-0.9,0.5-2,1.2-2.3c1.2-0.4,4,1.7,10.8,13.8c0-0.9,0-2.1-0.5-3.5c-0.6-1.6-1.4-2.4-1.1-2.8
				c0.4-0.5,1.9-0.2,2.9,0.6c0.6,0.4,0.8,0.8,1.2,1.3c1.2,1.9,1.8,2.9,2.2,3.7c2.2,4.7,2.2,13.7,2.2,13.7c0,6.8,0.4,10.3-0.4,13
				c-0.8,2.9-1.4,2.8-3.9,7.8C618.5,121.3,618.6,125.7,614.1,128.3L614.1,128.3z"/>
			<path d="M307.2,517.3c-0.1,0.1-0.1,0.2-0.2,0.4c0.1-0.1,0.2-0.2,0.3-0.2L307.2,517.3L307.2,517.3z"/>
			<path d="M261.4,319.9c0.8,0.4,0.6,1.8,0.8,5.3c0.4,6,1.5,5.7,1.2,9.2c-0.1,1.6-0.5,3,0.3,3.6c0.5,0.4,1.4,0.2,1.9-0.2
				c1.1-1,0.5-3.4,0.3-4.3c-2-8-1.8-23-3.4-22.9c-0.8,0-0.2,3.7-3.2,8.2c-0.9,1.3-2.1,2.8-1.8,3C257.8,322,260.1,319.3,261.4,319.9
				L261.4,319.9z"/>
			<path d="M350.3,375.9c1.1,3,0.6,5.5,1.4,5.6c0.8,0.1,2.8-2.8,2.4-5.6c-0.7-5.5-9.9-8-10.3-7.4C343.5,369,348.3,370.8,350.3,375.9
				L350.3,375.9z"/>
			<path d="M337.8,242.7c1.7,0.7,3.4-0.1,3.8-0.3c0.4-0.2,2.4-1.2,2.4-2.6c0-1.7-3.1-3.6-5.6-2.9c-1.3,0.4-2.9,1.7-2.8,3.3
				C335.7,241.8,337.6,242.6,337.8,242.7L337.8,242.7z"/>
			<path d="M421.2,68c-1.4,0.1-6.8,0.1-12,3.6c-1.1,0.7-1.9,1.5-2.5,2c0.4-0.1,1-0.2,1.8-0.4c1.8-0.4,2.3-0.8,3.6-1
				c1.6-0.3,3-0.3,3,0c0.1,0.3-1.4,0.6-2.6,1.9c-0.8,0.8-1.3,1.8-1.6,2.4c1,0.5,2,1.1,2.9,1.6c0.7,1.1,2,2.8,4.2,4.1
				c4.7,2.8,9.7,1.3,10.6,1c0,1.5,0,2.9-0.1,4.4c0.2-0.8,0.6-2,1-3.5c1-3.3,1.5-4.9,2.4-6.4c0.6-1.1,1.8-2.7,3.8-4.3
				C432.8,69.5,427.2,67.7,421.2,68L421.2,68z"/>
		</g>
		<path class="st0" d="M415.8,74.1c-0.3,0.6-0.2,1.2-0.1,1.7c0.3,1.7,1.3,2.9,1.5,2.8c0.2-0.2-1.1-2-0.6-3.8
			c0.3-1.1,1.2-1.6,1.1-1.9c-0.1-0.2-0.7,0.1-0.9,0.2C416.5,73.3,416.1,73.5,415.8,74.1L415.8,74.1z"/>
		<path class="st0" d="M418.3,72c0-0.2,2.7-0.8,5.7-0.5c1.4,0.2,2.8,0.6,2.8,0.7c0,0.1-1.2,0-4-0.1C419.1,72,418.3,72.1,418.3,72z"
			/>
		<path class="st0" d="M458.9,640.3c-1.8-3.1-5.1-6.3-6.4-5.4c-1.3,0.8,0.3,5.3,0.8,11.1c0.8,8.8-0.8,22.1-5.7,24.2
			c-4.6,1.9-12.2-6.3-16-14c-5.2-10.6-2.8-19.8-7.2-21.3c-3.6-1.2-8.4,2.1-10.5,6.5c-3,6.1-0.7,13.7,0.5,18
			c5.8,20.7,5.5,40.5,5.1,71c-0.2,13-0.3,19.5-0.6,21.6c-1.2,6.6-3.1,12-1,18.2c1.1,3.1,1.9,2.8,3.8,6.7c4.6,9.5,2.3,16.7,4.7,17.8
			c3,1.3,12-8.7,12.7-20.8c0.5-8.7-4.7-10.4-6.9-22.2c-2.7-14.1,1.2-27.2,2.5-27.1c1,0,0.4,7.9,2.5,8.6c3.5,1.2,11.1-18,14.9-28.8
			c4.2-11.7,5.7-21.8,8.6-41.8C461.8,654.7,462.7,646.7,458.9,640.3L458.9,640.3z"/>
	</g>
</g>
</svg>
