<?xml version="1.0" encoding="utf-8"?>
<!-- Generator: Adobe Illustrator 28.3.0, SVG Export Plug-In . SVG Version: 6.00 Build 0)  -->
<svg version="1.1" id="Layer_1" xmlns="http://www.w3.org/2000/svg" xmlns:xlink="http://www.w3.org/1999/xlink" x="0px" y="0px"
	 viewBox="0 0 401.3 903.2" style="enable-background:new 0 0 401.3 903.2;" xml:space="preserve">
<style type="text/css">
	.st0{fill:#FFFFFF;}
</style>
<g>
	<path class="st0" d="M388.1,312.1c-6.1-15.3-14.1-29.9-28.7-38.7c-8.2-4.9-11.7-11-14.1-19.9c-3.3-12.5-8.5-24.3-5.4-37.7
		c0.7-2.9-0.2-6.3-0.7-9.4c-2.4-15.2-7.5-29.1-20.4-38.7c-3.5-2.6-7.5-4.6-6.6-10.1c0.1-0.8-0.7-2-1.4-2.5
		c-8.6-6.2-17.7-11.6-29-9.2c-3.5,0.8-6.1,0.1-8.7-2.2c-7.3-6.6-15.8-8.9-25.5-6.9c-1.4,0.3-3.6,0.2-4.6-0.6
		c-3.9-3.4-6.7-7.6-7.7-13.1c7.5-0.4,13.5-2.6,16.9-9.4c1.6-3.3,3-6.4-0.1-10.1c-1.4-1.7-0.9-5.1-1.3-8c2.1,0.1,3.1,0.1,4,0.2
		c5.3,0.8,8.1-2,9.6-6.7c1.8-5.4,0.7-12-3-13.6c-3.4-1.4-3.6-3.3-2.7-6c6.3-2.3,8.9-6.8,7-12.1c-2-5.9-3.5-6.2-14-2.6
		c0.7-0.8,2.4-3,2.6-6.2c0.3-4.5-2.5-7.5-3.2-8.2c-1.8-1.8-3.8-2.5-4.8-2.8c0.6-1.3,2.6-6.1,0.4-10.4c-0.5-1-1.9-3.6-4.1-3.6
		c-1.7,0-2.9,1.4-3.2,1.8c-4.3-9.7-11.2-15.8-21.5-17.2c-4.2-0.6-7.9-1.8-10.8-5.3c-1.2-1.4-3.8-2.2-5.8-2.3
		c-15.1-1.1-28.4,5.7-42.2,8.9c-2.4-0.6-5-1.3-7.4-1c-4.7,0.6-8.2,0.1-9.5-5.3C142,1.8,140.2,0,139.1,0c-1.2-0.1-2.9,1.5-3.6,2.8
		c-3.6,6.3-4.6,12.6,1.4,17.8c-0.7,1-0.8,1.4-1.1,1.5c-10.1,1.7-9.8,11.8-14.5,17.9c-0.6,0.8-0.3,3.2,0.5,4.2
		c1.9,2.5,0.8,4.4-0.2,6.8c-0.4,1-2.3,5.7-0.8,7.7c1.2,1.5,4.4,1,5.8,0.7c0,4.9-1.5,10.2,0.4,12.7c1.9,2.4,7.4,1.9,12,2.8
		c-0.1,0.6-0.7,2.3-0.6,4c0.1,1.7,0.4,3.7,1.3,5c3.1,4.2,7.3,7.6,9.6,12.1c4.8,9.3,8.5,19.2,12.9,28.6c1.2,2.5,3.1,5.1,5.4,6.6
		c2.5,1.6,5.8,1.6,5.6,5.8c-0.2,4-2,6.7-5.6,8c-5.9,2.2-12,4.1-17.9,6.1c-3.8,1.3-8.1,1.9-11.2,4.1c-7.9,5.9-16.8,8.5-26.3,10
		c-13.8,2.3-23.5,10.4-30.5,22.1c-9.2,15.5-10.6,32.3-8.4,49.8c0.5,3.9-0.6,8.1-1.5,12.1c-2.7,12-6.4,23.8-8.3,35.9
		c-1.2,7.8-3,14.8-7.6,21.2c-10.6,14.8-17,31.3-19.2,49.3c-1.3,10.7-1.3,21.6-2.2,32.4c-1.2,13.6-2.5,27.2-4.2,40.7
		c-0.4,3-2.2,5.8-3.4,8.7c-0.8-0.1-1.5-0.1-2.3-0.2c-1.3-4.9-2.3-9.9-3.9-14.6c-0.7-2-2.5-5-4-5.1c-5.6-0.5-10.9,1.2-14.9,5.6
		c-2.3,2.6-2.5,5.2-0.4,8.1c4.5,6.3,8.9,12.6,13,19.1c0.9,1.4,1.2,3.9,0.5,5.3c-1.4,3-3.6,5.7-5.6,8.5c-3.1,4.5-5.4,8.9-2.9,14.8
		c2,4.7,2.9,9.8,4.3,14.7c0.1,0.3,0.4,0.6,0.7,0.7c3.5,1.9,5.6,4.4,5.1,8.9c-0.1,1.2,2.5,2.7,3.8,4.1c1.5,1.6,3.7,3,4.3,5
		c1.9,5.4,4.8,8.2,10.5,7.7c3.2-0.3,5.1,0.1,5.9,3.5c0.2,0.9,1.8,2.3,2.6,2.2c3.2-0.5,3.8,1.5,4.8,3.8c8,20.5,15.7,41.1,24.4,61.3
		c22.9,52.7,46.3,105.2,69.5,157.7c15.9,36,31.9,71.8,47.9,107.8c2.8,6.2,2.7,6.9-3.5,9.9c-6.3,3.1-12.7,5.8-19.2,8.5
		c-5.3,2.3-7.9,6-8.2,11.9c-0.3,5.8,1.7,9.8,6.9,12c4.3,1.7,8.7,3.5,13.2,4c6.8,0.7,13.7,0.5,20.5,0c10.4-0.8,19-5.4,25.9-13.3
		c1.3-1.5,3.6-3,5.4-3c15.3-0.1,30.6,0.1,45.9,0.5c1.2,0,2.9,1.5,3.4,2.7c4.2,9.8,10.9,13.9,21.6,12.8c1.8-0.2,3.6,0,5.4,0
		c7.8-0.2,15.6,0.1,23.3-0.9c7-0.9,11.8-6.2,12.3-11.5c0.6-6-2.6-11.2-9.2-14.7c-0.1-0.1-0.3-0.2-0.5-0.2
		c-14-4.8-22.2-15.6-27.9-28.4c-2.2-5-2.2-10.9-4.1-16.1c-3-7.7-4-15.5-2.9-23.5c1.9-13.7,3.2-27.5,6.2-41c8-36.5,8-72.5-6-107.6
		c-3.9-9.8-5.2-19.7-4.8-30.3c0.3-6.7,2.2-11.3,7.9-14.7c6-3.6,9.3-8.8,8.1-16.3c-0.3-1.8,0.5-4.4,1.7-5.8c4.2-4.9,4.6-8.2,2-14.4
		c-2.3-5.5-4.7-11.2-5.5-17c-2.8-18.9-5-37.8-7.3-56.5c13.1,3.6,26.9,3.6,40.3-1.8c21.2-8.6,35.1-24.8,43.6-45.2
		C404.9,409,407.4,360.7,388.1,312.1L388.1,312.1z"/>
	<g>
		<g>
			<path d="M388.1,312.1c-6.1-15.3-14.1-29.9-28.7-38.7c-8.2-4.9-11.7-11-14.1-19.9c-3.3-12.5-8.5-24.3-5.4-37.7
				c0.7-2.9-0.2-6.3-0.7-9.4c-2.4-15.2-7.5-29.1-20.4-38.7c-3.5-2.6-7.5-4.6-6.6-10.1c0.1-0.8-0.7-2-1.4-2.5
				c-8.6-6.2-17.7-11.6-29-9.2c-3.5,0.8-6.1,0.1-8.7-2.2c-7.3-6.6-15.8-8.9-25.5-6.9c-1.4,0.3-3.6,0.2-4.6-0.6
				c-3.9-3.4-6.7-7.6-7.7-13.1c7.5-0.4,13.5-2.6,16.9-9.4c1.6-3.3,3-6.4-0.1-10.1c-1.4-1.7-0.9-5.1-1.3-8c2.1,0.1,3.1,0.1,4,0.2
				c5.3,0.8,8.1-2,9.6-6.7c1.8-5.4,0.7-12-3-13.6c-3.4-1.4-3.6-3.3-2.7-6c6.3-2.3,8.9-6.8,7-12.1c-2-5.9-3.5-6.2-14-2.6
				c0.7-0.8,2.4-3,2.6-6.2c0.3-4.5-2.5-7.5-3.2-8.2c-1.8-1.8-3.8-2.5-4.8-2.8c0.6-1.3,2.6-6.1,0.4-10.4c-0.5-1-1.9-3.6-4.1-3.6
				c-1.7,0-2.9,1.4-3.2,1.8c-4.3-9.7-11.2-15.8-21.5-17.2c-4.2-0.6-7.9-1.8-10.8-5.3c-1.2-1.4-3.8-2.2-5.8-2.3
				c-15.1-1.1-28.4,5.7-42.2,8.9c-2.4-0.6-5-1.3-7.4-1c-4.7,0.6-8.2,0.1-9.5-5.3C142,1.8,140.2,0,139.1,0c-1.2-0.1-2.9,1.5-3.6,2.8
				c-3.6,6.3-4.6,12.6,1.4,17.8c-0.7,1-0.8,1.4-1.1,1.5c-10.1,1.7-9.8,11.8-14.5,17.9c-0.6,0.8-0.3,3.2,0.5,4.2
				c1.9,2.5,0.8,4.4-0.2,6.8c-0.4,1-2.3,5.7-0.8,7.7c1.2,1.5,4.4,1,5.8,0.7c0,4.9-1.5,10.2,0.4,12.7c1.9,2.4,7.4,1.9,12,2.8
				c-0.1,0.6-0.7,2.3-0.6,4c0.1,1.7,0.4,3.7,1.3,5c3.1,4.2,7.3,7.6,9.6,12.1c4.8,9.3,8.5,19.2,12.9,28.6c1.2,2.5,3.1,5.1,5.4,6.6
				c2.5,1.6,5.8,1.6,5.6,5.8c-0.2,4-2,6.7-5.6,8c-5.9,2.2-12,4.1-17.9,6.1c-3.8,1.3-8.1,1.9-11.2,4.1c-7.9,5.9-16.8,8.5-26.3,10
				c-13.8,2.3-23.5,10.4-30.5,22.1c-9.2,15.5-10.6,32.3-8.4,49.8c0.5,3.9-0.6,8.1-1.5,12.1c-2.7,12-6.4,23.8-8.3,35.9
				c-1.2,7.8-3,14.8-7.6,21.2c-10.6,14.8-17,31.3-19.2,49.3c-1.3,10.7-1.3,21.6-2.2,32.4c-1.2,13.6-2.5,27.2-4.2,40.7
				c-0.4,3-2.2,5.8-3.4,8.7c-0.8-0.1-1.5-0.1-2.3-0.2c-1.3-4.9-2.3-9.9-3.9-14.6c-0.7-2-2.5-5-4-5.1c-5.6-0.5-10.9,1.2-14.9,5.6
				c-2.3,2.6-2.5,5.2-0.4,8.1c4.5,6.3,8.9,12.6,13,19.1c0.9,1.4,1.2,3.9,0.5,5.3c-1.4,3-3.6,5.7-5.6,8.5c-3.1,4.5-5.4,8.9-2.9,14.8
				c2,4.7,2.9,9.8,4.3,14.7c0.1,0.3,0.4,0.6,0.7,0.7c3.5,1.9,5.6,4.4,5.1,8.9c-0.1,1.2,2.5,2.7,3.8,4.1c1.5,1.6,3.7,3,4.3,5
				c1.9,5.4,4.8,8.2,10.5,7.7c3.2-0.3,5.1,0.1,5.9,3.5c0.2,0.9,1.8,2.3,2.6,2.2c3.2-0.5,3.8,1.5,4.8,3.8c8,20.5,15.7,41.1,24.4,61.3
				c22.9,52.7,46.3,105.2,69.5,157.7c15.9,36,31.9,71.8,47.9,107.8c2.8,6.2,2.7,6.9-3.5,9.9c-6.3,3.1-12.7,5.8-19.2,8.5
				c-5.3,2.3-7.9,6-8.2,11.9c-0.3,5.8,1.7,9.8,6.9,12c4.3,1.7,8.7,3.5,13.2,4c6.8,0.7,13.7,0.5,20.5,0c10.4-0.8,19-5.4,25.9-13.3
				c1.3-1.5,3.6-3,5.4-3c15.3-0.1,30.6,0.1,45.9,0.5c1.2,0,2.9,1.5,3.4,2.7c4.2,9.8,10.9,13.9,21.6,12.8c1.8-0.2,3.6,0,5.4,0
				c7.8-0.2,15.6,0.1,23.3-0.9c7-0.9,11.8-6.2,12.3-11.5c0.6-6-2.6-11.2-9.2-14.7c-0.1-0.1-0.3-0.2-0.5-0.2
				c-14-4.8-22.2-15.6-27.9-28.4c-2.2-5-2.2-10.9-4.1-16.1c-3-7.7-4-15.5-2.9-23.5c1.9-13.7,3.2-27.5,6.2-41c8-36.5,8-72.5-6-107.6
				c-3.9-9.8-5.2-19.7-4.8-30.3c0.3-6.7,2.2-11.3,7.9-14.7c6-3.6,9.3-8.8,8.1-16.3c-0.3-1.8,0.5-4.4,1.7-5.8c4.2-4.9,4.6-8.2,2-14.4
				c-2.3-5.5-4.7-11.2-5.5-17c-2.8-18.9-5-37.8-7.3-56.5c13.1,3.6,26.9,3.6,40.3-1.8c21.2-8.6,35.1-24.8,43.6-45.2
				C404.9,409,407.4,360.7,388.1,312.1L388.1,312.1z M259,90.3c-1.6,1.6-4.6,1.2-7.2,0.9c-3.5-0.4-6.2-1.6-7.8-2.5
				c1.2-0.7,3.1-1.7,5.6-2.6c2-0.7,2.6-0.8,3.6-1.3c1.5-0.8,3.2-2.6,4.2-7.1C260.8,83,261.2,88.2,259,90.3L259,90.3z M251.1,63.8
				c1.7-0.6,3.9-0.6,5.6-2.4c1.4-1.6,1.6-3.8,1.5-5.4c2.8,3.3,1.8,5.5-1.3,7.4c-3.8,2.3-5.2,2.3-5.9,4c-0.8,1.9,1,3.1,0.1,5.1
				c-0.5,1-1.6,1.6-3.8,2.8c-1.7,0.9-3.1,1.5-4.1,1.9C245.2,67.7,248.4,64.6,251.1,63.8L251.1,63.8z M305.9,159.6
				c-11.3,2.2-14,5-14.5,16.5c-0.9,19.8-0.8,39.6-2,59.4c-1.3,20.6-3.5,41.1-5.8,61.6c-1.9,16.5-12.6,26.1-27.4,32.2
				c2.8-3.3,5.3-6.9,8.4-9.9c4.6-4.5,7.6-9.8,8.7-16c2.9-17.4,6-34.8,8.1-52.2c2.8-24.5,4.6-49.1,7.2-73.5
				c0.6-5.5,2.5-11.1,4.9-16.1C296.3,155.1,299.3,154.8,305.9,159.6L305.9,159.6z M288.7,395.6c1.7,3.3,5.5,5.5,5.6,9.9
				c0.2,8.3-1.5,12.9-10.7,9.6c-7.5-2.7-14.7-6.1-21.7-9.8c-4.3-2.3-6.2-6.3-4.5-11.5c1.6-4.8,3-9.7,4.7-15.2
				c2.3,4.6,3.5,9.1,6.3,12.4c4.2,5,9.3,9.2,14.3,13.5c0.9,0.8,3.1,0.8,4.2,0.2c0.9-0.5,1.6-2.5,1.5-3.7c-0.2-1.7-1.1-3.4-2-5
				c-4.4-8-8.9-16-13.2-24c-1.3-2.4-2.3-5.3,0.7-6.9c1.6-0.8,4.1-0.3,6.1,0c2.1,0.4,4.1,1.4,6.2,1.9c5.4,1.3,5.4,1.2,9.1-2.9
				c0.9,4.6-1.6,7.5-4.9,9.5c-1.3,0.8-4.2,0.2-5.7-0.8c-2.6-1.6-4.7-4.1-8.1-5.6C280.5,376.8,284.2,386.5,288.7,395.6L288.7,395.6z
				 M233.5,835.3c-5.5-4.7-11.1-2.8-17.3-0.2c-0.3-3.5-0.8-6.5-0.6-9.4c0.4-7.8-1.7-14.7-5.4-21.5c-11.5-21-23-42.1-34.3-63.2
				c-3.4-6.3-5.7-18.4-11.7-42c0,0-3.7-14.6-1.7-15.2c0.8-0.2,2.4,5.1,7.2,6.7c0.4,0.1,2.2,0.8,2.6,0.2c0.8-1-3.3-4.1-5.8-10.4
				c-1.1-2.8-1.9-4.5-1.1-5.6c1.9-2.5,12-0.4,15.7,6c1.1,1.8,1.4,3.5,1.5,4.2c1.1,6.2-2.6,10.9-1,12.3c0.6,0.5,1.7,0.3,2.2,0.1
				c7.2-2,9.1-16.7,11.6-16.5c2.4,0.2,3,12.5,3,12.5c1.1,22.7,5,42,15.1,80c1.9,7,3.8,14.1,5.8,21.1c1.7,6.1,3.6,12.2,6.1,17.9
				c1.4,3.2,4.3,5.8,6.3,8.9c2,3.2,7.1,5.9,1.9,10.5C233.1,832.2,233.5,833.8,233.5,835.3L233.5,835.3z M135.7,602.2
				c-5.8-35.8-12.6-71.6-13.7-108c-0.2-7.9,0.5-15.7,0.8-23.6c0.8-0.1,1.7-0.3,2.5-0.4c1,2.9,2.2,5.7,3.1,8.6
				c5.1,15.1,9.4,30.6,15.6,45.3c3.6,8.4,9.6,16,15.7,22.8c4.3,4.9,10.7,8,17,12.5c-3,3.4-6.4,7.7-10.4,11.6c-2.7,2.7-4.7,0-5.9-2.1
				c-4.6-7.8-8.9-15.6-13.2-23.5c-2.5-4.7-4.7-9.5-7.4-14.1c3.3,17.9,10.1,34.2,23.4,47.1c5.3,5.1,8.6,5,11.7-1.5
				c8.1-16.4,15.8-33,22.9-49.8c4.5-10.5,7.7-21.6,11.5-32.5c1-3,2.3-5.8,3.5-8.7c0.4,0.1,0.9,0.1,1.3,0.2c-0.2,3-0.1,6-0.6,8.9
				c-4.2,24.3-8.6,48.5-12.9,72.8c-3.7,20.8-7.1,41.7-15.7,61.3c-0.3,0.7-0.4,1.5-0.8,3.3c3.2-2.3,5.6-3.9,8.4-5.8
				c-7.6,17.5-40.9,22.5-57.3,8.6h6.3C139.6,623.9,137.5,613.1,135.7,602.2L135.7,602.2z M126.4,443.1c4.2-4,7.4-7.1,10.6-10.1
				c-4.7,3.4-9.5,6.8-14.2,10.1c-0.6,0.4-1.5,0.6-2.2,0.5c-10-0.5-17-12.4-12.4-21.3c3,3,3.7,8.9,10.5,8.7
				c-4.3-9.7-1.8-20.5-7.9-29.4c-2.8-4.1-1.9-8.8,1.9-14.2c0.5,9.1,8.1,11.2,13.6,16c7.9-2.8,16.9-5.9,26.8-9.4
				c-3.1,6.3-25.9,19.5-36.1,21.3c4,3.8,7.6,7,11.6,10.8c5.4-4.8,10.6-9.1,15.5-13.8c6.4-6,12.1-13,19.1-18.2
				c4.5-3.3,10.8-4.2,16.2-6.2l1.1,1.9c-6,6.6-12.1,13.1-18,19.8c-3.6,4-7.2,8.2-10.8,12.3c5-3.5,9.9-7.2,15.1-10.6
				c8.8-5.6,18.1-10.5,26.4-16.7c8.2-6.1,15.6-13.4,23.3-20.2c2.2-1.9,4.2-4,6.4-5.9c0.6,0.4,1.2,0.8,1.8,1.2
				c-2.7,4.8-5.4,9.6-8.4,14.7c7.6-7.6,14.8-15,22.1-22.4c0.7,0.5,1.4,1.1,2.1,1.6c-4.2,7.5-8.5,15-12.7,22.5l0.6,0.5
				c3.3-4.2,6.7-8.4,9.9-12.6c2.1-2.8,4.1-5.7,6.2-8.4c2.6-3.3,5.2-4,8.3,0.5c-3.6,4.9-7.2,10-11,15c-12.3,15.7-24.3,31.7-37.2,47
				c-6.5,7.7-14.3,14.5-22,21c-8.7,7.3-22.3,7.8-32,2.1c-1.2-0.7-2.2-1.8-3.6-3c-7.3,3.1-14.6,6.8-22.3,9.3
				c-4.4,1.4-9.5,1.7-14.1,1.2c-4.3-0.5-5.1-3.5-3-8c5.2,3.5,10.5,1.9,15.6-0.2c15.2-6.3,30.6-12.5,43.6-22.9
				c9.9-8,19.3-16.7,28.9-25.1c0.5-0.5,0.8-1.2,0.9-2.2C175,416.5,156.3,437.7,126.4,443.1L126.4,443.1z M120.2,365.6
				c0.5,0.2,0.9,0.2,1,0.4c1.5,5.1,5.3,3.7,8.4,2.5c4.9-2,9.5-4.8,14.4-6.8c11.2-4.5,22.5-8.8,33.9-13.1c1.4-0.5,3.1-0.5,4.7-0.7
				c0.2,0.4,0.4,0.8,0.6,1.2c-4,3.3-8.1,6.6-12.1,9.9c-12.8,10.4-26.9,18.3-42.2,24.2c-5,1.9-8.9,0.1-12.6-5.2
				c-2.8-4.1-3.7-8.1,0.4-12.6c1.2,1.6,2.2,2.9,3.8,5.2C120.4,368.2,120.3,367,120.2,365.6L120.2,365.6z M145,394.4
				c-6.8,2.2-12.6,4-18.9,6c-1.6-3.6-3.1-6.9-4.6-10.3c0.3-0.5,0.7-1,1-1.6C129.6,390.4,136.8,392.2,145,394.4z M143.8,406.1
				c-2.2,6.8-13.2,16.7-15.9,14.8C133.1,416,138.4,411.1,143.8,406.1z M181.1,402.1c2.2-7.6,13.8-19,20.4-21.7
				c0.4,0.5,0.9,0.9,1.4,1.4C195.6,388.5,188.4,395.3,181.1,402.1L181.1,402.1z M283.8,354.7c1.5-0.4,3.4,0.2,5,0.7
				c0.2,0.1,0.3,2.7-0.2,3c-1.4,0.9-3.2,1.6-4.8,1.6c-3.8-0.1-7.5-0.7-11.3-1c-1.7-3.7-3.4-7.4-5.6-12.3c6.6,1.7,12.4,3.2,19,4.9
				c-6,3.9-9.5-0.1-13.8-2.3C274.6,355.2,278.7,356,283.8,354.7L283.8,354.7z M269.7,360.1c-1.1-0.1-2.1-0.2-3.2-0.3
				c0.6,1.1,1.1,2.2,1.7,3.3c-5,2.1-12,0.7-13.9-3.3c-0.8-1.8,0.1-4.7,0.9-6.8c1.3-3,1.3-5-2.3-5.7c2.3-2.9,4.8-2.7,7.7-0.8
				C265.5,349.6,268.4,353.8,269.7,360.1L269.7,360.1z M281.5,398c-8.4-1.6-15.7-15.2-15.3-28C273.6,378.7,275.9,388.7,281.5,398z
				 M253.2,346c-6.9,2.3-13.8,4.7-20.6,7l-0.6-1.6c4.4-6.4,11.6-7.9,18.4-9.9c0.8-0.2,2.1,1.6,3.2,2.5
				C253.4,344.7,253.3,345.3,253.2,346L253.2,346z M252.9,347.6c-0.2,7.8-6.3,12.1-15,10.5c-2.5-0.5-4.9-1.7-8.7-3
				C237.8,351.5,247.1,354.7,252.9,347.6L252.9,347.6z M139.1,459.6c0.5-0.2,1-0.4,1.5-0.6c1.6,1.5,3.2,3.2,5,4.6
				c5.8,4.7,11.3,9.8,17.6,13.7c6.5,4.1,11.1,3,16.5-2.5c4-4,7.9-8,12.8-11.4c-1,2.3-2,4.7-3.1,7c-5.5,11.2-13,20.8-22.5,28.9
				c-5.2,4.5-8.1,4.8-11.2-1c-6.1-11.2-11-23-16.2-34.6C138.8,462.5,139.2,461,139.1,459.6L139.1,459.6z M154.7,505.7
				c0.6,1,1.4,1.9,2.1,2.8c7.5,8.5,14.9,8.6,20.5-1.1c9-15.7,17.1-32,24.9-48.3c7.9-16.4,14.8-33.2,25.8-47.8c0.6-0.7,1.2-1.4,2.4-3
				c-0.2,2.2-0.1,3.4-0.4,4.4c-10.8,39.6-27.3,76.9-48.4,112c-2.5,4.1-5.7,7.8-9,11.3c-6.9,7.3-9.9,7.2-16.5-0.3
				c-7.2-8.2-13.4-17.2-16.4-27.8c-3.2-11.2-5.6-22.6-8.2-33.9c-0.2-0.9,0-1.9,0-2.9c0.4-0.3,0.9-0.6,1.4-0.9
				c1.1,1.4,2.5,2.6,3.4,4.1C142.5,484.7,148.6,495.2,154.7,505.7L154.7,505.7z M180.2,665.4c-0.7,1.6-2.9,2.6-3.6,3.2
				c-6.1,0.2-12.6-4.8-13.7-9.4c-0.7-2.9,3.5-6.9,7.4-5.7c3.6,1.1,7,3.5,9.9,6C181.2,660.5,181,663.8,180.2,665.4L180.2,665.4z
				 M205.1,688.1c1.8-0.4,6.9,12.8,9.8,25.8c0.5,2.3,5.9,26.1,2.4,27.3c-2.8,0.9-11.8-11.7-13-25.2c-0.1-0.6,0-4.7,0-12.8
				C204.4,689.5,204.5,688.2,205.1,688.1L205.1,688.1z M213.2,590.9c-2.7,2-5.2,4.8-6.8,7.8c-0.9,1.7-0.8,4.9,0.1,6.7
				c3.1,5.9,3.4,5.9-2,10.2c-0.7,0.6-1.6,1.1-3.2,2.2c1.2-12.2,1.9-23.6,3.5-34.9c6.3-42,12.2-84.1,19.6-125.9
				c4.9-27.7,14.5-54,27.9-78.8c1-1.9,2.3-3.6,3.5-5.4c0.5,0.2,1,0.3,1.5,0.5c-2.7,25-13.3,47.7-22.6,71.1c1-0.5,1.9-0.9,3.6-1.8
				c0,3.5,0.2,6.5,0,9.4c-2.2,32.9-4.6,65.8-6.8,98.7c-0.6,8.9-0.5,17.8-1.1,26.7c-0.1,1.8-1.9,4-3.6,5.2
				C222.4,585.6,217.5,587.8,213.2,590.9L213.2,590.9z M235.1,563.6c2.1-36.6,3.4-73.2,9.2-109.5c0.6-4.1,1.2-8.2,1.9-12.4
				c1-6.5,1.7-7,8.4-6.8c0.8,0,1.5,0,2.1,0c-1.4-2.9-2.7-5.7-4-8.5c0.7-0.5,1.3-0.9,2-1.4c4.7,4.9,9.4,9.7,15,15.5
				c-4.6-10-8.7-18.9-12.8-27.8c0.7-0.4,1.4-0.8,2.1-1.2c2.1,2.8,4.5,5.4,6.4,8.4c8.5,13.9,13.8,29.2,18,44.8
				c1.4,5,2.6,9.9,4.2,16.1c-8.4-11.8-16.1-22.6-23.8-33.4c-0.5,0.3-0.9,0.5-1.3,0.8c1.7,3.3,3.4,6.6,5.1,10
				c13.5,27.9,18.8,57.8,20.7,88.4c0.4,6.5,0.4,13,1.1,19.4c0.3,2.4,2,4.6,3.9,8.5c-21.1-10-39.8-4.8-58.9,4.5
				C234.6,573.2,234.8,568.4,235.1,563.6L235.1,563.6z M288.2,517c-3.3-13-7.2-26-9.2-39.6c0.8-0.3,1.6-0.5,2.5-0.8
				c2,5.3,4,10.5,6,15.8c0.6,1.6,1.4,3.1,2.1,4.6C289.1,503.7,288.7,510.4,288.2,517L288.2,517z M272.5,417.8
				c0.8-0.6,1.6-1.2,2.5-1.7c5.3,6.6,10.6,13.1,16,19.7c-0.4,0.3-0.7,0.6-1.1,0.9c-0.6-0.3-1.2-0.5-1.9-0.9c1.5,6.8,3,13.4,4.6,21.1
				C285.6,443.2,279,430.5,272.5,417.8z M266.7,342.9c-0.4,0.1-1.1-0.5-2.6-1.1c3-1.4,5.2-2.2,7.2-3.3c10.5-5.6,16.9-13.5,17.5-26.3
				c0.8-17.3,3.1-34.5,4.8-51.7c0.2-2.5,0.6-4.9,2-7.5c0.3,1.8,0.8,3.6,0.8,5.4c-0.4,18.6-0.4,37.3-1.4,55.9
				c-0.3,5.6-2.1,11.7-5,16.4C284.8,338.8,275.3,340.3,266.7,342.9L266.7,342.9z M189.2,7.1c7.3-1.5,14.1,0.5,14.1,1
				c0,0.2-1,0.1-2.9,0.7c-1.3,0.4-4.7,1.6-4.6,2.3c0.1,1.8,19.6-2.5,30.3,7.2c6.5,5.9,7.4,15,7,15.1c-0.4,0.2-2.7-6.7-9.5-12
				c-3.7-2.9-7.2-4.1-7.5-3.7c-0.4,0.6,7.4,4.4,10.4,12.5c1.2,3.4,1.3,6.6,0.6,6.8c-1.1,0.4-3.3-9.1-11-12.8c-3-1.4-5.9-1.5-6.1-1
				c-0.4,1,8.9,6.4,8.5,7.9c0,0.2-0.3,1.1-0.7,1.1l0,0c-0.8,0.3-1.8-0.6-2.5-1.1c-2.3-1.7-5.3-2-5.4-1.7c-0.2,0.5,5.4,2.5,8.2,7.9
				c0.9,1.7,1.6,3.8,1.1,4.1c-0.5,0.3-2-2.5-4.9-4.8c-6.4-5-15.3-3.3-17.6-3.2c-1.9,0.1-4.1,0.6-5.4,1.7c-7.2,6.3-9.3,6.6-17.6,2.1
				c0,0-0.3-0.2-0.7-0.3c-1.3-0.6-2-1-2-0.9c-0.3,0.3,3.6,6.9,9.3,7.8c2.2,0.3,4,1.5,11.4-3.6c7.8-5.5,14.5-3.8,18.7,4.7
				c0.6,1.3,1.4,2.2,2.4,2.8c2.6,1.5,6,0.5,8.7-0.4c5.3-1.8,5.9-3.7,10.7-4.6c1.9-0.4,3.7-0.7,5.6,0.2c3.2,1.5,4.1,5.2,4.3,6
				c-0.6-0.9-1.9-2.5-4-3.1c-0.6-0.2-2-0.5-6.4,0.9c-3.6,1.1-6.9,2.7-6.7,3c0.1,0.3,2.7-1,6.5-1c1.9,0,5.9,0,7.1,2.2
				c0.6,1.2-0.1,2.1-0.5,5.9c-0.2,1.8-0.1,3.3-0.1,4.3c-2.2-5.7-4.9-7-6.4-7.4c-0.9-0.2-2.2-1.2-9.2,2c-2.6,1.2-5.7,2.2-8.5,2.1
				c-1.7-0.1-5.1-0.2-6.9-2.4c-1.5-1.9-0.3-3.2-1.9-9.6c-0.5-1.9-1.2-4.1-2.9-4.8c-0.4-0.2-0.8-0.2-1.2-0.2
				c-1.1-0.1-2.5,0.2-4.6,1.3c-3.2,1.7-6.4,3.3-9.8,4.7c-2.1,0.8-4,1-5.7,0.7c-0.9-0.2-2.6-0.7-6.4-4.6c-3.5-3.6-3.5-4.7-5.1-6
				c-2-1.6-5.7-2.9-13.3-0.7c1.7-2.3,3.4-3.2,4.6-3.5c6.7-2,16.5,6.2,18.5,4c0.3-0.3,0.6-1,1.4-1.1c0.8-0.1,1.3,0.5,1.8,0.7
				c1.7,0.8,4.2-1.5,6-2.8c3.8-2.7,8-3.2,11.5-3.5c4.7-0.5,8.1,0.4,8.5-0.8c0.2-0.6-0.6-1.5-1.1-2c-10.2-9.6-24.4-11.8-24.4-11.8
				c-3.3-0.5-5.1-0.5-5.3-1.5C176.8,12.2,183.1,8.4,189.2,7.1L189.2,7.1z M203.4,52.9c-3-2.8-5.2-3.1-6.7-2.9
				c-1.5,0.2-3.1,1.1-3.8,0.4c-0.5-0.5-0.2-1.4-0.2-1.5c0.7-2.4,6.6-4.9,9.5-2.2C203.7,48,204,50.5,203.4,52.9z M147.2,39
				c0.4-11.1,15.4-17.1,27.2-10.6C163.3,28.3,153.2,28.5,147.2,39z M178.8,27.4c4.4-2.3,7.6-4,10.9-5.7
				C189.7,25.5,185.4,28.1,178.8,27.4z M160.5,13.5c2.1-2.2,4-4.2,5.6-3.7c0.1,0,0.9,0.3,1.1,0.9c0.6,1.7-3.6,3.7-3.3,5
				c0.6,1.8,9.5-1.4,16.5,3c1.2,0.8,2.1,1.6,2.7,2.2c-1.7,0-4.1,0.1-7.1,0.7c-4.2,0.8-4.3,1.4-6.3,1.3c-3.8-0.3-4.4-2.9-8.8-3.4
				c-2.4-0.3-3.6,0.3-4.1-0.4C156.3,18,158.2,15.9,160.5,13.5L160.5,13.5z M158.7,12.9c0.1,0.1-2.8,1.9-4.3,5.6
				c-0.4,1-0.8,2.1-0.3,2.7c0.9,1.1,3.9-1,6.5,0.3c1.2,0.6,1.8,1.6,2.2,2.4c-1.4-0.1-3.5,0-5.7,0.7c-4.7,1.5-7.3,4.9-8.6,4
				c-0.9-0.6-0.2-2.6-0.7-2.8c-0.9-0.3-3.1,5.5-3.7,5.3c-0.4-0.1-0.2-2.4,0.4-4.5C147.2,17.3,158.5,12.6,158.7,12.9L158.7,12.9z
				 M138.1,5.3c1.6,8.3,7.3,8.9,13.4,9.1c-3,2.9-6.2,2.9-11,0.5C136.4,12.8,136.2,9.9,138.1,5.3L138.1,5.3z M134.1,51.8
				c-2.4,1.1-4.9,1.1-5.2,2.4c-0.2,0.8,0.5,1.5,0.6,1.6c0.8,0.9,1.9,0.5,3.6,1.1c1.8,0.6,3.4,1.9,3.2,2.3c-0.1,0.3-1.4,0.1-4-0.4
				c-2-0.4-3-0.5-3.4-0.9c-1.5-1.2-1.9-4.1-0.9-6.1c1-2,3.3-2.7,7-3.7c1.8-0.5,3.3-0.7,4.3-0.8C137.4,49.9,135.5,51.1,134.1,51.8
				L134.1,51.8z M133.1,40.2c-1.5,0.8-3.2,2.8-4.6,2.2c-0.6-0.2-0.8-0.8-0.9-1c-0.7-1.8,1-4.2,2.6-5.4c2.3-1.7,4.9-1.4,5.8-1.3
				c1.9,0.2,3.7,1,5.4,2.5c1.5,1.3,2.1,3.6,2.6,5.9C138.1,39.2,135,39.2,133.1,40.2L133.1,40.2z M172.3,125.9
				c-4.2,0.4-6.3-1.9-7.5-5.8c-0.9-2.9-1.1-4.7-0.4-5.6c0.8-1.1,2.9-1,5.8-1c1.2,0,1.9,0.1,2-0.2c0.2-0.6-1.4-2.4-3.3-2.6
				c-2.7-0.3-4.8,2.7-5.9,1.9c-0.3-0.2-0.2-0.4-0.9-1.8c-0.4-0.9-0.8-1.5-1.1-2c3.9-0.7,7.2-1.5,9.6-2.1c4.3-1.1,4.4-1.6,4.4-1.7
				c0-0.2-0.7-0.2-2.8-0.4c-4.1-0.3-4.4-0.6-6.1-0.4c-0.9,0.1-2.1,0.2-3.4,0.8c-0.2,0.1-0.7,0.3-1.3,0.6c-0.7,0.3-1.2,0.4-1.6,0.6
				c-0.4-0.8-1.1-2.4-0.6-3.9c0.1-0.4,0.6-1.5,3.7-3.3c3.9-2.2,5.6-2.3,6-3.7c0.2-1-0.4-2.3-1.2-2.5c-0.6-0.2-1,0.6-2.3,1.2
				c-1,0.5-1.5,0.4-2.8,0.6c-2.8,0.6-3,1.6-5.8,2.1c-1.4,0.3-2.3,0.4-3.1-0.1c-1.3-0.8-1.4-2.8-1.4-4.4c0.1-5.3,0.8-10.6,1.2-15.9
				c0.3-3.4,0.3-5.3-0.6-6.6c-1.3-1.9-3.9-2.4-5.9-2.9c-3.9-0.8-5.6,0.2-6.8-1.1c-1.2-1.4-0.6-3.9-0.2-5.2c0.4-1.4,1.1-3.8,5-7.3
				c3.8-3.4,5.7-5.1,7.4-5.8c9-3.7,21.7,5.5,28.3,10.2c3.3,2.4,4.7,3.9,8.3,5.4c6.4,2.8,9.8,1.4,11.9,4.3c1.5,2.1,0,3.3,0.8,11.1
				c0.2,2.1,0.9,8.2,2.8,8.5c0.6,0.1,0.9-0.6,2.6-1.3c1.6-0.7,2.6-0.7,3.5-0.9c4.5-1.1,5.5-9.4,7.8-9.2c0.6,0.1,0.9,0.6,1.1,0.8
				c0.5,0.8,0.4,1.9-0.6,4.6c-1.1,3.2-1.6,3.7-1.3,4c0.7,0.7,4.9-0.7,6.5-3.9c1.5-3,0.4-6.8,0.2-7.2c-0.5-1.8-1.5-3.2-1-3.7
				c0.3-0.3,1.1-0.1,1.5,0.1c2.3,1.1,1.8,5,3,5.2c0.8,0.1,1.8-1.4,2.1-2.6c0.6-2-0.2-3.8-0.6-4.6c-0.3-0.6-1.1-2.4-2.7-3.4
				c-3.4-2.1-7.5,0.5-8-0.4c-0.5-1,3.5-5.4,7.2-4.5c2.1,0.5,3.3,2.4,3.9,3.8c1.5,3.6,1.7,8.1,1.1,11.9c-0.6,3.6-2.9,7-4.9,10.3
				c-3.8,6.2-4.4,6.3-11.5,3.8c-1.1,19.6-15.8,27.4-30.7,34.6C180.3,125.7,176.1,125.6,172.3,125.9L172.3,125.9z M37.7,423.7
				c2-20.7,3.7-41.5,5.4-62.2c1.5-18,7-34.5,16.7-49.7c2.3-3.6,4.6-7.3,6.6-11.2c2.3-4.4,3.4-9,2.9-14.3c-0.9-10.8,2.2-21,7.6-31.6
				c2.1,2.7,3.7,4.8,5.6,7.2c2.3-2.8,3.1-4.7,1.8-8.5c-2.3-6.7-3.6-13.8-4.4-20.9c-1.9-17.3,1.2-33.6,11.9-47.8
				c9.4-12.5,22.8-16,37.6-15.7c3,0.1,5,0.6,6.7,2c3.7,2.9,3.6,8,5,7.9c1-0.1,2.2-2.6,1.7-4.9c-0.8-3.5-5.8-5.4-7.6-6.2
				c-2.2-0.9-3.4-0.9-3.5-1.5c-0.1-0.6,0.4-1.8,8-5.1c6.8-2.9,7.6-2.5,12.7-4.6c14-5.8,16.7-7.1,16.7-7.1c0.8-0.4,2.7-1.3,4.2-0.5
				c0.9,0.5,1.5,1.5,1.8,3.3c0.8,3.9,0.4,5.8,1.4,6.3c0.9,0.4,2.3-0.6,3.1-1.6c0.7-0.9,0.8-2,1-4.4c0.7-7.5,0.7-8.6,0.7-9.2
				c0-0.1,0-0.4,0-0.9c0.1-0.6,0.3-1.7,0.7-1.8c1-0.3,2.4,7.2,5.2,7.7c2.4,0.4,5.1-4.2,7-7.4c10.4-17.5,9.8-12,16.9-25.7
				c6.4-12.4,8.2-19.4,10.6-19.1c1.3,0.2,1.6,2.3,3.4,9.1c2.7,10.6,4.3,16.5,7,22.4c2.6,5.7,4.5,9.1,8.3,12.6c6,5.4,13.5,7,14.4,7.2
				c2.6,0.5,3.6,0.4,4.3,1.4c1.6,2.4-2.3,7.6-3.4,9.1c-9.6,13-36.8,59.3-43.3,87.3c-0.5,2.2-1.7,7.7-4.4,14.7
				c-3.5,9-7.3,16.8-11.7,21.8c-8.3,9.6-18.1,18.1-27.6,26.6c-6.5,5.7-7.6,5.3-13.6-0.9c-0.7-0.7-1.3-1.4-2.1-2.3
				c-1.1,5.1-0.8,5.7,8.8,14.9c5.7-4.9,11.3-10.1,17.3-14.8c17.5-13.5,27.5-31.6,35.1-52.2c7.6-20.5,17.9-40.1,27.3-59.9
				c4.9-10.2,10.3-20.1,15.9-30c2.2-3.9,5.6-7.2,8.5-10.9c-3.9-3.6-7.9-7.3-12.1-11.2c3-1.7,6.5-0.7,9.7,1.1
				c3.9,2.1,7.6,4.8,7.2,10.2c8.7,0.1,17.4-5.5,26.2-0.2c-10,12.3-11.2,27.1-13.1,41.7c-2.9,22.9-4.6,46.1-8.2,68.9
				c-2.4,15.2-6.8,30.2-11,45.1c-1.7,6-4.7,11.7-7.7,17.2c-1.4,2.5-4.2,4.1-6.4,6.1c-0.5-0.4-1.1-0.8-1.6-1.3
				c3.2-6.1,6.3-12.2,9.5-18.4c-0.4-0.3-0.8-0.5-1.2-0.8c-3.1,3-6.1,5.9-9.2,8.9c-0.4-0.3-0.9-0.6-1.3-0.9c0.5-1.4,0.8-2.9,1.6-4.1
				c13.6-20.9,18.6-44.7,22.4-68.8c3.8-24.2,6.7-48.5,10-72.7c0.1-0.5,0-1-1.1-1.6c-1.6,8.4-3.5,16.8-4.9,25.3
				c-2.9,17.1-4.9,34.3-8.4,51.3c-2.5,12.5-6.4,24.8-10.1,37.1c-5.7,18.6-17,33.3-32.1,45.4c-14.2,11.4-28.2,22.9-42.2,34.4
				c-0.6,0.5-1.2,1.1-2.6,2.4c9.9-4.8,18.9-8.9,27.7-13.5c8.8-4.5,17.3-9.4,26.2-13.8c-5.3,8.8-12.4,15.8-21.2,20.7
				c-12.1,6.8-24.6,12.4-38.5,15c-5.8,1.1-11.3,3.8-16.9,5.8c-2.4,0.9-4.9,1.7-7.3,2.6c-0.3-0.4-0.6-0.8-0.9-1.1
				c1-1.3,1.7-2.8,2.9-3.8c7.2-5.9,14.8-11.4,21.9-17.4c19.3-16.4,38.1-33.3,57.6-49.4c15.3-12.5,20.2-29.3,22.3-47.7
				c-0.5,1.8-1.1,3.5-1.4,5.2c-2.5,11.4-7.5,21.3-16.1,29.3c-11.2,10.4-22.3,21-33.5,31.5c-1.7,1.6-3.7,2.7-6.6,3.4
				c1.8-3.4,3.4-7,5.6-10.1c5.4-8.2,11.3-16,16.7-24.3c9.9-15.3,14.7-32.7,19.9-50c3.9-13.1,8.1-26.1,12.1-39.1
				c0.4-1.3,0.7-2.6,1-3.8c-0.7,1.2-1.6,2.4-2,3.6c-5.1,14.4-8.7,29.5-15.4,43.1c-12.3,24.9-26.3,48.9-39.8,73.2
				c-1.6,2.8-4.1,5.1-6.2,7.6c-0.4-0.2-0.7-0.4-1.1-0.6c0.9-1.9,1.7-3.8,2.8-6.1c-10.2,6-19.9,11.7-29.6,17.4c-5,3-9.9,6.1-14.9,9.1
				c-5.2,3.1-10.3,3.5-15.1-1.1c-1.5-1.5-3.5-2.4-5.8-3.1c3.1,4.1,6.2,8.2,9.4,12.3c-2.4,3.1-5,2.7-6.6,0.6c-3.1-4-6.1-8.3-8-12.9
				c-0.8-1.9,1.1-5.6,2.8-7.6c2-2.3,4.4-1.4,6.7,1c2.7,2.7,5.4,0.8,7.3-1.8c5.3-3.6,10.6-7.1,15.9-10.7c-0.2-0.4-0.4-0.7-0.7-1.1
				c-0.9,0.5-1.9,1-2.9,1.5c-4.9,3-7.7,1.8-8.2-4c-0.2-3.1,0.6-6.2,1-9.8c5,0.9,8.8,0,9.7-6.1c-11.1-0.6-15.8-8.7-19.9-17.2
				c-1.6-3.3-1.8-7.3-2.7-11c0.6-0.2,1.2-0.4,1.9-0.5c0.9,1.9,1.9,3.7,2.7,5.5c2.8,6.2,8.1,9.1,14.5,10.1c1.5,0.2,3.1-0.8,4.6-1.9
				c-11.8-2-19.3-7.9-21.1-19.9c4.2,0.5,8.4,0.9,12.6,1.4c-1.4-1.2-1.4-3.3-4.8-3.2c-5,0.1-7.8-7.9-5.7-15.6c3.2,2.2,6.2,4.3,8.8,6
				c2.5-0.5,5.5-1.6,8.4-1.5c14.5,0.4,28.1-2.5,40.5-10.3c4.1-2.6,7.1-5.6,9.1-9.2c3.2-5.7,3.1-11.8,3.1-16.9c0-3.6-0.4-7.8-1-7.8
				c-0.7,0-0.4,6.8-3.4,15.5c-1.5,4.4-3.1,9.3-7.4,13.4c-3.8,3.6-8.7,6-14.7,7.1c-6.7,1.2-13.5,2-20.3,2.6
				c-11.6,1-19.1-5.5-24.7-14.7c-2.2-3.7-3.8-7.8-5.7-11.6c-0.4-0.9-0.6-2.2-1.3-2.7c-2.7-1.7-3-3.1-3.7-4.4c-1.8-3.5,4.1-9,3.5-9.6
				c-1.2-1.2-29.4,23-27.4,25.6c0.5,0.7,2.8-0.8,8.9-0.9c5.1-0.1,6.7,0.9,7.4,1.4c1.4,1.1,2.5,2.8,3.1,5.4c1.2,4.6,1.6,9.6,1.2,14.3
				c-1.1,15-3.1,30-12,42.8c-2.5,3.6-6.4,6.6-10.3,8.9c-4.2,2.5-7.6,0.9-9.3-3.9c-0.8-2.1-1.8-4.1-2.7-6.2l-1.3,0.3
				c0.5,7.1,1,14.3,1.6,22.5c4.6-1.1,8.2-2.1,12.3-3.1c-3.5,4.8-6.8,9.3-10.7,14.6c3.2-1.2,5.4-2.1,8.2-3.2c0.6,12-0.9,21.5-2.5,28
				c-5,20.4-16,35.8-18.2,38.8c-3.6,4.9-6.1,7.4-9.5,13.6c-5,9-6.6,16.3-7.7,21.4c-1.4,6.2-2,9.5-0.9,13.1c1.1,3.7,3,4.9,2.7,8.2
				c-0.2,2.9-1.7,5.7-4.5,8.2c-1.9,1.7-4.1,3.3-6.9,6.5c-0.7,0.8-1.2,1.5-1.4,2.4c-0.2,1.4,0.4,2.1,0.6,4.5c0.1,1.1,0.1,1.7-0.1,2.1
				c-1.1,1.9-6.2,2.2-8.7-0.3c-1.5-1.5-1.8-3.4-1.8-4.8c0-2.3,0.5-4.7,1.2-6.9c3-9.2-0.2-16.9-5.8-24c-0.4-0.5-0.8-1.1-1.1-1.6
				c-0.1-0.1,0-0.3-0.1-0.9C34.9,438.8,37,431.4,37.7,423.7L37.7,423.7z M135,342c-5.1,1.3-7.1,0.1-8.5-5.1
				c-1.2-4.5,0.9-7.5,7.1-9.1C133.8,332.7,140,336.6,135,342L135,342z M9.4,428.8c4.1,1.9,20,30.8,19,35.2
				C19.2,453.5,16.5,440.3,9.4,428.8z M15.1,462.1c0.2-0.1,1.7-1,2.9-0.4c1.3,0.6,1.8,2.6,1.7,4.1c-0.2,2.4-1.9,2.9-1.5,4.2
				c0.6,1.8,3.4,2.5,5.2,3.3c4.3,1.9,4.6,3.4,4.8,3.8c0.6,1.5,0.6,3.6-0.4,4.5c-0.4,0.4-0.8,0.4-3.4,0.3c-4.9-0.2-5.6-0.4-6.1-0.6
				c-1.8-0.7-2.9-1.9-3.3-2.3C10.7,474.3,11.1,464.5,15.1,462.1L15.1,462.1z M16.8,490.6c-0.7-0.8-2.8-3.1-2.4-8.5
				c0.8,0.4,4.3,2.2,7.3,2.3c1.7,0,2.6-0.1,2.6-0.1c1.2-0.1,1.8-0.4,2.7-0.4c0,0,0.6,0,1.3,0.1c2.1,0.3,13.9,4.3,13.3,6.9
				c-0.3,1.5-4.8,1.6-11.5,1.8C22.8,492.9,19.1,493,16.8,490.6L16.8,490.6z M28.7,502.4c-0.7-0.1-1.6-0.3-3.3-1.3
				c-1.5-0.9-3.8-2.5-5.9-5.6c7.4,1.3,12.3,0.4,15.6-0.9c1.1-0.4,5.2-2.1,10.4-1.5c1.4,0.1,2.7,0.3,2.8,0.9c0.4,1.4-5,2.9-14.5,7.4
				C32.9,501.8,31,502.7,28.7,502.4L28.7,502.4z M44,505.1c-1.7,1.6-2.6,2.5-3.2,2.9c-1.1,0.7-3.8,2.3-7,1.5
				c-3.5-0.8-5.3-3.8-5.5-4.4c0.9,0.1,2.2,0.2,3.8-0.1c1.8-0.4,3.9-1.9,8.3-4.4c2.5-1.4,3.7-2.5,5.7-2.3c0.3,0,2.1,0.2,2.4,1.2
				C48.5,500,48.5,500.8,44,505.1L44,505.1z M47.4,510.4c3.9,1.9,45.4,106,50.4,125.9C81.1,594.5,64.4,552.8,47.4,510.4z
				 M96.7,596.4c-0.1,2.2-0.6,4.5-0.9,6.7c-0.6,0.1-1.2,0.2-1.8,0.3c-4.2-9.6-8.6-19-12.5-28.7c-8.1-19.9-15.9-39.9-23.9-59.8
				c-2.1-5.2-4.7-10.4-0.8-16.1c0.8-1.1,0.9-3.5,0.2-4.8c-2.9-5.5-1.6-10.9,0.7-15.9c4.1-9.2,5.1-18.1,2.8-28.1
				c-1.2-5.2,0.6-11.7,2.8-16.8c3.4-7.9,7.7-15.6,12.6-22.7c15.8-22.9,24.3-48,24.5-75.8c0.1-6.8,2.3-12.2,6.5-17.7
				c4-5.1,6.2-11.7,9-17.7c1.2-2.5,1.8-5.2,3.1-8.8c4.4,8,8.7,14.9,12.2,22.2c1.9,3.9,0.6,7.3-3.2,10.4c-3.7,3.1-6.3,7.5-9.2,11.4
				c-0.9,1.2-1.1,2.9-2.1,4c-5.1,5.5-6.1,11.5-3.7,18.5c0.5,1.5-0.1,4.1-1.2,5.4c-3,3.5-3.5,7.3-3.5,11.6c0,2.9-0.4,6-1.6,8.6
				c-3.2,7.1-4.1,14.2-2.3,21.9c0.7,3.1-0.3,6.8-1.1,10.1c-0.7,3.2-2.1,6.3-3.3,9.4c-1.7,4.4-1.5,8.4,1.9,12
				c2.8,2.9,2.9,5.7,0.6,9.4c-4.9,7.8-4.2,11.4,2,18.2c1,1,2,2.8,1.8,4c-2,19.7-4.6,39.4-6.1,59.1C98.7,549.8,98,573.1,96.7,596.4z
				 M125.3,648.2c-0.6,8.8-0.9,17.6-2.1,26.6c-7.3-17.6-14.7-35.2-22.1-52.7c0.7-0.4,1.4-0.7,2.1-1.1c1.3,1.4,2.6,2.8,3.9,4.2
				c4.9,5.2,9.6,10.5,14.7,15.3C124.1,642.7,125.6,644.8,125.3,648.2L125.3,648.2z M115.9,614.6c-3.6-0.8-7.2-1.2-11.9-2
				c6-46.2,0.7-93.2,10.7-139.2c3.5,48.1,0.9,96.5,11.8,144.1C122.8,616.5,119.4,615.4,115.9,614.6L115.9,614.6z M133.8,697.3
				c-1.4-3.2-2-6.8-3.2-11c7.7,4.8,14.3,8.8,20.8,13.1c1.1,0.7,2.1,2.4,2.1,3.7c0.9,21.8,11.6,40,21.3,58.7
				c8.8,17,18.4,33.7,26.2,51.1c4.4,9.9,6.6,20.9,8.8,31.5c0.4,2.2-3.1,5.2-5.1,7.7c-0.2,0.3-2.4-0.5-3.1-1.3
				c-1.1-1.4-1.9-3.1-2.6-4.8C177.2,796.4,155.5,746.9,133.8,697.3L133.8,697.3z M204.2,892.7c-1.7,1.5-3.6,2.3-5.4,2.1
				c-0.5,0-2-0.2-3.2-1.3c-2.3-2-1.9-5.6-1.8-6.8c0.2-2.1,0.9-3.2,0.6-3.3c-0.4-0.2-2.8,2.3-4,5.8c-0.9,2.6-0.5,3.7-1.8,4.9
				c-1,1-2.9,1.7-4.3,1.1c-1.2-0.5-1.4-1.6-2.6-1.7c-0.8,0-0.9,0.6-1.9,0.7c-1.1,0.1-1.2-0.8-2.9-1.3c-1.4-0.5-1.6,0-2.8-0.5
				c-1.2-0.6-1.2-1.2-2.2-1.4c-0.8-0.2-1.1,0.3-2,0.2s-1.9-0.5-1.9-1c-0.3-2-0.9-4.4-0.1-5.9c0.8-1.5,3.3-2,5.1-2.9
				c0.5-0.2,1.2-0.2,1.6-0.5c7.5-4.5,15-9.1,23.5-14.3c1.2,3.5,2,6.1,3,8.5c0.5,1.1,1.3,2.3,2.3,3
				C209.3,882.4,209.6,888,204.2,892.7L204.2,892.7z M233.6,856.6c-1.8,4.9-3,10-4.6,15c-0.4,1.3-1.6,2.5-2.4,3.7
				c-0.1,0.1-0.3,0.1-0.5,0.2c-9.9,3.8-10.2,3.7-15.4-5.7c-0.1-0.2-0.2-0.3-0.2-0.4c-1.8-3.5-5.3-7.2-5-10.6c0.3-3.2,4.6-5.9,6.9-9
				c1.8-2.4,3.4-4.9,5-7.4c2.2-3.4,5.6-4.8,9.1-3.4c3.9,1.5,7.2,4.2,10.8,6.6c0.4,0.2,0.2,1.3,0.3,2.8
				C236.4,850.7,234.7,853.5,233.6,856.6L233.6,856.6z M264.1,858.1c-0.7,5.4-1.8,10.7-3.1,17.7c-1.5-2.9-3.2-4.7-3.3-6.7
				c-0.4-7.4-3-13.9-6.9-20.1c-2.9-4.6-3.6-9.5-1.9-14.8c1.3-4.1,0.9-8.3-2.3-11.2c-13.5-12.2-16.1-29-19.3-45.5
				c-0.8-3.9-1.3-7.8-2-11.7c0.2-0.1,0.5-0.2,0.7-0.3c0.7,1.4,1.5,2.8,2.1,4.2c8.3,18.6,17.9,36.4,31.4,52c1.4,1.6,2,4.8,1.4,6.8
				c-2.6,7.9-1.6,14.9,2.4,22.1C264.6,852.6,264.4,855.6,264.1,858.1L264.1,858.1z M298.8,747c-3.4,17.3-5.8,34.8-8.6,52.3
				c-1.2,7.4,1,6.9,3.2,32.3c0.5,5.2,0.7,8.9,2.7,13.6c0.9,2.1,2.3,4.9,13.6,16.9c9.7,10.3,14.6,15.5,17,16.9
				c1.1,0.7,8.3,4.9,7.6,6.8c-0.1,0.3-0.6,1.1-1.5,1.7c-0.7,0.4-0.9,0.2-1.4,0.6c-0.9,0.7-0.5,1.6-1.3,2.4c-0.5,0.5-1.1,0.7-1.9,0.8
				c-1.8,0.4-2.6-0.3-3.4,0.4c-0.5,0.4-0.3,0.6-0.8,1.3c-0.7,0.9-1.9,1.4-2.9,1.4c-2.1,0-3.4-2.4-4.1-2c-0.5,0.3,0.1,1.3-0.4,2.3
				c-0.8,1.5-3.6,1.9-5.6,1.1c-1.6-0.6-2.5-2-2.9-2.6c-3.2-4.8-8.9-11.6-10.3-11c-0.5,0.2-0.5,1.3-0.4,2c0.2,1.1,1.1,1.7,2.4,2.8
				c2,1.7,3,2.6,3.4,3.9c0.5,1.4,0.3,3.3-0.7,4.6c-0.5,0.6-1.4,1.3-3.7,1.6c-8.8,1.2-16.1-4.7-16.8-13.8c-0.2-3.2-0.6-3.7-1.6-5.8
				c-1.5-3.1-3.2-4-5.7-6.9c-0.6-0.8-3.2-3.9-4.7-7.8c-2.9-7.4,0.6-11.6-3-18.1c-1.4-2.5-1.9-1.8-2.9-3.7
				c-3.8-7.2,3.6-14.9,5.6-26.3c0.5-3.1,1.7-2.8-2.1-20c-2.8-12.8-3.5-26.1-5.7-39c-0.8-4.8-2.5-10-5.4-13.7
				c-2.6-3.2-4.7-6.4-6.4-9.8c-4-8-5-15-5.6-29.4c-0.5-11,0.8-19.2,1.5-21.6c0.4-1.3,1.3-2.7,1.2-4.9c-0.1-1-0.3-2.2,0.4-2.8
				c0.5-0.4,1.2-0.3,1.4-0.3c2.4,0.4,3.8,5.4,4.1,6.5c6.5,24.2,9.8,36.3,10.1,39.9c1.4,15.9,3.3,31.8,5,47.7c0,0.2,0.1,0.7,0.4,1.4
				c0.4,0.8,1.1,1.6,1.3,1.6c1.7-0.2-0.5-25-0.5-25c-2.9-32.4-4.4-48.8-8.8-61.2c-3.8-10.8-6.4-15.8-9.8-22.1
				c-3.6-6.7-8.2-12.9-12.1-19.5c-0.6-1-1.6-2.8-2.2-5.5c-0.9-3.2-1.7-9.1,0-9.8c2.5-1.1,10.5,9.6,15.3,18.5c2.1,3.8,2.6,5.7,5.1,9
				c4.5,6,10.3,10.2,10.9,9.7c0.3-0.3-1.6-2.4-4.6-6.7c-6.4-9.4-11.1-16.1-10.9-24.3c0.1-5.4,2.2-6.8,0.7-9.7
				c-2.4-4.5-8.6-2.1-14-6.8c-4.6-4-5.7-10.1-6.1-16.6c-1-16.3,0.2-18.2,15.7-23.5c3.4-1.2,7.1-1.9,10.6-2.8
				c11.2-2.9,19,2.5,25.3,10.8c1,1.3,0.9,4.2,0.3,6c-1.8,5.5-3.7,11.1-6.3,16.3c-2.7,5.3-2.4,9.9-0.2,15.2c1.3,3.1,2,7.4,0.9,10.4
				c-3.2,8.8-3.7,17.7-2.6,26.2c5.2-6.4,7-12.1,7.5-16.5c1-8.8-2.4-17.3,0.4-18.6c1-0.5,2.2,0.2,2.4,0.3c3.2,2,1.9,9.6,0.9,15.6
				c-2.6,16.1-4.3,33.8-3.2,34.1c0.5,0.1,1.8-3.2,2.5-5.9c2.1-7.2,1.2-12.7,2.1-12.8c0.4-0.1,1.2,1.1,2,4
				C305.5,709.9,298.7,747,298.8,747L298.8,747z M301.3,559.6c1.1,6.6,3,13.1,4.6,19.7c-3.9-0.9-7.3-3.4-8-8.3
				c-2.6-17.9-5.3-35.8-7.5-53.8c-0.8-6.6-0.5-13.4-0.7-20.1c0,0,0,0,0,0C297.4,517.2,297.9,538.7,301.3,559.6L301.3,559.6z
				 M290.1,341.5c14.4-10.5,8.8-26,11.2-39.8c1.1,7,2.6,13.9,3.1,20.9C305.1,331.2,299.7,338.2,290.1,341.5L290.1,341.5z M365.5,427
				c-0.7,2.7-1.2,1.9-1.5,4.7c-1.1,10.6-2,21.2-3,31.8c-0.2,2.4-1.2,4.4-2.8,6.5c-2.5,3.4-5.9,5-8.1,5.7c-5.1,1-8.4,2.9-10.5,4.5
				c-3,2.2-5.3,5.1-9.9,6.3c-1.3,0.3-2.3,0.6-3.4,0.2c-4-1.4-5.8-10-2.6-14.4c1-1.5,2.9-3,3.9-2.5c0.2,0.1,0.5,0.3,0.9,2.9
				c0.4,2.8,0.2,4,0.8,4.2c0.5,0.2,1.4-0.6,2-1.3c1.7-2.3,1.1-5.4,0.8-6.8c-1.8-10.2,0.2-16.1-1.9-16.7c-1.2-0.3-2.5,1.1-4,2.7
				c-1,1-2.6,3.1-4,7.4c-1.8,5.4-0.8,7-2.9,10.1c-0.2,0.3-2.7,3.9-4.5,3.3c-1.3-0.4-2-2.9-2.1-4.1c0-0.1-0.2-0.7-0.1-1.2
				c2.6-9.8,4.9-19.8,8.8-29.1c1.9-4.5,6.3-8.9,10.8-11.3c12.1-6.5,13.5-16.2,11.3-28.2c-2.5-13.9-9.2-26-15.7-38.1
				c-4.3-8.1-6.7-16.6-6.5-25.8c0.3-13.1-6.1-22.2-4.2-23c2-0.9,6.5,9.3,10.8,8.5c5.1-1,6.1-16.6,6.6-23.7c0.9-13.8-1-23.1-1.2-23.1
				c-0.2,0,0.7,10.1-2.2,22.4c-1.1,4.7-2.2,7.3-4.3,7.9c-2,0.6-4.7-1-8-4.6c-3.7-4-7.3-9.2-8.5-14.4c-3.1-14.3-5.2-28.8-7-43.3
				c-0.9-6.6,0.4-7.2,7-6.1c2.7,0.4,4.6,1.3,5.2,1.5c3.5,1.5,4.4,3.1,4.8,2.8c1.7-1.1-20.1-30.2-24.6-30.6c-0.7-0.1-1.1,0.2-1.1,0.2
				c-1.1,0.7-0.6,2.9-0.2,6.8c0.4,4-0.2,2.3,0.1,9.4c0,1.2,0.1,3-0.4,3.1c-0.3,0.1-0.8-0.6-0.9-0.9c-2-3-1-8.5-1-8.5
				c0.7-4.1,0.4-8.4,1-12.6c1.5-9.6,1.2-24.8,2.1-35.4c0.5-5.5,2.3-6.4,7.7-5.7c9.4,1.2,15.9,6.6,20.3,14.6
				c10.8,19.7,12.7,40.2,3.5,61c-0.2,0.4-1,2.3-1.1,4.9c-0.1,3.9,1.8,7.4,2.5,7.2c1.2-0.2-1.9-11.3,2.3-13.7c0.1,0,1.2-0.7,2.5-0.4
				c3.1,0.8,4.3,6.3,5.1,10.7c3.8,19.7,5.4,29.6,6.1,34.4c0.5,2.9,1,5.4,2.5,7.8c0.9,1.5,1.8,2.4,2.1,2.7c6.2,6.7,8.2,28.4,8.2,28.4
				c1.2,12.5,0.7,20.8,1.1,20.8c0.4,0,1-5.9,1.1-11.2c0.2-6-0.1-8.8,0.1-8.9c0.6-0.1,4.6,16.5,5.5,37c0.9,20.4-2.4,18.1-0.5,31.2
				C365.9,404.3,368.9,414,365.5,427L365.5,427z M321.5,314c0.2-0.2,2,2,3.6,1.4c1.7-0.5,1.8-3.5,3.4-3.7c0.5,0,1,0.2,1.2,0.4
				c0.8,3.6-0.7,6.7-2.5,7.2C324.4,320.1,321.1,314.3,321.5,314L321.5,314z M387.8,384.9c-0.7,19.9-3.9,39.4-12.3,57.8
				c-0.8,1.6-1.5,3.3-2.8,4.8c10.5-27.6,14.6-56.1,12-85.5c-2.6-29.6-10.1-57.4-31.8-79.6c9.5,6.3,15.7,15.3,20.5,25.2
				C385.4,332,388.8,358.1,387.8,384.9L387.8,384.9z"/>
			<path d="M250.5,207.1c0,0.2-0.1,0.3-0.1,0.5c0.1-0.1,0.2-0.2,0.2-0.4L250.5,207.1L250.5,207.1z"/>
			<path d="M142.8,278.4c-0.1,0-0.2,0-0.3,0c0.1,0,0.1,0.1,0.2,0.1L142.8,278.4L142.8,278.4z"/>
			<path d="M205,174c0.4-0.1,0.8-0.4,2.7-6.5c1.5-4.7,1.7-5.7,1.1-6.3c-0.9-0.9-2.5,0.6-4.9,0.6c-5.6-0.1-9.3-8-9.8-7.6
				c-0.4,0.3,2.5,4.9,5.8,11.5C202.8,171.3,203.8,174.1,205,174L205,174z"/>
			<path d="M221.6,146.4c2.6-11.5,2.9-21.6,2.4-21.6c-0.5-0.1-1.6,10.2-5.9,27.8c-2.4,10-4.1,14.9-3.8,15
				C214.9,167.7,219,158.1,221.6,146.4L221.6,146.4z"/>
			<path d="M223.6,170c-0.1,0.4,0.4,0.8,0.5,1c2.2,2,28.8-11.1,28.5-11.8c-0.2-0.4-10.7,4.3-20.4,8c-3.8,1.4-5.7,2.2-6.4,2.2
				C225.2,169.5,223.8,169.5,223.6,170L223.6,170z"/>
			<path d="M181.1,68.4c0.1-0.2-0.4-0.5-0.8-0.8c-1.1-0.7-2.1-1-3-1.2c-2.6-0.6-3.4-0.8-3.4-0.9c0-0.1,0.9-0.1,1.9,0
				c2.7,0.3,3.9,1,6.8,1.7c1.8,0.4,2.8,0.6,2.9,0.4c0.2-0.6-5.8-4.7-12.8-5.3c-4.8-0.4-8,0.8-10.2,1.7c-2.2,0.8-3.7,1.7-4.4,3.4
				c-0.7,1.5-0.4,3.3,0,3.4c0.3,0.1,0.8-0.5,1.1-0.8c0.2-0.2,0.3-0.3,0.4-0.4c0.4-0.2,0.8-0.2,1.1-0.2c0.1,0.7,0.3,1.7,0.8,2.7
				c0.8,1.4,1.7,1.9,3.8,3.5c3,2.3,4,3.7,4.4,3.4c0.2-0.2,0.3-0.9-0.9-3.6c1.1-0.2,3.2-0.8,5.3-2.6c1.8-1.6,2.7-3.3,3.1-4.3
				C179.1,68.7,181,68.8,181.1,68.4L181.1,68.4z"/>
		</g>
		<path d="M147.2,242.1c1-2.1,10.2-0.9,10.8,1.6c0.3,1.5-2.1,3.7-4.6,4C149.4,248.1,146.4,243.6,147.2,242.1L147.2,242.1z"/>
	</g>
</g>
</svg>
