<?xml version="1.0" encoding="utf-8"?>
<!-- Generator: Adobe Illustrator 28.3.0, SVG Export Plug-In . SVG Version: 6.00 Build 0)  -->
<svg version="1.1" id="Layer_1" xmlns="http://www.w3.org/2000/svg" xmlns:xlink="http://www.w3.org/1999/xlink" x="0px" y="0px"
	 viewBox="0 0 499.4 919.2" style="enable-background:new 0 0 499.4 919.2;" xml:space="preserve">
<style type="text/css">
	.st0{fill:#FFFFFF;}
</style>
<g>
	<path class="st0" d="M488,500.1c7.8,0.3,10.5,0.2,11.3-11.7c0.1-1.7,0.1-3.3,0.1-5c0-9.8-1.2-11.3-11.1-11.7c-12-0.5-24-0.8-36-0.9
		c-3.8,0-5.1-1.5-4.9-5c0.3-6.1,0.5-12.1,0.8-18.2c-16.7-0.3-31.7-6.1-43.6-19.2c2.4-0.4,4.6-0.2,6.8,0.3c13,2.7,26.2,3.6,39.2,0.7
		c8.9-2,17.5-5.8,21.5-14.6c2.9-6.3,4.2-13.3,5.9-20.1c1.2-4.9,0.6-9.5-2.6-13.8c-0.9-1.2-1.6-3-1.6-4.5c0.2-7.3,0.9-14.5,0.9-21.8
		c0.3-35.1,0.5-70.3,0.7-105.5c0-7.8-0.5-8.3-8.4-8.7c-10.6-0.5-21.3-0.9-32-1c-5.5-0.1-10.6-0.3-13-6.5c-0.4-1.1-1.6-2.5-2.7-2.9
		c-8.9-2.9-10.3-10.1-11-18c-0.2-1.8-0.6-3.6-1.1-5.4c-5.3-18.3-14.3-33.7-32.9-41.5c-2.9-1.2-7.2-1.1-6.8-6.2
		c0-0.6-1.3-1.4-2.2-1.8c-9.8-4.6-19.9-7.7-30.9-4.8c-4,1.1-7.2,0.3-10.5-2.7c-6.3-5.9-13.8-6.8-21.9-3.9c-2.2,0.8-4.4,2.1-6.6,2.1
		c-1.9,0-4.8-1-5.4-2.3c-0.8-1.7-0.1-4.4,0.8-6.4c0.7-1.5,2.8-2.3,3.9-3.8c1.1-1.5,1.7-3.4,2.4-5.2c0.9-2.5,1.1-5.4,2.5-7.6
		c3-4.7,2.8-7.6-1.5-11.1c-2.3-1.8-3.7-4.3-0.6-5.9c3.7-1.9,4.1-4.9,4.5-8.2c0.4-2.9,1-5.1,4.3-6.4c2-0.8,6.7-3.3,7.7-6.7
		c0.8-3-1.6-6.2-3.2-8.2c-2.4-3.1-5.3-4.6-6.9-5.3c0.5-1.6,1.2-3.9,1.9-6.6c3.2-11.5,3-13.9,2.1-15.9c-0.3-0.7-1.6-3.4-4.4-4.9
		c-2.8-1.4-5.2-0.7-6.4-2.6c-0.5-0.8-0.2-1.2-0.5-3.3c-0.3-2-0.8-3.5-1.2-4.6c-1.1-0.3-2.9-0.8-5.1-1.4c-6-1.5-7.6-1.7-8.4-3
		c-1.3-2,1-3.5,0.4-6.4c-1-4.4-6.6-3.6-15-10.3c-1.3-1-2.7-2.1-4.9-2.4c-1.9-0.2-3.8,0.3-5.9,1.4c-1.3,0.7-4,1-4.4,0.4
		c-0.9-1.5-1.8-4.1-1.1-5.3c3-4.9-0.3-5.7-3.6-5.8c-2.2,0-4.9,0.9-6.6,2.4c-3.9,3.3-7.9,4.9-13.1,5.2c-5.7,0.3-11.5,1.7-17.1,3.4
		c-2.6,0.8-5.4,3-6.9,5.3c-2.3,3.4-5.2,5.2-8.6,7c-1.9,1-3.8,3.2-4.6,5.3c-1,2.9-0.8,6.2-1.5,9.3c-0.4,1.7-1.3,3.9-2.6,4.7
		c-4,2.6-4.7,5.9-3.9,10.3c0.3,1.8,0,4.5-1.2,5.5c-3.6,3.3-3.2,6.5-1.4,10.3c0.9,1.8,2.1,4.5,1.3,5.9c-2.6,4.7-1.4,7.4,4,8.8
		c-3.6,5.2,1,6.8,3,10.2c2.9,4.9,6.6,4.6,11.3,4.8c-0.7,2.1-0.9,3.7-1.7,5.1c-2.8,4.8-2.8,9,1.8,12.9c1.1,0.9,1.9,3.8,1.3,4.8
		c-2.6,4.3-0.6,8.3-0.4,12.5c0.2,7.8,5.7,10.7,9.9,15.1c1.4,1.4,3.9,3.2,3.7,4.4c-0.4,2.5-2.1,4.5-5.4,5.4
		c-4.7,1.3-9.7,3.2-13.4,6.2c-8,6.6-17,10.3-27.2,11.4c-11.3,1.3-20.9,6.4-29.2,14.1c-9.6,8.9-16,19.6-18.7,32.3
		c-1.3,5.9-4.3,10.6-9.7,14.8c-0.9-9.9-1.9-19.1-2.6-28.4c-0.1-1.2,1.3-3.3,2.4-3.6c3.9-1.2,4.2-3.7,3.6-7
		c-0.9-4.8-1.7-9.3,2.1-13.6c0.8-0.9-0.1-4.4-1.3-5.7c-2.2-2.6-3.7-4.9-1.6-7.9c2.1-3.1,1.4-5.8-0.9-8.1c-1.9-2-4.2-3.7-6.4-5.5
		c-3.5-2.8-3.6-5.7-0.4-8.8c1.2-1.2,3-2.7,3.1-4.1c0.4-6.2,3.9-10.8,6.5-15.9c2.4-4.7,3.6-9.9,4.9-15.1c2.8-10.9-1.7-22.1,1.8-33.2
		c1.5-4.8,0-10.6-0.1-15.9c-0.1-3.9-2.1-5.8-6.1-5.4c-1.5,0.1-2.9,0.3-4.8,0.4c-2.8-10.7-11.2-4-17.5-5.4c-0.6-3.7-1.2-7.2-1.6-10.8
		c-0.4-3.9-2.3-5.5-6.3-5.4c-7.5,0.2-15,0-22.5,0c-7.7,0-10.7,2.7-11.6,10.5c-0.2,2,0,4.1-0.4,6c-0.4,1.8-1.2,3.8-2.4,5.1
		c-5.7,5.6-11.7,10.9-17.4,16.4c-1,0.9-2.1,2.6-1.9,3.7c1.5,7.8,1.8,16.3,5.3,23.2c3.6,7.1,5.4,14.9,9.2,21.8
		c2.7,4.8,5.7,9.5,9.3,13.5c4.5,5,9.6,9.6,14.8,13.8c3.5,2.8,2.8,4.4-0.3,6.3c-6.5,4.1-8.9,10.1-9.9,17.5c-1.6,12-4.5,23.9-6.1,35.9
		c-1.1,8-0.8,16.2-1.1,24.3c-0.2,6.1,0.3,12.3-0.5,18.4c-0.9,6.4-3.1,12.6-4.4,19c-2.6,12.3-3.8,25,1.9,36.3
		c5.2,10.3,4.5,19.7,3.8,30.7c-2.2,34-2.1,68.2-2.8,102.4c0,1.8,1.1,3.7,2.1,5.4c3,5.1,6.8,9,13.6,8.5c-0.7,9.3-1.8,18-1.8,26.6
		c0,8.5,1.4,17.1,1.5,25.6c0.3,34,0.4,68,0.6,102c0,1.9-0.2,3.9-0.4,6.1c-6.8,0-13.1,0-19.5,0c-13.2,0-14.2,1-13.4,14.3
		c0.6,10.4,2.2,12.2,12.2,14.8c1.4,0.4,3.6,1.8,3.7,3c0.8,9,6.1,14.4,13.8,17.9c3.4,1.5,4.5,4,4.4,7.6c-0.1,9.2-0.1,18.3-0.2,27.5
		c0,1.3,0,2.9-0.6,3.9c-2.7,4.2-5.9,8.2-8.4,12.6c-1.8,3.3-4.2,4.3-7.7,4.1c-5.8-0.2-11.7-0.1-17.5-0.1c-4.6,0-7.4,2.2-7.5,6.9
		c-0.1,5.6,0,11.3,0.6,16.9c0.5,4.5,3.5,7.9,8.1,8.3c5.2,0.5,5.9,3.1,5.8,7.5c-0.1,5.2,0.7,10.5,7.2,12.2c0.7,0.2,1.6,1.5,1.5,2.2
		c-1.2,11.7,4.8,24.7-6,34.9c-2,1.9-2.9,4.8-4.5,7.2c-0.8,1.2-1.7,2.8-2.9,3.3c-4,1.8-4.9,5.2-5.3,8.9c-0.4,3.4,0.5,8.2-1.4,9.9
		c-2,1.8-6.6,0.8-10.1,0.7c-3.7-0.1-5.1,1.5-5.1,5c0,4-0.3,8-0.4,12c0,3.8-1.6,5.9-5.6,6c-3.1,0.1-5.7,1.2-5.8,4.8
		c-0.2,5.7-0.4,11.3,0,17c0.3,4.7,3.2,7.1,8,7.2c3,0,6,0.1,9,0.1c42-0.1,84-0.2,126-0.2c2.2,0,4.5,0,7,0c-0.3,2.1-0.4,3.2-0.6,4.4
		c-1.9,11,3.9,20.3,15.1,21.4c8.6,0.8,17.6,0.2,26.2-1.2c12.3-2,24.2-7,36.5-7.8c21.4-1.4,43-0.8,64.4-0.5
		c10.6,0.2,21.2,1.8,31.9,2.1c10.6,0.3,21.3-0.1,32-0.2c2.5,0,5,0,7.5-0.3c7.6-1,10.5-4.1,11.1-11.7c0.1-1.9,0.3-3.9,0.4-6
		c1.8-0.1,3.1-0.3,4.4-0.3c33.7-0.2,67.3-0.4,101-0.5c16,0,17.8-1.8,17.1-17.9c-0.4-9.4-0.4-9.5-9.9-10.3c-2.8-0.2-3.8-1.2-3.7-3.9
		c0-3.7-0.3-7.3-0.2-11c0.1-4.8-2.1-6.1-6.5-5.5c-2.5,0.4-5.2,0.1-8.3,0.1c1.4-8.2-3.2-12.2-9.6-15.1c-3.5-1.6-3.4-4-1.4-6.9
		c3.4-4.9,3-10.8-1.9-14.5c-2.7-2.1-3.2-4.3-3.2-7.2c-0.6-22.7-1.2-45.3-1.8-68c-1.1-47.2-2.2-94.3-3.2-141.4c0-2.4-0.1-5.8,1.3-7
		c6.2-5.2,5.5-10.7,2.4-17c-2.1-4.2-2-8.2,1.5-11.9c4.3-4.5,5.5-9.7,3.4-15.7c-1.2-3.3-0.7-5.8,3.5-6.4c4.2-0.6,7-3.4,7.6-7.6
		c0.6-4,2.6-4.9,6.3-5.2c8.2-0.8,10.7-3.8,11-11.9c0-1.3,0.1-2.7,0.1-4C484.1,501.4,485,500,488,500.1L488,500.1z"/>
	<g>
		<path d="M488,500.1c7.8,0.3,10.5,0.2,11.3-11.7c0.1-1.7,0.1-3.3,0.1-5c0-9.8-1.2-11.3-11.1-11.7c-12-0.5-24-0.8-36-0.9
			c-3.8,0-5.1-1.5-4.9-5c0.3-6.1,0.5-12.1,0.8-18.2c-16.7-0.3-31.7-6.1-43.6-19.2c2.4-0.4,4.6-0.2,6.8,0.3c13,2.7,26.2,3.6,39.2,0.7
			c8.9-2,17.5-5.8,21.5-14.6c2.9-6.3,4.2-13.3,5.9-20.1c1.2-4.9,0.6-9.5-2.6-13.8c-0.9-1.2-1.6-3-1.6-4.5c0.2-7.3,0.9-14.5,0.9-21.8
			c0.3-35.1,0.5-70.3,0.7-105.5c0-7.8-0.5-8.3-8.4-8.7c-10.6-0.5-21.3-0.9-32-1c-5.5-0.1-10.6-0.3-13-6.5c-0.4-1.1-1.6-2.5-2.7-2.9
			c-8.9-2.9-10.3-10.1-11-18c-0.2-1.8-0.6-3.6-1.1-5.4c-5.3-18.3-14.3-33.7-32.9-41.5c-2.9-1.2-7.2-1.1-6.8-6.2
			c0-0.6-1.3-1.4-2.2-1.8c-9.8-4.6-19.9-7.7-30.9-4.8c-4,1.1-7.2,0.3-10.5-2.7c-6.3-5.9-13.8-6.8-21.9-3.9c-2.2,0.8-4.4,2.1-6.6,2.1
			c-1.9,0-4.8-1-5.4-2.3c-0.8-1.7-0.1-4.4,0.8-6.4c0.7-1.5,2.8-2.3,3.9-3.8c1.1-1.5,1.7-3.4,2.4-5.2c0.9-2.5,1.1-5.4,2.5-7.6
			c3-4.7,2.8-7.6-1.5-11.1c-2.3-1.8-3.7-4.3-0.6-5.9c3.7-1.9,4.1-4.9,4.5-8.2c0.4-2.9,1-5.1,4.3-6.4c2-0.8,6.7-3.3,7.7-6.7
			c0.8-3-1.6-6.2-3.2-8.2c-2.4-3.1-5.3-4.6-6.9-5.3c0.5-1.6,1.2-3.9,1.9-6.6c3.2-11.5,3-13.9,2.1-15.9c-0.3-0.7-1.6-3.4-4.4-4.9
			c-2.8-1.4-5.2-0.7-6.4-2.6c-0.5-0.8-0.2-1.2-0.5-3.3c-0.3-2-0.8-3.5-1.2-4.6c-1.1-0.3-2.9-0.8-5.1-1.4c-6-1.5-7.6-1.7-8.4-3
			c-1.3-2,1-3.5,0.4-6.4c-1-4.4-6.6-3.6-15-10.3c-1.3-1-2.7-2.1-4.9-2.4c-1.9-0.2-3.8,0.3-5.9,1.4c-1.3,0.7-4,1-4.4,0.4
			c-0.9-1.5-1.8-4.1-1.1-5.3c3-4.9-0.3-5.7-3.6-5.8c-2.2,0-4.9,0.9-6.6,2.4c-3.9,3.3-7.9,4.9-13.1,5.2c-5.7,0.3-11.5,1.7-17.1,3.4
			c-2.6,0.8-5.4,3-6.9,5.3c-2.3,3.4-5.2,5.2-8.6,7c-1.9,1-3.8,3.2-4.6,5.3c-1,2.9-0.8,6.2-1.5,9.3c-0.4,1.7-1.3,3.9-2.6,4.7
			c-4,2.6-4.7,5.9-3.9,10.3c0.3,1.8,0,4.5-1.2,5.5c-3.6,3.3-3.2,6.5-1.4,10.3c0.9,1.8,2.1,4.5,1.3,5.9c-2.6,4.7-1.4,7.4,4,8.8
			c-3.6,5.2,1,6.8,3,10.2c2.9,4.9,6.6,4.6,11.3,4.8c-0.7,2.1-0.9,3.7-1.7,5.1c-2.8,4.8-2.8,9,1.8,12.9c1.1,0.9,1.9,3.8,1.3,4.8
			c-2.6,4.3-0.6,8.3-0.4,12.5c0.2,7.8,5.7,10.7,9.9,15.1c1.4,1.4,3.9,3.2,3.7,4.4c-0.4,2.5-2.1,4.5-5.4,5.4
			c-4.7,1.3-9.7,3.2-13.4,6.2c-8,6.6-17,10.3-27.2,11.4c-11.3,1.3-20.9,6.4-29.2,14.1c-9.6,8.9-16,19.6-18.7,32.3
			c-1.3,5.9-4.3,10.6-9.7,14.8c-0.9-9.9-1.9-19.1-2.6-28.4c-0.1-1.2,1.3-3.3,2.4-3.6c3.9-1.2,4.2-3.7,3.6-7
			c-0.9-4.8-1.7-9.3,2.1-13.6c0.8-0.9-0.1-4.4-1.3-5.7c-2.2-2.6-3.7-4.9-1.6-7.9c2.1-3.1,1.4-5.8-0.9-8.1c-1.9-2-4.2-3.7-6.4-5.5
			c-3.5-2.8-3.6-5.7-0.4-8.8c1.2-1.2,3-2.7,3.1-4.1c0.4-6.2,3.9-10.8,6.5-15.9c2.4-4.7,3.6-9.9,4.9-15.1c2.8-10.9-1.7-22.1,1.8-33.2
			c1.5-4.8,0-10.6-0.1-15.9c-0.1-3.9-2.1-5.8-6.1-5.4c-1.5,0.1-2.9,0.3-4.8,0.4c-2.8-10.7-11.2-4-17.5-5.4
			c-0.6-3.7-1.2-7.2-1.6-10.8c-0.4-3.9-2.3-5.5-6.3-5.4c-7.5,0.2-15,0-22.5,0c-7.7,0-10.7,2.7-11.6,10.5c-0.2,2,0,4.1-0.4,6
			c-0.4,1.8-1.2,3.8-2.4,5.1c-5.7,5.6-11.7,10.9-17.4,16.4c-1,0.9-2.1,2.6-1.9,3.7c1.5,7.8,1.8,16.3,5.3,23.2
			c3.6,7.1,5.4,14.9,9.2,21.8c2.7,4.8,5.7,9.5,9.3,13.5c4.5,5,9.6,9.6,14.8,13.8c3.5,2.8,2.8,4.4-0.3,6.3
			c-6.5,4.1-8.9,10.1-9.9,17.5c-1.6,12-4.5,23.9-6.1,35.9c-1.1,8-0.8,16.2-1.1,24.3c-0.2,6.1,0.3,12.3-0.5,18.4
			c-0.9,6.4-3.1,12.6-4.4,19c-2.6,12.3-3.8,25,1.9,36.3c5.2,10.3,4.5,19.7,3.8,30.7c-2.2,34-2.1,68.2-2.8,102.4
			c0,1.8,1.1,3.7,2.1,5.4c3,5.1,6.8,9,13.6,8.5c-0.7,9.3-1.8,18-1.8,26.6c0,8.5,1.4,17.1,1.5,25.6c0.3,34,0.4,68,0.6,102
			c0,1.9-0.2,3.9-0.4,6.1c-6.8,0-13.1,0-19.5,0c-13.2,0-14.2,1-13.4,14.3c0.6,10.4,2.2,12.2,12.2,14.8c1.4,0.4,3.6,1.8,3.7,3
			c0.8,9,6.1,14.4,13.8,17.9c3.4,1.5,4.5,4,4.4,7.6c-0.1,9.2-0.1,18.3-0.2,27.5c0,1.3,0,2.9-0.6,3.9c-2.7,4.2-5.9,8.2-8.4,12.6
			c-1.8,3.3-4.2,4.3-7.7,4.1c-5.8-0.2-11.7-0.1-17.5-0.1c-4.6,0-7.4,2.2-7.5,6.9c-0.1,5.6,0,11.3,0.6,16.9c0.5,4.5,3.5,7.9,8.1,8.3
			c5.2,0.5,5.9,3.1,5.8,7.5c-0.1,5.2,0.7,10.5,7.2,12.2c0.7,0.2,1.6,1.5,1.5,2.2c-1.2,11.7,4.8,24.7-6,34.9c-2,1.9-2.9,4.8-4.5,7.2
			c-0.8,1.2-1.7,2.8-2.9,3.3c-4,1.8-4.9,5.2-5.3,8.9c-0.4,3.4,0.5,8.2-1.4,9.9c-2,1.8-6.6,0.8-10.1,0.7c-3.7-0.1-5.1,1.5-5.1,5
			c0,4-0.3,8-0.4,12c0,3.8-1.6,5.9-5.6,6c-3.1,0.1-5.7,1.2-5.8,4.8c-0.2,5.7-0.4,11.3,0,17c0.3,4.7,3.2,7.1,8,7.2c3,0,6,0.1,9,0.1
			c42-0.1,84-0.2,126-0.2c2.2,0,4.5,0,7,0c-0.3,2.1-0.4,3.2-0.6,4.4c-1.9,11,3.9,20.3,15.1,21.4c8.6,0.8,17.6,0.2,26.2-1.2
			c12.3-2,24.2-7,36.5-7.8c21.4-1.4,43-0.8,64.4-0.5c10.6,0.2,21.2,1.8,31.9,2.1c10.6,0.3,21.3-0.1,32-0.2c2.5,0,5,0,7.5-0.3
			c7.6-1,10.5-4.1,11.1-11.7c0.1-1.9,0.3-3.9,0.4-6c1.8-0.1,3.1-0.3,4.4-0.3c33.7-0.2,67.3-0.4,101-0.5c16,0,17.8-1.8,17.1-17.9
			c-0.4-9.4-0.4-9.5-9.9-10.3c-2.8-0.2-3.8-1.2-3.7-3.9c0-3.7-0.3-7.3-0.2-11c0.1-4.8-2.1-6.1-6.5-5.5c-2.5,0.4-5.2,0.1-8.3,0.1
			c1.4-8.2-3.2-12.2-9.6-15.1c-3.5-1.6-3.4-4-1.4-6.9c3.4-4.9,3-10.8-1.9-14.5c-2.7-2.1-3.2-4.3-3.2-7.2c-0.6-22.7-1.2-45.3-1.8-68
			c-1.1-47.2-2.2-94.3-3.2-141.4c0-2.4-0.1-5.8,1.3-7c6.2-5.2,5.5-10.7,2.4-17c-2.1-4.2-2-8.2,1.5-11.9c4.3-4.5,5.5-9.7,3.4-15.7
			c-1.2-3.3-0.7-5.8,3.5-6.4c4.2-0.6,7-3.4,7.6-7.6c0.6-4,2.6-4.9,6.3-5.2c8.2-0.8,10.7-3.8,11-11.9c0-1.3,0.1-2.7,0.1-4
			C484.1,501.4,485,500,488,500.1L488,500.1z M475.1,386.7c1.4,6.4-4,17.7-12.1,17.4c-2.5-0.1-4.6,0.1-7.4-0.2
			c-2.3-0.2-3.6-1.1-6.4-1.2c-0.8,0-1.3,0-1.8,0c-1.4,0.1-2.3,0.2-2.5,0.2c-2.9,0.2-12.8-14.9-10.8-20.5c-5.1,0.5-9.5,2.6-13.3,6.4
			c-0.9,0.9-2.8,1-4.2,1c-9.5-0.1-18.9-0.5-28.4-0.5c-3.5,0-4.5-1.6-4.7-4.8c-0.7-11.1-0.8-11,10.2-10.7c15.6,0.4,31.2,0.7,46.9,0.8
			c1.1,0,4.1-0.1,5.9,1.8c0.7,0.7,0.6,1.2,1.6,4.4c1.4,4.2,2.2,5.8,2.5,6.4c0.9,1.6,2.2,3.4,2.5,3.3c0.3-0.1-0.5-2.4-0.8-3.1
			c-3.3-9.3-4.9-14-3.9-15.9c0.9-1.6,2.7-2.6,4-2.4c1.4,0.3,2.2,2.1,3.7,5.8c0.4,1,0.4,1,1.8,4.8c1,2.7,1.2,3.1,1.4,3.5
			c1.3,2.5,3.3,4.4,3.6,4.2c0.2-0.1-0.5-1.5-1.7-3.8c-5.8-11.8-4.7-15.2-4.3-16.2c0.4-0.9,0.7-1.8,1.5-2c2.2-0.6,5.1,5.5,10.9,13.3
			c2.3,3.1,3.5,4.7,3.5,4.8C474.7,385.6,474.9,385.7,475.1,386.7L475.1,386.7z M358.4,773.6c-0.1-14.7-0.2-29.3-0.6-44
			c-0.3-13.1,5.1-24.6,10.9-36.4c0.5,3.2,1.4,6.5,1.4,9.7c0.2,27.3,0.2,54.7,0.4,82c0,4.8,0.2,9.7,0.5,14.5c0.1,1.3,0.6,2.6,1,3.9
			c0.5,0,1,0,1.6-0.1c0.2-2.2,0.7-4.3,0.7-6.5c0.2-35.3,0.3-70.7,0.4-106c0-3.5,0.5-7,0.4-10.5c-0.1-5.4,1.4-9.5,6.5-12.3
			c4.9-2.7,2.7-6.9,0-9.7c-5-5.2-5.7-11.4-5.5-18c0-0.9,0.3-1.8,1.6-2.8c0.2,3.3,0.5,6.6,0.7,9.9c8.1-2.5,14.4-11.1,13.8-19.3
			c-0.7-9.8-1.6-19.6-2.4-29.4c-0.3-3.3-0.5-6.7-0.3-10c0.2-3.9,2-6.7,6.3-7c4.5-0.4,9-0.7,13.4-1.2c3.4-0.4,4.3,1.1,4.3,4.3
			c-0.1,8.5,0,17,0.1,25.5c0.3,48.2,0.7,96.3,1,144.5c0.1,9.1,0,18.2,0,27.3c0.5,0,0.9,0,1.4,0c0-19,0.1-38,0-57
			c-0.2-45.8-0.5-91.7-0.6-137.5c0-2.6-1.9-6.8,3.9-6.5c9.2,0.3,10,0.7,10,7.1c0.5,61.7,0.9,123.3,1.3,185c0,0.9,0,1.8,0.3,2.8V584
			c6.8-0.2,8.1,0.9,8.3,7.2c1.3,68.1,2.7,136.3,3.9,204.4c0.2,12.5,1,10-10.2,10c-23.5,0.1-47,0.7-70.4,1.2c-1.3,0-2.6,0-4.2,0
			C358.4,795.5,358.5,784.6,358.4,773.6L358.4,773.6z M355.8,682.5c-2.6,20.2-11.8,37.6-22,54.7c-9,15-17.6,30.2-26.5,45.2
			c-4.4,7.5-6.3,15.7-7,24.2c-0.3,3.1-1.3,6.2-2.2,10.3c-5.3-9-7.8-9.5-15-3.4c-2.2,1.8-3.6,4.6-5.4,6.9c3.4-2.9,6.7-6,10.4-8.4
			c1.3-0.8,5.3-0.3,5.5,0.3c1.7,6.5,7.8,9.8,10.7,15.6c6.6,13.2,15,25.1,28,33.1c3.2,2,4.8,3.6,8.2,6.5c10,8.3,11.5,11.2,10.9,12.6
			c-0.3,0.6-1.2,1.1-1.4,1.3c-1.3,0.7-2.3,0.3-3.9,0.7c-1.7,0.3-1.5,0.9-3.2,1.4c-2.8,0.8-3.8-0.7-6.6,0.2c-1.5,0.5-1.5,1-2.7,1.1
			c-1.7,0.2-2.2-0.8-3.9-0.7c-1.6,0.1-1.8,1.1-3.1,1.3c-1.5,0.2-2.7-1-5.4-3.8c-4.6-4.7-5.9-6.1-6.2-5.9c-0.3,0.2,0.3,1.9,1.3,3.2
			c0.9,1.2,1.5,1.3,2.6,2.5c0.8,0.8,2.7,2.7,2.5,4c-0.4,2.1-5.8,4-10.5,2.9c-3.6-0.8-5.8-3-8-5.2c-3.5-3.5-3.9-5.6-7.6-10.6
			c-3.7-5.1-4.3-4.2-6.7-7.7c-6.6-9.6-5-20.7-10.3-27.1c-0.5-0.6-0.9-1.4-1.5-2c-6.2-6.7-6.1-9.4,0.9-15.2
			c-7.7-1.6-11.4-11.3-6.8-17.4c3.4-4.5,6.6-9.2,9.7-13.9c0.7-1,0.6-2.7,0.5-4c-0.2-2.8-1.5-5.7-0.9-8.3c3-13.8,6.4-27.5,9.7-41.3
			c0.4-1.6,1-3.1,1.7-5c5.8,1.3,8.5-3.2,12.1-6.2c1.4-1.2,3.3-1.7,5-2.6c0.5,1.7,1.7,3.6,1.4,5.2c-1.5,7.5-3.3,14.8-5.1,22.2
			c-0.3,1.4-0.9,2.7-0.7,4.3c6.8-15.7,12.8-31.6,15.2-48.5c-8.3,3.3-16.3,6.4-24.3,9.7c-3.5,1.4-4.4-0.5-5.1-3.2
			c-1.9-7.7-1.8-15.5,1.6-22.5c4.3-8.7,9.9-16.8,15.2-25c1.2-1.8,3.5-2.9,6.2-5c2.3,11.7,15.3,18.3,11,31.5c2.8,0.2,5.6,0.5,7.6,0.7
			c5.9-4.5,11.5-8.6,16.8-13.1c1.5-1.3,2.2-3.9,3-6c0.9-2.6,1.5-5.4,2.6-9.3c-3.1,3-5.4,5.1-7.7,7.3l-1.1-0.8
			c4.4-6.7,8.8-13.5,13.3-20.2C354.3,660.1,357.2,671.5,355.8,682.5L355.8,682.5z M190.4,531.5c-0.5-5.6,1.2-9.2,6.5-11.4
			c4.1-1.7,7.9-4.1,12.8-6.7c1.2,7.2,2.2,13.5,3.3,20.7c0.5-6.3,0.6-11.8,1.5-17.2c0.3-1.7,2.5-3.2,3.8-4.7c1.1,1.5,3.1,3,3.3,4.7
			c1.1,12.3,2,24.6,2.7,36.9c1.1,19.6,1.9,39.3,3.1,58.9c0.3,4.5-1.2,6.2-5.6,5.6c-3.4-0.5-7.9,1.9-8-5.3
			c-0.1-12.1-1.5-24.2-3.3-36.3v33.9c-6.2-1.3-11.7-2.4-17.1-3.8c-0.8-0.2-1.7-1.5-2-2.5c-6.4-23.3-10.1-46.9-8-71.1
			c0.2-2,0.6-4,0.9-5.9c0.1-0.6,0.4-1.1,1.2-1.7c0.1,25.1,2.4,49.7,10.3,72C194.1,576.5,192.3,554,190.4,531.5L190.4,531.5z
			 M226.6,502.3c0-1.4,1.1-2.8,1.6-4.2c1.1,1.2,2.6,2.3,3.1,3.7c4.8,12.1,5.9,24.8,5.9,37.7c0,9,0,18,0,27c0.2,0,0.4,0,0.6,0
			c0,13.7,0,27.3,0,41c0,1.8,0.3,3.8-0.3,5.4c-0.6,1.6-2.1,3.6-3.6,4.1c-3.1,0.9-3.3-1.7-3.5-4c-1.1-19.6-2.4-39.2-3.1-58.8
			C226.8,536.9,226.7,519.6,226.6,502.3L226.6,502.3z M209,481.4c-1.3,0.5-2.4,1.5-3.3,3.2l28.4-4c0.1,0.2,0.2,0.4,0.3,0.6
			c-0.9,0.6-1.8,1.5-2.8,1.7c-21.3,4.7-42.5,9.6-63.9,13.8c-7.4,1.5-12.3-3.3-13.5-11.9c7.4,8,14.5,8.2,25.6,1.1
			c-7.4-2-13.7-5.2-18.6-12.5c4.5,2.4,8,4.1,11.5,6.1c7.6,4.4,15.1,3.5,22.3-0.7c37.9-22.2,76.1-43.9,110-72.3
			c9.6-8.1,20.9-14,31.5-20.9c1.2-0.8,2.7-1.2,4.3-1.9c1.8,4.2-0.3,6.8-2.9,9.4c-22.7,23.4-48.6,42.5-77.1,58.3
			c-0.7,0.4-1.3,0.9-2,1.4c0.2,0.4,0.4,0.8,0.6,1.1c20-10.4,40.1-20.9,60.1-31.3c-0.2-0.4-0.3-0.9-0.5-1.3c-1.7,0.5-3.5,1-5.2,1.6
			c-1.8,0.7-3.6,1.5-5.4,2.3c-0.3-0.4-0.5-0.8-0.8-1.1c10.4-8.2,20.8-16.4,31.7-25c1.8,3.4,3.4,6.6,5.2,10c-2.4,1.1-4.6,2.2-6.8,3.2
			c0,0.2,0.1,0.4,0.1,0.6c4.4-0.7,8.7-1.3,13.1-2c0.3,0.5,0.6,1,0.9,1.5c-1.9,1.8-3.7,3.8-5.8,5.3c-32.8,23.1-67.8,41.5-106.9,51.8
			C228.7,472.2,219,477.3,209,481.4L209,481.4z M180.1,601c-0.9-1.5-2-2.7-2.3-4.1c-4.2-19.4-6.8-49.5-3.1-69.5
			C176.5,551.1,178.3,575.8,180.1,601z M123.2,851.5c-0.2-3.2,1.2-4,4.2-3.9c5.1,0.2,10.3,0,15.4,0c4.8,0,9.6,0.1,14.4,0
			c3.5-0.1,4.5,1.4,4.6,4.7c0.3,14.8,0.3,14.8-14.3,14.7c-6.6-0.1-13.3-0.1-19.9-0.1c-2.9,0-4.3-0.9-4.2-4
			C123.5,859.1,123.4,855.2,123.2,851.5L123.2,851.5z M131,648.6c5.5-8.5,11.9-16.5,18-24.7l1.6,0.9v50.4
			c-7.9-5.2-14.8-10.1-18.9-17.6C130.3,655,129.7,650.6,131,648.6L131,648.6z M129.4,633.9c0.7-8.1,1.4-16.1,2.2-24.9
			c5.5,3.7,5.4,14.9,15.6,8c0.2,0.6,0.3,1.2,0.5,1.8l-17.2,15.7L129.4,633.9L129.4,633.9z M125.2,584c-1.5-1.4-1.7-6-0.5-8
			c4.5-7.1,9.7-13.8,14.9-20.5c4.3-5.6,8.9-11,13.2-16.3v68.5C142.9,599.3,133.8,592,125.2,584L125.2,584z M107.1,393.9
			c0.9,51.4,1.8,102.2,2.7,153.3c-9.5-3.2-14.8-9.6-14.8-18.7c0.2-37.3,0.7-74.6,1.1-111.9c0-2.2,0.1-4.3,0.1-6.5
			C96.4,401.7,98.6,398.3,107.1,393.9L107.1,393.9z M102.3,347.2c3.9-0.3,7.9-0.5,11.8-0.8c0.1,0.6,0.1,1.2,0.1,1.9
			c-3.9,0.3-7.9,0.5-11.8,0.8C102.4,348.4,102.3,347.8,102.3,347.2L102.3,347.2z M113.8,698.7c0.7,1.6,1.2,3.3,2.1,5.5H74.6v-32.7
			c8.4-2.3,15.9-1.4,22.3,5.4C103.2,683.7,110.2,689.9,113.8,698.7L113.8,698.7z M75.9,708c12.6-0.4,25.3-0.5,37.9-0.5
			c1.4,0,2.8,1.9,4.3,2.9c-0.3,0.5-0.5,1-0.8,1.5H73.1c-0.3-0.3-0.6-0.6-0.9-0.9C73.4,710,74.6,708.1,75.9,708L75.9,708z
			 M116.7,564.7c0-1.3,0-3.1,0-4.8c1.3-58.1,2.6-116.3,3.8-174.4c0.3-13.8,1.6-17.6,9.5-26c1.4,53.1,2.9,104.8,4.3,156.6h1.1
			c0-17.4,0.2-34.8-0.1-52.1c-0.5-33.8-1.4-67.6-2-101.5c-0.2-10.3-0.1-20.6,0.1-31c0-1.4,1.1-2.7,1.8-4c0.9,1.3,2.3,2.4,2.5,3.8
			c1.3,11.2,2.8,22.5,3.4,33.8c1.2,23,1.9,46,2.6,68.9c0.3,9.8,0.5,19.6,0.1,29.3c-0.2,5.4-3.1,10.9-2.5,16.1
			c1.5,13.7,3.4,27.4,6.6,40.8c4.1,17.4,4.7,14.3-7.9,24.4c-4,3.2-7.9,6.7-11.8,10.1C124.3,557.9,120.6,561.3,116.7,564.7
			L116.7,564.7z M119.4,317c-1.1-9.4-2.1-17.8-3.1-26.6C127.2,294.6,128.6,305.8,119.4,317L119.4,317z M149.1,430.5
			c0.1,2.5-0.6,5-0.9,7.5c-0.7-0.1-1.4-0.1-2-0.2c-1.4-32-4.8-64.1-0.5-96.1l1.9-0.2c1,3.1,2.5,6.1,2.8,9.2
			c2.1,18,4.1,35.9,5.8,53.9c0.2,2.4-0.7,5.4-2.1,7.5C150.5,417.7,148.8,423.7,149.1,430.5L149.1,430.5z M183.5,405.9
			c3.9,5.4,7.9,10.6,11.8,15.9c-12.6-3.3-20.6-11.3-25.8-23.1c0.7,2.5,1.4,5,2.4,8.6c-2.6-2.7-4.7-4.8-6.6-7
			c-0.5-0.6-0.6-2.2-0.1-2.7c4.7-4.7,9.5-9.3,14.3-13.9c0.4,0.4,0.9,0.8,1.3,1.1c-0.1,0.9-0.1,2-0.5,2.7
			C176.2,394.6,179.6,400.3,183.5,405.9L183.5,405.9z M188,287.7c4.7,0.5,7.8,3.1,10.5,6.3C192.8,297.9,189.4,296.1,188,287.7z
			 M198.6,313.5c-2.7-3.7-8.2-4.4-7.4-10.7C199.5,304.3,200.7,305.9,198.6,313.5z M188.6,353.1c2.4-7.8,6.8-15,10.2-22.1
			c5.8,1.7,10.2,3,14.6,4.3c0.2-0.5,0.4-1.1,0.6-1.6c-2.1-1.2-4.1-2.5-6.2-3.7c0.1-0.6,0.3-1.2,0.4-1.8c3.3,0.2,6.7-0.1,9.9,0.6
			c3,0.7,4.8,0.4,6.7-2.3c8.9-12.4,20.1-22.2,34.9-27.2c1.4-0.5,2.3-2.2,3.5-3.4c-1.7-0.3-3.8-1.2-5.2-0.7
			c-7.9,3.1-15.8,6.2-23.4,10c-8.5,4.3-9.8,4.4-16.4-2.3c-0.7-0.7-1.4-1.3-3-1.4c1.4,1.8,2.7,3.7,4.2,5.5c4.4,5.1,1.6,13.5-5.2,14.3
			c-3.3,0.4-7-0.5-10.1-1.8c-3.9-1.7-4-3.9-2.2-11.3c4.4,0.4,7.3-0.4,8.8-2.6c-11.6-2.5-13-3.8-12.1-11.6c2.1-2.2,4-3.8,7.1-1.1
			c0.9,0.8,2.9,0.5,4.4,0.6c0.1-0.4,0.3-0.8,0.4-1.2c-5.1-3.4-10.2-6.8-14.8-9.9c4-0.9,8.1-1.4,11.9-2.8c11.1-4,22.1-8.5,33.2-12.5
			c11.2-4.1,18-11.5,18.7-23.8c0.8,0.3,1.3,0.4,1.3,0.6c2.5,10.1,10,14.4,18.9,18.1c10.7,4.4,21.8,5.7,33.1,6.4
			c2.6,0.2,5.1,0.7,9,1.3c-2.8,2.4-4.5,3.9-6.8,5.9c7.2,0.9,13.9-5.2,21.6,1c-5.6,4-10.8,7.6-15.7,11.1c1.9,1.7,4.6,1.5,8.8-1.2
			c2.9-1.9,5.8-3.8,9.4-6.1c2.9,10-4.5,15-7.9,21.7c3.9-4.1,7.8-8.3,11.7-12.5c-4.6,8.7-0.3,19.9-8.9,28.2
			c-2.9,2.8-4.7,9.6-2.4,15.6c2.3,5.8,3.8,12.1,4.8,18.3c1.4,8.8-0.7,12.6-9.1,15.8c-13.2,5-22.9,15.3-34.5,22.8
			c-8.6,5.6-17.9,9.2-28.1,12.5c-0.6-5.6-1.1-10.6-1.6-15.6h-0.8c-0.5,3.9-1.2,7.9-1.3,11.8c-0.1,3.9-1.6,5.8-5.5,7.5
			c-8.6,3.7-15.9,3.4-24.1-1.8c-7.1-4.5-13.4-9.1-17-16.9c-2.2-4.8-5.8-7.5-11.2-8.9C190.1,375.4,184.6,366.3,188.6,353.1
			L188.6,353.1z M309.6,246.7c-0.1-4.6,3.4-7.6,7.8-6.2c1.5,0.5,2.9,2.2,3.5,3.7c0.4,0.9-0.5,3-1.5,3.7c-2.2,1.6-4.7,2.8-8,4.6
			c3.1,1.9,5.5,3.4,8.3,5c-4.7,2.4-9.8-0.4-10.1-4.9C309.6,250.6,309.7,248.7,309.6,246.7L309.6,246.7z M329.3,264.8
			c0-0.4,0.1-0.8,0.1-1.2c5.2-2.6,10.3-5.1,16.5-8.2c0.3,4.4,0.5,8.5,0.9,13.9C339.9,267.5,334.6,266.2,329.3,264.8L329.3,264.8z
			 M204.1,400.4c-4.5-2.1-8.7-4.8-12.9-7.5c-1.1-0.7-2-2.5-1.9-3.7c0.1-0.9,2-1.7,3.2-2.2c2.9-1.2,6.1-1.9,8.8-3.4
			c3.6-1.9,5.9-1,7.8,2.3c1.7,2.9,3.6,5.6,4.9,8.7c2.1,5,5.6,7.8,10.8,9.5c4.9,1.6,9.4,4.3,14,6.5c-0.1,0.6-0.3,1.2-0.4,1.8
			c-3.6,1.1-7.4,3.5-10.8,3c-12.4-1.7-24.7-4-35.6-10.7c-2.1-1.3-4.4-2.7-5.8-4.6c-1.3-1.7-1.5-4.2-2.3-6.7
			c12.6,5.3,23.7,9.9,34.8,14.5l0.5-1.3C214.3,404.5,209.1,402.7,204.1,400.4L204.1,400.4z M223.7,416.1c0,0.6,0,1.2,0,1.8
			c-7.1,1.2-14.2,2.6-21.4,3.6c-1.4,0.2-3.2-0.9-4.4-1.9c-3.8-3.4-7.4-7-10.8-11C199.8,409.6,210.2,419.4,223.7,416.1L223.7,416.1z
			 M181.9,420.8c-9.5-4-13.3-11.7-18.6-18l0.9-0.9C169.9,407.9,175.5,413.9,181.9,420.8L181.9,420.8z M208.1,424.4
			c25-6.2,48.5-16.3,72.5-25.2c10.2-3.8,19.3-11,28.5-17.2c9.3-6.3,19.1-10.5,30.3-12.3c2,5-2.1,5.6-6.1,7.5h7.6
			c0.2,0.3,0.4,0.7,0.6,1c-1.1,0.9-2,2.1-3.3,2.7c-13.8,6-25.9,14.9-38.5,22.9c-11.8,7.5-25.1,12.5-37.8,18.6
			c-0.3-0.6-0.6-1.3-1-1.9c6.4-4.8,12.7-9.5,19.1-14.3c-0.1-0.2-0.2-0.4-0.4-0.7c-8.8,4.7-18.1,8.6-26.2,14.3
			c-11.9,8.4-25.2,11.7-39.2,13.5c-6.6,0.9-13.2,1.5-19.7,3h21.4c-20.7,11-36.5,0-53.6-7.2c2.6,2.7,5.1,5.6,8,8.1
			c3,2.6,6.3,4.9,9.6,7.4c-10.5,0.2-24.7-17-22.9-27.9c1.7,0.6,3.5,1,5,1.8C176.5,426.6,191.5,428.5,208.1,424.4L208.1,424.4z
			 M162.8,453.1c7.1,5.8,15.6,6.1,23.7,3.4c20.5-6.9,40.7-14.5,61-21.9c9.5-3.5,18.9-7.1,28.6-10.7c-0.2,0.4-0.2,0.9-0.5,1.1
			c-25.9,16.3-51.8,32.5-80.6,43.6c-10.1,3.9-19.5,3.7-28.2-3.2c-6.9-5.5-10.2-13.1-12-21.5C157.4,447,159.6,450.6,162.8,453.1
			L162.8,453.1z M154.1,688c4.3,4.6,3.4,10.1,2.9,15.4c-0.1,0.8-1.8,1.5-2.7,2.2c-0.5-1-1.4-2-1.3-2.9
			C153.2,697.8,153.7,692.9,154.1,688L154.1,688z M418.5,279c-0.1,3.2-0.2,6.2-5,6.2c-4.9,0.1-5.4-2.5-5.4-6.2c0-0.7,0-1.3,0-2h0
			c0-1.2-0.1-2.3,0-3.5c0.2-2.5,0-5.3,4-4.8c3.1,0.4,6.7-0.2,6.5,4.7C418.5,275.4,418.6,277.2,418.5,279z M418.2,290.7
			c0.8,0,2.7-0.1,3.9,1.1c0.7,0.8,1,2,0.8,3.9c-1.3,13,1.4,11.5-12.4,11.3c-7.6-0.1-15.3-0.5-22.9-0.6c-3.1,0-4.3-1.1-4.6-4.3
			c-0.6-6.6-0.7-9.9,0.6-11.3c1.5-1.6,3.5-1.2,9.8-1.1C401.6,289.9,409.9,291,418.2,290.7L418.2,290.7z M420.7,338.1
			c0.3,0.6,0.2,2.2,0.1,5.2c-0.2,3.5-0.3,5.2-0.9,6.1c-1.3,1.9-4.1,1.6-10.9,1.3c-6.5-0.3-13-0.6-19.4-0.6c-3.6,0-5.3-1-5.5-5
			c-0.2-3.8-0.6-6.6,0.8-8.5c1.9-2.6,5.9-1.3,16.2-0.9C412.9,336.3,419.2,335,420.7,338.1L420.7,338.1z M404.5,323.4
			c0.4-8.2-0.3-9.3,1-10.5c0.8-0.7,1.2-0.4,10.7-0.4c1.9,0,3,0,4,0.8c1.4,1.1,1.6,3,1.8,6.1c0.4,7.4,0.6,11-0.5,12
			c-1.3,1.1-2.2,0.2-9.4,0.3c-4.8,0.1-6,0.5-7.1-0.5C403.8,330.1,404.2,328.6,404.5,323.4L404.5,323.4z M412.7,355.3
			c9.6,0.4,9.4,0.3,9.8,8.7c0.3,5.9-3.1,5.6-6,5.3c-8.3,0-8.1,0-8.4-9.1C408.1,356.8,408.7,355.2,412.7,355.3L412.7,355.3z
			 M361.1,281.6c-0.9-1.5-1.1-3.6-1.4-7.8c-0.3-4.4,0.3-5.7,1-6.5c1-1,2.2-1.3,2.9-1.4c11.3-2,27.9,1.1,33.4,1.3
			c2.9,0.1,4,1.3,4.2,4.3c0.4,6.3,0.5,9.5-1,11.1c-2.1,2.2-5.4,1.8-11.1,1.4C370.5,282.9,363.9,286,361.1,281.6L361.1,281.6z
			 M374.7,305.5c-1,0.9-2.4,0.9-4.1,0.8c-9-0.2-10.2,0.8-11.4-0.6c-0.4-0.5-0.5-0.9-0.4-7.8c0.1-4.9,0.1-5.4,0.6-6.1
			c1.9-2.8,6.5-2.6,8.6-2.6c2.5,0.1,4.8,0.2,6.4,1.8c1,1.1,1.1,3.9,1.2,9.4C375.6,303.4,375.5,304.6,374.7,305.5L374.7,305.5z
			 M405.8,254.9c-0.1,3-0.1,4.5-0.8,5.4c-1.5,2.1-4.7,2-9,1.9c-22.4-0.6-21.1-0.7-23.6-0.7c-2.8-0.1-5.6-0.1-8.4-0.2
			c-3.4,0-4.6-1.2-4.8-4.6c-1-12.6-1.1-12.6,11.1-12.4c7.4,0.2,12.5-0.2,29.5,1c1.4,0.1,3.7,0.3,5.1,2
			C405.9,248.8,405.9,250.9,405.8,254.9L405.8,254.9z M360,311.9c1.8-1.9,4.7-1.9,6.1-1.9c23.2,0.1,29.8-0.5,31.3,3.4
			c0.3,0.8,0,0.6,0,4.9c0,7.2,0.9,8.2,0.1,9.6c-1.5,2.7-6,2.1-16.3,2.4c-15.1,0.4-19.7,2-21.9-1.1c-0.9-1.3-0.9-4.2-0.8-10.1
			C358.6,314.2,359.2,312.8,360,311.9L360,311.9z M376.5,343.4c-0.1,3.1-0.2,4.6-1.2,5.6c-0.8,0.8-1.8,0.9-6.8,1.1
			c-7,0.2-7.7,0-8.3-0.6c-0.8-0.9-0.5-1.5-0.8-7.2c-0.3-4.4-0.5-5,0.1-5.8c0.8-1,2-0.9,8-0.9c6.1,0,7-0.1,7.9,0.7
			C376.8,337.4,376.7,339.4,376.5,343.4L376.5,343.4z M360.8,467c0.9,1.6,1.2,3.5,1.2,5.6c-3.8-6-9.1-11.1-9.3-18.9
			C355.5,458.1,358.3,462.5,360.8,467z M358.1,635.3c-0.6,3.3-1.1,6.6-2.3,9.7c-3,8-10.4,10-17.2,4.8c-1.1-0.8-2.3-1.6-4.4-3.2
			c1,2.7,1.5,4.3,2.3,6.4c-5.4-3.8-5.2-8.3,0.2-18.2c-0.9,0.2-1.5,0.2-2,0.5c-7.7,3.8-11.9,3.6-17.7-2.8
			c-8.9-9.6-15.1-20.8-15.7-34.2c-0.2-4.2,0.5-8.9,2.3-12.6c6-12.6,12.4-25.1,19.3-37.2c6.6-11.6,19.2-13.1,27.4-2.6
			c5.6,7.2,10.3,15.8,12.7,24.5c3.8,13.7,3.5,28-0.2,42C360.7,619.8,359.7,627.6,358.1,635.3L358.1,635.3z M358.4,648.9
			C358.1,648.7,358.3,648.9,358.4,648.9L358.4,648.9z M355.4,536.4c-2.8-1-5.4-2.6-8.1-4c-3.1-1.6-5-3.9-3.6-7.6
			c-10.5,0.8-21,9.1-24.1,19c-3.4,10.5-10.4,22.6-19.6,31.1c0.3-2.7,0.6-5.3,0.9-8c0.1-0.6,0.4-1.5,0.2-1.9c-3.9-4.4-1.4-8,1.3-11.7
			c2.4-3.3,4.8-6.7,7.2-10l-1.1-0.9c-2,2.3-4,4.7-6,7c-0.4-0.2-0.8-0.3-1.2-0.5c1.5-6.1,3-12.2,4.7-19.5c-2.5,4.5-4.4,8.2-6.4,11.9
			c-2.4-7.2,0.6-27,7.1-53.4c-1.2,2.6-2.7,5.1-3.7,7.8c-1.1,3-1.8,6.1-2.6,9.1c-0.8,3-1.5,6-2.4,9.8c-2.8-19.5,3.1-51.8,10.8-56.2
			c-0.8,4.6-1.4,8.5-2.2,13.5c3.2-6.2,5.2-12.2,9-16.7c3.8-4.5,9.5-7.4,14.4-11c0.6,0.4,1.2,0.8,1.8,1.1c-3,8.7-6,17.5-8.9,26.2
			l0.6,0.3c1.3-2.6,2.6-5.2,3.9-7.8c1.8-3.7,3.5-7.6,5.5-11.2c3.6-6.8,7.1-7.4,12.7-1.7c2.9,2.9,5,6.6,7,10.1
			c4.4,7.8,8.7,15.7,12.8,23.7c2.8,5.5,5.2,11.1,7.5,16.8c0.7,1.7,0.4,3.7,0.6,5.6l-1.6,0.7c-6.8-10.9-13.6-21.7-20.4-32.6
			c-0.3,0.2-0.6,0.4-0.9,0.5c5.8,12.3,12.6,24.3,17.3,37c4.7,12.7,7.3,26.2,10.9,39.5c-1.6,0.2-2.1,0.3-2.1,0.2
			C371.7,544.6,364.3,539.6,355.4,536.4L355.4,536.4z M360.2,433.2c3.5-0.5,6.9-1,11.2-1.6c0.4,1,1.1,2.6,1.7,4.1
			c-1.6,0.5-3.2,1.4-4.9,1.6C364.5,437.8,361.1,437.3,360.2,433.2L360.2,433.2z M377.2,378.1c-0.7,7.6,0.3,8.2-0.8,9.5
			c-1.5,1.8-4.1,1.7-9.3,1.6c-3.5-0.1-5.3-0.1-6.3-1.2c-1.6-1.7,0-3.7-0.7-10.6c-0.1-0.8-0.2-1.2,0.1-1.8c0.8-1.6,3.4-1,10.3-1.3
			c3.8-0.1,5.5-0.4,6.4,0.7C377.4,375.8,377.3,376.7,377.2,378.1L377.2,378.1z M352.8,453.7C352.8,453.7,352.8,453.7,352.8,453.7
			c-2.9-3.4-5.8-6.7-9.4-10.7h3.9c-0.9-1.3-1.4-2.2-2-3.1l1.1-0.9c2.9,3.6,6.1,7.1,8.7,11C356.3,451.8,356.1,454,352.8,453.7
			L352.8,453.7z M271.8,664.5c-0.2-2.3-0.6-4.2-0.6-6.2c0-46.8-0.2-93.6,0.3-140.4c0.1-10.7,2.5-21.5,4-32.2c0.9-6,3.8-11.2,8.9-17
			c0.1,3.1,0.4,4.7,0.3,6.3c-3.4,35-5,70.1-4.6,105.3c0.1,8.5,0.2,17,0.1,25.5c-0.2,15.3,5.1,29,11.6,43.4c0.6-4.5-4.3-9.2,2.5-11.1
			c3.8,11.6-7.2,30-22.4,35.5c1.9-3.6,3.9-7.2,6-11.2C276.1,663,274.2,663.6,271.8,664.5L271.8,664.5z M294,600.1
			c-2.9,4.6-6.6,8.6-10.6,13.7c-0.3-2.3-0.7-3.5-0.7-4.8c-0.1-25.3-0.7-50.7,0-76c0.5-16.8,2.6-33.5,4.8-50.2c0.7-5.2,4.2-10,6.5-15
			c0.6,0.2,1.2,0.3,1.8,0.5c0,2.6,0.2,5.1,0,7.7c-2.9,38.5-2.5,76.9,0.7,115.3C296.8,594.3,295.6,597.7,294,600.1L294,600.1z
			 M265.9,489.7c-1.4,19-2.7,38-4.1,58C258.5,538.4,261,498,265.9,489.7z M244.1,508.4c0.4-2.5,1.5-5.1,3.1-7
			c1.4-1.6,3.9-2.2,5.9-3.2c0.7,2.1,2,4.1,2.1,6.2c0.8,21.8,0.9,43.6,2.1,65.4c1.9,36.6,3.9,73.2,7.1,109.7c0.6,6.8-1.9,7.9-6.1,10
			c-2.6,1.3-4.8,3.3-7.4,5.2c-0.8-24.3-1.3-47.9-2.3-71.5c-1.4-35-3-69.9-4.5-104.8C243.9,515,243.6,511.6,244.1,508.4L244.1,508.4z
			 M241.6,873.7c11.3,0,22.6,0.1,33.9,0.1c8.6,0,9.3,0.4,14,9.7c-16.3,0-31.9,0.1-47.4-0.1c-1.1,0-2.6-1.6-3.3-2.9
			c-0.9-1.7-1.2-3.8-1.9-6.3C238.5,874,240.1,873.7,241.6,873.7L241.6,873.7z M440.3,573.9c-15.1-3.3-30.4-4-45.7-2.9
			c-1.7,0.1-4.6-0.7-5-1.7c-2-5.7-3.4-11.7-4.8-17.6c-0.1-0.6,1.6-2.2,2.5-2.2c18.7-1.4,37.2-1,54.6,3.8c0.6,7.6,1.2,14.1,1.7,20.9
			C442.8,574.1,441.5,574.1,440.3,573.9L440.3,573.9z M389.4,619.7c0.3,1.9,0.5,3.8,0.8,5.7c-8-7-18-11.6-18.5-24.4
			c-0.5-16.7-2.4-33.4-3.6-50.1c0.6-0.3,1.2-0.6,1.8-1c2.9,4.1,6.2,8,8.6,12.5c1.6,3,2.1,6.6,2.7,10
			C384,588.2,386.6,604,389.4,619.7L389.4,619.7z M379.1,369.4c-11.6,0.1-17.7,2-19.4-1.1c-0.3-0.6-0.2-2.8,0-7.1
			c0.2-4.5,0.5-5.1,0.7-5.5c1.4-2,4.5-1.5,11.1-1.4c7.5,0.2,15,0.6,22.5,0.7c3.1,0,4.4,1,4.4,4.3c0.1,4.3,0.2,6.8-1,8.5
			C395.3,371.1,390.5,369.3,379.1,369.4L379.1,369.4z M453.1,312c9,0,13.7-0.7,16,2.5c0.8,1.1,1,2.7,1.2,5.8c0.4,5,0.8,9.6-1.8,12
			c-1.1,1-2.4,1.2-8.1,1.3c-8.8,0.1-12.9,0-12.9,0c-12.8-0.5-15-0.7-16.2-2.5c-0.5-0.8-0.5-1.3-0.4-5.8c0.1-10.8-0.2-11.1,0.4-11.9
			C433.3,310.2,437.4,312,453.1,312L453.1,312z M433.8,291.4c0.7-0.7,1.8-0.8,3.1-0.8c9.6,0.5,19.3,0.9,28.9,1.2
			c3.1,0.1,4.3,1.1,4.4,4.4c0.1,6.2,0.2,9.2-1.3,10.7c-2,2-5,1.6-10.5,1.2c-17.5-1.1-21.8,1.8-24.4-1.9c-0.8-1.2-0.9-5-0.9-12.6
			C433,293.2,433,292.1,433.8,291.4L433.8,291.4z M438.9,336.1c8.9,0.2,17.8,1.6,26.6,1.1c0.6,0,2-0.1,3.1,0.7
			c1.8,1.4,1.6,4.4,1.4,6.1c0.3,1.3,0.8,4.2-0.9,6.1c-1.3,1.5-3.3,1.5-6.4,1.5c-14.2,0-14.4-0.4-19.6-0.4c-2.3,0-4.6,0-6.9,0
			c-2.5,0-4.1-0.5-5.1-1.6c-0.5-0.6-0.8-1.3-1-5c-0.2-4.2-0.3-6.3,0.4-7.2C432,335.7,434.5,335.9,438.9,336.1L438.9,336.1z
			 M430.9,356.2c12.1-0.1,24.3,0.1,36.4,0.4c1,0,2.8,1.6,2.9,2.5c0.3,4.5,0.1,9.1,0.1,14.8c-7.6-9.5-11.4-11-13.4-10.2
			c-0.9,0.3-0.8,0.9-2.5,2c-0.9,0.6-2.1,1.3-8.7,2.7c-3.7,0.8-4.8,1-5.5,1c-1.5-0.1-3,0-4.5,0c-8.2,0-10.1-2.4-8.1-10.5
			C427.8,357.8,429.7,356.2,430.9,356.2L430.9,356.2z M449.4,254.2c0.1-7.1,0.1-7.1,7-7c3.3,0,6.6,0.2,10,0.2c3,0,4.2,1.5,4.1,4.3
			c0,1.5,0.1,3,0,4.5c-0.2,11.4,1.6,10.4-10.5,9.7C452.8,265.4,449.3,261.5,449.4,254.2L449.4,254.2z M470.2,270.8
			c0.4,0.7,0.5,2.5,0.7,6c0.3,5.2-0.4,6.7-0.9,7.5c-0.3,0.5-0.8,2.8-3,2.7c-13.1-0.3-26.2-0.8-39.3-1.5c-1.1-0.1-3-1.8-3.1-2.9
			c-0.3-3.6-0.2-7.3,0.2-10.9c0-0.4,1.1-1.5,2.9-2.5c2.8-1.6,5.1-1,10.8-0.8c2.3,0.1,4.6-0.1,7-0.1
			C464.5,268.5,468.5,268.1,470.2,270.8L470.2,270.8z M423.9,246.1c4,0.1,8,0.2,11.9,0.4c1.5,0.1,3.1-0.1,4.4,0.4
			c0.4,0.2,1.9,0.9,3,2.5c0.6,1,0.9,1.9,0.7,7.3c-0.1,5.1-0.4,6.1-1.2,6.9c-1.1,1-2.6,1.1-3.3,1.1c-23.1,0.7-28,0.5-28.8-2.2
			c-0.1-0.4-0.1-0.5,0-1.9c0.7-8.8-1.3-11.1,0.4-12.9C412.6,245.8,416.4,245.9,423.9,246.1L423.9,246.1z M379.7,176.3
			c12.6,9.8,20.3,22.7,21.4,38.6c0.6,8.4,4.3,13.4,11,17.4c2.3,1.4,4.1,3.4,6.1,5.2c-0.2,0.5-0.4,1-0.6,1.5
			c-17.2-0.6-34.4-1.2-52.9-1.8c4.9-9.5,12.6-12.3,21.8-14.6c-4.7-2-8.8-4.1-13-5.4c-7.4-2.2-11.1-7.1-12.7-14.5
			c-2.6-12-5.6-23.9-8.5-36.5C362.9,166.5,371.8,170.2,379.7,176.3L379.7,176.3z M344.7,177.5c-2.4-6.6-4.8-13.2-7.3-19.8
			c4.2-1.6,7.1,0.9,8.6,4.7c3.2,8.2,6.6,16.4,8.5,24.9c3.3,14.9,5.4,30.1,8,45.2c0.6,3.7-0.3,5.9-5.1,5.2c-0.5-2.4-1-4.9-1.6-7.9
			c-1.4,4.1,1.6,9.4-4.4,11.6c-6.8-27.2-7.4-55.7-18.9-81.9C339.5,163.6,341.1,171,344.7,177.5L344.7,177.5z M330.2,163.4
			c2.3,6.2,5.1,12.4,6.4,18.8c4,20.8,7.5,41.6,11,62.4c0.3,2-0.3,4.8-1.6,6.4c-4.2,5.4-10.2,7.6-16.8,8.5c-2.4-8.6-1.8-9.8,9-14.4
			c-3.7-28.1-7.5-56.6-11.4-86C328.2,160.8,329.6,161.9,330.2,163.4L330.2,163.4z M306.9,149.7c1.8,0.9,4.5,1.3,5.1,2.7
			c1.9,4.2,3.8,8.6,4.2,13.1c1.4,15.2,2.1,30.6,3.1,45.9c0.2,2.9,0.6,5.8,1,9.7c2.8-6.6-1.1-56.1-4.3-71.2c1.8,2.3,4.4,4.4,5.2,7.1
			c2.8,8.8,5.8,17.7,7.2,26.8c2.8,16.9,4.6,34,6.7,51c0.9,7,0.6,7.2-6.6,9.5c1.5-3,2.9-5.7,4.4-8.8c-8.3-4.2-15.9-1.7-24.1,0.6
			c0-3.1-0.1-6,0-8.8c0.8-19.5,1.8-38.9,2.2-58.4c0.1-6.2,0.2-12.8-5-17.8C306.3,150.6,306.6,150.2,306.9,149.7L306.9,149.7z
			 M288.4,89.9c-1.9,4.4-4.9,6.7-5.5,7.1c-0.4,0.2-0.8,0.4-0.8,0.4c-0.4,0.2-2.3,1-3.1,0.4c-0.8-0.6-0.4-2.6,0.2-4
			c1.2-2.9,3.6-4.2,5.1-5.3c2.2-1.7,4.7-5.1,5.4-12.3C290,78.2,290.8,84.2,288.4,89.9L288.4,89.9z M308.2,81.8
			c1.8-0.1,2.5-0.3,2.6,0c0.3,0.7-3,3-6.5,3.9c-1,0.3-1.4,0.3-1.6,0.3c-1.8,0-3.5-2.2-5.2-3.4c0.3-0.3,0.7-0.6,1.2-0.9
			C301.2,80.4,303.1,82,308.2,81.8L308.2,81.8z M287.4,38.8c2.5-2.1,6.3,0.3,6,4.3c-0.3,3.5,0.6,5.8,3.7,6.3
			c2.6,0.5,5.4-0.3,8.9-0.7c-0.6,1.1-1.1,3.3-2.6,4.6c-2.8,2.4-6,1.5-8.6-0.8c-2.1-1.8-1.7-2.7-3.9-4.5c-0.2-0.2-3.3-2.5-4.6-1.5
			c-0.6,0.4-0.4,1.2-0.7,1.9c-0.5,1.3-3,2.4-10.6,1.7c0.4-0.4,1.5-1.5,1.4-2.9c-0.2-1.9-2.7-3.7-6.2-3.4c0.6-0.9,1.4-1.7,2.5-1.9
			c0.4,0,0.6,0,0.7,0C278.4,42.5,283.1,42.5,287.4,38.8L287.4,38.8z M220.6,15.9c2.8-1.9,6.1-3.2,9.4-4.2c4.2-1.2,8.6-1.7,13.4-2.6
			c-0.8,1.2-1.6,3-2.9,3.9c-2.5,1.7-3.9,2-7.4,4c-2.5,1.4-5.8,3.3-5.6,5c0.2,1.6,3.4,2.4,6.7,3.2c4.1,1,5.1,0.6,8.4,1.3
			c6.8,1.4,9.3,4.7,10.8,3.5c1.4-1.1,0.9-5-0.9-7.4c-3.2-4-11.1-4.2-19.9-0.5c9.2-6.5,15.4-6.9,19.5-5.9c3.8,0.9,6.8,3.2,14.8,5.4
			c3.1,0.9,5.8,1.3,7.5,1.6c-1.3,0.5-3.2,1.1-5.5,1.2c-2.6,0.1-3.4-0.5-5.8-0.2c-1.1,0.1-4.8,0.6-5.8,2.5c-1.1,2.1,0.9,6,5.2,9.2
			c-1.3,0-3.2-0.1-5-1.2c-1.7-1-2.7-2.5-3.1-2.3c-0.3,0.2,0,1.1,0.4,2.2c0.4,1.3,1,3.2,1.6,5.5c-1.1,0.3-2.6,0.5-4.3,0
			c-3.4-1-4.1-3.9-7.1-6c-2.3-1.7-3.1-0.9-8.9-2.3c-1-0.2-11.6-3.3-16.3-8.9C217.5,20.4,218.2,17.5,220.6,15.9L220.6,15.9z
			 M263.2,47c-4.1,2.1-7.6-0.4-16.3-2c-7.8-1.5-11.5-0.7-11.8-2.1c-0.4-1.5,3.4-4.5,6.8-4.3c0.6,0,1.6-0.5,5.8,2.5
			c1.4,1,2.9,1.7,4.3,2.2c2.7,0.9,3.9,0,10.4,0.1c2.8,0,3.6,0.2,3.8,0.6C266.6,44.7,264.7,46.2,263.2,47L263.2,47z M229.6,44.3
			c-5.9-1.3-9.7-4.2-11.6-10C225.4,35.6,230.1,39.5,229.6,44.3z M207,22.9c0.6-4.3,5.1-8,11.2-8.4c-2.2,5.4-1.6,12.5-9.5,14.4
			C207.9,27.9,206.6,25.6,207,22.9z M198.5,48.2c-3.2,2.9-7.3,4.8-7.8,4.2c-0.4-0.4,1-2.1,1.9-3.1c2.4-2.8,4.8-4.4,5.9-5.1
			c6-3.8,9.1-5.7,11.1-5.8c1.3-0.1,5.2,0,9.7,3.8c-4.2-0.5-7.6-0.3-9.9,0c-4.6,0.6-6.4,1.8-6.9,2.1
			C200.5,45.5,200.7,46.1,198.5,48.2L198.5,48.2z M206.5,49.2c-2-0.5-3.2-2.2-3.8-3c2.7-1.3,8.3-3.5,14.6-2c1.2,0.3,2.3,0.7,3.3,1.1
			c-1.3-0.2-3.2-0.2-5.1,0.6c-1.5,0.6-1.6,1.2-3.4,2.1C210.5,48.8,208.6,49.7,206.5,49.2L206.5,49.2z M211,58.2
			c1.7-4.7,6.1-5.7,10.4-5c5.4,0.9,10,0.1,14.8-2.7c4.7-2.8,9.4-2.4,13.7,1.7c2,1.9,4.8,3,6.8,4.9c3.6,3.4,6.8,7.1,10.2,10.7
			c-0.4,0.4-0.8,0.9-1.1,1.4c-2.3-0.7-4.7-1.2-7-2c-7.8-2.6-15.1-1.1-22.1,2.7c-2.9,1.5-4,3.3-1.6,6.2c0.7,0.8,0.9,2.1,1.5,3.6
			c0.5-1.1,0.9-1.9,1.3-2.9c0.4,0.6,3.5,5.5,9.5,6.1c4.9,0.5,9.9-2.1,12.5-6.6c0.7-0.1,4.7-0.9,4.8-2.3c0.1-1.4-3.4-2.6-5.1-3.3
			c-4.2-1.6-7.6-1.6-7.6-1.7c0-0.1,4.5-1.1,9.4,0.9c2.8,1.2,7.9,4.2,9.2,3.6c0.6-0.3,1.3-0.7,1.3-0.7c0.2-0.1,0.3-0.2,0.5-0.3
			c0,0,0.5-0.3,1.1-0.3c1.3-0.1,7.2,4.3,6.5,5.3c-0.5,0.7-3.9-0.2-4.8-0.5c-0.1-0.1-0.7-0.3-1.5-0.1c-0.4,0.1-0.6,0.1-0.7,0.3
			c-0.4,0.7,2.6,4.2,6.1,4.6c0.8,0.1,1.9,0,2.2,0.7c0.3,0.6-0.3,1.3-0.4,1.5c-1.3,1.9-4.8,1.4-5.4,1.3c0,0.9,0,2.1,0,3.6
			c0.1,5.6,0.3,6.8,0.7,7.8c0.8,2,1.7,2.8,3,3.9c2.4,2,1.6,7.9,2.4,12.7c-4.1-2.7-5.2-3-5.5-2.7c-0.3,0.4,1.3,2,3.3,5.6
			c1.4,2.5,2.1,3.8,2.1,5.5c-0.1,2.7-1.9,5.5-3,5.3c-1.1-0.2-1.5-3.2-1.8-3.1c-0.3,0.1,0,2.1,0,4.5c0,3.4-0.6,6.9-1.3,6.9
			c-0.3,0-0.3-0.7-1.1-1.7c-0.6-0.8-1.8-1.8-2.9-1.9c-2.7-0.2-5.2,5.4-4.3,6.2c0.8,0.7,3.9-2.6,5.2-1.6c1.1,0.8,0.3,4.1-1.2,7.9
			c-6.6,0.3-10-1.6-12-3.4c-1.9-1.8-3-4.1-3.5-3.8c-0.7,0.3,0.7,4.9,1.1,6.5c1.4,4.7,2.1,5.1,2.3,6.7c0.9,6.6-9.2,13.9-10.3,12.9
			c-1-0.8,5.6-6.9,3.6-13.1c-1.5-4.6-4.6-8.3-4.6-8.3c-1-0.9-1.5-1.9-1.7-2.9c-0.2-1.2,0.1-2.2,2-5.6c2.5-4.4,3.1-4.8,3.2-6.4
			c0.1-1.5-0.5-2.7-1.3-4.5c-1.6-3.5-3.4-4.7-2.9-5.3c0.6-0.9,5.3,0.7,8.8,1.9c2,0.7,4.1,1.5,6,0.6c0.5-0.3,1.2-0.8,1.1-1.1
			c-0.1-0.6-2-0.3-4.1-0.8c-1.8-0.4-3.3-1.4-4.5-2.4c0.7-0.4,1.9-1.1,1.8-1.9c0-0.5-0.6-0.8-0.8-0.9c-1.8-1.1-2.2-2.5-5.1-5.1
			c-5.1-4.4-9.2-4.3-9.3-6.6c-0.1-2,3-2.7,2.9-5.6c0-1.6-1-3.5-2.1-3.6c-0.4,0-0.8,0.1-0.9,0.4c-0.1,0.4,0.8,0.6,1.2,1.4
			c0.4,0.8,0.1,1.6,0,2c-0.5,1.6-1.9,2.2-4.4,3.7c-3.9,2.4-3.9,2.9-4.7,2.8c-2.7-0.5-3.7-7.7-3.9-11.2c-0.1-2.7,0.2-4.1,0-10.1
			c-0.1-2.7-0.2-4.3-1.3-5.8c-1.1-1.4-2.8-2.3-5.1-2.8c-4.6-0.8-9.1-1.5-14.4-2.4C209.2,65.8,209.7,61.8,211,58.2L211,58.2z
			 M241.6,153.1c0.6-0.2,1.6-0.6,2.6-2.1c0.1,5.8-3.6,11.3-8.9,12.5c1.5-2.3,1.9-4.2,1.6-5.9c-0.4-2.3-2.2-2.7-6.1-7.4
			c-3.3-4-3.2-5.1-2.9-5.6c0.2-0.4,0.8-0.7,1.2-0.6c0.4,0.2,0.3,1,0.7,2.1c0.4,1.1,1.1,2.2,1.4,2.1c0.8-0.2-3.6-8.8-0.2-15
			c1.3-2.2,1.5-3.8,3-5.9c0.6-0.8-0.9-3.1-1.4-4.7c-0.5-1.6-1.6-3.4-1.2-4.8c0.2-0.9,2.8-1.6,4.3-1.5c4,0.2,8.8-1.4,11.2,3.3
			c2.5,4.6,1.3,8.9-0.9,13.7c-1.8,3.9-1.9,6.1-2,7.2c-0.5,4.2,0.4,7.1-1.4,8.4c-0.9,0.7-2.1,0.6-2.2,0.6c-3.4-0.3-4.8-6.3-6.5-5.9
			c-0.5,0.1-0.8,0.8-0.9,1C231.9,147.5,237.5,154.2,241.6,153.1L241.6,153.1z M224.3,134.1c-0.4-0.1-1.4,1.6-1.9,2.9
			c-0.6,1.4-0.9,2.6-1.1,3.5c-0.7-2-2.1-4-2-5.9c0.1-2.8,1.4-5.4,1.8-8.2c0.7-4.2,4-5,7.2-4.9c2.4,0,4.1,5.3,3,8.5
			c-1.2,3.4-2.5,6.8-3.3,10.4c-1.2,5.1-2,10.4-3,15.3c-1.1-0.8-1.6-1.7-1.9-2.2c-1.9-3.4-0.4-7.9,1.2-17.2
			C224.4,135.5,224.6,134.2,224.3,134.1L224.3,134.1z M226.4,100.7c2.4,2.9-0.2,9.5-5.7,15.1C217.3,111.3,218.8,107.3,226.4,100.7z
			 M232.1,115.1c3.9-4.3,7.1-4.7,11.8-0.7C239.4,114.6,235.9,114.8,232.1,115.1z M210.3,81c0.5,0.1,1.1,0.3,1.7,0.9
			c0.6,0.6,0.7,1.1,1,1.5c1,1.4,3.4,1.4,4.8,1.4c2.1,0,3.9-0.7,5-1.3c0.7,0.9,1.8,2.7,2.3,5.1c0.2,1,0.7,4.9-1.8,8.5
			c-1.5,2.2-3.5,3.3-4.6,3.8c-1.3-2-2.6-4.3-3.8-6.9C212.7,89.3,211.2,84.9,210.3,81L210.3,81z M212.8,121.5c-1-2-1-4.6,0.2-6.5
			c0.7-1.2,2.1-2.5,2.9-2.2c0.7,0.3,0.6,1.9,0.6,4.2c0,1.9,0.1,4.8,0.6,8.3C216.5,125,214,124.1,212.8,121.5z M127.3,227.1
			c2.5-23.1,22.9-43.4,44.8-44.9c3.4-0.2,7.1-0.1,10.4,0.8c5.6,1.5,6.5,4.1,3.9,9.3c-0.5,1-1,1.9-1.5,2.9c0.5,0.3,1,0.5,1.5,0.8
			c1.2-2.4,3.5-5,3.3-7.3c-0.4-5.1-4.7-7.2-9.4-9c4.1-0.5,8.3-1.4,12.4-1.2c2.1,0.1,5.2,1.7,6,3.5c5,10.4,13.7,10.2,23,8.9
			c3.4-0.5,6.9-1.2,10.2-2.7c-5.1,0.6-10.2,1.2-15.3,1.8c-5.4,0.7-10.3,0.3-13.5-5.7c1.1-0.1,2-0.4,2.5-0.1
			c5.9,3.9,12.2,3.2,18.8,2.4c7.2-0.9,14.6-1.1,22.3-1.6c-0.4-1.5-0.7-3.1-1.3-5.9c4,2.8,7.2,5.1,11.2,7.8
			c-3.2-5.3-0.6-9.1,2.3-12.8c1.4-1.8,2.4-4,3.4-6.1c1-1.9,1.5-4.1,2.6-5.9c3.3-5.4,7.2-10.4,10-16c2.8-5.5,4.4-11.6,7.3-17.5
			c0.5,4.5,1.4,11.4,2.5,19.5c0.3,2.2,0.8,5.5,2.3,9.7c0.4,1.2,0.9,2.2,1.1,2.9v-9.9c5.2,1.7,10,2.9,14.3,5.1c1.5,0.7,2.5,3.9,2.4,6
			c-0.5,17.6-1.3,35.2-2.1,52.8c-0.5,10-1.5,19.9-1.9,29.9c-0.2,4.3,0.5,8.6,0.8,13.1c-5.2,2.4-19.7-0.9-28.5-6.4
			c-10-6.2-10.2-16.9-12.7-26.3c-1.2,7.1-2,14.4-3.7,21.5c-1.1,4.9-4.7,8.3-9.3,10.5c-10.7,5.2-21.9,9.1-33.8,10.1
			c-9.6,0.8-18.3-2.6-25.4-8.7c-8.2-7-15.7-14.9-23.2-22.7c-3.3-3.4-0.4-6.9,1.5-9.8c1.2-1.7,3.1-2.9,4.3-5.1c-2.4,1.7-5.2,3-7.2,5
			c-6.3,6.4-13,11.7-22.4,12.9c-4.5,0.6-8.9,2.6-14,4.3C127.2,237.2,126.8,232.1,127.3,227.1L127.3,227.1z M114,253.7
			c5.6-3.7,11.3-7.3,17.2-10.4c3.3-1.7,7.2-2.4,10.9-3.5c10.1-3.2,18.8,3.1,18.6,13.5c-0.4,17.7-14.9,37.3-31.5,42.3
			c-1.1,0.3-3.1-0.3-4-1.2c-2.8-2.9-5.5-6.1-7.9-9.3c-0.9-1.2-1.6-3-1.8-4.5c-1-7.6-1.9-15.2-2.7-22.8
			C112.7,256.4,113.1,254.3,114,253.7L114,253.7z M118.2,336.3c0.3,2.5,0.4,5,0.7,8.4h-18.6c-0.8-8.8-1.6-17.9-2.6-26.9
			c-3.5-30.9-7.2-61.8-10.8-92.7c-0.3-2.6-0.3-5.3-0.8-7.9c-1.2-7.3,2.5-11.4,8.5-14.6c4.2-2.2,6.5-0.6,7.6,3.1
			c1.1,3.6,1.5,7.5,1.9,11.3C108.8,256.7,113.5,296.5,118.2,336.3L118.2,336.3z M70.5,493.6c1.8-26.6,3.6-53.1,5.4-79.7
			c0.4-6.2,0.9-12.5,1.3-18.7c16.9,38.9,14.9,79.8,14.9,121.1c-9.1-2.2-15.7-7.4-21.1-14C69.6,500.5,70.3,496.6,70.5,493.6
			L70.5,493.6z M67.1,264.3c-1.1-10.9,6.8-18.1,14.8-26.4c4.2,25,5,48.9,6.5,72.7C75.3,297.7,68.8,281.9,67.1,264.3L67.1,264.3z
			 M88.6,139.9c-5.9,0-11.8,1.1-17.9,1.7c5.8-9.6,27.6-10.5,34.8-0.2C99.9,140.9,94.2,139.9,88.6,139.9z M102,144.1
			c-7.7,5.6-16.6,2.1-24.8,3.6c-0.7,0.1-1.8-1.8-3.3-3.4C83.9,140.6,92.9,139.8,102,144.1z M104.9,128.2c6.7-12.9,5.9-26.6,4.3-40.8
			C118.4,93.2,115,122.4,104.9,128.2z M83.4,42.3c1,0,2.5,1.7,2.7,2.8c0.7,3.2,0.8,6.5,1.3,11.1c-7,0-13.4,0.1-19.8-0.1
			c-1,0-2.6-1-2.9-1.9c-1.1-3.9-1.8-8-2.7-12C69.6,42.2,76.5,42.1,83.4,42.3L83.4,42.3z M55.9,71c0-0.7-0.2-1.3-0.3-2
			c-1-8-0.9-8.1,7.2-8.2c12.2-0.2,24.3-0.5,36.5-0.4c2.2,0,4.3,1.5,6.4,2.4c1.5,0.6,2.9,1.6,4.5,1.9c6.9,1.6,7.1,1.8,5.7,10.5
			c-9.4,0-18.5,0-27.7,0c-9,0-18-0.1-27,0.2C57.7,75.6,55.9,74.7,55.9,71L55.9,71z M59.8,80.8c0.7-1,1.6-1.6,2-1.9
			c16.9-0.1,33.8-0.1,50.8-0.2c1.8,0.1,2.9,1.6,2.7,2.8c-0.2,1-1.1,1.8-2.3,1.9c-18.1,0-36.2,0.1-54.3,0.1
			C58.8,83.1,59.1,82,59.8,80.8z M61.6,88h46.1c4.1,13.5-0.6,34.3-10.2,42.8c0.4-4.7,0.8-8.7,1.2-12.7c0.4-4.1,0.7-8.2,1-12.5
			c-1.8,8-3.6,15.7-5.3,23.3l-2.2-0.2c-0.4-6.3-0.9-12.6-1.3-18.8c-0.7,6.6-1.4,13.2-2.1,19.8c-0.7,0.1-1.4,0.1-2.1,0.2
			c-2-7.8-3.9-15.6-5.9-23.5c-0.2,0-0.3,0-0.5,0c1,7.8,1.9,15.7,2.9,23.5c-0.6,0.2-1.3,0.4-1.9,0.6c-3.2-6-6.4-11.9-9.6-17.9
			c-0.2,0.1-0.4,0.1-0.6,0.2c1.4,5.2,2.8,10.4,4.2,15.7C64.9,117.1,62.1,103.2,61.6,88L61.6,88z M64.7,441.4c-0.6,0-1.3-0.1-1.9-0.1
			c0.7-10.8,1.4-21.6,1.9-30.3V441.4L64.7,441.4z M63,179.6c-0.8-1.1-1.1-2-1-2.7c0.3-1.4,2.1-2.1,2.9-2.4
			c8.9-3.5-0.4-1.9,22.7-10.5c0.6-0.2,1.4-0.5,1.3-0.6c-0.1-0.3-6.6,0.9-12.9,3.1c-8.6,3.1-12.8,6.8-13.7,5.8c-1-1.1,3.6-6.5,4-7
			c1.4-1.6,5.4-4.4,11.1-8.5c8-5.8,17.3-5.1,24.4,1.6c1.4,1.4,3.2,2.4,4.8,3.5c1.7,1.1,2.2,1.6,2.7,2.5c0.9,1.9,0.6,4.6-0.6,5.1
			c-0.8,0.3-1.5-0.4-3.9-2.1c-5.4-3.6-7.9-3.8-9-3.8c-1,0-2.4,0.2-2.5,0.6c-0.1,0.6,3.4,1,7.3,2.7c5.2,2.2,10.7,6.5,10.1,9
			c-0.2,0.6-0.7,1.2-1.3,1.4c-1,0.2-1.9-1-2.8-1.8c-0.7-0.6-1.6-1.1-6.9-2.1c-4.5-0.8-6.8-1.3-8.2-1.3c-2,0-8.5,0-11.9,4.3
			c-0.9,1.1-1.6,2.5-1.3,2.8c0.5,0.4,2.8-2.2,6.2-3.6c0.8-0.3,3.1-1.2,8.3-0.9c2.3,0.1,16.8,1.1,18.6,7.6c0.1,0.3,0.6,2.1-0.3,3.1
			c-1.2,1.3-3.8,0.1-10.1-1c-3.9-0.7-5.9-1-8.2-0.6c-3.9,0.7-7.3,3-7.1,3.6c0.1,0.4,1.7,0,4.1-0.3c4.8-0.6,13.8-1.8,16.8,2.2
			c1,1.3,1.3,3.3,0.6,4.1c-0.8,0.8-2.3-0.3-5.2-0.9c-6.1-1.2-11.7,1.2-12.9,1.7c-1.2,0.5-2.4,1.2-3.6,1.8c-6.9,3.5-7.3,3.4-11-3.6
			c-0.7-1.4-1.7-3.5-2.8-3.8C66.8,187.4,65.6,182.9,63,179.6L63,179.6z M47.4,636.4c-5.6,0-9.3-6.9-6.3-11.7
			c0.5-0.8,1.9-1.3,2.9-1.3c19.5-0.1,38.9-0.1,58.8-0.1c0.7,4.6,1.2,8.5,1.9,13c-1.8,0.1-3.5,0.3-5.3,0.3
			C82,636.6,64.7,636.5,47.4,636.4L47.4,636.4z M58.4,645.8c-1.7,0-3.3-1.1-5-1.7c0.1-0.7,0.3-1.3,0.4-2c1.6-0.2,3.2-0.5,4.8-0.5
			c13.1-0.1,26.3-0.2,39.4-0.2c1.4,0,2.9,1.3,4.3,2c-1.3,0.8-2.7,2.3-4.1,2.3C85,646,71.7,646,58.4,645.8L58.4,645.8z M63.4,658.6
			l-0.1-2.1h41c0,0.2,0,0.3,0.1,0.5C90.8,657.5,77.1,658.1,63.4,658.6z M71.4,716c7.5-0.3,15-0.5,22.5-0.6c5.7-0.1,11.3,0,17,0
			c6.6,0,6.9,0.4,5.8,7.8H64.8C64.3,718.3,67,716.2,71.4,716L71.4,716z M40.9,743.3c-8.2,0-8,0-8.2-8.3c-0.1-4.2,1.5-5.4,5.5-5.4
			c22.5,0.1,44.9,0,67.4-0.1c8.8,0,17.6-0.1,26.5-0.2c1.6,0,3.2,0.2,4.6,0.2c0.4,0.5,0.5,0.7,0.5,0.8c1,12.3,0.8,12.4-11.4,12.4
			C97.5,742.9,69.2,743.1,40.9,743.3L40.9,743.3z M44.4,754.7c3.1-3,79.2-3.7,84.1,0H44.4z M46.3,761.8c1.4-0.2,2.5-0.4,3.6-0.4
			c29.6,0,59.2,0,88.8,0.1c2.7,0,5.8-0.4,7.2,3.9c-1.7,0.2-3.1,0.6-4.4,0.6c-29.4,0.2-58.9,0.4-88.3,0.5
			C50.2,766.5,46.2,767.3,46.3,761.8L46.3,761.8z M142.6,807.2h-86v-35.6c1.6-0.1,3.2-0.3,4.8-0.3c18-0.1,36-0.2,53.9,0
			c2.5,0,5.3,1.5,7.3,3c4,3,7.1,7.2,11.4,9.7C143.3,789.4,144.3,797.4,142.6,807.2L142.6,807.2z M54.9,811.7
			c27.8,0,55.7-0.1,83.5-0.1c2.1,0,4.7-0.2,4.3,3.2c-0.3,2.7-1,5-4.4,4.9c-1.5,0-3,0.1-4.5,0.1c-26.7,0.1-53.3,0.1-80,0.2
			c-2.3,0-4.6,0-7.3,0C47.1,814.1,49.8,811.7,54.9,811.7L54.9,811.7z M37.6,827.9c0.2-0.9,3.8-1.4,5.9-1.5c17.3-0.3,34.6-0.6,52-0.7
			c18.2-0.1,36.3-0.2,54.5-0.2c7,0,7.1,0.1,7.5,7.2c0.1,2.6,0,5.3,0,8.4c-1.8,0.1-2.9,0.3-4,0.3c-36.8,0.2-73.6,0.3-110.4,0.4
			c-2.1,0-5.8-0.9-5.9-1.7C36.6,836.1,36.8,831.9,37.6,827.9L37.6,827.9z M118.7,863.4c-0.1,1.2-2.3,3.2-3.6,3.2
			c-20,0.4-39.9,0.4-59.9,0.7c-2.9,0-3.8-1.2-3.8-3.8c0-3.8-0.4-7.7,0-11.5c0.1-1.3,2-3.4,3.1-3.4c21.3-0.2,42.5-0.2,64.4-0.2
			C118.9,853.5,119.1,858.5,118.7,863.4L118.7,863.4z M19.9,851.5c0-0.9,1.5-2.4,2.4-2.5c7.7-0.2,15.5-0.1,23.6-0.1
			c0,5.2,0.3,9.9-0.2,14.4c-0.1,1.3-2.2,3.4-3.5,3.4c-7.3,0.3-14.6,0.2-22.5,0.2C19.8,861.7,19.6,856.6,19.9,851.5z M150,884.7
			c-44.5,0.3-89,0.5-133.5,0.8c-6.6,0-9.9-4.9-7.1-11c0.6-1.2,3.2-2.1,4.9-2.1c15.2-0.2,30.3-0.2,45.5-0.3c31.7-0.1,63.3-0.3,95-0.4
			c2.3,0,4.5,0.3,6.8,0.4C161.1,881.9,158.6,884.6,150,884.7L150,884.7z M195.2,909.6c-3.5,0.3-7.3-1.5-7.9-3.7
			c-0.4-1.8,1.2-3.8,3.6-6.8c2.6-3.2,4.4-4.4,4.1-5c-0.4-0.7-3-0.3-5,1.1c-1.5,1.1-1.4,1.9-3.2,4.5c-1.2,1.8-3.1,4.5-6.3,5.9
			c-1.2,0.6-2.9,1.3-3.7,0.7c-1.8-1.6,3-9.9,2.5-10.1c-0.1-0.1-0.6,0.6-1.1,1.2c-2.9,4.1-3,5.7-4.8,6.9c-1.4,0.9-3.4,1.3-4.1,0.6
			c-0.6-0.6-0.3-1.9-0.1-3.3c0.3-1.6,0.9-2.6,0.7-2.7c-0.4-0.2-3,5-5.5,4.7c-0.6-0.1-1.2-0.5-1.5-1c-0.8-1.7,1.9-4.6,1.6-4.9
			c-0.2-0.2-1.1,1.2-2.8,1.5c-0.2,0-1.5,0.2-2.2-0.5c-0.7-0.7-0.4-2-0.3-2.6c1.4-6.3,10.3-12.7,10.3-12.7c6.9-4.9,8.3-4.8,12.6-8
			c8.2-6.2,15.8-13.1,20.9-22.4c2.1-3.8,5.7-6.7,8.1-9.4c-1.5-0.3-5.1,1.9-10.8,6.7c0.7-4.1,0.3-8.3,2.1-10.6
			c4.2-5.3,2.3-10.7,1.2-15.8c-4.5-21.5-9.2-43-14.4-64.3c-2.5-10.3-6.3-20.3-9.2-30.6c-5.8-20.7,0.2-39.4,10.2-57.3
			c0.6,0,1.1-0.1,1.7-0.2c3.5,21.5,7.1,42.9,9.7,59c-1.1-14.2,0.7-34.1-4-53.8c-2.9-11.9-2.9-24.5-3.2-36.9
			c0.7,9.7,6.7,18.4,4.4,29.1c-1.2,5.7,2.4,12.4,3.8,18.6c0.8-0.1,1.6-0.1,2.4-0.2c0.1-1.8,0.6-3.6,0.2-5.2c-1-3.8-2.7-7.5-3.6-11.4
			c-0.5-2.3-0.1-4.8-0.1-7.5c2.5,0.6,4.1,0.9,7,1.6c-3.7-6.4-6.5-11.9-9.9-17.1c-2.9-4.4,0.3-10,5.6-15.7c3.3-3.6,8.7-3.4,12.7,0.2
			c7.4,6.8,11.4,14.5,9.1,25.2c-4.1,19.5-7.6,39.2-10.8,58.9c-3.1,18.9-1.9,37.9-0.3,56.8c0.5,6.1,1.2,12.1,1.6,16
			c-0.4-18.3-2.3-38.9-0.7-59.2c1.6-20.2,6.7-40.1,10.2-60.2c0.6,0,1.2-0.1,1.9-0.1c0.6,1.6,1.4,3.1,1.8,4.7
			c3.2,11.9,6.5,23.8,9.4,35.8c2.7,11.3,1.4,22.4-1.9,33.5c-2.5,8.4-4.4,17.1-5.3,25.8c-1.5,13.9-1.4,28-2.9,41.9
			c-1.3,12,2.1,23,4.9,34.3c0.3,1.2,0.4,2.8-0.2,3.8c-4.1,6.6-3.5,13.3-0.8,20.1c0.9,2.2,1.6,4.4,2.4,6.5c1.2,3.3,1.4,5.7,0.3,7.4
			c-1.9,3-7.6,2.5-8.9,2.4c-4.6-0.4-6.3-2.5-8.7-1.4c-2.1,0.9-2.9,3.5-3.3,4.8C211.7,897.9,203.1,909,195.2,909.6L195.2,909.6z
			 M354.2,902.5c-8.3,0.2-16.7,0.7-25,0.6c-24-0.4-47.9-1.2-71.8-1.6c-8.3-0.2-16.7,0-25,0.3c-5.4,0.2-10.8,0.9-16.1,1.4
			c1-2.6,1.7-6,3.6-8.5c1.5-2,4.3-3.5,6.8-4c18-3.7,36.3-2.8,54.5-2.3c4,0.1,7.9,1.8,11.8,3.1c4.9,1.6,9.6,4,14.6,4.9
			c2.7,0.5,5.8-1.2,8.7-2c1-0.3,2.1-1.5,3-1.3c6.6,1.2,12.5-0.8,18.5-3.1c2.8-1.1,5.6-2.4,8.5-2.6c6-0.4,11.9-0.1,17.5-0.1
			c0.5,0.7,0.6,0.8,0.6,1C367.6,900.1,366.1,902.2,354.2,902.5L354.2,902.5z M481.9,872c6.6,0,6.9,0.7,6.9,7.3c0,4-1.7,5-5.4,5
			c-34.5,0.1-69,0.3-103.5,0.5c-4,0-7-0.2-8.2-5.1c-0.4-1.6-3.3-3-5.4-3.7c-3.2-1.2-6.6-1.9-9.9-2.8c0.1-0.5,0.2-1,0.3-1.5
			c4.3,0,8.5,0,12.8,0C406.9,871.8,444.4,871.8,481.9,872L481.9,872z M466.8,849.7c8.5,0,8.5,0.1,8.6,8.6c0,1.7,0.4,3.5-0.1,5
			c-0.4,1.2-1.8,2.2-2.9,2.9c-0.6,0.4-1.6,0.1-2.5,0.1c-39.1,0.2-78.2,0.4-117.3,0.6c-1.6,0-3.2-0.1-5.1-0.2v-16.8
			c1.6-0.1,3-0.3,4.5-0.3C390.2,849.6,428.5,849.6,466.8,849.7L466.8,849.7z M457.6,836.3c0.8,1.9,1.5,3.9,1.3,5.8
			c0,0.6-3.1,1.3-4.8,1.3c-24,0.2-48,0.3-71.9,0.4c-11.5,0.1-23,0.2-34.5,0.2c-1.9,0-3.8-0.2-7.3-0.3c3-2.5,4.8-4,6.7-5.5l-0.4-1
			c-3.6,1.8-7.3,3.7-10.9,5.5l-1.1-1.4c2.3-2,4.4-5,7-5.7c6.7-1.9,13.6-4,20.4-4c28.8-0.5,57.6-0.2,86.4-0.2
			C452.4,831.5,456,832.3,457.6,836.3L457.6,836.3z M349.8,824.8c0-0.3,0-0.5,0-0.8c3.4-0.5,6.9-0.7,10.3-1.4
			c4.7-1,9.8-0.4,13.3-5.2c0.9-1.2,3.7-1.3,5.7-1.3c21.1,0.5,42.3,1.1,63.4,1.6c2.5,0.1,4.7,0.2,4.2,3.8c-0.4,3.2-2,3.4-4.8,3.4
			c-20.1-0.2-40.2-0.2-60.4-0.2C370.9,824.8,360.4,824.8,349.8,824.8L349.8,824.8z M448.2,811.8c1.5,0.4,2.6,2.1,3.9,3.2
			c-0.3,0.6-0.7,1.2-1,1.7c-35.5-1.3-70.9-2.6-108,1.3c2.7-2.1,4.2-4.1,6.1-4.6c5.6-1.5,11.3-3.2,17-3.3c22.9-0.6,45.9-0.8,68.8-0.8
			C439.4,809.3,443.9,810.7,448.2,811.8L448.2,811.8z M444.7,547c-16.5-4-33.3-4.4-50.1-4.2c-2.8,0-5.7,0.3-8.5,0
			c-1.4-0.1-2.7-1.1-4-1.8c0.1-0.6,0.3-1.2,0.5-1.8c7.1-0.4,14.1-1.3,21.2-1.2c11.6,0.1,23.3,0.8,34.9,1.5c2.7,0.2,5.6,1.1,8.1,2.3
			c1.1,0.6,1.6,2.6,2.3,4C447.5,546.3,446,547.3,444.7,547L444.7,547z M453.5,523.9c-13.7-1.2-27.4-2.8-41.1-4
			c-5.1-0.4-10.3-0.2-15.4-0.2c-1.7,0-3.4,0-5.1-0.8c22.5-1.6,45-2.3,67.4,1.3l0.4,2.7C457.6,523.3,455.6,524,453.5,523.9z
			 M476.3,503.5c-0.3,1.6-0.5,3.3-0.6,5c-0.3,3.7-2.2,5-5.9,4.9c-15.5-0.2-31-0.1-46.8-0.1c-1.3-6.3-1.2-6.2,5.6-7.1
			c1-0.1,2.6-1.4,2.8-2.4c1.1-5.1,5.2-6,9.1-6c10.5,0,21,0.5,31.5,0.7C475.4,498.6,476.8,500.1,476.3,503.5L476.3,503.5z
			 M450.6,491.6c-6-0.1-12-0.2-17.9-0.4c-1.8-0.1-3.6-0.4-5.3-0.5c7-1.6,12.1-5.6,16.9-10.4c1.7-1.7,4.8-2.9,7.3-2.9
			c11.1,0,22.2,0.8,33.4,0.9c4.4,0,6.2,1.5,5.5,5.8c-0.1,1-0.1,2-0.1,3c0.4,4-1.2,5.6-5.4,5.4C473.5,491.9,462.1,491.8,450.6,491.6
			L450.6,491.6z"/>
		<path d="M440.9,386.2c0.9,1.8,1.4,2.6,1.5,2.5c0.3-0.1-1.5-4.3-1.5-6.6c-0.6,0-1.2,0-1.8,0.1C439.5,383.1,440,384.4,440.9,386.2
			L440.9,386.2z"/>
		<path d="M267,294.5c0.2,3.6,1.5,4.5,5,5.1c11.4,1.9,21.8,5.9,28.3,16.5c1.5,2.5,3.9,4.6,6.2,6.3c6.1,4.6,18.9,0.9,21.7-6.4
			c-2.8,1.8-5.2,3.9-8,5.1c-1.3,0.6-4.1,0-4.9-1c-4.1-5.2-7.8-10.7-11.6-16.1c-0.3-0.4-0.7-1-1.1-1.1c-9.7-3.4-19.4-6.6-29-10.2
			c-1.6-0.6-3.3-2.1-4-3.7c-2.7-5.8-3.2-11.8-0.8-18c-3.5,3.8-4.9,8.1-3.6,13.2C266.1,287.5,266.9,291,267,294.5L267,294.5z"/>
		<path d="M268.3,348.7c1.4-7.3,5.7-11.3,13-12.1c-1.5-0.1-3-0.6-4.5-0.4c-5.5,0.9-6.8-2.2-7.2-6.8c-0.6-6.5-1.7-12.9-2.8-20.8
			c-0.8,10.5-1.4,19.6-2,28.5H248c4.3,1.2,9.2-0.1,12.7,1.6C263.9,340.2,265.6,344.9,268.3,348.7L268.3,348.7z"/>
		<path d="M233,344.3c-2.8-3.2-5.8-6.8-8.8-10.4c-0.4,0.2-0.8,0.4-1.2,0.6c1.2,7.5,2.4,14.9,3.5,22
			C228.6,352.5,230.8,348.4,233,344.3z"/>
		<path d="M297.3,343c1.5,3.1,3,6.3,4.7,9.8c1.5-8.6,3-16.8,4.4-24.9c-0.5-0.2-1-0.5-1.5-0.7C302.8,333,303.3,340,297.3,343
			L297.3,343z"/>
		<path d="M264.6,359.2c-2.6-0.5-5.6-0.1-6.5,3.2c4.2,1,7.7,1.9,11.2,2.6c0.6,0.1,1.6,0,1.8-0.3c0.4-0.6,0.5-2,0.3-2.1
			C269.2,361.3,267,359.7,264.6,359.2L264.6,359.2z"/>
		<path d="M208.8,256.4c0-0.1-1.1-0.8-2-1.5c-0.4,1.7-0.7,2.9-1.1,4.6c-1.1-1-1.6-1.4-2.1-1.9l-1.1,1.4c1.1,0.7,2.2,1.5,3.3,2.2
			C206.8,259.7,207.8,258.1,208.8,256.4L208.8,256.4z"/>
		<path d="M292.2,799.6c2.5-5.8,4.9-11.5,7.5-17.6C292.6,782.7,291.1,786,292.2,799.6z"/>
		<path d="M270.3,106.1c0.4-0.2-1.2-2.4-1.2-5.6c0-3.1,1.6-5.7,3.2-7.6c-2.4,0.8-4.4,2-5.3,3.8c-0.2,0.3-0.7,1.5-0.6,3
			C266.4,103.5,269.7,106.4,270.3,106.1L270.3,106.1z"/>
	</g>
</g>
</svg>
