<?xml version="1.0" encoding="utf-8"?>
<!-- Generator: Adobe Illustrator 28.3.0, SVG Export Plug-In . SVG Version: 6.00 Build 0)  -->
<svg version="1.1" id="Layer_1" xmlns="http://www.w3.org/2000/svg" xmlns:xlink="http://www.w3.org/1999/xlink" x="0px" y="0px"
	 viewBox="0 0 568.9 930" style="enable-background:new 0 0 568.9 930;" xml:space="preserve">
<style type="text/css">
	.st0{fill:#FFFFFF;}
</style>
<g>
	<path class="st0" d="M568.3,490.8c-3.1-10.4-8.4-20.3-9.9-30.8c-1.8-12.6-7.1-23.8-10.9-35.7c-3.2-10-6-20.1-8.5-30.3
		c-0.5-2.1,0.5-4.7,1.2-6.9c1.5-4.9,4-9.6,4.5-14.5c1.1-10.3-1.4-20.2-5.6-29.7c-5.4-12.3-11.3-24.5-16.7-36.9
		c-5.2-11.9-14.2-18.6-26.7-21c-1.6-0.3-3.3-0.7-4.9-0.9c-3-0.4-4.5-2-5.4-5c-1.2-3.9-2.7-8-4.9-11.4c-6.1-9.3-8.5-19.2-7.5-30.4
		c0.6-6.9,0.4-14-0.2-20.9c-2-23.6-22.8-42.3-49.3-34.9c-2.7,0.8-6.3,0.8-8.7-0.5c-14.8-7.9-30.2-4.4-45.5-2.9
		c-2,0.2-4.3,1.4-5.7,2.8c-3.6,3.6-7.1,1.9-10.4,0c-3.9-2.1-8-4.2-7.8-9.4c0.6,0.5,1.1,0.6,1.5,0.6c2,0.1,4.1-2.8,5.1-7.2
		c1.1,0,3.6,0.3,6-0.1c5.8-1,9.4-5.5,8.9-10.8c-0.1-1.2-0.4-2.8-1.5-3.8c-2.7-2.4-8.3,0.6-9.2-0.9c-0.4-0.7,0.6-2,0.7-2.1
		c2-2.4,5.1-0.8,10.2-2.4c1.7-0.5,5-1.5,6.9-4.5c0.9-1.4,1.4-2.9,1.4-4.8c0.1-2.5-1.6-5.1-2.5-7.6c-2.1,3-5.2,3.9-6.9,2.8
		c-0.9-0.6-1.5-2-1.4-3.2c0.2-1.6,1.5-2.7,2.5-3.4c6-4.1,7.2-4.3,8.7-5.9c4.5-4.6,2.6-14.2,1-14.6c-0.6-0.1-0.9,1-2.5,1.6
		c-1.5,0.6-3,0.4-4.2,0c6.6-6.6,9.1-14.5,6.4-18.5c-2.6-4-10.6-4.7-15.2-5.1c-1.4-0.1-2.6-0.2-3.4-0.2c1-0.3,2.4-1,3.9-2.3
		c0.6-0.5,3.8-3.3,4-7.4c0.1-2.5-1-4.3-2.6-6.9c-2.4-3.9-3.9-4-7.4-8.8c-2.1-2.9-1.8-3.1-3-4.3c-2.7-2.5-5.2-2.4-8.6-3.7
		c-3.6-1.4-4.5-1.9-8.3-5.8c-6.7-7-16-7.8-23.9-9.5c-3.3-0.7-6.2-1-8.5-1.2c0.4-0.3,0.8-0.6,1.2-1c1.7-1.3,3.7-2.5,4.9-4.2
		c0.5-0.7,0.6-1,0.7-1.3c0.2-1.5-1.3-2.7-1.5-2.9c-0.7-0.6-1.5-0.9-3.5-1.1c-1.8-0.2-3.4-0.4-5.3-0.2c-5.9,0.7-11.6,5-13.8,6.7
		c-3.5,2.6-5.9,5.2-7,4.5c-0.6-0.4-0.1-1.3-0.8-2.8c-0.7-1.5-2.2-2.6-3.7-3c-1.6-0.4-3.3-0.1-5,1c-3,2-5.8,4.5-8.1,7.2
		c-2.4,2.7-3.7,5.3-3.7,8.4c0.1,2.9,1.5,3.6,0.9,5.3c-1,2.4-4.4,1.8-7.8,5.1c-1.2,1.2-2.1,2.3-2.3,3.3c-1.2,4.6-2.1,9.4-2.7,14.1
		c-0.4,3.3-0.9,5.9-5.2,5.4c-3.8-0.4-4.9,1.9-4.4,5.4c0.3,1.9,0.5,4-0.1,5.8c-2.4,6.9-2.3,8.7-0.9,10.9c2,3.2,7.1,0.9,9.6,4.8
		c1.4,2,0.7,3.8,2.4,5.1c1.6,1.2,3.7,1,5.2,0.7c-1.4,5.3,0.5,10.1,3.9,11.7c2.1,1,4.4,0.5,5.5,0.2c-0.9,4-1.1,8-2.8,11.2
		c-5.4,9.9-6.1,20.3,1,28.5c5.2,6,8.2,16.2,19.2,14.9c-0.5,5.6-1.2,7-5.5,8.6c-6.9,2.5-13.9,4.5-20.8,7c-7.7,2.8-15.4,3.2-23.5,2.1
		c-20.2-2.8-36.8,4.2-49.2,20.2c-4.9,6.3-8.6,13.4-13.1,20c-1.5,2.2-3.7,4.8-6,5.3c-12.9,2.9-24,8.9-33.8,17.5
		c-1,0.9-3.1,1.6-4.3,1.2c-11.3-3.3-22.6-6.9-33.9-10.3c-11.1-3.3-15.9-10.8-15.2-22.4c1.2-17.8,3.2-21.9,0.6-27.9
		c-1.8-4.2-6.6-9-19.4-11.7c2.6-3.6,5.5-7,8.8-9.9c3.3-2.9,4.1-4.9,0.9-8.4c-4.9-5.3-4.7-5.5,1.6-9.6c3.5-2.2,3.7-4.3,0.6-7.1
		c-1.3-1.2-2.7-2.3-4.4-3.8c14.7-11,28.8-21.6,43-32.3c-0.2-0.6-0.3-1.1-0.5-1.7c-9.5-1.1-19.1-2.3-30.1-3.6
		c6.7-8.8,12.6-16.4,18.2-24.2c1.7-2.4,3.7-5.1,3.9-7.8c2.3-24,4.3-48.1,6.2-72.2c0.1-1.5-1.1-3.2-1.7-4.7c-1.5,0.8-3.4,1.2-4.6,2.3
		c-4.4,4.3-8.3,9.2-12.8,13.3C66.9,31.8,49.1,47.8,31.3,63.9c-2.2,2-4,4.4-6.7,7.4c5.5,0.9,9.4,1.5,14,2.3
		c-8,6.4-15.3,12.3-23.1,18.6c5.9,4.2,10.5,7.6,15.5,11.2C20.3,115.7,10.1,127.4,0,139c0.3,0.2,0.6,0.5,0.9,0.7
		c9-2.7,18-5.4,27.8-8.4c-0.4,1.8-0.5,2.1-0.6,2.4c-1.7,3.1-3.4,6.1-5,9.2c-3.7,6.7-3.2,7.8,4.3,7.6c4-0.1,5.3,1.7,4.6,5
		c-0.5,2.5-1.6,5.1-3.2,7c-2.1,2.7-5,4.8-7.6,7.2c1.5,1.3,3.1,2.6,4.5,3.9c1.5,1.4,3,2.7,4.2,4.3c4.3,5.3,3.7,9.2-1.7,13.2
		c-2,1.5-4.3,2.9-5.7,4.8c-1.5,2.1-2.9,4.9-2.8,7.2c0.2,3.7,0.5,6.7-2.7,9.4c-1,0.8-1.2,3-1.1,4.6c0.2,5.9,1.2,11.9,0.7,17.8
		c-0.7,8.1,3.2,13.4,9.4,16.8c4.5,2.4,5.5,5.5,5.5,10c0.4,22.3,0.6,44.7,1.7,67c0.8,16.3,2.8,32.5,4.7,48.7c0.4,3.4,2.2,6.7,3.3,10
		c0.7,0,1.5-0.1,2.2-0.1c0.8-3.4,1.9-6.8,2.2-10.2c2.8-29.7,5.4-59.4,8-89c0.3-2.9,0.5-5.8,0.8-8.9c0.8,0.5,1,0.5,1.1,0.6
		c0.6,1.4,1.2,2.7,1.9,4.1c8,16,16.8,31.3,34.2,38.9c3.3,1.5,2.9,3.9,2.5,6.6c-3.7,23.9-6.3,47.9-3.8,72.2c0.5,4.4-0.1,9-0.4,13.5
		c-1,15-2.2,29.9-3.3,44.9c-0.7,10.1,2.1,19.1,8.1,27.1c2.6,3.5,5.1,7.1,8.2,10.1c4.2,4,5.5,8.8,5.7,14.3c0.3,10,0.8,20,1.4,30
		c0.4,7.7,2.7,14.6,7.8,20.7c3.2,3.8,5.9,8,8.3,12.4c3.8,6.9,8.5,12.5,16.1,15.7c5,2.1,9.7,5,14,8.3c9.2,7.2,18.9,12.9,30.9,14.1
		c7.9,0.8,8.2,1.6,10.5,9.4c3.2,10.8,7,21.5,10.1,32.4c1.2,4.3,1.3,9.1,1.4,13.6c0.2,5.1-1.3,10.5-0.1,15.3
		c2.1,8.1,1.4,15.7-0.6,23.6c-6.3,24.7-5.5,49.3,3.8,73.2c6.2,16,13.6,31.5,20,47.4c2.7,6.7,4.1,13.9,5.7,21c1,4.5,1.2,9.1,1.8,13.7
		c0.2,1.5,0.8,3.5,0.1,4.3c-6.9,8.7-9.9,20.1-19.4,27c-3.1,2.2-5.9,4.9-8.6,7.6c-7.1,7.3-6.9,15.7,0.1,23c2.6,2.7,5.4,3.8,9.3,3.7
		c4.9-0.2,9.9,4.2,14-1.2c8.7,4.4,17.2,4.9,23.5-2.2c4.9-5.4,10.5-7,17.1-7.6c2.1-0.2,4.3-0.6,6.4-1.1c12.1-3.1,15.3-9.7,10.5-21.2
		c-3.1-7.5-5.8-15.3-8.5-23c-0.4-1.2-0.7-2.8-0.2-3.8c2.8-6.1,1.2-11.6-1.2-17.3c-1.3-3-2.4-6.4-2.4-9.6c0.1-16.1,0.4-32.3,1.2-48.4
		c0.2-4,2-8.1,3.9-11.7c5-9.8,6.9-20.1,6.5-30.9c-0.1-1.6,0-3.3,0-5.3c3.6,2.5,6.9,4.5,9.8,6.9c1.2,1,2.3,2.9,2.4,4.5
		c0.9,11.1,5.9,19.9,14,27.3c1.3,1.2,2.6,3.3,2.6,5c0.4,18.4-0.2,36.7-10,53.3c-1.6,2.6-3.4,6.3-2.7,8.8c2,7.6,1.6,14.9-0.7,22.3
		c-1.2,3.8-1.8,7.7-2.8,11.5c-1.7,6.5-4.1,13-5.2,19.6c-0.9,5.6,1.2,8.7,6.9,9.8c6,1.1,12.2,1,18.3,1.5c2.6,0.2,5.2,0.7,7.7,1.2
		c4.1,0.9,8.2,2.8,12.3,2.9c8.6,0.1,17.2-0.6,25.7-1.3c5.6-0.5,11.2-1.3,16.6-2.5c3.9-0.9,7.1-3.4,7.3-7.9c0.2-4.5-3.1-6.7-6.8-8.3
		c-1.5-0.7-3.2-1-4.7-1.7c-5.4-2.2-10.8-4.4-16.1-6.8c-8.1-3.7-9.9-12.2-13.6-19.1c-1.1-2,0.1-5.2,0.1-7.8c0-1.2,0-2.4-0.3-3.4
		c-3.4-10.1-1.5-19.7,2.8-29.1c6.1-13.2,12.1-26.3,18.2-39.5c0.8-1.7,2-3.3,3.1-5.3c3.8,4.2,6.2,7.8,3,13.2c-1.5,2.6-1.9,6-2.1,9.1
		c-0.4,6.5,5.7,14.5,11.9,16.3c7.5,2.2,18.2-0.8,21-6.7c2.2-4.6,5.7-6.7,10.3-7.8c3.1-0.7,6.2-1.4,9.2-2.2
		c18.6-4.9,29.5-17.2,30.3-36.2c0.6-16.1-0.3-32.3-0.8-48.4c-0.1-3.2,0.1-5.4,3.2-7.5c2.5-1.8,3.9-5.1,6-7.7c2.1-2.6,3.9-6,6.7-7.5
		c14.8-7.5,21.5-19.3,20.3-35.7c-0.8-11.1-1.8-22.2-2.6-33.4c-0.5-7.4-0.4-7.4,6.6-9.3c10.9-3,14.5-7.5,15-18.8c0.1-2.7,0.2-5.3,0-8
		c-0.7-9.8-1.9-19.6-2.2-29.4c-0.6-15.9-3.8-31.8,0.7-47.7c0.4-1.5,1.9-3.7,3.1-3.8c5.5-0.6,8.8-2.9,10.3-8.5c0.4-1.5,3.3-3.3,5-3.3
		c4,0,11.7,7.4,12.2,10.8c0.8,5.5-2.2,10.5-7.7,13.9c-3.3,2.1-6.5,4.7-9.2,7.6c-4.1,4.5-1.3,11.6,4.6,12.7c6.3,1.1,11.6-1.4,16-5.4
		c9-8.3,17.1-17.4,18.2-30.6c0.3-3.6,2.1-7,2.6-10.6C568.8,497.9,569.3,494,568.3,490.8L568.3,490.8z"/>
	<g>
		<path d="M568.3,490.8c-3.1-10.4-8.4-20.3-9.9-30.8c-1.8-12.6-7.1-23.8-10.9-35.7c-3.2-10-6-20.1-8.5-30.3
			c-0.5-2.1,0.5-4.7,1.2-6.9c1.5-4.9,4-9.6,4.5-14.5c1.1-10.3-1.4-20.2-5.6-29.7c-5.4-12.3-11.3-24.5-16.7-36.9
			c-5.2-11.9-14.2-18.6-26.7-21c-1.6-0.3-3.3-0.7-4.9-0.9c-3-0.4-4.5-2-5.4-5c-1.2-3.9-2.7-8-4.9-11.4c-6.1-9.3-8.5-19.2-7.5-30.4
			c0.6-6.9,0.4-14-0.2-20.9c-2-23.6-22.8-42.3-49.3-34.9c-2.7,0.8-6.3,0.8-8.7-0.5c-14.8-7.9-30.2-4.4-45.5-2.9
			c-2,0.2-4.3,1.4-5.7,2.8c-3.6,3.6-7.1,1.9-10.4,0c-3.9-2.1-8-4.2-7.8-9.4c0.6,0.5,1.1,0.6,1.5,0.6c2,0.1,4.1-2.8,5.1-7.2
			c1.1,0,3.6,0.3,6-0.1c5.8-1,9.4-5.5,8.9-10.8c-0.1-1.2-0.4-2.8-1.5-3.8c-2.7-2.4-8.3,0.6-9.2-0.9c-0.4-0.7,0.6-2,0.7-2.1
			c2-2.4,5.1-0.8,10.2-2.4c1.7-0.5,5-1.5,6.9-4.5c0.9-1.4,1.4-2.9,1.4-4.8c0.1-2.5-1.6-5.1-2.5-7.6c-2.1,3-5.2,3.9-6.9,2.8
			c-0.9-0.6-1.5-2-1.4-3.2c0.2-1.6,1.5-2.7,2.5-3.4c6-4.1,7.2-4.3,8.7-5.9c4.5-4.6,2.6-14.2,1-14.6c-0.6-0.1-0.9,1-2.5,1.6
			c-1.5,0.6-3,0.4-4.2,0c6.6-6.6,9.1-14.5,6.4-18.5c-2.6-4-10.6-4.7-15.2-5.1c-1.4-0.1-2.6-0.2-3.4-0.2c1-0.3,2.4-1,3.9-2.3
			c0.6-0.5,3.8-3.3,4-7.4c0.1-2.5-1-4.3-2.6-6.9c-2.4-3.9-3.9-4-7.4-8.8c-2.1-2.9-1.8-3.1-3-4.3c-2.7-2.5-5.2-2.4-8.6-3.7
			c-3.6-1.4-4.5-1.9-8.3-5.8c-6.7-7-16-7.8-23.9-9.5c-3.3-0.7-6.2-1-8.5-1.2c0.4-0.3,0.8-0.6,1.2-1c1.7-1.3,3.7-2.5,4.9-4.2
			c0.5-0.7,0.6-1,0.7-1.3c0.2-1.5-1.3-2.7-1.5-2.9c-0.7-0.6-1.5-0.9-3.5-1.1c-1.8-0.2-3.4-0.4-5.3-0.2c-5.9,0.7-11.6,5-13.8,6.7
			c-3.5,2.6-5.9,5.2-7,4.5c-0.6-0.4-0.1-1.3-0.8-2.8c-0.7-1.5-2.2-2.6-3.7-3c-1.6-0.4-3.3-0.1-5,1c-3,2-5.8,4.5-8.1,7.2
			c-2.4,2.7-3.7,5.3-3.7,8.4c0.1,2.9,1.5,3.6,0.9,5.3c-1,2.4-4.4,1.8-7.8,5.1c-1.2,1.2-2.1,2.3-2.3,3.3c-1.2,4.6-2.1,9.4-2.7,14.1
			c-0.4,3.3-0.9,5.9-5.2,5.4c-3.8-0.4-4.9,1.9-4.4,5.4c0.3,1.9,0.5,4-0.1,5.8c-2.4,6.9-2.3,8.7-0.9,10.9c2,3.2,7.1,0.9,9.6,4.8
			c1.4,2,0.7,3.8,2.4,5.1c1.6,1.2,3.7,1,5.2,0.7c-1.4,5.3,0.5,10.1,3.9,11.7c2.1,1,4.4,0.5,5.5,0.2c-0.9,4-1.1,8-2.8,11.2
			c-5.4,9.9-6.1,20.3,1,28.5c5.2,6,8.2,16.2,19.2,14.9c-0.5,5.6-1.2,7-5.5,8.6c-6.9,2.5-13.9,4.5-20.8,7c-7.7,2.8-15.4,3.2-23.5,2.1
			c-20.2-2.8-36.8,4.2-49.2,20.2c-4.9,6.3-8.6,13.4-13.1,20c-1.5,2.2-3.7,4.8-6,5.3c-12.9,2.9-24,8.9-33.8,17.5
			c-1,0.9-3.1,1.6-4.3,1.2c-11.3-3.3-22.6-6.9-33.9-10.3c-11.1-3.3-15.9-10.8-15.2-22.4c1.2-17.8,3.2-21.9,0.6-27.9
			c-1.8-4.2-6.6-9-19.4-11.7c2.6-3.6,5.5-7,8.8-9.9c3.3-2.9,4.1-4.9,0.9-8.4c-4.9-5.3-4.7-5.5,1.6-9.6c3.5-2.2,3.7-4.3,0.6-7.1
			c-1.3-1.2-2.7-2.3-4.4-3.8c14.7-11,28.8-21.6,43-32.3c-0.2-0.6-0.3-1.1-0.5-1.7c-9.5-1.1-19.1-2.3-30.1-3.6
			c6.7-8.8,12.6-16.4,18.2-24.2c1.7-2.4,3.7-5.1,3.9-7.8c2.3-24,4.3-48.1,6.2-72.2c0.1-1.5-1.1-3.2-1.7-4.7
			c-1.5,0.8-3.4,1.2-4.6,2.3c-4.4,4.3-8.3,9.2-12.8,13.3C66.9,31.8,49.1,47.8,31.3,63.9c-2.2,2-4,4.4-6.7,7.4
			c5.5,0.9,9.4,1.5,14,2.3c-8,6.4-15.3,12.3-23.1,18.6c5.9,4.2,10.5,7.6,15.5,11.2C20.3,115.7,10.1,127.4,0,139
			c0.3,0.2,0.6,0.5,0.9,0.7c9-2.7,18-5.4,27.8-8.4c-0.4,1.8-0.5,2.1-0.6,2.4c-1.7,3.1-3.4,6.1-5,9.2c-3.7,6.7-3.2,7.8,4.3,7.6
			c4-0.1,5.3,1.7,4.6,5c-0.5,2.5-1.6,5.1-3.2,7c-2.1,2.7-5,4.8-7.6,7.2c1.5,1.3,3.1,2.6,4.5,3.9c1.5,1.4,3,2.7,4.2,4.3
			c4.3,5.3,3.7,9.2-1.7,13.2c-2,1.5-4.3,2.9-5.7,4.8c-1.5,2.1-2.9,4.9-2.8,7.2c0.2,3.7,0.5,6.7-2.7,9.4c-1,0.8-1.2,3-1.1,4.6
			c0.2,5.9,1.2,11.9,0.7,17.8c-0.7,8.1,3.2,13.4,9.4,16.8c4.5,2.4,5.5,5.5,5.5,10c0.4,22.3,0.6,44.7,1.7,67
			c0.8,16.3,2.8,32.5,4.7,48.7c0.4,3.4,2.2,6.7,3.3,10c0.7,0,1.5-0.1,2.2-0.1c0.8-3.4,1.9-6.8,2.2-10.2c2.8-29.7,5.4-59.4,8-89
			c0.3-2.9,0.5-5.8,0.8-8.9c0.8,0.5,1,0.5,1.1,0.6c0.6,1.4,1.2,2.7,1.9,4.1c8,16,16.8,31.3,34.2,38.9c3.3,1.5,2.9,3.9,2.5,6.6
			c-3.7,23.9-6.3,47.9-3.8,72.2c0.5,4.4-0.1,9-0.4,13.5c-1,15-2.2,29.9-3.3,44.9c-0.7,10.1,2.1,19.1,8.1,27.1
			c2.6,3.5,5.1,7.1,8.2,10.1c4.2,4,5.5,8.8,5.7,14.3c0.3,10,0.8,20,1.4,30c0.4,7.7,2.7,14.6,7.8,20.7c3.2,3.8,5.9,8,8.3,12.4
			c3.8,6.9,8.5,12.5,16.1,15.7c5,2.1,9.7,5,14,8.3c9.2,7.2,18.9,12.9,30.9,14.1c7.9,0.8,8.2,1.6,10.5,9.4c3.2,10.8,7,21.5,10.1,32.4
			c1.2,4.3,1.3,9.1,1.4,13.6c0.2,5.1-1.3,10.5-0.1,15.3c2.1,8.1,1.4,15.7-0.6,23.6c-6.3,24.7-5.5,49.3,3.8,73.2
			c6.2,16,13.6,31.5,20,47.4c2.7,6.7,4.1,13.9,5.7,21c1,4.5,1.2,9.1,1.8,13.7c0.2,1.5,0.8,3.5,0.1,4.3c-6.9,8.7-9.9,20.1-19.4,27
			c-3.1,2.2-5.9,4.9-8.6,7.6c-7.1,7.3-6.9,15.7,0.1,23c2.6,2.7,5.4,3.8,9.3,3.7c4.9-0.2,9.9,4.2,14-1.2c8.7,4.4,17.2,4.9,23.5-2.2
			c4.9-5.4,10.5-7,17.1-7.6c2.1-0.2,4.3-0.6,6.4-1.1c12.1-3.1,15.3-9.7,10.5-21.2c-3.1-7.5-5.8-15.3-8.5-23
			c-0.4-1.2-0.7-2.8-0.2-3.8c2.8-6.1,1.2-11.6-1.2-17.3c-1.3-3-2.4-6.4-2.4-9.6c0.1-16.1,0.4-32.3,1.2-48.4c0.2-4,2-8.1,3.9-11.7
			c5-9.8,6.9-20.1,6.5-30.9c-0.1-1.6,0-3.3,0-5.3c3.6,2.5,6.9,4.5,9.8,6.9c1.2,1,2.3,2.9,2.4,4.5c0.9,11.1,5.9,19.9,14,27.3
			c1.3,1.2,2.6,3.3,2.6,5c0.4,18.4-0.2,36.7-10,53.3c-1.6,2.6-3.4,6.3-2.7,8.8c2,7.6,1.6,14.9-0.7,22.3c-1.2,3.8-1.8,7.7-2.8,11.5
			c-1.7,6.5-4.1,13-5.2,19.6c-0.9,5.6,1.2,8.7,6.9,9.8c6,1.1,12.2,1,18.3,1.5c2.6,0.2,5.2,0.7,7.7,1.2c4.1,0.9,8.2,2.8,12.3,2.9
			c8.6,0.1,17.2-0.6,25.7-1.3c5.6-0.5,11.2-1.3,16.6-2.5c3.9-0.9,7.1-3.4,7.3-7.9c0.2-4.5-3.1-6.7-6.8-8.3c-1.5-0.7-3.2-1-4.7-1.7
			c-5.4-2.2-10.8-4.4-16.1-6.8c-8.1-3.7-9.9-12.2-13.6-19.1c-1.1-2,0.1-5.2,0.1-7.8c0-1.2,0-2.4-0.3-3.4
			c-3.4-10.1-1.5-19.7,2.8-29.1c6.1-13.2,12.1-26.3,18.2-39.5c0.8-1.7,2-3.3,3.1-5.3c3.8,4.2,6.2,7.8,3,13.2c-1.5,2.6-1.9,6-2.1,9.1
			c-0.4,6.5,5.7,14.5,11.9,16.3c7.5,2.2,18.2-0.8,21-6.7c2.2-4.6,5.7-6.7,10.3-7.8c3.1-0.7,6.2-1.4,9.2-2.2
			c18.6-4.9,29.5-17.2,30.3-36.2c0.6-16.1-0.3-32.3-0.8-48.4c-0.1-3.2,0.1-5.4,3.2-7.5c2.5-1.8,3.9-5.1,6-7.7c2.1-2.6,3.9-6,6.7-7.5
			c14.8-7.5,21.5-19.3,20.3-35.7c-0.8-11.1-1.8-22.2-2.6-33.4c-0.5-7.4-0.4-7.4,6.6-9.3c10.9-3,14.5-7.5,15-18.8
			c0.1-2.7,0.2-5.3,0-8c-0.7-9.8-1.9-19.6-2.2-29.4c-0.6-15.9-3.8-31.8,0.7-47.7c0.4-1.5,1.9-3.7,3.1-3.8c5.5-0.6,8.8-2.9,10.3-8.5
			c0.4-1.5,3.3-3.3,5-3.3c4,0,11.7,7.4,12.2,10.8c0.8,5.5-2.2,10.5-7.7,13.9c-3.3,2.1-6.5,4.7-9.2,7.6c-4.1,4.5-1.3,11.6,4.6,12.7
			c6.3,1.1,11.6-1.4,16-5.4c9-8.3,17.1-17.4,18.2-30.6c0.3-3.6,2.1-7,2.6-10.6C568.8,497.9,569.3,494,568.3,490.8L568.3,490.8z
			 M371.6,86.2c-2.3,2-4,4.6-6,4.8c-1.6,0.2-3.5-2.6-5.1-3.9C364.3,86.7,367.3,86.5,371.6,86.2z M527.8,338.1
			c9,11.6,12.3,33.2,4.7,41c0-2.3-0.4-4.8,0.1-7c3.2-13.7-4-31.2-16.2-38.2c-5.3-3-10.9-5.6-16.6-8.5
			C506.1,322.5,521.1,329.5,527.8,338.1L527.8,338.1z M525.2,351.5c-5.1-5.6-10.2-11.3-15.8-17.4C517.8,335.4,523.6,342,525.2,351.5
			z M475,270.9c1.5,3.3,3.2,6.7,3.9,10.2c0.8,3.8,2.6,5.8,6.1,6.8c2.7,0.8,5.3,2,8,2.7c4.7,1.1,8.8,3,12.3,5.6
			c5,3.6,7.5,7.5,11.8,15.1c5.5,9.6,8.5,19.3,7.8,19.7c-0.2,0.1-0.6-0.5-2.5-2.5c-1.8-1.8-3.1-2.8-3.6-3.3c-3.4-3.1-3-8.1-6.1-13.6
			c-5.3-9.6-13.9-15-24.5-17.4c-16.2-3.7-31-10.8-45.6-18.6c-0.2-0.1-1.6-0.5-1.6-1.2c0-0.5,0.6-0.7,0.6-1.2
			c0.1-1.2-3.5-3.4-5.2-2.2c-0.1,0.1-0.8,0.6-0.8,1.3c0,1.7,3.6,3.1,5,3.6c5.4,2.1,10.1,5.8,15.4,8c13.7,5.8,20.5,8.6,24.8,11.2
			c3.7,2.2,8.9,5.6,14.6,11.1c-9.9-4.6-19.3-8.3-28.1-13.2c-20.4-11.5-40.5-23.5-60.6-35.6c-5.9-3.6-6.6-5.7-5.7-11.9
			c14.9,11.5,27.2,17.9,35,21.5c7.4,3.4,23.3,9.9,28.4,11c2.4,0.5,4.6,1.9,7.1,2.4c0.8,0.1,2.3,0.4,2.5,1.3c0.2,0.6-0.2,1.3-0.7,1.7
			c-1.5,1.1-3.8-0.9-7.6-2c-4.1-1.2-8.2-1-8.3-0.5c-0.1,0.5,5.1,1.1,14.8,4.4c2.6,0.9,3.4,1.2,4,0.8c2-1.7-4.3-10.9-9.2-22.6
			c-2.3-5.6-5-13.5-6.7-23.5c1.2,1.3,2.2,2,2.5,3c1.4,3.5,2.5,7.2,4,10.7C469.5,259.3,472.4,265.1,475,270.9L475,270.9z
			 M452.1,331.3c-9.6,0.6-17-3.5-23-10.8c-7.1-8.7-11.1-18.9-14-29.6c-1.2-4.3,0.4-6.3,4.9-5.5c7.4,1.3,14.6,3.1,21.8,5.1
			c5,1.4,8.2,5.1,10.4,10c3.1,7,6.8,13.7,10.3,20.5c3.5,6.7,2.5,8.9-4.9,9.9C455.8,331.1,453.9,331.2,452.1,331.3L452.1,331.3z
			 M465.1,395.5c-0.3,40.5-5,80.6-10.1,120.8C454.2,475.6,460.6,435.6,465.1,395.5z M394.2,508.9c4.9,5.9,10,11.7,15.6,17.4
			c-2.7-1.7-5.7-2.9-7.9-5.1c-4.1-3.9-8.2-8-11.3-12.6c-6.7-10.1-12.8-20.6-18.9-31.1c-1.6-2.7-2.4-5.8-3.5-8.6
			c3.2-2.7,5.8-2.4,8.3,0.1c1.9,1.9,4.1,3.5,5.8,5.5c6.7,7.9,14.8,13.7,24.8,16.9c-0.2,0.6-0.4,1.2-0.6,1.9c-4.6-1-9.1-2.1-13.3-3.1
			c3.2,5.6,10.9,10.9,15.1,8.4c5.3-3.1,9.5-8,14-12c1.1,8.8-7,19.1-16.6,19.3c-1.9,0-4-1.4-5.6-2.7c-5.6-4.6-11-9.5-17-14
			C384.8,496.9,389.4,503,394.2,508.9L394.2,508.9z M285.1,493.1c0.5-0.4,1-0.7,1.5-1c2.6,3.3,5.1,6.5,7.7,9.8
			c0.4-0.5,0.9-1.5,1.2-1.4c7,1,13-1.3,18.2-6.3c0.2,0.3,0.5,0.7,0.7,1c-1.6,2.4-3,5-4.8,7.2c-3.3,4.1-6.8,4.5-11.4,1.8
			c-1.1-0.6-2.3-1.2-3.5-1.8c5.2,6.4,11.2,10,19.7,5c0.2,0.6,0.4,1.2,0.5,1.8c-3.4,1.8-6.8,3.6-12.1,6.4c-4-3.4-8-6.8-11.9-10.2
			c5,7.9,9.9,15.8,15,23.6c1.6,2.5,3.5,4.9,5.7,6.9c4,3.7,7.7,2.6,8.6-2.7c1-5.7,1.1-11.6,1.7-17.4c0.6-5.6,1.1-11.3,2.1-16.8
			c0.3-1.8,2.3-3.2,3.5-4.9l2.4,0.8c-0.5,12-0.8,24.1-1.6,36.1c-0.3,4.1-1.1,8.4-2.9,12.1c-1.4,2.8-4.2,6.1-7,6.6
			c-2.4,0.5-6.7-1.7-8.1-4c-6.7-10.5-12.9-21.3-19-32.2c-2.8-5-5.1-10.4-8-16.3c1.8,0.2,2.6,0.3,3.3,0.4
			C286,496.2,285.6,494.7,285.1,493.1L285.1,493.1z M311.6,521.7c-0.3,0.3-0.6,0.6-0.9,0.9c-2.6-2.2-5.2-4.5-7.9-6.7
			C305.8,517.9,308.7,519.8,311.6,521.7L311.6,521.7z M306.4,476.5c-2,0.6-4.1,1.2-6.5,1.1c8-6.9,16.1-13.7,24.1-20.5l-0.7-1.1
			c-4.4,2.5-8.8,5-13.3,7.4c-7.9,4.3-15.7,8.6-23.7,12.7c-4.4,2.2-9.1,2.4-14,0.7c17.2-5.4,29-18.5,42.6-29.1
			c-16.9,5.9-31,18.6-49.5,20.4c-0.4-0.5-0.7-1.1-1-1.6c5-3.9,9.6-8.6,15.1-11.5c17.3-9.2,34.2-19.3,53.7-23.8
			c7.1-1.6,13.8-5.4,20.7-8.1c-0.2-0.5-0.3-1.1-0.5-1.6c-1.2,0.4-2.4,0.7-3.7,1.1c3.7-8.9,21.6-17.4,32-15c-2.5,2.9-4.8,5.6-7.2,8.2
			c-13.4,14.6-26.5,29.5-40.2,43.7C326.6,467.3,317.1,473.1,306.4,476.5L306.4,476.5z M199.1,516.6c-6.1-5.4-7.2-10.1-3.9-17.1
			c3.5-7.5,8.1-14,14.5-19.4c3.4-2.9,6.6-3.5,10.5-0.8c-5.4,8.8-10.7,17.4-16.1,26.2c-0.2-2.6-0.4-5.5-0.7-8.4
			C197,499.3,195.4,506.5,199.1,516.6L199.1,516.6z M178.1,445.6c-0.3,0.2-0.6,0.5-0.9,0.8c-2.6-3.2-5.7-6.2-7.8-9.7
			c-16-26-24.5-54.9-32.4-84.1c-0.1-0.4,0.1-0.9,0.3-2.9c11.3,35.3,28.1,65.4,58.9,86c-8.5,9.3-15.9,3.1-23.4-1.8
			c-0.3,0.4-0.6,0.7-0.9,1.1L178.1,445.6L178.1,445.6z M183.2,460.3c-7.7-0.5-21.8-19.3-24.6-33.5
			C166.4,439.2,171.3,452.3,183.2,460.3z M224.6,430.1c11.1,2.7,22,6.1,32.9,9.2c-0.1,0.4-0.2,0.9-0.3,1.3
			c-6.9,2.2-13.7,4.6-20.7,6.4c-1.7,0.4-3.9-1.1-5.8-1.7c-0.9,5.8-1.8,6.2-7.1,3.4c-4.2-2.2-8.4-4.5-12.6-6.7
			c-0.2,0.4-0.4,0.8-0.6,1.1c5.2,3.1,10.4,6.3,15.6,9.4c-2.4,2.9-5.1,3-8.5,1.9c-6.7-2.3-12.3-5.8-15.7-12.3
			c-2.4-4.6-1.4-6.5,3.7-6.8c1.8-0.1,3.6,0,5.6,0c1.1-5.7-3.9-13.3,5.1-16.4c0.1,0.2,0.3,0.3,0.3,0.4
			C215.6,428.4,215.6,428,224.6,430.1L224.6,430.1z M379.4,255c-3.8,14.3-10.7,26.8-21.3,37.3c-3,3-5,6.9-7.8,10.8
			c20.3-4,28.8-17.7,33.3-35c1.8-6.7,3.8-13.2,5.5-19.9c0.5-1.7,0.5-3.6,0.5-5.4c-0.1-11.8,3.5-22.6,9.4-32.7
			c3.2-5.5,7-7.1,13.1-5.8c-15.3,11.1-19.4,27.1-21.8,43.8c-1.7,11.8-2.8,23.6-7.9,34.7c-1.6,3.5-1.7,7.8-2.8,11.6
			c-0.5,1.6-1.3,4-2.5,4.5c-12.5,5.2-25.6,8.1-38.7,10.4c0.1-7.3,4.1-11.8,9.1-15.6c11.7-9,18.5-21.1,23-34.9
			c4.3-13.3,9-26.5,13.6-39.7c1.5-4.2,3.7-8,6.9-9.8C387.2,224.2,383.5,239.6,379.4,255L379.4,255z M395.2,212.4
			c-2.6,8.4-5.2,16.9-7.5,24.3C384.9,227.9,391.3,220.4,395.2,212.4z M426,215.7c12.7,9.1,20.2,21.4,20.9,38.4
			c-0.2,1.1-0.5,3.3-1.1,5.3c-1.4,4.2-4.5,6.3-8.5,4c-11.3-6.5-22.5-13.3-33.4-20.5c-4.4-2.9-5.3-8.1-4-13.1c0.9-3.5,2.4-7,4.3-10
			C410.9,209.7,416.2,208.6,426,215.7L426,215.7z M417.7,206.9c5.8-1.1,12.6,1.5,18.2,7.1C429.3,211.4,423.7,209.2,417.7,206.9z
			 M341.7,328.5c6.5,1,9.1-0.1,9.3,0.7c0.3,1.4-6.9,6-13.7,4.5c-3.4-0.7-6-2.8-6.2-2.5c-0.2,0.3,2.1,1.9,4.8,4.4
			c4.1,3.7,5.2,5.4,6.5,6.5c2.7,2.2,8.4,3,21.7-3.2c-1.4,4.9-7.2,4.5-10,6.4c0.4,3.3,1.9,7,0.8,8.2c-1.9,2-5.8,3.6-8.2,3.1
			c-3.5-0.8-5.3-4-5.8-6.4c-0.7-3.2,1.1-4.8,0.2-5.8c-1.9-2-10.7,3.1-16.5,3.8c-1.3,0.2-3,0.4-5.1-0.2c-1.1-0.3-1.7-0.7-1.8-0.5
			c-0.3,0.4,4.1,3.1,7.6,7c3.2,3.5,7.5,7.7,6.2,12c-1.5,5.3-8.5,10.2-13.6,9.2c-1.7-0.3-4.4-1.6-5.4-0.4c-0.3,0.3-0.5,0.8-0.4,1.2
			c0.3,0.6,1.5,0.4,2.2,0.4c1,0,1.9,0.2,5.7,2c10.8,5.1,12.3,6,12.3,6c3.1,1.8,5.6,2.7,6.9-1.7c2.8-9.8,11.5-11.1,19.3-13.6
			c0.7-0.2,1.9,0.4,2.5,1c0.3,0.3,0,1.6-0.4,2.2c-1.4,1.8-2.9,3.5-4.6,5.6c2.9,0.7,5.3,1.3,7.7,1.8c7.2,1.4,10.2,8.6,5.6,14.4
			c-2.4,3.1-5.7,5.5-8.8,8.1c-5,4.2-10.2,8.1-15,12.4c-1.8,1.6-3.4,3.7-4.4,5.9c-3,6.4-7.8,9.4-15.7,9.2
			c10.7-19.5,10.8-19.7,9.8-28.5c-2.2,3.9-3.7,6.9-5.5,9.7c-3.5,5.7-6.4,11.9-10.9,16.7c-2.9,3.1-8,4.2-12.3,6
			c-12.1,5.1-24.6,8.4-37.8,6.2c-4.6-0.8-9.1-2.7-13.6-4.1c-6.4-1.9-12.7-3.9-19.1-5.7c-4.3-1.2-8.7-2.1-13-3.1
			c0.2-1.8,0.4-3.2,0.7-5.1c2.4-0.5,4.9-1.1,7.4-1.6c0.4-0.4,0.8-0.9,1.2-1.3c-0.8-0.2-1.7-0.2-2.4-0.6c-8.4-5.5-11.1-12.8-6.8-22.2
			c2.6-5.8,6.9-10.9,10.2-16.4c0.8-1.3,1.2-3,1.1-4.4c-0.1-2.3-0.8-4.5-1.3-7c1.4-0.9,2.6-1.3,3.7-1.1c1.9,0.2,3.1,1.7,3.7,2.3
			c5.7,6.7,13,15.2,14.8,14.3c0.3-0.1,0.3-0.5,0.6-2.9c0.8-6.1,1.6-7.1,0.9-8c-1.4-1.6-5,1.7-9.2,0.1c-2.5-1-4-3.7-4.9-6.2
			c-0.4-1.1,0.3-2.9,1.1-3.9c4.9-6.6,11.3-11.4,19.1-13.9c6.8-2.2,13.9-3.7,20.7-5.8c6.8-2.2,13.4-4.8,20-7.1
			c3.3-8.1,6.7-10.4,9.4-10.8c6.2-0.9,12.7,7.5,17.1,5c1.1-0.6,0.8-1.2,2.2-2C334.7,326.8,337.3,327.8,341.7,328.5L341.7,328.5z
			 M229.3,355.3c5.5-5.5,11.2-10.8,16.8-16.1c0.4,0.2,0.8,0.5,1.2,0.7c-3.3,5.2-6.4,10.6-10,15.6c-1.2,1.7-3.8,2.5-5.9,3.5
			c-0.6,0.3-2-0.4-2.4-1C228.7,357.3,228.8,355.8,229.3,355.3L229.3,355.3z M294.8,324.9c-12.9,11.3-39.4,18.7-47.1,12.1
			c2.4-6.3,7.5-9.1,13.7-9.7C272.1,326.2,283,325.7,294.8,324.9L294.8,324.9z M268.3,320.9c6.7-4.5,12.8-8.6,19.3-12.9
			C285.9,315,278.5,319.8,268.3,320.9z M290.1,316.2c7.9-2.2,14.6-5.8,22.9-4.2C309.6,316.6,294.6,319.5,290.1,316.2z M282.9,308
			c-5.4,2.4-10,6.6-15,9.8c-3.1,1.9-6.6,3.4-10.3,4.3c12.2-13.1,26.7-23.2,42.4-33.9C296,297.5,291.4,304.2,282.9,308z M299,284.8
			c-7.8,5.7-15.4,11.7-23.2,17.3c-13,9.2-23.5,21-34.1,32.8c-5.1,5.7-10.9,10.8-16.4,16c-1,0.9-2.6,1.1-4.3,0.6c3.1-5,6.2-10,9.9-16
			c-4.4,3.5-7.8,6.2-11.3,9c-2.5-3.7-1.5-7.2,3.6-10.4c5.1-3.1,10.3-6.2,15.7-8.8c11.2-5.4,18.7-15.4,28.2-22.9
			c8.5-6.7,16.3-14.2,24.8-20.9c3.5-2.8,7.9-4.6,12.6-7.2C304.6,279.8,302.2,282.5,299,284.8L299,284.8z M261.3,304.4
			c-3.5,3.3-6.9,7-10.9,9.5c-7.4,4.7-15.1,8.8-22.9,12.8c-1.4,0.7-3.9-0.7-5.8-1.5c-0.8-0.3-1.4-1.4-1.9-2.2
			c-4.4-6.6-3.7-26.6,1.8-33.8c0.9,2.2,1.3,4.2,2.4,5.5c1.9,2.2,2.9,4.5,7.8,3.5c12.5-2.8,25.5-3.6,38.2-5.2c0.3,0.7,0.6,1.5,1,2.2
			C267.8,298.2,264.6,301.3,261.3,304.4L261.3,304.4z M186.5,399.5c-1.8-4.6-3-9.4-4.5-14.1c0.4-0.2,0.8-0.3,1.1-0.5
			c1.8,3.7,3.9,7.3,5.4,11.2c3,7.9,8.3,10,16.7,5.1C196.6,411.8,191,411,186.5,399.5L186.5,399.5z M208.2,423.3
			c0.6,0.4,1.3,0.8,1.9,1.2c-0.9,1.8-1.8,3.6-2.6,5.5c-1-0.7-1.9-1.4-2.9-2.1C205.7,426.3,206.9,424.8,208.2,423.3L208.2,423.3z
			 M190.2,376.5c-9.9-10.2-15.5-23-19.8-36.5c1,2,2.1,4,3.1,6.1c1.1,2.1,2,4.2,3.2,6.2c3.5,5.9,6.8,11.8,10.6,17.4
			c6.2,9.4,14.9,14.3,26.3,14.1C204.5,385.5,196.6,383,190.2,376.5L190.2,376.5z M208.1,460.5c0.5-5.1,1.6-6,6.7-5.1
			c1.5,0.3,2.9,0.7,4.3,1l1,1.5c-2.5,2-4.9,4-7.4,6l1,1.5c12-8.3,23.6-17.6,38.5-19.5c14.3-1.9,28.7-2.7,43-4l0.5,2
			c-1.5,0.8-2.9,1.7-4.4,2.3c-6.9,2.8-13.9,5.6-20.9,8.3c-14.9,5.8-29.8,11.5-44.6,17.2C217.3,475,207.4,468.8,208.1,460.5
			L208.1,460.5z M362.8,435.8c6.8-8.2,13.6-16.4,20.9-24.2c3.1-3.3,6.6-7,13.4-6.6c-1.9,4-2.9,7.6-5.1,10.3
			c-14.2,17.5-28.9,34.5-47.2,47.9c-3.4,2.5-7.1,4.6-9.2,6C344.1,458.6,353.4,447.1,362.8,435.8L362.8,435.8z M377.8,440.1
			c7.6-11.1,15-22.3,22.5-33.5c2.2-3.3,2.8-6-2.4-7c-1.6-0.3-3.1-1.6-4.7-2.4c11.5-0.6,13.8,3.9,12.3,12.5
			c-0.8,4.5-2.7,8.7-4.2,13.5c5-3,8.7-6.4,8-12.9c5.7,5.2,5.4,10.8-0.6,15c-7.6,5.3-15.5,10.3-23.2,15.6
			c-6.2,4.2-12.2,8.5-19.1,13.3C370.6,449.1,374.5,444.8,377.8,440.1L377.8,440.1z M382.5,457c12.4,3.9,24.6,7.8,37-0.4
			c-2.1,8.1-4.5,15.7-12.5,18.9c-3.2,1.3-8,1.7-10.9,0.2c-7-3.8-13.3-8.9-19.9-13.4c0.4-0.8,0.9-1.6,1.3-2.5
			c2.1,0.9,4.5,1.6,6.4,2.9c4.2,2.7,8,5.9,12.3,8.4c6.2,3.6,12.9,0.5,15.2-7.2C400.8,465.9,390.4,466.9,382.5,457L382.5,457z
			 M389.8,450.6c5.4-3.7,11.6-6.7,16-11.3c4.3-4.5,7-10.6,10.3-15.9C420.3,435.5,405.5,448.1,389.8,450.6z M431.1,612.3
			c0.5,0,1,0,1.6,0.1c-0.8,34.2-1.7,68.3-2.5,103.2c6.5-5.1,12.5-9.9,18.5-14.8c0.3,0.3,0.6,0.6,0.9,0.8
			c-10.1,10.1-24.8,16.7-26.1,33.5c-0.4-0.1-0.8-0.2-1.2-0.3L431.1,612.3L431.1,612.3z M361.4,190.2c3.8-2.6,7.4-5.5,11.1-8.3
			c0.4,0.4,0.9,0.9,1.3,1.3c-0.8,2.2-1.6,4.4-2.3,6.5c5.4-7.7,13.9-7.7,21.8-9.4c-9.8,2.6-17.1,7-15.6,19.3
			c7.5-15.9,19.7-18.2,34.6-13.4c-8.5,1.8-17.5,2.6-25.2,9.8c7.1-2.1,13-4.3,19.1-5.7c8.1-1.8,16.3-3.2,24.5-4.2
			c13.8-1.7,24.5,4.3,31.2,16.8c6,11.1,5.8,22.7,3.6,34.5c-0.5,0.1-1,0.1-1.5,0.2c-0.4-3.5-1.7-7.2-1-10.4c1.1-5.6-0.1-9.4-5.3-11.9
			c-1.4-0.7-2.5-2-3.4-3.5c2,0.8,3.9,1.5,5.9,2.3c1.1-8.9-6.5-20.1-15.8-21.8c-6-1.1-12.4-1.3-18.3-0.3c-11.5,1.9-22.7,5-34.1,7.5
			c-2.4,0.5-4.8,0.4-7.4,0.5c0.3,0.6,0.9,1.5,1.5,2.7c-4.4,2.4-8.7,3.8-13.8,2.3c-2.2-0.6-5.2,0.9-7-0.1c-2.5-1.3-5-3.7-6.1-6.2
			C357.9,195.9,358.2,192.5,361.4,190.2L361.4,190.2z M357.5,194.7c-1,1.6-1.8,3.3-2.9,4.8c-5.6,7.2-11.4,14.3-17,21.5
			c-0.8,1-1.2,2.2-1.4,3.6c6.8-7.8,11.7-17.2,21.8-21.8c-4.9,6.3-9.9,12.7-15.3,19.6c10-5.6,17.4-15.7,30.9-12.8
			c-8.2,10.9-16.2,21.6-24.2,32.2c0.4,0.3,0.7,0.5,1.1,0.8c5.1-5.8,10.1-11.7,15.3-17.5c4.8-5.4,9.6-10.7,14.9-16.7
			c1.3,8-6.9,28.2-16,43.2c1.8-1.4,3.6-2.8,6.4-4.9c-5.2,16.6-8.9,32.7-24.2,42.2c-3.4,2.1-6.9,4.2-9.7,7c-3.2,3.2-6.2,6.9-8.2,10.9
			c-2.8,5.6-6.3,7.4-13.4,4.5c8-7.3,13.1-15.6,15.7-25.6c-12.6,9-25,17.8-38.2,27.2c-0.2-2.1-0.4-2.8-0.2-3.2
			c10.6-24.4,20.9-49,31.9-73.2c4.4-9.6,9.8-19,15.9-27.7c4.1-5.8,10.2-10.2,15.5-15.2L357.5,194.7L357.5,194.7z M356,190.3
			c-3.8,3.5-7.8,7.2-11.8,11c-0.5-0.1-0.9-0.3-1.4-0.4v-15.7C346.8,186.7,350.9,188.3,356,190.3z M363.6,72.8
			c-4.5,6.9-9.1,9.2-11.6,10c-2.8,1-3.5,0.4-8.3,2c-3.3,1.1-5.3,2.2-7.2,1.2c-1.6-0.8-2.3-2.6-3-2.3c-0.5,0.2-0.8,1-0.6,1.7
			c0.3,0.9,1.6,1.1,3.6,1.9c1.3,0.5,1.1,0.6,3.6,1.9c3.2,1.6,6.7,2.8,9.5,4.8c1.3,1,1.5,3.5,1.2,5.9c-3.5-3.8-6.8-5.7-9.2-6.7
			c-3.8-1.7-7.4-2.1-12.2-5.3c-1.3-0.8-2.8-2-3.6-4c-0.5-1.2-1-3.8,0.1-4.9c2-2.2,8,2,13.9,3.1C345.3,83,353,81.8,363.6,72.8
			L363.6,72.8z M340.3,62.2c0.6-2.5,1.1-3.4,3-5.7c1.4-1.7,3.2-2.5,4.5-2.9c0.2,1.9-0.3,3.1-0.8,3.8c-1.2,1.8-3.6,2.4-3.4,3.3
			c0.1,0.3,0.4,0.5,0.5,0.6c1.5,0.9,4.6-1.2,6.3-3.1c0.6-0.7,1.5-1.9,2.2-3.6c-0.3,3.3-1.3,5.8-2.1,7.2c-0.6,1.1-1.5,2.3-2.7,3.8
			c-1,1.2-2.7,2.5-4.1,2.5c-4.3,0-9.2,0.6-12.7-1.2c-1.4-0.7-2.7-1.1-3.9-1.2c-2.8-0.2-3.9,1-8.1,2.1c-2.1,0.5-4.1,1-6.4,0.8
			c-3-0.3-5.3-1.7-6.6-2.8c6.9-0.6,11.7-2.2,15-3.6c2.1-0.9,4.9-2,7.8-1.2c1.4,0.4,2.7,1.3,4,2.8C334.8,66.5,339.5,65.5,340.3,62.2
			L340.3,62.2z M299,63.1c-2.9,0.5-5.7,1.3-7.7-0.4c-0.2-0.1-1.7-1.4-1.4-2.5c0.7-2.3,8.1,1,15.2-2.7c2.9-1.5,4.6-3.7,9.2-5.8
			c1-0.4,2.8-1.2,5-0.9c1.6,0.2,2.7,0.9,3.3,1.3c5,3,10.5,3.3,10.4,3.8c-0.1,0.7-9.4-2.5-14,2.1c-1.2,1.2-0.7,1.5-1.8,2.7
			C313.7,64.4,309.4,61.3,299,63.1L299,63.1z M337.9,47.7c-0.1,0.3-2.3-0.1-5.2-0.6c-2.1-0.4-3.1-0.6-3.8-0.7
			c-2.6-0.5-3-0.4-3.9-0.5c-0.9-0.1-1.9,0.9-2.8,1.6c-0.1,0.1-0.2,0.2-0.4,0.4c-0.8,0.7-0.8,1.3-1.1,1.3c-0.3,0-1-1.3-0.7-2.5
			c0.4-2.3,4-4.2,7-3.8c1,0.1,1.2,0.4,3.2,1.4C334.9,46.7,337.9,47.4,337.9,47.7z M306.3,35.1c2.7,0,3.7,1,6.7,1.7
			c3.6,0.8,4.2-0.2,7.2,0.4c1.9,0.3,4.6,1.2,7.6,3.8c-2.6-0.8-4.7-0.7-6.2-0.3c-1.6,0.4-1.9,0.8-3.5,1.1c-3.3,0.5-4.5-1.2-6.1-0.6
			c-2.7,0.9-1,5.8-4.2,10c-2.2,2.9-5.4,3.7-11.3,5.3c-2.9,0.8-8.6,2.2-10.1,0c-0.3-0.4-0.3-0.9-0.4-1.5c-0.2-3.2,2.3-6.9,5.7-8.2
			c1.4-0.5,3.3-0.4,7.1,0c4.6,0.4,6.9,1.2,8.2-0.2c0.7-0.7,0.7-1.7,0.7-2c0.1-2.1-2-3.9-3.7-5.5c-1.3-1.2-2-2.2-2.4-3.1
			C302.8,35.5,304.4,35.1,306.3,35.1L306.3,35.1z M239.7,97.4c-0.4-0.2-0.7-0.4-0.8-0.5c-2.1-1.8-0.8-6.1-0.5-7.1
			c0.4,0.8,1,1.7,2,2.1c0.7,0.3,1.1,0,2,0.1c1.5,0.2,2.1,1.2,3.1,1.8c1,0.6,2.6,1.3,5.3,0.9C249.5,95.6,242.9,98.8,239.7,97.4
			L239.7,97.4z M260.8,77.3c-3.6,3.4-5.8,8.4-5.9,9c-0.4,1.4-1.1,3.1-2.2,4c-1.4,1.1-3,2.1-4.7,1.8c-1-0.2-1.6-0.7-2.4-1.4
			c-4.7-3.8-6.2-3.4-6.9-5.2c-1-2.7,1.3-6.4,2.4-6.3c0.9,0.1,1.5,2.4,2.3,5.1c0.6,1.9,0.6,2.7,1.4,3.4c0.9,0.7,2.1,1,3.5,0.9
			c1.2-0.1,2.1-0.6,2.6-1.2c0.9-1.1,0.7-2.9,0.3-4c-1.1-2.7-4.4-2.9-4.4-4.2c0.1-1.2,3.1-1,4.7-2.8c3.3-3.8-1.9-13.4-1-13.8
			c0.6-0.3,2.9,4.5,4.2,4.1c0.6-0.2,0.8-1.3,0.6-2.2c-0.3-1.5-1.7-1.8-2.5-3.2c-1.2-2.2,0.4-5.2,0.7-5.9c2.1-3.9,6.6-4.8,7.2-4.9
			c0,0.7-0.1,1.7-0.2,2.8c-0.2,3.9-0.3,5.8-0.1,5.9c0.4,0.1,1.7-4.1,2.5-9c1.3-8.4-0.3-11.3,2-14.6c1.1-1.5,3.2-3.4,8-4.2
			c-2,1.8-6.2,6.1-5.9,11.4c0.2,2.9,1.6,5.6,2.1,5.5c0.5-0.1-0.8-3.1,0.7-6.2c0.8-1.6,1.9-3.4,5.4-5.4c1.2-0.7,2.2-1.4,2.9-2.3
			c1.6,0.4,3.1,0.8,4.3,1c5.6,1.3,6.5,1.5,7.6,1c1.5-0.6,2.6-2.4,4.7-5.9c2.5-4.2,6.7-6.5,11.9-6.3c-0.8,0.6-1.4,1.1-2.1,1.5
			c-5.3,3.3-9.8,7-9,14.3c0.1,0.9-1.1,2.6-2.1,2.9c-5.6,1.7-10.4,4.2-11,11.7c-0.1-0.5-1.2-3.5-4.3-4.7c-3.5-1.3-7,0.8-8.6,2.8
			c-0.6,0.8-1.1,1.5-1,2.2c0.6,2.4,7.7,2,7.9,3.8c0.1,0.6-0.7,1.2-1.5,1.8c-2.1,1.5-3.5,0.8-5.4,2c-1.9,1.2-1.2,2.4-2.9,3.4
			c-2.7,1.7-5.7-0.6-6.8,0.7c-1,1.2,0.2,4.6,2.4,5.7c1.9,1,4,0,4.2,0.5C266.9,73.6,263.7,74.6,260.8,77.3L260.8,77.3z M274.6,169.6
			c-0.8,0.2-2.9-2.4-3.6-4c-0.8-1.8-0.7-3.9-0.9-5.9c-9-0.2-3-7.1-4.5-11.4c-0.5,0.3-1.2,0.8-1.9,1.6c-1.2,1.5-1.6,3.1-1.7,3.9
			c-2.5-6-2.1-9.9-1.2-12.5c0.5-1.3,1-2,2.1-4.6c1.6-3.6,2.6-6.7,3.2-8.7c0.1,0.1,1.1,1.1,2.4,0.9c1.3-0.2,1.9-1.3,2-1.5
			c0.9-1.6,0.1-3.5-0.7-5.4c-1.8-4.4-3.1-7.1-3.5-8c-1.1-2.6-1.7-6.7,0.9-13.1c3.8,3.7,6.6,7.8,11.9,4.6c0.2-0.1,1.3,1.4,2.4,2.7
			c0.5-4,1-7.5,1.2-11c0.2-5.7-2.2-7.7-7.7-6.4c-1.9,0.4-3.9,1.1-5.7,1.8c-1.7,0.6-3.3,1.4-5,2.1c-2.7-9.9,9.1-26.1,20-27.8
			c-1.3,1.1-1.8,2.5-1.5,3.7c0.1,0.2,0.4,1.2,1,1.3c0.9,0.1,1.2-1.9,2.8-3.2c0.9-0.7,2.2-1.3,4.3-1.2c3.9,1,10.7,3.4,17.4,9.1
			c5.1,4.4,8.1,9.1,9.9,12.3c-2.4-0.8-4.4-1-5.8-1.1c-2.2-0.1-3.2,0.1-7.8,0.2c-2.8,0.1-4.5,0.1-4.5-0.1c0-0.3,3-1.4,6.4-1.4
			c1.6,0,3.1,0.3,5.9,0c0.5-0.1,1-0.1,1.2-0.1c-6.6-2.1-11.9-1.6-14.7-1.1c-3,0.5-5.5,1-7.5,3.2c-2,2.2-2.7,5.1-3.1,8.4
			c-0.2,1.7-0.5,3.3-0.5,5c-0.2,8.7-0.2,9.9,0.5,10.8c1.5,1.9,3.5,1.5,3.6,2.5c0.2,2.1-8.5,5-9.7,3.3c-0.1-0.1-0.2-0.4-0.4-1.1
			c-0.5-1.6-0.5-2-0.8-2.1c-0.5-0.2-1.7,0.6-1.7,1.5c-0.1,0.8,0.6,1.4,0.9,1.6c1,1,2.6,2.9,5.1,7.2c-8.8,5.4-10.5,9.1-10.4,11.6
			c0.1,1.4,0.8,3.8,0.5,7.8c-0.1,1.8-0.4,2.8,0,2.9c1,0.4,3.6-9.1,11.7-13.8c1.5-0.9,4.9-2.9,7.6-1.6c2.1,1,1.8,3.1,4.1,6.1
			c3.8,5,10.2,6.8,10.5,6.2c0.1-0.2-0.8-0.7-1.5-2.1c-1.1-2.1-0.6-4-0.6-5.3c0.1-5.3-7.1-10.5-12.9-12.3c-1.8-0.6-3.4-0.7-4.4-0.8
			c2.7-6.3,5.9-6.5,13.3-1.8c-1.6-1.9-4-4.4-6.2-7c-2-2.4-2.8-4.4-2.5-6.2c0.4-1.9,2.9-1.9,4.9-4.7c0.8-1.2,1.3-2.3,1.5-3
			c0.9,0.4,2.2,0.9,3.8,1.2c0.6,0.1,3.9,0.6,7.8-0.9c2.9-1.1,3.2-1.9,5.4-2.2c1.4-0.2,3.5,0.5,4.2,1.6c0.6,0.9,0.2,3.1-0.4,4.3
			c-1.8,3.4-3.8,6.7-5.9,9.9c-2.2,3.4-3.1,5.2-2.5,6.7c1,2.5,4.9,2.4,5.1,4.6c0.2,1.7-1.9,3.1-1.3,4.2c0.2,0.4,0.7,0.6,1,0.6
			c2.8,0.2,6.9-10.1,8.8-16.4c0.3-0.8,1.1-3.8,2-3.7c0.9,0.1,0.8,4,2.3,4.4c1.1,0.3,1.9-1.6,2.9-1.5c1.2,0.1,2.5,3.2,3.4,13.9
			c0.1,1.6,0.1,4-0.8,6.6c-0.3,1.1-0.8,2-1.2,2.8c-0.4,0-2.1-0.1-3.5,1.1c-1.4,1.3-1.9,3.6-1,5.6c-0.1,0.4-0.2,0.9-0.7,1.1
			c-1,0.7-2.5-0.2-4.5-0.9c-1.1-0.4-2.8-0.9-5.1-1c0.5,0.8,1.1,2,1.3,3.6c0.1,1.3-0.2,1.7-0.2,3.4c-0.1,2.8,0.6,3.4,0.3,4.7
			c-0.3,1.1-1.2,2.5-4.3,3.8c1.7-1.7,2-3,1.9-3.9c-0.1-1.1-0.8-1.6-0.7-3c0-1.5,0.8-1.9,0.6-2.6c-0.5-1.8-5.2-2.8-6-1.6
			c-0.8,1.2,2.7,3.6,1.8,5.7c-0.7,1.6-3.3,1.4-3.8,3.2c-0.2,0.8,0.2,1.2,0.5,2.3c0.6,2.2-0.1,4.2-1,6.9c-1.1,3.2-3.2,6.8-3.9,6.5
			c-0.3-0.1-0.2-0.7-0.5-2.6c-0.3-1.6-0.8-3.7-1.1-3.7c-0.2,0-0.2,0.8-0.9,1.9c-0.3,0.4-0.7,1-1.2,1c-0.5,0.1-0.9-0.2-1.2-0.5
			c-1.1-1.3,1.3-4.6,0.6-5.1c-0.6-0.5-3.1,1.7-4.9,3.7c-0.9,1-1.3,1.5-1.5,2.2c-1,3.3,4.3,7.4,4.7,7.8c-0.6,0.2-1.7,0.5-2.9,0
			c-0.7-0.3-1.6-0.7-2.5-2.6c-0.6-1.5-0.9-3.2-1.9-4.5c-2.9-4.1-3.5-4.6-3.5-7.2c0-3.2,2.9-5.2,2.2-6.1c-0.5-0.6-2.1-0.5-3.1,0.4
			c-2.6,2.4,1.9,8.9-0.9,12c-1.4,1.5-3.6,1.1-4.1,2.6c-0.3,1.2,0.6,2.6,1.5,3.2c1.4,1,3.5,1,5.2-0.1c-2.5,2.9-4,3-7.2,0
			C281.7,172.4,279.9,168.2,274.6,169.6L274.6,169.6z M28.3,196.1c4.5-4.9,9.4-3.8,14.3-0.7c0.4-0.4,0.8-0.7,0.8-0.9
			c0-1.4-0.1-1.3-1.8-3.2c-0.8-1-1.4-2.3-1.7-3.6c-1.6-6.5-2.9-13.1-9.2-16.8c0.4-0.8,0.5-1.3,0.6-1.3c6-0.9,6.2-4.9,5.6-9.8
			c-0.6-4.9-0.7-9.9-1-15.1H25.5c5.1-7.4,9.6-13.8,14.3-20.7c-7,1.2-14,2.5-21.6,3.8C28,116,37.4,104.6,46.8,93.2
			c-0.4-0.4-0.7-0.7-1.1-1.1c-2.1,1.7-4.4,3.2-6.3,5.2c-3.2,3.3-6.2,3.3-9.4,0.1c-1.6-1.6-3.5-3.1-5.4-4.8
			C33,85.7,41.2,79,50.5,71.4c-4.8-1.7-8.1-2.9-12.1-4.3c18.6-17.3,37.2-34.7,55.8-52c-1,20.8-2,41.7-2.9,62.5c-3.4-1.4-6-2.4-9-3.7
			c0.2,0.7,0.2,1,0.4,1.1c4.5,3.5,5.1,7.6,1.7,12.3C79,95.1,73.7,102.7,67.8,111c6.3,1.7,12.1,3.2,19.2,5.1c-4,1.8-6.8,3-9.6,4.2
			c0.1,0.3,0.2,0.6,0.3,0.9c4.2-1,8.4-1.9,12.2-2.8c-9.6,8.4-19.5,17-29.4,25.7c-5.1,4.5-5,4.6,0.2,8.8c0.4,0.3,0.6,0.8,0.7,0.9
			c-1.9,3.1-4.5,5.8-5.1,8.9c-0.5,2.9,1.2,6.3,2.3,10.6c-3.2,1.3-6.4,2.5-9.6,3.8c2,20.4-0.2,25.4-2.5,26.2c-2.2,0.7-4.5-2.5-10-3
			c-4.2-0.4-7.8,1.1-10,2.2C24.8,200.2,26.5,198.1,28.3,196.1L28.3,196.1z M32.2,234.7c-5.2,3.5-6,6.1-8,5.6c-1.7-0.4-3-2.7-2.6-4.2
			c0.3-1.1,1.5-1.7,2.7-2.2c8.8-4.2,11-6.1,12.7-4.8c0.2,0.1,0.7,0.5,0.8,1.1C38,231.6,35.3,232.6,32.2,234.7L32.2,234.7z
			 M45.1,310.5c-0.7,17.8-2.2,35.5-3.4,53.3c-0.6,0-1.2-0.1-1.8-0.1c-0.7-39.9-1.4-79.8-2.1-119.8c-0.1-3.5-0.1-7,5.1-6.2
			c2.8,0.4,4.1,1.8,4,5C46.2,265.2,46,287.9,45.1,310.5L45.1,310.5z M54.8,223.1c-0.2,1-2.1,1.7-3.6,1.8c-0.8,0-1.3-0.1-1.5-0.2
			c-10.6-5.2-18.6,0.1-26.5,6.2c-0.5,0.4-1.1,0.6-2.1,1.2c-2-4.2-1.5-7.2,2.1-9.4c0.8-0.5,1.7-1.1,2.5-1.6c6.3-4,9.7-6,13.2-6.1
			c5.4-0.1,9.3,2.4,13.6,5.4C53.8,221.1,55,222.1,54.8,223.1L54.8,223.1z M56.3,213.3c-0.3,1.2-3.3,1.3-3.8,1.3
			c-4.7,0.2-9.6-2.4-12.8-3.9c-1.4-0.7-2.4-0.9-3.4-0.8c-1.4,0.2-2.3,1-3.4,1.9c-3.3,2.8-2,1.1-6.3,4.8c-3.2,2.7-4.3,3.9-5.7,3.6
			c-0.7-0.2-1.4-0.7-1.7-1.3c-0.2-0.4-0.2-1,0.8-3.4c0.5-1.2,0.6-2.1,1.3-2.8c3.7-3.5,7.7-6.7,12-9.5c1.3-0.9,4-0.6,5.7,0
			c5.1,1.9,10.1,4.1,15,6.5c0.1,0,0.4,0.3,0.7,0.6C55,210.5,56.6,212.2,56.3,213.3L56.3,213.3z M66.3,231.8c-0.4,1-1.3,2.7-2,2.6
			c-0.6-0.1-0.8-1.5-1-2.3c-0.1-0.8-0.1-1.4-0.1-1.4c-0.2-7.9-0.5-15.8-0.4-23.8c0-2.4,1.2-3.8,1.5-7.1c0.2-2.3-0.1-3.1-0.6-3.6
			c-0.8-0.9-2-0.8-3.9-0.9c-1.6-0.1-3.9-0.3-6.7-0.8c0.3-2.6-0.1-5.6,1.2-7.5c3.1,3,6.5,2.2,9.8,4.3c2.3,1.4,4.6,3.2,4.5,6.4
			c-0.2,11.1-1.1,22.3-1.9,33.4C66.6,231,66.5,231.4,66.3,231.8z M76.9,270.9c-2.3-4.8-5.3-9.2-7.9-13.8c-0.2-0.4-0.8-0.8-0.8-1.2
			c-0.5-6.1-0.9-12.2-1.4-19.6c2.6,2.6,4.8,4.1,6.2,6.2c4.8,7.6,12.1,11,20.6,12.8c6.5,1.4,13.1,2.7,19.3,5c5.3,2,8.7,4.1,10.7,7.2
			c2.1,3.2-0.2,6.9,2.2,13.3c0.1,0.4,1.2,3,1.8,2.9c0.8-0.2-0.7-5.8,0.5-12.8c0.2-1.1-0.1-4.8,2-7c8.2-8.8,17.9-15.6,30-17.8
			c6.9-1.3,11.1-5.2,14.4-11c3.8-6.6,7.9-13.2,12.8-19c10.2-12.1,23.5-17.6,39.4-16.7c5.6,0.3,11.3,0.1,16.8,0.9
			c2.6,0.4,5.2,2.2,7.3,3.9c6.4,5,13.6,7.6,21.5,8.7c1.7,0.2,3.4,0,5.2-0.6c-10.1-2.4-20.7-3.4-27.9-13.1c10.8-4,21.2-7.9,32-11.9
			c0.1,0.6,0.4,2.3,0.8,4.1c0.2-1.1,0.4-2.1,0.8-4.4c3.1,4.3,5.6,7.8,8.1,11.2c0.9,1.2,1.4,2.6,2.2,3.9c5.5,9.1,11.6,9.3,17.5,0.6
			c0.9-1.3,1.9-2.5,2.9-3.8c0.5,0.3,1.1,0.6,1.7,0.9c-3.4,7.1-6.8,14.3-10.3,21.6c12.1-6.3,24.2-12.6,37-19.2
			c-5.3,11-13.9,15.7-24.3,18.2c4-0.7,8-1.4,12.8-2.2c-3.1,5.9-6,11-8.4,16.3c-4.5,10-8.7,20.2-12.8,30.4c-1.8,4.6-4.5,7.6-9,10
			c-6.6,3.5-12.6,8.1-18.8,12.2c-1.4,0.9-2.9,1.8-4.8,2.3c10.2-8.4,13.5-19.5,13.7-30.1c-3.1,6-6.9,13.5-10.9,20.8
			c-0.8,1.6-2.1,3.4-3.6,4c-11.5,5.1-23.2,9.5-36.1,7.8c-7.9-1.1-13.6-4.6-16.6-12.9c-3.5-9.5-8.4-18.5-12.6-27.7
			c-1.1-2.5-3.8-6.3-2.4-9.3c0.9-1.9,3.3-3.2,2.9-4.4c0-0.1-0.2-0.6-1.2-0.8c-3.3-0.9-7.1,2.6-12.5,4.8c-5.7,2.4-9.6,1.8-9.7,2.9
			c-0.1,1.3,5.4,1.4,11.1,5c3.9,2.5,6.3,5.6,7.8,8c-1.1,0.9-1.8,1.8-2.8,2.2c-13,6-25.5,12.9-40.1,14.9c-5,0.7-13.4,1.6-23.3,5.6
			c-2.6,1-6.8,2.9-6.7,5.1c0.1,1.6,2.3,2.8,5.7,4.8c4.7,2.7,6.4,2.6,6.5,3.6c0.2,2.2-8.7,6.4-18.1,5.7c-1.9-0.1-3.4-0.1-6.2-1.1
			c-7.1-2.4-13.9-5.5-21.2-7.4C89.4,287.4,81.8,281,76.9,270.9L76.9,270.9z M112.3,497.1c-10.4-11-21.3-21.4-19.6-38.6
			c1.6-15.9,2.9-31.8,3.5-47.8c0.4-11.1-1.1-22.3-0.6-33.4c0.6-12.8,2.6-25.5,4-38.2c0.2-1.6,0.9-3.1,1.4-4.6c0.6,0,1.2,0.1,1.8,0.1
			c-0.2,15.1-1.4,30.3,2.3,46.3c0.6-6.4,1.1-11.7,1.5-16.9c0.2,0,0.5,0,0.8-0.1c4.5,21.9,8.9,43.8,13.4,65.6
			c-0.6,0.2-1.3,0.5-1.9,0.8c-9.3-6-11.3-16.4-14.5-26.1c-1.1,8.9,3.2,18.2,14,29.7c-4.4,4.2-8.6,8.6-13.3,12.5
			c-12.2,9.9-13.6,20.3-3.9,32.8c3.3,4.2,6.7,8.2,9.9,12.5C112.1,493.1,112.4,495.1,112.3,497.1L112.3,497.1z M136.2,578.2
			c-1.7-2.2-2.7-5-4.2-7.3c-3.1-4.9-6.5-9.5-9.4-14.5c-2.4-4.1-5.3-8.4-5.9-12.8c-1.5-11.3-1.8-22.7-1.4-34.3
			c3.4,5.2,6.8,10.3,10.2,15.5c0.7-0.5,1.4-0.9,2.1-1.4c-1.6-2.6-2.7-5.8-4.8-7.8c-7.2-6.4-8.1-14.4-7.3-23.1
			c1.4-15.7,2.7-31.5,4.1-47.2c0.2-2.4,1.2-4.7,1.8-7c0.5,0,1,0.1,1.6,0.1c1.5,14.2,3.3,28.3,4.5,42.5c1,11.3,1.3,22.6,2.1,33.9
			c0.6,7.5-1.4,14-5.8,20.1c-6,8.1-5.4,10.6,1.3,18.2c4,4.6,7.2,9.8,10.7,14.8c2,2.8,4,5.5,6.2,8.5c-2.2-13-4.2-25.3-6.3-38.1
			c1.4,0.2,1.7,0.2,1.7,0.3c3.9,13.4,7.8,26.7,11.6,40.1C144.2,583.9,140.4,583.8,136.2,578.2L136.2,578.2z M174.4,603.2
			c-8.7-6.7-17.4-13.3-26.4-20.2c0.3-1.2,0.6-2.8,1-4.3c8.7,7.8,17.4,15.6,26.1,23.4L174.4,603.2L174.4,603.2z M165.1,570.9
			c0.4-0.2,0.7-0.4,1.1-0.5c2.8,4.9,5.5,9.8,8.3,14.7c-0.5,0.3-1.1,0.6-1.6,0.8C170.3,580.9,167.7,575.9,165.1,570.9L165.1,570.9z
			 M181.9,511c-3.4-0.3-7.4,0.5-10.1-1c-9.1-5-18.1-10.5-26.6-16.5c-2.2-1.5-3.7-5.3-4.1-8.2c-5-33.1-9.2-66.3-10.2-99.8
			c0-0.6,0.1-1.2,1.4-2c1.5,5.5,3,10.9,4.4,16.4c5,19.1,9.9,38.3,15,57.5c0.9,3.4,2.5,6.5,3.7,9.8c4.4,11.5,9.2,22.7,22.7,26.9
			c-0.4,0.6-0.7,1.2-1.1,1.9c-2.6-0.5-5.1-1.1-7.7-1.6c2.1,7.6,5.5,11.7,12.7,15.2C182,510.1,182,510.6,181.9,511L181.9,511z
			 M160.2,460.9c9,11.8,17.1,22.6,29.8,28.6C178.9,490.2,164.3,476.4,160.2,460.9z M206.4,587.2c1.4-7.6,7.6-12.7,13.6-17.3
			c1-0.8,2.9-0.9,4.2-0.6c8.5,2.5,17,4.8,25.2,7.8c14.2,5.3,22.9,16.1,24.5,30.7c0.9,8.4-2.1,17.3-3.5,25.9
			c-1.1,6.7-3.9,12.7-8.8,17.6c-6.2,6.2-8.9,6.8-16.7,3.3c0.2,4.1,1,7.9,0.5,11.6c-1.1,8.8-10.4,14.5-18.6,11.2
			c-2.3-0.9-4.8-4-5.2-6.4c-1.3-7.5-2.3-15.1,0.8-22.6c0.9-2.1,0.9-4.5,1.3-7.3c-1.9,1.5-3.3,3.5-4.5,3.4c-1.4-0.2-2.9-2-4-3.4
			C203.3,624.8,202.9,606.2,206.4,587.2L206.4,587.2z M262.9,767.1c0.5,19,1.1,38,2.1,57c0.4,7.1,1.7,14.2,2.9,21.2
			c0.1,0.6,1.5,2.6,2.9,5.7c1.4,3.1,2.2,5.5,2.7,7.1c3.5,11.2,5.3,16.8,3.8,21c-1,2.9-2.7,4.6-4.2,6.2c-5.2,5.4-11.2,6.6-14.6,11.2
			c-0.4,0.5-1.4,1.9-1.7,3.8c-0.3,1.8,0.2,3.2,0.4,4c1.3,4.8-0.1,12.2-4.1,15.1c-0.3,0.2-1.2,0.6-3,1.3c-4.3,1.7-6.5,2.5-9,2.3
			c-1.1-0.1-4.1-0.4-4.9-2.3c-1-2.4,2.3-6.1,3.3-7.3c1.6-1.8,2.9-2.5,2.7-2.8c-0.2-0.4-3.1,0.1-5.1,1.9c-1.3,1.1-2,2.6-3.5,5.5
			c-1.1,2.2-1.4,3.1-2.3,3.4c-1.2,0.3-1.7-0.8-3.6-0.6c-1.3,0.1-1.4,0.7-2.9,0.9c-0.4,0-1.5,0.1-2.6-0.3c-0.9-0.3-0.9-0.6-1.8-0.9
			c-1.2-0.4-1.5,0-2.6-0.3c-1.1-0.3-2.5-1.3-2.9-2.5c-0.2-0.5-0.1-0.8-0.4-1.6c-0.3-0.8-0.6-1.3-0.8-1.5c-0.9-1.3-1.1-3.6-0.8-5.1
			c0.4-2.2,1.7-3.6,3.6-5.1c2.8-2.1,5.9-3.9,8.2-6.5c4.1-4.5,7.9-9.3,11.4-14.3c2.9-4.2,5.5-8.6,7.9-13.2c1.3-2.5,1.6-5.2,2.1-7
			c0,0,1.4-5.8,1.9-11.1c1-10.3-7.4-23.5-8-24.3c-8.5-13.3-11.4-27.7-19.6-47.1c-9-21.3-12.6-43.5-7.3-66
			c5.5-23.1,3.7-27.3,1.8-38.2c-0.4-2.2-1.9-10.1,1.1-11.8c0.6-0.4,1.6-0.5,2.4-0.2c1.7,0.8,1.6,3.4,2.3,7.5c0,0,0.4,3.9,2,8.1
			c1.2,3.3,2.9,6.5,5.2,9.6c4.5,6.3,7.2,14,10.4,21.2c0.8,1.7,0.8,4,0.3,5.8c-1.7,6.3-0.8,12.4,0.5,18.7
			c5.5,27.3,10.6,54.6,15.9,81.9c0.6,3,1.6,5.9,2.4,8.9c0.6,0,1.2,0,1.9,0c0.3-2.4,0.9-4.8,0.8-7.2c-0.5-14.2-1.6-28.3-1.5-42.5
			c0.2-16.6,1.1-33.3,2.6-49.8c0.5-5.7,3.5-11.2,5.5-17.2c12,10,17.9,41.6,6.5,54.3c-2.9-3.8-5.8-7.5-9.4-12.2
			C263.3,757.6,262.7,762.4,262.9,767.1L262.9,767.1z M285.9,604.3c-6.1-15.6-18.7-24.2-32.8-31.3c-4.6-2.3-9.4-4.2-14-6.6
			c-9.1-4.9-16.8-11.4-21.2-21.1c-0.3-0.7-0.9-1.3-2.3-3c0.5,8.5,6.7,12.3,9.4,16.6c-7.6,4.4-15.2,8.1-22,12.9
			c-9.5,6.7-11.6,18-4.5,26.1c0.6,0.7,0.8,1.7,1.3,2.8c-5-2.2-8.5-9.2-7.8-15.3c0.2-1.8,0.6-3.6,1.3-5.3c4.4-11.5,9-22.9,13.4-34.4
			c3.9-10.3,10.1-19.1,16.8-27.6c1.9-2.4,3.6-4.9,5.2-7.6c-15.5,11.8-28.2,29-31.6,42.3c-3.9-2.9-5.5-7-3.6-10.9
			c3.4-7.2,7-14.3,11.8-20.6c6.3-8.3,13.8-15.7,20.8-23.6c0.9-1,1.8-2.2,2.2-3.7c-3.6,3.4-7.1,6.8-10.8,10.1
			c-3.6,3.3-7.4,6.4-11.2,9.6c-0.5-0.4-1-0.8-1.5-1.2c2.4-4.2,4.4-8.8,7.5-12.4c4.5-5.4,9.8-10,14.6-15c2.5-2.6,5-2.5,7.4-0.2
			c4.2,3.8,8.2,7.8,12.7,11.4c-3.7-6-7.4-12-11.1-17.9c0.3-0.3,0.5-0.7,0.8-1c1.4,0.8,2.9,1.6,4.3,2.4c4.6,2.9,9.3,5.6,13.6,8.8
			c2.9,2.2,5.8,4.8,7.9,7.8c20,28.7,30,61,34.1,95.4c0.8,6.3,1.7,12.5,3,18.8c1,4.8,2.5,9.6,3.9,14.4
			C296,619.8,289.4,613.2,285.9,604.3L285.9,604.3z M340.5,622.4c-1.8,11.3-2.3,22.9-2.9,34.3c-0.2,4.7-1.8,6.2-6,4.6
			c-2.9-1.1-5.9-2.3-8.3-4.2c-5-4-9.7-8.5-15.4-13.6c4.9,2.5,8.7,4.4,13,6.6c0.6-7.3,1.2-13.7,1.8-20c0.5-0.1,1-0.2,1.5-0.4l5.5,7.7
			c0.4-0.1,0.7-0.2,1-0.4c-0.7-2-1.3-4-2.1-5.9c-6.2-13.5-12.7-26.8-18.5-40.4c-8.7-20.3-16.4-41.2-25.6-61.3
			c-7.2-15.8-16-30.9-24.4-46.8c2.7,1.9,5.3,3.7,8.1,5.7v-4.3c3.2,3.6,6.3,5.9,7.9,8.9c5.7,10.9,11.7,21.8,16.2,33.2
			c5.3,13.3,12.7,25.2,21,36.8c1.4,2,4.6,3.5,7,3.6c1.1,0.1,3.1-3.6,3.5-5.9c4-20.8,7.8-41.6,11.7-62.3c0.4-2.2,1.3-4.3,2-6.4
			c0.5,0.1,1,0.2,1.5,0.3c0.2,1.2,0.6,2.5,0.5,3.7c-2.5,23.8-5,47.7-7.8,71.4c-0.4,3.3-2,6.8-3.7,9.7c-3.5,5.8-9.5,6.2-13.2,0.4
			c-4.5-7-8.2-14.5-12.1-21.8c-2.2-4.1-4.1-8.3-6.7-12.1c6,25.1,16.9,48,30.2,69.9c0.7,0,1.3,0.1,2,0.1c1.8-3,4.4-5.9,5.2-9.1
			c2.8-11,5.9-22,7-33.1c2.4-23.5,3.5-47.2,5.2-70.8c0.2-2.2,0-4.5,1.2-6.9c0.3,2.9,0.7,5.8,0.9,8.7
			C349.8,542.6,346.7,582.6,340.5,622.4L340.5,622.4z M366.6,728c-2.6-6.6-0.5-12.5,6.2-18C370.5,716.6,368.7,721.9,366.6,728z
			 M362.2,694.5c2.9-3.6,5.5-6.8,8.5-10.5C372.7,692.2,369.4,696.4,362.2,694.5z M347.7,655.5c5.5-50.7,2.2-101.8,4.1-152.7l2.2-0.2
			c0.5,1.9,1.4,3.7,1.5,5.6c1.1,16.9,1.7,33.9,3.2,50.9c1.3,13.9,3.6,27.7,5.6,41.5c0.2,1.8,1.1,3.4,1.7,5.1c0,0,0,0,0,0
			c-0.4,1.8-1.5,3.8-1.1,5.4c2.5,12.7,5.3,25.4,8.1,38c0.1,0.5,0.9,1,1.3,1.5C370.7,656.4,357.7,658.9,347.7,655.5L347.7,655.5z
			 M375.7,579.4c0.1,4.2-2.4,5.1-5.4,5.7c-3.6,0.8-3.7-2.1-4-4.3c-3.2-22.8-5.9-45.5-5.1-68.6c0-1,0.3-1.9,0.4-2.9
			c7,11.4,6.7,24.2,8.4,36.7c1.4-6.9,2.8-13.8,4.1-20.7l1.3-0.1c0.4,1.8,1.2,3.5,1.2,5.3c-0.1,9-0.4,17.9-0.6,26.9
			C375.9,564.7,375.5,572.1,375.7,579.4L375.7,579.4z M382.7,608.2c-0.2,0.8-0.5,1.6-1,2.3c-2.2,3.7-4.3,8-9.5,7.6
			c-3.2-0.2-6.5-7.3-6.2-12.3c1.6,2.6,3.3,5.2,5.9,9.2c2.4-4.1,4.4-6.8,5.6-9.9c4.6-12.4,7.2-25.2,8.1-38.5c0.2-2.6,0.6-5.2,1.3-7.7
			C388.1,575.6,387.4,592,382.7,608.2L382.7,608.2z M396.2,626.6c-0.2,6.8-0.7,13.6-1.1,20.4c-0.2,3.6-2,5.1-6.3,3.6
			c2.8-25.7,5.6-51.5,8.4-77.3c0.3,0,0.6,0,0.8,0C397.4,591,396.8,608.8,396.2,626.6L396.2,626.6z M389.4,529.4
			c-11.3-12.6-21.8-26-32.4-39.2c-3-3.7-3.4-7.2,0.7-11.4c3.1-3.1,4.6-2.1,6.8-0.1c1.8,1.7,3.7,3.4,5,5.5
			c7.2,11.5,14.3,23.1,21.5,34.6c-0.3,0.3-0.7,0.6-1,1c-1.5-0.9-3.1-1.9-4.7-2.8c2,7.6,5.3,10.4,28.8,26.4c-2.6-0.5-5.7-0.4-7.8-1.8
			C400.4,537.9,393.9,534.5,389.4,529.4L389.4,529.4z M455,756.2c-0.5,12.3-0.4,14-1.3,17.9c-1.1,5-2.8,11.8-8.3,17.5
			c-3,3.1-5.8,4.6-10.2,6.9c-12.9,6.7-26,8.7-26.1,8c-0.1-0.3,1.6-1.1,9.6-3.9c4.4-2.1,8.1-4,10.9-5.4c11.7-6,14.4-8.6,17.5-11.2
			c7.4-6.2,6.8-15.5-0.4-22.1c-4.8-4.3-9.8-8.6-14.5-12.9c-0.6-0.6-0.6-0.6-1.3-1.3c-2.6-2.5-3.9-3.2-3.8-4.1c0.1-0.5,0.6-1,1.1-1.2
			c2.3-0.8,5,4.4,11,9.5c3.4,2.8,7.5,6.4,10.1,5.2c3.4-1.6,2.2-11,2.1-11.7c-0.4-3.3-1.2-3.7-1.1-6.2c0.1-4.9,3.4-9.8,4.9-9.4
			C456.2,732.3,455.7,736,455,756.2L455,756.2z M498.4,615.6c-1.1,0.3-2.2,0.6-3.4,0.9c-8.9,2.1-9.2,2.1-9,11.6
			c0.3,9.6,1.3,19.3,2,28.9c0.2,2.7,0.4,5.3,0.8,8c2,13.9-4.4,23.1-16.4,28.9c-4.6,2.2-7.8,5.4-9.7,10.2c-0.7,1.8-1.9,3.3-2.8,5
			c1.5-8.1,2.6-15.8,11.9-19.5c11.4-4.5,15.6-13.4,14.2-26c-1.2-10.4-4.5-18.2-13.5-24.1c-6-4-11.1-9.4-16.4-14.5
			c-3.5-3.4-5-7.8-4.5-12.7c1.8-16.5,3.6-33.1,5.3-49.7c4.6-44.4,9.1-88.8,13.7-133.2c0.4-3.5,0.9-7.1,2-10.6
			c4.3,12.5,4.6,20.7,3.9,26c-0.1,0.9-1.1,8.3-0.1,17c0.2,2.1,0.6,4.5,0.8,4.5c0.3,0,0.3-5.7,0.3-6.5c0-4.4-0.2-6.6,1-7.3
			c0.4-0.2,0.9-0.2,1.3-0.1c2.5,0.9,1.5,9.3,1.3,12.1c-0.9,10,1.8,13.8,3.9,28.2c1.3,9.1,2.5,22.5,1.4,40.7c0.7,0,1.4,0.1,2.1,0.1
			c0.7-3.1,1.6-6.1,1.9-9.2c0.8-7.8,1.3-13.3,1.3-19.9c0-5.4,0.1-13.8,0.4-24.9c0.4,6,0.9,15.1,0.8,26.2c0,8.2-0.1,8.2-0.4,13.8
			c-0.8,18.8,1.8,37.2,4.6,55.7c1.2,8,0.8,9.3-6.5,12.9c-6.1,3-12.3,5.7-19,8.7c5-70.1,4.9-90.3,3.1-91c-1.2-0.5-1.8-0.1-1.8-0.1
			c-0.9,0.6-0.4,2.8-0.2,4.3c0.3,2.1-0.1,2.1-0.8,8.8c0,0-0.2,2.2-0.9,11.7c-0.1,1.9-3.2,45-4,60.8c-0.3,5.9-2.5,9.8-6.8,13.6
			c-2.5,2.2-4.2,5.7-5.3,9c-0.5,1.5,1.4,3.8,2.2,5.7c1.6-0.7,3.3-1.5,5.4-2.4c6.3,3.9,12.6,8.2,12.4,17.9c0,2.7,4.2,5.4,6.5,8.2
			c0.5-0.2,0.9-0.3,1.4-0.5c0-6.4,0-12.8,0-19.2c0.1-8.8,0.1-8.7,8.5-10.4c1.8-0.4,3.6-0.8,5.3-1.4c5.8-2,7.6-4.6,7.6-10.8
			c0.1-12.3,0.2-24.7,0.3-37c0-1.8,0.2-3.6,1-5.5c0.2,1.2,0.4,2.3,0.5,3.5c0.6,13.7,1.4,27.3,1.8,40.9
			C507.9,610.5,505.7,613.2,498.4,615.6L498.4,615.6z M560.4,502.5c-1.4,14.7,0.8,14-1.2,18.8c-1.3,3.3-3.9,6.1-9.1,11.8
			c-6.4,7-10.1,10.9-13.7,10c-2.3-0.6-4.3-3.2-4.1-5.1c0.2-1,0.9-1.5,2.5-2.9c2.8-2.4,1.3-1.6,6.3-6.3c4.5-4.2,4.8-3.9,5.6-5.3
			c1-1.9,0.3-2.1,1.3-7.5c0.9-5.1,1.8-6.5,0.9-8.8c-0.4-1-0.5-0.6-2.2-3.1c-3.1-4.6-4.8-9.1-5.2-10.1c-0.5-1.5-0.5-1.6-0.8-2.1
			c-1.6-2.7-5.5-4.4-8.2-3.4c-1.4,0.5-1.5,1.5-4.3,6.4c-2.9,5-3,4.3-5.1,8.1c-2.6,4.8-2.5,5.9-4.1,6.9c-3,1.9-8.2,0.8-9.3-1.7
			c-0.8-1.7,0.5-3.9,2.3-7.1c1.5-2.7,2.5-2.9,3-4.4c1.5-3.9,0.4-8.2-0.8-12.6c-1.8-6.6,0.5-12.5,4.6-17.7c0.7-0.9,1.5-1.8,2.2-2.7
			c2.4-3.3,7-6.8,6.8-9.9c-0.5-5.6-2.7-12-6.4-16.1c-2-2.3-14.6-25.6-21.9-35.4c-0.1-0.1-1.2-1.6-1.5-1.5c-0.7,0.4,4.5,8,2.9,9.7
			c-2,2.1-14.1-3.9-22.5-13.4c-5.9-6.6-7.6-12.4-10.6-22.2c-1.1-3.5-1.8-6.7-0.1-8.6c2.2-2.6,6.7-0.2,9.8-3c1.6-1.4,2-3.5,2.1-10
			c0.2-7.8,0.1-17.9-0.3-17.9c-0.4,0-0.8,7-1.2,13.9c-0.5,7.5-0.5,10.4-2.5,11.7c-1.4,0.9-3.3,0.4-7-0.5c-2-0.5-7.8-1.9-8-4.5
			c0-0.1-0.1-0.9,0.4-1.4c1-0.9,3.1,0.4,6.5,1.8c4,1.7,6,2.6,6.7,2.3c3.4-1.4,1.2-17.4-4.3-31.9c-2.9-7.6-8-18.2-17.7-29.6
			c8.2,4.8,15.9,9.9,21,18.2c1.1,1.8,3,3.3,4.8,4.5c5.7,3.8,11.9,6.9,17.1,11.1c3.9,3.2,7.2,7.4,9.7,11.8c6.5,11.6,4.9,20,11.7,39.1
			c0.5,1.4,2.1,5.9,2.9,5.7c0.8-0.2,0.7-5.3,0.1-9.4c-0.5-4.2-1.5-7-0.1-8c0.7-0.6,1.8-0.4,2.1-0.3c4.7,0.9,7.3,12.9,8.8,19.3
			c0,0,1.1,4.7,6.8,29.4c5.5,23.3,8.2,28.4,9.6,30.8c0.8,1.2,2.8,4.5,4.9,9.3c1.5,3.5,2.1,5.6,4,12.1c3.2,10.8,4,12.4,4.4,14.2
			c0,0,0.2,0.7,0.3,1.5C561.3,493.2,560.4,502.5,560.4,502.5L560.4,502.5z"/>
		<path d="M242.6,211.2c0.4-1.8-0.5-3.9-0.8-6.2c-4,5.9-7.1,10.6-10.1,14.9C237.3,218.7,241.7,215.6,242.6,211.2z"/>
		<path d="M291.3,216.2c-2.3-5.3-4.4-10.1-7-16.1C282.4,214.5,285,213.9,291.3,216.2z"/>
		<path d="M292.2,375.4c0.8-1,1.1-4.2,1.7-10.8c0.1-1.8,0.1-1,0.3-3.3c0.6-7.5,1-9.9-0.2-10.7c-0.5-0.3-1.1-0.2-1.3-0.1
			c-1.6,0.4-2,3.2-2.4,4.9c0,0-1.3,5.8-6.1,11.4c-1.8,2.1-3.6,3.3-7.3,5.7c-5.6,3.7-9,4.7-8.8,5.4c0.2,0.8,5-0.6,13.8-1
			C288.8,376.5,290.7,377.1,292.2,375.4L292.2,375.4z"/>
		<path d="M289.7,389.8c-5.9,0.6-10.2,4.6-10,5.1c0.2,0.4,3.4-0.3,4.4-0.6c1.6-0.4,2.6-0.8,3.2-0.3c0.4,0.4,0.2,0.9,0.4,1.8
			c0.3,1.6,1.8,3.3,3.3,3.3c1.5,0,2.8-1.7,3.2-2.4c0.9-1.2,0.8-1.8,1.7-2.3c0.5-0.3,0.9-0.4,2.7-0.5c2.9-0.2,3.3-0.1,3.3-0.2
			C302.2,393.1,296.5,389.1,289.7,389.8L289.7,389.8z"/>
		<path d="M281.1,540.7c-4-16.8-17.3-27.3-28.7-38.8c13.8,17,28,33.8,28.6,57.4c-2.4-4-4.8-7.9-7.2-11.9c-0.4,0.2-0.8,0.4-1.3,0.6
			c2.2,11.4,10.2,21.1,10.2,34.7c-6.8-11.4-12.9-21.7-19-31.9c-0.4,0.2-0.8,0.4-1.1,0.7c11.5,20.2,18.8,42.7,32,62
			c0.5-0.2,0.9-0.4,1.4-0.5c-0.8-4.2-1.6-8.4-2.5-12.6C289.5,580.4,285.8,560.4,281.1,540.7L281.1,540.7z"/>
	</g>
</g>
</svg>
