<?xml version="1.0" encoding="UTF-8"?>
<svg id="Layer_1" data-name="Layer 1" xmlns="http://www.w3.org/2000/svg" viewBox="0 0 477.3 913.82">
  <defs>
    <style>
      .cls-1 {
        fill: #000;
      }

      .cls-1, .cls-2 {
        stroke-width: 0px;
      }

      .cls-2 {
        fill: #fff;
      }
    </style>
  </defs>
  <path class="cls-2" d="M477.27,240.89c-.15-1.2-.78-1.94-.78-1.94-1.3-1.47-3.93-1.21-6.09-1.28-2.45-.08-5.24.41-7.27-.59-3.31-1.64-6.11-4.28-9.46-6.74.28-1.01.69-2.5,1.1-3.97-3.28-1.22-7.21-1.59-4.09-7.88-7.87,3.12-14.44,5.72-21.01,8.32,5.74-3.35,11.48-6.69,17.79-10.37-1.94-2.05-3.97-4.2-6.01-6.35.98-1.12,1.96-2.24,3.24-3.7-3.92-.4-15.27-1.05-26.99,5.8-12.42,7.26-17.5,18.39-19.16,22.79-3.72-3.12-8-5.57-11.94-8.43-10.18-7.39-21.38-7.6-32.08-2.59-7.99,3.74-15.05,9.58-22.28,14.81-3.71,2.69-6.91,6.09-10.18,9.02-.3-6.4-.04-12.56-.98-18.52-2.76-17.51-9.78-32.43-26.43-41.27-2.11-1.12-3.67-4.07-4.53-6.51-1.06-3-2.26-4.86-5.72-5.17-3.29-.29-6.55-1.16-9.76-2.03-1.13-.3-2.39-1.1-3.05-2.05-6.14-8.87-14.81-11.29-25.08-7-1.03.43-2.64.41-3.62-.1-6.71-3.46-13.63-4.88-20.85-2.5,2.57-4.08,5.06-8.04,8.04-12.76,5.52.25,8.32-3.63,8.92-9.75.35-3.57-.37-7.98,1.47-10.5,2.37-3.25,1.58-5.73,1.47-8.99-.15-4.36.08-8.48-2.69-12.24-.66-.89-.73-2.85-.2-3.85,1.29-2.44.3-3.77-1.35-5.44-2.17-2.2-2.9-5.34.61-6.41,5.55-1.68,8.97-4.69,9.36-10.48,9.56,1.02,12.51-3.08,9.63-12.28-.34-1.09.03-3.16.83-3.73,3.21-2.32,2.77-5.25,2.43-8.52-.17-1.68.25-3.98,1.32-5.12,3.15-3.35,2.97-5.75-1.24-8.02-6.33-3.42-6.34-3.47-3-9.51.48-.87.98-1.76,1.27-2.7,2.1-6.84-.97-10.13-8.01-9.39-2,.21-4.41-1.21-6.26-2.44-2.17-1.44-3.96-5.03-5.86-4.99-5.56.13-7.8-5.02-11.2-5.77-.05-.78-.38-4.27-3.32-6.99-2.54-2.35-5.45-2.68-6.34-2.74-1.5.58-3.31,1.27-4.92,1.89-7,2.69-10.51,4.04-10.88,4.14-2.99.85-10.69-1.76-16.8-.33-.52.12-1.29-.93-1.97-1.39-6.04-4.06-10.16-3.13-13.12,3.61-1.63,3.69-3.68,5.94-7.73,6.73-5.55,1.08-9.84,3.75-10.83,10.1-.25,1.59-1.54,3.31-2.83,4.39-2.43,2.03-5.22,3.65-7.81,5.4-2.38.18-6.16-.62-7.96.91-1.91,1.62-2.13,5.41-2.69,8.34-.27,1.38.45,2.94.61,4.43.32,3.11-.33,5.22-4.01,6.23-6.09,1.67-7.04,4.4-5.4,10.92.47,1.86.53,4.3-.32,5.9-1.61,3.02-1.83,5.18.75,7.83,1.31,1.35,1.6,3.73,2.25,5.68.82,2.48,1.37,5.06,2.36,7.47.95,2.33,3.54,4.67,3.24,6.68-.67,4.46,1.3,6.54,4.71,8.22,1.7.84,3.39,1.68,5.53,2.74-4.65,5.06-2.14,7.46,2.12,9.98,3.49,2.06,6.67,4.85,9.47,7.81,1.11,1.17,1.32,3.71,1.11,5.52-1.03,8.77-5.84,15.11-13.51,19.22-4.84,2.59-10.4,4.12-14.71,7.36-7.2,5.42-15.04,6.82-23.72,7.38-21.83,1.41-37.56,12.36-46.92,32.2-6.16,13.06-8.55,26.85-8.31,41.26.05,3.2-.96,7.04-2.86,9.53-8.21,10.81-13.5,22.76-13.98,36.28-.33,9.35-3.76,17.01-8.98,24.37-6.74,9.49-10.53,19.94-9.89,31.83.16,2.92-.24,6.13-1.33,8.83-8.36,20.69-7.9,41.87-4.76,63.48,2.52,17.33,4.01,34.92-.68,52.14-2.31,8.47-3.28,16.47-.04,24.83.99,2.57,1.32,5.59,1.17,8.37-1.08,20,3.18,40.26-3.66,60.01-2.03,5.87.91,12.48,8.75,12.35,2.94-.05,2.73.62,3.95,1.04.89.3,5.19,1.78,8.03,5.28,2.74,3.37,1.27,5.11,3.54,7.97,2.7,3.4,8.43,5.57,11.34,3.79,3.51-2.15.98-8.88,1.12-22.28.1-9.73.25-24.38,6.6-27.14,5.32-2.31,9.68,6.04,18.85,5.6,11.68-.56,14.72-14.59,20.56-14.03,16.77,1.6,14.2,119.33,5.69,144.89-3.61,10.83-6.51,18.83-6.51,18.83-4.62,12.75-5.27,13.31-6.36,17.36-3.12,11.61-1.64,21.25.02,32.12,1.17,7.62,3.57,18.33,8.95,30.47-13.1,9.59-15.81,17.05-15.57,22.31.23,4.9,3.41,7.97,2.9,16.91-.2,3.49-.25,7-.26,10.49-.04,13.91,8.19,22.86,18.93,29.63,6.71,4.23,8.63,8.63,3.43,14.96-3.1,3.78-7.63,6.35-11.22,9.77-4.05,3.86-8.27,7.7-11.48,12.22-3.15,4.43-1.9,10.59,2.45,13.34,3.57,2.26,7.74,4.29,11.85,4.85,10.15,1.38,20.42,1.8,30.64,2.69,14.49,1.27,26.62-6.83,25.68-21.41-.2-3.07,1.12-4.43,4.32-4.66,13.79-.99,27.56-2.19,41.34-3.25,1.43-.11,2.89.14,4.58.24-.12,1.39-.19,2.35-.3,3.32-1.02,9.62,2.48,13.93,12.24,13.69,7.12-.18,14.31-.99,21.28-2.43,5.75-1.19,11.06-1.13,16.69.45,5.73,1.6,11.68,3.02,17.59,3.27,10.76.45,21.56.11,32.34-.16,6.51-.16,12.93-1.64,16.57-7.53,1.51-2.44,1.84-6.51.92-9.23-.56-1.65-4.46-2.45-7-3.1-4.93-1.27-10.23-1.49-14.88-3.38-6.44-2.61-12.49-6.22-18.56-9.67-4.23-2.41-8.22-5.26-12.31-7.91.5-.33,1-.66,1.5-.99.4-2.02,1.25-4.07,1.12-6.05-.37-5.8-.95-11.61-1.8-17.36-.61-4.16,1.18-6.89,4.6-8.46,5.88-2.71,9.52-7.47,11.55-13.18,2.44-6.85,4.95-13.93,5.66-21.09,1.25-12.57,1.23-25.27,1.56-37.92.11-4.29,1.22-7.72,5.01-10.21,9.04-5.92,17.77-12.35,26.99-17.96,8.53-5.18,11.53-12.5,10.52-21.95-.98-9.11-1.47-18.34-3.31-27.28-1.81-8.8-.29-15.51,6.47-21.86,9.73-9.15,13.69-20.77,12.77-34.37-.7-10.28.15-20.65-.04-30.97-.15-8.11,3.87-13.15,10.87-16.27,2.42-1.08,4.93-2.2,7.51-2.65,4.75-.82,7.46-3.7,8.6-7.99.88-3.33,1.32-6.86,1.42-10.31.28-9.32-.37-18.71.51-27.97,3.67-38.65,7.75-77.25,11.7-115.87,1.57-15.42,3.31-30.82,4.7-46.25.54-5.99,1.87-10.62,8.95-11.63,2.45-.35,5.17-1.95,6.87-3.8,10.24-11.11,16.36-24.24,14.65-39.45-.83-7.38,1.02-12.18,6.49-16.33,2.5-1.9,4.21-3.53,4.62-3.82,23.82-17.07,51.18-43.27,50.46-49.05Z"/>
  <g>
    <path class="cls-1" d="M120.24,179.25c4.09.96,7.35,3.41,7.97,6.52.58,2.9-1.3,5.58-3.23,8.35-1.63,2.34-3.41,3.96-4.71,4.99.96-3.95,1.68-9.25.85-15.34-.22-1.61-.52-3.12-.88-4.52Z"/>
    <path class="cls-1" d="M147.54,261.79c1.72.94,3.4,3.14,2.79,4.88-.69,1.96-3.96,2.4-6.13,1.88-2.58-.63-5.13-2.99-4.75-4.78.45-2.11,5.05-3.63,8.09-1.97Z"/>
    <path class="cls-1" d="M200.31,219.45c-4.94-3.73-1.6-9-2.45-13.48.82,4.49,1.64,8.99,2.45,13.48Z"/>
    <path class="cls-1" d="M216.72,72.09c-2.02.54-3.85-.35-4.69-.76-9.58-4.63-11.59-5.46-14.08-5.45-1.51,0-2.62.36-4.84,1.06-6.12,1.93-8.79,5.15-9.39,5.9-.95,1.19-1.71,2.19-1.42,3.12.45,1.45,3.25,2.16,7.17,1.88,1.57.95,2.68,1.88,3.39,2.55,1.53,1.43,1.84,2.19,3.13,2.91,1.58.89,3.16.89,3.68.89,3.96-.04,6.45-3.34,6.76-3.78.8.22,1.75.49,2.84.82.54.16,1.09.3,1.69.71.41.28.75.53.97.75-.61-3.67.18-5.29,1.02-6.09,1.02-.97,2.19-.81,3.62-2.04,1.28-1.1,1.85-2.53,2.13-3.52-.39.32-1.06.79-1.99,1.03ZM190.68,72.7c-3.89,1.81-6.01,3.73-6.21,3.48-.17-.21,1.26-1.74,2.73-2.88,2.47-1.91,4.73-2.45,5.3-2.57,1.42-.31,3.12-.41,3.18-.15.07.29-2.07.76-5,2.12ZM197.14,81.28c-2.17-.46-4.2-2.26-3.94-3.33.1-.4.52-.75.86-.71.47.06.47.84,1.08,1.69.84,1.17,2.19,1.57,2.84,1.77,1.42.42,2.48.18,2.49.28,0,.12-1.58.67-3.33.3ZM203.22,77.43c-.15.18-.5.13-.72,0-.37-.22-.62-.79-.46-1.06.13-.22.53-.2.79-.04.4.25.55.92.39,1.1Z"/>
    <path class="cls-1" d="M477.27,240.89c-.4-3.61-4.04-3.13-6.87-3.22-2.45-.08-5.24.41-7.27-.59-3.31-1.64-6.11-4.28-9.46-6.74.28-1.01.69-2.5,1.1-3.97-3.28-1.22-7.21-1.59-4.09-7.88-7.87,3.12-14.44,5.72-21.01,8.32,5.74-3.35,11.48-6.69,17.79-10.37-1.94-2.05-3.97-4.2-6.01-6.35.98-1.12,1.96-2.24,3.24-3.7-3.92-.4-15.27-1.05-26.99,5.8-12.42,7.26-17.5,18.39-19.16,22.79-3.72-3.12-8-5.57-11.94-8.43-10.18-7.39-21.38-7.6-32.08-2.59-7.99,3.74-15.05,9.58-22.28,14.81-3.71,2.69-6.91,6.09-10.18,9.02-.3-6.4-.04-12.56-.98-18.52-2.76-17.51-9.78-32.43-26.43-41.27-2.11-1.12-3.67-4.07-4.53-6.51-1.06-3-2.26-4.86-5.72-5.17-3.29-.29-6.55-1.16-9.76-2.03-1.13-.3-2.39-1.1-3.05-2.05-6.14-8.87-14.81-11.29-25.08-7-1.03.43-2.64.41-3.62-.1-6.71-3.46-13.63-4.88-20.85-2.5,2.57-4.08,5.06-8.04,8.04-12.76,5.52.25,8.32-3.63,8.92-9.75.35-3.57-.37-7.98,1.47-10.5,2.37-3.25,1.58-5.73,1.47-8.99-.15-4.36.08-8.48-2.69-12.24-.66-.89-.73-2.85-.2-3.85,1.29-2.44.3-3.77-1.35-5.44-2.17-2.2-2.9-5.34.61-6.41,5.55-1.68,8.97-4.69,9.36-10.48,9.56,1.02,12.51-3.08,9.63-12.28-.34-1.09.03-3.16.83-3.73,3.21-2.32,2.77-5.25,2.43-8.52-.17-1.68.25-3.98,1.32-5.12,3.15-3.35,2.97-5.75-1.24-8.02-6.33-3.42-6.34-3.47-3-9.51.48-.87.98-1.76,1.27-2.7,2.1-6.84-.97-10.13-8.01-9.39-2,.21-4.41-1.21-6.26-2.44-2.17-1.44-3.96-5.03-5.86-4.99-5.56.13-7.8-5.02-11.2-5.77-.05-.78-.38-4.27-3.32-6.99-2.54-2.35-5.45-2.68-6.34-2.74-1.5.58-3.31,1.27-4.92,1.89-7,2.69-10.51,4.04-10.88,4.14-2.99.85-10.69-1.76-16.8-.33-.52.12-1.29-.93-1.97-1.39-6.04-4.06-10.16-3.13-13.12,3.61-1.63,3.69-3.68,5.94-7.73,6.73-5.55,1.08-9.84,3.75-10.83,10.1-.25,1.59-1.54,3.31-2.83,4.39-2.43,2.03-5.22,3.65-7.81,5.4-2.38.18-6.16-.62-7.96.91-1.91,1.62-2.13,5.41-2.69,8.34-.27,1.38.45,2.94.61,4.43.32,3.11-.33,5.22-4.01,6.23-6.09,1.67-7.04,4.4-5.4,10.92.47,1.86.53,4.3-.32,5.9-1.61,3.02-1.83,5.18.75,7.83,1.31,1.35,1.6,3.73,2.25,5.68.82,2.48,1.37,5.06,2.36,7.47.95,2.33,3.54,4.67,3.24,6.68-.67,4.46,1.3,6.54,4.71,8.22,1.7.84,3.39,1.68,5.53,2.74-4.65,5.06-2.14,7.46,2.12,9.98,3.49,2.06,6.67,4.85,9.47,7.81,1.11,1.17,1.32,3.71,1.11,5.52-1.03,8.77-5.84,15.11-13.51,19.22-4.84,2.59-10.4,4.12-14.71,7.36-7.2,5.42-15.04,6.82-23.72,7.38-21.83,1.41-37.56,12.36-46.92,32.2-6.16,13.06-8.55,26.85-8.31,41.26.05,3.2-.96,7.04-2.86,9.53-8.21,10.81-13.5,22.76-13.98,36.28-.33,9.35-3.76,17.01-8.98,24.37-6.74,9.49-10.53,19.94-9.89,31.83.16,2.92-.24,6.13-1.33,8.83-8.36,20.69-7.9,41.87-4.76,63.48,2.52,17.33,4.01,34.92-.68,52.14-2.31,8.47-3.28,16.47-.04,24.83.99,2.57,1.32,5.59,1.17,8.37-1.08,20,3.18,40.26-3.66,60.01-2.03,5.87.91,12.48,8.75,12.35,2.94-.05,2.73.62,3.95,1.04.59.2,5.02,1.77,8.03,5.28,2.71,3.15,1.15,4.98,3.54,7.97,2.56,3.2,8.1,5.45,11.34,3.79,3.74-1.92,2.99-8.34,3.83-28.06.73-17.11,1.64-20.38,3.89-21.36,4.99-2.19,10.5,9.78,19.94,8.86,9.54-.93,12.61-13.13,17.72-12.4,6.82.97,8.77,22.86,10.19,39.87.54,6.51,1.33,17.96.89,62.02-.17,16.85-.33,19.72-.89,23.92-2.72,20.6-9.64,33.21-12.85,41.65-5.28,13.89-7.92,36.08,6.2,71.33-13.1,9.59-15.81,17.05-15.57,22.31.23,4.9,3.41,7.97,2.9,16.91-.2,3.49-.25,7-.26,10.49-.04,13.91,8.19,22.86,18.93,29.63,6.71,4.23,8.63,8.63,3.43,14.96-3.1,3.78-7.63,6.35-11.22,9.77-4.05,3.86-8.27,7.7-11.48,12.22-3.15,4.43-1.9,10.59,2.45,13.34,3.57,2.26,7.74,4.29,11.85,4.85,10.15,1.38,20.42,1.8,30.64,2.69,14.49,1.27,26.62-6.83,25.68-21.41-.2-3.07,1.12-4.43,4.32-4.66,13.79-.99,27.56-2.19,41.34-3.25,1.43-.11,2.89.14,4.58.24-.12,1.39-.19,2.35-.3,3.32-1.02,9.62,2.48,13.93,12.24,13.69,7.12-.18,14.31-.99,21.28-2.43,5.75-1.19,11.06-1.13,16.69.45,5.73,1.6,11.68,3.02,17.59,3.27,10.76.45,21.56.11,32.34-.16,6.51-.16,12.93-1.64,16.57-7.53,1.51-2.44,1.84-6.51.92-9.23-.56-1.65-4.46-2.45-7-3.1-4.93-1.27-10.23-1.49-14.88-3.38-6.44-2.61-12.49-6.22-18.56-9.67-4.23-2.41-8.22-5.26-12.31-7.91.5-.33,1-.66,1.5-.99.4-2.02,1.25-4.07,1.12-6.05-.37-5.8-.95-11.61-1.8-17.36-.61-4.16,1.18-6.89,4.6-8.46,5.88-2.71,9.52-7.47,11.55-13.18,2.44-6.85,4.95-13.93,5.66-21.09,1.25-12.57,1.23-25.27,1.56-37.92.11-4.29,1.22-7.72,5.01-10.21,9.04-5.92,17.77-12.35,26.99-17.96,8.53-5.18,11.53-12.5,10.52-21.95-.98-9.11-1.47-18.34-3.31-27.28-1.81-8.8-.29-15.51,6.47-21.86,9.73-9.15,13.69-20.77,12.77-34.37-.7-10.28.15-20.65-.04-30.97-.15-8.11,3.87-13.15,10.87-16.27,2.42-1.08,4.93-2.2,7.51-2.65,4.75-.82,7.46-3.7,8.6-7.99.88-3.33,1.32-6.86,1.42-10.31.28-9.32-.37-18.71.51-27.97,3.67-38.65,7.75-77.25,11.7-115.87,1.57-15.42,3.31-30.82,4.7-46.25.54-5.99,1.87-10.62,8.95-11.63,2.45-.35,5.17-1.95,6.87-3.8,10.24-11.11,16.36-24.24,14.65-39.45-.83-7.38,1.02-12.18,6.49-16.33,1.59-1.21,3.11-2.51,4.62-3.82,15.92-13.93,31.9-27.79,47.63-41.92,1.75-1.57,3.08-4.84,2.83-7.13ZM251.79,60.72c-.85-3.45-1.42-5.78-2.13-8.65,5.94,2.55,6.36,3.74,2.13,8.65ZM254.58,31.69c-4.95.1-9.34.48-11.12-5.29,2.25,4.65,9.24-1.81,11.12,5.29ZM460.43,237.76c-11.97,1.71-23.1,3.3-34.54,4.93,6.52-4.77,29.43-8.4,34.54-4.93ZM288.97,192.67c19.3,5.22,33,46.07,21.12,62.85v-23.44c-.23-.02-.47-.04-.71-.06-.45,4.6-.72,9.23-1.41,13.79-.72,4.76-1.25,9.7-2.98,14.11-1.66,4.22-4.76,7.88-7.79,12.67v-65.11c-.12.05-.25.1-.37.14-1.94,13.61-3.85,27.23-5.86,40.84-.18,1.23-1.02,2.37-1.99,4.5v-60.29ZM341.22,238.09c4.08-3.65,9.58-5.71,14.42-8.51.9-.46,2.21-1.08,3.86-1.64,8.54-2.92,16.18-1.01,18.62-.44,7.04,1.64,13.47,5.44,19.34,11.22,1.5,1.47,3.22,2.71,4.84,4.06.36-.38.72-.75,1.08-1.13-1.55-2.22-2.74-4.88-4.72-6.59,2.6-4.78,9.57-15.68,22.96-20.67,4.75-1.77,9.15-2.36,12.68-2.49-4.07,1.77-8.28,3.3-12.18,5.38-7.26,3.87-11.79,9.8-12.85,19.31,3.81-8.14,7.08-15.37,15.23-18.35-1.22,1.42-2.68,2.61-4.14,3.81-7.07,5.82-9.32,13.45-8.26,22.26.09.71.96,1.32,1.47,1.98,1.3,5.88,2.61,11.75,3.93,17.74-.7.1-2.39.15-3.95.62-4.18,1.27-6.24.13-8.34-4.12-2.01-4.06-5.7-8.03-9.65-10.24-11.42-6.37-23.81-6.19-36.39-3.66-8.79,1.77-13.28,8.98-19.47,14.12-22.67,18.84-45.41,37.59-68.36,56.09-5.8,4.68-12.37,8.44-18.78,12.32-2.4,1.45-5.33,2.04-8.01,3.02,10.46-15,25.3-24.79,37.76-37.29-3.15,2.4-6.3,4.79-9.45,7.19-.13-1.29.29-1.9.82-2.39,22.47-20.59,44.82-41.29,67.53-61.61ZM315.1,341.29c-24.14-2.52-48.36-4.34-72.55-6.44-1.16-.1-2.31-.41-3.36-1.75.99,0,1.99-.08,2.97.01,23.18,2.22,46.36,4.46,69.55,6.7,5.63.54,11.32,1.41,15.83-3.66-3.1,4.51-6.92,5.72-12.44,5.14ZM351.97,362.03c-15.83,4.76-31.03,4.5-47.53.31,3.8-4.25,6.7-7.74,9.93-10.9.85-.83,2.71-.93,4.08-.86,2.98.15,6.01,1.21,8.89.85,9.95-1.22,17.23,3.61,24.63,10.59ZM244.6,567.91c-1.12,7.87-2.06,15.78-3.39,23.62-7.1,41.7-14.01,83.44-26.16,124.08-5.42,18.14-14.65,34.22-26.03,49.18-.8,1.06-1.74,2.02-2.64,3-.44.48-.95.89-1.87,1.73.05-1.07-.03-1.65.13-2.17,18.82-62.25,32.83-125.57,43.76-189.67,8.12-47.62,15.95-95.25,21.84-143.2.62-5.03,2.15-9.96,3.44-14.89.2-.78,1.34-1.31,3.06-2.88,1.02,35.35-4.14,69.23-6.63,103.26.52.05,1.04.1,1.56.15,3.78-32.21,7.56-64.42,11.36-96.63.31-2.64.34-5.41,1.23-7.85.81-2.23,2.6-4.1,3.96-6.12.52.21,1.04.42,1.56.63-.18,2.86-.43,5.72-.51,8.59-1.9,65.61-3.8,131.22-5.64,196.83-.28,10.09-.18,10.03-9.8,13.37-4.37,1.52-8.63,3.37-13.37,5.24,1.9-22.28,3.76-44.18,5.63-66.09l-1.46-.16ZM132.01,707.46c-4.51,4.85-3.05,12.63-3.99,19.99-2.59,20.3-5.47,40.57-8.49,60.81-.89,5.95-5.57,9.11-11.26,12.65-2.51-8.07-4.99-15.13-6.89-22.34-3.31-12.54-7.17-25.03-9.17-37.79-3.09-19.79,4.08-37.74,12.64-55.12,1.53-3.11,3.4-6.06,5.63-10,2.84,10.71,5.48,20.67,8.13,30.64.29-.05.58-.11.87-.16-1.09-5.34-2.3-10.66-3.25-16.02-.95-5.37-2.08-10.76-2.32-16.18-.24-5.48.53-11.01.85-16.52.75-.09,1.49-.17,2.24-.26,1.67,6.7,3.35,13.41,5.02,20.11.36.01.72.03,1.09.04,0-1.89.16-3.79-.03-5.66-.43-4.3-1.33-8.58-1.5-12.89-.29-7.44,4.63-12.6,11.9-13,3.83-.21,7.67-.77,11.48-.55,3.77.22,7.7.68,11.19,2.01,7.58,2.89,8.71,6.8,4.08,13.37-2.76,3.91-4.65,9.11-10.95,9.05-.64,0-1.45,2.02-1.94,3.21-2.23,5.39-4.27,10.85-6.58,16.21-3.59,8.32-6.32,8.74-12.32,2.13-.41-.45-.89-.82-2.35-.72,1.84,5.28,3.68,10.56,5.92,16.98ZM58.41,353.9c-1.79,4.01-4.34,7.68-7.66,11.21-.78-6.92-1.61-13.84-2.25-20.77-.06-.7.88-1.78,1.62-2.23,3.52-2.07,7.13-3.98,11.44-5.23-2.64,2.9-5.27,5.79-8.36,9.19,6.45,1.27,7.48,2.75,5.22,7.82ZM92.28,347.74c-3.05,3.14-2,6.54,1.68,8.03,3.55,1.43,7.61,2.25,11.43,2.21,11.45-.1,21.82-4.86,31.74-9.7,18.83-9.18,36.94-19.81,55.69-29.16,15.59-7.78,28.32-19.09,41.05-30.57,4.01-3.62,8.36-6.84,12.56-10.25l1.25,1.14c-.19,6.21-2.34,11.54-7.47,15.44-33.12,25.19-65.22,51.91-103.7,69.1-7.9,3.53-15.58,7.58-23.25,11.59-3.52,1.84-5.84,1.15-8.76-1.56-3.73-3.46-8.21-6.16-12.54-8.91-4.39-2.79-7.62-6.16-6.8-11.73.94-6.38,3.67-11.9,9.74-14.82,3.28-1.58,5.87-.6,5.95,2.69-3.28,2.44-6.26,4.14-8.56,6.51ZM100.92,353.48c-.49.32-.97.65-1.46.97-1.6-.65-3.19-1.29-6.07-2.45,2.11-1.78,3.42-2.88,4.73-3.99l2.8,5.48ZM111.13,337.33c3.13,2.87,6.25,5.73,9.38,8.6l-1.08,1.15c-4.69-1.22-7.13-4.81-8.29-9.75ZM159.09,426.18c16.65-9.47,33.66-18.37,49.83-28.59,16.12-10.19,31.41-21.71,47.54-32.98-.98,1.71-1.58,3.52-2.78,4.75-8.78,9.09-16.94,18.99-26.69,26.9-24.69,20.02-50.06,39.21-75.3,58.56-5.27,4.04-11.03,7.47-16.76,10.86-19.99,11.85-23.48,14.97-35.99,33.29-3.21-3.7-4.71-7.35-2.38-12.1,6.15-12.58,16.79-20.39,28.41-27.21,1.28-.75,2.59-1.47,3.87-2.23.07-.04,0-.3,0-.81-10.12,2.68-18.79,7.44-25.55,15.46-1.93,2.29-3.82,4.66-6.01,6.67-1.02.94-3.16,1.89-4.06,1.43-1.13-.58-2.2-2.67-2.08-4.01.29-3.44.96-6.92,2.01-10.22,1.94-6.1,1.88-11.06-4.21-15.25-5.09-3.5-5.58-12.54-1.47-17.9,2.27,3.14,4.31,6.24,6.64,9.12,4.87,6.01,5.54,6.2,12.57,2.59,5.77-2.96,11.45-6.13,17.03-9.44,10.74-6.37,21.4-12.88,32.05-19.4,2.23-1.36,4.28-3.01,5.95-5.24-11.18,6.01-22.3,12.14-33.56,18-7.08,3.69-14.32,7.11-21.6,10.39-4.31,1.94-7.81-.07-10.59-3.36-2.7-3.2-2.53-6.64-.32-10.47,1.17.45,2.65.53,3.14,1.27,3.23,4.86,7.18,3.16,11.17,1.49,15.96-6.68,32-13.16,47.82-20.15,7.44-3.29,14.7-7.15,21.58-11.47,11.83-7.42,23.13-15.7,34.99-23.08,13.01-8.1,26.3-15.65,37.45-26.43,2.53-2.44,6.51-3.38,9.83-5.02.28.43.56.87.84,1.3-7.36,9.01-14.06,18.7-22.29,26.83-6.78,6.7-15.2,11.82-23.22,17.16-17.33,11.54-34.86,22.78-52.3,34.14-2.08,1.35-4.16,2.69-6.25,4.03.21.37.43.74.64,1.11ZM173.36,465.57c9.02-2.35,17.06-4.45,26.6-6.94-5.92,6.95-11.02,12.36-19.61,12.42,4.74,2.71,9.19,1.17,13.09-1.5,7.2-4.95,14.11-10.33,21.15-15.52.64-.47,1.35-.83,2.03-1.24.4.23.81.46,1.21.7-2.8,5.77-4.99,11.96-8.56,17.21-3.97,5.85-8.97,11.09-14.03,16.07-1.53,1.5-5.19,2.42-7.12,1.67-10.1-3.91-15.96-12.27-21.43-20.87.39-.66.78-1.32,1.17-1.98,4.22,1.87,8.43,3.75,12.65,5.62-2.14-1.68-4.27-3.36-7.16-5.63ZM167.44,474.46c5.38,4.65,9.66,10.68,15.33,14.86,12.7,9.34,15.84,8.95,28.63.03-3.43,5.27-6.87,10.54-10.3,15.81-1.82,2.81-3.74,2.88-6.61,1.07-10.25-6.48-20.34-13.33-31.14-18.76-7.91-3.98-16.84-5.95-25.31-8.82-.73-.25-1.45-.53-2.63-.96.86-1.05,1.3-2.15,2.03-2.39,6.62-2.19,13.18-5.05,20-5.94,3.1-.4,7.18,2.66,10,5.1ZM90.94,376.51c1.13-1.23,3-1.79,4.53-2.65.3,1.8,1.32,3.88.76,5.35-1.08,2.83-.25,4.69,1.98,5.87,3.5,1.84,7.1,4.3,10.85,4.7,17.42,1.88,34.52.73,50.75-6.96,6.89-3.26,14.08-5.87,21.41-8.36-10.17,9.15-19.62,19.31-33.63,23.02,7.55-.74,14.23-3.84,20.08-8.3,18.85-14.37,36.42-30.14,51.35-48.68,4.17-5.19,8.58-10.2,13.02-15.16,1.5-1.67,3.44-2.93,6.26-3.75-.38,1.63-.48,3.41-1.2,4.88-8.55,17.47-20.6,32.07-35.72,44.32-14.61,11.84-30.65,21.12-47.63,29.05-11.89,5.55-24.09,4.03-36.34,2.73-8.07-.85-15.81-2.72-20.81-10.88-1.9,4.52.46,7.18,3.11,8.31,7.12,3.03,14.46,5.66,21.9,7.79,4.92,1.41,10.16,1.68,15.26,2.47.15.38.29.76.44,1.15-2.72,1.43-5.42,2.92-8.18,4.28-6.12,3.01-12.17,6.19-18.44,8.84-2.96,1.25-6.68,2.09-7.27-3.31,5.16-.96,10.14-1.88,14.96-2.78-8.43-3.15-16.63-6.27-24.88-9.26-5.42-1.97-7.42-5.48-7.37-11.41.06-7.57-.8-15.11,4.82-21.24ZM222.44,365.4c4.88-9.06,9.06-16.97,13.45-24.76.47-.83,2.17-1.34,3.29-1.33,2.46.02,4.91.48,8.23.86-8.47,8.56-16.27,16.44-24.97,25.23ZM237.32,314.92c-10.9,8.14-20.56,17.94-31.06,26.65-18.75,15.55-38.04,30.41-60.68,39.99-6.1,2.58-12.79,3.77-19.21,5.59-.33-.74-.66-1.48-.99-2.22,2.92-2.18,5.85-4.35,9.34-6.95-8.84,2.75-17.07,5.31-25.31,7.87-.41-.56-.83-1.12-1.24-1.68,1.59-1.69,2.88-3.97,4.82-4.98,8.86-4.6,17.67-9.46,26.93-13.1,24.67-9.7,45.95-24.63,66.47-41.02,9.88-7.89,20.3-15.11,30.58-22.49,2.5-1.79,5.41-3.01,9.2-5.08-1.11,7.98-3.01,13.05-8.85,17.4ZM98.12,682.33c-.85,2.74-1.51,5.56-2.58,8.21-9.1,22.54-10.63,45.45-3.78,68.89.85,2.91.69,6.12,1,9.19-.58.03-1.17.05-1.75.08-13.62-18.29-10.06-65.74,7.11-86.37ZM149.56,718.36c5.67,9.87.87,29.68-8.91,38.97,3.06-13.41,5.84-25.54,8.91-38.97ZM142.09,708.26c11.19-11.11,22.8-21.86,26.07-38.38,2.83,11.99-12.09,31.52-26.07,38.38ZM165.15,637.28c-12.51,2.56-25.39,3.45-38.15,4.52-4.53.38-9.33-.46-13.79-1.6-5.72-1.45-8.31-7.64-6.22-13.47,2.41,1.99,4.81,3.97,7.21,5.95l.99-.89c-2.63-6.01-4.74-12.32-8.02-17.96-4.81-8.27-6.18-16.74-4.04-25.92,4.72-20.25,9.08-40.59,14.31-60.7,2.61-10.04,7.79-19.11,15.02-26.77,6.09-6.45,9.86-6.91,16.85-1.68,3.7,2.77,6.97,6.1,10.43,9.18-5.33-5.59-10.41-11.44-16.09-16.64-3.04-2.78-6.8-1.21-9.47,1.4-5.34,5.25-10.78,10.46-15.52,16.22-7.81,9.5-15.1,19.42-22.61,29.16-.58.75-1.19,1.46-2.81,1.97.18-1.8-.15-3.86.61-5.37,8.6-17.07,17.35-34.06,26.14-51.02.54-1.04,1.85-1.68,2.8-2.51.56.28,1.11.56,1.67.84-1.65,4.19-3.3,8.39-5,12.71.81-.68,1.86-1.47,2.8-2.36,1.08-1.04,2.16-2.1,3.08-3.28,4.79-6.17,11.13-7.44,18.36-5.85,13.03,2.85,23.96,9.75,34.18,17.94,4.68,3.75,9.17,7.74,13.94,11.36,5.43,4.12,8.8,3.72,12.08-2.38,5.19-9.66,10.12-19.52,14.31-29.65,4.26-10.29,7.38-21.05,11.2-31.53,2.2-6.03,4.66-12,11.08-15.73-2.05,9.71-4.1,19.41-6.17,29.12-5.27,24.8-14.75,48.03-26.47,70.4-2.22,4.24-5.01,8.29-8.16,11.89-4.57,5.23-6.87,5.03-11.07-.41-3.46-4.48-6.46-9.31-9.95-13.76-2.86-3.64-6.13-6.95-9.23-10.41,6.75,11.44,13.57,22.85,20.11,34.41.57,1.01-.27,3.62-1.3,4.59-4.23,3.98-8.77,7.65-13.25,11.37-1.9,1.58-3.95,2.98-5.93,4.47.25.44.51.88.76,1.32,9.43-5.13,18.87-10.26,28.98-15.76-2.01,3.09-3.76,5.78-5.52,8.47.28.23.55.45.83.68,4.73-5.88,9.98-11.44,14.06-17.74,4.23-6.53,7.51-13.71,10.87-20.77,3.33-7,6.25-14.2,9.91-21.05-7.4,31.22-18.33,60.73-41.86,84.12.32.26.63.51.95.77,1.8-1.22,3.6-2.44,6.54-4.43-4.95,11.14-10.4,20.39-18.72,28.27,6.1-.71,10.76-3.06,14.59-7.42,12.36-14.1,23.36-29.05,30.53-46.72-.15,1.09-.18,2.21-.48,3.25-3.04,10.37-5.77,20.85-9.28,31.06-7.56,21.99-24.17,33.86-46.08,38.35ZM249.41,401.71c-9.18,9.85-19.06,19.09-29.05,28.14-15.41,13.96-33.78,21.63-54.39,24.02-.41.05-.85-.14-2.3-.42,13.72-10.52,26.79-20.55,39.86-30.58.41.51.82,1.01,1.23,1.52-4.47,3.69-8.93,7.38-13.4,11.07.12.23.24.46.36.68,3.02-1.58,6.32-2.79,8.99-4.82,7.82-5.93,15.74-11.8,22.98-18.4,17.83-16.28,35.28-32.96,52.92-49.44,1.74-1.63,3.71-3.01,5.57-4.5l1.17.9c-1.32,2.36-2.3,4.99-4.01,7.02-9.84,11.72-19.49,23.63-29.92,34.81ZM284.86,188.96c.21,13.06.06,26.13.06,39.2-.66.05-1.32.1-1.98.15-2.64-15.98-5.28-31.96-7.92-47.89,7.16-.5,9.72,1.39,9.84,8.55ZM256.48,172.47c3.03,5.5,5.79,11.18,8.17,17,1.93,4.73,3.13,9.75,4.65,14.64l1.24-.37c-3.4-11.68-6.8-23.37-10.2-35.05.29-.23.58-.46.88-.69,2.16,3.12,5.22,5.96,6.31,9.42,2.8,8.84,5.35,17.86,6.85,26.99,2.86,17.41,5.29,34.91,7.11,52.46.78,7.52-.3,15.25-.83,22.87-.15,2.14-1.37,4.2-3.03,6.06v-45.49c-.25,0-.49,0-.74,0-.58,14.3-1.25,28.59-1.71,42.89-.18,5.64-2.38,10.13-6.78,14.42,3.53-44.42-3.68-86.57-18.94-128.13,3.04-1.61,5.56.33,7.02,2.98ZM252.48,193.71c10.61,33.97,16.62,68.53,12.23,104.32-.57,4.65-2.04,8.23-5.84,10.96-2.7,1.94-5.17,4.19-7.81,6.21-2.46,1.89-5,3.66-7.26,5.3,19.14-48.56,13.59-96.82-1.46-144.69,5.02,4.2,7.99,11.02,10.14,17.9ZM228.54,147.43c.87-2.39,1.6-5.67.03-8.22-.76-1.24-1.57-1.49-2.33-2.64-1.02-1.53-1.7-4.25.21-9.43.91.57,4.53,3,5.73,7.71,1.77,6.93-3.35,12.3-3.65,12.59ZM234.13,124.08c.27.23,1.4,1.29,1.47,2.91.08,1.76-1.13,3.48-3.02,4.22-2.25-4.15-2.95-7.63-3.18-10.08-.41-4.4.5-8.2-1.92-10.25-.91-.77-1.34-1.57-2.75-2.31-.77-.4-.89-2.58-.85-3.91.12-3.43.57-4.54.78-6.58.09-.91.06-1.18.1-2.23.05-1.13.17-2.78.49-4.83,2.31-1.78,3.74-2.27,4.64-2.36.02,0,.06,0,.12-.01.95-.14,1.54-1.11,1.84-1.61.99-1.63.97-3.82.95-4.4,2.3,9.7.66,14.45-1.54,16.99-1.05,1.21-3.51,3.4-2.93,4.7.42.94,2.05.52,3.58,1.69,1.42,1.08,1.92,2.88,2.09,4.43-.53,1.27-1.07,2.53-1.6,3.8,4.9,3.35,5.77,7.58,1.73,9.81ZM225.73,79.13c.25-.46.97-.52,1.03-.42.04.07-.25.19-.57.63-.28.39-.31.65-.4.64-.12-.01-.26-.5-.07-.85ZM236.34,77.19c-.29.03-.26-1.22-1.17-2.09-1.52-1.43-4.29-.52-4.31-.65-.02-.17,4.33-1.83,5.61-.13.75,1,.22,2.84-.13,2.87ZM241.09,37.4c-2.29,1.72-6.77,4.61-13.11,5.67-4.17.7-7.71.37-10.13-.05,2.6-1.46,4.21-3.13,5.69-3.03,3.74.25,5.54-.57,3.53-5.71,1.58,1.14,4.83,3.14,9.32,3.45,1.83.12,3.43-.07,4.69-.33ZM168.55,17.93c1.2-.04,2.59-2.02,3.41-3.39,1.67-2.78,1-4.01,2.66-5.78,1.33-1.42,3.64-2.51,4.85-1.77,1.07.65,1.03,2.57.98,5.06-.06,3.25-.81,5.11.04,5.68.41.28,1.02.12,1.62-.14,3.57-1.53,4.63-5.63,6.72-7.57,1.88-1.74,5.67-2.74,13.91.07-1.03.71-2.67,1.72-4.87,2.47-3.15,1.08-4.51.64-6.81,1.35-3.57,1.1-2.89,2.97-7.56,6.15-3.8,2.59-5.14,2.65-10.98,5.79-1.15.62-2.6,1.32-3.13,2.37-3.78,7.5-10.33,8.48-18.59,7.73,5.85-6.52,5.88-17.63,17.74-18.03ZM135.28,50.16c1.93-2.75,3.28-3.53,3.31-5.32.03-2.37-2.29-3.74-1.76-4.52.43-.63,2.12.08,4.78.47,1.64.24,3.22.5,6.32.11,5.38-.68,10.78-1.4,16.07-2.56,1.94-.43,3.82-1.9,5.32-3.33,4.37-4.17,7.72-9.81,15.18-9.01.77.08,1.72-2.37,2.75-3.5,1.79-1.97,3.42-5.01,5.61-5.52,9.13-2.15,12.17-3.84,20.03-10.17,2.32-1.86,5.35-4.84,6.87-3.96.45.26.69.8.74,1.26.31,2.76-6.17,4.91-5.77,6.37.26.93,2.96.21,5.69,1.72,2.06,1.14,3.22,3.05,3.9,4.57-1.32.15-3.41.36-5.99.52-4.14.27-5.29.16-6.39,1.12-1.6,1.39-2.27,4.3-1.17,5.92,1.67,2.47,6.9,1.23,8.61.83,3.23-.77,3.87-1.74,9.1-4.06,8.38-3.72,9.06-3.39,11.37,6.24-1.17-1.24-3.28-3.07-5.88-2.99-1.85.06-2.98,1.05-6.59,3.6-3.93,2.77-5.89,4.16-6.83,4.57-5.88,2.62-10.89.32-11.84,2.4-.26.57-.3,1.66,1.46,3.85-4.49-2.27-7.18-1.92-8.78-1.23-2.89,1.25-3.38,4.09-6.04,4.74-2.56.62-5.19-1.27-6.88-2.79,1.92,0,5.16-.34,8.25-2.41,6.01-4.03,6.81-11.53,6.19-14.24-.5-2.2-1.8-3.33-1.8-3.33-.53-.46-1.09-.75-1.42-.86-3.41-1.21-9.87,5.49-8.93,7.14.55.96,3.29-.36,3.81.53,1.33,2.26-14.51,13.96-13.56,15.32.25.36,1.39-.33,3.26.15,1.28.33,2.24,1.03,2.88,1.64-3.85,1.84-6.42,3.97-8.1,5.65-2.13,2.14-2.68,3.41-4.62,5-2.95,2.41-6.31,3.26-8.88,3.58,2.21-2.84,5.44-7.17,8.98-12.76,1.29-2.03,6.9-10.87,5.96-11.59-.51-.39-2.81,1.67-5.04,3.66-1.93,1.72-2.57,2.54-3.4,3.3-2.24,2.03-4.37,2.26-10.23,3.52-2.59.56-6.49,1.65-14.29,3.83-3.9,1.09-5.83,1.68-7.05,3.53-.8,1.21-1.2,2.83-2.69,3.3-.89.28-1.4-.08-2.71.14-1.22.21-2.16.75-2.77,1.2,1.01-2.57,2.16-4.43,3-5.62ZM197.01,46.67c-1.34.35-3.36.96-5.71,2.02-2.79,1.25-3.82,2.12-6.31,3.18-1.47.63-3.64,1.4-6.5,1.88,1.4-1.64,5.48-5.97,12.08-7.09,2.54-.43,4.77-.27,6.44,0ZM162.05,78.53c-.16.17-.55.54-.97,1.19-.68,1.06-.96,2.11-1.08,2.87.07-.42.7-4.73-1.88-6.74-1.05-.82-2.23-.94-4.34-1.16-1.97-.21-3.53-.37-5.01.55-1.31.82-1.92,2.1-2.18,2.8-.05-1.31-.11-6.05,2.61-7.63.85-.49,2.12-.65,4.62-.67,1.64-.02,3.37.08,5.11,0,.36-3.16,1.2-6.82,3.35-7.46,1.82-.54,3.17,1.51,5.87,1.87,2.21.3,5.23-.55,9.22-4.79-1.61,3.82-4.12,7.89-8.02,8.74-3.18.7-5.7-1.09-6.92.31-1.77,2.03,1.7,7.86-.37,10.11ZM153.1,48.87c.14,5.2-2.13,6.89-8.02,5.57,3.38-2.35,5.7-3.96,8.02-5.57ZM126.95,59.4c1.02-.48,2.52.51,4.34,1.72,2.54,1.68,2.82,2.83,4.12,2.87,1.3.04,2.61-.95,4.61-2.83,2.65-2.49,6.54-3.67,9.88-5.41,1.84-.96,3.86-1.66,5.5-2.88,1.84-1.38,3.15-3.49,5.05-4.75.94-.63,3.09-.58,3.91.11.78.64,1.15,2.87.63,3.8-1.72,3.11-4.25,5.39-5.15,5.87-6.15,3.28-10.55-.23-14.22,3.15-1.97,1.81-.98,3.08-2.94,4.97-4.35,4.18-14.43,3-16.54-1.29-.94-1.91-.44-4.72.8-5.32ZM125.17,72.68c5.21,2.12,10.2,4.16,15.45,6.29-2.64,2.86-5.9,3.18-9.32,1.83-3.57-1.4-5.99-3.9-6.13-8.12ZM128.4,86.91c3.34,1.35,6.6,2.66,10.46,4.22-4.68,2.94-7,1.91-10.46-4.22ZM136.88,102.69c.07-.68.13-1.35.2-2.03l8.75.83c-.06.73-.12,1.46-.18,2.18-3.05,1.9-5.9.17-8.78-.99ZM147.31,120.9c-1.55-1.82-3.1-3.64-5.43-6.37,1.87,0,3.52-.44,3.92.08,1.29,1.69,2.13,3.74,3.14,5.65-.54.22-1.08.43-1.62.65ZM147.88,81.13c2.59,5.2,5.47,9.66,11.09,12.23,1.64.75,1.92,4.51,2.1,7.2-7.49-4.6-12.83-10.43-13.19-19.43ZM57.27,205c7.74-18.55,21.52-29.61,41.61-32.43,7.72-1.09,15.45-2.16,23.39-3.27,5.41,9.64,14.06,14.07,24.93,15.68,11.33,1.68,22.56,4.2,33.75,6.69,2.98.66,5.63,2.7,8.52,3.91,2.61,1.09,5.32,1.92,8.78,3.15-5.25-7.01-9.76-13.02-14.26-19.03l-.67.23c.98,3.47,1.97,6.94,2.94,10.38-.8.26-1.19.53-1.38.43-9.95-5.5-21.23-4.86-31.91-6.27-12.47-1.64-23.25-4.61-28.8-17.89,1.12-.8,2.59-2.07,4.25-3,4.65-2.59,9.31-5.19,14.1-7.52,7.84-3.82,12.3-10.03,13.46-18.57,1.03-7.58,1.44-15.27,2.83-22.78.78-4.21,3.01-8.14,4.51-12.23.21-.56.37-1.68.56-3.16.13-.97.5-4,.23-8.96-.23-4.24-.64-4.61-.16-6.19.64-2.07,2.33-4.65,4.04-4.56,1.71.09,2,2.72,4.7,3.48.07.02,1.48.4,2.73-.08,2.4-.93,2.67-4.41,3.66-7.69,1.46-4.85,5.33-9.17,13.08-17.8.82-.92,1.75-1.93,3.16-3.04,2.36-1.85,5.02-3.12,8.23-4.19,6.27-2.1,11.3-1.7,16.83,1.4,1.85,1.04,4.59,1,6.84.73,4.29-.52,6.24,1.48,6.9,5.33.67,3.88,1.25,7.77,1.92,12.03-1.78.1-2.9.14-4.01.22-8.04.54-11.31,4.13-10.77,12.23.29,4.31,1.17,8.58,1.49,12.89.12,1.67-.12,4.52-.96,4.85-1.52.58-3.97.21-5.4-.72-3.37-2.21-6.66-3.95-11.32-3.52,2.61,3.13,4.76,5.72,7.85,9.43-10.41-.48-15.74,4.64-17.36,13.11-.6,3.15,1.17,6.76,2.09,11.3,2.23-4.93,3.01-9.06,5.49-11.45,2.46-2.38,6.54-3.91,10.04-4.18,4.8-.37,7.75,4.28,8.59,12.04-2.97-2.53-5.66-4.83-9.31-7.94.12,5.97,1.96,8.77,3.62,10.22,2.05,1.8,4.66,2.3,6.6,5.48.46.75,1.1,1.89,1.34,3.5.38,2.6-.5,5.24-2.29,7.71-.81,1.13-1.76,2.54-1.75,3.82.06,4.84-3.11,9.16-8.8,10.91.95-1.6,3.36-6.12,2.92-12.28-.48-6.61-3.95-10.95-5.13-12.31.2,2.26.23,6.17-1.49,10.52-.89,2.26-2.02,4.04-3.01,5.35-.11-.5-.52-2.09-2.03-3.33-1.31-1.08-2.7-1.28-3.23-1.33.38.98,1.09,3.18.63,5.95-.38,2.28-1.37,3.9-1.96,4.73-1.09-.41-3.71-.66-4.92-2.09-.96-1.14-.84-4.04-.09-5.64,1.88-4.05,2.27-5.34,1.83-6.94-.37-1.34-1.97-2.97-7.7-3.91-.07.23-.25.96.08,1.76.45,1.1,1.5,1.47,1.66,1.52-.62.32-1.37.62-2.25.83-3.03.71-5.62-.25-6.77-.77.78,1.16,1.91,2.61,3.49,4.04,1.41,1.27,2.79,2.18,3.92,2.82-5.36.1-8.97-2.26-10.69-5.95-1.87-3.98-1.88-7.77-1.7-9.42.62-5.58,3.9-9.16,5.03-10.29-.68-.12-2.41-.33-4.27.56-2.81,1.34-3.66,4.11-3.79,4.56-.33-.16-.76-.44-1.01-.92-.34-.68-.1-1.32,0-2.35.06-.6.09-1.46-.08-2.52-.49.27-1.88,1.13-2.36,2.75-.65,2.16.56,4.83,3.11,6.29-4.49-.29-6.01-2.35-6.36-2.86-1.5-2.24-1.35-6.07-.63-8.69.39-1.41.98-2.57.41-3.81-.48-1.04-1.7-1.97-2.51-1.7-.53.18-.74.82-.82,1.04-2.44,6.94.6,14.99.6,14.99,2.84,7.36,7.82,13.86,11.38,20.99,4.54,9.12,12.65,15.54,17.64,24.23,3.41,5.94,8.29,4.87,13.85,3.03-.78,6.76-1.46,12.71-2.29,19.9,2.5-1.69,3.72-2.86,5.18-3.43,4.39-1.74,8.81-3.47,13.34-4.77,4.56-1.31,9.26-2.18,13.94-3.08,1.09-.21,2.32.26,3.48.41-.48,1.06-.69,2.43-1.49,3.13-3.09,2.69-6.37,5.16-9.58,7.71.17.52.33,1.04.5,1.57,3.56-.71,7.22-1.13,10.66-2.21,5.55-1.74,6.23-1.64,7.54,4.08,3.9,16.98,5.39,34.2,4.72,51.6-.38,9.8-4.34,14.67-14.01,16.48-11.23,2.1-21.49.38-29.35-8.99,4.63,14.91,19.25,12.74,31.2,18.08-10.54,9.64-20.68,18.92-31.21,28.55-2.91-10.41,1.36-21.12-5.38-29.96,0,6.97.38,13.73-.1,20.43-.51,7.04-4.13,12.51-10.29,16.23-10.54,6.37-21.02,12.84-31.56,19.22-1.22.74-2.64,1.16-4.78,2.08-1.04-5.57-1.98-10.55-2.98-15.91-7.13,1.23-14.12.34-19.89-5.27-.27.36-.55.73-.82,1.09,1.61,1.34,3.03,3.09,4.86,3.92,3,1.37,6.23,2.35,9.45,3.12,6.38,1.52,8.82,7.48,5.54,13.34-3.36,6-9.74,7.21-15.14,9.93-6.78,3.41-15.49-2.54-15.3-10.27,0-.32.19-.63.45-1.4,2.8,2.08,5.26,4.54,8.22,5.94,2.72,1.28,5.98,1.42,9.16,1.34-12.96-6.45-23.85-14.65-30.53-27.65,5.16,2.26,8.99,7.27,14.6,6.95-4.35-3.64-9.1-7.25-13.41-11.32-4.39-4.15-8.54-8.69-5.77-16.57,4.87,6.29,8.91,13.6,18.32,12.23-3.76-2.83-7.92-5.13-10.95-8.47-3.05-3.37-6.76-7.12-5.13-12.52,4.07,2.03,7.94,3.96,11.81,5.9.19-.4.38-.8.57-1.2-3.11-2.9-6.81-5.4-9.16-8.82-2.68-3.91-1.61-8.25,2.08-12.36,6.42,2.69,12.86,5.55,19.43,8.1,10.45,4.05,21.34,3.29,32.1,2.04,10.74-1.24,21.41-3.14,32.08-4.95,1.43-.24,2.98-1.41,3.93-2.58,4.46-5.51,6.77-11.73,5.85-18.98-1.06-8.34-1.95-16.71-2.92-25.06-.49.06-.99.11-1.49.17.35,4,1.21,8.04.92,11.99-.39,5.41-1.15,10.91-2.69,16.09-1.69,5.69-5.88,9.86-11.65,11.5-9.27,2.65-18.6,5.27-28.07,6.98-16.33,2.95-29.27-4.02-40.06-15.59-3.37-3.62-5.78-8.13-8.81-12.09-2.36-3.08-4.99-5.94-8-9.48,1.59-1.32,3.77-3.12,6.93-5.74-1.86.44-2.56.6-3.87.92,2.91-4.33,5.59-8.31,8.28-12.29-.7-.58-1.41-1.16-2.11-1.74-.48.95-.85,1.99-1.47,2.85-8.59,11.76-19.72,20.68-32,28.24-1.38.85-3.3.82-5.17.65-5.42,4.85-10.96,10.11-11.48,18.36-1.01-1.16-2.35-2.19-2.9-3.54-7.82-19.3-9.15-38.81-1-58.34ZM6.99,564.92c-.67-6.54,3.07-10.91,4.01-15.82,2.69,5.82,1.1,10.59-4.01,15.82ZM22.63,557.65c-.43-3.61.15-7.35-.43-10.92-.26-1.59-1.52-4.23-2.25-4.12-1.13.18-.99,7-.69,10.85.29,3.8,1.05,9.03,3.12,15.18-3.68-3.6-5.37-6.98-6.24-9.35-1.24-3.42-.68-4.5-2.58-11.12-.72-2.51-.96-2.9-2.26-7.19,0,0-1.27-4.19-2.21-7.72-3.19-11.92,5.26-24.18.55-37.75-.66-1.89-1.87-5.25-3.07-10.42-.7-2.99-2-6.55-1.03-9.1,7.21-18.93,5.44-38.38,3.95-57.81-1.1-14.43-3.92-28.79-1.35-43.31.92-5.18,2.26-10.28,4.39-15.3.86,10.77,1.72,21.53,2.58,32.3.44-.03.88-.06,1.32-.09-.59-9.36-1.51-18.71-1.65-28.08-.09-6.07,1.04-12.15,1.48-18.24.23-3.19.05-6.42.29-9.61.26-3.44.13-7.13,1.37-10.23,1.97-4.9,4.75-9.51,7.52-14.04,4.94-8.05,8.45-16.4,8.67-26.08.31-13.3,6.3-24.11,15.82-34,2.65,5.38,4.87,10.14,7.36,14.75.76,1.4,1.91,4.51,3.98.77,0,0-.01-.01-.02-.02,5.42-7.89,13.22-12.28,22.22-14.71,8.77-2.36,13,1.07,10.3,9.51-5.12,15.97-11.07,31.71-17.38,47.26-1.86,4.6-5.7,8.64-9.37,12.17-2.32,2.23-5.92,3.34-9.12,4.4-3.38,1.11-5.54-.79-6.03-4.1-.63-4.22-.89-8.49-2.17-12.98-.83,4.79-1.47,9.62-2.58,14.34-.6,2.54-2.18,4.84-2.97,7.36-.51,1.61-.72,3.47-.47,5.12,1.11,7.4,2.37,14.78,3.69,22.15,1.6,8.97-.58,17.15-4.83,24.99-1.61,2.97-2.89,6.11-4.32,9.17.57.35,1.13.7,1.7,1.05,4.69-6.24,9.38-12.49,14.7-19.57-.28,3.86.1,7.24-.87,10.16-2.51,7.54-4.95,15.23-8.63,22.22-10.79,20.49-16.5,42.05-15.85,65.25.1,3.5.39,7.03,0,10.49-.58,5.17,1.76,8.01,6.18,10.14,3.88,1.86,7.7,4.02,11.12,6.61,5.17,3.9,8.81,8.99,10.05,15.59,2.56,13.66,5.92,19.99,8.38,23.82.34.53,1.28,1.95.8,2.63-.6.86-3.11.14-4.43-.39-3.85-1.54-6.01-4.81-7.01-6.38-8.39-13.09-9.84-15.92-11.57-15.75-1.28.13-1.57,1.81-4.29,7.89-4.59,10.26-5.81,10.03-6.69,14.46-.84,4.24.49,3.36.15,13.16-.24,6.97-.94,8.07-.39,12.56.09.76.07.38,1.76,9.19,1.06,5.5,1.66,8.84.23,9.76-.43.28-1.09.36-1.63.22-1.18-.31-1.76-1.67-2-2.27-3.97-9.67-4.73-12.98-4.73-12.99-1.73-7.56-2.52-11.36-2.59-11.89ZM79.32,833.78c-.86-1.13-.82-2.95-1.56-5.9,2.52,1.38,3.82,1.92,4.91,2.74,1.05.79,1.88,1.88,2.82,2.82,8.35,8.31,14.02,8.12,22.57-.76-13.97,3.2-21.67.53-27.27-9.45-3.64-6.48-3.64-14.27.36-18.35,2.15,5.5,4.46,10.74,6.24,16.15,1.22,3.71,3.38,4.14,6.81,3.71,8.29-1.05,14.94-5.38,21.43-10.09,14.04-10.2,23.12-24.77,33.1-38.45,6.43-8.81,11.82-18.38,17.67-27.61-.22-.11-.43-.21-.65-.32-11.82,15.03-23.6,30.08-35.48,45.07-6.73,8.49-15.17,14.92-24.81,19.79-8.75,4.42-13.52,3.16-20.19-5.2-4.08-5.12-3.74-12.39,1.36-18.25,2.25-2.58,5.31-4.45,8-6.64l1.35,1.17c-1.01,2.17-2.11,4.31-2.99,6.53-1.03,2.61-2.43,5.24-2.68,7.95-.66,6.99,3.1,10.53,9.49,8.07,6.53-2.52,13.15-5.81,18.49-10.25,17.06-14.2,30.6-31.46,41.13-51.04.95-1.76,1.92-3.53,3.14-5.1,20.54-26.43,32.1-56.97,40.71-88.86.55-2.05,1.2-4.08,2.84-5.96-.55,5.26-.78,10.58-1.71,15.77-5.5,30.69-11.94,61.15-24.1,90.04-7.08,16.83-17.73,31.16-31.16,43.49-3.67,3.37-7.23,6.85-10.83,10.28.25.38.5.76.76,1.13,7.8-4.9,15.6-9.8,23.39-14.69l.55.59c-2.48,3.01-4.84,6.12-7.45,9-12.05,13.27-25.65,24.71-40.83,34.24-6.31,3.96-13.07,6.51-20.69,6.49-6.44-.01-11.02-3.29-14.68-8.1ZM135.97,891.04c.04,1.77-.09,3.5-.58,6.84-.67,4.51-1.35,5.76-1.82,6.44-1.22,1.79-2.76,2.56-5.23,3.79-3.03,1.51-7.03,3.51-9.94,1.83-1.07-.61-1.73-1.57-2.09-2.09-1.74-2.51-1.07-4.54-2.09-4.97-1.29-.54-2.7,2.55-6.01,3.76-2.34.85-4.2.16-6.78-.24-11.55-1.8-15.36,1.32-21.32-2.29-1.05-.63-2.49-1.67-3.96-3.37-.94-.9-2.18-2.39-2.19-4.26-.01-1.98,1.36-3.54,5.11-6.53,5.89-4.69,8.67-6.32,14.64-10.4,6.16-4.2,10.01-9.91,12.47-16.96,1.42-4.05,3.43-9.93,6.5-10.95,6.2-2.05,13.4-2.1,20-1.33,2.24.26,4.26,5.27,5.75,8.42,1.62,3.42,2.05,6.75,2.38,8.77.32,1.96.64,3.89.59,6.09-.19,8.5-5.6,9.87-5.44,17.44ZM102.36,849.88c-5.37,1.83-9.96,1.54-14.6-2.43,3.43-1.17,6.33-2.45,9.37-3.16,24.66-5.77,43.3-20.75,59.11-39.49,14.77-17.5,29.99-34.35,49.01-47.43,7.76-5.34,12.43-13,16.04-21.76,10.34-25.09,14.44-51.53,18.14-78.11.36-2.56.93-5.08,1.59-8.61,8.5,7.48,16.34,14.15,23.85,21.18,1.42,1.33,2.05,4.05,2.11,6.15.07,2.95-.72,5.93-1.17,8.9-.9,5.92-2.44,12.13,7.43,13.18-.19.69-.39,1.37-.58,2.06-2.83,1.44-5.51,3.51-8.51,4.2-14.67,3.36-25.46,12.51-35.27,23.36,10.98-5.77,19.02-17.15,33.29-17.88-1.14,2-1.96,3.62-2.93,5.15-12,18.85-26.18,35.71-44.42,48.9-21.94,15.86-41.41,34.53-60.89,53.23-14.88,14.28-31.77,25.8-51.57,32.56ZM149.66,855.87c21.87-7.43,38.46-20.91,54.14-36.27-1.36,16.65-35.1,39.68-54.14,36.27ZM270.24,875.57c8.77,4.74,6.91,5.55,10.98,6.97,6.36,2.21,10.25.67,19.03,3.94,3.56,1.33,4.86,2.3,5.1,3.58.48,2.51-3.29,5.5-6.38,6.73-3.25,1.3-6.33.89-8.79.56-3.83-.51-4.4-1.46-7.28-1.66-4.1-.29-6.97,2.1-8.83,2.1-8.41-.01-17.41,1.21-25.07-1.36-11.54-3.88-22.4-5.04-34.06-1.77-3.74,1.05-7.93.64-11.92.69-1.83.02-3.21-.47-4.03-1.45-.68-.82-.73-1.76-.72-3.91.02-4.24.02-6.37.36-7.97.73-3.48,2.09-5.91,2.47-6.63,3.9-7.31,4.76-20.52,5.1-25.61.81-12.3.34-15.78.76-29.95.04-1.31.04-2.81.66-3.89,5.27-9.24,9.75-19.15,16.34-27.35,4.78-5.95,12.41-9.62,18.77-14.3.48.36.96.72,1.44,1.08-2.71,11.84-5.21,24.62-7.29,38.27-2.08,13.68-3.51,26.65-4.44,38.77.27.7.74,1.72,1.51,2.81,2.46,3.49,5.94,4.79,8.51,5.9,4.12,1.78.37.64,11.76,6.52,5.3,2.74,10.78,5.11,16.02,7.94ZM266.86,812.46c.91-6.04,1.83-12.08,2.74-18.12-.28-.05-.57-.1-.85-.15-6.82,11.33-13.65,22.65-20.47,33.98-.55.1-1.09.2-1.64.3-.27-2.23-1.24-4.65-.68-6.65,1.89-6.71,3.83-13.49,6.65-19.85,5.8-13.07,12.18-25.89,18.34-38.8.54-1.13,1.2-2.19,2.33-3.15,1.61,17.96.87,35.58-6.43,52.43ZM246.5,646.52c-.1-.73-.2-1.46-.29-2.19,3.82-2.16,7.46-4.74,11.49-6.39,8.25-3.38,11.64-8.88,11.75-18.06.76-65.78,1.95-131.56,3.05-197.34.03-2.08.5-4.15.76-6.22.61-.1,1.22-.2,1.82-.3.64,2.43,1.76,4.85,1.85,7.3.32,8.65.42,17.32.37,25.98-.33,59.63-.73,119.25-1.1,178.88-.04,7.11,0,14.23,0,22.47-10.39-1.45-20.04-2.79-29.7-4.14ZM275.83,684.32c2.24,2.88,4.48,5.76,7.14,9.18-5.31-.63-7.93-3.67-7.14-9.18ZM278.83,672.24c.59-4.69.97-7.69,1.46-11.56,4.12,2.06,7.43,3.72,12.13,6.08-4.88,1.97-8.53,3.44-13.58,5.48ZM287.93,662.39c-4.24-2.08-7.76-3.74-4.06-9.84,1.83-3.02.99-7.8.97-11.79-.16-43-.68-85.99-.54-128.99.12-35.31,1-70.62,1.53-105.54,5.54,9.5,12.57,246.27,7.15,258.92-1.88-1.03-3.43-1.97-5.06-2.77ZM296.72,682.04c4.63-4.52,9.01-9.3,13.15-13.62,1.56,10.93,3.28,22.96,5.04,35.29-8.26-3.18-14.28-8.69-19.41-15.38-2.06-2.69-.81-4.31,1.22-6.3ZM298.1,729.98c-.41-.19-.83-.38-1.24-.57.82-4.42,1.49-8.87,2.6-13.22.18-.72,2.35-1.49,3.46-1.32,3.59.55,7.11,1.54,12.15,2.7-6.4,4.68-11.69,8.55-16.97,12.41ZM321.16,651.68c-.43-.1-.85-.19-1.28-.29-.84-5.94-1.67-11.88-2.67-18.96,4.94,1.84,8.99,3.35,13.99,5.21-3.77,5.27-6.91,9.66-10.05,14.04ZM331.98,623.45c-6.52-5.39-12.37-10.22-18.49-15.27,6.59-4.84,12.24-8.98,18.49-13.56v28.84ZM335.83,576.04c-7.44,5.99-14.89,11.98-22.33,17.97-.31-.35-.62-.71-.93-1.06,2.23-17.21,4.45-34.42,6.8-52.53,6.29,4.43,11.82,8.32,17.34,12.22.26.18.61.52.59.77-.46,7.54-.97,15.08-1.47,22.62ZM343.95,570.31c.67-4.04,1.19-7.17,1.82-10.93,4.49,1.79,8.31,3.31,12.13,4.84.01.4.02.79.03,1.19-4.35,1.53-8.69,3.05-13.98,4.91ZM360.04,551.08c-7.12-.84-37.77-17.84-40.62-23.13,3.94-1,7.72-2.11,11.56-2.92,7.94-1.68,13.41-6.56,15.43-14.08,3.41-12.66,6-25.56,8.71-38.4,1.02-4.86,1.42-9.85,1.58-15.02-6.67,24.73-14.31,48.7-41.3,59.75,3.5-47.11,4.05-94.42,12.8-140.94.59-.02,1.17-.05,1.76-.07.17,1.62.47,3.23.5,4.85.37,18.15.56,36.3,1.1,54.45.23,7.81.86,15.64,1.87,23.39.51,3.95.98,8.91,6.25,9.69,5.33.79,8.78-2.99,10.17-7.26,4.78-14.68,9.23-29.48,13.21-44.4,2.92-10.92,4.86-22.11,7.34-33.15.55-2.45,1.53-4.8,3.14-7.03-2.04,58.35-12.13,116.01-13.51,174.28ZM413.11,303.7c-.19,2.96-.83,3-1.69,7.95-.5,2.9-.32,3.12-.84,6.74-.6,4.16-.92,6.39-1.69,8.67-1.08,3.21-2.72,5.28-6,9.43-4.51,5.7-6.76,8.55-9.53,9.84-1.56.73-4.73,1.88-9.94,4.54-.23.12-.27.18-.43.22-7.66,2.27-15.25,4.79-23.01,6.63-2.14.51-5.09-.53-7.07-1.8-1.84-1.18-2.88-3.6-4.27-5.48,1.86-1.1,3.67-2.31,5.6-3.28,1.43-.72,3.29-.81,4.48-1.78,3.06-2.5,5.7-3.47,7.89,1.05,2.48-6.87,6.04.39,8.49-.88-7.12-8.86-12.72-16.46-16.77-22.15,0,0-10.85-15.25-8.55-18.88.54-.85,1.19-.95,1.19-.95,1.05-.17,2.06,1.14,2.5,1.73,4.02,5.32,5.44,8.14,5.44,8.14,2.53,5.04,2.82,6.3,4.7,8.43,1.06,1.2,3.28,3.41,3.85,3.01.86-.59-2.07-8.73-7.35-16.26,0,0-3.68-5.24-6.02-11.32-.48-1.24-1.26-3.46-.2-4.97.05-.07.81-1.13,1.98-1.23,1.63-.14,3.11,1.66,6,6.34,3.21,5.2,3.33,6.22,5.95,10.22,2.47,3.76,4.09,5.67,5.3,6.98,1.35,1.46,4.12,4.47,4.71,4.06,1.11-.76-6.09-13.17-6.39-13.7-5.42-9.31-12.1-18.6-10.48-21.72.11-.22.45-.87,1.1-1.08,1.42-.45,3.23,1.51,4.05,2.42,6.51,7.22,9.77,10.83,13.4,17,1.2,2.04,2.73,3.88,3.97,5.9,1.1,1.8,1.91,3.27,2.65,3.13.77-.14,1.03-1.94,1.06-2.15.48-3.31-2.21-5.26-5.52-10.5-4.03-6.37-2.75-7.76-5.98-11.02-.43-.44-1.86-1.83-2.79-4.1-.24-.6-1.44-3.52-.38-4.49,1.01-.94,3.6.37,4.5.82,6.67,3.37,10.87,11.63,13.14,16.21,6.78,13.68,9.72,21.14,11.15,20.77.47-.12.41-1.01,1.2-6.26.91-6.04,1.04-5.23,1.26-7.55.56-6.15-.74-7.79.91-10.99.46-.89,1.43-2.7,3.49-3.49,1.47-.57,3.87-.76,4.94.48,1.16,1.35-.36,3.09-.6,7.59-.21,3.87.84,3.9.6,7.71ZM468.6,243.16c-12.84,1.91-25.75,3.38-38.49,5.79-8.82,1.67-9.83,4.5-7.51,13.08.54,2,.19,4.84-.9,6.56-3.18,4.99-8.63,4.09-13.57,4.3-3.74.16-6.01-1.87-7.06-5.17-1.31-4.11-3.96-4.92-7.99-4.67-14.29.89-28.62,1.17-42.89,2.3-3.85.3-8.16,1.97-11.19,4.37-15.54,12.3-30.72,25.04-46.04,37.63-1.99,1.64-4.02,3.24-6.03,4.85-.31-.39-.62-.79-.94-1.18,5.89-4.85,11.75-9.74,17.68-14.56,13.56-11.02,28.13-21.04,40.33-33.39,6.64-6.72,13.59-6.31,20.76-6.77,9.69-.63,19.48.34,29.23.63-.01.64-.03,1.28-.04,1.92-13.77,0-27.55-.04-41.32.07-1.44.01-2.88.94-4.32,1.44.16.46.33.92.49,1.38,4.92,0,9.84.09,14.76-.02,10.82-.24,21.65-.49,32.46-.95,3.53-.15,5.44,1.22,6.89,4.36,3.05,6.62,13.46,7.85,18.1,2.21.55-.67.42-2.03.34-3.05-.43-5.32-.95-10.63-1.5-16.64,17.78-2.43,34.43-4.7,51.08-6.97.12.56.23,1.12.35,1.68-.89.27-1.76.67-2.68.8Z"/>
  </g>
</svg>