<?xml version="1.0" encoding="utf-8"?>
<!-- Generator: Adobe Illustrator 28.3.0, SVG Export Plug-In . SVG Version: 6.00 Build 0)  -->
<svg version="1.1" id="Layer_1" xmlns="http://www.w3.org/2000/svg" xmlns:xlink="http://www.w3.org/1999/xlink" x="0px" y="0px"
	 viewBox="0 0 851.1 867.7" style="enable-background:new 0 0 851.1 867.7;" xml:space="preserve">
<style type="text/css">
	.st0{fill:#FFFFFF;}
</style>
<g>
	<path class="st0" d="M573,358.7c-2.3-17.1-6.4-34-10.1-50.9c-1.6-7.4-6.2-12.2-13.3-15.6c-9.9-4.7-19.5-10.2-28.6-16.3
		c-11.6-7.8-23.2-15.9-31-27.9c-5-7.6-8.8-9.5-17.6-1.7c-4.9,4.3-9.6,8.7-14.5,13.3c-7.1-7.2-15.2-13.2-17-23.8
		c-0.3-1.6,0.4-3.9,1.4-5c3.1-3.4,4.8-6.7,2.1-11.2c-0.8-1.3-1.1-3.4-0.5-4.7c2.2-5,0.5-8.6-3.2-11.9c-1.2-1-1.6-2.8-2.5-4.3
		c-4.4-7.6-7.9-16.1-13.6-22.5c-6.1-6.8-14.5-11.6-21.8-17.2c-0.9-0.7-1.9-1.6-2.1-2.5c-4.2-13.7-14.1-17.5-27.2-16.4
		c-2.2,0.2-4.8-0.1-6.7-1.1c-10.9-5.5-21.4-4.4-32.2,0.8c-3.2,1.5-7.6,1-11.4,0.9c-3.9-0.1-7.7-1-12.9-1.7c-1.2-2.4-2.9-6-4.2-8.6
		c3.5-3.1,7.2-5,8.5-7.9c4.4-9.8,8.1-20,11.9-30.1c0.6-1.5,0.7-3.2,0.9-4.9c0.2-3.7,1.3-6.4,5.1-8.2c4.7-2.2,6.9-7.9,4.5-10.6
		c-3.1-3.4-1.8-5.9,0.4-8.7c2.8-3.6,3.2-7.4,0.3-11c-2.3-2.7-2.7-5.3-1.7-8.7c1.3-4.8,0.5-8.7-4.9-11c-1.9-0.8-3.5-3.6-4.1-5.8
		c-2.9-10.6-3.6-11.4-14.7-12.6c-1.7-4.9-5-7.9-10.1-9.4c-4.6-1.4-9-3.2-12.4,2.4c-0.6,1-2.6,1.4-4,1.7c-8.5,1.8-16.9,3.5-25.4,5.2
		c-24.1,4.6-39.4,18.8-46.5,42.2c-0.8,2.5-1.6,5-2.4,7.6c-6.1-3.5-9.2-2.3-11.2,3.9c-0.7,2-1,4.2-1.2,6.4c-0.4,4,0.2,8.3-1.2,11.8
		c-2.3,5.8-0.3,9.9,3.2,14.1c3.8,4.5,8.4,4.8,13.6,3.1c0.9-0.3,1.9-0.4,3.2-0.7c-8,9-7.4,18.1,1.4,25.4c-2.5,6.6-0.4,12,4.3,16.7
		c3.4,3.4,6.6,1.3,10-1c3.8,6.4,8.8,4,13.7,1.8c0.6,6-8.6,14.1-14.5,14c-6.2,0-12.5,0.4-18.7,1c-5.6,0.6-10,3.3-12.9,8.3
		c-0.6,1.1-2.1,2.1-3.4,2.4c-26.3,6.2-40,25.4-49.9,48.4c-0.6,1.3-0.3,3.4,0.4,4.5c0.5,0.7,2.8,0.5,4.1,0.2c2.9-0.7,5.8-1.8,8.7-2.7
		c0.4,0.4,0.9,0.8,1.3,1.2c-1.6,4.4-3.3,8.9-4.8,13.3c-0.7,2-1.5,4-1.8,6.1c-0.4,3.2-0.2,6.4-0.7,9.6c-0.5,3.1-1.4,6.2-2.1,9.2
		c-0.9,4,0.8,5.8,4.8,5.1c3.1-0.5,6.3-1.3,10.1-2.2c-1.3,4-2.4,7.2-3.3,10.4c-0.7,2.5-1.6,5.1-1.7,7.7c-0.3,7,0,14-0.5,20.9
		c-0.2,2.6-1.5,5.6-3.3,7.4c-9,8.8-15.1,19.4-19.7,31c-0.8,2.1-1.7,4.2-2.6,6.3c-9.1-4.3-13.7-1.1-13.1,8.6c0.1,1.5,0.5,3,0.6,4.5
		c0.4,6.5,1.3,13,1.1,19.4c-0.4,14.7-3,29.2-10.8,41.8c-4.3,7.1-7.2,14.1-6,22c2.4,14.9,1.4,19.6-3.4,27.4
		c-2.4,3.9-6.2,7.5-5.5,12.5c0.3,2.4,1.5,3.6,1.4,6.8c-0.1,2.9-1.1,3.7-1.8,7.2c-0.4,1.7-0.4,3.7-0.4,7.7
		c-0.1,6.3,0.2,12.2,0.2,12.2c-12.9-6.1-21.5-6.9-21.5-6.9c-3.8-3-9.8-1.4-13.6,2.5c-3.7,3.8-4.7,10.3-2.2,14.9
		c2.4,4.4,5.3,5.3,12.1,3.9c3.5-0.7,7-1.2,10.5-1.8c1,8.9-0.4,14.5-4.5,20.8c-1.9,3-2.2,5.6-2.7,6.8c-1.4,3.8-3.8,9.4-8.7,17.3
		C23,707,5.7,757.3,3.3,761.8c-0.3,0.5-2,3.7-2.8,8.2c-0.7,4-0.3,7-0.2,8.2c1.1,10.2-1.1,21.3,0.1,39.1c0.1,1.4,0.4,5.1,2.4,6
		c1.3,0.6,3.2-0.2,6.2-2.1c1.5-1,2.6-2,2.8-2.1c13-12.2,16.8-21.2,16.8-21.2c0.9-2.2,1.8-4.8,4-9.1c1.6-3,2.9-5.2,3-5.4
		c2.5-4.2,25.2-60.2,81.2-202.6c2.7-2.4,6.6-6.4,8.7-12.4c0.5-1.3,0.8-2.6,1.1-3.9c2.7-4.6,5.3-8.8,8.2-13.8
		c3.3,1.3,7.1,2.7,10.9,4.3c4.2,1.8,6.6,4.2,5.4,9.6c-1.1,4.6,2.4,7.8,6.9,6c5.2-2.1,10.2-5.3,14.6-8.8c1.6-1.3,2.2-4.9,2-7.3
		c-0.9-10-7.6-13.4-17.9-10c-3.2-2.7-6-5-8.3-7c-7.9-6.7-6.9-6.1-8-6.9c-0.3-0.2-0.9-0.7-1.6-1.4c-0.9-1-1.4-2.2-2-4.6
		c-0.7-2.9-1-4.3-0.9-5.9c0-0.5,0.2-1.7,2.1-6.5c1.5-3.8,2.5-5.6,3.8-7c2.9-3,5-2.1,7.9-4.5c2.1-1.7,2.6-3.6,4.6-10.9
		c2.8-10.5,4.2-15.8,4-17.6c-0.9-6.6-4.9-12-6.1-13.6c-2.9-3.5-6.3-5.7-6.8-9.9c-0.2-2.5,0.5-4.6,1.3-5.8
		c7.8-10.3,16-20.4,23.8-30.8c2.7-3.6,4.5-7.8,6.8-11.7c0.8-1.4,1.5-3,2.7-4.1c17.2-14.8,22.1-35.3,25.1-56.1
		c1.7-12.2,6.7-22.5,12.6-32.7c4.9,3.5,6.3,9.9,3.9,16c-2.7,7.1-5.2,14.3-7.8,21.5c-0.4,1-1,2.5-1.8,2.7c-4.8,1.3-5.8,5-6.3,9.2
		c-0.1,0.8-0.3,1.6-0.5,2.4c-3.1,10.8-6.2,21.6-9.1,32.4c-0.6,2.2-0.7,4.5-1,6.8c-0.2,1.1,0,2.5-0.6,3.3
		c-9.7,12.5-12.4,27.9-17.6,42.2c-3.2,8.7-5,18-7.4,27c-0.4,1.4-1.1,2.6-1.6,3.9c-0.3,1.1-0.6,2.4-0.9,4c-0.2,1.1-0.4,2.5-0.4,4.4
		c0,1.3,0.2,3,0.5,6.4c0.1,1.3,0.1,1.3,0.2,1.6c0,1.1-0.1,2.7-0.9,5.3c-1.6,5.3-2.9,10.6-3.7,16c-0.3,1.9,0.5,4.8,1.9,6
		c3,2.5,6.4,5,10.1,6.2c5.1,1.6,7.4,4.6,8.2,9.5c0.4,2.3,1,4.6,1.4,6.9c2.9,16.9,6.1,33.8,13,49.7c0.9,2,0.5,4.9-0.2,7.2
		c-2.4,7.8-2.4,15.7-1.2,23.7c1.5,10.7,2.6,21.4,3.8,31.4c-4.2,0-7.6-1-9.7,0.2c-3.8,2.2-1.8,6-0.5,8.9c2,4.3,1.9,8.5,1.3,13.1
		c-0.5,3.6,0.3,7.5,1.3,11c1.9,6.7,5.3,13.1,6.3,19.9c3.3,21.4,6.8,42.8,8.2,64.4c0.8,13.2-3.9,25.6-16.9,32.7
		c-5.4,3-11.8,5-15.9,9.2c-6,6.1-13.3,6.2-20.5,7.7c-0.9,0.2-2,0.4-2.8,1c-5.1,4.1-10.1,8.5-15.3,12.5c-1.7,1.3-3.9,2.2-6,2.5
		c-4.8,0.7-7.6,5.2-4.6,9c1.7,2.3,5,4.4,7.7,4.7c7.6,0.9,15.3,1.3,22.9,1c28.9-1,57.6-6.4,86.7-5.2c3.4,0.1,7-0.8,10.3-1.7
		c6.2-1.8,7.9-5.7,5.3-11.5c-0.9-2.1-2.4-4-3.4-6.1c-2.2-5-5.4-10.5-2.1-15.5c2.8-4.2,2.5-7.3,0.4-10.9c-3.2-5.5-3.9-11.2-1.8-17.3
		c0.5-1.3-0.2-3.1-0.6-4.6c-0.5-2.2-1.9-4.4-1.8-6.5c0.5-11.8,0.9-23.6,2.1-35.3c0.6-6.1,2-12.5,7.6-16.7c1.2-0.9,1.6-2.8,2.2-4.4
		c1.7-4.3,3.4-8.6,4.9-13c1.8-5.3,4-10.7,4.9-16.2c2.8-16.4-1.3-31.9-8.1-46.6c-5-10.6-0.2-19.2,3.5-28.8c2.3,1.1,4.1,1.9,5.9,2.7
		c5.8,2.5,11.4,5.4,17.4,7.4c7,2.3,12-1.3,13-8.7c0.3-2.2,0.6-4.5,1-7c1.9,0.4,3.2,1,4.4,0.8c11.9-1.7,16.9,5.6,22.5,14.6
		c4.4,7.1,5.4,12.9,3.4,20.7c-3.7,14.7-5.1,29.6,2.4,43.9c0.8,1.4-0.4,3.8-0.2,5.7c0.4,3.3,0.7,6.7,1.7,9.8c1.5,4.4,3.7,8.6,5.5,13
		c0.9,2.3,1.3,4.8,2.5,6.9c2.5,4.2,6.4,7.9,8.1,12.4c4.2,10.7,8.9,21.4,10.9,32.6c2.2,12,5.2,24.5,0.6,36.8c-1.3,3.7-0.6,7,2.5,9.5
		c2.9,2.4,3.3,5.2,1.7,8.5c-0.8,1.6-1.1,3.1-0.9,4.6c0.3,1.7,1.1,2.6,1.9,3.6c2.9,4.5-1.1,8.2,1.3,14.4c1.2,3.3,2.6,2.9,3.3,6
		c0.8,3.5-0.9,4.5-0.5,8.8c0.1,1.3,0.5,5.8,3.5,8.2c2.5,2,5.8,1.8,7.7,1.7c20.5-1.6,30.8-2.4,36.3-10c1.1-1.5,3-4.2,3-7.8
		c0-3.7-2-4.8-5.1-12c-1.3-3-2.5-5.7-3.3-9.5c-0.8-3.7-0.9-7.5-1.3-11.3c-0.2-1.6-0.8-3.4-0.3-4.7c2.4-6.5,1.3-12.1-2.2-18
		c-2.2-3.7-3.6-8.9-3-13c0.6-4,0.6-7.4-0.9-11c-0.8-2.1-1.7-4.4-1.6-6.7c0.3-18,0.8-36,1.1-54c0.1-4.3,1.4-7.7,5.5-9.8
		c3.7-1.9,4.2-5.2,2-8.5c-2.4-3.4-5.3-6.3-7.9-9.5c-1-1.2-2.1-2.5-2.5-4c-2.2-9.7-4.3-19.5-6.4-29.3c-0.4-1.9-0.6-3.9-0.9-5.9
		c0.6-0.2,1.1-0.3,1.7-0.5c2.2,4.4,4.2,8.9,6.6,13.1c2.7,4.9,5.1,10.3,9,14c4.2,3.9,3.2,6.4,5.8,9.2c1.4,1.4,4.8,5,6.5,4.2
		c1.9-0.9-3.6-7.1,0.4-13.6c3.3-5.4,3.7-11.3,2.5-17.4c-1.6-8-3.2-16-5-24c-3.2-14.4-6.5-28.8-9.8-43.3c1.3,0.1,1.6,0.5,1.8,1
		c9.9,27.4,25,51.8,41.6,75.5c1.7,2.4,3.4,7,6.9,4.7c4-2.6,0.4-6.1-1.4-9c-2.7-4.5-5.5-9-8.2-13.5c2.5-2.5,5.7-6.2,8-11.5
		c2-4.6,2.5-8.5,2.7-11.1c1.6-25.8-0.8-50.9-12.8-74.4c-0.8-1.6-1.4-3.3-2.2-5c1.5,0.1,2.2,0.5,2.9,1c1.6,1.4,3.2,2.9,4.8,4.4
		c13.5,11.9,28.9,20.9,45.6,27.4c8.4,3.3,11.7,2,16.8-4.8c26.6-35.9,43.6-75.7,49.2-120.2C575.2,418.9,576.9,388.8,573,358.7
		L573,358.7z"/>
	<g>
		<path d="M573.1,358.7c-2.3-17.1-6.4-34-10.1-50.9c-1.6-7.4-6.2-12.2-13.3-15.6c-9.9-4.7-19.5-10.2-28.6-16.3
			c-11.6-7.8-23.2-15.9-31-27.9c-5-7.6-8.8-9.5-17.6-1.7c-4.9,4.3-9.6,8.7-14.5,13.3c-7.1-7.2-15.2-13.2-17-23.8
			c-0.3-1.6,0.4-3.9,1.4-5c3.1-3.4,4.8-6.7,2.1-11.2c-0.8-1.3-1.1-3.4-0.5-4.7c2.2-5,0.5-8.6-3.2-11.9c-1.2-1-1.6-2.8-2.5-4.3
			c-4.4-7.6-7.9-16.1-13.6-22.5c-6.1-6.8-14.5-11.6-21.8-17.2c-0.9-0.7-1.9-1.6-2.1-2.5c-4.2-13.7-14.1-17.5-27.2-16.4
			c-2.2,0.2-4.8-0.1-6.7-1.1c-10.9-5.5-21.4-4.4-32.2,0.8c-3.2,1.5-7.6,1-11.4,0.9c-3.9-0.1-7.7-1-12.9-1.7c-1.2-2.4-2.9-6-4.2-8.6
			c3.5-3.1,7.2-5,8.5-7.9c4.4-9.8,8.1-20,11.9-30.1c0.6-1.5,0.7-3.2,0.9-4.9c0.2-3.7,1.3-6.4,5.1-8.2c4.7-2.2,6.9-7.9,4.5-10.6
			c-3.1-3.4-1.8-5.9,0.4-8.7c2.8-3.6,3.2-7.4,0.3-11c-2.3-2.7-2.7-5.3-1.7-8.7c1.3-4.8,0.5-8.7-4.9-11c-1.9-0.8-3.5-3.6-4.1-5.8
			c-2.9-10.6-3.6-11.4-14.7-12.6c-1.7-4.9-5-7.9-10.1-9.4c-4.6-1.4-9-3.2-12.4,2.4c-0.6,1-2.6,1.4-4,1.7c-8.5,1.8-16.9,3.5-25.4,5.2
			c-24.1,4.6-39.4,18.8-46.5,42.2c-0.8,2.5-1.6,5-2.4,7.6c-6.1-3.5-9.2-2.3-11.2,3.9c-0.7,2-1,4.2-1.2,6.4c-0.4,4,0.2,8.3-1.2,11.8
			c-2.3,5.8-0.3,9.9,3.2,14.1c3.8,4.5,8.4,4.8,13.6,3.1c0.9-0.3,1.9-0.4,3.2-0.7c-8,9-7.4,18.1,1.4,25.4c-2.5,6.6-0.4,12,4.3,16.7
			c3.4,3.4,6.6,1.3,10-1c3.8,6.4,8.8,4,13.7,1.8c0.6,6-8.6,14.1-14.5,14c-6.2,0-12.5,0.4-18.7,1c-5.6,0.6-10,3.3-12.9,8.3
			c-0.6,1.1-2.1,2.1-3.4,2.4c-26.3,6.2-40,25.4-49.9,48.4c-0.6,1.3-0.3,3.4,0.4,4.5c0.5,0.7,2.8,0.5,4.1,0.2
			c2.9-0.7,5.8-1.8,8.7-2.7c0.4,0.4,0.9,0.8,1.3,1.2c-1.6,4.4-3.3,8.9-4.8,13.3c-0.7,2-1.5,4-1.8,6.1c-0.4,3.2-0.2,6.4-0.7,9.6
			c-0.5,3.1-1.4,6.2-2.1,9.2c-0.9,4,0.8,5.8,4.8,5.1c3.1-0.5,6.3-1.3,10.1-2.2c-1.3,4-2.4,7.2-3.3,10.4c-0.7,2.5-1.6,5.1-1.7,7.7
			c-0.3,7,0,14-0.5,20.9c-0.2,2.6-1.5,5.6-3.3,7.4c-9,8.8-15.1,19.4-19.7,31c-0.8,2.1-1.7,4.2-2.6,6.3c-9.1-4.3-13.7-1.1-13.1,8.6
			c0.1,1.5,0.5,3,0.6,4.5c0.4,6.5,1.3,13,1.1,19.4c-0.4,14.7-3,29.2-10.8,41.8c-4.3,7.1-7.2,14.1-6,22c2.4,14.9,1.4,19.6-3.4,27.4
			c-2.4,3.9-6.2,7.5-5.5,12.5c0.3,2.4,1.5,3.6,1.4,6.8c-0.1,2.9-1.1,3.7-1.8,7.2c-0.4,1.7-0.4,3.7-0.4,7.7
			c-0.1,6.3,0.2,12.2,0.2,12.2c-12.9-6.1-21.5-6.9-21.5-6.9c-3.8-3-9.8-1.4-13.6,2.5c-3.7,3.8-4.7,10.3-2.2,14.9
			c2.4,4.4,5.3,5.3,12.1,3.9c3.5-0.7,7-1.2,10.5-1.8c1,8.9-0.4,14.5-4.5,20.8c-1.9,3-2.2,5.6-2.7,6.8c-1.4,3.8-3.8,9.4-8.7,17.3
			C23.1,707,5.7,757.3,3.4,761.8c-0.3,0.5-2,3.7-2.8,8.2c-0.7,4-0.3,7-0.2,8.2c1.1,10.2-1.1,21.3,0.1,39.1c0.1,1.4,0.4,5.1,2.4,6
			c1.3,0.6,3.2-0.2,6.2-2.1c1.5-1,2.6-2,2.8-2.1c13-12.2,16.8-21.2,16.8-21.2c0.9-2.2,1.8-4.8,4-9.1c1.6-3,2.9-5.2,3-5.4
			c2.5-4.2,25.2-60.2,81.2-202.6c2.7-2.4,6.6-6.4,8.7-12.4c0.5-1.3,0.8-2.6,1.1-3.9c2.7-4.6,5.3-8.8,8.2-13.8
			c3.3,1.3,7.1,2.7,10.9,4.3c4.2,1.8,6.6,4.2,5.4,9.6c-1.1,4.6,2.4,7.8,6.9,6c5.2-2.1,10.2-5.3,14.6-8.8c1.6-1.3,2.2-4.9,2-7.3
			c-0.9-10-7.6-13.4-17.9-10c-3.2-2.7-6-5-8.3-7c-7.9-6.7-6.9-6.1-8-6.9c-0.3-0.2-0.9-0.7-1.6-1.4c-0.9-1-1.4-2.2-2-4.6
			c-0.7-2.9-1-4.3-0.9-5.9c0-0.5,0.2-1.7,2.1-6.5c1.5-3.8,2.5-5.6,3.8-7c2.9-3,5-2.1,7.9-4.5c2.1-1.7,2.6-3.6,4.6-10.9
			c2.8-10.5,4.2-15.8,4-17.6c-0.9-6.6-4.9-12-6.1-13.6c-2.9-3.5-6.3-5.7-6.8-9.9c-0.2-2.5,0.5-4.6,1.3-5.8
			c7.8-10.3,16-20.4,23.8-30.8c2.7-3.6,4.5-7.8,6.8-11.7c0.8-1.4,1.5-3,2.7-4.1c17.2-14.8,22.1-35.3,25.1-56.1
			c1.7-12.2,6.7-22.5,12.6-32.7c4.9,3.5,6.3,9.9,3.9,16c-2.7,7.1-5.2,14.3-7.8,21.5c-0.4,1-1,2.5-1.8,2.7c-4.8,1.3-5.8,5-6.3,9.2
			c-0.1,0.8-0.3,1.6-0.5,2.4c-3.1,10.8-6.2,21.6-9.1,32.4c-0.6,2.2-0.7,4.5-1,6.8c-0.2,1.1,0,2.5-0.6,3.3
			c-9.7,12.5-12.4,27.9-17.6,42.2c-3.2,8.7-5,18-7.4,27c-0.4,1.4-1.1,2.6-1.6,3.9c-0.3,1.1-0.6,2.4-0.9,4c-0.2,1.1-0.4,2.5-0.4,4.4
			c0,1.3,0.2,3,0.5,6.4c0.1,1.3,0.1,1.3,0.2,1.6c0,1.1-0.1,2.7-0.9,5.3c-1.6,5.3-2.9,10.6-3.7,16c-0.3,1.9,0.5,4.8,1.9,6
			c3,2.5,6.4,5,10.1,6.2c5.1,1.6,7.4,4.6,8.2,9.5c0.4,2.3,1,4.6,1.4,6.9c2.9,16.9,6.1,33.8,13,49.7c0.9,2,0.5,4.9-0.2,7.2
			c-2.4,7.8-2.4,15.7-1.2,23.7c1.5,10.7,2.6,21.4,3.8,31.4c-4.2,0-7.6-1-9.7,0.2c-3.8,2.2-1.8,6-0.5,8.9c2,4.3,1.9,8.5,1.3,13.1
			c-0.5,3.6,0.3,7.5,1.3,11c1.9,6.7,5.3,13.1,6.3,19.9c3.3,21.4,6.8,42.8,8.2,64.4c0.8,13.2-3.9,25.6-16.9,32.7
			c-5.4,3-11.8,5-15.9,9.2c-6,6.1-13.3,6.2-20.5,7.7c-0.9,0.2-2,0.4-2.8,1c-5.1,4.1-10.1,8.5-15.3,12.5c-1.7,1.3-3.9,2.2-6,2.5
			c-4.8,0.7-7.6,5.2-4.6,9c1.7,2.3,5,4.4,7.7,4.7c7.6,0.9,15.3,1.3,22.9,1c28.9-1,57.6-6.4,86.7-5.2c3.4,0.1,7-0.8,10.3-1.7
			c6.2-1.8,7.9-5.7,5.3-11.5c-0.9-2.1-2.4-4-3.4-6.1c-2.2-5-5.4-10.5-2.1-15.5c2.8-4.2,2.5-7.3,0.4-10.9c-3.2-5.5-3.9-11.2-1.8-17.3
			c0.5-1.3-0.2-3.1-0.6-4.6c-0.5-2.2-1.9-4.4-1.8-6.5c0.5-11.8,0.9-23.6,2.1-35.3c0.6-6.1,2-12.5,7.6-16.7c1.2-0.9,1.6-2.8,2.2-4.4
			c1.7-4.3,3.4-8.6,4.9-13c1.8-5.3,4-10.7,4.9-16.2c2.8-16.4-1.3-31.9-8.1-46.6c-5-10.6-0.2-19.2,3.5-28.8c2.3,1.1,4.1,1.9,5.9,2.7
			c5.8,2.5,11.4,5.4,17.4,7.4c7,2.3,12-1.3,13-8.7c0.3-2.2,0.6-4.5,1-7c1.9,0.4,3.2,1,4.4,0.8c11.9-1.7,16.9,5.6,22.5,14.6
			c4.4,7.1,5.4,12.9,3.4,20.7c-3.7,14.7-5.1,29.6,2.4,43.9c0.8,1.4-0.4,3.8-0.2,5.7c0.4,3.3,0.7,6.7,1.7,9.8c1.5,4.4,3.7,8.6,5.5,13
			c0.9,2.3,1.3,4.8,2.5,6.9c2.5,4.2,6.4,7.9,8.1,12.4c4.2,10.7,8.9,21.4,10.9,32.6c2.2,12,5.2,24.5,0.6,36.8c-1.3,3.7-0.6,7,2.5,9.5
			c2.9,2.4,3.3,5.2,1.7,8.5c-0.8,1.6-1.1,3.1-0.9,4.6c0.3,1.7,1.1,2.6,1.9,3.6c2.9,4.5-1.1,8.2,1.3,14.4c1.2,3.3,2.6,2.9,3.3,6
			c0.8,3.5-0.9,4.5-0.5,8.8c0.1,1.3,0.5,5.8,3.5,8.2c2.5,2,5.8,1.8,7.7,1.7c20.5-1.6,30.8-2.4,36.3-10c1.1-1.5,3-4.2,3-7.8
			c0-3.7-2-4.8-5.1-12c-1.3-3-2.5-5.7-3.3-9.5c-0.8-3.7-0.9-7.5-1.3-11.3c-0.2-1.6-0.8-3.4-0.3-4.7c2.4-6.5,1.3-12.1-2.2-18
			c-2.2-3.7-3.6-8.9-3-13c0.6-4,0.6-7.4-0.9-11c-0.8-2.1-1.7-4.4-1.6-6.7c0.3-18,0.8-36,1.1-54c0.1-4.3,1.4-7.7,5.5-9.8
			c3.7-1.9,4.2-5.2,2-8.5c-2.4-3.4-5.3-6.3-7.9-9.5c-1-1.2-2.1-2.5-2.5-4c-2.2-9.7-4.3-19.5-6.4-29.3c-0.4-1.9-0.6-3.9-0.9-5.9
			c0.6-0.2,1.1-0.3,1.7-0.5c2.2,4.4,4.2,8.9,6.6,13.1c2.7,4.9,5.1,10.3,9,14c4.2,3.9,3.2,6.4,5.8,9.2c1.4,1.4,4.8,5,6.5,4.2
			c1.9-0.9-3.6-7.1,0.4-13.6c3.3-5.4,3.7-11.3,2.5-17.4c-1.6-8-3.2-16-5-24c-3.2-14.4-6.5-28.8-9.8-43.3c1.3,0.1,1.6,0.5,1.8,1
			c9.9,27.4,25,51.8,41.6,75.5c1.7,2.4,3.4,7,6.9,4.7c4-2.6,0.4-6.1-1.4-9c-2.7-4.5-5.5-9-8.2-13.5c2.5-2.5,5.7-6.2,8-11.5
			c2-4.6,2.5-8.5,2.7-11.1c1.6-25.8-0.8-50.9-12.8-74.4c-0.8-1.6-1.4-3.3-2.2-5c1.5,0.1,2.2,0.5,2.9,1c1.6,1.4,3.2,2.9,4.8,4.4
			c13.5,11.9,28.9,20.9,45.6,27.4c8.4,3.3,11.7,2,16.8-4.8c26.6-35.9,43.6-75.7,49.2-120.2C575.3,418.9,577,388.8,573.1,358.7
			L573.1,358.7z M480.6,244.7c0.6-0.1,1.1-0.1,1.7-0.2c0.1,0.6,0.6,2.8,1,5.6c4.4,25.6,6.8,73.2,9.1,86.3c0.5,2.7,1.4,6.4,3.2,6.7
			c0.7,0.1,1.3-0.2,1.6-0.4c-0.3,1-0.3,2.7-1,3c-5.1,2.7-3.8,7.1-3.4,11.3c0.4,5.5,0.8,11,1.3,16.4c0.2,2.8,0.4,5.1,0.5,6.6
			c-1.2,0-2.4,0-3.6,0c-0.2,0-0.5,0.1-0.7,0.1c-1.5-5.3-3-10.6-4.6-16.2c1.8,1.2,3.6,2.3,5.3,3.5c0-1.3-0.1-3.6-0.2-6.5
			c-0.8-16.2-3-25-5.1-43.8c-0.5-4.9-1.1-9.8-1.5-14.6c-1.7-17.2-2.6-34.5-3.9-51.7C480.1,248.8,480.5,246.7,480.6,244.7
			L480.6,244.7z M454.6,415.2c2.4-1.4,4.9-3.2,6.3-5.5c5.1-8.2,11.5-10.1,21.9-8.5c-0.7,0.8-1.2,1.4-1.6,1.7
			c1.3,1.5,2.9,2.8,3.5,4.5c0.3,0.7-1.7,2.2-2.9,3.7c-3.4-8.7-8-9.8-15.1-4.1c-2.1,1.6-3.8,3.8-5.6,5.7c-6.8,7-13.7,7.8-22.7,4.3
			c-9.8-3.9-14.2-10.2-15-21c-1-14.3-2.5-28.5-0.4-42.9c0.5-3.3,1.7-6.5,2.8-10.2c-0.3,17,0.3,31,1.1,41.6c0.5,6.5,1.2,15,7,18.9
			c3.9,2.6,9.4,2.6,10.1,2.6c3.5,0.2,6.9-0.9,6-5.4c1.9-0.3,3.6-0.1,5-0.8c7.1-3.2,14.2-6.5,21.3-9.9c5-2.5,6.8-4.1,11.1-6.3
			c2.6-1.3,4.3-2.1,6.2-1.7c2.2,0.5,2.5,1.9,6.2,3c0.5,0.1,2,0.6,4.1,0.9c1.5,0.2,2.9,0.1,3.9,0c-3.4,3.8-6.3,6.3-8.3,9.5
			c-3.5,5.6-9.4,8.3-14.6,4.5c-10.5-7.6-19.5-3.6-27.7,2.9c-5.4,4.2-10.5,8-17.4,9c-0.9,0.1-1.7,0.9-2.6,1.4
			C441,417.7,448.8,418.7,454.6,415.2z M482.8,330.5c-0.7,10-10.2,16.1-10.6,15.8c-0.4-0.3,5.1-6.3,7-15.5c0.3-1.5,0.7-4-0.2-6.8
			c-0.4-1.3-1.4-3.9-4-5.2c-3.3-1.6-7.4-0.2-7.5,0.8c-0.1,1,3.9,1.3,4.5,3.6c0.4,1.7-1.3,3.2-1.4,3.3c-2.2,2.3-5.7,1.6-6-1.6
			c-0.2-2.4,0.5-6.2,2.2-7.2c2.6-1.6,6.5-2.4,9.5-1.7C481.9,317.1,483.2,325.7,482.8,330.5L482.8,330.5z M485.3,352.7
			c3,2.3,3.7,6.9,2.5,7.9c-0.6,0.5-1.8,0.3-2.6-0.3c-1.2-1-0.5-2.8-1.5-3.6c-0.7-0.7-2.2-0.9-5.9,0.8c-0.7,0.1-2.2,0.2-2.7-0.6
			c-0.8-1.1,0.7-3.7,2.6-4.9C480.1,350.6,483.2,351.1,485.3,352.7L485.3,352.7z M494.6,358.6c-1.5-1.9-0.1-4.9,0.2-5.5
			c1.8-3.8,7-7.2,10-5.4c2.5,1.4,3.2,6,1.8,7.2s-4.2-1.6-6.5-0.2c-2,1.3-1.4,4.7-3.1,5.1C496.1,360,495.1,359.2,494.6,358.6
			L494.6,358.6z M508.5,407.8c1,11.2,2,22.4,3,33.5c-0.3,0-0.6,0.1-0.9,0.1c-1.1-11.2-2.2-22.4-3.3-33.5
			C507.8,407.8,508.2,407.8,508.5,407.8L508.5,407.8z M508.8,319.6c-0.1,0.8-0.3,1.9-1.2,3c-1.6,2-5,3.4-6.6,1.9
			c-1.1-0.9-1.4-2.9-0.6-4.1c0.8-1.3,2.3-0.8,3.5-2.1c1.2-1.2,1.6-3.5,0.7-4.5c-1.2-1.4-5.3-0.9-7.2,1.3c-2.9,3.3,0,10.1,2.6,16.1
			c2.4,5.5,5.1,9.7,7.1,12.4c-7.8-6.1-12.6-14.1-13.6-24c-0.2-2,0.2-3.7,1-5c1.7-2.8,4.9-3.4,5.6-3.5c0.7-0.1,4.4-0.7,7,1.9
			C509.6,315.3,508.9,318.9,508.8,319.6L508.8,319.6z M491.4,266.9c2,1.4,4,2.6,5.9,4c15,10.7,29.8,21.7,45,32.1
			c4.2,2.8,6,5.6,4.8,11.2c-3.7-1.4-7.3-2.2-10.5-3.9c-14.8-8.1-29.2-16.6-41.2-28.6C491.2,277.6,488.8,273.5,491.4,266.9
			L491.4,266.9z M479.8,270.4c-2.6,2.8-5.2,5.6-7.8,8.3c2.7-1.9,5.4-3.8,8-5.7c0.1,1.1,0.1,2.1,0.2,3.2
			c-40.1,37-55.4,49.2-59.8,50.6c-0.8,0.3-4.4,2.6-8.6,5.8c-1,0.8-1.8,2.2-2,3.5c-2.3,10.8-4.5,21.7-6.6,31.8
			c-2.5-4.4-4.9-8.8-7.4-13.1c-0.3-7,0.4-17.8,6.6-28.4c0.9-1.5,1.7-2.8,2.9-4.4c4-5.4,12.7-16,31.7-30.5c0.5,2.2,1.2,6.7-0.6,11.8
			c-0.8,2.2-1.9,4-2.9,5.3c-7.1,6.6-14.1,13.3-21.2,19.9c2.9-2.2,5.8-4.5,8.8-6.9c7.4-6.1,14-12.3,19.9-18.4
			c0.2-2.2,0.6-4.4,0.6-6.6c0.1-3.4,0.5-6.5,2.3-9.1c1.1-1.5,2.3-2.3,3-2.8c2.4-1.6,4.7-3.3,6.9-5.1c1.4-1.1,2.1-1.4,13.6-11
			c0,0,11.2-9.4,11.7-9.7C479.4,262.7,479.6,266.6,479.8,270.4L479.8,270.4z M400.6,414.7c1.6,5.4,4.1,14.5,7.3,26.4
			c2.9,8,5.9,16,8.8,24.1c-0.6,0.2-1.1,0.5-1.7,0.7c-4.8-9.5-8.2-17.6-10.5-23.6c0,0-11.6-30.4-13.5-59.6c-0.3-5,0-9.2,0.1-9.7
			c0.4-5,1.3-9.1,2.1-11.9c1.9,3.3,3.8,6.6,5.7,10c-0.9,1.5-2.1,4-3,7.1C392.8,388.6,395.6,397.3,400.6,414.7L400.6,414.7z
			 M438,250.3c-0.5-1.3-0.4-1.1-0.8-2.5c-2.2-6.3-4.3-9-3.9-9.3c0.8-0.6,9,12.3,15.5,19.7c0.6,0.7,2.1,2.4,1.9,4.5
			c-0.1,1.4-1,2.7-2.7,4.1c-11.9,9.9-23.7,19.9-35.2,30.2c-7.6,6.8-14.6,14.1-21.8,21.2c-4.1,4-6.3,8.8-7.1,14.5
			c-3,21.9-6,43.8-9.1,65.8c-0.2,1.5-0.4,2.9-0.4,3.5c-1.9-5.1-4-10.9-6.2-16.7c-1.2-3-1.2-5.2,1.6-7.9c2.3-2.2,3.8-5.9,4.4-9.2
			c2.3-12.3,4.3-24.6,5.9-37c2-16,2.2-24.1,1.8-26.8c-0.4-2.5-1.7-10.3,0-10.9c0.4-0.1,0.8,0.1,0.9,0.2c1.5,0.9,1.3,3.7,1,7.8
			c-0.8,9.2-1.6,12.2,0.4,14.5c0.5,0.6,1,1.2,1.9,1.4c2.3,0.6,4.5-2.5,14-15.9c7.3-10.4,8.8-12.6,9-15.3c0-0.5,0.1-2.5,1.5-4.3
			c1.2-1.6,3.3-2.7,3.9-2.2c0.8,0.7-1.5,4.3-1,4.7c0.4,0.3,2.7-1.5,4.8-4.2c1.1-1.5,3.1-7.6,4.6-15.7c0.4-2.1-0.5-5.2-2-6.8
			c-6.3-6.8-9.3-15-12.1-23.6c6.4-0.8,11.2-0.2,15.1,2c4.3,2.5,6.6,7,8.3,10.1c3.4,6.2,4.3,12,6.7,12c0.5,0,1-0.2,1.3-0.6
			C440.9,256.6,439.6,254.8,438,250.3L438,250.3z M379.1,471.8c-3.5-2.2-6.3-4-9.1-5.8c0.4-0.5,0.7-0.9,1-1.4
			C374.1,465.8,379.7,463.5,379.1,471.8z M327.7,464.9c0,2.8-1,5.7-4,5c-2-0.5-4.7-3.2-5.1-5.2c-3.8-22.5-7.2-45-10.7-67.5
			c-0.2-1.1,0.2-2.2,0.4-4c6.2,3,4.9,9.3,7.5,13.7c-0.5-3.5-1-6.9-1.4-10.3c0.4-0.1,0.8-0.2,1.2-0.4c0.8,1.7,1.8,3.4,2.3,5.2
			c5.1,21,10.4,42,15,63c1.9,8.7-0.8,12.8-7.9,15.4c-4.5,1.6-5.8,0.9-6.2-3.8c-0.2-2,0-4,0-6.7c3.6,3.1,7.2,3.6,10.2,0.4
			c1-1.1,0.8-3.5,1.3-6.4C328.5,464.4,327.7,464.6,327.7,464.9L327.7,464.9z M312.2,382.5c15.5-0.3,27.6,9.7,41.7,13.7
			C338.5,396.2,325.8,388.1,312.2,382.5z M325.9,405.1c-0.6-2.4-1.1-4.8-1.6-7.2c0.4-0.2,0.9-0.5,1.3-0.7c1,1.4,2.3,2.7,2.8,4.3
			c1.5,4.7,2.7,9.6,4.2,14.4c0.4,1.3,1.2,2.5,1.9,3.8c-1.6-6.3-3.2-12.7-4.9-19c0.5-0.3,1.1-0.6,1.6-0.8c1,1.2,2.5,2.2,3,3.6
			c5.5,16,10.9,32.1,16.4,48.2c0.7,2,1.5,3.9,2.8,7.2c-3.8-0.8-6.5-1.4-9.1-2c3.9,4.2,7,4.3,11.1,1.4c2.9-2.1,1.9-4,1.1-6.5
			c-4.7-13.7-9.3-27.4-13.9-41.1c-0.5-1.4-0.7-2.8,0-4.5c2.9,7.7,5.9,15.5,8.8,23.2c3.3,8.9,6.5,17.8,10.1,26.6
			c1.8,4.5-1.2,6.7-3.1,9.7c-1.9,2.9-3.9,1.3-6.1,0.9c-8.5-1.8-13-5.8-14.5-15.5C335.2,435.4,329.9,420.3,325.9,405.1L325.9,405.1z
			 M359.9,364.1c-0.4-5-2.1-10-3.2-14.9c0.3-0.1,0.5-0.3,0.8-0.4c2.1,7,4.1,14.1,6.2,21C361.4,368.9,360.2,367.4,359.9,364.1
			L359.9,364.1z M357,295c-0.5,0.5-1.8,1.9-2.8,4.1c-1.6,3.5-1.5,6.7-1.4,8c0.3,8.8-2.9,18.3-3.2,18.3c-0.3,0-1.1-13.7,3.2-29.3
			c7.3-26.3,25.5-45.6,27.5-44.4c0.5,0.3,0,1.9-1.1,5.1C373.5,274.7,361.6,290,357,295L357,295z M358.6,268.9
			c1.5,1.3,0.2,5.1-1.5,7.4c-2,2.6-5.8,4.6-7.3,3.5c-1.7-1.3-0.7-6.7,2.6-9.5C354.2,268.8,357.3,267.7,358.6,268.9L358.6,268.9z
			 M354.6,258.6c1.3-2.9,4.3-7.1,6-6.5c2.1,0.8,2.8,9.5-1.1,11.6c-1.8,1-4.7,0.7-5.6-0.9C353.3,261.7,354,260.2,354.6,258.6z
			 M375,223.3c10.5,3.5,19.5,6.4,28.4,9.6c1.5,0.5,2.7,2.5,3.5,4.1c3.4,6.3,6.6,12.7,9.8,19.1c2.2,4.3,1.9,8.4-1.2,12.1
			c-3.1,3.8-7,2.2-10.6,1.2c-6.3-1.7-11.9-5-15.1-10.8c-4.9-8.8-9.4-17.9-13.7-27C375.1,229.6,375.4,227.1,375,223.3L375,223.3z
			 M402.5,223.4c-1.6,0.3-3.6-0.2-5.3-0.8c-12.3-4.1-24.4-8.8-36.8-12.3c-5.1-1.4-9.1-3.7-12.1-6.9c-0.6-0.7-5.6-6-6.5-14.1
			c-0.3-2.6-0.1-4.9,0.3-5c0.8-0.1,1.5,7.1,6.7,13c0.9,1,2.1,2.2,2.4,2c0.4-0.3-1.7-3.1-3.2-6.6c-1.6-3.7-2.1-6.9-2.3-9.1
			c1.7,0.1,2.8,0.2,5.1,0.4c8.5,5.9,11.1,8.4,10.8,9.1c-0.5,0.9-6.6-1.7-7.5,0c-0.1,0.2-0.2,0.5-0.1,0.8c0.6,1.2,4.8-0.8,6,0.6
			c1.2,1.4-0.7,6.1-3.9,7.5c-1.5,0.6-2.5,0.3-2.8,0.9c-0.5,1.1,2.1,3.7,5,4.7c2.9,1,5.8,0.5,5.9,0c0.1-0.7-4.8-1.2-5.1-3.4
			c-0.2-1.1,1-1.9,2.1-3.3c1.3-1.6,2.8-4.2,3.2-8.4c0.6,1.4,1.6,3.4,3.1,5.6c0.3,0.4,1.5,2.1,2.7,3.3c4.3,4.2,9,1.5,18,5.2
			c2.3,0.9,3.2,1.6,5.1,1.6c3.6,0,4.9-2.4,7.8-1.9c2.9,0.5,5,3.3,4.7,3.8c-0.3,0.5-2.6-1.3-4.7-0.4c-1.9,0.8-2.4,3.2-3.4,3
			c-0.8-0.1-1-1.4-1.6-1.3c-0.6,0.1-1.1,1.1-0.9,1.7c0.4,0.9,2.3,0.8,3.2,0.8c5.5-0.1,16.9,0.3,17,0.8c0,0.4-10,2.6-18.8,1.8
			c-1.5-0.1-3.7-0.3-6.6-1.2c-2.8-0.8-3.5-1.5-6.5-2.6c-3.6-1.3-8.1-2.3-8.3-1.9c-0.2,0.4,3.7,2.2,11.5,5.7
			c5.9,2.6,8.7,3.7,12.5,3.6c2.3-0.1,4-0.6,4.8-0.8c9.1-2.4,18.2-3.4,27.5-2.2C421.9,219.3,412.2,221.5,402.5,223.4L402.5,223.4z
			 M268.8,214.5c0.1-1,1.6-2.3,2.8-2.7c10.3-4.2,20.5-8.6,31-12.3c11.7-4.1,23.7-7.4,34.1-10.7c4.8,7.9,9,14.4,12.7,21.2
			c0.8,1.4,0.1,4.2-0.9,5.8c-7,11.4-17.6,18-30.2,21.4c-10.6,2.9-21.5,2.6-32.3,0.9C275.8,236.5,267.5,225.1,268.8,214.5
			L268.8,214.5z M222.9,193.7c25.8-1.4,50.3-2.7,74.7-3.9C286.1,202.1,247.2,206.2,222.9,193.7z M424.4,185.2c1.5,2,4.8,6.4,4,7.2
			c-0.3,0.3-1.4,0.2-4.6-1.8c-3.9-2.3-5.2-4.5-5.6-6.1c-0.1-0.3-0.1-0.5-0.6-3c-0.2-0.9-0.8-4.2-1-5.1
			C418.6,178.3,421.5,181.2,424.4,185.2L424.4,185.2z M414.5,193.2c0,0.6-10.3,3.1-22.4,2.2c-12.6-0.9-20.5-4.9-20.6-4.4
			c-0.2,0.5,9.2,5.9,21.8,6.5c3.1,0.2,5.3,0.2,9-0.3c8.3-1.2,16.9-0.6,25.4-0.7c1,0,2.1,0.7,1.8,0.6c-14.8,3.2-27,2.9-35.1,2.1
			c-12.8-1.3-27-2.9-36.3-13.8c-2-2.4-3.4-4.6-4.2-6.2c1-0.6,2.3-1.4,3.9-1.2c2.3,0.3,3,2.4,4.8,3.5c3.3,2,7.4-1.3,13.9-3.4
			c8.7-2.9,17-2.2,17.1-1.5c0.1,0.5-5.1,2.4-10.8,3.1c-4.3,0.5-6.3,0.1-10.1,1.4c-2.3,0.8-6,2-6.1,3.7c-0.1,2.8,9.3,5.8,16.5,7
			c2.9,0.5,4.6,0.5,15.6,0.8C413.4,193,414.5,193,414.5,193.2L414.5,193.2z M391.2,171.2c-2.8,0.2-5.5,1.2-11,3.2
			c0,0-8.1,2.9-15.8,4.3c-0.8,0.1-2.7,0.5-3.1-0.3c-0.4-0.7,0.8-2.1,1.4-2.7c1.3-1.5,4.5-4.4,12.9-7.9c2.4-0.8,6.5-1.8,11.7-1.2
			c6.9,0.8,11.6,4,13.7,5.6C398.8,171.6,395.4,170.9,391.2,171.2L391.2,171.2z M402.9,190.9c-9.6,2.9-18.3,0.6-26.7-5.8
			C386.1,183,395.9,180,402.9,190.9z M400.9,164.1c3.1,1.6,7.1,3.6,11.5,6.4c-4-0.2-7.2-1.1-9.4-1.9c-3.6-1.3-4-2.2-7.5-3.2
			c-5.3-1.6-9-0.9-9.1-1.8c-0.1-0.7,1.8-1.8,3.6-2.2C393.2,160.6,396,161.7,400.9,164.1L400.9,164.1z M375.8,145.9
			c2-0.4,4-0.4,5.9-0.2c6.5,0.9,11,5,13.2,7.4c-8.7,1-21.2,3-35.8,7.5c-17.1,5.3-32.7,12.6-32.3,13.7c0.5,1.4,30.4-4.3,41.2-11.3
			c1.2-0.8,5.5-3.8,7.4-2.4c0.8,0.5,1,1.7,0.9,2.6c-0.4,2.2-3.7,3.2-5.1,3.6c-33.3,10.2-42.4,11.9-42.4,11.9
			c-22.8,4.2-29.9,6.1-48.8,8.2c-1.7,0.2-3.5,0.3-5.2,0.4c-0.1-0.3-0.1-0.5-0.2-0.8c7.4-3.6,14.7-7.5,22.3-10.7
			c19.1-8.1,38.2-16.2,57.5-23.9C361.2,149.3,368.5,147.3,375.8,145.9L375.8,145.9z M324.1,145.5c0.1,0.5,0.2,0.9,0.4,1.4
			c-5.4,2.2-10.9,4.3-16.3,6.5C311.7,146.9,317.7,145.8,324.1,145.5L324.1,145.5z M341.4,144c3.9-1.5,7.8-3,12-2.1
			c2.7,0.6,4.6,1.9,5.9,2.9c-20.7,11.4-34.9,17.7-44,21.4c-3.6,1.5-14.2,5.7-14.6,4.9c0-0.1,0-0.4,1.8-1.6c7.8-5.4,14.8-6,14.9-8.5
			c0-0.5-0.2-1-0.6-1.2c-1.4-0.9-4.5,1.6-5.4,2.3c-5.6,4.3-12.8,6.1-18.9,9.5c-21.5,11.9-33.1,14.1-44.7,18.5
			c-7.5,2.8-14.5-1.1-22.9-4.6c2.3-1.6,3.4-2.9,4.5-3c18-1.6,34.5-8.7,51.2-14.6C301.2,160.7,321.2,152,341.4,144L341.4,144z
			 M277.5,166.3c4.1-11.5,14.7-15.7,21.7-24.4C302.2,153.3,292.6,163.9,277.5,166.3z M263.5,22.5c0.1-0.7,0.7-1.3,3.2-2.5
			c3.2-1.6,4.8-2.4,5.8-1.7c0.5,0.3,0.8,0.9,0.7,1.5c-0.2,1.9-4.9,2.6-4.8,2.8c0,0.1,3.3,0.1,6.3-2.1c1.5-1.1,2.2-1.7,3.2-3.5
			c1.4-2.3,5.5-5,7-6c3.7-2.4,8.6-5.5,9.8-4.3c0.7,0.7,0,2.8-1,4.1c-0.9,1.2-2.1,1.7-3.7,2.3c-5,1.8-7.9,2.1-7.9,2.3
			c0,0.4,8.5,1.9,12.6-2.5c1.6-1.7,2.6-4.4,3.2-4.2c0.6,0.2,0,2.7,0.9,3.1c0.7,0.3,1.8-1,2-1.1c1.3-1.5,1.2-3.1,1.7-3.2
			c0.4,0,1.3,1.4,1.1,2.8c-0.3,3.4-6.1,4.9-5.8,5.9c0.3,0.8,4.8,0.3,8.4-0.4c4.1-0.9,5.3-1.7,7.8-1.3c2.7,0.4,4.6,1.9,5.2,2.5
			c6,4.9,5.3,15.3,4,15.7c-1.2,0.3-2.2-7.2-8.4-9.8c-2-0.9-2.2-0.2-5.5-1.3c-4.8-1.7-5.6-3.6-8.4-3.5c-0.9,0-2.5,0.8-5.6,2.4
			c-3.3,1.7-5.4,2.7-5.2,3.3c0.2,0.7,3.9-0.6,9.5,0.1c2.5,0.3,6.3,0.9,7.2,3.2c0.3,0.8,0.2,1.7,0.1,2.8c-0.2,1.7-0.9,3.9-1.5,3.9
			c-0.7,0-0.1-3.1-2-5c-1.4-1.4-3.3-1.5-6.7-1.5c-3.4,0-4.3,0.4-9.4,0.7c-4.5,0.3-6.5,0-7.1-1.1c-0.2-0.4-0.2-0.9-0.2-1.6
			c0-0.2,0.1-2.2,1.3-3.7c2-2.6,6-2.3,6-3c0-0.3-0.8-0.5-1.6-0.6c-3.5-0.4-5.4,2.6-9.8,4.9c-4.3,2.3-9.9,3.4-11.8,1.4
			C264,24,263.5,23.3,263.5,22.5L263.5,22.5z M239.6,54.4c0.4,0.2,2.2-3.4,5.9-5c1-0.4,2.5-0.8,2.8-0.4c0.3,0.5-1.4,1.8-4,4.2
			c-7.6,6.9-9.3,9.7-10.1,11.3c-1.1,2-1.2,3.1-1.4,3c-0.7-0.2,2.1-17.2,5.9-17.5c0.1,0,1,0,1.4,0.5
			C240.9,51.7,239.3,54.2,239.6,54.4L239.6,54.4z M255.8,58.6c0.2,0.1,0.4,0.2,0.7,0.2c1.8,0.3,2.9-1,3.2-0.8
			c0.5,0.4-1.3,5.1-4.7,5.6c-1.3,0.2-2.4-0.3-3-0.5c-3.4-1.6-3.6-5.3-5.4-5.3c-1.1,0-1.1,1.2-3.4,2.8c-2.1,1.4-4.2,1.9-4.2,1.8
			c0-0.1,1.3-0.7,2-1.1c6.7-3.6,10.1-13.8,11.3-13.3c0.3,0.1,0.1,0.6,0.7,1.6c0.2,0.3,0.9,1.4,1.7,1.4c1,0,1.1-1.9,2.1-2.5
			c1.2-0.7,3.7,0.4,9.2,5.7c-4.6-1.8-8-1.2-9.6-0.7c-2.4,0.7-5,2.1-4.8,3.1C251.7,57.1,253,57.6,255.8,58.6L255.8,58.6z M233.9,73.7
			c1-2.6,2.5-6,5.8-7.6c2.6-1.3,5.9-1.3,9.4,0.1c6.3,2.5,7.5,1.1,8.8,0.3c3-2,1.4-6.6,4.4-8.2c1.8-0.9,4.5-0.4,5.1,0.8
			c1,2.1-3.8,7.4-9.6,9.2c-2.1,0.6-4,1.7-6.8,0.7c-5-1.8-8.6-2-11.4-0.5c-3.4,1.9-4.7,7.1-5.4,10c-0.6,2.5-0.8,5.3-1.1,5.3
			c-0.2,0-0.3-1.3-0.4-1.8C232.4,77.6,233.8,74.1,233.9,73.7L233.9,73.7z M261.5,44.5c-1.1-1.9-1.6-4.9-0.5-5.8
			c0.5-0.4,1.3-0.5,1.8-0.1c1.1,0.7-0.2,2.8,0.7,4.6c0.9,2,4,2.5,5.2,2.7c5.7,0.9,10-2.4,10.4-1.6c0.3,0.5-1.5,2.6-3.9,3.8
			C270.5,50.2,263.8,48.6,261.5,44.5L261.5,44.5z M274.3,37c-2.9-1-4.5-2.4-5.1-1.9c-0.4,0.4,0.1,1.6,0.6,2.3c1.8,3,5.7,3.3,5.6,3.7
			c-0.1,0.5-8.7,1.8-10.5-2.3c-2-4.2,5-10.7,7-9.9c1.5,0.6,0,4.8,2.6,6.8c2,1.5,5.1,0.8,5.2,0.4c0.1-0.5-3.6-0.4-5.3-2.9
			c-1.2-1.8-1.1-4.4-0.3-4.8c1.1-0.5,2.2,3.3,5.7,4.6c3.5,1.3,5.4-1.5,13.8-2.6c5.5-0.7,6.8,0.3,7.4,1c0.7,1,0.8,2.5,0.1,3.4
			c-1,1.2-3.1,0.5-5.7,0.3c-7.1-0.5-9,3.7-16,2.9C276.2,37.7,274.3,37,274.3,37L274.3,37z M265.4,29.1c0.6,1-1.8,3.5-6.5,8.6
			c-2.6,2.8-6.1,6.2-7.4,5.4c-0.4-0.2-0.2-0.7-0.9-1.3c-1.1-1.1-3.1-1.3-3.5-0.7c-0.6,0.9,2.7,3.2,2,4.5c-0.2,0.5-0.8,0.4-2.4,0.9
			c-3.2,0.9-4.2,2.2-5,1.7c-0.7-0.5-0.5-2-0.4-2.5c0.4-2.9,2.7-5.2,4.8-7.5c0.6-0.6,1.2-1.2,1.7-2.2c0.8-1.7,0.7-3.2,0.9-3.2
			c0.5,0,0.1,4.9,2.3,6.2c2.9,1.7,9.5-3,9-4.9c-0.4-1.5-4.9-1-5-2C254.9,30.5,264.2,27.2,265.4,29.1L265.4,29.1z M205.6,61.6
			c3.5-1.2,11.3,8.6,9.4,12.2c-0.4,0.7-1.1,1.3-2,1.3c-3.4,0.1-5.5-9.2-6.7-8.9c-0.7,0.2-0.6,3.5,0,6.4c0.9,4,2.6,6.3,2.3,6.5
			c-0.4,0.2-3.3-2.3-4.6-6C202.4,68.6,203.2,62.4,205.6,61.6L205.6,61.6z M214.5,95.5c-3.2,1.2-6.9-1.5-8.6-3.6
			c-0.4-0.4-2.4-3.2-2.2-6.4c0.1-0.9,0.3-1.5,0.7-1.9c1-1,2.6-0.7,4.7-0.5c4.5,0.3,7.3-0.6,7.4-0.2c0.1,0.5-3.1,0.9-6,3.7
			c-0.8,0.8-2.9,2.8-2.3,4.1c0.9,2.3,8.4,0.6,8.8,2.3C217.1,93.9,215.7,95.1,214.5,95.5L214.5,95.5z M215.7,60.1
			c-0.9-0.5,2-13.1,11.4-23.9c9.8-11.3,16.4-14.9,26.2-18.7c0.6-0.2,1.4-1.4,2.5-1.2c2.9,0.7,3.4,11.2,1.2,12.2
			c-0.4,0.2-1.5,0.3-1.6,0.3c-1.4,0.2-1.7,0-2.1,0.2c-1.1,0.7-1.4,3.8,0.1,5c1.2,1,3.2,0.1,3.4,0.6c0.2,0.6-2,2.6-3.7,2
			c-0.6-0.2-1.2-0.7-2.1-3.5c-1.3-4.1-1-6.9-1.5-6.9c-0.5,0-1.2,2.8-1.7,4.5c-0.9,3.2-0.7,3.8-1.4,5c-1.3,2.1-3.7,3.6-4.7,3
			c-0.7-0.4-0.3-1.5-1.1-2.1c-0.8-0.5-2.4-0.2-3.1,0.7c-1.2,1.4,0.5,3.3,0.3,6.6c-0.3,4-3,6.8-3.3,6.7s1.3-3.2,0-4.7
			c-0.2-0.2-0.4-0.5-0.8-0.5c-2.6-0.3-5.5,12.6-8.2,12.2c-0.3,0-0.5-0.2-0.6-0.3c-1.7-1.4,0.3-6.2,0-6.2c-0.4-0.2-4.4,9.8-5.2,9.5
			c-0.3-0.1,0.2-1.9-0.5-2.3C218.1,57.8,216.2,60.3,215.7,60.1L215.7,60.1z M224.4,78.5c-0.5,0.1-2.6-5.4-1.9-11.6
			c0.2-2.1,0.6-5.2,2.1-5.6c1.3-0.4,3.4,1.1,3.9,2.9c0.6,2.7-2.8,3.9-3.9,8.9C223.9,76.4,224.7,78.5,224.4,78.5L224.4,78.5z
			 M226.2,73.4c1-2.4,4-3.7,5-2.9c0.8,0.6,0.8,2.1,0.7,5.2c-0.1,1.5-0.3,3.8-0.6,3.8c-0.1,0-0.2-0.2-0.5-1.6c-0.7-2.8-0.6-3.9-1-4
			c-0.6-0.1-1.6,4.5-2.6,4.4C226.3,78.2,225.3,75.5,226.2,73.4L226.2,73.4z M217.7,106.4c0.3-0.5,1.4,0,4.3-0.4
			c2.1-0.3,3.1-0.4,3.8-1.2c0.7-0.8,0.6-1.8-0.1-6.2c-0.6-3.8-0.8-5.8-0.2-7.1c0.8-1.7,2.5-3.1,3.1-2.8c1.4,0.7-2.5,9.2,0,11.1
			c0.1,0.1,0.6,0.5,1.1,0.3c1.1-0.3,0.5-3,1.7-3.6c0.9-0.5,3,0.5,3.3,1.8c0.4,1.6-1.7,2.7-5.3,6.6c-4.2,4.7-4.5,6.6-6.5,6.7
			C220.1,111.8,217.1,107.5,217.7,106.4L217.7,106.4z M225.9,130.3c0.3,3,1.8,5.3,1.2,5.6c-0.6,0.4-3-1.4-4-3.8
			c-1.9-4.8,2.5-10.3,3.3-11.2c2-2.5,4.7-4.2,5.1-3.8C232.2,117.8,225.2,123.3,225.9,130.3L225.9,130.3z M236.1,112.7
			c-0.6,0.6-1.9,1.5-7.1,2.6c-2.6,0.6-6,1.2-10,1.4c5.1-1.9,7.4-3.4,8.5-4.3c0.4-0.3,1.3-1.3,2.7-1.3c1.1,0,1.3,0.6,2,0.4
			c1.4-0.3,1-3.3,2.9-5.7c1.2-1.5,3.2-2.7,4.1-2.2C240.3,104.4,239.4,109.7,236.1,112.7L236.1,112.7z M237.4,75.7
			c-0.9-1.3,2.1-5.7,5.7-6.7c1.3-0.4,2.5-0.3,2.7-0.3c1.9,0.1,3.1,0.8,4.1,1.3c4,1.8,7.9,0.3,8,0.7c0.1,0.4-3.5,1.3-8.1,2.5
			C239.5,75.8,237.9,76.5,237.4,75.7L237.4,75.7z M240,83.2c0.5-3.7,3.2-6.7,4.1-6.4c0.9,0.3-1,4.2,0.1,9.1
			c1.4,6.1,6.9,11.3,9.9,10.6c0.6-0.2,1.5-0.7,1.6-1.3c0.2-1.1-1.6-1.5-2.4-3.5c-0.6-1.4-0.8-3.5,0.2-4.4c0.7-0.7,1.7-0.5,4-0.3
			c2.8,0.2,5.5,0.3,6.1,0.3c4.7-0.2,5.9-12.3,11.5-22.4c1.1-2,8.7-17.3,23.1-18.8c5.9-0.6,12.5,0.4,17.8,2.8c2.9,1.3,3.8,7,5.4,10.9
			c0.5,1.2,0.2,2.6,0.3,4c-0.2,0.2-0.4,0.6-0.7,0.7c-5.7,2.3-8.1,6.7-7,12.9c0.6,3.6,1.3,7.2,2,10.8c0.1,0.6,0.4,1.1,1.1,3.1V75.6
			c0.4,0,0.8,0,1.1,0c0.4,4.9,1.1,9.8,1.2,14.7c0,1.7-0.2,3.1-1.2,3.8c-1,0.7-2.2,0.2-4.1-0.1c-5.3-0.8-9.3,1.6-10,0.3
			c-0.4-0.7,0.4-1.7-0.2-2.2c-0.4-0.3-1-0.1-1-0.1c-1.5,0.6-2.6,4.3-1.2,6.2c1.6,2.1,6,1.5,7,1.4c1.7-0.2,3.4-0.8,3.8-0.2
			c0.1,0.2,0,0.3-0.2,1.2c-0.7,2.2-0.6,2.1-0.7,2.2c-0.6,1.1-2.6,0.8-5.5,1.1c0,0-4.1,0.4-9,3.4c-0.3,0.2-0.9,0.5-0.8,0.7
			c0.1,0.4,2.6-0.3,6.5-0.6c1.7-0.1,1.5,0,2.7-0.1c2.8-0.3,4.3-1,4.9-0.3c0.4,0.4,0.2,1.1,0.1,1.3c-0.1,0.3-0.5,1.5-3.2,2.5
			c-3.8,1.4-6.5,0.2-7.2,1.5c-0.2,0.4-0.2,0.9,0,1.3c0.5,0.9,2.1,0.6,4.7,0.5c3.1-0.1,5.6-0.1,6.2,1.1c0.1,0.2,0.4,0.8-0.5,2.7
			c-0.3,0.6-1.8,4-5.2,5.8c-2.1,1.1-4.5,1.6-11.3,0.1c-6.3-1.3-12.5-3.4-18.7-5.4c-7.3-2.4-12.8-7.1-15.6-14.4
			c-1-2.5-2.2-3.3-5.1-3.3C250.1,100.6,238.9,91.6,240,83.2L240,83.2z M240.8,158.4c4.4-3.3,7.2-5.4,8.8-9.1
			c1.1-2.4,1.6-5.3,1.4-8.7c-0.3-5.1,0.6-19.3,1.1-28.2c0.1-2.4,0.4-6.2,1.9-6.6c1-0.2,2.1,1.1,2.5,1.6c6.3,7.2,10.2,9.3,22.8,21.4
			c5.7,5.4,7.1,9.5,7.2,13.1c0.2,8-6.7,15.8-9.5,15.1c-0.6-0.2-0.6-0.7-2.3-2.5c-1-1.2-3.7-4.2-4.5-3.8c-0.9,0.5,1.1,4.5,1.4,11.4
			c0.1,2,0.1,4.1-1.3,5.6c-0.7,0.8-1.7,1.4-3.1,1.7c-11.7,2.7-23.3,5.5-35,8c-2.2,0.5-5.4,1.2-5.6-2.8c-0.1-1.3,0.2-2.2,0.7-3
			c1.1-1.6,3.2-1.9,4.3-2.1c14.8-2.1,20.1-2,20.1-2c0.9,0,3.1,0.1,3.7-1c0.2-0.5,0.2-1.2-0.1-1.6c-0.5-0.6-1.6-0.5-2-0.4
			c0,0-0.9,0.1-16.6,1.3c-3.2,0.2-5.3,0.4-5.5-0.3C230.8,164.5,234.9,162.8,240.8,158.4L240.8,158.4z M216.8,168.2
			c1.8,0.9,1.3,5.1,1.2,6.8c-0.3,3-0.8,7.2-3.8,8.5c-1.9,0.8-4.5,0.4-5.8-1.1c-0.8-0.9-0.8-2.1-0.9-4.5c-0.1-3-0.2-4.5,0.8-5.8
			c0.5-0.7,1.6-1.3,3.7-2.3C214.7,168.5,216,167.8,216.8,168.2L216.8,168.2z M204.6,170.5c3.4-6.5,10.4-9.1,10.9-8.5
			c0.2,0.2-0.6,1.2-1.7,2.5c-3.4,4-5.5,3.8-6.8,6.4c-1.2,2.3-1.7,5-1.5,8.1c0.3,3.6,1.2,7.3,5.5,7.8c4.1,0.5,7.3-2,8.2-5.8
			c1-4.5,0.6-6.4,1.2-13.3c0.5-6.1,1.5-7.2,2.1-7.7c2.9-2.7,8.5-1.7,8.6-0.8c0.1,0.7-4.1,0.4-6.6,3.4c-2.4,2.9-1.1,5.8-2.1,16.8
			c-0.4,4.4-2.3,7.5-6.2,9.5c-5.8,3-11.1,0.6-12.7-5.7C201.9,176.7,204.2,171.2,204.6,170.5L204.6,170.5z M155.4,213.6
			c7-20.8,21.6-33.8,42-39.9c1.7,6.9,3.4,13.8,4.9,20.6c0.1,0.6,0.1,1.9-0.2,3.6c-1.1,6.1-5.7,11.9-8.6,11.3c-0.5-0.1-1.1-0.4-1.3-1
			c-0.3-0.9,1.1-1.9,2.5-3.5c0.8-0.9,2-2.3,3.1-4.2c-1.1,0.6-2.6,1.5-4.5,2.5c-2.2,1.2-8.1,4.1-14.5,6.2
			C169.6,212.4,160.9,213.3,155.4,213.6z M190.4,210.9c-3.4,9.5-14.1,17.6-25.6,18.9c0-0.4-0.3-5,3.3-7.9c2.2-1.7,4.6-1.9,5.5-1.9
			C181.5,220.8,184.8,213.7,190.4,210.9L190.4,210.9z M183.9,227.7c-1.8,4.5-10.4,8.3-24.4,8.1C168,233,176.5,230.1,183.9,227.7z
			 M142.1,346.2c3.5-12.5,9.2-23.9,18.4-33.3c0.5-0.5,1.4-0.8,3.3-1.9c0.5,21.9,5,43.1-10.3,61.8c-1.6-8.8-5.4-16.6-11.1-23.3
			C141.8,348.7,141.9,347.2,142.1,346.2z M126.8,402.1c1.8-11.1,3.3-22.3,4.9-33.5c7.3,4.1,12.8,16.4,11,25
			c-2.6,11.9-1.2,11.3-7.7,11.9c4.1-8.4,5.7-17,3.9-26.2c-2.4,8.7-4.8,17.4-7.2,26c-0.4-0.1-0.9-0.2-1.4-0.3
			c1.6-9.1,3.1-18.3,4.7-27.4c-0.5-0.1-1-0.2-1.4-0.3c-1.8,9.5-3.7,19.1-5.5,28.5c4.1,2.1,8.1,4.2,12.1,6.3
			c-0.1,0.2-0.2,0.4-0.4,0.6c-5.6-1.1-11.1-2.2-15.9-3.1C125,406.9,126.4,404.5,126.8,402.1L126.8,402.1z M130.4,354.5
			c4.9,0.6,14.1,17.7,14.5,27.5C140.2,373.2,135.2,363.6,130.4,354.5z M132.8,414.6c-2-0.2-4.1-0.3-6.1-0.5c0,0.3,0,0.6-0.1,0.9
			c4.4,0.2,8.7,0.5,13.1,0.7c0,0.9-0.1,1.7-0.1,2.6c-6.4,2.9-12.4-2.6-19.2-1.6C124.3,412,128,409.9,132.8,414.6L132.8,414.6z
			 M132,421.5c-1.2,1.9-2.3,3.9-4,6.6c2.9,1.3,5.7,2.5,8.5,3.7c0,0.3-0.1,0.6-0.1,1h-23C116.6,421.5,123.3,417.3,132,421.5
			L132,421.5z M129.8,435.6c-5.4,0.8-11.5,1.6-17.6,2.5C115.9,433.1,123.5,432.3,129.8,435.6z M66.4,520.8c-2.1-3.3-1.1-6.5,1.8-8.5
			c1.7-1.2,4.2-1.1,6.1-1.5C71.4,514.4,68.9,517.6,66.4,520.8z M13.8,765c-1.6,4.9-5.7,17.5-3.2,33c0.3,1.9,0.7,3.5,0.9,4.5
			c0.5,0,1.1-0.1,1.6-0.1c-0.8,1.1-1.7,2.2-3,3.8c-0.2-1-0.4-2-0.6-3c-2.3-13.8-2.2-32.8,7.2-56.3C56.1,639.4,69.1,599,70.6,588.6
			c0,0,5.7-16.2,10.3-28.6c0.5-1.5,1.8-2.6,2.7-4c0.9-1.4,1.8-2.7,2.7-4.1c-0.4-0.4-0.8-0.7-1.2-1.1c1-3.5,2.1-7,3.1-10.5
			c1.9,3.6,3.2,7,3.3,10.7c0.1,4.5-1.4,7.9-1.9,9C73,597.6,62.6,637.7,46,675.2C46,675.2,37.6,694,13.8,765L13.8,765z M112.1,547.9
			c1-0.4,2.1-0.7,3.1-1c0.2,0.5,0.4,1,0.6,1.5c-5.5,1.9-11,3.8-17.4,6.1c3,0.5,5.4,0.9,7.1,1.2c-16.2,30.6-28.1,63.6-44.6,94.5
			c3.1-8.7,6.2-17.5,9.2-26.2c0.4-1.1,0.7-2.2,1-3.3c-3.5-0.7-1.1-2.8-0.7-3.9c8.1-20.4,16.4-40.7,24.5-61.1
			c0.7-1.8,0.4-4.4-0.2-6.3c-1.7-5.1-3.8-10.1-5.8-15.2l1.3-0.5c1.2,2.3,2.4,4.6,3.5,6.9C99.1,551.2,101.2,552.1,112.1,547.9
			L112.1,547.9z M96.4,535.4c3.4,1.2,5.7,2,9,3.2c-2.2,1.9-3.8,3.3-5.8,5C98.6,541,97.7,538.8,96.4,535.4z M116.2,555.3
			c-4,2.7-4.2,6.4-4.2,10.5c0,2.6-0.9,5.1-1.3,7.6c-2.3,14.6-70.5,173.5-76.5,188.2c-0.6,1.5-3.4,8.7-7.8,18.2
			c-2.9,6.1-5.9,12.2-8.9,18.8c-0.7-2-1-2.4-0.9-2.6c13.4-24.8,21.5-51.6,30.6-78c16.3-47.3,36-93.2,55.8-139.1
			c2-4.7,4.2-9.6,4.8-14.6c0.9-6.8,4.4-11,11.3-13.6C118.1,552.3,117.6,554.4,116.2,555.3z M147.6,544.6c3.1,1.8,5.7,4.4,8.5,6.6
			c-0.2,0.2-0.3,0.4-0.5,0.6c-13.4-6.5-26.7-13.3-40.4-19.3c-13.6-6-26.9-13.5-42.7-11.5c1.9-3.5,4.8-5.5,9-4.5
			c10.6,2.7,21.4,5,31.4,9.4C124.9,531.1,136.1,538.1,147.6,544.6L147.6,544.6z M124.5,524.8c-6.4-2.5-11.8-4.5-17.5-6.7
			C110.4,515,118.3,518.1,124.5,524.8z M112.4,511.3c4.1-3.7,9.1-2.2,15.5,4.6C122.8,514.3,117.6,512.8,112.4,511.3L112.4,511.3z
			 M148.1,464.6c0.9,1.2,3.6,5,3.6,10.1c0,1.9-0.4,2.3-2.1,8.6c-2.1,7.8-2.3,9.9-4,10.5c-1.6,0.6-3.8-0.5-5.1-1.9
			c-3.5-4,2.2-12.5-0.8-14.9c-0.5-0.4-1.2-0.6-2.7-1.8c-1.4-1-1.5-1.4-2.3-1.9c-1.8-1-3.8-0.7-4.2-0.6c-1.7,0.3-2.8,1.3-5.1,3.1
			c-1,0.8-1.8,1.6-3.4,3.2c-1.7,1.7-2.9,3.1-3.1,3.4c-4,4.6-3,11.5-8,19.3c-0.9,1.4-3.2,4.9-4.6,4.5c-1.8-0.5-1.5-6.9-1.4-9.5
			c0.4-7,2-9.7,4.1-20.1c0.6-3.1,0.9-5.5,1.8-10.2c0.9-5,2.2-10.1,2.5-15.2c0.3-5.6,1.1-7.2,2.7-8.6c3-2.8,8.3-2.4,8.8-1.1
			c0.6,1.7-7.8,5.1-7.1,7.6c0.4,1.3,2.9,1.6,3.9,1.7C130.4,452,142.6,457.2,148.1,464.6L148.1,464.6z M154.3,402
			c-2.9,5.9-6.2,11.5-9.4,17.3c-0.8-8.9,9.9-13.4,8.8-22.8C153.9,398.4,155,400.6,154.3,402L154.3,402z M149.1,377.5
			c-4.4-11.4-8.7-22.6-20.6-28.8c0.4-0.7,0.8-1.3,1.1-2c2.5,1.4,5.7,2.3,7.4,4.3c3.2,3.7,5.9,8,8.1,12.4c4,8,7.5,16.4,10.6,25.1
			C153.5,384.8,150.6,381.4,149.1,377.5L149.1,377.5z M170.3,353.9c3.3,1.9,10.4-4,12.8-5.9c3.7-3.1,4.8-4.9,5.7-4.5
			c2,0.9-0.9,11.5-1.4,13.7c0,0-5.3,18.2-16.1,28.6c-3.6,3.5-7.6,3.5-11.2,0.6c-4.3-3.4-5.8-7.6-2.8-11.6
			c11-14.9,11.7-31.7,9.6-49.1c0-0.3-0.5-2.3-0.1-4.8c0.3-1.5,0.9-3.5,1.4-3.4c0.6,0,1,2.6,2.7,10.2c0.2,0.9,0.5,2.2,1.6,3
			c1.3,1,2.9,0.8,3.6,0.8c9.5-0.9,14.5-1.4,15.3-0.1c1.4,2.2-6.6,13-16.2,17c-1.6,0.7-6,2.3-5.9,4.1
			C169.4,353.3,170.2,353.8,170.3,353.9L170.3,353.9z M168.4,286.5c0.1-1.1,1.4-2.8,2.5-3.3c5.9-2.4,12-4.5,19.2-7.2
			c-3.7,13.5-2.7,27.1-10.2,38.5c-1.5,2.3-4.9,4.7-7.3,4.6c-1.7-0.1-4.4-4.3-4.5-6.7C167.6,303.8,168,295.1,168.4,286.5L168.4,286.5
			z M166.8,275.5c4.6-12,16-14.4,24.7-21C192.5,263.2,179.1,274.4,166.8,275.5z M187.8,244.4c-1.8,1.9-3,2.4-11.5,6.3
			c-10.6,4.9-15.9,7.5-17.9,5.8c-0.1-0.1-0.8-0.7-0.7-1.4c0.1-0.9,1.6-1.3,3.3-2c3.2-1.3,5.5-3.3,5.4-3.5c-0.1-0.3-5.8,2.9-6.7,1.8
			c-0.6-0.8,1.4-3.5,2.7-5c0.6-0.7,6.4-2.9,13.2-5.7c0.5-0.2,1.2,0,1.8,0.3c4.9,2.3,10.5,0.1,12-4.9c2.1-6.6,4.2-13.2,6.2-19.9
			c0.1-0.5-0.5-1.2-0.8-1.7c5-6.9,10.3-14.2,15.6-21.5c0.5,0.3,0.9,0.7,1.4,1c-2.1,3.5-4,7.1-6.2,10.5c-5.6,8.7-10.3,17.9-12.2,28.2
			C192.4,237.5,190.6,241.4,187.8,244.4L187.8,244.4z M206.9,215.4c3.9-5.2,7.7-10.3,12.1-16.1c8.9,6.3,18.6,10.9,29.5,12.5
			c0.7,0.1,1.3,0.2,2,0.3c10.3,1.4,10.3,1.5,6.8,11.5c-4.8,13.6-25.5,26.9-39.9,24.9c-3.3-0.5-6.9-2.8-9.3-5.3
			C201.7,236.6,201.4,222.6,206.9,215.4L206.9,215.4z M218.7,344.5c2.1-5.8,3.2-12,5.7-17.6c4.6-10.4,5.6-12.7,6.9-12.6
			c1.6,0.1,1.1,3.5,3.9,6.2c1.9,1.8,4.1,2.4,18.1,2.4c8.2,0,9.5-0.1,10.6-1.3c2-2.1,0.2-4,0.7-13.5c0.3-5.5,1.2-9.6-0.7-10.6
			c-0.1-0.1-0.8-0.4-1.4-0.2c-2.1,0.7-1.1,6-3,14.1c-0.7,3.1-1.4,4.5-2.5,5.6c-1.3,1.4-3.2,2.2-5.9,2.6c-10.9,1.7-16.1-1.8-17.7-13
			c-0.6-4.1,5.4-13.3,9.9-14.4c4.7-1,9.5-1.2,14.3-2c1.3-0.2,3.3-0.9,3.5-1.7c2.2-10.1,2.7-24.2-1.3-30.1c-0.3-0.5-1-1.4-1.5-1.3
			c-1.2,0.4,1,6.5-0.1,14c-0.4,2.8-1.6,8.7-6,12.6c-1.8,1.6-4,2.8-6.8,3.6c-2.5,0.7-4.7,2.7-7.3,3.2c-2.7,0.6-6.6,1.3-8.3-0.1
			c-2.4-1.9-3.2-5.7-3-8.3c0.2-1.6,0.8-3,0.4-3.2c-0.6-0.3-2,3.3-4,3.4c-3.3,0.2-5.7-9.5-6.6-9.3c-0.7,0.2-0.7,7.1,3.6,11.8
			c1.3,1.5,2.2,2,3.5,2.8c3.8,2.3,4.4,10,6.4,15.2c-0.7,0.4-1.4,0.8-2,1.2c-2.7-2.9-5.5-5.8-8.5-9c-0.1,2.3-0.3,4.6-0.5,7.9
			c-9.6-14.3-8-29.3-6.9-44.4c1.1,1.9,2.1,3.8,3.5,6.3c-0.2-8.5,0-8,7.9-10.8c8.9-3.2,17.6-7.1,26.1-11.2c8.2-4,10.7-11.9,12.4-20.1
			c0.6-3,1.3-6,2-9l1.4,0.1c0.3,1.9,0.7,3.7,0.8,5.6c0.6,11.6,6.3,19.1,17.5,22c21,5.4,42,7.5,62.8-0.9c1.6-0.6,4.8-0.9,5.3-0.2
			c1.2,1.9,2.1,4.7,1.6,6.9c-0.7,3.2-2.2,5.7-4.1,7.6c-3.2,3-6,1-10.2,4c-1.8,1.3-1.3,1.6-3.8,3.9c-1.7,1.6-3.4,2.8-11.2,7.2
			c-6.2,3.5-8.3,4.5-8.2,6c0.1,1.2,1.5,2.4,2.8,2.7c1.5,0.3,2.8-0.6,3.4-1c5.8-3.9,11.5-8,17.3-11.9c2.6-1.7,5.4-5.5,8.5-1.9
			c0.9,1.1,1.3,2,1.3,3c-0.1,2.6-3.4,4.8-4.5,5.5c-8.4,5.3-20,14.3-19.5,15.2c0.2,0.5,5.2-1.1,9.5-3.4c4.1-2.2,5.9-3.4,5.9-3.4
			c2.9-1.8,3.7-2.6,4.3-2.2c1.1,0.7,0,5-1.8,8.2c-1.3,2.3-2.6,3.9-3.8,4.8c-6.4,4.5-12.9,8.9-19.6,12.8c-3.3,1.9-6.5,1.6-8.5-2.7
			c-3.1-6.6-4.8-7.9-7-10.2c-1.8-1.8-4-3.5-4.5-3c-0.8,0.7,2.9,5.9,2,6.6c-0.4,0.3-1.4-0.4-2.7-1.2c-4.2-2.7-8.1-4.1-11.8-5.8
			c-1.4-0.6-2.8-1.2-4.2-1.7c-3.8-1.3-6.7-3-7.8-6.8c-1.3-4.8-2.8-9.6-3.5-14.5c-0.9-6.5,2.1-9,8.3-6.4c2.7,1.1,8.5,2.9,16.9,9.6
			c2.4,1.9,3.7,3.2,3.9,3c0.2-0.2-3.4-5.1-8.2-8.9c-5.1-4-16.2-10.3-21.1-6.4c-2.7,2.2-2.3,6.9-1.6,16.5c0.3,3.2,1.1,6.1,2.9,11.9
			c0.3,0.9,0.8,2.4,2.1,3.8c1.3,1.3,2.7,1.8,3.4,2c7.2,2.5,12.8,1,16,4.8c4.1,4.9,3.9,9.9,1.8,15.4c-1,2.7-2.4,4.7-4.3,6.1
			c-0.6,0.4-1,0.6-6.9,2c-6.9,1.7-7.5,1.7-8.3,1.6c-2.2-0.2-4-1-4.6-0.1c-0.3,0.4-0.2,1.2,0.1,1.7c0.8,1.4,3.4,1.2,10.9,0.9
			c4.4-0.2,3.2-0.1,4.7-0.1c7.5-0.4,11.7-0.3,14.5-1.8c4.9-2.5,8.7-7,11.5-13.5c3.8,3.6,7.6,3.4,11.9,1.4c3.8-1.7,6.8,0,8.5,3.7
			c3.3,6.8,2.1,14.3-3.6,20.3c-7.5,7.9-15.4,14.8-26.9,16.5c-5.8,0.9-11.4,3.6-16.7,6.3c-3.3,1.7-5.7,1.8-8.5-0.6
			c-4.6-4.1-9.9-7.2-16.2-6.5c-4.6,0.5-9.1,2.2-13.6,3.7c-2.2,0.7-4.3,1.9-6.1,3.3c-4.5,3.3-8.1,2.9-12.1-1.2
			c-2.2-2.2-5.7-3.4-8.8-4.5c-1.5-0.6-2.5-1.3-2.9-2.4C218.1,346.2,218.6,344.9,218.7,344.5L218.7,344.5z M242.8,357.8
			c13.1-10.4,28.5-9.5,35.6,1.5C267.3,350.7,255.7,352.2,242.8,357.8z M262.6,365.1c-0.3,1.2-1,1.9-1.2,2.2
			c-1.7,1.8-4.7,2.5-7.3,1.7c-3-0.9-5.7-3.8-5.4-6.4c0.5-3.8,7.6-6.1,11-4.1c1.3,0.8,2,2.1,2.1,2.3
			C262.1,361.4,263.1,363.1,262.6,365.1L262.6,365.1z M210.9,350.4c7.3,2.7,14.9,4.9,21.9,8.3c5,2.4,9,6.8,13.6,9.9
			c6.4,4.3,12.8,3.6,19.2-0.2c18.2-10.8,38.1-17.3,58.4-22.5c2.7-0.7,5.5-1.1,8.3-1.5c1.3-0.2,2.6,0,4.1,0.6
			c-1.9,0.6-3.8,1.4-5.8,1.7c-21.2,3.4-40.7,11.5-59,22.3c-12.1,7.2-22.4,7.4-33.9-1.3c-8.4-6.4-18.1-11-27.2-16.3
			C210.8,351.1,210.9,350.7,210.9,350.4L210.9,350.4z M315.4,357.2c-8.5,3.1-17.1,6.1-25.6,9.2c8.3-3.6,16.6-7.3,24.9-10.9
			C314.9,356.1,315.1,356.7,315.4,357.2z M223.1,379.7c-2.1-1.8-4.3-3.5-6.9-5.7c1.8-2.9,3.8-6.1,5.9-9.6c-0.7-0.5-2-1.4-3.3-2.4
			l0.6-1.2c3.2,1.6,6.5,3,9.5,4.8c4,2.4,7.8,5.1,11.6,7.7c8.5,5.9,17.3,6.8,26.8,2.5c6.6-3,13.4-5.6,20.2-8.4c-2.8,2-5.6,4-8.3,6
			l1,1.6c2.5,0.1,4.9,1.2,6.9-1.8c0.6-1,3.4-0.6,5.1-0.8c0.5-0.7,1.1-1.5,1.6-2.2c1,2.2,2.1,4.5,3.1,6.8c0.5-0.3,1.1-0.5,1.7-0.8
			c-0.9-1.8-2.1-3.4-2.5-5.3c-0.3-1.5,0.5-3.2,0.7-4.9c1.7,0.8,4.4,1.3,4.9,2.6c1.1,3.1,2.2,4.7,5.6,3.2c4-1.5,8-3,12-4.5
			c1.2-1.8,1.1-3.8-0.5-5.9c-2.6,2.3-5.2,3.8-5.9-0.8c1.3-0.7,2.2-1.5,3.2-1.6c1.1-0.1,2.2,0.5,2.2,0.5c2.6-1.1,5.4-3,6-2.4
			c1.6,1.5,2.3,4,3.4,6.1c2.6-1.3,6.2-3.1,9.8-4.9l0.9,1.5c-2.2,3.9-7.4,3.7-10.9,5.8c-0.7,0.5-2.7-1.1-4.2-1.7v4.5
			c4.5-0.8,9-2,13.6-2.4c4.1-0.4,8.3-0.1,12.5,0.9c-5.2,1-10.4,2.1-15.6,3.1c-22.7,4.6-42.9,15.2-62.7,26.4
			c-3.2,1.8-6.4,3.5-9.5,5.5c-5.6,3.6-10.8,3-16.2-0.8c-12.5-8.9-25.1-17.5-37.7-26.2c-0.6-0.5-1.2-1.1-1.2-2.7
			C212,374.6,217.6,377.1,223.1,379.7L223.1,379.7z M241.9,514.4c0.7-0.1,1.3-0.3,2-0.4c1.5-34.1,3-68.2,4.5-103.2
			c3.3,2,5.3,3.2,8,4.9c-1.3,35-2.6,70.6-3.9,106.5c4.8-1.6,5.6-5.1,5.5-9.1c-0.1-12.5-0.2-25-0.2-37.5c0-18.2,0-36.3,0.2-54.5
			c0-3.3,1.2-6.6,1.8-10c0.5,0.1,1.1,0.1,1.6,0.2v100.9c3.4-0.4,3.5-0.4,3.6-4.4c0.4-13,0.8-26,1-39c0.3-16.2,0.4-32.3,1-48.5
			c0.1-4.2,1.6-8.5,2.5-12.7c0.6,0.1,1.1,0.1,1.7,0.2c0.2,0.9,0.7,1.7,0.7,2.5c-0.9,32.1-1.8,64.3-2.6,96.4c-0.1,4.4-2.1,7.4-5.6,10
			c-5,3.8-9.9,7.8-15.1,12c-3.8-4.7-7.5-8.6-10.2-13.1c-1.5-2.5-2.2-6-2.1-9c0.6-26.8,1.6-53.6,2.4-80.4c0.2-6.4,0-12.8,0.8-19.3
			c4.4,3,5,7,4.7,11.3c-1,14.3-2.3,28.6-3,42.9c-0.7,15.5-0.9,31-1.1,46.5C240.1,509.9,241.3,512.2,241.9,514.4L241.9,514.4z
			 M228.1,633.3c-0.9,0.2-3,0.7-4.6-0.4c-1-0.7-1.6-2.1-1.9-4.1c-0.4-3.3,0-6,1.1-8.3c1.8-3.5,4.8-5.1,6.3-6.1
			c3.7-2.3,8.6-6.6,13.3-15c1,3.2,3,11.8-0.9,20.8C238.4,627,232.8,632.2,228.1,633.3L228.1,633.3z M226.3,655.8
			c-1.1,2.3-2.7,5.8-5.5,10c-3.2,4.9-5.2,5.2-9.6,1.2c-3.5-3.2-6.7-5.5-6.3-8.7c0.1-0.7,0.4-2.1,2-3.7c10.6-1.9,14.9-5.3,16.8-8.2
			c0.7-1.1,2.7-4.6,5.1-4.4c0.1,0,1.2,0.1,1.9,1C231.9,644.5,230.2,647.3,226.3,655.8L226.3,655.8z M237.9,592.4
			c-3.4,6.4-9.5,7.3-15,2.5c-3-2.6-5.1-5.4-5.6-6.3c-2-3.4-2.4-6.4-4.2-6.6c-0.6-0.1-1.3,0.2-1.7,0.5c-2.9,2.5,6.3,12.3,6.3,25.2
			c0,6.4-2.5,14.2-6.7,16.1c-2.9,1.2-8.9-3.1-9.9-7.3c-1.5-6.7-0.3-13.2,2.1-19.6c2.1-5.4,4-10.9,5.4-16.5c0.5-2,0.1-4.8-0.9-6.6
			c-7.7-14.1-7.8-29.3-7.2-45.9c2.7,1.2,4.9,1.7,6.6,3c13.8,10.2,23.4,24,31.9,38.6C243.4,576.7,241.8,585,237.9,592.4L237.9,592.4z
			 M219.6,482.6c-0.2,3.4-0.1,7.3-0.6,10.3c-0.6,3.4-5,6.3-8,9.1c-0.3,0.2-2.9-1.1-3.3-2.1c-1.1-2.7-2.3-5.8-2.1-8.6
			c2.2-30.6,5.3-61,15.7-90.2c0.3-0.9,0.7-1.7,2.3-2.3c-0.3,1.9-0.5,3.7-0.8,5.5c0.9-1.9,1.8-3.9,2.6-5.8c0.4,0,0.7-0.1,1.1-0.2
			c0.3,2.6,1,5.2,0.7,7.7c-1.6,13.7-3.7,27.4-5.2,41.1C220.9,459,220.2,470.8,219.6,482.6L219.6,482.6z M186.8,486.8
			c2.1-0.4,4.5-0.4,6.2-1.4c1.2-0.7,1.4-3,1.1-5.1c-0.8,1.2-1.5,2.6-2.6,3.4c-1,0.8-2.4,1-4,1.5c10.6-14.8,8.5-32.1,12.8-47.7
			c2.6-9.6,4.6-19.4,7.2-29.1c0.9-3.2,1.7-6.9,6.8-7.9c-0.2,2.5-0.3,4.5-0.7,6.5c-4.4,23.9-8.9,47.8-13.4,71.6
			c-1.1,6.2-2.7,12-9,15.2c-2.7,1.4-4.5,1-5.6-1.7c-0.9-2.3-2.1-4.8-2-7.1c1.7-26.2,7.6-51.5,17.5-75.8c1-2.5,3.3-4.4,5-6.6
			c0.4,0.2,0.7,0.5,1.1,0.8c-9.8,23.9-13.8,49.2-18.9,74.2c-0.2,1.1-1.4,2-1.5,3C186.5,482.7,186.7,484.7,186.8,486.8L186.8,486.8z
			 M205,378.9c2.6,1.5,4.5,2.6,7.5,4.3c-3.5,2-6.3,3.7-9.1,5.3c-0.3-0.3-0.7-0.6-1-0.9C203.2,384.9,204,382.2,205,378.9L205,378.9z
			 M220.6,385.9c-5.4,5.6-14.6,9-20.1,7.1C207,391.2,211.6,384.1,220.6,385.9z M176.8,516.3c-8.7-2.7-9.6-4.3-7.3-11.1
			c1.2-3.6,2.5-7.2,4-11.6C181.8,501.1,173.5,508.9,176.8,516.3L176.8,516.3z M177.3,480.7c-0.7,2.4-2.4,4.4-4.3,7.8
			c-1.2-3.2-1.8-4.8-2.4-6.5l1.3,0.2c0.8-2.3,1.9-4.5,2.4-6.8c2-7.9,3.5-15.9,5.7-23.7c3.5-12.1,7.5-24.1,11.4-36.1
			c0.8-2.6,2.2-5,3.3-7.6c0.5,0.1,1,0.2,1.5,0.2c0,1.6,0.4,3.3-0.1,4.8C190,435.6,183.7,458.2,177.3,480.7L177.3,480.7z
			 M182.5,500.5c4.3,5.9,8.7,4.2,13.7-0.1c2.9,12.9,14.9,13,23,18.9c-1-0.1-2-0.1-2.9-0.3c-9.7-2.7-19.4-5.6-29.2-8.1
			C180.2,509,180,508.9,182.5,500.5L182.5,500.5z M186.6,522.6c3.8,0.7,6.2,1.6,7,5.5c2.9,16.2,6.1,32.4,9.1,48.5
			c0.3,1.8,0.4,3.6,0.6,5.4C192.2,563.8,189.3,543.5,186.6,522.6z M192.9,832.8c-1.7,5.7-0.2,7-1.7,9.1c-2.5,3.5-9.9,4.1-14.2,1.7
			c-0.5-0.3-1.6-0.9-5.1-3c-0.9-0.5-2.5-1.4-4.6-1.6c-1.3-0.1-2.8-0.3-10.6,4c-5.5,3-5.1,3.2-6.8,3.7c-0.7,0.2-5.8,1.7-10.9-0.7
			c-0.5-0.2-4.4-2.1-4.2-4c0.1-0.5,0.5-1,1.5-1.7c1.3-0.8,3.8-2.1,7.8-2.2c-0.2-0.2-0.6-0.5-1.1-0.7c-0.9-0.3-1.6-0.1-1.9,0
			c1.7-1.2,4.1-3,7.1-5c13.8-9,22.9-10,32.1-13.5c5.3-2,13.2,3.3,14.2,8.9C194.9,829.1,194,829.3,192.9,832.8L192.9,832.8z
			 M179.6,814.5c7.4-3.1,10.7-1.8,17.1,6.5C191.2,818.9,185.5,816.7,179.6,814.5z M207.7,816.8c-8.2-7.8-10.3-9.2-10.6-8.9
			c-0.3,0.3,1.1,2.3,1.5,2.8c2.2,3.2,4.4,4.4,4,5.6c-0.1,0.3-0.3,0.6-0.6,0.7c-0.5,0.1-1.1-0.5-1.7-1.1c-1.1-1.1-2.6-2.2-2.9-2.1
			c-0.4,0.3,4.1,6,3.5,6.6c-0.6,0.6-5.6-3.6-12.4-9.6c1.4-2.2,2.9-3.6,3.9-4.5c3.5-3,4.6-1.7,9-5c1.1-0.8,2.3-1.8,3.9-1.7
			c0.9,0,1.9,0.4,2.8,1.2c3.4,2.8,6.6,5.8,10.6,9.3C214.3,812.7,211,814.7,207.7,816.8L207.7,816.8z M226.7,770
			c-5.5-2.3-11-4.6-16.5-7c0.2-0.5,0.4-1,0.6-1.5c5.5,2.5,11,4.9,16.5,7.4C227.1,769.3,226.9,769.7,226.7,770L226.7,770z
			 M213.9,723.8c1.5-2.4,3.2-4.6,4.7-6.8c-1,7-2,14-3,21c-0.9-3.7-1.9-7.5-2.7-11.2C212.7,725.9,213.3,724.7,213.9,723.8
			L213.9,723.8z M205.6,669.8c-5.1-2.1-10.1-4.8-11.6-11.2c10.8,10.5,28,12.3,35.8,26.8C223.5,677.5,214.7,673.5,205.6,669.8z
			 M230,740.6c-0.4-0.2-0.7-0.3-1.1-0.5l5.5-12.6c0.6,0.2,1.1,0.5,1.7,0.7C234.1,732.4,232,736.5,230,740.6L230,740.6z M261.6,663.4
			c-0.3,11.5-5,21.1-12.6,29.6c-0.6,0.7-1.6,1.4-2.4,1.4c-5.4,0.1-14.1-9.3-13.7-14.6c0.4-5.8,0.8-11.6,1.6-17.4
			c1.2-8.8,4.9-16.1,13.2-20.5c3.1-1.7,5.2-1,7.3,1.5C259.7,649.2,261.5,656,261.6,663.4L261.6,663.4z M271.6,533.2
			c-7.4,4.5-14.5,9.4-21.7,14.2c-3,2-5.5,1.7-7.8-1.2c-5.6-6.9-11.3-13.5-16.7-20.5c-1.2-1.6-2-4-1.9-6c2.8-36.5,5.8-73,8.9-109.5
			c0.3-3.1,1.7-6.2,2.5-9.3c0.5,0.1,1.1,0.1,1.6,0.2c0.2,3,0.8,6.1,0.7,9.1c-1,18.1-2.4,36.2-3.3,54.4c-0.8,15.5-1.2,31-1.9,46.4
			c-0.3,6.7,1.6,12.4,6.1,17.4c2.8,3.1,5.1,6.6,7.4,10c1.4,2.1,2.9,2.5,4.9,0.9c7.1-5.7,14.4-11.2,21.3-17.3
			c1.6-1.5,2.3-4.8,2.3-7.3c0.1-18.6,0-37.3,0-56c0-15.5,0-31,0-46.5c0-4,0-8,5-10.8c0.5,5.1,1.1,9.7,1.2,14.2
			c0.5,32.5,0.3,65,1.5,97.4C282,522.7,279.2,528.5,271.6,533.2L271.6,533.2z M287.1,407.7c0.1-7.9,0.4-8.3,9.4-11
			c3,27.3,5.9,54.5,8.9,81.6c0.5,0,1.1,0,1.7,0.1c0.2-1.5,0.6-3.1,0.4-4.6c-2.2-17.5-4.5-35-6.6-52.5c-1-8.7-1.6-17.5-2.3-26.2
			c0.6,0,1.3-0.1,1.9-0.1c1.4,10.3,2.9,20.6,4.3,31c2.2,16.8,4.3,33.7,6.5,50.5c0.4,3.2-0.2,5.4-3.2,7.5c-3.2,2.4-5.4,6.1-8.2,9.5
			c-6.4-3.3-10.6-7.6-10.7-16.3c-0.1-21.1-1.3-42.2-2-63.4C287.1,411.7,287.1,409.7,287.1,407.7L287.1,407.7z M301.1,509.7
			c-4,2.4-8.3,4.4-12.5,6.5c-0.4-0.5-0.8-1.1-1.3-1.6c1.2-4.1,2.3-8.2,3.5-12.3c8.2,2.9,8.9,2.7,14.8-4.1c2-2.4,3.8-5,6-7.8
			c1.3,2,2.6,3.8,4.1,6.2c5-6.4,11-10.1,18.8-10.6c0.5,0,1.1-0.3,1.3-0.6c2.8-5.6,7.5-3.2,11.7-2.9c5.3,0.5,10.6,1.1,15.9,1.8
			c1.2,0.2,2.5,0.7,3.6,1.4c3.4,2,6.8,3.9,10,6.1c1.7,1.1,3.1,2.8,5.5,5c-2,0.2-2.5,0.5-2.9,0.3c-22.4-10.1-44.1-7.6-65.1,3.9
			C309.8,503.5,305.7,507,301.1,509.7L301.1,509.7z M362.9,503.5c-0.1-0.5-0.1-0.9-0.1-1.8c4,0,6.6,1.6,7.5,5.1
			c5.1,20.2,5.3,40.1-2.4,59.8c-0.4,1.1-1.1,2.1-1.7,3c-0.5,0.8-1.1,1.6-2.6,3.5c0-2.9-0.4-4.6,0.1-6.1
			C369.8,545.7,368.3,524.6,362.9,503.5L362.9,503.5z M372.7,588.2c4.8,9.3,1.3,19.6,3.5,29.2c-0.6,0.1-1.2,0.2-1.8,0.2
			c-1.4-9.7-2.7-19.3-4.1-29C371.1,588.5,371.9,588.3,372.7,588.2L372.7,588.2z M307.8,542.3c-1.3-5.8-3.9-17.3-0.3-19.4
			c0.2-0.1,1-0.6,1.7-0.3c1.6,0.7-0.2,4.9,1.6,9.8c0.7,1.9,2,4.3,2.9,4.2c1.3-0.3-0.1-6.8,0.8-12.2c2.2-14,20.4-28.2,33.6-24.4
			c5.2,1.5,8.3,5.5,9.9,7.5c7.3,9.4,5.5,20.9,2.3,41.6c-1.9,12.5-3.8,15.4-5.4,15.5c-3.2,0.3-6.6-9.2-8-8.6
			c-0.6,0.2-0.4,2.4,0.1,4.2c1,3.3,3.2,4.8,5.3,7c3.7,3.7,5.5,7.5,8.3,13.4c1.7,3.5,2.5,5.3,2.9,7.4c0.9,4.3,0.6,8.8-0.7,13.7
			c-0.4,1.5-0.7,3.1-0.9,4.8c-0.3,3-0.6,5.7-0.4,14.5c0.1,6.6,0.3,9-0.5,9.2c-0.6,0.2-1.4-1.1-2.7-3.1c-7.7-12.3-9.4-14.6-11.4-19.2
			c-0.2-0.5-0.7-1.6-1.4-3.2c-1.5-3.3-2.7-5.6-3-6.1c-1.1-2.2-2-6.2-0.4-14.2c1.4-2.8,1.5-3.5,1.3-3.7c-0.4-0.3-1.9,1.8-4.7,3.2
			c-2.5,1.2-5.3,1.5-7.4,1c-4.1-0.9-6.5-5-8-7.6C315,562.8,310.8,555.5,307.8,542.3L307.8,542.3z M323.8,598.8
			c-1.3-4.9-0.6-9.3,0-11.8c5.1,3,8.8,6.1,11.3,8.3c2.7,2.5,4.2,3.9,4.5,5.9c0.7,4.7,0.2,9.5,0.2,14.3
			C338.4,615.1,326.9,610.5,323.8,598.8z M336.2,659.7c-0.8-11.7,2.9-23,4.8-22.9c1.1,0.1,0.9,3.7,4,9.6c2.1,3.9,5.2,7.9,6,7.5
			c1.9-1-12.3-27.5-7.6-30.8c2-1.4,7.4,1.7,10.6,5c6.1,6.4,5.9,15.6,9,15.7c1.4,0.1,1.8-1.9,3.4-1.8c3.5,0.2,6.7,9.8,4.4,13.5
			c-0.2,0.3-0.6,1-1.2,1c-1.1,0.1-2.2-1.5-3.4-3.4c-0.8-1.2-1.4-2.4-1.4-2.4c-0.9-1.7-1-2.4-1.3-2.3c-0.6,0,0.4,3.7-1.3,7.4
			c-1.3,2.8-3.3,4.6-4.8,5.7c-1.1,0.7-2.1,1.5-3.2,2.4c-6.5,5.4-9.7,12.2-11.3,17C340.2,676.4,336.8,669,336.2,659.7L336.2,659.7z
			 M339.8,694.2c6.8-11.3,13.3-22.8,20.5-33.8c3.6-5.6,6.6-5.3,11,1.2c-5.3-2.6-8.2-0.4-10.5,2.7c-3.4,4.7-6.5,9.6-9.7,14.5
			C347.6,684.1,344.1,689.5,339.8,694.2L339.8,694.2z M351.9,706.9c-0.2-0.2-0.5-0.3-0.7-0.5c1-1.6,2-3.2,3-4.8
			c1-1.5,2.2-2.9,3.3-4.3c-7.8-14.4,2.7-23.4,10.4-34.6c1.1,7.8,2.2,14.7,3.1,20.8c4.6,1.8,8.6,3.4,12.9,5.1c-0.8,0.9-1,1.2-1.1,1.2
			c-10-4-11.7-3.8-19.2,4C359.6,698,355.8,702.5,351.9,706.9L351.9,706.9z M382.8,764.2c-5.5-18-4.6-38.3-19.1-52.8
			c2.1-3.3,4.1-6.2,6.8-10.4C379.3,722.4,380.4,743.4,382.8,764.2L382.8,764.2z M379.9,705.6v12.7
			C379.1,714.2,374.8,709.8,379.9,705.6z M370.3,806.2c-0.2-0.4-0.4-0.8-0.6-1.2c4.6-3,9.3-5.9,13.9-8.9c-1.6,0.4-3.2,0.8-5.6,1.3
			c0.5-4.5,1-8.6,1.5-12.7c8.2-0.8,8.4-0.5,8.6,9.2c-1.5,0.7-3.1,1.5-4.6,2.3h14.6c0.1,0.5,0.2,1,0.3,1.5
			C387.2,794.6,378.9,800.8,370.3,806.2L370.3,806.2z M376.9,785c1.7,7.6-0.2,13.5-5.1,16.1C370.5,795,372.6,788.4,376.9,785z
			 M395.6,810.1c-7.4-2.3-13.3,0.4-18.6,5.3C381.5,806.4,387,804.8,395.6,810.1z M405.8,826.9c0.8,1.7,2.4,3.1,3.7,4.6
			c0.6,0.7,1.1,1.3,2.3,2.6c1.7,1.9,2.7,3.1,2.9,3.3c3.3,3.8,6.7,13.1,4.2,15.2c-0.9,0.7-2.2,0.3-3.5,1.8c-0.7,0.8-0.5,1.1-1.1,1.7
			c-1.2,1-2.1,0.2-4.4,0.9c-1.5,0.5-1.5,1-3,1.3c-1.1,0.2-2.2,0.1-2.6,0.1c-1.3-0.2-1.3-0.4-2-0.4c-1.4,0.1-1.7,1.1-3.5,1.7
			c-0.8,0.3-1.6,0.3-2,0.3c-4-0.3-4.3-17.1-8.6-17.7c-1-0.2-2.3,0.6-2.5,1.4c-0.2,1,2.2,1.3,3.4,3.7c1,2.1,2.1,4.4,2.1,6.6
			c-0.1,2.5-0.8,6.2-2.4,7c-1.7,0.8-3.4,1-5.1,0.6c-0.2-0.1-3-0.9-4.4-3.5c-2.2-4.2,1.9-7.4-0.1-12c-1.2-2.8-3.1-2.4-4-5.4
			c-0.4-1.2-1.6-2.3,0.6-7.8c1-2.4,0.9-5.2,1.2-7.9c0.8-6.3,4.2-9.5,10.5-9.7C396.1,814.9,402.2,818.9,405.8,826.9L405.8,826.9z
			 M402.5,771.6c-12.1-5.7-23.4-5.4-34.2,3.7c1.5-1.7,3.1-3.5,3.7-4.1c0.8-3.6,1.4-6.1,1.9-8.6c0.1-0.3,0.2-0.8,0.1-1
			c-3.4-5.8-0.6-13.5-6.2-18.7c-2.2-2.1-3.2-5.6-4.8-8.5c0.5-0.3,1.1-0.7,1.6-1c3.2,5.1,6.4,10.3,9.6,15.4c0.3-0.1,0.6-0.2,1-0.3
			c-4.7-10.4-9.4-20.7-14.1-31.1c13.8,13.7,14.7,31.9,17.9,49.6C387.4,763.6,394.9,767.5,402.5,771.6L402.5,771.6z M417.1,641.2
			c1.6,5.6,2,11.6,2.4,17.5c-5.6-7.8-22-74.4-21.9-83.6C403.7,595.4,410.6,618.2,417.1,641.2L417.1,641.2z M438.8,605.9
			c-0.5,0.1-1,0.1-1.5,0.2c-4-19.2-8-38.3-12.2-58.6C430.9,557.3,439.9,597.1,438.8,605.9L438.8,605.9z M459.2,588.3
			c4.1,23.5,0,42.9-3.2,53.8c-3.6-6-7.2-11.9-10.9-17.9c-2.3-3.8-1.9-7.1,0-11.2c2.1-4.4,3.8-9.5,3.8-14.2
			c-0.1-10.1-1.1-20.3-2.4-30.3c-1-8-2.8-15.8-4.3-23.7C447.8,553.4,455.7,568.2,459.2,588.3L459.2,588.3z M489.1,560.3
			c-27-15.9-49.3-36.7-66.1-63.3c-18.6-29.4-33.4-60.5-39-95c-4.5-27.9-1.5-55.2,12.5-80.4c3.3-5.9,8.8-10.8,13.7-15.7
			c18.5-18.5,38.6-35.2,59.8-50.5c1.2-0.9,2.5-1.6,3.7-2.5c0.6,0.6,1.2,1.2,1.8,1.8c-1.9,1.2-3.8,2.5-5.6,3.7
			c-23.7,15.8-43.3,36.3-64.5,55.1c-8.1,7.2-12.1,16.5-15,26.6c-9.5,32.7-5.9,64.5,5.9,96c8.8,23.5,20.2,45.6,34,66.6
			c15.4,23.4,35.7,41.5,59.4,56.1c1.4,0.9,2.8,1.8,3.8,3.5C492,561.7,490.5,561.1,489.1,560.3L489.1,560.3z M494.2,528.6
			c-23.6-11.1-40.5-29.4-51.6-52.4c-8.9-18.5-16.6-37.8-23.1-57.4c-8.1-24.4-9.9-49.6-4-74.9c0.6-2.4,1.7-5.3,3.5-6.8
			c16.5-14,33.2-27.7,50-41.4c2-1.6,4.2-3,6.4-4.4c0.2,0.3,0.4,0.6,0.5,0.8c-16,13.5-31.8,27.4-48.1,40.5
			c-6.6,5.4-10.2,11.1-11.4,19.8c-4.2,30.2,1.7,58.9,12.4,86.6c6,15.6,14.2,30.4,21.8,45.4c9.6,19,25.3,31.8,43.4,42.2
			c1.3,0.7,2.6,1.5,3.9,2.3c0.1,0.1,0.1,0.3,0.6,1.2C496.7,529.5,495.4,529.2,494.2,528.6L494.2,528.6z M508.9,548.5
			c-0.5,0-0.9,0.1-1.4,0.1c-5.5-47.8-11.1-95.6-16.6-143.8c5-0.6,4.8,2.5,5.1,5.1c2.1,19.7,4.2,39.4,6.1,59.1
			c2.4,25.4,4.6,50.8,6.8,76.1C509,546.3,508.9,547.4,508.9,548.5L508.9,548.5z M513,535.2c-4.8-44.4-9.4-87.4-14.1-130.4
			c0.8-0.2,1.7-0.4,2.5-0.5c0.6,2.2,1.6,4.5,1.8,6.8c1.3,13.6,2.4,27.2,3.5,40.8c2.1,24.2,4.2,48.4,6.2,72.7
			C513.3,527.6,513,530.8,513,535.2L513,535.2z M510,393c0-2.8-0.1-5.5-0.1-8.3c5.4,0.7,12.6,0.2,18.4,2.8c5.3,2.3,10.5,3.6,16,4.1
			c2.6,0.2,4.7-0.5,5.9-1.9c1.8-2,1.5-4.9,1.4-5.7c0-0.5-0.2-1.6-0.9-2.7c-0.4-0.7-0.7-1.3-1.4-1.6c-0.8-0.3-1.1,0.2-2,0
			c-0.7-0.2-1.3-0.6-1.6-1.2c-0.7-1.5,0.6-3.9,2.1-4.1c1.3-0.2,2.5,1.1,3.1,1.7c4,4.4,5.2,16.4,0.1,20c-4.3,3-9.6-2.4-22.4-3.9
			C520.8,391.1,514.2,392,510,393L510,393z M517.1,405.6c-0.1,0.4-0.5,0.8-1,1.5c-1-2-1.8-3.8-2.7-5.7c1.9-1.6,3.5-3.3,5.5-4.4
			c3.1-1.7,6.3-2.8,9.7,0c8.9,7.5,15.4,7.6,25.8,0.7c-0.7,4.9-3.5,7.6-7.6,7.2c-6-0.6-12.3-1.5-17.6-4
			C521.7,397.4,519.3,397.8,517.1,405.6L517.1,405.6z M559.5,391.8c-3,47.3-20.3,100.1-23,108.3c-0.6-0.2-1.3-0.4-1.9-0.5
			c0.3-2,0.5-4,1-6c5.9-24.9,9.2-50.1,10.6-75.6c0.2-3.2,0-6.1,4.4-7c1.5-0.3,2.8-3.1,3.7-5c4.4-9.7,4.5-19.7,1.2-29.7
			c-0.5-1.6-3.8-7.3-7-6.8c-2.4,0.4-4.5,4.3-4.7,9.6c0,0.4,0,0.9,0.3,1.4c1,2,3.7,1.8,3.9,2.9c0.2,1.1-2.6,2.7-5.4,3.1
			c-0.7,0.1-3.9,0.5-6-1.5c-0.9-0.9-1.5-2-1.6-3.4c-1.2-9.4-2.4-18.8-3.6-28.2c-0.1-0.5-0.3-0.9-0.4-1.3l-0.6,0.1
			c0.9,10.7,1.8,21.3,2.8,32c-5.5-23.2-5.8-47.4-14.6-69.7c9.6,4.8,19.2,9.7,28.8,14.5c0.4-0.6,0.8-1.3,1.2-1.9
			c-20.9-9-39-21.8-54.3-38.6c3.1,2.5,6.1,5.3,9.5,7.5c9.3,6.4,18.5,13,28.2,18.8c4.6,2.7,10.1,4,15.4,5.6c3,0.9,4.9,2.2,5.3,5.6
			C554,340.9,561.9,353.9,559.5,391.8L559.5,391.8z M566.8,425.3c-0.5,7.1-1.4,14.2-3,21.2c0.7-10.5,1.5-21,2-31.5
			c1.8-35-1.1-69.5-10.3-103.4c-1.2-4.4-3.5-7.2-7.5-9.2c-19.1-10-36.6-22.3-53-36.4c-1.7-1.5-3.7-2.7-5.5-4.1
			c0.5-0.5,1.1-1.1,1.6-1.7c3.2,2.5,6.6,4.9,9.7,7.6c14.1,12.3,29.6,22.6,46.2,31.2c5.7,3,8.9,6.9,10.7,13.3
			C567.9,349.5,569.5,387.2,566.8,425.3z"/>
		<path d="M323.4,368.4v-0.2c0,0,0,0-0.1,0L323.4,368.4z"/>
		<path d="M222.8,404.7l0-0.2C222.8,404.5,222.8,404.6,222.8,404.7L222.8,404.7L222.8,404.7z"/>
		<path d="M334.6,420c-0.1-0.1-0.1-0.3-0.2-0.4c0,0.2,0.1,0.3,0.1,0.5L334.6,420z"/>
		<path d="M237.1,265.1c-3.9,3.2-6.9,7.2-6.5,7.6c0.4,0.4,4.3-3.3,12.4-8.6c6.8-4.4,9.8-5.7,9.6-6
			C252.4,257.5,244.2,259.3,237.1,265.1L237.1,265.1z"/>
		<path d="M262.9,327.5c-0.4,0-0.6,0.1-1.4,0.6c-2.3,1.4-3.5,2.1-3.6,2.6c-0.3,1.3,1.4,3,3.1,3.6c2.1,0.7,3.9-0.6,4.6-1
			c0.8-0.6,2.2-1.8,2-2.6c-0.2-0.5-0.8-0.3-2-1C264.1,328.7,263.9,327.6,262.9,327.5L262.9,327.5z"/>
		<path d="M292.2,64.9c0.3,0,2.4,0,2.4,0.2c0,0.2-4.5-0.3-8.8,1.8c-2.1,1-4.6,2.8-4.3,3.9c0.2,0.5,1,0.8,2.2,1.1
			c1.6,0.4,3,0.4,3.9,0.4c0.4,0.8,1.2,1.9,2.4,2.9c0.5,0.5,2.2,1.8,4.7,2.2c2,0.3,2.6-0.3,8.3-1.4c2.5-0.5,2.3-0.3,2.9-0.5
			c2.1-0.7,5-2.8,7.2-9.9c-2-0.7-11.5-3.9-20.2-3.5c0,0-5.3,0.3-11.5,3.4c0,0-0.7,0.4-0.7,0.5C280.9,66.7,285.8,64.9,292.2,64.9
			L292.2,64.9z"/>
		<path d="M321.4,231.9c0.7-1.6-0.5-4.2-2.4-5.3c-0.8-0.4-1.7-0.7-2.8-0.6c-1.8,0.1-4.7,2.4-4.9,4c-0.1,0.4-0.3,1.6,0.3,2.6
			C313.3,235.2,320.2,234.8,321.4,231.9L321.4,231.9z"/>
		<path d="M216.8,239.6c-1.9-1.4-2-1.7-2.6-1.8c-1.7-0.3-4.5,1.8-4.2,4.1c0.2,1.4,1.5,2.4,2.7,2.7c3,0.9,6.4-2.1,6.1-3.5
			C218.7,240.7,218.4,240.7,216.8,239.6L216.8,239.6z"/>
		<path d="M262.3,165.9c0.5-0.1,0.2-6.2-1.3-12.5c-2.1-8.5-6.1-15.4-6.6-15.1c-0.3,0.1,0.6,2.4,3.6,13.1
			C261.2,162.6,261.9,166,262.3,165.9L262.3,165.9z"/>
		<path d="M191.8,183c2.2-2.1,4.1-3.7,5.4-4.7c-0.4-0.4-0.7-0.7-1.1-1c-12.7,7.4-23.5,16.6-29.9,31.2c3.5-0.4,6.1-0.8,7.5-0.9
			c1.6-4.1,3.3-7.2,4.6-9.2C182.1,191.9,186.7,187.7,191.8,183L191.8,183z"/>
		<path d="M486.9,398.9c0.8,0.3,3.1,1,5.4,0.6c4.3-0.7,8-5.1,9.3-10.9c-1.1-0.1-2.8-0.4-4.6-1.2c-1.2-0.6-1.6-1-2.2-1.3
			c-3.8-2.2-12.2,0.8-13.6,5.7c-0.1,0.4-0.5,1.7,0,3.1C482,397,484.6,398,486.9,398.9L486.9,398.9z"/>
	</g>
</g>
</svg>
