<?xml version="1.0" encoding="UTF-8"?>
<svg id="Layer_1" data-name="Layer 1" xmlns="http://www.w3.org/2000/svg" viewBox="0 0 498.94 958.74">
  <defs>
    <style>
      .cls-1 {
        fill: #000;
      }

      .cls-1, .cls-2 {
        stroke-width: 0px;
      }

      .cls-2 {
        fill: #fff;
      }
    </style>
  </defs>
  <path class="cls-2" d="M488.51,439.21c-1.1-2.3-1.1-1.5-2.7-5.4-5.7-14.3-11.4-28.6-17-43-2.6-6.6-5.1-13.3-7.5-20-9.3-25.6-10.3-29.3-14.1-38.7-9.3-22.8-12-19.4-18-35.6-9.1-24.6-9.9-51.6-10.2-62.7-.1-5-1.2-15.3-4.4-28.6-3.6-15.3-13-25.2-28.9-28.1-2.5-.4-3.3-1.6-4-4-1.8-5.9-6.3-9.5-11.1-9.1-4.6.4-9.1,1.5-13.7,2.1-1.1.1-2.3-.5-3.4-.8.7-1.1,1.2-3,2.1-3.3,2.1-.6,4.5-.4,6.9-.6.3-2.2.2-4.2.8-6.1,3-10.2,1-19.4-5.4-27.7-2.6-3.4-5-7.1-7.3-10.8-.9-1.4-1.1-3.3-1.3-5-.3-2.6-.2-5.1-.5-7.7-.2-2.2-.6-4.4-1-6.6,15.3-1.1,19.6-4.3,22.5-16.8,1.4-6,2.7-12,4-18,1.8-8.4-1.5-16.1-8.7-19.3-3.2-1.5-5-3.4-5.7-6.8-1.1-5.1-4.3-7.5-9.6-7.7-1.7-.1-3.4-1.9-4.9-3.1-2.4-2-4.4-4.4-6.8-6.3-3.7-2.7-8.1-4.5-11.4-7.6-11-10.2-23.8-13.4-38.3-11.3-4.4.6-8.9,1.8-13.3,1.8-14.8.2-24.2,9-32.1,20-2.2,3-3.2,6.3-7.6,7.3-2.1.5-3.9,3.4-5.4,5.6-3.6,5.5-3.4,11.6-2.1,17.9.4,2.2.6,4.7.1,6.8-1.3,5.5-2.4,10.8,1.2,15.9.6.8.5,2.3.3,3.3-2.1,8.5,4.6,13.7,7.8,20.1.4.8,2,1.1,3.1,1.5,9,3.5,11.4,7.5,9.4,16.9-.8,3.9-2.2,7.7-3.3,11.5-2.7,8.8-.6,14.7,6.9,19.8,2.6,1.8,5.2,3.8,7.8,5.6,0,.7,0,1.4-.1,2.1-3.9,1.4-7.8,3.3-11.8,4.1-6.6,1.2-13.4,2.1-20.1,2.5-21.6,1.4-33.8,14.2-40.3,33.4-2.5,7.3-3.6,15.2-4.2,23-.5,7.4-2.6,13.8-6.9,19.8-8.1,11.3-14.3,23.7-18.2,37.1-.6,2-1.3,3.9-1.8,5.4-22.7-12.5-38-30.6-44.8-56.2,8.4-1.9,14.9-4.6,19.3-6.8,6.5-3.2,12.1-7.7,19.1-13.6,11.6-9.7,9.8-24.1-3.5-31.1-2.5-1.3-5.2-2.4-7.9-3-8.1-1.8-16.2-3.8-24.5-4.9-5.4-.7-10.6-.5-14.5-5.4-1.4-1.7-4.4-2.8-6.7-2.9-9.4-.7-18.9-1.9-28.2-1.1-5,.4-9.7,4.4-14.6,6.7-1.9.9-4,2.3-6,2.2-13.2-.9-25.7-1-37.1,8.4-8.8,7.2-12.1,16-5.2,25.3,2.4,3.3,5.5,6.7,9,8.4,10.7,5.1,19.1,12.5,26.1,21.9,2.5,3.4,6.1,5.6,10.4,4.5,6.1-1.5,11.5.2,16.7,2.9,5.8,3,11.7,5.6,17.3,8.9,2.4,1.4,4.7,3.9,5.7,6.4,6,14.1,11.4,28.4,17.5,42.5,6.1,14.1,13.8,27.4,26.6,36.2,9.6,6.7,13,14,11.8,25.7-1.8,18.4.5,36.9,4,55.2,3.4,18-.4,35.9-.9,53.8-.3,11.5-2.3,23.1-.8,34.4,1.4,11.1.6,21.9-.1,32.8-.3,5.5-1,11-1.2,16.5-.4,8.9,2,16.7,8.9,22.9,3.8,3.5,7.8,7,10.7,11.1,2.1,3,3.8,7.1,3.8,10.8.1,8.3-.9,16.6-1.3,24.9-.9,20.5-2.6,41-2,61.4.5,14.9.5,29.7-1.9,44.3-2,12.3,1.6,21.2,12.6,27.2,6.4,3.5,9.3,8.9,8.9,16.1-.7,13.5-.5,27.1-2.6,40.4-2.2,13.9-1.6,26.1,9.4,36.1,3.3,3,2.5,6.3,1.1,10.4-2.6,7.8-5.4,16-5.4,24,0,6.7-1.2,10-7.1,13.2-15,8-16.4,20.4-4.2,32.3,1,1,2.1,2.3,2.3,3.6,1.9,10.8,7,15.7,18.1,16.9,3.8.4,7.6.5,11.5.9,7.6.8,14.5-.7,20.7-5.5,1.7-1.3,4.2-2.6,6.3-2.5,19.6,1.1,39.2,2.5,58.8,3.8,4,.3,6.3,2.8,8.8,5.8,3.1,3.5,6.8,7.4,11,8.8,10.6,3.5,21.5,2.5,31.8-1.6,11.6-4.6,11-14,2-18.7-.2-.1-.2-.5-.4-.8,5.1,1,10.1,2.3,15.1,3.1,8.9,1.3,17.3-.7,25-4.9,5.7-3.1,6.7-14.5,2.5-18.4-3-2.8-6.1-6.2-7.5-10-2.4-6.3-4.1-13.1-5-19.8-2.2-15.6-5.8-31.5-5.1-47,1.5-32,2.8-63.9.2-95.9-.2-2,.5-4.2,1.1-6.2,1.4-4.8,3.5-9.4,4.3-14.3,3.6-22.9,7-45.8,10.2-68.7.6-4.2,2.4-7.2,5.7-10,5.3-4.5,10-9.8,15.1-14.5,2.1-2,4.6-4.3,7.2-4.8,8.7-1.8,11.1-4.1,11.9-13,.5-6.5,1-13,1.7-19.4.2-1.8,1.1-4.2,2.5-5.1,10.5-6.6,12.2-16.7,12-27.9-.2-11.3-.3-22.7-.3-34,0-2,.1-4.2,1-5.8,3.1-5,2.6-10.3,2.5-15.9-.3-17.6-.1-35.2-.1-52.9l1.3-.1c3.6,14.6,9.2,24.9,13.4,31.4,5.6,8.6,8.7,10.3,11.2,11,8.3,2.4,19.5-3.8,23.5-12.2,5.4-11.1-1.5-25.9-8.5-41Z"/>
  <path class="cls-2" d="M464.91,500.31c.4.1.2,0,0,0h0Z"/>
  <path class="cls-1" d="M491.96,480.75c4.02-3.08,4.47-8.28,4.98-14.29.85-9.96-1.87-22.82-8.43-27.24-.73-.5-2.43-1.5-4.13-3.51-2.62-3.1-3.4-6.41-3.68-7.58-3.08-12.68-7.95-24.87-11.89-37.31-2.25-7.11-1.5-3.48-7.5-20-9.3-25.6-10.3-29.3-14.1-38.7-9.3-22.8-12-19.4-18-35.6-9.1-24.6-9.9-51.6-10.2-62.7-.1-5-1.2-15.3-4.4-28.6-3.6-15.3-13-25.2-28.9-28.1-2.5-.4-3.3-1.6-4-4-1.8-5.9-6.3-9.5-11.1-9.1-4.6.4-9.1,1.5-13.7,2.1-1.1.1-2.3-.5-3.4-.8.7-1.1,1.2-3,2.1-3.3,2.1-.6,4.5-.4,6.9-.6.3-2.2.2-4.2.8-6.1,3-10.2,1-19.4-5.4-27.7-2.6-3.4-5-7.1-7.3-10.8-.9-1.4-1.1-3.3-1.3-5-.3-2.6-.2-5.1-.5-7.7-.2-2.2-.6-4.4-1-6.6,15.3-1.1,19.6-4.3,22.5-16.8,1.4-6,2.7-12,4-18,1.8-8.4-1.5-16.1-8.7-19.3-3.2-1.5-5-3.4-5.7-6.8-1.1-5.1-4.3-7.5-9.6-7.7-1.7-.1-3.4-1.9-4.9-3.1-2.4-2-4.4-4.4-6.8-6.3-3.7-2.7-8.1-4.5-11.4-7.6-11-10.2-23.8-13.4-38.3-11.3-4.4.6-8.9,1.8-13.3,1.8-14.8.2-24.2,9-32.1,20-2.2,3-3.2,6.3-7.6,7.3-2.1.5-3.9,3.4-5.4,5.6-3.6,5.5-3.4,11.6-2.1,17.9.4,2.2.6,4.7.1,6.8-1.3,5.5-2.4,10.8,1.2,15.9.6.8.5,2.3.3,3.3-2.1,8.5,4.6,13.7,7.8,20.1.4.8,2,1.1,3.1,1.5,9,3.5,11.4,7.5,9.4,16.9-.8,3.9-2.2,7.7-3.3,11.5-2.7,8.8-.6,14.7,6.9,19.8,2.6,1.8,5.2,3.8,7.8,5.6,0,.7,0,1.4-.1,2.1-3.9,1.4-7.8,3.3-11.8,4.1-6.6,1.2-13.4,2.1-20.1,2.5-21.6,1.4-33.8,14.2-40.3,33.4-2.5,7.3-3.6,15.2-4.2,23-.5,7.4-2.6,13.8-6.9,19.8-8.1,11.3-14.3,23.7-18.2,37.1-.6,2-1.3,3.9-1.8,5.4-22.7-12.5-38-30.6-44.8-56.2,8.4-1.9,14.9-4.6,19.3-6.8,6.5-3.2,12.1-7.7,19.1-13.6,11.6-9.7,9.8-24.1-3.5-31.1-2.5-1.3-5.2-2.4-7.9-3-8.1-1.8-16.2-3.8-24.5-4.9-5.4-.7-10.6-.5-14.5-5.4-1.4-1.7-4.4-2.8-6.7-2.9-9.4-.7-18.9-1.9-28.2-1.1-5,.4-9.7,4.4-14.6,6.7-1.9.9-4,2.3-6,2.2-13.2-.9-25.7-1-37.1,8.4-8.8,7.2-12.1,16-5.2,25.3,2.4,3.3,5.5,6.7,9,8.4,10.7,5.1,19.1,12.5,26.1,21.9,2.5,3.4,6.1,5.6,10.4,4.5,6.1-1.5,11.5.2,16.7,2.9,5.8,3,11.7,5.6,17.3,8.9,2.4,1.4,4.7,3.9,5.7,6.4,6,14.1,11.4,28.4,17.5,42.5s13.8,27.4,26.6,36.2c9.6,6.7,13,14,11.8,25.7-1.8,18.4.5,36.9,4,55.2,3.4,18-.4,35.9-.9,53.8-.3,11.5-2.3,23.1-.8,34.4,1.4,11.1.6,21.9-.1,32.8-.3,5.5-1,11-1.2,16.5-.4,8.9,2,16.7,8.9,22.9,3.8,3.5,7.8,7,10.7,11.1,2.1,3,3.8,7.1,3.8,10.8.1,8.3-.9,16.6-1.3,24.9-.9,20.5-2.6,41-2,61.4.5,14.9.5,29.7-1.9,44.3-2,12.3,1.6,21.2,12.6,27.2,6.4,3.5,9.3,8.9,8.9,16.1-.7,13.5-.5,27.1-2.6,40.4-2.2,13.9-1.6,26.1,9.4,36.1,3.3,3,2.5,6.3,1.1,10.4-2.6,7.8-5.4,16-5.4,24,0,6.7-1.2,10-7.1,13.2-15,8-16.4,20.4-4.2,32.3,1,1,2.1,2.3,2.3,3.6,1.9,10.8,7,15.7,18.1,16.9,3.8.4,7.6.5,11.5.9,7.6.8,14.5-.7,20.7-5.5,1.7-1.3,4.2-2.6,6.3-2.5,19.6,1.1,39.2,2.5,58.8,3.8,4,.3,6.3,2.8,8.8,5.8,3.1,3.5,6.8,7.4,11,8.8,10.6,3.5,21.5,2.5,31.8-1.6,11.6-4.6,11-14,2-18.7-.2-.1-.2-.5-.4-.8,5.1,1,10.1,2.3,15.1,3.1,8.9,1.3,17.3-.7,25-4.9,5.7-3.1,6.7-14.5,2.5-18.4-3-2.8-6.1-6.2-7.5-10-2.4-6.3-4.1-13.1-5-19.8-2.2-15.6-5.8-31.5-5.1-47,1.5-32,2.8-63.9.2-95.9-.2-2,.5-4.2,1.1-6.2,1.4-4.8,3.5-9.4,4.3-14.3,3.6-22.9,7-45.8,10.2-68.7.6-4.2,2.4-7.2,5.7-10,5.3-4.5,10-9.8,15.1-14.5,2.1-2,4.6-4.3,7.2-4.8,8.7-1.8,11.1-4.1,11.9-13,.5-6.5,1-13,1.7-19.4.2-1.8,1.1-4.2,2.5-5.1,10.5-6.6,12.2-16.7,12-27.9-.2-11.3-.3-22.7-.3-34,0-2,.1-4.2,1-5.8,3.1-5,2.6-10.3,2.5-15.9-.3-17.6-.1-35.2-.1-52.9l1.3-.1c1.01,4.23,3.48,12.03,9.92,19.48,2.74,3.17,7.16,8.22,14.73,11.05,3.57,1.33,12.57,4.69,18.41.22ZM377.11,171.41c-.3,3.9-.1,7.9-1,11.6-3.8,16.7-4.4,33.7-3.8,50.7.3,8.8,1.2,17.6,1.6,26.4.5,8.7-2,16.4-8.3,22.8.4-1.4.9-2.8,1.3-4.2-9.3,4.3-13.8,9.1-16.2,13-1.2,2-4.1,7.2-6.1,6.7-.4-.1-.9-.4-1-.9-.2-.7.6-1.5,2.1-3.1,1.4-1.5,2.1-2.2,2.1-2.2,1.4-1.3,4.1-4.9,9.4-14-12.2,10.4-15.8,12.8-16.1,12.4-.1-.1.2-.7.6-1.4,1.6-2.8,2.3-5.6,2.6-8.2-.4,1.1-5,12.3-13.3,12.9-.9.1-2,0-3.1-.3.9-.4,2.1-1.1,3.4-2.3,1.2-1.2,2.8-2.8,2.6-4.3-.3-2.2-4.4-4.1-7.4-3.3-2.7.7-3,3.2-6.1,5.6-2.7,2.1-5.6,2.8-7.6,3,5.8-2.4,9.5-5.6,9.1-7.9-.1-.7-.7-1.5-1.4-2-2.3-1.5-5.3.9-6.1,0-.5-.5-.2-2.1,3.8-7.5-6.7,5.1-7.8,14.8-16.5,15.7,12.7-20.5,26-41.2,38.5-62.2,8.1-13.7,18.3-26.4,21.7-42.5.9-4.4,2.5-7.7,7.5-8.9-3.9,17.9-7.7,35.7-11.5,53.6.4.1.7.2,1.1.3,1.6-5.9,3.1-11.8,4.4-16.3v43.2c1.8-21.9,3.8-46.1,5.9-70.3.4-6.2,1.6-12,7.8-16.1h0ZM357.31,349.51c-1.4,2.6-3.5,2.2-6-.1-3-2.8-6.1-5.5-10.3-9.2,4.1,5.1,7.4,9.1,10.7,13.1-4.4,3.9-4.9,4.3-8.5-.1-4.3-5.2-7.5-11.3-11.2-17,3.2,7.4,6.5,14.7,10.1,23-18.8,9.8-37.5,21.1-58.9,29.2,0-2.9-.2-5,0-7,1.9-21,3.8-42.1,6-63.1.3-2.6-1.4-7.3,3.5-7.4,5.4,0,3.4,4.8,3.5,7.6.3,7,.1,14,.1,20.9h1.9v-28.4c2.3-.2,3.7-.3,5.6-.4.2,4.3.5,8.2.7,12.1h.4c.2-3.2.3-6.3.7-9.5.1-1,1.3-1.9,2-2.8,1,.9,2.5,1.6,2.8,2.7.9,4,1.4,8,2.2,13,0-4.1-.2-7.3.1-10.4.1-1.5,1.2-2.9,1.9-4.4.8,1.2,1.7,2.4,2.4,3.8.3.7.2,1.6.8,2.4.1-1.9.3-3.8.4-5.8,3.8-1.3,5.9.6,6.9,3.8,1.3,3.8,2.1,7.7,3.3,11.5.5,1.7,1.5,3.2,2.3,4.8-1.2-6-2.5-12-3.7-18,2.7-.2,4.9,1.4,6.6,4.8.1-1.3.2-2.2.3-4.4,3.2,1.7,6.1,3.1,8.9,4.6.2.1.3.5.5.8,2.4-2.8,4.9-.8,6,.9,1.3,1.9,1.2,4.8,2.1,7.1,1.8,4.6,3.9,9.1,6,13.5.7,1.6,1.7,3,2.6,4.5-.5.4-1,.7-1.5,1.1-4.2-5.1-8.3-10.2-12.5-15.3-.3.2-.6.3-.8.5,4.2,5.8,8.1,11.5,12.1,17.6h0ZM250.11,399.31c-7.4.1-14.5-1.2-22.3-5.7,28.8-20.5,37.8-52.2,50.5-81.9-2.2,13.9-4.2,27.8-6.8,41.7-2.2,11.9-5,23.7-7.5,35.5,3.4-14,7-28,10-42.1,2.1-10.1,3.5-20.3,4.6-30.6.5-5.1,2.3-6.9,7.9-5.2,0,1.5.1,3.2,0,5-1.5,22.6-3,45.2-4.4,67.8-.2,4-1.7,6.5-5.6,7.8-4.4,1.4-8.7,3.1-13.7,5,.3-2.2.5-3.6.6-5-2,6.7-7.5,7.6-13.3,7.7h0ZM226.41,395.11c3.1,2,6.4,3.6,9.8,4.8,3.4,1.1,7,1.4,10.6,2.5-7.7,2.3-15.9,4.3-23.4,1.4-4.5-1.7-8.4-6.3-11.3-10.4-3.2-4.6,1.4-11.2,8.5-13.2-2.8,9.3-2.8,9.4,5.8,14.9h0ZM241.91,355.41c-4.4,4.9-9,9.6-13.5,14.5-.6-.4-1.1-.8-1.6-1.1,1-1.7,1.7-3.6,3-5,9.1-9.6,14.6-21.3,18.8-33.6-2.5,4.6-4.9,9.4-7.6,13.9-2.6,4.2-5.6,8.1-8.4,12.1-.6-.3-1.2-.7-1.9-1,3.9-7.5,7.9-15.1,11.8-22.6-.3-.1-.5-.3-.8-.4-3.6,5-7.2,10-10.7,15-.3-.2-.6-.4-.9-.5,1.2-3.5,2.3-7.1,3.6-10.6,1.6-4.2,3.6-8.2,5-12.4,3-8.9,4-9.6,14.6-9.5-.8,3.4-1.5,6.8-2.3,10.1.7-1.6,1.8-3.2,2.2-5,1.3-5.5,4.5-8.2,11.7-6.9-2.1,6.5-4.2,12.9-6.4,19.3,2.5-5.2,4.9-10.5,7.4-15.7,1.5-3.2,3.1-6,8.5-4.2-9.4,30.5-20,60.1-48.6,78.8-3.6-3.7-3.6-6.9.3-11.8,5.5-7.1,11.3-14,16.6-21.1,3-4,5.3-8.4,8-12.6-2.9,3.3-5.7,6.9-8.8,10.3h0ZM231.01,302.21c21.4-1.6,42.8-4,64.2-4.4,13-.2,26.1,2.6,39.1,4-1.1-.9-2.2-2.2-3.5-2.5-17.5-4.3-35.3-3.7-53.1-2.6-9.9.6-19.7,2-29.6,3-.1-.5-.1-1.1-.2-1.6,14.3-1.5,28.5-3,42.8-4.5,3-.3,5.9-.6,8.9-1.1,9.1-1.3,17.8,1.9,26.6,3.2,11.3,1.7,22.3,4.8,33.5,7.2,0,.4-.1.8-.1,1.2-7.7-.8-15.4-1.5-23-2.3,3.5,1.3,7,2.6,10.5,3.9,0,.1,0,.2-.1.4-7.5-1.2-15-2.5-22.6-3.8,9.5,2.7,18.9,5.4,28.4,8.1,1.2.3,2.3.8,3.2,2l-8.4-2.2c-.1.2-.1.4-.2.5l11.3,5.2c-.1.2-.1.3-.2.5-13.8-2.8-27.5-6.6-41.5-8s-28.3-1-42.4-.2c-14.2.9-28.3,3.3-42.4,5.1,0-.1-.1-.6,0-.6,4.4-2.3,8.7-5.1,13.4-6.5,6.2-1.9,12.8-2.6,16.9-3.4h-34c0-.1,0-.2-.1-.3,1-.1,1.8-.3,2.6-.3h0ZM228.71,294.21c7.9.5,15.6,1,23.4,1.5-7.9,1.6-15.8,2-23.4-1.5ZM357.91,334.91c-4.2-3.2-5.2-6.4-4.3-12.9,5.4,3.3,5.5,7.8,4.3,12.9ZM240.31,315.81c-2.8,6.8-5,12.5-7.3,18.1-3.2-11.8-2.3-14.1,7.3-18.1ZM373.21,168.51c-2.9,3.3-5.5,6.2-8,9.2-.3-.3-.7-.6-1-.9,1.5-4.1,1.8-9.3,9-8.3ZM346.91,210.01c-12.1,20.7-24.6,41.1-37.4,61.4-3.6,5.7-8.6,10.5-13,15.8-5,6-12,5.1-20,6.4,24.3-22,39.5-48.9,55.6-75,8.2-13.3,16.8-26.4,25.2-39.6,1.4-2.2,3.2-4.2,5.7-7.3-2.1,15.3-9.3,26.8-16.1,38.3h0ZM348.91,158.01c-6.8-1.1-12.7-10.4-12.7-23.3,5.7,1.8,7.4,4,7.8,5.7.3,1.3-.2,2.3.5,4.1.6,1.8,1.5,2,3.1,4.1,2.9,3.6,2.4,5.2,4.5,6.5.9.6,2.3,1.1,4.7.9-3.8,2.3-6.6,2.2-7.9,2h0ZM358.81,141.41c.5,1.4,1,3.2,1.3,5.4.3,2.6.1,4.8-.2,6.4-5.2-2-5.5-5.6-1.1-11.8h0ZM352.21,127.81c5.1,4.4,4.7,10.9-1.1,14.4-.5-1.3-1.4-3.8-1.2-7.1.2-3.5,1.5-6.1,2.3-7.3ZM350.01,127.91c-.1.1-.7-.4-1.4-1-4-3.5-5-7.3-6.3-7.1-.1,0-.6.1-1,1.1-2.2,5,3.5,13.4,3.1,13.7-.2.1-2.2-2.2-4.2-6.1-.8-1.6-2.5-5.2-3.7-10.4-.7-3-1.3-7.4-1-12.8,12.3,17.6,15,22.3,14.5,22.6h0ZM347.51,118.01c-1.1-1.4-2.3-3.1-3.3-5-4.1-7.5-4.9-14.9-4.9-19.7.8,1.3,2,3.1,4.1,4.2.9.5,1,.4,1.5.7,2.2,1.6,1.7,5.4,1.6,9.2,0,2.5.2,6.1,1,10.6h0ZM338.41,67.81c-3.3,0-5.8,1.2-7.2,1.9,4.2,1.8,6.4,2.1,7.7,2.1.3,0,1.2-.1,2.5.1.8.1,1.7.3,2.5.6-5.5,5.3-8.2,5.8-9.7,5.2-1.8-.8-1.7-3.1-5.3-6.3-1.7-1.6-2.5-1.7-2.6-2.4-.2-2.4,6.1-6.5,12.1-5.8,7.4.9,10.9,9.1,11.1,9.6-.7-.9-4.8-5-11.1-5h0ZM259.71,98.01c-1.2-2.7-1.6-5.7-2.5-9.4.7.6,4.8,4,10.7,3.3,5.4-.6,8.5-4.2,9.1-5,.5.6,1.4,1.8,2.1,3.4,1.9,3.9,2,8.2,2.1,13.9.1,3.6.1,5,1.2,6.5.6,1,1.7,1,3.5,2.7,1.6,1.6,1.8,2.2,1.7,2.6-.1,1.2-1.4,1.9-1.8,2.2-1.7,1-3.5.7-3.5.8s1.3.5,3.2.5c2.9,0,3.1-.9,5.6-1.1,3.2-.3,4.1,1,7.1.2,1.2-.3,2.4-.9,2.3-1.2-.1-.4-1.5,0-3.6-.6s-2.5-1.6-3.8-1.4-2.1,1.2-2.4,1c-.1-.1,0-.6.6-1.7,1-1.8,1.5-2.5,2.2-3.8s1.2-2.4.8-3c-.5-.6-1.5-.1-2.2-.8-.5-.6-.3-1.4-.2-2.9.1-1.3-.1-2.7-.2-4,0-1.7-.4-5.1-1.6-12.2.3,2.6.6,6,1,10,.3,3.7.6,7.4-1.1,8.7-.9.7-2,.9-2,.9-.9.2-1.8.1-2.4-.2-1.5-.8-2.1-2.8-2.4-4.8-.7-5.3-1.1-10.6-1.9-15.9-.8-5.5-1.4-8.4-3.1-10-1.7-1.5-4.5-1.5-10-1.6-7.1-.1-10,1.3-10.8,1.7-1.7.9-2.9,1.9-3.7,2.7.7-4.6,2.2-7.8,3.4-10,5.1-9.1,13-11.6,15.9-17.6,1.6-3.2,3.5-3.1,6.4-1.2,4,2.8,8,5.6,12.4,7.4,4,1.7,7.6,2.8,15.2,4.3,2.5.5,7,1.2,11.5,4.2.8.5,3.1,2.1,2.8,2.9-.3.9-3.3.2-7.8,0-4.6-.2-7.7.6-13.4,1.4-5.4.8-8.3,1.7-9.7,3.7-1.1,1.6-1.4,3.5-1.3,5.2s.4,3.1.8,4c.5-.2,1.3-.5,2.4-.6,1.5-.1,2.6.2,3.2.5.6.5,1.5,1.2,2.8,1.8,1.1.6,5.1,2.5,10.2,1.6,3.7-.7,6.6-2.8,7.4-3.6.1-.2.8-.9,1.9-1.8.4-.3.6-.5.7-.5.8-.5,2.3-1.8,5.3-4.9,2.1,2,5.1,5.5,6.2,10.5,1,4.4.1,8.1-3.1,16.3-6.3,16-9.7,24.2-17.7,30.3-5.7,4.3-9.6,4.7-11.3,4.8-3.6.1-7.3-1.2-11.1-3.9-9-6.3-16.5-13.9-20.8-24.4-1.8-4-4.5-7.7-6.3-11.9h0ZM264.81,135.51c-5.7-7.6-6.8-12.9-4.1-17.4,1.2,5.3,2.6,11.2,4.1,17.4ZM247.61,38.51c9.1-4.6,17.7-6.6,26.9-5.8-8.7,1.8-17.3,3.7-26.9,5.8ZM250.01,50.51c-4,6.6-7.3,12-10.9,18,.5-7.9,4.6-12.8,10.9-18ZM257.81,42.31c2.5-3.4,7-6.5,8.8-5.3.1.1.6.4.6,1,.2,2.4-7.9,4.3-7.6,5.5.1.6,2.5.6,3.8.6.5,0,2,0,3.4-.3,4.4-1,6.4-5,7.2-4.5.5.3,0,2.5-1,4.2-1.4,2.2-3.4,3.3-5.3,4-2.9,1-6.5,1.6-9.4.8-.9-.3-1.5-.8-1.9-1.4-.9-1.5.6-3.5,1.4-4.6h0ZM337.61,45.61c1.6,1.7,4,4.8,4.7,10.8-4-8.2-8.5-11.3-12.1-12.7-3-1.1-5.3-1-10.1-2.7-4.2-1.6-7.4-3.5-9.5-5,1-.3,2.4-.6,4.2-.5,3.6.2,6.1,2,8,3.2,8.2,5.1,10.8,2.9,14.8,6.9h0ZM326.01,34.01c-2.4-2.7-3.8-5.6-1.3-9.3,3,1.6,5.8,3.4,4.4,7.4-.2.9-2.9,2.1-3.1,1.9ZM311.91,45.11c-7.7-1.3-13.6,1.4-13.9.5-.2-.5,1.6-2.1,3.6-3,7-3.2,15.1,2,16.4,2.9.4.4,1,.9,1.7,1.3,2.2,1.2,3.8.9,3.9,1.3.4,1.1-7.1,7.1-16.8,8.1-12.3,1.3-23.2-5.8-22.8-7.3.3-1.1,6.7,1,19.2-.1,4.8-.4,12.1-1.4,12.1-2.5.1-.6-2.4-1-3.4-1.2h0ZM324.21,52.51c-1.6.2-2.5.9-2.7.6-.3-.4.9-2.4,2.9-3.4,2.8-1.5,5.8-.6,6.9-.3,2.6.8,5.9,2.7,5.6,4.1-.2,1.2-2.8,1.5-7.2,2-4,.5-8.9.7-9,.2-.1-.6,6.8-1.7,6.7-2.6.1-.4-1.6-.7-3.2-.6h0ZM331.71,58.31c.8.2,3.7,1.2,7.6,1.2,2.5,0,4.5-.3,5.9-.6-4.1,2-15.3,6.9-27.5,3-2.5-.8-4.7-1.9-6.6-3,11.3-2.1,17.2-1.6,20.6-.6h0ZM312.41,39.81c-1.5,0-3.6,0-6.1.4-4,.5-4.6,1.2-8.2,1.9-6,1.1-10,.1-10.3,1.3-.2.9,2.4,1.9,2.2,2.7-.3,1.1-5.6,1.4-9.3-1.3-1.1-.8-2-2-2.6-3.7-.4-.7-.8-1.3-1.2-1.9-.4-1.1-.3-1.8,0-2.2.7-1,2.4-.8,3-.8,5.5.3,9.1-2.8,17.3-2.1,3,.3,8.7,1.3,15.2,5.7h0ZM319.71,75.31c-.2.5-2.4-.2-6.4-.8-6-.9-10-.7-10-1.1,0-.2,1.1-.4,3.3-.7,2.8-.4,4.2-.7,6-.6,1.4.1,2.7.2,4.3.9,1.3.6,3,1.8,2.8,2.3h0ZM358.51,47.61c3.6-.9,8.7,1.5,10.4,6,1.3,3.3.5,7.1-1.9,10,.2-2.3-.1-4.1-.4-5.3-.4-1.6-1-3.8-2.9-5.7-.8-.7-2-1.9-2.5-1.5-1.3.7,3.6,7.8,1.8,14.4-.9,3.4-3.4,5.8-5.3,7.2,1-2.2,4.6-9.6,2.7-11-.3-.3-.8-.2-.8-.2-2.5.1-3.3,7.7-4.9,7.6-1,0-1.8-3.1-1.9-3.4-1.3-5.9-.4-16.6,5.7-18.1h0ZM355.51,42.51c-1.9-3.2-3.4-5.8-5.5-9.5,5.1,1.9,7.8,3.9,5.5,9.5ZM342.11,33.21c7.5,2.2,12,11.8,8.6,19.9-.7-2.2-.9-3.7-1.6-5.1-.8-1.7-1.5-3.5-2.8-4.7-3.1-2.7-5.2-5.6-4.2-10.1h0ZM337.61,35.51c1.4.1,3.1,1.9,4.9,9.2-1.7-1.8-4-3.8-7.2-5.7-1.6-1-3.2-1.7-4.6-2.3.8-.1,1.9-.2,3.3-.5,2.4-.3,2.9-.7,3.6-.7h0ZM290.21,22.91c0-1.1-7.3-1.1-7.4-2.5s7.6-4.5,13.3-1.6c1.8.9,4,2.7,3.6,3.9-.4,1.2-3.7,1.2-3.7,1.5,0,.5,8.7-1.1,12.3,3,.9,1,1.2,2,1.4,2.6-3.7-.6-9.6-1.4-17-2.2-6.1-.7-11.9-1.2-11.9-2,.1-1.1,9.4-1.5,9.4-2.7h0ZM292.21,29.51c6.5-.3,13.1,1,19.6,1.5.5-1,.9-2.5.3-3.8-1.3-3.1-6.8-2.9-7.2-5.5-.2-1.2,1-1.6.8-2.8-.5-2.6-7.4-3.3-10.8-3.6-2.5-.3-6.1-.4-10.4-.1,2.6-4.8,6.1-8,10.2-9.1,3-.8,5.6-.2,8.4.3,5.1,1.1,8.8,3.1,11.6,4.7,4.6,2.7,11,6.8,18.4,12.9-7.9-3.8-14.5-5.4-16.9-3.9-1.6,1-2,2.4-2,2.4-.3,1,.6,1.8.5,3.1-.3,4.3,3.5,6.5,7.2,8.2,2,1,4.1,1.8,6,3.4-16.9-4.9-33.8-8-51.2-5,5.2-1.1,10.3-2.5,15.5-2.7h0ZM276.61,11.21c-5.6,8.6-14.6,8.7-23.5,9.8,5.6-8.2,16.1-12.5,23.5-9.8ZM253.51,24.91c.3-.3,1.5-1.8,1.8-1.6.4.3-1.8,3.6-.8,4.7.3.4.9.4,1.7.4.4,0,1.7.1,2.6-.5,1.5-1,.2-3,1.7-4.8,1.9-2.3,5.3-2.6,8.6-3.1,1.5-.2,2.4,0,3,.6.6.7.1,1.7.2,3.2,0,1.1.4,2.7,1.8,4.7-2.7.5-4.9,1.1-6.3,1.5-3.9,1.2-5.9,2.3-8.9,2-1.3-.2-2.4-.6-3-.9-1.7-.4-3.3.1-4.2,1.2-.4.6-.6,1.2-.6,1.7-1,1.8-2.7,2.8-4.2,2.5-1.6-.3-2.9-2.1-2.8-3.6.2-2.7,4.8-2.7,9.4-8h0ZM232.11,41.31c.1-.1.6-.7,1.4-.9,1.8-.3,4,1.6,5.5,5,1.2-1.8,2.1-4,1.3-5.5-1-1.9-4-1.5-4.4-3s2.1-4.2,4.2-3.9c2,.3,3.3,3.4,3.2,5.7-.1,1.3-.5,2.2,0,2.7.8.8,2.7-.6,3-.2.5.7-3.8,4.4-8.2,7.2-1.6,1-2.9,1.7-4,1.2-.9-.4-1.3-1.4-1.9-2.8-.4-1.3-1.4-3.9-.1-5.5h0ZM231.71,58.71c-1.4,5.9-2.7,11.8,3.5,16.5-6-1.3-7.2-8-3.5-16.5ZM243.01,85.61c-2.9,2.3-5.6,2-8.7-.7,8.1.7,9.5-1.2,12.1-14.9,2.2,4.4.5,12.5-3.4,15.6h0ZM245.61,63.61c4.9-1.8,7.8-4.1,9.5-5.9,1-1.1,2-2.3,3.9-3.8,2.2-1.7,4.4-2.6,5.9-3.1-.2,1.4-.9,5.9-4.8,9.4-6,5.5-13.9,3.6-14.5,3.4h0ZM256.81,143.01c-2.2-1.3-5.3-3.3-5.6-5.4-1.1-7.8.9-15.3,4.9-22.3-1,4.6-2.3,9.2-3.1,13.9-1.1,6.8.9,9.5,9.2,10.9-2.6,1.6-4.7,3.4-5.4,2.9h0ZM280.41,139.81c8,18.9,13.9,23.5,18.1,23.1,11.4-.9,22.9-37.8,26.8-37.3,1.1.1,1.8.8,1.8.8,1,1,.7,2.7.6,3.2-.6,4.6-.5,9.2-1,13.8-.7,7.2,4.2,13.4,6.5,16.4,7.5,9.4,18.3,11.1,21,11.5-11,13.7-21.6,27.7-35.6,38.2-7.5,5.6-15,5.1-17.2,5.4-4,.5-17.8,2.2-30.3-6.1-7.2-4.8-10.7-10.7-14.7-17.4-5.6-9.5-8.2-18.3-9.4-24.1,15.1-5.4,32.4-6.1,33.4-27.5h0ZM235.81,177.61c.1-.4.5-.8,1.6-2.3,1.3,11.6-1.6,21.9-1.8,32.2,3.5-13.3,4.6-26.9,5.3-40.7.4,6.6,1.1,13.2,1.3,19.8.2,6.8.1,13.6.1,21.6,1.2-11.5,2.3-21.7,3.5-33,1.8,2.6,3.3,4.7,4.6,6.9,7.3,13,7.5,18.3,14.5,25.5,4.3,4.5,8.2,6.4,9.2,6.8,4.6,2.1,8.9,2.5,11.8,2.7,2.1.2,4.1.2,9.5-.3,4-.3,9.4-.9,15.8-1.9-4.3,1.7-10.6,3.6-18.2,4.1-5.5.4-10.2-.1-14-.7,2.5,1.1,6.5,2.4,11.6,2.5,6.4.2,11.4-1.5,14.2-2.7-1.8,1.4-5.2,3.7-10.1,4.6-2.8.5-5.2.4-7,.2,1.4.7,4.8,2,9,1.5,2.7-.3,4.8-1.3,6-2-.7,1.4-2.4,4.2-5.5,5.2-1.9.6-4,.1-7.6-.9-11.3-3.2-16.2-6.9-20.6-10.5-11.2-9.1-15.9-20.1-18-25-1.1-2.7-1.9-5-2.4-6.5,1.6,11.2,4.7,19.6,7,25.1,2.6,6,4.9,9.4,8.2,12.2,3.4,2.9,6.9,4.4,9.2,5.2-3-2.1-6.6-5.4-9.7-10.1-.9-1.3-1.6-2.6-2.2-3.9,3.6,4,10.8,10.7,21.7,14.3,4.5,1.5,8.7,2.1,12.1,2.3-4.1,6.3-9.8,9.4-12.6,8.1-3.4,7.5-11,10-16.4,15.1,1.9-.9,3.9-1.5,5.5-2.7,12.3-8.9,24.1-18.4,36.7-26.7,17.5-11.5,30-27.5,42.7-43.5,2-2.5,4.2-4.8,6.3-7.1.5-.6,1.2-.9,2.5-.9-1.8,3.3-3.4,6.7-5.5,9.8-16.6,24.5-32.5,49.7-50.5,73.2-10.3,13.4-24,24.3-36.6,35.9-2,1.9-3.5,2.7-4.9,2.6-1.3-.1-2.4-1-4.8-3.9-3.8-4.8-6.1-8.9-6.5-8.7-.4.2,1.4,3.6.6,4.2-1.3,1-8-6.5-8.9-5.8-.4.3.7,2.1,2.1,5.3,1.2,2.8,2,5.2,2.4,6.7-1-1.3-2.6-3.2-4.9-5.3-1.7-1.6-2.6-2.2-3.8-3.3-1.7-1.6-4-4-6.2-7.7-.6.7-1.7,2.3-2.1,4.6-.5,3.5,1.2,6.1,1.6,6.8-4.7-2.3-11.6-12.7-11.5-19.5.2-7.7.8-15.7,3.1-23,6.3-20.8,9.6-42,12.1-63.5.3-.9.3-1.9.5-2.9h0ZM77.21,216.21c5.3,2.4,9.9,3.5,13.2,3.9,5.7.8,14.5,2.1,20.1-3.1,1.2-1.1,2-2.3,2.5-3.2v4.7c-2.7,1.4-6.3,3-10.9,3.6-12.3,1.9-21.9-3.9-24.9-5.9h0ZM130.21,175.01c2.2,0,5.5.1,9.3,1.2,1.9.6,4.8,1.4,7.9,3.6,2.9,2.1,6.6,4.6,7,8.7.7,5.6-5.1,9.9-6.4,10.8-5.3,3.8-11.3,2.9-13.3,2.6-9.6-1.3-15-8.9-16.1-10.5,2-.2,6.1-.9,9.5-4.1,1-.9,2.3-2.2,3-4.3,1.4-3.7-.4-7.2-.9-8h0ZM103.51,170.41c3.4-1.1,11.8-3.3,18.9.8,1.5.8,5.9,3.4,5.8,6.7-.1,2.3-2.4,3.9-3.4,4.6-7.2,5.1-18.6,1.1-21.5,0,.6-1,2-3.6,1.7-7.1-.1-2.3-.9-4.1-1.5-5h0ZM108.21,203.71c1,.7,2,1.6,2.8,3,1.1,1.9,1.6,4.9.5,7.1-2,4.1-8.6,4.4-14,4.7-4,.2-7-.2-7.7-.4-3.3-.5-13.8-2.2-15-7.6-.6-2.7,1.4-5.3,2-6.1,4.1-5.3,12-5,17.8-4.8,1.3,0,8.4.4,13.6,4.1h0ZM76.81,182.11c-10.3-1.3-16.8-7.5-18.8-9.5,3,2.1,8.8,5.5,16.8,6.3,14.5,1.5,25-6.7,27.3-8.6.1,1.2.2,2.4.3,3.6-1.6,1.4-11.5,10-25.6,8.2h0ZM56.81,166.11c.2-1.2,1.2-2,3-2.9,7.7-4.1,16.6-3.5,23.9-2.2,8.1,1.4,17.7,3.1,18,6.7.4,4-10.8,7.8-12,8.2-2.4.8-9.6,3.1-18.3.7-6.9-1.8-15.2-6.8-14.6-10.5h0ZM80.61,189.71c-3.4-1.2-5.8-2.9-7.4-4.1,3.2.4,8,.7,13.7-.6,7.3-1.7,12.5-5.1,15.3-7.3.1,1.6.2,7.6-3.9,11.2-5.7,5.1-14.9,1.8-17.7.8h0ZM34.91,168.81c6.4-.4,11,1.6,12.6,2.5,3.3,1.7,8.5,5.2,7.8,7.5-.3.9-1.5,1.6-7.9,2.3-15.6,1.8-22.1-.5-25.9-2.4-2.2-1.1-2.8-1.8-2.8-2.6-.2-3,8.4-6.9,16.2-7.3h0ZM18.61,178.51c3.5,1.7,8.7,3.7,15.3,4.4,9.5,1.1,17.1-.8,21.4-2.3v3c-5.3.9-12.4,1.5-20.7.7-6.5-.7-12-2.1-16.4-3.5.1-.8.3-1.5.4-2.3h0ZM23.71,196.91c1.5-5.5,17.7-4.7,19.2-4.6,9.9.6,14.2,4.1,15.6,5.2,1.2,1.1,4.4,3.8,3.8,6.3-.1.5-.8,2.7-7.9,4.2-2.7.6-20.3,4.4-28.3-5.6-1.2-1.2-3-3.4-2.4-5.5h0ZM31.81,210.41c-3.6-2.2-5.8-5-7-6.9,1.8,1.7,4.9,4.3,9.5,6.1,5.1,1.9,9.3,1.8,11.8,1.8,7.2-.2,12.8-2.6,16.1-4.4.2.9.4,1.8.5,2.7-4.5,2-10.8,3.9-18.1,3.8-3.9-.3-8.3-.4-12.8-3.1h0ZM145.71,333.41c-6.2-4.4-11.8-9.3-16.6-14.7-12.9-14.4-18.7-30.9-22.8-42-2.6-7-6-13.6-8.6-20.6-1.2-3.2-2.6-7.2-6-11.5-2.6-3.2-5.3-6.5-9.3-7.3-1.1-.2-3.3-.4-6.2-1.6-1.2-.5-2-.9-2.8-1.3-6.3-3.1-7-2.9-12.8-5.9-3.3-1.7-3.2-1.8-4.8-2.4-3.7-1.5-5.3-1.4-7.9-2.4-3.4-1.3-7.8-4.1-7.4-5.4,1.1-3.7,42.2,7.9,56,7.9.9,0,4,0,7.1,1.6,3.6,1.9,5.4,5,6.2,6.2,10.1,16.8,16.8,28.1,22.9,35.1,9.2,10.6,13.3,7.3,22,18,7.3,8.9,10.4,18.6,11.9,25.6.4-.1.8-.1,1.2-.2-.6-4-.4-8.3-1.9-12-3.8-9.3-2.2-18.3,1.6-26.7,5.1-11.2,11-22,17.2-32.6,3.2-5.4,5.8-10.6,5.9-17.1.3-12.3,2.7-24.2,8.9-35,6.2-11,14.8-18.3,28.2-18.4,3.8,0,5.5,1,6.1,5.2,1.2,8.8-3.2,25-3.9,33.5-.2,2.5-1,4.9-1.3,7.4s-.5,4.9-2,5.5c-.1.1-.6.3-1.2.1-2.1-.7-1.1-6-2.9-6.7-.9-.4-1.9.8-3.9,2.2-5.2,3.9-9.1,3.5-9.2,5.2-.2,2,5.3,2.4,7.8,6.7,1.9,3.2.9,7,.4,9.2-4,18-4.9,37.1-15.3,52.9-8.8,13.4-19.2,25.9-29,38.7-.7.9-1.7,1.6-2.6,2.3-11.6,9.4-13.2,8.8-25,.5h0ZM209.71,446.71c-3.7-2.9-7.2-7.2-6.1-14.3,6.1,10.9,16.1,11.5,25.5,12.9,21.6,3.2,42-1.8,62.2-8.9,3.4-1.2,6.8-2.5,10.2-3.7-9.5,8.1-20.4,13.1-32,16.1-16.3,4.2-32.6,8.4-49.6,8.3-2.8,0-6.1.6-7.4-3.5,3.9-.2,7.5-.5,11.2-.7-5-2-10.2-3.2-14-6.2h0ZM201.81,685.91c-.3,32.8-.6,65.6-1.3,98.4-.1,2.5-3.4,5-5.2,7.5,5.9-39.4,1.5-78.5,4.8-117.3.1-1.7.2-3.3.8-5,.3,5.5.9,10.9.9,16.4h0ZM187.21,656.81c0,1.3-1,2.8-2,3.8-4.2,4.6-8.6,9.1-13.6,14.3-.3-1.4-.5-2-.4-2.5.7-14.4,1.7-28.8,2.2-43.3.3-8.7,6-14,10.9-19.8.5.1,1,.2,1.5.3.5,15.8,1.1,31.5,1.4,47.2h0ZM155.41,498.01c4.3-3.9,8.5-8,12.5-12.2,2.6-2.7,4.8-5.9,7.8-9.7.6,15.2,1.3,29.8,1.9,44.5l-1.6.8c-6.8-5.8-13.7-11.6-20.5-17.4-2.6-2-2.7-3.7-.1-6h0ZM152.61,487.51c2-41.1,4-81.1,6-122.2,6,5.4,4.1,12.8,7.6,18.1,1.6-6,3.1-12,4.7-18,.2,0,.4,0,.6-.1.5,3.5,1.2,7,1.4,10.5,1.3,23.6,2.1,47.2,3.8,70.8,1.2,18.8-9.9,29.8-24.1,40.9h0ZM154.81,376.41c.2,3.1-.3,5.1-1,9.6-.5,3.1-1.1,7.6-1.7,13.1-.2-4-.3-8-.3-12.1-.1-7.1,0-14.1.2-20.8,1.2,2.3,2.6,5.8,2.8,10.2ZM150.21,555.51c1.6-14.8,3-28.9,4.7-44.5,8.4,6.6,15.7,12.3,23,18.1-9.3,8.8-18,17.1-27.7,26.4ZM167.11,579.91c-4.9-6.2-2.3-13.8.6-20.4,1.4-3.2,4.3-5.8,7.8-8.5.4,3.7.7,7.3,1.1,10.9h.4v-15.8c.3,0,.6,0,.9-.1.2,2.4.4,4.8.6,7.2.4.1.8.2,1.2.2.9-3.2,2.5-6.5,2.5-9.7,0-18.5-.5-37-.7-55.4-.4-37.1-.8-74.3-1.2-111.4,0-3.5-.1-7,.4-10.5,1-5.8,2.5-11.5,4.7-17.2v247.9c-6.7-6-13.4-10.9-18.3-17.2h0ZM184.61,750.41c-4.2-3.2-8.8-6.1-12.4-9.8-3.8-3.9-2.5-7.1,3-7.8-1.9,8.8,5.7,11.9,10.7,16.7-.4.3-.8.6-1.3.9h0ZM188.01,703.31c-5.2,6.1-10.8,11.8-16.3,17.7-.4-.3-.8-.6-1.2-.9.6-10.2,1.1-20.5,1.9-30.7.3-4.1,2.5-5.2,5.6-2.6,3.9,3.3,7.4,7.1,10.5,11.1.9,1.2.6,4.3-.5,5.4h0ZM190.11,691.31c-2.6-4-8.8-5.1-8.9-11,.6-.3,1.1-.7,1.7-1,2.7,3.8,5.5,7.5,8.2,11.2-.3.3-.6.6-1,.8h0ZM189.61,655.81v-309.2h2.4c0,32.1-.4,64.3.1,96.4,1,56.8,2.6,113.6,3.9,170.4.2,9,.8,18,1,27,.2,6.5-1.9,12-7.4,15.4h0ZM233.01,915.51c-1.5,5.6-2.9,11.2-8,15.2-1.5,1.2-1.6,4-2.9,5.6-1.7,2-3.8,4.3-6.1,5-2,.5-3.6.1-4.6-.9-1.6-1.6-.7-4.5-.5-5.1.3-1.1.6-1.2,1.6-3.4.4-1,1.4-3.1,1.1-3.3-.4-.2-2.8,2.9-4.7,5.7s-2.1,3.7-3.3,3.9c-1.3.3-1.9-.9-5.1-1.5-1.5-.3-1.5,0-2.4-.3-1.9-.6-2-1.8-3.9-3-2.4-1.6-3.5-.5-5.1-2.1-.4-.5-1-1.2-2.3-2.1-.7-.5-.9-.5-1-.7-1.2-1.5,4.7-8.1,5.9-9.4,11.2-12.5,10.4-15.9,17.8-19.9,3.2-1.8,5.7-2.8,9.1-2.8,9.2-.2,16.8,10.3,14.4,19.1h0ZM222.01,492.11c2.3,1.8,4.1,2.8,5.4,4.3.9,1.1,1.6,2.9,1.6,4.3-.1,5.5-.5,11,.1,16.6,1.1-5.7,2.3-11.4,3.2-17.1.6-3.8,2.1-5.8,6.2-5,3.8.7,7.7.9,11.3,2,1.8.5,3.2,2.5,4.6,4.1,1.4,1.6,2.6,3.3,4.6,6-.3-4.6-2.4-8.4,3.7-9.8,4.3-1,4.9.6,5.5,3.7,2,9.8,3.9,19.6,6.1,29.3,2.2,9.5,4.7,19,8,28.3-1.7-9.5-3.5-18.9-4.9-28.4-1.4-9-2.4-18.2-3.5-27.3q-1-8.7,8.6-10.8c4.3,32.1,2.4,64.4,5.8,96.6.1-2.3.2-4.5.3-6.8v-7c.2-23.8.4-47.7.8-71.5,0-3.6.5-7.3,1.2-10.9.2-1.1,1.5-2.1,2.3-3.1.9,1,2.4,2,2.5,3.1.5,5.3.6,10.6.7,16,.1,7.2,0,14.3,0,18.1,2-10.6,4.7-24.6,7.4-38.5.7-3.5,2.3-5.9,7.1-5.4-4,28.2-7.9,56.3-11.9,84.4.4.1.7.1,1,.2,4.2-20.5,8.4-41,12.6-61.5,1.7-8.1,3.1-16.4,5-24.5.5-2.3,2.4-4.2,3.7-6.3.5.2,1,.4,1.5.6-.3,4.1-.8,8.1-1,12.2-2.1,51.6-15.1,101.2-26.6,151.2-6.2,27.1-11.6,54.5-19,81.2-5.7,20.6-13,41-21.8,60.6-4,9-12.9,16-20.2,23.2-2.7,2.7-7,2.1-9.4-1.8-1.9-3.1-3.5-6.4-5.3-9.6-1-1.7-1.9-3.5-3.2-5-2.3-2.6-4.2-2.5-5,2.2-2.6-18.7-2.3-36.4,2.1-54.1,2.9-11.6,5-23.4,7.1-33.2,3.4,13.8,7.3,29.6,11.3,45.3-.1.1-.3.3-.4.4-1.8-3.4-3.6-6.8-5.3-10.2,4.9,10.7-2.8,23.7,7.1,33.6-1.1-.2-2.5-.8-3.9-2q-.4-.4-.8-.8c-.5-.5-3.2-2.9-4.9-2.2-1.2.6-1.6,2.7-1.7,3.5-.1.5-.1,1-.1,1.1.1,6.8.2,12.8,4.2,16.8.8.8,2.2,1.9,4.5,2.8-1.4.3-2.8.6-4.2.8-2-2.3-4-4.7-6-7,2.2,5.8,3.8,11.9,6.9,17.2,2.3,4.1,5.9,1.5,8.3-.9,8.7-8.5,16.2-18.1,20.2-29.4,7.8-21.9,15.4-44,21.2-66.5,3.6-13.9,4.1-28.7,5.3-43.1.5-6-.7-12.2-1-15.9-1.9,13.4-4.1,29-6.5,44.7-.4,2.8-1.4,5.5-1.9,8.3-2.5,14.2-13,22.4-23.6,30-7.8,5.6-15.5,2.9-19.9-5.7-1-1.9-1.9-4-2.3-6.1-6.1-30.7-13.8-61.1-16.6-92.4-2.8-30.5-2.8-60.9,1.4-91.3,1.1-8.4,1.4-16.9,2.8-25.3l-1.1,15.1c3.6-10.5,4.4-21.6,8.8-31.4h0ZM225.41,887.41c-.3-.7-.8-1.8-.4-2.3,1.8-2.6,3.9-5.1,5.8-7.6,4.4-5.7,9.8-11,13.1-17.3,13.8-26.3,22.9-54.3,28.9-83.3,11.6-55.9,23.1-111.9,33.6-168,6.5-34.7,11-69.7,16.5-104.6,1.4-9,2.8-18.1,4.3-27.1.3-1.7,1-3.4,1.5-5,.5.1,1.1.2,1.6.2-1,10.9-2,21.8-2.9,32.7.3.1.6.2.8.2,1.7-9,3.8-17.9,5.1-26.9,1.2-8.1,4.9-14.4,12.5-19.1,0,3.7.4,7-.1,10.2-3.6,24-6.7,48.2-11.1,72.1-14.8,81.2-34.8,161.1-56,240.8-2.3,8.6-4.4,17.3-6.2,26,15.4-24.6,20-53.2,30.8-79.6-7.4,55.3-18.8,109-59.6,151.4,5.3,0,8.5-2.6,24.6-18.9-3.8,5.2-7.2,10.8-11.5,15.6-4.7,5.2-10,9.8-15.4,14.2-6.1,5.2-12.6,3.4-15.9-3.7h0ZM348.31,942.91c.3.2,1,.7,1.1,1.4.1,1.2-1.4,2.3-2.3,2.9-.9.3-1.7.7-2.6,1-.6.6-1.5,1.5-2.9,1.9s-1.9,0-3.3.4c-2,.6-2.2,1.7-3.4,1.8-1.4.2-2.6-1.2-4.9-4-5.1-6.1-6.3-7.5-6.9-7.2s-.7,2.1-.2,3.5c1,2.6,3.5,2.5,5.2,5.5.4.8,1.2,2.2.7,3.1-.9,1.7-5,1.3-7.5.7-5.1-1.3-10.6-5.3-13.5-11-1.9-3.7-2.1-6-4.9-8.7-1.2-1.2-2.6-2.2-4.3-3-3.3-1.6-2.5-6.9,1.2-9.9,5.6-4.5,16.9-4.3,25.1-.2,5,2.5,5.6,4.7,17.2,15.1,2.1,2,3.6,4.9,6.2,6.7h0ZM385.51,528.31c-5.4,61.9-13.5,123.5-24.6,184.7-2.9,16-3.4,32.5-4.5,48.7-2.8,38.3-10.6,75.6-21.6,112.2-1.3,4.3-3.9,8.2-5.9,12.3-.8-.3-1.5-.5-2.3-.8,12.5-40.8,17.1-82.7,19.8-125-1.1,6.3-2.2,12.6-3.3,19-1,6.4-1.8,12.9-3,19.2-4.7,24-7.5,48.5-17.6,71.1-4.4,9.7-9.8,18-19.1,24.2-10,6.8-18.5,15.9-27.7,23.9.2.4.5.8.7,1.2,5.8-3.6,12-6.7,17.4-10.9,6.3-4.9,13-7,20.9-6,5.4.7,9.4,4.7,10,10.3-5.4,0-10.9-.3-16.3.1-7,.4-13.5,2.9-18.1,8.4-7.5,8.8-17.1,8.6-27,7-7.2-1.2-14.3-3.2-21.5-4.9.2-.2.8-1.2,1.6-1.9,17.6-15,28.7-34.3,35.5-55.8,14.9-47.8,26-96.4,31.6-146.2,2.9-25.9,8.8-51.5,12.9-77.3,7.7-48.5,15.1-97.1,22.7-145.6,2.1-13.2,4.5-26.3,6.9-39.4.4-2,1.6-4,3-5.5,2.7-2.7,5.8-5,9.4-8.1v66.7h.7l3-70.2c.7,0,1.4-.1,2-.1,1,6.1,2.1,12.2,2.8,18.3,4,32.9,3.2,66-.5,98.8-4.8,43-11.2,85.8-16.9,128.7-.2,1.5-.3,2.9-.4,4.4.4.1.8.1,1.2.2,2.4-13.9,5-27.8,7-41.7,2-14,3.6-28.1,5.2-42.2,1.7-14.2,3.6-28.4,4.9-42.7s2.3-28.6,2.8-42.9c.5-14.1.4-28.3,0-42.5s-1.4-28.5-2.1-43c4.6.1,5,2.8,5.1,5.5.8,18.5,1.6,36.9,2.2,55.4.2,5,0,10,.5,15v-80.6c.3,0,.5-.1.8-.1.7,4.5,1.6,8.9,2.1,13.4,2.9,28.2,2.2,56.6-.3,84.7h0ZM321.71,891.91c-1.9,2-3.1,4.2-4.1,4.1-8-.9-14.5,2.4-20.7,6.8,5.8-7.8,13-12.6,24.8-10.9h0ZM389.31,406.71c-33.7,35.3-71.5,64.8-119.5,78.6-10.3,3-20.8,4.1-31.6,2,57.7-16.9,105.2-50.1,148.8-90-.6,1.4-1.3,2.9-1.9,4.3-.6,1.3-1.2,2.6-1,4.7,3.5-3.9,7.1-7.8,10.6-11.6.4.2.7.4,1.1.5-2.2,3.8-3.5,8.4-6.5,11.5h0ZM393.71,373.41c-7.1,15.8-19.2,27.4-32.4,38.1-32.7,26.7-69.5,46.4-108.7,61.6-15.3,5.9-31.2,9.9-47.9,15.1.9-4.7,1.4-8.5,2.6-12,.3-1,2.8-1.8,4.3-1.8,5.5.1,11.1.5,16.6.8,0-.6.1-1.2.1-1.8-5.5-.4-11-1.2-16.5-1.2-7.6,0-7.6.3-8-7.1-.1-1.8,0-3.5,0-4.9,38.5,4.4,72.1-7.5,104.3-26.5,18.1-10.7,33.2-25,49.3-38.2,2-1.6,3.8-3.5,4.9-6-7.1,4.8-14.3,9.6-21.3,14.4-21.7,15-45.8,25.2-70.3,34.4-16.6,6.2-33.8,4.9-50.9,2.6-7.3-1-10.3-4.8-10.5-11.5,1.1.6,2.1,1,2.9,1.7,7.1,6.6,15.5,9,24.9,7,10.2-2.1,20.4-4.5,30.6-7,2.1-.5,4-2,5.7-3.8-5.9,1.5-11.8,3-17.8,4.3-5.7,1.2-11.4,2.4-17.2,3.2-12.6,1.9-27.4-6.5-32.6-18.3-2.6-6-1.9-9.5,3-13.5,5.1,14,15.9,21.3,28.6,20.2-5.5-2.6-12.2-5-18.2-8.7-6.5-4-9.9-10.1-7.6-19,.8,1.4,1.3,2.2,1.7,3,3.7,6.7,9.4,11,17.1,9.5,10.6-2,21.1-4.4,31.3-7.8,34.7-11.7,66.6-29.4,98.1-47.9,5.1-3,6.5-2.1,7,4.2-20,11-40,22.1-60.1,33.1.1.2.1.4.2.6,3-1.3,6.1-2.4,9-4,14.8-8,29.4-16.2,44.3-24,4.6-2.4,9.9-3.8,14.9-5.3,1.5-.5,3.4.1,6.4.2-1.7,2.7-2.7,4.5-4,6-8.7,10-19.9,16.6-31.5,22.4-28.8,14.3-59.7,21.7-91.2,26.6-.5.1-.9.2-2.1.5,13.8,1,26.4-.4,39.2-3.4,23.9-5.6,46.5-14.5,67.4-27,8.2-4.9,14.7-12.8,21.6-19.7,1.2-1.2,1.7-4.7.9-5.8-1.1-1.4-3.9-1.6-6-2.2-2-.6-5.4,2.8-6-2.2,3.1-.2,6.3-.9,9.3-.6,2.4.3,5.5,1.2,6.6,3,1.2,2,1.1,5.3.6,7.8-.4,2-2.2,3.7-3.5,5.4-10.6,14.3-21.3,28.6-32.2,43.3,16-13,27.3-29.6,40.1-45.9v4.5c.3.1.7.2,1,.4,1.3-3,2.6-6,3.9-8.9l1.3.3c-1.1,4.1-1.6,8.2-3.2,11.8h0ZM398.81,609.61c5-68.5,9.9-136.3,14.8-204.1h1.1c0,6.5.3,13.1,0,19.6-2.3,45.7-4.8,91.4-7.2,137.1-.1,2.3.2,4.7-.2,7-1.6,9,5,12.6,10.7,16.8.5.3,1.6-.2,2.4-.4.3.4.7.7,1,1.1-7.4,7.5-14.9,15.1-22.6,22.9h0ZM405.71,445.91c.8-15.1,1.5-30.1,2.3-45.2.3,0,.6.1.9.1-.7,15-1.5,30.1-2.2,45.1h-1ZM418.31,620.91c1.5-4.8,2.9-9.4,4.2-14,3.2,7.5,1.5,11.9-4.2,14ZM409.91,573.51c2.8-51.7,5.5-103.4,8.3-155.1.7-.1,1.4-.3,2-.4,1.3,2.9,3.1,5.7,3.9,8.7s.9,6.3.9,9.4c-.3,32.1-.4,64.3-1.1,96.4-.2,8.1,2.3,14.2,8.9,18.8,1.6,1.1,3.1,2.4,5.3,4.1-9.7,6.3-18.8,12.1-28.2,18.1h0ZM425.21,536.81c3.1.2,7.2-2.4,12.2-7.8v21c-6.3-1.5-11.9-7.4-12.2-13.2ZM436.71,516.71c-2.3,2.5-5.2,4.5-8.6,7.4.7-30.9-.7-60.9,3.5-90.7.6,0,1.1-.1,1.7-.1.6,2.3,1.5,4.6,1.6,7,1.5,23.6,2.9,47.2,4.1,70.8.1,1.8-1,4.2-2.3,5.6h0ZM464.91,500.31c.2,0,.4.1,0,0h0ZM453.85,433.4c.64-1.19,1.62-3.41,1.53-6.25-.03-1.05-.21-2.35-.94-4.31-1.52-4.09-3.86-6.87-5.21-8.45-4.08-4.78-6.13-7.17-8.06-9.24-2.2-2.36-9.19-11.48-23.07-29.63h0c-4.7-7.6-14.5-23.6-20.6-40.1-.2-.6-3.5-9.4-2.4-10,.5-.2,1.8,1.2,3.8,3.4,2.6,2.9,3.7,4.8,4.9,4.5.5-.1.8-.5.9-.9.8-2.2-4.1-6-5.3-7-8.4-6.9-11.8-24.9-15.4-43.2-2.2-11.1-2.4-16.7-2.6-23.3-.2-5.7.7-11.6,2-17.1.4-1.7,1.5-6,.3-11.1-.5-2.1-1.5-5-2.4-5-1.3.1-1.4,5.3-2.2,5.3-1.1,0-3.1-10.2-2.9-21.1.1-6.3.9-15.5,4.5-26.7,9.9-.9,19.2,4.4,23.7,13.8,6.1,12.8,8.7,26.4,7.2,40.3-1.1,10-.2,19.6,2.3,29.2,3.2,12.2,6.5,24.5,10.1,36.6,1,3.4,2.6,7,4.9,9.6,0,0,9.14,16.68,22.2,46.4,10.47,23.83,18.39,49.26,23.78,69-7.01,1.76-14.02,3.52-21.04,5.28Z"/>
  <path class="cls-1" d="M323.31,302.21c.4.1.8.1,1.2.2-.4-.1-.8-.2-1.1-.3l-.1.1h0Z"/>
  <path class="cls-1" d="M95.61,164.91h.1v-.1l-.1.1h0Z"/>
  <path class="cls-1" d="M416.51,333.11c.1,1.4.3,3.2.6,3.2.6,0-.3-6.3,2.7-13.3,1.4-3.3,3.6-6.5,2.6-7.6-.3-.3-.8-.3-.9-.3-2.8.1-4.7,9.4-5.1,13.3.1.6-.1,2.4.1,4.7h0Z"/>
  <path class="cls-1" d="M259.31,288.91c6.1,2.1,14.6-11.6,32.1-34,17.1-21.9,29.8-36.3,29.3-35.9-3.8,3.8-9.5,9.4-16.4,16.4-6,6-9,8.9-9.5,9.6-6.5,8.2-12.5,16.7-19,24.9-1.9,2.5-4.6,6.3-8.5,6.4-2.7.1-4.6-1.7-5.9-.6-1.6,1.3.5,5.1-1.2,6.5-1.6,1.3-4.8-1.1-5.6-.2-.6.9,1.7,5.8,4.7,6.9h0Z"/>
  <path class="cls-1" d="M313.81,183.81c-.3.4.2,1.2.5,1.6,2,2.4,8.6-1.7,21.3-4.8,5.5-1.3,11.6-2.3,11.9-4.5,0-.1.1-1-.4-1.3-.7-.4-2.2.8-2.6,1.2-4.9,3.9-15.7,4.2-23.3,7.1-.8.3-1.6.6-2.8.8-2.5.1-4.2-.7-4.6-.1h0Z"/>
  <path class="cls-1" d="M316.41,166.31c2.3-6.2,4.1-11.9,3.5-18.5,0-.6-.2-2.4-.5-2.4-.7,0-.3,7.2-3,16.2-1.2,4.2-2.8,7.8-5.4,16.9-.5,1.6-.7,2.6-.6,2.7.3,0,3.7-8.4,6-14.9h0Z"/>
  <path class="cls-1" d="M283.71,183.21c.3-.4,1-1.4.7-1.8-.4-.6-2.4.5-4.4,1-5.5,1.4-11.7-1.9-14.5-4.6-1.4-1.3-2.9-2.4-4.2-3.8-.7-.9-1.5-1.9-2.1-1.7-.5.2-.5,1.2-.5,1.3-.2,4.3,21.2,14,25,9.6h0Z"/>
  <path class="cls-2" d="M256.11,81.01c.1-.7.5-1.2,1.1-1.6,2.6-1.8,9.7-1.4,9.6-.7,0,.2-.9-.1-3.7.6-3.7.8-4.5,1.8-4.8,2.2-.8,1.1-1.1,2.2-1.6,2.1-.4-.2-.8-1.6-.6-2.6h0Z"/>
  <path class="cls-1" d="M287.21,122.71c.2-.6,2.3.2,5.3-.3,2.6-.4,3.8-1.4,4.2-1,.4.5-.5,2.3-1.9,3.2-2.5,1.6-5.8-.3-6.1-.5-.3-.1-1.7-1-1.5-1.4Z"/>
  <path class="cls-2" d="M128.11,180.81c-1.8,3.2-5.6,4.3-7.8,4.9-6.7,1.8-12.8-.1-15.6-1.2.3,1.2.7,2.4,1,3.6,1,.2,12.6,2.5,18.8-1.4,1-.6,2.8-1.8,4-4.1,1.2-2.5,1.1-5.1.9-5.1-.3-.1-.3,1.6-1.3,3.3h0Z"/>
  <path class="cls-2" d="M121.01,196.31c1.7,1.7,5,4.6,10,6.1,2,.6,11.2,3.5,18.4-2.1,4-3.1,5.5-7.5,6.1-9.7.1,1.5-.1,3.6-1,6-2.6,6.7-9.7,10.2-15.4,11-9,1.2-15.6-4.2-16.7-5.1-.4-2.1-.9-4.2-1.4-6.2h0Z"/>
  <path class="cls-2" d="M60.71,183.61c2.6,2.4,6.8,5.6,12.5,8.1s10.7,3.4,14.2,3.8c-4.8,4.6-11.9,5.8-17.9,3-5.6-2.8-9.1-8.6-8.8-14.9Z"/>
  <path class="cls-2" d="M13.21,177.91c-.9.5-4.6,2.6-6.1,7.3-.4,1.1-1.6,5.6.7,9.6,2.4,4.2,7.8,6.4,13.3,5.4-.6-1-1.5-3-1.7-5.7s.5-4.8,1-5.8c-1-.5-2.9-1.5-4.5-3.5-2.4-2.9-2.6-6.1-2.7-7.3Z"/>
  <path class="cls-2" d="M6.11,195.61c-.2.2,2.6,4.4,7.9,7.6,2.8,1.7,5.4,2.6,7.3,3.1-.3-1.3-.6-2.6-.9-3.9-1.1,0-2.6-.1-4.4-.6-6.3-1.7-9.7-6.4-9.9-6.2h0Z"/>
  <g>
    <path class="cls-2" d="M482.76,459.45c-.99,4.18-1.64,7.64-2.08,10.19-.44,2.78-.58,4.48.19,4.96.81.39,2.27-.36,3.1-1.4,1.05-1.27.4-2.24,1.1-5.79.44-2.56.93-2.88.73-4.08-.35-1.83-1.85-3.1-3.03-3.88Z"/>
    <path class="cls-2" d="M491.14,453.25c-.66-1.87-1.77-3.5-3.23-5.08-5.71-5.93-10.7-14.28-13.33-20.85l-18.18-7.88c-.24,3.76-1.01,7.71-1.01,7.71-.61,3.14-.98,4.63-1.53,6.25-1.18,3.65-2.01,4.69-1.95,8.04.25,6.21,2.65,12.12,6.97,17.94,1.15,1.54,1.81,3.41,2.78,5.09,2.22,3.71,3.13,4.59,3.54,4.9.32.26,4.05,3.37,6.04,2.21,1.99-1.16,1.23-5.62,1.08-6.46-.8-4.59-3.24-5.75-4.83-11.49-.54-2.36-1.02-3.92-.22-4.65,1.67-1.42,7.29,2.36,11.46,5.23,7.25,5,7.93,7.54,8.13,8.52.45,2.32.1,4.92.1,4.92-.24,1.66-.67,2.34-.85,4.58-.22,2.55.16,3.4.48,3.88.41.53,1.37,1.54,2.22,1.39,2.1-.22,2.6-6.85,3.01-15.4.33-3.94.33-6.27-.66-8.84Z"/>
  </g>
</svg>