<?xml version="1.0" encoding="utf-8"?>
<!-- Generator: Adobe Illustrator 28.3.0, SVG Export Plug-In . SVG Version: 6.00 Build 0)  -->
<svg version="1.1" id="Layer_1" xmlns="http://www.w3.org/2000/svg" xmlns:xlink="http://www.w3.org/1999/xlink" x="0px" y="0px"
	 viewBox="0 0 490.5 952.1" style="enable-background:new 0 0 490.5 952.1;" xml:space="preserve">
<style type="text/css">
	.st0{fill:#FFFFFF;}
</style>
<g>
	<path class="st0" d="M480.2,230.5c-3.8-1.2-7.8-2-11.7-3c16.1-7.2,22.4-20.1,22-36.5c-0.4-15.6-6.7-29.1-17.5-41.4
		c-0.5,1.5-1.2,3.8-1.1,6.7c0,1.6,0.3,2.9,0.6,4c-3-2.7-7.4-7.4-9.9-14.2c-1-2.8-11.2-16.6,2.4-32c24.2-27.4,19.5-57,3-83.9
		c-0.1-0.2-0.6-0.1-1.6-0.2c-0.4,3.1-0.8,6.1-1.1,9.2c-1,8.8-1.9,17.5-3.2,26.3c-2,14-9.3,24.4-21.4,31.4c-3.5,2-7,4-10.1,6.4
		c-12.9,9.9-20.8,22.6-17.2,39.3c2.1,9.7,0.8,17.6-4.2,26.1c-12.3,20.6-6.2,41.7,14.5,53.4c1.8,1,3.3,2.6,6.1,4.8
		c-5.9,1.4-10.1,2.5-14.3,3.4c-4,0.9-5.3,4.4-5.3,7.4c0,2,2.5,5,4.6,5.9c4.1,1.8,5.6,3.8,3.1,7.9c-2,3.3-0.9,5.5,2.5,7.1
		c1.6,0.8,3.6,2.5,4,4.1c2.1,8.9,4.2,17.8,5.3,26.8c0.6,5.4-0.6,11,2.6,15.9c0.4,0.6,0.2,1.6,0.3,2.4c0.4,2.9,0.6,5.9,1.2,8.8
		c0.4,2.2,1.9,4.4,1.8,6.6c-0.2,14-0.7,28-1.2,42c-0.2,4.4-1.5,7.6-7,8.6c-3,0.6-5.6,4.3-8.1,6.8c-1.1,1.1-1.6,2.8-2.8,4.9
		c-1.4-2.4-2.7-4.2-3.5-6c-2.6-5.8-5.3-11.5-7.6-17.4c-5.6-14.7-13.4-27.8-25.4-38.4c-3.2-2.8-5.6-7.1-7.1-11.2
		c-3.5-9.4-6-19.1-9.3-28.5c-4.8-13.6-8.7-27.3-7.5-42c0.2-2.3-0.1-4.7-0.4-7c-2.7-19.7-10-36.2-29.6-44.8c-1.5-0.6-2.2-2.9-3.4-4.3
		c-1.8-2-3.6-5.1-5.7-5.4c-6.1-1.1-12.5-1.7-18.7-1.2c-7.5,0.6-18.2-2.9-21.3-9.8c-2.2-4.8-2.4-10.6-2.5-16c0-1.9,3.1-3.8,4.7-5.7
		c1.3-1.7,2.9-3.4,3.7-5.3c4.9-11.1,9.5-22.3,14.3-33.4c1-2.3,2.1-5.2,4-6.4c5.5-3.6,7.2-7.2,4.6-13.4c-2-4.6-1.6-7.9,2.6-11.3
		c5-4,6.2-10.4,3.5-14.7c-5-8.1-10.1-16.1-14.4-23c3-3.8,6.2-6.6,7.7-10.2c2.1-5.1-0.1-7.8-5.7-7.1c-4.6,0.6-6.4-1.5-7.7-5.1
		c-0.6-1.6-1.1-3.2-1.8-4.7c-2.9-6.6-5.2-7.2-9.2-1.6c-5.6,7.9-12.2,9.9-20.8,5.6c-1.5-0.7-3.1-1.2-4.7-1.6
		c-14.5-3.8-27.7-1.1-39.8,7.7c-6.5,4.7-12.6,10.8-21.7,5.6c-0.9-0.5-2.3-0.3-3.4-0.4c-13-0.8-25.5,13.8-22,26.4
		c1.1,3.9,0.4,5.8-2.8,7.6c-1.6,0.9-2.9,2.2-4.3,3.5c-8.8,8.3-9.4,18-1.1,26.8c3.2,3.4,7.6,5.6,10.6,7.6c0.6,4.5,0.3,8.8,1.7,12.3
		c1.5,3.7,1.3,6.2-1.2,9c-1.9,2.1-3.8,4.3-5,6.8c-2.8,6-4.2,12.4,0.4,17.9c2.9,3.4,2.8,5.9,1.1,9.7c-5.2,11.6-1.6,21.8,9.4,27.8
		c0.8,0.4,1.6,1.1,3.7,2.6c-4.1,2.3-7.3,4.6-10.8,6c-21.1,8-30.7,24.8-35.2,45.5c-1.5,6.8-2,14.1-4.9,20.2
		c-5.9,12.6-13,24.7-19.8,36.9c-3.9,7-8.3,7.7-13,1.1c-5.8-8.1-10.4-17-15.2-25.7c-3.4-6.2-3.4-12.8-1.6-19.8
		c1.4-5.5,1.7-11.5,1.2-17.2c-0.5-5.7-2.5-11.3-3.9-17c-1.4-5.4-4.6-7.6-10.3-7.2c-1.3,0.1-2.6,0.3-5.2,0.6
		c-1.1-10.7-2.1-21.3-3.2-31.8c0-0.5,0.1-1,0.3-1.5c2-6.1,4.2-12.2,6.1-18.3c0.5-1.6-0.2-3.5,0-5.3c0.5-4.3-1.2-8.9,2.6-12.8
		c10.2-10.4,12.3-22.3,6.8-35.9c-0.9-2.1-0.9-5.7,0.3-7.4c10.7-15.4,5.6-37-3.7-48.7c-1.4-1.8-3.4-3.2-6.2-5.8
		c3.3,14.7,4.7,27.5-5.7,38.5c-0.6-0.7-1-0.9-1-1.1c-0.1-0.8-0.2-1.7-0.1-2.5c2.1-14-2.8-25.4-12.7-35.2c-4-4-7.3-8.7-10.4-13.4
		c-3.2-4.8-2.6-10.8,0.5-14.6c6.9,11.7,12.2,18,15.9,18.7C43.5,23.3,39.7,12.6,40.7,0c-6.3,3.1-8.9,7.7-10.6,12.8
		c-2.7,7.9-2.2,15.8,0.7,23.5c5.4,14.2,3.5,27.6-3.5,40.9c-3.8,7.2-6.9,14.8-9.6,22.5c-0.2,0.6-0.4,1.1-0.5,1.7
		c-0.5-3.8-1.9-9-6.1-12.7c-2.4-2.1-3.1-1.5-4.5-3.3C4,81.8,3.5,77.9,5.1,66.8C5.2,66,5,65.1,4.9,63.6c-2.6,7.3-5.8,18.9-4.6,31.7
		c0.9,9.2,3.4,12.9,4.3,14.1c4.6,6.1,9.1,8.4,9.1,8.4c2.2,1.2,5.9,2.5,6.7,5.7c0.1,0.5,0.1,0.8,0.1,1.1c-1.1,0.2-2.2,0.5-4.4,0.9
		c3,3.6,5.5,6.4,7.9,9.3c4.1,5.1,9,10,6.2,17.7c-0.3,0.8,0,2,0.4,2.9c2.3,5.3,4.3,10.8,7.2,15.8c5.9,10.2,5.8,21.4,6.4,32.5
		c0.1,1.1-1.6,2.7-2.9,3.5c-4.4,3-10.3,4.8-11.4,10.6c-1,4.8-0.4,9.8-0.4,14.7c-0.1,5.7,0.3,11.4-0.2,17c-0.5,6.4,3.7,13.4,10,14.8
		c3,0.6,3.7,2.1,3.9,4.7c1,11.1,2.1,22.2,3,33.4c1.5,18.1,2.8,36.2,4.4,54.3c0.5,5.9,2.6,6.9,7.9,4.3c0.7-0.3,1.4-0.6,2.6-1.1
		c0.4,2.6,0.9,4.9,1.1,7.1c2.7,23.3,5.3,46.7,7.9,70c2.7,23.3,6.5,46.6,4,70.2c-1.1,10.9,3.2,19.4,12.4,24.9
		c5.5,3.4,7.1,7.5,6.7,13.6c-0.8,12.4-3.5,24.9,1.4,37.1c0.2,0.4,0.2,1,0.1,1.5c-0.8,14.3-1.8,28.6-2.4,42.8
		c-0.1,2.9,0.2,6.2,1.6,8.6c3,5.2,6.3,10.3,10.4,14.6c2.7,2.8,3.4,5.5,3.2,8.9c-1.1,20.6-2.1,41.3-3.2,61.9
		c-0.5,9.3,1.3,17.5,9.3,23.5c1.2,0.9,2.4,2.8,2.3,4.1c-1,11.5,5.4,18.3,14.3,23.8c1,0.6,2.1,2.3,2.1,3.5c-0.2,13.5-0.1,27-1,40.4
		c-0.5,7.5,1.8,13.1,7.2,17.6c2.4,2,5.2,3.8,8.1,4.8c5.6,1.9,7.8,5.1,7.1,11.2c-0.7,6.1,0.1,12,5.5,16.3c0.9,0.7,1.6,2.6,1.3,3.4
		c-2.9,6.9-4,14.8-11.5,19.2c-8.7,5.1-18.1,7.4-28,8.3c-5.1,0.5-10.3,1.1-15.3,2.2c-6.5,1.5-11.9,4.7-13.2,12
		c-1.3,7.4,2.3,13,8.4,16.2c5.5,2.9,11.6,5.5,17.7,6.2c15.2,1.6,30.6,2,45.8,2.8c2.4,0.1,4.8,0.3,7.1,0.5c1.5,8.4,4.5,11.8,13.9,13
		c9.7,1.3,19.6,1.5,29.4,1.7c4.8,0.1,9.9-1.3,12.5-6c2.1-3.6,4.9-4.2,8.6-4.3c26.3-0.3,52.6-0.9,79-1.2c1.6,0,3.9,1.6,4.9,3.1
		c4,6,9.3,9.1,16.5,8.3c9.9-1.1,19.3-3.6,26.9-10.7c1.9-1.7,4.9-2.7,7.5-3c14.1-1.5,28.2-2.3,42.3-4.1c4.1-0.5,8.7-2.8,11.7-5.7
		c5.8-5.5,3.9-13.1-3.5-16.1c-3.2-1.3-6.9-1.1-10.2-2.2c-6.1-2-12.1-4.5-18.1-6.8c-0.1,0-0.3-0.2-0.3-0.4c-0.8-5.2-4.9-4.4-8.4-4.8
		c-7.4-0.9-12.6-6.7-13.8-14c-0.4-2.2-2.4-4.7-4.4-5.9c-5.7-3.5-7.6-6.4-6.8-13c0.4-3,1.6-5.8,1.8-8.8c0.2-2.7,0.2-5.8-0.9-8.2
		c-3.1-6.3-6.6-17.2-7-24.2c-0.1-1.2-0.4-2.3-0.4-3.5c0.1-1.8-0.1-3.9,0.7-5.3c6-10.7,4.1-21.3-0.2-31.8c-2.4-5.9-3.4-11.6-2.4-18
		c0.6-3.8,0.2-8-0.4-11.9c-2.5-17.1-9.8-32.2-20.2-45.7c-8.5-11-9.5-21.6-1.4-33c7.2-10,8-20.8,4.3-32.4c-0.7-2.1,0.1-5.1,1.1-7.3
		c5-11.4,10-21.9,4.6-35.6c-5.1-12.9-7.6-27.4,5.2-39.3c5-4.7,8-12.9,2.6-18.1c-8.3-8-5.9-15.9-3.3-24.5c0.3-1,0.7-2.2,1.5-2.9
		c7.6-7.1,9.6-12.8,5-22.2c-3.7-7.5-2.2-12.4,3.6-17.2c1.4-1.2,2.4-2.7,3.6-4.1c4.6-5.1,6.3-10.9,6.2-17.9
		c-0.4-18.1-0.1-36.3-0.1-54.5c0-2.5,0.5-4.9,0.8-7.7c1.2,0.4,1.6,0.4,1.8,0.6c1.1,1,2.2,2,3.4,3c17.5,14.2,33.4,30.6,53.9,41
		c4.1,2.1,4.1,5.5,4,9.4c-1.2,53.8-2.4,107.6-3.6,161.5c-0.1,6.1,1.6,11.3,5.2,16.3c1.8,2.5,2.9,6,2.9,9c0.1,17-0.1,34-0.3,51
		c-0.5,35-1.2,70-1.8,105c-0.1,5.6-1.1,10.8-5.2,15.2c-2.9,3.1-2.7,10.2,0.5,13.3c5.7,5.4,7.3,12,6.9,19.5c-0.3,5,0.2,10-0.2,15
		c-0.2,2.2-1.4,4.6-2.8,6.3c-3.2,3.8-5.8,7.7-5.4,13c0.3,3.7,0.2,7.3,0.3,11c0.3,10.6,1.4,11.5,12,10.2c2-0.3,4.1-0.5,5.8-1.4
		c1.7-0.8,4.1-2.4,4.2-3.8c0.5-7,2.2-14.8-0.1-20.9c-4.6-11.7-5.1-23.2-3.5-35.2c0.5-3.5,1.9-7.4,4.2-9.9c5.8-6.3,3.7-12.9,1.9-19.7
		c-0.9-3.6-2.5-7.3-2.5-11c0.7-83.7,1.4-167.3,2.6-251c0.5-33.8,2.1-67.6,3.3-101.4c0.1-3.1,0.7-6.1,1-9.1c9.7,0.8,13.6-1.4,15.5-8
		c0.9-3,2.4-5.8,3.1-8.8c1.7-6.4,3.1-12.9,4.5-19.4c0.2-0.8-0.3-1.6-0.4-2.5c-0.3-2.6-1.3-5.4-0.7-7.8c1.8-7.7-6.3-13.4-13.4-12.9
		c-1.4,0.1-2.9,0.4-4.4,0.6c-0.2-1-0.5-1.7-0.5-2.3c0.4-15.2,0.7-30.3,1.2-45.5c0-1.2,0.7-2.6,1.4-3.6c2.8-3.8,5.7-7.4,4.1-12.7
		c-0.2-0.8,0.6-2.3,1.4-3c3.3-3.5,3.5-7.6,3.2-12.1c-0.6-11.4,1.8-21.9,10.4-30c2.3-2.2,2.1-4.3,0.9-6.7c-2.1-4.3-0.8-7,3.7-8.2
		c3.7-1,4.9-3.5,4.8-7.1C487,233.4,483.8,231.6,480.2,230.5L480.2,230.5z"/>
	<g>
		<g>
			<path d="M480.2,230.5c-3.8-1.2-7.8-2-11.7-3c16.1-7.2,22.4-20.1,22-36.5c-0.4-15.6-6.7-29.1-17.5-41.4c-0.5,1.5-1.2,3.8-1.1,6.7
				c0,1.6,0.3,2.9,0.6,4c-3-2.7-7.4-7.4-9.9-14.2c-1-2.8-11.2-16.6,2.4-32c24.2-27.4,19.5-57,3-83.9c-0.1-0.2-0.6-0.1-1.6-0.2
				c-0.4,3.1-0.8,6.1-1.1,9.2c-1,8.8-1.9,17.5-3.2,26.3c-2,14-9.3,24.4-21.4,31.4c-3.5,2-7,4-10.1,6.4
				c-12.9,9.9-20.8,22.6-17.2,39.3c2.1,9.7,0.8,17.6-4.2,26.1c-12.3,20.6-6.2,41.7,14.5,53.4c1.8,1,3.3,2.6,6.1,4.8
				c-5.9,1.4-10.1,2.5-14.3,3.4c-4,0.9-5.3,4.4-5.3,7.4c0,2,2.5,5,4.6,5.9c4.1,1.8,5.6,3.8,3.1,7.9c-2,3.3-0.9,5.5,2.5,7.1
				c1.6,0.8,3.6,2.5,4,4.1c2.1,8.9,4.2,17.8,5.3,26.8c0.6,5.4-0.6,11,2.6,15.9c0.4,0.6,0.2,1.6,0.3,2.4c0.4,2.9,0.6,5.9,1.2,8.8
				c0.4,2.2,1.9,4.4,1.8,6.6c-0.2,14-0.7,28-1.2,42c-0.2,4.4-1.5,7.6-7,8.6c-3,0.6-5.6,4.3-8.1,6.8c-1.1,1.1-1.6,2.8-2.8,4.9
				c-1.4-2.4-2.7-4.2-3.5-6c-2.6-5.8-5.3-11.5-7.6-17.4c-5.6-14.7-13.4-27.8-25.4-38.4c-3.2-2.8-5.6-7.1-7.1-11.2
				c-3.5-9.4-6-19.1-9.3-28.5c-4.8-13.6-8.7-27.3-7.5-42c0.2-2.3-0.1-4.7-0.4-7c-2.7-19.7-10-36.2-29.6-44.8
				c-1.5-0.6-2.2-2.9-3.4-4.3c-1.8-2-3.6-5.1-5.7-5.4c-6.1-1.1-12.5-1.7-18.7-1.2c-7.5,0.6-18.2-2.9-21.3-9.8
				c-2.2-4.8-2.4-10.6-2.5-16c0-1.9,3.1-3.8,4.7-5.7c1.3-1.7,2.9-3.4,3.7-5.3c4.9-11.1,9.5-22.3,14.3-33.4c1-2.3,2.1-5.2,4-6.4
				c5.5-3.6,7.2-7.2,4.6-13.4c-2-4.6-1.6-7.9,2.6-11.3c5-4,6.2-10.4,3.5-14.7c-5-8.1-10.1-16.1-14.4-23c3-3.8,6.2-6.6,7.7-10.2
				c2.1-5.1-0.1-7.8-5.7-7.1c-4.6,0.6-6.4-1.5-7.7-5.1c-0.6-1.6-1.1-3.2-1.8-4.7c-2.9-6.6-5.2-7.2-9.2-1.6
				c-5.6,7.9-12.2,9.9-20.8,5.6c-1.5-0.7-3.1-1.2-4.7-1.6c-14.5-3.8-27.7-1.1-39.8,7.7c-6.5,4.7-12.6,10.8-21.7,5.6
				c-0.9-0.5-2.3-0.3-3.4-0.4c-13-0.8-25.5,13.8-22,26.4c1.1,3.9,0.4,5.8-2.8,7.6c-1.6,0.9-2.9,2.2-4.3,3.5
				c-8.8,8.3-9.4,18-1.1,26.8c3.2,3.4,7.6,5.6,10.6,7.6c0.6,4.5,0.3,8.8,1.7,12.3c1.5,3.7,1.3,6.2-1.2,9c-1.9,2.1-3.8,4.3-5,6.8
				c-2.8,6-4.2,12.4,0.4,17.9c2.9,3.4,2.8,5.9,1.1,9.7c-5.2,11.6-1.6,21.8,9.4,27.8c0.8,0.4,1.6,1.1,3.7,2.6
				c-4.1,2.3-7.3,4.6-10.8,6c-21.1,8-30.7,24.8-35.2,45.5c-1.5,6.8-2,14.1-4.9,20.2c-5.9,12.6-13,24.7-19.8,36.9
				c-3.9,7-8.3,7.7-13,1.1c-5.8-8.1-10.4-17-15.2-25.7c-3.4-6.2-3.4-12.8-1.6-19.8c1.4-5.5,1.7-11.5,1.2-17.2
				c-0.5-5.7-2.5-11.3-3.9-17c-1.4-5.4-4.6-7.6-10.3-7.2c-1.3,0.1-2.6,0.3-5.2,0.6c-1.1-10.7-2.1-21.3-3.2-31.8c0-0.5,0.1-1,0.3-1.5
				c2-6.1,4.2-12.2,6.1-18.3c0.5-1.6-0.2-3.5,0-5.3c0.5-4.3-1.2-8.9,2.6-12.8c10.2-10.4,12.3-22.3,6.8-35.9
				c-0.9-2.1-0.9-5.7,0.3-7.4c10.7-15.4,5.6-37-3.7-48.7c-1.4-1.8-3.4-3.2-6.2-5.8c3.3,14.7,4.7,27.5-5.7,38.5c-0.6-0.7-1-0.9-1-1.1
				c-0.1-0.8-0.2-1.7-0.1-2.5c2.1-14-2.8-25.4-12.7-35.2c-4-4-7.3-8.7-10.4-13.4c-3.2-4.8-2.6-10.8,0.5-14.6
				c6.9,11.7,12.2,18,15.9,18.7C43.5,23.3,39.7,12.6,40.7,0c-6.3,3.1-8.9,7.7-10.6,12.8c-2.7,7.9-2.2,15.8,0.7,23.5
				c5.4,14.2,3.5,27.6-3.5,40.9c-3.8,7.2-6.9,14.8-9.6,22.5c-0.2,0.6-0.4,1.1-0.5,1.7c-0.5-3.8-1.9-9-6.1-12.7
				c-2.4-2.1-3.1-1.5-4.5-3.3C4,81.8,3.5,77.9,5.1,66.8C5.2,66,5,65.1,4.9,63.6c-2.6,7.3-5.8,18.9-4.6,31.7
				c0.9,9.2,3.4,12.9,4.3,14.1c4.6,6.1,9.1,8.4,9.1,8.4c2.2,1.2,5.9,2.5,6.7,5.7c0.1,0.5,0.1,0.8,0.1,1.1c-1.1,0.2-2.2,0.5-4.4,0.9
				c3,3.6,5.5,6.4,7.9,9.3c4.1,5.1,9,10,6.2,17.7c-0.3,0.8,0,2,0.4,2.9c2.3,5.3,4.3,10.8,7.2,15.8c5.9,10.2,5.8,21.4,6.4,32.5
				c0.1,1.1-1.6,2.7-2.9,3.5c-4.4,3-10.3,4.8-11.4,10.6c-1,4.8-0.4,9.8-0.4,14.7c-0.1,5.7,0.3,11.4-0.2,17
				c-0.5,6.4,3.7,13.4,10,14.8c3,0.6,3.7,2.1,3.9,4.7c1,11.1,2.1,22.2,3,33.4c1.5,18.1,2.8,36.2,4.4,54.3c0.5,5.9,2.6,6.9,7.9,4.3
				c0.7-0.3,1.4-0.6,2.6-1.1c0.4,2.6,0.9,4.9,1.1,7.1c2.7,23.3,5.3,46.7,7.9,70c2.7,23.3,6.5,46.6,4,70.2
				c-1.1,10.9,3.2,19.4,12.4,24.9c5.5,3.4,7.1,7.5,6.7,13.6c-0.8,12.4-3.5,24.9,1.4,37.1c0.2,0.4,0.2,1,0.1,1.5
				c-0.8,14.3-1.8,28.6-2.4,42.8c-0.1,2.9,0.2,6.2,1.6,8.6c3,5.2,6.3,10.3,10.4,14.6c2.7,2.8,3.4,5.5,3.2,8.9
				c-1.1,20.6-2.1,41.3-3.2,61.9c-0.5,9.3,1.3,17.5,9.3,23.5c1.2,0.9,2.4,2.8,2.3,4.1c-1,11.5,5.4,18.3,14.3,23.8
				c1,0.6,2.1,2.3,2.1,3.5c-0.2,13.5-0.1,27-1,40.4c-0.5,7.5,1.8,13.1,7.2,17.6c2.4,2,5.2,3.8,8.1,4.8c5.6,1.9,7.8,5.1,7.1,11.2
				c-0.7,6.1,0.1,12,5.5,16.3c0.9,0.7,1.6,2.6,1.3,3.4c-2.9,6.9-4,14.8-11.5,19.2c-8.7,5.1-18.1,7.4-28,8.3
				c-5.1,0.5-10.3,1.1-15.3,2.2c-6.5,1.5-11.9,4.7-13.2,12c-1.3,7.4,2.3,13,8.4,16.2c5.5,2.9,11.6,5.5,17.7,6.2
				c15.2,1.6,30.6,2,45.8,2.8c2.4,0.1,4.8,0.3,7.1,0.5c1.5,8.4,4.5,11.8,13.9,13c9.7,1.3,19.6,1.5,29.4,1.7c4.8,0.1,9.9-1.3,12.5-6
				c2.1-3.6,4.9-4.2,8.6-4.3c26.3-0.3,52.6-0.9,79-1.2c1.6,0,3.9,1.6,4.9,3.1c4,6,9.3,9.1,16.5,8.3c9.9-1.1,19.3-3.6,26.9-10.7
				c1.9-1.7,4.9-2.7,7.5-3c14.1-1.5,28.2-2.3,42.3-4.1c4.1-0.5,8.7-2.8,11.7-5.7c5.8-5.5,3.9-13.1-3.5-16.1
				c-3.2-1.3-6.9-1.1-10.2-2.2c-6.1-2-12.1-4.5-18.1-6.8c-0.1,0-0.3-0.2-0.3-0.4c-0.8-5.2-4.9-4.4-8.4-4.8
				c-7.4-0.9-12.6-6.7-13.8-14c-0.4-2.2-2.4-4.7-4.4-5.9c-5.7-3.5-7.6-6.4-6.8-13c0.4-3,1.6-5.8,1.8-8.8c0.2-2.7,0.2-5.8-0.9-8.2
				c-3.1-6.3-6.6-17.2-7-24.2c-0.1-1.2-0.4-2.3-0.4-3.5c0.1-1.8-0.1-3.9,0.7-5.3c6-10.7,4.1-21.3-0.2-31.8c-2.4-5.9-3.4-11.6-2.4-18
				c0.6-3.8,0.2-8-0.4-11.9c-2.5-17.1-9.8-32.2-20.2-45.7c-8.5-11-9.5-21.6-1.4-33c7.2-10,8-20.8,4.3-32.4c-0.7-2.1,0.1-5.1,1.1-7.3
				c5-11.4,10-21.9,4.6-35.6c-5.1-12.9-7.6-27.4,5.2-39.3c5-4.7,8-12.9,2.6-18.1c-8.3-8-5.9-15.9-3.3-24.5c0.3-1,0.7-2.2,1.5-2.9
				c7.6-7.1,9.6-12.8,5-22.2c-3.7-7.5-2.2-12.4,3.6-17.2c1.4-1.2,2.4-2.7,3.6-4.1c4.6-5.1,6.3-10.9,6.2-17.9
				c-0.4-18.1-0.1-36.3-0.1-54.5c0-2.5,0.5-4.9,0.8-7.7c1.2,0.4,1.6,0.4,1.8,0.6c1.1,1,2.2,2,3.4,3c17.5,14.2,33.4,30.6,53.9,41
				c4.1,2.1,4.1,5.5,4,9.4c-1.2,53.8-2.4,107.6-3.6,161.5c-0.1,6.1,1.6,11.3,5.2,16.3c1.8,2.5,2.9,6,2.9,9c0.1,17-0.1,34-0.3,51
				c-0.5,35-1.2,70-1.8,105c-0.1,5.6-1.1,10.8-5.2,15.2c-2.9,3.1-2.7,10.2,0.5,13.3c5.7,5.4,7.3,12,6.9,19.5c-0.3,5,0.2,10-0.2,15
				c-0.2,2.2-1.4,4.6-2.8,6.3c-3.2,3.8-5.8,7.7-5.4,13c0.3,3.7,0.2,7.3,0.3,11c0.3,10.6,1.4,11.5,12,10.2c2-0.3,4.1-0.5,5.8-1.4
				c1.7-0.8,4.1-2.4,4.2-3.8c0.5-7,2.2-14.8-0.1-20.9c-4.6-11.7-5.1-23.2-3.5-35.2c0.5-3.5,1.9-7.4,4.2-9.9
				c5.8-6.3,3.7-12.9,1.9-19.7c-0.9-3.6-2.5-7.3-2.5-11c0.7-83.7,1.4-167.3,2.6-251c0.5-33.8,2.1-67.6,3.3-101.4
				c0.1-3.1,0.7-6.1,1-9.1c9.7,0.8,13.6-1.4,15.5-8c0.9-3,2.4-5.8,3.1-8.8c1.7-6.4,3.1-12.9,4.5-19.4c0.2-0.8-0.3-1.6-0.4-2.5
				c-0.3-2.6-1.3-5.4-0.7-7.8c1.8-7.7-6.3-13.4-13.4-12.9c-1.4,0.1-2.9,0.4-4.4,0.6c-0.2-1-0.5-1.7-0.5-2.3
				c0.4-15.2,0.7-30.3,1.2-45.5c0-1.2,0.7-2.6,1.4-3.6c2.8-3.8,5.7-7.4,4.1-12.7c-0.2-0.8,0.6-2.3,1.4-3c3.3-3.5,3.5-7.6,3.2-12.1
				c-0.6-11.4,1.8-21.9,10.4-30c2.3-2.2,2.1-4.3,0.9-6.7c-2.1-4.3-0.8-7,3.7-8.2c3.7-1,4.9-3.5,4.8-7.1
				C487,233.4,483.8,231.6,480.2,230.5L480.2,230.5z M76.3,66.5c4.2,6.8,2.2,14.2-5.6,20.4C72.7,79.9,74.4,73.5,76.3,66.5z M9,108.2
				c-0.1-0.6,0-1.3,0-1.3l0,0c0-0.5,0.3-4.9,1.7-5.5c1.2-0.5,3.5,1.5,5.5,4.8c-0.1,0.8-0.2,1.7-0.3,2.7c-0.1,2.2,0.1,4.2,0.4,5.8
				C11.9,112.6,9.2,110.2,9,108.2L9,108.2z M301.1,184.6c0.9-1.4,3-1.6,4.4-0.8c1.7,0.9,2.4,3.1,1.8,3.7c-0.5,0.5-1.6-0.7-3.2-0.3
				c-1.5,0.4-1.8,1.6-2.5,1.4C300.9,188.4,300.1,186.1,301.1,184.6L301.1,184.6z M296,183.4c1.5-0.6,3.2-0.8,3.3-0.5
				c0.1,0.2-0.9,0.5-2.1,1.5c-0.1,0.1-2.8,2.4-2.2,3.9c0.3,0.8,1.5,1,4,1.4c2.2,0.3,4.6,0.4,7.2,0.1c3.2-0.4,4.2-1,4.9-1.5
				c0.4-0.3,1.5-1.2,1.5-2.3c0-1.1-0.9-1.8-0.8-2c0.2-0.2,1.5,0.6,2.2,1.9c0.2,0.3,1,1.7,0.6,3c-0.3,1.1-1.5,2-4.3,2.7
				c-3.4,0.8-7.8,2.4-13.2,0.6c-2.1-0.7-5.8-1.8-6-4C291,186.2,294,184.2,296,183.4L296,183.4z M311.6,343.3
				c0.4,7.4,0.6,14.8,1.1,22.2c0.2,2.6,0.2,5.8,3.9,6.6c-1.8,2.7-3.6,5.4-6.1,9C306.2,367.8,307.8,355.6,311.6,343.3z M309.9,300.9
				c0.3-4.5,0.6-8.9,1-13.4c0.5,0,1.1,0,1.6,0.1c-0.3,4.5-0.5,8.9-0.8,13.4C311.1,301,310.5,301,309.9,300.9z M323.8,381.1
				c2.9-9.7,4.7-19.7,7.1-29.5c-0.8,18.7,2.5,38.2-10.1,55.7c-2-3.8-3.8-6.6-4.9-9.7c-0.4-1.1,0.2-3,0.9-4.2
				C319,389.3,322.5,385.5,323.8,381.1L323.8,381.1z M316.8,371.7c0.4-8.3,0.8-16.6,1.2-24.9C320.8,355.4,318.5,363.5,316.8,371.7
				L316.8,371.7z M319.4,476.5c0.4,0.3,0.8,0.6,1.2,0.9c-3,5.2-6,10.4-9,15.6c0.3,0.3,0.7,0.6,1,0.9c1.7-2.1,3.5-4.1,5-6.3
				c1.5-2.3,2.7-4.8,4.1-7.6c3.6,6.8-1.3,20.4-7.7,22.5c-0.7,0.2-1.7,0.2-2.4,0c-9.7-2.5-18.9-6.1-27.9-12.2
				C295.7,484.8,311.4,490.7,319.4,476.5L319.4,476.5z M278.9,484.4c-0.2-0.6-0.4-1.2-0.6-1.7l23.3-7.8l0.6,1.5
				C296.1,484,287.3,483.4,278.9,484.4L278.9,484.4z M322.1,463.5c-19,6.5-37.8,13.7-56.8,20.2c-9.2,3.2-18.7,5.5-28.1,8.2
				c-0.1-0.4-0.2-0.7-0.2-1.1c26.1-13.5,52.3-26.9,78.4-40.3c2.4-1.2,4.9-2.5,7.4-2.7c2.1-0.2,5.5,0.3,6.4,1.7
				c1.3,1.9,1.4,5.1,0.8,7.5C329.1,460.8,325.9,462.2,322.1,463.5L322.1,463.5z M240.4,541.9c-5.1,22.8-10.2,45.5-9.6,69.1
				c-3.9-16.7-4.7-33.5-3.3-50.5c0.7-8.8,1.9-17.5,3.3-26.3c0.3-2,2.3-3.8,3.5-5.7c2.3,2.1,5.2,3.9,6.7,6.5
				C241.8,536.8,240.9,539.7,240.4,541.9L240.4,541.9z M243.1,540.4c0.7-4.5,2.8-5.6,7.2-4.3c4.4,1.3,4.4,3.9,2.9,7.3
				c-9.3,22-13.6,45.2-16.7,68.7c-0.7,5.1-0.7,10.2-1.1,15.3c-0.5,0-0.9,0-1.4,0c0-10.2-1-20.6,0.2-30.7
				C236.5,577.8,240.1,559.2,243.1,540.4L243.1,540.4z M231.1,658.7c2.4,14.5,7.6,28.6,11.4,42.8C225,670.1,201.8,539.2,210.4,516
				c0.9,3.2,2.1,6.3,2.5,9.5c1.5,12.2,2.4,24.5,4.1,36.7C221.5,594.4,225.7,626.6,231.1,658.7L231.1,658.7z M160.4,593
				c6.4,42.9,15.9,85.2,28.7,126.6c12.1,39.2,26,77.7,46,113.8c12.3,22.1,28.1,41.2,47.2,57.7c1.6,1.4,3.3,2.8,4.9,4.2
				c0.2,0.2,0.4,0.5,1,1.4c-9.9-4-17.9-9.5-25.3-16.2c-14.5-13.2-25.1-29.3-35.2-45.8c-19-31-33.1-64.3-43.6-99
				c-13.4-44.3-26.6-88.8-31.8-135.1c-1.9-17.4-2.2-34.9-3.4-52.3c-0.5-7.8-1.3-15.6-1.8-23.4c-0.2-3.3,0-6.5,0-9.8
				c0.4-0.1,0.9-0.2,1.3-0.3c0.6,1.2,1.1,2.5,1.7,3.6v-49.5c0.4,0,0.9-0.1,1.3-0.1c1.1,10,2.1,20,3.3,31.1
				c0.4-8.7,0.9-16.3,1.2-23.9c0.6-0.2,1.1-0.4,1.7-0.6c1.1,1.7,2.8,3.2,3.1,5c1.6,9.4,2.6,18.8,4.1,28.1c2.8,16.7,6,33.4,9.4,50
				l-6.2-65.8l2.4-0.7c1.1,2.1,2.4,4.2,3.3,6.5c7.1,18.3,10.3,37.5,13.2,56.8c6.7,45.8,13,91.7,20.1,137.5
				c2.7,17.6,6.3,35.1,10.4,52.4c8.7,36.4,26.2,68.7,48.4,98.4c10.2,13.7,21.9,26.2,32.3,38.5c-0.8-0.4-3.1-1.3-5.1-2.7
				c-19.6-13.2-34.4-30.9-46.9-50.6c-17.9-28.2-31.9-58.4-44.2-89.5c-23.1-58.5-37.6-119-44.1-181.5c-0.4-3.8-1-7.6-2.5-11.2
				C157,562.1,158.2,577.7,160.4,593L160.4,593z M185.6,502.7c6.1,1.7,7.6,5,8.3,9.5c9.3,60.4,18.2,120.9,28.2,181.2
				c5.5,33.2,14.9,65.5,25.8,97.4c5.1,14.9,10.9,29.1,18.8,42.6c2.7,4.6,5.8,8.9,7.8,14c-4.2-5.6-8.7-10.9-12.6-16.7
				c-16.7-24.5-27-51.9-35.8-80c-12.8-40.5-19.3-82.3-25.1-124.2c-3.9-28-8.6-56-12.4-84C186.9,529.6,186.6,516.4,185.6,502.7z
				 M227.7,693.7c7.3,18.7,14,37.7,22.1,56c8,18.2,17.5,35.8,25.8,52.4C252.4,770.1,237.8,732.9,227.7,693.7L227.7,693.7z
				 M170.1,462.5c-5-10.3-11.2-20-16.7-30.1c-2.5-4.5-3.5-9.3-0.7-15.3c3.8,8.1,7.1,15.5,10.6,22.8c4.6,9.6,9.4,19.1,18.8,25.3
				c12.2,8.1,25.4,6.9,38.6,4.2c24.7-5.1,47.5-14.8,68.9-28.2c6.6-4.1,13.9-7.2,21.1-10.1c4.9-1.9,10.1-1.9,14.4,2.2
				c1.9,1.7,2.3,3.2,0.4,5c-1.3,1.2-2.6,2.8-4.1,3.5c-22.6,11.3-43.8,25.6-68.1,33.3c-13.3,4.2-27,7.3-40.8,9.2
				C193.8,486.9,178.9,480.5,170.1,462.5L170.1,462.5z M182.5,354.2c-0.5,0-0.9-0.2-2.1-1.7c1.5-0.8,2.9-2.1,4.4-2.2
				c16.9-0.9,34-1.1,50.9-2.5c20-1.7,39.5,2.5,59.2,3.8c0.6,0,1.2,0.4,1.7,0.6c0,0.6,0.1,1.1,0.1,1.7c-3.1,0.6-6.3,1.8-9.4,1.7
				c-9.5-0.1-19-0.2-28.5-0.3c8.7,0.4,17.4,1.1,26.1,2.4c4.7,0.7,9.6,0.7,14.9,1c-0.8,5-3.9,5.7-7.4,5.6c-12.1-0.3-24.3-1-36.4-1
				c-25.3-0.1-50.6,0-75.8,0c-0.5,0-1-0.2-1.8-0.4c1-4,3.7-5.9,7.4-6c18.4-0.4,36.8-1.7,55.2-1.9
				C221.4,354.8,201.9,354.5,182.5,354.2L182.5,354.2z M215.4,254.1c-8.9-19.7-21.6-37-20.7-59.3c7.1,18.8,13.1,37.9,33.2,48.4
				C224.1,246.4,220.3,249.8,215.4,254.1L215.4,254.1z M280.9,202.5c-19.6,20.7-37,43.6-60.9,60.9c-1.6-2.6-2.8-4.6-4.2-7
				C237.5,238.4,259.2,220.4,280.9,202.5z M213.1,256.6c10.1,18,20.9,35.5,31.8,53.1c2.3,3.7,6.3,6.2,9.2,9.6c2,2.3,3.6,5.1,5.3,7.6
				c-0.3,0.6-0.7,1.1-1,1.7c-2.3-1-4.8-1.6-6.8-3c-12-8.9-19.9-21.5-27.9-33.7c-6.8-10.4-12.1-21.8-18.1-32.7
				c-0.4-0.6-0.8-1.3-1.4-1.7c8.6,25.6,25.4,46.4,40.9,67.9c-0.2,0.5-0.4,1-0.6,1.5c-2.6-0.8-5.6-0.9-7.5-2.4
				c-3.6-2.9-7.1-6.2-9.5-10c-6.5-10.2-13.3-20.3-18.2-31.3c-6.4-14.5-11.1-29.8-13-45.9c-1-8.4-3.7-16.5-5.2-24.9
				c-1.1-5.6-1.4-11.4-2.1-17.1c0.4-0.1,0.9-0.3,1.3-0.4c0.5,1,1.4,2,1.5,3C193.4,219.5,202.9,238.2,213.1,256.6L213.1,256.6z
				 M232.6,282.1c4.9-6.8,9.6-13.3,14.3-19.9c0.4,0.4,0.8,0.7,1.2,1.1c-4.1,7-8.3,13.9-12.7,21.3
				C234.4,283.7,233.5,282.9,232.6,282.1L232.6,282.1z M281.2,332c0.8,0,1.7-0.1,2.5-0.1c0,0,0,0,0.1,0c3.6,0.5,7.4,0.9,11,1.7
				c1.6,0.4,3.1,1.5,4.6,2.3c-1.5,1.1-2.9,2.9-4.6,3.2c-3.6,0.7-7.3,0.9-10.9,0.9c-30.3-0.5-60.6-1.1-90.9-1.6c-2.5,0-5-0.2-7.5-0.4
				c-3.9-0.2-5.4-2-4.1-6.2c10.6-0.7,21.3-2.1,32.1-1.9C236,330.2,258.6,331.3,281.2,332L281.2,332z M301.6,330.4
				c-5.8,2.3-11.8,2.2-17.9,1.5C289.5,328.9,295.5,328.6,301.6,330.4z M297.7,320.5c3.5-9.4,6.8-18.1,10-26.8
				C306.8,303.3,304.2,312.3,297.7,320.5z M299.1,345.9c-1.9,0.5-3.8,1.6-5.7,1.6c-8.3-0.1-16.6-0.7-24.9-0.8
				c-17-0.1-33.9,0.1-50.9,0c-9,0-18,0-27-0.4c-3.1-0.1-6.2-1.2-9.4-1.9c0-0.6,0-1.2-0.1-1.8c1.7-0.5,3.4-1.4,5.1-1.4
				c31.9,0.3,63.9-2.9,95.8,1.6c5.5,0.8,11.1,0.7,16.7,1.1C298.9,344.6,299,345.3,299.1,345.9L299.1,345.9z M289.6,381
				c-0.1-2.5-0.3-5,0.5-8c0.9,1.3,2.2,2.5,2.7,3.9c3.8,12.2,7.4,24.5,11.1,36.7c0.3,1,0.4,2,0.5,3c0.8,7.8-0.1,14.5-9.4,17
				c-4.3,1.2-8.3,3.6-12.5,5.5c6-9.8,7.9-20.7,8.3-31.8C291,398.6,290,389.8,289.6,381L289.6,381z M181.3,370.9
				c0.5,0,0.9,0.1,1.4,0.1c0.4,3.4,0.8,6.7,1.1,10.1c0.7,8.9,0.9,18,2.3,26.8c0.7,4.8,3.4,9.3,5.2,13.9c-4.8-14.8-5.3-30.1-4.6-45.4
				c0.1-2.5,1.1-5,1.6-7.5c0.6,0.1,1.1,0.2,1.6,0.2c1.1,8,2.2,16,3.3,24c0.3,0,0.6,0,0.9,0c-0.4-8.4-0.9-16.9-1.4-25.4
				c4.1-0.1,5.8,1.9,6.4,5.2c1.9,11.8,3.8,23.7,5.8,35.5c0.8,4.7,2.1,9.4,3.4,14c-2-13.9-4.1-27.7-6-41.6c-0.4-3-0.8-6-0.5-9
				c0.2-2,1.9-3.9,3.7-5.6c9.3,22.7,13.9,46.7,27.9,66.9c-0.5-1-0.9-2.1-1.4-3.1c-9.3-16.9-14.9-35.2-20.5-53.5
				c-0.4-1.3-0.9-2.7-0.7-3.9c0.3-1.4,1.1-3.7,2-3.8c1.4-0.2,3.8,0.7,4.3,1.8c3.2,7.5,6.1,15.3,9.8,22.8c-1.8-8.2-3.5-16.5-5.3-25.1
				c1.6-0.3,3.6-1.7,4,2c0.2,2,0.8,3.9,2.2,5.9c0.5-1.9,1.1-3.8,1.4-5.7c0.4-2.7,1.7-3.9,4.6-4.1c4.2-0.4,5.9,0.9,6.2,5.4
				c0.9,14.9,2.2,29.8,3.4,44.6c0.6,0,1.1-0.1,1.7-0.1c-0.6-6.7-1.3-13.4-1.7-20.1c-0.4-7.3-0.7-14.6-0.5-22c0.1-6.2,1.7-7.2,7.6-7
				c2.9,0,4,0.9,4.4,3.9c0.9,6.4,2.3,12.7,4.4,18.9l-2.2-21.2c0.7-0.3,1.3-0.6,2-0.9c2.4,2.1,4.7,4.1,7.4,6.5
				c0.1-2.2,0.2-4.3,0.4-6.6c5.4-1.5,6.5,1.4,6,7.2c1.4-2.9,2.2-4.3,3.5-6.9c3.3,12.4,0.5,23.1-1.3,34.1c1.4-5.1,3.1-10.2,4.1-15.4
				c1-5.4,1.3-10.9,2-16.6c4.8-0.1,5.1,3.6,5.7,6.7c3.1,15.9,3.4,31.8-0.5,47.6c-1.2,5-2.7,9.9-4,14.8c0,0,0,0,0,0
				c-4.2,2.9-8.3,6.1-12.8,8.3c-4.8,2.4-10.1,4-16.2,6.3c5.3-8.6,9.9-16.1,14.5-23.6c-0.4-0.3-0.8-0.5-1.2-0.8
				c-1.6,2.3-3,4.8-4.8,6.9c-4.1,4.7-8.4,9.3-12.8,13.8c-3.9,4-8.8,4-13.9,2.6c-15.6-4.3-29.1-12.2-39.8-24.4
				c-1.7-2-2.8-4.4-4.2-6.6c-0.1,0.8-0.3,1.6-0.6,3c-7.1-8.9-13.3-17.8-16.1-28.4c-0.8-2.8-0.3-6.3,0.6-9.2
				C176.8,381.6,179.2,376.3,181.3,370.9L181.3,370.9z M172.7,380.5c-4.1,9.5-2.7,18.2,2.4,27.1c13.9,24.7,34.7,40.7,60.6,51
				c0.6,0.2,1,0.7,2.2,1.6c-12.7,2.8-24,2.7-33.5-6.2c2.6,3.5,5.2,7.1,7.8,10.6c-0.3,0.4-0.6,0.8-0.9,1.3c-5.8-0.7-11.1-3-15.8-6.9
				c-11.5-9.6-19.6-21.7-24.1-36c-2.8-8.9-4.9-18-7.6-26.9c-3-10,2.4-16,10.9-22.1C173.8,376.9,173.4,378.8,172.7,380.5L172.7,380.5
				z M190,463.7c-5.6-1.1-10.1-3.8-13.2-8.1c-4.2-5.9-8.2-12.2-11.3-18.7c-3.4-7-5.6-14.6-8.7-21.8c-3.9-9-0.8-17.1,3-26.5
				C166.1,415.9,172.1,442.1,190,463.7L190,463.7z M327.6,419.6c3.2-15.8,6.4-31,9.5-46.3c1.1,16.3-0.2,32.3-4.4,48.8
				C330.1,420.9,328.3,420,327.6,419.6z M312.6,421.6c0.2,4.8-1.6,6.6-6.5,6.7c4.3-20.4-7.3-37.3-12-55.7c0.5-0.2,0.9-0.4,1.4-0.6
				c1.8,3.5,3.9,7,5.4,10.7C306.4,395.2,312.1,407.5,312.6,421.6L312.6,421.6z M279.8,325.7c-1.8,1.4-4.2,2-6.4,3
				c17.3-14.1,26.9-31.5,27-53.8c0-12.6,0.2-25.3,0.5-37.9c0.1-3.8,0.7-7.6,1-10.3c1.8,13.3,4,27.4,5.5,41.6
				C310.2,293.1,298.4,311.1,279.8,325.7z M301.6,215.6c-4.4,15.2-3.9,30.7-2.9,46.1c1.1,17.6-3.2,33.3-15.5,47.2
				c1.3-3.3,2.4-6,3.5-8.6c-0.4-0.5-0.8-0.9-1.3-1.4c-7.3,5.5-14.5,11-21.8,16.5c-0.2-0.2-0.4-0.5-0.6-0.7c3.7-4,7.5-7.9,11.2-11.8
				c-0.2-0.4-0.4-0.7-0.6-1.1c-5,1.4-10,2.7-15.5,4.2c0.4-1.1,0.6-1.9,0.9-2.7c-10.8-3.4-12.2-5.4-11.2-16.6
				c-2.2,4.4-4,7.8-5.7,11.2c-0.6,0-1.2-0.1-1.8-0.2c-0.1-3.6-0.9-7.3,0-10.6c2.9-10.9,8.5-20.5,15.3-29.5
				c11-14.6,22-29.3,32.9-43.9c0.3-0.3,0.7-0.6,1.8-1.5c-5.5,13.2-10.6,25.6-15.7,37.9c0.4,0.2,0.7,0.3,1,0.5
				c8.2-17.4,16.5-34.8,24.7-52.3c0.2,0.1,0.5,0.2,0.7,0.4c-2.8,10.7-5.9,21.4-8.2,32.2c-2.4,10.9-3.9,21.9-5.9,32.9
				c0.4,0.1,0.9,0.2,1.3,0.3c4.3-19.1,8.6-38.2,12.9-57.3c0.3,0,0.7,0.1,1,0.1C302.1,209.7,302.4,212.9,301.6,215.6L301.6,215.6z
				 M295.5,196.9c-18.8,29.7-42.5,55.2-65.5,81.2c-5.9-5.1-5.8-5.3-1.4-10.9c2.1-2.7,3.9-5.7,5.8-8.6c-3.5,3.5-7.1,7-10.8,10.7
				c-0.9-1.2-1.7-2.4-2.6-3.7c5.3-4.1,10.3-8,15.9-12.3c-0.1,1.3-0.1,2.1-0.1,2.8c12.8-14.1,25.6-28.3,38.5-42.4
				c4-4.4,8.2-8.8,12.5-12.8C289.9,198.9,292.6,197.7,295.5,196.9L295.5,196.9z M278.1,181.6c1.2,0.5,2.6,0.8,5.3,2
				c3.5,1.6,4.3,2.4,4.3,3.2c0,0.4-0.2,0.6-0.7,1.2c-0.2,0.3-2.9,3.8-2.1,5.4c0.5,1.1,2.3,0.6,2.7,1.2c0.9,1.7-10.9,8.4-20.2,15.4
				c-5.9,4.5-27,21.5-33.9,27.2c-3.9,3.2-7,2.7-10.6-0.3c-11.7-9.7-22-28-24.8-45.4c2.3,1.8,4.3,2.2,5.5,2.3
				c7.1,0.5,13.5-8.2,14.2-9.3c1.6-2.2,2-3.6,2.8-3.4c1.5,0.2,0.8,5.1,2.4,13.9c0.2,0.9,0.5,2.6-0.5,3.8c-0.6,0.8-1.6,0.9-3.6,1.2
				c-4.1,0.5-6.6,0.5-6.6,0.6c0,0.2,2.7,0.4,6.8,1.2c0,0,1,0.2,2.3,0.5c7.1,1.6,9.1,3.5,10.3,2.9c3.2-1.6-3.6-18.5-6.8-37.5
				c-3.3-19.2-2.5-37.9-0.9-38.1c0.4,0,0.8,0.9,2,4.7c6.9,21.7,10.3,32.5,10.5,33.3c2.1,6.4,3.1,6.7,9.4,4.5c0.9-0.3,2-1.1,2.8-0.9
				c2,0.5,3.5,0.4,4.7-0.2c1.8-0.8,2.8-2.5,4.7-6.6c5.4-11.4,6.9-12.2,7.8-12.1c0.5,0.1,0.7,0.4,1.1,0.8c2.1,2.3,1.5,5.7,1.4,8.5
				c-0.1,2.9-0.4,7.9,2,12.6C272.7,178.1,275.8,180.6,278.1,181.6L278.1,181.6z M193.3,94.8c4.1-9.7,14.1-11,20.3-3
				c2.1,2.8,6,3,8.7,0.3c1.6-1.6,3-3.5,4.6-5.5c-0.8,7.8-7.2,11.2-14.1,7.6C206.3,90.8,200.1,91.5,193.3,94.8z M204.4,102
				c-3.7,7.3-6.6,8.3-13.9,6.5c-3.5-0.9-7.4-0.7-11.5-1.1c0.2-3.1,2.3-4.4,5.3-4.3c2.5,0.1,5,0.4,7.4,1.1
				C196.3,105.5,200.7,106.1,204.4,102L204.4,102z M214.6,70.2C224.2,69,233.5,68,242,67C235.7,77.4,220.8,80.1,214.6,70.2z
				 M227.8,85.3c-3.6,1.9-7.3,3.8-10.9,5.7c-0.4-0.7-0.8-1.4-1.1-2.1c3.7-1.8,7.4-3.6,11.1-5.5C227.1,84.1,227.4,84.7,227.8,85.3z
				 M224.7,112.6c-1.9,0.1-4.6,1.1-5.6,0.2c-2-1.9-3.1-4.8-4.6-7.2c0.4-0.3,0.7-0.5,1.1-0.8c2.3,0.8,5,1.2,6.9,2.6
				C223.8,108.3,224,110.8,224.7,112.6L224.7,112.6z M294.6,80.3c-0.4-0.3-1.2-0.7-4.5-1c-2.8-0.2-4.2-0.3-5.4,0.5
				c-0.8,0.5-1.1,1.1-1.7,1.9c-1.7,2.7-2,5.7-2.1,8.1c0,0.4,0,0.8,0,1c-0.1,2.1,0,6.8,1.6,16.3c0.5,2.9,0.9,4.9-0.3,5.9
				c-0.9,0.8-1.8,0.2-6.5-0.1c-3.6-0.2-5.5-0.1-6-1.1c-0.3-0.8,0.5-1.8,0.3-1.9c-0.2-0.1-1,0.8-1.5,1.6c-0.6,0.9-0.9,1.3-0.8,1.8
				c0.1,0.6,0.8,1.2,2.8,1.8c3.9,1.4,5,0.8,5.9,1.8c1.1,1.4,0.6,4.3-0.9,5.5c-0.7,0.6-1.2,0.7-2.9,0.9c-2.9,0.3-5.4,2.1-5.3,2.6
				c0.1,0.6,3.6-0.7,9.6-0.5c1.8,0.1,4,0.3,4.1-0.4c0.2-0.5-1.3-1.1-2-3c-0.1-0.2-0.3-0.9-0.4-1.8c0-0.3-0.1-1.8,0.5-2.7
				c0.9-1.6,3-0.9,4.5-2c2.2-1.6,1.2-5.7,0.7-14.9c-0.1-2.6-0.2-4.8-0.2-6.1c0.9,0.4,2.2,1,3.9,1.2c2.2,0.3,4.1,0,5.2-0.2
				c0.1,1.9,0.2,4.9-0.2,8.5c-0.8,6.7-3.8,12.3-8.3,24c-1.4,3.5-3.6,6.7-5.5,10c-3.4,6.1-7.6,8.4-14.5,6.9
				c-12.7-2.9-23.3-9.6-31.8-19.5c-1.2-1.3-2.1-3.1-2.6-4.8c-1.9-6.1-3.6-12.4-5.1-18c2.2,1.5,5.2,3.6,8.2,5.6
				c0.5-0.3,1-0.5,1.5-0.8c-5-11-4.8-20.6,6.2-27.4c0.8-1.6,2.1-4,4.3-6.4c2.3-2.5,4.3-4.1,8.5-6c7.4-3.4,14.7-7,21.8-10.8
				c1.8-1,3.4-1.4,4.8-1c1.1,0.3,1.8,1,2.6,2c4.1,4.7,5,6.8,7.9,9.8c1.5,1.5,1.6,1.4,2.4,2.3c1.6,2.3,2.1,4.7,2.6,7.4
				c0.2,1.2,0.4,2.8,0.5,4.9C296.2,81.7,295.6,80.9,294.6,80.3L294.6,80.3z M237.2,52.3c-0.1-0.6-0.2-1.2-0.2-1.8
				c11.7-4.1,23.4-8.1,36.3-6.2c0.2,0.6,0.4,1.2,0.6,1.8c-6.1,2-12.2,4-17.5,5.8c6.9,1.1,14.4,0.7,21.1-4.7
				c-1,7.3-16.8,10.7-30.5,7.2c1.6-0.8,2.4-1.2,4.1-2L237.2,52.3L237.2,52.3z M304.5,61.6c0.9-0.2,2.2,1.2,3,2.1
				c0.3,0.3-0.2,1.9-0.5,2c-1.1,0.2-2.5,0.4-3.3-0.2c-6.8-4.9-13.5-10-20.2-15.1c-0.6-0.4-0.7-1.4-1.1-2.1c0.5-0.5,0.9-0.9,1.3-1.3
				c3.7,3.2,7.5,6.2,11,9.5C297.6,59.2,299.9,62.4,304.5,61.6L304.5,61.6z M285.4,11.7c0.4,0.9,0.9,1.9,1.3,2.8c-3,2.2-6,4.5-9,6.7
				c-0.3-0.5-0.6-1-1-1.5C279.7,17.3,281.5,12.8,285.4,11.7L285.4,11.7z M270.8,23.3c4.5-0.5,9.3-0.1,12.3,5.2
				c-11-6.3-16.8-4.4-22.2,7.1c14.8,1.1,30.5,0,38.9,16.2c-12.1-15-28.5-15.5-45.1-11.9c-10.3,2.2-19.9,7.1-29.9,10.8
				c-1.3,0.5-2.6,1.2-3.9,1.8c-0.2-0.5-0.4-0.9-0.7-1.4c8.2-3.9,16.4-7.8,24.8-11.5c2.4-1.1,5.1-1.4,7.8-1.9c3.6-0.6,5.7-2.1,6.8-6
				C260.9,26.4,265.7,23.8,270.8,23.3L270.8,23.3z M222.5,46.9c2.8-3.6,5.6-7.3,8.4-10.9l1.2,0.9c-2.8,3.7-5.5,7.3-8.3,11
				C223.3,47.6,222.9,47.2,222.5,46.9L222.5,46.9z M262,23c0.2,0.7,0.5,1.3,0.7,2c-6.9,2.4-13.7,4.8-20.8,7.3
				c0.6,1.9,0.9,3.1,1.4,4.6c-1.1,0.4-2.3,0.9-3.2,1.2c-1.1-2.1-2-3.9-3.3-6.6C244.8,28.8,253.4,25.9,262,23z M246.4,21.6
				c-1.4,0.6-2.9,1.1-4.3,1.8c-1.6,0.7-3.2,1.4-5.1,2.3c1.1,0.4,1.6,0.6,2.2,0.9c-0.1,0.2-0.2,0.6-0.4,0.7c-3.1,1.2-5.6,2.3-9.6,1.4
				c-3.9-0.9-8.8,2-13.9,3.5C224.4,24.1,234,19.2,246.4,21.6L246.4,21.6z M228,31.3c-9.5,6.7-18.1,12.8-26.4,18.7
				C205.2,41.1,213.5,34.9,228,31.3z M208.3,50v11C205.8,57.5,203.8,53.7,208.3,50z M201.2,61.4c0.4,1.4,1,3.2,1.2,4
				c-4.4,3.3-1.9,6.2-0.8,9.4c2.8-2.7,5.2-5.4,7.9-7.7c3.9-3.3,8-6.5,12.2-9.4c4.5-3.1,8.9-5.2,15-2.3c4.7,2.3,10.5,2.4,16,4.6
				c-7.3,0.2-14.7,1.2-22,0.5c-6.6-0.6-11.7,1.2-16.4,5.4c-5,4.5-9.9,9.1-14.6,13.5C201.2,73.7,194.6,67.2,201.2,61.4L201.2,61.4z
				 M186.3,33.4c2.7-0.3,5.6,0.4,8.2,1.2c1.1,0.3,2.5,2.3,2.3,3.3c-0.1,1-1.9,2.2-3.1,2.6c-1.5,0.6-3.2,0.5-5.8,0.8
				c2.3,1.1,3.8,1.9,5.3,2.6c-0.4,1.4-0.8,2.6-1.3,3.9c-0.4,1-0.6,2.5-1.4,2.9c-3.8,2-7.8,3.7-11.8,5.3c-0.6,0.2-2.3-0.8-2.2-1.1
				c0.1-1,0.6-2.2,1.3-2.9c1.6-1.4,3.4-2.6,5.2-3.9l-0.7-1.2c-2.1,0.6-4.2,1.2-6.4,1.7C175.2,43.1,181.2,34,186.3,33.4L186.3,33.4z
				 M172.9,77.9c-0.2,2.9-0.4,5.7-0.7,10.2c-2.7-4.7-4.8-8.2-7-12c-0.2,1.9-0.4,3.8-0.7,6c-2.9-3.2-2.5-6.1-0.7-9.2
				c3.4-5.7,8.6-8.5,14.8-7.5c-1.2,1.6-2.2,3-3,4c2.3-0.2,4.6-0.5,7-0.7c-0.5,2.5-0.8,5-1.4,7.4c-0.4,1.4-1.4,2.6-2.2,4.3
				C176.9,79.5,175.2,78.8,172.9,77.9L172.9,77.9z M181.6,119.5c0.7,0.4,1.3,0.8,2,1.2c-3.1,4.8-6.2,9.6-9.3,14.4l-1.7-0.9
				C175.7,129.3,178.7,124.4,181.6,119.5L181.6,119.5z M186.5,127.6c-2.4,4-4.5,7.4-6.7,11.1C176.5,132.2,179.2,127.8,186.5,127.6z
				 M180.8,175.6c-1.6-1.6-4.1-3.1-5.1-5.2c-1.6-3.4-3.1-7.9,0.4-10.7c4.3-3.6,9.2-7,14.4-9.1c5.6-2.1,7.1-3.2,7.7-9.2
				c0.4-4.6,1.5-9.2,2.2-13.4c-3.9,2.5-4.9,7.4-5.4,12.7c-4.8-5.4-4.4-11.8,1.2-15.3c4.9-3,10.2-5.3,15.3-7.8
				c0.4,0.5,0.9,1.1,1.3,1.6c-2,2.6-3.6,5.6-6.1,7.7c-4.5,3.7-5.6,8.3-5.5,13.7c0.2,10.2-2.1,13.1-12,15.8c-1.3,0.4-2.6,0.7-3.9,1
				c-4.6,1.3-8.9,3.7-8.9,8.8C176.4,169.2,179.1,172.3,180.8,175.6L180.8,175.6z M179.1,198.5c0.8,0.1,1.5,0.3,2.3,0.4v32.3
				c0.4,0,0.8,0,1.1,0c0.6-11.5,1.2-23.1,1.8-34.6l2.3-0.2c4.3,45.6,17.3,88.6,38,129.3c-11.5-11.9-19.2-26.1-25.7-41
				c-0.5,0.3-1.1,0.5-1.6,0.8c6.2,13.3,12.3,26.5,18.5,39.8c-0.3,0.3-0.6,0.7-1,1c-4.2-4.3-8.5-8.5-12.7-12.8l-0.4,0.1l-0.3-0.2
				c-4.9-6.8-9.9-13.5-14.7-20.5c-1.6-2.3-2.5-5-4.3-7.4c1.6,5.1,3.1,10.2,5.2,16.9c-7.5-0.8-13.9-1.5-21.6-2.3
				c10,8.5,19.6,16.6,29.1,24.7c-0.4,0.5-0.7,1.1-1.1,1.6c-2.6-1.6-5.3-2.9-7.7-4.7c-4.4-3.5-8.7-7.2-12.8-11
				c-3.7-3.5-7.5-7.1-10.6-11.2c-5.9-8-7.8-17.4-4.1-26.6c8.7-21.9,11.2-45.2,17.8-67.6C177,202.9,178.1,200.7,179.1,198.5
				L179.1,198.5z M66.5,246.4c0.8-3.7-0.3-2.5,0.4-11.2c0.6-7.7,1.4-7.9,0.8-11.1c-0.4-2-1-3.6-0.2-5.6c0.7-1.8,2.5-3.6,3.7-3.2
				c1.1,0.3,1.4,2.1,1.7,4.1c2.3,12.7,2.1,8.9,2.4,12.9c0.6,6.7,0.9,10.1,0.6,12c-1.3,7.8-6.5,15.2-9.2,14.6
				c-0.8-0.2-1.3-1.1-1.6-1.9C63.6,253.7,65.4,250.9,66.5,246.4L66.5,246.4z M38.9,137.6c-7.3-9.2-9.5-18.6-5.9-28.3
				c3.4-9.4,8.3-18.2,12.7-27.4c0.7,8.8,0.4,17.8,5.3,27.4c0.7-4,1.1-6.6,1.7-9.9c0.9,1.2,1.7,1.9,2.1,2.8c1.1,2.6,1.9,5.4,3,7.9
				c1.8,3.8,3.8,7.3,8.9,4.8c1.9,6.5-5.9,22.7-13.4,26.2c2.5-8.8,6.5-17.2-1.2-24.5c-0.2,0.7-0.7,1.8-0.8,2.9
				c-0.2,1.3-0.2,2.7-0.4,4c-0.5,3.2-0.8,7.1-5.1,7.3c-3.4,0.2-4.9-3.7-4.1-8.7c0.5-3.3,1-6.7,1.6-10.5
				C36.1,114.8,35.1,121.3,38.9,137.6L38.9,137.6z M60.6,148.6c-7.2,0.6-13.3,1.1-19.5,1.7C44.5,145.1,55,144.5,60.6,148.6z
				 M41.8,158.3c5.9-4.4,14.6-4.5,18.8,0H41.8z M57,209.5c-0.6,0.1-1.1,0.2-1.7,0.3c-5.3-9.1-2.8-19.7-4.2-29.6
				c-0.2-1.1,1-2.3,1.5-3.5c0.5,0.1,1,0.2,1.4,0.4C55,187.9,56,198.7,57,209.5L57,209.5z M38,216c1.8-3.3,6.1-4.8,9.4-4.9
				c0,0,6.5-0.2,14.1,7.8c0.3,0.3,0.5,0.6,0.5,0.6c0.5,0.8,1.2,2.3,0.8,3.2c-0.7,1.3-3.5,0.9-4.1,0.8c-2-0.3-2.3-1-6.1-2.7
				c-1.7-0.8-2.9-1.1-5.3-1.8c-1-0.3-1.9-0.5-3-0.2c-1,0.2-1.2,0.7-2.4,1.3c-0.6,0.3-3.1,1.7-4.1,0.9C36.8,220.4,37.1,217.8,38,216
				L38,216z M40.5,223.7c2.4-1.8,5.2-1.5,8.3-1.3c1.8,0.1,4.7,0.6,7.7,2.3c0.3,0.1,1.2,0.8,3,2c2.6,1.8,3.4,2.4,3.5,3.4
				c0,0.7-0.4,1.3-0.5,1.4c-0.9,1.2-2.8,1-3.3,1c-1.8-0.1-2.5-1-4.4-1.9c-2-0.9-3.7-1-5.7-1.1c-3.5-0.2-6.3,0.5-7,0.6
				c-3.2,0.8-4.1,1.9-4.7,1.4C36.3,230.6,37.4,226,40.5,223.7L40.5,223.7z M38.4,236.1c3-3.1,7.5-3.2,10.1-3.2c1.9,0,7.4,0,11,3.7
				c1.1,1.1,2.8,3.3,2.1,4.4c-0.6,1-3.2,0.9-4.9,0.3c-1.7-0.6-1.7-1.4-3.6-1.8c-1.3-0.3-2.9-0.3-3-0.3c-0.5,0-0.9,0.1-1.3,0.1
				c-0.2,0-3,0.4-4.3,0.6c-4.3,0.8-7.5,3.6-8.5,2.7C35.2,241.8,36.3,238.3,38.4,236.1L38.4,236.1z M46.5,247.8
				c-3.5,1.1-3.9,3.6-7.3,4c-0.5,0.1-2,0.2-2.6-0.6c-0.8-0.9,0.9-3.4,1-3.5c1.7-2.6,4.5-3.7,6.4-4.2c7.7-2,16,1.8,15.8,3.2
				c-0.1,0.8-2.9,1.1-3.3,1.2c-1.8,0.2-2.8-0.2-4.6-0.4C50.9,247.4,48.7,247.1,46.5,247.8L46.5,247.8z M57.5,350.4
				c-2-22.7-4-45.5-6-68.2c0.4,0,0.8-0.1,1.1-0.1c2.2,22.7,4.5,45.4,6.7,68.1C58.8,350.3,58.2,350.3,57.5,350.4L57.5,350.4z
				 M71.6,381c-4.6-38.4-9.3-76.7-14-115.1c-0.1-0.7-0.3-1.4-0.2-2c0.4-1.3,0.9-2.6,1.4-3.8c1,1.1,2.6,2.1,2.8,3.3
				c1.6,9.9,3,19.8,4.4,29.6c6.3,45.2,12.7,90.4,18.9,135.6c2.7,19.5,5.2,39,7.8,58.5c0.3,2.6,0.3,5.2,0.5,7.9
				c-7.7-0.2-8.1-0.6-8.8-6.3C80.1,452.8,75.9,416.9,71.6,381L71.6,381z M92.7,524.9c-3.1-3.3-6.3-6.5-9.2-9.9
				c-0.6-0.7-0.6-2.5-0.1-3.1c2.5-3,5.2-5.7,8.9-9.5c0.8,8.1,1.5,14.9,2.2,21.8C93.9,524.4,93.3,524.7,92.7,524.9L92.7,524.9z
				 M92.3,344.2c-5.2-6.1-10-13-13.2-20.2c-6.7-15.2-9.2-31.5-10.8-48c-0.5-5.3,1.1-8.6,6.7-10.4c1.5,4.7,2.7,9.4,4.4,13.9
				c5.1,12.8,13,23.7,24.1,31.9c10.5,7.8,11.8,18.7,11.4,30.3c-0.1,1.8-1.7,4.2-3.2,5.1C105.7,350.1,96.7,349.5,92.3,344.2
				L92.3,344.2z M100.5,555.9c1.4-10.7,0.3-21.6,0.6-32.5c0.9-34.5,1.9-68.9,3.1-103.4c0.2-5,1.5-9.9,2.3-14.8
				c0.1-0.6,0.6-1.1,0.8-1.7c0.4,0.1,0.8,0.2,1.3,0.2l3.5,169.4c0.5,0,1.1,0,1.6,0V411.3c0.6,0,1.1,0,1.6,0
				c4.6,61.2,5.7,122.7,7.7,184.7c-1.3-0.9-2.3-1.3-3-2c-3.4-3.4-6.7-7-10.2-10.2C101.7,576.1,99,567.2,100.5,555.9L100.5,555.9z
				 M127.1,613.7v59.6c-3.3-3.3-7-6.9-10.6-10.6c-0.4-0.5-0.3-1.6-0.3-2.4c0.4-11.6,1-23.2,1.3-34.9
				C117.6,619.8,120.6,616.7,127.1,613.7L127.1,613.7z M115.5,607.5c-4.8,4.5-9.3,8.7-13.9,12.9c-0.4-0.2-0.8-0.4-1.1-0.5
				c0.8-7.5,1.5-15,2.4-23.5C107.4,600.3,111.1,603.6,115.5,607.5L115.5,607.5z M101.5,633.6c-1.7-1.8-1.5-3.7,0.9-4.8
				c2.7-1.2,5.4-2.2,9.7-4c0.3,6.8,0.6,12.2,0.8,17.7l-1.6,0.6C108.1,639.9,104.7,636.9,101.5,633.6L101.5,633.6z M112.8,721.8
				c0.8-19.2,1.5-37.3,2.3-57c4.9,9.7,9.1,18.1,13.2,26.3c0.1-1.1,0.2-2.4,0.3-3.8c0.5,0,0.9,0,1.4-0.1c0.5,6,1.1,12,1.4,18
				c0.1,1.2-1.2,2.8-2.3,3.6C124.1,713,119,717,112.8,721.8L112.8,721.8z M130.1,754.8c-4.8-6.3-9.6-12.6-14.2-19
				c-2.1-2.9-1.1-5.3,1.8-7.1c3.3-2.2,6.6-4.3,10.4-6.8c1.3,11,2.5,21.6,3.7,32.2C131.3,754.3,130.7,754.5,130.1,754.8L130.1,754.8z
				 M132.2,421.1c-2.7-10-5.6-20-7.1-30.1c-2.6-17.3-4.1-34.7-6.2-52.1c-1.4-11.6-3-23.3-12.7-31.8c0.2-0.4,0.4-0.9,0.6-1.3
				c1.6,0.3,3.6,0.1,4.8,0.9c3.3,2.2,6.3,4.8,9.4,7.2c-2.9-3.3-5.7-6.6-9.2-10.7c4,0,6.9,1.1,8.9,2.6c2.1,1.5,3.5,3.6,3.8,3.5
				c0.2-0.2-0.9-2.1-1.9-3.7c-1.8-2.8-3.7-4.9-5.3-6.5c1.9-4.1,4.4-9.5,7.1-14.7c1.9-3.7,3.8-7.5,6.1-10.9
				c7.5-11.3,11.6-23.3,13.1-37.1c1.7-15.5,9.1-28.9,24.8-35.6c1.6-0.7,3.4-1,6-1.8c-0.5,3.2-0.5,5.7-1.2,8c-2.6,8.1-5,16.2-8.4,24
				c-1.2,2.9-4.5,5.1-7.2,7.4c-2.3,1.9-2.8,3.6-2.5,6.8c0.5,4.9-0.9,9.7-1.2,14.6c-0.4,5-4.3,19.3-17.9,56.6
				c-0.4,0.8-0.9,1.5-1.4,2.3c-3.4-3.9-7.6-8.3-8.4-7.7c-0.6,0.5,1.1,3.9,1.9,5.6c2,4.1,6.3,18.6,14.8,47.5c1.1,3.9,2.1,7.1,2.3,7.8
				c0.7,2.6,1.5,5.2,2.2,7.9c-0.4,0.2-0.8,0.4-1.2,0.6c-1.8-3.4-4.2-6.5-5.3-10.1c-3.3-10.5-5.7-21.2-9.1-31.7
				c-2.2-6.7-5.3-13.2-8-19.7c4.2,18.8,8.4,37.6,12.5,56.5c2.4,11,4.3,22.2,6.3,33.3c0.2,1.4,0,2.9,0,4.3l-1.2,0.5
				c-0.9-1.5-2.1-2.9-2.5-4.5c-3.1-13.5-6-27-8.9-40.4c-0.5-2.4-0.9-4.9-2-7.2c0.9,8.4,1.4,16.9,2.6,25.3c1.2,8.4,2.6,16.8,4.6,25
				c2,8.3,4.9,16.5,7.7,26C137.3,432.6,133.8,427.3,132.2,421.1L132.2,421.1z M146.6,459.9c0.1,40.1-2.8,80.3,2.1,120.4
				C140.6,540.3,144.2,500.1,146.6,459.9z M151.7,653.5c-1.9-11.1-3.2-22.4-3.9-33.7c2.7,13.9,5.3,27.9,8.2,41.8
				c9.3,44.8,21.8,88.6,38.9,131c12.6,31.1,27.5,61,50.4,86.2c14.3,15.7,31.7,25,52.6,28.3c2,0.3,3.9,0.8,5.8,1.2
				c-12.7,3.2-25.2,3.6-37-2.5c-15-7.8-27.8-18.4-38.6-31.2c-13.5-16-22.9-34.4-29.9-53.9C178.5,766.1,161.4,710.8,151.7,653.5
				L151.7,653.5z M202.4,886.7c-0.6,0.2-1.3,0.3-1.9,0.5c-13.3-34-17.8-70.3-27.8-105.2c0.6-0.1,1.3-0.2,1.9-0.3
				C183.9,816.7,193.1,851.7,202.4,886.7L202.4,886.7z M172.2,929.9c-19,0.4-38,0.6-56.7-3.5c-4.1-0.9-8.4-2.5-11.8-5
				c-2.3-1.7-4.2-5.4-4.2-8.2c0.1-3.9,3.7-5.5,7.5-5.7c0.1,0.2,0.2,0.3,0.2,0.3c-4.9,3.8-4.1,7.7,0.8,10.1c4.5,2.2,9.7,3.8,14.7,4.2
				c15.6,1,31.3,1.4,46.9,1.9c2.9,0.1,5.9,0,8.9,0c0.3,0.8,0.6,1.6,0.9,2.4C177,927.7,174.6,929.8,172.2,929.9L172.2,929.9z
				 M227.1,927.1c-3.9,4.4-3.1,6.6-6.7,11.8c-3.2,4.6-5.9,5.9-6.8,6.3c-1.2,0.5-3.7,1.6-5.8,0.5c-1.4-0.8-2-2.3-2.2-2.8
				c-0.2-0.4-0.8-2.1-0.2-4c0.8-2.7,3.2-3.9,2.9-4.6c-0.2-0.4-1.4-0.1-1.5-0.1c-1.6,0.4-2.2,1.7-3.6,3.3c-0.6,0.7-2,2.3-3.9,3.6
				c-2.3,1.6-4.4,2-4.9,2.1c-0.6,0.1-1.4,0.3-5.6,0c-4.1-0.3-6.1-0.5-7.5-1.1c-0.8-0.4-2.9-1.5-4.1-3.8c0,0-0.6-1.2-0.8-2.5
				c-0.5-4.2,7.1-10.3,10.2-12.3c8.6-5.5,16.5-12.2,24.5-18.5c3.1-2.5,5.6-5.6,10.3-5c6.2,0.9,12.2,8.5,11.8,15.4
				c-0.3,4.3-3,8.2-3.3,8.6C228.9,925.4,228.5,925.5,227.1,927.1L227.1,927.1z M312.2,934.8c-27.1,0.7-54.2,1.2-81.3,1.7
				c-1.2-4.5-0.2-5.9,3.3-5.9c25.6-0.1,51.2-0.3,76.9-0.3c1.5,0,3,1.6,4.4,2.4C314.4,933.4,313.3,934.8,312.2,934.8L312.2,934.8z
				 M405.7,922.7c3.5-0.3,6.7-2.3,10.2-3.2c1.5-0.4,3.2,0,4.9,0.1c-0.4,1.8-0.4,3.8-1.2,5.4c-0.5,1-2.2,1.7-3.4,1.8
				c-15.5,1.6-30.9,3.1-46.2,4.7c-1.7-5-0.3-6.5,4-6.7C384.6,924.4,395.2,923.8,405.7,922.7L405.7,922.7z M371.5,900.2
				c-0.3,0.3-0.7,0.6-1,0.8c-9.1-7.9-15.4-18-21.3-28.4L371.5,900.2z M353.3,853.8c-1.2,0.6-2.4,1.3-4.7,2.5
				c-2.8-4.7-5.7-9.5-8.6-14.2c0.5-0.3,0.9-0.6,1.3-0.8C345.4,845.4,349.4,849.6,353.3,853.8L353.3,853.8z M346.3,784.5
				c1.2,5.6,2.4,11.2,3.6,16.6c-3.3-1.5-5.5-2.8-7.9-3.6c-3.5-1.2-3.1-3.6-2-5.9c1.2-2.5,2.9-4.8,4.5-7.1
				C345.1,784.4,345.7,784.4,346.3,784.5L346.3,784.5z M340.5,740.5c2.2,7,2.5,14.6,3.4,22c0.2,2-0.6,4.1-1,6.2
				c-1.8-8.6-8.6-27.9-13-34.6c1.9,8.5,4,17.3,6,26.1c-0.6,0.2-1.3,0.4-1.9,0.6c-2.5-24.9-17-44.9-27-66.7c0.3-0.2,0.7-0.5,1-0.7
				c0.6,0.3,1.3,0.6,1.8,1C322.3,708.2,334.8,722.2,340.5,740.5L340.5,740.5z M310.6,662.9c0.9,4.5,2.5,12.2,4,19.9
				C308.4,675.8,310.9,667.5,310.6,662.9z M327.5,660.9c-2.2,3.5-4.6,6.8-7.5,10.8c-2.6-6.3,0.1-10.3,3.4-13.8
				c0.7-0.7,2.6-0.3,3.9-0.4C327.5,658.6,328,660,327.5,660.9L327.5,660.9z M326.6,652.5c-9.6-16.1-12.1-34.2-13.8-52.6
				c5.2,17.4,10.4,34.7,15.5,52.1C327.8,652.2,327.2,652.4,326.6,652.5z M327,624c-2-3.7-4.3-7.1-5.9-10.8
				c-7-16.2-13.8-32.5-20.8-48.7c-0.7-1.7-1.6-3.3-2.7-4.8c6.9,23.3,9.1,47.2,8.9,71.3c-2.1-17.1-5.8-33.8-13.4-49.5
				c1,3.5,2,7.1,3.1,10.6c6.4,19.9,7.5,40.1,3.4,60.7c0,0-2,25.5-6.7,36.3c-0.3,0.7-0.8,1.8-1.6,4c-2.5,6.3-2.8,7.1-2.5,7.2
				c0.3,0.2,1.7-1.3,2.7-3c2.4-4,2.1-7.9,3.1-7.9c0.2,0,0.5,0.2,0.8,0.7c1.4,2.1,1.1,4.6,0.9,6.5c-0.3,3.6-0.8,8.3-0.1,8.5
				c0.4,0.1,1-1.3,1.2-1.6c2-4,1.4-8.3,1.1-10.2c-0.8-4.4-2.4-7.2-1.3-8.1c0.4-0.3,0.9-0.3,1.2-0.2c0.3,0.4,0.8,0.8,1,1.3
				c6.1,13.1,12.1,26.3,18.2,39.4c7,15.1,9.8,31.1,10.5,47.5c1.4,32.7-3,37.3,1.9,60.4c3.1,14.4,7.6,35.8,9.7,39
				c0.2,0.3,1.3,1.9,1.1,4c-0.1,1.2-0.6,1.9-0.8,2.3c-1.4,3,5.4,8.8,7.5,12c4.8,7.3,7,14.6,10.6,20.2c3.4,5.3,6.9,9.7,6.7,14.8
				c0,1.1-0.1,4.4-2.2,5.8c-1,0.7-1.5,0.3-2.8,1.2c-1.7,1.1-1.8,2.4-3.1,3.7c-0.8,0.9-2.2,1.9-4.7,2.3c-0.3,0.5-0.9,1.2-1.9,1.8
				c-0.2,0.1-1.8,1-3.2,0.8c-3-0.5-3.4-5.1-8-7.8c-0.3-0.2-1.5-0.9-1.7-0.6c-0.2,0.2,0.4,1.3,1.7,3.5c1.5,2.6,1.8,3.1,1.9,3.9
				c0.1,1.2-0.4,2.5-1.2,3.4c-1.8,2-5.7,1.7-8.1,0.4c-3.3-1.8-4.4-5.5-6.4-12.3c-0.6-2.2-1.3-4.6-1.8-8c-0.3-2.1-0.4-3.8-0.3-5.2
				c0.2-6.4,0.7-8.6,0.7-12c0.1-8.4-4-7.8-4-16.4c0-3.4,0.7-8.6-0.4-11.5c-0.1-0.3-0.7-1.8-1-3.9c-0.1-0.9-0.1-1.6-0.1-2
				c-0.3-14.8-1.9-26.8-3.3-35c-3.5-19.9-11.4-49.1-20.2-68c-0.6-1.3-2.7-7.5-7-19.9c-2-5.9-4.2-12.6-2.1-14.1c1.3-0.9,3,0.7,3.8,0
				c1.9-1.8-7.2-14.4-16.5-27.2c-11.9-16.3-11.5-15.3-11.8-16.2c-4.5-13.6-10.8-26.7-13.9-40.6c-8.1-36.5-3.9-72.2,9.7-106.8
				c1.8-4.5,4.3-6.2,8.7-3.8c5.4,3,10.8,6.2,15.7,9c-1.2-2.9-2.8-6.9-4.8-11.8c10.9,2.8,20.4,4.9,24.7,15.9
				c4.6,11.6,10,22.9,15.1,34.3c3.4,7.6,7,15.2,11.1,22.5c-5.8-20.4-17.1-38.7-22.9-60c1.7,0.3,2.6,0.2,2.8,0.6
				c4.9,7.4,10.7,14.4,14.3,22.4c4.4,9.9,6.6,20.8,10.5,31C334.9,613.1,334.6,617.2,327,624L327,624z M338.7,554.3
				c-2.3,3.8-4.9,4.7-8.6,2.1c-1.1-0.8-2.3-1.4-3.3-2.3c-13.1-11.7-29-17-45.8-21c-11.6-2.8-23-6.7-34.3-10.5
				c-3.9-1.3-7.6-3.5-10.9-6c-8.1-6.3-15.8-13.1-23.7-19.6c0.4-0.6,0.9-1.2,1.4-1.8c12.4,6.4,24.8,12.8,37.3,19.2
				c-5.7-5.6-13.3-8.9-17.8-15.5c0.4-0.7,0.8-1.4,1.2-2.1c6.3,2.9,12.6,5.7,18.9,8.6c0.2-0.3,0.5-0.6,0.7-0.8c-3.2-2.5-6.3-5-10-7.9
				c7.7-3.2,11.9,2.9,18.5,5.8c-2.2-3-3.7-4.9-5.1-6.9c6.9-5.5,19-6.6,26-2.1c10.4,6.6,21.5,11.2,33.4,14.1c2.4,0.6,4.9,0.6,8.8,1
				c-2.5-1.5-3.8-2.3-5.7-3.4c1.2-2.6,2.4-5.2,3.9-8.6c3,4.5,5.4,8.3,8,12.2c-3.4,5.4-8.1,9.5-15,9.1c-3.8-0.2-7.6-1.8-11.3-3.2
				c-6.6-2.5-13.1-5.4-19.7-8.1c-0.3,0.4-0.5,0.7-0.8,1.1c1.2,1.1,2.4,2.5,3.8,3.4c11.6,7.8,23.1,15.5,34.8,23.2
				c4.9,3.2,10,6,14.8,9.2C342.4,546.1,342.3,548.4,338.7,554.3L338.7,554.3z M344.2,504.2c-0.9,0.2-1.8,0.3-2.7,0.5
				c-3.9-10.2-7.9-20.4-11.8-30.6c0.7-0.2,1.4-0.5,2.1-0.7c4.1,7.9,8.5,15.6,12.3,23.7C345,499.1,344.2,501.8,344.2,504.2
				L344.2,504.2z M352,463.4c-3.9,3.4-7.5,7.6-14.8,8.2c4.6-17.4-0.4-34.5,2.4-51.3c0.8,0.1,1.6,0.1,2.5,0.2v17.4
				c0.6,0.1,1.3,0.2,1.9,0.3c3.3-9.1,2.7-19.1,5.8-28.2c0.7,15.7,1.4,31.4-2.9,47.1c0.8-1.4,1.8-2.8,2.5-4.2c0.8-1.5,1.3-3,2-4.6
				C356.8,453,357.1,459,352,463.4L352,463.4z M417.9,413.7c-1.2,2.2-3.2,3.3-5.8,1.6c-4.6-3-9.5-5.6-13.9-8.9
				c-8.5-6.5-16.8-13.1-24.9-20.1c-14.4-12.5-22.3-28.7-25.2-48.8c3.8,1,6.9,1.7,10,2.5l0.6-0.8c-1.4-1.4-2.6-3.3-4.3-4.2
				c-8.8-4.6-14.7-12-19.2-20.5c-8.2-15.4-14.4-31.5-16.9-48.9c-0.3-2-0.5-4-0.6-6c-0.1-4.7,0.3-5.1,4.8-5.9
				c-3.3-9.2-6.1-10.6-16.6-8.2c-0.4-1.1-1.2-2.3-1.1-3.5c0.5-12.1,0.5-24.3,2.1-36.3c1.4-10.3,7.3-13,17-9.4
				c10.6,3.9,17.6,11.7,20.5,22.3c2.4,8.9,3.8,18.3,4.2,27.5c0.5,9.9,1.9,19.4,5.1,28.8c4.2,12.4,8,25,11.6,37.7
				c1.7,6,4.4,11.1,9.3,15c10.3,8.1,17.2,18.7,22.4,30.8c5,11.7,11,23.1,16.5,34.6c0.4,0.9,0.9,1.9,0.8,2.8c-0.7,5,0.6,9.1,4.1,12.8
				C419.5,409.5,418.8,412.3,417.9,413.7L417.9,413.7z M424.5,201.1c-0.9-0.7-2.4-1.6-3.4-3.5c-0.8-1.5-0.8-2.7-1-4.6
				c-0.1-1.8-0.4-4.5-0.7-8.2c-1.2,1.1-2,2.2-2.5,3.2c-3.9,6.8-0.7,14.8,0,16.3c-7-7-8.6-16.7-3.9-26.1c0.4-0.7,0.7-1.7,1.3-2.1
				c8-4.8,7.1-13.1,8.4-20.5c0.2-0.9,0.3-1.9,0.5-3.2c7.3,4.3,3.2,11.3,4.6,17.2c2.2-1.4,7.6-5.4,10.2-11.1c1.1-2.5,1.1-4.2,1.1-4.9
				c-0.1-2.3-1-3.9-2.2-6.1c-3.2-5.8-4.9-8.6-5.1-9.1c-0.9-2.4-1.5-6.1,0.4-11.6c-1,1.6-2.6,4.2-3.9,7.5c-1.9,4.8-1.8,7.2-3.1,7.5
				c-1.9,0.4-5.2-4-5.7-8.6c-0.3-2.7,0.4-4.9,1.4-7.2c3.6-8.4,9.3-13.8,9.9-14.4c12.5-11.7,28.6-16,28.9-15.2c0.1,0.2-1.1,0.7-3,2.2
				c-9.2,7.1-11.4,18.4-11.9,21.2c-1.1,5.9-0.5,9.9-0.2,9.9c0.5,0.1,0.5-9,5.6-11.7c1-0.5,1.9-0.7,2.5-0.7
				c-2.5,2.7-5.5,6.6-5.8,11.7c-0.4,7.7,5.3,13.6,10.6,19.5c8,8.7,12.3,19.3,16.6,30.9c0.6-2.1,1.1-3.5,1.5-4.9
				c7.1,10,8.1,22.3,2.6,30.7c-5.1,7.6-14.3,9.9-16.3,10.4c-2.3,0.6-7.3,1.7-13.2,0c-3.3-0.9-5.7-2.4-7.3-3.5
				c-0.5,0.9-1,2.2-1.4,3.9c-0.3,1.6-0.2,3-0.1,4c-4.4-1.5-6.8-3.7-8.2-5.4C427.7,209.6,429.1,204.7,424.5,201.1L424.5,201.1z
				 M433.1,555.4V441.6l1.9-0.1C434.2,486.9,433.5,532.2,433.1,555.4L433.1,555.4z M443.6,493.8c-1,53.8-2.8,107.6-3.9,161.4
				c-0.5,23.8-0.1,47.6-0.8,71.5c-1.1-96.2,0.5-192.3,2.8-288.5C447.2,456.6,443.9,475.2,443.6,493.8L443.6,493.8z M452.8,421.8
				c-2.6-0.1-6.5-1.3-6.9-3.5c0-0.1-0.2-1.1,0.5-1.8c1.1-1.3,3-0.1,7.4-0.2c2.3,0,4.7-0.4,6.4-0.6c2.6-0.4,3.1-0.6,3.3-0.4
				C463.9,416.2,458.9,422,452.8,421.8L452.8,421.8z M465.9,409.1c-3.2,4.6-9.2,4.7-21.2,5c-0.6,0-2,0-3.1-0.9c-0.8-0.7-1.4-2-1.1-3
				c0.4-1.5,2.6-1.9,6.7-3c9.7-2.5,14.6-3.7,15.4-4c2.5-0.8,4-1.4,4.7-0.6C468.4,403.6,467.5,406.9,465.9,409.1L465.9,409.1z
				 M468.1,396.3c-0.7,1.2-1.8,1.7-2.3,2c-7.3,3.7-14.4,5.4-19.3,6.6c-2.8,0.7-4.9,1.1-6.3-0.1c-1.1-0.9-1.5-2.6-1.1-3.9
				c0.6-1.8,2.7-2.5,5.3-3.5c4.6-1.8,10.8-5,16.4-8c2.6-1.4,5.1-3.5,7,0.3C468.9,391.9,469.2,394.4,468.1,396.3L468.1,396.3z
				 M462.8,373.6c2,0.4,4.2,3,5,5.1c0.4,1-1.8,4-3.5,4.7c-6,2.8-12.2,5.1-18.5,7.5c-1.8,0.7-3.4,0.9-4.9,0.4
				c-0.2-0.1-2.5-0.9-3.2-2.9c-0.8-2.3,0.9-4.6,0.6-4.8c-0.4-0.2-1.5,2.9-4.3,4.1c-2.4,1-3.6-0.4-6.3,0.6c-2.9,1.1-3.6,3.5-4.1,3.2
				c-1.2-0.6,0.6-13.1,7.1-15.2c2.1-0.7,4.8-1.1,8.3,0.5c6.2,2.7,10.6,1.1,15.7-1.5C457.2,374.1,460.4,373.1,462.8,373.6
				L462.8,373.6z M445.5,335c-0.1,5-0.4,10-0.7,15c-0.3,4-0.6,7.9-1,11.9v-41c0.6,0,1.1,0,1.7,0C445.5,325.5,445.6,330.2,445.5,335
				L445.5,335z M446.9,323.6c0.1-1.7,1.5-3.3,2.3-4.9c0.9,1.7,2.7,3.4,2.7,5c-0.3,14.8-0.8,29.6-1.5,44.4c-0.1,2.1-1.5,4.1-2.4,6.2
				c-0.8-0.2-1.5-0.4-2.3-0.6c-0.1-2.8-0.4-5.5-0.3-8.3C445.8,351.5,446.2,337.6,446.9,323.6L446.9,323.6z M441.6,313
				c4.2-3.5,11-3.2,17,1.3C452.1,313.8,447,313.4,441.6,313z M443.2,300.5c0-0.5,0-1.1,0-1.6c4.3,0,8.5-0.1,12.8,0.2
				c0.5,0,0.7,3,1.1,4.9C452,302.6,447.6,301.5,443.2,300.5L443.2,300.5z M459.8,294.6c-6.8-1-13.7-1.9-20.9-3
				c6.6-4.7,16.9-3.9,21.2,1.3C460,293.6,459.9,294.1,459.8,294.6z M450,283.3c-0.1-5,0.4-10.1,0.7-15.8c2.9,0.5,5,0.8,7.8,1.3
				c-0.9,5.3-1.6,10.3-2.7,15.2c-0.2,0.9-2,2.2-2.6,2C451.9,285.6,450,284.3,450,283.3L450,283.3z M461.6,284.7
				c-0.2,1.1-1.6,1.9-2.4,2.9c-0.7-1.1-1.3-2.1-1.8-2.9c1-5,1.8-9.4,2.8-13.7c0.2-0.8,1.4-1.4,2.1-2.1c0.5,0.9,1.4,1.8,1.4,2.6
				C463.1,275.9,462.5,280.3,461.6,284.7L461.6,284.7z M444,262.3c6-3.1,18.3-1.8,23.4,3.1C459.3,264.4,451.4,263.3,444,262.3z
				 M472.3,254.9c-0.4,1.3-2.3,3.2-3.1,3c-7.1-1.5-15.1,0.1-21.3-6.4c7.9-3.7,15.2-1.1,22.4,0.1
				C471.2,251.9,472.6,254.1,472.3,254.9L472.3,254.9z M454.4,248.6c0-0.4,0.1-0.9,0.1-1.4c5.6-1.7,11.2-2.7,16.6,1.4H454.4z
				 M421.6,234.1c19-5.1,38.5-5.9,58.3,2.1C459.7,235.5,440.4,234.8,421.6,234.1z"/>
			<path d="M240.9,355c6,0.1,11.9,0.2,17.9,0.2C252.8,355.1,246.8,355,240.9,355z"/>
			<path d="M251.2,202.3c0.1,0.5,4.1,0.3,7.6-0.3c3.7-0.6,5.5-1.4,11-3.1c8.6-2.8,12.6-3.6,12.5-4.3c-0.1-0.5-3-0.5-3.7-0.5
				c-6.5,0.1-10,2.4-17.8,5.1C254.8,201.3,251.2,201.8,251.2,202.3L251.2,202.3z"/>
			<path d="M241,80.4c1.3,3.9,3.2,6.5,4.5,8c1.7,1.9,4.8,5.5,9.9,6.4c1.2,0.2,4.6,0.8,8.2-0.8c2.1-1,3.6-2.4,4.3-3.3
				c0.5-0.1,1.2-0.2,1.8,0.2c0.9,0.5,1,1.6,1.2,1.6c0.4,0.1,1.3-2.4,3.2-13C265.8,72.8,254.6,73,241,80.4L241,80.4z M263,80.3
				c-0.1,0.3-5.1-2.5-9.9-0.4c-1.7,0.7-3.7,2.2-6.8,2.1c-0.5,0-1.5-0.1-1.6-0.4c-0.1-0.7,3.8-2.5,7.6-3.1
				C258.1,77.7,263.1,80,263,80.3L263,80.3z"/>
			<path d="M178.5,209.8c-3.5,17.9-6.5,38.5-1.9,56.7C177.2,248.5,177.9,227.8,178.5,209.8L178.5,209.8z"/>
		</g>
		<path d="M271.3,131.5c-0.1-0.5,2.7-2.2,5.3-1.5c1.2,0.3,2.3,1,2.2,1.4c-0.1,0.3-0.8,0.2-2.9,0.2
			C271.9,131.6,271.3,131.7,271.3,131.5L271.3,131.5z"/>
		<path class="st0" d="M295.5,85.9c-0.1-0.3-0.4-0.9-1.3-1.5c-2.1-1.3-4.8-1-4.8-0.7c0,0.2,1.9,0,3.6,1.3c1.5,1.2,1.9,2.9,2.3,2.7
			C295.6,87.6,295.8,86.6,295.5,85.9L295.5,85.9z"/>
	</g>
</g>
</svg>
