<?xml version="1.0" encoding="UTF-8"?>
<svg id="Layer_1" data-name="Layer 1" xmlns="http://www.w3.org/2000/svg" viewBox="0 0 498.19 920.9">
  <defs>
    <style>
      .cls-1 {
        fill: #000;
      }

      .cls-1, .cls-2 {
        stroke-width: 0px;
      }

      .cls-2 {
        fill: #fff;
      }
    </style>
  </defs>
  <path class="cls-2" d="M494.53,524.03c-1.7-6.2-4.9-15.1-10.8-25.2,6.2-2.1,7.3-3.6,7.3-4.5-.1-1.5-3.1-2.1-13-6.2-5.5-2.2-6.5-2.8-7.4-3.5-4-2.9-6.4-6.5-7.7-9.2-.1-6.2-1.1-18.4-8.6-30.5-1.6-2.6-4-10.4-11.8-13.7-13.7-5.8-21.4-16.4-25.7-30.1-1-3-2.2-5.9-3.3-8.9-10.3-27.8-14.7-57.5-28.1-84.3-2.1-4.2-1.2-9.9-1.7-15.5,5.2,4.1,8.8,8.2,13.4,10.5,4.6,2.3,10.1,2.9,15.3,4.2-1.5,3.6-6.1,7.1-13.8,10.2,2.9,4.9,7.3,6.8,12.5,4.9,8.7-3,14.1-9.3,16.3-18.1,1.5-6-.8-10.4-6.7-12.6-8-3.1-12.2-8.3-11.5-17.1.1-1.1-.1-2.3-.2-3.5-.4-6.4-3.5-10.6-9.8-12.2-3.1-.8-6.2-1.9-10.1-3.1,4.5-1.1,7.9-1.9,11.2-2.8,6.1-1.8,9.8-.5,13.2,4.9,1.4,2.2,2.4,4.8,3.4,7.2,6.3,15.6,23.1,21.8,37.8,13.5,6.4-3.6,10.4-9.3,10.5-17,.1-7.5-4.1-12-10.5-14.9-1.4-.6-2.7-1.3-4-2-6-3-7.5-7-4.8-13.1,1.3-2.8,3.3-5.4,5.1-7.9,2.7-4,5.8-7.7,8.2-11.9,4.5-8.1,4.8-16.3-1-23.9-4.6-6-14-8.2-23-4.6-6.1,2.4-11.8,6.1-17.2,9.9-10.7,7.7-13.1,7-15.8-5.9-1.6-7.6-4.8-9.8-6-11.3-1.9-2.4-3.8-4-4.6-4.6-3.8-3.1-7.6-4.6-10-5.3,1.5-1.6,4.2-3.8,8-4.9,2.5-.7,5.6-1.7,8.8-.1,3.6,1.8,4.6,5.6,4.7,5.8.1.4,1,4-1.2,7.1-.6.9-1.2,1.4-1.7,1.8,6.8,8.4,16.5,8.6,23.4.5,6.5-7.6,7-22,1-29.9-4.2-5.5-9.7-8.8-16.8-8-4.1.5-8.1,1.8-12,3-4.4,1.4-8.7,3.6-13.2,4.5-5.9,1.1-7.9-1.8-6.1-7.4,3.8-11.6-3.9-22.2-16.1-22.2-3.5,0-7,.7-10.5.8-1.4.1-3.2-.1-4-.9-4.2-4.4-7.2-9.1-6-16,1-5.3-.3-8.3-2-11.1-3-4.9-8.9-6.3-10.8-6.7-2.5-.6-4.6-.6-5.9-.5-.7-3.2-1.4-6.5-2.2-9.8-1.2-5.2-2.4-10.3-3.6-15.3,5.3-.8,10.1-2.5,14.6-4.8,5.5-2.7,9.9-5.5,13.1-8-.7-.5-1.7-1-2.8-1.4-3-1.1-5.6-.8-7-.5.4-.1,3.8-1,5.3-4.4,1.3-2.8.4-5.4.2-5.9-2.9.1-5.9.3-9,.6-6.5.6-12.6,1.6-18.1,2.8-.8-4.4,3.9-4.9,6.3-7.2.2-.2.6-.6,1-1.1,1.9-2.6,2-5.7,1.7-7.9-3.1-.5-5.6-.2-7.6.4-5.5,1.7-8.3,6.2-11.1,5.1-.8-.3-1.3-.9-1.9-2-4.9-9.3-12.9-15.4-22.7-18.5-27.5-8.6-43.6-2.2-56.9,14-1.2,1.4-2.1,3-3.3,4.4-1.3,1.4-2.3,2.3-3,2-1.4-.5-.3-4.2-2.2-9.2-.2-.5-.5-1.2-.6-2.3-.3-1.8.1-3.4.5-4.5-1.3.2-3.5.8-5.6,2.6-2.9,2.4-4,5.4-4.2,7.1-.4,4.7.4,9.5.8,14.2.2,2.7.8,5.3,1.4,8.7-9.1-1.8-17.5-2.2-24.8,1.4-4.2,2.1-7.1,5-8.9,7.2,1.7.8,3.9,1.6,6.6,2,6.5,1,11.7-.8,14.3-2-2,1.2-4.6,3-7.2,5.7-1.5,1.7-2.7,3.3-3.6,4.7,1.1.5,4.1,1.6,7.9.7,2.9-.6,4.8-2.1,5.7-2.9.6,3.4,2.6,5.3,5.2,6.9,3.9,2.4,7,4.3,9,4.9-.9.8-2.1,1.8-3.7,2.7-2.8,1.5-5.5,2-7.2,2.2,1.2,3.3,3.6,8.6,8.5,13.7,3.9,4,7.8,6.5,10.6,7.9-2.7,7.7-2.6,15.8,6.8,20.7-3.1,5.8-7.4,11.2-8.5,17.1-1.1,5.9,1.2,12.5,2,19.4-2.7.4-5.7.9-8.8,1.3-23.2,2.5-37.1,14-41.5,36.6-2,10.1-1.8,20.8-1.9,31.2-.1,9.8,1.9,19.7.8,29.3-1.9,17.7-5.2,35.3-8.5,52.8-.8,4.4-2.9,9-5.7,12.4-9,10.6-15.9,22.2-20.5,35.2-8.2,23.1-17.4,45.8-29.6,67.1-8.5,14.9-15,19.1-20.1,20.7-1.3.4-3.4.9-5.6,2.7-1.7,1.4-5.5,5.2-6.1,17.5-.7,15.3,4.7,19.2.9,25.2-2.2,3.5-3.9,2-11.4,9.2-3.8,3.6-6.2,6.8-8,9.6-2.8,4.4-4.8,7.6-4.4,11.7.3,3.2,1.8,5.6,2.9,7,1.6-.4,3.7-1.1,5.7-2.5,3.1-2.2,4.7-4.8,4.9-4.7.6.5-9.1,12.6-10.3,25.2-.2,2.3,0,4.9,1.4,6.3.3.3,1.5.9,6-.5,2.1-.6,5-1.7,8.2-3.7-.2,3.7-.1,9.4,1.9,15.8,1.2,3.8,2.9,6.9,4.3,9.3.5,0,1.3-.2,2.1-.6.8-.4,1.3-.9,1.9-1.5.4-.4,1-1.1,1.6-1.9-.1,1.5-.3,6.5,3,11,1.8,2.4,3.8,3.8,5.2,4.5,1.2-1.1,1.7-2.2,2-2.9.4-1.3.2-2.1.7-3.8.3-1,.6-1.7.9-2.2.3,1,.9,2.8,1.8,5,.3.7,6,13.9,15.8,21,3.8,2.8,6.4,1.5,7.7-2.9,2.5-8.4,1.2-16.6-1.6-24.2.8.6,2.3,1.7,4.7,2.2,2.5.5,4.5,0,5.4-.4-.4-2.2-2.7-5.9-.9-9.7,3.8-8.1,3.2-16.1.9-24.2-1-3.6-2.4-7.1-4.1-11.8,3.9.3,7.2.5,10.7.8,1.2-9,.3-17.4-3.8-25.4-4-7.9-10.1-13.8-18.3-17.9,6.3-7.1,8.1-15.3,9.8-23.7,1-4.9,2.9-9.9,5.8-14,10.7-15.3,22-30.1,33.1-45.2,1.2-1.7,2.6-3.2,4.3-5.3.6,3.3.8,5.8,1.5,8.1,1.4,4.4,1,8.2-1.6,12.3-1.6,2.5-2.5,6.2-2,9,1,5.4-.3,9.7-3.4,14-3.4,4.8-4.5,9.9-.9,15.4.8,1.1.6,3.1.3,4.6-1.2,7.9-2.7,15.8-3.8,23.7-.2,1.9.2,4.2,1.1,5.8,3.6,6,1.9,11.4-1.8,16.2-5.9,7.8-8.1,16.7-9,26.1-.4,3.8-.6,7.7-1.5,11.4-7.6,31.2-14.7,62.6-23.2,93.5-10,36.4-26.1,69.9-51.6,98.3-13.8,15.4-28.8,29.2-49.9,34.2-12,2.8-14.5,7.5-12,19.6.4,2,1.1,3.9,1.3,5.8.1,1.6.2,3.5-.6,4.7-5.6,9-3.3,17.3,2.2,25.2,6,8.5,14.8,13.2,24.2,17,2.4,1,4.8,1.8,7.3,2.8-3,6.8-2.6,8.4,3.8,11.2,3.1,1.4,6.7,1.8,9.9,3.1,1.5.6,3.6,2.2,3.8,3.5,1.4,10.9,8.4,17,17.5,21.4,12.3,5.8,25.2,5.1,38.3,3.7,2.2-.2,5.2-.4,6.6.8,7.8,6.9,17.2,9,27.1,10.5,1.7.3,4.1,2.3,4.5,4,1.6,5.8,5.4,9,10.6,11.1,7.6,3.1,15.1,2.2,22.2-1.4,6.1-3.2,11.9-2.7,17.5.7,9.8,5.9,20,5.9,30.3,2.2,4.4-1.6,8.3-2,12.6-.5,8.7,3,17.5,3.7,26.6,2.5,2.5-.3,5.5-.1,7.8.9,13.3,5.6,27.1,5.6,40.8,3.4,18.5-3,32.5-12.2,38.7-31,.6-1.9,3.2-3.6,5.2-4.5,6.4-2.7,11.5-6.8,14-13.4,3.6-9.4-1.9-17.8-11.9-18.2-2.6-.1-5.3.2-8,.2-1.1,0-2.8.2-3.3-.4-4.4-5.1-11-9.9-12.4-15.8-2.2-9.5-6.1-18.2-9.5-27.2-3.4-8.9-3.9-18.1,1.6-26.8,6.7-10.8,9.1-22.3,6.6-35-1.5-7.7-2.1-15.5-2.9-23.3-.7-7.6,1.1-14.2,6.1-20.4,7.7-9.6,14.9-19.6,21.8-29.9,2.8-4.2,5-9.1,6.2-14,2.1-8.4,4.2-17,4.4-25.5.7-23.3.4-46.6.6-69.9,0-2.7-.6-6.5.9-8,6.3-6.7,7.2-14.8,7.5-23.2.6-17.8-1.8-36.3,1.5-45.5.4-1.1,1.5-4.1,4.3-5.8,1.2-.7,2.1-.9,3.9-1.3,4.2-.8,8.9-1.8,10.3.3,1.1,1.7-1,3.8.3,5.4,1,1.2,3,1.6,6,1.2,1.1-.1,2.2-.4,3.3-.6-.7,2.7-2.4,4.5-3.7,6.5-2.2,3.2-4.3,6.5-6,10-.4.8.3,2.5,1,3.4.5.6,1.6,0,3-.6,1.5-.6,2.6-1.4,3.3-1.9-1.2,2.6-3.3,6.5-7.2,10.3-5.5,5.3-11.5,7.3-14.5,8.1.6.9,2,2.7,4.4,4,2.5,1.3,4.8,1.5,5.9,1.5-9.1,13.7-10.2,27.8-11.7,42-.8-1.2-1.7-2.4-2.6-3.6-1.2-1.6-2.5-3-3.7-4.4-.1,5.4.6,13.5,3.1,23,3.1,12.1,9,22.8,19.3,30.7,20.9,16.2,42.5,14.7,64.6,3.1,3.8-2,7.1-4.7,11.8-7.9-4.2-1.1-6.8-1.8-10.2-2.7,2.1-1.2,3.9-1.8,5.2-2.9,0,0,7.4-4.7,13.2-11.8,8.1-10.9,15.7-39.1,7.3-69.7Z"/>
  <g>
    <g>
      <path class="cls-1" d="M494.53,524.03c-1.7-6.2-4.9-15.1-10.8-25.2,6.2-2.1,7.3-3.6,7.3-4.5-.1-1.5-3.1-2.1-13-6.2-5.5-2.2-6.5-2.8-7.4-3.5-4-2.9-6.4-6.5-7.7-9.2-.1-6.2-1.1-18.4-8.6-30.5-1.6-2.6-4-10.4-11.8-13.7-13.7-5.8-21.4-16.4-25.7-30.1-1-3-2.2-5.9-3.3-8.9-10.3-27.8-14.7-57.5-28.1-84.3-2.1-4.2-1.2-9.9-1.7-15.5,5.2,4.1,8.8,8.2,13.4,10.5,4.6,2.3,10.1,2.9,15.3,4.2-1.5,3.6-6.1,7.1-13.8,10.2,2.9,4.9,7.3,6.8,12.5,4.9,8.7-3,14.1-9.3,16.3-18.1,1.5-6-.8-10.4-6.7-12.6-8-3.1-12.2-8.3-11.5-17.1.1-1.1-.1-2.3-.2-3.5-.4-6.4-3.5-10.6-9.8-12.2-3.1-.8-6.2-1.9-10.1-3.1,4.5-1.1,7.9-1.9,11.2-2.8,6.1-1.8,9.8-.5,13.2,4.9,1.4,2.2,2.4,4.8,3.4,7.2,6.3,15.6,23.1,21.8,37.8,13.5,6.4-3.6,10.4-9.3,10.5-17,.1-7.5-4.1-12-10.5-14.9-1.4-.6-2.7-1.3-4-2-6-3-7.5-7-4.8-13.1,1.3-2.8,3.3-5.4,5.1-7.9,2.7-4,5.8-7.7,8.2-11.9,4.5-8.1,4.8-16.3-1-23.9-4.6-6-14-8.2-23-4.6-6.1,2.4-11.8,6.1-17.2,9.9-10.7,7.7-13.1,7-15.8-5.9-1.6-7.6-4.8-9.8-6-11.3-1.9-2.4-3.8-4-4.6-4.6-3.8-3.1-7.6-4.6-10-5.3,1.5-1.6,4.2-3.8,8-4.9,2.5-.7,5.6-1.7,8.8-.1,3.6,1.8,4.6,5.6,4.7,5.8.1.4,1,4-1.2,7.1-.6.9-1.2,1.4-1.7,1.8,6.8,8.4,16.5,8.6,23.4.5,6.5-7.6,7-22,1-29.9-4.2-5.5-9.7-8.8-16.8-8-4.1.5-8.1,1.8-12,3-4.4,1.4-8.7,3.6-13.2,4.5-5.9,1.1-7.9-1.8-6.1-7.4,3.8-11.6-3.9-22.2-16.1-22.2-3.5,0-7,.7-10.5.8-1.4.1-3.2-.1-4-.9-4.2-4.4-7.2-9.1-6-16,1-5.3-.3-8.3-2-11.1-3-4.9-8.9-6.3-10.8-6.7-2.5-.6-4.6-.6-5.9-.5-.7-3.2-1.4-6.5-2.2-9.8-1.2-5.2-2.4-10.3-3.6-15.3,5.3-.8,10.1-2.5,14.6-4.8,5.5-2.7,9.9-5.5,13.1-8-.7-.5-1.7-1-2.8-1.4-3-1.1-5.6-.8-7-.5.4-.1,3.8-1,5.3-4.4,1.3-2.8.4-5.4.2-5.9-2.9.1-5.9.3-9,.6-6.5.6-12.6,1.6-18.1,2.8-.8-4.4,3.9-4.9,6.3-7.2.2-.2.6-.6,1-1.1,1.9-2.6,2-5.7,1.7-7.9-3.1-.5-5.6-.2-7.6.4-5.5,1.7-8.3,6.2-11.1,5.1-.8-.3-1.3-.9-1.9-2-4.9-9.3-12.9-15.4-22.7-18.5-27.5-8.6-43.6-2.2-56.9,14-1.2,1.4-2.1,3-3.3,4.4-1.3,1.4-2.3,2.3-3,2-1.4-.5-.3-4.2-2.2-9.2-.2-.5-.5-1.2-.6-2.3-.3-1.8.1-3.4.5-4.5-1.3.2-3.5.8-5.6,2.6-2.9,2.4-4,5.4-4.2,7.1-.4,4.7.4,9.5.8,14.2.2,2.7.8,5.3,1.4,8.7-9.1-1.8-17.5-2.2-24.8,1.4-4.2,2.1-7.1,5-8.9,7.2,1.7.8,3.9,1.6,6.6,2,6.5,1,11.7-.8,14.3-2-2,1.2-4.6,3-7.2,5.7-1.5,1.7-2.7,3.3-3.6,4.7,1.1.5,4.1,1.6,7.9.7,2.9-.6,4.8-2.1,5.7-2.9.6,3.4,2.6,5.3,5.2,6.9,3.9,2.4,7,4.3,9,4.9-.9.8-2.1,1.8-3.7,2.7-2.8,1.5-5.5,2-7.2,2.2,1.2,3.3,3.6,8.6,8.5,13.7,3.9,4,7.8,6.5,10.6,7.9-2.7,7.7-2.6,15.8,6.8,20.7-3.1,5.8-7.4,11.2-8.5,17.1-1.1,5.9,1.2,12.5,2,19.4-2.7.4-5.7.9-8.8,1.3-23.2,2.5-37.1,14-41.5,36.6-2,10.1-1.8,20.8-1.9,31.2-.1,9.8,1.9,19.7.8,29.3-1.9,17.7-5.2,35.3-8.5,52.8-.8,4.4-2.9,9-5.7,12.4-9,10.6-15.9,22.2-20.5,35.2-8.2,23.1-17.4,45.8-29.6,67.1-8.5,14.9-15,19.1-20.1,20.7-1.3.4-3.4.9-5.6,2.7-1.7,1.4-5.5,5.2-6.1,17.5-.7,15.3,4.7,19.2.9,25.2-2.2,3.5-3.9,2-11.4,9.2-3.8,3.6-6.2,6.8-8,9.6-2.8,4.4-4.8,7.6-4.4,11.7.3,3.2,1.8,5.6,2.9,7,1.6-.4,3.7-1.1,5.7-2.5,3.1-2.2,4.7-4.8,4.9-4.7.6.5-9.1,12.6-10.3,25.2-.2,2.3,0,4.9,1.4,6.3.3.3,1.5.9,6-.5,2.1-.6,5-1.7,8.2-3.7-.2,3.7-.1,9.4,1.9,15.8,1.2,3.8,2.9,6.9,4.3,9.3.5,0,1.3-.2,2.1-.6.8-.4,1.3-.9,1.9-1.5.4-.4,1-1.1,1.6-1.9-.1,1.5-.3,6.5,3,11,1.8,2.4,3.8,3.8,5.2,4.5,1.2-1.1,1.7-2.2,2-2.9.4-1.3.2-2.1.7-3.8.3-1,.6-1.7.9-2.2.3,1,.9,2.8,1.8,5,.3.7,6,13.9,15.8,21,3.8,2.8,6.4,1.5,7.7-2.9,2.5-8.4,1.2-16.6-1.6-24.2.8.6,2.3,1.7,4.7,2.2,2.5.5,4.5,0,5.4-.4-.4-2.2-2.7-5.9-.9-9.7,3.8-8.1,3.2-16.1.9-24.2-1-3.6-2.4-7.1-4.1-11.8,3.9.3,7.2.5,10.7.8,1.2-9,.3-17.4-3.8-25.4-4-7.9-10.1-13.8-18.3-17.9,6.3-7.1,8.1-15.3,9.8-23.7,1-4.9,2.9-9.9,5.8-14,10.7-15.3,22-30.1,33.1-45.2,1.2-1.7,2.6-3.2,4.3-5.3.6,3.3.8,5.8,1.5,8.1,1.4,4.4,1,8.2-1.6,12.3-1.6,2.5-2.5,6.2-2,9,1,5.4-.3,9.7-3.4,14-3.4,4.8-4.5,9.9-.9,15.4.8,1.1.6,3.1.3,4.6-1.2,7.9-2.7,15.8-3.8,23.7-.2,1.9.2,4.2,1.1,5.8,3.6,6,1.9,11.4-1.8,16.2-5.9,7.8-8.1,16.7-9,26.1-.4,3.8-.6,7.7-1.5,11.4-7.6,31.2-14.7,62.6-23.2,93.5-10,36.4-26.1,69.9-51.6,98.3-13.8,15.4-28.8,29.2-49.9,34.2-12,2.8-14.5,7.5-12,19.6.4,2,1.1,3.9,1.3,5.8.1,1.6.2,3.5-.6,4.7-5.6,9-3.3,17.3,2.2,25.2,6,8.5,14.8,13.2,24.2,17,2.4,1,4.8,1.8,7.3,2.8-3,6.8-2.6,8.4,3.8,11.2,3.1,1.4,6.7,1.8,9.9,3.1,1.5.6,3.6,2.2,3.8,3.5,1.4,10.9,8.4,17,17.5,21.4,12.3,5.8,25.2,5.1,38.3,3.7,2.2-.2,5.2-.4,6.6.8,7.8,6.9,17.2,9,27.1,10.5,1.7.3,4.1,2.3,4.5,4,1.6,5.8,5.4,9,10.6,11.1,7.6,3.1,15.1,2.2,22.2-1.4,6.1-3.2,11.9-2.7,17.5.7,9.8,5.9,20,5.9,30.3,2.2,4.4-1.6,8.3-2,12.6-.5,8.7,3,17.5,3.7,26.6,2.5,2.5-.3,5.5-.1,7.8.9,13.3,5.6,27.1,5.6,40.8,3.4,18.5-3,32.5-12.2,38.7-31,.6-1.9,3.2-3.6,5.2-4.5,6.4-2.7,11.5-6.8,14-13.4,3.6-9.4-1.9-17.8-11.9-18.2-2.6-.1-5.3.2-8,.2-1.1,0-2.8.2-3.3-.4-4.4-5.1-11-9.9-12.4-15.8-2.2-9.5-6.1-18.2-9.5-27.2-3.4-8.9-3.9-18.1,1.6-26.8,6.7-10.8,9.1-22.3,6.6-35-1.5-7.7-2.1-15.5-2.9-23.3-.7-7.6,1.1-14.2,6.1-20.4,7.7-9.6,14.9-19.6,21.8-29.9,2.8-4.2,5-9.1,6.2-14,2.1-8.4,4.2-17,4.4-25.5.7-23.3.4-46.6.6-69.9,0-2.7-.6-6.5.9-8,6.3-6.7,7.2-14.8,7.5-23.2.6-17.8-1.8-36.3,1.5-45.5.4-1.1,1.5-4.1,4.3-5.8,1.2-.7,2.1-.9,3.9-1.3,4.2-.8,8.9-1.8,10.3.3,1.1,1.7-1,3.8.3,5.4,1,1.2,3,1.6,6,1.2,1.1-.1,2.2-.4,3.3-.6-.7,2.7-2.4,4.5-3.7,6.5-2.2,3.2-4.3,6.5-6,10-.4.8.3,2.5,1,3.4.5.6,1.6,0,3-.6,1.5-.6,2.6-1.4,3.3-1.9-1.2,2.6-3.3,6.5-7.2,10.3-5.5,5.3-11.5,7.3-14.5,8.1.6.9,2,2.7,4.4,4,2.5,1.3,4.8,1.5,5.9,1.5-9.1,13.7-10.2,27.8-11.7,42-.8-1.2-1.7-2.4-2.6-3.6-1.2-1.6-2.5-3-3.7-4.4-.1,5.4.6,13.5,3.1,23,3.1,12.1,9,22.8,19.3,30.7,20.9,16.2,42.5,14.7,64.6,3.1,3.8-2,7.1-4.7,11.8-7.9-4.2-1.1-6.8-1.8-10.2-2.7,2.1-1.2,3.9-1.8,5.2-2.9,0,0,7.4-4.7,13.2-11.8,8.1-10.9,15.7-39.1,7.3-69.7h0ZM419.63,154.43c-5.7-7.3-12.9-8.4-21.7-8.6,11.1-2.6,18.8.4,21.7,8.6ZM417.53,203.83c5.2-2.9,10.6-5.8,16.2-7.2,7.9-1.9,13.5,5.3,10.5,12.9-1.1-.7-2.3-1.3-3.3-2.1-6.9-5.2-14.1-6-22-2.2-2.5,1.2-5.2,2.2-7.9,3-4.9,1.3-8.9-.4-12-5.1,6.9,4.9,11.3,4.8,18.5.7h0ZM382.33,210.43c-1.3,16.1,7.8,22.2,22.1,15.8,2.7-1.2,5.1-3.2,7.8-4.4,3.9-1.8,7.8-3.9,12-4.7,2.5-.5,6.3.6,7.8,2.4,1.2,1.4.5,5.5-.7,7.6-3.2,5.6-3.3,11-.8,16.7,1.4,3.2,3,6.3,4.5,9.5,2.6,5.4,6.8,8.2,13,8.7,1.8.1,3.6,2.1,5.3,3.2-1.7,1.6-3.1,4.2-5,4.7-11.7,3.1-19.4-3.9-18.8-15.8.9-15.6-8.3-24.6-23-22.5-3.3.5-6.6,1-9.9,1-12.8,0-19.2-9.3-14.3-22.2h0ZM366.33,143.43c.4-2.4,1.6-4.8,1.6-7.2,0-3.9-.7-7.8-1.1-12.1.9,2.8,2.3,5.4,2.5,8.1.2,2.6-.7,5.2-1.2,7.8-1.1,5.6-1,6.2,2.6,10.5-3.7-1.1-5-3.6-4.4-7.1h0ZM347.43,128.33c5.8-.2,8,.4,9.6,1.9,2.5,2.4,2.3,6.2,2.2,7.8-1.3-1.9-3.4-4.4-6.6-5.3-3.1-.9-5.3.2-8.9.4-2.9.2-7-.2-12.2-2.9,6.5-1.4,12-1.8,15.9-1.9h0ZM328.13,110.13c-.9-11.2-1.4-11.9-10.1-14.8,8.9,0,11.1,3,10.1,14.8ZM309.43,77.23c1.2,8.3,6.4,9.9,12.6,10.1-10.8.4-13.7-1.6-12.6-10.1ZM292.43,202.03c1.4-1.1,2.7-2.2,4.1-3.3-.6-1.1-1.2-2.2-1.8-3.3.7-.5,1.3-1,2-1.4,1.1,1.6,2.2,3.2,3.3,4.9l-9,6.6c-.8-2.4-1.7-4.7-2.5-7.1-4,2.2-14.2,7.3-27.7,6.2-9.2-.8-16.1-4.1-19.9-6.3,4.7,2.1,11.5,4.5,20,4.7,21.7.5,36.6-13.4,40-16.8-3.4,3.7-6.9,7.4-10.3,11.1.6,1.4,1.2,3,1.8,4.7h0ZM278.83,208.73c1.9-.7,3.9-1.4,5.8-2.1-.6-1.5-1.2-3.1-1.8-4.6.7-.2,1.4-.4,2.1-.7.9,2,1.8,3.9,2.8,5.9-3.1,1.1-6.2,2.1-9.4,3.2-.8-2-1.5-4-2.2-6.1,1.8-.4,3.6-.7,5.4-1.1.4.6.7,1.1,1,1.7-1.6.4-3.2.7-4.7,1.1.3.9.7,1.8,1,2.7h0ZM267.43,212.73c-1,0-1.9,0-2.9-.1-.1-1.9-.3-3.9-.4-5.8,3.2-.4,6.3-.8,9.5-1.2.5,1.9,1,3.8,1.5,5.8-.9.2-1.9.4-2.8.6-.2-1.6-.4-3.1-.6-4.7-1.5.4-3.1.8-4.6,1.1,0,1.4.1,2.9.3,4.3h0ZM300.63,180.33c-4.1,5.7-10.2,5.8-15.4,8.3-11.7,5.7-23.9,4.2-36.2,1.6-8.5-1.8-11.3-8.6-15.7-14.2,16.7,19.7,50.7,18.4,65.7.1,5.7-7,9.6-15.4,14.5-23,.9-1.4,2.3-2.3,4.3-2.8-4.4,11-10.5,20.6-17.2,30h0ZM310.23,108.43c6.2,3,5.3,9.8,6.9,15.2-2.3-5-4.6-10.1-6.9-15.2ZM303.83,148.43c2.4.3,4.8,1,7.2,1.5-1,8.5-5.5,13.4-13.4,15.5-5,1.3-10,2.9-14.7,5.4,7.4-2.2,14.8-4.3,21.9-6.4-2.9,9.2-17.1,20.6-29,22.9-20.5,3.9-37.4-2.9-44.5-19.8-6.3-14.8-8.5-11.5,6.3-18,6.9-3,9.3-7.5,9-14.2-.1-4.5-.5-8.9-.8-14.5,4.4,3.9,7.9,7.2,11.5,10.4,5.2,4.5,7.3,4.6,11.6-.7,4-5,7.3-10.7,10.8-16.2,1.9-3.1,3.6-6.3,6.1-10.7.7,5.5,1.2,9.8,1.9,14,1,5.9,2,11.8,3.2,17.7,1.2,7.4,5.1,12.2,12.9,13.1h0ZM227.93,72.53c1.4.9,2.6,1.6,2.9,1.7,3.4,1.8,11.3-2,13.4-3.1,1.5,4.7,1.5,8.3,1.3,10.7-.2,2.1-.9,5.4.9,8.3.4.6.8,1.1,1.1,1.4v-16.1c0-1.7.2-3.3.1-5-.7-7.8-4.4-10.7-12-8.9-3.5.8-6.9,2.1-10.4,3.1-.6-7.8,5.3-18.3,12.5-19.7,7.9-1.5,16.1-1.9,24.2-1.6,8.4.4,13.1,6.3,16.2,14.6-2.5-.2-4.7-.5-6.9-.5-3.8,0-7.7-.1-11.4.5-3.1.5-5.4,1.7-4.7,6.4,0,0,1.6,11.8.3,22.2-.2,1.3-.5,3.2-1.9,4.4-1.6,1.4-3.8,1.3-4.8,1.2.2.5.8,1.8,2.2,2.5,2.3,1.2,4.7-.3,5.1-.5,2.8-1.7,3.1-5.1,3.2-5.6.1-.9.6-1.3-.9-5.2-.5-1.2-.5-2.6-.7-3.9-.5-4-.9-6.7.5-8.8.4-.6,1.2-1.5,2.7-2.3,1.1.8,3.1,1.9,5.8,2.3.8.1,2,.3,3.5.1,2.8-.3,5-1.7,7.4-3.4,1.8-1.3,5.5-2.8,6.2-2.1,2.3,2.4,5.1,5.7,5,8.6-.8,16.3-6.7,30.4-20.2,40.5-7.8,5.9-14.6,5.7-22.2-.4-5.6-4.6-10.2-9.8-13.6-15.6-1.8-3.1-5.1-9.5-6.8-18.3-.7-3.7-1-7-1-9.8.6.7,1.7,1.4,3,2.3h0ZM224.83,69.93v-2.5c.9-.8,2.3-1.9,4.1-2.7,4.9-2.2,9.8-1.3,9.8-.9s-5-.2-10.2,3c-1.6,1-2.8,2.1-3.7,3.1h0ZM294.83,51.13c3.2,1.4,4.5,0,6.1,1.4,2.1,1.9,2,6.4.5,7.1-1.3.7-2.9-1.8-8-5.4-6.1-4.3-11.8-6.4-11.5-7,.1-.2,1.2.2,3.6.2,1.5,0,1.7-.2,2.5-.2,2.8-.1,3.4,2.4,6.8,3.9h0ZM285.13,36.43c3.6,3.5,4.5,5,4.1,5.7-.7,1.2-5.4-.6-5.6,0s3.9,2,3.8,2.7c-.4,1.5-22.7-.6-23.5-5.7,0-.2-.1-.8.2-1.2,1.1-1.3,4.7.8,11.1,2,5.7,1.2,7.3.4,8.2-.3,1.1-1,1.5-2.3,1.7-3.2h0ZM281.13,37.33c0,.5-2.6,1.1-5.2.8-1.8-.2-5.2-1.2-5.3-2.7-.1-1,1.4-2.1,2.6-2.4,2.3-.6,4.3,1.2,4.4,1.3.7.6.7,1.1,1.8,1.9,1,.7,1.7.8,1.7,1.1h0ZM253.63,17.33c1-1.2,3.1-.6,9.7.7,5.4,1,7.8,1.4,7.8,2.1,0,.2-.3.5-1.7,1.1-2.4.9-5.4,2.1-9.8,1.5-2.4-.3-5.6-.8-6.3-2.8-.3-.8-.3-1.9.3-2.6h0ZM241.43,23.73c1.9,1.8,2.1,3.9,2.1,3.9.1.9,0,1.4-.6,3.7-1.3,5-1.3,5.4-1.9,5.9-1.6,1.1-4.6.6-5.3-.8-1.2-2.5,5.1-7.6,4.4-8.4-.4-.4-2,.5-3.2,1-2.8,1.4-4.1,2.9-5,2.5-.1,0-.3-.2-.6-1-.8-2-.6-3-1-3.8-1-2.1-5.2-1.4-5.2-2-.2-1.1,11.7-5.5,16.3-1h0ZM228.13,34.83c-.4-3.4-3.1-5.2-2.9-5.4.4-.4,9.6,5.4,8.5,9.2-.7,2.4-5.5,3.7-6.5,2.5-.9-1,1.3-3,.9-6.3h0ZM223.23,31.63c1-.1,1.8,1.7,2,2,1.7,3.6-.1,8.8-1.6,8.9-1.1,0-2.2-2.8-2.4-4.9-.3-2.7.8-5.9,2-6h0ZM210.43,52.93c-2.6-1.6-4.4-6.9-3.1-8.2.2-.2.5-.4.9-.3,1.5,0,1.6,3.2,3.7,4.4,2,1.2,5.3.1,5.6-1.1.4-1.6-4.3-2.8-4.5-5.9-.1-1.8,1.2-3.6,2.2-3.6,1.6.1,1.1,5.7,4.1,7.3,1.9,1,4.1-.3,7.7-1.8,11.4-4.9,15.1-2.7,18-6.8,1-1.4,1.2-4.2,1.6-9.9.4-5.4,1-14.7-2.4-16.1-.4-.2-.8-.2-1.1-.2-.9.4-.4,2.5-1.1,2.7-.4.1-.9-.3-.9-.4-1.5-1.6.1-7.5,3.1-8.2,1-.2,1.9.2,2,.3,2.5,1.3,2.5,6.3,2.2,16.1-.3,11.6-.4,14.3,1.5,15.5,2,1.3,5.6.4,8.6-.3,1.7-.4,2.7-.7,3.9-1.4,4.4-2.7,6.1-8.8,4.9-9.7-.8-.6-3.3,1.3-4.7,2.4-3.9,3.1-3.8,5.7-6.9,6.7-.5.2-2.8,1-4.5-.3-1.3-1-1.5-2.6-1.6-2.8,0-.3-.2-2.1.8-2.9.7-.5,1.7-.6,3.2-.2,2.6.7,3.5.9,4.7.4.8-.3,1.7-1.1,1.6-1.5-.4-1.3-8.5,1.2-10-1.5-.3-.5-.3-1.1-.1-1.6.7-1.3,3.7-.8,5.8-.5,4.1.5,9.5,1.1,13.9-.8,4.6-2,6.7-6.4,8.6-5.4.6.3.8,1,.8,1,.4,1.7-2.3,3.5-4.5,5.5-6,5.2-5,8-11.2,12.5-1.9,1.4-3.4,2.5-4.6,2.8-11.1,2-16.6,2-26.5,4.5-12.6,3.1-17.3,12-21.7,9.3h0ZM221.63,156.83c3.4,10.3,8.3,19.1,13.5,27.6-8-7.3-13.9-15.5-13.5-27.6ZM214.33,159.73c.5-.1,1.1-.2,1.6-.3.7,1.7,1.4,3.4,2.4,5.8-.1-2.3-.2-4-.4-5.7.2,0,.3,0,.5-.1,1,4.6,2.8,11.2,6.7,18.5,1.6,3,2.7,5.2,4.5,7.5,10.2,12.8,29.6,13.2,34.9,13.3,4.2.1,10.7-.2,18.5-2.4-3.2,1.6-8.2,3.6-14.6,4.6-4.2.6-17.5,2-31.1-5.6-3.3-1.8-8.1-5.1-12.9-10.6,1.5,2.9,3.8,6.4,7.1,9.7,1,.9,1.9,1.8,2.8,2.5l-4.2,3.8c3.4,2.6,6.6,5,9.8,7.4,1.1-1.9,2.2-3.8,3.3-5.8.7.5,1.5,1,2.2,1.5-1.3,1.7-2.6,3.4-3.9,5.1,3.8,1.6,7.5,3.5,11.4,4.6,4.3,1.2,5.1.3,5.9-4.8-2.9-.7-5.8-1.4-8.7-2,0,.7.1,1.4.1,2.1,1.7.4,3.3.7,5,1.1-.1.6-.2,1.2-.3,1.8-2.4-.6-4.9-1.2-7.3-1.8.4-1.9.7-3.8,1.1-5.8,4.1.9,8.2,1.9,12.3,2.9-.2,2.5-.5,5-.8,8.1,9,.5,17.7-1.9,26.4-5.4,13.8-5.7,20.7-17.9,27.5-29.8,3.7-6.4,6.1-13.6,9.3-20.4,1.3-2.8,3.2-5.2,4.9-7.9.6.3,1.2.7,1.8,1-1.8,4.3-3.2,8.9-5.5,12.9-6.5,11.2-12.5,22.8-20.3,33-15.6,20.4-45.3,24.9-66.4,10.4-16.2-11.2-26.7-26.5-28.5-47.6,2.1,5.2,3.9,9.6,5.7,14l-.8-15.6h0ZM327.43,197.23c.5,5,1.4,8.7,1.8,10.3.9,3.6,2.3,7.4,5.3,15,1.6,4.1,4.7,15.3-.4,24.8-1.2,2.2-4.2,7-11.5,10.5,2.7-1.9,10.1-7.5,12-17.2,1.3-6.5-.4-12.9-1.3-12.9-1.2,0,.4,10.6-6.1,19.4-5.5,7.5-14.7,10.7-15.6,9.5-.8-1,4.5-5.9,3.7-6.9-1.1-1.2-11.1,6.8-13.4,4.7-.4-.3-.4-.9-.4-1-.3-2.4,4.3-4.4,4-5-.4-.8-12.3,4.7-13.5,2.8-1.2-1.8,7.6-9.6,6.8-10.5-.5-.5-4,2.6-9.9,3.5-2.5.4-3.8.1-4.4-.6-.7-.8-.8-2.1-.1-3.7,2.9-7.6,5.5-15.4,9.9-22.1,5-7.7,12.2-14,17.7-21.5,4.3-5.8,7.4-12.5,10-17,0,4.7-.6,11.5.2,18.2.8,6.7,3.1,13.2,5.7,19.6-5.8-17.3-6.1-34.4.8-51.4-.1,1.6-.4,4-.6,7-1.1,11.7-1.5,17.6-.7,24.5h0ZM329.13,386.93c3.6-3.9,6.2-8.7,10-14.1-.5,3.1-.8,5.1-1.1,7.1-.7,5.1-1.6,10.2-2.1,15.3-.3,3-1,6.4,3.5,7.6.7.2,1.2,2.2,1.4,3.4.8,6.3.2,12.2-3.8,17.6-1.2,1.5-1.6,3.7-2.6,5.3-.8,1.2-2.1,2-3.4,3.3,2.7,5.9,7.8,11.6,7,19.8-5.3.1-4.9-4.8-7.2-7-4.5-10.3-9.1-20.6-13.6-31-.9-2.1-1.7-4.3-2.5-6.5.6-.4,1.2-.8,1.8-1.2.3,1.2.5,2.5.8,3.8.4-.4.8-.8,1.1-1.2-.3-2.1-.6-4.3-.9-6.4.4-.2.8-.4,1.1-.6,2.9,3.2,5.6,6.5,8.6,9.7,2.8,3,5.4,2.7,8.1-.7.8.6,1.6,1.3,2.5,2-11-13.5-27.4-15.5-43.9-20.4,5.9-3.9,10.9-7.3,16.6-11.1-.7,1.5-1,2.2-1.7,3.8,9.5-7.7,16.3-16.3,21.4-26.9,4.4,4.6.6,9,.4,14,1.6-2.7,2.9-4.7,4.1-6.7,1.4,15.2-7.9,22.1-22,26.5,7.9,1.8,12.6-1.3,16.4-5.4h0ZM341.73,518.13c.6-6.1,1.5-12.2,2.9-18.2-1.1,13.2-2.2,26.5-3.4,39.7-2.7,29.3-5.6,58.6-8.3,88v.4c.7-12.1,1.3-24.2,2.3-36.3,1.8-24.6,4.2-49.1,6.5-73.6h0ZM203.73,439.93c-13.7,2.7-25.3-.4-35.3-9.2-4.9-4.3-5.1-8.2-1.1-13.7,2.4-3.4,3.8-6.6,1.7-11.1-3.5-7.2-3.8-14.7,1.7-22.9,4.2,15.8,9.2,30.6,26.5,34.3,10.8,2.3,21.8.7,32.5-3.4-2.2-.8-4.1-1.4-5.9-2-7.1-1.6-14.3-3-21.3-5-3.8-1.1-7.2-3.4-11.1-4.6,4.1,6.9,13.3,6.5,18.5,13.2-7.4.1-14.1.7-19.8-4.8-8.1-7.6-14.1-16.6-16.4-27.4-.9-4.3,1-9.3,1.6-14h2.1c.9,2.3,1.8,4.7,2.8,7.3v-4.1c.5.1,1,.1,1.3.4,2.3,2.4,4.8,4.6,6.9,7.2,9.5,12.3,21.7,20.9,35.7,27.2,1.3.6,2.1,2.5,3.1,3.8,6.5.9,12.2-1.6,18.2-3.6,27.3-9,49-26.4,69.7-45.4,3.6-3.3,7.7-6.3,11.7-9.6,2.6,2.9,3.2,5.5.7,8.2-4.9,5.3-9.3,11.4-15.1,15.6-21.7,15.7-43.5,31.2-65.9,45.8-14.2,9.2-30.5,13.9-47.8,16.5,1.6.4,3,.8,5,1.3h0ZM262.33,224.63c0-.2-.1-.5-.1-.7,6.8-1.1,13.6-2.2,22-3.6-5.5,2.8-9.2,5.9-11.5,8.1-2.2,2.1-5.4,5.3-4.5,7.3.3.6.9,1.1,1.5,1.2,1.8.3,3.5-2.4,5.2-4.6,1.6-2.1,4.1-4.9,8-7.9-.7.8-6,6.5-5,14.4.7,4.9,3.4,8.1,4.6,9.4-8.3-4-13.9-8.4-17.4-11.8-5-4.7-5.5-6.8-11.2-11.8-5.8-5.1-7.7-7.5-14.8-10.3-6.9-2.7-11.8-8.6-16-14.9,19.1,22.5,42.5,24.4,68.6,15-11.8,6.7-24.2,8.6-37.9,6.7,3.9,3.5,7.5,6.7,11.3,10.1.7-1.5,1.7-3.6,2.7-5.7-1.9-.3-3.7-.6-5.5-.9ZM284.23,252.83c10.2,6.4,20.6,12.1,32.5,14.7,2.9.6,5.9.8,8.9,1.3.8.2,1.5,1.1,2.2,2.6-7.4-4.1-8.3.8-8.7,6.2l-4-2c1.1-1.8,2-3.4,3-5-3.5-2.2-3.4-2.1-4.4,1.3-1.2,3.9-3.8,3.5-6.5,1.6.6-1,1.1-2.1,2-3.6-7.3,3.8-10.2,2-13.1-7.6-1.3,2.4-2.4,4.5-3.5,6.5,4.5,2.2,9,4.7,13.7,6.5,5.1,1.9,10.5,3.2,15.7,4.8,1.3.4,2.5,1,3.6,2.1-19.7-2.4-37.8-8.4-52.7-22.1.3-.6.5-1.2.8-1.8,4.9,2.6,9.7,5.2,14.6,7.9-.7-1.8-1.4-3.5-2.1-5.3-1.6-.6-3.1-1.2-4.7-1.8-2.2-.7-2.8-1.7-.5-3.1-.8-1.3-1.5-2.6-2.3-3.8.1-.4.2-.8.3-1.2,1.6.5,3.6.8,5.2,1.8h0ZM284.13,248.43c13.5,8.6,27.3,16.3,44.4,16.4-2.3.4-4.5,1.2-6.8,1.1-10.6-.5-20-4.8-28.7-10.4-3.2-2-6.1-4.4-8.9-7.1h0ZM313.43,307.63c-1.8,13.7-1.2,27.4,3,40.5,2.1,6.4.7,10.5-4.7,13.9-1.6,1-3.1,2.3-5.1,3.8-.4-2.2-.8-3.6-.8-5-1.1-24.4.3-48.6,4.6-72.6.3-1.8,2.5-4.8,3.3-4.6.7.2,1.7.5,2,1.2.5,1-.1,2.2.1,2.3.1.1.5-.2,1.5-1.8.4-.2.9-.5,1.5-.3,1.7.6,1.5,5.4,1.4,7.5-.4,6.4-1.5,25-3.3,49.9-4.1-15.5-2.9-31.2-1.6-46.9-.6,4-1.3,8-1.9,12.1h0ZM266.73,254.43c-2,2.2-4.7,1.1-8.2-3.1,2.8-2.2,5.5-4.5,8.3-6.7,1.8,1.5,3.6,2.9,5.8,4.7-.9,1.2-1.8,2.4-2.9,3.8-2-1.2-3.8-2.3-5.5-3.4-.2.2-.5.4-.7.6,1,1.3,2.1,2.7,3.2,4.1h0ZM253.23,264.23c-4,2-7.8,3.9-11.7,5.9-1.7-1.9-3.3-3.8-4.9-5.7,6.5-3.6,13-7.1,18.5-10.2,2.2,1.7,4.2,3.2,6.6,5.1-2.4,1.4-4.4,2.6-6.5,3.8-.5.3-1,.7-1.5,1-.9-2-1.8-4-2.8-5.9-.5.4-.9.9-1.4,1.3,1.2,1.5,2.3,2.9,3.7,4.7h0ZM230.33,275.43c-.9-2.2-1.8-4.5-2.8-7,2.4-1,4.5-1.9,6.6-2.8,1.6,1.8,3.1,3.3,5.2,5.7-3.3,1.4-6.1,2.7-9,4.1-2.4.6-4.8,1.2-7.2,1.8-.8-1.9-1.5-3.8-2.5-6,1.6-.6,3.2-1.1,4.8-1.7-.2.5-.5,1-.7,1.4,1.9,1.4,3.7,2.9,5.6,4.5h0ZM236.53,261.73c-5.1,3.1-12.1,4.5-20.6,6.9-2,.5-4.4-.5-7.1-.9.2-.4.6-1,1.1-1.7,3.4-3.8,9.6-2.9,13-2.9,4.6,0,10.1-3.1,21.1-9.5,5.5-3.2,12.8-7.9,20.5-14.7.9,1,1.8,1.9,2.7,2.9-10.4,7.2-20.6,13.7-30.7,19.9h0ZM223.03,277.13h0c-2.9,1-5.8,2-9.3,3.1-.8-2.8-1.4-5.2-2-7.4,6.2-3.8,8.4,1.2,11.3,4.3h0ZM247.13,269.53c10.8-5.1,21.4-10.7,29-22.2.1,5.5-9.5,15-18.8,20.5-17.1,10-38.6,17.3-42.3,15.3,10.3-4.3,21.4-8.5,32.1-13.6ZM230.73,211.03c4.6,4.5,6.8,6.7,10.6,8.6,3.7,1.8,5.8,1.8,8.3,3.9,3.5,2.9,4.7,7.3,5.1,10.5-3-2.9-5.6-5.2-7.7-7.1-1.5-1.4-2.5-2.3-2.7-2.1-.3.3,1.8,3,4.5,7.6,5.6,9.1,4.7,10.6,4.4,11-.3.4-.9.6-1.4.6-2.6-.4-2.1-9.4-5-10-.1,0-.7-.1-1.1.2-2.4,1.6,2.9,11.1.9,12.6s-9.5-5.2-10.1-4.5c-.5.6,6.1,5.9,4.8,9-.1.2-.3.8-1,1.1-2.6,1.1-7.8-6.3-8.1-6-.3.2,3.4,4.8,2.7,5.6-.8.8-6.1-3.8-7.6-2.5,0,0-.3.3-.3.6-.1,1.8,6.1,3.1,5.9,3.9-.1.5-3.5-.1-4,1.1-.4.8.8,1.6.5,2.2-.8,1.4-8.6-1.6-10.4,0-.2.1-.9.9-2,1h-.6c-1.2-.1-15.5-4.7-17.8-16.7-.5-2.5-.2-4.4,1-10.2,5-23.1,9.2-27.7,10.5-41.9.4-4.7.5-9.6,1.3-9.7.8-.1,1.1,4.6,3.1,10.1,3.5,8.5,9.1,14.1,16.2,21.1h0ZM204.33,278.13c4.9,8.9,6.9,18,5.9,27.4-.6,5.9-3.8,10.2-5.3,12.6-4.6,7.5-10.3,12.1-13.9,14.6,4.5-18.2,8.9-36.4,13.3-54.6h0ZM209.63,321.73c5.9-7.9,10.2-16.4,7.2-26.9-.4-1.2-.4-2.7-.2-4,.1-1.2.7-2.4,1.1-3.6.8.6,1.9,1.3,3.2,1.3,1.8-.1,2.4-1.5,5-3.6,4-3.3,7.7-3.7,9.3-3.3.2.1.9.2,1.1.8.3.7-.4,1.7-.6,2.1-1.2,1.8-1.5,4-2.5,5.9s-2.6,5.7-5.2,13.5c.3.1.6.2.8.3,2-5,4.3-9.8,6-14.9.9-2.8,2.5-6.2,5.8-9.4,2.2-2.1,4.9-3.7,5.6-3,.5.4.6,1.9.6,1.9,2.5-3.8,5.2-6.3,7-5.8.8.2,1.3.9,1.3.9.8,1.2,0,3.1-.1,3.6-1,2.5-2.9,12.7-5.6,28.6.3,0,.5.1.8.1,2.2-9.7,4.5-19.3,6.4-29.1.7-3.7,1.9-6.4,5.3-8.4,3-1.7,5.5-4.1,8.2-6.1,4,2.3,5.1,5.1,4.1,9.4-4.5,20.3-8.9,40.7-18.2,59.5-2.7,5.5-6.3,10.6-9.7,15.7-2.7,4-5,8-4.8,12.2,22.3-26.6,27.6-60.2,35.6-93.4,2.9,2.1,6,3.8,8.4,6.2,1,1,1.2,3.6.7,5.3-2.1,8-4.6,16-6.9,24-.3.9-.4,1.9-.2,3,3.4-10.1,6.7-20.1,10.1-30.2.7.2,1.7.6,2.7,1.4,1.8,1.5,1.6,2.9,3.1,3.6.9.4,1.3.1,4.3,0h3.4c-7.6,25.6-13.4,53.5-16.4,83.7-.3,3.4-.6,6.8-.9,10.1,6-30.4,12-60.9,18.1-91.7,2.5.9,4.1,1.4,5.7,2-1.3,12-3,23.9-3.8,35.8-.9,14.4-1,28.9-1.1,43.4,0,4-.7,7.2-4,9.6-9.5,7-18.8,14.4-28.5,21-8.2,5.6-17.1,6.5-26.6,2.6-20-8.1-39.1-17.8-55.9-31.5-2.4-2-4.6-4.3-7.2-6.9,9.3-12.4,18.6-24,27.5-35.7h0ZM183.23,361.23c3.2,5.1,12.8,11,32.1,22.9,9.1,5.6,20.9,12.1,35.5,18.4-3.4,0-7.1.8-10.3-.1-9.6-2.7-19-6.1-28.4-9.2-2.5-.8-5-1.8-7.4-2.7,5.8,3.3,11.7,6.6,17.8,10-8.5-.8-15.3-4.2-20.6-10.6-3.9-3.8-7.9-7.6-11.6-11.5-9-9.5-10.4-15.8-14.8-16.2h-.3c1.4-1.7,2.9-3.8,4.9-3.7,1.5.2,2.7,2.1,3.1,2.7h0ZM248.63,404.73c-5,1.1-9.4,2-13,2.6-2.4.4-4,.7-5.7,0-3.6-1.4-5.1-5.7-5.6-7.5,1.6.7,3.3,1.4,5.2,1.9,7.1,2.4,13.7,3,19.1,3h0ZM68.23,520.83c-1.7-9.1.9-17.9,7.1-22.8,3.3-2.6,6.8-3.5,9.3-3.8-2.4,1.5-5.4,3.8-8.1,7.1-6.3,7.5-7.9,15.6-8.3,19.5h0ZM85.33,520.13c-5.6,11.2-6.8,21.8-6.9,28.8-.8-2.6-4.3-14.8,2.3-26.8,3.1-5.7,7.4-9.2,10.2-11.1-1.9,2.6-3.8,5.6-5.6,9.1h0ZM90.03,549.63c-.9,4.4-1.7,8.8-2.5,13.1-.6-2.9-1.1-7-.6-11.8.9-7.9,4.3-13.6,6.4-16.5-1.1,4.9-2.2,10-3.3,15.2h0ZM107.53,540.13c-2.1-2.3-4.1-4.2-6.1-5.8,2.4.8,6.4,2.7,10.1,6.5,6.5,6.8,6.9,15.2,7,17.5-2-5.1-5.2-11.8-11-18.2h0ZM98.13,510.93c2.6.8,7.6,2.7,12.1,7.4,6.5,6.7,7.5,14.6,7.8,17.2-1.6-4.1-4.5-10-9.8-15.9-3.6-3.9-7.2-6.7-10.1-8.7h0ZM123.03,517.93c-1.7-16.8-14.8-22.6-28.2-29.4,16.1,1.2,28.7,14.4,28.2,29.4ZM117.83,434.83c-.4.5-5.3,6-6,11-.1.4-.2,1.3-.4,2.6-.6,2.9-1.4,4-1.9,6.2-.3,1.2-.4,2.4-.7,4.9-.8,7.4.1,7.5-.8,9.1-1.7,2.8-5.8,4.9-6.6,5.2-.6.3-5.8,2.9-7,1.4-.5-.6-.1-1.8.3-2.9.1-.4.6-1.8,2.1-3.3,1.7-1.8,2.7-1.6,3.1-2.7.4-1.1-.5-2.1-1.6-4-2.8-4.8-2.1-6.9-3.5-7.1-1.9-.4-2.7,4.1-8.1,7.2-1,.5-1.9.9-2.7,2-1.3,1.9-.9,4.6-.8,5.7.1.8.2,1.4.4,1.8,1.1-2.2,2.3-4.4,3.4-6.6.4,3.8.8,7.7,1.3,11.5.5-4.7.9-9.5,1.4-14.2,1-.8,2-1.7,3-2.5-.9,28.1.9,45,2.9,55.4,1.9,10,3.5,20,5.7,29.9.9,4.4,1.8,7.9,2.4,13.1,1.1,9.1.8,16.8.2,21.9-2.1-19.3-5.1-39.9-9.3-61.5-2.5-13.1-5.3-25.7-8.2-37.8-1-.5-2.4-1.3-3.9-2.6-.4-.4-2.1-1.7-4.4-4.9-1.9-2.6-2.9-3.9-3.4-5.1-1.4-3.6.9-4.6,2.8-14.7.5-2.6.8-5.2,2.9-7.5.9-1,1.9-1.7,2.6-2.2,1.4-.9,3-1.5,6-2.7,6.9-2.8,11.1-8.4,14.6-14.5,12.2-20.9,22.9-42.6,30.7-65.5,5.3-15.7,12-30.6,23.5-43.1,2.6-2.8,4.6-6.8,5.2-10.5,3.5-20.4,7.1-40.7,9.4-61.2,1-9.3-.6-18.9-1.4-28.3-1-11.5.1-22.7,3.6-33.6,4.8-14.7,15.9-22.9,31.7-23.8,4.2,10.7,1.5,41.2-5.1,52.9-.2-.6-.6-1.6-.9-2.8-1.1-3.5-1.1-5.2-2.4-5.8-.2-.1-.8-.3-1.3-.1-1.6.8-.5,5.5,0,9.8.5,5.1,1.4,5.1-.3,13.2-1.7,8.6-.8,16.8,1.9,25.1,1,3.2,1.6,7,.8,10.1-3,12.1-6.8,24-9.8,36.2-1.7,7.2-2.8,14.6-3.3,22-.7,11.2-5.2,19.1-6.3,22.1-1,2.6-2,5.1-8.3,19.3-5.2,11.7-7.9,17.5-8.6,18.9-10.8,22.2-32.5,39.2-44.9,53h0ZM166.23,470.23c6.7-2.8,13.8-4.9,20.8-7,26-7.9,49.9-20.1,72.9-34.4,2.3-1.4,4.1-3.7,6.1-5.6-27.8,17.4-57.3,31-88.8,40.3-4,1.2-7.6,3.5-11.6,4.6-2,.5-4.4-.5-6.6-.9.5-2,.5-4.5,1.8-6,2.9-3.4,3.1-6.6.3-9.7-3.2-3.5-3-6.7-.3-10.2,2.1-2.8,3.8-5.7,5.5-8.2,7.5,4.1,14.7,8.1,21.8,12-6.7,1.1-14,2.2-21.3,3.4,0,.3.1.7.1,1,9.2-1,18.6-1.1,27.5-3.2,25.2-6,48.4-16.6,69.3-32,8-5.9,16.1-11.8,24.1-17.8,2.6-1.9,4.9-2.8,8,.7-9,8.3-18,16.5-27,24.8-1.2,1.9-2,4.1-3.5,5.6-20.1,20.7-44,35.8-70.3,47.4-9.7,4.3-19,9.4-28.5,14.2.2.5.5,1,.7,1.5,15.1-7.2,30.3-14.3,46-21.8-.1,1.6,0,2-.2,2.2-11.5,11.9-23.4,23.2-38.3,30.8-3.5,1.8-7.6,2.4-11.4,3.4-4,1-5.5-1.3-4.5-4.6,1.1-3.6,3-6.9,4.8-10.8-.1-.2-.6-.9-1.1-1.4-7.2-7.6-6-14.2,3.7-18.3h0ZM158.33,517.03c2.6-5.2,6.2-9.5,11.8-11.6,11.1-4.1,20.5-10.9,29.5-18.4,15.6-12.8,31.8-24.8,46.8-38.2,14.1-12.6,27.1-26.5,40.7-39.7,3.8-3.7,8.2-6.9,12.3-10.4.4.4.8.8,1.3,1.2-.6,1.4-1.3,2.8-2.3,5,2.8-2.7,4.8-4.7,6.9-6.7.6.5,1.1.9,1.7,1.4l-10.3,17.6c.3.2.6.4.9.6,3.2-5,6.6-9.8,9.5-15,2-3.6,4.1-4.3,7.6-1.9-8.3,20.2-21.2,37-38.4,50.6-1.2.9-2.3,2-3.2,3.1-6.7,9.3-15.8,15.3-26.6,18.4-17.4,5.1-32.9,13.3-47.4,24-9.5,7-20,12.6-29.8,19.1-3.5,2.3-6.4,5.7-9.8,8.9-2.6-2.1-2.8-4.9-1.2-8h0ZM292.33,658.03c4.6,18.3,4.5,37,.3,55.5-.5,2-1.1,4.1-1.6,6.1,1.3-13.1,1.4-24,1.2-31.6-.2-7.3-.7-26-4.5-26.5-1.2-.2-2.4,1.5-4.5,4.2-1.9,2.5-2.8,4.6-4.8,9-2.7,6.2-4.1,9.3-5.6,9.7-2,.5-3.9-1-6.4-3-6.7-5.3-9-12.9-9.3-13.6-.9-2.9-1-5.4-1.8-5.4-.7,0-1.4,2.5-1.9,4.8-4.5-23.3-8.5-45.3-5.9-68.3,5.8-50.4,20.6-97.9,42.5-143.4,2.4-5.1,5.8-9.7,8.7-14.6,8.7,7.4,15.3,15.9,19.8,25.8,4.9,10.6,4.1,22.2,3.5,33.5-2.1,39.8-11,78.1-26.1,114.9-5.6,14.2-7.4,28-3.6,42.9h0ZM288.13,709.43c-1.4-1.4-9.3-9.8-9.9-18.3-.2-2.3.1-4.4.1-4.4.4-2.5,1.2-4.4,4.2-10,2.5-4.5,3.7-6.7,4-6.6,1.5.2,2.7,7.5,1.6,39.3h0ZM242.13,629.23c-.7.2-1.3.4-2,.6-.8-2.3-2-4.5-2.4-6.8-4.1-22.6-8.6-45.1-12-67.8-2.8-18.9-4.3-38-6.1-57-.3-3-1.7-8.3,3.5-8.3,4.7,0,3,5.1,3.4,8.1,3.1,24.6,5.9,49.2,8.9,73.8.3,2.6.8,5.2,1.1,7.8-1.8-21.5-3.6-43-5.4-64.5-.6-7.1-1-14.2-1.4-21.4-.1-1.5-.3-3.1.2-4.4.9-2.2,2.4-4.2,3.6-6.3,1,2.2,2.5,4.3,2.8,6.5,1.3,11.4,2.2,22.8,3.2,34.1.1-12.9.1-25.8.3-38.7,0-.5,1.2-1,3.1-2.4,3.5,24.7,2.5,48.4.9,72.1-1.5-10.4-2.9-20.8-4.4-31.1,1,26,2.1,52.1,3.2,78.1-.6.1-1.3.1-1.9.2-1.4-7.4-2.9-14.9-4.3-22.3,1.9,16.6,3.8,33.1,5.7,49.7h0ZM271.63,785.83c-.6.1-1.2.3-1.8.4-13.9-45.4-25.1-91.3-27.5-139.1,9.7,46.2,19.5,92.5,29.3,138.7ZM246.93,521.53v-40.2c3.6,3.5,4.1,27.5,0,40.2ZM253.83,487.63c.7-6.8,3-12.5,8.9-16.5,2.1-1.5,3.9-3.6,6.5-6.1-6.4,20.2-12.5,39.5-18.6,58.8h-.8c1.3-12.1,2.8-24.1,4-36.2h0ZM247.73,553.83c3.2-30,12.6-58.2,25.2-85.3,4.2-9,11.6-16.5,17.5-24.6.5.3,1,.7,1.5,1-20.8,40.1-33.3,83.2-45.5,126.7.1-2.9.2-5.9.4-8.8.2-3.1.5-6.1.9-9ZM14.33,811.33c8.4,10.4,19.9,14.6,32.5,16.8-12,1.8-26.4-5.6-32.5-16.8h0ZM97.53,750.53c-9,19.5-19.8,37.8-37,51.5-6.1,4.9-12.8,8.3-21,7.8-7.6-.5-13.4-3.8-17-10.5-2.9-5.4-5.6-11-8.9-17.5,19.4-5.5,35.8-15.8,50-29.7,14.1-13.7,25.4-29.5,35.3-47.3-1.8,9.2-18.1,33.4-32.7,48.3-13.8,14.1-29.5,25.3-49.9,29.4,3.3,6.3,5.7,11.4,8.6,16.3,5.2,8.8,13.7,11.4,23.2,7.2,8.9-3.9,15.7-10.5,22-17.7,16-18.6,27.3-39.9,35.3-62.8,9.5-27.2,17.5-54.8,26.2-82.3.5-1.6.9-3.2,1.8-4.7,0,.7.1,1.4,0,2-9.6,37.5-19.7,74.8-35.9,110h0ZM112.53,800.33c8.5-32.4,16.8-64.2,25.1-96-5.5,32.7-13.5,64.6-25.1,96h0ZM178.73,866.43c-.2,4.7-2.4,6.2-6.8,4.9-.3-.1-.6-.1-1-.2-9.7-1.9-9.1-2.1-7-11.2,2.4-10.5,4.3-21.3,4.6-32.1,1.1-38.3,1.5-76.6,2.1-114.9v-6.5c-1.9,36.7-3.7,73.4-6.3,110-.9,12.8-4.4,25.5-7.4,38.1-1,4.3-2.3,9.9-7.9,10.5-6,.6-7.9-5.2-10.7-9.2-.7-1-.8-3.1-.2-4,8.8-14.2,11.2-30.2,13.4-46.2,8.7-66,11.5-132.4,12.4-198.9.2-19,1.1-38,1.7-57,0-1.1.2-2.2,1.2-3.3.9,6.7,2,13.3,2.7,20,5.7,53.9,9.4,107.9,9.6,162.1.1,39.2.3,78.3.3,117.5.1,6.8-.5,13.6-.7,20.4h0ZM200.73,863.43c-1.6-1.1-3.4-2-5.1-2.9,3.4,2.9,6.8,5.7,10.8,9.1-5.7,2-10.3,7.4-17.1,4.2-1.8-.8-3.8-3.5-3.9-5.4-.5-18-.7-36-.8-54,0-1.4,1.1-2.7,1.7-4.1-.8-8.4-1.9-16.9-2.3-25.3-1.1-25.5-2-50.9-2.9-76.4,0-.3.2-.6.8-2.1,1.3,10.1,2.4,19,3.8,27.9,5.4,34.2,10.9,68.3,16.2,102.5,1.8,11.8,6.1,21.5,18.7,25,1,.3,1.9,1.1,3,1.8-8.3,5.1-14.8,4.9-22.9-.3h0ZM245.03,865.13c-8.7-1.9-17.6-2.1-26-6.3-7.1-3.5-11.8-8-13.5-15.5-2.4-10.7-4.6-21.5-6.8-32.2-8.7-42.4-11.6-85.5-15.1-128.5-1.2-14.4-2.9-28.8-4.4-43.3-.3-2.6-.4-5.2-.6-7.8h.5c3.8,25.5,7.4,51,11.6,76.5,6.8,41.8,14.5,83.4,32.1,122.3,3.4,7.5,8.1,14.5,13.3,20.9,4.6,5.6,11.5,8.1,19,5.5,8-2.7,16.2-5.2,23.7-9,6.6-3.4,11.9-2.8,17.2,1.8,2,1.7,3.8,3.5,6.5,5.8-7,2.8-12.7,6-18.9,7.3-12.7,2.8-25.5,5.3-38.6,2.5h0ZM287.13,875.33c-5.5,2.9-10.2.6-12.7-5.7,6.4,1.1,10.6-1.3,14.7-5.3,4.2-4.2,8.8-4.1,15.1-.3-5.9,4-11.2,8.2-17.1,11.3h0ZM321.03,867.13c-2.4,2.7-4.8,5.3-8.2,9.1v-3.7c-.8-.5-2-.8-2.2-1.5-1-2.8-1.7-5.6-2.8-9.3,2.4-4.9,6.4-7.8,9.6-6.3,2.9,1.4,2.5,6-1.1,11.9-.7,1.1-1.4,2.2-2.2,3.2,2.4-2.4,5.1-4.6,7-7.4,3.8-5.8,1-11-5.7-11.6-1-.1-2.1-.4-3-.1-7.2,3.1-12.5,0-17.5-4.9-.8-.8-1.9-1.4-3-1.8-15.1-6-23.2-18.3-29.3-32.5-13.2-30.7-24.3-62-32.1-94.5-.4-1.6-.9-3.1-1.6-4.5,7.6,42.2,22.2,82,41.6,120.7-8.4-1.7-15-5.3-19.2-12.1-5.9-9.6-12.1-19.2-16.6-29.5-17.4-39.7-28.5-81.3-37.1-123.7-8.3-40.5-14.8-81.2-19.2-122.4.4,5,.7,9.9,1.1,14.9.4,5.2.8,10.3,1.4,15.4,5.3,45.4,12.8,90.4,22.8,134.9,7.3,32.3,16.1,64.3,31.6,94,8,15.3,18.9,27.4,36.5,31.8,2.4.6,4.6,1.9,6.9,3,2.7,1.3,3,3.4.4,4.8-8.6,4.7-17.6,8.9-27.5,9.3-9.2.4-16.8-3.9-21-12.1-4.7-9.1-8.5-18.8-12.2-28.4-12.2-32-20.5-65.1-25.1-99-3.5-25.6-6.3-51.2-9.2-76.9-3.7-32.1-7.2-64.2-10.7-96.4-.4-3.1-.1-6.4-.7-9.5-2-9.6,3.8-15,10.8-18.9,7.9-4.4,16.5-7.9,25-11.1,5.9-2.2,6.6-1.5,7.6,4.5,3.4,20.9,6.5,41.8,9.8,62.7,7.3,45.9,14,91.9,22.1,137.6,4.6,26.2,11.3,52,17.1,78.1.2.9.5,1.9-.4,3.3-2-4.2-4.5-8.3-5.8-12.7-6.2-21.3-12.5-42.5-17.8-64-11.3-45.3-18.8-91.3-26.4-137.4-.3-1.9-.8-3.8-2-5.7,1.8,11.8,3.1,23.7,5.5,35.4,9,45.1,17.9,90.2,27.7,135,4.4,19.9,10,39.5,20.4,57.7,7.9,13.8,18.9,23.2,31.9,31.4,6.9,4.3,13.1,9.5,19.4,14.7,2.2,1.8,3.7,4.7,5.2,7.3,3.1,6.2,3.1,11.9-1.8,17.2h0ZM330.73,509.03c-3.3,32.3-7.6,64.5-17.5,95.6-2.9,9.1-6.9,17.9-10.5,26.8-.9-.3-1.9-.5-2.8-.8,1.7-7,3.4-14,5.1-21,5.3-20.8,11.9-41.3,15.6-62.4,3.3-18.9,3.9-38.4,4.8-57.6.9-18.1-7.4-33.1-18.6-46.6-1.8-2.1-3.5-4.5-4.8-6.9-2-3.8-1.9-3.9,2.2-7.2,2.1,3.8,4.3,7.6,6.4,11.4.1-.1.2-.1.4-.2l-5.1-14.3c.6-.3,1.3-.5,1.9-.8,3,6.4,6,12.7,8.8,19.1,1.9,4.4,3,9.2,5.2,13.4,8.6,16.2,10.7,33.7,8.9,51.5h0ZM323.93,457.33c-3.4-9.7-7.6-19.2-11.3-28.8-2.1-5.5-1.8-9.6,1-15.2,5.8,10.8,11.5,21.3,17.1,31.8l-.1-.1c4.4,9.1.5,19.1,2.9,28.5,1.1,4.3,1.5,8.8,2,13.3.2,1.9-.4,3.8-.6,5.8-.5.1-.9.1-1.3.2-.6-2.7-1.1-5.5-1.9-8.1-2.5-9.3-4.7-18.5-7.8-27.4h0ZM345.73,637.43c3.5,4.2,7.4,8.1,11.4,12.4.8-1.5,1.4-2.9,2.5-5.1-.5,7.9-1.7,14.5-6.1,20.4-6.9,9.2-13.3,18.6-19.7,27.6,2.6-4.8,5.3-10.2,8.6-15.2,2.4-3.8,2.9-6.8.1-10.8-5.8-8.5-10-17.7-10.3-28.2.4.5,1.1.9,1.1,1.4.6,11.6,8.1,20,13.6,30.9,3.1-4.2,5.9-7.5,8.3-11.2,1.8-2.9,1.7-5.9-.8-8.7-2.7-3-5.1-6.1-7.7-9.1-1-1.1-2-2.2-3-3.3-6.9-8.7-5.8-14,4.1-19.3,4.3-2.3,8.5-4.8,12.8-7.1-1.2,5.9-6.6,6.9-10.9,8.8-10.9,4.9-11.7,7.4-4,16.5h0ZM353.53,588.73c2,5.2,4.7,10.2,7.8,14.8,2.3,3.4,2.4,5.8-.8,8.2-.6-2.7-.5-6-2-7.9-6.9-8.6-8.2-18.1-6.2-28.6.5-2.8.6-5.6.9-8.4.2,2,.5,4.2.9,7.7,4.4-5.7,8-10.3,11.5-14.9-.7,5.4-3.3,10-7.7,13.2-5.9,4.3-6.7,9.9-4.4,15.9h0ZM353.23,565.93c1.1-21.1,2.3-42.2,3.5-63.2.6-9.6,1.4-19.2,3-28.7-.7,12.8-1.4,25.5-2.1,38.2-.9,16.4-1.9,32.9-2.9,49.3,0,1.5-.9,2.9-1.5,4.4h0ZM408.23,438.43c-8.3-13.8-16.2-27.9-24.3-41.8-11.3-19.2-23.3-38.2-29.9-59.8-5-16.4-8.1-33.2-14.4-49.3-4.2-10.8-4.2-22.1-.3-33.3,3-8.5,2-14.9.7-22.7-1.4-8.4-4.1-12.5-1.7-18.2,1-2.3,3.2-6.1,2-7.2-.5-.5-1.3-.3-1.6-.2-1.5.3-2.2,1.6-3.9,4.1-.6.9-1.5,2.1-2.7,3.5-.8-3.4-1.8-8.2-2.4-14.1-1.4-11.9-.8-21.2-.5-25.5.1-1.1,1-9.9,2.1-14.7.2-.7.5-1.9,1.5-2.7.9-.7,2.2-.7,4-.5,13.5,1.7,21.6,9.2,25.3,22.1,3.8,13.4,4.3,26.8,2.4,40.6-1.2,8.8-1.1,17.9,0,26.7,1.4,11.2,4.8,22.2,6.6,33.3,2.6,15.7,6.6,30.9,13.9,45.2,3.1,6,4.8,12.8,6.9,19.2,6.4,19.8,12.7,39.6,19.1,59.4,4.9,15,13.3,27,28.5,33.5,7.3,3.1,10.5,9.6,12.4,17.2,1.4,5.7,3.7,11.2,5.8,17.2.2.4,1.1,2.9.3,3.5-1,.8-3.6-1.3-4-1.6-3.1-2.4-3.5-5-6.7-11.5-2.2-4.5-3.3-6.7-5-7.8-1.7-1.1-2.7-.9-6-3-.9-.5-1.8-1.6-3.5-2-.6-.1-2-.5-2.7.2-.5.6-.3,1.7.6,4.2,1.3,3.5,2,5.4,3.9,8.5,1.5,2.6,1.8,2.7,2.6,4.4,1.1,2.4,2.3,5,1.1,6.8-.7,1.1-2.2,1.6-3.5,1.5-2.3-.3-3.6-3-4.1-4-2.7-5.4-7.3-9.6-10.4-14.8-4.2-7.4-7.8-9.3-12.1-16.4h0ZM418.33,511.23c-.5-3.3-.8-8.1.4-13.8,1.8-8.6,6.1-14.6,8.5-17.5-.9,4.6-1.6,9.9-2,15.6-.4,5.4-.4,10.4-.2,14.9-.7-.2-1.9-.7-2.9-1.9-2.1-2.3-1.8-5.1-1.8-5.7-.6,1.1-1.2,2.6-1.6,4.5-.4,1.5-.5,2.9-.4,3.9h0ZM417.63,477.73c-.4-.2-.7-.4-1.1-.5,1.9-4.1,3.9-8.3,5.8-12.4.5,0,1,.1,1.6.1.6,2.1,1.2,4.3,2.2,7.7-1.9-1.4-2.6-1.9-3.7-2.7-1.6,2.6-3.2,5.2-4.8,7.8h0ZM421.63,520.73c.3,2.8.8,6.6,1.4,11.1,1.2,8.8,1.7,10.7,3,13.1,1.1,2,2.6,3.8,4.5,5.6,1.9,1.7,2.3,5.8,2.3,8.8,0,5.6-.8,11.3-1.3,16.9-3.3-4.5-9-13.5-11.3-26.2-2.5-13.2-.2-23.9,1.4-29.3h0ZM431.63,540.13c-1.1-11.8-2.2-23.6-3.3-35.4.7.7,1.7,1.8,2.5,3.4,1.3,2.8,1.2,5.4,1,6.5.6-1.3,1.2-2.7,1.8-4,.5,2.7.8,5.7.9,9,.3,8.3-1.2,15.4-2.9,20.5h0ZM403.43,534.63c.4-1.4.8-1.8,1.7-3.9,1.7-4.1,1.7-6.5,2.4-9.2.7-2.5,2.1-5.9,5.4-9.6-.1,5.8.1,10.4.2,13.6.3,5.8.6,7.9-.5,10.5-1.8,4.4-6,6.8-8.8,8-.6-2.5-1.4-5.8-.4-9.4h0ZM409.53,595.03c2.3,2.6,4.5,3,11,9.4,3.4,3.4,4.9,5.3,8.8,8.8,3.2,2.9,6,5.1,7.9,6.5-5-1.1-10.6-1.2-15-3.5-14.7-8.2-24-20.8-27.5-37.4-.6-2.7.2-5.9,1.1-8.6,1-3.1,3.7-5.8,4.2-9,1.7-10,9.4-15.5,15.9-23.3-.6,3.8-.8,6.8-1.5,9.6-3.4,13.2.2,25.3,9.2,34.3,6.4,6.4,10.3,12.8,11.8,21.3.4,2.2,1.8,4.2,2,7-3.7-4.4-7.4-8.8-11.1-13.3-3.7-4.5-7.8-8.8-10.8-13.7-3.1-5-5.2-10.6-7.7-16-4.4,16.4-1.7,24,1.7,27.9h0ZM457.63,612.63c-3.8,4.9-10,4.2-10.3,4.2,2-1.8,4.3-4.2,6.5-7.3,2.3-3.2,3.8-6.3,4.8-8.8,2,3.8,1.6,8.5-1,11.9ZM486.53,577.03c-7,14.9-19.2,21.5-23,23.4.7-.8,6.1-7.4,4.2-15.9-1.3-5.6-5-9-6.3-10-1.5,5-3.3,10.2-5.4,15.7-2.7,6.9-5.5,13.2-8.3,18.9-3.6-6.7-7.1-13.2-10.6-19.8,1.8-3.8,3.9-8.1,5.8-12.5,2.3-5.5,2.2-10.9-.6-16.4-1-2-1.1-4.6-1.5-6.5,8.3.9,16,1.8,23.7,2.7-.6-1-1.7-2.7-3.3-4.3-4-3.8-7-4.3-14.5-7.8-5.5-2.6-7.8-6.8-7.8-12.7v-9.6c9.3,9,20.4,11.1,33,10.1-1.6-.5-5-1.7-8-4.8-2-2.1-3.1-4.3-3.6-5.8,2.4.3,5.1.7,8,1.4,3,.7,5.6,1.6,7.9,2.4-.2-1.8-.7-4.3-2.2-6.7-2.5-3.8-6.3-4.2-11.7-7.5-5.3-3.1-10.8-5.8-15.9-9.2-4.5-3.1-6.3-7.9-6.4-14.7,7.5,3.7,14.2,7,20.9,10.4,3.1,1.6,6,3.8,9.3,4.7,5.4,1.5,8.9,5,10.2,10,2.5,9.4,4.2,19,6.1,28.6.5,2.4.1,4.9.1,8.5,2.1-1.6,3.1-2.3,4-3,.6,4.4,2.3,16.8-4.1,30.4h0Z"/>
      <path class="cls-1" d="M86.43,481.33q0,.1.1.2h0q-.1-.1-.1-.2Z"/>
      <path class="cls-1" d="M285.83,646.93c-.5-.4-1-.4-1.3-.4-4.5-.1-10,11.1-16.1,11.7-7.1.7-13.2-13.1-14.8-12.2-1.3.7,2.6,9.4,3,10.4,3.5,7.7,5.2,11.6,9.2,13.1,6.4,2.5,13-2.5,13.4-2.8,3.4-2.6,4.4-6,6.5-12.8,1.2-4.6.9-6.3.1-7h0Z"/>
      <path class="cls-1" d="M257.83,359.13c.2.1.4.2.6.2,1.9.4,4.5-2.6,4.8-3,3.6-4.4,8.8-14.6,5.9-17-.1-.1-.7-.5-1.3-.5-2.5.4-.8,8.9-5.2,11.7-3.5,2.2-4.9,2.9-4.9,2.9-.2.1-.9.4-1.5,1.1-.3.3-.9,1.2-.8,2.2.3,1.6,2.1,2.3,2.4,2.4h0Z"/>
      <path class="cls-1" d="M252.03,168.43s-6.1-.3-13.3-2.5c-.7-.2-2.5-.8-4.8-.5-.7.1-1.3.2-1.7.4l27.9,5.6c-.4-.3-.9-.8-1.6-1.3-2.3-1.6-4.7-1.6-6.5-1.7h0Z"/>
      <path class="cls-1" d="M253.73,100.63c3.4-.4,3.5-1.9,5.7-1.3,1,.3,2.1,1,3.4.3.6-.3,1.1-.9,1.4-1.3-1,0-1.8-.1-2.5-.2-2.7-.3-3.6-.8-5.3-.5-1.1.2-.9.5-2.2.8-2.3.6-3.5-.1-5-.1-1.2,0-3,.5-5.1,2.7.6-.2,1.6-.6,2.8-.8,3.1-.4,3.8.7,6.8.4h0Z"/>
    </g>
    <path class="cls-1" d="M249.23,102.83c.1-.5,4.5,2.3,8.5,0,.8-.4,1.6-1.1,1.7-.9.2.3-1,2.6-2.6,3.5-3.3,2.1-7.8-2-7.6-2.6h0Z"/>
    <path class="cls-2" d="M258.93,61.53c0-.2,1.7-.9,3.4-1.4,1.2-.4,2.2-.5,9.6-.9,0,0,2.3-.1,6.3.5.3,0,.7.2,1.1.4.2.1.3.2.5.3.3.2.8.7,1.5,1.5-1.1-.4-2.5-.8-4.3-1.2-1.4-.3-4.6-.8-8.9-.6-5.4.3-9.1,1.6-9.2,1.4h0Z"/>
  </g>
</svg>