<?xml version="1.0" encoding="utf-8"?>
<!-- Generator: Adobe Illustrator 28.3.0, SVG Export Plug-In . SVG Version: 6.00 Build 0)  -->
<svg version="1.1" id="Layer_1" xmlns="http://www.w3.org/2000/svg" xmlns:xlink="http://www.w3.org/1999/xlink" x="0px" y="0px"
	 viewBox="0 0 662.5 948.2" style="enable-background:new 0 0 662.5 948.2;" xml:space="preserve">
<style type="text/css">
	.st0{fill:#FFFFFF;}
</style>
<g>
	<path class="st0" d="M660.4,288.4c-3.8-3.8-7.4-7.8-11.6-11c-13.1-9.9-22.3-22.2-28.4-37.7c-7.4-19-18.2-35.7-38-44.4
		c-1.5-0.7-3.5-2.2-3.8-3.7c-1.2-5.4-1.9-10.9-2.8-16.5c0.2-1.3,1.8-12.6-5.9-20c-9-8.7-24.8-6.2-32.1,1.7c-5.6,6-5.5,14-5.5,15.7
		c0,2.6,0,8,3.7,12c2.9,3.1,5,2.1,7,4.2c5.5,5.7-6.1,17.7-5,35.6c0.7,11.5,6,13.4,3.9,20.4c-2.1,7.4-8,10.2-26.4,17.9
		c-48.1,20-48.2,23.4-54.5,21.3c-6.6-2.3-16.4-23-35.7-64.3c0,0-7-20.9-20.4-32.7c-6.2-5.4-13.8-9.1-18.1-16.6
		c-0.8-1.4-2.9-2.1-4.5-3c-2.2-1.1-4.8-1.8-6.7-3.2c-4.6-3.5-9.4-4.8-14.9-2.6c-3.3,1.3-6.4,0.7-10-3c3.8-0.4,6.5-0.7,9.2-0.9
		c7.5-0.5,11.2-3.4,13.4-10.5c2-6.4,0.7-12.8-5.3-15.7c-7.6-3.6-8.8-8.3-6-15.3c0.2-0.4,0-1.1,0.2-1.5c0.8-1.2,1.6-2.9,2.7-3.4
		c8.5-3.6,10.5-11.7,4.8-19.1c-1.2-1.6-1.3-4.2-1.9-6.3l1.5-0.5c0.3,0.7,0.9,1.6,2,2.4c2.8,2.2,6.2,1.4,6.8,1.2c0.8-1.4,2-3.6,3-6.4
		c0.7-2,0.2-2.5,1.1-3.5c5.9-6,5.8-7.6-0.5-12.9c-0.7-0.6-1.5-1.2-2.5-2.1c3.9-1.6,7-3.9,4.3-7.9c-1.8-2.7-4.9-4.6-7.1-6.5
		c1.4-0.7,5.3-2.6,7.4-7c0.8-1.6,1.1-3,1.2-4.2c-0.6-0.5-1.5-1.2-2.7-2c-3.1-2-7.1-4.7-12.2-5c-2.9-0.2-4.2,0.5-5.8-0.6
		c-1.2-0.9-2.1-2.6-1.7-4c0.5-1.6,2.3-1.6,3.2-3.1c1-1.7-1.1-5.2-1.9-7.9c-0.8-0.6-0.6-1.4-0.3-2.2c1.9-5.6,0.6-7.5-5.3-7
		C353.8,7,350,8.7,346,10.7c-1.1,0.5-2,1-2.5,1.4c0.5-1,1.1-2.6,1.3-4.5c0.3-2.5-0.2-4.5-0.5-5.7c-1.7,0.2-3.7,0.6-5.8,1.3
		c-5.3,1.8-9,4.7-11.3,6.8c0.1-0.2,1-2.5-0.1-4.1c-1-1.4-3-1.3-4.5-1.3c-2.6,0.1-4.6,1.3-5.6,2.1c-0.1-0.7-0.5-2.6-2-4.4
		c-1.3-1.5-2.9-2.1-3.6-2.3c-0.6,0.4-5.5,3.8-5.9,9.9c-0.3,4.1,1.6,7,2.2,8c-1.6,0.4-3.7,0.7-5-0.4c-1.4-1.2-0.9-3.4-1.3-6.1
		c-0.3-2.2-1.3-5.3-4.2-8.9c-0.5,0-4.6,0.5-7.1,4.2c-2.6,3.8-1.2,7.9-1.1,8.4c-0.5-1.2-1.2-2.8-2.6-4.4c-2.2-2.6-4.7-3.9-6.2-4.5
		c-1.3,1.1-3,2.8-4.3,5.2c-3.3,6.2-2,13.2-3.1,13.3c-0.2,0-0.7-0.8-1.6-2.3c-0.7-1.1-1.2-2.1-1.5-2.8c-3.6,4.6-5,8.7-5.5,11
		c-0.6,2.6-1,5.7-1.1,6.5c-0.2,2.2-0.3,4.2-0.4,5.6c-0.4,0-0.7,0-1.1,0c-0.2-0.8-0.4-1.5-0.5-2.3c-0.8-3.4-2.8-5.8-6.5-5.8
		c-4,0-3.9,3.3-4.5,6c-0.8,3.8-1.8,7.5-2.8,11.2c-1.6-6.6-8-11.8-15.4-11.3c-0.8,0.8-2.5,2.9-2.9,6.1c-0.2,1.8,0,3.3,0.3,4.2
		c-4.5-0.7-8.4-0.6-11.2-0.4c-3,0.2-7.4,0.7-12.6,3c-1.7,0.8-3.1,1.5-4,2.1c0.9,1.4,2.8,3.8,5.9,5.8c3.8,2.4,7.5,2.9,9.3,2.9
		c-1,0.7-3,2.2-4.2,5c-0.6,1.5-1.6,3.9-0.4,5.9c1.1,1.8,3.5,2.7,6.1,2.3c-0.4,2.4-0.8,4.8-1.2,7.2c2.9,0.4,6.7,0.6,11-0.3
		c1.3-0.3,2.5-0.6,3.6-1c-0.2,0.5-0.6,1.5-0.5,2.8c0.1,1.2,0.5,2.1,0.7,2.6c1.1-0.2,3.3-0.6,5.2-2.4c1.6-1.4,2.5-3.6,3.8-5.6
		c1.2,3.8,2.2,7.1,3.3,10.8c-4.5,2.7-7.4,6.4-5.6,12.2c2.1,6.8,7.3,9.3,14.1,10c-1.5,1-3,1.6-4.5,1.8c-10.4,1.6-14.1,5.1-15.4,15.7
		c-0.6,5-2.4,6.5-7.5,5.5c-7.4-1.4-13.4,0.8-14.8,6.9c-1.8,7.3-2,15.1-1.6,22.6c0.2,2.7,4.3,5.1,6.6,7.7c0.1,0.1,0,0.6-0.1,1.6
		c-4-1.4-7.8-2.8-11.6-4.2c-0.7,2.3-0.8,4.8-2.1,6.3c-5.8,7.4-6.1,14.9-0.6,22.4c1.6,2.2,3.5,4.3,5.4,6.7
		c-4.9,3.6-12.5,4.6-10.9,12.7c1.3,6.4,6.7,7.6,10.9,7.8c0.6,5.9,1,14.2,0.2,24.1c-0.4,5.4-1.1,10.2-5.5,29
		c-7.9,34-10.8,41-13.2,46.1c-3.6,7.4-5,8.5-10.5,17.8c-19,32.2-31.6,70.3-39.9,95.5c0,0-1.8,4-5.5,13.1c-2.2,5.4-5.1,10-8.8,13.7
		c-1.1,1.1-2.1,2-3.1,2.8c-6.2,4.7-11.9,7-13.7,7.7c-9.1,3.5-22.8,13.3-28.8,26.5c-1,2.3-2.1,5.8-4.1,12.8
		c-3.1,10.7-2.8,12.4-1.9,13.6c2.6,3.3,10.5,2.1,14.8,0.6c4.8-1.7,6.5-4.2,11.6-4.6c3.6-0.3,3.8,0.9,6.4,0.7
		c8.8-0.7,9.2-13.3,20.6-17.6c3.6-1.4,6-1.1,10.3-3.8c0.9-0.6,3.8-2.5,6.7-6.1c3.3-4,5.4-8.7,6.7-14.2c1.2-4.9,3.4-9.8,6.2-14
		c12.2-17.5,24.6-34.8,37.3-52c13.1-17.6,24.7-36,32.1-56.8c1.6-4.5,2.9-9.1,4.3-13.6c0.4,0.1,0.9,0.3,1.3,0.4
		c-10.8,40.5-24.4,80.1-36.9,120c23-40.8,38.9-84.3,49.8-129.8c0.3,1.8,0.3,3.5-0.1,5c-7.1,31.4-13.8,62.8-21.4,94
		c-4.8,19.8-12.2,38.8-23.2,56.1c-7.3,11.5-17.8,18.2-31.5,19.7c-6.4,0.7-12.9,1.7-19.3,2.8c-11.5,1.9-22.1,6.1-32.6,13.2
		c20.5-2.8,40-5.6,59.5-8.3c0.2,0.5,0.4,1,0.6,1.5c-5.8,3.6-11.3,7.5-17.3,10.7c-24,12.6-49,20.1-76.7,18.5
		c-16.2-0.9-31.2,4.8-42.9,17c-2.2,2.3-3.8,5.2-5.6,7.8c0.4,0.6,0.8,1.2,1.2,1.8c2.3-0.7,4.7-1.1,6.7-2.3c2.6-1.5,4.7-3.7,7.1-5.5
		c14.1-10.4,30.3-12.3,47.1-11.1c15.1,1,29.5-1.4,43.5-7.2c8.8-3.7,17.7-7.2,26.6-10.8c-8.5,6.9-17.6,13-26.5,19.1
		c-8.6,5.9-18.2,8.9-28.6,9.7c-6.8,0.5-13.6,0.8-20.5,1.1c-16.1,0.7-29.8,6.2-40.1,19.3c-2.1,2.6-5.8,4.2-9,5.6
		c-8.9,3.7-18.1,6.6-26.8,10.8c-4.2,2-7.9,5.6-10.9,9.2c-3.5,4.1-2.7,7.8,1.2,11.5c4.2,4.1,9.6,5.6,15.2,5.3
		c8.8-0.4,17.6-1.2,26.4-2.1c3.8-0.4,5.4,0.7,4.2,4.2c-1.5,4.2,0.3,7.1,2.8,10c6.2,7.1,14.4,7.8,23,6.7c13.9-1.9,24.5-9.1,32-20.9
		c6.6-10.4,15.7-17.6,27.6-21c6.4-1.8,12.8-3.7,19.4-4.7c20.6-3,37.8-12,50.4-28.5c9.3-12.2,17.6-25.1,26.3-37.7
		c1.2-1.7,2.2-3.4,3.3-5.2c-1.6,26-10.7,48.2-31.1,64.7c-11.3,9.1-24.8,12.4-39.1,13.6c-6.8,0.6-13.8,1.1-20.1,3.4
		c-15.5,5.8-22,19-25.2,34.2c-2.8,13.2-13.7,21.4-27.1,20.2c-8.2-0.7-11.3,3-9.1,11c-2.2,0.8-4.6,1.7-6.8,2.6
		c-6.2,2.5-12.2,5.6-15.7,11.7c-0.8,1.5-0.4,3.7-0.5,5.5c1.9-0.2,4.3,0.3,5.5-0.7c10-8.2,21.7-8,33.7-8c11.6,0,23.3-0.3,34.8-1.8
		c18.5-2.4,34.6-11.5,51-19.6c1.9-1,3.8-2.2,6.5-3.7c-9.9,22.2-36.4,37.7-59.6,35.7c-6.8-0.6-13.6-1.2-20.4-1.9
		c-14.7-1.6-27.8,2.2-40.2,10.5c-9.8,6.6-15.2,14.5-13.2,25.7c-4.2,2.5-8.9,4-11.7,7.1c-10.1,11.6-6.3,25.2,8,30.9
		c3.5,1.4,7.1,2.9,10.6,4.5c2.6,1.2,3.5,3.2,2.3,6.2c-3.4,8.6-2.6,17.4-0.2,26c3.3,11.9,11.7,17,23.9,14.8c2.4-0.4,4.9-1.1,7.2-2
		c6.3-2.7,11.3-2.8,16.7,3.2c9.4,10.6,22.1,12.1,35.4,8.8c3.1-0.8,6.1-1.5,9.2-2.3c-0.5,2.9-1.6,4.7-2.7,6.5
		c-3.3,5.7-5.1,12-2.8,18.2c2.1,5.6,1,10.4-1.1,15.4c-1.6,3.8-3.1,7.8-4.9,11.5c-4.5,9.6-3.3,17.9,3.8,26
		c11.8,13.5,28.3,12.6,37.9-2.6c4-6.3,4.3-6.8,11-3.2c15.7,8.3,31.9,8.1,48.6,4.6c3.2-0.7,7.7-0.1,10.3,1.7c6.9,5,13.9,6,21.7,3.8
		c3.3-0.9,6.1-1.2,8.5,2.7c1.6,2.5,5.2,4.5,8.2,5.2c6.1,1.3,12.5,2.1,18.7,2.2c5.2,0.1,9.6,1.6,14,4.3c5.6,3.5,11,6.2,20.7,10.9
		c11,5.4,14.4,5.7,15.8,5.7c2,0.1,7.7,0.2,13.5-3.3c0.9-0.5,4.9-3.1,8-8.2c1.6-2.6,3-5,2.7-7.6c-0.5-4.4-5.4-6.5-10.9-9.9
		c-6.7-4.2-13.6-11.2-27.3-25.2c-3.7-3.8-6.6-7-8.3-8.8c11.4-4.9,14.7-13,14.7-23.8c0-11.8,1.2-23.6,2.2-35.4c0.2-1.8,2-4.1,3.8-5
		c9.1-5.1,14.8-12.8,17.8-22.6c1.2-4,2.7-8,3.1-12.1c1.9-17.5,3.4-35.1,5.3-52.7c0.4-3.6,1.3-7.8,3.4-10.5
		c6.3-8.1,10.6-16.9,12.3-27c2.1-11.8,4.4-23.6,5.8-35.5c0.9-7.5,4-12,10.8-15.2c15.3-7,24.6-19.1,28.1-35.4
		c2.1-9.6,3.8-19.3,4.8-29.1c0.7-7.4,3.9-12.6,9.7-17c12.5-9.4,19.2-22.1,20.9-37.8c1.8-16.9,4-33.8,5.8-50.6
		c0.4-3.9,1.8-6.1,5.6-7.7c13.6-5.5,20.4-16,20.8-30.6c0.1-3.3,0-6.7-0.1-10c-1.3-32-2.5-63.9-3.8-95.9c-0.2-5.8-1.1-11.6-1.1-17.4
		c0-2.2,1.1-4.8,2.5-6.5c10.7-12.1,25.3-9.3,39.9-10.6c-1.2,3-1.8,5.2-2.8,7.2c-3.2,6.4-6.5,12.8-9.6,19.2c-1.9,4.1-3.1,8.8,1,11.9
		c4,3,7.9,1.1,11.1-2.2c0.7,3.9,0.8,8.1,2.5,11.4c0.6,1,6-0.6,8.2-0.9c2.5,2.6,4.6,6.5,7.7,7.6c3.9,1.4,7.2-1.5,8.4-4.8
		c1,1.2,2.6,3.9,3.5,3.7c2-0.5,4.1-2.1,5.2-3.9c1-1.5,0.8-3.8,1-5.8c0.1-2.2,0-4.4,0-8.1c3.1,9.3,7.9,13.2,13.2,11.8
		c5.1-1.4,6-4.9,4.2-16.9c1.1,1.3,1.8,2.1,2.5,3c3.6,4.3,8.5,6,11.8,4c3-1.8,3.3-6.5,0.6-11.8c-1.6-3.2-3.4-6.3-5.3-9.8
		c2.7,2.4,4.6,4.9,7.1,6.3c2.4,1.4,5.4,2.3,8.2,2.4c1.5,0.1,4-1.6,4.5-3.1c0.5-1.4-0.5-3.8-1.6-5.2c-2.1-2.6-4.8-4.6-7.1-7
		c-6-6.1-10.7-13-14.2-22.3c6.2,4.2,11.1,8.3,16.6,11c6.3,3.2,13,5.6,19.8,7.6c3.8,1.1,6.5-1.9,8.1-5.3
		C663,293.9,662.9,290.9,660.4,288.4L660.4,288.4z"/>
	<g>
		<path d="M343.7,23.8C343.7,23.8,343.8,23.8,343.7,23.8C343.7,23.7,343.7,23.7,343.7,23.8z"/>
		<path d="M387.6,280.9l0.4,0.3c-0.1-0.1-0.2-0.2-0.3-0.4L387.6,280.9L387.6,280.9z"/>
		<path d="M660.4,288.4c-3.8-3.8-7.4-7.8-11.6-11c-13.1-9.9-22.3-22.2-28.4-37.7c-7.4-19-18.2-35.7-38-44.4
			c-1.5-0.7-3.5-2.2-3.8-3.7c-1.2-5.4-1.9-10.9-2.8-16.5c0.2-1.3,1.8-12.6-5.9-20c-9-8.7-24.8-6.2-32.1,1.7
			c-5.1,5.5-5.4,12.9-5.5,15.7c-0.2,3.6-0.4,9.9,3.5,13.6c1.5,1.4,2.7,1.5,3.7,3.1c2,3.3,0.2,7.9-0.7,10.1
			c-3.7,9.9-4.2,20.4-3.9,25.2c0.8,11.5,8.1,13.2,6.9,20.2c-1.1,6.8-7.5,10-26.4,17.9c-48.1,20-48.2,23.4-54.5,21.3
			c-6.6-2.3-16.4-23-35.7-64.3c0,0-7-20.9-20.4-32.7c-6.2-5.4-13.8-9.1-18.1-16.6c-0.8-1.4-2.9-2.1-4.5-3c-2.2-1.1-4.8-1.8-6.7-3.2
			c-4.6-3.5-9.4-4.8-14.9-2.6c-3.3,1.3-6.4,0.7-10-3c3.8-0.4,6.5-0.7,9.2-0.9c7.5-0.5,11.2-3.4,13.4-10.5c2-6.4,0.7-12.8-5.3-15.7
			c-7.6-3.6-8.8-8.3-6-15.3c0.2-0.4,0-1.1,0.2-1.5c0.8-1.2,1.6-2.9,2.7-3.4c8.5-3.6,10.5-11.7,4.8-19.1c-1.2-1.6-1.3-4.2-1.9-6.3
			l1.5-0.5c0.3,0.7,0.9,1.6,2,2.4c2.8,2.2,6.2,1.4,6.8,1.2c0.8-1.4,2-3.6,3-6.4c0.7-2,0.2-2.5,1.1-3.5c5.9-6,5.8-7.6-0.5-12.9
			c-0.7-0.6-1.5-1.2-2.5-2.1c3.9-1.6,7-3.9,4.3-7.9c-1.8-2.7-4.9-4.6-7.1-6.5c1.4-0.7,5.3-2.6,7.4-7c0.8-1.6,1.1-3,1.2-4.2
			c-0.6-0.5-1.5-1.2-2.7-2c-3.1-2-7.1-4.7-12.2-5c-2.9-0.2-4.2,0.5-5.8-0.6c-1.2-0.9-2.1-2.6-1.7-4c0.5-1.6,2.3-1.6,3.2-3.1
			c1-1.7-1.1-5.2-1.9-7.9c-0.8-0.6-0.6-1.4-0.3-2.2c1.9-5.6,0.6-7.5-5.3-7C353.8,7,350,8.7,346,10.7c-1.1,0.5-2,1-2.5,1.4
			c0.5-1,1.1-2.6,1.3-4.5c0.3-2.5-0.2-4.5-0.5-5.7c-1.7,0.2-3.7,0.6-5.8,1.3c-5.3,1.8-9,4.7-11.3,6.8c0.1-0.2,1-2.5-0.1-4.1
			c-1-1.4-3-1.3-4.5-1.3c-2.6,0.1-4.6,1.3-5.6,2.1c-0.1-0.7-0.5-2.6-2-4.4c-1.3-1.5-2.9-2.1-3.6-2.3c-0.6,0.4-5.5,3.8-5.9,9.9
			c-0.3,4.1,1.6,7,2.2,8c-1.6,0.4-3.7,0.7-5-0.4c-1.4-1.2-0.9-3.4-1.3-6.1c-0.3-2.2-1.3-5.3-4.2-8.9c-0.5,0-4.6,0.5-7.1,4.2
			c-2.6,3.8-1.2,7.9-1.1,8.4c-0.5-1.2-1.2-2.8-2.6-4.4c-2.2-2.6-4.7-3.9-6.2-4.5c-1.3,1.1-3,2.8-4.3,5.2c-3.3,6.2-2,13.2-3.1,13.3
			c-0.2,0-0.7-0.8-1.6-2.3c-0.7-1.1-1.2-2.1-1.5-2.8c-3.6,4.6-5,8.7-5.5,11c-0.6,2.6-1,5.7-1.1,6.5c-0.2,2.2-0.3,4.2-0.4,5.6
			c-0.4,0-0.7,0-1.1,0c-0.2-0.8-0.4-1.5-0.5-2.3c-0.8-3.4-2.8-5.8-6.5-5.8c-4,0-3.9,3.3-4.5,6c-0.8,3.8-1.8,7.5-2.8,11.2
			c-1.6-6.6-8-11.8-15.4-11.3c-0.8,0.8-2.5,2.9-2.9,6.1c-0.2,1.8,0,3.3,0.3,4.2c-4.5-0.7-8.4-0.6-11.2-0.4c-3,0.2-7.4,0.7-12.6,3
			c-1.7,0.8-3.1,1.5-4,2.1c0.9,1.4,2.8,3.8,5.9,5.8c3.8,2.4,7.5,2.9,9.3,2.9c-1,0.7-3,2.2-4.2,5c-0.6,1.5-1.6,3.9-0.4,5.9
			c1.1,1.8,3.5,2.7,6.1,2.3c-0.4,2.4-0.8,4.8-1.2,7.2c2.9,0.4,6.7,0.6,11-0.3c1.3-0.3,2.5-0.6,3.6-1c-0.2,0.5-0.6,1.5-0.5,2.8
			c0.1,1.2,0.5,2.1,0.7,2.6c1.1-0.2,3.3-0.6,5.2-2.4c1.6-1.4,2.5-3.6,3.8-5.6c1.2,3.8,2.2,7.1,3.3,10.8c-4.5,2.7-7.4,6.4-5.6,12.2
			c2.1,6.8,7.3,9.3,14.1,10c-1.5,1-3,1.6-4.5,1.8c-10.4,1.6-14.1,5.1-15.4,15.7c-0.6,5-2.4,6.5-7.5,5.5c-7.4-1.4-13.4,0.8-14.8,6.9
			c-1.8,7.3-2,15.1-1.6,22.6c0.2,2.7,4.3,5.1,6.6,7.7c0.1,0.1,0,0.6-0.1,1.6c-4-1.4-7.8-2.8-11.6-4.2c-0.7,2.3-0.8,4.8-2.1,6.3
			c-5.8,7.4-6.1,14.9-0.6,22.4c1.6,2.2,3.5,4.3,5.4,6.7c-4.9,3.6-12.5,4.6-10.9,12.7c1.3,6.4,6.7,7.6,10.9,7.8
			c0.6,5.9,1,14.2,0.2,24.1c-0.4,5.4-1.1,10.2-5.5,29c-7.9,34-10.8,41-13.2,46.1c-3.6,7.4-5,8.5-10.5,17.8
			c-19,32.2-31.6,70.3-39.9,95.5c0,0-1.8,4-5.5,13.1c-2.2,5.4-5.1,10-8.8,13.7c-1.1,1.1-2.1,2-3.1,2.8c-6.2,4.7-11.9,7-13.7,7.7
			c-9.1,3.5-22.8,13.3-28.8,26.5c-1,2.3-2.1,5.8-4.1,12.8c-3.1,10.7-2.8,12.4-1.9,13.6c2.6,3.3,10.5,2.1,14.8,0.6
			c4.8-1.7,6.5-4.2,11.6-4.6c3.6-0.3,3.8,0.9,6.4,0.7c8.8-0.7,9.2-13.3,20.6-17.6c3.6-1.4,6-1.1,10.3-3.8c0.9-0.6,3.8-2.5,6.7-6.1
			c3.3-4,5.4-8.7,6.7-14.2c1.2-4.9,3.4-9.8,6.2-14c12.2-17.5,24.6-34.8,37.3-52c13.1-17.6,24.7-36,32.1-56.8
			c1.6-4.5,2.9-9.1,4.3-13.6c0.4,0.1,0.9,0.3,1.3,0.4c-10.8,40.5-24.4,80.1-36.9,120c23-40.8,38.9-84.3,49.8-129.8
			c0.3,1.8,0.3,3.5-0.1,5c-7.1,31.4-13.8,62.8-21.4,94c-4.8,19.8-12.2,38.8-23.2,56.1c-7.3,11.5-17.8,18.2-31.5,19.7
			c-6.4,0.7-12.9,1.7-19.3,2.8c-11.5,1.9-22.1,6.1-32.6,13.2c20.5-2.8,40-5.6,59.5-8.3c0.2,0.5,0.4,1,0.6,1.5
			c-5.8,3.6-11.3,7.5-17.3,10.7c-24,12.6-49,20.1-76.7,18.5c-16.2-0.9-31.2,4.8-42.9,17c-2.2,2.3-3.8,5.2-5.6,7.8
			c0.4,0.6,0.8,1.2,1.2,1.8c2.3-0.7,4.7-1.1,6.7-2.3c2.6-1.5,4.7-3.7,7.1-5.5c14.1-10.4,30.3-12.3,47.1-11.1
			c15.1,1,29.5-1.4,43.5-7.2c8.8-3.7,17.7-7.2,26.6-10.8c-8.5,6.9-17.6,13-26.5,19.1c-8.6,5.9-18.2,8.9-28.6,9.7
			c-6.8,0.5-13.6,0.8-20.5,1.1c-16.1,0.7-29.8,6.2-40.1,19.3c-2.1,2.6-5.8,4.2-9,5.6c-8.9,3.7-18.1,6.6-26.8,10.8
			c-4.2,2-7.9,5.6-10.9,9.2c-3.5,4.1-2.7,7.8,1.2,11.5c4.2,4.1,9.6,5.6,15.2,5.3c8.8-0.4,17.6-1.2,26.4-2.1c3.8-0.4,5.4,0.7,4.2,4.2
			c-1.5,4.2,0.3,7.1,2.8,10c6.2,7.1,14.4,7.8,23,6.7c13.9-1.9,24.5-9.1,32-20.9c6.6-10.4,15.7-17.6,27.6-21
			c6.4-1.8,12.8-3.7,19.4-4.7c20.6-3,37.8-12,50.4-28.5c9.3-12.2,17.6-25.1,26.3-37.7c1.2-1.7,2.2-3.4,3.3-5.2
			c-1.6,26-10.7,48.2-31.1,64.7c-11.3,9.1-24.8,12.4-39.1,13.6c-6.8,0.6-13.8,1.1-20.1,3.4c-15.5,5.8-22,19-25.2,34.2
			c-2.8,13.2-13.7,21.4-27.1,20.2c-8.2-0.7-11.3,3-9.1,11c-2.2,0.8-4.6,1.7-6.8,2.6c-6.2,2.5-12.2,5.6-15.7,11.7
			c-0.8,1.5-0.4,3.7-0.5,5.5c1.9-0.2,4.3,0.3,5.5-0.7c10-8.2,21.7-8,33.7-8c11.6,0,23.3-0.3,34.8-1.8c18.5-2.4,34.6-11.5,51-19.6
			c1.9-1,3.8-2.2,6.5-3.7c-9.9,22.2-36.4,37.7-59.6,35.7c-6.8-0.6-13.6-1.2-20.4-1.9c-14.7-1.6-27.8,2.2-40.2,10.5
			c-9.8,6.6-15.2,14.5-13.2,25.7c-4.2,2.5-8.9,4-11.7,7.1c-10.1,11.6-6.3,25.2,8,30.9c3.5,1.4,7.1,2.9,10.6,4.5
			c2.6,1.2,3.5,3.2,2.3,6.2c-3.4,8.6-2.6,17.4-0.2,26c3.3,11.9,11.7,17,23.9,14.8c2.4-0.4,4.9-1.1,7.2-2c6.3-2.7,11.3-2.8,16.7,3.2
			c9.4,10.6,22.1,12.1,35.4,8.8c3.1-0.8,6.1-1.5,9.2-2.3c-0.5,2.9-1.6,4.7-2.7,6.5c-3.3,5.7-5.1,12-2.8,18.2
			c2.1,5.6,1,10.4-1.1,15.4c-1.6,3.8-3.1,7.8-4.9,11.5c-4.5,9.6-3.3,17.9,3.8,26c11.8,13.5,28.3,12.6,37.9-2.6c4-6.3,4.3-6.8,11-3.2
			c15.7,8.3,31.9,8.1,48.6,4.6c3.2-0.7,7.7-0.1,10.3,1.7c6.9,5,13.9,6,21.7,3.8c3.3-0.9,6.1-1.2,8.5,2.7c1.6,2.5,5.2,4.5,8.2,5.2
			c6.1,1.3,12.5,2.1,18.7,2.2c5.2,0.1,9.6,1.6,14,4.3c5.6,3.5,11,6.2,20.7,10.9c11,5.4,14.4,5.7,15.8,5.7c2,0.1,7.7,0.2,13.5-3.3
			c0.9-0.5,4.9-3.1,8-8.2c1.6-2.6,3-5,2.7-7.6c-0.5-4.4-5.4-6.5-10.9-9.9c-6.7-4.2-13.6-11.2-27.3-25.2c-3.7-3.8-6.6-7-8.3-8.8
			c11.4-4.9,14.7-13,14.7-23.8c0-11.8,1.2-23.6,2.2-35.4c0.2-1.8,2-4.1,3.8-5c9.1-5.1,14.8-12.8,17.8-22.6c1.2-4,2.7-8,3.1-12.1
			c1.9-17.5,3.4-35.1,5.3-52.7c0.4-3.6,1.3-7.8,3.4-10.5c6.3-8.1,10.6-16.9,12.3-27c2.1-11.8,4.4-23.6,5.8-35.5
			c0.9-7.5,4-12,10.8-15.2c15.3-7,24.6-19.1,28.1-35.4c2.1-9.6,3.8-19.3,4.8-29.1c0.7-7.4,3.9-12.6,9.7-17
			c12.5-9.4,19.2-22.1,20.9-37.8c1.8-16.9,4-33.8,5.8-50.6c0.4-3.9,1.8-6.1,5.6-7.7c13.6-5.5,20.4-16,20.8-30.6
			c0.1-3.3,0-6.7-0.1-10c-1.3-32-2.5-63.9-3.8-95.9c-0.2-5.8-1.1-11.6-1.1-17.4c0-2.2,1.1-4.8,2.5-6.5c10.7-12.1,25.3-9.3,39.9-10.6
			c-1.2,3-1.8,5.2-2.8,7.2c-3.2,6.4-6.5,12.8-9.6,19.2c-1.9,4.1-3.1,8.8,1,11.9c4,3,7.9,1.1,11.1-2.2c0.7,3.9,0.8,8.1,2.5,11.4
			c0.6,1,6-0.6,8.2-0.9c2.5,2.6,4.6,6.5,7.7,7.6c3.9,1.4,7.2-1.5,8.4-4.8c1,1.2,2.6,3.9,3.5,3.7c2-0.5,4.1-2.1,5.2-3.9
			c1-1.5,0.8-3.8,1-5.8c0.1-2.2,0-4.4,0-8.1c3.1,9.3,7.9,13.2,13.2,11.8c5.1-1.4,6-4.9,4.2-16.9c1.1,1.3,1.8,2.1,2.5,3
			c3.6,4.3,8.5,6,11.8,4c3-1.8,3.3-6.5,0.6-11.8c-1.6-3.2-3.4-6.3-5.3-9.8c2.7,2.4,4.6,4.9,7.1,6.3c2.4,1.4,5.4,2.3,8.2,2.4
			c1.5,0.1,4-1.6,4.5-3.1c0.5-1.4-0.5-3.8-1.6-5.2c-2.1-2.6-4.8-4.6-7.1-7c-6-6.1-10.7-13-14.2-22.3c6.2,4.2,11.1,8.3,16.6,11
			c6.3,3.2,13,5.6,19.8,7.6c3.8,1.1,6.5-1.9,8.1-5.3C663,293.9,662.9,290.9,660.4,288.4L660.4,288.4z M132.3,668.1
			c-6.5,14.1-16.4,18.6-32.7,16.8c-3.3-0.4-6.4-2.8-9.6-4.3c0.2-0.5,0.4-1,0.7-1.5c3.2-0.5,6.6-0.7,9.7-1.5
			c12.5-3.2,20.1-11.8,25.3-23c3.6-7.6,9.4-12.8,16.8-16.5c2-1,4.2-1.6,6.9-1.9C139,644.5,137.3,657.1,132.3,668.1L132.3,668.1z
			 M615.4,242.2c-1.5,0.8-3.4,2.6-4.4,2.2c-4-1.7-7.7-4.1-11.5-6.2c0.3-0.6,0.6-1.2,0.9-1.8c4.3,1,8.5,1.9,12.7,3.1
			C614.1,239.7,614.7,241.3,615.4,242.2L615.4,242.2z M541.1,218c1-13.3,4.4-26.2,10-38.4c0.5-1,0.7-2.2,1-3.3
			c-7.7-5.5-11,1.4-15.3,5.4c-1.3-6.2,3.6-7.4,7.1-9.5c-3.9-4.9-1.8-12.2,4-15.1c8-4.1,16.7-1.4,19.7,7.1c2,5.6,2.4,11.6,3.5,17.5
			c0.6,3.1,0.8,6.3,1.5,9.4c1.2,5.3,3,9.3,9.6,10.8c5.2,1.1,9.8,5.3,14.2,8.7c1.4,1.1,2.2,4.5,1.5,6.2c-0.5,1.3-3.6,1.8-5.7,2.3
			c-3.1,0.7-6.3,1.5-9.4,1.3c-4.5-0.3-8.9-1.5-13.5-2.3c-0.2,1.8,0,3.7,3.5,4.4c7.9,1.4,15.7,2.3,23.6,0.2c0.8-0.2,1.9,0.3,2.8,0.5
			c0.1-3.1,1.3-4.3,3.7-1.6c2.1,2.5,3.7,5.4,5.7,8.4c-3.1-1.9-5.8-3.5-8.6-5.2c0.2,2.3,0.5,4.6,0.9,8.3c-2.5-1.8-3.6-2.6-4.8-3.5
			c-0.1,0.8-0.2,1.5-0.2,2.2c-2.9-0.4-5.7-0.9-8.9-1.4c0-0.1-0.2,0.7-0.5,2c-1.6-1.2-3-2.3-4.5-3.4c-0.3,0.7-0.6,1.4-1,2.4
			c-1.5-1.3-2.8-2.5-4.1-3.6c-1.8,3.8-3.8,1.9-5.3,0.1c-4.6-5.5-7.7-11.6-7.6-19c0-1.8,0.2-3.6,0.2-5.7c-2.7,3.5-3.3,9.9-1.3,17.6
			c1.4,5.8,3.2,11.5,5.1,18.1c-1.5-1-2.3-1.4-3.3-2v2.5c-0.3,0-0.6,0-0.9,0c-2.2-0.1-4.3-0.1-6.5-0.2c-1-0.1-2.1,0-3-0.4
			C544.2,234.3,540.3,229,541.1,218L541.1,218z M541.9,178.9c0.1-0.3,1.4-3.1,3.8-3.4c1.3-0.1,2.9,0.4,2.9,1
			C548.7,177,547.3,177.8,541.9,178.9z M369.1,166.8c4.7,2.7,9.9,4.7,12.3,10.3c2.3,5.5,5.2,10.7,7.8,16.1
			c3.1,5.9,6.3,11.7,9.4,17.6c-0.4,0.2-0.8,0.4-1.2,0.6c-2.8-5.4-5.5-10.8-8.3-16.1c3.3,9.4,6.6,18.7,9.9,28.1
			c-0.4,0.2-0.8,0.4-1.2,0.6l-20-41.1c-0.3,0.1-0.6,0.2-0.9,0.3c0.6,1.5,1.2,2.9,1.8,4.4c0.7,1.7,1.4,3.4,2.2,5
			c8.4,16.8,17.1,33.4,25,50.5c2.7,5.9,3.8,12.6,4.7,19.2c0.7,5-1.3,9.7-4.5,13c0.5-6.2,1.1-12.8,1.7-19.4l-2-0.5
			c-2.5,11.1-7.6,20.5-16.5,28.1c2.5-5.7,4.9-11,7.2-16.3c-0.5-0.4-1-0.7-1.4-1.1c-5.6,4.3-11.1,8.6-17.1,13.2c2.1-4.6,4-8.9,6-13.1
			c-0.3-0.2-0.5-0.4-0.8-0.6c-2.5,2.8-4.9,5.6-8.2,9.4c0.2-4.4,0.4-7.5,0.5-10.9c-2.3,3.4-4.4,6.4-7.1,10.3
			c3.6-22.4,7-43.4,10.4-64.3c1.6,6.6,3.4,13.5,5.1,20.4c-1-22.6-11.6-42.2-20.4-63.4C366,166.9,368,166.1,369.1,166.8L369.1,166.8z
			 M238.1,476c-7-16.9,9.4-33,28.6-31.6c-1.1,1.7-2.2,3.2-3.2,4.8c8.5-4.6,17-9.1,25.3-13.6c-0.2,0-1-0.2-3.1-0.5
			c9.3-5.7,17.6-11,26.1-16.1c17.2-10.5,34.6-20.5,51.5-31.4c5.3-3.4,9.2-8.9,13.8-13.4c0,0,0,0-0.1,0.1c10.4-10.9,19.2-23,25-37.3
			v6.5c0.3,0,0.6,0,0.8,0v-17.6c1.7,2.2,3.3,3.4,3.5,4.8c0.7,4.4,2,9,1.1,13.2c-6.4,29.8-21.5,53.6-48.9,68.2
			c-16.6,8.8-33.6,16.7-50.5,25c-22.8,11.2-46.4,20.9-66.6,36.8c-0.4-0.3-0.8-0.5-1.2-0.8c1.7-2.7,3.2-5.5,5.1-8
			c1.9-2.7,4.2-5.1,6.3-7.6C245.6,462,239.8,467,238.1,476L238.1,476z M261.7,284.8c5.1-3.4,7.6-7.7,7.8-14.1
			c0.2-5.8,2.1-11.4,2.8-17.2c2.1-17-1.2-33.5-5.7-49.8c-0.8-3-1.6-6-2.4-9.1c0.5-0.2,0.9-0.5,1.3-0.7c9.5,15,19,30,28.4,45
			c0.3-0.1,0.5-0.3,0.8-0.4c-6-10.6-11.9-21.2-17.9-31.8c0.3-0.2,0.6-0.4,0.9-0.5c15.3,16.8,30.7,33.6,46,50.4l0,0
			c2.7,5.7,5.4,11.5,8.1,17.2c-0.5,0.3-1,0.5-1.5,0.8c-3.5-4.3-6.9-8.5-10.4-12.9c2.9,9.3,5.8,18.3,8.6,27.3
			c-0.3,0.1-0.5,0.1-0.8,0.2c-3.7-5.8-7.3-11.6-11-17.4c-0.4,0.2-0.9,0.5-1.3,0.7c2.3,7,4.5,14,7.2,22.3c-5-7.2-9.2-13.2-14.1-20.2
			c-1,4,2.2,8-2.7,9.7c-1.4-1.5-2.8-3-4.1-4.6c-0.5,0.2-0.9,0.5-1.4,0.7c2.4,5.4,4.8,10.8,7.2,16.2c-0.3,0.4-0.6,0.7-1,1
			c-5.6-6.1-11.1-12.2-16.7-18.2c-0.4,0.3-0.8,0.5-1.2,0.8c2.7,4.5,5.4,9.1,8.2,13.6l-0.5,0.7c-4.1-3.7-8.3-7.3-12.6-11.2
			c0,0.7,0.1,1.3,0.1,1.9c-0.3,0.3-0.5,0.5-0.8,0.8c-1.2-1.5-3.4-2.8-3.6-4.4c-1-8-1.7-16.1-1.9-24.2c-0.2-5.8,0.8-11.6,0.8-17.5
			c0-5.6-0.7-11.2-2.1-16.8v65c-1.9-3-3.7-5.9-5-8c-2.3,2.9-4.7,5.7-7,8.6c2.2-1.2,4.3-2.3,7.2-3.9c1,3.5,6.1,5.1,4.1,10.2
			c1.7,0.5,3.3,1,5,1.5c-0.1,0.7-0.1,1.4-0.2,2.1c-3.8,0.6-7.6,1.3-11.4,1.9c-0.1-0.5-0.3-1-0.4-1.5c2-1.2,3.9-2.5,5.9-3.7
			c-1.8,0.5-3.5,1.4-5.2,1.3c-1.7-0.1-3.8-0.8-4.9-2c-1.6-1.7-3.5-4-0.6-6.4c-1.2-0.2-2.5-0.5-3.7-0.7
			C260.5,286.8,260.8,285.4,261.7,284.8L261.7,284.8z M253.9,282.9c4.6-4.8,8.4-8.8,12.5-13.1C266.7,277,261.8,282.6,253.9,282.9z
			 M284,301.5c-5.5,4.3-8.4,4.6-13.9,1C275.2,302.2,279.6,301.9,284,301.5z M265.1,377.3c4-8,8-16.1,12-24.2
			c3.7-7.4,6.5-15,6.3-23.4c-0.1-2.3,0.4-3.3,3.3-3.6c2.8-0.3,5.4-2.5,8.1-3.8c1.6-0.8,3.2-1.6,6-3c-0.9,6.7-1.6,12.4-2.3,18
			c0.2,0,0.4,0.1,0.5,0.1c1.1-4.6,2.2-9.3,3.3-13.9c0.8-3.4,3.1-5.8,7-7.4v13.8c2.5-5.5-0.4-12.2,6.2-17.2c0.4,4,0.8,6.8,1.1,9.6
			c0.2,0,0.4,0.1,0.7,0.1c0.3-2.5,0-5.3,1-7.5c0.8-1.9,3-3.3,4.6-4.9c0.7,0.3,1.4,0.7,2,1c-3,15.5-6,31.1-9.1,46.6
			c0.3,0.1,0.6,0.1,0.9,0.2c2.4-11.7,4.9-23.3,7.3-35c0.6-2.9,0.6-6,1.6-8.8c1-2.8,2.7-5.3,4.1-7.9c0.9,0.3,1.8,0.5,2.7,0.8
			c-2.5,31.4-5.1,62.8-7.6,94.2c0.1,0,0.2,0.1,0.4,0.1c0.6-3.7,1.3-7.3,1.8-11c0.5-4,0.8-8,1.1-12c1.9-22.9,3.9-45.8,5.7-68.7
			c0.3-3.2,0.7-6,5.1-6.2c0.3,1.2,0.5,2.4,0.8,3.6c0.9-1.9,1.8-3.9,2.8-5.8c0.5,0.2,1,0.3,1.5,0.5c0.5,6.8,1.1,13.6,1.6,20.5
			c0.1,0,0.1,0,0.2,0c0-5.6,0.1-11.3,0-16.9c0-3.4,1.1-5.5,5.8-5.2c1,8.3,2,16.7,3,25.2c0.2,0,0.5,0,0.7-0.1
			c-0.5-6.9-1.1-13.8-1.4-20.8c-0.1-1.6,1.1-3.3,1.7-5c1.2,1.5,3.1,2.8,3.4,4.4c1.6,10.3,2.8,20.7,5.1,30.9
			c-1.5-11.6-2.9-23.2-4.4-34.8c5.1-1.6,6.4,0.9,7,4.1c1.9,10,3.8,20,5.7,29.9c0.3,1.6,0.8,3.2,1.7,4.7c-2.1-12.7-4.2-25.3-6.4-38.2
			c5.4-0.3,5.9,2.8,6.6,6.3c2.9,14.2,5.4,28.5,9.4,42.4c2.1,7.3,3.7,13.3-2.6,19.1c-1.7,1.6-2.7,4.1-3.9,6.2
			c-1.5,1.2-2.8,2.5-4.4,3.6c-8.7,6.4-17.2,13.3-26.3,19c-11.2,7-23.1,13.1-34.7,19.4c-2,1.1-4.4,1.5-6.7,2.3l0-0.1
			c-2.9,2.6-5.3,5.9-8.6,7.8c-14.8,8.5-31,13.6-47.4,18.3c-2.9,0.8-7.5,3.2-8.6-1.1c-0.8-3,1.1-8.6,3.6-9.9
			c6.2-3.5,7.3-8.8,7.9-14.6C253.5,404.2,258.5,390.5,265.1,377.3L265.1,377.3z M390.3,351.4c0.3,1.9-0.4,3.9-1.4,5.9
			c-7.1-17.3-11.7-35-12.7-53.4c0.7-0.6,1.4-1.1,2.1-1.7c0.7,1.5,1.5,2.9,2.1,4.4c1.2,3.2,2.8,6.3,3.5,9.6
			C386.3,327.8,388.3,339.5,390.3,351.4z M388.3,313.7c0.4,0,0.7-0.1,1.1-0.1c0.6,6.5,1.3,12.9,1.9,19.3c-0.2,0-0.5,0-0.7,0.1
			L388.3,313.7L388.3,313.7z M364.7,267.6c-3.7-2.3-4.8-5.2-3.4-9.6c9.7-29.2,10.5-33.9,11.3-65.7
			C379.4,205.9,374.2,253.2,364.7,267.6L364.7,267.6z M356.4,164.2c1.6,1.3,3.4,2.1,4,3.4c1.6,3.9,3.6,8.1,3.8,12.2
			c0.8,21.2-5.1,40.8-15.1,59.3c-2.9,5.4-4.3,5.3-8.8,0.7c-3.6-3.8-7.5-7.3-11.3-10.9l-0.9,0.9c6.4,6,12.9,12,19.7,18.4
			c11.9-19.5,18.2-41.5,19.5-65.9c8.5,12.3,1.8,59.8-10,75.1c-7.3-4.6,2.1-9.7-0.6-14.3c-2.1,3.3-4.2,6.6-6.9,10.7
			c12.9,14.6,26.3,29.7,39.7,44.9c-0.1,0.2-0.1,0.3-0.2,0.5c-7.2-5.6-14.5-11.1-21.8-16.7c1.4,2,2.8,4,4.7,6.7
			c-2.6,0.1-4.6,0.6-6.6,0.3c-15.1-2.4-28.3,3-41.2,9.7c-0.7,0.4-1.1,1.2-1.7,1.8c4.9-2.1,9.9-4,14.7-6.2c8.8-4,18-4.9,27.4-3.4
			c3.7,0.6,7.2,2.8,10.8,4.3c-0.1,0.4-0.2,0.8-0.3,1.2c-0.4,0.1-0.8,0.4-1.1,0.3c-16.3-4.5-31.1,0.3-45.8,7.2
			c-15.3,7.2-30.9,13.8-46.2,20.5c-3.3-4-1.9-5.4,1.2-6.7c9.7-3.9,19.4-8,29-12c-9.8,3.3-19.5,6.4-29.2,9.9c-3.9,1.4-6,0.6-7-3.8
			c1.7-0.6,3.3-1.3,5-1.9c-2.2,0.1-4.4,0.3-7.1,0.4c4.4-6.5,13.7-8.5,21.8-5.4c-2.7,1.2-5.4,2.4-8.2,3.6c9.3-2.9,18.7-5.4,27.8-8.9
			c9.4-3.5,18.1-8.4,23.1-18.1c2.5,1.6,4.6,3,7.8,5c-2.4-3.5-5.7-6.2-5.3-8.2c1.6-9.3-6-12.8-10.3-18.4l7.9,12
			c-0.4,0.3-0.8,0.6-1.1,0.9c-4.6-5.6-9.3-11.1-13.9-16.7c0.7-0.4,1.5-0.7,2.2-1.1c-16.1-18.3-32.3-36.7-48.4-55
			c-0.2,0.1-0.4,0.2-0.6,0.3c0.6,1.1,1.2,2.1,1.9,3.4c-0.6,0-1.2,0.1-1.4-0.1c-2.1-2.6-4.8-5-6.1-8c-3.1-7.4-19.6-19.2-26.8-17.8
			c-11.5,2.2-21.4,7.3-27.3,18.2c-1.5,2.8-2.9,5.6-4.5,8.6c-0.4-8.6,7.6-21.3,15.3-24.2c5.8-2.2,11.5-4.4,17.3-6.4
			c8.4-2.9,16.7-1.6,24.2,2.1c5.8,2.9,11.1,7.3,16,11.7c8.8,7.9,17.1,16.3,25.7,24.4c3.6,3.4,7.6,5.4,13,4.6
			c7.9-1.1,15.9-1.7,23.9-2.3c3.8-0.3,6-2,7.3-5.6c5-13.3,5.4-26.6,1.4-40.2c-0.3-1.1-0.8-2.2-1.1-3.3
			C355.9,165.8,356.1,165.4,356.4,164.2L356.4,164.2z M272.7,114.2c0.1-1.2,0.6-2.4,1-4.4c2.8,11.3-2.8,22.2-12.8,24.8
			c-8.3,2.2-12.9,7-14.5,15.2c-0.4,2.1-0.8,4.5-2,6.1c-1.2,1.6-3.4,3.3-5.2,3.4c-5.1,0.2-8.1,0.5-10.2,2c-1.9,1.4-1.2,2.7-4.9,8.8
			c-0.8,1.4-1.6,2.5-2.1,3.2c0.4-2.4,0.8-4.9,1.2-7.3c1.1-7.1,4.8-10.9,12-10.9c5.7,0.1,8.2-3,8.6-7.6c1-9.7,6.4-14.8,15.4-17.3
			C267.3,128.1,272.1,122.9,272.7,114.2L272.7,114.2z M266.7,67.6c1.8,3.2,3.1,5.7,4.6,8.2c-2.9,2.1-5.8,0.7-6.9-1.8
			C263.8,72.5,265.9,69.7,266.7,67.6z M264,139.2c-6.5,6-7,16.8-17.4,20.5C250.8,151.1,254.7,142.9,264,139.2z M347.8,71.7
			c-2.6-0.7-4.8-0.3-6.6,0c-1,0.2-1.5,0.3-2.1,0.6c-2.2,1.2-2.7,4.3-3,6.3c-1,6.8-2.5,18.3-2.5,18.3c-1,6.4-2.2,6.9-7.8,4.2
			c-2.1-1-4.6-1.2-7.5-1.1c0.7,1,1.8,2.3,3.3,3.5c1.4,1.2,2.8,1.9,3.9,2.4c-0.1,0.7-0.1,1.3-0.2,1.9c-0.4,0.4-0.9,0.8-1.7,0.9
			c-0.9,0.1-1.4-0.3-2.2-0.6c-0.9-0.3-2-0.2-4,0c-1.4,0.2-3.3,0.5-5.5,1.2c1.9,1.1,3.5,1.6,4.7,1.9c1.9,0.4,3.3,0.3,5.6,1.2
			c0.9,0.4,1.6,0.7,2.1,1c0.3,0.8,0.1,1.2,0,1.4c-0.5,1.1-2.5,1.7-5,1c0.1,0.5,0.4,1.1,1,1.5c1.3,0.9,3.2,0.1,4.3-0.3
			c2.9-1.2,4.7-3.5,5.7-5c-0.3-0.1-0.9-0.3-1.5-0.6c-1.2-0.7-1.5-1.3-2.5-1.6c-0.4-0.1-0.9-0.2-1.7,0.1c2.2-0.9,5.6-2.5,8.5-5.8
			c4.5-5.1,5.6-11.9,6.3-18.7l1.6-0.2c0.6,0.5,2,1.5,4,1.9c2,0.4,3.6,0,4.3-0.3c0,0.6,0.1,1.5,0.1,2.5c0,0,0,4.6-1.6,9.7
			c-3.2,10.7-9.2,19.5-17.2,27.1c-7.4,7-14.8,8.4-23.6,3c-6.5-4-12-9.3-18.6-13.9c6.5,9.4,12.3,19.3,19.7,28
			c8.7,10.2,16.6,20.4,18.7,34.1c0.2,1.5,0.8,2.6,1.6,3.3c1.1,0.8,2.6,0.7,3.5,0.6c5.2-0.8,15.5-4.8,16.8-5.3c-0.4,0-1,0-1.8,0.1
			c-5.5,0.5-13.5,3.7-15.1,3.5c-0.5,0-0.8-0.3-0.8-0.3c-0.4-0.3-0.5-0.8-0.5-1c-0.2-0.9-0.2-4,0-8.2c1.5,1.1,3.8,2.6,6.8,3.5
			c7.1,2.2,15,0.7,15.2-0.8c0-0.5-0.8-0.8-2.6-1.8c-4.8-2.4-11.1-6.1-11-6.4c0.2-0.4,8.5,0.3,14,6.4c3.8,4.3,4.3,9.2,4.9,14.5
			c0.5,5.2-1.2,10.1-3.3,20.2c-1,4.9-4.4,7.6-9.6,7.9c-7.1,0.4-14.3,1.4-21.4,1.2c-3.7-0.1-7.9-1.7-10.7-4.1
			c-9.1-7.7-17.5-16.4-26.6-24.1c-6-5.1-12.7-9.4-19.8-14.5c1.4-1.3,3.3-3.8,5.7-5.4c8.6-6,13.2-14,13.1-24.5
			c-0.2-14.4-0.3-28.9-0.9-43.3c-0.3-7.1-1.4-13.8,4.6-19.5c1.9-1.7,3.1-4.1,4.5-6.5c0.5,0.4,1.1,0.8,1.8,1.2c1.3,0.7,2.5,1,3.4,1.1
			c0.6,0.9,3.4,4.8,8.9,6.1c5.6,1.3,10-1.1,10.9-1.7c2-3.5,3.8-6.8,6-10.8c0.2,0.3-0.3-1-1.2-1.3c-8-2.8-16.2-4.4-24.4-2
			c-0.2-0.6-0.5-1.1-0.3-1.3c2.2-2.3,4.2-4.9,6.8-6.5c8.5-4.9,17.3-9.3,26.4-14.1c3.6,2.9,8.2,7.3,12.5,13.6
			c4.7,6.8,7.3,13.3,8.7,18C352.3,74.2,350.5,72.4,347.8,71.7L347.8,71.7z M311.1,30.7c-3.4,0.1-5.5,2.1-7.6,3.5
			c-2.5,1.6-6.5,3.2-12.8,3c4.1-2.5,7.7-4.3,10.4-5.5c8.6-3.8,11-3,12.3-2.3c1.2,0.7,1.9,1.7,2.3,2.5
			C314.6,31.3,313,30.7,311.1,30.7L311.1,30.7z M318.3,34.8c1.9,1.1,4,2,5.8,3.8h-16C311.5,32.3,313,31.8,318.3,34.8L318.3,34.8z
			 M304.6,36c0.3-0.3,1.4-1.5,3.2-2c0.7-0.2,1.3-0.2,1.7-0.2c-1.7,1.9-3.7,4.5-5.2,7.3c-0.2,0.3-0.3,0.6-0.2,1
			c0.4,2,7.1,2.2,12.8,2.1c-2,1.5-5,3.2-8.6,3.4c-3.3,0.2-3.9-1.1-7.2-0.7c-3.9,0.4-4.9,2.3-9.1,2.9c-2.3,0.3-4.2,0-5.5-0.2
			c0.1-1.7,0.4-2.6,0.9-3.2c1.2-1.5,2.4-2.3,3.1-2.7C299.2,39.2,303.5,37.1,304.6,36L304.6,36z M293.7,53.2c1.8,0.4,3.5,0.7,5.3,1
			c0,0.5,0.1,0.9,0.1,1.3c-3.1,0.2-6.5,1.4-9.1,0.4c-7.4-3-11.7,1.7-17.5,5c1.8-3.2,3.3-6.6,5.6-9.4c1.8-2.2,4-3.3,7.2-0.6
			C287.2,52.7,290.8,52.5,293.7,53.2L293.7,53.2z M283.1,98.3c-0.1,0.6-1.2,1.2-1.8,1.7c-1.7-1.9-3.3-3.8-5-5.7
			C280,94.3,283.6,93.9,283.1,98.3L283.1,98.3z M296.3,69.1c1-1,1.9-1.9,2.9-2.9c0,0,0,0,0,0c1.6-0.6,3.1-0.5,4-0.3
			c1.6,0.2,5,1,9.5,2.7c-0.9,0.1-1.8,0.3-2.7,0.4c-1.8-0.3-4-0.6-6.5-0.6C300.8,68.4,298.4,68.7,296.3,69.1L296.3,69.1z M355.4,53.6
			c-1.7,0.5-4.2,0.5-5.6-0.5c-5-3.7-9.6-7.8-14.4-11.8c1.3,0.6,3.3,1.6,5.8,3.1c5,3,6.4,4.7,9.5,5.3c1.5,0.3,4,0.5,7.3-0.8
			C356.9,51,356.4,53.3,355.4,53.6L355.4,53.6z M354.4,44.4c-5.3,1-9.5-1.3-13.3-4.8C346.3,39,351,40.1,354.4,44.4z M351.7,37.6
			c-7.3-4-13.2-4.8-17.4-4.7c-6.4,0.1-12.2,2.3-15.8-0.9c-1.4-1.3-2-3-2.3-4.2c4.9-0.3,12.5,0,21.2,2.8
			C343.6,32.5,348.4,35.3,351.7,37.6L351.7,37.6z M339.7,26.7c-5.2-2.2-10.6,1-15.8-0.7c-0.4-0.1-0.6-0.7-0.6-0.9
			c-3.4,0.5-6.3,0.8-9.2,1.4c-5.2,1-10.4,1.8-15.4,3.3c-2.8,0.8-5.2,2.9-7.9,4.3c-2.6,1.3-5.2,2.5-8,3.8
			C294.6,23.4,325.8,17.2,339.7,26.7L339.7,26.7z M285.9,42.6c-3.5,0.5-6,5.4-9.8,0.3c-3,3.6-5.6,6.7-8.4,10.1
			C270.5,42.4,279.2,37.3,285.9,42.6z M269.7,55.7c-0.9,8,5,8.7,10.8,9.6c-3.6,5.6-10,4.2-14.2-2.5c-3.5,1.5-7,3-11,4.7
			C260.3,60.2,265.4,55.9,269.7,55.7L269.7,55.7z M259.5,51.5c0,0,0.4,0.2,0.2,0.1c-2,5.1-3.9,10.1-5.9,15.1
			C254.1,61,255.3,55.6,259.5,51.5z M260,72.7c-1.1,3.3-2,5.9-3.3,9.6c-1.8-0.9-4.1-1.9-7.1-3.3C253.7,76.5,256.7,74.7,260,72.7
			L260,72.7z M243.9,102.9c-0.6-1.4,0.6-3.5,1.1-6c1.6,3.3,2.7,5.6,4.5,9.2C247,104.8,244.5,104.2,243.9,102.9L243.9,102.9z
			 M249.3,89.7c-0.4-0.3-0.7-0.6-1.1-0.9c0.5-2.6,0.9-5.2,1.4-7.8c0.4-0.2,0.7-0.3,1.1-0.5c0.5,1.9,1.5,3.8,1.4,5.7
			C252,87.4,250.3,88.5,249.3,89.7L249.3,89.7z M250.5,101.2c-1.6-4.1,1.3-10.5,4.3-11.1c0.5-0.1,1.5,0.2,1.7,0.5
			c0.3,0.6,0.5,1.7,0.2,2.2C254.9,95.4,252.9,98,250.5,101.2L250.5,101.2z M215,146.2c2.6-3.6,6.2-4.8,10.6-3.3
			c6.9,2.2,12.8-1.3,12.7-8.7c-0.2-9.4,4.6-13.5,12.7-16.6c4.9-1.8,8.8-6,13.2-9.2c0.1,1.1,0.1,2.6-0.5,4.2
			c-2.5,7.7-13.1,9.9-12.6,12.3c0.1,0.6,0.9,1.2,3.8,1.5c-0.6,0.4-1.5,1-2.6,1.6c-3.7,2-5.3,1.5-7.4,2.6c-1.8,0.9-3.2,3.7-6.1,9.2
			c-2.9,5.5-2.7,6.2-4.2,7.5c-3.3,2.9-8.6,3.8-10.7,1.8c-1.1-1.1-0.9-2.5-1.9-2.9c-1.4-0.4-3.3,1.7-4.3,3.2c-2,3.4-1,7.2-0.6,8.6
			C213.3,154.2,212.5,149.5,215,146.2L215,146.2z M206.4,194.2c-4.4-3.9-3.9-7.4-2-10.7c2.4-4.5,9.9-6.6,17.3-4.6
			C214.1,181.2,208.5,185.5,206.4,194.2L206.4,194.2z M93.2,516.8c-0.9,5-0.9,8.2-3.5,10.3c-1.9,1.6-4.6,2.2-5.3,1.4
			c-0.7-0.8,0.5-2.6,2.7-7.8c1-2.5,1.8-4.5,2.3-5.9c0.3-1.8,1.3-5.5,4.5-8.5c0.9-0.9,1.8-1.5,2.7-2
			C94.7,509.6,93.7,513.8,93.2,516.8L93.2,516.8z M239,304.6c-4.2,10.6-9.9,20.7-14.8,31.1c-1.7,3.6-3.5,7.3-4.2,11.1
			c-2.8,16.3-9.9,30.7-19,44.2c-15.2,22.5-30.8,44.7-45.9,67.3c-4.8,7.1-9.1,12.6-11.8,21.4c-2.8,9.2-1,11.8-4.6,16
			c-5.3,6.1-13.8,6-20.2,11.9c-2.8,2.6-5.4,5.5-5.4,5.5c-1.4,1.7-2.6,3.2-3,3.7c-1.1,1.4-1.8,2.3-2.6,3.5c-2,2.9-2,3.5-2.9,3.8
			c-1.6,0.5-3.9-0.9-4.5-2.7c-0.3-1,0.2-2.5,1.3-5.5c0.8-2.1,1.3-3.1,1.3-3.1c3.4-7.3,6.3-10.8,5.3-12c-0.4-0.4-1.1-0.4-3.2,0
			c-5.4,1-8.2,1.5-9.9,2.4c-4,2.1-5.7,5.9-8.2,11.3c-3.4,7.2-3.6,12.6-7.6,15.2c-0.5,0.3-2.3,1.5-3.1,0.9c-0.6-0.5-0.4-1.8-0.3-2.5
			c0.5-2.8,0.4-5.7,1.1-8.5c2.1-7.6,0.9-6.9,2.2-10.2c1.5-3.6,3.9-6.8,9-13c4.6-5.5,6.9-8.3,8.7-9.7c4-3,5.4-2.5,15.2-7.1
			c5.9-2.7,8.9-4,11.4-6c4.6-3.7,8.2-8.5,11-14.5c10.4-22.5,20.9-45,27.9-68.9c5.5-18.8,14-36.2,26.3-51.8
			c4.2-5.4,6.4-12.7,8.4-19.4c4.3-14.5,7.8-29.3,12-43.8c2.4-8.3,3.5-16.4,3-25.1c-1-16.4,2.6-32.1,9.6-47
			c3.5-7.5,9.1-13.1,16.9-16.2c8-3.1,14.6-1.5,18.3,6.1c4.3,8.9,8.1,18.3,10.5,27.9c2.9,11.5,6,23.3,3.2,35.5
			c-0.8,3.5-1.6,7-2.4,10.6c-0.5,0-1-0.1-1.6-0.1c0.2-5.4,0.5-10.7,0.8-17.2c-1.2,2.1-1.8,3.1-3.3,5.6c-2.5-7-4.6-12.9-7-19.8
			c-3.9,3.6-7.8,7.2-13,11.9c6.9,0.5,6.7,4.3,6.5,7.8C249.8,272.4,245.2,288.8,239,304.6L239,304.6z M12.5,623.4
			c-0.4-0.8-0.8-1.6-1.1-2.4c3.3-2.7,6.2-6.2,9.9-7.8c7.6-3.3,15.6-5.5,23.4-8.1c1.1-0.3,2.5-0.6,3.4-0.1c1.6,0.8,3,2.3,4.4,3.4
			c-1.1,1.1-2,2.8-3.3,3.3c-7.8,3-15.6,5.8-23.5,8.3C21.4,621.6,16.9,622.4,12.5,623.4z M189.3,584.7c-11,13.7-25.7,19.5-43,19.5
			c-8.5,0-17,0.2-25.4,0.9c-13,1-22.4,7.4-28.3,19.3c-2.3,4.7-5.5,9.2-9.2,13c-5.4,5.6-12.5,6.9-19.8,4.5c-1.9-0.6-4.2-2.7-4.5-4.4
			c-0.2-1.5,1.9-4.3,3.5-5c8.7-3.3,15-9.3,20-16.7c13.3-19.9,32.5-27,55.3-24.7c22.9,2.3,42.6-3.1,58.9-19.7
			c0.7-0.7,1.5-1.3,2.2-1.9c0.2,0.2,0.5,0.5,0.7,0.7C196.3,575,193,580,189.3,584.7L189.3,584.7z M215.3,496.1
			c-6.6,20.7-17.2,39.7-32.5,55.6c-16.5,17.1-35.7,29.3-59.5,33.4c-4.6,0.8-9.1,1.9-13.6,3.1c-13.4,3.7-24,11.1-31.8,22.7
			c-1.9,2.9-4,5.8-6.3,8.4c-4.1,4.7-9.3,6.8-15.6,6c-5.7-0.8-11.5-1.4-18.4-2.2c2.4-1.4,4-2.4,5.8-3.3c4.5-2.5,9.2-4.7,13.6-7.3
			c2.9-1.8,3.6-4.4,1.8-7.7c-3.7-7-3.4-11.2,3.1-15.5c7-4.6,14.8-8.5,22.8-10.8c9.5-2.7,19.6-3.3,29.5-5
			c33.8-5.5,59.6-23.1,77.2-52.2c14.4-23.8,25.6-49.3,34.9-75.6c11.6-33,19.6-67.1,27.1-101.2c0.2-0.7,0.4-1.4,0.6-2.2
			c2.2,12.5-0.5,24.4-3.8,36C238.9,417.7,227.7,457.1,215.3,496.1L215.3,496.1z M232.7,493.8c0.4-3,0-5.3,0.9-6.6
			c2.6-3.6,5.3-7.3,8.7-10.2c12.5-10.9,27.5-17.5,42.6-23.7c30.4-12.4,59-27.8,86.1-46.1c22.2-15,33.8-36.4,38.9-61.7
			c1.3-6.6-0.8-13.9-1.3-20.7c3.9,2.1,7.5,5.4,7.9,11.1c1.4,18.6-3.1,35.5-14,50.9C391,403,376.7,416,360.5,427.1
			c-29.4,20.2-61.1,35.8-94.2,49.1c-10,4-19.2,9.8-28.8,14.7C236.4,491.5,235.3,492.2,232.7,493.8L232.7,493.8z M332.5,562.1
			c-0.9-15.6-2.3-31.3-5.2-46.6c-2.8-15-7.8-29.7-11.8-44.5c3.6,1.5,5.3,0.6,5.9-4c2,4,3.4,6.5,4.7,9.2c0.6-6.5,2-10.3,4.1-11.6
			c10.4,20.2,12.8,116.1,2.6,143.7C332.7,592.9,333.3,577.5,332.5,562.1L332.5,562.1z M230.8,782.5c-5.8,6.4-11.7,12.2-20.5,14.4
			c-4.1,1-6-0.5-5.3-4.4c3.9-22.4,5.1-45.4,14.5-66.7c5.2-11.7,13.1-21.5,23.4-28.8c12.4-8.8,16.1-21.6,17.6-35.4
			c0.5-4.5-1.8-9.2-2.8-13.8c-7.1-33.4-10.3-67.2-8.2-101.3c0.4-6.9,3.4-13.7,5.5-20.5c0.5-1.7,2.1-3.1,3.9-5.7
			c-1.1,13.7-2,26-3,38.3c0.2,0,0.3,0,0.5,0c1.6-12.6,3-25.2,4.9-37.8c0.5-3.2,2.1-6.3,3.3-9.5c0.5,0.1,1,0.2,1.5,0.3
			c0.1,1.8,0.2,3.7,0.4,6.6c1.3-4.8,2.5-8.6,3.4-12.5c1.4-5.6,4.4-10.2,9.3-13.1c9.2-5.4,18.5-10.5,27.8-15.6c4-2.2,6.4-0.7,8.2,3.3
			c5.9,13.4,10.2,27.1,11.5,41.7c3.3,37,3.1,74-5.6,110.3c-4.3,17.9-10.5,35.4-16.4,52.9c-1.5,4.5-4.3,8.7-7.3,12.3
			c-5.4,6.6-9.9,7.8-18.1,5.9c-0.8,2.3-1.2,4.3-2.2,6C262.3,734.3,250.4,760.8,230.8,782.5L230.8,782.5z M266.1,761.8
			c-4.1,8.4-10.1,15.2-17.5,20.5c-6.8,5-14,9.5-20.9,14.4c-6.5,4.6-12.8,9.5-19.2,14.2c-1.7,1.3-3.5,2.6-5.4,3.6
			c-3.2,1.8-5.4,0.8-5.2-2.9c0.2-6.3,0.7-12.6,1.3-18.9c0.1-1.4,1.2-2.7,2-4.3c0.6,0.7,0.8,0.8,0.8,0.9c0.2,10.3,0.3,10.7,10.6,8.5
			c16.3-3.4,29.5-12.6,41.4-23.8C258.2,770.2,262.1,766,266.1,761.8z M249.1,508.7c10.3-9.7,20.8-19.1,31.3-28.6
			c0.8-0.7,1.9-1.1,2.9-1.6c0.4,0.4,0.8,0.7,1.1,1.1c-13.6,16.2-27.3,32.5-40.9,48.7C241.2,520.8,243.4,514,249.1,508.7L249.1,508.7
			z M251.8,667.9c-0.9,7.1-2,14.1-8.2,20.3C246.6,680.7,249.2,674.3,251.8,667.9z M240.7,515.2c-5-4.1-5.9-7.5-2-12.9
			c8.3-11.6,20.3-17.8,33.6-21.3c0.3,0.4,0.6,0.7,0.9,1.1C262.5,493,251.8,503.9,240.7,515.2z M340.4,574
			c2.7-30.5,1.8-60.9-3.5-91.1c-0.9-5.1-1.3-10.2-1.6-15.4c-0.1-2.2,0.5-4.5,2-7.1c1.3,2.2,2.6,4.5,4.2,7.4c1.4-3.8-0.4-8.5,5.9-9.8
			c2.4,55.9,2.8,111.2-12.3,165.4C336.9,607,338.9,590.5,340.4,574L340.4,574z M357.1,574.8c8.9-39.9,17.8-79.9,23.1-120.5
			c1.5-11.1,2.8-14.3,6.6-19c0,3.8,0.2,7.2,0,10.5c-3.1,36.4-10.2,72.1-20,107.3c-6.4,23.1-13.5,45.9-20.4,68.9
			c-0.4,1.3-0.9,2.5-1.4,3.7c-0.2,0-0.4-0.1-0.6-0.2C348.6,608.6,353.3,591.8,357.1,574.8L357.1,574.8z M350.8,455.6
			c0.8-2.8,3.2-5.1,4.9-7.6l1.8,0.9c1.3,36.7,2.4,73.3-4.8,111.1c-0.6-2.1-1-2.9-1.1-3.7c-0.5-30-1-59.9-1.5-89.8
			C350.1,462.9,349.9,459.1,350.8,455.6L350.8,455.6z M360,495.3V447c0.6,0,1.3,0,2,0C363.6,463.1,362.7,479.2,360,495.3L360,495.3z
			 M365.3,516.4c2.2-27,4.7-53.9,9.6-80.5C375.8,463.3,370.4,489.8,365.3,516.4z M172.6,674.8c-4-6.6-2.9-17.5,2.6-24.7
			c1.2-1.6,2.5-3.2,4.1-4.4c15.6-11.7,26.1-27.4,34.9-44.4c0.4-0.7,0.9-1.4,1.3-2.1c0.5,0.3,0.9,0.5,1.4,0.8l-17.7,42.5
			c0.1,0.1,0.2,0.2,0.3,0.2c6.4-10.9,12.8-21.8,19.8-33.6C221.2,629.6,194.7,666,172.6,674.8L172.6,674.8z M79.7,714
			c12.1-8.3,25.3-11.2,39.9-9.5c9.9,1.1,19.9,2,29.9,1.9c19.5-0.2,35.1-9.2,47.9-23.5c1.7-1.9,3.4-3.9,5.1-5.9
			c0.4,0.3,0.8,0.6,1.2,0.9c-3.6,4.8-6.9,9.9-11,14.3c-7.9,8.5-17.8,13.9-28.9,17c-12.6,3.5-24.1,8.7-32.6,19.3
			c-0.7,0.8-2.8,1.4-3.7,0.9c-15.7-8-32.5-10.7-49.8-10.7c-0.6,0-1.2-0.3-2.8-0.8C76.8,716.4,78.2,715.1,79.7,714L79.7,714z
			 M50.4,759.5c-0.5-0.4-1.1-0.7-1.7-1.1c0.8-1.9,1.2-4.2,2.5-5.7c4-4.5,8.8-7.8,15.1-7.5c3.8,0.1,4.4-1.9,3.4-4.7
			c-0.9-2.6-2.4-5.1-3.7-7.6c-1.6-3.2-1.3-5.6,2.5-6.5c21.3-5.2,40.5-0.1,58,12.5c0.2,0.2,0.2,0.6,0.6,1.6c-3.7-1-6.9-1.9-10.2-2.8
			c-16.3-4.6-31.7-3.6-45,8.1c-0.7,0.7-2,1-2.3,1.8C66.3,756.8,57.5,756.8,50.4,759.5L50.4,759.5z M57.6,769.1c2-1.5,3.3-3.2,5-3.7
			c10.3-3.3,20.5-6.9,31-9.2c8-1.8,15.7,1.4,23,5c4,2,8.1,4,12.4,5.1c6.9,1.8,11.4-2,11.4-9.1c0-3.8-0.3-7.7-0.1-11.5
			c0.6-9.3,5.4-15,14.4-17.6c2.4-0.7,4.8-1.4,7.3-1.8c22-3.8,36.5-17.4,47.4-35.8c10.9-18.5,18-38.6,24.4-58.9
			c0.5-1.6,1.1-3.1,1.6-4.6c-5.1,27.1-11.7,53.7-27.4,77c-8,11.8-18.4,21.2-30.8,28c-15.4,8.5-28.1,19.6-36.3,35.4
			c-2.3,4.3-6.3,6.8-11.1,6.4c-5.4-0.5-11-1.2-16.1-3c-13.6-5-27-6.9-40.8-0.7C68.1,772.3,63.2,771.8,57.6,769.1L57.6,769.1z
			 M95.8,815.2c-0.9,1-3.4,0.8-5.1,1.1c0.3-1.8-0.1-4.2,1-5.2c3.5-3.2,7.5-5.9,11.4-8.8c0.4,0.5,0.8,1,1.2,1.4
			C101.5,807.7,98.9,811.7,95.8,815.2z M120.6,794.6c-5.2-1.7-10.2-3.9-15.4-5.9c-13.3-5.1-22.3,0.9-23,15.3c-0.2,4.1,0,8.2,0,12.5
			c-5,0.2-6.6-3.1-7.2-6.5c-2-9.9-1.8-19.5,4.8-28c0.8-1,1.4-2.2,2.3-3.6c-2.5-1.2-4.7-2.2-8.6-4.1c4.2-2.1,7.2-4.2,10.4-4.9
			c9.4-2.1,18.6-0.5,27.1,4c3.8,2,7.4,4.5,11.3,6.4c7.5,3.7,13.9,2.3,19.1-4.3c1.9-2.5,3.5-5.2,5-8c5.5-10.3,13.7-16.9,25.3-19.3
			c13.4-2.8,26.6-6.2,37.8-14.8c0.4,0.3,0.8,0.6,1.2,0.9c-2.4,3.8-4.3,8-7.3,11.1c-7.2,7.6-16.1,12.3-26.7,13
			c-1.5,0.1-3,0.3-4.5,0.3c-12.1-0.6-19.6,5.4-24.5,16c-2.1,4.5-5.9,8.3-9.3,13.1c11.7,1.2,21.8-2.2,31.9-7.9
			c-1.6,1.8-3.1,3.9-4.9,5.4C152.2,796.3,137.3,799.9,120.6,794.6L120.6,794.6z M186.5,893.4c-0.1,2-1.4,3.1-2.3,6
			c-2.1,7.2-0.9,10.2-3.5,13.3c-2,2.4-5.6,4.1-7.1,3c-2.8-1.9,1.2-12.2,0.3-12.5c-0.4-0.1-1.2,1.6-1.6,2.4c-2.1,4.3-1.7,6.3-3.5,7.4
			c-1.1,0.7-2.8,1-3.7,0.3c-0.8-0.6-0.6-1.7-1.4-2c-0.7-0.3-1,0.3-2,0.1c-1-0.2-2-0.9-2.4-1.8c-0.4-1-0.1-1.8-0.5-1.9
			c-0.4-0.2-1,0.4-1.4,0.8c-0.8-0.1-1.9-0.4-2.8-1.2c-1-1-0.6-1.7-1.6-3c-1.1-1.4-2-1.2-2.9-2.5c-0.7-1.1-0.7-2.3-0.7-3
			c0.1-8.7,10.7-27.3,10.7-27.3c2.5-4.4,5.8-10.8,8.9-19.3c3.2,1.1,12.5,4.7,17.3,13.9C187.7,868.8,187.3,877,186.5,893.4
			L186.5,893.4z M285.2,881.2c-5.9-1.1-12.2-0.3-18.3-0.2c-5.4,0.1-10.9,1.3-16.6-2.2c4.1-2.2,7.9-3.5,10.9-5.8
			c18.3-13.9,33.5-30.3,41.1-52.7c5.6-16.6,11.9-32.9,17.9-49.3c0.6-1.6,1.4-3.2,2.1-4.8c0.4,0.1,0.9,0.2,1.3,0.3
			c-0.9,6.1-1.5,12.4-2.9,18.4c-3.3,14.4-7.2,28.7-10.6,43.2c-2.9,12.3-10.5,21.4-19.6,29.5c-7.2,6.4-14.7,12.3-22.5,18.8
			c6.6-0.9,13-1.8,19.5-2.6c13.1-1.5,26.1-3.1,39.2-4.1c4.4-0.3,9.8-0.7,12.4,5.7C321.1,878.7,303.8,884.5,285.2,881.2L285.2,881.2z
			 M355.1,724.3c0,2.2,0.3,4,0,5.6c-6.2,30-12.3,60-18.8,90c-1.1,5.3-3,10.6-5.2,15.6c-1.6,3.7-4.2,7-6.3,10.4
			c-0.6-0.3-1.2-0.5-1.7-0.8c5.7-20.8,11.5-41.6,17.2-62.4c-0.3-0.1-0.5-0.2-0.8-0.3c-3.3,9.8-6.6,19.7-9.7,29.6
			c-3.3,10.5-6.4,21-9.3,31.6c-1.3,4.7-3.5,8.5-7.5,11.3c-5.8,4.1-10.7,9.7-18.3,10.7c-1.8,0.2-3.5,0.4-5.3,0.5
			c-0.2-0.4-0.3-0.8-0.5-1.2c4.9-2.6,9.6-5.7,14.7-7.6c4.1-1.5,5.7-4.2,6.6-7.9c6.8-29.4,13.4-58.7,20.2-88.1
			c3.6-15.8,7.1-31.5,10.9-47.2c0.5-2.1,2.1-5.8,2.9-5.7c3.4,0.3,6.7,1.6,9.9,2.9c0.6,0.2,0.6,2.7,0.2,4c-1.1,4-2.4,7.8-4,12.7
			C352.2,726.5,353.3,725.6,355.1,724.3L355.1,724.3z M299.9,868.1c11.6-6.3,24.8-6.6,37.9-10.6
			C333.4,865.3,318.7,869.3,299.9,868.1z M375.7,921.4c0.1,0.1,1.6,1,3.2,2.6c1.7,1.7,3,3.1,3,5.1c0,1.8-1.2,3.8-2.8,4.5
			c-1.7,0.8-3.6,0.1-3.7,0.5c-0.1,0.4,0.9,1,1.8,1.5c1.3,0.8,1.6,0.7,1.8,1c0.5,1.1-2.5,4.2-6.3,5.3c-1.2,0.4-4.3,1.3-6.7-0.1
			c-1-0.6-1.5-1.2-2.9-1.7c-1-0.3-1.5-0.3-2.4-0.5c-1.5-0.3-2.6-1-3.8-1.8c-5.6-3.9-14.6-11.5-22.7-15.4c-0.9-0.4-14.5-7.3-22.5-5
			c-2.1,0.6-4.7,0.3-6.9-0.3c-2-0.6-3.4-1.6-4.2-2.9c-1.1-2-0.5-4.4-0.1-5.9c3.8-13.7,4.4-16.5,5.4-16.4c0.9,0.1,0.8,2.3,3.7,7.3
			c0.8,1.5,1.6,2.7,2.4,2.6c0.5-0.1,0.8-0.8,0.9-1.4c-0.4-0.9-2.5-6.6,0.4-10.5c0.9-1.2,1.8-1.9,3.3-2.5c5.6-2.7,10.4-3.2,14.4-1.7
			c2.9,1.1,4.6,3,5.5,3.9C336.3,889.5,344.8,898.5,375.7,921.4L375.7,921.4z M370.8,723.4c-6.5,29.4-12.8,58.9-19.5,88.3
			c-3,13-7.9,25.1-16.2,36.1c-7.4,9.7-16.5,13.7-27.8,15.1c6.5-5.1,12.9-10.3,19.5-15.2c8.5-6.5,14.6-14.8,17-25.2
			c8-34.5,15.6-69.2,23.4-103.8c3.8-17.1,8.2-34,11.5-51.2c3.1-16,5-32.2,7.5-48.4c0.1-0.8,0-1.6-0.6-2.5c-2,7.7-4,15.4-6,23.1
			c-2,7.6-4.1,15.1-6.3,22.6c-2.7,9.3-6.9,17.7-14.3,24.2c-2.9,2.5-2.3,5.4-2.3,8.6c0,2.1-1.1,5-2.6,5.9c-1.1,0.7-4.4-0.8-5.7-2.3
			c-5.6-6.6-6.2-14.5-4.6-22.7c1.3-6.5,2.9-13,3.4-19.8c-3.3,9-7.3,17.9-9.7,27.1c-5.8,22.4-10.4,45.1-16.2,67.5
			c-9.6,37-26.1,71-50.2,100.8c-6.4,7.9-14.5,14.8-23,20.4c-12.7,8.3-27.1,5.9-38.8-4c-6.9-5.9-14.8-10.7-22.1-16.1
			c-4.7-3.5-9.3-7.4-13.4-10.7c1.7,6.1,8.2,9,13.4,13.3c-5.6,1.2-14-3.8-19.1-11c-1.9,3.2-3.8,6.5-5.7,9.8c-0.5-0.2-1.1-0.4-1.6-0.7
			c1-2.5,2.1-5,3.1-7.6c1.6-3.9,3-7.9,4.8-11.7c2.3-4.9,4.6-9.8,7.5-14.3c0.9-1.4,3.9-1.4,6-2l-0.1-0.1c1.8-2.8,3.9-5.5,5.4-8.5
			c2.1-4.2,4.1-8.2,9.4-9.1c-0.6,4.4-1.6,8.4-1.6,12.4c-0.1,6.1,1.9,7.5,7.8,5.6c18-5.8,33.6-16,48.1-27.9
			c15.8-13,28.5-28.3,38.5-46.2c-8.1,19.6-20.2,36.2-35.9,50.4c-15.7,14.2-34,24.3-53.5,32.4c-0.1,0.7-0.1,1.3-0.2,2
			c4.8,2.1,9.7,4.2,14.1,6.1c-8,3.8-17.1-3.7-23.4-20.2c-2.2,8.4,2.2,17.1,11,21.4c10.9,5.4,21.1,2.3,31.1-2.5
			c3.5-1.7,6.7-4.1,10.3-6.3c-9.5,17.2-35.6,20.9-54.6,8.5c0.8,1,1.5,2.5,2.6,3.1c8.9,5.2,17.6,10.7,26.9,15.2
			c6.3,3,13,1.3,18.1-3.4c6.4-5.8,12.6-11.9,18.1-18.5c19.5-23.7,33.9-50.6,46.2-78.6c2.7-6.1,5.4-12.2,8.4-18.1
			c-7.3,23.1-14.9,46.1-27,67.2c-9.8,17.2-21.8,32.6-36.4,46.1c-10.9,10.1-22.6,12.7-36.1,6.2c-4.4-2.1-8.9-4-13.6-5.5
			c6.3,4.9,12.4,10,18.8,14.8c7,5.2,15,5.2,22.3,1.8c6.7-3.1,13.1-7.3,18.6-12.3c21.7-19.8,35.8-44.9,47.9-71.2
			c9.1-19.9,15-40.9,20.5-62.1c5.8-22.4,11.7-44.9,19.7-66.5C355,622,362,589.8,369,557.7c7.3-33.3,13.3-67,19.6-100.5
			c1.3-7,1.2-14.3,1.9-21.4c0.2-2.4,0.6-4.8,0.8-7.3l1.4,0v37.8c0.6,0.1,1.3,0.1,1.9,0.2c2-13,4-26,5.9-39c0.1,0,0.3,0,0.5,0
			c0.2,1.6,0.3,3.1,0.5,5.1c0.7-2,1.3-3.6,1.9-5.2c0.3,0,0.5,0.1,0.8,0.1l1,12.2c0.3,0,0.7,0.1,1,0.2c0.9-5.5,1.8-11,2.7-16.8
			c3.8,30.5,5.2,61.1,1.5,91.3c-4.8,38.5-11.5,76.7-18.8,114.8C385.7,660.8,377.8,692,370.8,723.4L370.8,723.4z M420,539.4
			c-3.5,40.9-11.3,81.2-20.8,121.1c-1,4.3-2.5,8.5-3.8,12.7c-0.5-0.1-0.9-0.2-1.4-0.3c0.6-3.5,1.2-7,1.8-10.6
			c5.5-33.9,12.2-67.6,16.1-101.6c4.4-38.5,2.4-77.2,0.8-115.9c-0.5-11.3-0.1-22.6-0.1-33.9c0.5-0.1,1.1-0.2,1.6-0.3
			c1.6,7.9,4.1,15.6,4.8,23.6C422.3,469.1,422.9,504.2,420,539.4L420,539.4z M427.7,478.1c-2.3-26-3.8-51.8-13.3-76.2
			c0.5-0.2,1-0.4,1.5-0.6c2.5,5.1,6.2,10.1,7.1,15.5c3.1,18.7,5.3,37.5,7.7,56.3C430.9,474.7,429.4,476.6,427.7,478.1z M429.3,410.1
			c-4.6-9.4-8.9-18.2-13.2-27c0.2-0.3,0.3-0.7,0.5-1c4.7,3.6,11.3,6.3,13.5,11.1C432.1,397.8,429.7,404.5,429.3,410.1L429.3,410.1z
			 M431.1,391.9c-3.6-5-8-9.6-10.7-15.1c-1.9-3.9-1.6-9-2.5-14.2c8.8,8,10.7,18.7,14.6,28.4C432.1,391.3,431.6,391.6,431.1,391.9
			L431.1,391.9z M476.7,400.9c-0.6,25.6-1.8,51.2-2.5,76.9c-0.2,6.1-1.8,11.4-6,15.9c-1.6,1.7-2.9,3.7-4,5.7
			c-3.6,6.1-2.8,13.3,2.2,18.3c2.9,2.9,6.2,5.4,9.3,8.1c-0.4,0.4-0.8,0.9-1.2,1.3c-4-3.1-8.5-5.8-11.7-9.6c-2.1-2.5-3.4-6.7-3.1-10
			c4.3-46.7,9-93.4,13.6-140.1c0.4-4.4,1.5-8.8,2.3-13.2c0.4,0,0.8,0,1.2,0C476.8,369.7,477.1,385.3,476.7,400.9L476.7,400.9z
			 M492.8,417.7c-6.3-1.2-7.7-2.8-7.2-10c1.2-14.6,2.7-29.2,4-43.8c0.6-6.9,1.3-13.8,2-20.7c0.6,0,1.1,0,1.7,0v37.3
			c0.5,0,1-0.1,1.5-0.1c0.2-2,0.4-4,0.7-6.7C496.4,392.9,499.2,410.1,492.8,417.7L492.8,417.7z M503.1,421
			c0.2-11.1,0.1-22.3,0.2-33.5c0-11.1,0-22.3,0-33.4c0.9,0,1.8,0,2.6-0.1c1.7,26.2,3.4,52.4,5.2,79C502.8,429.3,503,429.3,503.1,421
			L503.1,421z M557,332.5C557.1,332.5,557.2,332.5,557,332.5L557,332.5z M580.9,273.3c-1.4,0.1-2.5-0.2-3.9-0.5
			c-1.2-0.3-1.4-0.4-3.7-1.1c-3.5-1-3.4-0.4-6.3-1.2c-3.5-1-3.8-1.9-6.9-2.4c-1.8-0.3-3.7-0.3-3.7-0.2c0,0.1,1,0.2,1.8,0.4
			c3,0.9,5.1,1.7,6.4,2.2c6.4,2.8,17.1,3.9,17,5.7c0,1.1-3.8,1.8-4.7,2c-0.7,0.1-2,0.4-3.6,0.2c-1.7-0.2-1.6-0.6-4-1
			c-0.8-0.1-2.5-0.3-3.6-0.4c-1.4-0.1-1.5-0.1-2.2-0.3c-2.8-0.6-3.2-1.1-5-1.1c-1.7,0-2.9,0.5-3.5,0.7c-7,2.3-13-0.5-15.4,3
			c-0.2,0.3-1.2,1.7-0.9,3.5c0.1,0.4,0.2,1.4,0.9,1.9c0.9,0.7,2,0,4.1-0.7c2-0.6,3.4-0.7,6-0.9c2.6-0.2,3.7,0,4.4,0.8
			c0.2,0.2,0.8,0.9,0.9,1.8c0,1-0.6,1.7-0.8,2c-1.9,2.1-9.3,3.1-13,3.7c-6.4,1.1-9.5,2.5-14.1,2.3c-2.8-0.1-4.7-0.8-5.7-1.2
			c-1.3-0.5-2.2-1.1-2.9-1.6c-1.1,0.6-3.1,1.6-5.5,3c-26.7,15-51.6,37.7-66.3,41c-1.8,0.4-6.6,1.5-11.5-0.8
			c-1.6-0.7-3.1-1.8-4.5-3.4c-6.7-7.3-13.4-14.7-19.9-22.2c-3.1-3.5-2.6-7.5-1.1-11.7c1.9-5,3.1-10.2,4.7-15.2
			c5.8-18.4,1.4-35.5-6.1-52.3c-6.7-15.1-13.2-30.2-19.9-45.2c-1.7-3.7-3.7-7.3-5.5-11c0.2-0.1,0.4-0.2,0.6-0.4
			c5.6,4.9,13.4,12.5,20.9,23c4,5.6,11.1,13.2,17.6,32c4.3,12.5,11.1,24.2,16.7,36.2c0.9,1.9,1.8,3.7,2.2,5.8
			c-19.3-22.6-28.5-50.7-41.1-76.9c3.4,22.8,12.5,43.1,24.7,62.2c3.8,6,7.8,12,11.4,18.2c8.4,14.3,8.4,14.4,8.3,30.3
			c9.6-3.8,17.7-7.3,24.1-10.2c7.4-3.4,14.9-6.7,24.4-11.9c4.7-2.5,10-5.6,20.7-11.8c14.5-8.4,14.2-8.5,16.1-9.1
			c6.5-2,18.9-4.2,22.5-6.5c1.3-0.8,3.1-2.1,6.1-3.4c3.6-1.5,4.1-0.9,9.7-2.6c3-0.9,4.7-1.7,5.2-1c0.5,0.6-0.4,2.2-0.9,2.9
			c-0.8,1-1.7,1.5-2.1,1.7c-0.8,0.4-1,0.3-2.1,0.7c-0.3,0.1-0.5,0.2-0.6,0.3c-1.6,0.8-2.8,0.8-4.4,1.5c-1.7,0.7-1.3,1.1-3.1,1.8
			c-1.4,0.6-2.4,0.6-2.4,0.8c0,0.4,2.5,0.7,3,0.8c5.6,0.7,10,0.1,10,0.1c2.7-0.3,4.4-0.4,7.8-0.4c0.6,0,1.8,0,2.2,0.7
			c0.3,0.6,0,1.4-0.1,1.6c-0.3,0.8-1,1.1-1.3,1.3c-2.5,1.3-6,1.7-6,1.7c-2.9,0.3-5.7,0.5-6.3,0.5c-2.9,0.2-4.4,0.3-4.4,0.5
			c0,0.2,1.1,0.2,3.3,0.8c1.9,0.5,2,0.6,4.4,1.3c1.9,0.5,2.1,0.5,3.5,0.9c0.3,0.1,0.6,0.2,0.9,0.3c0.7,0.2,1.1,0.4,2.1,0.8
			c2.8,1.2,9.2,2.4,9.2,3.8C585.6,272.3,582.9,273.2,580.9,273.3L580.9,273.3z M587.3,244.2c-6.9-1.9-8.9-4.3-10.9-10.4
			c5.7,1.9,11.3,3.7,17,5.6c-0.1-0.4-0.4-1.2-1-2.8c8.7,4.8,16.9,9.2,25.6,14.1c-1.2,0.3-1.8,0.7-2.4,0.5
			C606.1,248.9,596.6,246.8,587.3,244.2L587.3,244.2z M633,272.6c-9.5,1-15.5-5.8-22.4-10.5c0.3-0.5,0.7-1.1,1-1.6
			c7.4,3.5,14.8,7.1,22.1,10.6C633.4,271.6,633.2,272.1,633,272.6L633,272.6z M647.1,292.8c-3.8-3.2-7.7-6.4-11.5-9.6
			c5.3,1.4,9.5,4.2,12.5,8.4L647.1,292.8L647.1,292.8z"/>
	</g>
	<path d="M553.9,164.6c-1.3,0.6-1.8,2-1.2,3.1c0.7,1.4,3.1,1.7,4.3,0.7c0.8-0.7,1-1.8,0.5-2.8C556.6,164.4,555.1,164,553.9,164.6
		L553.9,164.6z"/>
</g>
</svg>
