<?xml version="1.0" encoding="utf-8"?>
<!-- Generator: Adobe Illustrator 28.3.0, SVG Export Plug-In . SVG Version: 6.00 Build 0)  -->
<svg version="1.1" id="Layer_1" xmlns="http://www.w3.org/2000/svg" xmlns:xlink="http://www.w3.org/1999/xlink" x="0px" y="0px"
	 viewBox="0 0 489.2 904.7" style="enable-background:new 0 0 489.2 904.7;" xml:space="preserve">
<style type="text/css">
	.st0{fill:#FFFFFF;}
</style>
<g>
	<path class="st0" d="M479.9,232.2c6.3-11.4,10.6-23.5,9-36.8c-5.6-46.5-56.6-73.6-98.4-52.4c-26.3,13.4-40,42-33.8,70.8
		c6.3,29.4,30.1,50.1,59.5,51.7c4.1,0.2,8.2,0,12.3,0c0.3,0.5,0.7,1,1,1.6c-5.2,5.1-9.9,11-15.8,15.1
		c-21.8,15.4-47.6,17.7-71.6,21.6c-4.9-16.7-10-33-14.2-49.6c-1.8-6.9-1.7-14.4-1.9-21.6c-0.2-7,0.8-14,0.3-20.9
		c-2.1-29.3-21.9-47.1-52.6-46.6c-1.3,0-2.6-1.7-4.4-3c7.8-3.4,12.6-8,12.8-15.4c0.2-8.7-8.7-9.5-13.8-14.2
		c4.5-5.6,4.4-11.7,1.4-17.9c8.5-0.7,12.2-4.4,9.5-10.2c-2.1-4.7-0.5-6.7,3.3-8.4c2.6-1.2,2.5-1.2,3.5-2c2.5-1.9,4.2-5.8,3.7-9.2
		c-0.2-1.4-0.9-2.7-1-5.6c0-0.7,0-1.3,0-1.7c1.9,0,3.8,0.2,5.6-0.1c1.2-0.2,2.3-0.7,3.1-1.7c1.4-1.7,0.2-3.1,0.9-6.8
		c0.6-3.2,1.8-3.7,1.5-5.7c-0.3-2-1.8-3.4-3.1-4.3c2.1-1.5,3.5-2.1,4.4-3.3c1.4-1.9,2.5-4.2,3.7-6.3c-1.8-0.4-4.6-0.7-7.8,0.2
		c-0.5,0.2-1.4,0.5-3.5,1.5c-1.9,1-4.5,2.4-7.6,4.4c0.4-0.7,0.9-1.8,1.4-3.2c1.4-3.3,2-4.9,1.9-6.7c-0.1-0.8-0.5-2.7-2.6-4.8
		c-0.9,0.8-2.4,2.3-3.3,4.7c-1.4,3.7-0.5,7-0.2,8.1c-1.1-2.6-1.1-5.2-1.4-7.7c-0.5-4-0.5-8.4-2.1-12c-5.2-12.3-14.1-21.7-25.6-28.3
		c-5.4-3.1-11.3-4.9-17.7-3c-1.3,0.4-3.1,0.4-4.3-0.1c-13.2-5.4-25.1-2-36.6,5c-11.2,6.8-19.5,16-23.9,28.5c-0.4,1-1.6,2.6-2.3,2.6
		c-4.6-0.4-5,2.4-4.8,5.7c0.4,5.6,2.5,8.1,1.1,10.8c-0.5,0.9-1.1,1.5-1.5,1.7c0.3-0.4,0.7-1,0.9-1.8c0.3-1.2,0.2-2.2,0.1-2.7
		c-0.2,0.1-0.5,0.2-0.8,0.4c-0.7,0.5-1.1,1.1-1.3,1.5c0.2-0.5,1.5-3.3,0.1-6.5c-1.2-2.8-3.7-4-4.2-4.2c-0.4,0.3-0.8,0.8-1.2,1.3
		c-0.6,0.9-0.9,1.8-1,2.4c-0.2-0.8-1.3-4.5-4.7-6.1c-0.9-0.4-1.8-0.6-2.6-0.7c-0.5,0.6-1,1.4-1.3,2.4c-1.2,4,2,7.6,2.4,8
		c-3.6,2.1-2,4.6,0.1,6.7c3.1,3.1,0.5,2.9,3.7,5.9c1.1,1.1,2.1,2.4,3.1,3.5c-0.3,0.2-2.1,1.3-2.5,3.6c-0.5,2.6,1.2,4.5,1.5,4.8
		c1.2,1.3,2.7,1.7,3.3,1.8c-0.4,2.1-0.8,3.9-1.2,5.9c0.2,2.5,1.1,4,1.8,4.8c1.6,1.9,3.4,1.8,5.4,3.9c1.4,1.5,1.4,2.9,2.3,4
		c2.6,3.2,6.4,4.8,10.8,6c-2.8,6.6-4.9,12.8,0.5,17.6c-2.6,4.4-6.1,8-6.8,12.1c-1.1,6.5-3.8,10.7-9.4,14.5c-8,5.5-8.6,12.6-3.1,19.9
		c-1.2,0.5-2.4,1.1-3.6,1.5c-11.3,3.2-19.2,10.4-24.4,20.7c-5.1,10-8.1,20.9-7.1,31.9c1.7,17.6-1.6,34.1-7,50.5
		c-0.7,2-1,4.2-1.6,6.3c-0.3,1-0.7,2-1.5,4.3c-4.1-5.8-8-10.3-11-15.5c-7.6-13.1-14.8-26.4-21.9-39.8c-4.3-8-10.6-13.1-19.6-14.8
		c-1.6-0.3-3.2-0.9-5.7-1.6c1.5-2.2,2.6-3.8,3.7-5.4c5.9-8.8,6.8-18.7,3.7-27.1c-4.8-12.8-17.7-17.2-20.2-18
		c-10.8-3.6-22.4-1.4-30.8,4.6c-2.5,1.7-8.1,5.9-11,13.4s-3.4,18,2.1,25.3c0.8,1.1,1.6,1.9,2.2,2.4c-0.2,0.8-0.5,2-0.9,3.4
		c-2.1,8.2-2.1,7.6-2.3,8.5c-0.2,1.8,1.1,5.9,3.8,14c0.6,1.8,1.2,3.5,2.7,5.2c1.7,1.9,3.6,2.7,4.7,3.2c9.7,4.3,12.5,5.3,20.7,10.8
		c0.6,0.4,1.6,0.4,2.4,0.5c6.8,0.7,13.6,1.6,20.4,2c4.5,0.2,7.7,1.9,9.1,6.3c3.6,11.6,7.4,23.1,10.6,34.8
		c3.8,13.7,7.6,27.3,15.5,39.3c0.7,1.1,0.9,2.8,0.8,4.1c-0.5,5.4-1.7,10.9-1.8,16.3c0,22.5,0.5,45,0.4,67.5
		c-0.1,33.8-0.4,67.6-0.7,101.5c-0.1,5.8,0.5,11.1,4.2,16.1c1.8,2.5,3.2,5.9,3.2,8.9c0.1,12.7,0,25.3-0.7,38
		c-0.8,14,3.2,25.3,16.2,32.2c3.7,1.9,4.4,4.8,4.4,8.6c0.1,15.2,0.5,30.3,0.7,45.5c0.1,9.2,3.5,16.7,11.2,21.7
		c4.5,2.9,6.4,6.8,7,11.9c0.9,7.8,4.2,14.8,10.8,19c6.7,4.2,7.9,10,8.1,16.9c0.1,4.2,0.2,8.4,1.1,12.4c1.4,5.8,2.7,11.9,5.8,16.8
		c4,6.2,4.1,11.4,0.4,17.5c-5.6,9.4-8.4,19.5-6.5,30.6c0.4,2.2-0.6,5-1.8,6.9c-6,9.4-6.1,9.3-17.2,6.9c-10.6-2.3-19,3-22.2,13.4
		c-0.6,1.8-2.5,3.6-4.3,4.7c-5.4,3.2-9.3,7.5-9.2,13.9c0.1,6.1,3.6,11,9.3,13.1c4.6,1.7,9.6,2.5,14.5,2.8c7,0.3,14-0.4,21-0.4
		c1.9,0,4.5,0,5.7,1.1c6.7,6.6,15.1,6.1,23.4,6.3c4.8,0.1,9.6,0,14.2,0c2.5,12.4,6.2,17,15.9,17.6c10.8,0.6,21.6,0.5,32.4-0.4
		c10.6-0.9,12.5-4,12.5-14.6c0-0.8,0.1-1.6,0.3-2.8c6.1,0.3,11.8,0.8,17.6,0.7c3.1,0,6.1-1.2,9.2-1.8c2.5-0.5,4.9-1.3,7.4-1.4
		c6.9-0.3,14,0.1,20.8-0.6c8.6-0.9,17.1-2.4,25.6-4.1c4.6-1,9.5-2.3,13.5-4.7c6.2-3.7,5.4-9.6-0.3-13.9c-8.2-6.2-17.3-8.8-27.3-9.6
		c-2.9-0.2-6.4-2.3-8.3-4.6c-8-10-13.6-21.3-17-33.7c-0.8-3-0.6-5.2,2.4-7.2c7.8-5.2,11.2-12.9,11.1-22.2c-0.1-8.5-0.2-17,0-25.5
		c0-1.8,0.8-4.2,2-5.1c4.9-3.4,6.1-8.1,6-13.5c-0.4-12.7-0.8-25.3-1.4-38c-0.2-3.5,0.4-6.2,3-8.9c2.1-2.2,3.8-5.7,4.1-8.7
		c0.8-7.1,1-14.3,0.7-21.4c-1-20.6-2.4-41.2-3.5-61.9c-0.1-2.7,0-6.2,1.5-8.1c5.5-7.1,5.7-14.6,3.1-22.7c-0.8-2.5-0.9-5.2-1.2-7.9
		c-1.2-11.8-1.9-23.6-3.5-35.3c-1.1-7.6,1.8-14,5.8-19.4c4.2-5.8,5.3-11.3,2.9-17.7c-2-5.1-4.2-10.1-6.3-15.2c-1.1-2.7-1-5,1.3-7.2
		c5.5-5.3,6.2-11.8,4.2-18.9c-0.4-1.4-0.4-3.8,0.4-4.4c7.5-5.4,8.7-12.9,7.8-21.3c-0.2-2,0.2-4,0.4-6c1.8-17.9,3.9-35.8,5.3-53.7
		c0.4-5,2.3-6.9,6.8-8c18.5-4.1,35.5-12,49.6-24.7c18.9-17,41.2-29.8,58-49.2c0.5-0.6,1.2-1.1,1.9-1.7c5.5-4.3,11.2-8.4,16.6-12.8
		c7.5-6,11.7-19.8,7.4-26.1C477.8,236.9,478.4,234.9,479.9,232.2L479.9,232.2z"/>
	<g>
		<path class="st0" d="M184.3,881.7c3.7,0.7,8.2-2.5,9.5,3.4c0.8,3.5-2,3.6-4.3,3.7C185,889.1,183.8,887.6,184.3,881.7L184.3,881.7z
			"/>
		<path d="M479.9,232.2c6.3-11.4,10.6-23.5,9-36.8c-5.6-46.5-56.6-73.6-98.4-52.4c-26.3,13.4-40,42-33.8,70.8
			c6.3,29.4,30.1,50.1,59.5,51.7c4.1,0.2,8.2,0,12.3,0c0.3,0.5,0.7,1,1,1.6c-5.2,5.1-9.9,11-15.8,15.1
			c-21.8,15.4-47.6,17.7-71.6,21.6c-4.9-16.7-10-33-14.2-49.6c-1.8-6.9-1.7-14.4-1.9-21.6c-0.2-7,0.8-14,0.3-20.9
			c-2.1-29.3-21.9-47.1-52.6-46.6c-1.3,0-2.6-1.7-4.4-3c7.8-3.4,12.6-8,12.8-15.4c0.2-8.7-8.7-9.5-13.8-14.2
			c4.5-5.6,4.4-11.7,1.4-17.9c8.5-0.7,12.2-4.4,9.5-10.2c-2.1-4.7-0.5-6.7,3.3-8.4c2.6-1.2,2.5-1.2,3.5-2c2.5-1.9,4.2-5.8,3.7-9.2
			c-0.2-1.4-0.9-2.7-1-5.6c0-0.7,0-1.3,0-1.7c1.9,0,3.8,0.2,5.6-0.1c1.2-0.2,2.3-0.7,3.1-1.7c1.4-1.7,0.2-3.1,0.9-6.8
			c0.6-3.2,1.8-3.7,1.5-5.7c-0.3-2-1.8-3.4-3.1-4.3c2.1-1.5,3.5-2.1,4.4-3.3c1.4-1.9,2.5-4.2,3.7-6.3c-1.8-0.4-4.6-0.7-7.8,0.2
			c-0.5,0.2-1.4,0.5-3.5,1.5c-1.9,1-4.5,2.4-7.6,4.4c0.4-0.7,0.9-1.8,1.4-3.2c1.4-3.3,2-4.9,1.9-6.7c-0.1-0.8-0.5-2.7-2.6-4.8
			c-0.9,0.8-2.4,2.3-3.3,4.7c-1.4,3.7-0.5,7-0.2,8.1c-1.1-2.6-1.1-5.2-1.4-7.7c-0.5-4-0.5-8.4-2.1-12c-5.2-12.3-14.1-21.7-25.6-28.3
			c-5.4-3.1-11.3-4.9-17.7-3c-1.3,0.4-3.1,0.4-4.3-0.1c-13.2-5.4-25.1-2-36.6,5c-11.2,6.8-19.5,16-23.9,28.5c-0.4,1-1.6,2.6-2.3,2.6
			c-4.6-0.4-5,2.4-4.8,5.7c0.4,5.6,2.5,8.1,1.1,10.8c-0.5,0.9-1.1,1.5-1.5,1.7c0.3-0.4,0.7-1,0.9-1.8c0.3-1.2,0.2-2.2,0.1-2.7
			c-0.2,0.1-0.5,0.2-0.8,0.4c-0.7,0.5-1.1,1.1-1.3,1.5c0.2-0.5,1.5-3.3,0.1-6.5c-1.2-2.8-3.7-4-4.2-4.2c-0.4,0.3-0.8,0.8-1.2,1.3
			c-0.6,0.9-0.9,1.8-1,2.4c-0.2-0.8-1.3-4.5-4.7-6.1c-0.9-0.4-1.8-0.6-2.6-0.7c-0.5,0.6-1,1.4-1.3,2.4c-1.2,4,2,7.6,2.4,8
			c-3.6,2.1-2,4.6,0.1,6.7c3.1,3.1,0.5,2.9,3.7,5.9c1.1,1.1,2.1,2.4,3.1,3.5c-0.3,0.2-2.1,1.3-2.5,3.6c-0.5,2.6,1.2,4.5,1.5,4.8
			c1.2,1.3,2.7,1.7,3.3,1.8c-0.4,2.1-0.8,3.9-1.2,5.9c0.2,2.5,1.1,4,1.8,4.8c1.6,1.9,3.4,1.8,5.4,3.9c1.4,1.5,1.4,2.9,2.3,4
			c2.6,3.2,6.4,4.8,10.8,6c-2.8,6.6-4.9,12.8,0.5,17.6c-2.6,4.4-6.1,8-6.8,12.1c-1.1,6.5-3.8,10.7-9.4,14.5
			c-8,5.5-8.6,12.6-3.1,19.9c-1.2,0.5-2.4,1.1-3.6,1.5c-11.3,3.2-19.2,10.4-24.4,20.7c-5.1,10-8.1,20.9-7.1,31.9
			c1.7,17.6-1.6,34.1-7,50.5c-0.7,2-1,4.2-1.6,6.3c-0.3,1-0.7,2-1.5,4.3c-4.1-5.8-8-10.3-11-15.5c-7.6-13.1-14.8-26.4-21.9-39.8
			c-4.3-8-10.6-13.1-19.6-14.8c-1.6-0.3-3.2-0.9-5.7-1.6c1.5-2.2,2.6-3.8,3.7-5.4c5.9-8.8,6.8-18.7,3.7-27.1
			c-4.8-12.8-17.7-17.2-20.2-18c-10.8-3.6-22.4-1.4-30.8,4.6c-2.5,1.7-8.1,5.9-11,13.4s-3.4,18,2.1,25.3c0.8,1.1,1.6,1.9,2.2,2.4
			c-0.2,0.8-0.5,2-0.9,3.4c-2.1,8.2-2.1,7.6-2.3,8.5c-0.2,1.8,1.1,5.9,3.8,14c0.6,1.8,1.2,3.5,2.7,5.2c1.7,1.9,3.6,2.7,4.7,3.2
			c9.7,4.3,12.5,5.3,20.7,10.8c0.6,0.4,1.6,0.4,2.4,0.5c6.8,0.7,13.6,1.6,20.4,2c4.5,0.2,7.7,1.9,9.1,6.3
			c3.6,11.6,7.4,23.1,10.6,34.8c3.8,13.7,7.6,27.3,15.5,39.3c0.7,1.1,0.9,2.8,0.8,4.1c-0.5,5.4-1.7,10.9-1.8,16.3
			c0,22.5,0.5,45,0.4,67.5c-0.1,33.8-0.4,67.6-0.7,101.5c-0.1,5.8,0.5,11.1,4.2,16.1c1.8,2.5,3.2,5.9,3.2,8.9
			c0.1,12.7,0,25.3-0.7,38c-0.8,14,3.2,25.3,16.2,32.2c3.7,1.9,4.4,4.8,4.4,8.6c0.1,15.2,0.5,30.3,0.7,45.5
			c0.1,9.2,3.5,16.7,11.2,21.7c4.5,2.9,6.4,6.8,7,11.9c0.9,7.8,4.2,14.8,10.8,19c6.7,4.2,7.9,10,8.1,16.9c0.1,4.2,0.2,8.4,1.1,12.4
			c1.4,5.8,2.7,11.9,5.8,16.8c4,6.2,4.1,11.4,0.4,17.5c-5.6,9.4-8.4,19.5-6.5,30.6c0.4,2.2-0.6,5-1.8,6.9c-6,9.4-6.1,9.3-17.2,6.9
			c-10.6-2.3-19,3-22.2,13.4c-0.6,1.8-2.5,3.6-4.3,4.7c-5.4,3.2-9.3,7.5-9.2,13.9c0.1,6.1,3.6,11,9.3,13.1c4.6,1.7,9.6,2.5,14.5,2.8
			c7,0.3,14-0.4,21-0.4c1.9,0,4.5,0,5.7,1.1c6.7,6.6,15.1,6.1,23.4,6.3c4.8,0.1,9.6,0,14.2,0c2.5,12.4,6.2,17,15.9,17.6
			c10.8,0.6,21.6,0.5,32.4-0.4c10.6-0.9,12.5-4,12.5-14.6c0-0.8,0.1-1.6,0.3-2.8c6.1,0.3,11.8,0.8,17.6,0.7c3.1,0,6.1-1.2,9.2-1.8
			c2.5-0.5,4.9-1.3,7.4-1.4c6.9-0.3,14,0.1,20.8-0.6c8.6-0.9,17.1-2.4,25.6-4.1c4.6-1,9.5-2.3,13.5-4.7c6.2-3.7,5.4-9.6-0.3-13.9
			c-8.2-6.2-17.3-8.8-27.3-9.6c-2.9-0.2-6.4-2.3-8.3-4.6c-8-10-13.6-21.3-17-33.7c-0.8-3-0.6-5.2,2.4-7.2
			c7.8-5.2,11.2-12.9,11.1-22.2c-0.1-8.5-0.2-17,0-25.5c0-1.8,0.8-4.2,2-5.1c4.9-3.4,6.1-8.1,6-13.5c-0.4-12.7-0.8-25.3-1.4-38
			c-0.2-3.5,0.4-6.2,3-8.9c2.1-2.2,3.8-5.7,4.1-8.7c0.8-7.1,1-14.3,0.7-21.4c-1-20.6-2.4-41.2-3.5-61.9c-0.1-2.7,0-6.2,1.5-8.1
			c5.5-7.1,5.7-14.6,3.1-22.7c-0.8-2.5-0.9-5.2-1.2-7.9c-1.2-11.8-1.9-23.6-3.5-35.3c-1.1-7.6,1.8-14,5.8-19.4
			c4.2-5.8,5.3-11.3,2.9-17.7c-2-5.1-4.2-10.1-6.3-15.2c-1.1-2.7-1-5,1.3-7.2c5.5-5.3,6.2-11.8,4.2-18.9c-0.4-1.4-0.4-3.8,0.4-4.4
			c7.5-5.4,8.7-12.9,7.8-21.3c-0.2-2,0.2-4,0.4-6c1.8-17.9,3.9-35.8,5.3-53.7c0.4-5,2.3-6.9,6.8-8c18.5-4.1,35.5-12,49.6-24.7
			c18.9-17,41.2-29.8,58-49.2c0.5-0.6,1.2-1.1,1.9-1.7c5.5-4.3,11.2-8.4,16.6-12.8c7.5-6,11.7-19.8,7.4-26.1
			C477.8,236.9,478.4,234.9,479.9,232.2L479.9,232.2z M417.2,259c-23.9-1.7-40.9-14-51.1-35.4c-10.1-21.2-7.4-41.6,6.1-60.4
			c14.3-19.8,41.8-27.1,68-19.9c25.2,7,48.6,38.7,43,65.9c-1.7,8.4-5,16-9.5,23.2c-0.4,0.1-1.1,0.1-1.4-0.3c-0.7-0.8,0.5-3,0.8-3.6
			c2.3-4.2,3-9.2,4.7-13.7c0,0,1.9-5.2,1.7-15.7c-0.2-12.6-9.2-39.7-35.2-51.2c-22-9.7-42.2-2.2-45.3-0.8
			c-47.5,20.6-42.7,73.2-15.4,95.7c15.3,12.6,32.7,16.4,52,10.8c0.8-0.2,1.7-0.3,2.6-0.5C432,258.1,424.7,259.5,417.2,259L417.2,259
			z M425.3,207.9c-0.3-0.6-4.1,0.5-6.9,0.9c0.1-1,0.3-2.3,0.4-3.5c0,0.1-0.1,0.1-0.1,0.2c-0.5,1.2-1.3,2.5-1.3,3.8
			c-0.1,6.4-0.1,12.8-1,19.2c-0.1-0.9-0.2-1.7-0.3-2.9c-1.4,0.2-2.7,0.5-4.3,0.8c2.9-5.2-0.2-18.1-6.6-23.2
			c1.3,3.4,2.5,6.8,3.8,10.2c-0.3,0.2-0.6,0.3-0.9,0.5c-3.6-6-7.2-12.1-10.9-18.2c1.2-0.5,1.6-0.8,1.8-0.7c7.4,4.6,12.6,0.6,18-4.1
			c2.4-2.1,5.6-3.1,9.1-5c-0.7,2.3-1.3,4.1-1.8,5.9c0.2,0.1,0.5,0.2,0.7,0.4c0.9-1.2,1.8-2.4,2.6-3.7l1.5-0.2c0.2,1.9,0.5,3.9,0.8,6
			c-2-0.3-4-0.5-5.9-0.8c0,0.6-0.1,1.2-0.1,1.8c3.4,0.2,6.7,0.4,10.2,0.7c-3.1,3.6-6.4,3.2-10.1,1.1c-1.4,2.4-2.9,4.9-4.4,7.4
			c3.2-4.7,8.9-2.5,13.8-4.1c0.5,2.9,1,5.6,1.5,8.5C431.3,209,428.1,213.7,425.3,207.9L425.3,207.9z M432.8,231.7
			c-1-2.8-1.7-4.6-2.4-6.6c-0.7,5.9-1.2,6.2-7.6,4.8c-1.7-9.3-0.8-12.6,4.6-14.7c0.4,4.2,0.8,8.3,1.1,12.3c0.2,0,0.4,0,0.5,0V216
			C433.3,217.4,435.1,224.5,432.8,231.7L432.8,231.7z M420.1,216v13.6c-0.6,0-1.2-0.1-1.8-0.1c0.3-4.6,0.6-9.1,0.9-13.6
			C419.4,215.9,419.8,215.9,420.1,216L420.1,216z M434.5,183.7c-0.2,0.9-0.5,1.8-0.7,2.7c-0.4-0.2-0.7-0.4-1.1-0.6
			c0.2-2.5,0.4-4.9,0.6-7.4c0.4,0.5,0.9,1,1.3,1.6c2.2,3.2,2.3,6.8,2.2,8.8c-0.4,0-0.8,0-1.2-0.1C435.2,187,434.9,185.3,434.5,183.7
			L434.5,183.7z M437.6,213.9c0.9-2.1,2.5-4.7,1.9-6.4c-1.3-3.6-2-7.2-2.2-10.9c-0.1-1.7,0.1-2.1,0.4-4.3c0.2-1.8,0.7-4.5,0.7-6.3
			c0-0.9-0.1-3.8-1.8-6.8c-1.6-3-4-4.7-5.4-5.4c0-0.5,0-1.1-0.1-1.8c0-0.4-0.2-1.1-0.7-2.5c-0.9-2.4-1.3-3.6-2.2-4.3
			c-1-0.8-2-0.9-3.1-1.1c-0.3-0.1-1.8-0.3-3.7,0.2c-0.8,0.2-2.8,0.7-4.5,2.4c-0.5,0.5-0.9,0.9-1.2,1.6c-0.5,1.1-0.6,2.9,0.4,3.8
			c1,0.9,2.8,0.3,3.9-0.1c2-0.7,2.5-1.7,3.3-1.4c0.8,0.3,0.6,1.6,1.7,3.9c0.3,0.6,0.6,1.1,0.8,1.5c-0.1,0.1-0.3,0.2-0.4,0.2
			c-0.5,0.4-1,0.7-1.5,1c-0.1-0.1-0.3-0.2-0.5-0.4c-0.8-0.7-0.9-1.3-1.4-1.4c-0.3-0.1-0.3,0.2-1,0.3c-0.3,0.1-0.9,0.2-1.5,0
			c-0.3-0.1-0.4-0.1-0.5-0.3c-0.5-0.5,0-1.4-0.4-1.7c-0.2-0.1-0.5-0.2-0.6-0.1c-0.1,0.1-0.2,0.3,0.1,1.1c0.3,1.1,0.7,2.2,1.3,2.3
			c0.3,0,0.4-0.2,0.8-0.1c0.4,0.1,0.4,0.5,0.8,0.6c0.5,0.1,0.8-0.4,1.2-0.3c0.2,0.1,0.5,0.3,0.7,1c-0.9,0.8-1.7,1.5-2.1,2
			c-5.4,5.7-8.1,16.4-20.1,12.5c0.6-0.1,1.2-0.2,1.8-0.3c0.5-0.1,0.9-0.2,0.5-0.1c-2.4-1.8-5.2-3.6-7.8-5.9
			c-4.4-3.8-10-3.9-13.7,0.3c1.2,0.1,2.4,0.6,2.8,0.1c4-3.3,6.4-1.1,8.2,2.4c2.1,4.1,3.9,8.4,6.1,12.5c3,5.4,6.5,10.4,9.4,15.8
			c1.1,2,2.4,5.8,1.8,6.4c-2.4,1.9-5.6,3.1-8.6,3.8c-2.1,0.5-4.5-0.1-6.7-0.2c-0.1,0.6-0.2,1.1-0.4,1.7c5.1,1.4,10.2,3.3,15.4,4
			c6.7,0.9,13.6,0.7,20.4,1.2c1.7,0.1,3.4,1.4,5,2.2c-0.9,1.8-1.4,4-2.7,5.3c-6,5.8-16.4,4.4-20.8,3.7c-11.6-2-26.5-9.8-34.2-25.2
			c-0.9-1.7-9.5-19.5-1.8-38.3c3.7-8.9,9.5-14.4,12.4-17c2.1-1.9,10.7-9.5,22.2-12.3c19.4-4.7,46.8,4.4,56.6,27.1
			c8.8,20.4-1.6,40-3.1,42.8c-0.8-0.4-6.2-2.9-11.6-0.2c-2.6,1.2-4.2,3.1-4.9,4.2c-0.9,0.1-5.4,0.3-6.6,1.2c0,0-0.4,0.3-0.9,0.6
			c-0.3,0.3-0.8,0.6-1.3,1c-1-4.6-2-8.7-2.6-12.9C435.4,215.9,437.2,214.9,437.6,213.9L437.6,213.9z M370.5,190.3
			c-1,0.4-1.6,0.8-1.8,0.7c-5.5-3.8-0.1-7.7-0.7-12c2.1,1.6,3.6,2.9,5.2,4.1c-0.1,0.2-0.3,0.5-0.4,0.7c-1.2-0.5-2.5-0.9-4.1-1.5
			c-0.6,1.9-1.1,3.8-1.8,5.9C368,188.9,369.1,189.5,370.5,190.3z M371.1,176.2c3.8-10.2,6.7-13,9.3-12
			C377.3,168.2,374.2,172.2,371.1,176.2z M281.8,169.9c2.1,0.3,4.3,0.2,5.9,1c1.8,0.9,4.2,2.7,4.3,4.3c1.3,16.2,2.1,32.5,3.1,48.8
			c0.3,5,0.7,9.9,1.3,14.8c1.8,15.6,0.2,30.3-10.7,42.6c-1.4,1.6-3.4,2.8-5.5,3.8c7.3-7.7,13.6-15.8,13.4-27.2
			c-6.1,12.5-14.8,22-28.5,25.9c3.6-2.4,7.5-4.5,10.8-7.3c3-2.5,8.2-4.4,5.6-10.1c-9.1,5-18,9.9-26.8,14.8c1.2-1.4,2.4-2.9,3.9-4
			c2.5-2,5.3-3.5,7.6-5.6c1.1-1,1.4-2.9,2.1-4.4c-6,3.3-12,6.7-18,10c-0.2-0.2-0.3-0.4-0.5-0.5c3.3-3.9,6.7-7.8,10-11.7
			c-3.9,2.1-7.9,4.3-11.9,6.4l-0.7-0.8c1.4-2.2,2.7-4.5,4.1-6.9c1.3-2.2,2.5-4.3,3.6-6.5c-3.1,3.4-6.2,6.7-9.4,10.2
			c-2.9-1.9-2.7-4-1.2-6.7c5.8-10.3,10.1-21.8,17.5-30.7c14.1-17,15.9-37.3,19.4-57.4C281.2,171.7,281.5,170.8,281.8,169.9
			L281.8,169.9z M301.7,371.7c-0.4,1.5-0.4,3.4-1.3,4.5c-2,2.4-4.4,4.4-6.8,6.5c-1.4,1.3-3,2.4-5.2,3c3.2-4.2,6.4-8.4,9.5-12.6
			c-3.4,2.9-7.3,5.4-10.1,8.7c-22.9,27.1-51.1,46.5-83.7,59.9c-12.8,5.3-25.4,10.9-38.3,15.9c-7.8,3.1-16.1,4.7-24.5,2.9
			c-3-0.6-6.1-1.9-8.6-3.6c-1.7-1.1-2.4-3.6-2.9-6c3.9,5,9.1,5.5,14.7,5.8c15.4,0.8,28.2-6.2,40.8-14.3c-5.2,1.3-10.3,3-15.5,3.8
			c-7.9,1.2-15.8,2.4-23.7,2.4c-9.1,0-12.2-3.9-11.8-13c8.1,7.5,17.8,5.3,27.1,4.1c18.1-2.4,34.4-10.2,50.5-18.2
			c26.3-13,48.8-31.1,69.1-52c1.5-1.5,2.8-3.3,3.5-5.8c-2.2,1.9-4.6,3.7-6.7,5.8c-16.8,16.6-35.8,30.2-56.5,41.7
			c-18,9.9-37.2,16.3-57.2,20.4c-3.8,0.8-7.5,1.6-11.3,2.3c-4.5,0.8-8-0.7-10.4-4.7c5.7-1,11-1.8,17.4-2.9
			c-7.2-2.1-13.3-3.9-20.2-5.9c2.3,2,4.2,3.7,6.1,5.4c-8-1.8-12.8-9.5-10.9-16.1c5.5,2.7,11,6,16.9,8c2.9,1,7.1,0.4,10-1
			c20.2-9.5,35-23.6,43.2-45.2c8.9-23.3,16.7-46.7,19.6-71.5c0.4-3.3,1.2-7,6.9-4.7c-1.4,22.6-7.8,44.5-11.3,66.9
			c1.6-6.1,3.4-12.1,4.9-18.2c1.5-6.1,3.1-12.3,4-18.5c1.4-8.7,2.2-17.5,3.2-26.3c0.4-3.3,0.9-6.6,5.3-6.3c4.2,0.2,5.1,3.5,4.9,6.8
			c-0.7,14.8-1.7,29.6-2.5,44.4c-0.2,3-0.3,6,0.6,9c0.9-16.9,1.8-33.9,2.6-50.8c0.3-6,3.3-9,7.2-6.5c1.6,1.1,2.6,4.1,2.7,6.3
			c0.6,9,0.6,18,1.2,27c0.9,12.1,2.2,24.2,3.4,36.3c0.1,1.1,0.5,2.2,1.1,3.3c0.9-22.1,1.8-44.2,2.7-66.4c5.5,0.5,6.3,3.4,6.4,7.3
			c0.2,8.3,0.8,16.6,1.5,24.9v-29c4.7,0.6,4.1,4.4,4.6,7.3c1.6,9,2.7,18.1,4.5,27.1c1,4.6,3.1,9.1,4.6,13.6
			c-1.5-7.1-3.3-14.2-4.4-21.4c-1.2-7.6-1.8-15.4-2.6-23c0.6-0.2,1.3-0.4,1.9-0.6c0.9,1.9,2.5,3.7,2.5,5.5
			c0.1,13.3,2.4,26.1,6.8,38.6c0.5,1.3-0.3,3-0.5,4.6c-0.4,0-0.9,0-1.3,0c-0.8-1.3-1.7-2.6-2.5-3.9c1.2,3.5-0.2,5.6-3.1,7.9
			c-18.8,14.9-40.2,25.4-60.7,37.5c-2.4,1.4-5.1,2.4-8.4,4c0.4-2.9,0.7-5,1-7.1c-1.7,5.1-3.7,9.6-10.6,10.1c0.1-1.4,0.2-2.6,0.3-3.5
			c-9,4.9-18.1,9.9-27.2,14.9c0,0.3,0.1,0.6,0.1,0.9c6.7-1.6,13.8-2.4,20.2-4.8c23.6-9.1,45-22.1,66-36c10.1-6.7,20.1-13.6,30.3-20
			c2-1.3,6.8-1.9,7.4-1c1.6,2.5,1.9,5.9,2.1,9c0.1,2.2-0.9,4.5-1.3,6.7C300,371.6,300.8,371.7,301.7,371.7L301.7,371.7z M305,406
			c5,1.8,9.8,4.4,14.4,7.1c0.9,0.5,1,3,0.6,4.4c-0.2,0.7-2.7,1.5-3.6,1c-12.4-5.9-24.1-12.7-33.5-23c-0.2-0.2-0.2-0.6-0.3-0.9
			c0.2-0.4,0.5-0.7,0.7-1.1c4.8,2.8,9.6,5.6,15.5,9c-1.8-5.9-7.9-5.6-10.2-9.9c4.4,0,8.5-0.2,12.6,0.1c2.9,0.2,4.4-0.7,4.5-3.7
			c0.2-4.8,0.6-9.6,0.9-12.6c0.6,7.6,1.4,17,2.2,27c-1.8-0.5-3.6-1-5.5-1.5C301.3,405.1,301.7,404.9,305,406L305,406z M290.4,390.8
			c3.7-3,6.9-5.6,10.1-8.1C300.9,387.2,297.7,389.9,290.4,390.8z M198.6,704.5c-0.5-0.2-1-0.4-1.4-0.6c1.8-4.5,3.6-9,5.2-13.6
			c0.6-1.8,0.6-3.8,0.9-5.6c0.5,0.8,1.6,1.8,1.4,2.5C202.7,693,200.6,698.8,198.6,704.5L198.6,704.5z M201.8,761.3
			c-2.2,3.2-4.4,6.4-6.6,9.5c-0.3-0.2-0.7-0.5-1-0.7l6.5-9.6C201.1,760.8,201.5,761.1,201.8,761.3L201.8,761.3z M189.7,676.3
			c-4.7,7.5-11.9,7-16.6-0.6c-3.8-6.1-5.9-12.9-5.2-20.4c0.7,2.9,1.3,5.8,2.2,8.6c1.7,5.2,3.9,10.9,9.3,12.1c5.2,1.1,8.2-4.4,11-8.2
			c3.1-4.2,5.7-8.8,8.6-13.3c0.5,0.2,1,0.5,1.4,0.7C196.9,662.3,193.9,669.7,189.7,676.3z M216,712.4c0.5,0.1,1,0.2,1.5,0.3
			c-1.1,15.9-6,30.7-13.9,45.5C207.9,742.3,211.9,727.4,216,712.4z M208.4,681.3c-0.8,2.9-2.1,4.4-5.2,3.5l0,0
			c2.1-6.4,4.6-12.7,6.2-19.1c6.5-25.5,7.7-51.6,9.7-77.7c3.5-46,7.4-91.9,10.9-137.9c0.5-6.6,3.5-10.7,10.1-13.1
			c-1.4,15.1-2.9,30-4.3,44.8c-3.1,33.1-6.6,66.2-9.4,99.4C223.7,615.1,217.3,648.4,208.4,681.3L208.4,681.3z M233.6,522.4
			c4.8-30.1,9.6-60.2,14.5-90.2c0.8-4.7,2.8-7.9,8.5-5.3c0.6,34.9-9.4,67.7-21.9,100.5C234.3,525.7,233.3,524,233.6,522.4
			L233.6,522.4z M235.6,590.3c1.1-9.8,2.4-19.5,4-29.2c2.7-16,10.5-29.8,20.6-42.2c5.2-6.4,11-12.4,17-19.1c1.6,2.3,2.5,3.4,3.1,4.6
			c8.5,16.3,14,33.3,10.7,51.8c-3.2,17.8-6.2,35.8-10.8,53.3c-2.3,8.6-7.8,16.4-11.9,24.5c-0.8,1.6-2,3.1-2.5,4.8
			c-2.3,7.4-4.3,14.8-6.5,22.2c-5.7,2-7.7,1-10-4.6c-2.5-6.3-4.8-12.8-7.9-18.8C233.8,622.5,233.7,606.5,235.6,590.3L235.6,590.3z
			 M238.7,550.6c2.8-26.5,14.2-49.3,30.1-71.5c3.5,6.6,6.7,12.6,9.7,18.2C259.4,511.3,247.2,529.5,238.7,550.6L238.7,550.6z
			 M249.2,502.3c2.6-12.8,10.7-20.6,17.8-29c0.5,0.4,0.9,0.7,1.4,1C262.2,483.3,256.1,492.3,249.2,502.3z M253.5,477.1
			c3.1-16.1,6.2-32.2,9.3-48.3c0.5-0.1,0.9-0.2,1.4-0.3c1,4.8,2,9.6,3,14.3c3.2-1.3,7.2,2,13,11.7
			C271.1,462.2,262.4,469.6,253.5,477.1L253.5,477.1z M177.6,465.5c-4.3,6.3-9.7,8.6-17.4,6.6C166.6,469.6,172,467.6,177.6,465.5z
			 M128.5,370.4c0.4-0.1,0.9-0.1,1.4-0.2c0.6,2.8,1.2,5.5,1.9,8.2c0.9,4,1.2,8.5,3,12c3.3,6.4,1,10.4-4.7,14.5
			C129.5,393,129,381.7,128.5,370.4L128.5,370.4z M157.3,392.9c-4.2-1.1-7.6-3.5-8.5-8.2c-0.9-4.9,0.9-8.7,5.2-12.9
			c-0.2,3.3-0.5,5.4-0.4,7.6c0.1,6.2,3.7,8.4,9.2,5.7c1.9-1,3.9-2,5.4-3.5c16.9-15.8,32.4-32.8,40.4-55c3-8.3,4.4-17,6.6-25.6
			c0.6-2.1,1.4-4.2,2-5.8c2.5,0.5,4.2,0.9,6.8,1.5c-1.4,6.8-2.5,14.8-4.6,22.5c-5,18.1-9.5,36.5-18.4,53.2
			c-6.5,12.1-13.8,23.6-26.6,30.3c-1.8,0.9-2.6,3.7-4.4,4.6c-4.6,2.3-8.2-0.3-11.7-3.2c-3.1-2.5-6.4-4.8-9.6-7.1
			c-0.3,0.4-0.7,0.7-1,1.1c0.4,1.7,0.9,3.3,1.3,5c-0.3,0.2-0.5,0.4-0.8,0.6c-1.1-1.4-2.8-2.7-3.4-4.3c-5.1-13.9-4.8-28.4-4.8-42.9
			c0-0.4,0.4-0.9,0.5-1.3c0.4,0,0.8,0,1.1,0c0.6,8.8,1.1,17.5,1.8,26.3c0.2,2.3,0.7,5.4,2.2,6.8c6.7,5.9,14.5,9.3,23.7,8.4
			c0.9-0.1,1.7-0.6,2.2-0.9C167,394.7,162.1,394.1,157.3,392.9L157.3,392.9z M215.6,291.8c1.3-0.6,2.6-1.2,3.9-1.8
			c-0.1-0.3-0.1-0.5-0.2-0.8c-7.5,2.1-15,4.1-22.4,6.4c-7.5,2.3-14.9,4.9-22.3,7.4c-0.2-0.5-0.3-1.1-0.5-1.6
			c14.5-4.7,28.8-10.7,43.6-13.7c14.8-3,29.7,1.2,43.9,6.2c6.5,2.3,12.7,5.4,19.1,8.2c-0.2,0.7-0.4,1.4-0.6,2.1
			C260,292.1,238.7,287.4,215.6,291.8L215.6,291.8z M260.2,302.6c-0.6,11.9-1.4,23.8-2,35.7c-0.3,0-0.6-0.1-0.9-0.1
			c-1-11.9-2-23.8-2.9-35.7c-0.1-2.1-1.1-5.1,2.8-5C260.8,297.6,260.3,300.3,260.2,302.6L260.2,302.6z M196.1,301.5
			c0.7,11.3-5,20.2-10.3,29.4C190,321.4,186.4,309.1,196.1,301.5z M180.1,330.1c2.4-8.9,4.4-16.5,6.4-24c0.5,0.1,1,0.3,1.4,0.4
			C187.2,314.4,188.1,322.9,180.1,330.1L180.1,330.1z M180.6,309.5c-2.2,14.9-4.5,29.8-10.9,43.7c0.4,0.3,0.9,0.7,1.3,1
			c3.5-3.3,7.7-6.1,10.4-10c5.2-7.5,10.2-15.3,14.1-23.5c2.8-6,3.7-13,5.6-19.6c0.4-1.5,1.6-2.7,3.1-3.6c-3,16.6-7.1,32.7-17.4,46.5
			c5.8-5,9.6-11.2,12-18.3c1.9-5.8,3.6-11.8,5.4-17.6c0.7-2.2,1.4-4.5,2.5-6.5c1.2-2.2,1.5-6.4,5.4-5c4.3,1.5,1.2,4.9,0.6,7.1
			c-7.4,26.8-18.9,51.2-40.7,69.6c-1.8,1.5-3.6,2.9-5.4,4.3c-0.6-0.1-1.2-0.1-1.8-0.2c-0.5-2.9-0.9-5.7-1.5-9
			c-1.5,1.1-3.2,2.5-4.9,3.8c-2-5.5-1.3-9,3.7-12.2c3.6-2.4,5.2-5.5,6.4-9.5C172.2,336.7,176.3,323.1,180.6,309.5L180.6,309.5z
			 M278.8,169.9c-7.7,29.7-15.9,59.1-34.2,84.4c-0.4-0.2-0.8-0.3-1.2-0.5c2.5-4,5.1-9,7.2-15.1c1-2.9,1.8-5.7,2.4-8.3
			c-1.1,1.8-2.8,4.4-5.1,7.3c-5.6,7.3-12.7,14.2-13.5,13.6c-0.5-0.4,1.6-4.2,3.3-6.3c15.9-20.5,25.4-44.3,35.8-67.7
			C274.6,174.5,276.4,172,278.8,169.9L278.8,169.9z M257.2,209.9c-6.6,11.6-11.2,24.4-23.3,32.2c-0.4-0.3-0.7-0.5-1.1-0.8
			C241,230.8,249.1,220.3,257.2,209.9L257.2,209.9z M228.4,242.9c-2-3.4-3.3-5.6-4.7-8.1c10.5-2.4,15.2-11.6,22.9-17.2
			c0.4,0.4,0.7,0.7,1.1,1.1C241.4,226.5,235.2,234.3,228.4,242.9L228.4,242.9z M269.6,165.8c0.9,0.4,1.5,1.2,2.4,2
			c-1.3,3.9-3.8,6.1-7.7,6.9c-7.7,1.5-14.8,2.1-18.6,3.7c-1.6,0.7-3,1.6-3,1.6c-1.1,0.7-2,1.4-2.6,1.9c9-2,18.1-3.9,28-6.1
			c-2,3-3.5,5.7-5.6,7.9c-9.8,10.2-19.6,20.5-29.7,30.3c-5.6,5.4-7.8,5.6-13.9,0.8c-7.3-5.8-13.8-12.5-20.6-18.7
			c-1.3-1.2-2.6-2.3-3.8-3.4c-0.8-1.2-6.5-9.3-7.2-10.4c-0.6-0.9-6-8.5-6.6-9.4l31.3,9.2c-0.7-0.7-1.7-1.7-3.1-2.6
			c-4.8-3.4-9.8-3.7-12.6-4.1c-4-0.6-9.6-2.1-16.4-6.4c9.6-4.7,19-6.5,29-6.2c2.2,3.8,4.9,8.4,7.6,12.9c0.4-0.2,0.9-0.5,1.3-0.7
			c-1.9-7.3-3.7-14.5-6-23.3c5.9,3.8,8.7,0.5,11.6-2.1c7.9-7.2,15.6-14.5,23.4-21.8c0.7-0.6,1.5-1.1,3.1-2.3
			c-0.4,5.6-0.8,10.1-1.1,14.7c-1.1,13.4,1.9,18.3,14.5,23.3C265.3,164.2,267.5,164.9,269.6,165.8L269.6,165.8z M200.3,44
			c-0.2-0.6,8.5-4.4,18.4-5.7c0.8-0.1,6.3-0.9,6.4-0.4C225.3,38.7,200.6,44.9,200.3,44L200.3,44z M226.1,40c0.2,0.3-0.7,1.2-1.6,2.1
			c-2.2,2.2-4.6,3.7-8.6,5.3c-1.2,0.5-9.2,3.9-9.5,3.3C205.9,49.7,225.3,38.8,226.1,40L226.1,40z M206.2,48.8
			c-7,3.8-12.4,1.7-17.9-0.5C193.9,44.8,199.3,46.9,206.2,48.8z M228.2,43.8c6.2,3.5,12.9,7,19.2,11c4.9,3.2,10.2,6.2,12.7,13.1
			c-3.2-0.7-5.7-1.3-8.2-1.7c-2.9-0.5-5.9-1.1-8.9-1.1c-6.7-0.1-10.8,3.5-11.1,10.2c-0.3,7.3,0.3,17.9,0.3,18.4
			c0.1,0.7,0.3,2.3-0.6,3.2c-1.1,1.1-3.5,1.1-4.7-0.1C226,96,226,94.6,226,94c0.1-6.5,1-13.3,0.5-18.7c-0.3-3.4-0.6-6.3-2.9-8.4
			c-1.8-1.7-4.4-2.3-8.4-2.4c-4.1-0.1-8.3,0.7-12.4,1.1c-1.6,0.2-3.2,0.4-4.8,0.5c-0.3-0.5-0.5-1-0.8-1.5c2.9-2.7,5.4-5.8,8.7-7.9
			C213.5,52,221.4,47.8,228.2,43.8L228.2,43.8z M246,41.8c-3.9-1.6-6.9-2.8-6.8-3.4c0.1-0.5,1.9-0.5,2.2-0.5
			c6.8,0,14.2,4.8,15.6,5.7c3.9,2.5,9.5,5.6,17.2,8.6c-1.9-0.1-4.8-0.4-8.1-1.3c-4.7-1.2-5.8-2.2-9.3-3.2
			c-7.9-2.4-10.4,0.5-15.9-1.8c-4.5-1.8-7.4-5.3-9.2-8.2c4.1,3,7.9,4.2,10.4,4.8c3.4,0.8,7.2,1,7.3,0.6
			C249.3,43,248.4,42.8,246,41.8L246,41.8z M257.2,71.5c0,0.4-0.8,0.8-1.4,0.9c-1.9,0.5-3.6-0.8-5.9-1.6c-5.1-1.7-10.3-0.3-10.4-0.6
			c0-0.2,2.9-0.9,6.6-0.9C251.3,69.2,257.2,70.4,257.2,71.5z M216.2,71.5c-0.1,0.2-2.4-0.8-5.8-0.8c-0.3,0-1.2,0-3.6,0.3
			c-5,0.7-7.5,1.5-7.6,1.3c-0.1-0.2,2.7-1.7,6.2-2.4c4.2-0.8,7.1,0,7.8,0.2C215,70.6,216.3,71.3,216.2,71.5L216.2,71.5z M201.8,83.2
			c3.2,1.1,6,0.4,7.4,0c2.5-0.7,4.6-1.6,6.6-3.5c0.9-0.8,1.8-1.4,2.9-2.2c6.2,5.4,1.8,12.9,4.1,18.8c-2.4,1.6-3.3,2.9-3.3,4.1
			c-0.1,3.2,1.3,6.8,5.3,8.5c-0.6,0.4-1.7,0.9-3,1.2c-2.4,0.7-4.1,0.6-4.1,1c-0.1,0.5,2.1,0.4,3.5,2.2c0.6,0.8,0.5,1.2,1.8,3.4
			c0.5,0.8,0.7,1.2,0.8,1.3c2.1,2.1,8.1-0.6,8.1-1.1c-0.1-0.3-3.3,1-6-0.7c-1.1-0.7-2.3-2-2-2.8c0.3-0.8,1.8-0.8,6.1-1
			c7.3-0.4,7.7-0.8,7.7-0.9c0-0.2-0.6-0.3-3.3-1.5c-1.4-0.6-1.2-0.6-1.5-0.7c-2.5-0.8-4.5,0.4-5.1-0.4c-0.1-0.1-0.2-0.4-0.1-0.8
			c1.2-1.3,2.4-2.6,3.5-4c2.7-3.2,3.9-6.6,3.1-11c-1.1-6.1-2.3-12.5,2.1-18.3c0.2,0.9,0.9,3.6,3.4,5.5c2.4,1.9,5.6,2.3,7.9,1.8
			c1.3-0.3,3.6-0.7,6.9-3.6c1.2-1.1,3.4-2.3,4.5-1.8c1.1,0.5,2.3,3,2,4.4c-2.8,16.5-6.2,32.8-20.2,44.3c-8.9,7.4-13.6,7.9-22.3,0.5
			c-5-4.3-10.8-8.5-13.7-14.1c-4.2-8.1-6.1-17.4-8.7-26.3c-0.5-1.6,0.8-3.7,1.2-5.5C198,81,199.5,82.4,201.8,83.2L201.8,83.2z
			 M264.4,114.9c-2.7-5-4.5-10.2-3.2-16.1c1.5,4,2.6,7.8,4.2,11.3c2.5,5.6,4.3,10.9,1.1,17.1c-1.2,2.4-0.8,5.6-1.2,8.6
			c-3.7-4.1-3-8.8-0.6-12.8C266.5,119.9,265.9,117.7,264.4,114.9L264.4,114.9z M271.2,145.8c-5.6,0.3-8.5-2.9-10.5-7
			c-3.2-6.3-1.8-14.8,3.6-19.8C257.9,130.3,261.6,138.8,271.2,145.8L271.2,145.8z M277.3,89.9c-1.3-3.1-3-6.5-5-10
			c-1.7-2.9-3.5-5.6-5.1-7.9c1.9,1.2,3.4,2.4,4.4,3.2c2.2,1.9,3.5,3.1,4.5,5.2c0.5,1.2,0.7,2.1,1,3.8
			C277.3,86.6,277.4,88.6,277.3,89.9L277.3,89.9z M279.9,66.7c2.4,1,5.2,2.5,3.6,5.8c-1.6,3.2-4.2,1.3-6.5,0.5
			c-0.7-0.3-1.4-0.8-3.1-2c3.1,0.2,5,0.3,6.9,0.4c-5.6-2.6-12.6-2.6-15.3-10.4C270.6,63,275.3,64.7,279.9,66.7L279.9,66.7z
			 M265.4,55.6c-6-1.1-10.2-3.8-12.4-5.5c0.8-0.2,1.9-0.4,3.4-0.4c4.6,0,7.1,2.3,11.6,4c1.9,0.7,4.7,1.6,8.4,1.9
			C273.8,56.1,270,56.5,265.4,55.6z M269.5,26.4c4,3.5,5.6,8.2,6.4,11.7c-10.1-6.3-20.4-12.6-30.7-19c-3-1.9-6-3.7-9-5.5
			c1.4,0.2,3.6,0.5,6.2,1.1c6.3,1.6,7.2,3.3,14.2,6C265.9,24.3,266.6,23.8,269.5,26.4L269.5,26.4z M242.4,6.2
			c1.6,0.1,2.8,0.6,8.3,3.7c5,2.8,7.5,4.2,8.9,5.2c2,1.5,4.8,3.7,7.6,6.9c-4.2-0.5-7.5-1.5-9.6-2.3c-4.9-1.8-7.2-3.6-13.9-7.1
			c-3.7-1.9-6.7-3.2-8.7-4.1C236.6,7.4,239.2,6,242.4,6.2L242.4,6.2z M239.3,33.5c9.8,0,14.7,0.1,19.9,2.3c6.6,2.9,11,8.1,10.5,8.9
			c-0.6,0.9-7.1-4.7-18.4-7.6c-3.6-0.9-13.7-3.5-25.6-1.3c-5.9,1.1-9.8,1.3-17.7,1.7c-1.5,0.1-5.8,0.3-6.5-1.5
			c-0.2-0.4-0.2-1.2,0.1-1.8c0.6-1.1,1.8-1.2,2-1.2c-0.1,0.7-0.2,1.6,0.4,2.2c1.6,1.8,7.6-0.8,10.8-2.8c2.1-1.3,5.3-3.7,8.2-8.1
			c-0.6,2.3-1,5.4,0.6,7.4C225.7,34.4,229.8,33.5,239.3,33.5L239.3,33.5z M215.9,5.2c5.4-0.2,9.8,1.2,12.4,2.3
			c-1.2,0.4-3.1,1-5.5,1.3c-4.8,0.6-6.3-0.6-10.4,0c-2.3,0.3-2.6,0.8-7.9,2.8c-3.7,1.4-6.8,2.3-8.9,2.9
			C197.7,12.4,204.9,5.6,215.9,5.2L215.9,5.2z M233.1,10.3c-6.2,4.8-13.8,1.3-20.5,3.4c-6.7,2.1-13.4,4.3-20.9,6.7
			C204.8,10,219.1,11,233.1,10.3L233.1,10.3z M193.8,32.6c3.9-1.5,7.2-2.4,9.6-2.9c-1.5,0.8-3.6,2.1-5.8,4.1c-2,1.8-2.3,2.5-3.5,3.5
			c-4.4,3.7-11.9,3.3-12.3,2C181.3,37.9,190.1,34,193.8,32.6z M185.1,51.4c2.5-0.7,4.3,0.9,8.4,1.5c4.5,0.7,8.4-0.3,11.1-1.2
			c-0.9,1-2.4,2.5-4.8,3.5c-5,2.1-8.6-0.3-13.9,1.2c-1.9,0.5-4.6,1.7-7.5,4.7C180.4,54,183,52,185.1,51.4L185.1,51.4z M178.7,65.8
			c3.1-2.4,3.7-4.7,6.6-5.9c2.5-1.1,5.1-0.8,7-0.3c-2,6.1-6.8,10.5-12.3,11.3c-3.9,0.5-7-0.9-8.5-1.7
			C174.9,68.3,177.2,67,178.7,65.8z M179.3,86.1c-2.3,0.6-4.9,0.5-5-0.1c-0.2-0.9,4.6-1.9,9-6c2.3-2.2,3.7-4.5,4.6-6.2
			c0,0.6,0,1.4-0.2,2.5C186.9,80.5,183.8,84.8,179.3,86.1L179.3,86.1z M174.1,144.6c1.2-0.7,8-5.2,13.8-11.1
			c3.5-3.5,3.6-8.3,1.6-13.1c-1.9-4.5-3.3-8.6,0.9-13.1c1.8-1.9,1.4-5.7,2.1-8.6c2.1,3.4,1.8,7-0.6,10.4c-2.2,3.1-2.1,5.9-0.6,9.3
			c2.7,5.9-0.9,16.7-6.3,23.4c-2.4,2.9-4.7,4.5-7.1,6.1c-3,2-8.1,5.6-10.5,3.9c-0.1-0.1-0.8-0.6-0.9-1.3
			C166.3,148.6,169.6,147.3,174.1,144.6L174.1,144.6z M169.2,173.9c1.4,8.4,2.6,16.8,4.1,25.1c1.5,8.3,3.3,16.6,4.9,24.8l1.8-0.3
			c-3.5-18.6-6.9-37.2-10.7-57.2c1.7,2.9,3.4,4.9,4.1,7.2c3.5,11.8,6.6,23.7,10,35.6c0.9,3.1,2.2,6.1,4.4,8.8
			c-1.6-5.8-3.1-11.7-4.7-17.5c0.2,0,0.4-0.1,0.5-0.1c4.5,8.3,9.1,16.6,13.6,24.8c0.3-0.2,0.7-0.3,1-0.5
			c-8.4-18.9-16.7-37.7-25.1-56.6c0.5-0.3,1.1-0.5,1.6-0.8c1.2,2.2,2.5,4.4,3.7,6.6c6.1,11.4,12.2,22.9,18.4,34.3
			c0.8,1.4,2.1,2.5,3.1,3.7c-0.9-1.9-1.7-3.9-2.8-6.3c-2.4-4.5-4.9-9.1-7.3-13.9c-1.1-2.2-2.1-4.4-3.1-6.5c2.5,2.4,5.1,4.8,7.6,7.3
			c6.9,10.7,15.2,20,26.4,26.4c4.2,2.4,8,1.2,11.5-1.8c14.1-12.4,28.3-24.9,38.2-41.2c0.6-1,1.4-1.9,2.9-2.4
			c-2.9,6.1-5.5,12.4-8.7,18.4c-7.2,13.2-16.7,24.4-29.5,32.5c-8.6,5.4-13.8,4.6-20.8-2.5c-4.8-4.9-9.5-9.8-14.2-14.6
			c5.4,6.9,11.3,13.5,16.2,20.7c7.5,10.9,14.4,22.3,21.5,33.5c3.7,5.9,7.3,11.8,11.3,17.5c1.1,1.5,3.6,2,5.4,2.9c0,0,0,0,0,0
			c9.8,3.8,19.7,7.6,29.4,11.5c1.2,0.5,2.1,1.6,3.1,2.5c-0.4,0.6-0.8,1.1-1.2,1.7c-9.5-3.6-19-7.2-28.5-10.8c5,3,10,6,14.9,9.1
			c-5.8-1.8-11.5-4.3-17.4-5.3c-11.5-2-23.1-3.8-34.7-4.7c-4.9-0.4-10,1.9-15,3.2c-8.2,2.1-16.4,4.4-25,5.5
			c10.4-4.3,20.9-8.5,31.3-12.8c-0.5-1.4-0.8-3-1.6-4.3c-3.5-5.9-7.1-11.6-10.9-17.8c-1.5,8.9,5,14.7,7.5,22.7
			c-8.8-7.1-16.9-13.6-25.1-20.2c-0.3,0.3-0.5,0.5-0.8,0.8c3.5,4.2,7.1,8.4,10.6,12.6c-10-6.5-19.8-13.1-24.5-24.8
			c-0.9,10.3,1.4,16,12.8,31.2c-8.1-3.1-15.9-16.6-15.7-27.4c0.1-3.1,0.4-6.3,0.9-9.4c1.3-8.7,2.2-17.5,4.4-26.1
			c3.2-12.8,0.6-25.1-1.6-37.5c-0.8-4.5-2.7-8.8-4.2-13.6C167.3,167.8,168.6,170.6,169.2,173.9L169.2,173.9z M38.9,162.2
			c-6,1.1-13.6,2.5-20.2,3.7C24.7,161.7,32.3,160.2,38.9,162.2z M30.9,165.2c8.2-0.5,15.9,1.2,22.1,7.1c7.3,6.8,8.4,18.8,2.4,26.8
			c-0.6,0.8-1.5,2.1-2,2c-2.8-0.4-8.8,7.7-14.8,5.9c-0.7-0.2-1.7-0.6-2.8-1.5c1.1-1.4,2.7-3.7,3.5-7c0.6-2.5,1.7-7-0.7-9
			c-1.8-1.5-4.9-1.2-7.7,0.4c-0.2-4.6-1.7-5.5-2.2-5.7c-2.6-1-6.7,3.6-10,7.1c-2.5,2.8-4.3,5.3-5.4,7.1c-1.2-0.4-3.2-0.6-3.5-1.3
			C4.7,181.1,14.5,166.3,30.9,165.2L30.9,165.2z M4.8,188.4c-0.1-8,4.9-13.2,5.9-14.2c-1.9,3.4-5.2,10.6-3.9,19.3
			c0.3,2.2,0.9,4.1,1.5,5.7C7.3,197.7,4.9,193.8,4.8,188.4L4.8,188.4z M11.3,232.1c-1.2-0.9-1.7-2.1-2-2.9
			c-2.4-6.1-3.6-9.2-3.5-13.2c0.1-1.4,0.3-2.4,0.7-4.4c1-4.9,3.1-11.2,4.4-10.9c0.7,0.1,0.9,2,1.1,3.7c0.6,4.6-0.4,6.7-0.5,11.1
			c0,1,0.2,3.2,0.8,7.6c0.5,3.9,0.9,7.2,1.3,10C13,232.9,12.1,232.7,11.3,232.1L11.3,232.1z M16.9,232.5c-0.7-0.9-0.9-1.6-1.7-9.7
			c-0.8-7.5-0.9-9.9-0.9-13c0-2.8,0-4.1,0.1-5.1c0.1-0.3,0.2-1.1,0.6-2.3c0.6-2,1.7-5.6,4.6-8.7c1.4-1.5,1.4-1,3.2-2.8
			c2.4-2.5,3.1-4.1,4.2-4c1,0.1,1.7,1.6,1.9,2.3c0.1,0.3,0.5,1.7-0.6,3.9c-1,2.1-2.2,2.9-3.4,4.2c0,0-2.2,2.4-4,6.6
			c-1.1,2.9-1.5,5.8-0.5,11.4c1.1,6.4,1,9.7,2.4,13.2c1.3,3.2,2.9,5.5,4.1,7.1C24.4,235.7,19.5,235.7,16.9,232.5L16.9,232.5z
			 M35.9,236.6c-4.2-1.6-4.3-1.1-5.7-1.9c-1.6-1-2.6-2.4-6.4-16.9c-0.4-1.7-1.2-4.8-0.5-8.7c0,0,0-0.1,0-0.2c0.8-4.3,3-7.6,4.1-9.2
			c4.5-6.4,6.7-9.6,8-9.2c1.4,0.4,1.9,3.5,1.6,5.7c-0.2,1.3-0.6,1.8-2,4.6c-1.7,3.3-2.6,5-3.2,6.8c-0.9,2.8-0.8,5.1-0.7,6.8
			c0.1,2.3,0.7,5.5,2.7,10.5c3,7.4,7.6,12.8,10.3,15.5C42.3,239.3,39.5,237.9,35.9,236.6L35.9,236.6z M94.3,301.6
			c-3.5-9.5-6.3-19.3-9.8-28.8c-3.2-8.7-7-17.3-10.7-25.8c-0.5-1.1-2.4-2.1-3.8-2.3c-2.4-0.4-5-0.1-7.5,0c-5.2,0-9.6-1.2-13.3-3.7
			c-0.9-0.6-3.4-2.3-7.6-9.1c-5.3-8.7-10.1-20.3-8.1-21.6c1.1-0.7,3.9,2,4.2,2.3c1.8,1.7,2.3,3.2,3.4,5.5c0.8,1.5,3.7,5,9.5,11.9
			c1.1,1.4,2.1,2.4,2.5,2.2c0.9-0.4-0.5-5-0.7-5.5c-2.4-7.7-6.5-10.1-5.4-12.2c0.8-1.6,4-1.3,8.7-1c4,0.3,8,0.6,12.6,3.1
			c1.1,0.6,3.8,2.2,6.6,5.2c5,5.5,6.4,11.9,6.8,13.9c1.7,8.4,7.9,14.9,16.6,30.2c6.1,10.6,13.1,20.6,23.6,27.4
			c10.7,7,16.5,16.6,17.1,29.4c0.1,1.1,0.4,2.2,0.8,3.2c1.9-10.8-0.1-20.3-7.8-28.6c-10.5-11.4-10.5-11.5-6.8-26.4
			c2.1-8.5,5.3-16.9,7.5-25.4c1.1-4.4,1.5-9.1,1.8-13.7c0.8-11.1,0.4-22.3,2.1-33.2c1.6-10.2,7.3-18.6,17.2-23.1
			c6.3-2.9,9-2,9.8,4.8c1.4,12.2,1.9,24.5,2.6,36.7c0.1,1.6-0.6,3.2-1.1,5.5c-1.1-1.3-1.8-2.1-2.5-2.9c-1.9-2-4.1-2.3-4.8,0.7
			c-0.8,3-0.9,6.2-1,9.4c-0.1,3,0.5,6,0.2,8.9c-1.5,12.9-3.3,25.7-4.9,38.6c-1,7.4-2,14.8-3.1,22.3c1-1.2,2.1-2.5,4.1-5
			c-0.4,3.5-0.2,5.8-0.9,7.8c-5.1,14.2-10.4,28.4-15.7,42.6c-0.5,1.4-1.5,2.6-2.4,3.8c-4.1,5.5-7.6,5.5-12.1-0.1
			c7.7-5.1,7.9-5.4-0.6-10.6C107.5,329.1,99.7,316.2,94.3,301.6L94.3,301.6z M124.3,426.5c-3.4-8.5-6.5-50.6-4.1-58.2
			C124.2,388.1,128.5,406.4,124.3,426.5z M98.8,515.7c1.8-41.5,3.5-82.1,5.3-122.8c0.7,0,1.3,0,2,0c0.8,4.6,1.6,9.1,2.3,13.7
			c0.7,4.6,1.4,9.2,1.9,13.8c2.4,24.5,4.7,49,7,73.5c0.2,2.6,0.6,5.3,1.4,7.9c1.3,4.2-0.1,6.6-4.1,8
			C109.6,511.4,104.8,513.3,98.8,515.7L98.8,515.7z M113.6,605.4c-2.6-2.1-5-4.8-6.6-7.8c-2.7-5-0.5-9.6,3-13.5
			c3-3.3,6.2-6.6,9.3-9.7c8.2-8.1,8.4-18.2,0.2-26.4c-4.8-4.8-9.9-9.3-14.8-14c-3-2.9-2.7-5.6,0.8-8.2c3-2.1,5.7-4.6,8.4-6.9
			c0.3,1,0.9,2.9,1.5,4.8c-0.7-5.2,0.7-9.4,5.2-12.5c0.8-0.5,1.1-2.4,1-3.6c-3.4-37.6-7-75.3-10.4-112.9c-0.4-4.4-0.1-8.9-0.1-13.3
			l1.8-0.2c2.1,14.4,4.7,28.8,6,43.2c3.9,43.8,7.6,87.6,10.9,131.5c1.6,20.9,2.3,41.9,3.3,62.9c0,0.4-0.2,0.9-0.2,0.9
			C126.6,615,119.9,610.4,113.6,605.4L113.6,605.4z M106.3,579.8v-34c5.6,4.1,10.1,7.1,14.2,10.5c3.3,2.7,2,5.5-0.4,8.2
			C115.4,569.6,110.8,574.8,106.3,579.8L106.3,579.8z M128,666.5c-0.4-0.2-0.8-0.3-1.3-0.5v-28.7c1.8,6.3,3.3,11.5,5.2,18.1
			c1.5-2.1,2.6-3.5,3.6-5c0.5,0.3,1,0.7,1.5,1.1C134,656.5,131,661.5,128,666.5L128,666.5z M141.7,691.8c-2.8-2.5-6-5.3-9.1-8.1
			c0.2-0.3,0.4-0.6,0.5-0.9c1.2,0.4,2.4,0.8,4.8,1.6c0.8-9.4,1.5-18.3,2.2-27.2c0.5,0,1,0,1.6,0V691.8L141.7,691.8z M141.8,642.3
			c-1.1-4.5-2.8-9-3.3-13.6c-5.2-50.6-6.1-101.4-7.6-152.2c0-1.1,0.1-2.3,0.2-3.4c0.5,0,1,0,1.5,0c6,56.1,9.7,112.4,11.9,168.7
			C143.5,642.1,142.6,642.2,141.8,642.3z M148.1,521c0.5-0.2,1-0.4,1.5-0.6c4.2,10.5,8.3,21,12.1,30.6c1.2-2.5,3-6.1,4.7-9.6
			c1.3-2.7,0.6-5-2.2-6.2c-5.5-2.5-9.1-6.9-10.9-12.3c-3.1-9.5-5.6-19.1-8.3-28.7c-0.4-1.5-0.1-3.1,0.9-5c1.5,3.8,3.1,7.6,4.7,11.5
			c5.2-4,7.8-13.3,5.1-17.8c-0.6-1-2.2-1.4-3.3-2.1c-2-1.2-3.9-2.5-5.9-3.7c0.2-0.4,0.4-0.9,0.7-1.3c3.2,0.8,6.3,2,9.5,2.2
			c5.6,0.3,11.3,0.2,16.9-0.1c1.1-0.1,2-2,3-3.1c4.6-4.9,9.1-9.8,14.1-15.2c2.7,6.3-4.1,24.8-15.6,49.1c3.6-6,7.6-11.7,10.8-17.9
			c4.1-7.8,7.5-16,11.6-23.8c0.9-1.8,3.5-2.7,5.3-4c0.6,2,1.9,4.1,1.7,6c-2.2,24.2-4.7,48.4-6.8,72.6c7.6-28.9,8.4-58.8,13.1-88.1
			c0.5-0.1,0.9-0.2,1.4-0.3c0.6,2.5,1.7,5,1.6,7.5c-0.6,15.6-1,31.3-2.3,46.9c-1.7,20.2-4.3,40.2-6.2,60.5c1.9-10,4.4-20,5.6-30.1
			c2.7-25,4.7-50.1,7.3-75.1c0.4-4.2,2-8.4,3-12.6c0.6,0.1,1.2,0.2,1.8,0.4c-0.6,8-1.1,16-1.7,24.1c-2.3,31.1-3.9,62.2-7.2,93.2
			c-1.8,16.6-6.4,32.9-9.8,49.4c0.5-0.7,0.9-1.5,1.4-2.2c0.4,0.2,0.9,0.4,1.4,0.5c-2,6.3-4.1,12.5-6.1,18.8c-0.5-0.2-1-0.3-1.6-0.5
			c1.6-5.2,3.2-10.4,4.8-15.7c-2.2,5.2-4,10.6-6.8,15.5c-2.9,4.9-6.4,9.6-10.3,13.7c-3,3.1-6.7,2.1-9.7-0.9
			c-5.2-5.2-5.4-11.9-5.5-18.6c2,4.8,3.9,9.8,6.2,14.5c2.7,5.5,5.7,5.7,9.2,0.7c6.2-8.9,9.8-18.5,6.8-29.6
			c-2.2-8.2-4.2-16.5-6.4-24.7c-0.7-2.7-11.1-11.6-13.7-11.5c-0.9,0-2.4,1.5-2.4,2.3c-0.1,2.5,0,5.1,0.8,7.3c2.8,8.2,6,16.2,9,24.3
			c1.2,3.2,2.4,6.4,3.2,9.8C166.1,590.1,159.8,554.6,148.1,521L148.1,521z M174.3,723.2c-8-9-9.4-20.2-9.9-28.3
			c2.1,5.4,5.2,13.7,8.5,21.8c0.7,1.6,2,3.3,3.5,4.1c1.9,1,4.3,1.1,6.4,1.6c0.4-2,0.8-3.9,1.2-6.3c1.5,1.4,3,2.7,4.4,4
			c-1.3,1-2.4,1.5-3.1,2.3C182.4,726.8,177.9,727.2,174.3,723.2z M243.4,894.6c-0.3,1-0.9,2.5-2.3,3.3c-1.4,0.8-3.3,0.7-4.6-0.1
			c-1.7-1-1.5-2.5-2.6-2.7c-1.5-0.2-1.9,2.8-4.6,3.5c-2,0.6-5-0.3-6-0.6c-0.3-0.1-1.1-0.3-2.2-0.2c-0.5,0.1-0.8,0.2-1,0.2
			c-0.4,0.1-1.7,0.5-5.6-0.5c-1.2-0.3-0.7-0.2-2.8-0.8c-2.4-0.6-3.1-0.7-4.8-1.2c-1.3-0.4-1.9-0.6-2.7-0.9c-1.7-0.7-4-1.7-4.8-3.5
			c-0.6-1.4,0.1-2.7,0.8-4.8c2-5.5,4.2-10.8,6.2-16.3c0.6-1.6,1.3-2.7,2.3-3.4c1.7-1.2,3.6-1.2,4.4-1.2c6.2,0,25.8,8.5,30,20.7
			C243.4,887.5,244.6,891,243.4,894.6L243.4,894.6z M204.6,862.2c3.9-6.3,7.7-8.4,14.2-6.5c6.7,2,14.5,3,17.2,12.9
			C225.6,863.1,215.6,860.7,204.6,862.2z M227.8,855c-3.2-0.7-6.5-1.2-9.8-1.9c-10.1-2.2-17.8,4.1-26.3,7.5
			c-0.9,0.3-1.7,1.2-2.1,2.1c-2.4,6-6.9,6.4-12.3,5c6-1.3,9.4-5.4,11.7-10.8c1.6-3.6,4-6.8,5.9-10.3c6.3-11.7,12-23.8,19.1-35
			c3.8-6,4.3-11.9,5.4-18.3c1.5-9.2,4-18.2,5.8-27.3c0.6-2.9,1-5.9,0.8-8.8c-1.9-22-0.5-43.6,6.4-64.7c0.7-2.2,1.6-4.6,3.1-6.1
			c4.3-4.1,4.6-8.9,3.8-14.2c-0.5-3.4-1.2-6.8-1.8-10.2c0.6-0.3,1.2-0.5,1.7-0.8c3.7,7.2,7.5,14.3,11.9,22.8
			c3-8.3,5.6-15.6,8.3-22.9l0,0c3-3.3,6.1-6.6,9.8-10.5c0.3,4.7,0.6,8.7,0.8,12.8c1.3,25.8,0.1,51.4-7.4,76.1
			c-9.1,30-22.9,57.7-44.8,80.9c-7.6,8-13,18-19.4,27.1c-1.1,1.5-1.6,3.5-2.9,6.2c7.9-5.2,14.9-9.8,21.8-14.3
			c-0.4-0.4-0.9-0.7-1.4-1.1c0.6-0.8,1.3-1.5,1.9-2.3c8-10.3,16.1-20.6,23.9-30.7c-3.9,10.4-6.8,21.8-16.6,29.5
			c-1.3,1-2.4,2.3-3.5,3.4c5.6,0,8.8-3.4,12.1-7.4c8.7-10.7,12.5-23.4,16.4-36.1c1.9-6,3.9-12,6.6-17.7
			c-2.8,26.7-7.6,52.5-29.9,71.2c6.8,3.7,11.6,2.2,15.8-3.9c6.7-9.9,10.3-20.8,12.3-32.4c4.9-28,10.3-56,14.5-84.2
			c2.3-15.3,2.9-30.8,3.5-46.3c0.8-23.3,5.1-45.9,10.6-68.4c4.9-20.2,7.9-40.8,11.7-61.3c0.3-1.8,0.7-3.5,2.1-5.3
			c0.3,3,1.2,6.2,0.7,9.1c-2.6,17.2-5.4,34.5-8.5,51.7c-2.3,12.4-5.3,24.7-7.8,37.1c-0.7,3.5-0.8,7.2-1.1,10.6
			c-0.1-0.2-0.5-0.6-1.7-2.2c0,4.5-0.1,8,0,11.4c1.1,54.5-6.7,107.9-19,160.8c-1.6,6.9-4.8,13.5-8.1,19.8
			C247,854,238.1,857.4,227.8,855L227.8,855z M252.4,875.7c-5.2-4.7-5.2-12.1-3.8-20.1c4.8,6.9,9.1,12.9,13.3,18.9
			c0.5-0.3,0.9-0.6,1.4-0.9c-1.5-8.2-8-15.5-5.2-23.5c5,9.3,10.4,19.2,16.3,30.1C266.6,879,258.3,881,252.4,875.7L252.4,875.7z
			 M297.6,866.3c8,3,17.4-1,24.7,5.1C313.6,872.4,305,872.5,297.6,866.3z M301.3,844.2c5,8.2,10.8,14.7,21.6,13.8
			c3-0.2,6.1,0.9,9.2,1.4c0,0.5,0,1,0,1.4c-4.2,1.4-8.3,3-12.6,4.2c-3.1,0.9-5.5-0.1-8-2.5c-10.1-9.5-18.3-20.2-22.5-33.7
			c-0.2-0.7-0.8-1.3-1.6-2.7c0.4,3.1,0.8,5.4,1.1,7.6c-0.6,0.1-1.2,0.2-1.8,0.3l-3.1-21.4c-0.4,0-0.8,0-1.2,0c-0.4,2.6-1,5.2-1,7.9
			c-0.1,8.3-0.3,16.7,0,25c0.5,13.1,6.3,23.3,19.2,30.9c-3.2,0.2-4.9,0.6-6.4,0.3c-3.3-0.6-6.5-1.5-9.7-2.4
			c-8.9-2.3-9.2-2.9-9.7-12.3c-1.5-25.1,1.9-49.9,3.9-74.8c3.3-40.6,5.6-81.1,2.9-121.8c-0.1-1.6,0-3.3,0-5c0.5,0,0.9-0.1,1.4-0.1
			c1.1,10.8,3.2,21.7,3.3,32.5c0.4,30,0.9,60-0.4,90C284.8,805.2,289.7,825.3,301.3,844.2L301.3,844.2z M292.6,797.2
			c-0.8-0.2-1.5-0.5-2.3-0.7l-1.5-22.6c0.5-0.1,1.1-0.2,1.7-0.4c2.3,5.9,4.9,11.7,6.5,17.8C297.4,792.8,294.2,795.2,292.6,797.2
			L292.6,797.2z M299.4,787.7l-1.7,0.4c-2.1-6.9-4.8-13.7-5.8-20.8c-0.3-2.3,4.1-5.2,6.4-7.9c0.8,0.4,1.6,0.8,2.4,1.2
			C300.2,769.6,299.8,778.6,299.4,787.7L299.4,787.7z M308,738.4c-12.5-7.1-13.5-27.2,0-37.2V738.4z M311.4,687.2
			c-4.4,4.2-9.3,7.9-14.3,12c0.9-9,1.8-18,2.9-28.4c5.2,3.8,9.5,6.5,13.1,10C313.9,681.6,312.9,685.9,311.4,687.2L311.4,687.2z
			 M301.1,650.8c0.8-21.1,2.2-42.2,3.4-63.3c0.2-4.2,0.8-8.5,2.4-12.9c2.3,4,5.7,7.8,6.6,12.1c0.5,2.4-2.5,6.5-5,8.4
			c-3.8,2.8-4.4,5.9-4.3,10.2c0.3,13.3,0.1,26.6,0.1,40c0.9,0,1.7,0,2.6,0c0-5.5,0-11,0-16.4c0-7.5-0.2-15,0.2-22.5
			c0.1-2.4,1.7-4.8,2.7-7.2c0.8,0.2,1.5,0.5,2.2,0.7c1.5,23.8,3,47.6,4.5,71.7C303.8,666.8,300.6,663,301.1,650.8L301.1,650.8z
			 M314.5,571.7c-9.4-14.9-15.5-31.3-21.8-47.6c-5.2-13.5-11.2-26.7-16.8-40c-0.4-0.9-0.8-1.8-1.2-2.8c-4.4-10.9-4-12.1,6.9-19.5
			c5.5,10.1,10.9,20.2,16.6,30.1c7.8,13.9,11.3,28.6,9.7,44.6c-0.1,1.5,0,3,0.2,4.5c0,0.6,0.4,1.2,0.6,1.8l1,0
			c0.3-4.7,0.6-9.5,0.9-14.2c0.5-0.1,1-0.1,1.5-0.2c1.7,16.6,3.5,33.2,5.2,50.2C316.2,575.9,315.6,573.6,314.5,571.7L314.5,571.7z
			 M292.9,473.2c13.2,11,22.8,31.4,19.4,38.5C306.1,499.4,299.7,486.8,292.9,473.2z M319.9,492.3c0.6,2.3-0.3,4.9-0.6,7.9
			c-12.6-16.4-24.8-31.7-36.3-47.5c-6.1-8.3-11-17.4-16.3-26.3c-1.2-2-1.3-4.6-0.9-7.4c4.3,4.2,9,8.1,13,12.6
			c9.1,10.3,17.9,21,27,31.4C313.1,471.5,317.3,481.6,319.9,492.3L319.9,492.3z M287.8,439.8c0.4-0.5,0.9-0.9,1.3-1.4
			c7,5.9,13.8,11.9,20.9,17.6c3.2,2.6,4.8,5.3,2.6,10C304.1,457,296,448.4,287.8,439.8L287.8,439.8z M319.9,456.4
			c-19.5-12.8-36.6-27-50.5-44.7l0.8-1.1c1.4,0.8,2.8,1.4,4,2.3c13.1,9.9,26.3,19.7,39.2,29.8C317.5,445.8,321.3,449.5,319.9,456.4z
			 M326.1,431.2c-0.3,1.6-1.7,3.2-2.9,4.6c-4.4,5-8.4,5.1-11.1-0.9c-1.9-4.2-5.4-5.2-8.4-7.5c-8.7-6.6-17.3-13.4-25.9-20.3
			c-1-0.8-1.5-2-2.2-3.1c0.2-0.2,0.3-0.5,0.5-0.7c2.3,1.1,4.6,2.2,7,3.4c-1.6-2.5-3.1-4.9-4.7-7.4c0.3-0.3,0.6-0.7,1-1
			c1.7,1.1,3.5,2,5.1,3.3c9.7,7.5,19.2,15.4,31.3,19.2c3.4,1.1,6.5,3.3,9.3,5.6C325.9,427.3,326.4,429.7,326.1,431.2L326.1,431.2z
			 M327.7,414.2c-0.5-0.1-1-0.1-1.4-0.2c-1-1.5-1.8-3.5-3.2-4.3c-5.5-3.4-5.3-8.3-5-13.8c0.5-8.6,0.1-17.2,0.1-25.9
			c0.6,0,1.2,0,1.9,0c0.8,9.4,1.6,18.7,2.5,28.1c0.4,0.1,0.9,0.2,1.3,0.3c2-8.2,4-16.4,6.1-24.5c0.5,0.1,1.1,0.2,1.6,0.3
			C330.2,387.4,329,400.8,327.7,414.2L327.7,414.2z M451.5,266.4c0,0.8-0.8,1.8-1.5,2.4c-12,10.7-24,21.6-36.2,32.1
			c-16,13.7-32.7,26.4-52.6,34c-8.9,3.4-18,6.2-27,9.1c-6.9,2.2-12.8,0.8-17.3-5.2c-9.5-12.8-18.4-26.2-19.8-42.5
			c-0.8-9.6,1.8-19.5,2.6-29.2c0.5-5.6,0.8-11.3,0.5-16.9c-0.3-6.6-1.5-13.1,1-19.7c1-2.5-0.1-5.9-0.7-8.7c-1.1-4.6-3.2-9-3.8-13.6
			c-1.1-8.9-1.6-17.9-2.2-26.9c-0.1-1.4,0.2-2.9,0.4-4.5c10.7,1.4,17.1,7.6,20.8,16.8c4.6,11.5,6.4,23.5,4.1,35.8
			c-1.7,8.8-0.7,17.2,2,25.6c2.9,9,5.8,18.1,8.4,27.2c3.1,11,5.3,22.1,1.4,33.8c8.8-7.9,19.8-8.8,30.5-10.3
			c17.9-2.5,34.4-8.8,50.4-17c6.5-3.3,11.8-7.9,16.1-13.9c6.6-9,7.4-9.2,9.8-10.5c3-1.7,4.8-1.7,6.2-3.9c1.3-2,1.3-4.4,1.3-7.8
			c0-2.8,0-4.2-0.6-6c-1-2.8-2.5-3.5-3-6.3c-0.2-1-0.4-3.6,0.5-3.9c1.6-0.7,7.1,5.8,9.4,13.3C452.9,251.6,452,258.4,451.5,266.4
			L451.5,266.4z M461.3,259.7c-0.7,1.5-1.7,2.6-2,2.9c-1.8,1.8-3.7,2.5-4.7,2.8c0-3.3,0.4-6.7,0.5-9.9c0.2-4.7-0.1-7.1-1-9.3
			c-1.2-2.9-3.9-6.6-7-9.2c-0.6-0.5-2.5-2-3.2-4.6c-0.2-0.8-0.6-1.9-0.1-2.3c1.2-1.1,6.5,2.5,9.8,5.6c1.5,1.3,2.4,2.2,3.5,3.6
			c2.2,2.9,2.8,5.8,3.9,11.5C462.2,256.4,461.9,258.2,461.3,259.7L461.3,259.7z M469,256.9c-0.6,0.9-1.4,1.5-1.7,1.7
			c-0.8,0.5-1.8,1.1-3.1,1.5c0-3.8-0.4-10.5-3.4-17.4c-2.1-4.8-3.1-7.1-5.2-8.6c-0.9-0.6-2.8-1.7-3.9-4c-0.3-0.6-1.1-2.3-0.5-3
			c0.9-1.1,4.1-0.1,6.4,1.1c3.7,2,5.5,5.4,7.5,8.8c1.3,2.4,2,4.3,3.1,7.3c1.2,3.3,1.5,4.8,1.7,5.7
			C470.2,252.1,470.6,254.8,469,256.9L469,256.9z M472.5,254.4c-0.5-3.7-1.6-10-4.8-16.2c-1.7-3.3-2.5-5-4.4-7
			c-2.3-2.6-4.7-4.1-4.3-5.1c0.3-0.7,1.6-0.8,2.3-0.7c2.4,0.2,4,2.2,4.9,3.5c5.5,7.2,8.2,10.8,8.6,12.6
			C476,247.4,473.6,252.4,472.5,254.4L472.5,254.4z"/>
	</g>
</g>
</svg>
