<?xml version="1.0" encoding="utf-8"?>
<!-- Generator: Adobe Illustrator 28.3.0, SVG Export Plug-In . SVG Version: 6.00 Build 0)  -->
<svg version="1.1" id="Layer_1" xmlns="http://www.w3.org/2000/svg" xmlns:xlink="http://www.w3.org/1999/xlink" x="0px" y="0px"
	 viewBox="0 0 432.3 916.5" style="enable-background:new 0 0 432.3 916.5;" xml:space="preserve">
<style type="text/css">
	.st0{fill:#FFFFFF;}
</style>
<g>
	<path class="st0" d="M262.9,298.5c0.2-3.9,0.3-9.6-0.2-16.6c-0.8-11.2-2-11.3-2.6-20.3c-0.2-3.6,0.1-12.2,0.7-29.5
		c0.1-2.7,0-5.5-0.3-9.3c-1.1-12.5-7.5-21.3-18.7-26.7c-2.3-1.1-5-1.7-7.2-2.9c-1.9-1-3.4-2.6-5.1-3.9c-1.5-1.1-3-2.4-4.6-3.3
		c-1.9-1.1-4.5-1.5-6-3c-3.2-3.2-6.9-3.8-10.8-2.7c-4.3,1.3-7.6-0.1-10.9-2.4c-3.1-2.1-6.2-4.2-9.2-6.5c-3.7-2.9-5.5-6.6-4.7-11.7
		c6.6,2.2,10.3-0.3,13.3-5.7c2.3-4.1,5.3-7.8,8.5-11.3c2.3-2.6,5.3-4.4,8-6.6c-0.1,6.4-0.7,12.1-2.4,17.5
		c-1.9,6.3-0.3,11.6,3.4,16.5c0.9,1.2,3.6,2.5,4.7,2c1.6-0.7,3-2.8,3.5-4.6c0.4-1.5-0.6-3.4-0.8-5.2c-0.3-2.2-1.3-5-0.3-6.6
		c3.8-6.7,2.8-14,3.1-21c0.2-5.2,1.2-8.6,7.2-9.4c3.9-0.5,6.5-3.2,5.4-7.7c-1.4-6.2-1.4-6.2,4.6-7.4c7.8-1.5,11.1-8.2,7.9-15.3
		c-0.7-1.4-1.1-3.5-0.6-4.9c3.5-8.8,2.3-12.7-5.3-16.7c0.4-3.1,1.6-6.4,0.9-9.1c-2.8-10.9-8.1-20.5-17-27.7
		c-1.9-1.5-3.6-3.3-5.4-4.9c-6-5.4-12.1-10.7-20.7-10.9c-3.4-0.1-4.3-1.6-5.3-4.3c-1.2-3.1-2.5-6.7-4.9-8.6
		C177-3.5,156.4-2.9,145.7,13c-2,3-4.3,3.6-7.8,3.2c-5.9-0.7-11.2,1.9-12,2.2c-4.1,1.9-6.6,5.1-7.9,6.7c-1.6,2-2.7,4-3.3,5.4
		c-1.3-2.7-2.8-3.5-3.8-3.7c-5.1-1.1-12.9,8.9-14.5,19c-0.4,2.5-1.5,8.4,1.9,14.1c3.9,6.5,12.1,9.2,21.3,10.9c-1.1,2.3-2,4-2.8,5.8
		c-6.9,15.7-4.3,26.3,8.3,33.6c-5.2,7.1-1.4,12.3,4.6,17.3c-3.5,1.9-6.4,3.3-9.2,4.9c-14.5,8.4-16.6,29.1-3.5,37.5
		c-3.9,2.1-6.8,7.1-12.1,4.6c-8-3.8-16.3-2.5-24.4-1.7c-9,0.9-15.9,5.5-18.8,14.8c-0.6,1.9-1.5,3.6-2.5,5.3
		c-4.2,6.8-4.8,14-3.8,21.7c0.6,4.1,0.5,8.4,0.8,12.5c0.2,3.3-1.3,4.5-4.5,5c-3.6,0.6-7.3,1.7-10.6,3.3c-4.6,2.1-8.9,4.7-13.1,7.5
		c-2.1,1.4-4.1,3.3-5.4,5.4c-4.5,7.5-3.4,14.9,1.1,22.1c3.1,5.1,2.8,5.8-2.7,8.3c-0.7,0.4-1.5,0.6-2.3,0.9c-6.8,3-9.6,7.7-8,14.8
		c0.8,3.3,0,5.3-1.9,7.9C-1.4,317-3.3,332.2,6.1,348.2c1.1,1.9,1.7,4.7,1.4,6.9c-1.4,11.3-2.7,22.7-4.9,33.9
		c-1.5,7.7,0.1,13.5,6.8,17.7c4.4,2.8,5.6,6.5,4.8,11.7c-1.9,11.7-3.4,23.6-4.9,35.4c-1.7,12.9,1.9,19,14,24c3.5,1.4,7,2.7,10.5,4.2
		c6.6,2.8,7.9,5.1,6.9,12.1c-4.2,30.5-8.2,61.1-12.7,91.6c-1.3,8.5,0.7,15.5,6.9,21.2c5,4.7,10.1,9.3,15.2,13.8
		c2.7,2.3,3.6,4.9,3.4,8.6c-0.5,9.8-0.5,19.5-0.8,29.3c-0.2,6.9,2.2,13,6.3,18.1c4.1,5.2,8.6,10.6,14,14.2
		c8.8,5.8,17.3,11.3,24.2,19.5c2.7,3.1,3.7,5.3,3.3,9.1c-1.3,11.3-1.3,22.5,4.6,32.8c0.7,1.2,0.4,3.1-0.1,4.5
		c-3.6,11-7.2,22-11,32.9c-3.9,11.4-7,23.2-17.6,30.8c-1.9,1.4-3.3,4.2-3.8,6.7c-1.1,5-3.9,5.4-8.5,5.1c-6.6-0.3-13.5-0.4-19.7,1.5
		c-9.3,2.8-10.5,14.2-2.8,20.2c1.8,1.4,3.9,2.3,6,3.2c5.3,2.3,10.7,4.5,10.3,11.8c0,0.6,0.3,1.5,0.7,1.8c5.3,3.3,2.5,7.2,1.1,11.1
		c-2.4,6.3-1.9,7.8,3.5,12c0.7,0.6,1.7,1.3,1.9,2.1c0.9,4.8,4.7,6.2,8.6,6.8c6.2,1.1,12.6,2,18.9,2.3c4.7,0.2,9.6,0.2,12.6-4.7
		c0.3-0.5,1.4-0.9,2.1-0.9c5.7,0.4,11.3,0.9,16.8,1.3c1.2,9.2,2.4,11.3,10.7,13c17.1,3.5,34,3.9,50-4.8c2.4-1.3,5.2-2.4,7.8-2.4
		c5.2,0.1,10.3,1.2,15.5,1.6c2.6,0.2,5.2,0,7.7-0.5c4.2-0.8,8.3-2.3,12.5-3.1c4.9-0.9,10.1-0.7,13.9-5c0.5-0.6,3.1-0.3,4.1,0.5
		c7.6,5.2,16.1,6.8,25.1,6.3c8-0.4,13.9-4.5,18.2-10.7c2-2.9,4-3.5,7.1-3.6c10-0.5,20-1,29.9-2.4c3.5-0.5,7.1-3.2,9.6-5.9
		c3-3.3,1.4-6.4-2.9-7.5c-2.9-0.8-5.9-1.3-8.8-1.9c0.5-7.2-0.9-8.7-7.9-9c-2.6-0.1-5.2-0.2-7.8-0.3c-4.6-0.2-7.9-2.5-10.6-6.1
		c-13.6-18.2-22.1-38.7-27.2-60.7c-0.4-1.8,0.3-4.6,1.5-6.1c6.5-7.7,13.2-15.3,20-22.7c5-5.5,7.8-11.6,7-19.1
		c-1.1-9.4-2.4-18.7-3.4-28.1c-0.2-2.2-0.8-4.9,0.2-6.6c3.5-6,3.5-12.4,2.9-19c-2.2-25.3-4.4-50.7-6.4-76c-0.2-2.8,1.2-5.8,2.2-8.6
		c1.8-5.3,5.4-10.6,5.3-15.9c-0.3-10.2,3-17,11.7-22.5c8.3-5.1,12.4-13.1,10-23.5c-0.4-1.9,1.2-5,2.8-6.4c5-4.3,7.4-9.4,7.1-15.9
		c-0.2-3.9-0.3-7.8-0.5-11.7c-2.4-35.3-5-70.6-7.2-105.9c-1.4-22.1-2-44.3-3-66.4c-0.2-4.5,7-10,11.1-8.5
		c11.2,4.3,19.4,1.9,25.2-8.7c5.2-9.5,9.5-19.4,17.7-27c3.6-3.3,5.3-8.6,8.5-12.5c2.5-3.1,3.6-5.3-1.1-7.7c1.6-1.9,2.8-3.7,4.2-5.1
		c7.5-7.3,15-14.5,22.5-21.8c7-6.8,14.2-13.5,21-20.5c1.1-1.1,0.8-3.6,1.2-5.4c-3.4,2.1-8.4,4.4-13.3,4.4c-1.2,0-3.9-0.2-6.8-0.5
		c-2.4-0.3-4.2-0.6-4.5-0.6c-4.1-0.7-18,0.4-30.6,9.7c-8.8,6.5-13.5,14.4-15.8,19.2c-27.8-1.2-48.3,0.4-52.6,3
		c-4.1,2.5-5.5,5.9-5.5,5.9c-0.7,1.7-0.8,3.1-0.8,3.4C301.3,274.4,292.2,282,262.9,298.5L262.9,298.5z"/>
	<g>
		<path d="M152.1,149.9c-0.6-4.1-2.6-7-4-8.7c-2.3,3.6-4.6,8.6-3.8,13.9c0.2,1.3,0.6,3.9,2.2,4.4c1.6,0.5,3.6-1.2,4.6-2.6
			C152.8,154.5,152.4,151.8,152.1,149.9L152.1,149.9z M149.8,150.7c-0.3,1.6-1.5,3.5-2.4,3.3s-1.2-2.2-1.3-2.5
			c-0.5-2.8,1.1-5.3,2-6.5C148.7,145.7,150.3,148,149.8,150.7L149.8,150.7z"/>
		<path d="M138.4,190.5c6.7-1.1,11.1-0.7,14,0c0.6,0.2,3.9,1,4.5,0c0.3-0.6-0.7-1.6-0.4-1.9c0.3-0.3,1.2,0.3,4.6,2.4
			c1.6,1,2.6,1.6,2.6,2.4c0,0.5-0.4,0.9-0.4,1c-1.6,1.7-5.8-1.1-13.5-2.1c-1.9-0.2-2.6-0.2-5.1-0.6
			C141.9,191.4,139.8,190.9,138.4,190.5L138.4,190.5z"/>
		<path d="M179.2,197.1c-0.4-0.6,2.8-3.6,6.1-5.2c2-1,6.9-2.9,14.7-0.8c-6.9,1.6-12.3,3.4-16,4.8
			C181.7,196.7,179.5,197.6,179.2,197.1L179.2,197.1z"/>
		<path d="M426.9,227.1c-5.4,2.4-10.5,5.4-16.4,1c-1-0.8-2.8-1.1-4.2-0.9c-3.2,0.5-19.5,1.3-34.6,16.5c-2.9,2.9-6.7,7.3-10.4,13.5
			c-1.7,0-4.7,0.5-8.9,0.4c-2.6-0.1-4-0.3-6.2-0.6c-14.4-1.8-29.7-3.6-42.6,3.8c-0.9,0.5-2,0.9-3.6,2.4
			c-9.5,8.9-19.2,17.6-28.5,26.8c-13.8,13.6-27.4,27.5-40.9,41.3c-1.9,1.9-3.3,4.2-5.5,7.2c1.4,0.1,2.4,0.2,3.3,0.3
			c-9.3,8.9-18.5,17.8-27.8,26.6c7.9-6.2,15.8-12.5,23.7-18.7c1.5-1.2,2.9-2.5,5.2-3c-1.6,2.4-3.3,4.8-4.9,7.2
			c0.1,0.1,0.2,0.2,0.3,0.4c2.4-2.1,4.8-4.3,7.2-6.4c0.3,0.2,0.6,0.5,0.9,0.7c-4.9,7.7-9.8,15.4-14.7,23.1c0.3,0.2,0.6,0.4,0.9,0.7
			c6.1-7.8,12.2-15.6,18.4-23.4c0.4,0.2,0.9,0.4,1.4,0.6c-1,3-1.8,6-2.9,8.9c-1.2,3.4-2.5,6.7-4,10c-1.4,3-3,6-3.7,9.5
			c5.4-7.6,10.8-15.1,16.4-22.9c-0.4,10.2-10,34.3-16.9,42.5c-10.4,12.3-24.4,18.4-39.6,22.6c5.4-3.7,10.7-7.5,16.1-11.2
			c-0.1-0.2-0.2-0.5-0.4-0.7c-12.5,5.7-24.9,11.5-37.4,17.2c-0.3-0.5-0.7-1.1-1-1.6c11.6-11.2,24-21.7,33.4-36.5
			c-11.8,10.1-22.8,19.2-33.5,28.6c-9.5,8.4-20.8,13.3-32.7,17c-7.3,2.2-20.6-4.2-24.8-11.3c-3.6-6-1.7-15.6,4.4-22
			c-0.4,3-1.2,5.8-1.1,8.7c0.1,4.1,2.5,6.5,6.6,6.1c4.3-0.4,8.9-0.7,12.9-2.2c23.2-8.4,43.7-21.7,62.8-37.1c0.6-0.5,1-1.3,1.5-1.9
			c-11.3,7.4-22.6,14.8-33.9,22.3c-12.2,8.2-25.3,12.6-40.2,10.7c-3.8-0.5-5.8-2.1-5.8-5.8c0-3.7,0-7.5,0.5-11.2
			c0.2-1.8,1.6-3.5,2.4-5.2c1.2,4.3,1.5,8.2,1.9,12c0.3,2.7,1.9,4.4,4.7,3.5c5.8-1.8,11.6-3.8,17.4-5.8c-0.1-0.4-0.2-0.8-0.4-1.1
			c-13.9,2.5-15.5,2.2-17.4-3.4c2.8,0.4,5.7,0.8,9.8,1.3c-3.1-5.2-9.4-6.2-8.7-11.4c5.9-1.4,11.9-1.8,16.9-4.1
			c12.5-5.9,24.7-12.4,36.8-19.2c14.1-8,27.8-16.5,41.6-24.8c0.3,0.4,0.6,0.9,0.9,1.3c-18.5,14.8-37.1,29.6-55.6,44.4
			c17.5-8,38-20.1,57.7-38.5c4.8-4.5,9.2-9.1,13.2-13.5c-3.2-5.8-6.4-11.7-9.6-17.5c0.5-0.9,0.9-1.7,1.4-2.6
			c3.8,5.9,7.5,11.8,11.3,17.7c0.5-0.7,1-1.5,1.5-2.2c1.2-2.2,2.3-4.4,3.5-6.6c-2.1-2.3-4.2-4.6-6-6.5c3.5-7.1,6.4-14.1,10.2-20.5
			c6.6-11.3,6.2-22.1-0.2-33.3c-2.5-4.3-4.5-9.1-5.8-13.9c-3.1-12.1-5.7-24.4-8.4-36.6c0-0.2,0.3-0.5,0.5-0.7
			c12.4,2.9,19.9,10.6,21.2,23.1c0.8,7.6,0.2,15.3,0.7,22.9c1,16,2.3,31.9,3.5,47.9c0.8,0,1.7,0,2.5,0c0.1-3.4,0.9-6.9,0.3-10.1
			c-2.7-16.5-2.6-33.1-2-49.8c0.1-3.1-0.1-6.2-0.3-9.3c-1.1-12.5-7.5-21.3-18.7-26.7c-2.3-1.1-5-1.7-7.2-2.9c-1.9-1-3.4-2.6-5.1-3.9
			c-1.5-1.1-3-2.4-4.6-3.3c-1.9-1.1-4.5-1.5-6-3c-3.2-3.2-6.9-3.8-10.8-2.7c-4.3,1.3-7.6-0.1-10.9-2.4c-3.1-2.1-6.2-4.2-9.2-6.5
			c-3.7-2.9-5.5-6.6-4.7-11.7c6.6,2.2,10.3-0.3,13.3-5.7c2.3-4.1,5.3-7.8,8.5-11.3c2.3-2.6,5.3-4.4,8-6.6
			c-0.1,6.4-0.7,12.1-2.4,17.5c-1.9,6.3-0.3,11.6,3.4,16.5c0.9,1.2,3.6,2.5,4.7,2c1.6-0.7,3-2.8,3.5-4.6c0.4-1.5-0.6-3.4-0.8-5.2
			c-0.3-2.2-1.3-5-0.3-6.6c3.8-6.7,2.8-14,3.1-21c0.2-5.2,1.2-8.6,7.2-9.4c3.9-0.5,6.5-3.2,5.4-7.7c-1.4-6.2-1.4-6.2,4.6-7.4
			c7.8-1.5,11.1-8.2,7.9-15.3c-0.7-1.4-1.1-3.5-0.6-4.9c3.5-8.8,2.3-12.7-5.3-16.7c0.4-3.1,1.6-6.4,0.9-9.1
			c-2.8-10.9-8.1-20.5-17-27.7c-1.9-1.5-3.6-3.3-5.4-4.9c-6-5.4-12.1-10.7-20.7-10.9c-3.4-0.1-4.3-1.6-5.3-4.3
			c-1.2-3.1-2.5-6.7-4.9-8.6c-13.9-11-34.6-10.4-45.2,5.5c-2,3-4.3,3.6-7.8,3.2c-5.9-0.7-11.2,1.9-12,2.2c-4.1,1.9-6.6,5.1-7.9,6.7
			c-1.6,2-2.7,4-3.3,5.4c-1.3-2.7-2.8-3.5-3.8-3.7c-5.1-1.1-12.9,8.9-14.5,19c-0.4,2.5-1.5,8.4,1.9,14.1c3.9,6.5,12.1,9.2,21.3,10.9
			c-1.1,2.3-2,4-2.8,5.8c-6.9,15.7-4.3,26.3,8.3,33.6c-5.2,7.1-1.4,12.3,4.6,17.3c-3.5,1.9-6.4,3.3-9.2,4.9
			c-14.5,8.4-16.6,29.1-3.5,37.5c-3.9,2.1-6.8,7.1-12.1,4.6c-8-3.8-16.3-2.5-24.4-1.7c-9,0.9-15.9,5.5-18.8,14.8
			c-0.6,1.9-1.5,3.6-2.5,5.3c-4.2,6.8-4.8,14-3.8,21.7c0.6,4.1,0.5,8.4,0.8,12.5c0.2,3.3-1.3,4.5-4.5,5c-3.6,0.6-7.3,1.7-10.6,3.3
			c-4.6,2.1-8.9,4.7-13.1,7.5c-2.1,1.4-4.1,3.3-5.4,5.4c-4.5,7.5-3.4,14.9,1.1,22.1c3.1,5.1,2.8,5.8-2.7,8.3
			c-0.7,0.4-1.5,0.6-2.3,0.9c-6.8,3-9.6,7.7-8,14.8c0.8,3.3,0,5.3-1.9,7.9c-10.4,14.6-12.2,29.8-2.9,45.7c1.1,1.9,1.7,4.7,1.4,6.9
			c-1.4,11.3-2.7,22.7-4.9,33.9c-1.5,7.7,0.1,13.5,6.8,17.7c4.4,2.8,5.6,6.5,4.8,11.7c-1.9,11.7-3.4,23.6-4.9,35.4
			c-1.6,12.9,1.9,19,14,24c3.5,1.4,7,2.7,10.5,4.2c6.6,2.8,7.9,5.1,6.9,12.1c-4.2,30.5-8.2,61.1-12.7,91.6
			c-1.3,8.5,0.7,15.5,6.9,21.2c5,4.7,10.1,9.3,15.2,13.8c2.7,2.3,3.6,4.9,3.4,8.6c-0.5,9.8-0.5,19.5-0.8,29.3
			c-0.2,6.9,2.2,13,6.3,18.1c4.1,5.2,8.6,10.6,14,14.2c8.8,5.8,17.3,11.3,24.2,19.5c2.7,3.1,3.7,5.3,3.3,9.1
			c-1.3,11.3-1.3,22.5,4.6,32.8c0.7,1.2,0.4,3.1-0.1,4.5c-3.6,11-7.2,22-11,32.9c-3.9,11.4-7,23.2-17.6,30.8
			c-1.9,1.4-3.3,4.2-3.8,6.7c-1.1,5-3.9,5.4-8.5,5.1c-6.6-0.3-13.5-0.4-19.7,1.5c-9.3,2.8-10.5,14.2-2.8,20.2c1.8,1.4,3.9,2.3,6,3.2
			c5.3,2.3,10.7,4.5,10.3,11.8c0,0.6,0.3,1.5,0.7,1.8c5.3,3.3,2.5,7.2,1.1,11.1c-2.4,6.3-1.9,7.8,3.5,12c0.7,0.6,1.7,1.3,1.9,2.1
			c0.9,4.8,4.7,6.2,8.6,6.8c6.2,1.1,12.6,2,18.9,2.3c4.7,0.2,9.6,0.2,12.6-4.7c0.3-0.5,1.4-0.9,2.1-0.9c5.7,0.4,11.3,0.9,16.8,1.3
			c1.2,9.2,2.4,11.3,10.7,13c17.1,3.5,34,3.9,50-4.8c2.4-1.3,5.2-2.4,7.8-2.4c5.2,0.1,10.3,1.2,15.5,1.6c2.6,0.2,5.2,0,7.7-0.5
			c4.2-0.8,8.3-2.3,12.5-3.1c4.9-0.9,10.1-0.7,13.9-5c0.5-0.6,3.1-0.3,4.1,0.5c7.6,5.2,16.1,6.8,25.1,6.3c8-0.4,13.9-4.5,18.2-10.7
			c2-2.9,4-3.5,7.1-3.6c10-0.5,20-1,29.9-2.4c3.5-0.5,7.1-3.2,9.6-5.9c3-3.3,1.4-6.4-2.9-7.5c-2.9-0.8-5.9-1.3-8.8-1.9
			c0.5-7.2-0.9-8.7-7.9-9c-2.6-0.1-5.2-0.2-7.8-0.3c-4.6-0.2-7.9-2.5-10.6-6.1c-13.6-18.2-22.1-38.7-27.2-60.7
			c-0.4-1.8,0.3-4.6,1.5-6.1c6.5-7.7,13.2-15.3,20-22.7c5-5.5,7.8-11.6,7-19.1c-1.1-9.4-2.4-18.7-3.4-28.1c-0.2-2.2-0.8-4.9,0.2-6.6
			c3.5-6,3.5-12.4,2.9-19c-2.2-25.3-4.4-50.7-6.4-76c-0.2-2.8,1.2-5.8,2.2-8.6c1.8-5.3,5.4-10.6,5.3-15.9c-0.3-10.2,3-17,11.7-22.5
			c8.3-5.1,12.4-13.1,10-23.5c-0.4-1.9,1.2-5,2.8-6.4c5-4.3,7.4-9.4,7.1-15.9c-0.2-3.9-0.3-7.8-0.5-11.7c-2.4-35.3-5-70.6-7.2-105.9
			c-1.4-22.1-2-44.3-3-66.4c-0.2-4.5,7-10,11.1-8.5c11.2,4.3,19.4,1.9,25.2-8.7c5.2-9.5,9.5-19.4,17.7-27c3.6-3.3,5.3-8.6,8.5-12.5
			c2.5-3.1,3.6-5.3-1.1-7.7c1.6-1.9,2.8-3.7,4.2-5.1c7.5-7.3,15-14.5,22.5-21.8c7-6.8,14.2-13.5,21-20.5c1.1-1.1,0.8-3.6,1.2-5.4
			C430.5,226.9,428.4,226.4,426.9,227.1L426.9,227.1z M274.4,331.4c11.6-1.5,23.2-3,35.5-4.5c-1,1.2-1.5,2-2.2,2.7
			c-9.9,9.1-20.9,16.5-33.2,21.8c-3.9,1.7-7.2,1.4-10-2c-3-3.5-2.6-7.1-0.6-10.8C266.1,334.4,269.7,332,274.4,331.4L274.4,331.4z
			 M291.5,444.1c-5.3-2.8-8-6.8-7.3-13.7c1.7-18.2,2.6-36.5,3.8-54.8c0.4,0,0.8,0,1.1,0C290,398.4,290.8,421.3,291.5,444.1z
			 M263.9,332c-2.5,5.3-4.5,9.8-7.1,15.5c-2.3-4.5-4.4-8.5-7-13.7C254.8,333.1,259.3,332.6,263.9,332L263.9,332z M214.9,409.2
			c10.6-7.1,18.2-16.2,22.9-28.3c4-10.2,9.6-19.9,14.6-30.1c4.1,11.8-4.3,20.8-5.8,31.7c1.7-2.3,3.5-4.6,5.1-7
			c1.7-2.5,3.2-5.1,5.8-7.2c-0.3,3.3-0.6,6.6-1,11.1c2.1-3.1,3.6-5.4,5.2-7.8c4.1,0.9,3.7,3.6,1.6,5.8c-5.8,6.4-11.2,13.4-18.1,18.5
			c-18,13.4-36.4,26.3-55.2,38.6c-12.5,8.2-28.7,7.5-41.3-0.4C175.6,437.1,195,422.5,214.9,409.2L214.9,409.2z M181.5,615.8
			c-2.1,19.5-7.2,38.1-17.6,55c-1.7,2.8-3.6,5.5-5.8,7.8c-5.2,5.4-13.9,5.5-18.6-0.3c-2.8-3.4-5.5-7.6-6.4-11.8
			c-4.2-19.8-7.9-39.6-11.3-59.5c-1-5.9-0.3-12-1.1-18c-0.4-2.8-2.3-5.6-4.2-7.9c-6-7.6-6.9-15.8-3.2-24.9c0.7,8.4,3.2,15.9,9.5,22
			c-0.6-3.6-1.4-7.1-1.9-10.7c-3.9-26.2,13.6-55.9,38.5-65c3.5-1.3,7.3-1.8,10.8-3.1c8.6-3.1,16-8,22.2-14.7
			c1.2-1.2,1.7-3.1,2.5-4.6c0.8,0.6,1.5,1.3,2.3,2c-3.4,6.4-6.7,12.9-10.2,19.2c-3.5,6.2-7.2,12.3-10.1,19.2c3-2.5,6-5,8.9-7.6
			c6.7-6,6.6-6,9.3-2.6c11.6-30.6,22.9-60.5,34.2-90.3c0.6,0.1,1.2,0.2,1.8,0.4c-0.8,6.6-1.3,13.2-2.5,19.8
			c-4.6,25.9-11.8,51.1-22.2,75.3c-2.6,6.1-6,12-9.6,17.5c-3.6,5.6-7.9,10.7-12,16c0.2,0.2,0.4,0.5,0.6,0.8
			c4.2-3.8,8.4-7.5,13.5-12.2c-6.8,19.3-12.3,37.8-23.4,54.1c2.1-2.3,4.3-4.5,6.2-7c11.1-14,18.3-30.1,23.7-46.9
			c7.1-22,13.1-44.4,19.6-66.5c6-20.5,12-41,18-61.4c0.2-0.7,0.8-1.4,2.3-2c0,1.6,0.1,3.2,0,4.8c-3,45.8-13.5,89.9-30.8,132.3
			c-4.1,10.2-10,19.8-15.8,29.2c-5.8,9.4-12.4,18.2-18.3,26.8C180.7,605.7,182,610.9,181.5,615.8L181.5,615.8z M126.8,662
			c0-1.1,0.3-2.2,0.9-3.3c2.9,7.6,6,15.1,4.1,23.7c-0.7-0.5-1.3-0.8-2.1-1.4v8.5c-1.2-3.9-2.1-6.7-3-9.5c-3.3,9.6,1.5,17.3,5.9,25.4
			c-9-3.4-15.5-19.4-10.5-26.7C125.8,673.5,127,668.2,126.8,662L126.8,662z M114,738.2c3,8.1,2.8,15.2-2.5,22.5
			c-2.1,2.9-1.9,7.4-2.7,10.8c-2.6-5.9-1.2-13.8,3.2-18.8c1.2-1.3,1.8-3.8,1.5-5.6c-0.6-3.3-2.2-6.5-3-9.8
			c-4.1-16.9-3.2-33.2,6-48.5c0.5-0.8,1.2-1.5,2.5-3v27.4c-0.9-2.1-2.3-5.1-4-8.8C110.7,716,109.9,727.1,114,738.2L114,738.2z
			 M139.8,447.2c-4.1,3.2-8.5,5.3-13.6,4.1c-7.1-1.6-9.3-7.8-11.5-14C121.4,445,129.6,448.3,139.8,447.2L139.8,447.2z M116.6,357
			c4.1-2.6,7.5-4.7,10.8-7c9.7-6.7,19.3-13.5,29-20.3c0.5,0.6,0.9,1.2,1.4,1.9c-10.9,8-21.6,16.1-32.7,23.8
			C123,356.7,119.8,356.4,116.6,357L116.6,357z M162.7,341.7c10.6-4.5,21.1-9.1,31.7-13.6c0.1,0.2,0.2,0.4,0.3,0.5
			c-5.1,3-10,6.3-15.2,9.1c-7.8,4.1-15.4,8.7-23.6,11.7c-9,3.4-18.6,5.2-28.3,7.9c14.9-8.9,29.5-17.6,44.1-26.3
			c0.1,0.1,0.2,0.2,0.3,0.3c-3.4,3-6.9,6-10.3,8.9C162.1,340.7,162.4,341.2,162.7,341.7L162.7,341.7z M144.9,367.4
			c-7,1.8-14,2.9-21.8,0.5c7.3-1,14.1-1.9,20.8-2.8l-0.2-0.9c-3-0.5-5.9-1.1-8.9-1.7c-0.1-0.6-0.1-1.2-0.2-1.7
			c22.4-7.2,44.8-14.2,64.6-27.7C181.9,345.7,166.6,361.7,144.9,367.4L144.9,367.4z M216.7,184c5.8,4.7,8.6,10.8,10.3,17.6
			c2.6,10.3,5.2,20.5,7.9,30.8c0.7,2.6,1.8,5.1,3.6,7.4c-4.4-16.9-8.9-33.9-13.3-50.9c0.6,0.5,1.5,1.3,2.4,2.4
			c3.6,4.1,4.8,8.4,5.4,10.4c5.2,18.7,7.9,37.7,7.9,37.7c0.6,2.9,1.8,5.8,2.7,8.7c0.2,0.6,0.6,1.1,1,1.7
			c9.1,15.7,5.3,26.8-12.6,34.6c2.1-2.8,3.7-4.9,5.4-7.1c-0.1-0.1-0.3-0.3-0.4-0.4c-2.4,1.8-4.7,3.7-7.3,5.3
			c-1.1,0.7-2.7,0.5-4.5,0.8c1.1-2.1,2-3.8,2.9-5.5c-0.5-0.4-0.9-0.8-1.4-1.2c-1.2,1.9-2.5,3.7-3.7,5.6c-0.3-0.2-0.6-0.5-0.9-0.7
			c1.8-2.9,3.6-5.8,5.4-8.6c-4.1,1.6-8.1,3.1-12,4.6c-0.3-0.5-0.5-1-0.8-1.5c1.9-2.6,3.8-5.2,6-8.2c-5.7,0.8-9.4,10.2-16.4,2.7
			c3.7-5.9,7.4-11.7,11.1-17.6c-0.3-0.2-0.6-0.5-0.9-0.7c-3.7,4.5-7.4,9-12.2,14.9c-0.6-2.8-1.7-4.7-1.2-5.6
			c11.2-18.4,14.9-38.8,15.6-59.9c0-0.4,0.4-0.8,1.1-2.6c1.7,9.5,3.2,17.8,4.7,26.1c0.3,0,0.6-0.1,0.9-0.1
			C221.1,211.2,218.9,197.8,216.7,184L216.7,184z M220.1,154.9c-0.9,0.6-2.5,0.3-3.4,1.6c-0.4,0.6-0.6,1.3-0.5,2.4
			c0.2,3.6,2.6,7.7,3.6,9.2c-1.5-1.4-4.1-4.3-5.2-8.8c-2.3-8.7,2.7-15.8,3.5-16.9C221.3,150.9,221.3,154,220.1,154.9L220.1,154.9z
			 M208.9,136.3c0.2-0.4,0.5-0.9,0.9-1.7c1.1-2.4,1.3-3.9,2.6-8.1c0.2-0.5,0.4-1.2,0.7-2.2c1.9-7,1.7-7.1,9.6-6.1
			C218.1,124.2,213.5,130.2,208.9,136.3L208.9,136.3z M229.2,97.2c-0.4,1.7-0.9,4.3-3.1,6.3c-3.9,3.8-8.6,1-12.1,4.6
			c-1.8,1.9-2.8,5.2-4.2,12.2c-1.6,7.8-1.4,12.2-3.8,13.1c-0.5,0.2-0.7,0-4.1-0.6c-4.7-0.9-7.4-1.9-7.9-1.1c-0.4,0.8,1.9,3,2.4,3.4
			c1.1,1,3.7,3.4,6.5,3c0.6-0.1,1.5-0.4,3.2-0.5c0.6,0,1.1,0,1.4,0c-1.5,1.7-2.9,3.4-5.3,6.1c0-0.1,0.3-1.2-0.4-1.8
			c-0.4-0.4-1.1-0.3-1.3-0.3c-0.5,0-0.7,0.2-1.1,0.1c-0.2-0.1-0.4-0.2-0.8-0.5c-0.5-0.4-0.6-0.5-0.9-0.7c0,0-0.3-0.2-0.6-0.3
			c-1.9-0.7-5-0.1-5-0.1c-1.5,0.3-3.5,0.8-5.9,1.7c0.5,0.4,1,0.9,1.7,1.4c1.6,1,3.1,1.4,4.2,1.6c-0.4,0.1-0.8,0.1-1.2,0.1
			c-1.6,0-2.8-0.6-3.6-1c0.9,1.1,2.1,2.6,3.9,4.1c2.4,2.1,4.4,2.6,3.9,3.7c-1.1,2-2.7,4.7-4.6,5.1c-2.7,0.6-6.9,0.7-8.6-0.9
			c-7.2-6.9-13.8-14.6-20.6-22c-0.7-0.8-1-2.1-1.1-3.1c-0.4-6.9-0.7-13.8-0.8-20.7c-0.1-5,3.6-7.8,6.9-10.7c6-5.3,7.3-5,10.9,2.2
			c0.8,1.6,1.3,3.4,2,5c3.6,7.5,14.7,9.5,20.9,3.9c0.9-0.8,2.2-1.1,3.1-1.8c1.4-1.1,3.4-2.3,3.8-3.8c0.1-0.4,0-1.8-2.9-3.8
			c-7.1-4.8-19.2-5.4-23.4-7.2c-0.4-0.2-1.3-0.6-1.3-1.1c0-0.6,1.5-1,2-1.2c5.8-1.5,11.6-3.2,17.5-4.4c8-1.7,15.3-4.6,21.5-12.2
			C221.9,76.4,231.6,86.6,229.2,97.2L229.2,97.2z M134.5,90.6c2.4-9.2,7-17.2,14.6-23c6.9-5.3,12.2-11.6,14.7-20.1
			c0.4-1.3,1.2-3,2.3-3.6c1.4-0.8,3.4-1.2,4.9-0.8c0.7,0.2,1.3,2.8,1.1,4.1c-0.9,5.2-4.4,8.6-8.9,10.9c-4.4,2.3-7.8,5.5-9.6,10.2
			c0,0,0.1-0.1,0.1-0.1c-2,2.6-4.2,5.1-5.9,7.8c-4.1,6.6-8,13.4-13.2,20C134.4,94.2,134.1,92.3,134.5,90.6L134.5,90.6z M133.6,81.8
			c-0.7-0.9-6.7-9.3-3.5-14.7c1-1.7,3.2-3.6,4.5-3c1.3,0.5,1.3,3.3,1.3,5.6C135.9,72.5,135.5,76.7,133.6,81.8L133.6,81.8z
			 M137.9,74.9c1.2-5.5,1.7-9.1,1.9-11.7c0-0.3,0.1-1.6,0.9-2.9c1.1-1.9,3.2-3.6,4.4-3.1c0.4,0.2,0.7,0.8,1.3,2.2
			c0.5,1.1,0.8,1.6,0.9,2.2c0,0,0.4,1.5-0.2,3.6C146.5,67.7,143.2,71.4,137.9,74.9L137.9,74.9z M156.4,47.8
			c3.3,5.4,1.4,10.5-6.6,16.7C149.1,53.7,150.3,50.5,156.4,47.8z M210.3,62.8c-0.3-0.7,0-1.5,0.4-1.9c1.6-2,7.1-0.6,10.4,2.2
			c0.8,0.7,1.9,1.7,1.8,2.9c-0.2,1.4-2.3,2.2-3.1,2.5c-7.3,2.7-15.9-1.9-16.4-0.8c-0.2,0.5,1.1,1.6,2.3,2.2c1,0.5,2,0.5,2.6,0.5
			c-2.3,1.7-4.4,2.5-6,2.9c-5.2,1.3-8.7-0.6-11.2,1.8c-1.1,1.1-0.6,1.6-1.7,3.3c-2.7,4-8.1,4.7-9.4,4.9c-5.4,0.6-10.4-1.9-12.4-4.8
			c-0.3-0.4-1-1.5-1.2-3.1c-0.1-0.4-0.3-2.8,0.9-3.8c0.8-0.6,2-0.5,3.9,0.2c4.3,1.6,7.9,1.8,9.9-3.4c0.5-1.2,1.9-2.6,3.1-2.9
			c6.8-1.4,13.7-2.7,20.6-3.5c2.2-0.2,4,1.8,5.9,2.8c1.7,0.9,2.7,1.5,4.2,1.4c2-0.1,3.8-1.3,3.7-1.8
			C218.3,63.6,211.3,65.2,210.3,62.8L210.3,62.8z M217.5,73.2c-6.6,7.2-13.7,7.9-18.8,1.5C205.5,79.4,211.5,76.5,217.5,73.2z
			 M191.4,101.5c-1.1,0.9-3.3-0.5-6.7-2c-5.1-2.1-8.3-2.3-8.2-3.1c0.1-0.6,2.1-0.9,3.4-1c0.8,0,1.4,0.1,1.8,0.1
			c3,0.5,3.9,1.2,8.9,3.2c0.5,0.2,1.3,0.5,1.5,1.2C192.2,100.5,191.8,101.2,191.4,101.5L191.4,101.5z M193.6,104.8
			c-0.1,0.5-2.7,0.8-5,0.3c-3.1-0.6-5.7-2.6-5.5-3.1c0.1-0.3,1-0.1,2.8,0.2C188.2,102.7,193.7,104,193.6,104.8L193.6,104.8z
			 M166.8,81.3c0.1,1-2.1,1.8-3.5,2.4c-6.3,2.6-12.8,0.3-15.6-0.9c1.1-0.9,2.7-2.1,4.9-3C159,77.4,166.6,79.5,166.8,81.3L166.8,81.3
			z M163.3,93.8c-1.6-0.6-3.3-0.9-4.7-1.8c-7.1-4.2-12.4-3.5-18.8,3.3C144.5,82.3,153.8,81.7,163.3,93.8L163.3,93.8z M248.3,84
			c0.1,0.6,0.3,2.7-0.9,4.7c-0.6,0.9-1.3,1.5-1.8,1.8c0.7,1,1.6,2.6,1.9,4.6c0.1,0.9,0.3,2.2-0.3,3.7c-0.3,0.7-0.7,1.7-1.3,1.7
			c-1.1,0-1.1-3.6-3.5-6.2c-1.6-1.7-2.7-1.4-5.4-2.7c-7.1-3.5-10.1-11.1-10.5-12.4c-0.8-2.2-1.2-4.2-1.4-5.4c1.3,2.6,2.6,4.6,3.6,6
			c1.2,1.7,2.5,3.4,4.6,5.2c2.1,1.8,3.4,2.9,5.6,3.3c0.8,0.2,3.7,0.6,6.4-1.2C247,86.1,247.9,84.7,248.3,84L248.3,84z M245.2,82.4
			c0.1,0.7,0.4,1.9-0.3,2.8c-1,1.2-3.4,1.1-4.9,0.5c-3.5-1.3-3.7-5.4-6.7-10.4c-1.4-2.3-3.7-5.4-7.9-8.4c0.6,0.3,11.8,6.5,16.7,10.8
			C242.9,78.3,244.7,80,245.2,82.4z M241.2,65.7c-0.3,0.7-1.3,0.9-1.5,1c-3.2,0.7-6.9-4.1-7.8-5.2c-7.9-9.2-31.1-6.9-34.5-6.6
			c-15.8,1.6-28.1,9-32.6,11.7c-5.3,3.3-11.4,7.9-12.2,7c-0.6-0.7,2.9-4.8,3.4-5.4c12.2-14,33.6-16.9,39.2-17.6
			c5-0.6,11.9-1.4,20.7,0.1c0,0,12.3,2.2,22.9,11.3C239.5,62.8,241.6,64.5,241.2,65.7z M211.6,45.2c-0.7-1.2-5.4,0.3-5.5,0.4
			c-3.1,1-7.8,2.3-15,3.3c3.1-3.2,6.5-6,11.3-6.8c5.7-1,9.1-3.8,13.1-2.3c5.1,1.9,7.1,7.6,7.7,9.2c-4.3-1-7-1.2-8.7-1.2
			c-0.6,0-2.2,0-2.7-0.9C211.4,46.3,211.9,45.7,211.6,45.2L211.6,45.2z M172.5,54c6.5-12,10.5-14.4,19.3-11.7
			C187.5,48.1,180.6,52.3,172.5,54z M231.3,48c5.3,1.8,6.8,9.7,7.1,11.5c-1.2-1.2-3-2.9-5.5-4.4c-4.9-2.9-9.9-3.8-9.9-4.2
			c0.1-0.4,4.3,0.3,4.5-0.5c0.2-0.6-1.8-1.5-1.6-2.2C226.1,47.3,229.2,47.2,231.3,48L231.3,48z M229.7,46.7c-2.4-1.2-3.9-1.6-5-2.5
			c-5.2-4.7-10.4-9.5-15.5-14.2C211.8,28.8,226.4,39.3,229.7,46.7z M209.5,38.2c-1.8,1.2-3.5,1.8-5.1,1.9c-2.2,0.2-3.4-0.6-6.8-1.9
			c-4.1-1.5-9-2.8-9.2-2.3c-0.1,0.2,0.5,0.8,3.9,2.6c-1.2,0.3-2.6,0.5-4,0.7c-6,0.6-11.1-0.6-14.5-1.9
			C182.6,29.3,203.9,30.4,209.5,38.2L209.5,38.2z M188.7,18.5c0.6-3.1,0.9-5.1,1.8-5.2c1.2-0.2,3.6,3,3.1,6.1
			c-0.4,2.5-2.5,4.7-5.6,5.5C188,23.4,188.2,21.2,188.7,18.5L188.7,18.5z M171.8,4.1c8.6-0.1,16.3,5,16,6.2c-0.1,0.4-1,0.1-1.8,0.9
			c-1.5,1.5-0.5,4.2-1,4.4c-0.9,0.3-3.4-7.2-5.8-6.9c-0.1,0-0.4,0.1-0.6,0.3c-0.5,0.5-0.4,1.7,1.9,6.9c0.9,2.1,1.3,2.8,1.2,3.8
			c-0.1,1-0.7,1.9-1.7,2.9c-5.5-9.3-9.6-11.5-23.4-12.7C159.2,7.8,164.6,4.2,171.8,4.1L171.8,4.1z M142.6,22
			c1-3.1,13.1-1.4,13.2-2.5c0-0.3-1-0.8-1.6-1c-1.3-0.6-2.1-0.5-2.1-0.7c-0.1-0.5,4.5-3.2,9.7-2.5c0.7,0.1,5.7,0.9,8.7,5.2
			c2.9,4.1,2.3,7.4-2.1,10c-0.6-1.8-1.9-4.8-4.6-7.4c-2.1-2-4.8-3.4-5.1-3c-0.5,0.6,4.5,3.7,5.1,8.7c0.4,3.2-1.1,5.9-2.2,7.7
			c-2.9-9-6.4-11.8-9.3-12.5c-3.6-0.9-8.7,1-9.6-1C142.6,23,142.4,22.6,142.6,22L142.6,22z M125.9,24.9c3.2-3.7,5.4-4.5,6.4-4.8
			c1.8-0.5,4.9-0.9,5.4,0.2c1,2.1-10.2,5.7-14.1,16c-1.4,3.7-1.5,7.4-2.4,7.4c-0.8,0-1.7-3.1-1.7-6
			C119.6,32.1,123.2,28.1,125.9,24.9L125.9,24.9z M104.5,40.6c0.5-4.4,3.4-8.5,4.8-8.1c1.9,0.5-1.9,9.5,2.7,15.6
			c3.9,5.2,11.3,5.2,11.1,6.7c-0.2,1-3.6,1.5-6.3,1.2c-5.3-0.7-8.5-4.8-9.1-5.7C106.7,49,103.9,45.5,104.5,40.6L104.5,40.6z
			 M110,64.4c-3.6-1.5-5.6-4.2-6.6-5.6c-1-1.4-2.8-4-3-7.6c-0.2-3.7,1.1-7.2,1.8-7.2c0.9,0.1-1.1,6.7,2,11.6
			c4.8,7.6,18.3,5.7,18.3,7.5C122.6,64.4,115.8,66.8,110,64.4L110,64.4z M119.7,80.1c2.1,5.5,4.2,11.2,6.3,16.4
			C120,93.4,116.9,85.7,119.7,80.1z M116.9,93.2c4,4.1,7.7,7.8,10.6,10.8C122,103.5,118,99.9,116.9,93.2z M125.6,38.9
			c0-3.3,1.5-5.6,2.7-7.2c4.8-6.8,10.8-8.4,20.4-5.6c2.6,0.7,3.6,1.9,4.2,2.6c2,2.2,3.1,5.5,2.1,6.4c-0.9,0.8-3.1-1.5-7.7-2.9
			c-2.1-0.6-6.1-1.8-9.3-0.7c-6.8,2.5-6.6,14.6-9.5,14.5C127,45.9,125.7,41.9,125.6,38.9z M128.3,116.8c9.1-3.6,14-9.4,16.8-18.4
			C145.3,108.1,137.6,116.7,128.3,116.8L128.3,116.8z M116.4,153.3c-3.3-9.6-0.9-12.6,17.6-21.9c-0.7,1.5-1.1,3.3-2.2,4.4
			c-1.2,1.2-2.9,2.2-4.5,2.8C120.7,140.8,116,144.5,116.4,153.3L116.4,153.3z M120.1,172.9c12.1-6.7,19.9-17.2,24.9-29.7
			c1.7-4.3,2.2-9.1,2.5-13.8c0.3-5.2,2.1-9.4,6.5-12.9c-2,6.2-0.9,11.7,2.3,17c0.3,0.5,0.1,1.3,0.1,1.9c-1.4,9.7,4.9,31.6,13.1,50.8
			c0.3,0.7,2.1,4.8,3.7,4.6c2.4-0.3,2.9-10.2,5.9-10.4c0.7-0.1,1.1,0.5,1.8,0.3c1.4-0.4,1.7-3.4,1.7-6.3c3.1,1.9,5.7,3.7,8.5,5.3
			c4.1,2.4,8.3,4.6,12.4,6.8c3.4,1.9,5.8,4.6,5.4,8.6c-1.6,16.8-8,31.8-17,45.8c-0.3,0.5-0.9,0.9-1.9,1.8
			c-14.4-15.1-31.5-26.1-49.2-36.3c-2-1.1-3.9-2.4-5.6-3.9c-8.4-7.8-16.8-15.7-25.1-23.5C113.1,177,116.6,174.8,120.1,172.9
			L120.1,172.9z M84.8,176.8c3.7-0.1,7.4,0.6,11.1,0.9c0.8-0.2,1.6-0.4,2.4-0.6c8.5,3.1,16.3,7.5,22.4,14.4
			c9.1,10.1,20.2,17.4,31.9,24c11.5,6.5,21.4,14.9,29.9,24.9c2.5,2.9,4.4,6.3,7.1,10.1c2.7-4.8,5.8-9.2,7.8-14.1
			c5-12.5,10-25.1,14-38c1.4-4.4,0.1-9.7-0.1-15.2c1.1,1.2,3.2,2.6,3.3,4.1c0.5,5.3,0.9,10.7,0.4,16c-1,9.1-2.8,18-4.1,27.1
			c-1.9,12.6-7.1,23.6-15.6,34.3c4.2,3.9,8.3,7.7,12.8,11.9c-5.6,1-8.9-1.8-12.2-4.7c-13.4-11.9-26.8-23.8-40.3-35.6
			c-1.3-1.1-3-1.9-4.5-2.8c1,1.1,1.9,2.2,3,3.2c12.3,11.6,25.3,22.7,36.7,35.1c4.6,5,9.4,5.8,14.9,7c3.2,0.7,6.4,1.2,9.6,2
			c2,0.5,3,1.7,3.3,1.9c1.6,1.3,1.7,1.9,4.2,4.6c2.2,2.4,2.2,2.1,3.4,3.8c1.2,1.5,2,2.7,2.4,4.4c0.4,1.8,0.3,4.1-0.5,4.4
			c-0.2,0.1-0.6,0.1-3-2.6c-1.6-1.9-1.6-2.2-2.8-3.5c-1.8-2-3.5-3.2-4.7-4.1c-1.1-0.8-2.1-1.5-3.4-2.1c-3.1-1.5-6.9-2.1-7.1-1.6
			c-0.2,0.6,4,2,9.4,5.8c4.5,3.2,11.3,9,10.2,11.4c-0.3,0.6-1.1,1-1.7,1.1c-1.4,0.2-2.1-1.2-5.1-3.3c-1.3-0.9-2.4-1.5-3.3-2
			c-0.5-0.3-2.1-1.1-4.3-2c-2.1-0.8-2.2-0.7-5.1-1.7c-3.1-1.1-4.4-1.7-4.5-1.4c-0.2,0.4,1.7,1.9,1.8,2c2.2,1.7,3.9,2.2,6.4,3.3
			c3.1,1.3,4.7,2,6.2,3.3c1,0.9,3.6,3.3,3.1,5.8c-0.4,2.1-2.9,3.9-4,3.4c-0.6-0.3-1-1.4-1-2.2c0-0.1,0-0.4,0.1-1
			c0.1-1.1,0.2-1.1,0.1-1.2c-0.2-0.7-1.2-0.8-2.7-1.3c-1.3-0.4-1-0.5-2.8-1.2c-1.3-0.5-3.5-1.4-6.1-1.7c-1.4-0.2-4.3-0.5-4.5,0.1
			c-0.1,0.3,0.7,0.8,4.4,2.5c5.2,2.5,6.7,3,7.6,4.7c0.1,0.2,1.3,2.3,0.4,3.5c-0.3,0.4-1,0.6-2.4,1c-1.9,0.5-2.8,0.8-3.3,0.4
			c-0.6-0.5-0.6-1.8,0-2.3c0.5-0.4,1.5,0,1.6-0.2c0.1-0.2-0.4-0.6-1-1c-1.5-0.9-3.2-0.8-3.4-0.8c-20.3,1.2-26.4,2.8-26.4,2.8
			c-4.5,1.2-4.9,1.5-7.6,1.9c-6.9,1.1-13.5,0.3-19.7-3.2c-1.8,1.5-3.5,3.2-5.5,4.5c-12.6,8.7-25.3,17.3-37.9,26
			C95.6,350,84.7,356.5,72,359.4c-6.6,1.5-13.1,3.8-19.5,5.9c-1.5,0.5-2.8,1.6-4,2.7c-3.8,3.6-6.4,3.7-8.5-0.9
			c-1.5-3.2-3-8.2-1.5-10.5c3.3-5,1.9-9.3,0.9-14.1c-0.3-1.6-0.3-3.3-0.1-4.9c1.7-16.5,5.8-32.4,11.4-47.9c0.5-1.5,1.9-3.3,3.3-3.8
			c11.9-4.6,24-9,36.3-13.6c-0.2,1.4-0.1,3.1-0.6,4.5c-4.7,13.2-9.4,26.4-14.3,39.5c-1.8,4.9-5.1,7.9-10.6,9
			c-5.6,1-9.9,4.5-12.8,9.3c5.2-2.2,10-5,15.2-6.5c6.4-1.9,13.1-2.5,19.5-4.4c7-2.1,13.8-5,21.2-7.6c-3-2.5-5.1-4.3-7.2-6
			c1.2-0.7,1.9-0.6,2.2-0.2c4.6,5.5,9.6,4.2,14.7,1.1c1.3-0.8,2.6-1.4,3.9-2.1c15-8.5,30.2-16.6,46.6-22.5
			c7.2-2.6,13.8-6.8,21.3-10.6c-3.3-2.9-5.9-5.3-8.6-7.6c-0.2,0.2-0.4,0.5-0.6,0.7c0.9,1.7,1.9,3.4,2.8,5.1
			c-4.6-3.7-8.2-8.2-12.3-12.1c-24.5-23.4-49.2-46.7-73.6-70.1c-5.4-5.2-11.2-6.1-17.9-3.5c-1.8,0.7-3.6,1.4-5.4,2.1
			c5-5.3,11.3-6.1,17.9-6.2c-9.6-5-17.4-0.6-25.2,5.5C70,181.2,76.2,177,84.8,176.8L84.8,176.8z M76.9,450.3
			c0.1-8.5,0.2-16.9,0.4-25.4c0-1.7,0.2-3.4,0.3-5c0.4,0,0.8,0,1.1,0c2.7,32.2,5.4,64.5,8.1,96.7c-7.6,1.4-9.9,0.1-10-7.2
			C76.6,489.7,76.8,470,76.9,450.3L76.9,450.3z M76.8,567c-0.5,0.3-1,0.6-1.5,0.9c-8.1-3.8-16.2-7.7-24.2-11.5
			c7.8-5,15.2-9.7,23.4-14.9C75.3,549.9,76,558.4,76.8,567L76.8,567z M63,414.7v86.8c-3.2-1.5-5.7-2.8-8.3-3.7
			c-2.6-1-5.3-1.6-7.5-2.2c4.9-27,9.9-53.9,14.8-80.8C62.4,414.7,62.7,414.7,63,414.7L63,414.7z M50.3,282c-1.4-0.8-2.6-2.2-3.9-3.3
			c1.2-1.1,2.2-2.9,3.5-3.2c11.5-2.7,23.1-5.2,34.7-7.8c0.2,0.3,0.3,0.7,0.5,1c-10.7,4.3-21.4,8.6-32.1,12.8
			C52.2,281.9,51,282.4,50.3,282L50.3,282z M116.6,222.7c4.8,6.1,8.6,11.1,12.6,16c0.1,0.1,1.1-0.5,2-1.1c-4.7-7.9-9.4-15.6-14-23.3
			c0.4-0.3,0.8-0.6,1.2-0.9c19.8,20.5,45.5,35.7,57.1,63.8c-1.5-2.1-3-4.1-4.8-6.7v3.4c-1-0.9-1.8-1.5-3.3-2.7
			c0.9,3.1,1.5,5.5,2.2,7.8c-0.3,0.2-0.6,0.4-0.9,0.6c-2.8-2.5-5.6-4.9-9.3-8.2c1.7,5.1,3,8.9,4.3,12.7c-0.4,0.2-0.8,0.5-1.2,0.7
			c-2.2-2-4.4-4-7.5-7c1.1,3.2,1.8,5.3,3,8.8c-4.6-2.5-8.1-4.4-12.1-6.6c1,2.1,1.8,3.8,3.2,6.8c-4.3-2.6-7.3-4.5-10.8-6.6
			c0.4,1.6,0.8,2.7,1.1,4.1c-7.6,2.1-14.1,0.2-20.3-3.6c-0.4,0.3-0.7,0.6-1.1,1c4.2,5,8.4,10.1,12.6,15.1c0.1,0-0.3,0.2-0.6,0.1
			c-10.7-6-19.3-14.4-21.1-26.6c-2.1-14.3-1.8-28.9-2.5-43.3c0-0.6,0.2-1.2,0.4-1.9c0.6,0.5,1,0.9,1.8,1.6
			c-0.8-5.1-1.6-9.7-2.3-14.3c8.6,10.8,9.7,24.3,14.8,36.3C119.7,240.4,118.2,232.2,116.6,222.7L116.6,222.7z M120,303.2
			c-8.8-7.9-15.3-15.6-16.7-25.8C108.5,285.3,113.9,293.7,120,303.2z M69.3,192.6c-2.6,6.1-5.6,12.9-8.6,19.8
			C57.6,203.1,60.5,196.8,69.3,192.6z M59.2,253.1c2-14.3,3.9-28.7,6.4-42.9c0.7-4.2,3.2-8.1,5.3-12c5.7-11,20.9-10,27-1.3
			c3.7,5.3,6.6,10.9,6.7,17.5c0.1,7.3,0,14.7-0.1,22c0,1.2-0.5,2.4-0.7,3.6c-0.4,0.3-0.9,0.6-1.4,0.8c-1.1-1.8-2.1-3.6-3-5.1
			c-5.1,2.2-8,7-12.6,20.4c6.4-2.9,11.6-5.4,16.9-7.8c0.1,1.6-3.1,4.6-9.7,8.8c3.3-1.4,6.7-2.9,10-4.3c0.3,0.2,0.5,0.4,0.8,0.7
			c-0.8,1-1.3,2.4-2.4,3c-14.5,9-30.9,12.7-47.3,16.5c-1.2,0.3-3.6-1.5-4.4-2.9c-1.9-3.2-0.1-6.5,2.7-7.1
			C59.7,261.7,58.7,257.3,59.2,253.1L59.2,253.1z M49.1,261.2c-2.5,1.5-4,4.8-5.9,7.2c-5.2-6.3-5.2-10.6,0.5-15.7
			c3.4-3.1,7.5-5.5,11.9-8.7C55.5,251.3,55.6,257.3,49.1,261.2L49.1,261.2z M54.2,237.1c-6.5,6.2-14.9,10.5-16.4,20.5
			C34,248.2,42,235.4,54.2,237.1L54.2,237.1z M24.5,261c-1.3-4.9,0-8.7,3.4-11.4c4.4,7.6,8.8,14.9,13.3,22.7
			C34.7,271.8,25.7,265.4,24.5,261L24.5,261z M40.6,281.2c-0.9,2.4-3.5,4.1-6,6.8c-2.3-6-4.1-10.7-5.9-15.4c0.4-0.2,0.7-0.4,1-0.5
			c2.2,1.3,4.6,2.5,6.5,4.1C38,277.6,41,280.2,40.6,281.2L40.6,281.2z M28,279.9c1.4,1.3,2.8,2.6,4.9,4.5c-1.9,2.4-3.1,3.8-4.3,5.2
			c-1.4-1.7-3.5-3.3-3.9-5.2C24.5,283.1,26.8,281.4,28,279.9z M17.9,286.9c0.4,3,6.4,3.3,3.5,7.6c-0.7,1-3.4,0.7-5.2,1
			c-0.1-2.8-0.3-5.6-0.4-8.3C16.5,287,17.2,287,17.9,286.9L17.9,286.9z M23,297.4c3.9-0.9,7.9-1.7,11.8-2.8c3.9-1.1,7.6-2.6,12-3.2
			c-2.2,1.6-4.2,3.5-6.5,4.8c-5.7,3.2-11.9,5.5-17.2,9.2c-4.4,3.1-7.6,7.8-11.3,11.8c-1,1.1-1.7,2.5-2.8,4.2
			C5.4,310.9,12.1,299.9,23,297.4z M6.3,337.7C4.2,332.8,6,328,10.1,324c3.5-3.5,5.8-8.4,9.6-11.5C26.2,307,33.5,302.4,41,298
			c-5.1,5.8-11.3,10.9-14.9,17.5c-3.5,6.5-3,15.1-6.6,21.5c-4.6,8,0.8,15.1,0,22.5c-0.6,0.2-1.2,0.4-1.8,0.6
			C13.9,352.6,9.5,345.4,6.3,337.7z M29.9,411.9c0.5-10.4,1-20.7,1.5-31.1c0.1,0,0.3,0,0.5,0c0.4,7.6,0.7,15.1,1.1,22.7
			c0.5,9.4,1,18.9,1.5,28.3c0.2,2.9-0.7,4.6-3.4,6.2c-5.2,3-10,6.6-15.5,9.6c3-25.3,6.1-50.3,11.5-75c0.5,0,1,0.1,1.6,0.1v39.1
			C29.1,411.9,29.5,411.9,29.9,411.9L29.9,411.9z M12.1,358.7c4.8,3.5,7.5,7,7.7,11.8c0.1,4.2-0.2,8.5-1,12.6c-1.1,6-6.6,5-11.5,6.8
			C8.9,378.9,10.4,369.2,12.1,358.7L12.1,358.7z M8.5,400.1c-2.7-3.1-1.5-5.7,2.5-6.6c2.6-0.6,5.4-1,9.3-1.7
			c-0.8,5.6-1.5,10.1-2.4,16.2C13.9,404.7,10.8,402.8,8.5,400.1L8.5,400.1z M25.2,474.1c-5.3-2.4-9.3-5.9-10.2-12.1
			c-0.4-3.2,0.6-5.4,3.1-7.6c6.5-6.1,12.6-12.5,18.6-19c1.1-1.2,1.1-3.7,1.3-5.6c0.7-9.6,1.2-19.1,1.8-28.7c0.6,0,1.2,0,1.8,0
			c4.5,27.9,4,56.1,6.5,83.7C40,480.9,32.6,477.5,25.2,474.1L25.2,474.1z M45.2,496.7c2.5,0.7,4.5,1.2,6.6,1.7c4,1,6,3.5,5.8,7.8
			c-0.2,5,0,10,0.4,15c0.4-5,0.8-9.9,1.2-15.8c1.9,1.5,3,2.4,5.4,4.3c0.8-25.5,1.6-49.7,2.4-74c0.5,0,0.9-0.1,1.4-0.1
			c0.5,3.5,1.2,7.1,1.4,10.6c1.2,20.8,2.3,41.7,3.5,62.5c0.3,6.2-0.6,11.8-6.1,14.3c2.1,3.4,4.3,6.4,5.8,9.8c0.4,1.1-1,4-2.2,4.6
			c-10.5,5.3-21.3,10.2-32.7,15.7C40.5,534.6,42.8,515.9,45.2,496.7L45.2,496.7z M34.5,575.2c0.5-3.9,1.1-7.7,1.5-11.6
			c0.6-6,1.3-6.8,6.9-4.8c6.4,2.2,12.6,5.1,18.8,7.9c1.7,0.8,2.9,2.4,5.1,4.2c-11.4,6.5-22.1,12.7-32.9,18.8
			c-0.4-0.4-0.8-0.8-1.2-1.1C33.3,584.1,33.9,579.6,34.5,575.2L34.5,575.2z M36.8,601.7c-4.7-4.7-4.6-6.2,1.3-9.5
			c5.7-3.2,12-5.5,17.8-8.7c4.3-2.3,8.3-5.4,13.5-8.8v59c-2.4-2.5-4.2-4.6-6.2-6.6C54.3,618.7,45.4,610.3,36.8,601.7L36.8,601.7z
			 M57.9,657.2v-27.7C71,639.7,71,642.2,57.9,657.2z M100.8,705.4c-6.7-7.5-14.9-11.5-22.3-16.7c-5.7-4-9.4-10.9-13.7-16.8
			c-0.6-0.8,0.1-2.8,0.6-4.1c2.1-5.1,4.4-10.1,6.4-15.3c1.3-3.3,3-4,5.8-1.8c8.5,6.8,17,13.6,25.5,20.5c0.8,0.6,1.6,1.9,1.6,2.7
			C103.5,684.5,102.1,695,100.8,705.4L100.8,705.4z M107.7,438.4c0.6-1.1,1.3-2.1,2.9-3.1c-0.1,2.1-0.2,4.2-0.4,6.3
			c-0.9,8.3,2.3,12.9,10.6,12.8c5.7,0,11.4-2,17-3.6c4.2-1.1,8.2-2.9,12.3-4.3c0.2,0.5,0.4,1,0.6,1.4c-9.1,6.6-18.1,13.7-30.3,13.3
			C107.7,460.9,101.5,449.4,107.7,438.4L107.7,438.4z M107,534.2c5.3-7.7,11.3-15,17.7-21.9c6.8-7.2,14.4-13.7,21.6-20.5
			c-6.7,5.4-13.5,10.7-20.2,16.1c-5.7,4.6-9.3,3.8-11.5-3.1c-2.3-7.4-4.5-14.9-1.9-23.2c0.6,1,1.5,2,1.8,3.1
			c1.5,5.1,2.6,10.4,4.2,15.5c1.2,3.6,2,3.8,6.6,3c-3.2-5.5-6.4-10.9-9.9-16.8c5.1,1.8,9.1,3.2,13.1,4.6c0.3-0.5,0.5-1,0.8-1.6
			c-10.7-5.2-17.3-13.1-17.9-24.9c0.4-0.3,0.8-0.7,1.2-1c1.2,1.1,2.7,2,3.7,3.2c4.2,4.9,6.1,5.5,11.8,2.3
			c8.7-4.9,17.1-10.1,25.7-15.1c3.2-1.9,6.4-3.6,9.6-5.4c0.4,0.6,0.8,1.1,1.2,1.7c-3.8,3.1-7.5,6.6-11.6,9.3c-4.3,2.9-9,5-13.2,8.2
			c10.8-4.4,21.5-8.8,33.5-13.7c-1.3,2.4-1.9,3.8-2.7,4.9c-6.5,8.9-13.1,17.8-19.7,26.8c-1.4,2-2.7,4-4.1,6
			c11.1-10.8,22.2-21.6,33.3-32.4c1.7-1.6,3.4-3.2,5.1-4.8c0.4,0.4,0.9,0.8,1.4,1.1c-5.4,7.5-10.9,15-16.3,22.4
			c0.3,0.4,0.7,0.7,1,1.1c5.9-5.4,12.2-10.5,17.6-16.4c5.4-5.8,10-12.3,15.9-18c-0.2,1.1-0.3,2.4-0.7,3.4c-8.6,23-23,40.9-45.9,50.7
			c-11.7,5-21.5,12.1-30.3,20.9c-4.6,4.6-9,9.4-13.7,14c-3.2,3.1-5.8,6.2-3.3,11.6C105.7,541.9,104.1,538.5,107,534.2L107,534.2z
			 M86,819.7c4.2-3.3,6.9-7.4,7.7-12.6c1-7.4,5.1-12.7,10.6-17.5c15.5-13.3,31-26.4,48.8-36.7c6.6-3.8,11.4-9.3,15.3-16.1
			c9.3-16.4,19.3-32.5,28.8-48.9c2.2-3.7,3.5-7.9,4.2-12.4c-1.4,2.1-2.7,4.4-4.4,6.3c-6.7,7.8-13.2,15.8-20.4,23
			c-10.8,10.7-19.8,22.5-26.6,36c-0.4,0.9-1,1.7-1.4,2.5c-0.4-0.2-0.9-0.4-1.3-0.6c3.2-6.9,5.8-14.3,9.9-20.7
			c4.4-6.8,9.9-13,15.5-18.8c10.5-10.6,18.7-22.7,24.3-36.3c1.9-4.6,2.1-9.9,3.1-14.8c-0.5-0.1-1-0.2-1.6-0.4
			c-3.4,7.7-6.8,15.3-10.2,23c-0.4-0.2-0.8-0.3-1.2-0.5c0.3-0.9,0.5-1.8,0.9-2.6c4-8.4,6.2-17.1,6.5-26.4c0.4-12.2,4.3-23.3,9.7-34
			c0.5-1,0.9-2,1.4-3c-0.4-0.2-0.8-0.4-1.2-0.6c-3.2,6.3-7,12.4-9.6,18.9c-2.6,6.6-4.1,13.6-6.5,20.4c-1.1-9.7-0.9-19.4,2.1-28.7
			c3.3-10.4,6.8-20.9,11.9-30.5c16.8-31.7,27.9-65.3,34.5-100.4c5.2-27.9,10.6-55.7,15.9-83.6c0.2-1,0.6-2,1.3-3
			c1.7,23.6-1.8,46.6-9.2,69.1c0.6,0.1,1.3,0.3,1.9,0.4l12.9-53c0.2,0,0.4-0.1,0.6-0.1c0.8,5.3,1.6,10.6,2.5,15.9
			c0.3,0,0.7-0.1,1-0.1c-0.7-13.1-1.4-26.2-2.1-39.3c0.7-0.1,1.4-0.2,2.1-0.2c2.6,12.6,5.2,25.3,7.8,37.9c0.2,0,0.4-0.1,0.6-0.1
			c-2.2-13.4-4.4-26.8-6.5-40.1c0.4-0.1,0.7-0.3,1.1-0.4c0.6,1.3,1.4,2.6,1.7,4c3.9,18.2,8.3,36.2,11.5,54.5
			c3,16.9,0.6,33.8-2.6,50.5c-6.6,34.3-12.5,68.7-19.8,102.8c-5.1,23.9-11.7,47.5-18.6,70.9c-5.6,18.9-18.5,32.9-33,45.8
			c-25.1,22.3-51.7,42.3-80.1,60c-5,3.1-9.7,6.7-14.4,10.1c-7.3,5.3-13.2,11.7-15.1,20.9C94,818.7,86.8,822,80,825.7
			C82,823.7,83.8,821.4,86,819.7L86,819.7z M262.2,815.5c4.6,16.7,9.1,32.9,13.3,48.4C266.8,859.5,258,830.5,262.2,815.5z M146,865
			c0.7-1.6,1.1-3.3,2.1-4.8c3-4.5,6.3-8.7,9.1-13.3c7.4-11.7,15.6-23,21.7-35.3c14.6-29.3,28-59.2,42.1-88.8
			c3.8-8,8.6-15.7,13.9-23.1c-0.9,4.7-1.8,9.4-2.7,14c-7,35.9-20.2,69.8-33.6,103.5c-3.7,9.3-9.4,17.8-14.3,26.7
			c-5.9,10.5-15.9,15.9-26.8,20.2c11-15.1,23.5-29,31.9-45.8C176.8,835.6,165.4,853.7,146,865L146,865z M45.8,843.5
			c-0.4,0.2-0.9,0.4-1.3,0.6c-0.3-0.3-0.7-0.6-1-0.9c1.4-1.4,2.6-3.3,4.3-4.2c7.1-3.8,14-2.3,21.8,4.3c17.5-5.8,32.2-15.9,45.9-28
			c-13,13-24.5,28.3-45.9,29.7c4.2,4.4,8.4,6.1,13.3,6.4c17,1,31.1-6.4,44-16.2c12.1-9,20.4-21.4,28.4-34c1.5-2.3,2.9-4.7,5.3-6.6
			c-1.6,3.4-3.2,6.7-4.7,10.1c-11.2,24-28.5,41.1-54.4,48.4c-5.3,1.5-10.9,2.2-16.3,2.5c-7.2,0.4-13.3-2.6-17.8-8.5
			C60.3,837.8,55.8,837.1,45.8,843.5L45.8,843.5z M98.5,893.3c-0.6,0.7-0.7,2-0.7,3c0,1.4-0.4,2.5-1.1,3.2c-0.6,0.7-1.6,0.9-3.6,1.2
			c-2.2,0.4-3.4,0.6-4.2,0c-0.7-0.5-0.9-1.2-1.2-2.4c-0.8-2.8-0.2-4.5-0.6-4.7c-0.8-0.3-2.1,5.4-5.9,6.7c-1.8,0.6-3.6,0-5.1-0.5
			c-3.9-1.4-5.8-4.3-9.6-10.2c-1.2-1.9-2-3.3-1.7-5c0.3-1.9,1.7-3,2.3-3.6c7.5-6.8,15-13.4,22.5-20.1c2.3-2,3.7-1,5.1,1.1
			c2,3,4,5.9,6.1,8.8C106.2,878.5,105.5,885.9,98.5,893.3L98.5,893.3z M114.6,869.4c-3.7-2.3-7.1-5.1-10.6-7.7c0-0.3-0.1-0.6-0.1-1
			c2.4,0.6,5.1,0.6,7,1.9c6.7,4.6,13.7,8.1,22.4,8c-1.3,4.1-3.8,5.7-7.2,4.5C122.2,873.6,118.3,871.6,114.6,869.4L114.6,869.4z
			 M129.7,892.9c-0.3,0.3-0.8,0.5-2,0.2c1.3-2.1,2.2-4.5,3.9-6.3c8.8-9.6,18.7-17.7,31.5-21.4c12.4-3.6,22.9-10.7,31.2-20.2
			c5.1-5.8,8.6-13.6,10.9-21c5.6-18.5,9.9-37.5,15-56.2c2.5-9.2,5.5-18.3,8.3-27.4c0.7,0.1,1.4,0.2,2.2,0.3
			c-1.8,13.7-2.4,27.6-5.6,41c-4.8,19.9-10.8,39.6-17.4,59c-5.5,16.2-16.8,26.3-34.5,29.4C156.7,873.3,140.5,878.3,129.7,892.9
			L129.7,892.9z M176,903.8c-0.4,1.3-1,2.4-1.8,3.3c-3.3,3.6-8.6,3.3-9,3.3c-2.2-0.1-2.4-0.8-4.2-0.6c-1.8,0.3-2.6,1.1-5,1.4
			c-0.9,0.1-0.7,0-2.2,0c-3.6,0.1-4.2,0.8-6.2,0.6c-1.1-0.1-3-0.3-3.8-1.6c-0.7-1.1,0.5-2.4,0.6-4.4c0.2-5.7,5.2-8,8.3-11.5
			c1.7-1.8,5.4-3.5,7.6-2.9c5.2,1.4,10.2,3.9,14.9,6.6C176.2,898.7,176.5,902.1,176,903.8L176,903.8z M198.3,899
			c5.1,1.3,10.3,2.6,16.6,4.2c-2.2,0.7-3.6,1.8-5,1.6c-10-1-19.9-1.2-28.6-8c-12-9.4-25.4-11.4-39.3-3.5c-0.3,0.2-1,0.2-1.2,0.8
			c-0.6,1.3,2.7,2.8,3.2,5.6c0.4,2.1-0.8,5.1-3.3,5.9c-2.3,0.7-4.9-0.8-5.8-2.8c-0.6-1.3-0.5-2.6-0.4-3.2c0.2-1.5,0.6-3.9,1.8-6.6
			c3.2-7,10.2-11.4,16.9-13.2c2.9-0.8,6.2-1,9.8-0.6c1.7,0.2,3.5,0,6.5,0c-4.2-0.7-7.2-1.2-10.2-1.7c-0.1-0.5-0.2-0.9-0.3-1.3
			c2.1-0.6,4.2-1.3,6.4-1.6c6.6-1.1,13.3-1.5,19.7-3.1c4.4-1.1,8.5-3.8,12.8-5.9c-3.1,5.4-8.2,7.5-13.4,7.9
			c4.7,5,9.3,10.3,14.3,15.2c2,2,4.8,3.4,7.7,4.5c-0.9-6.8-4.2-12.9-0.6-20.5c1.3,4.5,2.6,8,3.4,11.6c1.5,6.6,5.7,9.8,12.2,10.9
			c4.9,0.8,9.7,2.1,14.3,4L198.3,899L198.3,899z M230.3,894.2c-1.1,0.2-2.5-0.5-3.4-1.2c-7.3-5.6-12.6-12.9-12.2-22.2
			c0.5-12.3,1.3-24.8,3.6-36.9c10.9-56.2,22.9-112.1,30.4-168.9c0-0.3,0.3-0.5,1.1-2c-0.6,11.1-1,21-1.9,30.9
			c-2.6,31.2-5.2,62.3-11.8,93.1c-4.4,20.4-6.6,41.4-2.2,62.2c1.7,8.3,5.4,16.5,9.8,23.7c3,4.9,8.9,8,14.5,12.7
			c-2,0.3-3.8,1-5.3,0.7c-2.5-0.5-5.1-1.4-7.3-2.6c-4.2-2.2-8.8-4.2-12.2-7.5c-2.9-2.8-5.4-6.9-6.2-10.8c-1.7-8.4-2.2-17-3.2-25.7
			c-2.3,15.5-3.2,30.7,6.7,44.3c0.9,1.2,3.6,1.3,5.4,1.6c7.7,1.1,15.4,2,23.8,3.1C249.3,890.6,239.8,892.5,230.3,894.2L230.3,894.2z
			 M263.3,901.4c-0.6,0.4-1.1,0.8-1.7,1.2c-3.5-1.5-7.1-3-10.8-4.5c2.7-4.2,9.3-6.2,11.7-3.6C263.8,895.9,263.1,899,263.3,901.4
			L263.3,901.4z M275.5,900.8c-3.1,1.2-6.4,1.7-10.5,2.7c1.3-8.3,6.5-6.9,11.5-7.4C276.2,897.9,276.3,900.5,275.5,900.8L275.5,900.8
			z M332.3,880.4c-8.8,10.2-18.3,5-27.5,2.1c-0.1,0.4-0.2,0.8-0.4,1.2c1.7,1.1,3.4,2.2,5.1,3.2c-0.4,0.6-0.8,1.2-1.2,1.7h-10.9
			c0.7-0.9,1.3-1.7,1.9-2.5c-0.1-0.3-0.3-0.5-0.4-0.8c-5.7,2.2-11.4,4.3-17,6.5c-0.3-0.5-0.6-1.1-1-1.6c1.5-0.9,3-1.8,4.5-2.8
			c-0.3-0.4-0.6-0.8-0.9-1.2c-2.2,1-4.4,2-6.5,3.2c-8.1,4.4-10.8,3.8-16.9-5.2c3.2,1,5.3,1.7,6.1,2c-6.3-8.9-13.2-18.6-20.3-28.7
			c3.5,6.9,6.8,13.6,10.7,21.3c-6.8-5.4-10.6-11.8-12.1-19c-1.9-9.2-3.2-18.7-3.7-28c-1.7-33.5,0.5-66.8,5.8-99.9
			c0.2-1.1,0.5-2.1,1.1-4.6c0,15.2-0.1,29,0,42.8c0.1,21.3-0.4,42.7,0.6,64c0.8,16.2,9,29.8,19.3,42c4.5,5.3,10.1,8.6,18.6,6.2
			c-7.9-5.2-17.3-6.9-21.8-16.6c2.4,0.6,4.2,0.7,5.8,1.5c6.3,3,12.4,6.6,18.8,9.4c8.7,3.8,18.1,2.5,27.3,3
			C322.3,879.6,327,880,332.3,880.4L332.3,880.4z M272.7,821c5.5,15.7,13.6,29.8,24.4,42.5c3.8,4.5,8.3,6.5,14.1,6.3
			c3.2-0.1,6.5,0.3,9.8,1c-6.4,4.5-12.6,6.5-20.3,2.2c-13.8-7.7-23.4-18.2-28.2-33.4c-4.1-12.7-7.3-25.4-6.3-39
			C268.3,807.6,270.4,814.3,272.7,821L272.7,821z M291.6,763.7c-3,4-6.7,7.5-10.1,11.3c-3.8,4.2-7.5,8.3-11.2,12.5
			c-0.5-0.3-1-0.5-1.5-0.8V666.1c0.5,0,1,0,1.4,0c0,2.2-0.1,4.4,0,6.5c0.8,20.5,1.7,41,2.4,61.5c0.2,6.2,3.4,9.9,8.9,12.1
			c2.2,0.9,4.4,2,6.6,3.2C295,753,296.2,757.4,291.6,763.7L291.6,763.7z M297.5,748.2c-5-3.4-6.6-11.8-3.1-20
			C295.4,734.7,296.4,741.2,297.5,748.2z M292.9,714c-4.6,6.4-10,12.3-15.3,18.6v-40.3c3,0.5,4.9,0.8,6.8,1.1
			C295.6,695.6,299.5,704.7,292.9,714L292.9,714z M294.1,683.5c-4.3-4.8-9.8-11-15.2-17.4c-0.7-0.8-0.8-2.4-0.8-3.6
			c0.8-23.4,1.8-46.8,2.6-70.3c0.6-17.2,0.9-34.5,1.3-51.7c0.6,0,1.2-0.1,1.9-0.2C287.2,588.7,290.7,637,294.1,683.5L294.1,683.5z
			 M293.5,606.9c-0.2-6.2-3.2-12.7,2.9-19C298,595.3,297.2,601.3,293.5,606.9z M321.1,540.2c-4.5,3.4-6,7.7-4,12.9
			c2.3,6,0.5,10.7-4,14.4c-6.1,5-12.6,9.6-20.1,15.3c0.8-18.8,1.6-36.4,2.4-55.4c6.3,2.8,11.8,4.8,16.8,7.7c2,1.2,2.7,4.6,3.5,5.9
			c3.1-2.4,7-5.4,10.9-8.5c0.4,0.5,0.9,1,1.3,1.5C325.6,536.1,323.6,538.4,321.1,540.2L321.1,540.2z M313.6,512.8
			c-2.9-2-3.2-4.1-0.6-6.8c3.7-3.8,7.2-7.8,11.6-12.7c1.6,10.8,3,20.3,4.5,30.6C323.3,519.7,318.4,516.2,313.6,512.8L313.6,512.8z
			 M323.7,462.8c0.4,7,0.8,14,1.5,21c0.3,3.1-0.6,4.9-3.3,6.2c-4,2.1-7.8,4.5-11.8,6.8c-2.5-7.8-1.4-11.8,5-14.7
			c-3.7-2.4-6.7-4.7-10-6.4c-8.6-4.5-8-4.4-7.5-14.2c1.2-20,1.7-40.1,2.5-60.1c0.4-9.8,0.8-19.5,1.2-29.3c0.1-1.7,0.4-3.4,0.6-5.1
			c0.5,0,1,0,1.5,0.1c0.8,31.3,1.6,62.6,2.3,93.1c2.2-35,4.9-71.1,9.2-107.1c0.5,0,1,0,1.5,0c0.3,2.6,0.8,5.2,1,7.9
			C319.7,394.8,321.7,428.8,323.7,462.8L323.7,462.8z M365.8,298.6c-1,6.4-2.1,15.4-8.6,23.9c-2.5,3.3-5.6,6.2-9.3,8.8
			c-5.5,3.8-11.5,3.3-16.1-1.3c0,0-9.9-7.3-12.7-15.3c-0.3-0.9-1.1-3.2-0.2-4c0.5-0.4,1.2-0.2,1.5-0.2c2.1,0.5,2.8,2.6,4.7,5
			c2.5,3,2.6,2,6.1,4.8c1.8,1.4,3.3,3.2,5.2,4.4c0.1,0,0.4,0.2,0.9,0.4c1.2,0.4,2.4,0.8,3.1,0.3c0.8-0.6,0.6-2.3,0.5-3.1
			c0-0.5-0.1-0.8-0.2-0.9c-0.6-2.2-1.8-4.9-2.5-6.7c-1.1-2.9-0.8-3.3-1.9-5.1c-0.6-1-0.9-1.3-2-2.7c-0.5-0.7-1.1-1.6-3.1-4.9
			c-3.8-6.4-4.1-7.4-3.6-8.1c0.4-0.5,1.1-0.6,1.5-0.7c3.8-0.5,7.7,5.8,10.6,10.4c0.2,0.4,0.6,1,1.3,2c2.1,3.4,2.5,3.7,3.6,5.5
			c2.4,3.8,3.2,6,3.8,5.9c0.3-0.1,0.4-0.6,0.5-1.1c0.4-1.9-0.3-3.5-0.6-4.3c-0.2-0.4-0.6-2.2-1.5-5.7c-0.9-3.5-0.6-4-1.4-7.8
			c-0.3-1.5-0.9-3.6-1.7-6.3c0,0-0.4-2-0.5-4.6c0-0.3,0-0.6,0-1.1c0.1-1.4,0.2-3,1.2-3.5c1-0.6,2.4,0.2,2.7,0.3
			c0.9,0.5,1.3,1.2,1.6,1.7c1.3,2.2,1.5,4.5,1.6,5.4c0.3,2.4,0.7,4,1.6,7.1c1,3.7,1.5,3.7,2.9,8.4c1.2,3.8,1.3,5.4,1.9,5.4
			c0.2,0,0.8-0.3,2.4-8c0.9-4.2,1.3-6.3,1.4-7.3c0-2.9-0.5-3.5-1.1-9.8c-0.3-2.9-0.3-4.2,0.6-5.4c0.9-1.2,2.8-2.2,4.1-1.6
			c1.3,0.6,1.7,2.6,1.9,7.1C366.4,291.7,366.5,294.7,365.8,298.6L365.8,298.6z M378,291c-2.3,2.5-5.5,6.2-9.2,11.2
			c0.6-5.5,2.4-9.4,3.8-11.9c2.7-4.8,7.7-10.5,9.7-9.5c0.5,0.2,0.6,0.8,0.7,1.1C383.7,284.9,380.7,288,378,291L378,291z
			 M405.2,237.4c-10.6,2.8-20.3,7-28.8,14c-0.4,0.4-1.1,0.3-1.7,0.5c-8.1,6.6-6.6,14.1-2.1,18.3c-2.7,4.7-5.7,1.6-7.8-0.2
			c-6.9-5.9-15.3-7.4-23.3-6.2c-13.6,2.1-27.7,1.4-39.9,7.4c1.8-2.6,3.7-5.3,6.4-9.3c6.5-1.4,14-2.5,22.5-2.9
			c11.8-0.6,22.2,0.2,30.6,1.5c1.7-1.6,1.9-2.3,1.7-2.7c0.9-0.4,1.8-0.9,2.7-1.3c6.2-15.9,19.3-22,34.9-24.5l-14.5,6.4
			c0.1,0.2,0.1,0.5,0.2,0.8c0.8,0.1,1.5,0.1,2.3,0.2c8.3-5,17.2-7.9,28.5-7.9C412.1,233.9,408.9,236.4,405.2,237.4L405.2,237.4z"/>
	</g>
</g>
</svg>
