<?xml version="1.0" encoding="utf-8"?>
<!-- Generator: Adobe Illustrator 28.3.0, SVG Export Plug-In . SVG Version: 6.00 Build 0)  -->
<svg version="1.1" id="Layer_1" xmlns="http://www.w3.org/2000/svg" xmlns:xlink="http://www.w3.org/1999/xlink" x="0px" y="0px"
	 viewBox="0 0 437.8 906.4" style="enable-background:new 0 0 437.8 906.4;" xml:space="preserve">
<style type="text/css">
	.st0{fill:#FFFFFF;}
</style>
<g>
	<path class="st0" d="M417.3,392.2c-7.4-2.2-13.5-7.2-17.1-13.9c-7.8-14.3-15.6-28.7-22-43.6c-6.1-14.3-13-27.7-24.7-38.3
		c-5.1-4.6-7.8-10.6-9.8-17.1c-3.8-12.1-7.7-24.1-12.3-35.9c-3.6-9.3-6.1-18.5-5.4-28.6c1-13.5-2.1-26.5-7.9-38.8
		c-4.5-9.4-11.3-15.9-21.3-19.1c-0.9-0.3-2-0.6-2.7-1.2c-6.4-6.1-14.4-6.9-22.7-7.1c-7.6-0.2-15.2-1-22.7-2.1
		c-6.1-0.9-9.3-7.1-7.4-13.5c0.8,0.2,1.6,0.4,2.4,0.6c7.7,1.3,11.6-2.7,9.2-10.1c-2.2-6.9-0.8-13.2,1.8-19.4
		c0.7-1.7,2.6-3.5,4.3-3.9c5.3-1.4,7.7-4.4,6.9-9.8c-0.6-4.2,1-7.1,3.9-10.2c1.7-1.9,2.7-5.4,2.4-7.9c-0.7-5.6-0.7-10.8,2.6-15.8
		c3.4-5.2,4.8-11.1,2.9-17.2c-0.5-1.6-2.6-3.6-4.2-3.7c-7.5-0.7-12.7-4-15.7-11.2c-3.4-8.2-10-12.9-18.3-15.8
		c-15.5-5.4-31-9.5-47.1-2.7c-0.3,0.1-0.6,0.2-1,0.2c-10.1,1.5-17.8,6.8-24.1,14.7c-5.2,6.5-9.1,13.6-10,22
		c-0.5,4.3-2.8,6.2-6.9,6.3c-1.5,0-3,0.2-4.5,0.2c-4.8,0-6.8,2.8-7.5,7.1c-1.1,6.8,2.4,11.6,7.4,15.3c4,3,5.3,5.6,3.1,10.8
		c-4,9.3,0.1,15,10.2,16.1c1.1,0.1,2.3,0.3,4.4,0.7c-0.9,2.4-1.5,4.5-2.5,6.4c-2.1,3.9-1.2,7.7,2.9,8.8c2.5,0.7,5.5,0.1,8-0.7
		c2.1-0.6,3.8-2.2,6.1-3.6c3.6,10.5-6.8,12.4-9.8,19.8c-3.3-7.6,7-8.7,4.4-15.4c-3.3,2.6-6.9,4.6-9.3,7.5
		c-4.5,5.4-2.2,13.4,3.7,14.5c1.9,0.4,13.7-0.2,15.7-0.6c0.6-0.1,1.3,0,1.9,0c2,6.7,1.3,8.2-4.7,10.2c-12.3,4.1-24.8,7.8-37,12.1
		c-10.6,3.7-17.7,11.4-22.1,21.8c-5.4,12.7-8.1,25.8-6.6,39.5c1.1,10-1.1,19-5.2,28c-4.5,10-8.3,20.4-11.4,30.9
		c-4,13.4-3.5,13.4-17.8,13.4c-2.9,0-4.2-0.9-4.7-3.7c-0.4-2.5-1.1-5.2-2.2-7.5c-0.5-1-1.1-2.1-1.9-3.6c-2.2-3.9-3.2-5.9-5-8
		c-3.8-4.6-4.3-5-4.3-5c-0.1-0.8-0.4-2.5-0.8-4.6c-4-22.9-4.5-31.5-3.9-38.4c0.2-2.7,0.6-5.4,0.6-5.4c0.8-4,2.2-7.9,2.3-11.8
		c0.2-4.8-1.9-10-0.6-14.4c2-6.7,5-12.7,5.1-20.2c0.1-6.1,3.9-12.1,5.4-18.3c1.7-7.2,5.2-12.7,11.3-17c6.4-4.4,6.1-8.8-0.7-12.7
		c-3.5-2-7.5-3.2-10.3-4.4c5-5.4,11.1-10.3,15-16.7c8.8-14.4,8.6-30.2,3.3-45.8c-1.1-3.1-3.2-6.5-5.9-8.4c-5.4-3.7-7.5-8.5-7.8-14.7
		c-0.1-2.1-0.7-4.3-1.5-6.3c-2.9-7.5-8.7-10.7-16.3-8.4c-4,1.2-6.2-0.2-8.8-2.6c-2.4-2.2-5-4.2-7.7-6c0,0-2.6-1.8-6-3.6
		c-4.1-2.1-14.5-6.5-16.9-3.6c-1.7,2,1.2,6.5,2.9,10.1c1.4,3.1,20.9,23.2-3.3,38.5c-19.4,12.3-20.6,40-11.2,54.7
		c0.7,1,2.2,3.2,4.4,5.4c4.4,4.5,9.2,7.1,12.7,8.7c-0.2,0-0.3,0-0.5,0c-6.6,0.7-13.1,2.5-18,7.6c-2.5,2.6-2.9,5.2,0.2,7.7
		c2.6,2.1,5.1,4.2,7.8,6.2c7.2,5.3,8.7,13.4,10.8,21.4c2.1,8,0.6,12.4,4.7,17.8c1.3,1.7,2.1,2.1,3.7,4.4c2.7,3.9,3.9,7.5,5.1,12.7
		c1.6,6.6,2.6,12.5,4.4,23.8c1.8,11.5,3.3,23.1,5,34.6c0.5,3.2,1.1,6.3,1.6,9.5c-12.8,1.5-14,2.7-16.5,15c-0.3,1.6-1.5,3-1.8,4.6
		c-0.8,3.6-2.2,7.4-1.7,10.9c0.8,5.5,2.8,10.9,4.6,16.2c1.5,4.5,4.3,8.4,9.2,9c5.6,0.7,6.3,4.1,6.7,8.6
		c4.6,49.4,9.3,98.9,13.8,148.3c4.6,50.1,9,100.2,13.3,150.4c4.4,51.1,8.9,102.3,12.6,153.5c1.4,18.7,0.6,37.6,1.1,56.3
		c0.3,10.8,1,21.6,1.8,32.4c0.4,6.1,4.9,8.9,12.3,8.4c6.4-0.5,8.4-2.7,8.1-9.3c-0.2-4.5-0.4-9-0.9-13.5c-2.1-19.5-4.8-39-6.4-58.6
		c-3.8-45.8-6.7-91.7-10.7-137.6C88.5,602.9,83,547.2,77.9,491.5c-4.3-47.5-8.6-94.9-12.8-142.4c-0.5-5.2-0.8-10.4-1.3-15.6
		c9.6,8.9,20.5,13,32.2,13.2c0,20.7-0.2,40.9,0.1,61c0.1,6,0.5,12.7,3.2,17.9c3.6,6.9,4.6,13.2,2.7,20.5c-1.2,4.8-1.4,10.1,2.7,13.6
		c4.2,3.6,4.5,7.6,3.9,12.5c-0.8,6.3,1.4,11.5,7.5,13.8c4.4,1.7,5.1,4.9,5.8,8.8c0.7,4,1.8,8.1,3.7,11.6c2.1,3.8,2.4,6.9,0.6,10.8
		c-3.9,8.5-8.3,16.8-11.2,25.6c-1.9,5.6-3,12.3-1.7,17.9c1.6,7.1,5.3,14,9.3,20.2c4.2,6.6,5.8,12.5,2.8,20.3
		c-3.8,10.2-3.5,20.7,2.7,30.7c9.3,15,12.4,31.2,6.4,48.5c-4.6,13.5-8.8,27.2-6.9,41.6c2.9,21.6,6.5,43.2,16.2,63.2
		c1.9,3.9,1.7,7.7,0.9,12c-0.9,4.6,0.5,9.6,1,14.5c0.1,1.4,0.8,2.8,0.6,4.1c-0.5,5.4-1.4,10.8-1.8,16.2c-0.3,4.3-1.1,7.6-6,9
		c-11.1,3.2-15.8,11.7-17.1,22.3c-1.5,12.5,1.7,15.7,10.9,17.8c3.9,0.9,6.2,3.2,6.3,7.8c0,1.5,1.9,3.8,3.3,4.2
		c6.6,1.4,13.3,2.9,19.9,3.1c5.7,0.1,11.5-1.7,17.3-2.3c2.9-0.3,6.1-0.7,7,3.6c1.3,6.4,3.8,9,10.4,9c9.5,0.1,19-0.5,28.4-1.2
		c5.5-0.4,9.4-3.8,12.3-8.4c0.6-1,2.1-2.2,3.2-2.1c5.2,0.1,10.6-0.3,15.4,1.1c8.8,2.5,17.2,1,25.6-1c2.1-0.5,4.7-1.7,5.8-3.5
		c2.8-4.2,6.4-3.7,10.6-3.4c3.8,0.3,7.7-0.5,11.6-0.8c4.9-0.5,9.7-1.3,14.6-1.4c5-0.1,10.1,1,14.9,0.3c2.5-0.3,5.6-3,6.6-5.5
		c1.3-3.1,0.5-6.8-3-9.2c-6.1-4.2-12.2-8.4-17.9-13.1c-7.7-6.5-12.7-14.9-15.9-24.4c-0.5-1.5,0.3-3.6,0.8-5.4
		c0.9-3.2,2.8-6.3,2.9-9.5c0.1-4.6-0.8-9.3-1.5-13.9c-1-6.5,4.7-15.2,11.2-16.4c7.1-1.3,11.4-5.2,12.8-12.2
		c0.9-4.2,1.4-8.5,2.1-12.8c0.8-4.8,2.7-8.8,7.4-11.2c8-4,12.6-10.9,14.4-19.4c1.4-6.3,1.5-12.9,2.3-19.3c0.3-2.5,0.5-5.7,2-7.4
		c4.1-4.4,6.3-9.5,6.8-15.2c0.9-10.6,1.4-21.2,1.9-31.9c0.5-9.7,0.4-9.7,9.7-12.2c10.5-2.9,14.9-7.8,15.6-18.6
		c0.6-9.1,0.6-18.3,0.8-27.5c0.3-13.2,1.8-26.3,6.4-38.8c0.8-2.1,2.6-4.5,4.6-5.3c9.1-3.9,13.4-10.5,13.2-20.3
		c-0.1-3.3,0.2-6.7-0.1-10c-1.9-20.1-3.9-40.1-5.8-60.2c-0.7-7.9-1.2-15.8-1.7-23.9c12.1,1.7,22.9-5.2,23.1-15.2
		C438,411.6,433.9,397.1,417.3,392.2L417.3,392.2z"/>
	<path d="M417.3,392.2c-7.4-2.2-13.5-7.2-17.1-13.9c-7.8-14.3-15.6-28.7-22-43.6c-6.1-14.3-13-27.7-24.7-38.3
		c-5.1-4.6-7.8-10.6-9.8-17.1c-3.8-12.1-7.7-24.1-12.3-35.9c-3.6-9.3-6.1-18.5-5.4-28.6c1-13.5-2.1-26.5-7.9-38.8
		c-4.5-9.4-11.3-15.9-21.3-19.1c-0.9-0.3-2-0.6-2.7-1.2c-6.4-6.1-14.4-6.9-22.7-7.1c-7.6-0.2-15.2-1-22.7-2.1
		c-6.1-0.9-9.3-7.1-7.4-13.5c0.8,0.2,1.6,0.4,2.4,0.6c7.7,1.3,11.6-2.7,9.2-10.1c-2.2-6.9-0.8-13.2,1.8-19.4
		c0.7-1.7,2.6-3.5,4.3-3.9c5.3-1.4,7.7-4.4,6.9-9.8c-0.6-4.2,1-7.1,3.9-10.2c1.7-1.9,2.7-5.4,2.4-7.9c-0.7-5.6-0.7-10.8,2.6-15.8
		c3.4-5.2,4.8-11.1,2.9-17.2c-0.5-1.6-2.6-3.6-4.2-3.7c-7.5-0.7-12.7-4-15.7-11.2c-3.4-8.2-10-12.9-18.3-15.8
		c-15.5-5.4-31-9.5-47.1-2.7c-0.3,0.1-0.6,0.2-1,0.2c-10.1,1.5-17.8,6.8-24.1,14.7c-5.2,6.5-9.1,13.6-10,22
		c-0.5,4.3-2.8,6.2-6.9,6.3c-1.5,0-3,0.2-4.5,0.2c-4.8,0-6.8,2.8-7.5,7.1c-1.1,6.8,2.4,11.6,7.4,15.3c4,3,5.3,5.6,3.1,10.8
		c-4,9.3,0.1,15,10.2,16.1c1.1,0.1,2.3,0.3,4.4,0.7c-0.9,2.4-1.5,4.5-2.5,6.4c-2.1,3.9-1.2,7.7,2.9,8.8c2.5,0.7,5.5,0.1,8-0.7
		c2.1-0.6,3.8-2.2,6.1-3.6c3.6,10.5-6.8,12.4-9.8,19.8c-3.3-7.6,7-8.7,4.4-15.4c-3.3,2.6-6.9,4.6-9.3,7.5
		c-4.5,5.4-2.2,13.4,3.7,14.5c1.9,0.4,13.7-0.2,15.7-0.6c0.6-0.1,1.3,0,1.9,0c2,6.7,1.3,8.2-4.7,10.2c-12.3,4.1-24.8,7.8-37,12.1
		c-10.6,3.7-17.7,11.4-22.1,21.8c-5.4,12.7-8.1,25.8-6.6,39.5c1.1,10-1.1,19-5.2,28c-4.5,10-8.3,20.4-11.4,30.9
		c-4,13.4-3.5,13.4-17.8,13.4c-2.9,0-4.2-0.9-4.7-3.7c-0.4-2.5-1.1-5.2-2.2-7.5c-0.5-1-1.1-2.1-1.9-3.6c-2.2-3.9-3.2-5.9-5-8
		c-3.8-4.6-4.3-5-4.3-5c-0.1-0.8-0.4-2.5-0.8-4.6c-4-22.9-4.5-31.5-3.9-38.4c0.2-2.7,0.6-5.4,0.6-5.4c0.8-4,2.2-7.9,2.3-11.8
		c0.2-4.8-1.9-10-0.6-14.4c2-6.7,5-12.7,5.1-20.2c0.1-6.1,3.9-12.1,5.4-18.3c1.7-7.2,5.2-12.7,11.3-17c6.4-4.4,6.1-8.8-0.7-12.7
		c-3.5-2-7.5-3.2-10.3-4.4c5-5.4,11.1-10.3,15-16.7c8.8-14.4,8.6-30.2,3.3-45.8c-1.1-3.1-3.2-6.5-5.9-8.4c-5.4-3.7-7.5-8.5-7.8-14.7
		c-0.1-2.1-0.7-4.3-1.5-6.3c-2.9-7.5-8.7-10.7-16.3-8.4c-4,1.2-6.2-0.2-8.8-2.6c-2.4-2.2-5-4.2-7.7-6c0,0-2.6-1.8-6-3.6
		c-4.1-2.1-14.5-6.5-16.9-3.6c-1.7,2,1.2,6.5,2.9,10.1c1.4,3.1,20.9,23.2-3.3,38.5c-19.4,12.3-20.6,40-11.2,54.7
		c3.5,5.6,8.5,9.4,14.8,11.8c-2.3-4-5.1-7.6-7.7-11.4C1.4,88.2,4.7,66,20.3,55.5c16.6-11.2,19.1-32.7,5.5-47.4
		c-0.6-0.7-1-1.5-1.6-2.2c9.8,3.8,12.6,8,13.3,11.2c0.4,2.1-0.1,3.5,0.5,6.7c0.8,4.5,2.9,7.9,4.6,10.1c0.7-4.2,1.2-8,2-13
		c7.8,13.3,9.7,27.4,13.7,41.3c8.9-10.2,8.8-21.4,7.5-33.2c3.2,6.9,6.2,13.8,7.6,21c1.4,7.2,1,14.7,1.4,22c0.8-0.1,1.5-0.3,2.1-0.5
		c5.1-2.2,5.7-9.8,5.8-10.7c0.2,0.2,0.7,0.6,1,1.2c7.9,19.3-3.9,46.2-23.4,53.3c-1.4,0.5-2.9,0.5-4.4,0.6
		c-11.1,0.8-22.3,1.4-33.3,2.6c-6.6,0.7-13.1,2.5-18,7.6c-2.5,2.6-2.9,5.2,0.2,7.7c2.6,2.1,5.1,4.2,7.8,6.2
		c7.2,5.3,8.7,13.4,10.8,21.4c2.1,8,0.6,12.4,4.7,17.8c1.3,1.7,2.1,2.1,3.7,4.4c2.7,3.9,3.9,7.5,5.1,12.7c1.6,6.6,2.6,12.5,4.4,23.8
		c1.8,11.5,3.3,23.1,5,34.6c0.5,3.2,1.1,6.3,1.6,9.5c-12.8,1.5-14,2.7-16.5,15c-0.3,1.6-1.5,3-1.8,4.6c-0.8,3.6-2.2,7.4-1.7,10.9
		c0.8,5.5,2.8,10.9,4.6,16.2c1.5,4.5,4.3,8.4,9.2,9c5.6,0.7,6.3,4.1,6.7,8.6c4.6,49.4,9.3,98.9,13.8,148.3
		c4.6,50.1,9,100.2,13.3,150.4c4.4,51.1,8.9,102.3,12.6,153.5c1.4,18.7,0.6,37.6,1.1,56.3c0.3,10.8,1,21.6,1.8,32.4
		c0.4,6.1,4.9,8.9,12.3,8.4c6.4-0.5,8.4-2.7,8.1-9.3c-0.2-4.5-0.4-9-0.9-13.5c-2.1-19.5-4.8-39-6.4-58.6
		c-3.8-45.8-6.7-91.7-10.7-137.6C88.6,602.9,83.1,547.2,78,491.4C73.6,444,69.4,396.5,65.1,349c-0.5-5.2-0.8-10.4-1.3-15.6
		c9.6,8.9,20.5,13,32.2,13.2c0,20.7-0.2,40.9,0.1,61c0.1,6,0.5,12.7,3.2,17.9c3.6,6.9,4.6,13.2,2.7,20.5c-1.2,4.8-1.4,10.1,2.7,13.6
		c4.2,3.6,4.5,7.6,3.9,12.5c-0.8,6.3,1.4,11.5,7.5,13.8c4.4,1.7,5.1,4.9,5.8,8.8c0.7,4,1.8,8.1,3.7,11.6c2.1,3.8,2.4,6.9,0.6,10.8
		c-3.9,8.5-8.3,16.8-11.2,25.6c-1.9,5.6-3,12.3-1.7,17.9c1.6,7.1,5.3,14,9.3,20.2c4.2,6.6,5.8,12.5,2.8,20.3
		c-3.8,10.2-3.5,20.7,2.7,30.7c9.3,15,12.4,31.2,6.4,48.5c-4.6,13.5-8.8,27.2-6.9,41.6c2.9,21.6,6.5,43.2,16.2,63.2
		c1.9,3.9,1.7,7.7,0.9,12c-0.9,4.6,0.5,9.6,1,14.5c0.1,1.4,0.8,2.8,0.6,4.1c-0.5,5.4-1.4,10.8-1.8,16.2c-0.3,4.3-1.1,7.6-6,9
		c-11.1,3.2-15.8,11.7-17.1,22.3c-1.5,12.5,1.7,15.7,10.9,17.8c3.9,0.9,6.2,3.2,6.3,7.8c0,1.5,1.9,3.8,3.3,4.2
		c6.6,1.4,13.3,2.9,19.9,3.1c5.7,0.1,11.5-1.7,17.3-2.3c2.9-0.3,6.1-0.7,7,3.6c1.3,6.4,3.8,9,10.4,9c9.5,0.1,19-0.5,28.4-1.2
		c5.5-0.4,9.4-3.8,12.3-8.4c0.6-1,2.1-2.2,3.2-2.1c5.2,0.1,10.6-0.3,15.4,1.1c8.8,2.5,17.2,1,25.6-1c2.1-0.5,4.7-1.7,5.8-3.5
		c2.8-4.2,6.4-3.7,10.6-3.4c3.8,0.3,7.7-0.5,11.6-0.8c4.9-0.5,9.7-1.3,14.6-1.4c5-0.1,10.1,1,14.9,0.3c2.5-0.3,5.6-3,6.6-5.5
		c1.3-3.1,0.5-6.8-3-9.2c-6.1-4.2-12.2-8.4-17.9-13.1c-7.7-6.5-12.7-14.9-15.9-24.4c-0.5-1.5,0.3-3.6,0.8-5.4
		c0.9-3.2,2.8-6.3,2.9-9.5c0.1-4.6-0.8-9.3-1.5-13.9c-1-6.5,4.7-15.2,11.2-16.4c7.1-1.3,11.4-5.2,12.8-12.2
		c0.9-4.2,1.4-8.5,2.1-12.8c0.8-4.8,2.7-8.8,7.4-11.2c8-4,12.6-10.9,14.4-19.4c1.4-6.3,1.5-12.9,2.3-19.3c0.3-2.5,0.5-5.7,2-7.4
		c4.1-4.4,6.3-9.5,6.8-15.2c0.9-10.6,1.4-21.2,1.9-31.9c0.5-9.7,0.4-9.7,9.7-12.2c10.5-2.9,14.9-7.8,15.6-18.6
		c0.6-9.1,0.6-18.3,0.8-27.5c0.3-13.2,1.8-26.3,6.4-38.8c0.8-2.1,2.6-4.5,4.6-5.3c9.1-3.9,13.4-10.5,13.2-20.3
		c-0.1-3.3,0.2-6.7-0.1-10c-1.9-20.1-3.9-40.1-5.8-60.2c-0.7-7.9-1.2-15.8-1.7-23.9c12.1,1.7,22.9-5.2,23.1-15.2
		C438,411.6,433.9,397.1,417.3,392.2L417.3,392.2z M272.4,40.3c2.6,1.9,2.9,5.7,2.1,8.1c-0.7,2.3-2.6,4.5-3.5,4.1
		c-1.2-0.4,1.1-5.1-1.4-8.6c-1.9-2.7-5.1-2.7-5-3.6C264.8,39.4,269.4,38.1,272.4,40.3z M337.7,877.4c-11.2,0.8-14.7-9.7-21.9-14.8
		C324.3,865.8,328.1,875.9,337.7,877.4z M260.9,170.4c6.9,2.6,8.1,2.2,14.1-4.4c-1.3,0.6-2.6,1.3-3.9,1.9c-0.4-0.3-0.8-0.6-1.2-0.9
		c2.1-3.8,4-7.6,6.3-11.2c0.4-0.6,2.5-0.8,3.4-0.3c0.7,0.4,1.1,2.3,0.8,3.1c-0.9,1.9-2.4,3.4-3.6,5.1c0.7,0.2,1.9,0.8,2.1,0.6
		c1.3-1.5,2.2-3.4,3.5-4.8c0.9-0.9,2.4-1.3,4.7-2.5c-6.6,13.1-17.8,20.4-28.5,13C259.9,170.3,260.4,170.2,260.9,170.4L260.9,170.4z
		 M253.3,359.5c5.7-3.7,11.2-7.9,17.2-11c3.8-2,8.4-2.6,12.8-3.5c1.2-0.2,2.7,0.8,4,1.7c-19.4,4.5-32.3,18.8-47.2,29.9
		c-18.7,13.9-36.9,28.6-55.8,42.2c-7.5,5.4-16.4,8.6-24.7,12.9c-0.7,0.4-1.4,0.8-1.9,1.6c8.7,0.3,17-2,24.7-5.5
		c16.5-7.4,32.7-15.7,49-23.6c-7.9,3-15.8,6.1-23.7,9.1c-1.6,0.6-3.4,1-5.7,0.7c1-1.2,1.9-2.5,3.1-3.4
		c21.9-17.6,43.7-35.5,65.9-52.7c3.6-2.8,9.2-3.4,13.9-4.2c3.8-0.6,5.4,1.2,5.6,5c1.2,0.2,2.6,0.1,3.6,0.6c1,0.6,2.1,1.8,2.4,2.9
		c0.1,0.6-1.2,2-2.1,2.3c-17.5,5.8-30,19.6-45.5,28.6c-1.1,0.6-1.7,1.9-2.6,2.9c8.9-5.5,17.7-11.1,26.7-16.6c5-3,10.1-5.8,15.2-8.5
		c3.9-2.1,7.7-1.2,10.2,0.5c-5.9,4.2-12.5,8-17.9,13.1c-34.3,32.4-76.6,47.4-121.6,56.5c-4.2,0.9-8.6,1.5-12.7,2.6
		c-4.1,1.1-8.2,2.6-12.4,4c-3.5-3.4-3.2-6.6,1.1-9.1c0.1-0.1,0.3-0.2,0.4-0.2c18.4-3.3,29.4-18.6,44.3-27.5c2.9-1.7,5.5-4,7.7-6.8
		c-3.8,1.9-7.5,4-11.4,5.7c-12.6,5.6-25.2,11.2-37.9,16.7c-1.3,0.5-3,0.6-4.3,0.3c-1.2-0.3-3.3-1.5-3.2-2.1c0.1-1.3,1.1-3,2.3-3.7
		c11.9-6.6,23.9-13.1,35.9-19.6c1.3-0.7,2.5-1.6,3.9-2.5c-0.4-0.2-0.8-0.5-0.9-0.4c-11.1,5.8-22.1,11.6-33.1,17.4
		c-3.1,1.6-6.2,4.2-9-0.3c-2.8-4.4-1.9-10.1,2.2-12.2c2.8-1.5,5.8-2.6,8.8-3.4c5.6-1.5,11.3-2.6,17.4-3.2c-1.1,0.7-2.1,1.5-4.2,2.9
		c1.7-0.2,2.1-0.1,2.4-0.3c17.4-9.4,34.9-18.6,52.3-28.1c19.3-10.5,38.4-21.4,57.7-31.8c3.6-2,7.7-3.2,11.7-4.3
		c4.8-1.3,8.3,0.9,10.7,5.9c-13.7-0.3-23,8.4-33.2,14.9c-6.5,4.1-12.6,8.9-18.2,14.4C242.5,366.4,247.9,363,253.3,359.5L253.3,359.5
		z M131.3,386.4c0.3-15.3,0.7-30.5,1.1-45.8c0.1-3.6,0.4-7.3,0.7-10.9c0.5,0,1-0.1,1.5-0.2v64.8
		C130.7,392.7,131.2,389.2,131.3,386.4L131.3,386.4z M202.4,249.5L202.4,249.5C202.4,249.5,202.4,249.5,202.4,249.5
		C202.4,249.6,202.4,249.6,202.4,249.5v6.6c-1.8-6.1-3-11.6-4.9-16.7c-1.4-3.7-3.7-7.1-5.6-10.6c-0.6-0.7-1.4-1.8-2.5-3.2
		c-6.9-9.3-11.3-17.8-14.1-24.1c-1.9-4.3-4.4-10.6-4-10.8c0.6-0.3,6.8,10.3,9.1,15.2c0.3,0.7,1.3,3.1,3.2,6.1
		c0.4,0.6,0.8,1.2,1.2,1.9c5.1,1.1,9.3,5,9.3,9.3c0,8.6,5.6,15.2,7.6,22.9c0.3-2.1,1.9-3.9,3.9-5.4c2-1.6,3.9-3.3,6-4.7
		c0.3-0.2,0.7-0.4,1-0.7c-18.9-23.6-33.8-42.8-32.6-43.7c0.9-0.8,12.5,10.4,12.7,10.2c0.1-0.2-4.5-5.6-10-12.4
		c-1-1.2-1.8-2.2-1.5-2.6c0.7-1,7.3,4.3,15.7,7.3c12.8,4.6,30.1,4,40.6-1.1c1-0.5,3.9-1.9,4.3-1.3c0.6,0.8-4.6,4-8.7,10.5
		c-4.5,7-4.1,9.1-7.6,15.4c-1.2,2.1-3.9,3.4-5.4,5.4c-1.9,2.6-3.3,5.6-4.8,8.3c-2.9-3.1-5.6-6.1-8.3-9.1c2.1,4,6.1,7.2,5.8,13.1
		c0.5-0.4,1.3-1,2.4-1.5c0,0,1.7-0.7,3.3-0.7c3.4,0,7.9,5.7,8.4,11.8c0.1,1,0.7,7.7-3.6,10.6c-3.6,2.4-8.5,0.8-8.5,0.4
		c0-0.3,4.5,0.7,7.8-2c2.5-2.1,3.7-5.8,3.1-9.3c-0.8-4.4-4.6-8.1-8.8-8.4c-3.9-0.4-6.8,2.3-9.4,4.6c-1.6,1.4-2.8,2.5-3.4,4.4
		c-1.4,4.3,1.5,8.3,2.1,9.4c1.2,2.1,4,3.9,6.4,4.5c3.6,0.9,7.5,0.6,11.3,0.9c3.2,0.2,4-1.9,4.2-4.4c1.4-17.8,11.6-31.9,19.9-46.8
		c0.3-0.5,0.8-0.9,1.5-1.1c-8.1,16.8-18.9,32.6-20.6,52.4c13.9,5.5,28.5,11.2,42.3,16.7c-2.6-0.4-6.6-0.3-10.1-1.5
		c-11.5-3.9-22.6-9-34.2-12.3c-9.1-2.5-18.6-3.1-27.4,2.2c-10.1,6.2-20.6,11.9-32.6,13.3c-4.2,0.5-8.5-0.4-13.6-0.8
		c1.2-1.6,1.4-2.1,1.5-2.1c18.1,2,32.4-8.4,47.7-15.2c1.1-0.5,1.9-3.1,1.8-4.6C204.4,253.5,203.2,251.5,202.4,249.5L202.4,249.5z
		 M263.4,177.6c-12.1,19.9-24.3,39.9-37.1,61C226.1,232.7,256.6,182.5,263.4,177.6z M215.6,244c-0.7-0.6-2.7,0.4-3.6,1.5
		c-2.4,2.6-0.8,7.3-0.5,7.9c-2.2-2.8-3.1-5.5-0.9-8.5c2.1-2.8,5.1-3.4,7.7-0.8c0.2,0.2,1.9,2.2,1.1,4.4c-0.5,1.3-1.8,1.9-2.1,2.1
		c-0.6,0.3-1.6,0.7-2.6,0.3c-0.6-0.3-1.3-0.9-1.3-1.8c0-1.5,2.3-1.9,2.6-4C215.9,244.9,216,244.2,215.6,244L215.6,244z M210,255.5
		c-3.6-2.5-4.9-6.1-3.4-9.2c1.6-3.1,4.7-6.1,7.8-7.5c3-1.3,7.3-1.3,10.1,4.1c-5.1-3.9-9.4-4.2-13-1.5
		C207.3,244.7,206.9,247.5,210,255.5z M250,346.4c-7.9,3.8-15.7,7.7-24.1,11.9c-1-14-1.9-27.3-2.9-40.5c-0.3,0-0.7,0-1,0
		c0.6,12,1.1,24,2.1,35.9c0.3,3.9-0.4,6.1-3.9,8c-9.2,4.9-18.3,10.1-27.5,15.2c-1.7,0.9-3.6,1.6-6.5,2.8c0.7-5.1,0.8-9.3,1.9-13.2
		c6.7-23.8,12-47.8,14.7-72.3c0.1-0.7,0.3-1.2,0.5-2.4c1.5-6,2.5-6.6,3-6.9c0.7-0.3,1.6-0.2,2.3,0.1c2,1.1,2,4.9,1.9,6.5
		c-0.8,35.5-3.1,62.8-3.1,62.8c-0.1,2-0.3,3.9-0.5,5.9l1.5,0.3c0.3-1.6,0.8-4,1.3-7c0.9-5.5,2.7-19.2,2.1-47.6
		c0,0-0.4-19.7,3.2-21.4c0.2-0.1,0.9-0.4,1.4-0.2c1.1,0.5,1,2.4,1.7,5.2c0.4,1.5,0.9,2.8,1.3,3.7c-0.2-5.3,0.4-6.8,1-7
		c0.6-0.1,0.9,0.9,2.1,1c1.7,0.2,2.6-2.1,3.9-1.7c0.9,0.3,1.7,1.3,2.2,3.1c1.4,5.3,2.1,10.8,3.2,16.1c2.1,10.7,4.2,21.5,7.1,32
		c-2.4-16.3-7.1-32.3-6.7-49.7c7.3,2.4,12.4,5.3,13.8,12.7c1.1,5.8,2.8,11.5,5.4,17c-1.4-7.2-2.9-14.5-4.4-22
		c5.3,0.6,5.7,0.5,6.7,4.9c2.4,10.6,6.8,20.1,13.2,28.8c0.6,0.8,1.3,1.5,1.9,2.2c-1.7-6.5-3.7-13-4.9-19.6c-0.7-3.9-0.1-8.1-0.1-12
		c6.7,0.1,6.6,4.3,7.1,9.2c0.5,5.5,2.1,11,3.8,16.2c1.9,5.8,1.6,7.1-4,8.8c-3.5,5.3-13.6,8.4-17.9,4.6
		C255.2,342.7,253.3,344.8,250,346.4L250,346.4z M259.5,280.1c-7.9-3.3-16-6.4-23.8-10c-13-6.2-25.3-6.1-38,1.4
		c-11,6.5-22.5,12.4-35.9,12.5c-1.5,0-3-0.2-4.6-0.2c0-0.4,0-0.9,0-1.3c2.3-0.1,4.6-0.1,6.9-0.3c12.1-1.1,22.6-6.9,32.9-12.6
		c11.9-6.6,24-6.4,36.1-2.2c9.2,3.2,17.9,7.8,26.9,11.8C259.9,279.4,259.7,279.8,259.5,280.1z M260.6,298.5c0,2.1,0.2,5.3,0.8,9
		c1.4,8.5,4.2,14.7,3.7,14.9c-0.4,0.2-2.3-3.3-2.4-3.5c-2.2-4.1-5.2-11.1-6.8-21.7C257.5,297.6,259,298,260.6,298.5L260.6,298.5z
		 M208.5,275.8c0.6-2.2,0.7-4,1.5-5.5c1.3-2.2,3.4-2.9,4.2,0.2c0.9,3.4,3.5,3.3,5.9,4c8.2,2.4,16.4,5,24.6,7.5
		c-0.2,0.6-0.3,1.1-0.5,1.7c-5-1.8-10-3.5-15-5.3c-0.1,0.3-0.2,0.6-0.4,1c8.6,3.9,17.2,7.8,25.9,11.6l-0.3,1
		c-4.7-1.8-9.5-3.4-14.2-5.3c-4.3-1.8-8.4-4.1-12.7-5.8c-9-3.6-17.8-3.2-26.4,1.8c-10.4,5.9-20.9,11.8-33,13.8
		c-2.9,0.5-5.9,0.7-9.1,0.2C177.6,294.4,192.5,283.5,208.5,275.8L208.5,275.8z M154.1,345.7c6.6-12.3,8.7-25.4,7.5-39.2
		c-0.1-1.6,0-3.2,0-4.9c2.6,0.4,4.6,0.6,7.2,1c0.4,1.1,1,2.8,1.6,4.6c2.1-5.3,5.3-8.2,9.5-8.6c-0.6,3.7-1.2,7.2-2,11.6
		c4.1-5.1,1.6-13.8,10.7-14.5c-0.1,18.4-7.9,35.1-10.9,52.8c0.4,0.1,0.8,0.3,1.2,0.4c0.7-1.4,1.6-2.7,1.9-4.2
		c3.6-13.5,7.5-26.9,10.3-40.6c1.3-6.6,3.7-11.4,10.8-15c-1.5,11.7-2.2,22.8-4.4,33.6c-3,15-8.1,29.6-10.6,44.6
		c-1.7,10.1-5.7,16.6-15.3,19.9c-7.8,2.7-15.4,5.9-23.2,8.7c-1.6,0.6-3.6,0.4-6.4,0.6c1.6-14.3,3.2-27.7,7.7-40.5
		C151,352.8,152.2,349.1,154.1,345.7L154.1,345.7z M286.1,252.2c0.3-1.7,0.5-4.1,0.1-7c-0.4-2.7-1.2-4.8-1.8-6.2
		c-0.2,1.9-0.6,3.9-1.1,6.1c-1.3,5.4-3.4,9.8-5.3,13.1c2.1-8.6,3.5-17.2,0.2-25.9c1.4,12.5-1.4,23.4-11.9,32.6
		c0.9-6.4,0.6-8.4,0-8.6c-1.7-0.5-6.8,11.2-8.2,10.7c-0.8-0.3,0.4-4.1-0.7-4.5c-0.9-0.4-1.9,2.2-4.5,3c-2.7,0.9-5.5-0.7-6.2-1.1
		c-3.9-2.2-4.1-5.8-6.6-6c-1.8-0.1-2.4,1.6-3.9,1.4c-2.4-0.5-3.5-5.7-3.4-6.4c1-6.2,2-12.6,4.7-18.1c7.1-14.7,15.1-28.9,22.7-43.4
		c1.1-2,2-4.1,4-6.1c-0.5,6.6-1.1,13.2-1.6,19.8c0.7-3.2,1.4-6.4,2-9.6c0.6-3.3,0.8-6.6,1.6-9.9c0.8-3.2,2-6.3,4.2-9v39.5
		c0.1,0,0.2,0.1,0.4,0.1c0.7-4.4,1.7-8.8,2-13.3c0.4-4.8,0.1-9.6,0.5-14.5l3.6,23.2c0.4-0.1,0.8-0.1,1.1-0.2
		c-1.5-10.5-2.9-21-4.6-31.5c-0.5-3.1,0.1-4.9,3.9-5.2c0.5,4.2,0.7,8.5,1.5,12.7c2.9,15.4,6,30.7,9.1,46
		C289.3,241.3,288.5,247.6,286.1,252.2L286.1,252.2z M284.7,209.5l-4.4-30.8c0.4-0.1,0.7-0.1,1.1-0.1c1.5,10.2,3,20.5,4.5,30.8
		C285.4,209.4,285.1,209.4,284.7,209.5L284.7,209.5z M246.2,99.8c-1.4,5.1-4.1,9.8-6.7,14.5c-4.2,7.4-10.8,9.9-19.1,8
		c-17.7-4.2-31.3-20.4-31.2-38.7c0-4.7,3.4-9.5,5.8-13.9c0.4-0.7,4.9-0.2,6.3,1c3.8,3.4,7.5,3,12,1.7c2.6-0.8,5.7,0.3,9.9,0.7
		c0.9-1.9,2.7-4.9,3.8-8.2c0.4-1.2,0.4-2.2,0-2.9c-0.7-1.6-2.9-2-4.3-2.3c-7-1.2-12.6-2.2-19.8,0.5c-1.9,0.7-3.4,1.5-4.4,2.1
		c-0.3-0.5-0.6-0.9-1-1.4c5.5-3.9,11-7.9,16.6-11.7c5.6-3.8,11.5-7.3,18-11.4c5.9,6.6,12.2,13.7,18.5,20.8c-0.4,0.4-0.6,0.8-0.8,0.8
		c-12.2-2.4-17.8,2.7-16.2,15c0.6,4.5,1.3,8.9,1.7,13.4c0.5,5-0.4,5.7-5.2,4.9c-1-0.2-2.1,0.3-3.2,0.5c2.1,2.4,3.9,4.4,5.9,6.5
		c-0.1,0.8-0.3,1.6-0.9,1.8c-0.4,0.1-0.9-0.3-1.1-0.3c-0.8-0.6-3.6-0.4-11,2.7c0.8,0.1,1.6,0.2,2.5,0.3c4,0.4,7.7,0.3,11,0
		c0.1,0.5,0.1,1.1,0.2,1.6c-1.3,1.9-2.3,2.4-3.1,2.4c-0.5,0-1-0.2-1.9-0.1c-0.8,0-1.5,0.2-1.9,0.3c1.3,1.6,2.4,1.8,2.9,1.8
		c1.8,0.1,3.2-1.4,5.2-3.4c1.2-1.3,2.1-2.5,2.6-3.3c-0.3-0.8-0.8-1.2-1.1-1.5c-0.4-0.3-0.6-0.3-0.9-0.7c-0.4-0.5-0.4-1.1-0.3-1.6
		c0.8-0.6,1.9-1.7,2.8-3.2c1.8-3.3,1.3-6.6,0.7-10.4c-0.5-3.3-1.1-8.1-1.6-14.3c1.8,0.6,5.6,1.5,9.6,0c0.9-0.3,1.6-0.7,2.3-1.2
		c0.4,0.3,0.9,0.5,1.4,0.8c0.7,0.5,1.4,1,2.2,1.4C250.4,81.8,248.7,91,246.2,99.8L246.2,99.8z M194.2,25.3c2.4,0.1,4.4-0.3,5.8-0.7
		c-8,4.4-16.1,8.9-24.1,13.3c2.3-3.2,5.6-6.8,10.1-10.2c1.5-1.1,3-2.1,4.5-3C191.5,25,192.7,25.2,194.2,25.3L194.2,25.3z
		 M192.8,22.9c2.6-2,7-4.8,13-6.2c2.9-0.7,5.5-0.9,7.7-0.9c-2.1,1.5-3.9,2.7-5.3,3.5c-4.1,2.4-6.5,3.8-9.9,4.2
		C196,23.6,194.1,23.2,192.8,22.9L192.8,22.9z M176.8,55.4c0.1-2.6,1.6-4.2,2-4.6c1.1,1,3.8,3.4,7.9,4.2c2.8,0.5,5.2,0.2,6.6-0.1
		c-1,0.8-2.5,2-4.5,2.9c-0.5,0.2-8.6,4-11.2,1C176.7,57.7,176.8,56.2,176.8,55.4L176.8,55.4z M201.7,63.9c-0.1-0.2,0.8-0.8,1.3-1.1
		c3.4-1.9,7.4-1.3,11.7-0.6c0.7,0.1,1.1,0.2,1.1,0.3c0,0.1-1.5,0-3,0c-1.1,0-3.8,0-6.8,0.5C203.6,63.5,201.8,64.2,201.7,63.9
		L201.7,63.9z M247.1,63.8c0,0.1-2.5-1.1-5.7-0.4c-1.8,0.4-3.1,1.3-3.1,1.2s1.1-1,2.5-1.5C243.9,62.1,247.1,63.7,247.1,63.8z
		 M258.8,56.2c-1.8-0.7-4.5-2-7.2-4.3c-2.2-1.9-3.7-3.9-4.6-5.4c1.1,0.5,2.9,1.3,5.2,2c2.7,0.7,3.8,0.6,4.9,1.5
		C258.1,50.7,259.1,52.4,258.8,56.2L258.8,56.2z M232.2,30.4c0.9,0,2.4,0.2,4,0.6c3.9,1,6.1,2.9,8.2,4.1c2.3,1.3,5.8,2.6,11.4,2.2
		C245.5,41.5,236.3,38.6,232.2,30.4z M250.6,27.7c1.9,0.5,3.3,2.5,4.5,4.7c-19.6-9.6-38.1-5.9-57.5,2.9c12,0.8,22.8,1.4,31.3-7.7
		c-0.2,4.9-3.4,7.4-6.8,9c-5.3,2.3-9.9,3.2-11.9,3.3c-4,0.3-7.9,0.6-10.9-2c-0.9-0.8-1.6-1.6-1.9-2.2c-3.9,2.4-6.9,4.3-10,6.2
		c3,0.8,6,1.9,9.1,2.2c2.3,0.2,4.1,0.2,5.8,0.2c2.5,0,5.8-0.3,9.6-1c-0.8,0.9-1.9,2-3.5,3.1c-5.8,4.1-11.7,3.8-18.7,3.5
		c-2.1-0.1-3.9-0.3-4.7-1.6c-0.5-0.9-0.6-2.2,0.2-4h-1.9c-0.2-0.3-0.4-0.7-0.6-1c4.1-2.9,8.1-5.9,12.3-8.6
		C212.3,23.8,231.1,22.4,250.6,27.7L250.6,27.7z M194.6,10.6c-5.7,3.3-11.3,6.7-17,10C181.7,14.2,188.4,12.3,194.6,10.6z
		 M172.1,32.1c9.7-9.3,19.2-19,33.3-21.6c0.8-0.1,1.6-0.5,2.3-1c6.7-4.8,9.6-4.8,17.8,1.1c-22.8-0.4-40.3,8.6-55.3,24.1
		C170.9,33.9,171.4,32.9,172.1,32.1L172.1,32.1z M157.9,54.8c-2.6,4.5-6.1,5.5-9.7,4.5c-1.3-0.4-1.9-3.1-3.7-6
		C149.9,53.9,153.6,54.3,157.9,54.8L157.9,54.8z M151.8,68.7c-1.8-0.9-2.8-0.5-4.4-1.9c-1.4-1.2-2-2.9-2.3-4
		c1.2,0.4,2.9,1.1,4.9,2.1c2.1,1,3.1,1.5,4,2.2c3.1,2.3,2.8,4.6,5.7,7.4c0.9,0.8,2.1,1.8,4.1,2.7c-3,0.5-4.8-0.2-5.9-0.9
		C154.7,74.3,155.4,70.6,151.8,68.7L151.8,68.7z M158.4,91.1c-2.9-0.2-4.9-4-4.9-6.8c0-1.6,0.7-2.4,0.7-4.7c0-1.7-0.4-3-0.7-3.9
		c1,1.8,2.6,4.1,5.2,5.8c2.8,1.8,4.7,1.7,5.2,3.2C164.6,86.9,161.6,91.3,158.4,91.1L158.4,91.1z M175.3,101.9
		c-2.4,3.9-6.8,6.7-9.3,5.9c-0.3-0.1-1.1-0.3-1.4-1c-0.1-0.2-0.3-0.9,1-2.4c1.8-2,3.8-2.4,5.5-3.2c4.7-2.3,5.5-7.8,6.3-7.5
		C178,94,177.6,98.3,175.3,101.9L175.3,101.9z M171.7,85c-1.5,0.8-3.3,1.8-3.3,3.3c0,1.7,2.4,2.8,2.7,3c-0.5,0.4-1.3,1.1-2.6,1.4
		c-0.7,0.2-2.6,0.7-3.5-0.1c-1.4-1.2,0-5.2,1.8-7.8c0.7-0.9,2.1-2.8,4.6-3.7c4.3-1.6,8.9,0.6,8.9,1.3
		C180.3,83.1,176.4,82.4,171.7,85L171.7,85z M181.4,68.9c-1.2,0.1-2.7-0.3-3.8,0.7c-1.2,1-1.6,3-2,5.1c-0.1,0.7-0.2,1.3-0.2,1.7
		c-0.5,0.3-1.4,0.8-2.6,1c-4.7,0.9-8.4-2.7-9.5-3.8c-0.8-0.7-2-2-1.7-3c0.2-0.6,0.9-0.9,1.4-1.1c3.8-1.2,6.3,1.6,9.7,0.6
		c2.5-0.7,1.9-2.5,5.8-4.5c1.9-1,2.5-0.8,5.1-1.8c1.7-0.7,4.1-1.7,6.8-3.6C186.7,67.1,183.6,68.8,181.4,68.9L181.4,68.9z
		 M166.6,155.2c5.3-1.5,10.7-2.9,16-4.6c7.4-2.5,8.2-3.4,8.4-11.4c0.2-9.1-0.1-18.3-0.1-27.4c0-1.9,0-3.8,0-5.2
		c9.2,8.9,18.4,18,27.9,26.7c3.4,3.1,5.4,6.3,6.1,9.8c0.4,1.9-0.1,2.8-1.4,10.8c-1.2,7.4-1.2,8.4-1,8.4c0.6,0.2,3.3-5.9,5.1-10.1
		c1.2-2.8,2-4.7,2.8-4.6c0.9,0.1,1.3,2.4,1.5,3.5c0.1,0.7,0.8,4.5-0.9,9.2c-0.2,0.6-0.7,1.9-1,2.8c-0.9,2.5-1.4,3.7-0.9,4.9
		c0.2,0.4,0.3,0.6,0.6,0.7c1.3,0.5,3.7-4.1,8.9-11.1c2.7-3.7,3.9-4.9,5.8-5.4c1.7-0.5,3.6-0.2,5.9,0.8c3,1.3,8.1,2.6,8.3,4.4
		c0.6,4.5,0.3,9.6-3.8,13.3c-9.5,8.5-20.9,12.8-33.2,15.1c-10.7,2-20.8,0.4-30.6-4c9.4,7.1,20,6.9,30.9,5.7c2.3-0.3,4.5-1,7.5-1.7
		c-7.2,3.7-15.8,5.4-25.5,3c-8.1-2.1-15.8-6.2-22.8-9.1c2.5,6.4,23.7,13.1,39,12.1c15.4-1,26.8-10.1,39-18.1
		c-16.1,21.1-54.4,29.6-79.5,7.7c-4.9,8.3-12.8,11-18.5,6.3c8.7,2.8,14.5-0.3,18.1-12.1c3.6,1.9,7.1,3.8,10.7,5.7
		c-8-8.1-16-16.1-24-24.2C166,156.3,166.3,155.7,166.6,155.2L166.6,155.2z M166,183.3c2.2-5,4.5-9.9,7.2-16c0.8,3.4,1.4,5.9,2,8.6
		c-7.2-1.5-5.1,5.7-8,8C166.9,183.7,166.4,183.5,166,183.3L166,183.3z M165.1,164c-1.4-1.1-2.9-2.3-4.5-3.6c0.9,2.4,1.4,2.8,7.7,5.6
		c-7.5,1.6-7.9,1.4-11.5-6.4C161.5,156.8,162.4,157.2,165.1,164L165.1,164z M65.8,123.5c-15.9,0.6-32.1,1.2-46.3,1.7
		C33.4,120.5,49.6,120,65.8,123.5z M9.8,132.2c17.7-5.8,35.6-8.9,54.1-3.5C45.9,129.8,27.9,131,9.8,132.2z M31.2,164.9
		c0-0.6-0.1-1.2-0.1-1.8c3.4-0.7,7.1-1.3,11.1-1.6c7.4-0.7,14.1-0.6,19.8-0.1c-0.4,0.7-0.9,1.5-1.3,2.2
		C50.8,164,41,164.4,31.2,164.9L31.2,164.9z M37.9,273.4c0.7-0.6,1.7-1.5,3.3-1.9c2.8-0.8,5.3,0.6,6.2,1.1c2.2,1.2,5.2,4,4.5,5.8
		c-0.5,1.4-2.7,0.9-10.8,2.1c-4.4,0.6-5.7,1.1-6.3,0.2C33.6,279.3,35.6,275.5,37.9,273.4L37.9,273.4z M36.7,284.4
		c3-2.5,6.3-2.7,8.7-2.9c2.5-0.2,5.3-0.4,8,1.4c1.6,1,4,3.4,3.5,5.1c-0.6,1.8-4.2,1.2-11.4,2.5c-8.5,1.5-11.7,3.8-12.8,2.3
		C31.4,291.1,33.8,286.8,36.7,284.4L36.7,284.4z M34.4,300.8c-1.2-1-2.1-2.8-1.8-4.2c0.5-1.7,2.8-2.1,9.1-3.6
		c9-2.2,13.1-3.5,15.8-1.6c0.3,0.2,1.2,0.9,1.2,1.8c0.1,1.4-1.8,2.5-3.1,3.2c-4.6,2.5-10.4,5.6-17.4,5.6
		C37.1,301.9,35.7,301.8,34.4,300.8L34.4,300.8z M44.3,308.7c0,0-1.7,0.3-4.6-0.2c-1.1-0.2-1.7-0.4-2.1-0.9c-0.6-0.8-0.2-2,0.1-2.8
		c1.1-2.1,3.9-1.5,10.3-3c4.8-1.1,6.7-2.2,9.2-1.1c0.5,0.2,2.3,1,2.3,2C59.6,304.2,56.9,306.1,44.3,308.7L44.3,308.7z M66.7,279.4
		c-1.1,1.4-5.6,0.2-8.3-1.7c-1.6-1.1-2.4-2.2-2.6-2.5c-0.5-0.7-2.2-3.2-1.4-6.2c0.5-1.9,2.1-4.2,3.8-4.1c1.2,0.1,2.1,1.7,4,4.9
		C66.7,278,67.1,278.8,66.7,279.4L66.7,279.4z M66.9,287.6c0.3-2.4,1.3-6.5,2.2-6.4c2.1,0.1,4,19.6,2,20.1
		C69.9,301.6,66.1,294.8,66.9,287.6z M107.5,426c-1.4-4.1-4.2-8.3-4.1-12.4c0.3-16.5,1.5-32.9,2.4-50.2
		C112.5,373.2,114,410.4,107.5,426L107.5,426z M119.4,455.5c0.2,2.4,0.6,4.7,0.9,7.1c-0.7,0.2-1.4,0.4-2.2,0.6
		c-1.5-3.3-3-6.7-4.7-10.4c-0.4,0.3-1.2,0.8-3.2,2.1c-0.4-3.3-1.6-6.3-1-9c5.5-25.3,6.9-51,8.1-76.7c0.1-3,0.6-6.1,2.1-9.1
		c0.5,7.4,1.3,14.7,1.5,22.1c0.2,9-0.1,18-0.2,27c0,2.7-0.3,5.4,0,8c1.4,9.5,2.3,18.9-2,28.2C117.5,448,119.1,452.1,119.4,455.5
		L119.4,455.5z M117.2,324.9c-8.6,15-32.6,16.7-43.9,3.5c-1-1.1-1.8-2.4-2.7-3.6c-2.7-3.5-4.1-6.4-0.8-10.9
		c2.7-3.6,3.3-8.6,5.3-12.9c0.7-1.6,2.4-3.7,3.8-3.8c6.6-0.5,13.4-1.4,19.8-0.2c4.4,0.8,8.3,4.8,12.3,7.3c-1.7-2.2-3.4-5.6-6.1-7.6
		c-2.5-1.8-3.4-3.6-2.8-6.2c1.9-8.6,3.8-17.2,6.1-25.7c1.3-4.6,3.2-9.1,5.4-13.4c5.4-10.8,8.2-21.8,6.7-34.2
		c-1.4-11.9,1.8-23.5,6.2-34.6c3-7.7,8-13.8,15.7-17.4c2.9-1.4,4.3-0.9,6.3,2c7.4,10.7,5.4,22.6,5.3,34.3c0,1.3-0.3,2.6,0.3,4.1
		c0.6-4,1.3-8.1,1.6-12.1c0.3-4.3,0.1-8.6,0.1-14.2c2.9,5.6,3.2,10.1,1.5,18.8c-1.2,6-2.6,11.9-2.9,18.2c2.1-8,4.2-16,6.5-25
		c0.2,5,0.4,9.1,0.6,13.1c0.2,0,0.5,0,0.7,0v-12.4c6.4-0.8,5.8,4.5,7.7,7.6c5.9,9.5,12.2,18.7,17.6,28.5c4.4,8.1,7.8,16.9,11.3,25.5
		c1,2.5,1.6,5.6-2.5,7.2c-0.6-1.2-1.1-2.3-1.6-3.5c-0.6,2.9-1.3,4.4-2.2,4.5c-1.4,0.1-3.1-3-5.1-9.5c0.2,1.6,0.3,4,0.1,6.9
		c-0.2,3.1-0.4,5.1-1.5,5.5c-0.3,0.1-0.9,0.2-4.7-2.4c-1.4-0.9-2.5-1.8-3.2-2.4c-0.6,0.4-1.4,1-1.9,2.1c-0.9,1.8-0.3,3.1-1,3.5
		c-0.9,0.5-2.3-1.7-5.8-3.1c-0.9-0.4-1.8-0.6-2.4-0.7v4c-3.1-2.7-5.6-4.8-8.4-7.2c0.9,3.2,1.7,6.2,2.7,9.8c-2-0.5-3.3-0.8-5.1-1.1
		c0.8,1,1.4,1.8,2.2,2.9c-9.7-3.4-15.6-14-13.7-25.2c1-5.7,2.9-11.3,5.2-16.6c2.4-5.5,1.9-10.6-0.4-17.1c-2.9,2.2-5.7,3.9-7.8,6.1
		c-0.8,0.8-0.8,3.5,0,4.3c3.1,3.5,2.8,7.4,2.1,11.4c-1.6,8.6-1.8,17-0.7,25.8c1.3,10.5-2,20.6-6.5,29.9
		C130.3,300.9,123.9,313,117.2,324.9L117.2,324.9z M123.9,467.4c5.6-11.9,13.1-21.3,27.6-23.4c21.1-3,41.6-9.1,61.8-15.9
		c27.4-9.2,50.4-25.3,71.1-45.1c4.2-4.1,8.8-6.7,14.9-6.8c5.3-0.1,8.1,1.6,9.3,6.1c-7.4,3.5-15.1,6.3-21.7,10.5
		c-7.1,4.6-13.3,10.5-19.8,16c-19.6,16.9-42.1,27.9-67,34.2c-14.9,3.7-29.7,7.5-44.6,11c-9.6,2.2-15.3,9.5-21.8,15.8
		c-0.6,0.6-0.8,1.7-1.4,2c-5.4,2.4-5.4,6.1-2.5,10.7C122.8,479.1,120.8,473.9,123.9,467.4L123.9,467.4z M270.8,628.5
		c-12.2,52.6-26.1,104.8-49.1,154c-9.2,19.8-19.3,39.2-35.4,54.6c-2.9,2.8-5.3,5.9-10.1,6.5c-2.4,0.3-7.2,2-6.6,7
		c0.1,0.7-1.4,2.2-2.3,2.3c-4.1,0.5-8.2,0.7-12.4,1c0-0.4,0-0.9-0.1-1.3c6.9-4.6,13.7-9.2,20.5-13.9c12.5-8.6,21.5-20.1,28.4-33.6
		c14-27.3,23.2-56.3,31.1-85.8c1.5-5.6,3.1-11.1,3.8-17c-3,7.7-5.6,15.6-9,23.1c-6.6,14.9-12.5,30.3-20.9,44.2
		c-6.5,10.8-16.3,19.6-24.5,29.3c-2.3,2.7-4.1,5.8-6,8.5c0.1-6.4,1.6-12.9,7-17.8c7.2-6.5,9.1-14.6,10.3-23.9
		c1.9-14.6,4.8-29.3,8.9-43.5c9.6-33.2,16.2-67,22.4-100.9c10.4-56.7,21.2-113.3,31.9-169.9c1.3-7,3.2-14,5.5-20.8
		c1.2-3.6,4.1-6.7,6.2-10.1c0.6,0.3,1.3,0.5,1.9,0.8v17.6c0.1,0,0.2,0,0.3,0.1c0.6-4.8,1.1-9.5,1.9-14.3c0.7-4.6,1.7-9.1,2.5-13.7
		c0.6,0,1.2,0,1.8,0c0.7,1.2,1.4,2.3,2.1,3.5c2.5-1.1,1.2-6.9,6.8-5.4c0.3-0.5,0.9-1.7,2.1-4.1c5.7,35.5,4.4,69.7,2.4,103.9
		c5.2-35.2,3.2-70.8,2.7-106.2c0.7-0.1,1.5-0.2,2.2-0.3c1.2,5.8,2.8,11.5,3.7,17.4c5.5,36.4,3.7,72.8-1.4,109.1
		c-7.6,53.6-15.4,107.2-23.8,160.7c-4.3,27.2-12.3,53.4-20.7,79.7c-8.6,26.9-26.7,46-45,65.5c-6.3,6.7-13.8,12.6-21.4,17.9
		c-12.9,9-23.1,10.9-39.3,8.9c-0.3-0.5-0.5-1.1-0.8-1.6c2.2-1,4.5-3,6.5-2.7c18.9,2.3,31.5-8.2,43.2-20.6
		c16.4-17.3,27.6-37.9,37.4-59.3c16.1-35.5,26.6-72.8,34.3-111c7.6-37.8,12.9-75.9,16.7-114.2c0.4-4.1,0.8-8.2,1-12.3
		C282.2,569.3,277.6,599.2,270.8,628.5L270.8,628.5z M197.1,479.4c0.2-1.6,1.8-3.1,2.7-4.6c1.6,1,4,1.7,4.5,3.2
		c1.3,3.4,2.1,7,2.5,10.6c3.5,36.5,7,73,6.1,109.7c-0.1,5.8-0.9,11.6-1.4,17.4c0,0.4-0.5,0.8-0.9,1.5c-0.7-12.1-0.6-24-2.3-35.5
		c-3-20.2-7.2-40.3-10.7-60.5c-1.5-8.5-2.6-17.1-3.8-25.7c-0.3-2.2-0.1-4.5,0.9-7c0.6,1,1.1,2,2.3,4.1
		C196.9,487.2,196.6,483.3,197.1,479.4L197.1,479.4z M220,448.5l1,0.5c0,12,0,24,0,36.1c0,9.2,0,18.5,0,27.8
		c1.6-16.9,3.2-33.8,5-50.7c0.4-3.4,1.2-6.9,2.6-10.1c0.9-2.1,2.9-3.8,5-6.2c2.9,10.3-7.6,102-13.4,119.3c-0.3-3.5-0.5-5.8-0.7-7.8
		c-1,9.7-2,19.6-2.9,29.5c-0.4,0-0.8,0-1.2,0c-0.2-2.5-0.4-5-0.6-7.5c-1.5-30.3-3.2-60.6-4.4-90.9c-0.4-9.3,0.4-18.6,0.8-28
		c0.1-2.5,1-5,1.6-7.5l1.4,0.2v8.7C216.1,457.2,218.1,452.9,220,448.5L220,448.5z M251.2,439.1c0.5,0.5,1,0.9,1.7,1.5
		c1.6-3.3,3.1-6.3,4.6-9.3c0.5,0.1,0.9,0.1,1.4,0.2c-0.5,5-0.6,10-1.5,14.9c-4.7,25.7-9.5,51.4-14.4,77
		c-8.6,44.4-17.2,88.9-26,133.3c-1.9,9.8-4.7,19.3-7.3,28.9C208.4,659,243.8,450.5,251.2,439.1L251.2,439.1z M242.1,439.6
		c0.5,18.6-1.9,36.8-6.8,54.7C234.2,475.6,234.9,457.2,242.1,439.6z M204.9,611.5c-1.5-38-16.3-73.9-17.3-112
		C199.7,535.8,208.2,572.7,204.9,611.5z M127,549.2c-2.4,4.6-3.1,10.2-4.5,15.2c-2-3.9-4.2-8.7-2.8-14.2c1.2-4.5,3-8.8,4.8-13.1
		c5.1-12.4,10.4-24.8,15.6-37.2c-0.3-0.3-0.7-0.5-1-0.8c-0.9,0.7-1.6,1.6-2.6,2.1c-1.3,0.6-2.8,1-4.2,1.4c-0.5-1.6-2-3.8-1.4-4.9
		c5.2-10,10.8-19.8,16.3-29.7c0.2-0.5,1.1-0.6,2.2-1.1v8.4c4.3-5.4,8-10.1,11.7-14.8c0.6,0.2,1.2,0.3,1.8,0.5
		c-0.4,2.5-0.3,5.1-1.2,7.3c-3.5,8.1-7.5,16-11.1,24c-3.8,8.4-7.6,16.8-11,25.3c14.7-17.7,18.9-41.9,35.5-58.3
		c0.6,0.3,1.3,0.6,1.9,1c-1.2,4-2.5,7.9-4.1,13.2c2.3-2,3.5-3,4.7-4c0.3,0.2,0.6,0.3,1,0.5c-3.5,6.6-6.5,13.6-10.6,19.9
		c-5,7.7-10.4,15.1-16.5,22C141.2,523.3,133.9,536.1,127,549.2L127,549.2z M133.6,605.8c1.1,7.7,2.2,15,3.2,22.3
		C130.4,621.3,129.4,615,133.6,605.8z M136.7,575.7c0.8-4.5,1.7-10.1,2.7-15.8c-0.1,0-0.2-0.1-0.4-0.1c-2,5.5-4,11-6,16.6
		c-3.5-4.3-1.4-18.9,4.9-33.2c-1.3,0.5-2.2,1-3.1,1.3c-0.2-0.2-0.5-0.4-0.8-0.5c4.3-6.5,8.3-13.1,12.8-19.4
		c12.4-17.1,24.4-34.4,33-54c2.3-5.3,6.7-9.8,10.4-14.5c0.9-1.1,2.6-1.6,5.2-3.1c-0.6,3.1-0.7,4.9-1.2,6.5c-8.5,27.3-20.1,53-36,77
		C150,549,143.6,563,136.7,575.7L136.7,575.7z M136.2,723.2c-1.6-14.6,1.3-28.7,7-42c3-7,3.4-13.8,2.5-21c-0.6-4.8-1.2-9.6-1-14.5
		c1,4.7,2.1,9.3,3.1,13.9c1,5,2.3,10.1,2.9,15.2c0.5,4.9,0.1,9.9,0.1,14.9c0.6,0.1,1.1,0.1,1.7,0.2c0.4-3.2,1.6-6.5,1.1-9.6
		c-1.3-9-3.2-18-5.1-27c-2.6-12.2-6.3-24.2-8.1-36.5c-3.2-22.4,2.1-43.5,13.1-63c6.3-11.1,14.4-21.2,21.9-31.5c0.8-1,3-1,4.6-1.5
		c0.1,0.4,0.3,0.9,0.4,1.3c0.8-2.3,1.6-4.7,2.7-8.1c23.7,65.8,19.6,132.1,11.9,198.6c-0.4-5.7-0.7-11.4-1.1-18.2
		c-8.1,30.9-12.2,61.8-24.7,90.3c11.6-44.1,22.4-88.3,25.1-134.2c-1.7,4.7-3,9.7-5.2,14.1c-2.8,5.6-5.9,11.3-9.8,16.1
		c-5.2,6.4-9.6,6.5-16.6,2.1c-0.8-0.5-1.6-1-2.8-1.8c-0.2,5.9,3.9,11.5,0,18c-1.6-2.4-2.8-4.2-4-6c2.5,17.2,5.5,34.2,17,48.4
		c-0.6,0.4-1.3,0.9-1.9,1.3c-2.6-2.9-5.6-5.5-7.7-8.6c-2.4-3.5-4.4-7.5-6.2-11.4c-1.7-3.7-3.1-7.7-5.1-11.4
		c-0.8,16.2,1.9,31.7,8,46.7c-12.3-17.1-14.3-37-15.2-57.1c-1.8,26.6-4,53.2,9.7,78c-0.6,0.2-1.3,0.3-1.9,0.5
		c-1.3-2.4-2.7-4.7-3.8-7.1C141.8,756.7,138,740.2,136.2,723.2L136.2,723.2z M131,859.7c1.8-5.5,3.2-6.7,19.5-14.1
		C143.7,850.5,136.9,855.4,131,859.7z M230.5,892.6c-0.2,0.7-0.6,1.7-1.5,2.3c-1.2,0.9-2.3,0.2-4.4,1.3c-0.9,0.5-0.9,0.7-1.7,1
		c-1.1,0.4-1.5,0.1-2.8,0.5c-1.1,0.3-1.1,0.7-2,0.9c-1,0.2-2,0.1-2.8-0.2c-2,0.7-3.7,1.2-4.9,0.4c-0.8-0.5-1.1-1.3-1.7-3.9
		c-1.4-5.6-1.5-7.7-2.5-7.9c-0.8-0.2-1.6,1-2,1.5c-1,1.7-0.1,2.9-0.3,5.4c-0.1,0.6-0.4,3.6-2.6,5.4c-1.9,1.6-4.2,1.5-5.5,1.5
		c-4.5,0.2-6.2-2.2-5.9-6.1c0.3-3.4,1.7-6.8,2.1-10.2c0.5-3.5-0.4-7.2,0.7-10.4c1.3-3.7,3.4-7.9,6.4-10.1c5.8-4.2,15.3-2.5,20.2,2.7
		c1,1.1,0.9,1.5,2.6,5.2C227,882.9,231.8,888.4,230.5,892.6L230.5,892.6z M193.9,860.9c2.1-1.4,4-3.4,6.2-4
		c13.6-3.8,25.1-11,35.7-20.1c0.7-0.6,1.5-1,2.3-1.4C227.6,851,212.8,859.4,193.9,860.9z M239.4,870.7c3.5,4.5,7.2,9.4,10.8,13.9
		C244.6,885.7,239.6,879.5,239.4,870.7z M265.6,884.5c-2.3-1.7-4.1-2.4-7.1-1.7c-2.3,0.5-5.7-0.5-7.7-1.9
		c-5.6-4.1-7.5-14.6-4.2-21.8c2.7,6.2,5.3,12.2,7.9,18.2c0.6-0.2,1.1-0.4,1.7-0.6c-5.1-15.7-3.7-31.7-3-49.1
		c1.2,13.8,2.3,26.4,3.5,39c0.2,2.3,0.5,4.8,1.5,6.8c0.8,1.5,2.6,2.7,4.1,3.6c4.6,2.7,9.4,5.1,14.6,7.9
		C272.1,889.6,268.7,886.7,265.6,884.5L265.6,884.5z M263.2,866.9c3.4,6.4,8.3,11.1,15.3,13.6C269.6,879.7,264.7,875.2,263.2,866.9z
		 M303.8,878.3c-2.3-0.9-4.6-1.8-6.9-2.7c1.2,1.1,2.4,2.2,3.6,3.4c-3.4,3.3-11.7,3.6-17,0.6c-7.1-4-10.9-10.2-11.8-18.1
		c-2.2-19.1,0.1-38.1,1.7-57.1c0.5,0,1,0,1.5-0.1c0.2,5,0.3,10,0.8,14.9c1,11.7,1.7,23.6,3.6,35.2c1.3,7.8,4.5,15.4,12.3,19.7
		c0.9-0.6,2.1-2,2.7-1.7c3.5,1.2,6.8,2.8,10.2,4.3C304.2,877.2,304,877.8,303.8,878.3L303.8,878.3z M304,868.5
		c-4.2-7.5-8.3-15-12.5-22.5c0.3-0.2,0.5-0.3,0.8-0.5c4.2,7.4,8.5,14.8,12.8,22.2C304.7,868,304.3,868.2,304,868.5L304,868.5z
		 M311.6,504.3c-1.5,20.4-3.5,40.8-5.7,61.2c-4.1,37.1-8,74.2-13.1,111.2c-4.5,32.2-11.6,63.9-22.9,94.5
		c-6.8,18.4-15.7,35.7-27.6,51.3c-10.9,14.3-24.1,25.5-41.8,31c-5.5,1.7-10.3,5.8-15.7,8.2c-4.9,2.3-10,4.6-15.3,5.6
		c-5.7,1.1-11.6,0.6-17.4,1.1c-3.4,0.3-6.8,1-10.3,1.5c2.1-3.2,4.6-6.5,9.5-6c15.2,1.6,28.5-3,41.1-11.2c6.8-4.4,14.2-8,21.3-12
		c17.5-9.7,28.6-25.1,37.5-42.4c14.4-28.1,22.3-58.4,28.8-89.1c8.8-41,13-82.6,17.8-124.1c3.1-27,6.2-54,8.5-81
		c2.4-27.5,1.9-54.9-4.1-82.1c-1.4-6.1-1.6-12.5-2.3-18.8c0.4-0.1,0.7-0.2,1.1-0.2c1.1,4.3,2.4,8.5,3.3,12.8
		C310.4,445.1,313.8,474.5,311.6,504.3L311.6,504.3z M312.6,354c-0.1-0.6,0-1.2,0.3-1.9c6.8,28.8,6.8,60,30,82.7
		c-4.9,1.7-7.9,0.5-11.7-4.8c-8-10.9-11.6-23.6-13.8-36.6C315.3,380.4,314.2,367.2,312.6,354L312.6,354z M366.3,413.4
		c-1.9,2-4.8,2.7-5.9-0.8c-4.3-13.1-8.3-26.2-12.4-39.4c-0.2-0.6,0.1-1.3,0.2-2.7c1.6,1.4,3,2.2,4.1,3.4c6.4,6.6,12.5,13.4,19,19.8
		c3.9,3.7,4,7.2,1.1,11.3C370.4,407.8,368.6,410.9,366.3,413.4L366.3,413.4z M369,418.8C368.8,418.7,368.9,418.7,369,418.8
		L369,418.8z M353.8,479.1c-5.6,12.2-11.1,24.5-17.2,36.5c-1.8,3.4-5.5,5.8-8.3,8.7c-0.5-0.4-0.9-0.7-1.4-1.1
		c4.4-7.5,9-15,13.2-22.6c4.5-8.1,8.8-16.3,13.1-24.5c-5,6.4-10,12.8-15.1,19.1c-2.4,2.9-5.5,4.7-11,3.1
		c19.6-19.8,28.4-45.1,41.8-68.1c-1.4,5.1-2.6,10.2-4.1,15.2c-1.5,5.1-3.3,10.1-5.1,15.1c-1.9,5.1-4.1,10.2-6.1,15.2
		C353.6,476.9,354.2,478.2,353.8,479.1L353.8,479.1z M347.1,446.7c-10.7,5.5-21.4,1.2-25.5-10.3c7.9,10,16.2,6,23.9,0.9
		c7.9-5.3,15.2-11.4,23-17.4C364.5,431.2,358.2,441,347.1,446.7z M348.4,456.4c-2.8,5.9-10.4,11.6-17.2,13l-0.9-1.1
		C336.3,464.4,342.3,460.4,348.4,456.4L348.4,456.4z M358.7,420c-3.3,3.9-6.1,4.4-8.9,0.5c-3.6-5.1-6.6-10.8-8.8-16.6
		c-3.5-9.2-4.9-26.9-3.6-36C346.7,385.1,346.7,405.1,358.7,420L358.7,420z M337.1,401.9c3,9,7.1,17.9,15.4,23.8
		c-4.1,3.7-9.1,3.8-12.7-0.6c-3.6-4.5-6.8-9.6-8.8-14.9c-7.2-19.1-10.5-39.1-13-59.3c-0.9-6.9-1.3-13.9-1.9-20.8l1.3-0.1
		c2.2,8.8,4.3,17.7,6.7,26.4C328.2,371.6,332,386.9,337.1,401.9L337.1,401.9z M321.4,755c-0.3-0.1-0.6-0.2-0.9-0.3
		c1.7-4,3.4-8.1,5-12.1c0.3,0.1,0.6,0.2,1,0.3c-0.1,1.2-0.2,2.3-0.4,3.9c1.2-0.5,2.3-0.9,3.4-1.3C326.8,748.6,324.1,751.8,321.4,755
		L321.4,755z M359.4,476.3c-5.1,27.7-10.4,55.3-29.2,77.8C342.7,529.2,354.2,503.9,359.4,476.3L359.4,476.3z M354.2,727.7
		c-8.3-7.6-15.6-14.5-20.6-23.5c-3-5.5,0.9-7.9,3.9-11.7c0.6,3.5,1.1,6.6,1.7,9.7c1.3-10.2,6.5-17.6,15-23.4V727.7L354.2,727.7z
		 M356,637.7c0.3,0,0.6,0.1,1,0.1c1.5-8,3-16.1,4.5-24.1c0.4,0,0.7,0,1.1,0c0,2.5,0.1,5,0,7.5c-0.2,2.5-0.9,5-0.9,7.4
		c-0.5,16.9-8.2,29-23.3,36.6c-2.8,1.4-5,3.8-8,6.2c2.1-12.7,4-24.7,6.2-36.7c6.3-35.1,13-70.1,18.8-105.2
		c5-29.7,8.9-59.6,13.7-89.4c1.8-11,4.7-21.8,7.2-32.7c0.2-0.8,0.7-1.4,1.9-2c0,5.4,0.5,10.8-0.1,16.1
		c-3.9,33.9-7.2,67.9-12.5,101.6c-5.7,36.7-6.7,73.6-9.5,110.5C355.9,635,356,636.4,356,637.7L356,637.7z M390.4,624.3
		c-4.5-3-3.9-29.5,0-36.5V624.3z M396.1,551.8c-5.3,5.5-11.6,10.3-18,14.6c-7.1,4.7-11.8,11.2-12,19.2c5.5-2.7,10.9-5.3,17.5-8.5
		c-0.9,12.6-1.7,23.4-2.6,35.1c-1.3-1.1-1.8-1.4-2.2-1.9c-4.1-6-8.3-12.1-12.3-18.1c-2.6-3.8-3.5-8-3-12.7c2.3-23,4.1-46.1,6.5-69.1
		c2.8-28,5.9-55.9,9-83.9c0.6-5.2,1.6-10.3,2.4-15.5c0.5,0,1-0.1,1.5-0.2c1,4,1.9,8,2.9,12.1c0.4-0.5,1-1.4,1.7-2.5
		c4.3,4,4.3,9.3,4.4,14.5c0.4,29.6,0.2,59.3-2.9,88.8c-0.7,6.5,1.3,11.6,6.2,15.9C400.1,543.8,400.8,546.9,396.1,551.8L396.1,551.8z
		 M404.1,533.3c-7.3-1.2-11.9-7.3-11.7-15.4c0.5-21.8,1.1-43.6,1.7-65.4c0.1-3.5,0.1-7,0.4-10.5c0.3-2.9,0.9-5.8,1.4-8.7
		c0.6-0.1,1.3-0.3,2-0.4c1,2.3,2.8,4.5,2.9,6.8c1.4,30.6,2.5,61.2,3.7,91.8C404.5,532.1,404.2,532.7,404.1,533.3L404.1,533.3z
		 M417.2,539.6c-5-0.2-8.1-0.8-8.2-5.2c-0.7-25.8-1.4-51.5-2-77.3c0-1.5,0.1-2.9,0.2-4.4c0.8-0.1,1.5-0.1,2.3-0.2
		C412.1,481.4,414.6,510.3,417.2,539.6L417.2,539.6z M426.8,423.8c-0.3,1.3-1.3,2.6-2.2,2.6c-0.9-0.1-1.5-1.7-2.3-4.4
		c-0.7-2.5-1.6-5.9-2.5-10.1c1.4,0.2,3.3,0.7,4.4,2.2c0.7,1,0.4,1.5,1.1,4C426.2,421.6,427.2,422.2,426.8,423.8L426.8,423.8z
		 M433,425.6c-0.7,0.5-2,0-2.6-0.3c-0.5-0.3-1.2-0.9-2.1-3.3c-0.8-2.1-0.7-2.9-1.2-4.5c0,0-0.8-2.5-2.2-4.4c-0.6-0.8-2.3-2.8-11-4.2
		c-5-0.8-11.7-1.8-12.6,0.2c-0.4,1,0.7,2.2,2.2,4.1c3.9,4.5,6.6,4.5,9.3,8.3c0.5,0.7,3.1,4.4,1.8,6.3c-1.3,1.9-6,0.7-6.4,0.6
		c-0.5-0.1-1.7-0.5-5.3-2.9c-1.6-1.1-3-2.5-4.7-3.4c-6.4-3.4-11.1-7.7-14-13.2c-1.5-3-1.2-4.3-1.7-8.1c-0.2-1.7-0.5-3.2-1.3-6.3
		c0,0-1-3.9-2.4-7.4c-3.2-8.4-26.1-20.4-39.3-36.8c-1.9-2.3-11.4-9.6-16-29.5c-1.9-8.2-5.1-15.7-11-22c-8.1-8.7-10.6-19.8-12.6-31
		c-2.4-13.1-4.8-26.2-7.1-39.3c-1.6-9.5,1-13.4,11.6-15.5c-2.9-2.9-5.1-5.1-7.3-7.3c-5.3,3.1-6.6,2.8-8.2-2.5
		c-3.3-10.9-3.9-22-2-33.1c1-6.1,4.7-7.8,10.7-5.8c5.9,2,9.7,6.4,12.2,11.8c5.6,11.9,9.7,24.2,8.7,37.5c-0.8,9.9,1.3,19,4.8,28.2
		c5.2,13.5,9.4,27.4,14.7,40.8c2.4,6,5.7,12.1,10,16.9c9.7,10.6,17,22.4,22.7,35.5c5.6,12.9,12.4,25.4,18.7,38
		c1.2,2.3,2.3,4.7,3.2,6.4c2.2,3.3,4.4,5.6,6,7c5.2,4.8,13.3,10.2,21,13.1c2,0.8,3.7,1.8,5.1,3.2c2,1.9,3,4,4.4,7.7
		C432.4,418.3,434.8,424.5,433,425.6L433,425.6z"/>
</g>
</svg>
