<?xml version="1.0" encoding="utf-8"?>
<!-- Generator: Adobe Illustrator 28.3.0, SVG Export Plug-In . SVG Version: 6.00 Build 0)  -->
<svg version="1.1" id="Layer_1" xmlns="http://www.w3.org/2000/svg" xmlns:xlink="http://www.w3.org/1999/xlink" x="0px" y="0px"
	 viewBox="0 0 543.1 901.9" style="enable-background:new 0 0 543.1 901.9;" xml:space="preserve">
<style type="text/css">
	.st0{fill:#FFFFFF;}
</style>
<g>
	<path class="st0" d="M541.4,865.2c-2.4-4.1-5.9-6.2-7.1-6.9c-7.7-4.2-16.5-0.5-19.8-0.6c-20.5-0.5-41-1-61.4-1.3
		c-14.2-0.2-28.3-0.2-42.5-0.3c-2.6,0-5.2-0.5-7.9-0.5c-10.6-0.1-21.3,0-33.3,0c2.1-3,3.5-5.7,5.5-7.6c4-3.8,7.5-7.5,7-13.6
		c-0.1-1.4,0.8-3.8,1.9-4.3c7.1-2.8,9.5-9.5,13.2-15.1c2.4-3.5,6.8-7.5,6.3-10.7c-0.5-3.7-5.2-6.9-8.3-10.1
		c-5.7-5.9-5.8-6.2-0.2-12.4c8.4-9.3,8.9-19.9,1.5-30c-1.3-1.7-2.5-3.6-4-5.1c-7-6.7-7.8-14-4.5-23.1c8.4-23.1,6.5-45.8-4.9-67.7
		c-4-7.5-8.2-14.9-11.9-22.5c-2.8-5.8-4.6-11.9-1.3-18.2c4.1-8.1,4.6-16.6,3.3-25.4c-0.7-4.8-1.4-9.6-2.2-14.3
		c-0.5-3.1-0.1-5.7,2.5-8.1c4.3-4,6.6-9.2,6.5-15.2c-0.2-5.6-0.4-11.3-1.3-16.9c-0.7-4.6-0.1-8,3-11.8c5.9-7.3,10.1-15.4,8.9-25.6
		c-0.7-6.6-0.5-13.8,1.5-20c3.3-10.3,3.7-20.1,0.6-30.4c-0.6-2.2-0.8-5.1,0.2-7.1c2.9-5.6,2.3-11.2-0.2-16.4
		c-1.5-3.2-1.4-5.6-0.2-8.8c3-7.7,1.5-16.4-3.7-19.7c-3.9-2.5-3.7-5.2-3.4-9.2c0.5-7.7,0-15.5-0.4-23.3c-0.1-1.5-1.1-3.3-2.3-4.3
		c-2.6-2.1-2.2-4.1-0.6-6.5c1-1.5,1.8-3.2,2.6-4.8c2.8,20.5,13.1,37.6,23.5,54.8c5.1,8.4,10.2,16.7,15.3,25.1c0,0,0,0,0,0
		c10.8,20,15.6,27.6,17.2,29c0,0,0.5,0.6,1.2,1.1c4,3.3,4.1,6.1,0.5,9.8c-1.4,1.5-2.8,3-3.8,4.8c-0.9,1.5-1.5,3.3-2,5
		c-0.4,1.5-0.3,3.1-0.8,4.6c-1,3.5-2.2,6.9-3.4,10.3c-1.6,4.6-0.1,7.4,4.4,8.2c3.2,0.6,4.5-0.2,6.6-4c1.3-2.3,2.8-4.5,4.4-7.1
		c1.9,7.8-2.6,18.4-9,22.1c-4.8,2.8-5.9,8.8-2.2,12.9c0.8,0.8,2.2,1.8,3.2,1.6c8.2-1.8,15.4-4.9,19.2-13.3c2.2-5,5.2-9.6,7.7-14.5
		c0.9-1.8,1.5-3.8,1.7-5.8c0.8-10.2,1.3-20.4,1.9-30.6c0-0.8,0-2.2-0.4-4c-0.9-4.7-3.3-7.8-4-8.7c-2.2-2.9-5.1-8.7-8.6-21.3
		c-4.5-22.6-11.9-39.9-13.7-52.4c-3.4-23.3-8.8-45.8-21.5-66.1c-1.8-2.8-2.5-6.6-2.6-10c-1-17.3-2.3-34.6-6.9-51.4
		c-0.9-3.1-1.3-6.4-1.9-9.5c0.8-0.3,1.2-0.5,1.4-0.5c6.5,1.9,11.5-0.3,14.9-6c3.4-5.6,2.6-10.9-2.3-17c-1.4-1.8-2.8-3.7-4.1-5.4
		c8.1-9.4,6.5-16.7-4.3-21.6c-1.7-0.8-3.3-2.9-3.9-4.7c-0.9-2.8-0.5-5.9-1.1-8.9c-0.9-4.5-1.4-9.4-3.3-13.4
		c-4.9-10-14.3-11.9-24.4-12.4c-9.9-0.5-19.8-1.8-30.5-2.8c0.6-5.4,1.1-10,1.7-15c2.9,0.6,5,1.1,7.1,1.4c4.3,0.7,8.2-1.7,7.3-5.7
		c-1.8-8.2-2.2-17.5-10.6-22.6c-2.9-1.8-3.5-3.5-3.1-6.8c1.1-9.6,0.7-10-8.4-13.4c-0.6-0.2-1.1-0.7-1.7-1.1c0.9-3.1,1.7-6.2,2.5-9.4
		c8.2-2.5,10.7-2.2,11.2-1.2c0.5,0.9-1.1,2-0.9,3.9c0.4,3.1,5.8,5.9,10.5,5.3c3.2-0.4,5.4-2.3,6.3-3.4c7-8.1,6.3-14.6-2.6-21.6
		c0.5-1.4,0.9-3.1,1.7-4.5c3.7-6.5,2.2-12-2.5-17.3c-1.3-1.4-2.4-3.3-2.9-5.1c-5.4-20.5-27.7-23.7-40.1-13.7
		c-4.3-2.7-8.8-5.3-13-8.2c-9.5-6.4-20.1-7.7-31.1-6.8c-1.1,0.1-2.2,0.6-3.2,1.1c-2.6,1.2-5,2.9-7.7,3.7c-6.4,1.9-12.9,3.2-19.3,5.1
		c-1.9,0.6-3.8,2-5.1,3.5c-4.4,5.2-8.6,10.6-12.8,16c-0.9,1.2-1.4,2.8-1.7,4.3c-0.8,3.4-0.6,7.2-2.1,10.3
		c-4.1,8.3-3.1,15.3,4.6,20.5c5.3,3.6,7.2,8.5,8.8,14.3c3.3,11.8,7.2,23.5,11.5,35c2.3,6.2,6.8,10.6,14.1,11.1
		c1.1,0.1,2.8,1.9,2.9,3c0.3,4.6,0.1,9.2,0.1,14.7c-4-0.5-7.2-0.9-10.4-1.3c-3.1-0.4-6.2-0.8-9.3-0.9c-3.1-0.1-6.2,0.4-9.2,0.4
		c-5.7-0.1-11.9-1.1-16.1,3.4c-4.6,4.9-10.1,7.4-16.1,9.6c-14,5.1-24.7,14.1-32.9,26.4c-2.3,3.5-5.2,6.7-7.6,10.1
		c-0.9,1.3-2,3-1.9,4.5c0.8,8-4.5,12.1-9.9,16.1c-12,8.7-22.6,18.6-31.1,30.8c-0.6,0.8-1.3,1.4-1.7,1.9c-4.7-5.3-9.4-10.5-13.8-15.8
		c-4.8-5.7-9.9-11.3-14.1-17.4c-10.4-15.2-13-33.4-18.1-51.5c5.6,0.6,11.1,1.4,16.7,1.8c7.6,0.6,10.3-1.4,10.7-9
		c0.6-12.8,0.8-25.6,0.9-38.5c0-3.8,0.8-5.6,5.1-6c3.4-0.3,8.1-1.4,9.8-3.8c4.5-6.4,4.1-14.4,2.6-21.7c-1.1-4.9-6.8-3.7-10.6-5
		c-0.6-0.2-1.3-0.4-1.9-0.5c-3.1-0.7-4.4-2.6-4.3-5.7c0.1-3.3,0.4-6.7-0.1-10c-0.3-1.8-1.8-4.4-3.2-4.7c-12.1-2.5-24.2-6-36.3-6.2
		c-16.4-0.2-32.9,2.2-49.3,3.6c-8.7,0.7-8.9,1.1-8.7,9.6c0.1,7.1,0.1,7-7.2,8.1c-2,0.3-5.5,1.2-5.6,2.1C0,78.6-0.3,84.1,0.4,89.4
		c0.5,4.1,4.8,4.3,8.2,5.3c1.4,0.4,3.4,2.3,3.5,3.6c0.9,12.5,1.4,25,2,37.4c0.1,1.6-0.1,3-0.7,4.2c-0.9,1.8-2.4,2.6-3.1,3.2
		c-4.4,3.4-4.6,15.7,0.6,19.5c2.8,2.1,5.6,0.4,8.4,3.2c2,1.9,1.6,3.6,2.6,5.8c3.1,6.7,13.1,4.1,26.2,11.8c5.5,3.2,8.2,6.3,8.9,7.1
		c4.1,4.8,5.9,9.6,6.3,12.2c1.8,10.3,4.3,20.6,5.8,30.9c3,20.6,10.3,39.6,21.2,57.3c5.5,9,10.4,11.6,20.4,9.3
		c7.1-1.6,13.9-4.6,20.7-7.1c6-2.2,11.9-4.8,18.7-7.5c0.1,3,0.4,5,0.3,6.9c-0.9,31.5-1.7,63-2.6,94.4c-0.6,20.5-1.4,41-2.2,61.5
		c-0.2,5.2,0.6,10.2,4.9,13.5c3.3,2.5,3.6,5.4,3.4,9.1c-1.6,25.5-2.9,50.9-4.4,76.4c-0.3,5.5,1,9.8,5.8,12.9c4,2.6,5.6,6.3,5.5,11
		c-0.2,8.2,0.2,16.3-0.1,24.5c-0.6,16-1.7,31.9-2.4,47.9c-0.3,6.9,1.9,12.8,7.9,16.8c3.9,2.6,5.8,6.3,5.4,11.1
		c-0.8,9.9,3.8,16.9,12.2,21.7c1.4,0.8,2.8,1.9,4.2,2.7c2.9,1.5,3.8,3.7,3.5,7c-1.4,12.4-2.2,24.9-4.1,37.2
		c-1.8,11.6,1.6,19.9,12.7,24.5c3,1.2,3.8,3.4,3.2,6.4c-1.4,7.4-2,14.9-4.2,22c-2.6,8.4-2.2,15.6,4.2,22.1c2.6,2.7,1.8,5.3-0.1,8.5
		c-1.9,3.1-3.3,6.9-3.3,10.5c0,9.1-8.8,18.9-18,19c-8.8,0.1-17.7,0-26.5-0.1c-4.7,0-7.1,2.4-7.2,7c-0.1,3.9,0,7.8,0,11.6
		c-3.4,0.5-6,0.5-8.3,1.4c-1.9,0.7-4.7,2.3-4.8,3.7c-0.4,6.4-0.1,12.8,0,19.2c4.2,0.9,8.4,2,12.7,2.7c2.6,0.4,5.3,0.1,8,0.1
		c40,0.2,80,0.3,120,0.7c81.5,0.7,163,1.6,244.5,2.4c4,0,8,0,12-0.4c5.7-0.6,8-3.1,8.2-8.7C541.2,876.4,545.6,872.3,541.4,865.2
		L541.4,865.2z"/>
	<g>
		<path d="M327.6,204.6c-2.4,2.7-4.7,5.6-7.2,8.2c-12.5,12.6-19.5,28.3-25.3,44.6c-0.8,2.3-2,4.7,1.1,6.3c-6-1-12.1-2.8-18.1-2.9
			c-7.9-0.1-15.9,1.1-23.8,1.8c-2.1,0.2-4.2,0.3-6.3,0.5c-0.3-0.5-0.7-1-1-1.5c2.5-2.1,5-4.2,7.4-6.3c4.7-4.2,9.5-8.3,14-12.7
			c3.7-3.6,7-7.7,10.5-11.6c0.4,0.3,0.9,0.7,1.3,1c-4.5,6.9-9,13.9-13.5,20.8c0.3,0.3,0.6,0.6,0.9,0.9l11.5-7.5
			c0.3,0.2,0.5,0.4,0.8,0.6c-0.9,2.2-1.7,4.4-2.6,6.6c0.3,0.2,0.6,0.4,1,0.6c4-6.1,8.1-12.1,12.5-18.8c-2,8.2-3.8,15.6-5.6,23.1
			c0.5,0.3,1,0.6,1.5,0.9c1.7-1.8,3.7-3.4,4.9-5.4c2.4-4.2,4.3-8.6,6.5-12.9C305,226.5,315,214.4,327.6,204.6L327.6,204.6z"/>
		<path d="M309.8,138.4c-0.1,14.8-5.4,29.1-11,30.7C302.4,159.2,305.9,149.3,309.8,138.4z"/>
		<path d="M257.5,62.3c1.6,3.4,3,6.6,4.6,9.9c0.5-0.8,1-1.6,1.7-2.8c7.2,6.5,20.3,1.9,23.3-8C275.1,55.8,262,56.4,257.5,62.3
			L257.5,62.3z M276.3,62.9c-2.9-0.1-4.4-0.3-6.1-0.9c-1-0.4-1.8-0.7-1.8-0.9c0.1-0.6,4.1-0.8,7.9,0c2,0.5,4.3,1.3,4.3,1.7
			C280.5,63,279.1,63,276.3,62.9L276.3,62.9z"/>
		<path d="M541.4,865.2c-2.4-4.1-5.9-6.2-7.1-6.9c-7.7-4.2-16.5-0.5-19.8-0.6c-20.5-0.5-41-1-61.4-1.3c-14.2-0.2-28.3-0.2-42.5-0.3
			c-2.6,0-5.2-0.5-7.9-0.5c-10.6-0.1-21.3,0-33.3,0c2.1-3,3.5-5.7,5.5-7.6c4-3.8,7.5-7.5,7-13.6c-0.1-1.4,0.8-3.8,1.9-4.3
			c7.1-2.8,9.5-9.5,13.2-15.1c2.4-3.5,6.8-7.5,6.3-10.7c-0.5-3.7-5.2-6.9-8.3-10.1c-5.7-5.9-5.8-6.2-0.2-12.4
			c8.4-9.3,8.9-19.9,1.5-30c-1.3-1.7-2.5-3.6-4-5.1c-7-6.7-7.8-14-4.5-23.1c8.4-23.1,6.5-45.8-4.9-67.7c-4-7.5-8.2-14.9-11.9-22.5
			c-2.8-5.8-4.6-11.9-1.3-18.2c4.1-8.1,4.6-16.6,3.3-25.4c-0.7-4.8-1.4-9.6-2.2-14.3c-0.5-3.1-0.1-5.7,2.5-8.1
			c4.3-4,6.6-9.2,6.5-15.2c-0.2-5.6-0.4-11.3-1.3-16.9c-0.7-4.6-0.1-8,3-11.8c5.9-7.3,10.1-15.4,8.9-25.6c-0.7-6.6-0.5-13.8,1.5-20
			c3.3-10.3,3.7-20.1,0.6-30.4c-0.6-2.2-0.8-5.1,0.2-7.1c2.9-5.6,2.3-11.2-0.2-16.4c-1.5-3.2-1.4-5.6-0.2-8.8
			c3-7.7,1.5-16.4-3.7-19.7c-3.9-2.5-3.7-5.2-3.4-9.2c0.5-7.7,0-15.5-0.4-23.3c-0.1-1.5-1.1-3.3-2.3-4.3c-2.6-2.1-2.2-4.1-0.6-6.5
			c1-1.5,1.8-3.2,2.6-4.8c2.8,20.5,13.1,37.6,23.5,54.8c5.1,8.4,10.2,16.7,15.3,25.1c0,0,0,0,0,0c10.8,20,15.6,27.6,17.2,29
			c0,0,0.5,0.6,1.2,1.1c4,3.3,4.1,6.1,0.5,9.8c-1.4,1.5-2.8,3-3.8,4.8c-0.9,1.5-1.5,3.3-2,5c-0.4,1.5-0.3,3.1-0.8,4.6
			c-1,3.5-2.2,6.9-3.4,10.3c-1.6,4.6-0.1,7.4,4.4,8.2c3.2,0.6,4.5-0.2,6.6-4c1.3-2.3,2.8-4.5,4.4-7.1c1.9,7.8-2.6,18.4-9,22.1
			c-4.8,2.8-5.9,8.8-2.2,12.9c0.8,0.8,2.2,1.8,3.2,1.6c8.2-1.8,15.4-4.9,19.2-13.3c2.2-5,5.2-9.6,7.7-14.5c0.9-1.8,1.5-3.8,1.7-5.8
			c0.8-10.2,1.3-20.4,1.9-30.6c0-0.8,0-2.2-0.4-4c-0.9-4.7-3.3-7.8-4-8.7c-2.2-2.9-5.1-8.7-8.6-21.3c-4.5-22.6-11.9-39.9-13.7-52.4
			c-3.4-23.3-8.8-45.8-21.5-66.1c-1.8-2.8-2.5-6.6-2.6-10c-1-17.3-2.3-34.6-6.9-51.4c-0.9-3.1-1.3-6.4-1.9-9.5
			c0.8-0.3,1.2-0.5,1.4-0.5c6.5,1.9,11.5-0.3,14.9-6c3.4-5.6,2.6-10.9-2.3-17c-1.4-1.8-2.8-3.7-4.1-5.4c8.1-9.4,6.5-16.7-4.3-21.6
			c-1.7-0.8-3.3-2.9-3.9-4.7c-0.9-2.8-0.5-5.9-1.1-8.9c-0.9-4.5-1.4-9.4-3.3-13.4c-4.9-10-14.3-11.9-24.4-12.4
			c-9.9-0.5-19.8-1.8-30.5-2.8c0.6-5.4,1.1-10,1.7-15c2.9,0.6,5,1.1,7.1,1.4c4.3,0.7,8.2-1.7,7.3-5.7c-1.8-8.2-2.2-17.5-10.6-22.6
			c-2.9-1.8-3.5-3.5-3.1-6.8c1.1-9.6,0.7-10-8.4-13.4c-0.6-0.2-1.1-0.7-1.7-1.1c0.9-3.1,1.7-6.2,2.5-9.4c8.2-2.5,10.7-2.2,11.2-1.2
			c0.5,0.9-1.1,2-0.9,3.9c0.4,3.1,5.8,5.9,10.5,5.3c3.2-0.4,5.4-2.3,6.3-3.4c7-8.1,6.3-14.6-2.6-21.6c0.5-1.4,0.9-3.1,1.7-4.5
			c3.7-6.5,2.2-12-2.5-17.3c-1.3-1.4-2.4-3.3-2.9-5.1c-5.4-20.5-27.7-23.7-40.1-13.7c-4.3-2.7-8.8-5.3-13-8.2
			c-9.5-6.4-20.1-7.7-31.1-6.8c-1.1,0.1-2.2,0.6-3.2,1.1c-2.6,1.2-5,2.9-7.7,3.7c-6.4,1.9-12.9,3.2-19.3,5.1c-1.9,0.6-3.8,2-5.1,3.5
			c-4.4,5.2-8.6,10.6-12.8,16c-0.9,1.2-1.4,2.8-1.7,4.3c-0.8,3.4-0.6,7.2-2.1,10.3c-4.1,8.3-3.1,15.3,4.6,20.5
			c5.3,3.6,7.2,8.5,8.8,14.3c3.3,11.8,7.2,23.5,11.5,35c2.3,6.2,6.8,10.6,14.1,11.1c1.1,0.1,2.8,1.9,2.9,3c0.3,4.6,0.1,9.2,0.1,14.7
			c-4-0.5-7.2-0.9-10.4-1.3c-3.1-0.4-6.2-0.8-9.3-0.9c-3.1-0.1-6.2,0.4-9.2,0.4c-5.7-0.1-11.9-1.1-16.1,3.4
			c-4.6,4.9-10.1,7.4-16.1,9.6c-14,5.1-24.7,14.1-32.9,26.4c-2.3,3.5-5.2,6.7-7.6,10.1c-0.9,1.3-2,3-1.9,4.5
			c0.8,8-4.5,12.1-9.9,16.1c-12,8.7-22.6,18.6-31.1,30.8c-0.6,0.8-1.3,1.4-1.7,1.9c-4.7-5.3-9.4-10.5-13.8-15.8
			c-4.8-5.7-9.9-11.3-14.1-17.4c-10.4-15.2-13-33.4-18.1-51.5c5.6,0.6,11.1,1.4,16.7,1.8c7.6,0.6,10.3-1.4,10.7-9
			c0.6-12.8,0.8-25.6,0.9-38.5c0-3.8,0.8-5.6,5.1-6c3.4-0.3,8.1-1.4,9.8-3.8c4.5-6.4,4.1-14.4,2.6-21.7c-1.1-4.9-6.8-3.7-10.6-5
			c-0.6-0.2-1.3-0.4-1.9-0.5c-3.1-0.7-4.4-2.6-4.3-5.7c0.1-3.3,0.4-6.7-0.1-10c-0.3-1.8-1.8-4.4-3.2-4.7c-12.1-2.5-24.2-6-36.3-6.2
			c-16.4-0.2-32.9,2.2-49.3,3.6c-8.7,0.7-8.9,1.1-8.7,9.6c0.1,7.1,0.1,7-7.2,8.1c-2,0.3-5.5,1.2-5.6,2.1C0,78.6-0.3,84.1,0.4,89.4
			c0.5,4.1,4.8,4.3,8.2,5.3c1.4,0.4,3.4,2.3,3.5,3.6c0.9,12.5,1.4,25,2,37.4c0.1,1.6-0.1,3-0.7,4.2c-0.9,1.8-2.4,2.6-3.1,3.2
			c-4.4,3.4-4.6,15.7,0.6,19.5c2.8,2.1,5.6,0.4,8.4,3.2c2,1.9,1.6,3.6,2.6,5.8c3.1,6.7,13.1,4.1,26.2,11.8c5.5,3.2,8.2,6.3,8.9,7.1
			c4.1,4.8,5.9,9.6,6.3,12.2c1.8,10.3,4.3,20.6,5.8,30.9c3,20.6,10.3,39.6,21.2,57.3c5.5,9,10.4,11.6,20.4,9.3
			c7.1-1.6,13.9-4.6,20.7-7.1c6-2.2,11.9-4.8,18.7-7.5c0.1,3,0.4,5,0.3,6.9c-0.9,31.5-1.7,63-2.6,94.4c-0.6,20.5-1.4,41-2.2,61.5
			c-0.2,5.2,0.6,10.2,4.9,13.5c3.3,2.5,3.6,5.4,3.4,9.1c-1.6,25.5-2.9,50.9-4.4,76.4c-0.3,5.5,1,9.8,5.8,12.9c4,2.6,5.6,6.3,5.5,11
			c-0.2,8.2,0.2,16.3-0.1,24.5c-0.6,16-1.7,31.9-2.4,47.9c-0.3,6.9,1.9,12.8,7.9,16.8c3.9,2.6,5.8,6.3,5.4,11.1
			c-0.8,9.9,3.8,16.9,12.2,21.7c1.4,0.8,2.8,1.9,4.2,2.7c2.9,1.5,3.8,3.7,3.5,7c-1.4,12.4-2.2,24.9-4.1,37.2
			c-1.8,11.6,1.6,19.9,12.7,24.5c3,1.2,3.8,3.4,3.2,6.4c-1.4,7.4-2,14.9-4.2,22c-2.6,8.4-2.2,15.6,4.2,22.1c2.6,2.7,1.8,5.3-0.1,8.5
			c-1.9,3.1-3.3,6.9-3.3,10.5c0,9.1-8.8,18.9-18,19c-8.8,0.1-17.7,0-26.5-0.1c-4.7,0-7.1,2.4-7.2,7c-0.1,3.9,0,7.8,0,11.6
			c-3.4,0.5-6,0.5-8.3,1.4c-1.9,0.7-4.7,2.3-4.8,3.7c-0.4,6.4-0.1,12.8,0,19.2c4.2,0.9,8.4,2,12.7,2.7c2.6,0.4,5.3,0.1,8,0.1
			c40,0.2,80,0.3,120,0.7c81.5,0.7,163,1.6,244.5,2.4c4,0,8,0,12-0.4c5.7-0.6,8-3.1,8.2-8.7C541.2,876.4,545.6,872.3,541.4,865.2
			L541.4,865.2z M368.1,818.5c1,0.3,1.7,0.7,2.2,0.9c-1.3,0.7-2.6,2-3.9,2.1c-3.3,0.3-6.8,0.8-9.8-0.1c-13.3-3.9-25.9-9.5-37.2-17.8
			c-1.5-1.1-2.7-2.8-4-4.2c4.6,2.6,17.4,9.7,29.3,15.3c5.8,2.8,7.6,3.3,10,3.4C359.1,818.4,362.8,816.7,368.1,818.5L368.1,818.5z
			 M218,773.1c-0.2-12.3-0.6-24.6-0.9-37c0-1.6,0.2-3.2,0.3-4.8c0.4-0.2,0.8-0.4,1.2-0.6c1.3,1.7,3.6,3.3,3.7,5
			c0.7,24.2,4.9,48.5-2.2,72.5c-0.9,3-2.4,5.9-4.4,8.6C219.4,802.3,218.3,787.7,218,773.1L218,773.1z M219.5,724.8
			c-5.1-4.1-7.6-9.5-7.6-16.2c0-11-0.4-22-0.4-33c0-4.9,0.7-9.7,1.1-14.8c0.7,0,1.7,0.1,3.1,0.1c-7-25-9.2-50.3-16.2-75
			c-10.4-36.3-9.8-73.8-2.9-111c0.9-5.1,1.5-10.2,2.7-15.2c0.7-2.8,2.2-5.4,3.4-8c19,6.9,36.7,36.4,35.4,58.4
			c-0.9-1.3-1.5-2.4-2.2-3.4c-0.4,0.2-0.9,0.4-1.3,0.6c2.8,6,4.8,12.6,8.5,17.9c3.1,4.4,5,8.8,5.9,14c3.2,17,6.9,33.9,9.9,51
			c4.9,28.4,9.9,56.8,14,85.3c4.6,31.5,8.4,63.1,12.6,94.6c0.2,1.6,0.2,3.2,0.4,5.9c-4.9-1.4-9.1-2.6-14-4c3.8-4.8,3-8.3,0.7-12.7
			c-1.9-3.4-1.5-8.1-2-12.2c-4-34.6-8.3-69.1-11.8-103.8c-2.5-24.2-4.6-48.5-11.7-71.9c-2.6-8.5-6.1-16.8-9.2-25.1
			c-0.5,0.2-1.1,0.4-1.6,0.6c0.8,2.4,1.8,4.8,2.5,7.3c3.4,11.3,6.7,22.7,10,34c3.6,12.3,0.8,23.8-5.3,34.6c-3.4,6.1-7.3,12-10.9,18
			c-0.9,1.5-1.6,3.1-3.1,6c4.9-2.2,8.3-3.7,12.7-5.7c1,10.5-1.7,19.7-3.1,29.2c1.5-2.6,3-5.3,4.4-8.1c0.7-1.3,1.3-2.5,1.9-3.8
			c0,0.7,0,1.5,0.1,2.3c0.1,1.4,0.3,2.7,0.6,3.8l6.9-31c5.3,41,10.7,81.9,16.2,124.2c-9.5-5.2-18.7-9.5-27.1-15
			C234.2,737.4,227,730.9,219.5,724.8L219.5,724.8z M198.6,346c-3-6.1-0.5-59.3,3-67.7C201.5,300.6,202.1,322.9,198.6,346z
			 M204.6,347.1c8.1,13.5,15.7,26.2,23.4,38.9c-0.4,0.3-0.8,0.6-1.2,1c-6.9-8.7-13.8-17.4-19.9-25.1c4.8,19.4,24.4,30.1,35.4,48.1
			c-7.7,0.3-13.8-0.9-18.6-5.9c-3.2-3.4-5.7-7.4-9.1-10.6c-4.9-4.6-10.1-9-15.6-12.9c-5.1-3.5-6.6-6-4.2-11.5
			C197.8,361.8,201.1,354.7,204.6,347.1L204.6,347.1z M270.1,447.1c0.7-0.2,1.4-0.4,2.1-0.6c8.1,21.9,16.2,43.8,24.2,65.8
			c0.4-0.2,0.8-0.3,1.2-0.5c-2.9-11.1-5.7-22.3-8.5-33.5c0.4-0.2,0.8-0.4,1.2-0.5c1.1,0.8,2.1,1.5,2.8,2c-2.1-6.8-4.2-13.8-6.3-20.8
			c0.5-0.2,1-0.5,1.4-0.7c1.5,0.8,3,1.5,4.6,2.3c0.5-1,1-2,1.6-3c0.5,0.2,0.8,0.3,1,0.5c14,18.8,27.7,37.8,41.9,56.5
			c10.6,13.9,14.8,28.7,10.3,45.9c-5.5,21.1-10.6,42.3-15.9,63.4c-0.1,0.5-0.1,0.9,0.9,2c2.3-3.5,5.6-6.7,6.6-10.6
			c5.4-18.9,10.9-37.7,15-56.9c3-14-3.6-26.5-11.1-38c-8.5-13.1-18.3-25.4-27-38.4c-5.9-8.8-11.1-18.1-16.6-27.2
			c0.5-0.4,1-0.8,1.5-1.2c2.5,2.5,5.2,4.7,7.4,7.4c6.6,7.9,13.1,16,19.7,23.9c1.2,1.4,2.7,2.6,4.1,3.9c4.7,7.8,10.3,15.2,13.9,23.4
			c9.7,21.9,13,44.3,5.9,68c-5.9,19.6-10.4,39.6-15.2,59.5c-1,4.2-3.4,5.1-6.4,3.5c-3.1-1.7-6.6-4-8.2-6.9
			c-8.3-15.3-16.8-30.7-24-46.5c-20.1-44.1-29.5-91.1-37.2-138.6c-0.6-3.6-0.1-7.5-0.1-11.2l1.5-0.4c1.6,4.7,3.6,9.4,4.8,14.2
			c5.2,21.2,9.5,42.6,15.3,63.6c4,14.3,9.8,28.2,15.9,41.9C283.4,523.3,276.8,485.2,270.1,447.1L270.1,447.1z M341.8,654.9
			c-2.6,3.8-7.1,4.4-11.2,1.8c-3.2-2.1-6.4-4.3-8.9-7.2c-12.1-13.9-18.5-30.9-25.9-47.4c1.3,1.6,3.1,3.8,5,6.7
			c1.6,2.4,2.7,4.2,3.1,5c0,0,11.3,21.9,26.1,36.4c5.2,5.1,8.2,5.1,12.6-0.8c3-4,5.3-8.4,8.9-12.1
			C348.4,643.3,345.6,649.4,341.8,654.9L341.8,654.9z M351.5,655c-1.7,5.4-3,11-5.2,16.3c-3.7,8.8-9.4,9.9-17,3.7
			c8.4,3.5,13.6,1.4,16.8-7.1C347.8,663.5,349.1,659,351.5,655z M354.4,750.9c-15.7-11.1-21.7-28.7-29.5-45.2
			C334.8,720.9,344.6,735.9,354.4,750.9z M267.8,513.3c7.8,38.3,16,76.6,24,114.9c4.7,22.5,8.6,45.2,17.6,66.6
			c2.7,6.5,5.6,12.8,8.4,19.2c7.2,16.5,18.9,28.8,34.1,38.1c4.9,3,9.4,6.8,14,10.2c-4.6-1.6-11.5-4.3-19-8.9
			c-27.8-16.6-41.6-42.1-48.6-58.6c-5.9-13.9-10.2-28.5-15.2-42.8c-11-31.7-16.7-64.7-23.1-97.5c-0.5-2.4-0.8-4.9-1.2-7.3
			c0.3-0.1,0.5-0.1,0.8-0.2c6,24.8,12.1,49.5,18.1,74.3c-12.5-65.8-25-131.7-37.5-197.5c8.5-0.5,9.9,0,11.2,6.7
			C257,458,262.1,485.7,267.8,513.3L267.8,513.3z M206.9,400.8c4.2,2.7,8.7,5,12.5,8.1c5.7,4.6,5.9,11.5,6.8,18.1
			c-0.4,0.4-0.8,0.8-1.2,1.2c-4.1-4.5-8.2-9.1-12.4-13.6c-1.8-1.9-3.9-3.7-5.9-5.4c-3-2.6-6.1-3.6-9.4,1.3c0.4-3,0.5-4.5,0.8-5.9
			C199.4,399.1,202.3,397.9,206.9,400.8L206.9,400.8z M203,396.9c0.4-1.4,1-3.2,1.9-6c3.4,3.3,6.1,5.8,8.7,8.3
			c-0.3,0.2-0.5,0.4-0.8,0.6C209.8,398.9,206.8,398,203,396.9L203,396.9z M200.4,415.6c1.2-1.1,3.9-2.3,4.8-1.7
			c9.5,6.4,20.4,11.7,23,24.6c-5.8-4.6-11.1-9.4-17-13.4c-6.3-4.3-8.1-3.6-12.7,2.7c-1,1.3-1.9,2.6-2.9,3.9
			c-0.5-0.2-1.1-0.3-1.6-0.5c1-3.4,1.8-6.9,3-10.2C197.8,418.9,198.9,416.9,200.4,415.6L200.4,415.6z M199.7,438.3
			c0.6,0.1-0.2,0-1-0.2c0-0.3-0.2-0.7-0.1-0.9c5.8-11.8,15.3-12.4,22.1-0.5c1.7,2.9,4.1,4.7,5.7,7.2c1.2,2,3.1,3.7,3.6,5.9
			c1.9,8.5,3.4,17.1,5,25.7c-0.6,0.1-1.1,0.3-1.7,0.5c-5.9-11-14.8-19.1-25.1-25.8c-7.9-5.2-8.9-4.9-11.8,3.6
			c-0.4,1.1-0.9,2.1-2.4,2.8C195.9,450.6,197.7,444.6,199.7,438.3L199.7,438.3z M230.6,434.6c-0.8-5.7-1.4-11.5-2.1-17.5
			c5.6,0.7,6.8,4.5,7.6,8.5c2.6,13.1,5.2,26.1,7.8,39.2c3.7,19,7.4,37.9,11.1,56.9c0.3,1.6,0.4,3.2,0.6,5c-9.3-3-13.3-8.6-14.4-18.4
			C238.4,483.6,234.1,459.1,230.6,434.6L230.6,434.6z M270.6,795.8c-0.9-3.3-1.4-6.8-2.1-10.2c2.1,3.4,3.7,6.2,4.6,8
			c5.6,10.5,12.6,26.6,14.9,35.2c0.2,0.6,1.1,3.2,2.7,6.4c2.6,5.2,5,6.5,12.5,7.1c-4.2,5.3-9.1,6.1-13.8,1.4
			c-3.2-3.2-6.5-7.1-7.9-11.3C277.4,820.4,274.1,808,270.6,795.8L270.6,795.8z M279.4,843.9c-4.3,0.9-6.8-1.7-8.2-5.5
			c-5.8-16.5-10.3-33.3-12.1-52.3C267.5,805.5,266.3,827,279.4,843.9z M288.6,820.6c4.8,4.1,9.1,7.8,13.7,11.6
			C295.2,831.6,292.3,826,288.6,820.6z M299.1,782.6c-1.1-7.4-2.2-14.9-3.3-22.3c4.3,10.4,8.6,20.7,12.9,31.1
			C303.3,790.5,300,787.9,299.1,782.6z M305.9,743.7c10.5,19.8,20.2,40.1,36.1,56.6C325.4,789.5,312.7,769.6,305.9,743.7z
			 M331.3,823.7c-8.3-2.9-14.9-6.5-19.9-9.8c23.3,7,32.6,10.1,36,11.4c0.5,0.2,2.2,0.9,4.6,1.6c3.4,1,6.2,1.6,8.2,2
			C353,828.7,342.8,827.7,331.3,823.7L331.3,823.7z M342.4,837.3c-5.6-2.2-10.7-5.6-16-5.8c-5.4-0.1-10.9,3-16.3,4.6
			c1.3-5.6,4.6-9.4,9.4-9.8C329,825.5,336.5,829.3,342.4,837.3z M356.7,482.1c-0.3,0.2-0.6,0.3-0.9,0.5c2.3,4.2,4.5,8.5,7.2,13.5
			c-5.2-4-9.8-7.5-14.3-11l-0.9,0.8c7.2,17,14.3,34.1,21.5,51.1c-0.3,0.1-0.5,0.1-0.8,0.2c-5.3-8.4-10.1-17.2-16-25.1
			c-6.2-8.1-13.5-15.4-20.3-23c0,0,0.1,0.1,0.1,0.1c-3.3-4.5-6.8-9-10-13.5c-4.7-6.7-9.2-13.4-13.7-20.2c-1-1.5-1.4-3.4-2.1-5.1
			c0.4-0.5,0.9-1.1,1.3-1.6c8.9,4.3,17.9,8.7,26.8,13c0.1-0.2,0.3-0.3,0.5-0.5c-4.2-3.4-8.5-6.9-12.8-10.4
			c15.4-4.2,47.1,30.5,48.6,53.4C366,496.5,361.4,489.3,356.7,482.1L356.7,482.1z M383.2,469.9c-12.9-8.6-26.2-17.4-39.3-26.4
			c-7-4.9-14.6-7-23-7.2c-10-0.3-20.1,0.2-29.9-1.4c-7.7-1.2-15.6-4-22.4-7.9c-13.3-7.6-24.2-18.3-32.2-31.5
			c-10.1-16.6-19.9-33.5-29.7-50.3c-1.2-2.1-1.9-4.6-2.1-7c-0.1-1.3,1.5-2.8,2.4-4.1c1.2,0.9,2.7,1.6,3.4,2.8
			c7.6,12.9,14.1,26.5,22.8,38.7c13.4,18.8,31.2,33.1,51.3,44.5c7.3,4.2,15.5,4.7,23.7,4.9c5.8,0.1,11.6,0.6,17.6,0.6
			c-19.8-3.4-38.4-9.4-55.4-20.5c-16.9-11-30.4-25.1-41.9-41.4c0.3-0.4,0.6-0.8,0.9-1.2c3.4,2.4,6.7,4.7,10.1,7.1
			c3.4,2.4,6.8,4.8,10.3,7c16,9.8,32,19.7,48.1,29.3c10.1,6.1,20.3,12,30.6,17.8c8.1,4.5,16.6,8.4,24.7,13
			c13.1,7.5,21.2,19.9,29.5,32C383.2,469.3,383.2,470,383.2,469.9L383.2,469.9z M220.6,329.8c10.8,5.5,22,10.2,32.7,16
			c22.2,11.9,45.7,19,70.8,21.2c12.9,1.2,25.8,2.6,38.7,4.2c5.2,0.6,8.7-1,10.9-5.7c0.5-1.2,1.3-2.2,2-3.3c0.6,0,1.1,0,1.7-0.1
			c0.3,2.1,1.5,5,0.6,6c-3.2,3.6-6.7,7.4-10.9,9.4c-4.2,2-9.3,2-14.1,3.3c3,0.4,6,0.7,9,1.1c0,0.5,0,0.9,0.1,1.4
			c-5.3,2.4-10.6,5-16.8,3c-7.4-2.4-14.7-5.4-22.1-7.8c-8.2-2.6-16.6-4.7-24.9-7c-0.1,0.4-0.3,0.9-0.4,1.3
			c14.6,4.7,29.3,9.5,44,14.2c0,0.4,0,0.8,0,1.2c-2.2,0.6-4.5,1.5-6.8,1.8c-8.9,1.3-17.8,2.5-26.7,3.6c-10,1.3-19.8-0.1-28.5-5.2
			c-16.3-9.6-32.7-19.2-48.4-29.7c-11-7.3-15.8-19-18.8-31.4c-1.4-5.9,2.5-10.2,9.5-10c-1.1,2.8-2.4,5.2-2.9,7.9
			C219,326.7,219.6,329.3,220.6,329.8L220.6,329.8z M237.9,300.5c0.3-3.8,0.6-7.6,0.9-11.4c0.4-4.5,2.7-7.3,7-8.2
			c1,1.2,2,2.3,2.9,3.4c1.1-1.2,2-2.6,3.2-3.6c1.4-1.2,2.9-2.2,5.5-4.1v9.8c0.2,0,0.3,0.1,0.5,0.1c1.1-3.2,2.1-6.4,3.2-9.6
			c0.5,0,0.9,0.1,1.4,0.1c0.4,1.1,0.9,2.2,1,2.7c1.2-1.4,2.7-3.1,4.2-4.8c0.6,0.2,1.2,0.5,1.9,0.7c-0.8,20.9-1.6,41.8-2.4,62.7
			c0.5,0,0.9,0,1.4,0.1l3.5-60.4c0.7,0,1.5,0,2.2-0.1c1,12.1,2.1,24.1,3.1,36.2c0.4,0,0.7,0,1.1,0c-0.3-6.4-0.7-12.9-0.9-19.3
			c-0.2-4-0.3-8-0.3-12c0-3.2-0.7-7.4,5-4.8c0.5,0.2,1.4-0.4,2.7-0.9c3.7,23.3,4.4,46.8,15.1,68.1c-8-21.5-10.8-43.8-12.9-66.7
			c5.4,0.6,8,2.9,9.5,7.9c3.8,12.5,8.2,24.9,12.6,37.3c0.9,2.6,2.7,4.8,4.6,7c-6.5-15.1-12-30.5-14-47c7.3,0,8.8,1.1,10.6,7.5
			c0.8,3,1.9,5.9,3.7,8.6c-0.9-4.1-1.8-8.2-2.8-12.3c0.3-0.1,0.5-0.2,0.8-0.2c4.4,9.5,8.7,19.1,13.1,28.6c-0.8-8.6-9-15.3-4.5-25.8
			c4.9,10.3,9.5,19.9,14.1,29.5c0.5-0.2,1.1-0.5,1.6-0.7c-3-7-6-13.9-9-20.9c0.6-0.3,1.2-0.6,1.7-0.9c1,1.4,2.2,2.7,3,4.2
			c6.8,11.6,13.8,23.2,20.3,35c2.5,4.6,4,9.8,5.5,14.9c1,3.2-0.3,5.6-4.2,5.5c-5.6-0.1-11.3-0.4-16.9-0.7c-3-0.2-5.9-0.6-8.9-0.5
			c9.3,3.4,19,5.1,28.9,4.6c1.7-0.1,3.4-1.2,5.1-1.7c1.9-0.5,4.5-1.7,5.5-0.9c1.4,1,2.5,4,1.9,5.6c-0.4,1.3-3.3,2.5-5.2,2.6
			c-22.1,1.5-43.9,0-65.5-5.1c-21.8-5.1-41.5-14.7-60-27.1c-3.6-2.5-8-3.8-11.8-6.2c-1.3-0.8-2.7-3.2-2.4-4.6
			c1.9-9.6,4.1-19.2,6.6-28.7c0.8-3,2.7-5.7,4.1-8.5c0.5,0.2,1,0.3,1.4,0.5v14.9C237.2,300.5,237.5,300.5,237.9,300.5L237.9,300.5z
			 M379.8,399.7c-1.5,6.7-4,11.4-8.6,14.5c-4.2,2.9-8.4,1.3-12.5-1.1c-5.8-3.5-11.8-6.5-17.1-9.4c1.5-1.1,2.9-2.9,4.5-3.1
			c3.5-0.5,7.3-0.8,10.8-0.4C364.2,401.2,371.4,404,379.8,399.7L379.8,399.7z M363.9,434.8c-3.1-0.3-6.6,0.3-9.2-1
			c-11.8-5.6-23.5-11.5-34.9-17.9c-5.2-2.9-9.6-7.2-15.3-11.5C314.5,405.2,357,426.5,363.9,434.8L363.9,434.8z M385.6,427l1,0.9
			c-2.4,2.4-4.6,5-7.3,7.1c-1,0.8-3.4,0.9-4.5,0.2c-17.1-10.3-34-20.8-51-31.3c-0.2-0.1-0.2-0.5-0.3-1c16.5,2.5,30,11.3,43.2,20.5
			c1.2,0.9,2.4,1.8,3.6,2.7C375.4,430,380.5,430.3,385.6,427L385.6,427z M441.3,520.3c-0.1-0.2-0.3-0.4-0.4-0.7
			c3.6-2.4,7.3-4.8,11-7.2C449.3,516.6,445.2,518.3,441.3,520.3L441.3,520.3z M421.6,224.1c-1.1,3.4-3.6,6.4-9.1,5.6
			c1.1-4.4,2.1-8.6,3.2-13C419.5,218.6,422.9,220.2,421.6,224.1L421.6,224.1z M418.1,196.6c1,1,0.4,3.4-0.1,5.3
			c-5.2-6-12.1-10.5-13.3-18.1C409,187.8,413.8,192,418.1,196.6L418.1,196.6z M402.2,168.1c-6.1-3.9-12.7-5.3-16.3-11.5
			C392,155.1,400.6,160.8,402.2,168.1z M385.9,169.1c7.2,5.4,10.7,13.1,12.4,21.6c2.8,13.9,3,27.8-0.5,41.6
			c-0.6,2.4-1.1,4.9-1.4,6.1c1.8,2.1,3.6,3.2,4,4.6c4.8,17,8.8,34.1,8.9,52c0,5.2,1.8,11.2,4.8,15.4c11.6,16,17.4,34,20.1,53.2
			c3.2,22.5,9.1,44.4,17.4,65.5c0.5,1.2,0.8,2.3,0.9,2.3c0,0,0,0,0,0c1,2.8,8.6,16.6,8.6,16.6c0.5,1,2,3.6,2.9,6.9
			c0.2,0.9,0.7,1.9,0.5,3.2c-0.7,5-1.5,10.1-2.2,15.1c-0.9,6.1-1.6,12.3-2.8,18.3c-0.5,2.6-2.4,4.9-3.1,7.5
			c-1.1,4.4-2.6,8.6-6.4,11.2c0,0-4.2,4.5-9.8,5.7c-0.9,0.2-3,0.7-3.6-0.3c-0.2-0.3-0.2-0.7-0.1-1c0.7-0.4,1.4-0.8,2.1-1.2
			c3.3-2.1,6.8-3.9,9.8-6.3c1.9-1.5,2.3-3.5,3-5.4c4-10.9-0.2-25.9-2.8-25.8c-1.6,0-3.3,6-5.1,12.2c-0.7,2.3-2.8,5.3-4.7,8.3
			c-0.4,0.5-2,0.9-2.5,0.6c-0.7-0.5-1.3-1.7-1.4-2.7c-0.1-0.9,0.5-1.8,0.8-2.8c0.9-3.1,2-6.1,2.7-9.2c1.2-5.5,2.5-10.7,7-14.5
			c1.2-1,2.4-2,3.4-3.2c2.1-2.4,1.8-4.8-0.6-6.8c-0.9-0.7-1.6-1.7-2.2-2.7c-1.8-3.1-3.6-6.2-5.4-9.3c-14.9-25.3-26.7-46.1-34.9-60.5
			c-3.5-6.2-8.4-15.2-12-27.8c-1.3-4.5-2.3-9.1-3-13.8c-1.3-8.2-2.9-16.3-4.6-25.6c2.7,2.2,4.5,3.6,6.2,5c0.5-0.2,0.9-0.3,1.4-0.5
			c-5.1-19.1-9.8-34-13.1-44.1c-1.6-5-4.6-20.3-10.6-50.8c-0.3-1.7-1.5-8.2,0.6-9.3c1.8-0.9,5,2.5,5.6,2c0.4-0.4-0.9-3-9.1-13.2
			c-3.7,4.6-7.1,8.7-10.5,12.9c-0.5-0.1-1.1-0.3-1.6-0.4c0-3.3-0.2-6.7,0-10c0.6-11.1,3.1-21.8,7.9-31.8c1.3-2.7,2.9-5.3,4.9-7.5
			C373,164.8,379.5,164.3,385.9,169.1L385.9,169.1z M377,158.4c-1.4,0.9-2.2,1.5-3,2c-5.6,3.4-11.5,6.6-16.8,10.5
			c-3.1,2.2-5.6,2.9-9.1,1.3c-3.1-1.4-3.9-1.7-6.8-2.8c-3.6-1.3-5.4-1.4-5.4-2c-0.1-1.3,6-1.7,6.4-4.2c0.2-1.6-1.9-2.6-1.6-3.2
			c0.8-1.5,12.6,1.3,13.2,5.8c0.1,1.2-0.5,1.8-0.2,2.2c1.2,1.1,7.9-7.8,18.1-9.3C373.9,158.2,375.7,158.3,377,158.4L377,158.4z
			 M276.2,39.6c10.5,1,21.6-1,21.8-3.3c0-0.5-0.6-0.7-1.5-1.9c-1.6-2.2-1.8-4.8-1.7-6.8l15.4,10c-0.8,0.2-2,0.5-3.5,0.6
			c-1.5,0-1.6-0.2-2.6-0.2c-2.4,0.1-3.7,0.9-6.1,3c-1,0.9-2.9,1.2-4.3,1.1c-8.6-0.9-17.1-1.9-25.7-3c-1.5-0.2-2.8-1.4-4.3-2.1
			C266.3,37.8,270.7,39.1,276.2,39.6L276.2,39.6z M264.6,33.1c4.6-0.2,6.9-1.7,8.1-3c3-3.1,2.7-7.9,5.1-8.3c0.8-0.1,1.5,0.4,2,0.7
			c2.3,1.6,3,5.5,1.7,8c-2.1,4.1-9,3.9-10.3,3.8c-2.1-0.1-4.3-0.6-4.3-0.6C266,33.6,265.2,33.3,264.6,33.1L264.6,33.1z M285.5,26
			c-0.5-1.7-1.7-2.8-2.3-3.4c0.6,0,3.3,0.1,5.4,2.1c0.3,0.3,2.4,2.4,2.2,5.3c-0.3,5.2-4.6,1.7-6.8,3.1
			C284.2,32.9,286.6,29.7,285.5,26L285.5,26z M327.9,60.1c-0.2,0.4-0.9,1.5-4.1,1.8c-5.4,0.6-11.2-1.8-14.7-3.5
			c5.9-1.5,12.5,2.6,18.1-2.3C328.2,57.9,328.3,59.2,327.9,60.1L327.9,60.1z M330.2,65.1c5.6-3.8,7-9.6,7.2-10.9
			c-0.5,9.4-5.7,15.9-11.1,16.4c-1,0.1-3.5,0.1-6.7-2.4C321.3,68.3,325.8,68.2,330.2,65.1z M314.1,51.6c5.7-4.7,6.8-4.6,10.4,1.4
			C320.7,52.5,317.7,52.1,314.1,51.6z M307.1,28.3c-1.1-2.1-1.5-4.2-1.5-5.9c1.3,0,3.3,0.1,5.4,1.1c2.9,1.4,4.4,3.7,6.7,7.4
			c0.9,1.5,2.1,3.6,3.3,6.2C319.9,36.9,310.9,35.7,307.1,28.3L307.1,28.3z M287.2,46.4c7,3.6,13.3,3,19.4-2.2
			c2.2-1.8,4.6-4.8,8.4-1.4c-14.6,11.4-24.4,11.8-33.8,1C283.7,44.9,285.5,45.5,287.2,46.4L287.2,46.4z M313.1,65
			c-2.4,0.2-9.8,0.3-16.3-4.8c-2.9-2.2-4.7-4.7-5.8-6.6C298.3,57.5,305.7,61.3,313.1,65z M313.5,71.3c-3.1,3.5-5.6,3.4-10.4-0.8
			C306.9,70.8,310.2,71.1,313.5,71.3z M310.5,78.9c1.4,0.1,1.8,1.8,3.2,2.8c1,0.7,2.9,1.3,6.5,0.2c-1.7,2.6-4.9,3.8-7.6,3
			c-3.4-1-4.4-4.5-4.5-4.7C308.7,79.6,309.5,78.8,310.5,78.9L310.5,78.9z M319.4,75.6c4.4,0.6,8.8,1.3,12.9,1.8
			C327.6,80.2,321.1,79.3,319.4,75.6z M345.4,133c-2.9-2.4-1.7-5.4-4.5-8.2c-1.7-1.8-2.9-1.3-5.2-2.7c-2.2-1.3-5-4.1-6.7-10.4
			c5.7,3.3,10.2,6.4,13.4,8.9c3.4,2.6,6.2,5,7.4,8.8c0.1,0.5,1.1,3.8-0.2,4.7C348.7,134.9,346.7,134,345.4,133L345.4,133z
			 M355.2,154.4c2.3,0.1,4.6,1.4,8.1,2.6c-3.9,2.5-6.1,5.7-9.9,3.2c-1.2-0.8-2-2.2-3-3.4C352,156,353.7,154.3,355.2,154.4
			L355.2,154.4z M356.5,109.8c2.2,2.8,2.8,6.8,1.9,7.3c-1.1,0.6-4.5-3.6-4.8-3.4c-0.2,0.2,2.5,2.8,2,3.6c-0.8,1.1-8.6-3.3-9.5-3.8
			c-6.5-3.6-6.9-5.3-6.8-6.1c0-0.2,0.2-1.2,0.7-1.3c0.4-0.1,0.9,0.5,1,0.7c1.7,2.1,10.4,6.6,10.9,6c0.4-0.6-7.3-5.5-6.5-7
			C346,104.6,353,105.4,356.5,109.8L356.5,109.8z M349.8,94.6c-0.6,3.3-3.5,3.5-6.5,3.2c-6.8-0.5-11.7-5.6-12.5-13.9
			c2.4,3,4.3,6.9,7.5,8.8C341.2,94.4,345.4,94,349.8,94.6L349.8,94.6z M357.8,38.2c-3.4-0.9-8.1-2.7-12.8-6.2
			c-2.4-1.7-4.3-3.5-5.8-5.2c1.5-0.5,3.9-1.3,6.8-1.6c5.2-0.6,15-0.2,16.4,4.2C363.3,32.7,359.3,36.8,357.8,38.2L357.8,38.2z
			 M342.4,15c12.3-1.2,20.7,9.4,21.5,10.4c-1.9-1.2-7.1-4.3-14.3-4.2c-5.7,0.1-9.9,2.2-11.9,3.4c-0.3-0.8-0.9-2.2-2.1-3.5
			c-1.2-1.3-2.4-2-3.2-2.3C334.5,17.3,337.9,15.4,342.4,15z M329,49.9c-3.3-5.1,1.3-9.7,0.6-14.3c-0.8-4.9-1.6-9.8-2.4-14.8
			C337.1,26.6,337.9,38.3,329,49.9z M324.1,20.7c3.2,4.9-1.2,9.3-0.6,13.8c-4.4-6.8-8.9-13.5-14-21.4C316.9,13.6,321,16,324.1,20.7
			L324.1,20.7z M295.8,4.5c9.3,0.8,16.3,6,16,6.6c-0.3,0.8-12.4-4-13.5-2c-0.4,0.7,0.9,1.6,0.6,2.2c-0.5,1-4.6,0.4-17.7-4.4
			C284.4,5.6,289.5,4,295.8,4.5L295.8,4.5z M285,12.4c2.4,1.1,6.7,3.6,11.9,2.6c2.1-0.4,3.7-1.3,4.8-0.4c1.4,1.1,0,3.9,0.6,7.9
			c0.4,3,1.7,5.4,2.7,6.9c-3.9-3-9.1-6.3-15.5-9.1c-12.1-5.3-23.1-6.3-30.2-6.3C273.2,9.5,280.7,10.5,285,12.4L285,12.4z
			 M249.6,25.1c6-3.7,14.3-0.5,18.6,2.5c0.8,0.6,1.4,1.1,1.8,1.4c-4.1,0.4-7.4,0.8-9.5,1.2c-1.3,0.2-2.4,0.3-3.5,0.4
			c-2.1,0.1-4.6,0.2-7.4,0c-1.2-0.1-2.7-0.2-4.4-0.5C246.7,27.2,248.5,25.7,249.6,25.1L249.6,25.1z M239.2,40
			c-0.8-0.4-1.5-1.7-1-6.2c0.7,0.1,1.8,0.3,3.1,0.2c2.7-0.2,4.5-1.2,5.5-1.7c1.9-0.8,5.1-1.1,10.3,1.4c-1.8,0-4.4,0.1-7.4,1.2
			C243.8,37,241,41,239.2,40z M268.2,118.8c-1.1-0.3-3.9-1-5.5-3.4c-0.3-0.5-0.5-1-0.5-1c-0.4-0.9-0.6-4.8-0.7-5.3
			c0.9-0.2,1.6-0.2,2-0.3c1.3-0.1,1.8,0.1,2.3-0.3c0.2-0.2,0.2-0.3,0.4-1.2c0.4-1.6,0.8-2.1,0.6-2.2c-0.2-0.2-0.7,0.8-1.9,1.1
			c-0.7,0.2-0.9-0.1-2,0.1c-0.7,0.1-0.9,0.2-1.1,0.2c0,0-0.1,0-0.3,0c-0.8,0-1.9-1.7-1.9-1.7c-0.7-1.1-1.1-1.6-1-2.1
			c0.1-0.6,0.6-0.9,0.7-0.9c0.3-0.2,0.7-0.2,1.2-0.2c0.3,0,0.8,0,1.3,0.2c0.1,0,0.3-0.1,0.5-0.2c0.2-0.1,0.3-0.2,0.4-0.2
			c1.4-0.3,2.1-0.5,2.6-0.6c1.8-0.3,2.2-1,3.1-0.7c0.2,0.1,0.6,0.3,0.8,0.1c0.1-0.1,0.1-0.4,0-0.5c-0.3-0.5-1.6-0.4-4.2,0
			c0,0-0.2,0-0.7,0.1c-1.8,0.2-2.2,0.2-2.5,0.3c-0.2,0-0.6,0.1-1.1,0.3c-0.4,0.1-1.3,0.4-2.5,0.8c-0.2-0.2-0.4-0.6-0.6-1
			c-0.5-1.1-0.6-2.8,0.1-3.2c0.3-0.2,0.5,0.1,1.6,0.1c0.5,0,0.9,0,1.2,0c0-0.2,0.1-0.4,0.1-0.7c0.3-1.5,0.2-1.7,0.3-2.1
			c0.4-1.3,1.8-2.1,2.4-2.3c1-0.5,1.3-0.3,1.7-0.7c0.8-0.8,0.6-2.2,0.4-3.4c-0.1,0.8-0.4,2.3-1.3,2.7c-0.2,0.1-0.7,0.1-1.6,0
			c-1-0.1-1.1-0.1-1.4-0.1c-1.1,0.1-1.9,1-2.1,1.2c-1.6,1.6-6.2,1.7-8-0.1c-1.7-1.7-0.2-4.3-0.6-9.9c-0.2-3.4-1-6.1-1.6-7.7
			c0.4,0.1,0.9,0.3,1.6,0.3c1.1,0,1.9-0.3,2.3-0.5c0.6,2.9,1.2,5.9,1.8,8.8c0.4-4.7,0.9-8.2,0.8-11.7c-0.1-4.4-2.2-7.7-6.8-8.7
			c-4.4-1-5.4-4.2-4.8-8c0.5-2.8,1.4-5.5,2.6-8c2.2-4.8,6.9-6.4,12-5.2c19,4.3,31.3,17,41.2,32.7c2.6,4.1,4.7,8.5,6.8,12.8
			c0.4,0.9,0.3,2.4-0.2,3.4c-2.5,4.9-4.6,10.4-8.1,14.6c0,0-10.6,11.6-23.5,14.5C273,119.1,270.7,119.4,268.2,118.8L268.2,118.8z
			 M252.5,156.4c0.6-1.9,2.6-4.1,4.5-4.9c5.6-2.2,11.5-3.8,18.1-5.9c4.2,5.9,5.2,12.7,4.7,20.8c0,0,1.1,0.5,3.6,1.8
			c-1-10.4-2-19.7-2.9-29.1c0.3-0.1,0.7-0.3,0.9-0.2c5.7,4.7,5.6,4.7,9.4-1.6c3.2-5.4,7-10.6,9.9-16.2c4.6-8.9,8.8-18.1,13.3-27.5
			c0.7,2.8,1.8,6.1,2.2,9.4c1,7.1,1.5,14.2,2.5,21.3c1.3,9.7,6.3,16.6,15.7,20.1c4,1.5,8,3.3,12.8,5.4c-4.5,3.5-8.5,6.6-11.9,9.3
			c0,1.3,0.4,2.5-0.1,3.3c-4.8,8.8-11,15.8-21.5,17.7c-16.4,2.9-32.7,4.5-48.9-0.6C257.2,177.2,250,163.9,252.5,156.4L252.5,156.4z
			 M295.6,187c-1.1,0.2-6.4,0.5-13.3,1.8c-5,0.9-9.4,0.6-13.3-1.2c-2.6-1.2-4.4-2.8-5.6-4.1c9.4,1.1,20.7,1.6,33.4,0.5
			c6.7-0.6,12.8-1.5,18.4-2.6C307.4,184.3,300.7,186,295.6,187L295.6,187z M309,185.6c-2.1,1.9-6.9,5.4-13.9,6.8
			c-8,1.7-14.5-0.3-17.2-1.3c7-0.3,14.9-1.3,23.5-3.4C304.1,187.1,306.6,186.3,309,185.6z M240.9,149.3c1.6-1.4,3.9-2,6.5-2.3
			c-11.9,15.7-16.4,33.1-15.6,52.2c1.4-16.8,6.7-32.2,15.9-47.2c-0.7,28.9,0.7,56.2,21.6,79c-2.7,3-5.7,6.2-8.6,9.5
			c-0.4,0.5-0.8,1-1.2,1.5v2.1c1-0.9,1.9-1.5,2.5-2.3c15.6-19.2,35.4-33.8,54.4-49.2c6-4.9,11.9-10,17.8-15.1
			c-10,7.2-20.1,14.1-29.9,21.6c-11.6,8.9-22.8,18.3-34.6,27.8c-8.5-8.6-13.9-19.2-15.7-31.8c3.7,5.1,7.4,10.1,11.1,15.2
			c0.7,0.9,1.3,1.9,2,2.9c4.8,6.6,5.4,6.6,10.7,0.1c-1.4-0.1-3.2,0.2-4.3-0.4c-12.2-7.7-19.5-18.8-21.9-33c-0.2-1.1,0.2-2.2,0.4-3.9
			c4.3,3.7,8.2,7.1,12,10.4c8.8,7.6,18.4,10,30.4,8.9c8-0.7,12.9-4.9,18.8-8.4c6.4-3.9,12.4-8.3,18.6-12.5c1.8-1.2,3.6-2.3,5.4-3.5
			c0.3,0.4,0.7,0.8,1,1.2l-2.1,2.7l6.9-1.9c0.1,0.5,0.3,1,0.5,1.5l-39,38.9c8.2-5.5,14.2-10.6,18.2-14.1c9.7-8.6,14.2-13.2,16.2-15
			c2-1.9,4.1-3.7,6.1-5.6c1.2-1.1,3-1.6,4.4-2.4c0.3,0.4,0.6,0.9,0.9,1.3c-2.8,4-5.6,8-8.4,11.9c1.7-1.6,3.4-3.1,5-4.7
			c0.3,0.2,0.5,0.3,0.8,0.5c-5.6,10.8-11.2,21.5-16.9,32.3c7.8-12.4,15.7-24.8,23.5-37.2c0.3,0.1,0.5,0.2,0.8,0.3
			c-1.1,3.6-2.1,7.1-3.4,10.6c-2.3,6.4-2.6,12.8-2.4,19.6c0.3,10.7-0.3,21.6-1.7,32.3c-0.9,7.4-5.5,13.2-11.5,17.7
			c-0.4-0.3-0.7-0.7-1.1-1c1.1-0.8,2.5-1.4,3.4-2.4c5.3-5.8,8.9-12.4,8.9-20.6c0-12.1,0-24.2,0-36.3c-4.4,10.8-4.6,17.4-3.7,21.5
			c0.5,2.7,0.3,5.6,0.1,11.5c-0.1,3.3-1.7,5.5-5.3,6.1c-1.4,0.2-2.9,1.4-4,2.5c-5.3,5.7-10.4,11.6-15.8,17.3c-1.9,2-4.3,3.4-7.2,4.3
			c3.2-3.7,6.5-7.4,9.8-11.1l-0.6-0.9c-1.9,0.6-3.8,1.1-6.2,1.8c0.6-1.7,1.1-3.1,1.9-5.3c-3.9,0.8-7.4,1.4-10.5,2
			c-2.8,4.1-5.9,8.5-8.9,12.9c5.8,2,11.7,3.7,17.5,5.9c7.1,2.7,14.2,5.7,21.2,8.7c1.3,0.5,2.4,1.5,3.4,2.9
			c-23.4-6.4-46.1-15.1-70.9-14.7c26,1.3,49.4,10,70.7,24.2c-0.2,0.4-0.3,0.9-0.5,1.3c-2-0.8-3.9-1.6-5.9-2.3
			c-14.6-4.7-29-9.9-43.8-13.8c-21.5-5.6-41.5-0.1-60.8,9.5c-1.5,0.7-2.9,1.6-4.4,2.5c0.1-2.7-0.1-3,11-11.4c4.3-3.3,9.7-5,14.4-8.1
			c-8.8,3.1-17.6,6.2-26.3,9.4c-0.2-0.3-0.5-0.6-0.7-1c4.1-2.5,8.6-4.8,12.3-7.7c4.1-3.2,7.6-7.1,11.2-10.8
			c3.6-3.7,6.9-7.6,11.1-12.1c-6.3-4.3-12-8.3-17.7-12.2c-0.3,0.4-0.6,0.8-0.9,1.2c4.5,4.1,8.9,8.2,13.4,12.4
			c-0.2,0.3-0.4,0.7-0.7,1c-4.9-2.8-9.7-5.6-14.9-8.5c0.6,3.1,3.8,6.8,9.5,11.2c-0.2,0.4-0.4,0.8-0.5,1.2
			c-7.1-3.5-14.2-7.1-21.5-10.7c0.7,5.5,1.1,5.8,16.4,16.1c-5.3,0.1-18.7-8.6-27.4-18c0.6,2.7,1,4.8,1.6,6.8c0.7,2,1.7,3.9,2.5,5.8
			c-6.9-6.2-9.5-19.7-5-30.2c5.4-12.5,11.4-24.7,16.6-37.3c-2.6,4.4-5.2,8.7-7.8,13.1C223.9,179.8,226.6,161.9,240.9,149.3
			L240.9,149.3z M236.1,147.4c-5.4,10.5-11.1,21.4-16.3,31.5C217.6,170.1,229.4,147.5,236.1,147.4z M190.9,183.4
			c-2.6-1.9-2.9-4-0.7-6.6c8.8-10.1,19-17.9,32.5-20.1c-2.5,13.1-5.1,26.1-7.6,39.3c-3.1-6.2-6.2-12.4-9.3-18.5
			c0.1,3.2,0.8,5.7,1.4,7.4c1.4,3.9,4.4,11.9,5.2,14.3c0.2,0.7-1.5,2.1-2.3,3.1c-0.9-0.6-1.9-1.1-2.9-1.7
			c-7.9-4.4-15.9-8.8-23.8-13.2C184.8,182.7,187.1,181.5,190.9,183.4L190.9,183.4z M181.3,190.5c10.9,4.2,20.9,10,28.9,18.9
			c0.4,0.5,0.5,1.4,0.9,2.8c-12.4-4.4-19.8-16.6-33.6-17.1C178,192.3,177.8,189.1,181.3,190.5L181.3,190.5z M59.1,54.8
			c5.4-0.7,10.8-1.3,16.9-2.1v13.1c-7.2,0.7-14.2,1.5-21.3,1.8c-1.1,0.1-3.1-1.7-3.3-2.8C50.2,57.1,51.3,55.9,59.1,54.8z M28.7,57.9
			c6.1-0.6,12.2-1.1,19.1-1.7c0,3.6,0.2,6.5-0.1,9.4c-0.1,1-1.3,2.5-2.1,2.6c-8.5,1-17.1,1.8-25.3,2.6c-0.1,0-0.3,0.1-0.5-0.1
			c-0.5-0.3-0.4-1.2-0.4-1.5C19.7,65.7,17.3,59,28.7,57.9L28.7,57.9z M10,88.3c-3.6,0.4-5.4-1-5.1-4.7c0.2-3.1-1.8-7.3,4.1-7.7
			c13.3-1.1,26.5-2.4,39.8-3.7c6.8-0.7,13.6-1.5,20.4-2.1c1.8-0.2,3.6,0,5.5,0v12.5c-16.9,1.6-33.3,3.1-49.7,4.5
			C19.9,87.5,15,87.8,10,88.3L10,88.3z M74.4,117.7c-6.3,0.4-12.4,0.9-18.9,1.4v-23c5.4-0.5,10.5-1.2,15.6-1.3c1.1,0,3.1,1.9,3.1,3
			C74.6,104.2,74.4,110.7,74.4,117.7L74.4,117.7z M51.1,117.1c0,0.9-1.9,2.3-3,2.4c-9.6,1.1-19.2,1.9-30.3,2.9
			c0-7.2-0.1-13.8,0.1-20.3c0-1,1.8-2.5,2.9-2.7c10-1.4,20-2.6,30.4-3.8C51.2,103.3,51.3,110.2,51.1,117.1z M18.3,154.3
			c0,3.8,0.6,5.7-0.2,6.2c-1.3,0.7-5.1-2.2-6.3-6.1c-0.3-1.1-1.4-4.4,0.7-6.9c1.3-1.5,3.6-2.2,6.9-1.9
			C18.9,147.6,18.3,150.6,18.3,154.3z M28.4,170.1c-0.1,0.2-0.8,1-1.7,0.9c-0.6-0.1-1.1-0.5-2.5-2.9c-0.9-1.5-1.4-2.3-1.7-3
			c-1.7-3.9,0-8.6,2.1-20c0.2-1.3,0.5-2.8,1.2-2.9c1-0.1,2.5,2.8,2.5,4.7c0,0.1,0,0.5,0,1c0,1.2,0.1,2.1,0.1,2.3
			c0.1,1.9-0.7,4.4-0.8,6.8c-0.1,1.2,0.1,0.6,1,6.7C29.3,167.2,29.4,168.9,28.4,170.1L28.4,170.1z M40.5,172.8
			c0.2,0.4,0.8,2,0.1,3.1c-0.3,0.6-1,1-1.6,1.1c-1.8,0.3-3.9-2.3-4.8-4.4c-1.2-2.7-0.2-4.2,0.2-9.3c0.5-5.8-0.1-11.5,1.2-15.9
			c0.2-0.8,0.8-2.4,2.2-3.4c0.6-0.4,1.4-0.9,2-0.8c1.3,0.4,1.4,3.7,0.8,18.8C40.3,171.5,40.2,171.8,40.5,172.8L40.5,172.8z
			 M43,141.2c-2.7-0.4-2.9-1.2-4.4-0.9c-3.1,0.7-3.7,4.4-5.8,4.3c-1.2-0.1-1.1-1.3-3.7-3.2c-1.7-1.2-3-2.2-4.6-1.9
			c-1.5,0.3-2.1,1.5-3.5,1.3c-0.7-0.1-1.2-0.5-1.4-0.7c-1.1-1-1.3-2.6-1.4-4.1c-0.3-9.3-0.4-9.1,8.7-9.9c13.8-1.2,27.5-2.7,41.2-4
			c1.4-0.1,2.9,0,4.7,0v27.2c-4.2,0.3-8.2,0.9-12.2,0.6c-1.6-0.1-3.5-2-4.5-3.6c-2.1-3.1-3.6-4.7-5.5-5.4
			C48.2,139.7,47.2,141.8,43,141.2L43,141.2z M51.3,178.3c-3.1,0-5.3-0.7-5.4-4.3c-0.2-6.3-0.2-12.7-0.6-19c-0.2-3.9-0.8-7,1.1-9.5
			c0.2-0.3,1.3-1.7,2.4-1.5c1,0.2,1.6,1.8,2,3c0,0.1,0.2,0.6,0.3,1c0.8,3.1,0.4,12.4,2.3,19.8c0.7,2.7,1.2,3.2,1.6,3.4
			c2.8,1.4,6.3-6.1,12.3-6.2c5.2-0.1,9.2,5.3,10.4,8.4c0.3,0.9,1,2.6,0.2,3.7c-0.5,0.7-1.5,1.1-3.3,1.1
			C67,178.2,59.2,178.2,51.3,178.3L51.3,178.3z M125.1,285.6c-8.2,5.9-21.8,3.9-28.5-3.4c-14.9-16.5-19.8-36.9-23.2-58
			c-1.1-6.5-2.3-13-3.7-20.7c5.3,2.7,9.5,4.6,13.4,7c14.1,8.7,27,19,36.8,32.5c4.8,6.7,7.6,14.3,5.4,23.1c0.6,0,1.1,0.1,1.7,0.1
			c0.6-3.3,1.2-6.6,1.9-9.8c0.6-2.5,0.9-5.3,2.3-7.3c9.5-12.7,19.8-24.6,32.7-34.1c4.6-3.4,8.5-8,12.4-12.2c2.7-3,5.4-3.7,8.7-1.3
			c4.7,3.4,9.4,6.9,14,10.4c2.9,2.1,1.4,4.5,0,6.6c-9.6,15.1-20.7,29-35.5,39.5C150.7,267,137.9,276.3,125.1,285.6L125.1,285.6z
			 M189.1,288.3v221.5c-3.1-2.4-6.7-4.8-10-7.7c-0.9-0.8-1.1-2.7-1-4.1c0.4-23,0.7-46,1.6-68.9c1.2-33.3,2.8-66.6,4.5-99.8
			c0.6-12.3,2.2-24.5,3.4-36.8c0.1-1.4,0.5-2.9,0.8-4.3C188.6,288.2,188.9,288.2,189.1,288.3L189.1,288.3z M152.3,445.8
			c0.7-22.3,1.6-44.6,2.4-66.9c0.3-9.8,0.5-19.7,0.8-29.5c0.1-3.5,0.5-7,0.8-10.4c0.6-0.2,1.2-0.4,1.8-0.6c1.1,2.2,2.8,4.2,3.3,6.6
			c0.7,3.4,0.9,7,0.7,10.4c-1.9,30.4-3.9,60.8-6,91.2c-0.1,1.2-1.2,2.4-1.8,3.5C153.6,448.6,152.3,447.2,152.3,445.8L152.3,445.8z
			 M154.3,545.6c0.5-8.9,0.9-16.3,1.4-23.7c4-53.6,8.1-107.2,12-160.9c1.2-16.6,1.7-33.3,2.5-49.9c0.3-6.9,2.3-9,10.6-9.8
			c-1.9,61.5-3.7,122.8-5.6,185.7c-4.8-4.4-8.5-7.7-12.3-11.1c-0.5,0.3-1,0.6-1.4,1c2.5,4.3,4.2,9.5,7.6,12.9
			c8.3,8.3,9.2,18.4,9.1,29c0,2-0.6,4.6-1.9,5.9C169.6,531.5,162.5,538,154.3,545.6L154.3,545.6z M181.4,679.6
			c-0.6,0.2-1.1,0.5-1.7,0.7c-1.1-1.3-3.1-2.6-3.2-4c-1.2-12.1-1.9-24.2,3.5-35.7c0.3-0.6,0.7-1.1,1.4-2.2L181.4,679.6L181.4,679.6z
			 M180,619c-5.2,6.4-10.7,12.6-16.1,18.8c-0.3-0.1-0.6-0.2-1-0.3c1.2-14,2.3-28,3.5-42.1c0.5-0.1,1.1-0.2,1.6-0.4
			c5.2,5.9,10.1,12,13.1,19.4C181.7,615.7,181,617.9,180,619L180,619z M185,603.3c-6.3-7.7-11.8-14.2-17.1-20.9
			c-0.6-0.7-0.7-1.9-0.6-2.8c1.2-11,1.3-22.4,4.2-33c1.9-6.8,8-12.4,12.2-18.5c0.4,0.3,0.9,0.6,1.3,0.9V603.3L185,603.3z
			 M186.7,678.7c1.8-16.2,2.8-32.5,4.6-48.7c0.9-8.2,2.8-16.3,4.5-24.4c3.8,27.9,2.5,55.7-2.1,83.9
			C187.8,687.3,186.1,684.2,186.7,678.7L186.7,678.7z M203.1,753.2c-0.6,0-1.2,0-1.7,0c-3.8-8.2,0-16.3,1.7-24.4V753.2z
			 M193.6,749.2c-2.4-6.2,6.2-79.9,10.4-92.8C201.2,687,202.6,718.2,193.6,749.2L193.6,749.2z M202.7,796.1
			c5-18.4,7.5-37.1,8.4-56.2c0.2-5.5,0.5-10.9,0.8-16.4l1.7-0.3c0.6,3.2,1.8,6.4,1.7,9.5c-0.3,15.5-0.5,31-1.6,46.4
			c-0.7,9.7-3,19.3-4.6,29C202.2,806.2,200.7,803.7,202.7,796.1L202.7,796.1z M210.7,825.4c6.4-3.3,10.6-8.2,12.8-15.1
			c3.7-11.8,3.9-23.9,3.2-36.1c-0.6-12-1.2-23.9-1.2-36.2c5.7,4.5,12.7,7.4,12.6,16.6c-0.1,7.4,1,14.9,1.6,22.3v-24.8
			c5.4,1.2,10.8,6.9,11.5,12.5c2,15.9,3.4,31.8,5.9,47.6c1.2,7.5,4.2,14.7,6.1,22.1c0.5,1.9,0,4,0,6c-2-0.6-4.1-1.1-6-1.9
			c-1.1-0.5-2.1-1.6-3-2.6c-2.2-2.6-4.7-3.1-7.4-1.2c-2.4,1.6-4.6,2.3-6.8,2.4c-0.8,0-2,0-9.6-4.2c-4-2.2-5.9-3.5-6.2-3.1
			c-0.2,0.3,0.9,1.7,2.2,2.7c1.8,1.5,3.3,1.6,3.4,2.6c0.1,0.5-0.2,1.2-0.6,1.4c-0.4,0.2-0.7,0-0.8-0.1c-0.9-0.4-10-2.3-24.8-5.3
			C205.3,829.6,207.3,827.1,210.7,825.4L210.7,825.4z M203.8,843.8c6.6-8.7,10.9-9.2,19.3-1.9c3.4,2.9,6.5,6.2,9.2,9.8
			c2.5,3.2,1.6,5.5-2.2,8c-5.3,3.4-10.3,7.7-14.8,12.2c-5.2,5.3-11,9.1-18.5,9.7c-1.2,0.1-4.5,0.9-6.5-0.7c-0.4-0.3-0.7-0.7-1.4-1.2
			c-1.4-0.9-2-0.7-3.3-1.5c-1-0.6-0.8-0.8-1.9-1.5c-1.3-0.7-1.8-0.6-2-1.1c-0.5-1.1,1.5-2.8,1.2-3.1c-0.1-0.2-0.8,0.3-1.6,0.7
			c-1.9,1.1-3.3,1.9-4.1,1.5c-1-0.5-1-3,0-4.9c0.9-1.7,2.4-2.5,2.8-2.8C189.3,860.8,197,852.8,203.8,843.8L203.8,843.8z
			 M152.4,893.6c-1.7,0-3.3,0-5-0.2c-2.7-0.4-7.3-0.5-7.6-1.6c-1-3.7-0.5-7.8-0.3-11.8c0-0.7,1.6-1.8,2.5-1.8
			c7.6-0.2,15.2-0.1,22.9-0.1c0.2,0.9,0.4,1.5,0.4,2.2C165.2,896.6,167.9,893.7,152.4,893.6L152.4,893.6z M154.4,872.7
			c-2.3-13.8-1.6-14.7,10.6-14.6c4.3,0,8.7,0,13,0.2c1.3,0.1,2.6,1,3.9,1.5c-0.7,1.2-1.2,2.6-2.2,3.6c-2.4,2.5-5,5-7.6,7.3
			c-1,0.9-2.4,1.8-3.6,1.9C163.8,872.8,159.1,872.7,154.4,872.7L154.4,872.7z M211,894.2c-11.5-0.1-23-0.2-34.5-0.3
			c-1.9,0-3.9-0.2-6-0.3v-15.4c15.4,11.1,31.8,8.2,48.4,5.9C219.8,893.6,219.3,894.2,211,894.2L211,894.2z M261.2,894
			c-11.6,0-23.2,0.1-34.8-0.2c-0.9,0-2.5-2.1-2.5-3.3c-0.1-4.1,0.2-8.3,0.8-12.4c0.2-1.3,1.9-3.5,2.8-3.5c5.3,0.2,11.6-0.5,15.8,1.9
			c7,4.1,12.6,10.4,18.9,15.8C261.8,892.9,261.5,893.5,261.2,894L261.2,894z M316.8,895c-13.3,0-26.7-0.1-40-0.8
			c-3.6-0.2-7.6-1.6-10.6-3.7c-6.6-4.7-12.6-10.3-18.3-15c20.3,0,40.9,0,61.5,0c5,0,10,0.5,15,0.3c4.3-0.2,5.6,1.8,5.5,5.6
			C329.7,898.5,331.8,895,316.8,895L316.8,895z M333.4,871.1c-2.2,0.1-2.2,0.6-4.6,0.8c-2.1,0.2-3.8,0-5-0.2c-3,1.3-4.5,1-5.2,0.5
			c-1-0.8-1.1-2.4-1.8-2.4c-0.6,0-0.7,1.2-1.8,2c-1.2,0.8-2.7,0.6-3.2,0.5c-2.3-0.5-3.2-2.7-3.4-3.1c-0.5-0.6-0.6-1.6-0.5-2.4
			c0.9-6.7,1.6-13.5,2.9-20.1c0.9-4.6,3.9-7.6,7.6-8.5c3.9-0.9,7.5,1.4,9.1,2.5c6.2,4.2,6.5,9.8,12.4,17.1c1.4,1.8,2.6,3.8,4.2,5.4
			c1.4,1.4,2.5,2.1,2.4,3.3c-0.1,1.2-1.4,2.4-2.6,2.8c-1,0.3-1.4,0-2.7,0.4c-1,0.3-1.3,0.7-2,1.1
			C337.6,871.8,336.6,870.9,333.4,871.1L333.4,871.1z M368.1,895.1c-9.8-0.3-19.6-0.6-29.4-0.8c-2.7,0-4-1.2-4-3.8c0-2-0.1-4-0.1-6
			c0.1-6.1,1.2-7.4,7.2-7.5c10.1-0.1,20.1,0,30.3,0c0,4.7,0,9.6,0,14.6C372.2,894.4,370.8,895.2,368.1,895.1L368.1,895.1z
			 M415.8,897.2c-3.3-1.6-6-2.4-8-4c-6.7-5.3-13.3-10.6-19.5-16.3c-4.6-4.2-9.4-6.4-15.7-6c-4.9,0.4-9.9,0.1-14.9,0.1
			c-0.3-2.3-0.5-3.6-0.7-4.9c-0.5-4,0.7-6,5.4-6c17.8,0.2,35.6,0.1,53.4,0.1L415.8,897.2L415.8,897.2z M485.8,894.1
			c0,1-2.3,2.8-3.5,2.8c-19.3-0.1-38.6-0.4-57.9-0.6c-2.9,0-4.3-1.1-4.3-4.1c-0.2-8.2-0.5-16.3-0.6-24.5c-0.1-4,2-6.2,6.1-6.2
			c19.8,0.3,39.6,0.5,59.4,0.8c0.3,0,0.6,0.3,1.1,0.5C485.9,873.2,486,883.6,485.8,894.1L485.8,894.1z"/>
	</g>
</g>
</svg>
