<?xml version="1.0" encoding="UTF-8"?>
<svg id="Layer_1" data-name="Layer 1" xmlns="http://www.w3.org/2000/svg" viewBox="0 0 586.93 936.58">
  <defs>
    <style>
      .cls-1 {
        fill: #000;
      }

      .cls-1, .cls-2 {
        stroke-width: 0px;
      }

      .cls-2 {
        fill: #fff;
      }
    </style>
  </defs>
  <path class="cls-2" d="M585.76,265.67c-2.27-2.42-5.26-4.18-7.4-6.69-1.92-2.25-3.13-5.11-5.09-8.45-9.93,1-26.19,4.19-34.06,15.38-.88,1.26-4.42,6.3-4.7,9.69-.15-.09-.3-.18-.45-.26-8.18-4.41-16.23-9.28-24.86-12.58-8.18-3.13-16.69-2.63-24.08,3.45-3.05,2.51-6.47,4.58-10.36,7.29-4.07-11.84-9.49-22.96-8.22-35.45,1.47-14.49-.89-28.24-6.39-41.53-3.25-7.87-8.22-14.46-15.83-18.74-.84-.47-2.12-1.06-2.25-1.77-1.79-9.96-9.42-10.83-17.35-11.49-1.47-.12-2.86-1.18-4.3-1.77-2.64-1.07-5.3-3.02-7.95-3-7.84.04-15.37.1-21.88-5.44-3.54-3.01-4.03-4.87-.58-7.92,10.43-9.22,8.97-19.61-3.57-25.49-.15-.07-.35-.1-.44-.22-1.61-1.99-3.95-3.8-4.5-6.06-.28-1.15,2.41-3.44,4.16-4.6,4.46-2.96,8.44-5.95,8.06-12.17-.07-1.15,1.22-2.62,2.24-3.56,8.68-8.01,10.41-16.55,5.38-27.01-.34-.7-.23-1.61-.52-2.33-1.14-2.8-2.33-5.59-3.58-8.35-.66-1.46-1.78-2.78-2.17-4.3-3.15-12.39-8.7-14.57-18.3-12.06-5.63-20.33-19.81-32.62-39.32-38.11-20.17-5.68-38.02.4-53.16,14.76-3.68-4.22-7.83-3.88-12.62-1.74-4.76,2.13-3.21,5.75-3.31,9.31-.06,2.12-1.36,4.2-2.14,6.29-2.68,7.2-5.39,14.39-8.05,21.6-.16.42.12.98.1,1.48-.11,2.53.34,5.3-.53,7.54-1.68,4.34-.83,7.62,2.21,10.93,4.28,4.67,8.48,9.43,12.33,14.45,1.98,2.59,3.22,5.77,4.62,8.77,3.01,6.45,5.33,13.31,9,19.34,4.83,7.94,10.55,15.38,16.24,22.76,1.35,1.75,4.02,2.65,6.26,3.46,1.6.58,3.49.38,5.16.52.61,8.77-.29,10.12-7.69,12.68-3.62,1.25-7.14,2.8-10.79,3.95-1.45.45-3.64.86-4.61.12-5.45-4.12-11.57-.86-17.26-1.85-1.11-.19-2.64,1.19-3.79,2.09-5.41,4.23-10.8,8.26-17.02,11.54-5.76,3.03-11.19,8.17-14.7,13.69-9.42,14.84-12.65,31.49-9.69,48.89,1.02,6-.21,10.93-2.41,16.33-4.08,9.99-7.62,20.22-10.95,30.49-1.19,3.67-1.12,7.75-1.48,10.53-9.62,1.66-18.42,3.21-27.24,4.69-1.63.27-3.36.62-4.94.33-12.65-2.34-24.76-6.32-37.11-12.5,9.21-2.38,17.6-4.55,26.51-6.85-1.12-1.91-1.48-3.15-2.3-3.81-5.91-4.75-8.62-11.65-12.42-17.86-15.66-25.58-35.98-47.05-59.53-65.43-3.26-2.54-8.35-4.25-12.41-3.95-13.56,1.01-24.92,6.83-32.83,18.37-1.01,1.47-2.03,2.93-3.25,4.69-3.51-16.01-18.38-18.26-28.57-10.72-2.8,2.07-5.75,3.97-8.73,5.77-1.37.83-3,1.25-4.52,1.81-1.92.7-3.86,1.36-5.8,2.04,1.21,1.81,2.06,4.12,3.7,5.37,19.51,14.77,39.17,29.34,58.69,44.1,1.72,1.3,3.84,3.56,3.84,5.37,0,7.77,4.03,13.7,7.39,20.2,4.35,8.42,10.68,13.84,19.44,16.82,3.94,1.34,7.89,2.67,11.83,4.01,9.4,3.2,19.16,5.65,28.11,9.83,8.69,4.06,16.45,10.08,24.83,14.88,4.21,2.41,5.37,5.02,4.64,10.03-3.06,20.95-3.94,41.82,5.24,61.83,1.22,2.65,2.35,5.99,1.83,8.67-1.81,9.3,2.54,15.56,8.66,21.58,1.57,1.54,2.36,4.59,2.32,6.92-.38,21.48-1.3,42.96-1.49,64.44-.09,10.58,4.02,15.26,14.36,18.14,3.32.93,4.1,2.61,3.67,5.75-.96,7.1-1.34,14.29-2.57,21.33-2.13,12.17,1.39,21.86,10.96,29.75,1.94,1.6,3.22,5.06,3.27,7.69.14,7.31-.28,14.66-.92,21.96-.77,8.83,2.7,15.92,8.31,22.24,1.98,2.23,4.09,4.49,6.53,6.16,4.17,2.86,4.93,6.61,4.39,11.28-.96,8.27-1.65,16.57-2.31,24.88-.42,5.32,1.6,9.75,6.5,11.92,5.07,2.25,5.48,5.2,3.47,9.88-5.99,13.91-8.88,28.59-10.01,43.64-.66,8.8-.58,17.7-1.86,26.4-3.07,20.76-6.68,41.44-10.25,62.12-.61,3.55-1.51,7.31-3.32,10.35-5.43,9.13-10.54,18.59-19.86,24.67-3.33,2.17-4.25,5.32-2.85,9.17,1.24,3.4.16,6.17-1.81,9.27-1.59,2.49-2.73,6.5-1.83,9.06,1.45,4.17,4.13,8.34,7.37,11.34,5.11,4.73,11.84,5.57,18.74,5.23,5.55-.27,11.11-.06,17.4-.06-.89,1.48-1.09,2.17-1.55,2.54-3.27,2.57-6.36,5.47-9.94,7.53-8.34,4.78-5.29,17.79,2.22,19.57,6.7,1.59,13.64,2.19,20.49,3.1,1.95.26,4.03-.26,5.92.17,11.64,2.65,21.96-.99,28.29-10.73,2.01-3.09,4.06-3.68,7.41-3.09,10.39,1.82,20.84,2.69,31.26.15,7.04-1.71,8.51-1.14,12.16,5.12,4.53,7.76,9.32,9.95,18.29,8.67,4.76-.68,9.59-.9,14.35-1.6,4.42-.66,9.13-.93,13.11-2.72,6.96-3.15,10.27-9.21,9.74-16.93,1.02-.33,1.63-.6,2.28-.72,8.13-1.46,17.31-.06,22.95-8.38.15-.22.62-.2.93-.33,15.02-6.04,17.65-10.57,16.39-26.47-1.03-12.95-2.05-25.92-2.21-38.9-.32-26.82-.02-53.65-.06-80.47,0-3.31,1.13-5.09,4.15-6.98,2.94-1.84,5.56-5.39,6.62-8.73,1.48-4.66,3.56-8.35,7.31-11.48,6.96-5.82,10.34-13.47,9.46-22.56-.4-4.09-1.6-8.13-2.72-12.11-2.17-7.7-3.34-14.97,4.16-20.89,1.49-1.17,2.36-4.11,2.24-6.15-.34-5.63-1.6-11.21-1.97-16.84-.13-2,.69-4.61,2.03-6.07,8.43-9.2,17.27-18.03,25.7-27.22,8.02-8.75,10.17-19.51,10.06-31.06-.04-4.37.03-9.18,1.74-13.04,5.57-12.53,7.34-25.52,6.8-39.02-.59-14.82-1.18-29.64-1.58-44.46-.06-2.17.21-5.2,1.58-6.41,7.45-6.57,8.28-14.83,8.08-24.06-.65-30.65-.75-61.31-1.1-91.97-.03-2.77-.22-5.23,3.62-5.83,12.84-2,20.22-10.38,23.87-22.11,1.8-5.81,2.19-12.07,3.11-18.14,1.08-7.16,2.79-13.53,9.67-18,7.78-5.06,14.79-11.31,22.03-17.18,6.85-5.56,13.63-11.21,20.29-17,1.78-1.55,5.17-3.18,2.2-6.34Z"/>
  <g>
    <g>
      <path class="cls-1" d="M585.76,265.67c-2.27-2.42-5.26-4.18-7.4-6.69-1.92-2.25-3.13-5.11-5.09-8.45-9.93,1-26.19,4.19-34.06,15.38-.88,1.26-4.42,6.3-4.7,9.69-.15-.09-.3-.18-.45-.26-8.18-4.41-16.23-9.28-24.86-12.58-8.18-3.13-16.69-2.63-24.08,3.45-3.05,2.51-6.47,4.58-10.36,7.29-4.07-11.84-9.49-22.96-8.22-35.45,1.47-14.49-.89-28.24-6.39-41.53-3.25-7.87-8.22-14.46-15.83-18.74-.84-.47-2.12-1.06-2.25-1.77-1.79-9.96-9.42-10.83-17.35-11.49-1.47-.12-2.86-1.18-4.3-1.77-2.64-1.07-5.3-3.02-7.95-3-7.84.04-15.37.1-21.88-5.44-3.54-3.01-4.03-4.87-.58-7.92,10.43-9.22,8.97-19.61-3.57-25.49-.15-.07-.35-.1-.44-.22-1.61-1.99-3.95-3.8-4.5-6.06-.28-1.15,2.41-3.44,4.16-4.6,4.46-2.96,8.44-5.95,8.06-12.17-.07-1.15,1.22-2.62,2.24-3.56,8.68-8.01,10.41-16.55,5.38-27.01-.34-.7-.23-1.61-.52-2.33-1.14-2.8-2.33-5.59-3.58-8.35-.66-1.46-1.78-2.78-2.17-4.3-3.15-12.39-8.7-14.57-18.3-12.06-5.63-20.33-19.81-32.62-39.32-38.11-20.17-5.68-38.02.4-53.16,14.76-3.68-4.22-7.83-3.88-12.62-1.74-4.76,2.13-3.21,5.75-3.31,9.31-.06,2.12-1.36,4.2-2.14,6.29-2.68,7.2-5.39,14.39-8.05,21.6-.16.42.12.98.1,1.48-.11,2.53.34,5.3-.53,7.54-1.68,4.34-.83,7.62,2.21,10.93,4.28,4.67,8.48,9.43,12.33,14.45,1.98,2.59,3.22,5.77,4.62,8.77,3.01,6.45,5.33,13.31,9,19.34,4.83,7.94,10.55,15.38,16.24,22.76,1.35,1.75,4.02,2.65,6.26,3.46,1.6.58,3.49.38,5.16.52.61,8.77-.29,10.12-7.69,12.68-3.62,1.25-7.14,2.8-10.79,3.95-1.45.45-3.64.86-4.61.12-5.45-4.12-11.57-.86-17.26-1.85-1.11-.19-2.64,1.19-3.79,2.09-5.41,4.23-10.8,8.26-17.02,11.54-5.76,3.03-11.19,8.17-14.7,13.69-9.42,14.84-12.65,31.49-9.69,48.89,1.02,6-.21,10.93-2.41,16.33-4.08,9.99-7.62,20.22-10.95,30.49-1.19,3.67-1.12,7.75-1.48,10.53-9.62,1.66-18.42,3.21-27.24,4.69-1.63.27-3.36.62-4.94.33-12.65-2.34-24.76-6.32-37.11-12.5,9.21-2.38,17.6-4.55,26.51-6.85-1.12-1.91-1.48-3.15-2.3-3.81-5.91-4.75-8.62-11.65-12.42-17.86-15.66-25.58-35.98-47.05-59.53-65.43-3.26-2.54-8.35-4.25-12.41-3.95-13.56,1.01-24.92,6.83-32.83,18.37-1.01,1.47-2.03,2.93-3.25,4.69-3.51-16.01-18.38-18.26-28.57-10.72-2.8,2.07-5.75,3.97-8.73,5.77-1.37.83-3,1.25-4.52,1.81C3.87,205.27,1.93,205.92,0,206.6c1.21,1.81,2.06,4.12,3.7,5.37,19.51,14.77,39.17,29.34,58.69,44.1,1.72,1.3,3.84,3.56,3.84,5.37,0,7.77,4.03,13.7,7.39,20.2,4.35,8.42,10.68,13.84,19.44,16.82,3.94,1.34,7.89,2.67,11.83,4.01,9.4,3.2,19.16,5.65,28.11,9.83,8.69,4.06,16.45,10.08,24.83,14.88,4.21,2.41,5.37,5.02,4.64,10.03-3.06,20.95-3.94,41.82,5.24,61.83,1.22,2.65,2.35,5.99,1.83,8.67-1.81,9.3,2.54,15.56,8.66,21.58,1.57,1.54,2.36,4.59,2.32,6.92-.38,21.48-1.3,42.96-1.49,64.44-.09,10.58,4.02,15.26,14.36,18.14,3.32.93,4.1,2.61,3.67,5.75-.96,7.1-1.34,14.29-2.57,21.33-2.13,12.17,1.39,21.86,10.96,29.75,1.94,1.6,3.22,5.06,3.27,7.69.14,7.31-.28,14.66-.92,21.96-.77,8.83,2.7,15.92,8.31,22.24,1.98,2.23,4.09,4.49,6.53,6.16,4.17,2.86,4.93,6.61,4.39,11.28-.96,8.27-1.65,16.57-2.31,24.88-.42,5.32,1.6,9.75,6.5,11.92,5.07,2.25,5.48,5.2,3.47,9.88-5.99,13.91-8.88,28.59-10.01,43.64-.66,8.8-.58,17.7-1.86,26.4-3.07,20.76-6.68,41.44-10.25,62.12-.61,3.55-1.51,7.31-3.32,10.35-5.43,9.13-10.54,18.59-19.86,24.67-3.33,2.17-4.25,5.32-2.85,9.17,1.24,3.4.16,6.17-1.81,9.27-1.59,2.49-2.73,6.5-1.83,9.06,1.45,4.17,4.13,8.34,7.37,11.34,5.11,4.73,11.84,5.57,18.74,5.23,5.55-.27,11.11-.06,17.4-.06-.89,1.48-1.09,2.17-1.55,2.54-3.27,2.57-6.36,5.47-9.94,7.53-8.34,4.78-5.29,17.79,2.22,19.57,6.7,1.59,13.64,2.19,20.49,3.1,1.95.26,4.03-.26,5.92.17,11.64,2.65,21.96-.99,28.29-10.73,2.01-3.09,4.06-3.68,7.41-3.09,10.39,1.82,20.84,2.69,31.26.15,7.04-1.71,8.51-1.14,12.16,5.12,4.53,7.76,9.32,9.95,18.29,8.67,4.76-.68,9.59-.9,14.35-1.6,4.42-.66,9.13-.93,13.11-2.72,6.96-3.15,10.27-9.21,9.74-16.93,1.02-.33,1.63-.6,2.28-.72,8.13-1.46,17.31-.06,22.95-8.38.15-.22.62-.2.93-.33,15.02-6.04,17.65-10.57,16.39-26.47-1.03-12.95-2.05-25.92-2.21-38.9-.32-26.82-.02-53.65-.06-80.47,0-3.31,1.13-5.09,4.15-6.98,2.94-1.84,5.56-5.39,6.62-8.73,1.48-4.66,3.56-8.35,7.31-11.48,6.96-5.82,10.34-13.47,9.46-22.56-.4-4.09-1.6-8.13-2.72-12.11-2.17-7.7-3.34-14.97,4.16-20.89,1.49-1.17,2.36-4.11,2.24-6.15-.34-5.63-1.6-11.21-1.97-16.84-.13-2,.69-4.61,2.03-6.07,8.43-9.2,17.27-18.03,25.7-27.22,8.02-8.75,10.17-19.51,10.06-31.06-.04-4.37.03-9.18,1.74-13.04,5.57-12.53,7.34-25.52,6.8-39.02-.59-14.82-1.18-29.64-1.58-44.46-.06-2.17.21-5.2,1.58-6.41,7.45-6.57,8.28-14.83,8.08-24.06-.65-30.65-.75-61.31-1.1-91.97-.03-2.77-.22-5.23,3.62-5.83,12.84-2,20.22-10.38,23.87-22.11,1.8-5.81,2.19-12.07,3.11-18.14,1.08-7.16,2.79-13.53,9.67-18,7.78-5.06,14.79-11.31,22.03-17.18,6.85-5.56,13.63-11.21,20.29-17,1.78-1.55,5.17-3.18,2.2-6.34ZM437.02,182.45c5.84.82,9.48,4.26,12.12,8.9,6.99,12.3,11.38,25.73,9.95,39.66-1.36,13.27,2.63,24.95,6.15,37.03.42,1.44.93,2.86,1.54,4.22,1.76,3.92,1.05,6.95-2.68,9.4-4.58,3-8.98,6.28-14.6,10.25-2.12-13.42-4.28-25.69-5.89-38.03-.62-4.72.04-9.62.14-15.75-.51-1.6-2.06-4.68-2.43-7.89-1.73-14.88-3.14-29.8-4.62-44.7-.09-.94.2-1.91.33-3.09ZM432.55,172.57c.48.61,1.43,1.31,1.32,1.76-2.41,9.74,1.95,18.89,2.44,28.4,1.41,26.92,3.6,53.8,5.49,80.7.19,2.66.23,5.35.72,7.95.84,4.5-.7,7.4-5.72,9.02-.38-2.37-.92-4.56-1.05-6.78-1.65-27.08-3.11-54.17-4.91-81.25-.55-8.29-1.66-16.57-3.14-24.75-1.08-5.97.25-10.73,4.85-15.06ZM421.82,172.19c.14-1.24,1.69-2.82,2.95-3.29,1.11-.42,3.55.09,3.91.88.56,1.22.36,3.36-.41,4.51-2.99,4.45-3.09,9.02-2.6,14.24,2.31,24.49,4.38,49,6.07,73.54.88,12.77.72,25.61,1.22,38.4.16,4.17-1.69,6.46-7,8.43,0-12.58.43-24.22-.08-35.82-1.31-29.39-3.08-58.77-4.55-88.16-.21-4.23,0-8.53.49-12.74ZM424.65,305.11c-.15,4.4-.94,8.21-6.02,10.15-.23-1.47-.66-2.74-.58-3.97,2.69-38.47.4-76.9-.96-115.33-.03-.86.78-1.76,1.69-3.67.59,2.34,1.12,3.69,1.26,5.07,3.61,35.83,5.83,71.71,4.61,107.75ZM409.53,169.05c1.68-1.06,3.39-2.14,6.13-3.87-.72,3.33-1.24,5.74-1.76,8.16,1.16-1.42,2.31-2.83,3.46-4.24.55.16,1.1.33,1.65.49-.42,4.65-.63,9.32-1.32,13.93-.93,6.23-2.7,12.36-3.27,18.61-1,10.94-1.49,21.93-1.87,32.91-.06,1.83,1.47,3.73,2.32,5.57.62,1.33,1.82,2.58,1.93,3.93,1.09,13.52.42,26.7-8.23,38.14-3.9,5.15-9.27,8.18-14.35,8.33,4.44-3.88,9.25-8.08,14.06-12.29-.68-.77-1.37-1.55-2.05-2.32-6.28,5.29-13.33,8.63-21.23,9.84-.24-.41-.48-.81-.73-1.22,2.9-2.13,5.8-4.27,9.16-6.74-1.17-.18-1.49-.32-1.78-.26-13.45,2.63-17.67.72-25.53-10.71-2.45-3.57-3.14-6.4.56-9.37.83-.67,1.36-1.7,1.54-3.12-2.01,1.52-4.03,3.04-6.12,4.62-3.2-1.97-3.79-4.14-1.48-7,1.98-2.46,3.61-5.25,5.81-7.49,13.8-14.05,23.66-30.88,33.68-47.59.59-.98,1.28-1.9,1.92-2.85.43.08.87.17,1.3.25-.8,3.82-1.48,7.67-2.44,11.45-1.02,4.03-2.28,8-3.46,12-1.16,3.92-2.35,7.83-3.53,11.75.56.18,1.13.35,1.69.53l18.46-57.33c-9.5,14.42-18.62,29.11-28.61,43.18-9.03,12.73-19.02,24.78-28.6,37.16-7.32-6.25-7.28-7.15-1.66-13.31,18.06-19.8,33.24-41.6,45.23-65.59,1.11-2.23,1.97-4.7,3.53-6.56,1.63-1.93,3.98-3.32,5.57,1.03ZM349.01,411.22c-26.13,18.25-52.67,35.71-81.87,48.72-5.9,2.63-12.11,4.76-18.38,6.22-2.72.63-5.97-1.01-8.97-1.61-.33,7.35,5.06,10.24,13.15,6.74-.44-.8-.88-1.58-1.31-2.37.29-.16.6-.47.85-.44,8.58,1.24,16.36-2.07,24.42-4.05,40.76-10.02,74.38-32.57,105.59-59.49,8.16-7.04,13.34-16.07,18.39-25.29,2.84-5.19,5.83-10.3,8.75-15.44.67.25,1.34.49,2.01.74-1.52,4.84-2.79,9.78-4.64,14.5-1.92,4.88-4.4,9.54-6.64,14.3.36.24.71.48,1.07.72,6.41-8,12.82-15.99,19.22-23.99.3.12.61.24.91.35-2.22,5.5-4.45,11.01-7.11,17.61,2.13-1.77,3.43-2.84,4.72-3.92.23.09.45.19.68.28-.96,1.86-1.77,3.82-2.9,5.57-12.9,19.97-30.42,34.94-50.1,48.01-28.69,19.07-59.75,32.85-92.16,44.01-6.74,2.32-13.31,5.34-19.59,8.71-4.68,2.51-8.77,6.11-13.13,9.24-1.76-2.95-1.31-6.76,1.79-9.5,4.41-3.89,9.33-7.22,14.15-10.63,1.43-1.01,3.24-1.47,4.72-2.72-3.56.71-7.1,1.51-10.67,2.13-7.84,1.35-13.98-2.61-17.22-10.99-2.87-7.42-.71-14.03,6.04-18.52,3.65,6.7,3.66,6.82,11.95,6.02,5.44-.52,10.83-1.45,16.25-2.19l-.04-1.49c-4.28,0-8.55-.02-12.83,0-4.99.03-8.29-2.38-9.66-7.08-1.34-4.6-2.61-9.27-3.31-14-.25-1.66,1.28-3.58,2.07-5.55.85.43,1.45.52,1.65.85,1.75,2.92,2.92,7.88,5.21,8.46,8.73,2.2,17.61,7.53,26.88,1.96,25.67-15.42,51.98-29.94,76.64-46.84,13.82-9.47,24.88-22.97,37.18-34.66,3.33-3.16,6.66-6.33,9.99-9.5.55.3,1.11.61,1.66.91-.56,1.51-.89,3.16-1.7,4.52-13.87,23.5-31.1,43.88-53.7,59.67ZM401.77,370.18c-4.19,9.94-9.65,19.1-17.43,26.76-19.95,19.65-42.29,36.05-67.22,48.85-5.85,3-11.75,5.93-18.14,8.04.9-.82,1.7-1.81,2.73-2.43,26.17-15.7,48.73-35.8,70.45-57.05,9.01-8.81,19-16.61,28.55-24.87.36.23.71.46,1.07.69ZM288.39,686.81c-4.02,4.37-7.62,9.96-14.76,8.36-7.62-1.71-11.57-7.35-13.63-14.52-11.58-40.37-15.02-81.49-10.49-123.18,1.7-15.68,4.65-31.24,7.29-46.81.43-2.53,2.24-4.83,3.41-7.24.6.15,1.2.3,1.8.45,1.04,4.33,2.08,8.65,3.15,13.09.61-4.44.96-8.81,1.93-13.02.33-1.44,2.17-3.41,3.45-3.51,1.23-.1,3.05,1.67,3.85,3.05,1.22,2.11,1.77,4.6,3.1,8.31-.33-5.71-.72-9.94-.71-14.17,0-1.17,1-3,1.95-3.32,1.02-.34,3.1.36,3.69,1.27,1.78,2.74,3.67,5.66,4.45,8.77,3.57,14.21,6.77,28.5,10.12,42.76.34,1.45.77,2.87,2.02,4.18-1.17-8.69-2.35-17.38-3.51-26.07-1.36-10.23-2.71-20.47-4.05-30.7-.13-.99-.6-2.23-.19-2.94,1.03-1.77,2.48-3.3,3.76-4.93,1.21,1.25,3.21,2.34,3.5,3.77,3.2,15.82,6.72,31.61,9.03,47.57,4.34,29.95,5.03,60.17,2.1,90.22-2.05,21.03-6.05,42.04-21.27,58.6ZM299.03,690.32c-1.57,8.01-3.13,16.02-4.7,24.03-.65-.13-1.31-.27-1.96-.4-.28-8.48,3.33-16.18,6.66-23.63ZM258.51,715.5c-.31.15-.62.31-.93.46-2.17-4.5-4.34-8.99-6.88-14.25-1.9,11.91-.65,22.88,3.29,33.66-.47.14-.94.27-1.41.41-1.67-5.82-3.34-11.64-5.01-17.46l-1.54-.07c-1,9.99-2.01,19.98-2.89,28.78-5.42-13.56-.28-55.9,10.4-78.66,2.47,9.94,4.82,19.4,7.52,30.29-2.2-1.09-2.87-1.42-4.54-2.25.7,6.75,1.34,12.91,1.98,19.08ZM311.63,482.1c2.12,7.63,3.92,14.15,5.88,21.23.3-5.57.56-10.66.83-15.75,2.55,27.91-.84,55.46-4.87,83.02-4.09-15.75-5.98-81.9-1.85-88.5ZM331.3,480.95c.64-4.15.88-9.01,7.32-11.74-3.38,44.56-9.43,87.59-21.39,129.66-.51-.05-1.03-.1-1.54-.15.46-7.49.41-15.06,1.46-22.47,4.51-31.8,9.27-63.56,14.14-95.3ZM312.38,670.74c4.14-25.95,7.67-52.02,12.67-77.81,7.35-37.91,15.69-75.62,23.76-113.39,1.25-5.84,3.21-11.54,5.04-17.24.63-1.98,1.86-3.77,2.81-5.65.49.14.98.28,1.47.42,1.34,15.68-4.18,30.72-4.29,46.34,1.35-5.72,2.46-11.51,4.11-17.15,2.76-9.41,5.77-18.75,8.91-28.04.48-1.43,2.18-2.44,3.32-3.65.81,1.51,2.37,3.06,2.29,4.52-.5,9.28-.63,18.67-2.23,27.79-8.59,48.99-22.67,96.54-38.86,143.47-5.36,15.53-11.88,30.67-17.86,45.99-.47-.07-.95-.15-1.42-.22.09-1.8,0-3.62.29-5.39ZM259.14,397.15c13.72,5.57,27.56,10.85,41.35,16.25,1.52.59,3.04,1.17,4.56,1.76-.09.46-.19.91-.28,1.37-16.23.56-32.27-.44-47.75-6.34,9.64,8.46,21.53,10.75,34.22,11.87-12.72,10.29-24.05,10.22-35.68-.05-4.48-3.96-8.77-8.15-12.93-12.46-4.22-4.38-4.86-9.32-1.28-14.49,2.21-3.19,4.46-6.35,7.69-9.73-1.37,8.71,5.11,9.81,10.11,11.84ZM221.61,378.88c5.25,4.72,11.95,6.38,19.15,4.53.27.37.55.75.82,1.12-3.46,2.72-6.75,5.72-10.48,7.99-1.29.79-3.94.24-5.53-.56-2.34-1.17-4.45-2.94-6.38-4.74-7.3-6.79-16.73-25.35-16.54-34.67,2.41,4.09,4.54,8.38,7.31,12.22,3.57,4.95,7.16,10.08,11.66,14.12ZM218.74,352.18c7.51,5.46,13.69,13.72,24.91,10.7-7.79,7.3-21.91,1.16-24.91-10.7ZM358.51,381.76c-.04,1.95-1.7,4.6-3.41,5.68-13.64,8.61-27.4,17.05-41.34,25.18-1.94,1.13-5.34,1.05-7.56.21-16.21-6.09-32.28-12.56-48.44-18.79-2.95-1.14-3.31-3.13-3.26-5.89.2-10.29,4.04-19.49,8.23-28.6,4.17-9.07,8.41-18.11,12.5-27.22,1.13-2.52,2.3-4.42,6.24-2.93-2.42,8.04-4.85,16.09-7.28,24.14.3.13.6.26.9.39,3.19-7.19,6.61-14.28,9.46-21.6,1.33-3.41,2.79-5.12,7.69-3.19-3.78,13.36-7.53,26.59-11.27,39.83.39.15.78.29,1.17.44,4.18-10.56,8.38-21.1,12.51-31.68,1.09-2.79,1.72-5.78,2.98-8.48.56-1.2,2.16-1.92,3.29-2.85.7,1.23,2.01,2.47,1.99,3.68-.09,4.93-.58,9.85-.24,14.91,1.08-4.31,2.19-8.61,3.22-12.93,1.58-6.64,2.01-6.92,10.57-5.3-1.37,19.68-2.75,39.52-4.13,59.36.3.04.6.09.91.13,1.88-14.02,3.8-28.03,5.64-42.06.52-3.96,1.05-7.95,1.13-11.94.1-4.75,2.18-6.61,6.82-5.8,1.28.22,2.6.22,4.23.34v22.32c.24.02.48.03.72.05.88-6.06,1.73-12.13,2.64-18.19.44-2.95.49-2.94,3.82-2.39.11.02.25-.08.37-.15,5.95-3.31,7.42-2.46,7.43,4.37.02,11.15,0,22.29,0,34.79,1.27-11.23,2.42-21.25,3.52-31.28.2-1.82.18-3.66.26-5.49.11-2.67,1.4-3.86,4.16-3.69,2.52.16,4.9.46,4.89,3.64-.02,16.99-.01,33.99-.35,50.98ZM296.65,323.36c-6.79,0-13.57.65-20.73,1.02-.4-4.18.68-6.34,5.58-6.95,38.47-4.86,76.72-3.24,114.86,3.17,2.14.36,4.19,1.18,6.29,1.79-.01.58-.03,1.16-.04,1.74-1.89.34-3.8,1.03-5.68.96-9.48-.35-18.94-1.18-28.42-1.31-23.95-.31-47.9-.42-71.84-.42ZM370.63,299.77c-4.54-3.2-9.95-5.8-13.66-9.92-5.73-6.38-11.04-13.39-15.19-20.87-11.48-20.67-22.51-41.61-33.22-62.69-4.03-7.93-6.68-16.57-9.96-24.88.36-.18.73-.36,1.09-.54,1.38,1.96,2.67,3.99,4.14,5.88,6.45,8.24,13.17,16.28,19.39,24.69,6.63,8.95,12.7,18.31,19.22,27.34,10.33,14.31,20.72,28.58,31.33,42.68,3.59,4.77,7.89,8.99,11.89,13.45,1.51,1.68,3.07,3.32,4.61,4.98-.27.37-.55.74-.82,1.11-5.58-.9-9.99-4.18-13.73-8.12-8.02-8.45-15.73-17.2-23.55-25.84-1.42-1.57-2.76-3.21-4.13-4.82-.41.29-.83.59-1.24.88,7.88,12.14,15.76,24.27,23.82,36.67ZM387.78,307.85c3.06.63,6.12,1.29,9.14,2.69-39.8-7.09-79.66-6.61-119.56-1.08-.24-.59-.48-1.18-.72-1.77,1.28-.69,2.5-1.86,3.83-2,15.39-1.53,30.85-2.44,46.17-4.43,21-2.72,40.97,2.45,61.14,6.58ZM395.47,316.98c-15.76-1.24-31.49-2.76-47.26-3.82-23.15-1.56-46.22-.51-69.17,2.97-.47.07-.97-.06-1.74-.11-1.3-3.46-.32-5.08,3.05-5.31,22.23-1.49,44.49-4.47,66.68-4.06,17.8.33,35.53,4.76,53.28,7.44,1.21.18,2.32.96,3.48,1.46-.03.49-.07.98-.1,1.47-2.74,0-5.49.18-8.22-.03ZM384.02,131.17c2.3.67,4.49,2.79,5.97,4.8.84,1.14.15,3.41.15,5.25-4.31-3.36-7.8-6.19-11.4-8.86-6.76-5.02-9.3-10.85-6.52-18.16,1.37,3.21,2.6,5.19,3.05,7.33,1.05,5.03,3.62,8.14,8.75,9.64ZM366.92,104.01c-1.47-1.68-2.27-3.54-2.7-5.16,2.28,3.22,4.59,4.51,6.31,5.1,3.11,1.06,5.58.24,9.33,2.03,1.48.7,2.57,1.53,3.24,2.11-.62.14-10.63,2.26-16.18-4.08ZM381.16,103.46c-4.36-.03-8.44-3.06-10.17-7.63,6.66,3.3,9.86,3.95,11.51,3.77.2-.02,1.06-.14,2.23-.11,1.71.04,3.11.37,4.05.65-.62.63-3.44,3.36-7.62,3.32ZM390.76,62.14c.71.4,1.71.93,2.39,1.94,5.33,7.83.04,18.59-9.24,19.24-2.84.2-4.99-.4-4.81-3.44,1.57-.69,4.72-2.35,6.94-5.85,1.25-1.98,3.16-4.99,1.95-8.08-1.47-3.76-6.3-4.5-6.61-4.54,1.17-.36,5.41-1.52,9.38.74ZM376.66,45.18c1.54-1.01,4.04-1.53,6.14-.44,1.55.81,2.9,3.58,2.86,5.46-.05,2.36.27,5.94-4.65,6.35.99-2.79.17-5.13-1.07-5.57-1.1-.39-3.1.53-3.41,2.17-.26,1.41.88,2.51.97,2.59-1.29,1.54-2.09,1.88-2.6,1.71-1.88-.64-2.75-9.3,1.76-12.27ZM372.08,80.99c-.59-.75-.74-.86-.78-1.01-4.2-13.63-5.92-14.49-19.53-10.49-2.59.76-5.44.66-8.22-.23,4.92-2,9.78-4.16,14.77-5.96,5.1-1.83,8.69.94,11.45,4.76,2.63,3.65,5.73,7.45,2.31,12.92ZM304.49,37.17c6.75.33,13.5.66,20.9,1.02-5.94,6.12-13.86,5.95-20.9-1.02ZM307.7,49.89c-10.06-1.88-15.27-7.25-15.27-14.87,7.22,2.39,11.94,7.41,15.27,14.87ZM345.81,52.21c-8.95,1.92-17.04.27-24.06-6.09,9.3-3.08,16.02,4.03,24.06,6.09ZM337.52,42.3c.44-1.23,1.48-3.61,3.41-4.03.76-.17,1.14.09,5.57,1.86,2.01.8,2.26.88,2.58,1.24,1.6,1.82.13,5.49-.41,6.71-1.68-1.25-3.77-2.6-6.3-3.82-1.73-.84-3.37-1.47-4.85-1.96ZM318.01,55.29c1.87,0,4.02-.62,5.55.1,7.43,3.51,14.97,2.18,22.54,1.1,5.04-.72,9,.71,11.89,5.51-13.76-1.18-27.59,1.22-40.08-5.19.03-.5.07-1.01.1-1.51ZM350.26,47.88c.52-2.9,1.65-3.56,2.13-3.75,2.72-1.09,8.28,3.29,8.04,7.77-.09,1.64-.94,2.91-1.56,3.66-3.2-2.86-5.73-5.11-8.6-7.68ZM361.05,56.65c.16-2.27,1.33-4.05,2.69-4.29,1.87-.33,3.61,2.31,4.11,4.27.51,1.96-.1,3.65-.41,4.35-2.13-1.44-4.27-2.89-6.4-4.33ZM297.51,17.2c1.19-1.47,3.71-4.38,8.61-6.39,24.58-10.07,47.27-2.45,60.07,20.79,2.4,4.36,2.64,9.9,2.81,15.26-.96-2.91-2.57-7.13-5.22-11.87-3.53-6.32-7.66-11.36-8.19-11.03-.48.29,2.6,4.44,3.79,10.94.85,4.62.42,8.63-.12,11.42-.65-2.77-1.82-6.77-4.09-11.21-3.05-5.98-6.41-9.48-6.76-9.26-.43.27,4.02,5.94,2.01,9.65-.45.84-1.11,1.35-1.56,1.64-3.08-4.24-6.03-5.92-8.2-6.66-.95-.33-1.19-.28-1.92-.66-3.85-2.05-4.15-7.2-5.99-7.14-.31,0-.69.17-.9.45-1.1,1.48,3.12,5.05,4.87,11.03.55,1.89.7,3.49.75,4.41-1.52.18-3.11.73-4.55.46-1.9-.35-3.68-1.34-5.62-2.1,1.22-2.75,2.45-6.94.84-10.8-.68-1.63-1.82-3.09-2.21-2.93-.59.23,1.12,3.8-.38,5.38-1.26,1.33-3.83.24-4.31,1.24-.2.41-.07,1.24,1.84,3.12-3.82-.34-6.83-.6-11.33-1,1.24-2.03,2.1-3.76,2.66-5,1.02-2.26,1.26-3.3,2.44-4.11,1.53-1.05,3.2-.72,3.28-1.27.11-.78-3.34-1.67-3.21-2.4.1-.63,2.72-.2,3.06-1.1.44-1.14-2.87-4.09-4.39-3.39-1.14.53-.35,2.68-1.8,3.81-1.61,1.25-3.97-.33-4.73.51-.52.58-.29,2.32,3.66,7.74-4.18.51-9.01.56-10.42-1.92-1.09-1.91.35-4.43-.58-4.99-1.6-.97-6.8,5.91-7.74,5.26-.65-.45.77-4.45,3.55-7.87ZM284,27.27c3.14-3.08,6.38-2.48,8.76.13,2.1,2.3,3.6,1.81,5.95,1.04,3.45-1.14,6.75-.58,10.52,3.43-3.07,0-4.89.12-6.69-.02-5.59-.45-11.28-1.89-16.73-1.25-4.6.54-8.94,3.37-13.39,5.22,1.11-2.36,1.99-4.89,3.4-7.07.56-.87,2.61-3.18,3.42.32,1.61-.57,3.65-.71,4.76-1.8ZM275.83,20.3c.64-.18,1.17-.15,1.55-.13,2.6.16,5.02,2.01,4.78,2.87-.15.56-1.34.33-3.99.89-4.13.87-5.55,2.33-6.09,1.75-.74-.79.93-4.61,3.75-5.39ZM263.93,46.54c1.42-9.59,3.24-11.94,4.73-12.12,1.24-.14,2.79,1.15,3.07,2.5.13.63.06,1.64-2.85,4.87-1.12,1.25-2.76,2.93-4.95,4.75ZM268.88,61.81c-.84-.49.25-4.19,1.48-6.94,4.67-10.43,14.79-15.06,14.24-16.01-.59-1.04-12.19,5.13-13.14,3.65-.56-.88,2.92-3.94,3.21-4.2,5.47-4.78,13.02-6.36,14.32-4.49.24.34.42,1.01.72,2.16.29,1.09.43,1.92.43,2.09.3,10.84,7.96,12.97,17.37,13.84.92.09,2.55-.14,4.25.76,1.93,1.02,2.98,2.84,3.56,4.19-2.45.43-8.34,1.13-14.94-1.63-8.27-3.46-12.14-10.05-13.24-12.07-2.45,2.55-5.84,6.13-9.8,10.5-5.12,5.65-7.61,8.65-8.46,8.15ZM288.54,105.22c-.92-2.78-1.91-4.91-2.63-6.32-1.92-3.74-3.32-5.12-4.18-8.22-.63-2.26-.62-4.23-.54-5.49.43.48,1.74,1.81,3.9,2.23,1.59.31,2.88-.02,3.51-.23-.02,6.01-.04,12.02-.06,18.02ZM301.52,125.61c.41.25,1.51.86,2.99.74,2.18-.17,3.99-1.83,3.78-2.37-.34-.87-5.54,1.81-8.47-.51-1.22-.97-1.64-2.48-1.81-3.57.74,0,1.84-.03,3.16-.22,2.29-.33,3.85-.95,4.78-1.28,5.25-1.87,9.54-1.48,9.53-1.98,0-.53-4.48-.84-4.73-.85-2.93-.19-4.77-.31-6.96.44-1.5.52-2.08,1.07-3.42.99-.94-.06-1.66-.39-2.7-.09-.67.19-1.15.56-1.46.84-1.95-2.87-3.55-5.22-5.16-7.58.82.5,2.04,1.15,3.62,1.63,1.63.49,3.14.94,4.79.54,1.59-.39,1.47-1.13,4.61-3.52,2.58-1.97,3.96-2.46,4.04-3.73.05-.83-.49-1.55-.9-1.98.05.42.08,1.13-.35,1.7-.44.59-1.15.71-1.7.82-2.48.51-2.2.87-4.08,1.18-1.88.31-7.2,1.18-9-1.37-.64-.9-.68-2.39-.72-5.38-.06-4.32.62-5.99.73-8.96.4-10.78-1.72-13.79-11.88-17.19-3.05-1.02-3.98-8.18-1.31-12.08,2.63-3.83,5.59-7.44,8.85-11.72,2.38,2.07,4.86,3.74,6.71,5.93,4.14,4.93,9.3,6.03,15.29,4.95,1.7-.31,2.89-.2,3.3-.23,3.21-.27,8.38,1.05,16.82,8.33.21.47.42.93.63,1.4-3.91-.06-7.63-.05-11.13,0-1.87.03-3.59.07-4.26.09-.52.02-6.95.27-14.22,2.77-1.4.48-2.52.94-2.88,1.96-.55,1.59.94,3.9,2.13,3.9.93,0,1.08-1.41,2.79-2.59,1.19-.82,2.37-.91,3.48-1.15,7.59-1.59,13.27-2.34,21.23-2.34h0c3.93.44,7.9.93,11.48,3.76,1.14.9,3.64,2.98,3.98,6.02.09.8-.09,1.57-.43,3.08-1,4.51-2.54,7-1.97,7.4.28.2.73-.36,2.18-.98,1.76-.76,2.34-.48,3.35-.91,2.78-1.18,3.05-5.29,3.88-5.14.57.1.77,2.07.85,2.89.18,1.74-.11,2.64.35,2.93.5.32,1.44-.3,2.03-.72,3.2-2.31,4.89-5.45,4.97-5.61,1.7-3.25,3.85-7.33,2.27-9.29-1.46-1.81-5.11-.57-5.28-1.36-.15-.71,2.64-2.66,5.11-1.87,2.01.64,2.79,2.77,2.98,3.29.94,2.58.17,5.97-1.7,7.55-.58.49-1.44.96-2.42,2.19-.2.25-.62.81-1.04,1.64-1.51,2.96-.61,4.91-1.73,6.16-.7.78-2.18,1.54-5.67.96-.11,2.13-.16,3.77-.29,5.4-.65,8.35-3.85,15.74-10.31,20.94-5.92,4.77-12.39,9.09-19.16,12.53-11.23,5.7-14.48,4.08-19.58-8.41ZM323.3,151.32c2.12,2.31,3.38,4.47,4.15,6.11,1.46,3.1,2.04,6.16,3.56,6.28.39.03.81-.13,1.06-.41.68-.76-.01-2.24-.81-4.55-.75-2.16-1.3-3.95-1.32-4.42-.14-3.13,1.44-5.93,3.37-9.16,8.09-13.54,15.32-27.6,22.74-41.21,6.66,12.29,7.8,22.15,7.69,28.74-.22,12.44-5.23,29.18-2.65,30.46.16.08,1.01.5,1.49.15.48-.35.32-1.27.24-2.36-.1-1.32.12-2.65.09-3.97-.04-1.65.63-5.98,3.52-17.32,2.66,6.17,6.11,9.68,8.1,11.57,2.17,2.04,4.59,3.77,7.31,5.23.6.33,2.18,1.33,4.93,2.74,8.93,4.59,14.01,5.65,14.16,8.26.03.57-.16,1.34-.58,1.95-.9,1.31-2.59,1.56-3.23,1.66-3.91.62-17.51,3.21-22.12,4.23-4.14.92-5.95,1.65-8.9,1.04-2.21-.46-4.42-1.55-5.07-.75-.38.47-.14,1.49.28,2.05,2.38,3.22,15.07-2.08,32.19-4.42,1.58-.22,4.11-.53,4.62.48.29.57.29,2.3-8,8.76-11.26,8.78-23.21,13.31-40.36,22.82-2.84,1.58-5.9,2.78-8.86,4.15l.43,1.49c2.72-.61,5.74-.67,8.11-1.92,11.62-6.14,23.07-12.61,34.58-18.95,2.04-1.12,4.08-2.24,7.54-4.15-2.74,4.79-4.73,8.36-6.81,11.89-1.35,2.29-2.94,4.45-4.24,6.77-4.77,8.5-11.62,14.1-21.06,17.16-5.56,1.8-10.56,5.35-15.59,8.85,6.53-2.28,13.07-4.56,19.6-6.85.31.27.62.54.93.81-4.79,6.25-9.58,12.51-14.66,19.14-6.87-9.35-13.13-17.86-20.34-27.67,18.81,3.58,32.46-5.65,45.84-15.59-1.12.57-2.25,1.12-3.36,1.72-1.17.63-2.31,1.33-3.49,1.95-5.01,2.65-10.09,5.15-15.02,7.94-7.68,4.34-15.96,2.48-23.95,2.03-2.61-.15-5.03-3.59-6.91-6.43,2.69.93,5.39,1.85,8.08,2.78.25-.36.5-.72.75-1.08-16.17-8.2-25.13-22.8-34.11-37.37l-.07.07c-.72-1.82-1.45-3.65-2.3-5.81,9.3-5.07,20.96-5.66,28.44-14.89ZM276.1,168.05c2.46,15.43,5.31,30.79,8.08,46.16.35,1.93,1.04,3.8,1.58,5.69.6-.12,1.21-.25,1.81-.37-3.57-18.84-7.14-37.68-10.71-56.52.29-.36.58-.72.88-1.08,1.46,1.34,2.93,2.68,4.39,4.02.41-1.5.81-3,1.22-4.51,1.5.85,3.73,1.33,4.38,2.61,3.46,6.82,7.01,13.66,9.65,20.82,9.86,26.81,23.11,52,36.09,77.33,4.59,8.96,8.66,18.18,12.62,27.48l-20.57-31.46c-.43.26-.86.52-1.29.79l22.17,38.64c-.31.19-.62.38-.93.57-9.93-11.09-19.85-22.18-29.78-33.27l-1.44,1.13,19.52,31.36c-11.18-4.93-17.18-15.42-26.95-22.07,4.22,6.32,8.44,12.64,13.25,19.85-9.81-5.73-18.55-10.84-27.29-15.94-.26.35-.51.69-.77,1.04,5.11,5.36,10.21,10.71,15.32,16.07-.14.18-.28.37-.43.55-8.91-5.12-17.82-10.23-26.73-15.35-.37.35-.75.69-1.12,1.04,4.11,3.86,8.22,7.71,11.86,11.12-11.68-2.77-27.94-19.92-24.63-37.96,1.89-10.31,3.51-20.67,4.89-31.06.72-5.42.66-10.94,1.9-16.49.37,6.11.74,12.22,1.12,18.32,2.57-21.42,4.56-42.8-4.38-64.12,4.67.59,5.76,2.28,6.29,5.6ZM94.76,193.64c10.53,9.12,21.09,18.38,30.35,28.74,10.88,12.16,20.39,25.56,30.49,38.42-.49.41-.99.82-1.48,1.23-2.82-3.25-5.66-6.49-8.46-9.76-2.92-3.41-5.7-6.95-8.73-10.26-11.44-12.51-22.74-25.17-34.53-37.36-8.77-9.07-18.42-16.88-32.63-11.43,8.56-5.28,17.29-6.25,24.99.42ZM15.45,206.19c0-.48,0-.96,0-1.44,8.29-2.37,16.21-8.79,25.33-1.74.92.71,2.17,1.35,2.55,2.31.52,1.31.36,2.9.49,4.37-1.2-.19-2.41-.37-3.61-.58-5.36-.96-10.7-2.11-16.09-2.84-2.84-.39-5.78-.07-8.68-.07ZM38.94,215.84c5.64-1.32,11.27-2.65,17.53-4.12-1.95,5.17-11.22,7.35-17.53,4.12ZM63.51,203.94c-4.23,1.39-8.38,2.99-12.87,4.6,1.82-6.64,10.61-11.53,21.88-13.04,10.31-1.38,15.23,7.51,23.32,10.78-5.13-4.13-10.27-8.27-15.4-12.4.14-.28.28-.57.42-.85,4,2.35,8.51,4.13,11.91,7.16,17.65,15.74,34.31,32.45,49.15,50.94,4.52,5.64,10.01,10.5,15.25,15.91-.16.12-.91.71-1.95,1.53,2.35.3,4.3.54,6.24.79,0,.44,0,.87,0,1.31-4.53.63-9.04,1.48-13.59,1.74-1.28.07-2.88-1.35-3.96-2.46-14.93-15.4-29.79-30.88-44.69-46.31-4.62-4.79-9.51-9.34-13.94-14.29-6.11-6.84-13.4-8.15-21.75-5.4ZM127.96,298.39c-5.67-.36-11.26-1.91-16.88-2.95-2.07-.38-4.14-.75-6.2-1.16-3.31-.65-5.88-1.14-8.21-1.68-8.03-1.86-9.47-2.54-10.28-3.02-.51-.3-2.61-1.6-5-4.48-3.31-4-4.63-8.62-7.12-17.69-3.27-11.89-1.3-10.33-3.49-17.66-.24-.81-.83-2.71-.29-3.02.68-.4,2.95,1.81,4.4,4.09,1.19,1.87,1.28,2.91,2.73,9.23,1.34,5.88,2,8.19,2.73,10.38.52,1.57,1.01,2.84,1.34,3.7-1.04-9.44-2.02-14.7-2.81-17.85-.62-2.45-.72-4.15-.94-7.55-.23-3.54.03-4.24.42-4.4.93-.38,2.94,2.17,4.09,3.98,2.49,3.93,2.63,7.01,4.4,16.98.65,3.63.98,5.5,1.57,8.07,1.29,5.62,3.17,11.95,3.63,11.85.24-.05-.02-1.71-.88-9.32-.64-5.67-.96-8.51-1.08-9.29-1.68-11.31-4.95-17.51-3.43-18.36.71-.4,2,.65,2.97,1.44,1.64,1.34,2.83,3.21,3.92,6.94.97,3.32.58,3.75,1.48,8.31.13.68.85,3.47,2.27,9.05,1.66,6.5,1.69,6.49,1.7,7.02.03,1.24-.06,3,.94,4.93.08.15,1.01,1.94,1.5,1.79.89-.27-.63-6.64-.88-14.9-.05-1.67.26-3.59.88-7.44.23-1.41.39-2.23.8-2.31.76-.14,2.03,2.37,2.62,4.72.79,3.13-.17,3.94.42,7.65.4,2.54.82,1.99,1.57,5.45.87,4.02.54,5.83,1.99,6.92.92.69,1.98.66,3.15.63,3.92-.11,4.89-2.38,9.08-3.5,3.22-.86,5.87-.34,7.1-.15,3.97.62,7.07,2.31,7.48,6.7.32,3.42-3.27,7.14-7.7,6.86ZM140.15,305.87c-1.42-1.1-2.02-3.81-2.22-5.84-.35-3.57-.1-7.21-.1-11.76,3.05.89,6.44,1.74,9.73,2.87,8.02,2.76,15.95,5.76,23.98,8.48,6.5,2.2,12.98,1.98,19.61-.02,4.41-1.33,9.1-2.01,13.72-2.37,0,0,10.15-.45,16.71,3.37,2.37,1.37,3.83,2.22,4.74,4.01.57,1.11.94,2.61,1.65,2.62.4,0,.8-.47.95-.88.53-1.46-1.65-3.06-4.24-6.23-1.84-2.26-4.03-4.81-4.63-8.14-.35-1.93-.26-3.94.27-5.99,2.63-10.08,5.21-20.3,9.31-29.82,3.9-9.06,6.58-17.37,4.87-27.7-2.36-14.29,1.46-28.15,8.78-40.74,4.07-7,10.22-11.79,17.93-14.37,5.06-1.69,6.87-.73,8.72,4.36.56,1.55,1.15,3.24,1.08,4.84-.83,18.24-1.95,28.29-1.95,28.29-2.28,7.2-3.42,10.8-6.15,14.37-1.95,2.55-4.91,5.54-3.99,7.98.49,1.28,1.65,1.33,2.75,2.68,2.27,2.76,1.04,7.14.72,9.06-2.64,15.59-4.97,31.24-7.87,46.78-1.27,6.82-2.96,13.73-5.65,20.09-2.83,6.68-7,12.81-10.76,19.07-2.11,3.52-5.35,5.4-9.6,5.18-.33-.02-.67-.02-1,.03-34.54,5.62-61.67-10.38-87.39-30.21ZM176.86,410.14c-.53-2.43-1.09-4.93-2.14-7.16-8.92-19-9.48-38.95-6.68-59.22.34-2.43,2.58-6.7,3.53-6.59,3.98.47,2.49,4.26,2.63,6.87.93,17.3,1.62,34.61,2.75,51.89.3,4.61.78,9.59,5.23,13.34v-40.95c.44-.02.88-.05,1.31-.07,4.77,23.38,9.54,46.75,14.34,70.25.28-.11-.16.18-.27.09-9.02-7.93-17.96-15.91-20.69-28.44ZM185.97,492.97v-58.52c6.44,5.11,10.02,11.03,11.6,18.27-.1-1.4-.2-2.79-.32-4.44,7.61,3.37,11.37,9.47,10.32,16.44-.13.88-1.17,1.62-1.79,2.43,2.44,3.35.6,6.26-1.55,8.45-5.56,5.66-11.47,10.96-18.26,17.36ZM199.97,553.78c-.47-.16-.95-.31-1.42-.47,2.71-20.91,5.42-41.83,8.3-64.04,5.3,4.93,6.79,9.7,7.11,15.01.61,9.96,1.26,19.92,1.94,30.64,3.02-2.78,5.56-5.12,8.1-7.46.3.31.6.63.9.94-6.77,9.96-16.56,16.99-24.95,25.38ZM213.91,594.49c1.06-12.27,2.06-23.97,3.18-36.94,8.9,8.87,6.69,30.73-3.18,36.94ZM227.88,626.72c-8.3-4.54-16.64-18.82-14.4-25.75,4.41,5.47,8.4,10.41,12.97,16.07,1.11-3.37,1.86-5.65,2.61-7.94.23.03.47.06.7.09-.62,5.8-1.25,11.61-1.88,17.53ZM210.07,411.63c-9.82-13.56-13.8-29.37-17.97-45.14-.57-2.14-.84-4.36-.59-6.68,1.86,4.96,3.74,9.9,5.57,14.87,4.42,12.01,11.06,22.82,19.19,32.51,4.09,4.87,10.03,8.19,15.09,12.18-8.54,2.41-15.68.01-21.29-7.74ZM232.67,669.53c1.05-11.4,2.51-22.77,3.84-34.14.05-.4.49-.76.68-1.03,3.31,14.56-.98,29.92,5.09,44.62-6.64-.74-10.11-3.98-9.61-9.44ZM242.84,692.41c-2.12,14.46-4.53,28.49-6.16,42.61-1.63,14.14-.53,28.23,2.87,42.18-11.8-15.7-9.88-64.49,3.29-84.79ZM229.94,774.1c.85.12,1.7.24,2.55.35-2.84,15.21-5.68,30.42-8.51,45.62-.57-.1-1.14-.21-1.71-.31,2.56-15.22,5.12-30.44,7.67-45.67ZM213.85,841.49c4.51-3.66,9.19-7.14,14.02-10.37,17.39-11.63,29.86-27.55,38.76-46.1,9.18-19.15,17.29-38.82,24.28-54.67-7.49,54.11-50.74,108.62-81.97,117.64,2.14-2.9,3.19-5.11,4.91-6.5ZM247.31,861.27c-3.01,2.61-6.02,5.23-9.04,7.84-.4-.48-.79-.96-1.19-1.44,3.16-2.43,6.33-4.86,9.49-7.29.25.3.49.59.74.89ZM210.87,880.37c-3-.6-5.99-1.31-9.02-1.76-1.37-.2-3.04-.33-4.2.25-5.21,2.63-5.49,4.64-1.39,8.78,1.93,1.95,4.04,3.72,6.31,5.79-4.2-.27-11.3-5.17-12.17-8.47-.26-1,.26-2.84,1.05-3.37,3.96-2.64,7.89-5.73,12.31-7.09,2.14-.66,5.35,2.12,8.07,3.34-.32.85-.64,1.69-.96,2.54ZM211.51,862.52c-3.37,2.13-7.17,3.65-10.33,6.03-3.55,2.68-5.63,1.46-7.74-1.73,11.21-14.1,28.34-17.16,43.23-24.29.31.34.62.69.92,1.03-1.31,1.53-2.36,3.42-3.97,4.51-7.28,4.95-14.68,9.73-22.11,14.44ZM253.45,931.61c-2.63.31-5.22-.57-5.22-.57-1.55-.53-2.47-.84-2.74-1.62-.68-1.94,3.01-5.57,5.16-7.28,1.01-.81,1.98-1.42,1.84-2.02-.16-.69-1.72-1.3-3-.98-3.13.8-2.22,6.71-6.07,8.4-.65.29-2.38.86-4.24.41-1.03-.25-1.17-.6-2.28-.82-1.65-.32-2.22.27-3.91.24-.81-.01-1.9-.39-4.08-1.14-2.48-.86-2.42-1-4.32-1.63-2.81-.94-3.2-.73-4.48-1.47-.77-.44-2.76-1.6-3.02-3.02-.44-2.46,4.5-4.93,9.7-8.23,11.74-7.46,9.73-9.63,15.86-11.75,7.14-2.48,17.08-2.03,22.61,3.8.64.68,1.72,1.84,2.47,3.69,4.03,9.93-8.18,23.27-14.29,24ZM319.43,908.6c-9.77,5.22-19.7,9.65-30.79,4.46-4.77-2.23-9.33-5.12-13.51-8.33-7.86-6.04-15.64-11.96-26.28-12.07l.06-1.83c3.78-.35,7.84-1.75,11.28-.84,6.83,1.82,13.4,4.73,19.92,7.57,3.63,1.58,6.87,4.05,10.41,5.9,7.13,3.73,14.23,4.03,21.31-.35,6.36-3.93,12.66-8.03,19.3-11.44,8.93-4.57,17.56-3.36,25.33,3.72h-15.39c8.14.53,15.59,2.16,20.87,10.61-15.33-8.24-29.09-4.58-42.5,2.59ZM311.61,891.63c6.34-7.23,13.75-13.36,23.33-13.58,9.52-.22,17.53,4.94,23.9,12.12-16.07-7.53-31.57-3.53-47.23,1.46ZM368.48,919.94c-1.52,3.2-5.48,1.95-13.78,6.46-.68.37-2.44,1.35-4.97,1.91-2.03.45-4.61,1.03-6.11-.28-1.22-1.07-.46-2.28-1.92-4.42-1.17-1.71-3.02-2.93-3.57-2.56-.46.32.39,1.5.29,3.55-.02.47-.17,3.43-2.13,4.66-1.8,1.13-4.41.38-5.96-.83-1.12-.87-1.18-1.6-3.01-7.6-1.41-4.61-1.97-6.01-1.2-7.66.46-.99,1.22-1.86,2.29-2.56,4.12-2.69,9.12-5.09,13.92-5.49,2.48-.21,19.53-2.08,24.98,7.27.4.69,2.63,4.52,1.19,7.54ZM386.08,904.27c1.17-4.74,4.86-5.04,9.01-5.76-.52,6.07-2.28,7.12-9.01,5.76ZM402.38,896.83c-.88-6.76,1.01-9.18,8.93-11.9,1.74,6.79-1.63,11.43-8.93,11.9ZM415.33,615.94c-3.26,85.95-5.75,171.89-3.28,257.9.26,8.96-.17,9.57-9.77,12.72v-75.79c-.25,0-.5,0-.75,0-.94,20.12-1.8,40.24-2.87,60.36-.37,6.98-1.1,13.95-1.93,20.9-.64,5.43-2.44,6.22-9.15,3.68,9.24-2.52,6.9-9.63,7.25-15.56,1.81-30.6,2.88-61.27,5.42-91.81,5.22-62.8,7-125.74,8.81-188.69.1-3.65.01-7.3-.82-11.03-1.74,12.33-4.07,24.6-5.13,36.99-3.97,46.15-7.4,92.34-11.27,138.5-3.84,45.66-7.96,91.3-11.98,136.95-.14,1.63-.47,3.25-.71,4.81-6.52.46-7.56-.5-7.04-6.84,2.74-33.04,5.95-66.06,8.21-99.13,2.57-37.72,4.31-75.5,6.42-113.25-.51-.04-1.03-.09-1.54-.13-1.36,10.99-3.03,21.95-4.04,32.97-3.59,39.24-10.93,77.87-18.78,116.39-1.91,9.39-5.61,18.46-9.07,27.46-2.28,5.93-2.38,10.83,2.47,15.48,1.36,1.31,1.79,3.59,3,6.16-5.73-2.79-10.22-5.77-15.16-7.15-4.8-1.34-10.05-1.04-13.95-1.36,5.8-6.74,13.5-13.59,18.45-22.05,4.93-8.42,7.11-18.46,9.4-28.19-4.22,6.08-8.09,12.44-12.72,18.2-11.88,14.78-23.9,29.46-36.23,43.87-8.02,9.38-18.5,8.42-29.06,5.35-3.03-.88-5.9-2.29-8.88-3.34-9.91-3.49-19.62-3.12-29.11,1.56-2.2,1.08-4.47,2.03-6.7,3.03-.34-.29-.68-.59-1.01-.88.79-1.37,1.28-3.09,2.41-4.06,10.24-8.86,21.55-12.16,34.63-6.56,5.5,2.36,11.27,4.1,16.83,6.34,6.21,2.5,11.63,1.3,15.82-3.65,3.97-4.68,7.89-9.55,10.91-14.87,19.24-33.88,34.99-69.26,44.57-107.18.27-1.08.49-2.18-.01-3.48-1.96,5.81-4.07,11.58-5.87,17.44-9.06,29.59-24.24,56.21-39.87,82.61-.85,1.43-1.96,2.71-2.74,4.17-7.69,14.35-20.35,18.22-35.44,16.67-6.71-.69-13.38-1.86-21.47-3.02,12.62-4.52,25.37-4.97,35.91-12.15,10.41-7.09,19.11-15.72,26.66-25.74-12.46,10.96-25.18,21.42-42.32,27.88,1.61-1.8,2.7-3.03,3.66-4.1-7.9,3.86-15.8,7.73-23.69,11.59-.42-.6-.84-1.2-1.26-1.8,3.95-3.78,7.85-7.63,11.87-11.34,8.82-8.12,17.59-16.28,26.6-24.18,4.89-4.29,7.28-9.7,9.02-15.74,5.69-19.68,11.08-39.47,17.51-58.91,5.9-17.86,12.99-35.32,19.57-52.96.51-1.36,1.05-2.71,1.74-4.47-.67.43-.99.52-1.09.72-12.54,25.76-25.65,51.25-37.34,77.39-6.29,14.06-10.85,29.03-14.87,43.94-3.63,13.44-13.47,21.73-22.69,31.03.48-1.7.98-3.39,1.43-5.09,9.86-37.34,28.16-71.15,44.14-105.94,4.91-10.7,9.61-21.72,12.51-33.08,7.2-28.26,14.88-56.33,25.43-83.58-14.63,31.48-31.37,62.05-39.19,96.36-.48-.12-.95-.24-1.43-.36.7-4.41,1.32-8.83,2.12-13.22.84-4.58,1.88-9.13,2.79-13.7,5.76-28.61,18.22-54.95,27.73-82.29,16.06-46.19,28.52-93.33,37.57-141.38.91-4.84,2.18-9.62,3.28-14.43l1.52-.18c1.62,2.49,3.24,4.97,4.85,7.46,7.31,11.3,14.31,22.81,22.02,33.83,4.83,6.91,8.55,14.11,8.54,22.51-.04,29.81.32,59.65-.81,89.43ZM283.03,882.84c3.93-.35,7.4-.67,10.96-.99-2.15,4.26-4.81,4.55-10.96.99ZM409.74,496.73c-14.47-12.83-23.01-29.1-28.71-47.15-.59-1.88-.08-4.1.72-6.42,11.68,10.36,16.87,24.98,26.53,36.56-4.5-9.06-9.03-18.11-13.48-27.19-1.98-4.03-3.93-8.08-5.67-12.21-1.18-2.79-2.37-6.14,1.35-7.79,2.16-.96,4.92-.6,8.22-.92.32-2.94.81-7.44,1.29-11.94.8-.05,1.6-.09,2.4-.14,4.51,15.38,9.02,30.76,13.54,46.14.33-.08.67-.15,1-.23-1.49-6.75-3-13.5-4.47-20.26-1.84-8.46-3.73-16.9-5.36-25.4-.29-1.52.57-3.27.89-4.91,1.18,1.12,2.98,2.04,3.42,3.4,2.16,6.6,3.97,13.33,6.13,20.01.23-9.83-2.96-19.72-1.25-29.53.79-.09,1.58-.19,2.37-.28.78,2.72,1.88,5.4,2.28,8.18,3.07,21.42,6,42.86,8.96,64.29.66,4.81,1.27,9.63,1.9,14.45-.56.18-1.12.36-1.67.54-2.24-3.36-4.47-6.72-7.52-11.31,2.76,9.78,6.28,17.43,12.67,23.71,1.38,1.36,2.61,4.04,2.26,5.78-.93,4.65-2.75,9.13-4.42,14.31-6.99-5.44-12.83-11.82-16.32-20.37,2.12,2.34,4.24,4.69,6.36,7.03.66-.62,1.33-1.24,1.99-1.86-5.11-5.53-9.81-11.53-15.42-16.51ZM425.23,350.42c8.81-.08,8.91.03,8.8,6.87-.07,4.33.02,8.66-.24,12.97-.06,1-1.28,1.93-1.97,2.89-.81-.63-2.17-1.13-2.34-1.9-1.5-6.74-2.79-13.52-4.25-20.84ZM436.45,691.25c-8.27-8.52-7.43-19.72-6.66-31.04,2.25,10.51,4.48,20.9,6.66,31.04ZM417.64,644.3c-.09-1.94-.44-3.29-.16-4.5,4.2-18.53.91-37.36,2.3-56.02,1.22-16.42,1.43-32.92,2.15-49.38.08-1.72.63-3.41.97-5.11.54-.02,1.07-.05,1.61-.07.48,2.95,1.31,5.89,1.38,8.85.28,11.31.12,22.64.48,33.95.55,17.47,1.38,34.93,2.1,52.39.47,11.5-.86,14.1-10.83,19.9ZM433.27,723.63c-2.98,3.26-6.65,5.89-9.94,8.75.48-7.33,1.01-15.34,1.62-24.56,2.77,3.82,4.91,6.76,7.72,10.63,2.76-6.99-.05-11.82-2.96-16.93,9.98,6.59,11.15,13.83,3.56,22.11ZM436.67,673.84v-31.4c.29-.05.59-.1.88-.15.38.79.97,1.54,1.12,2.37,1.21,7.03,2.25,14.1,3.54,21.12.75,4.1-.42,6.79-5.54,8.06ZM428.41,322.5c-7.89,5.5-16.57,9.86-24.46,15.35-3.93,2.73-7.04,6.71-10.26,10.35-6.38,7.23-12.4,14.79-18.92,21.89-4.1,4.47-8.85,8.35-14.41,11.89.19-4.24.42-8.47.56-12.71.38-11.65.74-23.31,1.07-34.96.22-7.61.8-8.06,9.03-6.21.39,6.55.79,13.22,1.2,19.88.44,0,.88-.02,1.32-.03v-18.94c3.69-1.51,5.11-.27,5.48,2.88.56,4.8,1.18,9.58,1.82,14.37.18,1.39.5,2.77.76,4.15.43-.02.86-.04,1.29-.06v-22.74c7.3,3.32,5.35,10.69,8.9,15.81-.51-4.94-.96-9.21-1.39-13.46,6.27-1.11,6.46-.63,4.93,10.85,9.72-7.29,19.59-14.78,29.56-22.15,20.09-14.84,40.38-29.41,60.27-44.5,8.09-6.14,16.09-7.81,25.59-4.02,6.78,2.71,13.91,4.54,20.82,6.96,2,.7,3.76,2.09,5.64,3.17-.16.57-.32,1.14-.49,1.71-2.47,0-5.05.46-7.39-.09-5.83-1.36-11.6-3.01-17.3-4.83-8.8-2.82-16.9-2.26-24.63,3.34-19.55,14.16-39.15,28.27-58.96,42.08ZM475.89,605.52c-2.01,4.11-4.58,8.12-7.63,11.52-6.62,7.38-13.69,14.35-20.8,21.72-1.94-9.13.01-16.69,7.03-22.94,7.5-6.68,14.68-13.72,22-20.6.52.22,1.04.44,1.55.66-.67,3.24-.75,6.76-2.15,9.64ZM448.87,614.53c2.16-12.57,4.33-25.15,6.4-37.16,5.49,5.13,11.24,10.51,17.66,16.51-7.43,6.87-15.25,14.09-23.07,21.32-.33-.22-.66-.44-.99-.66ZM488.8,480.85c-2.31,2.23-3.27,6.82-3.26,10.33.05,15.49.29,31,1.18,46.46.87,15.2-3.93,29.09-8.47,44.34-6.62-7.59-13.06-14.31-18.7-21.65-4.54-5.9-3.63-7.81,2.55-11.65,5.51-3.42,11-6.92,16.16-10.83,4.07-3.08,4.05-5.6.22-9.01-4.47-3.99-9.34-7.53-13.82-11.5-1.08-.96-1.34-2.85-1.98-4.32-1.25-.89-2.79-1.56-3.66-2.73-.57-.77-.25-2.26-.22-3.42.94-34.8,1.89-69.59,2.86-104.39.04-1.46.31-2.91.48-4.36.49-.01.98-.03,1.47-.04,1.33,28.66,2.65,57.31,3.98,85.97.28.04.56.09.84.13l10.7-41.38c.28.04.55.08.83.12,0,3.53.11,7.07-.02,10.59-.48,12.48-.83,24.98-1.71,37.43-.26,3.63-2.13,7.16-3.26,10.73,4.23-3.22,4.98-7.66,5.41-12.71,2.49-29.38,5.3-58.73,8.07-88.08.71-7.52,1.68-15.01,2.53-22.51.51-.02,1.02-.03,1.52-.05.41,2.5,1.12,5,1.18,7.51.58,26.32,1.04,52.64,1.57,78.96.13,6.3-1.66,11.43-6.45,16.07ZM531.25,309.73c-2.94,2.29-3.74,5.21-4.45,8.86-1.63,8.42-3.71,16.88-6.77,24.88-1.71,4.46-4.44,8.88-9.48,11.22-4.84,2.25-10.38,1.56-16.49.8-2.76-.34-4.4-.74-8.14-1.58-15.88-3.57-27.45-5.68-29.51-10.2-.17-.36-.71-1.54-.24-2.06.49-.55,1.79-.02,4.49.97,3.61,1.32,6.64,2.34,9.96,2.79.78.11,1.9.26,1.96.05.11-.39-3.82-1.6-7.2-3.07-6.83-2.96-16.3-9.05-15.74-13.95.04-.31.14-1.26.81-1.65.91-.54,2.31.3,7.17,3.56,3.07,2.06,3.43,2.34,4.62,3.04,1.81,1.06,3.05,1.63,4.98,2.55,6.05,2.88,5.62,2.91,8.38,4.13,3.24,1.44,9.7,4.01,10.08,3.28.4-.77-6.11-4.94-7.89-6.07-3.9-2.49-6.8-3.99-9.84-5.59-13.9-7.31-18.9-10.48-18.56-12.86.17-1.24,1.01-1.85,1.01-1.85.93-.68,2.21-.43,2.98-.23,3.81.99,8.14,4.07,10.81,5.71,2.45,1.5,4.59,2.37,8.87,4.13,6.41,2.63,6.15,1.75,9.47,3.52,4.16,2.22,6.57,4.66,8.42,3.69.45-.24.98-.74,1.02-1.33.05-.82-.95-1.61-2.96-3.15-.45-.35-.68-.52-1.13-.83-2.24-1.55-4.25-2.56-5.11-2.99-1.89-.92-3.17-1.42-4.74-2.06-1.87-.77-4.53-1.89-7.77-3.4-6.73-2.71-11.01-6.44-10.55-9.37.04-.24.23-1.26,1.07-1.85,2.16-1.53,5.92,1.65,12.9,4.48,2.74,1.11,1.75.45,7.75,2.5,8.91,3.04,15.87,5.92,15.87,5.92,1.77.73,4.59,1.55,8.36,2.68,6.23,1.88,8.8-.08,10.43-6.43,1.32-5.14,3.97-9.12,8.76-11.43,1.44-.69,3.15-1.12,4.73-1.1,1.29.02,2.57.89,3.86,1.38-.72.99-1.27,2.22-2.2,2.94ZM546.66,288.53c-4.76.27-9.55.12-14.33.12-.07-.81-.13-1.61-.2-2.42,4.79-.77,9.57-1.66,14.39-2.2.91-.1,1.97,1.24,2.96,1.92-.94.9-1.84,2.51-2.82,2.57ZM546.68,281.19c-.34-.27-.68-.54-1.03-.81,2.4-3.5,4.8-7,7.2-10.5-3.43,3.64-6.86,7.28-10.49,11.13-.98-.68-2.02-1.46-3.12-2.26,0,0,0,0,0,0,.24-1.46,2.17-12.21,12.27-17.96,7.73-4.4,15.37-3.09,17.4-2.67-4.17,1-7.97,1.44-11.36,2.86-3.42,1.43-6.44,3.83-9.64,5.8.23.33.45.66.68,1,11.42-7.43,14.12-8.26,22.91-6.95-3.65,1.21-7.18,2.39-10.71,3.56,1.49.06,2.99.29,4.46.16,4.26-.37,8.51-.88,12.93-.52-12.16,2.9-23.49,6.9-31.5,17.16Z"/>
      <path class="cls-1" d="M282.18,166.02s-.04-.04-.06-.05c-.02.06-.03.12-.05.19l.11-.13Z"/>
      <path class="cls-1" d="M326.44,79.97c.95-.85,1.8-1.18,2.41-1.33,1.07-.25,1.81-.03,2.42-.64.23-.23.19-.34.71-1.14.62-.95.79-.99.78-1.14-.03-1.17-11.08-2.66-20.28-.49-2.08.49-4.68,1.32-6.93,3.5-.99.96-1.63,1.92-2.02,2.57,1.91.57,3.82,1.13,5.73,1.7,3.62,3.57,8.71,4.56,12.51,2.6,3.14-1.62,4.34-4.7,4.67-5.65Z"/>
    </g>
    <path class="cls-2" d="M317.27,84.46c0-.22,2.08.19,3.94-.97,1.77-1.1,2.32-2.99,2.65-2.84.23.1.15,1.03-.21,1.79-.91,1.92-3.38,2.25-3.81,2.31-1.34.18-2.57-.12-2.57-.29Z"/>
  </g>
</svg>