<?xml version="1.0" encoding="utf-8"?>
<!-- Generator: Adobe Illustrator 28.3.0, SVG Export Plug-In . SVG Version: 6.00 Build 0)  -->
<svg version="1.1" id="Layer_1" xmlns="http://www.w3.org/2000/svg" xmlns:xlink="http://www.w3.org/1999/xlink" x="0px" y="0px"
	 viewBox="0 0 461.4 868.4" style="enable-background:new 0 0 461.4 868.4;" xml:space="preserve">
<style type="text/css">
	.st0{fill:#FFFFFF;}
</style>
<g>
	<path class="st0" d="M353,529.4c6.7,6.9,9.2,7,17.4,1.9c16.5-10.4,30.9-23.2,42.8-38.6c21.2-27.4,34-58.7,41.1-92.3
		c4.8-22.4,6.9-45.1,7-68c0-6.8-2.5-10.9-9.2-13.4c-16.4-6.1-29.5-17.1-39.1-31.5c-8-12-14.6-24.9-21.5-37.6
		c-3.2-6-6.2-7.5-12.4-4.7c-2.9,1.3-5.6,2.9-8.3,4.6c-15.9,10.5-30.4,22.8-42.8,37.3c-1.4,1.6-2.8,3.1-5.5,6.1
		c-8.1-19.4-13.5-38.2-16.8-59.1c5.6,1.8,9.5,3.2,13.4,4.3c3.3,0.9,5.7-0.2,5.8-4.1c0.5-18.1-1.3-35.6-11.1-51.5
		c-6.2-10.1-14.3-17.8-25.8-20.8c-7.9-2.1-15-7.6-23.9-5.5c-1,0.2-2.2-0.6-2.3-0.6c-0.3-4.4-0.6-8.2-0.9-12c1-0.4,2.2-1.4,3.2-2.2
		c1.2-1,10.8-7.3,7.4-13.5c-3.8-7-5-14.1-4.6-21.8c0-0.6-0.2-1.4-0.5-1.9c-6.1-10.7,1.4-21.6-0.2-32.4c-0.1-0.6,0.6-1.6,1.2-2.1
		c5.1-4.1,2.8-8.4,0.8-12.9c-1.8-4.1-3.9-8.1-5-12.4c-0.3-1.2-0.1-4.1,1.8-6.3c0.4-0.4,1.2-1.2,3.3-2.1c1.2-0.5,5.5-2,13.1-1.2
		c3.2,0.3,4.7,0.9,5.2,0.1c0.7-1-0.8-3.4-2.5-4.8c-0.7-0.6-3-3.2-7.8-2.4c-5.1,0.9-10.1,2.7-15,4.7c-2.8,1.2-5.1,3.4-9,6
		c-0.6-6.6-1.4-12.2-1.4-17.7c0-2,1.7-4.3,3.3-5.8c2.3-2.1,3.9-2.1,7.4-5c2-1.6,4-3.2,3.7-4.8c-0.3-1.8-3.4-2.6-4.8-2.9
		c-4.6-1.1-35.2-3.7-46.1-2.2c-1.4,0.2-3.2,2.2-3.8,3.8c-1.6,4.5-4.5,7.1-9.1,8.4c-6.2,1.8-12.7,3.2-18.5,6
		c-36,17-52.8,46.2-53.6,85.4c-0.1,6.9,0.1,6.9-6.7,6.3c-4.9-0.4-10.3,3.2-13,7.6c-2.7,4.5-2,9.5-1.2,12.4
		c-3.9,2.5-8.6,3.7-12.9,1.3c-2.9-1.6-6-4.7-6.8-7.7c-1.1-4.1,3-6.2,6.4-7.8c2.3-1.1,4.8-1.9,7.3-2.9c-3.9-4.8-9.2-4.8-14-0.4
		c-8.1,7.4-7.9,22.2,0.5,31.8c4,4.6,8.9,6.8,15.1,5.8c1.9-0.3,4-0.1,6-0.1c-0.8,2.2-1.9,3.8-3.3,4.1c-3.9,1-8,2.3-12,2.2
		c-7.1-0.1-13.9-0.2-20.4,3.3c-9.2,5-12.6,15.1-7.7,23.2c4.2,6.9,8.5,7.4,13.7,1.4c3-3.5,4.2-3.2,5.6-3.6c3.1-0.7,6.9,0.4,7.3,2.1
		c0.5,2.4-5.6,5.6-6.8,6.2c-5.7,2.8-8.5,1.8-17,3.3c-7.8,1.4-13,2.4-16.3,6.6c-2.8,3.6-4.2,9.1-2.2,11c1.4,1.3,4.3,0.6,4.8,0.4
		c2.1-0.9,3.8-2.6,5.5-4.2c11.2-10.7,23.9-4.1,36.2-3.4c-2.8,1.4-5.6,2.4-8.4,3c-11.7,2.4-16.4,10.5-12.2,21.6c1.1,2.9,1,5-0.8,7.7
		c-4.2,6.1-2.5,13.4,3.8,16.7c1.4,0.7,3.6,0.1,5.4,0.1c-0.4-1.6-0.3-3.5-1.3-4.7c-4.8-5.7-3.8-10.6,3-13.8
		c6.1-2.8,12.4-2.2,18.6-0.4c5.2,1.5,5.6,2.6,3.1,7.5c-2.5,4.7-1.4,8.1,3.3,10.1c-5.7,21-5.5,43.6-18,62.8c-8.3-1-9.8,0.8-7.4,9.9
		c0.2,1,0.8,1.9,0.8,2.9c0,5.8,0.3,11.6-0.3,17.3c-0.6,5.1-2.2,10.1-3.5,15.1c-1.6,6-4.4,11.8-4.8,17.8c-0.7,10.7-4.3,20.4-8,30.2
		c-0.7,1.7-1.8,3.6-1.5,5.2c0.9,5.3-1.7,8.8-5,12.4c-1.3,1.5-2.6,4.5-1.9,6c1.8,4.1,0.7,7.5-1.3,10.9c-4.8,8.1-8.8,16.4-8.1,28.1
		c-5.8-3-10.9-5-15.2-7.9c-5.6-3.8-9.1-3.3-12,2.7c-3.1,6.4-1.1,10.5,5.7,12.4c3.1,0.9,6.5,1.6,9.2,3.2c3.9,2.4,7.1,5.9,11,8.3
		c6.3,3.9,6.9,5.3,4.5,12.4c-2,6.1-3.8,12.2-5.3,18.4C36.7,577.1,22.3,635.3,8.4,693.6c-3.8,16-6.1,32.4-8.2,48.7
		c-0.9,6.9,0.5,14.1,0.9,22.1c2.1-1.2,3-1.6,3.7-2.2c7.4-6.1,12.8-13.8,16-22.6c6.1-16.7,12.4-33.4,17.3-50.5
		c14.2-49.1,27.8-98.4,41.4-147.7c3.1-11.1,8.5-21.5,7.3-33.8c-0.7-6.6,5-10.4,10.4-7.8c5.9,2.9,11.8,4.5,18.8,3.5
		c-0.7,2-1.1,3.4-1.6,4.8c-8.4,21.7-17.2,43.3-25.2,65.2c-8.6,23.3-16.8,46.7-29.6,68.2c-1.2,1.9-2.1,4.3-2.1,6.5
		c-0.1,13-0.1,26,0.5,39c0.3,6-0.9,11.1-4.2,16c-4,5.9-7.8,12-11.3,18.3c-3.7,6.7-5.8,14-3.5,21.7c1.9,6.4,0.5,11.7-3,17
		c-2.8,4.5-5.3,9.2-7.6,14c-2.6,5.5-5.1,11.1-7.1,16.8c-1.2,3.6-3.2,8.6-1.7,10.9c1.5,2.3,7,2.8,10.7,2.7c3.5-0.1,7.2-1.5,10.4-3.2
		c5-2.6,9.7-5.8,14.3-9c3.8-2.6,7.2-5.5,6.3-11c-0.2-1.2,0.8-2.9,1.7-4c8.8-11.2,13.4-24.2,15.7-38c2.2-13.4,6.2-26.2,11.6-38.6
		c3.9-9,6.9-18.4,10.3-27.6c0.4-1.1,1-2.1,1.9-4.1c1.5,26.3,0.2,51.1-5.4,75.7c-2.5,11-7.2,20.9-15.1,28.8c-4.3,4.3-5.5,9.1-2.7,14
		c3.3,5.8,1.3,10-2.1,14.5c-1.2,1.6-2.4,3.2-3.2,5.1c-4.6,11.2-13,16-25,17.4c-13.9,1.6-27.5,5-41.3,7.6c3.4,1.7,6.8,2.5,10.2,2.7
		c10.8,0.5,21.6,0.8,32.5,1c3.1,0,4.7,0.8,5.5,4.2c0.7,2.9,2.5,5.9,4.6,8.1c10,10.4,28.4,11.5,40.2,2.9c1.5-1.1,3.6-1.6,5.6-1.9
		c36.3-6,72.8-8.7,109.5-6.4c4,0.2,5.9,1,6.6,5.2c1.2,7,4.8,13.9,10.9,16.6c13.2,5.8,26.9,5.5,39.9-1.7c4.1-2.3,4.5-5.8,2.5-9.9
		c-1-2-2-4.1-3.3-7c20.3-1.4,39.9-2.8,59.5-4.2c-1.5-0.8-3.1-1.3-4.7-1.5c-18.9-2.2-37.7-4.3-56.6-6.5c-2-0.2-4.7-0.7-5.6-2.1
		c-3.3-5-6.3-10.2-8.7-15.7c-1.3-3-2.7-6.8,1.5-9.2c8-4.8,9.7-7.3,6.6-16.7c-5-14.9-0.4-28.9,2.7-43.2c0.8,1.3,1.2,2.7,1.4,4.1
		c1,6.8,1.8,13.5,3.1,20.2c3.8,19.9,19.9,33.6,39.2,33c4.8-0.2,7.1,1.4,9.1,5.4c8,15.5,20.1,25.4,37.7,27.9
		c8.8,1.2,17.5,2.7,25.9-1.8c1-0.5,2.6-0.4,3.8-0.1c17.1,4.3,31.5-1,44-12.6c1.9-1.8,4.1-5.6,3.4-7.3c-1-2.3-4.6-4.5-7.2-4.8
		c-17-1.5-29.2-11.1-39-23.7c-6.7-8.6-11.3-18.8-17-28.1c-2.2-3.5-2.5-7-1.2-10.9c3.5-10.9,2.2-21.2-2.9-31.5
		c-4.4-8.8-7.8-18-11.6-27.1c-1-2.4-0.8-4.1,1.5-6c7.6-6.5,7.5-8.8,3.5-18.2c-4.9-11.6-10.3-23.3-13.1-35.5
		c-8.4-35.6-11.9-72-14-108.4c-0.3-4.8,0-9.6,0-13.5C339.8,514.9,346.2,522.3,353,529.4L353,529.4z"/>
	<g>
		<path d="M353,529.4c6.7,6.9,9.2,7,17.4,1.9c16.5-10.4,30.9-23.2,42.8-38.6c21.2-27.4,34-58.7,41.1-92.3c4.8-22.4,6.9-45.1,7-68
			c0-6.8-2.5-10.9-9.2-13.4c-16.4-6.1-29.5-17.1-39.1-31.5c-8-12-14.6-24.9-21.5-37.6c-3.2-6-6.2-7.5-12.4-4.7
			c-2.9,1.3-5.6,2.9-8.3,4.6c-15.9,10.5-30.4,22.8-42.8,37.3c-1.4,1.6-2.8,3.1-5.5,6.1c-8.1-19.4-13.5-38.2-16.8-59.1
			c5.6,1.8,9.5,3.2,13.4,4.3c3.3,0.9,5.7-0.2,5.8-4.1c0.5-18.1-1.3-35.6-11.1-51.5c-6.2-10.1-14.3-17.8-25.8-20.8
			c-7.9-2.1-15-7.6-23.9-5.5c-1,0.2-2.2-0.6-2.3-0.6c-0.3-4.4-0.6-8.2-0.9-12c1-0.4,2.2-1.4,3.2-2.2c1.2-1,10.8-7.3,7.4-13.5
			c-3.8-7-5-14.1-4.6-21.8c0-0.6-0.2-1.4-0.5-1.9c-6.1-10.7,1.4-21.6-0.2-32.4c-0.1-0.6,0.6-1.6,1.2-2.1c5.1-4.1,2.8-8.4,0.8-12.9
			c-1.8-4.1-3.9-8.1-5-12.4c-0.3-1.2-0.1-4.1,1.8-6.3c0.4-0.4,1.2-1.2,3.3-2.1c1.2-0.5,5.5-2,13.1-1.2c3.2,0.3,4.7,0.9,5.2,0.1
			c0.7-1-0.8-3.4-2.5-4.8c-0.7-0.6-3-3.2-7.8-2.4c-5.1,0.9-10.1,2.7-15,4.7c-2.8,1.2-5.1,3.4-9,6c-0.6-6.6-1.4-12.2-1.4-17.7
			c0-2,1.7-4.3,3.3-5.8c2.3-2.1,3.9-2.1,7.4-5c2-1.6,4-3.2,3.7-4.8c-0.3-1.8-3.4-2.6-4.8-2.9c-4.6-1.1-35.2-3.7-46.1-2.2
			c-1.4,0.2-3.2,2.2-3.8,3.8c-1.6,4.5-4.5,7.1-9.1,8.4c-6.2,1.8-12.7,3.2-18.5,6c-36,17-52.8,46.2-53.6,85.4
			c-0.1,6.9,0.1,6.9-6.7,6.3c-4.9-0.4-10.3,3.2-13,7.6c-2.7,4.5-2,9.5-1.2,12.4c-3.9,2.5-8.6,3.7-12.9,1.3c-2.9-1.6-6-4.7-6.8-7.7
			c-1.1-4.1,3-6.2,6.4-7.8c2.3-1.1,4.8-1.9,7.3-2.9c-3.9-4.8-9.2-4.8-14-0.4c-8.1,7.4-7.9,22.2,0.5,31.8c4,4.6,8.9,6.8,15.1,5.8
			c1.9-0.3,4-0.1,6-0.1c-0.8,2.2-1.9,3.8-3.3,4.1c-3.9,1-8,2.3-12,2.2c-7.1-0.1-13.9-0.2-20.4,3.3c-9.2,5-12.6,15.1-7.7,23.2
			c4.2,6.9,8.5,7.4,13.7,1.4c3-3.5,4.2-3.2,5.6-3.6c3.1-0.7,6.9,0.4,7.3,2.1c0.5,2.4-5.6,5.6-6.8,6.2c-5.7,2.8-8.5,1.8-17,3.3
			c-7.8,1.4-13,2.4-16.3,6.6c-2.8,3.6-4.2,9.1-2.2,11c1.4,1.3,4.3,0.6,4.8,0.4c2.1-0.9,3.8-2.6,5.5-4.2c11.2-10.7,23.9-4.1,36.2-3.4
			c-2.8,1.4-5.6,2.4-8.4,3c-11.7,2.4-16.4,10.5-12.2,21.6c1.1,2.9,1,5-0.8,7.7c-4.2,6.1-2.5,13.4,3.8,16.7c1.4,0.7,3.6,0.1,5.4,0.1
			c-0.4-1.6-0.3-3.5-1.3-4.7c-4.8-5.7-3.8-10.6,3-13.8c6.1-2.8,12.4-2.2,18.6-0.4c5.2,1.5,5.6,2.6,3.1,7.5
			c-2.5,4.7-1.4,8.1,3.3,10.1c-5.7,21-5.5,43.6-18,62.8c-8.3-1-9.8,0.8-7.4,9.9c0.2,1,0.8,1.9,0.8,2.9c0,5.8,0.3,11.6-0.3,17.3
			c-0.6,5.1-2.2,10.1-3.5,15.1c-1.6,6-4.4,11.8-4.8,17.8c-0.7,10.7-4.3,20.4-8,30.2c-0.7,1.7-1.8,3.6-1.5,5.2
			c0.9,5.3-1.7,8.8-5,12.4c-1.3,1.5-2.6,4.5-1.9,6c1.8,4.1,0.7,7.5-1.3,10.9c-4.8,8.1-8.8,16.4-8.1,28.1c-5.8-3-10.9-5-15.2-7.9
			c-5.6-3.8-9.1-3.3-12,2.7c-3.1,6.4-1.1,10.5,5.7,12.4c3.1,0.9,6.5,1.6,9.2,3.2c3.9,2.4,7.1,5.9,11,8.3c6.3,3.9,6.9,5.3,4.5,12.4
			c-2,6.1-3.8,12.2-5.3,18.4C36.7,577.1,22.3,635.3,8.4,693.6c-3.8,16-6.1,32.4-8.2,48.7c-0.9,6.9,0.5,14.1,0.9,22.1
			c2.1-1.2,3-1.6,3.7-2.2c7.4-6.1,12.8-13.8,16-22.6c6.1-16.7,12.4-33.4,17.3-50.5c14.2-49.1,27.8-98.4,41.4-147.7
			c3.1-11.1,8.5-21.5,7.3-33.8c-0.7-6.6,5-10.4,10.4-7.8c5.9,2.9,11.8,4.5,18.8,3.5c-0.7,2-1.1,3.4-1.6,4.8
			c-8.4,21.7-17.2,43.3-25.2,65.2c-8.6,23.3-16.8,46.7-29.6,68.2c-1.2,1.9-2.1,4.3-2.1,6.5c-0.1,13-0.1,26,0.5,39
			c0.3,6-0.9,11.1-4.2,16c-4,5.9-7.8,12-11.3,18.3c-3.7,6.7-5.8,14-3.5,21.7c1.9,6.4,0.5,11.7-3,17c-2.8,4.5-5.3,9.2-7.6,14
			c-2.6,5.5-5.1,11.1-7.1,16.8c-1.2,3.6-3.2,8.6-1.7,10.9c1.5,2.3,7,2.8,10.7,2.7c3.5-0.1,7.2-1.5,10.4-3.2c5-2.6,9.7-5.8,14.3-9
			c3.8-2.6,7.2-5.5,6.3-11c-0.2-1.2,0.8-2.9,1.7-4c8.8-11.2,13.4-24.2,15.7-38c2.2-13.4,6.2-26.2,11.6-38.6
			c3.9-9,6.9-18.4,10.3-27.6c0.4-1.1,1-2.1,1.9-4.1c1.5,26.3,0.2,51.1-5.4,75.7c-2.5,11-7.2,20.9-15.1,28.8c-4.3,4.3-5.5,9.1-2.7,14
			c3.3,5.8,1.3,10-2.1,14.5c-1.2,1.6-2.4,3.2-3.2,5.1c-4.6,11.2-13,16-25,17.4c-13.9,1.6-27.5,5-41.3,7.6c3.4,1.7,6.8,2.5,10.2,2.7
			c10.8,0.5,21.6,0.8,32.5,1c3.1,0,4.7,0.8,5.5,4.2c0.7,2.9,2.5,5.9,4.6,8.1c10,10.4,28.4,11.5,40.2,2.9c1.5-1.1,3.6-1.6,5.6-1.9
			c36.3-6,72.8-8.7,109.5-6.4c4,0.2,5.9,1,6.6,5.2c1.2,7,4.8,13.9,10.9,16.6c13.2,5.8,26.9,5.5,39.9-1.7c4.1-2.3,4.5-5.8,2.5-9.9
			c-1-2-2-4.1-3.3-7c20.3-1.4,39.9-2.8,59.5-4.2c-1.5-0.8-3.1-1.3-4.7-1.5c-18.9-2.2-37.7-4.3-56.6-6.5c-2-0.2-4.7-0.7-5.6-2.1
			c-3.3-5-6.3-10.2-8.7-15.7c-1.3-3-2.7-6.8,1.5-9.2c8-4.8,9.7-7.3,6.6-16.7c-5-14.9-0.4-28.9,2.7-43.2c0.8,1.3,1.2,2.7,1.4,4.1
			c1,6.8,1.8,13.5,3.1,20.2c3.8,19.9,19.9,33.6,39.2,33c4.8-0.2,7.1,1.4,9.1,5.4c8,15.5,20.1,25.4,37.7,27.9
			c8.8,1.2,17.5,2.7,25.9-1.8c1-0.5,2.6-0.4,3.8-0.1c17.1,4.3,31.5-1,44-12.6c1.9-1.8,4.1-5.6,3.4-7.3c-1-2.3-4.6-4.5-7.2-4.8
			c-17-1.5-29.2-11.1-39-23.7c-6.7-8.6-11.3-18.8-17-28.1c-2.2-3.5-2.5-7-1.2-10.9c3.5-10.9,2.2-21.2-2.9-31.5
			c-4.4-8.8-7.8-18-11.6-27.1c-1-2.4-0.8-4.1,1.5-6c7.6-6.5,7.5-8.8,3.5-18.2c-4.9-11.6-10.3-23.3-13.1-35.5
			c-8.4-35.6-11.9-72-14-108.4c-0.3-4.8,0-9.6,0-13.5C339.8,514.9,346.2,522.3,353,529.4L353,529.4z M312,289.3
			c0.7,2.4,3,4.2,4.1,6.5c0.7,1.5,1.3,4,0.5,5c-3.7,4.6-8,8.9-11.9,13.2c-2.7-4.2-4.6-7.8-7.1-10.8c-13-15.5-15.1-32.7-8.6-51.5
			c1.5-4.3,1.7-9.1,2.4-13.7c0.3-1.9,0.4-3.8,0.7-5.7c0.5-0.1,0.9-0.2,1.4-0.4c1.1,1.9,2.6,3.6,3.2,5.7
			C301.8,254.9,306.7,272.2,312,289.3L312,289.3z M270.3,399.1c2.8,7.6,5.2,14.1,7.4,20.7c0.4,1.3,0.2,3.3-0.6,4.4
			c-2,2.8-4.5,5.2-7.3,7.7C270,421.3,267.6,410.6,270.3,399.1z M265.9,472c3.3,8.1-1,13-8.1,18.2c-0.8-28.8-1.7-56.5-2.3-84.3
			c-0.1-4.3-0.5-9.3,4.9-12.9c0.6,2.7,1.3,4.7,1.4,6.8c1.3,22.2,2.5,44.5,3.7,66.7C265.5,468.4,265.2,470.4,265.9,472L265.9,472z
			 M235.1,395.2c-15.3,1.5-28.3-4.8-41.4-11c-10.5-5-20.5-11.1-32.3-12.9c-3.7-0.5-7.4-0.8-11.5-1.1c2.3-5.1,6.2-5.8,9.9-4.6
			c11,3.7,21.8,7.9,32.6,12.1c10,3.9,19.7,8.9,29.9,12.1c13.6,4.3,25.9-0.6,37.4-7.6c7.5-4.6,14.6-9.8,21.6-15.1
			c2.3-1.7,3.9-4.4,5.8-6.6l0,0c2-0.8,3.9-1.5,7.2-2.8c-1.9,3.4-2.9,6.9-5.1,8.9C273.6,380.5,257.1,393,235.1,395.2L235.1,395.2z
			 M258.7,634.5c-1.6,1.2-2.8,2.7-4.1,2.9c-4,0.7-10.1-4.9-12.5-11.7c4,2.8,7.4,5.1,10.9,7.5c0.3-0.4,0.6-0.7,0.9-1.1
			c-9.2-7.2-17.3-15.3-24.1-24.6c0.4-0.4,0.9-0.9,1.3-1.3l20.9,18.8c0.4-0.4,0.8-0.9,1.2-1.3c-2.8-2.7-5.6-5.2-8.3-8
			c-4.1-4.3-9.8-8.5-6.9-15.3c3.2-7.5,9.3-12.5,17.6-14.2c1.9-0.4,3.9-0.1,6.1-0.1c-2.3,13.2-4.5,26-7,40.3
			c8.7-4.8,16.1-8.8,23.4-12.8l0.6,1.2c-6.2,3.9-12.5,7.6-18.5,11.7c-2.4,1.6-4.2,4.1-7.1,6.9C255.8,633.9,256.9,634.1,258.7,634.5
			L258.7,634.5z M227.7,686.3c3.4,15.1,6.9,30.1,10.3,45c-2.8-21.6-5.6-43.5-8.4-65.4c0.5-0.1,1-0.2,1.5-0.4
			c4.1,6.8,8.6,13.4,12.2,20.5c1.4,2.7,1.1,6.5,0.8,9.7c-2.2,22.5-4.6,45.1-7,67.6c-0.1,1.3-0.1,2.6-0.2,3.9
			c0.4,0.3,0.9,0.6,1.4,0.9c0.8-1.2,2.3-2.3,2.4-3.5c1.8-19.2,3.4-38.5,5-57.8c0.4-5.3,0.6-10.7,1.2-16c0.1-1,1.3-1.8,1.9-2.7
			c0.4,0.9,1.3,1.9,1.3,2.8c-0.2,4.8-0.5,9.7-1,14.5c-1.8,19.1-3.7,38.1-5.4,57.2c-0.2,2.1,0.8,4.3,1.2,6.4
			c-3.6,0.5-8.4,1.1-13.2,1.7c0.5-5.4,1.2-11.4,1.6-17.4c1.4-19.4-0.8-38.4-7.5-56.6c-8.7-23.5-3.6-45.2,7-66.4c0.8-1.6,2-3,3.5-4.1
			c-2.6,8.3-5.1,16.7-7.9,25C224.6,662.9,225.1,674.6,227.7,686.3L227.7,686.3z M220.7,521.2c-0.3,26.1-0.7,52.3-1.2,78.4
			c-0.1,3-0.5,5.9-0.9,9.8c-5.3-3.2-8.3-6.1-8.2-11.9c0.5-57.9,0.8-115.9,1.2-173.8c0-6.3,0.3-12.6,0.9-18.9
			c0.1-1.5,1.9-2.9,2.9-4.4c1.8,1.3,4.4,2.3,5.1,4c1.1,2.7,1,5.9,1,8.9C221.3,449.3,221.1,485.2,220.7,521.2L220.7,521.2z
			 M226.8,572.9c0-9.5,0.1-17.6,0-25.8c-0.3-43-0.7-86-1-129c0-3.7,0.1-7.4,0.8-10.9c0.3-1.7,2-3.8,3.5-4.3c2.9-0.9,4.7,1.2,5.1,4
			c0.6,4.5,1.2,9,1.2,13.4c0.5,33.5,0.8,67,1.2,100.5c0.1,11.7,0,23.3,0.7,35C238.8,564,234.5,568.3,226.8,572.9L226.8,572.9z
			 M271.1,582.7c-12.4-5.5-22.8,0.3-33.1,6.3C245.5,577.9,262.2,574.8,271.1,582.7z M244.1,579.8c0.1-5.7,3.6-8.9,11.9-10.4
			c10.7-2,15.7,1.5,20.8,14.7C267.4,572.1,257.7,573,244.1,579.8L244.1,579.8z M243.9,534.1c-0.5-13.8-0.9-27.4-1.4-41
			c-0.9-26.3-1.8-52.6-2.6-78.9c-0.1-2.7-0.2-5.4,0.4-8c0.4-1.6,2.2-2.8,3.3-4.2c0.9,1.3,2.6,2.6,2.8,4c0.9,7.8,1.5,15.6,1.9,23.4
			c1.7,27.4,3,54.9,5,82.2C254,520.9,252.6,528.5,243.9,534.1L243.9,534.1z M252,464c-0.8-19.6-1.6-39.1-2.4-58.7
			c0.6,0,1.1,0,1.6-0.1c3.1,19.4,2.4,39,2.4,58.6C253.1,463.9,252.5,464,252,464L252,464z M130.9,635.1c-2.2-3.3-4-6.9-5.5-10.5
			c-2.2-5.3-4-10.7-6-16.1c0.5-0.2,0.9-0.4,1.4-0.5c6.2,9.6,12.3,19.2,18.6,29.1C135.1,639.4,132.6,637.6,130.9,635.1L130.9,635.1z
			 M134.2,647.1c-3.2,10.3-6.8,20.5-10.4,31.1c-2.9-6.9-5.1-13.2-8.1-19.1c-3.5-6.9-3.3-13.4,0.5-20c2.2-3.9,4.4-7.8,6.6-11.6
			c3.7,4.9,7.3,9.6,10.7,14.5C134.3,643.4,134.7,645.6,134.2,647.1L134.2,647.1z M134.9,624.7c-3.9-5.6-7.2-11.5-10.5-17.5
			c-0.8-1.5-0.5-3.6-0.7-5.4c0.4-0.1,0.9-0.2,1.4-0.3c2.6,4.7,5.1,9.4,7.9,14c1.1,1.9,3,3.3,4.5,5c-2.7-6.4-5.5-12.8-8.2-19.2
			c-1.2-2.7-0.3-4.6,2-6.4c6.4-5.1,16.8-7.2,22.7-3.8c-1.1,2.8-2,5.8-3.3,8.6c-3,6.8-6.1,13.6-9.3,20.4c-0.6,1.2-1.8,2-2.8,3
			c2.2,3.7,5.6,4.6,9.5,3.6c5.9-1.6,11.8-3.4,17.7-5.1c1.4-0.4,2.7-0.9,5.2-1.7c-1.1,1.6-1.4,2.5-2,2.7c-8.9,3.7-18.1,7-28,5.7
			C138.8,627.9,136.1,626.4,134.9,624.7L134.9,624.7z M147.7,395c8.6-4,17.4-7.5,26.1-11.1c0.9-0.4,1.8-0.5,3.9-1.1
			c-6.5,10.2-15.7,14.6-24.7,19.2c-2.7,1.3-5.5,2.4-8.4,3.3c-1.2,0.4-2.7-0.1-4.1-0.2c0.2-1.4-0.2-3.3,0.6-4.2
			C143.1,398.7,145.1,396.2,147.7,395L147.7,395z M146.8,391.6c4.1-14.5,7.5-17.4,24-10.9C162,384.7,154.6,388.1,146.8,391.6z
			 M154.5,406.7c9.6-4,18.2-10.3,27.2-15.5c1.6-1,3.4-1.7,5.1-2.5c0.4,0.3,0.8,0.6,1.1,1c-0.8,1.6-1.2,3.5-2.4,4.7
			c-4.9,5-9.5,10.4-15,14.5c-10.9,8-22.4,15.3-33.6,22.9c-0.6-0.4-1.3-0.8-1.9-1.1c0.8-2.9,1-6.2,2.6-8.6
			C141.8,415.5,146.6,409.9,154.5,406.7L154.5,406.7z M183.5,404.7c-4.4,10.4-34,38.1-47.5,44.4c-1.5-7.1,1.3-12.2,6.5-16
			c9.8-7.1,19.9-14,29.8-20.9C175.9,409.7,179.6,407.3,183.5,404.7L183.5,404.7z M156.8,438.4c9.9-8.8,20-17.3,28.8-24.9
			c-2.6,10.5-46.5,53.7-60.3,56.5c1.9-3,2.8-5.2,4.4-6.7C138.6,455,147.6,446.6,156.8,438.4L156.8,438.4z M151.3,572.2
			c9.6,0.5,14.1,4.4,16.6,15c-11.7-14.4-25.2-7.5-38.4-3.8C131.8,578.1,143.9,571.8,151.3,572.2L151.3,572.2z M152.1,582.3
			c5.5,0.6,8.7,5.1,11.2,10c-9.8-11.2-20.9-6.2-31.9-2.9c-2,0.6-3.9,1.2-5.9,1.8c-0.1-0.5-0.3-0.9-0.4-1.4
			C133.7,586.1,142.2,581.3,152.1,582.3L152.1,582.3z M167,573.2c-7.5-2.6-15-5.3-23-3.8c-0.8-21.2-1.9-42-2.2-62.9
			c-0.1-8.4,1.2-16.9,2.3-25.3c0.9-7.4,4.2-13.8,10-18.5c11.3-9,22.8-17.8,34.3-26.6c0.6-0.5,1.4-0.6,2.8-1.2
			c-0.7,9.2-1.3,17.7-2.1,26.3c-0.9,8.8-1.4,17.2,6.1,24.1c1.5,1.4,2.1,4.7,1.6,6.9c-3.5,19-6.5,38.1-11.4,56.7
			c-2.3,8.5-8.5,16-13.3,23.8C171.5,573.6,168.5,573.7,167,573.2L167,573.2z M195.6,472.3c-0.9-1.3-0.9-3.5-0.8-5.2
			c1.2-21.6,2.5-43.2,3.9-64.8c0.2-3.3,0.8-6.5,1.2-9.8c0.5-0.2,1.1-0.5,1.6-0.7c1.3,2.1,3.4,4,3.8,6.3c0.9,5.4,1.2,10.9,1.3,16.4
			c0.3,22.8,0.5,45.6,0.6,68.4c0,1.2-0.3,2.5-0.5,4.8C202.5,482,198.9,477.3,195.6,472.3L195.6,472.3z M198.5,574
			c1.4-24.6,2.9-49.1,4.4-73.7c0.1-1.8,0.5-3.6,0.8-5.4c0.5-0.2,1-0.4,1.4-0.6c0.8,1.7,2.3,3.5,2.3,5.2c-0.4,26.1-1.1,52.2-1.8,78.3
			c0,1.3-0.5,2.5-0.8,4.3C201,580.3,198.3,578.4,198.5,574L198.5,574z M182.4,201.3c1.9-0.7,2.8-1.4,3.4-1.2
			c6.4,1.7,12.8,3.4,19.2,5.3c7.8,2.3,14.6,6.3,20.2,12.3c4.8,5.1,6.4,4.7,11.2-0.3c7.9-8.2,16.8-14.4,29.1-11.5
			c2.2,0.5,4.1,1.8,6.2,2.6c-7.6-1.3-12.8,0.1-16,1.3c-5.9,2.4-11.6,7.3-14.9,10.1c-5.3,4.6-6.6,6.8-9.5,6.7c-2.8-0.1-5.6-2.4-9.2-7
			c-9-11.5-20.9-14.6-34.7-11.9c-1.8,0.4-3.4,1.7-5.1,2.6c8.3-3.1,16.5-2.1,24.3,1.2c8.1,3.5,9.3,10,3.2,16.2
			c-8.4,8.4-18.6,12.1-30.4,9.9c-8.1-1.5-11.9-7.7-10.3-15.7c-3.6,3.2-3.8,7-1.3,10.8c2.5,3.9,5.6,7.5,8,11.9c-2.9-2-5.8-4-9-6.2
			c0.9,4.6,3.7,7.4,7.5,9.4c13.7,7.3,31.3,4.4,43.8-7.4c3.6-3.4,7.1-6.8,10.6-10.3l1.3,0.9c-0.7,1.3-1.3,2.7-2.2,3.9
			c-9.6,12.2-22,19.8-37.6,21.1c-11.9,1-20.9-4.3-25.4-13.9c-1.2-2.5-1.9-5.1-2.1-7.8c-0.9-9.7,5.5-17.5,8-20.2
			c6.8-7.4,16.6-10.9,16.1-11.9c-0.1-0.1-0.2-0.1-1.1-0.3C184,201.8,183,201.5,182.4,201.3L182.4,201.3z M263.6,253
			c-11.7-1.7-20.9-7.8-27.5-17.9c1,0.8,1.9,1.7,3,2.4c5.8,3.8,11.2,8.5,17.5,11.2c14.5,6.1,24.6,2.8,28.5-14.4
			C284.5,247.2,276,254.8,263.6,253L263.6,253z M288.4,317c-8-3.2-13.4-18.2-10.3-30.1C282.4,297.4,289.5,305.7,288.4,317z
			 M275.1,267.5c-15.9-0.7-30.8-3.7-41.6-16.6C246.2,259.2,259.7,265.6,275.1,267.5z M233.3,239.5c11.8,11.2,24.7,19.5,40.8,21.6
			C261,261.6,234.5,251.7,233.3,239.5z M280.6,228c-0.7,2.5-2.9,3.7-4.3,4.7c-3.7,2.5-7.5,2.6-9.1,2.5c-1.1-0.1-1.6-0.2-8.7-2.8
			c-6.2-2.3-6.9-2.7-8.2-3.5c-6.9-4-6.3-10.3,0.5-14.3c6-3.5,12.4-4.6,19.1-2.6c1.1,0.3,2.2,0.8,3.2,1.3
			C279,216.2,282.1,222.4,280.6,228L280.6,228z M231.5,252.1c-3.7,11.4-38.1,26.2-53.5,22.9C196,267.8,216.6,266.6,231.5,252.1
			L231.5,252.1z M168,261.5c0.6-0.4,2.7,3,5.8,4.9c8.2,4.9,19.2-4.5,50.9-17c0.5-0.2,0.9-0.4,1.2-0.5c-9.9,6.6-18.6,11.4-25.1,14.8
			c-7,3.7-22.6,11.4-27.2,7.2c-0.4-0.4-1.5-1.6-2.5-3C169.1,265.4,167.4,261.9,168,261.5z M176.8,319.5c4.1-8.5,5.3-17.2,1.9-26.1
			c-1.7-4.6,0.3-6.4,4.2-8.2c16.1-7.4,32.1-15.2,48.2-22.7c1.2-0.6,3.1-0.4,4.4,0.2c5.5,2.4,10.8,5.1,16.2,7.7
			c1.6,0.8,3.3,1.6,4.8,2.7c4.8,3.7,6.8,8.6,7.4,10.4c0.4,1.2,3.6,10.5-0.5,15.6c-0.9,1.1-3,3.1-4,4.1c-2.9,2.8-3.5,3-3.9,4.1
			c-0.8,2.2,1,3.5,3.2,8.2c3.1,6.9,2.5,10.9,5.9,12.5c0.8,0.4,1.7,0.8,2.3,0.4c2.8-1.9-6.3-19.5-2.6-23.8c0.2-0.3,0.9-0.9,1.7-2.1
			c1.9-2.6,2.1-4.1,2.6-4.1c0.9,0,0.5,4.6,2.5,9.6c1.3,3.3,4.4,8.9,8.3,13.2c0.7,0.8,2.2,2.4,2,4.3c-0.1,1-0.7,1.9-1.9,2.9
			c-9.1,7.5-17.6,16-27.4,22.5c-14.8,9.9-30.5,9-45.8,0.4c-2.4-1.4-4.7-3.1-6.9-4.9c-8.1-6.8-16.4-13.1-27.7-14.5
			C173.5,327.5,174.9,323.4,176.8,319.5L176.8,319.5z M173.9,336.6c8.1,1.4,14.1,6.4,20.3,11.2c5.1,3.9,10.4,8,16.1,10.8
			c16.3,7.9,32.3,6.7,47.2-3.6c5.2-3.6,9.7-8,14.6-12c6.1-5,12.2-9.9,18.3-14.9c0.5,0.6,1.1,1.2,1.6,1.8c-2.1,1.7-4.2,3.4-6.3,5.2
			c-9,7.9-17.6,16.3-27.2,23.5c-15.8,11.8-32.9,13.8-50.5,3.8c-5.9-3.4-11.5-7.3-16.7-11.6c-8.5-6.9-13.6-9.2-28.6-11.1
			C166.4,335.7,170,335.9,173.9,336.6L173.9,336.6z M248,371.3c2.7-1.5,5.3-2.9,7.8-4.4c3.5,6.8,5.2,10.4-2.7,13.8
			C251.4,377.6,249.7,374.5,248,371.3L248,371.3z M250.8,384.4c-4.2-0.8-7.1-6-6.4-12.6C246.4,375.8,248.4,379.7,250.8,384.4z
			 M258,363.4c5.3,1.4,7.4,6,10.1,10.2C261.8,373.3,261.3,366.9,258,363.4z M265.3,360.3c3.1-2.1,6-4.1,8.9-6
			c0.2,0.2,0.3,0.4,0.5,0.6c-2.3,2.6-4.5,5.2-6.8,7.8c0.3,0.3,0.6,0.5,1,0.8c2.8-1.9,5.5-4.2,8.5-5.6c0.9-0.4,2.9,1.7,5,3.1
			c-4.7,3.8-8,6.5-11.6,9.5C269,367.1,267.3,363.9,265.3,360.3L265.3,360.3z M275.7,353c0.4-0.5,0.7-1,1.1-1.5
			c4.6,0.8,6.1,5.8,9.4,8.3C282.7,357.5,279.2,355.3,275.7,353z M280.3,347.1c0.4-0.4,0.9-0.7,1.3-1.1c1.2,1.4,2.5,2.7,4.6,5
			c0.9-2.8,1.6-4.9,2.3-7.2c3.2,5.3,3.1,6-1.4,11.4C284.8,352.5,282.6,349.8,280.3,347.1L280.3,347.1z M229.6,374.7
			c-2,3.1-3.6,5.8-6,9.4c4.9-0.3,8.5-0.5,12.2-0.7c1.5,3.3,1.4,3.6-1.9,3.6c-3.9-0.1-7.7-0.8-12.4-1.3
			C224,381,224.6,376.5,229.6,374.7L229.6,374.7z M215.1,384.6c-0.4-0.4-0.8-0.9-1.2-1.3l10.3-13c0.4,0.4,0.9,0.8,1.3,1.2
			C221.8,375.6,221.1,382.3,215.1,384.6L215.1,384.6z M236.5,373.4c0.6-0.3,1.2-0.6,1.8-0.8c1.9,4.9,3.8,9.9,5.7,14.8
			c-0.5,0.2-1,0.4-1.5,0.6C240.5,383.2,238.5,378.3,236.5,373.4L236.5,373.4z M197.1,369c0.9,0.6,1.4,1.8,2.1,2.7
			c-1.1,0.1-2.3,0.7-3.2,0.3c-1.9-0.8-3.6-2-5.8-3.3c4.7-7,5.1-7.1,10.8-1.4c-1.5-0.7-3.1-1.4-5.2-2.3c-0.5,0.7-1.2,1.8-2.3,3.4
			C195.1,368.7,196.3,368.5,197.1,369L197.1,369z M203.5,365.2c0.8,0.7,2.1,1.6,2,1.8c-1.8,3.5-3.4,7.2-5.9,10.1
			c-0.6,0.7-4.3-1.2-6.4-2.3C199.5,376.1,204.4,371.7,203.5,365.2L203.5,365.2z M210.9,368.2c-0.4,7.7-4.6,13.3-8.4,12.3
			C205.4,376.3,208.2,372.3,210.9,368.2z M169.7,344.3c3.9,0.7,8,1.7,11.2,3.9c7.6,5.1,14.7,10.9,21.9,16.5
			c-0.6-0.2-1.1-0.4-1.6-0.7c-5.5-2.9-10.3-2-14.5,2.6c-1.2,1.4-2.7,2.6-4.5,3.5c0.8-5.7,3.8-9.6,9.9-11.4
			c-9.8-6.4-19-11.4-30.2-11.5c0-0.6-0.1-1.1-0.1-1.7C164.4,345,167.2,343.9,169.7,344.3L169.7,344.3z M165.7,355.6
			c1.4-5.2,4.9-5.1,8.9-3.8c2.1,0.8,4.2,1.8,6.2,3c2.7,1.7,2.8,3.8-0.1,6.3c0.6-5.6-2.7-7.3-7-8.2c-2.4-0.5-4.2-0.4-5.4,2.6
			c-1.8,4.4-5.5,5.8-10.9,3.7c1.7-0.5,3-1.4,4-1.1C164,359,165.2,357.6,165.7,355.6L165.7,355.6z M177.9,362.5
			c-2.5,1.2-7.9-0.9-8.3-3.7c-0.2-1.5,1.6-4.6,2.6-4.7c2.9-0.2,5.9,0.9,6.6,4.2c-0.4,0.4-0.8,0.8-1.1,1.2c-1.3-1.2-2.6-2.5-4.2-4
			C170.6,361,177.6,359.7,177.9,362.5L177.9,362.5z M174.6,365.1c-0.1,0.4-0.2,0.9-0.4,1.3c-4.6-1.4-9.2-2.8-13.7-4.2
			C166,359.2,170.2,362.5,174.6,365.1L174.6,365.1z M280.8,386.3c4.7-4,8.2-7,12.5-10.7c0.5,6,0.8,11,1.3,17.3
			C289.9,390.6,285.9,388.7,280.8,386.3L280.8,386.3z M295.3,404.8c-10.4-2.7-18.2-9.1-18.2-14.8c5.8,3,11.6,5.6,17,8.9
			C295.2,399.5,294.9,402.4,295.3,404.8L295.3,404.8z M271.6,396.9c0.3-0.5,0.6-1,0.9-1.5c2.1,1.2,4.3,2.2,6.3,3.6
			c5.2,3.6,10.4,7.1,15.4,11c1.5,1.2,2.1,3.5,3.1,5.2c-0.6,0.5-1.2,0.9-1.8,1.4C284.7,413.4,277.5,405.9,271.6,396.9L271.6,396.9z
			 M299.8,429.5c-8,1.1-19.6-8.9-20.9-17.4C293.4,419.7,299.7,424.9,299.8,429.5z M297.6,322.6c-4.8-4.8-3.8-9.9-1.2-15.2
			C303.9,311.5,304,314.4,297.6,322.6z M281.4,165.1c4.3,2.4,7.7,4.2,12.5,6.8c-4.4,3.7-7.8,6.7-11.2,9.6c-0.6-0.4-1.3-0.9-1.9-1.3
			C280.9,175.5,281.1,170.8,281.4,165.1L281.4,165.1z M275.2,163.7c1.2,0,2.1,0.3,2.6,0.8c1.2,1.1,1.2,2.9,1.1,4.3
			c-0.2,5-0.3,9.9,0.3,14.1c0.4,2.8,1,3.8,1.8,4.1c0.4,0.1,1.1,0.1,3.4-1.7c2.6-2,4-3.6,4-3.6c2.5-2.6,4.5-5.7,7.1-8.9
			c8.7,6.3,9.9,16.4,12.9,23.7c-4.4-3.9-7.7-7.3-10-9.7c-3.2-3.3-4.4-4.8-6.4-4.8c-3.4,0-7.1,4.6-6.8,8.5c0.3,3.5,4.2,5.6,12,9.7
			c4.8,2.5,9.1,4.7,11.3,3c1.1-0.9,1.3-2.5,1.4-3.7c1.1,3.1,2.3,6.2,3.4,9.3c-10-4.5-20.5-8.2-29.8-13.8
			C275.6,190.1,272.1,173.6,275.2,163.7L275.2,163.7z M306.1,199.3c-0.4,0.8-5.6-1.2-7.4-1.9c-6-2.3-11-4.2-11.2-7.3
			c-0.1-1.4,0.8-3.1,2.1-3.6c2-0.7,3.9,2,10.8,7.6C304.4,197.6,306.4,198.8,306.1,199.3z M269.8,161.3c0.5,1.8,1.8,3.7,1.5,5.4
			c-2.6,20.3,7.2,33.5,23.9,43.2c7,4,13.6,8.8,20.3,13.4c1,0.6,1.6,1.7,2.4,2.5c-0.2,0.4-0.5,0.8-0.8,1.2c-1.7-0.6-3.7-0.9-5.1-1.9
			c-11-7.9-22.1-15.9-32.9-24.1c-7-5.4-10.2-12.9-10.7-21.6c-0.4-5.8-0.6-11.5-1-17.3L269.8,161.3L269.8,161.3z M267.5,191.3
			c-19.6,20.9-75.4,13.3-90-5.3c5.5,3,32.8,17.5,53.7,14.7c4.3-0.6,17-3.1,31.4-7.7C264.6,192.3,266.4,191.7,267.5,191.3
			L267.5,191.3z M262.7,168c0.6,0.3,1.1,0.5,1.7,0.8c-1,1.9-1.6,4.2-3.1,5.5c-7.9,7.4-17.8,10.1-28.2,11.5
			c-21.1,2.9-39.7-3.8-57.4-14.4c-1.6-1-2.6-3.1-3.9-4.6c0.3-0.4,0.7-0.7,1-1.1c1.3,0.8,2.5,1.7,3.8,2.5
			c18.2,12,38.2,16.9,59.9,14.5C247.2,181.6,251.6,178.8,262.7,168L262.7,168z M167.8,184.9c-0.3,0.3-0.6,0.6-0.9,0.9
			c-9.5-7.2-19-14.3-28.4-21.4c2.3-2.1,6-2.6,10.1-1.4c-0.5-0.4-1-0.8-1.6-1.3c6.4-1.8,14.9,5.1,17.6,12.7
			c-4.3-3.2-9.8-7.2-15.3-11.2C155.4,170.4,161.6,177.6,167.8,184.9L167.8,184.9z M111.7,205c1.9-0.2,3.9-0.3,6.2-0.5
			c-2.5-0.3-4.6-0.5-6.6-0.8c0-0.5-0.1-1-0.1-1.6c19.3-0.6,38.6-1,55.1-14.6C160.2,201.5,125,207.9,111.7,205L111.7,205z
			 M143.4,208.9c-4.2,5.8-7,6.6-11.4,3.8C135.4,207.5,137.7,206.8,143.4,208.9L143.4,208.9z M113.3,207.3c0.7,0.2,1.3,0.5,2,0.7
			c0,2.5,0.1,5,0.1,7.5l13.8-0.6l0.1,0.9c-5.4,0.5-10.9,1-16.3,1.4C113.1,213.9,113.2,210.6,113.3,207.3L113.3,207.3z M125.6,149.2
			c-4.9,0-6.2-2.6-6-6.6c0.4-6.2,6.8-11.2,14.5-10.3C124.4,135.1,124.4,141.8,125.6,149.2z M130.6,170c2.7-0.5,5.2-0.9,7.6,0.6
			c7.5,5.1,14.6,10.9,21.9,16.4c-0.1,0.9-0.2,1.8-0.2,2.7l-47.7,10.8c0.1-1.1,0.3-2.9,0.8-5.1C113.2,194,117.9,172.6,130.6,170
			L130.6,170z M138.5,143c1.3-2,1.9-4.1,3.2-4.7c3.6-1.6,7.4-3.3,11.2-3.6c6.4-0.6,12.8-0.2,20.9-0.2
			C161.5,137.4,150.6,140.1,138.5,143L138.5,143z M200,124.1c5.7,4.7,11.4,8.7,16.2,13.7c1.6,1.7,3.2,5.2,4.1,9.8
			c0.7,3.8,1.2,6,0.5,8.9c-0.4,1.6-1.2,3.7-0.3,4.4c0.4,0.4,1.1,0.1,1.3,0.1c1.7-0.5,1.8-2.8,3.6-6.5c0.6-1.3,2.1-4.3,3.1-4.1
			c0.5,0.1,0.7,1.2,0.9,2.5c0.5,3,1,6.8,2.5,8.4c1.4,1.4,3.6,1.9,7.9,2.8c4.3,0.8,8.4,2.6,13.1,0.8c1.4-0.6,3.7,1,6.1,1.7
			c-14.8,21.1-71.7,16-89.2-6.7C188.4,155.2,197.6,142.6,200,124.1L200,124.1z M263.2,124.7c1.9,6.2-1.5,12.7-3,16.4
			c-3.3-7.5-1.8-15.6-2.7-24C259.5,118.6,262.1,121,263.2,124.7z M252.8,153.8c-0.6,0.5-1.5,1-2.6,1.4c-0.8-0.7-1.7-1.7-1.6-3
			c0-1,0.6-1.7,0.7-1.9c0.9-1.2,2.5-4.6,5.1-13.1C256.9,144.3,256.4,150.8,252.8,153.8L252.8,153.8z M254.3,78
			c-2.6,0.8-3.9,1.2-5.2,1.7c-3.3,1.3-5.4,2.6-6.5,4.5c-1.6,2.6-1.3,5.6-1.1,7.6c0.3,2.5,0.9,2.6,1.5,6.4c0.7,3.6,1,5.4,0,6.5
			c-1.3,1.5-4.3,1.3-5.9,1.2c-2.2-0.2-3.6-0.8-4.4,0c-0.4,0.4-0.6,1.2-0.4,1.8c0.9,2.5,8.3,0.9,9.1,3.3c0.1,0.3,0,0.7-0.3,1.6
			c-0.3,1.2-0.5,1.8-0.9,2.2c-0.9,0.8-2.2-0.3-4.3-0.2c-1.1,0-1.7,0.3-3.6,1.1c-1.5,0.6-3.8,1.5-6.6,2.5c0.1,0.3,0.4,0.6,0.7,0.8
			c0.8,0.4,1.5-0.1,3.4-0.5c1.5-0.3,2.8-0.2,3.4-0.2c0.3,0,0.8,0.1,1.4,0.2c2.3,0.5,2.9,1.4,4.1,1.1c0.7-0.2,1.1-0.5,1.2-0.4
			c0.2,0.2-0.4,1.7-1.4,2.4c-2.3,1.8-5.6-0.2-6.1,0.7c-0.4,0.8,1.6,3.4,4,3.4c2.2,0.1,3.7-1.8,4.2-2.4c1.4-1.7,1.5-3.6,1.5-4.3
			c0.3-0.4,0.7-1,1-1.8c0.4-0.8,0.5-1.5,0.8-2.4c0.4-1.6,0.3-1.8,0.5-2.7c0.4-1.2,0.9-2,1.2-2.5c1.6-2.7,1.4-6.7,1.1-11.1
			c-0.1-1.1-0.2-2.6-0.5-4.4c0.6,0,1.3,0,2.1-0.1c1.7-0.3,3-0.9,3.8-1.5c0.4,7.1-0.8,12.2-2,15.7c-2.3,6.4-4.3,6-7,13.6
			c-1.9,5.3-2.1,8.9-5.5,11.6c-2,1.6-4.1,2.1-5.2,2.2c-11.4,1.2-27.5-9.4-31-20.3c-1.5-4.7-2-8.9,2.5-13.1c2.4-2.2,1.5-4.2,2.8-9.9
			c1.4-6,2.1-9,3.5-10.3c3.6-3.7,9.8-3.3,11.2-3.2c1.6,0.1,3.2,0.4,3.2,0.7c0,0.2-1.7,0.1-3.9,0.8c-1.1,0.3-1.3,0.6-3.2,1.4
			c-3.9,1.8-5.3,2-5.3,2.6c0,0.4,0.6,1,4,1.8c0.4,0.5,3.5,3.8,8.4,3.6c3.6-0.1,6-2.1,6.7-2.7c-0.3-0.3-0.6-0.5-0.9-0.8
			c1.1,0.4,2,0.3,2.6,0.2c2.7-0.5,4.9-3.2,5.6-6.9c-2.2-1.3-6.8-3.5-13-3.8c-6.8-0.2-11.9,2.1-14.1,3.3c1.1-1.3,2.7-3,4.9-4.7
			c7.8-5.8,20.2-8.6,30.1-3.2C248.4,72.2,251.4,74.3,254.3,78L254.3,78z M209.5,49c12.2-5.8,24.4-11.7,36.4-17.5
			c0.5,10.7,1,21.8,1.4,31.6c-13.6,2.2-27.1,4.4-40.3,6.5c-1.4-3.2-3-6.9-4.6-10.7c0.2-0.3,0.4-0.6,0.5-0.9c0.9,0.7,2.1,1.3,2.6,2.3
			c4.2,6.8,4.1,6.6,12,4.5c8.7-2.2,17.4-3.9,27.1-6c-0.4-6.8-0.8-14.3-1.2-21.2c-10.7,4.2-21.5,8-31.9,12.7
			c-10.1,4.6-19.8,10.2-29.7,15.4c-0.3-0.4-0.6-0.8-0.8-1.1c3.2-3.8,7.7-8.5,13.8-13c7.1-5.2,13.9-8.4,19-10.4
			c-4.9,1.1-12.1,3.3-19.7,8.3c-10,6.5-15.7,14.6-18.5,19.3c9.9-0.7,19.3-1.4,28.6-2.1c0.1,0.6,0.1,1.3,0.1,1.9
			c-11.3,0.8-22.6,1.6-34.1,2.4c7.9-22.2,31.4-43.6,60.2-35.2c-7.5,4.1-14.6,8-21.6,11.8C209.1,48.1,209.3,48.6,209.5,49L209.5,49z
			 M234,33.4c0.4-4.5,1.8-10.6,6.2-14.4c0.9-0.8,3.1-2.6,4.6-1.9c1.5,0.8,1.2,4,1.2,4.5c-0.4,4.8-4.6,7.9-6.2,8.9
			C237.9,31.5,235.9,32.5,234,33.4z M215.9,61.7c0.8-0.1,4-0.4,3-5.1c-0.4-2.2-0.7-4.4-1-6.6c0.7-0.1,1.4-0.2,2.1-0.3
			c0.8,3.4,1.7,6.8,2.6,10.7c-1.6,0.4-3.1,1-4.6,1.5c-3.2,1-4,1-4.5,0.9c-0.3,0-4-0.3-5.1-2.8c-0.9-2,0.4-4.2,0.9-4.9
			c0.6-1,1.3-1.6,1.9-2.1c0.8-0.7,2.4-1.8,4.8-2.4c0.1,1,0.3,2,0.4,3c-1.5,0.6-2.6,1.9-2.9,3.5C213.3,59,214.3,60.8,215.9,61.7
			L215.9,61.7z M234,47.8c0.1,1,0.3,1.9,0.5,2.7l2.1-0.3c0.1,0.7,0.3,1.3,0.4,2c0.5,2.3,0.9,3.8,1.3,5.3c0.7-0.2,1.4-0.4,2.1-0.6
			c-1.2-4.6-2.3-9.2-3.5-13.8c1.2-0.5,2.5-0.9,3.7-1.4c0.9,4.3,1.4,7.8,1.8,10.4c0.4,3.4,0.4,4.7-0.4,5.8c-1.5,1.7-4.7,2-6.6,0.5
			c-0.8-0.6-1.5-1.4-2-4.8c-0.4-2.7-0.8-5.5-1.2-8.2c1-0.3,1.9-0.7,2.9-1.1c0.1,0.4,0.2,0.9,0.3,1.3c-0.6,0.2-1.1,0.4-1.6,0.6
			C233.9,46.8,233.9,47.3,234,47.8L234,47.8z M232.8,58.2c-0.6,0.2-1.2,0.3-1.8,0.5l-1.2-4.3c-1.1,0.3-2.1,0.7-3.2,1l1.3,4.2
			c-0.6,0.2-1.1,0.4-1.6,0.6c-0.6-2-1.2-4-1.8-6.1c1.7-0.8,3.4-1.5,5.1-2.3c-0.2-0.7-0.4-1.3-0.7-2c-0.7,0.2-1.5,0.3-2.4,0.6
			c-1.2,0.4-2.3,0.9-3.2,1.4c-0.4-0.7-0.7-1.4-1.1-2c0.7-0.3,1.7-0.7,2.9-1.1c2.4-0.8,3.6-1.2,4.5-0.8c0.6,0.3,1.1,0.8,2,4
			C231.9,53.4,232.4,55.5,232.8,58.2L232.8,58.2z M198.5,65.6h-9.1l-0.3-1.7c3.2-0.7,6.4-1.3,9.6-2c0.1,0.5,0.2,1,0.3,1.5
			c-1.9,0.2-3.8,0.5-5.8,0.7c0,0.2,0,0.4,0,0.6C194.6,64.9,196,65.1,198.5,65.6L198.5,65.6z M223.1,5.8C227,4.5,230,4.4,235,4.1
			c8.1-0.4,19,0.2,19.2,2c0.1,1-3.3,2.1-4,2.3c-3.2,1-5.1,0.4-8.3,0.7c-1.8,0-4.7,0.3-7.3,2.2c-6,4.4-5.5,14.1-7.9,14.1
			c-0.9,0-1.1-1.5-4.5-5.5c-1.2-1.4-2.9-3.5-3.4-3.2c-0.9,0.5,3,8.8,2.1,9.3c-0.1,0.1-0.6-0.2-1.6-0.8c-0.6-0.3-1-0.6-1.1-0.6
			c-2.9-2.9-7.1-5.3-8.3-8.8C208.2,10.5,222,6.2,223.1,5.8L223.1,5.8z M200.3,17.1c5.5-1.8,6.7-1.8,7.6-1.2c1.3,0.8,1.1,2.1,2.4,4.3
			c1.4,2.3,3.3,3.8,4.8,4.7c-6.1,2.4-10,1.6-11.8,1c-2.3-0.8-2.9-1.7-7.7-3.5c-2-0.8-3-1-3.1-1.6C192.3,19.8,195,18.9,200.3,17.1
			L200.3,17.1z M203,27.4c-8.2,3.1-13.6,2.5-17.6-2C192.4,19.2,197.2,25.3,203,27.4z M175.3,27.9c3.6-2.2,4.8-2.2,5.6-2.1
			c2.2,0.4,2.6,2.4,5.5,4.2c2,1.3,4.1,1.8,5.6,1.9c-0.8,0.9-5.5,6.1-13.2,6.2c-6.2,0.1-10.4-3.1-11.6-4.1
			C170.3,31.2,173.1,29.2,175.3,27.9L175.3,27.9z M150.9,50.5c3.9-5.3,3.1-6,5.5-8.9c1.5-1.8,4.2-4.4,9.1-6.3
			c0.9,1.1,3.4,3.5,7.3,4.5c2.5,0.7,4.7,0.5,6,0.3c-3.7,6.4-7.8,8.9-10.9,10c-4.1,1.4-6.1,0.2-13.3,2.5c-2.4,0.8-4.9,1.8-5.4,1
			C148.8,53.2,149.8,52,150.9,50.5L150.9,50.5z M163.5,53.6c-4.2,5.2-10.6,3.4-16,4.7C151.5,52.3,158.2,55.1,163.5,53.6z
			 M168.9,94.7c1.9-0.8,5.9-2.7,10.6-1.5c1.1,0.3,1.9,0.6,2.5,0.9c-0.9-0.1-2.2-0.1-3.7,0.4c-2,0.6-3.3,1.7-3.7,2
			c-1.6,1.3-5,2.8-12.8,3.5C163.2,98.4,165.5,96.2,168.9,94.7L168.9,94.7z M136,89c0.4-5.3,1.9-10.8,8.3-23c1.2-2.3,2.4-4.4,4.6-5.2
			c1.6-0.6,2.8-0.2,5.5-0.5c2.4-0.3,4.3-1,5.5-1.5c-2.4,10.8-6.7,15.8-10.4,18.3c-2.4,1.7-5.1,2.7-8,6.2c-3.3,4.2-4.4,8.9-5.2,8.7
			C135.9,91.9,136,89.7,136,89L136,89z M152.9,88.2c-1.5,1.7-3.3,2.2-4.8,2.7c-3.2,1.3-7.4,4.2-11.4,11.7c0.1-2,0.4-4.6,1.5-7.6
			c3.5-10.3,13.2-18.4,16-16.8C156.1,79.4,155.7,85.1,152.9,88.2L152.9,88.2z M146.2,104.1c3.2-0.6,6.6-0.8,9.9-0.9
			c6.3-0.3,12.4-0.7,18.1-4.4c3.4-2.2,8.1-3,12.3-3.5c7.7-0.8,11.1-3.7,12.8-6.3c3.6-5.4,1.4-13.6,0.4-13.7c-0.3,0-0.7,0.9-1.5,2.8
			c-1.2,3-1.1,3.6-1.8,5.1c-0.9,2-2.9,3.8-4.8,4.8c-2.5,1.3-5,0.6-5.9,0.5c-3.4-0.6-9.7-0.6-21.9,2.5c1.9-2.8,4-4.1,5.4-4.8
			c2.8-1.3,5-1.9,16.4-1c2.8,0.2,4.9-0.2,6.5-1.4c0.4-0.3,3-2.2,3.2-5.3c0.1-1,0.1-1.9-0.4-2.7c-1.6-2-5.9,0.5-15.9,1.8
			c-3.3,0.4-4.7,0.4-7.3,1.3c-3.1,1.1-5.3,2.6-6.8,3.7c0.3-0.9,0.8-2.4,1.9-3.8c2.5-3.3,6.6-5,19.1-6.4c4.2-0.5,9.9-1,16.6-1.2
			c0.4,4.8,0.9,8.8,0.9,12.8c0.1,6.1-2.7,10.9-8.5,12.8c-13.1,4.3-25.9,9.8-40,10.2c-5.7,0.2-10.8,1.6-14.8,6.1
			c-1,1.1-2.9,1.4-4.8,1.4C137.2,108.9,140.6,105.2,146.2,104.1L146.2,104.1z M178,110.3c-8.4,6.5-17.8,6.1-26.2,8.8
			C159,112.9,167.5,110.8,178,110.3z M118.7,120.3c1.6-1.5,4.5-0.8,8.1,0.1c6.8,1.7,13.6,3.2,20.3,5.2c12.2,3.5,23,1.8,32.3-7.4
			c0.6-0.7,1.6-1.1,2.3-1.6c-0.5,2.4-1.5,4.5-3.1,6c-5.9,5.4-12.9,8.3-21,7.3c-7.7-0.9-15.5-1.9-23.1-3.7
			c-5.8-1.3-11.2-1.7-16.5-0.3C117.7,123.7,117.4,121.5,118.7,120.3L118.7,120.3z M99.5,166.5c-5.4-0.7-7.5-2.5-10.8-1
			c-5.2,2.5-4.1,9.8-10.8,13.2c-0.9,0.4-3.4,1.8-4.8,0.7c-2.1-1.5-1.1-7.7,1.8-11.6c1.8-2.4,5.1-5.1,18.5-6.8
			c6-0.8,14.5-1.5,24.7-0.8C112.8,164.7,106.4,167.4,99.5,166.5L99.5,166.5z M109.9,223.9c-0.2-1.3,1.5-2.9,3-3.6
			c2.4-1.2,4.6-0.4,7.4-0.1c2.6,0.4,5.2,0.1,10.4-0.4c6.2-0.6,10.8-3.1,15.8-5.8c4-2.1,14.8-9.1,22.2-20.3
			c4.2-6.4,3.5-13.4-0.4-19.3c-4.2-6.2-9.6-11.6-15-17.8c2.5,1,5.7,1.4,7.8,3.1c7.2,6.1,12.8,13.6,14,23.4c0.1,1.1,0,3.5-0.8,6.8
			c-4.5,18.2-24.1,28.3-29.2,30.9c0,0-17.4,9-31.3,5.4C112.7,226,110.2,225.4,109.9,223.9L109.9,223.9z M102.7,316.6
			c1-4.7,1.9-9.5,4-13.7c3.8-7.4,5.5-15.1,6.7-23.3c2.2-14.3,5.3-28.4,8.2-42.6c0.2-1.1,2.1-2.7,3.1-2.7c8.4,0.2,16.6-0.7,24.5-5.3
			c0.2,1.5,0.6,2.4,0.4,3.3c-1.6,8.2-2.7,16.4-4.2,24.6c-3.5,19.3-2.6,17.3-7.6,27.9c-6.9,14.8-17.4,23.4-16.3,24.5
			c0.3,0.3,1.8-0.1,7-4.2c1.8-1.1,3.8-1.9,5.1-1.1c3.2,1.9,0.4,12.5-1.4,17.6c-2.4,6.8-6.1,11.8-8.8,15
			c-6.8-5.4-13.2-10.2-19.3-15.4C103.2,320.2,102.4,318,102.7,316.6L102.7,316.6z M96.7,320.1c9.1,8.2,17.9,16.7,26.8,25.2
			c1.6,1.5,2.7,3.6,4,5.4c-0.7,0.5-1.3,1-2,1.5c-7.1-6.3-14.1-12.6-21.2-18.9c-3.7-3.3-7.8-6.2-11.4-9.7c-1-1-0.9-3.1-1.3-4.7
			C93.4,319.2,95.6,319.1,96.7,320.1L96.7,320.1z M92.2,347.1c0-0.4,0-0.7,0-1.1h10.2c-3-1.1-7.9-1.6-8.6-3.5
			c-1.3-3.9-0.4-8.7-0.4-14.1c6.1,2.9,9.5,6.2,11.1,11.4c0.9,2.9,2.6,5.5,4,8.2c2.9,1.7,5.8,3.3,8.6,5l-0.3,0.4
			C108.6,351.3,100.4,349.2,92.2,347.1L92.2,347.1z M105.9,368.8c-0.4-0.1-0.9-0.2-1.3-0.2c0.8-4.1,1.6-8.1,2.5-12.6
			C111.1,359,110.5,362.4,105.9,368.8L105.9,368.8z M91.7,352.7c0.2-1,2.2-1.8,3.6-2.1c1-0.2,2.3,0.3,3.4,0.6
			c6.5,1.5,6.5,1.6,4.9,7.9c-0.2,0.6-0.4,1.3-0.6,1.9c-2.6,9.9-2.8,10-13.9,6.6C89.8,362.7,90.5,357.6,91.7,352.7L91.7,352.7z
			 M112.5,379.1c-9-1.8-18.3-3.7-27.8-5.7C89.5,369.4,107.3,373.3,112.5,379.1z M99.3,385.2c-2.4,4.6-4.8,9.3-7.1,14
			c-0.6-0.4-1.2-0.8-1.8-1.1c3-4.2,3-10.2,7.6-13.5C98.4,384.8,98.9,385,99.3,385.2L99.3,385.2z M85.8,381.8c2.1-5,6.2-1,9.9-1.7
			c-1.9,4.7-3.4,8.9-5.2,13c-2.4,5.6-2.4,5.6-9.6,4.7C82.6,392.4,83.7,386.9,85.8,381.8L85.8,381.8z M93.3,403.5H79.1
			C83.9,399.3,88.6,401.3,93.3,403.5z M94.5,408.9c-5.8,0.4-11.4,0.9-17.1,1.3C82.9,406.7,88.6,407.2,94.5,408.9z M89.1,416.1
			c-3.1,5.9-6.1,7.1-15.2,6C78.4,415.1,81,414.1,89.1,416.1z M88.4,424.1c-2.3,4.4-13.5,6.2-19.3,2.2
			C75.5,425.6,82,424.9,88.4,424.1z M47.5,475.8c-3.7-4.1-10.6-5.4-17.2-8.4c0.7-1.2,1.7-3.1,2.7-5c0.5,0.2,1,0.4,1.5,0.6
			c-0.1,1.3-0.2,2.6-0.4,4.2c3.9,1.6,8.1,2.8,11.8,4.9c3.4,1.9,9,1.4,9.2,7.4c7.7-0.7,8.5,6.4,11.9,10.5c4,4.9,2.5,10.5,2.2,16.2
			c0.6-1,1.2-2.1,2.2-3.8c-0.3,2.4-0.5,4.2-0.7,6.3c-3.4-1.3-6.6-2.5-9.9-3.8c0.7-4,1.2-7.6,1.8-11.2c0.7-4.1-0.8-7-4.5-9.1
			C54.2,482.4,50.8,479.5,47.5,475.8z M13.5,725.7c-0.5,1.8-1.2,3.6-2.6,5.2C22.6,657,42.4,584.9,59.3,511.6c2,0.8,3.2,1.3,4.9,2
			c-7.3,29-14.5,58-21.8,86.9c0.3,0.1,0.5,0.1,0.8,0.2c4-15.1,8.2-30.2,12.1-45.3c3-11.6,5.5-23.3,8.3-34.9c0.4-1.6,0.9-3.2,1.7-4.7
			c0.3-0.6,1.7-1,2.4-0.8c0.7,0.2,1.4,1.2,1.8,2c0.2,0.5-0.2,1.3-0.3,1.9c-9.8,37.2-19.6,74.3-29.6,111.5
			C31.1,662.2,22.2,693.9,13.5,725.7L13.5,725.7z M23.9,706.1c-0.5-0.1-1-0.3-1.5-0.4l47.8-166.6c0.4,0.1,0.9,0.2,1.3,0.4
			C55.6,595,39.8,650.6,23.9,706.1L23.9,706.1z M72.3,514.2l-14.1-4.9c0.3-0.7,0.6-1.4,0.9-2.1c4.6,1.9,9.1,3.9,13.7,5.8
			C72.6,513.3,72.5,513.8,72.3,514.2L72.3,514.2z M79.7,491.6c-4.7,2.1-8.2,1.5-10.8-3.1c-0.6-1-1.4-1.8-2.8-3.6
			c6.9,3.1,15,3.9,22.3,2.5c0.8-0.1,1.6-0.1,3.3-0.2C87.1,488.8,83.3,489.9,79.7,491.6L79.7,491.6z M93.7,467
			c-0.2,0.6-0.6,1.1-0.9,2.2c-0.4,1.3-0.4,1.9-0.9,2.2c-0.6,0.3-1.5,0.1-2-0.2c-1.4-1-0.6-3.9,0-8.7c0.7-5.5,1.2-9.1,0-9.7
			c-1.2-0.6-3.5,1.9-5.5,4c-4.1,4.4-6.4,8.5-6.9,9.3c-2.7,5.1-5.2,10.3-8.3,16.5c-1.6-0.9-2.4-1.9-2.8-2.6c-0.8-1.6-0.2-2.4-1.2-4.9
			c-0.6-1.3-1.3-2.3-1.6-2.7c-0.7-1-0.9-0.9-1.6-1.7c-1-1.2-1-1.9-2.1-4c-1.1-2.2-1.3-2.1-1.6-3c-0.8-2.2,0.1-4.4,1.2-6.7
			c3.3-6.5,6.5-13.1,9.8-19.7c0.1-0.1,0.1-0.4,0.2-0.5c5.3-4.9,11.9-2,17.9-2.8c1.3-0.2,3.4,2.4,4.4,4.1
			C96.9,447.4,97.9,457.1,93.7,467L93.7,467z M100.9,484.7c-5.9-2.9-6.6-4.4-3.8-10.4c0.4-0.9,0.9-1.8,1.3-2.7
			c4.9-10.5,6.9-20.9,1.2-32.1c-5.6-11-0.9-20.4,6.3-29c1.1-1.3,2.2-3.4,1.8-4.7c-2.4-7.8,2-12.9,7-17.4c3.1-2.8,4.8-5.6,4.8-9.8
			c0-6.9,4.1-12.1,8.1-17.2c2.3-3,5-6.1,6.1-9.5c0.8-2.6-0.6-5.9-0.9-8.8c-0.2-1.9-0.7-4.1,0-5.8c1.3-3,3.4-5.7,5-8.6
			c4.1-7.4,5.1-15.3,4.3-23.7c-0.4-3.7,0-7.7,1-11.3c3.2-12.4,6.8-24.7,10.2-37c0.3-1.1,0.7-2.1,1.1-3.4c9.8,15,16.4,31,18.7,48.2
			c1.6,11.8-4.5,22.1-12.1,30.7c-3.7,4.2-5.9,8.6-7.3,13.8c-1.1,4.2-2.8,8.4-4.7,12.3c-3.1,6.2-8.7,11.3-6.2,19.6
			c0.7,2.3-1.3,5.7-2.6,8.4c-1.7,3.6-4,6.9-6,10.4c-2.4,4.1-2.4,8-0.2,12.4c0.7,1.5,0.7,4.2-0.2,5.6c-5,7.5-7.4,15.1-5.6,24.5
			c1.4,7.3,0.4,15-4.7,21.4c-1,1.3-1.8,2.8-2.5,4.3c-4.1,9-3.2,13.3,4.5,20.2c-2.1,3.2-4.2,6.5-6,9.4
			C112.9,490.9,107,487.6,100.9,484.7L100.9,484.7z M32.6,790.4c4-9.3,8.1-18.8,12.1-28.3c1.3-3,3.2-6.2,3.1-9.3
			c-0.1-5.3,2.8-7.9,6.3-10.8c4.1-3.3,7.8-7.1,12.2-11.1C67,759.5,49.6,784.5,32.6,790.4z M46.2,734.9c0.8-3.1,0.9-6.5,2.4-9.2
			c8-13.6,15.9-27.3,27.7-38.2c6.8-6.3,12.9-13.4,20-20.9C97.6,682.3,71.4,718.2,46.2,734.9L46.2,734.9z M93.4,642.7
			c-3.8,11.9-10.7,22.1-19.3,31.2c-1.8,1.9-3.8,3.6-6.6,6.2c-0.9-11.3-2.9-21.3,4.7-30.4c16.6-20,27.2-43.3,35.6-67.7
			c3.8-11.2,8.2-22.2,12.4-33.2c0.7-1.8,1.6-3.5,2.4-5.2c0.3,0.1,0.6,0.2,0.9,0.3c-0.1,1.2,0,2.5-0.4,3.7
			C113.3,579.2,103.6,611.1,93.4,642.7L93.4,642.7z M88.8,827.3c-7.5-0.6-14.7-1.2-21.8-1.8C71.4,822.5,82.7,823.2,88.8,827.3z
			 M85.2,829.3c4,0.3,7.7,0.8,11.1,1.4c-1.5,3.3-2.8,5.8-3.8,7.5c-0.4,0.7-1.1,1.9-2.5,2.8c-0.7,0.5-1.7,1.2-3.2,1.1
			c-1-0.1-2.6-0.6-2.8-1.5c-0.2-0.8,0.8-1.2,1.4-3c0.4-1.3,0.4-2.6,0.2-2.7c-0.4-0.1-0.8,3.5-3.4,5c-1.1,0.7-2.2,0.8-2.9,0.8
			c-0.6-0.4-1.6-1-2.8-1.2c-1.2-0.2-1.8,0-3-0.1c-0.8-0.1-1.6-0.5-3.3-1.2c-2.8-1.2-3.8-2-4.4-2.4c-0.8-0.6-1.2-0.9-1.4-1.4
			c-0.9-1.9,1.2-4.5,1.6-5C71.5,828.8,78,828.7,85.2,829.3L85.2,829.3z M83.8,845.8c-7.6-0.2-14.7-2.3-19.8-8.6
			c12.3,10,24.1,9.8,35.8-1.6C98.3,840.1,89.3,845.9,83.8,845.8z M70.1,819.9c4-4.3,6.7-9.5,12.8-9.2c9.1,0.5,12.8,7.9,17.1,14.5
			C91.1,819.4,80.9,820.7,70.1,819.9L70.1,819.9z M100.3,812.4c-1.8-1.1-2.8-1.7-3.8-2.2c-0.2-0.1-0.6,0.1-1.4,0.2
			c0.8,1.4,1.6,2.7,2,3.5c-5-2.3-10.3-4.9-15.7-7.4c2.6-3.1,5.5-7.1,9.1-10.4c1.4-1.3,5-2,6.6-1.1c2.2,1.3,4.6,4.1,4.9,6.5
			C102.6,804.8,101.1,808.3,100.3,812.4L100.3,812.4z M90,791.6c-0.2-0.4-0.3-0.8-0.5-1.2c2.1-0.8,4.2-2.4,6.2-2.3
			c4.8,0.3,7.7,3.7,10,8.7C98.7,790.8,98.6,790.7,90,791.6z M105.9,781c-2.9-0.7-5.7-1.6-8.7-2c-2.9-0.3-5.9-0.1-8.9-0.1
			c3.7-9.7,7.7-12.4,16-11.2c-0.2,1.1-0.2,2.3-0.5,3.4c-0.5,1.8-1.2,3.4-1.9,5.3c1.6,1.4,3,2.6,4.4,3.8
			C106.2,780.5,106,780.8,105.9,781L105.9,781z M112.6,765.3c-5.1-1.1-9.7-2.1-13.9-3c6.6-10.8,7.9-24.3,9.9-37.4
			c2-13.3,4.1-26.8,4.2-40.2c0.1-9.3-3.3-18.5-4.8-27.9c-0.6-4-1.3-8.3-0.4-12.2c2.1-8.8,6.7-16.5,13.2-23c-0.3,1-0.3,2.2-0.8,3.1
			c-1,2.1-2.1,4.2-3.4,6.1c-7.1,10.6-8.7,20.9-1.1,32.4c4,6.1,5.6,13.7,8.6,21.3c1.6-0.9,3.8-1.9,5.6-3.3
			c7.3-5.7,15.1-10.3,24.3-12.3c3-0.6,4.3-2.2,4.6-5c0.9-7.3,1.8-14.5,2.7-21.8c0.2-1.4,0.4-2.9,1.7-4.4c0.2,1.1,0.6,2.2,0.6,3.3
			c0.4,20.2-3.4,38.7-17.1,54.9c-12,14.2-19.6,31.3-26,48.7c-0.8,2.3-2,4.5-3,6.8c3.5-10,6-20.5,10.7-29.9
			c6.5-12.8,14.8-24.8,22.2-37.2c2.5-4.2,4.6-8.6,6.9-12.9c-0.5-0.5-1-0.9-1.4-1.4c-5.1,2.2-10.2,4.3-15.2,6.7
			c-4,2-7.6,4.9-11.8,6.5c-5,2-7.1,5.7-8.2,10.4c-3.1,13-6,25.9-9.2,38.9c-2.2,8.9-4.5,17.7-6.8,26.5c2.2,1.6,4.1,2.9,6.5,4.5
			c1.2-1.9,2.3-3.6,3.4-5.4C113.9,760.9,113.1,763.4,112.6,765.3L112.6,765.3z M220.8,803c-3.8,7.1-8.9,13.5-6.7,22.5h-96.3
			c-0.8-6.4-1.7-12.6-2-18.9c-0.1-1.8,1.3-4.3,2.7-5.3c5.9-3.9,7.6-9.4,6.9-16c-0.2-2.3-0.7-4.7-0.5-7c0.2-1.7,1.3-3.2,1.9-4.8
			c1.6,0.7,3.5,1.1,4.6,2.2c2.3,2.4,4.2,5.2,6.3,7.8c11,13.4,25.1,18,41.9,14.6c1.1-0.2,2.2-0.6,3.3-1.1c0.6-0.2,1.1-0.8,2.1-1.5
			c-1.3-1.8-2.5-3.5-3.8-5.1c-11.6-13.7-13.6-27.8-3-42c13.7-18.5,17.1-40.1,22.3-61.4c1.5-6.1,2.8-12.3,5.2-18.2
			c-1.2,7.9-2.5,15.8-3.8,23.8c-3.2,20-5.5,40-2.5,60.2c0.8,5.5,1.4,11.2,6.5,15.7c0.8-1.2,1.4-2.1,1.9-3c2.4-4.7,4.2-9.9,7.3-14.1
			c5.8-7.8,8.2-16.2,7.4-25.8c-0.1-1.2,0-2.3,0-3.5c4,18.5,5.7,37.1-2,55.2c-1.2,2.8-1.9,5.7-3,8.5C215.2,792,214.6,798.1,220.8,803
			L220.8,803z M222.7,792.5c3.4-2.4,6.8-4.9,10.2-7.3h-7.4c3-5.5,5.4-10.7,12.1-11.5c5.4-0.7,7.2,1.3,5.6,6.5c-0.3,1.1-1,2-1.5,3.1
			c1.6,0.8,3.2,1.5,4.8,2.2c-9.1-1.1-16.4,2.5-22.7,8.8C223.4,793.7,223.1,793.1,222.7,792.5L222.7,792.5z M243.7,799.3
			c-8,0.5-12.3,4.8-15.9,11.2C229.1,800.4,234.6,796.4,243.7,799.3z M227.1,816.1c2.6-4.5,6.8-8.4,10.8-11.9c2.3-2.1,4.9-0.5,6,2.1
			c1.7,3.9,3.1,7.9,4.7,11.9c-4.7,2.2-8.7,4.3-12.8,5.9c-2.1,0.8-6,1.7-6.4,1C228.1,822.3,226,818,227.1,816.1L227.1,816.1z
			 M249.8,822.7c3.3,0,4.4,1.7,4.5,4.6c-15.1,1.2-20.1,4.6-24.4,16C229.3,831.8,238.2,822.6,249.8,822.7L249.8,822.7z M268.9,853.5
			c-6.9,6.1-25.2,6.4-31.6,0.3c-1.3-1.2-2.5-3.4-2.4-5c0.1-1.5,2.1-2.1,4-2.8c0,0,10.6-3.6,21.5-1.9c0.5,0.1,2.1,0.3,3.6,1.4
			c1.6,1.1,3.3,3.2,2.8,4.3c-0.3,0.7-1.4,0.8-3,0.9c-1.9,0.2-2.2-0.2-3.6,0c-1.7,0.3-1.6,1-3.1,1.2c-2.1,0.4-2.6-0.7-4.5-0.2
			c-1,0.3-0.9,0.6-2.2,1c-0.8,0.2-2.4,0.7-3.2,0c-0.4-0.3-0.6-0.9-0.7-1.1c-0.2-0.6-0.2-1-0.5-1.4c-0.2-0.2-0.5-0.5-0.6-0.4
			c-0.3,0.2,0.8,1.7,0.1,2.8c-0.3,0.5-0.8,0.6-1.2,0.8c-1.1,0.4-2.7,0.2-3.8-0.6c-0.4-0.3-0.6-0.6-1.2-0.7c-0.5-0.1-0.9,0-1.2,0.1
			c2.4,1.4,5.9,3.1,10.5,3.9C258.1,858.1,265.9,854.9,268.9,853.5L268.9,853.5z M258.3,837.2c-9.2,1.7-17.3,3.3-25.7,4.9
			c0-0.1-0.1-0.8,0.1-1.2c3.1-6.3,14.2-11.4,20.4-9C256.1,832.9,259.6,834.2,258.3,837.2z M253.1,768.4c3-29.5,10.9-57.7,23.3-84.7
			L253.1,768.4L253.1,768.4z M280.1,661.8c-10.2,8-20.6,15.8-30.9,23.6c-0.4,0.3-0.9,0.3-2.2,0.7c-4.1-9.9-10.6-18.6-13.4-29.5
			c-2.7-10,3.9-17.1,5-25.7c4.9,3.7,9.6,6.8,13.9,10.4c1.2,1,2.3,3.2,2.1,4.8c-1.1,10.1-2.5,20.1-3.8,30.2c-0.2,1.4-0.4,2.8-0.8,5.5
			c3.1-2.8,5.2-4.8,7.4-6.7c6.2-5,12.7-9.6,18.8-14.8c1.9-1.6,3.9-4.3,4-6.6c0.2-5.6-0.6-11.3-1-16.9c-0.1-1.8-0.4-3.6-0.6-5.3
			c0.6-0.1,1.1-0.1,1.7-0.2c0.9,8.5,2,17,2.5,25.5C282.8,658.4,281.5,660.7,280.1,661.8L280.1,661.8z M289.9,770
			c3.1,7.7,5.8,14.2,8.5,20.9C293.2,786.8,289.9,779.1,289.9,770z M302,463.5c-4.5,21.3-9.4,42.5-15.1,63.5
			c-3.2,11.8-8.2,23.2-12.2,34.8c-1,3-2.6,3.5-5.8,3.5c-6.8,0-13.6,1-20.6,1.7c2.1-9.2,2.9-19.8,8-29.5c2.5-4.8,3.3-10.6,4.3-16.1
			c0.6-3.2,0.4-6.7,0-10c-0.8-7.2,1.5-13.2,7-17.8c6.3-5.3,8.2-11.7,6.6-19.6c-0.7-3.7-0.1-7.7-0.9-11.4c-2.5-11.3,2.5-20,9.1-28.3
			c2.5-3.1,4.4-3.7,8.1-1.1C301.6,440.8,304.5,451.4,302,463.5L302,463.5z M386.6,819.7c10.7,1.6,22.1,3.4,33,5
			C413.2,831.3,390.7,827.7,386.6,819.7z M403.6,812.7c-0.2,0.4-0.3,0.8-0.5,1.2c-2.9-0.3-5.9-0.6-8.8-1c-13-1.4-24.5-6.1-32.3-16.9
			c-7.8-10.8-14.4-22.3-21.5-33.5c-0.9-1.4-1.4-3-2.5-4.3c6.1,25.1,14.6,49,35.5,67.1c-20,2.2-38.2-6.8-46.3-24.9
			c-5.5-12.3-8.9-25.8-11.6-39.1c-12-58.3-14.1-117.3-10.7-176.6c0.5-8,1-15.9,2-23.8c1.5,17.7,2.9,35.4,4.5,53.1
			c3.6,38.2,9,76.2,22.1,112.5c4.1,11.2,9.5,22,15.1,32.5c3.1,5.8,8.5,9.5,16.3,7.9C372.8,786.3,386.1,801.4,403.6,812.7
			L403.6,812.7z M339.7,638.3c1.9,9.5,6.3,18.5,9.9,27.7c3.2,8.3,3.2,8.6-7,8.3c2.2,9,3.8,17.5,6.5,25.5c2.4,7,6.3,13.6,9.2,20.5
			c4.9,11.5,3.8,23-1.2,35.8c-2.6-2.5-5.2-4-6.3-6.2c-6-12.6-12.2-25.1-17.1-38.1c-7.7-20.4-10-42-12.6-63.5c-6-49.5-4.4-99,1-148.4
			c2.2,24,3.7,48.1,6.6,72C331.6,594.1,335.3,616.3,339.7,638.3L339.7,638.3z M307.6,425.6c-6.6-28.6-6.8-57.5-3.7-86.5
			c0.7-6.4,2.9-13.4,6.6-18.5c15-20.2,32-38.9,52.1-54.2c6.3-4.8,13.1-8.8,20.2-12.6c-0.4,6.5-0.9,11.7-7.7,15.4
			c-20.6,11.2-36.5,28-51.9,45.6c-10.2,11.6-14.3,24.6-15.2,39.6c-2.6,41.6,2.7,81.8,21.5,119.5c7.9,15.8,19.3,28.9,31.9,42.8
			c0.9-7.4,2-13.7,2.5-20c2.3-32.4,4.4-64.8,6.6-97.2c0-0.5,0-1,0-1.5c0.3-14.2-1.9-16.1-15.7-14.2c-1.4,0.2-2.9,0-4.8-1
			c3.3-1.6,6.6-3.4,10-4.6c9.5-3.4,14.5-9.5,15-19.9c1.3-23.9,3.2-47.8,4.9-71.7c-0.5-0.1-0.9-0.1-1.4-0.2c-0.4,2.9-0.9,5.8-1.1,8.7
			c-2,21.7-4,43.5-5.9,65.2c-0.6,7.1-4.5,11.5-10.9,14.2c-4.5,2-9.1,4.2-13.1,7.1c-3.6,2.5-3.1,4.5,0.9,6.5c2.1,1.1,4.3,1.9,6.2,3.2
			c4,2.5,4.2,5,0.4,7.7c-5,3.5-10.5,6.5-15.6,9.9c-4.1,2.7-8.1,5.7-13.3,9.5c-1.6-10.8-3.6-20.8-4.5-30.9c-1-11.4-1-23-1.1-34.5
			c0-2.5,1.3-5.4,2.9-7.5c4.6-6.1,5.5-12.7,1.3-17.7c2.8-3.3,5.3-7.1,8.6-10c14.5-12.7,29.4-25,44-37.6c1-0.9,1.6-2.3,2.1-3.6
			c0.6-1.4,0.8-3,1.2-4.5l1.4-0.1c0.4,1.2,1.3,2.5,1.2,3.7c-0.6,6.3,2.5,11.2,5.8,16c10.4,14.8,21.9,28.5,37.1,38.7
			c1.6,1.1,2.9,2.5,4.4,3.8c-0.3,0.3-0.7,0.7-1,1c-20.2-10.6-32-29.5-45.7-48.1c-2.5,77.4-10.5,153-18.3,228.6
			c0.5,0.2,1,0.5,1.5,0.7c1.5-1,3.1-2,4.6-3.2c32.9-26.7,54.2-60.9,65.7-101.5c6.8-24.2,9.6-49,11.7-73.9c0.4-4.6-0.8-7-5.5-8.8
			c-13-4.9-24.3-12.7-33-23.6c-6.1-7.7-11.6-15.9-16.9-24.1c-2-3-2.7-6.8-4-10.2c0.6-0.3,1.2-0.5,1.8-0.8c0.8,1.3,1.5,2.6,2.3,4
			c11.2,19.9,24.6,37.6,45.5,48.4c3.2,1.7,6.6,3.3,10,4.4c2.7,0.9,3.6,2.5,3.5,5.1c-1.4,52.7-11.2,103-42.2,147.2
			c-12,17.1-27.3,30.9-44.8,42.2c-3,1.9-4.9,0.1-6.5-1.7c-8-9-16.3-17.6-23.4-27.2C321.1,472.7,313.2,449.6,307.6,425.6L307.6,425.6
			z M377.1,274.9c-15,12.6-30,25.3-44.3,37.3C339.6,301.9,367,278.6,377.1,274.9z M316.7,341.5c-1.7-1.5-1.4-4-1.4-4.9
			c0.2-2.6,1.9-6.7,4.6-6.8c2.5-0.1,4.9,3.4,4.9,6.4c0,2-1,3.4-1.4,3.9C321.7,342.4,319.5,343.9,316.7,341.5L316.7,341.5z
			 M319.7,398.5c3.2,35,15.1,66.7,37.6,94c1.7,2.1,3.1,4.5,4.6,6.7c-0.5,0.5-1.1,1-1.6,1.5c-1.8-1.7-3.9-3.3-5.5-5.2
			c-21.3-26.7-35.5-56.6-39.1-90.9c-1.8-16.8-2-33.8-2.9-50.8c-0.1-2.5,0.3-4.9,0.5-7.6c4.4,0.7,5,3.3,5.1,6.9
			C318.7,368.3,318.3,383.5,319.7,398.5L319.7,398.5z M356.4,385.5c7.3-1.9,11.2,0.8,11.2,7.6c0,4-0.3,8-0.5,12
			c0,0.8-0.4,1.5-0.6,2.3C365.6,398.9,367.7,389.4,356.4,385.5L356.4,385.5z M440.5,347.9c-2.5,1-7.1-2-8.5-6
			c-0.8-2.3-0.7-4.5,0.1-6.3c0.3-0.6,1.6-3.7,4.3-4c2.2-0.2,4,1.5,4.3,1.9C444.7,337.5,443.8,346.5,440.5,347.9L440.5,347.9z
			 M435.7,361.9c0.2-2.3,0.2-4.7,0.8-6.9c0.3-1.2,1.7-2.1,2.6-3.1c0.4,0.4,0.9,0.8,1.3,1.2c-4.1,49.5-17.7,95.1-52.9,132.1
			c-3.5,3.7-7.6,6.9-11.5,10.3c-2.4,2.1-4.3,4-2.5,7.6c1.3,2.5,0.4,4.8-3.5,5.8c0.9-6.8-0.6-13.6,5.7-18.4
			c18.5-14.1,30.8-32.9,40.6-53.6C427.5,413.1,432.9,387.8,435.7,361.9L435.7,361.9z M383.2,391.7c1.2-4.2,5-4.8,12.2-1.9
			c-10.3,1-11.8,8.8-15,15.6C381.3,400.8,381.9,396.2,383.2,391.7z M381.7,367.9c5.3,6.2,10.2,11.9,15.5,17.9
			C389.4,385.4,383.1,378.3,381.7,367.9z"/>
		<path d="M234.1,329.1c1,1.1,2.4,1.7,2.4,1.7c0.9,0.4,2.1,0.9,2.8,0.4c0.5-0.4,0.5-1.4,0.5-3.4c0-1.2,0-1.8-0.1-2.3
			c-0.5-1.5-1.9-2.1-2.7-2.6c-2.2-1.6-2.2-5.3-2.2-8.8c0-14.5-0.1-13.1,0-14.2c1.7-17.9,3.2-26.4,1-27.2c-0.5-0.2-1,0-1.1,0.1
			c-2,0.9-1.4,6.4-1.1,8.9c0.4,3.9,0,9-0.8,19.3c-0.3,4-1,10-1.3,18.4C231.3,319.4,231.1,325.9,234.1,329.1L234.1,329.1z"/>
		<path d="M200.9,309.8c1.1-0.5,1-1.5,2.4-6.1c1.9-6.3,3.4-8.6,2.7-9.1c-1.2-0.9-5.1,6.3-10.8,6.3c-6.3,0-10.7-9.2-11.2-8.8
			c-0.5,0.3,2.2,5.6,7,10.9C193.4,305.8,198.2,311,200.9,309.8L200.9,309.8z"/>
		<path d="M216.7,174.5c0.8,0,1.8-0.5,1.9-1.2c0.4-1.3-2.4-2.3-4.8-5c-3.9-4.6-3.2-10.2-5.3-10.3c-0.5,0-1,0.2-1.2,0.6
			c-0.6,0.8,0,2,1.1,4.6c1.9,4.4,1.6,3.9,1.9,4.4C212.1,170.7,214.2,174.6,216.7,174.5L216.7,174.5z"/>
	</g>
</g>
</svg>
