<?xml version="1.0" encoding="UTF-8"?>
<svg id="Layer_1" data-name="Layer 1" xmlns="http://www.w3.org/2000/svg" viewBox="0 0 457.88 933.4">
  <defs>
    <style>
      .cls-1 {
        fill: #000;
      }

      .cls-1, .cls-2 {
        stroke-width: 0px;
      }

      .cls-2 {
        fill: #fff;
      }
    </style>
  </defs>
  <path class="cls-2" d="M263.41,50.45c2.34-2.63,4.5-3.5,6.04-3.8,2.41-.47,3.99.31,5.7-.91,1.29-.91,1.55-1.37,2.25-3.57.67-2.1,4.77-3.34,7.52-4.45,1.19-.48,2.94.22,4.38.61,15.13,4.1,14.74.79,27.46-6.92-.08,1.21-.41,3.22-1.83,4.92-1.11,1.34-2.42,1.93-5.72,2.96-6.85,2.15-10.36,3.22-14.65,2.8-1.94-.19-3.5-.58-4.53-.88,3.05.68,6.09,1.35,9.14,2.03-1.12,1.05-2.89,2.48-5.34,3.63-2.19,1.03-3.57,1.19-5.34,1.71-5.24,1.53-6.62,4.04-9.61,5.3-2.88,1.21-7.57,1.39-15.48-3.44Z"/>
  <path class="cls-2" d="M4.85,303.71c5.79-1.44,10.26-3.21,13.24-4.54,6.97-3.12,9.27-5.39,15.32-7.14,1.97-.57,6.35-1.81,11.81-1.56,10.2.46,21.44,5.97,27.26,15.84,1.81,3.06,2.7,5.88,3.16,7.68,2.75-2.99,15.38-16.04,36.31-17.68,18.04-1.41,38.29,5.96,38.04,11.43-.33,7.16-35.9,12.13-83.8,18.82-3.16.44-5.82.8-7.73,1.05"/>
  <path class="cls-1" d="M86.82,313.91c-1.9,1.29-3.8,2.57-5.7,3.86,9.15-16.15,43.65-21.06,64.96-9.23-6.43-9.11-18.23-13.14-32.38-11.18-11.94,1.65-22.2,6.74-31.07,14.8-1.35,1.23-2.74,2.42-4.15,3.58-.21.18-.63.1-2,.29,1.24-3.1,1.95-5.95,3.42-8.33,11.32-18.38,34.4-24.41,55.43-14.22,5.47,2.65,10.27,6.65,15.46,9.89,1.31.82,3.22,1.85,4.36,1.43,1.02-.37,1.81-2.58,1.92-4.03,1.24-17.4,6.14-33.65,14.06-49.19,2.09-4.1,3.15-9.25,3-13.86-.39-11.72.42-23.24,2.99-34.66,2.58-11.48,7.61-21.21,18.53-27.08,5.54-2.98,10.7-6.7,16.25-9.66,2.02-1.08,4.69-1.22,7.08-1.3,13.8-.43,31.29-17.34,32.05-31.15.02-.44-.17-.89-.38-1.95-1.38,1.48-2.5,2.6-3.52,3.81-1.28,1.53-2.43,3.18-3.72,4.7-5.3,6.18-11.75,9-15.29,6.75-5.29-3.37-8.76-13.98-6.2-20.19,1.11-2.69,2.71-5.62,4.95-7.32,4.18-3.18,4.16-7.32,3.92-11.65-.06-1.12-1.22-2.15-1.71-3.29-.78-1.83-2.05-3.75-1.97-5.58.12-3-.7-4.01-3.72-4.45-3.57-.51-7.24-1.47-10.46-3.06-7.89-3.9-9.9-10.38-6-18.24,1.39-2.81,2.09-5.11.27-8.31-3.45-6.04,2.2-17.82,9.11-18.89,8.52-1.32,13.16-6.25,15.68-14.05,3.71-11.49,10.45-19.6,23.25-21.66,3.7-.6,7.29-2.9,10.55-5.01,11.53-7.45,28.11-7.36,39.39.55,5.78,4.06,11.09,8.85,19.03,8.41,1.66-.09,3.58,2.26,5.19,3.7,3.45,3.09,6.93,6.18,10.09,9.55,1.3,1.39,2.19,3.43,2.63,5.32,1.59,6.86,2.99,13.78,4.27,20.71.31,1.68.12,3.56-.3,5.23-.55,2.16-1.71,4.16-2.34,6.3-.32,1.07.36,2.52-.11,3.44-3.35,6.67-6.72,13.33-10.39,19.82-2.28,4.03-5.5,7.56-7.57,11.67-3.66,7.28-6.43,15.01-10.25,22.19-1.59,3-4.87,5.12-7.47,7.55-1.04.97-3.28,1.65-3.33,2.55-.39,7.05-1.57,14.38-.15,21.12,1.37,6.51,13.25,9.95,19.46,7.04,1.25-.58,2.79-1.18,4.05-.96,6.13,1.04,12.31,2.03,18.28,3.71,3.38.95,6.41,3.19,9.57,4.91,1.41.77,2.65,2,4.14,2.47,8.03,2.54,14.23,7.41,18.15,14.77,6.19,11.6,11.96,23.42,18.03,35.09.81,1.55,2.41,3.98,3.44,3.88,3.59-.35,8.35-.54,10.34-2.82,2.93-3.36,5.19-5.71,10.02-5.82,5.38-.12,10.7-1.79,16.1-2.18,1.58-.11,4.13,1.44,4.85,2.91,3.82,7.77,3.66,7.77,12.27,7.29,1.6-.09,4.46.43,4.63,1.16.38,1.63-.1,3.87-1.05,5.33-7.97,12.3-16.12,24.48-24.24,36.68-1.59,2.39-2.33,4.62-.32,7.27,20.22,26.74,21.58,56.86,15.54,88.21-4.78,24.83-6.68,49.81-5.3,75.1.28,5.12-.88,10.65-2.73,15.48-3.8,9.89-4.3,19.87-2.26,29.98,1.86,9.25-.43,16.94-7.38,23.02-4.29,3.75-5.81,8.21-5.92,13.62-.23,11.66-.57,23.32-1.02,34.98-.11,2.79-.82,5.56-1.24,8.34-.87,5.84-2.64,11.72-2.41,17.52.44,11.13,1.7,22.27,3.2,33.32,1.4,10.35,0,19.37-9.49,25.4-7.85,4.99-10.41,11.71-9.26,20.98,1.12,9.05.21,18.34,1.01,27.45,1.28,14.62-4.28,26.26-16.12,33.82-9.27,5.92-11.87,13.18-11.92,23.55-.12,29.82-1.34,59.64-1.68,89.46-.1,9.29,1.05,18.61,1.98,27.88.78,7.87-2.19,12.44-10.02,13.92-3.59.68-7.29,1.36-10.9,1.16-2.3-.13-4.5-1.89-6.76-2.88-2.25-.98-4.46-2.51-6.79-2.71-3.78-.32-7.78.98-11.43.25-4.55-.9-10.11-1.98-12.99-5.07-6.53-7.01-13.61-4.91-22.01-3.95,1.05,3,1.28,5.96,2.85,7.69,4.76,5.22,10.08,9.94,15.13,14.91,3.15,3.1,6.99,5.85,9.15,9.55,3.83,6.56.93,12.61-6.38,14.72-3.67,1.06-7.48,1.65-11.23,2.42-5.46,1.12-10.89,2.71-16.41,3.14-3.2.24-6.89-.78-9.75-2.34-6.02-3.28-9.51-2.03-10.51,4.55-1.85,12.26-5.77,15.04-18.19,15.53-11.41.45-22.09-1.45-32.39-6.16-5.91-2.71-7.83-5.32-6.55-11.72,1.01-5,3.06-9.81,4.91-14.61,1.56-4.03,3.52-7.91,5.28-11.87.33-.75.55-1.56.94-2.69-1.97-1.15-4.31-1.94-5.77-3.54-1.45-1.59-2.76-3.97-2.81-6.04-.11-3.87-1.46-5.47-5.32-6.16-5.01-.89-9.63-2.29-12.3,4.03-.6,1.42-2.66,2.59-4.3,3.16-7.89,2.73-22.23-1.4-27.66-7.81-3.74-4.4-5.13-9.46-2.96-14.89,2.03-5.08,3.99-10.39,7.11-14.8,14.11-19.92,21.46-42.3,23.94-66.21,2.3-22.17,3.45-44.45,4.84-66.71.14-2.32-1.01-5.14-2.45-7.06-3.09-4.12-4.58-8.58-3.89-13.56,1.45-10.47-1.87-18.91-9.78-25.86-8.29-7.27-11.8-16.54-11.42-27.61.33-9.48.26-19.02-.41-28.47-.23-3.25-2.02-7.29-4.47-9.33-9.18-7.64-13.77-16.89-12.64-28.88.14-1.49-.13-3.02.05-4.5,1.14-9.62-.64-17.73-8.98-24.24-5.87-4.59-7.58-12.12-7.79-19.42-.17-5.79-2.12-10.4-6.52-13.93-7.7-6.18-10.61-14.22-9.85-23.86.18-2.32-.08-4.68.11-7,.95-11.35-1.27-21.28-8.89-30.6-4.11-5.02-6.14-12.66-6.84-19.35-1.23-11.72-.7-23.62-.95-35.45-.04-1.82-.33-3.64-.55-5.46-.47-3.85-2.54-5.51-6.52-6.12-7.04-1.07-13.98-2.88-20.95-4.41-6.86-1.51-10.77-6.22-13.25-12.42-.43-1.08-.84-2.17-1.29-3.25-3.38-8.21-4.23-8.76-12.99-8.44-1.17.04-2.36.28-3.49.11-.87-.14-2.38-.83-2.36-1.2.06-1,.53-2.32,1.3-2.86,1.56-1.12,3.43-1.81,6.14-3.16-2.09-1.99-3.53-3.7-5.29-4.97-13.21-9.57-26.46-19.09-39.76-28.55-2.72-1.94-5.21-3.78-3.62-8.23,3.17,0,6.66.41,10-.11,3.45-.55,7.94-.98,9.9-3.25,8.63-9.98,19.39-9.16,30.09-6.31,6.61,1.76,13.07,5.12,18.76,8.99,4.84,3.29,7.57,8.71,6.4,15.45-5.75-14.21-16.79-20.73-31.32-21.74-7.78-.54-15.81-.79-21.25,7.61,12.7.36,25.15.82,35.27,9.56-16.31-8.43-33.99-7.09-51.54-6.66,5.94.7,11.89,1.39,17.83,2.11,4.79.59,9.57,1.31,14.37,1.83,12.91,1.39,21.94,8.06,27.19,19.85,11.55-.63,12.85-1.45,20.51-12.76,1.5-.51,2.99-1.07,4.5-1.54,3.88-1.21,7.77-2.37,11.66-3.55.03.18.07.37.1.55l-17.74,8.37c.17.36.34.72.51,1.09,4.8-2.01,9.6-4.03,14.41-6.04.09.24.18.49.27.73-3.55,1.81-7.1,3.62-10.65,5.43,15.43-6.3,31.54-3.88,47.33-4.38-1.12-8.72-1.12-9.01-9.79-9.23-6.96-.17-14.14-.47-20.85.99-6.78,1.47-13.11,5.04-19.64,7.68ZM325.79,36.91c4.36,2.7,8.73,5.39,12.62,7.8-.67-5.03-7.76-10.12-17.32-11.6,1.64,1.34,3.26,2.65,4.88,3.98-1-.17-1.99-.34-4.42-.75,4.53,4.3,8.05,7.64,11.56,10.97.58-.61,1.16-1.22,1.74-1.83-3.02-2.85-6.05-5.7-9.07-8.55ZM300.64,20.92c2.13-.15,4.28-.59,6.38-.4,3.88.36,7.78.85,11.57,1.74,3.56.84,6.99,2.26,10.48,3.43.33-.71.66-1.42,1-2.13-2.98-2.05-5.95-4.1-9.36-6.45-.54,2.24-.74,3.09-.69,2.89-1.77-.73-3.22-1.53-4.77-1.92-5.25-1.31-9.91.61-14.45,2.93-.57,1.06-1.13,2.12-2.16,4.05,6.65-.48,12.09-.87,17.53-1.26.01-.5.02-1,.03-1.49-2.79-.22-5.59-.41-8.38-.66-2.39-.21-4.78-.48-7.17-.73ZM241.97,33.29c-.47.05-1.26-.07-1.37.16-4.34,8.57-6.54,17.54-5.51,26.45,1.97-7.82,4.08-16.17,6.19-24.52-.07.79-.15,1.57-.2,2.11,4.92-7.24,9.91-14.58,14.53-21.38-9.13-.72-23.54,15.18-22.29,25.45,3.15-4.71,6.58-9.82,10-14.94.35.24.7.48,1.04.72-.8,1.98-1.6,3.97-2.4,5.95ZM76.58,334.19c-.76,1.29-1.52,2.59-2.27,3.88-.12,3.27.03,7.45.98,12.2,1.1,5.55,2.92,10.02,4.52,13.24.61-.14,1.22-.28,1.83-.42-3.23-7.96-11.14-28.75-5.35-32.76,1.04-.72,2.75-1.06,4.01-.43,4.93,2.45-1.68,17.07,5.82,29.26,1.12,1.82,2.29,3.15,3.06,3.96.53-1.7,1.92-3.69,1.45-5.04-3.1-8.89-6.59-17.63-9.98-26.42-.1-.25-.35-1-.89-1.11-.98-.2-2.23,1.8-3.17,3.62ZM281.95,49.09c-.4-.11-.57-1.85.13-3.31.15-.3.96-1.91,2.74-2.33,1.41-.33,2.58.28,3.28.64.98.51.88.79,1.74,1.31,1.6.97,4.04,1.23,6,.15.47-.26,1.38-.85,2.13-2.08-.7.01-1.49-.03-2.33-.15-2.46-.37-4.36-1.32-5.6-2.1,1.53.49,9.85,1.56,19.18-1.93,4.61-1.72,7.28-4.44,7.54-7.89-12.72,7.71-12.33,11.02-27.46,6.92-1.44-.39-3.19-1.09-4.38-.61-2.76,1.11-6.86,2.35-7.52,4.45-.7,2.2-.97,2.66-2.25,3.57-1.71,1.21-3.29.44-5.7.91-1.55.3-3.7,1.17-6.04,3.8,9.71,5.22,17.61,4.57,24.1-4.13-1.15-.2-2.5-.2-3.6.54-1.3.87-1.57,2.33-1.95,2.23ZM255.96,68.13c-4.65,1.66-7.04,7.91-14.84,6.35,10.52-11.7,13.65-14.46,14.06-14.13.23.19-.43,1.28.13,2.33.43.8,1.36,1.14,2.08,1.3,1.83-4.53,3.66-9.05,5.5-13.58-8.88,2.2-12.19,10.31-18.82,15.11,1.56-2.95,3.13-5.91,4.69-8.86-1.22.19-2.91.65-4.32,1.93-2.06,1.88-2.03,4.17-3.32,7.28-.75,1.8-2.1,4.25-4.74,6.82-.7-.91-1.67-2.17-2.59-3.35-3.26,6.24.59,16.56,6.73,17.58-2.17-3.57-4.34-7.12-7.19-11.82,5.27,3.05,9.26,6.47,13.8,2.37,3.17-2.86,5.81-6.31,8.69-9.5,6.96,3.14,11.32,2.17,13.65-1.96-3.45,0-7.58-.09-11.7.09-.63.03-1.2,1.32-1.79,2.03ZM255.86,47.62c1.94-1.02,4.23-1.66,5.76-3.11,7.89-7.48,17.43-11.99,27.32-16.04,2.98-1.22,5.64-3.22,8.45-4.86-.16-.58-.32-1.15-.48-1.73-5.21,3.12-7.6.3-9.72-5.56-1.45,2.54-2.35,3.88-3,5.33-.77,1.74-1.33,3.57-1.97,5.36l-1.24-.31c-.35-1.69-.69-3.38-1.12-5.45-2.91,2.02-6.87,2.66-5.39,7.56.22.71-.63,2.16-1.39,2.64-.79.5-2.2.58-3.08.22-1.05-.43-1.84-1.52-2.37-2.01.51,1.81,1.06,3.77,1.61,5.74-3.49.63-6.95,4.51-9.94.03-1.26,1.63-2.54,2.84-3.25,4.32-.58,1.21-.47,2.75-.67,4.15-1.15-.28-3.04-1.12-3.33-.74-2.94,3.87-5.63,7.94-8.5,12.13,4.54,1.74,8.71-1.2,12.31-7.67ZM138.93,503.18c-1.57-10.87-3.14-21.74-4.86-33.59-10.9,11.06-10.61,20.13-.28,28.99,1.75,1.5,3.51,2.99,5.26,4.48.86,5.4,1.97,10.78,2.52,16.21.63,6.18,4.29,10.15,8.51,13.79-1.18-38.55-2.35-76.97-3.52-115.39-.43-.02-.87-.03-1.3-.05-.33,2.73-.83,5.46-.97,8.2-1.16,22.79-2.2,45.58-3.44,68.37-.16,3.02-1.26,5.99-1.92,8.98ZM356.87,234.04c.99,3.03,1.97,6.06,3.18,9.76,5.88-19.12,9.19-37.86,8.87-57.15-.12-7.27-4.45-10.88-11.65-9.97,4.42,19.11,5.19,38.42,3.5,54.22-.76-12.3-1.39-28.25-2.95-44.1-.52-5.24-3.1-10.42-5.45-15.28-.98-2.01-3.83-3.12-5.8-4.61,1.59,9.35,3.03,17.81,4.47,26.27-.99-4.68-1.82-9.41-2.99-14.05-2.56-10.17-5.82-12.98-13.91-13.18,2.67,7.31,6.4,14.7,8.06,22.53,5.16,24.41,10.71,48.82,10.42,74.03-.02,1.62,1.56,3.25,2.39,4.88.6-.23,1.2-.47,1.8-.7,2.38-10.84.52-21.76.06-32.65ZM290.21,234.93c1.53-4.88,3.06-9.76,4.72-15.04-1.86.21-3.3.37-4.7.52v14.53c-1.6,3.55-3.19,7.1-4.75,10.61.2-7.9.47-15.79.48-23.69,0-.91-1.49-2.59-2.25-2.57-1.27.03-3.07.85-3.63,1.89-.7,1.31-.83,3.29-.43,4.76,1.81,6.56,3.9,13.04,5.89,19.55-.68,2.89-1.35,5.79-2.09,8.94-11.09-14.07-21.81-27.67-32.35-41.04,14.76,3.2,41.24,3,46.68-.8-2.78,0-5.03.02-7.28,0-11.13-.1-22.27-.07-33.4-.38-5.08-.15-9.18-2.55-12.02-6.98-3.23-5.04-6.78-9.88-9.93-14.96-3.31-5.32-6.31-10.83-9.45-16.26.26,3.24,1.54,6.01,2.64,8.86,7.78,20.15,17.43,39.21,31.85,55.57,1.14,1.29,1.78,3.01,2.65,4.53-7.72-9.5-15.97-18.63-22.97-28.63-4.52-6.47-7.31-14.17-10.66-21.42-2.79-6.04-4.96-12.37-7.95-18.3-3.09-6.11-6.84-6.68-10.65-3.35,1.78,6.74,4.47,12.84,4.78,19.06.45,9.07-.77,18.22-1.33,27.34-.83,13.43-1.29,26.9-2.68,40.28-1.44,13.79,2.6,25.28,12.23,34.98,1.43,1.44,3.15,2.58,5.27,4.28-.15-1.23-.08-1.66-.24-1.8-12.79-10.36-15.25-24.27-13.84-39.62,1.05-11.42,2.24-22.85,2.57-34.3.26-9.11-.68-18.25-1.1-27.38,2.67,15.4,5.23,30.68,1.95,46.48-1.87,9.02-2.15,18.49-2.12,27.76.03,9.16,4.42,16.17,12.63,19.49-2.88-5.49-5.97-11.37-9.07-17.25.34-.23.67-.47,1.01-.7,5.74,9.34,12.66,17.33,23.02,21.19-1.58-3.35-3.18-6.74-4.99-10.57,3.72,1.4,6.34,2.38,8.95,3.36.12-.33.24-.66.37-.99-.74-1.12-1.47-2.23-2.33-3.52,3.89,2.11,7.45,4.04,11,5.97.26-.43.52-.85.78-1.28-1.15-2.07-2.29-4.13-3.44-6.2.33-.27.66-.53,1-.8,3.28,3.82,6.57,7.64,9.85,11.47.61-.38,1.22-.76,1.82-1.15,1.1-3.99-2.13-7-3.34-10.45-1.34-3.8-2.8-7.55-4.21-11.32.24-.1.48-.2.72-.31,3.01,4.58,6.03,9.17,9.04,13.75.32-.16.63-.33.95-.49-.23-3.63-.45-7.25-.73-11.63,1.14,2.32,1.95,3.96,2.87,5.84,3.58-4.88,3.99-5.86,1.65-10.41-3.41-6.63-7.3-13.02-10.97-19.51,1.29,1.19,2.74,2.25,3.85,3.59,4.76,5.7,9.43,11.48,14.75,17.98,3.62-6.84,6.73-12.82,9.94-18.74,9.72-17.95,19.49-35.88,29.23-53.82-16.89,35.24-32.6,71.15-58.06,102.52,2.17-1.3,3.76-2.39,5.48-3.23,1.12-.55,3.15-1.4,3.52-.99,2.76,3.04,3.84.11,4.83-1.38,9.03-13.59,18.23-27.07,26.77-40.96,6.68-10.88,12.48-22.3,18.67-33.48-9.49,26.08-26.1,48.42-38.63,72.96,10.7-5.1,15.2-15.82,22.81-23.76-4.27,6.84-8.53,13.68-12.8,20.52.15.12.3.24.45.37,6.45-7.33,12.9-14.66,19.36-21.98.5.39,1,.77,1.5,1.16-6.43,9.28-12.87,18.57-19.3,27.85.29.32.58.64.87.96,6.54-5.65,13.08-11.3,19.2-16.59-.48,2.29-1.08,5.1-1.67,7.9.68.46,1.35.92,2.03,1.38,7.03-5.18,14.06-10.36,20.46-15.07-2.22,3.45-4.98,7.74-7.74,12.03,4.5-3.5,7.72-8.14,11.99-11.44,10.19-7.89,11.08-18.31,9.33-29.68-.63-4.11-1.79-8.13-2.57-12.21-2.61-13.7-5.16-27.41-7.74-41.12-3.39,12.26-3.33,25.06-9.73,36.25-.22-1.2-.06-2.32.1-3.44,1.84-12.51,3.81-25,5.44-37.54.33-2.53-.19-5.37-1.08-7.79-.51-1.38-2.54-2.2-3.89-3.27-.73,1.02-1.46,2.04-2.19,3.06,1.39-3.4,1.93-6.68-2.05-10.21-4.73,9.44-9.27,18.62-13.91,27.75-7.2,14.19-14.46,28.35-21.68,42.51ZM321.92,304c3.05-3.22,6.11-6.44,9.16-9.65.43.32.86.63,1.3.95-8.21,11.36-16.43,22.71-24.64,34.07.52.44,1.04.88,1.56,1.32,2.56-2.81,5.27-5.5,7.65-8.45,5.4-6.67,10.64-13.47,15.95-20.23,2.3,5.23,4.59,10.46,6.89,15.7.78-.42,1.56-.84,2.35-1.26-3.13-4.77-6.26-9.54-9.38-14.3.56-1.42,1.11-2.84,1.67-4.25.47-.06.94-.12,1.41-.17,2.42,5.87,4.84,11.74,7.53,18.28.65-1.87,1.05-3.02,1.39-3.98,6.04,1.41,11.8,2.77,17.57,4.12.1-.37.2-.74.3-1.11-5.26-1.45-10.53-2.91-15.79-4.36,0-.52.02-1.03.03-1.55,1.15-.36,2.57-1.34,3.4-.97,6.21,2.72,12.29,5.73,18.43,8.61,4.8,2.25,9.49,4.85,14.48,6.57,7,2.42,14.15,4.62,21.4,6.09,7.3,1.48,14.92,3.96,21.84-1.72,4.98-4.09,7.17-11.46,4.83-17.14-1.69-4.11-6.55-6.16-13.34-5.55-1.99.18-3.95.57-5.93.9-3.57.59-5.66-.39-7.16-4.2-4.32-10.96-9.22-21.69-13.98-32.71-3.17,1.64-3.95,3.85-2.69,6.72,1.14,2.59,2.6,5.05,3.59,7.69.52,1.4.87,3.35.26,4.51-.39.75-2.83,1.03-4.05.62-3.35-1.12-5.93-.33-8.84,1.55-6.25,4.04-18.97,2.61-24.44-2.48,4.32-6.6,8.32-13.49,13.08-19.81,8.05-10.68,17.77-20.18,22.37-33.23.53-1.5,2.96-3.13,4.64-3.29,9.94-.98,19.93-1.46,29.89-2.28,4.71-.39,9.38-1.17,14.34-1.81-.51-2.88-.87-4.89-1.25-7.06-6.71,1.36-12.88,2.59-19.05,3.87-.79.16-1.53.56-2.31.82-3.17,1.08-6.28,2.55-9.54,3.12-3.41.6-6.98.45-10.47.41-4.16-.05-7.35,1.46-9.72,4.96-14.07,20.74-9.21,10.58-21.74,31.73-1.9,3.21-4.12,7-7.67,11.93-2.36,3.28-4.44,5.86-5.82,7.52-.93-.37-2.2-1.02-3.41-2.18-2.69-2.55-3.23-5.77-3.37-6.89-2.61,3.36-2.36,5.75-2.21,6.71.35,2.26,2,4.11,4.27,5.88,1.83,1.44,3.16,3.52,4.72,5.3-1.88-.09-2.92-.9-3.87-1.79q-8.36-7.76-4.51-18.35c4.91.45,9.57.2,12.73-4.77-2.5.22-4.79.61-7.06.56-3.19-.08-5.06,1.19-5.55,4.38-.59,1.83-1.14,3.93-1.54,6.28-.24,1.39-.39,2.7-.49,3.93,2.12,4.19,4.25,8.38,6.37,12.58-1.48-.02-3.65-.21-6.08-1.03-5.84-1.97-7.64-5.72-10.37-5.3-1.58.24-3.58,1.89-5.32,8.24-1.4-1.01-2.68-2.63-4.21-2.92-14.68-2.84-29.47-2.27-44.16-.42-16.15,2.04-32.21,4.77-48.32,7.12-5.81.85-5.98.99-4.3,6.97,6.48-1.39,12.95-2.86,19.46-4.16,23.22-4.63,46.56-7.91,70.36-6.29,3.76.26,7.65,1.88,11.32-.48-1.28,2.08-2.55,4.16-3.83,6.24-2.23,2.09-4.46,4.18-6.18,5.8-5.19-.73-9.97-2.12-14.68-1.93-13.77.57-27.6,1.11-41.23,2.93-10.48,1.4-20.74,4.61-31.04,7.28-3.76.98-6.49,3.21-4.77,8.36,29.43-11.09,60.14-10.68,91.65-12.73,1.64-2.61,3.89-6.21,6.15-9.81ZM230.68,174.36c-.09.46-.4,1.06-.22,1.37,4.91,8.31,9.55,16.81,14.94,24.81,4.62,6.87,11.42,10.56,20,10.3,9.49-.28,19.01-.19,28.45-1,2.91-.25,6.86-2.22,8.2-4.6,6.82-12.12,12.94-24.64,19.56-37.52-9.53-1.37-17.12-5.26-23.29-12.57-1.95,7.31-3.68,13.82-5.42,20.34-.41-4.29-.47-8.57.73-12.46,2.29-7.44.7-13.13-3.93-19.59-7.73-10.79-13.86-22.71-20.76-34.11-1.19-1.97-2.85-3.66-4.84-6.16-.87,2.31-1.39,3.33-1.65,4.42-2.54,10.82-5.31,21.6-7.48,32.49-2.12,10.64-8.01,18.07-17.5,22.92-3.78,1.93-7.57,3.84-11.74,5.96,1.91,2.16,3.39,3.84,4.86,5.51l.1-.1ZM227.07,861.84c-1.22,1.71-2.5,3.38-3.64,5.14-2.42,3.72-1.71,7.35,1.76,9.4,2.85-7.84,11.2-14.06,20.71-13.48,14.33.87,27.14-3.38,40.11-8.6,19.33-7.76,29.31-22.67,34.38-41.85.25-.96.03-2.05.03-4.5-2.56,3.69-4.32,6.24-6.11,8.79-15.92,22.71-36.56,36.81-65.36,37.33-5.67.1-11.32,3.31-16.92,5.25-1.8.62-3.42,1.78-5.13,2.7,5.01-6.25,11.5-9.89,19.41-11.07,28.22-4.23,47.4-20.15,59.71-45.48,16.23-33.38,25.71-68.9,33.91-104.83,2.15-9.44,3.75-19,5.66-28.84,0,5.19.26,10.02-.05,14.81-.7,10.81-1.36,21.63-2.59,32.38-5.16,45.01-10.51,90-15.85,134.99-.21,1.75-.7,3.69-1.71,5.08-2.49,3.43-.26,5.6,2.31,5.79,5.37.39,10.81-.33,16.22-.59.03-.61.05-1.22.08-1.84-3.4-1.14-6.8-2.27-11.56-3.87,7.52.83,7.67.84,8.25-6.51,4.48-57.14,9.05-114.27,13.27-171.43,2.19-29.58,3.32-59.23,5.64-88.8,3.53-45.01,7.69-89.98,11.59-134.96.12-1.39.43-2.77.65-4.15,1.37,12.14,2.29,24.23,2.07,36.29-.76,40.82-1.41,81.65-3.08,122.43-2.37,58.11-5.67,116.17-8.44,174.26-1.26,26.46-2.19,52.93-3.29,79.39-.01.29-.29.57-.45.86-1.35.29-2.7.57-4.9,1.04,3.96,4.1,8.02,1.88,11.51,1.6,2.14-.17,4.17-2.12,6.15-3.43.3-.2.05-1.25.03-1.9-.63-15.62-2.32-31.29-1.7-46.86,1.89-48.11,4.69-96.19,7.08-144.28,3.62-72.94,4.12-145.92,2.15-218.91-.66-24.57-4.62-48.72-10.71-72.51-.66-2.57-1.98-4.98-3-7.46l-1.38.36v38.07c-.22.01-.43.03-.65.04-1.68-11.33-3.35-22.67-5.03-34-.64,0-1.29,0-1.93,0-.47,1.47-1.23,2.92-1.36,4.42-.89,10.09-2.54,20.21-2.29,30.27,1.37,54.04-.06,107.95-5.29,161.78-3.37,34.7-9.02,68.99-15.27,103.26-8.41,46.06-19.61,91.1-39.9,133.63-7.03,14.74-18.15,23.86-32.47,30.08-1.56.68-3.41.69-5.12,1.01,9.85-6.79,21.66-10.49,28.41-22.87-1.65.95-2.25,1.17-2.71,1.57-7.93,6.91-16.95,11.53-27.18,14.19-12.89,3.35-21.22,12.62-28.16,23.33-.73,1.13-.83,2.68-1.36,4.5,1.64-.48,2.57-.75,3.49-1.02ZM263.25,486.42c-.13.13-.27.25-.4.38-2.28-1.82-4.34-4.1-6.9-5.33-1.97-.94-5.11-1.56-6.79-.63-10.85,5.97-21.18,12.88-28.47,23.1-6.18,8.67-8.16,17.95-1.26,27.62,2.29,3.21,3.63,7.11,5.79,11.5-8.26-7.77-11.41-17.27-14.69-26.93-1.05,2.33-1.54,4.45-1.27,6.47,1.35,10.4,2.26,20.92,4.48,31.14,5.52,25.37,11.61,50.62,17.61,75.89,1.84,7.77,4.26,15.4,6.14,23.16,1.52,6.31.23,12.23-3.48,17.6-3.97,5.76-7.92,11.54-11.86,17.32-5.57,8.17-9.31,17.13-9.17,27.05.21,14.62.37,29.33,2.02,43.83,1.45,12.75,4.92,25.27,7.49,37.9l1.18-.24c-1.17-6.19-2.59-12.34-3.47-18.57-2.82-19.94-6.61-39.82-4.27-60.13.81-6.99,2.93-13.47,6.8-18.51-1.4,9.18-2.88,18.91-4.37,28.64,1.95-1.2,2.66-2.72,3.84-3.66,6.7-5.38,13.48-10.66,20.3-15.9,2.22-1.7,4.43-3.97,6.97-4.55,3.07-.7,3.64-2.08,3.69-4.72.2-10.05.07-20.06-3.02-29.78-.49-1.53-.74-3.14-1.1-4.72,6.13,12.25,12.74,23.15,29.27,16.54-.69,3.32-1.33,6.41-1.97,9.5,3.97-5.4,7.75-10.74,10.35-16.6,3.28-7.39,6.93-15,8.12-22.87,6.01-39.67-.45-78.3-11.36-116.39-1.49-5.19-3.55-10.22-5.34-15.33.58-.2,1.16-.41,1.74-.61,5.54,14.88,11.09,29.76,17.08,45.86-.2-3.27-.24-5.34-.47-7.39-3.02-26.77-10.69-52.49-17.9-78.31-.53-1.91-1.19-3.99-2.43-5.43-1.31-1.51-3.4-2.36-5.14-3.49-.17,1.9-.95,3.99-.42,5.67,2.53,8.02,5.42,15.93,8.18,23.88-1.52-1.33-2.46-2.89-3.25-4.53-2.68-5.54-5.07-11.24-8.04-16.62-2.56-4.64-6.15-4.79-10.11-.71,1.94,2.92,3.93,5.9,5.91,8.89ZM224.76,845.62c8.78-6.95,16.6-13.36,24.67-19.43,3.44-2.59,7.49-4.34,11.12-6.69,14.93-9.66,27.32-21.72,35.73-37.61,12.13-22.9,19.55-47.53,24.47-72.7,13.09-67.05,24.77-134.41,28.65-202.71,1.77-31.19.11-62.58-.24-93.88-.05-4.09-1.58-8.17-2.42-12.25-.5.04-1,.09-1.5.13-.23,2.47-.47,4.94-.7,7.44-.89-1.19-1.62-2.17-2.37-3.17-4.14,2.63-5.04,6.33-5.38,10.5-1.17,14.52-2.5,29.02-3.77,43.53-1.96-11.4.8-23.21-4.83-35.64-1.01,3.24-1.98,5.04-2.09,6.9-.63,10.79-1.38,21.59-1.49,32.39-.24,22.65.98,45.38-.37,67.96-2.39,40.06-5.81,80.07-9.61,120.02-3.06,32.18-7.99,64.15-16.65,95.38-9.2,33.21-25.44,61.09-58.64,75.94-7.95,3.56-10.79,11.77-14.78,18.73-.7,1.23.09,3.31.21,5.17ZM260.69,370.71c0-7.95.02-21.25-.02-34.55,0-3.15.08-6.36-.5-9.43-.27-1.43-2.22-3.75-3.08-3.61-1.58.25-3.58,1.75-4.19,3.23-1.12,2.71-1.47,5.77-1.93,8.72-1.08,7.04-2.03,14.1-3.04,21.16-.38-.05-.76-.1-1.14-.14.55-9.91,1.09-19.82,1.63-29.57-4.41-1.77-5.6.54-6.39,3.6-.68,2.61-1.48,5.19-2.23,7.78-.24-.06-.49-.12-.73-.19.32-3.69.65-7.38.97-11.07-.59-.14-1.18-.28-1.76-.42-1.89,6.83-3.78,13.66-5.66,20.48-.16-.03-.32-.05-.48-.08.9-5.8,1.8-11.59,2.7-17.39-.49-.09-.97-.17-1.46-.26-4.85,12.52-9.38,25.18-14.64,37.53-5.13,12.05,6.83,30.97,20.64,29.6,2.72-.27,5.68.43,8.35,1.25,6.09,1.86,10.62.08,15.35-4.12,13.55-12.06,27.6-23.55,41.32-35.42,2.13-1.85,5.32-4.88,4.95-6.76-1.11-5.62-3.75-10.95-5.83-16.37-.01-.04-.59.14-1.17.29-.21,2.57-.43,5.23-.68,8.24-1.39-7.09-2.7-13.78-4.02-20.46-.54-2.74-1.74-4.65-5.96-3.72v23.1c-.48,0-.96.02-1.44.03-.51-6.21-.82-12.44-1.64-18.6-.24-1.8-1.91-3.42-2.93-5.12-1.89,1.61-4.57,2.87-5.47,4.91-1.07,2.44-.7,5.54-.81,8.36-.31,8.5-.55,17.01-.82,25.51-1.22-1.94-1.35-3.88-1.43-5.82-.36-8.65-.63-17.31-1.1-25.95-.16-2.99-1.08-5.61-5.03-5.43-3.55.17-6.13,1.03-6.16,5.36-.02,2.98-.67,5.95-.94,8.93-1.25,13.9-2.47,27.81-3.23,36.38ZM210.83,226.84c.49-12.1,1.08-24.2,1.39-36.3.07-2.6-.75-5.25-1.4-7.82-.9-3.58-3.09-4.66-6.75-3.58-9.72,2.88-16.07,9.13-19.24,18.64-3.78,11.34-5.89,23.13-4.66,34.93,1.18,11.27-2.37,20.74-6.81,30.62-3.79,8.41-6.64,17.42-8.52,26.45-1.86,9-.41,18.96-10.79,24.69,9.56,8.03,18.37,15.41,28.11,23.59,6.05-17.91,11.97-34.49,17.23-51.28,5.41-17.25,9.66-34.73,4.76-52.98-.3-1.1-.42-2.39-.15-3.47.68-2.75,2.28-4.37,6.83-3.48ZM331.73,65.33c1.76-6.04-.02-10.97-3.63-15.49-3.26-4.09-6.47-8.21-9.69-12.31-2.7,6.92-9.95,8.92-15.88,12.7-6.54,4.16-12.73,8.86-19.08,13.33,6.24-.25,11.75-2.1,17.26-2.1,5.25,0,11.27-.13,14.85,4.47-.75,2.13-2.79,6.87-7.57,9.26-.75.37-1.49.65-2.21.86-.85,1.34-2.71,3.79-5.46,4.12-2.39.28-4.35-1.19-7.8-3.65-2.42-1.72-4.9-3.4-7.16-5.32-2.59-2.2-4.58-1.87-6.79.59-4.71,5.25-10.39,9.9-9.14,18.44-.51.1-1.01.21-1.52.31-4.28-3.59-8.55-7.17-13.54-11.36.3,2.15-.16,5.01,1.05,6.29,3.7,3.91,5.36,11.35,13.49,8.59-.7,8.08,2.62,14.35,7.9,19.51,7.64,7.47,16.18,13.71,27.62,12.65,2.68-.25,6.1-2.33,7.48-4.61,2.03-3.35,2.54-7.63,3.92-12.27-1.5.44-3.61.89-6.16.9-2.67.02-4.88-.45-6.42-.9-.61-.22-1.22-.44-1.83-.67,2.88-.98,5.07-1.84,6.59-2.47,2.16-.89,3.66-1.61,5.09-.99.6.26,1.01.68,1.82.67,1.1-.02,1.68-.81,2.3-.54.24.1.53.38.67,1.18,2.35-2.09,9.38-9.46,10.58-20.49.26-2.42-.1-4.78-.82-7.9-5.37,1.8-5.3,1.79-4.93,7.39.12,1.85-.24,3.73-.38,5.6-5.05-18.09-2.49-24.81,9.38-25.82ZM351.49,352c-.51-.16-1.02-.32-1.53-.47-1.25,1.93-2.5,3.85-3.74,5.78-13.23,20.58-26.46,41.15-42.52,59.74-11.26,13.04-24.16,23.84-39.75,31.2-11.28,5.32-22.71,10.33-34.13,15.36-9.08,4-18.39,8.33-24.01,16.48-5.12,7.42-7.97,16.42-11.74,24.76-.39.86-.48,2.01-.29,2.94.56,2.83,1.97,4.7,3.53,4.39,1.43-3.44,1.8-6.1,3.32-7.6,3.65-3.59,7.66-6.87,11.84-9.84,20.06-14.26,39.62-29.2,61.48-40.84,37.67-20.07,63.84-50.55,79.21-90.33.76-1.96,1.18-4.05,1.76-6.08-.31-.08-.63-.16-.94-.24l-7.05,13.94c-.21-.09-.42-.18-.63-.27,1.73-6.31,3.46-12.62,5.19-18.93ZM232.14,823.63c13.23-6.54,21.52-15.82,28.31-26.81,15.56-25.18,26.13-52.39,33.47-80.93,10.86-42.23,15.33-85.53,20.89-128.61,5.89-45.69,6.23-91.69,5.52-137.69-.03-2.23-.44-4.45-.79-7.76-4.27,3.48-4.26,7.49-4.46,11.01-1.77,32.42-3.7,64.84-4.89,97.28-1.46,39.5-4.62,78.77-12.35,117.6-6.51,32.68-13.64,65.19-26.37,96.17-8.17,19.87-18.1,38.6-34.23,53.37-1.64,1.5-2.83,3.5-5.08,6.36ZM340.9,347.88c-6.66,5.95-14.5,11.33-20.27,18.4-23.4,28.69-50.96,52.46-82.07,72.29-10.24,6.53-20.64,12.83-30.64,19.72-4.45,3.07-8.27,7.16-12,11.14-3.13,3.34-2.97,7.13-.27,10.37,6.96-4.53,13.61-9.11,20.5-13.3,20.47-12.44,41.58-23.93,61.43-37.28,27.28-18.34,46.86-43.62,60.47-73.5,1.26-2.76,2.08-5.71,2.84-7.84ZM412.35,464.67c6.28-4.26,11.66-8.13,17.26-11.64,5.86-3.69,8.67-8.35,8.31-15.66-1.38-28.41.63-56.56,6.76-84.45,3.15-14.3,2.58-28.86-.82-43.14-2.03-8.51-7.47-13.73-16.23-15.73-8.24-1.89-13.21,2.24-17.62,8.49,1.16-.16,2.12-.3,3.09-.41,13.89-1.54,19.77,2.11,22.01,15.96,1.57,9.75,2.51,20.01,1.23,29.72-3.88,29.46-6.92,58.9-5.9,88.65.07,2.12-.3,4.25-.46,6.37-.67-.03-1.33-.05-2-.08-.65-26.42-1.3-52.84-1.99-80.47-4.6,34.53-9.05,67.96-13.64,102.39ZM397.59,596.02c-3.78-4.38-2.09-8.6.18-12.23,4.45-7.15,5.24-14.83,5.22-22.98-.03-15.15.2-30.31.74-45.45,1.6-44.79,2.64-89.57-.94-134.31-.26-3.25-.89-6.46-1.35-9.69-1.57,10.76-2.38,21.38-2.7,32.01-1.89,61.92-3.74,123.85-5.3,185.78-.09,3.76,1.49,8.61,4.07,11.17,5.66,5.64,12.46,10.13,19.83,15.91-1.55-14.58-2.94-27.58-4.32-40.58-.61-.13-1.21-.25-1.82-.38-4.5,6.87-9,13.73-13.62,20.77ZM252.95,909.35c.49.07.97.14,1.46.21-.88,3.34-2.13,6.65-2.51,10.05-.24,2.19.08,5.59,1.45,6.51,1.57,1.05,5.21.79,6.81-.42,1.94-1.47,3.14-4.39,3.85-6.91.7-2.48.5-5.24.49-7.87,0-4.27.24-8.6-.36-12.79-.92-6.33-2.36-12.6-3.83-18.84-.47-1.99-1.22-4.37-2.67-5.58-6.49-5.38-15.9-4.26-20.4,2.87-5.83,9.24-10.97,18.91-16.27,28.47-1.44,2.59-2.87,5.36-3.43,8.22-.37,1.89.81,4.08,1.55,7.22,2.38-4.95,3.99-8.3,5.59-11.65.27.14.53.29.8.43-.6,4.51-1.19,9.02-1.79,13.52.38.34.77.69,1.15,1.03,3.33-6.69,5.14-2.41,6.95.48q7.2-11.81,9.48-12.17c-1.27,2.85-2.31,5.78-3.83,8.44-1.88,3.29-1.2,5.36,2.32,6.49,4.14,1.33,6.81.04,7.21-4.01.3-3.09-.35-6.28-.57-9.16,1.89-1.32,4.22-2.94,6.54-4.56ZM160.16,382.94c-5.7,63.76-2.77,127.43-1.34,191.24,10.97-8.86,16.73-19.08,12.21-32.88-.25-.77-.16-1.65-.21-2.48-2.3-36.9-4.51-73.8-6.94-110.69-.99-15.08-2.47-30.13-3.72-45.19ZM199.04,455.32c.49.39.97.78,1.46,1.17,17.87-17.44,35.74-34.89,53.61-52.33-.53-.77-1.06-1.53-1.58-2.3-3.21-.62-6.4-1.63-9.63-1.79-9.48-.47-18.97-.5-28.45-.9-12.18-.52-12.17-.6-12.25-12.61-5.73,3.03-7.38,9.84-3.9,16.1,7.13,12.84,15.75,16.48,29.88,12.79,2.82-.74,5.77-.97,8.66-1.43-10.07,6.42-22.44,9.04-33.56,8-7.34-.68-9.34-3.39-7.89-10.55.39-1.92.53-3.88.96-7.14-5.7,5.4-7.71,10.42-6.66,16.73,1.45,8.75,9.2,11.83,14.65,17.44-3.1,2.03-6.59,4.27-10.03,6.57-4.35,2.9-5.29,7.26-2.79,11.4,3.13-2.39,6.3-4.81,9.47-7.23.29.31.57.63.86.94-.93,1.71-1.86,3.42-2.79,5.13ZM216.08,446.73c1.27-.66,2.32-1.06,3.2-1.69,18.39-13.19,37.2-25.85,54.98-39.82,13.69-10.76,26.27-22.97,38.97-34.93,7.64-7.19,10.3-17.33,15.13-27.25-12.46,4.85-108.83,94.12-112.28,103.68ZM169.86,856.04c4.48,6.28,7.67,7.83,13.86,7.05-3.84-2.73-7.96-5.65-12.23-8.68,2.28-3.86,3.66-6.55,8.36-6.85,7.34-.48,17.94-10.43,18.64-16.84,2.2-20.18,4.62-40.35,6.02-60.59,1.7-24.58,2.47-49.23,3.53-73.85.09-1.98-.65-3.99-1.15-6.78-2.47,27.87-4.6,54.76-7.3,81.59-2.77,27.45-11.04,53.04-27.3,75.72-2.02,2.81-3.94,5.98-4.77,9.26-.59,2.36-.23,6.26,1.33,7.63,5.45,4.79,11.85,8.19,19.55,6.98,1.57-.25,2.96-1.66,4.43-2.53-14.6,0-23.43-4.4-22.96-12.11ZM301.26,596.96c.56.02,1.11.03,1.67.05,4.89-17.06,8.35-138.12,3.98-146.17-.89.75-1.84,1.35-2.52,2.18-4.31,5.29-5.52,11.47-5.35,18.15.79,31.29,1.55,62.58,2.19,93.88.22,10.63.03,21.27.03,31.91ZM314.45,904.58c4.88-3.81,3.72-7.21.45-9.66-8.61-6.47-17.49-12.56-26.32-18.72-.73-.51-1.92-.6-2.86-.53-9.68.73-14.9,9.41-10.83,18.33,2.21,4.83,4.88,9.46,7.48,14.1,1.96,3.5,5.11,4.38,8.49,2.5,3.56-1.97,2.98-5.07,1.37-8.23-1.09-2.14-1.92-4.42-2.87-6.64l2.14-1.18c2.18,3.25,4.33,6.53,6.56,9.75.6.86,1.33,1.85,2.23,2.19.51.19,1.48-.8,2.23-1.29.72-.47,1.42-.97,2.16-1.47-1.49-2.44-3.17-5.19-4.85-7.93l1.34-.85c1.84,2.68,3.61,5.41,5.56,8.01.72.96,1.86,1.6,2.81,2.39.28-1.39,1.1-2.96.71-4.13-.75-2.24-2.18-4.24-3.71-7.02,3.76,2.39,6.71,4.26,9.66,6.13l-.61.91c-1-.67-2-1.34-3-2-.23.16-.46.33-.69.49.78,1.48,1.56,2.96,2.55,4.84ZM130.75,452.1c-9.82-13.78-10.57-29.76-13.09-45.01-3.71,1.72-4.34-.63-4.54-2.99-.59-7-1.01-14.02-1.5-21.03-1.04,1.47-1.75,3.02-1.76,4.57-.08,11.31.15,22.62-.08,33.93-.12,5.7,2.31,9.64,6.36,13.34,6.49,5.95,10.05,13.17,9,22.43-.6,5.29-.11,10.71-.11,17.41,8.4-11.56,10.49-50.53,3.93-67.11.63,15.72,1.21,30.09,1.79,44.46ZM408.19,519.05c.43,0,.87,0,1.3,0,6.04-6.63,12.2-13.15,18.03-19.96,1.78-2.07,2.79-4.86,3.89-7.43.41-.96.53-2.71-.04-3.3-5.42-5.54-10.53-11.61-19.77-13.56-1.16,15-2.28,29.63-3.41,44.25ZM181.85,347.01c-3.35.35-5.25.55-7.15.74-11.91,1.14-23.83,2.13-35.72,3.46-9.35,1.05-9.33,1.23-10.43,10.63-.03.27.26.57.97,1.99,18.81-1.72,35.88-9.79,54.26-17.09-14.72-12.96-26.14-27.88-43.1-36.49-.55,1.13-.87,1.63-.81,1.68,13.61,11.41,27.25,22.79,41.98,35.08ZM364.96,254.18c.58.24,1.15.48,1.73.71,1-1.19,2.08-2.32,3-3.57,4.36-5.89,8.46-11.99,13.11-17.64,2.6-3.16,6.09-5.58,9.68-8.79-4.68-9.07-9.91-19.22-15.14-29.37-.45.17-.89.35-1.34.52-.74,19.88-1.04,39.85-11.04,58.12ZM319.6,302.06c-1.41-.23-2.69-.46-3.98-.63-15.64-2.14-31.29-1.55-46.73,1.22-13.89,2.49-27.61,5.98-41.38,9.11-3.01.68-4.75,2.32-3.1,5.63,6.83-1.78,13.52-3.8,20.33-5.24,21.72-4.58,43.58-7.69,65.88-5.28,3.87.42,7.31-.28,8.99-4.82ZM284.98,470.02c-.23,22.33,5.93,43.31,11.75,64.38.92-24.45-.93-48.68-4.7-73.74-6.3,4.07-4.09,9.89-5.04,15.59-.87-2.71-1.44-4.47-2.01-6.24ZM407.75,524.43c-1.57,16.88-3.08,33.03-4.66,49.91,19.28-8.45,18.66-40.44,4.66-49.91ZM223.13,395.56c-1.06-1.87-1.83-3.32-2.7-4.72-5.72-9.22-7.32-18.61-2.45-28.89,3.41-7.2,6.05-14.78,8.83-22.26,1.04-2.79,1.51-5.79,2.24-8.7-.43-.18-.86-.37-1.3-.55-.93,1.06-2.14,1.98-2.75,3.2-7.53,14.89-14.21,30.15-17.51,46.58-1.03,5.15-.64,10.67,3.46,15.14-.31-2.54-.63-5.09-.94-7.63,2.87,9.24,3.92,9.92,13.12,7.82ZM205.37,542.07c-.66,38.1,4.9,74.91,22.28,109.26-12.47-35.39-16.12-72.58-22.28-109.26ZM304.52,10.71c-13.27-6.55-25.18-8.5-37.23-.91-8.56,5.39-16.26,17.11-15.69,22.24,8.75-5.25,18-10.79,27.96-16.77-5.66.53-10.78,1.01-15.9,1.49,3.93-2.93,8.28-5.11,12.7-7.13,9.08-4.15,17.82.97,28.16,1.08ZM369.96,182.56c2.14,23.85-3.53,45.42-8.62,67.93,11.63-14.72,17.32-56.43,8.62-67.93ZM226.82,51.09c-3-3.69-6.15-4.34-9.7-1.96-5.74,3.84-7.14,10.66-3.44,16.89.57-.67,1.12-1.33,1.65-1.96.45,5.21.88,10.25,1.32,15.29.68.03,1.36.06,2.03.1,2.51-8.09,5.02-16.18,7.66-24.68-3.22,1.5-6.58,3.06-9.94,4.62-.22-.37-.45-.75-.67-1.12,3.62-2.34,7.24-4.69,11.1-7.19ZM156.78,331.73c.2-.24.39-.48.59-.71-5.46-4.33-10.83-8.79-16.44-12.92-1.63-1.2-4.01-2.16-5.97-2.03-12.76.86-25.54,1.74-38.23,3.29-4.24.52-8.23,3.01-12.33,4.61.16.42.32.84.49,1.26,2.26-.42,4.51-.96,6.79-1.25,10.55-1.36,21.1-2.7,31.66-3.97,11.11-1.34,21.16.82,29.42,8.96,1.14,1.12,2.67,1.85,4.02,2.77ZM386.41,664.91c2.79-2.24,4.87-3.61,6.57-5.36,1.45-1.49,3.65-3.55,3.47-5.11-1.07-8.97-2.75-17.87-4.22-26.79-.83.03-1.66.05-2.49.08-1.1,12.26-2.19,24.52-3.33,37.18ZM385.34,680.31c-.17,7.6,4.55,12.16,12.79,13.72v-27.23c-2.37,3.2-3.76,6.38-4.95,9.64-1.33,3.65-2.97,6.53-7.83,3.88ZM418.51,291.64c6.82,1.43,13.43,2.81,20.94,4.38-3.74-6.4-7.54-12.9-11.98-20.48-3.61,6.49-6.47,11.62-8.96,16.09ZM415.64,627.74c-5.43-2.95-9.85-5.36-14.65-7.97v20.12c4.41-3.66,9.3-7.71,14.65-12.15ZM271.85,218.76c-2.48,14.04.24,21.81,11.15,32.71-2.56-10.2-4.76-19.33-7.24-28.38-.37-1.35-2.05-2.34-3.91-4.34ZM97.29,337.66c.45,7.11.85,13.7,1.31,20.29.09,1.22.14,3.3.7,3.48,1.63.53,3.67.75,5.24.22.94-.32,2.01-2.4,1.84-3.51-.83-5.4-1.91-10.77-3.19-16.08-.85-3.52-3.05-5.38-5.89-4.39ZM177.75,571.73c-4.92,9.52-3.11,32.91,3.69,38.93-1.27-13.41-2.49-26.22-3.69-38.93ZM251.7,107.25c-.24.56-.61,1.09-.71,1.67-1.31,7.52-5.92,11.09-13.4,11.43-1.62.07-3.28.57-4.81,1.15-5.26,1.97-7.41,6.27-6.3,11.63,2.24-1.64,4.56-3.52,7.05-5.14,4.14-2.69,8.41-5.17,12.57-7.84,4.58-2.94,6.32-7.36,5.61-12.9ZM176.59,608.54v24.28c7.88-8.56,9.89-9.5,0-24.28ZM374.78,344.64c-.45.44-.89.89-1.34,1.33,2.14,12.89,4.28,25.77,6.41,38.66-.44-12.12-1.29-24.23-2.4-36.31-.12-1.29-1.74-2.45-2.67-3.67ZM453.78,229.01c-.06-.56-.12-1.12-.17-1.68-20.39,1.91-40.78,3.82-61.17,5.73l.13,1.23c20.4-1.76,40.81-3.52,61.21-5.28ZM73.65,360.17c-1.91-7.43-3.67-14.26-5.42-21.09-3.89,7.1-.22,20.33,5.42,21.09ZM300.97,328.38c.87.4,1.75.8,2.62,1.2l8.69-10.14c-.18-.43-.36-.86-.53-1.29-3.05,0-7.65-1.2-8.8.27-1.86,2.39-1.44,6.54-1.98,9.95ZM242.77,114.47c.37.21.74.42,1.11.64,1.62-2.27,3.23-4.54,5.39-7.56-4.64,0-8.15-.45-11.42.22-1.31.27-2.12,3.03-3.15,4.65,1.63.43,3.3,1.29,4.89,1.17,1.46-.11,2.85-1.26,4.84-2.23-.78,1.45-1.22,2.28-1.66,3.11ZM432.17,484.27c-.57-7.29-1.07-13.78-1.63-20.95-5.82,6.29-5.21,13.58,1.63,20.95ZM397.12,704.22c-.57-.55-1.15-1.11-1.72-1.66-5.16,5.15-11.68,8.99-15.51,15.43l1.5,1.49c5.25-5.09,10.49-10.17,15.74-15.26ZM170.71,591.65c.47-.21.94-.41,1.42-.62-.96-3.63-1.67-7.36-3.04-10.83-.4-1.02-2.68-1.31-4.09-1.94-.37,1.5-1.53,3.46-.97,4.41,1.9,3.19,4.41,6.01,6.69,8.98ZM188.7,656.39c-1.49-7.76-6.99-14.59-11.93-14.65,1.78,6.69,7.2,9.92,11.93,14.65ZM295.28,33.73c.2.67.39,1.34.59,2.01,4.72-1.62,9.43-3.24,14.15-4.85-5.58-1.59-10.96-2.47-14.73,2.84ZM371.58,270.93c-.92,8.02,2.43,12.98,8.56,14.08-2.65-4.36-5.53-9.1-8.56-14.08ZM336.86,34.57c-2.17-5.56-5.16-6.59-15.53-5.01,4.99,1.61,9.97,3.22,15.53,5.01ZM434.83,217.05c-5.88,1.16-11.76,2.32-17.64,3.47,6.55,2.19,12.14-.66,17.64-3.47ZM268.11,231.05c-2.84-10.94-3.51-11.87-8.16-11.45,2.82,3.96,5.49,7.71,8.16,11.45ZM214.19,71.37c-5.11,3.81-5.1,4.91-.8,10.32.22-2.78.5-6.4.8-10.32ZM309.86,14.26c-.81-.59-1.53-1.54-2.07-1.45-2.44.41-4.92.91-7.2,1.84-.86.35-1.22,1.94-2.1,3.48,4.28-1.46,7.57-2.57,11.37-3.87ZM231.25,86.43c5.95,6.43,9.53,7.33,14.92,4.06-9.11,1.01-9.6.81-12.72-5.29-.66.37-1.33.75-2.2,1.23Z"/>
  <path class="cls-1" d="M59.22,300.77c10.56,4.46,16.36,13.07,13.76,20.14-4.55-6.66-9.5-13.9-13.76-20.14Z"/>
  <path class="cls-1" d="M67.33,324.02c-2.26-4.06-4.53-8.12-6.79-12.18.36-.23.71-.46,1.07-.69,2.54,3.94,5.09,7.89,7.63,11.83-.64.35-1.27.7-1.91,1.05Z"/>
  <path class="cls-2" d="M263.25,486.42c-1.99-2.99-3.97-5.97-5.91-8.89,3.96-4.08,7.54-3.92,10.11.71,2.97,5.38,5.36,11.08,8.04,16.62.79,1.64,1.73,3.2,3.25,4.53-2.76-7.95-5.65-15.86-8.18-23.88-.53-1.68.24-3.77.42-5.67,1.75,1.14,3.84,1.98,5.14,3.49,1.25,1.44,1.9,3.52,2.43,5.43,7.21,25.82,14.88,51.53,17.9,78.31.23,2.05.27,4.11.47,7.39-6-16.1-11.54-30.98-17.08-45.86-.58.2-1.16.41-1.74.61,1.79,5.11,3.85,10.13,5.34,15.33,10.9,38.1,17.36,76.73,11.36,116.39-1.19,7.86-4.84,15.48-8.12,22.87-2.6,5.86-6.38,11.2-10.35,16.6.64-3.09,1.28-6.18,1.97-9.5-16.53,6.6-23.14-4.29-29.27-16.54.36,1.57.61,3.18,1.1,4.72,3.09,9.72,3.22,19.72,3.02,29.78-.05,2.64-.62,4.02-3.69,4.72-2.54.58-4.75,2.85-6.97,4.55-6.81,5.24-13.6,10.52-20.3,15.9-1.17.94-1.89,2.46-3.84,3.66,1.48-9.73,2.97-19.46,4.37-28.64-3.88,5.04-6,11.52-6.8,18.51-2.34,20.31,1.44,40.19,4.27,60.13.88,6.23,2.3,12.38,3.47,18.57l-1.18.24c-2.58-12.62-6.04-25.14-7.49-37.9-1.65-14.5-1.8-29.2-2.02-43.83-.14-9.93,3.6-18.89,9.17-27.05,3.94-5.78,7.89-11.56,11.86-17.32,3.71-5.37,5-11.29,3.48-17.6-1.87-7.76-4.29-15.39-6.14-23.16-5.99-25.27-12.09-50.52-17.61-75.89-2.22-10.22-3.14-20.74-4.48-31.14-.26-2.02.23-4.14,1.27-6.47,3.28,9.65,6.43,19.16,14.69,26.93-2.17-4.39-3.5-8.28-5.79-11.5-6.9-9.67-4.92-18.95,1.26-27.62,7.29-10.22,17.62-17.14,28.47-23.1,1.69-.93,4.83-.31,6.79.63,2.56,1.23,4.63,3.5,6.9,5.33.13-.13.27-.25.4-.38Z"/>
  <path class="cls-2" d="M227.07,861.84c-.93.27-1.85.54-3.49,1.02.53-1.82.63-3.37,1.36-4.5,6.94-10.7,15.27-19.98,28.16-23.33,10.23-2.66,19.25-7.29,27.18-14.19.46-.4,1.06-.63,2.71-1.57-6.75,12.38-18.56,16.07-28.41,22.87,1.71-.32,3.56-.34,5.12-1.01,14.32-6.22,25.44-15.34,32.47-30.08,20.29-42.53,31.49-87.57,39.9-133.63,6.26-34.27,11.91-68.56,15.27-103.26,5.22-53.83,6.66-107.74,5.29-161.78-.26-10.07,1.4-20.19,2.29-30.27.13-1.5.89-2.95,1.36-4.42.64,0,1.29,0,1.93,0,1.68,11.33,3.35,22.67,5.03,34,.22-.01.43-.03.65-.04v-38.07l1.38-.36c1.01,2.48,2.34,4.88,3,7.46,6.1,23.79,10.05,47.94,10.71,72.51,1.97,72.99,1.47,145.97-2.15,218.91-2.39,48.09-5.19,96.17-7.08,144.28-.61,15.57,1.07,31.24,1.7,46.86.03.65.27,1.7-.03,1.9-1.98,1.31-4.01,3.26-6.15,3.43-3.49.27-7.55,2.5-11.51-1.6,2.2-.47,3.55-.75,4.9-1.05.16-.29.44-.56.45-.85,1.1-26.46,2.03-52.94,3.29-79.39,2.77-58.09,6.07-116.16,8.44-174.26,1.66-40.79,2.31-81.62,3.08-122.43.23-12.06-.7-24.15-2.07-36.29-.22,1.38-.53,2.76-.65,4.15-3.91,44.98-8.06,89.95-11.59,134.96-2.32,29.57-3.46,59.22-5.64,88.8-4.22,57.16-8.79,114.29-13.27,171.43-.58,7.35-.73,7.34-8.25,6.51,4.77,1.59,8.16,2.73,11.56,3.87-.03.61-.05,1.22-.08,1.84-5.41.26-10.86.97-16.22.59-2.57-.18-4.8-2.36-2.31-5.79,1-1.38,1.5-3.33,1.71-5.08,5.34-44.99,10.69-89.98,15.85-134.99,1.23-10.75,1.89-21.58,2.59-32.38.31-4.79.05-9.62.05-14.81-1.91,9.83-3.51,19.4-5.66,28.84-8.2,35.94-17.68,71.45-33.91,104.83-12.32,25.33-31.49,41.25-59.71,45.48-7.91,1.19-14.4,4.82-19.41,11.07l.17-.18Z"/>
  <path class="cls-2" d="M224.76,845.62c-.11-1.86-.91-3.94-.21-5.17,3.98-6.96,6.82-15.17,14.78-18.73,33.2-14.85,49.43-42.73,58.64-75.94,8.66-31.23,13.58-63.2,16.65-95.38,3.8-39.95,7.22-79.96,9.61-120.02,1.35-22.58.13-45.3.37-67.96.11-10.8.86-21.6,1.49-32.39.11-1.86,1.08-3.66,2.09-6.9,5.63,12.43,2.87,24.24,4.83,35.64,1.27-14.51,2.61-29.01,3.77-43.53.34-4.17,1.23-7.87,5.38-10.5.75,1,1.48,1.98,2.37,3.17.24-2.5.47-4.97.7-7.44.5-.04,1-.09,1.5-.13.84,4.08,2.38,8.16,2.42,12.25.35,31.3,2.01,62.69.24,93.88-3.87,68.3-15.56,135.66-28.65,202.71-4.91,25.17-12.34,49.8-24.47,72.7-8.41,15.89-20.8,27.95-35.73,37.61-3.63,2.35-7.68,4.11-11.12,6.69-8.07,6.07-15.88,12.48-24.67,19.43Z"/>
  <path class="cls-2" d="M230.58,174.46c-1.48-1.67-2.96-3.35-4.86-5.51,4.17-2.12,7.96-4.03,11.74-5.96,9.49-4.84,15.38-12.27,17.5-22.92,2.17-10.9,4.94-21.67,7.48-32.49.26-1.09.78-2.11,1.65-4.42,1.99,2.51,3.64,4.19,4.84,6.16,6.9,11.39,13.03,23.32,20.76,34.11,4.63,6.46,6.22,12.15,3.93,19.59-1.2,3.89-1.14,8.17-.73,12.46,1.74-6.52,3.47-13.03,5.42-20.34,6.18,7.31,13.76,11.2,23.29,12.57-6.62,12.88-12.74,25.4-19.56,37.52-1.34,2.38-5.29,4.35-8.2,4.6-9.44.81-18.96.72-28.45,1-8.57.25-15.37-3.43-20-10.3-5.38-8-10.02-16.5-14.94-24.81-.18-.31.14-.9.23-1.38,13.62,3.42,27.22,6.86,40.82,10.3.2-.56.4-1.11.61-1.67-2.43-1.15-4.76-2.75-7.32-3.36-6.77-1.63-13.6-3.06-20.48-4.14-4.52-.71-9.15-.7-13.74-1.01ZM267.37,146.9c-.5,9.26,2.33,18.73,6.45,23.08-2.02-7.22-4.14-14.84-6.45-23.08ZM290.18,180.35c.24.49.47.98.71,1.47,5.12-1.6,10.24-3.2,15.36-4.8-5.39,1.04-11.5-.29-16.07,3.33Z"/>
  <path class="cls-2" d="M260.69,370.71c.76-8.56,1.97-22.47,3.23-36.38.27-2.98.91-5.95.94-8.93.03-4.33,2.61-5.2,6.16-5.36,3.94-.19,4.86,2.44,5.03,5.43.48,8.64.74,17.3,1.1,25.95.08,1.94.22,3.88,1.43,5.82.27-8.5.51-17.01.82-25.51.1-2.82-.26-5.93.81-8.36.9-2.04,3.58-3.31,5.47-4.91,1.02,1.7,2.69,3.32,2.93,5.12.82,6.16,1.13,12.4,1.64,18.6.48,0,.96-.02,1.44-.03v-23.1c4.23-.93,5.42.98,5.96,3.72,1.32,6.68,2.63,13.37,4.02,20.46.25-3.01.46-5.67.68-8.24.58-.15,1.15-.32,1.17-.29,2.08,5.43,4.72,10.75,5.83,16.37.37,1.88-2.82,4.91-4.95,6.76-13.72,11.87-27.77,23.37-41.32,35.42-4.72,4.2-9.26,5.98-15.35,4.12-2.68-.82-5.63-1.52-8.35-1.25-13.81,1.37-25.77-17.55-20.64-29.6,5.26-12.35,9.79-25.01,14.64-37.53.49.09.97.17,1.46.26-.9,5.8-1.8,11.59-2.7,17.39.16.03.32.05.48.08,1.89-6.83,3.78-13.66,5.66-20.48.59.14,1.18.28,1.76.42-.32,3.69-.65,7.38-.97,11.07.24.06.49.12.73.19.75-2.59,1.56-5.17,2.23-7.78.79-3.05,1.98-5.37,6.39-3.6-.54,9.75-1.09,19.66-1.63,29.57.38.05.76.1,1.14.14,1-7.05,1.96-14.11,3.04-21.16.45-2.95.81-6.01,1.93-8.72.61-1.48,2.62-2.98,4.19-3.23.86-.14,2.81,2.18,3.08,3.61.58,3.06.49,6.28.5,9.43.04,13.3.02,26.6.02,34.55Z"/>
  <path class="cls-2" d="M210.83,226.84c-4.55-.89-6.15.73-6.83,3.48-.27,1.08-.14,2.37.15,3.47,4.89,18.25.64,35.73-4.76,52.98-5.26,16.79-11.18,33.38-17.23,51.28-9.74-8.17-18.54-15.56-28.11-23.59,10.38-5.73,8.93-15.69,10.79-24.69,1.87-9.03,4.73-18.04,8.52-26.45,4.45-9.87,7.99-19.34,6.81-30.62-1.23-11.81.88-23.59,4.66-34.93,3.17-9.51,9.52-15.77,19.24-18.64,3.66-1.08,5.86,0,6.75,3.58.64,2.57,1.46,5.22,1.4,7.82-.31,12.1-.9,24.2-1.39,36.3Z"/>
  <path class="cls-2" d="M327.84,174.87c.73-1.02,1.46-2.04,2.19-3.06,1.35,1.07,3.39,1.89,3.89,3.27.89,2.42,1.41,5.26,1.08,7.79-1.63,12.54-3.59,25.03-5.44,37.54-.17,1.12-.32,2.24-.1,3.44,6.4-11.19,6.34-23.99,9.73-36.25,2.57,13.71,5.12,27.42,7.74,41.12.78,4.09,1.94,8.11,2.57,12.21,1.76,11.37.86,21.79-9.33,29.68-4.26,3.3-7.49,7.94-11.99,11.44,2.76-4.29,5.52-8.57,7.74-12.03-6.4,4.71-13.43,9.89-20.46,15.07-.68-.46-1.35-.92-2.03-1.38.59-2.8,1.18-5.61,1.67-7.9-6.11,5.28-12.65,10.94-19.2,16.59-.29-.32-.58-.64-.87-.96,6.43-9.28,12.87-18.57,19.3-27.85-.5-.39-1-.77-1.5-1.16-6.45,7.33-12.9,14.66-19.36,21.98-.15-.12-.3-.24-.45-.37,4.27-6.84,8.53-13.68,12.8-20.52-7.61,7.94-12.11,18.66-22.81,23.76,12.52-24.55,29.13-46.88,38.63-72.96-6.19,11.18-11.99,22.6-18.67,33.48-8.53,13.89-17.74,27.37-26.77,40.96-.99,1.49-2.08,4.42-4.83,1.38-.37-.41-2.4.44-3.52.99-1.71.84-3.3,1.93-5.48,3.23,25.46-31.37,41.18-67.28,58.05-102.5,2.46-5.65,4.94-11.33,7.42-17Z"/>
  <path class="cls-2" d="M262.66,242.84c3.68,6.49,7.57,12.88,10.98,19.52,2.34,4.55,1.93,5.53-1.65,10.41-.92-1.88-1.73-3.52-2.87-5.84.27,4.38.5,8,.73,11.63-.32.16-.63.33-.95.49-3.01-4.58-6.03-9.17-9.04-13.75-.24.1-.48.2-.72.31,1.41,3.77,2.87,7.53,4.21,11.32,1.22,3.45,4.44,6.47,3.34,10.45-.61.38-1.22.76-1.82,1.15-3.28-3.82-6.57-7.64-9.85-11.47-.33.27-.66.53-1,.8,1.15,2.07,2.29,4.13,3.44,6.2-.26.43-.52.85-.78,1.28-3.55-1.93-7.11-3.86-11-5.97.85,1.29,1.59,2.41,2.33,3.52-.12.33-.24.66-.37.99-2.62-.98-5.23-1.96-8.95-3.36,1.81,3.83,3.41,7.22,4.99,10.57-10.36-3.86-17.28-11.85-23.02-21.19-.34.23-.67.47-1.01.7,3.09,5.88,6.18,11.76,9.07,17.25-8.21-3.32-12.6-10.33-12.63-19.49-.03-9.27.25-18.74,2.12-27.76,3.28-15.8.72-31.07-1.95-46.48.41,9.13,1.36,18.27,1.1,27.38-.33,11.45-1.52,22.88-2.57,34.3-1.41,15.35,1.05,29.26,13.84,39.62.17.13.09.57.24,1.8-2.11-1.7-3.84-2.85-5.27-4.28-9.63-9.7-13.67-21.19-12.23-34.98,1.4-13.37,1.85-26.84,2.68-40.28.56-9.11,1.79-18.27,1.33-27.34-.31-6.22-3-12.32-4.78-19.06,3.81-3.33,7.56-2.77,10.65,3.35,2.99,5.93,5.16,12.26,7.95,18.3,3.35,7.25,6.14,14.95,10.66,21.42,6.99,10.01,15.25,19.13,22.97,28.64,0,0-.17-.15-.17-.15ZM230.88,222.14c-4.91-16.46-9.83-32.92-14.74-49.38,3.19,16.99,5.49,34.25,14.74,49.38Z"/>
  <path class="cls-2" d="M331.02,289.8c.63-.19,1.64-.37,2.98-.08.19.02.54.04.95-.06,1.8-.43,2.06-2.41,3.01-2.49,1.2-.11,1.75,3.03,4.17,5.73,1.43,1.61,3.05,2.53,4.23,3.07-2.52-1.94-8.04-6.71-7.34-11.72.2-1.41,1.01-3.75,1.64-3.7.53.05.71,1.82.94,2.83.53,2.36,2.44,5.51,8.69,8.75-1.54-1.22-2.75-2.35-3.62-3.23-2.75-2.75-3.43-4.22-3.74-4.99-.18-.46-.37-1.03-.53-1.77-.71-3.21,1.07-6.74,2.21-6.71.94.02.99,2.42,3.23,5.5,1.25,1.72,2.61,2.87,3.56,3.56,6.21-7.93,10.37-14.92,13.49-19.45,7.27-10.56,14.54-21.12,21.74-31.73,2.37-3.5,5.56-5.01,9.72-4.96,3.5.04,7.06.19,10.47-.41,3.26-.57,6.37-2.04,9.54-3.12.77-.26,1.52-.66,2.31-.82,6.17-1.28,12.34-2.51,19.05-3.87.38,2.17.74,4.18,1.25,7.06-4.96.64-9.63,1.42-14.34,1.81-9.96.82-19.95,1.3-29.89,2.28-1.68.17-4.11,1.79-4.64,3.29-4.61,13.05-14.32,22.54-22.37,33.23-4.76,6.32-8.76,13.22-13.08,19.81,10.97,4.13,20.42,4.47,24.44,2.48.8-.39,2.97-1.66,5.26-3.33,2.32-1.68,3.49-2.55,4.04-3.7,1.11-2.33.4-4.94-.25-7.35-.5-1.84-.75-1.75-1.46-3.88-.48-1.45-2.41-7.29-.75-8.45,1.06-.74,3.23.67,3.85,1.07,3.42,2.22,6.04,6.11,8.56,15.3.61,2.21,4.22,15.72,6.47,21.95.32.9,1.07,2.81,2.86,3.78,1.15.62,2.54.71,4.3.42,1.97-.33,3.94-.72,5.93-.9,6.79-.61,11.65,1.45,13.34,5.55,2.34,5.67.14,13.04-4.83,17.14-6.91,5.68-14.54,3.2-21.84,1.72-7.25-1.47-14.4-3.67-21.4-6.09-4.99-1.72-9.68-4.32-14.48-6.57-6.14-2.88-12.22-5.89-18.43-8.61-.83-.36-2.25.62-3.4.97,0,.52-.02,1.03-.03,1.55,5.26,1.45,10.53,2.91,15.79,4.36-.1.37-.2.74-.3,1.11-5.77-1.35-11.53-2.7-17.57-4.12-.33.95-.73,2.1-1.39,3.98-2.7-6.55-5.12-12.42-7.53-18.28-.47.06-.94.12-1.41.17l-1.67,4.25s.14-.12.14-.12c-5.3,6.75-10.54,13.55-15.94,20.22-2.39,2.95-5.09,5.64-7.65,8.45-.52-.44-1.04-.88-1.56-1.32,8.21-11.36,16.43-22.71,24.64-34.07-.43-.32-.86-.63-1.3-.95-3.05,3.22-6.11,6.44-9.16,9.65l.1.1c1.28-2.08,2.55-4.16,3.83-6.24.3-4,2.33-7.2,5.17-8.06ZM355.78,306.91c-3.56-3.26-7.33-6.73-11.11-10.2,2.71,4.83,5.21,9.89,11.11,10.2Z"/>
  <path class="cls-2" d="M331.73,65.33c-11.87,1.01-14.43,7.72-9.38,25.82.14-1.87.5-3.75.38-5.6-.37-5.6-.44-5.59,4.93-7.39,2.11,9.15,1.15,11.83-9.77,28.39-.12-.7-.37-.95-.57-1.05-.68-.32-1.6.64-2.88.35-.12-.03-.24-.06-.27-.07-.77-.23-.97-.56-1.53-.68-.2-.04-.34-.04-.61-.03-1.19.05-2.18.47-2.26.51,0,0-2.14.99-5.57,2.2-1.17.41-2.14.72-2.79.91.58.24,1.19.47,1.83.67,4.87,1.51,9.42.86,12.58,0-1.38,4.64-1.89,8.92-3.92,12.27-1.38,2.27-4.79,4.36-7.48,4.61-11.44,1.06-19.98-5.18-27.62-12.65-5.28-5.16-8.6-11.44-7.9-19.51-1.17.36-3.11.76-5.32.28-5.47-1.19-7.93-6.75-8.75-8.62-1.81-4.1-2.4-9.48-.94-10.13,1.14-.51,3.34,1.97,5.83,4.77,2.78,3.12,3.47,4.88,6.3,7.36,1.37,1.2,2.61,2.02,3.41,2.51-.29-1.85-.52-5.02.65-8.63,1.53-4.74,4.49-7.22,7.83-10.01,1.22-1.02,2.48-1.9,4.06-1.86,1.4.03,2.47.68,3.39,1.47,2.26,1.92,4.74,3.6,7.16,5.32,3.46,2.46,5.42,3.93,7.8,3.65,2.75-.33,4.61-2.78,5.46-4.12.72-.21,1.46-.49,2.21-.86,4.78-2.39,6.82-7.13,7.57-9.26-3.58-4.6-9.61-4.47-14.85-4.47-5.51,0-11.01,1.85-17.26,2.1,6.34-4.47,12.54-9.16,19.08-13.33,5.93-3.78,13.18-5.78,15.88-12.7,3.22,4.1,6.43,8.23,9.69,12.31,3.61,4.53,5.38,9.45,3.63,15.49ZM322.11,97.08c-5.19.29-9.03.51-12.88.73l-.43,1.24c2.74,1.42,5.42,3.68,8.26,3.9,1.43.11,3.13-3.51,5.05-5.87Z"/>
  <path class="cls-2" d="M351.49,352c-1.73,6.31-3.46,12.62-5.19,18.93.21.09.42.18.63.27l7.05-13.94c.31.08.63.16.94.24-.58,2.03-1,4.12-1.76,6.08-15.37,39.78-41.54,70.25-79.21,90.33-21.86,11.65-41.43,26.58-61.48,40.84-4.18,2.97-8.19,6.25-11.84,9.84-1.52,1.49-1.88,4.15-3.32,7.6-1.55.31-2.96-1.56-3.53-4.39-.19-.93-.1-2.08.29-2.94,3.77-8.34,6.62-17.33,11.74-24.76,5.63-8.15,14.94-12.48,24.01-16.48,11.42-5.03,22.85-10.03,34.13-15.36,15.59-7.36,28.49-18.16,39.75-31.2,16.06-18.6,29.29-39.16,42.52-59.74,1.24-1.93,2.49-3.86,3.74-5.78.51.16,1.02.32,1.53.47ZM211.78,486.21c.3.37.61.73.91,1.1,6.27-4.03,12.54-8.07,18.81-12.1-.21-.32-.41-.64-.62-.96-6.37,3.99-12.73,7.98-19.1,11.96Z"/>
  <path class="cls-2" d="M232.14,823.63c2.25-2.85,3.44-4.85,5.08-6.36,16.13-14.78,26.07-33.5,34.23-53.37,12.73-30.98,19.87-63.49,26.37-96.17,7.73-38.82,10.9-78.1,12.35-117.6,1.2-32.44,3.12-64.86,4.89-97.28.19-3.52.19-7.53,4.46-11.01.35,3.31.76,5.53.79,7.76.71,46,.38,92-5.52,137.69-5.56,43.08-10.03,86.38-20.89,128.61-7.34,28.53-17.92,55.75-33.47,80.93-6.79,10.98-15.07,20.26-28.31,26.81Z"/>
  <path class="cls-2" d="M340.9,347.88c-.76,2.13-1.58,5.08-2.84,7.84-13.61,29.88-33.19,55.16-60.47,73.5-19.86,13.35-40.96,24.83-61.43,37.28-6.89,4.19-13.54,8.77-20.5,13.3-2.7-3.24-2.86-7.03.27-10.37,3.73-3.98,7.55-8.07,12-11.14,9.99-6.89,20.39-13.2,30.64-19.72,31.12-19.83,58.68-43.6,82.07-72.29,5.77-7.07,13.61-12.44,20.27-18.4Z"/>
  <path class="cls-2" d="M412.35,464.67c4.59-34.43,9.04-67.86,13.64-102.39.68,27.63,1.33,54.05,1.99,80.47.67.03,1.33.05,2,.08.16-2.12.53-4.25.46-6.37-1.02-29.76,2.02-59.19,5.9-88.65,1.28-9.71.34-19.97-1.23-29.72-2.23-13.85-8.12-17.5-22.01-15.96-.97.11-1.93.26-3.09.41,4.41-6.26,9.38-10.38,17.62-8.49,8.75,2.01,14.2,7.22,16.23,15.73,3.4,14.28,3.97,28.84.82,43.14-6.13,27.88-8.13,56.04-6.76,84.45.35,7.31-2.45,11.98-8.31,15.66-5.6,3.52-10.98,7.38-17.26,11.64Z"/>
  <path class="cls-2" d="M397.59,596.02c4.61-7.04,9.11-13.9,13.62-20.77.61.13,1.21.25,1.82.38,1.38,13,2.77,26.01,4.32,40.58-7.37-5.77-14.17-10.27-19.83-15.91-2.58-2.56-4.16-7.41-4.07-11.17,1.55-61.93,3.41-123.86,5.3-185.78.32-10.63,1.13-21.25,2.7-32.01.46,3.23,1.09,6.45,1.35,9.69,3.58,44.75,2.54,89.52.94,134.31-.54,15.14-.77,30.3-.74,45.45.02,8.15-.77,15.84-5.22,22.98-2.27,3.63-3.96,7.85-.18,12.23Z"/>
  <path class="cls-2" d="M247.71,924.27c-.7-.09-.95,1.33-2.48,2.52-.29.23-1.85,1.39-4.02,1.28-1.76-.08-3.01-.96-3.52-1.38-.27.11-2.05.79-3.86-.17-1.32-.69-1.88-1.84-2.04-2.22-.37.21-2.63,1.46-5.23.57-1.57-.54-2.49-1.59-2.87-2.08-.79-.08-3.6-.44-5.28-2.69-1.59-2.15-1.21-4.74-.88-6.83.7-4.34,2.92-7.31,3.43-8.22,5.3-9.56,10.44-19.23,16.27-28.47,4.5-7.13,13.91-8.25,20.4-2.87,1.45,1.2,2.21,3.59,2.67,5.58,1.46,6.24,2.91,12.5,3.83,18.84.61,4.19.36,8.52.36,12.79,0,2.64.2,5.4-.49,7.87-.52,1.83-1.27,4.7-3.85,6.91-.59.5-2.09,1.76-4.4,2.22-.28.05-4.86.91-6.73-1.48-.79-1.01-.71-2.09-1.31-2.17Z"/>
  <path class="cls-2" d="M160.16,382.94c1.26,15.06,2.73,30.11,3.72,45.19,2.43,36.89,4.64,73.8,6.94,110.69.05.83-.04,1.72.21,2.48,4.51,13.8-1.25,24.02-12.21,32.88-1.42-63.81-4.36-127.49,1.34-191.24Z"/>
  <path class="cls-2" d="M199.04,455.32c.93-1.71,1.86-3.42,2.79-5.13-.29-.31-.57-.63-.86-.94-3.17,2.42-6.35,4.85-9.47,7.23-2.5-4.14-1.56-8.51,2.79-11.4,3.45-2.3,6.93-4.54,10.03-6.57-5.45-5.61-13.2-8.68-14.65-17.44-1.05-6.31.96-11.34,6.66-16.73-.43,3.26-.58,5.22-.96,7.14-1.45,7.16.55,9.87,7.89,10.55,11.12,1.03,23.5-1.59,33.56-8-2.89.46-5.84.7-8.66,1.43-14.13,3.69-22.75.04-29.88-12.79-3.48-6.26-1.82-13.07,3.9-16.1.07,12.01.07,12.09,12.25,12.61,9.48.4,18.98.43,28.45.9,3.23.16,6.42,1.17,9.63,1.79.53.77,1.06,1.53,1.58,2.3-17.87,17.44-35.74,34.89-53.61,52.33-.49-.39-.97-.78-1.46-1.17Z"/>
  <path class="cls-2" d="M216.08,446.73c3.45-9.56,99.83-98.83,112.28-103.68-4.83,9.92-7.49,20.06-15.13,27.25-12.7,11.96-25.28,24.17-38.97,34.93-17.78,13.97-36.6,26.62-54.98,39.82-.88.63-1.93,1.03-3.2,1.69Z"/>
  <path class="cls-2" d="M327.84,174.87c-2.48,5.67-4.96,11.35-7.42,17-9.73,17.92-19.5,35.85-29.22,53.8-3.21,5.92-6.32,11.9-9.94,18.74-5.32-6.5-9.98-12.28-14.75-17.98-1.12-1.34-2.56-2.4-3.86-3.59,0,0,.17.15.17.15-.88-1.53-1.52-3.25-2.65-4.54-14.42-16.35-24.07-35.42-31.85-55.57-1.1-2.85-2.38-5.62-2.64-8.86,3.14,5.43,6.14,10.94,9.45,16.26,3.16,5.08,6.7,9.92,9.93,14.96,2.84,4.43,6.94,6.83,12.02,6.98,11.13.32,22.27.28,33.4.38,2.25.02,4.51,0,7.28,0-5.45,3.8-31.92,3.99-46.68.8,10.54,13.37,21.26,26.98,32.35,41.04.73-3.15,1.41-6.04,2.09-8.94l-.1.09c1.6-3.55,3.19-7.1,4.79-10.65h-.04c7.24-14.17,14.5-28.34,21.7-42.53,4.64-9.13,9.18-18.31,13.91-27.75,3.98,3.53,3.44,6.81,2.05,10.21Z"/>
  <path class="cls-2" d="M169.86,856.04c-.47,7.71,8.36,12.1,22.96,12.11-1.47.87-2.86,2.28-4.43,2.53-7.7,1.21-14.1-2.2-19.55-6.98-1.56-1.37-1.93-5.27-1.33-7.63.83-3.29,2.75-6.45,4.77-9.26,16.26-22.68,24.54-48.27,27.3-75.72,2.7-26.83,4.83-53.72,7.3-81.59.5,2.79,1.24,4.8,1.15,6.78-1.06,24.62-1.83,49.27-3.53,73.85-1.4,20.24-3.82,40.41-6.02,60.59-.7,6.41-11.29,16.36-18.64,16.84-4.71.31-6.08,2.99-8.36,6.85,4.27,3.03,8.39,5.96,12.23,8.68-6.18.78-9.37-.78-13.86-7.05Z"/>
  <path class="cls-2" d="M301.26,596.96c0-10.64.18-21.28-.03-31.91-.64-31.29-1.4-62.59-2.19-93.88-.17-6.68,1.04-12.86,5.35-18.15.68-.83,1.63-1.43,2.52-2.18,4.37,8.05.91,129.11-3.98,146.17-.56-.02-1.11-.03-1.67-.05Z"/>
  <path class="cls-2" d="M226.9,862.02c1.7-.91,3.32-2.07,5.13-2.7,5.6-1.94,11.25-5.15,16.92-5.25,28.8-.52,49.45-14.62,65.36-37.33,1.78-2.54,3.54-5.1,6.11-8.79,0,2.45.22,3.54-.03,4.5-5.07,19.18-15.05,34.09-34.38,41.85-12.98,5.21-25.78,9.47-40.11,8.6-9.51-.58-17.86,5.64-20.71,13.48-3.47-2.06-4.18-5.69-1.76-9.4,1.15-1.76,2.43-3.43,3.64-5.15,0,0-.17.17-.17.17Z"/>
  <path class="cls-2" d="M306.44,906.7c-2.43,1.19-4.33,1.28-5.83.87-2.15-.59-3.26-2.17-4.33-1.66-.93.45-.45,1.84-1.75,3.45-.87,1.09-1.97,1.55-2.67,1.84-.43.18-3.02,1.21-5.7.2-1.88-.71-3.09-2.01-3.8-3.29-2.6-4.64-5.27-9.27-7.48-14.1-4.07-8.92,1.15-17.6,10.83-18.33.95-.07,2.13.02,2.86.53,8.83,6.16,17.72,12.26,26.32,18.72.68.51,2.39,2.04,2.83,4.38.09.46.27,1.49-.14,2.58-1.01,2.73-4.69,3.25-4.89,3.28-.46.41-1.43,1.16-2.88,1.53-1.52.39-2.79.16-3.39,0Z"/>
  <path class="cls-2" d="M351.03,193.17c-1.44-8.46-2.88-16.92-4.47-26.27,1.97,1.49,4.82,2.6,5.8,4.61,2.35,4.86,4.94,10.03,5.45,15.28,1.56,15.85,2.18,31.8,2.95,44.1,1.68-15.8.92-35.11-3.5-54.22,7.21-.91,11.53,2.71,11.65,9.97.33,19.29-2.98,38.03-8.87,57.15-1.21-3.7-2.19-6.73-3.18-9.76,0,0,.13.14.13.14l-6.07-41.24s.1.24.1.24Z"/>
  <path class="cls-2" d="M138.93,503.18c.66-2.99,1.75-5.96,1.92-8.98,1.24-22.78,2.28-45.58,3.44-68.37.14-2.74.64-5.47.97-8.2.43.02.87.03,1.3.05,1.17,38.42,2.35,76.84,3.52,115.39-4.22-3.64-7.88-7.61-8.51-13.79-.55-5.43-1.66-10.81-2.52-16.21l-.13.12Z"/>
  <path class="cls-2" d="M356.87,234.04c.46,10.89,2.32,21.81-.06,32.65-.6.23-1.2.47-1.8.7-.83-1.63-2.41-3.26-2.39-4.88.29-25.21-5.26-49.62-10.42-74.03-1.66-7.83-5.38-15.22-8.06-22.53,8.09.2,11.35,3.01,13.91,13.18,1.17,4.64,2,9.36,2.99,14.05,0,0-.1-.24-.1-.24,2.02,13.75,4.05,27.49,6.07,41.24,0,0-.13-.14-.13-.14Z"/>
  <path class="cls-2" d="M321.92,304c-2.26,3.6-4.52,7.2-6.15,9.81-31.5,2.05-62.21,1.65-91.65,12.73-1.72-5.15,1.02-7.39,4.77-8.36,10.29-2.67,20.55-5.88,31.04-7.28,13.63-1.83,27.46-2.37,41.23-2.93,4.71-.19,9.49,1.2,14.68,1.93,1.72-1.62,3.95-3.71,6.18-5.8,0,0-.1-.1-.1-.1Z"/>
  <path class="cls-2" d="M130.75,452.1c-.58-14.37-1.16-28.74-1.79-44.46,6.57,16.57,4.47,55.55-3.93,67.11,0-6.7-.49-12.12.11-17.41,1.06-9.26-2.51-16.49-9-22.43-4.04-3.71-6.47-7.64-6.36-13.34.23-11.3,0-22.62.08-33.93.01-1.56.72-3.11,1.76-4.57.49,7.01.91,14.03,1.5,21.03.2,2.36.83,4.71,4.54,2.99,2.52,15.25,3.27,31.23,13.09,45.01Z"/>
  <path class="cls-2" d="M408.19,519.05c1.13-14.62,2.25-29.25,3.41-44.25,9.24,1.95,14.35,8.03,19.77,13.56.57.58.45,2.34.04,3.3-1.1,2.57-2.11,5.36-3.89,7.43-5.83,6.8-12,13.33-18.03,19.96-.43,0-.87,0-1.3,0Z"/>
  <path class="cls-2" d="M181.85,347.01c-14.73-12.29-28.37-23.67-41.98-35.08-.06-.05.26-.55.81-1.68,16.97,8.61,28.39,23.53,43.1,36.49-18.39,7.3-35.45,15.37-54.26,17.09-.7-1.42-1-1.72-.97-1.99,1.1-9.4,1.08-9.58,10.43-10.63,11.89-1.33,23.81-2.32,35.72-3.46,1.9-.18,3.8-.39,7.15-.74Z"/>
  <path class="cls-2" d="M364.96,254.18c10-18.28,10.3-38.24,11.04-58.12.45-.17.89-.35,1.34-.52,5.23,10.15,10.46,20.29,15.14,29.37-3.59,3.21-7.08,5.63-9.68,8.79-4.65,5.65-8.75,11.75-13.11,17.64-.92,1.25-2,2.38-3,3.57-.58-.24-1.15-.48-1.73-.71Z"/>
  <path class="cls-2" d="M319.6,302.06c-1.69,4.54-5.12,5.24-8.99,4.82-22.3-2.41-44.16.7-65.88,5.28-6.81,1.44-13.5,3.46-20.33,5.24-1.65-3.31.09-4.95,3.1-5.63,13.77-3.13,27.49-6.62,41.38-9.11,15.44-2.77,31.09-3.36,46.73-1.22,1.29.18,2.57.41,3.98.63Z"/>
  <path class="cls-2" d="M325.69,298.04s.16-.18.16-.18c-3.67,2.36-7.56.74-11.32.48-23.79-1.63-47.13,1.66-70.36,6.29-6.51,1.3-12.99,2.77-19.46,4.16-1.69-5.98-1.51-6.12,4.3-6.97,16.11-2.35,32.17-5.08,48.32-7.12,14.69-1.86,29.48-2.43,44.16.42,1.54.3,2.81,1.92,4.21,2.92Z"/>
  <path class="cls-2" d="M284.98,470.02c.57,1.76,1.14,3.53,2.01,6.24.95-5.7-1.26-11.52,5.04-15.59,3.77,25.06,5.62,49.29,4.7,73.74-5.82-21.07-11.98-42.05-11.75-64.38Z"/>
  <path class="cls-2" d="M407.75,524.43c14,9.48,14.62,41.47-4.66,49.91,1.58-16.89,3.08-33.04,4.66-49.91Z"/>
  <path class="cls-2" d="M223.13,395.56c-9.2,2.1-10.24,1.41-13.12-7.82.31,2.54.63,5.09.94,7.63-4.1-4.47-4.5-9.99-3.46-15.14,3.3-16.43,9.98-31.69,17.51-46.58.62-1.22,1.82-2.14,2.75-3.2.43.18.86.37,1.3.55-.73,2.9-1.2,5.91-2.24,8.7-2.78,7.48-5.42,15.06-8.83,22.26-4.87,10.28-3.28,19.67,2.45,28.89.87,1.39,1.63,2.85,2.7,4.72Z"/>
  <path class="cls-2" d="M205.37,542.07c6.15,36.68,9.8,73.87,22.28,109.26-17.38-34.35-22.94-71.16-22.28-109.26Z"/>
  <path class="cls-2" d="M86.82,313.91c6.53-2.65,12.86-6.21,19.64-7.68,6.71-1.46,13.89-1.17,20.85-.99,8.67.22,8.67.5,9.79,9.23-15.8.5-31.9-1.92-47.33,4.38,3.55-1.81,7.1-3.62,10.65-5.43-.09-.24-.18-.49-.27-.73-4.8,2.01-9.6,4.03-14.41,6.04-.17-.36-.34-.72-.51-1.09,5.91-2.79,11.83-5.58,17.74-8.37-.03-.18-.07-.37-.1-.55-3.89,1.18-7.78,2.35-11.66,3.55-1.51.47-2.99,1.03-4.5,1.54,0,0,.1.11.1.11Z"/>
  <path class="cls-2" d="M254.66,39.29c.74-2.62,2.17-4.38,3.02-5.28,1,.61,3.46,1.9,6.27,1.3.73-.16,2.5-.53,2.98-1.76.29-.74-.05-1.24-.05-2.5,0-1.23.49-2.16.79-2.63.43.6,1.19,1.5,2.4,2.24.58.35,2.28,1.38,3.02.8.47-.36.22-1.08.32-2.42,0,0,.12-1.69,1.03-3.64,1.18-2.53,4.07-3.7,5.43-4.15.42,2.08.77,3.76,1.12,5.45.51-1.72,1.39-3.99,2.95-6.38,1.09-1.68,2.25-3,3.26-4.01.08.21,2.13,5.22,5.81,5.7.87.11,2.19.02,3.45-.31,1.14-.3,2.03-.75,2.63-1.1-.79,2.05-2.19,4.92-4.77,7.54-4.72,4.8-7.97,3.3-16.36,7.78-7.39,3.95-8.4,7.01-16.69,10.23-2.43.95-4.51,1.53-5.94,1.88-.47-1.08-1.84-4.58-.66-8.76Z"/>
  <path class="cls-2" d="M304.52,10.71c-10.34-.11-19.07-5.23-28.16-1.08-4.42,2.02-8.78,4.2-12.7,7.13,5.12-.48,10.24-.96,15.9-1.49-9.97,5.98-19.21,11.52-27.96,16.77-.57-5.13,7.13-16.85,15.69-22.24,12.05-7.59,23.96-5.63,37.23.91Z"/>
  <path class="cls-2" d="M369.96,182.56c8.7,11.49,3.01,53.21-8.62,67.93,5.09-22.5,10.76-44.07,8.62-67.93Z"/>
  <path class="cls-2" d="M247.77,77.63c-1.71,1.33-3.06,1.94-3.54,2.14-2.05.87-3.9,1.11-5.1,1.17.46,1.99.92,3.98,1.38,5.96-6.14-1.01-9.99-11.33-6.73-17.58.31.06,1.05.26,1.69.92.93.97.91,2.19.9,2.43,2.68-2.6,4.02-5.06,4.74-6.82,1.41-3.41,1.26-6,3.46-7.78,1.4-1.13,3.06-1.38,4.19-1.43-1.56,2.95-3.13,5.91-4.69,8.86,6.63-4.8,9.94-12.9,18.82-15.11-1.91,4.71-3.45,8.52-5.5,13.58-.54-.09-1.24-.3-1.74-.86-.81-.91-.42-1.94-.85-2.18-.95-.53-4.26,3.79-7.16,7.05-2.57,2.9-4.91,5.07-6.52,6.49,2.21.61,3.71.32,4.62-.01,2.42-.87,2.99-2.8,5.86-4.57,1.6-.99,3.11-1.43,4.03-1.64-1.1,1.85-3.96,6.35-7.85,9.37Z"/>
  <path class="cls-2" d="M226.82,51.09c-1.67,1.07-2.35,2.43-1.99,3.1.27.49,1.08.57,1.51.58-2.56,9.21-5.12,18.42-7.68,27.62-.54-.64-1.32-1.66-2.01-3.04-1.22-2.43-1.27-4.17-2.22-8.36-.41-1.81-.33-1.16-1.16-4.5-1.57-6.35-2.35-9.56-1.87-11.15,1.08-3.55,4.44-5.48,5.73-6.21,1.29-.74,2.68-1.53,4.53-1.37,3.01.26,4.82,2.81,5.17,3.33Z"/>
  <path class="cls-2" d="M139.06,503.06c-1.75-1.49-3.51-2.98-5.26-4.48-10.33-8.85-10.63-17.93.28-28.99,1.71,11.85,3.28,22.72,4.86,33.59,0,0,.13-.12.13-.12Z"/>
  <path class="cls-2" d="M156.78,331.73c-1.35-.91-2.88-1.64-4.02-2.77-8.26-8.14-18.32-10.3-29.42-8.96-10.56,1.27-21.11,2.61-31.66,3.97-2.28.29-4.53.83-6.79,1.25-.16-.42-.32-.84-.49-1.26,4.1-1.59,8.1-4.09,12.33-4.61,12.69-1.55,25.47-2.43,38.23-3.29,1.96-.13,4.33.82,5.97,2.03,5.61,4.13,10.98,8.59,16.44,12.92-.2.24-.39.48-.59.71Z"/>
  <path class="cls-2" d="M386.41,664.91c1.13-12.66,2.23-24.92,3.33-37.18.83-.03,1.66-.05,2.49-.08,1.47,8.92,3.15,17.82,4.22,26.79.19,1.56-2.02,3.62-3.47,5.11-1.7,1.74-3.78,3.12-6.57,5.36Z"/>
  <path class="cls-2" d="M385.34,680.31c4.87,2.66,6.5-.23,7.83-3.88,1.19-3.26,2.58-6.44,4.95-9.64v27.23c-8.24-1.56-12.96-6.12-12.79-13.72Z"/>
  <path class="cls-2" d="M418.51,291.64c2.49-4.47,5.35-9.6,8.96-16.09,4.43,7.58,8.23,14.07,11.98,20.48-7.51-1.57-14.12-2.96-20.94-4.38Z"/>
  <path class="cls-2" d="M415.64,627.74c-5.36,4.45-10.24,8.49-14.65,12.15v-20.12c4.8,2.61,9.23,5.02,14.65,7.97Z"/>
  <path class="cls-2" d="M271.85,218.76c1.86,2,3.54,2.99,3.91,4.34,2.48,9.05,4.67,18.18,7.24,28.38-10.91-10.91-13.63-18.67-11.15-32.71Z"/>
  <path class="cls-2" d="M97.29,337.66c.93-.56,2.24-.19,2.45-.13,1.39.39,2.31,1.59,3.2,3.34,1.14,2.24,1.55,4.18,2.34,7.98.95,4.59,1.42,6.93,1.09,9.28-.33,2.43-1,3.28-1.22,3.54-1.91,2.29-6.07,2.76-7.64,1.17-1.21-1.22-.4-3.16.04-6.56,1.32-10.22-2.93-17.04-.26-18.63Z"/>
  <path class="cls-2" d="M79.84,330.56c.37-.07.89.81,1.06,1.2,4.02,9.48,8.17,18.93,11.84,28.53.56,1.46-1.09,3.61-1.72,5.44-.92-.94-2.24-2.38-3.63-4.28-5.83-7.96-6.92-15.87-7.63-21.49-.43-3.45-.85-9.24.07-9.4Z"/>
  <path class="cls-2" d="M177.75,571.73c1.21,12.71,2.42,25.52,3.69,38.93-6.8-6.03-8.62-29.41-3.69-38.93Z"/>
  <path class="cls-2" d="M239.7,35.3c-2.13,2.09-4.25,4.17-6.38,6.26-.05-2.02-.02-9.54,5.5-16.36,6.3-7.78,15.07-8.9,16.79-9.08-7.94,13.34-11.39,18.61-12.73,20.19-.2.23-1.05,1.21-1.89,2.71-.82,1.45-1.29,2.78-1.58,3.74.44-1.95.67-4.2.39-6.65-.03-.27-.07-.54-.11-.81Z"/>
  <path class="cls-2" d="M285.53,245.5c-1.99-6.51-4.08-12.99-5.89-19.55-.41-1.47-.28-3.45.43-4.76.56-1.04,2.36-1.86,3.63-1.89.77-.02,2.25,1.66,2.25,2.57,0,7.9-.28,15.79-.5,23.71-.02.02.08-.08.08-.08Z"/>
  <path class="cls-2" d="M251.7,107.25c.71,5.54-1.04,9.96-5.61,12.9-4.15,2.67-8.43,5.14-12.57,7.84-2.49,1.62-4.82,3.5-7.05,5.14-1.1-5.36,1.04-9.67,6.3-11.63,1.54-.57,3.19-1.07,4.81-1.15,7.48-.34,12.09-3.9,13.4-11.43.1-.58.47-1.11.71-1.67Z"/>
  <path class="cls-2" d="M176.59,608.54c9.89,14.79,7.88,15.72,0,24.28v-24.28Z"/>
  <path class="cls-2" d="M81.58,363.85c-.44.85-.96,1.48-1.34,1.89-3.46-5.95-5.39-11.19-6.51-14.9-1.63-5.42-1.66-8.04-1.34-10.22.69-4.64,3.25-8.97,4.26-8.7.78.21.08,3.05.3,7.36.65,12.23,7.89,18.28,4.62,24.57Z"/>
  <path class="cls-2" d="M374.78,344.64c.93,1.22,2.55,2.38,2.67,3.67,1.11,12.09,1.97,24.19,2.4,36.31-2.14-12.89-4.28-25.77-6.41-38.66.45-.44.89-.89,1.34-1.33Z"/>
  <path class="cls-2" d="M453.78,229.01c-20.4,1.76-40.81,3.52-61.21,5.28l-.13-1.23c20.39-1.91,40.78-3.82,61.17-5.73.06.56.12,1.12.17,1.68Z"/>
  <path class="cls-2" d="M73.65,360.17c-.91.59-3.1-1.37-3.39-1.62-.9-.8-2.98-2.95-3.77-7.66-.93-5.56.42-11.78,1.73-11.81.88-.02.91,2.72,4.04,13.27,1.33,4.46,2.29,7.23,1.38,7.82Z"/>
  <path class="cls-2" d="M300.78,21c4.55-2.31,9.21-4.23,14.46-2.92,1.55.39,3,1.19,4.77,1.92,0,.01,0,.02,0,.03-.08.04-.82-1.32-1.36-2.26-.44-.77-1.08-1.82-1.92-3.06,4,2.04,8.64,4.88,13.34,8.85,2.17,1.83,4.08,3.68,5.75,5.45-7.04-3.65-13.05-5.63-17.22-6.74-5.55-1.48-9.02-1.73-11.57-1.74-2.56,0-4.7.24-6.24.48Z"/>
  <path class="cls-2" d="M255.39,43.9c.16,1.24.32,2.48.48,3.71-3.6,6.47-7.77,9.42-12.31,7.67,2.88-4.19,5.56-8.26,8.5-12.13.29-.38,2.18.47,3.33.74Z"/>
  <path class="cls-2" d="M300.97,328.38c.54-3.41.12-7.56,1.98-9.95,1.15-1.48,5.75-.27,8.8-.27.18.43.36.86.53,1.29l-8.69,10.14c-.87-.4-1.75-.8-2.62-1.2Z"/>
  <path class="cls-2" d="M242.77,114.47c.44-.83.89-1.66,1.66-3.11-1.99.97-3.38,2.12-4.84,2.23-1.59.12-3.26-.74-4.89-1.17,1.03-1.62,1.84-4.38,3.15-4.65,3.27-.68,6.77-.22,11.42-.22-2.15,3.03-3.77,5.29-5.39,7.56-.37-.21-.74-.42-1.11-.64Z"/>
  <path class="cls-2" d="M432.17,484.27c-6.84-7.37-7.45-14.66-1.63-20.95.56,7.18,1.06,13.67,1.63,20.95Z"/>
  <path class="cls-2" d="M397.12,704.22c-5.25,5.09-10.49,10.17-15.74,15.26l-1.5-1.49c3.83-6.44,10.35-10.28,15.51-15.43.57.55,1.15,1.11,1.72,1.66Z"/>
  <path class="cls-2" d="M170.71,591.65c-2.28-2.96-4.79-5.79-6.69-8.98-.56-.94.6-2.91.97-4.41,1.42.63,3.69.91,4.09,1.94,1.37,3.47,2.08,7.2,3.04,10.83-.47.21-.94.41-1.42.62Z"/>
  <path class="cls-2" d="M188.7,656.39c-4.74-4.73-10.15-7.96-11.93-14.65,4.94.06,10.45,6.89,11.93,14.65Z"/>
  <path class="cls-2" d="M298.8,30.61c5.38-2.81,10.76.03,11.22.28-5.57,2.03-11.14,4.05-16.71,6.08.34-.92,1.74-4.4,5.49-6.36Z"/>
  <path class="cls-2" d="M300.64,20.92c2.25.07,4.14.16,5.55.23,5.68.29,7.53.54,9.35.94,1.43.32,2.57.66,3.3.9-1.86,1.28-7.92,5.1-15.32,3.73-1.92-.35-3.56-.99-4.89-1.67.06-.51.2-1.21.54-1.98.45-1.03,1.05-1.73,1.48-2.15Z"/>
  <path class="cls-2" d="M371.58,270.93c3.03,4.98,5.91,9.73,8.56,14.08-6.13-1.11-9.47-6.07-8.56-14.08Z"/>
  <path class="cls-2" d="M336.86,34.57c-5.56-1.79-10.55-3.4-15.53-5.01,10.37-1.57,13.36-.55,15.53,5.01Z"/>
  <path class="cls-2" d="M325.97,37.07c-1.62-1.32-3.24-2.64-4.88-3.97,9.56,1.49,16.65,6.57,17.32,11.6-3.89-2.41-8.26-5.1-12.62-7.8,0,0,.18.17.18.17Z"/>
  <path class="cls-2" d="M241.97,33.29c-.23.7-.46,1.4-.69,2.09-2.11,8.35-4.22,16.7-6.19,24.52-1.03-8.92,1.18-17.89,5.51-26.45.11-.23.9-.11,1.37-.16Z"/>
  <path class="cls-2" d="M255.96,68.13c.6-.71,1.17-2,1.79-2.03,4.12-.18,8.25-.09,11.7-.09-.55.95-1.41,2.06-2.74,2.88-2.99,1.85-7.14,1.48-10.75-.76Z"/>
  <path class="cls-2" d="M344.67,270.11c1.05-.88,2.21-1.19,4.01-1.14,2.27.06,4.55-.34,7.06-.56-3.16,4.98-7.82,5.22-12.73,4.78.16-.82.55-2.14,1.67-3.08Z"/>
  <path class="cls-2" d="M290.23,234.95v-14.53c1.41-.16,2.84-.32,4.7-.52-1.66,5.28-3.19,10.16-4.73,15.05-.01,0,.03,0,.03,0Z"/>
  <path class="cls-2" d="M325.79,36.91c3.02,2.85,6.05,5.7,9.07,8.55-.58.61-1.16,1.22-1.74,1.83-3.51-3.33-7.03-6.67-11.56-10.97,2.43.41,3.42.58,4.42.75,0,0-.18-.17-.18-.17Z"/>
  <path class="cls-2" d="M434.83,217.05c-5.49,2.81-11.09,5.66-17.64,3.47,5.88-1.16,11.76-2.32,17.64-3.47Z"/>
  <path class="cls-2" d="M268.11,231.05c-2.67-3.74-5.34-7.49-8.16-11.45,4.65-.42,5.32.51,8.16,11.45Z"/>
  <path class="cls-2" d="M332.74,302.14c3.13,4.77,6.26,9.54,9.38,14.3-.78.42-1.56.84-2.35,1.26-2.3-5.23-4.59-10.46-6.89-15.69,0,0-.15.13-.15.13Z"/>
  <path class="cls-2" d="M214.19,71.37c-.31,3.92-.59,7.54-.8,10.32-4.3-5.41-4.3-6.51.8-10.32Z"/>
  <path class="cls-2" d="M309.86,14.26c-3.81,1.29-7.09,2.41-11.37,3.87.88-1.54,1.24-3.13,2.1-3.48,2.28-.93,4.76-1.42,7.2-1.84.54-.09,1.26.86,2.07,1.45Z"/>
  <path class="cls-2" d="M231.25,86.43c.87-.49,1.53-.86,2.2-1.23,3.12,6.1,3.61,6.3,12.72,5.29-5.39,3.27-8.97,2.37-14.92-4.06Z"/>
  <path class="cls-1" d="M230.58,174.46c4.58.31,9.22.3,13.74,1.01,6.88,1.09,13.71,2.51,20.48,4.14,2.56.62,4.89,2.21,7.32,3.36-.2.56-.4,1.11-.61,1.67-13.6-3.44-27.21-6.87-40.82-10.3-.01.01-.11.12-.11.12Z"/>
  <path class="cls-1" d="M267.37,146.9c2.3,8.25,4.43,15.87,6.45,23.08-4.11-4.36-6.95-13.83-6.45-23.08Z"/>
  <path class="cls-1" d="M290.18,180.35c4.57-3.62,10.68-2.29,16.07-3.33-5.12,1.6-10.24,3.2-15.36,4.8-.24-.49-.47-.98-.71-1.47Z"/>
  <path class="cls-1" d="M230.88,222.14c-9.25-15.13-11.55-32.39-14.74-49.38,4.91,16.46,9.83,32.92,14.74,49.38Z"/>
  <path class="cls-1" d="M355.78,306.91c-5.9-.31-8.4-5.37-11.11-10.2,3.78,3.47,7.55,6.93,11.11,10.2Z"/>
  <path class="cls-1" d="M322.11,97.08c-1.92,2.35-3.63,5.97-5.05,5.87-.44-.03-1.03-.16-2.18-.53-3.31-1.08-5.92-1.92-6.07-3.37-.06-.57.28-1.03.43-1.24,2.15-2.94,11.45-1.03,12.88-.73Z"/>
  <path class="cls-1" d="M211.78,486.21c6.37-3.99,12.73-7.98,19.1-11.96.21.32.41.64.62.96-6.27,4.03-12.54,8.07-18.81,12.1-.3-.37-.61-.73-.91-1.1Z"/>
  <path class="cls-1" d="M357,234.18c-2.02-13.75-4.05-27.49-6.07-41.24,2.02,13.75,4.05,27.49,6.07,41.24Z"/>
  <path class="cls-1" d="M305,110.24c.95,1.01,3.16,3.05,6.31,3.34.71.07,1.71.15,2.8-.34,2.38-1.07,3.62-4.19,2.93-4.91-.6-.63-2.34.95-5.97,1.7-2.48.52-4.62.4-6.07.2Z"/>
</svg>