<?xml version="1.0" encoding="utf-8"?>
<!-- Generator: Adobe Illustrator 28.3.0, SVG Export Plug-In . SVG Version: 6.00 Build 0)  -->
<svg version="1.1" id="Layer_1" xmlns="http://www.w3.org/2000/svg" xmlns:xlink="http://www.w3.org/1999/xlink" x="0px" y="0px"
	 viewBox="0 0 620.2 922.4" style="enable-background:new 0 0 620.2 922.4;" xml:space="preserve">
<style type="text/css">
	.st0{fill:#FFFFFF;}
	.st1{fill:#030303;}
</style>
<g>
	<path class="st0" d="M617.2,414c-1.3-2.2-4.6-6-8.2-9.7c-2.4-2.4-5.7-4.1-8-6.6c-5.9-6.4-12.9-7.9-20.9-5.8
		c-3.4,0.9-6.9,1.8-9.8,3.6c-6.5,4.1-11.6,2.5-17.2-2c-12.6-10.3-24-21.6-33.1-35.2c-7.5-11.2-16-21.5-27.9-28.1
		c-8.9-5-13.8-12.5-17.6-21.5c-6.1-14.6-12.9-28.9-18.7-43.6c-2.1-5.2-3.1-11.3-2.9-16.9c0.5-15.9-1.6-31.3-8.3-45.8
		c-4.2-9.2-10.3-16.5-19.5-21.2c-4.7-2.3-10.2-4-11.3-10.5c-0.2-0.9-1.4-2.1-2.3-2.4c-6.8-2.6-13.5-5.7-20.5-7.1
		c-3.8-0.8-8.2,1.6-12.4,2.5c-2.7,0.6-5.6,2-8,1.4c-5.3-1.2-10.6-2.9-15.5-5.3c-2.8-1.4-5-4.2-7-6.8c-0.7-0.9-0.7-3.7,0.1-4.4
		c10.8-10.2,16.5-23.2,21.4-36.8c1.3-3.7,3.3-6.1,7.4-7.2c6.8-1.9,11.1-7.3,10-13c-0.9-4.5,0.6-7.3,3.6-10c4.9-4.2,5-9.5,2.9-15.1
		c-0.7-1.8-1.8-3.5-2.8-5.3c-2.4-4.6-3.3-9,0.5-13.4c2.8-3.4,2.7-6.3-1-9.8c-3.7-3.5-9-6.9-7-14c0.4-1.3-2.6-5.1-4.1-5.1
		c-5.7,0-7.9-0.8-10.4-3.4c-2.8-2.9-0.4-7.4-2.9-8.7c-1.4-0.7-3.5,0.1-6.2,1.3c-2.6,1.1-2.8,1.9-4.3,2.1c-2.5,0.2-4.9-1.2-7.4-2.8
		c-11.1-7.3-23.2-9.4-35.8-5.1c-7.2,2.4-14.2,5.6-21,8.9c-3.4,1.6-6.3,2.1-9.9,0.6c-3.8-1.6-7.9-3-11.9-3.1
		C253.8,8.1,242,18,237.4,33.9c-0.8,2.9-2.5,5.8-4.5,8c-4.9,5.5-8.8,11.9-7,19c2,8.2,1.9,16,1.6,24.3c-0.6,13,8.9,22.4,23,25.4
		c1.8,0.4,4.4,1.2,4.9,2.5c0.5,1.3-0.7,4-2,5.1c-6.7,5.6-9.2,12.8-9.8,21.1c-0.1,1.9-1.3,4.4-2.8,5.4c-12.1,8-13,21.1-15.1,33.4
		c-0.6,3.3-0.8,5.2-4.2,6.4c-12.5,4.2-20.6,13-25.7,24.9c-7.1,16.7-7.6,33.8-5,51.5c1.2,7.9,0.7,16.2-0.1,24.2
		c-1.2,12.1-3.4,24.1-5.1,36.1c-0.2,1.5-0.4,3-0.8,5.6c-1.3-1.8-1.8-2.4-2.3-3.1c-19.5-29-39.1-58.1-58.4-87.2
		c-2.3-3.6-4.9-4.5-8.7-4c-12.2,1.7-23.8,5.2-34.4,11.5c-3.5,2.1-6.6,4.9-10.5,7.8c-1-11.2-3.2-21.4-11.2-29.2
		c-7.8-7.5-17-11.4-29.1-11.9c1.6,3.1,2.7,5.1,4.1,7.8c-4.2,1.6-8.3,3.1-12.8,4.8c0.7,1.4,1.4,3.7,2.6,5.5
		c14.8,21.1,29.2,42.6,44.8,63.2c6.2,8.1,6.5,15.6,4.1,24.7c-1.1,4.1-1.4,8.9-0.3,13c2,7.5,5,14.8,8.1,22c1.1,2.5,3.4,4.4,5.2,6.5
		c2.6,2.8,5.9,5.1,7.8,8.3c4,6.9,9.7,10.7,17.4,12.1c3.7,0.7,7.7,1.4,11,3.1c8.6,4.7,17,9.8,25.3,15c1.2,0.8,2.8,2.7,2.6,3.7
		c-0.7,3.7-1.1,8.3-3.5,10.6c-7.9,7.8-9.2,16.9-7.7,27.1c1.3,9.5,2.6,11.9,11.4,12.5c6.5,0.5,10.5,8.5,7.1,14
		c-5.9,9.4-13.4,16.5-25.7,16.1c-2-0.1-4,0.9-7.3,1.6c2.9,1.6,4.2,2.4,7,4c-3.8,0.9-6.1,1.5-8.5,2c0-1.1-0.3-3-1.5-4.7
		c-2-2.9-5.8-4.4-9.9-3.8c1.5-0.5,4.2-1.5,6.7-4c2.2-2.1,3.3-4.3,3.9-5.6c-1.7-0.2-3.4-0.5-5.1-0.7c2.3-2.5,4.6-5.1,6.9-7.6
		l-4.1,0.3c0.6-0.6,1.1-1.4,1.7-2.2c2-3,2.8-6.1,3.1-8.2c-0.9,0.9-1.8,1.8-2.8,2.6c0.1-2.4,0.2-4.8,0.2-7.2c-0.7,1.9-1.3,3.7-2,5.5
		c-0.2-4.1-0.4-8.2-0.6-12.4c-3,8.2-13.4,11.8-12.6,22.7c-0.7-1-1.3-1.8-2.5-3.5c-0.2,3.5-0.3,5.9-0.5,9.8c-0.4-2.6-0.6-3.7-0.8-4.9
		c-2.3,1.9-3.1,3.7-3.3,5c-0.2,1.2-0.1,2.4-0.6,4.7c-0.4,1.5-0.6,2.5-1,2.5c-1,0.1-1.3-7.1-4.3-15.1c-1.5-3.9-3.2-7-4.5-9.1
		c-1,1-2,2.1-2.9,3.1c-0.2-11.1-13-25.6-22.3-25.3c0.7,5.4,1.4,10.8,2.1,15.8c1.9,1.3,3.8,2.7,5.6,4c-1.3,0.1-2.6,0.1-3.9,0.2
		c1.9,1.4,3.9,2.7,5.9,4.1c-1.4-0.1-2.8-0.2-4.2-0.2c2.9,1.9,6.5,4.7,10.1,8.6c4.1,4.5,6.8,9,8.4,12.4c-0.9-0.5-1.4-0.7-1.7-1
		c-5.3-8-13.3-11.7-22.4-12.4c-10.1-0.8-19.2,3.3-28,7.7c-0.8,0.4-1.7,2.5-1.4,3.4c1.7,5.3,5.6,7,11,6.1c1.7-0.3,3.5,0,4.9,0
		c-4.8,2-9.6,3.9-14.3,6.1c-0.9,0.4-1.5,1.6-2,2.6c-4.8,11.2-2.7,21.3,5.3,30.1c3.8,4.2,8.7,7.5,13.2,11.3c-5.4,0-10.8-0.4-16.2,0.1
		c-6.1,0.5-12.6,0.5-18,2.9c-13.8,6.1-21.6,24.6-18,39.8c4.1,16.8,17.1,27.7,33.4,27.6c3.1,0,6.2-0.7,9.5-1.2c0.7,2.2,1.3,4.5,2,6.7
		c1.2,4.3,3.9,7,8.5,7.2c3.3,0.2,5.4,1.4,6.7,4.7c0.7,1.8,2.9,3.1,4.6,4.4c2.2,1.8,4.6,3.3,6.7,5.1c3.1,2.5,3.7,5.3,2,9.2
		c-3.4,8-2.5,15.9,3.2,22.4c3.1,3.5,4.1,6.8,3.8,11.3c-1.1,20-1.9,40-3,59.9c-1,19-2.3,37.9-3.3,56.9c-0.2,3.9-1.5,6.3-5.4,7.8
		c-7.7,3-12.7,8.9-14.7,17.1c-0.3,1.4-0.8,2.8-1.3,4.5c-2.7-0.7-5-1.5-7.4-2c-13.3-3.1-23.3,1.8-27.7,14.7c-1.8,5.3-2.3,11.6-1.2,17
		c2.7,13.2,11.4,22,24.1,26.5c5.3,1.8,7.4,4.2,7.2,10.2C48,897,57.5,907,72,908.3c3.3,0.3,6.7,0.4,10,0.4
		c50.3,0.2,100.7,0.4,151,0.5c2.8,0,5.6-0.6,8.5-0.5c3.9,0.2,8.1,0,11.6,1.3c12.5,5,25,5.6,37.6,1.1c3.6-1.3,5.9-0.8,8.8,1.8
		c12.6,11.6,28,12.5,42.1,2.8c2.1-1.4,3.9-3.2,6.1-4.3c2.1-1.1,4.5-2.3,6.8-2.3c42.2,0,84.3,0.2,126.5,0.3c3,0,6-0.1,9-0.4
		c9.6-0.9,16.2-5.3,18.6-15.2c0.4-1.6,2.4-3.4,4.1-4c5.1-2.1,10.5-3.2,15.5-5.5c8.4-3.8,12.7-10.7,12-20c-0.3-3.4,0.6-4.8,3.8-6.2
		c8.4-3.4,12.7-14,10.6-24.7c-1.7-8.5-7.2-12.8-17.5-12.9c-3.5,0-4.3-1.6-4.3-4.5c0-7.8-2.8-13.6-10.9-15.9c-3.6-1-4.6-3.6-4.7-7.2
		c-1-48.7-2-97.3-3.2-146c-0.1-3.6,1-6.2,3.7-8.7c6.2-5.7,9.3-24.3,4.4-30.3c-4.2-5.1-0.9-7.5,1.6-10.9c3.5-4.8,8-9.2,10-14.6
		c2.2-6.1,5.6-7.8,11.5-8.5c24.4-3.1,36.3-15.5,39.1-39.8c1.7-15-6.2-24-21.3-24.2c-4.1-0.1-8.2,0-12.7,0c0.4-1.2,0.6-2.2,1-3
		c7.4-12.4,14.8-24.9,22.4-37.2c1-1.6,3.5-3.1,5.2-3.1c22.7,0.4,24.2-9.4,30.6-15C620.1,442.5,622.9,423.4,617.2,414L617.2,414z"/>
	<g>
		<path class="st1" d="M339.3,122.3c-0.2,0-0.6,0-0.9-0.2c0-0.1-0.2-0.2-0.2-0.4c0-0.5,1.4-0.8,2.4-0.9c1.1-0.1,1.9,0,2.4,0.1
			c1.9,0.3,0.8,0,4.5,0.4c4,0.5,4.2,0.7,5.4,0.6c1.6-0.2,2.9-0.8,3-0.5c0.1,0.2-0.7,0.5-1.5,1.6c-0.3,0.3-0.3,0.4-0.5,0.6
			c-0.6,0.5-1.4,0.5-1.9,0.5c-1.7-0.1-5.2-1-7.5-1.4c-1.8-0.3-2.6-0.5-3.3-0.4C340.7,122.4,340,122.3,339.3,122.3L339.3,122.3z"/>
		<path class="st1" d="M345.8,127.8c-0.4,0.5-0.6,0.8-0.5,1c0.2,0.4,1.9,0,4.2-0.1c2.2,0,4,0.2,4.1-0.1c0-0.1-0.2-0.4-0.6-0.9
			c-0.1-0.2-0.2-0.2-0.3-0.3c-0.5-0.4-1.4-0.4-1.9-0.4c-3,0-4.1-0.2-4.7,0.3C346,127.6,345.9,127.8,345.8,127.8L345.8,127.8z"/>
		<path d="M361.2,108.7c1,1-0.6,5.2-3.2,5.9c-0.3,0.1-0.4,0.1-1.6,0c-4.1-0.2-4.7,0.2-5.6-0.4c-1.1-0.7-1.9-2.2-1.5-2.9
			c0.1-0.3,0.4-0.5,2.9-0.9c3.4-0.5,3.5-0.1,4.7-0.6c1.2-0.5,1.7-1.2,3.1-1.3C360.3,108.4,360.9,108.4,361.2,108.7L361.2,108.7z"/>
		<path d="M617.2,414c-1.3-2.2-4.6-6-8.2-9.7c-2.4-2.4-5.7-4.1-8-6.6c-5.9-6.4-12.9-7.9-20.9-5.8c-3.4,0.9-6.9,1.8-9.8,3.6
			c-6.5,4.1-11.6,2.5-17.2-2c-12.6-10.3-24-21.6-33.1-35.2c-7.5-11.2-16-21.5-27.9-28.1c-8.9-5-13.8-12.5-17.6-21.5
			c-6.1-14.6-12.9-28.9-18.7-43.6c-2.1-5.2-3.1-11.3-2.9-16.9c0.5-15.9-1.6-31.3-8.3-45.8c-4.2-9.2-10.3-16.5-19.5-21.2
			c-4.7-2.3-10.2-4-11.3-10.5c-0.2-0.9-1.4-2.1-2.3-2.4c-6.8-2.6-13.5-5.7-20.5-7.1c-3.8-0.8-8.2,1.6-12.4,2.5c-2.7,0.6-5.6,2-8,1.4
			c-5.3-1.2-10.6-2.9-15.5-5.3c-2.8-1.4-5-4.2-7-6.8c-0.7-0.9-0.7-3.7,0.1-4.4c10.8-10.2,16.5-23.2,21.4-36.8
			c1.3-3.7,3.3-6.1,7.4-7.2c6.8-1.9,11.1-7.3,10-13c-0.9-4.5,0.6-7.3,3.6-10c4.9-4.2,5-9.5,2.9-15.1c-0.7-1.8-1.8-3.5-2.8-5.3
			c-2.4-4.6-3.3-9,0.5-13.4c2.8-3.4,2.7-6.3-1-9.8c-3.7-3.5-9-6.9-7-14c0.4-1.3-2.6-5.1-4.1-5.1c-5.7,0-7.9-0.8-10.4-3.4
			c-2.8-2.9-0.4-7.4-2.9-8.7c-1.4-0.7-3.5,0.1-6.2,1.3c-2.6,1.1-2.8,1.9-4.3,2.1c-2.5,0.2-4.9-1.2-7.4-2.8
			c-11.1-7.3-23.2-9.4-35.8-5.1c-7.2,2.4-14.2,5.6-21,8.9c-3.4,1.6-6.3,2.1-9.9,0.6c-3.8-1.6-7.9-3-11.9-3.1
			C253.8,8.1,242,18,237.4,33.9c-0.8,2.9-2.5,5.8-4.5,8c-4.9,5.5-8.8,11.9-7,19c2,8.2,1.9,16,1.6,24.3c-0.6,13,8.9,22.4,23,25.4
			c1.8,0.4,4.4,1.2,4.9,2.5c0.5,1.3-0.7,4-2,5.1c-6.7,5.6-9.2,12.8-9.8,21.1c-0.1,1.9-1.3,4.4-2.8,5.4c-12.1,8-13,21.1-15.1,33.4
			c-0.6,3.3-0.8,5.2-4.2,6.4c-12.5,4.2-20.6,13-25.7,24.9c-7.1,16.7-7.6,33.8-5,51.5c1.2,7.9,0.7,16.2-0.1,24.2
			c-1.2,12.1-3.4,24.1-5.1,36.1c-0.2,1.5-0.4,3-0.8,5.6c-1.3-1.8-1.8-2.4-2.3-3.1c-19.5-29-39.1-58.1-58.4-87.2
			c-2.3-3.6-4.9-4.5-8.7-4c-12.2,1.7-23.8,5.2-34.4,11.5c-3.5,2.1-6.6,4.9-10.5,7.8c-1-11.2-3.2-21.4-11.2-29.2
			c-7.8-7.5-17-11.4-29.1-11.9c1.6,3.1,2.7,5.1,4.1,7.8c-4.2,1.6-8.3,3.1-12.8,4.8c0.7,1.4,1.4,3.7,2.6,5.5
			c14.8,21.1,29.2,42.6,44.8,63.2c6.2,8.1,6.5,15.6,4.1,24.7c-1.1,4.1-1.4,8.9-0.3,13c2,7.5,5,14.8,8.1,22c1.1,2.5,3.4,4.4,5.2,6.5
			c2.6,2.8,5.9,5.1,7.8,8.3c4,6.9,9.7,10.7,17.4,12.1c3.7,0.7,7.7,1.4,11,3.1c8.6,4.7,17,9.8,25.3,15c1.2,0.8,2.8,2.7,2.6,3.7
			c-0.7,3.7-1.1,8.3-3.5,10.6c-7.9,7.8-9.2,16.9-7.7,27.1c1.3,9.5,2.6,11.9,11.4,12.5c6.5,0.5,10.5,8.5,7.1,14
			c-5.9,9.4-13.4,16.5-25.7,16.1c-2-0.1-4,0.9-7.3,1.6c2.9,1.6,4.2,2.4,7,4c-3.8,0.9-6.1,1.5-8.5,2c0-1.1-0.3-3-1.5-4.7
			c-2-2.9-5.8-4.4-9.9-3.8c1.5-0.5,4.2-1.5,6.7-4c2.2-2.1,3.3-4.3,3.9-5.6c-1.7-0.2-3.4-0.5-5.1-0.7c2.3-2.5,4.6-5.1,6.9-7.6
			l-4.1,0.3c0.6-0.6,1.1-1.4,1.7-2.2c2-3,2.8-6.1,3.1-8.2c-0.9,0.9-1.8,1.8-2.8,2.6c0.1-2.4,0.2-4.8,0.2-7.2c-0.7,1.9-1.3,3.7-2,5.5
			c-0.2-4.1-0.4-8.2-0.6-12.4c-3,8.2-13.4,11.8-12.6,22.7c-0.7-1-1.3-1.8-2.5-3.5c-0.2,3.5-0.3,5.9-0.5,9.8
			c-0.4-2.6-0.6-3.7-0.8-4.9c-2.3,1.9-3.1,3.7-3.3,5c-0.2,1.2-0.1,2.4-0.6,4.7c-0.4,1.5-0.6,2.5-1,2.5c-1,0.1-1.3-7.1-4.3-15.1
			c-1.5-3.9-3.2-7-4.5-9.1c-1,1-2,2.1-2.9,3.1c-0.2-11.1-13-25.6-22.3-25.3c0.7,5.4,1.4,10.8,2.1,15.8c1.9,1.3,3.8,2.7,5.6,4
			c-1.3,0.1-2.6,0.1-3.9,0.2c1.9,1.4,3.9,2.7,5.9,4.1c-1.4-0.1-2.8-0.2-4.2-0.2c2.9,1.9,6.5,4.7,10.1,8.6c4.1,4.5,6.8,9,8.4,12.4
			c-0.9-0.5-1.4-0.7-1.7-1c-5.3-8-13.3-11.7-22.4-12.4c-10.1-0.8-19.2,3.3-28,7.7c-0.8,0.4-1.7,2.5-1.4,3.4c1.7,5.3,5.6,7,11,6.1
			c1.7-0.3,3.5,0,4.9,0c-4.8,2-9.6,3.9-14.3,6.1c-0.9,0.4-1.5,1.6-2,2.6c-4.8,11.2-2.7,21.3,5.3,30.1c3.8,4.2,8.7,7.5,13.2,11.3
			c-5.4,0-10.8-0.4-16.2,0.1c-6.1,0.5-12.6,0.5-18,2.9c-13.8,6.1-21.6,24.6-18,39.8c4.1,16.8,17.1,27.7,33.4,27.6
			c3.1,0,6.2-0.7,9.5-1.2c0.7,2.2,1.3,4.5,2,6.7c1.2,4.3,3.9,7,8.5,7.2c3.3,0.2,5.4,1.4,6.7,4.7c0.7,1.8,2.9,3.1,4.6,4.4
			c2.2,1.8,4.6,3.3,6.7,5.1c3.1,2.5,3.7,5.3,2,9.2c-3.4,8-2.5,15.9,3.2,22.4c3.1,3.5,4.1,6.8,3.8,11.3c-1.1,20-1.9,40-3,59.9
			c-1,19-2.3,37.9-3.3,56.9c-0.2,3.9-1.5,6.3-5.4,7.8c-7.7,3-12.7,8.9-14.7,17.1c-0.3,1.4-0.8,2.8-1.3,4.5c-2.7-0.7-5-1.5-7.4-2
			c-13.3-3.1-23.3,1.8-27.7,14.7c-1.8,5.3-2.3,11.6-1.2,17c2.7,13.2,11.4,22,24.1,26.5c5.3,1.8,7.4,4.2,7.2,10.2
			C48,897,57.5,907,72,908.3c3.3,0.3,6.7,0.4,10,0.4c50.3,0.2,100.7,0.4,151,0.5c2.8,0,5.6-0.6,8.5-0.5c3.9,0.2,8.1,0,11.6,1.3
			c12.5,5,25,5.6,37.6,1.1c3.6-1.3,5.9-0.8,8.8,1.8c12.6,11.6,28,12.5,42.1,2.8c2.1-1.4,3.9-3.2,6.1-4.3c2.1-1.1,4.5-2.3,6.8-2.3
			c42.2,0,84.3,0.2,126.5,0.3c3,0,6-0.1,9-0.4c9.6-0.9,16.2-5.3,18.6-15.2c0.4-1.6,2.4-3.4,4.1-4c5.1-2.1,10.5-3.2,15.5-5.5
			c8.4-3.8,12.7-10.7,12-20c-0.3-3.4,0.6-4.8,3.8-6.2c8.4-3.4,12.7-14,10.6-24.7c-1.7-8.5-7.2-12.8-17.5-12.9
			c-3.5,0-4.3-1.6-4.3-4.5c0-7.8-2.8-13.6-10.9-15.9c-3.6-1-4.6-3.6-4.7-7.2c-1-48.7-2-97.3-3.2-146c-0.1-3.6,1-6.2,3.7-8.7
			c6.2-5.7,9.3-24.3,4.4-30.3c-4.2-5.1-0.9-7.5,1.6-10.9c3.5-4.8,8-9.2,10-14.6c2.2-6.1,5.6-7.8,11.5-8.5
			c24.4-3.1,36.3-15.5,39.1-39.8c1.7-15-6.2-24-21.3-24.2c-4.1-0.1-8.2,0-12.7,0c0.4-1.2,0.6-2.2,1-3c7.4-12.4,14.8-24.9,22.4-37.2
			c1-1.6,3.5-3.1,5.2-3.1c22.7,0.4,24.2-9.4,30.6-15C620.1,442.5,622.9,423.4,617.2,414L617.2,414z M58,253.6
			c-8.4-9-16.6-18-24.9-27.1c1.2-0.1,2.9-0.2,4.6-0.3c0-2.8,3.6-6.2,6.4-5.6c2.1,0.4,4.1,1.3,6.2,1.9c-2.9-2.4-5.8-4.9-8.9-7.5
			c15.3,3.1,29.5,23.3,25.6,38.2c-2.3-10.6-3.5-20.3-11.7-26.6c1.5,6.5,3,13.1,4.4,19.6c1.8,8.4,1.7,8.4,10,9.2
			C66.2,257.7,61.2,257,58,253.6L58,253.6z M74.1,445.2c-1.9-2.5-3.4-4.4-5.2-6.7c0.1-0.2,0.5-1.6,1.1-3.1c2.4,1.2-1.2,7.6,5.7,4.9
			C75,442.2,74.6,443.4,74.1,445.2L74.1,445.2z M37,471.4c3.6-1.1,6.7-2.1,9.8-3C43.5,474.8,41.9,475.2,37,471.4z M397.5,166.8
			c-0.4,1.3-0.6,2.4-1,3.4c-0.3,0.9-0.7,1.8-1.2,3.3c2.9-0.2,5.5-0.8,7.9-0.4c2.6,0.4,5.9,0.7,5.6,4.9c-0.3,3.8-2.3,5.9-5.9,6.6
			c1.2-3.4,2.4-6.6,3.5-9.7c-0.5-0.2-1-0.4-1.4-0.7c-3.6,5-8.5,4.1-13.3,3C389.8,172,391.1,169.4,397.5,166.8L397.5,166.8z
			 M402.6,577.8c-0.9,1.2-1.9,2.3-3,3.4c-0.6,0.6-1.3,1-2.7,2c0-4.7-0.2-8.7,0-12.7c1.2-19.3-0.5-38.3-6.6-56.7
			c-3.2-9.8-7.5-18.9-14.9-26.3c-12.3-12.2-27.4-15.4-43.9-12.6c-21.5,3.7-40.6,12.5-56.3,28.1c-11.8,11.7-21.6,12.6-35.9,4
			c-4.3-2.6-8.8-4.8-12.9-7.5c-11.7-7.9-24.7-8.4-38-6.5c-4.9,0.7-9.7,2-12,7.5c-0.8,1.7-3,2.8-4.6,4.2c-0.5-0.4-1-0.9-1.5-1.3
			c6.3-10.2,12.6-20.5,19.4-31.5c-3.4,2.4-6.6,4-9,6.5c-6.9,7.4-12.8,15.5-16.4,25.1c-0.5,1.4-1.9,2.4-2.8,3.6c-0.8-1.3-2-2.6-2.2-4
			c-1-7.1-0.4-14.4,4.2-20c6.2-7.5,13-14.7,20.4-21c6.8-5.9,15.6-5.4,23.9-3.3c15.5,3.9,30.9,8.1,46.4,12.1c4.5,1.1,9,1.8,13.6,2.7
			c0.1,0.5,0.2,1,0.3,1.6c-6,1.7-12.1,3.4-18.3,5.1c8.1,1.5,15.9,0.3,23.3-3.2c10.4-4.8,20.6-10.2,30.9-15.3
			c14.5-7.2,29.5-12.2,45.9-12.5c18.8-0.3,35.4,5.2,47.4,20.3c8.1,10.3,15.6,21.1,22.4,32.3c4.6,7.4,3.1,11.5-3.5,17.3
			c-1,0.8-1.9,1.7-2.6,2.3c-1.7-5.1-3.4-10.1-5.1-15.1c-0.1,0-0.2,0-0.3,0c0.8,5.1,1.6,10.1,2.4,15.2c-0.3,0.1-0.6,0.1-1,0.2
			c-3.7-12.8-7.4-25.6-11.3-39.2c2.7,2,5.2,3.7,7.6,5.5c0.2-0.2,0.4-0.5,0.7-0.7c-2.9-2.5-5.4-5.6-8.7-7.3
			c-12-6.1-23.9-12.7-36.4-17.4c-16.9-6.2-34.1-4.1-50.1,3.5c-11.1,5.2-21.5,12-31.7,18.9c-13.3,8.9-26.7,11.5-41.2,3.1
			c-5.8-3.3-11.7-6.4-17.6-9.4c-12.5-6.4-28.9-2.3-35,7.6c6.3-0.9,13.4-2.5,20.6-2.7c8.5-0.3,15.3,5,22.4,9
			c4.4,2.4,8.6,5.1,13.1,7.2c10.5,4.9,20.7,4.4,30.2-2.6c8.4-6.2,16.5-12.9,25.1-19c11.7-8.3,24.6-14,39.1-15.2
			c25.2-2.1,43.3,8.7,55.2,30.7c9,16.7,15.3,34.4,18.8,53C412.1,558.3,409,568.5,402.6,577.8L402.6,577.8z M404.5,650.5l-4,116.8
			c-0.5,0-1.1,0-1.6,0c1.4-38.9,2.7-77.9,4.1-116.8C403.5,650.4,404,650.5,404.5,650.5L404.5,650.5z M384.2,563.5
			c-0.1-11.9-1-24.1-3.8-35.6c-9.1-38.5-45-53.6-79.5-33.8c-9.3,5.4-17.9,12-27.5,18.5c6.4-10.4,14.4-18.6,25.2-23
			c11.2-4.6,22.7-8.8,34.5-11.5c19.9-4.5,37.9,4.7,47.8,22.5c9.5,17,13.2,35.5,13.2,54.7c0,15.6-0.9,31.2,1.7,46.8
			c1.6,9.6-5.2,15.8-13.1,21.3c0-2.4-0.1-4.7,0-7.1C383.2,598.8,384.4,581.2,384.2,563.5L384.2,563.5z M253.2,342.9
			c-2.6-6.3,1-8.2,5.5-9.6c4.1-1.3,8.1-2.9,12-5.2c-5.9,1.9-11.8,3.8-17.7,5.7c0.3-1.5,0.6-3.1,1.1-5.6c15.8-3.8,32.2-8.3,48.8-11.7
			c13.6-2.8,27.5-1.3,40.5,2.9c19.1,6.2,37.8,5.9,57.1-0.6c-1.7,3.8-3.4,6.3-8,5.6c-4.3-0.6-8.8-0.1-13.1-0.1c0,0.6,0,1.1,0,1.7
			c6.4,0.5,12.9,1,19.3,1.6c0,0.5,0,1.1,0,1.7c-7.6,4.4-15.6-1-24.2-0.6c7.7,3.2,15.9,3.1,22.5,7c-0.2,0.6-0.4,1.3-0.6,1.9
			c-3.8-0.7-7.6-1.4-11.4-2.1c0,0.1-0.1,0.3-0.1,0.4c3.8,1.4,7.5,2.7,11.3,4.1l-0.4,1.5c-6.8,1.9-12.9-2.6-19.7-2.2
			c4.6,1.3,9.1,2.7,13.7,4c1.4,0.4,3.1,0.4,4.3,1.2c1.2,0.7,2.1,2.1,3.1,3.2c-1.4,0.4-2.9,1.4-4.1,1.2c-7.7-1.5-15.3-3.5-22.9-5.1
			c-8.8-1.9-17.6-3.5-26.4-5.4c-28.7-6.3-56.3-0.1-83.6,7.9c-2.8,0.8-5.6,1.7-8.4,2.5c-0.3-0.5-0.7-1-1-1.5c1.5-1.3,2.8-3.3,4.5-3.9
			c30.1-9.7,60.2-19,92.4-10.3c4.7,1.3,9.5,1.8,14.3,2.7C324.6,322.3,288.5,328.2,253.2,342.9L253.2,342.9z M254.6,323.7L269,322
			c0.1,0.5,0.1,1,0.2,1.4l-14.4,1.9C254.8,324.7,254.7,324.2,254.6,323.7L254.6,323.7z M385.2,441.5c-15-6.6-30.1-8.5-46.9-6.9
			c15.1-29.2,14.4-60.3,16.2-90.8c4.4-0.6,5.9,1.2,6.1,4.9c0.2,4.5,0.8,8.9,2,13.3v-16.6c7.6-1,11.1,1.5,11.9,8.4
			c1.3,11.7,2.5,23.5,4.4,35.1c-0.8-13.4-1.7-26.8-2.5-40.2c0.5-0.2,0.9-0.5,1.4-0.8c1,1.5,2.5,2.9,2.9,4.5c2.5,11,4.7,22.1,7,32.8
			c-1-11.4-2-23.1-3-34.9c3.6,0.2,3.9,0.1,4.7,4c2.4,10.5,4.4,21.2,6.8,31.7c4.4,19.3,8.2,38.8,8.9,58.7c0.1,2.2,0.1,4.3,0.1,6.5
			c0,0.6-0.3,1.2-0.6,2.4c-4.9-3.1-9.7-5.8-14.1-8.9c-1.2-0.9-1.8-3.3-1.8-5c-0.2-9-0.1-18-0.1-25.9
			C387.5,421.9,386.4,431.2,385.2,441.5L385.2,441.5z M254.2,353.9c0.6-0.9,1.3-1.7,2-2.5c0.5,0.3,1,0.5,1.5,0.8
			c-7.5,15-14.9,29.9-22.4,44.9c0.4,0.2,0.9,0.5,1.3,0.7c9.1-16.5,18.1-32.9,27.1-49.3l2.2,1.1c-7.8,28.9-23.9,54.3-34.5,82.1
			c6-11.2,12.5-22.2,17.8-33.7c7.1-15.6,13.3-31.6,20-47.3c0.8-1.9,2.3-3.4,3.5-5.1l1.4,1c-0.5,3.7-1,7.4-1.5,11.1
			c3.7-6,3.7-15.3,15.5-14.4c-1.5,13.8-3,28-4.5,42.2c0.3,0.1,0.7,0.1,1,0.2c1.9-10.8,3.7-21.6,5.5-32.5c0.1-0.6,0.1-1.3,0.2-2
			c1.2-11.6,2.2-12.3,14.3-10.3v16c4-5.5,0.5-13,6.4-18.1c0.2,1.7,0.4,2.5,0.4,3.3c-1.7,25.8-4.4,51.3-14.7,75.6
			c-3.6,8.4-7.5,14-16.6,16c-4.9,1.1-9.5,4-15.6,6.7c3.8-22.1,7.5-43.3,11.1-64.4l-0.2-0.1c-1,3.3-2.1,6.6-3,9.9
			c-1,3.5-2.2,7-2.9,10.6c-2.8,13-5.5,26.1-8,39.1c-0.9,4.5-2.7,7.4-7.2,9c-8.7,3.2-17.4,6.6-25.9,10.6c-9.2,4.3-17.8,1.7-27.4-1
			c1.7-5.4,2.6-10.9,4.9-15.7c6.6-13.6,13.2-27.2,20.7-40.4C235.5,383,245,368.5,254.2,353.9L254.2,353.9z M401.6,500.9
			c-0.4,0.2-0.7,0.5-1.1,0.7c-4.4-6.8-8.7-13.5-13.1-20.3c0.4-0.3,0.8-0.6,1.1-0.9C398.2,483.9,399.2,492.9,401.6,500.9L401.6,500.9
			z M426.7,811.7c22.1,1.9,44.2,2,66.3-0.5c4.8-0.5,9.5-1.7,14.2-2.6c2.6-0.5,5.5-0.3,5.9,2.7c0.1,1.2-2.3,3.6-4,4.1
			c-7.8,2.2-15.7,4.9-23.7,5.7c-22.9,2.3-45.9,1.3-68.8-1.1c-2.5-0.2-4.8-1.7-7.2-2.6c0-0.5,0-1,0-1.5
			C414.8,813.1,420.3,811.2,426.7,811.7L426.7,811.7z M412,777.4c1.1-42.4,2.2-84.7,3.2-127.1c0.6,0,1.2,0,1.8,0
			c-1.2,42.4-2.3,84.7-3.5,127.1C413,777.5,412.5,777.4,412,777.4z M432.9,633.4c-0.3,0-0.6-0.3-0.9-0.4c0-0.4-0.1-0.8-0.1-1.2
			c12.9-0.2,25.9-0.1,38.8-0.8c12.9-0.7,25.8-2.2,39.2-2.7c-1.2,0.6-2.4,1.6-3.7,1.8C481.8,634,457.4,634.9,432.9,633.4L432.9,633.4
			z M505.9,802.7c-1.2,0.9-2.3,2.4-3.6,2.6c-8.2,1.4-16.4,3.4-24.7,3.6c-16.8,0.4-33.6-0.2-50.4-0.6c-1.4,0-2.7-1.5-4.1-2.3
			c1.5-0.8,3-2.3,4.5-2.3c7.5,0.2,15,0.8,22.4,1.3c0,0.3,0.1,0.6,0.1,0.9c16.4-1.6,32.8-3.2,49.2-4.8c0.7-0.1,1.4-0.5,2-0.3
			C502.9,801.3,504.4,802,505.9,802.7L505.9,802.7z M435,647.9c3.7-0.2,6,2.5,6,6.4c0,13.7,0.1,27.3-0.1,41
			c-0.4,26.8-1,53.7-1.3,80.5c0,2.9,0.4,6.2,1.9,8.5c1.1,1.6,4.5,2.6,6.7,2.3c1.4-0.2,3.4-3.2,3.4-5c0.6-42.3,1.1-84.6,1.5-127
			c0-3.4-0.4-7.1,4.2-7.7c3.4-0.4,6.4,3.4,6.4,7.9c0.4,40,0.8,80,1.1,120c0,3.1-0.9,6.2-1.3,9.4c-0.6,0-1.3,0-1.9,0
			c-0.9-1.1-1.8-2.2-2.5-3.1c0.1,4.2,2.1,7,5.5,7.3c3.6,0.3,7.5-2.9,7.9-6.9c0.4-3.8,0.4-7.7,0.4-11.5c0.1-38.3,0.1-76.7,0.4-115
			c0-2.5,1-5.6,2.6-7.5c2.7-3.1,6.5-1.6,7.3,2.5c0.3,1.8,0.2,3.7,0.2,5.5c0,39.8-0.1,79.7-0.2,119.5c0,1.8,0,3.7,0,5.5
			c0,3.1,1.5,5.6,4.7,4.9c1.3-0.3,2.9-3.3,2.8-5.1c-0.6-35-1.5-70-2.3-105c-0.2-7.5-0.3-15-0.1-22.5c0.1-2.6,1.1-5.1,1.7-7.7
			c0.7,0,1.4,0.1,2.2,0.1c0.3,2.5,0.9,4.9,0.9,7.4c0.5,41.2,0.9,82.3,1.3,123.5c0,1.8,0.2,3.7,0.2,5.5l1.7,0
			c0.1-1.6,0.4-3.2,0.4-4.9c-0.6-41.7-1.2-83.3-1.7-125c0-2.2,0.6-4.5,1-6.7c0.8,0.1,1.5,0.1,2.3,0.2c0.3,4,0.8,8,0.8,12.1
			c0.5,32.8,0.8,65.7,1.2,98.5c0.1,12,0.3,24,0.6,36c0.1,3.9-1.3,6.2-5.3,7c-23,4.4-46,4.6-69.1,1.8c-0.5,0-0.9-0.4-1.6-0.8
			c0.3-1.4,0.3-2.9,0.8-4.2c1.7-4.2,4.4-8.1,5.1-12.4c0.6-4-1.4-8.3-1.4-12.5c0.6-39,1.3-78,2.2-117
			C431.8,651.8,433.8,648,435,647.9L435,647.9z M425.9,616c-1.9,0-3.8-0.6-5.7-2c28.2-1,56.3-1.9,84.5-2.8c0.2,0.2,0.5,0.5,0.7,0.8
			c-1.5,0.9-2.9,2.5-4.4,2.7c-7.6,1-15.2,2.3-22.8,2.3C460.7,617,443.3,616.4,425.9,616L425.9,616z M506.6,625.6
			c-23.7,4.4-47.7,4.6-71.7,4.1c-5.2-0.1-3.8-3.8-3.7-8.2c11.6,0,22.8,0.5,33.9-0.1c13.5-0.7,26.9-2.3,40.3-3.4c2.2-0.2,5.3-2,6,2
			C512,623.5,510,625,506.6,625.6L506.6,625.6z M503.5,605.2c-0.5,1.2-2.1,2.7-3.4,2.9c-24.6,3.6-49.3,3.9-74.1,2.6
			c-0.3,0-0.6-0.3-1.6-0.8c27.1-6.6,53.3-14.4,82-14.8C505.4,599.2,504.7,602.3,503.5,605.2z M484.1,568.8h-72.7
			c-0.2-0.5-0.5-1.1-0.7-1.6c1.6-1,3.2-2.8,4.9-2.8c21.6-0.2,43.3-0.1,65-0.1C483.5,564.2,484.8,565.6,484.1,568.8L484.1,568.8z
			 M479.8,541.8c-19.5,0.2-39,0.1-58.4,0.1c-9.9,0-9.9,0.1-10.2-11.4c31.9,1.5,64-0.5,95.2,7.9c0,0.6,0,1.3,0,1.9
			C497.5,540.8,488.7,541.7,479.8,541.8L479.8,541.8z M423.5,529.5c4.1-2.8,19-3,30.3,0H423.5z M422.9,496.3
			c-1.1-1.4-2.1-2.8-3.2-4.1c-7.6-9-15.1-18.1-23-26.9c-10.6-11.9-24.3-16.9-40-17.9c-17.2-1.1-33.7,1.9-49,9.5
			c-17.8,8.8-36.3,10.2-55.5,7c-8.5-1.4-17.1-2.1-25.7-3.1c0.1-0.4,0.1-0.8,0.1-1.2c23.6-9.8,47.3-19.5,70.7-29.2
			c0-0.9-0.5-2.6,0.1-4c10.1-26.2,15-53.5,15.9-81.5c0.1-2,0.6-4.6,1.9-5.8c1.1-1,3.9-0.7,5.6-0.2c0.8,0.2,1.4,2.4,1.4,3.8
			c0.2,3.9,0.1,7.8,0.8,11.8c0.4-3.6,0.6-7.3,1.3-10.8c0.3-1.5,1.6-2.8,2.4-4.2c0.7,1.4,1.4,2.8,2,4.3c0.2,0.4,0,1,0.2,1.5
			c0.1-3.5,0.3-6.2,5.2-5.8c9,0.9,9.2,0.6,9.3,6.7c0.1,6.3,0,12.6,0.6,19c0.6-7.4,1.3-14.9,1.9-22.2c4.4-1,5.5,0.8,5.7,4.3
			c0.9,28.9-2.7,56.8-16.5,82.8c-2,3.9-4.5,5.8-8.9,6.7c-9.3,1.9-18.4,4.6-27.6,7c-1.4,0.4-2.8,1-4.1,1.8
			c-8.5,4.9-16.9,9.8-25.9,14.9c8.3-0.5,16-2.3,22.6-6.5c14.2-9.1,29.9-13.7,46.4-15.8c24.6-3,46.7,2.5,65.3,19.4
			c7.8,7,14.8,14.8,22.2,22.3C432.2,486.7,431.8,489.8,422.9,496.3L422.9,496.3z M417.3,465.7c-4.4-2.2-7.2-4.9-6.8-10.6
			c1.4-23.1-3.8-45.3-10.4-67.3c-2.8-9.6-5.2-19.3-7.7-28.9c-0.6-2.2-0.7-4.5-1.2-7.8C402.9,359.6,422.7,449.4,417.3,465.7z
			 M396.3,312.6c-2.8,2.6-6.6,4-10,6c16-11.4,22.5-26.2,19.7-45.2c-3.4-23.1-6.8-46.1-10-69.2c-1.1-7.9-1.3-15.9-2-24.2
			c3.9,0.3,4.8,2.3,5.2,5.2c2.5,19.4,5.1,38.9,7.6,58.3c1.4,11.4,3.1,22.8,3.7,34.2C411.4,291.5,406.3,303.3,396.3,312.6
			L396.3,312.6z M373,74.8c-0.4,0.6-1,0.9-2.2,1.4c-2.3,1.1-3.6,1.1-4.9,1.6c-2.1,0.8-3.3,2.2-4.7,3.8c-3,3.5-4.5,10.3-2.8,18
			c2.2-2,3.7-3.6,4.7-4.8c0.4-0.5,1.4-1.6,2.3-1.4c0.4,0.1,0.6,0.4,1.2,0.6c0.7,0.3,1.3,0.3,1.7,0.2c-1,3.2-1.8,5.8-2.4,7.6
			c-1.4,4.6-1.7,5.7-2.5,7.6c-1.1,2.9-2.1,5-2.7,6.1c-7.1,14.4-7.1,19.5-12.5,23.6c-4.4,3.3-9.3,3.6-12.5,3.6
			c-12.1,0.4-21.1-6.9-23.9-9.2c-4-3.2-6.2-6.2-6.5-6c-0.4,0.3,3.5,8.2,11.1,14.6c7,6,12.1,10.1,17.8,15.1c1.1,1,1.7,3.2,1.5,4.7
			c-0.3,2.9-1.4,5.8-1.2,9.1c2.1-3.7,4.3-7.5,6.7-11.6c10.5,11.5,24.5,12.7,38.4,14.2c-3.3,8.3-9.2,11.7-17.8,12.5
			c-9.1,0.8-18,2.8-27,4.4c-1.9,0.3-3.6,1.5-5.1,2.6c4.8-1.1,9-1.9,12.5-2.6c10.8-2.1,9.4-1.3,11.9-2.1c0,0,1.9-0.6,12.5-2.4
			c0.2,0,0.7-0.1,1.1,0.2c0.6,0.4,0.6,1.4,0.5,1.9c-2.8,5.8-21.9,44.8-52.6,48.4c-6.3,0.7-11.9-0.1-12.5-0.3
			c-21.9-10.5-39.3-26-49.2-48.8c-1.5-3.4-1.5-5.7,2.4-7.6c3.4-1.6,6.4-4.2,9.6-6.2c4.7-2.9,8.4-6.5,11.4-10.6
			c4.5-6.2,5.9-12.1,7.1-17.8c1.6-7.4,2.8-19.3,3.1-28.6c0.1-1.7,0.3-7.2,2-7.6c0.3-0.1,0.6,0,2.2,1.1c3.1,2.4,4,4.1,4.6,3.8
			c0.7-0.3,0.7-3.3-0.6-5.9c-1-2.2-2.5-3.5-3.1-3.9c-10.5-8.8-12.7-10.3-13.7-13.5c-0.1-0.4-1.5-4.9,0.8-7.8
			c0.9-1.1,2.3-1.9,2.7-1.6c0.8,0.6-3.2,4.6-2,7.8c0.8,2.1,2.8,1.6,6.6,4.5c4.2,3.2,5.1,6.2,6.7,5.9c0.9-0.2,2-1.3,2.7-6.2
			c5.2,0.8,4.7-4.4,7-6.6c2.6-1.6,6.4-3.9,11.2-6.7c3.5-2.1,5.3-3.1,6.1-3.5c3.5-1.7,10.1-3.1,22,2.1c-6.9-0.9-12.4-0.5-16.2,0.1
			c-0.6,0.1-7,1.1-7,1.9c0,0.3,0.9,0.5,1.5,0.6c0.9,0.1,1.5-0.2,2.7-0.5c0.6-0.2,1.4-0.3,2.4-0.4c-1.6,0.6-3.3,1.2-4.9,1.8
			c0.3,0.5,0.8,1.3,1.5,2.2c1.2,1.5,4.9,6.1,10.9,7c1.6,0.2,4.5,0.8,6.6-0.8c0.5-0.4,1.8-1.3,2-2.8c0.1-1.1-0.4-1.6,0-2.3
			c0.5-0.8,1.9-1,2.9-0.9c1.3,0.2,2,0.9,2.4,0.6c0.2-0.1,0.2-0.3,0.2-1.6c0-0.3,0-0.8,0-1.4c0.3-0.2,0.9-0.5,1.6-0.8
			c1.9-1,2.3-1.1,2.4-1.5c0.3-0.9-1-2.2-1.4-2.5c-3.8-3.5-13-3.2-17-3.6c-4.2-0.4-8.6,0.6-13.1,0.4c6.1-5.3,10-13.2,19.7-14.1
			c5.1-0.5,10-3.1,15.1-4.8c2.8,5.4,4.5,5.6,10.1,0c2,2.9,5.7,8.5,7.6,14C373.5,71,374.1,73.3,373,74.8L373,74.8z M271.5,136.3
			c0.2-2.7,0.5-5.4,1.2-8c4.5,8.2-0.7,22-10.4,25.5c-7.6,2.8-14,6.2-18.9,13.3c-1.1-5.9,5.6-14,10.8-14.1
			C264.2,152.9,270.8,146.5,271.5,136.3L271.5,136.3z M256.5,150.9c1.1-1.6,2.6-4.1,3.6-7.4c1.5-4.6,1.1-7.4,2.2-7.7
			c1.3-0.3,3.9,3.2,3.8,6.5C265.9,146,262,149.5,256.5,150.9L256.5,150.9z M309.4,35.7c0.7,0.3,2.6-2.2,3.1-2.9
			c1.3-1.7,2.1-3.3,3.7-6.9c1.7-3.9,2.2-5.2,2.6-5.1c0.8,0.2-1.1,5.6,1.7,8.9c1.8,2.1,4.5,2.2,4.4,3.2c0,1-2.5,1.4-4.8,2.1
			c-9.5,3-12.8,10.1-17.1,8.4c-0.7-0.3-1-0.6-1.1-0.7c-2.3-2.4,0.2-8.8,3.6-12.8c0.2-0.2,3.3-3.8,4.5-3.1
			C311.6,27.5,308.2,35.2,309.4,35.7L309.4,35.7z M312.7,54.1c1.7-2.1,3.5-3.9,5.5-5.5c4.6-3.6,12.2-7.2,17.3-6.8
			c0.3,0,1.6,0.1,1.8-0.3c0.5-1-4.3-3.2-4-4.9c0.3-1.4,3.7-2.5,5.6-1.4c1.8,1.1,1.4,3.6,3.4,4.3c0.1,0,1.3,0.4,2.2-0.1
			c2.3-1.3,0.4-6.5,2-7.2c1.1-0.5,3.6,1.4,4.3,3.8c0.8,2.7-0.9,5-1.1,5.3c-0.4,0.5-1.6,1.9-7.5,3.1c-5.7,1.1-9.5,0.7-10,2.2
			c-0.2,0.6,0.2,1.1,0.3,1.2c2.7,4.1,23.4-4.9,23.9-3.8c0.2,0.4-2.2,2-5.6,3.5c-10.4,4.8-14.7,2.2-21.9,6.6c-4,2.5-8.2,6-8.2,6
			c-0.9,0.7-1.7,1.5-2.5,2.3c-1.9,2-5.6,3.2-18.3,3.2c-5.3,0-4.4-0.3-6-0.1c-9.6,1-14.6,7.6-15.7,6.6c-1.1-1.1,3.8-8,8.5-12.8
			c1.8-1.7,2.7-2.3,3.7-2.8c3.2-1.5,6.9-1.3,10.5,0C305.6,58.3,309.7,57.9,312.7,54.1L312.7,54.1z M354.4,49.1
			c-4.7,6.8-11.6,7.3-19.5,7.1c4.1-2.3,10.6,2,10.9-5C348.8,50.5,351.4,49.8,354.4,49.1z M317.3,68.5c-8.1,8.1-16.6,1.7-24.9,0.8
			C300.7,66.7,309.1,74.2,317.3,68.5z M283.9,58.4c-0.9,0.9-3.2,2.6-5.5,2.3c-1.2-0.2-2.9-3-2.8-4.6c0-2.8-1.7-7.1,3.7-7.5
			c1-0.1,0.6-1.2,1.1-2.5c0.1-0.2,1.7-4,3.6-4.1c1.5-0.1,2.9,2.3,3.5,3.8C289.2,50.1,287.1,55.4,283.9,58.4L283.9,58.4z M282.7,75
			c4.7-0.6,3.8-0.3,4.8-0.5c2.4-0.5,4.3-1.2,4.8-0.4c0.2,0.3,0,0.5,0.2,1.6c0.1,0.5,0.3,1.3,0.5,1.7c1.2,1.7,8.9-2.2,9.4-1.4
			c0.2,0.4-1.7,2.3-4,3.3c-2,0.9-3.9,0.9-5.1,1c-1.7,0-2.2-0.2-4-0.4c-3.4-0.4-5.9-0.6-8.1,0.5c-2.7,1.4-2.8,3.9-5.4,4.3
			c-0.6,0.1-1.6,0.1-1.8-0.3c-0.4-1,4.1-3,3.8-5c-0.3-1.6-3.6-1.9-3.5-2.7C274.3,76.4,274.9,76,282.7,75L282.7,75z M275,73.2
			c-1,0.7-6.8-3.5-8-9.5c-0.9-4.8,1.3-9.8,2.5-9.7c1,0.1,0.9,3.5,3.3,11.7C274.6,71.3,275.6,72.9,275,73.2L275,73.2z M273.6,76.6
			c-0.3,0.5-2.6,0.2-4.4-1c-7.2-4.6-5.5-21-5-21c0.1,0,0.3,1,0.7,3.1c1.6,7.1,0.8,8.2,1.8,10.9C268.8,73.8,274.1,75.7,273.6,76.6
			L273.6,76.6z M267.7,98.8c1.5-1.1,2.2-2.4,4.5-3.8c1.2-0.8,2.4-1.2,3.1-1.5c-0.1,2.5-1,4.8-2.6,6.4c-0.2,0.2-1.4,1.3-3.2,1.9
			c-4,1.4-7.7-0.5-8.6-0.9C264.4,100.7,266.4,99.7,267.7,98.8L267.7,98.8z M278.4,98.6c-1.1,4.7-3.3,7.9-7.2,9.3
			c-4.5,1.6-7.9-1.1-10.9-4.2C268.8,106.6,271.4,106,278.4,98.6z M335,88.2c0.1,0.2-0.2,0.6-0.5,0.8c-0.6,0.3-1.4,0-1.8-0.5
			c-0.3-0.3-0.2-0.6-0.5-0.8c-0.4-0.3-0.9,0-1.1-0.3c-0.2-0.2,0-0.8,0.3-1.1c0.5-0.4,1.5-0.1,1.8,0.4c0.2,0.3,0,0.6,0.2,0.9
			C333.9,88.1,334.9,87.8,335,88.2L335,88.2z M328.4,85.7c-0.4,0.1-0.8-0.6-0.8-0.7c-0.2-0.4-0.4-1-0.1-1.2c0.3-0.2,1.2,0.1,1.4,0.7
			C329,85,328.7,85.6,328.4,85.7L328.4,85.7z M358.6,37.6c5.4,3.1,7.4,9.5,5,16.8C361.7,48.1,360.2,43.1,358.6,37.6z M374.9,50.5
			h-2.6c0.5,1,0.8,1.8,1.2,2.5c-4.9-2.1-6.4-5.2-6.6-14.2C369.8,43.1,372.2,46.6,374.9,50.5L374.9,50.5z M369,36.3
			c0.3-0.4,0.7-0.8,1-1.3c3,2.3,5.9,4.5,8.9,6.8c-0.5,0.6-0.9,1.2-1.4,1.7C374.7,41.2,371.9,38.7,369,36.3z M385.5,75.3
			c0.1-5.3-7.9-4-8-9.4c3,0.8,6.8,0.8,8.2,2.7C386.8,69.9,386,72.8,385.5,75.3z M369.4,55.3c1.4-0.7,2.8-1.4,4.1-2c0,0,0,0,0,0
			c1.6-0.2,3.2-0.4,3.4-0.5c2.6,3.6,4.9,6.7,7.4,10C373.3,63.2,369.8,61.3,369.4,55.3L369.4,55.3z M339.3,19.5c1-1,1.7-2.1,3.3-3
			c2.1-1.1,6.6-3.6,7.2-2.8c0.5,0.6-1.2,2.7-2.4,3.9c-1,1-1.2,0.7-2.2,1.7c-1.9,1.8-2,2.4-3,3.5c-0.5,0.5-2.4,0.2-2.9-0.4
			C338.7,21.9,338.8,20,339.3,19.5L339.3,19.5z M281.5,25.6c7.9-5.3,16.1-12.5,30.4-15.9c12.1-2.8,24.8-2.4,25.5,0.6
			c0.6,2.3-6.8,4.9-6.4,9.8c0.1,2.2,1.8,4.5,3.8,5.2c1,0.4,3.3,0,7.8-0.9c0.8-0.1,1.2-0.2,1.9-0.4c5.1-1,7.6-1.6,9.2-2.7
			c0.9-0.6,2-2.4,4.1-5.9c3.2-5.4,3.5-6.6,4.3-6.6c2.2,0.2,2.3,10.7,2.3,11.5c0,2.7-0.2,3.9-1,4.2c-0.9,0.4-3-0.8-3.9-2.5
			c-0.2-0.4-0.3-0.6-0.5-0.7c-1-0.2-3.6,3.9-2.7,5.2c1.8,2.6,17.7-6.4,20.4-3.2c0.4,0.5,0.5,1,0.5,1c0.2,2.1-3.9,2.9-4.2,4.9
			c-0.4,3.3,10.9,5.8,11,10.6c0,0.3,0,1-0.4,1.3c-1.4,1.1-5.8-2.8-8.2-4.6c-9.4-7.1-25.2-9.9-34-6.9c-3.5,1.2-5.5,0.9-9.4,1.4
			c-5,0.7-7.2-1.6-6.4-6.6c0.3-1.8,1.1-2.1,1.4-4.2c0.2-1.2,0.3-2.2-0.2-3c-1.3-2.3-6.9-1.4-9.2-1c-5.2,0.9-10.6,3.1-10.4,4.6
			c0.1,0.8,1.9,0.8,2,1.6c0.2,1.3-4.4,1.8-7.9,5.6c-0.9,1-2.5,2.6-2.9,5c-0.4,2.2,0.1,4.7,0.7,6.9c0.7,2.7,0.4,4.2-0.2,5.6
			c-0.9,2.3-3.1,4.7-4.8,4.3c-2-0.5-2.6-4.5-2.7-5.2c-1-7.3,4.1-13.5,3-14.3c-0.7-0.5-2.3,1.8-5.7,2c-1.4,0-1.8,0-2.9-0.4
			c-1.8-0.7-5.5,2.5-7.7,4.6c-2.9,2.7-5.1,6-7.9,9.4C269.9,36.5,275.1,29.9,281.5,25.6L281.5,25.6z M278,18c0.5,1.4,0,4.3-0.8,6.4
			c-0.4,1.1-0.9,2-1.2,2.7c-1.4-1.1-3.4-3-5.5-5.5c-0.8-0.9-1-1.3-1.4-1.8c-1.4-1.6-4-3.5-9.2-4.4C269.6,13.4,277,14.9,278,18
			L278,18z M253.5,24.2c2-1.4,6-4.2,11-3.2c3.2,0.7,7.8,3.1,8.5,7.6c0.5,2.9-0.9,5.3-1.5,6.1c-8.2-3.4-16.7-2.7-25.3-0.4
			C246.8,32.4,248.6,27.6,253.5,24.2L253.5,24.2z M238,53.9c1-12.1,15.6-17.7,21.2-18.3c1.3-0.1,3.8-0.2,4,0.4
			c0.1,0.7-3.1,1.7-2.9,2.6c0.1,0.5,1.1,0.3,1.4,0.8c0.7,1.4-7.2,4.7-10.6,12c-0.6,1.4-1.9,4-1.6,7.3c0.4,4.2,2.9,7.1,2.4,7.4
			c-0.4,0.3-2.6-1.3-4-3.7c-3-5.6,0.6-12.2-0.1-12.5c-0.7-0.2-4.6,4.9-4.6,11.4c0,5,2.3,8.4,2,8.5C244.6,70.1,237.3,62.9,238,53.9
			L238,53.9z M246.8,96.1c-3.6-1-5.6-2.8-6.2-3.3c-1-1-3.3-3.2-3.8-6.7c-0.1-1-0.7-5,1.2-6.2c2.4-1.5,6,3.1,16.3,8.6
			c6.2,3.3,8.7,3.7,8.6,4.9C262.9,95.8,254.1,98.2,246.8,96.1L246.8,96.1z M249.9,148.9c2.6-1.9,3.6-3.3,4.3-5
			c1.1-2.6,0.5-4.4,0.9-8.7c0,0,0.4-3.3,1.4-7.3c1.8-6.8,6.4-14.9,10.8-15.1c0.3,0,1-0.1,1.3,0.4c0.6,0.9-1.6,2.6-2.7,6.2
			c-0.3,0.9-0.7,2.4-0.3,2.7c0.6,0.3,2.9-1.4,3.9-3.9c1-2.4-0.1-3.3,0.9-5.2c0.3-0.6,0.7-1.1,3.9-3.6c1.5-1.2,2.7-2.1,3.4-2.7
			c-3.1,13-6.3,16.7-7.8,17.9c-0.1,0.1-1.6,2-4.2,3.4c-5.5,3-8,8.1-8.6,13.9c-0.5,5.3-2.6,8.8-7.4,11.4c-5.8,3.2-5.9,8.4-7.8,8
			c-1.1-0.2-2-1.8-2-3.3C240.1,155.4,242.9,154,249.9,148.9L249.9,148.9z M234.7,173.3c1.9-1.2,4.4-1.2,6.4,0.1
			c-0.6,1.3-1.3,2.6-1.9,3.9c-2.3,0.1-4.6,0.2-7,0.3C232.2,177.3,232.4,174.8,234.7,173.3L234.7,173.3z M73.7,253.4
			c-0.1-0.3-0.3-0.6-0.4-0.9c2.3-1.6,4.4-3.6,6.9-4.7c9.8-4,19.7-7.9,29.7-11.4c3.6-1.3,7.1-1.2,9.9,3.1
			c18.7,28.9,37.6,57.7,56.4,86.5c3.3,5,6.7,10,9.7,15.1c0.7,1.2,0,3.1,0,4.7c-1.4-0.5-3.4-0.5-4.1-1.4
			c-5.4-7.2-10.7-14.4-15.7-21.9c-16.6-24.7-33.1-49.5-49.6-74.4c-1.8-2.8-3.4-4.2-7.2-3.2c-9.6,2.6-19.4,4.5-29.1,6.8
			C78.1,252.3,75.9,252.9,73.7,253.4L73.7,253.4z M149.9,388.3c-6.9-3.7-13.3-8.2-20.3-11.7c-4.8-2.4-10.1-4.2-15.4-5.1
			c-5.6-1-9.7-3-13-8c-3.4-5.2-8.3-9.5-12.1-14.5c-2.2-3-4.1-6.5-5.2-10.1c-1.2-3.9-1.4-8-4.6-11.2c-1-1-1.2-3.8-0.6-5.1
			c3.6-6.8,2.3-13.9,2-21c-0.1-2.2-1.9-5.6,2-6c3.8-0.4,4,3.1,3.9,5.6c-0.1,4.7-0.7,9.4-1.1,14c3.4-3.2,6.4-5.7,8.7-7.6
			c6-4.7,8.6-5.8,10.7-5.1c0.4,0.1,1.2,0.4,1.5,1.1c0.4,0.8,0.5,2.4-3.9,7.2c-5,5.5-9.3,8-13.1,13.8c-0.7,1.1-1.4,2.3-1,2.7
			c0.6,0.6,3.2-0.9,6.9-2.9c7.6-4.1,6.5-2.9,16.3-8.3c1.7-0.9,4.1-2.3,7.1-4c1.6-1.7,4-1.4,4.8-0.2c0.7,0.9,0.5,2.5-0.6,3.8
			c-1.9,2.2-3.6,3.8-4.6,4.6c-6.4,5.6-19.3,13.7-22,17c-0.2,0.3-0.8,1-0.6,1.4c0.3,0.5,1.8,0,2.3-0.1c4.6-1.4,18.8-9.9,24.8-12.9
			c1.3-0.7,3.9-1.9,5.4-0.8c0.7,0.5,1.1,1.3,1.2,2.2c0.1,2-2.4,3.6-3.9,4.6c-2.9,1.9-18.1,11.4-20.7,13c-0.9,0.6-2.4,1.6-2.2,2
			c0.2,0.6,3.1,0,5-0.5c2-0.5,5.9-1.6,9.6-4.9c2.8-2.5,3.8-4.9,6.5-5.1c0.5,0,1.4-0.1,1.8,0.4c1.3,1.6-3.1,7.3-5.5,10
			c-2.2,2.5-5.9,5.9-11.7,8.9c0.5,0.6,3.3,3.5,7.6,3.5c2,0,3.6-0.6,4.5-1.1c-0.4,2.8-0.7,4.9-0.9,6.7c-0.1,0.6-0.2,1.5,0,1.6
			c0.3,0.1,1-1.1,2.7-3.9c1.8-2.9,2.2-3.5,2.6-3.4c0.5,0.1,0.3,1.4,1.4,4.4c0.1,0.1,0.1,0.3,0.1,0.3c0.3,0.5,0.6,0.7,0.8,0.7
			c0.5-0.1,0.7-2,0.5-5.5c11.7,0.4,23.4,0.8,35.1,1.3c0.1-0.4,0.2-0.7,0.3-1.1c-3.1-1.1-6.2-2.2-9.4-3.3c0-0.3,0-0.6-0.1-0.9
			c1.8-0.3,3.5-0.6,5.3-0.9c9.5-1.6,18.9-3.8,28.5-4.7c3.7-0.4,7.8,1.7,11.6,3.2c1.9,0.7,3.4,2.5,5,3.8c0.4-0.4,0.8-0.8,1.2-1.2
			c-2.5-2.5-5.2-5-7.5-7.7c-1.6-1.9-3.4-4-3.9-6.2c-3.7-15.5,0.4-30.5,3.4-45.5c2.8-13.9,4-27.4,1.3-41.5c-2.7-14-0.4-27.9,5.1-41.2
			c5.3-13,14.4-21.2,29.8-22.6c1,21.5,2,42.7,2.9,62.2c3-18.3,0.5-38.2-0.1-58.2c-0.1-4.1,0.4-8.3,0.6-12.5c0.7,0,1.3,0,2-0.1
			c5.2,22.3,10.4,44.6,15.6,67c0-2.9-0.1-5.7-0.1-8.5c0.4-0.2,0.7-0.3,1-0.5c1.9,2.9,3.6,5.8,5.5,8.6c2.5,3.6,5.1,7.2,7.7,10.8
			c-13.8-24.2-21.7-50.4-27.7-77.3c0.6-0.2,1.1-0.4,1.7-0.6c3.1,7.8,6.2,15.7,9.2,23.5c-2.2-6.8-4.5-13.5-6.4-20.4
			c-0.5-1.8,0.3-4,0.5-6c1.5,1.5,3.8,2.7,4.4,4.5c4,10.3,7.6,20.8,12.5,30.8c-1-2.8-2.1-5.6-3.1-8.5c0.3-0.2,0.6-0.5,0.9-0.8
			c0.9,0.9,1.9,1.7,2.6,2.7c8.9,11.9,19.9,21.3,32.9,28.6c8.4,4.7,16.2,5.5,25.6,1.9c4-1.5,7-3.2,12.8-6.7c7-4.3,10.7-6.5,14.7-10.8
			c2.1-2.2,4-4.6,6-7.1c3-3.9,5.1-6.8,5.6-7.6c2.8-4,9-12.4,23.9-31.7c-0.3-0.6-1.4-2.7-0.3-3.6c1.6-1.3,3.8-1.8,5.8-2.6
			c0.3,0.4,0.6,0.8,0.9,1.2c-0.9,1.4-1.9,2.8-3.3,4.9c1.2,1.2,2.6,2.6,4,4c0,0,0,0,0,0c1.6,23.4,3.2,46.8,4.7,70.2
			c0.5-4,1.1-8,1.7-12c2.1,14.3,5.1,28.4,6,42.8c1.2,18.1-9.9,29.3-24.8,37.2c-8.5,4.5-17.4,7.7-27.5,4.2
			c15.6-2.5,28.3-9.2,36.8-23.5c-6,4.9-11.2,10-17.1,13.9c-6.1,4.1-13.2,6.2-20.7,6.1c2.1-1.2,5.7-3.6,8.5-8
			c1.4-2.2,2.1-4.2,2.6-5.9c-2.5,2.5-6.6,6-12.5,8.7c-4.5,2-8.5,2.9-11.5,3.4c2.9-3.2,5.9-6.6,9-10.3c3.7-4.5,7-8.8,10-13
			c-4.1,4.4-9.7,9.4-17.1,13.8c-2.5,1.5-4.9,2.7-7.2,3.7c-0.4-0.3-0.8-0.5-1.2-0.8c19.4-38.5,40.4-76.3,53.8-117.6
			c-0.1,8.2,0.2,14.8,0.5,19.3c0.4,5.1,0.7,6.9,0.8,11.4c0.1,5.6-0.4,8.3-0.8,15c-0.3,5.1-0.6,10.3-0.5,15.4
			c4.9-22.8,4.3-45.8,2.7-69.8c-3.1,6.3-6.8,11.8-8.7,17.8c-11.7,37.7-30.7,71.9-49.7,106.1c-2.8,5-6.3,6.9-11.4,7
			c-3.1,0.1-6.2,0-10.4,0c3.2-2.6,4.5-6,9.3-4.7c11.5-16.6,25-33.1,33-53.3c-0.8,1.1-1.5,2.2-2.2,3.2
			c-11.9,15.4-23.2,31.3-35.8,46.1c-7.6,9-18.1,14.6-30.4,15.7c-1.1,0.1-2.4-0.9-3.5-1.5c-10.7-5.6-21.4-11.2-31.8-16.7
			c3.3,3.6,7.1,7.7,11.3,12.2c-2-0.5-3.7-0.9-5.4-1.3c-0.1,0.2-0.1,0.5-0.2,0.7c3.8,1.5,7.5,3,11.5,4.6
			c-12.5,4.8-34.3-8.2-36.8-26.4c-1.5-11.3,0.7-22,4.4-32.4c2.5-7.1,2.6-13.8,1.5-21.6c-4.2,6.8-10.8,12.2-5.2,21.1
			c0.8,1.3,0.1,4-0.5,5.7c-6.3,16.1-5.5,31.7,2.9,46.8c5.9,10.6,5,20.9,0.6,31.7c-3.5,8.6-6.6,17.4-9.3,26.3
			c-3.5,11.7-11,19.1-22.3,23C181.8,397.2,165.6,396.6,149.9,388.3L149.9,388.3z M134.4,521c-0.3-0.3-0.6-0.7-0.9-1.1
			c2.6-2.5,5.3-5,7.9-7.4c0.4,0.5,0.8,0.9,1.2,1.4C139.9,516.2,137.2,518.6,134.4,521z M138.3,528.6c-4.9,3.1-15.6,3.6-20.1,0H138.3
			z M92,488c-11.4,0-22.7,0.3-33.9-0.2c-2.2-0.1-4.2-3.3-6.7-5.4C65.7,477.5,83.9,480.1,92,488z M51.2,505.6c-1.4-3-3.5-5.6-5.5-8.3
			c-0.6-0.8,3.9-4.5-2.9-1.7l1.3-2.2c3.4-0.3,6.8-1,10.2-0.9c6.5,0.1,12.9,1,19.4,1.1c19.6,0.1,39.3,0,58.9,0c0-0.3,0-0.6,0-0.9
			l-85-1.7c0-0.3,0-0.5,0-0.8h90c0.1,0-1.1,0.2-2.6,0.5c0.9,4.5,8.7,2.4,7.4,9c-2.4-1-4.4-1.9-6.5-2.8c-2.8,19.8-19,26.5-34.8,27.3
			c-7.3,0.4-14.7,0.3-22-0.2C66.6,523.2,56.9,517.4,51.2,505.6L51.2,505.6z M101,535.5c3.1,0,6.3-0.1,9.4,0.1
			c1.8,0.2,3.7,0.9,5.5,1.4c-0.1,0.5-0.1,0.9-0.2,1.4H61.9c-0.2-0.4-0.4-0.7-0.6-1.1c1.3-0.7,2.5-1.9,3.8-1.9
			C77.1,535.4,89,535.5,101,535.5L101,535.5z M74.8,533.8c4.2-7.6,10.8-6.7,16.6-6.5c5.8,0.2,13-2.3,16.7,6.5H74.8L74.8,533.8z
			 M33.7,555.4c-3.8,0-7.7,0.3-11.3,1.4c-4.8,1.5-7,10.4-3.3,13.4c5.8,4.8,11.7,9.8,20.1,5.4c0.4-0.2,0.9,0.1,1.4,0.1
			c0.5,5.3-1.4,8-6.2,8.8c-7,1.2-14.3-2.7-17.8-9.3c-4.6-8.8-3.2-21.4,4-28.2c2.6-2.5,6.9-4.3,10.6-4.5c12-0.6,24-0.2,35.9-0.3
			c17.1-0.2,34.3-0.5,51.4-0.7c2.3,0,4.6,0,6.8,0c0,4.3,0.3,7.6-0.2,10.8c-0.2,1.3-1.8,3-3.2,3.4c-2,0.6-4.3,0.4-6.4,0.4
			C88.3,555.9,61,555.6,33.7,555.4L33.7,555.4z M134.6,731.2c-2.1-1-4-2.4-6-3.5c-4.4-2.5-5.3-6.7-4.8-11.2c0.4-3.3,2.6-4,5.6-2.4
			c1.3,0.7,3.6,1.1,4.8,0.5c5.2-2.8,10.1-6.1,15.4-9.4c3.8,20,7.6,40.4,11.4,61c-5.9-4.4-12.2-8.3-17.2-13.4
			c-2.3-2.4-3.1-7.3-2.9-11C141.2,736.4,139,733.4,134.6,731.2L134.6,731.2z M53.1,584c-2,0-3.9-1.4-5.8-2.1
			c0.3-0.6,0.5-1.2,0.8-1.8h62.3c0.2,0.6,0.4,1.3,0.6,1.9c-1.7,0.8-3.3,2.2-4.9,2.2C88.3,584.3,70.7,584.3,53.1,584L53.1,584z
			 M110.7,682.9c-0.7,21.7-1.4,43.3-2.2,65l-1.9,0c0.7-21.7,1.3-43.3,2-65C109.3,682.9,110,682.9,110.7,682.9L110.7,682.9z
			 M62.8,595.2c-2,0-3.9-0.2-5.8-0.3c-1.5-7.8-0.9-8.6,6.3-8.6c14.8,0,29.6,0,44.7,0c-1.2,9-1.2,9-9.3,9
			C86.7,595.2,74.8,595.2,62.8,595.2L62.8,595.2z M63.4,881.9c0.7-0.5,1.4-1.3,2.2-1.5c1.6-0.3,3.3-0.4,5-0.4
			c34.8-0.1,69.6-0.3,104.3-0.4c2.5,0,5.1-0.1,7.4,0.6c2.3,0.6,4.4,2.1,6.7,3.2c-0.2,0.6-0.4,1.2-0.6,1.8c-1.4,0.1-2.9,0.3-4.3,0.3
			c-37.4-0.1-74.9-0.2-112.3-0.4c-2.1,0-4.3-0.2-6.4-0.8C64.5,884.1,64,882.7,63.4,881.9L63.4,881.9z M70.1,890.6
			c-1.2,0-2.4-1.2-3.6-1.8c0.2-0.6,0.3-1.1,0.5-1.7c22.3,0,44.6,0,66.8,0c17.8,0,35.6-0.1,53.4,0c1.4,0,2.8,0.8,4,2.5
			C150.7,891.4,110.4,891.1,70.1,890.6L70.1,890.6z M200.8,851.2c-0.1,1.2-1.6,2.8-2.9,3.4c-1.9,0.9-4.1,1.3-6.3,1.5
			c-8.7,0.5-17.4,1.3-26.1,1.3c-35.8,0-71.7-0.1-107.5-0.5c-5.4-0.1-11-1.2-16-3c-7.8-2.9-12-10.7-11.4-18.8
			c0.4-4.5,2.3-6.3,6.8-6.4c-1.2,8.6,3.1,14.2,12.1,14.3c16.8,0.3,33.7,0.1,50.5,0c23-0.1,46,0.4,69-0.8c7.2-0.4,14.6-1.8,21.9-1.5
			C197.1,840.9,201.3,845.1,200.8,851.2L200.8,851.2z M245.5,783.8c-14.4-22-29-44-39-68.5c-0.3-0.8-0.8-1.4-2.1-1.9
			c0.6,2,1.1,4,1.9,6c10.2,24.6,20.1,49.3,30.8,73.7c7,15.8,14.9,31.2,22.9,46.6c2.5,4.8,6.1,9.2,9.7,13.2c5.3,5.9,9.4,6.2,16.4,2.2
			c2-1.1,3.9-2.3,5.8-3.5c0.5,0.2,1,0.4,1.4,0.6c-0.5,2.8-0.3,5.8-1.5,8.2c-3,5.8-7.8,9.9-14,12.2c-7.5,2.8-13.8,1.3-18.5-5.5
			c-4.7-6.6-9-13.7-12.7-20.9c-5.5-10.8-10.4-22-16-32.8c1.3,3.4,2.4,6.8,3.9,10.2c6.7,15.8,13.3,31.6,20.4,47.2
			c1.8,4,4.8,7.7,7.8,10.9c6.4,6.8,13.9,7.2,21.4,1.6c2.1-1.6,4.1-3.3,6.2-5l1.5,0.5c-1.5,5.4-2.4,11.1-4.9,16
			c-1.3,2.6-5.3,4.6-8.4,5.3c-6.9,1.6-13.2-0.9-18.9-4.6c-16.5-10.9-28.6-25.6-35.5-44c-20-53.5-38.8-107.4-51.7-163.3
			c-7.1-31-13.3-62.2-18-93.7c-0.4-2.8-1.1-5.5-2.4-8.1c0,8.7-0.4,17.4,0.1,26.1c1.9,38.3,10,75.6,17.8,112.9
			c6.4,30.9,14.1,61.3,23.8,91.3c0.3,0.9,0.4,1.9,0.8,3.7c-11.7-5.2-20.7-11.9-22.6-24.6c-7.7-53.3-15.3-106.5-22.5-159.9
			c-2.3-17.2-3.1-34.4-0.3-51.8c1.3-8,0.1-16.3,0.5-24.5c0.9-17.8,17.1-32.8,34.3-31.1c4.9,0.5,10.1,3.3,14.1,6.4
			c9.3,7.3,13.7,18.2,18.8,28.5c5.6,11.5,11.8,22.7,17.5,34.1c0.7,1.3,0.6,3.8-0.2,4.8c-0.9,1-3.7,1.5-4.6,0.8
			c-3.5-2.5-7-5.2-9.6-8.5c-6.6-8.4-12.7-17.1-19-25.7c-2.4-3.2-4.8-6.4-7.7-9.2c4.2,7.2,8.6,14.3,12.7,21.5
			c8.2,14.3,16.4,28.6,24.5,43c0.6,1,1.2,2.1,1.5,3.2c3.8,13.1,2.1,26.3,2.1,39.5c-0.5,0.1-1,0.3-1.5,0.4
			c-14.1-31.1-28.1-62.2-42.2-93.3l-0.9,0.3c3.1,8.2,6.4,16.3,9.3,24.6c14.1,39.5,27.7,79.2,42.2,118.6c5.3,14.3,12.1,28.1,18.6,42
			c5.9,12.6,14.8,22.9,25.3,31.9c1.7,1.5,3.6,2.7,5.9,3.7c-27.1-37.7-43.8-79.6-48.4-125.5c-2.4-24-0.4-48.5-0.4-72.8
			c0.5,0,1.1,0,1.6,0c0.6,9.9,1.6,19.8,1.8,29.8c0.6,39.5,7.9,77.5,24,113.6c2.1,4.8,4.9,9.6,8.4,13.5c9.2,10.4,19,20.4,28.5,30.5
			l1.4-1.2c-3.4-4.6-6.6-9.2-10.1-13.7c-25.4-32.1-37.5-69.4-42.8-109.4c-1.1-8.4-1.1-17-2.4-25.4c-1.7-10.8-3.6-21.7-6.4-32.3
			c-5.3-20,0-36.1,15.8-49.1c1.3-1,2.4-2.2,3.3-4c-0.9,0.4-1.8,0.7-2.6,1.2c-0.9,0.5-1.6,1.1-3.2,0.9c2.3-2.5,4.5-4.9,6.8-7.4
			c7.6-8.3,15.3-16.6,23-24.9c12.8-14,27.6-23.4,47.7-21.2c28.4,3.1,43.9,37.9,27.3,61.2c-4.1,5.7-10,8.7-16.4,10.9
			c-2.5,0.8-5,1.5-7.4,2.3c0.2,0.5,0.4,1.1,0.6,1.6c6.8-2.6,13.6-5.2,20.1-7.6c-3.1,4.3-6.6,9.3-10.1,14.3c0.4,0.5,0.9,1,1.3,1.6
			c5-2,9.9-4,14.7-5.9c-0.1,5.2-5.9,10.8-12.7,10.6c-4.8-0.2-9.8-1.7-14.1-3.8c-8-4-15.5-8.9-23.9-13.8c5.7,7.3,11.1,14.1,16.4,20.9
			c1,1.3,2.3,2.5,3.1,3.9c6,9.9,14.2,15.2,26.2,13c1-0.2,2.1,0.1,3.4,0.2c-4.4,6.5-13,9.5-19.9,5.9c-4.7-2.5-8.7-6.5-12.4-10.5
			c-4.4-4.7-8-10.2-11.9-15.3c-0.4,0.2-0.7,0.5-1.1,0.7c6.3,10.4,12.4,20.9,19.1,31c3.1,4.8,8.4,5.2,13.5,3.4c3-1,5.7-2.7,8.5-4
			c-2,11.4-15.2,16.2-24,8.3c-3.7-3.3-6.3-8-9.1-12.4c-2.1-3.3-3.7-7-6.1-10.4c0.3,2.1,0.6,4.3,0.8,6.4c-0.4,0.2-0.9,0.4-1.3,0.7
			c-4.9-7.4-9.9-14.8-14.8-22.2l-1.2,0.7l5.3,10.9c-0.4,0.3-0.7,0.6-1.1,0.9c-2.7-2.5-5.4-4.9-8.1-7.3c-0.2,0.2-0.4,0.3-0.6,0.5
			c1.9,2.2,3.6,4.5,5.7,6.5c3.1,3.1,6.8,5.6,9.4,9c2.6,3.5,5.3,7.5,6,11.6c1.7,9.3,4.3,18.1,9.4,26.2c4.2,6.6,4.4,13.3,0.6,20.7
			c-2.2-7.9-4.2-15.3-6.5-22.7c-2.7-8.5-5.3-17.1-8.6-25.4c-1.1-2.7-3.6-5.1-6-7c-6.5-5.2-13.2-10-19.8-15c0.1,0.3,0.3,1.1,0.7,1.7
			c9.6,15.4,19.2,30.8,28.9,46.2c6.2,9.8,8.8,20.6,6.5,28.6c-5.6-24.3-22.9-39.7-40.5-54.9c1.6,2.2,3,4.6,4.9,6.6
			c4.6,5,9.4,9.9,14.2,14.8c19,19.1,24.9,42.5,22.3,68.7c-3.3-16.7-10.4-31.5-20.8-44.9c2.6,5.4,5.2,10.8,7.8,16.2
			c5.3,11.2,7.9,22.8,7.7,35.3c-0.3,21,0.1,42,0.2,63c0,0.8,0,1.6,0,4.1c-3.7-4.6-6.5-8-9.4-11.5c-0.3,0.2-0.6,0.4-0.9,0.6
			c2.8,4.3,5.6,8.7,8.6,12.9c0.4,0.6,1.8,0.8,2.7,0.8c5.5-0.1,6.4,3.2,5.5,7.6c-0.6,3-1.7,6-2.8,10.1c-5.5-2.6-10.4-4.9-15.2-7.1
			l-0.5,0.7c3,2,6.1,4,9.1,6c3.1,2,6.1,4,9.2,5.9c3.4,2.1,6.5,4.2,5.8,9.3c-1.7-0.8-3.3-1.5-4.9-2.2c3.1,3.6,6,7.1,9,10.6
			c-0.3,0.2-0.6,0.5-0.9,0.7c-14.7-6.2-29.8-11.8-44.1-18.7c-12.8-6.2-22.2-16.7-31.6-27.2c-31.5-35.2-50.6-76.8-63.9-121.5
			c-4.9-16.3-9.4-32.7-14-49c-0.4-1.5-0.9-3-1.3-4.5c-0.4,0.1-0.8,0.2-1.2,0.3c4.2,16.8,8,33.6,12.6,50.2
			c11.2,41,29.7,78.7,52.3,114.6c13.8,22,32.8,36.2,57.2,44.1c12,3.9,24.3,7.4,34.4,15.6c1.4,1.1,2.2,3,3.2,4.5
			c-0.4,0.4-0.7,0.8-1,1.1c-2.6-0.9-5.1-1.8-7.8-2.6c-10.2-3-20.5-5.8-30.7-8.9C278.2,819.3,259.2,804.9,245.5,783.8L245.5,783.8z
			 M277.3,840.2c-13.5-4.1-21.7-13.8-27.4-26.1C259.1,822.8,270.5,829,277.3,840.2z M197.7,530.5c18.9,8,31.6,23.5,45.6,37.5
			c-3.9,7.7-6.7,8.5-12.3,2.6c-5.8-6.2-10.8-13-16.1-19.6C209.2,544.2,203.4,537.4,197.7,530.5L197.7,530.5z M331.7,751.7
			c1-12.2,2.9-23.5,8.5-35.3C342.5,726.6,337.4,747,331.7,751.7z M349.2,882.4c-0.6,1.7-1.6,1.9-3.2,4.9c-1.6,3.2-1,3.7-2.4,5.4
			c-1.5,1.9-2.9,2-3.9,4c-0.6,1.1-0.7,2.2-0.8,3c-0.7,0.7-1.8,1.5-3.3,2.4c-1.1,0.6-1.5,0.7-3,1.3c-2.5,1.1-2.7,1.5-5.4,2.8
			c-3.4,1.6-4.3,1.5-4.7,1.2c-0.4-0.4-0.1-0.9-0.4-1.1c-0.6-0.3-1.6,1.7-3.4,2.2c-1.1,0.3-2.1,0-3-0.3c-0.7-0.6-1.8-1.6-2.7-3.1
			c-1-1.5-1.4-2.8-1.7-4c-0.4-1.5-0.5-3.1-0.8-4.6c-0.6-2.3-1.3-5.8-1.6-5.7c-0.4,0-0.2,3.9-0.2,4.3c0.3,5.5,1.5,7,0.3,8.7
			c-0.9,1.3-2.7,2-4.1,1.8c-2-0.2-3.2-1.9-3.7-2.7c-3.8-5.3-2.4-17.4-2.3-18.5c1.6-14.2,1.7-28.5,2.7-42.8c0.1-2.2,0.5-6.4,3.3-8.3
			c2.1-1.5,5.2-1.3,10.1,0c2.4,0.6,4.8,1.6,7.2,1.9c12.2,1.4,16,9.9,18.3,20.3c1.4,6.1,4.2,11.9,6.2,17.8
			C347.8,876.2,350.3,879.2,349.2,882.4L349.2,882.4z M337.2,748.8c3.3-10.6,6.3-20.3,9.3-30.1c0.7,10.5,3.9,15.2,9.6,14.2
			C351.7,740.4,345.8,745.2,337.2,748.8L337.2,748.8z M359,725.8l-1.8,0.4c-0.9-3.6-2.6-7.2-2.5-10.8c0.4-14.5,1.2-28.9,2.3-43.4
			c0.5-6.1,1.8-12.2,3-18.2c0.4-2.2,1.7-4.1,3.3-6c2.3,14.9,2.2,29.6-1.5,44.2c5-4.3,8.4-9.3,8.7-16.3c1.7-37.3,3.8-74.5,5-111.8
			c0.4-11.4-0.6-23.1-2.9-34.2c-7.1-35.2-44.2-42.3-67.3-28.5c-13.1,7.9-22.7,19.4-33.5,29.8c-5,4.8-10.6,9.1-16.1,13.4
			c-5.6,4.4-11.7,4.5-17.9,1.5c-10-4.9-20.4-9.3-29.8-15.2c-27.9-17.1-52.6-2.4-64.7,20.7c-9.9,18.9-13.4,38.3-9,59.8
			c5.6,27.2,8.6,54.9,12.8,82.4c0.5,3.3-0.8,5.5-3.4,7c-6.5,3.7-13,7.2-19,10.6c0-11.6-0.4-23,0.1-34.4c1.3-30.8,2.4-61.6,4.7-92.3
			c0.9-12.3,4-24.6,7.8-36.4c5.7-17.9,19.9-28.9,35.8-37.2c6.3-3.3,13.9-4,17.7-5.1h-17.4c9.3-10.7,30-14.9,43.2-8.2
			c6.2,3.1,12.3,6.7,17.9,10.9c10.9,8.1,21.9,14.4,35.9,6.9c-0.7,11.5-14.9,23.7-29.5,24.6c10,2.9,23.3-2.5,29.1-12.1
			c6.8-11.3,15.3-21,26.6-28c11-6.8,22.9-10.7,35.9-10.6c16.5,0.1,29.1,7,37.7,21.2c9,14.9,10.9,31.3,10.8,48.1
			c-0.1,21.8-0.9,43.6-1.1,65.5c-0.1,6.2,0.7,12.5,1.1,18.7c0.7,0,1.4,0,2.1,0v-13.3c0.4,0,0.9,0,1.3,0c0.4,0.7,1.2,1.3,1.3,2
			c1.2,10,2.8,20,3,30c0.1,3.1-3.3,7-6.1,9.2c-14.9,11.8-18.3,29.2-23.2,46C358.8,719.5,359.2,722.7,359,725.8L359,725.8z
			 M481.9,892.4c-35.8-0.3-71.6-0.5-107.4-0.8c-1.4,0-2.9-0.3-4.3-0.5c-0.1-0.6-0.3-1.2-0.4-1.8c1.7-0.6,3.5-1.8,5.2-1.8
			c18.8-0.1,37.6,0,56.4,0c16.8,0,33.6,0.2,50.4,0.2c1.3,0,2.6,0.2,3.9,0.3C486.2,891.2,485,892.4,481.9,892.4L481.9,892.4z
			 M368.8,843.5c38-1.5,75.9,1.2,113.8,0.9v13.9c-2.6,0.1-4.9,0.3-7.2,0.3c-29.3-0.2-58.5-0.3-87.8-0.5c-2.7,0-5.3-0.1-8-0.4
			C372.1,856.6,368.8,852.5,368.8,843.5L368.8,843.5z M373.3,885.4c14.9-8.2,30.8-4.9,46.2-5.2c19.8-0.5,39.6,0,59.4,0
			c3.5,0,6.7,0.3,7.7,5.3H373.3L373.3,885.4z M522.9,869.7c-8.5,3.4-17.1,6.4-25.6,9.7c-1.4,0.5-2.5,1.7-3.8,2.7
			c-1.2,0.9-2.3,1.9-4.3,3.5c-0.9-3.6-1.5-5.8-2.1-8.6c13.6-4.5,26.9-9,40.1-13.5c0.3,0.5,0.7,1,1,1.5
			C526.4,866.5,524.9,868.8,522.9,869.7L522.9,869.7z M537.3,832.5c1.6,0,4.2,1.5,4.5,2.8c0.4,1.7-0.7,4-1.8,5.6
			c-0.7,1.1-2.5,1.6-3.9,2.1c-15.7,5.1-31.4,10.1-47.1,15.2c-0.8,0.2-1.6,0.3-2.5,0.4c-0.3-0.8-0.5-0.9-0.5-1
			c-0.5-12.4-0.5-12.3,11.5-15.6c10-2.7,19.9-5.7,29.8-8.3C530.6,832.9,534,832.4,537.3,832.5L537.3,832.5z M522.2,831.2
			c2-0.5,3.9-0.8,5.9-1.3c0.1,0.4,0.2,0.8,0.3,1.3c-1.5,0.5-3,1.1-4.5,1.6c-4.3,1.3-8.7,2.2-13,3.7c-15.4,5.4-31.1,7.1-47.6,6.3
			c-28.6-1.4-57.2-1.3-85.9-1.8c-2.1,0-4.2-0.2-6.3-1.2c8.2,0,16.5,0,24.7,0c29.1,0.1,58.3,1.2,87.4,0
			C496.4,839.2,509.3,834.2,522.2,831.2L522.2,831.2z M519.4,814.2c2.4,7.8,0.9,11.6-6.2,12.8c-14.1,2.3-28.3,5-42.5,5.5
			c-18.6,0.6-37.2-0.4-55.8-1.3c-7.4-0.3-14.2-2.9-20.6-9.7c3-0.4,5.1-1,7.1-0.8c28.2,2.5,56.5,3.2,84.7,1.2
			c8.4-0.6,16.6-3.2,24.8-5C513.8,816.2,516.5,815.1,519.4,814.2L519.4,814.2z M554.7,556.8c-18.1,3.5-36.3,7-54.4,10.4
			c-4.7,0.9-9.4,1.5-14,2.3c-1.3-7.3-0.9-8.1,5.2-9.3c22.3-4.7,44.6-9.4,66.9-14.1c1.9-0.4,3.8-0.5,6-0.8
			C563.9,552.4,560.4,555.7,554.7,556.8L554.7,556.8z M554,521.6c4.6,0.3,9.3,0.5,13.9,1.1c1.3,0.2,2.5,1.6,3.8,2.4
			c-1,1.2-1.8,3.1-2.9,3.4c-12.8,3.2-25.8,6-39.5,9.2C535.4,524.3,540.9,520.8,554,521.6L554,521.6z M574.7,451.3
			c-1.1,1.1-1.4,3-2.1,4.6l0,0.1c-1.1,0.8-2.2,1.6-3.3,2.4c0.1,0.3,0.4,0.8,0.3,0.9c-5.2,7.7-10.5,15.3-16.6,24.1
			c-0.1-2.3-0.2-3.2-0.2-4c-1.6,1.3-3.7,2.4-4.7,4c-3.9,6.3-7.4,12.9-11.2,19.2c-4.6,7.8-9.4,15.5-14.1,23.2
			c-0.4,0.7-0.5,1.5-0.8,2.3c-1.4,2.5-2.8,4.9-3.9,6.8c-13.8-2.5-27.6-5-41.8-7.5c5.2,0.3,10,0.5,14.9,0.8l0.1-0.5
			c-7.8-1.4-15.7-3-23.6-4c-2.2-0.3-4.5,1.8-6.9,2.4c-2.2,0.6-4.5,1.2-6.7,1.1c-5.8-0.3-11.6-1-17.4-1.8h13.9c0-0.2,0-0.4,0-0.6
			c-8.6-0.6-17.3-1.1-26.3-1.7c1.2-4.4,4-4.9,6.9-4.8c9.2,0.3,18.3,0.7,27.5,1.2c13.5,0.8,26.9,1.8,40.4,2.7c8,0.6,16,0.9,22.9,5.8
			c0.5-2.2,0.7-4.7,1.7-6.6c9.6-17.5,19.1-35,29.2-52.1c8.1-13.7,20-24.3,32-34.6c1-0.8,1.9-1.7,2.8-2.5c0,0,0,0,0,0
			c1.3-0.6,2.6-1.3,4.2-2.1c1.3,3.1,0.3,5.1-2.1,7.1C584.6,441.7,579.5,446.4,574.7,451.3L574.7,451.3z M531.4,477.8
			c-2.5,0.8-5,2.1-7.5,2.3c-24.1,2-48.2,2.3-72.2-0.6c-0.3,0-0.5-0.1-0.8-0.1c1.9,1.9,3.8,3,4,4.5c1.8,10.8,4.4,21.1,14.1,29.6
			c-12.8-5.1-20.2-19.9-18.6-34.2c-1.5-0.4-3-1.1-4.6-1.6C474.5,479.4,502.8,478.6,531.4,477.8L531.4,477.8z M447.8,474.8
			c8.8-4.2,73.7-4.5,82.9,0H447.8L447.8,474.8z M497.4,520c-22.8,2.5-37.9-13.3-40.4-37.7H528C528.6,500,513.6,518.2,497.4,520z
			 M590.3,454.3c-0.3,0.2-2.8,1.4-3.6,0.6c-0.9-1,1.3-4,3.6-9.2c0,0,1.6-3.9,3.3-9.3c2.7-9,6.1-18.5-7.1-22.7
			c-1-0.3-1.8-1.4-3.3-2.5c-0.4,2.9-0.8,5.7-1.2,8.6c-0.4-0.2-1-0.4-1.8-0.6c-2-0.4-3.6-0.1-5,0.2c-1.1,0.2-2.7,0.7-4.5,1.6
			c0,0.8,0.2,2.1,0.9,3.5c0.3,0.5,1.2,2.3,3.3,3.5c1,0.6,1.9,0.8,2.9,1c4,0.9,6-0.4,7.8,1.1c0.5,0.4,1.1,0.9,1.1,1.6
			c0,0.6-0.4,2-10.1,5.8c-5.1,2-6.1,2.1-6.9,2.2c-2.7,0.1-5.4-0.7-8.4-2.4c-2.6-1.4-7.5-4.1-10.5-9.1c-2-3.3-2.9-4.9-3.2-6.9
			c-0.1-0.7-0.2-1.9-0.7-2c-0.5-0.1-1.1,0.7-1.4,1.5c-0.5,1.5,0.5,2.8,0.7,3.1c-1.4-0.5-3.7-1.2-6.4-2.2
			c-30.8-11.2-51-26.1-60.9-33.1c-9.8-6.9-18.2-15.2-24-25.7c-2.3-4.2-3-9.3-5-13.7c-0.9-2.1-2.8-4.1-4.7-5.6
			c-17.5-13.7-26.1-32.5-30-53.7c-1.8-10.1-2.1-20.5-2.8-30.8c-0.4-5,2-7.5,7.7-8.2c-1.1-3-1.4-6.4-3.3-8.2
			c-0.9-0.9-4.7,1.3-7.8,2.2c-2.7-18.6-5.5-38-8.3-57c10.8-5.1,25.6,0.2,32.5,11.4c7.2,11.8,11.2,25,10.6,38.6
			c-0.7,16.9,4.1,31.7,11.1,46.5c5.5,11.5,10.2,23.5,15.2,35.4c2.9,6.8,7.1,12.2,13.9,15.7c12.3,6.4,21,16.7,28.6,28
			c11.4,16.9,25.5,31.1,42.6,42.3c4.1,2.7,7.8,3.2,12.1,1.3c5.2-2.2,10.4-4.4,15.7-6.5c4-1.6,7.5-0.4,10.5,2.6
			c2.8,2.9,5.7,5.6,8.5,8.5c3.5,3.8,4.2,11.3,2.1,16c-1.9,4.2-3.5,8.5-4.9,12.9C596.6,448.7,594.3,452.3,590.3,454.3L590.3,454.3z
			 M599.3,447.1c-0.7-0.4,1.2-5.8,2.5-9.5c1-2.8,2.5-6.3,2.6-6.7c1.4-3.4,2-4.6,2.3-5.9c0.1-0.3,0.1-0.6,0.2-1.1
			c0.2-1.2,0.2-2.5-0.3-5.2c-0.4-2.3-0.7-3-0.6-3.1c0.3-0.1,3.4,4.1,4.3,8.4C613,435.4,600.6,447.8,599.3,447.1L599.3,447.1z"/>
		<path class="st1" d="M353.5,119.6c-0.1,0.1-0.1,0.6,0.2,0.9c0.5,0.6,2,0.5,2.8-0.2c0.4-0.4,0.7-0.8,0.6-0.9
			c-0.2-0.2-1.2,1.2-2.4,1C354,120.2,353.7,119.5,353.5,119.6L353.5,119.6z"/>
	</g>
	<path d="M279.1,232.2c3.4,2.3,13.9,9.4,22.7,13.4c2.8,1.3,5.6,1.9,6.5,2.1c3.5,0.9,5.7,1.4,8.5,1c0.6-0.1,1.5-0.2,5.2-1.7
		c3.1-1.2,5.6-2.3,7.4-3.1c-0.6,0.8-1.6,1.8-3,2.9c-6,4.4-13.2,3.5-16.7,3.1c-8.3-1-14.1-4.7-19-7.9
		C285.4,238.6,281.6,234.9,279.1,232.2z"/>
	<path d="M294.5,247c7,1.8,11.2,4.7,13.8,7.1c2.3,2.2,3.3,3.9,5.8,4.6c3.1,0.8,5.8-0.6,10.8-3.3c3.4-1.8,5.6-4,10.3-8.1
		c1.8-1.6,1.2-1.2,4.9-4.5c4.3-3.9,5-4.4,6-5.8c1-1.5,2.3-4,2.7-8c-6.3,11.4-13.8,17.9-18.5,21.3c-6,4.3-10.2,7.4-14.9,6.3
		c-5.7-1.3-7.6-7.7-15.6-9.3C297.6,246.8,295.7,246.9,294.5,247z"/>
	<path d="M313.5,302.4c1.2-1.9,2.6-4.6,2.2-7.7c-0.7-5.6-6.5-7.1-13.9-13.9c-9.5-8.6-14.4-19-14.4-19c0.1,0,6.3,9.2,16.8,19.4
		c6.5,6.3,10.6,9,15.2,8.5c4.2-0.4,6.8-3.8,7.2-3.4C327,286.8,324.9,289.9,313.5,302.4L313.5,302.4z"/>
	<path d="M259.7,219.7c0.2-0.1,6.4,17.5,17.3,40.7c0,0,9,19.1,27.5,36c1.2,1.1,3.4,2.8,6.4,3.2c3,0.3,5.5-0.8,6.9-1.6
		c-2.3,2.9-4.7,5.7-7,8.6c-10.9-10.3-26.2-27.1-38.2-51.5C263.5,236.5,259.5,219.8,259.7,219.7z"/>
	<path d="M304.3,311.7c-5.9-0.5-13.7-1.7-22.3-4.8c-12.4-4.5-21.3-11.1-26.7-15.9c3.5,4,8.4,8.6,14.8,12.9
		c10.1,6.8,19.8,10.1,26.5,11.7C299.2,314.3,301.7,313,304.3,311.7L304.3,311.7z"/>
	<path d="M241.3,218.7c0.2,6.1,1.1,14.1,4,23.1c2,6.1,4.4,11.3,6.7,15.4C248.4,244.4,244.9,231.5,241.3,218.7L241.3,218.7z"/>
	<path d="M275.9,284.7c1.2,2.8,4.1,8.6,10.4,13.4c5,3.7,9.9,5.1,12.7,5.6c-3.4-1.5-7.8-3.8-12.4-7.5
		C281.6,292.2,278.1,288,275.9,284.7L275.9,284.7z"/>
	<path d="M236.3,245.9c-0.2,1.6-0.5,4-0.7,6.9c-0.2,2.7-0.1,3.3-0.3,4.9c-0.3,4-0.9,5.4-2,11c-0.7,3.5-1.7,9.3-1.4,9.4
		c0.3,0.1,1.8-4.8,2.7-8.8C235.9,263.7,237,255.8,236.3,245.9L236.3,245.9z"/>
	<path d="M372.8,200.8c-2,6.7-5,14.6-9.3,23.1c-3.8,7.4-7.8,13.7-11.5,18.9c3.5-3.6,7.6-8.4,11.4-14.8
		C369.6,217.5,371.9,207.4,372.8,200.8L372.8,200.8z"/>
</g>
</svg>
