<?xml version="1.0" encoding="utf-8"?>
<!-- Generator: Adobe Illustrator 28.3.0, SVG Export Plug-In . SVG Version: 6.00 Build 0)  -->
<svg version="1.1" id="Layer_1" xmlns="http://www.w3.org/2000/svg" xmlns:xlink="http://www.w3.org/1999/xlink" x="0px" y="0px"
	 viewBox="0 0 817.6 855.8" style="enable-background:new 0 0 817.6 855.8;" xml:space="preserve">
<style type="text/css">
	.st0{fill:#FFFFFF;}
</style>
<g>
	<path class="st0" d="M806.5,402.6c0.3-0.8,0.8-2.4,2.2-3.1c0.8-0.4,2-0.4,4.4-0.4c2.2,0,2.8,0.2,3.4-0.3c0.8-0.6,1.2-1.6,1.2-3.2
		c0-9.5-2.8-17.7-10.8-23.6c-4.8-3.5-9-3.1-12.6,1.5c-2.8,3.6-5.1,7.6-7.6,11.4c-0.5,0.1-1,0.2-1.5,0.3c-2.3-9.3-5.3-18.5-6.7-27.9
		c-1-6.6,3.1-11.8,9.1-14.9c1.6-0.9,3.1-1.2,4.5-1.2c3.1,0,4.1,2.4,8.9,4.5c2.3,1,4.7,2.1,5.9,1.1c1.4-1.2,0.4-4.5,0-5.6
		c-1.7-5.6-6-8.8-7.3-9.8c-3.4-2.5-7.5-4-12.2-4.5c-12.3-1.1-22.2,3.1-28.5,14.4c-10-15.3-8.7-11.9-3-24.3
		c6.6-14.4,11.4-15.6,24-6.4c3,2.2,4.6,1.2,5.4-1.9c0.3-1.4,0.3-3,0-4.5c-1.9-8.9-7.8-14.1-16-16.9c-7.7-2.7-14.4-0.8-20.2,4.8
		c-5.5,5.3-9.2,11.6-9.5,19.8c-1.9-4-3-8.1-4.3-12.2c-0.8-2.7,0-6.9-4.1-6.9c-3.9,0-3.7,4-4.3,6.8c0,0.2-0.4,0.4-0.9,0.9
		c-7-10.6-4.7-23-8-34.5c3.4,0,5.7-0.1,8,0c10.6,0.4,19.6-5.1,24-14.8c5.9-13.1,1.4-30.7-10.2-39.1c-5.7-4.1-12.2-5.2-19.1-4
		c-4.9,0.9-5.7,4.1-2.5,7.9c2.9,3.5,6.7,3,10.6,2.9c7.3-0.4,11.2,3.2,11.7,10.5c0.7,9.4-5.6,14.9-15.2,13.2c-4.6-0.8-9-2.5-13.6-3.1
		c-6.7-0.9-12.7,0.9-16.9,6.4c-6.2,8.2-8.6,17.2-4.3,27.2c0.8,1.9,1.7,3.9,2.9,6.7c-3.1-1.8-5.2-3.5-7.6-4.3
		c-8.5-2.8-9-9.4-8.1-16.5c0.5-3.6,1.5-7.3,3.2-10.4c2.8-5.1,6.1-9.9,9.6-14.6c10.5-14.1,15.6-30.1,14.5-47.3
		c-2.3-34.5-20.4-59.3-51.2-74.4c-8.9-4.4-21.3-4.2-21.3-4.2c-1.8-0.2-3.2-0.3-4.2-0.3c-0.2-0.5-0.4-1-0.7-1.5
		c1.7-0.4,4.5-1.3,7.2-3.6c1.2-1,2.2-2.1,2.8-3c-2.7-1.1-6.8-2.4-11.8-2.3c-9.5,0.1-16.4,4.9-19.7,7.8c-0.1-0.9-0.2-2-0.1-3.2
		c0.3-2.5,1.3-4.3,1.9-5.2c-5.9,3.6-10.9,5-14.5,5.6c-0.7,0.1-1.4,0.2-2.1,0.3c0.5-2.8-0.2-5.5-1.8-8.4
		c-9.7-17.4-39.1-26.8-57.7-19.2c-9.6,3.9-19.7,7.7-29.9,9c-15.2,2-28.1-4.2-37.4-16.7c-1.2-1.6-1-4.3-1.5-6.4
		c2.3-0.5,4.5-1,6.8-1.4c0.8-0.1,1.6,0.3,2.4,0.5c9.4,3,19,3.2,28.7,1.5c9.6-1.8,18.8-5,25.2-13c2.5-3,4.6-6.9,1.8-10.5
		c-2.9-3.6-6.4-0.6-9.4,0.9c-1.5,0.7-2.9,1.6-4.4,2.3c-12.6,5.8-25.4,6.5-38.2,0.8c-4.3-1.9-8.5-3.9-12.5-6.3
		c-7.9-4.9-16-8.6-24.3-11.1c-14.7-4.5-37.7-7.5-48.7-3.3c-1.5,0.6-7.1,2.9-9.2,0.7c-0.1-0.1-0.8-0.9-0.8-2c0.2-3.7,9.7-4.8,20.8-12
		c1.7-1.1,4.6-3.1,4.2-4.8c-0.4-1.5-3.4-2.6-4.5-3c-0.8-0.3-1.4-0.4-1.6-0.5c-7-0.7-13.6,1.4-19.3,5.5c-9.6,7.1-20.5,10.9-32,13.4
		c-35.1,7.7-67.4,20.5-88.5,52.2c0.2-1.5,0.6-2.9,1.3-4.1c5.6-10.3,12.9-19.5,21.9-27c12.2-10.2,26.5-16.4,41.4-21.5
		c5.6-1.9,11-4.6,16.2-7.5c2.5-1.4,5.6-3.8,3-7.7c-1.8-2.7-8.4-3.9-10.4-1.5c-6.7,8-16.5,9.6-25.5,12.8
		c-17.5,6.2-32.8,15.5-44.3,30.4c-12.2,15.7-17.1,34.5-22,53.2c-0.7,2.7,0.1,5.8,0.2,8.6c0.2,3.2-0.1,6-3,6.8
		c-2.6-1-4.4-1.8-6.3-2.3c-3.7-1.1-7.5-1.6-11-3c-1.5-0.6-3.2-2.7-3.3-4.1c0-1.2,2.2-2.9,3.7-3.4c1.9-0.6,4.1-0.1,6.2-0.1
		c0-0.2,0-0.4,0.1-0.5c-1.7-0.5-3.4-0.9-5.2-1.4c9.2-0.5,11.3-7.4,12.1-14.4c1.3-10.6-1.5-20.5-7.4-29.4c-1.1-1.6-2.9-2.8-5.2-5
		c-0.8,5.1-1.3,9.1-1.9,13c-2.2,13.8-5.8,26.8-14.5,38.4c-5.5,7.3-8.4,16-8.3,25.7c0.1,8.9-0.6,17.9-1.9,26.8
		c-0.5,3.3-0.3,6.6-2.7,8.7c-2.7,2.3-6.7,1.6-8.6,1.2c-0.8-8.5-1.1-15.9-2.2-23.3c-0.9-6.5-3.2-12.5-8.3-17.2
		c-3.8-3.5-7.8-4-12.4-2.1c-8.4,3.5-14.7,17.4-10.8,26.1c0.8,1.8,2.5,4.4,3.7,4.1c1.2-0.2,0.9-3.1,2.4-6.7c1.7-4.2,5.7-9.1,10.2-9
		c5.4,0.1,6.6,5.2,7.6,9.3c1.9,7.7,3.5,15.6,4.7,23.5c0.2,1.5-1.7,3.5-2.9,5.1c-1.5,2.1-4.1,3.7-4.8,5.9
		c-2.9,8.7-7.9,16.3-13.1,23.6c-6.5,8.9-11.6,18.2-14.2,28.9c-0.4,1.6-1,3.2-1.6,5.4c-6-12.3-6-21.4-4.5-27.8
		c2.6-11.2,11.1-19.6,8.9-21.9c-1.4-1.5-6,0.8-7.1,1.4c-8.3,4.2-13.1,12.5-15.2,19.5c-5.2,17.5-5,35.2-0.6,52.9
		c2.1,8.2,5.1,16.2,7.3,24.4c0.1,0.2,0.3,0.9,0.2,1.8c-0.2,1.7-1.6,3.1-3,3.7c-1.6,0.7-3.2,0.3-4,0.1c-6.6-1.7-10.2-4.4-14.9-5.3
		c-4.5-0.8-9.5,0-9.9,1.6c-0.4,1.9,5.7,4.1,10.4,10.4c1.6,2.1,2.5,3.8,2.2,5.6c-0.4,2.3-2.5,3.8-3.4,4.2c-0.4-0.7-1-1.4-1.6-2.2
		c-1.3-1.5-2.6-2.6-3.7-3.5c-0.5,1.8-1.1,3.5-1.4,5.3c-0.2,1.3,0.1,2.6,0.2,4.8c-4.2-4.9-7.5-9.3-11.4-13.2
		c-9.6-9.6-30-13.2-41.6-7.5c-3.6,1.8-6.6,4.5-5.2,8.6c1.4,3.9,5.2,1.9,7.9,1.1c6.8-2,14.9-1.8,19.1,0.1c1.9,0.8,6.3,3.3,9.3,11.3
		c-1.3-1.4-3.3-3.1-6-4.3c-7.7-3.4-15.1-0.3-16.7,0.4c10.9,4.6,16.9,13.2,20.7,22.8c-6.3,2.6-12.5,5.1-19.7,8.1
		c-0.4-0.6-1.4-2.1-2.7-3.4C45.5,326.2,30.1,323.3,17,329c-7.4,3.2-12.9,8.2-15.4,16c-1.7,5.3-1.9,10.6,1.6,15.3
		c0.2,0.2,0.6,0.6,1,1c1.5,1.3,3.1,2.7,4.1,2.3c0.9-0.4,1-2.1,1.1-4.2c0.1-0.8,0.1-1.3,0-1.4c-0.9-8.1,1.9-13.3,9.6-15.9
		c10.2-3.5,19.4-1.3,27.4,5.9c4.7,4.2,4.5,5.2,0,9.4c-3,2.7-5.8,5.5-8.8,8.3c1.3,0.6,2.8,1.2,4.7,1.6c4.2,0.9,7.7,0.4,9.9-0.1
		c-0.8,1.6-2.2,3.8-4.3,6c-3.5,3.5-7.7,5.5-12.3,7.2c-6.7,2.4-13.7,4.6-19.8,8.1C4.6,395-1,405.2,0.1,418.5c0.1,1.6,0.3,3.9,2,5.4
		c1.1,1,3,1.7,3.9,1c0.9-0.7,0.2-2.2,0.4-4.6c0-0.3,0.5-5.5,4.4-8.4c1.9-1.4,4.4-2.2,7.3-2c6.7,0.3,9.2,2.9,9.1,10.9
		c-0.1,14.2,2.5,27.8,7.7,41c1.3,3.2,2.1,6.7,2.6,10.1c0.9,6.8-0.1,13.4-4.4,19c-3.5,4.5-7.8,5.2-11.4,0.8c-3.3-4-5.7-8.9-7.7-13.7
		c-1.6-3.8-1.8-8.1-2.9-12.1c-1.2-4.2-4.9-5.2-7.3-1.6c-2.1,3.2-3.7,7.3-3.6,11c0.1,15.8,7.6,28.3,20.4,37c14.9,10.2,32.7,1,34.3-17
		c0.2-1.7,0.2-3.5,0.4-6.2c9.4,9.5,20.9,13,32.3,16.5c2.7,0.8,5.4,1.8,7.9,3.1c4.8,2.6,7.6,11.2,5.4,15.8c-1.7,3.8-5.4,4.5-12.3,2.4
		c-6.3-1.9-12.5-1.9-18.6,0.5c-1.3,0.5-3,2.3-2.9,3.5c0.1,1.4,1.5,3.3,2.9,4c1.8,1,4.1,1.1,6.2,1.7c2.9,0.8,6.2,1.1,8.4,2.8
		c14.6,10.5,22.9,24.4,21.4,43c-0.7,8.4-4.8,13.7-11.1,14.8c-9.2,1.6-20.1-2.6-23.4-8.9c-2.2-4.2-0.3-8.2,4.4-8.1
		c2.9,0,6,1.4,8.7,2.8c3.9,1.9,7.2,0.4,7.2-4c0-1.9-0.6-4-1.4-5.7c-3.5-7.3-9.6-10.9-17.5-11.4c-8.2-0.5-14.7,2.4-19,9.6
		c-7.8,13-5.7,37,15,44.6c4.6,1.7,9.3,3.3,13.9,4.9c-2.5,8.6-9.4,12.8-18.6,11.8c-8.2-0.9-13.9-5.8-19-11.8
		c-1.4-1.6-4.7-3.5-5.8-2.9c-2.3,1.3-4.6,4-5.1,6.4c-0.5,2.7,0.5,6,1.8,8.5c4.7,9.8,12.5,16.1,23,18.3c10.4,2.2,20.8,2,30.2-5.7
		c2.1,22.6,7.6,43.6,20.7,62.6c-3.9-1.1-7.6-2.5-10.7-4.7c-6.3-4.3-9.3-11.1-12.4-17.8c-2.1-4.7-3.9-5.2-8.1-2.7
		c-4.7,2.9-6.6,7.4-6.8,12.7c-0.5,12,5.2,21.2,14.2,28.4c14,11.1,29.2,11.4,44.9,4.4c0.4,4.6,0.4,9.2,1.1,13.8
		c4.2,27.1,16,47.6,45.6,52.8c1.9,0.3,4.2,2.6,5.1,4.6c6.6,14,15.9,25,31.3,29.5c9,2.7,18.1,2.8,27.1,0.5c2.6-0.7,4.1-0.2,5.8,2.2
		c9.9,14.7,30.5,19.9,46.1,10.8c6.3-3.7,11.6-6.3,18.3-2c0.6,0.4,1.6,0.3,2.4,0.5c14.6,2.1,28.1-1.8,41.1-7.8c4-1.9,6.3-1.2,9.7,1.3
		c6.8,5,13.8,10.5,21.5,13.3c44.2,15.8,84.4,7.8,120.6-21.8c1.9-1.5,3.7-3.2,5.5-4.7c16.3,12.9,37.5,14.3,55.2,3.6
		c18.8-11.4,25.3-29.1,24.4-49.8c7-1.1,13.4-2.2,19.8-3c1.7-0.2,3.7,0.2,5.2,0.9c9.2,4.2,18.8,5.3,28.8,3.9
		c24.5-3.4,44.7-20.3,49.5-42.5c1-4.4,0.1-9.2,0-13.8c-0.1-2.4-1-4.9-0.6-7.2c2.4-13.6,2.5-27.2-0.3-40.7c-0.7-3.2-1-6.4-1.6-10.2
		c2,0.5,3.1,0.7,4.2,1.1c15.2,4.8,29.2,2.4,42.3-6.5c4.9-3.3,10.3-6,15.3-9.2c1.8-1.2,4.3-3.1,4.3-4.6c0-2-1.9-4.6-3.7-5.8
		c-4.8-3.2-10-2.4-14.7,0.3c-4.6,2.6-8.8,6-13.2,9c-8.9,6-15.8,5.4-23.3-2.2c-1-1-1.6-3-1.4-4.4c0.1-0.8,2-1.6,3.2-2.1
		c3.4-1.2,7.3-1.7,10.3-3.5c10.8-6.2,21.5-12.7,35-12.5c-2.4-6.4-6.4-10.2-12.1-11.1c-6.5-1-13.2-0.9-19.8-1.3
		c-7.3-0.4-14.6-0.2-21.8-1.1c-6.7-0.8-13.2-2.9-16.6-11.1c3.5,1,6.2,1.8,9,2.5c1.5,0.2,36,4.5,54.7-4.1c5.3-2.4,11.7-6.2,15.7-12.7
		c1.3-2.1,2.4-4.5,3.1-7.3c1-3.8,3.7-7.4,6.4-10.5c3.7-4.2,8.8-4.6,13.8-3c3.9,1.2,5.2,4.5,4.6,8.4c-0.2,1.3-0.7,2.3-1.3,2.9
		c-1.2,1.1-2.5,0.8-4.8,1.3c-0.7,0.2-5.2,1.2-5.7,3.2c-0.4,1.8,2.3,4.7,5.3,5.6c5.5,1.5,13-3.3,15.3-9.2c3.6-9.1,2.3-17.8-3.9-25.4
		c-5.9-7.2-14-8.8-22.7-6.5c-4,1-7.9,2.8-11.3,5.1c-5.6,3.8-10.8,8.4-16.1,12.7c-4.3,3.5-8.6,7-13.5,11c2.9-9.6,5.5-18.2,8.2-27.1
		c1.3,0.7,3,1.5,4.5,2.4c4.2,2.8,7.4,2,10-2.3c1.8-3,3.6-6.1,5.8-8.7c6.5-7.7,13.2-15.2,19.8-22.9c0.8,0.9,12.6,13.7,22.2,10.1
		c3.8-1.4,8-5.7,7.2-7.9c-0.4-1-1.7-1-4.2-2.2c-1.4-0.7-6.1-2.7-8.1-6.7c-1.4-2.8-1.4-6.2-0.2-10.5c1.8-6.5,6-10.6,12.9-11.5
		c5-0.6,8.6-3,8.2-8.2c-0.3-3.9-1.8-7.9-3.5-11.6c-1.4-3-3.9-3.2-6.4-0.6c-1.5,1.5-3.4,2.7-5.1,4.1c-0.2-0.6-0.3-1.2-0.4-1.7
		c-0.2-2,0-3.6,0.1-3.9C801.4,459.1,804.7,408,806.5,402.6L806.5,402.6z"/>
	<g>
		<path d="M605.8,102.1c0.6-1.8,1.2-3.5,1.9-5.2c-11,3.6-16,8.6-15.4,16.5c0.2,3.2-0.2,5.8-1.3,7.8c-1.6,3.1-3.6,3.5-8.7,7.4
			c-1.8,1.4-4.3,3.6-7,6.6c0.3,0.4,1.7,1.8,4.1,2c0.4,0,2,0.1,3.6-0.9c1.4-0.9,2-2.2,2.3-2.5c4.8-4.9,10.3-8.9,11.4-16.8
			c0.5-3.7,4.8-6.8,7.4-10.2c0,0,0,0,0.1-0.1C604.7,105.2,605.3,103.7,605.8,102.1L605.8,102.1z M604.1,106.9L604.1,106.9
			L604.1,106.9L604.1,106.9L604.1,106.9z"/>
		<path d="M806.5,402.6c0.3-0.8,0.8-2.4,2.2-3.1c0.8-0.4,2-0.4,4.4-0.4c2.2,0,2.8,0.2,3.4-0.3c0.8-0.6,1.2-1.6,1.2-3.2
			c0-9.5-2.8-17.7-10.8-23.6c-4.8-3.5-9-3.1-12.6,1.5c-2.8,3.6-5.1,7.6-7.6,11.4c-0.5,0.1-1,0.2-1.5,0.3c-2.3-9.3-5.3-18.5-6.7-27.9
			c-1-6.6,3.1-11.8,9.1-14.9c1.6-0.9,3.1-1.2,4.5-1.2c3.1,0,4.1,2.4,8.9,4.5c2.3,1,4.7,2.1,5.9,1.1c1.4-1.2,0.4-4.5,0-5.6
			c-1.7-5.6-6-8.8-7.3-9.8c-3.4-2.5-7.5-4-12.2-4.5c-12.3-1.1-22.2,3.1-28.5,14.4c-10-15.3-8.7-11.9-3-24.3
			c6.6-14.4,11.4-15.6,24-6.4c3,2.2,4.6,1.2,5.4-1.9c0.3-1.4,0.3-3,0-4.5c-1.9-8.9-7.8-14.1-16-16.9c-7.7-2.7-14.4-0.8-20.2,4.8
			c-5.5,5.3-9.2,11.6-9.5,19.8c-1.9-4-3-8.1-4.3-12.2c-0.8-2.7,0-6.9-4.1-6.9c-3.9,0-3.7,4-4.3,6.8c0,0.2-0.4,0.4-0.9,0.9
			c-7-10.6-4.7-23-8-34.5c3.4,0,5.7-0.1,8,0c10.6,0.4,19.6-5.1,24-14.8c5.9-13.1,1.4-30.7-10.2-39.1c-5.7-4.1-12.2-5.2-19.1-4
			c-4.9,0.9-5.7,4.1-2.5,7.9c2.9,3.5,6.7,3,10.6,2.9c7.3-0.4,11.2,3.2,11.7,10.5c0.7,9.4-5.6,14.9-15.2,13.2
			c-4.6-0.8-9-2.5-13.6-3.1c-6.7-0.9-12.7,0.9-16.9,6.4c-6.2,8.2-8.6,17.2-4.3,27.2c0.8,1.9,1.7,3.9,2.9,6.7
			c-3.1-1.8-5.2-3.5-7.6-4.3c-8.5-2.8-9-9.4-8.1-16.5c0.5-3.6,1.5-7.3,3.2-10.4c2.8-5.1,6.1-9.9,9.6-14.6
			c10.5-14.1,15.6-30.1,14.5-47.3c-2.3-34.5-20.4-59.3-51.2-74.4c-8.9-4.4-21.3-4.2-21.3-4.2c-1.8-0.2-3.2-0.3-4.2-0.3
			c-0.2-0.5-0.4-1-0.7-1.5c1.7-0.4,4.5-1.3,7.2-3.6c1.2-1,2.2-2.1,2.8-3c-2.7-1.1-6.8-2.4-11.8-2.3c-11.6,0.2-19.4,7.4-21.4,9.4
			c-1.2,4.6-2.4,9.1-3.6,13.8c4.5-3.8,8.8-7.6,13.2-11.3l1,1.1c-3.3,4.1-6.7,8.2-10.3,12.7c9.2-2.6,17.3-4.9,25.4-7.2l0.6,1.8
			c-8.1,1.7-15.8,4-22.3,10c8.1-1,15.6-1.9,23-2.9c0.1,0.5,0.2,1,0.3,1.4c-5.8,1.9-12,3-16,9c6,0.8,11.9-2.7,18.1,1.9
			c-4.1,0.4-7.2,0.5-10.2,1.2c-2.8,0.7-6.1,1.4-6.8,5.7c3.5-0.2,6.7-0.3,9.9-0.5c-0.9,2.1-1.9,3.4-3.3,4.2
			c-12.9,7.9-21.6,18.9-26.7,33.1c-2.7,7.6-9.5,11.1-16.8,12.8c-1,0.2-4.2,0.1-7-2.1c-4.5-3.6-3.8-10.2-3.8-10.9
			c0.5-0.6,1.2-1.4,1.8-1.3c0.8,0.2,0.3,2.2,1.1,4.3c1.1,2.8,4,4.7,4.6,4.3c0.7-0.5-1.8-3.9-3.2-10.1c-0.6-2.8-0.7-5.1-0.8-6.7
			c0.3,0.9,1.4,4.3,4.8,6.1c1.4,0.8,2.8,1,3.7,1.1c2-1.6,2.6-3,2.8-4.1c0.2-1-0.1-1.4,0.2-2c0.9-1.4,3-0.5,4.6-2.1
			c0.7-0.6,0.3-0.8,1.2-2.2c1.3-1.9,2.2-1.9,3.3-3.5c0.5-0.7,0.8-0.5,1.3-3.5c0.6-3.5,2.1-6.1,7.2-7.3c0.8,2.6,1.3,3.1,1.7,3.1
			c1-0.1,2-4.3,1.3-8.1c-1.7-9.8-5.2-11-13.6-5.9c-4.7,2.9-10.2,4.4-15.2,6.8c-1.7,0.8-3.6,2.3-4.3,4c-1.4,3.5-3.1,5.1-7.3,5
			c-6.6-0.2-8.8,3.1-7.5,9.6c0.5,2.4,0.9,4.8,1.5,8.4c-4.1-2.2-7.3-3.5-10.1-5.5c-4.9-3.6-6.9-10.9-5-16.2c2-5.7,6.7-5.8,11.5-5.7
			c0.3,0,0.6-0.2,1-0.4c1.2-3.1,2.5-6.2,7.1-4.4c-0.3-2-0.5-3.5-0.7-5.3c-1.2,0.5-2.1,0.8-3.3,1.3c-1.1-3.7-0.5-6.2,2.7-8.4
			c1.2-0.8,2.1-3.4,1.8-4.9c-3.4-15.4-16.2-23.3-31.5-19.8c-2.7,0.6-5.3,1.4-8.6,2.3c12-13.1,42.5-13.3,51.1-0.6
			c-6.1-0.1-6,3.4-4.9,7.7c0.6,2.5,1.1,5.1,1.6,7.7c5.7-3.8,6.2-4.8,6.1-11.5c-0.1-6.3,2.4-11.3,7.2-15.3
			c-2.2,6.7-5.2,13.2-2.7,20.5c3.2-1.6,3-1.8,8-11.9c2.2-4.4,1.8-8.1-0.5-12.2c-9.7-17.4-39.1-26.8-57.7-19.2
			c-9.6,3.9-19.7,7.7-29.9,9c-15.2,2-28.1-4.2-37.4-16.7c-1.2-1.6-1-4.3-1.5-6.4c2.3-0.5,4.5-1,6.8-1.4c0.8-0.1,1.6,0.3,2.4,0.5
			c9.4,3,19,3.2,28.7,1.5c9.6-1.8,18.8-5,25.2-13c2.5-3,4.6-6.9,1.8-10.5c-2.9-3.6-6.4-0.6-9.4,0.9c-1.5,0.7-2.9,1.6-4.4,2.3
			c-12.6,5.8-25.4,6.5-38.2,0.8c-4.3-1.9-8.5-3.9-12.5-6.3c-7.9-4.9-16-8.6-24.3-11.1c-14.7-4.5-37.7-7.5-48.7-3.3
			c-1.5,0.6-7.1,2.9-9.2,0.7c-0.1-0.1-0.8-0.9-0.8-2c0.2-3.7,9.7-4.8,20.8-12c1.7-1.1,4.6-3.1,4.2-4.8c-0.4-1.5-3.4-2.6-4.5-3
			c-0.8-0.3-1.4-0.4-1.6-0.5c-7-0.7-13.6,1.4-19.3,5.5c-9.6,7.1-20.5,10.9-32,13.4c-35.1,7.7-67.4,20.5-88.5,52.2
			c0.2-1.5,0.6-2.9,1.3-4.1c5.6-10.3,12.9-19.5,21.9-27c12.2-10.2,26.5-16.4,41.4-21.5c5.6-1.9,11-4.6,16.2-7.5
			c2.5-1.4,5.6-3.8,3-7.7c-1.8-2.7-8.4-3.9-10.4-1.5c-6.7,8-16.5,9.6-25.5,12.8c-17.5,6.2-32.8,15.5-44.3,30.4
			c-12.2,15.7-17.1,34.5-22,53.2c-0.7,2.7,0.1,5.8,0.2,8.6c0.2,3.2-0.1,6-3,6.8c-2.6-1-4.4-1.8-6.3-2.3c-3.7-1.1-7.5-1.6-11-3
			c-1.5-0.6-3.2-2.7-3.3-4.1c0-1.2,2.2-2.9,3.7-3.4c1.9-0.6,4.1-0.1,6.2-0.1c0-0.2,0-0.4,0.1-0.5c-1.7-0.5-3.4-0.9-5.2-1.4
			c9.2-0.5,11.3-7.4,12.1-14.4c1.3-10.6-1.5-20.5-7.4-29.4c-1.1-1.6-2.9-2.8-5.2-5c-0.8,5.1-1.3,9.1-1.9,13
			c-2.2,13.8-5.8,26.8-14.5,38.4c-5.5,7.3-8.4,16-8.3,25.7c0.1,8.9-0.6,17.9-1.9,26.8c-0.5,3.3-0.3,6.6-2.7,8.7
			c-2.7,2.3-6.7,1.6-8.6,1.2c-0.8-8.5-1.1-15.9-2.2-23.3c-0.9-6.5-3.2-12.5-8.3-17.2c-3.8-3.5-7.8-4-12.4-2.1
			c-8.4,3.5-14.7,17.4-10.8,26.1c0.8,1.8,2.5,4.4,3.7,4.1c1.2-0.2,0.9-3.1,2.4-6.7c1.7-4.2,5.7-9.1,10.2-9c5.4,0.1,6.6,5.2,7.6,9.3
			c1.9,7.7,3.5,15.6,4.7,23.5c0.2,1.5-1.7,3.5-2.9,5.1c-1.5,2.1-4.1,3.7-4.8,5.9c-2.9,8.7-7.9,16.3-13.1,23.6
			c-6.5,8.9-11.6,18.2-14.2,28.9c-0.4,1.6-1,3.2-1.6,5.4c-6-12.3-6-21.4-4.5-27.8c2.6-11.2,11.1-19.6,8.9-21.9
			c-1.4-1.5-6,0.8-7.1,1.4c-8.3,4.2-13.1,12.5-15.2,19.5c-5.2,17.5-5,35.2-0.6,52.9c2.1,8.2,5.1,16.2,7.3,24.4
			c0.1,0.2,0.3,0.9,0.2,1.8c-0.2,1.7-1.6,3.1-3,3.7c-1.6,0.7-3.2,0.3-4,0.1c-6.6-1.7-10.2-4.4-14.9-5.3c-4.5-0.8-9.5,0-9.9,1.6
			c-0.4,1.9,5.7,4.1,10.4,10.4c1.2,1.6,3,3.6,2.2,5.6c-1.7,3.9,0.4,6.4,2.3,9c7.9,11,19.8,17,30.8,24.1c0.2,0.1,0.6-0.1,1-0.2
			c-3.8-4-8-7.6-11.2-12c-6.1-8.1-9-16.8-3.9-26.9c11.7-23.4,22.9-47,34.3-70.5c3.7-7.6,7.4-15.3,11.8-22.6c1.1-1.9,4.9-2.1,7.5-3.1
			c-0.1,2,0.4,4.3-0.3,6.1c-2.3,5.7-4.8,11.3-7.6,16.8c-13.9,27.7-27.9,55.3-41.8,83c-2.2,4.4-3.5,9.5,0.1,13.1
			c6.8,6.8,14.4,12.8,21.6,19.2c-1.8-8.6-5.8-16.5-3.9-25.9c5.5,8.9,7.3,19.3,15,27.1c0.9-3.9,1.7-6.9,2.3-10
			c0.6-2.9,0.9-5.9,1.4-8.9c1,2,2.3,5,3.6,8.7c2.4,7.1,1.8,8.9,4.2,11.8c2.3,2.8,5.5,4.7,10.1,6.2c2.3,0.7,4.8,0.7,7.1,1.3
			c3.6,1,4.8,5.8,2.7,11.4c-0.8-1.4-1.6-2.5-3-5c0.3,5,0.4,8.5,0.6,11.1c4.6-0.7,8.3-1.7,11.9-1.6c1.9,0.1,3.7,2.3,5.5,3.5
			c-1.7,1.2-3.4,2.4-5.2,3.7c-0.2,0.1-0.3,0.4-0.5,0.7c4.7,0.5,7-0.5,11.3-4.9c5.2-5.2,11.4-5.9,17.6-1.9c6.8,4.4,9.5,13.8,6.2,21.7
			c-2.6,6.1-8.6,10-14.2,9.1c-1.6-0.9-3.9-2.4-5.6-4.9c-2.7-3.8-2.4-7.1-3.6-7.2c-1.7-0.1-4.4,6.8-5.5,13c-0.4,2.5-0.6,4.8-2.2,7.6
			c-0.1,0.3-2.7,4.7-4.4,4.2c-1.6-0.4-0.4-4.5-2.8-9.8c-1.9-4-4.8-6.5-5.2-6.2c-0.5,0.4,2.9,4.4,1.7,8.8c-0.4,1.7-1.4,2.9-2.3,3.8
			c-0.4-2.8-2.2-11.5-9.6-17.1c-4.9-3.8-10.6-4.9-10.6-4.9c-3.1-1-6.6-1-9.9-1c-4.8-0.1-8.9-1.4-12.9-4.3
			c-10.2-7.3-17.7-6.1-25.6,3.4h8.4c-0.7,1.9-1.4,3.3-1.7,4.8c-0.6,3.6-1.8,7.3-1.2,10.7c1.3,6.5,13.5,21.4,21,26.3
			c-2.8-3.9-4.8-6.7-6.8-9.5c-1.9-2.7-4.6-4.6-6.1-8.5c-0.2-0.6-1.5-4.2-0.2-5.1c1.2-0.9,3.9,1.5,4.9,0.6c1.1-0.9-1.4-4-0.4-5.7
			c1.2-2,6.7-0.6,17.4,1.5c9,1.8,15,2.8,14.9,3.5c-0.1,0.8-8.7-0.2-9.1,1.6c-0.4,1.8,7.6,4.8,7.4,5.5c-0.2,0.6-6.5-1.3-11.1-2.6
			c-3.7-1.1-4.1-1.3-5.3-1.5c-4.4-0.7-8.3,0.6-10.9,1.9c3.1,5.2,6.3,10.5,9.5,15.7c1.1,0.4,3.4,1.1,6.4,0.6c3.8-0.7,6-3,6.7-3.8
			c0.1,1.1,0.3,4.1-1.4,7.2c-1.7,3.2-4.2,4.7-5.2,5.2c1.2,0.7,3.8,1.9,7.1,1.8c5.6-0.1,9.3-3.6,10.2-4.4c1,2,2,4.7,1.6,7.7
			c-0.2,1.7-0.7,2.8-0.3,3.1c0.6,0.5,2.9-0.7,10-7.5c0.8,0.6,1.7,1.6,2.6,2.9c2.6,4,1.8,7.4,2.8,7.6c1.5,0.3,6.2-7,5.5-15.3
			c-0.2-1.8-0.3-3.5-0.4-5.3c5.5,6.2,6,13.5,2.2,19.5c-4.3,6.9-11,10-18.8,8c-8.9-2.2-17.4-5.3-24.7-11.2c5.5,7.7,8.8,17.2,18.7,21
			c1.2,0.4,2.9,2.4,2.7,2.9c-0.7,1.3-2,2.5-3.4,3.3c-1.1,0.6-2.7,0.9-3.9,0.5c-10.5-3.4-21-7-31.4-10.6c-0.1,0,0-0.6-0.1-1.2
			c0.9-0.1,1.9-0.4,2.8-0.4c3.7-0.1,7.4,0.2,11-0.1c5.9-0.5,7.3-3.3,4.2-8c-1.9-2.9-3.8-6-6.2-8.4c-10.1-10-20.5-19.8-31.1-29.9
			c1.9,2.7,3.8,5.2,6.1,8.5c-9.8-3.5-13.3-15-25.7-14.1c2.9-3.1,4.4-4.8,5.9-6.4c-7.6-0.1-15.3-0.2-22.9-0.3
			c1.8-2.1,4.8-5.1,9.1-7.6c5.7-3.3,11-4.2,14.1-4.5c-4.9-1.4-12.3-3-21.4-2.3c-7,0.6-13.8,2.3-20.6,4.6c13-10,28.3-11.4,43.4-12
			c-24.9-11-48.4-9.2-69.2,11c7.2-12.8,18.4-19.5,32.3-21.9c13.3-2.3,26.4-1.8,39.2,3.5c-15.5-19.1-35.1-23.9-58-17.7
			c11.6-5.9,23.9-6.6,36.5-5.2c7.4,0.8,14,2.8,19.3,7.4c3.4,3,5.3,7.2,5.6,7c0.4-0.2-2.2-5.2-4.6-10c6-3.1,8.7-2.7,10.7,1.8
			c2.4,5.3,6.3,5.6,11.4,4.7c0-6.4-0.9-12-5.7-16.5c-4.5-4.2-9.4-8.1-13.3-12.8c-5.1-6.1-9.3-12.8-14-19.2c-1-1.3-2.5-2.3-3.7-3.5
			c-0.5,1.8-1.1,3.5-1.4,5.3c-0.2,1.3,0.1,2.6,0.2,4.8c-4.2-4.9-7.5-9.3-11.4-13.2c-9.6-9.6-30-13.2-41.6-7.5
			c-3.6,1.8-6.6,4.5-5.2,8.6c1.4,3.9,5.2,1.9,7.9,1.1c13-3.8,23.8-0.7,31.6,10.5c6.3,9,15.5,13.9,25.2,18.1c2.9,1.3,6,2.3,8.5,4.1
			c2.9,2.1,5.1,5.1,7.6,7.7c-7.2-2.1-13.6-5-19.9-7.9c-8.5-4-16.1-8.7-21.6-17c-6.4-9.8-13.9-11.5-25.9-7.9
			c10.9,4.6,16.9,13.2,20.7,22.8c-6.3,2.6-12.5,5.1-19.7,8.1c-0.4-0.6-1.4-2.1-2.7-3.4c-10.3-10.1-25.7-12.9-38.9-7.3
			c-7.4,3.2-12.9,8.2-15.4,16c-1.7,5.3-1.9,10.6,1.6,15.3c0.2,0.2,0.6,0.6,1,1c1.5,1.3,3.1,2.7,4.1,2.3c0.9-0.4,1-2.1,1.1-4.2
			c0.1-0.8,0.1-1.3,0-1.4c-0.9-8.1,1.9-13.3,9.6-15.9c10.2-3.5,19.4-1.3,27.4,5.9c4.7,4.2,4.5,5.2,0,9.4c-3,2.7-5.8,5.5-8.8,8.3
			c1.3,0.6,2.8,1.2,4.7,1.6c4.2,0.9,7.7,0.4,9.9-0.1c-0.8,1.6-2.2,3.8-4.3,6c-3.5,3.5-7.7,5.5-12.3,7.2c-6.7,2.4-13.7,4.6-19.8,8.1
			c-11.2,6.6-16.9,16.8-15.7,30.1c0.1,1.6,0.3,3.9,2,5.4c1.1,1,3,1.7,3.9,1c0.9-0.7,0.2-2.2,0.4-4.6c0-0.3,0.5-5.5,4.4-8.4
			c1.9-1.4,4.4-2.2,7.3-2c6.7,0.3,9.2,2.9,9.1,10.9c-0.1,14.2,2.5,27.8,7.7,41c1.3,3.2,2.1,6.7,2.6,10.1c0.9,6.8-0.1,13.4-4.4,19
			c-3.5,4.5-7.8,5.2-11.4,0.8c-3.3-4-5.7-8.9-7.7-13.7c-1.6-3.8-1.8-8.1-2.9-12.1c-1.2-4.2-4.9-5.2-7.3-1.6c-2.1,3.2-3.7,7.3-3.6,11
			c0.1,15.8,7.6,28.3,20.4,37c14.9,10.2,32.7,1,34.3-17c0.2-1.7,0.2-3.5,0.4-6.2c9.4,9.5,20.9,13,32.3,16.5c2.7,0.8,5.4,1.8,7.9,3.1
			c4.8,2.6,7.6,11.2,5.4,15.8c-1.7,3.8-5.4,4.5-12.3,2.4c-6.3-1.9-12.5-1.9-18.6,0.5c-1.3,0.5-3,2.3-2.9,3.5c0.1,1.4,1.5,3.3,2.9,4
			c1.8,1,4.1,1.1,6.2,1.7c2.9,0.8,6.2,1.1,8.4,2.8c14.6,10.5,22.9,24.4,21.4,43c-0.7,8.4-4.8,13.7-11.1,14.8
			c-9.2,1.6-20.1-2.6-23.4-8.9c-2.2-4.2-0.3-8.2,4.4-8.1c2.9,0,6,1.4,8.7,2.8c3.9,1.9,7.2,0.4,7.2-4c0-1.9-0.6-4-1.4-5.7
			C87,565.8,81,562.2,73,561.7c-8.2-0.5-14.7,2.4-19,9.6c-7.8,13-5.7,37,15,44.6c4.6,1.7,9.3,3.3,13.9,4.9
			c-2.5,8.6-9.4,12.8-18.6,11.8c-8.2-0.9-13.9-5.8-19-11.8c-1.4-1.6-4.7-3.5-5.8-2.9c-2.3,1.3-4.6,4-5.1,6.4c-0.5,2.7,0.5,6,1.8,8.5
			c4.7,9.8,12.5,16.1,23,18.3c10.4,2.2,20.8,2,30.2-5.7c2.1,22.6,7.6,43.6,20.7,62.6c-3.9-1.1-7.6-2.5-10.7-4.7
			c-6.3-4.3-9.3-11.1-12.4-17.8c-2.1-4.7-3.9-5.2-8.1-2.7c-4.7,2.9-6.6,7.4-6.8,12.7c-0.5,12,5.2,21.2,14.2,28.4
			c14,11.1,29.2,11.4,44.9,4.4c0.4,4.6,0.4,9.2,1.1,13.8c4.2,27.1,16,47.6,45.6,52.8c1.9,0.3,4.2,2.6,5.1,4.6
			c6.6,14,15.9,25,31.3,29.5c9,2.7,18.1,2.8,27.1,0.5c2.6-0.7,4.1-0.2,5.8,2.2c9.9,14.7,30.5,19.9,46.1,10.8
			c6.3-3.7,11.6-6.3,18.3-2c0.6,0.4,1.6,0.3,2.4,0.5c14.6,2.1,28.1-1.8,41.1-7.8c4-1.9,6.3-1.2,9.7,1.3c6.8,5,13.8,10.5,21.5,13.3
			c44.2,15.8,84.4,7.8,120.6-21.8c1.9-1.5,3.7-3.2,5.5-4.7c16.3,12.9,37.5,14.3,55.2,3.6c18.8-11.4,25.3-29.1,24.4-49.8
			c7-1.1,13.4-2.2,19.8-3c1.7-0.2,3.7,0.2,5.2,0.9c9.2,4.2,18.8,5.3,28.8,3.9c24.5-3.4,44.7-20.3,49.5-42.5c1-4.4,0.1-9.2,0-13.8
			c-0.1-2.4-1-4.9-0.6-7.2c2.4-13.6,2.5-27.2-0.3-40.7c-0.7-3.2-1-6.4-1.6-10.2c2,0.5,3.1,0.7,4.2,1.1c15.2,4.8,29.2,2.4,42.3-6.5
			c4.9-3.3,10.3-6,15.3-9.2c1.8-1.2,4.3-3.1,4.3-4.6c0-2-1.9-4.6-3.7-5.8c-4.8-3.2-10-2.4-14.7,0.3c-4.6,2.6-8.8,6-13.2,9
			c-8.9,6-15.8,5.4-23.3-2.2c-1-1-1.6-3-1.4-4.4c0.1-0.8,2-1.6,3.2-2.1c3.4-1.2,7.3-1.7,10.3-3.5c10.8-6.2,21.5-12.7,35-12.5
			c-2.4-6.4-6.4-10.2-12.1-11.1c-6.5-1-13.2-0.9-19.8-1.3c-7.3-0.4-14.6-0.2-21.8-1.1c-6.7-0.8-13.2-2.9-16.6-11.1
			c3.5,1,6.2,1.8,9,2.5c0.1-0.4,0.2-0.9,0.3-1.3c-3.6-0.8-7.1-2-10.7-2.4c-7-0.7-10.5-5.2-14-11.5c2.2,0.7,3.5,1.2,4.8,1.6
			c0.1-0.2,0.2-0.5,0.3-0.7c-1.9-1.3-3.8-2.7-5.9-4.1c-1.4,4.8-2.5,5.6-5.8,5c-4.7-0.8-8-6.3-6.7-10.9c0.8-2.8,1.5-5.7,2.4-8.7
			c-2.5,2-4.5,3.5-6.7,5.3c0,0.2,0.2,0.7,0.2,1.2c-0.2,2,0.2,5.3-0.9,5.9c-2.7,1.4-5.8,0.7-6.7-2.8c-0.6-2.5-0.7-5.3-0.3-7.8
			c0.4-2.7,1.8-5.3-1.3-7c-1,2.2-1.9,4.3-3.2,7c-4.5-6-3.9-11,0.4-16.2c-5.2,1.3-4.9-1.8-4.7-4.3c1-19,9-35.1,22-48.5
			c12.2-12.6,27.3-21.2,43.6-27.5c16-6.2,29.1-15.4,34-33.1c3.8-13.6,6.5-27,1.3-41.1c-2.9-8-4-16.7-6-25c-0.2-1-1-2-1.8-2.8
			c-3-3.1-3.4-5.5-2.9-6.2c0.2-0.2,0.9-0.9,5.4,0.9c0.1-1.8,0-4.6-0.9-7.8c-1.1-4.1-2.6-5.8-4-9.3c-0.9-2.4-1.9-6.1-1.7-11.2
			c-0.1,0,0.8,0.1,2,0.2c-0.1-0.9-0.2-2.1-0.8-3.4c-1-2.3-2.5-2.9-2.3-4c0.1-0.8,1.1-1.9,5-2.8c-0.4-0.8-1.1-2-2.5-3
			c-2.8-2-5.9-1.5-6.5-1.4c1-0.5,2.5-1.1,4.5-1.5c3.5-0.8,5.1-0.2,7.4-1.2c1.2-0.5,2.8-1.5,4.4-3.9c-4.4-1.1-8.7-2.8-13.3-3.2
			c-4.6-0.3-9.2-0.6-13.5-3c3.9-1.6,7-2.9,10.1-4.1c-13.6-2.7-26.9-3.9-38.6,5.6c-1.3,1-3,1.4-4.4,2.3c-2.3,1.5-4.4,3.2-7.6,5.6
			c4.9-1.6,12.7-3.4,22.4-2.8c6.9,0.5,12.5,2.1,16.5,3.6c-2.2-0.3-7.3-0.5-12.8,2.2c-3.1,1.6-5.3,3.7-6.5,5.2
			c4.1,0.4,11.8,1.8,19.6,7c5.6,3.7,9.3,7.9,11.5,10.9c-3-2.1-9.3-5.8-18.2-6.9c-7.8-0.9-14,0.7-17.4,1.8
			c11.2,3.2,22.9,5.4,31.2,16.8c-2.4-2-7-5.2-13.6-6.9c-6.4-1.6-11.8-1.1-14.8-0.6c1.1,0.4,2.2,0.8,2.1,0.8
			c-6.3,4.6-10,9.3-9.1,11.2c-5,6.1-10.5,11.9-15,18.3c-5.8,8.1-10.8,16.8-16.2,25.2c-5.2,7.9-13.5,10.4-21.2,6.8
			c-4.7-2.2-2.1-5.4-1.1-7.9c1-2.6,3.2-2.5,5.7-0.7c7.3,5.3,13,2.8,14.9-6.1c-2.8,1.6-5.5,3.6-8.5,4.7c-1.5,0.6-4.9,0-5.3-1
			c-0.9-2-0.7-4.8-0.2-7c0.2-1,2.3-1.7,3.7-2.3c2-0.8,4.6-0.8,6-2.1c2.5-2.4,4.2-5.5,6.4-8.5c0.4,0.9,0.7,1.8,1.1,2.8
			c3.3-5.1,6.6-10.1,9.8-15.1c0.4,0.2,0.9,0.4,1.3,0.6c0.2,2.1,0.3,4.2,0.6,6.9c7.2-6.8,6.5-15.9,10.2-23.7
			c-10-3.8-19.3-1.8-28.5,0.1c-2.1,0.5-4.2,2.7-5.7,4.6c-2.8,3.6-4.3,5.4-6.9,5.7c-1.9,0.2-2.3-0.8-4-0.3c-3,0.8-3.7,4.5-4.7,4.2
			c-0.8-0.2-1-3.2-0.5-5.8c0.7-3.3,2-3.3,1.9-5.5c0-1.7,0.6-2.5-2.1-6.3c-0.5-0.6-0.2-1.7-0.6-2.4c-1.8-3.6-1.1-5.9,3.1-7.1
			c5.1-1.4,8.1-5,9.2-10.2c0.5-2.3,1-4.5,1.6-6.8c1.1-4,3.1-7.3,7.3-9.1c-0.8,2.7-1.7,5.5-2.8,9c0.2-0.4,1.8-4,5.3-4.5
			c1.1-0.2,2.1,0,2.8,0.2c-1,1.8-2,3.6-3,5.5c3.2-1.5,5-2.4,6.1-2.9c-1.7-10,0.7-17.8,8.1-23.2c-9.4-7-18.2-13.6-27-20.1
			c-9.8-7.3-13.7-17.3-12.4-29.3c1.3-12.4,7.2-22.4,17-30c6.1-4.7,12.5-8.9,18.5-13.6c6.4-5,12.5-11,12.5-19.6
			c0-14.3-4-27.5-14.8-37.9c-0.8-0.7-1.1-2-1.4-3c-0.8-3.3-0.8-7.1-2.4-10c-3.1-6-2.4-8.2,4-9.2c0.4-0.1,0.7-0.5,1.6-1.1
			c-1.7-1-3.1-1.8-4.4-2.7c-1.2-0.8-2.5-1.6-3.8-2.3c2.5-0.6,4.4-0.3,6.2,0.3c24.1,8.6,37.5,26.6,44.1,50.4c1.1,4,0.6,7.9-2.8,11
			c-1,0.9-1.7,2.9-1.7,4.3c0,9.3-4.3,17.3-7.3,25.7c-0.4,1-1.9,1.7-3,2.4c-2.8,1.9-5.7,3.7-8.6,5.5c-2.6,1.7-4.7,4.1-7.1,5.9
			c-5.6,4.2-11.5,9.7-12,17.6c-0.6,8.4,3.5,15.6,9.4,21c4.7,4.3,10.5,7.7,16.3,10.3c21.8,9.7,41.3,22.3,57.2,40.5
			c16.2,18.5,29.8,38.3,37.5,60.7c0-0.4,0.2-2,0.5-4.9c1.7,3.5,3.9,6,3.7,8.3c-0.7,7,3,12.4,5.1,18.5c1.2,3.5,1.7,7.4-1.7,11.8
			c-2.2-5.7-4.2-10.7-6.1-15.6c-0.8,1.5-0.9,3.1-0.5,4.5c1,3.8,3.1,7.6,3.3,11.4c0.2,3.4-0.5,8.3-2.7,9.9c-5.7,4.1-6.5,7.9-4,14.3
			c1.5,3.8,0.6,8.8,0.1,13.2c-0.1,1.3-2.5,2.3-3.8,3.4c-0.9-1.4-2.4-2.7-2.7-4.2c-0.4-2.7-0.1-5.5-0.1-8.3c-0.6,0-1.2-0.1-1.8-0.1
			c-0.1,2.1-0.8,4.4-0.2,6.4c2.5,9,1.8,11.5-6.3,15.9c-2.1,1.1-4.5,1.8-6.5,2.5c1.6,0.8,3.4,1.8,5.5,2.8c2.2-4.8,5.8-6,10.5-4.2
			c-0.3,8.5-5.5,13.4-10.7,11c-1.9,1.6-3.4,3.5-5.3,4.5c-2.5,1.3-3.7,2.6-3.4,5.7c0.3,4.4-1.4,8.1-5.5,10.4
			c-4.3,2.4-8.3,5.1-12.7,7.3c-1.5,0.8-3.6,0.5-5.4,0.7c0-1.7,0-3.4,0.2-5.1c0.1-0.6,0.8-1.2,2-3.1c-7.9,4.1-12.4,12.1-21.6,9.6
			c4.7,5.2,3,11.5-3.7,11.8c-5.8,0.3-8.2,4.1-11.5,7.2c-1.7,1.6-3.3,3.3-4.9,5c-1.5,1.7-3.2,3.3-4.3,5.2c-2.7,4.8-7.8,7.4-12.3,5.5
			c3.1,5,4.8,9.8,0.9,15c-0.5,0.6,0.5,2.7,1.2,3.8c0.8,1.1,2,1.9,2,1.9c-0.8,2.6-1.6,4.2-1.7,5.7c-0.2,3.1-0.1,6.1-0.1,8.7
			c3.7,3.9,8.5,7.5,11.2,12.3c4,7.1,10.2,11,16.7,14.9c2.1,1.3,4.4,2.7,6.7,3.1c15.3,2.5,30.3,1.6,44.5-5c8.8-4.1,16.1-9.7,18.8-20
			c1-3.8,3.7-7.4,6.4-10.5c3.7-4.2,8.8-4.6,13.8-3c3.9,1.2,5.2,4.5,4.6,8.4c-0.2,1.3-0.7,2.3-1.3,2.9c-1.2,1.1-2.5,0.8-4.8,1.3
			c-0.7,0.2-5.2,1.2-5.7,3.2c-0.4,1.8,2.3,4.7,5.3,5.6c5.5,1.5,13-3.3,15.3-9.2c3.6-9.1,2.3-17.8-3.9-25.4c-5.9-7.2-14-8.8-22.7-6.5
			c-4,1-7.9,2.8-11.3,5.1c-5.6,3.8-10.8,8.4-16.1,12.7c-4.3,3.5-8.6,7-13.5,11c2.9-9.6,5.5-18.2,8.2-27.1c1.3,0.7,3,1.5,4.5,2.4
			c4.2,2.8,7.4,2,10-2.3c1.8-3,3.6-6.1,5.8-8.7c6.5-7.7,13.2-15.2,19.8-22.9c0.8,0.9,12.6,13.7,22.2,10.1c3.8-1.4,8-5.7,7.2-7.9
			c-0.4-1-1.7-1-4.2-2.2c-1.4-0.7-6.1-2.7-8.1-6.7c-1.4-2.8-1.4-6.2-0.2-10.5c1.8-6.5,6-10.6,12.9-11.5c5-0.6,8.6-3,8.2-8.2
			c-0.3-3.9-1.8-7.9-3.5-11.6c-1.4-3-3.9-3.2-6.4-0.6c-1.5,1.5-3.4,2.7-5.1,4.1c-0.2-0.6-0.3-1.2-0.4-1.7c-0.2-2,0-3.6,0.1-3.9
			C801.4,459,804.6,407.9,806.5,402.6L806.5,402.6z M447.1,140.2c-0.3-0.1-1-0.5-1.3-1.3c-0.9-2.4,3.9-5.6,3.4-6.5
			c-0.5-0.7-4,1.6-8.3,2.4c-8.5,1.6-16.1-3.4-16-3.6c0-0.1,2.2,1.2,4.8,0.5c0.6-0.2,1.6-0.5,3.7-2.6c1.8-1.7,2.8-3.1,4.5-5.6
			c3.5-4.9,4.2-5.9,4-6.1c-0.3-0.3-2.7,3.2-7.1,5c-0.9,0.4-7.6,3-11.8-0.7c-0.2-0.2-2.5-2.3-2.5-5.5c-0.1-3.9,3.2-7.8,5.2-7.4
			c1.6,0.3,3,3.4,2.1,5c-0.9,1.8-3.9,1-4.5,2.4c-0.5,1.4,1.5,4.2,4,4.5c1.9,0.3,3.6-0.9,5-2.1c2.2-1.9,4.1-4.4,6.1-6.6
			c2-2.3,4.3-2,5.9,0.2c1.1,1.5,1.8,3.1,3.3,3.7c1.1,0.4,1.6-0.3,2.6,0.1c1.5,0.7,2.3,3.1,1.7,3.6c-0.6,0.5-2-1.6-4.3-1.5
			c-1.7,0.1-2.3,1.2-7.2,6.3c-2.4,2.6-3.2,3.3-3,4c0.5,1.3,3.9,1.3,5.8,1.2c4.6-0.4,5.6-2.5,11-3.3c3.3-0.5,4.7,0,5.6,0.7
			c1,0.8,1.5,2,1.7,3.1C462,135.5,451.4,142.4,447.1,140.2L447.1,140.2z M420,102.3c-0.3-0.5-3.7,0.7-14.7,6.6
			c0.6-0.1,3.3-0.7,5.8,0.9c1.8,1.2,3.2,3.4,2.7,4.1c-0.7,1-4.2-2.3-8.6-1.5c-4.2,0.8-7.4,5.1-6.8,6c0.2,0.4,1.3,0.4,2-0.1
			c0.5-0.3,0.4-0.7,1-1.2c0.5-0.4,1.3-0.9,1.6-0.7c0.5,0.3-0.5,2.4-1.2,5.5c-0.5,2.2-1.5,6.5,0.4,8c0.7,0.6,1.5,0.5,1.8,0.5
			c2.5-0.1,4.4-3.7,3.6-4.7c-0.6-0.9-3.3,0.4-4.1-0.7c-0.3-0.4-0.3-1.2,0.1-1.6c0.9-1.1,3.1,0.5,5.3-0.2c3.3-1,4-6.6,4.7-6.4
			c0.5,0.1,0.6,3.2-0.2,7.7c-0.3,1.6-2.9,15.5-8.1,16c-0.2,0-1.8,0.1-2.7-0.9c-1-1.2-0.2-3.2-0.8-3.4c-0.4-0.1-0.8,1.1-2.2,2
			c-1.7,1.1-3,0.5-3.8,1.5c-0.4,0.4-0.7,1.3-0.3,3c0.8,0.1,2,0.4,3.5,0.6c7,0.9,8.3,0.5,10.6,1.6c2.6,1.2,2.7,4.7,3,6.8
			c0.5,3.8-0.6,6.8-1.2,8.1c-0.4-1.1-1.2-2.6-2.8-3.4c-1.2-0.7-2.1-0.6-4-1c-1.1-0.3-2.7-0.8-4.6-1.8c1.5,1.8,2.5,3.4,4,4.5
			c3.1,2.4,5,4.9,2.6,8.9c-0.4,0.7,0.5,2,0.5,3.1c-0.1,1.1-0.6,2.1-0.9,3.2c-1.1-0.4-2.2-0.7-3.2-1.2c-2.7-1.3-3.6-2.4-4.1-2.1
			c-1,0.6,3.3,6.3,2.9,12.3c-0.3,4.6-3.2,8.2-6,10.8c-2.5-2.7-3.4-3.1-3.7-2.9c-0.5,0.4,1,2.7,0.9,6.1c-0.1,1.8-0.6,3.3-1.1,4.3
			c-2.5,0.3-7.7,0.6-13.2-1.9c-6.8-3.1-10.2-8.4-11.2-10.4c-1.1-2.3-1.4-4.4-1.4-4.4c-0.2-1,0.4-2.2,0-3c-1.4-3.6-2.3-6.9,2.7-8.7
			c1-0.4,2-2.4,2-3.6c-0.1-3.3,0.6-5.9,3.9-7.2c0.8-0.3,3.1-1.4,5.3-0.6c2.2,0.8,2.1,2.7,3.8,2.9c1.2,0.2,1.5-0.8,4.9-2.8
			c2.6-1.5,4.1-1.9,4.2-3.1c0-0.5-0.2-1.1-0.6-1.4c-1.2-1.1-3,0.7-5.4,0.2c-1.9-0.4-2.1-0.6-4.1-3.3c-1.1-1.5-3.7-1.7-5.6-2.7
			c-0.3-0.2-0.5-0.3-0.8-0.5c-1.5-0.9-2.2-1.4-2.2-1.8c-0.1-0.9,2.3-1.9,2.8-2.2c3-1.2,5.3-1,5.3-1.2c0-0.3-2.5-1.4-5.1-0.7
			c-3,0.8-3.2,3.1-7.3,6.2c-1.9,1.4-4.6,3.4-6.1,2.6c-1.4-0.8-1.2-3.5-1.1-8.2c0.1-3.3,0.1-7.9,0-13.5c0.4-0.3,1.5-0.9,2.9-1
			c1.2-0.1,2.2,0.3,2.6,0.5c0.5,0.7,1.5,2,3.4,2.8c0.5,0.2,3.3,1.4,6.3,0.2c2.1-0.9,3.2-2.5,3.8-3.2c1.1-1.6,1.5-3.1,1.6-4
			c0.3-0.2,1.5-1,1.9-2.6c0.2-1,0.1-2.5-0.7-3.4c-0.9-0.9-2.4-0.8-4.5-0.6c-2.2,0.2-6.6,0.7-11,4.2c-3.8,3-4,4.4-7.6,7
			c-1,0.7-3.8,1.8-5.5,0.7c-1.1-0.7-1.2-2.1-1.7-4.8c-1.4-7.8-3.1-9.7-1.7-11.4c1.1-1.4,2.5-0.4,4.5-2c2.7-2.1,3.3-6.4,2.3-7
			c-0.9-0.6-2.5,2.8-5.4,2.6c-3.6-0.2-6-5.8-6.2-6.4c-0.4-1-1.5-3.5-1-6.4c0.5-2.9,2.4-5.5,5.6-7.9c6.2-4.6,12.7-8.9,19.4-12.9
			c6.2-3.7,11.4-2,15.1,4.5c11.5-4.1,17.2-2.8,20.1-0.2c3.5,3,5,9.3,6.4,8.9c0.9-0.2,0.6-3.1,1.7-3.4c1.1-0.3,2.1,2.2,4.5,4.3
			c2.7,2.4,4.7,2.1,8,3.7c2.1,1.1,5,3.1,7.8,7.3c2.6,0.6,5,0.6,6.5,1.8c0.9,0.7,0.4,3.2,0.5,5.1c-1.9-1.2-4.6-2.6-5.7-1.7
			c-1.2,1,0.3,3.7-0.7,4.6c-1.3,1-4-2.7-8.8-3.7c-5.4-1.2-9.7,1.6-10.3,0.4C416.3,105.8,420.5,102.9,420,102.3L420,102.3z M366,168
			c0.9-3.4-2.5-6.9,2.2-8.9C367.2,161.7,372,165.7,366,168z M390,50.7c21.9-3.7,57.4,19,60.7,39.5c-6.9-10.7-14.9-20.7-26.4-26.2
			C413.3,58.7,401.4,55.1,390,50.7z M306.8,65.3c12.2-18.1,29.5-28.3,50.6-31.7c36.3-5.8,70.2,1.1,101.2,21.4c0.7,0.4,1.3,1,1.9,1.5
			c-0.2,0.5-0.5,1.1-0.7,1.6c-5.2-2.4-10.5-4.6-15.5-7.3c-11.1-5.8-22.7-10.5-35.2-12.3c-25.1-3.7-49.5-1.8-73,8.5
			c-10.6,4.6-19.4,11.7-25.9,21.3c-10.9,16.3-8.2,32.9-0.4,49.4c1.3,2.8,3.2,5.3,5.6,9.1c-1.5-1.1-2-1.4-2.4-1.8
			C301.3,112.2,292.5,86.4,306.8,65.3L306.8,65.3z M222,110.8c3.8,0.3,7.4,2,11,3.5c0.2,0.1-1.1,3.9-1.5,5.1
			c-5.6-1.2-10.5-2.3-15.6-3.5C216.4,112.9,218.8,110.6,222,110.8z M222.1,118.4c4.9,1.3,7,4.6,6.2,9.1c-5.5-1.9-10.9-3.8-16.7-5.8
			C213.5,116.5,217.8,117.2,222.1,118.4z M206.3,127.2c5.3-3.3,11-3.1,16.6-0.3c4.3,2.2,4,6.2,4.1,9.9c-3.8-1.4-7.4-2.7-10.9-4
			c2.1,1.2,4.1,2.5,6.2,3.7c-0.3,0.5-0.5,1.1-0.8,1.6c-3.1-1.2-6.2-2.4-9.3-3.6c0-0.4,0.1-0.8,0.1-1.1c1.3-0.2,2.6-0.3,4-0.5
			c-3.7,0-7.5,0-12.7,0C204.6,130.4,205,128,206.3,127.2L206.3,127.2z M170.2,196.6c-0.8-0.5-1.8-1.4-2.5-3.4
			c1.2-0.9,3.8-2.7,7.5-3.3c2.7-0.4,4.9-0.1,6.3,0.3c6.6,2.6,8.1,4,8,4.9c-0.2,1.2-3.7,1.8-4.2,1.8c-1.9,0.3-3,0.1-4.6-0.1
			C174.5,196.3,172.6,198.2,170.2,196.6L170.2,196.6z M193.3,190.9c-0.9,0.8-2.2,0.6-3.2,0.5c-2-0.3-2.9-1.1-4.9-2.1
			c0,0-1.9-1-4.6-1.8c-1.6-0.5-5.2-1-11.2,2.6c0.1-0.5,2.2-7.2,8.4-9c3.6-1,6.8,0.1,7.5,0.4c1.7,0.7,3.3,1.7,4.6,2.9
			c1.4,1.3,4.1,2.5,4.2,4.4C194.1,189.5,193.8,190.4,193.3,190.9L193.3,190.9z M193.9,184.6c-1.7,1-4.8-4.4-10.4-5.5
			c-3.8-0.8-7.3,0.6-9.7,2c0.3-0.6,3.2-6.5,8.8-7.2c2.4-0.3,4.4,0.4,5.4,0.7c1.7,0.6,5,1.7,6.2,4.8
			C194.8,181.1,195.1,183.9,193.9,184.6L193.9,184.6z M194.6,175.2c-1,0.8-3.4-2.7-8.3-3c-3.5-0.2-5.6,1.3-6.1,0.5
			c-0.6-0.9,1.5-3.8,4.4-5c0.5-0.2,3.4-1.5,6.2-0.1C194.4,169.4,195.7,174.4,194.6,175.2L194.6,175.2z M196.4,208.6
			c0.4-6.8,2.1-11.8,3.5-15.1c2.6-5.8,6.3-10.4,4.7-12.6c-1.3-1.7-4.7-0.5-5.8-2.6c-0.6-1.1-0.2-2.6-0.1-3.4c0.3-1.4,1-2.4,1.4-2.9
			c-0.3,0.2-1.6,1.2-3,0.8c-1.8-0.5-2.3-3.2-2.4-3.8c-0.5-2.9,1.1-5.4,2.1-7.1c3.4-6,5.8-12.7,8.9-18.9c1.7-3.4,3.7-7,8.7-5.6
			c2.9,0.8,4.3,2.1,2.4,5.4c-3.6,6.2-6.9,12.5-10.3,18.8c-1.3,2.5-2.3,5.1-3.4,7.6c12.8,6.4,12,9.7,10.2,27
			C212.8,202.9,206.5,207.2,196.4,208.6L196.4,208.6z M96.8,406.3c5.2-1.1,7.7,0.8,7.5,6.1c-0.4,9.7-0.5,19.4,3.8,28.4
			c2,4.2,4.4,8.1,6.6,12.2c-10.9-10.6-19.6-22.6-22.1-38C92,411.4,91.7,407.3,96.8,406.3z M66.9,422.2c0.6-0.2,1.1-0.5,1.6-0.7
			c1.3,1.8,2.9,3.4,3.7,5.4c0.4,1.1-0.5,2.8-0.8,4.3c-1.5-0.8-3.9-1.2-4.3-2.4C66.3,426.8,66.9,424.4,66.9,422.2z M57.9,412.5
			c2.2-1.8,4.6-3.4,7.2-5.1c1.8,3.6,1.9,6.9-1.6,9.5c-2.6,2-4,0-5.4-1.8l0,0C58,414.2,57.5,412.8,57.9,412.5L57.9,412.5z
			 M57.8,426.6c-1.4-3-2.1-6.3-2.7-9.5c-0.1-0.4,1.9-1.3,2.9-1.9c1.2,1.9,2.4,3.9,3.7,5.8c0.8,1.2,2.3,2.4,2.2,3.6
			c0,1.8-1.2,3.5-1.8,5.3C60.7,428.8,58.5,428.1,57.8,426.6L57.8,426.6z M68.4,448c-3.5,0.7-8-4.7-7.1-8.6c0.7-2.6,2.9-5.8,5.2-6.8
			c2.6-1.1,5.8,4.2,6.7,9.8C71.7,444.5,70.4,447.6,68.4,448z M76.3,459.9c-1.6-0.4-3.9-3.9-3.5-5.2c0.7-2.2,3.3-3.8,5.3-5.8
			c-1-1.6-2.9-3.9-3.8-6.5c-0.5-1.4,0.2-3.8,1.3-4.8c0.7-0.7,3.2-0.1,4.5,0.6c4.1,2.1,5.9,6.3,4.6,10c5.5-0.6,10.5,1.6,11.3,5.7
			c0.3,1.8-0.8,4.5-2.2,5.9c-2.1,2.2-4.9,1.4-7.4-0.5C82.1,459.7,78.9,460.6,76.3,459.9L76.3,459.9z M103.1,475.6
			c2,1.2,3.6,2.2,6.3,3.9c-1.2-2.5-1.9-3.9-2.8-5.9c2.1-1,4-1.9,5.9-2.8c-0.1-0.4-0.2-0.8-0.3-1.2c-2.6,0.4-5.7,0-7.7,1.2
			c-5.4,3.6-11.9,2.8-15.2-2.6c-0.9-1.4-1.7-2.8-3.1-5c7,0.1,11.7-2,12-11c5.7,3.7,10.2,6.8,14.9,9.8c2.3,1.5,4.7,2.9,7,4.5
			c2.7,1.9,5.5,3.7,7.8,6c1.1,1.1,1.9,3.7,1.3,4.8c-0.8,1.3-3.1,2.2-4.8,2.5c-1.9,0.3-3.9-0.4-5.5,0.3c-1.9,1-3.8,2.9-5.7,2.8
			C108.7,482.7,104,482.2,103.1,475.6L103.1,475.6z M132.4,483.8c0.7,2,1.5,3.9,2.2,5.9c-2.2,0.6-4.4,1.7-6.5,1.5
			c-3.1-0.2-7,0-8.1-4.2c-0.7-2.4-0.8-4.7,3.1-4.2c1.5,0.2,3.2-0.7,4.8-0.6C129.4,482.5,130.9,483.3,132.4,483.8L132.4,483.8z
			 M132.9,616.4c-5.2,4.4-8.7,3.7-12.3-2.5c0,1.8,0.5,3.7-0.1,4.2c-1.7,1.4-3.9,2.1-5.9,3.2c-0.5-1.8-1.9-4.2-1.3-5.4
			c1.5-2.7,4-4.8,6.2-7c1.2-1.3,2.6-2.4,3.3-4.4c-3.6,2.7-7.2,5.4-11.1,8.2c-2.8-4.4-2.9-8.4,0-11.9c5.6-6.8,11.2-13.7,17.2-20.1
			c3.1-3.3,5.1-6.6,6-11.1c4.1-20.1-4-34.8-23.1-42.1c-1.2-0.4-2.5-1.8-2.7-2.9c-0.6-2.9-0.6-5.8-0.8-8.9
			c16.5,1.6,37.5,20.8,40,36.3c1,6.2-0.3,11.9-4.9,16.8c10-3.3,18.1-9.9,24.9-20c0.8-1.2,1.5-2.7,2.6-3.7c4.9-4.1,6.3-8.6,2.5-14.3
			c-0.8-1.2-0.7-3.2-0.5-4.8c0.5-4.2,1.3-8.5,2.1-13.2c-4.2-1.1-8.1-2-11.9-3.1c-3.4-1-3.7-4.8-0.4-9.2c-6.5,2.8-11.6,0.4-16.5-3.4
			c-1.4,3.8-4.1,3.6-6.6,1.9c-0.9-0.6-1.7-2.5-1.4-3.6c0.2-0.9,2.3-2.1,3.1-1.8c3.6,1.2,5.1-0.8,6.3-2.6c-5.2-2.5-10.1-4.8-15-7.1
			c-0.9-3-3.5-6.7-0.4-8.9c1.6-1.1,5.5,0.6,8.3,1.5c4.1,1.3,7.6,3.3,8.9,7.9c0.3,1,1.6,1.9,2.6,2.5c3.8,2,7.6,3.9,11.5,5.8
			c-0.2,0.5-0.4,0.9-0.6,1.4h18c0.4-4.4,3.8-3.3,6.2-1.4c6.6,5,12.8,10.5,19.1,15.8c0.8,0.7,1.4,1.7,2.2,2.6
			c4.5-10.2,12.5-16.9,20.7-23.3c5.1-4,10.5-7.6,15.6-11.7c5-4.1,8.6-9.4,9.6-15.9c1.3-8.8-5.7-15.9-14-14c-2.3,0.5-4.6,2.5-6.1,4.4
			c-1,1.3-0.5,3.7-0.7,5.5c1.5,0.1,3,0.2,5.8,0.4c-1.5,1.5-2.5,3.5-3.6,3.5c-2.1,0-4.7-0.4-6.3-1.6c-3.5-2.9-3.5-8.4-0.8-12.9
			c5.2-8.5,17.6-10.6,27-4.6c8.1,5.2,11,13.1,10.2,22.4c-0.9,10.5-6.1,19.1-13.8,25.9c-6.1,5.4-13.2,9.5-19.6,14.5
			c-3.2,2.5-5.9,5.7-9.3,9.1c-1.1-2.1-2.1-3.9-3.7-7c-2.4,2.9-4.9,5.2-6.4,8.1c-0.7,1.3,0,3.8,0.9,5.3c3,5.2,6.4,10,6.9,16.4
			c0.4,5.3-1.5,10.5,0,16c1,3.7-4.1,6.3-9.3,5.2c0.5,2.8,1.4,5.6,1.4,8.3c-0.1,4.3-1.6,7.6-7.1,6c-1.3-0.4-2.8,0.3-2.9,1.4
			c-0.8,2.7-1,6-2.7,7.9c-1.3,1.4-4.6,0.8-7,1.1c-1.4,0.2-2.8,0.3-4.2,0.5c-3.3,0.3-6.7,0.7-9.1,0.9c0,2,1,5.5-0.2,7.7
			c-1.9,3.2-5.6,4.5-9.7,3.1c-0.6-0.2-1.7,0.3-2.3,0.8c-3.7,3.6-7.6,3.7-10.9,1.3c-1.6,3-2.7,6.4-4.8,9c-2.4,3.1-5,1.9-6.7-1.2
			c-1.5-2.7-2.8-5.6-4.4-9c-1.9,6.1-3.4,11.6-5.2,17C135.2,613.3,134.3,615.3,132.9,616.4L132.9,616.4z M146,608.1
			c-1.9,1.3-3.8,2.7-5.7,4l-1.3-0.9c1-2.2,1.9-4.5,3.4-7.9C144.1,605.6,145.1,606.9,146,608.1z M181.6,750.9
			c-7.7-1.5-11.2-5.3-9.4-12.1C181.5,744.8,183.7,744.3,181.6,750.9z M291.9,801.1c2.1-0.6,4.1-1.2,7.4-2.1
			C297,803.4,295.6,806.4,291.9,801.1z M328.2,800.8c-1.2,1.2-3.9,0.8-5.9,1.2c-0.2-0.5-0.5-0.9-0.7-1.4c1.3-2.5,2.6-5.1,3.9-7.7
			c1.7,0.6,3.5,1.2,5.2,1.8C329.8,796.8,329.6,799.5,328.2,800.8L328.2,800.8z M325.4,792.8c-1.1,0.5-2.8,0.7-3.2,1.6
			c-2.7,5.9-6.8,5.7-11.7,3.2c0.6,0.8,1.2,1.5,2.8,3.7c-4.3,0.4-7.4,1-10.5,0.8c-0.6,0-1.9-4.1-1.5-4.4c1.8-1.3,4-1.8,6.1-2.7
			c-1.3-2.4-2.2-4.6-5.6-1.7c-3.1,2.7-7.1,3.6-11.1,1c-1.5,5.4-6.3,8.1-11.4,6.1c-4.6-1.8-10.2-2.7-11.4-9.1
			c-0.1-0.6-3.4-1.4-4.8-0.9c-6.7,2.4-15.5,0.2-20.5-5.8c1.6-1.4,3.2-2.8,5.2-4.7c-3.5-1.6-6.4-2.9-10-4.5c0.7,4.6-0.7,7.3-5.3,7
			c-5.4-0.4-10-5.4-10.1-11.3c-8.8,4.8-18.5,1.2-21.6-8.3h4.2c-1.7-1.8-3.3-3.6-4.7-5.1c-1.3,1.5-2.8,4.6-4.4,4.6
			c-2,0.1-4.3-2-6.1-3.5c-3.8-3.3-6-7.5-5.6-12.8c0.1-0.9-0.8-2.1-1.6-2.9c-3.3-3.2-6.6-6.2-10.4-9.6c-2.1,1.1-5,4.3-8.6,0
			c-4.6-5.6-4.7-9.8,0.4-17c-4.3,0.2-8.1,5.2-12.1,0c-3.4-4.4-1.8-8.4-0.4-12c-2.5-3.1-4.7-5.8-6.8-8.5c-1.1,0.2-4,1.2-4.3,0.7
			c-1.1-1.8-2-4.3-1.6-6.3c3.4-20.6,16.4-33.7,34.2-42.6c13.8-6.9,29.1-7.9,44.1-10.2c6.2-0.9,12.9-1.5,18.1-4.4
			c12.9-7.2,12.1-20.2,7.3-33c-0.7-1.8-3-2.9-4-4.6c-0.7-1.2-0.4-2.9-0.5-5.1c-6.1-1-5.5-6.6-7.5-11.5c-3.1-7.5-3.3-15.5-5.6-23
			c-0.3-0.9-0.2-1.9-0.3-3.5c20.4,5.2,35.9,17.4,50.6,30.8c15.8-5.8,22.2-18.9,18-35.2c-2.6-9.9-7.3-18.5-16.5-23.2
			c-4.5-2.3-10.2-3.1-15.5-3.2c-6.8-0.1-13.6,1.4-20.4,2c-1.6,0.1-3.2-0.6-5.8-1.2c1.8-2.2,2.9-3.9,4.5-5.2
			c13.7-11.4,29.2-12.5,45.1-6.6c20.3,7.5,34.6,28.7,34.9,50.4c0.1,6-1.9,11-5.8,15.5c-6.3,7.2-13.6,12.8-22.6,16.2
			c-3.7,1.4-4.6,3.5-3.4,7.3c2.9,8.8,6.1,17.6,7.9,26.7c1.5,7.8-2.4,15-5.6,22.7c-1.6-1.8-2.7-3.1-4.2-4.7c-2.2,3.8,5,10.5-4.1,11.5
			c-0.5-1.2-1-2.6-1.3-3.4c-1.1,2.5-1.8,6-3.9,7.9c-2,1.7-5.5,1.6-7.7,2.1c-2.5,2.7-4.5,6.2-7.4,7.5c-1.7,0.8-5-2-7.2-3.8
			c-3.8,0.2-7.1,1.6-9,6c-1.6,3.9-4.9,4.1-8,1c-1-1-2.1-2-3.3-3.1c-3,9.8-5.2,10.7-14,6.2c-1.9,4.3-3.9,9-10,5.8
			c-5.8,9.6-3.9,27.1,3.7,34.4c12.6,11.9,25.3,23.7,41.1,31.4c4.2,2,8.5,3.8,12.9,5.2c1.1,0.3,3.7-0.9,3.9-1.8
			c1.3-5.2,2.1-10.6,3-15.9c1.9-10.8-0.5-20.9-5.9-30.2c-1.9-3.3-1.7-5.3,0.6-8.3c3-3.9,5.2-8.4,7.9-12.9
			c9.9,12.3,20.1,24.8,24.6,40.7c3.8,13.3,5.5,20,5.5,22.3c0,3.7-0.6,9,2.5,11.2c0.5,0.4,3.7,2.5,7.6,3c0.6,0.1,1.7,0.1,2.6,0.9
			c0.9,0.8,1.2,2,1.5,3.6c0.7,3.3,1.9,7,4.1,9.5C332.6,783.3,332.8,785.4,325.4,792.8L325.4,792.8z M306.1,264.6
			c7.7-3.7,14.8-7.1,22.4-10.8C322.6,261,315.7,264.8,306.1,264.6z M258.3,719.7c-6.6-4.2-13.2-8.3-20.2-12.7
			C248.2,703.4,256.6,708.3,258.3,719.7z M370.2,773.1c0.6-1,1.2-2.1,2-3c0.4-0.4,1.3-0.2,1.9-0.3c0.4-0.1,0.8-0.2,1.5-0.4
			c-3.1-1.9-5.1-1.5-6.1,2c-0.8,3.1-3.3,3.6-5.4,2.1c-1.3-1-2.3-3.4-2.1-5.1c0.1-1.8,1.9-3.4,2.6-5.3c1.3-3.2,2.2-6.4,3.4-9.6
			c0.6-1.7,1-3.5,2.1-4.9c9.6-13.2,8.8-23.9-2.5-35.5c-9.7-9.9-25.6-11.8-37-4c-3,2.1-5.6,5.2-7.6,8.4c-2.9,4.6-0.9,9.5,4.3,11.2
			c2.6,0.9,5.5,1.1,8.3,1.3c6.8,0.5,13.6,0.6,20.4,1.2c7.8,0.7,12.2,4.8,12.9,12.7c0.2,1.8-2.1,4.1-3.6,5.7
			c-2.3,2.4-4.9,4.6-7.5,6.7c-2.7,2.2-4.1,0.9-4.7-1.6c-2.2,1-4.5,1.8-6.6,3c-1.1,0.7-4.3,0.9-1.7,3.6c0.2,0.2-0.1,1.3-0.4,1.5
			c-3.3,2.4-6.4,5.3-10.1,6.8c-4.3,1.7-8.8-0.4-10.7-4.2c-1.4-2.8-0.9-7-0.1-10.4c0.3-1.2,3.8-2.6,5.7-2.4c3.7,0.5,7.3,2,11.9,3.4
			c2.4-5.7,4.7-11.2,7.6-18.2c-4.5,0.4-8.1,0-11.4,1c-8.6,2.7-26.2-4.1-29.2-12.4c-1.1-3.1-1-7.3,0-10.6
			c3.5-12.3,16.8-21.8,29.6-23.5c9.7-1.3,19.3-1.7,28.9,0.3c3.8,0.8,7.8,1.8,10.9,3.9c7,4.8,14.1,9.8,19.9,16
			c3.1,3.3,5,8.1,6.5,13.2c3.9,12.8-0.8,22.8-7.4,32.4c-3.1,4.5-8.7,7.1-12.2,11.5c-3.1,3.9-6.8,5-11.1,5.2
			C372,774.7,371,773.6,370.2,773.1L370.2,773.1z M345.6,383c-0.7-5.2,0.8-9.5,3.6-13.1c6.5,3.9,5.6,9.4,3.9,15.3
			c-1,3.5-1.9,7.1,0.4,10.3c0.5,0,1,0,1.5-0.1V380c0.4-0.2,0.8-0.3,1.3-0.5c1.5,1.6,3.1,3.2,4.5,4.9c8.1,10.4,16,20.8,24.1,31.1
			c1.5,2,3.3,3.8,5.1,5.5c8.5,7.8,17.4,8.2,25.8,0.3c3.9-3.7,7.4-8.2,10.1-12.9c9.9-17.7,24.3-29.8,43.6-35.9
			c12.1-3.8,28,6.6,27.6,17.4c-4.9-3-9.8-6.7-15.2-9.3c-5.5-2.6-11.6-3-17.6-0.9c6.6,0.1,13.1,0.1,20,4.9c-3-0.2-4.6-0.3-6.2-0.4
			c14.3,4.3,27.5,18.4,29.7,32.3c-10.1-8.2-15.4-9.9-27-8.1c18.3,0.2,28.4,11.5,38.7,22.5c8.6-7.6,20-8.9,30.5-3.4
			c8.7,4.6,12.1,10.6,11,19.2c-2-7.3-5.9-10.3-13.7-9.2c-4.9,0.7-10,1.9-14.2,4.2c-4.9,2.7-7.4,0.8-10.6-2.5
			c-4.2-4.4-8.6-8.9-13.7-12.1c-23.2-14.6-48.3-7.8-61.7,16.2c-3.4,6.1-7.3,11.8-11.3,17.5c-1.2,1.8-3.4,2.9-6.3,5.4
			c0.3-3.6,0.2-5.7,0.7-7.6c2.9-12.1,5.4-24.4,9.1-36.3c4.8-15.5,15.7-23.8,30.6-24.3c-3.4,2-6.3,3.7-9.2,5.5
			c12.8-6.3,25.4-7.3,37.9,0.7c-3.8-4.3-7.9-7.6-13.8-7.9c-4-0.2-8-0.4-12-0.6c-18.9-1.2-30.5,8.8-35.5,24.7
			c-4.7,15-6.9,30.8-9.9,46.3c-1.1,5.9-2.5,11.3-8.7,14.7c0-1.8-0.1-3,0-4.2c2.6-21,4.4-42.1,12.8-61.9c5.7-13.4,15.1-23.7,25.9-33
			c0.8-0.6,1.5-1.2,2-2.2c-7.6,3.2-13.5,8.5-18.4,15c-17.3,22.9-19.9,50.2-23.6,77.2c0,0.3,0,0.7-0.1,1c-1,11.6-5.6,14.8-16.5,10.2
			c-4.4-1.8-8-5.6-11.8-8.8c-1.6-1.3-2.7-3.3-4.8-4.7c0.4,1.1,0.7,2.2,1.5,4.5c-6.6-4.8-13.3-7.5-16.6-14.6c-4.5-9.8-9-19.7-14-29.3
			c-1.2-2.3-4.1-3.6-6.3-5.4c0.9-2.8,2.2-5.6,2.8-8.4c0.8-4,1.1-8.2,1.6-12.2c-0.5-0.1-1-0.1-1.5-0.2c-3.7,10.3-7.5,20.6-11.2,31
			c-0.7-0.2-1.4-0.4-2-0.5c0.3-2,0.7-3.9,0.8-5.9c0.2-3.5,0.1-7.1,0.4-10.6c0.2-1.6,0.9-3.4,1.7-4.8c2.5-4.1,5.2-8.1,7.8-12.1
			c2-3.1,2.2-6.1-0.3-8.3c-3.3,7-6.6,14.2-10.4,22.3c-0.6-1.8-1.4-2.9-1.1-3.6c2.1-7.5,4.5-14.9,6.6-22.3
			C344.9,387.4,345.9,385.1,345.6,383L345.6,383z M381.2,404.4c13.8,10.3,26.8,5.8,39.8-2.3C411.5,416.6,392.2,417.8,381.2,404.4z
			 M593.7,433.2c0.4,0.3,0.8,0.7,1.3,1c-2.8,4.1-5.6,8.2-8.5,12.3c-0.7,1-2.7,1.5-0.3,2.7c-0.8,1.4-1.4,3.2-2.6,4
			c-3.7,2.5-7.6,4.5-11.3,6.6h5.3c0.2,0.4,0.4,0.7,0.7,1c-2.2,1.6-4.3,3.9-6.8,4.5c-7.2,1.8-14.6,3.5-22,4.3
			c-6,0.7-10.3-2.9-13.2-8.7c5.7,4.2,11.9,6,17.3,1.5c4.6-3.8,7.9-9.1,12.5-14.6c0.5,3.1,0.9,5.6,1.4,9.1c2.2-2.1,4.4-3.7,5.7-5.7
			c5.4-8.2,10.5-16.6,15.8-24.8c1.1-1.7,2.5-3.1,3.7-4.7c0.6,0.4,1.3,0.8,1.9,1.2c-1.4,3.8-2.8,7.6-4.3,11.8
			C591.6,434.2,592.6,433.7,593.7,433.2L593.7,433.2z M578.5,650.7c-2.1-2.7-4.5-5.3-7.1-7.6c-9.4-8.5-19.8-4.2-29.6-1.3
			c-5.5,1.6-10.3,5.5-15.2,8.1c-1.4-9,1.7-19.3,8.3-21.9c14.8-5.9,37.5-4.7,48.6,13.2c5.6,8.9,4.4,17.9-0.5,26.7
			c-0.6,1.1-2.2,1.6-3.3,2.4C584.8,661.9,584.7,658.7,578.5,650.7L578.5,650.7z M514.6,444.3c1.9,3.3,3.7,6.6,5.6,9.8
			c2.2,3.7,4.2,7.6,6.9,10.9c1.5,1.8,3,6.1,7,2.9c0.2-0.1,0.9,0.3,1.3,0.6c8.4,6.6,17.6,4.4,26.8,2.6c1.2-0.2,2.4-0.5,4.4-0.9
			C545.2,488.3,524,477.7,514.6,444.3L514.6,444.3z M506.8,524c11-13.9,10.9-30.1,10.5-46.4C522.5,500.5,517.4,521.9,506.8,524z
			 M510,537.6v18.7c-0.3,0-0.5,0-0.8,0c-0.3-6.2-0.6-12.4-0.9-18.7C508.9,537.6,509.5,537.6,510,537.6L510,537.6z M497.4,521.8
			c10.3,6.7,10.8,23.2,2,31.5c-4.8,4.5-10.4,4.6-15.1,0.2c-4.5-4.2-4.5-8.7-0.6-14.1c2.6-3.5,4.7-7.4,6.3-11.6
			c-3.5,4.6-6.8,9.3-10.6,13.7c-4.2,4.8-7.6,5.2-13.4,2.2c-8.1-4.3-11.6-11.8-11.7-20.2c-0.1-9.1,1.1-18.2,2.4-27.2
			c1.4-9.3,1.9-18.5-0.7-29c-1.5,12.8-2.8,24.3-4.2,35.9c-12.1-4-18.7-21.7-12.5-31.8c3.2-5.2,5.9-10.8,8.6-16.3
			c4.5-9,8.8-18,17.6-23.7c14.3-9.3,31.4-5.7,39.3,9.2c10.3,19.2,13.5,39.6,6.2,60.8c-1.3,3.9-3.7,7.5-6,10.8
			c-3.4,4.9-8.2,4.9-12,0.2c-1.4-1.7-2.4-3.6-3.5-5.5c-1-1.7-1.8-3.5-2.7-5.3C488.7,509.1,489.5,516.7,497.4,521.8L497.4,521.8z
			 M550.8,461.6c2.8-3.8,5.6-7.6,8.5-11.4l1.5,1.3c-2.9,3.7-5.8,7.4-8.7,11.1L550.8,461.6L550.8,461.6z M386.3,546.4
			c2.5,1.7,5.5,2.9,7.3,5.2c2.4,3,4.9,6.5,5.5,10.1c1.2,7.2-1.5,10.5-7.4,11.1c-6.8,0.7-12.5-3.4-13.4-9.7c0-0.2,0-0.3,0-0.5
			c1.5-22.8-2.6-45.7,2-68.3c0.1-0.3,0.3-0.6,0.5-1c0.4,0,1.1-0.1,1.3,0.1c6.7,8.9,14,17.3,19.5,26.8c2.5,4.2,2.2,10.7,1.5,15.9
			c-1.1,8.2-7.2,10.1-13.8,4.9c-3.5-2.7-6.5-6-9.8-9.2C379,538.1,381.1,542.9,386.3,546.4L386.3,546.4z M383.9,585.8
			c0.4-0.2,0.7-0.3,1-0.5c4.2,8.4,8.3,16.7,12.5,25.1c-0.7,0.3-1.5,0.7-2.2,1L383.9,585.8L383.9,585.8z M390.8,627.6
			c-0.5,0.3-1,0.6-1.5,1c-2-2.5-4.5-4.8-5.8-7.6c-3.9-9-4.5-23.3-1.8-38.4C384.9,598.2,387.8,612.9,390.8,627.6z M349,425.7
			c1.2,7.1-3.1,11.7-7.2,16.5c-0.5-0.2-1-0.5-1.5-0.7c1.5-2.5,3.2-4.9,4.6-7.4C346.3,431.3,347.6,428.5,349,425.7z M351.8,432.1
			c1.9,4.1,3.6,7.6,4.9,11.2c0.2,0.6-1.4,2-2.3,2.9c-4.2,3.9-8.5,7.8-12.6,11.5C339.6,454.6,343.1,444.2,351.8,432.1L351.8,432.1z
			 M373,526.4c-0.5,0.1-0.9,0.2-1.4,0.4c-1.9-2.5-4.1-4.8-5.5-7.5c-8.4-15.5-12.5-32.2-12.1-49.9c0-1.8,0.2-3.7,0.7-5.4
			c1.2-4.7,5.3-5.9,8.5-2.1c2.4,2.9,4.3,6.3,6,9.7c7.4,14.7,8.8,30.2,5.6,46.2C374.1,520.6,373.6,523.5,373,526.4L373,526.4z
			 M373,543.8c-16.9-15.2-19.8-35.4-20.5-56.3C355.8,507.6,359.7,527.4,373,543.8z M431.9,810.9c-2.6,0.5-5.3,1-8,1.5
			c-0.3-0.4-0.5-0.8-0.8-1.2c1.7-1.4,3.2-3.2,5.2-4c0.9-0.3,2.5,1.3,3.9,2.1C432.1,809.9,432,810.4,431.9,810.9L431.9,810.9z
			 M481.2,795.9c0.2,6.9-2,9.3-8.8,9.9c-3.6,0.3-6.2-0.7-6.1-5.2c-4.2,1.3-8.5-4.1-12.5,0.5c3.2-2.3,6-1.3,8.2,1.5
			c0.5,0.7,0.1,3-0.7,3.7c-2.5,2.4-5.4,4.7-9.2,3c-0.7-0.3-1.3-2.2-1-3.1c0.5-1.7,1.7-3.2,2.6-4.8c-2.3,2.3-4.6,4.7-7,6.9
			c-4.8,4.3-11.6,3.5-15.2-1.8c-0.7-1-0.5-2.6-0.8-4.2c-1.2-0.2-2.8-0.4-4.9-0.7c0.7,1.1,1.4,2,2.4,3.5c-5.8,1.6-10.8,6.4-17.3,0.6
			c0.9,1.9,1.4,3,2.2,4.8c-2.4,1-4.8,2.7-6.9,2.5c-2.1-0.2-3.9-2.5-6.4-4.2c3.8-2.7,6.4-4.6,9-6.5c-4.6,1.8-10,0.8-13.7,5
			c-2.5,2.8-8.2,2.2-11-0.6c-2.9-2.9-1.9-5.8,0.3-8.5c5.3-6.3,11.1-12.1,16-18.7c4.4-6,10.3-7,17-7.5c13.9-1.1,27.8-2.4,41.6-4.2
			c5-0.7,9.9-2.8,14.6-4.9c5.1-2.2,6.1-6.5,2.1-10.3c-6-5.6-13-9.5-21.9-9.9c-14.6-0.6-23,9.4-32.9,17.1c-0.7,0.6-1.1,1.7-1.5,2.6
			c-1.4,3.9-3.7,3.7-7.1,2.4c-3.9-1.4-3.9-3.6-2.4-6.5c8.1-16.6,26.1-31.4,49.8-29c3.1,0.3,6.2,1.4,9.3,1.7
			c7.6,0.8,10.5,6.8,13.8,12.3c0.5,0.9,0.8,2.4,0.5,3.3c-3.5,9.4,1.2,17.5,3.6,26c0.9,3.2,1.6,6.4,2.2,9.6
			C490.2,789,487.7,793.6,481.2,795.9L481.2,795.9z M522.3,766.3c-1.9-1.2-3.2-1.2-3.9-0.9c-1.1,0.4-1.3,1.2-2.5,1.5
			c-1.3,0.3-1.7-0.6-3.2-0.5c-1.5,0.1-1.7,1-3.4,1.4c-0.2,0-2,0.4-3.5-0.4c-1.5-0.8-1.5-2-3.2-5.4c-1.2-2.4-2.7-5.5-3.8-5.3
			c-0.6,0.1-1,1.2-0.9,2c0.1,1,1.1,1.5,1.8,2.1c1.8,1.7,2.5,5,1.7,6.6c-1.2,2.2-6,2.5-9.5,1.1c-5.9-2.4-9.6-10.5-8.4-16
			c0.2-0.7,0.4-3.4,1.8-6.7c1.5-3.7,1-6.5-1.9-9.5c-1.5-1.6-2.1-4.8-1.8-7c0.4-3.2,2.2-6.2,3.2-9.4c0.7-2.2,1-4.5,1.5-6.7
			c-0.5-0.1-0.9-0.2-1.4-0.3c-0.5,2.1-1.1,4.2-1.6,6.2c-0.5,0-0.9-0.1-1.4-0.1c0-3.8-1.1-8,0.2-11.3c4.9-12.8,3.2-25.9,2.7-39
			c-0.1-1.5-0.5-3-0.4-4.5c0.5-12.9-3.4-24-12.4-33.6c-6.9-7.3-7.9-16.8-6.5-26.3c1.5-10.3,4-20.5,6-30.8c0.5-0.2,1.1-0.4,1.6-0.6
			c2,2.8,4.4,5.4,5.8,8.5c5.9,13,9.6,26.6,10.4,40.9c0.1,1.3,0.2,2.6,0.6,3.9c0.7-13.3-0.7-26.2-5.5-38.7c-2-5.1-4-10.2-5.7-15.4
			c-1.3-3.8-3-6.7-6.9-9c-5.7-3.2-9.7-8.4-11.7-16c13.2,11,25.6,21.3,37.7,31.4c2-7.5,4.3-15.9,6.5-24.2c0.6,0.1,1.2,0.3,1.8,0.4
			c-1.9,15.6-3.8,31.2-5.7,46.9c6.2-11.4,8-24,11-36.6c0.9,3.8,1.8,7.6,2.8,11.4c0.2,0,0.3,0,0.5,0.1V566
			c12,15.5,17.8,32.7,15.7,52.2c-0.2-2.8-0.3-5.5-0.7-8.3c-0.4-2.8-1.1-5.6-1.7-8.4l-1.2,0.1c-0.2,1-0.5,2.1-0.6,3.1
			c-1.6,26-8.6,50.8-16.4,75.5c-2,6.4-2.3,13.3-3.4,20c-0.8,5.2-1.6,10.5-2.4,15.8c-0.6,0-1.1,0.1-1.7,0.1c1.8,1.6,3.7,3.2,5.5,4.8
			l0,0c9.5,20.2,15.2,28.1,18.9,31.2c0,0,5.2,4.5,5,8.5c0,0.5-0.1,1.7-0.9,2.2c-0.6,0.4-1.1,0.2-2.1,0.5c-1,0.3-1.5,0.8-2.1,1.3
			C525.6,765.3,524.3,766,522.3,766.3L522.3,766.3z M507.6,701.9c2.1,6.3,2,12.6,0.1,18.9c0.1-2.7,0.5-5.5,0.4-8.2
			C508,709,507.6,705.4,507.6,701.9L507.6,701.9z M574.7,792.3c-2.6,7.3-7.3,13.4-14.2,16.7c-6.3,3-11.8,3.6-15.5,3.8
			c-14,0.7-27.8-5.1-27.4-8.1c0.2-2,6.9-0.9,19.7-4.9c9.6-3,17.1-5.4,23.3-12c5.5-6,7.2-12.5,10.4-12c2,0.3,3.2,3.3,3.8,4.9
			C576.7,785.6,575.4,790.2,574.7,792.3L574.7,792.3z M580.2,735.6c1.3-4.5,3.5-7.7,8.9-6.7c1,2.2,1.9,4.4,2.8,6.6
			C586.8,739.5,584.9,739.5,580.2,735.6L580.2,735.6z M626.8,755.2c-0.2-2.3,15.4-1.9,33.4-13.7c15.2-10,20.7-21.1,22.4-20
			c2.2,1.4-2.5,20.4-17.1,30.2C649.1,762.8,627.1,757.9,626.8,755.2L626.8,755.2z M710.4,418.1c3.8,8.5,6.8,17,4.8,26.5
			c-1.5,6.9-4.5,12.9-10.3,17.1c-1.8,1.3-4.2,1.9-6.3,2.8c-0.3-0.4-0.6-0.8-1-1.2c1.2-2.3,2.4-4.6,3.4-6.9
			c2.4-5.5,5.2-10.8,6.8-16.5c2.3-8.5-0.5-13.8-7.8-18.2c-1.4-0.8-2.6-2.6-3-4.2c-2.7-10.4-6.9-20.2-13.7-28.6
			c-3.5-4.4-0.7-8.1,0-12.1c7.9,0.9,15.6,1.8,23.4,2.7c0,0.5,0,1.1-0.2,1.7C700.8,394.2,705,406.2,710.4,418.1L710.4,418.1z
			 M677,362.1C677,362.1,677,362.1,677,362.1c-0.1,0-0.3,0-0.4-0.1C676.7,362.1,676.9,362.1,677,362.1z M621.1,432
			c0.6-0.2,1.3-0.2,1.9-0.2c0.2-2.5,0.3-5,0.5-7.5c0.4-0.4,0.9-0.7,1.3-1c2.2,9.7,7.5,14.4,17.2,11.5c-8.4,5.5-18.3,4.8-23-1.5
			C619.7,432.7,620.3,432.3,621.1,432L621.1,432z M620.2,464.1c10.8-4.8,21.7-9.4,30.3-18c4.9-4.9,8.1-10.5,9-17.4
			c0.6-5,4.2-7.7,8.6-7.4c4.6,0.4,7.9-1.8,11.6-3.3c1.3-0.5,2.8-0.6,4.2-0.9c0.3,1.4,0.6,2.8,0.8,4.2c1,9-2.7,16.5-7.4,23.7
			c-1.3,1.9-2.6,4.5-4.5,5.2c-6.6,2.5-9.8,8.8-15,12.7c-3.8,2.9-9,3.7-12.9,6.4c-5.5,3.8-12.7,3.4-17.6,9c-2.9,3.3-9.1,3.8-13.7,5.7
			c-1.4,0.6-3,1.3-3.9,2.4c-3.9,5.2-8.2,10.4-11.2,16.1c-1.6,3-4.2,6.3-2.3,10.7c0.9,2-0.3,4.9-0.6,7.4c0,0.5-0.5,1-0.4,1.4
			c4,8.6-0.6,17.6,1,26.3c0.7,3.6,1,7.3,1.9,10.8c4.3,16.9,15.1,27.3,31.7,32.9c20.2,6.8,36.3,19.4,47.1,37.9
			c3.5,6,6.2,13.2,6.7,20.1c0.5,6-1.2,13.1-4.4,18.2c-5.9,9.2-13.6,17.1-20.5,25.7c-0.8,0.9-1,2.8-0.7,4c1.6,7.3-4,14.3-11.5,13.8
			c-0.5,0-1-1.1-1.1-1.3c-2.8,1.6-5.3,3-7.2,4.1c0.1,1.5,1,3.5,0.3,4.8c-1.9,3.9-5.4,6.7-9.6,5.5c-2.4-0.7-3.9-4.2-5.6-6.2
			c-0.1,0.6-1.1,2.5-0.7,4.1c1.3,5.4-2.3,7.5-6.1,8.6c-4.3,1.2-8.3-0.1-9.8-5.7c-1.4,2.2-2.2,4.2-3.6,5.5c-5,4.5-6.8,4.1-13.6-2.3
			l0,0l0,0c0,0-0.1-0.1-0.2-0.1c0,0,0,0.1,0,0.1c-2.2-0.7-4.3-1.3-5.5-1.7c-3.9,2-8.6,2.8-9.9,5.4c-1.8,3.6-4,2.8-6.5,2.8
			c-5.1,0-6-1.3-4.6-6.7c-2.6,0.7-5.1,1.1-7.3,2c-5.4,2-8.4,0.8-10.7-4.4c-0.6-1.3-2-2.2-3.1-3.3c-0.3-0.3-1.1-0.3-1.3-0.7
			c-2.3-5.3-4.8-10.6-6.7-16c-0.6-1.6,0.5-3.8,0.6-5.7c0.2-8,4.6-11.4,12.4-9c15.2,4.6,30.5,6.9,46.3,4.2c11.5-2,21.5-7,29.3-15.8
			c4.8-5.5,6.6-11.9,5.2-19.1c-1.3-6.8-2.8-13.7-4.3-20.8c-9.8,2-6-9.1-11.5-12.4c0.2,1.7,0.4,2.8,0.6,4.1c-4.6,0.7-6.7-1.4-7-5.6
			c-0.3-3.4-4.3-8-7.5-7.7c-5.6,0.5-7.8-2.8-9.2-7.3c-1.3-4-1.5-8.4-8.1-7.2c-1.5,0.3-4-4-5.9-6.3c-1.1-1.3-1.9-2.9-3.1-4.1
			c-2.2-2.3-5.3-4-6.7-6.6c-2.6-4.8-4.6-10.1-6.3-15.3c-0.7-2.2-0.1-4.9-0.1-8.6c-3.9-4.2-2.5-10.8-1.9-17.1
			C559.7,505,584.3,480,620.2,464.1L620.2,464.1z M611.5,375.1c1,3.6,1.6,4.9,3.3,11.2c1.2,4.3,0.8,3.5,1.6,6.3
			c1.6,5.4,2.3,6.4,2.1,8.8c-0.1,1-0.3,4.5-2.6,6.1c-0.8,0.6-1,0.5-2.3,1.3c-1.8,1-1.6,2-3.3,2.7c-0.7,0.3-1,0.2-1.7,0.6
			c-0.8,0.5-1.1,1-1.6,1.6c-0.3,0.3-2,2.2-4,2.3c-1.5,0.1-2.1-0.9-3.2-0.4c-0.7,0.3-1,0.9-1.3,1.2c-2.2,2.6-15.2-1.6-15.2-6.1
			c0-1.3,1.1-2.5,2.2-3.1c2.8-1.3,6.1,1.6,6.9,0.7c0.4-0.5-0.3-1.8-2-4.5c-2.8-4.5-3.4-5-4.3-6.5c-3.1-5.4-2.2-10.2-3.5-10.1
			c-1.4,0-2.4,3-3.1,5.1c-1.9,5.6-0.3,8.1-2.2,14.1c-1.2,3.7-2.3,4.7-3.2,5.2c-1.8,1.1-4.7,1.3-6-0.1c-0.5-0.6-1-1.5-0.7-4.4
			c0.4-5.1,1.9-6.9,2.7-11.6c0.1-0.8,0-0.3,0.4-6.3c0.4-6.2,0.5-9.4,1-10.6c0.6-1.5,1.1-1.8,6.6-7.9c3.9-4.3,5.9-6.5,6.2-7.2
			c1.4-2.9,2.1-7.1,0-14.9c-1-3.9-1.4-7.9-2-11.8c-1-5.8-2.2-10.4-8.8-13.8c-9.4-4.9-11.1-15.5-12.5-25.5
			c-0.9-6.6-2.1-13.3-3.1-19.7c0.5,0,2.1-0.2,3.7-0.3c-1.1-5.2-2.3-10.5-3.4-15.7c-9.8,4.2-18.8,1.7-26.6-4.4
			c-11.7-9.2-18.7-22-24.9-35.1c-2.2-4.8-0.5-7.3,4.9-7.5c8.3-0.3,16.5-0.1,24.4-0.1c-10.6-8.9-24.6-7.9-36.4-9.9
			c-1.6,2.8-2.3,5-3.7,6.4c-5.6,5.5-11.3,10.8-17.2,16c-6.7,5.8-14.5,9.5-23.4,10.1c-8.3,0.6-16.6,1.3-24.9,1.4
			c-8,0.1-10.6-1.5-12.6-2.8c-3.4-2.2-4.7-4.9-5.4-4.5c-0.9,0.5,0.5,6.5,4.8,9.5c2.1,1.5,4.4,1.9,5.4,2c10.1,1.1,20.3,1.9,30.3,1.4
			c8-0.4,16-2.9,23.9-4.5c4-0.8,8.1-1.6,12.1-2.5c5-1.1,10.1-2.3,15.9-3.6c3,9.2,5.4,19.2-0.7,28.8c-1.7,2.7-5.3,4.2-8,6.3
			c-2.2,1.8-4.3,3.6-6.5,5.5c4.1,2.2,9,0.6,14.9-4.7c-0.4,1.4-0.4,3.2-1.2,4.2c-3.8,4.7-7.9,9.2-11.9,13.9c0,0-0.1,0-0.1,0
			c0,0,0,0.1,0,0.1l0,0l0,0l0.1-0.1c-1,1.3-1.7,3.1-3,3.9c-7.1,4.8-14.4,9.3-21.6,13.9c-0.8,0.5-1.7,1-2.4,2.5
			c6-0.9,12-1.8,17.7-2.7c0.8,4.9,1.6,9.6,2.5,14.2c2.6,13.6-1.7,20.9-14.9,25c-3.5,1.1-7.1,2-10.7,2.5c-7.9,1.2-12.2,6-14.8,15.1
			c9.8-10.4,21.1-10.7,32.5-10.5c0.2,0.6,0.4,1.3,0.6,2c-6.1,2.1-12.1,4.3-18.2,6.4c0.1,0.2,0.1,0.5,0.2,0.7
			c5.4-1.3,10.7-3.4,16.1-3.5c5-0.1,11.3-1.7,15.5,5.3c-2.2-0.4-3.4-0.6-5-1c0.4,2,0.8,3.8,1.2,6.2c-22.4-2.4-38,10.7-54,22.9
			c-9.4,7.2-18.9,13.7-30.8,15.6c-10.1,1.6-19.4-0.9-26.1-8.2c-8.3-9-15.4-19.2-22.9-28.9c-1.7-2.2-3.2-4.5-4.8-6.7
			c0.4-0.4,0.7-0.8,1-1.2c1.5,1.1,3.4,1.9,4.6,3.3c5.1,6.1,9.9,12.5,15.1,18.6c16.7,19.3,38,16.5,54.4,7.5
			c9.8-5.4,19.2-11.4,28.6-17.4c8.8-5.6,18.4-8.5,28.6-9.7c0.8-0.1,1.6-0.5,2.3-1.4c-8.7,0.4-17.3,1.2-25.1,5.4
			c-10.2,5.6-20.2,11.5-30.4,17.2c-3.3,1.9-6.8,3.5-10.3,5c-17.7,7.5-33.5,4.8-47-9.3c-5.2-5.4-9.9-11.2-15.1-16.6
			c-1.7-1.8-4.1-3-6.9-5c0.2-0.3,0.8-1.5,1.7-2.5c2.7-2.8,5.6-5.4,8.3-8.1c2.1-2.1,6-0.7,7.9,3c0.8,1.5,1.1,3.1,1.9,4.6
			c0.7,1.4,1.5,2.8,2.7,4.9c0-6.9-0.5-12.1-7.2-15.1c-2.3-1-4.8-5.5-4.4-8c0.7-5.2,2.8-10.4,5-15.3c1.2-2.8,3.6-5.1,5.7-7.6
			c4.9-6,7.9-12.4,3.5-21.5c3.1,2.7,4.3,6.4,7.8,3.7c0.4,1.5,1.2,3.2,0.8,4.5c-2.1,6.5,1.7,10.3,6.3,14.4
			c6.6-4.5,15.7-4.9,22.2-12.1c-5.2,1.6-9.4,3-13.7,4.1c-10.5,2.7-14.8-1.3-13.3-12.2c0.1-1,0.4-1.9,0.6-2.8
			c7.1-6.9,15.7-9.5,25.9-7.8c0.4-2.8,0.8-5.3,1.1-7.7c-2.1,1-3.9,2.3-5.8,2.8c-5.6,1.5-11.4,2.3-17,4c-5.3,1.6-8.3-1-10.9-4.8
			c-2.4-3.6-0.2-6.6,2-9.4c1.2-1.5,2.5-2.9,3.8-4.3c-1.1-0.1-1.8,0.2-2.2,0.7c-3.6,4.3-7.3,7.5-12.2,1.6c-0.3-0.3-1.1-0.2-1.8-0.2
			c-0.5-2.3-0.9-4.7-1.4-7.2c6.3-0.7,15.3-2.5,24.8-7.5c10.3-5.4,18.5-13.3,17.9-14.2c-0.3-0.5-2.6,1-12.8,5.2
			c-1,0.4-7.4,2.2-15.2,5.1c-6,2.2-11.1,0.6-15.8-3.3c-5.5-4.6-11-9.2-16.5-13.7c-4.4-3.6-6-4.8-6-6.9c-0.1-4.3,6.7-7.2,6.1-8.4
			c-0.3-0.6-2.2-0.2-9.3,1.8c-8,2.2-9,2.6-9.1,3.4c-0.3,2.8,12.3,4.7,12.6,9.9c0.1,1.4-0.8,2.5-1.2,3.1c-6.9,8.7-39.1,13-39.5,13.1
			c-9.9,1.3-24,4-41,10.1c7.5,4.7,14.5,4.8,21.5,1.2c3.4-1.7,14-4.2,25.8-4.2c3.4,0,6.1,0,6.3,0.8c0.4,1.8-14,5.8-24.3,8.7
			c-13.3,3.7-16.9,3.4-21,2.6c-3.1-0.7-6.2-1.9-9.4-3.8c-2.9-1.8-6.6-2.1-10-3c-12.4-3.4-22.9-9.7-31.5-19.3
			c-4.6-5.2-9.5-10.3-14.2-15.5c-0.8-0.9-1.8-1.7-2.2-2.7c-0.6-1.7-1.4-3.8-0.9-5.4c0.2-0.8,2.9-0.9,4.4-1.3v-4
			c1.3,0.3,2.8,0.3,4,0.9c1.7,0.8,3.3,1.9,5.4,2.2c-1.7-1.4-3.5-2.8-5.5-4.4c1-1.2,1.9-2.2,2.6-3.2c3-4.4,5.7-3.7,10.2-1.1
			c7.1,4.1,15.1,6.6,22.9,9.3c4.5,1.5,9.5,1.9,14.2,3c8.5,2,16.1,5.5,21.1,13.8c1.8-1.6,3.4-2.8,4.7-4.2
			c7.6-8.2,17.3-11.7,28.2-11.8c3.8-0.1,6.1-1.4,8.3-4.3c7.8-10.2,16.5-19.3,29.3-23.1c1.4-0.4,2.9-1.2,4.3-1.1
			c2.6,0.1,6-0.3,7.7,1.2c2.8,2.3,3.6,5.9,1,9.4c6.1,1.2,7.9,3.7,6,9.4c-1.1,3.2,0.4,3.9,2.9,4.2c4.6,0.5,8.6-0.7,11.3-4.8
			c0.8-1.2,1.6-2.4,2.5-3.6c8.7,4.5,11.8,2.8,13.4-6.9c0.3-1.6,1.6-3.1,2.6-4.5c1.1-1.6,2.3-3.1,3.5-4.6c2-2.5,2.1-3.6,3-3.7
			c1.5-0.1,2,2.7,3.4,2.6c2-0.1,4.5-6.1,2.6-9.6c-0.5-1-1.2-1.3-1.5-2.6c-0.3-1.4,0.2-2.8,0.7-4.6c1.4-5.5,1.9-11.4,1.7-17
			c-0.2-4.9-2.2-9.7-3.2-14.6c-0.2-1.2,0.2-3.6,0.6-3.7c1.5-0.2,3.2-0.1,4.6,0.6c9,4.7,16.9,10.6,20.1,20.9c0.2,0.6,0.7,1.1,1.8,2.6
			c-0.6-3-1.1-4.9-1.6-7.3c17.1,2.1,34.2,1.2,50.3,7.7c4.1,1.7,8,2.9,12.9,1c6.1-2.4,12.3-0.3,17.7,2.8c15.6,9.1,25.2,22,25,40.9
			c0,4.1,0,8.2,0,12.4l1.7,0.2c1-5,2-9.9,3.2-15.6c11,10.7,21.6,20.7,25.1,35.9c1.8,7.7,7.1,13.1,13.1,17.7c5,3.9,7.3,8.5,5,15.9
			c-2.1-3.8-3.8-6.9-5.5-9.9c-0.3,0.1-0.6,0.3-0.8,0.4c2.3,5.8,4.1,11.8,6.9,17.4c7.2,14.5,10.7,29.3,5.9,45.4
			c-0.5,1.9-0.5,3.9-0.5,4.7c10.4-17.8,3.9-35.9-4.5-53.8c0.7-0.2,1.4-0.4,2.1-0.6c0.9,1.4,1.8,2.8,2.6,4.1
			c3.3,5.1,16.4,27.2,14.6,53.7c-0.8,11.7-4.4,22.1-2.8,32.9C610.4,370.8,611.6,375.2,611.5,375.1L611.5,375.1z M367.3,268
			c2,1.9,3.8,4,6,5.5c2.3,1.6,2.2,3.3,1,5.3C366.1,276.4,364.8,276.5,367.3,268z M381.2,296.8c-0.7-4.3-4.5-3.9-8.1-5.2
			c-3.2-3.8,0.8-8.1,1.1-12.6c0.6,0,1.5-0.1,1.7,0.2c2,2.7,4.1,5.5,5.9,8.4c1,1.7,1.6,3.6,2.4,5.5
			C383.2,294.2,382.2,295.5,381.2,296.8L381.2,296.8z M710,573c-3-3-5.9-5.9-8.5-9c-0.6-0.7-0.3-2.9,0.3-3.6
			c3.8-4.2,7.9-8.2,12.4-12.8C712.7,556.7,711.4,564.2,710,573L710,573z M706.5,507c-0.6-0.2-1.4-1.2-1.4-1.7c0.1-1,0.5-2.5,1.2-2.9
			c3.4-1.5,6.9-2.6,10.6-4C716.5,503.5,710.3,508.2,706.5,507L706.5,507z"/>
		<path d="M695.2,299c0.5,0,2,0.1,3.8-0.7c1.9-0.8,3.1-2.2,3.9-3.3c-2.1-1.2-5.1-2.5-8.6-2.5c-8.9-0.1-15.4,7.8-16.4,6.8
			c-0.5-0.4,0.5-2.6,5.8-9.4c-5.5,1.4-9.7,3.5-12.5,5.1c-0.6,0.4-5.9,2.8-10.2,8.2c-1.6,2.1-3,4.4-4.1,6.8c-0.5,1.1-0.1,2.7-0.1,4.1
			c1.2-0.2,2.5-0.1,3.6-0.6c5-2.1,8.5-3.3,11.8-5.2C675.3,306.6,688.6,298.9,695.2,299L695.2,299z"/>
		<path d="M180.9,361.2c-1.3-3.8-9.4-5.7-14-6.6c-5.2-1-12.2-2.1-20.8-2.2c-0.2,4.2,4,5,6.7,7.2c1.7,1.4,3.7,3.3,4.3,5.3
			c1.8,6.3,6.1,9.6,13.2,9.2c-11.7-4.6-14-8.7-9.2-14.9c1.7,2.9,3.1,6.6,5.6,9c2,1.9,5.6,3.3,8.3,3.1c4.7-0.2,9.3-1.8,15-3
			c-2.4-2.8-3.6-4.2-5.3-6.3c0.4,2.2,0.5,3.4,0.7,4.5c-0.7-0.3-1.7-0.8-2.6-1.8C181.5,363.4,181.1,361.7,180.9,361.2L180.9,361.2z"
			/>
		<path d="M651,346.6c7.8,0.6,11.3-1.1,13.1-5.3c1.7-3.8,3.9-7.4,5.9-11.2c0.6-1.2,1.2-2.5,1.8-3.9c-3.9,0.5-7.2,1-10.5,1.3
			c-10.9,0.8-20.3,4.4-27.3,13.8c1.5,0,3,0.5,3.7-0.1c3.3-2.5,6.2-0.8,9.5-0.1c2.7,0.6,5.6,0,8.4-0.1c-1.6-2.1-2.4-3.1-3.6-4.7
			c2.6,0.2,4.6,0.9,5.6,0.2c1.1-0.8,1.2-2.9,1.8-4.6C665.4,340.2,663.8,343.1,651,346.6L651,346.6z"/>
		<path d="M650.6,313.6c5.6-7.4,11.3-14.9,16.5-21.7C654.4,295.6,648.7,303.1,650.6,313.6z"/>
		<path d="M235.6,375.1c-1.2-1.5-4.3-1.9-6.6-2c-0.4,0-2.1,3.6-1.5,4.9c1.3,3.1,3.6,5.7,5.8,9.1
			C238.1,382.5,238.2,378.6,235.6,375.1L235.6,375.1z"/>
		<path d="M549.1,157.8c-0.5,0.8-0.1,1.1-0.2,3.9c-0.1,2.5-0.5,3.4,0.2,4c0.7,0.6,1.9,0.2,2.1,0.2c2.7-0.9,4.2-5.4,3.1-8.2
			c-0.3-0.8-0.7-1.1-0.9-1.2C552.1,155.7,550,156.4,549.1,157.8L549.1,157.8z"/>
		<path d="M574,135.9c-2.5,2.6-5,5.2-8,8.3C573.3,142.4,573.6,142.1,574,135.9z"/>
		<path d="M429.5,306.2c-7.4,0.5-12.2-2.8-14.4-9.9c-0.1-0.2-0.4-0.4-0.9-0.8c-3.8,6,1.7,11,1.5,15.6c6.2-0.4,12.3-0.3,18.2-1.3
			c4.6-0.8,9.2-2.4,13.3-4.6c1.9-1,2.6-4.4,3.8-6.7c-0.4-0.3-0.9-0.5-1.3-0.8C444.1,303.6,437.1,305.7,429.5,306.2L429.5,306.2z"/>
		<path d="M415.7,284c8.4-4.7,22.5-3.5,31.2,2.6c2.8-2.5,5.7-5,8.6-7.5c-5,0.9-9.1,2.7-13,2.2c-7.6-0.9-15.1-3.2-22.7-4.6
			c-2.9-0.5-4.5-1.7-5-4.5c-0.3-1.6-0.6-3.3-0.9-4.9c-0.3-1.5-0.7-2.9-1.3-5.6C409.9,270.7,413.5,277.2,415.7,284L415.7,284z"/>
		<path d="M493.1,261.1c2.2-0.6,5-0.5,6.4-1.8c4.1-4.2,3.5-9.5,2.1-15.9c-0.4,1.8-0.6,2.4-0.6,3c-0.7,6.5-4.1,10.4-10.2,11.9
			c-0.5,0.1-0.9,0.5-1.3,0.8c-3.1,2.2-6.2,4.4-9.3,6.5C485.2,269.5,485.6,269.4,493.1,261.1L493.1,261.1z"/>
		<path d="M476.3,288.6c0.2,0.6,0.4,1.3,0.6,1.9c2-0.1,4,0,6-0.4c2.9-0.6,5.6-1.5,8.4-2.3c-0.5-2.4-1-4.9-1.7-7.9
			C484.6,283.2,480.4,285.9,476.3,288.6L476.3,288.6z"/>
		<path d="M482.9,251.2c2.6-2.3,2.8-3,1.5-6.1c-4.8,2.6-9.7,5.3-14.9,8.1C473.7,255.8,478.4,255.1,482.9,251.2L482.9,251.2z"/>
		<path d="M469.6,284c5.7-3.8,12.2-6,16-12.7C478.8,271.6,471.8,277.3,469.6,284z"/>
		<path d="M452.1,295c0.9,2.5,1.5,4.4,2.2,6.6c6.2-4.3,14.9-4.6,15.7-15.2C465,292.5,460.7,298.1,452.1,295z"/>
		<path d="M449.6,316.3c-5.5,2.8-11.6,6-17,8.8C439,327.9,448.3,322.9,449.6,316.3z"/>
		<path d="M400.1,326.6c5.1-0.9,10.2-1.8,15.5-2.8C411.2,320,402.4,321.8,400.1,326.6z"/>
		<path d="M472.1,260.9c-3.6,2.5-6.6,4.6-10.5,7.3C469,268.9,472.9,266.1,472.1,260.9z"/>
		<path d="M464.5,249.8c-2.8-0.1-8.3,3.5-16.6,10.8c0.3,0.3,0.6,0.6,0.9,1C453.9,257.7,459.2,253.8,464.5,249.8L464.5,249.8z"/>
		<path d="M462,229.5c-0.2,0.7,1.4,2.8,1.8,2.7c2.1-0.5,4.1-1.5,6.5-2.4C468.1,227.6,462.6,227.6,462,229.5L462,229.5z"/>
		<path d="M445.2,176.5c-1-0.6-2.6,2.1-6.6,4.1c-0.3,0.1-2,0.8-5.4,2c-3.6,1.3-3.7,1.4-3.7,1.4c0.1,0.5,7.5,0.1,13-3
			c2.6-1.5,3.1-2.6,3.1-3.3C445.7,177.6,445.7,176.8,445.2,176.5L445.2,176.5z"/>
		<path d="M473,166.9c-0.4,0.6-0.8,1.5-1.7,2.2c-1.1,0.9-2.2,0.9-2.3,1.5c-0.1,0.5,0.5,1.1,1.1,1.3c1,0.2,2.1-0.8,5.2-5
			c2.7-3.5,4-5.2,3.8-5.4C478.8,161.1,474.7,163.8,473,166.9L473,166.9z"/>
		<path d="M412,451.6c7.1-7.8,9.7-17.5,10.8-27.9c-2.9,3.8-5.5,7.8-8.7,11.4c-6.8,7.6-17.8,7.9-24.8,0.5c-3.4-3.6-6-7.9-8.4-12.3
			c-3-5.6-5.4-11.5-8.1-17.3c3.5,18,11.8,33.4,24.9,46.1C403.3,457.6,406.6,457.5,412,451.6L412,451.6z"/>
		<path d="M402.1,475.5c6.8,3.3,12.1,0.2,14.2-8.1c-1.3,0.2-2.1,0.3-2.9,0.5c-12,2.8-19.2,0.4-25.7-10c-4.6-7.4-8-15.7-12-23.5
			c-1.1-2.3-2.4-4.5-3.6-6.8c4.8,14.5,10.4,28.6,20.1,40.5C394.8,471.2,398.4,473.8,402.1,475.5L402.1,475.5z"/>
		<path d="M402.7,108.7c-1.7-0.9-0.2-6.7-0.9-6.9c-0.5-0.1-1.3,3.2-3.1,3.4c-1.1,0.1-2-0.9-2.2-1.2c-2.8-3.1-0.5-8.9-1.4-9.2
			c-0.8-0.2-1.8,4.2-4.5,4.7c-2.7,0.5-4.8-3.2-6-2.4c-0.9,0.6-0.9,3.3,0.5,4.8c1.9,2,4.8,0.1,7.2,1.9c2.6,2,2.7,7,1.5,7.6
			c-1.6,0.8-4.8-6.3-9.5-5.9c-2.5,0.2-3.7,2.3-4.7,1.7c-1.7-1,2.1-7,0-9.3c-3-3.4-17.8,1.1-21.8,2.3c-0.9,0.3-3,0.9-4,0
			c-1-1.1-0.2-3.6,0.5-5c1.2-2.6,3.2-3.6,2.8-4.6c-0.2-0.6-1-0.9-1.7-0.8c-2.6,0.2-5.9,6.6-3.8,10.6c1.2,2.4,3.9,3.1,6.1,3.7
			c5.1,1.4,10.2,0.1,11.8-0.4c3-0.8,5.2-2,5.7-1.3c0.6,0.8-1.9,3.3-1,4.6c0.6,0.9,2.4,0.5,2.7,1.4c0.3,0.8-0.9,1.6-0.7,2.3
			c0.4,1.4,5.7-0.6,10.6,1.3c4.8,1.8,5.6,5.9,8.3,5.4c1.7-0.3,1.4-1.9,5-5.1c2.1-1.8,4.3-3.2,4.1-3.6
			C403.9,108.6,403.2,109,402.7,108.7L402.7,108.7z"/>
		<path d="M371.2,85.3c3.5-0.9,4.6-1.6,7.6-2.1c2.6-0.4,4.8-0.3,6.2-0.2c-0.9-1.5-3.2-5.2-6.7-5.4c-1.6-0.1-2.6,0.6-5.8,2.5
			c-8.5,5.1-10.3,5.9-10.1,6.5C362.9,87.5,370.7,85.4,371.2,85.3L371.2,85.3z"/>
		<path d="M403.1,82.6c-5.6-2.6-12.7-0.9-12.9,0.8c-0.1,0.8,1.3,1.7,1.9,2c3.5,2,6.3-0.2,10.7,0.7c4.6,0.9,6.8,4.3,7.2,3.8
			C410.4,89.5,407.8,84.7,403.1,82.6z"/>
	</g>
</g>
</svg>
