<?xml version="1.0" encoding="utf-8"?>
<!-- Generator: Adobe Illustrator 28.3.0, SVG Export Plug-In . SVG Version: 6.00 Build 0)  -->
<svg version="1.1" id="Layer_1" xmlns="http://www.w3.org/2000/svg" xmlns:xlink="http://www.w3.org/1999/xlink" x="0px" y="0px"
	 viewBox="0 0 757.3 836.5" style="enable-background:new 0 0 757.3 836.5;" xml:space="preserve">
<style type="text/css">
	.st0{fill:#FFFFFF;}
</style>
<g>
	<path class="st0" d="M757.3,351.7c-12.2-2.9-19.7-11-26.8-19.6c10.6-16.8,13.5-28.2,9.8-36.6c-12.3,3.1-24.6,6-36.7,9.4
		c-4.7,1.3-9.1,4-13.6,6c-3.2,1.4-6.3,2.8-10.6,4.6c7.5-12.9,21-9.5,32-15.5c-8-4.3-15.2-8.1-22.4-11.9c0.5-1.1,1-1.6,1.1-2.2
		c0.4-1.7,1.5-4.2,0.8-4.9c-1.2-1.1-3.5-1.6-5.3-1.5c-3.3,0.2-6.6,0.9-9.9,1.5c-3.4,0.6-7.1,3.5-9.8-1.4c-0.4-0.6-2.2-0.7-3.3-0.7
		c-23.9,0.5-44.6,8.4-60.8,26.6c-0.8,1-2.8,1.7-3.9,1.5c-6.9-1.7-12.3-5.9-17.6-11.1c2.4,0,4.2,0.1,6,0c2-0.1,4.1,0,6-0.5
		c27-6.9,49-19.9,58.3-48.3c1.7-5.2,5-9.2,10.3-12c-0.2,3.8-0.7,7.1-0.5,10.3c0.1,2.8,0.4,5.7,1.4,8.3c1.6,4,4.8,6.4,9.3,6.2
		c4.5-0.2,6.2-3.6,7.1-7.3c1-4.2,1.6-8.5,2.3-12.8c0.8-5.2,1.5-10.4,2.3-15.7c6.4,2.3,10,1,12.7-4.9c5.3-11.8,8.3-17.6,8.7-21.7
		c0.4-3.9,1.5-13.6-2.4-18.7c-0.6-0.8-1.8-2-2.2-4c-0.7-3.2,1.1-4.9,0-7.1c-0.6-1.2-1.4-1.1-3.6-2.9c0,0-4.6-1.1-4.2-4.5
		c1-7.9,2.7-15.7,3.9-21.9c3.4-2.3,6.2-3.5,8-5.5c2.8-3,5.1-6.6,7.5-10c2.2-3.2,4.3-2.6,6.2,0.3c2.8,4.2,4.4,9,2.6,13.7
		c-1.5,4-4.3,7.5-6.9,11.9c1.3,2.9,3.6,1.8,5.6-0.4c6-6.3,10-13.7,11.5-22.3c1.1-6.3-0.5-11.5-6.7-14.6c-6.7-3.3-9-9.5-9.7-16.4
		c-0.3-3.6-0.1-7.3-0.2-11c-0.1-6.1-3.2-8-8.8-5.3c-1.5,0.7-2.7,1.9-4,2.9c-3.8,3.3-4.7,3.2-6.4-1.6c-1.7-4.7-3.6-5.6-7.7-2.8
		c-2.7,1.8-4.9,4.4-6.8,7c-2.3,3.1-3.9,6.6-6.1,9.7c-5.3,7.8-7.6,16.2-6.2,25.6c1.3,9.1,3.3,10.5,11.9,7.5c-1.5,12.1-3,23.9-4.7,37
		c-5.1-6.4-10.6-7.9-16.9-5.5c-6.4,2.4-8.7,7.6-9.5,14.1c-0.8,6.4-2.5,12.7-3,19.1c-0.6,8.1-9.5,8.1-12.3,13.7
		c-0.3,0.6-0.9,1-1.2,1.6c-5.4,8.1-13.1,11.7-22.7,12.7c-14.1,1.5-28.2,3.1-40.4,11.6c-1.2,0.8-4.1,0.2-5.7-0.8
		c-9.9-5.8-20-10.6-31.5-12.1c-2.7-0.3-3.8-1.8-4.3-4.5c-2.7-16.5-8.8-31.7-16.8-46.3c-1-1.8-1.4-3.8-2.1-5.8
		c9.6,6.8,20.1,7.2,32.2,5.9c-7.2,5.3-14.1,4-21.2,3.9c3.4,9.2,9.5,15.7,17.7,19.3c12.6,5.5,25.4,6.1,36.9-3.5
		c0.5,3.8,0.9,7.1,1.5,10.4c1.7,8.1,3.3,9,11,6.7c0.2-0.1,0.5,0.3,1,0.5c-0.2,0.7-0.6,1.5-0.7,2.2c-0.2,1.7-0.9,4.1-0.1,4.9
		c1,1,3.5,1.3,5,0.8c2.7-0.7,5.2-2.2,7.6-3.5c1.8-1,3.4-2.4,5-3.5c6.8,5.6,7.9,5.4,12.1-2.2c0.3-0.6,0.6-1.2,1-1.8
		c4.7-8.3,7.1-17.8,13.9-25.2c4.5-5,5.1-17.7,2.8-21.9c-4,8.4-12.7,14-19.9,12.9c-1.4-3-2.8-5.9-4.3-9.2c-2,1.4-3.3,2.3-5.6,3.8
		c0.6-2.8,0.9-4.6,1.3-6.3c1.1-4.1,2.2-8.1,3.6-12.1c0.5-1.2,2-2.4,3.3-2.9c6-2.4,9.1-6.9,9-13.1c-0.1-4.6-1.3-9.2-2.1-13.7
		c-0.3-1.8-0.8-3.7-1.2-5.5c1.9-2,4.8-2.7,7.3-1.8c2.2,0.8,3.9,2.7,4.4,5c-0.2,0.8-0.4,1.6-0.7,2.5c-0.3,1-0.7,1.8-0.9,2.3
		c1.7,0.2,3.9,1.1,5,0.3c5-3.3,10.1-6.8,14.5-10.9c2.8-2.5,4-6.7,6.8-9.2c5.7-5.2,6.8-11.1,4.9-18.1c-0.4-1.6-0.4-3.9,0.4-5
		c4.7-6.1,4.2-9.6-2.5-13.8c-6.2-3.9-13.1-4.2-20.2-4.2c-5.1,0-10.3-0.7-15.2-2.1c-4.4-1.3-7.8-4.9-8.1-9.8c-0.4-7,0-7-6.1-5.8
		c-1.9-2.2-3.6-4.3-5.9-7c-0.6,2-0.9,3-1.5,4.9c-6.9-12.4-18.8-12.9-29.9-15.3c-0.8,1.8-1.5,3.2-1.9,4.1c-7.9-0.8-15.3-1.9-22.8-2.2
		c-4.2-0.2-6.6-2.3-8.5-5.5c-1-1.7-1.9-3.6-2.4-5.5c-1-4.1-3.5-5.2-7.5-4.5c-11.8,2.2-23.1,0.5-34.6-2.6c-5-1.4-10.6-2-15.7-1.4
		c-13.7,1.4-25.1,8.4-36.1,16.1c-1.3,0.9-2.7,1.9-3.1,2.2c1.5-5.8,3.4-11.8,4.5-17.9c0.5-3-1-4.7-4.6-2.9c-7.6,3.7-15.2,7.5-23,10.6
		c-10.3,4.1-19.5,9.4-24.9,19.7c-0.5,0.9-1.1,1.7-2.6,3.9c-0.3-6.2-0.5-10.8-0.7-16.4c-8.1,4-13.4,9.6-16.8,17.1
		c-3.4,7.6-2.2,15.4-0.8,23.3c-7.7-5.3-8.9-13.1-8.5-22c-4.5,4.9-8,12.4-8.2,20.3c-0.2,5.6-2.2,9.1-6.4,12.5
		c-5.7,4.6-5.6,6.3-2.1,12.8c0.3,0.5,0.5,1.1,0.8,1.8c-3.9,1.6-7.4,3.1-10.9,4.6c-7,3-12.4,7.8-15.3,15c-1.4,3.6-2.5,6.6-6.9,8.1
		c-2.2,0.7-3.5,4.5-4.8,7.1c-0.8,1.5-0.8,3.4-1.2,5.4c-8.2-1.3-13.6,1.8-16.3,9.3c-0.3,0.8-1,1.3-1.4,2.1c-3.1,7.6-4,15.8-7.2,23.4
		c-0.8,1.8,0.2,4.6,0.9,6.8c0.7,2.2,2.7,4.1,2.8,6.3c0.6,8.2,5,12.8,13,14.4c-5,3.4-8.8,3.2-13-1.1c-8.8-8.6-19-14.5-32-14.2
		c-1.1,0-2.5-0.9-3.4-1.7c-12.9-12-28.1-15.2-45-12.3c-1.6,0.3-3.8,0-5-1c-7.1-5.9-11.6-13.2-11.8-22.8
		c-0.2-13.7,5.1-25.3,13.9-35.4c5.6-6.4,11.1-12.8,16.9-19.1c8.8-9.7,12.3-21.2,11.4-34.1c-0.4-5.4-1.2-10.8-1.9-16.9
		c6.3,0.9,4.9,6.9,7.5,10.4c1.3-1.4,2.9-2.5,3.7-4c3.3-6.8,8.1-8.7,15.4-6.3c3.1,1,4,2.4,4.1,5.1c0.8,14-2.7,26.4-12.8,36.6
		c-1.1,1.1-2.1,2.3-3.5,3.8c12.1-1,22.3-10.1,24-21.2c1.8-12.1-0.9-22.9-8.6-32.8c-7.9-10.1-26.5-13.7-36.6-3.7
		c-0.9-0.7-1.8-1.4-2.6-2.2C190-13.7,147.4,2.4,141.1,37c-0.4,2.5-1.8,5.1-3.4,7.1c-2.4,2.8-5.1,2.2-6.6-1.3c-1.7-4,0.1-7,2.7-9.9
		c3.4-3.8,2.9-5.6-1.9-7.1c-7.3-2.3-15.3,2.7-16.1,11.3c-0.6,6,0.1,12.3,1.4,18.2c3.2,14.6-2.1,27.2-14.8,33
		c-1.8,0.8-4.7,1.3-5.9,0.4c-1.2-0.9-1.6-3.8-1.3-5.8c0.4-3.3,1.5-6.5,2.5-10.6c-5.8,1.8-8.8,5.2-9.9,10c-2.1,9.1-0.6,17.5,4.6,25.3
		c3.3,4.9,7.8,6.9,13.4,5.2c4.4-1.3,8.9-3.1,12.7-5.6c9-6.1,10.7-13,7.5-23.1c-2-6.4-2.8-13.1-4.5-21c16.9,10.6,27.5,1.2,37.8-9.5
		c0.6,1.2,1.1,1.8,1.2,2.4c2.4,12.1-4.9,23.2-17,25.8c-5.8,1.2-7.3,5.5-2.8,9.4c2.2,2,5.8,2.6,8.9,3.3c1.8,0.4,3.8-0.5,6.9-1
		c-9.6,11.6-16.8,23.2-19.1,37.2c-3.5-1.8-6.5-3.6-9.7-4.9c-2.9-1.3-4.8-0.3-5.4,3c-3,17.6-0.1,33.6,13.3,46.4
		c4.1,3.9,9,6.9,13.6,10.3c-8.2,3.7-16.7,1.4-25.3,0.5c10.3,26.2,55.2,41.2,76.3,27.5c0.4,8.2-7.1,9.1-11.5,12.9
		c6.7,5.5,14,8.1,22.3,7.9c-0.9,5.1-1.8,10.2-2.7,15.2c-0.9,3.9-2.8,10.1-7.1,16.5c-4,5.8-8.2,9.1-9.6,10.2
		C176,289,170.8,312,146.2,344.6c-13.6,18-15.8,16-19.7,25.4c-5.1,12.4-10.6,38.6-9.8,46.8c0.1,1,0.3,3.8-1.2,6.3
		c-0.8,1.4-2,2.5-3.8,3.5c-3.5,1.9-4.8,4.7-3.9,9.1c0.7,3.3-0.6,7.1-1.4,10.6c-1.5,6.2-6.6,12-1.8,18.9c0.2,0.3,0.2,1.1,0,1.5
		c-5,6.7-10.1,13.3-15.2,19.9c-0.1,0.1-0.3,0.1-0.5,0.1c-11,3.3-19.8,10.4-28.2,17.5c-8.6,7.2-15.2,16.3-19.1,27.1
		c-0.3,0.8-0.9,1.5-1.4,2.3c-0.6-0.3-1-0.4-1.2-0.6c-1.1-1-2.2-2-3.2-3.1c-7.4-7.9-16.4-11.6-27.2-11.4c-8,0.1-10.6,3.8-7.2,11.2
		c4.9,10.8,9.6,21.8,21.7,26.6c-0.6,2.3-1.1,3.9-1.5,5.5c-2.5,10.2-0.2,14.2,9.4,17.9c2.4,0.9,4.3,2.9,7,4.8
		c-6.5,6.5-11.7,12.7-18,17.5c-9.4,7.2-11.5,16.7-10.6,27.5c0.9,10,7.7,17,16.2,15.7c5.5-0.8,8.2,1,10.8,5.3c2.5,4.2,6.2,7,7.9,8.3
		c2.5,1.8,6.7,3.4,14.4,2c-1.6-1-4.1-2.9-6.1-6.1c-3.2-5.2-3.1-10.3-3-12.3c5.8-1.1,11.2-1.8,16.4-3.3c5.9-1.7,15.5,5.5,14.2,11.6
		c-0.7,3.2-1.5,10.2-6.3,24.1c-0.5,1.5-0.9,2.7-1.2,3.6c-3.4-2.6-6.9-5.2-10.3-7.8c-0.1-0.5-0.2-1.1-0.2-1.7c-0.8,0-2,0.2-3.3,1
		c-3.5,2.2-3.7,7.5-3.2,10.7c0.3,1.8,1,3.5,2.1,5.2c5.2,7.6,11.6,14.3,17.4,21.4c1,1.2,1.5,2.8,2,4.3c0.8,2.3,0.6,5.9,2.1,6.8
		c1.9,1.2,5.1,0.5,7.7,0.3c1.4-0.2,2.6-1.2,4.2-2c0.8,1.5,1.4,2.7,2.1,3.9c2.3-0.8,4.4-1.5,6.4-2.1c18.5-5.4,26.3-16.8,26.1-36.2
		c-0.1-6.5,1.9-13.1,3.7-19.4c0.7-2.3,3.3-4.6,5.6-5.8c2.8-1.6,5.3-1.1,6.9,2.8c4.2,10.1,12.2,16.4,22.6,19.6
		c2.8,0.9,5.8,1.1,9.5,1.8c-2.5,14.6-4.9,28.9-7.3,43.1c-2.1,12.6-8.4,23.2-17.5,31.9c-4.8,4.6-6.6,10.2-8.5,16
		c-0.4,1.3-0.7,3.5,0.1,4.3c3.4,3.8,1.1,7.1-0.5,10.3c-3.5,6.7-8.4,11.9-15.4,15c-8.7,3.9-13.7,12.1-13,21.7c0.1,1.8,1,4.2,2.4,5.2
		c10.8,7.4,22.7,9.6,35.6,6.3c1.4-0.4,3.2-0.7,4.6-0.2c11.8,4.5,23.2-1,27-13c0.6-2.1,1.4-4.1,2.1-6.2c0.9-2.6,2.4-3.3,5.3-3.3
		c66.8,0.7,133.7,2,200.5,1.6c65.1-0.4,130.3-2.6,195.4-4c4.2-0.1,9.1-1.5,11.2,4.4c0.3,0.8,2.3,1.6,3.5,1.5
		c9.1-0.5,18.1-1.2,27.2-1.7c2.4-0.2,6.1-1.1,7,0.1c4.4,5.5,10.8,6.9,16.6,9.7c8.6,4.2,17.4,6.5,27,3.7c0.7-0.2,1.7-0.4,2.4,0
		c10.3,5,20.6,2.1,30.8,0c3.1-0.6,5.6-3.7,8.5-5.5c1.2-0.8,2.7-1.6,4.1-1.7c10.2-0.3,16.2-5.2,17.7-14.7
		c1.7-10.9-2.5-18.2-12.5-21.4c-1.9-0.6-4.1-0.5-5.8-1.3c-2.2-1.1-4.8-2.4-5.8-4.4c-5.7-10.7-7.5-22.3-4-33.9
		c3.3-11.3,7.8-22.3,12.5-33c4.6-10.4,10.2-20.8,9.8-32.2c-0.2-5.3,1-9.2,1.1-10.7c0,0,9-144.6-3.7-155.3c-0.2-0.2-2.1-1.6-3.2-4.2
		c-0.7-1.4-1-3-1-4.8c-0.4-12.7-3.6-24.6-9.9-35.8c-2.6-4.6-4.5-9.7-6.2-14.7c-0.8-2.4-0.5-5.3-0.8-8.9c1.5,1.2,1.8,1.5,2.2,1.7
		c2.5,1.3,5.2,3.8,7.5,3.5c1.7-0.2,3.5-3.8,4.5-6.2c1.6-3.7,2.9-7,6.8-9.3c5-2.9,5.7-7.2,3-12.3c-2.4-4.6-1.7-8.8,0.8-13.8
		c1,3,1.7,5.3,3,9.4c3-3.7,6.1-6,7.2-9.1c4.6-12.9-1.2-23.5-9-32.6c4.5-1,8.9-1.3,12.7-3c2.2-0.9,3.4-4.1,5.1-6.2
		c-2-1.2-4-2.7-6.2-3.5c-4.7-1.6-9.5-2.9-14.3-4.3c0.1-0.5,0.2-0.9,0.3-1.4C743.2,360.9,750.5,359.6,757.3,351.7L757.3,351.7z"/>
	<g>
		<path d="M757.3,351.7c-12.2-2.9-19.7-11-26.8-19.6c10.6-16.8,13.5-28.2,9.8-36.6c-12.3,3.1-24.6,6-36.7,9.4c-4.7,1.3-9.1,4-13.6,6
			c-3.2,1.4-6.3,2.8-10.6,4.6c7.5-12.9,21-9.5,32-15.5c-8-4.3-15.2-8.1-22.4-11.9c0.5-1.1,1-1.6,1.1-2.2c0.4-1.7,1.5-4.2,0.8-4.9
			c-1.2-1.1-3.5-1.6-5.3-1.5c-3.3,0.2-6.6,0.9-9.9,1.5c-3.4,0.6-7.1,3.5-9.8-1.4c-0.4-0.6-2.2-0.7-3.3-0.7
			c-23.9,0.5-44.6,8.4-60.8,26.6c-0.8,1-2.8,1.7-3.9,1.5c-6.9-1.7-12.3-5.9-17.6-11.1c2.4,0,4.2,0.1,6,0c2-0.1,4.1,0,6-0.5
			c27-6.9,49-19.9,58.3-48.3c1.7-5.2,5-9.2,10.3-12c-0.2,3.8-0.7,7.1-0.5,10.3c0.1,2.8,0.4,5.7,1.4,8.3c1.6,4,4.8,6.4,9.3,6.2
			c4.5-0.2,6.2-3.6,7.1-7.3c1-4.2,1.6-8.5,2.3-12.8c0.8-5.2,1.5-10.4,2.3-15.7c6.4,2.3,10,1,12.7-4.9c5.3-11.8,8.3-17.6,8.7-21.7
			c0.4-3.9,1.5-13.6-2.4-18.7c-0.6-0.8-1.8-2-2.2-4c-0.7-3.2,1.1-4.9,0-7.1c-0.6-1.2-1.4-1.1-3.6-2.9c0,0-4.6-1.1-4.2-4.5
			c1-7.9,2.7-15.7,3.9-21.9c3.4-2.3,6.2-3.5,8-5.5c2.8-3,5.1-6.6,7.5-10c2.2-3.2,4.3-2.6,6.2,0.3c2.8,4.2,4.4,9,2.6,13.7
			c-1.5,4-4.3,7.5-6.9,11.9c1.3,2.9,3.6,1.8,5.6-0.4c6-6.3,10-13.7,11.5-22.3c1.1-6.3-0.5-11.5-6.7-14.6c-6.7-3.3-9-9.5-9.7-16.4
			c-0.3-3.6-0.1-7.3-0.2-11c-0.1-6.1-3.2-8-8.8-5.3c-1.5,0.7-2.7,1.9-4,2.9c-3.8,3.3-4.7,3.2-6.4-1.6c-1.7-4.7-3.6-5.6-7.7-2.8
			c-2.7,1.8-4.9,4.4-6.8,7c-2.3,3.1-3.9,6.6-6.1,9.7c-5.3,7.8-7.6,16.2-6.2,25.6c1.3,9.1,3.3,10.5,11.9,7.5c-1.5,12.1-3,23.9-4.7,37
			c-5.1-6.4-10.6-7.9-16.9-5.5c-6.4,2.4-8.7,7.6-9.5,14.1c-0.8,6.4-2.5,12.7-3,19.1c-0.6,8.1-9.5,8.1-12.3,13.7
			c-0.3,0.6-0.9,1-1.2,1.6c-5.4,8.1-13.1,11.7-22.7,12.7c-14.1,1.5-28.2,3.1-40.4,11.6c-1.2,0.8-4.1,0.2-5.7-0.8
			c-9.9-5.8-20-10.6-31.5-12.1c-2.7-0.3-3.8-1.8-4.3-4.5c-2.7-16.5-8.8-31.7-16.8-46.3c-1-1.8-1.4-3.8-2.1-5.8
			c9.6,6.8,20.1,7.2,32.2,5.9c-7.2,5.3-14.1,4-21.2,3.9c3.4,9.2,9.5,15.7,17.7,19.3c12.6,5.5,25.4,6.1,36.9-3.5
			c0.5,3.8,0.9,7.1,1.5,10.4c1.7,8.1,3.3,9,11,6.7c0.2-0.1,0.5,0.3,1,0.5c-0.2,0.7-0.6,1.5-0.7,2.2c-0.2,1.7-0.9,4.1-0.1,4.9
			c1,1,3.5,1.3,5,0.8c2.7-0.7,5.2-2.2,7.6-3.5c1.8-1,3.4-2.4,5-3.5c6.8,5.6,7.9,5.4,12.1-2.2c0.3-0.6,0.6-1.2,1-1.8
			c4.7-8.3,7.1-17.8,13.9-25.2c4.5-5,5.1-17.7,2.8-21.9c-4,8.4-12.7,14-19.9,12.9c-1.4-3-2.8-5.9-4.3-9.2c-2,1.4-3.3,2.3-5.6,3.8
			c0.6-2.8,0.9-4.6,1.3-6.3c1.1-4.1,2.2-8.1,3.6-12.1c0.5-1.2,2-2.4,3.3-2.9c6-2.4,9.1-6.9,9-13.1c-0.1-4.6-1.3-9.2-2.1-13.7
			c-0.3-1.8-0.8-3.7-1.2-5.5c1.9-2,4.8-2.7,7.3-1.8c2.2,0.8,3.9,2.7,4.4,5c-0.2,0.8-0.4,1.6-0.7,2.5c-0.3,1-0.7,1.8-0.9,2.3
			c1.7,0.2,3.9,1.1,5,0.3c5-3.3,10.1-6.8,14.5-10.9c2.8-2.5,4-6.7,6.8-9.2c5.7-5.2,6.8-11.1,4.9-18.1c-0.4-1.6-0.4-3.9,0.4-5
			c4.7-6.1,4.2-9.6-2.5-13.8c-6.2-3.9-13.1-4.2-20.2-4.2c-5.1,0-10.3-0.7-15.2-2.1c-4.4-1.3-7.8-4.9-8.1-9.8c-0.4-7,0-7-6.1-5.8
			c-1.9-2.2-3.6-4.3-5.9-7c-0.6,2-0.9,3-1.5,4.9c-6.9-12.4-18.8-12.9-29.9-15.3c-0.8,1.8-1.5,3.2-1.9,4.1
			c-7.9-0.8-15.3-1.9-22.8-2.2c-4.2-0.2-6.6-2.3-8.5-5.5c-1-1.7-1.9-3.6-2.4-5.5c-1-4.1-3.5-5.2-7.5-4.5
			c-11.8,2.2-23.1,0.5-34.6-2.6c-5-1.4-10.6-2-15.7-1.4c-13.7,1.4-25.1,8.4-36.1,16.1c-1.3,0.9-2.7,1.9-3.1,2.2
			c1.5-5.8,3.4-11.8,4.5-17.9c0.5-3-1-4.7-4.6-2.9c-7.6,3.7-15.2,7.5-23,10.6c-10.3,4.1-19.5,9.4-24.9,19.7
			c-0.5,0.9-1.1,1.7-2.6,3.9c-0.3-6.2-0.5-10.8-0.7-16.4c-8.1,4-13.4,9.6-16.8,17.1c-3.4,7.6-2.2,15.4-0.8,23.3
			c-7.7-5.3-8.9-13.1-8.5-22c-4.5,4.9-8,12.4-8.2,20.3c-0.2,5.6-2.2,9.1-6.4,12.5c-5.7,4.6-5.6,6.3-2.1,12.8
			c0.3,0.5,0.5,1.1,0.8,1.8c-3.9,1.6-7.4,3.1-10.9,4.6c-7,3-12.4,7.8-15.3,15c-1.4,3.6-2.5,6.6-6.9,8.1c-2.2,0.7-3.5,4.5-4.8,7.1
			c-0.8,1.5-0.8,3.4-1.2,5.4c-8.2-1.3-13.6,1.8-16.3,9.3c-0.3,0.8-1,1.3-1.4,2.1c-3.1,7.6-4,15.8-7.2,23.4c-0.8,1.8,0.2,4.6,0.9,6.8
			c0.7,2.2,2.7,4.1,2.8,6.3c0.6,8.2,5,12.8,13,14.4c-5,3.4-8.8,3.2-13-1.1c-8.8-8.6-19-14.5-32-14.2c-1.1,0-2.5-0.9-3.4-1.7
			c-12.9-12-28.1-15.2-45-12.3c-1.6,0.3-3.8,0-5-1c-7.1-5.9-11.6-13.2-11.8-22.8c-0.2-13.7,5.1-25.3,13.9-35.4
			c5.6-6.4,11.1-12.8,16.9-19.1c8.8-9.7,12.3-21.2,11.4-34.1c-0.4-5.4-1.2-10.8-1.9-16.9c6.3,0.9,4.9,6.9,7.5,10.4
			c1.3-1.4,2.9-2.5,3.7-4c3.3-6.8,8.1-8.7,15.4-6.3c3.1,1,4,2.4,4.1,5.1c0.8,14-2.7,26.4-12.8,36.6c-1.1,1.1-2.1,2.3-3.5,3.8
			c12.1-1,22.3-10.1,24-21.2c1.8-12.1-0.9-22.9-8.6-32.8c-7.9-10.1-26.5-13.7-36.6-3.7c-0.9-0.7-1.8-1.4-2.6-2.2
			C190-13.7,147.4,2.4,141.1,37c-0.4,2.5-1.8,5.1-3.4,7.1c-2.4,2.8-5.1,2.2-6.6-1.3c-1.7-4,0.1-7,2.7-9.9c3.4-3.8,2.9-5.6-1.9-7.1
			c-7.3-2.3-15.3,2.7-16.1,11.3c-0.6,6,0.1,12.3,1.4,18.2c3.2,14.6-2.1,27.2-14.8,33c-1.8,0.8-4.7,1.3-5.9,0.4
			c-1.2-0.9-1.6-3.8-1.3-5.8c0.4-3.3,1.5-6.5,2.5-10.6c-5.8,1.8-8.8,5.2-9.9,10c-2.1,9.1-0.6,17.5,4.6,25.3
			c3.3,4.9,7.8,6.9,13.4,5.2c4.4-1.3,8.9-3.1,12.7-5.6c9-6.1,10.7-13,7.5-23.1c-2-6.4-2.8-13.1-4.5-21c16.9,10.6,27.5,1.2,37.8-9.5
			c0.6,1.2,1.1,1.8,1.2,2.4c2.4,12.1-4.9,23.2-17,25.8c-5.8,1.2-7.3,5.5-2.8,9.4c2.2,2,5.8,2.6,8.9,3.3c1.8,0.4,3.8-0.5,6.9-1
			c-9.6,11.6-16.8,23.2-19.1,37.2c-3.5-1.8-6.5-3.6-9.7-4.9c-2.9-1.3-4.8-0.3-5.4,3c-3,17.6-0.1,33.6,13.3,46.4
			c4.1,3.9,9,6.9,13.6,10.3c-8.2,3.7-16.7,1.4-25.3,0.5c10.3,26.2,55.2,41.2,76.3,27.5c0.4,8.2-7.1,9.1-11.5,12.9
			c6.7,5.5,14,8.1,22.3,7.9c-0.9,5.1-1.8,10.2-2.7,15.2c-0.9,3.9-2.8,10.1-7.1,16.5c-4,5.8-8.2,9.1-9.6,10.2
			C176,289,170.8,312,146.2,344.6c-13.6,18-15.8,16-19.7,25.4c-5.1,12.4-10.6,38.6-9.8,46.8c0.1,1,0.3,3.8-1.2,6.3
			c-0.8,1.4-2,2.5-3.8,3.5c-3.5,1.9-4.8,4.7-3.9,9.1c0.7,3.3-0.6,7.1-1.4,10.6c-1.5,6.2-6.6,12-1.8,18.9c0.2,0.3,0.2,1.1,0,1.5
			c-5,6.7-10.1,13.3-15.2,19.9c-0.1,0.1-0.3,0.1-0.5,0.1c-11,3.3-19.8,10.4-28.2,17.5c-8.6,7.2-15.2,16.3-19.1,27.1
			c-0.3,0.8-0.9,1.5-1.4,2.3c-0.6-0.3-1-0.4-1.2-0.6c-1.1-1-2.2-2-3.2-3.1c-7.4-7.9-16.4-11.6-27.2-11.4c-8,0.1-10.6,3.8-7.2,11.2
			c4.9,10.8,9.6,21.8,21.7,26.6c-0.6,2.3-1.1,3.9-1.5,5.5c-2.5,10.2-0.2,14.2,9.4,17.9c2.4,0.9,4.3,2.9,7,4.8
			c-6.5,6.5-11.7,12.7-18,17.5c-9.4,7.2-11.5,16.7-10.6,27.5c0.9,10,7.7,17,16.2,15.7c5.5-0.8,8.2,1,10.8,5.3c2.5,4.2,6.2,7,7.9,8.3
			c2.5,1.8,6.7,3.4,14.4,2c-1.6-1-4.1-2.9-6.1-6.1c-3.2-5.2-3.1-10.3-3-12.3c5.8-1.1,11.2-1.8,16.4-3.3c5.9-1.7,15.5,5.5,14.2,11.6
			c-0.7,3.2-1.5,10.2-6.3,24.1c-0.5,1.5-0.9,2.7-1.2,3.6c-3.4-2.6-6.9-5.2-10.3-7.8c-0.1-0.5-0.2-1.1-0.2-1.7c-0.8,0-2,0.2-3.3,1
			c-3.5,2.2-3.7,7.5-3.2,10.7c0.3,1.8,1,3.5,2.1,5.2c5.2,7.6,11.6,14.3,17.4,21.4c1,1.2,1.5,2.8,2,4.3c0.8,2.3,0.6,5.9,2.1,6.8
			c1.9,1.2,5.1,0.5,7.7,0.3c1.4-0.2,2.6-1.2,4.2-2c0.8,1.5,1.4,2.7,2.1,3.9c2.3-0.8,4.4-1.5,6.4-2.1c18.5-5.4,26.3-16.8,26.1-36.2
			c-0.1-6.5,1.9-13.1,3.7-19.4c0.7-2.3,3.3-4.6,5.6-5.8c2.8-1.6,5.3-1.1,6.9,2.8c4.2,10.1,12.2,16.4,22.6,19.6
			c2.8,0.9,5.8,1.1,9.5,1.8c-2.5,14.6-4.9,28.9-7.3,43.1c-2.1,12.6-8.4,23.2-17.5,31.9c-4.8,4.6-6.6,10.2-8.5,16
			c-0.4,1.3-0.7,3.5,0.1,4.3c3.4,3.8,1.1,7.1-0.5,10.3c-3.5,6.7-8.4,11.9-15.4,15c-8.7,3.9-13.7,12.1-13,21.7c0.1,1.8,1,4.2,2.4,5.2
			c10.8,7.4,22.7,9.6,35.6,6.3c1.4-0.4,3.2-0.7,4.6-0.2c11.8,4.5,23.2-1,27-13c0.6-2.1,1.4-4.1,2.1-6.2c0.9-2.6,2.4-3.3,5.3-3.3
			c66.8,0.7,133.7,2,200.5,1.6c65.1-0.4,130.3-2.6,195.4-4c4.2-0.1,9.1-1.5,11.2,4.4c0.3,0.8,2.3,1.6,3.5,1.5
			c9.1-0.5,18.1-1.2,27.2-1.7c2.4-0.2,6.1-1.1,7,0.1c4.4,5.5,10.8,6.9,16.6,9.7c8.6,4.2,17.4,6.5,27,3.7c0.7-0.2,1.7-0.4,2.4,0
			c10.3,5,20.6,2.1,30.8,0c3.1-0.6,5.6-3.7,8.5-5.5c1.2-0.8,2.7-1.6,4.1-1.7c10.2-0.3,16.2-5.2,17.7-14.7
			c1.7-10.9-2.5-18.2-12.5-21.4c-1.9-0.6-4.1-0.5-5.8-1.3c-2.2-1.1-4.8-2.4-5.8-4.4c-5.7-10.7-7.5-22.3-4-33.9
			c3.3-11.3,7.8-22.3,12.5-33c4.6-10.4,10.2-20.8,9.8-32.2c-0.2-5.3,1-9.2,1.1-10.7c0,0,9-144.6-3.7-155.3c-0.2-0.2-2.1-1.6-3.2-4.2
			c-0.7-1.4-1-3-1-4.8c-0.4-12.7-3.6-24.6-9.9-35.8c-2.6-4.6-4.5-9.7-6.2-14.7c-0.8-2.4-0.5-5.3-0.8-8.9c1.5,1.2,1.8,1.5,2.2,1.7
			c2.5,1.3,5.2,3.8,7.5,3.5c1.7-0.2,3.5-3.8,4.5-6.2c1.6-3.7,2.9-7,6.8-9.3c5-2.9,5.7-7.2,3-12.3c-2.4-4.6-1.7-8.8,0.8-13.8
			c1,3,1.7,5.3,3,9.4c3-3.7,6.1-6,7.2-9.1c4.6-12.9-1.2-23.5-9-32.6c4.5-1,8.9-1.3,12.7-3c2.2-0.9,3.4-4.1,5.1-6.2
			c-2-1.2-4-2.7-6.2-3.5c-4.7-1.6-9.5-2.9-14.3-4.3c0.1-0.5,0.2-0.9,0.3-1.4C743.2,360.9,750.5,359.6,757.3,351.7L757.3,351.7z
			 M691.4,86.6c2.8,5.3,5.8,10.1,7.8,15.3c0.9,2.5,0.4,6-0.5,8.7c-2.3,6.1-9,7.4-13,2.2c-2.1-2.8-3.5-6.9-3.6-10.4
			C681.8,96.6,685.9,90.4,691.4,86.6L691.4,86.6z M690,177.3c0.7,0.1,2.6,0.2,3.1-0.7c0.3-0.5,0.2-1.2-0.1-1.7
			c-0.8-1.2-2.9-1-9.4-0.8c-3.2,0.1-4.2,0-5.4-0.6c-1.4-0.7-2.7-2.5-2.9-4c-0.1-0.9,1.7-2.8,2.9-3.1c3.9-0.8,7.9-1.5,11.8-1.5
			c5.4,0,8.5,4.1,6.4,9c-1.6,3.6,1.8,4.5,2.4,6.8c0.3,1.1,1.7,2.8,1.8,4.9c0,2-0.8,3.6-1.4,4.4c1.1,2.3,1.2,4.1,1.2,5.3
			c-0.2,2.8-1,4.1-1.7,7.5c-0.2,0.8,0.3,1.8,0.1,2.7c-0.9,4.3-5.9,6.4-10.1,4.8c-0.8-0.3-0.8-0.2-4.5-1.6c-6.3-2.4-8.8-3.1-11.4-5.5
			c-1.7-1.6-1.8-2.5-1.7-3.1c0.3-1.4,2.6-2,2.8-2.1c1.3-0.3,1.9,0,5.2,0.7c1.6,0.4,4.4,0.9,4.5,0.7c0-0.1-0.2-0.3-1.7-1
			c-2.8-0.7-5.7-1.5-8.5-2c-1.6-0.3-2.7-1-3.4-1.9c-0.8-1.1-1.2-2.7-0.7-3.8c1.7-4.3,18.6-1.3,18.7-1.8c0-0.2-3.5-1.4-8.2-1.5
			c-4.6-0.1-6.9,1-8.9-0.7c-1-0.8-1.8-2.1-1.6-3.4c0.1-0.6,0.5-1.9,4.1-3.4C677.4,178.3,684.3,176.9,690,177.3L690,177.3z
			 M648.5,188.2c0-2.8,0.8-5.6,1.4-8.3c0.8-3.3,2-6.6,2.9-9.9c1.2-4.9,5.1-8.7,9.9-9.3c4.3-0.5,7.5,1.2,9.4,5.1
			c1.9,3.9,1.2,8.4-1.9,9.7c-4.2,1.8-6.4-1.1-8.2-4.3c-0.4-0.7-0.7-1.5-1-2.3c-5,2.7-5.5,4-2.4,8.3c2.1,3,4.5,5.7,5.7,7.2
			c-0.2,4.4-0.6,7.4-0.5,10.4c0.4,6.4-2.9,10.6-9.9,12.4c-0.2,5.4,0.3,5.6,11.6,5.6c-0.9,4.5-1.7,8.5-2.7,13.8
			c-2.8-1.8-5.5-2.7-6.5-4.5c-2.8-5.3-5.7-10.9-7-16.7C648.1,200,648.5,194,648.5,188.2L648.5,188.2z M645.2,200.3
			c1,6.1,2,11.8,2.9,17.6C643.8,212.6,642.4,204.9,645.2,200.3z M179.4,74.4c3.5-17.2-1.7-24.5-17.4-26.3
			c-1.5-10.6,14.5-23.6,25.7-21.3c3.2,0.7,6.8,3.1,8.6,5.8c4.3,6.3,4.2,13.6,1.1,20.5C193.6,61.5,186.9,67.3,179.4,74.4z M686.2,302
			c-3.6,3.1-7.2,4.4-11.1-0.6C679.5,301.7,682.8,301.9,686.2,302z M681.3,360.5c-2.8-2.4-4.7-3.7-6.4-5.3c-1.6-1.6-3-3.4-4.5-5.2
			c-2.2,4.7-3.6,9.3-6.2,13c-2.8,3.9-7.3,5.2-13.5,4.7c3.8-2,7.9-2.8,5.4-7.8c-7.8,0.2-15.9,4.3-23.7-1.6c1.5-0.3,2.9-0.7,4.4-0.8
			c7.7-0.4,14.4-2.6,19.1-9.2c1.8-2.5,4-2.4,6.9-2.4C672.3,345.6,676.1,352.7,681.3,360.5L681.3,360.5z M688.4,644.1
			c-11.5,15.2-27.5,22.2-45.8,25.1C658.9,662.6,674.8,655.5,688.4,644.1z M658.2,642.5c5.4-3.7,10.8-7.3,16.1-11
			c0.3,0.4,0.7,0.8,1,1.2c-5.4,3.7-10.9,7.3-16.3,11C658.7,643.3,658.4,642.9,658.2,642.5L658.2,642.5z M674.9,772.7
			c1.9,4.3,1.6,9.7,2.3,14.5c-0.8,0.2-1.5,0.3-2.3,0.4c-6.2-8.2-12.2-16.3-14.9-26.6c-1.2-4.5-4.3-8.5-6.9-13.5
			c5.5-8.6,12-18.5,18.4-28.5c2.5,12.2,8.2,24,2.7,36.4C671.6,761.5,672.3,766.8,674.9,772.7L674.9,772.7z M621.6,757.1
			c0-0.2,0-0.5-0.1-0.7c-6.9,3.2-13.8,6.5-20.8,9.4c-2.8,1.1-5.1,2.1-4,5.5c1.1,3.2,3.5,2.9,6.1,1.6c6.1-3,12.4-5.5,18.3-8.8
			c8.2-4.5,16.5-8,26.1-6.5c1.2,0.2,2.4,0.5,3.5,1.1c-9.1-0.7-17.4,2.2-25.3,6c-9.4,4.6-18.4,10.1-29.1,11.1
			c-2.6-7.7-1.7-8.9,5.6-11.7c6.7-2.5,13.1-5.5,19.6-8.4c1.4-1.6,2.7-3.3,4.4-4.7c8.4-6.8,17.9-4.9,23.2,3.6
			c-4.2-1.8-9.4-5.8-14.2-5.5C630.2,749.5,625.8,754.4,621.6,757.1L621.6,757.1z M648.2,616.1c-1.2-3.9-2.1-6.5-2.8-9.2
			c-5-18.5-15.1-33.9-29-47c-7.7-7.3-15.4-14.7-22.9-22.2c-1.8-1.8-2.8-4.3-4.2-6.5c0.4-0.3,0.8-0.6,1.2-0.9
			c7.4,10.9,17.9,18.1,28.5,25.5c17.4,12.2,27.2,28.9,29.2,50.1C648.4,608.7,648.2,611.7,648.2,616.1L648.2,616.1z M582.9,457.7
			c-2-3.3-4.2-6.6-6.7-9.6c-5.1-6.1-6.2-15.4-1.5-22.6c0.8,1.7,1.9,4.3,3.2,7.4c1.9,4.7,2.5,6.4,3.1,7.8c1.5,3.2,4.6,7.3,12.1,10.9
			c3.1-0.5,6.3-1.1,9.4-1.6c2.3,4,3.1,8.1,1.3,10.2c-0.9,1-3.1,1.2-7.4,1.6C588.8,462.5,585.7,462.4,582.9,457.7L582.9,457.7z
			 M584.1,465.8c-4.8-2.8-6.2-5.9-4.2-11.5C581.5,458.5,582.6,461.6,584.1,465.8z M566.6,412.7c0.1,2.8,0.8,5.5,1.3,8.5
			c-5.7-2.2-10.1-14.9-6.1-18.1c3.4-2.7,8.5-3.8,13-4.6c3.5-0.7,7.3-0.2,10.9,0.2c3.4,0.4,6.7,1.4,10.1,2.2c0.2-0.4,0.4-0.8,0.6-1.1
			c-2.8-2.1-5.9-3.8-8.4-6.3c-1.8-1.8-2.9-4.4-4.3-6.6c5.3,6.8,12.6,10.5,20.7,14.3c-3.1,0.2-6.2,0.9-9.3,0.6
			c-5.6-0.5-11.1-1.8-16.7-2.4C569.1,398.5,566.3,402.3,566.6,412.7L566.6,412.7z M550.2,381.4c-3.7,3.8-7.4,7.2-10.5,11.1
			c-4.8,6-7,13.1-7.9,20.7c-0.2,1.5-1.3,3.6-2.5,4.1c-7.8,3.4-15.7,6.3-23.5,9.7c-2.7,1.2-4.5,0.8-6.5-1.5c-1.7-2-4-3.5-6.2-5
			c-5.5-3.7-6.4-5.3-6.3-12.2c0.3-0.1,0.7-0.3,0.9-0.1c6.9,4.4,8,4.5,14.6-1c17.6-14.8,27.3-33,25.4-56.8
			c-0.4-5.2,2.3-10.7,3.8-17.2c2.3,5,4,8.8,5.9,12.7c12.2-8.6,17.5-26.4,13.5-43.7c4.3-0.3,8.7,0.1,12.7-1c3.9-1.1,7.4-3.8,11.1-5.9
			c-4,12.6-0.7,24.4,5.4,35.6c-8.4,10.5-8.6,11.7-2.5,20.5c-0.7,0.4-1.4,0.9-2.2,1c-6.6,0.6-11.2,3.3-12.4,10.6
			c-0.2,1.2-2.5,2.3-4,3.2c-2.2,1.4-4.7,2.4-6.8,4C547.9,373.2,547.3,377.3,550.2,381.4L550.2,381.4z M467.3,543.3
			c-0.8-2-0.2-5.3,0.9-7.2c2.5-4.2,5.8-7.9,8.5-11.4c9.4,14.6,18.4,28.7,27.5,42.9C491.1,567.5,471.8,555.1,467.3,543.3L467.3,543.3
			z M523,617.9c-9.7,3.8-20.4,7.9-30,11.7C501.1,622.2,511.9,618.3,523,617.9z M452.1,522.5c-3,2.6-1.7,5.4-0.5,8.2
			c2.5,6.2,2.4,6-3.8,8.7c-5.8,2.5-11.6,5.1-17,8.3c-2.2,1.3-4.8,4.2-4.7,6.2c0.1,1.9,3.6,3.7,5.7,5.3c1,0.8,2.3,1.1,3.7,1.8
			c-0.5,1.4-0.7,2.6-1.4,3.5c-14.7,18.2-32.6,30.3-57,30c-5.9-0.1-11.6-1.7-16-6.1c-1.4-1.5-2.1-3.6-3.1-5.3c4.9-1,8.8-1.8,12.7-2.7
			c4.8-1.1,6.1-4.4,6-9c-0.2-8.5,0-16.9,0.5-25.5c3.5,13.3,4.7,27.2,11.7,40.8c-2.4-11-4.8-20.6-6.4-30.3
			c-2.8-17.3-4.5-34.7-7.6-51.9c-2.7-15.2-6.8-30.1-10.3-45.2c-0.6-2.5-1.2-4.9-2.1-8.3c6.7,2.6,9.4,7.5,11.6,12.4
			c4.9,10.9,9.4,22.1,14.1,33.1c2,4.6,3.9,9.2,6.2,13.6c2.5,4.6,5.6,9.3,11.5,9c6.2-0.2,10-4.7,11.9-10.1c2.9-8.1,5.1-16.5,7.4-24.9
			c2.1-7.4,3.9-14.8,6-22.2c0.6-2,1.7-3.9,2.6-5.8c0.5,0,1,0.1,1.5,0.1c0,1.8,0.3,3.6,0,5.3c-4.4,22.7-8.7,45.4-13.3,68.1
			c-2.9,14.5-9.8,26.5-22.8,34.4c-0.7,0.4-1.2,1.1-2.8,2.5c7,0.5,12.8-0.5,17.8-3.5c5.1-3,9.5-7.2,10.5-13.3
			c3.6-20.7,7.1-41.3,10.6-62c1.2-7.2,2-14.5,3-21.7c1.7,17.8,2.9,35.6,9.8,52.5c0.4-0.1,0.8-0.1,1.2-0.2c-0.4-1.9-0.6-3.9-1.2-5.8
			c-5.5-18.5-6.5-37.3-5-56.4c0.4-4.9,2.7-7.9,7.3-11.2c0.5,2.8,1.1,4.9,1.2,7c0.7,11.3,1.1,22.6,6,33.5
			c-0.9-10.7-1.8-21.1-2.7-31.5c0.4,0,0.7,0.1,1.1,0.1c8.2,17.3,16.5,34.5,24.8,52c-0.2,0.1-1.3,0.6-2.3,0.7
			C467.6,508.2,459.9,515.5,452.1,522.5L452.1,522.5z M415.6,618.9c0.2-0.5,0.5-1,0.7-1.4c5.4,2.6,10.9,5.2,16.3,7.9l-0.8,1.7
			C426.4,624.3,421,621.6,415.6,618.9L415.6,618.9z M421.9,643.6c-12.5-6.1-23.8-11.7-34.7-17C395.9,627.7,415.4,636.8,421.9,643.6z
			 M342.1,566.4c2.6-4.8,5.4-9.6,8.2-14.3c5.1-8.6,8.4-17.7,8.6-27.8c0.7-25.5-4.6-49.9-13.1-73.8c-0.6-1.7-1.2-3.4-1.9-5.4
			c8-0.7,12.5,2.6,15.3,9c6.3,14.3,9.7,29.3,11.4,44.8c2.1,18.4-0.6,36.6-2.4,54.8c-0.6,6.1-0.7,12.3-1,18.1c-7.4,0-14.6-0.1-21.8,0
			C341,571.8,340.4,569.6,342.1,566.4L342.1,566.4z M325.2,569.7c1.4-19.1,8.3-34.6,23.9-46.4C348.9,543.1,337.9,556.5,325.2,569.7z
			 M280.8,467.4c9.4-16.2,20.6-30.6,37.8-39.4c14.8-7.6,29.3-7.8,43.7,0.9c2.5,1.5,5.3,2.6,8,4c-14.5-12.5-31.1-15-49.1-9.6
			c-6.8,2.1-13.7,4.4-20,7.8c-11.9,6.5-27.3,5.7-36-9.4c-6,10.6,8.5,23.1,27.4,23.3c-11.3,13.6-23.9,24.4-42.4,25.6
			c-1.9,0.1-3.7,1.3-5.6,1.9c1.4,1.7,2.5,4.1,4.4,4.9c4.4,1.8,9.1,3,13.7,4.2c2.2,0.6,4.5,0.6,8.2,1c-6,7.1-12.3,12.3-19.9,14.2
			c-11.4,2.8-20,6.9-17.9,21.6c-6.7-7.3-4.6-18.5,3.3-23.1c3.2-1.9,8.1-3.3,9-6c0.8-2.3-3-6.2-4.9-9.3c-4.9-8.5-4.5-14.2,1.2-21.1
			c3.5-4.2,7.1-5.7,12.7-3.8c5.7,1.9,11.7,2.4,16.6-0.6c-4.2-4-8.4-8.2-12.8-12.1c-2.1-1.9-4.2-3.8-6.7-5c-8.8-4.4-13-2.8-18.7,6.7
			c-0.5-0.1-1-0.3-1.4-0.4c1.1-3.2,1.5-6.8,3.3-9.5c7.4-11.1,30-24,48.2-16.7c4.9,2,9.7,4,14.9,6.2c-5.6,5.3-11.4,6.6-19,2.8
			c5.9,4.9,10.5,5.2,16.6,2.2c7.8-3.8,15.5-7.6,23.5-10.9c8.4-3.4,21-2.6,34.4,0.3c-4.2-3.1-7.1-4-25.7-3.2
			c-8.7,0.4-17.4,3.6-26.2,5.5c0.8-4.4,4.4-7.2,8.4-9.6c8.9-5.2,18.5-6,28.5-4.9c14.8,1.7,27.2,9.5,40.6,15
			c17.6,7.1,34.1,5.7,49.7-5.4c0.4-0.3,0.9-0.5,0.8-1.7c-2.2,1-4.5,1.9-6.7,2.9c-15.2,7.2-30.5,5.2-45.7-0.1
			c-10.8-3.8-21.4-8.2-32.5-11.1c-13.7-3.5-27.5-3.4-40.2,4.5c-0.3-0.4-0.6-0.9-0.9-1.3c2.4-1.9,4.6-4.2,7.3-5.5
			c13.2-5.8,27.3-6.9,40.5-2c27.9,10.2,56.2,9.4,84.7,5.7c6.4-0.8,12.4-4.9,18.8-6.5c4.6-1.2,9.6-0.8,14.5-0.2
			c-15.3,2.6-26.9,11.3-38.4,20.8c-13.9,11.5-29.8,13-46.6,7.6c-2.4-0.8-4.7-1.7-7.5-1.7c3.8,2,7.4,4.5,11.4,5.8
			c12.7,4.3,25,3.6,36.3-4.2c4.6-3.2,8.7-7.3,13.4-10.4c6.6-4.4,13.5-8.4,20.5-12.2c2.2-1.2,5-1.1,8.7-1.9c-1.1,1.8-1.3,2.8-1.9,3
			c-10.5,4.3-17.6,12.9-25.9,20.1c-4,3.5-8.2,6.9-12.8,9.5c-14.1,8-28.7,9-43.5,1.7c-3.6-1.8-7.2-3.3-10.9-4.9
			c11,9.8,23.8,15.1,38.7,13.5c17-1.9,29.3-11.7,39.9-24.3c7.5-8.8,16.5-13.4,28.2-10.2c2.6,0.7,4.9,2.4,7.3,3.6
			c-0.1,0.6-0.2,1.1-0.3,1.7c-3,0.4-6,1-9,1.2c-10,0.5-18.1,4.7-25,11.8c-15,15.3-32.5,25.5-54.6,22.6c-9.9-1.3-20.1-3.9-29-8.2
			c-18.8-9.1-36.6-7.8-54.7,1.1c-12,5.9-23.3,12.9-32.7,24.3C280.7,468.7,280.5,467.9,280.8,467.4L280.8,467.4z M241.1,531.8
			c-5.8,1.5-7.8-3.3-11.2-5.8c0.2-0.4,0.5-0.7,0.7-1.1C234.1,527.2,237.6,529.5,241.1,531.8L241.1,531.8z M205.1,506
			c-7.8-4.6-16.4-7.9-25.6-12.1c14-3.7,41.3,13,47.8,27.7C220.4,516.7,213.1,510.7,205.1,506L205.1,506z M212,572.7
			c-5-7-10.7-15-16.4-22.8C202.9,550.7,211.4,563.1,212,572.7z M194.6,534.3c-4.6-2.7-9.2-5.4-13.8-8.1l0.8-1.3
			C187.1,526.1,191.5,529.2,194.6,534.3L194.6,534.3z M219.5,358c15.5-6.2,26.7-17.5,36.3-30.7C247.5,342,236.9,354,219.5,358
			L219.5,358z M462.1,295.4c-0.6-1-0.2-3.2,0.6-4.2c2.7-3.8,5.7-7.2,9.2-11.6c3.3,9.5,1.3,17.5-2.4,25.9
			C466.7,301.7,464.1,298.7,462.1,295.4L462.1,295.4z M398.1,491.6c1,2.4,3.6,4,5.5,6c1.8-2.1,4.2-3.9,5.1-6.3
			c3.3-8.2,6.2-16.5,8.9-24.9c1.4-4.3,3.2-7.9,8.7-9.2c0,2,0.3,3.6,0,5.1c-2.4,10.9-4.5,21.9-7.7,32.5c-1.5,4.9-4.9,9.5-8.2,13.4
			c-3.8,4.5-7.8,4.6-11.5,0.1c-4-4.8-7.3-10.3-9.8-16c-5-11.4-9.1-23.2-14-35.8c7.1,1.5,11.6,3.6,13.6,10.4
			C391,475.4,394.6,483.6,398.1,491.6L398.1,491.6z M389.6,462.3h28c-3.6,10.1-6.9,19.9-10.7,29.5c-1.1,2.9-4.1,3.6-5.5,0.2
			C397.4,482.4,393.7,472.6,389.6,462.3L389.6,462.3z M453.5,434.8c7.2-13.4,31.9-17,41.4-5.9C480.3,426.3,467.4,432.3,453.5,434.8z
			 M493.4,273.1c14.6,0.8,29.2,1.6,43.8,2.4c1.2,0.1,2.4,0,3.4,0.5c9.2,4.1,18.4,8.2,27.6,12.4c0,0.5,0,1.1,0,1.6
			c-2.6,0.7-5.2,2.2-7.7,2c-7.6-0.8-15-2.4-22.6-3.5c-2.4-0.4-4.9-0.7-7.2-0.2c-9.8,2.3-19.7,3.7-29.5,0.2
			c-5.2-1.8-10.5-3.7-12.2-10C487.9,274.3,489.2,272.9,493.4,273.1L493.4,273.1z M592.5,372.7c-4.4,5.2-6,5.1-10.5,0.9
			c-1-1-3-1.2-4.6-1.2c-5.3,0.1-10.6,0.5-15.9,0.8C565.5,364.2,584.9,363.8,592.5,372.7L592.5,372.7z M558.1,374
			c3.2,9,4,21.2,1.7,23.4C553.2,392.4,552.7,385.9,558.1,374z M621.3,462.8c-3.7,3.2-23.7,4.9-34.6,2.6
			C598.7,464.5,610.1,463.6,621.3,462.8z M648.4,395.2c8.1,5.3,10.8,13.2,8.9,22.2c-2.6,12.4-9.7,22.4-20,29.4
			c-4.4,3-7.5,5.9-8.9,11c-0.4,1.4-1.1,2.6-2.1,3.8c0.3-2.4,0.6-4.8,0.8-7.1c0.4-3.2,2.5-4.6,4.9-6.7c6.4-5.6,11.9-12.4,17.6-18.8
			c1.1-1.2,1.7-2.8,2.5-4.3c8.4-15.3,0.2-30.1-17.4-31c-3.8-0.2-7.6,0.4-11.3,0.6C632,390.7,640.4,389.9,648.4,395.2L648.4,395.2z
			 M644.6,374.6c3.5-1.4,10.8,0.9,15.9,5c6.1,4.9,9.1,11.1,7.7,19C665.7,384.4,659.6,378.1,644.6,374.6L644.6,374.6z M644.7,556.4
			c-8.3-10.9-16.3-21.6-24.4-32.3C632.1,532,640.4,542.6,644.7,556.4z M597.8,477.2c13.4-2.3,28.5-1.4,32.9-19.5
			c1.6,6,0.2,11.2-4.5,14.7C617.7,478.8,608,479.7,597.8,477.2z M624.8,403c3.8-0.6,5.2-0.4,6.3,0.4c0.9,0.7,1.8,1.9,1.7,3.3
			c-0.1,1.9-2.1,3.7-4.9,4c-2,0.7-4.1,1.5-6.1,2.2c-1.7-2.6-3.4-5.2-5.2-7.8C619.9,404,622.7,403.4,624.8,403L624.8,403z
			 M618.5,433.7c1-3.3,2.1-8.4,1.9-15.1c1.2,1.6,2.9,3.9,4.5,7c1.5,2.9,2.7,5.2,3.3,8.2c0.6,3-0.1,6.1-1.4,12.4
			c-1.6,7.4-2.9,9.4-4.5,10.6c-1.2,0.9-2.4,1.3-3.2,1.6c-1.9-2.2-4.3-5.8-4.6-10.5C614.3,442.8,616.7,440,618.5,433.7L618.5,433.7z
			 M613.2,416.6c-1.8-4.9-3.6-9.8-5.4-14.6c0.9-0.4,3.9-1.5,5.9-0.2C616.5,403.6,617,409.9,613.2,416.6L613.2,416.6z M612.1,448.5
			c0.4,1.6,1.1,3.7,2.4,6.1c1.2,2.1,1.9,2.8,1.7,3.7c-0.3,1.2-2.4,2.4-10.2,2.5c-0.4-2.2-0.7-4.7-0.8-7.4c0-1.3,0-2.6,0-3.8
			C607.6,449.2,609.9,448.8,612.1,448.5L612.1,448.5z M636.8,506.3c9.5,7.3,13.7,16.9,20.9,45.7c6.7-13.3,13.8-27.5,20.8-41.6
			c0.8,0.4,1.6,0.8,2.4,1.2c-2.9,5.3-6,10.5-8.8,15.8c-2.8,5.5-5.6,11-7.9,16.6c-2.3,5.8-4.1,11.8-6.6,19.2
			C656,541.4,645.7,524.1,636.8,506.3L636.8,506.3z M631.2,344.9c-0.7,0.4-1.6,0.4-2.5,0.5c4.6-3.2,9-6.8,14-9.6
			c4.8-2.7,11.1-1.5,17.5,2.2c-0.2,0.2-0.5,0.5-0.7,0.5C649.1,336.4,639.8,339,631.2,344.9L631.2,344.9z M651,346.3
			c-2.4,5.8-11.5,10.1-16.1,7.9c-1.1-0.5-1.6-2.3-2.1-4.4C640,353.9,644.7,346.6,651,346.3z M659.9,292.3c-0.4,6.7-1.6,7.8-7.2,7.4
			c-4.7-0.3-8.8,0.1-12,5c-2.1,3.2-6.4,5-9.8,7.3l-1-1.2C637.4,300.9,647.9,295.7,659.9,292.3L659.9,292.3z M633.2,296.8
			c-4.7,7.2-8.7,13.5-12.9,20C617.4,310.8,623.5,300.9,633.2,296.8z M629.3,320.4c11.9-4.7,23.8-4.3,34.8,3.2
			c1.2,0.9,2.2,2.2,3.3,3.3c-0.3,0.5-0.5,1-0.8,1.5c-3-1-6.1-1.7-9-3c-6.4-2.8-12.8-6.1-20.1-3.5c-8.6,3.1-16.4,7.6-20.2,16.6
			c-2.5,5.9,0.2,9,6.5,8.1c1.3-0.2,2.6-0.5,3.8-0.7c-2.6,0.9-5.1,2.1-7.7,2.3c-3.8,0.2-6-2.2-6.3-6.2
			C612.8,333.3,618.5,324.7,629.3,320.4L629.3,320.4z M605.4,317.4c3.5,1.7,8.2,3.6,5.7,9.4c-0.1,0.1,0.8,0.6,1,0.7
			c-1.9,7.1-3.6,13.9-5.7,20.5c-0.3,1.1-2.2,1.8-3.8,2.4c2.8-2.7,2.4-5,1.2-8.5c-1.4-4.3-0.7-9.4-0.6-14.1c0-1.7,0.8-3.5,1.2-5.2
			c-0.3-0.5-0.7-0.9-1-1.4c-4.2,1.7-8.8,2.8-12.5,5.2c-1.7,1.1-2.9,4.7-2.5,6.8c0.7,4.1,2.8,7.9,4.6,12.8c-5.1-4.4-7.8-9.6-8.5-15.2
			C583.9,325.2,600.2,314.8,605.4,317.4L605.4,317.4z M581.7,345.2c3.5,6.1,9.5,5.9,15.3,6.1c0.8,0,1.6,0.5,2.4,0.8
			c-4.5,0.1-9,0.3-13.4,0.1c-4-0.2-5.1-3.3-5.6-6.8C581.1,345.3,581.7,345.1,581.7,345.2L581.7,345.2z M588.9,354.6
			c3.6-0.3,7.1-1.5,10.7-2.4c0,0,0.1,0,0.2,0.1c5.3,0.6,10.6,0.9,15.8,1.8c3.2,0.5,6.2,1.9,9,3.4h-20.8c0.3,0.2,1.2,0.9,2,1.6
			c-4,5.6-4.9,9.4-2.6,11.5c4.7-5.5,9.1-11.5,17.9-10.1c8.5,1.3,14.8,5.4,19.7,12.7c-1.5-0.7-3.1-1.2-4.5-2
			c-2.6-1.5-4.9-3.5-7.6-4.6c-10.9-4.5-17.2-0.6-18.3,11.7c-3.7-1.8-6.2-0.2-8.9,2.5c-4.8,4.8-11.3,5.8-17.9,6.3
			c2.5-1.1,4.8-2.5,7.4-3.4c4.2-1.5,8.9-7.7,8.3-12c-0.2-1.3-1.8-3-3.1-3.4c-4.5-1.5-9.2-2.9-13.8-3.5c-4.5-0.6-9.2-0.1-14-1
			C575,360.2,580.9,355.3,588.9,354.6L588.9,354.6z M639.3,241.8c-9.1,20.8-23.6,35.5-46.5,40.6c-3.4,0.8-6.9,1.5-10.3,1.6
			c-3.5,0.2-7-0.3-11.7-0.6c16.9-11,32.6-21,48-31.5c5.7-3.9,10.6-9,16.1-13.4c0.8-0.7,2.8-0.9,3.5-0.4
			C639.2,238.9,639.7,240.9,639.3,241.8L639.3,241.8z M637,208.6c0.9-1.8,1.8-3.5,2.8-5.3c0.6,0.2,1.1,0.4,1.7,0.6
			c-0.7,3-1.4,6-2.3,9.6c-0.7-1.7-1.2-2.9-1.7-4c-0.7,3.4-2.1,6.8-2,10.1c0,2.9,1.5,5.8,2.4,8.8l-2.3,0.5c-0.8-5.2-2-10.3-2.3-15.5
			C633.1,211.9,635.7,210.2,637,208.6L637,208.6z M505.7,117.3c-1-13.7,1.1-27,10.9-37.9c-3.6,11.8-6.4,23.6-6.1,36
			c0.3,12.9,5.7,23.6,14,33.2C512.5,141.6,506.7,130.5,505.7,117.3L505.7,117.3z M498,123.9c-7.5-9-7.9-29-1.1-40.7
			c4.7-8,9.6-16.1,20.5-17.4C498.5,80.8,492.6,100,498,123.9L498,123.9z M484.1,114c-6.1-7.4-7.2-22.8-1.9-33.8
			c5-10.3,11.5-19,24.3-20.5C488.2,73.5,479.1,90.9,484.1,114L484.1,114z M485.6,58.7c4.5-7,11.5-10.7,17.1-8.5
			C497.4,52.9,492.1,55.5,485.6,58.7z M541.1,120.2c-4.2-5.4-3.9-18,2.3-24.5C542.6,103.9,541.8,112.2,541.1,120.2z M534.6,82.5
			c-5.3,3.5-7.8,8.3-8.4,14c-0.6,5.4-0.1,10.9-0.1,16.2c-9.9-13,0.9-41.1,18.4-45.1c-3.9,3.7-7.2,6.8-10.5,9.9
			c0.1,0.1,0.3,0.3,0.4,0.4c4-2.5,8-5,12-7.5c0.2,0.3,0.5,0.6,0.7,0.9C543,75.1,539.2,79.5,534.6,82.5L534.6,82.5z M572.9,139.5
			c-1.5-2.2-3-4.4-5.2-7.6c-1.7,1.9-3.1,3.6-4.5,5.2c-5-10.5-2.6-20.9,2.1-29.9c2.9-0.3,4.4-0.5,6.2-0.7c-5.9,11.2-3.4,22,2.9,32.6
			C574,139.2,573.5,139.3,572.9,139.5z M596.8,180.7c-1.3,0.2-2.5-0.9-3.1-1.4c-10.5-9.3-10.5-7.2-13.2-11.2
			c-5.3-7.8-5.7-15.9-5.6-19c1.8,4.1,5.6,11.2,13,17.5c4.8,4,9.5,6.4,13,7.8C600.7,175.4,599.5,180.3,596.8,180.7L596.8,180.7z
			 M582.3,137.6c-3.5-1.5-7-2.5-5.4-7.5c0.6-1.9-0.6-4.5-1.1-6.8c-1.4-6.6-1.3-13,3.4-18.8C576.4,115.9,580.2,126.7,582.3,137.6
			L582.3,137.6z M631.1,162.3c-0.3,1.9-0.9,4.6-2.1,7.6c-1.9,4.7-4.7,11.5-10.9,13.4c-7.8,2.4-15.3-4.6-15.8-5.1
			C611.4,172.4,623.7,172.5,631.1,162.3z M605,119.9c-5.4-7.7-5.6-12.8-4.7-16.1c1.2-4,4.7-7.3,3.3-10c-0.3-0.5-0.8-1.5-3.5-2.2
			c-4.1-1.1-8.7-0.8-12.1-1c6.6-3.8,17.1-1.1,22,6.5c3.8-1.1,7.3-2,11-3c-0.1,0.7-0.2,1.7-0.8,2.9c-2.3,5-8.2,5-11.8,8.3
			C606.3,107.4,604.2,111.4,605,119.9z M642.2,108.5c-2.2,2.5-4.4,4-5.6,4.7c-1.4,0.9-3.5,1.9-6.2,2.7c3.3-6,6.5-12,9.8-18
			c0.9,0.2,2.3,0.5,4.1,0.4c1.9-0.1,2.5-0.6,2.9-0.3C648.3,98.9,645.7,104.5,642.2,108.5L642.2,108.5z M636.4,59.5
			c6.6-1.9,13.3-2,18.8,2.9c1.4,1.2,1.4,3.9,1.3,6.2c-1.1-5.3-1.8-5.8-7.4-5.2c-1.2,0.1-2.6,0-3.7-0.4c-7.3-3-8.3-2.8-13.8,3.5
			C630.9,62,633.5,60.3,636.4,59.5L636.4,59.5z M629.8,57.5c-0.8,2.3-5.2,2.9-13.3,1.9C620.7,58.8,625,58.2,629.8,57.5z M627.3,65
			c-1.7,2.2-3.1,4.1-4.5,6c0.2,0.3,0.3,0.7,0.5,1c3-1,6-2.1,9-3.2c4.3,2,9,4.2,14.3,6.8c-7.5,0.4-13.9,0.9-20.3,1.1
			c-2.1,0.1-4.2-0.7-6.4-0.8c-2.7-0.1-5.5-0.3-8,0.4c-3.2,1-5.1,0.6-6.1-3.4c-2.8,4.6-0.5,7.8,1.9,10.5c4.3,4.9,10,5.4,16,4.7
			c4.6-0.6,9.3-1.1,13.9-0.9c2.9,0.1,5.8,1.7,8.6,2.6c-0.1,0.2-0.2,0.4-0.3,0.6c-8.2,0-16.5-0.4-24.7,0.1
			c-6.7,0.4-11.9-1.7-15.7-6.8c-2.1-2.9-4.3-3.7-7.5-3.3c-8.6,1-17.1,2-25.7,2.9c-2.4,0.2-5.1,0.4-7.3-0.2c-4.5-1.3-8.2-4.2-8.7-9.2
			c-0.5-5.2,3.4-7.6,7.5-9.4c2.6-1.1,5.3-1.9,8.1-2.5c2.9-0.7,6-1.5,7.4,2.6c0.1,0.4,0.6,0.8,1,1.1c6.8,5.6,20.4,6.6,27.3,1.1
			C614.1,61.6,620.2,62.8,627.3,65L627.3,65z M591.2,35.8c-5.6-3.5-10.7-6.7-15.7-9.8C583.4,25.5,589.3,29.5,591.2,35.8z
			 M481.5,16.6c8.2-1.7,16.3-1.7,24.7,0.4c6.6,1.7,13.8,1.1,20.7,1.5c2.6,0.1,6-1,6,3.1c-0.1,3.9-3.6,4-6.4,3.6
			c-4.8-0.7-9.4-1.9-14.1-3c-1.7-0.4-3.4-1.1-5.1-1.7c-0.2,0.4-0.4,0.7-0.6,1.1c1.1,0.6,2.1,1.5,3.2,1.9c5.9,1.7,11.8,3.4,17.8,4.9
			c10.6,2.7,21.2,5.6,31.9,7.7c3.8,0.7,8-0.7,12-1.1c0.1-0.7,0.2-1.3,0.2-2c-7-2.2-14.1-4.5-21.2-6.7c0.1-0.4,0.2-0.8,0.3-1.1
			c3.8,0.8,7.7,1.6,11.5,2.5c9.9,2.3,19.7,4.8,28.3,10.6c1.5,1,3.7,1,5.6,1.1c6.2,0.3,10.2,2.5,13.3,7.9c-2.9-1.3-5.6-2.5-8.2-3.7
			c-0.4,0.6-0.8,1.2-1.2,1.7c3.9,4.3,7.9,8.6,12.2,13.3c-3,1.1-6,2.3-9,3.4c-0.3-0.4-0.5-0.8-0.8-1.1c1-0.4,2-0.8,3.6-1.4
			c-6-3.7-10.9-6.7-15.8-9.7c-0.3,0.4-0.6,0.8-0.9,1.2c3.3,3.4,6.7,6.8,10,10.1c-0.2,0.4-0.3,0.8-0.5,1.3c-2.1-0.8-4.7-1.1-6.1-2.6
			c-4.7-4.6-9.8-6.5-16.3-5.4c-4.6,0.7-9.3,1.1-13.9,1.2c-2.3,0-4.6-1-8.2-1.8c7.5-2.7,13.3-4.8,19.7-7c-5.8-2.7-5.8-2.7-12.5-1.2
			c-1.1,0.2-2.6-0.5-3.6-1.2c-9.6-6.4-20.2-9.7-31.5-12c-6.9-1.4-13.3-4.6-20.4-7.2c1.8,6,4.3,11.9,11.1,14.2
			c5.3,1.8,11,2.8,16.4,4.1c1.5,0.4,3.1,0.8,4.4,2.2c-4.9-0.3-9.8-0.7-15-1.1c4.9,8.8,13.6,11.7,22.8,15.5
			c-8.7,3.5-15.9,5.2-23.9-0.2c-11.3-7.7-15.4-18.7-16.9-31.4c-0.4-3.1-0.4-6.3-0.6-10.3h-27.1C479.4,17.5,480.4,16.8,481.5,16.6
			L481.5,16.6z M444.1,72.1c8.1-23.7,24.3-38.5,50-41.4c2.5-0.3,5.1,0,7.6,0l0.5,1.9c-2,1-3.9,2.2-6,3c-6.2,2.4-12.9,3.9-18.7,7
			c-16.4,8.7-27,22.1-29.5,40.8c-1.5,11.6,1.8,21.7,11.2,29.4c4.8,4,9.8,8.2,13.7,13c7.6,9.5,10.9,20.5,8.6,32.8
			c-0.1,0.6-0.3,1.3-0.5,1.9c-0.1,0.3-0.4,0.5-1.2,1.4c-0.4-18.4-7.2-33-21.8-42.9C438.9,106.2,439,86.9,444.1,72.1L444.1,72.1z
			 M412.5,90.8c5,1.3,8.5,4.6,9.1,8.5c0.1,0.9,0.2,2.4-0.6,4.3c-0.4-0.8-1.6-3.5-2.7-3.4c-0.4,0.1-0.6,0.5-1.8,2.3
			c-0.6,0.9-1.1,1.6-1.5,2.1c0.4-1.5,0.8-4.3,0.1-7.7C414.5,94.1,413.3,92,412.5,90.8L412.5,90.8z M414.8,88c-5,0.7-7-0.7-8.9-6.3
			C411.7,81.2,413.7,82.7,414.8,88z M408.3,195.9c-1-0.7-3,0.8-4.5,1.7c-1.2,0.9-1.8,1.3-2.3,2c-1.2,1.9-0.7,4-0.5,4.7
			c-2.2-0.1-3.2-2.4-3.9-5.1c-1-3.8,1.5-10.4,5.3-11.3c2.5-0.6,5.9,1,8.4,2.4c1.2,0.7,2.1,3.4,1.9,5c-0.5,3.6-1.5,7.2-2.9,10.5
			c-0.7,1.6-0.3,3.8-1.3,4.2c-0.8,0.3-1.6-0.6-2.7-0.2c-0.8,0.3-0.8,1-1.4,1.6c-0.6,0.6-1.8,1.1-4.2,0.7c1.6-1.9,8.9-11.1,8.8-14.8
			C408.8,197.1,408.8,196.2,408.3,195.9L408.3,195.9z M391.2,209.1c0.6-0.2,0.9-0.6,1.2-0.9c0.7-0.6,1.8-1.3,3.8-1.6
			c-1.1,4.5-4.9,7.3-7.5,6.1c-1.6-0.7-3.5-3.1-3.4-4.6c0.2-3.2,4.9-4.8,8.8-3.2c-4.8,2.1-6,3.2-5.9,3.7
			C388.3,209.2,390,209.6,391.2,209.1L391.2,209.1z M393.1,200c-6-0.9-9.6-5.2-7.6-10.2c-1.4-0.5-2.7-0.9-4.3-1.5
			c0.3-1.1,1-2.6,2.3-3.9c2-2,4.4-2.3,4.6-3.8c0.1-0.4-0.1-1.1-1-2.1c1.2-3,3.8-5,6.5-4.9c4.2,0.1,6,5.1,6.3,5.7
			c1.1,3,0.2,5.8-1.2,9.9C397.4,192.9,395.2,196.2,393.1,200L393.1,200z M361.8,176.2c-0.1-0.7,0-1.2,0.1-2.2
			c0.2-1.5,0.5-2.1,0.4-2.2c-0.4-0.2-3.1,5.5-4.9,5.1c-0.4-0.1-0.7-0.4-0.8-0.8c-0.2-1.1,1.7-2,1.5-2.5c-0.2-0.6-3.6-0.8-6,1
			c-2.5,1.9-2.8,5.1-2.9,5.8c-0.8-2.2-1.6-3.9-2.2-5c-0.5-1-0.7-1.4-0.7-2.1c0.2-1.5,2-2.2,3.7-3.2c4.8-2.9,4.2-5.3,6.8-5.8
			c3.6-0.6,5.3,4.2,8.8,3.6c4-0.6,6.1-7.8,7.2-7.3c0.5,0.2,0,1.6,1,3.7c0.2,0.5,1,2.1,2.2,2.2c0.9,0.1,1.8-0.5,2.1-1.5
			c2.1-7.4,8.5-9.9,14.1-13.4c0.6-0.4,1.1-0.9,1.2-2.3c-4.1,2.3-8.3,4.6-13.6,7.5c1.7-2.7,2.6-4.7,4-6.3c3.6-4.3,7.4-8.6,11.2-12.7
			c2.9-3.1,8.2-1.4,9.5,2.6c1.1,3.7,3.4,5.7,4.3,12.1c0.6,4.2,0,5-0.5,5.4s-1.2,0.3-5-1.5c-4.5-2.2-5.7-3.2-7.8-3
			c-1.5,0.2-3.1,1-3.2,1.8c0,0.9,2.2,1.3,4.3,3.9c0.6,0.7,0.9,1.1,0.8,1.5c-0.3,1.4-3.8,1.1-7.9,2.6c-2.4,0.9-3.9,2-5.8,3.3
			c-2.7,1.9-5.6,4-7.8,7.5c-0.4,0.6-2.2,3.7-5,5.7c-0.3,0.2-1,0.7-1.5,0.5c-1-0.5,0-3.8-0.7-4.1c-0.5-0.2-1,1.3-2.8,2.2
			c-0.7,0.3-1.8,1-2.6,0.4C362.7,178.4,361.9,177.2,361.8,176.2L361.8,176.2z M364.8,181.9c-1,0.7-3.4,2.6-4.7,5.9
			c-0.9,2.2-0.9,4.2-0.9,5.4c-4.2-0.9-7.4-4.1-8-8.1c-0.8-4.8,2.6-8.2,2.9-8.5c0.3,0.3,0.7,0.9,0.9,1.6c0.3,1-0.2,1.5,0,2.1
			c0.4,1.4,3.2,1.8,4.4,1.9C360.6,182.4,362.5,182.5,364.8,181.9L364.8,181.9z M344.4,149.4c-0.4-1.5,2.5-2.6,2.5-5.5
			c0-1.8-1.2-2.4-0.8-3.8c0.4-1.4,1.8-2.3,3.7-3.2c0.7,1.3,1.3,2.6,2.1,4.2c1.5-2.6,2.8-5,4.1-7.3c1.5-2.7,4.2-2.6,5.5-0.4
			c3.9-4.9,7.9-10.2,12.2-15.2c1-1.1,2.8-1.6,4.3-2.2c3.3-1.2,7.3-1.5,9.7-3.6c4-3.5,7.1-2.6,10.2,0.5c2.6,2.6,8.5,2.2,7.3,8.4
			c0.5,0.2,0.9,0.5,1.3,0.7c-0.2-2.5,0.6-4.4,1.7-4.6c0.8-0.2,1.7,0.4,2.2,1c1.3,1.5,0.8,3.6,0.4,6.8c-0.2,1.9-0.5,4.6-0.6,8.1
			c-0.8,0.2-1.9,0.6-3.3,0.9c-3,0.6-3.4,0.4-3.6,0.2c-0.6-0.6-0.7-1.7-0.3-3.5c0.9-3.6,0.4-4.3,0-5.2c-0.8-1.5-2.7-2.3-3.3-1.9
			c-0.4,0.3-0.1,0.9,0,2.9c0.1,1.1,0,2,0,2.7c-3.7-2.1-7-2.6-9-3.2c-6.5-1.7-12.1,0.5-17.4,4.2c-2.3,1.6-2.2,3.1-0.4,4.8
			c3.4,3,7,5.1,12.4,2.4c-0.6,1.9-1,3.2-1.5,4.6c1.1,0.4,2.3,0.8,3.5,1.2c-5.3,7.7-12.4,6.9-20.3,4.6c0,0.7,0,1.3,0,2
			c0.1,0.2,0.4,0.7,0.2,1.3c-0.2,0.5-0.8,0.8-1.1,0.8c-2,0.2-2.5-7.5-6.5-8.6c-2.2-0.6-4.9,1-5.6,1.4c-0.9,0.5-1.4,0.8-1.4,1.2
			c-0.1,1.2,3.3,2.8,8.7,4.4c-4.7,4.2-8.9,6.3-6.3,11.6c0.6,1.3-1.2,2.3-2,2.9c-1.9,1.7-5.8,3.8-7.4,2.5c-0.6-0.5-0.4-1-0.5-6.7
			c0-2.9-0.1-3.6,0.5-4c1.4-1,3.9,1.6,5.6,0.5c1.1-0.7,1.6-2.7,1-4.1C351,150.3,345,151.6,344.4,149.4L344.4,149.4z M337,140.5
			c0.5,1.2,0.7,1,2.3,4.1c1.5,3.1,1.4,3.7,2.6,5c1.6,1.9,3.1,2,3.1,2.9c-0.1,1-2,2.3-3.7,1.9c-1.6-0.3-2.4-2-5.8-11.1
			c-2.1-5.4-2.3-6.1-2.2-7.3c0.1-4.1,3-9.1,6.7-9.7c5.3-0.8,10.8,7.3,10.5,7.7c-0.1,0.1-0.7-0.5-2.5-1.5c-3-1.6-5.7-3.1-7.7-2.1
			C336.4,132.3,335.6,136.7,337,140.5L337,140.5z M348.8,116.4c1.1,2.5,2.7,3.6,3.4,4.1c2.1,1.3,4.3,1.3,7.1,1.4
			c1.4,0,2.5-0.1,3.3-0.1c-2.4,4.8-8,6.1-11.4,3.8C348.7,123.8,347.6,120,348.8,116.4L348.8,116.4z M397.1,101.1
			c6.5,0.8,7.9-4,10.4-7.9c0.5-0.8,1.1-1.6,1.7-2.4c4.5,4.3,3.4,9.8-2,12.1c-2.5,1.1-4.6,2.9-8.1,5.1c-0.4-0.3-2.2-1-3.3-2.3
			C394,103.6,394.1,100.7,397.1,101.1L397.1,101.1z M382.2,130.5c-1.1,0.8-2.1,2-4.2,2.8c-0.6,0.2-1.9,0.7-2.3,0.2
			c-0.5-0.5,0.3-1.9,0.4-2.1c2.2-4,12.6-3.5,12.7-3C388.8,128.6,385.4,128.1,382.2,130.5L382.2,130.5z M370.5,156.6
			c-3.1,7.4-5.6,8.8-10.6,5.9c-0.9-0.5-2-2.1-1.8-2.9C359.3,155.1,367.1,153.3,370.5,156.6L370.5,156.6z M406.5,184.4
			c-1.4-4.4-2.7-8.7-4-12.8C410.3,177.1,411.4,180,406.5,184.4z M373,183.4c0.1-0.9,0.3-2.5,1.4-4.1c1.2-1.8,2.7-2.6,3.7-3.2
			c3.1-1.7,6.1-1.7,7.8-1.6c-0.8,6.2-4,10.8-8,11.5c-0.8,0.1-2,0.2-3.6-0.4c-0.2,4.1,0.3,8.6-4.9,9.5c-1.4,0.2-4.4-1.8-4.6-3.1
			C363.9,186.2,368.7,185,373,183.4z M375.7,195.1c1.3-1,3-1.5,4.5-2.2c0.8,1.8,2.1,3.5,2.1,5.2c0,0.9-2,2.6-3.3,2.8
			c-3.2,0.4-6.5,0.1-9.7,0.1C372.1,198.5,373.8,196.6,375.7,195.1L375.7,195.1z M323,104.6c1.4-2.8,2.1-4.2,3.5-5.8
			c3.9-4.8,9.4-7.7,15.8-9.5c4-1.1,8.2-1.7,10.7-6.2c1-1.9,4.9-3.2,7.5-3.1c10.6,0.3,21.1,1.3,32,2.1c-1.5,6-7,5.1-10.7,6.9
			c4.6,2.8,9.5,2.7,12.3-0.3c2.7-2.8,2.2-5.5-2-11.4c3.8-2.1,6.7-0.4,9.3,1.9c1.2,1,1.9,2.2,2.3,3.4c0.9,2.7-0.2,5.3-0.6,6.2
			c-3.1,7.2-13,8.8-14.4,9c-2.3,0.4-4.2,0.4-5.5,0.3c1.9,1.6,2.8,4,2.3,6.2c-0.7,3-4.1,5.2-7.8,4.6c0.7-0.1,4-0.8,4.6-2.9
			c0,0,0.2-0.7-0.1-1.5c-1.5-4.2-22.7-6.9-25.9,0c-0.5,1.1-0.7,2.8,0.3,5.3c0.1,0.7,0.5,2.1,1.8,3.2c1.4,1.2,3.6,1.7,4,1.2
			c0.5-0.8-2.3-2.8-1.7-4.2c0.5-1,2.6-1,3.1-1c3,0.1,4.1,1.9,5.8,1.5c0.8-0.2,1.8-1,2.6-3.8c0.2,1.2,0.3,3.4-0.8,5.6
			c-2.3,4.5-8.3,5.7-12.3,5.2c-5.9-0.7-9.3-5.2-10-6.2c-1.1,1-2.4,1.7-3.1,2.9c-0.8,1.3-1.7,2.3-2.7,3c-2.1,1.5-3.3,0.8-7.9,1.9
			c-4.5,1.1-5.6,2.5-7.8,1.8c-1.7-0.5-2.8-1.9-3.4-2.9c-3.3,3-4.6,3.2-5.2,2.9C317,119.6,319.9,110.7,323,104.6L323,104.6z
			 M315.4,116c0.6,6.1,1.8,8,2.9,8.2c1.5,0.3,2.9-2.8,5.1-2.3c1.1,0.2,1.4,1.2,2.5,2.1c1.2,0.9,3.4,1.6,7.9,0.2
			c-2.9,5.9-5.9,7.2-7.9,8c-2.7,1.1-5.9,0.9-10.8,0c-1.1-0.2-2.4,0.6-3.6,0.9c-1.7,0.3-3.4,0.5-5.8,0.9c0.3-0.9,1.2-3.6,2.4-7.3
			c1.7-5.1,2.6-7.7,4.8-9.3C313.8,116.5,314.8,116.2,315.4,116L315.4,116z M329.9,143.2c-1.7,12.7-3.2,14.2-4.5,14.8
			c-2.4,1.2-5.4-0.1-5.8-0.3c-3.2-1.4-4.3-4.5-4.5-5c3,0.2,5.6-0.1,7.4-1.6c1.3-1.1,1.8-2.5,2-3.4c1.9-5.4,5.2-13.9,5.9-13.7
			C331.1,134,330.2,140.7,329.9,143.2z M320.5,137.6c0.4-0.5,2.5-0.3,3.4,0.3c0.5,0.4,0.6,2.2,0.2,3.1c-2.6,5.9-13.3,6.7-18.6,0.1
			C312.1,142.8,316.8,142.3,320.5,137.6L320.5,137.6z M311.5,151.8c-0.7,0.4-4.6,2.6-5,6.2c-0.5,4.3,4.3,9.7,12,10.3
			c-1.6,1.2-4.8,3.3-8.3,2.7c-7-1.2-9.4-12.1-9.6-13.1c-0.3-1.3-0.3-2.2-0.3-2.7c-0.2-5.4,2.1-10.8,3.7-10.7c1.3,0.1,1.1,3.8,4.4,6
			C309.5,151.4,310.6,151.7,311.5,151.8L311.5,151.8z M304.1,128.9c0.9,1.6-3.4,4.6-2.4,6.8c0.5,1.2,2.3,1.6,4.1,1.8
			c-1.5,1.1-4.8,3.2-9.3,3.3c-1.8,0.1-3.4-0.2-4.6-0.5c0-0.6-0.2-8,4.8-11C299.4,127.7,303.4,127.6,304.1,128.9L304.1,128.9z
			 M291.4,144.2c7.1,2.2,8,5,3.3,10.2C291.6,151.6,289.5,148.6,291.4,144.2L291.4,144.2z M287.3,167.5c-0.4-3.7-1-7.4-1.1-11.1
			c0-0.5,2.4-1.9,2.9-1.6c3.2,2,6.2,4.4,10.1,7.2C293.1,163.2,289.2,165,287.3,167.5L287.3,167.5z M310.1,178.4
			c-3.4,5.2-9.7,7.1-14.4,4.8c-3.9-1.9-6.5-6.6-5.6-10.8c0.4-2.2,2.1-5.6,5.3-6.4c1.6-0.4,3,0,3.9,0.3c-2.6,3.1-2.6,7.7,0.1,10.8
			C302.1,180.1,306.7,180.7,310.1,178.4L310.1,178.4z M139.2,367.3c1.4,0.7-4.5,15.2-4,15.4c0.3,0.1,2.3-4.6,4-8.7
			c4.5-11,6.2-17.1,8.8-17c0.7,0,1.2,0.4,1.3,0.5c1.6,1.2,0.4,4,0.6,8.1c0.2,2.8,1,5.5,1.4,5.5c0.7,0-0.1-7.6,1.1-17.8
			c0.9-7.5,1.6-12.3,4.9-16.7c3-4.1,6.4-5.4,10.8-7.8c15.4-8.6,23.9-21.4,23.6-21.7c-0.4-0.4-18.1,17.8-21.1,15.4
			c-2.2-1.8,4.8-14.7,10.9-23.6c8.6-12.5,18.4-21,25.9-26.5c4,6.3,8,12.7,12,19c0.7-0.1,1.7-0.3,2.3-1c3-3.6-8.2-12.7-11.3-26.2
			c-3.5-15.4,5.4-29.5,7.8-33.7c8.5-15.3,22.9-22.1,41-20.3c-10.4,4.4-18.7,10.9-23.1,21.7c1.1-1.4,2.1-3.1,3.4-4.3
			c5.8-4.9,11.6-9.8,17.6-14.4c1.5-1.1,3.9-2.1,5.6-1.8c6,1.4,8.5-2.8,12.2-6c10.7-9.5,23.6-15.4,37.4-17.8
			c7.9-1.4,11.8-5.4,15.4-11.6c3.1-5.2,7-10,10.7-14.9c1-1.3,2.5-2.1,4.6-3.7c0,5.1,0.3,9.4-0.1,13.7c-0.9,10.2,1.9,19.6,9.9,25.4
			c2.2,1.6,3.4,2.5,5.3,5.1c2,2.7,3,5.8,4.9,11.8c2,6.5,1.7,7.1,1.5,7.3c-0.4,0.2-1.2-0.4-4.5-3.7c-5.2-5.2-7.8-7.8-8.4-9.1
			c-1-2-1.8-4.5-3-4.4c-0.3,0-0.7,0.2-0.8,0.5c-0.7,1.2,1.4,3.8,2.3,4.8c6.9,8.5,10.4,12.7,9.6,14.1c-1,1.9-8.7-2.1-21.2-2.9
			c-9.5-0.7-16.9,0.8-16.9,1c0,0.2,8.1-1.1,18.7,0.5c5.1,0.8,14.7,2.3,23.7,8.4c11,7.5,16.3,18.4,16.5,18.2
			c0.2-0.2-3.9-9.6-8.1-15.2c-0.6-0.7-2.2-2.9-1.7-5.2c0.1-0.6,0.5-1.3,1.1-1.9c1-1,3.4-1.6,4.8-1.2c7.4,2.4,14.5,6.4,22.1,7.5
			c6.5,1,13.6-0.5,20-2.2c6-1.6,9.3-6.4,9.9-13c0.3-3.3,1.9-6.4,3.6-9.6c-1.6-4.7-5-0.6-7.9-0.8c18.1-18.8,41.5-21.6,62.4-8.6
			c8.3,5.2,15.4,11.8,20.4,20.2c1.6,2.7,3.4,3.4,6.4,3.3c17.1-0.6,33,3.7,47.3,13.3c1.6,1.1,3,2.5,4.8,3.9c-1,1.6-1.8,3-2.6,4.4
			l0.6,0.7c1.2-1.4,2.6-2.7,3.7-4.2c6.5-8.6,15.7-12,25.9-13.4c6.3-0.9,12.7-0.9,18.8-2.3c6.1-1.3,11.9-3.7,17.9-5.6
			c1.1,4.1,3.2,8.7,3.4,13.4c0.1,3.3-1.8,7.7-4.3,9.8c-8.2,6.7-17,12.7-25.8,18.7c-5.5,3.7-11.5,6.7-17.1,10.2
			c-10.5,6.5-21.8,6.5-33.3,4.4c-3-0.5-6-1.7-9.5-2.7c1.7-1.2,3-2.2,5.2-3.9c-2.6-0.5-4.4-1-6.2-1.3c-13.5-1.9-27.1-3.3-40.5-6
			c-6.7-1.4-12.9-5.2-19.2-8.1c-0.5-0.2-1.5-0.9-2.2-2.2c-1.2-2.2-0.5-4.7-0.2-5.9c1.5-5.2,5.9-8.1,6.4-8.4c5-3.2,10.1-2.6,10.5-4.9
			c0.1-0.7-0.3-1.3-0.4-1.5c-1.8-2.3-7.2,0.8-16.3,2.3c-7.8,1.2-13.6,0.5-14,2.3c-0.1,0.5,0.3,1.1,0.6,1.5c1.7,0.5,5.3,1.9,6.2,4.9
			c0.8,2.6-1.2,4.9-2.5,7.4c-3.8,7.4-7.8,14.8-12.6,21.5c-2.7,3.8-7,6.5-10.7,9.4c-2.6,2-5.5,2-8.4,0.1c-0.9-0.6-2.6-0.8-3.4-0.3
			c-10.9,6.1-22.6,4.1-34.2,3.6c-1.6-0.1-3.2-0.4-5.4,0.5c1.7,1,3.2,2.6,5,3c9,2.1,18.1,4.7,27.3,5.7c14.3,1.5,14.3,8.1,9.7,18.3
			c-1,2.2-2.5,4.4-4,6.3c-3.1,4.1-5.6,6.4-8.5,7.3c-1.2,0.4-1.5,0.2-11.4-1.1c-4.5-0.6-6.6-0.8-6.7-0.3c-0.2,0.8,3.6,2.8,4,3.1
			c0.3,0.1,0.8,0.5,1.5,0.7c5.6,2,11.5,3.3,17.1,5.5c6.3,2.6,7.2,5.7,4.5,11.9c-2.6,6.1-6.1,11-11.3,13.6
			c-5.1,2.5-10.6,1.9-10.6,1.9c-2,0-4.7-0.4-5.5,1c-0.3,0.6-0.3,1.4,0.1,2c1.3,2.1,6.2-0.1,13.1,0c3.7,0.1,9.6,0.1,12.4,3.6
			c2,2.5,2.1,6.4,0.8,12.4c-2.2,10-4.5,20.3-15.9,25.6c9.7,1,14.5-1.5,18-9.2c3.2-6.9,4-14.1,1.4-21.4c-1.7-4.8-1.6-9,1.4-13.6
			c4.2-6.7,3.9-14.3,1.5-21.7c-0.9-2.7-2-5.3-3.1-7.9c-2.5-5.6-0.4-11.4,5.2-13.9c5.1-2.3,8.4-6,10-11.2c3.3,6.4,3.5,12.3,0.7,18.3
			c-2.4,5.1-4.8,9.5-2.8,16c1.3,4.1-1.5,9.4-2.6,14.3c2.2-2.1,4.5-4.2,7.1-6.6c3,5.6,6,10.7,8.6,16c5.5,11.2,3.3,19.6-6.8,26.8
			c-1.3,0.9-3,2.4-3,3.6c-0.2,4.8-3.9,6-7.1,8c-9.2,5.8-19.3,7.9-30,7.5c-10.3-0.4-20.6-0.7-31-0.8c-13.5-0.1-25.8-4.6-38-10.7
			c1.7-2,3.5-4.1,5-5.9c-8.2,0.6-16.3,1.6-24.5,1.7c-15.4,0.1-22.3-9.8-17.1-24.4c1.6-4.5,4.4-8.6,6.2-12.1
			c-2.8-3.5-5.8-6.7-8.3-10.2c-2.2-3.2-1.4-5.4,2.9-6.3c2.5-0.5,2.8-0.7,3.7-1.4c1.5-1.2,2.7-3.9,1.9-5.1c-1.7-2.6-10.4,4-17.6,0.3
			c-3.7-1.9-4.9-5.4-6.3-4.8c-1.4,0.6-1.7,4.4-0.1,7c0.7,1.2,1.6,2.1,5.1,3.5c2.5,1,5,2.3,8,3.7c-3.8,4.2-7.1,6.1-11.9,4
			c-9.6-4.4-15.9-12.1-20.2-21.2c-1.3-2.6,0.6-6.8,1-10c4,3.9,7.4,4.8,9.8,5c2.8,0.2,3.8-0.8,7.2-0.5c3.6,0.3,4,1.6,8.4,3
			c3,1,8.5,2.7,13.6,0.4c2.6-1.2,4.9-3.3,4.5-4c-0.6-1.3-9.8,4.8-16.1,1.3c-4.1-2.3-4.1-7.1-7.2-7.3c-2.7-0.1-3.1,3.5-7.5,4.4
			c-3.9,0.9-7.3-1.2-7.9-1.5c-5.3-2.8-3.7-7-2.8-11.8c10.6,1.3,21.1,2.2,31.5,4c19.5,3.2,38.1,0.3,56.2-7.1
			c5.2-2.1,10.2-4.8,15.2-7.6c2.4-1.4,4.3-3.1,5.7-5.1c1.8-2.6,2.6-5.5,2.9-9.2c1-12.9-5.9-26.6-6.8-26.3c-0.3,0.1,0.3,1.4,0.7,5.1
			c0.2,1.8,0.4,11.3-1,18.8c-1.3,7.3-6.1,13.2-13.1,15.2c-27.4,7.9-55.1,7.2-60.5,5.6c-6.6-1.9-14.2-6.6-29.5-16.1
			c0,0-3.9-2.4-3.4-3.5c0.4-0.9,3.1-0.2,8.2-1.5c1.9-0.5,3.7-1.1,3.9-2.1c0-0.1,0.1-0.5-0.1-0.7c-0.5-0.6-2,0-2.4,0.2
			c-3,1.1-11.3,2.7-12.7,0.7c-0.5-0.7,0-1.9,0.4-2.7c4-8.4,12.8-13.3,12.3-14.4c-0.4-0.9-4.7,0.8-4.7,0.8
			c-15.6,6.1-43.1,24.3-40.9,27.8c1,1.6,6.6-2.1,16.5,0c5.3,1.1,6.8,2.9,7.5,4c1.1,2,0.8,4.6-0.6,8.1c-9.5,22.8-22.5,42.5-48,50
			c-1.8,0.5-3.6,1-5.2,1.9c-3.8,2.1-5,1.4-5.7,1.1c-2.4-1-2.3-4.8-2.9-4.7c-0.8,0.1-2.4,5.7,0.2,9.3c2.8,3.9,8.7,2.8,9.1,5
			c0.3,1.5-2.4,2.6-5.8,5.4c-6.8,5.6-8.2,11-9.5,10.5c-1.8-0.6-0.4-9.6,1.2-20.6c1.6-10.7,3.3-18.3,0.6-19.9c-0.5-0.3-1.4-0.5-2-0.1
			c-1.7,0.8-1.4,4.6-1.3,6.1c0.3,5.3-1.4,10.5-1.9,15.8c-1.3,12.9-2.2,22.4-7.7,27.2c-3.1,2.7-5.5,6-8.3,8.9c-0.9,1-1.6,1.7-1.4,2.2
			c0.5,1,6,0.1,10.1-3c1.8-1.3,2.9-2.6,3.2-3.1c4.8-6.2,10.2-12,16-18.6c3.1,17.5-10.1,40.4-24.6,42.8c1.2-4.8,2.9-8.1,4.4-10.3
			c1.1-1.7,2.6-3.5,2-5c-0.5-1.2-2.1-1.8-3.4-1.9c-3.2-0.1-4.8,3.9-11.1,12.6c-5.3,7.3-8.9,8.9-12.2,11.8c-1,0.9-3.3,1.7-3.9,1.2
			c-4.8-3.8-10.2-2.2-15.4-2.3c-5.8,0-11.6,0.7-18,1.2c-0.5-7.3-0.3-18.2,3.9-30.3C129.3,378,137.8,366.6,139.2,367.3L139.2,367.3z
			 M444.7,309.7c-0.4-6.4-0.7-12.1-1-18.2c5,1.5,6.5,5.1,6.7,9.2C450.6,304.5,449.4,307.8,444.7,309.7L444.7,309.7z M158.4,429.8
			c-13.7-7.9-27.1-6.2-41.1-3C125.4,418.8,150.1,420.4,158.4,429.8z M154.4,435.8c-2.8,1.7-4.3,3.1-6.1,3.5c-0.7,0.1-1.9-2-2.9-3.1
			c1.4-1.2,2.6-2.8,4.3-3.4C150.5,432.6,152,434.2,154.4,435.8L154.4,435.8z M129.5,425.9c0-0.2,0-0.5,0-0.8
			c6.9,0.5,13.7,1,20.6,1.4c0,0.4-0.1,0.9-0.1,1.3C143.2,427.2,136.3,426.6,129.5,425.9L129.5,425.9z M126.6,441.5
			c-1.2-1.4-2.1-2.4-3.9-4.5c4-0.9,7.3-1.8,10.7-2.3c0.6-0.1,2.1,2.1,1.9,2.9c-0.5,1.7-1.8,3.1-2.6,4.3c2.7-0.1,7.3-4.8,6.6-8
			c-1.3-6-1-6.4,5-5.2c0.9,0.2,1.8,0.7,3.4,1.3c-1.9,1.7-3.6,2.9-4.9,4.4c-1.1,1.4-1.8,3.1-3,5.3c2.8,2.1,6.1,4.6,9.5,7.1h-35.9
			C115.4,442,120.5,440,126.6,441.5L126.6,441.5z M150.4,453c-14-2.7-27.9-6.6-42.2,1.8C116,445,139,446.1,150.4,453z M100.3,517.5
			c-3.2,1.5-6.5,3-9.7,4.5l-0.7-1.6l9.9-4.7C99.9,516.2,100.1,516.9,100.3,517.5L100.3,517.5z M88.4,492.2l1.2,1.5
			c-3.6,3.3-7.3,6.6-10.9,9.9c-0.4-0.5-0.9-1-1.3-1.5L88.4,492.2L88.4,492.2z M90.2,509.1c-8.9,8.7-17.8,17.4-26.8,26
			c-0.4-0.5-0.9-1-1.3-1.5C68.7,522.4,76.8,512.9,90.2,509.1L90.2,509.1z M54.3,562.8c4.6-16,18.4-27.5,35.1-28.9
			c6.8-0.5,13.6-0.1,20.4-0.1l0.4,1.8c-3.7,0.8-7.4,2.6-11,2.4c-21.2-1.3-29.9,4.4-41,24.9c-0.9,1.7-1.7,3.8-1.5,5.7
			c0.2,2.1,1,5,2.5,5.8c1.5,0.8,4.6,0.1,6.2-1c2.5-1.8,4.7-4.4,6.2-7.1c7.6-13.7,19.4-17.8,36-14.9c-2.7,1.4-4.2,2.6-5.8,3
			c-3.1,0.7-6.3,0.8-9.4,1.3c-5.8,0.9-10.4,3.5-13.9,8.6c-2.9,4.2-6.9,7.6-10.9,10.9c-6.1,4.9-13.1,1.8-14-6
			C53.3,567.2,53.7,564.9,54.3,562.8L54.3,562.8z M102,569.5c-3,12.3-15.4,11.5-25,16.9c0.6-4.9,0.9-7.6,6.2-8.5
			c5.3-0.9,10.2-4.2,11.8-10.3c0.9-3.7,3.1-4.5,6.7-4c3.2,0.4,6.7,0.4,9.8-0.5c3.8-1.2,4.8,0.7,5.6,3.5c1.9,6.7-2.7,16.6-10.6,21.2
			c2.3-3.5,4.4-6.1,5.7-9.1c1.2-2.8,1.5-6,2.2-9.2L102,569.5L102,569.5z M58.2,584.2c-5.7,0.7-11.5,1.5-16.8,2.1
			C44.6,582.1,52.5,580.9,58.2,584.2z M7.8,523.4c7.3,1.3,17.2,11,19.2,19.7C20.5,536.5,13.6,529.4,7.8,523.4z M27,564.7
			c-1.5-6.1,4.4-17,11.1-21.1c13.6,5.8,13.8,16.2,10,26.3c0-2.8-0.1-7.2,0-11.5c0.2-5-3-7.4-6.8-9.4c-3.7-2-6,0.1-8.3,2.4
			c-6.2,6.5-5.7,14.4,1.5,20.4c2.6,2.2,5.6,3.9,9,6.2C36.5,577.5,28.6,570.8,27,564.7L27,564.7z M23.1,614.4c-2.3,0.3-4.6,1.3-6.8,2
			c1,2.8,2.1,5.5,3.2,8.4c-1.1-0.8-4.1-1.7-4.4-3.1c-0.5-2.8-0.3-6.5,1.2-8.7c1.5-2.1,4.9-3.5,7.7-4c5.2-0.9,10.6-1.2,15.9-1.3
			c1.6,0,3.2,1.2,4.8,1.8l-0.2,2.1C37.3,612.5,30.2,613.3,23.1,614.4L23.1,614.4z M53.7,636.7c-2.6-0.2-5.3-0.7-7.9-1
			c-2.4-0.2-4.9-0.4-7.3-0.6c0-0.5,0.1-1,0.1-1.5c5.3,0.4,10.8,1.6,15.9,0.9c5-0.7,9.7-3.5,13.5-5C65.4,634.6,60.7,637.3,53.7,636.7
			L53.7,636.7z M53.6,610.9c-1.6,5.2-4.8,9-10.5,10.6c1.4-1.4,3.1-2.5,4.1-4.2c1.6-2.5,4.5-6.5,3.7-7.7c-1.7-2.5-5.4-4.7-8.5-5
			c-6.7-0.7-13.6-0.2-19.9-0.2c7.3-5.8,18.1,0.2,26.2-4.9c0-0.5-0.1-1-0.2-1.5H37.7c0-0.4-0.1-0.8-0.2-1.2l19.5-4.4
			c-0.2-0.6-0.3-1.2-0.5-1.7c-9.1,1.2-18.9-0.1-25.5,9.2c1.9-5.3,4.2-9.8,10.5-10.4c5.8-0.6,11.5-1.4,17.3-1.9
			c1.5-0.1,3.2,0.6,5.4,1.1c-6.4,4.8-12,9-18.5,13.8c2.8,1.6,4.1,2.3,6.1,3.5c3.5-8.6,8.7-14.7,18.6-15.3c9-0.5,15.8,4.1,22.6,9.1
			c-3.8-1.3-7.6-2.5-11.4-3.8C67.2,590.9,56.9,600.2,53.6,610.9L53.6,610.9z M82.3,679.5c1.5-0.3,3-0.7,4.5-1.1l2.4-3.7
			c1,2.5,1.9,5,2.9,7.5c1-2.7,2-5.6,2.9-8.8c1.4-5.1,2.2-9.9,2.6-14c1.3,2.5,2.6,5.6,3.7,9.1c1.7,5.8,2.2,11,2.2,14.9
			c-0.7,0.6-2.8,2.2-5.9,2.3c-3.1,0.2-5.3-1.1-6.1-1.5c-1.1,0.6-2.2,1.2-3.3,1.8c-1.3,0.5-2.6,1-3.8,1.4c-2-3-3.9-6.1-5.9-9.2
			C79.8,678.7,81.1,679.1,82.3,679.5L82.3,679.5z M62.4,671.8c0-0.1,0-0.2,0.1-0.2c1.5,2.1,3,3.8,4.2,4.9c2.3,2.3,4.7,3.9,9.2,7.2
			c2.2,1.6,4.5,3.1,6.8,4.6c-0.2,0.6-0.5,1.2-0.7,1.8c-2.8,0-5.5,0.2-8.3,0C63.8,689.2,58.8,681,62.4,671.8L62.4,671.8z M74.5,698.2
			c-0.2-0.7-0.4-1.4-0.6-2.2c10.9-2.5,21.8-4.9,32.7-7.4l0.3,1.2C106.9,689.9,74.5,698.2,74.5,698.2z M110.2,662.6
			c-1.2,7.4-1.2,10-2.5,10.3c-0.7,0.2-2.2-0.3-5.2-5.4c1.8-6.7,3.5-13.4,5.2-20.1c0.9-2.4,1.8-4.8,2.7-7.3c0.6,1.8,1.3,4.5,1.6,7.8
			C112.4,652.2,111.6,653.5,110.2,662.6L110.2,662.6z M114.7,671c-0.4-0.1-0.8-0.1-1.2-0.2c1.1-6.3,2.1-12.7,3.3-19
			c1.9-9.8,1.9-19.3-7.2-25.7c-9.7-6.9-20.4-9.6-32-4.2c-0.4,0.2-0.8,0.2-1.3,0c9.2-6.7,19.1-6.5,28.9-1.8
			c9.2,4.4,15.5,11.6,14.4,22.4C118.9,652,116.5,661.5,114.7,671L114.7,671z M131.5,626.4c-0.6,8.8-3.6,17.5-5.9,26.1
			c-1.9,7.2-4.6,14.2-6.9,21.3l-0.7-0.2c2.8-10.6,5.7-21.1,8.3-31.7c1.2-4.7,2.4-9.4,2.8-14.2c1.2-14.2-7.1-24.6-21.4-27.3
			c-2-0.4-3.9-0.7-6-1.1C119.9,597.4,132.7,608.5,131.5,626.4L131.5,626.4z M120.7,574c13.1-4.8,30.8,10.3,30.4,24.8
			C145.7,585.3,134.9,578.3,120.7,574z M171.8,611.7c-1.7-13.8-8-24.8-20.8-32.7C162.7,580.8,174.7,595,171.8,611.7z M127.9,559.3
			c-0.1-0.5-0.1-0.9-0.2-1.3l10.7-3c0.1-0.2,0.2-0.5,0.3-0.7c-4.9-0.7-9.7-1.4-14.4-2c11.3-6.8,43,8.4,48.1,31.6
			C160.3,570.2,148.2,557.2,127.9,559.3z M143,542.4c-5.8-0.4-11.4-2.1-17.1-3.1c0.1-0.5,0.2-1,0.3-1.4c4.5-2.5,9-5.1,14-7.9
			c-1.3,2-2.4,3.6-3.4,5.2c5.7,2.6,16.1-1.5,23.1-8.8c8.1-8.5,15.7-31.1,9.5-40.4c-2.4,2.9-4.9,5.5-6.8,8.5
			c-5.7,8.9-12.1,16.6-23,19.5c-3.2,0.9-5.9,4.2-8.5,6.7c-2.8,2.8-5.2,6-7.8,9c-0.6-0.5-1.3-0.9-1.9-1.4c2-4.4,4.1-8.8,6.3-13.7
			c-5.1,2-9.7,3.9-14.4,5.8c4.7-4.4,9.7-7.8,16.3-8.9c12.7-2,21.6-14.1,32.4-21c0.9-0.6,4.4-2.8,4.6-5.7c0.1-0.9-0.3-1.4-0.4-1.5
			c-0.8-1-2.6-0.4-5.2,0.1c-5.8,1-7.2-0.2-9.1,1.5c-1,0.9-1.5,2-1.9,3.1c-1.2,3-0.2,4.2-1,6.1c-1.2,2.9-5.4,4.9-7.7,3.8
			c-1.9-0.9-2.7-4.1-2.9-4.8c-0.4-1.9-0.2-3.4-1.1-3.9c-0.4-0.2-1-0.2-1.4,0.1c-0.9,0.7-0.1,2.6,0.1,5.6c0.1,2.5,0.3,4.5-0.8,5.7
			c-1.5,1.8-5.3,1.7-7.9,0.2c-4.8-2.8-4.8-10.5-5.5-10.4c-0.4,0.1-0.7,2.6,0,5.1c0.8,3.1,2.2,4.1,1.7,5.2c-0.6,1.3-3.4,1.9-5.6,1.1
			c-4.7-1.6-6-9.2-7.1-8.9c-0.4,0.1-0.4,1.1-0.5,1.9c-0.2,3.9,2,5.9,1.3,6.9s-3.9,0.4-5.9-1.4c-1.2-1.1-1.8-2.4-2.8-6
			c-1.4-5.2-2.1-7.8-1.9-10.1c0.2-2.2,0.7-2.3,4.4-11.2c2.3-5.5,3-5.9,3.8-9c0.8-3.2,2.4-5.8,4.4-7.7c4.8-4.6,12.3-4.5,16.4-4.3
			c13.3,0.7,22.9,9,26.5,12.6c0.3-0.9,0.8-2.3,1.2-4c0.4-1.7,0.4-2,0.6-2.1c1.5-0.9,10.4,7.4,14.7,18.7c3.7,9.8,2.4,18.8,2.2,24.7
			c-0.4,13.7-7.4,24.3-18.6,32c-3.4,2.3-7.6,3.4-12.4,5.4c16.9-0.6,30.9,3.4,38.5,19.7c3.7,7.9,5.9,15.8,3.2,24.6
			c-0.5-2.9-0.9-5.9-1.7-8.7c-0.9-3-2-6-3.4-8.8C173.1,550.5,160,543.5,143,542.4L143,542.4z M176.6,781.7c-0.5,5.6,0.6,15.9-2,32.2
			c-1.8,10.9-3.4,12.7-4.5,13.8c-4.6,4.1-12.8,4.6-15.2,1.4c-2.7-3.6,2.3-11.5,1.4-11.9c-0.6-0.2-2.5,2.4-3.8,4.8
			c-2,3.7-1.6,4.9-3.3,6.4c-1.6,1.4-3.5,1.6-5.9,1.8c-3.5,0.4-3.7-0.6-8.2-0.4c-1.5,0.1-2.5,0.2-3.9-0.2c-1.6-0.5-1.7-1.1-3.4-1.8
			c-2.2-0.9-2.9-0.2-5.3-1c-0.9-0.3-2.6-0.9-4-2.3c-0.9-1-1.9-2.8-1.7-6.5c1.6-3.9,4.6-9.2,10.1-12.8c3.3-2.1,3.8-1.3,7.1-3.2
			c5.9-3.5,6.6-7.5,15.3-19.2c4.6-6.2,6.1-7.4,7.6-8.3c3.9-2.2,8.5-2.8,13.6-1.8c3.7,0.7,5.9,2.9,6.2,6.7
			C176.7,780.4,176.6,781.4,176.6,781.7L176.6,781.7z M154.2,769.9c6.9-1.6,12.7-5.3,18.4-1.4C167.1,768.9,161.1,769.4,154.2,769.9z
			 M180.4,751c-0.2,0.8-0.5,1.5-0.3,1c-7,0.6-13.2,1.2-19.5,1.8c0.1-0.2,0-1,0.4-1.4c9.8-12.4,11.1-27.6,13.6-42.3
			c3.7-21.7,6.7-43.5,16.2-63.7c2.6-5.6,5.9-11,8.8-16.4c-11.6,11.3-16.8,26-21.5,41.5c1.4-31.2,12.7-54.7,38.6-66.3
			c9.3-4.1,16.5-10.4,22.3-18.6c0.8-1.2,1.8-2.2,3.8-3.1c-0.4,3.4-0.8,6.7-1.2,10.1l1.4,0.3c0.9-3.2,2.3-6.4,2.6-9.7
			c0.4-4.8,0.7-9.8-0.1-14.5c-2.8-16.5,0.9-31.8,7.2-46.8c9.8-23.4,24.4-43.5,43.8-59.9c11-9.3,24.5-11.5,38.5-10.8
			c5.7,0.3,8.5,4,10.5,8.6c3.3,7.8,2.5,15.7,0.5,23.5c-1.6,6.5-3.9,12.7-5.9,19.1c-5.9,18.4-12,36.7-17.7,55.1
			c-4.3,14-10.6,26.3-24.9,32.6c-0.9,0.4-1.8,0.8-2.8,1.2c-8.2,3.1-11.8,1.2-13-7.5c-1-6.9-1-13.9-1.6-22.5
			c-1.1,3.3-2.1,5.3-2.3,7.3c-0.4,6.6-1,13.3-0.5,19.9c0.8,9.5-1.9,17-10,22.4c-1.2,0.8-2.4,1.9-3.7,2.5c-5.9,2.9-10,7.2-12.5,13.4
			c-1.2,3-4.1,5.7-6.9,7.7c-7.7,5.6-13.3,12.6-17.7,21.1c-7.5,14.4-16.1,28.4-24.6,42.3C192,715.4,184.2,732.4,180.4,751L180.4,751z
			 M269.7,640.1c0.6,17.9-1.6,35.4-12.4,50.4c-3.7,5.2-9.2,9.1-13.9,13.7l-1.4-1.5c20.8-13.1,24.1-34.3,26.2-56.1
			c0.3-3.5-0.4-7,0.1-10.5c0.3-2.7,1.3-5.4,2.6-7.8c3.3-6.2,6.8-12.2,10-17.8c0.2,0.8,0.5,2.7,0.9,4.9c4.1-3.2,8-6.3,11.6-9.2
			c-6.9,8.1-13.9,16.5-21.1,24.8C270.1,633.7,269.6,636.5,269.7,640.1L269.7,640.1z M216,702.6c0.7-2.2,1-3.6,1.6-4.9
			c4.6-10.2,9.6-20.2,13.9-30.4c5.3-12.3,16.6-16.3,27.5-21.8C260.9,665.3,240.7,692.2,216,702.6L216,702.6z M196.6,742.1
			c-2.9,6.7-4.2,14.1-6.1,20.8c-3.6-8,5.6-30,17.3-39.9C204,729.5,199.5,735.5,196.6,742.1L196.6,742.1z M272.3,746
			c-9.1-1.9-16.5,0.7-22.1,7.2c-6.5,7.5-12.4,15.7-17.9,24c-4.2,6.3-3,8.1,4.3,10.5c1,0.3,1.9,1.1,3.5,2h-24.9
			c-0.2-0.4-0.4-0.8-0.6-1.2c7.2-4.1,8.9-10.4,8.3-18c-0.5-6,2.4-10.8,6.4-15.2c12.6-13.7,28.5-21.4,46.3-26
			c8.6-2.2,16.9-5.9,24.9-9.8c8.3-4,11.5-11.4,9.5-20.4c-0.9-3.9,0.1-6.8,2.6-9.5c1.7-1.8,3.3-3.8,5.2-5.4
			c11-9.2,17.9-20.9,21.8-34.5c1.5-5.4,10.2-8.4,15-5.5c4.7,2.9,9.1,6.3,13.9,8.8c4.4,2.2,9.2,4,14,5c4.8,1.1,9.9,1,14.8,1.5
			c-13.6,2.4-26.2-0.8-37.7-8.5c-2.4-1.7-5.1-3.2-7.9-4c-5.8-1.6-9.5,0.8-11.6,6.2c-2.2,5.6-4.3,11.2-7,16.5c-3.1,6-4.6,12.3-3,18.8
			c4.3,18.3-3.2,31.6-17.7,41.6c-8,5.6-16.5,10.9-25.3,15C283,747.2,277.1,747,272.3,746L272.3,746z M515,794
			c-0.2-0.2,0.8-1.4,0.8-1.4c3.5,2.8,6.8,5.5,9.7,7.8C521.3,800.8,518,797.5,515,794L515,794z M533.1,746.5
			c-3.7,3.8-7.9,7.1-12.1,10.4c-7.3,5.9-15.2,8.5-24.7,5.6c-7.4-2.3-14.1-0.5-19.8,5.1c-4.9,4.7-10.6,8.7-14.6,14
			c-4.7,6.3-10.1,6.5-17,6.5c-44.3,0.2-88.6,0.9-132.9,1.6c-2.5,0-4.9,0.5-7.8,0.8c0.5-0.8,0.5-0.9,0.6-1.1c5.2-6,10.7-9.4,19.5-6.8
			c6.3,1.8,11.4-4.5,11.3-11.2c0-2.5,1-5.6,2.5-7.6c7.5-9.8,17.9-15.6,29.1-20.3c9.5-4,19.1-7.9,27.8-13.3
			c17-10.4,31.3-32.3,23.8-60.2c-0.4-1.6-0.7-3.2-1-4.5c4.8-1.5,9.4-3,15.1-4.7c14,6.3,18.6,13.2,13.2,21.4c7,3,14.9-3.8,19-15
			c4.6-2,9.2-2.7,10.9-5.2c1.9-2.8,1.3-7.4,1.8-11.6c8.2,4.5,11.1-4.3,18.1-7.1c0.7,4.4,2.1,8.5,1.9,12.5
			c-0.3,10.7,1.1,20.9,4.8,30.9c4.4,11.9,11.7,21.6,21.6,29.4c2.1,1.7,4.2,3.3,6.4,4.8C546.2,730.8,541.2,738,533.1,746.5
			L533.1,746.5z M542.5,651.2c-1.5-11.1-0.7-22.6-0.7-33.9c0-4.8,0.7-9.6,1.1-15.6c7.3,3.5,13.8,6.6,20.3,9.8
			c-1-8.6-3.5-10.7-10.4-13.7c-6.8-2.9-13.7-6.5-18.9-11.5c-13.7-13.1-26.9-26.8-39.6-40.9c-5.2-5.7-8.5-13.1-12.7-19.7
			c-1.9-3-1.9-5.9,0.6-8.6c4.7-5,4.3-9.9,1-15.8c-6.5-11.6-12.6-23.5-18.4-35.5c-3.5-7.2-3.5-14.8-0.6-20.6c0.6,2.1,1,3.8,1.6,6
			c0.7-1.1,1.2-1.9,1.6-2.7c5-10.7,11.2-14,22.5-10c21.4,7.7,40.7,19,56.2,36c12,13,21.5,27.6,26.9,44.5c2.7,8.5,3.8,17,3.4,27
			c-3.6-2.6-6.3-4.5-9.2-6.6c2.6,5,5.4,7,12.3,10c4,1.7,7.8,3.7,11.5,5.8c4.2,2.4,5.1,6,2.7,10.2c-2,3.5-2.4,6.4-0.1,10.4
			c1.9,3.3,1.8,8,2.1,12.1c1.2,16.6,2.1,33.2,3.4,49.7c0.2,3.4,1.4,6.7,2.3,10.7c0.8-16.2,1.5-31.7,2.2-47.1l1.6-0.3
			c0.8,1.8,1.7,3.5,2.5,5.3c11.1,25.5,16,52.4,20,79.7c2.3,16.1,6.4,32,9.9,47.9c0.9,4,2.5,7.8,4,12.3c-8-3.9-13.3,0.5-19.1,5.1
			c-5.6,4.4-12.3,7.5-19.4,11.8c-1.8-17.4-6.9-32.1-12.5-46.7c-1.5-3.9-3.4-7.6-5.1-11.4c-2.9-6.3-7.5-10.7-14.1-13.4
			c-9.8-4.2-13.5-7.4-17.8-14c3.5,2.6,6.3,5,9.4,7c5.2,3.5,10.8,5.6,17.4,5.1c2.9-0.2,5.8,0.7,9.6,1.1c3.1-13.4,5.4-27.1-0.8-40.9
			c0.4,3,1,6.1,1.2,9.1c0.2,3.3,0.2,6.7,0.1,10c-0.4,7.2-2.2,9.7-9.1,10C558.1,680.1,545.4,672.3,542.5,651.2L542.5,651.2z
			 M590.2,778.6c-0.9,10.9-0.9,10.8-11.8,10.4c-8.3-0.3-16.5-0.1-24.8-0.1c-0.2-0.5-0.3-0.9-0.5-1.4c1.5-1.6,3.2-3.1,4.5-4.9
			c2.6-3.6,6-7.1,7.4-11.2c5-14.9,18-23,27.7-34.8c3.4,8.1,4.8,16,4.6,24.2c0,1.9-3,3.6-4.3,5.7c-1.2,1.9-2,4.1-2.5,6.3
			C590.1,774.6,590.3,776.7,590.2,778.6L590.2,778.6z M700.4,812.3c-1.8,2.2-4.3,2.8-9.1,4.1c-5.3,1.4-8,2.1-10.4,0.8
			c-2.3-1.2-3-3.4-4-5.4c-1.9-3.4-5.7-7.7-14.3-10.8c-1.9,0.3-2.4,0.7-2.5,1c-0.2,1.2,3.9,2.5,10.6,6.6c2.5,1.6,3.9,2.7,5.1,4.6
			c3.2,5,1,8.1-4.6,8.7c-8.2,0.9-15.5-1.5-16.2-1.8c-17.9-7.5-23.3-19.8-30.2-17.5c-3.8,1.2-2.6,5.2-8.1,7.7
			c-4.1,1.8-8,1.2-15.9-0.1c-2.3-0.4-3.9-0.8-5.3-2c-1.7-1.5-2.6-3.9-2.8-7.1c-0.2-4.2,0.3-8.7,1.5-12.8c2.4-8.4,7.1-10,14.8-5.9
			c1.9,1,3.6,2.2,5.9,3.7c0.9-2.2,1.6-4,2.3-5.7c4.9-12.3,18.2-20.6,29.7-17.5c3.9,1,7.8,3.8,10.5,6.9c4,4.6,6.9,10.1,10.5,15.2
			c3.6,5.1,8.2,8.8,14.5,10.5c7.3,1.9,6.3,3.1,11.3,5c0.5,0.2,3.1,1.2,6.2,3c1.8,1,2.2,1.5,2.5,2.1
			C703.4,807.5,701.8,810.6,700.4,812.3L700.4,812.3z M714.8,672.8c-0.8,1.2-4.9,0.3-7.5,0.4c0.7-1.7,0.9-3.8,2-5.1
			c5.8-6.9,11.8-13.6,17.8-20.4c0.5,0.2,0.9,0.5,1.3,0.8C724,656.5,719.8,664.9,714.8,672.8L714.8,672.8z M727.7,551.9
			c4.8,20.8,6.4,41.1-5.7,60.2c-0.7,1.1-1.6,2.2-2.5,3.1c-3.4,3.3-4.7,3-6.9-1.2c-1.8-3.3-3.6-6.5-5.8-10.4
			c-1.8,2.6-2.9,4.2-4.1,5.9C703.7,587.2,715.2,569.5,727.7,551.9z M712,523.2c-1.1,9.4-4.3,17.9-10.6,24.9
			c-6.1,6.8-12.2,13.6-18.6,20.2c-10,10.2-16.6,22.4-22.2,35.3c-1.1,2.6-2.1,5.2-4.3,7.5c0.7-3.1,1.1-6.2,2-9.2
			c3.5-12.5,7.5-25,15.9-35.2c3.1-3.8,6.7-7.5,10.7-10.4C696.9,547.5,707.5,537.9,712,523.2L712,523.2z M686.8,361.5
			c13.2,2.3,26.6,26.6,16.7,45.5C707,387.9,701.3,373.1,686.8,361.5z M693.5,348.4c9.4-2.2,22.6,11.2,22.5,23.1
			C710.5,361.8,704.3,353,693.5,348.4z M688.1,334.8c9.3,0.9,18,1.8,26.6,2.6C708.3,342.5,695.6,341.5,688.1,334.8z M702.6,331.5
			c10.8-5,21.9-8.7,26.8-20.2c-15.3,4.5-30.1,8.8-44.9,13c-0.3,0.1-1-0.7-1.5-1.2c16.3-10,36.5-9.7,52-20.5
			C734,318,715.1,335.8,702.6,331.5z"/>
		<path d="M376.7,327.4c-11.8,6.7-15.1,5-16.9,4.3c-3.4-1.4-5.6-4.9-6.2-4.4c-0.5,0.4,0.7,2.7,0.8,2.9c0.5,0.9,1.4,0.9,3.5,4
			c1.9,2.8,3.4,2.3,6.1,1.5c7.4-2.4,14.9-4.5,22.6-5.9c4.9-0.9,8.5,2.1,9.6,6.7c1.7,6.8-4.2,15.7-11.4,19.9
			c-6.7,3.9-14.7,4-20.7,1.9c-5.8-2.1-9.2-6.2-9.9-5.5c-0.6,0.6,1.7,4.7,5.5,7.2c1.4,0.9,3.4,2.6,9,2.7c7.8,0.2,15.6-1,23.4-0.9
			c4.7,0,6.7-1.8,7-6.2c0.2-4.3,0.6-8.6,0.6-13c0.1-7-0.1-14,0.2-20.9c0.2-3.8-0.1-7.4-1-10.9c-0.9-3.5-2.4-4.3-3-8
			c-0.5-3.6,0.3-5.6-0.9-6.4c-1.3-0.8-4.1,0.4-4.7,2.2c-0.7,2.3,2.9,3.7,4.2,7.6c1.7,5.3-2.2,10.8-2.9,12.1
			C388.3,324.5,381.8,324.6,376.7,327.4L376.7,327.4z"/>
		<path d="M346.4,347.2c-1.6,2.3-2.5,3.2-3.8,3.6c-1,0.3-2.1,0.3-3.4-0.2c-5.2-1.7-10.5-3.2-15.3-5.7c-1-0.5-2.5-1.3-4.5-1
			c-1.2,0.2-3,0.9-3.5,2.1c-0.8,1.8,1,5,4.9,6.9c10.3-3.2,19.8-1.5,27.9,6.4c0-4.5,1-7.8,2-10c1.8-3.8,4.4-6.5,3.4-8.4
			c-0.4-0.6-1.2-1.1-2-1.1C350.5,340,349.8,342.3,346.4,347.2L346.4,347.2z"/>
		<path d="M336.3,333.2c4.6-1.1,7.4-4.5,8-5.2c2.2-2.9,3.3-6.4,2.7-6.8c-0.5-0.3-2,2.1-5.7,4.7c-2,1.5-4.3,2.7-5.9,3.2
			c-7.4,2.7-15-2.8-15.3-2.2C319.7,327.6,327.7,335.2,336.3,333.2L336.3,333.2z"/>
		<path d="M354.8,369.5c2.2,8.7,2.2,17.8,11.6,22.2C361.1,385.2,364.6,374.2,354.8,369.5z"/>
		<path d="M573.7,255.3c8.7-8,17.2-15.8,25.2-23.1C589.6,235.8,576.9,247.1,573.7,255.3z"/>
		<path d="M406.9,367.9c-0.2-0.6-1.5-0.4-6.3-0.6c-7.6-0.3-9.5-1-9.9-0.2c-0.5,1.3,3.6,5.6,8.3,5.6
			C403.4,372.6,407.3,369.1,406.9,367.9L406.9,367.9z"/>
		<path d="M327,196.6c-1.1-0.6-4.7,9-15.4,14.9c-7,3.9-12.7,3.7-12.6,4.4c0.1,0.9,11.7,3.1,20.1-3.4
			C326.4,206.8,328.1,197.2,327,196.6L327,196.6z"/>
		<path d="M290.6,239.2c0.8,0.5,10.2-6.8,8.8-15.2c-1.8-10.3-18.1-12.5-18.5-11.7c-0.4,0.7,11.6,4.2,13.5,13.1
			C295.9,232.5,289.9,238.8,290.6,239.2L290.6,239.2z"/>
		<path d="M330,296.9c1.6-0.1,3.5-1.2,3.9-3c0.2-0.9,0-2.1-0.8-2.9c-2.4-2.2-9.6,1.5-9.4,3.2c0.1,0.5,1,0.9,2.9,1.7
			C328.2,296.6,329.1,297,330,296.9L330,296.9z"/>
		<path d="M526.2,555.3c7.8,15.9,21.5,23.2,38.3,25.7c1.2,0.2,4-2.2,4-3.4c0-5-0.8-9.9-1.4-15.3
			C557.3,573.1,542.4,570.3,526.2,555.3L526.2,555.3z"/>
		<path d="M239.8,617.6c2.8-5.8,0.7-10.8-0.9-16.1l-6,33.2c0.3,0,0.6,0.1,0.9,0.2C235.8,629.1,237.2,623,239.8,617.6L239.8,617.6z"
			/>
		<path d="M254.7,575.8c2.9,0.3,6.2-2.5,9.3-4c-0.1-0.5-0.3-1-0.4-1.5c-2.2,0-4.5,0.3-6.7-0.1c-2.2-0.4-4.3-1.5-6.4-2.4
			c-0.4,0.2-0.7,0.3-1.1,0.5C251.2,571.1,252.8,575.6,254.7,575.8L254.7,575.8z"/>
		<path d="M408,542.5c3.8-5.6,7-11.6,10.5-17.4c-0.3-0.3-0.7-0.5-1-0.8c-1.6,1.9-3,4-4.9,5.6c-6.6,5.7-14.3,8.2-19.5-2.3
			c-3.6-7.3-6.6-14.9-9.7-22.4c-2-4.8-3.5-9.8-5.3-14.6c-0.4,0.1-0.8,0.3-1.1,0.4c3.8,15.6,6.7,31.4,14.5,45.8
			c1.3,2.4,3.2,4.7,5.2,6.7C402,548.5,404,548.4,408,542.5L408,542.5z"/>
	</g>
</g>
</svg>
