<?xml version="1.0" encoding="utf-8"?>
<!-- Generator: Adobe Illustrator 28.3.0, SVG Export Plug-In . SVG Version: 6.00 Build 0)  -->
<svg version="1.1" id="Layer_1" xmlns="http://www.w3.org/2000/svg" xmlns:xlink="http://www.w3.org/1999/xlink" x="0px" y="0px"
	 viewBox="0 0 698.4 897.2" style="enable-background:new 0 0 698.4 897.2;" xml:space="preserve">
<style type="text/css">
	.st0{fill:#FFFFFF;}
</style>
<g>
	<path class="st0" d="M678.1,379.1L678.1,379.1c-13.1-38-34.8-69.9-69.5-91.2c-21.6-13.3-43.9-18.7-66.3-16
		c-0.6-0.6-1.5-1.4-2.6-2.6c-2.3-2.4-2.7-3.1-4.5-4.8c-1.9-1.8-3.2-2.4-5.2-4.6c-4.5-4.9-7.4-10.9-9.2-17.6
		c-3-11.1-9.5-20.2-18-27.7c-4.8-4.2-7.2-9.1-8.2-15.3c-2.8-16.8-10.9-30.6-24.2-41.3c-11.4-9.2-24.5-11.2-38.7-10
		c-2.7,0.2-6.1,0.5-8.1-0.8c-11.9-8-24.7-12.9-39.8-13.3c5.2-10.4,1-18.8-3.8-27.1c-0.4-0.7-0.8-1.9-0.5-2.3
		c2.9-4.1-0.6-6.3-2.3-9.2c-1.3-2.1-2.6-4.3-3-6.6c-0.6-3.2-0.3-6.6-0.6-9.9c-0.4-3.7,0.4-6.6,3.2-9.4c1.9-1.9,3.9-5.4,3.4-7.6
		c-1-4.4,0.5-6.9,3.3-9.7c2.2-2.2,4.1-4.5,2.1-7.6c-1.6-0.3-3-0.6-4.4-0.8c0.3-0.7,0.6-1.9,1-2c4.1-0.4,2.3-3.1,2.2-5.2
		c-0.1-1.4,0.1-2.8,0.2-4.2c0.1-2.7,1.2-5.9,0.1-8c-2.5-4.9-5.8-9.4-5.1-15.4c0.1-1.2-1.3-2.6-2.3-3.7C371.7-1.4,364-2.2,353,1.5
		c-11.2,3.8-22.5,7.5-34,10.2c-12.7,2.9-22.7,9-29.8,20c-0.9,1.3-2.1,2.7-3.4,3.4c-13.8,6.9-22.5,27.2-17.6,41.9
		c1.2,3.6,0.6,5.3-2.9,7c-4.2,2-4.7,5.1-2.3,9c0.8,1.2,1.7,2.4,2.8,3.8c-6.4,6-5.6,13.4-4,20.9c-10.3,1.4-12,17.6-3.4,33.2
		c-4.6,2-7.7,7.2-14.2,5.3c-11.4-3.4-22.4-1.4-33,3.7c-22.3,10.9-34.9,29.2-40.4,52.9c-0.7,2.8-0.9,5.2-5,5.4
		c-14.5,0.7-25.1,8.5-32.5,20.4c-2.9,4.7-5.7,5.5-10.5,4.1c-4.5-1.3-8.9-1.7-13.1-1.2c-5.6,0.6-9.6,2.4-18,7.6
		c-4.7,2.9-11.3,6.9-19.7,11.7c0.6-6.5,0.9-13,1.3-19.5c0.1-1.3-0.4-2.6-0.8-3.9c-3.4-9-9.2-12.6-19.8-12.1c0-6-0.2-12,0.1-17.9
		c0.1-2.1,1-4.5,2.3-6c3.1-3.5,4-6.8,2.4-11.4c-1.4-4.1-2.6-8.8-2-13c0.7-4.7,3.5-9-0.5-13.3c12.1-8,13.3-11,10.6-25.2
		c-0.3-1.6-0.6-3.3-1-4.9c-7-26.7-18.9-51.2-34-74.2c-1.5-2.2-4.5-3.3-6.9-5c-1.5,2.4-3.8,4.7-4.2,7.3c-2.9,18.6-5.7,37.2-7.8,55.9
		c-1.1,10.2-0.9,20.6-0.7,31c0.1,7.3,2.8,13.6,9.7,17.5c1.4,0.8,2.5,2.6,3.3,4.1c2.3,4.6,4.3,9.4,6.8,13.9c1.3,2.4,1.7,4.1-0.4,6.6
		c-3.5,4-2.8,9.3,1.7,12.1c3.4,2.2,4.4,5,4.7,8.6c0.2,2.5,0.5,5,1,7.4c0.8,3.4-0.1,5.2-3.5,6.8c-6.1,3-12,6.5-17.6,10.3
		c-1.8,1.3-3.9,4.9-3.3,6.5c2.7,7.2-1.7,14,0.4,21.7c2.4,9,3.9,18.1,7.9,26.8c5.8,12.4,15.9,16.5,28.8,17.4c0.5,5.7,1,11.7,1.7,17.6
		c10,98.9,16,157.2,18.8,185c0,0,23,228.1,43,363.8c0.9,5.8,3,19,10.6,21.5c3.6,1.1,7.9-0.2,10.6-2.7c5.8-5.5,3.5-16.4,3-19.2
		c-3.2-17.3-29.1-213.6-64.8-486c-4-21.8-6.3-44.8-6.5-68.7c0-1.4,0-2.8,0-4.2c19.2,11.3,39.4,15.3,61.2,10.9
		c5,25.9,17.7,46,40.4,60.4c1.4-3.9,2.5-6.7,3.6-9.7c8.9,9,11.5,20.8,6.9,31.4c-3,6.7-6.6,13.2-2.8,20.9
		c4.6,9.1,11.4,15.7,21.1,18.6c4.6,1.4,9.4,2,14.2,2.4c6.9,0.6,7.6,0.9,5.7,7.8c-3,10.6-6.4,21-9.8,31.5c-1.7,5.2-3.7,10.3-5.6,15.5
		c-1.7,4.7-0.9,8.9,2.5,12.5c3.7,3.8,4,7.8,2.2,12.8c-3.2,9.3-1.9,12.4,6.9,16.8c3.2,1.6,4.1,3.7,4.1,7c0,26,7,49.7,24.6,69.5
		c3.5,3.9,4.8,8.4,4.7,13.8c-0.1,5.4,0,11.2,1.5,16.3c3.2,10.7,3.1,21.4,1.2,32.2c-5,27.3-1.1,53.1,10.4,78.4c5.8,12.9,10,27,12,41
		c1.4,9.8-1.8,20.3-3.4,30.4c-0.3,1.8-2.8,3.7-4.6,4.9c-14.1,8.5-28.2,17-42.5,25.2c-2,1.2-8.2,5.1-13.1,3.5c-0.6-0.2-1.6-0.6-3.4-1
		c-1.5-0.6-4-1.3-6.9-0.8c-6.8,1.1-12.3,8.1-11.7,13.3c0.9,7,12.4,10.1,16.4,11.2c16.5,4.5,23.5-2.9,57.2-7.2
		c13.5-1.7,20.2-2.8,26.1-1.9c7.5,1.2,15.3,1.3,22.9,0.9c10.5-0.6,15.1-7,13.4-17.4c-0.5-2.9-1.4-5.8-2.5-8.6
		c-2.3-6.1-3.1-12.1-1.6-18.6c0.6-2.5,0.1-5.7-0.8-8.2c-10-26.4-9.2-51.8,6-76.2c7.1-11.4,11.8-23.6,11.4-37.2
		c-0.1-5.6-0.9-11.2-1.5-16.9c4.7,1.6,9.1,3.9,13.7,4.4c3.9,0.4,7.4-0.2,9.7,4.1c0.6,1.1,3.9,0.8,5.9,1c1.6,0.2,3.9-0.5,4.7,0.3
		c6.5,6.8,14.1,13.1,18.7,21.2c5.4,9.6,8.8,20.5,11.6,31.2c1.9,7.4,1.9,15.4,1.7,23.2c-0.2,9.5-1.4,19-2.1,28.5
		c-0.1,0.8-0.1,1.8,0.3,2.5c3.1,7,1.2,14,0.6,21.1c-0.7,7.7-3.2,14.5-8.3,20.5c-2.2,2.6-4.3,5.6-5.5,8.8
		c-3.4,8.6,2.5,17.4,11.6,16.8c6.1-0.4,11.9-0.3,18,0.4c8.1,0.9,16.6-0.7,24.7-2.5c13-2.9,17-12.1,10.4-23.7
		c-7.3-12.8-9-26.7-9.1-41c0-1.6,0.5-3.3,1.3-4.7c4.4-7.4,4.1-14.6-0.9-21.5c-5-7-6.2-14.6-4.6-22.8c2.6-13.2,5.2-26.5,7.9-39.7
		c0.3-1.7,1.2-3.3,1.4-4c4.7,1.8,8.8,4,13.2,4.9c7,1.5,14,0.1,20.4-3c3-1.5,5.8-1.5,8.3,0.9c3.8,3.8,3.2,10.8-1,14.4
		c-4,3.4-4,5.2,0.6,7.8c9.2,5.3,18.7,5,28.5,2c2.5-0.8,5.3-0.5,8-0.7c-0.9,2.5-1.4,5.2-2.7,7.5c-4.8,8.9-2.5,17.3,6.5,22
		c8.3,4.3,17.1,4.5,25.6,1c10.4-4.3,12.2-13.6,4.6-22.1c-2.7-3-3.6-6-3.2-10c2.8-24.9-6.2-45-25.5-60.6c-6.5-5.2-13-10.4-19.2-16
		c-3.6-3.2-6.4-7.3-9.6-10.9c0.3-0.3,0.7-0.7,1-1c0.6,0.4,1.3,0.7,1.9,1.2c8.3,6.6,16.3,13.7,25,19.8c16.1,11.5,28.9,25.1,33.3,45.1
		c0.2,0.8,0.7,1.4,1.5,2.8c2.3-1.8,4.6-3.1,6.3-5c16.9-18.5,16.9-43.5-4-58.8c-6.6-4.8-14.5-8.3-22.3-10.9
		c-17.2-5.8-31.5-15.1-41.2-30.6c-2.3-3.6-3.9-7.6-5.9-11.4c0.4-0.2,0.8-0.4,1.2-0.6c0.9,1.4,1.8,2.7,2.6,4.1
		c21,33.5,53.1,40.7,87.3,30.3c12.8-3.9,16.9-12.4,14.8-25.6c-0.6-3.8-1.5-7.5-2.7-11.1c-0.6-1.8-2.4-3.3-3.3-4.6
		c-2.5,4.2-3.7,8.7-6.6,10.4c-4,2.3-9.4,3.7-14.1,3.4c-17.1-1.2-36.3-20.9-37.9-38.2c0-0.3,0.2-0.6,0.5-1.2c1.4,0.5,2.7,0.9,4.1,1.4
		c28.6,9.5,57,9.9,84.8-2.7c29.1-13.2,46.8-36.6,56.5-66.5C696.3,467.3,693.2,422.9,678.1,379.1z"/>
	<g>
		<polygon points="375.8,115.9 375.9,115.9 375.9,115.9 		"/>
		<path d="M678.1,379c-13.1-37.9-34.8-69.9-69.5-91.2c-21.6-13.3-43.9-18.7-66.3-16c-0.6-0.6-1.5-1.4-2.6-2.6
			c-2.3-2.4-2.7-3.1-4.5-4.8c-1.9-1.8-3.2-2.4-5.2-4.6c-4.5-4.9-7.4-10.9-9.2-17.6c-3-11.1-9.5-20.2-18-27.7
			c-4.8-4.2-7.1-9.1-8.2-15.3c-2.8-16.8-10.9-30.6-24.2-41.3c-11.4-9.1-24.5-11.2-38.7-10c-2.7,0.2-6.1,0.6-8.1-0.8
			c-11.9-8-24.7-12.9-39.8-13.3c5.2-10.4,1-18.8-3.8-27.1c-0.4-0.7-0.8-1.9-0.5-2.3c2.9-4.1-0.6-6.3-2.3-9.2c-1.3-2.1-2.6-4.3-3-6.6
			c-0.6-3.2-0.3-6.6-0.6-9.9c-0.4-3.7,0.4-6.6,3.2-9.4c1.9-1.9,3.9-5.4,3.4-7.6c-1-4.4,0.5-7,3.3-9.7c2.2-2.2,4.1-4.5,2.1-7.6
			c-1.6-0.3-3-0.6-4.4-0.8c0.3-0.7,0.6-1.9,1-2c4.1-0.4,2.3-3.1,2.2-5.2c-0.1-1.4,0.1-2.8,0.2-4.2c0.1-2.7,1.2-5.9,0.1-8
			c-2.5-4.9-5.8-9.4-5.1-15.4c0.1-1.1-1.4-2.6-2.3-3.7C371.7-1.4,364-2.2,353,1.5c-11.2,3.8-22.5,7.5-34,10.2
			c-12.7,2.9-22.7,9-29.8,20c-0.9,1.3-2.1,2.7-3.4,3.4c-13.8,6.9-22.5,27.2-17.6,41.9c1.2,3.6,0.6,5.3-2.9,6.9
			c-4.2,2-4.7,5.1-2.3,9.1c0.8,1.2,1.7,2.4,2.8,3.8c-6.4,6-5.6,13.4-4,20.9c-10.3,1.4-12,17.6-3.4,33.2c-4.6,2-7.7,7.2-14.2,5.3
			c-11.4-3.4-22.4-1.4-33,3.7c-22.3,10.9-34.9,29.2-40.4,52.9c-0.7,2.8-0.9,5.2-5,5.4c-14.5,0.7-25.1,8.5-32.5,20.4
			c-2.9,4.7-5.7,5.5-10.5,4.1c-4.5-1.3-8.9-1.7-13.1-1.2c-5.6,0.6-9.6,2.4-18,7.6c-4.7,2.9-11.3,6.9-19.7,11.7
			c0.6-6.5,0.9-13,1.3-19.5c0.1-1.3-0.4-2.6-0.8-3.9c-3.4-9-9.2-12.6-19.8-12.1c0-6-0.2-12,0.1-17.9c0.1-2.1,1-4.5,2.3-6
			c3.1-3.5,4-6.8,2.3-11.4c-1.4-4.1-2.6-8.8-2-13c0.7-4.7,3.5-9-0.5-13.3c12.1-8,13.3-11,10.6-25.2c-0.3-1.6-0.6-3.3-1-4.9
			c-7-26.7-18.9-51.2-34-74.2c-1.5-2.2-4.5-3.3-6.9-5c-1.5,2.4-3.8,4.7-4.2,7.3c-2.9,18.6-5.7,37.2-7.8,55.9
			c-1.1,10.2-0.9,20.6-0.7,31c0.1,7.4,2.8,13.6,9.7,17.5c1.4,0.8,2.5,2.6,3.3,4.1c2.4,4.6,4.4,9.4,6.8,13.9c1.3,2.4,1.7,4.1-0.4,6.6
			c-3.5,4.1-2.8,9.3,1.7,12.1c3.4,2.2,4.4,5,4.7,8.6c0.2,2.5,0.5,5,1,7.4c0.8,3.4-0.1,5.2-3.5,6.8c-6.1,2.9-12,6.5-17.6,10.3
			c-1.8,1.3-3.9,4.9-3.3,6.5c2.7,7.2-1.7,14,0.4,21.7c2.4,9,3.9,18.1,7.9,26.8c5.8,12.4,15.9,16.5,28.8,17.4
			c0.5,5.7,1,11.7,1.7,17.6c10,98.9,16,157.2,18.8,185c0,0,23,228.1,43,363.8c0.9,5.8,2.9,19,10.6,21.5c3.6,1.1,7.9-0.2,10.6-2.7
			c5.8-5.5,3.5-16.4,3-19.2c-3.2-17.3-29.1-213.6-64.8-486c-4-21.8-6.3-44.8-6.5-68.7c0-1.4,0-2.8,0-4.2
			c19.2,11.3,39.3,15.3,61.2,10.9c5,25.9,17.7,46,40.4,60.4c1.4-3.9,2.5-6.7,3.6-9.7c8.9,9,11.5,20.8,6.9,31.4
			c-3,6.7-6.6,13.2-2.8,20.9c4.6,9.1,11.4,15.7,21.1,18.6c4.6,1.4,9.4,2,14.2,2.4c6.9,0.6,7.6,0.9,5.7,7.8c-3,10.6-6.4,21-9.8,31.5
			c-1.7,5.2-3.7,10.3-5.6,15.5c-1.7,4.7-0.9,8.9,2.5,12.5c3.6,3.8,4,7.8,2.2,12.8c-3.2,9.3-1.9,12.4,6.9,16.8c3.2,1.6,4.1,3.7,4.1,7
			c0,26,7,49.7,24.6,69.5c3.5,3.9,4.8,8.4,4.7,13.8c-0.1,5.4,0,11.2,1.5,16.3c3.2,10.7,3.1,21.4,1.2,32.2
			c-5,27.3-1.1,53.1,10.4,78.4c5.8,12.9,10,27,12,41c1.4,9.8-1.8,20.3-3.4,30.4c-0.3,1.8-2.8,3.7-4.6,4.9
			c-14.1,8.5-28.2,17-42.5,25.2c-2,1.2-8.2,5.1-13.1,3.5c-0.6-0.2-1.6-0.6-3.4-1c-1.5-0.6-4-1.3-6.9-0.8
			c-6.8,1.1-12.3,8.1-11.7,13.3c0.9,7,12.4,10.1,16.4,11.2c16.5,4.5,23.5-2.9,57.2-7.2c13.5-1.7,20.2-2.8,26.1-1.9
			c7.5,1.2,15.3,1.3,22.9,0.9c10.5-0.6,15.1-7,13.4-17.4c-0.5-2.9-1.4-5.8-2.5-8.6c-2.3-6.1-3.1-12.1-1.6-18.6
			c0.6-2.5,0.1-5.7-0.9-8.2c-10-26.4-9.2-51.8,6-76.2c7.1-11.4,11.8-23.6,11.4-37.2c-0.1-5.6-0.9-11.2-1.5-16.9
			c4.7,1.6,9.1,3.9,13.7,4.4c3.9,0.4,7.4-0.2,9.7,4.1c0.6,1.1,3.9,0.8,5.9,1c1.6,0.2,3.9-0.5,4.7,0.3c6.5,6.8,14.1,13.1,18.6,21.2
			c5.4,9.6,8.8,20.5,11.6,31.2c1.9,7.4,1.9,15.4,1.7,23.2c-0.2,9.5-1.4,19-2.1,28.5c-0.1,0.8-0.1,1.8,0.3,2.5c3.1,7,1.2,14,0.6,21.1
			c-0.7,7.7-3.2,14.5-8.3,20.5c-2.2,2.6-4.3,5.6-5.5,8.8c-3.4,8.6,2.5,17.4,11.6,16.8c6.1-0.4,11.9-0.3,18,0.4
			c8.1,0.9,16.6-0.7,24.7-2.5c13-2.9,17-12.1,10.4-23.7c-7.3-12.8-9-26.7-9.1-41c0-1.6,0.5-3.3,1.3-4.7c4.4-7.4,4.1-14.6-0.9-21.5
			c-5-7-6.2-14.6-4.6-22.8c2.6-13.2,5.2-26.5,7.9-39.7c0.3-1.7,1.1-3.3,1.4-4c4.7,1.8,8.8,4,13.2,4.9c7,1.5,14,0.1,20.4-3
			c3-1.5,5.9-1.5,8.3,0.9c3.8,3.8,3.2,10.8-1,14.4c-4,3.4-4,5.2,0.6,7.8c9.2,5.3,18.7,5,28.5,2c2.5-0.8,5.4-0.5,8-0.7
			c-0.9,2.5-1.4,5.2-2.7,7.5c-4.8,8.9-2.5,17.3,6.4,22c8.3,4.3,17.1,4.5,25.6,1c10.4-4.3,12.2-13.6,4.6-22.1c-2.7-3-3.6-6-3.2-10
			c2.8-24.9-6.2-45-25.5-60.6c-6.5-5.2-13-10.4-19.2-16c-3.6-3.2-6.4-7.3-9.6-10.9c0.3-0.3,0.7-0.7,1-1c0.6,0.4,1.3,0.7,1.9,1.2
			c8.3,6.6,16.4,13.7,25,19.8c16.1,11.5,28.9,25.1,33.3,45.1c0.2,0.8,0.7,1.4,1.5,2.8c2.3-1.8,4.6-3.1,6.3-5
			c16.9-18.5,16.9-43.5-4-58.8c-6.6-4.8-14.5-8.3-22.3-10.9c-17.2-5.8-31.5-15.1-41.2-30.6c-2.3-3.6-3.9-7.6-5.9-11.4
			c0.4-0.2,0.8-0.4,1.2-0.6c0.9,1.4,1.8,2.7,2.6,4.1c21,33.5,53.1,40.7,87.3,30.3c12.8-3.9,16.9-12.4,14.8-25.6
			c-0.6-3.8-1.5-7.5-2.7-11.1c-0.6-1.8-2.4-3.3-3.3-4.6c-2.5,4.2-3.7,8.7-6.6,10.4c-4,2.3-9.4,3.7-14.1,3.4
			c-17.1-1.2-36.3-20.9-37.9-38.2c0-0.3,0.2-0.6,0.5-1.2c1.4,0.5,2.7,0.9,4.1,1.4c28.6,9.5,57,9.9,84.8-2.7
			c29.1-13.2,46.8-36.6,56.5-66.5C696.3,467.3,693.2,422.9,678.1,379L678.1,379z M379.2,115.5c-0.4,0.7-1.9,0.6-3.4,0.3
			c1.4,3.8,3,7.6,4.2,11.5c0.3,1-0.8,2.9-1.8,3.4c-0.7,0.4-2.6-0.6-3.4-1.5c-2.5-2.6-4.6-5.4-7-8.2c1.1,3.9,3.4,7.7,2.7,10.8
			c-0.7,3.4-4.2,6.2-6.6,9.4c-3.9-3-3.3-5-1.8-8c1.1-2.1,0.2-5.3,0.2-8c-0.7-0.1-1.4-0.2-2-0.3c-0.3,1.5-0.4,3.1-0.9,4.5
			c-0.9,2.5-1.6,5.2-3.1,7.2c-0.6,0.7-3.7,0.3-5-0.7c-0.9-0.6-1.2-3.4-0.5-4.5c1-1.6,3-2.4,4.7-3.6c-0.3-1.9-0.6-3.8-0.9-6
			c-3.5,3.7-6.8,7-9.9,10.6c-0.8,0.9-0.9,2.4-1.2,3.6c-0.3,1.3-0.5,2.7-0.8,4.1c-1.5-0.5-3.3-0.6-4.3-1.6c-0.7-0.8-1-3.3-0.4-3.9
			c1.3-1.2,1.7-2.2,1.7-3.1c-0.1-1.2-1-1.9-2.9-3.7c-2.9-2.7-4.3-4.1-4.5-5.4c-0.5-2.9,2.8-4.9,1.7-7.2c-0.2-0.3-0.4-0.8-0.9-1
			c-1.6-0.4-3.5,3.9-8.5,8.4c-0.8,0.7-1.4,1.2-2.4,1.5c-2.5,0.7-5.8-0.3-6.5-2.2c-0.6-1.7,1.3-2.5,1.6-5.7c0.4-3.2-1-6.3-2.2-6.4
			c-1-0.1-1.5,2.1-3,2c-0.4,0-1-0.2-1.2-0.7c-0.5-1.2,2.6-2.7,2.2-4c-0.3-1.2-2.9-0.8-3.4-2.1c-0.6-1.5,2.7-3.2,2.2-5
			c-0.4-1.6-3.2-1.2-4.2-3.1c-0.7-1.4-0.5-2.8,1.4-6c1.8-3,2.4-6.7-0.4-9.2c-1.2-1.1-1.7-2-1.7-2.9c-0.1-1.9,1.6-3.5,1.9-3.8
			c0.5-0.4,2.1-1.8,3.2-1.3c1.4,0.7,1.8,4.2,1,6.8c-0.2,0.6-0.3,0.9-0.2,1.3c0.6,1.5,4.5,0.2,5.4,1.8c0.4,0.6,1.1,1.5-0.8,5
			c-0.4,0.7-0.6,1.8-0.3,2.4c1.4,2.8,3.4,5.5,6.9,4.1c6-2.4,7-1.2,8-2.2c1.6-1.7,1.6-4.7,0.8-5.1c-1.2-0.7-3.9,4-5.8,3.3
			c-1.5-0.6-0.6-3.7-2.8-8.2c-0.9-1.8-1.4-3.6-3.6-5.2c-4.2-3.1-5.6-6.6-3-11.3c2.4-4.3,5.5-8.3,8.3-12.5c1.7-2.6,3.1-5.5,5-8
			c1.9-2.3,3.9-4.9,6.5-6.1c11.6-5.5,18.4-0.2,25.1,9.3c0,0,0.4,0.7,1,1.6c0.6,0.7,1.1,1.4,1.5,1.3c0.7-0.2,0.5-3.1,0.5-3.7
			c-0.1-2-0.6-2.8,0-3.5c0.3-0.4,0.9-0.6,1.5-0.5c1.5,0.2,2.4,3.3,2.7,5c0.4,2.3,0.1,3.4,0.9,4.4c0.3,0.4,0.9,0.8,1.7,1
			c0.1,0,0.2,2-0.2,2.6c-1.7,2.4-8.4,3-11,1.5c-4.5-2.5-9-5.1-13.8-6.8c-3.4-1.2-7.1-2.3-10.8-0.8c-5.8,2.3-7.7,9.7-7.1,10.1
			c0.7,0.5,4.7-7,10.5-6.9c1.5,0,3,0.5,3,0.8c0,0.4-3-0.1-5.7,0.9c-2.1,0.8-4.4,2.5-6.3,6.5c5.3,3.9,10.6,5.7,14.1,5.6
			c2.3,0,3.4-0.1,4.8-0.6c1.7-0.7,2.9-1.8,3.9-1.3c0.6,0.3,0.9,0.9,1.1,1.4c0-0.8,0.1-1.7,0.6-2.8c1.3-3.2,4.3-4.6,5.1-4.9
			c4.4,9.6,3.3,17,3.3,20.3c0,0.8-1.8,2-2.9,2.2c-2.4,0.4-4.9,1.1-10.3,0.8c-1.4-0.1-2.3-0.1-2.7-0.8c-0.5-1.1,1.1-2.8,1.3-3
			c-0.3,0.1-0.8,0.4-1.2,0.9c-0.6,0.7-0.7,1.5-0.7,1.7c-0.5,3.4-7.2,10-8,10.6c0,0-0.3,0.2-0.3,0.4c0,0.2,0.3,0.4,0.3,0.5
			c0.7,0.4,3.2-2.6,4.1-3.6c1.5-1.6,3.8-3.7,7.5-5.6c0.1,1.6,0.2,3.9-0.4,6.6c-0.5,2.2-1.3,5.9-4.3,8.8c-2.8,2.7-4.5,1.8-5.6,3.9
			c-1.5,3,0.2,7.7,3.2,10.1c0.6,0.5,1.2,0.8,1.6,1c1.7,0.8,3.7,1.6,4.4,0.9c0.5-0.6-0.3-1.6-0.6-3.1c-1-4.4,2.7-9.1,5.3-11.2
			c1.6-1.3,3.2-2.7,5.1-2.3c3,0.5,4.6,4.7,4.8,5.4c1.1,3,0.6,5.2,2.6,7.9c0.6,0.8,1,1.1,1.4,1c1.3-0.2,0.6-4.8,2.3-5.6
			C373.4,106.7,380.3,113.7,379.2,115.5L379.2,115.5z M332,131.2c-1,0-2.3,0.3-3-0.2c-1.2-0.9-1.6-2.1-1.8-2.9
			c-0.6-2.7,0.6-6,2.2-6.2c0.5-0.1,0.9,0.2,1,0.3c1.3,0.8,1.5,2.8,1.6,5.6C332.1,128.6,332.1,129.8,332,131.2L332,131.2z
			 M320.5,39.7c-1.6,3.7-4.2,5.4-7.7,4.7c-4.5-0.9-6.2-4.4-6.4-8.4c-0.2-3.6,2-5.8,6.1-6.2C311.6,37,314.3,40.3,320.5,39.7
			L320.5,39.7z M373.8,102.6c-3-3.3-5.8-6.4-8.6-9.5C375,97.7,375.5,98.3,373.8,102.6z M378.8,21.1c0.7,1.9,1.2,5,0.2,6.3
			c-0.9,1.2-4,0.6-6.1,0.9c-0.1-0.5-0.2-1-0.3-1.5c0.7-1,1.4-1.9,2.1-2.8c-2.8-1.2-5.3-2.3-8.1-3.5c2.6-4.5,5-5.1,8.2-2.1
			C376,19.5,378.4,19.9,378.8,21.1L378.8,21.1z M343.7,15.3c4.1,0.9,8,0.8,9.9-4.2c-3.8,0.4-7.4,0.7-11.6,1.1
			c10.1-9.9,25.4-11.7,31.4-4c-4.3,5.8-8.9-2.5-11.8-0.6c-0.1,2.6,0.4,4.7-0.4,5.3c-3.1,2.8-6.3,6.2-10.1,7.3
			c-5.4,1.5-11.3,1.1-17.5,1.6C337.2,13.8,337.2,13.9,343.7,15.3L343.7,15.3z M325.9,10.9c3.3-0.6,6.8-0.1,10.3,0
			c0.1,0.8,0.3,1.7,0.4,2.5c-2.9,1.4-5.6,3.2-8.6,4.1c-1.4,0.4-3.3-1-4.9-1.7C324,14.2,324.7,11.1,325.9,10.9z M342.8,29.1h-16.4
			c2,2.4,0.8,3.9-2.7,4.5c-0.5,0.1-1,0.2-1.5,0c-2.1-0.7-5.2-0.9-6.1-2.4c-1.4-2.5,2.7-7.6,5.7-8.1
			C325.9,22.3,339.4,25.3,342.8,29.1L342.8,29.1z M318.5,15c0.2,1.4,0.5,3.1,0.9,5.3c-3.6,2-7.4,4-11.1,6.1
			C308.8,19.5,311.4,15.1,318.5,15z M307.8,30.2c-2.9,2.3-5.4,4.4-8.6,6.9C300.1,29,301.4,28,307.8,30.2z M298.4,41.2
			c5,3.1,5.1,3.5,1.6,7.5c3.4,1.2,6.5,2.4,9.7,3.5c-2,6.4-3.6,6.3-12.5-0.5C297.7,48.1,298,44.8,298.4,41.2z M292.6,38.2
			c1.1,0.3,2.6,1.5,2.7,2.4c0.2,1.5-0.5,3.1-0.8,4.7c-0.9-0.2-1.7-0.4-1.4-0.3c-3.1,2.1-5.2,4-7.8,4.9c-0.6,0.2-2.4-3-4-5.1
			c-1.1,1.4-2.7,3.5-4.4,5.6C277.4,42.5,285.5,36.2,292.6,38.2L292.6,38.2z M275.3,60.3c0.7-1.7,4.1-2.4,6.4-3.2
			c1-0.3,2.4,0.7,3.4,0.3c9-3.5,16.2-0.4,22.1,7.4c-1.7-0.8-4-1.1-4.9-2.4c-2.1-2.9-4.8-5-7.8-3.1c-1.7,1.1-2.8,4.6-2.7,7
			c0.3,8.9,5.5,14.3,15.9,17.1c-0.8,1.6-1.5,3.1-2.7,5.7c-7-6.2-13.8-11.3-15-20.9c-0.2-1.8-1.1-3.5-1.7-5.2c-1.6,1-3.2,2-4.8,3
			c-0.4,0.2-0.8,0.5-1.6,1c-0.6-1.7-1.1-3.1-1.9-5.5c-1.6,3.7-2.9,6.7-4.2,9.7c-0.6-0.1-1.2-0.2-1.8-0.3
			C274.3,67.4,274,63.5,275.3,60.3L275.3,60.3z M278.4,113.7c-0.5-0.5-1.1-1.1-1.6-1.6c2.1-2.3,4.3-4.6,6.5-6.9l2.1,2
			C283.1,109.4,280.8,111.6,278.4,113.7L278.4,113.7z M278.8,125.7c-1.1,1.4-3.6,1.8-5.5,2.6c-0.4-0.6-0.7-1.2-1-1.8
			c1.5-2.1,3-4.2,4.5-6.2c0.6,0.1,1.2,0.1,1.7,0.2C278.7,122.3,279.6,124.7,278.8,125.7z M280.3,83.2l0.9,1
			c-0.8,1.7-1.7,3.3-2.6,5.3c2.1,1.1,4,2.1,6.1,3.2c-4.5,4.9-9.2,4.1-15.6-3.3C273.1,87.2,276.7,85.2,280.3,83.2L280.3,83.2z
			 M270.1,101.3c0.7,0,1.4,0,2.1,0c1.2,2,3.3,4,3.2,5.9c-0.1,1.8-2.5,3.5-3.9,5.3c-1.9-2-4.3-3.8-5.2-6.2
			C265.9,105.3,268.8,103,270.1,101.3L270.1,101.3z M258.6,124.1c2.1-3.6,5.7-4.4,9.2-1.7c0.9,0.7,1.3,2.1,2,3.1
			c-1.1,0.5-2.1,1.2-3.2,1.6c-2.2,0.7-4.6,1.3-8.2,2.3c2.5,1.9,3.6,2.5,4.4,3.5c0.6,0.7,0.5,1.9,0.8,2.8c-0.9,0-2,0.4-2.7,0.1
			C257.8,134.4,256.6,127.5,258.6,124.1L258.6,124.1z M152.2,227.2c0,0,8.1-3.2,14.8-5.1c1.2-0.4,2.9-0.3,3.9,0.3
			c4.1,2.7,4.4,0,4.7-3c2.1-18.1,9.4-33.6,23.4-45.5c6.1-5.2,16.8-14.3,31.3-14.3c0.7,0,7.2,1.5,20.1,4.4c3.9,0.9,6.9,1.6,7.2,3.3
			c0.6,3.4-10.9,7.2-10.1,10.7c0.2,0.7,0.8,1.1,0.9,1.2c1.7,1,4.5-0.8,11.8-7c9.3-7.9,9.2-8.8,9.1-9.3c-1.2-2.9-14.5,0.4-14.9-1.2
			c-0.1-0.6,1.6-1.5,2.5-1.9c4.4-2.3,3.2-2.6,13.2-10.3c9.4-7.2,14.1-10.7,16.6-9.5c2.5,1.2,2.6,5.4,2.6,5.9
			c0.3,9.8-13.8,16.2-12.6,18.5c0.7,1.3,6.1,0.6,10-2.4c3.9-3,5.5-7.4,5.9-11.6c1-9.1,0.9-18.3,2.2-27.4c1.2-8.8,3-17.7,9.6-25.1
			c0.9,4.2,3.2,8.4,2.2,11.4c-2.4,7.4,2.3,12.6,4,18.7c1.8,6.5,4.1,13,5.7,19.6c5.1,20.7,6,24.1,5.9,27.2c0,1.4-0.2,4.6,0.4,4.7
			c0.5,0.1,1.4-1.8,5.6-13.1c1.9-5.2,2.6-7.3,3.7-7.3c1.2,0,2.4,2.8,4.4,7.4c0.5,1.2,0.8,1.8,0.8,2c0.9,5.6-9.7,10.9-8.9,12.3
			c0.1,0.2,0.6,0.4,2,0.1c8.6-5.2,16.2-8.4,21.8-10.5c8.5-3.2,17.3-2.2,24.1-6.9c3.1-2.1,8-1.8,12-2.6c-1.5-1.4-3.4-2.8-4.8-4.5
			c-4.2-5-4.6-10.4-0.9-15.4c0.8-1.1,3.1-1.8,4.7-1.7c11.7,0.8,22.3,4.9,32.1,11.4c2.4,1.6,5.4,3.3,8,3.2
			c23.5-0.1,26.2,11.7,30.2,15.2c3.8,3.3,5.7,6.1,6,5.8c0.6-0.4-3-8-9.8-13.5c-7.1-5.8-14.8-7-14.7-7.5c0.1-0.4,6.8,0.2,13.9,2.9
			c19.2,7.3,28.4,24.6,29.4,26.5c2.3,4.4,10.8,21,4,34c-2,3.9-5.8,8.2-7.7,7.5c-1.6-0.6-0.7-4.7-1.2-12.6c-0.1-1.6-0.8-10-3.8-18.8
			c-2.9-8.4-7-14.2-7.3-14c-0.5,0.2,6.8,11,7.8,26.1c0.4,5.8-0.3,10.6-1,13.9c-9.1-5.9-17.1-9.9-22.9-12.6
			c-1.3-0.6-22.3-10.2-23.9-7.5c-0.1,0.2-0.1,0.5-0.1,0.9c0.2,2,2.5,2.5,4,4.7c0.8,1.1,1.1,2.3,1.2,3c0.4,3.4-3.7,6.2-5.3,8.1
			c-11.6,13.2-25.8,20.8-43.8,20.3c-11.3-0.3-22.6-0.4-33.9-1.1c-4-0.3-8.2-1.7-12-3.3c-3.1-1.3-5.4-3.1-7.1-5.2
			c-3.5-4.5-6.4-11.9-3.6-16.8c1.9-3.3,5.7-4.7,5.3-5.6c-0.4-0.8-3.5,0.8-5.1-0.7c-1.1-1-0.9-2.9-0.4-6.5c0.3-2.3,0.5-4,1.5-5.9
			c1.4-2.7,3.2-3.9,2.9-4.4c-0.3-0.4-1.7,0.6-4.6,1.2c-3.2,0.8-5.2,0.4-5.3,1c-0.2,0.8,2.9,1.1,4.4,3.6c1.3,2.3,0.6,5.3-0.1,8.1
			c-0.5,1.8-0.7,2.7-1.3,3.2c-2.5,2.4-7.9,0.3-8.2,1.4c-0.1,0.3,0.2,0.7,0.5,0.9c2.9,2.7,6.7,1.7,7.8,3.8c1,1.7,0.5,4.2-0.7,8.6
			c-2.3,8-7.6,13.8-15.5,16.5c-16.2,5.5-33.1,6.6-49.9,4.8c-11.9-1.3-17.6-10.6-25.1-18.3c-4.3-4.5-6.3-7.5-6.2-11
			c0.4-7.2,9.9-11.4,9.1-12.8c-1.1-1.8-18.5,6.8-20,7.6c-9.8,4.9-18.3,9.2-17.6,12c0.6,2.4,7.4,3.2,17.1,7.7c0.9,0.4,2.8,1.3,3.2,3
			c0.4,1.3-0.2,2.9-1.6,4.8c-9.5,12.7-21.2,21.9-36.8,26.1c0,0-6.5,2.5-21.4,7c-6.9,2.1-9.2,2.7-10.5,1.5
			c-2.4-2.4-0.3-10.8-0.1-11.5c0.2-0.9,0.7-2.5,0.4-2.6c-0.6-0.2-3.1,6.1-4.8,5.8c-1.1-0.2-0.5-3.1-2.2-6c-2.4-4.4-6.7-3.7-7.8-6.3
			C130.9,240.9,147.4,230.2,152.2,227.2L152.2,227.2z M413.3,493.8c-14.4-8.1-28.8-16.1-43.4-23.7c-4.8-2.5-6.2-5.5-4.1-10.4
			c1.2-2.9,2.1-5.9,3.5-9.9c3.4,7.7,6.9,14.2,14.6,19.1c-2.9-7.9-10-12.5-10-20.8c38.9,16.3,63.8,48.1,60.9,64.6
			C430.7,502.2,421.6,498.5,413.3,493.8L413.3,493.8z M428.7,573.1v-40.6C431.3,545.3,431.8,559,428.7,573.1z M362.2,478.2
			c2.7,6.8,0.8,10.9-4.8,15.2c-6.4,5-11.9,11.1-17.7,16.8c-1.5,1.5-3.1,2.9-4.7,4.3c-0.5-0.2-1-0.3-1.4-0.5
			c0.7-5.7,1.1-11.5,2.2-17.1c2.6-14.4,5.2-28.8,8.2-43.1c0.8-3.9,2.2-7.7,3.9-11.3c2.8-6,5.3-6.6,10.9-3.4
			c9.1,5.2,9.3,5.3,4.9,14.9C360,461.9,359,470.1,362.2,478.2L362.2,478.2z M312.1,502.2c-1,5-1.9,9.7-2.8,14.8
			c-13.8-9.4-25.7-50.8-20.8-70.4c3.9-0.3,5.5,2.1,6.5,5.4c1.7,5.4,3.3,10.8,5.3,16.1c1,2.6,2.6,4.9,4.2,7.8
			c7.8-5.3,11.3-12.5,15.2-19.5c0.5-0.9,0.6-2,1.2-2.7c1.7-1.8,3.5-3.4,5.3-5.1c0.2,2.4,1,4.9,0.5,7.1c-3.1,11.2-6.2,22.5-13.1,32.2
			c-3.2,4.5-6.8,8.2-13.3,7.5C302.3,500.5,306.4,501.8,312.1,502.2L312.1,502.2z M298.8,448.1c0.8,0,1.9-0.3,2.7,0
			c3.7,1.7,7.3,2,11.3,0.7c2.9-0.9,6.1,0.3,4.5,4c-3,6.9-6.9,13.3-10.6,20.2C299.8,467.2,296.7,456.3,298.8,448.1L298.8,448.1z
			 M273.2,426.2c-6.6-4.3-12.1-10.4-17.4-16.3c-4.8-5.4-9.6-10-16.8-11.7c-1.7-0.4-3.3-1.4-5.8-2.5c2.4-1.6,4-2.6,5.6-3.7
			c0,0,0,0,0-0.1c8.8,3.2,15.1,9.5,21.1,16.5c18.8,21.9,42.7,28.3,70.4,21.1c12.1-3.2,23.6-7.9,34.3-14.6
			c6.5-4.1,13.4-7.4,20.1-11.1c6.9-3.9,14.2-4.4,21.8-3.6c1.4,0.1,2.7,1.1,5.2,2.1c-2,0.8-2.6,1.3-3.4,1.4
			c-14.2,1.5-26.9,7.1-39.1,14.1c-8.4,4.8-16.8,9.6-25.7,13.3C319.3,441.2,295.5,440.8,273.2,426.2L273.2,426.2z M262.6,525.6
			c1.7,3.1,4.1,5.9,6.9,9.9c-8.9-1.2-16.4-2.8-19.7-10.1c-15.6-34.7-18.4-70.5-8.2-107.2c0.2-0.6,0.5-1.2,0.7-1.8
			c0.2,0,0.4,0,0.6,0.1v36.6c0.2,0,0.3,0,0.5,0c0-6.8-0.2-13.5,0.1-20.3c0.2-6.7,0.9-13.5,1.3-20.2c0.8-0.2,1.6-0.4,2.4-0.6
			c2.7,4.9,5.4,9.8,8.1,14.8c0.1-1.1,0.1-2.4,0.2-3.9c4.9,4.2,8.7,7.5,7.8,14.6c-1.2,9-1,18.2-1.4,28.1c-1.3-5.1-2.5-9.6-3.9-15
			c3,25.6,5.8,50.3,8.7,74.9c-0.5,0.2-0.9,0.3-1.4,0.5c-2-3.5-4-7-6-10.5c-0.3,0.1-0.5,0.2-0.8,0.3
			C259.9,519.1,260.9,522.6,262.6,525.6L262.6,525.6z M227.4,368.5c-13.8,4.8-43.9-13.1-45.6-27c17.9,10.7,37.2,16,57.7,18.3
			c-2.4,5.5-6.4,5.9-25.5,3.1C218.4,364.7,222.7,366.5,227.4,368.5L227.4,368.5z M263.5,305.8c-0.3-0.3-1.1-0.9-2.8-2.1
			c-5.4-3.9-5.9-3.8-7.1-5c-3.6-3.8-3.5-10.3-2.5-10.7c0.5-0.2,1,1,3,2.9c1.9,1.8,5.2,5,7.9,4.4c4.1-0.9,6.2-10.9,3.8-12.9
			c-0.1-0.1-0.4-0.4-0.8-0.3c-1.7,0.1-1.2,5.2-3.4,6.4c-3,1.6-11.2-4.4-12.1-11.4c-0.3-2.5,0.3-5.2,1.1-5.3c0.7-0.1,0.9,2.3,3,3.9
			c2.7,2,6.3,1.4,7.1,1.3c1.6-0.3,2.7-0.8,3.5-1.2c1.1-0.6,4.5-2.3,6.2-6.1c1-2.3,1.3-5.2,0.6-5.4c-0.9-0.4-2.3,4.8-7,6.6
			c-2.3,0.9-4.4,0.5-5.2,0.3c-5.3-1.2-9-7.4-7.8-9.5c1.3-2.1,6.7,1.3,13.4-1.7c2.6-1.1,3.9-2.5,5.4-3.8c6.4-5.5,10.9-4.9,25.7-9.6
			c12.7-4,20.5-8.5,28-20.1c5.7,4.1,11.5,8,17.1,12.3c9.2,7.1,20.8,6.4,31.2,9.4c7.1,2.1,14.5,3.2,21.8,4.8c0,0.4,0.1,0.9,0.1,1.3
			c-4.2,1.5-5,2.3-4.9,2.7c0.1,0.9,4.2,1,10,1c5.6,0.1,8.4,0.1,12.1-0.6c4.5-0.9,6.4-2,6.7-1.5c0.6,1-4.5,6.3-11.2,9.3
			c-3.8,1.8-4.3,1-8.5,3.1c-5.3,2.6-6,4.5-8.8,4.4c-3.4-0.1-7-3.1-7.5-6.2c-0.5-2.8,1.7-5,1.1-5.5c-0.7-0.5-4.3,1.5-4.8,4.3
			c-0.9,4.5,6.2,11.9,11.1,10.3c3.5-1.2,6.7-3.6,9.5-6c2.4-2,4.2-3.5,7.1-0.8c1.1,1,2.2,1.6,3.4,1.9c2.5,0.5,5-0.7,6.7-1.6
			c2.7-1.5,3.6-3.1,4.5-2.7c0.9,0.4,0.8,2.5,0.5,3.8c-0.4,1.9-1.6,3.3-3.1,4.7c-4.5,4.1-7.8,4.8-7.6,6.1c0.2,1.6,5.5,1.1,6.4,3.4
			c1,2.6-4.5,7.1-11.2,12.4c-15.4,12.3-22.6,17.5-21.8,19.1c0.5,0.9,3.4,0.5,6.7-0.1c4.9-0.7,5.4-1.8,6.9-1.4c3.6,1,4.6,8.1,6.1,20
			c0.8,6.6,1.2,10,0.5,12.6c-1.5,5.3-5.4,9.9-11.6,13.4c-4.5,2.5-8.7,3.9-10.6,4.4c-6.1,1.6-11.1,1.5-11.2,2.5
			c-0.1,1.1,5.8,1.4,6.4,3.8c0.6,2.6-5.4,6.1-9.1,8.2c-22.5,12.9-28.3,16.4-40.2,20.1c-7.6,2.4-11.2,2.8-13.8,0.9
			c-4.8-3.7-2.9-14.2-4.2-14.3c-0.7,0-1.1,2.7-3.5,7.6c-2.3,4.7-3.5,5.4-4.3,5.7c-1.4,0.5-3.3,0.1-6-1.3
			c-7.1-3.4-13.5-8.2-19.9-12.9c-6.1-4.5-4.6-5.8-8.7-8.9c-4.5-3.4-9.8-6-9.3-7.5c0.1-0.2,0.8-0.7,2.1-1.5c1.8-1.2,2.4-1.4,2.4-1.8
			c0-0.7-2.2-1.1-3.8-1.6c-0.4-0.1-5.8-1.7-8.3-5.3c-2.7-4-2.3-9.2-0.7-13.9c2.2-6.7,3.9-6.2,6.4-14.1c2.1-6.8,1.6-10.8,4.6-12.4
			c2.8-1.4,5.1,0.9,6.7-0.6C268.8,315.4,267,309.2,263.5,305.8L263.5,305.8z M421.1,443.9c-3,4.3-11,7.1-16.1,5
			c-4.5-1.8-8.8-4-13-6.4c-6.1-3.5-12.1-7-17.8-11c-1.6-1.1-2-3.7-3-5.7c2.1-0.6,4.5-2.1,6.4-1.7c11,2.5,21.8,5.5,32.8,8.4
			c0.1,0.6,0.3,1.2,0.4,1.8c-2.5,0.9-4.9,1.7-6.9,2.4c6.6,2.7,11.5-1.6,16.3-6.2C423.2,434.6,423.6,440.4,421.1,443.9L421.1,443.9z
			 M425.4,476.4c-21.3-14.4-42.7-28.9-64.7-43.8c2-1.7,3.3-2.9,4.8-4.2c13,13.1,30.4,18.9,45.1,28.9
			C417.8,462.1,423.5,468.2,425.4,476.4L425.4,476.4z M405.2,420.4h8.5c-0.4,5.5-3.8,7.1-8,6.5c-6.2-0.9-12.4-2.4-18.5-3.7
			c-2.4-0.5-4.9-1-7.3-1.5c6-6.5,21.7-8.3,31.7-3.2c-2.5,0.4-4.5,0.8-6.4,1.1C405.2,419.9,405.2,420.1,405.2,420.4L405.2,420.4z
			 M263.4,378.8c1.4,1.4,3,2.8,4.1,4.4c18.6,25.8,50.6,27.7,74.4,16c8.7-4.3,17-10,24.4-16.2c11.3-9.5,23.9-10.8,37.5-8.7
			c1.8,0.3,3.3,1.6,4.8,3.5c-1.5,0.3-3.1,0.6-4.6,0.9c-9.4,1.8-18.9,3.5-28.2,5.5c-1.6,0.4-3.2,1.7-4.5,2.9
			c-9.9,8.5-20.8,15.5-33,20.3c-26.8,10.6-52.5,4.8-71.7-16.6c-5.3-5.9-10.7-11.5-18.8-13.2c-2.3-0.5-4.6-0.7-6.9-1.1
			c-0.3-0.5-0.7-1-1-1.5c1.7-1,3.2-2.5,5-2.8C252,371.1,258.2,373.8,263.4,378.8L263.4,378.8z M393.7,393.9c0.4,1.3,0.7,2.5,1.1,3.8
			c-0.8,0.1-1.7,0.2-2.5,0.3c0,0,0,0,0,0c-1.4-4.3-2.8-8.6-4.2-12.9c5.5-0.7,11-1.5,16.6-2.2c0,0.8,0.1,1.5,0.1,2.3l-13,1.7
			C392.4,389.2,393,391.5,393.7,393.9L393.7,393.9z M405.2,386.6c0,1,0,2,0.1,2.9c-2.6,0.4-5.2,0.7-7.8,1.1c0.3,1.5,0.6,3,1,4.5
			c2.8-0.2,5.6-0.4,8.4-0.6c0,0.5,0,0.9,0.1,1.4c-3.5,0.4-7,0.7-10.4,1c-0.4-2.9-0.9-5.8-1.3-8.8
			C398.4,387.7,401.8,387.1,405.2,386.6L405.2,386.6z M322.3,428.4c-0.9,0-1.8,0.1-2.6,0.2c-0.7-4.3-1.1-6.8-1.6-9.3
			c-4.5,0.3-8.4,0.6-12.4,0.9c0-0.5-0.1-1-0.1-1.5c4.5-0.3,9-0.6,13.4-1c6.3-1.7,12.6-3.3,18.9-5c0.5,0.5,0.9,1,1.4,1.5
			c-2.3,0.5-4.7,1.2-7.2,2c-2.4,0.7-4.7,1.5-6.9,2.3c0.9,2.4,1.8,4.8,2.6,7.2c5-1.9,10.1-3.9,15.7-6c0.3,0.6,0.5,1.1,0.8,1.7
			c-6,2.1-12,4.2-18,6.2c-1.2-3-2.4-6-3.6-9c-0.9,0.1-1.8,0.3-2.8,0.5C320.7,422.1,321.5,425.3,322.3,428.4L322.3,428.4z M242.3,381
			c-0.8,2.1-1.6,4.2-2.4,6.3c1.2,0.3,2.4,0.6,3.6,0.9c-0.4,0.7-0.7,1.5-1.1,2.2c-1.6-0.5-3.1-1-4.7-1.5c1-3.3,2-6.6,3-9.9
			c4,1.1,7.9,2.2,11.3,3.1c-1.5,4.4-2.8,7.9-4.1,11.7c-1.1-0.5-2.3-0.9-3.4-1.4c1.4-3,2.7-6,4.1-9L242.3,381L242.3,381z
			 M256.8,385.4c1.4,1.6,2.8,3.1,4.1,4.7l-2,2c-0.8-1-1.7-2.1-2.5-3.1c-1.1,1.4-2.1,2.9-3.2,4.3c1.2,1.2,2.4,2.4,3.5,3.5l5.2-5.4
			l2.6,2.9c-2.5,2.2-5.1,4.5-7.6,6.7c-2.5-2.2-5-4.4-7.5-6.6C251.9,391.5,254.3,388.5,256.8,385.4L256.8,385.4z M265.3,395.6
			c2.7,2.3,5.4,4.5,8.1,6.8c-0.6,0.5-1.3,0.9-2,1.4c-1.7-1.6-3.3-3.2-5-4.9c-1.4,1.7-2.8,3.5-4.2,5.2l6.5,6.1c1.5-1.5,3-3,4.5-4.5
			c0.5,0.3,0.9,0.6,1.4,0.9c-1.3,1.9-2.6,3.8-3.9,5.8c2.1,1.6,4.2,3.2,6.4,4.8c1.2-1.9,2.5-3.7,3.7-5.6c-1.1-0.8-2.2-1.6-3.4-2.4
			c0.2-0.4,0.3-0.7,0.5-1.1l24.5,9.6c-1,2.9-2.1,6.3-3.3,9.9c-16.8-3.2-29.8-12-41-24.9C260.5,400.3,262.9,398,265.3,395.6
			L265.3,395.6z M304.7,421.9c0.6,0.1,1.3,0.2,1.9,0.3c-0.3,1.6-0.6,3.2-0.9,4.8c3.6-0.3,7.2-0.6,10.8-0.9c-0.2-1.1-0.4-2.2-0.5-3.2
			c-2.4,0.1-4.9,0.1-7.3,0.2c-0.1-0.6-0.1-1.3-0.2-2c3-0.1,5.9-0.2,8.9-0.3c0.5,2.6,1,5.2,1.4,7.8c-1.8,0.4-3.7,0.6-5.8,0.8
			c-4.4,0.4-8.3,0.1-11.5-0.4C302.5,426.6,303.6,424.3,304.7,421.9L304.7,421.9z M339.8,419c-3.4,1.4-6.8,2.8-10.2,4.1
			c-0.4-1.2-0.8-2.4-1.2-3.5c3.3-1.1,6.6-2.2,10-3.2C338.8,417.2,339.3,418.1,339.8,419L339.8,419z M340.2,411.2
			c1.6-0.6,3.1-1.3,4.7-1.9c2.2,3.5,4.4,7,6.5,10.5c-1.5,0.4-3,0.7-4.5,1.1C344.7,417.6,342.4,414.4,340.2,411.2L340.2,411.2z
			 M348.1,408.2c4.5-2.9,8.9-5.7,13.4-8.6c0.6,0.6,1.3,1.2,2,1.8l-12.8,7.8c1.1,2,2,3.8,3.4,6.2c4.1-2.7,8.1-5.5,12.2-8.2
			c-0.8-1.2-1.6-2.4-2.4-3.5c0.6-0.5,1.3-1,1.9-1.6l4.9,6c-5.3,3.9-10.5,7.7-15.8,11.5C352.6,415.8,350.3,412,348.1,408.2
			L348.1,408.2z M365.5,395.5c1.5-1.5,3.7-3.5,6.6-5.2c3.2-1.9,6.2-2.9,8.4-3.4c2.4,4.2,4.8,8.5,7.2,12.7c-1.2,0.4-2.4,1-3.7,1.6
			c-3.4,1.6-6.1,3.5-8.4,5.2C372.3,402.8,368.9,399.1,365.5,395.5L365.5,395.5z M242.9,275c-4-3.1-4.9-13.4,0-17.6V275z
			 M242.1,339.4c-7.7,3.3-28.7-9.4-32.1-19.8C220.6,326.1,231.1,332.6,242.1,339.4z M238.2,348.8c-13.8,5.7-43.1-10.4-47.9-26.3
			C204,335,219.7,344.1,238.2,348.8z M431.8,274.3c-2.4-10.5-4.3-19.9-1.5-30.4C436.6,249.4,437.4,266.1,431.8,274.3z M57.4,152.5
			c-1.8,2.8-7.4,2.5-9.2-0.3c-1.6-2.6-2.5-5.8-3.2-8.8c-0.6-2.4-0.5-4.9-0.5-7.4c0-1.1,0.3-2.2,0.3-2.5c4.4,4,9,7.8,12.9,12.2
			C58.8,147,58.5,150.8,57.4,152.5L57.4,152.5z M56.7,132.7c-3.2-4.4-6.9-8.9-10.2-13.9c-2.2-3.4-4.3-7.2-5.5-11.1
			c-3.1-10.3-5.6-20.8-8-30.1C40.1,85.4,56.4,122.9,56.7,132.7L56.7,132.7z M26.3,68.6l1.8,0.3c-0.2,0.9-0.5,1.8-0.6,2.8
			c-0.4,3.1-0.9,6.2-1.1,9.4c-0.1,2.2-0.2,4.4,0.2,6.5c3.5,18.1-1.2,35.3-5.2,52.6c-0.1,0.6-0.5,1.1-0.8,1.7
			C19,117,21.2,92.7,26.3,68.6L26.3,68.6z M18.5,151.4c10.5-0.9,9-10,12.5-16.3c0.6,5.7,1.4,11.3,1.8,17c0.3,3.9-1.2,6.9-5.9,6.8
			C19.7,158.7,18.5,157.7,18.5,151.4z M28.1,169.1c7.1-3,14.1-6,21.9-4.4C42.7,166.3,35.9,170.6,28.1,169.1z M51.1,167.3
			c0.1,0.5,0.2,1,0.3,1.6c-5.7,1.2-11.3,2.5-17,3.7c-0.1-0.6-0.2-1.1-0.4-1.6C39.8,169.7,45.4,168.5,51.1,167.3L51.1,167.3z
			 M35.9,197.6c-0.5,0.1-1.2-1.4-1.7-2.1c0.1-0.7,0.1-1.4,0.2-2c5.3-0.8,10.7-1.7,16-2.3c0.7-0.1,2,1.1,2.3,1.9
			c0.3,0.6-0.3,2.4-0.8,2.5C46.6,196.4,41.2,197.1,35.9,197.6L35.9,197.6z M17.2,240.7c0.5-1.8,2-2.8,2.7-3.2
			c6-3.6,11.8-7.4,18-10.6c4.5-2.3,13.4,2.3,14.5,7.2c0.2,0.9,0.1,2.3-0.5,2.7c-0.8,0.6-2,0.5-3,0.3c-2.2-0.4-2.6-1.2-4.4-1.6
			c-1.4-0.3-2.5-0.1-4.5,0.4c-3.2,0.7-5.5,1.9-6,2.1c-8.1,4.3-11.4,10-14.4,8.9C17.7,246.3,16.6,242.9,17.2,240.7L17.2,240.7z
			 M16.8,253.8c0.5-1.3,1-3,5.2-5c6-2.9,11.9-5.8,17.9-8.5c2.1-0.9,3.3-0.8,4.7-0.7c6.3,0.3,10.8,5.6,12.5,7.9
			c0.6,1.3,0.5,2,0.3,2.3c-1.2,1.8-6.7-2.1-13.3-0.4c-0.9,0.2-2.7,1.2-6.3,3.1c-2.3,1.2-4.7,2.6-9.1,5.2c-7.3,4.3-8.3,5.1-9.5,4.5
			C16.8,261.3,15.7,257,16.8,253.8L16.8,253.8z M54.4,272.3c-0.4,1.1-2.7,1.5-5.8,1.9c-2.6,0.4-2.6,0-4,0.4
			c-2.4,0.7-2.5,1.8-5.9,3.9c-0.7,0.4-2.5,1.5-5.1,2.4c-2.3,0.8-3.5,1.2-4.9,0.8c-1.8-0.5-4-2-4-3.6c0-1.9,3.2-2.7,10.6-6.3
			c8.4-4.1,10.1-5.9,13.3-5.1C52.1,267.4,54.9,270.8,54.4,272.3L54.4,272.3z M57.4,262.8c-0.5,0.5-1.7,0.3-3.3-0.1
			c-2.3-0.5-3.3-1.4-4.4-1.8c-1.9-0.7-3.8,0.4-9.1,3.8c0,0-4.8,2.8-14.8,8.2c-2.7,1.4-5.2,1.6-6.6-1.7c-0.5-1.2-0.6-2.3-0.4-3.2
			c0.5-1.9,2.3-2.8,3.2-3.3c6.5-3.5,12.8-7.2,19.3-10.7c1.5-0.8,3.8-2.1,6.8-1.9c2.4,0.1,4.1,1.1,4.5,1.3
			C56.6,255.9,58.6,261.5,57.4,262.8L57.4,262.8z M65,232.8c-2.6,0.9-2.7,2.9-5.7,4.7c-1.2,0.7-2.4,1.5-3.5,1.1
			c-1.5-0.6-1.8-2.9-1.9-3.6c-0.2-2.1,0.3-5.3,2.7-6.7c4.2-2.5,10.5,2.8,10.2,4C66.7,232.6,66.2,232.4,65,232.8L65,232.8z M90.5,295
			c-5.1-2.2-8.9-4.8-11.4-6.7c-0.2-0.5-0.4-1.2-0.2-1.5c0.4-0.5,1.6,0,3.3,0.4c2.1,0.5,4.7,0.6,4.8,0.3c0.2-0.5-4-3.3-9.1-3.6
			c-5.6-0.3-8.9,2.7-10.3,1.2c-0.9-0.9-0.2-2.8,0.8-5.9c1.2-4,2.7-8,3.2-12.2c0.2-1.3,0.3-2.6,0.4-4c6.5-0.7,10.9,0.4,13.9,1.7
			c1.8,0.8,6.5,3.1,7.8,1.7c0.3-0.3,0.4-0.8,0.3-1.2c-0.3-1.8-3.9-2.5-5.1-2.8c-2.7-0.6-4-0.2-4.2-0.7c-0.3-0.8,2.6-2.5,6-4.8
			c4.9-3.3,6.5-4.9,8.2-6c8.9-5.9,30.7-5,38.9,6.2c2.5,3.4,3.5,6.5,2.9,9.3c-0.7,3.3-3.6,5.2-5.6,6.7c-5.7,4-11.1,3.8-11.1,5.4
			c0,0.9,1.7,1.1,5.1,3.4c2.7,1.8,5.6,3.6,5.6,5.9c0.1,2.9-3.5,5.4-5.1,6.5C119.5,300.6,103.8,300.7,90.5,295L90.5,295z
			 M162.5,282.6c-0.4,1.3-3,1.3-5.6,1.9c-0.4,0.1-5.7,1.2-8.9,4.1c-3.6,3.2-2,6.5-4.7,9.9c-1.8,2.3-5.5,4.6-13.6,4.4
			c5.9-10.4,15.4-19.2,12.9-33c0.5-0.1,1.1-0.1,1.8,0.1c3.7,1,6,6.7,4.6,8.5c-1.1,1.4-4.5,0.3-4.9,1.7c-0.1,0.4,0.1,0.8,0.1,0.9
			c0.4,0.8,1.9,1.2,8.9,0.2c5.4-0.8,7.8-1.5,9-0.2C162,281,162.7,281.8,162.5,282.6z M170.2,347.4c-1.9-2.9-3.5-6-5.3-9.1
			c-0.2-0.4-0.2-0.9,0-1.7c17.3,23.2,39.1,39.6,68.2,45.2c-2.6,3.9-5.8,4.5-9.5,3.6C200.5,380.2,183.2,366.8,170.2,347.4
			L170.2,347.4z M208.3,504.7c0.1-0.5,0.4-1.9,0.9-3.2c8.1-18.3,11.2-37.8,14.6-57.3c1.4-8.1,4.2-16,6.6-24c1.1-3.9,3.8-6.1,9.1-5.9
			c-7.3,31.1-12,62.2-0.6,93.9C227.9,506.9,218.2,505.8,208.3,504.7L208.3,504.7z M246.9,587.8c-9.1-12-11.6-25.4-11-41.5
			c5.7,2.9,10.1,5,14.4,7.3c0.8,0.4,1.6,2,1.5,2.9C250.6,567,249.2,577.4,246.9,587.8L246.9,587.8z M253.6,638.3
			c-2.6-4.7-1.1-11.8,4.3-17.7c4.2,5.9,8.6,11.4,12.4,17.3c1.9,3-0.9,4-3.3,4.6C261.4,643.8,255.5,641.9,253.6,638.3L253.6,638.3z
			 M270.8,693.8c-3.3-6.6-0.1-15.8,6.6-18.5C275.2,681.7,273,687.6,270.8,693.8z M281.4,615.9c-2.6,2.9-5.4,3.4-8.9,1.7
			c-13-6.3-19.8-19.8-16.9-33.8c1-4.7,2.3-9.2,3.8-14.9c8,9.7,15.5,18.2,22.4,27.2C287.4,603.3,286.9,609.8,281.4,615.9L281.4,615.9
			z M314.5,736.2c-0.9,2.9-4,6.5-6.6,7c-2.1,0.4-5.7-2.9-7.5-5.4c-5.9-8-7.1-17.2-4.8-26.6c1.3-5.5,4-10.6,6.1-15.9
			c0.7,0.1,1.5,0.2,2.2,0.2c1.3,2.1,2.9,4.1,3.8,6.3c2.8,6.8,6,13.4,7.8,20.5C316.4,726.7,315.8,731.8,314.5,736.2L314.5,736.2z
			 M317.7,585.5c-3,6.8-8,8.5-14.7,5.3c-5.9-2.8-10.3-6.2-9.8-13.8c0.5-7.4-1.6-13.9-8.5-18.4c-2.6-1.7-4.5-5.6-5.2-8.8
			c-7.8-36.7-15.4-73.4-12.7-111.3c0.1-1.3,0.3-2.6,0.5-4c0-0.3,0.4-0.5,1.5-1.8c1.5,2.6,3.9,4.8,3.8,7
			c-0.3,36.6,8.9,71.5,18.3,106.5c2.7,10.2,6,18.4,15.5,23.7c3.7,2.1,6.6,5.4,10.8,7.6c-0.7-1.9-1.1-4-2.1-5.8
			c-1.8-3.3-3.6-6.9-6.1-9.7c-12.9-15-18.6-33.2-23.8-51.7c-5.2-18.5-9.3-37.2-10-56.5c-0.1-4.3,0-8.5,0-12.6c8,1,8.7,6.1,9.3,12.4
			c1.3,13.7,3.1,27.4,5.5,41c2,11.4,7.8,21.1,15.5,29.8c1,1.2,1.9,3.3,1.6,4.7c-1.8,10.1,1.2,18.5,6.2,27.4
			C318.1,565,322.4,574.9,317.7,585.5L317.7,585.5z M325.1,534.9c-5,2.2-10,4.3-15.7,6.8c0.9-6.3,1.3-12.3,2.8-18.2
			c5.6-22.6,11.5-45.1,17.2-67.6c1.8-7.3,6.2-11.7,14.1-13.8c-1.1,4.7-2.3,9.2-3.1,13.7c-3.4,18.3-6.8,36.6-9.8,55
			c-0.7,4.5-0.4,9.3,0.3,13.9C331.6,530,329.6,533,325.1,534.9L325.1,534.9z M373.9,659c1.8,14.8,3.5,28.2,5.2,41.7
			C370.9,696.2,368.7,676,373.9,659z M386.2,632c-3.8-1.1-5.7-3.2-4.9-7.2c0.7-3.9,1.5-7.7,2.3-11.8c-8.4,7.8-12.4,8-22,1.6
			c-11.6-7.8-16.7-19.3-17.5-32.7c-0.4-6.6,0.7-13.2,1.2-19.9c0.2-3.5,0.5-6.9,0.8-10.4c-0.5-0.1-1.1-0.2-1.7-0.3
			c-1.7,6.9-3.3,13.8-5.2,21.5c-6.8-10.2-8.3-20.6-4.7-31.7c1.2-3.8,3-7.4,4.5-11.1c1.3-3.5,3.2-6.1,6.8-8.1
			c5.1-2.8,8.7-7.3,8.2-13.7c-0.3-3.7,1.1-6.2,4.1-8.5c4.6-3.5,9-7.4,10.6-13.5c0.4-1.3,3.1-2.8,4.6-2.7c2.9,0.1,6,0.8,8.6,2.1
			c8.1,4.3,15.8,9.3,23.9,13.5c9.7,5,15.5,12.3,17.4,23.3c3,16.8,4.6,33.4-0.5,49.9c-2.6,8.5-6.3,16.5-13.6,22.3s-11.4,5.4-17.4-1.6
			c-1.6-1.8-2.9-3.9-4.6-5.6c4.7,11,13.4,18.9,21.6,27.1C409.3,628,399,635.8,386.2,632L386.2,632z M414.8,604
			c-0.6,7.3,3,14-1.9,21.1c-1.6-3.9-2.9-7.1-4.2-10.4c0,0,0.1,0.1,0.1,0.1C407.6,609.9,410.2,607,414.8,604L414.8,604z M411.8,637.2
			c0.5,0.1,1,0.1,1.5,0.2c-1.1,6.8-2.1,13.5-3.4,21.4C406.2,654.9,407.4,647.2,411.8,637.2z M436,700.6
			c-4.8-13.9-9.4-27.4-14.1-40.8c-0.7,0.1-1.3,0.2-2,0.4c-1.5,7.7-3,15.4-4.6,23.2c-0.4,0.1-0.9,0.2-1.3,0.2
			c-0.7-4.6-2.5-9.5-1.8-13.9c2.3-13.3,5.6-26.5,8.5-39.7C438,642.2,445.2,674.4,436,700.6L436,700.6z M497,674
			c7.8,9,17.3,16.5,26,24.6l-1,1c-19.8-14.5-39-29.5-45.5-54.5C483.1,654.6,489.2,665.1,497,674L497,674z M510.2,554.9
			c-24.6-18.2-43.1-41.7-56.2-69.1c-17.3-36.1-21.3-74.4-15.3-113.7c5.5-35.7,23.5-64,52.5-85.4c7.2-5.3,9.1-12.4,5.4-20.5
			c-2.5-5.5-4.9-11-7.3-16.4c-1.4-3-1.7-3.8-2.7-5.9c-2.2-4.6-5.4-10.3-5.7-10.1c-0.4,0.2,2.1,7.8,6.4,16.1c1.2,2.4,5.3,10.1,7.2,18
			c0.3,1.3,0.8,3.8-0.5,5.5c-0.9,1.1-2.6,1.7-4.9,1.6c-3.8-0.2-7.7-0.8-11.1-2.3c-16.5-7.2-26-20.8-32.1-37.1
			c-1-2.8-1.5-5.8-2.2-8.7c-0.6-2.9,0.6-4.6,3.5-5.5c9.8-2.8,18.5-0.7,26,5.9c4.5,3.9,10,4.8,14.5,3c3.9-1.5,7.4-5.2,8-9.3
			c0.4-3.1-1-4.9-0.4-5.3c1.4-0.9,9.1,6.5,14.7,16.3c5.7,9.9,8.5,20.8,7.2,21.4c-0.1,0.1-1-0.7-2.9-2.3c-1-0.9-1.4-1.2-2.1-1.7
			c-1-0.7-1.9-1.2-2.5-1.4c3.1,3.9,7.6,9,14,14c6.2,4.9,12.9,8.6,16.7,10.3c-12.5,1.8-24.9,6-37.3,12.7c-22,12-37.7,31.2-47.7,54.3
			c-12.1,28.1-14.3,57.6-10.5,87.8c6.5,52.3,29.7,95.1,71.5,127.7c1.1,0.9,2.2,1.9,4,3.5C515,560.2,512.7,556.7,510.2,554.9
			L510.2,554.9z M504.9,497c1.6-1.7,3.2-3.4,5.1-5.4c2.1,3.3,4,6.2,5.9,9.3C511.6,501.4,511.4,491,504.9,497L504.9,497z
			 M560.9,465.6c-2.3,1.1-6.1,0.4-8.6-0.8c-5.4-2.6-7-7.8-7-13.4c0-1.5,1.3-3.5,2.5-4.3c1.1-0.7,3-0.1,3.4-0.1
			c-0.3,4.6-1.7,8.5-0.5,11.4c0.9,2.3,4.7,4.3,7.5,4.7c1.3,0.2,3.2-3.8,4.8-5.9C564.1,460.2,564.2,464,560.9,465.6L560.9,465.6z
			 M542.1,391.2c1.3,3.4,3.6,6.4,5.6,9.9c-5.9,0-9.5-2.8-11.4-8.2c-2.2-6.3-0.9-12.8,3-15.6c3.6-2.5,6.8-1.3,9.2,1.6
			c2,2.4,3.1,5.4,4.9,8.5c-2.4,0.6-5.4-1.6-8.9-6.6C541.2,383.8,540.7,387.6,542.1,391.2L542.1,391.2z M538.4,403.9
			c2.4,0.5,4.8,1,7.7,1.6c-0.5,4.4-1,8.5-1.5,12.9c-3.5,1-6,0.8-6-4c0-1.5-1.1-3.2-2.2-4.2c-0.8-0.7-2.5-0.5-3.8-0.6
			c0.3,1.3,0.6,2.6,1,3.9c0.4,1.2,1.1,2.4,1.2,3.6c0.1,2.3-0.4,4.6-0.2,6.9c0.7,9.6,3.9,12.2,13.9,11.2c-1.2,4.6-3.7,6.5-7.5,5.1
			c-2.3-0.8-4.8-2-6.2-3.8c-5.8-7.3-8.4-15.9-7.2-25.1C528.4,404.7,531.9,402.7,538.4,403.9L538.4,403.9z M570.3,460.2
			c1.7,4.8,3.2,9.2,5,14.2C569.3,470.9,567,463.7,570.3,460.2z M583.3,471.7c-2.4-1.9-4-3.2-5.6-4.5
			C582.1,465.2,583.9,466.3,583.3,471.7z M578.4,438c-10.9,0-19.6-10.2-19.5-22.8c0-10.2,7.3-18.4,16.4-18.5
			c11.7-0.1,21.7,10.7,21.7,23.5C597,430.7,589.4,438,578.4,438L578.4,438z M595.6,401.7c-4.8-6-11.4-8.7-18.6-9.6
			c-14.4-1.7-25.9,11-24.9,27c0.8,12.9,6.7,23.1,15.9,32.3c-1-0.4-2.1-0.5-3-1.1c-11.2-8.5-23.2-31.5-13.4-49.7
			c4.4-8.1,10.3-12.6,19.8-12.6c15.2,0,26.8,8,32.1,23.5C600.5,407.7,598,404.7,595.6,401.7z M581.7,371.6c-1.4-2-3.2-3.8-5-5.5
			c-1.8-1.7-3.9-3.3-5.1,1.6c-2.1-4.9-3.7-8.8-5.8-13.6c-2.5,7.7-5.1,14.2-6.5,20.8c-0.6,3.1,1.1,6.6,1.8,9.8c-4.2-0.8-7.5-4-7-8.9
			c0.4-4.2,1.8-8.4,3.3-12.3c1.4-3.7,3.7-7.1,5.4-10.6c1.4-2.9,3-4,5.5-1.2c5.4,5.9,10.9,11.7,16.1,17.8c2.8,3.3,4.5,7.2,3.6,12.9
			C585.6,378.1,583.8,374.7,581.7,371.6L581.7,371.6z M583.1,382.1c-4,1.2-6.6,1.9-9.4,2.7c-0.2-3.4-0.4-5.6-0.6-8.4
			c-3.6,1.6-2.6,8.9-7.9,4.6c-3-2.4-2.8-5.8-0.8-8.5c2.7-3.8,5.1-0.5,6.7,0.7c2.3-0.8,4.6-2,4.9-1.6
			C578.4,374.8,580.5,378.2,583.1,382.1L583.1,382.1z M605.7,394.8c-0.3,1.5-1.7,2.8-2.6,4.1c-0.5-0.2-1-0.4-1.5-0.6
			c1.2-6.5,1.2-12.6-4.4-16.9c-0.6,0.1-1.2,0.2-1.8,0.4c0.6,2.7,1.1,5.4,1.9,9.1c-2.3-1.1-5.8-1.8-6.2-3.3c-0.6-2.6,0.3-5.8,1.4-8.5
			c0.3-0.6,3.8-0.7,5.3,0C602.4,381.1,606.7,389.9,605.7,394.8L605.7,394.8z M622.2,423.9c-0.5-7-4.1-11.8-9.9-15.3
			c-0.8,1.3-1.5,2.4-2.2,3.6c-0.5-0.3-1-0.4-1.1-0.5c-0.3-2.2-0.6-4.4-0.9-6.7c2.3,0.5,5,0.5,6.8,1.8
			C620.5,410.8,622.5,416.9,622.2,423.9L622.2,423.9z M633.1,391.7c-0.8-1.4-1.5-2.8-2.3-4.2c-6.9-13.7-16.4-25.5-28.4-35.1
			c-35-28-81.3-13.2-93.8,29.8c-12.3,42.3,6.2,91.2,43.9,115.9c1.5,1,3,2,4.5,2.9c-0.1,0.5-0.3,1.1-0.4,1.6
			c-2.6-0.6-5.5-0.6-7.7-1.8c-13.9-7.9-25-18.9-32.9-32.8c-16.9-29.5-22.8-60.7-11.2-93.6c10.4-29.6,35.3-45.4,65-41.4
			c14.6,2,27.2,8.7,38.2,18.3c10.9,9.6,19.2,21.2,25,34.5c0.7,1.7,0.8,3.6,1.2,5.4C633.9,391.4,633.5,391.6,633.1,391.7L633.1,391.7
			z M638.5,378.7c-1.1-1.5-2.4-2.9-3.4-4.5c-8.6-14.5-19.8-26.8-33.6-36.5c-39.8-27.9-87.4-12.9-103.7,33c-7.7,21.6-7.9,43.7-2.8,66
			c5.8,25.6,17.6,47.6,37.6,65.1c1,0.9,1.2,2.6,1.8,3.9c-1.5-0.2-3.2-0.1-4.3-0.8c-14.1-9.4-23-23.1-30.1-37.9
			c-9.3-19.6-14.4-40.5-13.8-62.4c0.8-26.3,7.4-50.3,27.2-69.2c6.7-6.4,14.5-10.7,23.2-13.2c23.7-6.8,45.7-4,65.7,11.5
			c14.8,11.5,26.2,26,36.3,41.6c0.5,0.8,0.8,1.7,1.2,2.6C639.3,378.1,638.9,378.4,638.5,378.7L638.5,378.7z M489,489.2
			c-1.9-3.1-3.7-6-5.5-8.8c12-7.8,10.1-6.5,12.9,3.3c-1.5-1.8-3-3.6-4.5-5.4C484,479.9,493.2,485.9,489,489.2L489,489.2z M485.4,491
			c-2.5,1.1-5.4-1.8-8.5-8.6c1.3-0.6,2.3-1.1,3.2-1.6C481.9,484.4,483.7,487.7,485.4,491z M500.2,485.9c-4.7,6.6-13.4,11.1-16.1,9.1
			C489.4,492,494.8,489,500.2,485.9z M497.6,474.1c-1.4-3.4-3.3-4.1-6.6-2.3c-4.5,2.5-9.3,4.4-13.9,6.8c-2.6,1.4-4,1-4.5-2.9
			c7.8-3.2,15.8-6.5,23.8-9.9c2.9,6.7,5.4,12.6,7.9,18.5c-0.7,0.3-1.3,0.5-2,0.8C500.8,481.5,499.1,477.8,497.6,474.1L497.6,474.1z
			 M480.9,402.8c0.1-2.3,0.3-4.6,0.4-6.9c0.8,0.1,1.6,0.1,2.4,0.2c-0.2,4.4-0.4,8.9-0.9,13.3c-0.1,0.7-2.4,1.6-3.6,1.5
			c-6.9-0.4-13.9-1-20.7-1.6v-19c7,1.9,13.4,3.7,19.7,5.4c-0.5,3.9-0.9,7.6-1.3,11.4C480.8,407.4,480.7,407.4,480.9,402.8
			L480.9,402.8z M458.5,387.6c-1-0.3-1.5-2.3-2.3-3.5c0.4-0.3,0.8-0.6,1.1-0.9c8.5,2.1,17,4.1,24.5,5.9c1.5-6.9,2.7-13,4-19.1
			c0.8,0.2,1.6,0.3,2.5,0.5c-1.5,7.5-2.9,15.1-4.5,23.2C475.5,391.8,467,389.9,458.5,387.6L458.5,387.6z M466.2,379L466.2,379
			c0,0.1,0.1,0,0.1,0C466.3,378.9,466.2,378.9,466.2,379c0.8-4.5,1.6-9,2.5-14.2c5.1,2,9.5,3.7,14.3,5.6c-1.3,4.5-2.6,8.9-4.1,13.9
			c-6.5-1.4-13-2.7-19.8-4.1c1.5-7,3.1-14.5,4.9-22.7c9,3.6,17.3,7,26.6,10.7c-5.9,1.5-13.3-0.9-24-7.2c-1,5.4-2.1,10.5-2.9,15.6
			C463.7,377.1,465.3,378.1,466.2,379L466.2,379z M572,313.6c-1.2-8-2.2-16-3.5-25.6c9.2,3.7,18.1,7,26.7,10.8
			c1.4,0.6,2.5,3.5,2.5,5.3c0.3,7.1,0.1,14.3,0.1,21.3c-8.5-3.1-16-5.7-23.5-8.6C573.3,316.3,572.2,314.8,572,313.6L572,313.6z
			 M630.1,354.2c1.9,2.7,3.9,5.4,5.6,8.2c1.8,3.1,3.7,3.2,6.3,1c2.4-2,4.9-3.8,7.4-5.7l1,1c-3.7,3.1-7.3,6.2-11.4,9.7
			c-4.6-6-8.9-11.5-13.2-17.3c3.8-3.3,7.5-6.5,11.3-9.8c0.3,1.4,0.7,3.3,0.8,3.9c-1.9,0.5-4,0.5-5.1,1.5
			C630.6,348.6,627.5,350.5,630.1,354.2L630.1,354.2z M634.5,334.3c-3.8,4.9-7.2,9.1-10.5,13.3c-0.5,0-0.9,0-1.3,0
			c-0.1-1.2-0.6-2.7-0.1-3.4c3.1-4.5,6.5-8.8,10.1-13.4c10.9,9.2,16.3,16.3,17.3,23C644.9,347.4,639.9,341.1,634.5,334.3
			L634.5,334.3z M630.5,327.3c-3.6,5.5-7.4,10.8-11.2,16.2c-0.5-0.3-1.1-0.6-1.6-1c3.4-5.3,6.8-10.6,10.5-16.6
			c-8.8-6.8-17.4-13.4-26-20c-0.7,0.4-1.3,0.7-2,1.1c5.4,7.5,0.4,14.4,0.8,21.6c-0.4,0-0.9,0-1.3,0v-29.3
			c10.5,8.6,20.6,16.9,30.6,25.3C630.9,325,630.9,326.7,630.5,327.3L630.5,327.3z M611.6,325.1c-0.2,0.3-0.4,0.6-0.7,0.9
			c-1.3-0.4-2.6-0.8-4.7-1.4c0.7,7.7,7.1,9.3,12,13.6c-1.4,0.5-2.7,1.4-3.4,1c-10.7-5.1-12.6-9.6-8.8-19.5
			C607.8,321.6,609.7,323.3,611.6,325.1L611.6,325.1z M606,316c0.1-0.6,0.3-1.7,0.8-3.8c5.7,5,10.8,9.2,15.6,13.8
			c0.9,0.8,0.6,2.8-0.3,4.5c-2.6-2.2-5.3-4.4-7.7-6.8c-0.8-0.9-0.3-3.1-1.2-3.7C611.1,318.3,608.7,317.4,606,316L606,316z
			 M647.3,368.3c-1.8,1.3-3.7,2.6-5.8,4c-0.3-1.1,2.6-3.8,8.8-8.3c0.4,0.3,0.8,0.6,1.1,0.9C650.1,366,648.7,367.2,647.3,368.3
			L647.3,368.3z M668.2,378.8c-0.8-2-1.5-4-2.3-6c-13.1-30.8-32.4-56.5-61.1-74.5c-36.2-22.7-82.9-18.7-114.5,10
			c-3.7,3.3-6.9,7.1-11.2,11.7c7,6.1,14,12.3,21.2,18.5c-3.9-4.5-7.8-8.9-11.8-13.5c3.9-3.8,7.7-7.3,11.6-11.1
			c3.2,4.1,6.1,7.8,9.7,12.3c0.1-4.9-3.7-9.8-11.5-16.4c-3.9,4.2-7.8,8.4-13.1,14c0-2.7-0.7-4.9,0.1-5.6c4.7-4.9,9.6-9.5,14.8-14.5
			c5,6.6,9.5,12.5,14.4,18.9c-4.8,4.2-9.4,8.4-14.1,12.4c0,0.4,0,0.7,0,1.1c1.4-0.3,3.1-0.2,4-1c3.5-2.9,6.5-6.2,10-9
			c1-0.8,3-0.5,4.5-0.7c-4.1-6.2-8.1-12.6-12.5-18.6c-2.4-3.2-1.5-4.9,1.5-6.6c16.9-9.5,35.1-13.1,54.3-12.2c1,0,2.7,1.1,2.9,2
			c1.8,8.4,3.4,16.8,5.2,25.8h-23.5c-2.5-6.6-5-13.3-7.7-20.6c3.6-0.7,6.8-1.1,10-1.9c1-0.3,1.9-1.2,2.8-2
			c-4.9,0.4-9.9,0.8-15.8,1.3c3.1,8.5,5.9,16,8.6,23.4c-8.6,3.4-17,6.7-25.3,10c-5.1,4.9-10.3,9.8-16.1,15.3
			c0.2,0.1,0.3,0.3,0.5,0.4c-5.4,7.4-9.6,13.3-13.8,19.1c-0.2-0.1-0.4-0.1-0.7-0.2c0.2,0.1,0.4,0.2,0.6,0.3l0.1-0.1
			c0.3,1.2,0.7,2.4,1,3.6c-1.3-0.1-2.9,0.2-4-0.3c-8.1-3.5-16-7.2-24.6-11.1c-7.2,19-8,38.8-7.2,59.3c9.4,0.6,18.3,1.2,26.9,1.8
			c3.3,15.1,6.9,31.4,10.7,48.9c-6.2,2.7-13.5,6-21.4,9.5c-2.7-7.2-5.3-14-7.8-20.7c0.4-0.4,0.8-0.9,1.2-1.3c1,0.8,2.4,1.4,2.8,2.4
			c2,4.7,3.6,9.6,5.6,15c4.9-2,9.5-3.5,13.8-5.6c1-0.5,2.1-2.7,1.9-3.8c-1-4.8-2.6-9.6-4-14.5c-8.2,1.8-16.1,3.5-24.7,5.4
			c4.9,18.5,13.1,36.1,23.7,53.4c8-5.3,15.9-10.6,23.8-15.8l1,1.2c-4.7,3.7-9.2,7.6-14,11.1c-10.5,7.7-10.5,7.6-2.3,17.9
			c2.8,3.4,5.5,6.9,8.3,10.3c-0.4,0.3-0.7,0.7-1,1c-1.8-1.7-3.7-3.3-5.3-5.2c-28.3-33.5-43.7-71.9-44.3-116.1
			c-0.3-20.9,1.7-41.4,9.8-60.8c13.6-32.9,35.9-56.7,71.8-64.9c32.3-7.4,61.2,0.8,86.5,21.4c22.3,18.2,39.6,40.4,49.3,67.9
			C668.2,373.2,668.5,375.8,668.2,378.8L668.2,378.8z M479.1,461.8c-1,0.3-2.7,0.8-4.7,1.4c-1.4-4.3-2.7-8.2-4.2-12.7
			c4.1-1.1,7.7-2.1,12-3.3c0.6,2.3,1.1,4.3,1.5,5.8H476C477,455.8,477.9,458.5,479.1,461.8L479.1,461.8z M500.2,516
			c-0.3,0.3-0.6,0.6-0.9,0.9c-2.4-2.5-5.4-4.7-6.8-7.7c-0.5-1,2.9-3.9,4.5-5.9c0.3,0.4,0.7,0.7,1,1.1
			C496.5,506.9,497.2,510.8,500.2,516z"/>
		<path d="M503.4,341.2c-1-0.9-2.1-1.8-3.1-2.7c0.9,1,1.8,2.1,2.7,3.1C503.1,341.4,503.3,341.3,503.4,341.2L503.4,341.2z"/>
		<path d="M256.3,428.3c-0.3-0.5-0.6-1.1-0.9-1.6c-0.1,0.8-0.1,1.5-0.1,2.2C255.6,428.7,256,428.5,256.3,428.3L256.3,428.3z"/>
		<path d="M552.2,291.2c0,0-0.1,0.1-0.2,0.1c0.1,0,0.1,0,0.2,0L552.2,291.2L552.2,291.2z"/>
		<path d="M290.5,172.6c6.4,1.8,8.6,1.1,16.3,2.2c4.8,0.7,6.8,1.4,7.4,0.4c0.7-1-1-2.6-3-6.3c-1.7-3-3-6.7-5.6-14
			c-1.3-3.8-2.3-6.9-4-7c-0.4,0-0.8,0.2-1.1,0.4c-1.1,1.1-0.4,3.9,4.1,13.1c3.3,6.6,4.5,8.4,3.6,9.7c-0.6,0.9-1.8,1.1-8.3,0.8
			c-8-0.4-13.3-1.2-13.4-0.8C286.5,171.4,288.7,172.1,290.5,172.6L290.5,172.6z"/>
		<path d="M193.2,214.8c7.3-6.2,8.9-14.4,8.1-17.2c-0.1-0.2-0.1-0.4-0.3-0.4c-1.3-0.5-4.2,7.3-10.6,14.9c-4.3,5-7.8,7.1-7.4,7.7
			C183.4,220.5,188.7,218.6,193.2,214.8L193.2,214.8z"/>
		<path d="M257.7,236.8c3.1,0.4,6.3-2.6,6-4.3c-0.3-1.4-3-2-4.6-2.1c-2.2-0.1-5.4,0.9-5.6,2.6C253.2,234.7,255.5,236.6,257.7,236.8z
			"/>
		<path d="M390.5,231.3c1.9-0.1,3.9-1.4,4.4-3.1c0.1-0.4,0.4-1.6-0.2-2.6c-0.3-0.4-0.6-0.6-2.6-1.3c-1.7-0.6-2.6-0.9-2.9-1
			c-1-0.1-2.8-0.3-3.7,0.8c-1.1,1.3-0.1,3.5,0,3.8C386.2,229.7,388.1,231.5,390.5,231.3L390.5,231.3z"/>
		<path d="M407.2,172.4c-1.7-1.6-3.5-3.1-5.4-4.8c2.3-1.8,4.2-3.3,6.1-4.8c-0.2-0.3-0.3-0.5-0.5-0.8c-3.2,0.9-6.5,1.8-9.8,2.7
			c-0.1,0.5-0.3,1.1-0.5,1.6l9.2,7C406.7,173,407,172.7,407.2,172.4L407.2,172.4z"/>
		<path d="M283.5,315.8c1.2-0.4,1.5-1.1,3-2.5c6.7-6.7,16.6-7,18.5-7c3.4,0,6.9,0.6,10.6,2c4.4,1.8,6.6,4.6,5.2,9.8
			c-1,3.7-1.1,7.6-2.3,11.2c-0.5,1.6-2.6,3.5-4.2,3.7c-5.3,0.8-10.6,1.1-15.9,1.1c-6.4,0.1-9.5-0.8-11.2-2.3
			c-4.2-3.6-3.1-10-4.7-10.1c-1.4-0.1-3.4,4.8-2.7,9c0.3,2,1.2,3.5,1.4,3.8c2.9,4.7,7.1,4.6,11.9,3.6c18.7-4.1,37.4-4,56,0.6
			c3.4,0.9,14.1-0.7,17.2-7.2c2-4.2,0.3-9.6-0.9-9.7c-1.2-0.1-1.1,5.1-5.3,8.9c-2.5,2.2-5.3,2.8-9,3.6c-1.2,0.2-6.2,1.2-13.9,0.2
			c-7.6-1-11.4-1.5-13.7-4.4c-4-5.1-1-12.9-0.4-14.6c0.7-1.9,2.1-5.6,5.8-7.9c1.7-1,4.5-2.2,9.6-1.7c14.3,1.3,19.1,12.8,27.6,10.7
			c4.9-1.2,8.2-4.8,8.2-4.8c0.5-0.6,1.5-1.6,2.1-2.9c2.6-5.6-1-15.1-5.8-16.2c-4.1-0.9-5.3,5.2-13.7,9c-9,4.1-18.9,1.4-26.3-1.6
			c-2.7-1.1-5.6-3.6-6.8-6.2c-3.2-7,1.4-17.9,8.7-21.9c9.8-5.3,23.5,2.2,24.2,0.3c0.3-0.8-2.1-2.6-4.6-3.7c-1.7-0.7-5.3-1-19.8-0.7
			c-5.4,0.1-6.7-0.6-6.4-6c0.3-5.2,0-10.8,4.1-13.5c-3.4-0.2-7.4-0.4-10.8-0.5c6.3,4.2,6.1,4.2,4,12.7c-1.1,4.3-3.5,5.8-7.7,6.2
			c0,0-6,0.5-18.2,2.8c-3.6,0.7-10.1,2-10.3,4.2c0,0.3,0.1,0.9,0.5,1.2c1,0.7,3.1-0.7,3.9-1.1c2.9-1.8,6.2-2.2,11.4-2.9
			c7.1-0.9,15.7,2.6,19.1,8.3c0.7,1.1,0.8,2.9,0.6,4.3c-1.4,8.5-3.5,16.2-15.6,17.8c-1.8,0.2-3.5,1-5.2,1.6
			c-5.1,1.7-10.1,2.1-15-0.4c-1.2-0.6-4.7-2.3-6.8-5.8c-2.1-3.5-1.1-5.9-2.3-6.3c-2-0.7-8.3,5.9-7.7,13
			C270.4,310.9,278.9,317.2,283.5,315.8L283.5,315.8z"/>
		<path d="M391.7,292.2c2.9,1.1,5.6,0.2,7-0.3c4.1-1.4,6.4-4.5,7.1-5.6c2.6-3.7,3.8-8.8,2.8-9.4c-1.6-0.9-6,9.9-14.6,10.7
			c-3.3,0.3-6-1-6.5,0C387,288.7,389.2,291.2,391.7,292.2L391.7,292.2z"/>
		<path d="M317.5,339.1c-1.6,0.1-1.7,0.3-4.6,0.5c-2.7,0.2-3.9-0.1-4.5,0.8c-0.3,0.4-0.5,1.2-0.3,1.8c0.8,2.4,7.3,1.2,8.2,3.6
			c0.5,1.3-1,2.8-0.5,3.2c0.5,0.4,2.4-1,2.7-1.2c0.5-0.4,1.3-1,2-2.1c0.9-1.4,1.6-3.5,1.1-5C321.4,339.9,318.9,339,317.5,339.1
			L317.5,339.1z"/>
		<path d="M458.2,440.2c0.4,3.3,2.1,4,5.1,3.6c6-0.7,11.9-1.2,17.9-1.9c1.4-0.2,2.7-0.9,4-1.4c-0.1-0.5-0.2-1.1-0.4-1.7
			c-7.9,0.6-15.9,1.3-24.3,1.9c-0.8-7.3-1.5-14.1-2.2-21c0.6-0.2,1.3-0.4,2-0.5c5,4.5,0.7,12.8,6.3,18.6c-0.7-6.2-1.2-11.2-1.9-17.7
			c5.1,0.6,9.7,0.1,13.1,1.9c1.6,0.9,1,6,1.4,9.2c-0.5,0.1-1,0.1-1.6,0.2c-0.5-1.1-1.1-2.3-1.5-3.5c-1.3-3.4-4.5-3.6-6.6-2.2
			c-1.4,0.9-1.5,4.1-1.6,6.4c-0.2,2.6,1.2,3.9,4,3.7c3.4-0.2,6.7,0,10.8,0c-0.7-5.5-1.1-10.6-2.1-15.5c-0.3-1.3-2.3-3.1-3.6-3.2
			c-6.9-0.3-13.9-0.1-21.9-0.1C456.1,424.9,457.3,432.6,458.2,440.2L458.2,440.2z"/>
		<path d="M478.5,328.1c5.2,5.5,9.7,10.4,14.1,15.1c-2.5,4.5-4.9,8.8-7.3,13.1l2.1,1.2c3.1-4.5,6.2-9,10-14.4
			c-7-6.3-13.7-12.4-20.9-19c-4.2,7.7-8.7,15.8-13.2,24c1.1,0.9,1.5,1.3,1.9,1.5c5.7,2.8,11.3,5.6,17,8.3c2.3,1,4.7,1.7,7.1,2.5
			c-7.2-4.2-14.3-8.5-22-13C471.3,340.8,474.9,334.4,478.5,328.1L478.5,328.1z"/>
		<path d="M478.4,334.9c-2.1,4.1-4.2,8-6.3,11.9c0.4,0.2,0.8,0.4,1.2,0.6c2.2-2.8,4.3-5.7,6.9-9c1,1.7,2.8,3.6,2.4,4.2
			c-1.5,2.3-3.6,4.2-5.4,6.2c1.2,0.8,3,2,5.1,3.4C489.4,345.4,489.1,343.6,478.4,334.9L478.4,334.9z"/>
		<path d="M538.1,314.7c0.7-0.3,1.8-1.5,1.7-2c-1.6-6.9-4.2-13.3-8.6-18.8c-0.3,0.2-0.7,0.5-1,0.7c2.3,5.6,4.6,11.2,7,17.1
			c-4.2,1.6-7.7,3.1-11.3,4.1c-1.3,0.4-3.8-0.2-4.2-1c-0.6-1.4,0.1-3.3,0.4-5.9c2.5,2.1,3.7,3.1,5.9,5.1c-1.1-3.5-1.7-5.4-2.5-8.3
			c-3.1,1.8-6,3.5-9.2,5.4c-0.9-1.5-1.7-3-2.9-5c3.9-1.8,7.2-3.7,10.8-5c3.3-1.2,3.5-0.2,3.8,3.2c0.2,2.4,2,4.8,3.1,7.1
			c0.5-0.2,1-0.5,1.5-0.7c-1.2-3.9-2.3-7.8-3.9-11.6c-0.4-0.9-2.6-1.9-3.6-1.5c-5.3,1.8-10.4,4-16.3,6.3c4.6,6.1,8.6,11.4,12.5,16.5
			C527.1,318.5,532.6,316.7,538.1,314.7L538.1,314.7z"/>
		<path d="M563.3,307.8c-8.1,2.7-12.3,2.4-13.1,0c2.8-1.4,6.3-2.1,8-4.2c0.9-1.1-0.9-6.6-2.1-6.9c-3.6-0.7-7.5,0.2-12,0.5
			c1.4,4.9,2.3,8.8,3.6,12.5c0.3,1,1.7,2.4,2.6,2.4c5.2,0,10.4-0.3,15.9-0.5c-0.2-2.1-0.2-3.2-0.5-4.4c-0.8-3.1-1.5-6.1-2.5-9.1
			c-2.5-8-2.5-8-10.9-6.8C561.7,293.2,561.7,300.9,563.3,307.8L563.3,307.8z M548.8,305.1c-0.7-1.9-1.3-3.6-1.9-5.4
			c7.1-2.2,7.8-1.8,7.6,4.1C552.8,304.2,551.1,304.6,548.8,305.1z"/>
		<path d="M552.3,291.2L552.3,291.2c0.1,0.1,0.1,0.1,0.2,0C552.4,291.2,552.3,291.2,552.3,291.2z"/>
		<path d="M501.8,320c-2.1,2.5-3.8,4.4-5.8,6.8c4.5,3.3,6-1.4,9.2-2.6C503.8,322.5,502.8,321.3,501.8,320L501.8,320z"/>
		<path d="M477.5,375c0-0.1-0.2-0.4-0.5-1c-0.7,1.2-1.3,2.2-1.9,3.2c0.8-5.6-0.2-8.5-2.9-8.7c2.8,4.8,1.9,7-3.1,8.6
			c-1,0.3-1.8,1.1-2.7,1.7c2.6,0.5,5.1,1.1,7.6,1.4C478.2,380.8,476.2,376.7,477.5,375L477.5,375z"/>
		<path d="M297.5,425.4c0.9-2.1,1.8-4.2,2.7-6.4c-3.9-1.7-8-3.3-12.3-4.9c-1.3-0.5-2.7-0.9-4-1.4c-1.6,2-3,3.6-4.7,5.7
			c2.4,1.8,6,3.9,10.8,5.4C292.8,424.8,295.4,425.2,297.5,425.4L297.5,425.4z M282.9,418.3c0.7-1,1.4-2.1,2-3.1
			c4.3,1.8,8.7,3.5,13,5.2c-0.4,1-0.9,1.9-1.3,2.9c-1.8-0.1-4.1-0.4-6.8-1.3C286.7,420.9,284.4,419.4,282.9,418.3z"/>
		<path d="M578.7,315c5.3,2,10.6,4.2,15.9,6.4c0-4.4,0.4-9.4-0.2-14.3c-0.3-2.5-1.7-5.9-3.6-6.9c-6.1-3-12.6-5-20-7.8
			c1.2,6.4,2.5,11.4,3.1,16.5C574.3,312.3,575.8,313.9,578.7,315L578.7,315z M573.6,297.9c0.4-0.6,0.9-1.2,1.3-1.9
			c4.5,2.1,9.3,3.7,13.4,6.3c5.4,3.4,0.8,9.4,3.4,14.3c-5.5-2.1-10.3-3.9-15.6-5.9v-6.9c4,2.9,8,5.7,12.3,8.8
			c2.7-5.6-0.5-7.7-4.1-9.4c-2.1-1-4.5-1.2-6.6-2.2C576.2,300.4,575,299,573.6,297.9L573.6,297.9z"/>
		<path d="M470.9,397.7c-1.3-0.1-2.7-0.4-3.8-1.1c-4.9-3.2-5-3.3-6.1,2.7c-0.3,1.8-0.4,3.5-0.6,5.9c4.8,0.8,9.3,1.5,13,2.1
			c-1-2-2-3.7-2.7-5.6c-0.1-0.4,1.1-1.2,1.6-1.9c0.7,1,1.3,2,2.1,3.2C475.5,399.6,474.5,397.9,470.9,397.7L470.9,397.7z
			 M465.2,398.4c0.6-0.2,1.3-0.5,1.9-0.7c0.6,2,1.3,4,2.1,6.5C462.6,404,464.7,400.9,465.2,398.4z"/>
		<path d="M382.1,394c-2.2,1-4.5,2-6.7,3c-0.5-0.5-1.1-1-1.6-1.4l7.5-3.6c-0.6-1.1-1.3-2.1-2-3.3c-3.7,2.1-7,3.9-11,6.2l7.1,8.7
			c2.9-1.7,5.8-3.4,8.7-5.1L382.1,394L382.1,394z"/>
	</g>
</g>
</svg>
