<?xml version="1.0" encoding="utf-8"?>
<!-- Generator: Adobe Illustrator 28.3.0, SVG Export Plug-In . SVG Version: 6.00 Build 0)  -->
<svg version="1.1" id="Layer_1" xmlns="http://www.w3.org/2000/svg" xmlns:xlink="http://www.w3.org/1999/xlink" x="0px" y="0px"
	 viewBox="0 0 730.2 860.4" style="enable-background:new 0 0 730.2 860.4;" xml:space="preserve">
<style type="text/css">
	.st0{fill:#FFFFFF;}
</style>
<g>
	<path class="st0" d="M730.1,535.5c-1.2-6.2-5.4-9.8-11.5-11.1c-8.5-1.8-16.7-0.1-23.2,5.1c-8.4,6.7-16.3,14.1-23.8,21.8
		c-10.2,10.6-14,23.2-9.5,37.7c1.6,5.2-0.3,9.4-4.2,13c-8.6,7.9-22.1,8-32.7,0.1c-6.1-4.5-6.8-6.8-4-13.9
		c7.9-20.1,10.1-40.3,0.9-60.7c-0.5-1-0.9-2.5-0.4-3.3c4.3-8.1,6-16.7,5.3-25.9c4.7,7.1,3.8,14.8,2.5,22.9c9.5-7.6,13.3-23.6,7-36
		c-3.7-7.3-0.7-12.8,0.3-19.1c0.6-0.2,1.1-0.4,1.7-0.5c3,7.1,6,14.3,9.3,22.2c3.4-5.7,7.2-10.6,9.4-16c5.8-14.3,6.7-27.9-4.2-41.2
		c-5.5-6.7-7.7-16.1-11.4-24.3c0.7-0.4,1.3-0.9,2-1.3c5.4,6,10.8,12,16.5,18.3c0.2-1.3,0.4-2,0.4-2.6c0.7-13.7-5.9-24.1-18.5-29.7
		c-3.8-1.7-7.3-3.8-10.9-5.8c0.2-0.5,0.5-1.1,0.8-1.6l11.7,1.9c-5.8-10.9-16.4-14.4-25.1-19.1c0.7-7.3,2.7-14.2,1.8-20.7
		c-1.1-7.7-4.5-15.2-7.3-22.5c-0.6-1.5-3.3-2.3-5-3.4c-0.8,1.7-1.7,3.3-2.2,5.1c-0.4,1.4,0,3-0.2,4.5c-0.5,6.2-4,10.5-9.9,12.4
		c-3,1-5.5,0.7-7.6-2c-6.3-8.4-15.6-11.9-24.7-16.1c-16.8-7.7-32.8-7.3-48.8,1.3c-2.1,1.1-4.6,1.6-7.4,2.5c-1.1-3.2-1.8-6-3-8.8
		c-0.7-1.6-1.9-3-2.8-4.4c-1.6,1.1-4,1.8-4.5,3.3c-2.5,6.2-4.6,12.7-6.4,19.1c-0.6,2.2-0.5,4.1-3.5,4.3c-11.4,0.7-20.6,5.4-28.3,14
		c-2.2,2.4-6.3,3.1-9.5,4.5c5-5.5,10.6-9.7,14.9-14.9c3.4-4.1,6.8-7.8,11.4-10.8c7.9-5.2,9.4-14.3,3.6-21.7
		c-2.4-3.1-6.1-5.2-8.7-7.2c2.2-6.1,4.5-12.6,6.4-18.1c9.2,0,18.3,0.5,27.4-0.2c5.1-0.4,9.3-0.1,13.8,2.4c8.8,4.8,18,8.6,28.2,9.4
		c7.5,0.5,12.8-2.2,16.6-8.6c1.5-2.5,3.6-4.9,6.1-6.3c15.2-8.5,24.6-21.2,28.7-37.9c1.7-7.2,2.8-14.6,4.2-22.4
		c1.4,3,2.8,5.6,3.8,8.3c4.1,11.6,12.8,21.5,10.2,35.5c-1.3,6.9,7,14,14.3,15c6.3,0.9,11.8-2.8,15-10.1c3.4-7.8,0.1-15.9-8.8-19.4
		c-5.7-2.2-8.9-6.1-11.1-11.3c-6.7-15.8-13.5-31.5-20-47.4c-0.9-2.2-0.2-5.4,0.7-7.8c1.9-4.9,5-9.4,6.7-14.4
		c2.3-6.5,2.4-12.6-3.1-18.4c-3.8-4-6-9.6-8.8-14.6c-0.3-0.5,0.1-1.3,0-1.9c-0.7-6.3-3.5-10.7-10-12.6c-1.5-0.4-3.1-1.8-3.9-3.2
		c-2.4-3.9-5.7-5-9.8-3.7c-3.6,1.1-7.2,2.5-11.9,4.1c-4.3-10-8.8-19.8-12.9-29.7c-2.6-6.4-3.3-12.5,3.1-18c1.7-1.4,2.1-6.4,0.9-8.6
		c-2.8-5.5-0.3-9.2,3.5-11.5c10.5-6.6,21.7-11.2,34.5-8.1c3.1,0.7,5.9,2.5,8.9,3.7c-2.5,3-4.3,6.9-7.5,8.6
		c-5.2,2.9-11.2,4.3-16.9,6.4c4.8,1.3,9.8,2.1,14.8,1.9c12.9-0.6,22-6.7,26.2-19.4c4.7-14.3,1.8-27.6-5.5-40.2
		c-0.2-0.3-0.8-0.3-0.8-0.3c-1,5.3-1.7,10.6-3.2,15.6c-1.8,6.1-7.7,7.9-13,4.5c2-4.8,4.5-9.3,5.9-14.2c2-6.9-1.4-11.3-8.5-12
		c-11.8-1.1-22.8,1.9-33.5,6.4c-4,1.7-7.7,4.1-11.5,6.2c10.9-1.5,21.4-2.6,32.3,0.5c-0.4,6.7-3.6,11.2-8.3,14.7
		c-10,7.2-19.8,14.9-33.5,14.2c-3.5-4.9-4.4-5-9.7-1c-1.7,1.3-3.8,2.1-5.7,3c-6.5,3-13.1,5.8-19.4,9.2c-2.4,1.3-4.1,4-6.3,6.2
		c7.3,4.9,9,11.3,9.4,18.4c-3.1-4.9-6.2-9.9-9.2-14.6c-3.1,4-7.1,7.2-8.2,11.2c-1,3.8-3,4.7-5.7,5.8c-31.8,12.5-63.6,25-95.4,37.4
		c-1.6,0.6-3.2,1.2-6.1,2.2c2.1-9.6,0.6-17-6.5-20.7c2.9-3.9,5.9-6.8,7.5-10.3c1.9-4.1,0.7-8-4-10.1c7.9-5.3,10.7-10.8,9.4-17.6
		c-0.7-3.5-2.3-5.5-6.2-4.3c-4.6,1.3-7-0.9-7.7-5.2c-0.3-1.8,0-3.8-0.8-5.3c-1.4-2.6-3.3-5.1-5.2-7.4c-1.4-1.7-3.6-2.7-4.6-4.5
		c-5.4-9.6-11.9-13.1-22.7-11.4c-6.3,1-12.5,2.5-18.7,3.7c-0.5,0.1-1.1,0.4-1.3,0.7c-2.1,3.6-5.2,2.6-8.4,2.2
		c-8.1-1.1-15.2,1.3-20.9,7.2c-4.8,5.1-9.3,10.4-14.2,15.4c-2,2.1-4.5,4.3-7.2,5.1c-5.3,1.4-6.6,5-8.1,9.6
		c-1.7,5.2-4.1,10.5-7.5,14.8c-3.9,4.8-4.9,9.3-1,14.2c1.4,1.8,2.9,3.4,4.4,5.2c-12.4,7.1-13.4,9.3-8.7,19.7
		c-8.8,6.9-10.3,15.6-5.9,25.7c1.2,2.7,0.4,4.5-2.1,5.7c-2.2,1.1-4.5,2.2-6.8,3.1c-15.4,5.9-30.5,12.6-46.2,17.6
		c-18.5,6-45.9,15.5-82.2,28.4c-2.4-3.3-8.7-11-14.8-10c-1.4,0.2-4.7,1.4-8.2,2.7c-1.7,0.6-3.3,1.5-5.1,2.1c-1.4,0.5-3.2,0.2-4.2,1
		c-4.1,3.1-10.3,3.4-12.2,9.3c-0.2,0.6-1.3,0.9-2.1,1.3c-8.7,3.6-10.2,6.2-8.5,15.5c0.6,3.1-0.2,4.6-3.1,5.6
		c-5.2,1.7-10.5,3.3-15.6,5.4c-1.8,0.7-3.9,2.6-4.2,4.2c-0.3,1.6,1.2,3.9,2.6,5.4c2.7,2.8,6.1,2.9,9.7,1.4c4.1-1.8,8.2-3.3,12.2-4.9
		c1.2,9.8,1.9,19.1,3.7,28.1c0.9,4.7,2.8,10,6,13.2c6.7,6.6,10.6,14.4,13.6,22.9c1.8,5,3.8,10,6.3,14.7c7.7,15.1,19,26.4,35.4,32
		c2.2,0.8,4.6,2.3,5.9,4.2c3.2,4.4,7.4,6,12.4,6.1c8.8,0.3,16-3.7,23.3-7.9c5.7-3.2,11.8-6.9,18.1-7.9c13.4-2.1,27.1-3,40.2-11.6
		c-3.3,5.4-3.4,9.5,0.2,12.6c3.1,2.6,6.8,4.5,10.4,6.8c-0.5,1.5-1.3,3.2-1.7,5c-3.2,11.5,2.8,20.6,14.6,22.5
		c1.5,0.2,3.1,0.1,4.4,0.6c1.1,0.4,2.7,1.7,2.6,2.4c-1.1,7.1,1.1,15.3-6.7,20.3c-3.6,2.3-5.4,5.7-5.1,10.2c0.1,1.3-0.9,3.2-1.9,4
		c-3.9,2.6-4,5.9-3.3,10c0.5,3,0.4,6.6-0.8,9.3c-2.4,5.7-4.3,11.1-2.4,17.4c0.5,1.6-0.2,3.5-0.4,6.3c-8.6-8.4-17.7-13.3-29.3-12.5
		c1.7-4.8,0.5-8.3-2.9-10.8c-2.4-1.8-5.2-3-7.9-4.1c-4.4-1.7-11.1-6.3-14.2-9.7c-1.9-2.1-3.9-4.3-6.3-5.6
		c-6.7-3.7-13.7-6.9-20.6-10.4c-1.1-1.6-0.9-4.5-1.4-7.2c-1.3-6.5-2.8-12.9-4.7-19.2c-0.5-1.7-2.9-2.8-4.5-4.1
		c-1.2,1.5-2.9,2.8-3.6,4.5c-5.1,11.7-14.4,15.3-25.8,9.8c-14.1-6.8-27.9-5.7-40.9,2.4c-2.8,1.8-4.2,5.9-6.3,8.9
		c-0.8,1.1-1.6,2.7-2.6,2.9c-7.9,1.4-9.1,0.4-10.6-7.6c-0.3-1.5-0.4-3-0.8-4.4c-1-3.7-3.9-4.7-6.7-2c-1.7,1.7-3.5,3.9-3.9,6.2
		c-1.1,5.8-2.5,12-1.7,17.7c1,6.7-0.5,10.5-6.5,13.6c-5,2.5-5.5,7.4-2.1,11.7c4,5,4.3,5.6-0.9,9.3c-4.1,2.9-8.9,4.9-13.7,6.7
		c-6.5,2.4-13,8.4-11.5,12.7c2,5.7,0.3,10.8-0.1,16.1c-0.7,9,5.4,21.3,12.5,24.6c2.8-5,5.5-10,8.6-15.6c1.8,1.4,3.6,2.9,5.5,4.5
		c1-0.5,2.3-1.3,3.2-1.8c4.9,7.3-0.8,12.7-2,19.7c-1.3-1.2-1.7-1.7-2.2-2.1c-1.4-1.1-2.9-2.1-4.4-3.2c-0.9,1.9-2.4,3.7-2.6,5.6
		c-0.3,3.1,0.9,6.4,0.4,9.4c-1.7,9.8,3.6,14.8,11.6,18.5c11,5,22.6,1,28-9.8c1.1-2.2,1.9-4.8,3.6-6.5c1.1-1.2,3.4-1.7,5.2-1.8
		c1,0,2.6,1.4,3,2.5c1.7,4.6,3,9.3,4.5,14.2c-12.5,10.1-16.2,20.3-10.1,27c3.6-3.2,6.2-8,13-8.7c-5.8,9.2-8.3,18.2-7.6,28
		c0.8,10.1,6.1,17.5,13.5,24.4c0.3-3.8,0.5-6.9,0.8-10.1c0.5,0,1,0,1.6,0c1.7,11.3,4.1,22.3,12.8,31.2c-2.5,1.7-4.3,3.5-6.6,4.4
		c-6.4,2.6-13,5.1-19.6,7.3c-9.5,3.2-19.5,5.8-25.2,14.9c-5.9,9.4-13.1,17-23.1,22.2c-5.2,2.7-8.1,7.2-8.4,13.3
		c-0.1,1.8-1.1,3.8-2.4,5.2c-4.9,5-5.1,12.5-0.5,17.8c1.1,1.2,1.8,3,2,4.6c0.6,5.8,3.5,7.7,8.7,5.3c1.2-0.5,2.3-1,2.3-1
		c2.4,2.5,3.9,5.5,6.1,6.3c5.1,1.9,9.3-0.8,12.1-4.3c2.6,0.8,4.9,2.3,7,2.1c6.1-0.7,13-9.9,11.8-15.8c-0.8-3.8,0.5-5.6,3.4-7.1
		c6.4-3.4,10.9-8.7,13.7-15.3c0.4-0.9,0.9-2.1,1.6-2.4c4.7-1.9,9.4-3.6,14.7-5.7c-1.7,19.1-5.9,36.9-15.4,52.8
		c-8.8,14.7-19.5,25.9-39.7,20.4c-7.6-2-14.9,2.1-18.9,10c-1.2,2.4-3.2,4.7-5.5,6.1c-6.4,3.9-7.3,10-7.4,16.5
		c-0.1,3.6,2.1,4.7,5.4,3c2.1-1.1,4.2-2.2,6.4-3.3c-0.2,0.5-0.4,0.9-0.6,1.4c2.1,1.9,4.8,5.9,6.3,5.5c6.1-1.8,11.1-0.4,16.4,2.5
		c1.7,0.9,4.3,0.9,6.4,0.5c4.8-1,9.5-2.5,14.7-4c10.7,8.2,27.9,4.5,34.7-8c2-3.7,3.1-7.9,5.6-11.1c2-2.7,5.5-6,8.3-5.9
		c7.1,0.1,11.9-2.5,13.1-9.9c0.5-3.1,0.8-6.4,0.3-9.5c-1.2-7.8,1.9-13.6,7.6-18.4c2-1.7,4-3.6,5.8-5.5
		c11.6-11.8,21.6-24.6,24.5-41.5c0.5-2.6,1.7-3.7,4.4-3.4c3.6,0.4,7.3,0.6,11,0.7c4.5,0.1,9,0.1,13.5,0c11-0.2,18.4-5.7,23-15.6
		c1.1-2.3,2.5-5.5,4.4-6.2c6.9-2.2,14.1-3.4,21.2-5c0.1,0.3,0.2,0.5,0.2,0.6c-0.8,1.8-1.5,3.7-2.3,5.5c-5.6,13-7.2,26.4-2.4,39.9
		c2.9,8.1,6.2,16.2,10.3,23.8c8.5,15.9,12.4,33,14.6,50.6c0.3,2.1-0.1,4.9-1.3,6.5c-3.1,4.2-3.9,8.5-2.8,13.6
		c0.5,2.3,0.1,5.8-1.4,7.3c-8.6,8.5-17.5,16.8-26.6,24.8c-4.1,3.6-6.7,7.8-7.2,13.2c-0.5,5.2,1.7,7.8,6.8,8.6
		c5.5,1,10.9,2.3,16.3,3.1c8.3,1.2,16.6,2.3,24.9,2.9c2.8,0.2,6.5-0.6,8.4-2.3c5.6-5,12-7.4,19.3-8.4c1.6-0.2,3.1-1.1,4.6-1.9
		c3.5-2,4.6-4.9,3.8-8.9c-2-9.5-3.8-19.1-5.7-28.7c-0.1-0.6-0.2-1.3-0.1-2c1-5.7,2-11.4,2.9-17c3.7,0.2,8.6-0.7,12.1,1.1
		c6.6,3.2,13,3.3,19.9,2.3c2.1-0.3,4.3,0,6.4,0.4c10.8,2.3,18-2,19.6-12.7c0.8-5,3.3-7.9,7-10.8c3.3-2.6,7.2-5.7,8.4-9.4
		c4.5-14,10.6-26.9,20.6-37.8c0.2-0.2,0.4-0.6,0.5-0.8c6.7-11.1,3.6-19.8-8.5-24.3c-9.2-3.4-13-8.9-10.1-18.2
		c2.9-9.2,7.7-17.8,11.1-25.4c9.6,2.6,18,4.8,26.8,7.2c0,1.3,0,3.1,0,4.9c0.2,11.4,5,20.8,14,27.5c4.9,3.6,6.3,7.5,6.6,13.3
		c0.5,11.4-1.3,20.8-10.2,29.7c-13.8,13.7-6,32,10.5,38.4c12.5,4.9,19.2,13,21.6,25.6c0.1,0.7,0.4,1.3,0.4,2
		c0.6,6.4,3.9,11.9,5.6,14.8c6.3,10.5,21.5,13.2,23.9,13.6c2.5,0.4,10.7,1.9,19.7-1c4.4-1.4,6-2.9,11.3-3.8c3.8-0.6,6.1-0.7,9.7-2.1
		c5.7-2.3,7.2-7.8,4.2-13.2c-1-1.8-1.3-3.5-1.5-3.9c-3.8-8-24-20.7-34.5-37.2c-5-7.9-4.5-13.2-12.4-22.7c-6.8-8.2-3.2-15.7-1.8-24.5
		c0.9,1.3,1.2,1.9,1.6,2.4c3.4,6,4.9,6.1,9,0.7c2.5-3.3,4.5-6.9,6.9-10.7c4.3,2.9,7.9,0.9,11.1-1.6c2.1-1.6,3.9-3.7,5.5-5.8
		c6.4-8.4,5.8-18,4.6-27.8c-0.9-7.3-0.3-14.6,5.4-20c2.2-2.1,5.2-3.2,8.2-5c0.4,2,0.8,3.8,1.1,5.5c2.9,17.2,11.3,31.1,24.4,42.4
		c4,3.5,8.4,6.7,12.1,10.4c11.4,11.3,19.2,24.1,16.5,41.3c-0.6,3.8-0.2,8.1,0.7,11.8c1.8,7.1,6.6,9.5,14.5,7.2
		c2.1,4.4,4.7,8.8,6.4,13.6c3.2,9.1,8.9,15.1,18.6,16.8c3.6,0.6,7.2,1.1,10.9,1.6c7,0.9,13.8,0.7,17.7-6.3
		c9.6,4.3,18.3,3.9,26.5-2.6c1-0.8,2.9-1.7,3.9-1.4c3.9,1.4,6.1,0.2,6.7-3.8c2.2,1,4,1.7,6.7,2.9c0.1-6.2,1.9-12.2-2.7-16
		c-4.8-3.9-7.4-8.8-10.1-14c-3-5.9-5.9-7.2-12.5-6.8c-5.9,0.3-11.8,0.2-17.7,0.2c-1,0-2.2-0.6-3.1-1.3c-6-4.9-11.2-10.5-14.2-17.8
		c-1.8-4.3-3.5-8.7-5.8-12.7c-8.6-14.5-12.2-30.1-11.3-46.9c0.3-7,0.1-14-0.4-21c-0.8-12.6-7.2-23.1-13.4-33.6
		c-3.2-5.5-4.4-11.2-2.6-18c1.9,1.5,3.3,2.5,4.7,3.6c10.5,8.6,22.5,12.4,36.2,11.7c25.8-1.4,54.1-26.6,46.3-59.8
		c-0.5-2.3-1-4.6-1.4-6.9c-1.3-7.9,1.5-14.5,6.9-20c5.8-5.8,12.3-5.4,17.6,0.7c0.8,0.9,1.5,2.2,2.4,2.4c1.8,0.4,4,0.7,5.6,0
		C730.2,539.5,730.5,536.9,730.1,535.5L730.1,535.5z"/>
	<g>
		<g>
			<path d="M730.1,535.5c-1.2-6.2-5.4-9.8-11.5-11.1c-8.5-1.8-16.7-0.1-23.2,5.1c-8.4,6.7-16.3,14.1-23.8,21.8
				c-10.2,10.6-14,23.2-9.5,37.7c1.6,5.2-0.3,9.4-4.2,13c-8.6,7.9-22.1,8-32.7,0.1c-6.1-4.5-6.8-6.8-4-13.9
				c7.9-20.1,10.1-40.3,0.9-60.7c-0.5-1-0.9-2.5-0.4-3.3c4.3-8.1,6-16.7,5.3-25.9c4.7,7.1,3.8,14.8,2.5,22.9c9.5-7.6,13.3-23.6,7-36
				c-3.7-7.3-0.7-12.8,0.3-19.1c0.6-0.2,1.1-0.4,1.7-0.5c3,7.1,6,14.3,9.3,22.2c3.4-5.7,7.2-10.6,9.4-16c5.8-14.3,6.7-27.9-4.2-41.2
				c-5.5-6.7-7.7-16.1-11.4-24.3c0.7-0.4,1.3-0.9,2-1.3c5.4,6,10.8,12,16.5,18.3c0.2-1.3,0.4-2,0.4-2.6c0.7-13.7-5.9-24.1-18.5-29.7
				c-3.8-1.7-7.3-3.8-10.9-5.8c0.2-0.5,0.5-1.1,0.8-1.6l11.7,1.9c-5.8-10.9-16.4-14.4-25.1-19.1c0.7-7.3,2.7-14.2,1.8-20.7
				c-1.1-7.7-4.5-15.2-7.3-22.5c-0.6-1.5-3.3-2.3-5-3.4c-0.8,1.7-1.7,3.3-2.2,5.1c-0.4,1.4,0,3-0.2,4.5c-0.5,6.2-4,10.5-9.9,12.4
				c-3,1-5.5,0.7-7.6-2c-6.3-8.4-15.6-11.9-24.7-16.1c-16.8-7.7-32.8-7.3-48.8,1.3c-2.1,1.1-4.6,1.6-7.4,2.5c-1.1-3.2-1.8-6-3-8.8
				c-0.7-1.6-1.9-3-2.8-4.4c-1.6,1.1-4,1.8-4.5,3.3c-2.5,6.2-4.6,12.7-6.4,19.1c-0.6,2.2-0.5,4.1-3.5,4.3
				c-11.4,0.7-20.6,5.4-28.3,14c-2.2,2.4-6.3,3.1-9.5,4.5c5-5.5,10.6-9.7,14.9-14.9c3.4-4.1,6.8-7.8,11.4-10.8
				c7.9-5.2,9.4-14.3,3.6-21.7c-2.4-3.1-6.1-5.2-8.7-7.2c2.2-6.1,4.5-12.6,6.4-18.1c9.2,0,18.3,0.5,27.4-0.2
				c5.1-0.4,9.3-0.1,13.8,2.4c8.8,4.8,18,8.6,28.2,9.4c7.5,0.5,12.8-2.2,16.6-8.6c1.5-2.5,3.6-4.9,6.1-6.3
				c15.2-8.5,24.6-21.2,28.7-37.9c1.7-7.2,2.8-14.6,4.2-22.4c1.4,3,2.8,5.6,3.8,8.3c4.1,11.6,12.8,21.5,10.2,35.5
				c-1.3,6.9,7,14,14.3,15c6.3,0.9,11.8-2.8,15-10.1c3.4-7.8,0.1-15.9-8.8-19.4c-5.7-2.2-8.9-6.1-11.1-11.3
				c-6.7-15.8-13.5-31.5-20-47.4c-0.9-2.2-0.2-5.4,0.7-7.8c1.9-4.9,5-9.4,6.7-14.4c2.3-6.5,2.4-12.6-3.1-18.4c-3.8-4-6-9.6-8.8-14.6
				c-0.3-0.5,0.1-1.3,0-1.9c-0.7-6.3-3.5-10.7-10-12.6c-1.5-0.4-3.1-1.8-3.9-3.2c-2.4-3.9-5.7-5-9.8-3.7c-3.6,1.1-7.2,2.5-11.9,4.1
				c-4.3-10-8.8-19.8-12.9-29.7c-2.6-6.4-3.3-12.5,3.1-18c1.7-1.4,2.1-6.4,0.9-8.6c-2.8-5.5-0.3-9.2,3.5-11.5
				c10.5-6.6,21.7-11.2,34.5-8.1c3.1,0.7,5.9,2.5,8.9,3.7c-2.5,3-4.3,6.9-7.5,8.6c-5.2,2.9-11.2,4.3-16.9,6.4
				c4.8,1.3,9.8,2.1,14.8,1.9c12.9-0.6,22-6.7,26.2-19.4c4.7-14.3,1.8-27.6-5.5-40.2c-0.2-0.3-0.8-0.3-0.8-0.3
				c-1,5.3-1.7,10.6-3.2,15.6c-1.8,6.1-7.7,7.9-13,4.5c2-4.8,4.5-9.3,5.9-14.2c2-6.9-1.4-11.3-8.5-12c-11.8-1.1-22.8,1.9-33.5,6.4
				c-4,1.7-7.7,4.1-11.5,6.2c10.9-1.5,21.4-2.6,32.3,0.5c-0.4,6.7-3.6,11.2-8.3,14.7c-10,7.2-19.8,14.9-33.5,14.2
				c-3.5-4.9-4.4-5-9.7-1c-1.7,1.3-3.8,2.1-5.7,3c-6.5,3-13.1,5.8-19.4,9.2c-2.4,1.3-4.1,4-6.3,6.2c7.3,4.9,9,11.3,9.4,18.4
				c-3.1-4.9-6.2-9.9-9.2-14.6c-3.1,4-7.1,7.2-8.2,11.2c-1,3.8-3,4.7-5.7,5.8c-31.8,12.5-63.6,25-95.4,37.4
				c-1.6,0.6-3.2,1.2-6.1,2.2c2.1-9.6,0.6-17-6.5-20.7c2.9-3.9,5.9-6.8,7.5-10.3c1.9-4.1,0.7-8-4-10.1c7.9-5.3,10.7-10.8,9.4-17.6
				c-0.7-3.5-2.3-5.5-6.2-4.3c-4.6,1.3-7-0.9-7.7-5.2c-0.3-1.8,0-3.8-0.8-5.3c-1.4-2.6-3.3-5.1-5.2-7.4c-1.4-1.7-3.6-2.7-4.6-4.5
				c-5.4-9.6-11.9-13.1-22.7-11.4c-6.3,1-12.5,2.5-18.7,3.7c-0.5,0.1-1.1,0.4-1.3,0.7c-2.1,3.6-5.2,2.6-8.4,2.2
				c-8.1-1.1-15.2,1.3-20.9,7.2c-4.8,5.1-9.3,10.4-14.2,15.4c-2,2.1-4.5,4.3-7.2,5.1c-5.3,1.4-6.6,5-8.1,9.6
				c-1.7,5.2-4.1,10.5-7.5,14.8c-3.9,4.8-4.9,9.3-1,14.2c1.4,1.8,2.9,3.4,4.4,5.2c-12.4,7.1-13.4,9.3-8.7,19.7
				c-8.8,6.9-10.3,15.6-5.9,25.7c1.2,2.7,0.4,4.5-2.1,5.7c-2.2,1.1-4.5,2.2-6.8,3.1c-15.4,5.9-30.5,12.6-46.2,17.6
				c-18.5,6-45.9,15.5-82.2,28.4c-2.4-3.3-8.7-11-14.8-10c-1.4,0.2-4.7,1.4-8.2,2.7c-1.7,0.6-3.3,1.5-5.1,2.1
				c-1.4,0.5-3.2,0.2-4.2,1c-4.1,3.1-10.3,3.4-12.2,9.3c-0.2,0.6-1.3,0.9-2.1,1.3c-8.7,3.6-10.2,6.2-8.5,15.5
				c0.6,3.1-0.2,4.6-3.1,5.6c-5.2,1.7-10.5,3.3-15.6,5.4c-1.8,0.7-3.9,2.6-4.2,4.2c-0.3,1.6,1.2,3.9,2.6,5.4
				c2.7,2.8,6.1,2.9,9.7,1.4c4.1-1.8,8.2-3.3,12.2-4.9c1.2,9.8,1.9,19.1,3.7,28.1c0.9,4.7,2.8,10,6,13.2
				c6.7,6.6,10.6,14.4,13.6,22.9c1.8,5,3.8,10,6.3,14.7c7.7,15.1,19,26.4,35.4,32c2.2,0.8,4.6,2.3,5.9,4.2c3.2,4.4,7.4,6,12.4,6.1
				c8.8,0.3,16-3.7,23.3-7.9c5.7-3.2,11.8-6.9,18.1-7.9c13.4-2.1,27.1-3,40.2-11.6c-3.3,5.4-3.4,9.5,0.2,12.6
				c3.1,2.6,6.8,4.5,10.4,6.8c-0.5,1.5-1.3,3.2-1.7,5c-3.2,11.5,2.8,20.6,14.6,22.5c1.5,0.2,3.1,0.1,4.4,0.6
				c1.1,0.4,2.7,1.7,2.6,2.4c-1.1,7.1,1.1,15.3-6.7,20.3c-3.6,2.3-5.4,5.7-5.1,10.2c0.1,1.3-0.9,3.2-1.9,4c-3.9,2.6-4,5.9-3.3,10
				c0.5,3,0.4,6.6-0.8,9.3c-2.4,5.7-4.3,11.1-2.4,17.4c0.5,1.6-0.2,3.5-0.4,6.3c-8.6-8.4-17.7-13.3-29.3-12.5
				c1.7-4.8,0.5-8.3-2.9-10.8c-2.4-1.8-5.2-3-7.9-4.1c-4.4-1.7-11.1-6.3-14.2-9.7c-1.9-2.1-3.9-4.3-6.3-5.6
				c-6.7-3.7-13.7-6.9-20.6-10.4c-1.1-1.6-0.9-4.5-1.4-7.2c-1.3-6.5-2.8-12.9-4.7-19.2c-0.5-1.7-2.9-2.8-4.5-4.1
				c-1.2,1.5-2.9,2.8-3.6,4.5c-5.1,11.7-14.4,15.3-25.8,9.8c-14.1-6.8-27.9-5.7-40.9,2.4c-2.8,1.8-4.2,5.9-6.3,8.9
				c-0.8,1.1-1.6,2.7-2.6,2.9c-7.9,1.4-9.1,0.4-10.6-7.6c-0.3-1.5-0.4-3-0.8-4.4c-1-3.7-3.9-4.7-6.7-2c-1.7,1.7-3.5,3.9-3.9,6.2
				c-1.1,5.8-2.5,12-1.7,17.7c1,6.7-0.5,10.5-6.5,13.6c-5,2.5-5.5,7.4-2.1,11.7c4,5,4.3,5.6-0.9,9.3c-4.1,2.9-8.9,4.9-13.7,6.7
				c-6.5,2.4-13,8.4-11.5,12.7c2,5.7,0.3,10.8-0.1,16.1c-0.7,9,5.4,21.3,12.5,24.6c2.8-5,5.5-10,8.6-15.6c1.8,1.4,3.6,2.9,5.5,4.5
				c1-0.5,2.3-1.3,3.2-1.8c4.9,7.3-0.8,12.7-2,19.7c-1.3-1.2-1.7-1.7-2.2-2.1c-1.4-1.1-2.9-2.1-4.4-3.2c-0.9,1.9-2.4,3.7-2.6,5.6
				c-0.3,3.1,0.9,6.4,0.4,9.4c-1.7,9.8,3.6,14.8,11.6,18.5c11,5,22.6,1,28-9.8c1.1-2.2,1.9-4.8,3.6-6.5c1.1-1.2,3.4-1.7,5.2-1.8
				c1,0,2.6,1.4,3,2.5c1.7,4.6,3,9.3,4.5,14.2c-12.5,10.1-16.2,20.3-10.1,27c3.6-3.2,6.2-8,13-8.7c-5.8,9.2-8.3,18.2-7.6,28
				c0.8,10.1,6.1,17.5,13.5,24.4c0.3-3.8,0.5-6.9,0.8-10.1c0.5,0,1,0,1.6,0c1.7,11.3,4.1,22.3,12.8,31.2c-2.5,1.7-4.3,3.5-6.6,4.4
				c-6.4,2.6-13,5.1-19.6,7.3c-9.5,3.2-19.5,5.8-25.2,14.9c-5.9,9.4-13.1,17-23.1,22.2c-5.2,2.7-8.1,7.2-8.4,13.3
				c-0.1,1.8-1.1,3.8-2.4,5.2c-4.9,5-5.1,12.5-0.5,17.8c1.1,1.2,1.8,3,2,4.6c0.6,5.8,3.5,7.7,8.7,5.3c1.2-0.5,2.3-1,2.3-1
				c2.4,2.5,3.9,5.5,6.1,6.3c5.1,1.9,9.3-0.8,12.1-4.3c2.6,0.8,4.9,2.3,7,2.1c6.1-0.7,13-9.9,11.8-15.8c-0.8-3.8,0.5-5.6,3.4-7.1
				c6.4-3.4,10.9-8.7,13.7-15.3c0.4-0.9,0.9-2.1,1.6-2.4c4.7-1.9,9.4-3.6,14.7-5.7c-1.7,19.1-5.9,36.9-15.4,52.8
				c-8.8,14.7-19.5,25.9-39.7,20.4c-7.6-2-14.9,2.1-18.9,10c-1.2,2.4-3.2,4.7-5.5,6.1c-6.4,3.9-7.3,10-7.4,16.5
				c-0.1,3.6,2.1,4.7,5.4,3c2.1-1.1,4.2-2.2,6.4-3.3c-0.2,0.5-0.4,0.9-0.6,1.4c2.1,1.9,4.8,5.9,6.3,5.5c6.1-1.8,11.1-0.4,16.4,2.5
				c1.7,0.9,4.3,0.9,6.4,0.5c4.8-1,9.5-2.5,14.7-4c10.7,8.2,27.9,4.5,34.7-8c2-3.7,3.1-7.9,5.6-11.1c2-2.7,5.5-6,8.3-5.9
				c7.1,0.1,11.9-2.5,13.1-9.9c0.5-3.1,0.8-6.4,0.3-9.5c-1.2-7.8,1.9-13.6,7.6-18.4c2-1.7,4-3.6,5.8-5.5
				c11.6-11.8,21.6-24.6,24.5-41.5c0.5-2.6,1.7-3.7,4.4-3.4c3.6,0.4,7.3,0.6,11,0.7c4.5,0.1,9,0.1,13.5,0c11-0.2,18.4-5.7,23-15.6
				c1.1-2.3,2.5-5.5,4.4-6.2c6.9-2.2,14.1-3.4,21.2-5c0.1,0.3,0.2,0.5,0.2,0.6c-0.8,1.8-1.5,3.7-2.3,5.5c-5.6,13-7.2,26.4-2.4,39.9
				c2.9,8.1,6.2,16.2,10.3,23.8c8.5,15.9,12.4,33,14.6,50.6c0.3,2.1-0.1,4.9-1.3,6.5c-3.1,4.2-3.9,8.5-2.8,13.6
				c0.5,2.3,0.1,5.8-1.4,7.3c-8.6,8.5-17.5,16.8-26.6,24.8c-4.1,3.6-6.7,7.8-7.2,13.2c-0.5,5.2,1.7,7.8,6.8,8.6
				c5.5,1,10.9,2.3,16.3,3.1c8.3,1.2,16.6,2.3,24.9,2.9c2.8,0.2,6.5-0.6,8.4-2.3c5.6-5,12-7.4,19.3-8.4c1.6-0.2,3.1-1.1,4.6-1.9
				c3.5-2,4.6-4.9,3.8-8.9c-2-9.5-3.8-19.1-5.7-28.7c-0.1-0.6-0.2-1.3-0.1-2c1-5.7,2-11.4,2.9-17c3.7,0.2,8.6-0.7,12.1,1.1
				c6.6,3.2,13,3.3,19.9,2.3c2.1-0.3,4.3,0,6.4,0.4c10.8,2.3,18-2,19.6-12.7c0.8-5,3.3-7.9,7-10.8c3.3-2.6,7.2-5.7,8.4-9.4
				c4.5-14,10.6-26.9,20.6-37.8c0.2-0.2,0.4-0.6,0.5-0.8c6.7-11.1,3.6-19.8-8.5-24.3c-9.2-3.4-13-8.9-10.1-18.2
				c2.9-9.2,7.7-17.8,11.1-25.4c9.6,2.6,18,4.8,26.8,7.2c0,1.3,0,3.1,0,4.9c0.2,11.4,5,20.8,14,27.5c4.9,3.6,6.3,7.5,6.6,13.3
				c0.5,11.4-1.3,20.8-10.2,29.7c-13.8,13.7-6,32,10.5,38.4c12.5,4.9,19.2,13,21.6,25.6c0.1,0.7,0.4,1.3,0.4,2
				c0.6,6.4,3.9,11.9,5.6,14.8c6.3,10.5,21.5,13.2,23.9,13.6c2.5,0.4,10.7,1.9,19.7-1c4.4-1.4,6-2.9,11.3-3.8
				c3.8-0.6,6.1-0.7,9.7-2.1c5.7-2.3,7.2-7.8,4.2-13.2c-1-1.8-1.3-3.5-1.5-3.9c-3.8-8-24-20.7-34.5-37.2c-5-7.9-4.5-13.2-12.4-22.7
				c-6.8-8.2-3.2-15.7-1.8-24.5c0.9,1.3,1.2,1.9,1.6,2.4c3.4,6,4.9,6.1,9,0.7c2.5-3.3,4.5-6.9,6.9-10.7c4.3,2.9,7.9,0.9,11.1-1.6
				c2.1-1.6,3.9-3.7,5.5-5.8c6.4-8.4,5.8-18,4.6-27.8c-0.9-7.3-0.3-14.6,5.4-20c2.2-2.1,5.2-3.2,8.2-5c0.4,2,0.8,3.8,1.1,5.5
				c2.9,17.2,11.3,31.1,24.4,42.4c4,3.5,8.4,6.7,12.1,10.4c11.4,11.3,19.2,24.1,16.5,41.3c-0.6,3.8-0.2,8.1,0.7,11.8
				c1.8,7.1,6.6,9.5,14.5,7.2c2.1,4.4,4.7,8.8,6.4,13.6c3.2,9.1,8.9,15.1,18.6,16.8c3.6,0.6,7.2,1.1,10.9,1.6
				c7,0.9,13.8,0.7,17.7-6.3c9.6,4.3,18.3,3.9,26.5-2.6c1-0.8,2.9-1.7,3.9-1.4c3.9,1.4,6.1,0.2,6.7-3.8c2.2,1,4,1.7,6.7,2.9
				c0.1-6.2,1.9-12.2-2.7-16c-4.8-3.9-7.4-8.8-10.1-14c-3-5.9-5.9-7.2-12.5-6.8c-5.9,0.3-11.8,0.2-17.7,0.2c-1,0-2.2-0.6-3.1-1.3
				c-6-4.9-11.2-10.5-14.2-17.8c-1.8-4.3-3.5-8.7-5.8-12.7c-8.6-14.5-12.2-30.1-11.3-46.9c0.3-7,0.1-14-0.4-21
				c-0.8-12.6-7.2-23.1-13.4-33.6c-3.2-5.5-4.4-11.2-2.6-18c1.9,1.5,3.3,2.5,4.7,3.6c10.5,8.6,22.5,12.4,36.2,11.7
				c25.8-1.4,54.1-26.6,46.3-59.8c-0.5-2.3-1-4.6-1.4-6.9c-1.3-7.9,1.5-14.5,6.9-20c5.8-5.8,12.3-5.4,17.6,0.7
				c0.8,0.9,1.5,2.2,2.4,2.4c1.8,0.4,4,0.7,5.6,0C730.2,539.5,730.5,536.9,730.1,535.5L730.1,535.5z M627.4,259.4
				c10.1,2.2,12.7,8.2,7,14.8c-1.1,1.3-3.7,2.5-5,2.1c-1.6-0.5-3.7-2.9-3.7-4.4C625.7,267.8,626.8,263.7,627.4,259.4L627.4,259.4z
				 M191.2,499.6c-4.5,0.2-8.4,0.7-9.5-4.8c-1,0.6-1.8,1.5-2.6,1.5c-4.7-0.4-11.7-6.8-11.8-11.5c-0.2-15.4-7.9-25.7-21.1-32.4
				c-0.9-0.4-1.6-1.1-3-2.1c5.6-3.1,10.7-2.9,15.5-0.4c10,5.2,14.1,14.6,16.8,24.8c0.5,1.9,0.7,3.9,1,5.9c0.5,3.7,2.1,6.3,5.9,7.8
				C187.2,490.1,190.6,493.6,191.2,499.6L191.2,499.6z M166.9,518.9c-0.6,8.7-4.3,14.9-10.9,19.5c4.1-7.7,3.9-15.1,0.7-23.1
				c-1.7-4.5,3-7,6.2-9c1.2-0.7,4.6,0.6,6.1,2c7.8,7.7,7.2,17.8-1.6,24.9C167.4,528.4,171.2,524,166.9,518.9L166.9,518.9z
				 M164.6,429.8c-4.6-2.1-8.7-4.1-12.9-6C156.3,421.5,160.2,423.3,164.6,429.8z M155.5,434c9.6,2,19.2,4.3,26.1,12.3
				c3.7,4.3,5.4,9.2,5.6,15c-4-5.2-7.8-10-11.5-14.9c-0.4,0.4-0.9,0.7-1.3,1.1c4.9,7.4,10.9,14.6,5.7,25c-0.6-1.1-1.1-1.6-1.3-2.3
				c-3.9-14.7-15.1-24.4-30.3-26.5c-2.4-0.3-4.6-1.6-7.1-2.5C146.4,432.6,146.8,432.2,155.5,434L155.5,434z M141.9,400.3
				c3.6,7.5,1.1,24.7-5.4,32.5c-3.5,4.3-10.1,6.5-15.9,4.7C138.2,430.6,138,414.3,141.9,400.3L141.9,400.3z M43.7,398.9
				c-0.4,4.8,4.2,8.7,3.4,13.6c-0.8,0.1-1.6,0.3-2.3,0.4c-0.8-4.6-1.6-9.1-2.4-13.7C42.8,399.2,43.2,399.1,43.7,398.9L43.7,398.9z
				 M20.2,469.9c-4.8-0.9-7.9-4.8-8.5-7.3c-0.1-0.4-0.1-0.7,0-0.9c0.6-1.5,4.4-0.7,10.3-0.5c6.9,0.3,10.1-0.4,10.7,1.1
				c0.3,0.9-0.4,1.9-1.1,2.8C29.6,467.7,25.3,470.8,20.2,469.9L20.2,469.9z M29.7,478.5c2.3-3.2,4.8-5.9,6.5-9
				c3.1-5.7,1.1-9.4-5.4-10c-3.6-0.4-7.3,0.1-11,0.2c-1,0-2-0.1-2.9-0.2c-0.2-0.5-0.3-1-0.5-1.5c7.3-3,15-5.2,21.8-9.1
				c5.4-3,10.2-3,15.5-1.2c1.7,0.6,3.3,1.8,4.9,2.6c-0.2,0.5-0.4,1-0.6,1.4c-3.3,0.2-6.5,0.5-9.8,0.7c0,0.1-0.1,0.3-0.1,0.4
				c6.7,1.2,13.4,2.4,20.1,3.6l0,1.9c-3.6,0.7-7.1,1.5-10.7,2.2c12-0.8,23.4-0.3,31.7,11.5c-5.5-1.1-10.3-2.2-15.1-2.9
				c-5.7-0.9-10.4,1.1-14.3,5.4c-2.6,2.8-5.4,5.5-8.4,7.8c-3.8,3-8.2,4.7-13,3.4c-1.2-0.3-2.3-2-2.8-3.4c-0.2-0.5,1.8-1.7,3.8-3.4
				C36,478.8,33,478.7,29.7,478.5L29.7,478.5z M41,527.3c-3.3-0.8-6.8-1.1-10.2-0.9c-8.8,0.4-10.3-1.2-9.1-10.7
				c0.6,0.7,1,1.1,1.2,1.6c1.4,2.4,2.7,6.8,4.3,6.9c3.7,0.2,7.6-1.4,11.3-2.6c1.5-0.5,2.6-1.7,4.2-2.8c0.5,1.5,0.8,2.3,1.2,3.4
				c2-3.6,3-4.2,3.4-4.1c0.5,0.2,0.4,1.2,1.4,1.8c0.5,0.3,1.1,0.3,1.5,0.3c-1-3.6-1.9-6.5-2.5-8.4c-1.2-3.6-1.7-4.9-1.2-6.6
				c0.8-2.6,3.5-4,5-4.6c1.6,1.6,2.3,3.1,2.7,4.2c0.8,2.2,0.5,4,2.1,5.3c0.3,0.3,0.8,0.7,1.5,0.8c2.3,0.3,4.2-3.7,5.9-6.1
				c1.9-2.6,5.3-5.8,12.2-8c0.1,0.1,0.2,0.2,0.3,0.3c-2.5,2.3-5.2,4.5-7.4,7c-5.5,6.2-11,12.3-16,18.9C49,527.8,46.9,528.7,41,527.3
				L41,527.3z M88.8,489.7c-2.4,4.5-5.7,8.6-9.2,12.2c-5,5.1-10.9,9.3-15.8,14.5c-3,3.1-5.3,7.2-7.1,11.2c-2.5,5.6-6.3,3.3-9.2,2.9
				c11.2-11,22.7-22.2,34.1-33.6c4-4,4.5-9.2,3.7-14.5c-0.8-5.2-6.5-8.9-12.7-7.5c-3.7,0.9-7.2,3.2-10.6,5.2c-4.2,2.6-8,6-12.5,8.2
				c-3,1.5-6.8,1.7-10.2,2.5c0-0.5-0.1-1-0.1-1.5c8.2-1.1,14.4-5.8,20.2-11.1c8.4-7.6,16.6-8,25.7-1.4
				C90,480.4,91.6,484.5,88.8,489.7L88.8,489.7z M97.8,475.6c-3-1.5-5.8-3.3-8.6-4.9c0.1-0.5,0.2-1.1,0.4-1.6
				c3.4-1.5,7.1-2.6,10.3-4.5c1.8-1.1,4.3-4.1,3.9-5.2c-1.2-3.1-4.5-4.1-7.6-2.5c-8.1,4.2-16.3,4.1-24.2,1.3
				c4.1-4.6,8.1-9.8,12.8-14.3c2.4-2.3,5.2-3.2,8.8-3.8c5.7-1,10.6,0.8,12.2-1.6c0.1-0.1,0.5-0.8,0.4-1.7c-0.2-1.7-2.2-2.8-6.1-4.5
				c-9.3-4.2-11.2-4.4-12.3-3.5c-0.1,0.1-0.5,0.4-0.6,0.9c-0.1,1.4,2.4,3.1,4.8,3.9c1.4,0.4,2.5,0.5,2.7,1.2
				c0.1,0.4-0.1,0.9-0.4,1.2c-1.3,1.1-4-1.8-8.3-2.3c-2.6-0.3-4.7,0.4-5.6,0.8c-2.8,1.4-5.2,3.6-7.9,5.3c-2.6,1.6-4.9,3.5-8.4,1
				c-1.4-1-4.4,0.5-6.7,0.7c-1.8,0.2-4.7,0.7-5.1-0.1c-1.1-1.8-2-4.9-1.1-6.4c1.8-3.2,4.5-6.1,7.4-8.4c3.9-3.1,8.3-5.5,12.3-8.4
				c-11.7,2.5-20.3,8.6-25.5,19.7c-3,6.4-5.7,6.2-9.3,0.3c-1.8,0.3-3.6,1.1-5,0.7c-1-0.3-2.2-2.7-1.8-3.6c0.6-1.4,2.2-2.6,3.6-3.5
				c3-2,6.2-3.6,9.2-5.5c8.3-5.1,16.5-10.4,24.7-15.6c1.1-0.7,2.9-1.6,2.9-2.4c0-10.7,8.6-11.5,15.7-14.1c0.9-0.3,2-0.2,3-0.3
				c0.2,0,0.5,0.3,0.6,0.4c-2.6,2.3-5.2,4.6-7.8,7l0.6,1.4c9.1-4.3,18.3-7,28.1-2c-5.2,4.3-12.8,6.7-10.7,15.9
				c1.2-1.6,2.1-3.7,3.6-4.8c4.7-3.6,9.2-7.9,14.6-10c9.2-3.4,16.9-7.7,20.4-17.6c0.5,0.2,1,0.3,1.4,0.5c-0.4,2.8-0.3,5.8-1.3,8.3
				c-3.1,7.4-9.5,11.3-16.5,14.4c-3.2,1.4-6.3,3-9.5,4.5c-6.7,3.2-8,9-7.4,15.5c0.5,5.9,3.1,10.4,9.2,12.4c5.4,1.7,10.8,3.3,16,5.6
				c13.6,6.1,25.9,13.8,32.1,28.3c1.8,4.1,2.8,8.5-0.4,13.6c-2.2-6.3-7.3-18.7-16-20.5c-1.8-0.4-6-0.7-6.1-0.4
				c-0.1,0.2,2,0.7,3.7,1.4c0,0,4.8,2,8.8,7.5c7.7,10.7,4,27.7-8.4,34.1c1-2.5,1.8-4.5,2.6-6.4c5.2-13,1.4-23.2-11.1-29.5
				c-1.6-0.8-3.3-1.6-4.9-2.5c-2.3-1.4-2-3-0.2-4.7c-2.9-1.3-5.8-2.5-8.7-3.9c-1.3-0.6-2.6-1.5-3.8-2.2c4.3,7.5,8.3,15,14.6,21.4
				c6.2,6.2,6.1,14.9,0.8,22.6c-0.9,1.3-2.1,2.3-3.6,4c0.1-11.6-1.7-18.8-5.6-21.5c0.7,0.6,3.7,3.5,4,8.2c0.3,4.1-1.5,7-2.1,7.9
				c-5.7-5.7-11.5-11.5-17.2-17.2c2.6-3.3,9.9-2.4,8.4-9.6C110.1,479.2,103.9,478.5,97.8,475.6L97.8,475.6z M120.8,607.4
				c-9.1-7.9-7.8-22.2,2.9-30.2C119.8,587.3,117.6,596.9,120.8,607.4z M120.6,542.4c2.2-7.3,1.2-13.6-2.4-19.6
				c-0.8-1.4-0.7-3.3-1-4.9c1.8,0.3,3.9,0.2,5.4,1C131.2,524.2,130.2,537.2,120.6,542.4L120.6,542.4z M176.7,629.9
				c-4.1,3.9-9.1,7.6-14.4,9.4c-13.2,4.6-26.8,8-40.2,11.9c-1.5,0.4-3.1,0.9-3.2,0.9h35.8c-5.2,1.4-9.9,2.9-14.6,4
				c-15.1,3.2-30.3,6.4-45.5,9.3c-2.1,0.4-4.4-0.7-6.6-0.8c-2.5-0.1-5.1-0.1-7.6,0.2c-3.4,0.4-6.8,1.5-10.2,1.8
				c-3.5,0.3-4.2-2-3.4-4.9c1.2-4.7,4.6-6.8,9-8.4c10.6-3.8,21.4-7.5,31.4-12.6c8.1-4.1,14.9-10.6,22.7-15.3
				c14.3-8.7,29.3-11.7,45-3.3C179,624.3,180.2,626.7,176.7,629.9L176.7,629.9z M180.9,619.4c0-4.9-0.2-9.9,0.1-14.8
				c0.1-1.7,1.4-4.2,2.8-4.8c9.3-4.1,18.8-7.8,28.4-11.7C213.2,600.4,195,618.1,180.9,619.4L180.9,619.4z M204.4,558.6
				c-2.8,2.2-6.1,4.2-9.4,5.6c-7.5,3.1-13.1,8.2-17.7,14.8c-4.1,5.8-8.8,11.1-13.8,17.3c-12.5-13.9-7-26.5-0.7-39.7
				c-2.3,2.1-4.7,4.1-6.9,6.4c-2.3,2.4-4.5,4.9-6.5,7.5c-2,2.6-3.8,5.3-5.8,8c-2.6-10.5,3.9-23.7,14.7-30.3
				c5.6-3.3,11.3-6.3,16.8-9.8c6.6-4.1,11.5-9.5,12.6-17.7c0.1-1.2,0.7-2.6,1.5-3.5c6.6-7.9,7.3-16.8,5-26.4c-1-4.1-1.9-8.3-3-12.9
				c7.8-1.1,13,2.1,16.6,7.6c7.6,11.4,5.6,22.6-1.3,33.5C220.1,532.4,219.4,546.8,204.4,558.6L204.4,558.6z M600.6,370.5
				c1.8,2.1,2.2,3.6-0.6,5.5c-4.7,3.2-9.1,7-13.9,10.7c-0.7-2.1-1.5-4.2-2.7-7.6c-0.7,4.4-0.3,8.3-5.5,8.1c-0.8-7.7-1.1-15,4.8-21
				C589.9,363.5,595.6,364.9,600.6,370.5L600.6,370.5z M500,320.4c2.6,16.3,15.7,20.2,28.3,24.9c2.9,1.1,6,1.9,9,2.9
				c0.3-0.4,0.5-0.9,0.8-1.3c-4.9-2.8-9.8-5.6-14.7-8.4c0-0.5,0-1,0-1.4c7.5-1.2,15-2.4,22-3.5c-3.2-1.1-7.2-2.5-11.2-3.8
				c11.9-2.6,21.8,0.1,29.5,10.1c-0.6-2.4-1.1-4.8-1.7-7.2c0.4-0.4,0.8-0.7,1.1-1.1c2.8,2.6,5.6,5.2,8.2,7.6c0-0.6,0.1-2,0.2-3.4
				c0.5-0.2,0.9-0.5,1.4-0.8c2.2,3.4,4.4,6.8,6.7,10.4c0.2-0.1,1-0.7,2.8-2.1c0.3,2.5,0.6,4.5,1,7c0.7,0.2,2.1,0.7,3.4,1.3
				c3.4,1.6,3.8,6,1.1,8.5c-1.9,1.7-3.3,4-4.9,6c-5.2,2.6-8.6,1-10.4-4.8c-1.8-5.8-8.7-12.9-13-13.8c4.5,6.3,9.2,13,14,19.7
				c-0.4,0.4-0.7,0.7-1.1,1c-5.1-2.2-10.2-4.5-15.3-6.7c-0.2,0.5-0.5,1-0.7,1.5c5.1,2.8,10.2,5.6,15.4,8.3c4.1,2.1,5.5,5.2,3.8,9.4
				c-0.5,1.3-1.6,2.3-2.4,3.5c-1.2-1-2.5-1.9-3.6-3.1c-0.6-0.7-0.8-1.7-1.3-3.1c-0.8,7.1-4.2,9.1-10.5,6.3c-3-1.3-6-3.2-8.2-5.5
				c-3.3-3.6-6.7-5-11.5-3.9c-2.2,0.5-4.5,0.3-7.3,0.5c2-2.5,3.5-4.5,5.1-6.4c-3.6,3.4-9.3,5.3-11.1,12.9
				c-11.1,4.6-24.1,10.1-37.2,15.3c-1.7,0.7-4.1-0.4-6.1-0.7c0.9-1.8,1.5-4.1,2.9-5.2c8.4-6.1,17-11.8,27.7-13
				c5.4-0.6,9.4-3.9,12.7-7.8c5.2-6.2,3.7-13.9-2.9-18.5c-6-4.1-12.4-7.9-17.7-12.8C499,334.3,496.9,327.8,500,320.4L500,320.4z
				 M503.3,454.1c-6.8-0.4-10.3-4-12.1-12.3c-2.2-9.5,1.7-17,11.7-22.9c3.1-1.8,3.3-1.8,6.5,1.3C499.9,430,496.9,441.2,503.3,454.1
				L503.3,454.1z M499.9,408.4c0.7-0.3,1.4-0.6,2-0.9c0.2,0.2,0.4,0.5,0.6,0.7c-6.6,6.8-13.2,13.6-19.2,19.8
				c0.3-1.1,0.9-3.3,1.6-5.6c-2.2,4.7-4.3,9.4-6.2,13.3c-6.4-14.8,0.4-36.6,28.5-39.7C507.6,401.9,504.3,405.5,499.9,408.4
				L499.9,408.4z M454.4,439.1c-5.2-17.7,9-39.4,25-37.7C471,414.1,462.8,426.4,454.4,439.1z M475.1,459.8c-2.4,0.4-5.6-1.1-8-4.7
				c-3.5-5.2-3.7-10.6-2-16.3C468.6,446.1,471.9,453.1,475.1,459.8L475.1,459.8z M388.4,440c-19.6,10.2-40.3,13.5-61.5,8
				c-12.2-3.2-23.6-9.6-35.1-15.2c-10.7-5.3-21-11.5-31.4-17.4c-0.8-0.5-1.5-1-2.3-1.5c0.2-0.5,0.4-0.9,0.6-1.3
				c6.5,2.9,13.1,5.4,19.3,8.6c11.8,6.1,23.1,13.4,35.2,18.6c28.6,12.3,55.8,7.4,81.9-8.4c8-4.9,16.7-8.6,25.3-12.6
				c1.6-0.8,4,0.1,7.3,0.3c-1.4,1.8-1.7,2.4-2.2,2.7C413.1,427.9,400.6,433.7,388.4,440L388.4,440z M395.4,457.1
				c-1.8,5.1-3.7,10.1-6.2,14.9v-21.4C396.4,450.7,397.3,451.7,395.4,457.1z M339.6,460.8c7.3-0.6,14.3-1.2,21.5-1.9
				c2.9,18.1,5.9,36.2,8.8,54.3c0.6-0.1,1.1-0.2,1.7-0.3c-1.2-7.2-2.7-14.4-3.6-21.6c-1.1-9.1-1.7-18.2-2.5-27.4
				c-0.1-1.1-0.4-2.7,0.2-3.4c1.5-1.7,3.5-2.9,5.2-4.3c1,1.4,2.6,2.8,2.8,4.3c1.2,14.1,1.3,28.4,3.5,42.3
				c2.3,14.6,6.5,28.8,9.9,43.2c1.1,4.6,2.3,9.2,2.7,14.2c-20.7-34-41.5-68-62.2-102.1c0.4-0.4,0.8-0.8,1.3-1.2
				c3.7,2.3,7.5,4.6,11.1,6.8C339.9,463.2,339.8,462.2,339.6,460.8L339.6,460.8z M296.1,453.9c8.2,13.7,17,27,24.9,40.9
				c5.8,10.2,10.5,21.1,15.7,31.6l-1,1c-4.2-1.5-8.3-3-13.1-4.7c0.6-15.1-8.4-26.6-16.7-38.6c-5.6-8-10.3-16.7-15.2-25.2
				c-1.1-1.9-1.6-4.2-2.4-6.6C291.7,450.7,294,450.3,296.1,453.9L296.1,453.9z M276.7,338.6c-1-1.8-1.4-3.4-1.6-4.6
				c0.5-0.5,2.8-2.7,5.7-2.4c2,0.2,3.6,1.4,4.2,2.4c2.3,4.6,4,9.5,6.1,14.2c2,4.4,5,5.5,10.1,4.1c10.3-2.7,14.4-0.5,25.9-4.7
				c2-0.7,4.3-1.7,4.2-2.8c-0.1-1.1-2.7-1.9-4.2-2.3c-10.1-2.6-13.8-1.2-20.1-3.3c-5.1-1.7-9.7-5.5-13.9-9
				c-3.6-3.1-3.2-7.7,0.1-10.7c8.5-7.7,18.5-12.5,30.3-11.7c7,0.5,10.3,4.8,10.6,12.7c0.2,4.1,0,5.5-0.5,12.5
				c-0.8,12.7,0.3,15.1,1.8,16.4c1.1,0.9,2.2,1.1,5.4,1.4c10.5,0.9,14.7,0,23.7,0c7,0.1,8.8,0.7,11.2-1c2.4-1.6,3.3-4.3,5.1-9.5
				c0.8-2.4,4.3-12.7,1.7-14.2c-0.6-0.3-1.3-0.1-1.8,0c-2.7,0.8-3,4.3-4.5,6.9c-1.6,2.5-5.7,5-14.6,6.2c-4.6,0.6-9.2,1.5-13.8,2.1
				c-4.9,0.6-8.1-1.9-9.4-6.4c-1.4-4.6-2.4-9.4-3-14.1c-0.6-4,0.2-7.3,2.2-9.7c2.8-3.4,7.3-4,9-4.2c15.4-1.7,29.1,15.6,34.6,11.6
				c1.2-0.9,1.8-2.6,3.8-3c2.9-0.5,4.7,2.3,5.6,1.8c2.1-1.3-6.4-21.9-11.6-20.9c-0.3,0-0.5,0.1-3.5,2.8c-4.5,3.9-4.4,4.1-5.1,4.4
				c-3.2,1.5-6.8,1.6-10.8,0.8c-3.6-0.7-7.3-0.8-10.9-1.2c-5.2-0.6-9-2.9-11.1-6.2c-2.4-3.9-2.7-10-0.2-13.9c0.9-1.5,1.9-2.2,1.6-3
				c-0.7-1.8-6.9-2.4-8.6,0c-1.6,2.3,2.3,5.4,2.6,12.2c0.1,2.2,0.3,6.1-1.9,9.2c-3.2,4.6-7.9,1.6-23,5.8c-3.2,0.9-5.9,1.6-9.4,0.9
				c-2.6-0.5-5.1-1.8-7.4-3.7c-1.3-1.1-2.6-2.1-4.1-2.9c-1.1-0.5-3.1-1.1-3.5-0.6c-0.8,0.9-1.2,2.6-1.1,3.9c0.2,1.8,1.4,3.5,1.4,5.3
				c0,1.9-0.3,4.2-1.5,5.5c-0.7,0.8-3.3,0.2-4.9-0.4c-1.7-0.6-3.3-1.6-4.7-2.7c-3.5-2.8-5.2-4.7-5.1-6.6c0.1-1.5,1.2-2.5,5.8-5.8
				c7.2-5.2,9.6-6.7,9.3-7.6c-0.3-1.1-4,0.1-10.2-1.3c-1.9-0.4-7.5-1.6-7.8-4.2c0-0.2,0-0.7,0.4-1.6c1.7-3,6.3-3.4,10.1-4
				c4.1-0.7,8.1-2.1,12.1-3c9.5-2,15.9-4.9,28.7-10.1c5.5-2.2,10.8-5.5,9.5-13.4c5,9.3,13.3,12.5,22.9,13.2
				c12.5,0.9,24.9,1.9,37.4,2.3c16.7,0.5,30.6-5.4,40.7-19.2c0.7-0.9,1.5-1.7,2.2-2.6c10.2,14.1,6.8,37.1-6.9,47.5
				c-2,1.5-3.6,1.3-3.6,1.3c-2.3-0.4-4.5-3.5-3.9-5.6c0.8-3,6.6-1.7,10.1-6.2c2.1-2.7,2.6-6.5,1.8-7c-1-0.6-3.1,3.7-9.5,8.3
				c-4.8,3.5-7,3.5-9.7,7.1c-1.4,1.9-1.4,2.7-3.5,5.2c-2.9,3.6-5.2,4.9-4.9,5.4c0.3,0.6,4.1-0.3,7.1-2.8c3.4-2.8,4-6.2,5.1-6
				c1.1,0.2,1.8,3.5,1.6,6.7c-0.5,8.9-8.5,18.8-16.5,19c-2.6,0.1-5-0.8-5.3,0c-0.4,0.9,1.8,3.4,4.4,3.8c1.5,0.3,2.9-0.3,5-1.4
				c5.9-3.2,8.2-6.1,8.8-5.7c0.8,0.6-2,8.3-8.5,15.1c-6.3,6.4-13.6,9.5-13.2,10.5c0.1,0.2,0.7,0.3,2.5-0.1c7.8-1.9,9.9-5.8,12.7-5.4
				c4.5,0.6,6.3,11.5,7.6,19.3c1.4,8.6,1.9,12.8,0,16.7c-2.1,4.4-6.3,7.8-12.4,10c-6.7,2.4-10.1,6.6-10.8,13.4
				c0,0.3-0.1,0.8,0.1,1.5c0.1,0.5,0.5,1.4,1,1.6c1,0.3,2.2-2.7,4.7-5.6c1.2-1.4,5-4.8,10.4-6.1c5.2-1.2,9,2.2,11.1,8.8
				c-15,1.7-26.9,10.9-40.3,16.7c-22.4,9.6-44.5,7.9-66.2-2.6c-10.8-5.2-21.1-11.4-33.4-12.9c-4.4-0.5-8.9-1-13.7-1.5
				c1.2-4.2,4.4-5.9,8.2-5.8c2.5,0.1,3.4,0.7,8.6,2.1c5.4,1.5,6,1.1,6.4,0.8c1-1.1-0.4-4.4-2.1-6.5c-1.6-2.1-3.7-2.5-11.1-6.5
				c-3.2-1.7-6.8-2.8-9.7-4.9c-4.5-3.1-6.7-7.9-5.1-13.1c2.4-7.9,5.6-15.5,8.4-23.2c2,1,5,2.4,8.9,3.6c3.9,1.2,9.2,2.5,9.6,1.5
				C283.2,344.6,279.1,343.2,276.7,338.6L276.7,338.6z M437.4,449.4c-0.4,0.3-0.8,0.6-1.2,0.9c-9.2-4.7-18.4-9.5-28.1-14.4
				c7.2-7.3,15.4-8.4,24-7.5c5.7,0.6,8,6.3,5.4,13.1c-3.6-3-7.2-6-10.8-9c-0.2,0.2-0.4,0.4-0.6,0.6
				C429.8,438.5,433.6,444,437.4,449.4L437.4,449.4z M397.1,417.1c0,0,0.3-0.1,0.4-0.2c0.4-0.1,0.7-0.2,1.1-0.3c0,0.3-0.1,0.6,0,0.8
				c3.2,5.6,2.7,6.4-3.9,7.8c-2.4-6.4-2-7.6,2.6-7.2C397.3,417.6,397.1,417.4,397.1,417.1L397.1,417.1z M398.6,416.3
				c-0.5-0.5-1-1.1-1.4-1.6c0.1-0.4,0.2-0.7,0.3-1.1c1.2,0.4,2.5,0.8,3.7,1.2l0,0.1C400.3,415.4,399.4,415.8,398.6,416.3
				L398.6,416.3z M383.9,417.6c-28.7,15.2-57.1,12.8-84.8-2.9c-12.1-6.8-24.7-12.3-39.5-13.5c7.5-1.4,22.4,1.7,32.5,6.4
				c9.2,4.3,18.1,9.4,27.7,12.5c24.5,8,47.5,3.8,69.6-9.1c6.6-3.9,14.1-6.5,21.5-9.1c2.8-1,6.3-0.2,9.4-0.2l0,1.9
				c-0.2,0.2-0.4,0.6-0.6,0.6C406.3,405,395.3,411.6,383.9,417.6L383.9,417.6z M371.6,431.4c1.9,1.6,3.6,2.9,6.2,5.1
				c-6.4,1.5-12.3,2.8-18.2,4.2c-0.1-0.3-0.2-0.7-0.3-1c4.4-1.1,8.8-2.3,13.5-3.6C372.5,434.6,372.1,433.2,371.6,431.4L371.6,431.4z
				 M376,430.1l-0.7,0.3c-1-1.5-2-2.9-3.1-4.5c3.7-1.8,6.7-3.2,9.6-4.7c2.8-1.4,5.5-2.8,8.3-4.1c0.2,0.4,0.4,0.8,0.6,1.1
				c-5.2,2.7-10.3,5.4-15.8,8.2C375.3,427.6,375.7,428.9,376,430.1L376,430.1z M347,443.1c-1.4,0-3,0.1-4.6,0c-0.9,0-2-0.1-2.5-0.6
				c-0.9-0.9-2.1-2.5-1.8-3.1c0.6-1.2,2.3-2.6,3.4-2.5c1.1,0.1,2.1,1.9,3.1,3C345.4,440.9,346.2,442.1,347,443.1L347,443.1z
				 M325.9,439.5c-3.1-0.8-6.3-1.7-9.4-2.5l0.3-1c2.8,0.7,5.7,1.5,8.5,2.2c6.5,1.5,6.5,1.4,7.6-5
				C333.9,440.3,332.8,441.3,325.9,439.5L325.9,439.5z M287.6,417.5c-0.9,1.5-1.7,3.1-2.6,4.8c-1.5-0.8-2.9-1.6-4.4-2.5
				c2.3-2.6,4.4-5,6.6-7.5c0.3,0.1,0.5,0.3,0.8,0.5c-0.6,1.2-1.3,2.4-1.9,3.6c0,0.1,0.9,0.6,1.4,1c0.8-1.2,1.5-2.5,2.6-4.2
				c4.5,2,9.1,4.1,13.2,6c-0.3,3-0.6,5.2-1,8.3c-1.3,0.6-3,5.3-6.3,0.6c2-2.4,3.9-4.8,6.3-7.8C296.8,419,293.2,413.7,287.6,417.5
				L287.6,417.5z M413.5,408.6c-2.1,3.6,3.2,6-0.4,8.9c-0.9-0.4-2.4-0.8-2.4-1.1c0.6-5.1-2.5-4.7-6-4.8
				C407.2,410.8,409.8,409.9,413.5,408.6L413.5,408.6z M413,417.6c2.8-0.7,7,0.2,5.1-6.7c3.2,1.8,5.1,2.8,8.1,4.5
				c-6.2,1.9-10.9,3.4-16.5,5.1C411.2,419.2,412.1,418.4,413,417.6L413,417.6z M407.9,440c16.1,6.6,31.8,13.9,43.4,27.6
				c2.4,2.8,4,6.1,6,9.2c-0.6,0.5-1.3,1-1.9,1.5c-6-12.5-18.3-14.7-29.3-19.3c-9-3.8-17.7-8.4-26.5-12.8c-1-0.5-1.7-1.5-3.1-2.7
				C400.3,441.2,403.2,438,407.9,440z M496.1,333.2c2.6,16.5,5,32.2,20.4,42.9C498.8,373.1,492.9,349.4,496.1,333.2L496.1,333.2z
				 M503,377.5c-8,1.7-15,3.3-22.2,4.8C485.3,375,495.6,372.3,503,377.5z M492.4,364.8c-5.9,1.6-11,3-17.2,4.7
				C480,361.8,488,359.5,492.4,364.8z M467.2,382.7c5.2-0.5,5.1,3.2,6.5,7.4c-10.8,2-20.5,5.7-27.9,14.6
				C446.6,394.7,458.2,383.5,467.2,382.7z M579,120.7c2.9,1.5,4.1,3.4,4.1,3.4c1,3.1,2.7,4.5,5.7,4.2c2.4-0.2,4.6,0.4,5.7,1.9
				c0.3,0.4,0.3,0.6,0.8,2.6c0.9,3.5,1.4,5.2,1.8,6c0.9,1.6,1.4,1.7,3.1,4.5c0.1,0.2,0.5,0.8,0.8,1.4c0.7,1.4,1,2.6,2.4,5.8
				c3.6,8.5,5.2,9.7,4.4,11.4c-1.2,2.5-5.5,0.8-13.2,2.5c-9.9,2.2-14.5,7.6-16.9,5.6c-1.4-1.2-1.2-4.1-0.6-5.7
				c0.3-0.9,1.1-2.3,5-4.8c3.1-1.9,6.1-3.2,8.4-4c3-1.1,4.4-1.4,4.3-1.7c-0.1-0.5-4.7-0.9-9.3,0.5c-7.1,2.2-10,7.6-12.5,6.3
				c-1.5-0.8-1.7-3.1-1.7-3.7c-0.1-2.1,1.1-3.9,4.6-7.2c5.6-5.2,10.3-7.6,10-8.2c-0.2-0.3-2.3,0.2-4.6,1.2c-7.6,3.3-9.7,8.2-12,7.4
				c-2.1-0.7-3.2-5.4-1.9-8.8c0.9-2.5,2.9-3.8,5.7-5.5c4.4-2.9,8.2-3.6,8.1-4.2c-0.1-0.5-2.4-0.4-3.2-0.3c-6.4,0.3-8.5,2.5-12.2,1.9
				c-1.8-0.3-5-1.4-5.4-3.3C559.6,125.7,573,117.5,579,120.7L579,120.7z M555.7,130.4c0.3,0,2.2,0.3,3.8,1.5c2.7,2,3.8,6.4,2.5,10.9
				c-1.3,0.9-3.4,2.1-5.4,1.5c-2.6-0.7-2.9-3.7-5.4-4.6c-1.2-0.4-3.2-0.4-6.5,1.9C546.1,133.3,549.8,130.1,555.7,130.4L555.7,130.4z
				 M543.1,58.8c-9,4.2-17.9,8.4-27.4,12.9c-0.6-1.2-1.5-3.3-2.8-6c9.7,0.7,16.3-4.9,23.8-8.1c0.9-0.4,1.5-1.6,2.1-2.4
				C540.3,56.3,541.8,57.6,543.1,58.8z M507.8,57.6c9.1-4.5,17.8-8.8,27-13.3c1.4,3.7,2.7,7.2,4,10.6c-0.2,0.2-0.5,0.5-0.7,0.4
				c-10-3.1-17.1,4.5-26.5,6.3C510.9,61,509.6,59.5,507.8,57.6L507.8,57.6z M395.8,126.3c32.8-11.5,65.1-24.5,97.6-36.6
				c2.6-1,5.9,0,8.8-0.1c2.3-0.1,4.6-0.6,7.7-1c5.1,5.9,12.6,6.5,20.7,4.7c1.1-0.2,3.1,0.6,3.6,1.5c5.8,10.4,11.4,20.9,17,31.2
				c-3.2,2.9-5.7,4.8-7.8,7.2c-6.2,7-5.3,16,2,21.7c1.3,1,3,2,3.6,3.4c2.5,6.5,6,12.2,12.3,15.8c0.6,0.3,1,1.4,1,2.1
				c0.2,7.6-3.8,18-11.4,21.2c-8.6,3.5-17,7.4-26.2,11.4c-7.4-10.8-18.7-14.4-31.4-14.5c-2.6,0-3.8-0.8-4.7-3.2
				c-9.8-26.6-39.6-39.3-61.4-37.6c-3.3,0.3-6.7,0.9-9.6,2.3c-2.9,1.4-5,0.9-7.9-0.2c-9.2-3.5-18.6-6.6-28.5-10
				C383.9,138.4,384.9,130.1,395.8,126.3L395.8,126.3z M379.2,112.8c-0.3,1.9-0.9,2.5-1.3,2.8c-2.1,1.4-6.7-1.1-6.7-3.1
				c0-1.1,1.5-1.4,3.2-3.3c1.8-2,2.5-4.4,2.8-6.2C378.5,105.4,379.8,109,379.2,112.8L379.2,112.8z M380.6,121.5
				c-2.1,0.9-3.5,2-4.5,1.8c-1-0.3-2.2-1.8-2.3-3c-0.1-0.7,1.9-2.5,2.4-2.3C377.5,118.5,378.6,119.8,380.6,121.5L380.6,121.5z
				 M375.5,57c1.1,1.7,3.9,3.2,11.1,2.6c1.5,3,1.3,6.1-0.3,7.7c-1.6,1.5-4.2,1.1-6,0.7c-4-0.7-6.5-3.2-7.3-3.9
				c-4.4-4.5-5.8-11.9-3.9-13.2c0.9-0.6,2.7,0.2,3.6,0.9C374.6,53.2,374.5,55.4,375.5,57L375.5,57z M364.8,152.9
				c-0.3-1-0.7-1.9-1-2.6c0.5,0.1,1.8,0.1,3.1-0.7c1.6-1,2.5-3,2.3-5.1c0.4,1.5,1.9,6.8-0.9,11.9c-0.9,1.6-2,2.9-2.9,3.7
				C365.5,158.5,365.7,155.9,364.8,152.9L364.8,152.9z M354.7,161c-0.3-0.2-1.2,1.6-2.1,1.4c-0.8-0.2-0.5-1.8-1.7-3.9
				c-0.9-1.6-1.5-1.6-1.5-2.4c-0.1-1.8,3-3.2,5.1-4.1c1.7-0.8,2.8-1.3,4-0.8c0.9,0.3,1.6,1,2.2,2.2c2.5,5.1-1.5,11.9-7.9,12.6
				C354.7,162.1,354.9,161.1,354.7,161L354.7,161z M350,167.3c-1.3,0.9-4.1-0.9-4.5-1.2c-0.6-0.5-2.4-1.8-2.9-4.2
				c-0.7-3,0.8-6.4,3.9-8.4c1.9,3.1,2.9,5.9,3.4,7.9C350.4,163.8,351.1,166.5,350,167.3L350,167.3z M361,142.9
				c-0.7,0.1,0.1,4-2.1,5.6c-0.2,0.1-1.2,0.9-2.4,0.6c-2.1-0.5-1.9-3.8-3.8-4.6c-2.5-1-5.2,3.6-7.5,2.7c-2.6-1-1.4-7.9-3.8-8.5
				c-1.1-0.3-2.4,0.8-3,1.7c-1.8,2.7,0.1,8,4.7,13.1c-3.7,5.6-8.6,7-14,3.8c5.4-5.8,6-8.2,5.3-9.3c-0.7-1.1-2.4-0.4-5.2-1.9
				c-0.4-0.2-4.6-2.5-5.1-6.3c-0.2-2.1,0.9-4.5,3.4-7.1c2.7-2.9,5.8-5.6,9.3-7.4c6.8-3.5,11.7-0.6,13,7c0.4,1.5,0.8,2.9,1.2,4.4
				c5.9-5.4,6.6,1.5,9.4,3.5c0.6-1.3,1.2-2.6,1.8-4c2.2,0.3,4,1.7,4.7,3.5c1,2.6-0.6,6.1-3.9,7.5C361.8,143.6,361.3,142.9,361,142.9
				L361,142.9z M303.9,147.7c1.9,3.8,4.8,5.4,4.5,5.9c-0.5,0.7-8.4-0.6-9.8-6.8c-0.8-3.4,0.8-7.2,3.9-9.3
				C302.1,140.4,302.1,144.1,303.9,147.7L303.9,147.7z M306.4,132.4c1.2-1.7,3.5-1.3,4.2-3c0.8-2-1.8-5.2-4.5-6.5
				c-0.8-0.4-2-1-2.6-0.5c-1.1,0.9,1.3,4,0,7.3c-0.5,1.3-1.6,3-3.1,3c-2,0.1-3.5-3-3.9-3.9c-0.1-0.3-2.6-5.8-0.2-7.6
				c1.8-1.3,4.8,0.1,5,0.2c0.1-1.1,0.1-2.6-0.7-3.7c-1-1.2-2.3-1-2.9-2.2c-0.5-1.1-0.5-2.5,0.2-4.1c0.9-2.1,0.9-4.5,1.4-7
				c2.8,0.2,4.5,0.7,5.2,1.9c0.5,0.8,0.2,1.5-0.5,5.2c-0.8,4.3-0.8,5-0.4,5.3c1.1,0.8,4.4-3,5.6-2.2c1.1,0.7-1.2,4.5,0,5.6
				c1.3,1.2,6.9-1.3,9.8-5.9c2.4-3.7,3.5-9.4,0.9-12.3c-1-1.1-1.6-0.8-4.5-2c-1.3-0.6-6.5-3.3-10.4-8.4c-3.4-4.5-2.6-7.2,3.2-10.7
				c2.9,6.1,7.5,10.4,14.3,11.6c2.1,0.3,4.5,0.5,6.5-0.1c4.6-1.5,5.2-1.1,6.6-0.5c3.1,1.2,4,5.5,4.8,5.2c0.4-0.1,0.1-1.3,0.1-3.6
				c0.1-1.8,0.1-4.2,1.4-6.4c0.5-0.8,1.5-2.2,3.6-3.2c0,0,2.1,3.8,2.1,3.8c0,0,1.3,2.3,1.3,2.4c0.1,4.2,0.3,8.5,0.5,12.7
				c0,0.3,0,2.5-1.7,3.7c-1,0.8-2.2,0.7-3.1,0.7c-0.7,0-2-0.1-3.1-0.9c-0.2-0.2-0.4-0.4-1.4-1.8c-0.6-0.9-1.1-1.8-1.5-2.3
				c0,0.2-0.1,0.6-0.1,1c-0.2,2-0.1,2.2-0.4,2.5c-0.5,0.6-1.8,0.3-3.2,0c-2.4-0.6-4.4-1.1-4.7-2.4c-0.1-0.3-0.2-1.1,0.9-2.2
				c-0.2,0.1-1.6,0.7-1.8,1.9c0,0.1-0.1,0.7,0.2,1.5c1,2.1,3.9,1.8,7.1,4.2c0.9,0.6,1.5,1.2,1.8,1.6l-0.1,1.5
				c-5.1-1.8-5.3,7.8-11.5,3.8c-3.8,3.5-2.4,11.4-10.1,11.8c-2.1-0.9-2.9-0.8-3.1-0.5c-0.8,0.9,2.9,3.8,2.1,6.5
				c-0.4,1.5-1.8,1.6-3.6,3.4c-2,1.9-2.9,4.2-3.4,6C305.4,136.7,305.4,133.9,306.4,132.4L306.4,132.4z M296.4,94
				c0.7,0.1,1.4,0.3,2.1,0.4c0.9,3.3,2.8,6.8-3.8,8.2C295.3,99.8,295.9,96.9,296.4,94z M290.7,82.4c-2.6-0.3-5-2.6-7.4-4
				c0.3-0.6,0.6-1.3,0.8-1.9c4.6,0.7,9.3,1.3,13.9,2c0.2,0.5,0.4,1,0.5,1.5C296,80.9,293.2,82.7,290.7,82.4L290.7,82.4z
				 M351.1,104.4c-1.2-2.6-1.6-6.7,1.5-13.1c0.6,2,2.2,3.5,4.2,3.8c2.9,0.5,4.9-1.6,5-1.7c-2.2,5.9-3.3,10.4-3.9,13.3
				c-0.4,1.9-0.6,3.8,0.3,5.8c0.6,1.4,1.7,2.7,3.3,3.7c1.4,0.9,3.1,3.1,4,4.3c3.5,4.8,1.2,12.5,0.6,12.5c-0.5,0,0-5.3-2.7-6.6
				c-1-0.5-2.2-0.2-3.2,0.3c-0.8-3.4-2-6.5-4.5-8.6c-1.3-1.1-2.8-0.7-4.4-2.2c-1.4-1.3-2.7-3.6-1.9-4.7c0.2-0.3,0.7-0.6,1.1-0.6
				c1.4,0,1.9,2.4,3.3,2.5c0.6,0,1.2-0.4,1.5-0.8C356.4,110.7,352.6,107.9,351.1,104.4L351.1,104.4z M365.1,80.2
				c-1,0.5-1.9,0.4-2.3,0.3c2-2.2,2.3-2.9,2.1-3.2c-0.6-0.8-7.8,0.6-12.2,5.4c-0.4,0.4-1.3,1.5-2.3,1.4c-1.8-0.2-2.7-3.9-3.2-7.1
				c-0.1,0.9-0.3,3.1-2,4.7c-1.4,1.4-3.4,2-3.7,1.6c-0.2-0.4,1.5-1.7,1.2-2.2c-0.2-0.3-1,0-3.1,0.2c-1.4,0.1-1.8,0-2.1-0.1
				c-1-0.3-1.5-1.1-1.8-1.3c-1.6-1.9-6.2-5.8-10.8-6.1c-1.1-0.1-2.8,0-3,0.6c-0.3,1,3.2,2.8,3,3.3c-0.3,0.6-6.2-3.2-12.9-2.2
				c-1.9,0.3-3.5,0.8-4.5,1.3c1.1-2.1,1.7-4.4,3.2-5.9c4.5-4.5,9.3-8.5,13.9-12.9c3.6-3.5,7.2-3.8,11-0.4c1,0.9,2,1.7,3.1,2.5
				c5.7,4.4,6.7,4.4,12.5-0.1c2.3-1.8,4-2.6,5.4-2.2c1.9,0.4,3,2.5,3.6,3.9c2.9,6,5.3,11.6,6.9,15.6
				C367.2,77.3,366.9,79.3,365.1,80.2L365.1,80.2z M317.8,155c2.1,0.9,4,1.1,5.3,1.1c-0.5,4.1-2.3,7-4.3,7.2
				c-1.9,0.2-3.4-1.9-4.5-3.4c-2.9-3.9-3.6-8.3-3.7-11.8C311.2,149.3,313.3,153.1,317.8,155L317.8,155z M315.2,145.9
				c-1.1-0.7-1.8-4.5-1-5.6c1.8-2.4,4.9-3.1,7.2-0.2c2,2.6,3.4,5.5,5.1,8.3c-0.3,0.6-0.6,1.2-1,1.8
				C322.1,148.8,318.3,147.8,315.2,145.9L315.2,145.9z M326.1,164.9c0.7-2.6,3.9-4.3,6.4-3.5c1.9,0.6,2.7,2.4,2.9,2.8
				c-2.2-1.4-4.4-1.5-5-0.6c-0.6,0.8,0,2.2,0.5,3.1c1.5,2,4.4,1.7,4.5,1.6c-0.1,1.1-0.4,1.6-0.8,2c-1.6,1.7-5.9,1.2-7.8-1.3
				C326.8,168.8,325.5,167,326.1,164.9L326.1,164.9z M365.4,42.8c0.5-1.8,0.5-3.4,0.5-4.5c2.9,0.2,5,2.8,4.8,5.6
				c-0.2,2.6-2.5,4.7-5.2,4.7c-0.6-0.6-1.2-1.3-1.8-1.9C364.1,45.9,364.9,44.6,365.4,42.8z M344.7,25.7c6.7-1.4,11.3,3.2,10.5,9.2
				c-0.8-1.5-2.5-4.5-6-5.8c-1.6-0.6-3.4-0.9-3.7-0.4c-0.4,0.8,4.6,3,4.5,6.1c0,1-0.6,1.8-1,2.3c-7.8-1.7-14.9-3.3-22.6-5
				C332.7,29.9,338.5,27.1,344.7,25.7L344.7,25.7z M286.8,50.3c4.1-3.6,8.5-6.9,12.8-10.3c1-1.7,2.8-4.2,5.9-5.7
				c0.6-0.3,2.4-2,9.5-0.8c3.9,0.7,7.8,0.5,11.7,0.9c3,0.3,6,0.4,8.8,1.3c4.8,1.4,5.6,3.1,5.8,3.6c0.9,2.2-0.9,3.5,0,5
				c1.5,2.6,8.8,1.9,13.8-1.1c1.2-0.7,2.5-1.5,3.4-3.1c1.4-2.5,1-5.6-0.2-9.1c7.8,6.3,1.8,11.7-0.1,17.3c-5.5,1.6-12.6-3.3-16,3.3
				c-2.3-2.7-4.1-6.6-7-7.6c-2.4-0.9-4.9-1.3-7.4-1.2c-2.1,0.1-3,0.8-9.8,3.2c-1.5,0.5-2.8,1-3.5,1.2c-0.1-1.8-0.6-5.6-2.5-6.2
				c-3.1-0.9-8.6,7-7.1,9.1c0.9,1.3,3.6-0.1,8.4,1.8c1.1,0.5,1.2,0.6,2.4,1.1c1.9,0.7,4.4,0.1,6.6,1c-5.4,2.5-10,3.9-13.5,4.8
				c-9.6,2.5-12.2,1.2-13,0.8c-2.2-1.2-2.8-2.9-4.8-2.9c-3,0-4.9,3.8-6.4,3.1c-0.9-0.4-0.9-2.1-0.9-2.7
				C283.6,54.2,285.4,51.7,286.8,50.3L286.8,50.3z M281.3,64.2c4.9,0.4,9.9,0.8,14.8,1.1c1,0.1,1.9,0,3.6,0c-2,4.4-5,4.2-8.2,3.9
				c-2.5-0.2-5.1,0.1-7.6,0.2c-1.4,0-3.4,0.6-4.2-0.1c-2-1.6-3.4-3.8-5-5.8C276.8,63.7,279,64,281.3,64.2L281.3,64.2z M281.3,72.2
				c-5.8,6.3-10.8,6.8-13.5,1.7C272.2,73.4,276.4,72.9,281.3,72.2z M261.5,120.9c5.2,1.2,8.3-0.7,9.8-5.8c0.4-1.4,0.9-1.1,1.2-1.7
				c1.4-2.1,1.9-4.3,2.1-5.9c0.5,0.8,2.8,4.5,1.8,8.8c-1.6,6.6-9.5,8.2-10.5,8.3c-3.1,0.4-6.4,0.6-7.6-3.8
				C259.6,120.9,260.6,120.7,261.5,120.9L261.5,120.9z M129.3,207.4c38.6-14.7,77.1-29.4,115.1-43.8c3,4.2,5.9,8.3,9.1,12.9
				c-0.6,0.7-2.1,1.7-2.5,3c-2.5,7.9-8.4,8-15.4,8.1c-14.2,0.2-26.2,6.1-35.3,17.1c-9.9,12.1-17.2,25.4-17.8,41.5
				c0,1.2-0.5,2.9-1.4,3.4c-11.3,6.1-18.6,15.9-24.3,27.1c-0.8-0.2-1.3-0.2-1.7-0.5c-10.5-8.7-22.7-12-36.1-12.8
				c-3.9-0.2-7.9-2.9-11.4-5.1c-3-2-2.9-5.1-0.4-7.8c2-2.2,4.1-4.4,6.4-6.3c8.7-6.9,11.9-15.5,9.6-26.5
				C121.8,210.4,122.5,210,129.3,207.4L129.3,207.4z M89.5,198.9c0.2-0.7,0.6-2.2,2-3.2c0.4-0.3,1.8-1.3,3.5-0.9
				c1.1,0.2,1.7,0.8,2.5,1.6c0.8,0.8,2.8,2.8,2.6,5.3c-0.1,1-0.5,2.1-1.6,3.3c-3.5,3.7-3.6,8.4-1,13c-0.1,0.3-0.6,1.2-1.4,1.5
				c-1.2,0.4-2.9-0.7-3.6-2.8C92.3,215.9,88.1,203.9,89.5,198.9L89.5,198.9z M79.9,200.1c1.7-0.3,3.9-0.8,5.4,0.4
				c0.9,0.7,1.2,1.9,1.3,2.6c1.6,7,1,8.6,2.1,12.6c0.7,2.5,1.4,3.9,0.8,5.9c-0.5,1.8-1.6,2.7-1.9,2.9c-1.2,1-3.2,1.6-4.8,0.9
				c-1.5-0.6-2.3-2.2-2.7-4c-1.1-5.6-2.3-11.1-2.9-16.7C77.1,203.2,78.8,200.3,79.9,200.1L79.9,200.1z M66.8,209.5
				c0.6-3,3.7-6,5.8-5.5c1.4,0.3,1.4,1.9,3.8,10.6c1.8,6.5,2.8,9.3,1.2,11.2c-0.1,0.1-1,1.2-2.4,1.4c-2.8,0.3-5-3.3-5.2-3.6
				c-0.3-0.6-1.5-1.9-1.5-4.8c0-1.4-0.6-2.9-1.1-4.3C66.3,212.1,66.6,210.7,66.8,209.5z M59.3,224c-1-2.4-1.5-3.6-1.4-5.2
				c0.1-1.7,0.7-4.9,2.5-5.1c1.2-0.2,2.8,1.2,3.8,3.4c3.1,5.4,3.7,10.2,1.6,12c-0.6,0.5-1.5,0.9-2.4,0.8
				C61.6,229.5,60.6,227.2,59.3,224L59.3,224z M86.8,257.7c-0.1,0.1-0.6,0.7-1.3,0.8c-1.7,0.3-2.7-2-4.4-3.2
				c-3.8-2.7-8.1,2.3-12.5,0.2c-3.9-1.9-4.3-7.8-5.1-12.2c-0.2-1.4-0.1-2.4,0.4-3.2c1.2-1.9,4.2-3.1,6.6-2.4
				c3.9,1.2,2.9,6.8,7.7,9.3c2.7,1.4,3.8,0.1,6,1.9C87,251.2,88.3,255.8,86.8,257.7L86.8,257.7z M87.5,249.6
				c-0.9-2.2-0.6-5.3,0.2-7.6c0.5-1.7,2.6-2.9,4.1-4.2c5.4-4.5,11-8.9,16.2-13.6c0.8-0.8,0.8-3.7,0-4.8c-1-1.5-3.2-2.2-4.9-3.3
				c-3.4-2.1-3.6-4.8-1.6-8c2.1-3.3,4.5-2.7,7.2-1c2.5,1.5,5.3,2.6,7.8,4.2c1.1,0.7,2.2,2.1,2.5,3.3c0.5,2.2,0.5,4.6,0.7,6.9
				c0.8,6.2-1.6,11.2-6.3,15c-6.2,5-12.6,9.7-19,14.2C92.1,252.2,88.8,252.8,87.5,249.6L87.5,249.6z M162.7,326
				c3.5,0.3,6.9,0.6,12,1.1c-2.7,1.8-4.4,3.5-6.5,4.3c-6.9,2.8-13.7,2.4-20.2-1.4c-7.6-4.4-15.3-8.8-22.7-13.7
				c-15.3-10.1-25.6-23.9-29.3-39.7c3.3-6,5.6-10.2,8-14.6c-0.1,0,0.4-0.1,0.5,0c4.7,5.8,10.9,6.4,17.9,6.5
				c22.1,0.4,34,12,39.7,33.2c1,3.7,0.5,7.8,0.8,12c1.1-0.2,1.7-0.2,1.9-0.5c5-7,11.9-6.5,19.3-5.5c6.2,0.8,12.4,0.9,19.6,1.4
				C190.8,317.6,175.6,318.5,162.7,326L162.7,326z M221.6,272.2c-8,10.2-18.9,14.8-31.2,17.1c-7.2,1.3-14.4,2.8-21.6,3.9
				c-1.2,0.2-3.7-1.2-3.9-2.1c-0.6-3-0.8-6.3-0.4-9.4c2.2-17.2,19.1-32,37.3-31.9c9-0.4,15.5,5.1,20.7,12.8
				C224.8,265.9,224,269.2,221.6,272.2L221.6,272.2z M232.8,242.7c-2.1-2.3-0.9-4.7-0.9-5.1c0-0.3,0.6-4.8,3-6.9
				c0.2-0.2,0.9-0.8,0.9-1.6c0-0.5-0.3-1.1-0.8-1.3c-0.9-0.4-2.2,0.6-2.7,1c-0.5,0.4-5.1,2.4-14.4,6.3c-3.6,1.6-4.8,1.9-5.9,1.4
				c-1.2-0.6-1.9-2.2-2.6-5.3c-3-11.9,23.7-43.2,36.9-38.3c3.4,1.3,7.7,5.5,8.9,4.4c0.6-0.5-0.2-1.6,0.2-3.2
				c0.6-2.4,3.1-3.1,6.8-5.4c6.3-3.8,8.1-7.5,10.4-6.5c0.7,0.3,1.3,1,1.5,1.7c1.2,3.7-6.6,7.7-5.8,9.9c0.7,1.8,6.2,0.3,14.3,0.4
				c11.6,0.1,17.3,3.4,18.6,1.1c1-1.7-1.8-3.9-6.7-13.1c-2.9-5.5-6.7-12.9-4.4-15.3c0.1-0.1,0.7-0.8,1.5-0.7
				c1.8,0.2,2.2,4.6,3.6,8.8c0.4,1.3,0.5,1.3,6.7,11.8c5.1,8.7,6,10.3,8.5,11.9c2.3,1.5,2.5,0.8,6.3,2.8c7.1,3.7,8,7.1,10.5,6.6
				c1.3-0.3,3.2-3.7,7-10.5c1.1-2.1,2.3-4,4.5-5c1-0.5,2.3-0.7,3.9-0.5c2,0.2,4.6-1.8,6.2-3.5c5.9-6.1,12.3-12,16.8-19.1
				c3.8-6,11.8-10,9.9-18.9c13.5,0.6,25.7,3.3,36.7,10.3c0.9,0.6,2.6,0.8,3.6,0.4c29.5-10.7,60.7,5.3,69,35.5
				c0.2,0.6,0.5,1.2,0.4,1.1c7.2,0.8,14.2,0.8,20.5,2.7c4.8,1.4,9.1,5.2,13.1,8.5c1.4,1.1,1.9,4.2,1.5,6.3c-0.6,3.6-2.6,5.1-6.4,2.8
				c-2-1.2-3.4-1.6-5.3-2.6c-3.5-1.8-5.2-2.8-5.5-2.4c-0.6,0.7,2.4,4.1,8.1,11.9c5.4,7.4,6.5,9.4,7.9,9.2c2.7-0.5,1.8-8.8,4.3-15.3
				c2.8-7.2,11-15.3,34.3-19.9c-1.2,3-1.9,5.3-3.1,7.3c-7.8,13.2-15.5,26.4-23.6,39.4c-1.6,2.6-4.8,4.2-7.3,6.2
				c-3.3-3.7-4.1-6.8-4.3-9c-0.2-2.2,0.3-5-0.9-5.6c-0.7-0.3-1.5,0.2-1.5,0.2c-2.4,1.5-0.2,10.4,1.9,17.1c-4.1-2.4-7.7-4.4-11.2-6.5
				c-7.6-4.7-15.6-8-24.7-8.8c-12.5-1.1-21.9-8.4-30.9-16.2c-1.2-1-1.3-5.3-0.3-6.4c4.1-4.1,8.5-8.5,13-10.4
				c6.2-2.6,10.1-2.7,10.2-4.2c0-0.9-1.5-1.4-8.5-5c-3.8-2-5.5-2.9-5.8-2.5c-0.6,0.8,5.5,4.8,4.8,7.1c-1.7,5.3-38.8-1.6-39.1,0
				c-0.1,0.8,9.8,1.3,11.5,6.3c1.1,3.4-2.4,6.4-11.9,19.3c-5,6.8-5.6,8-6.9,9.8c-0.8,1.1-1.4,1.8-1.5,2c-2.8,3.7-7.3,10.7-10.6,14
				c-3.1,3-6.9,4.1-14.6,6.2c-12,3.2-21.2,3.1-33.1,2.9c-12.2-0.3-16-1.5-19-4c-1.4-1.1-3.1-3.4-6.5-8c-2.3-3.1-4.6-6.5-5.9-11.2
				c-0.7-2.5-0.6-3.4-0.4-4c1-4.1,6.7-5,6.4-6.4c-0.2-1.1-3.5-1.8-6-0.6c-0.9,0.4-3,1.1-3.1,3.6c-0.2,6.1,0.4,12.3,0.1,18.4
				c-0.1,2-1.4,4.8-3,5.8c-5.4,3.2-10.9,7-16.9,8.1c-11.8,2.3-24,3.1-36.6,3.9c2.8-4.8,0.6-6.5-2.9-7.7c-4.5-1.4-6.1,1-6.4,6
				c-3.2-2.1-5.9-3.4-8-5.4C244.8,255.1,238.7,248.9,232.8,242.7L232.8,242.7z M265.3,426.5c-5.5,1-10.4,1.9-15.5,2.8
				C253.3,423.6,258.5,422.6,265.3,426.5z M240.6,445.4c3.2-7.7,18.8-17.6,27-17.4c2.3,0,3.4,0.6,2.7,3c3.2,0.7,6.5,1.4,9.7,2.1
				c-0.1,0.3-0.2,0.7-0.3,1c-12.8,5-25.5,10-39.2,15.3C240.5,448.6,240,446.8,240.6,445.4L240.6,445.4z M234.4,501.9
				c-5-3.9-2.3-14.9,6-22.1C238.4,487.3,236.4,494.7,234.4,501.9z M233.1,470.4c0.9-2.1,1.2-4.6,2.6-6.1
				c12.5-13.8,27.9-22.5,46.5-25.1c2.6-0.4,5.4,0.8,8.1,1.2c0,0.7,0,1.4-0.1,2.1C269.4,447.7,250.9,457.5,233.1,470.4L233.1,470.4z
				 M246.5,539.1c-3-19.8-0.7-39.5,2.2-59.1c0.4-2.4,1.4-5.3,3.1-6.6c8-5.9,16.2-11.4,24.5-16.8c0.8-0.5,3.9,0.7,4.5,1.8
				c8.6,15.6,17.2,31.2,25.5,46.9c4.9,9.4,9.3,19.2,13.8,28.8c6.6,13.9,9.4,28.4,6.4,43.7c-1.3,6.6-4.1,12.6-9.9,16.8
				c-6.2,4.4-12.5,4.7-19.2,1.2c-9.4-4.8-14.2-12.8-20.5-23.7c-0.5-1-3.9-6.8-4.4-10.7c-0.1-1.1-0.4-2.1-0.6-3.2
				c-0.4-2.4-0.6-3.5-1.4-3.9c-0.4-0.2-1-0.2-1.4,0.1c-2.1,1.4,1.8,10.9,2.4,12.5c2.2,5.2,4.9,9.7,4.8,15c0,0.6-0.1,1.4-0.6,1.8
				c-2,1.4-8.2-4.2-10.3-6.1C252.9,566.3,246.8,541.6,246.5,539.1L246.5,539.1z M320.4,623.9c-4.5,7.2-9.4,5-13.8-0.3
				c-0.6-0.8-0.3-3.5,0.4-4c7.3-4.5,10.5-11.7,14.1-18.9c1.6-3.3,3.4-6.6,5.8-11.2C328.4,602.7,326.7,613.8,320.4,623.9L320.4,623.9
				z M296.1,616.7c-6.5,4.5-12.7,9.5-21.3,4.6c-5.7-3.2-9.1-16.2-5.4-21.5c1.8-2.6,3.5-5.2,5.1-8c1.6-2.7,2.9-5.6,4.3-8.3
				c0.6-0.2,1.2-0.4,1.8-0.6c2.4,11,10,18.1,17,25.7C300.2,611.3,299.5,614.3,296.1,616.7L296.1,616.7z M297,704.7
				c-8.2,27.7-9.6,55.3-0.2,83c0.4,1.3,2.7,5.6,1.1,9.6c-0.8,2.1-1.9,2-2.7,4c-0.8,1.9-0.3,4.1,0,5.2c0.8,3,0.7,7.1,0.5,15.3
				c0,2-0.5,17.7-7.2,20c-1.6,0.6-3,0.1-4.4,1.4c-2,1.8-0.5,4.4-2.3,6.9c-2.4,3.2-6,4.3-7.6,4.8c-0.7,0.2-9.5,2.7-11.8-1.1
				c-0.3-0.4-1.2-2.2,0.3-5.7c0.6-0.6,1.5-1.6,2.4-2.8c1.7-2.2,3.2-4.2,2.7-4.9c-0.6-0.8-3.7-0.2-5.8,1.6c-1,0.9-0.9,1.3-3.4,5.4
				c-1.6,2.6-2.1,3.2-3.1,3.8c-0.6,0.4-2.4,1.5-4,1c-1.2-0.4-1.2-1.3-2.4-1.6c-1-0.2-1.5,0.4-2.7,0.7c-1.9,0.4-2.4-0.6-4.9-0.9
				c-2.7-0.3-3.2,0.8-5.6,0.5c-1.1-0.2-2.8-0.6-4.6-2.1c-4.4-2.8-3.9-8.6,1.1-12.9c5.7-4.8,11.7-9.3,17-14.5
				c2.1-2.1,3.7-3.7,4.5-4.6c0,0,7.1-7.8,12.3-17.2c8.6-15.5,0.7-66.2-4.9-101.2c-3.2-20.2-5-30.2-1.6-40c0.9-2.7,4.8-12.6,6.5-26.5
				c0.2-1.5,0.3-2.8,0.4-3.6c3.1,6.5,4.9,12,6,16.1c1.8,6.5,2.9,13,5.8,13.4c0.1,0,0.9,0.1,1.6-0.4c2.9-2.1-0.8-11.9-2.4-16.2
				c-2.7-7.3-6.6-14.6-5.1-18.5c0.3-0.7,0.6-0.9,0.8-1c1.9-0.7,3.7,5.6,7.8,6.8c5.8,1.6,12.1-8.6,16.4-6.3c0.7,0.4,1.1,1,1.3,1.3
				c2.3,3.8-2.6,10.3-4.9,14.1c-8.1,13.7-4.3,31.3-2.7,31.6c1,0.2,1.5-6.4,6.8-15c4.6-7.4,10.8-13,12.1-12.2c0.8,0.5-0.5,3.1-2,12.4
				c-0.5,3-0.8,4.9-0.6,5c0.4,0.1,1.9-3.2,6.6-17.4c4,11.3,8.1,22.2,11.7,33.2c4.6,13.8,3.8,27-5.8,38.7c-4.5,5.6-6.5,5.3-10.1-0.9
				c-4.2-7.1-4-14.8-4.1-21.3c-0.1-11.9,0.6-19.8,0-19.9c-0.3,0-0.6,1.5-1.4,4.5c0,0-1.7,7.1-5.6,21.3
				C298.3,700,297.7,702.4,297,704.7L297,704.7z M353.1,734.1c-2.9,8.5-7.7,15.8-14.1,22.1c-3.4,3.4-7.4,5.7-12.5,5.1
				c-11-1.3-18,4.3-23.2,13.1c-1,1.7-2.2,3.2-3.3,4.8c-1.1-14.1,2-26.8,10-38c1.1-1.5,3-3,4.8-3.4c12.4-2.8,21.5-10.2,29-20
				c0.5-0.7,0.8-1.5,1.1-2C352.7,720.1,355.6,726.8,353.1,734.1L353.1,734.1z M338.9,540.9c-2.3-1.2-2.2-2.8-1.9-5.4
				c0.6-4.1,0.8-8.7-0.3-12.6c-4.9-16.8-13.4-31.8-23.3-46.1c-4.3-6.3-8.1-13-12-19.6c-1.1-2-1.8-4.2-2.8-6.4c3.9-2.8,5.5-0.7,7,1.8
				c6.4,10.7,12.7,21.5,19.2,32.1c12.9,21.2,25.8,42.3,38.7,63.5c1.1,1.8,2,3.7,2.2,6.4C356.8,550,347.8,545.5,338.9,540.9
				L338.9,540.9z M390.7,579.5c2.4-6.4-1.5-9-6.6-10.3c-7.2-1.8-11.4-5.6-12.7-13.3c-0.8-4.3-3.2-8.4-5.5-12.2
				c-8.1-13.8-16.6-27.3-24.8-41c-9.2-15.2-18.3-30.5-27.4-45.8c-0.3-0.5-0.4-1.1,0.3-2.7c1.7,1.2,4,2,5.1,3.6
				c19.2,28.8,41,55.9,57.6,86.4c3.5,6.4,7.8,12.3,11.9,18.4c0.7,1,2.2,1.5,4.6,3c-1.5-7.5-2.2-13.8-4.1-19.8
				c-8.5-27.1-11.9-54.9-12.6-83.2c-0.2-8.3,0.2-8.9,9.2-11c-3.6,45.1,9.5,87.8,19.2,132C399.3,582,395.2,580.8,390.7,579.5
				L390.7,579.5z M488.8,602.2c-1,6.6-2.2,13.1-3.4,19.7c-0.3,1.7-1,2.9-2,3.5c-1.3,0.7-2.9,0.3-3.8,0c-11.6-3.5-12.1-3.9-12.3-4.7
				c-0.6-2.4,2.9-3.6,6.5-9.9c2.5-4.3,4.6-10.2,3.2-11.3c-1.8-1.3-6.9,7.2-15.8,8.7c-6.5,1.2-12-1.9-17.2-4.9
				c-12.5-7.2-20.3-18.5-27.4-30.4c-1.1-1.8-3.8-7-9.2-17.4c-3.9-7.5-5.9-11.2-6.1-11.7c-3.3-7.5-3.3-10.7-8.6-36.7
				c0-0.2-0.4-3-1.1-6.9c-1.2-6.7-1.2-12.9,2.2-19.3c2.5-4.6,3.1-10.1,4.7-15.2c0.8-2.7,1.8-5.3,2.8-7.8c12.4,4.3,24.7,7.5,36,12.8
				c6.8,3.2,12.8,9,18,14.8c16.8,18.5,28.7,39.8,31.8,64.9c0,0,4.2,16.5-1.3,23.7c-0.5,0.7-2,2.6-4.3,2.9c-2.7,0.4-5.3-1.5-6.5-3.5
				c-1.8-2.7-1.3-5.9-1.2-6.8c1.3-10.7-7.9-30-9.8-29.6c-2.7,0.6,3.8,44.4,6.9,44.2c0.9,0,0.6-3.5,2.5-4.2
				c3.6-1.3,12.1,8.5,14.8,19.9C488.5,599.3,488.9,601.2,488.8,602.2L488.8,602.2z M497,670.3c-0.6-0.1,1.8-6.7-0.1-15.9
				c-2.1-9.8-6.9-12.6-7.1-21.8c-0.1-3.5,0.5-9.1,2.2-9.3c2.5-0.4,7.6,11.3,8.6,23C501.8,659.2,497.8,670.4,497,670.3L497,670.3z
				 M491.4,539.6c-1.2-7.6-4.4-14.8-6.6-22c13.2,7.8,24.8,26.3,23.1,37.6C499.2,553,492.9,549.4,491.4,539.6z M504.5,711.3
				c2.8-4.5,5-8.1,7.4-12C513.9,704.7,512.1,707.7,504.5,711.3z M497.4,496.3c-1.5-8,2.7-16.2,10.2-19.8c1-0.5,3-0.7,3.4-0.2
				c0.7,1,0.7,2.6,0.6,3.9c-0.1,0.9-0.8,1.8-1.2,2.7c-4.1,9.3-5.4,18.2,3.7,25.9C505.2,508.2,498.7,503.2,497.4,496.3L497.4,496.3z
				 M530.8,604.3c1.6-8.8-1.8-15.2-5-21.6c-3.2-6.3-6.6-12.6-10-19.2C528.9,567.4,539,592.2,530.8,604.3z M539.9,443.5
				c-1.7-3.6-3.4-7.2-5-10.8c0.5-0.2,0.9-0.4,1.4-0.6c1.7,3.6,3.3,7.2,5,10.8C540.8,443,540.3,443.2,539.9,443.5L539.9,443.5z
				 M558.1,585.5c2.6-4.4,5.3-8.4,7.4-12.6c2.1-4.2,3.5-8.8,5.3-13.4C575.7,568,571,577.7,558.1,585.5z M587.1,491.2
				c-4.4,0.7-9,0.6-13.4,1.2c-6.9,0.8-11.2-2.5-13.7-8.4c-3.4-8.2-6.5-16.5-9.2-25.1c2.1,4.2,4.2,8.4,6.3,12.7
				c2.4,4.9,4.4,10,7.2,14.7c1.1,1.8,3.8,3.8,5.8,3.8c7.3-0.1,14.6-1,22.6-1.6C590.7,489.5,589,490.9,587.1,491.2L587.1,491.2z
				 M555.7,453c0.7-0.1,1.4-0.2,2.1-0.3c0.3,4.4,5.9,7.8,1.7,12.9c-0.6,0.1-1.3,0.1-1.9,0.2C556.9,461.5,556.3,457.2,555.7,453
				L555.7,453z M597.3,472.2c-0.6,5.8-5.3,10.4-11.8,10.9c-5.8,0.4-11.6,0-17.4-0.5c-1.7-0.2-3.9-2-4.8-3.6c-3.6-6.4-2.8-8.1,4.4-12
				c0.2,2.1,0.7,4.1,0.5,6c-0.5,4.4,2,7,5.8,7.2c5.4,0.3,10.8-0.4,16.2-1.1c1-0.1,2.1-2.2,2.5-3.6c0.4-1.2-0.1-2.6,0-4
				c0-1.7,0.2-3.5,0.5-5.2c0-0.1,2.4-0.2,2.6,0.2C596.5,468.2,597.5,470.2,597.3,472.2L597.3,472.2z M563.9,463.1
				c1-6.8,1.7-11.9,2.5-17.3c4.2,1.2,3.7,4.3,3.5,6.9C569.7,456.5,569,460.3,563.9,463.1z M595,444.3h-19.5
				C579.7,441,591.6,441,595,444.3z M573.7,412.6h23C590.2,417.3,578.5,417.7,573.7,412.6z M579.7,473.9c2.7,0.4,5.8-2.7,8.7-4.2
				c2.8,4.7,1.7,7-3.5,7.9c-0.6,0.1-1.3,0.1-1.9,0.4c-3.7,1.9-8,2.4-10.5-0.9c-1.7-2.2-1.2-6.2-1.7-9.4c0.5-0.1,1.1-0.1,1.6-0.2
				C574.8,469.8,577,473.5,579.7,473.9L579.7,473.9z M597.9,456.2c1.6-4.6,3.1-9.2,4.9-14.5C605.7,446.5,604.8,449.2,597.9,456.2z
				 M608.3,431.4c-0.7,2.6-1.6,5.1-5.5,4.6c1.4-2,2.5-3.6,3.7-5.3c-0.3-0.2-0.5-0.4-0.8-0.6c-0.6,0.7-1.1,1.6-1.8,1.9
				c-1.4,0.6-3.6,1.6-4.3,1c-1.2-0.9-2.2-3.2-1.9-4.5c0.8-3,2.5-5.8,3.9-8.6c2.7-5.4,0.7-10-5.2-10.4c-7.3-0.4-14.7-0.2-21.9,0.6
				c-6,0.7-8,5.3-5.3,10.7c1.9,3.8,4.5,7.2,6.9,10.8c-3.2,0.9-6.3,1.8-9.3,2.6c0.1,0.4,0.1,0.7,0.2,1.1c1.2,0.1,2.4,0.3,3.6,0.4
				c-0.1,0.1-0.2,0.5-0.4,0.5c-7.8,2.2-11.1,1-15.5-5.9c-1.2-1.8-2.1-3.8-3.1-5.6c-1.3-1.2-2.6-2.4-3.7-3.8
				c-5.1-6.1-11.2-6.2-16.5-0.4c-0.6,0.7-1.1,1.4-1.7,2.1c-0.5-0.2-1.1-0.5-1.6-0.7c1.1-2.6,1.5-6.6,3.4-7.6
				c7.1-3.7,14.7-6.4,21.8-9.3c-2.9-3.9-7.4-3.5-12.5-2c-5.9,1.6-11.8,1.5-17-2.9c-0.9-0.7-4.1-0.5-4.3,0.1c-0.8,2-1.7,4.8-0.8,6.3
				c1.4,2.2,4.2,3.6,6.8,5.7c-3,2.3-5.5,5.7-8.7,6.5c-3.5,0.9-6.9-1.4-8.2-5.6c-3.2-9.8,0.5-20.2,9.6-26c11.8-7.6,13.2-7.5,21.7,3.5
				c4,5.2,8.2,9.3,15.5,5.9c1-0.4,2.3-0.1,2-0.1c3.1,3.9,5.6,7,8.1,10c0.4-0.3,0.8-0.6,1.2-1c-1.9-2.1-3.8-4.2-5.8-6.4h10
				c0.1-0.5,0.2-1,0.3-1.6c-2.9-0.6-5.8-1.2-8.7-1.8c2-6.6,6.8-8.7,14.7-6.1c4.5,1.5,8.8,3.8,13.7,0.6c-0.9,1.5-1.8,2.9-2.9,4.6
				c0.8,0.6,1.5,1.3,2.4,1.6c2.6,1.1,6,1.2,4.6,5.7c-0.2,0.6,1.9,2.1,3.1,2.9C607,411.1,611,421.6,608.3,431.4L608.3,431.4z
				 M680.7,570.2c-1-2-2.3-3.3-2-4.2c1.5-6.9,3.5-13.7,8.9-20.3C685.2,554.2,683.2,561.5,680.7,570.2z"/>
			<path d="M551.7,424.6C551.7,424.6,551.7,424.7,551.7,424.6c0.1,0.1,0.1,0.1,0.1,0.1L551.7,424.6L551.7,424.6z"/>
			<path d="M116.9,460c0.1,0,0.1,0.1,0.2,0.1C117.1,460,117.1,460,116.9,460C117,459.9,116.9,460,116.9,460z"/>
			<path d="M270.3,431.1L270.3,431.1L270.3,431.1L270.3,431.1z"/>
			<path d="M395.2,178c3-1.4,4.1-4.8,4.9-7.3c1-2.9,1.2-6.3,0.4-6.5c-0.5-0.2-1.3,1.5-4.6,5.4c-1.5,1.8-2.3,2.5-3.5,2.8
				c-1.5,0.3-2.7-0.2-3.7-0.6c-3.4-1.5-4.4-4.2-5.4-3.9c-0.8,0.3-1.2,2.1-0.9,3.6C383.2,175.9,390.5,180.2,395.2,178L395.2,178z"/>
			<path d="M395.3,246.3c-2.6,0-4.9,0-5.5,1.3c-0.7,1.4,1,3.8,2.9,4.8c2,1.1,5,1.3,6.8-0.5c1-1.1,1.8-3,1-4.3
				C399.7,246.3,397.8,246.3,395.3,246.3L395.3,246.3z"/>
			<path d="M336.9,368.5c4.2,0,8.5-2.4,8.3-3.8c-0.2-1.5-5.3-2.1-8.5-2c-2.9,0.1-7.8,0.8-8,2.3C328.6,366.4,332.8,368.5,336.9,368.5
				L336.9,368.5z"/>
			<path d="M408.9,281.4c1.8,0.3,3.2-0.7,4.8-1.8c1.7-1.2,5.1-3.7,5.7-7.9c0.5-3.4-1.1-6.7-1.8-6.7c-0.6,0.1,0,2.7-1.3,5.5
				c-2.7,5.5-10.6,5.5-10.5,8.2C405.7,279.9,407.5,281.1,408.9,281.4L408.9,281.4z"/>
		</g>
		<path class="st0" d="M448.6,723.6c-2.9,9.6-4.4,14.5-8.2,18.5c-4.3,4.5-8.1,5.3-9,9.5c-1.1,5.4,3.9,10.4,4.9,11.4
			c5.4,5.2,9.7,3,16.4,6.3c11,5.4,16.2,19.8,20.8,32.3c0.7,2,2.6,7.2,6.4,13.6c3.5,5.8,6.2,8.8,9.9,10.6c2.5,1.3,4.7,1.7,5.9,1.9
			c1.5,0.3,9.3,1.6,11.1-1.2c2.4-3.8-7.5-13.1-6.4-14.1c0.8-0.8,6.7,2.5,9.8,8c1.1,2,1,2.7,2,3.6c4,3.1,12.2-1.6,13.9-2.6
			c3-1.7,5.3-3.1,5.6-5.4c0.4-3.1-3-5.8-5.6-8c-6.2-5-12.2-10-18.5-14.9c-5-3.9-9.1-10.9-17.5-24.9c-8.3-14-12.5-21-13.9-26.5
			c-2.8-10.6,0.2-14.9,5.6-41.5c8.4-41.6,5.4-52.1,0-58.2c-0.1-0.1-0.2-0.3-0.2-0.3c-1.6-1.6-4.7-1-5.6-0.9c-5.5,1.1-7.8,9-12.6,9.4
			c-4.6,0.4-10.1-6.2-12-12.2c-2.4-7.3,0.8-11.9-3-16.3c-2-2.3-5.6-4.1-7.6-3c-1.2,0.7-3.1,3.1,0,19.2c2.8,14.5,5.4,18.3,8.6,31.4
			c2.5,10.1,4.4,17.8,4,28.3C453.2,708.6,450.7,716.7,448.6,723.6L448.6,723.6z"/>
		<path class="st0" d="M455.5,623.3c-0.9,2.5-2.6,7.1-0.3,10.9c3.1,5.2,12,6.5,17,2.8c2.4-1.7,4.9-5.3,3.8-7.8
			c-1.6-3.6-9.3-1.2-11.7-5.1c-2.6-4.3,4.1-11.6,2.8-12.7C465.9,610.4,458.4,615.4,455.5,623.3L455.5,623.3z"/>
	</g>
</g>
</svg>
