<?xml version="1.0" encoding="UTF-8"?>
<svg id="Layer_1" data-name="Layer 1" xmlns="http://www.w3.org/2000/svg" viewBox="0 0 775.67 815.99">
  <defs>
    <style>
      .cls-1 {
        fill: #000;
      }

      .cls-1, .cls-2 {
        stroke-width: 0px;
      }

      .cls-2 {
        fill: #fff;
      }
    </style>
  </defs>
  <path class="cls-2" d="M767.97,532.17c-4.26-8.71-6.87-10.44-16.45-9.52-7.94.76-15.8,2.3-23.73,3.2-7.63.86-15.3,1.34-22.96,1.99-.1-.53-.19-1.05-.29-1.58,18.72-9.07,29.48-21.79,32.51-28.27,3.39-7.25,4.51-15.02,4.51-15.02.17-1.2.27-2.18.33-2.81,0,0,0,0,0,0,.34-2.88.52-7.14-.46-12.13-.32-1.61-1.72-8.24-6.53-15.18-7.76-11.22-19.16-15.43-24.65-17.47-3.6-1.34-6.72-2.12-8.92-2.57,2.79-2.09,4.79-4.06,6.13-5.52,1.94-2.12,3.16-3.57,5.46-5.54,1.18-1.01,2.73-1.6,4.12-2.38-.09-.66-.18-1.32-.27-1.98-7.2-.29-14.63-.46-22.28-.48-9.13-.03-17.94.15-26.45.48-.83-57.22-1.65-114.46-2.48-171.7v-2.24c.45-.01.9-.03,1.34-.04,3.53-.11,4.65-2.54,4.14-6.01-.43,0-.85,0-1.27,0-.26-.38-.7-1.14-.82-2.19-.09-.82.04-1.52.21-2.04.11-.23.22-.5.33-.81,0,0,0-.01,0-.02,0,0,0,0,0,0,.23-.64.48-1.44.79-2.44,2.3-7.28,4.87-14.47,7.5-21.64,1.24-3.37,3.15-5.59,7.55-4.42,1.72.46,4.26-.64,5.93-1.76,5.69-3.83,7.67-10.29,5.54-16.71-.43-1.3-1.21-3.52-3.32-5.28-.62-.51-1.2-.86-1.61-1.08.61-1.44,1.05-2.6,1.33-3.49.28,0,.57,0,.85-.01,1.45-.03,4.03-1.57,4.12-2.58.77-8.91,1.09-17.85,1.58-27.57-.26,0-.53.01-.79.02.03-.38.05-.75.08-1.13.56,0,1.11,0,1.67,0,.65-4.87,1.16-8.73,1.79-13.45-.85.02-1.69.04-2.53.07.04-.64.09-1.29.13-1.93,4.37-.29,8.73-.69,13.05-1.28,8.21-1.12,14.64-5.51,17.4-13.86,3.31-10.02-3.24-19.25-12.87-17.51-6.36,1.15-12.23.37-18.16-1.42-52.79-15.93-105.7-31.44-158.31-47.94-44.98-14.11-89.61-29.34-134.36-44.15-10.8-3.58-21.28-3.83-32.25,0-44.52,15.52-89.18,30.63-133.79,45.91-67.77,23.21-135.55,46.42-203.31,69.67-2.66.91-5.33,2.02-7.7,3.5-4.32,2.7-5.77,8.28-3.96,13.79,1.41,4.31,4.14,7.27,7.57,8.35,1.06.34,1.96.36,3.65.44,3.4.15,6.2-.28,8.09-.68.04.51.09,1.03.13,1.54-.74.02-1.49.04-2.23.07.27,2.35.68,3.82.57,5.23-.29,3.51.59,5.28,2.62,6.07.07.87.15,1.75.22,2.62l-.93.02c.32,6.12-.21,11.17.06,14.81.59,7.98-.62,10.08,3,10.57.06.73.12,1.47.18,2.2-.21,0-.43,0-.64,0-9.46.02-16.43,3.82-18.63,11.18-2.54,8.5,3.32,17.03,11.25,15.43,5.27-1.06,7.66,1,9.09,5.11,3.45,9.9,5.46,14.76,6.37,20.42.26,1.6.61,4.01.88,6.99h-3.02c-.61,2.93-.36,4.89.69,6.09,1.06,1.22,2.86,1.34,4.94,1.55,1.45.15,2.66.07,3.47-.02.4,11.92.8,23.85,1.2,35.77.21,10.45.42,20.89.62,31.34-.89,16.64-1.78,33.28-2.67,49.92-.63-.79-1.2-1.58-1.7-2.37-6.31-9.94-4.47-21.84-2.83-28.32-1.28,1.21-2.7,2.78-4.01,4.79-3.23,4.97-4.02,9.92-4.23,12.79-2.76-6.16-5.79-12.91-8.83-19.68,6.3-4.15,8.18-9.25,5-15.42-.71-1.37-3.64-2.92-4.85-2.48-3.59,1.32-5.81,8.43-5.41,13.65-4.14-9.25-10.67-13.82-18.19-12.19,7.93,13.69,10.77,18.14,19.18,15.98.09.15.18.3.27.44,2.54,3.62,4.75,7.49,6.97,11.33,5.52,9.58,5.65,11.54,10.23,18.03,1.4,1.98,3.4,4.53,6.09,7.33.02,14.79.05,29.59.07,44.38-.73,0-1.46,0-2.2,0-.33,0-.65,0-.98,0,.78-2.06,1.51-4.42,2.01-7.1,1.52-8.04.37-14.88-.76-19.17-2.27,5.11-3.48,9.49-4.17,12.54-.48,2.11-1.04,4.61-1.32,6.96-2.12-6.89-3.07-10.49-3.17-14.79-.11-5.01.72-10.04,2.49-15.11.44-1.24.61-2.6.72-3.92.56-6.21-1.5-11.65-4.62-16.79-6.44,1.94-6.87,7.47-9.02,12.08-2.5,5.38.73,9.3,2.9,14.69-.87-1.39-1.54-2.61-2.05-3.6-2.6-5.11-7.24-14.24-7.15-23.33.01-1.28.09-4.22-1.8-6.16-.81-.83-2.03-1.43-3.87-1.64-.75,3.45-1.47,6.8-2.2,10.15-1.39-2.99-1.78-5.92-2.67-8.68-1.48-4.57-5.54-3.98-9.16-4.15-3.28-.16-3.37,2.27-4.18,4.51-.55,1.53-2.16,2.68-3.93,4.75,3.42,4.86,8.22,9.98,15.58,8.83,3.87-.6,5.05-.78,7.8.42,4.6,1.99,5.03,6.83,9.86,14.47.83,1.32,1.67,2.5,2.47,3.58-4.85-4.28-9.69-6-15.43-5.53.83,8.13,7.52,17.12,14.77,17.11,2.84,0,4.72.64,6.04,1.7,1.47,1.18,2.21,2.69,3.87,8.14.54,1.78,1.16,3.91,1.82,6.34-2.07-2.53-5.11-5.28-9.4-6.94-3.16-1.22-6.06-1.48-8.17-1.46,2.9,3.49,7.69,8.21,14.81,11.48.46.21.92.41,1.37.59-4.17-.03-8.26-.05-12.34.08-20.05.62-33.21,11.71-36.9,31.41-4.34,23.19,3.69,42.6,19.29,59.33,1.15,1.23,2.64,2.46,4.22,3.38-1.35,0-2.69,0-4.04,0-.56,3.23-.73,7.88,2.04,10.76.77.8,1.45,2.05,5.27,2.84,3.42.71,8.24,1.23,9.71,3.56,4.21,6.64,8.03,13.72,7.59,22.26-.67,12.96-.79,18.78-1.26,38.89-.1,4.51-.1,8.22-.09,10.67-4,.58-7.66,1.88-10.81,4.21,0,0-3.74,2.8-6.3,7.36-5.33,9.51-2.03,26.44,8.24,43.57-.78-.21-1.57-.42-2.35-.64-4.62,10.58-2.42,15.55,8.12,18.63.51.15,1.03.29,1.54.43,2.39,6.96,4.66,13.49,6.8,19.54,1.19,3.44,2.37,6.79,3.59,10.08.04.1.07.21.11.31,1.54,4.29,3.15,8.71,6.14,14.25,3.82,7.08,7.96,12.39,11,15.88,2.62,4.33,5.14,7.52,6.93,9.62,5.13,6.01,7.06,8.77,10.95,14.25,2.13,3,2.48,5.8-1.44,8.41-1.84,1.22-3.22,4.3-3.38,6.64-.42,6.11,2.85,10.87,8.3,13,4.52,1.76,9.65,2.6,14.53,2.69,22.49.4,44.99.45,67.48.48,3.28,0,4.99.94,6.14,4.27,5.63,16.33,11.61,20.6,28.63,20.63,72.15.13,144.3.22,216.45.27,21.83.02,43.66.18,65.48-.31,2.33-.05,6.98-.26,11-3.33,7.25-5.54,7.84-16.92,8.24-24.73.23-4.43-.02-8.25-.35-11.19,34.71.06,69.43.11,104.14.1,4.99,0,10.01-.11,14.96-.62,8.62-.89,14.72-5.96,17.5-13.75,1.77-4.96,4.34-5.56,8.76-5.56,20.16.01,40.35.38,60.47-.62,20.51-1.02,29.71-16.17,21.67-34.87-8.48-19.73-3.32-50.72,14.91-61.93,2.83-1.74,3.39-4.23,1.7-7.29-6.24-11.28-8.78-23.64-10.55-36.25-1.71-12.23-3.51-24.4.91-36.47,1.34-3.66,2.4-7.57,7.11-8.01,4.05-.38,6.47-2.79,7.74-6.18,1.5-1.62,3.45-4.07,5.08-7.41,1.71-3.5,2.44-6.69,2.77-8.93.21-3.75.41-7.49.62-11.24,1.19,0,2.38,0,3.56,0-1.11-2.47-1.69-3.85-2.34-5.18ZM59.78,200.21c-4.14-3.09-9.15-5.19-15.06-6.4,5.31.76,10.61,1.2,15.9,1.41-5.3-.47-10.6-.94-15.9-1.41,5.02,2.13,10.04,4.27,15.06,6.4Z"/>
  <g>
    <path class="cls-1" d="M182.65,407.73c.63-1.14,1.56-3.06,2.71-4.83,4.43-6.79,4.45-6.78,12.06-5.02,3.69.85,5.66,1.25,7.06.52,1.74-.91,2.42-2.77,3.62-6.18,1.72-4.89,1.31-7.45,3.16-8.3.54-.25.56-.03,3.55-.08,2.7-.05,4.05-.08,4.53-.58.96-1.02-.14-2.85-.86-6.28-.77-3.65.04-3.62-.5-9.02-.65-6.46-1.79-6.29-1.33-9.32.18-1.18,1.17-3.56,3.17-8.31.91-2.16,1.64-3.58,1.81-5.8.22-2.75.28-5.66-3.31-6.89-1.39-.48-2.88-1.49-3.71-2.69-9.34-13.62-22.55-18.26-38.29-15.9-14.74,2.21-25.87,15.74-25.24,29.67.16,3.52.72,6.64,5.4,5.26-1.45,3.62-2.83,7.04-4.65,11.59.89-8.31-.19-10.6-5.06-12.34-6.56-2.34-14.43,1.53-16.58,8.16-2.36,7.28.49,13.56,8.74,19.27,6.88,4.77,13.06,3.3,17-4.14,1.22-2.3,2.18-4.73,3.23-7.05,3.61.8,4.15,2.75,3.34,5.68-2.65,9.59-9.7,14.77-18.24,18.49-2.84,1.24-5.7,2.42-9.5,4.03,9.64,4.46,13.32,12.46,17.26,20.38,5.25,10.56,10.19,21.36,16.43,31.34,5.97,9.55,9.31,8.99,15.84-.17,6.83-9.58,7.62-20.34,6.84-31.5-.87-1.02-3.16-3.71-4.02-4.72-1.04-1.22-3.43-4.03-4.47-5.26ZM179.98,363.55c-.43-.09-4.34-.89-4.86-3.81-.49-2.76,2.39-5.45,3.14-5.14.39.16.36,1.17.21,2.26.1,4.41,1.2,5.34,7.57,5.26-.47.34-2.93,2.07-6.06,1.43Z"/>
    <path class="cls-1" d="M491.24,295.74c.71,1.05,3.03,1.41,4.32,1.41,1.03,0,1.66-.24,2.11.18.66.6.03,1.73,0,3.15-.06,3,3.91,3.14,4.41,7.93.46,4.45,2.53,5.23,6.19,5.12,9.19-.29,9.3-.23,12.05,8.47.85,2.69,1.2,5.55,2.09,8.22,1.66,5,.17,8.03-5.1,9.03-3.78.72-5.29,3.38-3.86,6.56,2.55,5.69,5.62,11.18,8.84,16.53,1.74,2.89,4.71,3.34,7.24.91,5.1-4.9,9.97-10.03,14.93-15.07-5.1,1.03-9.31,3.57-13.86,4.59-2.8.63-6.67-.28-9.06-1.94-2.99-2.08-4.78-5.7-4.97-8.94,3.71,2.35,7.08,6.24,10.54,6.32,8.48.2,16.9-1.98,23.84-7.31,6.42-4.93,13.49-7.89,21.38-6.2,8.61,1.84,16.95,4.93,25.9,7.63,4.34-3.78,4.07-4.46-2.37-7.35-1.99-.89-3.86-2.89-4.92-4.85-2.14-3.98-4.79-6.87-9.12-8.7-4.49-1.9-8.65-4.65-12.78-7.32-2.76-1.78-2.85-4.11.2-5.78,3.05-1.68,5.77-4.16,4.35-7.43-1.39-3.2-4.14-6.3-7.1-8.18-2.46-1.57-6.15-1.1-9.18-1.93-1.95-.54-3.7-1.8-6.3-3.12,10.5-5.14,14.47-14.86,11.59-25.85-3.82-14.57-16.72-23.25-33.11-22.27-8.87.53-13.43,2.89-13.94,7.01-4.34-1.51-8.65-3.24-11.93.78-.87.23-2.37.76-3.79,2.03-.76.68-1.28,1.38-1.64,1.95-.47,0-2.79.02-4.37,1.78-1.44,1.59-1.36,3.6-1.32,4.41.15,3.86,3.9,7.57,9.31,9.76-.93.81-3.88,3.52-4.93,7.22-.37,1.31-.73,2.56-.35,4.05.28,1.08.73,1.47.79,2.47.1,1.54-.85,2.75-1.27,3.3-1.56,2.08-6.32,9.17-4.81,11.41Z"/>
    <path class="cls-1" d="M381.73,309.01c.02-.06.05-.11.07-.19.73-1.79,2.31-3.72,2.01-5.31-.28-1.45-2.46-2.69-4.02-3.67-.89-.56-2.5-.06-3.31-.67-3.17-2.36-6.05-5.12-9.23-7.46-9.85-7.25-20.88-8.57-32.25-5.02-11.59,3.62-19.42,11.61-22.33,23.51-2.24,9.18,3.08,16.63,12.76,16.88-7.95.78-11.87,3.7-12.11,10.81-.07,2.08-2.18,4.13-3.45,6.13-.97,1.54-2.31,2.87-3.1,4.48-1.83,3.76-1.81,7.71,1.33,10.61,3.08,2.85,6.46,1.08,9.69-.55,2.31-1.17,4.86-1.87,8.16-3.1-2.39,11.02-6.7,18.39-18.83,17.84,3.53,4.91,6.2,8.92,9.18,12.69,2.99,3.77,6.02,7.58,9.49,10.89,10.98,10.48,12.92,10.37,24.18.24,8.75-7.88,17.59-15.66,26.36-23.52.4-.36.45-1.11.92-2.37-3.38-.22-6.3-.42-9.23-.59-3.09-.18-6.19-.34-9.22-.51-.45-10.48.29-11.36,9.96-11.35,1.82,0,3.26-.39,4.17-1.36.32-.34.71-.91,1.04-2.68.8-4.25-.45-6.52.83-7.66.26-.23.47-.27,2.14-.49,5.56-.7,6.12-.59,6.57-1.12.8-.94-.09-3.08-1.86-7.36-1.69-4.09-3.03-5.74-3.73-6.53-1.31-1.48-1.57-1.17-2.05-2.05-1.28-2.35.35-4.51.66-8.92.08-1.2.09-2.95-.3-5.12,4.05-4.12,5.09-5.34,5.18-5.62,0-.02.13-.38.32-.86ZM317.77,318.67c.85-2.67,3.52-5.28,7.9-6.5,3.94-1.1,7.75-2.69,12-3.43-2.92,1.36-5.88,2.64-8.75,4.08-4.03,2.03-7.99,4.18-11.15,5.85ZM341.82,333.81c-1.39,1.79-6.75-2.25-9.57,0-2.42,1.93-1.11,7.01-2.9,7.42-.69.16-1.34-.49-1.42-.57-2.14-2.14,1.18-8.43,3.56-10.16.62-.45,1.06-.5,1.25-.51,1.3-.06,1.7,1.33,2.88,1.58,1.81.39,2.96-2.47,4.49-2.14,1.42.3,2.6,3.24,1.72,4.38Z"/>
    <path class="cls-1" d="M502.88,595.98c-2.82,1.72-5.13,3.32-7.61,4.58-2.51,1.28-5.2,2.22-7.8,3.33-25.96,11.1-53.41,15.05-81.3,16.67-49.08,2.86-97.88.34-146.28-8.49-14.26-2.6-29.16-3.29-41.49-12.5-2.62,13.65,1.94,24.29,13.91,27.57,2.89.79,5.73,1.91,8.67,2.32,25.05,3.51,50.02,8.39,75.19,9.91,30.03,1.81,60.23,1.02,90.35.77,27.73-.23,54.59-5.42,80.18-16.49,12.05-5.21,17.48-14.26,16.17-27.68Z"/>
    <path class="cls-1" d="M375.84,793.73c15.49.06,30.98.06,46.47.14,3.79.02,7.01-.19,8.7-4.65.79-2.1,3.12-3.99,5.2-5.16,9.34-5.26,16.51-12.92,22.96-21.15,5.16-6.58,9.32-13.96,13.92-20.99-.5-.45-1-.89-1.5-1.34-48.94,10.36-97.19,5.96-145.76-6.67,3.34,9.52,7.92,17.83,13.95,25.42,3.92,4.93,8.81,8.06,15.04,8.97,10.53,1.53,21.04,3.8,31.62,4.26,16.77.72,33.6.19,50.4.19,0,.55-.02,1.1-.02,1.64-29.57,1.83-58.97.63-88.47-4.9,4.61,4.17,9.45,7.84,14.59,11.03,4.8,2.97,9.88,5.46,7.86,12.77,2.11.19,3.57.44,5.03.44Z"/>
    <path class="cls-1" d="M476.5,731.69c-.21-6.59-.8-13.17-1.43-19.74-.31-3.15-2.17-3.97-5.3-3.15-5.79,1.52-11.61,3.16-17.53,3.92-42.66,5.49-84.66,3.58-126.71-12.28-.93,6.12-2.36,12.21-2.68,18.35-.4,7.72,1.48,10.27,8.96,12.15,10.96,2.75,21.99,5.46,33.15,7.17,35.61,5.45,71.23,6.73,106.74-1.26,3.33-.75,4.9-2.32,4.81-5.16Z"/>
    <path class="cls-1" d="M432.71,678.8c-5.11-1.69-10.69-2.28-16.1-2.63-5.26-.35-10.61.7-15.87.33-16.44-1.16-32.57.76-48.54,4.3-6.12,1.36-12.04,3.62-16.08,10.85,4.94,1.96,9.32,4.27,13.98,5.46,32.24,8.25,64.94,10.65,97.98,6.38,6.62-.86,13.06-3.16,19.58-4.8.15-.75.3-1.51.45-2.26-2.7-2.34-5.05-5.47-8.18-6.88-8.89-4.01-17.98-7.69-27.23-10.75ZM417.73,689.05c.61.2.22,3.76,0,5.75-.05.4-1.3.65-2.07.97-1.01-.26-2.55-.84-3.74-2.23-.54-.63-1.29-1.52-1.08-2.45.23-.98,1.39-1.47,2.51-1.94.51-.21,1.32-.55,2.42-.53.65.01,1.29.21,1.96.43ZM409.54,681.54c.59-.65,1.78-1.39,2.93-1.11.07.02.31.08.72.33.84.51,2.17,1.69,2.18,2.8.01,1.99-4.22,4.23-5.92,2.9-1.16-.91-1.18-3.52.1-4.93ZM373.43,686.01c1.63-1.63,4.66-1.75,5.61-.55,1.21,1.53-.69,5.54-3.46,6.79-.49.22-1.4.63-2.15.25-1.49-.77-1.96-4.52,0-6.48ZM364.99,698.48c-1.07.33-2.07-.09-3.49-.69-1.57-.66-3.24-1.37-3.63-2.74-.59-2.11,2.02-5.45,5.14-5.58,1.65-.07,3.61.76,4.46,2.48,1.25,2.52-.4,5.87-2.49,6.52ZM375.72,699.61c-.57.28-.66-.17-3.02-.45-1.02-.12-1.76-.12-2.35-.7-.18-.18-.41-.4-.48-.75-.28-1.38,2.37-2.78,3.38-3.32.31-.16.63-.38,1.05-.33,1.14.12,1.96.86,2.01.91,1.17,1.34.66,4.02-.59,4.64ZM387.89,702.31c-.38.22-1.05.47-4.89-.6-.93-.26-1.65-.54-2.6-.8-2.6-.7-3.44-.61-3.67-1.17-.32-.77.79-2.14,1.96-2.9,1.5-.98,3.57-.78,7.65-.4,2.11.19,2.58.39,2.91.8,1.02,1.27.29,4.13-1.37,5.07ZM391.33,696.41c-.88-.03-3.89-.17-6.56-2.47-.61-.52-4.57-3.94-3.52-7.93,1.07-4.07,6.72-6.27,9.19-4.82,1.62.94.8,2.82,2.41,3.91,3.33,2.26,11.22-2.89,12.08-1.53.01.02,0,0,.48,1.13.45,1.06.46,1.08.48,1.13.3,1.05-2.38,4.2-6,4.65-3.59.45-8.42-1.73-10.46-3.53-.29-.25-1.13-1.04-1.71-.79-.59.25-.58,1.45-.58,1.57.04,1.71,1.6,2.87,1.73,2.97,1.41,1.02,2.2.36,4.07,1.18,1.56.68,3.38,2.17,3.14,3.17-.28,1.16-3.21,1.41-4.74,1.36ZM406.43,696.75c-.02.07-.15.53-.36.95-1.33,2.72-6.51,5.18-8.3,3.58-1.35-1.21-.55-4.57.67-6.32.99-1.42,2.41-2.09,2.41-2.09.42-.2.76-.3,1.13-.4,1.66-.46,3.02-.84,3.9-.2,1.24.91.85,3.42.55,4.49ZM415.36,702.43c-1.81-.19-3.67-.06-5.43-.46-.09-.02-.34-.13-.65-.29-.74-.39-1.69-.9-1.76-1.61-.06-.7.77-1.36,1.51-1.94.01,0,.32-.25.61-.43,1.49-.9,5.2-1.75,5.96-1.92-.01,0-.03,0-.04.01,2.36-.11,5.53-1.05,5.69,2.64.16,3.78-2.74,4.33-5.88,3.99ZM427.11,702.22c-.48-.08-.73-.67-1.1-1.61-1.75-4.36-2.02-5.8-2.6-7.12-1.98-4.49-6.39-4.99-6.01-7.48.14-.88.82-1.63,1.49-1.92,1.66-.74,4,.92,5.66,2.1.36.26.81.58,1.41,1.12,1.52,1.37,4.52,4.09,4.79,7.7.27,3.66-2.33,7.43-3.63,7.22ZM430.84,689.79c.56-1.86.65-3.14.05-3.94-.62-.83-1.74-.56-3.83-1.02-2.88-.65-5.55-2.36-5.39-3,.17-.66,3.46-.64,6.33.15.9.25,5.18,2.42,7.87,6.05.57.76.32,2.46-.11,3.5-.23.55-1.89,1.08-2.49.78-1.03-.51-2.62-1.93-2.44-2.51ZM443.97,698.99c-.31,1.02-1.6,1.48-3.61,2.2-2.12.76-4.99,1.78-6.32.6-1.92-1.7-.76-8.07,2.59-9.1,3.48-1.08,8.03,3.97,7.34,6.31ZM455.03,699.87c-.73,1.48-5.02,1.6-7.71-.47-1.68-1.29-3.13-3.75-2.4-4.91.92-1.46,5.3-.93,7.94,1.33,1.07.92,2.75,2.88,2.17,4.06Z"/>
    <path class="cls-1" d="M672.88,484.52c0,11.39-.1,22,.14,32.61.03,1.24,1.86,3.46,2.95,3.52,14.35.8,29.59,4.67,39.85-10.35.21-.31.71-.43,1.12-.61,4-7.97,6.87-16.25,7.05-25.17h-51.1Z"/>
    <path class="cls-1" d="M609.07,563.81c5.28.35,9.88.65,14.95.99.21-2.01.4-3.16.44-4.31.62-18.31,1.12-36.62,1.9-54.92.15-3.54-1.75-3.89-4.23-3.93-8.66-.15-17.32-.18-25.98-.36-3.23-.06-4.03,1.4-3.5,4.36,1.11,6.31,5.83,11.86,12.11,13.07,3.51.68,4.7,2.29,4.65,5.67-.19,11.32-.23,22.65-.33,33.97-.01,1.74,0,3.49,0,5.46Z"/>
    <path class="cls-1" d="M721.48,460.82c-.29-1.38-2.59-3.29-4-3.31-14.91-.24-29.83-.15-45.07-.15v23.76h52.4c-1.14-7.3-1.96-13.86-3.34-20.3Z"/>
    <path class="cls-1" d="M435.56,659.99c.39-5.57-2.05-7.08-7.09-7.29-13.29-.54-26.57-1.46-39.86-2.19-5.78-.32-11.79.18-16.8-4.48,6.47,6.98,4.23,14.67,1.92,22.03,21.34,1.76,41.95,3.47,62.53,5.17-.25-4.01-1.02-8.66-.7-13.24Z"/>
    <path class="cls-1" d="M59.78,198.21c16.39,11.51,16.42,29.11,17.35,46.47,2.07,0,3.55.04,5.03-.02.98-.04,1.96-.22,3.62-.42.55-16.57.75-33.37,13.1-47.22h-38.36c-.25.4-.49.79-.74,1.19Z"/>
    <path class="cls-1" d="M289.94,658.94c-.88-3.79-1.89-7.54-2.83-11.31-.51.11-1.02.22-1.53.33,1.84,11.45,3.14,23.02,5.67,34.32,3.33,14.88,7.28,29.66,11.67,44.27,2.1,7,7.46,11.94,14.35,14.93-8.24-8.5-12.24-19.14-15.06-30.1-4.47-17.38-8.19-34.95-12.25-52.43Z"/>
    <path class="cls-1" d="M591.27,341.3c-8.95-3.01-22.68.71-28.75,9.32-7.91,11.22-14.69,23.23-21.96,34.9.67.45,1.35.9,2.02,1.35,1.84-2.88,3.7-5.75,5.52-8.64,5.21-8.32,10.14-16.83,15.66-24.93,4.95-7.24,12.38-10.35,20.92-8.67,7.16,1.4,9.86,7.81,12.39,13.89.73,1.76,1.42,3.54,2.64,6.59,1.48-2.46,2.71-3.67,2.97-5.06,1.08-5.76-5.81-16.87-11.4-18.76Z"/>
    <path class="cls-1" d="M458.1,705.75c-35.42,6.22-70.66,4.37-105.7-2.93-8.17-1.7-16.13-4.16-22.65-9.77-.28.29-.57.58-.85.86,1.52,1.34,2.85,3.09,4.61,3.94,4.33,2.09,8.74,4.15,13.33,5.53,20.44,6.14,41.54,8.27,62.7,8,17.25-.22,34.48-2.29,51.69-3.89,3.22-.3,6.29-2.22,9.43-3.4-.18-.42-.37-.84-.55-1.26-4,.99-7.96,2.21-12.01,2.92Z"/>
    <path class="cls-1" d="M511.91,590.22c5.09-40.1,7.59-80.44,10.24-120.76-.48-.14-.95-.27-1.43-.41-3.66,40.32-7.33,80.65-10.99,120.97.73.07,1.45.13,2.18.2Z"/>
    <path class="cls-1" d="M294.6,272.89h-18.31c-.35,4.64,1.89,5.99,5.07,5.99,8.81.01,17.62-.06,26.42-.31,3.37-.1,5.61-1.77,5.28-5.68h-18.46Z"/>
    <path class="cls-1" d="M185.8,501.51c-19.09,14.2-33.28,33.69-55.61,44.56,9.87.85,45.25-27.83,55.61-44.56Z"/>
    <path class="cls-1" d="M329.48,687.06c23.08-16.49,49.69-13.31,75.62-13.96-20.06-2.17-40.09-3.12-59.72,2.86-6.33,1.93-12.41,4.83-15.89,11.1Z"/>
    <path class="cls-1" d="M529.42,639.48c-.63,24.15-1.27,48.3-1.9,72.45.77-.02,1.54-.04,2.3-.06.64-24.11,1.29-48.22,1.93-72.32-.78-.02-1.56-.04-2.34-.07Z"/>
    <path class="cls-1" d="M327.52,687.7c3.63-13.74-.74-26.97-2.73-40.35-.81.06-1.62.11-2.44.17.99,13.44,1.98,26.89,2.97,40.33.73-.05,1.46-.1,2.19-.15Z"/>
    <path class="cls-1" d="M504.73,473.84c-2.09,25.31-4.19,50.61-6.28,75.92.62.05,1.23.1,1.85.15,2.1-25.31,4.21-50.61,6.31-75.92-.63-.05-1.25-.1-1.88-.16Z"/>
    <path class="cls-1" d="M172.72,477.31c-5.97,1.09-11.05,2.52-16.2,2.82-5.37.31-10.81-.46-16.19-.76,1.08,6.53,21.31,5.68,32.39-2.06Z"/>
    <path class="cls-1" d="M203.52,625.02c4.28-9.65,11.53-17.96,13.57-28.62-.73-.33-1.46-.65-2.19-.98-4.19,9.69-8.38,19.38-12.57,29.07.39.18.79.35,1.18.53Z"/>
    <path class="cls-1" d="M347.26,647.27l-1.64-.14c-.76,8.37-1.53,16.74-2.29,25.11.74.06,1.49.13,2.23.19,2.38-8.22,1.75-16.72,1.7-25.17Z"/>
    <path class="cls-1" d="M510.42,370.88v-29.39c-.29.02-.57.04-.86.06v29.35c.29,0,.57-.01.86-.02Z"/>
    <path class="cls-1" d="M504.57,373.36c.81-5.28,1.62-10.57,2.43-15.85-.23-.04-.45-.08-.68-.12-1.09,5.26-2.18,10.53-3.28,15.79.51.06,1.02.12,1.53.18Z"/>
    <path class="cls-1" d="M390.3,380.49c-1.51,12.89-3.02,25.79-4.52,38.68,6.01-12.46,5.26-25.66,6.46-38.65-.65-.01-1.29-.02-1.94-.04Z"/>
    <path class="cls-1" d="M214.87,789.67c14.96.26,29.93.29,44.9.17,1.19,0,3.13-1.4,3.42-2.5,2.86-10.83,5.45-21.74,8.03-32.29-11.31.55-22.73,1.51-34.14,1.53-11.42.02-22.84-.89-34.53-1.4,2.8,10.46,5.51,21.02,8.55,31.49.38,1.3,2.45,2.98,3.77,3ZM257.49,761.98c.36-1.69,3.77-2.72,5.78-4.06l2.36,1.87c-1.64,8.57-3.09,17.19-5.15,25.66-.26,1.08-3.68,1.4-6.98,2.53,1.4-9.73,2.28-17.95,4-26ZM244.38,763.01c.44-1.61,3.04-2.63,4.66-3.91,1.15,1.51,3.29,3.03,3.28,4.54-.01,6.77-.45,13.56-1.22,20.29-.13,1.11-2.62,2.6-4.1,2.7-1.1.07-3.16-1.72-3.33-2.89-.46-3.24-.16-6.59-.16-9.9-.07,0-.14,0-.21-.01.29-3.62.13-7.37,1.07-10.82ZM232.27,764.47c.11-1.86,2.24-3.59,3.45-5.38,1.44,1.81,3.68,3.45,4.13,5.48.7,3.17.19,6.61.19,9.93.02,0,.05,0,.07,0,0,2.83-.03,5.65,0,8.48.03,2.51-.66,4.05-3.65,4.04-2.68,0-4.15-.88-4.19-3.62-.08-6.31-.39-12.64,0-18.93ZM223.2,759.18c1.54,1.17,4.09,2.11,4.43,3.56,1.07,4.67,1.32,9.54,1.84,13.9,0,2.12.03,3.79,0,5.45-.06,2.34.19,4.71-3.45,4.75-3.03.04-4.73-.73-4.88-4.02-.29-6.48-.92-12.95-.95-19.43,0-1.4,1.96-2.81,3.02-4.21ZM215.9,763.77c1.39,7.31,2.39,14.68,3.55,22.03-.5.45-.99.9-1.49,1.35-1.36-.79-3.61-1.31-3.94-2.41-2.43-8.04-4.48-16.2-6.68-24.44,4.83-1.54,7.77-.69,8.55,3.46Z"/>
    <path class="cls-1" d="M572.76,674.08c24.35,4.18,48.19,4.07,72.62.53-15.55-11.75-62.94-12.29-72.62-.53Z"/>
    <path class="cls-1" d="M386.94,28.93c3.22-1.05,7.33-1.07,10.57-.07,21.81,6.71,43.47,13.89,65.21,20.8,59.03,18.77,118.22,37.08,177.06,56.43,19.35,6.37,38.41,11.84,58.96,9.27,1.73-.22,3.48-.35,5.22-.53-1.5-1.25-3.03-1.75-4.58-2.2-33.59-9.69-67.37-18.78-100.74-29.2-62.62-19.55-125.1-39.56-187.39-60.15-12.52-4.14-23.32-5.6-36.33-.89-41,14.85-82.59,28.09-123.9,42.1-51.26,17.37-102.45,34.92-153.71,52.3-12.54,4.25-25.22,8.13-37.83,12.18.12.46.24.93.36,1.39,7.95-.52,15.92-.87,23.85-1.62,5.28-.5,10.77-.81,15.72-2.51,42.16-14.53,84.1-29.72,126.34-44.02,53.6-18.14,107.4-35.69,161.19-53.28Z"/>
    <path class="cls-1" d="M257.98,80.57c41.47-14,83.01-27.82,124.43-41.97,7.16-2.45,13.72-2.32,20.85.05,30.81,10.24,61.67,20.3,92.61,30.13,44.59,14.16,89.27,28.02,133.88,42.11,9.59,3.03,19.24,5.06,29.51,3.12-7.37-2.45-14.73-4.97-22.13-7.33-77.88-24.82-155.79-49.53-233.61-74.53-7.63-2.45-14.52-2.87-22.19-.26-34.83,11.84-69.86,23.07-104.69,34.91-57.05,19.39-114.01,39.08-170.99,58.66-1.57.54-3.07,1.28-4.6,1.92.2.69.41,1.37.61,2.06,9.07-1.72,18.47-2.47,27.17-5.33,43.15-14.21,86.11-29.01,129.16-43.54Z"/>
    <path class="cls-1" d="M194.18,740.56s-.08-.04-.11-.06c0,.05,0,.1,0,.15h0s0,0,0,0c.09.01.18.03.28.04-.06-.05-.11-.1-.17-.14h0Z"/>
    <path class="cls-1" d="M192.19,739.58s-.08-.04-.12-.06h0s0,0,0,0c0,0,0,0,0,0h0s.02.09.02.13c.03,0,.06,0,.1,0,0-.02,0-.04,0-.07Z"/>
    <path class="cls-1" d="M774.68,548.58h-8.55c.21-3.75.41-7.49.62-11.24,1.19,0,2.38,0,3.56,0-1.11-2.47-1.69-3.85-2.34-5.18-4.26-8.71-6.87-10.44-16.45-9.52-7.94.76-15.8,2.3-23.73,3.2-7.63.86-15.3,1.34-22.96,1.99-.1-.53-.19-1.05-.29-1.58,18.72-9.07,29.48-21.79,32.51-28.27,3.39-7.25,4.51-15.02,4.51-15.02.17-1.2.27-2.18.33-2.81,0,0,0,0,0,0,.34-2.88.52-7.14-.46-12.13-.32-1.61-1.72-8.24-6.53-15.18-7.76-11.22-19.16-15.43-24.65-17.47-3.6-1.34-6.72-2.12-8.92-2.57,2.79-2.09,4.79-4.06,6.13-5.52,1.94-2.12,3.16-3.57,5.46-5.54,1.18-1.01,2.73-1.6,4.12-2.38-.09-.66-.18-1.32-.27-1.98-7.2-.29-14.63-.46-22.28-.48-9.13-.03-17.94.15-26.45.48-.83-57.22-1.65-114.46-2.48-171.7v-2.24c.45-.01.9-.03,1.34-.04,3.53-.11,4.65-2.54,4.14-6.01-.43,0-.85,0-1.27,0-.26-.38-.7-1.14-.82-2.19-.09-.82.04-1.52.21-2.04.11-.23.22-.5.33-.81,0,0,0-.01,0-.02,0,0,0,0,0,0,.23-.64.48-1.44.79-2.44,2.3-7.28,4.87-14.47,7.5-21.64,1.24-3.37,3.15-5.59,7.55-4.42,1.72.46,4.26-.64,5.93-1.76,5.69-3.83,7.67-10.29,5.54-16.71-.43-1.3-1.21-3.52-3.32-5.28-.62-.51-1.2-.86-1.61-1.08.61-1.44,1.05-2.6,1.33-3.49.28,0,.57,0,.85-.02,1.45-.03,4.03-1.57,4.12-2.58.77-8.91,1.09-17.85,1.58-27.57-.26,0-.53.01-.79.02.03-.38.05-.75.08-1.13.56,0,1.11,0,1.67,0,.65-4.87,1.16-8.73,1.79-13.45-.85.02-1.69.04-2.53.07.04-.64.09-1.29.13-1.93,4.37-.29,8.73-.69,13.05-1.28,8.21-1.12,14.64-5.51,17.4-13.86,3.31-10.02-3.24-19.25-12.87-17.51-6.36,1.15-12.23.37-18.16-1.42-52.79-15.93-105.7-31.44-158.31-47.94-44.98-14.11-89.61-29.34-134.36-44.15-10.8-3.58-21.28-3.83-32.25,0-44.52,15.52-89.18,30.63-133.79,45.91-67.77,23.21-135.55,46.42-203.31,69.67-2.66.91-5.33,2.02-7.7,3.5-4.32,2.7-5.77,8.28-3.96,13.79,1.41,4.31,4.14,7.27,7.57,8.35,1.06.34,1.96.36,3.65.44,3.4.15,6.2-.28,8.09-.68.04.51.09,1.03.13,1.54-.74.02-1.49.04-2.23.07.27,2.35.68,3.82.57,5.23-.29,3.51.59,5.28,2.62,6.07.07.87.15,1.75.22,2.62l-.93.02c.32,6.12-.21,11.17.06,14.81.59,7.98-.62,10.08,3,10.57.06.73.12,1.47.18,2.2-.21,0-.43,0-.64,0-9.46.02-16.43,3.82-18.63,11.18-2.54,8.5,3.32,17.03,11.25,15.43,5.27-1.06,7.66,1,9.09,5.11,3.45,9.9,5.46,14.76,6.37,20.42.26,1.6.61,4.01.88,6.99h-3.02c-.11.33-1.27,4.05.69,6.09,1.12,1.16,2.86,1.34,4.94,1.55,1.45.15,2.66.07,3.47-.02-.02,1.51-.04,3.03-.06,4.54-.14,11.25-.22,22.45-.23,33.59-3.36-.02-6.63,1.75-7.97,4.45-.43-2.14-1.12-3.55-1.29-3.52-.26.05.99,3.4.44,8.28-.03.31-.08.6-.12.88-.35-4.67-4.35-8.14-7.29-12.39-4.21,7.28-1.46,14.54,5.97,17.88-.13.81-.17,1.67-.02,2.73.35,2.48,1.43,4.22,1.96,5.06,2.2,3.46,5.56,5.23,8.11,6.12-.11,16.47-.23,32.94-.34,49.41-.18-.85-.32-1.65-.44-2.39-1.09-7.05.08-10.48-1.02-17.53-.7-4.46-1.95-8.11-3.06-10.77-1.28,1.21-2.7,2.78-4.01,4.79-3.23,4.97-4.02,9.92-4.23,12.79-2.76-6.16-5.79-12.91-8.83-19.68,6.3-4.15,8.18-9.25,5-15.42-.71-1.37-3.64-2.92-4.85-2.48-3.59,1.32-5.81,8.43-5.41,13.65-4.14-9.25-10.67-13.82-18.19-12.19,7.93,13.69,10.77,18.14,19.18,15.98.09.15.18.3.27.44,2.54,3.62,4.75,7.49,6.97,11.33,5.52,9.58,5.65,11.54,10.23,18.03,1.77,2.5,4.46,5.89,8.35,9.57-.1,14.44-.2,28.89-.31,43.33-.46,58.16-.96,116.31-1.58,174.47-.04,3.93,1.25,5.38,4.97,6.38,11.02,2.96,21.34,7.5,30.05,15.18,1.69,1.49,3.65,2.66,5.48,3.98.54-.18,1.09-.36,1.63-.54.21-65.53-.13-131.06-1.02-196.59-.77-56.54-1.95-113.07-3.54-169.61-.09,0-.19,0-.28,0,1.66-.07,3.32-.18,4.97-.37,4.7-.56,5.84-2.74,4.8-7.01h-42.76c-.76-6.53-1.96-11.84-2.96-15.56-3.02-11.31-6.29-17.23-9.89-20.91-3.75-3.83-7.42-6.82-12.92-3.25-.14.09-.67-.43-1.33-.89,5.25-2.71,9.59-2.41,13.78,1.59,5.33,5.09,9.12,11.03,10.82,18.18,1.5,6.3,2.74,12.66,4.15,19.25h9.14c-.3-30.88-9.83-46.34-30.79-50.63,20.92,2.99,41.76,1.01,61.91-.34-13.87,9.27-22.9,32.98-18.73,50.79h7.89c.79-9.19,1.05-18.19,6.06-27.01-1.22,5.1-2.48,9.24-3.14,13.47-.68,4.37-.78,8.83-1.15,13.49h6.6c.36-2.86.34-5.58,1.08-8.08,2.17-7.28,4.38-14.57,7.18-21.62.65-1.63,3.88-3.46,5.65-3.21,7.71,1.09,13.88-2.36,15.12-9.22,1.41-7.89-3.47-15.23-11.15-16.05-4.27-.45-8.64.01-12.96.07-19.1.27-38.21.67-57.31.76-.06-.68-.13-1.36-.19-2.04,1.44,0,3.25-.04,5.53-.06,20.66-.2,41.32-.85,61.98-.85,3.88,0,7.83,1.93,11.63,3.31,3.15,1.14,6.01,3.12,9.19,4.1,3.15.97,6.56,1.08,9.83,1.71,36.64,7,73.28,14.01,109.91,21.06,2.93.56,5.79,1.45,8.69,2.19-2.54,1.52-4.86,1.76-7.1,2.34-7.58,1.96-12,8.6-10.59,15.73,1.51,7.67,6.71,11.45,15,10.07,3.33-.55,4.77.72,5.68,3.19,2.81,7.57,5.42,15.22,8.26,23.25h30.57c2.54-7.55,4.57-14.37,7.23-20.95.66-1.63,3.24-3.2,5.14-3.49,6.58-1.01,10-4.18,9.78-10.83-.11-3.2-1.35-6.37-2.16-9.89,14.53,1.54,29.29,3.11,44.41,4.71v-17.56c4.19-.41,8.12-.92,12.06-1.17,40.08-2.46,80.16-4.8,120.23-7.33,26.27-1.66,52.52-3.7,78.79-5.29,4.85-.3,6.44-2.06,6.77-6.83.67-9.79,5.86-14.52,15.75-15.25,2.82-.21,5.66-.27,8.49-.31,24.89-.35,49.77-.65,74.66-1.12-.35.91-.7,1.81-1.05,2.72-1.46-.23-3.65-.54-6.33-.76-3.88-.31-6.78-.27-7.75-.26-22.07.26-44.15,2.64-66.2,1.6-.82-.04-3.1.08-5.92.83-6.04,1.6-10.35,7.2-11.01,14.04-.62,6.44,1.74,12.11,7.35,13.86,3.89,1.22,8.46.23,14.49.23,3.16,8.13,6.8,17.52,10.53,27.11-.24,0-.48,0-.72,0-.16.19-2.03,2.52-1.18,5.21.11.36.64,2.04,2.37,2.9,1.16.58,2.27.48,2.73.41-.02,106.57-.04,213.13-.06,319.7,13.95,3.65,27.56,7.21,41.8,10.93-.73-50.66-1.46-101.36-2.19-152.06,3.29,4.18,3.8,6.11,6.11,8.27.84.79,2.23,1.89,4.36,2.8-.72.51-1.77,1.27-2.97,2.28-1.81,1.51-3.1,2.82-3.32,3.06-3.26,3.49-.51,15.17-.29,16.05h47.09c-1.6-3.36-2.82-5.93-4.04-8.5,2.87,2.79,4.74,6.94,7.86,8.38.82.38,1.72.59,2.67.68,3.77.39,6.88.15,8.86-.36l.72,1.26c-.26-.07-.51-.1-.73-.08-3.6.26-7.18.84-10.59,1.27,1.07,8.09,2.11,16.03,3.17,24.04h14.01c-.02.24-.05.49-.12.77-.1.38-.23.7-.36.94-1.41.16-3.22.38-5.35.65-6.17.79-6.79,1.04-7.5,1.66-1.23,1.08-1.69,3.05-2.59,6.95-.15.65-.18,1.36-.46,1.94-2.55,5.21-5.14,10.39-7.72,15.58,0,0,0,0,0,0-.02.04-.04.08-.06.12h0s0,0,0,0c-1.34,4.08-4.02,9.88-9.36,11.67-.93.31-1.66.46-2.1.46-10.58.03-21.17.02-32.17.02v15.39c30.11,0,60.23,0,90.34,0,.06,3.75.11,7.49.17,11.24h-90.82v22.73c9.04,0,17.52.02,26.01,0,3.89-.01,6.55,1.5,8.14,5.29,4.92,11.78,7.29,23.72,3.84,36.4-1,3.68-1.31,7.54-1.87,11.33-4.86,32.79-9.68,65.58-14.58,98.37-.38,2.52-1.26,4.96-1.9,7.44-.66,0-1.32-.02-1.97-.03-4.14-31.32-8.28-62.64-12.36-93.56-13.01,8.07-25.1,15.58-37.16,23.05-3.1-3.59-.36-4.41,1.79-5.72,10.19-6.22,20.9-11.79,30.34-19.01,9.48-7.25,16.31-17.05,19.35-29.01,3.27-12.88-5.84-27.57-18.2-28.68,2.97,2.13,5.73,3.98,8.34,6.01,10.6,8.26,11.2,19.95.66,28.26-4.98,3.92-11.15,6.65-17.16,8.88-23.3,8.62-47.57,11.06-72.25,10.62-22.15-.39-43.87-3.34-64.61-11.43-5.04-1.97-9.7-5.08-14.2-8.17-1.81-1.24-4.37-3.47-2.36-5.59,3.42,2.46,6.28,5.31,9.73,6.85,6.21,2.77,12.63,5.32,19.2,6.97,35.33,8.89,70.91,9.13,106.49,1.68,10.88-2.28,21.7-5.02,30.89-12.11,10.27-7.93,10.64-14.31.64-22.85-1.01-.86-2.1-1.63-3.19-2.41-10.1-7.26-21.68-11.12-33.67-13.28-30.72-5.54-61.1-2.25-91.04,5.38-14.26,3.63-27.79,9.38-38.34,20.37-4.39,4.58-5.36,7.74-2.04,12.95,4.17,6.53,8.58,13.17,14.06,18.57,13.95,13.72,31.05,22.63,49.37,30.02-.33,1.01-.71,2.19-1.14,3.48-7.23-3.23-14.21-6.34-21.67-9.67-.97,8.44-1.87,16.52-2.82,24.59-1.46,12.41-2.87,24.83-4.52,37.21-.31,2.36.09,5.81-3.89,5.93-10.49.32-20.98.62-31.47.83-1.04.02-2.08-.63-3.1-.96,6.7-29.91,9.84-59.92,12.21-90.01-.59-.08-1.18-.15-1.77-.23-3.98,30.15-7.96,60.3-12.02,91.09-2.63,0-5.1.03-7.56,0-7.3-.1-7.44-.11-7.71-7.39-.64-17.15-1.26-34.3-1.63-51.46-.25-11.46-.05-22.94-.05-35.32-2.75.72-3.85.96-4.92,1.3-13.94,4.43-27.91,8.8-41.78,13.46-1.26.42-2.65,2.69-2.7,4.14-.28,8.49-.08,16.99-.25,25.49-.06,3.09.64,4.82,4.04,5.58,3.7.83,7.31,2.33,10.78,3.91,7.46,3.41,15.13,6.96,18.85,14.81,2.97,6.26,5.27,12.91,7.15,19.6,2.23,7.93,1.9,8.1,10.14,8.58,9.25.54,18.52.93,27.96,1.39.25,10.32-1.41,19.64-10.49,25.34-6.73,4.22-13.95,7.78-21.27,10.88-6.66,2.82-6.65,2.34-5.78,9.54.51,4.24,2.23,6.28,6.64,6.08,2.99-.14,5.99.28,8.99.28,2.86,0,5.73,0,8.59.01-.12,3.7-.25,7.39-.37,11.09-11.56-1.23-19.22-.72-24.33.11-1.98.32-5.76.81-8.11-1.1-1.35-1.1-1.81-3.28-2.73-7.65-.99-4.69-3.29-5.96-7.36-3.69-5.8,3.23-11.38,6.87-17.23,10.02-5.07,2.73-10.73,4.76-8.09,12.6h-70.39c3.59-8.45-2.35-10.74-7.56-14.04-5.86-3.72-11.67-7.77-16.67-12.55-9.52-9.11-18.86-18.26-30.75-24.41-3.81-1.97-6.97-5.15-10.67-7.38-6.8-4.09-13.59-8.28-20.75-11.66-4.55-2.14-6.75-4.71-6.55-9.81.62-15.81.83-31.64,1.5-47.45.44-10.43,1.41-20.83,2.18-31.8-14.06-1.77-27.79-3.49-41.17-5.17,0,3.21.65,6.21.11,8.63-4.89-1.38-8.28-2.34-11.87-3.35.83-2.06,1.49-3.69,2.14-5.31-6.32-2.73-23.41-2.39-28.44.46-.57.33-1.13.73-1.6,1.19-6.1,5.89-6.76,5.93-13,1.32,0-5.61.18-10.75-.04-15.87-.35-8.32-.95-16.63-1.45-24.95-1.33-21.96-2.91-43.96,1.6-65.74,1.03-4.98,3.37-9.69,5.11-14.53.59.18,1.19.35,1.79.53.13,7.29,1.67,14.63-2.34,21.66-1.11,1.94-1.53,4.42-1.74,6.7-2.41,26.7,3.08,52.34,10.64,77.67.47,1.59,1.51,3,2.29,4.5-3.6-15.44-7.04-30.68-8.44-47.34,9.35,4.62,17.28,2.55,25.12-.91,7.92-3.49,15.94-6.79,23.73-10.56,6.17-2.98,12.07-6.55,18.08-9.85-.22-.42-.44-.84-.65-1.26-8.36,3.99-16.57,8.34-25.11,11.88-8.58,3.55-17.29,7.23-26.3,9.17-10.18,2.19-17.48-5.76-16.52-16.09,14.29.63,24.42-9.11,36.38-14.24-.74-.28-1.37-.21-1.94.02-3.85,1.57-7.66,3.25-11.55,4.75-4.49,1.73-8.95,3.71-13.59,4.88-6.19,1.56-9.21-.26-9.76-4.94-1.04-8.92-.52-9.36,7.34-10.18,16.21-1.68,32.36-3.93,48.58-5.42,12.23-1.12,24.53-1.75,36.81-1.95,5.74-.09,11,2.76,13.34,8.26,2.61,6.13,4.19,12.7,6.32,19.42-3.33.76-5.28,1.14-7.18,1.66-13.5,3.64-27.11,6.92-40.45,11.1-11.01,3.44-21.25,8.71-29.99,16.52-2.96,2.65-2.83,4.9.71,6.39,4.57,1.93,9.22,4.09,14.05,4.91,17.4,2.95,34.89,5.4,52.35,7.96,1.86.27,3.8.04,6.61.04-1.04-3.72-1.81-6.47-2.6-9.31-1.8.34-3.02.57-3.77.71,1.09-1.75,2.64-3.47,3.33-5.49,1.61-4.69,2.42-9.68,4.3-14.24,1.33-3.23.53-4.82-2.34-5.6-2.01-.55-4.36-1.01-6.29-.51-6.5,1.7-12.42,4.31-16.46,10.35-2.07,3.11-5.39,5.38-8.23,8.12-5.66-7.13,1.07-7.95,3.99-10.5-.21-.35-.43-.69-.64-1.04-8.73,2.7-17.46,5.4-26.18,8.1,5.31-3.84,10.84-7.39,16.89-9.38,10.41-3.43,21.11-6,31.76-8.66,1.94-.48,4.55-.27,6.26.68,3.65,2.03,6.41.56,9.8-.7,5.51-2.04,11.58-4.77,17.05-4.12,6.03.72,11.65,4.93,17.45,7.61-.06.91-.13,1.81-.21,2.97-14.06-14.21-29.75-10.19-38.73,2.26,12.69-5.55,22.73-4.25,30.1,6.57-7.53-7.65-15.53-10.76-26.4-5.99-10.28,4.51-14.54,19.59-6.65,27.93.6.64,1.77.93,2.71,1.03,6.12.64,12.24,1.43,18.38,1.7,15.69.7,31.38,1.23,47.07,1.69,27.01.81,54.02.94,80.67-4.35,16.33-3.24,32.59-7.06,47.6-14.64,8.14-4.11,8.21-8.5.45-13.6-1.92-1.26-4.19-2.02-6.35-2.87-2-.79-4.08-1.39-7.24-2.44,0-13.11-.08-26.42.02-39.73.19-26.26,2.65-52.23,10.45-77.46.72-2.33,1.89-4.52,2.85-6.78-.75,11.39-2.65,22.41-3.32,33.5-.68,11.21-.15,22.49-.15,33.74,1.41-23.23,1.72-46.68,6.86-69.64,6.85,1.83,12.86,4.48,19.01,4.87,13.24.83,26.56.44,39.84.69,1.78.03,4.69.35,5.13,1.37,1.85,4.33,2.97,8.98,4.47,13.87-3-.43-3.1-.58-8.39-10.64.15,3.18.27,5.75.36,7.63-4.16,1.57-7.8,2.67-11.19,4.3-3.43,1.66-4.98.82-5.32-2.86-.07-.76-.33-1.5-.72-3.19-5.37,36.56-2.65,72.29-2.76,108.07,1.26-1.23,2.04-2.58,2.12-3.98.22-3.65.13-7.33.16-10.99.22-22.99.47-45.99.62-68.98,0-1.02-.06-3.64,1.57-4.85,1.03-.76,2.59-.85,2.93-.31.58.94-3.03,3.21-2.48,4.79.1.3.61,1.3,6.28,1.38,4.61.07,7.04-.28,12.46-.65,5.55-.38,7.68.73,8,6.17.74,12.76,1.36,25.57,1.07,38.34-.24,10.4-1.89,20.76-2.91,31.14.44.31.88.63,1.32.94,1.17-1.18,3.32-2.33,3.37-3.56.84-19.95,1.49-39.9,1.96-59.86.08-3.36-.91-6.75-1.17-8.56,4.78-2.34,9.48-3.39,12.35-6.27,13.45-13.47,25.49-28.07,34.02-45.35,3.25-6.59,3.04-12.56.28-19.12-6.25-14.9-12.24-29.9-18.14-44.94-2.68-6.81-4.63-13.91-7.41-20.68-3.15-7.67-6.22-8.84-14.08-6.67-5.7,1.58-9.18,5.35-10.74,10.83-3.37,11.84-6.85,23.67-9.72,35.64-4.95,20.61-22.58,34.65-43.89,34.39-.23,0-.45-.28-.81-.52,14.53-6.63,27.94-14.48,35.79-28.53-6.87,5.93-13.84,12.28-21.16,18.19-6.35,5.13-13.83,8-21.98,8.69-1.95.16-4-.79-6-1.23-.14-.61-.28-1.22-.42-1.83,13.8-4.47,21.37-14.69,26.49-27.18-7.12,10.87-13.9,22.08-27.48,26.13-2.24-3.49-2.45-4.44.48-6.73,3.38-2.64,7.38-4.46,10.91-6.93,2.25-1.57,4.73-3.31,6.1-5.58,9.37-15.54,18.48-31.24,27.65-46.9.74-1.26,1.32-2.6,1.98-3.9l-1.77-1c-8.49,13.1-17.45,25.92-25.23,39.42-3.29,5.71-6.98,8.76-13.26,9.47-3.89.44-7.72,1.41-11.57,2.14,0,0,0,0,0,0-.84-.87-1.55-1.94-2.54-2.57-7.21-4.61-9.47-11.96-3.84-18.22,10.57-11.76,10.62-26.98,15.04-40.75,1.04-3.24-1.02-4.52-3.89-3.36-2.73,1.1-5.47,2.52-7.7,4.41-6.68,5.66-8.98,13.48-9.46,21.83-1.1,18.94-1.75,37.92-3.02,56.85-.54,8.09-.61,16.77-3.65,24.03-7.59,18.16-12.16,36.95-15.52,56.18-2.35,13.44-5.16,26.82-6.97,40.34-1.23,9.17,1.49,14.69,2.28,16.62,1.15,2.82,3.22,7.86,7.33,8.74.4.08,2.58.51,3.36-.54,1.13-1.53-2.13-4.28-1.59-8.5.3-2.28,1.57-3.97,1.99-3.86.55.14-.51,3.38,1.32,5.75.19.25,1.09,1.41,1.78,1.21.81-.23,1.06-2.22.91-7.22-.13-4.44-.64-6.63-.66-9.77-.05-6.47.89-13.04,0-19.38-1.04-7.5,2.75-12.39,6.98-18.66v65.38c-7.92-1.07-15.69-1.94-23.39-3.21-7.62-1.26-15.18-2.92-23.63-4.58,2.1,1.42,3.48,2.32,4.82,3.28,1.16.83,2.27,1.74,3.4,2.62-7.6-4.32-15.07-8.11-24.16-5.7-.37.1-1-.7-1.35-.59-3.24,1.03-6.68,1.79-9.56,3.48-1.14.67-.95,3.51-1.46,5.33-.41,1.48-.97,2.91-1.46,4.37.23,1.44.47,2.88.77,4.79,8.79-5.16,17.85-7.95,27.63-4.33,9.79,3.62,18.36,9.08,24.21,18.15-4.25-3.32-8.55-6.57-12.73-9.98-10.11-8.26-21.08-10.95-33.4-5.4-3.1,1.4-5.42,3.19-4.76,7.18.15.89-.41,2.32-1.13,2.87-2.69,2.06-5.58,3.87-8.89,6.1.18-1.08.15-1.5.28-1.56,8.75-3.8,7.66-11.32,7.06-18.65-.6-.6-1.54-1.09-1.74-1.8-1.39-4.8-2.63-9.65-3.92-14.49-14.06-10.26-29.49-10.13-43.7.34-.5.37-1.2.48-1.8.71.61-1.14,1.21-2.29,2.12-4.01-17.26-2.38-33.88.08-50.65,1.9-.59-4.78-.95-9.06-1.68-13.27-1.04-5.94-3.95-10.87-8.56-14.84-.85-.73-1.82-2.16-1.66-3.09,1.83-11.12,1.98-22.62,7.06-33.04.35-.71.81-1.36,2.01-3.35.72,7.1.92,12.88,1.95,18.5,1.65,8.98,3.79,17.87,5.87,26.76.88,3.77,3.12,5.45,7.39,5.87,6.57.65,12.41-.61,17.37-4.58,12.69-10.18,25.14-20.68,37.66-31.08,2.16-1.79,4.17-3.76,6.8-6.15v4.97c2-3.99,3.67-7.34,5.34-10.68.68.32,1.35.65,2.03.97-1.64,10.22-8.04,18.46-12.7,27.38-4.65,8.9-9.97,17.45-15.13,26.4,14.59-11.74,18.77-29.87,29.13-44.52.24,5.36.47,10.72.71,16.07.41,8.98,1.05,17.96,1.12,26.94.03,3.79,1.36,5.5,5.8,5.98-.4-20.21-1.2-40.19-3.44-60.1,4.84-2.61,5.34-4.65,1.73-8.47-3.92-4.15-4.11-8.98-2.77-13.99,1.15-4.29,2.8-8.44,5.42-12.8,1.59,9.54,4.1,19.03,4.54,28.62.56,12.32,2.83,24.05,6.89,35.62,2.97,8.48,5.38,17.15,7.91,25.78.73,2.5,1.02,5.13,1.59,8.1h-18.95c.31,1.32.53,2.24.74,3.17l-.17-.19s.02.06.02.09c.02.02.05.03.07.05,1.62,2.48,3.25,4.98,5.11,7.82,5.81-5.46,12.88-7.49,20.66-6.8,5.45.49,10.86,1.43,16.28,2.19,2.7.38,5.4.82,8.1,1.23.31-.64.62-1.28.93-1.91-3.41-2.3-6.63-4.98-10.27-6.8-5.49-2.75-8.53-6.55-8.24-12.92.21-4.65.17-9.35-.2-13.99-1.02-12.75-1.91-25.52-3.57-38.19-1.18-9.03-4.27-17.83-5.2-26.87-1.7-16.55-2.62-33.2-3.38-49.82-.12-2.65,1.85-5.79,3.68-8.02,2.51-3.06,3.58-5.94,1.74-9.55-2.27-4.45-4.35-9.02-6.95-13.27-4.48-7.32-10.74-12.7-18.96-15.5-6.67-2.27-13.97-.05-16.61,4.37-5.35,8.98-10.52,18.14-16.63,26.59-7.44,10.29-17.06,18.46-28.07,25.02-12.16-15.8-20.48-33.39-27.87-51.47-.39-.95-.44-2.3-.09-3.26,1.85-4.97,1.34-9.72-.45-14.61-1.79-4.89-1.4-9.63,1.17-14.44,1.4-2.63,1.88-5.99,1.94-9.04.33-15.16.38-30.32.52-45.48.03-2.94,0-5.88,0-9.03h-25.75c0,30.11.22,59.76-.14,89.4-.1,8.58-.46,17.61-3.17,25.6-4.96,14.59-11.69,28.59-17.84,42.77-1.44,3.31-3.27,6.35,1.28,9.68-3.21.92-5.51,1.87-7.9,2.22-8.89,1.29-17.84,2.23-26.72,3.63-4.86.77-8.52-.77-11.39-4.49-4.97-6.47-9.82-13.03-14.77-19.52-3.03-3.97-6.12-7.89-9.28-11.76-.18-.22-1.22.27-1.86.43l-.12-.15c1.93,5.27,5.79,10.69,5.4,15.79-.84,10.89,2.05,20.02,8.26,28.47,1.97,2.69,1.79,5.21-.4,7.11-3.47,3.03-7.11,6.08-11.16,8.2-12.35,6.48-26.02,7.89-39.62,9.21-6.03.58-12.11.67-18.56,1,.47-4.12.62-7.45,1.26-10.69,1.72-8.72-.48-18.56,7.2-25.63.38-.35.34-1.16.81-3.02-2.47,3.06-4.14,5.12-5.81,7.18-.4-.16-.81-.31-1.21-.47,1.13-5.27,2.55-10.49,3.33-15.81,1.1-7.51,2.53-15.11,2.32-22.63-.18-6.52-4.38-11.67-10.99-13.42-6.39-1.7-10.79,2.42-14.44,6.87-4.81,5.84-7.15,12.9-7.33,20.35-.48,19.79-.82,39.6-.65,59.39.05,6.59,1.37,13.26,2.9,19.71,1.6,6.73,4.17,8.35,11.15,8.2,19.83-.43,38.02-6.3,54.3-17.52,5.29-3.64,9.56-3.26,14.14.46-.55.28-1.2.48-1.5.93-10.6,16.13-20.89,32.46-31.81,48.36-6.01,8.74-13.02,16.8-19.73,25.05-1.53,1.88-3.71,3.25-5.59,4.85.29.32.57.65.86.97,4.81-3.78,9.62-7.55,14.43-11.33-2.84,6.09-6.09,11.89-10.27,16.93-4.67,5.62-10.4,5.49-14.61-.5-2.55-3.62-4.26-8.39-4.73-12.82-1.6-15,.88-29.52,6.7-43.5,1.34-3.21,1.8-6.79,2.66-10.2-.57-.17-1.14-.33-1.71-.5-.99,1.86-2.3,3.62-2.92,5.6-2.93,9.36-6.18,18.67-8.35,28.21-2.44,10.72-2.52,21.92,2.32,31.89,3.85,7.94,4.52,15.85,4.43,24.19-.02,1.82,0,3.65,0,5.28,3.42,1.85,6.55,3.54,10.56,5.71-2.05,0-3.27.21-4.4-.04-4.76-1.03-9.43-2.61-14.24-3.22-6.33-.81-10.54,3.26-11.17,9.44-.13,1.31-2.05,2.43-3.15,3.64-.4-.32-.8-.63-1.19-.95-.62,2.91-1.24,5.82-2.16,10.16-2.54-2.48-4.59-4.29-6.41-6.31-2.95-3.27-3.93-8.78-9.94-8.56-.28.01-.69-.7-.87-1.15-2.06-5.17-5.54-7.31-10.65-6.46.31,1.31.63,2.62.94,3.93-5.57-9.7-14.13-7.96-22.83-6.39.63-.97,1.17-1.81,1.84-2.84-11.56-.14-15.9,6.12-11.25,15.83,1.21,2.53,2.75,5,4.59,7.11,5.47,6.27,11.15,12.35,16.76,18.5,1.87,2.06,3.76,4.1,5.64,6.15-.43.34-.86.69-1.29,1.03-13.9-10.44-26.71-21.78-30.92-39.93-2.11-9.11.97-14.2,10.33-14.67,7.13-.36,14.55.73,21.51,2.48,13.12,3.3,24.42,10.35,35.15,19.14.26-1.53.16-3.08-.66-3.84-2.32-2.14-4.85-4.07-7.45-5.88-11.51-8.04-23.82-14.04-38-14.95,1.88-29.54,3.77-59.09,5.65-88.63-.24,0-.47,0-.71,0v-54.83c-3.95-.19-7.75-.22-11.52-.58-3.72-.36-5.28.89-5.63,4.84-1.53,17.38.44,33.85,10.85,48.42-14.54-14.93-14.26-33.59-12.63-52.95-4.5,0-8.83.27-13.1-.08-3.48-.28-4.87,1.35-5.46,4.31-2.88,14.69-1.51,28.53,8.11,40.73,1.25,1.59,2.5,3.17,3.75,4.76l-.91.86c-1.43-.99-3.03-1.8-4.27-3-9.95-9.56-16-21.19-17.98-34.86-1.68-11.58-.37-22.64,6.48-32.51,6.06-8.73,15.23-12.47,24.69-9.91,2.01.54,4.16,2.14,5.21,3.88.45.74-1.45,3.49-2.85,4.63-4.25,3.47-8.98,6.36-13.12,9.95-2.3,2-3.8,4.93-6.31,8.32h35.56c0-3.37,0-6.32,0-9.27q0-10.21-10.09-11.55c-.16-.02-.26-.45-.56-1.03,3.7-.28,7.24-.55,10.82-.82v-13.56c-.66,0-1.3,0-1.96,0,.78-2.06,1.51-4.42,2.01-7.1,1.52-8.04.37-14.88-.76-19.17-2.27,5.11-3.48,9.49-4.17,12.54-.48,2.11-1.04,4.61-1.32,6.96-2.12-6.89-3.07-10.49-3.17-14.79-.11-5.01.72-10.04,2.49-15.11.44-1.24.61-2.6.72-3.92.56-6.21-1.5-11.65-4.62-16.79-6.44,1.94-6.87,7.47-9.02,12.08-2.5,5.38.73,9.3,2.9,14.69-.87-1.39-1.54-2.61-2.05-3.6-2.6-5.11-7.24-14.24-7.15-23.33.01-1.28.09-4.22-1.8-6.16-.81-.83-2.03-1.43-3.87-1.64-.75,3.45-1.47,6.8-2.2,10.15-1.39-2.99-1.78-5.92-2.67-8.68-1.48-4.57-5.54-3.98-9.16-4.15-3.28-.16-3.37,2.27-4.18,4.51-.55,1.53-2.16,2.68-3.93,4.75,3.42,4.86,8.22,9.98,15.58,8.83,3.87-.6,5.05-.78,7.8.42,4.6,1.99,5.03,6.83,9.86,14.47.83,1.32,1.67,2.5,2.47,3.58-4.85-4.28-9.69-6-15.43-5.53.83,8.13,7.52,17.12,14.77,17.11,2.84,0,4.72.64,6.04,1.7,1.47,1.18,2.21,2.69,3.87,8.14.54,1.78,1.16,3.91,1.82,6.34-2.07-2.53-5.11-5.28-9.4-6.94-3.16-1.22-6.06-1.48-8.17-1.46,2.9,3.49,7.69,8.21,14.81,11.48.46.21.92.41,1.37.59-4.17-.03-8.26-.05-12.34.08-20.05.62-33.21,11.71-36.9,31.41-4.34,23.19,3.69,42.6,19.29,59.33,1.15,1.23,2.64,2.46,4.22,3.38-1.35,0-2.69,0-4.04,0-.56,3.23-.73,7.88,2.04,10.76.77.8,1.45,2.05,5.27,2.84,3.42.71,8.24,1.23,9.71,3.56,4.21,6.64,8.03,13.72,7.59,22.26-.67,12.96-.79,18.78-1.26,38.89-.1,4.51-.1,8.22-.09,10.67-4,.58-7.66,1.88-10.81,4.21,0,0-3.74,2.8-6.3,7.36-5.33,9.51-2.03,26.44,8.24,43.57-.78-.21-1.57-.42-2.35-.64-4.62,10.58-2.42,15.55,8.12,18.63.51.15,1.03.29,1.54.43,2.39,6.96,4.66,13.49,6.8,19.54,1.19,3.44,2.37,6.79,3.59,10.08.04.1.07.21.11.31,1.54,4.29,3.15,8.71,6.14,14.25,3.82,7.08,7.96,12.39,11,15.88,2.62,4.33,5.14,7.52,6.93,9.62,5.13,6.01,7.06,8.77,10.95,14.25,2.13,3,2.48,5.8-1.44,8.41-1.84,1.22-3.22,4.3-3.38,6.64-.42,6.11,2.85,10.87,8.3,13,4.52,1.76,9.65,2.6,14.53,2.69,22.49.4,44.99.45,67.48.48,3.28,0,4.99.94,6.14,4.27,5.63,16.33,11.61,20.6,28.63,20.63,72.15.13,144.3.22,216.45.27,21.83.02,43.66.18,65.48-.31,2.33-.05,6.98-.26,11-3.33,7.25-5.54,7.84-16.92,8.24-24.73.23-4.43-.02-8.25-.35-11.19,34.71.06,69.43.11,104.14.1,4.99,0,10.01-.11,14.96-.62,8.62-.89,14.72-5.96,17.5-13.75,1.77-4.96,4.34-5.56,8.76-5.56,20.16.01,40.35.38,60.47-.62,20.51-1.02,29.71-16.17,21.67-34.87-8.48-19.73-3.32-50.72,14.91-61.93,2.83-1.74,3.39-4.23,1.7-7.29-6.24-11.28-8.78-23.64-10.55-36.25-1.71-12.23-3.51-24.4.91-36.47,1.34-3.66,2.4-7.57,7.11-8.01,4.05-.38,6.47-2.79,7.74-6.18,2.27-6.04,6.19-9.5,12.67-10.55,1.74-.28,3.16-2.56,4.72-3.92-.33-.62-.66-1.25-.99-1.87ZM62.84,302.71c-.42-.56-.89-1.08-1.47-1.53-.7-.55-1.35-.87-1.71-1.03-2.54,1.55-3.47,3.3-3.85,4.28-1.73,4.41.87,10.64,6.91,15.3,0,.2,0,.4,0,.61-.3-.19-.6-.38-.91-.59-2.39-1.66-8.09-5.61-8.47-11-.23-3.32,1.79-3.72,1.96-8.41,0-.09,0-.17,0-.26,3.76-1.26,6-3.41,7.6-6.3-.02,2.98-.04,5.96-.06,8.94ZM40.19,134.61c-1.11.06-2.22,0-3.33,0-.07-.37-.13-.74-.2-1.11.97-.5,1.9-1.13,2.93-1.47,63.8-21.22,127.64-42.32,191.41-63.63,52.41-17.52,104.73-35.33,157.15-52.85,2.43-.81,5.63-.73,8.08.1,86.76,29.33,173.85,57.6,261.79,83.19,15.5,4.51,31.17,8.47,46.74,12.75,5.89,1.62,11.74,3.47,14.25-4.96,2.84,3.12,3.01,4.62.35,6.25-2.34,1.43-5.13,2.6-7.83,2.89-7.77.84-15.6,1.5-23.41,1.66-106.93,2.19-213.87,4.14-320.8,6.45-79.78,1.73-159.56,3.66-239.33,5.99-29.29.86-58.54,3.13-87.8,4.74ZM47.88,145.21c-.05-.53-.1-1.07-.15-1.6.07,0,.77-.03.83-.04,74.72-3.41,131.09-4.18,149.9-4.59,72.31-1.57,144.63-2.39,216.94-3.79,90.3-1.74,180.6-3.71,270.9-5.68,4.18-.09,8.37-.24,12.55-.49-.04.63-.09,1.26-.13,1.89-217.21,6.01-433.87,7.43-650.84,14.3ZM49.18,159.22c-.06-.68-.13-1.36-.19-2.04.62.04,1.3.05,2.03.03,74.46-1.73,148.93-3.23,223.39-4.76,133.27-2.74,266.54-5.48,399.82-8.18,7.81-.16,15.63-.06,23.56-.03-.03.39-.05.77-.08,1.16-216.18,4.61-432.35,9.21-648.53,13.82ZM689.74,194c-2.98.96-13.04,4.62-20.01,15.2-7.34,11.14-6.32,22.45-5.96,25.45-1.08-.04-2.16-.08-3.24-.12,1.05-.93,1.28-2.84,1.78-6.47,1.57-11.48,5.56-21.92,14.27-30.06,3.38-3.16,7.28-4.66,13.16-4ZM600.15,191.45c5.58-6.36,11.68-5.99,18.04-4.56,1.76.39,3.55.96,5.32.92,13.48-.34,26.96-.88,40.44-1.16,1.97-.04,3.97,1,5.95,1.54h0s0,0,.01,0c0,0,0,0,0,0,0,0,0,0,0,0h0s0,0,0,0c4.89-4.8,10.89-3.5,16.79-3.16-13.27-.92-21.75,5.97-27.67,16.88-5.56,10.25-6.71,21.36-6.69,32.72-.75,0-1.5.02-2.26.03,1.16-1.08,1.14-2.88,1.12-5-.13-9.62,1.2-19.18,6.07-27.44,3.13-5.31,8.35-9.39,12.64-14.02-1.31-.14-2.62-.44-3.92-.41-11.3.27-22.6.58-33.9.91-2.43.07-4.85.28-8.35.5,12.41,11.58,16.79,25.53,17.38,40.93.08,2.12.32,3.68,1.38,4.61-.93.01-1.85.02-2.78.03,1.37-12.62-4.17-30.41-12.18-39.41-7.84-8.81-16.55-10.28-27.38-3.91ZM619.68,203.64c-3.15-3.87-6.76-7.29-12.62-5.63,4.5-2.31,8.46-1.28,12.67,3.29,5.97,6.47,8.63,14.51,10.39,22.91.74,3.55,1.31,7.14,1.93,10.65-.54,0-1.07.01-1.61.02-1.55-11.43-3.46-22.27-10.76-31.24ZM747.82,531.59v3.87c-6.03,0-11.77-.06-17.51.02-7.47.11-14.97.85-22.37.22-2.64-.23-5.01-3.66-7.15-6.31,20.75,2.85,41.03-4.48,61.56-.63-4.1,4.76-9.38,2.32-14.53,2.83ZM573.68,614.62c-6.76,4.95-13.73,6.82-21.74,3.75-4.75-1.82-5.77-3.89-4.06-8.58,2.17-5.95,7.47-9.59,13.78-9.46,7.19.15,11.42,2.92,13.69,8.69.96,2.45.81,3.79-1.67,5.6ZM580.08,604.99c-.85-1.97-1.76-4.56-1.14-6.39,1.17-3.44,7.87-5.91,11.57-4.97,5.98,1.52,8.64,4.35,8.93,9.4-5.41.88-10.4,1.78-15.43,2.47-1.32.18-3.66.12-3.93-.51ZM597.61,623.55c-1.83.13-3.66.2-4.99.26-1.16,0-1.84.08-2.49-.01-3.27-.5-7.7,1.68-8.74-3.96-1.18-6.46.54-10.64,5.61-13.01,7-3.26,14.29-1.28,17.22,4.68,2.9,5.9-.2,11.57-6.6,12.04ZM605.82,605.63c-3.27-5.28,1.82-12.7,8.82-13.79,9.09-1.42,17.83,7.75,15.93,16.97-.24,1.18-1.98,2.58-3.27,2.92-2.85.75-5.86.89-8.8,1.28-6.07.63-10-3.05-12.68-7.39ZM609.01,621.98c3.86-7.89,20.1-8.24,26.32,0h-26.32ZM632.33,595.89c-.15-3.52,2.05-5.53,5.39-6.1,7.1-1.21,13.36,2.68,16.46,11.3-4.26,1.29-8.2,3.11-12.28,3.54-5.16.55-9.36-3.6-9.58-8.74ZM643.74,618.94c-2.07.13-4.34-2.91-6.52-4.5,1.36-1.72,2.38-4.08,4.15-5.04,3.31-1.8,6.98-3.35,10.66-3.9,2.05-.31,5.39,1.01,6.4,2.66.93,1.53-.47,4.48-.92,7.33.25-.04,1.61-.27,2.96-.5.06.26.13.51.19.77-5.63,1.15-11.24,2.83-16.92,3.18ZM679.44,594.87c1.41,1.69,1.34,4.62,1.94,6.98-.51.17-1.01.34-1.52.51-3.55-3.32-7.09-6.65-10.99-10.29,3.94-1.64,7.82-.51,10.57,2.8ZM670.14,596.97c1.27.99,2.21,2.42,3.26,3.69,1.84,2.21,4.14,4.74.68,7.06-2.97,1.99-6.38,5.31-10.08.85-1.54-1.86-2.93-3.85-4.81-6.33,1.57-1.78,3-3.36,4.38-4.98,2.09-2.44,4.41-1.96,6.56-.29ZM662.58,580.35c3.86,2.28,4.44,4.81,2.01,8.52-1.48,2.26-2.9,4.55-4.34,6.82-.46-.16-.92-.32-1.38-.47-.22-1.05-.45-2.11-.67-3.16-.2.38-.4.77-.59,1.15-4.33-2.19-8.65-4.37-13.07-6.6,5.92-7.72,12.12-9.76,18.05-6.25ZM642.23,573.76c1.71-.23,3.74,1.94,5.62,3.06,0,.72.01,1.43.02,2.15-2.05,1.13-4.12,3.16-6.15,3.12-1.58-.04-3.11-2.65-4.66-4.11,1.71-1.5,3.29-3.96,5.16-4.21ZM609.05,578.7c3.06-5.21,7.69-6.86,13.39-6.92,5.57-.06,9.2,3.24,12.4,7.05.67.79.41,3.56-.38,4.16-3.15,2.38-6.01,5.49-10.6,5.29-3.01-.13-6.04.27-10.47.51-7.36-.51-7.16-5.3-4.34-10.09ZM604.84,590.47c-1.18,3.18-6.36,5.14-9.84,3.27-4.17-2.24-8.07-4.97-12.8-7.93,6.02-3.53,11.19-5.04,16.91-3.36,4.04,1.19,6.78,5.16,5.73,8.02ZM589.51,570.86c1.72-.22,4.78.79,5.25,2,.91,2.36-1.08,3.54-3.54,4.63-9.17,4.07-11.75,3.91-17.84-3.41,5.9-1.23,10.97-2.55,16.13-3.22ZM577.01,582.8c3,3.21-.65,13.14-5.8,13.9-5.79.85-11.8.19-17.72.18-2.99-7.27-2.16-11.14,3.12-14.52,6.77-4.34,16.13-4.13,20.4.44ZM559.37,576.97c.17.52.33,1.05.5,1.57-7.64,2.33-15.28,4.67-22.92,7-.13-.41-.26-.82-.39-1.22,7.6-2.45,15.21-4.9,22.81-7.35ZM549.08,593.17c1.26,1.4,2.87,2.49,4.34,3.71-2.8,3.66-6.72,3.46-10.3,2.21-3.69-1.28-7.04-3.53-10.65-5.41,6.17-6.89,10.88-6.89,16.62-.51ZM524.75,598.84c2.2-3.72,4.74-5.33,8.74-2.6.82.56,1.71,1.01,2.57,1.5,8.21,4.61,9.07,7.83,4.01,16.94-3.35-3.21-6.69-4.24-10.85-2.25-.95.46-3.01-.8-4.27-1.69-3.5-2.48-3.38-6.52-.21-11.91ZM268.42,593.28c2.59-.61,4.83-2.84,7.13-4.47,4.88-3.46,10.13-5.6,15.75-5.24-2.8,4.39-5.57,8.43-8.04,12.66-4.75,8.15-14.21,10.94-25.14,7.07,2.6-4.26,4.62-8.67,10.3-10.01ZM583.22,406.25c4.89,8.12,9.58,15.83,14.15,23.61.4.68.23,1.94-.1,2.76-5.58,13.69-11.19,27.36-16.91,40.99-1.01,2.4-2.52,4.6-4.63,8.37-2.03-2.87-3.82-4.5-4.46-6.49-2.03-6.32-3.71-12.76-5.36-19.2-.36-1.38-.64-3.35.05-4.33,2.33-3.31,1.55-6.52.74-9.98-.27-1.18.08-3.39.84-3.79,8.58-4.45,10.48-12.83,12.75-21.02.97-3.5,1.88-7.01,2.92-10.92ZM569.04,389.54c3.88,24.68-4.38,43.78-35.25,42.85,22.23-5.77,30.4-22.93,35.25-42.85ZM552.58,431.36c8.38-3.35,15.52-9.78,22.9-14.66.93,5.23-2.12,13.03-7.54,16.53-13.57,8.76-28.01,8.37-44.06,3.81,10.48-1.93,20.2-2.28,28.7-5.68ZM509.7,436.8c15.53,3.92,31.01,7.59,47.22,6.66-19.7.85-39.64,6.23-58.69-3.52-.07-.72-.14-1.44-.21-2.15,3.91-.39,8.1-1.89,11.69-.99ZM513.79,405.82c-6.1,4.01-11.78,2.6-17.45,1.41,5.54-.45,11.09-.9,17.45-1.41ZM500.75,442.95c13.4,5.39,27.35,4.77,41.37,4.18,5.96-.25,11.95.22,17.92.54,1.12.06,2.18.98,4.13,1.91-17.28,9.25-58.4,6.89-68.44-7.21,2.11.22,3.71.05,5.02.58ZM454.13,594.55c-.75-2.44-1.16-4.98-1.87-8.12,1.85,2.05,3.27,3.63,4.64,5.15.95-2.83,1.08-6.14,2.71-7.25,1.85-1.26,5.08-.92,7.64-.65,7.77.82,13.66,5.29,19.74,11.16-2.34,1.11-4.35,2.48-6.56,3.04-5.31,1.35-10.69,2.53-16.1,3.39-5.78.92-8.42-.94-10.2-6.72ZM432.86,594.47c9.78-.17,11.87,1.92,14.64,11.83-3.45,2.12-6.28,2.37-7.99-2.77.07,5.07-3.13,5.73-6.69,6.03-4.61.39-9.22.86-13.99,1.32-2.89-5.13-5.57-9.87-7.95-14.11,7.24-.8,14.6-2.17,21.99-2.3ZM381.83,606.24c.12,3.8-1.49,6.65-5.68,6.64-3.66-.01-6.9-1.13-7.44-5.62-.43-3.55-.98-7.09-1.54-11.09,10.53-2.05,14.39,1.24,14.66,10.07ZM347.08,602.87c-2.81,2.46-6.06,4.53-9.39,6.24-3.78,1.94-7.42,2.99-8.89-3.23-.46-1.94-3.48-3.27-6.43-5.84-.2,3.97-.31,6.2-.43,8.43-.46-.01-.92-.02-1.38-.03.23-2.27-.15-4.83.78-6.75,3.47-7.1,15.2-11.95,22.75-9.79,5.38,1.54,7.1,7.36,2.98,10.97ZM346.08,519.63c3.84-1.49,7.67-2.97,12.44-4.82-1.22,1.61-1.76,2.77-2.67,3.46-10.06,7.58-20.13,15.15-30.33,22.53-1.81,1.31-4.22,2.02-6.46,2.48-6.04,1.24-8.61-.33-10.4-6.26-3.94-13.07-7.03-26.3-7.46-40.42,4.6.24,6.28,3.38,8.08,6.53,2.71,4.74,5.06,9.82,8.5,13.98,6.54,7.91,15.58,9.3,23.48,4.44-16.33.71-23.48-4.64-31.25-24.44,5.92,4.26,10.28,4.48,12.87,4.12,5.49-.76,5.88-4.49,15.16-7.68,2.69-.92,5.87-1.72,5.97-3.25.09-1.37-2.3-2.9-2.51-3.04-1.67-1.06-3.03-.95-3.21-1.76-.14-.61.49-1.34,1.1-1.69,1.43-.82,3.35.18,4.04.43,9.51,3.41,18.8,7.43,29.39,11.68-6.66,2.92-12.16,5.34-17.66,7.76l.2.53c6.56-2.01,13.12-4.01,19.69-6.02-7.76,10.13-18.02,16.28-28.98,21.43ZM370.64,394.33c1-1.31,2.05-2.6,3.07-3.89-3.77,12.84-7.54,25.68-11.31,38.51,1.58-1.26,2.37-2.83,2.86-4.48,2.78-9.39,5.53-18.78,8.17-28.21.59-2.12.65-4.39.96-6.59h0c1.54-3.22,3.08-6.45,4.61-9.67.91-1.91,1.81-3.83,2.71-5.75.63.12,1.26.25,1.88.37-2.31,17.56-4.63,35.11-6.94,52.67,6.18-17.5,6.65-36.01,9.08-54.14,14.71,1.19,28.78,13.93,31.69,28.85-4.95.98-9.9,1.97-15.28,3.04-.85-3.46-1.58-6.46-2.31-9.47-.38.06-.76.11-1.14.17.88,4.78,1.67,9.59,2.68,14.35.66,3.13-.51,4.92-3.55,5.27-1.58.18-3.24-.29-5.85-.57-.62,6.87-1.57,13.57-1.77,20.3-.36,11.93-4.82,22.36-11.07,32.18-1.78,2.8-4.08,5.64-8.06,4.57-1-.27-1.64-1.91-3.23-3.92-1.58-.72-4.6-2.09-8.13-3.7,6.86-5.02,12.62-9.24,18.38-13.46-14.77,6.29-20.65,6.44-26.85-.45,1.06-.95,2.12-1.9,2.34-2.1-2.28-1.02-5.32-1.52-7.02-3.3-4.43-4.65-8.26-9.85-12.71-15.3,17.68-7.07,26.54-21.87,36.78-35.28ZM384.08,476.58c-1.41,1.32-3.17,3.98-4.16,3.72-3.41-.9-6.55-2.83-9.8-4.36.22-.66.45-1.31.67-1.97,4.14.36,8.28.73,12.42,1.09.29.5.58,1.01.87,1.51ZM265.42,439.42c6.78-16.99,13.65-33.93,20.62-50.84,1.21-2.93,2.96-5.64,4.62-8.75,14.88,34.29,32.05,66.03,55.53,94.11,4.41,5.27,9.65,8.47,16.02,10.35,6.14,1.81,12.25,3.73,19.12,4.86-1.31-.89-2.53-2.35-3.95-2.58-16.59-2.68-28.07-12.52-37.93-25.46-17.58-23.08-32.1-47.8-42.65-74.85-1.02-2.61-2.2-5.17-3.53-8.28,3.17-1.6,6.22-3.14,9.01-4.55,4.09,9.52,7.44,18.91,12.02,27.66,14.83,28.32,32.33,54.78,56.08,76.59,2.32,2.13,4.6,4.72,7.4,5.84,6.56,2.63,9.06,7.7,10.15,13.99-15.78-6.03-32.26-10.73-47.04-18.63-9.1-4.86-16.61-13.88-22.95-22.43-8.89-12-16.03-25.3-23.91-38.04-.83-1.34-1.68-2.68-2.96-3.84.23,11.61,2.46,22.65,8.62,33.48-2.2-8.15-4.2-15.57-6.2-22.99,15.46,17.67,22.62,41.22,43.02,54.6-6.43.47-12.38.77-18.3,1.36-9.26.92-13.29-1.13-16.64-9.87-2.5-6.51-4.16-13.33-6.38-19.96-1.91-5.71-4.08-11.34-6.14-17.01-.81.29-1.62.58-2.43.87,4.98,14.83,9.96,29.66,14.83,44.16-1.54-1.18-4.07-2.69-6.07-4.72-10.06-10.18-20.03-20.45-29.86-30.85-.74-.78-.6-3-.1-4.25ZM208.46,466.51c1.62,2.1,3.03,3.85,4.34,5.67,5.16,7.16,10.55,9.52,18.89,7.05,7.78-2.3,15.34-5.37,22.92-8.31,1.55-.6,2.73-2.15,4.85-2.76-1.73,2.16-3.05,5-5.27,6.37-12.42,7.66-25.04,15.01-37.69,22.28-1.08.62-2.91-.06-4.4-.13-.18-.43-.36-.87-.54-1.3,1.46-1.38,3.13-2.6,4.32-4.18,1.5-2,3.96-4.66,3.51-6.39-.57-2.21-3.34-4.46-5.68-5.46-3.25-1.39-6.99-1.65-11.25-2.54,2.2-3.77,3.92-6.74,5.98-10.29ZM197.4,505.73c5.63,12.66,15.71,17.3,28.36,11.66,15.36-6.85,28.7-16.78,39.65-29.61,3.31-3.88,5.46-4.5,10.05-1.41,5.12,3.44,11.44,5.1,18.18,7.93-5.07,11.43-10.21,23.01-15.72,35.43-27.32-1.14-54.58,9.23-83.44,7.87,1.12-3.05,2.06-5.5,2.92-7.99,2.42-7.06,2.84-13.88-1.57-20.55-1.62-2.45-2.36-5.5-3.44-8.31,1.78,1.61,4.12,2.97,5.01,4.98ZM191.3,510.61c7.23,5.3,6.83,9.93-1.67,18.61.54-5.96,1.07-11.92,1.67-18.61ZM274.82,733.14l-.08,1.45h-27.23c1.5-3.23,3.37-4.53,6.94-3.95,6.75,1.09,13.58,1.69,20.37,2.5ZM234.72,642.34c-.08.3-.17.59-.29.87-1.15,2.65-4.26,4.45-6.51,6.62-.48-.52-.97-1.04-1.45-1.56,2.46-1.77,4.92-3.54,8.24-5.93ZM208.63,636.12c.38.37.76.74,1.14,1.11-4.6,4.99-9.2,9.97-13.8,14.96-.56-.54-1.12-1.08-1.68-1.61,4.78-4.82,9.56-9.63,14.34-14.45ZM180.03,635.59c-7.46-.13-15.4-2.69-22.1,3.93-3.9-8.24-8.71-15.06-17.29-18.55,6.47-.51,9.47-4.38,11.23-9.68,4.81-14.49,9.64-28.97,13.7-41.16v31.59c5.27-25.2,1.58-51.78,14-75.37-7.83,36.3-.09,72.44.46,109.23ZM128.67,614.97c-.49-.2-.72-1.48-.73-2.27-.07-3.78-.03-7.57-.03-12,1.7.54,2.76.88,3.63,1.16-1.98-2.68-4.07-5.53-6.16-8.37,12.65.86,18.09-7.04,22.76-15.56,6.39-11.65,12.37-23.52,18.55-35.29.75-1.43,1.66-2.77,3.39-3.8-.93,3.9-1.7,7.85-2.83,11.69-5.5,18.81-11.08,37.6-16.66,56.38-1.63,5.48-5.23,8.77-10.58,11.03-4.98,2.11-7.73-1.49-11.34-2.98ZM157.73,650.02c.39.45.9,1.19,1.3,1.16,4.74-.34,4.06,3.56,2.85,5.13-1.93,2.51-4.93,5-7.9,5.71-4.6,1.11-9.57.93-14.38.91-9.07-.04-13.81-6.93-19.77-12.51,10.08-10.61,29.05-10.5,37.89-.39ZM101.08,645.63c13.24,3.07,22.67,9.97,24.84,17.8-12.38,2.41-20.18-.76-25.84-11.17-.85-1.57.6-4.39.99-6.63ZM102.49,662.81c-11.08-1.29-21.58-1.05-30.35-7.37,12.88-7.12,22.25-6.05,30.35,7.37ZM42.2,659.08c-3.15-3.28-7.35-8.43-10.63-15.63-2.3-5.06-3.5-9.71-4.15-13.37,2.09,3.44,3.93,6.98,5.39,10.67,5.04,12.69,13.59,19.2,27.94,19.73,16.26.6,32.39,4.19,48.65,5.07,30.88,1.67,61.83,1.94,92.49-3.14,12.57-2.08,24.95-5.33,37.42-8.05,5.67-1.24,9.73-4.13,10.51-11.43,1.72,1.67,3.21,2.54,3.67,3.79.26.7-.98,2.34-1.93,3.02-7.49,5.39-15.43,9.89-24.63,11.71-41.27,8.16-82.87,10.79-124.85,7.66-20.31-1.52-40.25-5.06-59.9-10.04ZM63.07,716.76c-.18-.31-.36-.61-.54-.92-.52-.9-1.02-1.79-1.51-2.68,35.79,6.64,71.89,8.89,108.23,6.82,15.69-.89,31.35-2.44,47.02-3.69-50.9,10.84-101.8,8.69-153.19.47ZM197.97,743.31c8.76.95,17.57,2.26,26.35,2.17,16.11-.16,32.22-1.16,48.32-1.93,2.24-.11,4.45-.88,7.13-1.44,0,2.02.25,3.5-.04,4.87-3.48,16.45-7.12,32.87-10.51,49.34-.82,3.98-2.6,5.4-6.76,5.31-15.66-.34-31.32-.4-46.98-.33-3.74.02-5.99-1.43-7.37-4.67-3.18-7.49-6.35-14.99-9.41-22.22-34.01,4.38-68.08,2.29-102.11,2.72-.05-.75-.11-1.51-.16-2.26,2.49-.23,4.99-.64,7.48-.67,24.82-.28,49.64-.39,74.45-.82,6.44-.11,12.87-1.18,19.51-1.83-2-11.03-3.9-21.47-5.79-31.9-1.96.01-3.93-.07-5.88.07-52.56,3.66-65.52,1.77-87.38-.26-4.91-.45-12.7-1.29-22.33-2.87-.68-.88-1.37-1.78-2.06-2.7,1.01.22,2.07.38,3.23.46,15.11.98,30.15,3.8,45.24,3.98,21.45.25,42.92-1.17,64.38-1.94,2.52-.09,5.28-.9,4.91,3.19.63.31,1.25.62,1.88.93-.3-4.95,1.98-8.01,6.75-9.51,8.41-2.64,16.62-6.83,25.2-7.77,9.4-1.03,12.54-6.59,15.05-13.83,1.25-3.61,2.41-7.3,3.08-11.05,1.35-7.56,2.34-15.19,3.47-22.73-66.33,20.85-132.38,19.45-200.32,6.03-.57-1.76-1.1-3.48-1.6-5.15,1.76.44,3.53.84,5.3,1.23,39.52,8.61,79.53,10.89,119.81,8.48,28.33-1.7,56.5-4.69,82.66-17.14.35-.17.89.05.71.04v54.87c-19.44-.5-37.08,3.51-53.83,11.77,26.89,3.24,53.7,2.34,80.69,1.17-4.33,2.26-8.77,3.93-13.35,4.56-20.57,2.83-41.23,2.26-61.87.83-3.84-.27-7.65-1.04-11.47-1.61,1.2.97,2.34,2.48,3.63,2.62ZM241.23,736.47c-3.54-1.22-6.58-2.26-10.39-3.57,5.45-4.28,6.12-4.03,10.39,3.57ZM299.44,790.86c10.27-.37,24.09-1.8,35.74,4.8-12.27-1.65-25.67-3.45-35.74-4.8ZM524.66,621.44c41.36,14.48,83.59,15.17,126.34,7.67-42.85,9.04-85.13,9.16-126.34-7.67ZM629.91,657.97h-46.73c0-.11-.01-.22-.02-.33h46.74c0,.11,0,.22,0,.33ZM566.6,679.72c10.57,1.29,21.06,3.06,31.62,3.7,10.44.64,20.94.14,32.13.14-.22,2.09-.4,3.85-.61,5.89-20.62.83-40.87,1.23-61.05-4.35,0,25.72,7.01,49.24,21.2,71.14-10.89-5.5-28.35-54.68-23.29-76.52ZM615.22,697.36c3.75.26,7.78.55,12.64.89-1.98,9.19-3.55,17.82-5.73,26.3-2.36,9.19-5.46,18.18-7.89,27.35-1.16,4.36-3.36,6.16-7.8,5.27-1.29-.26-2.71-.36-3.98-.12-8.39,1.62-12.4-2.91-15.93-9.83-9.24-18.08-14.46-37.16-16.18-57.29-.05-.63.08-1.28.09-1.55,10.93,1.13,21.3,2.48,31.71,3.19,10.34.7,20.72.75,31.08,1.08.05.51.1,1.02.15,1.52-6.1,1.07-12.2,2.14-18.16,3.18ZM630.37,699.14c-1.09,5.47-2.17,10.94-3.26,16.41-.37-.08-.73-.16-1.1-.24.95-5.48,1.9-10.95,2.84-16.43.5.09,1.01.17,1.51.26ZM537.24,757.07c-.4-8.17-1.1-15.55-1.06-22.92.06-11.9-.36-11.2,10.83-9.46,6.19.96,12.52,1.08,18.97,1.6-.65,17.82-13.87,23.98-28.74,30.79ZM741.53,652.65c-.68-1.41-1.79-3.54-2.74-5.73-.99-2.29-1.83-4.64-2.73-6.96-.48.06-.97.12-1.45.19.68,3.77.55,7.96,2.23,11.23,3.2,6.25,1.48,10.84-2.09,16.28-11.89,18.14-12.62,37.4-4.24,57.19,5.12,12.1,5.11,12.26-7.88,12.46-23.82.38-47.63.61-71.45.76-3.09.02-4.67,1.12-6.11,3.82-3.06,5.71-6.41,11.29-10.1,16.62-1.11,1.6-3.69,3-5.65,3.08-13.64.52-27.3.71-40.95.87-1.36.02-2.73-.81-4.1-1.25.09-.55.18-1.09.27-1.64,5.06,0,10.11.02,15.17,0,8.99-.05,17.99-.23,26.98-.15,3.4.03,5.46-1.3,7.21-4.19,14.43-23.9,24.02-49.24,23.42-78.14-6.88.94-13.49,1.77-20.06,2.76-21.64,3.25-43.19,2.05-64.66-1.49-1.96-.32-3.78-1.56-5.66-2.37,1.46-1.81,2.59-4.11,4.44-5.34,15.17-10.05,32.08-10.08,49.15-7.66,9.19,1.3,18.33,3.28,25.99,9.37,1.48,1.17,4.03,1.34,6.09,1.36,5.94.07,8.58,1.8,7.92,8.03-1.24,11.87-3.19,23.71-5.57,35.42-1.2,5.93-3.98,11.54-6.19,17.72h70.31c-.25-1.43-.22-2.29-.55-2.97-7.82-16.03-7.1-32.94-5.15-49.97,2.77-24.15,5.79-48.28,8.16-72.48.56-5.71,3.7-4.99,7.35-5.36,4.22-.43,5.13,1.44,5.68,5.28,2.09,14.6,4.64,29.14,6.95,43.27Z"/>
  </g>
</svg>