<?xml version="1.0" encoding="UTF-8"?>
<svg id="Layer_1" data-name="Layer 1" xmlns="http://www.w3.org/2000/svg" viewBox="0 0 903.38 779.95">
  <defs>
    <style>
      .cls-1 {
        fill: #000;
      }

      .cls-1, .cls-2 {
        stroke-width: 0px;
      }

      .cls-2 {
        fill: #fff;
      }
    </style>
  </defs>
  <path class="cls-2" d="M783.51,153.4c1.58-3.9,3.12-7.96,4.61-12.17,2.89-8.15,5.27-16,7.23-23.44,2.04-.36,4.33-.67,6.85-.82,2.21-.14,4.27-.14,6.14-.07.13-.86.27-1.72.4-2.58-55.42-21.05-100.46-37.5-131.8-48.78-89.73-32.3-80.63-28.77-93.32-33.29-28.53-10.17-57.07-20.33-85.6-30.52-5.63-2.01-10.95-2.38-16.84-.5-59.94,19.2-120.15,37.58-179.87,57.43-44.73,14.87-88.86,31.57-133.27,47.42-2.57.92-5.3,1.26-4.8,5.14.54,4.14,3.85,3.81,6.13,3.34.73-.15,1.47-.29,2.2-.44,3.89,2.02,8.73,5.45,11.93,11.11,2.59,4.56,3.28,9.1,4.03,14.05.77,5.07.8,9.38.66,12.46.87,1.23,1.74,2.46,2.6,3.69,0,10.68.08,20.69-.05,30.69-.02,1.33.18,2.34.64,3.08-2.93.07-5.86.09-8.79-.05-1.5-.07-6.61-.35-8.16,2.32-.25.44-.38.9-.24,5.5.15,4.91.32,5.42.62,5.89,1.58,2.55,5.63,2.65,7.01,2.62,7.31,6.45,10,15.62,10.9,25.23.27,2.95.94,4.68,2.14,5.64-.44.9-.88,1.8-1.32,2.71-2.65,40.54-5.31,81.07-7.96,121.61.15,1.07.38,3.66-.98,6.41-.37.74-1.06,2.16-2.32,3.09-4.04,3.01-9.6-2.13-14.54.13-2.87,1.31-4.43,4.61-4.88,6.82-1.65,8.05,9.21,11.75,13.76,24.32,3.76,10.38,2.23,22.85-2.45,24.84-2.07.88-3.5-.83-7.82-1.72-5.02-1.03-9.15.04-17.79,3.13-16.05,5.74-24.07,8.61-25.87,12.35-2.95,6.14,1,12.55,3.33,19.25,6.23,17.88-.48,33.68-6.55,53.33-17.41,56.39-24.46,128.01-6.93,139.12,1.86,1.18,8.8,4.72,13.72,12.62,2.77,4.45,3.95,8.77,4.51,11.68,15.63,1.72,31.26,3.45,46.89,5.17,5.12,6.57,10.41,15.4,7.53,22.17-4.4,10.32-23.6,5.89-27.07,14.07-4.86,11.45,23.79,41.27,59.72,51.23,7.96,2.21,23.49,6.51,42.42,2.89,25.49-4.87,37.76-20.39,63.45-18.68,7.18.48,12.92,2.14,16.48,3.37-.86,3.29-1.72,6.57-2.58,9.86,4.14.81,7.55,1.19,9.88,1.39,11.78.99,16.11-1.01,27.18.5,3.22.44,5.51.97,9.13,1.81,9.11,2.11,13.49,4.07,20.71,4.74,1.89.18,4.96.35,8.69-.42,2.07-.43,3.54-.98,4.09-1.18,6.21-2.25,13.2-1.7,24.65-2.68,7.34-.62,13.87-.2,14.8-2.79.21-.57.77-3.03,1.13-5.74.06-.48.1-.84.12-.96.13-1.15,1.04-9.01,3.04-12.39,3.41-5.76,11.95-1.29,16.09-7.08,2.31-3.23.8-5.77,2.14-16.3.59-4.63,1.42-8.35,2.01-10.72,39.13-.33,78.27-.67,117.4-1-11.77,9.26-15.98,24.94-10.55,37.95,4.59,11,15.42,18.51,27.81,19.38,10.41,2.28,18.69,1.14,23.36.12,6.77-1.48,15.23-3.33,19.89-10.58,2.88-4.48,3.04-9.05,3.11-11.09.68-19.12-21.58-34.69-24.43-36.63,9.72-2.75,21.87-4.63,27.8,1.6,1.58,1.66,2.44,5.02,4.09,11.68,5.47,22.05,7,28.58,10.96,29.5,1.66.39,3.67-.24,4.45-1.44,1.76-2.7-2.56-8.34-3.73-9.99-4.03-5.68-7.85-16.26-6.89-37.79,13.22-.07,27.83-.82,43.55-2.65,19.85-2.31,37.66-5.92,53.12-9.91,2.11-1.69,7.59-6.57,9.27-14.68.65-3.11.56-5.87.29-7.96,4.99,8.89,7.55,10.37,8.96,9.99,5.69-1.53-3.43-34.3,8.51-41.27,3.08-1.79,4.04.17,23.28,1.59,13.54,1,20.72.26,23.23-3.19,1.26-1.74,1.12-3.29,1.37-6.83.56-8.18,2-9.95,4.33-21.18,1.42-6.87,4.11-21.81,9.71-57.78.37-.4.75-.79,1.12-1.19,5.16,4.56,10.32,9.11,15.47,13.67-.29-9.6-.59-19.21-.88-28.81.44.03.88.05,1.32.08,1.87.17,4.23.04,5.69-1.47,1.76-1.82,1.4-4.77,1.3-5.74-1.3-12.79,2.42-51.96,6.06-71.12,1.07-5.66,2.29-10.38,3.25-14.07,3.26-12.62,6.89-23.04,9.86-30.72-2.39-14.4-3.78-26.26-4.62-34.51-2.52-24.82-1.91-35.86-10.33-43.55-5.11-4.67-9.26-4.19-16.59-6.78-31.48-11.1-42.13-50.56-46.39-48.73-3.24,1.39.67,25.17,7.94,46.45,4.28,12.5,10.33,25.93,4.18,35.53-2.16,3.38-4.25,3.8-4.88,6.97-1.92,9.68,15.67,15.12,15.33,25.08-.31,9.01-15.18,18.38-27.28,18.18-3.3-.05-9.01-1.54-20.44-4.51-4.34-1.13-7.9-2.14-10.3-2.83-3.03-23.54-4.34-42.87-4.98-56.31-1.32-27.91-2.36-86.58-2.16-95.02.07-2.86-.05-4.83-.27-8.76-.04-.67-.13-2.14-.46-4.03-.22-1.28-.48-2.34-.68-3.08.39-.23.92-.62,1.32-1.24.31-.49.43-.94.48-1.14.28-1.14,3.19-13.77,7.13-31.09,1.33-.18,2.55-.34,3.65-.5,3.37-.47,3.81-.57,4.33-.99,1.55-1.28,1.51-3.7,1.48-4.88-.02-1.17-.05-2.62-.99-3.68-1.19-1.34-3.16-1.32-4.96-1.3-3.56.04-6.98.06-11.03.08-.63-.58-1.42-1.49-1.81-2.77-.78-2.58.68-4.69,1.59-7.01.96-2.46.44-3.01.03-15.31-.07-2.03-.16-5.12-.21-8.94.35-1.56.7-3.12,1.05-4.68Z"/>
  <g>
    <path class="cls-1" d="M732.05,103.5c-24.17-8.45-48.28-17.04-72.43-25.55-54.64-19.26-109.25-38.61-164-57.54-4.93-1.71-11.27-2.18-16.17-.68-36.44,11.18-72.72,22.87-108.97,34.65-58.04,18.85-116.01,37.89-174,56.87-1.35.44-2.61,1.16-3.91,1.75l.38,2.15h569.82c-3.11-2.34-6.43-3.77-9.84-4.92-6.94-2.32-13.98-4.31-20.88-6.73Z"/>
    <path class="cls-1" d="M620.7,517.4c2.46-1.04,5.11-2.25,7.69-2.31,6.37-.16,7.29-3.74,7.29-9.09,0-22.91.69-45.83.38-68.74-.85-62.57-2.09-125.14-3.16-187.7-.08-4.53-.01-9.07-.01-14.06h-37.22c-.4,10.27-.81,20.42-1.2,30.58-1.41,36.36-2.79,72.73-4.3,109.09-.14,3.45.78,5.68,3.79,7.57,5.62,3.55,8.59,8.94,10.41,15.36,3.71,13.12,7.79,26.14,12.02,39.1,2.48,7.58,2.29,10.65-3.92,15.76-5.92,4.88-12.26,9.29-18.67,13.52-3.04,2.01-4.32,3.84-4.13,7.82.76,16.11,1.25,32.25,1.18,48.37-.06,12.89-1,25.78-1.73,38.66-.2,3.49,1.12,5.24,3.99,7.36,7.02,5.2,13.69,10.96,19.93,17.08,2.66,2.61,5.31,3.23,7.48,1.35,4.26-3.69,8.42-2.63,12.97-1.39,2.53.69,5.19.87,7.72,1.27,2.42-9.16,1.58-12.7-5.53-17.34-12.53-8.17-19.23-20.2-23.55-33.9-3.29-10.42-1.5-14.08,8.58-18.35Z"/>
    <path class="cls-1" d="M320.17,410.17c.8,9.74,3.19,19.36,5.18,28.97,1.17,5.62,1.83,11.78,4.68,16.52,6.79,11.29,14.75,21.88,23.23,34.2-.99-85.64-1.97-170.03-2.95-254.9h-36.05c-.2,2.24-.43,4.13-.54,6.02-1.55,25.76-3.13,51.51-4.57,77.28-.33,6-2.77,12.95,7.14,15.77-3.21,2.75-5.42,4.65-7.63,6.54-.33-.38-.66-.76-.99-1.14,1.75-1.54,3.49-3.07,5.38-4.73-2.87-1.87-5.22-3.5-7.67-4.98-9.29-5.61-25.37-4.83-32.85,1.55-5.08,4.33-6.3,10.34-3.09,15.08.13.19-.09.63-.15.98-1.09-.56-2.14-1.09-3.09-1.58-1.57,4.94-2.79,9.58-4.54,14.01-1.09,2.74-2.83,4.92-6.68,3.28-4.93-2.1-9.55-.56-11.87,4.01-1.2,2.37-1.05,6.67.38,8.85,2.85,4.35,7.55,4.63,12.38,2.57,8.78-3.76,14.99-9.98,18.69-20.34-.79,13.71-3.5,24.83-15.55,31.14-.93.48-1.31,2-1.95,3.04-11.23,1.15-18.41,7.12-21.14,18.1-2.55,10.27-5.17,20.54-7.13,30.93-.59,3.12.34,6.85,1.53,9.93,3.35,8.72,7.2,17.26,10.85,25.87-.43.2-.87.39-1.3.59-6.25-13.5-12.5-26.99-19.33-41.75-4.99,17.99-9.39,34.12-14.04,50.18-.52,1.8-2.52,3.17-3.83,4.73-.45-.32-.91-.65-1.36-.97.16-1.38.31-2.77.6-5.28-2.45,3.81-4.27,6.64-6.51,10.12,15.78,1.01,30.86,4.17,45.86-3.01-6.95,3.11-5.35,8.96-5.33,14.29.02,8.09.05,16.18.06,24.26,0,7.98,0,15.96,0,23.94-.39.02-.78.05-1.17.07-.62-19.02-1.25-38.03-1.88-57.3-14.99,1.72-29.77-.44-43.49,7.18-8.33,4.63-18.16,4.31-27.77,3.19,2.54,1.22,5.35,2.73,7.83,2.31,7.86-1.33,15.62-3.34,23.39-5.2,1.99-.47,3.88-1.32,5.82-2,.32.6.65,1.2.97,1.8-6.82,16.82-18.48,27.66-37.64,29.39,15.9,4.71,25.34-5.77,35.57-15.38-6.46,36.45-14.86,71.88-35.16,103.47,4.45-4.62,8.63-9.4,11.54-14.86,13.92-26.18,21.31-54.36,24.23-83.74.67-6.72,3.01-12.34,7.93-17.64,1.97,3.61,3.65,7.24,3.79,10.93.82,21.34,2.51,42.75,1.56,64.03-1.35,30.17-4.8,60.25-7.12,90.38-.19,2.41.73,6.18,2.41,7.2,3.36,2.03,7.38.96,9.54-2.66,6.57-11.01,10.48-22.97,12.31-35.56-5.68-2.25-6.7-4.33-5.2-9.79.82-2.97,1.59-5.95,2.46-8.9,3-10.12,5.32-20.51,9.29-30.23,2.75-6.74,4.85-13.27,4.97-20.51.05-2.88.49-5.75.68-8.63,1.93-28.52,9.64-56.39,7.87-85.42-1.05-17.16,1.59-34.54,2.35-51.83.19-4.21,2.57-6.28,6.01-6.34,3.83-.06,7.67,1.26,11.52,1.83,3.87.57,7.78.96,12.6,1.53-7.58-9.26-13.96-17.05-20.34-24.84,1.71,1.5,3.54,2.89,5.12,4.51,4.81,4.95,9.4,10.14,14.42,14.87.87.82,4.33.55,5.03-.38,4.25-5.69,8.42-11.51,11.78-17.74,1-1.86.08-6.91-1.28-7.5-5.81-2.54-5.04-6.83-3.71-11.04,1.61-5.09,5.57-2.63,8.7-1.77,2.49.68,4.35.7,5.58-.21.68-.51.36-.87,1.78-5.04.57-1.66.74-1.99.82-2.84.14-1.38-.2-1.75-.05-3.39.1-1.04.23-2.44,1.06-2.83.38-.18.59,0,1.47.05.57.03,1.95.12,2.53-.3,1.12-.82-.16-4.02-1.13-8.15-.65-2.79-.94-5.08-1.08-6.5l1.64-.22c.56,5.05,1.85,10.16,1.43,15.13-.33,3.84-3.18,7.4-4.22,11.28-1.32,4.94-3.04,8.51-9.18,7.97-2.12-.19-4.39,1.32-6.59,2.05.1.64.2,1.27.3,1.91,2.47.85,4.93,1.73,7.41,2.55,10.19,3.39,16.5,9.47,17.46,21.05ZM247.62,375.72c-1.45-.17-3.62-2.88-3.69-4.5-.15-3.75,4.38-5.37,11.24-4.1-1.36,4.36-1.67,9.27-7.55,8.6Z"/>
    <path class="cls-1" d="M592.36,433c6.54,8.17,5.72,12.64-3.31,17.72-3.63,2.04-7.4,3.85-12.14,6.29,1.78-2.67,2.94-4.4,4.09-6.12-1.87-.79-3.73-2.1-5.61-2.13-13.62-.2-27.25-.1-41.52-.1-2.42,18.48-5.8,37.09-7.08,55.85-1.71,25.05-1.79,50.21-2.51,73.55,7.66-2.83,16.42-6.44,25.45-9.2,3.66-1.12,5.96-2.57,7.68-5.98,10.68-21.18,17.82-43.4,20.54-67,.31-2.67.63-5.35.99-8.02.34-2.52.73-5.04,1.1-7.56.21,30.87-7.58,59.72-23.05,86.98,10.23-.53,19.35-1.01,28.52-1.49.84-14.46,2.29-28.66,2.35-42.86.06-17.27-1.13-34.54-1.51-51.81-.03-1.55,1.57-3.6,2.98-4.65,7.11-5.25,14.37-10.32,21.67-15.3,4.32-2.95,5.12-6.51,3.53-11.44-4.52-14.07-8.57-28.29-13.07-42.36-.84-2.64-2.93-4.88-4.45-7.31-.7.15-1.4.31-2.11.46-1.86,13.22-3.72,26.44-5.58,39.66,1.04.92,2.18,1.75,3.04,2.81ZM553.57,484.6c5.64-9.32,16.74-9.3,25.28-13.91-8.43,4.64-16.85,9.27-25.28,13.91Z"/>
    <path class="cls-1" d="M353.96,508.34s0,0,0,0c.04-.05.08-.1.13-.16,0-.01,0-.02,0-.04-.02.03-.1.15-.12.19.02-.03.09-.16.09-.16-.04-.04-.08-.08-.12-.11,0,.09.01.19.02.28h0Z"/>
    <path class="cls-1" d="M355.02,515.6c-.78,11.32-4.13,22.63.91,33.88-4.83,1.15-9.15,1.99-13.33,3.25-2.8.84-4.26,2.58-1.47,5.19,24.3,2.81,48.57,4.63,72.42-2.95-.67-5.8-4.01-6.19-7.35-6.21-14.24-.07-28.49-.03-41.21-.03.56-3.01,1.38-5.75,1.5-8.53.08-1.84-.52-3.88-1.36-5.56-3.09-6.16-1.6-11.61,1.26-17.5,7.56-15.58,14.41-31.39,17.78-48.63,2.11-10.8,6.17-21.21,9.66-32.84,2.91,7.63,5.52,14.47,8.35,21.89,4.6-1.62,8.35-2.94,12.11-4.26-2.49,1.63-5,3.2-7.44,4.9-1.57,1.09-3.03,2.35-4.54,3.54l.77,1.89c18.27-.35,36.65-1.29,53.35,9.36.61-2.76.95-4.33,1.08-4.91,11.43,21.22,23.03,42.77,35.06,65.11-20-3.55-39.05-4.74-58.07.49,3.25,2,6.61,3.33,9.89,4.83,3.11,1.42,6.14,3.03,9.2,4.55-11.94-3.03-22.96-11.31-36.99-2.96,32.06,14,63.37,10.16,95.15,3.54-1.9-3.58-4.37-5.84-6.46-8.41-3.3-4.04-7.57-7.83-9.27-12.52-5.81-16.07-10.63-32.49-15.91-48.75-3.31-10.2-6.97-20.29-10.09-30.55-1.95-6.43-2.53-13.33-4.93-19.55-2.11-5.45-5.89-10.27-9-15.32-.21-.35-.94-.38-2.04-.78.09,9.24,1.02,18.42-5.94,26.6.7-2.79,1.34-4.76,1.68-6.79,1.05-6.23,2.47-12.45,2.73-18.72.1-2.37-2.54-4.87-3.93-7.31l-1.83.66c-.62,22.86-11.21,39.63-30.63,51,1.8-1.93,3.43-4.05,5.43-5.75,10.93-9.24,19.68-19.83,22.69-34.34,2.29-11,2.38-11.08-7.19-16.66-.3-.17-.45-.59-.88-1.17.66-3.3,1.94-6.31,4.44-7.43,1.48-.66,2.2-.14,5.8-.37,3.71-.24,7.44-.49,8.55-2.6.73-1.39-.41-2.2.47-4.58.64-1.73,1.38-1.67,1.75-3.26.46-2-.38-3.54.33-3.97.25-.15.48-.03,1.23.14,1.54.35,2.73.62,3.31.24.93-.62.32-2.93-.71-6.85-.15-.58-.46-1.69-1.28-2.88-.33-.48-.6-.77-.71-.9-1.71-2,.31-5.97-.99-8.22-1.25-2.17-5.2-2.08-9.12-1.98-2.84.07-5.35.13-8.02,1.56-1.81.97-3.22,1.84-6.05,3.3-.79.4-1.73.5-2.6.74.36-1.59,1.12-2.31,1.95-2.94,2.1-1.58,14.92-3.21,21.32-4.66,3.4-.77,4.48-1.35,4.57-2.07.14-1.21-2.52-2.79-5.07-3.22-2.58-.43-4.59.4-6.09.92-2.67.92-6.64,1.85-12.08,1.71,5.29-1.6,10.59-3.19,15.88-4.79-5.98-6.6-15.71-9.01-25.35-6.02-8.22,2.55-13.14,8.22-14.98,16.66-1.05,4.8.52,7.38,5.42,7.5,2.17-3.05,4.24-5.96,6.3-8.86-.98,3.35-3.75,8.7-2.64,9.69,4.89,4.35,1.63,8.31.83,12.46.94-6.16-.17-11.03-7.54-11.99-.53-.07-1.01-.76-1.52-.76-1.81-.02-3.62.13-5.44.22.79,1.57,1.21,4.04,2.44,4.54,5.78,2.36,4.36,6.17,2.78,10.35-2.38,6.3-6.91,9.92-13.33,11.55-2.17.55-4.22,1.57-7.42,2.79,11.07,3.2,19.58.23,27.24-8.56-2.71,11.9-13.15,12.82-22.48,15.39.79,3.44,1.52,6.55,2.24,9.66-1.12-.96-1.85-2.07-1.99-3.26-.74-6.24-4.43-5.99-9.02-4.41-6.17,2.11-9.22,6.91-10.52,12.74-1.59,7.12-2.11,14.48-3.8,21.57-5.59,23.34-11.46,46.61-17.36,69.87-.37,1.45-1.81,2.64-2.8,3.9.36,2.46,1.1,4.97.93,7.42Z"/>
    <path class="cls-1" d="M448.64,471.34c-14.66-6.54-30-7.06-45.24-5.65-.86,4.76-1.34,8.94-2.39,12.96-2.52,9.68-5.7,19.2-7.89,28.95-2.72,12.13-4.69,24.42-7.1,37.26,7.67.37,13.99.86,20.29.84,1.43,0,2.99-1.63,4.27-2.76,3.08-2.72,5.59-6.49,9.13-8.17,5.31-2.52,11.21-4.16,17.03-5.15,5.78-.98,7.23-3.61,7.09-9.22-.4-15.72-.14-31.45-.14-41.13.29,10.09.91,26.23,1.14,42.38.07,4.55,1.74,5.98,6.1,5.97,4.88-.01,4.46-3.1,4.33-6.24-.51-12.5-1.06-24.99-1.54-37.49-.06-1.64.13-3.29.2-4.94.45.02.9.04,1.36.07.87,15.64,1.74,31.28,2.6,46.89,3.99,1.05,6.15.32,6.03-3.81-.34-12.31-.51-24.62-1.05-36.92-.12-2.85-1.44-5.64-2.28-8.73-1.92,1.21-2.89,1.82-4.48,2.83.47-6.18-4.1-6.43-7.46-7.93Z"/>
    <path class="cls-1" d="M341,557.9s0,0,0,0c.03.01.19.07.22.09.2,1.67.1,3.4.57,4.96,2.42,7.96,5,15.87,7.66,24.24-6.22,1.84-11.07,3.04-15.72,4.78-1.71.64-4.34,3.53-4.19,3.74,2.42,3.44-3.15,9.06,3.04,11.28-.55,1.41-.73,3.36-1.76,4.09-1.24.87-3.21.71-4.87,1,0,.34.01.69.02,1.03,12.97.73,25.94,1.47,38.85,2.2,1.33-12.71-2.78-17.91-14.12-17.33-5.57.29-11.04,2.63-16.56,4.05-.12-.32-.24-.65-.36-.97,6.21-2.13,12.41-4.26,19.19-6.58-.94-2.27-1.84-4.44-2.79-6.75,4.72-2.42,9.05-5.95,13.87-6.84,10.1-1.86,18.96,1.54,25.5,9.84,2.37,3.01,4.41,6.3,6.92,9.19.71.81,2.51.68,3.83.96,3.61-10.49,7.17-20.99,10.85-31.45,1.41-4.02,3.09-7.95,4.65-11.91-.87-.09-1.8-.34-2.58-.11-18.41,5.57-37.29,5.27-56.15,4.14-5.37-.32-10.64-2.35-15.93-3.61,0,0-.02-.02-.02-.02-.04,0-.09,0-.13-.01,0,0,0,0,0,0Z"/>
    <path class="cls-1" d="M581.18,450.73s-.09.07-.14.11c-.01.02-.02.04-.04.05.07.03.14.06.21.09,0-.09-.03-.17-.03-.26Z"/>
    <path class="cls-1" d="M362.58,204.89c3.91-1.76,5.44-2.16,6.83-4.28,1.31-2,1.47-4.95.58-6.74-2.02-4.08-9.97-3-21.95-2.96-16.56.05-33.12.66-49.68.83-1.09.01-3.85.03-5.3,1.86-1.41,1.78-1.21,4.8.06,6.76,1.95,3.01,6.34,3.36,8.61,3.49,8.53.5,28.82.34,55.56-.62.03.59.07,1.18.1,1.78h-51.2c3.18,9.31,6.21,18.19,9.37,27.44,7.5.06,15,.11,22.49.15,11.91.06,11.77.03,14.52-11.72.86-3.69,2.32-7.37,4.21-10.64,1.26-2.19,3.5-4.29,5.79-5.32Z"/>
    <path class="cls-1" d="M315.51,232.43c-.23-.1-.14-.02,0,0h0Z"/>
    <path class="cls-1" d="M315.51,232.43s.03,0,.06.02c0,0,0,0,0-.01h0s-.03,0-.04,0Z"/>
    <path class="cls-1" d="M488.39,576.68c1.27-.12,2.57-.83,3.69-1.53,9.13-5.72,16.67-13.02,21.67-22.67.78-1.51.87-3.38,1.35-5.41-34.16,5.75-67.39,9.7-100.57-3.27.38,3.24.78,6.06,2.37,7.79,4.38,4.78,9.24,9.11,13.92,13.61.37.08.84.05,1.09.27,16.76,14.16,36.54,13.15,56.47,11.21Z"/>
    <path class="cls-1" d="M596.16,233.07h35.46c2.92-9.29,5.69-18.08,8.46-26.88h-52.33c2.77,8.86,5.45,17.41,8.41,26.88Z"/>
    <path class="cls-1" d="M589.32,593.14c-1.5-1.24-4.37-1.87-6.26-1.36-2.8.76-5.27,2.77-8.17,4.41-.44-1.19-1.08-2.89-1.94-5.22,5.47-1.7,10.63-3.3,15.94-4.95-14.23-17.09-50.49-19.99-58.41-4.08,5.95,1.71,12.09,3.48,18.23,5.24,0,0,0,0,0,0-4.28-.73-8.54-1.81-12.85-2.11-3.87-.27-7.54.74-9.14,5.63,10.85-1.25,21.06-.24,30.7,4.25-2.98-2.66-5.96-5.32-8.93-7.98,3.73,2.25,7.38,4.7,11.25,6.68,1.6.82,3.71.67,5.59.97-.37-1.69-.62-3.41-1.17-5.04-.34-.99-1.14-1.83-1.74-2.73.48-.39.96-.79,1.45-1.18,2.35,2.76,5.7,5.16,6.82,8.35,2.32,6.57,7.72,8.64,13.21,9.62,2.39.43,5.77-2.63,8-4.81.56-.55-1.07-4.45-2.6-5.71Z"/>
    <path class="cls-1" d="M462.74,594.8c4.86,5.21,9.62,4.1,15.11,2.05,13.64-5.09,25.98-2.83,36.9,6.92,1.48,1.33,3.2,2.39,5.28,3.92,2.13-6.31,4.74-12.11-.5-16.75-3.88-3.43-8.65-6.71-13.55-7.95-6.36-1.61-13.43-.34-19.88-1.74-9.35-2.03-17.7-1.44-25.18,4.84-1.81,3.39-1.01,5.68,1.82,8.71Z"/>
    <path class="cls-1" d="M651.07,201.72c2.17-2.05,3.33-5.79,2.09-8.11-1.75-3.27-7.83-2.73-15.57-2.5-24.93.73-37.39,1.1-49.18-.62-3.85-.56-8.89-1.5-11.62,1.36-2.73,2.86-2.79,9.12,0,11.32.34.27.98.68,3.64,1.04,3.15.43,4.72.64,8.24.12,7.55-1.11,41.86-.76,54.04-.25,1.53.06,5.59.25,8.36-2.37Z"/>
    <path class="cls-1" d="M429.57,594.73c-12.53,1.5-17.54,12.81-26.04,19.59.26.66.51,1.32.77,1.99h47.26c-.05-13.64-9.37-23.09-21.99-21.58Z"/>
    <path class="cls-1" d="M435.51,590.32c-6.86-10.59-12.85-19.84-19.33-29.84-1.97,6.21-3.34,11.64-5.41,16.78-3.23,7.99-6.92,15.79-10.42,23.66.53,2.9,1.06,5.81,1.88,10.27,11.02-9.02,17.92-20.68,33.29-20.87Z"/>
    <path class="cls-1" d="M400.34,600.91s0-.02,0-.03h0s-.02,0-.03,0c-.06.17-.11.33-.17.5.07-.15.14-.31.21-.46Z"/>
    <path class="cls-1" d="M522.39,618.05c-3.81-16.49-31.61-26.34-45.94-17.29,2.64,3.11,5.32,6.26,7.99,9.42,0,0-.18-.17-.18-.17.02.03.04.05.05.08.01,0,.02.02.03.03,10.56,13.09,24.92,6.47,38.03,7.94Z"/>
    <path class="cls-1" d="M624.76,519.73c-2.47.29-4.69,2.65-7.22,4.17,7.5,7.42,43.07,13.31,51.35,8.89-1.25-2.71-2.51-5.44-3.77-8.17-3.34-2.54-6.63-6.93-10.04-7.03-10.08-.3-20.24.95-30.31,2.14ZM631.22,525.43c4.98-6.37,11.35-6.15,17.86-5.61-5.56,1.75-11.13,3.5-17.86,5.61Z"/>
    <path class="cls-1" d="M367.8,614c.48.5,1.34.86,2.04.9,9.3.49,18.61.91,28.04,1.35-.16-1.95-.36-2.9-.3-3.84.66-10.8-5.61-17.63-16.36-17.34-4.73.13-9.44,1.03-14.17,1.59-1.39,2.82-.96,15.55.74,17.33Z"/>
    <path class="cls-1" d="M669.61,530.25c1.5,1.62,3.29,4.27,4.92,4.24,10.27-.19,20.52-1.01,31.03-1.63-3.88-13.36-29.1-21.25-43.32-15.82,1.02,2.57,2.04,5.15,3.06,7.72,0,0-.2-.18-.19-.18,0,0,0,0,0,0h0s.01.02.02.04c.01.01.03.02.04.03,1.47,1.88,2.84,3.86,4.45,5.6Z"/>
    <path class="cls-1" d="M460.77,586.22s0,0,0,0h0s0,0,0,0c.05-.04.1-.08.16-.12.02-.03.03-.06.04-.1-.04.03-.08.06-.11.1-.03.04-.06.08-.09.12,0,0,0,0,0,0Z"/>
    <path class="cls-1" d="M418.58,559.01c6.64,9.88,13.72,19.53,19.47,29.92,2.39,4.32,5.08,4.8,8.9,5,6.32.33,9.72-4.43,13.91-7.84,1.24-1.79,2.49-3.59,3.99-5.76-3.84-.83-7.54-1.51-11.17-2.45-8.65-2.25-16.96-5.18-22.77-12.58-3.57-2.84-7.11-5.72-10.73-8.49-1.5-1.15-3.41-3.32-4.11.62.9.49,2.02.82,2.53,1.58Z"/>
    <path class="cls-1" d="M430.86,565.24c.06.06.18.17.18.17-.07-.07-.14-.14-.22-.21,0,0,0,0,0,0,.03.03.06.07.08.1.04.04.09.07.13.11,0,0-.12-.12-.18-.17Z"/>
    <path class="cls-1" d="M416.06,557.44c-.06-.03-.13-.07-.19-.1,0,0,.09.11.13.17l-.13-.17c-.02.06-.05.12-.07.18.08,0,.16.02.23.03,0-.04.02-.07.02-.11Z"/>
    <path class="cls-1" d="M527.56,612.24c-1.04.94-1.54,3.15-1.27,4.59.13.72,2.55,1.44,3.94,1.44,9.74.05,19.49-.16,29.23-.12,3.38.01,4.68-1.51,3.94-4.61-.99-4.18-2.25-8.29-3.4-12.43-12.72-1.9-23.24,2.85-32.44,11.13Z"/>
    <path class="cls-1" d="M650.14,588.3c7.44.62,14.92,1.1,22.38,1.12,1.74,0,4.16-1.71,5.06-3.31,1.51-2.67,2.04-5.89,2.99-8.92h-36.21c1.18,4.23-1.92,10.47,5.78,11.11Z"/>
    <path class="cls-1" d="M464.82,602.55c-5.07,3.26-8.86,7.66-9.6,14.91h34.2c-2-2.9-3.55-5.14-5.09-7.38-2.27-1.69-4.49-3.45-6.84-5.03-3.86-2.61-7.92-5.56-12.67-2.51Z"/>
    <path class="cls-1" d="M639.46,615.38c-2.29-7.9-4.25-9.6-9.88-9.07,2.24-4.02-.51-10.62-5.8-13.93-3.09-1.93-11.31-.84-12.58,2.31-.78,1.94.1,4.94,1.14,7,.33.65,3.61-.19,6.86-.46,1.37,3.41,3.45,8.56,5.7,14.14h14.56Z"/>
    <path class="cls-1" d="M636.25,603.62c2,2.91,3.33,4.84,4.65,6.77,12.66-8.42,18.34-7.33,26.67,4.75,4.23-2.28,8.48-4.58,12.74-6.88,1.97-7.91,1.13-9.21-6.94-10.23-4.47-.57-8.97-.86-13.46-1.27-.03.18-.06.37-.1.55,6.26,2.4,12.53,4.81,18.79,7.21-.13.47-.27.95-.4,1.42-2.88-.57-6.01-.61-8.59-1.82-8.21-3.84-16.73-4.16-25.43-2.96-2.46.34-4.82,1.46-7.95,2.45Z"/>
    <path class="cls-1" d="M565.39,570.54c17.06,3.44,29.26,18.67,46.99,20.33-11.06-17.88-26.82-24.48-46.99-20.33Z"/>
    <path class="cls-1" d="M616.75,616.09c1.28-.09,3.53-2.07,3.43-2.97-.24-2.3-.93-5.26-2.55-6.6-7.72-6.4-24.87-.51-28.06,9.71.9.43,1.4.89,1.9.88,8.43-.26,16.87-.45,25.28-1.01Z"/>
    <path class="cls-1" d="M553.01,594.86c-6.22-.93-12.4-2.43-18.65-2.73-5.21-.25-8.11,3.78-10.08,8.21-1.76,3.97-1.97,7.77,1.86,11.24,8.67-8.17,18.36-13.94,30.79-13.33.29.01.68-1.83,1.02-2.8l.15-.16c-.23-.11-.45-.21-.68-.31.11.1.21.19.32.29-1.58-.11-3.17-.17-4.74-.4Z"/>
    <path class="cls-1" d="M389.12,591.18c-6.08-2.79-11.39-5.89-17.11-7.66-6.81-2.1-13.67,1.07-17.39,7.11-.78,1.27-.65,3.11-.93,4.68,1.54-.11,3.26.17,4.59-.41,2.77-1.2,5.34-2.86,7.99-4.33.16.31.32.62.48.94-2.19,1.39-4.38,2.79-6.56,4.18l.5,1.78c2.16-.32,4.31-.64,6.47-.97l-.2.18s.08,0,.11-.01c0,0,0-.01,0-.02,6.92-1.72,13.83-3.44,22.05-5.48Z"/>
    <path class="cls-1" d="M563.65,605.19c.86,2.68.63,5.68,1.24,8.46.31,1.41,1.38,3.71,2.22,3.76,5.57.34,11.17.17,17.34.17-2.06-8.76-5.46-14.93-13.15-16.76-3.44-.82-7.65-4.73-11.18.3,0,0-.07-.07-.12-.12,0,0,.01.01.02.02l-.07-.07s.03.1.04.15c.04,0,.08,0,.12.01,1.28,1.33,3.04,2.49,3.54,4.06Z"/>
    <path class="cls-1" d="M307.71,722.96c-11.14-1.08-18.67,5.17-25.8,12.11.18.9.36,1.8.54,2.69,12.08-.88,24.15-1.76,36.69-2.68-2.81-8.77-5.54-11.56-11.43-12.13Z"/>
    <path class="cls-1" d="M715.47,457.96c6.69-4.79,10.7-11.45,13.22-19.14,7.03-21.36,5.8-42.87,1.19-64.44-.18-.85-.77-1.6-1.18-2.4-.28,1.77.01,3.27.27,4.78.3,1.71.64,3.41.83,5.13,3,27.88,4.73,55.47-18.91,78.63,2.42-1.34,3.57-1.85,4.57-2.56Z"/>
    <path class="cls-1" d="M609.41,602.46c-4.22-5.18-10.33-6.43-15.07-3.56-6.98,4.21-10.67,10.97-8.28,16.69,6.28-7.53,12.09-14.95,23.35-13.13Z"/>
    <path class="cls-1" d="M463.5,598.82c-6.29-5.9-8.36-6.05-16.38-1.61,2.34,3.88,4.68,7.76,7.52,12.46,3.19-3.9,6.03-7.39,8.86-10.85Z"/>
    <path class="cls-1" d="M643.76,611.26c-.49.14-1.08,1.95-.77,2.39.55.78,1.74,1.52,2.68,1.55,4.89.15,9.79.07,14.69.07l1.15-2.19c-1.3-1.79-2.77-5.21-3.86-5.09-4.7.49-9.3,1.96-13.88,3.28Z"/>
    <path class="cls-1" d="M588.09,590.07q11.63,7.47,17.27,4.16c-5.28-6.01-11.24-7.58-17.27-4.16Z"/>
    <path class="cls-1" d="M294.61,444.33c-10.51.51-17.29-6.74-26-12.62,6.3,11.77,17.05,16.67,26,12.62Z"/>
    <path class="cls-1" d="M673.22,614.56h20.59c-2.23-4.54-10.76.38-10.25-7.7-1.23.56-2.24,1.02-3.26,1.48l.17-.16s0,0,0,0c0,0,0,0,0,0h0s-.1.06-.15.09c0,.02,0,.04-.02.06-2.09,1.84-4.2,3.7-7.08,6.24Z"/>
    <path class="cls-1" d="M637.86,593.46c-1.19-2.13-4.23-3.39-6.7-4.57-.85-.41-2.99.18-3.37.91-.44.86,0,2.8.77,3.52,2.08,1.94,4.53,3.49,7.77,5.88.4-1.32,2.33-4.3,1.52-5.74Z"/>
    <path class="cls-1" d="M303.54,425.34c1.55-8.79,3.1-17.58,4.65-26.37-.6-.1-1.21-.21-1.81-.31-1.5,8.8-2.99,17.6-4.49,26.4.55.1,1.1.19,1.66.29Z"/>
    <path class="cls-1" d="M504.4,371.54c5.24-2.49,4.31-6.3,11.05-11.73,3.35-2.7,5.25-3.11,5.12-4.36-.22-2.18-6.29-3.87-11.47-3.31-3.87.42-6.7,2.05-7.92,2.83-5.69,3.65-9.3,9.55-11.04,17.65-2.18,10.13-4.31,20.51-4.36,30.79-.06,11.59,1.53,23.33,3.74,34.74,1.43,7.39,4.89,8.69,11.39,5.11,8.37-4.61,16.37-9.99,24.05-15.69,2.17-1.61,3.53-5.4,3.79-8.32.87-10.12,2.99-19.74,8.43-28.45-2.9,10.71-7.37,21.13-6.72,33.14,7.41-4.04,14.05-7.67,20.69-11.29h0c-5.87,4.5-11.85,8.87-17.58,13.56-3.63,2.98-3.77,10.29-1.33,16.65,1.87,4.88,5.63,3.53,9.13,3.54,11.47.04,22.95.09,34.42.18,2.85.02,5.11.9,5.38,4.16,6.97-5.24,10.55-11.79,7.93-20.74,0,0,.05.06.1.13l.1.13s0-.04,0-.06c-.02-.01-.03-.03-.05-.04-.73-2.03-2.23-4.18-1.95-6.06,1.52-10.37,3.35-20.7,5.39-30.98,1-5.05-.47-8.39-5.5-10.44-.73,1.17-1.47,2.35-2.44,3.9.32-4.36-1.42-5.12-4.7-3.1,2.52-3.27.03-4.76-2.23-6.37-10.25-7.32-12.62-16.44-6.89-27.59-.11,1.63-.5,3.2-.92,4.77-1.18,4.39-.86,8.69.85,12.4.49,1.06,2.19,4.9,6.37,7.3,4.03,2.31,9.59,2.86,10.42,1.23.77-1.52-3.34-3.5-6.98-10.62-1.99-3.9-2.57-6.86-2.74-7.85-.57-3.24-.39-5.99-.13-7.85,3.32-2.14,5.26-5.19,4.89-7.95-.19-1.44-.97-2.52-1.33-3.02-1.38-1.92-3.66-3.35-5.4-3.69-.65-2.67-2.45-5.13-5.39-7.2-7.91-5.57-20.46-6.12-27.41,0-2.4,2.11-5.5,5.11-5.69,8.82-.06,1.2.13,3.75-1.48,5.5-.38.42-.72.63-1.45,1.45-.42.47-1.24,1.45-2.07,2.9-1.51,2.63-2.26,3.95-1.87,5.05.71,1.99,4.11,1.1,5.32,3.32.93,1.7-.72,2.84-.48,5.95.2,2.74,1.78,5.77,4.28,7.27,1.82,1.09,3.71,1.53,7.13,1.09,7.5-.97,7.53-.97,8.4,6.7.17,1.47.02,2.97.02,4.46l-1.18-1.18c-5.4,3.72-10.79,7.43-16.19,11.15.43-4.31-2.34-2.89-3.7-1.62-5.87,5.48-11.74,11-17.1,16.96-5.05,5.61-9.47,11.79-15.14,18.95-1.97-14.94-3.91-28.21-5.4-41.53-.48-4.32-.64-6.53.34-7.89,1.6-2.2,3.8-1.08,7.5-2.83ZM545.61,441.49c5.72-3.03,12.46-5.72,18.13-9.86,5.61-4.09,10.14-9.66,14.08-13.53-4.07,10.84-21.43,23.76-32.22,23.39ZM543.54,334.08c10.74.99,21.88,1.17,28.44,11.87.93-1.04,1.69-2.08,2.31-3.12.37,1.4.85,3,1.48,4.87-.52-.21-1.1-.39-1.74-.55-1.72-.42-3.44-1.12-4.96-2.02-3.89-2.3-7.45-5.3-11.55-7.06-4.42-1.9-9.3-2.7-13.98-3.99ZM562.56,403.75c5.66-5.45,10.86-11.36,16.26-17.07-.13.75,0,1.7-.43,2.22-7.76,9.59-15.11,19.66-27.47,23.97,3.9-3.01,8.11-5.71,11.64-9.11Z"/>
    <path class="cls-1" d="M895.05,376.52c-6.48-13.32-11.4-27.4-16.79-40.6,10.97,11.15,13.03,27.51,20.5,42.34,0-14.44,1.25-27.95-.39-41.1-1.37-10.98-12.91-16.76-22.98-12.91-.5.19-1,.35-1.49.5.21-.69.22-1.26.13-1.7-.58-2.92-5-3.13-11.83-8.32-3.97-3.02-4.5-4.55-4.78-5.37-.72-2.16-.43-4.63.77-7.55.75-1.82.86-4.17.5-6.14-1.87-10.49-10.25-17.72-20.9-18.22-6.03-.28-15.39,1.01-18.89,6.66-3.19,5.15-3.59,7.51-3.59,7.51-.16.98-.39,3.18-1.95,4.57-.32.29-.63.48-1.07.97-1.01,1.13-1.37,2.35-1.56,3.02-1.38,4.91-2.08,7.37-1.15,8.27.93.91,2.19.13,3.09,1.21.71.85.34,1.82.5,3.66.16,1.9.67,2.32,1.26,4.48,1.41,5.08-.28,6.97,1.46,8.76,1.05,1.09,2.58,1.33,3.99,1.56,2.52.4,3.19-.47,5.16.08,1.33.37,3.97,1.46,3.84,3.3-.11,1.64-1.74,3.46-3.19,4.63-1.27,1.03-3.15,1.36-4.81,1.88-7.46,2.32-11.15,7.42-10.62,15.15.54,7.85,1.14,15.75,2.58,23.47.52,2.78,3.08,6.41,5.57,7.33,5.48,2.02,7.52,6.23,9.5,10.82,1.57,3.64,2.97,7.35,4.69,11.66-1.85.72-3.7,1.59-5.63,2.17-9.09,2.75-17.92.82-26.69-1.69-3.42-.98-6.87-1.9-10.3-2.83-.61-5.09-1.08-9.51-1.43-13.13-2.83-28.74-1.85-44.28-4.16-102.65-.64-16.15-1.08-32.3-1.87-48.44-.04-.84-.5-2-1.08-2.98.4-.26.77-.56,1.06-.88,0,0,.36-.44.59-1,.36-.9,3.33-13.83,7.29-31.6,1.09,0,2.17,0,3.26.02,4.74.04,6.21-1.68,6.2-6.39-.01-5.02-2.79-4.99-6.33-4.98-1.89,0-5.75.04-10.65.08-.35-1.33-.76-3.1-.49-5.62.19-1.85,1.12-2.61,1.04-4.3-.24-5.38-.07-10.78.02-16.17.08-4.53.12-6.81-.97-7.95.35-1.56.7-3.12,1.05-4.68.5-.43,1.29-1.15,2.08-2.16,2.95-3.78,3.23-8.06,3.36-9.49.38-4.09,2.01-11.12,6.41-23.96,4.21.15,8.7-.76,12.98-.89.13-.86.27-1.72.4-2.58-2.95-1.47-5.78-3.26-8.86-4.37-41.09-14.86-82.18-29.7-123.32-44.41-59.62-21.32-119.29-42.5-178.92-63.81-5.63-2.01-10.95-2.38-16.84-.5-59.94,19.2-120.15,37.58-179.87,57.43-44.73,14.87-88.86,31.57-133.27,47.42-2.57.92-5.3,1.26-4.8,5.14.54,4.14,3.85,3.81,6.13,3.34.73-.15,1.47-.29,2.2-.44,3.89,2.02,8.73,5.45,11.93,11.11,2.59,4.56,3.28,9.1,4.03,14.05.77,5.07.8,9.38.66,12.46.87,1.23,1.74,2.46,2.6,3.69,0,10.68.08,20.69-.05,30.69-.02,1.33.18,2.34.64,3.08-2.93.07-5.86.09-8.79-.05-1.5-.07-6.61-.35-8.16,2.32-.25.44-.38.9-.24,5.5.15,4.91.32,5.42.62,5.89,1.58,2.55,5.63,2.65,7.01,2.62,7.31,6.45,10,15.62,10.9,25.23.27,2.95.94,4.68,2.14,5.64-.65.81-1.21,1.9-1.32,2.71-.59,4.37-.59,8.83-.86,13.25-2.21,36.12-4.39,72.25-6.72,108.37-.24,3.73.72,5.92,4.2,7.7,6.09,3.11,10.28,8.23,11.67,14.99.55,2.69-.35,5.68-.59,8.53-.7.07-1.41.13-2.11.2,1.14-13.25-4.98-21.25-17.33-23.88-2.43-.52-9.77-1.75-15.59,2.91-2.45,1.96-3.8,4.29-4.52,5.89-3.47.03-3.32,2.43-2.47,9.77.02.16.09.58,0,1.13-.17,1.18-.87,1.94-1.25,2.42-.66.83-1.04,1.86-1.81,3.92-.84,2.25-1.55,4.17-.73,5,.52.53,1.81.75,2.8.6.49-.07.77-.22,1.08-.04.22.13.5.45.52,1.9.02,1.27-.2,1.46-.26,2.63-.06,1.12.13,1.1.18,3.19.04,1.35-.04,1.37.06,1.67.49,1.44,2.56,1.96,3.61,2.22,2.52.61,3.27.45,6.88.32,3.86-.15,4.94,2.12,5.17,5.42.37,5.34-3.53,6.41-7.37,7.1-2.71.08-29.89,1.07-41.02,10-2.15,1.72-6.45,5.33-6.95,10.51-.16,1.62.15,3.41,1.13,5.44,5.27,10.84,5.96,21.94,1.1,33.18-.99,2.29-2.75,4.68-2.62,6.93.42,6.92-4.05,7.22-8.76,7.06-3.62-.12-7.25-.69-10.81-1.39-6.07-1.18-9.9-4.8-11.05-11.02-1.19-6.43-2.41-12.85-3.6-19.27-1.06-5.67-1.75-11.43-3.24-16.98-1.93-7.15-6.43-12.02-13.93-14.02-3-.8-5.72-2.68-8.49-4.03,3.94-9.85,4.25-10.01,13.58-9.1,2.86.28,4.53.11,6.97-.41,2.33-.5,3.6-.79,4.56-1.91,1.03-1.21.53-2.02,1.87-5.72.57-1.56.8-1.81,1.08-3.01.13-.56.15-.77.36-1.02.8-.94,2.32.05,3.19-.66.76-.62.46-2.18-.12-5.3-.28-1.52-.44-2.3-.9-3.13-.83-1.48-1.57-1.49-1.87-2.53-.34-1.19.47-1.72,1.27-4.16.33-1.02.52-2.33.9-4.94.17-1.19.51-3.49.53-4.37.1-4.03-6.29-7.36-10.12-10.2-10.59-7.85-27.76-4.48-30.89,6.43-.63,2.19-1.48,5.2-4.56,7.51-2.39,1.79-5.28,2.31-5.21,3.31.05.63,1.22,1.06,2.26,1.33.37,7.5.83,7.93,8.23,5.64-1.13,4.13-.97,8.79-3.1,10.38-6.04,4.5-12.63,8.93-19.71,11.22-7.76,2.51-9.31,4.37-11.38,6.74-3.99,4.57-4.68,10.26-4.89,11.56-2.75,16.88-16.22,31.73-9.89,44.11,5.55,10.84,21.27,9.98,22.26,19.56.34,3.35-1.6,5.52-3,8.68-4.16,9.34-4.74,17.77-5.73,34.26-1.88,31.41,3.37,31.83,6.19,80.04.42,7.19.68,13.71,5.46,17.83,6.17,5.33,13.39,1.04,34.93,2.55,4.4.31,10.33,1.18,22.19,2.91,9.4,1.37,17.41,2.72,23.55,3.82,1.87,4.39,4.23,8.07,8.2,10.82,2.66,1.84,5.34,2.78,7.46,3.28.53,2.16,1.35,4.33,2.59,6.51,4.41,7.79,3.37,8.53,12.61,8.56,12.87.04,25.75.01,39.31.01v-26.25c1.36,1.82,1.74,3.67,1.76,5.53.16,13.27.15,26.55.47,39.82.04,1.51,1.04,4.04,1.91,4.95-6.44,1.22-12.86,2.91-19.24,5.08-10.76,3.64-11.84,7.94-5.91,17.56,10.57,17.14,25,30.73,40.88,42.6,5.04,3.77,9.17,5.09,14.86,6.78,21.34,6.34,46.41.47,48.1-8.25.67-3.47-2.85-4.93-6.46-12.36-4.52-9.3-4.6-18.54-3.99-24.77-15.68,0-31.33.78-46.86-.24-12.89-.85-25.68-3.61-38.43-5.99-2.69-.5-4.99-3.05-7.47-4.66,6.84,2.29,14.32,4.37,22.4,6.02,29.78,6.09,56.09,4.02,75.49.44,2.21,2.13,9.93,9.08,17.98,7.47,3.55-.71,7.67-2.71,11-5.44,2-1.64,4.04-3.35,6.31-4.54,11.44-5.99,23.02-7.44,31.11,5.73.88,1.44,3.47,2.92,4.99,2.68,6.13-1,12.3-2.26,18.13-4.34.64-.23,1.32-.76,1.95-1.44-.27,1.28-.54,2.55-.81,3.83-29.31,9.92-59.19,10.46-90.08,4.55,4.75,29.11,20.15,41.12,50.8,40.84,14.38-.13,26.07-7.47,33.66-20.54-.86,3.3-1.74,6.58-2.58,9.86,10.02,3.27,12.01,2.46,14.22-6.59,2.74-11.22,5.12-22.53,7.42-33.84.81-4,2.26-6.3,6.84-5.5,2.6.45,5.3.31,8.87.48-1.44,16.21-2.84,31.94-4.22,47.54,9.71,1.73,10.68,1.36,11.4-5.12,3.27-29.47,6.64-58.93,9.52-88.43,1.36-13.91,1.69-27.92,2.51-42.22,3.04,0,5.7-.04,8.36,0,11.35.22,11.47.22,12.03,11.45,1.86,37.51,3.65,75.01,5.39,112.53.12,2.66.06,5.46-.66,7.99-1.44,5.09-6.76,7.71-12.47,6.95-5.71-.76-4.76-5.09-4.98-8.8-.12-2.11-.03-4.23-.01-6.35.18-31.97.38-63.93.54-95.9.01-2.72-.28-5.44-.43-8.15-1.42,22.16-2.28,44.27-3.07,66.39-.57,15.97-1.22,31.94-1.51,47.92-.13,6.8,2.27,8.81,8.98,9.26,6.47.43,11.46-2.45,16.06-6.57,4.72-4.23,9.49-8.43,14.46-12.35,11.25-8.86,21.15-18.56,23.66-33.59,1.55-9.3,3.57-18.54,4.93-27.87,1.44-9.95,2.35-19.97,3.49-29.96-.57-.1-1.14-.21-1.71-.31-.61,2.51-1.2,5.03-1.84,7.54-4.91,19.23-9.73,38.53-19.74,55.91-1.7,2.95-5.61,4.63-8.49,6.9-1.75-2.81-3.58-5.59-5.21-8.47-.55-.97-.69-2.2-.87-3.34-3.17-20.15-6.48-40.28-9.42-60.46-1.45-10-2.22-20.11-3.25-29.73h39.61c-4.24,18.12-8.19,35.05-12.15,51.98,1.82-2.05,3.47-4.38,4.1-6.96,3.16-12.88,6.35-25.77,8.88-38.79.9-4.63,2.19-7.09,7.19-6.23.94.16,1.92.02,2.88.02,8.55.02,8.49.02,8.48,8.36-.06,30.42-.15,60.85-.05,91.27.03,8.73-1.36,11.31-10.29,11.62-7.81.27-13.99,2.88-19.61,8.06-3.56,3.28-6.33,10.06-3.74,14.94,1.01,1.91,5.77,1.84,8.82,2.67.18.05.39,0,.58.04,3.73.62,5.41-1.04,5.37-4.73-.02-1.73.1-3.46.14-5.2q.21-9.06,9.18-11.22c11.13-2.68,13.54-5.77,13.49-17.27-.02-5.71,0-11.41,0-17.65,2.68,0,4.95,0,7.22,0,93.6.1,93.2.04,94.18-.04,0,0,5.97-.49,16.01-.97-14.29,6.74-22.47,22.26-19.29,36.95,2.93,13.53,13.02,21.83,27.93,21.86,12.5-.31,21.04-8.92,28.32-19.27,6.24-8.87,6.06-19.64-.14-28.6-3.8-5.5-8.5-9.43-13.68-11.68,3.18-.05,6.49-.09,9.93-.11.46.59.83,1.06,1.19,1.53,7.14,9.09,10.35,17.77,9.61,26.11-.95,10.74-8.08,18.08-12.91,22.98-3.93,3.99-7.57,6.18-7.57,6.18-2.64,1.58-3.74,1.74-3.69,2.1.23,1.65,24.91,7.15,37.5-6.61,8.86-9.68,8.14-24.98,5.43-29.28-2.16-3.41-4.43-6.74-6.59-10.15-4.22-6.64-9.92-10.44-16.85-12.87,5.33.02,10.9.09,16.64.24,2.93.08,7.49.26,10.89,3.4,1.34,1.24.75,5.2,7.14,30.36.89,3.5,2.15,7.04,3.96,10.13,2.06,3.51,5.85,3.23,8.62,1.26,1.37-.97,2.16-4.24,1.68-6.08-4.78-18.44-10-36.77-14.73-55.22-.59-2.3.11-5.79,1.6-7.62,6.59-8.1,11.18-17.12,13.31-27.25,1.78-8.47,2.78-17.1,4.47-25.58.37-1.83,1.89-4.28,3.47-4.87,6.22-2.31,8.51-3.62,8.85-7.43,0,0,0,.01,0,.02,2.64,11.47,7.67,21.09,13.31,29.01,0,0,0,0-.01-.01-.49,14.21-.81,24.54-.66,28.81.03.88.14,3.23-1.27,5.35-.79,1.19-1.96,2.15-3.6,2.9-13.89,6.42-13.02,7.85-18.21,8.75-4.23.74-7,.3-9.05,2.64-.79.91-2,2.83-1.57,4.19,1.37,4.34,18.93,1.41,40.98-.02,33.48-2.16,40.73,1.5,46.03-5.01,5.61-6.89-1.54-12.19-1.5-38.62,0,0-1.13-28.8,14.61-55.2.95-1.6,1.88-3.95,3.3-4.4,5.96-1.87,5.64-5.83,4.33-10.51-.62-2.22-.97-4.52-1.36-6.79-4.94-28.84-9.1-57.83-15.03-86.46-4.37-21.06-11.16-41.61-16.67-62.44-5.27-19.91-10.26-39.89-15.41-59.82-.46-1.77-1.18-3.47-1.78-5.21-.76.88-.92,1.61-.83,2.31,3.04,22.5,6.02,45.01,9.27,67.48.57,3.93.26,6.13-3.84,8.06-3.85,1.81-7.2,5.02-10.26,8.11-7.83,7.92-14.95,16.59-23.17,24.06-5.82,5.29-13,4.43-17.68-.42-3.68-3.81-3.12-11.79.58-16.53,5.02-.29,9.38-.55,13.74-.8l-.14-2.13c-1.7,0-3.4.09-5.09-.02-5.51-.33-8.73-3.12-9.98-8.65-.73-3.25-2.39-6.3-3.8-9.84h9.25c-14.08-7.84-19.38-20.61-23.38-35.55,4.93-.32,8.72-.84,12.49-.75,8.04.19,14.06-3.39,17.24-10.38,4.28-9.38,7.77-19.14,11.25-28.86,1.3-3.62.18-6.9-2.84-9.88-5.47-5.39-6.94-10.51-6.31-18.91.98,3.03,1.83,5.57,2.63,8.12.64,2.04,1.66,3.58,2.97,4.69,3,2.54,6.58,2.35,7.15,2.31.55-.04,4.28-.35,4.73-2.14.43-1.71-2.37-3.8-2.66-4.02-1.39-1.04-2.06-.55-2.94-1.7-1.96-2.54-3.3-4.93.51-7.52,7.22-4.89,7.09-9.02.72-14.1-.54-3.59-.35-6.77-1.53-9.33-3.98-8.68-11.37-13.22-20.62-13.48-8.71-.25-17.7-.22-22.25,10.1-2.45,5.56-2.95,5.94,3.09,7.4,5.86,1.42,11.83,2.41,17.76,3.59l-.2,1.25c-7.33-1.23-14.66-2.45-22.15-3.71-1.1,3.93-1.18,6.17-1.01,7.5.05.35.19,1.26-.07,2.41-.23,1.03-.64,1.61-1.17,2.57-.59,1.09-.92,1.92-1.56,3.58-1.18,3.04-1.77,4.57-1.17,5.45.98,1.46,3.79-.03,4.91,1.56.65.92-.04,1.78.69,5.16.08.37.14.61.27,1.1.86,3.32,1.21,5.08,2.01,5.78,1.69,1.47,4.36,1.57,7.72,1.01,2.13-.35,4.6,1.34,6.91,2.1-1.38,2.54-2.14,6.11-4.28,7.39-3.34,2-7.6,2.47-11.49,3.54-9.62,2.64-15.97,8.54-17.39,18.6-.88,6.26-.84,12.65-1.28,18.98-.8,11.51-.84,23.14-2.67,34.49-3.51,21.83-8.06,43.49-12.14,65.24-.52,2.75-.8,5.54-1.19,8.23,5.35,1.74,8.23-.11,10.16-4.49,3.71-8.46,7.64-16.82,11.47-25.24,4.98-10.95,8.15-22.28,8.97-34.43.65-9.63,2.83-19.16,4.25-28.28,2.18,4.3,4.05,8.93,6.7,13.05,7.13,11.11,6.48,22.69,1.79,34.11-2.97,7.25-3.62,13.77,1.23,20.1,3.42,4.45,4.08,9.07,3.23,14.56-1.67,10.78-.55,12.21,10.27,16.44-1.1-5.45-2.31-10.67-3.1-15.96-.2-1.31.98-2.82,1.52-4.24-1.61-4.03-3.21-8.07-4.8-12.06,5.39,0,10.51,1.32,14.41-.31,5.84-2.44,11.14-6.56,16.07-10.68,4.39-3.67,7.86-8.43,12.01-12.41,1.11-1.07,3.24-1.08,4.9-1.58.38,1.72,1.57,3.77,1.03,5.12-4.6,11.57-8.84,23.38-14.53,34.41-5.85,11.34-9.33,11.79-20.69,5.99,1.64,1.58,3.06,3.51,4.95,4.69,8.62,5.39,12.46,4.4,17.58-4.5,1.82-3.16,3.53-6.45,4.69-9.89,3.06-9.09,5.78-18.3,8.64-27.46,1.2-3.83,2.66-7.35,7.75-6.5,8.6,23.23-5.04,108.61-19.91,121.57-1.58-2.12-3.42-4.04-4.63-6.3-3.16-5.94-5.66-12.27-9.13-18.01-5.91-9.77-11.32-19.26-2.51-30.26.28-.35-2.27-3.09-3.66-4.57-.26-.28-1.25.14-2.2.27,1.04,1.84,1.86,3.28,2.67,4.7-11.87,8.98-72.26,5.79-95.62-5.3,2.3,20.03,10.88,36.07,28.48,44.22,14.87,6.89,31.29,7.45,45.9-3.25-3.58,7.55-7.16,15.1-10.7,22.56,7.2,4.11,11.35,3.93,12.35-.55,1.4-6.3,1.84-12.85,2.26-19.32.06-.86-2.36-1.89-3.63-2.84,2.82-2.2,5.64-4.4,8.68-6.76,4.26,9.36,8.24,18.09,12.21,26.81.32-.13.65-.25.97-.38-2.88-10.43-5.75-20.87-8.84-32.07.26-.35,1.14-1.61,2.1-2.8.32-.4.85-.65,1.56-1.17,7.18,15.36,11.99,31.94,24.9,44.55,8.37-11.79,12.34-24.26,15.41-36.97,6.76-27.94,7.58-56.38,6.3-84.96-.13-2.99.27-6,.43-9,.67-.03,1.34-.06,2.02-.08.55,2.32,1.11,4.64,1.66,6.95.58,2.43.86,4.99,1.79,7.27,9.3,22.9,11.52,47.03,12.29,71.35,1.13,35.66-.3,71.22-5.38,106.59-1.02,7.12-2.32,8.34-9.62,7.61-16.81-1.68-33.77-17.05-37.47-34.31,7.11,6.82,11.21,16.2,19.33,20.25-4.76-8.59-10.35-17.35-14.64-26.7-7.85-17.14-14.9-34.65-22.37-51.96-1.05-2.43-2.62-4.62-3.94-6.93-.51.2-1.02.41-1.53.61-.08.97-.18,2.46-.21,4.27-.22,13.02,3.48,20.7,6.04,31.45,2.15,9,1.34,11.14,1.77,15.95-127.38,7.9-254.29,5.64-381.3-.89-1.41,6.89-.16,11.68,4.72,13.04,4.05,1.13,4.35,3.61,4.59,6.8.54,7.1.97,14.22,1.82,21.29,1.95,16.11,7.31,30.67,19.88,41.78,1.32,1.16,2.19,2.83,3.27,4.26-.62,0-1.24,0-1.87,0-1.39,3.3-3.27,6.49-4.08,9.93-.57,2.41-1.1,4.82-1.63,7.24-1-1.98-2.84-3.91-4.63-4.63-2.9-1.16-6.6-.33-9.95-.37-1.96-.02-4.43.69-5.81-.22-14.41-9.47-31.43-4.19-46.78-8.36-3.33-.9-7.44,1.08-11.19,1.73.07,1.02.15,2.03.22,3.05h25.18c-8.93,2.91-18.22,5.93-27.51,8.96,1.53-1.84,3.05-3.68,4.61-5.55-3.75-2.19-6.88-4.97-10.49-5.89-5.28-1.34-10.91-1.36-16.39-1.92-.28-.03-3.64.49-7.4-.72-1.26-.4-1.9-.78-1.86-.95.12-.54,6.62,1.79,8.7-.52.85-.95,1.14-2.89-.6-7.03,6.31-.11,12.62-.12,18.92-.44.92-.05,2.5-1.52,2.53-2.38.23-5.68.12-11.37.12-17.02-6.66,0-11.83.17-16.98-.05-5.31-.23-10.61-.84-15.9-1.29-.07.86-.18,1.93-.39,3.16-.23,1.36-.48,2.38-.58,2.77-.27,1.04-1.25,4.9-1.73,4.85-.62-.07-3.74-7.61.16-13.28,4.8-6.98,9.24-14.2,14.18-21.07,1.56-2.17,4.25-3.54,6.42-5.28.16.28.33.57.49.85-5.91,8.04-11.81,16.08-17.72,24.12.41.86.81,1.72,1.22,2.58,8.91.06,17.82.21,26.73.03.9-.02,2.23-1.92,2.56-3.16,1.19-4.46.09-8.09-3.93-11.03-3.97-2.9-7.66-6.36-6.11-12.31,10.14.53,19.91.95,29.66,1.68,1.22.09,3.2,1.78,3.33,2.9,1.71,14.88,3.52,29.77,4.46,44.7.3,4.84,1.03,7.12,6.21,7.11,11.16-.02,22.33.29,33.49.39,1.51.01,3.02-.47,4.53-.72.06-.56.13-1.11.19-1.67-5.13-1.94-10.3-3.78-15.4-5.83-11.89-4.78-16.06-11.44-15.17-24.04.98-14.02,1.64-28.08,3.18-42.03.53-4.83,3.34-9.4,5.02-14.12.82-2.3,2-4.68,2.03-7.03.37-33.47,2.53-66.97-1.75-100.38-1.3-10.1-1.63-20.33-2.35-30.51-.12-1.72-.02-3.45-.02-5.18.73-.04,1.47-.08,2.2-.13.38,2.43.94,4.85,1.09,7.3.32,4.98.25,9.99.64,14.96,1.3,16.5,3.17,32.97,3.99,49.5.89,18.06.76,36.16,1.26,54.24.18,6.3,1.54,6.84,7.25,3.64-5.83-12.07-4.79-14.28,8.42-17.83.74-.2,1.5-.34,2.25-.54,4.08-1.05,6.14-3.92,4.84-7.74-1.7-4.96-3.71-10.08-6.78-14.25-5.83-7.9-5.81-9.58,3.23-12.95,3.9-1.45,5.86-3.45,5.73-7.93-.34-11.73.05-23.49-.54-35.2-.16-3.26-2.06-6.98-4.3-9.47-6.53-7.3-13.48-14.26-20.6-21-2.52-2.38-5.8-4.57-9.09-5.41-12.91-3.27-25.97-5.97-38.98-8.88,0-.18,0-.36.01-.55,13.67,2.22,27.35,4.45,42.16,6.86-2.96-2.32-5.23-4.53-7.89-6.08-2.73-1.59-5.83-2.53-8.77-3.75,8.52,1.92,16.34,4.68,21.92,12.25,5.12,6.93,11.1,13.26,17.05,19.53,5.51,5.8,11.46,11.18,17.22,16.75-.31-3.25.14-6.88-1.2-9.65-4.17-8.62-7.82-17.99-13.97-25.06-12.47-14.34-16.55-31.23-18.84-49.12-.39-3.05-.8-6.13-1.6-9.09-1.34-5.01-2.99-9.93-4.51-14.9,2.49,19.34.34,38.14-3.45,57.02-15.5-7.05-31.76-3.53-48.91-1.9,7.91-3.12,4.06-7.35,2.31-11.15-1.45-3.15-3.25-6.14-5.57-10.46,0,7.47.03,13.37,0,19.26-.04,7.02,1.08,14.31-.41,21-7.78,34.81-12.47,70.02-15.04,105.56-.16,2.25-.33,4.87-1.53,6.6-7.8,11.29-9.44,24.68-13.05,37.37-.57,1.99.2,4.37.36,6.57-3.9,3.38-3.69,3.77,3.61,8.5-.72,1.97-1.44,3.9-2.14,5.85-3.65,10.27-7.29,20.53-10.94,30.8-1.28,3.6-3.19,7.12-3.68,10.82-1.02,7.79,4.04,15.7,10.4,18.38-4.89-.75-9.76-1.22-14.62-1.41-.16-.1-.32-.19-.5-.26-13.09-5.14-15.09-15.6-13.44-27.84.1-.76.07-1.54.13-2.31,1.12-14.74,2.24-29.48,3.37-44.22-.22-.04-.43-.09-.65-.13-2.64,12.58-5.28,25.16-8.07,38.45-1.95-3.79-3.09-7.14-5.15-9.76-6.11-7.78-6.13-15.4-2.63-24.64,7.61-20.1,12.35-41.04,14.51-62.52-1.61,3.89-2.84,7.89-3.82,11.96-7.34,30.48-24.69,55.32-44.76,78.48-4.61,5.33-10.9,9.2-17,14.22-.84-2.28-1.27-2.96-1.32-3.67-.17-2.69-.41-5.39-.28-8.07,2.2-45.56,4.46-91.12,6.63-136.68.13-2.73-.44-5.5-.68-8.24-.99-.04-1.98-.09-2.97-.13-2.11,12.59-5.18,25.1-6.15,37.77-2.34,30.51-3.71,61.1-5.47,91.66-.2,3.52-.57,6.99-.61,10.45-1.66-.64-3.21-1.63-4.24-3.2-1.74-2.66-1.2-5.81-1.05-6.81,2.41-15.63-.31-71.07,8.96-104.35,2.09-7.52,2.57-15.57,5.75-22.7,2.11-4.73,1.61-7.5-.83-11.41-2.48-3.97-5.98-8.69-5.63-12.79.99-11.61,3.72-23.08,5.81-34.59.03-.15.67-.2,2.09-.57-.24,2.02-.3,3.72-.65,5.35-1.64,7.72-3.41,15.41-5.04,23.13-2.36,11.2,5.81,18.03,10.97,26.41,3.32-12.3-.72-25.82,7.5-37.19,1.18,3.36,2.7,6.35,3.22,9.51.66,4.07,3.22,4.84,6.58,5.4,15.15,2.54,31.4-7.88,37.83-25.29-4.6,4.84-8.33,8.9-12.2,12.83-5.78,5.86-12.69,9.76-21.05,9.04-2.9-.25-6.92-2.46-8.13-4.91-6.42-12.96-12.32-26.23-9.85-41.39.2-1.25.03-2.57.03-3.85-.33-.1-.66-.19-.99-.29-1.45,4.71-2.9,9.41-4.62,14.98-3.21-3.38-5.51-5.94-7.95-8.34-1.96-1.93-2.99-3.79-2.8-5.6.25-2.26,2.32-3.74,3.18-4.36,6.31-4.5,30.59-10.43,37.16-11.98-4.06,1.16-4.33,3.66-1.62,7.18,5.15,6.7,10.35,13.37,15.9,19.73,1.38,1.58,4.12,1.99,6.28,2.9-2.63,7.11-8.53,11.1-15.11,12.9-6.47,1.78-13.52,1.45-19.41,1.96,5.92,4.81,13.7,4.6,20.83.21,7.64-4.71,15.27-9.95,21.46-16.36,5.05-5.23,8.15-12.42,11.77-18.94,1.91-3.43.34-5.49-3.45-6.75-13.42-4.47-17.18-14.89-8.71-26.42-.16,1.98-.87,3.86-1.16,5.8-1.5,10.29.58,14.2,8.93,16.08,7.95,1.8,16.7,3.8,20.32,13.16.58,1.51,2.54,2.5,3.86,3.72.64-.11,1.28-.21,1.92-.32,2.34-14.35,6.63-28.69,6.66-43.04.04-16.69.21-28.75-.22-35.93-2.8-46.3-1.04-125.38-2.06-125.41t-.73,0s-.73,0-.73,0c1.45-1.9,2.04-5.36,3.11-11.61,2.1-12.4,3.66-14.12,5.89-15.9,4.45-3.53,9.87-1.4,11.54-5.11.62-1.38.53-3.12.39-5.86-.12-2.31-.18-3.6-.79-4.65-1.83-3.15-7.84-2.85-9.69-2.77,0,0-1.44.06-15.69-.15,2.28-2.84,5.78-1.84,8.8-1.9,10.59-.23,21.18-.27,31.77-.26,4.51,0-6.59-1.71,413.08.27,15.19.07,49.76.24,65.6.33.4,1.64.79,3.27,1.19,4.91-7.52,0-13.53-.07-15.68-.25-.8-.07-3.7-.35-4.73,1.18-.68,1-.36,2.49-.22,3.13.09.42.4.73.82,1.48.42.75.6,1.31.73,1.61.34.8,1.1,2.57,2.31,3.44.69.5,1.35.57,4.71.54.93,0,1.68-.02,2.31-.04,2.07,9.87,4.68,19.92,7.95,30.1.25.77.49,1.53.75,2.29-.21,1.88-.41,3.31-.48,4.74-1.83,39.2-3.7,78.4-5.33,117.61-.08,2.02,1.49,4.49,2.99,6.12,5.5,6,8.83,11.07,16.87,17.75,9.18,7.63,15.09,12.5,17.85,14.78.27,1.24.54,2.48.81,3.72-1.41-.46-2.82-.93-4.21-1.44-4.46-1.62-8.62-4.66-12.24-7.83-3.18-2.78-5.41-6.64-8.06-10.02l-1.39.68c1.86,7.61,3.77,15.2,5.54,22.82.94,4.02,3.52,5.98,7.31,7.22,5.5,1.79,11.01,3.45,16.57,4.85.2.92.4,1.84.6,2.75-6.86-1.53-13.92-2.96-21.43-4.57,2.44,14.43,4.35,28.89,7.43,43.09,3.42,15.79,8.81,31.17,11.71,47.03,5.58,30.47,10.06,61.13,14.77,91.75.24,1.55-1.31,4.4-2.7,4.97-4.1,1.67-5.66,4.64-6.81,8.59-1.32,4.52-3.09,8.98-5.21,13.2-1.77,3.52-1.49,6.55.95,7.64,0,14.66.04,29.22-.04,43.78-.02,3.43-1.42,7.32,6.27,7.74,7.75.42,8.8-3.24,9.07-7.19.79-11.32,1.65-22.64,2.4-33.96,2.82,1.16,7.24,1.48,15.18,1.68,25.78.64,20.28-.93,26.27-.71,6.44.24,7.68-.18,8.57-6.76,1.66-12.34,2.77-24.79,5.21-36.97,3.08-15.35,10.13-30.03,7.16-46.32-.04-.2.41-.5.56-.66,4.68,3.89,9.41,7.82,15.3,12.72.56-3.74,1.09-5.38,1.01-7-.97-20.53-2.04-41.06-3.02-61.59-.08-1.67.34-3.36.53-5.04.64.05,1.27.1,1.91.15v44.75c5.55,1.23,7.79-.47,7.98-5.3.45-10.96,1.28-21.91,1.57-32.87.15-5.81.02-11.38,3.81-16.46,1.46-1.95,2.12-5.24,1.74-7.69-1.6-10.2,1.61-19.45,4.92-28.7,8.25-23.09,8.85-45.68-2.17-68.35ZM717.25,330.91c-3.46,3.27-13.56-1.99-17.27-9.72,5.12,2.88,11.41,6.42,17.27,9.72ZM748.15,675.78c1.69.28,4.34,2.24,4.38,3.49.1,2.86-.23,7.35-2,8.37-6.17,3.54-13.02,5.89-20.33,8.99.14-5.64.09-11.67-.21-18.03-.19-3.98-.47-7.81-.83-11.5,5.43,4.38,11.82,7.46,18.99,8.67ZM307.63,481.15c.43.02.86.04,1.29.06-1.05,21.59-2.1,43.18-3.16,64.77-.52-.02-1.04-.05-1.57-.07,1.15-21.58,2.29-43.17,3.44-64.75ZM228.93,630.27c4.95,1.44,9.88,2.92,14.85,4.3,18.11,5.02,35.36,1.68,52.2-5.48,1.41-.6,2.81-1.24,4.21-1.87,1.18-.53,2.34-1.09,3.99-.98-1.07.8-2.05,1.77-3.22,2.36-22.36,11.29-45.24,14.08-68.83,3.97-1.18-.51-2.16-1.48-3.21-2.3ZM104.36,522.71c-6.09,5.4-8.62,11.71-8.41,19.85.32,12.51-.28,25.03-.21,37.55.02,3.39.35,7.09,1.75,10.09,3.01,6.47,4.25,13.23,1.78,19.64-5.75,14.94-.27,26.67,3.62,33.11-5.75-2.91-11.04-7-12.02-12.66-.73-4.22,1.6-5.48,3.52-13.44,1.03-4.28,2.59-10.37-.19-27.37-2.34-14.28-4.53-27.72-10.78-46.16-6.43-18.96-9.64-28.44-9.91-28.98-.96-1.91-4.23-8.13-4.53-16.75,0-.2,0-.43,0-2.26,0-1.08-.02-20.86.62-20.88.27,0,.54,3.43,1.95,13.79.76,5.62,1.1,7.69,2.64,9.95.94,1.38,2.43,3.61,7.3,5.5,9.2,3.56,18.63,6.01,28.63,5.37,1.42-.09,2.86.13,6.33.31-4.75,5.32-8.03,9.76-12.06,13.34ZM168.51,378.18c-2.37-.51-4.2-.89-5.63-1.06.15-.48.29-.96.44-1.44,6.43,1.55,12.85,3.1,19.28,4.66-5.96-.58-10.75-1.43-14.09-2.15ZM200.13,434.38c-2.85,7.51-5.35,15.25-12.86,19.74,4.29-6.58,8.57-13.16,12.86-19.74ZM185.32,119.45c-1.35-2.45-2.7-4.89-4.05-7.34,6.04-1.25,12.04-2.65,17.86-4.59,52.19-17.43,104.16-35.53,156.37-52.89,39.62-13.17,79.51-25.51,119.24-38.34,7.3-2.36,14.12-3.41,21.81-.57,27.61,10.2,55.43,19.86,83.21,29.6,52.84,18.52,105.67,37.08,158.59,55.35,17.42,6.02,35.02,11.61,52.79,16.5.09.02.18.04.26.06l-1.55,2.2c-201.51,0-403.02,0-604.53,0ZM760.74,125.15c1.23-.74,3-.62,3.99.18,1.54,1.26.74,3.84.42,7.91-.72,9.14,1.95,13.2-.5,14.95-1.18.85-3,.76-4.07.01-1.58-1.11-1.32-3.57-1.19-7.41.38-11.04-.93-14.29,1.34-15.65ZM696.12,148.35c-1.4,1.47-4.68,1.47-5.93,0-.52-.61-.58-1.35-.61-1.64-.56-6.48-1.17-9.36-.25-17.16.08-.66.27-2.1,1.35-3.14.28-.27,1-.95,2.06-.95,1.19,0,1.97.83,2.15,1.02.99,1.05,1.04,2.46,1.07,3.05.19,4.58.49,9.16.67,13.74.12,3.14.34,4.19-.52,5.09ZM633.35,125.2c.1-.12.88-1,2.11-.99,1.16,0,1.9.78,2.1.99.95,1,1.05,2.33,1.08,2.86.39,5.51.03,11.05.45,16.55.08,1.06.26,2.87-.8,3.73-.82.67-2.26.67-3.01.67-.67,0-1.23,0-1.65-.19-1.37-.63-1.32-3.29-1.36-6.5-.06-4.87.45-9.73.35-14.6,0-.46-.04-1.63.72-2.53ZM594.59,143.94c.04,2.03-.26,3.27-1.25,4.16-1.28,1.16-3.6,1.33-4.87.31-1.28-1.03-1.11-2.97-1-5.28.46-10.01-.77-16.21,1.61-17.39.93-.46,2.07-.57,2.07-.57.42-.04,1.69-.22,2.4.3,1.22.89,1.09,3.08,1.13,4.71.13,4.58-.19,9.18-.09,13.77ZM548.8,137.91c-.35,5.6-.56,8.42-2.07,9.37-1.16.72-2.9.8-4.15.07-1.37-.81-1.43-2.19-2.01-11.91-.05-.92-.4-6.65,1.47-9.43.29-.44.74-.95,1.43-1.19,1.17-.41,2.48.17,3.25.86,1,.9,1.23,2.12,1.34,2.74.98,5.6.74,9.5.74,9.5ZM488.12,146.96c-.13.03-.95.22-2.03.28-.58.03-1.07.02-1.43,0-.58-.55-2.19-1.26-2.26-2.81-.2-4.13-1.24-7.93.46-16.64.09-.45.33-1.63,1.26-2.65.31-.34,1.39-1.52,2.56-1.31,1.18.21,1.88,1.75,2.49,3.1.03.08.28.61.43,1.12,1.14,3.72,1.4,18.16-1.48,18.91ZM429.19,147.28c-.25.11-1.11.11-2.83.12-1.61.01-2.41.02-2.59-.06-1.65-.67-1.1-4.13-1.39-11.52-.16-4.04-.43-5.87.68-8.29.34-.74,1.5-3.25,3.27-3.32.23,0,1.05,0,2.1,1.02,2.03,1.98,2.11,5.73,2.17,13.15.05,5.38.04,8.3-1.4,8.9ZM368.87,124.74c1.46-1.06,3.98-.87,5.33.36,1.32,1.2,1.28,3.17,1.26,4.36-.25,14.64.4,17.13-1.86,18.42-1.41.81-3.46.85-4.74-.07-1.96-1.4-1.02-4.24-1.01-12.24,0-7.15-.75-9.55,1.01-10.82ZM317.44,127.5c.08-.36.3-1.23,1.02-1.92.2-.19,1.01-.96,2.07-.83.74.09,1.22.59,1.59.96.78.8,1.09,1.7,1.2,2.06.97,3.2.34,9.95.26,14.74-.05,3.16.16,4.44-.85,5.24-1.36,1.08-4.08.61-5.41-.87-1.25-1.38-.42-2.68-.39-7.59.02-2.74-.2-8.61.52-11.8ZM269.73,136.62c.16-2.85.09-5.75.59-8.54.07-.4.38-1.05,1.01-1.64.33-.31.93-.87,1.76-.84.69.02,1.18.44,1.5.72,0,0,1.01.5,1.05,1.45.26,5.89.22,11.8-.01,17.69-.03.76-1.83,2.14-2.63,2.02-1.14-.17-2.88-1.35-3.02-2.3-.4-2.8-.14-5.7-.14-8.55-.04,0-.07,0-.11,0ZM207.93,134.37c-.16-5.21-.74-7.59.94-9.04,1.12-.97,3.11-1.41,4.62-.68,2.23,1.07,1.68,3.85,1.91,19.22.02,1.14.05,3.16-1.27,4.23-1.32,1.07-3.79,1.01-5.26-.13-2.14-1.67-.67-4.49-.94-13.59ZM237.36,203.11c0,.4.02.79.05,2.38-16.31-.12-32.61-.24-48.92-.35-.06-.77-.12-1.53-.18-2.3,16.35.09,32.7.18,49.05.28ZM199.47,155.21c.14-.58.41-1.64.86-3.45,191.58.26,383.17.52,574.75.77.32,1.46.64,2.92.96,4.39-.44,0-.9,0-1.4,0-191.72-.57-383.45-1.14-575.17-1.7ZM740.83,205.48c-.05-.7-.09-1.4-.14-2.1,14.99-.02,29.98-.09,44.97-.02.01.7.02,1.41.04,2.11-14.95,0-29.91,0-44.86,0ZM854.43,318.07c3.4,3.19,6.95,5.43,10.16,7.03-2.35-.44-4.64-1.19-6.93-2.02-5.25-1.9-8.74-5.97-9.27-12.08,1.49,2.19,3.46,4.66,6.04,7.08ZM871.83,327.93c.71.51,1.42,1.02,2.13,1.53-9.8,11.79-19.6,23.58-29.4,35.37-.45-.35-.9-.71-1.35-1.06,9.54-11.95,19.08-23.89,28.62-35.84ZM796.93,428.01c-.18-2.09-2.07-5.35-3.76-5.79-.25-.07-.5-.13-.76-.19-.15-.99-.29-1.97-.43-2.93,8.75,1.59,17.63,2.35,26.74,1.79,2.41-.15,4.84-.02,7.35-.02.46,7.54.88,14.33,1.34,21.9,2.32-2.09,3.71-3.33,6.25-5.6-1.58,15.64-6.11,26.94-10.31,34.69-7.24,13.37-17.42,23.51-20.46,31.64-.77-8.66-1.53-17.31-2.29-25.97-1.44-16.49-2.25-33.03-3.69-49.52ZM825.21,607.37c-2.4,9.66-3.61,14.48-7.78,18.26-5.59,5.06-13.34,5.99-18.4,7.22.01-1.32-.08-2.39-.37-3.22,2.91-.58,5.8-1.24,8.65-1.98,5.07-1.31,6.41-5.54,5.9-10.98-2.24-23.78-4.43-47.56-6.58-71.34,7.81,16.31,16.83,17.11,20.8,30.55,3.05,10.32.68,19.85-2.22,31.5ZM843.54,561.85c-2.46,22.95-3.75,46.02-5.53,69.04-.34,4.38-2.42,6.9-6.21,6.93.38-2.09.92-5.19,1.55-8.95,1.21-7.26,2.72-16.32,3.86-26.49,1.07-9.56,1.46-17.06,1.6-19.99,1-21.55,1.49-32.33-1.94-39.11-6.4-12.66-22.18-17.35-32.15-19.17-.34-3.79-.68-7.58-1.02-11.37.45.53,1.05,1.16,1.86,2,9.86,10.34,17.04,8.46,25.93,16.22.95.83,8.58,7.72,11.31,18.75.92,3.72,1.2,7.73.73,12.15ZM887.12,412.09c-1.83,19.94-3.79,39.78-11.27,58.7-1.99,5.03-1.92,10.87-2.93,17.23-3.65-7.2-1.54-13.49,1.07-19.36,5.66-12.68,7.84-26.09,9.4-39.68.34-3,.05-6.08.05-9.45-14.14-1.64-29.09,4.12-43.72-5.07,2.16-.31,3.25-.82,3.68-.48,6.99,5.41,15.04,3.2,22.76,3.26,3.85.03,7.72-.38,11.53-.04,4.64.41,6.54-1.28,6.8-5.97.43-7.77.32-15.06-4.31-22.05-3.56-5.37-5.59-11.75-8.48-18.09-4.1,2.68-7.69,2.51-9.46-1.56,3.01-.55,6.33-1.15,10.47-1.9.5,1.26,1.26,3.36,2.16,5.39,2.5,5.62,4.27,11.78,7.77,16.69,5.04,7.06,5.2,14.45,4.47,22.38Z"/>
  </g>
</svg>