<?xml version="1.0" encoding="UTF-8"?>
<svg id="Layer_1" data-name="Layer 1" xmlns="http://www.w3.org/2000/svg" viewBox="0 0 865.51 849.39">
  <defs>
    <style>
      .cls-1 {
        fill: #000;
      }

      .cls-1, .cls-2 {
        stroke-width: 0px;
      }

      .cls-2 {
        fill: #fff;
      }
    </style>
  </defs>
  <path class="cls-2" d="M848.22,176.04c7.18.01,14.17.03,16.31-2.13,2.07-2.09,1.64-8.25-9.51-26.27-7.22.07-14.45.14-21.67.21,1.05-.95,1.34-2.63.99-5.56-2-16.62.2-14.18-16.02-14.1-7.31.04-14.61.08-21.92.11-.78-2.68-1.56-5.95-2.1-9.71-.38-2.63-1.03-7.31-.68-12.69.59-8.93,3.36-10.88,2.69-13.78-2.61-11.33-48.5-9.06-48.5-9.06-20.5,1.01-50.3,4.34-86.65,15.15h0c-23.2,2.47-46.6,5.1-70.2,7.88-25.21,2.97-50.14,6.07-74.82,9.28.39-2.79.79-5.58,1.18-8.37,2.09-1.26,4.36-2.78,6.7-4.59,1.89-1.47,3.58-2.93,5.07-4.33-1.61-1.51-2.98-3.53-4.87-4.45-48.21-23.32-96.48-46.5-144.7-69.8-4.43-2.14-8.35-5.46-12.9-7.24-3.36-1.31-7.42-1.62-11.04-1.23-1.25.13-2.46.52-3.67.99-1.71-2.84-4.08-5.88-7.4-8.58-7.49-6.1-15.66-7.09-19.03-7.5-2.5-.3-5.09-.35-7.79-.11-27.07,2.42-54.2,4.16-81.3,6.32-13.45,1.07-26.85,3.06-40.31,3.5-24.51.81-36.73,2.03-38.61,1.67-3-.57-10.91-2.33-19.5.88,0,0-3.51,1.31-6.87,3.68-12.9,9.07-49.26,52.01-51.71,54.92C43.73,133.08-8.48,187.64,1.17,196.97c3.31,3.2,11.22-1.53,26.56,4.31,7.2,2.74,10.13,5.35,10.76,6.35,3.56,5.71,5.51,12.5,7.65,18.99.95,2.87.72,6.13,1.03,9.28.08,2.72.16,5.44.23,8.16,0-.02.01-.04.02-.06-8.2,105.71-7.92,211-9.22,315.66-8.97,11.34-17.93,22.69-26.9,34.03,18.41,29.51,27.69,40.86,32.72,45.09,6.45,5.42,10.86,11.88,13.34,19.92,5.45,17.65,14.23,33.59,25.75,47.97,10.32,12.88,21.07,25.31,33.4,35.99-.01,0-.02,0-.03,0,.09.07.18.15.27.22,4.26,3.68,8.7,7.15,13.39,10.35,21,15.71,51.22,35.86,89.76,54.14,104.42,49.53,198.91,45.28,387.9,36.77,56.85-2.56,106.6-7.18,144.94-44.25,23.65-22.86,34.54-49.93,39.92-68.32,3.82-9.7,16.78-36.13,34.69-72.54,0,0,0,0-.01,0,.44-.73.85-1.49,1.22-2.3,1.6-3.53,2.78-5.44,5.46-11.53,2.96-6.72,6.03-12.67,8.97-17.83,11.6-2.36,11.37-4,10.23-17.2-1-11.57-2.14-13.44-13.36-16.63-.84-.24-1.69-.46-2.54-.68,0-3.06.02-7.8.05-13.52.15-30.17.63-52.52.54-56.53-2.06-91.62-4.43-183.23-6.7-274.85-.05-1.92-.09-3.49-.18-4.79,0,0,0,0,0,0,0-.03,0-.06,0-.09,0-.09-.01-.18-.02-.26-.68-7.28-.24-13.31.33-17.58,1.38-10.17,3.06-16.44,7.74-21.66,2.14-2.39,4.88-4.46,8.42-6.12,2.27-1.07,3.63-7.01,3.06-10.29-.5-2.88-3.18-6.92-8.37-4.55-.71.33-1.52.46-2.36.5.04-1.74-.15-3.93,1.46-5.54,1.7-1.7,4.2-1.56,6.92-1.55Z"/>
  <g>
    <path class="cls-1" d="M246.28,246.87c-.39,2.76-1.07,5.51-1.14,8.27-1.08,40.85-2.11,81.7-3.07,122.55-.31,13.29-.33,26.58-.71,39.87-.05,1.88-1.39,3.72-2.14,5.58-1.07-.24-2.14-.49-3.22-.73,1.86-61.33,3.72-122.66,5.62-185.36,7.65,0,14.68,0,21.7,0,5.16,0,10.33.25,15.47-.04,4.27-.24,5.32,1.55,5.38,5.53,1.16,70.61,2.48,141.21,3.65,211.81.23,13.68-.35,27.38.07,41.05.18,6.04,1.91,12.02,3.03,18.57-2.39.14-5.07.35-7.75.43-4.61.12-8.39,1.36-10.91,5.78-.85,1.49-3.55,3.06-5.12,2.81-10.29-1.68-17.59,2.91-23.89,10.28-1.75,2.05-3.9,3.77-6.7,6.44-.37-3.12-.83-5.17-.82-7.21.12-28.17.21-56.33.65-84.49.03-2.14,2.13-4.81,4.03-6.23,2.64-1.98,6.19-2.72,8.98-4.56,2.23-1.47,3.9-3.78,5.1-6.14-6.45,2.83-12.7,6.27-19.38,8.36-12.91,4.03-14.68,3.1-23.23-7.96.44,2.97.43,6.11,1.44,8.88,1.23,3.39,5.9,5.67,2.95,10.37-.19.3,1.12,1.46,1.63,2.29,2.04,3.31,4.05,6.65,6.95,11.44-4.69.36-7.06.55-9.81.76,5.72,24.73,10.27,49.83,10.31,75.56-6.69-26.8-7.73-54.73-16.89-80.98.62,23.19,1.24,46.39,1.85,69.58-1.07.03-2.13.06-3.2.08v-47.93c-.91-.04-1.82-.08-2.73-.12-.57,7.81-1.14,15.63-1.7,23.44-.59,8.1-1.17,16.21-1.8,24.94h-17.4c1.29-6.89-3.49-10.1-8-13.38-5.9-4.28-11.92-8.39-17.95-12.62,3.3-4.54,6.62-8.47,9.12-12.86,1.06-1.86,1-4.87.41-7.08-1.87-7-5.44-13.75-6.19-20.82-2.77-26.22-4.8-52.53-6.79-78.83-.37-4.86.23-9.93,1.31-14.7.66-2.89,3.11-5.37,5.62-7.63-6.75,9.98-3.84,20.79-3.01,31.14,1.92,23.72,4.39,47.4,6.79,71.08.33,3.3.98,6.78,2.44,9.69,1.12,2.23,3.77,3.7,5.85,5.61v-60.21c4.2,3.43,6.8-.33,9.28-3.57,10.85-14.18,21.75-28.36,26.99-45.77,10.81,1.63,17.66,11.51,14.92,23.66-2.6,11.49,1.05,22.01,2.57,32.9.15,1.06,1.98,2.75,2.94,2.69,6.67-.39,13.32-1.17,19.34-1.76-.5-4.92-1.32-9.05-1.28-13.17.59-52.57,1.33-105.13,1.95-157.7.04-3.2-.64-6.42-.98-9.62-.85.01-1.7.02-2.55.04ZM265.25,250.06c-.69.01-1.38.02-2.07.03,0,10.29-.12,20.57.02,30.86.6,44.82,1.2,89.65,2.01,134.47.09,5.12-.56,8.48-6.63,8.43-1.17-.01-2.35,1.41-3.52,2.17l.62,1.19c5.39-.36,10.78-.73,15.83-1.07-.51,11.17-.98,21.55-1.45,31.93.36.01.73.03,1.09.04,1.01-11.93,2.03-23.86,3.04-35.85h-5.17c-1.26-57.52-2.52-114.86-3.77-172.19ZM210.39,382.12c.09,24.47-4.53,46.39-30.22,57.35,13.08-1.32,22.77-7.58,27.56-16.93,5.26-10.27,7.21-36.34,3.4-48.22-7.17,22.07-18.56,41.25-33.81,58.53,5.36-1.85,10.03-4.29,14.14-7.45,14.2-10.92,16.15-27.39,18.93-43.29ZM178.9,454.09c9.73-2.69,19.46-5.38,29.67-8.2-11.5-2.03-20.36,3.93-29.67,8.2ZM203.7,443.2c-.16-.71-.31-1.41-.47-2.12-8.52-1.86-15.74,3.17-23.45,5.7,7.97-1.19,15.95-2.39,23.92-3.58Z"/>
    <path class="cls-1" d="M295.79,474.34c-2.07-80.82-4.14-161.64-6.23-243.17,6.12-1.24,12.56-2.55,19.01-3.86-.04-.55-.08-1.11-.12-1.66h-18.08l-.93-1.75c2.1-1.74,4.19-3.48,6.69-5.54-.38-1.41-.98-3.24-1.36-5.12-1.46-7.32-.38-8.66,6.74-10.71,1.84-.53,3.84-2.62,4.58-4.47,1.44-3.61,2.04-7.56,3.2-12.23,10,1.52,19.76,2.9,29.46,4.63,1.15.2,2.08,2.28,2.85,3.63.34.59.02,1.55.02,2.35-.06,10.49.01,10.66-9.7,14.47-9.24,3.63-10.99,12.31-14.76,20.55,4.15-.52,7.75-.98,10.95-1.38-1.24-2.73-4.15-6.23-3.33-8.03,1.28-2.8,5.06-4.49,7.86-6.55.77-.57,1.79-.95,2.75-1.1,13.52-2.11,11.74-6.31,11.77-16.37,0-1.91,0-3.82,0-6.64,24.8,3.71,48.66,7.29,72.13,10.8-1.44,4.64-2.75,8.88-4.14,13.35-6.21,0-12.89.3-19.54-.08-7.88-.44-12.7,3.4-15.97,10.01-4.92,9.94-5.15,20.69-5.21,31.41-.03,4.73-.29,7.88-6.3,9.18-6.7,1.45-8.09,8.24-9.05,14.13-.76,4.66-.61,9.49-.68,14.25-.27,20.63-.52,41.25-.64,61.88-.02,3.85-1.04,6.6-4.36,9.02-7.02,5.13-11.33,11.95-11.72,21.06-.08,1.91-1.85,4.37-3.55,5.49-5.46,3.57-7.76,8.24-6.69,14.65.2,1.17.64,2.73.09,3.49-1.27,1.77-3.06,3.16-4.65,4.71-1.28-1.43-3.54-2.78-3.68-4.31-.89-9.87-1.44-19.78-1.87-29.68-1.75-40.23-3.41-80.46-5.1-120.68-.02-.59-.03-1.19-.04-1.78-.25-14.54-.23-14.36,13.89-16.36,4.43-.62,8.78-2.2,12.99-3.82,1.67-.64,2.85-2.56,5.29-4.88-2.65,0-3.94-.4-4.41.06-6.16,5.97-14.21,5.13-21.73,6.18-9.08,1.27-12.38,4.79-12.12,14.22.93,33.11,1.94,66.22,3.19,99.32,1.02,27.15,2.54,54.29,3.51,81.44.13,3.52-.97,7.47-2.67,10.59-5.49,10.05-11.53,19.81-17.36,29.68-.33-.12-.65-.23-.98-.35Z"/>
    <path class="cls-1" d="M495.24,503.1c4.89-13.76-3.64-16.89-13.61-18.88-4.39-.88-5.78-3.46-5.73-8.01.29-23.8.1-47.61.35-71.41.11-10.74.55-10.91,12.71-13.01v65.65l3.09-.03c-.67-66.55-1.33-133.09-2-199.64-.67,0-1.33,0-2,0v129.7c-5.98-1.43-8.06,1.33-10.75,5.35-4.22,6.3-9.85,11.82-15.57,16.91-3.9,3.47-8.44,2.39-11.69-2.86-.54.41-1.08.83-1.62,1.24,1.55,10.87,2.61,21.84,4.79,32.58,2.14,10.59,5.41,20.96,8.46,32.45-5.14-.93-10.05.48-9.55-6.26-.12,1.35-.24,2.7-.32,3.62h-27.1c1.74-4.96,3.06-8.71,4.49-12.8-2.14,1.51-4.16,2.93-6.35,4.48-4.96-8.12-7.59-16.46-6.06-25.29,1.05-6.1-.69-10.97-3.71-15.67-7.46-11.63-7.37-23.86-3.77-36.64,1.77-6.28,4.92-10.86,11.66-11.95,2.39-.39,3.26-.66,4.24-1.59,1.87-1.77,1.89-5.03,1.2-5.35-.54-.25-1.18,1.45-3.17,2.05-.17.05-2.26.66-3.66-.28-3.51-2.34-.57-12.83.02-14.92.17-.61.26-.91.34-1.13,3.67-9.99,19.51-14.07,27.21-6.73,1.32,1.26,1.53,4.26,1.35,6.39-.3,3.73-.76,7.63-2.18,11.04-1.08,2.59-3.4,5.02-5.77,6.63-3.49,2.36-3.29,4.78-.81,7.16,3.92,3.77,9.22,6.49,12.08,10.87,2.78,4.26,3.22,10.04,4.79,15.53,9.39-6.33,17.03-12.58,17.08-25.91.14-39.07,1.55-78.14,2.32-117.21.03-1.77-1.36-3.57-2.1-5.36-1.02,1.75-2.87,3.46-2.94,5.24-1.53,41.63-2.87,83.27-4.26,124.91-.1,3.02.74,6.62-5.15,7.35,2.1-50.71,4.18-101.12,6.27-151.81h41.08c.21,2.21.53,4.3.59,6.39,2.37,74.75,4.8,149.5,6.98,224.25.27,9.29-.78,18.61-1.16,27.92-.15,3.62-1.67,5.33-5.53,5.1-4.31-.26-8.64-.06-14.52-.06ZM418.65,415.55c2.46,5.23,3.63,11.42,11.1,11.81l-11.1-11.81Z"/>
    <path class="cls-1" d="M579.26,253.45c-1.64,32.12-3.29,64.24-4.93,96.37-.9-.05-1.8-.09-2.7-.14.56-36.92,2.67-73.79,4.65-111.12h41.7c.24,1.3.55,2.23.58,3.16,1.23,51.77,2.25,103.54,3.8,155.3.27,9.08-2.25,14.71-11.22,17.22-3.78,1.06-7.23,3.27-10.99,4.49-1.4.45-3.6.04-4.72-.87-.69-.56-.5-3.05.13-4.23,2.14-4,1.55-6.78-.55-11.18-1.92-4.04.73-10.32,1.58-15.58.26-1.62,1.8-3.13,1.79-4.68-.41-41.07-.94-82.13-1.47-123.2,0-.51-.33-1.02-1.82-1.51v112.78c-.7.13-1.4.26-2.1.39-4.58-9.41-13.08-16.16-12.26-29.08,1.72-26.9,1.37-53.93,1.81-80.91.04-2.4-.41-4.8-.63-7.21-.88,0-1.76,0-2.64-.01Z"/>
    <path class="cls-1" d="M665.35,436.56c2.2-5.93,2.89-11.92,6.14-15.69,6.67-7.72,5.9-15.76,4.21-24.18-1.44-.21-3.55-.53-6.09-.94-10.35-1.65-10.92-2.03-11.34-2.45-2.33-2.3-.37-5.88,3.56-22.01,2.5-10.28,2.83-13.46,5.9-15.09,3.3-1.75,5.96-1.42,10.13-3.33,1.14-.53,2.35-2.87,2.08-4.05-.47-2.05-1.64-3.98-3.29-4.89-3.44-1.9-7.43.1-8.24-1.53-.34-.68.18-1.41-.39-3.12-.1-.3-.24-.64-.39-1.23-.3-1.18-.14-1.36-.32-1.73-.6-1.25-2.98-.51-3.48-1.54-.34-.71.62-1.4,1.61-3.77.09-.22.33-.81.83-1.45.26-.32.46-.52.56-.61.86-.88.81-2.46,1.02-4.83.05-.64.15-1.58.32-2.74-.51-.33-1.08-.83-1.28-1.56-.6-2.17,2.49-4.77,4.06-5.73,5.1-3.12,12.29-.08,14.52,1,7.06,3.42,15.14,8.32,17.31,19.09.43,2.13,2.58,3.93,3.98,5.85,1.43,1.94,4.46,5.17,4.13,5.54-2.27,2.62-5.11,4.82-8.02,6.77-.93.62-2.62.1-5.59.1,1.55,1.1,3.88,2.99,6.01,5.89,2.96,4.01,4,7.88,4.55,10.04,5.66,21.89,7.19,33.81,7.19,33.81,3.13,24.42,1.79,29.37-1.56,32.37-1.91,1.72-4.12,2.36-5.52,2.64-14.21-.21-28.43-.42-42.64-.63Z"/>
    <path class="cls-1" d="M726.7,574.85c-.9.68-1.8,1.36-3.26,2.47,1.42-24.01,2.81-47.55,4.2-71.09-.79-.08-1.59-.15-2.38-.23-.19,1.93-.42,3.87-.56,5.81-1.58,21.55-3.19,43.1-4.68,64.66-.28,3.98-1.51,6.84-6.5,7.72,2.8-25.71,5.56-51.05,8.33-76.4-.33-.1-.67-.2-1-.31-.54,1.85-1.35,3.67-1.59,5.57-2.91,23-5.79,46-8.53,69.01-.54,4.53-.25,4.57-6.58,6.5,4.3-27.98,8.51-55.31,12.9-83.86-3.28.93-7.65,1.28-11.05,3.29-10.44,6.18-27.27,3.98-35.58-5.04-1.64-1.78-4.08-2.83-6.78-4.64,1.44-1.98,2.86-3.92,3.4-4.67,11.34,1.2,21.55,2.14,31.7,3.44,3,.39,5.83,1.97,8.81,2.72,2.22.57,4.57,1.09,6.82.94,8.44-.54,16.86-1.37,24.59-2.03-8.46-6.68-19.23-1.64-29.47-3.09,6.9-5.81,16.3-4.18,23.61-9.17-6.77.71-13.53,1.43-21,2.22.24-2.57.4-4.2.53-5.63,3.94.33,7.44.63,10.95.93.1-.65.19-1.3.29-1.95-3.36-.73-6.72-1.46-10.08-2.19.07-.35.14-.71.22-1.06,1.5.16,2.99.33,4.73.52-2.05-2.33-3.98-4.51-5.92-6.7.18-.14.35-.29.53-.43,5.37,3.66,10.75,7.32,16.12,10.98.44-.57.88-1.13,1.32-1.7-2.71-2.24-5.29-4.69-8.17-6.69-11.22-7.78-12.21-12.41-4.21-23.34,5.61-7.67,11.34-15.29,17.5-22.51,4.87-5.72,11.23-9.81,18.96-9.96,4.2-.08,8.43,1.58,12.52,3.35-10.12-1.65-19.02-.82-25.19,8.61-9.97,10.21-15.51,23.04-22.28,35.15l1.68.99c6.83-12.08,13.65-24.16,20.48-36.24.85,1.29,2.26,2.5,2.46,3.89,2.98,20.99,5.85,42,8.56,63.03.31,2.44-.19,5.13-.89,7.53-3.05,10.43-6.78,20.68-9.4,31.22-3.43,13.78-8.64,26.67-16.3,38.59l.22-.21Z"/>
    <path class="cls-1" d="M579.64,470.58c-4.15-6.72-8.36-13.57-12.62-20.39-2.62-4.2-5.09-8.51-8.01-12.49-2.04-2.78-2.07-4.69.51-7.12,2.68-2.52,4.56-5.58,4.7-8.63.03-.6.07-1.8-.69-2.7-.6-.71-1.16-.59-1.91-1.22-1.41-1.17-.76-2.67-1.65-3.39-1.33-1.07-3.89,1.38-8.76,2.64-2.48.64-5.92,1.54-7.6-.13-.47-.46-.91-2.1-1.8-5.38-.43-1.6-.48-1.99-.49-2.39-.05-1.85.69-2.45.32-3.78-.04-.13-.39-1.33-1.48-2-1.39-.86-2.43.1-3.3-.52-1.05-.75-.53-3.22.52-8.17.36-1.69.7-2.96,1.56-4.35.82-1.3,1.08-1.09,1.65-2.09.84-1.47.41-2.23.58-7.03.07-2.01.17-2.54-.24-3.31-.62-1.18-1.56-1.34-2.8-2.27-1.73-1.31-3.34-3.65-3.27-5.43.07-1.92,2.09-3.21,6.07-5.51,8.44-4.87,12.66-7.31,15.35-7.84,4.81-.95,8.87-.45,12.39-.01.73.09,4.66.58,7.81,1.6,12.25,3.97,21.5,18.92,18.51,23.47-.99,1.5-2.67.89-5.04,3.48-.68.74-.88,1.17-3.31,6.16-2.16,4.44-2.39,4.94-2.36,5.95.04,1.79.79,3.52,2.16,5.28,2.94,3.79,3.04,7.18.79,11.47-.97,1.86-.63,5.66.7,7.21,2.76,3.21,6.76,5.31,9.88,8.27,1.41,1.34,3.2,4.3,2.64,5.39-5.98,11.55-12.4,22.87-18.73,34.24-.15.27-.67.34-2.09,1.01Z"/>
    <path class="cls-1" d="M335.31,437.83c3.54-.42,16.74-2.39,21.82-12.17,2.39-4.61,2.31-9.67,2.09-9.72-.26-.06-.65,6.82-5.62,11.7-2.37,2.32-6.49,4.9-9.09,3.62-1.76-.87-2.18-3.21-3.44-3.08-1.2.13-1.23,2.3-2.69,2.67-1.53.39-3.45-1.47-4.11-2.76-1.91-3.74-1.25-7.38,2.15-10.11,1.65-1.33,3.58-2.32,5.6-3.61-.53-.82-.94-1.45-1.35-2.09-4.59-7.33-2.97-13.22,4.99-16.63,3.71-1.59,4.88-3.47,4-7.59-2-9.39,1.55-15.37,10.72-18.18,8.71-2.67,17.24-2.73,24.64,3.8.3.26.6.53.92.75,7.31,4.94,7.11,6,7.26,6.58.69,2.61-2.59,3.31-2.63,7.52-.02,2.77,1.39,3.3,1,6.29-.29,2.24-1.2,2.83-.77,4.46.37,1.43,1.24,1.64,1.82,3.65.15.53.23,1.25.36,2.68.27,2.8.4,4.21,0,4.62-1.17,1.2-4.24-.71-4.99.36-.34.49.28.92.36,2.8.06,1.31-.22,1.51-.12,2.92.1,1.33.37,1.47.33,2.17-.12,1.83-2.16,3.08-2.46,3.29-2.01,1.38-4.82,1.51-7.96.29-3.18-1.23-7.55-4.83-9.55,1.81-1.82,6.03-.66,7.96,6.2,10.28,1.5.51,3.39.57,4.44,1.54,1.45,1.35,3.47,3.59,3.19,5.06-2.28,12-7.62,22.41-17.21,30.39-3.95,3.29-7.2,2-10.51-.96-9.76-8.71-15.94-19.54-19.42-32.34Z"/>
    <path class="cls-1" d="M761.3,364.32c.64-.17-2.31-8.52,0-9.96,1.77-1.11,6.71,1.77,8.33,5.84,1.32,3.32.95,8.27-.99,11.56-2.11,3.58-1.55,5.51.55,8.76,3.46,5.33,10.12,13.07,8.72,17.5-1.16,3.66-7.95,6.03-13.01,4.21-3.65-1.31-5.55-4.49-5.74-4.82-1.67-2.89-1.26-5.51-1.84-5.53-.72-.03-1.96,3.85-1.49,7.87.11.9.37,2.97,1.62,5.15,2.1,3.67,5.59,5.16,7.21,6.05,4.54,2.49,7.06,6.74,10.28,15.94,10.63,30.38,13.31,61.87,13.69,93.72.05,4.46.04,8.95-6.46,10.05-3.82-6.72-6.08-13.73-5.43-21.8,1.91-23.76,2.41-47.54-1.35-71.18-.76-4.8-2.39-9.62-4.45-14.04-4.49-9.6-13.56-12.89-23.38-6.8-8.76,5.43-16.2,13.08-23.93,20.07-2.82,2.55-4.82,6.02-7.48,8.84,3.22-11.11,7.98-16.72,11.93-19.8,0,0,6.06-4.73,9.84-11.42.51-.89,1.29-2.42,1.34-4.43.01-.57,0-2.36-2.02-6.03-2.2-3.99-3.36-5.83-5.27-6.7-1.82-.83-4.16-.52-8.33.37-3.52.75-4.4-1.02-4.73-1.51-.51-.76-.12-1.11-.61-3.95-.39-2.23-.68-2.32-.62-3.47.1-1.67.78-2.43.31-2.99-.33-.39-.77-.15-2.34-.51-1.06-.25-1.59-.37-1.85-.71-.4-.51-.09-1.61.53-3.79.45-1.59.68-2.38.97-2.82.36-.55.78-.98.79-1.68,0-.53-.22-.6-.35-1.24-.18-.9.04-1.51.26-2.47.64-2.72-.39-3.2.43-5.11.35-.81.69-1.1.71-1.87.03-1.01-.53-1.76-.8-2.16-.52-.74-3.37-4.83-2.4-6.69.53-1.02,1.9-.75,2.56-2.21.29-.64.19-1.06.27-1.57.34-2.05,3.23-3.24,4.32-3.69,11.05-4.56,21.05-1.94,21.05-1.94,3.35.88,11.77,3.08,16.02,10.19,1.89,3.15,2.72,6.9,3.15,6.78Z"/>
    <path class="cls-1" d="M126.36,391.66c-.3-4.49-.92-8.99-.84-13.47.74-40.27,1.62-80.54,2.43-120.81.1-4.76.14-9.52.06-14.28-.04-2.81.7-4.57,3.94-4.55,10.48.06,20.97.02,31.68.02.27,1.01.72,1.93.73,2.85.32,23.61.52,47.22.95,70.83.08,4.54-1.28,6.99-5.76,8.82-10.16,4.16-12.27,14.71-5.19,23.32,1.13,1.38,2.48,2.6,3.5,4.05,3.43,4.88,1.05,11.14-4.3,13.54-5.93,2.65-11.48,6.16-18.05,9.76,0-2.01-.02-3.82,0-5.64.46-35.31.96-70.63,1.35-105.94.03-2.89-.7-5.8-1.08-8.69-.7.04-1.4.08-2.11.12-.33,2.42-.9,4.84-.96,7.27-.93,36.49-1.74,72.99-2.73,109.48-.21,7.81-1.02,15.6-1.55,23.4-.69-.02-1.38-.04-2.07-.06Z"/>
    <path class="cls-1" d="M484.53,508.84c.21.54.35,1.5.64,1.54,9.61,1.52,19.21,3.2,28.88,4.1,1.31.12,3.79-3.52,4.36-5.76,3.77-14.73,8.02-29.41,10.43-44.38,2.43-15.11,7.04-22.22,20.17-26.26,4.65-1.43,7.53-.2,9.84,3.86,4.59,8.09,9.26,16.16,14.1,24.1,1.63,2.68,3.9,4.97,6.27,7.93-7.41,11.37-16.23,21.47-29.08,27.47-3.2,1.5-4.89.46-5.56-2.78-.35-1.7-.6-3.43-1.84-5.34-.79,3.31-1.39,6.67-2.4,9.91-1.58,5.09-3.06,10.26-5.25,15.1-5.78,12.78-9.17,14.68-23.16,12.47-7.21-1.14-14.23-3.44-21.41-4.8-2.77-.53-5.9-.49-8.6.25-13.43,3.68-19.42,1.16-25.56-11.23-2.35-4.73-1.1-7.46,4.19-7.34,5.89.14,11.74,1.54,17.64,2.06,2.09.18,4.28-.63,6.42-.99l-.08.09Z"/>
    <path class="cls-1" d="M413.02,535.74c10.8-1.49,20.16-4.78,29.56,3.91,12.98,11.99,29.68,12.71,46.07,9.67,10.39-1.93,20.37-6.18,30.48-9.54,3.31-1.1,6.46-2.69,11.01-4.61-.54,3.15-.61,5.04-1.2,6.74-7.96,23.06-11.32,46.95-12.82,71.15-.57,9.11-.35,9.12-11.03,9.96,1.33-11.27,2.47-22.4,4.01-33.47,1.34-9.61,3.34-19.13,4.66-28.75.45-3.29-.3-6.74-1.53-10.23-5.23,4.37-4.18,10.61-5.54,15.99-1.39,5.52-2.32,11.16-3.58,17.39-9.46-7.92-19.78-8.38-30.71-7.07-5.23.63-10.65-.33-15.99-.49-7.33-.22-14.68-.81-21.98-.4-5.46.31-8.34-1.27-9.99-6.63-3.38-10.96-7.34-21.74-11.41-33.61Z"/>
    <path class="cls-1" d="M726.48,575.06c3.21-3.86,7.54-7.24,9.4-11.66,4.59-10.91,8.12-22.27,11.94-33.5,2.23-6.55,3.67-13.43,6.45-19.73,2.48-5.59,2.66-10.89,1.81-16.74-2.78-19.01-5.21-38.08-7.8-57.12-.64-4.72,1.52-7.99,5.29-10.39,4.05-2.58,8.43-2.79,12.3-.05,2.1,1.48,4.12,3.96,4.79,6.37,1.33,4.73,1.88,9.7,2.42,14.61,4.69,42.67-2.1,83.26-21.85,121.6-3.6,6.99-6.04,14.45-12.27,19.91-2.84,2.49-4.56,6.22-.78,9.79.87,2.6,1.74,5.2,2.6,7.8-1.17,2.72-2.17,5.54-3.6,8.12-.42.76-2.72,1.47-3.02,1.16-6.06-6.58-13.75,1.09-20.49-3.22.49-.77.98-2.3,2.02-3.06,8.59-6.22,8.94-15.73,10.12-24.9.39-3.05.59-6.13.87-9.2,0,0-.22.21-.22.21Z"/>
    <path class="cls-1" d="M288.44,151.63c38.65,7.78,74.95,15.07,111.25,22.38,12.82,2.58,25.6,5.32,38.46,7.7,4.68.86,7.06,2.56,6.13,7.78-.54,3.03-.1,6.24-.1,10.43-11.16-1.34-21.52-2.27-31.78-3.87-39.54-6.15-79.04-12.54-118.58-18.72-4.03-.63-5.8-2.06-5.48-6.47.43-5.99.11-12.04.11-19.24Z"/>
    <path class="cls-1" d="M722.39,223.7c1.23-.22,2.55-.64,3.88-.68,15.26-.51,30.53-.84,45.79-1.5,4.71-.2,7.18,1.52,7.47,6.19.45,7.3,1.44,14.63,1.14,21.9-1.43,34.87-3.22,69.73-4.89,104.59-.04.78-.18,1.55-.45,3.85-3.61-7.51-9-10.85-15.58-13.06-1.58-.53-2.93-4.3-2.94-6.58-.14-27.77-.03-55.53.06-83.3.02-6.81-2.14-12.51-8.13-16.19-1.97-1.21-4.27-2.17-6.53-2.55-3.3-.56-6.71-.62-10.07-.66-11.45-.13-11.45-.09-9.76-12.02Z"/>
    <path class="cls-1" d="M645.21,198.09c-18.89,4.2-23.89,9.85-25.6,29.4-.41,4.7-1.91,6.47-6.84,6.32-12.03-.34-24.08-.11-36.48-.11-.36-4.81-.5-8.54-.94-12.23-1.63-13.64-8.65-20.62-22.17-22.76-1.5-.24-3.46-2.32-3.83-3.88-.76-3.18-.57-6.59-.84-10.85,3.71,0,7.02,0,10.33,0,26.37.04,52.74.06,79.11.11,7.74.02,7.75.05,7.58,7.73-.05,2.13-.22,4.27-.33,6.26Z"/>
    <path class="cls-1" d="M508.39,234.12h-39.87c-.49-4.81-.8-9.67-1.51-14.48-1.37-9.37-4.19-17.82-14.42-21.33-.98-.34-2.07-1.93-2.15-3.01-.27-3.69-.1-7.41-.1-11.28h84.43c-.25,4.27-.22,8.18-.87,11.97-.2,1.17-2.13,2.62-3.49,2.91-12.72,2.72-18.78,8.77-20.84,21.63-.68,4.26-.77,8.61-1.18,13.57Z"/>
    <path class="cls-1" d="M303.17,183.97c-1.43,7.66-.59,15.13-9.49,19.21-7.1,3.25-8.77,10.88-9.53,18.17-.35,3.32-.06,6.7-.06,10.62h-42.1c-.44-4.02-.75-7.94-1.32-11.82-1.69-11.51-7.77-18-18.81-20.81-1.38-.35-3.13-2.27-3.33-3.66-.48-3.46-.16-7.03-.16-11.71h84.79Z"/>
    <path class="cls-1" d="M170.7,659.28c-.86-5.45-4.74-6.02-9.23-5.94-1.64.03-3.29-.65-4.64-1.55,11.42,0,22.88.54,34.24-.28,4.18-.31,8.12-3.86,12.17-5.93-3.09-2.86-5.74-6.64-9.37-8.37-5.26-2.5-11.21-3.62-16.91-5.14-3.03-.81-6.17-1.23-9.47-1.87-.08-5.61,2.9-9.05,6.74-12.03,7.74-6.01,16.93-7.6,26.29-8.03,12.19-.56,24.27.84,35.37,6.16,4.6,2.2,8.36,6.14,12.72,9.45-6.42,7.14-11.9,12.7-21.24,11.05-2.41-.42-5.14.27-7.6.92-13.38,3.53-14.26,11.87-8.35,23.14,2.97,5.67,8.54,9.98,13.13,15.11-17.54-1.39-35.35-2.81-53.96-4.29,0-4.76,0-8.67,0-12.58.77,2.44,1.27,5.02,2.41,7.27.73,1.43,2.46,3.39,3.64,3.33,2.01-.11,5-1.16,5.68-2.66,1.64-3.63,2.19-7.75,3.42-12.63-4.39,0-7.71.18-10.99-.05-3.89-.27-5,1.38-4.05,4.92ZM192.37,654.24c-5.73,1.48-7.95,6.67-7.68,15.89,6.87-3.34,5.37-9.92,7.68-15.89Z"/>
    <path class="cls-1" d="M628.54,614.86h24.92c.36,1.35.84,2.26.81,3.15-.48,18.67,4.32,36.51,8.67,54.41.96,3.96.84,7.21-1.85,10.5-4.93,6.03-9.57,12.3-14.33,18.48-.83-.21-1.67-.42-2.5-.62-5.21-28.47-10.43-56.94-15.73-85.91ZM646.67,628.06c-1.01.18-2.02.35-3.03.53,2.73,15.62,5.46,31.23,8.18,46.85.9-.16,1.8-.32,2.7-.49-2.62-15.63-5.24-31.26-7.85-46.89Z"/>
    <path class="cls-1" d="M336.14,536.35c-4.46-1.33-9.39-1.47-12.41-3.95-9.56-7.87-18.64-16.38-27.43-25.11-3.29-3.27-4.67-8.15-2.1-12.7,9.16-16.19,18.53-32.25,27.83-48.36.6-1.03,1.24-2.04,1.86-3.06.68.2,1.37.4,2.05.61,1.24,9.44,2.69,18.87,3.53,28.35.18,1.99-1.59,4.4-2.98,6.24-4.07,5.37-8.23,10.69-12.68,15.74-2.77,3.15-2.4,5.61-.16,8.85,7.38,10.66,14.49,21.49,22.48,33.41Z"/>
    <path class="cls-1" d="M539.29,528.37c-1.26,1.92-2.18,3.33-3.13,4.77,10.86,5.53,23.52,4.19,31.11-4.9,6.66-7.97,12.8-16.81,17.09-26.21,5.74-12.57,9.88-25.94,13.92-39.21,2.62-8.64,3.83-17.7,5.9-27.64.82,2.06,1.78,3.56,1.98,5.15,2.73,21.34,1.1,42.59-4.62,63.12-6.87,24.63-30.22,44.03-61.55,37.14-2.43-.53-5.62-2.07-6.54-4.04-1.97-4.2-1.07-8,5.84-8.18Z"/>
    <path class="cls-1" d="M440.45,615.98c9.22-.65,9.65,6.53,11.83,12.61-.46-2.97-.93-5.94-1.29-8.25,8.48,0,17.04.06,25.6-.02,9.09-.08,16.93-3.42,24.66-11.03-.18,3.65.11,5.78-.46,7.64-2.17,7.19-4.22,14.46-7.04,21.41-3.17,7.81-9.15,12.34-17.95,12.13-6.33-.15-12.68-.24-18.97-.85-7.47-.73-9.72-3.88-9.58-11.36.03-1.6-1.28-3.24-2.05-4.82-.59-1.21-1.63-2.29-1.92-3.56-1.07-4.64-1.91-9.33-2.82-13.89Z"/>
    <path class="cls-1" d="M707.2,443.97c-.56,1.98-.96,3.91-1.63,5.74-3,8.24-3.81,7.79-12.39,8.5-19.26,1.58-38.45,4.15-58.9,6.45-2-5.24-4.73-12.36-7.91-20.69h80.83Z"/>
    <path class="cls-1" d="M559.83,307.06c-.68-14.25-1.43-28.49-1.99-42.74-.33-8.36-5.16-14.62-10.33-20.14-2.39-2.55-7.63-2.31-11.47-3.65-1.71-.6-3.15-1.96-4.72-2.98,1.66-1.13,3.28-3.19,4.97-3.24,9.9-.31,19.82-.05,29.73-.19,3.75-.05,4.89,1.66,4.63,5.08-.57,7.49-1.05,14.99-1.55,22.48-1.79,26.7-3.58,53.4-5.37,80.11-.05.79.18,1.72-.16,2.35-.65,1.19-1.62,2.21-2.45,3.31-.71-1.16-2.01-2.32-2.03-3.49-.15-7.93-.03-15.86-.01-23.79.01-4.36,0-8.72,0-13.08l.76-.03Z"/>
    <path class="cls-1" d="M145.64,380.57c1.14,17.16,2.31,34.32,3.41,51.49,1.34,20.98,3.03,41.95,3.77,62.95.37,10.69,4.89,17.56,14.36,21.75,2.17.96,4.52,1.9,6.19,3.48,1.71,1.62,2.68,4.01,3.98,6.06-.56.81-1.11,1.61-1.67,2.42-7.87-2.45-15.74-4.89-24.11-7.49.21,5.08.86,11.42-7.45,12.83v-153.43c.51-.02,1.01-.03,1.52-.05Z"/>
    <path class="cls-1" d="M714.06,300.78c-7.54,0-14.46.21-21.35-.18-1.36-.08-3.68-2.42-3.71-3.76-.29-11.84-.17-23.69-.17-35.95,8.39-2.19,16.48-4.31,25.23-6.6v46.48Z"/>
    <path class="cls-1" d="M118.03,335.52h-17.99c-1.09-18.22-2.17-36.43-3.29-55.16,6.66,0,12.36-.22,18.02.18,1.17.08,3.1,2.42,3.11,3.74.21,16.81.14,33.63.14,51.24Z"/>
    <path class="cls-1" d="M193.98,603.24c2.75-3.33,4.93-7.48,8.35-9.85,12.76-8.87,27.04-10.09,41.51-5.42,12.53,4.04,13.98,14,3.62,22.18-1.55,1.22-4.55,1.91-6.36,1.29-14.78-5.01-29.74-8.33-45.56-6.25-.52-.65-1.04-1.29-1.57-1.94Z"/>
    <path class="cls-1" d="M223.64,577.87c8.67-4.8,16.92-10.76,26.12-14.08,9.23-3.33,19.23-2.74,27.33,4.54,6.04,5.44,5.88,7.02-.73,11.52-5.69,3.87-11.42,7.7-17.29,11.66-9.92-8.34-21.73-12.02-34.86-11.95-.19-.56-.37-1.12-.56-1.69Z"/>
    <path class="cls-1" d="M312.69,561.14c1.85-7.84,10.07-13.18,17.88-11.08,1.38.37,2.67,2.53,3.27,4.13,1.37,3.67,3.35,4.22,7.27,3.71,7.35-.95,14.89-1.26,22.29-.83,5.01.29,9.3,3.51,9.42,9.06.12,5.57-4.61,7.47-9.14,8.63-6.89,1.76-13.67,2.25-19.96-5,6.47,1.16,11.77,2.11,17.07,3.06.15-.75.29-1.5.44-2.25-5.71-3.35-12.24-3.43-18.76-3.87-4.22-.28-8.42-1.05-12.58-1.85-5.76-1.11-11.46-2.46-17.2-3.71Z"/>
    <path class="cls-1" d="M247.53,659c-7.69-.94-16.73-1.88-25.71-3.22-3.69-.55-7.96-1.59-7.89-6.47.07-4.85,4.32-5.69,8.05-6.33,13.06-2.25,25.97-1.55,38.68,2.39,3.55,1.1,6.76,3.11,5.28,7.03-.88,2.34-3.91,4.57-6.46,5.42-3.27,1.1-7.02.77-11.95,1.17Z"/>
    <path class="cls-1" d="M774.67,526.91c2.75,17.26,5.49,34.51,8.4,52.78h-21.6c-1.9-18.83,7.27-35.19,11.55-52.71.55-.02,1.1-.05,1.65-.07Z"/>
    <path class="cls-1" d="M345.76,595.1c-4.81-1.4-9.86-2.08-14.13-4.27-7.66-3.93-14.95-8.63-22.16-13.36-1.52-.99-3.31-4.39-2.79-5.13,1.34-1.89,3.98-4.19,5.98-4.08,11.99.7,23.55,3.39,32.52,12.03,1.64,1.58,1.29,5.39,1.54,8.2.13,1.5-.41,3.05-.96,6.6Z"/>
    <path class="cls-1" d="M459.02,656.63c1.82-.16,3.64-.41,5.46-.45,3.96-.09,7.93-.06,11.89-.11,10.38-.13,18.45-4.13,22.98-13.91,2.86-6.18,8.14-3.18,12.5-3.2,4-.01,5.27,2.92,5.49,6.44,1.15,18.15,2.46,14.4-12.72,14.83-13.06.37-26.16-.36-39.24-.73-2.17-.06-4.31-.77-6.47-1.18.03-.56.06-1.12.09-1.69Z"/>
    <path class="cls-1" d="M478.54,609.62c-10.94-.75-13.51-6.2-8.08-17.45,3.05-6.32,8.2-8.46,16.51-6.86,7.42,1.43,11.11,5.07,11.57,11.42.5,6.84-2.07,10.39-8.87,11.67-3.66.69-7.42.83-11.14,1.22Z"/>
    <path class="cls-1" d="M105.65,405.46h20.82c-5.08,17.91-8.62,35.38-16.28,51.52-.51-.08-1.02-.15-1.53-.23-1-17.04-2-34.09-3.01-51.3Z"/>
    <path class="cls-1" d="M308.5,583.12c-3.46.15-5.81.4-8.15.33-9.5-.25-15.92,4.3-19.41,12.85-1.5,3.67-3.72,5.67-7.47,6.73-7.27,2.06-12.13,7.37-16.02,13.46-.91,1.42-.13,3.91-.13,6.87-2.48,1.24-5.24-.58-6.28-3.63-.68-2-.01-5.5,1.43-6.96,4.25-4.28,7.18-8.86,7.52-15.01.06-1.1,1.05-2.52,2.03-3.13,8.42-5.22,16.83-10.47,25.45-15.33,8.32-4.69,12.85-3.84,21.03,3.82Z"/>
    <path class="cls-1" d="M543.34,532.52c2.24-1.89,4.34-3.99,6.75-5.62,19.72-13.35,30-33.05,37.47-54.8,3.13-9.12,6.88-18.03,11.67-26.61-1.96,7.45-3.85,14.93-5.91,22.35-5.05,18.2-11.59,35.75-22.78,51.23-4.88,6.75-10.83,12.13-19.05,14.34-2.47.66-5.19.39-7.8.54-.12-.48-.23-.95-.35-1.43Z"/>
    <path class="cls-1" d="M448.59,532.87c14.84,2.78,28.11.92,41.57-2.64,5.4-1.43,12.04,1.84,19.29,3.19-18.74,16.37-51.7,13.85-60.86-.55Z"/>
    <path class="cls-1" d="M740.8,605.96c-.87-2.6-1.74-5.2-2.6-7.8-1.76-5.16,1.23-7.9,5.3-9.72,9.05-4.03,28.23,1.79,35.11,11.41-3.2.98-5.96,2.49-8.75,2.55-8.75.19-17.37.4-25.36,4.73-.79.43-2.44-.74-3.7-1.17Z"/>
    <path class="cls-1" d="M692.71,595.96c2.01-27.61,8.69-54.18,17-80.4.67.09,1.34.17,2.01.26.1,1.22.44,2.47.26,3.64-3.54,22.7-6.93,45.43-10.94,68.05-.6,3.4-4.09,6.28-6.25,9.41-.69-.32-1.38-.63-2.07-.95Z"/>
    <path class="cls-1" d="M706.41,478.57c-12.73,0-24.3.08-35.87-.16-.87-.02-2.51-2.42-2.36-3.51.3-2.05,1.33-4.18,2.61-5.86,6.4-8.39,15.51-6.84,23.98-5.52,7.28,1.13,9.15,7.72,11.64,15.05Z"/>
    <path class="cls-1" d="M218.32,332.29c-1.4-1.74-1.5-1.59-1.78-2.23-.78-1.75.07-2.64.11-6.24.03-2.81-.47-2.98,0-4.01.92-1.99,2.97-1.65,3.91-3.64.58-1.24.48-3.05-.58-4.26-1.1-1.27-3.06-1.67-4.88-.97-.25-1.11-.8-2.83-2.19-4.26-8.12-8.39-36.12,1.9-37.03,11.19-.01.13,0,.27-.01.41-9.67.48-17.44,4.2-19.99,9.97-.75,1.7-2.03,4.32-1.17,7.05,1.18,3.72,5.2,4.2,6.61,8.84.66,2.17-.09,2.5.73,4.2,1.42,2.93,5.11,4.26,8.63,4.77,2.25.33,6.19-1.59,7.05-3.54,1.05-2.36-.02-4.91-1.46-8.16-2.39-5.42-4.58-6.12-4.83-8.66-.19-2,.85-4.95,6.58-8.98.38.49.8.99,1.31,1.52-.62.61-1.72,1.88-2.23,3.79-1.02,3.86,1.3,7.04,1.86,7.76,2.47,3.17,6.07,3.64,6.78,3.72-.7,1.32-1.66,2.47-1.93,3.76-1.85,8.74-6.81,14.22-15.53,16.92-2.05.64-4.61,4.74-4.34,6.93,1.47,11.73,3.21,23.5,6,34.98,1.46,6,7.05,7.26,11.69,3.16,11.7-10.34,20.78-22.64,26.37-37.62-1.87-1.14-3.3-2.2-4.88-2.95-4.78-2.28-4.28-6.17-3.14-10.16.41-1.43,1.04-2.29,1.81-2.79.77-.49,1.5-.49,5.96-.02,2.71.29,3.6.41,4.92.05,1.08-.3,2.03-.56,2.6-1.41.9-1.33-.27-2.41.49-5.14.18-.66.41-1.16.42-2.04.01-.81-.17-.98-.28-2.11-.12-1.22-.2-2.08.29-2.57.39-.39.84-.26,1.68-.39,1.04-.16,2.94-.77,3.33-1.84.36-.97-.73-2.32-2.9-5.01Z"/>
    <path class="cls-1" d="M604.44,426.88c5.24-3.86,9.12-6.83,13.13-9.64,4.78-3.35,9.56-2.9,14.36.18,4.62,2.97,7.38,6.37,4.7,12.24-1.03,2.25-1.1,4.93-1.64,7.6-12.03,3.16-19.35-6.63-30.54-10.38Z"/>
    <path class="cls-1" d="M690.25,559.74c.41,5.69-1.84,7.55-7.04,7.11-6.51-.54-13.07-.44-19.62-.54-5.01-.08-9.03,1.35-12.23,5.83-1.53,2.14-5.17,2.78-7.85,4.11-.32-.51-.64-1.02-.96-1.53,1.14-4.12,2.08-8.32,3.55-12.32.48-1.31,2.33-2.96,3.6-3,12.68-.34,25.37-.39,38.06-.47.73,0,1.46.47,2.5.82Z"/>
    <path class="cls-1" d="M330.48,597.87c-5.3,0-10.72-.67-15.89.16-7.68,1.22-15.16,3.68-22.81,5.22-2.35.47-4.95-.33-7.44-.54.53-2.11.53-4.58,1.69-6.25,4.31-6.19,10.84-8.15,18.05-8.51,10.19-.5,18.25,4.82,26.39,9.92Z"/>
    <path class="cls-1" d="M132.07,519.3c-.22-2.17-.62-4.35-.64-6.52-.11-11.5.08-23.01-.35-34.5-.09-2.43-2.34-4.78-3.56-7.18-.72-1.42-2.12-2.96-1.95-4.29,2.2-17.23,4.63-34.44,8.03-51.55v103.89c-.52.05-1.03.1-1.55.15Z"/>
    <path class="cls-1" d="M468.65,477.74c-.92-1.68-2.6-3.33-2.65-5.04-.6-19.54-1.12-39.1-1.16-58.65,0-2.52,2.78-5.05,4.28-7.57l1.44.6v69.88c-.64.26-1.27.52-1.91.77Z"/>
    <path class="cls-1" d="M551.37,517.98c3.45-2.89,6.89-5.77,10.14-8.49-6.21,1.18-12.54,2.39-18.88,3.59-.3-.76-.6-1.52-.9-2.27,16.95-8.96,30.34-21.78,41.55-37.08-6.75,17.67-14.69,34.41-31.91,44.25Z"/>
    <path class="cls-1" d="M296.56,641.32c-18.41,7.81-34.54-2.67-51.7-4.05l-.44-2.28c3.48-1.16,7.1-3.58,10.42-3.23,9.19.96,18.31,2.84,27.36,4.83,4.89,1.08,9.58,3.12,14.35,4.73Z"/>
    <path class="cls-1" d="M252.93,556.8c-4.98.24-10.13,1.33-10.15-6.62-.02-5.94,1.28-8.51,7.23-9.32,3.28-.45,6.74-.32,10.02.19,4.07.63,7.75,2.11,7.31,7.51-.4,4.97-2.93,7.58-7.89,7.85-2.17.12-4.35.26-6.52.39Z"/>
    <path class="cls-1" d="M722.14,588.94c.49,7.19-.31,12.04-6.3,14.68-1.76.78-3.85,1.89-4.72,3.45-3.04,5.47-7.81,5.12-12.84,4.6-4.68-.49-6.24-2.98-4.07-7.17.78-1.51,2.03-3.16,3.49-3.89,7.71-3.87,15.56-7.47,24.43-11.67Z"/>
    <path class="cls-1" d="M162.51,620.85c-3.31-1.75-4.3-4.63-1.92-7.67,7.57-9.65,17.25-16.3,29.95-20.11-1.14,7.43-1.69,13.02-9.8,15.86-6.6,2.31-12.1,7.76-18.24,11.92Z"/>
    <path class="cls-1" d="M522.77,452.99v-49.2c4.49.31,5.01,1.55,6.93,15.05.87,6.07,3.42,12.37,2.46,18.11-.96,5.74-5.34,10.9-8.22,16.32-.39-.09-.78-.18-1.18-.27Z"/>
    <path class="cls-1" d="M342.76,601.14c6.67-3.31,13.14-7.12,20.08-9.71,3.65-1.36,9.44-2.3,11.87-.39,3.87,3.04,2.19,8.57.15,13.51-10.81-.7-21.49-1.39-32.18-2.07.03-.44.06-.89.09-1.33Z"/>
    <path class="cls-1" d="M437.79,493.61c15.96,1.15,31.71-5,47.74-1.4.21.79.43,1.59.64,2.38-3.94,1.49-7.79,3.94-11.82,4.27-10.2.83-20.47.91-30.72.82-2.26-.02-4.51-2.01-6.77-3.09.31-.99.62-1.98.92-2.97Z"/>
    <path class="cls-1" d="M193.71,646.06c-15.43,2.59-29.14.67-43.57-2.57,9.04-9.98,32.79-8.61,43.57,2.57Z"/>
    <path class="cls-1" d="M146.84,566.08c-3.03-.89-7.02-1.46-10.41-3.21-5.06-2.61-4.87-7.09-.04-9.98,7.32-4.37,16.46-2.72,21.83,3.93,3.24,4.02,2.73,5.95-2.37,7.53-2.6.81-5.37,1.05-9.02,1.73Z"/>
    <path class="cls-1" d="M106.8,547.24c4.68-5.07,7.82-9.69,12.07-12.79,5.46-3.98,15.51,1.33,15.84,8.06.08,1.58-1.74,4.26-3.23,4.74-7.41,2.4-14.98,2.26-24.69,0Z"/>
    <path class="cls-1" d="M779.39,619.33c-12.6-.61-24.07-1.17-35.78-1.74,2.13-6.26,6.83-9.35,13.8-9.75,11.75-.67,17.8,2.12,21.98,11.49Z"/>
    <path class="cls-1" d="M264.82,619.3c1.1-2.92,1.34-4.87,2.4-6.14,4.83-5.76,17.57-6.77,23.63-2.14,3.74,2.86,3.83,5.63.23,8.67-5,4.22-14.14,5.04-21.17,1.41,5.21-5.56,11.82-4.29,18.7-4.37-8.35-5.2-14.92.6-23.79,2.56Z"/>
    <path class="cls-1" d="M67.4,575.09c-6.34,7.76-12.97,10.33-20.7,7.44-2.36-.88-5.74-4.14-5.46-5.76.41-2.38,3.42-5.65,5.79-6.11,6.99-1.34,14.18-1.37,20.36,4.43Z"/>
    <path class="cls-1" d="M307.61,553.72c-8.16.59-15.33,1.6-22.44,1.25-1.58-.08-3.52-4.8-4.09-7.63-.24-1.18,2.37-3.78,4.15-4.4,9.31-3.25,16.46-.04,22.38,10.77Z"/>
    <path class="cls-1" d="M842.64,611.93c-3.28-.4-5.72-.22-7.77-1.03-9.64-3.82-19.3-7.21-29.96-6.23-1.26.12-2.63-1.04-3.95-1.61.59-.89.97-2.08,1.79-2.62,7.78-5.17,32.99-.31,38.24,7.32.52.76.71,1.74,1.65,4.17Z"/>
    <path class="cls-1" d="M458.02,615.54c-8.5-1.44-14.65-5.3-19.14-13.76,5.52-.96,10.21-2.36,14.94-2.47,6.66-.15,9.5,5.55,6.26,11.48-.74,1.35-1.24,2.83-2.06,4.75Z"/>
    <path class="cls-1" d="M661.89,436.71c-6.14,0-12.07.29-17.93-.21-1.4-.12-3.34-2.73-3.67-4.46-.46-2.4-1.22-5.88,3.24-6.15,2.97-.18,5.92-.64,8.88-.76,9.56-.39,10.75.95,9.48,11.58Z"/>
    <path class="cls-1" d="M182.03,546.44c-6.53,0-13.12.51-19.56-.22-3.1-.35-6.95-3.19-5.07-7.05,1.12-2.3,5.06-4.6,7.67-4.52,7.31.22,13.03,4.19,17.65,9.49-.23.77-.45,1.54-.68,2.3Z"/>
    <path class="cls-1" d="M120.22,567.79c-8.09.49-15.64,1.31-23.18,1.22-3.1-.04-5.2-2.7-2.48-5.9,6.53-7.67,22.61-6.81,25.66,4.68Z"/>
    <path class="cls-1" d="M326.15,489.23c3.64,11.64,7.01,22.42,10.38,33.2-.53.33-1.07.65-1.6.98-2.27-2.69-4.83-5.19-6.73-8.11-2.36-3.63-3.81-7.86-6.31-11.38-3.95-5.58-2.66-9.74,4.26-14.69Z"/>
    <path class="cls-1" d="M825.78,615.68c-11.07.67-22.14,1.34-33.73,2.04,5.82-10.4,23.97-12.21,33.65-4.11l.08,2.07Z"/>
    <path class="cls-1" d="M470.06,488.53c-3.16.74-6.29,1.91-9.48,2.13-7.11.51-14.26.76-21.38.59-1.44-.03-2.82-2.4-4.22-3.7,1.36-1.01,2.67-2.81,4.09-2.9,10.39-.69,20.85-1.59,31,3.87Z"/>
    <path class="cls-1" d="M323.51,541.12c-4.65,2.9-9.2,5.74-13.89,8.67-3.63-4.21-7.03-8.15-10.5-12.18,8.37-4.6,18.57-3.2,24.4,3.51Z"/>
    <path class="cls-1" d="M261.09,531.59c9.79.66,19.59,1.32,29.38,1.97.11.87.22,1.73.33,2.6-6.3,2.19-12.56,5.85-18.92,6.02-3.86.11-7.86-5.17-11.8-8.02.34-.86.68-1.72,1.02-2.58Z"/>
    <path class="cls-1" d="M775.57,604.92c9.71-6.7,12.03-6.6,20.86,1.15-4.09,3.41-8.07,6.73-12.94,10.8-2.82-4.26-5.26-7.94-7.92-11.95Z"/>
    <path class="cls-1" d="M113.05,579.02c6.32-4.73,21.07-3.79,27.24,1.74-11.39,6.38-22.85,5.65-27.24-1.74Z"/>
    <path class="cls-1" d="M299.07,614.57c-3.07-6.51-2.53-8.87,3.85-10.31,7.92-1.79,16.13-2.28,24.44-2.14-9.44,4.15-18.88,8.31-28.29,12.45Z"/>
    <path class="cls-1" d="M69.8,587.57c10.33-9.19,25.88-8.71,29.14,0h-29.14Z"/>
    <path class="cls-1" d="M673.23,607.6c3.16,0,6.33-.17,9.46.1,1.02.09,2.83,1.47,2.73,1.99-.22,1.23-1.31,3.24-2.14,3.29-7.05.41-14.12.57-21.18.45-1-.02-1.97-1.95-2.95-2.99,1.14-.8,2.23-2.2,3.43-2.3,3.52-.31,7.09-.11,10.64-.11v-.42Z"/>
    <path class="cls-1" d="M649.36,589.23c-3.34.36-6.71,1.22-10,.96-5.62-.44-9.73.55-10.39,7.09-.05.52-.57,1.01-.9,1.49-.1.14-.33.2-1.63.93-.85-4.36-1.62-8.34-2.53-13.05h25.33c.05.86.09,1.72.14,2.59Z"/>
    <path class="cls-1" d="M226.64,560.98c.5-7.1,3.84-11.2,7.5-9.79,2.76,1.06,4.59,4.52,6.84,6.91-3.46,2.29-6.77,4.93-10.5,6.6-.74.33-3.13-3.01-3.83-3.72Z"/>
    <path class="cls-1" d="M665.29,425.77c-2.51-2.66-4.47-4.3-5.86-6.33-1.33-1.93-2.07-4.27-3.07-6.43,3.32-1.23,6.57-2.86,9.99-3.35.68-.1,3.06,4.37,2.75,6.45-.51,3.47-2.57,6.7-3.81,9.65Z"/>
    <path class="cls-1" d="M628.78,411.24c6.06-6.82,16.54-2.53,21.49,6.84-3.08.83-5.97,1.61-9.43,2.54.52-9.6-8.98-4.42-12.06-9.38Z"/>
    <path class="cls-1" d="M113.49,505.14c2.33.79,4.33.86,5.26,1.89,2.2,2.46.53,20.01-2.87,24.58-2.6-9.07-2.46-17.24-2.38-26.47Z"/>
    <path class="cls-1" d="M642.84,483.87c4.63-4.72,10.43-7,16.97-6.14,2.02.26,3.69,3.15,5.52,4.84-.28.63-.55,1.25-.83,1.88-7.08.41-14.16.83-21.24,1.24-.14-.6-.28-1.21-.42-1.81Z"/>
    <path class="cls-1" d="M432.91,582.9c9.28.51,18.5,1.02,28.19,1.55-3.99,7.28-9.25,8.59-15.33,5-3.97-2.34-8.21-4.21-12.86-6.55Z"/>
    <path class="cls-1" d="M285.25,562.89c6.23-1,12.46-2,18.68-3,.41.86.82,1.72,1.23,2.59-3.41,2.48-6.54,6.18-10.32,7.06-2.98.69-6.77-2.09-10.2-3.32.2-1.11.41-2.22.61-3.33Z"/>
    <path class="cls-1" d="M687.57,580.13c-.94,4.68-1.04,8.71-6.18,8.05-1.93-.25-4.68-2.79-5.06-4.68-.9-4.43,3-9.54,6.41-8.71,1.93.47,3.24,3.48,4.83,5.34Z"/>
    <path class="cls-1" d="M110.27,470.15c7.41,9,8.04,22.31,1.24,26.48-.41-8.65-.78-16.72-1.24-26.48Z"/>
    <path class="cls-1" d="M491.9,610.78c-6.07,5.98-12.87,5.46-19.51,5.13-.99-.05-1.9-1.88-2.85-2.89,1.13-.75,2.25-2.1,3.4-2.14,6.01-.22,12.04-.1,18.95-.1Z"/>
    <path class="cls-1" d="M657.06,499.23c-5.13.66-8.21,1.06-12.31,1.59-.26-2.66-1.4-5.59-.48-7.57.69-1.47,4.83-2.98,6.02-2.23,2.45,1.55,3.96,4.6,6.77,8.2Z"/>
    <path class="cls-1" d="M651.72,472.63c-3.86,2.02-7.6,3.98-11.33,5.93-.6-.21-1.19-.42-1.79-.64.38-2.17,0-5.22,1.29-6.34,4.22-3.65,8.47-3.17,11.83,1.05Z"/>
    <path class="cls-1" d="M428.03,525.28c-6.73.76-11.72,1.41-16.74,1.8-.83.07-1.75-1-2.64-1.54.76-.99,1.34-2.6,2.31-2.87,5.38-1.55,10.72-1.65,17.07,2.61Z"/>
    <path class="cls-1" d="M226.42,568.59c-4.68,3.54-8.51,6.44-13.84,10.47.2-3.47-.48-6.29.59-7.38,3.33-3.39,7.6-4.7,13.25-3.09Z"/>
    <path class="cls-1" d="M655.15,470.8c1.92-6.42,6.73-5.98,11.44-6.21q-1.6,8.74-11.44,6.21Z"/>
    <path class="cls-1" d="M281.99,520.72c6.27-1.02,12.37-1.04,17.41,5.1-5.93-.83-11.86-1.66-17.79-2.48.13-.87.25-1.74.38-2.61Z"/>
    <path class="cls-1" d="M757.38,564.41c2.3,10.78.2,15.34-6.42,15,2.21-5.16,4.31-10.08,6.42-15Z"/>
    <path class="cls-1" d="M348.83,540.16c-3.18,3.6-6.37,7.2-9.55,10.79-.68-.31-1.36-.62-2.04-.92,1.2-2.85,1.84-6.19,3.77-8.4,1.52-1.75,4.63-2.11,7.03-3.09.27.54.53,1.08.8,1.62Z"/>
    <path class="cls-1" d="M105.02,392.03c.12-2.55.19-4.19.32-6.89,5.24,1.48,9.74,2.76,14.25,4.03-.07.71-.14,1.42-.21,2.13-4.44.23-8.88.45-14.36.73Z"/>
    <path class="cls-1" d="M680.29,487.79h20.74c0,.49.01.98.02,1.47h-20.75c0-.49,0-.98-.01-1.47Z"/>
    <path class="cls-1" d="M105.66,399.84c1.51-6.75,3.65-6.87,13.19-.84-4.16.27-8.32.53-13.19.84Z"/>
    <path class="cls-1" d="M334.22,457.38c-2.65-6.36-4.59-11.03-6.74-16.2,1.28-.81,2.87-1.81,5.13-3.23.54,6.51,1.01,12.29,1.6,19.43Z"/>
    <path class="cls-1" d="M445.37,593.46c-1.76.72-2.97,1.64-4.14,1.61-2.3-.06-4.63-.49-6.81-1.2-.37-.12-.06-2.35-.06-3.61,2.56.28,5.16.41,7.67.92,1.02.21,1.88,1.24,3.34,2.28Z"/>
    <path class="cls-1" d="M514.48,632.06h-12.42c1.84-2.3,3.12-5.08,4.18-5,2.94.23,5.78,1.65,8.66,2.6-.14.8-.28,1.6-.42,2.4Z"/>
    <path class="cls-1" d="M278.11,558.32c-3.03-.27-6.05-.54-9.08-.8l-.44-1.59c2.07-1.83,4.14-3.66,6.85-6.06,1.45,2.73,2.48,4.67,3.52,6.62-.28.61-.56,1.22-.84,1.84Z"/>
    <path class="cls-1" d="M484.6,508.75c-2.59-.6-5.19-1.14-7.76-1.81-2.64-.69-5.24-1.5-8.28-2.38,7.06-1.98,7.18-1.94,15.94,4.31.03-.03.11-.12.11-.12Z"/>
    <g>
      <path class="cls-1" d="M645.69,784.03c-5.84-8.9-6.53-18.98-7.03-29.1-.77-15.25-.32-30.65-2.32-45.73-3.83-28.89-9.18-57.57-13.58-86.39-2.27-14.89-3.92-29.87-5.71-44.83-.26-2.15.28-4.39.55-8.02,1.6,2.06,2.07,2.94,2.78,3.53,2.56,2.13,5.78,6.29,7.67,5.77,3.21-.88,6.56-4.27,8.11-7.46,2.39-4.91,3.79-10.44,4.79-15.86,7.43-40.38-5.02-76.78-22.79-112.07-.62-1.22-1.41-2.47-2.42-3.37-2.46-2.17-5.1-4.13-7.57-6.1.76,5.89,1.84,10.87,1.95,15.87.18,8.92-.37,17.85-.36,26.77.04,24.56-9.41,44.77-28.18,60.41-9.99,8.32-20.54,16.15-34.87,9.74-.33-.15-.98.43-2.21,1.03,6.32,8.19,14.01,12.11,24.82,10.34-6.75,6.43-11.37,7.35-22.74,5.05,2.26,13.73,11.7,18.01,22.88,10.24,2.75-1.91,5.44-4.09,7.62-6.61,6.41-7.42,12.56-15.08,18.81-22.64-6.24,13.09-14.74,24.58-25.31,34.53-8.74,8.22-18.07,7.37-25.51-2.24-2.51-3.25-4.61-6.82-6.9-10.24-.51.17-1.02.34-1.53.51,3.4,12.89,6.15,26,10.42,38.59,3.29,9.7,8.96,11.06,17.6,5.28,4.73-3.16,9.68-6.71,12.88-11.25,6.36-9,11.78-18.71,17.21-28.33,2.82-5.01,4.83-10.48,7.2-15.75.89,1.55.95,2.79.5,3.8-6.17,13.71-11.64,27.81-18.93,40.9-3.91,7-10.21,13.32-16.8,18.02-10.97,7.82-20.27,4.59-26.07-7.54-5.43-11.35-6.83-23.53-7.06-35.91-.06-3.4,0-6.81,0-11.42-5.72,8.87-9.02,18.19-9.24,34.14-.35,25.16.71,50.33.91,75.5.11,13.32,8.98,19.74,19.2,24.75,9.7,4.75,19.44,3.66,27.9-3.29,4.25-3.49,8.28-7.45,11.61-11.81,11.67-15.28,17.48-33.21,22.38-51.49.39-1.47.89-2.92,1.34-4.37.9,1.07.97,1.86.89,2.64-.35,3.15-.63,6.32-1.14,9.45-3.72,23.05-12.81,43.32-31.18,58.51-12.87,10.64-27.42,10.98-41.09,1.43-1.41-.99-2.86-1.91-4.53-3.02.27,18.78,2.37,22.2,20.26,21.18,1.18-.07,2.35-.35,3.51-.61,20.32-4.59,36.68-15.47,49.88-31.39,1.01-1.22,2-2.47,3.1-3.61.93-.97,2-1.8,3.01-2.69.31.5.61,1,.92,1.51-18.68,26.01-41.7,44.56-76.63,42.89,1.23,8.3,6.28,12.39,13.62,14.13,18.48,4.38,36.24,1.85,53.36-5.93,7.66-3.48,7.9-3.56,11.33,4.3,4.61,10.54,9.08,21.14,13.48,31.76,4.2,10.11,2.06,16.72-7.17,22.82-2.48,1.64-5.2,2.98-7.43,4.9-3.18,2.74-1.96,4.82,1.65,5.77,1.3.34,2.78.34,4.13.15,9.03-1.27,18.05-2.65,27.07-3.98,3.59-.53,4.7-2.65,3.67-5.94-.77-2.45-1.38-5.09-2.75-7.19Z"/>
      <path class="cls-1" d="M782.5,175.79c1.2-.12,3.19-1.5,3.23-2.39.3-5.67.15-11.36.15-16.84h-275.51v19.19c2.39.11,4.34.27,6.28.27,85.05.02,170.1.02,255.15.02,3.57,0,7.16.11,10.69-.25Z"/>
      <path class="cls-1" d="M848.22,176.04c7.18.01,14.17.03,16.31-2.13,2.07-2.09,1.64-8.25-9.51-26.27-7.22.07-14.45.14-21.67.21,1.05-.95,1.34-2.63.99-5.56-2-16.62.2-14.18-16.02-14.1-7.31.04-14.61.08-21.92.11-.78-2.68-1.56-5.95-2.1-9.71-.38-2.63-1.03-7.31-.68-12.69.59-8.93,3.36-10.88,2.69-13.78-2.61-11.33-48.5-9.06-48.5-9.06-20.5,1.01-50.3,4.34-86.65,15.15h0c-23.2,2.47-46.6,5.1-70.2,7.88-25.21,2.97-50.14,6.07-74.82,9.28.39-2.79.79-5.58,1.18-8.37,2.09-1.26,4.36-2.78,6.7-4.59,1.89-1.47,3.58-2.93,5.07-4.33-1.61-1.51-2.98-3.53-4.87-4.45-48.21-23.32-96.48-46.5-144.7-69.8-4.43-2.14-8.35-5.46-12.9-7.24-3.36-1.31-7.42-1.62-11.04-1.23-1.25.13-2.46.52-3.67.99-1.71-2.84-4.08-5.88-7.4-8.58-7.49-6.1-15.66-7.09-19.03-7.5-2.5-.3-5.09-.35-7.79-.11-27.07,2.42-54.2,4.16-81.3,6.32-13.45,1.07-26.85,3.06-40.31,3.5-24.51.81-36.73,2.03-38.61,1.67-3-.57-10.91-2.33-19.5.88,0,0-3.51,1.31-6.87,3.68-12.9,9.07-49.26,52.01-51.71,54.92C43.73,133.08-8.48,187.64,1.17,196.97c3.31,3.2,11.22-1.53,26.56,4.31,7.2,2.74,10.13,5.35,10.76,6.35,3.56,5.71,5.51,12.5,7.65,18.99.95,2.87.72,6.13,1.03,9.28.08,2.72.16,5.44.23,8.16,0-.02.01-.04.02-.06-8.2,105.71-7.92,211-9.22,315.66-8.97,11.34-17.93,22.69-26.9,34.03,18.41,29.51,27.69,40.86,32.72,45.09,6.45,5.42,10.86,11.88,13.34,19.92,5.45,17.65,14.23,33.59,25.75,47.97,10.32,12.88,21.07,25.31,33.4,35.99-.01,0-.02,0-.03,0,.09.07.18.15.27.22,4.26,3.68,8.7,7.15,13.39,10.35,21,15.71,51.22,35.86,89.76,54.14,104.42,49.53,198.91,45.28,387.9,36.77,56.85-2.56,106.6-7.18,144.94-44.25,23.65-22.86,34.54-49.93,39.92-68.32,3.82-9.7,16.78-36.13,34.69-72.54,0,0,0,0-.01,0,.44-.73.85-1.49,1.22-2.3,1.6-3.53,2.78-5.44,5.46-11.53,2.96-6.72,6.03-12.67,8.97-17.83,11.6-2.36,11.37-4,10.23-17.2-1-11.57-2.14-13.44-13.36-16.63-.84-.24-1.69-.46-2.54-.68,0-3.06.02-7.8.05-13.52.15-30.17.63-52.52.54-56.53-2.06-91.62-4.43-183.23-6.7-274.85-.05-1.92-.09-3.49-.18-4.79,0,0,0,0,0,0,0-.03,0-.06,0-.09,0-.09-.01-.18-.02-.26-.68-7.28-.24-13.31.33-17.58,1.38-10.17,3.06-16.44,7.74-21.66,2.14-2.39,4.88-4.46,8.42-6.12,2.27-1.07,3.63-7.01,3.06-10.29-.5-2.88-3.18-6.92-8.37-4.55-.71.33-1.52.46-2.36.5.04-1.74-.15-3.93,1.46-5.54,1.7-1.7,4.2-1.56,6.92-1.55ZM825.81,232.26c.29.15.88.49,1.29,1.18.88,1.47.08,3.08.04,3.16-.59,1.13-1.65,1.53-1.92,1.63-11.16-.06-22.31-.12-33.47-.17-.45-.11-1.37-.39-2.1-1.22-.27-.31-.69-.79-.76-1.51-.07-.79.32-1.39.58-1.78.42-.64.95-1.03,1.32-1.24,11.67-.01,23.35-.02,35.02-.03ZM812.71,258.96c.64-.03,1.27-.06,1.91-.08.88,60.54,1.77,121.08,2.65,181.63-.87.01-1.73.03-2.6.04-2.73-60.49-1.81-121.05-1.96-181.58ZM754.62,103.05c2.01-2.14,4.93-2.27,10.55-2.96,2.14-.26,3.65-.06,4.61.79,1.38,1.21,1.36,3.29,1.36,4.12,0,4,.37,12.24.89,23.42-6.34.02-12.69.04-19.03.05-.05-5.36-.07-9.66-.08-12.43-.03-9.15.02-11.2,1.72-13ZM689.22,114.17c.24-2.34.48-3.11.87-3.85,2.41-4.51,9.12-5.1,14.39-5.56,8.12-.72,12.84-1.13,14.97,1.73,2.08,2.79-.32,6.01.19,17.08.09,2,.25,3.65.38,4.8-6.91.22-13.93.37-21.05.44-3.1.03-6.17.05-9.23.05-1.04-6.35-.87-11.34-.53-14.68ZM635.93,113.04c.91-1.28,1.97-1.86,17.89-4.44,6.98-1.13,10.6-1.64,11.92.26.49.71.24,1.16.36,6.5,0,0,.04,1.79.21,5.32.09,1.96.27,4.8.65,8.29-9.75.05-19.51.11-29.26.16-.66-1.2-5.68-10.62-1.77-16.08ZM362.14,30.44c.46.12-.53,2.57.64,4.99,1.27,2.64,4.31,3.59,5.04,3.85,4.97,1.77,61.67,28.23,140.83,65.37-.23,1.89-.46,3.78-.69,5.68-.9-.48-1.94-1.01-3.2-1.63-1.95-.97-3.93-1.89-5.91-2.81-43.54-20.18-87.1-40.34-130.63-60.57-2.07-.96-7.83-3.41-8.59-7.91-.59-3.47,1.93-7.13,2.51-6.98ZM134.98,20.15c1.81-.71,4.28-1.46,7.55-1.83,13.63-1.53,32.76,4.6,35.48,5.49,27.43,8.97,41.15,13.46,43.82,14.5,1.29.5,4.91,1.91,9.73,1.9,2.05,0,4.16-.28,6.38-.88,30.58-8.16,72.72-18.5,77.28-19.62,4.79-1.18,12.52-3,22.26-4.9.51.12,1.03.26,1.56.43,2.61.83,4.77,2.13,6.52,3.52-33.76,8.04-67.55,15.96-101.32,23.94-1.21.29-2.35.86-4.36,1.62,2.32,1.03,3.73,1.7,5.18,2.29,28.27,11.54,56.57,23.03,84.82,34.61,9.92,4.07,11.16,7.13,7.53,18.28-2.37-.85-4.78-1.59-7.11-2.55-30.62-12.62-61.2-25.34-91.85-37.9-25.14-10.3-50.39-20.35-75.52-30.66-1.73-.71-6.58-2.7-13.31-3.43-11.59-1.25-21.36,2.05-27.47,4.81,2.18-2.72,6.32-7.07,12.82-9.61ZM66.17,140.39c1.24-3.9-4.38-9.42,1.32-13.42.52.37,1.07.56,1.11.83,2.15,13.25,11.45,13.38,21.69,11.9,1.93-.28,3.9-.3,6.57-.49-.87-4.9-1.67-9.46-2.48-14.02.39-.47.78-.94,1.17-1.42,1.75,1.35,3.57,2.62,5.21,4.1.51.46.53,1.46.77,2.22,3.17,10.23,3.79,10.58,14.98,7.99-.19-3.43-.58-6.94-.48-10.45.03-1.22,1.26-2.41,1.94-3.61,1.26.94,3.18,1.62,3.65,2.86,1.44,3.77,1.5,10.5,3.57,11.12,5.38,1.59,11.55.54,18.03.54-.47-4.85-.85-8.71-1.24-12.77,3.92-2.28,6.11-1.99,7.07,2.87,2.17,10.96,2.48,11.04,14.27,8.62-.22-2.96-.75-6.06-.57-9.11.09-1.58,1.45-3.08,2.23-4.62,1.11,1.13,2.8,2.08,3.25,3.43,3.65,10.92,3.58,10.95,15.03,10.43,2.35-.11,4.69-.31,7.85-.52-.45-4.29-1.07-7.81-1.05-11.33,0-1.34,1.49-2.67,2.3-4,1.37,1.06,3.46,1.86,3.97,3.24,1.4,3.77,1.45,10.74,3.25,11.16,6.13,1.41,12.78.54,19.76.54-1.06-4.59-2.26-7.98-2.44-11.44-.08-1.44,1.74-3.65,3.21-4.25.93-.38,2.87,1.49,4.24,2.49.39.28.4,1.09.58,1.66q3.39,11.07,14.79,10.52c3.72-.19,7.43-.47,11.52-.74-.43-4.94-.82-9.39-1.21-13.84,4.81-2.03,6.76-.3,7.89,4.08,2.39,9.24,2.56,9.23,12.05,8.66,7.52-.45,15.03-1.12,22.56-1.44,5.09-.22,6.84-2.67,6.69-7.59-.23-7.33-.26-14.69.14-22.01.29-5.26-1.93-6.24-6.66-6.03-50.92,2.25-101.85,4.33-152.78,6.45-19.42.81-38.84,1.56-58.26,2.34-.96.04-1.92,0-3.19,0-.08-4.16,1.87-5.42,5.38-5.57,61.82-2.71,123.64-5.47,185.46-8.21,8.92-.39,17.83-.84,26.75-1.01,8.38-.16,8.99.4,8.98,8.5-.01,9.12.04,18.27-.69,27.34-.75,9.47-2.76,11.32-12.23,11.75-31.5,1.44-63.01,2.81-94.52,3.88-45.79,1.56-91.58,2.83-137.38,4.22-1.75.05-3.51,0-5.65,0,1.43-7.46,7.93-2.76,11.57-5.86ZM50.31,254.22c3.97,6.37-.33,173.84-4.79,201.67.17-66.84-.46-133.73,4.79-201.67ZM49.79,235.9c.66-.6,1.47-.7,1.84-.72,11.5.04,22.99.08,34.49.13.35,0,.83.04,1.27.32,1.62,1,1.81,4.35.44,5.24-.21.14-.71.38-1.66.16-11.41.12-22.82.25-34.24.37-.27-.01-1.59-.11-2.43-1.16-1.01-1.26-.86-3.28.29-4.32ZM137.4,607.23c24.55-18.98,49.1-37.97,73.66-56.95l1.13.9c-1.42,1.88-2.5,4.2-4.3,5.57-22.51,17.1-45.13,34.06-67.75,51.02-.53.4-1.39.36-2.73-.54ZM171.99,695.82c-.29,16.46-.38,32.93-.83,49.38-.09,3.18,1.21,8.33-3.74,8.59-5.84.32-5.69-4.72-5.64-9.04.2-17.06.33-34.12.51-51.18.02-1.55.24-3.1.4-5,9.3-1.36,9.46-1.17,9.31,7.24ZM842.3,603.57c6.4,4.29,5.84,8.89-1.31,11.34-7.64,2.63-15.5,5.07-23.46,6.24-38.42,5.63-76.71,2.19-114.94-2.56-2.5-.31-5-.57-7.66-.87,1.41,9.67,2.66,11.06,11.24,12.33,27.12,4.02,54.43,6.21,81.79,4.56,14.61-.88,29.23-2.69,43.68-5.16-16.45,4.64-37.25,8.79-61.46,9.76-28.12,1.12-51.85-2.42-69.26-6.36-.14.67-.33,1.06-.28,1.41.08.58.27,1.16.47,1.71,6.62,17.87,18.46,30.66,37.22,35.26,23.49,5.76,47.21,5.19,70.62-.53-1.09,1.08-1.85,1.92-2.27,2.35-14.37,15-61.54,5.19-65.48,4.33-16.49-3.56-23.19-8.14-25.12-9.49-7.45-5.22-13.52-12.4-18.07-21.45-4.51-8.97-7.93-18.49-12.02-28.16-4.61,0-9.94-.08-15.26.02-9.05.17-11.3,3.33-9.03,12.82,2.09,0,4.24,0,6.4,0,7.95.01,7.85.01,7.83,7.82-.07,32.73-.1,65.47-.09,98.2,0,2.3.35,4.6.54,7.06,1.91.19,3.3.17,4.61.5,2.72.68,7.6,1.36,7.68,2.35.27,3.54-.57,7.43-2.03,10.73-.81,1.82-3.53,3.09-5.65,3.99-6.94,2.94-14.07,5.43-20.97,8.45-2.07.9-3.63,2.96-5.42,4.5,2.35,1.57,3.71,1.94,5.04,1.86,15.05-.9,30.09-1.91,45.13-2.81,3.49-.21,4.88-1.95,4.84-5.32-.07-6.44-.02-12.88-.02-19.52,7.07,0,12.81.05,18.55,0,4.26-.04,8.51-.08,12.77-.12-1.09,11.61-4.36,26.65-13.96,40.65-23.35,34.07-67.32,37.42-184.37,41.22-183.07,5.94-219.95,2.41-266.27-19.1-33.21-15.42-57.52-33.7-72.3-46.11,27.95,1.1,55.88,2.79,83.81,4.22,1.68.09,3.37.01,5.5.01,0-3.15,0-5.51,0-7.87-.1-21.23-.24-42.46-.28-63.69-.01-5.92,1.99-7.71,6.98-5.65,1.6.66,3.01,3.82,3.06,5.87.48,22.02.65,44.04.95,66.07.03,2.23.42,4.45.75,7.75,2.68-1.53,4.48-2.29,5.97-3.44,17.57-13.56,35.07-27.19,52.64-40.75,2.23-1.72,4.71-3.13,7.68-5.08,3.64,9.39,4.61,17.9,4,26.71-.19,2.7-.35,5.77.7,8.12,2.85,6.39,18.33,13.4,26.83,11.83-1.83-2.7-3.04-5.36-5-7.25-7.83-7.6-10.2-16.52-9.82-27.44,1.2-34.49,1.47-69.02,2.02-103.53.05-3.02-.47-6.06-.72-9.08-.64-.38-1.28-.77-1.92-1.15-21.77,18.22-43.53,36.43-65.3,54.65-.54-.28-1.09-.56-1.63-.84.83-1.74,1.23-3.93,2.55-5.13,7.46-6.8,14.98-13.56,22.79-19.94,13.04-10.65,26.17-21.22,39.62-31.34,3.08-2.32,4.72-4.29,4.54-8.06-.53-11.09-1.21-22.19-1.26-33.28-.07-14.66.39-29.32.66-43.99.02-.86.37-1.72.56-2.58,5.77,16.96,9.12,34.16,9.89,51.82,1.76,40.43,3.48,80.87,5.28,121.3.1,2.23.72,4.43,1.09,6.55,6.3-.69,7.65-3.65,7.19-9.07-1.38-16.21-2.14-32.46-3.17-48.7-2.1-33.25-3.17-66.62-10.88-99.26-2.17-9.19-4.28-18.4-6.42-27.6,19.63,54.1,19.26,111.73,29.48,168.36,1.84-.82,2.94-1.21,3.95-1.76,5.35-2.94,9.39-5.24,12.36-7.47-5.75,6.66-11.6,13.24-17.08,20.11-.84,1.06-.34,3.83.39,5.41,5.81,12.55,10.6,25.26,8.22,39.48-.63,3.79,1.47,4.7,4.74,5.04,4.91.51,9.82,1.22,14.65,2.2,6.4,1.3,12.69,3.19,19.12,4.32,1.93.34,4.16-1,6.26-1.56-1.45-1.65-2.6-3.81-4.4-4.86-5.79-3.4-11.89-6.27-17.74-9.58-6.67-3.78-10.54-9.62-10.92-17.33-.55-10.86-.8-21.73-1.13-32.6-.1-3.47-.02-6.94-.02-10.41-.48-.24-.96-.49-1.44-.73,7.48-5.91,7.42-11.59,3.81-27.41-5.95-26.06-13.55-51.76-21.01-77.45-3.92-13.51-8.14-27.08-13.95-39.84-6.15-13.51-3.03-27.46-4.53-41.15-1.12-10.29-.89-20.73-1.22-30.19,8.39,13.25,12.54,31.29,29.1,40.72-.02-6.77.17-13.66-2.3-19.41-5.95-13.82-12.87-27.25-20.02-40.5-2.05-3.8-5.73-7.21-9.46-9.52-10.56-6.55-12.06-5.26-13.38,6.89-1.51,13.97-3.47,27.94-6.32,41.69-3.04,14.69-13.01,23.25-25.77,24.16-5.6.4-9.4-1.83-11.88-7,15.55,2.85,27.83-5.08,26.86-17.09-3.09,3.83-5.79,8.06-9.34,11.39-7.66,7.19-16.32,5.72-21.64-3.16-1.58-2.65-3.28-5.22-4.93-7.83.89,6.67,2.96,12.77,5.12,18.83,5.13,14.36,7.82,15.93,22.89,13.61.21-.03.48.36,1.33,1.04-4.95,1.94-9.44,3.7-13.92,5.46.12.46.24.92.36,1.38,8.17-1.53,16.34-3.07,25.22-4.74-2.52,7.9-4.8,15.03-7.08,22.17.5.19,1,.39,1.51.58,3.54-7.64,7.08-15.28,10.62-22.91.47.18.95.36,1.42.54-.11,1.94-.25,3.87-.33,5.81-.38,9.3-1.96,18.75-.83,27.87,1.61,12.98-2.79,20.98-15.71,22.35-7.12.75-11.21,3.78-12.63,11.02,6.26-2.15,12.25-4.71,18.49-6.21,7.32-1.76,12.94,3.41,12.69,10.92-.23,6.81-4.14,11.53-9.36,16.58.46-2.61.75-4.27,1.04-5.95-13.99,0-27.61-.26-41.21.09-9.6.25-18.24,4.13-26.37,7.77,10.93,5.08,21.67,9.84,32.15,15.13,2.51,1.27,6.03,4.56,5.77,6.48-.54,4.01-3.28,7.72-5.79,12.96-8.92-24.44-35.93-33.15-56.62-20.15,13.15,10.29,29.12,10.41,44.82,11.95-5.66,4.71-11.97,2.59-17.98,2.71,2.6,13.39-2.16,23.32-10.79,22.28-.14-1.33-.28-2.7-.59-5.62-.8,5.87-2.98,7.89-7.51,7.1-4.72-.83-2.9-4.25-3.06-6.97-.18-2.93-.5-5.85-.81-9.27,3.92-.23,7.53-.44,11.13-.65-.01-.11-.03-.22-.04-.33-7.22-.41-14.44-.83-22.04-1.26-2.14,9.59-8.08,14.4-18.14,14.11-8.01-.23-16.02-.05-24.03-.05v10.89c1.18-11.04,2.42-12.1,11.05-8.63-.56,3.19-1.12,6.4-1.76,10.05,2.25.2,3.79.42,5.33.47,17.84.61,35.69,1.1,53.53,1.87,3.27.14,8.69-1.58,8.16,4.68-.49,5.79-5.6,3.35-8.51,3.24-42.23-1.55-84.46-3.34-126.68-5.13-7.05-.3-14.09-.93-21.3-1.41-.16-2.72-.29-4.88-.41-7.04-.08-1.48.32-3.21-.31-4.4-3.1-5.92-6.89-11.51-9.63-17.58-3.13-6.91-1.85-9.9,4.96-13.52,4.12-2.19,8.54-3.83,13.44-5.98-2.3-2.74-3.97-5.23-6.13-7.17-3.08-2.76-3.56-5.47-.79-8.55,5.14-5.7,9.42-12.87,15.72-16.69,12.52-7.6,22.81-20.89,40.37-18.02-2.07-5.11-3.56-10.27,2.66-12.91,8.24-3.5,8.8-9.54,7.06-17.02-.92-3.98-1.17-8.11-1.86-13.21-3.14.98-6.18,1.3-8.47,2.77-6.17,3.95-12.16,8.21-17.96,12.69-18.38,14.18-36.52,28.67-55.05,42.64-3.01,2.27-7.58,3.59-11.39,3.52-17.61-.34-31.35-1.96-54.71-2.15-11.73-.1-23.45-.93-35.18-.88-4.68.02-13,.12-14.35-3.46-.71-1.88.77-4.06,1.56-5.19,7-10.03,19.55-24.33,22.87-28.1,4.48-.57,8.75-1.08,12.9-.6,6.46.75,12.67,3.66,19.93,5.91-3.46-100.97-5.7-201.01-4.35-301.1,2.58,99.79,5.16,199.57,7.74,299.36.87.2,1.75.4,2.62.61,1.1-1.24,2.15-2.52,3.3-3.71,2.98-3.08,5.59-6.76,9.09-9.05,7.58-4.96,10.92-11.35,10.27-20.47-1.66-23.15-3-46.32-4.31-69.49-3.99-70.69-7.91-141.39-11.87-212.09-.12-2.21-.34-4.4-.52-6.46.12-1.97.24-3.93.35-5.9,0-1.8.19-4.8.73-8.47,1.51-10.39,5.23-19.62,14.84-25.12,1.6-.91,4.65-.88,6.24.05,9.67,5.68,15.55,13.87,15.78,25.55.05,2.47-.92,6.09,3.58,6.1,10.87.03,21.75.01,32.81.01.77-4.48,1.27-8.2,2.06-11.86,2.58-11.99,8.81-17.88,20.87-20.33,1.27-.26,3.07-1.98,3.17-3.16.38-4.25.15-8.56.15-13.53-27.14.76-53.64,1.49-78.9,2.2-3.59-1.06-6.22-2.51-8.83-2.49-21.23.2-42.45.69-63.68,1.03-2.42.04-4.86-.34-7.29-.53-.22-.59-.44-1.17-.66-1.76,1.49-1.1,2.83-2.7,4.49-3.17,2.24-.63,4.72-.51,7.1-.48,25.48.34,50.97,1.26,76.44.98,32.93-.36,65.85-1.66,98.77-2.55,19.83-.53,39.67-1.13,59.5-1.49,4.32-.08,6-1.47,5.71-5.95-.32-4.93.32-9.92.13-14.87-.23-5.77,1.64-8.61,7.91-7.37,4.27.85,8.67.99,12.94,1.83,42.63,8.34,85.2,16.97,127.89,24.97,7.82,1.47,16.1.56,24.17.57,1.16,0,3.31-1.03,3.34-1.65.21-4.53.48-9.17-.4-13.55-.24-1.22-4.25-1.85-6.61-2.44-26.74-6.69-53.49-13.37-80.26-19.96-16.94-4.17-33.93-8.19-50.88-12.32-2.79-.68-6.16-1.09-3.85-6,14.94,3.71,29.69,7.58,44.53,11.02,32.83,7.59,65.72,14.91,98.53,22.6,1.8.42,3.98,2.99,4.38,4.9.88,4.23.52,8.7,1.14,13.01.23,1.58,1.75,4.21,2.73,4.24,11.41.3,22.83.19,34.59.19v-20.27h-29.5c3.48-11.59,6.7-22.36,10.04-33.49-1.63-.77-3.37-1.67-5.18-2.41-19.45-7.98-38.92-15.91-58.37-23.89-19.64-8.05-39.27-16.11-58.87-24.23-2.83-1.17-6.34-2.18-3.91-7.13,2.27.78,4.52,1.44,6.67,2.32,29.19,11.93,58.39,23.81,87.52,35.89,12.98,5.38,26.13,10.53,38.57,17.01,5.5,2.87,10.73,3.16,16.05,3.08-.28,2.28-.55,4.57-.83,6.85-4.84.01-9.67.03-14.48.4-1.71.13-4.45,1.73-4.72,3.07-1.06,5.18-1.31,10.53-1.97,16.92,3.53,0,5.87,0,8.21,0,32.33-.06,64.66-.07,96.99-.21,67.63-.29,135.25-.62,202.88-.89.04,11.4.07,22.8.11,34.2-8.03.06-16.07.13-24.1.19-2.52.02-5.04,0-8.19,0,.26,5.55.48,10.2.72,15.28,14.19.04,21.14,8.2,24.26,20.59.61,2.44.8,4.31,1.12,7.62.56,5.82.45,10.69.22,14.18-.02.18-.03.36-.03.54-1.81,57.08-3.7,114.17-5.23,171.26-.14,5.26,2.02,10.59,3.11,15.89.7-.14,1.4-.29,2.1-.43.81-58.05,1.23-116.11,5.2-174.21,1.61,1.73,2.39,3.58,2.38,5.42-.06,8.13-.34,16.26-.57,24.39-1.46,51.75-2.99,103.49-4.33,155.24-.18,6.91.59,13.85,1,20.77,1.2,19.99,2.54,39.97,3.61,59.97.36,6.75-1.06,12.82-7.23,17.25-1.84,1.32-2.99,5.07-2.77,7.57.78,8.89,1.58,17.13,3.7,30.7,1.12,7.16,1.06,9.8,1.38,11.28-4.41-.08-8.82-.08-13.25,0-1.66.03-3.3.66-6.07,1.26,11.54,7.77,22.83,10.13,35.35,7.59,13.49-2.74,26.06.32,37.33,7.89ZM309.85,664.04c.57-5.04,1.11-9.81,1.78-15.81,1.86,1.43,3.95,2.25,4.02,3.23.4,5.02-.43,9.75-5.81,12.58ZM377.32,509.87c1.59-3.78,3.97-7.44,4.62-11.38,1.45-8.76,1.76-17.71,3.06-26.5,1.61-10.89,3.75-21.7,6.67-32.6.26,1.37.68,2.72.75,4.1.77,14.44,1.68,28.88,2.12,43.33.2,6.62-2.13,12.54-7.7,17.72,1.72-6.47,3.21-12.06,4.69-17.64-3.49,8.52-6.58,16.95-14.22,22.97ZM284.94,665.96c-9.14-1.46-9.89-2.73-8.81-14.14,2.33-.18,4.77-.36,7.94-.6.3,5.01.57,9.6.88,14.75ZM256.9,666.62c-1.27,1.37-2.45,2.85-3.84,4.08-1.49,1.33-3.19,2.43-4.79,3.63-.56-2.3-1.18-4.58-1.62-6.9-.08-.44.5-1.01.64-1.27,5.41-.79,10.61-1.55,17.19-2.52-2.49,3.69-4.53,6.7-6.56,9.7l-.97-.57c.42-1.76.84-3.52,1.26-5.28l-1.3-.88Z"/>
      <path class="cls-1" d="M561.72,761.27c.68-5.43,1.48-10.85,2.27-16.55-8-1.16-15.28-2.22-23.44-3.41,1.51,8.36,2.81,15.93,4.25,23.48,4,20.99,2.24,24.32-17.63,32.85-1.45.62-3.01,1.03-4.4,1.77-1.67.89-3.21,2.02-4.81,3.05.12.7.25,1.41.37,2.11,2.14.14,4.31.56,6.43.39,11-.91,21.98-2.27,32.99-2.85,6.83-.36,8.42-1.28,5.75-7.53-4.72-11.04-3.19-22.11-1.79-33.31Z"/>
    </g>
  </g>
</svg>