<?xml version="1.0" encoding="UTF-8"?>
<svg id="Layer_1" data-name="Layer 1" xmlns="http://www.w3.org/2000/svg" viewBox="0 0 813.34 719.57">
  <defs>
    <style>
      .cls-1 {
        fill: #000;
      }

      .cls-1, .cls-2 {
        stroke-width: 0px;
      }

      .cls-2 {
        fill: #fff;
      }
    </style>
  </defs>
  <path class="cls-2" d="M811.77,495.56c-.89-4.8-2.55-7.96-3.51-12.49-2.31-10.85-6.8-19.46-18.46-23.23-6.47-2.09-7.24-9.35-3.8-15.33,2.38-4.13,3.76-9.12,4.41-13.88.59-4.34-1.95-7.18-6.94-7.05-1.3.03-2.72-.76-3.92-1.46-4.61-2.67-14.39-.65-17.35,4.73-1.43,2.61-1.41,6.31-1.41,6.94,0,1.35.72,2.23.34,3.59-.34,1.22-.98,1.36-2.51,3.28-.75.94-3.07,3.86-2.29,5.08.16.24.5.47,1.17.91.68.45.93.51,1.2.69.89.59.66,2.17.86,3.46.28,1.76,1.45,3.41,2.68,4.26,2.64,1.82,7.09,1.04,8.02.62.06-.03.26-.12.48-.08.73.14,1.01,1.57,1.06,1.83.05.27.31,1.6-.2,2.38-.86,1.32-3.52.85-6.91.4-7.44-1-12.82,2.02-14.58,9.28-1.15,4.72-1.34,9.68-1.96,14.54.52.09,1.04.19,1.57.28.84-4.13,1.37-8.37,2.63-12.37,1.01-3.21,2.55-6.41,4.54-9.1.9-1.22,4.38-2.19,5.07-1.54,1.29,1.2,2.09,3.76,1.86,5.6-.55,4.44-1.68,8.83-2.86,13.17-.41,1.5-1.37,3.56-2.58,4-5.71,2.1-7.88,7.31-11.19,11.59-2.41,3.12-5.47,5.74-8.24,8.59-.02.03-.05.08-.07.11-7.57-1.15-15.12-2.28-22.67-3.41.04-.41.08-.83.13-1.24h24.94c-1.64-1.51-3.41-2.64-5.23-2.73-5.49-.28-11.02.14-16.48-.3-3.8-.3-7.53-1.57-12.62-2.7,12.85-6.68,25.42-5.71,36.99-7.01,0-10.33.11-19.98-.02-29.62-.9-71.48-1.62-142.97-2.98-214.44-.28-14.69-.21-29.18,2.36-43.66,1.92-10.86,6.11-15.71,16.84-18.16,3.45-.79,6.23-2.18,5.98-6.04-.71-11.1,3.05-22.67-3.44-33.21-.75-1.21-.86-2.86-1.1-4.34-1.58-9.64-1.13-10.15,8.56-10.21,6.84-.04,7.17-.19,7.18-6.86,0-3.36.95-4.86,4.5-4.7,4.31.19,8-1.16,9.43-5.76,2.23-7.19,2.46-12.23-6.73-15.05-21.78-6.68-43.27-14.37-65.24-20.3-30.69-8.28-61.71-15.35-92.6-22.89-67.97-16.58-135.99-32.99-203.9-49.84-5.67-1.41-11.06-2.07-16.54-1.86-5.66.21-9.83,1.28-10.85,1.53C238.46,39.48,179.01,59.6,60.1,99.85c-1.15.39-5.09,1.71-6.77,5.08-.69,1.38-.98,2.96-.85,4.69.35,4.7,3.21,6.9,9.07,8.28,1.98.47,4.8,2.59,5.03,4.27.58,4.19,3.05,4.6,6.21,4.68,1.83.05,3.67.18,5.5.06,3.58-.23,5.09,1.17,4.99,4.92-.25,9.16.36,18.38-.44,27.48-.73,8.26.71,14.67,7.84,19.87,4.98,3.64,6.97,8.9,6.92,15.88-.43,54.98-.23,109.96-.27,164.94,0,4.16-.3,8.32-.54,12.48-.1,1.8-.46,3.35-1.29,4.69-1.06,1.7-2.49,2.48-3.26,2.97-3.69,2.37-6.75,7.32-7.03,10.94-.39,5.19,5.09,5.58,5.67,11.84.43,4.65-3.03,7.66-6.57,13.84-1.12,1.96-3.48,3.55-5.73.97-3.12-3.58-6.7-4.38-11.19-2.96-1.09.35-1.34-.2-4.87-.57-2.37-.25-3.08-.28-3.76.14-.18.11-.33.24-.47.38-5.02-1.6-10.04-3.2-15.06-4.79,1.04-3.06,2.95-4.72,7.06-4.57,1.88.07,4-1.41,4.68-3.14,1.03-2.62-2.29-5.34-1.08-7.09.8-1.17,2.66-.5,3.13-1.66.19-.47-.07-.69-1.6-4.15-.4-.9-.57-1.32-1.02-1.79-.79-.82-1.29-.63-1.85-1.34-.54-.69-.21-1.04-.7-2.68-.43-1.42-.97-2.15-.7-2.41.23-.21.68.25,1.09.11.96-.34,1.25-3.98-.26-6.71-1.25-2.28-3.38-3.25-4.8-3.89-4.69-2.14-9.24-1.02-11.87-.74-6.15.66-10.29,4.43-12.22,10.37-1.74,5.37.17,9.87,3.84,13.68,1.44,1.5,3.44,2.47,5.31,3.77-1.15,5.57-4.45,9.15-9.92,10.69-2.24.63-4.56.99-6.82,1.56-7.86,1.95-11.69,6.26-12.32,14.3-.25,3.13-.25,6.39.33,9.46,1.95,10.42,1.16,20.55-2.21,30.56-2.35,6.98-1.53,13.75,3.15,19.37,5.11,6.13,5.91,13.18,5.85,20.56-.04,4.45,1.27,6.55,1.87,10.95,1.12,8.12,4.05,21.41,11.88,44.26-.92,1.6-2.47,4.16-4.68,7.14-2.86,3.85-4.5,5.29-4.24,7.32.1.83.62,2.48,3.67,4.22-.25.77-.38,1.56-.32,2.16.9,8.27,2.07,16.51,3.44,24.72,1.51,9.03,2.4,13.58.48,16.87-1.71,2.94-4.51,4.67-4.31,7.96.18,2.96,2.62,4.98,3.05,5.33,2.42,2,5.88,2.05,12.71,2.05,3.78,0,7.71,0,12.1,0,1.05,9.07.98,9.18-6.67,9.22-4.17.02-8.33-.02-12.5-.03-4.04,0-8.08,0-12.13,0-.33.63-.67,1.26-1,1.89,3.51,4.28,6.99,8.58,10.56,12.81-1.48,3.58-2.96,7.15-4.43,10.73.72,7.11,4.27,14.97-6.64,17.23-1.7,3.28-3.39,6.57-5.09,9.85-.97,0-1.95,0-2.91,0-.61,7.09,3.16,14.27,9.83,16.08,7.76,2.11,15.95,3.61,23.97,3.67,68.48.56,136.97.8,205.45.91,7.07.01,14.13-1.59,21.21-2.28,2.45-.24,4.96-.09,7.43.11,3.63.31,7.24,1.18,10.86,1.21,57.14.4,114.28.9,171.42.97,90.64.11,181.29-.08,271.93-.17,11.16-.01,22.33.04,33.47-.48,8.99-.42,14.93-6.31,16.78-15.1.7-3.34.32-5.11-2.58-5.57,2.01-4.2,4.03-8.39,6.04-12.59,1.33.34,3.87.78,6.64-.23.17-.06,1.11-.4,1.79-.86,3.78-2.56,2.35-10.77,2.25-11.29-.71-.03-1.41-.07-2.1-.1l1.93-6.76c-2.99-8.33-4.77-15.46-5.85-20.64-5.67-27.07-1.05-41.42,1.06-44.98.15-.25,1.06-1.65,2.07-3.69,1.26-2.55,3.28-5.08,3.48-7.74.8-10.89,1.06-21.83,1.46-32.75.01-.4-.23-1.48-.51-2.94-1.71-9.1-4.22-16.14-6.15-20.77,3.45-1.13,8.49-3.19,13.79-6.99,5.01-3.6,9.25-6.62,11.37-12.07,2.02-5.17,1.09-10.14-.41-18.25Z"/>
  <g>
    <path class="cls-1" d="M154.33,636.43c38.35,9.7,76.41,7.01,114.9,1.27.05.96.36,2.28.14,3.5-4.2,22.61-11.09,44.04-28.87,60-3.49,3.13-8.53,6.03-13.01,6.28-11.38.63-22.86,0-34.26-.82-3.14-.23-6.54-2.43-9.08-4.6-15.46-13.2-22.06-31.24-26.68-50.25-1.24-5.13-2.13-10.34-3.16-15.37ZM175.05,645.16c3.38,18.18,6.64,35.96,17.6,51.71.25-.98.49-1.36.39-1.59-6.66-14.91-9.78-30.71-11.84-46.77-.44-3.41-2.35-4.45-6.14-3.35Z"/>
    <g>
      <path class="cls-1" d="M484.42,580.67s-.14.04-.14.04c.02.22.05.43.08.64.02-.23.03-.45.06-.68Z"/>
      <path class="cls-1" d="M32.5,452.84l-.09-.08c0,.07.01.15.02.22.03-.05.05-.1.08-.14Z"/>
      <path class="cls-1" d="M169.55,425.04s0,0,0,0c-.29.69-.54,1.37-.76,2.04.27-.68.54-1.36.77-2.04Z"/>
      <path class="cls-1" d="M811.77,495.56c-.89-4.8-2.55-7.96-3.51-12.49-2.31-10.85-6.8-19.46-18.46-23.23-6.47-2.09-7.24-9.35-3.8-15.33,2.38-4.13,3.76-9.12,4.41-13.88.59-4.34-1.95-7.18-6.94-7.05-1.3.03-2.72-.76-3.92-1.46-4.61-2.67-14.39-.65-17.35,4.73-1.43,2.61-1.41,6.31-1.41,6.94,0,1.35.72,2.23.34,3.59-.34,1.22-.98,1.36-2.51,3.28-.75.94-3.07,3.86-2.29,5.08.16.24.5.47,1.17.91.68.45.93.51,1.2.69.89.59.66,2.17.86,3.46.28,1.76,1.45,3.41,2.68,4.26,2.64,1.82,7.09,1.04,8.02.62.06-.03.26-.12.48-.08.73.14,1.01,1.57,1.06,1.83.05.27.31,1.6-.2,2.38-.86,1.32-3.52.85-6.91.4-7.44-1-12.82,2.02-14.58,9.28-1.15,4.72-1.34,9.68-1.96,14.54.52.09,1.04.19,1.57.28.84-4.13,1.37-8.37,2.63-12.37,1.01-3.21,2.55-6.41,4.54-9.1.9-1.22,4.38-2.19,5.07-1.54,1.29,1.2,2.09,3.76,1.86,5.6-.55,4.44-1.68,8.83-2.86,13.17-.41,1.5-1.37,3.56-2.58,4-5.71,2.1-7.88,7.31-11.19,11.59-2.41,3.12-5.47,5.74-8.24,8.59-.02.03-.05.08-.07.11-7.57-1.15-15.12-2.28-22.67-3.41.04-.41.08-.83.13-1.24h24.94c-1.64-1.51-3.41-2.64-5.23-2.73-5.49-.28-11.02.14-16.48-.3-3.8-.3-7.53-1.57-12.62-2.7,12.85-6.68,25.42-5.71,36.99-7.01,0-10.33.11-19.98-.02-29.62-.9-71.48-1.62-142.97-2.98-214.44-.28-14.69-.21-29.18,2.36-43.66,1.92-10.86,6.11-15.71,16.84-18.16,3.45-.79,6.23-2.18,5.98-6.04-.71-11.1,3.05-22.67-3.44-33.21-.75-1.21-.86-2.86-1.1-4.34-1.58-9.64-1.13-10.15,8.56-10.21,6.84-.04,7.17-.19,7.18-6.86,0-3.36.95-4.86,4.5-4.7,4.31.19,8-1.16,9.43-5.76,2.23-7.19,2.46-12.23-6.73-15.05-21.78-6.68-43.27-14.37-65.24-20.3-30.69-8.28-61.71-15.35-92.6-22.89-67.97-16.58-135.99-32.99-203.9-49.84-5.67-1.41-11.06-2.07-16.54-1.86-5.66.21-9.83,1.28-10.85,1.53C238.46,39.48,179.01,59.6,60.1,99.85c-1.15.39-5.09,1.71-6.77,5.08-.69,1.38-.98,2.96-.85,4.69.35,4.7,3.21,6.9,9.07,8.28,1.98.47,4.8,2.59,5.03,4.27.58,4.19,3.05,4.6,6.21,4.68,1.83.05,3.67.18,5.5.06,3.58-.23,5.09,1.17,4.99,4.92-.25,9.16.36,18.38-.44,27.48-.73,8.26.71,14.67,7.84,19.87,4.98,3.64,6.97,8.9,6.92,15.88-.43,54.98-.23,109.96-.27,164.94,0,4.16-.3,8.32-.54,12.48-.1,1.8-.46,3.35-1.29,4.69-1.06,1.7-2.49,2.48-3.26,2.97-3.69,2.37-6.75,7.32-7.03,10.94-.39,5.19,5.09,5.58,5.67,11.84.43,4.65-3.03,7.66-6.57,13.84-1.12,1.96-3.48,3.55-5.73.97-3.12-3.58-6.7-4.38-11.19-2.96-1.09.35-1.34-.2-4.87-.57-2.37-.25-3.08-.28-3.76.14-.18.11-.33.24-.47.38-5.02-1.6-10.04-3.2-15.06-4.79,1.04-3.06,2.95-4.72,7.06-4.57,1.88.07,4-1.41,4.68-3.14,1.03-2.62-2.29-5.34-1.08-7.09.8-1.17,2.66-.5,3.13-1.66.19-.47-.07-.69-1.6-4.15-.4-.9-.57-1.32-1.02-1.79-.79-.82-1.29-.63-1.85-1.34-.54-.69-.21-1.04-.7-2.68-.43-1.42-.97-2.15-.7-2.41.23-.21.68.25,1.09.11.96-.34,1.25-3.98-.26-6.71-1.25-2.28-3.38-3.25-4.8-3.89-4.69-2.14-9.24-1.02-11.87-.74-6.15.66-10.29,4.43-12.22,10.37-1.74,5.37.17,9.87,3.84,13.68,1.44,1.5,3.44,2.47,5.31,3.77-1.15,5.57-4.45,9.15-9.92,10.69-2.24.63-4.56.99-6.82,1.56-7.86,1.95-11.69,6.26-12.32,14.3-.25,3.13-.25,6.39.33,9.46,1.95,10.42,1.16,20.55-2.21,30.56-2.35,6.98-1.53,13.75,3.15,19.37,5.11,6.13,5.91,13.18,5.85,20.56-.04,4.45,1.27,6.55,1.87,10.95,1.12,8.12,4.05,21.41,11.88,44.26-.92,1.6-2.47,4.16-4.68,7.14-2.86,3.85-4.5,5.29-4.24,7.32.1.83.62,2.48,3.67,4.22-.25.77-.38,1.56-.32,2.16.9,8.27,2.07,16.51,3.44,24.72,1.51,9.03,2.4,13.58.48,16.87-1.71,2.94-4.51,4.67-4.31,7.96.18,2.96,2.62,4.98,3.05,5.33,2.42,2,5.88,2.05,12.71,2.05,3.78,0,7.71,0,12.1,0,1.05,9.07.98,9.18-6.67,9.22-4.17.02-8.33-.02-12.5-.03-4.04,0-8.08,0-12.13,0-.33.63-.67,1.26-1,1.89,3.51,4.28,6.99,8.58,10.56,12.81-1.48,3.58-2.96,7.15-4.43,10.73.72,7.11,4.27,14.97-6.64,17.23-1.7,3.28-3.39,6.57-5.09,9.85-.97,0-1.95,0-2.91,0-.61,7.09,3.16,14.27,9.83,16.08,7.76,2.11,15.95,3.61,23.97,3.67,68.48.56,136.97.8,205.45.91,7.07.01,14.13-1.59,21.21-2.28,2.45-.24,4.96-.09,7.43.11,3.63.31,7.24,1.18,10.86,1.21,57.14.4,114.28.9,171.42.97,90.64.11,181.29-.08,271.93-.17,11.16-.01,22.33.04,33.47-.48,8.99-.42,14.93-6.31,16.78-15.1.7-3.34.32-5.11-2.58-5.57,2.01-4.2,4.03-8.39,6.04-12.59,1.33.34,3.87.78,6.64-.23.17-.06,1.11-.4,1.79-.86,3.78-2.56,2.35-10.77,2.25-11.29-.71-.03-1.41-.07-2.1-.1l1.93-6.76c-2.99-8.33-4.77-15.46-5.85-20.64-5.67-27.07-1.05-41.42,1.06-44.98.15-.25,1.06-1.65,2.07-3.69,1.26-2.55,3.28-5.08,3.48-7.74.8-10.89,1.06-21.83,1.46-32.75.01-.4-.23-1.48-.51-2.94-1.71-9.1-4.22-16.14-6.15-20.77,3.45-1.13,8.49-3.19,13.79-6.99,5.01-3.6,9.25-6.62,11.37-12.07,2.02-5.17,1.09-10.14-.41-18.25ZM780.89,530.26c3.95,16.39-7.91,50.05-23.02,49.12,1.31-3.57,2.24-7.03,3.81-10.16,1.4-2.8,3.4-5.33,5.33-7.82,5.47-7.06,9.73-14.64,11.33-23.57.43-2.38,1.54-4.65,2.54-7.57ZM757.89,512.4c2.52,6.72,10.19,3.04,15.37,6.94-4.97.22-9.94.44-15.75.7,4.83.66,8.92,1.22,13.14,1.8-.45.88-.78,1.52-1.31,2.54,1.72-.41,3.12-.74,4.51-1.07,1.38,1.81-9.67,6.77-16.74,7.58-.32.04-.64.14-.96.21.12.48.24.96.37,1.44,3.27-.83,6.65-1.39,9.79-2.57,3.5-1.31,6.79-3.18,10.16-4.81.38.33.77.67,1.15,1-4.91,6.63-9.82,13.26-14.62,19.75,4.99-.89,10.9-7.3,16.29-17.6-2.91,20.5-13.97,35.93-33.47,44.8-4.57,2.08-9.86,2.78-14.91,3.52-3.74.54-6.68-1.37-8.47-5.82,12.6.24,23.82-2.1,29.86-15.48-11.77-.65-23.21-1.28-34.81-1.92,2.67-4.58,26.72-4.51,35.16-.48-.39-5.03-.95-10.31-1.15-15.61-.2-5.2-.04-10.41-.04-15.5-17.52,10.32-37.11,15.14-59.03,12.25,1.4-17.78,2.8-35.59,4.2-53.4.44-.01.87-.02,1.31-.03-1.1,16.37-2.19,32.74-3.33,49.73,4.98-.53,9.36-.99,14.44-1.52-6.09-8.02-8.64-16.45-9.39-26.15,11.46,3.14,22.09,6.05,32.81,8.98-3.27,2.61-7,5.29-10.36,8.38-2.51,2.3-4.37,5.31-6.83,7.67-2.1,2.01-4.65,3.55-7.81,4.5,1.59.18,3.17.43,4.77.52,5.16.27,10.33.63,14.19-3.95.61-.73,1.64-1.13,2.53-1.59,9.68-4.97,19.38-9.92,28.95-14.81ZM755.69,626.69c.22,2.59.98,4.87.4,6.73-.43,1.38-2.61,2.21-4.01,3.28-.4-1.22-1.4-2.62-1.08-3.61.76-2.39-.31-6.29,4.69-6.4ZM748.05,606.21c-.54,10.97-.84,21.97-1.84,32.9-.64,6.98-4,9.37-11.52,9.36.45-3.29.67-6.59,1.38-9.77,2.26-10.07,4.62-20.12,7.15-30.12.42-1.67,1.88-3.08,3.53-5.66.88,2.18,1.33,2.75,1.31,3.3ZM650.16,639.7c-.23-3.89,1.47-4.73,4.74-4.72,17.81.04,35.64.14,53.44-.33,6.17-.16,12.29-1.92,18.37-3.73-17.65-6.4-36.64-2.77-54.35-7.52-.02-.45-.05-.9-.07-1.35,1.03-.46,2.07-.91,3.1-1.37-.31-7.24-5.09-7.19-11.2-5.45-2.61.75-4.77,3.33-6.94,5.31-1.27,1.16-2.14,2.76-3.75,4.9,1.01-9.64,13.07-16.95,20.39-13.18,1.4.72,2.87,2.71,2.99,4.22.31,4.21,2.72,4.5,6.07,4.53,10.66.11,21.33.33,31.98.79,4.63.2,9.26.91,13.83,1.73,1.97.36,3.52,1.07,4.44,2.35,1.18,1.63.96,3.63.86,4.58-1.54,14.91-.51,15.49-3.02,24.67-.37,1.37-.92,3.26-1.65,5.5,1.92-7.95,3.19-16.65,3.35-26.01.02-.94.02-1.88.01-2.81-26.82,11.12-54.8,7.09-82.64,7.89ZM653.51,603.77c11.47-3.02,23.36-2.38,35.03-3.65-11.41,3.69-23.12,4.6-35.03,3.65ZM713.05,502.7c6.88.93,13.76,1.98,20.66,2.72,1.66.18,3.42-.57,5.12-.97-.78,1.24-1.64,3.32-2.28,3.25-7.95-.87-15.86-2.1-23.78-3.23.09-.59.18-1.18.27-1.76ZM710.41,499.73c-4.64,1.13-7.93.64-10.65-2.91,4.61-2.23,4.71-2.2,10.65,2.91ZM716.75,488.31c-4.9.69-9.7,2.13-15.21,3.39-.59-6.99-1.12-13.41-1.62-19.37-4.79,3.44-8.88,6.96-13.49,9.57-15.95,9.02-32.08,17.72-48.14,26.54-5.51,3.03-11.31,4.61-17.7,4.34-16.45-.71-32.91-1.21-49.36-1.79-.4-.5-.81-.99-1.21-1.49,1.31-1.88,2.2-4.4,3.98-5.55,14.66-9.49,29.39-18.89,44.32-27.96,5.13-3.12,7.14-6.87,7.19-12.93.42-47.82.89-95.65,1.91-143.47.71-32.98,2.33-65.95,3.56-98.92.06-1.63.31-3.25.51-5.25h13.89c-.54,81.93-1.07,163.71-1.61,245.49.71.05,1.42.11,2.13.16.2-1.63.57-3.27.57-4.9.16-76.33.3-152.65.42-228.98,0-2.5-.21-4.99-.28-7.49-.07-2.52-.49-5,3.56-4.96,3.93.03,3.64,2.4,3.66,4.97.3,33.5.62,66.99.93,100.49.41,44.33.81,88.66,1.22,132.98.03,2.8,0,5.61,0,9.16h-11.58c17.7,3.36,35.96.64,53.95,6.63.27-3.89.67-7.77.8-11.67,2.6-79.11,5.17-158.23,7.82-237.34.06-1.75.79-4.71,1.75-4.96,2.46-.63,5.3-.34,7.82.28.65.16.94,2.92.92,4.48-.43,28.83-.91,57.65-1.43,86.48-.86,48.15-1.74,96.31-2.65,144.46-.18,9.66-.58,19.32-.8,28.98-.04,1.92.26,3.84.4,5.77.67-.01,1.34-.02,2-.04,1.33-89.87,2.66-179.74,3.98-269.63,5.93-.81,6.2-.65,6.13,5.21-.99,86.98-2.03,173.97-2.91,260.96-.04,4.22-1.37,5.8-5.44,6.38ZM555.95,487.58c2.87-.26,5.74-.69,8.61-.7.85,0,1.7,1.16,2.56,1.78-.63.85-1.09,2.01-1.93,2.49-5,2.87-8.74,1.64-9.24-3.58ZM558.41,502.21c-4.12.33-7.81.62-11.5.92-.16-.38-.32-.75-.48-1.13,1.59-.89,3.09-1.99,4.78-2.61,1.51-.55,3.21-.58,5.56-.96.42.97.9,2.06,1.64,3.77ZM572.26,494.54c.3.53.59,1.07.89,1.6-2.44,1.71-3.52,5.96-9.56,3.44,3.56-2.07,6.12-3.56,8.67-5.04ZM572.78,490.86c4.81-5.57,10.11-2.48,15.13-2.32-1.37,4.68-4.81,5.23-15.13,2.32ZM607.58,376.41c-5.97,6.68-11.58,13.47-21.7,8.34,4.17,6.55,10.33,8.87,17.51,9.37-.13.48-.26.95-.38,1.43-1.77-.25-3.54-.46-5.3-.76-1.93-.34-3.85-.78-5.77-1.17-.22.42-.44.84-.66,1.26,4.44,2.57,8.87,5.14,13.31,7.71l-.52,1.62c-5.66-1.53-11.31-3.05-16.97-4.58-2.04-.5,2.44,5.27-2.79,2.89,3.06,2.16,6.07,4.39,9.21,6.44,1.83,1.2,3.85,2.1,5.97,3.23-6.37,7.18-18.46,11.59-26.34,10.38,0-7.53-.13-14.97.07-22.41.07-2.6,1.21-4.73,4.5-2.86-1.49-3.48-4.7-6.28-2.4-11.02.77-1.59-1.92-4.71-2.7-7.24-2.3-7.45-.66-11.87,5.95-16.1,2.64-1.69,5.47-3.09,8.19-4.61-1-2.2-2.02-4.12-2.76-6.13-.68-1.86-1.48-3.97-2.42-3.94-.11,0-.18.03-.98.57-1.57,1.04-1.58,1.1-1.78,1.15-1.16.31-2.54-1.19-3.21-1.93-1.52-1.66-1.79-3.07-2.75-3.08-.15,0-.17.03-1.49.19-.72.09-.78.09-.87.05-.83-.36-.67-2.44-.63-2.98.04-.47.07-.87.24-1.4.27-.83.59-1.02.64-1.69.01-.18.05-.73-.25-1.23-.36-.58-.84-.52-1.35-1.08-.26-.28-.37-.55-.63-1.35-.59-1.87-.89-2.8-.72-3.13.14-.27.55-.76,4.01-.75,3.49.01,5.21.47,5.35.57,2.1,1.57,1.5,5.01,3.2,5.39.73.16,1.18-.39,1.83-.04.99.54.59,2.17,1.15,2.35.83.26,3.55-2.82,2.84-5.35-.45-1.61-2.16-2.47-4.1-3.21-3.1-1.19-8.29-2.67-15.83-2.69.4-1.01,1.21-2.53,2.79-3.36,1.39-.73,2.63-.53,5.84.04,8.4,1.5,9.39,1.85,10.62,2.54,1.55.87,3.2,1.82,4.23,3.74.92,1.72,1.09,3.14.83,5.39-.93,8.11,2.6,13.8,10.3,16.8,2.01.78,3.95,1.77,5.93,2.63,7,3.05,11.73,8.09,13.51,15.62,3.34,14.18,4.69,28.57,3.89,43.11-.09,1.59-1.98,3.83-3.55,4.43-3.7,1.41-7.68,2.68-11.59,2.83-12.05.46-20.33,7.14-28.02,15.41-2.12,2.28-5.07,4.44-8,5.16-3.72.9-4.48-1.05-2.97-4.7.86-2.07.89-4.51,1.15-6.79.27-2.45.37-4.91.58-7.95,9.08,2.86,16.09-1.5,23.39-5.11,8.34-4.11,16.85-7.86,25.61-11.92-8.63-8.32-9.78-19.35-13.2-30.12ZM591.64,327.44c-6.91-.89-13.66-3-20.46-4.58,1.42-5.41,6.32-7.36,19.88-6.68,0-3.73,1.66-5.81,6.46-4.98-.99,2.13-1.84,3.95-2.73,5.85,3.64,3.4,8.92,5.99,7.45,12.31-.83,3.55-3.41,5.47-7.29,5.54.81-3.41,2.73-6.68-3.31-7.46ZM660.43,207.98h-29.98s-.1-.42.07-.59c1.66-1.6,4.8-3.16,4.79-4.72-.03-4.01-.79-8.31-2.5-11.91-1.62-3.42-4.81-6.09-7.46-9.28h48.22c.07.33.15.66.22.98-1.5.78-2.99,1.57-4.49,2.35l-.71.78c-5.74,6.08-8.47,13.22-8.16,22.39ZM628.46,210.94c12.95-2.16,25.87-1.59,38.79.33,0,.54,0,1.07,0,1.6h-38.79c0-.65,0-1.29,0-1.94ZM657.16,216.07c.54-.03,1.09-.06,1.63-.09.19,1.66.51,3.32.55,4.99,1.71,66.92,3.4,133.84,5.1,200.76.3,11.99.75,23.97.87,35.96.02,1.63-1.46,3.27-2.25,4.91-.75-1.56-2.14-3.12-2.17-4.7-.63-32.47-1.11-64.94-1.61-97.4-.71-46.29-1.42-92.57-2.12-138.86-.03-1.85,0-3.71,0-5.56ZM664.12,218.96c.3.03.59.06.89.09,3.07,80.54,6.14,161.09,9.2,241.63-.4.02-.8.03-1.2.05-2.96-80.59-5.93-161.18-8.89-241.76ZM625.2,178.47c-2.87-.06-8.15,1.4-7-5.39h63.2c.61,3.53.37,5.84-3.85,5.8-17.45-.16-34.9-.06-52.34-.41ZM585.18,437.35c1.77-4.89,10.15-9.86,15.75-9.31,2.17.21,5.49-1.1,5.72,2.89.19,3.32-3.71,7.34-6.9,7.28-.93-.02-1.86-.33-2.94-.53,4.26,11.66,9.08,15.52,13.48,10.54-1.87,3.38-3.74,6.77-6.25,11.3-4.7-4.1-8.88-7.73-13.03-11.38-1.27-1.12-2.49-2.31-3.73-3.47-.55-1.35-1.2-2.66-1.62-4.04-.33-1.05-.81-2.35-.48-3.27ZM724.92,486.28c.69-89.41,1.38-178.91,2.07-268.41.45-.02.91-.05,1.36-.07.19,2.66.54,5.31.54,7.97-.06,44.96-.31,89.91-.22,134.87.08,40.46.53,80.92.78,121.38.01,2.4.96,5.86-4.52,4.26ZM704.15,213.11c3.46-3.65,16.86-3.95,27.65,0h-27.65ZM733.95,400.3c-.06,0-.12,0-.19,0v-32.19c.06,0,.12,0,.19,0v32.19ZM735.11,483.5c-.12,0-.24,0-.36,0v-68.2c.12-.03.24-.06.36-.09v68.29ZM740.31,185.97c-2.64,3.71-5.29,7.43-7.93,11.14.59,3.3-3.44,7.85,2.65,10.08-9.6.5-19.19,1-29.54,1.54,4.99-3.81,4.9-8.83,3.39-14.01-1.51-5.18-3.89-9.8-10.16-12.4h45.36c.04.35.09.7.13,1.05-1.3.87-2.59,1.74-3.89,2.61ZM759.39,178.63h-67.46v-5.11h67.46v5.11ZM105.69,87.58c2.37-.71,6.04-1.76,11.91-3.6,8.27-2.6,14.28-4.7,15.56-5.14,7.2-2.49,24-7.68,63.63-19,37.63-9.23,38.27-10.48,103.07-26.57,7.18-1.78,5.94-1.46,7.27-1.8,32.78-8.3,65.61-16.39,98.44-24.45,2.16-.53,4.7-.41,6.87.13,33.94,8.47,67.79,17.27,101.77,25.58,61.31,14.99,122.72,29.57,184.02,44.59,19.68,4.82,39.19,10.33,58.69,15.86,8.32,2.36,16.41,5.53,24.53,8.54,1.04.38,1.63,1.97,2.42,3-.98.26-2.08.96-2.91.71-10.69-3.17-21.31-6.58-32-9.73-9.72-2.86-19.45-5.73-29.29-8.13-9.01-2.2-18.24-3.52-27.27-5.69-35.3-8.49-70.57-17.14-105.84-25.77-85.17-20.84-153.06-35.39-165.44-40.81-.93-.41-4.61-2.1-9.76-2.65-6.73-.71-11.99.96-13.71,1.5-12.9,4-26.57,5.24-39.39,9.47-17.02,5.62-20.73,4.92-59.11,13.86-82.65,19.24-182,49.63-190.07,52.1-7.49,2.3-33.73,10.39-33.93,9.78-.21-.65,15.31-7.24,30.52-11.78ZM66.04,111.2c-.32-.03-1.07-.61-1.89-1.22-1.23-.91-1.84-1.37-1.83-1.96,0-.48.52-.91,1.55-1.74.87-.71,1.6-1.21,1.69-1.23,50.74-13.98,101.35-28.45,152.31-41.57,58.87-15.16,118.11-28.9,177.04-43.83,9.97-2.52,19.08-2.24,28.8.15,74.87,18.41,149.8,36.62,224.72,54.85,43.64,10.62,87.29,21.19,130.94,31.8,1.01.25,1.97.73,2.95,1.11.01.39.03.79.04,1.18-2.61.62-5.21,1.67-7.84,1.78-27.78,1.12-55.72,3.93-83.17-2.36-41.72-9.55-83.26-19.92-124.87-29.96-50.84-12.26-101.66-24.63-152.56-36.65-4.3-1.01-9.32-.44-13.71.62-84.33,20.48-168.67,40.87-252.85,61.94-22.6,5.66-45.35,6.97-68.36,7.13-4.32.03-8.67.33-12.96-.05ZM78.24,122.78c-2.03.21-3.97-.88-4.85-2.71-.89-1.85-.5-4.09.98-5.54,1.75-.1,3.51-.3,5.27-.3,52.15-.07,104.3-.15,156.45-.18,147.46-.11,294.91-.31,442.37-.23,30.15.02,60.3,1.13,90.44,1.75,1.13.02,2.25.27,3.34.41.41,6.86,0,7.52-6.61,7.52-35.82,0-71.64-.14-107.47-.16-8.88,0-2.49.17-364.39-.17-49.89-.05-124.15-.15-215.53-.39ZM92.73,166.57c-1.01-1.34-1.08-2.81-1.05-5.1.12-8.53.15-12.84,2.6-15.09,2.57-2.37,6.26-2.29,7.45-2.28,12.08.18,643.37,2.03,648.4,1.72,1.51-.09,2.83.06,5.46.5,1.78.3,2.48.55,3.03,1.11.75.77,1.06,1.92,1.03,3.41-.1,4.83-.36,9.67-.2,14.49.06,1.87-.26,3.13-1.03,3.94-1.41,1.47-3.85,1.22-4.24,1.2-4.24-.23-274.14-.75-654.82-1.38-1.06.03-4.73,0-6.62-2.51ZM483.22,387.27c9.09.42,17.05,5.59,20.47,13.36,3.58,8.17.67,15.84.02,17.45-5.1-.92-6.46-2.78-5.5-7.37,2.77-13.27-2.07-20.77-14.99-23.44ZM498.25,454.64c.02.41.04.82.06,1.23-4.57.47-9.13.95-14.09,1.46,4.52.21,8.65.4,12.89.6,1.19,5.34-1.14,8.45-6.11,9.23-4.54.71-9.2.92-13.81.93-5.09.01-7.07-3.14-6.54-7.89.46-4.08,1.26-8.12,1.85-11.79,8.38,1.11,16.55,2.2,24.72,3.28-.07.33-.15.66-.22.98h-14.37c-.02.33-.04.66-.05.99,5.23.33,10.46.65,15.68.98ZM467.85,460.15c-1.6,7.09-1.96,14.51-2.3,21.81-1.03,22.47-1.66,44.96-2.75,67.42-.24,4.91-1.69,9.77-2.76,14.62-1.35,6.08-2.88,12.13-4.45,18.67h5.92c1.69-3.96,3.12-7.3,4.55-10.64.63.12,1.27.24,1.9.35,1.83,4.34,3.65,8.67,5.8,13.78-3.68,0-7.07-.14-10.44.04-2.85.16-5.68.66-8.5,1.09-3.07.47-3.88-1.15-3.55-3.78.64-5.12,1.35-10.24,1.99-15.36.53-4.3.12-8.95,1.65-12.85,8.19-20.93,3.83-43.36,8.23-64.7.16-.77.02-1.61.02-2.71h-7.14c.82-6.41,1.29-12.49,2.43-18.43,2.84-14.82,3.92-29.73,2.41-44.74-.86-8.61-1.97-17.23-3.61-25.72-2.22-11.49-5.4-15.19-15.23-19.73,9.2-1.04,17.59,3.26,19.92,11.68,3.37,12.16,6.3,24.52,8.23,36.98,1.67,10.73.09,21.52-2.32,32.22ZM390.13,553.66c-5.58,9.5-22.51,13.28-31.84,7.17-3.09-2.03-4.5-5.28-2.23-8.1,5.03-6.24,4.66-13.26,4.29-20.43-.28-5.43-.65-10.86-.97-16.18,14.15.57,27.7,1.11,41.83,1.68-.24-.45.25.03.17.38-2.53,12.21-4.83,24.52-11.26,35.48ZM401.15,583.85c-1.27,1.05-2.48,2.9-3.83,3.02-4.46.38-8.98.12-13.48.12-10.47,0-20.94,0-31.59,0-.82-3.84.28-5.32,3.35-5.33,13.99-.07,27.99-.23,41.98-.15,1.2,0,2.38,1.53,3.57,2.35ZM360.95,474.15c9.35,1.37,18.36,6.05,27.88,2.43-1.88,8.44-3.67,16.46-5.46,24.45,17.35,4.44,17.43,4.48,19.27,9.84-12.98-10.76-28.06-8.96-43.32-9.24-.61-11.83-1.21-23.33-1.81-35.06,12.51,1.28,24.67,2.53,36.84,3.78l.11,1.34c-11.26,1.52-22.67,1.17-34.43,1.07.46.73.65,1.35.92,1.39ZM399.67,515.58c-12.95-.19-25.89-.55-38.84-.92-.47-.01-.93-.67-1.39-1.03,14.61-1.41,28.96,2.66,43.83.28-1.2.58-2.41,1.69-3.61,1.67ZM402.26,484.29c-1.76-4.67-3.39-9.4-4.8-14.18-.78-2.66-2.24-3.5-4.94-3.85-9.61-1.23-19.15-2.93-27.44-8.46-2.6-1.73-5.03-3.72-6.93-5.14,1.2-3.85,3.75-7.57,2.9-10.19-2.54-7.86-1.57-17.22-9.24-23.77-.24,1.67-.43,2.92-.72,4.9-1-1.36-1.56-2.12-2.5-3.4v6.7c-8.72,3.6-14.04-1.5-19.05-6.67-4.71-4.87-8.95-10.18-13.67-15.6,3.48-2.71,6.35-4.7,8.93-7.01,3.78-3.38,2.96-3.87,6.35-6.85,3.18-2.8,5.26-3.79,5.41-6.02.1-1.53-.79-2.42-.25-4.45.14-.51.56-2.11,1.69-2.38.03,0,.75-.17,1.32.25.76.57.38,1.54.88,2.01.74.69,2.39-.6,5.27-1.5,1.44-.45,3.26-.68,6.9-1.14,1.17-.15,2.15-.25,2.82-.31.29,1.05.26,1.86.19,2.38-.16,1.13-.59,1.53-.75,3.07-.08.71-.05,1.21.18,1.7.2.41.39.48.63.88.09.15.38.65.44,2.01.07,1.62.1,2.42-.38,2.82-.78.65-2.07-.31-2.64.31-.32.36-.02.83.05,2.12.06,1.1.13,2.44-.53,3.07-.49.46-1.31.92-3.43.03-2.05-.86-3.55-.93-4.69-.42-1.92.85-2.79,3.26-3.27,4.79-.45,1.42-.84,2.62-.43,3.83.71,2.11,3.56,3.47,7.03,3.45,1.77-.13,4.78-.06,7.73,1.6,1.52.86,4.24,2.33,6.25,7.89,2.43,6.71,4.13,13.71,5.8,20.66,1.47,6.13,4.8,10.38,10.57,13,5.25,2.39,10.33,5.16,15.95,8,0-1.67-.01-3.08,0-4.49.21-21.31.25-42.62.73-63.92.19-8.42,3.86-13.21,12.04-15.1,9.86-2.27,17.74-6.55,23.74-15.05,3.4-4.82,9.95-5.5,15.41-7.32,1.39-.46,2.79-.91,5.19-1.68.23.43.52,1.1.66,1.95.2,1.26-.12,1.81-.07,3.24.05,1.38.37,1.29.49,2.75.13,1.47.27,3.1-.63,3.95-1.11,1.04-2.95.08-3.52,1.07-.35.61.21,1.21-.29,2.32-.24.54-.41.47-.63.99-.5,1.13.17,1.81-.21,2.54-.48.93-2.14.97-2.82.99-1.96.05-2.68-.78-3.52-.7-1.24.11-2.77,2.19-4.1,10.71,1.32.39,2.55.86,3.83,1.13,5.92,1.21,7.32,3.6,5.21,9.09-3.84,9.97-17.77,19.21-28.48,18.88-7.12-.22-9.27-2.79-8.17-9.77.31-1.93.63-3.85.11-5.91-3.74,14.47-6.09,29.19-6.94,44.13-.85,15.08,1.24,29.66,10.07,42.92-1.01-.16-2.03-.32-3.04-.47-1.35,2.11-2.7,4.22-4.41,6.87-.52-.7-1.77-1.83-2.3-3.23ZM338.08,467.72c-4.51,5.22-9.02,10.45-14.49,16.79,4.22-1.32,7.53-2.35,10.85-3.39.28.34.57.69.85,1.03-4.65,3.89-9.31,7.78-14.23,11.88,5.52,1.64,9.16-2.42,14.22-4.28-3.64,5.59-7.27,11.18-11.26,17.32,3.03-1.89,5.76-3.6,9.61-6.01-4.32,7.75-8.12,14.57-11.92,21.39,10.84-5.36,15.5-15.79,21.01-25.53.46-1.04.91-2.07,1.37-3.11.92-3.63,1.84-7.26,2.76-10.89.43.07.86.15,1.29.22-.69,6.79-1.07,13.63-2.16,20.36-1.57,9.68-3.22,19.39-5.72,28.86-1.09,4.13-3.78,8.24-6.77,11.4-8.4,8.88-18.84,15.03-30.74,21.25,2.6-9.5,5.05-17.87,7.15-26.33,1.19-4.79,2.35-9.7,2.6-14.6.78-15.61,1.03-31.2,5.12-46.5,1.46-5.48.9-11.5,1.32-18.25,6.14,4.62,11.96,5.87,18.38,3.52.11.5.22,1.01.33,1.51-4.27,1.49-8.54,2.99-12.59,4.4,4.07,2.27,8.28,1.12,13.01-1.04ZM314.9,415.42c6.32,11,10.91,23.13,21.69,31.02-2.99-1.64-5.98-3.28-10.35-5.67,1.15,3.86,1.96,6.58,2.97,9.99-1.59-1.43-2.93-2.64-4.14-3.73,0,2.21-.27,4.57.15,6.8.15.78,1.91,1.52,3.06,1.81,2.81.7,5.69,1.12,8.45,2.24-5.39,2.02-10.67,3.02-14.64-1.02-.5-2.16-.64-4.5-1.58-6.45-2.58-5.33-5.51-10.5-8.67-16.44-1.31,4.19-1.84,8.45-3.86,11.81-4.99,8.27-5.06,17.1-5.02,26.28.04,9.98-.73,19.98-1.72,29.92-.24,2.42-2.53,6.37-4.21,6.55-3.94.42-4.72-3.4-4.76-6.72-.03-1.79-.17-4.06.78-5.31,3.33-4.36,2.19-8.77,1.06-13.35-2.78-11.2-2.93-22.18.77-33.42,2.69-8.17,3.82-16.86,5.49-25.35,1.28-6.49,3.04-12.6,8.63-16.92,3.24-2.5,5.64-2.63,8.24,1.03,3.83,5.4,7.6,10.99,12.3,15.56,5.07,4.92,11.17,8.79,16.87,13.05,1.64,1.23,3.47,2.22,5.21,3.31-.24.43-.48.86-.72,1.29-15.8-3.39-26.19-14.41-35.98-26.3ZM236,273.43c-.31-17.49-.36-34.99-.53-52.48-.01-1.33-.22-2.73.12-3.97.24-.86,1.26-1.51,1.94-2.25.72.68,1.7,1.25,2.07,2.08.37.85.15,1.96.17,2.96.96,48.31,1.92,96.61,2.87,144.92.05,0,.1,0,.15,0,1.07,47.31,2.14,94.61,3.21,141.92.03,1.17.3,2.44-.06,3.47-.57,1.63-1.58,3.11-2.41,4.66-1.02-1.48-2.16-2.9-3.02-4.47-.36-.66-.18-1.63-.2-2.46-1.45-78.13-2.91-156.25-4.31-234.38ZM161.51,515.26c-3.38.03-5.22-1.45-5.75-4.79-.8-5.04-1.72-10.06-2.65-15.45,12.83-.75,21.26-8.09,29.76-16.23-2.25,8.15-4.51,16.29-6.76,24.44.5.17,1,.35,1.5.52,2.97-7.8,5.94-15.6,8.91-23.4-.89,11.82,3.44,23.76-3.03,34.89-6.49,0-14.23-.05-21.98.02ZM182.79,520.73c-3.58.61-6.07,1.03-9.43,1.59,3.3-5,4.49-5.24,9.43-1.59ZM172.37,527.7c.13.48.25.96.38,1.43-2.68.46-5.35.93-8.03,1.39,1.5-5.11,4.72-3.39,7.65-2.83ZM160.27,521.57c-.55-1.29-1.03-2.42-1.74-4.08,3.36-.23,6.33-.44,9.3-.64.14.23.28.45.42.68-2.56,1.3-5.11,2.59-7.98,4.04ZM155.19,458.76c-6.36-3.85-10.4-9.13-11.07-16.79-.39-4.47-1.4-8.88-1.75-13.35-.66-8.2,1.44-11.49,8.8-14.88,1.37-.63,2.61-1.56,3.75-2.26.76,5.41,5.55,7.75,10.05,10.4,1.57.92,2.97,2.11,4.45,3.18.04,0,.08-.01.12-.02.02-.05.04-.1.06-.15-.02.05-.04.1-.05.15,1.61-.24,3.2-.55,4.82-.68,10.03-.79,14.89,2.32,18.08,11.87,2,5.99,3.72,12.08,5.52,18.13.13.43-.06.95-.13,1.71-8.57.37-10.24-7.02-14-12.78-.52,2.71-.6,4.89-1.4,6.76-.73,1.71-1.96,3.74-3.49,4.36-.93.38-3.21-1.35-4.24-2.64-5.93-7.43-8.96-15.51-5.92-24.69-1,2.49-2.14,4.97-2.23,7.49-.39,11.23,7.19,22.14,16.83,26.3-3.65-.75-7.35-1.3-10.93-2.29-3.67-1.02-7.32-2.25-10.79-3.81-3.53-1.59-6.83-3.69-10.23-5.56-.34.49-.69.99-1.03,1.48,3.23,2.16,6.25,4.76,9.74,6.36,3.58,1.64,7.56,2.49,11.44,3.33,3.99.87,8.06,1.32,12.07,2.66-6.24,2.64-12.53.69-18.98,1.12,4.47.87,8.94,1.74,14.51,2.82-2.38,2.15-4.02,3.63-5.65,5.11.11.27.21.54.32.81,3.21-1.29,6.42-2.58,10.87-4.36-1.07,2.43-1.48,3.95-2.32,5.19-5.97,8.79-13.66,15.34-24.03,18.47-3.57,1.08-5.31.63-6.15-3.55-1.73-8.61-4.24-17.07-6.16-25.64-.67-2.97-.56-6.11-.87-10,4.76,3.55,8.65,6.46,12.55,9.37.32-.39.64-.77.96-1.16-1.16-.82-2.28-1.72-3.49-2.45ZM160.78,369.05c-.19-10.96-.07-21.93.3-32.89,0,10.16,0,20.33,0,30.49,0,1.5-.17,3.08.26,4.47.31,1,1.47,1.74,2.25,2.6.65-.93,1.86-1.87,1.86-2.8-.03-9.16-.32-18.32-.43-27.49-.08-6.48-.02-12.97-.02-19.45.46,0,.91,0,1.37,0,0,13.14-.04,26.29.02,39.43.03,5.48-1.73,11.98,6.72,12.82h-19.95v-160.61c.74,0,1.48,0,2.22-.01.18,52.81-.03,105.63-.2,158.69,4.22.44,5.68-1.19,5.61-5.26ZM161.72,253.97v-35.84c.07,0,.14,0,.21,0v35.98c-.07-.05-.14-.09-.21-.14ZM162.07,266c.23,0,.46-.01.69-.02.52,17.09,1.04,34.18,1.56,51.28-.2,0-.4.01-.59.02-.55-17.09-1.1-34.18-1.65-51.27ZM167.5,397.23c1.21-.36,2.61,1.46,3.41.89.65-.47.04-1.91-.14-4.03-.29-3.49.74-7.37,2.05-7.58.94-.15,1.17,1.73,3.34,2.61,2,.81,3.04-.29,4.11.6,1.22,1.01-.14,3.54,1.09,5.67.09.15.27.44.47.89.37.8.5,1.43.71,2.43.56,2.78.54,3.08.32,3.37-.36.49-1,.62-1.3.68-1.1.23-1.47-.4-2.06-.15-.85.37-.34,1.81-1.49,3.56-.52.78-.74.68-1.16,1.43-.71,1.27-.4,2.15-.68,2.87-.72,1.83-5.35,2.93-8.12,1.3-4.89-2.88-3.15-13.76-.55-14.54ZM172.79,177.87c-17.31-.08-34.62-.15-51.92-.12-4.08,0-3.2-2.71-3.67-5.35h59.97c.68,4.21-1.05,5.49-4.38,5.48ZM171.08,181.1c-.62,1.08-1.25,2.16-1.87,3.24-14.02.09-28.03.18-42.05.27-1.01-1.17-2.02-2.34-3.03-3.51h46.95ZM132.6,188.91c1.81,5.47,3.78,9.48,5.27,12.17,1.12,2.02,2.08,3.48,2.7,3.31.81-.23.62-3.23.54-4.36-.19-2.96-.93-7.31-3.53-12.67.79-.02,1.58-.05,2.37-.07,1.23,3.42,1.96,6.29,2.42,8.37.9,4.07,1.25,7.5,3.15,8.02.04.01.5.13.9.02,2.49-.71,2.12-10.33,1.54-17.23,1.05.07,2.09.14,3.14.21-.67,5.66-1.17,10.16-1.53,13.17-.1.84-.34,2.79.63,3.42.57.37,1.33.13,1.53.07,2.71-.84,3.18-10.55,3.28-13.45.77.12,1.53.23,2.3.35-.95,3.71-1.59,6.74-2,8.88-.57,2.94-.82,4.75-.3,4.97.42.17,1.16-.73,1.46-1.09,2.72-3.3,5.08-12.14,6.06-16.1,1.3-.05,2.6-.09,3.9-.14-2.23,6.08-4.46,12.17-6.69,18.26,1.73.84,3.46,1.68,5.19,2.52h-32.57c2.11-1.32,3.28-2.05,4.81-3.01-1.85-5.1-3.69-10.16-5.52-15.22.31-.12.62-.24.94-.37ZM165.02,211.48h-33.34c4.85-3.39,25.16-3.23,33.34,0ZM135.88,371.38c.52-26.48,1.2-52.96,1.58-79.45.32-22.77.18-45.55.5-68.32.14-9.72-1.24-9.93,9.46-8.72,1.11.12,2.24.02,3.67.02.15,1.56.39,2.84.38,4.11-.3,52.31-.61,104.62-.99,156.93-.01,1.4-.58,2.87-1.16,4.19-2.38,5.34-4.46,10.7-2.69,16.76-.28-.56-.76-1.11-.82-1.69-.83-7.89-2.39-15.79-2.25-23.67.66-37.14,1.78-74.27,2.74-111.41.04-1.65,0-3.31-.47-4.97-.39,8.67-.92,17.34-1.14,26.01-.83,32.47-1.56,64.94-2.32,97.42-.12,5.23-.25,5.34-6.52,4.58,0-3.87-.07-7.82.01-11.77ZM193.57,530.02c-4.02.32-7.19.57-10.52.83,2.55-5.25,6.49-5.84,10.52-.83ZM189.17,514.95c.92-4.55,3.71-5.04,6.29-4.24,3,.94,5.79,2.67,8.43,4.42.37.25-.29,2.93-1.14,3.87-.88.96-2.59,1.16-3.94,1.69-.43-1.42-.85-2.84-1.44-4.81-2.16-.25-5.09-.58-8.2-.94ZM213.46,528.74c-3.18.35-6.37.69-10.11,1.1,2.88-4.87,6.37-5.51,10.11-1.1ZM204.78,503.29c4.75-2.21,3.56-6.33,3.68-9.88,2.01-59.29,3.85-118.59,6.07-177.87,1.18-31.63,3.11-63.24,4.46-94.87.22-5.1,1.9-7.06,7.39-5.52.09,1.2.3,2.63.29,4.05-.56,71.49-1.16,142.98-1.72,214.47-.17,21.16-.24,42.33-.39,63.49-.04,5.17-3.49,7.25-8.65,6.25-3.58-.69-7.41-.13-11.12-.13ZM221.29,199.64c-.92-2.42-1.26-4.37-1.57-5.12-.81-1.89-1.88-4.64-3.17-8.68,1.04.2,2.09.39,3.13.59.43,2.33,1.18,5.65,2.54,9.51.93,2.63,2.75,7.79,3.66,7.62.67-.13,1.08-3.22-.35-17.18h3.37c-.24,2.33-.35,5.88.57,10.03.28,1.27,1.51,6.77,2.71,6.72.87-.04,1.99-3.01,2.92-16.87l2.54-.18c1.04,5.8,1.47,10.17,1.65,13.17.08,1.24.2,3.59.77,3.66.52.07,1.17-1.79,1.59-3.07.94-2.85,2.19-7.27,3.37-13.76l3.07.18c-.87,6.18-1.73,12.36-2.6,18.54,2.35.92,4.7,1.84,7.05,2.76-.08.19-.16.38-.23.58h-36.26c2.14-2.98,7.02-3.82,5.25-8.49ZM227.53,520.79c-3.52.76-7.04,1.52-11.06,2.39,2.71-7.13,5.53-7.93,11.06-2.39ZM221.61,510.97c1.23-2.21,1.91-5.15,3.29-5.53,2.28-.62,5.01.42,7.54.76-.01.61-.03,1.22-.04,1.83-3.24.88-6.48,1.76-10.8,2.93ZM227.87,497.05c-.09-89.12-.33-178.23-.54-267.35,0-3.16.21-6.36-.14-9.49-.52-4.77,1.2-6.58,6.22-5.23.65,96.69,1.3,193.2,1.95,289.79-6.37-.11-7.49-2.95-7.49-7.72ZM216.51,212.16c2.69-4.07,25.93-4.58,37.45,0h-37.45ZM243.84,216.02c.65-.02,1.3-.04,1.95-.06,3.08,99.08,6.15,198.15,9.23,297.23-.67.05-1.33.1-2,.16-3.06-99.11-6.12-198.22-9.18-297.33ZM212.75,183.84c-1.28-.94-2.56-1.89-3.83-2.83h51.08c-1.22,1.14-2.43,2.28-3.65,3.41-14.53-.19-29.07-.39-43.6-.58ZM206.73,177.55c-3.83.01-4.53-1.67-3.66-5.05,12.95.04,25.89.07,38.84.11,8.71.1,17.42.14,26.12.07,1.11,4.07-.51,5.06-3.88,5.04-19.14-.14-38.29-.22-57.43-.17ZM334.8,372.75l.28,1.73c-3.85,1.35-7.69,2.7-12.74,4.47,1.43.79,2.47,1.37,3.9,2.17-2.52,2.39-4.71,4.48-7.88,7.49.94-5.13,1.42-8.54,2.26-11.85.29-1.14,1.37-2.8,2.29-2.94,3.93-.62,7.93-.76,11.9-1.07ZM325.47,371.23c1.64-7.02,6.58-11.31,14.19-12.32,7.65-1.02,13.82,2.1,17.71,9.7-5.67-2.87-10.5-2.69-14.5.53-3.61,2.91-7.28,3.24-11.49,2.52-1.94-.33-3.94-.29-5.92-.42ZM431.61,334.1c9.05-3.01,18.65,1.18,21.19,9.62-2.94.28-5.94.14-8.66.93-3.35.98-6.43,2.81-9.7,4.11-1.64.65-3.4,1.12-5.15,1.34-2.33.3-4.71.28-7.2.4-2.39-6.84,1.47-13.72,9.52-16.4ZM450.14,411.37c.56-5.03,1.16-10.38,1.7-15.29,2.42,5.27,2.09,8.48-1.7,15.29ZM451.13,441.73c.15,10.98-6.97,19.2-11.65,28.37,3.88-9.46,7.77-18.91,11.65-28.37ZM445.44,405.07c-4.99,6.98-11.79,12.12-20.27,14.67-1.96.59-3.68,2.2-5.64,2.51-7.73,1.23-11.8-2.99-11.34-12.21,15.9,5.76,26.39-2.25,35.91-13.21-3.52,8.96-11.92,13.21-18.05,19.58,12.94-3.94,18.59-14.7,23.98-25.71.43.14.86.28,1.28.42-1.9,4.69-3,9.94-5.86,13.94ZM408.12,528.62c1.37-14.05,3.43-28.04,4.98-42.07.31-2.81.05-5.87-.76-8.58-.93-3.15-3.08-5.94-4.07-9.08-.71-2.25-1.13-5.09-.37-7.19,1.33-3.69,1.47-7.26,1.81-11.09.81-9.12,5.08-18.01.25-27.62,11.1,4.38,21.31,1.66,31.51-1.32.07.57.13,1.15.2,1.72-2.76,1.29-5.52,2.58-8.28,3.86.02.32.04.65.07.97,4.11.18,8.22.36,12.34.54l-.04,1.37h-22.13l-.18,1.13c3.62,1.69,7.24,3.37,11.29,5.26h-10.74c-.04.34-.08.68-.12,1.02,3.84.7,7.69,1.39,11.53,2.09,0,.25,0,.51.01.76-.72.19-1.45.38-2.17.58.06.28.12.56.18.84,2.44-.56,4.88-1.13,7.31-1.69.19.28.37.56.55.84-5.67,3.87-11.35,7.73-17.15,11.69,4.57,1.33,7.13-2.42,10.16-4.49,3.25-2.23,6.08-5.07,9.32-7.41-6.54,9.43-12.51,19.42-24.53,23.25.18.55.35,1.09.53,1.64,3.13-.63,6.26-1.26,10.25-2.05-2.64,2.14-4.81,3.91-6.99,5.68,9.24-1.82,14.04-8.85,18.94-15.82-3.96,10.48-10.23,18.99-20.53,24.14,4.17,1.53,4.89,1.23,14.38-6.15-1.53,5.45-3.03,7.25-13.86,16.6.22.4.45.81.67,1.21l10.48-5.79,1,.53c-4.02,5.62-8.03,11.25-12.05,16.87.12.25.25.51.37.76,3.15-2.2,6.3-4.4,9.44-6.6.19.13.38.26.57.39-3.54,4.64-7.08,9.28-10.95,14.36,5.44-.98,8.61-4.45,10.97-8.33,3.53-5.81,6.82-11.85,9.48-18.1,3.45-8.09,6.18-16.49,9.68-24.74-.6,2.9-1.17,5.8-1.81,8.69-4.33,19.63-14.52,36.34-25.93,52.49-2.31,3.27-4.03,6.96-5.43,10.89,8.35-2.81,15.4-7.49,18.99-15.13,5-10.63,8.99-21.76,12.84-32.88,1.7-4.92,2.01-10.33,4.02-15.37-1.4,7.96-2.03,16.16-4.37,23.83-4.07,13.33-8.13,26.85-18.29,37.29-4.21,4.33-8.89,7.39-15.2,7.58-5.46.16-8.69-2.04-8.17-7.38ZM103.07,376.19c2.77-.57,5.74-.13,8.62-.13-.14.22-.29.45-.43.67-5.07.97-10.15,1.95-16.42,3.15,3.36-1.56,5.68-3.17,8.23-3.69ZM88.82,416.53c8-2.21,11.86-7.91,13.95-15.51.76-2.78,1.82-4.82,4.01-7.01.35-.35,3.22-3.17,4.75-2.39,1.2.62.62,2.97,1.55,3.35.62.25,1.89-.38,4.79-4.51.58.08,1.16.16,1.74.23-.28,1.21-.45,2.89.15,4.68.22.66.35.75.67,1.65.24.68,1.45,4.08.43,4.84-.57.42-1.26-.39-2.08,0-.9.43-.79,1.73-1.29,3.43-.19.65-1.02,3.52-3,4.69-2.11,1.25-4.84.16-5.66-.2-.32,1.23-.55,1.85-.63,2.48-1.17,8.81-1.19,9.12,7.55,9.93,9.51.88,14.83,6.09,17.01,14.94,3.42,13.91,7.53,27.47,13.14,40.78,4.19,9.94,4.97,21.32,7.38,32.03.91,4.04,1.92,8.08,3.27,11.99,1.78,5.15.38,7.23-5.39,7.33-.46-8.79-3.13-10.57-9.95-6.65.35,1.56,1.47,3.68.86,4.5-.84,1.13-3,1.27-4.65,1.85-2.39-11.28-.62-13.06,11.17-10.72-.94-3.52-1.55-6.66-2.63-9.63-3.07-8.42-6.45-16.73-9.52-25.16-4.63-12.71-9.09-25.48-13.09-36.71-.71,2.55-1.22,6.82-3.04,10.43-2.73,5.42-6.65,6.26-10.75,1.79-6.83-7.44-13.13-15.44-19.04-23.65-2.52-3.5-3.64-8.06-5.1-12.24-1.1-3.14.08-5.62,3.41-6.54ZM137.49,500.23l.82-.18c1.76,3.85,3.71,7.63,5.15,11.59.33.91-1.08,2.45-1.69,3.7-1.04-.79-2.84-1.46-2.99-2.39-.69-4.2-.9-8.47-1.29-12.72ZM78.59,428.08c.12-1.82.89-3.59,1.48-5.88,1.86,13.84,3.52,26.95,5.45,40.01.36,2.46,1.8,4.77,2.75,7.14-2.26-16.26-5.59-32.41-5.2-48.85,3.13,10.67,6.1,21.39,9.51,31.97,1,3.09,3.26,5.78,4.94,8.66-1.82-4.59-3.76-9.15-5.43-13.8-1.06-2.94-1.74-6.02-2.84-9.9,3.15,4.48,5.73,8.2,8.36,11.87,5.9,8.21,13.03,15.04,21.81,20.21,6.35,3.74,7.11,5.16,8.15,11.13-9.7-1.07-15.71-8.13-22.9-13.01,6.07,8.74,14.83,13.91,24.53,17.83-.16.46-.32.92-.48,1.38-2.48-.41-4.96-.83-7.43-1.24,1.53.88,3.06,1.76,4.59,2.64-7.69,5.32-18.83,5.15-30.61-7.83,1.84,2.52,3.68,5.05,5.52,7.57-.27.38-.55.77-.82,1.15-1.95-1.34-4.57-2.27-5.7-4.12-2.39-3.89-4.01-8.26-5.95-12.44,1.49,5.02,2.97,10.04,4.43,14.97-5.78.32-7.9-.89-9.3-6.46-4.35-17.41-6-35.1-4.86-53.02ZM65.47,435.6c.75-6.04,4.97-9,11.19-9.7-.75,20.55-.36,40.78,5.7,60.85-9.56,1.19-14.07-2.75-13.94-11.68.06-4.5.06-9,.13-13.49.06-3.74-1.89-6.78-2.99-10.09-1.59-4.79-.75-10.61-.09-15.88ZM15.53,462.97c4.31,1.57,7.26-.7,8.69-4.08,1.17-2.76,1.32-6.18,1.11-9.26-.75-11.38,3.33-21.26,9.07-30.62,1.01-1.65,3.34-2.47,4.96-3.79,1.23-1,3.04-2.03,3.3-3.32.13-.61.27-1.18.44-1.71.35.33.86.76,1.56,1.13,1.29.69,2.17.63,2.54.82,3.23,1.63-5.12,21.95-5.12,21.95-3.86,9.4-7.11,17.18-9.42,22.69-.15-2.18-.21-3.05-.27-3.8-.77,1.32-1.36,2.83-2.41,3.86-3.38,3.3-6.66,6.84-10.54,9.45-2.82,1.89-4.68.3-3.94-3.32ZM19.15,469.64c6.99-3.35,13.98-7.21,16.88-14.8,1.08-2.83,2.11-5.69,3.1-8.56,5.36-15.54,7.95-23.33,8.16-24.95.3-2.39.72-7.22,3.01-7.9.21-.06.63-.15,2.2.24,2.28.57,4.02,1.41,5.14,2.05-.11.3-.28.78-.38,1.4-.07.45-.1.85-.12,1.13-.11,1.61-2.29,14.38-3.96,23.1-.33,1.72-1.42,3.3-2.17,4.95-.36-.1-.72-.19-1.09-.29-.51-2.26-1.02-4.51-1.53-6.77-2.59,19.72-12.42,33.21-32.3,39.48-.77-2.86-1.56-5.78-2.33-8.67,2.63-.17,4.22.15,5.39-.41ZM12.84,507.26c-.23-3.94-1.13-7.13-.43-9.92,1.76-7,3-14.7,10.57-18.28,10.39-4.92,19.01-11.56,23.51-22.66-.43,7.96-22.14,40.87-33.64,50.85ZM22.61,519.66c-2.31.79-6.26-2.11-7.02-5.54-.17-.78-.64-2.94,3.16-8.16,2.73-3.75,6.15-7,9.29-10.45,2.46-2.7,4.95-5.39,8.41-9.15-1.56,18.59.98,36.47-9.14,51.9,1.85-13.23,3.13-25.97,1.42-27.4-.54-.45-.98-.42-.98-.42-2.3.11-1.93,8.13-5.13,9.22ZM24.03,559.38c.96-5.72,2.16-13.21,3.2-20.58,2.12-2.36,4.24-4.72,6.35-7.07.57,10.97-4.22,19.46-9.56,27.65ZM20.72,575.33c.36-1.32.75-2.66,1.19-4.02,3.07-9.55,7.32-17.4,11.45-23.58.1,1.42.34,3.64-.04,6.28-1.27,8.8-2.43,17.63-12.6,21.33ZM36.2,559.65c7.64,3.07,14.56,1.35,21.72-1.6,3.91-1.61,8.6-1.29,13.14-1.01-9.35-.45-16.52,4.83-24.36,8.47-4.83,2.24-10.28,3.15-16.53,4.97,2.43-4.36,4.18-7.5,6.03-10.83ZM32.25,628.18c-1.12-.82-2.14-2.96-1.9-4.25,3.08-16.45,6.39-32.86,9.75-49.81,5.17,1.22,9.39,2.21,14.61,3.44.2,9.94.62,20.36.54,30.79-.06,8.97-1.62,18.19,8.49,25.28-12.2,1.08-22.46,1.15-31.5-5.45ZM577.72,692.01c1.14,0,2,0,2.85,0-1.45-.62-2.9-1.23-5.06-2.15.88,2.66,1.49,4.49,2.27,6.85-2.77.26-5.21.65-7.65.69-29.15.44-58.3,1.09-87.45,1.19-74.65.26-149.3.31-223.95.29-5.58,0-9.67,1.31-13.26,5.92-2.53,3.25-6.33,7.02-10.03,7.58-16.19,2.5-32.58,2.7-48.68-.91-3.06-.68-6.47-3.74-7.91-6.61-1.58-3.15-3.5-4.75-6.52-5.28-2.93-.51-5.95-.71-8.93-.71-50.26-.03-100.51-.01-150.77,0,1.28-3.28,2.56-6.57,3.83-9.85,49.6,0,99.21,0,148.81,0-2.42-4.47-4.37-7.95-5.32-10.52-.79-2.13-1.83-3.61-3.17-4.61-2.72-2.02-6.02-1.81-7.01-1.77-5.81.28-55.69.03-124.92-.34.68-2.79,1.35-5.57,2.03-8.36.56.09,1.2.08,1.72.08,14.74.03,29.48.02,44.16.02-2.56-1.85-5.39-3.84-8.17-5.9-2.57-1.91-3.48-4.34-2.22-7.45,7.29-17.95,4.32-37.24,7.89-55.67-.55-.07-1.09-.14-1.64-.21-1.09,9.47-2.18,18.93-3.27,28.4-1.12-1.16-2.06-2.53-1.9-3.75,1.37-10.81.33-22.21,6.84-31.84,4.21-6.23,6.89-12.82,7.05-20.42.12-5.49.47-10.99.9-16.46,1.33-16.93,2.68-33.86,4.21-50.77.22-2.46,1.49-4.83,2.28-7.24.66.15,1.33.31,1.99.46-5.42,30.83-3.48,61.65-.76,92.48.44-28.28-5.12-56.7,2.02-84.84.11,17.36.94,34.59,6.82,51.13-2.53-19.18-6.75-38.21-5.34-57.69.6-.36,1.19-.72,1.79-1.07,2.02,1.5,4.04,3.01,5.78,4.3.03-.44.13-1.82.19-2.55h27.55c.27,12.14-5.69,21.46-9.18,31.57,6.05-6.53,6.93-15.45,10.79-23.1.43,3.47.78,6.93.37,10.3-1.71,14.04-3.54,28.08-5.53,42.08-1.49,10.48-5.91,19.76-12.61,27.89-5.61,6.81-11.51,13.39-17.25,20.11-.73.85-1.23,1.9-1.83,2.85,6.45-4.56,11.91-9.91,17.45-15.15,7.9-7.47,12.75-16.66,14.86-27.2,4.25-21.22,9.2-42.38,7.56-64.31-.14-1.83-.02-3.68-.02-5.53,1.25.87,1.6,1.76,1.61,2.66.19,23.96.58,47.93.27,71.89-.06,4.25-2.1,9.29-4.88,12.57-13.57,15.99-27.49,31.7-41.78,47.05-4.21,4.52-10.03,7.53-15.13,11.21-.84.6-1.79,1.05-2.68,1.57.24.54.49,1.07.73,1.61,3.5-1.54,7.64-2.35,10.37-4.76,6.6-5.82,12.46-12.48,18.77-18.63,9.12-8.89,18.38-17.63,27.58-26.44.04,4.15.24,9.68-2.41,12.12-12.35,11.35-25.21,22.2-38.44,32.53-7.59,5.92-10.34,14.19-5.67,22.57.86,1.54,1.66,3.11,2.55,4.8h73.21c0-.95.09-1.6-.01-2.22-1.5-9.02-3-18.04-4.59-27.05-.19-1.08-.71-2.19-1.34-3.1-3.29-4.77-2.69-9.18,2.26-12.18,2.95-1.78,6.3-3.03,9.6-4.09,3.01-.96,4.12-2.58,4.13-5.75.06-19.16.31-38.32.49-57.48.02-1.79,0-3.58,0-5.79h79.86v66.65h14.7c.13-1.44.31-2.57.31-3.71-.03-22,.09-44-.25-65.99-.08-4.97,1.17-7.67,5.83-9.95,6.86-3.35,13.14-7.86,19.67-11.88l-.78-1.37c-1.91.87-3.9,1.61-5.72,2.64-5.95,3.36-11.89,6.72-17.73,10.27-6.85,4.16-14.02,6.43-22.21,6.32-32.16-.4-64.33-.41-96.49-.71-2.14-.02-4.27-1.26-6.41-1.93,2.06-.68,4.12-1.94,6.18-1.94,33.16.03,66.32.31,99.48.21,3.55-.01,7.32-1.66,10.54-3.38,1.84-.98,2.77-3.66,4.11-5.57-2.15-1.34-4.14-3.15-6.48-3.93-4.41-1.47-9.01-2.36-14.86-3.81,11.08-5.42,21.45-.55,31.53-2.97-3.16-73.26-6.31-146.48-9.47-219.7.39-.02.78-.03,1.17-.05,3.36,73.33,6.73,146.65,10.12,220.49h17.87c1.35,12.35,1.45,12.54-8.55,17.62-3.34,1.7-3.99,4-3.98,7.18.05,20.66.05,41.33.09,61.99,0,1.29.28,2.58.44,3.98,1.27.07,2.25.25,3.22.17,12.8-1.06,25.59-1.86,38.32.89,1.4.3,3.09.19,4.41-.33,2.75-1.07,3.83-2.9.9-5.04-2.58-1.9-5.32-3.57-7.99-5.34-.25.34-.49.68-.74,1.02,2.77,2.16,5.54,4.32,9.54,7.43-2.87.37-5,1.3-6.57.72-5.88-2.19-11.61-4.8-17.34-7.38-3.18-1.44-3.46-3.57-2.1-6.88,3.16-7.67,5.73-15.58,8.66-23.35.48-1.27,1.4-3.02,2.46-3.31,4.25-1.17,8.64-1.87,14.09-2.96-1.71,3.3-2.79,5.51-3.96,7.66-3.19,5.85-6.66,11.56-9.56,17.55-2.72,5.64-.67,8.43,5.72,8.45,8.95.03,17.91,0,27.18,0,0-1.72.06-3.53,0-5.32-.33-8.99-.77-17.98-.96-26.98-.04-1.66.36-3.91,1.46-4.91,3.85-3.49,8.09-6.56,12.78-10.25,0,3.55.33,6.85-.06,10.07-1.37,11.41-2.99,22.78-4.48,34.17-.54,4.13,3.05,7.95,7.1,7.81,9.28-.31,18.55-.58,27.83-.74,10.82-.19,17.44-5.39,19.41-15.99,1.03-5.55,1.15-11.26,2.03-16.84,1.35-8.53,2.8-17.07,4.7-25.49.39-1.74,3.4-4.49,4.39-4.18,2.4.75,4.93,2.66,6.22,4.82,1.04,1.73.43,4.51.37,6.82-.05,1.72-.39,3.42-.71,6.01,7.08-2.23,13.25-4.17,19.43-6.13,4.02-1.27,5.34-3.9,5.61-8.22.52-8.19,1.98-16.32,3.05-24.47.51.07,1.02.14,1.53.21-1.08,10.38-2.03,20.78-3.39,31.13-.18,1.37-2.25,3.11-3.79,3.58-6.36,1.95-12.85,3.51-19.3,5.14-2.76.7-4.49,2.01-5.34,5.01-3.33,11.68-6.85,23.3-10.59,34.86-.69,2.14-2.29,4.66-4.17,5.59-4.04,1.99-8.54,3.06-12.45,4.37.44.12,1.86,1.04,2.86.71,6.08-2.05,13.25-2.32,16.45-9.46.28-.63,1.16-1.35,1.8-1.39,10.11-.56,20.23-1.51,30.33-1.32,7.24.14,14.45,1.84,21.67,2.84.04-.32.09-.64.13-.97-7.59-1.22-15.17-2.45-22.97-3.7,0-8.59.09-16.54-.04-24.49-.06-3.66-.73-7.3-.77-10.96-.01-1.17.89-3.18,1.74-3.4,3.56-.91,7.26-1.29,11.83-2.01-1.56,10.28-2.93,19.31-4.3,28.34-.89,5.87.59,8.61,6.45,8.66,8.35.07,16.72-1.03,25.07-1.62-5.08-13.92-7.93-28.46-7.81-43.65.15-19.66-.16-39.32-.4-58.98-.07-5.57-.56-11.14-.85-16.54h22.79s0,.01,0,.01c1.08-.94,2.15-1.88,4.09-3.58-.27,3.91-.87,6.82-.61,9.65,1.09,11.71,3.01,23.37,3.53,35.1.46,10.3,2.5,12.94-12.14,11.22v17.61c10.99-3.1,21.15-5.96,32.63-9.19-.65,3.85-1.18,6.94-1.63,9.59,1.37-1.28,2.82-2.64,4.26-3.98-2.45-7.99-4.9-15.99-7.83-25.53-4.55,0-5.83-2.44-3.71-6.67.4-.81.42-2.05.12-2.93-1.71-5.05-3.22-10.2-5.46-15.02-5.09-10.98-5.66-22.43-4.73-34.22.4-5.05.07-10.15-.36-15.16-.58,3.72.01,8.54-2.11,10.82-1.78,1.91-6.74.89-10.3,1.09-15.07.84-16.28-.26-16.77-15.27-.08-2.33.11-4.67-.03-7-.2-3.52.56-6.15,4.61-6.93,1.03-.2,2.63-1.62,2.57-2.38-.14-1.88-.87-5.18-1.74-5.31-2.63-.38-3.85-.8-4.74-2.33-1.02-1.73.96-3.74-.32-5.47-.68-.91-1.84-1.17-1.78-1.95.02-.21.25-.55.72-1.23.28-.4.5-.73.82-1.1.78-.89,1.05-.81,1.51-1.37.79-.97.34-1.68.96-2.53.34-.46,1-.98,2.46-1.13-.69,4.53.64,7.8,2.39,8.2,1.33.31,2.74-1.06,3.15-1.47.65,11.84,7.41,18.41,18.58,18.8,4.91.17,8.38,2.58,9.65,7.23.9,3.31,1.6,7,1.09,10.32-2.67,17.29-.28,34.2,2.97,51.1.75,3.92,1.21,7.89,1.8,11.85,1.62-.97,4.02-2.38,6.95-4.04,8.07-4.58,16.52-9.38,22.99-11.95,5.83-2.31,15.48-4.97,29.38-3.77-5.48-6.99-6.47-27.68-.89-32.76,2.45,7.08,4.73,13.68,7,20.27.18-.03.36-.06.53-.09-1.23-4.63-2.25-9.33-3.75-13.86-1.69-5.11-.99-9.46,3.4-13.59,1.36,1.56,2.72,3.12,4.08,4.68-.05-.05-.1-.1-.16-.15,5.89,7.63,11.79,15.27,17.69,22.9-.96-.46-1.98-.96-3.23-1.56.11,1.04.19,1.82.31,2.96-1.28-.72-2.38-1.33-4-2.24,1.99,5.2,3.79,9.9,6.1,15.93-4.25-.84-7.29-1.44-10.33-2.05-.09.25-.18.5-.27.75,2.36.82,4.73,1.64,7.46,2.59-3.46,2.19-6.41,4.05-9.35,5.91-.19-.23-.39-.46-.58-.69.81-.89,1.62-1.78,3.14-3.44-14.38,0-28.33-1.93-41.43.58-11.52,2.21-22.08,9.4-32.78,15.46,16.43,3.51,32.76,2.5,49.23,3.08.25,3.75-1.21,5.06-4.84,5.04-14.86-.08-29.72.03-44.59.07-1.16-.06-2.31-.11-3.47-.17.02.06.04.12.05.18.02,0,.04,0,.06,0,1.12,0,2.24,0,3.36-.01,35.96,1.73,70.79,3.4,105.52,5.07v39.46c-12.42-.72-24.34-1.42-34.94-2.04-.38-5.22.03-9.28-1.1-12.85-1.47-4.66-7.68-6.53-10.46-3.33-3.42,3.95-6,8.63-8.94,12.99-2.11,3.66-4.23,7.33-6.34,10.99.94,1.21,1.72,3.26,2.85,3.48,4.18.81,8.76,1.58,11.05-3.49.51-1.13-.16-2.79-.37-5.2.17-.11,1.38-.88,3.22-2.05-2.38-1.27-4.46-2.37-6.78-3.61.6-1.01,1.16-1.95,1.57-2.64,2.6,1.45,5.03,2.8,7.46,4.15.32-.44.65-.87.97-1.31-1.51-1.23-3.28-2.25-4.44-3.75-.89-1.15-1.62-3.05-1.33-4.37.58-2.62,2.47-4.65,5.45-3.58,1.54.55,3.97,2.63,3.76,3.39-1.41,5.06-3.15,10.07-5.33,14.84-1.61,3.53-4.06,6.68-6.06,9.88,6.59,4.46,13.09,8.87,19.59,13.28-.2.51-.41,1.03-.61,1.54-34.32,7.5-68.7,12.86-103.59,2.58-.13.43-.27.86-.4,1.28,5.99,1.94,11.85,4.73,17.98,5.63,13.8,2.04,27.73,3.29,41.63,4.48,2.53.22,5.19-1.52,7.84-2.12,8.87-2.02,17.68-4.55,26.66-5.76,22.04-2.96,43.75-.37,65.45,4.18,18.99,3.98,37.78,1.78,55.74-5.8,3.4-1.44,6.38-3.88,10.12-6.21-11.02-9.49-23.92-7.56-36.09-9.38.54.59,1.09,1.18,1.88,2.03-1.2.63-2.42,1.26-3.85,2.01-.79-1.63-1.4-2.89-2.3-4.75-4.88,5.51-9.04,3.06-12.96-.95-2.11-2.16-4.1-2.61-6.36-.18-.97,1.04-2.21,1.82-3.34,2.71-3.35.79-6.71,1.58-9.89,2.34,2.22,1.77-2.69,6.89,4.78,6.7-.46.51-.91,1.03-1.37,1.54-1.86.84-3.72,1.69-6.88,3.13,2.85-5.64-.3-8.3-3.26-9.24-2.22-.71-5.55.96-7.95,2.34-1.73.99-2.52,3.51-4.15,4.84-1.16.95-3.01,1.35-4.54,1.32-.43,0-1.54-2.8-1.09-3.6,1.35-2.34,3.4-4.25,5.02-6.45,1.11-1.51,2.64-3.15,2.79-4.85.47-5.18.36-10.41.48-15.61.72-.02,1.45-.04,2.17-.07v17.76c7.91-2.37,14.72-5.45,21.8-6.35,21.11-2.66,42.21-2.46,62.71,4.34,8.56,2.84,10.4,5.45,9.8,14.28-.75,11.11-2.04,22.19-3.15,33.28-.13,1.26-.6,2.49-1.85,3.59,1.52-12.72,3.03-25.45,4.56-38.3-1.17,0-1.85-.2-2.08.03-9.26,9.5-21.47,11.64-33.73,13.13-12.2,1.49-24.5,2.18-36.76,3.22-.14,8.46-.81,10.07-9.44,12.85-23.58,7.6-47.57,9.8-71.84,3.47-10.25-2.67-13.75-7.06-14.92-17.28-4.27,0-8.55-.1-12.82.02-15.25.44-30.21-1.34-44.98-5.21-5.97-1.56-10.99-3.5-11.83-10.31-1.07,11.21,3.27,22.15,2.11,34.11h-220.59c8.77,1.64,12.22,7.12,12,15.79,3.74,0,6.87,0,10,0,65.82-.11,131.64-.22,197.46-.31,7.12-.01,7.93.92,7.76,9.06-2.04.16-4.15.46-6.25.48-44.99.36-89.98.73-134.97,1.02-23.66.15-47.32.12-70.98.35-1.75.02-4.6,1.12-5.04,2.38-1.74,4.97-2.73,10.2-3.98,15.29h235.89c-14.05-18.69-22.4-51.15-20.49-68.93,3.18,1.54,6,2.9,8.82,4.27h.05c-.24.4-.57.78-.58,1.18-.72,19.55,1.5,38.57,10.44,56.32,2.21,4.38,5.91,6.8,10.56,8.52,10.14,3.76,20.47,4.19,31.02,3.13,3.6-.36,7.19-.72,10.99-1.11.86,5.47-2.93,5.65-6.1,5.92-15.04,1.26-29.89.28-44.65-4.86-.02,4.14-1.86,5.38-5.64,5.38-47.81.01-95.62.17-143.42.34-28.32.1-56.64.25-84.95.47-1.86.01-4.72.18-5.4,1.31-3.3,5.44-6.02,11.23-9.11,17.24,2.15,0,3.97,0,5.8,0,64.8-.04,129.6-.08,194.4-.11,25.82-.01,51.64.23,77.46-.18,6.31-.1,13.1-1.15,18.76-3.74,9.53-4.35,9.23-5.02,16,2.76-9.86-22.31-14.74-45.58-14.33-69.31,13.03,3.21,25.71,6.33,39.1,9.63v67.18c-3.26-.69-6.45-1.37-9.63-2.04,2.58.89,5.17,2.58,7.73,2.53,8.43-.17,16.86-.93,25.28-1.55,1.76-.13,3.49-.61,5.57-.99-5.46,8.28-39.52,10.1-47.72-.87ZM126.26,657.71c3.79,1.39,7.78,2.27,11.68,3.38-.06.5-.12,1-.18,1.5h-31.45c-.32-12.02-.93-23.78-.69-35.52.05-2.41,3.07-4.92,5.06-7.09,2.64-2.88,5.61-5.47,8.43-8.19.61.27,1.23.53,1.84.8-1.32,9.84-2.58,19.69-3.98,29.52-1.64,11.48-1.73,11.56,9.29,15.61ZM233.44,526.74c.7-1.28,1.45-3.68,2.08-3.64,3.35.19,6.67.98,10,1.56-.06.64-.12,1.27-.18,1.91-3.6.47-7.2.93-10.8,1.4-.36-.41-.73-.82-1.09-1.23ZM438.29,583.8c-1.23,1.02-2.43,2.88-3.7,2.92-7.62.28-15.25.14-23.29.14-.7-3.81.64-5.48,4.39-5.42,6.31.09,12.62-.15,18.92.06,1.25.04,2.46,1.49,3.68,2.3ZM626.05,582.6c2.49-2.03,3.97-5.66,8.29-4.84.32.63.65,1.25.97,1.88-2.79,1.49-5.59,2.97-8.38,4.46-.29-.5-.58-1-.88-1.49ZM647.99,573.75c1.67-1.14,3.18-2.18,4.7-3.22,2.07.66,4.14,1.31,6.88,2.18-4.02,3.72-7.34,4.89-11.58,1.04ZM679.57,584.75c-3.31,7.3-3.68,7.34-13.22,1.16,5.93-2.86,11.63-5.61,17.33-8.37l.87,1.77c-3.56,1.85-7.12,3.71-11.53,6,2.73-.23,4.65-.4,6.55-.56ZM663.29,580.12c1.88-6.91,3.7-7.74,9.4-4.12-3.13,1.37-6.26,2.74-9.4,4.12ZM687.65,579.01c1.33-4.99,3.24-6.93,6.64-6.16,1.12.25,1.87,2.19,2.78,3.36-2.77.82-5.53,1.64-9.42,2.8ZM701.36,581c.07-6.36,2.93-5.51,7.4-3.41-3.09,1.42-5.24,2.42-7.4,3.41ZM643.34,618.76c-19.95,10.93-78.96,6.41-88.88-7.58,29.64,10.6,58.7,16.45,88.88,7.58ZM525.32,658.87c-4.73.36-7.2-2.32-9.39-5.64-10.67-16.16-16.18-34.12-18.7-53.14-.23-1.75-.62-3.47-.94-5.2,4.96.96,9.91,1.92,14.87,2.88,4.06.78,8.12,1.56,12.22,2.34.65,19.59,1.29,39.1,1.94,58.76ZM689.86,688.97c-2.21,6.59-6.92,10.18-13.97,9.78-12.59-.71-25.23-1.21-37.73-2.75-8.01-.99-7.85-2.96-4.82-10.39,4.94-12.12,9.05-24.59,13.01-37.07,1.26-3.98,2.49-5.53,7.05-5.24,12.28.78,24.61.8,36.91,1.1,1.79.04,3.59,0,6.2,0-.82,15.66-1.91,30.38-6.66,44.56ZM770.3,698.1c-22.76.16-45.53.07-68.29.05-1.64,0-3.29-.14-4.93-.21,1.81-1.26,3.54-1.86,5.32-2.03,12.21-1.21,19.06-8.26,22.13-19.77,1.39-5.24,3.25-10.35,4.9-15.51-2.18,8.64-4.36,17.28-6.59,26.09,17.31-.21,34.61-.42,51.92-.63-1.49,4.01-2.97,8.01-4.46,12.02ZM774.76,606.36c-14.97,5.66-16.33,5.09-19.12-10.5-.63-3.55-.96-7.15-1.32-9.88,6.42-3.36,12.07-6.33,18.4-9.65v25.86c.54.01,1.08.03,1.63.04,4.06-13.16-2.38-27.96,5.57-40.51.62.07,1.23.15,1.85.22,0,5.6-.02,11.2,0,16.79.03,5.66-.53,11.41.33,16.95.99,6.43-2.04,8.67-7.34,10.67ZM802.08,510.39c-2.25,7.16-12.22,8.1-17.23,12-.44-1.8-.87-3.6-1.29-5.4-.78-3.39-.32-7.62,1.06-10.83,2.34-5.47,5.81-10.46,8.94-15.58.53-.87,1.68-1.35,2.54-2.01.65.87,1.55,1.64,1.91,2.62,1.54,4.22,3.14,8.44,4.26,12.77.76,2.97.39,4.62-.18,6.44Z"/>
    </g>
    <path class="cls-1" d="M569.72,549.12c-2.11,3.66-4.23,7.33-6.34,10.99-2.15.72-4.33,2.13-6.46,2.06-19.97-.66-39.95-1.27-59.7,2.45-10.42,1.96-13.18,5.86-12.93,16.09,0,0,.14-.04.14-.04-1.57-10.94-3.15-21.89-4.92-34.22,28.8,1.39,56.47,2.72,84.14,4.05.05-.48.1-.95.14-1.43-12.14-1.28-24.27-2.56-36.41-3.84,0-.38.02-.76.03-1.14.68-.1,1.38-.34,2.05-.28,12.75,1.11,25.5,2.23,38.23,3.47.73.07,1.36,1.21,2.03,1.85Z"/>
    <path class="cls-1" d="M183.78,629.06c-9.31-.27-18.54-1.02-28.48-4.78,7.11-4.8,14.22-6.05,21.45-6.54,3.03-.2,4.87-.24,6.73-3.61,3.94-7.09,15.47-6.01,20.87,1.43.76,1.04,1.34,2.21,2.33,3.86,2.51-8.43,6.52-14.76,15.88-14.91,9.78-.16,15.17,6.69,20.66,13.52-2.1-.22-4.19-.49-6.29-.66-9.64-.78-14.77,2.46-18.62,11.5-.43,1.01-1.75,2.4-2.59,2.35-10.7-.62-21.38-1.48-32.09-2.28.64-.97,1.29-1.94,1.94-2.9,7.58-11.26,10.71-11.4,18.18-.8-.68-5.92-4.33-10.07-8.47-9.62-4.92.53-12.01,8.82-11.51,13.44Z"/>
    <path class="cls-1" d="M270.18,628.46c.46,3.08.63,6.17-3.86,6.79-36.29,4.98-72.53,6.74-108.67-1.45-3.85-.87-5.96-2.48-5.49-6.35,39.07,9.25,78.19,8.16,118.01,1.01Z"/>
    <path class="cls-1" d="M269.48,626.44c-16.72,1.84-32.42,3.57-48.55,5.34.11-6.14,2.8-9.66,7.05-11.45,6.79-2.87,13.3-1.84,19.59,3.9-.63-2.48-1.05-4.13-1.46-5.78,7.66-1.18,19.38,2.27,23.36,7.99Z"/>
    <path class="cls-1" d="M366.55,609.06h-27.79v-3.67c7.84,4.61,16.82,2.68,25.55,2.5.78-.02,1.56.35,2.34.54-.03.21-.06.42-.1.63Z"/>
    <path class="cls-1" d="M32.5,452.84c2.11-9.15,4.2-18.31,6.35-27.45.49-2.08,1.15-4.12,1.73-6.19.45.12.89.24,1.34.36-3.17,11.07-6.34,22.13-9.51,33.2,0,0,.1.08.1.08Z"/>
    <path class="cls-1" d="M493.93,468.95c-.2,4.98-4.42,5.6-7.79,6.72-2.4.8-5.14.58-7.36,1.28,5.05-2.67,10.09-5.34,15.14-8.01,0,0,0,.01,0,.01Z"/>
    <path class="cls-1" d="M344.1,493.82c.4.8,1.26,1.7,1.12,2.38-2.53,12.19-4.06,24.59-9.71,36.02-5.4,10.94-14.32,18.07-23.84,24.77-.48-.3-.96-.6-1.44-.9,3.61-6.6,7.23-13.2,10.69-19.53-.18.05-1.2.32-2.84.75,8.89-13.41,20.18-24.86,24.65-40.39.46-1.04.91-2.08,1.37-3.11Z"/>
    <path class="cls-1" d="M668.59,185.59c-5.28,1.78-6.64,6.6-8.35,11.04-1,2.61-1.57,5.38-2.43,8.43-1.32-.07-2.71-.13-4.52-.22,1.65-6.11,3.18-11.8,4.71-17.48-.37-.13-.74-.26-1.11-.39-1.93,5.72-3.87,11.44-6.04,17.86-2.21.82-2.97-.43-2.56-3.63.57-4.48.75-9,1.09-13.51-.57-.05-1.14-.11-1.71-.16-.52,5.58-1.03,11.15-1.55,16.73-.28.04-.55.09-.83.13-1.65-5.77-3.29-11.54-4.94-17.31-.48.13-.97.25-1.45.38,1.18,5.51,2.36,11.01,3.55,16.52-.41.37-.83.74-1.24,1.1-.98-.86-2.75-1.67-2.8-2.58-.41-7.11-2.89-13.2-8.61-17.88,8.42,0,16.29.08,24.16-.03,3.98-.06,7.95-.56,11.93-.67,1.13-.03,2.28.59,3.43.91-.24.26-.47.52-.71.78Z"/>
    <path class="cls-1" d="M740.31,185.97c-2.64,3.71-5.29,7.43-7.93,11.14-.64,1.33-1.53,2.6-1.86,4-.88,3.75-2.94,3.94-6.44,1.95.98-5.11,1.99-10.4,3-15.68-.34-.12-.68-.25-1.02-.37l-6,17.49c-2.64-5.69-1.77-12.03-5.91-16.73-.94,5.56,3.12,11.55-1.08,16.86-2.39-7.27-4.51-13.73-6.63-20.17,10.03,0,20.78-.03,31.53.07.79,0,1.57.94,2.35,1.45Z"/>
    <path class="cls-2" d="M161.72,253.97v-35.84c.07,0,.14,0,.21,0v35.98c-.07-.05-.14-.09-.21-.14Z"/>
    <path class="cls-1" d="M668.24,486.29c-3.23,2-6.37,4.19-9.72,5.98-7.75,4.14-15.45,8.43-23.48,11.97-4.28,1.89-9.18,3.28-13.81,3.32-12.29.11-24.59-.61-36.89-1.05-1.4-.05-2.78-.45-5.82-.96,9.15-6.04,16.99-11.25,24.86-16.4,7.78-5.1,15.78-9.88,23.35-15.28,6.02-4.29,11.59-6.72,19.67-5.32,11.05,1.92,22.53,1.36,33.82,2.03,3.07.18,6.1.99,9.14,1.5.14.45.28.9.42,1.35-2.3,1.64-4.61,3.28-6.91,4.93-1.56-1.29-2.98-3.44-4.71-3.72-7.18-1.19-14.46-1.82-21.71-2.63-.65-.07-1.79-.18-1.89.06-.43,1.06-.56,2.23-.8,3.37,1.98.18,3.36.31,4.66.43-.12,1.21-.2,2.05-.34,3.57,3.73-1.2,6.79-2.18,9.19-2.95-.17,1.36-.38,3.11-.61,4.92-5.61.64-6.01,1.24-3.68,6.09,1.73-.4,3.49-.8,5.26-1.21ZM625.37,486.68c-1.23,2.83-2.47,5.65-3.7,8.49,1.29,1.15,2.52,2.05,3.48,3.17.73.85,1.12,1.99,1.66,3.01-1.03.07-2.07.14-3.1.22-1.34.09-2.68.18-4.03.27.02.7.04,1.4.07,2.1,2.82,0,5.68.26,8.45-.12,1.18-.17,2.17-1.69,3.24-2.6-.83-.92-1.54-2.03-2.53-2.73-1.46-1.04-3.13-1.8-4.74-2.69,1.55-2.13,2.9-4,4.1-5.65-1.15-1.36-2.09-2.48-3.04-3.59,5.09,1.31,4.98-4.26,7.76-6.13,2.4-1.61,3.57-5.05,5.28-7.69-.59-.4-1.17-.81-1.76-1.21-5.83,3.37-8.05,9.62-11.15,15.16ZM639.78,490.09c7.67,2.4,9.09,1.34,10.81-8.13-2.69,0-6.09-1.01-7.59.25-1.87,1.58-2.17,5.02-3.23,7.87ZM618.24,492.04c-3.54-.82-6.7-5.56-11.69-.43,4.4,1.03,7.67,4.65,11.69.43ZM644.63,471.42c2.7,3.83,4.51,6.41,6.32,8.98.31-.12.62-.23.94-.35v-7.51c-1.83-.28-3.88-.6-7.25-1.12ZM619.1,500.39l-.17-1.66c-3.46-2.24-6.5-2.17-8.56,3.22,2.91-.52,5.82-1.04,8.72-1.56ZM658.54,489.87c.23-.55.45-1.11.68-1.66-1.24-.62-2.53-1.81-3.7-1.7-1.38.13-2.65,1.38-3.96,2.15.17.41.35.81.52,1.22h6.46Z"/>
    <path class="cls-1" d="M69.14,107.09c5.56-1.32,11.16-2.47,16.66-4,99.39-27.55,199.46-52.4,299.92-75.73,2.6-.6,5.31-.96,7.74-1.97,10.23-4.28,20.17-2.82,30.65-.22,54.65,13.54,109.46,26.46,164.16,39.8,39,9.51,77.86,19.61,116.91,28.94,19.26,4.61,38.79,8.08,58.2,12.06,1.67.34,3.36.63,4.95,2.09-1.56.17-3.11.37-4.68.51-29.19,2.46-57.66-1.04-86.1-8.16-80.15-20.06-160.51-39.25-240.79-58.76-8.09-1.97-16.17-4.01-24.33-5.66-2.66-.54-5.67-.42-8.32.22-53.91,13.04-107.82,26.08-161.66,39.38-37.51,9.26-74.82,19.37-112.45,28.13-12.36,2.88-25.41,2.94-38.17,3.82-7.49.51-15.04.09-22.57.09-.04-.18-.09-.36-.13-.55Z"/>
    <path class="cls-1" d="M565.82,566.67c-1.27.11-2.54.23-4.13.37.45.62.63,1.14.97,1.29,5.1,2.15,10.37,3.97,15.29,6.46,2.81,1.43,4.56,5.55,8.65,2.24.46-.37,2.06.66,4.41,1.49-3.45.81-5.72,1.35-8,1.86-27.34,6.17-54.73,6.91-82.1.31-3.02-.73-6.1-1.91-8.66-3.62-4.47-2.98-4.09-5.82.9-7.75,3.24-1.25,6.65-2.35,10.07-2.76,19.52-2.29,39.08-3.59,58.7-1.39,1.29.14,2.56.5,3.85.76.02.25.03.49.05.74Z"/>
    <path class="cls-1" d="M563.58,598.1c7.48-10.32,66.95-9.22,79.12-.25-9.61,11.18-68.45,11.36-79.12.25Z"/>
    <path class="cls-1" d="M218.63,360.53c-.81,46.3-1.61,92.6-2.24,128.48,0-12.65-.22-35.71.06-58.76.28-23.32,1.07-46.63,1.63-69.95.18.08.36.15.55.23Z"/>
    <path class="cls-1" d="M104.22,472.64c5.75,4.37,11.49,8.75,17.24,13.12-7.83-1.64-13.19-6.52-17.24-13.12Z"/>
  </g>
</svg>