<?xml version="1.0" encoding="utf-8"?>
<!-- Generator: Adobe Illustrator 28.3.0, SVG Export Plug-In . SVG Version: 6.00 Build 0)  -->
<svg version="1.1" id="Layer_1" xmlns="http://www.w3.org/2000/svg" xmlns:xlink="http://www.w3.org/1999/xlink" x="0px" y="0px"
	 viewBox="0 0 704.8 842.7" style="enable-background:new 0 0 704.8 842.7;" xml:space="preserve">
<style type="text/css">
	.st0{fill:#FFFFFF;}
</style>
<g>
	<path class="st0" d="M109.9,149.2c-9.6,12.5-4.5,33.2,5.7,74.6c11,44.5,19.3,44,17.2,59.7c-4.7,36.1-48.5,37.8-84.9,90.7
		c-15.1,21.9-20.7,40.7-29.8,71.2C4.3,491.6-7.2,529.8,5.5,570.5c12.6,40.3,36,41.7,39,75.8c3.6,40.1-27.9,49.7-25.1,81.9
		c4.7,54,100.2,94.8,176.9,103.6c67.4,7.7,82.6-22,161-6.4c41.6,8.3,61.3,21.5,102,15.9c30.7-4.2,33.4-13.6,79.7-23.9
		c50-11.1,56.2-2.3,86.1-14.3c13.2-5.3,54.8-22.1,68.5-59c11.6-31.2-10.5-39.7-8-90.8c2.7-53.1,27.8-68.4,15.9-105.2
		c-6-18.8-15-22.6-19.6-33c0,0-1.8-5.6-2.7-11.6c-6.3-39.8,21.9-152.6-9.3-178.2c-19.1-15.7-53.8,6.7-61.9-7.2
		c-8.3-14.5,29.4-38.8,21.8-65.4c-2.8-9.6-17.6-19.6-47.1-39c-33.2-21.9-37.9-21.5-40.2-28.7c-8.8-28.5,58.1-58.5,50.9-90.5
		c-4.8-21.3-39.4-30-44-31.2c-55.8-14.1-84.4,37.6-138.9,26.4c-20.5-4.2-16.2-11.5-68.9-43.6C285,11.2,254.2-7.5,236.5,2.8
		c-30.6,18,12,103.8-25.6,133.8C180.7,160.8,128.9,124.6,109.9,149.2z"/>
	<g>
		<path d="M567.9,539.5c-24.9,16.3-44.7,36.9-55.2,65.2c18.1-22.2,40.3-37.6,68.6-43.5c2.1-0.4,4.4-0.1,6.8,0.6
			c-40.5,17.6-61.8,41.9-72.1,56.1c-15.9,22-28.4,51.7-26.1,53.1c1,0.6,4.6-3.4,6.4-5.5c4.4-5.4,5.9-10.8,6.3-12.2
			c1.7-5.5,5.7-13.5,16.3-24.1c-1.5,3-3.1,6.7-4.4,11c-2.2,7.5-2.5,14.2-2.4,19.1c8.1-18.6,23.5-44.5,51.7-57.8
			c2.4-1.1,4.8-2.2,7.2-3c-8.5,7.6-18.3,17.8-27.8,31c-8.3,11.4-14.3,22.2-18.7,31.6c11.6-10.8,23.8-20.6,37.6-28.2
			c13.6-7.5,27.7-13.6,43.8-13.9c-27,16.3-54.3,32-71.6,60c1.2-1,2.5-2,3.8-3c14.9-13.1,31.8-21.5,52.1-20.7
			c16.6,0.6,31.3,6,42.4,19.2c0.8,1,1.8,2,2.3,3.2c0.4,1.1,0.3,2.4,0.3,3.6c-1.2,0-2.5,0.2-3.7-0.1c-1.2-0.4-2.3-1.3-3.4-2
			c-18.4-12.4-38.3-13.2-59-7.8c-9.6,2.5-16.1,9.5-22.4,16.8c3.1,3.1,5.8,2.3,7.9-0.3c6.9-8.6,17.1-8.5,27.4-11
			c-4,7.1-13.4,8-15.2,17c4.8-3.4,8.9-6.3,13-9.2c0.5,0.5,1,1,1.6,1.5c-1.9,2.5-3.8,5.1-6,7.9c1.4,3.4,3.8,3.8,6.9,1.7
			c4-2.7,7.7-5.9,12-8.1c7.5-3.8,15.3-4.9,22.9-0.2c1.8,1.2,2.8,3.7,4.2,5.6c-2.2,0.5-4.4,1.5-6.6,1.6c-5.6,0.2-11.2-0.2-16.8,0.2
			c-2,0.2-3.9,2-6.6,3.5c10.3,3.6,19.6,6.7,28.7,10.1c8.1,3,16.3,6,24.1,9.6c4.9,2.3,10.1,5.6,10,12c-0.1,6.4-5,10-9.9,12.8
			c-9.9,5.7-21.1,7.1-32.2,8.3c-10.6,1.1-21.2,1.8-31.9,2.8c-1.6,0.1-3.3,0.5-4.9,0.7c-0.2,0.7-0.4,1.2-0.3,1.6
			c2.3,13.1-2.5,22.2-15.6,25.1c-9.1,2-18.9,2.2-28.2,1.5c-11.9-0.8-23.7-3.5-35.6-5c-2.2-0.3-5.3,0.8-6.8,2.4
			c-23.3,24.7-60.5,30.6-90.9,13.9c-6.1-3.3-11.3-8.1-17-12c-1.4-1-3.1-1.8-4.8-2.2c-1.8-0.5-3.6-0.3-5.5-0.5
			c-11.3-1.2-21.2,0.5-31.5,7.1c-23.5,15.2-50.2,18.8-77.8,15.7c-11.2-1.3-21.1-5.2-26.6-16.1c-1.9-3.7-5.2-2.4-8-1.8
			c-7.4,1.8-14.8,4.1-22.2,5.8c-14.2,3.2-28.4,3.6-42.4-1.1c-14-4.6-23.7-13.7-28.9-27.7c-0.8-2-2.6-4.4-4.5-5.1
			c-9.3-3.8-11-8.8-5.4-17.3c0.3-0.4,0.3-0.9,0.8-2c-2.7-0.2-5-0.5-7.4-0.5c-14.5-0.5-29-0.5-43.4-1.4c-8.7-0.5-17.1-2.6-24.4-8
			c-8.8-6.5-8.6-14,1.4-18.1c10.4-4.4,21.4-7.3,32.2-10.7c3.2-1,6-1.5,5.8-5.9c-0.1-1.5,2-3.1,3.2-4.9c2.3,3,3.8,6.8,5.6,7
			c3.7,0.4,7.6-1.1,11.4-1.8c0.1-0.7,0.2-1.4,0.4-2.1c-3.6-1.7-7.3-3.3-10.7-5.3c-1.7-1-2.8-2.9-4.2-4.4c2.1-0.8,4.3-2.3,6.3-2.1
			c6.1,0.6,10.9,4,14.6,8.8c2.1,2.7,4.2,3.2,7.3,2.4c5.6-1.5,11.3-2.6,18.4-4.2c-3-2.5-4.9-4.5-7.2-5.8
			c-18.3-10.1-36.8-10.4-55.4-0.6c-3.2,1.7-6.4,3.2-9.7,4.9c1.9-3.1,5.1-7.3,9.8-11.4c3.1-2.7,10.6-8.4,21.8-10.8
			c11.6-2.5,20.8,0,25.8,1.2c8.1,1.9,15.8,5.4,23.1,10.4c2.3,1.5,4.7,2.8,7.6,4.5c-9.8-32.6-39-52.4-81.6-29.8
			c1.2-1.7,2.1-3.7,3.5-5.1c8.7-8.6,19.7-12.4,31.6-13.1c19.5-1.2,37.6,3,53.8,14.5c-2.2-4.4-4.9-9.2-8.3-14.2
			c-4.4-6.6-9-12-13.2-16.3c3.5,1.9,8,4.8,12.8,8.8c1.2,1,6,5.1,11.6,11.7c3.5,4.2,6.4,8.9,9.6,13.4c3.1,4.4,6.2,8.9,9.3,13.3
			c0.4-0.2,0.8-0.4,1.2-0.6c-1.6-4.5-2.9-9.1-5-13.4c-5.7-11.9-11-23.9-17.6-35.2c-7.6-12.9-18.9-16.4-33.4-11.9
			c-2,0.6-4,1.2-5.9,1.9c2.8-3,5.6-5.1,7.6-6.5c3.2-2.2,7.1-4.7,12.4-5.2c2.9-0.3,5.1,0.2,6.5,0.5c10.4,1.9,20.5,4.7,30.4,7
			c-10.6-21.2-28.3-36.7-49.6-48.7c11.6,2.7,20.5,6.9,26.5,10.3c6.7,3.8,18.7,10.5,27.9,23.4c2.4,3.4,2.8,4.5,14.3,22.2
			c2.1,3.2,3.8,5.8,5,7.6c-0.9-4.3-1.8-8.1-2.6-11.9c-4.1-19.4-8.6-38.7-12.3-58.2c-2.7-14-7-27.4-14.2-39.8
			c-2.2-3.7-3.9-7.6-5.2-11.9c13.7,20.1,21.5,37.9,26,50.7c11.6,32.7,27.1,101.5,27.5,103.3c0.2,0.9,0.6,1.8,1.4,2.5
			c-1.1-39.2-7.1-77.7-16.8-115.7c4.5,9.9,8,18.2,10.4,24.2c4.8,12,7.4,18.7,9.8,27.9c2.6,10.2,3.7,18.7,4.2,24.5
			c1.8-3,3.8-7.1,5.2-12.2c2.4-8.6,2-16,1.4-20.6c1.3,3.9,2.9,9.8,2.9,16.8c0,10.4-3.2,16.4-1.9,17.1c1.8,0.8,10.1-7.9,11.2-19.1
			c0.3-3,0.1-6.4-2.4-14c-4.6-13.9-10.6-22.4-23.1-43.7c-2.3-3.9-4.1-7-5.1-8.9c3,2.8,7.2,6.9,11.9,12.2c6,6.8,16.5,19.7,30.7,48.8
			c11.5,23.6,27.6,62,29.8,71.9c0.7,3.3,2,5.9,4.4,11.1c1.4,2.9,2.2,4.2,3,4.2c1.7-0.1,2.5-6.3,2.8-8.2c3.5-26.5-5.8-60.6-5.8-60.6
			c-3.9-14.4-5.9-21.6-8.3-26.9c-5.5-12.2-8.4-12.8-39.7-50.2c-10.2-12.2-14.6-17.7-23-19.7c-6.2-1.5-10.1-0.3-21-2.6
			c-5.8-1.2-11-2.3-15.6-6.3c-5.4-4.7-6.9-10.8-9.2-20.2c-0.7-2.9-1.1-9.1-1.8-21.4c-0.2-4.2-0.3-5.6,0.7-6.2
			c1.9-1.4,5.9,1.1,24.1,15.4c13.7,10.8,14.9,12.2,16.1,13.6c6.7,8.4,5.7,12.6,12.3,21.6c3.1,4.3,3.8,3.9,14.9,14.3
			c9.1,8.5,17.5,16.5,27.2,26.8c5.3,5.6,7.5,8.2,8,7.8c1.4-1-10.8-18.1-21.4-44.4c-4.4-11-2.4-8.3-8-23c0,0-13.7-35.9-31.7-58.1
			c-3.4-4.2-8.4-8.5-8.8-8.8c-3.9-3.7-8.4-5.3-13.9-5.6c-19.5-1-36.3-14.9-41.6-33.6c-1.6-5.8,0.1-8.4,6.1-8.4
			c14.1-0.1,27,3.7,38.1,12.7c6.9,5.6,10.8,12.9,10.6,22.2c0,1.4,0.8,3.2,1.9,4.1c24.9,21.5,40.7,49,52,79.4
			c2.8,7.6,5,15.5,8.5,23.3c4.4-24.2,8.8-48.4,13.2-72.6c0.6,1.6,1.3,3.9,1.8,6.8c1.2,7.4-0.2,13.1-1.1,17.4
			c-1.4,7.2-1.3,14.6-1.9,22c-2.9,31.4,4.9,63.3,8.9,72.1c1.7,3.9,2.6,8.2,4.3,13.3c4.2-27.1,0.7-53.1-1.1-79.1
			c1.7,5.8,4.3,15.2,6.2,27.1c4.3,27.7,0.4,41.6,3.3,70.8c0.8,8,2.4,20.1,5.9,34.8c0.3-4.7,0.6-11.4,0.9-19.4
			c0.6-18.7,2.3-49.3-1.9-88.9c-3.5-32.4-7.5-64.9-13-97c-4.4-25.9-14.1-50.3-28-72.9c-6.9-11.2-15.9-18.1-29.7-18.9
			c-18.1-1.1-33.5-6.6-46.2-15.5c-18.6-13.1-27.1-33.4-36.8-61.1c-7.6-21.8-3.1-21.9-10.4-37.6c0,0-10.4-22-6.9-31.1
			c0.8-2.1,2.2-3.6,2.2-3.6c3.5-3.5,7.9-4.2,12.5-2.2c2.2,1,4.3,2.5,6.1,4.2c9.4,8.9,20.6,13.5,33.2,16.2
			c15.4,3.3,31.2,6.2,45.7,12.2c24.3,10.1,41.4,27.7,46.7,54.6c2.6,13.2,0.2,25.8-5,38.1c-2.1,4.9-4.1,9.8-6.2,14.7
			c-2.8,6.6-2.2,12.8,1.3,19.1c5.9,10.8,11.5,21.8,16.8,32.9c14.9,31.6,22.6,65.5,28.6,99.6c8.6,49.1,10.2,98.7,10.5,148.4
			c0,4.3,0.1,8.7,0.2,13c0,0.3,0.2,0.6,1.2,1c0-1.7,0-3.4,0-5.1c-0.4-32-0.6-64-1.4-96c-1.3-55.1,5.3-109.4,17.3-163.1
			c9.3-41.5,8.1-82.7-2.8-123.7c-1.9-7.2-4.7-14.2-7.5-21.1c-4-9.6-11.2-15.9-21.2-19.1c-6.7-2.1-13.4-4.1-19.9-6.6
			c-35.5-14.1-55.1-47.3-50.7-85.7c0.9-7.6,2.1-15.2,3.1-22.8c1.2-9.1,0.6-17.9-2.4-26.7c-1-3-1.6-6.1-2.1-9.2
			c-0.8-5.1,0.8-9.3,5.4-11.9c4.5-2.5,9-2,13.2,0.8c1.6,1.1,3.1,2.5,4.4,4.1c10.3,12.5,23.5,20.9,37.8,28.2
			c11.1,5.7,22.1,11.7,32.1,19.1c14.1,10.3,23.5,24.5,27.2,41.9c2.7,12.8,0.7,25.2-4.7,37.1c-2.5,5.4-5.4,10.7-8,16.1
			c-4.7,9.8-6.4,20-3.2,30.6c8.3,27.3,14.6,55.1,17.2,83.6c0.1,0.9,0.4,1.8,1,4.2c1.4-4,2.5-6.5,3.3-9.1
			c6.8-24.2,15.9-47.4,28.6-69.1c1.2-2,2.2-4.1,3.3-6.2c4.4-7.8,5.5-15.8,4-24.9c-6.8-39,12.4-69.4,50.1-79.5
			c9.2-2.5,19.1-2.5,28.6-3.9c10.5-1.5,21.1-2.7,31.4-5.1c5.7-1.3,11-4.7,16.2-7.6c4.5-2.6,9-3.4,13.8-1.4
			c7.5,3.1,9.5,10.9,4.3,17.1c-1.6,1.9-3.4,3.7-5.5,5c-8.2,5.2-12.8,12.9-16.1,21.7c-3.8,10.1-7,20.6-11.8,30.2
			c-14,28.4-37.8,42.4-68.9,45.1c-6.5,0.6-13,0.7-19.4,1.5c-3.4,0.4-7.5,0.9-9.9,2.9c-7.1,6-14.1,12.3-19.8,19.5
			c-3,3.7-2.9,9.8-4.8,14.5c-14.7,37-22.8,75.9-32,114.4c-10,41.9-10.1,84.6-8.7,127.3c1,31.3,2,62.6,3.1,93.9
			c0.2,5.5,0.7,11,1,15.4c0-38.6,0-78.2,0-117.8c0-25.5,0.2-51,6.7-76c5.6-21.5,14.2-41.6,27.2-59.7c6.8-9.4,10.6-19.2,11.1-31.3
			c2-42.8,29.3-71.8,72.9-79.3c18.5-3.2,36.8-2.6,54.8,3.1c14.3,4.6,28.8,7,43.8,5.4c5.4-0.6,10.3,0.9,13.7,5.6
			c3.7,5.1,2.9,9.9-2.5,13.2c-2.4,1.5-5,2.6-7.7,3.6c-10.5,4-18.3,11.2-25,20c-7.7,10.2-14.9,21.1-23.8,30.1
			c-22.1,22-50,28.7-80.3,27.4c-3.2-0.1-6.3-0.2-9.5-0.6c-21.6-2.7-36.1,7.1-45.9,25.6c-11.9,22.6-19.2,46.7-21,72
			c-2,29.4-2.3,58.9-3.4,88.3c0.6,0.1,1.2,0.1,1.8,0.2c5.4-11.3,11-22.5,16.2-33.9c1-2.2,0.1-5.2-0.2-7.9c-2.5-21.2-1.3-42.2,3.8-63
			c0.4-1.7,1.1-3.3,2.7-4.7c-1.6,9.6-2.8,20.9-2.8,33.6c0,13.6,1.2,25.6,2.9,35.6c3.2-5.1,6.4-8.7,8.4-10.8
			c10.6-11,27.1-20.3,35.2-28.2c0.6-0.6,2.6-1.4,2.8-3.4c1.1-12.7,9.6-19.2,20.3-22.8c13.3-4.4,27-3.9,40.4,0
			c8.7,2.6,10.5,8.2,4.8,15.4c-8.6,10.9-19.8,18.7-32.7,23.9c-2.8,1.1-5.7,1.9-8.6,2.5c-6.2,1.2-12.2,0.3-17-3.9
			c-4.3-3.8-8.4-3.1-12.1-0.1c-6.1,4.9-12.4,9.7-17.3,15.7c-6.9,8.5-12.6,18-18.7,27.1c-2.9,4.3-2.9,8.5-1.1,13.6
			c3.4,9.4,5.7,19.1,8.4,28.7c0.6,2.2,1.1,4.3,2.1,6.5c5.9-26.3,11.4-52.5,32-72.1c-5.8,17-13.5,33.3-15.9,51.2
			c-2.4,18-5.1,35.9-6.8,54.2c7.3-7.8,11.9-17.1,15.2-27c3.7-10.8-0.3-21-4.3-31.7c6.2,4.7,10.2,14,12.2,25.6
			c1.7,10.2-2.7,18.4-7.5,27.4c1.7-0.8,3.9-1.3,5-2.6c4.7-5.2,9.2-10.5,13.4-16.2c1-1.4,0.9-4.1,0.4-6c-2.9-11.8-6.1-23.5-9.2-35.3
			c-0.6-2.2-1-4.4-1.5-6.6c3.6,3.6,6,7,7.7,9.5c5.2,7.9,7.7,15.7,9.9,22.5c0.7,2.2,1.2,4,1.6,5.2c6.8-7.2,11.6-13.5,14.6-17.6
			c16.8-23.5,18.2-38.6,35.5-60.6c4.8-6.2,9.3-10.7,11.9-13.4c-12.5,23.8-24.9,47.5-37.3,71.3c4.4,0.1,10.4-0.5,15.1-4.5
			c1.8-1.5,2.8-3.1,3.1-3.6c5.3-8,22.3-24.5,33.7-31.8c6-3.8,21.6-12.2,48.7-9.9c-1.2,0.7-3.2,1.7-5.8,2.8
			c-6.9,2.9-11.6,3.3-18.3,4.8c0,0-6.9,1.6-14,4.3c-4.9,1.9-29.6,11.9-36.6,33.3c-0.2,0.6-0.3,1.1-0.4,1.3c0.8-0.1,4.7-0.8,8.3,1.7
			c2.4,1.7,3.4,4,3.7,4.9c-2.3-0.9-7.5-2.4-12.6-0.2c-3.7,1.6-6.6,5-8.5,10c-6.1,16.1-9.1,32.9-11.2,50.1c5.2-9.1,14.6-23.1,30.5-36
			C542.2,549.1,557.9,542.7,567.9,539.5L567.9,539.5z M296.1,747.9c19.9-13.4,40.3-25.6,65-27.2c24.1-1.6,47,5,69.1,14.2l0.6-1.4
			c-5.5-3.7-10.9-7.3-16.4-11l0.6-1.1c9.9,4.7,19.8,9.3,29.8,14.1c-9-9.7-20.5-15.6-31.7-21.9c22.9-1.7,42.8,7,62.4,17
			c-22.9-21.7-50.6-30.4-81.5-29.3C354.8,702.7,321.4,717,296.1,747.9L296.1,747.9z M275.4,119.5c0.7,1,2,2.5,3.7,4.1
			c2,1.8,3.7,2.8,4.4,3.2c9.3,5.6,18.1,9.9,24,14.3c4.9,3.6,9.9,11.6,19.9,27.5c2,3.3,4.9,7.9,3.6,9.2c-1,1.1-4.4-0.5-6.1-1.4
			c-13.8-6.7-26.4-13-31-15.4c7.9,7.1,15,11.3,20,13.7c11.6,5.8,19.4,6.2,22,12.8c0.7,1.9,1.8,6.3,5.1,12c0.7,1.2,1.9,3.3,2.4,3.2
			c0.7-0.3-2.1-7.4-3.5-13.8c-0.5-2.2-1.4-7.6,1.5-26.8c2.9-19,5.2-22.7,4-32.2c-0.8-6.4-2.7-11.5-4.2-14.8c1,6.6,1.9,16.3,0.7,27.9
			c-1.2,11.7-4.9,27.6-8,27.5c-0.8,0-1.1-1.1-2.8-5.3c-1.5-3.6-6.2-14.2-10.1-22.7c-1.2-2.6-2.4-5.2-3.7-7.8
			c-2.8-5.7-3.4-11.1-2.2-17.3c1.1-5.8,0.8-11.9,0.7-17.9c0-2.4-1-4.9-1.6-7.3c0.2,3.2,0.3,8.2-0.4,14.3c-0.5,5.1-1.4,13.6-3.9,13.9
			c-0.9,0.1-1.7-0.8-4.4-5.1c-3.7-5.9-5.6-8.8-6.9-12.1c-4.1-9.8-4.6-18.3-5.1-18.2c-0.5,0.1,1.2,8.8-0.7,9.6
			c-1.7,0.7-6.4-5.2-16.6-24c4.2,11,8.7,19.3,12.1,24.8c13,21.5,19.6,32.3,20.8,34.1c0.2,0.2,0.7,1,1.1,2.1c1,2.6,0.7,5.6,0.1,6.4
			C308.8,139.6,301.3,136.9,275.4,119.5L275.4,119.5z M313.6,716c-23.4-16.7-48.6-20-75.5-10.2c-17.6,6.5-34,19.7-34.9,28.3
			c12.6-8.7,25.2-16.3,39.9-18.8c-6.8,5.4-13.7,10.9-20.7,16.5c10.3-3.8,19.6-9.3,29.6-12.4c10-3.1,20.8-3.9,31.1-5.7
			c-3.6-1.5-7.5-3-11.5-4.6C286.4,707.7,300.3,710.2,313.6,716L313.6,716z M212.8,243.8c0,0,4.3,4.8,3.7,5.4c-0.4,0.5-3.5-2.1-9.6-5
			c0,0-2-0.9-4.3-1.9c-3.2-1.3-8.2-2.9-15.2-3.6c6.1,2,14.7,5.5,23.9,11.7c13.1,8.9,26.4,22.7,24,26.4c-1.1,1.8-6.1,0.7-16-1.4
			c-7.9-1.6-14.2-3.6-18.4-5.1c1.2,1.6,2.7,2.7,4.4,3.2c8.1,2.5,16.1,5.5,24.4,7c8.1,1.5,14.1,5.2,18.4,12.1
			c0.3,0.5,0.8,1.2,1.7,2.5c2.6,4,3.9,6.1,3.8,6.4c-1.2,3.3-29.3-4.7-29.5-4c-0.1,0.3,5,2.4,11.5,4.1c9.3,2.5,9.8,1.1,14.7,3.4
			c6.3,2.9,9.5,4.3,11.6,7.1c0.4,0.6,1.9,2.8,3.5,2.6c0.1,0,0.8-0.1,1.2-0.7c0.9-1.3-1.5-3.9-2.4-5.6c-2.2-4.1,0.5-8.9,3.1-15.8
			c2.6-6.8,4.3-14,5.6-21.2c1.4-7.4-0.7-14.6-4.2-18.8c3.8,15.8,2,27.3-7.8,47.8c-5.3-7.6-10.5-15.1-15.7-22.5
			c-0.5-0.7-1.2-1.4-1.3-2.1c-0.2-2.2-0.5-4.5-0.2-6.7c0.6-6.1,3-17.9,2.7-24.2c-0.2-3.5-1.1-8.6-4.7-14.8c1.2,4.2,2.7,10.9,2.6,19
			c-0.1,5.7-1.1,18.4-4.8,19c-2,0.3-4-3.2-5.8-6c0,0-9.8-15.9-32.3-35.2c-3.4-2.9-8.8-7.2-16.2-11.5
			C200.8,230.7,208.8,239.3,212.8,243.8L212.8,243.8z M514.4,123.2c-3.8,2.3-7.2,4.2-10,5.9c-1.9,1.1-5.9,3.4-6.3,2.9
			c-0.2-0.2,0.4-0.7,0.7-1.8c0.3-1.2,0.1-2.4-0.2-3.2c-1.5,2.9-4.1,7.5-9,11.5c-3.6,2.9-7.7,5.2-11.9,7.3c-0.2,0-0.5-0.1-0.8-0.4
			c-1.1-1.1,0.1-4,0.5-5c0.9-2.4,2-6.2,2.5-12.4c-2.2,6-4.4,12-6.7,18c-0.8,2-1.4,2.8-2.1,3.7c-3,4.3-6.1,5.2-12.8,9.4
			c-6.4,4.1-7.4,5.9-8.7,5.3c-2.7-1.4-0.4-11.2,0.7-15.7c1.5-6.3,3.5-11.4,5.2-14.8c-2.2,2.7-3.6,5.2-4.4,6.8
			c-0.4,0.8-5.8,11.8-5,22.2c0.1,1,0.3,3.2-0.5,5.8c-0.9,2.8-2.6,4.6-3.3,5.3c-8.7,9.4-12.2,15.4-14,14.4c-1.1-0.5-0.9-2.9-0.7-4.7
			c0.5-5.8,0.8-13.9,0.7-24.9c-3,17.8-3.2,25.6-2.6,29.1c0.3,2.1,0.3,3.9-0.1,5.6c-0.4,1.5-0.9,2.2-3.4,6c-2.8,4.4-3.8,6.1-4.6,8.1
			c-0.4,0.9-1.7,4.1-1.2,4.4c0.8,0.5,4.4-8.5,13.3-14.1c3.4-2.1,6-3.4,11.4-4.4c6.5-1.2,13.1-2.3,19.6-3.6c3.6-0.7,7.2-1.7,10.9-2.5
			c-15.5,0.6-25.1,1.8-31.3,2.9c-1.7,0.3-5.7,1.1-6.5-0.4c-0.6-1.2,1.2-3.4,5.5-7.9c8.2-8.7,12.4-13.1,15.6-14.7
			c5-2.6,9.5-3.6,12.5-3.4c8.6,0.5,17.2,0.3,25.8,0.2c1.9,0,3.8-1.2,5.7-1.8c-4.5,0.6-10.2,1-16.8,0.4c-5.8-0.5-10.8-1.7-14.8-2.9
			c-0.9-0.2-2-0.5-2.2-1.2c-0.2-1.1,2.2-2.4,3-2.8c7.8-4.2,14.4-10.4,22.3-14.3C496.6,138.1,505,132.9,514.4,123.2L514.4,123.2z
			 M542.6,273.2c-16.5,2.4-23.1,3.9-25.4,4.9c-0.5,0.2-3.1,1.4-4.3,0.4c-0.1-0.1-0.5-0.4-0.6-1c-0.1-0.8,0.6-1.5,0.8-1.6
			c1-1,3.5-5,7.5-11.8c-1.3,1.6-3,3.8-5.3,6.3c-1.3,1.5-4.9,5.3-8.8,8.7c0,0-8.4,7-26.8,12.1c-1,0.3-3.7,1-5.8-0.3
			c-0.4-0.2-1.1-0.7-1.4-1.4c-0.7-2,1.8-4.6,2.5-5.3c2.9-3.1,8.1-10.8,16.7-25c-4.3,6-8.2,10.8-11.2,14.2
			c-18.2,21.4-31.9,29.3-35.5,31.3c-0.6,0.3-0.7,0.4-1.3,0.7c-11,6-20.1,14.2-27,24.7c-1.6,2.4-2.5,5.3-3.7,7.9
			c1.7-1.7,4.3-4.2,7.4-7.1c12.5-11.6,15.8-13.1,18-13.8c5.1-1.6,9-0.5,15,0.5c8,1.4,19.3,2.6,33.9,1.7c-10.4-0.6-42-2.6-44.2-6.3
			c-0.5-0.8-0.4-1.5-0.4-1.5c0.1-2.6,4.9-4.4,7.6-5.5c11.7-4.6,7.7-4.5,19.6-8.8c10.1-3.6,13.7-4,15.7-4.1c2.8-0.1,5.6,0,8.6,0.5
			c7.9,1.4,16,1.2,23.9,1.7c-4.1-0.6-10.8-1.7-19.1-2.8c-7-1-8.5-1.1-8.6-1.8C490,289.1,499.2,284.8,542.6,273.2L542.6,273.2z
			 M396.5,532c-1,0.3-1.5,0.3-1.5,0.5c-1,3.3-1.5,6.8-2.9,10c-8.5,18.9-7.2,37.7-0.3,56.7c1.2,3.4,2.1,6.8,3.4,11
			c2.6-2.7,4.2-5,6.4-6.6c4.3-3.2,5.1-7.2,4.2-12.3C402.5,571.6,399.5,551.8,396.5,532L396.5,532z M435.1,594.3
			c-29.2,0.4-73.5,67-62.9,94.5C386.1,652.5,400.9,617.1,435.1,594.3z M232.5,684.2c-27.2-14.9-92,4-101.1,25.1
			c23.2-8.4,46.5-13.3,69.7-14.8l-20-3c0-0.5,0-0.9,0-1.4C197.2,683.8,213.9,682.3,232.5,684.2L232.5,684.2z M449.6,642.2
			c0.4-6.3,0-13.6,1.7-20.5c1.8-7,5.8-13.3,8.6-20.1c1-2.4,2.1-5.1,1.9-7.6c-0.2-3.3-1.6-6.5-2.8-10.9c-7,8.4-12.9,15.3-18.5,22.5
			c-0.7,0.9-0.6,3-0.2,4.3C443.4,621,446.6,631.9,449.6,642.2L449.6,642.2z M476.4,633.2c5.9-30,9.4-60.6,23.1-89.3
			c-5.8,2-11.1,3.6-12.8,9C478.3,579,476.1,605.9,476.4,633.2L476.4,633.2z M245.2,652.9c0.4,0.1,0.8,0.2,1.2,0.3
			c0.3-0.7,0.6-1.5,0.9-2.2c5.8-14.7,11.4-29.5,17.6-44c2.5-5.9,0.8-10.2-3.2-15.2C249.6,610.9,246.3,631.6,245.2,652.9z
			 M317.1,685.6c-18.1-13-59.5-12.8-75.9,8.2C266.1,682.5,291,678.6,317.1,685.6z M164.8,605.2c11.4,16.6,22.6,33.1,34.1,49.8
			C196,634.1,179,609.4,164.8,605.2L164.8,605.2z M259.6,654c6.7-7.1,12.4-13,17.9-19.1c0.7-0.8,1-2.6,0.7-3.7
			c-1.4-5-3.2-9.9-5.1-15.7C266.9,628.1,260.6,639.4,259.6,654z M430.4,622.8c-4.4,5.7,3.6,31.2,11,34.8
			C437.9,646.4,434.3,635.1,430.4,622.8z M170.7,673.7c-5.6-13.9-15.4-23.4-24.5-26.8C152.3,653.6,161.5,663.7,170.7,673.7z
			 M444.6,277.3c-9.6,3.5-21.1,25.3-18.2,35.9C429.5,299,434.5,287.1,444.6,277.3z M455.9,448.9c5.5-2,11.3-4,17.5-5.8
			c8-2.3,15.5-4.2,22.6-5.7c-3.4,0.3-7.8,0.8-13,1.8c-3.7,0.7-8,1.6-13.4,3.5C465.9,444,461.2,445.9,455.9,448.9L455.9,448.9z
			 M197.7,394c1.3,1.1,3,2.5,4.9,4.2c-2.7-3-5.8-6.2-9.4-9.4c-7-6.2-13.9-10.7-19.8-13.9c0.6,0.6,1.7,1.5,3,2.6
			c2.4,2,4.2,3.4,4.9,3.9C186.8,385.4,192.4,389.6,197.7,394L197.7,394z M427.3,658.5c0.5-0.1,1-0.2,1.5-0.3
			c-1.1-6.4-2.3-12.9-3.4-19.3c-0.5,0.1-1.1,0.2-1.6,0.3C422.4,646.1,425,652.3,427.3,658.5L427.3,658.5z M380.4,608.5v16.8
			c0.6,0,1.1,0,1.7-0.1C381.5,618.6,380.8,611.9,380.4,608.5L380.4,608.5z M544.5,709.8c0,0.4,0,0.9,0,1.3h10.3c0-0.4,0-0.9,0-1.3
			H544.5L544.5,709.8z"/>
		<path d="M574.3,421.9c2.2-13.2,6.6-23.2,10-29.5c1.7-3.1,11.8-21.4,32.2-34.6c5.5-3.5,9.3-5.2,10.6-5.7c6.3-2.6,14-3.1,29.3-4
			c1.9-0.1,5-0.3,6,1.4c1,1.7-1,4.5-1.9,5.8c-21,29.3-38.3,39.6-38.3,39.6c-3,1.8-6.2,3.3-9.2,5C600.3,407,587.7,414.3,574.3,421.9
			L574.3,421.9z"/>
		<path d="M591.1,535.2c5.4-20,9.6-40.5,23.7-56.9c10.9-12.7,25-19.1,41.5-20.4c8.3-0.6,9.5,1.1,6.1,8.6
			c-14.3,31.4-34.1,44.9-34.1,44.9C619.9,518.1,607.7,527.1,591.1,535.2L591.1,535.2z"/>
		<path d="M138.2,528.1c-30-14.5-51.4-37.4-67.1-68.1c3.8,0,6.1-0.4,8.2,0.1c17.3,3.7,32.1,11.7,40.9,27.6
			c7.1,12.7,13.1,26.1,19.6,39.1C139.3,527.3,138.8,527.7,138.2,528.1L138.2,528.1z"/>
		<path d="M103.4,587.9c-22.5-5.5-59.9-43.1-61.1-61c1.7,0.1,3.3,0,4.8,0.3c19.5,4.1,34.5,14.5,43.3,32.7
			C94.7,568.9,98.8,578,103.4,587.9L103.4,587.9z"/>
		<path d="M681,580.6c-3.6,1.6-5.6,2.6-7.7,3.5c-25.2,10.3-52.5,7.5-79.8,12.9c2.2-3.2,3.6-5.8,5.5-7.8c12-12.6,26.9-18.7,44-17.4
			c10.7,0.8,21.2,3.6,31.8,5.7C676.5,577.9,678,579.1,681,580.6L681,580.6z"/>
		<path d="M428.9,433.3c-1.9-9.5-1.3-18.7,0.7-27.8c1.4-6.4,4.6-19.4,16.2-29.1c3.5-2.9,6.8-4.8,9-5.9c0.5,2.4,1.1,6,1.1,10.2
			c0,0-0.1,7.3-2.8,15.6C448.3,410.7,437.4,421.1,428.9,433.3L428.9,433.3z"/>
		<path d="M528.3,377.7c3-12.7,7.6-24.6,18.2-33.2c0.3-0.3,2.2-1.4,4.6-2.9c6.1-3.7,11.3-6.5,14.9-8.4c-1.1,4.2-3.1,10.1-7,16.5
			c-3.9,6.5-7.9,10.6-10.4,13.1C544.5,367,537.9,372.7,528.3,377.7L528.3,377.7z"/>
		<path d="M122.4,415c-14.7-6.4-27.2-37.9-21.3-53.7C113.4,377.4,118.2,395.5,122.4,415L122.4,415z"/>
		<path d="M148.6,427c11.4,2.1,23.4,18,23.3,30.5C160.2,455.4,145.1,435.8,148.6,427z"/>
		<path d="M229.3,389.7c-1-1.6-1.9-3.2-2.9-4.6c-3.5-5.2-7-10.5-10.7-15.6c-2.7-3.6-2.1-6.8,2.2-6.8c3.8,0,8.4,1.2,11.3,3.5
			C236,371.6,235.8,382.8,229.3,389.7L229.3,389.7z"/>
		<path d="M480.7,396.4c0.5-2.3,3.6-17,16.3-22.9c3.1-1.5,6.2-2,8.9-2.2c-0.6,1.8-1.5,4.4-2.8,7.4c-1.3,3.1-2.5,5.5-2.9,6.2
			C496.6,391.5,484.7,395.2,480.7,396.4L480.7,396.4z"/>
		<path d="M105.9,413.2c-15.6-2.6-28-9.4-39.4-19.5C76.5,392.1,97.6,402.6,105.9,413.2z"/>
	</g>
</g>
</svg>
