<?xml version="1.0" encoding="UTF-8"?>
<svg id="Layer_1" data-name="Layer 1" xmlns="http://www.w3.org/2000/svg" viewBox="0 0 575.55 611.75">
  <defs>
    <style>
      .cls-1 {
        fill: #000;
      }

      .cls-1, .cls-2 {
        stroke-width: 0px;
      }

      .cls-2 {
        fill: #fff;
      }
    </style>
  </defs>
  <path class="cls-1" d="M92.59,255.85c-4.58-3.72-5.04-10-4.71-10.55,3.17-5.26,7.34-9.92,11.64-15.56,1.59,3.94,2.63,6.51,4.05,10.05,8.21-3.95,16.17-7.78,24.12-11.61-1.21,1.03-2.3,2.25-3.64,3.04-6.85,4.01-13.78,7.88-20.65,11.85-2.72,1.57-5.3,3.39-8.07,4.85-.75.4-1.99-.12-3-.21.16-.86.2-1.76.52-2.55.29-.74.87-1.36,1.32-2.04-5.66,4.74-5.79,5.73-1.7,9.39,1.13,4.04,3.67,2.8,6.04,1.49,1.11-.62,1.85-1.93,2.97-2.52,15.18-7.92,30.54-15.52,45.58-23.7,19.16-10.41,38.14-21.14,57.02-32.06,4.1-2.37,7.91-3.56,12.66-3.21,39.18,2.92,78.36,5.65,117.55,8.44-1.64-.53-3.35-.14-5.07.18-13.91,2.62-27.78,5.24-42.11,4.23-22.09-1.56-44.21-2.76-66.33-4.02-1.74-.1-3.82-.05-5.24.78-10.46,6.17-20.76,12.6-31.16,18.88-25.46,15.38-51.5,29.39-81.41,34.18-.75.12-1.45.63-2.17.95,2.85.62,5.47.49,7.99-.11,45.79-10.97,91.57-21.99,137.34-33.02,32.18-7.76,64.36-15.54,96.52-23.38,1.45-.35,2.75-1.3,4.75-2.28-43.81-2.94-86.5-5.87-129.21-8.56-4.35-.27-8.79.94-13.19,1.46,3.27-1.07,6.6-3.23,9.79-3.05,43.04,2.47,86.05,5.27,129.08,7.96,1.26.08,2.55-.21,3.82-.34,0-.42,0-.84,0-1.27-1.91-.36-3.82-.89-5.75-1.05-6.8-.57-13.6-1.06-20.41-1.48-35.38-2.22-70.77-4.35-106.14-6.66-5.38-.35-9.96.91-14.64,3.59-22.81,13.06-45.77,25.85-68.71,38.68-1.37.77-2.96,1.13-4.44,1.69,6.51-3.94,12.94-8.02,19.54-11.79,16.78-9.58,33.55-19.18,50.52-28.41,4.9-2.67,8.04-5.77,8.83-11.49.29-2.11,2.96-5.81,3.75-5.61,3.8.96,8.84-.36,10.67,5.48.7,2.24,4.06,3.64,6.78,5.9-6.02-1.55-11.88-3.05-18.37-4.72-.26.88-.75,2.5-1.37,4.58,8.97.74,18,1.43,27.1,2.08,25.75,1.83,51.04,3.22,75.86,4.22-.1-.95-.18-2.35.08-4.01.85-5.53,4.57-9.05,6.32-10.7,9.7-9.17,27.43-8.42,28.56-8.36,11.76.63,20.58,5.44,25.31,8.59,6.33-5.31,15.27-11.24,26.93-14.86,38.24-11.87,72.51,11.36,78.01,15.22,2.24-.01,4.75.14,7.45.58,7.88,1.28,13.94,4.42,17.87,6.98.67-.69,7.45-7.37,16.61-5.75,6.98,1.24,10.74,6.48,11.82,7.99,7.01,9.78,2.52,21.92,2.05,23.14,2.38.72,5.92,2.18,9.13,5.29,8.17,7.92,6.91,19.46,6.71,21.08,5.8,6.74,7.8,14.74,5.26,19.57-.6,1.15-2.29,4.01-5.5,6.16-1.36.91-2.87,1.61-4.31,2.4q4.58,9.13,13.22,13.47c16.28,8.18,20.94,28.21,10.67,45.77-10.41,17.8-36.2,26.04-54.77,17.9-.55-3.2-.95-6.09-1.55-8.95-.89-4.28-1.76-8.58-2.9-12.8-2.59-9.6,3.08-15.75,9.18-21.4,6.6-6.11,7.77-13.7,7.04-21.91-.13-1.45-1.82-3.69-3.12-3.96-6.53-1.38-10.59-6.02-14.95-10.36-1.3-1.29-2.62-2.57-3.93-3.84-2.36-2.29-5.12-4.66-8.28-2.29-2,1.5-2.95,4.4-4.13,6.28-8.75-6.12-18.48-13.01-28.32-19.72-2.87-1.96-5.92-4.27-9.17-4.89-4.22-.81-9.53-1.53-12.92.35-4.24,2.34-6.81,1.49-10.36-.38-13.85-7.3-27.81-14.37-41.72-21.56-3.1-1.61-6.1-3.42-9.19-5.05-2.79-1.46-4.32-3.42-3.61-6.79.91-4.31-1.23-7.04-5.06-8.59-5.94-2.41-11.02-5.34-14-11.75-2.15-4.64-7.08-7.03-12.41-7.15-1.83-.04-4.73.57-5.35,1.79-2.31,4.59-5.91,3.25-9.47,2.94-3.01-.27-7.2.11-7.33.91-.15.94,5.51,1.65,11.92,6.04,1.73,1.18,3.04,2.32,3.89,3.1-3.04-.53-6.38-1.12-10.38-1.82-.15.14-1.07.99-2.37,2.19,6.64.62,12.9,1.12,19.14,1.81,3.03.33,3.73-1.39,3-3.58-.72-2.16-2.24-4.06-3.41-6.08-.73.3-1.46.6-2.19.9.75,2.38,1.51,4.76,2.59,8.18-1.76-1.84-3.86-3.13-4.42-4.92-.41-1.32,1.19-3.27,1.89-4.93,2.04,1.09,5.64,1.94,5.86,3.32,1.39,8.58,8.45,10.85,14.64,13.93,3.86,1.92,6.28,3.99,5.24,8.73-.81,3.69,1.42,5.66,4.55,7.28,22.12,11.46,44.16,23.06,66.27,34.53,1.83.95,3.97,1.27,6.78,2.13,0-2.57.2-4.36-.04-6.08-.58-4.16,1.77-4.78,4.79-3.72,2.47.87,4.78,2.35,6.97,3.84,10.05,6.84,20.02,13.81,30.07,20.66,2,1.36,4.25,2.37,6.87,3.81,1.04-3.26,1.88-5.89,2.96-9.26,1.87,1.37,3.45,2.39,4.88,3.58,5.06,4.21,10.2,8.35,14.99,12.86.9.85,1,3.64.29,4.87-1.54,2.68-3.64,5.13-5.92,7.23-.83.77-2.84.26-4.46.34-1.36,4.17.74,10.34-6.97,10.67,1.32,11.95,2.44,23.51,3.94,35.03.55,4.25.11,6.99-4.77,8.06-1.94.42-3.53,2.56-5.21,4-1.2,1.02-2.18,2.98-3.44,3.14-4.03.51-4.14,2.76-3.78,5.98,2.28,20.2,4.45,40.41,6.64,60.62,2.31,21.37,4.61,42.74,6.92,64.1.07.64.26,1.27.4,1.98,3.32.76,7.63.3,6.65,5.97,1.97.24,3.59.41,5.2.63,5.13.69,6.63,4.16,3.65,8.47-3.5,5.04-7.03,10.06-7.03,17.1,3.2-.46,6.25-.47,8.93-1.47,1.39-.52,2.51-2.67,3.07-4.32,2.97-8.67,10.56-13.06,19.71-11.17,8.44,1.75,14.54,9.94,13.13,18.48-.51,3.07-2.58,5.87-4.09,9.11.69.1,1.85.28,3.02.43,11.21,1.45,17.13,11.92,12.47,22.22-3.72,8.23-10.4,13.46-19.03,14.58-7.61.99-15.52.22-23.23-.49-3.4-.31-6.4-1.78-9.97.18-1.96,1.08-4.86.45-7.47.59-3.87,10.55-12.81,13.66-22.81,14.51-9.31.79-18.29-1.45-26.6-5.54-2.92-1.43-5.02-4.54-7.5-6.89.26-.39.53-.78.79-1.17h-8.55c-4.93,14.16-16.28,18.63-30,18.79-13.29.16-24.79-3.35-29.82-17.5-13.41,5.45-27.17,6.91-41.47,4.42-9.07,14.57-29.59,20.23-45.03,11.5-5.46-3.09-10.45-3.24-14.5-2.4-1.29,2.61-1.74,4.68-3,5.86-8.75,8.18-19.58,8.98-30.47,7-5.7-1.04-11.14-4.06-16.36-6.83-2.21-1.18-3.48-1.33-5.7-.3-9.56,4.42-19.43,7-30.02,3.78-7.52-2.29-12.1-6.95-11.56-11.94.55-4.97,6.64-9.94,13.61-10.66,2.76-.28,6.2-.67,8.28.65,3.69,2.34,4.8.22,7.28-1.74,3.82-3.02,8.49-4.97,13.22-7.6-1.19-5.96,1.81-11.76,9.06-15.44,8.5-4.3,16.08-3.17,21.7,2.78,5.14-2.05,10.03-4.01,15.96-6.38,1.1-4.32,5.95-6.04,11.2-7.53,1.73-.49,3.12-2.13,4.68-3.23,1.58-1.12,3.11-3.01,4.79-3.16,4.39-.41,8.86-.23,13.27.06,2.34.16,5.08,3.14,6.31-1.42.06-.21.44-.48.65-.47,6.82.59,13.64,1.21,20.46,1.83,0,.46,0,.92,0,1.37h-16.98c2.61,3.54,4.43,6,6.68,9.04-3.82,1.04-7.37,2.63-11.02,2.89-12.7.92-17.78,5.3-19.87,18.57-2.2-.91-4.23-1.84-6.33-2.59-8.01-2.86-17.97,1.07-21.32,8.35-1.65,3.58-1.21,4.64,2.53,6.24,2.28-7.57,6.27-10.79,14.21-11.16,2.81-.13,5.76-.21,8.45.47,5.01,1.27,9.62,2.27,12.88-3.22.45-.76,1.68-1.59,2.49-1.52,6.58.51,10.44-4.75,15.67-6.95,5.19-2.19,11.18-2.47,17.1-3.65,3.96-16.09,15.97-26.63,31.26-26.93,12.34-.25,19.06,5.29,23.01,18.94,5.36-2.17,6.76-5.05,5.3-10.86-2.72-10.81-13.27-19.16-25.42-19.92-3.95-.24-7.93-.04-12.29-.04v-8.99c-1.93-.11-3.51-.31-5.09-.29-57.32.96-114.63,1.97-171.95,2.84-2.13.03-5.76,2.87-6.27-1.34,60.82-1.18,121.67-2.35,182.79-3.53v-8.51c-63.94,1.85-127.78,3.7-191.63,5.55,0-.41-.02-.82-.02-1.23,61.95-2.01,123.9-4.02,186.39-6.05.31-2.69.62-5.38.97-8.46-85.24,3.59-169.8,7.16-254.36,10.73-.18-.47-.36-.95-.54-1.42,5.49-.63,12.95,1.12,10.54-8.57,5.92.09,6.21-3.48,6.44-7.63,2.31-41.76,4.72-83.51,7.19-125.27.33-5.57-2.74-8.98-6.64-12.04-.96-.75-2.14-1.24-3.73-2.14,7.35-1.13,14.03-2.15,21.16-3.25.17-2.04.35-4.09.62-7.22-8.26,1.46-15.95,2.58-23.48,4.38-1.22.29-1.73,3.56-2.46,5.21-1.24-1.98-3.55-4.64,1.39-6.91.73-.34,1.65-1.34,1.65-2.05.1-12.12.07-24.23.07-36.61-5.74.68-5.81-3.68-5.74-8.31.05-3.22.67-6.74-2.93-8.82,5.7-1.14,11.46-2.06,17.12-3.42,64.44-15.49,128.87-31.03,193.31-46.58,9.55-2.3,19.1-4.59,28.58-7.13,1.67-.45,3.01-2.12,4.5-3.22-.32-.44-.64-.88-.96-1.32-6.32,1.38-12.67,2.63-18.96,4.14-42.88,10.29-197.03,51.02-221.89,53.3-3.31.3-8.07.26-11.71-2.68ZM259.45,277.53c-4.28,1.07-8.55,2.15-11.86,2.98.93-10.33.76-20.28.39-30.23-.86-.06-1.71-.12-2.57-.18-3.15,6.27-.18,13.4-1.91,20.98v-19.36c-3.89-.8-5.26.83-5.37,4.18-.14,4.49-.23,9.01-.81,13.46-.17,1.35-1.64,3.18-2.93,3.63-6.02,2.14-6.33,2.51-4.46,9.23,3.6-.53,7.2-1.05,10.81-1.58.03.24.07.48.1.73-4.85.93-9.7,1.86-15.61,3v-27.6q-9.33,1.96-9.45,10.58c-.04,3.28,0,6.57,0,9.6-8.1,2.31-9.93,5.73-6.19,10.29-29.2,5.98-58.39,11.96-87.9,18v-26.13c-.67-.02-1.34-.04-2.02-.07-.83,8.64-.1,17.4-.44,26.07-6.93,1.93-7.47,3.04-5.74,13.26,77.49-14.28,154.96-28.56,232.6-42.87-.69-15.73-1.37-31.1-2.07-47.06-2.7.98-6.63,1.25-7.31,2.88-1.51,3.62-1.39,7.92-1.93,11.89-5.96,1.28-7.25,4.88-4.5,12.42,5.57-1.02,2.65-6.4,4.7-9.46q.23,8.79-9.41,12.28v6.16c5.88-1,11.39-1.94,16.9-2.88.06.38.13.77.19,1.15-17.95,2.93-35.89,5.87-53.84,8.8,5.47-.72,7.25-3.93,6.44-9.16-.3-1.94,0-3.97,0-5.96,0-5.54,0-11.07,0-17.03-4.31.97-7.45,1.68-11.05,2.49,0,2.87.08,5.66-.02,8.46-.11,2.98-.03,6.04-.73,8.89-.44,1.79-1.8,4.03-3.36,4.75-5.18,2.39-6.27,4.9-3.66,10.42-2.16.58-4.31,1.16-6.47,1.75.54-10.11,1.08-20.22,1.63-30.51q-10.95,1.25-11.12,10.65c-.06,2.81.08,5.68-.43,8.42-.24,1.28-1.57,2.92-2.78,3.36-6.21,2.24-6.3,2.22-4.63,9.33h6.82ZM245.39,394.07h1.12v73.59c2.08-.19,3.67-.34,5.79-.54v-135.99c.5,0,1,0,1.5,0v135.59c5.14,1.1,4.54-1.87,4.52-4.29-.22-21.33-.4-42.66-.69-63.98-.36-26.32-.83-52.65-1.24-78.97-.04-2.39.12-4.86-3.95-3.64v9.38c-.32,0-.64,0-.97,0v-10.17c-2.59-.54-4.59-.95-6.58-1.36-1.22,25.91-2.59,51.53-3.59,77.16-1,25.56-1.65,51.13-2.45,76.46,5.43,1.52,6.64-.26,6.62-4.46-.14-22.92-.07-45.85-.07-68.78ZM207,468.65c4.48,1.16,4.94-.97,4.97-3.9.15-15.16.49-30.31.6-45.47.23-30.31.38-60.63.43-90.95,0-1.44-1.3-2.88-1.99-4.32-.64,1.44-1.75,2.85-1.82,4.32-.23,4.87-.09,9.75-.09,14.63h-.88v-19.01c-5.29-.6-7.21,1.46-6.93,6.27.21,3.64-.23,7.32-.44,10.98-2.3,40.24-4.62,80.47-6.9,120.71-.14,2.44-.02,4.89-.02,7.77,4.16-.2,7.69-.37,11.5-.55.85-39.59,1.68-78.79,2.52-118,.23,0,.45,0,.68.01-.54,39.1-1.08,78.21-1.63,117.51ZM337.92,463.56c.12-1.77.28-2.91.27-4.05-.17-51.8-.35-103.6-.53-155.4,0-.67.17-1.43-.1-1.97-.38-.76-1.06-1.84-1.69-1.89-.77-.06-2.09.63-2.32,1.28-.46,1.36-.47,2.92-.47,4.4-.03,12.29-.02,24.57-.02,36.86-.36-12.49-.32-24.98-.4-37.47-.01-1.67-.65-3.34-1-5.01-.73.08-1.47.16-2.2.24-2.77,54.54-4.71,109.12-6.34,163.54,4.86,1.14,6.52-.09,6.48-4.55-.08-8.32.53-16.64.73-24.96.55-22.76,1.04-45.51,1.55-68.27.22,0,.44,0,.66.01-.71,32.39-1.42,64.78-2.14,97.24h7.51ZM149.54,470.88c4.36,1.2,5.86-.07,6.12-4.15,2.76-44.68,5.7-89.35,8.56-134.02.33-5.08-1.57-6.22-6.22-3.98-1.9.91-3.82,2.04-5.84,2.38-5.19.87-7.04,2.91-6.88,8.36,1.17,39.26,2.32,78.52,3.51,117.78.14,4.61.51,9.21.76,13.62ZM352.52,471.8c1.01-7.14.96-7.22-5.23-7.18-3,.02-6,.01-8.99.14-36.12,1.59-72.23,3.23-108.35,4.81-34.29,1.49-68.58,2.91-102.87,4.38-5.45.23-10.89.62-16.37.94v5.69c1.03.11,1.69.26,2.33.23,79.74-2.99,159.48-6,239.48-9.02ZM284.44,392c.17-.02.34-.04.51-.07-.71,24.41-1.41,48.83-2.11,73.13,4.47,1.18,6.2.07,5.93-3.87-.19-2.72-.04-5.47-.04-8.21.48,2.49.38,4.99.5,7.47.11,2.14-.81,4.9,3.03,5.04,4.15.14,3.38-2.72,3.38-5.1,0-48.66-.01-97.31-.04-145.97,0-1.78-.15-3.56-.24-5.65h-9.59c-.77,29.91-1.54,59.73-2.32,89.55l.98.02v-6.35ZM393.39,533.51c5.06,3.08,9.03,5.5,12.35,7.52,6.58-2.15,13.23-4.32,21.15-6.91,3.92-6.85,4.6-7.19,17.96-7.81,4.04-9.36,9.51-13.99,17.17-14.56,7-.52,9.79,4.4,12.16,9.81,7.63-2.88,13.72.92,19.78,4.11.42-.49.73-.7.83-.99.22-.62.38-1.27.49-1.92,1.28-7.21-2.76-11.89-7.55-16.36-14.96-13.98-37.78-12.65-48.57,3.25-2.5,3.68-4.81,6.01-9.48,6.47-2.73.27-6.02,1.98-7.73,4.11-4.46,5.56-8.27,11.54-16.05,13.03-.99.19-1.68,1.96-1.82,2.14-3.93-.7-6.86-1.22-10.69-1.9ZM165.96,330.26c-3.03,47.07-6.03,93.78-9.03,140.31,4.64,1.08,5.29-1.03,5.41-3.94.71-16.97,1.45-33.93,2.24-50.9.94-20.34,1.93-40.68,2.9-61.02.24.01.48.02.73.03-1.73,38.51-3.46,77.01-5.21,115.9,2.46-.17,4.06-.27,6.04-.41,1.2-46.33,2.39-92.38,3.57-138.36-2.35-.57-4.07-.99-6.65-1.61ZM127.96,472.16c.13-1.71.31-3.16.35-4.62.62-21.31,1.28-42.63,1.81-63.94.51-20.48.92-40.97,1.25-61.45.03-1.65-.9-3.31-1.39-4.96-.56.13-1.12.25-1.68.38-.16,2.17-.31,4.33-.41,5.68-.41-1.7-1-4.11-1.58-6.52-.58.11-1.17.22-1.75.33-2.53,45.09-5.06,90.17-7.58,135.18,3.83,1.25,4.11-.85,4.23-3.54,1.09-24.12,2.25-48.25,3.41-72.37.74-15.48,1.52-30.96,2.29-46.43.32.01.64.03.95.04-1.87,40.69-3.74,81.37-5.62,122.23h5.74ZM345.52,463.34c0-2.17.02-3.81,0-5.45-.66-42.44-1.32-84.89-1.98-127.33-.14-9.15-.25-18.31-.59-27.46-.04-1.03-1.51-2-2.32-3-.82.96-1.93,1.8-2.37,2.91-.4,1-.1,2.3-.07,3.46.32,13.64.85,27.28.92,40.93.21,36.62.22,73.25.31,109.87,0,1.95,0,3.9,0,6.07h6.1ZM190.34,468.25c.42-.03.84-.06,1.26-.1.15-1.12.39-2.24.45-3.36,1.6-31.6,3.18-63.19,4.76-94.79q.46-9.13-8.65-10.13c-.29-.03-.6.2-1.31.46,1.16,35.89,2.33,71.9,3.49,107.92ZM450.96,335.73c-.48.44-.95.88-1.43,1.31l10.26,106.19c.17-5.19.39-10.36.13-15.5-1.35-27.14-1.57-54.25,1.35-81.32.1-.88-.12-2.17-.71-2.69-3.11-2.77-6.39-5.35-9.6-7.99ZM298.76,309.3c-.49.01-.99.02-1.48.03v154.78c5.38,1.78,4.88-1.56,4.83-4.39-.91-49.11-1.84-98.23-2.79-147.34-.02-1.03-.37-2.06-.56-3.08ZM175.66,331.6c-.61.08-1.23.16-1.84.24-.15,1.24-.42,2.47-.44,3.71-.78,43.44-1.55,86.89-2.21,130.33-.02,1.45,1.1,2.92,1.69,4.38.76-1.38,2.15-2.75,2.17-4.14.53-43.45.94-86.9,1.32-130.35.01-1.39-.46-2.79-.7-4.18ZM370.01,358.08c-.46.17-.92.34-1.39.5-.1.31-.29.62-.3.94-.7,33.96-1.35,67.93-2.11,101.89-.1,4.36,2.02,4.47,5.11,3.68.16-.64.31-.95.32-1.27.23-33.47.49-66.95.58-100.42,0-1.77-1.44-3.55-2.21-5.32ZM378.4,466.02c0-4.74.06-9.36,0-13.99-.4-27.49-.8-54.97-1.29-82.46-.05-2.73.66-6.09-3.41-7.61-.18.98-.38,1.59-.38,2.2-.03,32.82-.01,65.64-.11,98.46-.01,3.89,2.09,3.77,5.2,3.4ZM361.05,352.41c1.67,37.52.68,74.81,2.98,112.04,1.14-1.85,1.31-3.73,1.35-5.6.63-31.93,1.05-63.86,2.04-95.78.18-5.63-1.49-8.71-6.38-10.65ZM299.94,268.83c2.06-.3,3.83-.49,5.57-.82,4.53-.87,10.76-.36,13.1-3.12,2.36-2.78.95-8.83,1.03-13.46.1-5.73.02-11.46.02-17.21-11.33-1.46-5.54,8.06-7.93,12.32-2.88-2.19-4.61-1.32-4.96,2.1-.3,2.97-.01,6-.42,8.94-.18,1.32-1.32,3.43-2.24,3.56-4.46.6-4.71,3.4-4.17,7.69ZM130.25,472.16q2.99-1.71,3.43-18.2c.16-6.32.36-12.64.47-18.97.11-6.49.15-12.98.21-19.47.06-6.49.13-12.98.18-19.47.06-6.49.12-12.98.16-19.47.04-6.32.05-12.65.06-18.97,0-6.22,0-12.44,0-18.66-.71.02-1.41.04-2.12.07-.79,44.24-1.58,88.47-2.38,133.15ZM215.09,468.39c3.92-5.87,2.95-139.77,0-143.16v143.16ZM157.67,269.29c-.3.66-.8,1.35-.92,2.1-.81,5.41-1.46,10.84-2.36,16.23-.21,1.26-1.12,3.34-1.87,3.42-5.2.55-3.8,3.83-3.34,7.36,4.61-.87,8.99-1.59,13.31-2.61,1.03-.24,2.6-1.47,2.62-2.28.2-8.06.12-16.14.12-24.22h-7.55ZM260.09,317.46c-.7.02-1.41.04-2.11.06,1.31,49.45,2.61,98.9,3.92,148.35.56-.01,1.13-.03,1.69-.04-1.17-49.45-2.33-98.91-3.5-148.36ZM133.82,293.14c-8.01,2.3-8.62,3.06-6.83,9.39,3.37-.61,6.76-1.39,10.19-1.78,2.78-.31,3.59-1.66,3.51-4.28-.14-4.8-.04-9.62-.04-14.42h.54v17.81c3.39-1.62,4.65-19.86,2.65-27.02-11.84.07-5.63,9.89-8.25,15.31-1.2.25-2.6.54-5.42,1.12,1.71,1.82,2.8,2.96,3.65,3.86ZM350.33,461.84c-.32-53.63-1.5-107.22-3.46-160.8-.65.02-1.31.04-1.96.07,1.81,53.58,3.61,107.15,5.42,160.73ZM169.19,294.09c2.14-.32,3.92-.72,5.71-.83,4.59-.27,6.34-2.53,5.84-7.12-.35-3.23-.07-6.54-.07-9.81.4,0,.8.01,1.21.02v14.46l1.54-.04v-25.18c-7.36.23-7.34.23-7.62,7.37-.12,2.94-.35,5.87-.52,8.64-4.83,1.19-6.72,5.13-6.1,12.49ZM346.14,276.5c-10.94,2.09-21.31,4.07-32.01,6.11.96,3.58-.67,8.45,5.28,7.3,9.28-1.79,18.49-3.97,28.17-6.08-.5-2.52-.96-4.85-1.44-7.33ZM302.35,311.68c-.54,0-1.08-.02-1.63-.03,1.33,49.24,2.66,98.47,3.98,147.71.48-.01.96-.02,1.44-.04l-3.8-147.64ZM269.5,291.35c-.96,5.03,1.46,6.89,5.12,6.3,8.4-1.34,16.7-3.24,25.02-4.91.17-2.53.3-4.63.51-7.68-10.65,2.19-20.75,4.26-30.64,6.29ZM226.53,299.31c.47,6.71,4.91,5.83,8.24,5.36,7.22-1.02,14.36-2.7,21.86-4.17.13-2.33.26-4.51.42-7.39-10.6,2.16-20.46,4.16-30.52,6.21ZM531.92,223.45c-4.36-8.64-13.24-12.55-24.04-10.57-10.27,1.88-17.35,7.12-18.1,13.93,5.31-5.94,11.32-9.77,19.06-10.42,8.51-.71,14.14,3.56,17.95,10.4,1.99-1.3,3.57-2.32,5.13-3.33ZM263.23,242.46c4.49-.91,5.06-4.32,2.54-11.53h-7.5c.13,8.88-7.42,6.08-11.73,7.98v7.73c2.89-.62,5.31-1.11,7.73-1.66q8.19-1.85,8.95-10.19v7.67ZM200.65,262.03c-4.26-.43-5.58,1.14-5.33,4.54.18,2.47-.1,4.97-.08,7.46.03,4.5.4,9.2-6.59,8.07v8.12c3.35-.63,6.36-.92,9.14-1.86,1.19-.4,2.7-2.14,2.74-3.31.25-7.6.13-15.21.13-23.03ZM171.42,309.35c-8.32,1.53-16.55,3.05-24.83,4.57,0,4.23.57,7.17,5.26,6.1,7.22-1.64,14.42-3.36,21.75-5.07-.69-1.78-1.35-3.45-2.18-5.6ZM240.5,247.95c5.81-.95,3.45-5.11,3.7-7.8.13-1.44-1.09-3.01-1.69-4.53-1.77.99-4.79,1.72-5.07,3.03-.73,3.4-3.11,3.42-5.43,4.04-6.55,1.76-6.77,2.12-5.09,8.74,10.38-1.19,12.59-2.6,12.99-8.12.15,1.18.33,2.57.6,4.64ZM211.98,301.16c-9.14,2.06-17.62,3.97-26.1,5.88.09.62.19,1.24.28,1.86,8.9,6.19,17.28-1.14,26.34-1.27-.18-2.24-.32-3.94-.52-6.48ZM198.94,255.13c.26.29.99,1.12,1.73,1.94.56-.89,1.47-1.72,1.62-2.67,1.07-6.96.19-7.9-5.27-7.78-3.02,2.07-4.68,3.74-6.68,4.48-5.81,2.13-6.08,2.42-4.12,9.13,4.24-2.03,10.33.52,12.73-5.1ZM203.71,249.06c.25,2.75.46,4.99.73,7.86,4.75-1.17,8.93-2.1,13.05-3.29.87-.25,2.05-1.39,2.1-2.18.22-3.69.1-7.4.1-11.1-.6-.4-1.2-.8-1.8-1.19-1.41,8.46-8.27,7.94-14.17,9.9ZM268.39,239.98c.53.42,1.07.84,1.6,1.26,4.72-1.27,9.44-2.55,14.32-3.87v-11.56c-.44-.28-.87-.56-1.31-.85-1.25,1.65-2.5,3.31-4.42,5.84-1.65.3-5.2,0-7.28,1.62-1.82,1.41-2,4.95-2.9,7.55ZM338.22,213.5c-1.68.79-2.81,1.22-3.83,1.83-1.37.82-2.55,2.24-4.01,2.59-7,1.65-7.19,1.84-5.07,10.21,4.2-1.02,8.42-2.04,12.91-3.12v-11.51ZM291.75,235.36c2.19-.35,4.15-.65,6.11-.99,1.31-.23,2.74-.27,3.88-.86,1.29-.67,3.27-1.87,3.26-2.82-.04-2.85-.9-5.69-1.44-8.54-1.02.41-2.11.7-3.04,1.25-1.15.68-2.05,1.97-3.26,2.33-6.81,2-6.83,1.94-5.51,9.63ZM140.44,270.03c4.6-1.11,9.25-2.24,13.78-3.33v-9.67c-3.27,1.6-6.16,3.84-9.35,4.39-5.16.89-6.4,3.21-4.43,8.6ZM169.16,252.94c-.45-.32-.9-.63-1.35-.95-2.13,1.69-4.12,4.57-6.43,4.86-6.84.84-5.33,4.9-4.67,9.35,4.42-1.11,8.51-2.14,12.45-3.13v-10.14ZM306.38,232.13c11.45-1.75,11.74-1.96,11.18-9.98-.1-1.44-1.07-2.83-1.64-4.24-.83,1.01-1.63,2.03-2.49,3-.42.47-.94,1.15-1.45,1.18-6.92.38-5.9,5.14-5.59,10.04ZM124.92,273.86c3.98-1.22,7.82-1.88,11.06-3.64,1.35-.74,1.71-3.77,1.97-5.83.11-.86-1.57-2.81-1.84-2.7-1.38.52-2.54,1.59-3.82,2.4-.79.51-1.66,1.32-2.47,1.29-5.95-.21-5.55,3.58-4.9,8.48ZM107.38,277.29c11.4.62,12.96-1.04,10.97-10.75-3.52,2.23-6.95,5.37-11.58.43.23,3.88.41,6.96.61,10.32ZM426.71,397.72c.31,0,.62,0,.93,0,.31-11.23.72-22.46.81-33.7.01-1.2-1.77-2.42-2.72-3.63-.52.27-1.05.54-1.57.81.85,12.17,1.7,24.35,2.55,36.52ZM114.29,304.05c.36.38.72.75,1.08,1.13,1-1.09,2.82-2.15,2.86-3.28.26-7.39.13-14.8.13-22.2-.41-.28-.82-.56-1.23-.83-.95,1.15-2.67,2.27-2.71,3.45-.25,7.24-.13,14.49-.13,21.73ZM505.53,531.61c10.33-7.46,20.61-10.53,31.54-1.16-4.95-6.82-11.61-9.61-19.61-8.52-5.64.77-10.26,3.42-11.93,9.68ZM171.35,262.67c13.2-2.73,12.96-2.19,10.49-12.24-3.33,2.22-6.83,4.55-11.13,7.42.09.66.34,2.56.64,4.82ZM204.59,261.22c-.43-.29-.85-.58-1.28-.88-.73.93-2.08,1.85-2.1,2.8-.16,7.44-.11,14.88.01,22.32.01.73.92,1.45,1.41,2.18.65-.74,1.86-1.47,1.88-2.21.14-8.07.09-16.13.09-24.2ZM339.39,225.24c5.33-.64,6.6-3.15,5.1-9.4-.24-1.01-1.49-1.77-2.27-2.65-.94.91-2.57,1.74-2.7,2.75-.37,2.91-.13,5.9-.13,9.3ZM447.81,242.31c-.67.03-1.34.07-2.01.1l.91,17.79c5.1-6.21,2.14-12,1.1-17.89ZM285.52,237.02c4.71-1.33,5.17-8.4.8-12.77-.29,4.67-.54,8.57-.8,12.77ZM319.47,228.79c4.02-1.04,4.41-6.61,0-12.86v12.86ZM321.25,265.07c.32,0,.64,0,.96,0v-29.66c-.32,0-.64,0-.96,0v29.66ZM465.66,548.73c5.13-.79,11.04-1.7,15.99-2.46-5.17-2.75-11.81-1.79-15.99,2.46ZM490.16,541.3c5.07.31,11.05.67,16.21.99-5.05-4.05-11.78-4.38-16.21-.99ZM222.86,242c-.71.09-1.42.17-2.12.26.17,3.4.33,6.81.5,10.21.54-.04,1.08-.07,1.62-.11v-10.36ZM120.64,274.73c3.67-2.32,3.58-6.64,0-9.92v9.92Z"/>
  <path class="cls-1" d="M148.7,516.43c42.92,1.29,85.83,2.58,128.75,3.87.07.56.14,1.13.21,1.69-3.75.57-7.52,1.7-11.26,1.62-38.31-.77-76.62-1.77-114.93-2.62-6.99-.16-13.99.03-20.99.12-1.53.02-3.06.29-4.6.44.01.6.02,1.19.03,1.79,38.88,1.16,77.75,2.32,116.63,3.48.02.36.05.72.07,1.08-6.54.66-13.09,1.93-19.63,1.86-31.99-.33-63.98-1.03-95.97-1.57-4.54-.08-9.09-.01-13.64-.01,0,.69,0,1.39,0,2.08,36.86,1.4,73.73,2.8,111,4.22-2.13,4.09-5.2,4.37-8.69,4.22-34.12-1.52-68.25-2.98-102.38-4.4-4.08-.17-8.18-.02-12.31,1.05,37.85,4.1,75.85,5.41,113.89,7.99-1.49,3.99-1.49,4.02-5.16,3.8-35.26-2.08-70.52-4.32-105.79-6.16-8.5-.44-17.06.39-25.59.64,0,.56.01,1.11.02,1.67,43.29,2.74,86.57,5.47,129.86,8.21-.04.79-.09,1.58-.13,2.37-49.21-.95-98.28-6.14-147.51-6.71-.05.77-.09,1.53-.14,2.3,40.29,2.9,80.59,5.79,120.88,8.69.15.4.3.81.44,1.21-2.9.77-5.82,2.28-8.68,2.18-11.82-.4-23.62-1.47-35.43-1.92-8.44-.32-16.89-.06-25.34-.06-.03.5-.06,1-.09,1.5,19.92,1.72,39.84,3.44,59.79,5.17q-1.56,8.25-9.47,7.55c-2.99-.26-6-.34-8.97-.73-7.97-1.04-15.09-.94-22.57,4.12-9.3,6.31-20.61,6.04-31.41,3.21-3.27-.86-7.21-2.37-9.05-4.89-4.14-5.7-8.97-5.44-14.99-4.57-8.69,1.25-17.18-.08-25.12-4.5-2.1-1.17-5.12-.92-7.72-.92-8.29,0-15.42-2.51-20.67-9.18-5.19-6.58-5.14-14.41-.26-21.14.85-1.18,1.39-3.02,1.21-4.44-1.32-10.87,3.98-19.37,14.91-21.89,5.06-1.17,10.53-.73,15.82-.69,2.58.02,5.16.79,8.34,1.33v-12.34c.27-.02.54-.05.81-.07.15.87.29,1.74.71,4.24,3.4-2.58,6.66-4.29,8.89-6.89,5.68-6.66,12.98-8.94,21.7-5.49-1.56,1.17-2.69,2.19-3.97,2.95-6.64,3.98-9.3,10.07-9.8,17.52-.1,1.58-1.19,3.14-2.01,4.6-1.54,2.73-3.22,5.39-4.18,8.55,3.83-4.91,8.01-8.92,14.25-10.24.57-.12,1.2-1.02,1.39-1.68,2.84-9.68,9.78-13.24,19.28-9.53,2.73,1.07,5.14,2.96,7.91,4.61,4.91-3.36,10.12-6.17,16.59-3.65.68.26,2.18-1.08,3.06-1.93,7.66-7.4,21.38-7.99,29.15-.55,3.19,3.06,6.65,3.64,10.4,3.64,58.95-.05,117.9-.2,176.85-.31.44,0,.88.18,1.39,1.12-1.87.1-3.74.29-5.61.29-53.32-.04-106.65-.1-159.97-.16-2.83,0-5.73-.27-8.47.25-1.16.22-2.41,2-2.8,3.32-.18.6,1.51,2.32,2.58,2.59,2.06.51,4.29.44,6.46.46,35.49.33,70.99.68,106.48.93,15.6.11,31.21.02,46.81.02.05.69.1,1.39.15,2.08-1.43.29-2.86.84-4.29.82-49.48-.71-98.95-1.55-148.43-2.17-11.15-.14-22.32.41-33.48.77-1.8.06-3.57.77-5.35,1.18.04.68.08,1.36.12,2.04Z"/>
  <g>
    <path class="cls-1" d="M556.31,180.43c1.11-1.93,2.1-3.47,2.9-5.09,7.71-15.55-2.06-32.71-19.4-33.78-4.12-.25-8.29.57-12.44.63-1.42.02-3.21-.4-4.2-1.31-2.4-2.22-4.42-4.85-6.84-7.59,1.69-2.06,3.88-5.17,5.54-9.34,1-2.52,6.67-17.58-1.59-30.44-8.71-13.57-27.15-15.69-38.97-12.08-3.03.93-5.41,2.17-7.03,3.14-.87-1.72-3.55-6.45-9.29-9.31-3.93-1.96-7.57-2.16-9.53-2.13-.44-1.05-1.13-2.43-2.18-3.9,0,0-1.61-2.38-4.03-4.23-3.91-2.99-10.42-5.61-17.69-5.06-2.14.16-5.44.67-9.22,2.4-2.39-2.56-5.99-5.84-10.98-8.7-2.01-1.15-6.82-3.28-13.32-5.15-2.96-.85-6.18-.81-9.45-1.18-2.73-8.68-6.99-14.25-9.83-17.36-14.42-15.78-36.08-15.96-42.42-15.7-1.9.08-3.48.24-4.57.38-4-2.96-12.01-8.01-23.29-9.6-17.33-2.44-30.52,4.97-34.5,7.41C264.77,6.66,251.38.61,234.91.05c-33.38-1.14-65.83,18.9-75.05,42.74-.33.86-.93,1.62-1.54,2.66-2.21-1.52-4.1-2.86-6.02-4.15-12.44-8.35-25.89-11.96-40.82-8.81-26.27,5.54-40.79,28.85-32.93,53.03,1.06,3.26,2.62,6.36,3.96,9.57-3.1.36-7.47,1.31-12.01,3.88-11.08,6.27-14.71,17.39-15.6,20.41-4.78-1.47-9.45-3.34-14.3-4.33-15.96-3.26-30.63,3.87-37.18,17.71,0,0-2.88,6.1-3.14,13.62-.64,18.75,19.08,35.81,20.37,36.89-2.56,1.93-8.07,6.65-10.76,14.65-3.18,9.45-.9,18.95,2.67,25.22,10.08,17.66,36.37,19.99,51.68,17.6,2.53-.39,4.62-.89,6.06-1.28-2.01,18.9,1.29,26.71,4.9,30.28.65.65,2.04,3.14,6.1,5.87,11.39,7.67,14.01,18.84,12.57,31.46-.45,3.91-2.11,7.68-3.26,11.5-2.6,8.61-.44,16.61,6.72,21.8,6.82,4.94,9.31,11.55,8.88,19.5-.53,9.8-1.35,19.59-2.1,29.38-1.98,25.81-3.98,51.61-6,77.7,4.95-1.21,7.92-4.25,8.4-9.15.65-6.62.8-13.3,1.22-19.95,1.82-28.92,3.57-57.85,5.55-86.77.57-8.26-1.59-14.19-9.5-18.43-5.12-2.75-5.07-3.99-5.46-5.04-.67-1.81-.57-5.52,7.19-12.9v-30.57c-.85.14-3.64.5-5.69-1.21-1.86-1.56-2.84-4.08-2.44-5.73,1.31-5.33-1.52-7.11-5.69-8.41-1.25-.39-2.42-1.1-3.57-1.78-6.98-4.09-11-9.97-11.84-16.28-1.21-9.15,8.71-12.93,6.64-18.26-2.23-5.74-15.85-7.9-18.88-3.61-.61.86-1.05,2.33-.29,4.98-3.89,1.42-11.22,3.48-20.18,2.18-3.93-.57-18.59-2.71-25.67-15.24-4.09-7.23-6.52-19.69.59-28.16,4.35-5.18,10.41-6.66,13.14-7.14,2.09-4.57,9.57-20.34,18.36-27.29,1.54-1.22,2.96-1.97,4.39-2.6,5.67-2.52,11.28-1.54,16.71,1.04,2.49-10.14,6.69-14.26,14.23-14.22,6.42.03,10.5,3.61,12.42,11.27,5.61-.75,6.77,3.94,8.14,6.72,4.65,1.29,8.48,2.16,12.16,3.49.97.35,2.04,2.15,1.99,3.23-.13,2.46-.8,4.93-1.48,7.32-.82,2.86-2.54,3.1-4.19.74-2.7-3.86-5.87-6.57-9.71-7.62-1.61-.44-3.99-1.08-7.61,0-.76-7.49-6.72-13.11-13.43-13.36-5.38-.2-10.56,3.09-13.1,8.31-4.25-3.15-10.04-3.28-14.38-.32-4.22,2.88-6.24,8.13-5.04,13.14,4.84-10.48,9.53-12.17,20.9-7.24,2.39-5.2,6.06-8.85,12.35-7.72,6.5,1.17,7.6,6.61,8.58,11.92,10.84-3.41,16.95-.22,20.65,10.13,1.76-.63,3.42-1.58,5.18-1.79,3.71-.46,4.79-1.69,4.37-5.87-.36-3.58.79-8.13,2.96-10.99,2.19-2.89,4.82-4.44,5.99-5.02,6.49-3.17,12.96-.88,14.35-.35-1.31-3.1-3.89-10.45-1.8-19.21.82-3.45,2.1-5.97,2.88-7.35,1.18-2.09,7.33-12.94,19.17-14.06,9.84-.92,16.93,5.5,18.21,6.71,4.69-5.94,9.37-11.88,14.06-17.82-.3-.72-5.05-12.77,1.27-20.83,4.6-5.87,13.15-7.18,17.59-7.86,1.95-.3,3.62-.4,4.82-.42-3.1-8.97-1.16-18.78,5.09-25.36,7.47-7.88,17.66-7.5,19.2-7.42.66-2.46,3.72-12.72,14-19,6.74-4.12,13.34-4.53,16.41-4.52,1.43-2.03,3.84-4.92,7.55-7.3,11.39-7.29,24.59-3.14,27.47-2.24,7.38,2.32,12.55,6.49,15.65,9.58,4.21-1.13,19.43-4.67,34.5,3.19,7.92,4.13,12.79,9.85,14.38,11.82,4.97,6.17,7.24,12.27,8.31,15.97-3.12.26-9.01,1.19-15.01,5.11-9.13,5.95-12.35,14.77-13.25,17.59-1.64.69-3.34,1.47-5.08,2.34-3.35,1.68-6.35,3.45-8.98,5.2-1.13-1.15-2.98-2.73-5.65-3.81-5.68-2.3-10.9-.64-12.45-.08-5.93-9.21-16.79-13.49-26.41-10.73-11.5,3.29-15.33,14.93-15.61,15.84-.98-.17-2.39-.33-4.09-.24-1,.05-5.67.39-10.27,3.71-4.8,3.47-6.62,8.12-7.21,9.87-3.25-.26-7.74-.08-12.48,1.86-2.91,1.19-7.03,2.88-8.44,6.83-.44,1.23-.49,2.33-.48,3.05-1.48-.06-3.24.08-5.11.7-7.35,2.43-10.1,10.18-10.54,11.47-12.56.84-16.66,4.09-20.43,15.62-.58,1.79-2.04,3.28-3.13,4.97,4.78,1.31,5.99-2.13,6.95-6.18,2.16-9.1,6.99-12.68,16.23-12.02.31,2.03.62,4.12.94,6.21-.01-1.01,0-8.6,6.24-13.79,5.13-4.27,11-4.04,12.32-3.95-.43-1.07-.75-2.47-.26-3.82,2.77-7.61,30.05-9.29,35.01.76.66,1.34,1.33,3.67.32,7.47,1.56.06,3.94.38,6.34,1.76,6.1,3.51,9.54,11.72,7.43,16.43-2.02,4.51-4.32,8.88-6.65,13.62-9.7-1.25-16.94,2.88-22.06,11.55-.89,1.51-3.34,2.5-5.25,2.93-6.98,1.6-10.87,3.93-13.41,9.29,6.56-6.26,13.54-7.81,19.45-5.73,3.92-5.01,6.48-9.78,10.38-12.86,4.15-3.27,9.6-3.96,13.28-1.12,2.29-5.28,3.65-11.21,7.07-15.49,3.54-4.41,9.09-7.21,14.49-11.27.66-12.88,5.94-20.35,17.02-22.76,12.51-2.72,21.17,2.09,28.19,15.79,2.35-.35,5.74-.58,9.69.11,5.64.99,9.73,3.37,12.01,4.95,6.21-2.53,21.84-7.87,40.42-3.16,8.56,2.17,15.18,5.83,19.7,8.9,4.59-2.11,8.93-4.69,13.61-6.16,13.96-4.38,28.04,6.83,34.67,16.69,1.68,2.51,2.73,4.78,3.34,6.26,1.36.38,3.29.99,5.49,1.98,3.6,1.62,10.8,4.14,13.79,11.12,1.28,3,1.88,6.28,2.8,9.45,22.95-.72,32.61,19.07,24.69,35.74,11.43,4.2,16.64,12.61,15.24,25.33,9.5-2.13,14.42-8.06,17.23-15.56,5.22-13.9.44-25.03-10.95-33.63ZM305.2,123.68c-2.98.64-5.17-3.79-7.58-3.48-1.34.17-2.06,1.48-2.51,2.23-.46-1.34-2.12-5.6-6.61-8.26-2.5-1.49-4.91-1.89-6.36-2.02-.34-1.7-1.19-4.72-3.58-7.59-4.47-5.36-10.85-6-12.24-6.11.22-1.23,1.18-5.63,5.23-8.9,5.19-4.2,11.29-3.16,12.19-2.99.34-1.09,3.31-10.1,12.74-13.58,1.16-.43,8.79-3.12,16.63,1.01,5.09,2.68,7.64,6.82,8.59,8.59.92-.48,7.99-4.08,14.57-.68,2.08,1.07,3.51,2.54,4.45,3.74-1.7,4.21-3.31,8.2-5.06,12.52-17.69-.83-27.76,8.13-30.48,25.51ZM440.51,120.82c-1.01.95-1.86,1.47-2.76,1.54-1.4.11-2.51-.78-2.78-.98-3.03-2.25-20.18-6.84-37.57-6.05-4.78.21-11.33.91-19.02,3.02-3.03-1.21-6.78-2.42-11.17-3.25-3.42-.65-6.54-.93-9.24-1.02-.97-2.1-2.85-5.44-6.32-8.5-4.84-4.28-10.04-5.59-12.47-6.05,2.54-12.7,8.88-18.96,20.03-20.39,6.4-17.72,21.63-26.41,39.86-22.69,5.58,1.14,10.21,3.78,13.58,8.57.83,1.17,2.35,2.18,3.75,2.57,8.04,2.25,13.05,7.3,14.17,15.57.44,3.26,1.71,4.75,4.69,6.03,12.64,5.44,15.25,22.2,5.24,31.61ZM505.6,136.95c-4.17,3.28-8.5,4.73-11.5,5.43-1-2.38-8.63-19.67-26.83-24.28-8.14-2.06-15.18-.78-19.17.32,5.73-4.87,8-12.71,5.75-19.81-2.17-6.83-8.16-11.83-15.33-12.78.17-.74,1.69-7.75-3.19-13.42-4.05-4.71-9.61-5.12-10.64-5.18.52-.19,12.74-4.48,20.94,2.84,2.87,2.57,4.24,5.66,4.91,7.75,1.74-.35,6.38-1.04,11.37,1.29,7.65,3.57,9.79,11.27,10.08,12.41,2.8-1.5,11.16-5.51,21.71-3.62,3.43.61,17.04,3.64,22.23,15.77,5.3,12.4-1.58,26.39-10.33,33.26Z"/>
    <path class="cls-1" d="M73.23,216.55c3.53-.73,10.47-.69,12.38-2.24,1.96-1.59.76-2.94,3.26-4.98,4.13-3.36,8.67-5.61,14.16-5.27,5.47.34,10.25,2.01,13.22,8.17.44-9.6,3.97-14.35,11.42-16.79,7.17-2.35,13.58-.49,19.74,3.46-.95-1.62-2.73-4.19-5.76-6.29-5.02-3.49-13.41-5.67-20.3-1.47-5.37,3.27-7.15,8.79-7.65,10.59-1.3-1.35-5.4-5.23-11.77-5.88-1.56-.16-5.19-.48-9.12,1.47-5.46,2.72-7.48,7.83-7.94,9.12.11-1.41.14-3.46-.35-5.86-1.44-7.05-6.31-11.18-8.08-12.94-10.76-10.72-27.68-7.53-34.22,6.06-.63,1.31-.29,3.08-.41,4.64,1.28-.35,1.46-.79,1.59-1.24,2.9-9.49,13.31-15.41,22.83-12.96,9.92,2.54,15.31,11.59,13.08,21.95-.6,2.79-1.41,4.61-2.8,5.75-2.04,1.68-4.11.52-6.49,1.63-1.69.79-3.72,2.72-4.88,7.91,3.17-3.28,6.06-4.4,8.09-4.82Z"/>
  </g>
  <path class="cls-1" d="M62.07,509.47c-4.41-4.33-8.66-6.15-12.05-6.91-17.76-3.99-42.63,14.16-43.47,36.09-.72,18.74,15.68,36.12,28.63,37.88,7.42,1.01,14.6,2.11,21.75,4.74,5.09,1.87,11.13,1.1,16.72,1.72,2.71.3,5.87.34,7.96,1.76,18.85,12.78,38.01,11.85,57.76,2.34,3.37-1.62,7.47-1.9,11.29-2.38,2.09-.26,4.3.53,6.45.52,8.4-.02,15.02,2.76,21.77,8.49,11.25,9.56,25.1,9.92,38.75,4.89,4.01-1.48,7.09-1.18,10.8.57,13.56,6.39,27.65,7.36,41.74,2.15,4.56-1.69,8.73-4.77,12.62-7.8,2.43-1.89,4.15-2.24,7.08-1.16,18.64,6.87,36.22,6.02,51.93-7.68,1.35-1.18,3.49-1.77,5.35-1.99,6.77-.8,13.56-1.64,20.37-1.82,2.89-.08,6.67.53,8.6,2.35,16.46,15.47,47.7,15.65,64.54.67,4.78-4.25,10.22-1.3,14.92.71,15.91,6.82,31.38,6.4,46.61-1.81,1.75-.94,3.82-1.88,4.87-3.41,1.29-1.88,2.71-3.13,4.24-3.91,4.34-2.23,10.07-1,12.11-.48,10.69,2.75,30.73-2.05,39.65-13.14,6.62-8.24,9.95-23.49,2.21-31.56-5.62-5.86-14.61-5.35-17.09-5.14,2.3-.82,13.34-4.5,20.88,1.03,10.09,7.4,6.82,26.08.95,36.6-5.58,10-16.66,18.33-27.99,19.47-1.65.17-13.24,1.04-22.34.46-5.48-.35-10.16.57-14.59,3.7-15.56,10.98-32.46,13.2-50.31,6.94-8.86-3.11-16.36-2.78-24.98,2.27-18.07,10.6-36.65,9.49-54.08-2.38-4.11-2.8-8.12-4.04-12.99-3.93-11.1.25-21.57,1.53-31.32,8.09-11.8,7.95-25.26,8.86-38.91,5.2-6.39-1.72-12.14-1.58-18.16,1.92-14.37,8.36-29.73,9.15-45.32,3.87-6.69-2.27-13-2.68-20-1.09-14.81,3.37-28.28.86-40.83-8.96-8.03-6.29-18.59-6.8-28.69-4.65-3.86.82-7.49,2.73-11.22,4.14-17.49,6.64-34.15,4.73-50.5-4.11-3.9-2.11-8.92-2.15-13.44-3.09-13.95-2.89-28.44-4.26-41.74-8.97-8.09-2.86-13.78-7.08-17.42-12.47-7.69-11.41-4.92-25.85-3.59-31.75,3.74-16.64,16.74-37,38.29-41.6,9.78-2.09,18.21-.26,23,1.19-.27,4.14-.54,8.27-.81,12.41Z"/>
  <path class="cls-1" d="M193.51,148.63c8.37-3.8,16.14-1.65,18.95-.88,5.36,1.48,9.07,4.21,12.67,7.23,6.04,5.04,15.35,13.88,25.29,28.15-4.57-.54-9.13-1.08-13.7-1.63-.4-.76-.91-1.73-1.5-2.87-1.1-2.14-1.86-3.7-1.97-3.91-7.33-14.78-19.26-19.77-19.26-19.77-.98-.41-5.5-2.24-11.77-2.35-9.81-.17-16.99,4-19.89,5.92,1.45-2.32,4.89-7.05,11.16-9.89Z"/>
  <path class="cls-1" d="M132.79,487.59c-6.55,6.61-14.02,7.06-19.51,1.07,6.63-.36,12.84-.7,19.51-1.07Z"/>
  <path class="cls-1" d="M247.57,527.83h13.09c-4.49,5.63-8.79,1.19-13.09,0Z"/>
  <path class="cls-2" d="M288.82,271.68c17.95-2.93,35.89-5.87,53.84-8.8-.06-.38-.13-.77-.19-1.15-5.51.94-11.03,1.88-16.9,2.88,0-2.3,0-4.23,0-6.17q9.64-3.49,9.41-12.28c-2.05,3.06.87,8.44-4.7,9.46-2.74-7.54-1.45-11.14,4.5-12.42.54-3.97.42-8.27,1.93-11.89.68-1.63,4.62-1.91,7.31-2.88.7,15.96,1.38,31.33,2.07,47.06-77.64,14.31-155.11,28.59-232.6,42.87-1.73-10.22-1.19-11.33,5.74-13.26.34-8.67-.39-17.42.44-26.07.67.02,1.34.04,2.02.07v26.13c29.52-6.04,58.7-12.02,87.9-18-3.74-4.56-1.91-7.98,6.19-10.29,0-3.03-.03-6.32,0-9.6q.1-8.62,9.45-10.58v27.6c5.91-1.13,10.76-2.07,15.61-3-.03-.24-.07-.48-.1-.73-3.6.53-7.21,1.05-10.81,1.58-1.87-6.72-1.56-7.09,4.46-9.23,1.29-.46,2.76-2.28,2.93-3.63.58-4.45.66-8.97.81-13.46.11-3.35,1.48-4.98,5.37-4.18v19.36c1.73-7.59-1.23-14.71,1.91-20.98.86.06,1.71.12,2.57.18.37,9.95.54,19.9-.39,30.23,3.31-.83,7.59-1.9,11.86-2.98,3.51-.42,7.01-.83,10.52-1.25,2.16-.58,4.31-1.16,6.47-1.75,4.13-.95,8.25-1.91,12.38-2.86Z"/>
  <path class="cls-2" d="M204.99,190.25c4.4-.52,8.84-1.73,13.19-1.46,42.7,2.69,85.39,5.62,129.21,8.56-2,.98-3.3,1.93-4.75,2.28-32.16,7.83-64.34,15.62-96.52,23.38-45.77,11.03-91.55,22.05-137.34,33.02-2.52.6-5.15.74-7.99.11.72-.33,1.41-.83,2.17-.95,29.91-4.8,55.95-18.8,81.41-34.18,10.39-6.28,20.7-12.7,31.16-18.88,1.42-.84,3.49-.88,5.24-.78,22.11,1.27,44.23,2.46,66.33,4.02,14.33,1.01,28.2-1.61,42.11-4.23,1.72-.32,3.43-.71,5.07-.18-39.18-2.79-78.37-5.52-117.55-8.44-4.75-.35-8.55.83-12.66,3.21-18.87,10.92-37.86,21.64-57.02,32.06-15.04,8.18-30.4,15.78-45.58,23.7-1.12.59-1.86,1.9-2.97,2.52-2.37,1.32-4.91,2.55-6.04-1.49,0,0-.16.1-.16.1,4.35-2.03,8.84-3.79,13.01-6.13,12.87-7.21,25.61-14.65,38.4-22,11.21-6.13,22.42-12.25,33.64-18.38,6.45-3.88,12.91-7.75,19.36-11.63,2.76-1.41,5.52-2.82,8.27-4.23Z"/>
  <path class="cls-2" d="M245.39,394.07c0,22.93-.07,45.85.07,68.78.03,4.2-1.19,5.98-6.62,4.46.8-25.32,1.44-50.9,2.45-76.46,1.01-25.63,2.37-51.25,3.59-77.16,1.99.41,3.99.83,6.58,1.36v10.17c.32,0,.64,0,.97,0v-9.38c4.07-1.23,3.91,1.25,3.95,3.64.41,26.32.88,52.65,1.24,78.97.3,21.33.48,42.66.69,63.98.02,2.43.62,5.39-4.52,4.29v-135.59c-.5,0-1,0-1.5,0v135.99c-2.12.2-3.71.35-5.79.54v-73.59h-1.12ZM246.76,360.96c.07,0,.15,0,.22,0v-29.86c-.07,0-.15,0-.22,0v29.86Z"/>
  <path class="cls-2" d="M207,468.65c.54-39.3,1.09-78.4,1.63-117.51-.23,0-.45,0-.68-.01-.84,39.21-1.67,78.42-2.52,118-3.81.18-7.34.35-11.5.55,0-2.88-.12-5.33.02-7.77,2.28-40.24,4.6-80.48,6.9-120.71.21-3.66.65-7.34.44-10.98-.27-4.81,1.64-6.87,6.93-6.27v19h.88c0-4.88-.14-9.76.09-14.63.07-1.46,1.19-2.88,1.82-4.32.69,1.44,2,2.88,1.99,4.32-.05,30.32-.21,60.63-.43,90.95-.11,15.16-.45,30.31-.6,45.47-.03,2.94-.49,5.06-4.97,3.9ZM202.55,361.78c-.28,7.56-.82,21.97-1.36,36.39.45.01.91.02,1.36.03v-36.42ZM199.76,462.81c.12.07.23.13.35.19v-37.09c-.12,0-.23,0-.35,0v36.9Z"/>
  <path class="cls-2" d="M337.92,463.56h-7.51c.71-32.46,1.43-64.85,2.14-97.24-.22,0-.44,0-.66-.01-.51,22.76-1,45.51-1.55,68.27-.2,8.32-.8,16.64-.73,24.96.04,4.47-1.63,5.7-6.48,4.55,1.63-54.42,3.58-109,6.34-163.54.73-.08,1.47-.16,2.2-.24.35,1.67.99,3.34,1,5.01.09,12.49.05,24.98.4,37.47,0-12.29-.01-24.57.02-36.86,0-1.48,0-3.04.47-4.4.22-.66,1.55-1.35,2.32-1.28.63.05,1.31,1.13,1.69,1.89.27.54.09,1.31.1,1.97.18,51.8.36,103.6.53,155.4,0,1.14-.15,2.28-.27,4.05Z"/>
  <path class="cls-2" d="M149.54,470.88c-.25-4.41-.62-9.01-.76-13.62-1.19-39.26-2.35-78.52-3.51-117.78-.16-5.45,1.69-7.5,6.88-8.36,2.03-.34,3.94-1.47,5.84-2.38,4.66-2.24,6.55-1.1,6.22,3.98-2.86,44.67-5.79,89.34-8.56,134.02-.25,4.08-1.76,5.35-6.12,4.15Z"/>
  <path class="cls-2" d="M352.52,471.8c-80,3.02-159.74,6.02-239.48,9.02-.65.02-1.3-.12-2.33-.23v-5.69c5.48-.32,10.92-.7,16.37-.94,34.29-1.48,68.58-2.89,102.87-4.38,36.12-1.57,72.23-3.22,108.35-4.81,2.99-.13,6-.12,8.99-.14,6.19-.04,6.24.04,5.23,7.18Z"/>
  <path class="cls-2" d="M284.44,392v6.35l-.98-.02c.77-29.82,1.54-59.64,2.32-89.55h9.59c.09,2.09.24,3.87.24,5.65.02,48.66.04,97.31.04,145.97,0,2.39.77,5.25-3.38,5.1-3.84-.13-2.92-2.89-3.03-5.04-.13-2.48-.03-4.98-.5-7.47,0,2.74-.15,5.49.04,8.21.27,3.94-1.46,5.05-5.93,3.87.7-24.3,1.41-48.71,2.11-73.13-.17.02-.34.04-.51.07ZM290.38,393.27c.39,0,.77,0,1.16.01v-69.15c.18,0,.35,0,.53,0-.56,23.04-1.13,46.09-1.69,69.13ZM290.07,402.04c-.12,0-.24,0-.37-.01v41.9c.12,0,.24,0,.37,0v-41.89Z"/>
  <path class="cls-2" d="M393.39,533.51c3.83.68,6.76,1.2,10.69,1.9.14-.18.83-1.95,1.82-2.14,7.78-1.49,11.59-7.47,16.05-13.03,1.71-2.13,5-3.84,7.73-4.11,4.67-.47,6.98-2.79,9.48-6.47,10.79-15.9,33.61-17.23,48.57-3.25,4.79,4.48,8.83,9.16,7.55,16.36-.11.65-.27,1.3-.49,1.92-.1.29-.41.5-.83.99-6.06-3.19-12.15-6.99-19.78-4.11-2.37-5.42-5.16-10.33-12.16-9.81-7.65.57-13.13,5.2-17.17,14.56-13.36.62-14.05.96-17.96,7.81-7.92,2.59-14.57,4.76-21.15,6.91-3.32-2.02-7.29-4.44-12.35-7.52Z"/>
  <path class="cls-2" d="M165.96,330.26c2.58.63,4.3,1.04,6.65,1.61-1.19,45.98-2.38,92.03-3.57,138.36-1.98.13-3.58.24-6.04.41,1.75-38.89,3.48-77.39,5.21-115.9-.24-.01-.48-.02-.73-.03-.97,20.34-1.96,40.68-2.9,61.02-.78,16.96-1.53,33.93-2.24,50.9-.12,2.92-.77,5.02-5.41,3.94,2.99-46.53,6-93.24,9.03-140.31Z"/>
  <path class="cls-2" d="M127.96,472.16h-5.74c1.88-40.85,3.75-81.54,5.62-122.23-.32-.01-.64-.03-.95-.04-.76,15.48-1.54,30.96-2.29,46.43-1.16,24.12-2.31,48.24-3.41,72.37-.12,2.69-.4,4.78-4.23,3.54,2.52-45,5.05-90.09,7.58-135.18.58-.11,1.17-.22,1.75-.33.58,2.41,1.17,4.82,1.58,6.52.1-1.35.25-3.52.41-5.68.56-.13,1.12-.25,1.68-.38.49,1.65,1.42,3.32,1.39,4.96-.33,20.49-.74,40.97-1.25,61.45-.53,21.32-1.19,42.63-1.81,63.94-.04,1.46-.22,2.91-.35,4.62Z"/>
  <path class="cls-2" d="M102.75,262.9c-.89-1.95-1.7-3.59,1.55-4.37,73.97-17.73,147.93-35.54,221.89-53.3,6.29-1.51,12.64-2.77,18.96-4.14.32.44.64.88.96,1.32-1.49,1.1-2.83,2.77-4.5,3.22-9.48,2.54-19.04,4.82-28.58,7.13-64.43,15.55-128.86,31.09-193.31,46.58-5.65,1.36-11.41,2.28-17.12,3.42,0,0,.14.15.14.15Z"/>
  <path class="cls-2" d="M345.52,463.34h-6.1c0-2.17,0-4.12,0-6.07-.09-36.62-.1-73.25-.31-109.87-.08-13.64-.61-27.28-.92-40.93-.03-1.16-.33-2.46.07-3.46.44-1.11,1.55-1.95,2.37-2.91.81,1,2.28,1.97,2.32,3,.34,9.15.44,18.3.59,27.46.67,42.44,1.33,84.89,1.98,127.33.03,1.64,0,3.28,0,5.45Z"/>
  <path class="cls-2" d="M204.99,190.25c-2.76,1.41-5.52,2.82-8.27,4.23-4.49,2.32-9.06,4.5-13.44,7-2.15,1.23-3.96,3.06-5.92,4.62-11.21,6.12-22.42,12.25-33.64,18.38-.93.24-1.95.3-2.77.75-15.53,8.45-31.04,16.93-46.53,25.45-.81.45-1.42,1.28-2.12,1.93,0,0,.16-.1.16-.1-4.08-3.65-3.95-4.65,1.7-9.39-.45.67-1.03,1.3-1.32,2.04-.31.8-.36,1.7-.52,2.55,1.01.1,2.24.61,3,.21,2.77-1.46,5.35-3.28,8.07-4.85,6.87-3.97,13.8-7.84,20.65-11.85,1.34-.79,2.43-2.01,3.64-3.04,0,0-.13.15-.12.14,1.49-.56,3.08-.93,4.45-1.7,22.94-12.84,45.9-25.62,68.71-38.68,4.68-2.68,9.26-3.94,14.64-3.59,35.37,2.31,70.76,4.44,106.14,6.66,6.81.43,13.61.92,20.41,1.48,1.93.16,3.83.69,5.75,1.05,0,.42,0,.84,0,1.27-1.27.12-2.56.41-3.82.34-43.02-2.69-86.04-5.49-129.08-7.96-3.2-.18-6.52,1.98-9.79,3.05Z"/>
  <path class="cls-2" d="M190.34,468.25c-1.17-36.01-2.33-72.03-3.49-107.92.71-.26,1.03-.49,1.31-.46q9.11.99,8.65,10.13c-1.58,31.6-3.16,63.2-4.76,94.79-.06,1.13-.3,2.24-.45,3.36-.42.03-.84.06-1.26.1Z"/>
  <path class="cls-2" d="M450.96,335.73c3.22,2.65,6.49,5.23,9.6,7.99.58.52.8,1.81.71,2.69-2.92,27.07-2.71,54.18-1.35,81.32.26,5.14.04,10.31-.13,15.5l-10.26-106.19c.48-.44.95-.88,1.43-1.31Z"/>
  <path class="cls-2" d="M298.76,309.3c.19,1.03.54,2.05.56,3.08.95,49.11,1.87,98.23,2.79,147.34.05,2.83.55,6.17-4.83,4.39v-154.78c.49-.01.99-.02,1.48-.03Z"/>
  <path class="cls-2" d="M175.66,331.6c.24,1.39.71,2.79.7,4.18-.38,43.45-.79,86.9-1.32,130.35-.02,1.39-1.42,2.76-2.17,4.14-.59-1.46-1.72-2.93-1.69-4.38.66-43.45,1.43-86.89,2.21-130.33.02-1.24.29-2.47.44-3.71.61-.08,1.23-.16,1.84-.24Z"/>
  <path class="cls-2" d="M370.01,358.08c.77,1.77,2.21,3.55,2.21,5.32-.09,33.47-.35,66.95-.58,100.42,0,.32-.15.64-.32,1.27-3.09.79-5.21.68-5.11-3.68.76-33.96,1.41-67.93,2.11-101.89,0-.31.2-.63.3-.94.46-.17.92-.34,1.39-.5Z"/>
  <path class="cls-2" d="M378.4,466.02c-3.11.37-5.21.49-5.2-3.4.1-32.82.08-65.64.11-98.46,0-.61.21-1.22.38-2.2,4.06,1.52,3.36,4.88,3.41,7.61.49,27.48.89,54.97,1.29,82.46.07,4.63,0,9.25,0,13.99Z"/>
  <path class="cls-2" d="M288.82,271.68c-4.13.95-8.25,1.91-12.38,2.86-2.61-5.52-1.51-8.02,3.66-10.42,1.56-.72,2.92-2.96,3.36-4.75.7-2.86.62-5.92.73-8.89.1-2.79.02-5.59.02-8.46,3.6-.81,6.74-1.52,11.05-2.49,0,5.96,0,11.5,0,17.03,0,1.99-.3,4.02,0,5.96.8,5.23-.98,8.44-6.44,9.16Z"/>
  <path class="cls-2" d="M361.05,352.41c4.89,1.94,6.55,5.02,6.38,10.65-1,31.92-1.41,63.85-2.04,95.78-.04,1.88-.21,3.75-1.35,5.6-2.31-37.23-1.32-74.51-2.98-112.04Z"/>
  <path class="cls-2" d="M299.94,268.83c-.55-4.29-.3-7.09,4.17-7.69.92-.12,2.06-2.24,2.24-3.56.41-2.94.12-5.98.42-8.94.35-3.42,2.08-4.29,4.96-2.1,2.39-4.25-3.4-13.77,7.93-12.32,0,5.75.07,11.48-.02,17.21-.08,4.62,1.33,10.68-1.03,13.46-2.35,2.76-8.57,2.25-13.1,3.12-1.74.33-3.51.52-5.57.82Z"/>
  <path class="cls-2" d="M269.97,276.28c-3.51.42-7.01.83-10.52,1.25h-6.82c-1.67-7.12-1.58-7.09,4.63-9.33,1.21-.44,2.55-2.08,2.78-3.36.51-2.74.37-5.6.43-8.42q.18-9.4,11.12-10.65c-.55,10.29-1.09,20.4-1.63,30.51Z"/>
  <path class="cls-2" d="M130.25,472.16c.8-44.68,1.59-88.92,2.38-133.15.71-.02,1.41-.04,2.12-.07,0,6.22,0,12.44,0,18.66,0,6.32-.02,12.65-.06,18.97-.04,6.49-.1,12.98-.16,19.47-.06,6.49-.12,12.98-.18,19.47-.06,6.49-.1,12.98-.21,19.47-.11,6.32-.3,12.65-.47,18.97q-.43,16.49-3.43,18.2Z"/>
  <path class="cls-2" d="M215.09,468.39v-143.16c2.95,3.39,3.92,137.29,0,143.16Z"/>
  <path class="cls-2" d="M157.67,269.29h7.55c0,8.08.08,16.15-.12,24.22-.02.81-1.58,2.04-2.62,2.28-4.31,1.02-8.7,1.73-13.31,2.61-.46-3.53-1.86-6.81,3.34-7.36.76-.08,1.66-2.16,1.87-3.42.91-5.39,1.55-10.82,2.36-16.23.11-.75.62-1.44.92-2.1Z"/>
  <path class="cls-2" d="M260.09,317.46c1.17,49.45,2.33,98.91,3.5,148.36-.56.01-1.13.03-1.69.04-1.31-49.45-2.61-98.9-3.92-148.35.7-.02,1.41-.04,2.11-.06Z"/>
  <path class="cls-2" d="M133.82,293.14c-.85-.9-1.93-2.05-3.65-3.86,2.82-.58,4.22-.87,5.42-1.12,2.62-5.42-3.59-15.24,8.25-15.31,2,7.17.74,25.4-2.65,27.02v-17.81h-.54c0,4.81-.1,9.62.04,14.43.08,2.61-.73,3.96-3.51,4.28-3.43.39-6.82,1.17-10.19,1.78-1.79-6.33-1.18-7.09,6.83-9.39Z"/>
  <path class="cls-2" d="M350.33,461.84c-1.81-53.58-3.61-107.15-5.42-160.73.65-.02,1.31-.04,1.96-.07,1.96,53.57,3.14,107.17,3.46,160.8Z"/>
  <path class="cls-2" d="M169.19,294.09c-.63-7.36,1.27-11.3,6.1-12.49.17-2.76.4-5.7.52-8.64.29-7.14.27-7.14,7.62-7.37v25.18l-1.54.04v-14.46c-.4,0-.8-.01-1.21-.02,0,3.27-.28,6.57.07,9.81.5,4.58-1.25,6.85-5.84,7.12-1.79.1-3.57.51-5.71.83Z"/>
  <path class="cls-2" d="M346.14,276.5c.49,2.47.95,4.8,1.44,7.33-9.68,2.11-18.89,4.29-28.17,6.08-5.95,1.15-4.32-3.72-5.28-7.3,10.7-2.04,21.07-4.02,32.01-6.11Z"/>
  <path class="cls-2" d="M302.35,311.68l3.8,147.64c-.48.01-.96.02-1.44.04-1.33-49.24-2.66-98.47-3.98-147.71.54,0,1.08.02,1.63.03Z"/>
  <path class="cls-2" d="M269.5,291.35c9.89-2.03,19.99-4.1,30.64-6.29-.2,3.05-.34,5.15-.51,7.68-8.32,1.67-16.62,3.57-25.02,4.91-3.65.58-6.08-1.27-5.12-6.3Z"/>
  <path class="cls-2" d="M226.53,299.31c10.06-2.05,19.92-4.05,30.52-6.21-.16,2.88-.29,5.07-.42,7.39-7.51,1.47-14.64,3.15-21.86,4.17-3.33.47-7.78,1.35-8.24-5.36Z"/>
  <path class="cls-2" d="M531.92,223.45c-1.56,1.02-3.14,2.04-5.13,3.33-3.81-6.84-9.44-11.11-17.95-10.4-7.74.65-13.75,4.48-19.06,10.42.76-6.81,7.83-12.05,18.1-13.93,10.8-1.97,19.68,1.93,24.04,10.57Z"/>
  <path class="cls-2" d="M263.23,242.46v-7.67q-.77,8.34-8.95,10.19c-2.41.54-4.83,1.04-7.73,1.66v-7.73c4.31-1.91,11.86.89,11.73-7.98h7.5c2.52,7.22,1.95,10.63-2.54,11.53Z"/>
  <path class="cls-2" d="M200.65,262.03c0,7.82.12,15.43-.13,23.03-.04,1.17-1.55,2.91-2.74,3.31-2.78.94-5.79,1.22-9.14,1.86v-8.12c6.99,1.13,6.62-3.57,6.59-8.07-.01-2.49.26-4.99.08-7.46-.25-3.41,1.08-4.97,5.33-4.54Z"/>
  <path class="cls-2" d="M171.42,309.35c.83,2.14,1.49,3.81,2.18,5.6-7.32,1.71-14.53,3.43-21.75,5.07-4.69,1.07-5.26-1.87-5.26-6.1,8.27-1.52,16.51-3.04,24.83-4.57Z"/>
  <path class="cls-2" d="M240.5,247.95c-.27-2.07-.45-3.46-.6-4.64-.4,5.52-2.61,6.94-12.99,8.12-1.67-6.62-1.46-6.98,5.09-8.74,2.32-.62,4.71-.64,5.43-4.04.28-1.31,3.3-2.04,5.07-3.03.61,1.51,1.83,3.08,1.69,4.53-.25,2.69,2.11,6.85-3.7,7.8Z"/>
  <path class="cls-2" d="M211.98,301.16c.2,2.54.34,4.23.52,6.48-9.07.12-17.44,7.46-26.34,1.27-.09-.62-.19-1.24-.28-1.86,8.48-1.91,16.97-3.82,26.1-5.88Z"/>
  <path class="cls-2" d="M198.94,255.13c-2.4,5.62-8.49,3.07-12.73,5.1-1.96-6.71-1.69-7,4.12-9.13,2-.73,3.66-2.41,6.68-4.48,5.46-.11,6.34.82,5.27,7.78-.15.95-1.06,1.78-1.62,2.67-.74-.83-1.47-1.65-1.73-1.94Z"/>
  <path class="cls-2" d="M203.71,249.06c5.9-1.95,12.76-1.43,14.17-9.9.6.4,1.2.8,1.8,1.19,0,3.7.12,7.41-.1,11.1-.05.79-1.23,1.93-2.1,2.18-4.11,1.18-8.3,2.12-13.05,3.29-.27-2.87-.47-5.11-.73-7.86Z"/>
  <path class="cls-2" d="M268.39,239.98c.9-2.6,1.08-6.14,2.9-7.55,2.08-1.61,5.63-1.31,7.28-1.62,1.92-2.54,3.17-4.19,4.42-5.84.44.28.87.56,1.31.85v11.56c-4.88,1.32-9.6,2.59-14.32,3.87-.53-.42-1.07-.84-1.6-1.26Z"/>
  <path class="cls-2" d="M338.22,213.5v11.51c-4.48,1.08-8.7,2.1-12.91,3.12-2.12-8.38-1.94-8.56,5.07-10.21,1.46-.34,2.64-1.77,4.01-2.59,1.02-.61,2.15-1.04,3.83-1.83Z"/>
  <path class="cls-2" d="M291.75,235.36c-1.32-7.69-1.3-7.62,5.51-9.63,1.21-.36,2.11-1.65,3.26-2.33.93-.55,2.02-.84,3.04-1.25.54,2.84,1.4,5.68,1.44,8.54.01.95-1.97,2.15-3.26,2.82-1.14.59-2.57.63-3.88.86-1.96.34-3.92.64-6.11.99Z"/>
  <path class="cls-2" d="M140.44,270.03c-1.97-5.39-.72-7.71,4.43-8.6,3.18-.55,6.07-2.79,9.35-4.39v9.67c-4.53,1.09-9.18,2.22-13.78,3.33Z"/>
  <path class="cls-2" d="M169.16,252.94v10.14c-3.93.99-8.03,2.02-12.45,3.13-.66-4.45-2.17-8.52,4.67-9.35,2.31-.28,4.29-3.16,6.43-4.86.45.32.9.63,1.35.95Z"/>
  <path class="cls-2" d="M306.38,232.13c-.31-4.89-1.33-9.66,5.59-10.04.51-.03,1.03-.71,1.45-1.18.87-.97,1.67-2,2.49-3,.57,1.41,1.54,2.79,1.64,4.24.56,8.02.27,8.23-11.18,9.98Z"/>
  <path class="cls-2" d="M124.92,273.86c-.65-4.9-1.05-8.7,4.9-8.48.81.03,1.68-.79,2.47-1.29,1.28-.82,2.44-1.88,3.82-2.4.27-.1,1.95,1.84,1.84,2.7-.26,2.06-.61,5.1-1.97,5.83-3.24,1.76-7.08,2.42-11.06,3.64Z"/>
  <path class="cls-2" d="M107.38,277.29c-.2-3.36-.38-6.43-.61-10.32,4.64,4.95,8.06,1.8,11.58-.43,1.99,9.71.43,11.36-10.97,10.75Z"/>
  <path class="cls-2" d="M426.71,397.72c-.85-12.17-1.7-24.35-2.55-36.52.52-.27,1.05-.54,1.57-.81.95,1.21,2.73,2.43,2.72,3.63-.1,11.23-.5,22.46-.81,33.7-.31,0-.62,0-.93,0Z"/>
  <path class="cls-2" d="M114.29,304.05c0-7.25-.13-14.5.13-21.73.04-1.18,1.77-2.3,2.71-3.45.41.28.82.56,1.23.83,0,7.4.13,14.8-.13,22.2-.04,1.12-1.86,2.19-2.86,3.28-.36-.38-.72-.75-1.08-1.13Z"/>
  <path class="cls-2" d="M505.53,531.61c1.67-6.25,6.29-8.91,11.93-9.68,8.01-1.09,14.66,1.7,19.61,8.52-10.93-9.37-21.21-6.3-31.54,1.16Z"/>
  <path class="cls-2" d="M171.35,262.67c-.3-2.26-.55-4.16-.64-4.82,4.31-2.87,7.8-5.2,11.13-7.42,2.47,10.05,2.71,9.52-10.49,12.24Z"/>
  <path class="cls-2" d="M204.59,261.22c0,8.07.05,16.14-.09,24.2-.01.75-1.22,1.48-1.88,2.21-.49-.73-1.4-1.44-1.41-2.18-.12-7.44-.17-14.88-.01-22.32.02-.95,1.37-1.86,2.1-2.8.43.29.85.58,1.28.88Z"/>
  <path class="cls-2" d="M339.39,225.24c0-3.4-.24-6.38.13-9.3.13-1.02,1.76-1.84,2.7-2.75.78.88,2.03,1.64,2.27,2.65,1.51,6.25.23,8.76-5.1,9.4Z"/>
  <path class="cls-2" d="M447.81,242.31c1.04,5.89,4,11.68-1.1,17.89l-.91-17.79c.67-.03,1.34-.07,2.01-.1Z"/>
  <path class="cls-2" d="M285.52,237.02c.26-4.2.51-8.11.8-12.77,4.37,4.37,3.91,11.45-.8,12.77Z"/>
  <path class="cls-2" d="M319.47,228.79v-12.86c4.41,6.25,4.02,11.82,0,12.86Z"/>
  <path class="cls-2" d="M321.25,265.07v-29.66c.32,0,.64,0,.96,0v29.66c-.32,0-.64,0-.96,0Z"/>
  <path class="cls-2" d="M465.66,548.73c4.18-4.25,10.82-5.21,15.99-2.46-4.94.76-10.86,1.67-15.99,2.46Z"/>
  <path class="cls-2" d="M490.16,541.3c4.42-3.39,11.16-3.06,16.21.99-5.15-.31-11.13-.68-16.21-.99Z"/>
  <path class="cls-2" d="M222.86,242v10.36c-.54.04-1.08.07-1.62.11-.17-3.4-.33-6.81-.5-10.21.71-.09,1.42-.17,2.12-.26Z"/>
  <path class="cls-2" d="M120.64,274.73v-9.92c3.58,3.28,3.67,7.61,0,9.92Z"/>
  <path class="cls-1" d="M92.31,252.62c.7-.65,1.3-1.48,2.12-1.93,15.49-8.52,31-17,46.53-25.45.82-.44,1.84-.51,2.77-.75-12.79,7.35-25.53,14.78-38.4,22-4.17,2.34-8.67,4.1-13.01,6.13Z"/>
  <path class="cls-1" d="M177.36,206.11c1.96-1.56,3.77-3.39,5.92-4.62,4.38-2.51,8.95-4.69,13.44-7-6.45,3.88-12.91,7.75-19.36,11.63Z"/>
  <path class="cls-1" d="M246.76,360.96v-29.86c.07,0,.15,0,.22,0v29.86c-.07,0-.15,0-.22,0Z"/>
  <path class="cls-1" d="M202.55,361.78v36.42c-.45-.01-.91-.02-1.36-.03.54-14.42,1.08-28.83,1.36-36.39Z"/>
  <path class="cls-1" d="M199.76,462.81v-36.9c.12,0,.23,0,.35,0v37.09c-.12-.06-.23-.13-.35-.19Z"/>
  <path class="cls-1" d="M290.38,393.27c.56-23.04,1.13-46.09,1.69-69.13-.18,0-.35,0-.53,0v69.15c-.39,0-.77,0-1.16-.01Z"/>
  <path class="cls-1" d="M290.07,402.04v41.89c-.12,0-.24,0-.37,0v-41.9c.12,0,.24,0,.37.01Z"/>
  <path class="cls-2" d="M16.5,128.64c-6.4,5.92-7.97,13.28-8.31,15.01-2.55,13.29,5.12,27.98,19.49,37.06,3.15-7.52,7.03-12.89,9.9-16.29,4.61-5.48,9.4-11.15,17.58-13.46,5.65-1.59,10.68-.95,13.72-.28.21-.63,3.78-10.72,13.42-12.78,4.65-.99,12.1-.41,15.65,4.79,1.48,2.16,1.84,4.49,1.92,6.07,1.63.59,4.34,1.84,6.71,4.47,1,1.12,1.72,2.23,2.24,3.19l13.74,3.83c.69-.96,5.59-7.59,13.42-7.67,2.5-.02,4.58.62,6.07,1.28-.83-2.39-4.08-12.58.96-23.32.44-.94,7.79-15.94,23.32-16.93,9.28-.59,16.1,4.15,18.21,5.75,3.83-4.26,7.67-8.52,11.5-12.78-.95-1.8-2.43-5.17-2.56-9.58-.05-1.64-.31-9.72,5.75-15.33,3.99-3.7,9.5-5.24,11.5-5.75,3.64-.93,6.79-1.03,8.94-.96-3.35-9.25-1.38-19.44,5.11-26.2,7.73-8.05,18.28-7.46,19.81-7.35.77-2.55,2.3-6.51,5.43-10.54,1.56-2.01,5.09-6.44,11.5-9.26,6.11-2.69,11.64-2.51,14.38-2.24-6.04-4.06-23.09-14.33-46.64-13.42-19.17.74-32.61,8.58-38.02,11.82-18.99,11.37-28.46,27.16-32.27,34.5-3.88-3.6-12.67-10.71-25.88-13.1-4.77-.86-18.9-3.42-32.27,5.11-9.22,5.89-13.26,13.98-14.06,15.65-8.6,17.96,1.04,36.16,2.24,38.34-3.4.21-9.64,1.08-15.97,5.11-11.47,7.3-14.42,19.33-15.01,22.04-15.53-6.79-31.88-5.73-41.53,3.19Z"/>
</svg>