<?xml version="1.0" encoding="UTF-8"?>
<svg id="Layer_1" data-name="Layer 1" xmlns="http://www.w3.org/2000/svg" viewBox="0 0 849.58 654.84">
  <defs>
    <style>
      .cls-1 {
        fill: #000;
      }

      .cls-1, .cls-2 {
        stroke-width: 0px;
      }

      .cls-2 {
        fill: #fff;
      }
    </style>
  </defs>
  <path class="cls-2" d="M849.41,278.08c-.26-3.21-2.54-31.45-14.84-45.5-1.27-1.45-5.95-4.97-7.11-11.43-.87-4.81-1.29-9.7-2.1-14.52-.93-5.51-1.73-10.73,2.1-15.83,1.33-1.77,1.28-3.94-.6-5.1-1.03-5.11-3.14-7.97-5.06-9.65-8.09-7.09-19.86-.44-26.9-7.63-.67-.68-2.07-3.79-4.87-10-2.41-5.36-3.62-8.04-4.61-11.04-2.68-8.18-2.14-11.94-5.84-15.45-1.42-1.35-2.9-2.12-3.88-2.55.78-2.36,1.09-4.56,2.16-6.29,3.45-5.57,1.42-8.08-4.26-10.14-11.78-4.29-23.31-9.28-35.01-13.8-3.29-1.27-5.52-2.67-5.26-6.77.07-1.06-2.07-3.07-3.39-3.27-10.67-1.59-21.38-2.86-32.16-4.23.05.25.26,1.26.93,4.58-4.56-2.74-8.14-4.03-10.47-6.5-4.04-4.28-7.13-9.43-10.94-13.96-5.86-6.97-12.74-7.71-19.82-2.47-7.63,5.64-12.23,4.27-16.59-4.09-1.06-2.03-4.23-3.77-6.64-4.09-3.78-.5-7.19-1.25-7.37-5.4-.38-8.48-6.09-9.95-12.75-11.24-16.28-3.14-33.01-5.09-48.6-10.37-19.82-6.71-39.12-15.38-57.83-24.81-15.24-7.68-29.87-8.53-45.49-2.84-3.35,1.22-7.07,2.53-10.49,2.24-15.62-1.33-29.3,3.91-42.31,11.6-20.35,12.03-42.78,17.6-65.82,20.84-5.01.7-7.85,2.3-9.52,6.63-2.88,7.49-8.37,11.72-15.87,14.45-12.78,4.65-25.33,9.96-37.9,15.17-.55.23-1.51.87-3.47,2.04-7.78,4.59-14.24,8.6-19.19,11.74-12.19-3.57-24.37-7.13-36.57-10.67-2.36-.68-5.28.54-7.93.94-2.17.33-4.33.74-6.53,1.13-.55-2.54-.92-4.28-1.17-5.44-18.36-1.63-36.14-3.28-53.94-4.7-2.22-.18-4.57.78-6.8,1.4-36.47,10.19-72.91,20.47-109.4,30.56-2.3.64-10.19-2.6-14.09,1.29-2.97,2.96-2.34,8.08-2.21,9.14.81,6.54,6,10.18,6.97,10.83.92,1.62,1.83,3.35,2.7,5.21,2.16,4.56,3.68,8.9,4.76,12.79-.79,20.87-1.59,41.75-2.38,62.62-11.86,5.08-20.75,18.02-14.96,30.39,1.18,2.51.24,7.67-1.71,9.67-5.33,5.49-4.8,10.99-2.06,16.97,1.2,2.63,2.99,4.99,4.65,7.69-2.83,1.64-5.51,2.96-7.93,4.64-10.55,7.35-12.07,20.84-3.27,28.27,5.87,4.96,17.47,6.32,24.2,2.74.74-.39.81-1.8,1.87-2.12,2.13-.66,5.13,2.45,6.61,5.11,1.93,3.46,2.52,8.37.9,9.24-1.28.69-2.86-1.76-6.31-3.47-6.31-3.13-16.48-2.57-19.43,2.77-1.72,3.11-.95,7.78,1.59,10.42,2.82,2.94,7.32,2.88,9.16,2.77,2.54-.15,5.08-.53,7.59-.97,5.33-.94,8.1,1.68,8.96,6.58.59,3.34.62,6.77,1.12,10.13.27,1.82.5,4.67,1.6,5.18,5.14,2.34,4.14,6.78,4.64,10.89,2,16.42,3.79,32.88,6.34,49.22,1.25,7.97,5.9,14.07,14.14,16.59,7.96,2.44,11.17,8.64,14.12,15.92,4.75,11.75,10.34,23.22,16.28,34.42,3.9,7.35,10.57,11.63,18.61,14.58,4.53,1.66,9.94,5.58,11.47,9.76,2.84,7.79,7.19,10.26,14.99,10.77,9.85.64,19.77,6.19,24.26,15.64,1.72,3.62,1.86,10.08,2.24,15.35.09,1.22.14,2.23.17,2.93-.17,1.37-1.8,16.52,6.99,22.04,1.32,1.66,1.67,2.21,2.13,2.64,1.25,1.15,2.53,2.28,3.83,3.37,42.55,35.78,91.49,58.67,145.48,70.57,91.03,20.05,179.69,11.59,265.72-24.2,45.8-19.05,85.96-46.41,119.69-82.87,4.83-5.22,9.57-11.37,11.69-17.95,1.25-3.9,2.74-5.22,5.69-6.8,6.13-3.31,12.52-6.36,18.03-10.53,16.59-12.57,27.43-30.07,38.73-47.06,26.61-40.05,44.9-83.29,51.16-131.38,1.81-13.89,10.92-26.95,9.43-45.33Z"/>
  <g>
    <g>
      <path class="cls-1" d="M767.93,190.64c-.03.14-.07.25-.1.38h.23c-.05-.13-.09-.25-.13-.38Z"/>
      <path class="cls-1" d="M849.41,278.08c-.26-3.21-2.54-31.45-14.84-45.5-1.27-1.45-5.95-4.97-7.11-11.43-.87-4.81-1.29-9.7-2.1-14.52-.93-5.51-1.74-10.73,2.1-15.83,1.33-1.77,1.28-3.94-.6-5.1-1.03-5.11-3.14-7.97-5.06-9.65-8.09-7.09-19.86-.44-26.9-7.63-.67-.68-2.07-3.79-4.87-10-2.41-5.36-3.62-8.04-4.61-11.04-2.68-8.18-2.14-11.94-5.84-15.45-1.42-1.35-2.9-2.12-3.88-2.55.78-2.36,1.09-4.56,2.16-6.29,3.45-5.57,1.42-8.08-4.26-10.14-11.78-4.29-23.31-9.28-35.01-13.8-3.29-1.27-5.52-2.67-5.26-6.77.07-1.06-2.07-3.07-3.39-3.27-10.67-1.59-21.38-2.86-32.16-4.23.05.25.26,1.26.93,4.58-4.56-2.74-8.14-4.03-10.47-6.5-4.04-4.28-7.13-9.43-10.94-13.96-5.86-6.97-12.74-7.71-19.82-2.47-7.63,5.64-12.23,4.27-16.59-4.09-1.06-2.03-4.23-3.77-6.64-4.09-3.78-.5-7.19-1.25-7.37-5.4-.38-8.48-6.09-9.95-12.75-11.24-16.28-3.14-33.01-5.09-48.6-10.37-19.82-6.71-39.12-15.38-57.83-24.81-15.24-7.68-29.87-8.53-45.49-2.84-3.35,1.22-7.07,2.53-10.49,2.24-15.62-1.33-29.3,3.91-42.31,11.6-20.35,12.03-42.78,17.6-65.82,20.84-5.01.7-7.85,2.29-9.52,6.63-2.88,7.49-8.37,11.72-15.87,14.45-12.78,4.65-25.33,9.96-37.9,15.17-.55.23-1.51.87-3.47,2.04-7.78,4.59-14.24,8.6-19.19,11.74-12.19-3.57-24.37-7.13-36.57-10.67-2.36-.68-5.28.54-7.93.94-2.17.33-4.33.74-6.53,1.13-.55-2.54-.92-4.28-1.17-5.44-18.36-1.63-36.14-3.28-53.94-4.7-2.22-.18-4.57.78-6.8,1.4-36.47,10.19-72.91,20.47-109.4,30.56-2.3.64-10.19-2.6-14.09,1.29-2.97,2.96-2.34,8.08-2.21,9.14.81,6.54,6,10.18,6.97,10.83.92,1.62,1.83,3.35,2.7,5.21,2.16,4.56,3.68,8.9,4.76,12.79-.79,20.87-1.59,41.75-2.38,62.62-11.86,5.08-20.75,18.02-14.96,30.39,1.18,2.51.24,7.67-1.71,9.67-5.33,5.49-4.8,10.99-2.06,16.97,1.2,2.63,2.99,4.99,4.65,7.69-2.83,1.64-5.51,2.96-7.93,4.64-10.55,7.35-12.07,20.84-3.27,28.27,5.87,4.96,17.47,6.32,24.2,2.74.74-.39.81-1.8,1.87-2.12,2.13-.66,5.13,2.45,6.61,5.11,1.93,3.46,2.52,8.37.9,9.24-1.28.69-2.86-1.76-6.31-3.47-6.31-3.13-16.48-2.57-19.43,2.77-1.72,3.11-.95,7.78,1.59,10.42,2.82,2.94,7.32,2.88,9.16,2.77,2.54-.15,5.08-.53,7.59-.97,5.33-.94,8.1,1.68,8.96,6.58.59,3.34.62,6.77,1.12,10.13.27,1.82.5,4.67,1.6,5.18,5.14,2.34,4.14,6.78,4.64,10.89,2,16.42,3.79,32.88,6.34,49.22,1.25,7.97,5.9,14.07,14.14,16.59,7.96,2.44,11.18,8.64,14.12,15.92,4.75,11.75,10.34,23.22,16.28,34.42,3.9,7.35,10.57,11.63,18.61,14.58,4.53,1.66,9.94,5.58,11.47,9.76,2.84,7.79,7.19,10.26,14.99,10.77,9.85.64,19.77,6.19,24.26,15.64,1.72,3.62,1.86,10.08,2.24,15.35.09,1.22.14,2.23.17,2.93-.17,1.37-1.8,16.52,6.99,22.04,1.32,1.66,1.67,2.21,2.13,2.64,1.25,1.15,2.53,2.28,3.83,3.37,42.55,35.78,91.49,58.67,145.48,70.57,91.03,20.05,179.69,11.59,265.72-24.2,45.8-19.05,85.96-46.41,119.69-82.87,4.83-5.22,9.57-11.37,11.69-17.95,1.25-3.9,2.74-5.22,5.69-6.8,6.13-3.31,12.52-6.36,18.03-10.53,16.59-12.57,27.43-30.07,38.73-47.06,26.61-40.05,44.9-83.29,51.16-131.38,1.81-13.89,10.92-26.95,9.43-45.33ZM722.59,201.99v46.47c.89,0,1.78-.02,2.67-.02,0-8.37-.02-16.74,0-25.12.01-3.83-.31-7.74.35-11.46.43-2.43,2.37-4.6,3.64-6.88l2.44.83c.23,4.59.58,9.18.67,13.77.17,8.72.02,17.46.38,26.17.13,3.01,1.35,5.98,2.1,8.97-2.12-.49-4.44-.61-6.3-1.59-11.9-6.25-24.16-6.31-36.46-1.94-8.34,2.96-13.35,9.51-16.11,17.85-.48-.2-.96-.41-1.43-.61,1.34-3.59,2.75-7.16,4-10.78,1.13-3.28,2.82-6.58,2.99-9.94.62-11.89.72-23.82.96-35.73.07-3.62.62-6.53,6.35-4.92v41.32c.68.03,1.36.07,2.03.1.19-1.86.53-3.72.56-5.58.14-10.21.2-20.42.3-30.64.04-3.72,1.28-6.21,6.77-5.22v38.13h17.47c.51-14.02,1.02-28.06,1.53-42.25h-72.69c-.14-2.42-.26-4.55-.38-6.68-.47-.06-.95-.11-1.42-.17-.54,2.05-1.08,4.1-1.85,7.02-4.04.18-8.39.37-13.34.59.4-1.9.69-3.23.95-4.49q5.78-.69,6.23-3.75c5.06.69,11.33-4.48,14.69,3.91,1.14-1.61,2.25-3.18,3.99-5.63,1.3,2.98,2.13,4.91,2.97,6.84.43,0,.86,0,1.29,0,.26-1.91.53-3.83,1.05-7.61,2.04,3.17,3.23,5.01,4.04,6.28,2.3-1.81,4.47-3.51,6.64-5.22.36.31.72.61,1.07.92-.28,1.28-.55,2.55-.95,4.42h7.32c-.44-1.43-.85-2.75-1.25-4.08.28-.44.57-.89.85-1.34,1.35,1.04,2.71,2.06,4.06,3.12,1.36,1.07,2.71,2.16,4.06,3.24.4-.38.8-.76,1.19-1.14-.5-1.15-1.01-2.29-1.51-3.44.37-.41.74-.83,1.12-1.24,1.7,1.58,3.4,3.16,5.27,4.9.43-.99,1.03-2.34,1.7-3.88,1.05,1.49,2.05,2.91,3.04,4.31,1.32-1.92,2.42-3.52,3.53-5.12.6,1.22,1.02,2.61,1.88,3.61.59.68,2.49,1.3,2.63,1.11,1.11-1.55,1.95-3.3,3.07-5.37,3.79.03,8.99-2.57,9.22,4.95,2.21,0,4.09.24,5.87-.07,1.44-.25,2.76-1.16,4.14-1.78-1.43-.83-2.8-1.78-4.3-2.45-.69-.31-1.63-.05-2.5-.67h9.19c.25,1.46.54,3.16.83,4.87l1.49.44c.84-1.72,1.69-3.44,2.16-4.41,3.19,1.31,6.46,2.65,10.13,4.15.99-2.23,1.68-3.78,2.73-6.15,1.18,2.28,2.01,3.88,3.58,6.89.65-3.12.98-4.69,1.63-7.78,1.7,2.59,2.78,4.23,3.92,5.96,4.9.21,10.82,2.32,13-6.94h-7.21c-.33,1.5-.62,2.84-.92,4.18-.99-.74-1.89-1.66-2.98-2.19-1.87-.91-3.87-2.27-5.8-2.25-25.32.23-50.63.67-75.95,1.05-12.31.19-24.62.43-36.93.45-2.14,0-4.29-.94-6.43-1.45.11-.93.22-1.86.33-2.8h188.53c.03.16.06.33.09.49-12.8.77-25.6,1.55-38.4,2.32-.09.45-.19.91-.28,1.36,2.46.96,4.93,1.91,8.11,3.14.15.3.84,1.76,1.54,3.21,1.14-1.5,2.28-3,3.69-4.85.27,1.48.55,3.01,1.12,6.11,2.1-2.59,3.47-4.27,5.02-6.19,1.02,1.6,2.05,3.2,3.97,6.18.24-8.7,5.8-7.87,9.86-6.78,3.1.83,5.51,4.26,8.23,6.54-.42.81-.85,1.62-1.27,2.44h-99.57ZM818.66,267.45c-3.2.16-6.07.3-8.85.44-2.85-12.27-.86-59.56,2.52-63.02,3.27,4.57,7.59,46.11,6.33,62.58ZM800.35,237.11c0,8.93.13,17.86-.12,26.78-.04,1.54-1.69,3.04-2.59,4.56-1.13-1.46-3.18-2.89-3.24-4.4-.81-18.7-1.38-37.41-1.79-56.12-.03-1.31,1.73-2.65,2.65-3.98,1.06,1.27,2.99,2.52,3.03,3.82.26,9.77.14,19.56.14,29.34.64,0,1.28,0,1.93,0ZM782.12,268.33c0-3.04-.07-5.75.01-8.46.48-15.72.99-31.44,1.54-47.16.07-1.9.23-3.88.86-5.63.33-.9,1.75-1.74,2.79-1.91.58-.09,1.87,1.14,2.03,1.94.63,3.11,1.18,6.28,1.31,9.44.59,14.65,1.13,29.31,1.49,43.98.22,8.84.06,8.84-10.04,7.79ZM764.87,269.86h-10.01c-.16-2.4-.45-4.68-.43-6.96.17-17.42.43-34.84.59-52.27.04-3.91.69-6.87,6.8-5.26.99,21.05,2,42.36,3.05,64.49ZM745.74,269.57c-.49.33-.97.67-1.46,1-3.05-5.2-6.1-10.4-9.15-15.6,7.22,2.33,8.1,9.02,10.6,14.6ZM519.36,278.72c.53-.12,1.17.26,1.75.43,32.18,9.46,64.35,18.96,96.55,28.36,7.74,2.26,15.55,4.24,23.21,7.14-2.96-.43-5.99-.61-8.88-1.35-31.72-8.09-63.67-15.4-94.98-24.85-13.16-3.97-24.51-4.07-37.39.25-38.3,12.83-76.92,24.67-115.49,36.69-7.55,2.35-15.39,3.79-23.1,5.65.07.57.14,1.13.21,1.7,113.68-4.33,227.36-8.66,341.03-12.99.35.78.71,1.55,1.06,2.33-1.35,1.29-2.68,3.66-4.07,3.7-15.68.49-31.38.37-47.05.9-81.22,2.77-162.43,5.55-243.63,8.63-24,.91-47.96,2.86-71.95,4.21-5.24.29-10.51.04-17.85.04,1.84-1.84,2.74-3.58,3.87-3.73,5.04-.7,10.43-.02,15.17-1.5,53.56-16.76,107-33.88,160.53-50.73,6.84-2.15,13.99-3.33,21.01-4.9ZM519.62,269.07c55.14,15.01,110.28,30.02,165.42,45.02-.31,1.1-.63,2.19-.94,3.29-11.35-2.5-22.79-4.68-34.04-7.57-41.78-10.73-83.48-21.78-125.28-32.45-5.2-1.33-6.69-3.61-5.16-8.29ZM624.18,316.89c-75.73,3.16-151.46,6.33-219.75,9.18,32.42-10.91,71.8-24.18,111.22-37.34,1.87-.63,4.22-.73,6.13-.23,31,8.14,61.96,16.41,92.93,24.67,3.22.86,6.4,1.89,9.48,3.71ZM702.08,316.46c-12.39-3.73-24.54-8.33-37.01-11.73-38.3-10.43-76.72-20.4-115.06-30.67-9.82-2.63-19.52-5.68-29.22-8.52,1.54-6.73-1.57-9.42-9.92-9.64,8.46-13.88,4.39-29.63,6.34-44.49.4-3.07.12-6.24.14-9.36l-13.9-1.01c.56,2.65,1.57,5.29,1.6,7.94.14,17.4.07,34.81.07,52.84-.45-.24.15.37.62.28,3.45-.69,7.35-2.35,8.17,3.18.7,4.69,1.02,8.71-5.47,10.69-44.75,13.61-89.38,27.58-134.01,41.57-13.39,4.2-26.59,8.98-39.98,13.14-4.05,1.26-8.46,1.31-12.71,1.92-.24-.83-.48-1.65-.72-2.48,2.77-1.22,5.49-2.56,8.32-3.63,3.77-1.42,7.61-2.68,11.44-3.93,39.19-12.77,78.4-25.49,117.58-38.29,16.11-5.27,32.17-10.71,48.89-16.29-80.45,1.23-159.83-4.89-239.33-7.36-.13-1.01-.26-2.02-.39-3.03,3.84-.96,7.7-2.82,11.52-2.74,39.33.78,78.66,1.86,117.99,2.9,2.9.08,5.79.41,8.75,1.67-1.48.37-2.96.73-5.97,1.48h26.17c.37-2.61.96-5.24,1.07-7.89.65-14.67,1.19-29.34,1.77-44.01.06-1.49-.28-3.17.3-4.42.83-1.78,2.34-3.24,3.55-4.84,1.07,1.68,3.02,3.32,3.08,5.03.57,15.95.83,31.9,1.15,47.86.05,2.54,0,5.08,0,7.5,7.38,2.05,8,1.7,8.36-5.46.77-15.3,1.3-30.61,2.22-45.9.15-2.47,1.82-4.85,2.79-7.27.81,2.37,2.26,4.73,2.33,7.12.46,15.52.73,31.05.82,46.58.03,5.64,2.47,7.14,8.42,5.34.83-19.35,1.67-39.01,2.51-58.58,5.16-.92,5.02,2.35,5.11,5.39.46,15.52.91,31.05,1.34,46.57.06,2.31,0,4.62,0,6.76,8.12,2.36,8.61,2.06,8.99-5.4.8-15.51,1.51-31.03,2.38-46.53.16-2.77.91-5.51,1.38-8.27.75-.06,1.49-.12,2.24-.18.61,2.14,1.69,4.28,1.74,6.43.33,15.52.46,31.05.64,46.58.03,2.73,0,5.47,0,8.07,8.09,1.87,8.62,1.44,8.99-5.76.83-16.36,1.68-32.72,2.69-49.06.13-2.18,1.24-4.3,1.9-6.45-5.66.09-12.16,3.61-15.92-4.19-.4-.83-3.08-.56-5-.84-.25,1.77-.44,3.14-.7,4.93-4.32-1.29-10.56,3.45-11.96-4.83-3.95,5.74-15.04,6.42-18.24.93-4.23,3.98-8.48,5.82-13.27.6-.75-.82-3.61-.77-4.74,0-6.01,4.09-5.98.26-6.14-4.41,2.23-.2,4.11-.56,5.98-.52,35.69.84,71.38,1.77,107.07,2.58,14.44.33,28.88.35,43.32.71,2.37.06,4.72,1.12,7.07,1.71,6,.04,12,.12,18,.1,2.58,0,5.16-.14,7.73-.39,4.77-.46,7.57,1.31,7.71,6.76-3.28.2-6.58.4-9.88.6.93,24.79,1.85,49.41,2.81,75.12h-12.28c5.22,1.99,10.2,2.14,16.04,1.59,15.6-1.49,31.4-.99,47.12-1.09,1.24,0,2.5,1.52,3.75,2.33-.07.84-.13,1.68-.2,2.53-12.51,1.75-25.01,3.5-38.5,5.38,25.81,7.52,51,14.85,76.19,22.19.06,1.05.11,2.09.17,3.14-1.95.52-4.17,1.93-5.81,1.43ZM337.62,313.22c8.42-3.59,13.22-3.35,15.64,1.8-6.08,1.92-11.62,3.67-17.39,5.5-1.97-3.54-2.04-5.69,1.74-7.3ZM626.63,179.62c-10.22-2-19.75-2.97-28.69-5.79-25.93-8.19-51.67-17.01-77.4-25.82-6.61-2.26-12.56-1.91-19.13.54-21.69,8.09-43.55,15.77-65.47,23.23-5.22,1.78-10.94,2.1-16.44,3.09-.18-.5-.36-1.01-.53-1.51,1.89-1.15,3.66-2.64,5.7-3.41,24.82-9.41,49.86-18.28,74.44-28.27,9.94-4.04,19-3.05,28.36.14,31.55,10.77,63.07,21.63,94.54,32.62,3.21,1.12,8.82,1.23,5.4,8.75-.46-2.09-.75-3.38-.79-3.57ZM629.96,204.48c2.56,2.2,5.13,3.33,5.23,4.66,1.76,21.78,3.22,43.58,4.71,65.38.04.58-.32,1.19-.62,2.23h-12.95c1.18-23.59,2.35-46.8,3.63-72.27ZM437.73,178.83c0-.54.02-1.08.03-1.62,61.79,1.44,123.58,2.89,185.37,4.33-.01.73-.03,1.45-.04,2.18-61.78-1.63-123.57-3.26-185.35-4.89ZM617.58,192.19c-34.44-.9-68.88-1.9-103.33-2.82-28.7-.77-57.4-1.47-86.1-2.17-5.98-.15-5.99-.09-8.91-6.43,2.54-.14,4.41-.38,6.26-.33,64.2,1.85,128.4,3.7,192.6,5.72,1.73.05,4.7,1.8,4.85,3.04.52,4.19-3.1,3.04-5.38,2.98ZM453.69,173.26c15.26-4.81,30.51-9.62,45.77-14.43.15.46.29.93.44,1.39-15.13,4.89-30.25,9.78-45.38,14.67-.28-.54-.55-1.09-.83-1.63ZM649.5,276.31c1.6-22.04,3.09-43.61,4.86-65.17.13-1.57,2.25-2.97,3.45-4.46,1.28,1.85,3.6,3.67,3.66,5.56.46,14.65.5,29.32.62,43.98.06,6.54,0,13.09,0,20.08h-12.61ZM696.89,306.67c.41-3.31.77-6.13,1.26-10.09,2.93-.65,6.67-1.48,10.8-2.4q-2.66,14.49-12.07,12.49ZM797.63,172.82c4,1.2,9.37,3.88,14.93,10.52-5.9-.84-11.8-1.62-17.72-1.73-18.07-.34-36.16.34-54.25.68-34.04.65-68.07,1.43-102.11,1.99-7.47.12-7.9-.67-6.47-7.68,1.8-.12,3.69-.3,5.57-.35,26.16-.65,52.33-1.55,78.5-1.83,21.14-.23,41.63-2.61,60.34-14.31.69,2.01,1.2,3.47,1.75,5.06-3.85,1.11-7.22,2.09-10.59,3.06,2.51.6,6.34,1.43,11.05,2.15,10.47,1.61,13.92.91,19.01,2.43ZM738.15,112.76c-6.57-3.44-11.51-6.02-16.46-8.61.23-.49.46-.98.7-1.47,6.98,3.07,13.74,6.94,21.02,8.99,7.22,2.03,14.96,2.23,22.48,3.24l-.07,1.84h-79.35c-.05-.83-.09-1.67-.14-2.5,16.72-.48,33.43-.96,51.83-1.49ZM654.84,75.2c5.76,3.78,11.52,7.56,17.29,11.34l-1.03,1.58c-5.79-3.74-11.58-7.48-17.37-11.22.37-.57.74-1.14,1.11-1.7ZM688.98,120.27c0,.49,0,.97,0,1.46h-39.56c0-.49,0-.97,0-1.46h39.56ZM616.3,59.33c4.71,8.51,14.71,14.11,22.42,20.95.93.82,2.07,1.41,3.11,2.1-.43.65-.86,1.29-1.29,1.94-7.98-6.39-16.97-11.89-23.62-19.46-5.34-6.07-9.49-12.69-17.93-14.77,6.69,1.3,12.67.86,17.31,9.24ZM620.32,89.21c-.06,1.02-.11,2.04-.17,3.06-24.81.75-49.61,1.5-74.42,2.26,24.74-4.71,49.7-4.3,74.59-5.32ZM592.11,79.93c-8.25-11.67-19.92-16.73-33.49-18.22,14.41-.22,27.06,2.98,33.49,18.22ZM578.02,51.08c-17.26-6.64-35.08-13.49-52.85-20.33,10.65-.51,45.85,13.21,52.85,20.33ZM464.32,59.26c12.01.18,23.56.01,33.85-8.2,3-2.39,9.11-1.96,13.53-1.23,6.81,1.12,13.39,3.61,20.07,5.51-.13.5-.26,1.01-.39,1.51-4.31-1.03-8.62-2-12.91-3.09-8.87-2.25-16.92-.93-25.15,3.48-5.19,2.79-11.62,3.76-17.62,4.44-6.45.73-13.05.17-19.58.17-.16-.24-.32-.49-.48-.73,2.9-.65,5.8-1.9,8.69-1.86ZM445.73,64.11c-7.29.99-14.58,1.97-21.88,2.96-.08-.57-.17-1.13-.25-1.7,7.24-1.18,14.47-2.35,21.71-3.53.14.76.28,1.51.41,2.27ZM435.18,44.7c-23.2-4.94-45.16-.49-66.51,8.63,20.88-13.06,42.9-17.16,66.51-8.63ZM380.78,107.25c2.28.33,7.53,1.26,11.29,5.35,1.37,1.49,2.45,3.41,3.17,5.97,4.82-2.58,8.64-4.93,12.71-6.73,6.73-2.97,13.43-3.47,20.06.82,2.31,1.49,5.24,2.85,7.89,2.85,20.42.02,40.84-.3,61.26-.52,16.59-.17,33.19-.34,49.78-.51,6.71-.07,11.91,2.18,14.93,8.74.78,1.69,3.12,3.19,5.05,3.75,17.95,5.24,36.19,9.6,53.88,15.58,11.68,3.95,23.19,6.22,35.51,6.1,28.12-.29,57.71,2.14,116.14-.47,2.5-.11,4.53-.21,5.78-.26-3.28,2.3-8.14,5.27-14.46,7.72-2.51.98-5.25,1.87-8.95,2.78-11.7,2.9-21.66,3.29-23.87,3.38-47.89,1.91-55.23,3.5-77.37,1.36-12.49-1.21-21.73-1.97-29.51-4.24-23.06-6.75-45.79-14.59-68.6-22.17-2.47-.82-5.42-2.31-6.62-4.38-2.31-3.97-4.91-4.73-8.94-3.34-1.98.68-4.16,1.04-6.26,1.08-35.52.79-71.05,1.53-106.57,2.17-1.68.03-4.36-.56-4.9-1.68-3.17-6.51-7.12-3.91-10.81-1.1-9.82,7.44-19.05,15.78-29.39,22.39-5.51,3.52-5.65,7.51-5.56,12.57.25,14.68.37,29.36.72,44.04.1,4.17-1.5,6.44-5.51,4.95-1.35-.5-2.49-3.74-2.39-5.66,1.14-22.18-4.22-44.56,2.94-66.67,1.67-5.17,3.64-7.7,8.14-9.54,1.58-.65,2.62-2.6,4.55-4.62q-7.61-1.44-11.46-13.52c-2.88,6.31-7.85,4.7-12.49,3.9-5.23-.9-10.53-1.7-15.61-3.18-18.94-5.53-37.86-11.1-56.78-16.67,33.52,4.92,77.34,7.61,92.25,9.78ZM366.03,131.7c0,.67,0,1.35,0,2.02-6.42,0-12.84.02-19.26,0-74-.25-148-.5-222-.77-1.68,0-3.8.24-4.92-.65-1.81-1.41-2.96-3.67-4.38-5.57,1.91-.85,3.83-2.47,5.73-2.45,75.06.72,150.12,1.58,225.17,2.47,2.33.03,4.66.51,6.98.78-.09.52-.18,1.05-.27,1.57H126.72c0,.1,0,.2-.01.3,79.77.77,159.55,1.54,239.32,2.31ZM207.53,87.89c4.21-.5,8.78-2.32,12.57-1.29,24.76,6.76,49.34,14.13,73.98,21.32.5.15.92.59,1.04,2.07-29.2-6.61-58.4-13.22-87.61-19.83,0-.76.01-1.52.02-2.28ZM215.51,97.1c22.91,4.62,45.83,9.31,68.88,13.18,21.93,3.68,44.02,6.36,65.93,10.72-77.47-3.43-154.87-5.75-232.35-2.75-.03-.55-.06-1.09-.09-1.64,12.17-2.75,24.4-5.25,36.49-8.32,12.15-3.09,24.31-6.29,36.17-10.3,8.44-2.85,16.47-2.59,24.96-.87ZM199.11,89.48c-28.2,7.08-56.07,15.53-84.42,21.89-14.07,3.16-28.91,2.86-43.28,3.27,43.92-11.98,87.83-23.96,132.19-36.06,2.01,6.77,1.4,9.42-4.49,10.9ZM160.16,79.65c.25.83.5,1.65.75,2.48-37.32,9.7-74.64,19.4-113.38,29.47,3.44.36,5.49.57,9.15.96h-29.53c43.9-10.86,88.46-21.88,133.01-32.9ZM31.85,124.61c-1.27-.07-1.81-.28-2.89-.67-1.28-.46-2.13-.78-2.5-1.6-.4-.88-.12-2.02.46-2.73,1.21-1.48,3.85-1.12,4.74-1.09,21.44.76,42.88,1.42,64.32,2.03,5.46.16,10.94.02,16.56.02.98,5.93.04,8.53-6.25,8.13-24.8-1.59-49.62-2.68-74.43-4.08ZM37.37,129.42c2.62-2.36,7.35.16,11.47.37,8.82.44,17.63.9,26.65,1.36-.6,4.82.86,10.51-5.06,10.75-2.64.1-5.44-4.01-8.24-6.26-.76,2.35.23,7.34-6.04,7.1-4.95-.19-6.62-2.52-7.18-6.97-.42,1.68-.84,3.36-1.24,4.95-4.06,1.1-7.87-2.78-11.55-1.74.01,0,.02-.02.04-.02-.7-3.14-1.18-7.45,1.14-9.54ZM35.14,275.6c-2.01-1.91-4.3-3.62-5.9-5.83-.72-.98-.05-2.97-.01-4.5,1.74.29,4.37,0,5.02,1,1.49,2.28,2,5.2,2.91,7.85-.67.5-1.35.99-2.02,1.49ZM40.32,201.29c-.82.04-1.64.13-2.46.25-.53-11.14-.92-22.53-1.13-34.18-.16-8.34-.22-16.56-.21-24.64q10.64,1.31,10.52,10.98c-.13,11.06-.28,22.13-.35,33.19-.01,1.68.36,3.37.55,5.05.63-.04,1.26-.08,1.9-.12v-46.42c9.02-.69,9.41-.42,9.38,6.91-.06,11.49-.26,22.98-.33,34.47-.01,2.08.27,4.17.41,6.26l1.87-.07c.18-2.16.49-4.31.5-6.47.08-12.34-.05-24.69.29-37.02.04-1.61,2.66-4.6,3.6-4.42,1.97.38,4.11,2.13,5.24,3.91.9,1.42.5,3.72.49,5.63-.05,11.28-.2,22.55-.22,33.83,0,2.31.37,4.62.56,6.93l1.66-.14v-49.19c10.25-1.97,11.27-1.2,11.21,7.78-.08,12.98-.19,25.96-.2,38.94,0,2.07.5,4.14.77,6.22l2.66-.12v-53.23c4.51.36,7.4.59,11.02.87v53.23c.71,0,1.43.01,2.14.02v-52.58c7.3-1.74,9.95.2,9.81,6.69-.33,15.31-.19,30.64-.18,45.96,0,2.12.33,4.24.51,6.37.91-.05,1.82-.09,2.72-.14v-62.17q-12.18-.75-13.16-7.59c-1.22,1.95-2.29,5.7-4.48,6.54-1.97.75-5.16-1.7-7.04-2.43-2.37.64-5.17,2.41-7.14,1.74-5.24-1.78-4.22-6.36-3.82-10.98,12.62.68,24.66,1.16,36.67,2.07,4.54.34,9.01,2.45,13.52,2.46,79.56.11,159.12.03,238.67,0,1.43,0,2.86.18,4.35.28.1,4.86-2.11,6.45-6.56,6.38-16.18-.24-32.37-.28-48.55-.3-20.18-.03-40.37.19-60.55.03-20.94-.17-41.87-.7-62.8-.99-16.31-.23-32.62-.39-48.93-.38-1.58,0-3.15,1.22-4.73,1.95,0-.02,0-.05,0-.07-5.78-1.25-12.66,1.88-17.15-4.8-1.04,2.23-1.9,4.08-2.05,4.4,1.26,3.98,2.65,6.55,2.8,9.19.95,15.93,1.55,31.88,2.4,47.81,1.08,20.27-2.2,18.7,19.44,18.61,74.9-.3,149.79-.65,224.69-.94,2.75-.01,5.56.07,8.24.6,1.01.2,1.75,1.81,2.61,2.78-1,.84-1.88,2-3.03,2.43-1.12.42-2.52.09-3.8.1-79.36.56-158.73,1.11-238.09,1.68-2.1.02-4.2.27-6.31.41,1.66,1.67,3.24,1.97,4.82,1.96,22.98-.08,45.96-.08,68.94-.35,57.87-.69,115.74-1.52,173.61-2.24,8.13-.1,8.28.17,7.32,7.79-80.12,1.41-160.31,2.82-240.5,4.23-.01.55-.02,1.09-.03,1.64,2.17,0,4.35.03,6.52,0,76.8-1.26,153.61-2.44,230.41-3.91,8.51-.16,15.94.74,21.55,9.2h-104.75c0,.7,0,1.41-.01,2.11,8.21,0,16.42-.06,24.63.01,27.22.25,54.45.47,81.67.87,8.11.12,8.85,1.52,6.12,10.02-37.93-.86-75.99-1.71-114.03-2.66-1.49-.04-3.05-.96-4.4-1.75-6.39-3.75-20.98-2.09-23.76,3.63-3.02,6.21-8.18,8.04-13.9,9.84-5.27,1.66-10.45,3.62-15.64,5.51-38.16,13.87-76.27,27.86-114.49,41.54-5.2,1.86-10.93,2.26-16.4,3.34-1.67-10.03-.99-10.78,7.45-9.06,3.15.64,5.65,1.07,4.63-3.72-2.99,0-5.88.09-8.77-.02-6.13-.24-8.29,2.09-8.72,8.95-.36,5.62,1.75,7.65,7.62,8,62.44,3.79,124.85,7.86,187.27,11.91,5.52.36,11.03.9,16.51,1.66,1.06.15,1.92,1.66,2.88,2.55-1.03.81-1.95,1.95-3.13,2.34-1.13.37-2.52-.01-3.79-.09-64.78-3.82-129.56-7.65-194.33-11.45-2.14-.13-4.3-.02-6.46-.02-.09.83-.18,1.66-.26,2.49,3.86.61,7.69,1.53,11.58,1.78,45.86,3,91.71,6.14,137.58,8.74,28.84,1.63,57.75,3.87,86.57,3.26,44.44-.93,88.82-4.36,133.25-6.2,63.77-2.64,127.56-4.87,191.35-7.14,10.46-.37,20.94-.05,33.33-.05-3.72,1.49-6.13,3.23-8.62,3.34-39.96,1.75-79.93,3.24-119.89,4.88-57.82,2.38-115.64,4.92-173.46,7.24-25.5,1.02-51.09,3.34-76.51,2.17-64.39-2.95-128.7-7.53-193.04-11.46-4.82-.29-9.65-.56-13.89-.8.31,5.6.58,10.48.94,16.93-3.6-1.7-7.66-2.71-7.66-3.75-.04-8.55-7.67-11.79-11.12-17.61-5.32-8.99-5.81-20.02-.1-29.9,1.65-2.86,4.03-6.02,6.86-7.33,8.69-4.04,17.67-7.48,26.7-10.71,7.37-2.64,12.98-8.55,13.53-15.34.7-8.65-10.43-27.34-18.62-30.11-3.49-1.18-4.4-2.77-4.86-6.12-1.52-11.02-10.04-18.77-20.94-19.71-1.43-.12-3.08-.35-4.18-1.15-5.84-4.24-11.82-3.68-18.15-1.28-1.67.63-4.49.81-5.63-.16-9.3-7.91-20.4-7.92-31.5-7.38ZM366.65,213.66h-7.63c0-4.54-.14-8.74.02-12.93.63-16.52,1.26-33.04,2.14-49.55.1-1.95,1.75-3.81,2.68-5.72.93,1.86,2.65,3.71,2.66,5.58.19,20.71.12,41.43.12,62.62ZM348.99,214.03h-11c.28-4.96.61-9.55.77-14.14.57-16.1,1.04-32.21,1.63-48.31.11-2.97-.61-6.8,5.23-6.27,1.12,22.76,2.23,45.49,3.37,68.72ZM326.69,213.65h-8.93c0-11.85-.14-22.87.04-33.89.16-9.77.54-19.54,1.15-29.29.12-2,1.66-3.92,2.55-5.87.82.24,1.64.49,2.46.73.91,22.58,1.81,45.15,2.74,68.32ZM305.65,211.84c.03.58-.32,1.18-.6,2.15h-9.65c-.16-2.14-.48-4.01-.42-5.87.66-19.75,1.31-39.49,2.18-59.23.07-1.69,1.65-3.31,2.52-4.96.88,1.43,2.45,2.81,2.54,4.28,1.27,21.2,2.34,42.41,3.43,63.63ZM284.58,213.88h-10.22c-.15-1.55-.46-2.98-.4-4.39.82-19.33,1.6-38.67,2.65-57.99.13-2.47,1.72-4.87,2.64-7.3.86.26,1.72.51,2.58.77.91,22.81,1.82,45.62,2.75,68.91ZM264.72,214.07h-10.97c.99-23.7,1.95-46.94,2.92-70.19.96-.13,1.92-.25,2.87-.38.68,1.83,1.87,3.63,1.97,5.49,1.15,21.39,2.14,42.79,3.21,65.08ZM243.6,213.92h-11.44c0-2.26-.07-4.32.01-6.37.74-19.1,1.54-38.2,2.23-57.3.14-3.8.66-6.89,6.26-5.86.97,22.94,1.94,45.97,2.94,69.54ZM220.75,214.35h-13.77c.56-7.1,1.17-13.98,1.63-20.86.98-14.81,2-29.61,2.74-44.43.2-4.08,1.28-6.11,5.66-4.75,1.26,23.55,2.49,46.56,3.74,70.04ZM196.12,214.51h-13.14c1.37-22.55,2.64-44.55,4.18-66.53.12-1.71,2.21-3.28,3.38-4.91.73.32,1.46.63,2.19.95,1.12,23.34,2.24,46.68,3.39,70.49ZM170.2,214.46h-12c-.13-1.68-.44-3.29-.36-4.88.94-19.97,1.91-39.94,2.92-59.91.17-3.32-.08-7.28,5.68-5.44,1.25,23.35,2.49,46.59,3.76,70.22ZM148,214.71h-13.76c1.43-23.98,2.85-47.97,4.28-71.95,2.88,0,5.01.46,5.27,4.33,1.39,20.98,3.03,41.94,4.53,62.91.1,1.42-.18,2.86-.32,4.71ZM691.03,347.23c-.04,1.55-1.69,3.06-2.61,4.58-.75-.45-1.5-.9-2.25-1.35,0-3.35-.31-6.75.17-10.03.16-1.1,2.32-1.91,3.57-2.85.42,3.22,1.2,6.44,1.12,9.65ZM683.38,346.66c.09,1.8-1.64,3.69-2.55,5.54-.68-.44-1.36-.88-2.04-1.32v-12.97c6.6.87,4.43,5.68,4.59,8.76ZM670.97,353.38c0-4.57-.14-8.12.09-11.63.06-1,1.18-1.92,1.82-2.88.87.95,2.58,1.99,2.48,2.83-.42,3.74,3.37,9.07-4.39,11.69ZM663.84,353.21c-.62-5.19-2.3-10.03,1.92-15.17,3.11,7.97,2.56,12.48-1.92,15.17ZM659.69,339.43v13.35l-2.17-.22c-.86-4.55-1.82-9.1.45-13.31.57.06,1.15.12,1.72.19ZM651.32,352.68c-1.37-4.75-3.16-9.42,1.09-13.38,1.67,4.69,3.2,9.36-1.09,13.38ZM647.15,350.65c-.04.78-.95,1.75-1.71,2.17-.42.23-1.93-.4-2-.8-.75-4.27-1.72-8.64.73-12.49,1.02.08,2.04.15,3.06.23,0,3.63.1,7.27-.08,10.89ZM640.07,342.43c0,3.65-.37,7.31-.62,10.96-.93-.09-1.87-.17-2.8-.26-.23-3.49-.6-6.99-.59-10.48,0-.89,1.26-1.76,1.94-2.65.72.81,2.06,1.62,2.06,2.43ZM629.05,354.42c0-4.73-.2-8.25.15-11.71.08-.78,2.6-2.2,3.14-1.88,2.77,1.63,1.38,10.61-3.3,13.59ZM622.57,353.72v-14.27c5.61,5.15,5.21,12.19,0,14.27ZM618.07,354c-.68,0-1.36-.02-2.04-.02v-13.28c.71,0,1.43.02,2.14.02,1.61,4.45,1.81,8.87-.11,13.28ZM612.05,353.18c-.05.44-1.45,1.16-1.95.99-.79-.28-1.89-1.19-1.92-1.87-.18-3.84-.09-7.69-.09-11.54.96-.04,1.91-.09,2.87-.13,2.75,3.79,1.61,8.25,1.09,12.55ZM604.51,351.78c-.11.92-2.9,2.54-3.43,2.21-2.68-1.67-.76-11.34,3.6-13.59,0,4.39.25,7.93-.17,11.39ZM597.1,351.8c-.35,1.24-1.27,2.32-1.94,3.47-.91-1.14-2.31-2.16-2.61-3.44-.46-2.01-.49-4.25-.1-6.28.3-1.54,1.53-2.9,2.34-4.33.8,1.43,1.72,2.81,2.34,4.31.3.72.05,1.67.05,2.51h-.02c0,1.27.26,2.6-.07,3.78ZM585.7,355.77v-14.2c5.05,4.67,4.62,11.11,0,14.2ZM581.39,351.41c-.03,1.52-1.56,3.01-2.41,4.52-.65-.46-1.3-.93-1.95-1.39,0-3.34-.25-6.71.15-10,.12-.99,2.02-1.77,3.11-2.65.41,3.17,1.15,6.35,1.1,9.51ZM569.24,357.15c0-5.02-.18-8.94.14-12.82.07-.9,1.87-1.65,2.88-2.47.63.93,1.86,1.93,1.77,2.79-.42,4.14,2.04,9.51-4.79,12.5ZM564.25,356.34c-.95-.1-1.9-.2-2.85-.3.27-4.69.54-9.38.81-14.08.94.06,1.89.12,2.83.19,1.36,4.81,1.76,9.57-.79,14.19ZM554.14,357.6c0-4.89-.15-9.14.17-13.35.04-.58,2.96-1.77,3.54-1.33,2.46,1.84.4,12.19-3.71,14.68ZM551.16,353.57c-.52,1.29-1.73,2.31-2.64,3.45-.69-1.14-1.8-2.22-1.97-3.42-.32-2.29-.38-4.7.02-6.96.24-1.35,1.58-2.49,2.42-3.73.78,1.24,1.76,2.4,2.27,3.73.35.92.07,2.09.07,3.15h-.08c0,1.27.35,2.69-.09,3.78ZM538.27,357.19c-1.3-11.35-.63-13.26,4.53-13.64,2.11,10.25,1.23,13.13-4.53,13.64ZM536,350.43c-1.38,2.44-2.76,4.88-4.15,7.32-.74-2.69-1.56-5.37-2.19-8.08-.18-.77-.08-1.83.33-2.47.89-1.39,2.06-2.6,3.12-3.88.67,1.34,1.48,2.64,1.97,4.05.26.74-.03,1.67-.08,2.51.33.18.66.36.99.55ZM526.64,343.57c-.34,5.04-.39,8.62-.95,12.11-.16.99-1.83,1.74-2.81,2.59-.74-1.02-2.22-2.16-2.08-3.05.61-3.99-2.34-9.82,5.84-11.65ZM513.55,359.74c-2.31-10.69-1.42-14.02,4.65-15.08-1.22,5.48,1.88,11.39-4.65,15.08ZM503.52,358.91c-1.69-9.69-.61-12.84,5.01-13.81,1.09,12.22.56,13.61-5.01,13.81ZM499.35,356.92c-.45,1.42-2.85,2.23-5.56,4.16,0-5.58-.26-9.17.15-12.68.13-1.11,2.06-2.01,3.16-3,.93,1.11,2.51,2.14,2.65,3.34.31,2.7.4,5.64-.4,8.18ZM489.95,345.65c0,4.04.3,7.62-.17,11.09-.16,1.16-2.25,2.07-3.46,3.09-.9-1.12-2.71-2.43-2.53-3.33.79-3.91-2.41-10.22,6.16-10.86ZM474.54,359.88c.2-3.85.11-7.22.7-10.46.2-1.11,2.15-1.9,3.3-2.84.73,1.07,1.92,2.05,2.12,3.21,1.29,7.57-.02,9.92-6.12,10.08ZM471.21,346.22c2.07,11.85,1.47,13.75-4.3,13.89.54-4.63-2.48-10.08,4.3-13.89ZM463.45,357.87c-.41,1.51-2.28,2.63-3.5,3.92-.64-.39-1.28-.77-1.92-1.16.35-3.48.52-6.99,1.15-10.41.21-1.12,1.59-2.03,2.44-3.04.74,1.06,2,2.06,2.12,3.18.26,2.49.37,5.15-.28,7.52ZM455.25,347c0,4.74.19,8.43-.13,12.08-.08.96-1.74,1.79-2.68,2.67-.83-.93-2.46-1.96-2.36-2.76.52-3.94-1.85-9.18,5.17-12ZM446.73,359.6c-.05.87-1.32,1.87-2.26,2.41-.43.25-1.67-.27-2.12-.79-1.69-1.99.26-11.29,4.49-15.1,0,5.65.14,9.58-.11,13.48ZM439.42,356.1c-.17,1.74-.07,3.28-.55,4.63-.26.73-1.49,1.49-2.3,1.52-.82.03-2.41-.82-2.41-1.28.01-3.76.25-7.52.61-11.26.05-.52,1.3-1.41,1.78-1.29.82.2,1.94.96,2.12,1.69.49,2.03.55,4.15.76,5.99ZM428.5,348.16c.86.18,1.72.37,2.58.55,0,3.92.18,7.86-.13,11.76-.08.95-1.76,1.77-2.71,2.65-.7-.85-2.04-1.76-1.98-2.55.33-4.22-2.07-9.3,2.24-12.41ZM422.64,359.71c-.36,1.68-2.21,3.05-3.39,4.55-.69-.49-1.39-.98-2.08-1.47,0-3.57-.2-7.15.12-10.69.09-1.03,1.69-1.92,2.6-2.87.86.97,2.27,1.83,2.47,2.93.46,2.47.79,5.15.28,7.55ZM413.36,361.01c-.05,1.24-2.41,2.39-3.71,3.58-.6-.4-1.2-.79-1.8-1.19,0-3.72-.3-7.48.21-11.12.13-.95,2.81-1.54,4.32-2.3.4,3.68,1.15,7.37.99,11.03ZM404.43,361.71c-.58,1.21-2.17,1.94-3.32,2.88-.79-.98-2.12-1.88-2.27-2.94-.34-2.48-.43-5.09,0-7.54.27-1.54,1.66-2.87,2.55-4.3,1.04,1.46,2.26,2.84,3.06,4.43.43.86.17,2.07.22,3.12-.04,0-.08,0-.12,0,0,1.47.45,3.16-.12,4.36ZM396.38,359.06c-2.02,2.37-3.28,5.24-5.2,5.79-3,.86-4.83-1.03-4.75-4.72.09-4.16.26-8.33,4.89-9.35.9-.2,2.9,4.64,5.06,8.28ZM384.27,361.64c-.38,1.81-2.4,3.27-3.68,4.89-.65-.54-1.3-1.07-1.95-1.61,0-3.74-.19-7.5.12-11.22.09-1.03,1.65-1.94,2.54-2.91.89.91,2.37,1.71,2.57,2.76.5,2.65.93,5.52.39,8.09ZM369.65,354.74c.4-1.15,1.6-2.01,2.45-3,.87.95,2.3,1.79,2.51,2.88.44,2.25.61,4.7.19,6.94-.3,1.64-1.72,3.07-2.63,4.6-.94-1.49-2-2.92-2.76-4.49-.33-.69-.06-1.67-.06-3.22.04-.77-.18-2.36.29-3.7ZM365.86,362.48c.29,4.15-1.75,5.24-6.45,4.08,0-3.52-.37-6.89.16-10.13.25-1.54,2.2-2.8,3.37-4.18.96,1.52,2.3,2.93,2.76,4.59.49,1.76.03,3.76.16,5.64ZM355.29,364.57c-.13,1.28-2.94,2.3-4.52,3.44l-1.54-1.58c0-3.34-.09-6.68.02-10.01.13-3.88,4.32-4.31,5.03-2.76,1.44,3.18,1.38,7.28,1.01,10.91ZM345.39,364.98c-.24,1.31-2.22,2.3-3.41,3.44-.5-.29-1.01-.59-1.52-.88,0-3.71-.17-7.43.11-11.12.08-1.04,1.5-1.98,2.31-2.96.88.92,2.38,1.77,2.51,2.78.36,2.89.51,5.91,0,8.74ZM334.13,367.8v-14.67c5,3.5,4.9,11.56,0,14.67ZM330.02,365.02c-.36,1.13-1.6,1.98-2.45,2.96-.87-.94-2.3-1.78-2.49-2.84-.42-2.46-.63-5.09-.17-7.51.3-1.61,1.89-2.98,2.9-4.46.77,1.44,1.71,2.82,2.25,4.34.33.93.06,2.08.06,3.13,0,1.47.32,3.05-.1,4.38ZM321.99,364.41c-.43,1.12-1.62,1.95-2.47,2.91-.9-.91-2.44-1.73-2.58-2.74-.37-2.7-.4-5.53-.04-8.23.18-1.34,1.54-2.53,2.37-3.79.88,1.21,2.07,2.3,2.56,3.65.48,1.34.24,2.93.25,3.13,0,2.55.33,3.95-.09,5.06ZM314.62,359.45c-1.36,2.7-2.54,5.04-3.72,7.37-.86-2.46-2.45-4.93-2.39-7.36.07-2.59,1.69-5.14,2.64-7.7,1.08,2.4,2.16,4.79,3.47,7.69ZM300.58,358.13c0-.63-.19-1.34.04-1.87.72-1.64,1.59-3.22,2.41-4.82.79,1.5,1.95,2.92,2.28,4.51.42,2.02.46,4.22.12,6.26-.22,1.32-1.41,2.48-2.16,3.71-.88-1.13-2.12-2.13-2.55-3.41-.44-1.32-.1-2.9-.1-4.37h-.03ZM297.83,364.98l-2.76,1.13c-.93-1.56-2.65-3.12-2.64-4.68,0-3.44.88-6.88,1.4-10.31,1.15.88,3.14,1.63,3.3,2.67.57,3.68.52,7.45.7,11.19ZM289.62,362.49c-.17.77-1.35,1.93-1.92,1.85-1-.14-2.37-.91-2.71-1.77-.52-1.3-.56-2.94-.31-4.35.47-2.68,1.28-5.29,1.95-7.93,1.35,2.43,2.71,4.86,4.06,7.28-.33.17-.65.35-.98.52,0,1.47.23,2.99-.09,4.39ZM281.04,361.9c-1.19,1.06-3.26,1.14-4.96,1.64.42-4.63.84-9.25,1.26-13.88,1.11.55,2.9.86,3.19,1.7.67,1.95.62,4.15.65,4.41,0,3.32.6,5.48-.14,6.13ZM265.13,356.68c.09-1.27-.2-2.75.36-3.77.9-1.62,2.36-2.92,3.58-4.36,1.01,1.38,2.32,2.63,2.94,4.17.7,1.73,1.38,3.88.95,5.56-.51,1.97-1.9,4.76-3.47,5.21-3.64,1.05-4.68-1.63-4.37-4.9.06-.63,0-1.27,0-1.91ZM262.14,360.56c-.28.94-1.75,2.39-2.25,2.23-1.11-.35-2.67-1.49-2.77-2.45-.31-2.89-.28-5.88.16-8.75.19-1.28,1.66-2.36,2.54-3.53.8,1.25,1.91,2.41,2.32,3.77.4,1.35.09,2.9.09,4.37.02,1.47.31,3.02-.08,4.36ZM253.67,354.65c0,1.27.33,2.66-.09,3.78-.48,1.31-1.6,2.38-2.44,3.56-1.07-1.21-2.79-2.29-3.08-3.67-.46-2.21-.3-4.69.21-6.92.35-1.53,1.75-2.82,2.68-4.22.9,1.43,1.97,2.79,2.62,4.32.38.9.07,2.09.07,3.14h.03ZM244.49,360.23c-.58.44-3.45-.7-3.49-1.25-.31-3.99-.17-8.02-.17-13.45,4.18,3.48,5.79,13.08,3.66,14.7ZM238.16,362.14c-3.49-1.76-6.81-2.67-6.8-3.56.02-3.86,1.01-7.71,1.65-11.57,1.38.73,3.74,1.25,3.96,2.23.74,3.42.74,7,1.2,12.9ZM229.03,358.1c.04.57-1.81,1.91-2.57,1.76-1.1-.22-2.86-1.47-2.85-2.26.06-4.01.6-8.02.97-12.03l2.92-.14c.55,4.22,1.21,8.43,1.52,12.66ZM220.88,354.49c-.88,1.71-1.9,3.34-2.88,5.01-.76-1.86-1.55-3.72-2.26-5.6-.13-.36-.07-.88.09-1.24,1.07-2.4,2.18-4.77,3.28-7.15.92,2.26,1.84,4.52,2.76,6.78-.29.11-.58.22-.87.33-.03.63.14,1.36-.12,1.87ZM212.89,357.65c-.57.62-2.1,1.07-2.74.73-.9-.47-1.96-1.74-1.96-2.67.02-3.52.45-7.04.79-11.4,4.17,2.77,6.02,11.05,3.91,13.33ZM205.08,355.97c-.08.75-3.2,2.12-3.83,1.68-2.9-2.05-.43-11.53,4.01-13.12,0,4.02.22,7.76-.19,11.44ZM198.14,354.33c-.02,1.32-1.86,2.62-2.87,3.92-.57-.26-1.15-.53-1.72-.79,0-3.52-.22-7.06.16-10.54.09-.87,2.11-1.53,3.24-2.29.45,3.23,1.24,6.47,1.19,9.7ZM191.01,342.91c-.26,5.47-.49,10.29-.79,16.38-5.63-5.37-5.05-13.51.79-16.38ZM178.87,347.7c.8-1.62,1.86-3.11,2.81-4.65.76,1.5,1.68,2.95,2.21,4.53.32.94.28,2.17-.04,3.12-.7,2.09-1.67,4.08-2.53,6.11-1.22-2-2.44-4.01-3.66-6.01l1.01-.6c.05-.84-.15-1.8.2-2.5ZM175.85,353.11c-.41,1.21-1.38,2.23-2.11,3.34-.93-1.12-2.39-2.13-2.66-3.4-.44-2.01-.42-4.27.02-6.29.32-1.47,1.62-2.72,2.48-4.07.87,1.37,1.87,2.68,2.56,4.14.33.69.06,1.66.06,2.51-.03,0-.07,0-.1,0-.06,1.27.15,2.62-.24,3.78ZM168.1,354.73c-.52.43-1.05.85-1.57,1.28-1.08-1.03-3.09-2.07-3.08-3.1.01-3.41.75-6.83,1.21-10.24,1.15.69,3.19,1.28,3.29,2.09.38,3.29.16,6.64.16,9.97ZM160.55,354.53c-.92.33-1.83.67-2.75,1-.67-1.6-1.95-3.22-1.89-4.79.11-2.97.99-5.91,1.56-8.86,1.03.91,2.82,1.72,2.94,2.74.38,3.27.14,6.61.14,9.92ZM152.84,353.41l-1.98,1.1c-1.11-1.25-3.18-2.53-3.14-3.76.08-3.07,1.12-6.11,1.77-9.16,1.12.85,3.06,1.58,3.2,2.56.42,3.03.15,6.16.15,9.26ZM144.18,341.23v12c-.95-.09-1.91-.18-2.86-.28.3-3.95.61-7.9.91-11.85.65.04,1.3.08,1.96.12ZM137.75,352.78c-.81-.08-1.61-.15-2.42-.23.28-4.01.56-8.03.84-12.04l2.75.33c.85,4.14,2.28,8.36-1.17,11.95ZM131.9,350.94c-5.14-.41-5.58-1.86-3.38-11.73,5.81,3.39,2.5,7.99,3.38,11.73ZM124.87,350.5c-.6.32-1.2.63-1.8.95-.99-1.37-2.79-2.74-2.8-4.12-.03-2.7.94-5.41,1.5-8.11,1.03.88,2.81,1.66,2.96,2.67.41,2.82.14,5.73.14,8.61ZM78.89,321.96c1-5.67,4.19-9.64,11.67-9.33-3.19,18.51-7.09,36.35-14.99,53-.62-.05-1.24-.1-1.85-.15-.15-2.56-.74-5.17-.39-7.66,1.69-11.98,3.45-23.96,5.56-35.87ZM78.62,295.96c1.22-5.37,2.45-10.74,3.67-16.11,6.16,5.64,4.79,11.38-3.67,16.11ZM83.61,305.43c-.65-.64-1.29-1.29-1.94-1.93,1.08-1.86,2.08-3.79,3.27-5.58,2.64-3.98,5.79-7.69,7.97-11.9,2.03-3.91,4.75-3.56,7.98-2.64,2.31.66,4.6,1.38,7.94,2.39-8.31,6.48-16.77,13.07-25.23,19.66ZM48.85,308.94c-2.93-4.7-5.16-8.28-7.72-12.39,7.23-2.85,8.5-.75,7.72,12.39ZM61.52,325.03c-9.8-7.33-6.89-17.69-7.36-27.81,9.57.96,13.27,16.66,7.36,27.81ZM68.78,335.79c-4.68-5.65.05-10.57-.43-15.88.65.04,1.3.07,1.95.11-.51,5.26-1.02,10.51-1.52,15.76ZM72.44,289.88c-.35,6.63-.69,13.16-1.11,21.07-9.62-16.4-9.39-20.43,1.11-21.07ZM97.1,448.07c-2.28-10.93-7.28-20.22-15.35-27.99-13.81-13.29-9.91-29.64-8.39-45.54.58-.07,1.16-.15,1.73-.22.12,1.94.38,3.87.33,5.8-.09,3.61-.36,7.21-.56,10.81-.64,11.18,2.31,20.89,10.9,28.66,10.56,9.55,13.47,22.53,14.52,36.26-1.08-2.59-2.61-5.08-3.18-7.78ZM104.2,431.17c-.67-.26-1.34-.51-2.01-.77,2.39-6.24,4.77-12.48,7.16-18.72.67.25,1.33.51,2,.76-2.38,6.24-4.76,12.48-7.14,18.73ZM137.64,395.75c-.16,27.8-.3,55.61-.55,83.41-.04,4.65-.64,9.3-1.04,14.62-5.54-3.34-10.73-5.85-15.11-9.37-1.98-1.6-3.37-5.23-3.29-7.89.7-25.46,1.81-50.9,2.69-76.35.21-6.06.03-12.14.03-17.99,1.81-.42,2.41-.68,3.01-.68q14.33.02,14.26,14.25ZM115.64,370.67c5.93.43,11.19.69,16.4,1.3,1.06.13,2.42,1.46,2.8,2.53.33.92-.17,2.68-.94,3.36-3.76,3.32-16.04-.9-18.26-7.2ZM150.8,506.09c-4.07-1.38-4.49-4.01-4.31-7.35.93-18.05,1.84-36.1,2.86-54.14,1.04-18.47,2.18-36.93,3.34-55.39.19-3.06-.28-7.19,4.83-6.04,4.08.91,10.67-2.45,10.95,5.84,1.38,42.06,2.8,84.12,4.19,125.96-7.94-3.28-14.76-6.47-21.86-8.88ZM147.78,374.09c8.17.55,15.16,1.01,22.78,1.52-4.36,6.73-17.35,5.89-22.78-1.52ZM122.27,368.29c-3.13-.26-6.25-.78-9.91-1.24.49-5.32.89-9.72,1.32-14.44,19.85,1.95,39.23,4.15,58.65,5.71,39.2,3.16,78.44,5.91,117.65,8.98,13.54,1.06,27.05,2.57,40.58,3.84,1.02.1,2.08-.12,3.12-.17,69.23-3.74,138.44-7.74,207.69-11.13,49.27-2.41,98.57-4.01,147.86-5.97,7.68-.31,8.21.67,6.21,13.38-7.95,0-16.19-.31-24.4.05-64.16,2.77-128.31,5.57-192.46,8.56-33.98,1.59-67.94,3.57-101.91,5.43-14.43.79-28.88,2.74-43.28,2.35-21-.57-41.96-2.81-62.94-4.3-29.06-2.06-58.12-4-87.17-6.14-20.35-1.5-40.69-3.23-61.03-4.91ZM667.6,370.58h26.13c-2.91,5.49-19.62,6.84-26.13,0ZM691.05,515.57c-7.69.69-14.2,1.28-22.2,2,1.15-46.73,2.29-92.87,3.44-139.63,5.3-.25,9.88-.46,15.02-.7,1.25,46.09,2.48,91.68,3.74,138.32ZM630.2,372.3c9.14-.49,17.84-.96,27.4-1.47-6.97,7.18-22.68,7.95-27.4,1.47ZM651.41,518.82c-8.38.83-15.53,1.54-23.48,2.34,0-2.78-.06-5.06,0-7.33,1.3-42.54,2.68-85.07,3.84-127.61.13-4.8,1.46-7,6.52-6.76,3.74.18,7.51-.4,10.82-.61.77,46.82,1.53,93.1,2.29,139.97ZM595.56,378.23c-.84-.45-1.67-2.06-1.48-2.91.17-.76,1.7-1.31,2.71-1.76.53-.24,1.24-.08,1.87-.11,6.05-.27,12.1-.54,19.13-.86-4.56,5.18-17.62,8.13-22.24,5.64ZM612.92,522.92c-8.34.97-15.64,1.82-24.74,2.88,1.38-48.23,2.75-95.79,4.13-143.86h16.97c1.21,46.78,2.42,93.62,3.64,140.99ZM569.57,380.92c-4.31.7-8.82.37-13.22.09-1.24-.08-2.39-1.49-3.59-2.29,1.13-.97,2.2-2.69,3.41-2.79,7.04-.6,14.11-.83,21.17-1.18l.8,2.16c-2.85,1.4-5.58,3.53-8.58,4.01ZM565.38,528.66c-5.27-.03-10.54.77-17.14,1.3,2.05-49.18,4.04-97.14,6.06-145.71h16.56c.13.35.53.91.55,1.49.86,44.46,1.53,88.92,2.66,133.38.17,6.9-1.9,9.58-8.69,9.54ZM505.43,377.35h29.39c-3.47,6.89-21.79,8.19-29.39,0ZM520.77,532.18c-5.22-.24-10.49.69-17.05,1.2,1.95-49.46,3.87-98.15,5.8-147.07,16.9-2.51,17.11-2.51,17.4,12.52.79,41.42,1.31,82.84,2.18,124.26.13,6.29-1.39,9.41-8.33,9.09ZM456.59,380.41c11.54-.8,22.37-1.55,34.18-2.36-6.46,8.33-30.42,9.85-34.18,2.36ZM481.9,530.1c.09,4.93-1.81,6.89-6.51,7.18-7.16.45-14.3,1.17-21.11,1.75,0-11.31-.39-21.87.07-32.39,1.54-35.06,3.4-70.11,5.12-105.16q.64-13.02,13.81-13.3c2.04-.04,4.09.16,6.48.27.7,48.09,1.32,94.87,2.13,141.65ZM407.87,382.87c10.28-.67,20.23-1.32,30.92-2.02-5.59,8.28-26.06,9.56-30.92,2.02ZM426.24,542.15c-6.73.15-13.43,1.17-21.13,1.91,0-3.39-.1-6.08.01-8.75,1.87-45.42,3.88-90.84,5.5-136.27.22-6.21,2.06-8.95,8.36-8.5,3.75.27,7.53.05,11.68.05.1,1.34.26,2.56.28,3.78.79,46.52,1.48,93.05,2.45,139.57.12,5.57-1.24,8.09-7.17,8.22ZM372,390.99c-1.68.31-3.82-1.84-5.75-2.86.35-.89.69-1.77,1.04-2.66,8.18-.62,16.35-1.25,25.87-1.98-5.31,10.66-14.28,6.23-21.16,7.5ZM379.12,546.74c-4.82.52-9.66.81-15.49,1.29,0-3.74-.05-6.85,0-9.97.78-45.51,1.63-91.02,2.28-136.53.08-5.7,2.18-8.19,7.94-7.9,3.34.17,6.71-.3,10.77-.53.46,11.35,1.07,22.11,1.31,32.88.84,36.79,1.59,73.57,2.31,110.36.18,9.33.09,9.39-9.13,10.39ZM317.12,387.09h39.55c-4.93,9.34-29.73,10.06-39.55,0ZM353.51,549.17c-10.09.45-19.49.87-29.19,1.31-.18-2.18-.38-3.2-.34-4.21,1.94-47.12,3.95-94.23,5.76-141.36.21-5.58,2-7.57,7.86-7.54,12.98.08,12.91-.27,13.19,12.82.88,42.48,1.82,84.96,2.72,127.44.08,3.57,0,7.14,0,11.53ZM289.2,394.4c24.36-.19,19.94-2.25,20.34,16.6.9,42.54,1.04,85.09,1.38,127.64.08,9.93-.13,9.97-9.73,8.83-5.07-.6-10.12-1.34-15.17-2.07-.82-.12-1.59-.55-3.54-1.25,2.23-49.6,4.46-99.45,6.72-149.75ZM284.06,383.55c7.69.81,14.46,1.53,22.63,2.4-1.24,2.28-1.72,4.67-2.93,5.12-5.24,1.96-16.42-1.95-19.71-7.51ZM254.37,390.17c5.05,0,9.29-.03,13.52.02,1.02.01,2.03.28,3.51.5.25,3.32.65,6.45.7,9.58.73,45.27,1.44,90.54,2.06,135.81.11,8.08-.12,8.18-8.26,7.35-6.32-.65-12.61-1.58-19.65-2.49,2.7-50.2,5.39-99.94,8.12-150.78ZM248.18,380.8c7.19,1.47,14.52-.45,21.3,4.16-8.71,5.49-18.28,3.69-21.3-4.16ZM216.92,460.63c1.06-22.51,2.37-45.01,3.58-67.51.08-1.46.27-2.91.43-4.61,1.09-.31,1.49-.54,1.9-.53q14.97.24,15.05,14.97c.31,42.52.66,85.05.94,127.57.02,2.91-.36,5.83-.62,9.74-7.44-.78-14.4-1.17-21.17-2.52-1.4-.28-3.01-4.18-2.94-6.37.75-23.59,1.71-47.17,2.83-70.74ZM215.04,377.88c6.97.74,13.2,1.4,19.44,2.06.4.49.8.97,1.2,1.45-1.25,1.16-2.33,3.03-3.77,3.37-9.2,2.17-14.72.15-16.86-6.88ZM201.83,382.48c-6.56-.66-13.12-1.44-19.63-2.48-.64-.1-.99-2.05-2.01-4.32,7.37.71,13.8,1.24,20.19,2.03.97.12,2.12,1.3,2.54,2.27.26.6-.78,2.53-1.09,2.5ZM202.84,527.06c0,2.72-.23,5.43-.4,9.1-7.41-.9-14.26-1.73-22.2-2.69,2.23-49.98,4.42-98.96,6.59-147.74.61-.28.82-.45,1-.44,14.51,1.29,14.56,1.3,14.62,16.05.16,41.91.28,83.82.38,125.72ZM328.94,627.7c32.51-44.13,123.37-36.4,155.03,13.19-47.71-48.08-99.38-48.46-155.03-13.19ZM484.94,618.51c30.57-16.7,60.46-5.71,90.43,2.1-30.05-4.42-60.06-10.53-90.43-2.1ZM605.59,600.43c-46.09-3.32-92.18-6.63-138.27-9.95.08-.95.17-1.91.25-2.86,46.28.64,92.49,2.1,138.15,10.9-.05.64-.09,1.28-.14,1.92ZM643.64,552.43c-20.56,1.71-41.08,3.93-61.6,6.13-70.23,7.5-140.43,15.23-210.68,22.53-19.38,2.01-38.69,5.69-58.41,3.1-42.39-5.57-84.82-10.82-127.24-16.16-1.41-.18-2.83-.23-4.47-.27-.77-4.33-1.54-8.67-2.31-13,37.4,5.02,74.78,10.21,112.22,14.9,13.43,1.68,26.53,5.95,40.41,4.49,27.07-2.85,54.21-5.04,81.3-7.78,64.98-6.57,129.93-13.33,194.9-19.93,14.1-1.43,28.24-2.47,42.36-3.69,1.44,6.32.06,9.15-6.48,9.7ZM702.45,533.11c-49.03,5.63-98.04,11.41-147.11,16.59-61.98,6.54-124,12.76-186.05,18.66-17.32,1.65-35.04,3.87-52.16,1.98-46.35-5.1-92.48-12.13-138.7-18.42-.43-2.4-.85-4.79-1.28-7.19,83.14,7.51,109.93,11.31,118.32,13.39,2.22.55,12.08,2.75,25.55,3.8,2.86.22,5.71.28,8.53.09,38.61-2.69,77.12-6.72,115.65-10.36,37.48-3.55,74.96-7.13,112.41-10.91,39.14-3.95,78.26-8.16,117.38-12.27,11.75-1.23,23.49-2.52,35.4-3.8,2.04,7.89-3.57,7.95-7.95,8.45ZM705.99,522.96c-37.81,4.33-75.59,8.93-113.45,12.7-78.93,7.84-157.91,15.11-236.84,22.89-19.24,1.89-38.13.22-57.18-2.22-38.58-4.94-77.26-9.16-115.9-13.7-2.03-.24-4.04-.61-6.06-.93-.02-.67-.04-1.33-.07-2,3.13-.17,6.3-.76,9.38-.44,26.44,2.73,52.87,5.61,79.29,8.48,19.66,2.13,39.28,5.15,59,6.17,14.13.73,28.45-.64,42.6-2,53.98-5.2,107.92-10.77,161.88-16.2,57.13-5.76,114.25-11.53,171.39-17.25,4.33-.43,8.7-.45,13.05-.67.22.94.44,1.89.66,2.83-2.58.8-5.11,2.04-7.75,2.34ZM714.63,471.14c-.33-12.9-.54-25.8-.6-38.71,0-1.28,1.33-2.57,2.04-3.86.75,1.07,2.14,2.14,2.15,3.21.15,14.8.11,29.6.07,44.4,0,.29-.5.58-2.06,2.32-.73-3.22-1.55-5.28-1.6-7.37ZM715.62,425.57h49.69c-.03.91-.05,1.81-.08,2.72-16.6.7-33.15-.36-49.61-2.72ZM716.12,507.46c0-7.59-.16-15.28.16-22.94.05-1.23,2.14-3.25,3.46-3.4,3.95-.45,7.98-.16,12.33-.16.6,12.37-2.34,21.94-15.94,26.51ZM734.21,477.92c-13.3,1.87-13.3,1.82-13.56-8.51-.3-11.64-.44-23.3-1.19-34.91-.39-5.99,2.65-6.45,7.24-6.42,4.38.03,7.78-.08,7.63,6.12-.36,14.56-.12,29.14-.12,43.72ZM765.75,478.31c-.07,2.58-2.94,5.09-4.52,7.63-.63-.16-1.25-.33-1.88-.49-.13-2.15-.37-4.3-.37-6.45,0-9.77.16-19.54.06-29.31-.03-2.94-.26-6.02-1.19-8.77-1.69-5.01-5.94-6.45-10.76-5.88-4.93.58-6.51,3.94-6.43,8.61.2,12.1.24,24.21.31,36.31,0,1.8-.21,3.6-.32,5.41-.58.18-1.16.36-1.74.53-.77-1.77-2.18-3.52-2.21-5.3-.28-15.5-.29-31-.46-46.5-.03-3.19,1.13-4.67,4.5-4.46,8.02.5,16.06.84,25.23,1.3,0,16.45.22,31.92-.21,47.37ZM774.14,465.5c-.19,2.7-2.09,5.27-3.2,7.9l-1.32-.37c0-14.46-.08-28.92.16-43.37.02-1.09,2.33-2.13,3.57-3.2.83,1.19,2.42,2.4,2.38,3.57-.34,11.83-.76,23.67-1.6,35.48ZM772.09,421.47c-17.36-.17-34.71-.52-52.06-1.08-1.94-.06-3.83-1.7-5.75-2.6,1.92-.57,3.85-1.62,5.77-1.63,18.61-.12,37.21-.07,55.82-.07.39.94.78,1.87,1.16,2.81-1.65.9-3.31,2.59-4.95,2.58ZM813.31,397.79c-2.51,7.59-7.72,11.78-15.3,12.52-16.25,1.6-32.53,3.12-48.83,3.9-9.96.48-19.98-.41-29.97-.83-2.02-.08-4.02-.8-6.02-1.22.12-.74.24-1.47.36-2.21,1.59-.14,3.18-.41,4.77-.39,5.1.07,10.26-.15,15.3.47,17.83,2.19,33.44-2.24,47.46-13.69,8.05-6.58,17.61-8.98,28.2-6.26,4.78,1.23,5.51,3.25,4.04,7.7ZM801.97,384.64c-10.59-2.24-21.01-1.99-31.65-.03-8.54,1.57-17.31,1.92-25.98,2.83-9.05.95-16.08,5.75-22.69,11.37.25.48.5.96.74,1.45,3.35-1.89,6.64-3.91,10.08-5.64,3.36-1.7,6.82-4.3,10.32-4.44,13.29-.52,26.62-.21,39.87-.21-19.31,21.2-43.7,18.27-67.85,16.41-.23-.79-.57-1.37-.42-1.56,7.78-9.83,15.84-19.05,29.56-20.7,6.03-.73,12.26-2.08,17.76-4.57,18.62-8.44,36.08-4.44,53.36,3.78,1.07.51,1.99,1.32,2.63,3.49-5.25-.7-10.57-1.07-15.73-2.16ZM834.4,279.06c-23.58,1.02-47.16,2.06-70.71,3.44-4.37.25-8.64,2.06-13.44,3.27-.61-2.89-1.5-7.05-2.72-12.83,31.98-1.02,63.47-2.02,95.42-3.03.66,7.47-3.13,8.92-8.54,9.15Z"/>
      <path class="cls-1" d="M517.35,201.94s0,.07,0,.11c.04,0,.08,0,.12,0l-.12-.12Z"/>
      <path class="cls-1" d="M773.99,195.6c.84-1.26,1.54-2.62,2.68-4.58h-8.61c1.23,3.49,1.88,5.34,2.96,8.42,1.25-1.61,2.18-2.67,2.96-3.84Z"/>
    </g>
    <path class="cls-1" d="M258.55,246.94c-36.93.68-73.86,1.37-110.79,2.05-.02-.87-.05-1.73-.07-2.6h110.88c0,.18-.01.37-.02.55Z"/>
    <path class="cls-1" d="M241.31,258.17h-88.43c-.02-.19-.03-.37-.05-.56h88.44c.02.19.03.37.05.56Z"/>
    <path class="cls-1" d="M210.95,269.04h-56.46c-.04-.24-.07-.48-.11-.71,18.88-.69,37.77-1.38,56.65-2.08-.03.93-.06,1.86-.08,2.79Z"/>
    <path class="cls-1" d="M123.33,293.58c10.36-5.5,22.11-3.23,33.06-5.38l.31,1.6c-10.98,2.16-21.96,4.33-32.94,6.49-.14-.9-.29-1.81-.43-2.71Z"/>
    <path class="cls-1" d="M178.9,279.73c-9.18.61-18.36,1.22-27.54,1.83l-.19-2.38c9.09-1.78,18.39-.87,27.59-1.32.05.62.1,1.24.14,1.86Z"/>
    <path class="cls-1" d="M589.35,196.64c.82,2.23,1.64,4.46,2.62,7.12h16.21c-1.57,25.31-3.12,50.36-4.67,75.41-2.31-.13-4.62-.26-6.31-.36-1.33-24.91-2.63-49.4-3.94-73.9-1.19-.02-2.37-.04-3.56-.06-2.43,23.02-2.3,46.29-4.15,69.29-6.12,2.08-7.73.04-7.84-5.76-.36-19.55-1.26-39.09-1.99-58.64-.05-1.44-.37-2.87-.57-4.31-.64-.22-1.27-.43-1.91-.65-.72,2.06-1.95,4.09-2.08,6.19-.92,15.28-1.6,30.57-2.41,45.85-.26,4.85-.67,9.68-1.06,15.14-2.72-.33-4.91-.6-8.57-1.04v-67.78h29.88c.12-2.37.23-4.44.34-6.52Z"/>
    <path class="cls-1" d="M517.47,202.06c.75-1.97,1.5-3.93,2.59-6.8-.84,7.68,4.07,7.06,8.41,6.67,3.75-.33,7.45-1.28,11.51-2.02,2.23,7.12,10.13.17,14.23,3.01-1.66,21.29-3.3,42.39-4.97,63.85-5.43-.39-6.58-3.16-6.69-7.57-.39-16.36-1-32.71-1.79-49.05-.11-2.27-1.67-4.47-2.56-6.71-.81.21-1.62.42-2.43.64-.94,19.4-1.88,38.79-2.84,58.74-3.07-.2-5.34-.34-8.22-.53-.47-8.22-1.02-16.2-1.35-24.2-.39-9.56-.78-19.12-.79-28.68,0-4.01-1.43-6.37-5.22-7.44-.02-.02.11.1.11.1Z"/>
  </g>
</svg>