<?xml version="1.0" encoding="UTF-8"?>
<svg id="Layer_1" data-name="Layer 1" xmlns="http://www.w3.org/2000/svg" viewBox="0 0 861.8 841.75">
  <defs>
    <style>
      .cls-1 {
        fill: #000;
      }

      .cls-1, .cls-2 {
        stroke-width: 0px;
      }

      .cls-2 {
        fill: #fff;
      }
    </style>
  </defs>
  <path class="cls-2" d="M850.63,656.62c-.66-.67-1.17-1.48-1.7-2.17,1.97-2.85,3.91-5.37,5.53-8.07,8.03-13.34,5.37-29.86-6.29-38.7-6.88-5.22-14.8-6.72-23.2-5.54-4.71.66-9.35,1.85-13.24,2.64-2.91-3.68-5.65-6.77-7.9-10.18-1.04-1.57-1.87-3.95-1.48-5.67.98-4.3,1.07-8.12-1.7-11.87-.61-.83-.32-3.33.47-4.01,7.34-6.4,8.81-14.61,7.59-23.64-1.39-10.3-5.47-16.69-14.15-19.44.17-.75.41-1.87.7-3.21,8.21-37.91,12.32-56.86,9.66-66.56-.44-1.6-7.92-27.53-27.61-35.04-6.45-2.46-16.26-3.73-19.25-11.04-1.04-2.55-.75-4.7-.3-8.79.88-7.97,4.8-17.6,9.25-24.49,3.5-5.43,6.4-11.24,9.81-17.31,13.59,7.51,27.9,10.9,43.06,5.35,14.96-5.47,25.12-16.08,30.72-30.85,4.17-10.98,4.51-22.23-.21-33.17-7.27-16.83-22.44-23.21-38.9-28.18,1.17-1.85,2.2-3.3,3.06-4.85,10.18-18.36,11.14-36.91-.35-54.89-8.17-12.78-20.67-19.55-35.63-21.56-3.89-.52-5.33-1.85-4.91-6.02.54-5.28.53-10.67.16-15.97-2.15-31.29-27.51-55.3-58.74-54.11-9.68.37-14.71-2.8-19.48-10.33-8.08-12.78-19.53-21.67-34.2-26.17-14.11-4.33-28.23-4.44-42.35-.33-4.1,1.2-7.25.48-11.15-1.52-5.78-2.96-12.27-4.99-18.69-6.08-3.81-.64-5.62-1.91-7.47-5.07-5.77-9.89-10.69-20.66-18.21-29.07-57.71-64.61-166.87-45.7-196.76,10.57-.64,1.2-3.12,1.99-4.74,2-5.75.01-11.52-.79-17.24-.5-3.33.17-5.46-.3-7.65-3.02-11.83-14.65-26.88-24.54-44.81-30.43C223.54-3.29,157.38,51.94,161.08,116.28c0,0,1.84,10.96-1.29,12.01-.83.28-1.84-.46-3.75.04-.28.07-1.53.42-2.63,1.41-2.19,1.97-1.33,4.28-2.93,5.76-1.62,1.49-4.38.9-5.45.71-7.18-1.26-18.59,1.74-24.26,4.43-10.2,4.85-15.83,15.11-18.39,20.92-1.13,2.56-2.17,5.16-3.24,7.71-29.52-8.83-54.01,13.33-41.38,47.42-4.57,0-8.57-.2-12.54.03-22.19,1.3-38.72,14.63-43.82,35.2-5.96,24.03,7.47,54.37,32.19,66.72,13.77,6.88,27.38,6.36,35.44,5.21-.2,3.05-.32,11.44,5.23,18.92,4.42,5.95,10.15,8.28,15.35,10.39,4.21,1.71,11.75,4.09,21.78,3.66-5.26,1.35-23.11,6.64-35.18,24.01-9.9,14.25-10.58,29.03-10.81,34.48-.68,15.98,4.51,30.32,15.17,43.32.04,17.58.26,31.54.45,40.84.64,31.99,1.69,49.67-8.26,55.95-2.79,1.76-10.91,6.39-12.66,11.55-.7,2.06-.98,4.3-.79,6.65.31,3.81-.85,5.21-4.24,6.36-8.53,2.9-11.27,6.81-10.1,15.84.68,5.3,2.41,9.32,3.53,11.31,4.63,8.32,9.14,6.27,11.91,12.19,3.71,7.96-2.4,15.62,2.88,21.63.92,1.05,1.88,1.69,2.44,2.04-.85.97-1.81,1.49-2.69,1.38-7.34-.94-14.65-2.08-21.99-2.92-1.23-.14-3.43.6-3.77,1.49-1.96,5-3.49,10.16-5.26,15.52-1.5.37-3.48,1.14-4.52,2.91-1.27,2.13-.1,3.94-1.15,6.06-.96,1.97-2.76,2.13-6.68,3.82-4.41,1.9-8.67,4.91-11.95,8.42-3.21,3.43-3.82,8.08-.32,12.31,2.69,3.25,2,5.94-1.3,8.44-5.52,4.2-6.97,10.04-5.58,16.54,2.39,11.18,8.7,19.63,18.49,25.52,10.1,6.08,21.27,7.47,32.72,7.24,4.26-.09,6.63.89,8.71,5.18,12.89,26.56,45.29,41.22,71.78,31.42,8.25-3.05,15.04-3.44,22.47-.02,2.03.93,4.25,2.54,5.24,4.44,13.26,25.47,47.92,32.16,69.68,13.31,2.22-1.92,4.55-3.72,7.13-5.82,1.57,2.95,2.77,5.48,4.2,7.87,4.61,7.68,11.46,12.04,20.38,12.59,12.48.78,21.06-6.02,25.61-19.39.61-1.79,2.65-4.02,4.29-4.27,1.66-.25,3.92,1.41,5.45,2.77,2.47,2.18,4.24,5.22,6.85,7.15,8.02,5.94,18.19,4.72,23.82-2.13,1.91-2.32,2.14-7.7,6.52-6.06,2.55.96,4.07,4.73,5.98,7.29.59.79.92,1.77,1.37,2.66,4.29,8.46,11.33,14.46,20.41,15.15,7.69.58,12.53,4.38,18.13,8.42,20.1,14.51,43.12,15.43,60.24,1.68,6.46-5.18,11.83-10.09,21.03-8.85,3.12.42,5.27.51,7.47,2.93,22.56,24.78,61.2,19.27,76.05-10.77,1.24-2.51,2.47-5.04,4.05-8.27,5.29,5.02,11.12,7.31,18.03,6.08.67-.12,1.77.88,2.33,1.62,6.51,8.66,15.51,9.61,25.14,7.86,2.75-.5,4.12.09,5.8,2.15,15.77,19.33,38.75,21.13,57.53,4.6,3.72-3.27,7.38-6.62,11.39-10.23.77.5,2.28,1.49,3.81,2.45,17.9,11.11,41.87,6.38,53.92-10.63,7.62-10.75,8.92-24.64,4.47-36.61,1.07-.34,2.07-.73,2.9-1.12,11.79-5.54,13.77-21.12,14.01-23.22,5.86-1.68,10.02-4.22,12.54-6.04,6.73-4.86,10.62-10.77,12.72-14.52.95-1.69,1.88-3.38,2.33-4.19,8.17,2.12,15.57,4.9,23.2,5.86,23.93,3.01,48.66-10.21,58.77-30.68,7.57-15.33,4.99-31.69-6.88-43.74Z"/>
  <g>
    <g>
      <path class="cls-1" d="M207.74,575.19s0,0,0,0c-.01,0-.03,0-.04,0h.04Z"/>
      <path class="cls-1" d="M209.54,476.25c.1,1.49.2,2.98.3,4.46.03-1.48.07-2.96.1-4.44-.13,0-.26-.02-.4-.03Z"/>
      <path class="cls-1" d="M850.63,656.62c-.66-.67-1.17-1.48-1.7-2.17,1.97-2.85,3.91-5.37,5.53-8.07,8.03-13.34,5.37-29.86-6.29-38.7-6.88-5.22-14.8-6.72-23.2-5.54-4.71.66-9.35,1.85-13.24,2.64-2.91-3.68-5.65-6.77-7.9-10.18-1.04-1.57-1.87-3.95-1.48-5.67.98-4.3,1.07-8.12-1.7-11.87-.61-.83-.32-3.33.47-4.01,7.34-6.4,8.81-14.61,7.59-23.64-1.39-10.3-5.47-16.69-14.15-19.44.17-.75.41-1.87.7-3.21,8.21-37.91,12.32-56.86,9.66-66.56-.44-1.6-7.92-27.53-27.61-35.04-6.45-2.46-16.26-3.73-19.25-11.04-1.04-2.55-.75-4.7-.3-8.79.88-7.97,4.8-17.6,9.25-24.49,3.5-5.43,6.4-11.24,9.81-17.31,13.59,7.51,27.9,10.9,43.06,5.35,14.96-5.47,25.12-16.08,30.72-30.85,4.17-10.98,4.51-22.23-.21-33.17-7.27-16.83-22.44-23.21-38.9-28.18,1.17-1.85,2.2-3.3,3.06-4.85,10.18-18.36,11.14-36.91-.35-54.89-8.17-12.78-20.67-19.55-35.63-21.56-3.89-.52-5.33-1.85-4.91-6.02.54-5.28.53-10.67.16-15.97-2.15-31.29-27.51-55.3-58.74-54.11-9.68.37-14.71-2.8-19.48-10.33-8.08-12.78-19.53-21.67-34.2-26.17-14.11-4.33-28.23-4.44-42.35-.33-4.1,1.2-7.25.48-11.15-1.52-5.78-2.96-12.27-4.99-18.69-6.08-3.81-.64-5.62-1.91-7.47-5.07-5.77-9.89-10.69-20.66-18.21-29.07-57.71-64.61-166.87-45.7-196.76,10.57-.64,1.2-3.12,1.99-4.74,2-5.75.01-11.52-.79-17.24-.5-3.33.17-5.46-.3-7.65-3.02-11.83-14.65-26.88-24.54-44.81-30.43C223.54-3.29,157.38,51.94,161.08,116.28c0,0,1.84,10.96-1.29,12.01-.83.28-1.84-.46-3.75.04-.28.07-1.53.42-2.63,1.41-2.19,1.97-1.33,4.28-2.93,5.76-1.62,1.49-4.38.9-5.45.71-7.18-1.26-18.59,1.74-24.26,4.43-10.2,4.85-15.83,15.11-18.39,20.92-1.13,2.56-2.17,5.16-3.24,7.71-29.52-8.83-54.01,13.33-41.38,47.42-4.57,0-8.57-.2-12.54.03-22.19,1.3-38.72,14.63-43.82,35.2-5.96,24.03,7.47,54.37,32.19,66.72,13.77,6.88,27.38,6.36,35.44,5.21-.2,3.05-.32,11.44,5.23,18.92,4.42,5.95,10.15,8.28,15.35,10.39,4.21,1.71,11.75,4.09,21.78,3.66-5.26,1.35-23.11,6.64-35.18,24.01-9.9,14.25-10.58,29.03-10.81,34.48-.68,15.98,4.51,30.32,15.17,43.32.04,17.58.26,31.54.45,40.84.64,31.99,1.69,49.67-8.26,55.95-2.79,1.76-10.91,6.39-12.66,11.55-.7,2.06-.98,4.3-.79,6.65.31,3.81-.85,5.21-4.24,6.36-8.53,2.9-11.27,6.81-10.1,15.84.68,5.3,2.41,9.32,3.53,11.31,4.63,8.32,9.14,6.27,11.91,12.19,3.71,7.96-2.4,15.62,2.88,21.63.92,1.05,1.88,1.69,2.44,2.04-.85.97-1.81,1.49-2.69,1.38-7.34-.94-14.65-2.08-21.99-2.92-1.23-.14-3.43.6-3.77,1.49-1.96,5-3.49,10.16-5.26,15.52-1.5.37-3.48,1.14-4.52,2.91-1.27,2.13-.1,3.94-1.15,6.06-.96,1.97-2.76,2.13-6.68,3.82-4.41,1.9-8.67,4.91-11.95,8.42-3.21,3.43-3.82,8.08-.32,12.31,2.69,3.25,2,5.94-1.3,8.44-5.52,4.2-6.97,10.04-5.58,16.54,2.39,11.18,8.7,19.63,18.49,25.52,10.1,6.08,21.27,7.47,32.72,7.24,4.26-.09,6.63.89,8.71,5.18,12.89,26.56,45.29,41.22,71.78,31.42,8.25-3.05,15.04-3.44,22.47-.02,2.03.93,4.25,2.54,5.24,4.44,13.26,25.47,47.92,32.16,69.68,13.31,2.22-1.92,4.55-3.72,7.13-5.82,1.57,2.95,2.77,5.48,4.2,7.87,4.61,7.68,11.46,12.04,20.38,12.59,12.48.78,21.06-6.02,25.61-19.39.61-1.79,2.65-4.02,4.29-4.27,1.66-.25,3.92,1.41,5.45,2.77,2.47,2.18,4.24,5.22,6.85,7.15,8.02,5.94,18.19,4.72,23.82-2.13,1.91-2.32,2.14-7.7,6.52-6.06,2.55.96,4.07,4.73,5.98,7.29.59.79.92,1.77,1.37,2.66,4.29,8.46,11.33,14.46,20.41,15.15,7.69.58,12.53,4.38,18.13,8.42,20.1,14.51,43.12,15.43,60.24,1.68,6.46-5.18,11.83-10.09,21.03-8.85,3.12.42,5.27.51,7.47,2.93,22.56,24.78,61.2,19.27,76.05-10.77,1.24-2.51,2.47-5.04,4.05-8.27,5.29,5.02,11.12,7.31,18.03,6.08.67-.12,1.77.88,2.33,1.62,6.51,8.66,15.51,9.61,25.14,7.86,2.75-.5,4.12.09,5.8,2.15,15.77,19.33,38.75,21.13,57.53,4.6,3.72-3.27,7.38-6.62,11.39-10.23.77.5,2.28,1.49,3.81,2.45,17.9,11.11,41.87,6.38,53.92-10.63,7.62-10.75,8.92-24.64,4.47-36.61,1.07-.34,2.07-.73,2.9-1.12,11.79-5.54,13.77-21.12,14.01-23.22,5.86-1.68,10.02-4.22,12.54-6.04,6.73-4.86,10.62-10.77,12.72-14.52.95-1.69,1.88-3.38,2.33-4.19,8.17,2.12,15.57,4.9,23.2,5.86,23.93,3.01,48.66-10.21,58.77-30.68,7.57-15.33,4.99-31.69-6.88-43.74ZM25.95,672.41c-.02-.53-.03-1.06-.05-1.59h9.96l.02.94c-3.31.22-6.62.44-9.93.66ZM811.54,299.13c12.47,1.71,22.17,11.93,23.41,24.43.53,5.37-3.81,10.86-9.27,10.91-19.13.18-38.26-.01-57.39.17-8.82.08-17.64.7-26.46,1.04-2.13.08-4.27.01-7.67.01,1.62-2.74,2.51-4.49,3.63-6.08,1.75-2.49,2.2-4.56-.49-6.9-.91-.79-1.31-3.11-.88-4.36,5.58-16.19,22.6-24.48,38.73-18.65,3.94,1.42,7.4,4.19,11.58,6.63,6.79-5.52,15.23-8.52,24.82-7.21ZM234.02,85.14c25.63-7.27,49.95-4.41,70.84,13.76,3.97,3.45,6.92,8.05,10.53,11.94.92.99,2.71,2.04,3.86,1.82,14.71-2.85,21.66.67,28.13,14.8,8.62-16.81,22.65-21.52,40.5-18,.29-1.5.63-2.74.77-4,1.91-17.22,15.27-29.68,32.53-29.79,4.23-.03,6.35-1.21,8.31-5.08,9.69-19.13,32.97-30.35,56.15-27.59,19.29,2.29,34.49,10.72,43.32,28.64,18.03-1.75,24.97,2.17,34.61,19.88,7.29-3.15,14.65-2.1,21.95.93,7.65,3.17,13.15,8.69,14.41,16.66,1.18,7.48,5.12,11.88,11.39,15.24,4.51-12.22,14.89-16.15,26.55-17.37,13.47-1.41,25.76,2.05,34.49,12.96,4.29,5.36,7.46,11.79,10.32,18.1,2.7,5.95,6.23,8.06,12.7,5.77,7.67-2.72,15.48-3.95,23.58-2.62,27.07,4.46,41.95,32.77,30.58,58.54-1.34,3.03-1.12,4.95.54,7.64,2.32,3.76,3.94,7.95,6.04,12.35,7.32-2.77,14.83-3.95,22.75-1.46,17.93,5.64,26.62,28.12,16.63,44.08-1.18,1.88-3.61,2.98-6.42,5.19-.45-3.38-.66-4.97-.88-6.56-.5-3.65-2.7-5.59-6.24-6.12-2.63-.39-5.27-.97-7.92-1.03-16.46-.37-32.93-.55-49.39-.96-4.98-.12-9.95-.66-14.91-1.21-7.53-.84-15.02-2.05-22.56-2.74-5.64-.51-8.01-5.01-11.19-8.45-2.31-2.5-3.87-3.49-7.44-1.47-7.61,4.29-15.19,1.87-22.61-1.53-1.32-.61-3.93-.33-4.94.62-4.89,4.59-10.28,5.61-16.89,4.8-14.33-1.75-28.73-3.47-43.14-3.79-12.95-.28-25.3-2.18-37.33-6.83-1.71-.66-3.91-.43-5.8-.11-2.94.5-5.77,1.69-8.72,2.13-13.93,2.12-23.15-3.35-29.01-17.86-1.75-4.34-4.03-5.66-8.43-5.62-16,.14-31.99-.04-47.99-.1-1.78,0-3.55,0-5.33,0-.14-.54-.28-1.08-.42-1.62,2.14-.8,4.22-2.01,6.43-2.32,14.34-2.05,28.72-3.84,43.05-5.93,1.77-.26,3.35-1.78,5.03-2.72-1.76-1.18-3.41-3.18-5.28-3.4-12.85-1.55-25.74-2.76-38.62-4.03-5.15-.51-6.38-2.19-5.4-9.43-72.2-.39-144.22-.78-216.38-1.16,3.34-10.66,16-12.63,27.32-6.37,4.12-3.02,7.59-5.63,11.13-8.15,6.6-4.69,13.74-6.49,21.74-4.1,1.01.3,2.87.07,3.39-.62,10.68-14.17,24.41-15.17,39.77-9.46.3.11.66.05,1.4.09,1.21-3.44,2.45-6.99,4.01-11.44-2.56-.49-4.7-1.25-6.86-1.27-16.47-.12-32.94.2-49.4-.2-17.62-.43-35.23-1.49-52.85-2.29-7.3-.33-14.59-.81-21.89-.99-5.99-.15-7.49,1.12-8.03,7.29-.4,4.54-.08,9.14-.08,13.71l-1.68.38c-.93-2.98-2.3-5.91-2.73-8.96-3.79-27.03,14.34-54.72,42.02-62.57ZM83.93,233.84c-6.49-.07-12.97.37-19.46.42-1.33,0-2.67-.69-4-1.06.72-1.38,1.09-3.2,2.21-4.05,4.75-3.62,9.86-3.41,15.35-.33,9.28-16.14,21.84-21.96,38.91-11.41,0-4.31-.1-8.1.02-11.88.55-18.25,14.13-28.86,31.91-25.16,1.34.28,3.31-.24,4.36-1.12,11.94-10.05,26.93-9.3,37.17,2.55,3.3,3.81,5.46,8.66,7.88,13.17,1.24,2.3,1.9,4.92,3.2,8.41,11.81-12.84,24-13.74,36.4-2.03,5.43,5.13,10.21,10.65,7.24,19.01-6.16-.63-12.06-1.33-17.97-1.81-4-.32-5.61,1.6-4.41,5.46,1.02,3.29,2.57,6.42,4.31,10.65-3.69.27-6.7.71-9.71.68-44.47-.47-88.94-1.03-133.41-1.48ZM88.27,452.06c1.57-4.24,4.99-13.07,14.01-17.52,5.17-2.55,10.16-2.67,13.12-2.48,2.41-7.74,9.09-10.38,15.95-12.84,7.6-2.73,14.22.91,21.55,3.91,0-4.89.61-9.13-.19-13.07-.63-3.12-2.63-6.18-4.68-8.72-2.55-3.16-6.04-5.55-8.67-8.65-3.45-4.06-2.1-8.3,2.9-9.64,3.58-.96,5.22-2.86,5.32-6.68.3-11.24.65-22.49,1.46-33.71.33-4.6-1.57-6.63-5.46-8.15-2.02-.79-3.98-2.33-5.38-4.01-3.55-4.28-6.59-9-10.18-13.24-3.41-4.02-4.67-10.21-1.75-14.3,4.84-6.77,10.05-13.26,15.1-19.88,2.23-2.93,4.1-2.13,5.78.55,1.66,2.66,3.3,5.33,5.01,8.09,5.88-4.32,11.48-8.7,17.36-12.7,21.47-14.61,42.93-29.24,64.59-43.56,9.01-5.96,14.94-13.16,13.64-24.61-.42-3.69,2.01-4.2,4.75-3.95,7.64.72,14.32,3.87,18.98,9.87,3.07,3.95,6.42,4.97,11.06,4.86,34.65-.84,69.3-1.52,103.95-2.27.58-.01,1.15-.3,1.85-.5-1.47-2.19-2.99-3.99-3.97-6.04-.87-1.84-1.14-3.96-1.68-5.96,2.15-.44,4.47-1.66,6.41-1.21,12.08,2.8,24.07,5.96,36.32,9.07-1.02,3.37-1.73,5.7-2.39,7.89,9.46,2.24,18.66,4.36,27.82,6.65,1.69.42,4.59,1.56,4.59,2.36-.03,6.31,5.19,6.51,8.86,7.21,12.89,2.47,24.19,10.49,37.71,10.55.95,0,1.88.62,2.83.92,4.68,1.51,9.37,3.01,14.05,4.52,4.71,1.53,9.44,3.01,14.12,4.63,2.73.94,5.31,2.67,8.09,3.03,7.47.97,14.73,2,21.08,6.73,2.11,1.57,5.23,1.82,7.91,2.61,5.88,1.73,12.41,2.37,17.5,5.42,5.66,3.39,11.31,4.2,17.46,4.49,5.45.26,11.09-.05,15.38,4.46.61.64,1.8.77,2.76,1,12.9,3.17,25.83,6.23,38.68,9.58,2.09.54,3.83,2.39,5.76,3.59,1.68,1.05,3.27,2.37,5.1,3.03,5.13,1.85,10.37,3.37,15.54,5.11,1.96.66,3.85,1.53,5.91,2.36.37-2.4.64-4.15,1-6.55,2.61.76,4.88,1.15,6.92,2.07,5.21,2.34,10.01,2.57,15.08-.76,6.85-4.49,11.33-3,12.67,5.2,1.13,6.9.78,14.3-.42,21.22-1.08,6.22-3.14,12.85-10.96,14.7-.92.22-2.17,1.87-2.15,2.84.24,12.61-.32,25.37,1.53,37.76.88,5.86.26,9.13-4.21,12.04-1.93,1.26-4.05,2.3-6.2,3.13-3.06,1.19-4.6,3.27-4.33,6.5,1.29,15.1,2.57,30.2,4.11,45.28.11,1.11,2.14,2.68,3.46,2.9,4.33.7,8.74.86,13.13,1.23,1.76-8.22,8.36-11.58,15.86-13.46,13.74-3.44,23.15,2.69,29.67,14.94,1.13-2.15,3.03-3.17,4.33-2.72,1.18.41,1.61,1.97,1.75,2.49.61,2.22-.5,4.12-.79,4.58,2.06,18.99,3.79,37.54,6.04,55.13.44,3.44,1.15,6.41,2.01,8.86-6.16-.26-12.44.16-18.62.4-18.8.74-37.49.05-56.07-3.09-3.14-.53-4.87-1.93-5.09-5.53-.6-9.8-1.79-19.57-2.4-29.37-1.67-26.44-3.23-52.89-4.69-79.34-.44-8.02,3.16-12.41,10.95-14.25,1.27-.3,2.54-.58,3.8-.87.19-.45.38-.9.57-1.36-1.52-.86-2.94-2.07-4.57-2.51-5.77-1.55-11.67-2.65-17.42-4.28-3.95-1.12-5.79-3.92-4.94-8.2,7.65,1.78,14.99,3.48,22.74,5.28.1-2.02.15-3,.2-3.97.32-6.02-3.6-12.58,2.26-17.95.3-.28-.06-1.27-.11-1.93-.33-4.48-.76-8.95-.97-13.43-.17-3.54-.57-7.38,4.9-7.31.58,0,1.72-1,1.68-1.44-.54-5.26,3.08-7.03,6.89-9.01,1.22-.64,2.32-2.65,2.42-4.11.26-4.12.2-8.29-.21-12.39-.14-1.38-1.79-3.72-2.64-3.67-1.73.1-3.45,1.43-5.07,2.41-3.29,2-5.91,5.24-10.67,3.82-3.55-1.05-7.39-1.09-11.11-1.58-.15.66-.3,1.33-.44,1.99,4.8,1.65,9.6,3.3,14.41,4.95.01.48.03.97.04,1.45-1.2.58-2.47,1.76-3.57,1.62-5.05-.65-9.86-2.26-15.19-2-4.7.23-4.26-4.63-4.31-7.65-.08-4.7-2.43-5.95-6.74-6.04v11.36c-12.66-.05-15.87-2.74-16.61-13.51-.45-6.54-2.73-7.69-7.88-4.9.53,3.85,1.01,7.35,1.5,10.85-.71.2-1.42.41-2.13.61-.79-2.22-1.57-4.45-2.32-6.56-.22,1.5-.45,3.1-.68,4.71-10.3-1.89-10.71-2.19-11.15-8.07q-.73-9.82-10.87-9.66c-.43,0-.85.14-1.48.25,6.06,2.43,6.88,4.65,5.09,13.75-6.23-1.19-4.26-6.81-5.72-11.05-1.1,3.39-2.02,6.25-2.82,8.73-6.76.41-8.8-2.97-8.94-8.32-.06-2.15-.09-4.49-.93-6.39-.63-1.42-2.64-3.3-3.86-3.19-2.88.27-7.27.88-8.09,2.69-1.23,2.72.07,6.59.3,9.96.37-1.59.94-3.17,1.08-4.78.22-2.57-1.49-5.95,3.79-6.43.38,3.53.76,7.03,1.21,11.23-2.29,0-4.18,0-6.07,0-1.84-.69-3.62-1.68-5.52-2.03-9.08-1.69-15.76-5.28-14.42-16.26.14-1.16-.92-3.37-1.78-3.58-3.6-.85-7.33-1.11-11.01-1.59,5.14,3.4,5.91,5.33,4.58,13.31-2.56,0-4.96.02-5.23-3.57-.18-2.34-.63-4.66-.95-6.99-.43,0-.86.01-1.3.02-.42,2.34-.83,4.68-1.24,6.97-8.13,1.21-12.05-1.72-12.54-9.24-.18-2.78-.44-5.56-.65-8.26-11.78-1.25-12.22-1-15.23,8.73h-9.47c0-3.8-.2-7.93.06-12.03.22-3.34-.7-5.11-4.31-4.85-1.47.11-2.95.02-3.41.02.33,4.2.67,8.39,1.01,12.79q-3.94-.47-7.19-13.96c-.15,3.12-.19,4.82-.34,6.52-.15,1.73-.4,3.45-.61,5.19q-10.21-1.54-10.5-10.82c-.04-1.17-.14-2.33-.13-3.49,0-2.9-1.59-3.91-4.19-3.38-2.99.61-5.94,1.43-8.91,2.16,0-.04,0-.08.01-.13-.03.05-.06.1-.09.14-.04,0-.07.02-.11.03.04,0,.07-.01.1-.02-.97,1.66-2.22,3.23-2.76,5.01-.84,2.77-2.12,4.5-5.25,4.01-2.79-.44-5.11-1.14-4.87-4.9.27-4.29.06-8.62.06-13.32h-7.62c-.25,3.8-.31,7.13-.78,10.41-.14.95-1.43,1.73-2.2,2.59-.87-.78-1.83-1.48-2.6-2.36-1.17-1.34-2.21-2.8-3.84-4.9-.99,2.52-1.45,3.68-2.05,5.22-1.69-.64-3.45-.88-4.61-1.84-3.18-2.65-4.08-13.68-2.06-17.4.51-.93-.22-3.36-1.16-4.05-1.37-1.01-3.44-1.06-5.21-1.53-8.64-2.29-17.27-4.58-26.01-6.89.94-1.46,1.68-2.61,3-4.67-11.45-3.78-22.26-7.34-33.98-11.21,2.58,6.5,8.47,9.99,7.59,17.24-2.09,0-4.05-.03-6.01,0-19.66.36-39.32.78-58.98,1.1-21.99.35-43.99.81-65.98.76-4.8,0-9.05.05-13.17,2.88-29.93,20.56-59.95,40.99-89.91,61.5-4.31,2.95-8.48,6.12-12.72,9.18-.44-.13-.89-.25-1.33-.38,3.12-5.57-1.95-8.32-3.54-12.41-3.28,4.25-6.91,8.42-9.85,13.03-1.02,1.6-.3,4.3-.38,6.5,1.66-.46,3.32-.9,4.97-1.4.63-.2,1.2-.59,1.81-.85,5.11-2.25,10.68-3.8,15.26-6.85,32.7-21.81,65.17-43.95,97.81-65.85,2.21-1.48,5.17-2.51,7.81-2.57,39.48-.96,78.97-1.7,118.45-2.57,5.95-.13,11.88-.69,17.86-1.05.33-1.84.59-3.29.85-4.74.32,0,.63-.01.95-.02.64,1.71,1.27,3.42,1.98,5.32-1.46.42-2.23.77-3.03.86-16.04,1.67-32.04,3.95-48.12,4.82-28.45,1.53-56.95,2.11-85.42,3.32-3.5.15-7.42,1-10.33,2.81-13.86,8.63-27.22,18.05-41.15,26.55-24.87,15.17-46.74,35.36-74.64,45.03,1.56,4.99,3.03,10.28,4.94,15.41.63,1.69,2.21,3.92,3.7,4.22,6.4,1.31,7.29,1.97,7.95,8.45.41-.61.86-1.28,1.31-1.96.61.04,1.22.08,1.83.12.33,5.71.65,11.42.98,17.05,3.77,1.38,5.07-.33,5.49-3.6.53-4.13,1.09-8.26,1.92-12.34.57-2.85,1.61-5.6,2.43-8.4.7.12,1.4.25,2.1.37-.81,9.67-1.62,19.33-2.43,29,4.48-8.85,1.95-18.94,3.43-28.25,3.65-.65,4.68.85,4.62,3.77-.09,4.63-.02,9.26-.02,13.89.56.06,1.11.11,1.67.17.86-5.4,1.72-10.79,2.58-16.19.66.11,1.31.21,1.97.32v14.23c4.53-.19,4.56-.19,4.71-3.54.19-4.16.16-8.34.51-12.48.29-3.48.97-6.93,1.48-10.39.62.02,1.24.04,1.86.06,3.4,7.69-1.34,16.2.92,24.01.6,0,1.2.01,1.8.02v-21.2l2.84-.31c3.24,7.59.17,16.59,3.62,25.22,2.92-8.45,5.48-15.88,8.05-23.31.31.1.63.19.94.29-.67,4.62-1.33,9.24-2,13.86.54.21,1.07.42,1.61.63.93-1.64,2.5-3.21,2.67-4.92.34-3.44-.32-6.97-.13-10.44.22-4.06.91-8.1,1.39-12.15.87.03,1.74.06,2.62.09.34,5.51.96,11.03.93,16.54-.04,5.36-.76,10.72-1.29,17.45,1.07-2.65,2.08-4.26,2.35-5.98.83-5.26,1.29-10.58,2.05-15.86.46-3.23,1.41-6.23,5.8-6.13v15.64c6.56-3.22,3.66-8.9,4.5-13.2.95-4.93,1.36-9.97,2.01-14.96l2.18-.13c.41,1.62,1.16,3.24,1.16,4.86-.03,5.66-.58,11.33-.45,16.99.14,5.91-.6,10.94-7.97,12.06,7.76-.43,9.17-1.78,9.93-8.83.69-6.44,1.41-12.89,2.13-19.42,1.54-.32,2.95-.62,4.76-1v17.98c4.26.33,5.66-1.79,5.82-5.36.17-3.66.49-7.31.77-10.97.32-4.24.67-8.48,1-12.71.54.03,1.08.06,1.61.09,3.23,8.91-.23,18.05.97,27.13.6-8.66,1.19-17.31,1.84-26.65,4.8,2.93,4.5,7.1,4.73,10.89.24,4.05.05,8.13.05,12.26,4.47-.16,6.63-2.2,6.83-6.74.19-4.32.72-8.66,1.59-12.88.48-2.32,1.98-4.43,3.03-6.63.49.17.98.34,1.47.51-.44,8.92-.89,17.85-1.33,26.77.43.02.85.04,1.28.06.47-9.55.94-19.09,1.4-28.44,3.98-.92,4.52,1.19,4.47,4.16-.1,5.87-.03,11.74-.03,17.65,5.86-.35,8.22-2.63,8.24-7.59.01-4.15.34-8.35,1.06-12.44.65-3.7,2.01-7.28,3.06-10.91l1.4.21c.22,1.89.67,3.78.6,5.66-.23,6.16-.85,12.31-.94,18.47-.08,4.96.47,9.98-6.83,10.47q8.1-.22,8.55-7.56c.47-8.12.91-16.24,1.36-24.32,3.64-1.09,4.89.11,4.82,3.49-.13,6.46-.04,12.92-.04,19.38,7.64-.2,7.87-.42,8.36-7.64.27-3.99.36-8.01.9-11.96.62-4.46,1.66-8.85,2.52-13.28.57.01,1.14.03,1.7.04.27,2.17.81,4.34.76,6.5-.18,7.83-.41,15.66-.93,23.47-.15,2.3-1.32,4.53-2.02,6.79,1.55-1.31,3.29-3.12,3.45-5.05.7-8.29.91-16.63,1.35-24.95.09-1.71.37-3.4.57-5.11.64-.05,1.28-.1,1.93-.15,6.23,7.37.13,17.13,3.38,25.15,4.91-.31,7.43-2.4,7.45-7.48.02-4.32.7-8.63,1.08-12.94.26-2.98,1.76-4.45,5.26-4.07-.27,4.74-.41,9.37-.83,13.98-.4,4.39-1.07,8.76-1.63,13.13,6.44-11.25,3.35-24.32,6.85-36.09,4.1-.15,4.38,2.23,4.21,5.2-.4,7.18-.66,14.38-.97,21.56.65.05,1.3.1,1.95.15,1.86-8.09.12-16.62,1.38-24.7,3.54-.73,4.67.63,4.65,3.62-.04,5.83,0,11.67.15,17.5.13,4.76.63,9.61-5.94,10.94,3.8-.59,8.43.24,9.14-5.04,1.04-7.67,1.74-15.4,2.28-23.13.23-3.32,1.42-4.5,5.16-3.54v18.41c2.53-9.63-.81-20.14,4.78-29.14.46.03.93.05,1.39.08v27.93c.72,0,1.43.02,2.15.03v-26.01c.8-.15,1.59-.3,2.39-.45.87,1.86,2.32,3.67,2.49,5.59.4,4.63.15,9.32.25,13.99.22,10.14,2.11,9.51-8.08,12.73-.89.28-1.7.83-2.55,1.25,1.97.26,3.78.04,5.51-.45,8.29-2.37,8.88-3.11,9.64-11.55.43-4.81.61-9.67,1.41-14.42.35-2.05,2-3.88,3.06-5.82.56.2,1.12.39,1.68.59v16.62c1.6-7.78,1.86-15.57,2.61-23.32.15-1.59,2.13-3,3.27-4.49.96,1.57,2.75,3.13,2.75,4.7.03,7.49-.64,14.98-.63,22.47,0,4.02-.42,7.36-4.89,8.83,4.16-.1,5.8-1.94,5.82-6.15.04-7.99.6-15.98,1.13-23.96.09-1.27.91-2.78,1.89-3.61.56-.47,2.74-.13,3.06.46.66,1.22.74,2.85.74,4.31.04,15.65.03,31.31.03,47.14,10.93,2.61,21.46,5.04,31.94,7.64,6.4,1.59,7.27,3.69,4.51,10.88-9.12-2.14-18.33-4.3-27.54-6.47-1.3-.31-2.83-.33-3.81-1.07-1.48-1.12-2.67-2.69-3.78-4.22-.66-.9-.92-2.08-1.36-3.14-.46-.19-.92-.37-1.37-.56,1.57,7.78-3.59,8.63-8.45,9.8-5.67,1.37-11.36,2.64-16.98,4.15-8.29,2.23-9,1.72-8.57-6.76.01-.28-.22-.57-.68-1.64-5.88,1.73-11.92,3.36-17.83,5.39-.99.34-1.77,2.29-2.01,3.61-.91,5.04-3.95,7.92-8.66,9.3-5.27,1.54-10.52,3.21-15.84,4.55-8.33,2.1-8.35,2.01-10.96-6.51-3.1.75-6.24,1.64-9.42,2.26-3.72.72-6.01,2.25-5.64,6.62.09,1.08-1.45,2.93-2.63,3.37-8.1,3-16.28,5.85-24.53,8.4-1.3.4-4.26-.57-4.54-1.49-1.76-5.68-5.54-4.25-9.55-3.49-4.57.87-7.66,2.38-6.83,7.94.16,1.08-1.51,3.15-2.75,3.59-6.26,2.2-12.58,4.37-19.04,5.88-7.42,1.73-7.5,1.42-10.11-5.59-8.07-.02-8.88.71-11.37,7.62-.63,1.75-2.54,3.52-4.3,4.27-3.96,1.7-8.22,2.68-12.3,4.1-7.9,2.74-9.1,2.21-11.3-5.73-3.88.62-7.85,1.03-11.7,1.98-1.22.3-2.15,1.96-3.09,3.11-1.45,1.78-2.41,4.35-4.25,5.35-3.61,1.95-7.69,3.02-11.56,4.5-1.54.59-3.05,1.28-4.57,1.93.11.5.22,1,.32,1.51,1.59,0,3.42.51,4.73-.09,5.8-2.66,9.98.21,13.54,4.03,3.4,3.65,7.16,7.21,7.05,13.03-.96,52.65-1.81,105.3-2.72,157.95-.04,2.49-.09,5.03-.61,7.45-.25,1.18-1.62,2.11-2.48,3.16-.34-.29-.68-.58-1.02-.87v-60.1c-.07,0-.15,0-.22,0-.51,20.41-1.03,40.83-1.55,61.62,9.46-.8,18.81-1.59,27.45-2.33v-46.31c-.6-.06-1.19-.12-1.79-.18-3.7,6.97-.24,15.06-2.64,22.32-.7-11.99-.81-23.97-.68-35.95.28-24.48.8-48.97.99-73.45.09-11.66-.35-23.33-.52-34.99-.08-5.69.9-8.54,2.91-10.2-1.94,26.96-.78,54.44-.38,81.93.87.11,1.74.22,2.61.32,1.3-5.35,3.15-10.63,3.79-16.06,2.3-19.35,3.95-38.79,6.36-58.12.93-7.49.55-13.86-6.44-18.28-.74-.47-1.17-1.41-1.87-2.28,4.41-.97,8.85-3.36,12.2-2.3,3.42,1.08,5.76,5.56,9.13,9.13-3.66,1.12-5.85,1.79-8.04,2.46.11.34.22.69.32,1.03,2.53-.44,5.06-.89,8.6-1.51.52,1.92,1.68,4.17,1.67,6.41-.1,22.33-.4,44.66-.62,66.99-.05,4.61,0,9.22,0,13.83-.39,0-.78-.02-1.17-.03-.03-.5-.07-1-.1-1.5-.7,31.49-1.39,62.97-2.09,94.46,7.41-.9,14.83-1.72,22.22-2.77,1.15-.16,2.16-1.37,4.2-2.75-3.1,1.12-4.85,1.76-8.06,2.92,1.56-34.51,3.06-67.57,4.55-100.63-.44-.04-.88-.08-1.31-.11-.53,6.14-1.28,12.27-1.54,18.41-.27,6.28-.06,12.58-.06,18.87-.3,0-.6.02-.9.03l-5.71-101.41c.59-.22,1.17-.43,1.76-.65,4.03,3.21,8.07,6.42,12.87,10.24.46-15.03,5.48-29.61-7.18-41.29,9.86-2.79,13.71-.63,17.15,8.99.61,1.7,2.1,3.87,3.62,4.31,3.36.97,3.25,3.14,3.29,5.72.3,19.16.82,38.31.98,57.47.32,36.98.46,73.97.62,110.95,0,1.78-.48,3.56-.73,5.35-.62-.04-1.23-.08-1.85-.13v-69.63c-.44,0-.88,0-1.32,0,0,1.09.03,2.18,0,3.27-.68,20.98-1.33,41.97-2.12,62.94-.07,1.76-1.11,3.48-1.64,5.02,8.86-.87,18.93-1.85,28.21-2.76,0-3.9-.1-7.53.02-11.15,1.15-35.14,2.24-70.28,3.55-105.41.9-24.14,2.21-48.26,3.15-72.4.25-6.54.32-13.37-8.95-15.29,13.01-5.59,16.87-5.11,20.5,7.3.99,3.37,1.63,6.89,1.98,10.39.33,3.31.07,6.67.07,10.01.34,0,.67,0,1.01,0v-17.2c5.47.18,5.66.25,5.76,5.59.61,35.65,1.42,71.3,1.64,106.95.14,23.66-.56,47.32-.98,70.97-.03,1.9-.85,3.79-1.3,5.69-.55-.14-1.11-.28-1.66-.41v-152.51c-.09,0-.18,0-.26,0-.71,51.43-1.41,102.86-2.13,154.79,11.36-1.29,22.58-2.5,33.77-3.88,5.35-.66,10.67-1.65,16-2.49,0,.04,0,.08-.01.12,19.31-1.6,38.62-3.21,58.33-4.84.26,4.64.46,8.25.63,11.4-91.52,8.6-182.67,17.17-274.37,25.78.26-2.94.49-5.5.73-8.22,3.65-.54,6.93-1.03,9.76-1.45v-40.54c-22.74,11.68-33.71,6.23-36.58,4.54-.37-.22-.79-.48-1.24-.83-11.33-8.74-10.83-25.02-14.67-55.36-2.72-21.48-4.9-27.2-1.25-37.04ZM665.93,383.81c-9.23-3.2-17.72-5.87-25.94-9.22-1.72-.7-2.39-3.95-3.54-6.03.35-.43.7-.85,1.05-1.28,8.66,1.99,17.41,3.66,25.94,6.11,5.34,1.53,1.84,6,2.49,10.42ZM655.17,390.14c.92,2.06,1.33,3.67,2.24,4.91,3.47,4.77,7.17,9.37,10.61,14.17.7.97.94,2.51.87,3.76-2.19,36.75-4.45,73.5-6.71,110.25-.04.64-.27,1.27-1.17,1.99-.59-3.85-1.42-7.68-1.75-11.55-3.13-37.35-6.09-74.72-9.34-112.06-.43-4.98,1.72-8.06,5.24-11.45ZM609.8,368.62c-5.81-1.46-11.66-2.76-17.5-4.12q-8.12-1.89-9.3-11.13c11.87,2.53,23.2,4.95,34.42,7.34,1.51,8.31-.03,9.81-7.61,7.91ZM577.24,425.7c-1.86,48.06-3.68,95.3-5.53,143.11-2.9-.16-5.33-.29-6.65-.37.63-1.6,1.75-3.18,1.8-4.8.76-25.81,1.28-51.62,2.05-77.42.53-17.65,1.39-35.28,1.98-52.93.13-3.76,1.39-6.31,6.34-7.59ZM537.2,436.19c.45,1.79,1.23,3.56,1.3,5.36,1.51,39.29,2.89,78.59,4.44,117.89.18,4.6-1.37,6.45-6,5.97-9.93-1.04-19.88-1.92-28.48-2.73,2.27-24.57,2.18-48.95,3.53-73.24,1.35-24.36,2.51-48.74,3.8-73.91,6.44,6.26,12.36,11.54,17.62,17.41,1.46,1.63,1.31,4.99,1.35,7.57.66,39.82,1.22,79.64,1.84,119.46.03,1.66.38,3.31,1.73,4.87.47-42.88-1.29-85.66-1.12-128.64ZM530.56,346.45c-2.02-.67-3.05-4.33-4.54-6.61.41-.56.83-1.12,1.24-1.68,12.13,2.72,24.26,5.43,36.67,8.21-.14,3.08-.27,5.66-.45,9.5-11.69-3.25-22.44-5.95-32.93-9.42ZM542.13,271.31c.65-.74,2.13-1.28,3.05-1.08.74.16,1.67,1.55,1.72,2.44.2,3.53.08,7.08.08,10.88-5.1-1.66-7.65-9.07-4.85-12.24ZM391.56,593.86c-.27,3.6-.47,6.2-.62,8.17-100.63,6.74-200.93,13.46-301.52,20.2-.9-7.24-.9-7.18,5.23-7.66,53.97-4.21,107.92-8.53,161.9-12.65,43.35-3.31,86.68-6.92,130.08-9.28,16.01-.87,32.2,1.29,48.28,2.38,16.93,1.15,33.83,2.67,50.71,4.68-31.28-1.95-62.55-3.89-94.07-5.85ZM483.67,611.65c-.02.41-.05.82-.07,1.23-29.69-1.79-59.37-3.59-89.06-5.38.04-.35.08-.7.13-1.05,29.67,1.73,59.33,3.46,89,5.2ZM408.7,358.04c.44,58.15.9,116.3,1.3,174.44.05,6.77-.26,13.55-.41,20.33-2.29.01-4.58.01-7.07.01v-202.82h6.18c0,2.83-.02,5.43,0,8.03ZM411.45,567.88c-2.03.33-2.81,1.81-2.44,4.82.2,1.63.03,3.3.03,4.51-97.1,8.1-193.95,16.18-291.05,24.27-.94-6.91-.86-7.1,5.14-7.69,52.06-5.08,104.1-10.3,156.18-15.17,40.97-3.83,81.94-7.81,122.99-10.48,3.04-.2,6.09-.28,9.14-.27ZM427.09,569.12c-4.31-.35-8.66-.49-12.93-1.16-.13-.02-.26-.03-.39-.05,12.35.21,24.78,1.7,37.16,2.33,2.65.14,5.28.56,7.87,1.44-10.57-.85-21.14-1.7-31.72-2.56ZM466.92,585.02c-.02.27-.04.53-.07.8-20.76-1.66-41.53-3.32-62.29-4.98.07-.36.14-.72.21-1.08,20.72,1.75,41.43,3.51,62.15,5.26ZM411.28,552.95c2.3-.32,1.84-2.7,1.8-4.74-.6-30.83-1.37-61.65-1.75-92.48-.41-33.49-.47-66.98-.66-100.48,0-1.29.24-2.58.37-3.87.54,0,1.08-.01,1.61-.02.82,33.44,1.53,66.88,2.47,100.31.95,33.77,2.12,67.54,3.21,101.89-2.35-.2-4.7-.4-7.06-.6ZM400.66,579.74v9.65c-98.14,7.54-196.17,15.07-294.55,22.63.38-2.82.7-5.22,1.05-7.86,97.88-8.14,195.56-16.27,293.5-24.41ZM462.69,558.47c-6.97-.63-13.94-1.22-20.9-1.95-1.4-.15-2.74-.86-4.11-1.32-.76-.06-1.52-.13-2.28-.19.73.06,1.47.12,2.2.18,1.32.1,2.62.19,5.27.39,0-6.86-.25-13.33.04-19.77,2.27-50.6,4.61-101.2,7.02-151.8.33-6.98.98-13.97,1.87-20.9.18-1.4,1.99-3.5,3.27-3.67,3.4-.47,6.92.11,10.39-.05,3.88-.17,4.56,1.8,4.57,5.19.2,51.16.49,102.32.77,153.48.07,12.33.17,24.66.28,37,0,.74.27,1.48,1.29,2.16v-194.12c2.26,15.89,2.36,31.93,2.76,47.95.41,16.33.75,32.65,1.1,48.98.34,16.33.77,32.66.93,48.99.16,16.31.04,32.62.04,49.33,4.46.7,8.15,1.27,11.83,1.85-.03.22-.05.44-.08.66-8.75-.8-17.51-1.59-26.26-2.39ZM466.76,332.91c-5.2-1.41-2.81-6.56-4.38-10.95,7.48,1.92,14.12,3.64,20.77,5.33,3.22.82,6.44,1.61,9.66,2.38,7.29,1.75,7.64,2.27,6.69,11.1-11.18-2.65-22.04-4.96-32.75-7.86ZM488.91,255.8c3.64-.77,5.01.87,4.67,4.49-.23,2.42-.31,4.84-.47,7.35-5.13-1.44-5.26-1.79-4.2-11.84ZM401.24,238.79c1.85,8.73,1.79,8.93-6.64,11.44-32.87,9.79-65.86,19.2-98.61,29.39-34.81,10.83-69.4,22.37-104.07,33.64-13.45,4.37-26.87,8.84-40.3,13.28q-7.69,2.54-9.34-5.36c10.21-5.55,251.95-82.47,258.96-82.4ZM140.09,315.1c6.76-2.26,12.66-4.23,18.57-6.2,23.95-7.99,45.32-20.84,65.74-35.37,12.2-8.69,24.02-17.91,36.21-26.61,1.96-1.4,4.95-1.9,7.46-1.89,19.83.09,39.67.04,59.48.76,20.4.75,39.45-5.65,58.91-9.95,4.83-1.07,9.62-2.29,14.44-3.44.03.14.05.27.08.41-85.89,27.85-171.78,55.71-257.69,83.49-.64.21-1.6-.57-3.19-1.2ZM400.39,547.13c.02,6.51-.1,6.63-6.7,6.59-1.12,0-2.25-.14-4.09-.27,1.15-32.67,2.29-65.05,3.43-97.44-.17,0-.34,0-.5-.01-.42,7.74-.96,15.47-1.23,23.21-.81,22.81-1.54,45.61-2.22,68.42-.2,6.77-1.2,7.65-8.68,6.65.64-17.93,1.09-35.88,1.95-53.81,2.13-44.61,4.45-89.2,6.68-133.8.09-1.83-.05-3.68.12-5.5.67-7.25-.68-13.82-5.86-19.34-1.33-1.41-2.13-3.32-3.17-4.99,9.54-6.52,13.93-4.55,20.83,10.49-1.83.6-3.64,1.19-5.44,1.79.01.18.02.37.03.55,1.96-.1,3.91-.19,6.4-.32,0,2.38.02,4.34,0,6.29-.53,56.82-1.07,113.65-1.59,170.47-.06,7,.01,14,.03,21ZM323.24,350.12c10.41-2.59,12.03-1.71,19.9,10.82-2.17.61-4.33,1.21-6.5,1.81.05.23.09.46.14.7,3.93-.27,7.87-.55,12.36-.86,0,12.25.09,24.21-.02,36.16-.47,50.82-.98,101.63-1.52,152.45-.03,2.43-.43,4.86-.67,7.29-5.5.38-11,.77-16.81,1.17-.18-1.68-.32-3.12-.47-4.55-.17,3.88-1.49,6.5-6.63,5.3,0-1.64-.08-3.41.01-5.18,2.67-53.58,5.34-107.16,8.08-160.74.33-6.49.76-13,1.69-19.42,1.48-10.18-2.07-18.25-9.57-24.95ZM350.4,364.1c.71-.12,1.41-.25,2.12-.37.43,1.37,1.23,2.73,1.25,4.1.68,61.27,1.3,122.55,1.86,183.82.05,5.29-.4,5.48-7.08,5.47.62-64.35,1.23-128.68,1.85-193.02ZM77.64,625.08c20.77-1.37,41.53-2.93,62.3-4.4,41.2-2.91,82.39-6.01,123.61-8.66,41.55-2.67,83.14-4.89,124.71-7.3.8-.05,1.6,0,2.8,0v9.72c-106.02,5.63-211.74,11.24-317.77,16.87-1.31-3.97-.24-5.93,4.36-6.23ZM164.73,635.26c-1.53,1.02-4,1.95-6.56,3.73-2.81,1.97-6.55,3.43-9.94,3.61-12.17.64-35.55,1.15-38.96.89-7.72-.6-18.78-1.22-32.42-1.15-.11-1.38-.22-2.75-.33-4.13,29.4-.98,58.8-1.96,88.21-2.94ZM62.62,655.09c.04-.44.07-.88.11-1.32,8.36.92,16.72,1.83,25.07,2.75l-.13,1.29-25.05-2.73ZM789.28,648.92c-6.29-2.42-12.73-4.89-19.32-5.94-6.33-1.01-12.94-.22-20.1-.22,2.56-2.34,4.89-4.48,8.41-7.7-4.13-1.19-7.18-2.87-10.2-2.81-14.27.26-28.53,1.21-42.8,1.52-23.75.51-47.52.3-71.24,1.31-7.74.33-17.04-3.19-23.03,5.5-.21.31-.96.21-1.4.42-3.73,1.72-7.37,3.64-11.19,5.1-1.38.53-3.22.21-4.77-.1-3-.6-6.29-2.7-8.84-1.98-6.39,1.79-11.42,1.32-17.75-1.82-9.43-4.68-22.03,2.81-25.36,13.28-.81,2.53-1.39,4.49-4.84,4.46-16.03-.17-32.06-.08-48.25-.08,3.92,9.48,6.81,19.82,4.97,30.91-.14.82.82,2.17,1.64,2.74,6,4.15,12.09,8.16,18.02,12.13,3.64-2.72,7.07-5.66,10.87-8,2.93-1.8,6.31-2.87,9.51-4.22,3.12-1.31,6.62-2.04,9.34-3.92,16.19-11.18,35.8-8.92,48.46,6.14,2.75,3.27,4.49,7.37,6.98,10.89,1.01,1.43,2.74,3.24,4.22,3.32,8.89.47,15.84,4.45,21.9,10.66,1.67,1.71,3.92,3.4,6.17,3.89,10.83,2.35,17.88,9.09,22.82,18.55,3.66,7.01,5.65,7.48,12.4,2.83,1.92-1.32,3.57-3.11,5.62-4.14,6.02-3.04,11.63-6.05,15.33-6.95.83-.2,20.44-4.79,28.24,5,3.31,4.15,3.5,9.64,3.77,17.63-11.09-8.88-23.59-10.63-36.53-4.33-5.6,2.73-10.13,6.1-17.42,5.65-9.4-.58-9.47.81-13.74-7.63-.83-1.63-1.74-3.23-2.71-4.78-5.22-8.37-12.21-13.87-22.48-14.73-1.86-.16-3.94-2.18-5.21-3.87-6.7-8.9-14.89-11.56-25.36-7.94-1.17.4-2.42.56-3.95.9,0-1.98.34-3.54-.06-4.88-1.35-4.5-2.73-9.02-4.65-13.29-.53-1.18-2.96-2.04-4.55-2.1-4.46-.15-8.94.27-13.41.33-9.3.12-18.94,1.71-27.81-.2-9.93-2.14-16.81,2.18-25.68,6.23,11.2,2,19.28,6.48,23.93,15.97-2.36-.33-4.5-1.04-6.3-2.27-9.23-6.31-20.44-7.47-30.51-7.71-29.5-.7-59.06.79-88.6,1.57-15.24.4-30.46,1.12-45.7,1.65-4.95.17-9.92.09-14.87.29-8.3.34-16.6,1.1-24.91,1.18-11.62.1-23.25-.1-34.87-.48-9.2-.3-16.24,7.12-16.36,14.71-.1,6.72,1.14,13.46,1.63,20.2.1,1.37-.51,2.8-.79,4.2-1.69-.58-4.25-.64-4.93-1.8-10.35-17.61-2.14-42.86,16.62-51.59,7.79-3.63,15.98-4.75,24.37-2.91,4.7,1.03,8.88,1.3,13.34-1.41,2.31-1.41,5.89-1.67,8.67-1.18,4.37.77,5.81-.78,5.84-4.78.01-1.09.4-2.19.52-2.81-1.46.79-3.05,2.35-4.69,2.4-3.79.12-7.6-.62-11.42-.76-8.08-.3-16.24-1.19-24.24-.46-11.39,1.04-22.61,3.91-34,4.91-15.67,1.38-31.43,1.93-47.16,2.5-19.6.71-39.21,1.04-58.82,1.63-3.48.11-7.03.37-10.37,1.24-1.81.48-4.12,2.1-4.68,3.73-1.35,3.96-3.81,4.42-7.34,3.99-6.75-.81-13.51-1.74-20.29-1.96-13.35-.43-26.72-.39-40.09-.55-.1-.59-.21-1.18-.31-1.78,2.69-1.52,5.22-3.53,8.1-4.49,13.01-4.34,25.85-5.48,37.15,4.41,4.6,4.03,7.92-.21,11.8-1.15,3.75-.9,2.97-3.73,3.04-6.34.33-12.35,8.62-24.62,20.38-28.25,7.46-2.31,15.45-2.88,23.89-4.35-6.85.47-13.13.69-19.37,1.36-11.38,1.23-22.75,2.63-34.1,4.12-9.9,1.31-20.36,1.81-24.14,13.85-1.26-.38-2.34-.7-3.6-1.08.05-.9-.04-2.09.2-3.21,1.02-4.62-.78-6.06-5.44-6.04-6.81.03-13.63-.69-20.44-1.23-1-.08-1.95-.91-3.81-1.84,11.58.67,21.94,1.27,32.53,1.88.69-8.91,3.38-16.86,11.96-22.91h-21.57c.61-.71.81-1.15,1.02-1.16,10.28-.14,20.56-.34,30.83-.23,1.17.01,2.38,1.65,3.45,2.65.79.73,1.55,2.48,2.03,2.38,2.2-.46,4.28-1.47,6.44-2.18,4.73-1.54,9.47-3.01,15.57-4.94,2.68-5.05,7.18-8.57,12.8-10.56,9.95-.55,19.89-1.1,29.84-1.64,4.28,2.3,9.98,6.06,15.44,12.07,6.44,7.07,9.82,14.27,11.57,18.83,3.29-14.32,8.14-26.71,23.84-31.17-1.29-.23-1.62-.37-1.93-.32-.98.15-1.83.39-1.94.44-4.02,1.92-14.01-.63-14.01-.63-1.14-.29-2.66-.56-4.74-.77,51.71-2.85,103.41-5.7,155.12-8.55v14.66h-67.13c2.83,6.61,5.94,10.49,13.2,10.36,10.16-.18,17.08,5.74,21.47,14.61,1.59,3.22,2.77,6.64,3.85,9.27,6.92-1.91,13.5-4.52,20.31-5.35,4.68-.57,6.22-2.3,7.83-6.35,2.37-5.95,5.1-12.14,9.19-16.94,17.29-20.28,50.31-24.79,72.81-9.67,9.45,6.35,19.42,5.35,30.15,6.21-.84-2.62-1.45-4.47-2.02-6.34-6.05-19.8,3.42-36.87,18.91-46.3,20.27-12.34,43.51-8.03,60.1,9.11,1.16,1.19,3.07,2.13,4.73,2.29,9.7.94,18.06,4.34,23.35,11.75,14.07-5.01,26.15-14.48,42.17-11.24-2.24-8.86-3.09-17.06-.09-25.2,9.85-26.68,48.11-34.49,65.92-15.15,1.27,1.38,3.68,2.17,5.66,2.38,13.2,1.44,22.86,7.99,28.3,20.03,1.59,3.51,3.17,4.12,6.69,3.67,15.47-1.98,28.45,8.47,29.92,23.93.78,8.15-.39,15.95-5.02,22.98-.96,1.45-1.68,3.06-2.81,5.14,15.68,2.39,29.44,6.77,36.37,22.12-6.76-1.03-9.63-8.14-15.48-10.39ZM116.19,696.56c4.93-6.61,16.5-7.27,20.21-1.42-6.6,2.37-13,3.81-20.21,1.42Z"/>
    </g>
    <path class="cls-1" d="M268.03,221.43c-9.22,2.18-11.84.38-16.42-11.07,7.92.05,12.48,4.64,16.42,11.07Z"/>
    <path class="cls-1" d="M207.7,575.18c-1.98.14-3.96.27-5.84.4.58-20.58,1.15-41.07,1.72-61.56.06,0,.11,0,.17,0v60.15c1.2.3,2.58.65,3.98,1.01.02,0-.03,0-.03,0Z"/>
    <path class="cls-1" d="M98.91,480.59v-13.75c2.7.74,5.29,1.45,8.46,2.32-2.63,4.08-5.03,7.79-7.42,11.49-.35-.02-.69-.04-1.04-.06Z"/>
    <path class="cls-1" d="M131.62,447.24c-1.87-.82-3.85-1.27-5.23-2.43-1.09-.92-1.44-2.71-2.12-4.12,1.62-.11,3.45-.76,4.8-.22,2.57,1.04,4.31,2.99,2.55,6.76Z"/>
    <path class="cls-1" d="M248.33,438.9v-45.82c.08,0,.17,0,.25,0v46c-.08-.06-.17-.12-.25-.18Z"/>
    <path class="cls-1" d="M204.42,485.53v20.67h-.24v-20.87c.08.07.16.13.24.2Z"/>
    <path class="cls-2" d="M437.64,555.19c1.29.1,2.58.19,5.24.4,0-6.86-.25-13.33.04-19.77,2.27-50.6,4.61-101.2,7.02-151.8.33-6.98.98-13.97,1.87-20.9.18-1.4,1.99-3.5,3.27-3.67,3.4-.47,6.92.11,10.39-.05,3.88-.17,4.56,1.8,4.57,5.19.2,51.16.49,102.32.77,153.48.07,12.33.17,24.66.28,37,0,.74.27,1.48,1.29,2.16v-194.12c2.26,15.89,2.36,31.93,2.76,47.95.41,16.33.75,32.65,1.1,48.98.34,16.33.77,32.66.93,48.99.16,16.31.04,32.62.04,49.33,4.46.7,8.15,1.27,11.83,1.85-.03.22-.05.44-.08.66-8.75-.8-17.51-1.59-26.26-2.39-6.97-.63-13.94-1.22-20.9-1.95-1.4-.15-2.74-.86-4.12-1.32,0,0-.04-.01-.04-.01ZM461.66,463.3c-.18-.02-.35-.04-.53-.06v90.92c.18,0,.35,0,.53,0v-90.86ZM449.85,554.44c.11,0,.22.01.33.02v-47.54c-.11,0-.22,0-.33-.01v47.53ZM462.57,414.2c-.08,0-.16,0-.25,0v36.72c.08,0,.16,0,.25,0v-36.72Z"/>
    <path class="cls-2" d="M347.08,558.48c-5.54.39-11.09.77-16.95,1.18-.18-1.68-.32-3.12-.47-4.55-.17,3.88-1.49,6.5-6.63,5.3,0-1.64-.08-3.41.01-5.18,2.67-53.58,5.34-107.16,8.08-160.74.33-6.49.76-13,1.69-19.42,1.48-10.18-2.07-18.25-9.57-24.95,10.41-2.59,12.03-1.71,19.9,10.82-2.17.61-4.33,1.21-6.5,1.81.05.23.09.46.14.7,3.93-.27,7.87-.55,12.36-.86,0,12.25.09,24.21-.02,36.16-.47,50.82-.98,101.63-1.52,152.45-.03,2.48-.45,4.95-.68,7.42,0,0,.15-.14.15-.14ZM341.78,479.2c.11-.04.22-.08.33-.12v-68.73c-.11,0-.22,0-.33,0v68.86ZM339.28,554c.1-.03.21-.05.31-.08v-27.71c-.1,0-.21,0-.31,0v27.79ZM340.6,489.18c-.09,0-.19.02-.28.03v26.86c.09,0,.19,0,.28,0v-26.89ZM343.49,367.25s-.06.07-.09.1v19.77h.09v-19.87Z"/>
    <path class="cls-2" d="M515.79,415.53c6.44,6.26,12.36,11.54,17.62,17.41,1.46,1.63,1.31,4.99,1.35,7.57.66,39.82,1.22,79.64,1.84,119.46.03,1.66.38,3.31,1.73,4.87.47-42.88-1.29-85.66-1.12-128.64.45,1.79,1.23,3.56,1.3,5.36,1.51,39.29,2.89,78.59,4.44,117.89.18,4.6-1.37,6.45-6,5.97-9.93-1.04-19.88-1.92-28.48-2.73,2.27-24.57,2.18-48.95,3.53-73.24,1.35-24.36,2.51-48.74,3.8-73.91ZM520.97,470.18c-.25,0-.5-.01-.75-.02-.72,30.05-1.44,60.1-2.17,90.16.45,0,.9.02,1.35.03l1.57-90.17ZM527.42,553.21c.24-.39.3-.44.3-.5,0-11.91,0-23.83,0-35.74-.1,0-.2,0-.3,0v36.24Z"/>
    <path class="cls-2" d="M389.61,553.46c1.15-32.67,2.29-65.05,3.43-97.44-.17,0-.34,0-.5-.01-.42,7.74-.96,15.47-1.23,23.21-.81,22.81-1.54,45.61-2.22,68.42-.2,6.77-1.2,7.65-8.68,6.65.64-17.93,1.09-35.88,1.95-53.81,2.13-44.61,4.45-89.2,6.68-133.8.09-1.83-.05-3.68.12-5.5.67-7.25-.68-13.82-5.86-19.34-1.33-1.41-2.13-3.32-3.17-4.99,9.54-6.52,13.93-4.55,20.83,10.49-1.83.6-3.64,1.19-5.44,1.79.01.18.02.37.03.55,1.96-.1,3.91-.19,6.4-.32,0,2.38.02,4.34,0,6.29-.53,56.82-1.07,113.65-1.59,170.47-.06,7,.01,14,.03,21,.02,6.51-.1,6.63-6.7,6.59-1.12,0-2.25-.14-4.09-.27Z"/>
    <path class="cls-2" d="M400.97,232.81c-85.89,27.85-171.78,55.71-257.69,83.49-.64.21-1.6-.57-3.19-1.2,6.76-2.26,12.66-4.23,18.57-6.2,23.95-7.99,45.32-20.84,65.74-35.37,12.2-8.69,24.02-17.91,36.21-26.61,1.96-1.4,4.95-1.9,7.46-1.89,19.83.09,39.67.04,59.48.76,20.4.75,39.45-5.65,58.91-9.95,4.83-1.07,9.62-2.29,14.44-3.44.03.14.05.27.08.41Z"/>
    <path class="cls-2" d="M89.43,622.23c-.9-7.24-.9-7.18,5.23-7.66,53.97-4.21,107.92-8.53,161.9-12.65,43.35-3.31,86.68-6.92,130.08-9.28,16.01-.87,32.2,1.29,48.28,2.38,16.93,1.15,33.83,2.67,50.71,4.68-31.28-1.95-62.55-3.89-94.07-5.85-.27,3.6-.47,6.2-.62,8.17-100.63,6.74-200.93,13.46-301.52,20.2Z"/>
    <path class="cls-2" d="M391.06,604.71v9.72c-106.02,5.63-211.74,11.24-317.77,16.87-1.31-3.97-.24-5.93,4.36-6.23,20.77-1.37,41.53-2.93,62.3-4.4,41.2-2.91,82.39-6.01,123.61-8.66,41.55-2.67,83.14-4.89,124.71-7.3.8-.05,1.6,0,2.8,0Z"/>
    <path class="cls-2" d="M117.99,601.48c-.94-6.91-.86-7.1,5.14-7.69,52.06-5.08,104.1-10.3,156.18-15.17,40.97-3.83,81.94-7.81,122.99-10.48,16.09-1.05,32.41,1.26,48.62,2.09,2.65.14,5.28.56,7.87,1.44-10.57-.85-21.14-1.7-31.72-2.56-4.31-.35-8.66-.49-12.93-1.16-4.04-.63-5.65.65-5.15,4.74.2,1.63.03,3.3.03,4.51-97.1,8.1-193.95,16.18-291.05,24.27Z"/>
    <path class="cls-2" d="M400.66,579.74v9.65c-98.14,7.54-196.17,15.07-294.55,22.63.38-2.82.7-5.22,1.05-7.86,97.88-8.14,195.56-16.27,293.5-24.41Z"/>
    <path class="cls-2" d="M401.24,238.79c1.85,8.73,1.79,8.93-6.64,11.44-32.87,9.79-65.86,19.2-98.61,29.39-34.81,10.83-69.4,22.37-104.07,33.64-13.45,4.37-26.87,8.84-40.3,13.28q-7.69,2.54-9.34-5.36c10.21-5.55,251.95-82.47,258.96-82.4Z"/>
    <path class="cls-2" d="M409.69,552.83h-7.16v-202.82h6.18c0,2.83-.02,5.43,0,8.03.44,58.15.9,116.3,1.3,174.44.05,6.8-.27,13.6-.41,20.4l.1-.06Z"/>
    <path class="cls-2" d="M655.17,390.14c.92,2.06,1.33,3.67,2.24,4.91,3.47,4.77,7.17,9.37,10.61,14.17.7.97.94,2.51.87,3.76-2.19,36.75-4.45,73.5-6.71,110.25-.04.64-.27,1.27-1.17,1.99-.59-3.85-1.42-7.68-1.75-11.55-3.13-37.35-6.09-74.72-9.34-112.06-.43-4.98,1.72-8.06,5.24-11.45ZM661.08,443.15c.23.03.46.05.69.08.26-1.97.61-3.92.76-5.9.46-6.13.97-12.26,1.22-18.39.33-7.9-3.86-13.88-11.91-17.04,3.11,13.89,6.17,27.58,9.23,41.26Z"/>
    <path class="cls-2" d="M352.52,363.73c.43,1.37,1.23,2.73,1.25,4.1.68,61.27,1.3,122.55,1.86,183.82.05,5.29-.4,5.48-7.08,5.47.62-64.35,1.23-128.68,1.85-193.02.71-.12,1.41-.25,2.12-.37Z"/>
    <path class="cls-2" d="M577.24,425.7c-1.86,48.06-3.68,95.3-5.53,143.11-2.9-.16-5.33-.29-6.65-.37.63-1.6,1.75-3.18,1.8-4.8.76-25.81,1.28-51.62,2.05-77.42.52-17.65,1.39-35.28,1.98-52.93.13-3.76,1.39-6.31,6.34-7.59Z"/>
    <path class="cls-2" d="M409.59,552.89c4.2.71,3.54-2.23,3.49-4.68-.6-30.83-1.37-61.65-1.75-92.48-.41-33.49-.47-66.98-.66-100.48,0-1.29.24-2.58.37-3.87.54,0,1.08-.01,1.61-.02.82,33.44,1.53,66.88,2.47,100.31.95,33.78,2.12,67.56,3.21,101.91,6.44.54,12.85,1.08,19.28,1.61.02,0,.05,0,.05.01-9.32-.79-18.64-1.59-27.98-2.38,0,0-.11.06-.11.06Z"/>
    <path class="cls-2" d="M499.51,340.78c-11.18-2.65-22.04-4.96-32.75-7.86-5.2-1.41-2.81-6.56-4.38-10.95,7.48,1.92,14.12,3.64,20.77,5.33,3.22.82,6.44,1.61,9.66,2.38,7.29,1.75,7.64,2.27,6.69,11.1Z"/>
    <path class="cls-2" d="M563.49,355.87c-11.69-3.25-22.44-5.95-32.93-9.42-2.02-.67-3.05-4.33-4.54-6.61.41-.56.83-1.12,1.24-1.68,12.13,2.72,24.26,5.43,36.67,8.21-.14,3.08-.27,5.66-.45,9.5Z"/>
    <path class="cls-2" d="M583,353.36c11.87,2.53,23.2,4.95,34.42,7.34,1.51,8.31-.03,9.81-7.61,7.91-5.81-1.46-11.66-2.76-17.5-4.12q-8.12-1.89-9.3-11.13Z"/>
    <path class="cls-2" d="M637.5,367.29c8.66,1.99,17.41,3.66,25.94,6.11,5.34,1.53,1.84,6,2.49,10.42-9.23-3.2-17.72-5.87-25.94-9.22-1.72-.7-2.39-3.95-3.54-6.03.35-.43.7-.85,1.05-1.28Z"/>
    <path class="cls-2" d="M394.67,606.45c29.67,1.73,59.33,3.46,89,5.2-.02.41-.05.82-.07,1.23-29.69-1.79-59.37-3.59-89.06-5.38.04-.35.08-.7.13-1.05Z"/>
    <path class="cls-2" d="M404.77,579.76c20.72,1.75,41.43,3.51,62.15,5.26l-.07.8c-20.76-1.66-41.53-3.32-62.29-4.98.07-.36.14-.72.21-1.08Z"/>
    <path class="cls-2" d="M546.98,283.55c-5.1-1.66-7.65-9.07-4.85-12.24.65-.74,2.13-1.28,3.05-1.08.74.16,1.67,1.55,1.72,2.44.2,3.53.08,7.08.08,10.88Z"/>
    <path class="cls-2" d="M488.73,255.84c3.78-.87,5.2.77,4.85,4.46-.23,2.42-.31,4.84-.47,7.35-5.15-1.44-5.26-1.79-4.19-11.98,0,0-.19.17-.19.17Z"/>
    <path class="cls-2" d="M602.16,300.12c.37-1.59.94-3.17,1.08-4.78.22-2.57-1.49-5.95,3.79-6.43.38,3.53.76,7.03,1.21,11.23-2.29,0-4.18,0-6.07,0,0,0-.01-.01-.01-.01Z"/>
    <path class="cls-2" d="M254.07,173.72c4.12-3.02,7.59-5.63,11.13-8.15,6.6-4.69,13.74-6.49,21.74-4.1,1.01.3,2.87.07,3.39-.62,10.68-14.17,24.41-15.17,39.77-9.46.3.11.66.05,1.4.09.98-2.79,1.96-5.58,2.94-8.37-4.91-1.98-15-5.26-27.8-3.8-15.79,1.8-26.35,9.74-30.39,13.13-2.86-3.13-9.56-9.54-19.95-11.82-12.84-2.81-23.63,2.38-26.59,3.94-15.31,8.06-18.31,22.48-29.06,22.16-3.08-.09-5.52-1.36-6.89-2.22-2.92-5.51-6.51-14.33-6.16-25.12.88-26.84,25.57-46.87,46.41-54.24,3.32-1.17,23.61-7.86,46.5-.33,8.51,2.8,16.66,7.41,24.34,14.09,3.97,3.45,6.92,8.05,10.53,11.94.92.99,2.71,2.04,3.86,1.82,14.71-2.85,21.66.67,28.13,14.8,8.62-16.81,22.65-21.52,40.5-18,.29-1.5.63-2.74.77-4,1.91-17.22,15.27-29.68,32.53-29.79,4.23-.03,6.35-1.21,8.31-5.08,9.69-19.13,32.97-30.35,56.15-27.59,19.29,2.29,34.49,10.72,43.32,28.64,18.03-1.75,24.97,2.17,34.61,19.88,7.29-3.15,14.65-2.1,21.95.93,7.65,3.17,13.15,8.69,14.41,16.66,1.18,7.48,5.12,11.88,11.39,15.24,4.51-12.22,14.89-16.15,26.55-17.37,13.47-1.41,25.76,2.05,34.49,12.96,4.29,5.36,7.46,11.79,10.32,18.1,2.7,5.95,6.23,8.06,12.7,5.77,7.67-2.72,15.48-3.95,23.58-2.62,27.07,4.46,41.95,32.77,30.58,58.54-1.34,3.03-1.12,4.95.54,7.64,2.32,3.76,3.94,7.95,6.04,12.35,7.32-2.77,14.83-3.95,22.75-1.46,17.93,5.64,26.62,28.12,16.63,44.08-1.18,1.88-3.61,2.98-6.42,5.19-.45-3.38-.66-4.97-.88-6.56-.5-3.65-2.7-5.59-6.24-6.12-2.63-.39-5.27-.97-7.92-1.03-16.46-.37-32.93-.55-49.39-.96-4.98-.12-9.95-.66-14.91-1.21-7.53-.84-15.02-2.05-22.56-2.74-5.64-.51-8.01-5.01-11.19-8.45-2.31-2.5-3.87-3.49-7.44-1.47-7.61,4.29-15.19,1.87-22.61-1.53-1.32-.61-3.93-.33-4.94.62-4.89,4.59-10.28,5.61-16.89,4.8-14.33-1.75-28.73-3.47-43.14-3.79-12.95-.28-25.3-2.18-37.33-6.83-1.71-.66-3.91-.43-5.8-.11-2.94.5-5.77,1.69-8.72,2.13-13.93,2.12-23.15-3.35-29.01-17.86-1.75-4.34-4.03-5.66-8.43-5.62-16,.14-31.99-.04-47.99-.1-1.78,0-3.55,0-5.33,0-.14-.54-.28-1.08-.42-1.62,2.14-.8,4.22-2.01,6.43-2.32,14.34-2.05,28.72-3.84,43.05-5.93,1.77-.26,3.35-1.78,5.03-2.72-1.76-1.18-3.41-3.18-5.28-3.4-12.85-1.55-25.74-2.76-38.62-4.03-5.15-.51-6.38-2.19-5.4-9.43-72.2-.39-144.22-.78-216.38-1.16,3.34-10.66,16-12.63,27.32-6.37Z"/>
    <path class="cls-2" d="M116.93,217.4c0-4.31-.1-8.1.02-11.88.55-18.25,14.13-28.86,31.91-25.16,1.34.28,3.31-.24,4.36-1.12,11.94-10.05,26.93-9.3,37.17,2.55,3.3,3.81,5.46,8.66,7.88,13.17,1.24,2.3,1.9,4.92,3.2,8.41,11.81-12.84,24-13.75,36.4-2.03,5.43,5.13,10.21,10.65,7.24,19.01-6.16-.63-12.06-1.33-17.97-1.81-4-.32-5.61,1.6-4.41,5.46,1.02,3.29,2.57,6.42,4.31,10.65-3.69.27-6.7.71-9.71.68-44.47-.47-88.94-1.03-133.41-1.48-6.49-.07-12.97.37-19.46.42-1.33,0-2.67-.69-4-1.06.72-1.38,1.09-3.2,2.21-4.05,4.75-3.62,9.86-3.41,15.35-.33,9.28-16.14,21.84-21.96,38.91-11.41Z"/>
    <path class="cls-2" d="M734.16,335.69c1.62-2.74,2.51-4.49,3.63-6.08,1.75-2.49,2.2-4.56-.49-6.9-.91-.79-1.31-3.11-.88-4.36,5.58-16.19,22.6-24.48,38.73-18.65,3.94,1.42,7.4,4.19,11.58,6.63,6.79-5.52,15.23-8.52,24.82-7.21,12.47,1.71,22.17,11.93,23.41,24.43.53,5.37-3.81,10.86-9.27,10.91-19.13.18-38.26-.01-57.39.17-8.82.08-17.64.7-26.46,1.04-2.13.08-4.27.01-7.67.01Z"/>
    <path class="cls-2" d="M136.4,695.14c-6.6,2.37-13,3.81-20.21,1.42,4.93-6.61,16.5-7.27,20.21-1.42Z"/>
    <path class="cls-2" d="M62.72,653.78c8.36.92,16.72,1.83,25.07,2.75-.04.43-.08.86-.13,1.29-8.35-.91-16.7-1.82-25.05-2.73l.11-1.32Z"/>
    <path class="cls-2" d="M35.87,671.76c-3.31.22-6.62.44-9.93.66-.02-.53-.03-1.06-.05-1.59h9.96l.02.94Z"/>
    <path class="cls-1" d="M461.66,463.3v90.86c-.18,0-.35,0-.53,0v-90.92c.18.02.35.04.53.06Z"/>
    <path class="cls-1" d="M449.85,554.44v-47.53c.11,0,.22,0,.33.01v47.54c-.11,0-.22-.01-.33-.02Z"/>
    <path class="cls-1" d="M462.57,414.2v36.72c-.08,0-.16,0-.25,0v-36.72c.08,0,.16,0,.25,0Z"/>
    <path class="cls-1" d="M341.78,479.2v-68.86c.11,0,.22,0,.33,0v68.73c-.11.04-.22.08-.33.12Z"/>
    <path class="cls-1" d="M339.28,554v-27.79c.1,0,.21,0,.31,0v27.71c-.1.03-.21.05-.31.08Z"/>
    <path class="cls-1" d="M340.6,489.18v26.89c-.09,0-.19,0-.28,0v-26.86c.09,0,.19-.02.28-.03Z"/>
    <path class="cls-1" d="M343.49,367.25v19.87h-.09v-19.77s.06-.07.09-.1Z"/>
    <path class="cls-1" d="M520.97,470.18l-1.57,90.17c-.45,0-.9-.02-1.35-.03.72-30.05,1.44-60.1,2.17-90.16.25,0,.5.01.75.02Z"/>
    <path class="cls-1" d="M527.42,553.21v-36.24c.1,0,.2,0,.3,0,0,11.91,0,23.83,0,35.74,0,.05-.06.1-.3.5Z"/>
    <path class="cls-1" d="M661.08,443.15c-3.06-13.68-6.12-27.37-9.23-41.26,8.04,3.16,12.23,9.14,11.91,17.04-.25,6.14-.76,12.27-1.22,18.39-.15,1.97-.5,3.93-.76,5.9-.23-.03-.46-.05-.69-.08Z"/>
  </g>
</svg>