<?xml version="1.0" encoding="UTF-8"?>
<svg id="Layer_1" data-name="Layer 1" xmlns="http://www.w3.org/2000/svg" viewBox="0 0 826.55 759.38">
  <defs>
    <style>
      .cls-1 {
        fill: #000;
      }

      .cls-1, .cls-2 {
        stroke-width: 0px;
      }

      .cls-2 {
        fill: #fff;
      }
    </style>
  </defs>
  <path class="cls-2" d="M815.46,627.77c-4.81-1.43-10.04-1.47-15.61-2.2-.45-1.38-1.17-3.13-2.36-4.97-1.69-2.62-3.63-4.36-5.03-5.43-.6-3.12-1.17-6.91-1.45-11.23-.74-11.17,1.21-13.65.29-24.07-.66-7.54-1.86-8.32-.73-11.47,1.8-5,7.39-10.15,13.79-11.25,3.83-.66,6.38.4,7.84-1.42,1.46-1.83.75-5.18-.48-7.21-3.16-5.21-11.87-5.28-18.55-5.36,0,0-39.81-3.8-61.97-6.42-3.07-.36-6.69-2.4-8.58-4.81-3.2-4.08-4.59-8.38-5.02-11.29-5.01-34.26-12.24-83.82,11.55-96.92,7.08-3.9,18.69-5.42,41.89-8.45,3.35-.44,13.74-1.63,17.04-8.3,2.62-5.29,1.15-10.23-4.57-15.4-1.33-1.2-2.66-2.39-4.03-3.63.57-1.18,1.02-2.05,1.41-2.95,3.54-8.16,3.93-16.27-1.5-23.71-5.29-7.25-12.84-9.06-21.36-7.44-3.65.7-7.27,1.6-10.9,2.41-.45-.34-.91-.68-1.36-1.02.19-.9.56-2.54,1.21-4.52.7-2.14,6.29-19.34,18.57-22.21,2.12-.5,4.08-.71,5.94-.46,3.92.53,7.76,2.03,11.66,2.12,9.64.23,18.02-1.85,25.02-6.13,3.81-2.33,12.96-7.89,16.77-19.29,4.63-13.84-1.97-26.23-4.67-30.51-3.23-5.12-7.08-8.48-9.78-10.48,3.06-3.4,8.69-10.65,10.34-21.23.77-4.95.39-8.79.12-11.19-.56-5.11-2.64-17.21-12.27-27.75-1.19-1.3-6.67-7.15-16-11.43-14.61-6.7-28.48-4.88-34.58-3.67,2.19-4.51,5.19-12.22,5.24-22,.11-22.12-14.91-36.61-17.7-39.29-24.52-23.64-61.23-13.82-63.16-13.28-.61-6.83-2.96-22.47-14.49-37.45-2.67-3.47-10.94-13.53-25.33-20.62-5.51-2.72-10.47-4.28-14.11-5.21-1.51-12.26-8.88-22.72-19.3-26.9-11.17-4.48-22.45-.39-23.65.06-2.14.81-3.84,1.72-5.03,2.43-.73-1.31-1.86-3.2-3.47-5.32C561.65.47,533.66,0,532.39,0c-21.25-.04-35.7,11.89-39.6,15.34-3.61-3.66-15.15-14.39-31.77-14.67-1.22-.02-6.91-.05-14.15,2.27-14.55,4.65-23.26,15.12-27.04,20.39-9.44-1.92-26.27-3.99-46.04,1.13-16.71,4.33-28.32,11.83-33.11,15.41-10.53,7.88-17.23,15.71-21.53,21.05-6.6,8.2-11.15,15.92-14.2,21.84-6.71-.91-17.13-1.29-28.69,2.66-6.05,2.06-20.17,6.89-27.65,20.46-1.9,3.44-2.89,6.58-3.44,8.73-5.34-2.67-26.47-12.43-51.78-5.34-6.19,1.73-24.19,6.59-35.7,23.34-3.64,5.3-5.65,10.35-6.79,13.93-12.76-4.48-26.77-.42-34.52,9.75-6.52,8.57-7.73,20.3-3.25,30.52-2.62,1.71-6.75,3.87-12.01,4.25-7.17.52-9.88-2.76-14.76-1.5-6.2,1.6-11.61,9.45-10.99,16.28,1.09,12.02,20.53,17.45,25.71,16,.44-.12,2.15-.69,4.36-.4,1.76.23,3.37.96,5.02,2.07,4.04,2.74,13.65,6.84,21.44,7.69,5.69.62,6.05-.94,17.05-.54,2.97.11,5.41.31,7.03.47-2.8,2.12-6.72,5.65-10.06,10.99-5.07,8.12-6.02,16.01-6.22,20.01-3.43-.55-29.24-4.22-50.33,14.56-23,20.49-20.25,49.75-19.94,52.54-1.51-.61-17.47-6.7-31.97,2.85-10.64,7.01-13.6,17.9-14.24,20.57-1.14.31-17.55,5.07-21.96,20.01-.68,2.3-2.76,9.36.49,17.34,2.99,7.36,8.69,11.02,10.65,12.17.11,1.38.35,3.29.87,5.51.54,2.34,3.01,11.9,10.44,18.86,7.07,6.61,15.38,7.8,22.07,8.75,13.13,1.88,24.85-1.42,34.53-4.14,2.65-.75,4.82-1.45,6.27-1.95,1.31,1.39,3.22,3.36,5.61,5.61,2.28,2.14,11.95,11.21,21.06,15.97,4.1,2.14,15.19,7.09,32.82,5.12.01,3.06.02,6.17.03,9.36.06,30.83-.12,44.73-9.94,52-5.64,4.18-15.85,5.15-36.26,7.09-11.18,1.07-16.78,1.12-22.38,1.43-7.26.4-14.53.97-21.79.85-6.69-.11-12.34,3.95-13.87,10.96-.65,2.99-.16,5.82,1.3,8.16,0,0,0,0,0,0,.73,1.38,1.79,3.08,3.34,4.8,2.31,2.57,4.75,4.14,6.48,5.06-1.09.59-6.81,3.8-8.11,10.15-.64,3.12.05,5.73.41,7.03,1.36,4.96,4.56,7.96,6.01,9.17-3.65-1.59-7.71-.71-9.78,1.83-2.69,3.32-1.87,9.31,2.79,12.29-.06,0-.16.03-.28.04-7.29.7-11.01,5.4-11.82,12.68-.98,8.9,5.13,17.54,14.1,19.84,1.91.49,3.86.82,6.78,1.43-6.03,5.39-9.03,13.41-18.6,12.28-2.24-.27-4.66.33-6.92.87-6.47,1.53-11.65,4.81-14.4,11.2-4.41,10.23,1.38,22.07,13.16,25.42,5.52,1.57,11.47,1.69,17.25,2.27,2.82.28,4.45,1,4.74,4.35,1.03,12.05,7.68,20.77,17.52,27.1,14.48,9.32,30.33,8.66,46.4,5.64,1.77-.33,3.87-1.11,5.33-.5,5.2,2.15,10.25,4.7,15.21,7.37.92.49,1.49,2.16,1.7,3.37,1.5,8.96,7.04,14.92,14.44,19.38,15.05,9.09,31.51,11.02,47.61,5.13,12.33-4.51,24.42-5.47,37.08-4.93,4.32.19,8.67-.37,12.98-.17,1.75.08,3.8.88,5.12,2.03,7.3,6.36,15.45,9.32,25.27,8.25,10.15-1.1,17.7-6.34,24.23-13.57,2.46-2.72,4.93-4.06,8.71-2.42,17.25,7.44,35.35,6.13,53.19,3.79,7.01-.92,12.73-1.82,17.97,3.92,1.54,1.7,4.33,2.52,6.7,3.16,28.19,7.58,54.06,3.57,76.83-15.63,4.18-3.52,8.47-6.92,12.7-10.37-.07-.55.92.31,1.86,1.22,13.37,12.86,37.78,10.58,45.34-5.32.65-1.36,3.42-2.49,5.16-2.43,8.68.28,17.57-.06,24.75,6.43,1.38,1.25,3.63,1.61,5.54,2.17,19.68,5.74,38.26,2.98,55.64-7.65,3.18-1.95,5.22-2.08,8.17.45,6.09,5.23,13.52,7.76,21.41,8.86,18.01,2.51,34.57-1.21,48.91-12.55,4.83-3.82,9.44-5.07,15.51-4.35,6.22.74,12.71.64,18.91-.25,18.45-2.66,30.13-17.97,27.84-35.73-.91-7.07,4.2-12.94,11.33-13.22,10.99-.44,22-.61,32.94-1.65,10.68-1.02,18.72-6.7,23.35-16.53,3.82-8.12.06-17.16-8.54-19.71Z"/>
  <g>
    <path class="cls-1" d="M168.89,425.35c-.11,0-.22,0-.33,0v45.89c.11.02.22.03.33.05v-45.94Z"/>
    <path class="cls-1" d="M133.08,688.93c.04.21.26,1.25.9,1.43.76.22,1.81-.87,3-2.11.34-.35.54-.51.78-.86,3.89-5.63,8.57-8.96,13.71-9.86,7-1.23,13.37,2.68,15.63,4.17,6.11,4.06,8.83,9.73,10.16,9.04.81-.42.55-2.9-.08-4.71-2.68-7.73-15.48-12.92-26.34-10.8-10.47,2.04-18.38,10.7-17.76,13.7Z"/>
    <path class="cls-1" d="M306.63,424.09c.08.01.15.02.23.04v-44.96c-.08,0-.15,0-.23,0v44.93Z"/>
    <path class="cls-1" d="M474.65,444.4h.17v-36.83c-.06-.02-.11-.04-.17-.06v36.9Z"/>
    <path class="cls-1" d="M357.91,441.65c-.09,0-.18,0-.28,0v34.8c.09,0,.18,0,.28,0v-34.8Z"/>
    <path class="cls-1" d="M815.46,627.77c-4.81-1.43-10.04-1.47-15.61-2.2-.45-1.38-1.17-3.13-2.36-4.97-1.69-2.62-3.63-4.36-5.03-5.43-.6-3.12-1.17-6.91-1.45-11.23-.74-11.17,1.21-13.65.29-24.07-.66-7.54-1.86-8.32-.73-11.47,1.8-5,7.39-10.15,13.79-11.25,3.83-.66,6.38.4,7.84-1.42,1.46-1.83.75-5.18-.48-7.21-3.16-5.21-11.87-5.28-18.55-5.36,0,0-39.81-3.8-61.97-6.42-3.07-.36-6.69-2.4-8.58-4.81-3.2-4.08-4.59-8.38-5.02-11.29-5.01-34.26-12.24-83.82,11.55-96.92,7.08-3.9,18.69-5.42,41.89-8.45,3.35-.44,13.74-1.63,17.04-8.3,2.62-5.29,1.15-10.23-4.57-15.4-1.33-1.2-2.66-2.39-4.03-3.63.57-1.18,1.02-2.05,1.41-2.95,3.54-8.16,3.93-16.27-1.5-23.71-5.29-7.25-12.84-9.06-21.36-7.44-3.65.7-7.27,1.6-10.9,2.41-.45-.34-.91-.68-1.36-1.02.19-.9.56-2.54,1.21-4.52.7-2.14,6.29-19.34,18.57-22.21,2.12-.5,4.08-.71,5.94-.46,3.92.53,7.76,2.03,11.66,2.12,9.64.23,18.02-1.85,25.02-6.13,3.81-2.33,12.96-7.89,16.77-19.29,4.63-13.84-1.97-26.23-4.67-30.51-3.23-5.12-7.08-8.48-9.78-10.48,3.06-3.4,8.69-10.65,10.34-21.23.77-4.95.39-8.79.12-11.19-.56-5.11-2.64-17.21-12.27-27.75-1.19-1.3-6.67-7.15-16-11.43-14.61-6.7-28.48-4.88-34.58-3.67,2.19-4.51,5.19-12.22,5.24-22,.11-22.12-14.91-36.61-17.7-39.29-24.52-23.64-61.23-13.82-63.16-13.28-.61-6.83-2.96-22.47-14.49-37.45-2.67-3.47-10.94-13.53-25.33-20.62-5.51-2.72-10.47-4.28-14.11-5.21-1.51-12.26-8.88-22.72-19.3-26.9-11.17-4.48-22.45-.39-23.65.06-2.14.81-3.84,1.72-5.03,2.43-.73-1.31-1.86-3.2-3.47-5.32C561.65.47,533.66,0,532.39,0c-21.25-.04-35.7,11.89-39.6,15.34-3.61-3.66-15.15-14.39-31.77-14.67-1.22-.02-6.91-.05-14.15,2.27-14.55,4.65-23.26,15.12-27.04,20.39-9.44-1.92-26.27-3.99-46.04,1.13-16.71,4.33-28.32,11.83-33.11,15.41-10.53,7.88-17.23,15.71-21.53,21.05-6.6,8.2-11.15,15.92-14.2,21.84-6.71-.91-17.13-1.29-28.69,2.66-6.05,2.06-20.17,6.89-27.65,20.46-1.9,3.44-2.89,6.58-3.44,8.73-5.34-2.67-26.47-12.43-51.78-5.34-6.19,1.73-24.19,6.59-35.7,23.34-3.64,5.3-5.65,10.35-6.79,13.93-12.76-4.48-26.77-.42-34.52,9.75-6.52,8.57-7.73,20.3-3.25,30.52-2.62,1.71-6.75,3.87-12.01,4.25-7.17.52-9.88-2.76-14.76-1.5-6.2,1.6-11.61,9.45-10.99,16.28,1.09,12.02,20.53,17.45,25.71,16,.44-.12,2.15-.69,4.36-.4,1.76.23,3.37.96,5.02,2.07,4.04,2.74,13.65,6.84,21.44,7.69,5.69.62,6.05-.94,17.05-.54,2.97.11,5.41.31,7.03.47-2.8,2.12-6.72,5.65-10.06,10.99-5.07,8.12-6.02,16.01-6.22,20.01-3.43-.55-29.24-4.22-50.33,14.56-23,20.49-20.25,49.75-19.94,52.54-1.51-.61-17.47-6.7-31.97,2.85-10.64,7.01-13.6,17.9-14.24,20.57-1.14.31-17.55,5.07-21.96,20.01-.68,2.3-2.76,9.36.49,17.34,2.99,7.36,8.69,11.02,10.65,12.17.11,1.38.35,3.29.87,5.51.54,2.34,3.01,11.9,10.44,18.86,7.07,6.61,15.38,7.8,22.07,8.75,13.13,1.88,24.85-1.42,34.53-4.14,2.65-.75,4.82-1.45,6.27-1.95,1.31,1.39,3.22,3.36,5.61,5.61,2.28,2.14,11.95,11.21,21.06,15.97,4.1,2.14,15.19,7.09,32.82,5.12.01,3.06.02,6.17.03,9.36.06,30.83-.12,44.73-9.94,52-5.64,4.18-15.85,5.15-36.26,7.09-11.18,1.07-16.78,1.12-22.38,1.43-7.26.4-14.53.97-21.79.85-6.69-.11-12.34,3.95-13.87,10.96-.65,2.99-.16,5.82,1.3,8.16,0,0,0,0,0,0,.73,1.38,1.79,3.08,3.34,4.8,2.31,2.57,4.75,4.14,6.48,5.06-1.09.59-6.81,3.8-8.11,10.15-.64,3.12.05,5.73.41,7.03,1.36,4.96,4.56,7.96,6.01,9.17-3.65-1.59-7.71-.71-9.78,1.83-2.69,3.32-1.87,9.31,2.79,12.29-.06,0-.16.03-.28.04-7.29.7-11.01,5.4-11.82,12.68-.98,8.9,5.13,17.54,14.1,19.84,1.91.49,3.86.82,6.78,1.43-6.03,5.39-9.03,13.41-18.6,12.28-2.24-.27-4.66.33-6.92.87-6.47,1.53-11.65,4.81-14.4,11.2-4.41,10.23,1.38,22.07,13.16,25.42,5.52,1.57,11.47,1.69,17.25,2.27,2.82.28,4.45,1,4.74,4.35,1.03,12.05,7.68,20.77,17.52,27.1,14.48,9.32,30.33,8.66,46.4,5.64,1.77-.33,3.87-1.11,5.33-.5,5.2,2.15,10.25,4.7,15.21,7.37.92.49,1.49,2.16,1.7,3.37,1.5,8.96,7.04,14.92,14.44,19.38,15.05,9.09,31.51,11.02,47.61,5.13,12.33-4.51,24.42-5.47,37.08-4.93,4.32.19,8.67-.37,12.98-.17,1.75.08,3.8.88,5.12,2.03,7.3,6.36,15.45,9.32,25.27,8.25,10.15-1.1,17.7-6.34,24.23-13.57,2.46-2.72,4.93-4.06,8.71-2.42,17.25,7.44,35.35,6.13,53.19,3.79,7.01-.92,12.73-1.82,17.97,3.92,1.54,1.7,4.33,2.52,6.7,3.16,28.19,7.58,54.06,3.57,76.83-15.63,4.18-3.52,8.47-6.92,12.7-10.37-.07-.55.92.31,1.86,1.22,13.37,12.86,37.78,10.58,45.34-5.32.65-1.36,3.42-2.49,5.16-2.43,8.68.28,17.57-.06,24.75,6.43,1.38,1.25,3.63,1.61,5.54,2.17,19.68,5.74,38.26,2.98,55.64-7.65,3.18-1.95,5.22-2.08,8.17.45,6.09,5.23,13.52,7.76,21.41,8.86,18.01,2.51,34.57-1.21,48.91-12.55,4.83-3.82,9.44-5.07,15.51-4.35,6.22.74,12.71.64,18.91-.25,18.45-2.66,30.13-17.97,27.84-35.73-.91-7.07,4.2-12.94,11.33-13.22,10.99-.44,22-.61,32.94-1.65,10.68-1.02,18.72-6.7,23.35-16.53,3.82-8.12.06-17.16-8.54-19.71ZM743.44,320.13c3.06-7.2,2.56-14.04-.73-16.44-1.35-.99-3.74-1.85-5.74-1.86-1.79-.01-3.59.22-5.38.38-10.22.87-16.72-4.53-21.38-12.83-2.01-3.58-4.37-6.42-8.44-7.94-4.57-1.71-8.9-.55-12.55,1.43-5.11,2.77-10.51,4.21-16.02,4.74-3.52.34-7.42-.77-10.81-2.1-12.21-4.79-24.22-10.1-36.42-14.92-6.87-2.71-14.05-4.61-20.92-7.3-5.74-2.24-11.9-4.73-12.85-11.89-.67-4.97.59-9.18,1.28-10.72,5.85-13.15,25.14-14.92,26.83-15.05,1.15-1.32,2.92-3.19,5.31-5.15,2.77-2.26,17.4-14.23,36.17-10.13,20.07,4.38,28.05,23.45,28.69,25.07,1.29-2.65,8.44-16.7,24.72-21.64,2.45-.75,18.41-5.59,31.16,3.79,1.06.78,5.81,4.39,9.1,11.1,7.01,14.28.73,28.9-.44,31.52,2.8,1.04,11.69,4.76,17.31,14.43,1.46,2.5,5.62,9.91,4.22,19.76-1.12,7.87-5.22,13.19-7.33,15.54-9.6,10.67-23.58,10.3-25.75,10.21ZM795.11,201.62c8.33,5.84,11.99,13.38,13.38,16.35.36.76,8.76,19.44-.24,38.13-1.69,3.52-3.58,6.15-4.91,7.83,1.9,1.61,4.35,3.97,6.65,7.24,1.41,2.01,13.05,19.11,5.23,34.25-5.53,10.7-17.47,14.01-20.29,14.79-6.71,1.86-13.94,1.5-16.69,1.36-3.62-.18-6.64-.65-8.79-1.06,2.08-1.24,4.94-3.19,7.84-6.11,0,0,6.92-6.98,9.56-15.75,3.51-11.65-4.2-29.24-20.92-41.78,2.19-3.85,3.07-7.24,3.47-9.45,0,0,1.77-10-3.53-20.98-1.61-3.34-3.28-5.48-5.37-8.06-3.15-3.88-8.11-8.95-15.59-13.45,2.6-2.35,6.97-5.72,13.14-7.97.97-.36,20.34-7.05,37.04,4.65ZM718.32,119.76c15.26,4.48,35.66,17.85,38.28,40.6,2.55,22.16-13.56,38.05-15.78,40.17-2.83-1.72-6.7-4.59-9.89-9.27-.69-1.02-1.09-1.59-1.46-2.24-.31-.55-.49-.97-.53-1.04-.31-.66-3.88-7.59-12.05-11.43-1.87-.88-4.96-2.06-9.05-2.41.09-.72.51-4.81-2.41-8.36-3.35-4.07-8.29-4.03-8.89-4.01,1.54-1.39,3.72-3.75,4.94-7.21,3.89-10.97-5.77-21.58-6.59-22.44-6.58-6.94-15.07-8.14-18-8.42,4.76-2.3,21.65-9.74,41.43-3.93ZM584.13,32.06c1.21-.62,13.09-6.42,25.33-.15,9.07,4.64,14.84,14.12,15.01,24.56,6.27,1.44,20.74,5.66,33.27,18.6,3.9,4.02,15.13,15.94,17.49,34.24.57,4.41.49,8.15.3,10.81-1.86-3.37-4.59-7.38-8.57-11.22-10.96-10.57-24.13-12.84-29.63-13.45-.05-2.25-.53-13.28-9.51-22.02-7.72-7.52-16.85-8.59-19.48-8.8-5.01-7.65-9.14-10.53-12.12-11.68-2.39-.92-3.65-1.93-6.42-3.52-2.72-1.56-4.51-3.63-4.31-7.12.13-2.28-.83-2.87-1.19-4.43-.3-1.34-.54-3.29-.18-5.82ZM266.31,93.67c18.63-12.44,39.29-6.55,42.36-5.62,2.2-5.95,14.55-37.44,49.32-53.02,30.19-13.53,57.67-6.27,64.89-4.11.44-.95,1.1-2.28,2.03-3.78,7.06-11.4,22.63-21.58,40.04-19.58,16.08,1.84,25.59,13.13,27.7,15.78,7.35-7.23,14.6-10.66,19.32-12.38,20.75-7.56,47.69-2.05,61.03,15.51,3.98,5.24,5.97,10.52,7.02,14.23-2.41-2.22-9.53-8.17-20.29-9.15-2.36-.21-17.4-1.32-27.46,10.32-7.3,8.45-7.47,18.38-7.41,21.25-.31-.14-6.84-2.93-12.67,1.17-3.94,2.77-5.98,7.59-5.27,12.42-4.83.31-17.69,1.76-26.87,11.02-2.66,2.68-5.71,5.75-7.77,10.78-2.26,5.52-1.7,9.42-5.07,13.32-2.26,2.61-5.1,3.85-7.01,4.47-2.88-4.66-8.24-11.88-17.21-17.3-18.66-11.27-46.92-11.15-65.02,6-16.18,15.33-16.15,36.52-16.06,40.6-4.64.01-16.06.69-27.07,8.48-6.24,4.42-10.11,9.54-12.34,13.09-5.98-7.32-10.77-9.87-14.13-10.8-1.27-.35-3.27-.73-5.21-2.4-2.54-2.17-2.18-4.15-4.79-6.9-.48-.51-2.5-2.56-5.68-3.63-4.36-1.47-8.31-.2-9.86.39-.22-3.79-1.14-6.81-2.15-9.11-7.24-16.48-29.57-19.14-31.93-19.39,1.9-4.56,6.79-14.41,17.58-21.62ZM139.45,225.15c-2.18.52-6.06,1.32-10.53.12-3.22-.86-6.16-2.61-8.9-5.2-4.59-4.34-9.75-5.92-16.05-5.59-6.04.32-12.29,1.58-18.09-1.87-4.55-2.7-7.1-9.59-4.28-14.82.33-.62,1.64-4.2,5.02-5.56,3.17-1.27,4.75.71,10.99,1.5,2.47.31,7.71.92,13.2-1.25,2.62-1.04,4.57-2.43,5.83-3.47-.3-.7-.71-1.72-1.12-2.97-1.15-3.46-4.11-12.36-1.38-20.37,3.23-9.5,13.26-15.4,22.22-16.64,7.52-1.04,13.57,1.3,16.35,2.6,2.3-4.9,10.64-21.05,29.78-30.1,19.24-9.11,37.08-5.16,43.08-3.74,7.1,1.68,12.71,4.23,16.57,6.3,2.2-.46,12.68-2.41,23.05,4.06,11.15,6.96,13.69,18.36,14.1,20.33,3.04-.97,7.42-1.8,11.62-.04,4.73,1.99,3.98,5.06,9.3,9.44,6.77,5.58,11.85,3.78,18.87,10.54,1.52,1.46,2.61,2.82,3.28,3.73,2.52-4.68,5.3-7.89,7.25-9.87,9.57-9.71,21.36-12.2,26.54-13.23,3.67-.73,6.75-.96,8.74-1.05-.46-4.17-.64-10.61,1.49-17.9,4.93-16.83,19.76-29.76,35.99-33.76,20.63-5.08,43.43,4.29,56.52,23.66,5.07-2.08,11.02-5.59,12.8-11.61.29-.98.34-1.58.44-2.26,1.4-9.03,11.07-20.01,23.51-24.36,2.86-1,7.51-2.23,13.6-2.05.07-.63.94-7.84,7.45-11.34,5.12-2.75,10.14-1.28,11.11-.97-.15-2.73-.28-11.75,6.04-19.49,9.02-11.06,23.42-10.01,25.94-9.83.9.07,9.42.78,15.73,5.74,1.04.82,2.96,2.35,4.63,5.02,1.48,2.37,2.12,4.6,2.43,6.09,1.94-.29,4.6-.39,7.53.45,9.01,2.57,12.6,11.68,13.11,13.02,2.51.66,23.43,6.48,28.04,23.21.62,2.23,1.04,5.02.83,8.35,4.95.56,15.37,2.35,24.38,9.08,2.71,2.02,6.56,5.06,9.22,10.53,1.82,3.73,2.37,7.18,2.55,9.43,1.58-.13,3.82-.16,6.43.31,1.12.21,12.81,2.54,17.89,13.02.55,1.14,4.9,10.11.65,15.88-1.01,1.38-2.25,2.21-3.16,2.7-1.61-2.92-4.41-7.15-9.02-11.03,0,0-8.63-7.26-21.99-9.12-25.13-3.49-47.37,19.77-48.94,21.46-6.09-3.4-10.8-5.37-11.79-5.49-.53-.07-1.07-.1-1.07-.1-.67-.05-1.21-.05-1.65-.04-8.89.02-12.77,4.78-19.73,5.8-2.61.38-6.4.35-11.29-1.7-.56-3.98-2.22-11.89-8.06-19.73-7.68-10.3-17.82-13.95-21.31-15.16-19.31-6.67-41.79.38-55.44,14.46-7.52,7.76-10.94,16.2-12.49,20.98-1.84-.55-11.7-3.27-21.32,2.32-8.5,4.93-13.59,14.45-13.37,24.74-1.19.55-4.35,2.21-6.53,5.93-2.04,3.48-2.07,6.81-2.01,8.14-.69.21-1.76.54-3.08.89-20.24,5.41-28.3-.05-50.57-.05-19.97,0-24.13,3.59-40.91.14-6.43-1.32-11.59-3.09-15.03-4.43-1.54-4.02-5.22-11.7-13.33-17.13-11.54-7.72-28.19-8.29-37.56-.78-3.21,2.57-5.47,5.17-6.79,6.91-6.26,8.27-6.36,15.44-8.38,20.52-2.53,6.37-9.77,13.72-30.46,18.09-8.22-3.38-15.03-4.72-19.42-5.33-19.79-2.76-47.54,1.22-59.04,3.97ZM488.6,236.07c.52,4.18-.9,6.09-5.03,7.11-55.95,13.76-111.8,27.97-167.8,41.56-55.34,13.43-110.82,26.28-166.24,39.37-2.11.5-4.26,1.34-6.35,1.22-2.08-.12-4.11-1.26-7.31-2.34,118.62-29.23,235.54-58.04,352.72-86.92ZM190.45,307.07c6.65-2.32,13.28-4.66,19.94-6.94,26.1-8.92,50.4-21.46,73.58-36.32,2.45-1.57,5.83-2.38,8.78-2.38,19.31.01,38.65,1.08,57.92.32,13.54-.54,27-3.42,40.49-5.26,1.59-.22,3.18-.49,4.77-.74.07.35.14.7.21,1.04-68.45,17.17-136.89,34.34-205.34,51.51-.12-.41-.24-.83-.37-1.24ZM474.03,229.32c-8.05-1.09-16.19-1.53-24.28-2.34-1.61-.16-3.17-.83-4.75-1.26.12-.66.24-1.31.37-1.97,3.71.27,7.43.43,11.13.83,9.56,1.04,19.12,2.2,28.68,3.29,3.02.34,4.75,1.47,3.26,5.01-2.37.4-4.79.82-7.21,1.23.15-.44.3-.88.45-1.31-2.54-1.21-4.98-3.12-7.64-3.48ZM246.23,653.51c-17.31-.21-34.62-.23-51.91-.77-9.43-.3-18.89-1.09-28.23-2.41-10.31-1.46-20.17-.69-29.95,2.87-2.55.93-5.47,1.14-8.23,1.16-4.6.04-6.68-2.29-5.2-8.12,7.8,0,15.43.07,23.06-.01,35.43-.38,70.87-.82,106.3-1.2,7.16-.08,7.81.8,6.45,8.49-4.05,0-8.17.04-12.29,0ZM257.1,656.66c-3.5,4.71-6.77,6.61-11.51,6.9-7.42.45-14.77,1.95-22.19,2.44-7.66.51-15.38.55-23.06.37-3.95-.09-8.18-.41-11.72-1.93-3.63-1.56-6.57-4.73-10.59-7.78h79.07ZM127.9,658.25c.21.59.42,1.18.64,1.77-2.13.67-4.35,2.11-6.37,1.87-6.16-.74-12.25-2.12-18.38-3.64h24.12ZM81.85,653.54c-1.99-.08-3.85-3.42-6.73-6.18h44.21c-.19,2.09-.36,3.87-.6,6.42-12.45,0-24.68.25-36.88-.25ZM141.75,604.57c-6.31.23-12.63.25-18.95.15-5.36-.09-5.64-.59-4.75-7.98,9.54,0,18.98.06,28.42-.03,4.32-.04,8.64-.4,12.96-.52,6.13-.17,6.37.15,5.46,7.14-7.63.42-15.38.96-23.14,1.24ZM142.06,606.51c-.19,3.27-.32,5.51-.49,8.42h-38.59c-1.86-5.27-1.45-6.05,4.05-6.39,11.39-.69,22.78-1.32,35.03-2.03ZM256.67,559.83c21-1.54,41.98-3.3,62.97-4.93,1.96-.15,3.94-.02,6.24-.02.59,7.68.59,7.71-6.35,8.27-17.26,1.39-34.53,2.79-51.8,4.08-1.58.12-3.22-.54-5.51-.96-.53.22-2.1,1.39-3.73,1.48-8.3.48-16.63.48-24.92,1.02-14.54.95-29.06,2.18-43.58,3.25-1.64.12-3.29.02-4.87.02-1.85-6.27-1.3-7.21,4.85-7.64,22.23-1.55,44.48-2.95,66.71-4.58ZM209.46,560.98v-8.17c19.43-1.61,38.76-3.22,58.36-4.85,1.52,8,1.14,8.65-5.8,9.17-10.94.82-21.88,1.5-33.16,2.26-.29-2.05-.51-3.62-.83-5.89-3.28,11.02-12.1,4.39-18.56,7.48ZM485.43,552.05c-24.08,1.58-48.15,3.33-72.23,4.99-1.77.12-3.56.02-5.55.02v-9.39c11.38-.79,22.46-1.61,33.55-2.3,14.62-.91,29.25-1.66,43.86-2.62,3.44-.23,5.1.49,5.31,4.43.21,4.04-1.56,4.66-4.93,4.88ZM487.41,565.64c-6.55.42-13.15.11-20.18.11-.15-3.27-.29-6.22-.45-9.83,7.07-.35,13.8-.86,20.53-.84,1.02,0,2.89,2.5,2.88,3.82-.04,2.42,1.55,6.46-2.77,6.73ZM459.15,566.73c-7.75.35-15.5.7-23.14,1.04-1.74-8.68-1.1-9.51,6.89-10.04,7.27-.48,14.54-1.03,22.29-1.59.18,1.65.35,2.62.38,3.59.19,6.59.07,6.7-6.42,6.99ZM489.18,539.72c-3.28.33-6.67.76-10.09.99-28,1.87-56.01,3.64-84.01,5.55-14.62,1-29.23,2.16-43.82,3.42-3.58.31-5.78-.64-5.04-4.44.28-1.45,2.04-3.6,3.28-3.71,13.27-1.19,26.56-2.08,39.86-2.91,1.08-.07,2.22.94,3.03,1.31,2.19-.78,4.07-1.92,6.03-2.07,27.89-2.2,55.78-4.28,83.68-6.38,7.62-.57,7.65-.53,7.08,8.24ZM353.79,552.14c15.57-1.25,31.16-2.39,46.75-3.48,2.34-.16,5.6-1.72,5.83,2.91.19,3.85-.51,6.05-5.23,6.3-22.4,1.22-44.79,2.82-67.18,4.27q-6.97.45-6.65-7.52c8.98-.85,17.72-1.79,26.48-2.49ZM340.52,550.86c-17.43,1.27-34.85,2.68-52.28,4.03-5.93.46-11.85.9-18.12,1.38-.28-8.07-.3-8.3,6.83-8.91,21.06-1.82,42.14-3.44,63.21-5.16,2.72-.22,4.96-.15,5.25,3.5.3,3.76-1.46,4.9-4.89,5.15ZM215.53,611.3c-.26-6.6.35-7.48,6.66-7.57,9.78-.14,19.57-.04,29.68-.04v7.61h-36.34ZM220.87,615.48v6.96h-31.43v-6.96h31.43ZM199.09,595.64c-.46,2.01-.92,4.01-1.54,6.71h-30.36v-6.44c24.06-.89,47.85-1.77,71.59-2.65.71,5.94-1.41,7.84-6.58,7.78-8.47-.1-16.95.27-25.4.82-4.56.29-7.71-.19-5.84-6.77-.62.19-1.24.38-1.86.57ZM240.63,599.95c-1.49-5.99-.86-6.94,5.32-7.25,9.25-.48,18.5-.96,27.7-1.43,1.23,8,.88,8.56-6.49,8.66-8.8.12-17.6.03-26.54.03ZM175.42,593.24c-.52-2.62-.9-4.54-1.38-6.96,9.51-.8,18.56-1.74,27.64-2.28,24.77-1.47,49.55-2.78,74.33-4.12,7.15-.39,7.43-.05,7.27,8.77-35.72,1.52-71.52,3.04-107.86,4.59ZM254.69,578.85c-12.44.68-24.88,1.32-37.33,1.95-1.61.08-3.23.01-5.04.01v-7.42c26.94-1.7,53.57-3.39,80.04-5.06,2.29,7.66,1.93,8.22-5.32,8.66-10.78.65-21.57,1.27-32.36,1.86ZM199.88,561.38c-15.59,1.03-31.19,2.07-46.78,3.09-1.45.09-2.91.01-4.44.01-1.06-4.35-.09-6.72,4.45-7.04,17.57-1.25,35.13-2.62,52.69-3.94q1.1,7.42-5.92,7.88ZM162.35,566.14c6.27-.49,12.57-.74,19.47-1.13.22,2.41.42,4.62.69,7.65-14.31.99-28.27,1.97-42.31,2.94-1.55-5.44.4-7.39,4.82-7.74,5.79-.46,11.55-1.27,17.34-1.72ZM143.54,577.87c20.73-1.23,41.44-2.78,62.16-4.19,1.62-.11,3.26-.01,4.86-.01.59,6.97.27,7.47-6.1,7.87-21.55,1.37-43.11,2.68-64.67,4-.97.06-1.94,0-3.18,0,0-5.34,2.08-7.39,6.93-7.68ZM168.36,586.24c3.2-.17,5.42.65,4.85,4.33-.15.97-1.38,2.49-2.18,2.54-13.6.77-27.21,1.34-41.04,1.96-.42-5.43,1.31-7.29,5.92-7.38,10.82-.21,21.64-.88,32.45-1.45ZM213.01,603.87c.82,8,.59,8.4-6.5,8.67-19.14.74-38.28,1.38-57.42,2.05-1.47.05-2.94,0-4.87,0-.21-2.55-.39-4.78-.64-7.79,23.45-.99,46.46-1.96,69.43-2.93ZM161.86,616.44c8.28-.22,16.56-.13,25.12-.13v6.51c-8.46,0-16.74.11-25.01-.16-.95-.03-2.35-2.13-2.56-3.43-.13-.83,1.54-2.77,2.44-2.79ZM212.77,625.65c.85,5.81.45,6.49-5.05,6.56-22.63.29-45.26.5-67.9.71-1.13.01-2.27-.22-3.65-.37-.2-2.12-.38-4.09-.65-6.91h77.24ZM172.56,634.73c20.79.06,41.58.07,62.38.11.29,0,.58.26,1.26.57v6.99c-1.76.16-3.38.44-5,.45-19.3.1-38.6.11-57.89.3-3.36.03-4.28-1.33-4.36-4.41-.07-2.74.77-4.01,3.61-4ZM238.36,642.39c-.15-2.6-.29-5.02-.49-8.49,8.32,0,16.28-.36,24.15.34,1.38.12,2.37,4.67,4,8.15h-27.66ZM218.94,632.16c-3.11.04-5.53-.52-4.63-4.28.28-1.18,1.89-2.91,2.91-2.91,19.91-.17,39.81-.13,60.24-.13v6.08c-1.26.25-2.45.68-3.65.69-18.29.21-36.57.33-54.86.56ZM227.56,622.09c-2.74.04-5.29.51-5.3-3.76-.02-3.75,1.7-4.36,4.86-4.42,21.65-.41,43.3-.94,64.95-1.42.82-.02,1.64.12,3.15.24.14,2.81.27,5.24.41,8.14-2.06.13-3.84.31-5.62.33-20.82.3-41.64.57-62.45.88ZM257.27,611.06c-1.29.02-3.72-1.67-3.68-2.46.09-1.88,1.28-3.75,2.22-5.52.19-.36,1.23-.37,1.89-.39,16.21-.55,32.43-1.08,49.73-1.65-.32,3.33-.57,5.99-.83,8.72-16.79.48-33.05,1.01-49.33,1.3ZM276.1,599.58v-8.53c14.26-.63,28.43-1.25,42.94-1.88v8.63c-14.21.59-28.38,1.17-42.94,1.78ZM303.67,587.35c-4.15.2-8.29.41-12.44.58-7.18.29-7.8-.48-6.31-8.64,13.87-.66,27.89-1.32,42.16-2,.57,2.97,1.06,5.51,1.7,8.84-8.36.41-16.74.82-25.11,1.23ZM296.1,575.93c-2.42-7.97-2.23-8.35,5.34-8.92,17.75-1.33,35.5-2.58,53.25-3.84,1.3-.09,2.62-.01,3.87-.01,2.68,8.71,1.66,10.34-6.9,10.69-18.43.75-36.87,1.39-55.56,2.08ZM385.07,573.55c-4.03,4.83-7.78,9.29-11.49,13.78-2.44,2.94-9.82,4.05-12.66,1.54-3.56-3.15-5.59-7.19-5.83-13.16,10.23-.73,20.16-1.45,29.98-2.15ZM366.87,571.74c-3.47.18-5.64-.46-5.9-4.62-.26-4.23,2.21-4.53,5.25-4.7,21.56-1.24,43.12-2.5,64.69-3.73.8-.05,1.62.13,2.84.24v8.92c-9.26.69-18.18,1.49-27.12,1.98-13.25.73-26.51,1.21-39.76,1.9ZM489.33,567.99c.47.68.79.93.82,1.2.92,10.51.91,10.47-9.6,11.04-7.47.4-14.93,1.14-22.4,1.32-5.09.12-10.2-.44-15.29-.79-3.14-.22-6.44-1.39-9.38-.78-8.57,1.79-14.02-2.63-20.04-9.38,26.09-.9,51.12-1.75,75.89-2.6ZM489.2,528.24c-1.05.58-1.99.7-3.15.79-45.37,3.31-90.75,6.41-136.1,9.94-45.02,3.5-90,7.41-135,11.14-19.09,1.58-38.18,3.19-57.27,4.75-1.77.14-3.57.02-5.39.02-.27-5.44,2.32-7.32,7.41-7.7,30.56-2.31,61.11-4.8,91.65-7.35,32.7-2.73,65.39-5.72,98.1-8.37,44.5-3.61,89.01-7.02,133.52-10.45,2.98-.23,6.13-1.12,8.3,2.61.69,1.18,3.66,1.16,5.62,1.44,7.4,1.07,14.82,2.04,22.23,3.04.16.93.31,1.86.47,2.78-11.85-1.98-20.58-3.28-22.6-3.47-.93-.09-1.64-.05-3.16-.29-1.26-.19-1.65-.35-2.35-.2-1,.22-1.27.76-2.28,1.33ZM174.21,404.15c.57,0,1.15,0,1.72-.01v139.32c-3.04-46.4.19-92.88-1.72-139.31ZM226.41,340.51c.18-3.09.47-7.95.76-12.81.47-.07.93-.14,1.4-.21.39,1.36,1.08,2.72,1.12,4.09.12,4.48.17,8.99-.13,13.46-.09,1.27-1.26,3.23-2.31,3.53-5.72,1.63-11.56,2.84-17.92,4.33v-17.25c.4.02.81.04,1.21.06v12.43c5.48-2.63,10.13-4.86,15.88-7.62ZM209.67,357.48c.11-1.11,1.55-2.71,2.64-2.98,14.47-3.53,28.98-6.86,44.89-10.57-.96,7.89-1.69,14.99-2.82,22.02-.17,1.09-2.07,2.31-3.39,2.71-4.13,1.25-8.43,1.93-12.55,3.21-3.97,1.23-6.35.22-7.14-4.44-7.39,1.91-14.56,3.76-22.54,5.82.28-5.64.39-10.72.91-15.77ZM249.15,322.9c3.61,2.44,4.32,7.81,3.12,19.85-7.09,1.77-14.38,3.58-22.08,5.5.45-6.53.85-12.44,1.26-18.35.41-.04.82-.08,1.23-.12.47,3.57.94,7.15,1.36,10.37,12.94,1.34,15.22-6.96,15.11-17.26ZM270.44,321.22l1.72,1.37v9.9c5.09-4.47-1.89-12.49,7.6-15.51,0,6.8.13,12.57-.13,18.31-.04.95-1.69,2.37-2.82,2.64-7.57,1.83-15.21,3.41-23.78,5.27.33-7.21.61-13.52.9-19.83l1.9-.13c.59,4.11,1.17,8.21,1.75,12.29,7.77-1.08,14.89-2.74,12.86-14.32ZM296.18,314.62c.17-1.01,1.45-1.83,2.22-2.74.71.96,1.91,1.87,2.03,2.91.3,2.46.1,4.98.33,7.48l.64-10.29c.79-.05,1.57-.1,2.36-.15.61,4.69,1.21,9.37,1.92,14.81,1.66-.9,3.32-1.74,4.92-2.67,2.75-1.6,5.59-3.1,8.16-4.97,1.15-.84,2.14-2.36,2.49-3.75.6-2.4.44-4.99,1.03-7.4.28-1.16,1.56-2.07,2.38-3.09.73,1.07,2.06,2.13,2.1,3.23.21,5.96.1,11.93.1,18.65-15.2,3.19-29.96,6.28-44.77,9.39v-6.35c3.12-.75,6.24-1.73,9.42-2.19,3.06-.45,4.3-1.82,4.18-4.91-.1-2.65.06-5.35.5-7.96ZM343.25,306.62c-.07-4.44,1.54-7.05,7.05-6.18.21,4.28.43,8.69.69,13.83,3.82-1.25,8.28-1.44,10.35-3.76,2.06-2.31,1.72-6.76,3-10.39.27,2.97.54,5.94.93,10.23,2.47-6.14.58-12.2,4.06-16.57.69.14,1.37.28,2.06.41,0,6.27.11,12.54-.11,18.8-.04,1.08-1.31,2.83-2.3,3.07-13.38,3.31-26.81,6.41-41,9.75.37-7.11.72-13.78,1.06-20.45l1.52-.02c.21,4.36.41,8.73.65,13.79,2.99-.68,5.85-.87,8.23-2.04,1.55-.76,2.85-2.79,3.46-4.53.63-1.81.38-3.95.35-5.95ZM376.69,308.79c1.35-.76,1.83-1.22,2.37-1.3,7.96-1.15,14.26-3.8,12.88-13.75-.08-.57.75-1.26,1.92-3.1.44,3.49.72,5.68.95,7.57.9-3.25,1.89-6.8,2.87-10.35.85.09,1.69.19,2.54.28,0,6.47.06,12.94-.09,19.41-.01.61-1.26,1.54-2.08,1.73-8.04,1.92-16.1,3.72-24.47,5.62-2.27-11.35-1.09-18.4,3.41-19.74-.1,2.26-.23,4.37-.28,6.48-.05,2.1-.01,4.21-.01,7.14ZM430.32,304.51c0,5.36-.1,10.13.04,14.89.07,2.3.6,4.59.93,6.89.35,2.43-.18,4.08-3.01,4.72-6.65,1.48-13.21,3.32-19.85,4.85-6.87,1.58-6.89,1.5-7.72-5.89-10.58,2-21.14,4-32.24,6.1-.32-5.38-.74-10.3-.8-15.22-.01-.91,1.24-2.47,2.15-2.68,20.04-4.61,40.11-9.08,60.49-13.64ZM436.52,294.61c6.45-1.1,8.87-4.71,8.58-10.9-.08-1.62.18-3.43.89-4.85.72-1.43,2.19-2.49,3.32-3.71.41.17.82.33,1.23.5v22.2c-15.46,3.44-31.41,6.98-47.8,10.62v-5.18c3.93-2.07,7.11-3.74,10.31-5.43,2.35.12,5.22.27,8.54.44.16-2.51.33-4.45.4-6.39q.27-8.49,8.86-9.94v16.12c1.45-.93,3.41-3.1,5.67-3.49ZM485.21,292.5c0,4.97.01,9.51,0,14.04-.05,14.46,2.42,12.13-12.29,15.57-3.4.79-6.77,1.74-10.19,2.48-7.18,1.54-8.34.68-9.12-6.93-6.97,1.64-13.89,3.28-21.49,5.07,0-5.75-.11-11.03.11-16.31.04-.9,1.36-2.31,2.3-2.53,16.37-3.77,32.77-7.4,50.68-11.39ZM453.75,297.14v-21.11c.6-.06,1.2-.11,1.79-.17.3,4.62.6,9.24.92,14.27,5.56-1.5,10.87-2.78,16.04-4.46,1-.33,1.95-2.11,2.16-3.35.49-2.94.49-5.96.75-8.94.29-3.32,1.91-5.2,6.78-4.8,0,6.66.09,13.42-.11,20.17-.03.91-1.36,2.35-2.32,2.58-8.55,2.03-17.14,3.85-26.03,5.8ZM484.71,515.81c-.15,1.1-1.05,2.09-1.61,3.14-.62-1.13-1.57-2.2-1.79-3.4-.32-1.78-.14-3.65-.14-5.48.02-31.3.05-62.61.07-93.91-.3,11.98-.69,23.95-.88,35.92-.32,20.82-.6,41.64-.7,62.46-.02,4.15-1.3,5.98-5.96,4.81v-62.91c-.39,14.1-.93,33.28-1.47,52.47-.05,1.83-.12,3.66-.25,5.49-.44,6.11-.76,6.34-7.77,5.71,0-1.91-.07-3.87.01-5.81,2.42-55.41,4.94-110.82,7.14-166.24.24-6.14,4.05-4.67,7.38-5.06,4.09-.48,3.63,2.49,3.59,4.92-.36,22.81-.78,45.62-1.18,68.43.25-1.8.68-3.6.71-5.41.38-21.3.67-42.61,1.09-63.91.03-1.79.75-3.57,1.15-5.36.62.09,1.23.18,1.85.27.14,1.35.41,2.71.4,4.06-.46,54.45-.95,108.9-1.44,163.34-.02,2.16.09,4.35-.2,6.48ZM484.07,265.91c2.36,6.47,2.38,21.46-.55,25.27-.31-9.33-1.32-17.3.55-25.27ZM438.02,520.9c-.56,0-1.12-.02-1.67-.03-.54-48.47-1.08-96.93-1.62-145.4.33,0,.67,0,1-.01.77,48.48,1.53,96.96,2.3,145.44ZM428.29,439.44c-.42,25.99-.98,51.98-1.15,77.97-.03,5.15-1.68,7.04-7.09,6.09.81-36.92,1.62-73.96,2.44-110.99-.2,0-.39,0-.59-.01-1.04,36.94-2.08,73.89-3.13,111.15-2.98.37-5.22.65-8.11,1.01,0-1.98-.06-3.56,0-5.13,2.2-48.59,4.41-97.18,6.63-145.76.3-6.49.78-12.97.95-19.46.1-3.57.97-5.38,5.06-4.2,1.55.45,3.42-.24,5.78-.47v74.86c.49,0,.99,0,1.48,0v-72.74c.3,0,.61,0,.91,0v170.9c-.55,0-1.11.02-1.66.02v-83.23h-1.53ZM373.71,526.17c-.63,0-1.27,0-1.9,0v-136.06c.64,45.35,1.27,90.7,1.9,136.05ZM355.16,523.55c-.15,3.84-.98,6.61-6.26,5.43.52-11.25,1.03-22.53,1.57-33.8,1.81-37.6,3.61-75.2,5.46-112.79.27-5.49.8-10.96,1.21-16.44.05-.66-.14-1.71.2-1.93,1.84-1.18,3.81-2.15,5.73-3.2.6,1.53,1.71,3.06,1.72,4.59.19,27.48.53,54.97.25,82.45-.26,25.31-1.28,50.62-1.78,75.93-.09,4.54-1.71,6.1-6.53,4.75v-40.82c-.47,10.48-1.09,23.15-1.58,35.83ZM366.17,365.53c.01-1.87.87-3.73,1.83-5.25,0,28.05-.06,56.09.02,84.14.08,27.79.53,55.58-.23,83.35-.79-.03-1.57-.06-2.36-.09-.13-1.11-.37-2.21-.37-3.32.33-52.95.68-105.89,1.1-158.84ZM366.45,318.7c0,5.28-.27,9.41.1,13.47.23,2.51-2.45,5.7,1.38,7.56-.97,1.48-1.7,3.99-2.95,4.28-6.95,1.61-13.99,2.98-21.07,3.78-2.09.23-4.41-1.67-6.63-2.59.03-.31.05-.62.08-.93-10.02,2.02-20.04,4.04-30.61,6.17-.39-6.02-.72-11.11-1.08-16.62,20.13-5.01,39.99-9.95,60.77-15.12ZM314.96,380.36v149.78c-.23,0-.47,0-.7,0v-149.78c.23,0,.47,0,.7,0ZM310.71,527.79c0,1.69-1.04,3.38-1.59,5.07l-2.44-.86v-53.85c-.41,0-.82,0-1.24,0v54.59c-3.27.28-6.47,3.29-8.05-1.14-1.55,1.08-3.25,2.28-5.97,4.18,0-6.08-.21-10.68.03-15.25,2.52-46.75,5.11-93.51,7.69-140.26.16-2.81-.26-5.7,4.34-5.45,8.36.45,8.54.23,8.47,6.01-.34,29.15-.87,58.3-1.13,87.46-.18,19.83,0,39.66-.11,59.49ZM299.51,334.33c3.76-.96,5.22.13,5.07,4.03-.18,4.6-.04,9.22-.04,14.07.41.02,1.63.07,3.04.14.13,1.71.25,3.15.38,4.83-7.35,1.8-14.52,3.77-21.78,5.26-3.95.81-6.37-.98-5.62-5.98-7.55,1.34-14.85,2.64-22.24,3.96,0-4.98-.17-9.59.14-14.16.06-.96,1.73-2.31,2.88-2.61,12.7-3.27,25.46-6.3,38.17-9.54ZM264.57,429.44v106.09c-.18,0-.35.01-.53.02v-106.1h.53ZM255.86,536.94c.85-49.35,1.69-98.57,2.53-147.78-.18,0-.36,0-.53,0-.54,28.64-1,57.29-1.64,85.93-.43,19.31-1.19,38.62-1.64,57.94-.09,4.05-1.73,5.08-5.55,4.72-2.41-.22-4.93.68-7.97,1.18,0-2.54-.11-4.64.02-6.73,2.69-46.4,5.41-92.8,8.12-139.21.53-9.09,1.7-9.87,11.04-6.93,0,3.38.02,6.86,0,10.34-.28,45.15-.55,90.3-.88,135.45-.02,2.29,1.1,5.79-3.49,5.1ZM218.39,401.13c-.78,46.21-1.55,92.43-2.33,138.64-.73-.01-1.45-.02-2.18-.03.67-37.1,1.33-74.21,2-111.31.13-.07.26-.13.39-.2.1,2.11.2,4.22.3,6.33h.39v-33.45c.48,0,.95.02,1.43.03ZM214.46,404.47c-.77,44.11-1.56,88.22-2.3,132.33-.05,2.95-.07,5.53-4.5,4.42v-45.62c-.28,8.91-.94,24.81-1.19,40.7-.08,4.85-1.65,6.8-6.4,5.71,2.28-48.84,4.54-97.35,6.8-145.89q7.7,1.03,7.59,8.36ZM201.13,496.76c-.71,13.95-1.75,27.89-2.78,41.82-.32,4.38-.54,4.38-5.75,3.86-.12-1.89-.28-3.85-.36-5.82-1.64-40.4-3.27-80.81-4.92-121.21-.1-2.49.25-5.18-.57-7.44-3.23-8.88,2.61-13.29,8.54-17.32,1.45-.98,4.76-.35,6.57.66,1.79,1,4,3.49,3.93,5.24-1.36,33.41-2.95,66.81-4.66,100.2ZM489.58,518.58l-1.24.07v-176.07c.41,0,.83,0,1.24,0v176ZM486.09,251.13c-.32,1.93-.67,3.99-1.1,6.55-8.72,1.87-17.68,3.59-26.53,5.73-42.74,10.33-85.43,20.9-128.2,31.14-43.09,10.32-86.24,20.35-129.36,30.52-14.91,3.52-29.79,7.18-44.73,10.54-2.44.55-6.03,2.74-7.41-2.85,112.45-27.22,224.8-54.41,337.33-81.64ZM182.62,345.18c0,2.06-.02,4.13,0,6.19.13,9.31.81,7.2-7.25,9.27-5.44,1.4-11,2.34-17.17,3.63v-20.14c.58-.11,1.16-.22,1.74-.33.74,4.72,1.48,9.44,2.22,14.16.34-.04.69-.08,1.03-.11-.29-3.91-.57-7.82-.86-11.73.35-.06.7-.12,1.05-.18.66,3.47,1.31,6.94,2.05,10.85,3.93-1.08,7.67-1.81,11.15-3.21,1.2-.48,2.21-2.53,2.48-4.01.55-3.02.54-6.14.78-9.47,8.87,1.75,4.48,8.34,5.9,12.72,3.58-.89,7.19-2.24,10.9-2.61,4.63-.46,6.23-2.83,6.49-7.1.17-2.68.93-5.32,1.42-7.97.78.05,1.57.09,2.35.14.17,5.55.48,11.11.35,16.66-.02.76-2.13,1.82-3.42,2.13-6.62,1.58-13.28,2.97-20.48,4.54v-13.42c-.25,0-.49,0-.74,0ZM157.46,374.46c.04-8,.07-7.93,7.89-9.62,11.55-2.5,23.07-5.11,34.6-7.66,2.26-.5,4.53-.9,7.86-1.55-.39,5.77-.59,11-1.24,16.18-.11.86-2.12,1.82-3.4,2.13-4.49,1.09-9.05,1.91-13.58,2.83,4.6-.57,9.18-1.33,13.79-1.6,1.58-.09,3.23,1.08,4.85,1.67-1.28,1.35-2.4,3.63-3.88,3.9-5.53,1-11.18,1.53-16.8,1.81-1.55.08-3.16-1.3-4.75-2.01.08-.52.17-1.04.25-1.56,2.22-.77,4.45-1.53,6.67-2.3-2.8.27-5.62.49-8.43.84-3.89.48-6.96,1.57-10.05,4.88-5.35,5.74-13.55,5.5-20.91,6.41-.72.09-2.32-1.63-2.32-2.51,0-.94,1.24-2.49,2.21-2.73,3.53-.9,7.17-1.36,11.55-2.13-5.35-.52-4.33-4.03-4.31-6.99ZM103.69,576.27c1.95-7.14,2.74-13.53,3.02-18.63.99.9,1.72,1.56,2.46,2.21,8.91,7.96,17.8,5.42,21.15-6.06.33-1.12.71-2.24.83-3.39.55-5.35,3.45-8.77,8.31-10.89,0,0,.97-.74,3.99-3.3,8.5-7.21,8.39-28.28,8.39-37.66h0c.66-32.55,1.32-65.1,1.97-97.65-.42-2.5-.84-5-1.26-7.5,4.8,1.94,10.77,3.03,11.53,9.27.71,5.84-.26,11.88-.49,17.83.51-4.43,1.56-8.88,1.39-13.28-.19-4.81,1.45-7.01,6.85-6.95.16,1.47.46,3.02.47,4.57.06,45.14.11,90.28.03,135.42,0,1.51-1.46,3.02-2.24,4.53-.71-1.57-2.04-3.13-2.05-4.7-.14-20.27-.09-40.55-.52-60.83,0,19.98.02,39.96-.01,59.95,0,6.37-.37,6.64-7.28,6.14-.07-1.06-.24-2.17-.21-3.27,1.08-32.79,2.17-65.59,3.3-98.38.09-2.48.47-4.95.72-7.42-.48,2.09-1.27,4.16-1.39,6.27-.47,8.48-.7,16.98-1.07,25.47-1.06,23.97-2.13,47.94-3.23,71.9-.14,2.95.1,6.11-4.31,6.56-1.06.11-2.27,1.82-2.84,3.05-1.89,4.06-3.39,8.31-5.32,12.35-.81,1.69-2.07,3.85-3.61,4.39-4.24,1.49-5.01,4.56-5.71,8.4-.51,2.81-1.69,6.09-3.7,7.87-2.5,2.21-4.68,4.02-4.62,7.6.04,2.76-1.32,4.08-4.19,4.45-8.35,1.07-8.33,1.17-8.68,9.46-.02.47-.26.93-.53,1.84-3.81.37-7.72.76-11.61,1.14-.8-6.5-2.97-10.75-6.56-12.86,2.41-4.6,5.05-10.61,7.05-17.92ZM78.35,619.39c26.36-1.06,53.02-2.13,80.04-3.21v6.66c-2.92.22-5.69.58-8.46.62-22.63.31-45.25.55-67.88.82-2.59.03-5.34.27-3.7-4.89ZM128.54,633.08c-5.97.05-11.94.01-18.53.01v-6.86h23.93c.76,6.75.76,6.79-5.4,6.84ZM81.1,626.34c8.9.43,17.84.11,27.05.11v6.87h-34.38c-.61-5.21,1.68-7.26,7.32-6.99ZM52.17,637.47c36.78-.85,73.56-1.75,110.34-2.74,3.34-.09,4.4,1.35,4.49,4.37.09,3.04-.88,4.5-4.26,4.53-29.63.29-59.27.87-88.9.99-8.57.03-17.15-1.13-25.9-1.77-.56-3.36.31-5.29,4.22-5.38ZM39.94,658.64c-1.94-.07-3.86-.42-6.39-.71,1.57-6.48,5.16-10.36,10.63-10.83,7.21-.62,14.57-.31,21.79.38,2.69.25,5.49,2.33,7.63,4.26,1.37,1.23,2.32,3.82,2.06,5.59-.14.97-3.21,2.14-4.95,2.13-10.26-.08-20.51-.46-30.77-.81ZM134.89,704.18c-3.14.14-6.3.57-9.38,1.22-2.06.44-3.51.11-4.2-.8-.68-.89-.44-2.22-.1-3.37,1.92-6.45,7.7-10.61,7.25-11.17-.21-.26-1.59.45-2.56.95-1.26.65-2.12,1.27-2.16,1.3-3.82,4.31-8.6,4-13.61,3.68-11.28-.72-22.57-1.31-33.87-1.83-4.13-.19-8.33.36-12.41-.13-6.98-.85-10.39-7.21-7.4-13.62,2.74-5.88,7.38-9.25,14.09-9.5,7.36-.28,14.73,1.38,23.81,5.68,7.52-10.59,18.17-11.33,29.85-9.16,1.37.25,3.61-1.09,4.59-2.35,7.31-9.37,16.76-13.85,28.64-13.42,14.01.5,21.51,5.53,28.24,19.19,10.01-.77,17.63,4.36,20.52,14.21.94,3.19,2.01,4.83,5.82,5.24,7.43.8,11.48,5.69,10.61,12.26-3.2-.51-6.38-1.47-9.56-1.43-9.14.12-18.28.64-27.42,1-16.92.67-33.84,1.3-50.76,2.05ZM189.01,729.38c-.04-6.02,3.58-10.73,9.98-12.84,7.48-2.46,13.38-.98,17.42,4.51,1.56,2.11,2.88,4.4,4.31,6.61-10.58.57-21.15,1.15-31.72,1.72ZM345.05,713.04c-13.78.42-27.56.72-41.33,1.33-.94.04-2.54,2.31-2.53,3.53,0,4.81-1.9,6.92-6.85,6.98-14.44.18-28.89.49-43.32,1.08-7.95.32-15.88,1.38-23.82,1.97-2.13.16-4.29-.16-6.43-.27.91-6.08,4.57-7.74,12.36-5.56,1.03-6.28,4.43-9.78,10.79-11.11,7.83-1.63,15.51,1.53,20.07,8.52,1.9-1.57,4.08-2.86,5.58-4.72,4.22-5.24,9.66-7.52,16.19-7.24,2.89.12,3.94-.91,4.69-3.7,4.69-17.35,23.6-24.74,39.05-15.43,6.1,3.68,7.95,7.66,8.03,17.34,10.77,1.77,11.29,1.99,15.03,6.67-2.81.23-5.15.52-7.5.59ZM369.03,661.86c-24.69-.09-49.07,3.17-73.46,6.46-7.25.98-14.52,1.95-21.81,2.34-2.28.12-4.66-1.72-7-2.66,1.73-1.99,3.33-4.14,5.27-5.91.89-.82,2.47-1.27,3.72-1.24,7.46.15,11.99-4.86,16.48-9.54,5.46-5.7,15.97-7.42,25.01-3.12-2.22-7.31.83-12.94,5.27-17.78,7.11-7.76,16.09-12.26,26.55-13.6,22.28-2.86,36.08,5.67,46.44,28.99,1.18-.92,2.12-1.6,3-2.34,10.66-9.08,22.11-7.52,29.73,4.37,1.85,2.9,3.44,4.85,7.22,4.51,1.44-.13,3.3.88,4.44,1.94,1.1,1.01,2.22,2.89,2,4.15-.18,1.04-2.25,2.31-3.61,2.48-4.6.57-9.26.93-13.9.96-18.45.1-36.9.09-55.35.01ZM410.96,701.93c3.11-5.02,10.11-6.62,14.22-12.5,5.76-8.23,22.17-4.64,28.29,5.12.7,1.11,1.23,2.32,1.94,3.69,9.89-2.01,12.37-1.36,14.96,3.69h-59.43ZM471.42,607.38c-.41,5.02-3.74,5.95-7.94,6.25-19.19,1.37-38.38,2.78-57.56,4.35-6.48.53-12.68,2.22-17.85,7.1-3.89-3.08-9.19-6.46-15.94-8.84-4.52-1.59-11.23-3.97-19.3-2.86-2.11.29-4.28.81-7.35,1.55-3.97.96-7.21,1.7-10.99,3.22-3.47,1.4-6.68,3.43-10.16,5.27-.6-7.5,1.66-10.41,8.21-10.96,3.3-.28,6.62-.36,10.36-.55.34-4.41.69-8.68.98-12.95.21-3.09,1.55-5.04,4.86-5.12,7.24-.18,14.5-.7,21.72-.36,3.13.15,4.03-1.19,5.16-3.36,3.84-7.42,8.66-13.91,17.25-16.25,10.49-2.86,19.81-.89,27.37,7.27,1.99,2.15,3.68,2.85,6.85,1.96,8.37-2.33,17.52,1.69,22.24,9.46,1.83,3.01,3.62,4.71,7.45,4.3,2.56-.28,5.29.42,7.86,1.06,5.12,1.28,7.2,4.44,6.79,9.45ZM469.86,592.15c-8.04,1.34-13.01-2.31-17.83-8.7,12.81-.53,25.14-1.03,38.08-1.57.18,3.3.31,5.76.49,9.13-7.02.33-14,0-20.74,1.13ZM491.43,640.55c-3.43.39-6.24.93-5.96,5.48.02.36-1.25,3.23-2.49,3.12-.82-.07-1.53-1.44-1.81-3.18-4.48-17.32,5.46-30.68,23.38-31.64,1.47-.08,3.05,1.63,4.54,2.56,1.41.88,2.76,1.84,4.74,3.17-1.42-5.58-3.09-9.82-3.52-14.18-1.79-18.47,7.99-33.12,26.31-40.92,25.7-10.95,47.15-1.18,57.81,16.22,1.66,2.71,3.44,1.74,5.5,1.38,10.66-1.85,21.12-1.75,29.78,5.77,2.82,2.45,4.26,6.48,6.44,9.71.73,1.08,1.65,2.27,2.77,2.83,8.03,3.99,12.32,14.03,9.44,22.48-1.13,3.33-3.55,4.28-6.63,3.01-7.1-2.94-14.48-3.62-21.96-2.6-24.2,3.31-48.34,6.98-72.55,10.19-18.57,2.46-37.2,4.47-55.81,6.61ZM743.86,680.02c-.51.65-1.65.52-2.28.45-11.26-1.18-22.64-.91-33.96-.92-4.82,0-9.66.06-14.46.39-20.23,1.36-40.47,2.58-60.66,4.32-38.73,3.34-46.87,4.86-59.11,5.91-2.11.18-2.68.2-9.37.66-13.14.9-26.76-1.15-39.44,2.39,0,0-8.21,2.29-15.7-.13-.58-.19-1.89-.62-1.89-1.22,0-.81,2.45-1.5,4.55-1.95,0,0,0,0,0,0,.09-.04,2.49-1.03,4.52-1.97,3.38-1.56,7.02-2.82,9.96-5,4.66-3.45,9.62-2.38,14.39-1.52,4.38.79,6.49-.13,8.21-4.45,9.2-23.05,29.64-27.32,47.38-10.13.59.57,1.19,1.14,2.27,2.16,1.07-1.67,2.09-3.09,2.93-4.61,3.76-6.85,9.38-10.47,17.32-10.77,1.69-.07,4.28-1.43,4.83-2.83,10.4-26.41,45.62-27.17,61.95-16.19,10.07,6.77,17.14,15.63,20.23,27.49.46,1.77,1.01,3.52,1.56,5.26.09.29.39.52.59.77,1.44-.92,13.93-8.63,24.75-3.28,7.46,3.69,13.1,13.07,11.45,15.17ZM649.97,393.83c.88-1.86,3.2-4.81,4.08-4.54,2.45.72,6.21.53,6.36,4.96.06,1.81,1.27,3.89,2.57,5.27,2.9,3.06,3.38,6.55,3.25,10.52-1.36,41.42-2.64,82.85-3.96,124.27-.04,1.31-.26,2.61-.4,3.92-.44.03-.87.07-1.31.1-.69-6.7-1.53-13.39-2.04-20.11-3.01-39.66-5.95-79.32-8.87-118.99-.13-1.81-.41-3.89.3-5.41ZM783.26,610.39c-.09-.03-.18-.07-.28-.1-1.25-.42-2.48-2.78-2.64-4.35-.85-8.69-.74-8.7-9.34-10.55-.96-.21-1.9-.5-2.9-.77-.6-4-1.18-7.86-1.71-11.41-8.15-.84-15.58-1.6-23.22-2.38.11-4.57-2.45-5.73-6.26-6.04-5.41-.45-10.77-1.39-16.07-2.11.47-2.31.85-4.21,1.31-6.49-6.02-1.04-11.51-1.99-17.11-2.96-.21-4.51,2.07-10.05-4.95-9.78-.75-4.22-1.82-8.05-2.05-11.92-2.63-44.41-5.1-88.83-7.71-133.24-.27-4.52.94-7.98,4.53-10.92,2.74-2.25,4.96-5.15,7.65-8.01-4.61-3.19-6.5-7.28-5.83-12.62.95-7.59,1.53-15.23,2.53-22.82.15-1.15,1.57-2.91,2.57-3.03,5.18-.62,7.01-3.56,6.23-8.42,10.02.57,14.88-2.45,16.16-9.76.65-3.73-.74-4.94-4.31-4.51-1.76.21-4.4-.05-5.35-1.18-3.89-4.62-7.11-9.81-10.95-14.48-1.52-1.85-4.01-4.06-6.08-4.08-6.5-.05-10.08,4.91-8.91,11.11.21,1.1.21,2.25.29,3.11-5.35,2.46-10.28,4.72-15.47,7.11-.33-1.3-.74-3.24-.94-5.63-.46-5.6.75-7.73-.89-9.56-1.22-1.36-3.31-1.75-5.71-2.2-1.45-.27-2.18-.41-2.68-.14-2.32,1.25.11,6.81-2.54,8.66-1.27.89-3.18.67-4.4.21-.42-.16-1.68-.66-2.48-1.93-1.09-1.73-.68-3.88-.07-7.1.34-1.79.5-1.76.41-2.32-.54-3.26-6.23-4.54-7.85-4.91-2.01-.45-2.9-.27-3.5.16-.93.67-1.05,1.82-1.24,2.75-.71,3.44-3.16,7.61-5.77,8.06-1.53.26-3.62-.66-4.4-2.24-1.71-3.5,4.37-7.61,2.81-11.25-.24-.57-.69-1.17-6.74-3.64-5.66-2.32-8.51-3.47-9.7-2.89-3.74,1.82-1.92,9.99-5.12,10.89-1.25.35-2.88-.51-3.47-1.61-.92-1.69.94-3.31,1.73-8.02.4-2.41.61-3.63-.06-4.88-.26-.5-.84-1.32-6.15-3.59-2.24-.96-3.36-1.43-5.08-1.97-3.96-1.22-5.93-1.83-7.22-1.26-3.28,1.45-1.4,7.06-4.89,9.15-2.6,1.56-6.91.41-9.14-2.04-1.23-1.35-1.7-2.84-1.89-3.97-.48-2.74-.6-5.8.11-8.44,1.35-5.01-1.02-7.01-5.22-8.23-1.43-.42-2.81-1.06-4.17-1.69-3.23-1.49-5.09-1.58-6.13-1.03-3.44,1.82.3,12.28-3.01,13.9-.63.31-1.82-.02-4.2-.69-3.11-.87-4.63-1.35-5.42-2.66-.71-1.18-.68-2.82,0-5.21,1.09-3.81-1.36-5.2-3.42-6.06-1.34-.56-3.89.85-5.44,1.99-1.53,1.13-2.48,3.05-4.32,5.47-3.27-2.54-8.16-4.41-9.16-7.52-1.96-6.11,1.86-10.36,9.94-11.37-2.67-2-4.16-2.76-5.13-3.94-1.01-1.23-2.45-3.16-2.1-4.29,1.39-4.55-.88-6.06-4.56-7.69-5.13-2.27-10.07-5.07-14.82-8.08-3.09-1.95-3.31-4.57-1.07-7.98,3.08-4.7,5.72-9.78,7.85-14.99,1.97-4.81.44-6.81-4.37-5.35-7.07,2.13-13.84,5.33-20.65,8.27-2.28.98-4.29,2.57-6.43,3.88-.34-.38-.68-.75-1.01-1.13,2.73-3.77,5.46-7.53,8.2-11.3-.39-.35-.79-.71-1.18-1.06-2.91,3.35-6.05,6.54-8.65,10.11-1.45,2-2.65,2.62-5.19,2.45-9.81-.64-19.64-.89-29.46-1.19-1.02-.03-2.05.52-3.46.91.93,1.49,1.58,2.53,1.91,3.06,2.1-.4,3.62-1.01,5.11-.93,11.45.61,22.88,1.77,34.33,1.86,5.16.04,6.01,1.51,4.79,5.21-17.26-1.38-34.26-2.75-52.53-4.21,2.6,3.97,4.2,6.42,6.18,9.45-2.39.19-4.17.44-5.94.45-39.5.14-78.99.23-118.49.39-2.81.01-4.5-.65-5.4-3.71-.45-1.54-2.54-3.03-4.22-3.69-3.39-1.34-6.96-2.41-10.55-3.01-4.35-.71-6.77-2.58-7.28-7.22-.6-5.41-3.87-8.24-9.52-8.07-1.99.06-4.02-.5-5.96-.25-1.58.2-3.96.87-4.34,1.92-.46,1.26.45,3.46,1.45,4.71,3.75,4.72,4.52,7.8.87,12.55-3.28,4.28-7.09,8.59-11.58,11.43-13.65,8.63-27.84,16.4-41.63,24.81-16.34,9.97-32.47,20.29-48.75,30.37-4.02,2.49-4.13,2.32-8.84.14.81-.87,2-1.59,2.28-2.57.76-2.64,2.33-5.97,1.37-7.96-1.61-3.33-5.55-4.22-9.15-2.67-2.24.97-4.19,2.68-6.13,4.25-6.61,5.34-13.08,10.86-19.74,16.12-8.08,6.38-7,3.92-2.79,12.4,1.38,2.78,3.08,5.39,4.39,7.64,2.25-1.57,3.46-2.68,4.87-3.34,7.09-3.31,14.33-6.29,21.34-9.77,14.15-7.02,28.23-14.19,42.24-21.48,22.88-11.91,45.77-23.81,68.44-36.11,4.11-2.23,7.88-3.7,12.55-3.63,38.99.64,77.98,1.1,116.97,1.74,6.98.11,14.11,1.94,20.87.93,12.91-1.91,25.6-5.29,35.56-7.45-9.61,0-22.03.06-34.46-.01-42.66-.23-85.33-.11-127.98-1-13.96-.29-25.85,2.4-38.01,9.83-30.25,18.48-61.36,35.58-92.29,52.93-9.07,5.09-18.72,9.14-28.37,13.8-1.2-2.22-1.93-3.57-2.73-5.04,3.43-.71,6.43-1.01,9.18-2,2.94-1.05,5.65-2.76,8.47-4.14.54-.26,1.17-.35,1.75-.52,3.25-.96,6.87-1.29,9.7-2.97,35.62-21.19,71.09-42.66,106.75-63.79,3.38-2,7.78-3.06,11.74-3.16,13.49-.34,26.99-.14,40.49.01,47.41.55,94.82,1.17,142.22,1.75,5.02.06,10.04,0,15.06,0-1.86,1.7-3.84,2.37-5.86,2.86-9.54,2.34-19.05,4.82-28.65,6.9-10.95,2.36-21.49,6.05-33.13,5.74-38.64-1.02-77.32-.96-115.96-1.86-10.19-.24-19.48.75-27.61,7.37-1.66,1.35-3.72,2.2-5.63,3.23-38.96,21.17-79.03,40.04-119.62,57.85-2.99,1.31-5.48,3.97-7.81,6.38-.52.54.22,3.2,1.14,3.99,1.31,1.11,3.38,2.02,5.03,1.89,3.39-.28,4.03,1.59,4.92,4.16,1.51,4.39,3.12,8.86,8.81,9.74.85.13,2.05,1.89,2.06,2.91.15,11.61.09,23.23.09,34.65-11.81,2.38-12.47,3.05-10.37,11.51.17,12.55.35,29.36.46,49.52-3.46,1.37-16.8,6.18-32.6.83-15.59-5.29-23.23-16.96-25.19-20.18-29.64,11.26-56.95,7.28-67.19-7.81-2.1-3.1-4.62-8.34-4.69-16.67-1.77-.12-5.87-.65-9.11-3.77-4.96-4.77-4.1-11.97-3.78-15.1.7-6.82,4.3-11.28,5.83-13.13,2.95-3.55,6.23-5.57,8.8-7.12,2.96-1.77,5.61-2.92,7.51-3.65.72-2.56,4.73-15.83,16.86-21.23,7-3.11,14.3-2.54,17.69-2.27,5.48.43,9.88,1.81,12.82,2.95-.39-5.12-.49-12.58,1.14-21.34.46-3.86,1.57-9.42,4.47-15.44,8.11-16.83,23.69-23.76,29.47-26.33,13.67-6.08,26.25-6.1,33.31-5.52,1.36-5.22,5.66-18.68,18.49-28.08,16-11.72,34.53-9.27,41.16-8.39,6.37.84,11.55,2.5,15.17,3.92,11.79-1.87,20.29-5.91,25.34-8.81,5.55-3.19,9.93-5.94,13.04-11.31,3.34-5.77,1.68-8.58,4.64-14.91.7-1.5,5-10.66,13.98-14.12,12.26-4.73,27.58,3.35,33.77,14.02,1.31,2.25,2.06,4.36,2.51,6,12.88,2.08,23.6,3.49,31.17,4.41,43.6,5.29,61.92,4.24,71.95,2.7,6.63-1.02,12.97-2.04,12.97-2.04,1.79-.37,3.24-.71,4.12-.92-.25-.29-4.31-5.28-2.3-11.43,1.75-5.37,6.7-7.26,7.31-7.48-.1-2.16-.26-11.01,6.16-18.07,6.78-7.46,18.17-9.91,28.74-6.11.86-3.07,2.35-7.26,5-11.8,2.22-3.8,8.63-13.64,20.69-19.72,2.99-1.51,22.25-10.8,42.49-.83,18.76,9.24,23.86,27.88,24.58,30.69,5.35,2.68,9.53,2.91,12.43,2.56,3.77-.45,7.44-2.11,9.66-3.12,3.28-1.49,6.72-3.35,11.57-3.48.29,0,.54,0,.81.03,1.81.15,4.17.59,9.2,3.48,1.32.75,3.02,1.79,4.95,3.13,5.57-5.87,15.86-14.86,31.07-19.09,7.45-2.07,17.34-4.82,27.77-.18,6.91,3.07,11.16,8.1,13.36,11.22,1.91,3.11,2.84,6.03,3.31,8.02,1.09-.25,2.73-.5,4.7-.32,1.5.14,5.78.54,8.64,3.9,3.68,4.31,2.16,10.12,2,10.68,1.12-.27,2.74-.56,4.69-.54,5.44.05,9.34,2.47,10.62,3.24,3.31,1.99,6.05,4.87,8.35,8.68,1.86,3.08,3.39,4.88,4.66,6.11,1.15,1.11,2.01,1.63,3.48,3.1,1.65,1.66,2.81,3.2,3.53,4.26-1.5-.02-3.59,0-6.07.2-2.61.21-10.37,1.02-17.97,4.18-11.5,4.79-18.82,13.4-21.87,17.41-1.85-3.64-7.58-13.69-19.78-19.5-2.32-1.1-18-8.25-34.9-.64-10.64,4.79-16.22,12.93-18.3,16.36-3.15-.09-12.86.03-21.04,6.85-1.76,1.47-5.49,4.65-7.73,10.29-1.98,4.97-1.84,9.4-1.6,11.72-4.98-1.17-8.89-2.45-11.42-3.35-7.72-2.75-11.41-5.1-18.85-6.69-2.87-.61-5.25-.88-6.69-1.01.1-6.35-2.1-10.46-3.24-12.26-3.35-5.28-8.42-7.66-13.08-9.86-3.49-1.65-6.59-2.57-8.8-3.1,1.27-2.33,3.22-6.74,3.04-12.36-.31-9.7-6.83-17.7-14.01-21.52-12.27-6.52-29.42-2.36-34.62,7.31-1.25,2.32-1.63,4.63-1.73,6.4.84-1.92,2.97-6.09,7.58-9.18,6.05-4.06,12.32-3.57,14.4-3.38,8.78.81,19.51,6.98,21.88,17.83,1.93,8.8-2.65,16.03-3.84,17.8,7.94,1.23,13.45,4.26,16.48,6.26,4.19,2.76,8.85,5.83,10.22,11.52.81,3.32.18,6.28-.38,8.08,1.58.2,4.36.61,7.73,1.49,8.39,2.19,12.49,5.42,23.91,10.19,11.23,4.69,22.55,9.17,33.82,13.76,17.35,7.07,34.75,14.03,52.01,21.3,7.44,3.13,14.4,3.61,21.72-.44,3.28-1.82,7.18-2.76,10.92-3.44,8.08-1.46,11.6,2.99,15.06,10.67.99,2.2,1.74,4.54,2.98,6.58,1.83,3.02,6.83,3.92,11.16,2.37,1.68-.6,3.39-1.26,5.15-1.5,1.92-.26,4.09.22,5.06.78,3.45,1.99,3.43,13.33.33,23.55.64,11.74-2.47,16.83-5.46,19.29-2.69,2.21-5.35,2.78-14.43,7.73-2.12,1.15-5.36,2.23-5.87,3.99-2.08,7.23-3.28,14.74,1.56,21.56,4.75,6.7,4.54,9.41-1.16,15.42-2.09,2.2-2.7,3.66-4.34,5.84-2.3,3.06-3.54,9.41,1.65,24-.06,2.05-.12,4.1-.17,6.15-.55,20.86-.72,41.48-.56,61.85-.4,8.44-.4,24.91,5.34,40.21,3.06,8.17,5.61,12.76,8.72,14.1,4.63,2,10.01,1.89,12.9,7.33,2.99,5.63,10.24,1.45,14.19,5.39.35.35.74.74,1.18.91,2.79,1.1,4.92,2.03,5.99,2.17,11.55,1.5,22.14,2.15,26.07,4.27,4.77,2.57,8.14,11.83,2.91,40.37ZM275.44,207.55c4.78-.47,8.35,1.31,9.47,6.59,1.38,6.49,5.15,8.43,11.05,8.88,3.61.27,7.23,1.22,10.67,2.4,1.62.56,2.81,2.38,5.22,4.55h-38.07c1.85-3.67,3.01-6.52,4.64-9.08,4.53-7.1,4.14-9.21-2.98-13.34ZM161.71,280.34c-11.38,7.02-18.61,19.29-30.58,25.55-.39-.49-.78-.98-1.17-1.48,10.21-8.53,20.43-17.07,30.64-25.6l1.12,1.53Z"/>
  </g>
</svg>