<?xml version="1.0" encoding="UTF-8"?>
<svg id="Layer_1" data-name="Layer 1" xmlns="http://www.w3.org/2000/svg" viewBox="0 0 894.28 724.58">
  <defs>
    <style>
      .cls-1 {
        fill: #000;
      }

      .cls-1, .cls-2 {
        stroke-width: 0px;
      }

      .cls-2 {
        fill: #fff;
      }
    </style>
  </defs>
  <path class="cls-2" d="M881.84,444.91c1.27-2.13,1.66-3.24,2.41-3.97,4.01-3.82,6.76-7.89,4.2-13.79-.33-.77.65-2.32,1.35-3.29,8.36-11.6,4.86-19.95-9.14-21.72-.34-16.47-5.91-21.56-22.82-20.99-3.97.14-7.95.02-11.93.02-.22-.71-.44-1.43-.66-2.14,1.4-.96,2.68-2.32,4.23-2.83,13.24-4.35,14.86-8.64,7.36-19.98-.15-.23-.02-.64-.02-.94,11.52-7.45,11.88-17.65.42-23.8,2.04-8.5-1.37-14.11-9.84-16.98-1.09-.37-2.01-2.92-2.02-4.47-.07-8.91.24-17.83.26-26.75.01-3.47,1.28-5.64,4.35-7.6,3.53-2.25,6.22-5.79,9.61-8.33,2.68-2.01,5.7-3.79,8.85-4.86,4.51-1.54,9.51-1.8,13.87-3.65,3.88-1.64,5.52-5.47,4.32-9.83-1.13-4.13-4.56-4.34-8.05-4.34-11.52,0-23.04.05-34.55-.05-7.97-.07-7.97-.16-8.02-8.41-.26-44.03-.48-88.06-.9-132.08-.02-1.68-1.46-4.27-2.88-4.86-10.28-4.25-20.58-8.53-31.14-11.98-44.3-14.48-88.68-28.69-133.06-42.9-2.91-.93-4.19-2.23-4.32-5.4-.18-4.65.64-11.19-1.96-13.4-2.93-2.49-9.18-1.06-13.99-1.32-.37-.02-.74,0-1.11-.01-8.31-.1-12.17-4.3-11.65-12.71.04-.73.5-1.53.32-2.17-.34-1.25-.75-3.24-1.56-3.48-7.42-2.21-14.84-5.22-22.43-5.8-8.02-.6-16.21,1.26-24.33,1.94-3.2.27-5.78.75-5.95,4.92-.05,1.11-2.09,3.1-3.15,3.05-5.3-.25-7.19,2.43-7.37,7.22-.02.41-.98.79-2.29,1.77-.48-2.44-.67-4.2-1.18-5.87-.61-2-1.42-5.56-2.24-5.58-4.22-.12-9.66-.76-12.38,1.52-2.91,2.44-5.14,3.26-8.57,3.24-1.75,0-4.6.77-5.07,1.94-1.33,3.34-3.73,3.07-6.32,3.06-13.19-.03-26.38.13-39.57-.15-4.91-.11-7.4,1.58-7.29,6.51.11,4.59-2.48,6.64-6.55,7.57-1.99.45-3.92,1.15-5.9,1.65-51.49,13.05-103.01,25.97-154.43,39.27-7.78,2.01-14.97,1.42-22.39-.66-23.78-6.65-47.52-13.47-71.41-19.73-4.79-1.25-10.41-1.39-15.21-.24-45.08,10.81-89.99,22.34-135.12,32.96-19.77,4.65-39.33,10.63-59.99,11.26-4.25.13-9.39,3.8-12.32,7.33-4.86,5.85-1.61,12.3,5.92,13.02,5.54.53,11.13.56,16.7.63,7.55.1,15.11.02,22.78.02,0,6.34-.18,12.05.06,17.74.2,4.67-1.27,6.98-6.34,6.33-2.74-.35-5.62-.41-8.33.04-1.43.24-3.48,1.64-3.81,2.89-2.9,11.16,6.6,22.75,18.06,22.01,2.87-.19,5.66-1.5,9.27-2.51.2,1.73.54,3.15.5,4.56-.59,19.12-1.08,38.25-2.03,57.36-.16,3.27-2.28,6.49-3.69,9.65-2.54,5.69-5.66,11.16-7.66,17.02-1.03,3.04.41,6.85-.28,10.09-1.74,8.17.78,15.34,6.12,20.78,3.44,3.51,3.26,6.31,1.87,9.79-2.7,6.75-5.82,13.33-8.55,20.07-.8,1.97-1.34,4.26-1.19,6.34.68,9.54-2.51,13.64-12.03,14.93-13.32,1.8-22.32,11.85-21.49,23.98.87,12.72,11.56,21.9,25.2,21.57,3.07-.07,6.14-.36,9.45-.56-.56,5.55-1.24,10.51-1.52,15.48-1.69,29.86-3.2,59.73-5.04,89.58-.21,3.44-1.27,7.43-3.35,10.04-4,5.03-5.81,9.39-3.05,12.21,1.11,1.13,2.49,1.63,3.09,1.78,8.3,2.06,13.8,20.02,24.69,37.03,7.43,11.61,11.14,17.41,17.59,18.31,4.3.6,11.14-.77,13.39,2.86.9,1.45,1.01,3.62,2.99,4.78,1.3.76,2.66.62,3.19.63,13.74.43,27.47,1.03,41.21,1.14,7.81.06,10.28,1.26,14.02,9.24-7.08,6.1-14.43,11.99-18.57,20.99-2.85,6.19-1.88,9.5,4.8,10.88,4.28.88,5.42.37,7.15,1.12,4.72,2.04,3.08,11.86,5.14,20.73,1.27,5.44,4.45,12.77,13.03,20.57,0,0,.01,0,.02,0-1.61.55-3.34,1.39-4.97,2.71-1.59,1.29-3.85,3.12-3.85,5.73,0,1.99,1.12,3.99,3.41,5.51,2.98,1.96,6.75,3.42,10.28,3.7,13.51,1.07,27.07,1.43,40.59,2.38,2.96.21,6.55,1,8.57,2.89,4.94,4.63,10.64,6.82,17.08,7.16,7.6.4,15.23.07,22.83.53,2.27.14,4.65,1.6,6.63,2.95,5.15,3.51,9.64,8.46,15.24,10.77,19.58,8.05,38.84,5.27,57.77-3.22,4.24-1.9,9.22-3.21,13.82-3.11,16.89.37,33.79,1.19,50.65,2.31,26.94,1.79,53.49,5.45,79.11,14.84,24.74,9.07,50.22,15.17,76.91,12.65,36.95-3.48,65.79-18.47,78.84-55.96,1.84-5.28,5.2-10.33,8.87-14.62,9.36-10.9,22.33-15.1,35.97-14.76,13.24.33,26.41,3.28,39.64,4.8,12.49,1.44,25.01,3.26,37.54,3.5,10.21.2,19.26-4.16,25.11-13.14,1.64-2.52,3.56-6.14,2.92-8.64-2.34-9.15,1.36-16.53,6.01-23.42,7.43-11,16.98-20.84,16.09-36.24,11.91,10.79,22.15,9.33,27.78-1.94,4.54-1.17,9-1.19,12-3.3,9.14-6.42,8.99-19.49.24-26.95-1.91-1.63-3.95-3.11-5.21-4.1,2.12-5.44,3.92-10.05,6.1-15.62,8.6-2.79,13.2-11.72,10.17-19.42h0c.11-8.45.21-16.91.32-25.36,5.1-.61,7.85.6,9.45,1.91,1.33,1.09,2.29,1.54,3.7,3.48,1.05,1.44,3.94,2.46,5.81,2.22,6.41-.8,11.67-3.75,14.09-10.23,2.3-6.17.92-11.78-3.29-16.59-1.67-1.92-4.06-3.21-6.02-4.71Z"/>
  <g>
    <path class="cls-1" d="M446.61,136.2s-.03,0-.04-.01v.08l.04-.07Z"/>
    <path class="cls-1" d="M615.82,322.71l.2-.02s-.08-.06-.11-.09l-.09.11Z"/>
    <path class="cls-1" d="M881.84,444.91c1.27-2.13,1.66-3.24,2.41-3.97,4.01-3.82,6.76-7.89,4.2-13.79-.33-.77.65-2.32,1.35-3.29,8.36-11.6,4.86-19.95-9.14-21.72-.34-16.47-5.91-21.56-22.82-20.99-3.97.14-7.95.02-11.93.02-.22-.71-.44-1.43-.66-2.14,1.4-.96,2.68-2.32,4.23-2.83,13.24-4.35,14.86-8.64,7.36-19.98-.15-.23-.02-.64-.02-.94,11.52-7.45,11.88-17.65.42-23.8,2.04-8.5-1.37-14.11-9.84-16.98-1.09-.37-2.01-2.92-2.02-4.47-.07-8.91.24-17.83.26-26.75.01-3.47,1.28-5.64,4.35-7.6,3.53-2.25,6.22-5.79,9.61-8.33,2.68-2.01,5.7-3.79,8.85-4.86,4.51-1.54,9.51-1.8,13.87-3.65,3.88-1.64,5.52-5.47,4.32-9.83-1.13-4.13-4.56-4.34-8.05-4.34-11.52,0-23.04.05-34.55-.05-7.97-.07-7.97-.16-8.02-8.41-.26-44.03-.48-88.06-.9-132.08-.02-1.68-1.46-4.27-2.88-4.86-10.28-4.25-20.58-8.53-31.14-11.98-44.3-14.48-88.68-28.69-133.06-42.9-2.91-.93-4.19-2.23-4.32-5.4-.18-4.65.64-11.19-1.96-13.4-2.93-2.49-9.18-1.06-13.99-1.32-.37-.02-.74,0-1.11-.01-8.31-.1-12.17-4.3-11.65-12.71.04-.73.5-1.53.32-2.17-.34-1.25-.75-3.24-1.56-3.48-7.42-2.21-14.84-5.22-22.43-5.8-8.02-.6-16.21,1.26-24.33,1.94-3.2.27-5.78.75-5.95,4.92-.05,1.11-2.09,3.1-3.15,3.05-5.3-.25-7.19,2.43-7.37,7.22-.02.41-.98.79-2.29,1.77-.48-2.44-.67-4.2-1.18-5.87-.61-2-1.42-5.56-2.24-5.58-4.22-.12-9.66-.76-12.38,1.52-2.91,2.44-5.14,3.26-8.57,3.24-1.75,0-4.6.77-5.07,1.94-1.33,3.34-3.73,3.07-6.32,3.06-13.19-.03-26.38.13-39.57-.15-4.91-.11-7.4,1.58-7.29,6.51.11,4.59-2.48,6.64-6.55,7.57-1.99.45-3.92,1.15-5.9,1.65-51.49,13.05-103.01,25.97-154.43,39.27-7.78,2.01-14.97,1.42-22.39-.66-23.78-6.65-47.52-13.47-71.41-19.73-4.79-1.25-10.41-1.39-15.21-.24-45.08,10.81-89.99,22.34-135.12,32.96-19.77,4.65-39.33,10.63-59.99,11.26-4.25.13-9.39,3.8-12.32,7.33-4.86,5.85-1.61,12.3,5.92,13.02,5.54.53,11.13.56,16.7.63,7.55.1,15.11.02,22.78.02,0,6.34-.18,12.05.06,17.74.2,4.67-1.27,6.98-6.34,6.33-2.74-.35-5.62-.41-8.33.04-1.43.24-3.48,1.64-3.81,2.89-2.9,11.16,6.6,22.75,18.06,22.01,2.87-.19,5.66-1.5,9.27-2.51.2,1.73.54,3.15.5,4.56-.59,19.12-1.08,38.25-2.03,57.36-.16,3.27-2.28,6.49-3.69,9.65-2.54,5.69-5.66,11.16-7.66,17.02-1.03,3.04.41,6.85-.28,10.09-1.74,8.17.78,15.34,6.12,20.78,3.44,3.51,3.26,6.31,1.87,9.79-2.7,6.75-5.82,13.33-8.55,20.07-.8,1.97-1.34,4.26-1.19,6.34.68,9.54-2.51,13.64-12.03,14.93-13.32,1.8-22.32,11.85-21.49,23.98.87,12.72,11.56,21.9,25.2,21.57,3.07-.07,6.14-.36,9.45-.56-.56,5.55-1.24,10.51-1.52,15.48-1.69,29.86-3.2,59.73-5.04,89.58-.21,3.44-1.27,7.43-3.35,10.04-4,5.03-5.81,9.39-3.05,12.21,1.11,1.13,2.49,1.63,3.09,1.78,8.3,2.06,13.8,20.02,24.69,37.03,7.43,11.61,11.14,17.41,17.59,18.31,4.3.6,11.14-.77,13.39,2.86.9,1.45,1.01,3.62,2.99,4.78,1.3.76,2.66.62,3.19.63,13.74.43,27.47,1.03,41.21,1.14,7.81.06,10.28,1.26,14.02,9.24-7.08,6.1-14.43,11.99-18.57,20.99-2.85,6.19-1.88,9.5,4.8,10.88,4.28.88,5.42.37,7.15,1.12,4.72,2.04,3.08,11.86,5.14,20.73,1.27,5.44,4.45,12.77,13.03,20.57,0,0,.01,0,.02,0-1.61.55-3.34,1.39-4.97,2.71-1.59,1.29-3.85,3.12-3.85,5.73,0,1.99,1.12,3.99,3.41,5.51,2.98,1.96,6.75,3.42,10.28,3.7,13.51,1.07,27.07,1.43,40.59,2.38,2.96.21,6.55,1,8.57,2.89,4.94,4.63,10.64,6.82,17.08,7.16,7.6.4,15.23.07,22.83.53,2.27.14,4.65,1.6,6.63,2.95,5.15,3.51,9.64,8.46,15.24,10.77,19.58,8.05,38.84,5.27,57.77-3.22,4.24-1.9,9.22-3.21,13.82-3.11,16.89.37,33.79,1.19,50.65,2.31,26.94,1.79,53.49,5.45,79.11,14.84,24.74,9.07,50.22,15.17,76.91,12.65,36.95-3.48,65.79-18.47,78.84-55.96,1.84-5.28,5.2-10.33,8.87-14.62,9.36-10.9,22.33-15.1,35.97-14.76,13.24.33,26.41,3.28,39.64,4.8,12.49,1.44,25.01,3.26,37.54,3.5,10.21.2,19.26-4.16,25.11-13.14,1.64-2.52,3.56-6.14,2.92-8.64-2.34-9.15,1.36-16.53,6.01-23.42,7.43-11,16.98-20.84,16.09-36.24,11.91,10.79,22.15,9.33,27.78-1.94,4.54-1.17,9-1.19,12-3.3,9.14-6.42,8.99-19.49.24-26.95-1.91-1.63-3.95-3.11-5.21-4.1,2.12-5.44,3.92-10.05,6.1-15.62,8.6-2.79,13.2-11.72,10.17-19.42h0c.11-8.45.21-16.91.32-25.36,5.1-.61,7.85.6,9.45,1.91,1.33,1.09,2.29,1.54,3.7,3.48,1.05,1.44,3.94,2.46,5.81,2.22,6.41-.8,11.67-3.75,14.09-10.23,2.3-6.17.92-11.78-3.29-16.59-1.67-1.92-4.06-3.21-6.02-4.71ZM832.31,295.93c-.14.53-.28,1.05-.42,1.58-10.85-3.18-21.71-6.36-32.93-9.65,7.7-5.46,22.8-1.58,33.36,8.07ZM801.26,318.54c-26.54.61-53.08,1.19-83.88,1.87-26.73.97-57.7,2.12-88.69,3.14-2.39.08-5.96,1.48-6.06-3.33-.09-4.04,2.37-4.31,5.45-4.39,15.22-.36,30.43-.79,45.65-1.27,48.42-1.51,96.85-3.04,145.27-4.61,2.47-.08,4.41-.13,4.55,3.16.12,2.93-.82,4.68-3.92,4.8-6.12.23-12.24.49-18.36.63ZM817.85,380.72c-4.42.39-8.09.72-12.27,1.09v-59.96c2.88,0,5.87-.39,8.68.16,1.37.27,3.42,2.27,3.44,3.5.22,18.17.15,36.34.15,55.21ZM792.22,322.63c-.88,20.07-1.77,40.46-2.67,61.19-4.79.42-9.16.81-14.27,1.27v-62.46h16.94ZM761.75,323.61c-.77,18.9-1.76,37.65-2.15,56.42-.12,5.59-1.95,7.79-7.38,7.36-2.36-.19-4.74-.03-8.2-.03v-63.75h17.74ZM710.7,324.25h22.13c-.87,5.82-2.18,11.57-2.52,17.39-.81,14.07-1.32,28.17-1.59,42.26-.08,4.25-1.35,6.04-5.7,5.88-3.12-.12-6.27.42-10.15.73-.14-2.72-.4-5.21-.38-7.7.16-15.4.56-30.79.49-46.18-.02-4.01-1.44-8.02-2.28-12.37ZM682.18,333.02c-1.68-2.37-3.94-5.72-6.19-5.91-2.25-.19-5.82,2.49-6.93,4.82-1.52,3.18-1.59,7.2-1.73,10.88-.59,14.84-1.26,29.7-1.29,44.55-.01,5.79-1.98,8.09-7.6,7.82-2.57-.13-5.15.2-8.28.34,0-6.9-.02-13.19,0-19.48.04-13.37.12-26.74.13-40.11,0-3.69-.79-8.27-4.8-8.14-2.87.09-6.24,3.46-8.23,6.2-1.44,1.98-1.29,5.33-1.35,8.08-.39,15.78-.63,31.56-.94,47.35-.04,2.18-.21,4.35-.34,6.9h-9.72v-69.26c26.86-.98,53.29-1.94,79.72-2.9-5.04,4.05-5.07,9.48-5.23,14.87-.46,15.04-.94,30.07-1.4,45.1q-.25,8-8.4,8.62c-2.2.16-4.41.23-7.4.39,0-2.27-.01-4.22,0-6.17.13-16.34.27-32.68.38-49.03.01-1.67.41-3.75-.4-4.91ZM623.63,306.92c66.34-1.78,132.61-3.56,198.89-5.34.08.74.16,1.47.24,2.21-1.94.34-3.88.91-5.83.98-48.76,1.71-97.52,3.35-146.27,5.05-13.71.48-27.42,1.12-41.13,1.62-2.73.1-5.86.48-5.89-4.52ZM813.45,295.33c-.11.51-.22,1.02-.33,1.53-5.16-.37-10.24,2-15.51-2.31-2.95-2.41-7.61-2.67-11.44-4.05-7.98-2.88-15.93-5.86-24.96-9.2,2.16-.79,3.18-1.16,4.45-1.62-6.48-.43-12.56-.83-18.65-1.23,16.03,5.7,32.05,11.39,48.07,17.07-.02.48-.04.96-.06,1.44-3.35.43-6.68,1.05-10.04,1.25-4.87.29-9.77.48-14.65.34-3.47-.1-7.05-.37-10.37-1.33-11.04-3.19-22-6.69-32.98-10.09,4.41,1.81,8.79,3.69,13.26,5.34,4.02,1.49,8.17,2.64,12.09,4.51-5.7,3.23-10.83,1.9-16.41.04-14.4-4.79-29.03-8.9-43.57-13.28-6.32-1.91-12.65-3.82-18.97-5.72-.21.66-.42,1.31-.63,1.97,18.33,5.58,36.65,11.15,54.98,16.73-7.46,2.24-14.5,5.13-21.94.51-2.85-1.77-6.8-1.78-10.3-2.51,2.16,1.49,4.35,2.99,7.37,5.07-6.03,1.22-10.26,2.58-15.84-.61-6.4-3.66-14.26-4.75-21.88-5.84,5.89,2.32,11.79,4.64,18.69,7.36-7.19.97-12.66,2.18-19.39-1.16-9.67-4.8-20.6-7.05-31.02-10.32-2.76-.87-5.59-1.49-8.39-2.23-.13.44-.27.88-.4,1.32,10.38,3.47,20.76,6.95,31.15,10.42-4.91,3.39-8.85,4.61-14.55,2.26-12.06-4.97-24.8-8.3-37.26-12.3-.15.44-.29.88-.44,1.31,9.75,3.41,19.51,6.81,29.26,10.22-.08.66-.16,1.31-.24,1.97-4.59,0-9.39.85-13.74-.19-6.99-1.69-13.71-4.56-20.5-7.07-12.35-4.57-24.67-9.21-36.98-13.88-2.35-.89-4.62-2.01-6.66-3.93,72.16-1.27,144.32-2.54,217.25-3.82-.84,2.07-1.61,3.98-2.55,6.3,14.69,5.24,29.38,10.49,44.07,15.73ZM596.97,372.77c0-2.41.02-4.84-.2-7.23-.58-6.26-4-9.38-10.16-9.44-6.26-.06-10.57,3.27-10.92,9.47-.43,7.4-.12,14.84-.06,22.26.06,8,.09,8.05-7.85,7.68-20.19-.94-40.37-1.93-61.28-2.93-.9-9.53-1.28-18.53,2.6-27.01,1.01-2.2,3.21-4.13,5.3-5.5,5.19-3.41,7.54-7.83,6.78-14.08-.33-2.74.16-5.57,0-8.34-.07-1.13-.76-3.07-1.4-3.17-5.05-.79-3.9-4.35-3.83-7.61.16-6.86.05-13.74.27-20.6.09-2.89.76-5.76,1.28-9.48,12.09,4.08,23.48,7.82,34.81,11.76,20.67,7.19,41.27,14.59,61.98,21.66,4.36,1.49,6.13,3.64,6.02,8.39-.39,17.63-.38,35.27-.55,52.9-.02,1.64-.24,3.28-.39,5.11h-22.39c0-8.34.01-16.08,0-23.83ZM617.68,429.02c.51,31.36.95,62.73,1.43,94.09.2,13.18.35,26.36.75,39.53.13,4.22-1.14,6.13-5.61,5.87-4.78-.28-9.59-.06-15.38-.06,0-3.19-.09-5.19.01-7.19,2.3-44.11,4.57-88.22,6.97-132.32.4-7.3,1.49-7.77,7.99-6.64,4.42.77,3.78,3.89,3.83,6.72ZM640.05,571.49c-16.35,5.85-33.05,7.97-50.1,4.48-.05-.72-.1-1.43-.15-2.15,16.75-.78,33.5-1.55,50.25-2.33ZM622.12,417.86c-3.34,0-6.82.12-10.28-.02-32.44-1.29-64.88-2.63-97.31-3.95-1.3-.05-2.79.24-3.84-.3-1.19-.61-1.98-1.98-2.94-3.02,1.14-1.04,2.28-2.98,3.43-2.98,5.74-.02,11.48.54,17.23.76,29.66,1.1,59.33,2.18,88.99,3.19,3.92.13,6.72.78,4.73,6.33ZM600.22,421.5c-2.52,48.31-5.02,96.06-7.52,143.89h-17.57c0-2.31-.01-4.1,0-5.9.27-30.28.55-60.55.81-90.83.03-3.35-.33-6.37,4.24-7.78,1.94-.6,2.94-4.25,4.85-7.3-20.76-.76-39.81-1.46-59.12-2.17-.71,5.09,2.07,6.75,5.92,8.06,1.41.48,3.31,2.47,3.3,3.75-.28,31.58-.78,63.15-1.27,94.72-.02,1.28-.39,2.55-.65,4.16-5.59,0-11.11.24-16.59-.18-1.26-.1-3.19-2.42-3.35-3.88-.82-7.19-1.33-14.43-1.61-21.66-1.45-37.49-2.8-74.99-4.17-112.48-.07-1.83,0-3.67,0-6.4,31.33,1.35,61.87,2.67,92.74,4ZM587.08,569.58c-.03.53-.06,1.06-.08,1.59-5.89,2.87-66.39.01-69.65-3.29.07-.63.14-1.25.21-1.88,23.17,1.19,46.35,2.39,69.52,3.58ZM521.17,576.72c26.34,1.21,52.68,2.78,78.93,5.16,15.71,1.43,30.64-2.51,45.88-4.25,5.39-.62,2.9-4.23,1.53-7.48,15.84-2.72,31.59-5.41,49.12-8.42,2.03,5.73,4.71,13.25,7.56,21.3-2.06.56-3.39,1.07-4.76,1.28-28.98,4.52-57.96,9.08-86.96,13.42-3.99.6-8.16.35-12.22.05-60.74-4.49-121.48-9.06-182.22-13.6-2.22-.17-4.48-.51-6.66-.25-1.86.22-5.41-1.52-4.82,3.07.02.18-2.82.73-3.77.97v-14.34c9.05,0,17.53-.21,25.99.04,30.8.9,61.61,1.63,92.38,3.05ZM432.88,437.49c2.22-.44,3.92-3.47,5.86-5.32l2.18,1.21c-1.44,38.49-2.87,76.99-4.32,115.81-2.43,0-3.7.06-4.96-.02-1.08-.07-2.14-.32-3.59-.54-.1-1.96-.28-3.78-.27-5.59.03-32.14.09-64.27.1-96.41,0-4.01-.91-7.97,5.01-9.14ZM430.36,552.82c1.54.09,2.98,1.81,4.47,2.77-1.56.77-3.13,2.23-4.67,2.21-11.13-.17-22.26-.44-33.36-1.13-3.22-.2-6.35-1.86-9.51-2.85.18-.81.35-1.63.53-2.44,2.88,0,5.77-.09,8.65.02,11.31.4,22.62.76,33.91,1.43ZM399.07,561.91c20.67.99,41.35,1.98,62.25,2.99.46,3.98-.56,5.82-4.59,5.64-17.4-.77-34.82-1.24-52.21-2.25-2.24-.13-4.33-2.72-6.49-4.17.34-.74.69-1.47,1.03-2.21ZM460.62,361.19c-7.4-.38-14.83,0-22.23-.4-6.31-.35-10.37-4.31-10.64-9.1h45.99c-3.47,6.18-6.72,9.83-13.13,9.5ZM466.83,373.73c-5.72,0-11.63.42-17.43-.23-1.97-.22-3.64-3.12-5.44-4.8,1.88-.85,3.72-2.27,5.66-2.43,4.21-.33,8.47-.04,12.7.04,6.85.13,6.94.28,4.51,7.42ZM443.22,526.26c1.49-46.54,2.92-93.09,4.28-139.64.27-9.2.1-9.21,9.16-9.15,11.83.08,11.95.08,11.89,12.15-.25,53.98-.57,107.97-.88,161.95-.01,2.19-.2,4.38-.34,7.22-7.63,0-14.47.03-21.31-.03-1.25-.01-2.49-.43-4.31-.76.52-10.7,1.17-21.22,1.51-31.75ZM502.08,572.17c-12.49-.18-24.99-.67-37.48-1.08-.16-.66-.32-1.32-.48-1.98,1.75-.86,3.52-2.5,5.26-2.47,11.82.22,23.63.79,37.25,1.32-2.3,2.2-3.44,4.22-4.55,4.21ZM518.12,337.91c.41.7.82,1.41,1.23,2.11-1.31.92-2.55,2.52-3.94,2.66-8.83.88-17.69,1.55-26.56,1.99-1.4.07-2.87-1.35-4.3-2.08,1.26-.91,2.46-2.52,3.79-2.63,9.91-.85,19.85-1.41,29.78-2.06ZM489.31,333.61c1.12-.95,2.14-2.56,3.38-2.75,4.39-.66,8.85-.98,13.29-1.11,1.13-.03,2.29,1.11,3.44,1.71-.96.84-1.85,2.29-2.89,2.41-5.46.63-10.97.93-16.46,1.34-.25-.54-.5-1.07-.75-1.61ZM497.02,370.56c-.07.72-.15,1.43-.22,2.15-3.85-.33-7.69-.65-11.54-.98.03-.39.06-.78.09-1.17h11.67ZM495.36,376.6c3.69.05,3.24,2.83,3.28,5.2.43,21.34.9,42.68,1.25,64.02.59,35.63,1.1,71.27,1.64,106.9.05,3.1,0,6.21,0,9.41h-26.76c.21-61.99,3.97-123.37,7.21-185.55,4.91,0,9.14-.04,13.37.01ZM515.72,289.37c1.34-.6,2.6-1.23,3.92-1.73.86-.33,1.83-.38,2.69-.71,18.16-7.01,35.46-5.17,53.03,3.1,14.38,6.77,29.67,11.62,44.61,17.35v7.15c-6.86-2-13.26-3.64-19.5-5.73-14.43-4.82-28.96-9.43-43.12-14.95-11.9-4.64-17.74-5.68-28.47-2.26-.45.14-.84.5-2.17,1.33,6.4.67,12.12.41,17.29,1.96,23.81,7.12,47.49,14.7,71.16,22.28,2.07.66,3.76,2.53,5.63,3.84-.24.47-.48.93-.72,1.4-1.34.1-2.69.2-4.03.3,1.56,1.26,3.13,2.52,4.98,4.01-6.29.7-103.07-33.52-105.28-37.34ZM127.83,220.11h24.9c-5.39,4.89-19.22,4.52-24.9,0ZM153.24,304.05c.02.51-.23,1.04-.42,1.85h-8.42c0-8.87,0-17.35,0-25.83.02-16.31-.04-32.62.18-48.93.02-1.68,1.68-3.33,2.58-5,1.13,1.52,3.19,3,3.26,4.57,1.1,24.44,1.94,48.89,2.82,73.33ZM141.54,226.69v79.59h-11.09c1.67-26.67,3.31-52.99,4.97-79.59h6.12ZM228.3,310.38c85.44.22,170.88.5,256.33.8,5.19.02,10.4.35,15.57.79,1.12.1,2.15,1.29,3.23,1.97-1.08.71-2.12,1.95-3.25,2.04-10.16.85-20.34,2.13-30.51,2.09-110.33-.4-220.66-1.02-331-1.58-5.37-.03-10.73,0-16.38,0-1.74-5.82,1.39-6.15,5.15-6.15,33.62.04,67.24-.05,100.86.03ZM183.29,230.1c1.15,24.27,2.3,48.54,3.42,72.82.05,1.06-.17,2.14-.3,3.53h-8.12c-.21-1.08-.58-2.11-.58-3.13-.06-23.93-.08-47.86-.1-71.79,0-1.11-.23-2.4.25-3.29.57-1.07,1.66-2.22,2.75-2.51.59-.16,1.79,1.28,2.43,2.2.37.52.21,1.44.25,2.18ZM161.77,219.88h26.14c-5.47,4.97-20.96,4.75-26.14,0ZM174.51,306.31h-12.31c.74-11.64,1.44-22.72,2.14-33.8.83-13.14,1.64-26.29,2.49-39.43.11-1.66-.08-3.67.78-4.87.98-1.35,2.93-2.53,4.55-2.68.84-.08,2.71,2.22,2.73,3.47.14,6.86-.24,13.72-.28,20.59-.08,16.7-.08,33.39-.11,50.09,0,2.17,0,4.34,0,6.63ZM207,219.87h24.62c-3.9,4.9-20.99,4.6-24.62,0ZM233.5,306.5c-8.94.89-9.05.82-9.05-6.8-.01-24.09,0-48.18,0-72.94,1.66-.09,3.53-.18,6.19-.32.97,26.95,1.91,53.35,2.87,80.06ZM221.25,230.29c-.14,23.59-.15,47.18-.24,70.77,0,1.8-.24,3.61-.39,5.66h-11.45c.39-8.8.67-17.26,1.15-25.72.96-16.87,2.02-33.74,3.07-50.61.15-2.46-.63-5.48,3.55-5.53,3.95-.05,4.33,2.22,4.31,5.42ZM246.7,219.34h26c-2.61,4.52-22.03,4.78-26,0ZM273.23,306.84h-10.18v-81.35h6.3c1.28,26.92,2.57,53.84,3.88,81.35ZM259.25,226.3v80.22h-10.83c.55-8.75,1.03-17.03,1.6-25.31,1.14-16.65,2.33-33.29,3.48-49.93.24-3.44.75-6.51,5.75-4.98ZM289.38,219.73h28.22c-3.28,4.6-23.28,4.98-28.22,0ZM317.78,306.91h-10.75v-80.74c2.29-.13,4.16-.24,6.87-.39,1.3,27.16,2.57,53.79,3.88,81.13ZM304.6,226.17c0,2.35.03,4.33,0,6.31-.34,21.52-.73,43.03-1.03,64.55-.15,10.82-.08,10.82-12.49,9.47,1.84-26.63,3.69-53.32,5.59-80.69,3.28.15,5.26.24,7.94.36ZM334.26,219.94h30.5c-5.17,4.79-24.84,4.93-30.5,0ZM361.69,306.97c-3.18.16-6.22.32-9.66.5v-81.16c6.46-2.22,6.85,1.79,7.03,5.66.93,20.22,1.8,40.44,2.61,60.67.18,4.59.03,9.19.03,14.33ZM348.3,226.09v80.54h-12.11c1.67-26.74,3.32-53.11,4.99-79.86,2.68-.25,4.61-.44,7.12-.68ZM402.98,223.45c-6-.61-13.11,2.99-18.52-4.07h25.54c.14.74.28,1.48.41,2.23-2.48.66-5.04,2.08-7.43,1.84ZM410.06,306.91h-19.02c1.05-26.78,2.08-53.3,3.13-80h12.14c1.24,26.49,2.48,52.88,3.76,80ZM453.84,231.37c.7,23.01,1.36,46.02,1.89,69.03.17,7.28-.1,7.34-8.24,6.55-.14-1.2-.34-2.08-.34-2.97-.05-24.13-.1-48.26-.07-72.4,0-2.42-.71-5.5,3.56-5.41,3.96.09,3.14,3.03,3.21,5.2ZM433.84,223.35c-1.64.05-3.32-1.09-4.98-1.68.18-.53.36-1.06.54-1.59h24.88c.06.74.12,1.49.19,2.24-6.62,2.3-13.75.83-20.62,1.03ZM443.57,226.31v80.59h-13.74c0-2.88-.14-5.44.02-7.97,1.45-22,2.91-44.01,4.48-66.01.55-7.7.96-7.88,9.23-6.61ZM468.9,219.96h31.18c-4.04,5.73-27.13,5.94-31.18,0ZM497.28,307.82h-10.35v-79.91h8.15c.74,26.71,1.46,53.1,2.2,79.91ZM483.38,233.76c.12,21.16.2,42.32.4,63.47.11,11.93-.06,12.15-13.43,9.73.96-26.25,1.91-52.33,2.88-78.83h10.15c0,1.75,0,3.69,0,5.63ZM405.01,216.67c-40.11-.12-80.21-.53-120.32-.55-35.65-.02-71.3.4-106.95.49-14.67.04-29.34-.32-44-.36-3.72,0-5.27-1.21-5.16-5.19-.39-.39-.95-1-1.45-1.85-1.41-2.39-1.32-4.82-1.3-5.79.07-3.3-.33-9.2-.97-17.18-.19-.53-.45-1.11-.79-1.73-.6-1.08-1.28-1.9-1.86-2.51,3.01-.7,6.01-2.01,9.02-2.02,91.75-.14,183.49-.16,275.24-.19,45.68-.01,91.37.05,137.05-.06,14.11-.03,28.22-.53,42.33-.75,43.21-.67,86.42-1.34,129.64-1.96,14.85-.21,29.71-.31,44.56-.42,1.57-.01,3.14.24,4.71.38.12.78.24,1.56.36,2.35-4.22.57-8.44,1.58-12.67,1.65-26.18.42-52.37.65-78.55.92-11.49.12-19.64.11-35.92.35-20.59.3-36.92.73-45.12.96-2.59.07-4.47.13-4.92.14-13.84.41-47.92.91-128.72,1.48.03,7.12.07,14.24.1,21.36,5.41-.02,10.82-.02,16.22-.05,36.01-.16,72.02-1.24,108.02-1.86,5.91-.1,11.83-.01,18.06-.01.94,9.33-1.18,11.51-9.09,11.52-10.07,0-20.52-1.21-30.08,1.1-8.08,1.95-15.66.37-23.4,1.12-10.05.97-20.06,2.25-30.1,3.35-1.27.14-2.56.02-4.16.02-.15-1.66-.29-3.19-.43-4.71-33.29,0-66.33.08-99.36-.02ZM491.06,177.15c3.88-6.63,7.02-8.04,13.83-6.42,7.98,1.91,15.96,3.82,23.95,5.72-.07.23-.15.46-.22.69h-37.55ZM725.01,173.4c7.55-3.39,14.84-7.89,22.75-9.74,4.52-1.06,10.05,2.19,15.12,3.5.13.79.25,1.59.38,2.38-2.3,1.09-4.6,2.18-7.68,3.64-.23-3.32-.33-4.89-.49-7.24-2.03.2-4.9-.32-5.65.71-2.49,3.43-5.63,4.55-9.58,5.24-4.84.85-9.54,2.54-14.3,3.87-.18-.79-.37-1.58-.55-2.37ZM748.26,268.46c.6-22.34,1.19-44.79,1.78-66.94,6.1-1.22,7.64.7,7.66,5.33.09,18.17.5,36.35.74,54.52.11,8.56-.18,8.75-10.19,7.09ZM739.53,201.74v67.32h-6.25c-.21-.5-.62-1-.61-1.48.54-19.81,1.04-39.62,1.77-59.43.1-2.63-.36-6.38,5.09-6.41ZM728.99,202.4v66.77h-6.41c0-2.74-.05-5.28,0-7.81.44-18.2.93-36.39,1.33-54.59.08-3.49.62-6.03,5.07-4.37ZM716.69,265.72c.06,5.14-2.8,4.63-6.58,4.03-.2-1.65-.57-3.26-.55-4.86.32-18.54.61-37.09,1.16-55.63.09-3.09-.64-7.57,5.17-7.48.19,1.16.5,2.22.51,3.29.1,20.22.07,40.44.29,60.66ZM706.53,270.14h-7.97c.93-22.38,1.86-44.51,2.78-66.63.6-.37,1.19-.74,1.79-1.11,1.13,1.3,3.24,2.58,3.25,3.89.21,21.1.15,42.2.15,63.85ZM692.38,270.45h-5.72v-66.81c.7-.43,1.4-.86,2.1-1.29,1.21,1.1,3.46,2.19,3.47,3.3.21,21.48.15,42.96.15,64.8ZM683.06,203.15v67.71c-2.61.15-4.55.26-6.81.39-.25-1.51-.68-2.74-.62-3.95.91-19.63,1.84-39.26,2.85-58.89.15-2.84.02-6.3,4.58-5.26ZM669.65,204.35v66.69h-6.26c-.17-1.51-.48-2.91-.46-4.31.3-18.38.58-36.77,1.05-55.15.08-3.18-.61-7.47,5.67-7.24ZM660.4,211.26c-.4,18.15-.89,36.29-1.19,54.44-.07,4.49-1.46,6.68-6.91,4.95.48-10.24.96-20.55,1.46-30.87.47-9.81.91-19.61,1.5-29.41.16-2.67.07-5.9,5.15-5.42,0,2.06.04,4.18,0,6.3ZM649.2,209.1c0,20.54,0,41.09,0,62.25-3.36.19-5.15.29-7.65.43-.11-2.23-.34-4.17-.29-6.11.44-17.78.92-35.55,1.43-53.32.05-1.65,0-3.5.72-4.88.52-1,2.2-1.83,3.41-1.89.72-.04,1.56,1.53,2.27,2.44.19.24.11.72.11,1.09ZM634.83,211.27c-.15,18.92-.29,37.85-.48,56.77-.01,1.07-.34,2.13-.57,3.42h-5.99c0-2.43-.04-4.77,0-7.1.35-17.25.7-34.5,1.07-51.75.02-1.11-.18-2.4.3-3.29.68-1.26,1.9-2.24,2.89-3.33.89,1.2,1.84,2.37,2.63,3.64.26.42.14,1.09.13,1.64ZM624.63,211.42c-.04,19.11-.25,38.22-.47,57.33-.01,1.06-.39,2.12-.64,3.41h-5.47c0-5.34-.16-10.49.03-15.63.54-15.02,1.15-30.04,1.96-45.04.08-1.56,1.71-3.05,2.62-4.57.69,1.5,1.97,3,1.97,4.5ZM611.72,267.23c.02,4.73-1.93,5.91-6.91,4.48.84-21.92-.66-44.11,2.45-66.1.99-.03,1.98-.06,2.97-.09.57,4.07,1.61,8.14,1.64,12.21.1,16.5-.22,33.01-.15,49.51ZM599.3,269.68c0,.51-.3,1.03-.58,1.88-1.53.07-3.1.15-5.46.26v-53.45c2.74-.09,5.74-.83,5.76,3.59.09,15.91.2,31.81.27,47.72ZM589.86,224.75c-.03,14.06-.04,28.12-.31,42.17-.03,1.74-1.58,3.44-2.42,5.17-.94-1.61-2.74-3.26-2.68-4.83.52-14.78,1.33-29.55,2.13-44.33.06-1.15.73-2.27,1.11-3.4.55.02,1.11.05,1.66.07.18,1.72.51,3.44.5,5.16ZM579.34,219.46v52.67c-7.3.51-7.49.51-7.55-6.39-.13-14.79-.04-29.58-.04-44.27,2.82-.75,4.71-1.25,7.59-2.01ZM568.6,225.41c-.06,13.56-.25,27.12-.48,40.68-.12,7.08-.54,7.34-8.24,6,0-5.66-.15-11.38.03-17.08.31-9.84.79-19.68,1.29-29.51.14-2.74-.04-5.89,4.19-5.8,4.32.09,3.21,3.4,3.2,5.71ZM555.32,267l-2.7.3c-.46-1.86-1.25-3.7-1.32-5.57-.43-10.9-.83-21.8-.89-32.7,0-1.7,1.78-3.4,2.74-5.1.72,1.62,2.06,3.24,2.08,4.87.17,12.73.1,25.47.1,38.21ZM545.78,237.45c.16,10.74.46,21.48.6,32.22.13,9.73-.5,10.29-10.98,10.28,0-6.24-.14-12.48.03-18.72.28-10.74.73-21.47,1.16-32.2.29-7.18.57-7.4,9.17-7.47,0,5.29-.07,10.59.01,15.9ZM532.47,226.93c-.32,17.02-.86,34.03-1.23,51.04-.11,5.07-4.1,3.45-7.78,5.6.9-13.96,1.64-26.11,2.48-38.26.44-6.27.91-12.55,1.75-18.77.18-1.34,1.99-2.46,3.05-3.68.6,1.35,1.75,2.72,1.72,4.06ZM517.34,225.13c.33,19.07.91,38.13.66,57.19-.03,2.08-4.77,4.09-8.1,6.76-.63-2.47-.95-3.12-.95-3.78-.05-17.62-.09-35.24-.06-52.85,0-4.73,1.02-8.7,8.44-7.32ZM719.29,169.36c2.75.17,5.75-.99,8.39-2.14,6.28-2.74,12.37-5.9,18.62-8.73,2.99-1.35,5.78-1.13,8.77.89,4.18,2.83,8.82,4.99,13.26,7.44-.16.34-.33.67-.49,1.01-3.92-1.7-7.99-3.14-11.74-5.17-4.8-2.61-8.89-1.75-13.59.62-8.05,4.04-16.47,7.36-24.83,10.77-1.41.58-3.26.08-5.18.08,1.13-3.45,2.88-4.99,6.79-4.75ZM560.54,156.35c20,4.74,39.94,9.74,59.91,14.61.67.16,1.42.02,2.31-.94-21.9-5.43-43.8-10.86-65.7-16.29.06-.36.13-.73.19-1.09,6.91.64,13.82,1.27,20.72,1.91,1.11.1,2.51.7,3.27.24,7.66-4.6,15.1-.62,23.59.68-1.86-1.27-2.93-2-4.88-3.34,24.23,0,45.98,7.5,68.36,11.72-12.73-3.57-25.46-7.15-38.18-10.72.11-.66.22-1.33.32-1.99,26.79,2.82,52.99,8.73,78.96,15.82-.04.51-.08,1.02-.12,1.54-2.29-.2-4.58-.4-8.01-.71,2.18.9,3.28,1.36,4.38,1.81.12.61.23,1.22.35,1.83-3.36,1.03-6.69,2.82-10.09,2.95-10.54.4-21.12-.03-31.67.24-18.9.49-37.8,1.27-56.7,1.9-2.37.08-4.75.01-8.04.01,2.76-6.24-2.42-7.42-5.27-10.03-.56-.52-1.68-.61-2.54-.59-17.72.34-33.98-6.06-50.55-10.99-.12-.04-.17-.29-1.28-2.32,7.72,1.38,14.27,2.24,20.66,3.76ZM535.32,151.1c-.11.74-.22,1.47-.32,2.21-6.46-1.28-12.92-2.55-19.38-3.83,7.06-3.1,13.29-.05,19.7,1.62ZM332.39,134.05c2.74,0,5.58-.5,8.19.08,16.82,3.73,33.59,7.74,50.4,11.55,2.95.67,6.01.79,9.05.58-15.89-4.04-31.77-8.07-47.66-12.11.05-.63.11-1.26.16-1.89,3.47.17,6.95.29,10.42.53,3.44.24,6.87.76,10.31.88,8.36.3,16.76.09,25.08.79,5.3.45,10.49,2.17,15.72,3.32-1.92-1.3-3.84-2.6-5.84-3.95.49-.35.79-.76,1.05-.74,6.4.63,13.22,2.99,19.1,1.53,6.75-1.67,12.25-.06,18.2,1.57v-2.56c14.98-3.41,29.66-1.53,43.27,4.25,6.38,2.71,13.02,2.76,19.17,5.27,3.01,1.23,6.59,1.94,6.58,6.32-7.61-2.18-15.21-4.36-22.81-6.55-.15.53-.29,1.07-.44,1.6,33.33,9.36,66.66,18.72,101.14,28.41-2.12.91-4.06,2.49-5.93,2.42-12.54-.48-25.06-1.32-37.59-2.04-1.45-.62-2.85-1.4-4.36-1.8-31.37-8.24-62.73-16.47-94.12-24.6-12.49-3.23-25.06-6.21-37.59-9.3,8.09,2.48,16.12,5.18,24.28,7.39,22.7,6.16,45.41,12.27,68.2,18.1,14.46,3.7,29.05,6.86,43.58,10.25,1.07.54,2.14,1.09,3.21,1.63-.09.64-.19,1.28-.28,1.92-7.35-.6-14.8-.6-22.01-1.95-7.25-1.36-14.23-4.11-21.36-6.14-5.52-1.57-11.07-3.08-16.65-4.43-11.5-2.79-23.02-5.48-34.54-8.18-1.73-.4-3.5-.62-5.58.33,11.67,3.59,23.35,7.18,35.02,10.76-.03.51-.07,1.03-.1,1.54-2.48-.21-5.02-.13-7.42-.67-29.65-6.67-59.23-13.6-88.92-20.09-17.38-3.8-34.91-6.92-52.36-10.4-2.27-.45-4.47-1.27-6.71-1.92.04-.56.08-1.12.12-1.69ZM305.45,135.07c.17-.85.35-1.7.52-2.55,19.51,4.15,39,8.35,58.52,12.42,19.79,4.13,39.67,7.9,59.41,12.24,19.73,4.33,39.36,9.17,59.17,13.82-.43,4.2-2.02,6.11-6,5.63-9.73-1.18-19.61-1.56-29.2-3.44-36.06-7.09-72.03-14.66-108.03-22.06-4.73-.97-9.52-1.75-14.13-3.14-11.62-3.51-23.24-4.18-34.78-.19-2.14-7.58-1.68-8.75,4.9-9.82,3.93-.64,8.19-1.08,12.01-.26,47.36,10.22,94.65,20.7,141.98,31.07,7.36,1.61,14.78,2.98,22.17,4.46.14-.78.27-1.56.41-2.35l-166.96-35.83ZM291.63,126.24c.66-1.16,3.08-1.67,4.74-1.76.68-.04,2.29,2.16,2.05,2.71-.57,1.29-1.96,2.25-3.09,3.25-.52.47-1.22.74-2.42,1.44,1.38,1.19,2.47,2.12,4.18,3.6-2.79.28-5.03.51-9.15.92,1.48-4.3,2.16-7.48,3.69-10.17ZM121.99,162.95c4.29-1.6,6.31-.5,8.96,3.58-2.76.62-5.33,1.2-8.37,1.89,1.65,3.55,3.59,5.15,7.35,4.36,40.16-8.41,80.32-16.77,120.51-25.07,11.58-2.39,23.22-4.51,34.82-6.75,1.93,5.69.42,8.21-5.25,9.2-36.95,6.43-73.86,13.12-110.78,19.75-2.3.41-4.57,1.01-6.86,1.53.08.45.17.91.25,1.36,16.34-2.21,32.76-3.95,49-6.72,29.28-4.99,58.43-10.78,87.72-15.78,6.07-1.04,12.68-1.14,18.69.06,38.77,7.75,77.45,15.98,116.16,24.08,1.38.29,2.7.86,3.99,2.54-2.24,0-4.48,0-6.73,0-91.77-.36-183.55-.73-275.32-1.04-8.73-.03-17.46.5-26.19.52-2.73,0-5.94-.07-8.07-1.45-2.34-1.51-4.55-4.39-5.08-7.03-.27-1.34,3.01-4.21,5.2-5.03ZM114.88,320.42c7.21-.53,14.46-.86,21.69-.82,109.19.53,218.37,1.13,327.56,1.72,13.74.07,27.48.17,41.22.39,1.59.02,3.16.86,4.74,1.33-.21.67-.42,1.34-.63,2.01-10.88.66-21.76,1.92-32.64,1.88-99.16-.31-198.32-.84-297.48-1.33-20.61-.1-41.22-.31-61.83-.49-2.01-.02-4.03-.18-6.04-.28-.32-.53-.63-1.07-.95-1.6,1.45-.98,2.85-2.71,4.36-2.82ZM103.29,328.37c2.21-.22,4.45-.36,6.67-.35,122.04.54,244.07,1.1,366.11,1.65,2.55.01,5.1,0,8,0,.13,2.5.22,4.25.35,6.63-128.52-.63-256.62-1.25-385.12-1.88-.9-3.81.53-5.7,4-6.06ZM94,337.65c36.6.05,73.2-.01,109.8.19,83.6.47,167.21,1.08,250.81,1.62,7.01.05,14.02,0,21.04,0,.33.57.66,1.15.99,1.72-1.17,1.41-2.21,3.89-3.54,4.05-6.31.75-12.71,1.22-19.07,1.18-120.76-.87-241.52-1.84-362.27-2.79-1.26-.01-2.52-.21-3.78-.32-1.59-6.06,2.4-5.66,6.01-5.66ZM264.02,456.18c1.16.13,2.93,2.7,2.92,4.14-.21,23.22-.52,46.44-1.25,69.65-.08,2.57-2.29,6-4.53,7.36-3.8,2.31-8.41,3.29-13.24,5.03-.39-2.53-.76-3.92-.8-5.33-1.38-50.69-2.73-101.39-4.06-152.09-.09-3.28-.72-6.8,3.39-8.56.63-.27,1.17-1.61,1.13-2.42-.34-6.2,4.05-8.89,8.18-12.2,3.28-2.63,5.68-6.36,8.47-9.6-.38-.66-.76-1.31-1.14-1.97,7.57,0,15.15-.15,22.71.14,1.28.05,2.63,1.87,3.69,3.1,2.97,3.42,5.45,7.37,8.81,10.33,2.88,2.55,5.89,4.49,5.42,8.93-.08.78.33,2.15.87,2.37,5.66,2.25,4.55,7.07,4.38,11.41-.72,18.75-1.53,37.49-2.35,56.23-.08,1.83-.38,3.65-.64,6.07-16.35-.64-32.4-1.27-48.86-1.92.75,4.59,1.11,8.67,6.91,9.32ZM298.78,542.32c-4.6,3.11-25.59,2.11-33.1-.98.04-.52.08-1.03.12-1.55,10.74.82,21.47,1.65,32.99,2.53ZM314.48,378.57c4.95,0,8.65.21,12.33-.05,4.48-.32,6.05,1.2,6.08,5.94.17,32.85.58,65.7,1.04,98.55.26,18.56.77,37.11,1.14,55.67.04,2.03.34,4.22-.26,6.08-.97,3.03-2.72,6.55-6.65,4.13-5.8-3.57-11.58-5.81-19.5-2.5,1.97-56.62,3.89-111.95,5.83-167.81ZM309.17,369.69c1.17-1.05,2.32-2.96,3.52-2.99,5.91-.15,11.86,0,17.75.5,1.54.13,2.94,1.92,4.4,2.94-1.66,1.25-3.16,3.12-5.01,3.6-2.43.63-5.15.15-7.74.15,0,.04,0,.08,0,.12-3.14-.14-6.37.09-9.39-.6-1.38-.31-2.36-2.43-3.52-3.72ZM325.89,362.1c-7.04.07-14.11.05-21.13-.39-6.44-.4-9.44-3.91-9.73-10.28h43.22c-2.84,10.32-3.02,10.58-12.36,10.67ZM230.63,365.79c1.5.25,2.76,1.94,4.12,2.97-1.22,1.59-2.38,4.49-3.67,4.55-6.24.3-12.54.05-18.77-.53-1.19-.11-3.31-3.01-2.98-3.82.61-1.53,2.54-3.14,4.18-3.5,2.65-.57,5.51-.15,8.28-.15,0,.12,0,.23,0,.35,2.96,0,5.97-.34,8.85.14ZM233.22,358.21c-.95,1.28-2.76,2.66-4.21,2.7-9.43.23-18.87.36-28.29,0-6.52-.25-9.04-3.07-10.58-10.63h47.6c-1.6,2.9-2.8,5.61-4.52,7.93ZM43.16,349.41c1.71-.96,3.43-2.75,5.13-2.75,21.11.06,42.22.39,63.33.64,2.72.03,5.45,0,8.17,0,.32.83.65,1.67.97,2.5-1.71.94-3.42,2.7-5.14,2.71-22.77.15-45.55.11-68.32-.11-1.39-.01-2.76-1.95-4.14-2.99ZM86.16,498.12c-4.45-.36-7.87-.16-9.2-.24-2.92-.17-3.24.09-5.11-.08-3.46-.3-5.26-.49-6.44-1.81-1.68-1.87-1.09-4.87-.87-5.83,2.39-34.7,4.78-69.39,7.18-104.09h21.16c.14,2.58.37,4.74.37,6.91.01,32.66-.12,65.33.11,97.99.04,5.59-1.5,7.6-7.2,7.14ZM65.87,375.11c11.21,1.31,22.19-1.07,33.18,3.5-10.23,6.56-29.75,4.86-33.18-3.5ZM99.59,369.06c-.67,1.22-2.84,2.29-4.33,2.29-8.69,0-17.38-.16-26.06-.58-7.43-.36-9.73-6.28-12.76-12.49h47.44c-1.67,4.37-2.64,7.76-4.29,10.77ZM207.13,391.24c-1.16,38.79-2.46,77.57-3.73,116.35-.09,2.72-.24,5.43-.41,9.24-17.48-17.06-39.54-17.39-58.98-1.82-8.78,7.04-8.83,7.11-18.35.75-5.09-3.4-10.29-6.74-14.79-10.83-2.17-1.97-3.93-5.59-3.98-8.5-.7-35.64-1.2-71.29-1.28-106.93,0-4.22,2.58-8.55,4.46-12.6.49-1.07,2.8-1.78,4.3-1.82,14.33-.46,23.04-8.84,28.9-20.79,1.54-3.13,2.93-4.53,6.47-4.43,9.46.28,18.94.39,28.4.19,3.73-.08,6.3,1.26,7.34,4.51,1.75,5.46,5.94,7.73,10.76,9.56,3.34,1.27,6.77,2.54,6.2,7.24-.06.49.16,1.28.52,1.53,6.9,4.88,4.36,11.97,4.17,18.36ZM209.13,508.14c1.16-40.45,2.27-80.89,3.38-121.34.24-8.81.21-8.82,9.01-8.59,11.06.29,10.98.29,11.13,11.38.63,45.47,1.3,90.94,1.99,136.41.04,2.95.34,5.89.44,7.62-5.73,3.63-10.41,6.75-15.27,9.56-1.31.76-3.73,1.34-4.68.66-2.75-1.97-7.38-2.27-7.13-7.32.47-9.45.87-18.91,1.14-28.37ZM335.85,620.37c-18.57,1.38-36.28,5.66-52.53,15.18-2.31,1.35-5.25,1.84-7.97,2.24-10.7,1.59-18.63,2.57-20.44,2.62-5.54.15-18.4,1.81-46.01,6.8,8.46-10.83,12.55-26.4,13.82-25.91.5.19,1.75,1.9,2.02,4.87.02.27.47.63.78.73,3.92,1.18,8.04,2.07,7.6,7.72-.03.35,2.51,1.25,3.88,1.3,10.36.35,20.32-.66,29.01-7.37,21.08-16.26,46.13-21.15,72.51-24.7.44,5.25.88,10.46,1.34,15.9-1.85.29-2.91.55-3.99.63ZM346.7,608.26c.66-.34,1.31-.68,1.97-1.02,1.84,3.57,3.67,7.13,5.64,10.96-8.2,1.74-9.46-.19-7.61-9.94ZM347.08,541.85c-.64-17.36-1.35-33.65-1.81-49.95-.97-35.08-1.81-70.17-2.7-105.26-.08-3.1-.68-6.26,3.29-7.95,1.01-.43,1.75-2.94,1.6-4.38-.52-4.84,2.28-7.16,5.66-9.89,4.22-3.4,7.57-7.86,11.51-11.65,1.11-1.07,2.96-1.98,4.46-1.96,15.97.12,31.94.34,47.9.83,1.7.05,3.96,1.63,4.89,3.16,2.88,4.76,6.39,8.41,11.68,10.57,1.77.72,3.13,3.16,4.06,5.11,7.46,15.62,1.61,31.97,2.5,47.96.28,5.04-1.74,6.8-6.84,6.63-22.83-.77-45.66-1.25-68.5-1.82-2.38-.06-4.75,0-7.41,0,.12,1.11.04,2.35.3,2.43,4.89,1.47,6.07,7.02,9.39,9.15,3.57,2.28,9.31,1.16,14.1,1.55.33.03.65.28,1.48.67,0,1.76.05,3.74,0,5.73-1,32.3-2.01,64.59-3.01,96.89-.03.93.14,1.92-.12,2.77-.67,2.2-1.12,5.81-2.41,6.17-1.92.54-4.94-.68-6.69-2.12-6.73-5.54-14.32-6.52-23.32-4.63ZM719.69,630.75c-17.09-4.11-34.29-6.65-51.88-3.8-21.38,3.46-37.17,14.25-45.37,34.9-1.92,4.83-3.92,9.63-6.04,14.38-2.12,4.76-5.78,6.93-10.81,4.83-5.25-2.2-10.85-4.2-15.29-7.6-10.91-8.36-22.79-14.48-35.73-18.97-30.71-10.65-62.47-16.43-94.54-20.66-25.22-3.32-50.53-5.96-75.77-9.07-3.99-.49-7.94-1.7-11.77-2.99-1.15-.39-1.81-2.21-2.69-3.38.38-.31.77-.62,1.15-.93,1.26.91,2.51,1.82,4.5,3.26,2.62-8.08,8.48-5.47,14-4.69,47.25,6.66,94.55,12.91,141.73,20.01,24.28,3.66,47,12.35,67.72,25.74,3.08,1.99,4.92,1.72,6.61-1.53,1.72-3.29,3.76-6.4,5.59-9.64,13.33-23.56,34.28-34.52,60.55-36.96,15.18-1.41,30.02.24,44.74,3.84,2.16.53,4.35.93,6.54,1.34.3.05.65-.22,1.65-.59-5.49-17.92-15.39-34.59-16.11-53.97,10.19,22.43,25.43,42.83,26.7,69.7-5.2-1.07-10.38-2-15.5-3.23ZM719.92,560.01c3.01-2.88,6.34-5.42,9.55-8.08.48.23.95.45,1.43.68v32.92c-.45.26-.89.52-1.34.78-3.57-7.45-7.22-14.86-10.6-22.4-.45-1,.11-3.1.96-3.9ZM738.72,547.04c6.25,9.74,13.88,19.42,2.05,31.3-.74-11.24-1.39-21.27-2.05-31.3ZM797.18,567.44c-1.94,5.56-2.83,12.19-6.49,16.3-10.14,11.39-17.03,23.77-20.11,38.89-2.02,9.93-13.16,14.54-22.71,11.03-1.18-.43-2.25-2.26-2.63-3.64-4.86-17.75-3.58-34.21,8.51-49.36,7.58-9.5,6.43-20.35-1.31-30.11-4.03-5.07-6.5-10.62-6.27-18.41,6.83,5.86,13.14,5.09,19.2.17,4.65,4.58,4.81,9.84,4.28,15.52-.7,7.36-1.41,14.78-1.16,22.14.32,9.34-3.97,16.36-9.56,23.03-7.79,9.3-10.42,20.21-10.4,32.26,5,1.46,8.43.87,9.53-4.85,2.17-11.35,8.14-20.55,16.32-28.54,1.79-1.74,3.25-4.13,4.06-6.5,3.28-9.59,10.05-16.19,18.48-22.5.14,1.9.67,3.4.26,4.57ZM777.08,562.61c1.52-6.38,2.77-11.62,4.41-18.52,2.09,2.48,4.12,3.86,3.96,4.9-.76,5.03-1.72,10.19-8.37,13.63ZM851.15,411.1c-.02,25.06-.18,50.01-.46,74.87-5.08-3.58-11.15-5.03-17.13-3.08-5.96,1.94-9.11-.05-13.19-3.03-12.69-9.26-26.44-6.66-35.04,6.39-.41.62-.68,1.62-1.23,1.8-1.37.46-3.01,1.02-4.25.62-.71-.23-1.4-2.38-1.15-3.44,2.72-11.6-3.6-20.96-15.52-22.44-2.89-.36-5.86-.05-8.59-.05-3.5-11.67-8.79-16.62-17.84-15.09-5.01.85-9.95,3.74-14.22,6.72-2.91,2.04-4.65,2.83-8.2,1.35-16.96-7.11-32.6,1.5-36.17,19.51-.28,1.43-.63,2.84-1,4.52-8.11.04-15.31,1.94-20.47,8.5-5.29,6.74-5.47,14.27-2.83,21.84-14.2,8.21-16.27,21.07-5.31,31.09,2.59,2.37,5.44,4.15,5.39,8.37-.01,1.01,2.61,2.89,4.07,2.94,5.04.16,10.11-.32,16.16-.61.98,1.73,2.59,4.56,4.42,7.79-16.76,2.52-32.94,4.95-49.61,7.46-.22-4.09-.47-7.22-.55-10.35-.99-40.67-1.91-81.34-2.95-122.01-.3-11.91-.43-11.71,11.35-12.81,57.89-5.38,115.77-10.88,173.65-16.33,13.26-1.25,26.53-2.47,40.65-3.78,0,3.08,0,6.17,0,9.26ZM857.97,398.07c-6.28.47-12.67.88-19.04,1.44-65.48,5.8-130.95,11.62-196.43,17.43-3.88.34-7.8.4-11.67.85-4.38.5-5.84-1.11-4.38-5.79,13.42-1.05,26.9-2.01,40.36-3.18,49.95-4.34,99.88-8.77,149.83-13.12,12.02-1.05,24.07-1.86,36.09-2.91,3.61-.31,5.75.58,5.24,5.29ZM854.07,387.42c-64.19,5.76-128.41,11.18-192.56,17.34-39.03,3.75-77.96.86-116.93-.07-10.95-.26-21.9-.9-32.85-1.23-4.26-.13-6.41-1.53-4.88-5.78,10.39,0,20.21-.25,30,.05,27.66.85,55.33,2.93,82.97,2.61,27.26-.31,54.52-2.56,81.73-4.68,44.62-3.48,89.19-7.63,133.81-11.26,7.7-.63,15.49-.09,23.24-.09.06.71.13,1.43.19,2.14-1.57.33-3.13.82-4.71.97Z"/>
    <path class="cls-1" d="M808.92,425.41c-.18,12.17-.12,24.35-.12,36.83h17.72c0-12.9.06-25.46-.12-38.02-.01-.91-1.72-2.57-2.63-2.56-4.06.03-8.15.36-12.17.99-1.05.17-2.67,1.79-2.68,2.76Z"/>
    <path class="cls-1" d="M179.21,401.07h-56.44c2.44,3.98,3.65,8.07,6.38,10.02,9.94,7.11,9.45,16.92,8.29,27.15-.06.55-.04,1.11-.06,1.67-.42,13-.92,25.99-1.23,38.99-.11,4.45-1.93,6.44-6.49,5.95-3.13-.33-6.31-.42-9.46-.39-4.61.04-5.2,3.59-5.47,6.98-.29,3.63,2.27,4.08,5.17,4.11,3.15.03,6.31.3,9.46.47,16.1.9,32.2,1.8,49.13,2.74-.13-5.68.64-10.99-5.03-12.63-3.9-1.13-4.35-3.16-4.36-6.38-.01-17.65-.02-35.3-.24-52.95-.05-3.96.77-6.95,3.87-9.8,4.34-3.98,5.83-9.47,6.48-15.95ZM137.21,411.99c-1.92-.12-3.68-2.94-5.52-4.51.34-.49.68-.97,1.02-1.46h35.39c.29,4.57-1.48,6.26-4.82,6.27-8.69.02-17.4.22-26.06-.3ZM171.32,491.23c-.05.85-.09,1.7-.14,2.55-15.52-.67-31.04-1.34-46.56-2.01.14-.98.27-1.97.41-2.95,15.43.8,30.86,1.61,46.29,2.41Z"/>
    <path class="cls-1" d="M694.64,294.48c.16.06.33.12.49.18,0,0,0,0,0,0,.12.03.24.05.36.07-.09-.06-.17-.12-.26-.18-.2-.02-.4-.04-.6-.06Z"/>
    <path class="cls-1" d="M655.67,282.72c11.01,3.78,22.07,7.43,33.16,10.97,1.84.59,3.86.6,5.82.79-15.02-5.47-30.04-10.95-45.06-16.42,1.65,2.39,3.75,3.86,6.08,4.66Z"/>
    <path class="cls-1" d="M723,279.01l20.99,5.84c.14-.55.29-1.1.43-1.65-7.01-1.77-14.02-3.55-21.03-5.32-.13.38-.26.75-.39,1.13Z"/>
    <path class="cls-1" d="M772.34,293.43c-6.32-2.2-12.63-4.41-18.95-6.61-.16.45-.32.9-.47,1.35,6.32,2.21,12.63,4.42,18.95,6.63.16-.45.32-.91.48-1.37Z"/>
    <path class="cls-1" d="M703.2,281.49l20.62,4.67c-6.71-2.14-13.42-4.29-20.12-6.44-.17.59-.33,1.18-.5,1.77Z"/>
    <path class="cls-1" d="M723.82,286.16c.55.17,1.09.35,1.63.52,0,0,.02-.01.02-.02.51.16,1.01.32,1.52.47-.47-.19-.93-.39-1.4-.57-.59-.13-1.19-.27-1.78-.4Z"/>
    <path class="cls-1" d="M672.87,171.09c-15.14-3.98-30.28-7.95-45.42-11.93-.09.37-.18.75-.27,1.12,15.02,4.42,30.03,8.83,45.05,13.25.21-.81.43-1.62.64-2.44Z"/>
    <path class="cls-1" d="M655.04,171.3c-14.85-3.61-29.7-7.21-44.55-10.82-.14.61-.28,1.23-.43,1.84,14.95,3.51,29.89,7.02,44.84,10.54.04-.52.09-1.04.13-1.56Z"/>
    <path class="cls-1" d="M446.64,136.18s-.07.1-.07.1c.2.03.4.05.6.08-.18-.06-.35-.12-.53-.18Z"/>
    <path class="cls-1" d="M524.07,160.63l.42-1.43c-.64-.29-1.26-.64-1.93-.86-20.53-6.67-41.01-13.46-61.62-19.87-4.39-1.37-9.16-1.5-13.78-2.12,16.51,5.45,32.96,11.04,49.5,16.34,9.05,2.9,18.27,5.31,27.41,7.94Z"/>
    <path class="cls-1" d="M573.76,172.03c-11.71-2.98-23.41-5.95-35.12-8.93-.22.47-.43.94-.65,1.41,11.83,2.88,23.65,5.76,35.48,8.63.1-.37.19-.75.29-1.12Z"/>
    <path class="cls-1" d="M447.85,153.21c-7.79-2.17-15.57-4.34-23.36-6.52-.12.45-.25.89-.37,1.34,7.71,2.18,15.41,4.35,23.12,6.53.2-.45.41-.9.61-1.35Z"/>
    <path class="cls-1" d="M446.19,191.26c-3.82-6.9-17.46-6.11-22.14-5.87,0,0-19.25.53-221.04.33-1.34,0-12.58-.06-27.45-.03-18.69.04-34.21.18-45.14.31-.53.01-1.24.12-1.89.56-1.61,1.11-1.44,3.4-1.21,10.06.22,6.37.34,9.88,1.99,10.46.12.04.45.08,1.12.17,0,0,1.85.24,3.48.29,4.49.16,122.98-.4,127.03-.4,6.79,0-2.02-.07,94.86-.03,35.95.02,65.21.05,84.03.08,1.28-.35,3.38-1.15,5.07-3.04,3.39-3.81,3.04-9.75,1.29-12.91ZM132.88,203.73c-.15.08-.58.26-1.13.29,0,0-1.12.07-2.12-.6-1.2-.81-.91-2.74-1.01-6.8-.11-4.27-.54-6.04.64-7.46.23-.28.86-1.03,1.81-1.12.83-.08,1.48.38,1.65.5,1.27.9,1.15,2.85,1.2,7.54.05,4.47.21,7.01-1.03,7.65ZM140.86,203.59c-.31.13-.79.24-1.51.05-.25-.04-.62-.13-.99-.36-1.34-.87-1.23-2.84-1.25-7.23-.02-5.19-.18-6.36.83-7.13.79-.6,2.02-.73,2.86-.26.87.48,1.24,1.55,1.46,4.68.34,4.89.66,9.36-1.4,10.25ZM149.17,203.59c-.31.13-.79.24-1.51.05-.25-.04-.62-.13-.99-.36-1.34-.87-1.23-2.84-1.25-7.23-.02-5.19-.18-6.36.83-7.13.79-.6,2.02-.73,2.86-.26.87.48,1.24,1.55,1.46,4.68.34,4.89.66,9.36-1.4,10.25ZM157.47,203.59c-.31.13-.79.24-1.51.05-.25-.04-.62-.13-.99-.36-1.34-.87-1.23-2.84-1.25-7.23-.02-5.19-.18-6.36.83-7.13.79-.6,2.02-.73,2.86-.26.87.48,1.24,1.55,1.46,4.68.34,4.89.66,9.36-1.4,10.25ZM165.77,203.59c-.31.13-.79.24-1.51.05-.25-.04-.62-.13-.99-.36-1.34-.87-1.23-2.84-1.25-7.23-.02-5.19-.18-6.36.83-7.13.79-.6,2.02-.73,2.86-.26.87.48,1.24,1.55,1.46,4.68.34,4.89.66,9.36-1.4,10.25ZM174.08,203.59c-.31.13-.79.24-1.51.05-.25-.04-.62-.13-.99-.36-1.34-.87-1.23-2.84-1.25-7.23-.02-5.19-.18-6.36.83-7.13.79-.6,2.02-.73,2.86-.26.87.48,1.24,1.55,1.46,4.68.34,4.89.66,9.36-1.4,10.25ZM182.38,203.59c-.31.13-.79.24-1.51.05-.25-.04-.62-.13-.99-.36-1.34-.87-1.23-2.84-1.25-7.23-.02-5.19-.18-6.36.83-7.13.79-.6,2.02-.73,2.86-.26.87.48,1.24,1.55,1.46,4.68.34,4.89.66,9.36-1.4,10.25ZM190.68,203.59c-.31.13-.79.24-1.51.05-.25-.04-.62-.13-.99-.36-1.34-.87-1.23-2.84-1.25-7.23-.02-5.19-.18-6.36.83-7.13.79-.6,2.02-.73,2.86-.26.87.48,1.24,1.55,1.46,4.68.34,4.89.66,9.36-1.4,10.25ZM198.99,203.59c-.31.13-.79.24-1.51.05-.25-.04-.62-.13-.99-.36-1.34-.87-1.23-2.84-1.25-7.23-.02-5.19-.18-6.36.83-7.13.79-.6,2.02-.73,2.86-.26.87.48,1.24,1.55,1.46,4.68.34,4.89.66,9.36-1.4,10.25ZM207.29,203.59c-.31.13-.79.24-1.51.05-.25-.04-.62-.13-.99-.36-1.34-.87-1.23-2.84-1.25-7.23-.02-5.19-.18-6.36.83-7.13.79-.6,2.02-.73,2.86-.26.87.48,1.24,1.55,1.46,4.68.34,4.89.66,9.36-1.4,10.25ZM215.59,203.59c-.31.13-.79.24-1.51.05-.25-.04-.62-.13-.99-.36-1.34-.87-1.23-2.84-1.25-7.23-.02-5.19-.18-6.36.83-7.13.79-.6,2.02-.73,2.86-.26.87.48,1.24,1.55,1.46,4.68.34,4.89.66,9.36-1.4,10.25ZM223.89,203.59c-.31.13-.79.24-1.51.05-.25-.04-.62-.13-.99-.36-1.34-.87-1.23-2.84-1.25-7.23-.02-5.19-.18-6.36.83-7.13.79-.6,2.02-.73,2.86-.26.87.48,1.24,1.55,1.46,4.68.34,4.89.66,9.36-1.4,10.25ZM232.2,203.59c-.31.13-.79.24-1.51.05-.25-.04-.62-.13-.99-.36-1.34-.87-1.23-2.84-1.25-7.23-.02-5.19-.18-6.36.83-7.13.79-.6,2.02-.73,2.86-.26.87.48,1.24,1.55,1.46,4.68.34,4.89.66,9.36-1.4,10.25ZM240.5,203.59c-.31.13-.79.24-1.51.05-.25-.04-.62-.13-.99-.36-1.34-.87-1.23-2.84-1.25-7.23-.02-5.19-.18-6.36.83-7.13.79-.6,2.02-.73,2.86-.26.87.48,1.24,1.55,1.46,4.68.34,4.89.66,9.36-1.4,10.25ZM248.8,203.59c-.31.13-.79.24-1.51.05-.25-.04-.62-.13-.99-.36-1.34-.87-1.23-2.84-1.25-7.23-.02-5.19-.18-6.36.83-7.13.79-.6,2.02-.73,2.86-.26.87.48,1.24,1.55,1.46,4.68.34,4.89.66,9.36-1.4,10.25ZM257.11,203.59c-.31.13-.79.24-1.51.05-.25-.04-.62-.13-.99-.36-1.34-.87-1.23-2.84-1.25-7.23-.02-5.19-.18-6.36.83-7.13.79-.6,2.02-.73,2.86-.26.87.48,1.24,1.55,1.46,4.68.34,4.89.66,9.36-1.4,10.25ZM265.41,203.59c-.31.13-.79.24-1.51.05-.25-.04-.62-.13-.99-.36-1.34-.87-1.23-2.84-1.25-7.23-.02-5.19-.18-6.36.83-7.13.79-.6,2.02-.73,2.86-.26.87.48,1.24,1.55,1.46,4.68.34,4.89.66,9.36-1.4,10.25ZM273.71,203.59c-.31.13-.79.24-1.51.05-.25-.04-.62-.13-.99-.36-1.34-.87-1.23-2.84-1.25-7.23-.02-5.19-.18-6.36.83-7.13.79-.6,2.02-.73,2.86-.26.87.48,1.24,1.55,1.46,4.68.34,4.89.66,9.36-1.4,10.25ZM282.02,203.59c-.31.13-.79.24-1.51.05-.25-.04-.62-.13-.99-.36-1.34-.87-1.23-2.84-1.25-7.23-.02-5.19-.18-6.36.83-7.13.79-.6,2.02-.73,2.86-.26.87.48,1.24,1.55,1.46,4.68.34,4.89.66,9.36-1.4,10.25ZM290.32,203.59c-.31.13-.79.24-1.51.05-.25-.04-.62-.13-.99-.36-1.34-.87-1.23-2.84-1.25-7.23-.02-5.19-.18-6.36.83-7.13.79-.6,2.02-.73,2.86-.26.87.48,1.24,1.55,1.46,4.68.34,4.89.66,9.36-1.4,10.25ZM298.62,203.59c-.31.13-.79.24-1.51.05-.25-.04-.62-.13-.99-.36-1.34-.87-1.23-2.84-1.25-7.23-.02-5.19-.18-6.36.83-7.13.79-.6,2.02-.73,2.86-.26.87.48,1.24,1.55,1.46,4.68.34,4.89.66,9.36-1.4,10.25ZM306.93,203.59c-.31.13-.79.24-1.51.05-.25-.04-.62-.13-.99-.36-1.34-.87-1.23-2.84-1.25-7.23-.02-5.19-.18-6.36.83-7.13.79-.6,2.02-.73,2.86-.26.87.48,1.24,1.55,1.46,4.68.34,4.89.66,9.36-1.4,10.25ZM315.23,203.59c-.31.13-.79.24-1.51.05-.25-.04-.62-.13-.99-.36-1.34-.87-1.23-2.84-1.25-7.23-.02-5.19-.18-6.36.83-7.13.79-.6,2.02-.73,2.86-.26.87.48,1.24,1.55,1.46,4.68.34,4.89.66,9.36-1.4,10.25ZM323.53,203.59c-.31.13-.79.24-1.51.05-.25-.04-.62-.13-.99-.36-1.34-.87-1.23-2.84-1.25-7.23-.02-5.19-.18-6.36.83-7.13.79-.6,2.02-.73,2.86-.26.87.48,1.24,1.55,1.46,4.68.34,4.89.66,9.36-1.4,10.25ZM331.84,203.59c-.31.13-.79.24-1.51.05-.25-.04-.62-.13-.99-.36-1.34-.87-1.23-2.84-1.25-7.23-.02-5.19-.18-6.36.83-7.13.79-.6,2.02-.73,2.86-.26.87.48,1.24,1.55,1.46,4.68.34,4.89.66,9.36-1.4,10.25ZM340.14,203.59c-.31.13-.79.24-1.51.05-.25-.04-.62-.13-.99-.36-1.34-.87-1.23-2.84-1.25-7.23-.02-5.19-.18-6.36.83-7.13.79-.6,2.02-.73,2.86-.26.87.48,1.24,1.55,1.46,4.68.34,4.89.66,9.36-1.4,10.25ZM348.44,203.59c-.31.13-.79.24-1.51.05-.25-.04-.62-.13-.99-.36-1.34-.87-1.23-2.84-1.25-7.23-.02-5.19-.18-6.36.83-7.13.79-.6,2.02-.73,2.86-.26.87.48,1.24,1.55,1.46,4.68.34,4.89.66,9.36-1.4,10.25ZM356.74,203.59c-.31.13-.79.24-1.51.05-.25-.04-.62-.13-.99-.36-1.34-.87-1.23-2.84-1.25-7.23-.02-5.19-.18-6.36.83-7.13.79-.6,2.02-.73,2.86-.26.87.48,1.24,1.55,1.46,4.68.34,4.89.66,9.36-1.4,10.25ZM365.05,203.59c-.31.13-.79.24-1.51.05-.25-.04-.62-.13-.99-.36-1.34-.87-1.23-2.84-1.25-7.23-.02-5.19-.18-6.36.83-7.13.79-.6,2.02-.73,2.86-.26.87.48,1.24,1.55,1.46,4.68.34,4.89.66,9.36-1.4,10.25ZM373.35,203.59c-.31.13-.79.24-1.51.05-.25-.04-.62-.13-.99-.36-1.34-.87-1.23-2.84-1.25-7.23-.02-5.19-.18-6.36.83-7.13.79-.6,2.02-.73,2.86-.26.87.48,1.24,1.55,1.46,4.68.34,4.89.66,9.36-1.4,10.25ZM381.65,203.59c-.31.13-.79.24-1.51.05-.25-.04-.62-.13-.99-.36-1.34-.87-1.23-2.84-1.25-7.23-.02-5.19-.18-6.36.83-7.13.79-.6,2.02-.73,2.86-.26.87.48,1.24,1.55,1.46,4.68.34,4.89.66,9.36-1.4,10.25ZM389.96,203.59c-.31.13-.79.24-1.51.05-.25-.04-.62-.13-.99-.36-1.34-.87-1.23-2.84-1.25-7.23-.02-5.19-.18-6.36.83-7.13.79-.6,2.02-.73,2.86-.26.87.48,1.24,1.55,1.46,4.68.34,4.89.66,9.36-1.4,10.25ZM398.26,203.59c-.31.13-.79.24-1.51.05-.25-.04-.62-.13-.99-.36-1.34-.87-1.23-2.84-1.25-7.23-.02-5.19-.18-6.36.83-7.13.79-.6,2.02-.73,2.86-.26.87.48,1.24,1.55,1.46,4.68.34,4.89.66,9.36-1.4,10.25ZM406.56,203.59c-.31.13-.79.24-1.51.05-.25-.04-.62-.13-.99-.36-1.34-.87-1.23-2.84-1.25-7.23-.02-5.19-.18-6.36.83-7.13.79-.6,2.02-.73,2.86-.26.87.48,1.24,1.55,1.46,4.68.34,4.89.66,9.36-1.4,10.25ZM414.87,203.59c-.31.13-.79.24-1.51.05-.25-.04-.62-.13-.99-.36-1.34-.87-1.23-2.84-1.25-7.23-.02-5.19-.18-6.36.83-7.13.79-.6,2.02-.73,2.86-.26.87.48,1.24,1.55,1.46,4.68.34,4.89.66,9.36-1.4,10.25ZM423.17,203.59c-.31.13-.79.24-1.51.05-.25-.04-.62-.13-.99-.36-1.34-.87-1.23-2.84-1.25-7.23-.02-5.19-.18-6.36.83-7.13.79-.6,2.02-.73,2.86-.26.87.48,1.24,1.55,1.46,4.68.34,4.89.66,9.36-1.4,10.25ZM431.47,203.59c-.31.13-.79.24-1.51.05-.25-.04-.62-.13-.99-.36-1.34-.87-1.23-2.84-1.25-7.23-.02-5.19-.18-6.36.83-7.13.79-.6,2.02-.73,2.86-.26.87.48,1.24,1.55,1.46,4.68.34,4.89.66,9.36-1.4,10.25ZM439.78,203.59c-.31.13-.79.24-1.51.05-.25-.04-.62-.13-.99-.36-1.34-.87-1.23-2.84-1.25-7.23-.02-5.19-.18-6.36.83-7.13.79-.6,2.02-.73,2.86-.26.87.48,1.24,1.55,1.46,4.68.34,4.89.66,9.36-1.4,10.25Z"/>
  </g>
</svg>