<?xml version="1.0" encoding="UTF-8"?>
<svg id="Layer_1" data-name="Layer 1" xmlns="http://www.w3.org/2000/svg" viewBox="0 0 1500.62 467.14">
  <defs>
    <style>
      .cls-1 {
        fill: #e58906;
      }

      .cls-1, .cls-2 {
        stroke-width: 0px;
      }

      .cls-2 {
        fill: #fff;
      }
    </style>
  </defs>
  <g>
    <path class="cls-1" d="M1421.62,0H79C35.44,0,0,38.49,0,85.8v295.55c0,47.31,35.44,85.8,79,85.8h1342.61c43.56,0,79-38.49,79-85.8V85.8c0-47.31-35.44-85.8-79-85.8Z"/>
    <g>
      <path class="cls-2" d="M193.86,221.02c5.82-3.3,12.36-4.95,19.61-4.95s13.95,1.93,20.1,5.77c6.15,3.85,11.31,9.94,15.49,18.29l48.44-25.05c-6.15-15.38-16.59-27.4-31.31-36.09-14.72-8.68-32.19-13.02-52.4-13.02s-37.68,4.01-53.06,12.03c-15.38,8.02-27.47,18.95-36.25,32.79-8.79,13.84-13.18,29.77-13.18,47.79s4.39,33.67,13.18,47.62c8.79,13.95,20.87,24.88,36.25,32.79,15.38,7.91,33.06,11.86,53.06,11.86s37.68-4.34,52.4-13.02c14.72-8.68,25.15-20.71,31.31-36.09l-48.44-24.72c-4.18,8.35-9.34,14.45-15.49,18.29-6.15,3.85-12.85,5.77-20.1,5.77s-13.79-1.65-19.61-4.95c-5.82-3.29-10.49-8.12-14.01-14.5-3.52-6.37-5.27-14.06-5.27-23.07s1.76-17.25,5.27-23.4c3.51-6.15,8.18-10.88,14.01-14.17Z"/>
      <path class="cls-2" d="M461.13,177.85c-15.27-7.91-32.68-11.86-52.24-11.86s-36.91,3.95-52.07,11.86c-15.16,7.91-27.08,18.84-35.76,32.79-8.68,13.95-13.02,29.94-13.02,47.95s4.34,33.67,13.02,47.62c8.68,13.95,20.6,24.88,35.76,32.79,15.16,7.91,32.51,11.86,52.07,11.86s36.96-3.95,52.24-11.86c15.27-7.91,27.24-18.84,35.92-32.79,8.68-13.95,13.02-29.82,13.02-47.62s-4.34-34-13.02-47.95c-8.68-13.95-20.65-24.88-35.92-32.79ZM441.35,281.49c-3.41,6.48-7.91,11.37-13.51,14.66-5.6,3.3-11.92,4.95-18.95,4.95s-13.35-1.65-18.95-4.95c-5.6-3.29-10.11-8.18-13.51-14.66-3.41-6.48-5.11-14.22-5.11-23.23s1.7-16.92,5.11-23.07c3.4-6.15,7.91-10.88,13.51-14.17,5.6-3.3,11.92-4.95,18.95-4.95s13.35,1.65,18.95,4.95c5.6,3.29,10.1,8.02,13.51,14.17,3.4,6.15,5.11,13.84,5.11,23.07s-1.71,16.76-5.11,23.23Z"/>
      <path class="cls-2" d="M665.94,184.6c-3.18-3.29-6.69-6.16-10.55-8.56-10.77-6.7-23.73-10.05-38.89-10.05-16.04,0-30.76,3.79-44.16,11.37-13.4,7.58-24.01,18.24-31.8,31.97-7.8,13.73-11.7,30.16-11.7,49.27s3.9,35.21,11.7,48.94c7.8,13.73,18.4,24.39,31.8,31.97,13.4,7.58,28.12,11.37,44.16,11.37s29.38-3.29,40.04-9.89c4.65-2.88,8.75-6.47,12.36-10.69v17.61h59.65V103.37h-62.61v81.23ZM661.99,281.49c-3.3,6.48-7.74,11.37-13.35,14.66-5.6,3.3-11.92,4.95-18.95,4.95s-13.68-1.65-19.28-4.95c-5.6-3.29-10.05-8.18-13.35-14.66-3.3-6.48-4.94-14.11-4.94-22.9,0-9.44,1.65-17.25,4.94-23.4,3.29-6.15,7.74-10.88,13.35-14.17,5.6-3.3,12.03-4.95,19.28-4.95s13.35,1.65,18.95,4.95c5.6,3.29,10.05,8.02,13.35,14.17,3.3,6.15,4.94,13.95,4.94,23.4,0,8.79-1.65,16.43-4.94,22.9Z"/>
      <path class="cls-2" d="M925.47,177.35c-13.3-7.58-28.07-11.37-44.33-11.37-15.16,0-28.13,3.35-38.89,10.05-3.98,2.48-7.6,5.43-10.88,8.86v-81.53h-62.61v244.53h59.98v-17.57c3.62,4.2,7.72,7.78,12.36,10.65,10.65,6.59,24,9.89,40.04,9.89s31.03-3.79,44.33-11.37c13.29-7.58,23.84-18.23,31.64-31.97,7.8-13.73,11.7-30.04,11.7-48.94s-3.9-35.54-11.7-49.27c-7.8-13.73-18.35-24.39-31.64-31.97ZM900.42,281.49c-3.41,6.48-7.91,11.37-13.51,14.66-5.6,3.3-11.92,4.95-18.95,4.95s-13.35-1.65-18.95-4.95c-5.6-3.29-10.11-8.18-13.51-14.66-3.41-6.48-5.11-14.11-5.11-22.9,0-9.44,1.7-17.25,5.11-23.4,3.4-6.15,7.91-10.88,13.51-14.17,5.6-3.3,11.92-4.95,18.95-4.95s13.35,1.65,18.95,4.95c5.6,3.29,10.1,8.02,13.51,14.17,3.4,6.15,5.11,13.95,5.11,23.4,0,8.79-1.7,16.43-5.11,22.9Z"/>
      <path class="cls-2" d="M1132.76,177.02c-14.39-7.36-30.38-11.04-47.95-11.04-18.9,0-35.76,3.95-50.59,11.86-14.83,7.91-26.48,18.84-34.93,32.79-8.46,13.95-12.69,29.94-12.69,47.95s4.33,33.34,13.02,47.29c8.68,13.95,20.87,24.94,36.58,32.95,15.71,8.02,34.22,12.03,55.53,12.03,16.91,0,31.64-2.47,44.16-7.41,12.52-4.94,22.96-12.03,31.31-21.26l-32.63-34.6c-6.15,5.27-12.31,9.18-18.45,11.7-6.15,2.53-13.73,3.79-22.74,3.79-9.45,0-17.58-1.7-24.39-5.11-6.81-3.4-12.03-8.29-15.65-14.66-1.56-2.74-2.76-5.71-3.65-8.9h129.7c.22-2.41.44-5.05.66-7.91.22-2.85.33-5.38.33-7.58,0-19.77-4.34-36.52-13.02-50.26-8.68-13.73-20.22-24.27-34.6-31.64ZM1065.36,215.75c5.71-3.29,12.41-4.94,20.1-4.94s13.95,1.65,19.44,4.94c5.49,3.3,9.83,7.97,13.02,14.01,1.88,3.57,3.15,7.48,3.84,11.7h-73.1c.72-4.25,1.93-8.16,3.67-11.7,2.97-6.04,7.3-10.71,13.02-14.01Z"/>
      <polygon class="cls-2" points="1389.32 347.9 1320.95 256.2 1387.01 168.95 1321.1 168.95 1287.8 214.6 1256.17 168.95 1185.65 168.95 1251.56 258.67 1183.34 347.9 1251.56 347.9 1285.9 301.23 1317.47 347.9 1389.32 347.9"/>
    </g>
  </g>
  <path class="cls-2" d="M1435.98,165.99c-2.2,0-4.25-.4-6.13-1.19-1.88-.79-3.53-1.9-4.94-3.33-1.41-1.42-2.51-3.08-3.29-4.96-.78-1.88-1.17-3.91-1.17-6.09s.4-4.2,1.19-6.09c.79-1.88,1.9-3.54,3.31-4.96,1.41-1.42,3.07-2.54,4.96-3.33,1.9-.79,3.95-1.19,6.15-1.19s4.26.39,6.15,1.17c1.9.78,3.54,1.87,4.94,3.29,1.4,1.41,2.48,3.05,3.26,4.92.78,1.87,1.17,3.9,1.17,6.11s-.4,4.26-1.19,6.15c-.79,1.9-1.9,3.56-3.33,4.98-1.43,1.43-3.08,2.54-4.96,3.33-1.88.79-3.93,1.19-6.13,1.19ZM1435.93,163.56c1.88,0,3.62-.34,5.2-1.01,1.59-.68,2.98-1.62,4.17-2.82,1.19-1.2,2.11-2.62,2.76-4.23.65-1.62.97-3.34.97-5.16s-.32-3.57-.97-5.16c-.65-1.59-1.55-2.97-2.71-4.15-1.16-1.18-2.54-2.09-4.12-2.76s-3.32-.99-5.2-.99-3.59.34-5.2,1.01c-1.62.68-3.01,1.61-4.17,2.8s-2.07,2.58-2.71,4.17c-.65,1.59-.97,3.31-.97,5.16s.32,3.54.97,5.14c.65,1.6,1.55,3.01,2.71,4.21,1.16,1.21,2.54,2.14,4.15,2.8,1.6.66,3.32.99,5.14.99ZM1429.49,159.06v-17.29h7.23c2.29,0,4.09.54,5.38,1.61,1.29,1.07,1.94,2.52,1.94,4.34,0,1.97-.65,3.48-1.94,4.52-1.29,1.04-3.09,1.56-5.38,1.56h-3.49v5.25h-3.75ZM1433.2,150.82h3.31c1.21,0,2.15-.27,2.84-.79.69-.53,1.04-1.29,1.04-2.29,0-.94-.35-1.68-1.04-2.2-.69-.53-1.64-.79-2.84-.79h-3.31v6.09ZM1440.7,159.06l-4.32-6.61h3.75l4.37,6.61h-3.79Z"/>
</svg>