<?xml version="1.0" encoding="UTF-8"?>
<svg id="Layer_1" data-name="Layer 1" xmlns="http://www.w3.org/2000/svg" viewBox="0 0 670.63 846.11">
  <defs>
    <style>
      .cls-1 {
        fill: #000;
      }

      .cls-1, .cls-2 {
        stroke-width: 0px;
      }

      .cls-2 {
        fill: #fff;
      }
    </style>
  </defs>
  <path class="cls-2" d="M661.57,522.52c-2.47-4.71-3.17-8.5.15-13.15,2.16-3.02,3.41-6.88,4.36-10.55,4.46-17.23-3.1-30.02-20.27-34.63-2.73-.73-5.5-1.38-8.29-1.85-6.59-1.11-11.64-4.57-15.81-9.69-5.86-7.2-9.23-15.34-10.15-24.56-1.32-13.36,1.47-26.35,2.58-38.21,8.4.12,16.08,1.11,23.5.11,9.73-1.3,17.87-13.29,16.91-22.97-.56-5.67-4.2-7.69-9.41-5.32-2.05.93-4.21,1.61-6.84,2.6.95,1.25,1.83,2.36,2.66,3.5,1,1.36,1.96,2.73,2.94,4.1-2.02,1.44-3.89,3.81-6.08,4.14-5.01.76-10.53-3.67-11.15-9.34-.62-5.7-.11-11.55.27-17.31.28-4.11,2.39-7.03,5.94-9.69,22.17-16.6,23.44-47.41,3.02-66.04-1.14-1.04-2.14-2.23-3.78-3.96,2.82-.67,4.72-1.14,6.62-1.58,16.06-3.68,28.42-21.73,25.88-37.85-.6-3.81-2.09-6.98-6.08-8.42-3.9-1.41-5.22,1.68-7.24,3.8-5.02,5.28-11.2,3.8-13.4-3.14-.4-1.27-.76-2.57-.94-3.88-1.8-12.95-8.62-22.36-19.71-29.14-7.87-4.81-7.82-5.39-5.62-14.2.56-2.26,1.11-4.54,1.49-6.83,3.38-19.99-5-43.88-33.45-47.96-2.31-.33-4.63-.62-6.91-1.08-4.88-1-7.58-3.81-7.48-9.04.06-3.16-.04-6.34-.29-9.49-2.2-27.21-23.57-41.3-49.42-32.75-2.05.68-4.79.97-6.66.16-7.22-3.1-14.17-6.68-17.72-14.49-1.22-2.69-3.19-5.07-4.97-7.48-16.24-21.87-36.8-29.27-63.21-22.44-10.02,2.59-18.37.78-26.35-6.13-22.77-19.72-47.88-23.11-75.17-9.76-3.27,1.6-7.31,2.35-10.97,2.27-14.41-.31-27.77,2.41-39.68,11.08-1.84,1.34-4.94,1.41-7.43,1.31-8.13-.34-16.3-1.97-24.35-1.43-8.04.54-15.63,1.84-22.59,4.19-9.35-2.82-29.9-2.87-40.07,8.18-2.56,2.78-5.55,6.7-12.54,14.92-5.9,6.94-12.61,10.93-22.55,9.68-13.78-1.73-24.44,4.41-30.9,16.67-2.91,5.53-5.08,11.63-6.48,17.72-1.18,5.13-3.4,7.82-8.37,9.78-5.95,2.34-11.78,5.62-16.83,9.56-14.19,11.07-20.21,34.17-12.08,49.3,3.74,6.97,2.65,11.23-2.6,15.78-.5.43-.89.99-1.36,1.46-8.69,8.66-15.41,18.23-16.34,31.12-.39,5.38-6.35,7.01-10.56,3.4-3.73-3.2-4.84-8.24-3.03-13.69,1.68-5.05.35-6.64-4.78-5.45-8.09,1.89-12.18,7.81-14.29,15.23-4.3,15.11,4.7,33.61,19.44,40.42,1.62.75,3.24,1.52,4.43,2.08-2.24,10.22-4.61,19.89-6.41,29.68-1.08,5.88-.87,11.99-2.04,17.84-.51,2.55-2.52,5.68-4.73,6.8-3.46,1.74-7.52,1.25-10.53-2.04-.56-.61-1.13-1.23-1.71-1.82-4.44-4.51-8.04-4.28-10.14,1.66-1.59,4.49-2.54,9.87-1.65,14.45,3.41,17.7,21.25,28.19,38.79,23.53,2.53-.67,5.07-1.33,7.26-1.91,2.28,4.79,4.51,9.04,6.3,13.47.7,1.71,1.05,4.03.48,5.71-1.49,4.39-2.89,9.1-5.62,12.7-2.56,3.39-6.42,6.37-10.34,8.02-5.26,2.22-10.96-.27-12.6-4.14-1.68-3.98-.07-6.58,6.32-10.2.14-.08.35-.11.44-.23,1.25-1.55,2.49-3.12,3.73-4.68-1.7-1.17-3.25-2.92-5.13-3.39-6.71-1.69-12.69,1.39-15.47,7.71-5.13,11.65-2.02,22.11,5.98,30.95,9.02,9.98,19.68,16.58,34.74,10.24,1.35,9.29,3.49,18.26,3.77,27.28.45,14.42-3.66,27.73-13.77,38.55-8.6,9.2-18.19,15.35-31.39,8.91-3.15-1.54-5.82-.07-6.67,3.13-.83,3.15-1.36,6.6-.99,9.79,1.07,9.29,5.45,17.04,12.33,23.35,3.15,2.89,8.53,5.39,8.99,8.63.52,3.69-3.4,7.96-5.22,12.05-7.53,16.87-10.56,34.28-3.37,51.87,8.34,20.39,24.82,32.03,45.18,38.57,4.23,1.36,6.9,3.1,8,7.6,1.19,4.88,4,10.14,5.58,12.14,5.95,7.49,22.13.75,24.44,5.98.43.96-.08,1.3-2.18,7.65-2.2,6.63-3.3,9.95-3.28,12.56.05,5.65,3.7,9.88,6.01,12.56,7.15,8.3,14.34,7.32,15.84,13.11,1.09,4.22-2.42,5.94-1.64,11.47.73,5.21,4.52,8.46,7.1,10.92,14.2,13.56,8.82,19.42,20.42,27.86,5.99,4.36,19.15,11.33,24.42,13.01.67.21,3.11.96,5.3,3.09,1.01.99,1.86,2.19,2.58,3.71,4.82,10.14,12.52,17.26,23.6,19.93,3.71.89,5.1,2.43,5.57,6.23,2.07,16.6,13.39,30.27,29.19,33.67,7.8,1.68,16.16,1.17,24.24.88,3.63-.13,6.17.54,9.05,2.71,4.73,3.57,9.61,7.69,15.1,9.38,22.58,6.95,43.78,4.04,62.51-11.26,2.13-1.74,3.66-3.27,6.92-1.84,24.21,10.67,46.3,8,65.88-10.71,2.24-2.14,5.57-3.77,8.62-4.29,20.71-3.52,36.07-13.83,44.6-33.51.66-1.52,2.58-3.32,4.09-3.5,14.44-1.66,21.77-11.57,27.87-23.17.75-1.42,2.12-3.21,3.49-3.49,9.97-2.09,18.03-7.59,25.68-13.84,1.72-1.4,2.43-3.01,3.1-4.06,5.8-9.14,2.36-14.73,6.64-22.26,3.16-5.58,5.11-2.63,10.92-10.38,3.31-4.41,5.05-8.53,10.56-12.38,1.13-.79,1.94-1.42,3.71-2.2,5.28-2.33,11.13-3.8,15.82-6.98,20.67-14.01,32.38-34.84,42.04-57.07.26-.61.58-1.28.55-1.91-.4-8.25,6.93-8.82,12.26-13.2l9.71-1.06c3.92-3.45,9.61-9.24,14.25-17.81,5.04-9.32,7.59-19.75,7.95-31.21.38-12.23-3.5-23.35-9.04-33.91Z"/>
  <path class="cls-1" d="M661.57,522.52c-2.47-4.71-3.17-8.5.15-13.15,2.16-3.02,3.41-6.88,4.36-10.55,4.46-17.23-3.1-30.02-20.27-34.63-2.73-.73-5.5-1.38-8.29-1.85-6.59-1.11-11.64-4.57-15.81-9.69-5.86-7.2-9.23-15.34-10.15-24.56-1.32-13.36,1.47-26.35,2.58-38.21,8.4.12,16.08,1.11,23.5.11,9.73-1.3,17.87-13.29,16.91-22.97-.56-5.67-4.2-7.69-9.41-5.32-2.05.93-4.21,1.61-6.84,2.6.95,1.25,1.83,2.36,2.66,3.5,1,1.36,1.96,2.73,2.94,4.1-2.02,1.44-3.89,3.81-6.08,4.14-5.01.76-10.53-3.67-11.15-9.34-.62-5.7-.11-11.55.27-17.31.28-4.11,2.39-7.03,5.94-9.69,22.17-16.6,23.44-47.41,3.02-66.04-1.14-1.04-2.14-2.23-3.78-3.96,2.82-.67,4.72-1.14,6.62-1.58,16.06-3.68,28.42-21.73,25.88-37.85-.6-3.81-2.09-6.98-6.08-8.42-3.9-1.41-5.22,1.68-7.24,3.8-5.02,5.28-11.2,3.8-13.4-3.14-.4-1.27-.76-2.57-.94-3.88-1.8-12.95-8.62-22.36-19.71-29.14-7.87-4.81-7.82-5.39-5.62-14.2.56-2.26,1.11-4.54,1.49-6.83,3.38-19.99-5-43.88-33.45-47.96-2.31-.33-4.63-.62-6.91-1.08-4.88-1-7.58-3.81-7.48-9.04.06-3.16-.04-6.34-.29-9.49-2.2-27.21-23.57-41.3-49.42-32.75-2.05.68-4.79.97-6.66.16-7.22-3.1-14.17-6.68-17.72-14.49-1.22-2.69-3.19-5.07-4.97-7.48-16.24-21.87-36.8-29.27-63.21-22.44-10.02,2.59-18.37.78-26.35-6.13-22.77-19.72-47.88-23.11-75.17-9.76-3.27,1.6-7.31,2.35-10.97,2.27-14.41-.31-27.77,2.41-39.68,11.08-1.84,1.34-4.94,1.41-7.43,1.31-8.13-.34-16.3-1.97-24.35-1.43-8.04.54-15.63,1.84-22.59,4.19-9.35-2.82-29.9-2.87-40.07,8.18-2.56,2.78-5.55,6.7-12.54,14.92-5.9,6.94-12.61,10.93-22.55,9.68-13.78-1.73-24.44,4.41-30.9,16.67-2.91,5.53-5.08,11.63-6.48,17.72-1.18,5.13-3.4,7.82-8.37,9.78-5.95,2.34-11.78,5.62-16.83,9.56-14.19,11.07-20.21,34.17-12.08,49.3,3.74,6.97,2.65,11.23-2.6,15.78-.5.43-.89.99-1.36,1.46-8.69,8.66-15.41,18.23-16.34,31.12-.39,5.38-6.35,7.01-10.56,3.4-3.73-3.2-4.84-8.24-3.03-13.69,1.68-5.05.35-6.64-4.78-5.45-8.09,1.89-12.18,7.81-14.29,15.23-4.3,15.11,4.7,33.61,19.44,40.42,1.62.75,3.24,1.52,4.43,2.08-2.24,10.22-4.61,19.89-6.41,29.68-1.08,5.88-.87,11.99-2.04,17.84-.51,2.55-2.52,5.68-4.73,6.8-3.46,1.74-7.52,1.25-10.53-2.04-.56-.61-1.13-1.23-1.71-1.82-4.44-4.51-8.04-4.28-10.14,1.66-1.59,4.49-2.54,9.87-1.65,14.45,3.41,17.7,21.25,28.19,38.79,23.53,2.53-.67,5.07-1.33,7.26-1.91,2.28,4.79,4.51,9.04,6.3,13.47.7,1.71,1.05,4.03.48,5.71-1.49,4.39-2.89,9.1-5.62,12.7-2.56,3.39-6.42,6.37-10.34,8.02-5.26,2.22-10.96-.27-12.6-4.14-1.68-3.98-.07-6.58,6.32-10.2.14-.08.35-.11.44-.23,1.25-1.55,2.49-3.12,3.73-4.68-1.7-1.17-3.25-2.92-5.13-3.39-6.71-1.69-12.69,1.39-15.47,7.71-5.13,11.65-2.02,22.11,5.98,30.95,9.02,9.98,19.68,16.58,34.74,10.24,1.35,9.29,3.49,18.26,3.77,27.28.45,14.42-3.66,27.73-13.77,38.55-8.6,9.2-18.19,15.35-31.39,8.91-3.15-1.54-5.82-.07-6.67,3.13-.83,3.15-1.36,6.6-.99,9.79,1.07,9.29,5.45,17.04,12.33,23.35,3.15,2.89,8.53,5.39,8.99,8.63.52,3.69-3.4,7.96-5.22,12.05-7.53,16.87-10.56,34.28-3.37,51.87,8.34,20.39,24.82,32.03,45.18,38.57,4.23,1.36,6.9,3.1,8,7.6,1.19,4.88,4,10.14,5.58,12.14,5.95,7.49,22.13.75,24.44,5.98.43.96-.08,1.3-2.18,7.65-2.2,6.63-3.3,9.95-3.28,12.56.05,5.65,3.7,9.88,6.01,12.56,7.15,8.3,14.34,7.32,15.84,13.11,1.09,4.22-2.42,5.94-1.64,11.47.73,5.21,4.52,8.46,7.1,10.92,14.2,13.56,8.82,19.42,20.42,27.86,5.99,4.36,19.15,11.33,24.42,13.01.67.21,3.11.96,5.3,3.09,1.01.99,1.86,2.19,2.58,3.71,4.82,10.14,12.52,17.26,23.6,19.93,3.71.89,5.1,2.43,5.57,6.23,2.07,16.6,13.39,30.27,29.19,33.67,7.8,1.68,16.16,1.17,24.24.88,3.63-.13,6.17.54,9.05,2.71,4.73,3.57,9.61,7.69,15.1,9.38,22.58,6.95,43.78,4.04,62.51-11.26,2.13-1.74,3.66-3.27,6.92-1.84,24.21,10.67,46.3,8,65.88-10.71,2.24-2.14,5.57-3.77,8.62-4.29,20.71-3.52,36.07-13.83,44.6-33.51.66-1.52,2.58-3.32,4.09-3.5,14.44-1.66,21.77-11.57,27.87-23.17.75-1.42,2.12-3.21,3.49-3.49,9.97-2.09,18.03-7.59,25.68-13.84,1.72-1.4,2.43-3.01,3.1-4.06,5.8-9.14,2.36-14.73,6.64-22.26,3.16-5.58,5.11-2.63,10.92-10.38,3.31-4.41,5.05-8.53,10.56-12.38,1.13-.79,1.94-1.42,3.71-2.2,5.28-2.33,11.13-3.8,15.82-6.98,20.67-14.01,32.38-34.84,42.04-57.07.26-.61.58-1.28.55-1.91-.4-8.25,6.93-8.82,12.26-13.2l9.71-1.06c3.92-3.45,9.61-9.24,14.25-17.81,5.04-9.32,7.59-19.75,7.95-31.21.38-12.23-3.5-23.35-9.04-33.91ZM35.48,391.93c-.17-.56-.35-1.12-.52-1.68,3.73-1.1,7.46-2.21,11.19-3.31.17.52.33,1.04.5,1.56-3.72,1.14-7.44,2.29-11.16,3.43ZM641.13,478.04c2.59.51,5.24,1.16,7.59,2.3,1.96.95,3.53,2.71,5.26,4.1-5.64,7.14-18.02,8.4-28.98,3.95-13.35-5.42-21.95-22.63-20.96-37.79.83.91,1.27,1.2,1.46,1.61,7.12,15.18,19.74,22.72,35.63,25.82ZM620.78,311.35c-7.53,14.99-18.97,25.43-35.87,28.07-4.87.76-10.31-1.32-15.32-2.73-1.46-.41-3.59-3.92-3.24-4.39,1.9-2.55,2.86-6.82,7.52-5.85,3.26.68,6.47,1.68,9.76,2.1,7.26.93,13.75-1.11,19.94-5.71-6.37.92-12.07,2.05-17.82,2.45-3.06.21-6.25-.7-9.31-1.37-3.19-.7-3.8-2.76-2.42-5.62,2.01-4.18,3.95-8.41,6.04-12.87,13.39,10.08,27.24,10.36,42.05.29-.58,2.53-.64,4.23-1.33,5.62ZM543.48,437.18c-1.9,5.16-3.8,10.32-5.7,15.48-.51-.09-1.02-.19-1.54-.28-2.74-14.18,2.87-28.13.97-43.21,16.24,15.1,16.28,51.17-.68,57.12,1.96-5.55,3.75-9.96,5.05-14.51,1.33-4.67,2.18-9.48,3.24-14.22-.45-.13-.9-.25-1.34-.38ZM542.23,405.48c-1.33-6.13-1.62-12.5-2.38-18.76.65-.22,1.3-.43,1.96-.65.91,1.12,2.1,2.12,2.69,3.39,4.02,8.67,7.92,17.4,11.94,26.32-8.18.62-12.4-1.97-14.22-10.31ZM545.44,378.61c-7.24-1.22-12.86-8.68-11.04-15.76,1.15-4.47,3.78-8.56,5.75-12.82.54.13,1.07.26,1.61.39,1.04,3.22,1.87,6.52,3.17,9.63,3.84,9.18,10.92,10.95,18.6,4.68,3.29-2.69,6.35-5.65,10.47-9.34-1.5,12.84-17.51,25.09-28.55,23.23ZM456.97,490.75c6.69,8.37,6.94,18.12,5.42,28.08-.55,3.6-1.34,7.57-5.81,8.43-4.31.82-6.17-2.64-8.01-5.57-3.24-5.16-6.29-10.44-10.22-15.35,6.6,19.71,15.74,38.71,14.26,59.55-10-8.65-19.69-17.91-30.3-25.96-10.91-8.29-23.88-12.33-37.28-13.56,2.7-6.59,5.17-12.62,8.1-19.78,4.98,3.97,10.03,7.99,15.08,12.02.29-.18.58-.36.86-.53-.72-1.27-1.32-2.64-2.18-3.8-5.84-7.9-11.62-15.84-17.65-23.6-5.06-6.52-12.69-7.94-20.06-4.07-1.32.69-2.55,1.53-4.13,2.48-1.28-1.58-2.47-3.06-3.66-4.53-.37.07-.73.13-1.1.2.51,6.25,1.03,12.5,1.54,18.76.57,0,1.14,0,1.71.01.08-1.65.2-3.3.22-4.95.08-5.71,3.21-9.47,8.17-11.44,1.79-.71,4.91-.48,6.33.68,6.5,5.3,10.46,12.04,9.42,20.86-.54,4.63-2.86,6.58-7.39,5.76-6.96-1.26-12.41,1.45-17.07,6.19-1.97,2.01-3.57,4.39-5.28,6.65-8.41,11.11-21.22,13.63-32.77,5.71-4.12-2.83-8.01-6.79-10.43-11.12-3.64-6.52-9.09-8.59-15.65-8.65-2.59-.02-5.2,1.72-7.79,2.66.78,2.12,1.56,4.24,2.25,6.11-5.96-1.9-10.28-8.7-8.78-14.99.95-4.01,1.98-8.15,3.86-11.78,4.32-8.33,9.48-9.38,17.4-4.16.3-.36.6-.72.9-1.08-2.09-1.73-3.95-4.4-6.32-4.95-2.84-.67-6.67-.47-9.08.98-13.95,8.42-22.23,21.85-30.76,35,.36.35.72.7,1.09,1.05,4.01-3.79,8.01-7.58,12.28-11.61,2.22,5.44,4.38,10.72,6.83,16.72-24.03,6.8-45.69,17.84-62.91,36.74-.34-30.21,9.83-55.89,29.52-78.33-3.8,3.33-7.94,6.35-11.31,10.06-4.47,4.92-8.37,10.35-12.45,15.61-4.93,6.37-8.46,6.22-12.24-.61-7.58-13.73-6-21.3,6.55-30.91,2.63-2.01,5.41-3.84,9.15-6.48-2.62.4-4.09.5-5.51.86-28.27,7.17-47.51-8.06-58.82-28.48-7.92-14.3-9.84-29.92-7.37-46.05.28-1.8.75-3.61,1.41-5.3,2.19-5.57,3.9-5.95,8.14-1.7,4.32,4.33,9.67,5.04,15.27,4.38,4.35-.51,7.01.74,9.06,4.87,2.51,5.04,5.84,9.69,8.95,14.42,4.86,7.37,12.17,10.34,20.99,11.46-3.97-3.31-7.55-6.28-11.13-9.26l1.57-2.52h47.74c.21.33.42.66.62.99-6.72,3.56-13.44,7.13-21.39,11.34,15.93-.16,29.37-9.21,45.4-6.31-6.37,12.11-16.91,18.81-26.12,26.78l.78,1.36c11.12-5.79,22.25-11.57,33.53-17.44,1.18,16.77,15.16,26.31,24.4,39.18.15-1.72.48-3.46.42-5.17-.54-14.48-.85-28.97-1.86-43.41-.5-7.2.99-12.88,6.48-17.9,2.77-2.53,4.21-6.53,6.45-10.19,7.41,1.63,16.16,3.05,24.17-2.15,3.17,4.38,6.49,8.63,9.38,13.17.93,1.47,1.08,3.68.97,5.52-.85,14.92-1.85,29.83-2.8,44.74.66.16,1.33.32,1.99.48,4.92-12.35,9.84-24.7,14.45-36.29,4.39,3.42,9.34,7.94,14.92,11.44,5.68,3.56,11.99,6.11,18.42,8.29-3.6-5.68-7.19-11.35-10.79-17.03.24-.61.49-1.23.73-1.84,5.26.49,10.55.75,15.75,1.55,5.19.8,10.29,2.16,15.43,3.27.14-.42.27-.84.41-1.26-5.52-2.65-11.04-5.31-16.57-7.96.13-.47.27-.95.4-1.42h50.99c-4.18,7.37-11.31,8.96-17.89,12.15,14.12-.25,25.1-4.53,31.56-17.72,2.3-4.7,6.46-8.6,10.19-12.45,1.16-1.19,3.72-1.44,5.63-1.41,7.29.12,12.27-3.37,15.97-9.34,1.88-3.04,4.08-5.88,6.13-8.81.56.08,1.12.16,1.67.25,1.45,7.91,3.98,15.79,4.16,23.73.6,27.21-8.04,50.61-31.5,66.38-6.26,4.21-13.81,6.49-20.78,9.62-3.49,1.57-7.12,2.85-10.48,4.63-3.45,1.83-4.81,4.4-1.89,8.06ZM441.65,589.59c4.62,9.59,5.86,19.58,4.21,30.15-1.31,8.44-4.21,16.94-.07,26.74-6.1-4.86-10.25-9.56-12.16-15.84-2.52-8.27-4.71-16.65-7.07-24.97-3.02-10.66-7.42-20.66-14.18-29.53-.96-1.26-2.03-2.44-3.95-3.13,2.97,6.4,5.93,12.8,8.9,19.21-.17.2-.33.4-.5.6-1.65-1.38-3.18-2.92-4.96-4.09-3.27-2.14-6.87-3.82-10-6.14-4.24-3.12-8.58-6.28-12.14-10.1-8.84-9.5-17.27-19.36-25.83-29.12-3.13-3.57-2.59-5.78,1.87-7.39,4.8-1.74,9.48-2.27,13.38,2.52-.29-.96-.58-1.92-1.15-3.79,8.02.96,12.72,7.71,20.99,9.5-3.5-3.85-6.25-6.88-9.69-10.67,9.23.64,16.7,3.64,23.71,7.64,20.4,11.63,36.27,27.65,45.13,49.64,2.41,5.98,2.72,12.88,3.46,19.42.25,2.23-1.12,4.64-2.59,7.14-6.62-14.03-12.11-28.43-23.25-39.58,1.96,3.93,3.96,7.85,5.87,11.81ZM270.58,570.35c-3.81,4.36-7.84,8.55-11.38,13.12-3.55,4.59-7.05,9.33-9.76,14.43-2.76,5.19-4.55,10.91-6.76,16.39-.38-.03-.77-.06-1.15-.08-.41-3.15-.83-6.31-1.3-9.88-6.25,13.68-3.85,29.35-10.75,42.46-.71-.03-1.42-.05-2.13-.08-.81-14.15-2.24-28.31-2.19-42.46.03-8.99,4.95-16.79,10.38-23.93,1.65-2.17,3.31-4.34,4.62-6.77-9.36,6.29-16.04,14.91-19.9,25.24-3.75,10.03-6.19,20.55-9.61,32.23-1.86-4.09-4.23-7.4-4.77-10.98-.75-5.01-.98-10.39.03-15.32,7.04-34.5,40.6-64.83,76.46-69.02-2.34,3.58-4.46,6.81-6.58,10.05.21.29.43.58.64.86,7.72-3.84,15.45-7.68,23.47-11.67,2.19,7.09-2.38,11.53-3.97,16.72.36.37.72.73,1.08,1.1,3.57-4.55,7.15-9.09,10.72-13.64.78.44,1.55.88,2.33,1.32.65,5.6,1.3,11.19,2.15,18.53,1.88-3.08,3.15-5.15,4.41-7.22.71.41,1.41.83,2.12,1.24-.59,2.31-.48,5.25-1.89,6.83-7.85,8.82-17.78,14.75-29.16,19.05,2.36-4.35,4.72-8.69,7.08-13.04-10.73,8.32-18.7,19.86-32.56,23.87,3.16-6.31,6.24-12.47,9.32-18.63-.33-.24-.65-.48-.98-.72ZM380.03,577.38c-11.52-3.9-21.2-8.27-28.19-17.11-2.02-2.55-2.34-5.2-.58-8.28,1.77-3.1,2.94-6.54,4.38-9.86,10.3,5.84,21.88,20.28,24.72,31.34-4.58-3.74-8.54-6.97-12.5-10.2-.38.42-.77.84-1.15,1.26,4.12,3.97,8.23,7.94,13.32,12.86ZM352.77,570.21c-12.65,7.37-25.48,4.59-38.31,1.87-.1-.54-.19-1.07-.29-1.61,4.39-.82,8.89-2.69,13.13-2.21,6.82.78,12.09-.81,16.49-5.9.47-.54,1.2-.87,1.8-1.28,2.59,3.29,4.93,6.27,7.18,9.12ZM273.17,625c4.23-3.4,8.88-6.56,13.82-8.74,6.22-2.74,12.6-2.03,18.59,1.75,3.3,2.09,6.96,3.6,10.75,5.52-8.56,13.67-28.76,19.36-42.12,11.08-5.69-3.53-6.13-5.52-1.04-9.62ZM308.67,604.92c-9.58.25-18.29-.42-24.72-9.44,1.33-.67,2.53-1.38,3.8-1.9,5.38-2.21,10.85-4.2,16.15-6.57,5.86-2.62,11.8-3.34,17.98-1.58,8.39,2.39,16.64,2.43,25-.44,9.14-3.13,17.94-2.19,26.35,2.88,4.8,2.9,9.91,5.3,15.42,8.21-8.02,6.73-16.85,8.9-26.71,8.76-17.76-.26-35.53-.39-53.28.08ZM367.03,616.45c7.62-4.02,15.04-3.29,22.29.85,2.44,1.39,4.73,3.06,6.98,4.74,6.85,5.1,6.81,6.01-.29,11.19-11.2,8.17-20.45,8.13-31.37-.21-3.8-2.9-7.48-5.96-11.8-9.42,5.36-2.69,9.81-4.84,14.19-7.15ZM142.68,485.82c-3.92,3.2-7.85,6.4-11.77,9.6l-.56-1.05c1.94-6.19,4.07-12.33,5.78-18.59,2.27-8.33.65-16.41-1.89-24.47-1.55-4.89-2.59-9.95-3.57-14.99-.41-2.14-.07-4.43-.07-6.66.5-.07,1-.14,1.5-.21.62,2.07,1.26,4.13,1.83,6.21.26.96.28,1.98.55,2.94,1.41,5.06,1.24,10.2,4.92,15.06,6.39,8.43,5.09,18.85,3.88,28.82-.14,1.12-.39,2.23-.59,3.35ZM101.66,419.51c.54,2.84,2.12,6.1,4.3,7.84,3.03,2.43,2.47,4.49,1.39,7.64-5.9-2.74-11.05-6.08-12.57-12.18-1.55-6.21,4.12-8.95,7.78-12.8-.4,3.45-1.45,6.63-.9,9.5ZM87.08,284.24c-.07.23-.13.47-.2.7-1.21-.08-2.45,0-3.63-.26-12.55-2.77-25.32-14.35-26.2-24.33,10.18,4.65,20.14,9.53,31.93,5.33.29,4.62,1.1,8.62.52,12.41-.26,1.71-3.28,2.99-5.24,4.63.66.35,1.74.93,2.82,1.51ZM57.65,255.82c6.32-3.3,12.64-6.59,19.21-10.02,3.48,2.48,7.5,5.34,11.86,8.45-10.07,9.17-26.95,9.43-31.07,1.57ZM78.78,203.7c-.15-.61-.02-1.29-.02-2.79,9.07,4.89,17.99,6.56,27.11,3.2,8.29-3.05,16.33-6.8,24.63-10.31.73,16.87-9.94,25.51-30.82,25.5,4.63,2.38,11.1,2.34,17.79-.12.62-.23,1.23-.51,1.85-.76,9.07-3.67,9.69-3.48,13.54,5.79.44,1.06-.41,3.73-1.31,4.1-23.73,9.86-46.23,2.31-52.77-24.61ZM485.63,150.57c-.42,9.89-3.28,18.67-12.81,24.66-3.92-45.92-32.55-71.62-72.56-88.99,10.71-5.22,21.3-5.66,32.11-3.42,29.41,6.1,54.52,38.05,53.26,67.75ZM433.17,54.76c15.76-.8,27.7,8.76,27.89,22.39-6.83-10.6-16.17-17.95-27.89-22.39ZM594.64,265.22c-2.23-1.96-4.28-4.15-6.24-6.39-3.36-3.84-3.1-7.28,1.15-10.47,2.21-1.66,4.03-3.86,6.14-5.94,2.81,4.56,5.37,8.97,8.19,13.22,3.88,5.86,9.03,10.22,15.9,12.19,3.47,1,3.97,2.85,1.71,5.39-9.63,10.83-27.63,14.09-40.48,7.41-.42-.22-.74-.64-1.52-1.34,2.36-5.09,4.76-10.27,7.22-15.59,4.85,2.48,9.07,4.63,13.29,6.78l.63-1c-2.01-1.41-4.16-2.65-5.99-4.26ZM556.36,290.11c-7.15,4.61-14.63,7.67-23.4,7.13-11.35-.7-18.1-6.27-20.42-17.36-.49-2.37-1.2-4.7-1.95-7.57,9.25-.77,16.17,7.92,26.26,4.44-11.62-3.65-19.91-10.6-27.66-18.52,5.6-4.8,13.54-5.85,18.54-1.98,13.59,10.51,28.1,10.56,43.37,4.67,3.15-1.22,6.39-2.22,9.59-3.32.3.49.6.97.9,1.46-5.34,12.79-13.39,23.4-25.25,31.04ZM462.69,393.42c2.62-5.33,3.71-5.15,8.75-.42-1.5,2.58-3.06,5.27-5.31,9.15,3.56-2.25,6.15-3.89,9.61-6.07-2.61,5.84-6.71,8.53-11.48,10.51-12.49,5.19-25.44,6.17-38.71,4.24-4.78-.69-9.56-1.44-14.36-1.8-5.21-.4-8.94-3.05-12.49-7.06.98-1.51,1.61-2.7,2.43-3.73,5.11-6.38,7.34-6.88,12.04-.3,10.29,14.41,40.55,13.76,49.52-4.53ZM419.54,394.57c1.93-2.25,3.99-3.31,6.93-1.72,8.2,4.43,13.64,3.76,19.81-2.82,3.53-3.76,6.85-1.72,9.75.18,3.27,2.15.67,4.92-.68,6.86-4.96,7.14-12.58,8.59-23.41,9.13-2.29-1.05-6.98-2.89-11.33-5.33-2.3-1.29-3.3-3.71-1.07-6.29ZM437,373.88c2.49-5.56,6.54-4.14,9.51-4.08,14.06.28,27.52,2.57,37.96,12.92l-.88,2.71c-14.05-9.13-29.96-10.61-46.59-11.54ZM451.34,346.28c-13.24,8.33-26.54,16.57-39.82,24.84-.28-.35-.55-.69-.83-1.04,8.34-7.64,16.69-15.28,25.03-22.93-.33-.41-.66-.82-.99-1.22-5.72,4.11-11.38,8.31-17.19,12.29-9.33,6.4-18.4,13.3-28.29,18.7-5.62,3.07-12.55,4.17-19.05,5.06-6.29.86-7.05-.7-4.11-6.22,4.22-7.94,8.6-15.79,12.9-23.69.45-.83.77-1.73.18-3.29-6.74,8.66-13.47,17.33-20.23,26.02-8.48-9.14-7.1-19.71,4.68-37.63-5.82,2.56-12.52,9.57-14.47,17.47-1.84,7.48-2.1,15.35-3.13,23.67h-18.57c-.46-15.95-.46-31.85-16.27-41.47,6.8,9.46,12.19,19.32,7.41,31.29-1.32,3.31-3.88,6.13-6.58,8.99-6.16-12.67-13.96-23.18-25.12-32.66,1.53,3.46,2.57,5.82,3.62,8.18-14.83-4.37-26.47-13.05-36.03-25.03-.5,8.29,2.53,15.12,7.47,21.98-8.44-3.61-17.01-6.95-25.29-10.89-8.41-4-16.34-9.05-24.84-12.83-13.27-5.9-29.2,1.16-35.32,15.99,5.46-3.92,10.19-7.12,14.69-10.61,7.57-5.88,15.55-6.57,23.76-1.86,9.82,5.63,19.04,12.45,29.25,17.2,10.8,5.03,22.32,8.65,33.77,12.07,7.24,2.17,9.05,1.06,13.61-3.82.95.74,2.28,1.3,2.86,2.3,3.8,6.6,7.86,13.1,10.98,20.02,1.95,4.32-.24,6.85-4.77,5.48-4.42-1.33-9.01-3.65-12.31-6.81-7.73-7.42-17.17-11.53-26.36-16.23-.27.37-.54.73-.82,1.1,5.87,4.69,11.74,9.37,17.62,14.06-.15.29-.29.58-.44.87-1.37-.57-2.82-1.01-4.11-1.74-16.82-9.5-33.86-18.64-50.33-28.71-13.13-8.03-26-9.9-39.52-1.91-6.43,3.8-12.59,8.08-18.9,12.08-1.96,1.25-4.05,2.3-6.08,3.45-.4-.46-.81-.91-1.21-1.37,6.24-9.08,12.4-18.22,18.75-27.22,6.61-9.38,13.55-18.54,20.08-27.98,6.87-9.94,14.36-13.08,26.22-10.21,6.12,1.48,12.18,3.23,18.26,4.85.15-.49.3-.99.45-1.48-8.74-2.58-17.35-5.89-26.27-7.51-7.37-1.34-13.24,3.49-18.59,8.18-1.11.97-2.04,2.15-3.61,3.84-2.04-9.21-4.16-17.83-5.7-26.56-.28-1.6,1.36-4.08,2.82-5.35,4.49-3.9,9.87-5.42,15.81-4.37,2.12.38,4.32.77,6.27,1.63,20.03,8.84,38.49,5.12,55.61-7.24,8.34-6.02,16.24-12.68,24.09-19.34,2.43-2.07,4.24-2.83,7.46-1.68,13.28,4.74,26.77,8.29,41.06,4.64,1.35-.34,2.94.17,4.4.37,13.16,1.87,25.25-.59,35.58-9.27,2.79-2.35,5.09-2.76,8.46-1.26,12.42,5.53,25.56,8.32,38.96,5.61,7.47-1.51,14.53-5.29,21.57-8.49,2.59-1.18,3.93-1.69,6.29.68,3.23,3.25,7.25,5.77,11.08,8.38,3.16,2.15,6.66,3.79,9.79,5.98,9.16,6.41,14.27,14.58,11.79,26.41-1.87,8.89-3.04,17.92-4.5,26.75-5.39-3.32-9.82-6.63-14.71-8.95-7.66-3.62-15.95-4.29-23.85-1.15-32.6,12.95-66.91,14.31-101.26,15.15-18.98.46-37.99-.04-56.98-.1-.79,0-1.57.15-2.36.22-.06.52-.12,1.05-.19,1.57,10.09,1.47,20.13,3.68,30.27,4.27,41.56,2.43,82-4.04,121.7-16.14,7.4-2.26,15.22-4.17,22.88-4.29,11.6-.19,19.66,5.82,24.82,16.73,4.82,10.18,11.24,19.61,16.96,29.36,5.1,8.69,10.2,17.39,15.76,26.86-1.9-.26-4.25.06-5.78-.92-5.32-3.4-10.58-6.97-15.45-10.98-14.46-11.87-29.31-11.91-44.77-2.19ZM398.34,405.75c.03.57.06,1.14.09,1.71-3.17.45-6.35,1.24-9.52,1.19-1.51-.03-3.56-1.36-4.29-2.69-.55-1,.14-3.4,1.09-4.37,3.05-3.12,6.47-5.87,9.75-8.76.21.29.42.59.63.88-2.95,3.64-5.91,7.28-9.78,12.04h12.02ZM278.72,392.92c.26-.23.53-.45.79-.68,2.97,3.46,5.95,6.92,8.92,10.38-.56.42-1.12.83-1.68,1.25-2.68-3.65-5.36-7.3-8.04-10.95ZM285.6,406.56c-.1.51-.2,1.03-.29,1.54-3.04-.43-6.07-.86-9.5-1.34,2.92-4.5,4.15-4.42,9.8-.2ZM210.76,377.61c-7.1,1.95-13.98,4.73-22.21,7.58,8.63-11.32,32.5-18.21,43.64-12.06-7.15,1.46-14.41,2.55-21.43,4.47ZM245.59,392.42c4.25-3.08,9.31-1.41,10.43,3.79.27,1.26-.99,3.72-2.18,4.28-5.59,2.64-11.41,4.81-14.78,6.18-10.49-.82-17.88-2.06-22.97-8.46-1.69-2.13-4.49-5.28-1.06-7.71,2.81-1.99,6.22-4.22,9.96.14,5.44,6.33,13.84,6.68,20.61,1.77ZM199.55,398.6c.86.09,1.71.18,3.03.33-.77-1.95-1.49-3.76-2.21-5.59,4.12-2.62,6.31-.57,7.99,2.42,7.82,13.9,36.99,17.25,49.1,5.26,2.92-2.89,5.46-6.17,8.49-9.62,1.44,1.14,2.63,2.03,3.78,2.98,5.42,4.47,4.32,11.88-2.68,13.41-19.28,4.19-38.76,7.63-57.71-1.57-3.64-1.77-6.9-4.3-10.34-6.48.19-.38.37-.76.56-1.14ZM198.48,133.2c.21.18-1.7,3.71-3.22,4.92-10.39,8.25-20.56,16.91-33.48,21.26.28.56.57,1.13.85,1.69,8.13-3.42,16.26-6.85,23.99-10.1-5.72,15.58-15.08,20.93-29.63,20.08-10.99-.64-17.71-8.21-17.41-19.16.03-1.12.64-2.76,1.5-3.25,9.77-5.56,16.45-14.38,23.96-22.33,9.24-9.78,20.71-13.83,34.58-13.41-.6,3.81-1.34,7.18-1.6,10.58-.24,3.17-3.29,6.54.45,9.72ZM142.5,183.74c12.63,7.49,24.62,7.17,35.68-4.42.28,4.18.33,7.12.71,10.01,1.12,8.55.33,9.61-8.45,10.61-1.31.15-2.62.22-3.92,1.2h15.82c1.55,5.43.85,7.46-4.41,9.85-6.54,2.98-13.19,3.2-19.7-.24-9.82-5.19-17.22-17.39-15.74-27.01ZM337.09,143.03c-27.5-7.38-49.86,1.34-68.63,21.22-12.04,12.75-20.03,15.55-36.84,10.83,2.44,0,4.89.01,7.33,0,13.88-.08,24.63-6.05,32.59-17.29,3.56-5.03,7.03-10.12,10.73-15.05,13.47-17.91,27.55-23.67,54.54-15.35,23.43,7.23,35.97,25.67,42.85,48.42,3.81,12.61,4.05,24.9-2.14,36.9-3.19,6.18-5.77,8.95-11.56,11.83-.06-.29-.28-.7-.17-.86,22.04-29.44,7.09-71.06-28.72-80.66ZM222.54,184.4c3.28,3.27,7.59,6.73,11.9,7.47,6.95,1.19,14.27.21,21.09.15-.86,3.48-4.63,6.83-11.77,9.35-12.06,4.27-24.01-2.03-26.69-14.07-2.35-10.58,6.23-19.42,18.02-17.73-3.6,2.23-6.58,4.59-9.95,6.03-4.7,2.02-6.25,5.14-2.59,8.8ZM440.36,126.22c-.65-5.35-3.99-10.38-6.24-15.91,35.68,26.29,45.8,77.02,4.13,108.8,3.9-8.78,9.04-18.19,12.27-28.22,3.45-10.73.35-21.36-4.57-31.52,6.63,18.5,1.2,33.84-12.51,46.5-6.64,6.13-13.44,12.96-23.96,11.46-1.07-17.37,4.52-31.53,17.14-43.21,14.09-13.04,15.9-30.17,13.74-47.89ZM492.09,223.86c-3.73.34-7.3,2.2-11.03,2.97-2.47.52-5.09.33-7.65.46-.18-.82-.36-1.65-.54-2.47,9.74-4.42,19.35-9.17,29.28-13.13,6.52-2.6,13.49-2.05,18.55,3.29,5.48,5.79,7.45,13.02,4.93,21.39-2.22-7.13-7.36-11.61-13.99-12.74-6.33-1.08-13.07-.36-19.56.23ZM498.99,204.46c5.64-3.37,11.39-7.79,17.87-10.46,11.15-4.59,22.3,2.11,24.42,13.98.63,3.53.59,7.17.86,10.76-.43.15-.87.29-1.3.44-2.98-8.54-8.53-15.18-17.42-16.14-7.98-.86-16.24.84-24.43,1.42ZM533.2,246.83c2.79-3.74,5.62-7.54,8.79-11.79,8.46,11.05,20.59,14.16,33.86,15.97-9.98,6.13-33.83,5.34-42.65-4.18ZM504.05,190.12c-6.57,3.23-13.2,6.39-19.58,9.97-4.86,2.73-9.38,6.07-13.41,8.73,1.37-7.25,2.54-15.3,4.46-23.18,2.18-8.92,9.04-14.05,17.05-16.88,19.84-7.01,37.89-.97,49.42,17.02.32.5.42,1.15,1.08,3.04-14.15-10.69-26.61-4.8-39.02,1.31ZM492.91,166.03c2.45-12.59,2.28-24.56-1.82-36.29,17.49-1.57,42.75,18.61,44.21,40.59-13.52-6.82-27.4-9.2-42.38-4.31ZM497.33,123.11c-7.7-1.14-11.75-4.65-15.36-10.78-2.78-4.73-6.75-8.77-10.24-13.17,19.49-6.6,47.93,12.65,49.31,32.39-7.68-2.87-15.46-7.22-23.71-8.44ZM435.91,131.88c1.47,15.23-11.33,35.97-25.6,40.86,7.98-28.66,9.86-56.13-14.85-79.38,22.19,2.93,38.55,18.9,40.45,38.52ZM407.11,150.62c-.85-10.5-4.43-19.91-11.26-28.2,13.64,32.66,9.35,63.31-8.78,92.38,2.43-12.5,4.9-25.19,7.37-37.88-.55-.16-1.09-.33-1.64-.49-1.18,2.06-2.37,4.12-3.19,5.56-1.95-6.76-4.04-13.93-6.08-21.12-.17-.61-.1-1.32,0-1.96,4.18-27.93-21.66-52.87-49.7-47.41-11.25,2.19-22.37,5.39-33.25,9.02-9.2,3.07-16.44,9.56-22.33,17.14-5.51,7.09-11.36,13.49-19.84,17.35,2.29-.43,4.59-.85,7.51-1.4-3.8,3.83-7.63,4.98-12.14,3.2-2.63-1.04-5.28-2.1-7.77-3.42-21.48-11.37-37.15,1.2-40.83,21.26-3.21,17.51,7.06,36.3,22.86,42.49,15.34,6.01,30.76-.28,37.23-15.54,2.26-5.34,3.53-11.1,5.45-16.6,6.55-18.78,18.57-32.19,38.16-37.68,25.29-7.09,49.53,7.94,54.7,33.71,2.28,11.38,2.14,22.48-4.5,32.76.59-3.71,1.41-7.41,1.71-11.15.3-3.8.33-7.66.06-11.47-1.1-15.55-11.63-26.88-27.14-28.48-20.44-2.11-36.9,6.13-49.6,21.56-5.39,6.54-9.01,14.54-13.44,21.87.63.5,1.25,1,1.88,1.5,2.67-3.07,5.26-6.21,8.03-9.18,6-6.45,11.61-13.38,18.26-19.1,10.66-9.18,23.74-11.12,37.16-8.76,4.6.81,9.36,3.71,12.91,6.92,9.63,8.73,11.88,32.18,4.72,42.96-.79,1.19-1.87,2.2-3.71,4.33.25-4.3.92-7.39.52-10.33-.91-6.69-1.35-13.69-3.78-19.86-4.04-10.26-12.26-13.8-23.14-11.7-9.7,1.87-17.52,7.15-24.57,13.67-6.97,6.44-13.71,13.15-20.6,19.69-1.54,1.46-3.28,2.72-5.7,3.4,1.8-2.28,3.61-4.57,5.88-7.44-7.25,5.18-13.63,10.15-20.41,14.5-16.95,10.87-39.92,8.05-53.36-7.12-15.83-17.86-19.79-38.62-11.59-61.04,7.39-20.21,22.81-27.46,45.42-22.98,7.29,1.44,14.85,2.83,22.17,2.39,5.5-.33,11.38-2.76,16.11-5.78,8.93-5.72,17.16-12.53,25.63-19.31-3.31,1.43-6.74,2.63-9.9,4.33-4.84,2.6-9.62,5.35-14.21,8.37-10.18,6.7-21.15,9.12-33.3,7.83-9.86-1.04-19.83-1.09-30.05-1.59.66-1.16,1.46-3.08,2.69-4.67,10.56-13.67,24.69-18.59,41.51-16.53,6.61.81,13.18,1.98,19.76,2.96,5.56.83,10.4-.77,15.08-3.84,9.86-6.46,19.41-13.69,29.99-18.69,27.87-13.17,53.92-3.37,70.21,13.36,12.51,12.84,15.76,28.78,12.87,46.24ZM360.4,80.21c-17.94-3.08-34.7,1.12-50.72,9.18-7.73,3.89-15.35,8.15-23.42,11.18-5.6,2.11-12.07,3.97-17.82,3.26-23.18-2.88-43.76,1.67-61.1,19.08,2.91-27.36,33.01-49.52,59.07-44.33,3.92.78,7.81,1.67,11.7,2.6,5.26,1.26,9.47-.46,13-4.34,1.46-1.6,3.11-3.04,4.43-4.75,17.32-22.33,45.17-18.78,61.55-9.62,7.76,4.34,13.93,11.58,20.64,17.7,1.45,1.32,2.14,3.48,3.33,5.52-7.32-1.98-13.88-4.32-20.65-5.48ZM204.01,105.65c-.87,1.17-3.08,1.95-4.65,1.91-15.6-.41-29.48,3.88-41.61,13.96-3.71,3.09-8.21,5.24-12.35,7.81,3.42-13.79,9.54-25.53,21.81-32.35,8.2-4.56,17.04-8.21,25.95-11.18,9.28-3.1,18.91-5.46,28.18-4.4-5.62,7.94-11.33,16.2-17.33,24.26ZM157.39,96.5c-9.41,9.61-15.75,20.89-19.5,33.84-.87,3.02-3.55,6.07-6.21,7.91-4.72,3.27-10.11,5.51-16.62,5.45,3.46-20.54,26.68-51.31,45.47-51.1-1.26,1.58-2.1,2.84-3.14,3.9ZM133.58,146.31c.82,8.45,1.62,16.6,2.53,25.9-6.31-.64-12.73-1.29-19.9-2.01,3.55,2.74,6.74,5.2,11.07,8.55-2.79.49-4.55,1.36-5.93.95-7.09-2.11-13.28-5.63-15.77-13.19-2.17-6.6-4.21-13.3-1.81-21,9.75,7.76,19.61,4.41,29.81.8ZM95.88,264.59c10.97-3.85,21.78-8.26,30.28-16.74.84-.84,2.34-1.52,3.49-1.45,7.11.4,14.22,1.04,21.85,1.64-7.84,9.94-17.73,16.33-29.4,20.2.19.4.37.8.56,1.2,6.29-1.71,12.58-3.43,19.68-5.36-3.24,9.69-10.86,13.79-18.19,18.16l.77,1.23c5.94-3.16,11.98-6.13,17.78-9.52,5.23-3.05,10.46-4.9,16.48-2.81-.05.55.04,1.02-.13,1.14-7.69,5.77-15.06,12.05-23.18,17.15-18.03,11.31-38.8,1.94-42.96-18.93-.55-2.78-.77-4.59,2.97-5.9ZM130.68,387.37c3.67,9.01-4.56,27.71-13.81,30.47,2.23-9.18,11.22-28.87,13.81-30.47ZM107.4,376.66c-9.58-5.03-14.2-11.81-12.45-19.46,6.09,5.68,10.79,13.2,20.46,10.46,8.5-2.41,12.31-9.61,16.54-16.45,4.41,7.03,3.32,15.48-2.7,21.91-5.84,6.24-14.14,7.59-21.86,3.54ZM121.95,423.97c.44-5.99,4.89-9.51,9.88-12.74-10.63,15.67-2.4,31.91-1.38,47.83-.51.07-1.03.14-1.54.21-.72-1-1.66-1.91-2.11-3.02-4.27-10.35-5.67-21.19-4.85-32.28ZM134.11,331.93c-2.11.47-4.42.07-6.81-.51,11.72-5.24,20.65-13.03,25.68-25-1.51,1.33-3.01,2.68-4.53,4-6.81,5.95-14.48,9.97-23.63,10.91-11.47,1.18-20.87-5.68-23.53-17.31,12.45,9.95,16.22,11.31,23.94,8.29-8.17.51-14.96-1.32-21.03-8.13,3.92,1.34,6.52,2.45,9.23,3.11,8.88,2.15,17.28,1.26,24.42-4.97,4.25-3.71,8.17-7.82,12.32-11.64,2.06-1.9,4.13-3.94,6.55-5.28,3.92-2.16,6.74-.73,7.86,3.59,2.53,9.78-.49,18.54-5.69,26.55-5.8,8.93-14.46,14.11-24.77,16.4ZM506.96,288.8c9.23,10.05,17.68,20.2,31.79,21.87,14.35,1.71,24.53-6.37,34.35-15.27l1.31.61c-.31,2.62.04,5.55-1.04,7.79-6.29,12.97-28.64,23.99-42.76,21.41-16.55-3.03-28.14-20.31-23.64-36.41ZM627.42,324.43c.79-2.6,1.45-4.58,2-6.58,1.94-7.07,1.32-13.98-4.12-19.05-5.56-5.19-4.48-10.35-2.14-16.19,14.45,6.94,21.95,31.07,4.27,41.83ZM612.96,200.52c5.98,4.88,10.42,10.84,11.73,18.8-5.39-2.76-10.46-5.36-15.68-8.04-.3-3.16-.63-6.59-1.07-11.13,1.73.09,3.96-.49,5.01.37ZM607.23,220.55c.4-2.96,1.71-4.37,4.82-4.48,5.45-.2,9.38,2.67,11.01,7.14,4.91,13.5,14.46,17.85,28.47,15.23-4.64,11.24-17.16,15.44-28.61,10.37-10.51-4.65-17.24-16.86-15.69-28.26ZM604.45,201.35c-1.46,3.59-2.37,6.34-3.66,8.9-7.13,14.18-30.56,21.95-43.75,14.66-4.51-2.5-6.49-5.7-6.15-11.27.77-12.55,3.91-25.5-4.86-37.13.68-.37,1.37-.74,2.05-1.11,3.01,2.74,6,5.5,9.05,8.2,6.21,5.48,12.02,11.53,18.78,16.23,8.43,5.85,17.95,6.44,28.54,1.53ZM573.64,166.55c7.47,1.97,14.61,14.83,12.64,25.16-3.91-1.4-7.7-2.7-11.43-4.18-.57-.23-1.15-1.28-1.16-1.96-.09-6.39-.05-12.78-.05-19.02ZM576.25,132.91c20.39,1.67,27.34,21.62,24.46,36.17-1.38-2.15-2.4-4.18-3.81-5.88-6.44-7.71-14.72-9.61-24.28-7.57-1.37.29-3.59,0-4.29-.9-.75-.96-.17-2.96-.17-4.7-6.87-4.26-7.85-13.08-13.16-19.56,7.82.91,14.52,1.9,21.26,2.45ZM564.89,181.37c-6.54-3.84-12.94-7.49-19.18-11.39-.92-.57-.97-2.41-1.61-3.55-4.5-8.1-9.1-16.15-13.55-24.28-1.08-1.97-1.91-4.13-2.48-6.3-1.58-6.07-3-12.18-4.43-18.28-1.26-5.41-2.44-10.84-3.9-17.36,20.87,7.83,48.96,59.47,45.13,81.17ZM540.86,80.53c9.02,6.73,11.94,19.55,6.49,32.31-2.54-4.28-5.65-7.62-6.61-11.5-2.4-9.75-7.72-14.84-17.39-13.55-5.06.68-6.44-1.67-7.81-5.22,6.47-5.48,19.38-6.46,25.32-2.03ZM487.28,73.25c14.81,1.71,24.19,14.11,26.62,33.96-8.9-4.87-18.29-10.02-28.24-15.47.48-5.42,1.05-11.95,1.62-18.5ZM400.08,34.17c9.68,2.94,19.39,2.66,29.09.24,32.03-7.99,60.46,22,54.7,55.53-.14.8-.42,1.57-.67,2.47-4.22.22-8.3.42-12.87.66,0-1.66-.06-2.94,0-4.22.68-13.13-4.42-23.85-14.49-31.86-3.57-2.84-8.48-4.68-13.04-5.48-11.57-2.03-23.28-3.36-34.97-4.68-4.25-.48-6.54-2.31-7.26-6.5-.34-1.94-1.23-3.78-1.91-5.79.55-.16,1.05-.49,1.42-.38ZM446.1,79.68c-19.92-9.18-38.42-7.53-55.69,2.32-7.2-6.91-13.98-13.42-20.73-19.91,20.48-19.45,64.65-10.32,76.42,17.58ZM275.08,39.19c9.96-10.97,22.58-15.92,37.18-16.95,4.84-.34,9.83-1.6,14.3-3.52,14.45-6.21,28.99-9.14,44.01-2.55,12.22,5.36,19.85,15.15,25.41,27.32-7.89,3.1-14.74,4.22-19.66-4.28.18,1.86.37,3.73.6,6.11-17.14-19.13-42.98-14.99-60.42-1.74,2.9-2.71,5.8-5.43,8.73-8.16-9.38,1.77-16.6,7.27-18.16,13.47-5.79-1.85-11.13-4.29-16.73-5.15-5.69-.87-11.61-.19-18.27-.19,1.11-1.63,1.89-3.13,3-4.35ZM265.45,50.63c6.69-6.35,26.73-4.15,34.82,2.19-7.51,7.3-14.67,14.47-22.15,21.3-1.23,1.12-3.97,1.31-5.8.92-9.51-2.03-19.47-4.69-28.57-1.08-13.42,5.32-27.14,5.35-41.03,5.96-4.68.21-9.31,1.75-14.72,2.83,3.84-8.19,9.44-13.86,16.53-18.08,8.59-5.11,17.9-7.82,27.94-8.28,7.47-.34,14.98-.86,22.37-1.96,3.57-.53,7.03-.41,10.61-3.8ZM253.99,33.41c-4.84,4.89-9.89,10.08-15.08,15.13-.74.72-2.12,1.06-3.21,1.08-16.68.33-30.77,7.42-44.07,16.66-.88.61-1.92,1-3.2,1.66,7.96-22.62,43.12-40.59,65.57-34.52ZM118.99,88.17c3.76-11.52,10.82-16.7,22.92-17.26,3.33-.15,6.66-.23,9.99-.47,8.79-.64,15.39-4.88,19.99-12.33,3.15-5.1,6.39-10.15,9.39-15.34,1.85-3.2,1.1-2.93,1.56-3.53,2.88-3.75,8.26-3.31,14.46-2.9-5.7,5.09-10.44,11.7-13.97,20.16-.45,1.07-1.05,2.1-1.71,3.05-8.42,12.1-18.8,21.82-33.72,24.82-12.25,2.46-23.61,5.93-31.35,17.23.29-4.73,1.06-9.18,2.45-13.44ZM121.47,113c-3.83,4.01-7.02,7.57-10.5,10.83-.93.87-2.72,1.12-4.12,1.15-17.68.49-28.42,12.43-26.77,29.83.03.3-.16.62-1.48,1.28-.87-3.51-2.37-7-2.49-10.54-.75-21.01,24.21-39.44,45.37-32.56ZM75.5,187.6c.15-.27.52-.41.76-.64,6.34-6.04,12.67-12.08,19.37-18.48,2.76,8.35,5.79,16.89,14.88,20.79-6.06,10.32-20.91,13.19-30.02,6.35-.86-.64-2.16-.68-3.06-1.29-2.48-1.66-3.57-3.85-1.92-6.74ZM24.98,217.22c3.24,1.46,6.39,3.39,9.81,4.33,8.6,2.36,15.38-.29,20.17-7.9,2.29-3.63,3.56-7.88,5.75-11.58,2.72-4.62,5.91-8.97,8.89-13.44.66.33,1.32.66,1.97.99-.48,11.29.96,22.81-4.87,33.41-3.91,7.12-9.7,11.78-17.59,13.6-12.84,2.96-25.75-7.61-24.15-19.4ZM56.83,279.26h-14.02c2.83-5.74,5.22-10.58,7.61-15.42.53.16,1.07.32,1.6.48,1.56,4.86,3.13,9.72,4.81,14.93ZM23.43,325.71c-4.67-1.03-8.22-3.33-9.45-8.8.92-.3,1.39-.63,1.82-.57,13.03,1.68,19.92-6.16,25.08-16.39,2.01-3.99,3.15-8.42,5.18-12.39.87-1.71,3.5-4.21,4.48-3.87,3.04,1.04,7.31,2.67,8.22,5.14,7.19,19.38-18.87,40.53-35.32,36.89ZM55.94,324.48c5.66,0,10.36.58,14.84-.16,4.51-.74,8.79-2.84,13.2-4.26,1.77-.57,3.62-.9,5.44-1.34.47,2.32,1.12,4.63,1.32,6.97.09,1.04-.72,2.16-.91,2.69,3.39,1.81,6.65,3.55,10.72,5.72-7.66,7.67-15.87,8.71-24.42,6.68-8.91-2.12-15.29-7.86-20.19-16.3ZM20.2,496.51c26.13.79,42.84-12.74,54.2-35.11-.97,14.92-5.92,28.24-17.68,38.27-7.29,6.22-15.79,9.09-25.48,7.25-6.22-1.18-9.85-4.64-11.05-10.41ZM57.84,552.54c-10.18,13.64-13.1,29.23-10.79,45.94.11.8.19,1.61.46,3.85-9.45-7.17-15.53-14.98-16.83-25.69-2.56-21.18,6.23-37.91,21.1-52.07,3.25-3.1,6.73-5.97,10.09-8.95,10.69-9.51,21.75-18.71,27.33-32.95,5.11,3.6,4.86,8.21,3.83,12.77-2.94,13.03-8.53,24.87-16.94,35.27-5.97,7.38-12.59,14.25-18.25,21.85ZM93.04,557.83c-6.21,14.4-12.04,28.91-13.99,44.62-.57,4.54-.65,9.14-.96,13.71-.48.2-.96.39-1.44.59-1.98-3.63-4.47-7.08-5.85-10.92-4.07-11.39-2.69-22.66,1.99-33.58,6.06-14.15,15.53-25.91,26.25-36.75.68-.68,1.57-1.15,2.36-1.72.43.23.86.46,1.29.68-3.21,7.79-6.32,15.63-9.66,23.37ZM106.12,460.96c-5.17.22-9.2-1.99-11.83-6.18-7.04-11.22-15.23-22-20.38-34.05-8.68-20.3-6.63-40.76,4.85-59.86,1.36-2.26,4.07-3.7,6.16-5.52.53.4,1.05.81,1.58,1.21-5.73,5.3-6.87,11.6-5.37,18.75.37,1.77-.73,3.87-1.19,5.81-2.51,10.35-2.27,20.65.22,32.1,3.66-10.45,6.92-19.76,10.53-30.08,6.35,4.46,11.31,7.95,16.89,11.87-2.16,2.26-4.29,4.27-6.15,6.51-2.65,3.16-5.69,6.19-7.54,9.8-5.84,11.42-1.95,22.04,9.97,26.97,3.87,1.6,5.37,3.79,5.54,7.65.15,3.49.48,6.99.95,10.45.46,3.39-1.18,4.44-4.21,4.57ZM118.67,642.6c.18,4.78.79,9.54.26,14.88-1.44-2.4-3.24-4.66-4.26-7.23-3.49-8.73-3.85-17.79-2.1-26.95,2.53-13.27,7.03-25.76,14.7-37.78,2.93,5.07,4.53,9.25,1.97,14.48-6.57,13.41-11.13,27.41-10.56,42.6ZM148.2,705.25c-4.5-7.95-4.1-16.16-3.56-20.31-.73,1.43-1.46,3.18-1.99,5.23-1.41,5.46-.68,10.2,0,12.95-2.2-3.76-4.79-9.52-4.48-16.44.27-6.22,2.67-8.37,6.18-17.35,4.27-10.89,6.81-19.97,6.68-27.84-.12-6.87.92-13.77,1.44-20.65-.43-.13-.85-.26-1.28-.39-3.59,11.29-7.17,22.58-10.85,34.16-5.85-1.02-10.18-4.27-12.29-10.03-3.06-8.38-3.07-17.15,1.34-24.73,5.4-9.27,11.82-18.05,18.61-26.38,8.58-10.53,14.97-21.97,18.17-35.16.42-1.74.52-3.56-.24-5.74-1.13,2.55-2.32,5.08-3.39,7.66-3.08,7.41-8.38,12.61-15.41,16.39-3.11,1.67-4.77.92-6.48-1.78-5.08-8.03-6.2-16.73-4.79-25.93.22-1.45.51-2.89.07-4.62-1.06,2.26-2.11,4.51-3.76,8.03-1.07-4.14-1.84-7.15-2.62-10.15-.5-.02-1.01-.04-1.51-.05-1.11,9.56-2.23,19.12-3.49,29.94-1.77-3.02-3.71-5.38-4.65-8.09-5-14.43-1.28-27.85,5.1-40.95,6.01-12.34,11.84-24.76,17.74-37.15,1.45-.43,3.22-.48,4.19-1.38,1.5-1.38,2.42-3.39,4.29-6.19,1.01,12.24,1.92,23.27,2.95,35.76,2.67-4.47,4.77-7.98,7.3-12.22,5.25,11.07,6.02,21.82,5.82,33.18,1.56-3.23,3.13-6.46,5.02-10.38,2.74,7.54,1.02,13.8-2.02,20.09,5.88-1.95,12.16-11,12.17-18.39.01-7.98-.76-15.95-1.23-23.93-.09-1.63-.32-3.25-.49-4.88,8.04-.59,17.84,8.68,18.71,17.61.32,3.3.04,6.66.11,9.99.27,11.97.59,23.94.86,35.91.06,2.57,0,5.15-.57,7.82-7.77-10.74-7.59-23.81-10.12-36.05l-1.44-.14c-.82,2.22-1.74,4.41-2.43,6.67-2.34,7.62-4.16,15.44-7.03,22.87-2.79,7.22-6.61,14.04-10,21.1,9.05-6.34,12.22-17.01,18.62-25.95v29.01c-12.28,6.23-16.46,18.41-18.77,31.35-1.64,9.19-.24,18.15,4.67,26.53,1.12,1.9.35,5.36-.4,7.84-3.12,10.32-7.26,20.38-9.71,30.85-2.55,10.91,19.56,21.86,22.97,32.48.64,1.99,1.18,4.02,1.83,6.23-17.04,2.55-32.89-4.04-39.87-16.37ZM191.48,635.39c.27,1.02.78,1.98,1.81,4.5-2.83-1.36-4.58-1.78-5.74-2.83-12.32-11.11-11.07-30.56-2.97-41.99.58-.81,3.47-1.05,4.38-.36,3.21,2.43,3.88,5.69,2.55,9.75-1.69,5.16-3.68,10.54-3.69,15.83-.02,5.04,2.32,10.09,3.67,15.11ZM245,783.89c-.79-.43-1.61-.82-2.37-1.3-4.89-3.09-9.49-6.8-14.7-9.21-20.84-9.65-28.53-25.16-22.81-47.52,3.2-12.54-19.68-24.3-24.26-35.94.17,2.09.34,4.17.53,6.5-9.22-8.19-10.54-26.32-3.53-41.6,7.41,3.63,14.84,7.28,21.95,10.77-1.64,5.03-4.44,11.15-5.46,17.55-.73,4.51-.01,9.81,1.75,14.05,3.33,8.02,25.35,16.16,25.06,24.73-.45,13.58,3.41,25.5,11.94,36.11,3.32,4.13,6.21,8.69,8.69,13.37,1.95,3.69,2.98,7.87,4.42,11.83-.4.23-.81.45-1.21.68ZM253.4,747.44c-4.97-3.19-12.18-7.82-13.07-8.41-13.08-8.63-21.15-40.12-22.19-39.82-.27.08-.02,2.29,2.11,11.23-1.93-1.16-3.86-2.32-5.79-3.48-1.77-1.47-9.91-8.53-8.98-17.42.15-1.47.75-4.81,6.83-12.22,3.83-4.67,6.58-9.2,14.96-14.28,10.58-6.41,19.97-13.71,28-22.97.42-.49.97-.86,1.82-1.6.8,1.22,1.64,2.18,2.14,3.3,3.91,8.7,5.45,17.23,4.14,25.54-1.16,7.35-3.68,8.71-7.41,17.53-2.63,6.21-5.68,15.56-6.6,28.25-.76-1.9-1.52-4.23-2.07-6.92-.72-3.56-.85-6.72-.77-9.21-.77,4.59-1.24,10.02-.88,16.09,1.04,17.69,8.5,30.89,13.25,37.87-1.24-.79-3.15-2.01-5.48-3.51ZM300.45,790.26c-1.55,10.64-12.02,23.49-24.46,23.89,10.94-6.63,15.78-16.04,15.31-28.13-.45-11.66-6.74-20.74-14.48-30.07,14.72,5,25.53,21.29,23.63,34.31ZM313.07,801.71c2.15-1.99,3.96-3.55,5.64-5.24,7.65-7.71,10.07-16.75,6.14-27-1.41-3.68-3.77-7.01-5.71-10.49-2.35-4.21-5.35-6.02-10.76-5.95-20.34.26-58.36-21.3-55.38-41.86.76-5.23,1.86-10.65,4.07-15.39,6.14-13.17,12.94-26.03,19.99-40.04,1.12,6.5,2.19,12.67,3.3,19.1,7.61-14.86,22.01-22.64,33.99-33.05.51.35,1.02.69,1.53,1.04-2.56,5.39-5.11,10.77-7.73,16.29,9.86-7.84,13.09-19.83,18.67-30.37,8.17,6.49,10.88,20.88,5.72,30.71-2.68,5.12-6.25,9.83-9.8,14.43-11.93,15.51,3.98,32.64,8.8,51.74.07.28-.1.63-.16.95-15.46-4.74-41.23-12.73-43.03-31.83-10.03,12.12,15.05,34.5,30.05,41.29,12.2,5.52,20.73,13.36,23.66,26.88,3.94,18.17-9.47,36.79-28.97,38.8ZM417.91,740.51c-.47-4.64-.82-8.08-1.18-11.53-2.17,17.98-12.15,29.21-28.49,35.59-4.01,1.57-7.94,3.53-11.58,5.84-8.33,5.3-12.56,15.68-10.45,24.67,2.16,9.21,9.01,14.92,19.69,16.37,2.57.35,5.16.56,8.7.93-1.48,1.11-2.14,1.97-2.94,2.13-8.87,1.79-17.66,1.81-25.74-2.83-12.27-7.06-15.83-21.81-8.72-34.84,5.2-9.53,14.07-14.9,22.97-20.19,12.81-7.61,19.06-21.6,15.23-35.88-1.25-4.66-24.02-8.92-27.07-12.9.7,4.78,21.79,9.54,21.98,14.34.19,4.96-1.39,9.5-5.28,11.9-7.52-7.53-35.15-14.34-41.77-22.02-7.99-9.26-9.34-20.21-5.52-31.81-13.26,18.91,8.79,37.8,20.27,56.9-7.44-3.29-12.68-8.66-15.43-15.95-6.22-16.48-25.41-32.79-13.09-45.86,11.68-12.39,15.5-25.91,12.45-42.07-.15-.78-.02-1.61-.02-2.42.59-.23,1.17-.47,1.76-.7,14.47,10.38,17.66,25.46,16.58,42.57,3.26-4.78,3.88-10.24,2.7-15.4-1.19-5.21-3.92-10.07-6.13-15.47.78.39,1.34.48,1.54.8,6.82,10.66,16.12,18.85,25.64,27.03,5.5,4.72,9.35,11.36,13.25,16.26-.85-7.44-5.59-14.19-11.69-20.4-5.42-5.51-10.39-11.46-15.12-17.61,29.99,4.56,73.03,35.26,60.69,68.69-2.18-5.1-24.25-9.91-26.31-14.72,1.3,13.32,22.13,26.04,13.07,38.58ZM443.85,775.22c-.68.34-1.44.52-2.52.42,1.86-1.58,3.65-3.19,5.3-4.89-1.44,2.67-2.49,4.33-2.78,4.47ZM453.5,755.92c-7.36,11.18-17.56,18.05-31.43,19.58.79-.66,1.56-1.35,2.38-1.97,13.43-10.29,19.44-24.17,19.2-40.8-.08-5.75-1.58-8.48-2.63-10.06-1.79-2.71-3.35-3.07-4.74-5.16-1.6-2.39-2.63-6.52,0-14.14.62,2.11,1.85,5.24,4.49,8.02,5.12,5.42,10.44,4.13,14.52,7.02,8.28,5.86,3.81,23.44-1.8,37.5ZM454.64,708c-6.37-2.98-9.68-7.88-10.91-9.95,2.49,4.45,4.98,8.9,7.47,13.34-12.04-12.98-18.87-22.94-22.95-29.89-3.68-6.28-4.86-9.66-9.61-15.48-5.27-6.46-8.37-7.88-8.83-12.49-.57-5.57,3.23-11.65,4.16-13.41,1.07-2.05,2.83-3.73,5.04-5.49,1.3,9.16,4.35,22.58,12.07,37.06,10.84,20.32,25.47,32.53,34,38.63-2.3,0-6.19-.34-10.44-2.33ZM559.45,555.39c-.64,3.13-2.14,6.09-4.16,9.16,2.09-21.52-6.7-38.9-19.77-54.76,1.55,3.6,3.36,7.11,4.59,10.82,2.35,7.08,4.92,14.16,6.34,21.44.95,4.86,1.06,10.41-4.87,13.32-.79.39-1.05,1.83-1.99,3.59-4.54-5.01-8.75-9.64-12.95-14.27-.29.17-.58.35-.87.52,1.79,2.72,3.51,5.48,5.38,8.14,5.86,8.3,12.1,16.34,17.6,24.87,8.7,13.49,12.51,28.35,9.7,44.33-.78,4.43-3.17,8.67-5.31,12.73-.88,1.67-3.05,2.66-5.7,4.83,3.2-20.51,3.6-39.11-10.94-56.09.83,2.6,1.27,3.98,1.72,5.36.45,1.38.92,2.76,1.46,4.36-10.56-6.94-17.15-16.68-22.26-27.64-.52.3-1.03.59-1.55.89,3.14,6.13,6.06,12.38,9.49,18.34,2.98,5.19,6.73,9.93,9.82,15.06,15.07,25.02,7.92,59.09-15.69,75.25-.59-.15-1.19-.29-1.78-.44,1.85-8.99,3.71-17.98,5.56-26.96-.69,1.31-1.81,3.07-3.57,4.82-1.5,1.49-3,2.5-4.17,3.17,0-.04-.02-4.12-.02-4.16,0-.05-.02-4.43-.02-4.48-.6,1.7-1.64,4.06-3.5,6.47-1.35,1.75-2.76,3.06-3.93,3.99,1.08-10.19,2.14-20.11,3.19-30.03-.55-.09-1.1-.19-1.65-.28-.86,3.53-1.68,7.06-2.57,10.58-2,7.9-4.4,15.73-5.94,23.72-1.57,8.14-1.14,16.47,2.64,23.96,2.61,5.17,6.5,9.71,9.87,14.62-2.82,2.27-11.12,1.33-15.37-2.66-5.94-5.57-9.13-12.71-10.51-20.56-1.21-6.86-1.78-13.84-2.73-21.57-4.46,11.85-2.66,23.68-3.26,36.41-11.38-8.36-14.28-10.11-14.47-9.86-.73.92,38.4,26.43,34.21,45.9-2.02,9.41-6.89,16.93-15.39,21.95,4.26-7.15,7.44-14.5,6.45-21.76-1.89-1.69-3.68-2.5-3.92-3.64-3.1-14.4-31.39-24.9-42.67-34.17-12.28-10.1-16.34-24.46-16.65-40.9,1.85,1.13,2.97,1.72,4,2.44,12.83,8.99,28.88,7.91,40.36-2.75,18.65-17.32,20.22-38.98,4.33-58.79-1.38-1.73-2.4-3.75-2.75-6.34.96.64,1.92,1.28,3.86,2.57.62-16.86,1.21-32.99,1.8-49.11-.65-.09-1.31-.18-1.96-.27-3.23,9.33-6.47,18.67-9.7,28-.52-.14-1.05-.28-1.57-.42.59-5.15,1.45-10.29,1.72-15.46.58-11.31.99-22.64,1.23-33.96.24-11.35,5.85-19.51,14.73-25.83,1.42-1.01,3.15-1.58,5.3-2.63-1.26,8.26-2.83,15.75-3.43,23.31-.69,8.6-.97,17.29-.58,25.9.3,6.7,3.28,12.67,8.5,17.62-2.15-14.98-3-29.66,5.45-43.72,2.65,5.85,4.99,11.02,7.33,16.19.41-.12.81-.23,1.22-.35-1.53-15.61-2.06-31.07,6.06-46.14,2.49,7.25,4.73,13.77,6.97,20.28.42-.07.84-.14,1.26-.21-2.23-19.99-1.37-39.57,6.58-58.23l1.53.02c0,3.18.2,6.38-.03,9.54-1.85,25.21,5.49,47.73,20.06,68.04,7.84,10.93,10.64,22.83,7.94,35.94ZM470.57,597.7c-.54-1.31-1.13-2.59-1.7-3.89.38-.39.75-.78,1.13-1.17,2.54,2.05,5.79,3.64,7.48,6.24,5.38,8.29,6.51,17.52,2.57,26.62-1.28,2.96-4.98,4.97-7.82,7.08-.62.46-2.41-.37-3.45-.97-.26-.15,0-1.97.52-2.59,8.69-10.13,5.7-20.7,1.27-31.33ZM555.31,457.62c-1.24-.96-1.26-4.19-.98-6.3.86-6.38,2.12-12.71,3.32-19.59,8.44-1.58,14.88-6.27,17.11-14.95,2.75-10.7-2.6-18.54-10.63-24.96,4.32-3.55,8.52-7.01,13.91-11.44,3.33,7.42,6.45,14.39,9.87,22.01.6-1.99,1.46-3.79,1.67-5.66,1.06-9.24.46-18.42-3.26-26.98-2.23-5.12-2.02-9.51,1.78-15.36,2.19,3.09,4.58,5.49,5.82,8.38,10.5,24.46,5.75,46.75-9.78,67.57-4.04,5.42-7.47,11.33-10.85,17.21-2.72,4.73-5.6,9.29-11.09,10.86-2.14.61-5.3.46-6.9-.77ZM567.08,646.73c2.1-7.38,4.72-14.24,5.88-21.34,1.23-7.48,1.87-15.24,1.3-22.76-.54-7.26-2.95-14.37-4.52-21.47,13.14,9.07,17.17,49.55-2.66,65.57ZM600.11,622.14c-.73.61-1.63,1.01-2.98,1.82,2.05-7.98,4.34-14.96,5.59-22.11,2.96-16.99-.49-32.81-10.25-47.09-4.23-6.18-8.59-12.3-13.25-18.16-10.08-12.67-13.09-27.71-15.39-43.29.66.17,1.13.18,1.18.32,4.79,15.59,16.6,25.35,28.85,34.72,8.55,6.54,15.98,13.99,21.2,23.58,13.13,24.08,6.09,52.75-14.95,70.2ZM656.45,563.52c-.44,2.4-1.28,4.73-2.43,7.14-2.31-13.25-7.38-24.75-19.15-34.23,5.03,12.24,5.87,23.42,1.84,34.82-.3-3.88-.53-7.76-.91-11.63-1.51-15.67-8.84-27.74-22.53-35.65-6.48-3.74-13.46-6.66-19.75-10.68-14.76-9.45-24.23-22.17-23.03-40.76.08-1.3.07-2.87.77-3.81,3.83-5.14,7.88-10.12,11.86-15.16,0,0,.22.07.22.16,1.8,22.4,16.56,35.47,33.82,46.59,10.09,6.5,20.25,12.83,27.97,22.29,9.8,11.99,14.18,25.47,11.32,40.93Z"/>
</svg>