<?xml version="1.0" encoding="UTF-8"?>
<svg id="Layer_1" data-name="Layer 1" xmlns="http://www.w3.org/2000/svg" viewBox="0 0 728.26 887.75">
  <defs>
    <style>
      .cls-1 {
        fill: #000;
      }

      .cls-1, .cls-2 {
        stroke-width: 0px;
      }

      .cls-2 {
        fill: #fff;
      }
    </style>
  </defs>
  <path class="cls-1" d="M665.49,300.79c7.5-.5,13.68-2.45,18.19-7.32,5.63-6.08,10.75-12.67,15.71-19.33,4.06-5.45,8.92-8.89,15.91-8.7,6.07.17,9.84,2.69,11.41,8.56,1.02,3.81,2.02,8.05,1.34,11.79-1.76,9.76-3.56,19.68-6.98,28.93-5.52,14.96-17.15,24.18-31.98,29.52-2.14.77-4.25,1.65-6.35,2.47,2.04,5.71,5.09,7.46,9.9,5.82,2.99-1.02,5.85-2.41,8.81-3.53,8.14-3.1,13.48.55,12.65,9.24-1.19,12.61-7.3,23.01-17.5,30.18-6.41,4.5-14.1,7.18-21.27,10.56-1.88.89-3.97,1.33-6,3.14,3.82,1.25,7.64,2.5,11.46,3.76,5.74,1.89,6.59,3.45,4,8.68-6.1,12.32-15.67,21.1-28.44,25.99-4.17,1.6-5.98,3.66-6.66,8.01-2.81,17.89-9.37,33.96-23.3,46.38-1.2,1.07-1.76,3.84-1.39,5.55,3.26,14.77,9.31,28.32,17.33,41.21,8.11,13.03,13.26,27.14,12.62,43-.12,2.97,2.08,6.57,4.22,9,16.05,18.23,27.12,38.65,29.06,63.31,1.14,14.45-2.66,27.59-11.81,38.7-4.26,5.17-5.23,10.03-4.04,16.36,1.96,10.45-.4,20.26-6.71,28.89-7.63,10.44-17.89,16.34-30.98,16.44-3.49.03-4.93,1.18-5.88,4.46-1.66,5.74-3.31,11.59-5.97,16.9-7.41,14.77-19.7,22.62-36.24,21.84-8.03-.38-14.34,2.06-20.16,6.79-9.04,7.36-17.86,14.99-26.87,22.39-35.12,28.81-75.62,44.89-120.48,50.29-18.28,2.2-35.91-.95-52.56-8.81-4.27-2.02-7.71-2.03-12.1.14-37.96,18.68-77.36,20.9-117.64,9.05-17.89-5.26-31.36-16.42-40.36-32.9-5.43-9.94-5.94-19.93-1.05-30.18.43-.9.87-1.8,1.26-2.72,2.49-5.8,1.58-7.08-4.63-7.25-5.31-.15-10.73,0-15.9-1-23.62-4.51-41.28-26.72-40.41-50.59.14-3.81-1.12-5-4.86-4.78-7.66.45-14.92-1.26-21.53-5.23-5.54-3.33-8.96-8.4-10.81-14.49-1.78-5.86-.51-9.1,4.61-12.77.77-.56,1.41-1.3,2.48-2.32-2.52-2.47-5.1-4.57-7.14-7.09-6.83-8.39-9.11-18.43-9.57-28.91-.95-21.83,4.4-42.62,10.89-63.2,4.76-15.09,9.53-30.17,14.22-45.28,1.54-4.96,1.26-9.17-2.62-13.67-7.39-8.59-9.6-19.1-8.76-30.41.19-2.48-.62-5.73-2.21-7.55-15.34-17.52-24.78-38.2-32.38-59.84-1.58-4.49-.5-10.42-3.07-13.9-2.26-3.05-7.93-3.55-12.06-5.28-.87-.36-1.55-1.17-2.52-1.92.97-1.97,1.87-3.79,2.98-6.05-8.08-.66-20.45,7.24-19.19-10.33-11.38-3.49-20.16-10.81-26.56-21.03-4.4-7.03-7.35-14.57-7.58-22.98-.44-15.88,11.28-26.62,26.97-24.34,4.05.59,8.04,2.15,11.82,3.82,3.96,1.75,6,6.9,4.23,9.99-2.39,4.16-5.65,3.22-9.5,1.84-3.15-1.13-6.9-1.55-10.22-1.08-7.21,1.02-10.19,5.52-9.37,12.76,1.2,10.58,9.9,19.22,20.73,20.61,9.07,1.16,17.67-.53,25.58-4.93,3.55-1.97,8.48-3.73,4.73-9.9-1.1-1.81-.17-4.85-.17-8.23-3.53,2.79-6.74,5.23-9.85,7.8-6.01,4.98-12.82,6.97-20.5,5.51-7.85-1.49-12.54-6.59-14.81-13.94-.41-1.33.47-3.51,1.49-4.63.47-.51,3.13.18,4.1,1.07,6.41,5.87,14.41,6.51,21.32.38,9.71-8.62,14.32-20.3,17.01-32.66.53-2.44-.52-5.88-2.05-7.98-5.41-7.44-6.79-15.7-6.83-24.58,0-2.01-1.38-4.87-3.03-5.89-19.73-12.24-25.97-30.97-15.8-51.95,3.72-7.67,4.3-14.19,2.36-22.52-5.42-23.23,1.79-43.78,16.68-61.78,3.79-4.59,8.22-8.84,13.01-12.36,4.88-3.59,7.58-8.01,9.18-13.66,7.58-26.79,22.26-48.55,45.7-64.08,11.62-7.7,24.64-11.48,38.06-14.5,5.23-1.18,10.57-3.03,15.12-5.8,9.6-5.83,19.29-10.33,30.92-9.61,6.04.38,10.66-3.07,14.8-7.24,12.27-12.39,27.08-20.04,44.42-21.79,7.53-.76,15.32-.12,22.87.87,6.37.83,11.36.14,16.39-4.48,14.71-13.55,31.8-19.02,51.63-13.14,10.54,3.12,18.79,9.25,24.27,18.79,1.93,3.35,4.43,4.22,8.13,4.34,11.76.39,23.58.6,35.23,2.04,13.82,1.71,26.28,7.3,36.73,16.76,3.21,2.9,6.2,3.95,10.79,2.6,6.15-1.8,12.08-.19,17.24,4.17,1.67,1.41,4.45,2.45,6.58,2.24,32.17-3.18,57.49,9.07,77.44,33.8,1.02,1.27,2.21,2.64,3.63,3.31,7.31,3.45,12.56,9.01,17.47,15.3,2.41,3.1,6.15,5.98,9.85,7.12,29.85,9.14,45.26,30.77,52.3,59.68,1.53,6.28,3.9,11.48,8.32,16.51,15.5,17.64,20.06,38.6,16.43,61.56-.29,1.81-1.17,3.74-.79,5.4,3.66,16.25-5.15,28.54-12.8,41.22-.57.95-1.2,1.87-2.31,3.61ZM256.59,204.98c16.54-4.58,29.93.62,40.32,13.69,6.04,7.6,7.27,16.73,3.56,25.51-4.53,10.74-22.33,20.09-33.79,18.26-2.87-.46-5.82-2.83-7.91-5.08-2.44-2.64-1.24-5.4,2.06-6.66,2.57-.97,5.34-1.44,9.79-2.58-2.88-2.02-4.61-3.91-6.74-4.61-5.76-1.9-12.25,1-16.41,6.82-3.31,4.63-3.36,12.8.27,17.42,6.67,8.5,15.51,12.74,26.29,11.08,16.84-2.6,30.18-11.3,41.44-24.03,8.62-9.74,11.52-19.61,7.41-32.48-5.18-16.27-5.23-33.15-1.13-49.87.59-2.42,1.58-4.75,2.38-7.12,1.93,26.75,5.49,52.81,14.81,77.85,11.48-24.11,14.9-49.66,16.33-75.87,1.74,3.58,3.35,7.21,3.6,10.94,1.31,19.58-.58,38.82-6.45,57.66-.89,2.87-1.11,7.01.32,9.38,12.11,20.03,27.99,34.64,53.1,34.9-25.42,2.06-42.59-11.29-56.49-31.01-.2.71-.43,1.06-.34,1.3.34.93.68,1.89,1.2,2.72,10.29,16.38,24.6,26.98,44,29.78,12.15,1.75,22.85-1.87,31.47-10.62,9.21-9.34,4.86-25.09-7.61-28.41-4.45-1.19-8.82.84-10.3,4.77-1.51,4.02.15,7.5,4.57,9.69,1.13.56,2.22,1.21,3.36,1.84-3.95,5.72-13.83,5.35-24.68-.58-14.11-7.72-24.12-23.27-20.78-31.34,1.29,4.12,2.74,8.71,4.18,13.31,1.31-17.27,11.58-27.23,25.06-34.4,4.03-2.14,9.33-2.06,14.1-2.52,1.12-.11,3.31,1.62,3.51,2.76,1.3,7.42,6.05,10.84,13.37,9.17,6.57-1.5,14.65-9.85,15.61-16.13,1.04-6.74-2.99-13.91-10.3-17.92-2.02-1.11-4.25-2.12-6.5-2.45-11.16-1.64-22.35-.45-31.92,5.2-10.83,6.38-20.57,14.61-30.84,21.95-.83.59-2.13.51-4.34.99-3.11,13.43-.15,26.99,7.1,39.6,7.63,13.26,20.53,18.16,35.02,20.14-2.64.31-5.15.38-7.57-.05-21.89-3.82-44.74-31.33-37.53-56.56,5.37-18.78,5.39-38.34-5.74-56.08-.15-.23.03-.67.05-1.01.54-.17,1.08-.35,1.63-.52,2.96,7.68,6.87,15.15,8.6,23.09,1.7,7.85,1.18,16.17,1.63,24.29,10.51-27.89-1.99-48.63-20.7-67.33,6.15.77,9.58-1.01,10.95-5.84,1.44-5.09-1.2-9.55-7.12-12.05-5.22-2.2-10.65-2.52-15.35.57-2.64,1.74-5.47,4.96-5.89,7.85-.51,3.5,1.45,7.36,2.48,11.65-1.14.87-3.34,2.55-5.5,4.19-6-6.38-4.87-18.21,2.11-23.35,8.69-6.39,17.87-6.44,27.24-1.38,8.85,4.78,10.89,14.64,4.83,22.5-.84,1.09-.58,3.04-.83,4.59.57.05,1.14.11,1.71.16,4.94-6.16,6.49-13.26,3.09-20.41-6.06-12.74-17.91-13.46-30.01-13.23,8.24-1.49,16.39-2.46,23.69,3.05,9.69,7.31,13.98,16.67,9.61,30.05,8.39-9.05,6.73-23.37-3.79-31.66-14.66-11.54-27.92-10.97-42.68,2.24-8.98,8.03-11.05,23.07-4.83,30.61v-17.26c1.59,5.6,2.24,10.07,4.13,13.95,1.93,3.97,1.37,6.86-.47,10.68-2.91,6.05-5.82,12.46-6.8,19.01-1.74,11.56-1.05,23.27,2.08,34.7.48,1.77.67,3.62,1,5.44-3.7-3.04-6.3-6.51-9.42-9.41-11.15-10.34-23.4-19.14-39.11-20.27-11.54-.83-22.44,1.67-29.12,12.61-5.65,9.25-1.43,21.4,8.45,24.86,4.38,1.54,8.52.61,11.18-3.11,2.03-2.84,3.99-6.39.34-9.76l-.06.1ZM586.23,455.12c.72,1.43.87,1.9,1.16,2.28,8.72,11.76,8.45,24.47-.68,35.75-4.5,5.57-8.77,11.32-13.33,16.83-1.03,1.25-3.35,2.89-4.22,2.49-1.7-.78-3.49-2.67-4.01-4.46-1.54-5.32.73-9.02,5.41-12.07,10.06-6.55,11.94-17.8,4.69-27.2-1.59-2.06-4.32-3.23-6.52-4.82-.26,2.6-1.19,5.35-.66,7.78,1.4,6.39,1.18,12.4-1.17,18.6-3.1,8.2-5.47,16.68-8.37,24.96-.48,1.38-1.93,3.14-3.19,3.39-4.21.85-6.9,3.31-8.55,6.96-2.34,5.15-4.56,10.37-6.56,15.66-3.09,8.14-8.06,14.92-14.54,20.63-8.83,7.78-22.5,8.66-31.18,1.74,1.87-1.71,3.53-3.58,5.51-4.98,5.99-4.23,12.1-8.28,18.17-12.39,13.75-9.3,24.48-21.11,30.03-36.99,8.84-25.28,12.86-51.33,11.64-78.13-.39-8.65-2.72-16.58-7.82-23.84-5.35-7.62-10.04-15.72-14.82-23.72-1.15-1.93-2.47-4.54-2.07-6.49,1.27-6.09-2.07-9.35-6.31-12.34-16.41-11.58-27.03-26.83-30.25-46.97-.3-1.86-2.32-4.42-4.04-4.92-28.41-8.12-55.99-19.68-86.99-14.62-22.5,3.67-42.31-4.26-58.36-20.89-5.45-5.64-10.99-5.42-17.26-.87-7.26,5.26-14.62,10.51-22.48,14.76-16.27,8.81-33.62,13.1-51.99,8.02-5.83-1.61-11.26-2.41-17.01-.75-16.45,4.76-32.93,9.45-49.31,14.47-1.92.59-4.53,2.89-4.7,4.6-2.21,22.82-15.63,37.98-33.8,49.78-3.59,2.33-5.66,3.93-3.38,8.45.92,1.82.64,4.64.03,6.75-1.12,3.81-2.97,7.4-4.39,11.13-3.25,8.53-8.25,16.86-9.32,25.67-4.03,33.32-1.08,66.08,10.41,97.99,6.81,18.91,17.86,33.94,34.48,45.23,11.18,7.6,22.12,15.76,28.02,28.56,9.99,21.65,12.24,44.92,14.13,68.25-.73-3.23-1.18-6.52-1.68-9.8-2.66-17.63-5.23-35.26-12.9-51.67-4.04-8.65-9.93-14.25-19.81-15.44-6.7-.81-12.83-3.37-17.76-8.36-8.56-8.67-15.1-18.55-19.03-30.15-1.17-3.45-2.51-6.93-4.39-10.02-1.21-1.99-3.54-3.3-5.37-4.91-.33,10.54.38,20.35-8.33,28.06,3.33-1.18,6.65-2.35,10.96-3.88,1.22,4.57,2.69,9.09,3.61,13.73,4.71,23.51,8.73,47.17,14.09,70.53,4.26,18.58,10.34,37.05,23.76,51.16,28.02,29.44,56.48,58.48,85.55,86.87,17.04,16.64,38.18,22.95,62.14,19.23,5.49-.85,11.33-.51,16.86.29,21.34,3.06,40.83-1.21,58.1-14.17,10.66-8,21.2-16.2,31.28-24.9,19.28-16.65,38.7-33.2,57.08-50.81,13.19-12.64,25.45-26.46,32.48-43.9,9.76-24.24,16.22-49.36,19.61-75.24,1.28-9.74,2.12-19.54,3.02-29.32.38-4.12,1.72-6.41,6.3-4.58.56.22,1.26.1,2.06.14-6.15-9.24-7.14-16.25-4.26-23.49.48,4.28.29,10.26,1.97,15.65,2.77,8.86,10.33,10.41,17.14,3.97,5.81-5.5,8.77-12.7,6.97-20.4-1.72-7.37.48-12.94,4.47-18.55,2.61-3.66,4.82-7.61,7.45-11.25,6.26-8.68,10.18-18.29,12.06-28.79.26-1.43.71-2.98,1.55-4.13,6.82-9.35,10.59-20.01,13.14-31.09,2.35-10.17,3.22-20.46-1.18-30.43-3.3-7.46-10.82-10.37-17.68-5.98-4.2,2.69-8.04,6.54-10.84,10.69-4.36,6.47-7.53,13.71-11.48,20.47-5.76,9.87-6.25,9.96-16.33,5.73-1.02,9.3-.26,17.93,5.79,25.16,8.85-11.68,17.29-22.99,25.92-34.16,3.05-3.94,6.13-8.05,10-11.08,2.41-1.89,6.76-3.19,9.38-2.28,1.92.67,3.53,5.41,3.4,8.25-.62,13.29-5.9,25.41-10.37,39.06-2.48-9.83-.4-19.28-5.93-27.12-.62,1.77-.81,3.51-.82,5.24,0,4.33.39,8.68.04,12.98-.46,5.68-3.26,7.34-8.72,5.79-1.56-.44-3.16-.77-5.69-1.37ZM490.13,128.29c-.29-.13-.7-.18-.82-.39-.81-1.45-1.53-2.95-2.32-4.42-9.08-16.7-19.58-32.25-36.26-42.39-17.54-10.66-36.47-17.83-56.7-21.36-2.55-.45-5.72.03-8.01,1.22-3.95,2.06-7.41,5.05-11.13,7.57-5.25,3.56-7.67,8.52-7.86,14.8-.14,4.49-.42,9-.93,13.46-.82,7.18-.72,13.95,4.11,20.12,1.75,2.24,3.05,3.54,6.03,4.03,26.78,4.35,53.67,8.21,80.23,13.67,48.39,9.94,93.07,28.91,133.31,57.9,3.46,2.49,7.09,4.75,12.04,8.04-1.82-12.97-3.46-24.61-5.31-37.78,12.29,18.81,22.31,37.28,30.55,56.82,5.72-31.12-7.76-56.4-24.54-81.12,6.01,3.41,11.97,6.85,16.43,11.69,12,13.01,19.96,28.27,22.27,46.06.52,4.02,1.83,6.8,5.56,9.1,3.1,1.92,5.51,5.28,7.63,8.41,6.95,10.29,9.45,21.9,9.39,34.17,0,1.47,0,2.95,0,4.42,9.21-16.08,4.11-41.96-10.56-55.75-4.5-4.23-7.26-8.96-8.39-14.88-.56-2.94-1.22-5.88-2.02-8.77-7.21-25.88-22.31-43.89-49.52-50.14-2.49-.57-4.77-3.07-6.63-5.13-3.96-4.41-7.33-9.37-11.42-13.64-3.86-4.03-8.62-7.2-12.49-11.22-17.97-18.67-38.51-30.87-65.65-26.35-5.6.93-10.07-.14-14.21-3.9-1.39-1.26-3.42-1.8-5.16-2.67-.35.67-.71,1.34-1.06,2.01,7.11,3.75,13.85,9.5,21.4,10.91,41.46,7.77,66.49,32.73,78.56,72.11.69,2.27.85,4.7,1.26,7.06-.51.36-1.02.73-1.53,1.09-12.19-30.32-33.63-51.03-63.18-63.57,6.84,9.27,13.94,18.06,20.11,27.45,8.1,12.33,13.13,25.28,12.84,31.34-1.25-2.4-2.18-4.12-3.05-5.88-16.99-34.3-40.96-62.12-74.82-80.81-5.67-3.13-11.49-6.12-16.73-9.89-13.7-9.86-29.16-12.91-45.48-11.87-8.99.57-17.58.41-25.96-3.17-1.72-.73-3.83-.56-6.82-.93,4.22,5.14,24.76,14.45,30.48,14.35-1.31-1.52-2.46-2.84-3.7-4.27,26.76-3.55,83.33,44.65,90.07,82.51ZM94.24,195.28c2.33-1.52,3.72-2.37,5.05-3.3,38.41-26.84,80.41-45.87,126.06-56.22,26.27-5.96,52.96-10.08,79.46-15.05,5.1-.96,12.18-7.74,12.07-12.86-.23-10.63-.8-21.3-2.18-31.83-.89-6.78-13.69-16.9-19.76-16.28-23.89,2.43-46.32,9.15-66.1,23.3-16.03,11.46-26.33,27.56-35.91,44.25-1,1.74-2.06,3.46-3.09,5.18-.37-.19-.75-.38-1.12-.57,1.57-4.16,3.03-8.36,4.73-12.47,12.12-29.2,33.66-50.04,59.85-66.49,5.97-3.75,12.92-5.96,19.47-8.77,4.35-1.87,8.43-.84,12.37,1.48,1.06.62,2.76,1.49,3.53,1.08,6.18-3.35,12.21-6.97,19.33-11.13-8.88-1.22-16.39-2.42-23.95-3.24-4.28-.46-8.65-.67-12.93-.36-14.67,1.05-27.33,7.03-38.12,16.82-8.23,7.47-17.45,13.25-27.44,17.98-3.59,1.7-7.16,3.67-10.25,6.13-25.58,20.33-45.01,45.22-55.79,76.39-.61,1.75-1.39,3.44-2.09,5.15-.51-.2-1.02-.4-1.53-.6l8.99-26.36c-.33-.23-.65-.47-.98-.7-3.99,3.15-7.99,6.3-11.98,9.46-.14-.16-.27-.33-.41-.49,9.13-10.45,18.25-20.89,27.38-31.34-2.28-.22-4.15.04-5.63.94-9.07,5.52-18.96,10.12-26.89,16.98-26.86,23.22-40.96,54.44-52.22,87.2-.15.43-.02.96-.02,2.6,3.25-3.02,6.1-5.25,8.41-7.94,2.38-2.76,4.25-5.95,6.31-8.98,1.93-2.83,3.8-5.69,5.7-8.54.27.21.54.42.81.63-.32,2.26-.65,4.52-1.14,7.96ZM548.97,637.5c-.35-.04-.7-.08-1.06-.12-.63,1.68-1.28,3.36-1.88,5.05-7.92,22.16-17.02,43.79-29.45,63.87-11.05,17.85-22.33,35.55-33.29,53.45-19.48,31.82-37.62,64.5-61.33,93.54-2.98,3.66-6.04,7.26-9.48,11.4,1.61.14,2.42.36,3.18.26,7.43-.98,14.95-1.54,22.26-3.1,39-8.31,73.15-26.23,102.97-52.6,8.44-7.46,17.19-14.56,26.04-22.04-7.5-12.82-10.75-27.07-13.13-41.6-4.88-29.91-4.81-60.08-4.84-90.24,0-5.96,0-11.91,0-17.87ZM375.12,192.49c.64-.33,1.39-.6,2.02-1.04,13.04-9.33,27.95-13.18,43.61-14.2,9.51-.62,18.88,1.53,23.89,10.47,6.38,11.39,6.84,26.25-4.37,36.75-1.67,1.56-3.53,2.91-5.7,4.69,1.21.31,1.95.62,2.7.68,23.17,1.62,45.02,8.75,66.98,15.64,29.59,9.28,57.71,21.62,83.44,39.04,10.37,7.02,20.46,14.48,26.53,25.95,2.06,3.89,3.94,7.86,6.44,12.87,1.38-9.46,2.58-17.74,3.79-26.02-.4-.1-.81-.2-1.21-.31-1.08,3.28-2.17,6.57-3.25,9.85-.41-.12-.82-.24-1.23-.36l2.45-9.27c-.31-.1-.62-.2-.92-.3-.6,1.18-1.2,2.36-1.8,3.54-.25-7.54.34-14.82.56-22.11.05-1.73-1.15-3.5-1.77-5.26-.53.16-1.07.32-1.6.48-.42,2.89-.65,5.83-1.37,8.65-.26,1-1.7,1.69-2.6,2.52-.9-1.04-2.34-1.96-2.59-3.14-1.32-6.25,2.47-10.31,10.64-10.06-3.65-4.91-6.75-9.08-9.76-13.14-2.85,3.05-4.83,5.16-6.16,6.58.13-2.86,1.76-7.43.16-10.03-3.01-4.91-7.88-8.67-12.57-13.53-5.41,12.76-7.77,24.29-1.37,37.2-7.68-8.17-7.63-11.92-.22-37.48-7.03-4.94-14.13-10.12-21.42-15.02-8.1-5.44-12.67-3.8-15.32,5.73-2.42,8.69-3.05,17.42,3.73,26.15-5.24-2.83-7.17-6.39-7.65-10.73-1.1-10.08-.69-19.75,9.18-26.72-2.65-1.69-4.48-3.11-6.52-4.1-7.33-3.58-14.69-7.1-22.1-10.49-5.96-2.72-10.22-1.84-14.86,2.73-5.82,5.74-7.21,13.12-2.03,20.96,4.01,6.07,9.89,10.89,14,15.26-8.86-2.22-16.18-8.65-18.39-19.31-.95-4.56.17-9.95,1.67-14.52,1.63-4.98,5.66-8.28,11.73-8.79-11.09-4.67-22.12-8.75-33.25-12.53-7.34-2.49-14.54-2.37-20.54,3.39-6.05,5.81-6.87,13.14-5,20.82,2.34,9.61,16.44,18.08,24.55,15.03,11.03-4.15,14.99-18.55,7.66-27.84-4.41-5.6-13.62-7.55-19.46-4.13-5.81,3.4-7.75,10.9-3.96,18.07,1.83,3.46,4.93,6.26,7.16,9-6.41-1.12-11.26-8.59-10.67-17.29.54-7.98,6.44-13.94,14.09-14.22,8.68-.32,16.79,5.29,18.63,12.89,2.52,10.43-1.52,20.47-9.99,24.25-1.91.85-4.36,1.72-6.23,1.26-5.93-1.48-11.95-3.06-17.49-5.58-5.9-2.68-8.56-7.95-8.72-14.6-.24-10.37,3.19-19.22,10.54-26.7-14.87-4.21-84.25-19.88-95.22-16.25.4,8.2.8,16.27,1.21,24.63ZM244.68,283.34c-.62-1.17-1.48-2.59-2.16-4.09-4.83-10.66-4.22-21.12,1.87-31.02,4-6.52,12.31-9.37,19.73-7.49,7.19,1.81,8.09,7.55,8.55,13.58.05.64.2,1.28.3,1.86,6.09,1.31,8.67.7,16.03-3.71,8.13-4.87,9.24-8.06,6.29-16.87-1.2-3.57-3.42-5.3-7.09-4.79-11.87,1.63-23.88,2.69-35.56,5.24-12.65,2.77-24.99,6.97-37.48,10.53-31.8,9.05-62.72,20.24-91.02,37.7-12.53,7.73-23.91,16.92-33.39,28.28-2.25,2.7-3.97,5.33-2.76,9.46,1.52,5.17,2.12,10.64,2.82,16.02.35,2.7.06,5.47.06,8.22.48.15.96.3,1.44.44,1.83-2.45,3.92-4.74,5.45-7.36,6.81-11.67,16.29-20.52,27.97-27.16,29.62-16.83,61.86-26.07,94.94-32.85,4.12-.84,8.33-1.27,12.5-1.88-5.11,2.27-10.38,3.73-15.67,5.11-29.19,7.6-58.28,15.58-85.29,29.37-7.99,4.08-15.09,9.92-22.6,14.95.34.58.68,1.17,1.02,1.75,21.83-8.61,43.37-18.07,65.57-25.58,22.33-7.55,45.33-13.14,68.46-19.71ZM104.78,243.82c.29-.13.58-.26.87-.39,1.25,2.08,2.49,4.16,4.31,7.19.45-3.23.42-5.58,1.16-7.65,1.3-3.69,2.45-7.73,4.86-10.62,1.72-2.07,5.85-3.96,8.09-3.28,2.65.81,4.43,4.48,6.58,6.91-.35.28-.69.57-1.04.85-4.31-6.54-9.3-6.65-13.96-.03-3.95,5.6-4.8,12.15-3.61,18.63.48,2.61,3.15,6.49,5.16,6.71,2.58.28,5.51-2.54,8.29-4.02-.24-.45-.48-.9-.72-1.35-1.02-.26-2.04-.51-3.1-.78,2.82-3.08,5.45-5.95,8.26-9.03-.66,2.76-1.3,5.43-2.02,8.46,6.24-4.82,9.45-19.45,6.11-26.36-3.25-6.73-7.11-8.15-13.54-3.83-15.74,10.58-31.44,21.54-42.72,36.99-4.83,6.61-13.35,12.18-10.78,22.86,1.49,6.21,1.85,12.7,2.77,19.05.42,2.92.97,5.83,1.45,8.74l-1.27.28c-1.42-2.56-2.84-5.13-4.7-8.48,1.3,6.84,2.43,12.77,3.78,19.86,1.03-2.01,1.54-2.84,1.9-3.73,5.08-12.29,13-22.4,23.33-30.7,38.97-31.27,84.83-46.72,132.63-57.62,6.33-1.44,12.83-2.15,18.18-3.02-3.88-3.88-8.87-7.11-11.4-11.7-9.24-16.73-1.32-33.77,17.31-38.23,12.23-2.93,24.18-1.32,35.63,3.64,5.76,2.5,11.3,5.52,17.81,8.74v-23.43c-30.63.38-59.68,9.26-89.11,16.08.1.58.06.95.22,1.21.42.71.85,1.45,1.41,2.05,6.67,7.15,8.46,16.11,9.06,25.36.53,8.25-4.52,13.31-12.92,13.56,11.51-9.13,12.52-23.63,2.35-33.63-3.4-3.34-7.65-5.64-12.2-4.26-11.88,3.61-23.56,7.89-36.23,12.21,13.08,8.26,17.83,24.73,9.9,31.99.36-1.45.72-2.54.89-3.66,1.53-9.69-.99-17.96-9.29-23.64-1.86-1.27-5.29-1.99-7.2-1.15-9.9,4.34-19.55,9.24-29.24,14.04-1.09.54-1.88,1.67-3,2.71,5.4,3.87,7.86,8.91,8.21,15.07.74,12.9-4.92,22.1-16.92,27.3-3.25,1.41-6.53,1.37-8.19-2.16-2.72-5.8-4.94-11.83-7.37-17.76ZM373.93,126.11c-1.15,10.39-1.1,10.12,5.91,11.22,25.16,3.94,50.41,7.46,75.4,12.29,40.35,7.81,78.76,21.27,114.03,42.79,17.28,10.55,33.84,22.12,46.36,38.33,4.96,6.42,8.67,13.81,12.96,20.76-.49.29-.99.58-1.48.88-.44-.66-.97-1.28-1.31-1.99-6.65-14.23-17.02-25.33-29.12-35.05-26.43-21.24-56.18-36.21-88.19-46.93-42.77-14.33-86.99-21.01-131.74-25.07-5.11-.46-9.05-.22-11.69,4.43-.86,1.51-2.11,3.65-1.6,4.84.57,1.35,2.88,2.73,4.47,2.77,28.44.76,56.38,5.09,84.11,11.15,45.75,10,89.31,25.57,129.02,50.89,17.7,11.29,33.77,24.45,45.97,41.76,6.58,9.35,13.02,18.93,10.57,31.47,4.08-6.33,3.93-13.17,2.73-20.16-3.62-21.15-14.57-38.54-28.74-53.95-21.34-23.2-47.85-39.23-76.2-52.17-41.43-18.91-85.28-29.22-130.3-34.92-10.36-1.31-20.78-2.23-31.15-3.33ZM306.95,126.3c-38.07,3.09-74.83,9.95-110.7,21.28-29.87,9.43-57.62,23.42-84.27,39.69-16.6,10.13-31.68,22.16-43.93,37.39-10.1,12.55-18.51,26.08-22.46,41.94-1.76,7.08-.92,13.92,2.87,20.24.84,1.41,2.19,2.5,3.92,4.42.33-1.73.61-2.35.54-2.92-1.23-10.23,2.52-18.87,8.18-27.08,14.21-20.59,33.01-36.09,54.34-48.58,56.82-33.27,118.78-49.94,183.88-56.31,3.59-.35,7.13-1.2,11.12-1.9-1.52-4-2.81-7.37-4.44-11.64-18.11,2.54-36.3,4.59-54.3,7.7-45.24,7.83-88.68,21-128.85,43.92-22.19,12.67-42.5,27.55-58.71,47.45-4.62,5.68-8.02,12.34-12.21,18.9,2.74-10.57,8.64-18.85,15.34-26.78,20.25-23.98,46.5-39.62,74.01-53.48,42.42-21.37,87.95-32.48,134.49-40.06,10.29-1.68,20.68-2.69,31.19-4.04v-10.15ZM594.83,341.95c-.38-3.08-.68-5.52-.97-7.96-.67-5.56,1.02-10.39,5.38-13.79,2.69-2.1,2.59-4.16.92-6.25-3.73-4.65-7.26-9.65-11.76-13.46-16.29-13.77-35.01-23.58-54.5-31.95-31.32-13.45-64.1-22.19-97.09-30.36-15.63-3.87-31.42-5.76-47.4-6.4-2.68-.11-7.04,1.46-7.84,3.4-1.45,3.51-2.53,9.14-.7,11.66,4.82,6.64,12.27,10.21,20.89,11.82,0-1.88-.01-3.19,0-4.5.09-8.71,3.68-12.54,12.25-13.06,10.58-.64,19.12,7.21,19.74,18.75.25,4.56-.7,9.18-1.11,13.92.21.08.65.36,1.11.41,29.83,3.14,58.49,11.36,86.84,20.55,28.47,9.23,56.31,19.94,74.24,47.21ZM185.88,706.09c4.37,17.77,8.51,35.61,13.16,53.31,7.58,28.83,15.73,57.51,23.16,86.38,2.92,11.32,9.63,17.91,20.71,20.44,7.63,1.74,15.22,4.01,22.96,4.76,8.5.83,17.15.19,25.73.19.27-.55.54-1.1.81-1.64-38.34-52.62-64.58-112.96-106.54-163.43ZM125.54,468.99c-.51-.46-1.02-.92-1.53-1.38-2.24,2.14-5.15,3.89-6.58,6.48-4.35,7.81-1.69,18.45,6.1,22.77,5.52,3.06,6.1,7.45,5.61,12.57-.13,1.38-1.32,3.43-2.43,3.74-1.11.31-3.06-.85-4.05-1.91-4.2-4.47-8.01-9.32-12.29-13.72-8.64-8.86-11.27-26.07-2.09-36.08.67-.73.97-1.8,1.84-3.47-1.97.57-3.09.74-4.09,1.2-6.15,2.83-9.58.64-9.36-6.2.09-2.82.84-5.62.88-8.43.04-2.26-.54-4.54-.84-6.81-.73.03-1.45.06-2.18.09-.85,10.44-1.71,20.88-2.56,31.35-2.89-8.26-6.04-16.15-8.35-24.28-1.71-6.03-3-12.34-3.23-18.57-.24-6.57,4.66-9.28,10.56-6.26,2.71,1.39,5.23,3.66,7.1,6.09,7.48,9.77,14.64,19.79,22,29.66,1.47,1.97,3.29,3.68,5.69,6.33v-27.45c-.55-.03-1.09-.06-1.64-.1-3.76,6.11,1.11,13.08-.86,19.39-.58-3.8-.59-7.67-1.31-11.39-.57-2.93-1.2-7.16-3.21-8.26-7.29-4.02-11.44-10.44-15.67-17.06-2.77-4.34-5.58-8.77-9.08-12.49-4.79-5.09-13.9-3.54-15.07,2.61-1.76,9.23-4.22,18.42-2.47,28.14,2.63,14.58,8.57,27.79,14.25,41.34,5.15,12.27,10.82,23.94,19.02,34.29,4.91,6.2,7.9,12.49,6.09,20.58-.49,2.19-.18,4.7.3,6.95,1.31,6.12,3.23,12.11,9.45,15.03,1.58.74,4.15.56,5.79-.22,5.85-2.76,7.49-8.17,7.63-14.11.38-16.1-6.03-30.66-11.6-45.13-2.78-7.22-4.97-13.54-2.55-20.98.45-1.37.5-2.87.73-4.31ZM634.29,706.36c3.84-4.43,6.16-10.66,6.57-17.61.82-13.84-1.34-27.31-9.35-38.66-9.18-13.01-19.33-25.41-29.78-37.44-9.69-11.15-18.69-22.56-24.01-36.51-.28-.75-.97-1.34-1.47-2,3.78,25.74,14.67,48.35,29.15,69.47-15.87-11.69-27.78-26.43-35.19-44.83-.23,2.03-.12,3.84.34,5.56,3.49,13.24,9.03,25.52,18.68,35.42,7.66,7.87,15.94,15.13,23.86,22.75,12.4,11.93,22.31,25.11,21.22,43.87ZM64.19,212.12c.45-.04.9-.08,1.35-.12.98-3.52,1.87-7.06,2.96-10.55,9.75-31.16,28.44-57.38,46.43-83.98.83-1.23,1.98-2.25,2.99-3.36,9.39-10.27,21.46-16.01,34.26-20.73,7.31-2.7,15.68-4.68,21.16-9.65,9.36-8.48,19.89-14.35,30.98-19.69,1.25-.6,2.49-1.25,3.73-1.88-10.28-.25-19.36,2.56-27.58,8.61-3.33,2.45-7.53,4.68-11.53,5.12-37.1,4.08-75.02,38.34-80.26,76.01-.31,2.2-1.93,4.56-3.59,6.17-4.55,4.38-9.62,8.23-14.17,12.61-11.15,10.73-18.02,23.87-20.62,39.09-1.01,5.93-1.67,12.03,1.55,19.16,3.16-10.8,4.08-21.17,10.51-30.11.67,4.95,1.24,9.13,1.81,13.3ZM594.42,538.52c-.49.09-.97.18-1.46.28.52,3.36.72,6.8,1.6,10.06,4.33,16.09,12.29,30.25,23.98,42.06,8.19,8.28,17.02,15.92,25.64,23.76,15.23,13.85,24.9,30.63,27.29,51.3.25,2.18.64,4.34.97,6.51.6-.02,1.19-.04,1.79-.05.38-4.53,1.24-9.09,1.06-13.6-.83-20.57-9.51-38.02-23.06-52.93-9.96-10.95-20.88-21.02-31.47-31.38-9.47-9.26-17.94-19.23-23.68-31.29-.77-1.62-1.77-3.14-2.66-4.71ZM350.28,88.63c.18-1.13.36-1.75.36-2.38.03-16.32.1-32.65.04-48.97-.03-8.6-5.45-12.64-13.85-10.21-3.57,1.04-7.49,1.91-7.75,7.07-.92,18.13-2.04,36.25-3.06,54.38-.11,1.89-.01,3.79-.01,6.65,7.87-5.25,15.47-8.24,24.27-6.54ZM426.68,283.6c14.03,2.7,27.46,4.9,40.71,7.95,13.13,3.01,26.17,6.5,39.04,10.46,13.03,4.01,25.9,8.56,38.64,13.4,12.33,4.68,24.4,10.04,36.58,15.1.24-.47.47-.95.71-1.42-3.89-3.05-7.67-6.28-11.7-9.13-15.02-10.62-32.33-16.28-49.48-22.13-27.76-9.47-56.15-16.59-85.05-21.66-2.69-.47-4.35-.19-5.64,2.39-.87,1.73-2.35,3.15-3.81,5.05ZM577.52,338.73c-4.2,6.05-3.75,13.47.35,18.5,6.64,8.15,15.1,8.62,30.72,1.69-2.06,4.7-6.94,8.64-13.12,10.07-12.48,2.89-21.1-3.38-28.41-13.13-1.3,11.53,4.02,22.11,12.26,25.34,9.77,3.83,24.67.38,30.31-7.01,7.08-9.28,6.97-20.85.63-29.03-1.41,2.12-2.58,6.16-4.82,6.87-12.7,4.06-21.88-1.14-27.91-13.3ZM550.51,350.84c-10.96-3.97-19.67-9.43-24.42-19.59,22.38,17.97,41.33,18.43,51.46.26-22.54,7.78-40.7.6-56.81-16.26-.34,3.1-.54,4.93-.74,6.74-2.54-2.37-5.07-4.73-8.57-7.99-1.15,9.27,3.83,15.09,6.36,21.59-.48.28-.96.55-1.44.83-4.3-5.55-8.59-11.1-13.05-16.86.81,19.52,27.91,37.78,47.21,31.28ZM640.25,578.93c-.07-10.49-3.74-19.39-8.23-27.92-7.82-14.83-17.25-28.92-19.66-46.08-.15-1.05-2.4-2.81-3.11-2.57-1.32.45-3,2.04-3.14,3.31-.33,2.93-.11,6,.38,8.93,2.08,12.31,7.14,23.48,13.37,34.19,2.62,4.49,5.19,9.01,7.79,13.51-13.77-8.4-19.04-22.51-25.35-37.04-1.15,19.43,17.81,45.94,37.95,53.67ZM651.08,697.16c.61.09,1.22.17,1.83.26.71-2.34,1.79-4.64,2.07-7.03,3.38-29.12-6.06-54.1-26.39-74.49-9.55-9.58-21.33-16.93-32.13-25.26-.43-.33-1.14-.29-2.7-.65,1.52,2.43,2.33,4.26,3.6,5.68,9.44,10.54,18.92,21.03,28.48,31.46,16.85,18.37,25.7,39.82,25.24,64.9-.03,1.71,0,3.42,0,5.13ZM115.29,709.55c-10.52-15.94-8.88-33.1-4.75-50.16,3.72-15.35,8.91-30.33,12.75-45.65,2.53-10.12,3.88-20.55,5.61-30.87.29-1.75-.18-3.63-.31-5.45-.48-.07-.96-.13-1.44-.2-1.01,2.19-2.25,4.31-3.01,6.59-5.02,15.16-10.19,30.28-14.83,45.56-5.19,17.11-8.4,34.57-7.56,52.62.52,11.17,6.1,19.73,13.53,27.56ZM72.83,358.06c-3.68,10.67.03,19.44,7.86,25.91,9.09,7.52,19.28,13.85,31.94,8.35,9.26-4.02,14.7-11.36,16.84-21.18-6.35,6.57-12.75,12.86-22,14.97-9,2.05-20.61-1.82-24.45-8.24,10.07,4.14,18.93,2,26.17-5.41,5.23-5.35,8.93-11.75,7.7-18.91-4.32,3.81-8.58,7.96-13.26,11.57-5.07,3.91-10.91,5.73-17.38,4.05-6.11-1.59-10.85-4.89-13.41-11.11ZM715.76,279.2c-.95-.53-1.89-1.06-2.84-1.6-8.49,22.64-26.1,35.47-47.2,44.56.27.49.53.97.8,1.46,6.67-.9,13.33-1.8,20.56-2.77-9.36,6.16-15.77,15.66-27.05,18.18,18.5.21,32.22-8.76,42.63-22.92,8.03-10.93,12.19-23.52,13.11-36.91ZM151.6,721.81c-11.04-15.68-14.06-27.89-11.25-45.36,1.19-7.4,2.9-14.71,4.11-22.1,1.16-7.08,1.97-14.22,2.94-21.33-26.77,31.74-24.55,76.63,4.2,88.79ZM607.46,718.63c.41-.11.81-.22,1.22-.33.35-2.36,1.37-4.85.93-7.05-1.24-6.13-1.56-13.26-5.01-17.97-8.29-11.33-18.15-21.52-27.41-32.14-.15-.17-.62-.05-2.1-.11,2.55,7.22,4.96,14.05,7.37,20.87-.47.25-.94.51-1.41.76-4.63-7.31-9.26-14.62-14.23-22.46.22,1.69.22,2.85.53,3.91,3.67,12.76,10.05,24.07,19.97,32.85,7.44,6.58,15.77,12.14,20.13,21.67ZM699.64,360.46c-3.21.71-5.87,1.01-8.32,1.9-7.5,2.73-14.72,1.74-21.84-1.21-3.98-1.65-7.82-3.67-11.85-5.19-1.64-.62-3.61-.37-5.43-.52.8,1.76,1.21,3.92,2.49,5.2,2.45,2.45,5.23,4.66,8.18,6.48,2.88,1.77,6.14,2.92,9.24,4.34-.06.47-.11.94-.17,1.42-7.37.39-14.75.77-22.63,1.19,15.41,11.77,46.2,3.56,50.33-13.59ZM639.03,433.5c16.07-1.21,24.6-6.08,26.61-15.14-1.06.38-1.99.62-2.83,1.03-8.35,4.03-16.76,7.93-24.96,12.24-1.76.92-3.31,3.15-3.96,5.11-5.41,16.27-10.85,32.5-20.61,46.86-.8,1.18-1.01,2.75-1.5,4.14.44.33.88.66,1.33.99,2.13-1.64,4.54-3.02,6.33-4.97,9.47-10.33,15.06-22.6,17.51-36.33.81-4.55,1.38-9.14,2.09-13.91ZM360.44,40.72c11.7-5.34,12.82-13.41,3.79-20.57-12.52-9.93-34.6-9.08-46.36,1.77-7.74,7.14-5.97,16.09,5.36,20.92-.79-2.51-1.07-4.27-1.86-5.76-2.37-4.52-1.82-7.72,2.15-10.97,9.94-8.16,24.81-8.74,35.37-1.37,7.66,5.34,8.01,7.83,1.54,15.98ZM112.96,334.63c-1.68,2.76-2.96,4.64-4.02,6.64-5.31,10.04-13.88,13.84-24.84,13.08-4.09-.28-6.7-1.79-5.48-6.65.45-1.77.25-3.71.34-5.57-.68-.11-1.37-.22-2.05-.32-.92,4.82-3.63,10.2-2.33,14.32,1.88,5.95,7.73,9.36,14.51,9.66,10.26.44,20.54-6.88,23.81-17.19,1.32-4.16,3.2-8.46.05-13.97ZM173.97,321.5c-1.6.76-2.94,1.28-4.16,2-14.05,8.29-28.77,11.86-44.96,7.17-2.94-.85-6.33-.12-10-.12,16.78,19.1,50.9,13.75,59.12-9.05ZM624.51,737.09c.02.52.04,1.03.06,1.55,4.15-.39,8.49-.16,12.41-1.33,4.11-1.22,7.82-3.78,12.03-5.92-.69,2.36-1.31,4.48-2.16,7.38,7.9-4.51,11.22-10.67,11.28-18.78.05-7.36-2.56-13.34-9.3-18.79.11,18.53-3.86,33.19-24.33,35.9ZM601.42,729.94c2.03-10.48-.93-19.16-9.64-25.21-11.36-7.88-22.61-15.77-29.61-28.38.19,2.61.65,5,1.61,7.18,4.09,9.28,10.06,17.15,17.98,23.53,7.9,6.37,16.01,12.56,19.66,22.87ZM181.12,319.47c-1.46,1.3-2.71,2.25-3.76,3.39-4.18,4.5-8.02,9.35-12.49,13.53-10.29,9.6-22.05,14.06-36.09,8.88-1.05-.39-2.2-.49-3.57-.79,5.68,8.11,17.39,10.28,29.6,5.91,16.82-6.02,27.97-21.24,26.32-30.92ZM582.11,781.29c8.77,4.76,24.19-1.23,30.59-11.26,6.3-9.86,5.17-23.78-2.97-29.87,3.42,22.18-4.6,36.63-27.62,41.13ZM248.69,271.67c4.84,9.72,13.31,13.08,23.17,12.28,23.79-1.93,42.3-12.87,54.47-33.73.95-1.63,1.24-3.64,1.84-5.47-3.21,2.55-5.39,5.45-7.54,8.37-9.2,12.48-21.23,21.17-36.06,25.41-10.13,2.89-20.63,4.64-30.23-2.23-1.97-1.41-3.77-3.08-5.64-4.63ZM156.3,740.3c-7.35,5.89-9.23,17.24-5.49,27.5,4.09,11.22,16.12,20.31,27.09,19.95-8.73-4.62-15.61-10.49-19.73-19.03-4.24-8.79-3.8-18.06-1.88-28.42ZM325.28,31.13c1.94-1.48,3.5-2.87,5.25-3.97,6.53-4.08,13.42-4.29,19.77-.16,2.2,1.43,4.27,4.99,4.27,7.58.04,16.31-.23,32.64-1.06,48.93-.25,4.84.64,8.19,4.98,10.91.06-.94.18-1.7.16-2.45-.53-20.29-1.05-40.57-1.66-60.86-.04-1.24-.46-2.7-1.22-3.65-8.19-10.27-26.79-6.41-30.49,3.65ZM553.05,376.52l-1.55.5c1.25,4.73,2.5,9.47,3.72,14.1,7.89,1.81,15.7,5.61,24.63.51-10.29-3.64-20.78-5.51-26.8-15.11ZM326.08,100.66c10.32-.46,19.93-.88,29.56-1.3-2.9-5.89-8.47-8.67-15.76-7.34-5.5,1-11.38,1.88-13.8,8.64ZM669.42,411.49c-6.79-1.13-12.48-1.44-17.73-3.12-5.23-1.68-10.01-4.74-15.48-7.43,1.13,6.46,4.24,10.92,10.25,12.45,7.41,1.88,15.03,3.59,22.96-1.9ZM133.6,612.24c-8.13,18.47-15.3,37.17-13.49,58.79,4.64-20.2,9.06-39.5,13.49-58.79ZM138.29,377.71c-.83,1.07-1.76,2.1-2.49,3.24-2.6,4.07-5.3,8.09-7.65,12.3-2.41,4.31-6.03,6.53-10.75,7.2-4.18.59-8.39,1.07-12.58,1.6-.14.41-.28.82-.42,1.24,2.11.8,4.17,2.13,6.33,2.3,11.86.98,28.51-15.06,28.44-27.17,0-.1-.23-.2-.87-.71ZM607.59,336.29c.35-2.42.79-4.04.79-5.65-.02-3.94-1.77-6.94-5.91-7.3-3.93-.34-5.54,2.8-6.1,5.98-1.05,6,.3,11.57,3.79,16.49.5-.03.99-.06,1.49-.09v-15.48c.48-.08.97-.16,1.45-.24,1.29,1.8,2.58,3.61,4.49,6.28ZM261.41,225.79c7.75-.96,14.7-1.81,21.91-2.7-3.15-4.48-10.6-7.31-15.51-6.21-4.3.97-5.43,4.3-6.4,8.91ZM84.12,342.28c.37-2.32.8-5.04,1.24-7.77.29.02.57.03.86.05.4,1.49.79,2.99,1.19,4.48.48-.04.96-.07,1.44-.11,0-2.9.6-5.99-.19-8.66-.66-2.25-2.95-4.02-4.51-6-1.42,1.15-3.69,2.06-4.08,3.49-.77,2.8-1.13,6.04-.45,8.8.52,2.12,2.9,3.78,4.51,5.72ZM107.11,727.57c10.51,2.15,18.9-2.74,20.5-11.19.21-1.12-.43-2.41-.68-3.62-1.13.44-2.87.56-3.3,1.37-3.57,6.79-8.91,11.35-16.52,13.44ZM587.86,394.67c-7.56,2.09-15.06,4.16-21.71,5.99,7.25,4.04,17.93,1.58,21.71-5.99ZM414.49,224.83c.31-.64.63-1.29.94-1.93-2.13-1.53-4.29-4.33-6.39-4.29-3.07.05-6.11,2.13-9.16,3.35.2.71.4,1.42.6,2.13,4.67.25,9.34.5,14.01.75ZM608.41,383.12c6.34.17,12.16-7.85,10.63-15.15-3.64,5.18-7.13,10.17-10.63,15.15ZM53.01,419.16c9.62,1.05,16.78-1.44,17.42-5.84-5.73,1.92-11.62,3.9-17.42,5.84ZM322.85,92.53c.18,0,.36.02.54.02v-24.61c-.18,0-.36,0-.54,0v24.59ZM122.34,736.69c5.56.42,9.25-2.45,12.15-6.71-4.05,2.24-8.1,4.47-12.15,6.71ZM436.89,216.49c-3.98.83-8.47,1.77-12.73,2.66,5.75,2.11,9.15,1.34,12.73-2.66Z"/>
  <path class="cls-2" d="M586.23,455.12c2.53.61,4.13.93,5.69,1.37,5.46,1.55,8.26-.1,8.72-5.79.35-4.3-.05-8.65-.04-12.98,0-1.74.19-3.47.82-5.24,5.52,7.84,3.44,17.29,5.93,27.12,4.47-13.65,9.75-25.77,10.37-39.06.13-2.84-1.48-7.58-3.4-8.25-2.61-.91-6.97.39-9.38,2.28-3.86,3.02-6.95,7.14-10,11.08-8.63,11.16-17.07,22.47-25.92,34.16-6.05-7.23-6.81-15.86-5.79-25.16,10.08,4.23,10.57,4.14,16.33-5.73,3.94-6.76,7.12-14,11.48-20.47,2.79-4.15,6.63-8,10.84-10.69,6.86-4.39,14.38-1.48,17.68,5.98,4.4,9.97,3.53,20.26,1.18,30.43-2.55,11.08-6.32,21.75-13.14,31.09-.84,1.15-1.29,2.7-1.55,4.13-1.88,10.5-5.8,20.11-12.06,28.79-2.63,3.65-4.84,7.59-7.45,11.25-3.99,5.61-6.19,11.17-4.47,18.55,1.8,7.7-1.16,14.9-6.97,20.4-6.81,6.44-14.37,4.89-17.14-3.97-1.68-5.39-1.48-11.37-1.97-15.65-2.88,7.24-1.88,14.25,4.26,23.49-.79-.04-1.49.08-2.06-.14-4.58-1.83-5.92.45-6.3,4.58-.9,9.79-1.74,19.59-3.02,29.32-3.4,25.89-9.85,51-19.61,75.24-7.03,17.45-19.28,31.26-32.48,43.9-18.38,17.62-37.8,34.16-57.08,50.81-10.08,8.71-20.62,16.91-31.28,24.9-17.27,12.96-36.76,17.23-58.1,14.17-5.54-.79-11.38-1.14-16.86-.29-23.96,3.71-45.1-2.59-62.14-19.23-29.07-28.39-57.53-57.43-85.55-86.87-13.43-14.11-19.5-32.57-23.76-51.16-5.36-23.36-9.37-47.02-14.09-70.53-.93-4.63-2.4-9.16-3.61-13.73-4.31,1.53-7.64,2.7-10.96,3.88,8.71-7.72,8-17.52,8.33-28.06,1.83,1.61,4.16,2.92,5.37,4.91,1.88,3.09,3.22,6.57,4.39,10.02,3.93,11.6,10.47,21.48,19.03,30.15,4.93,4.99,11.06,7.55,17.76,8.36,9.88,1.2,15.77,6.8,19.81,15.44,7.66,16.42,10.24,34.04,12.9,51.67.49,3.28.95,6.57,1.68,9.8-1.88-23.33-4.14-46.6-14.13-68.25-5.91-12.8-16.84-20.97-28.02-28.56-16.62-11.29-27.67-26.32-34.48-45.23-11.49-31.91-14.44-64.67-10.41-97.99,1.06-8.8,6.06-17.14,9.32-25.67,1.42-3.73,3.27-7.32,4.39-11.13.62-2.11.89-4.93-.03-6.75-2.28-4.52-.21-6.12,3.38-8.45,18.17-11.8,31.58-26.95,33.8-49.78.17-1.71,2.78-4.01,4.7-4.6,16.38-5.01,32.86-9.7,49.31-14.47,5.75-1.67,11.18-.86,17.01.75,18.37,5.08,35.72.78,51.99-8.02,7.86-4.25,15.22-9.51,22.48-14.76,6.28-4.55,11.82-4.77,17.26.87,16.05,16.63,35.87,24.56,58.36,20.89,31.01-5.06,58.58,6.5,86.99,14.62,1.72.49,3.74,3.06,4.04,4.92,3.22,20.14,13.84,35.38,30.25,46.97,4.24,2.99,7.57,6.25,6.31,12.34-.41,1.95.91,4.56,2.07,6.49,4.78,8.01,9.47,16.1,14.82,23.72,5.1,7.27,7.43,15.2,7.82,23.84,1.21,26.79-2.8,52.84-11.64,78.13-5.55,15.88-16.28,27.69-30.03,36.99-6.07,4.11-12.18,8.16-18.17,12.39-1.98,1.4-3.64,3.27-5.51,4.98,8.68,6.92,22.35,6.04,31.18-1.74,6.47-5.7,11.44-12.48,14.54-20.63,2.01-5.29,4.23-10.5,6.56-15.66,1.66-3.65,4.34-6.11,8.55-6.96,1.27-.26,2.71-2.02,3.19-3.39,2.9-8.28,5.27-16.76,8.37-24.96,2.35-6.21,2.57-12.21,1.17-18.6-.53-2.43.39-5.17.66-7.78,2.2,1.58,4.93,2.76,6.52,4.82,7.25,9.39,5.37,20.65-4.69,27.2-4.68,3.05-6.95,6.76-5.41,12.07.52,1.79,2.31,3.68,4.01,4.46.87.4,3.19-1.25,4.22-2.49,4.56-5.51,8.83-11.27,13.33-16.83,9.12-11.28,9.4-24,.68-35.75-.28-.38-.44-.85-1.16-2.28ZM478.17,371.33c-2.62.43-5.32.61-7.85,1.33-10.24,2.93-20.36,6.32-30.67,9-15.27,3.97-30.46,7.88-46.69,6.06-9.87-1.11-17.49,4.86-22.95,12.76-6.63,9.58-4.8,19.59,4.3,26.9,1.65,1.32,3.23,2.74,5.17,4.39-1.32,1.23-2.13,2.3-3.2,2.95-12.1,7.26-18.82,18.38-19.51,31.96-.97,18.9-.24,37.89-.24,58.31.26-2.58.41-3.71.49-4.84.97-15.46,1.72-30.93,3.02-46.36.41-4.88,1.63-9.93,3.65-14.37,3.15-6.94,9.73-7.17,13.95-.88,1.66,2.47,2.76,5.31,4.22,7.92.99,1.78,2.15,3.46,3.24,5.19.5-.02,1-.05,1.5-.07.79-2.22,1.56-4.45,2.37-6.66,1.14-3.1,1.85-6.48,3.54-9.25,18-29.62,48.99-42.82,83.06-35.93,11.58,2.34,21.82,6.81,30.29,15.23,2.44,2.43,5.37,4.55,8.42,6.14,7.29,3.8,16.52.87,21.46-6.78-1.6.38-2.86.63-4.09.97-4.89,1.38-9.44.48-13.03-2.97-13.84-13.3-30.91-18.39-49.43-20.04-5.05-.45-10.1-.98-16.46-1.6,10.27-3.76,19.2-6.82,27.97-10.29,12.01-4.74,23.49-3.62,34.61,2.49,4.81,2.64,9.36,5.77,14.23,8.27,2.68,1.38,5.79,1.94,8.7,2.86l1-1.78c-1.41-1.93-2.52-4.21-4.28-5.74-12.64-11.04-25.34-22.02-38.18-32.83-5.62-4.74-12.08-4.99-18.75-2.2,0,0,.16-.13.16-.13ZM322.87,549.46c.4-.02.8-.04,1.19-.06,0-12.49.09-24.98-.02-37.47-.12-13.83-.22-27.66-.72-41.48-.5-13.84-6-25.56-16.67-34.5-3.82-3.2-3.67-5.78-.42-8.96,4.4-4.3,5.01-9.49,3.61-15.24-2.92-12.05-17.62-22.79-30.02-23.3-11.06-.46-22.19-1.8-33.04-3.99-11.72-2.37-23.18-6.09-34.71-9.37-10.37-2.95-20.05-2.31-28.84,4.61-2.21,1.74-5.04,2.74-7.13,4.59-7.95,7.03-15.86,14.12-23.46,21.52-1.93,1.87-2.69,4.95-3.99,7.47,7.15-3,12.87-7.57,19.38-10.11,6.51-2.55,13.83-4.23,20.77-4.17,7.15.06,14.4,2.28,21.38,4.31,6.63,1.93,12.97,4.85,19.45,7.33-.12.58-.23,1.15-.35,1.73-3.29,0-6.58-.15-9.86.02-18.65.97-35.84,5.94-49.72,19.16-3.78,3.6-7.87,5.74-13.43,5.19,4.89,7.13,10.14,8.53,16.83,4.58,2.71-1.6,5.25-3.56,7.59-5.66,21.04-18.77,45.41-20.09,71.25-13.65,1.58.39,2.97,1.52,4.44,2.31-4.83.54-9.27-.04-13.71-.09-16.96-.18-33.72,1.14-49.07,9.26-8.58,4.54-15.67,11.94-26.29,13.39,6.09,4.52,13.15,7.4,18.23,12.32,5,4.84,11.51,9.06,14.51,17.25-3.4-.27-5.48-.43-7.59-.6,12.31,14.94,42.66,12.16,63.18,1.05-4.86,0-10.18-.07-15.51.01-14.59.21-28.52-2.34-41.4-9.52-6.93-3.86-11.18-9.77-13.64-17.09,8.42,10.59,19.43,16.67,32.52,19.01,11.13,1.99,22.11.55,33.25-1.14,9.58-1.45,19.55-1.5,29.23-.73,7.98.63,9.44-.19,6.96-8.21-.39-1.27-.84-2.55-1.46-3.71-3.75-7.04-7.55-14.04-11.04-20.51,10.9,9.33,19.79,20.55,19.25,36.9,11.36-.76,13.7-9.56,15.88-18.99,6.87,5.53,9.02,12.02,9.29,19.46.64,17.82,1.26,35.63,2.08,53.44.36,7.9,1.2,15.77,1.82,23.66ZM501.66,449.98c-3,10.73-11.04,16.32-20.35,20.46-10.67,4.74-21.9,6.76-33.58,6.34-3.98-.14-7.97-.02-11.96-.02,7.17,2.53,14.4,4.47,21.76,5.53,12.55,1.8,24.99,1.76,36.16-5.63,5.61-3.71,9.88-8.26,10.34-15.58.11-1.81,1.71-3.9,3.22-5.17,4.14-3.47,8.59-6.58,11.87-9.04-6.42-3.23-13.35-6.04-19.56-9.96-21.6-13.63-44.52-16.47-68.95-9.75-10.99,3.02-19.33,9.54-25.5,18.88-3.11,4.71-5.85,9.7-8.39,14.75-.93,1.86-1.75,5.55-.95,6.14,1.74,1.28,4.86,2.03,6.87,1.36,10.67-3.54,21.36-2.56,32.13-1.11,4.95.67,9.89,1.43,14.85,1.99,20.53,2.32,38.27-2.91,52.04-19.18ZM386.27,604.41c-2.44-4.91-6.48-5.37-10.59-3.42-3.98,1.89-7.75,4.39-11.25,7.09-3.8,2.94-6.93,6.77-10.81,9.58-7.53,5.47-15.83,6.21-23.94,1.5-5.14-2.98-9.72-6.92-14.53-10.46-3.34-2.45-6.44-5.32-10.02-7.32-3.51-1.96-7.5-3.07-8.89,2.7-5.61-2.49-8.33-6.62-8.81-12.2-.91-10.6,3.44-18.51,14.01-24.02-7.6.54-11.59,2.89-13.91,8.36-4.15,9.77-4.28,19.17,2.38,28.33,4.29,5.89,9.54,10.15,16.08,12.96,10.02,4.29,16.64,10.75,15.86,22.66-.12,1.77.66,4.4,1.95,5.33,6.09,4.36,12.37,8.96,20.57,6.45,8.3-2.54,15.46-6.33,16.31-16.48.5-5.94,4.08-10.08,8.91-13.17,4.06-2.6,8.28-4.95,12.37-7.5,12.87-8.02,18.3-25.09,12.46-39.05-2.09-4.98-5.97-7.36-11.91-8.39,12.9,13.68,14.49,29.45,3.75,37.04ZM422.88,681.02c.18-6.49-4.73-12.73-9.67-13.38-1.46-.19-3.78.21-4.47,1.21-2.35,3.37-4.83,2.06-7.39.81-7.62-3.72-15.39-7.21-22.77-11.36-9.17-5.16-18.18-5.84-27.56-.93-6.78,3.55-13.97,3.18-20.13-.5-8.93-5.34-17.05-3.91-25.48.47-7.53,3.91-15.08,7.77-22.7,11.5-1.33.65-3.32,1.21-4.52.69-6.54-2.79-12.85.44-14.03,7.73-.28,1.76.57,3.7.9,5.55,1.87-.37,4.37-.11,5.5-1.23,3.28-3.25,6.52-3.68,10.78-2.21,2.2.75,4.96.2,7.4-.17,5.42-.82,10.91-1.53,16.19-2.97,6.05-1.65,11.65-1.22,17.57.77,13.17,4.42,26.53,4.49,39.68-.17,5.89-2.09,11.62-2.11,17.64-1.01,7.68,1.41,15.42,3.07,23.17,3.36,5.51.21,11.02-1.67,15.79,2.88.59.57,2.97-.73,4.1-1.04ZM300.03,725.84c.12.42.25.84.37,1.26,2.28-.51,4.65-.78,6.83-1.56,12.87-4.57,26.12-7.45,39.72-5.97,10.01,1.09,19.82,3.99,29.73,5.99,2.03.41,4.13.45,6.19.66l.51-1.82c-5.43-3.36-10.87-6.72-17.17-10.62,11.65-6.27,21.45-13.47,29.6-22.72-9.53,5.49-19.19,10.23-30.5,10.26-16.66.04-33.33.21-49.99.13-7.81-.04-15.13-2.15-21.73-6.5-1-.66-2.1-1.17-3.15-1.75-.34.53-.68,1.07-1.02,1.6,9.15,6.67,18.3,13.33,27.57,20.08-5.67,3.65-11.32,7.3-16.96,10.94Z"/>
  <path class="cls-2" d="M490.13,128.29c-6.74-37.85-63.32-86.06-90.07-82.51,1.24,1.43,2.38,2.76,3.7,4.27-5.73.11-26.27-9.21-30.48-14.35,2.99.38,5.1.2,6.82.93,8.39,3.58,16.98,3.74,25.96,3.17,16.32-1.04,31.78,2.01,45.48,11.87,5.24,3.77,11.05,6.76,16.73,9.89,33.86,18.69,57.84,46.51,74.82,80.81.87,1.75,1.8,3.48,3.05,5.88.29-6.06-4.74-19.01-12.84-31.34-6.17-9.39-13.27-18.17-20.11-27.45,29.55,12.54,51,33.25,63.18,63.57.51-.36,1.02-.73,1.53-1.09-.41-2.36-.56-4.79-1.26-7.06-12.07-39.39-37.09-64.35-78.56-72.11-7.55-1.41-14.28-7.16-21.4-10.91.35-.67.71-1.34,1.06-2.01,1.74.87,3.77,1.42,5.16,2.67,4.15,3.76,8.62,4.83,14.21,3.9,27.15-4.51,47.68,7.68,65.65,26.35,3.87,4.02,8.63,7.19,12.49,11.22,4.09,4.27,7.46,9.24,11.42,13.64,1.86,2.07,4.14,4.56,6.63,5.13,27.21,6.25,42.32,24.26,49.52,50.14.8,2.89,1.46,5.82,2.02,8.77,1.13,5.92,3.89,10.65,8.39,14.88,14.67,13.78,19.77,39.66,10.56,55.75,0-1.47,0-2.95,0-4.42.07-12.27-2.43-23.88-9.39-34.17-2.12-3.13-4.53-6.5-7.63-8.41-3.73-2.3-5.04-5.08-5.56-9.1-2.31-17.79-10.28-33.05-22.27-46.06-4.46-4.83-10.42-8.27-16.43-11.69,16.78,24.72,30.26,50,24.54,81.12-8.24-19.54-18.26-38.01-30.55-56.82,1.85,13.17,3.48,24.81,5.31,37.78-4.95-3.29-8.58-5.55-12.04-8.04-40.23-28.99-84.92-47.96-133.31-57.9-26.56-5.46-53.45-9.32-80.23-13.67-2.98-.48-4.28-1.79-6.03-4.03-4.83-6.17-4.93-12.94-4.11-20.12.51-4.46.79-8.97.93-13.46.19-6.28,2.61-11.24,7.86-14.8,3.72-2.52,7.18-5.52,11.13-7.57,2.29-1.19,5.46-1.66,8.01-1.22,20.22,3.53,39.16,10.7,56.7,21.36,16.68,10.14,27.18,25.69,36.26,42.39.79,1.46,1.51,2.96,2.32,4.42.12.21.53.26.82.39Z"/>
  <path class="cls-2" d="M94.24,195.28c.49-3.44.81-5.7,1.14-7.96-.27-.21-.54-.42-.81-.63-1.9,2.85-3.78,5.71-5.7,8.54-2.06,3.03-3.93,6.22-6.31,8.98-2.32,2.69-5.16,4.92-8.41,7.94,0-1.64-.13-2.17.02-2.6,11.26-32.76,25.36-63.98,52.22-87.2,7.93-6.86,17.82-11.47,26.89-16.98,1.48-.9,3.35-1.16,5.63-.94-9.13,10.45-18.25,20.89-27.38,31.34.14.16.27.33.41.49,3.99-3.15,7.99-6.3,11.98-9.46.33.23.65.47.98.7l-8.99,26.36c.51.2,1.02.4,1.53.6.7-1.72,1.49-3.4,2.09-5.15,10.79-31.17,30.21-56.05,55.79-76.39,3.09-2.46,6.67-4.43,10.25-6.13,9.99-4.73,19.21-10.51,27.44-17.98,10.79-9.79,23.45-15.77,38.12-16.82,4.28-.31,8.65-.1,12.93.36,7.55.82,15.07,2.01,23.95,3.24-7.12,4.15-13.15,7.78-19.33,11.13-.77.42-2.47-.45-3.53-1.08-3.94-2.32-8.01-3.35-12.37-1.48-6.55,2.81-13.49,5.02-19.47,8.77-26.19,16.45-47.73,37.29-59.85,66.49-1.7,4.1-3.16,8.31-4.73,12.47.37.19.75.38,1.12.57,1.03-1.73,2.09-3.44,3.09-5.18,9.59-16.69,19.88-32.79,35.91-44.25,19.79-14.15,42.22-20.87,66.1-23.3,6.07-.62,18.87,9.5,19.76,16.28,1.38,10.53,1.96,21.2,2.18,31.83.11,5.12-6.97,11.9-12.07,12.86-26.5,4.97-53.19,9.09-79.46,15.05-45.64,10.35-87.65,29.38-126.06,56.22-1.33.93-2.72,1.78-5.05,3.3Z"/>
  <path class="cls-2" d="M548.97,637.5c0,5.96,0,11.91,0,17.87.03,30.17-.04,60.33,4.84,90.24,2.37,14.53,5.63,28.77,13.13,41.6-8.85,7.47-17.61,14.58-26.04,22.04-29.83,26.38-63.97,44.29-102.97,52.6-7.31,1.56-14.83,2.12-22.26,3.1-.76.1-1.57-.12-3.18-.26,3.45-4.14,6.5-7.74,9.48-11.4,23.71-29.04,41.85-61.72,61.33-93.54,10.96-17.9,22.24-35.6,33.29-53.45,12.43-20.08,21.53-41.71,29.45-63.87.61-1.69,1.25-3.37,1.88-5.05.35.04.7.08,1.06.12Z"/>
  <path class="cls-2" d="M256.65,204.87c3.65,3.37,1.68,6.92-.34,9.76-2.66,3.73-6.8,4.65-11.18,3.11-9.87-3.46-14.1-15.61-8.45-24.86,6.68-10.93,17.58-13.44,29.12-12.61,15.72,1.13,27.96,9.93,39.11,20.27,3.13,2.9,5.72,6.37,9.42,9.41-.33-1.81-.51-3.67-1-5.44-3.13-11.43-3.82-23.13-2.08-34.7.99-6.55,3.89-12.96,6.8-19.01,1.83-3.82,2.4-6.71.47-10.68-1.89-3.88-2.54-8.36-4.13-13.95v17.26c-6.22-7.54-4.15-22.57,4.83-30.61,14.76-13.21,28.02-13.78,42.68-2.24,10.52,8.28,12.18,22.61,3.79,31.66,4.37-13.38.08-22.74-9.61-30.05-7.31-5.51-15.46-4.54-23.69-3.05,12.1-.22,23.95.49,30.01,13.23,3.4,7.15,1.85,14.25-3.09,20.41-.57-.05-1.14-.11-1.71-.16.25-1.55-.01-3.5.83-4.59,6.06-7.87,4.02-17.72-4.83-22.5-9.37-5.06-18.55-5.02-27.24,1.38-6.99,5.14-8.11,16.96-2.11,23.35,2.16-1.64,4.36-3.32,5.5-4.19-1.03-4.29-2.99-8.15-2.48-11.65.42-2.89,3.25-6.11,5.89-7.85,4.7-3.09,10.13-2.77,15.35-.57,5.92,2.49,8.56,6.96,7.12,12.05-1.37,4.82-4.8,6.61-10.95,5.84,18.71,18.7,31.21,39.44,20.7,67.33-.45-8.12.07-16.44-1.63-24.29-1.72-7.94-5.64-15.41-8.6-23.09-.54.17-1.08.35-1.63.52-.02.34-.2.77-.05,1.01,11.13,17.75,11.11,37.3,5.74,56.08-7.21,25.23,15.65,52.73,37.53,56.56,2.42.42,4.93.36,7.57.05-14.49-1.99-27.4-6.89-35.02-20.14-7.25-12.61-10.21-26.17-7.1-39.6,2.21-.47,3.52-.4,4.34-.99,10.27-7.34,20.01-15.57,30.84-21.95,9.58-5.64,20.76-6.83,31.92-5.2,2.24.33,4.48,1.35,6.5,2.45,7.31,4.01,11.34,11.18,10.3,17.92-.97,6.28-9.05,14.63-15.61,16.13-7.32,1.67-12.08-1.75-13.37-9.17-.2-1.14-2.39-2.86-3.51-2.76-4.77.45-10.07.37-14.1,2.52-13.48,7.18-23.75,17.13-25.06,34.4-1.44-4.6-2.89-9.19-4.18-13.31-3.34,8.07,6.67,23.62,20.78,31.34,10.85,5.93,20.73,6.3,24.68.58-1.14-.63-2.22-1.28-3.36-1.84-4.43-2.19-6.08-5.67-4.57-9.69,1.48-3.93,5.85-5.96,10.3-4.77,12.48,3.33,16.82,19.07,7.61,28.41-8.62,8.75-19.32,12.37-31.47,10.62-19.4-2.8-33.71-13.4-44-29.78-.52-.83-.86-1.79-1.2-2.72-.09-.24.14-.59.34-1.3,13.9,19.71,31.06,33.07,56.49,31.01-25.11-.26-41-14.87-53.1-34.9-1.43-2.37-1.21-6.51-.32-9.38,5.87-18.84,7.76-38.08,6.45-57.66-.25-3.73-1.87-7.37-3.6-10.94-1.43,26.22-4.85,51.76-16.33,75.87-9.32-25.04-12.87-51.1-14.81-77.85-.8,2.37-1.79,4.69-2.38,7.12-4.1,16.72-4.05,33.6,1.13,49.87,4.1,12.88,1.2,22.74-7.41,32.48-11.26,12.73-24.61,21.43-41.44,24.03-10.78,1.67-19.61-2.58-26.29-11.08-3.63-4.62-3.58-12.79-.27-17.42,4.16-5.82,10.65-8.72,16.41-6.82,2.13.7,3.87,2.59,6.74,4.61-4.45,1.15-7.22,1.61-9.79,2.58-3.3,1.25-4.5,4.02-2.06,6.66,2.09,2.26,5.04,4.62,7.91,5.08,11.47,1.83,29.26-7.52,33.79-18.26,3.71-8.79,2.48-17.91-3.56-25.51-10.39-13.07-23.78-18.27-40.31-13.7,2.1-1.79,3.93-4.57,6.31-5.18,10.67-2.72,20.06.86,28.15,7.66,4.29,3.61,7.81,8.15,12.05,12.68-.29-1.24-.39-2.04-.67-2.78-5.63-15.14-26.14-26.82-42.03-23.89-4.74.87-8.78,2.79-10.84,8.23,2.47,1.11,4.77,2.15,7.07,3.19ZM386.73,194.18c4.34-1.07,8.14-2.23,12.02-2.91,3.73-.66,7.55-.82,11.33-1.2.11.44.23.89.34,1.33-11.31,3.28-19.97,10.02-26.37,18.9,6.54-2.92,13.19-6.77,20.36-8.83,7.37-2.12,15.22-2.28,22.87,1.8-2.31,2.47-4.2,4.5-6.09,6.52l1.02,1.26c2.77-1.64,6.02-2.81,8.18-5.05,2.35-2.44,5.57-6.33,4.99-8.75-.72-2.97-4.66-6.6-7.8-7.3-13.68-3.07-27.6-5.43-40.85,4.22ZM315.84,216.24c-1.51,14.13-5.07,27.23-16.68,36.69-11.02,8.98-23.13,15.07-39.16,12.62,11.39,5.15,31.74-2.13,44.53-15.34,9.09-9.38,12.35-21.17,11.31-33.97ZM291.08,195.9c-16.07-15.44-41.72-13.52-44.69-2.17,15.61-12.91,30.12-5.72,44.69,2.17ZM316.16,178.33c.6-15.95,9.67-28.44,16.49-41.82-10.14,12.13-17.14,25.51-16.49,41.82ZM257.42,266.56c-2.75-5.26-4.97-9.51-7.15-13.69-1.67,6.09.04,9.81,7.15,13.69Z"/>
  <path class="cls-2" d="M375.12,192.49c-.41-8.36-.81-16.43-1.21-24.63,10.97-3.63,80.35,12.04,95.22,16.25-7.35,7.48-10.78,16.33-10.54,26.7.16,6.65,2.82,11.91,8.72,14.6,5.54,2.52,11.55,4.11,17.49,5.58,1.87.47,4.31-.4,6.23-1.26,8.47-3.78,12.51-13.82,9.99-24.25-1.84-7.6-9.95-13.21-18.63-12.89-7.64.28-13.55,6.24-14.09,14.22-.59,8.71,4.26,16.18,10.67,17.29-2.23-2.74-5.33-5.53-7.16-9-3.79-7.17-1.85-14.67,3.96-18.07,5.85-3.42,15.05-1.47,19.46,4.13,7.33,9.29,3.37,23.69-7.66,27.84-8.11,3.05-22.21-5.42-24.55-15.03-1.87-7.68-1.05-15.01,5-20.82,6-5.76,13.2-5.88,20.54-3.39,11.13,3.78,22.16,7.86,33.25,12.53-6.06.51-10.1,3.82-11.73,8.79-1.5,4.58-2.62,9.96-1.67,14.52,2.21,10.66,9.52,17.09,18.39,19.31-4.1-4.37-9.99-9.19-14-15.26-5.18-7.84-3.79-15.22,2.03-20.96,4.64-4.58,8.9-5.46,14.86-2.73,7.42,3.39,14.78,6.91,22.1,10.49,2.04,1,3.87,2.42,6.52,4.1-9.87,6.97-10.28,16.64-9.18,26.72.48,4.33,2.41,7.89,7.65,10.73-6.78-8.73-6.15-17.46-3.73-26.15,2.65-9.53,7.22-11.16,15.32-5.73,7.29,4.89,14.39,10.07,21.42,15.02-7.41,25.56-7.46,29.31.22,37.48-6.4-12.91-4.04-24.44,1.37-37.2,4.69,4.86,9.56,8.63,12.57,13.53,1.59,2.6-.03,7.17-.16,10.03,1.33-1.42,3.3-3.53,6.16-6.58,3.02,4.06,6.12,8.23,9.76,13.14-8.16-.25-11.96,3.81-10.64,10.06.25,1.18,1.7,2.1,2.59,3.14.9-.83,2.35-1.53,2.6-2.52.72-2.81.95-5.75,1.37-8.65.53-.16,1.07-.32,1.6-.48.62,1.75,1.82,3.52,1.77,5.26-.21,7.29-.8,14.56-.56,22.11.6-1.18,1.2-2.36,1.8-3.54.31.1.62.2.92.3l-2.45,9.27c.41.12.82.24,1.23.36,1.08-3.28,2.17-6.57,3.25-9.85.4.1.81.2,1.21.31-1.2,8.28-2.41,16.56-3.79,26.02-2.5-5-4.38-8.98-6.44-12.87-6.07-11.46-16.16-18.93-26.53-25.95-25.73-17.43-53.85-29.76-83.44-39.04-21.95-6.89-43.81-14.03-66.98-15.64-.75-.05-1.48-.36-2.7-.68,2.17-1.78,4.04-3.13,5.7-4.69,11.21-10.51,10.75-25.36,4.37-36.75-5.01-8.94-14.38-11.09-23.89-10.47-15.65,1.02-30.57,4.87-43.61,14.2-.62.45-1.37.72-2.02,1.04ZM574.83,242.12c-.27-6.64-1.81-9.66-6.23-10.62-2.37-.51-5.96-.06-7.58,1.47-8.41,7.89-4.86,26.67,5.62,31.42,4.01,1.82,7.66.9,9.25-3.01,2.94-7.19,5.13-14.68,7.63-22.05-1.82,2.09-3.15,4.38-4.09,6.83-1.66,4.33-2.88,8.83-4.64,13.11-1.86,4.53-5.38,5.35-9.15,2.48-4.67-3.55-8.58-14.09-6.36-19.45,1.21-2.93,3.85-6.24,6.61-7.22,1.68-.6,4.84,2.88,7.28,4.61.48.34.72,1.03,1.66,2.44ZM539.2,240.45c3.44-6,4.25-12.65,2.52-19.48-1.28-5.05-6.26-8.81-11.86-9.3-4.77-.42-8.53,1.49-10.87,5.64-3.73,6.61-.21,18.49,6.55,21.99,1.61.84,3.68.79,6.41,1.32-3.82-3.46-6.99-5.67-9.29-8.57-4.3-5.43-3.4-9.75,2.42-15.03,3.45-3.13,7.14-2.74,11.99,1.33,3.74,3.14,5.31,7.2,4.46,12.01-.6,3.4-1.54,6.73-2.33,10.1ZM489.9,212.37c-.08-5.99-3.88-9.87-7.96-9.81-3.66.06-5.49,2.13-5.63,5.62-.16,3.87,4.77,8.87,8.54,8.02,2.2-.5,3.95-2.95,5.06-3.83ZM598.52,252.43c-1.37-2.75-3.54-2.23-5.62.34-4.05,5.02-4.86,10.87-3.53,16.98.36,1.65,1.82,3.06,2.77,4.58.48-.14.97-.29,1.45-.43v-13.28c2.19,1.25,3.53,2.02,6.07,3.47-.39-3.03-.64-4.94-.89-6.86-2.21.41-4.43.82-8.05,1.49,3.1-2.49,5.33-4.29,7.8-6.28ZM524.42,219.5c1.44,3.17,2.52,6.1,4.11,8.73.61,1.01,2.61,2.03,3.59,1.74,1.06-.31,2.15-2.07,2.39-3.35.96-5.17-4.17-9.15-10.09-7.12ZM573.39,246.03c-2.69-2.36-4.44-3.9-6.2-5.45-1.21,1.86-3.44,3.78-3.36,5.58.1,2.17,2.18,4.24,3.41,6.35,1.74-1.84,3.48-3.68,6.15-6.48ZM611.68,264.81c-1.3,2.67-2.25,4.58-3.15,6.52-3.36,7.17-3.92,14.36-.13,21.58,1.4,2.67,2.84,3.89,3.92,1.65-1.5-1.97-2.98-3.19-3.52-4.73-3.09-8.91.45-20.29,5.42-22.34-.7-.74-1.35-1.43-2.54-2.67Z"/>
  <path class="cls-2" d="M244.68,283.34c-23.13,6.57-46.13,12.17-68.46,19.71-22.2,7.5-43.74,16.97-65.57,25.58-.34-.58-.68-1.17-1.02-1.75,7.51-5.03,14.6-10.87,22.6-14.95,27.01-13.78,56.1-21.77,85.29-29.37,5.29-1.38,10.56-2.84,15.67-5.11-4.17.62-8.38,1.04-12.5,1.88-33.09,6.78-65.33,16.01-94.94,32.85-11.68,6.64-21.16,15.49-27.97,27.16-1.53,2.62-3.62,4.92-5.45,7.36-.48-.15-.96-.3-1.44-.44,0-2.74.29-5.52-.06-8.22-.71-5.38-1.31-10.84-2.82-16.02-1.21-4.13.51-6.76,2.76-9.46,9.48-11.37,20.85-20.55,33.39-28.28,28.3-17.46,59.23-28.65,91.02-37.7,12.48-3.55,24.82-7.76,37.48-10.53,11.68-2.55,23.68-3.61,35.56-5.24,3.67-.5,5.89,1.22,7.09,4.79,2.95,8.81,1.85,11.99-6.29,16.87-7.36,4.41-9.94,5.02-16.03,3.71-.1-.58-.25-1.22-.3-1.86-.47-6.03-1.37-11.77-8.55-13.58-7.41-1.87-15.72.98-19.73,7.49-6.08,9.9-6.7,20.36-1.87,31.02.68,1.5,1.54,2.92,2.16,4.09Z"/>
  <path class="cls-2" d="M104.78,243.82c2.43,5.93,4.65,11.96,7.37,17.76,1.66,3.53,4.94,3.57,8.19,2.16,12-5.19,17.66-14.4,16.92-27.3-.36-6.16-2.81-11.2-8.21-15.07,1.12-1.04,1.92-2.18,3-2.71,9.69-4.8,19.34-9.69,29.24-14.04,1.91-.84,5.34-.12,7.2,1.15,8.3,5.68,10.81,13.95,9.29,23.64-.18,1.12-.53,2.21-.89,3.66,7.93-7.26,3.18-23.73-9.9-31.99,12.67-4.32,24.35-8.6,36.23-12.21,4.55-1.38,8.8.92,12.2,4.26,10.17,10,9.15,24.5-2.35,33.63,8.41-.25,13.46-5.31,12.92-13.56-.6-9.25-2.39-18.21-9.06-25.36-.56-.6-.99-1.34-1.41-2.05-.15-.26-.12-.63-.22-1.21,29.42-6.82,58.48-15.7,89.11-16.08v23.43c-6.51-3.21-12.04-6.24-17.81-8.74-11.45-4.96-23.4-6.56-35.63-3.64-18.63,4.46-26.55,21.5-17.31,38.23,2.53,4.59,7.52,7.82,11.4,11.7-5.35.87-11.85,1.57-18.18,3.02-47.81,10.9-93.66,26.35-132.63,57.62-10.34,8.3-18.26,18.41-23.33,30.7-.37.89-.87,1.71-1.9,3.73-1.35-7.09-2.48-13.02-3.78-19.86,1.86,3.35,3.28,5.92,4.7,8.48l1.27-.28c-.49-2.91-1.03-5.82-1.45-8.74-.92-6.36-1.28-12.84-2.77-19.05-2.57-10.68,5.95-16.25,10.78-22.86,11.29-15.45,26.98-26.41,42.72-36.99,6.43-4.32,10.29-2.9,13.54,3.83,3.34,6.92.13,21.54-6.11,26.36.72-3.03,1.36-5.7,2.02-8.46-2.81,3.07-5.44,5.95-8.26,9.03,1.06.27,2.08.52,3.1.78.24.45.48.9.72,1.35-2.78,1.48-5.7,4.3-8.29,4.02-2.01-.22-4.68-4.11-5.16-6.71-1.2-6.48-.34-13.03,3.61-18.63,4.66-6.61,9.65-6.51,13.96.03.35-.28.69-.57,1.04-.85-2.16-2.43-3.93-6.1-6.58-6.91-2.24-.68-6.37,1.21-8.09,3.28-2.41,2.89-3.55,6.93-4.86,10.62-.73,2.08-.7,4.43-1.16,7.65-1.81-3.03-3.06-5.11-4.31-7.19-.29.13-.58.26-.87.39ZM210.51,197.47c-6.99-6.9-19.81-4.54-24.35,4.63-3.56,7.19-2.63,14.24,1.76,20.75,3.76,5.57,9.57,5.36,15.28,4.47,11.03-1.72,15.39-11.61,10.72-23.92-1.14-1.97-2.27-3.94-3.41-5.92ZM153.89,240.18c1.66,0,3.84.49,5.66-.09,5.75-1.84,9.02-6.02,9.94-11.99.92-5.97-.14-11.46-5.06-15.34-4.08-3.21-8.59-1.97-12.7.25-3.2,1.73-6.25,3.83-6.09,9.17,1.33-1.85,2.02-2.97,2.86-3.97,4.38-5.15,10.59-6.55,14.43-3.31,4.94,4.18,5.85,11.45,1.41,16.51-2.83,3.22-6.62,5.61-10.45,8.76ZM160.99,222.19c-1.17-.87-2.96-3.32-4.83-3.38-4.39-.15-5.61,3.45-5.77,7.2-.13,3,1.38,4.69,4.56,4.44,4.09-.32,5.65-2.91,6.04-8.25ZM94.8,270.74c5.42-5.01,5.52-11.03.59-16.54-5.29,4.46-5.38,6.44-.59,16.54ZM120.31,248.77c4.58-1.39,7.7-6.04,5.81-9.47-.63-1.15-3.66-1.92-5.15-1.45-3.77,1.16-3.88,5.41-.65,10.93ZM100.19,275.97c5.58-7.37,3.58-22.68-4.24-28.63,4.45,9.8,8.34,18.71,4.24,28.63ZM77.49,268.12c-.58-.16-1.16-.33-1.74-.49-.89,1.75-2.86,3.79-2.48,5.21,1.2,4.52,3.27,8.82,5,13.2.19-.04.37-.09.56-.13-.45-5.93-.89-11.85-1.34-17.78ZM73.23,298.3c-.15-6.6,2.68-13.9-2.8-19.67l-1.59.29c1.46,6.46,2.93,12.93,4.39,19.39ZM78.04,265c2.72,9.3,8.4,18.48,1.11,28.18,6.57-7.46,6.08-19.91-1.11-28.18ZM84.64,261.58c1.59,12.65,5.54,19.03,10.17,18.54-7.29-3.25-5.92-12.03-10.17-18.54ZM145.01,235.73c.05,6.42,3.6,11.1,7.59,11.32-2.28-3.4-4.9-7.3-7.59-11.32Z"/>
  <path class="cls-2" d="M373.93,126.11c10.38,1.1,20.79,2.01,31.15,3.33,45.02,5.7,88.87,16.01,130.3,34.92,28.35,12.94,54.86,28.97,76.2,52.17,14.17,15.41,25.11,32.79,28.74,53.95,1.2,6.99,1.35,13.83-2.73,20.16,2.46-12.54-3.98-22.12-10.57-31.47-12.19-17.31-28.26-30.47-45.97-41.76-39.71-25.31-83.27-40.88-129.02-50.89-27.73-6.06-55.67-10.39-84.11-11.15-1.59-.04-3.9-1.42-4.47-2.77-.5-1.19.75-3.33,1.6-4.84,2.65-4.65,6.59-4.89,11.69-4.43,44.75,4.06,88.97,10.74,131.74,25.07,32,10.72,61.76,25.69,88.19,46.93,12.1,9.72,22.47,20.83,29.12,35.05.33.71.87,1.33,1.31,1.99.49-.29.99-.58,1.48-.88-4.28-6.95-7.99-14.34-12.96-20.76-12.52-16.21-29.08-27.78-46.36-38.33-35.27-21.53-73.68-34.98-114.03-42.79-24.99-4.84-50.24-8.35-75.4-12.29-7.01-1.1-7.06-.82-5.91-11.22Z"/>
  <path class="cls-2" d="M306.95,126.3v10.15c-10.51,1.34-20.9,2.36-31.19,4.04-46.54,7.58-92.07,18.68-134.49,40.06-27.5,13.86-53.76,29.5-74.01,53.48-6.7,7.93-12.6,16.21-15.34,26.78,4.18-6.56,7.58-13.22,12.21-18.9,16.2-19.9,36.51-34.78,58.71-47.45,40.17-22.93,83.62-36.1,128.85-43.92,18-3.11,36.19-5.17,54.3-7.7,1.63,4.28,2.91,7.64,4.44,11.64-3.99.69-7.53,1.54-11.12,1.9-65.09,6.38-127.06,23.05-183.88,56.31-21.33,12.49-40.13,27.99-54.34,48.58-5.66,8.2-9.41,16.85-8.18,27.08.07.58-.21,1.19-.54,2.92-1.73-1.92-3.08-3.02-3.92-4.42-3.79-6.32-4.63-13.16-2.87-20.24,3.95-15.86,12.36-29.39,22.46-41.94,12.26-15.23,27.33-27.25,43.93-37.39,26.65-16.27,54.41-30.26,84.27-39.69,35.88-11.33,72.63-18.19,110.7-21.28Z"/>
  <path class="cls-2" d="M594.83,341.95c-17.94-27.27-45.77-37.98-74.24-47.21-28.35-9.19-57.02-17.41-86.84-20.55-.46-.05-.9-.32-1.11-.41.42-4.74,1.36-9.36,1.11-13.92-.62-11.54-9.16-19.4-19.74-18.75-8.58.52-12.16,4.34-12.25,13.06-.01,1.31,0,2.62,0,4.5-8.62-1.6-16.07-5.18-20.89-11.82-1.83-2.52-.75-8.15.7-11.66.8-1.94,5.16-3.5,7.84-3.4,15.98.64,31.77,2.53,47.4,6.4,32.99,8.17,65.77,16.91,97.09,30.36,19.49,8.37,38.21,18.18,54.5,31.95,4.5,3.81,8.03,8.81,11.76,13.46,1.67,2.09,1.77,4.15-.92,6.25-4.36,3.4-6.05,8.23-5.38,13.79.29,2.44.6,4.88.97,7.96Z"/>
  <path class="cls-2" d="M185.88,706.09c41.95,50.47,68.2,110.82,106.54,163.43-.27.55-.54,1.1-.81,1.64-8.58,0-17.23.64-25.73-.19-7.73-.75-15.33-3.02-22.96-4.76-11.09-2.53-17.8-9.12-20.71-20.44-7.43-28.87-15.58-57.55-23.16-86.38-4.65-17.7-8.79-35.53-13.16-53.31Z"/>
  <path class="cls-2" d="M125.54,468.99c-.23,1.44-.29,2.94-.73,4.31-2.42,7.44-.23,13.76,2.55,20.98,5.57,14.47,11.98,29.03,11.6,45.13-.14,5.95-1.78,11.35-7.63,14.11-1.64.77-4.21.96-5.79.22-6.22-2.92-8.14-8.91-9.45-15.03-.48-2.25-.79-4.76-.3-6.95,1.81-8.09-1.18-14.38-6.09-20.58-8.19-10.34-13.87-22.02-19.02-34.29-5.68-13.55-11.61-26.76-14.25-41.34-1.76-9.72.71-18.91,2.47-28.14,1.17-6.15,10.29-7.7,15.07-2.61,3.5,3.72,6.31,8.15,9.08,12.49,4.23,6.63,8.38,13.04,15.67,17.06,2.01,1.11,2.64,5.33,3.21,8.26.72,3.73.73,7.59,1.31,11.39,1.97-6.31-2.9-13.28.86-19.39.55.03,1.09.06,1.64.1v27.45c-2.4-2.65-4.22-4.36-5.69-6.33-7.36-9.87-14.52-19.89-22-29.66-1.87-2.44-4.39-4.71-7.1-6.09-5.9-3.02-10.8-.31-10.56,6.26.23,6.23,1.52,12.54,3.23,18.57,2.31,8.13,5.46,16.02,8.35,24.28.86-10.47,1.71-20.91,2.56-31.35.73-.03,1.45-.06,2.18-.09.3,2.27.88,4.54.84,6.81-.04,2.81-.79,5.62-.88,8.43-.22,6.84,3.21,9.03,9.36,6.2.99-.46,2.12-.63,4.09-1.2-.87,1.68-1.18,2.74-1.84,3.47-9.18,10.01-6.55,27.22,2.09,36.08,4.28,4.39,8.09,9.24,12.29,13.72,1,1.06,2.94,2.22,4.05,1.91,1.11-.31,2.3-2.35,2.43-3.74.49-5.13-.09-9.51-5.61-12.57-7.78-4.31-10.44-14.96-6.1-22.77,1.44-2.58,4.35-4.34,6.58-6.48.51.46,1.02.92,1.53,1.38Z"/>
  <path class="cls-2" d="M634.29,706.36c1.09-18.76-8.83-31.94-21.22-43.87-7.92-7.62-16.2-14.88-23.86-22.75-9.64-9.9-15.18-22.18-18.68-35.42-.45-1.72-.57-3.53-.34-5.56,7.41,18.4,19.32,33.14,35.19,44.83-14.47-21.11-25.37-43.73-29.15-69.47.5.66,1.19,1.26,1.47,2,5.32,13.94,14.32,25.35,24.01,36.51,10.45,12.03,20.6,24.43,29.78,37.44,8.02,11.36,10.17,24.82,9.35,38.66-.41,6.95-2.73,13.18-6.57,17.61Z"/>
  <path class="cls-2" d="M64.19,212.12c-.57-4.18-1.14-8.35-1.81-13.3-6.43,8.94-7.35,19.31-10.51,30.11-3.22-7.12-2.56-13.23-1.55-19.16,2.6-15.23,9.47-28.36,20.62-39.09,4.55-4.38,9.62-8.22,14.17-12.61,1.66-1.61,3.29-3.96,3.59-6.17,5.24-37.67,43.15-71.93,80.26-76.01,4.01-.44,8.21-2.66,11.53-5.12,8.22-6.06,17.29-8.86,27.58-8.61-1.24.63-2.48,1.28-3.73,1.88-11.1,5.35-21.63,11.21-30.98,19.69-5.48,4.97-13.86,6.95-21.16,9.65-12.8,4.72-24.87,10.46-34.26,20.73-1.01,1.11-2.16,2.13-2.99,3.36-17.99,26.6-36.68,52.83-46.43,83.98-1.09,3.48-1.98,7.03-2.96,10.55-.45.04-.9.08-1.35.12Z"/>
  <path class="cls-2" d="M594.42,538.52c.89,1.57,1.88,3.09,2.66,4.71,5.74,12.07,14.21,22.04,23.68,31.29,10.6,10.36,21.52,20.43,31.47,31.38,13.56,14.91,22.23,32.35,23.06,52.93.18,4.51-.68,9.06-1.06,13.6-.6.02-1.19.04-1.79.05-.33-2.17-.72-4.33-.97-6.51-2.39-20.67-12.06-37.45-27.29-51.3-8.62-7.84-17.45-15.48-25.64-23.76-11.69-11.81-19.65-25.98-23.98-42.06-.88-3.26-1.08-6.7-1.6-10.06.49-.09.97-.18,1.46-.28Z"/>
  <path class="cls-2" d="M350.28,88.63c-8.8-1.7-16.4,1.29-24.27,6.54,0-2.86-.09-4.76.01-6.65,1.01-18.13,2.13-36.25,3.06-54.38.26-5.16,4.18-6.03,7.75-7.07,8.4-2.44,13.82,1.6,13.85,10.21.05,16.32-.01,32.65-.04,48.97,0,.63-.19,1.26-.36,2.38Z"/>
  <path class="cls-2" d="M426.68,283.6c1.47-1.9,2.95-3.32,3.81-5.05,1.29-2.58,2.95-2.86,5.64-2.39,28.9,5.07,57.29,12.19,85.05,21.66,17.15,5.85,34.45,11.5,49.48,22.13,4.03,2.85,7.81,6.08,11.7,9.13-.24.47-.47.95-.71,1.42-12.18-5.06-24.26-10.41-36.58-15.1-12.74-4.84-25.62-9.39-38.64-13.4-12.87-3.96-25.92-7.45-39.04-10.46-13.25-3.04-26.69-5.25-40.71-7.95Z"/>
  <path class="cls-2" d="M577.52,338.73c6.03,12.16,15.21,17.36,27.91,13.3,2.24-.71,3.41-4.75,4.82-6.87,6.34,8.18,6.45,19.75-.63,29.03-5.64,7.4-20.54,10.84-30.31,7.01-8.24-3.23-13.55-13.81-12.26-25.34,7.31,9.74,15.93,16.02,28.41,13.13,6.18-1.43,11.06-5.36,13.12-10.07-15.62,6.92-24.08,6.46-30.72-1.69-4.1-5.03-4.55-12.45-.35-18.5Z"/>
  <path class="cls-2" d="M550.51,350.84c-19.3,6.5-46.4-11.76-47.21-31.28,4.46,5.76,8.75,11.31,13.05,16.86.48-.28.96-.55,1.44-.83-2.53-6.49-7.5-12.32-6.36-21.59,3.5,3.27,6.03,5.62,8.57,7.99.2-1.8.4-3.64.74-6.74,16.11,16.86,34.27,24.04,56.81,16.26-10.13,18.17-29.08,17.7-51.46-.26,4.75,10.15,13.46,15.62,24.42,19.59Z"/>
  <path class="cls-2" d="M640.25,578.93c-20.14-7.73-39.1-34.24-37.95-53.67,6.31,14.53,11.58,28.64,25.35,37.04-2.59-4.5-5.17-9.02-7.79-13.51-6.23-10.7-11.29-21.88-13.37-34.19-.5-2.93-.71-6-.38-8.93.14-1.27,1.82-2.86,3.14-3.31.71-.24,2.96,1.51,3.11,2.57,2.41,17.16,11.85,31.25,19.66,46.08,4.49,8.53,8.16,17.43,8.23,27.92Z"/>
  <path class="cls-2" d="M651.08,697.16c0-1.71-.03-3.42,0-5.13.46-25.09-8.38-46.53-25.24-64.9-9.56-10.42-19.04-20.92-28.48-31.46-1.27-1.42-2.08-3.26-3.6-5.68,1.56.36,2.27.32,2.7.65,10.8,8.33,22.57,15.69,32.13,25.26,20.34,20.39,29.77,45.37,26.39,74.49-.28,2.39-1.36,4.69-2.07,7.03-.61-.09-1.22-.17-1.83-.26Z"/>
  <path class="cls-2" d="M115.29,709.55c-7.43-7.83-13.01-16.39-13.53-27.56-.84-18.05,2.37-35.5,7.56-52.62,4.64-15.28,9.81-30.4,14.83-45.56.75-2.28,1.99-4.4,3.01-6.59.48.07.96.13,1.44.2.12,1.82.6,3.7.31,5.45-1.73,10.32-3.08,20.74-5.61,30.87-3.84,15.32-9.03,30.31-12.75,45.65-4.13,17.06-5.77,34.22,4.75,50.16Z"/>
  <path class="cls-2" d="M72.83,358.06c2.56,6.22,7.3,9.52,13.41,11.11,6.47,1.68,12.32-.13,17.38-4.05,4.68-3.61,8.94-7.76,13.26-11.57,1.23,7.16-2.47,13.57-7.7,18.91-7.24,7.41-16.1,9.55-26.17,5.41,3.83,6.42,15.45,10.29,24.45,8.24,9.25-2.11,15.66-8.4,22-14.97-2.13,9.82-7.58,17.16-16.84,21.18-12.66,5.5-22.86-.83-31.94-8.35-7.83-6.48-11.54-15.25-7.86-25.91Z"/>
  <path class="cls-2" d="M715.76,279.2c-.93,13.39-5.08,25.98-13.11,36.91-10.41,14.16-24.13,23.13-42.63,22.92,11.28-2.51,17.69-12.02,27.05-18.18-7.22.97-13.89,1.87-20.56,2.77-.27-.49-.53-.97-.8-1.46,21.1-9.09,38.72-21.93,47.2-44.56.95.53,1.89,1.06,2.84,1.6Z"/>
  <path class="cls-2" d="M151.6,721.81c-28.76-12.16-30.97-57.05-4.2-88.79-.97,7.11-1.78,14.25-2.94,21.33-1.21,7.39-2.92,14.71-4.11,22.1-2.81,17.47.21,29.68,11.25,45.36Z"/>
  <path class="cls-2" d="M607.46,718.63c-4.36-9.53-12.7-15.09-20.13-21.67-9.92-8.78-16.3-20.09-19.97-32.85-.31-1.07-.31-2.22-.53-3.91,4.97,7.84,9.6,15.15,14.23,22.46.47-.25.94-.51,1.41-.76-2.41-6.83-4.82-13.65-7.37-20.87,1.47.07,1.95-.05,2.1.11,9.25,10.62,19.12,20.81,27.41,32.14,3.45,4.71,3.76,11.84,5.01,17.97.45,2.2-.57,4.69-.93,7.05-.41.11-.81.22-1.22.33Z"/>
  <path class="cls-2" d="M699.64,360.46c-4.13,17.15-34.92,25.36-50.33,13.59,7.88-.41,15.25-.8,22.63-1.19.06-.47.11-.94.17-1.42-3.09-1.42-6.36-2.57-9.24-4.34-2.95-1.81-5.73-4.03-8.18-6.48-1.28-1.28-1.69-3.44-2.49-5.2,1.82.15,3.79-.1,5.43.52,4.03,1.52,7.87,3.54,11.85,5.19,7.12,2.95,14.34,3.94,21.84,1.21,2.45-.89,5.11-1.19,8.32-1.9Z"/>
  <path class="cls-2" d="M639.03,433.5c-.71,4.78-1.28,9.37-2.09,13.91-2.45,13.73-8.04,26-17.51,36.33-1.79,1.95-4.2,3.33-6.33,4.97-.44-.33-.88-.66-1.33-.99.49-1.39.7-2.96,1.5-4.14,9.77-14.36,15.2-30.59,20.61-46.86.65-1.96,2.2-4.19,3.96-5.11,8.2-4.31,16.61-8.22,24.96-12.24.85-.41,1.77-.65,2.83-1.03-2.01,9.06-10.54,13.93-26.61,15.14Z"/>
  <path class="cls-2" d="M360.44,40.72c6.47-8.15,6.12-10.64-1.54-15.98-10.56-7.37-25.43-6.79-35.37,1.37-3.97,3.26-4.52,6.46-2.15,10.97.78,1.49,1.07,3.25,1.86,5.76-11.33-4.83-13.1-13.77-5.36-20.92,11.76-10.86,33.84-11.7,46.36-1.77,9.03,7.16,7.9,15.23-3.79,20.57Z"/>
  <path class="cls-2" d="M112.96,334.63c3.15,5.5,1.26,9.81-.05,13.97-3.27,10.31-13.54,17.64-23.81,17.19-6.78-.29-12.63-3.71-14.51-9.66-1.3-4.12,1.41-9.5,2.33-14.32.68.11,1.37.22,2.05.32-.1,1.86.1,3.79-.34,5.57-1.22,4.86,1.39,6.37,5.48,6.65,10.96.76,19.53-3.04,24.84-13.08,1.06-2,2.34-3.89,4.02-6.64Z"/>
  <path class="cls-2" d="M173.97,321.5c-8.22,22.79-42.34,28.14-59.12,9.05,3.67,0,7.06-.73,10,.12,16.19,4.69,30.91,1.12,44.96-7.17,1.22-.72,2.56-1.24,4.16-2Z"/>
  <path class="cls-2" d="M624.51,737.09c20.46-2.71,24.43-17.37,24.33-35.9,6.74,5.45,9.35,11.43,9.3,18.79-.06,8.11-3.38,14.26-11.28,18.78.85-2.9,1.47-5.03,2.16-7.38-4.21,2.14-7.92,4.7-12.03,5.92-3.92,1.17-8.26.94-12.41,1.33-.02-.52-.04-1.03-.06-1.55Z"/>
  <path class="cls-2" d="M601.42,729.94c-3.65-10.3-11.76-16.5-19.66-22.87-7.91-6.38-13.89-14.26-17.98-23.53-.96-2.18-1.43-4.58-1.61-7.18,7,12.61,18.25,20.5,29.61,28.38,8.72,6.05,11.67,14.73,9.64,25.21Z"/>
  <path class="cls-2" d="M181.12,319.47c1.65,9.68-9.5,24.9-26.32,30.92-12.21,4.37-23.92,2.2-29.6-5.91,1.38.29,2.53.4,3.57.79,14.04,5.18,25.8.72,36.09-8.88,4.48-4.18,8.31-9.03,12.49-13.53,1.05-1.14,2.31-2.09,3.76-3.39Z"/>
  <path class="cls-2" d="M582.11,781.29c23.02-4.5,31.05-18.95,27.62-41.13,8.14,6.09,9.26,20.01,2.97,29.87-6.4,10.02-21.81,16.02-30.59,11.26Z"/>
  <path class="cls-2" d="M248.69,271.67c1.88,1.55,3.67,3.21,5.64,4.63,9.59,6.87,20.09,5.13,30.23,2.23,14.83-4.24,26.87-12.93,36.06-25.41,2.15-2.92,4.33-5.82,7.54-8.37-.6,1.83-.89,3.85-1.84,5.47-12.17,20.87-30.68,31.8-54.47,33.73-9.86.8-18.33-2.56-23.17-12.28Z"/>
  <path class="cls-2" d="M156.3,740.3c-1.92,10.35-2.37,19.63,1.88,28.42,4.12,8.54,10.99,14.41,19.73,19.03-10.98.36-23-8.73-27.09-19.95-3.74-10.27-1.86-21.61,5.49-27.5Z"/>
  <path class="cls-2" d="M325.28,31.13c3.7-10.07,22.3-13.93,30.49-3.65.76.95,1.18,2.41,1.22,3.65.61,20.28,1.13,40.57,1.66,60.86.02.75-.09,1.51-.16,2.45-4.33-2.72-5.22-6.07-4.98-10.91.84-16.29,1.1-32.62,1.06-48.93,0-2.59-2.07-6.15-4.27-7.58-6.36-4.13-13.24-3.92-19.77.16-1.75,1.09-3.3,2.48-5.25,3.97Z"/>
  <path class="cls-2" d="M553.05,376.52c6.02,9.6,16.51,11.47,26.8,15.11-8.93,5.1-16.74,1.3-24.63-.51-1.22-4.64-2.47-9.37-3.72-14.1l1.55-.5Z"/>
  <path class="cls-2" d="M326.08,100.66c2.43-6.76,8.3-7.64,13.8-8.64,7.29-1.33,12.85,1.45,15.76,7.34-9.63.42-19.23.85-29.56,1.3Z"/>
  <path class="cls-2" d="M669.42,411.49c-7.92,5.49-15.54,3.78-22.96,1.9-6.01-1.53-9.12-5.99-10.25-12.45,5.46,2.69,10.25,5.75,15.48,7.43,5.25,1.68,10.94,1.99,17.73,3.12Z"/>
  <path class="cls-2" d="M133.6,612.24c-4.43,19.3-8.86,38.59-13.49,58.79-1.8-21.63,5.36-40.32,13.49-58.79Z"/>
  <path class="cls-2" d="M138.29,377.71c.64.51.87.61.87.71.08,12.11-16.57,28.15-28.44,27.17-2.16-.18-4.22-1.51-6.33-2.3.14-.41.28-.82.42-1.24,4.19-.53,8.39-1,12.58-1.6,4.72-.67,8.34-2.89,10.75-7.2,2.36-4.21,5.05-8.23,7.65-12.3.73-1.14,1.66-2.17,2.49-3.24Z"/>
  <path class="cls-2" d="M607.59,336.29c-1.91-2.67-3.2-4.48-4.49-6.28-.48.08-.97.16-1.45.24v15.48c-.5.03-.99.06-1.49.09-3.49-4.92-4.83-10.49-3.79-16.49.56-3.18,2.17-6.32,6.1-5.98,4.13.36,5.89,3.35,5.91,7.3,0,1.61-.43,3.22-.79,5.65Z"/>
  <path class="cls-2" d="M261.41,225.79c.97-4.61,2.1-7.95,6.4-8.91,4.91-1.1,12.36,1.73,15.51,6.21-7.21.89-14.16,1.75-21.91,2.7Z"/>
  <path class="cls-2" d="M84.12,342.28c-1.61-1.94-3.99-3.6-4.51-5.72-.68-2.76-.32-6,.45-8.8.39-1.43,2.66-2.34,4.08-3.49,1.57,1.98,3.85,3.75,4.51,6,.79,2.67.19,5.75.19,8.66-.48.04-.96.07-1.44.11-.4-1.49-.79-2.99-1.19-4.48-.29-.02-.57-.03-.86-.05-.44,2.73-.87,5.45-1.24,7.77Z"/>
  <path class="cls-2" d="M107.11,727.57c7.62-2.09,12.95-6.65,16.52-13.44.43-.81,2.17-.93,3.3-1.37.25,1.21.89,2.49.68,3.62-1.6,8.45-9.99,13.33-20.5,11.19Z"/>
  <path class="cls-2" d="M587.86,394.67c-3.78,7.57-14.46,10.04-21.71,5.99,6.65-1.84,14.16-3.91,21.71-5.99Z"/>
  <path class="cls-2" d="M414.49,224.83c-4.67-.25-9.34-.5-14.01-.75-.2-.71-.4-1.42-.6-2.13,3.05-1.22,6.09-3.3,9.16-3.35,2.11-.03,4.26,2.76,6.39,4.29-.31.64-.63,1.29-.94,1.93Z"/>
  <path class="cls-2" d="M608.41,383.12c3.5-4.99,6.99-9.97,10.63-15.15,1.53,7.31-4.28,15.32-10.63,15.15Z"/>
  <path class="cls-2" d="M53.01,419.16c5.79-1.94,11.69-3.92,17.42-5.84-.63,4.4-7.8,6.89-17.42,5.84Z"/>
  <path class="cls-2" d="M322.85,92.53v-24.59c.18,0,.36,0,.54,0v24.61c-.18,0-.36-.02-.54-.02Z"/>
  <path class="cls-2" d="M122.34,736.69c4.05-2.24,8.1-4.47,12.15-6.71-2.9,4.26-6.6,7.13-12.15,6.71Z"/>
  <path class="cls-2" d="M436.89,216.49c-3.58,4-6.98,4.77-12.73,2.66,4.26-.89,8.75-1.83,12.73-2.66Z"/>
  <path class="cls-1" d="M322.87,549.46c-.62-7.89-1.46-15.76-1.82-23.66-.82-17.81-1.44-35.63-2.08-53.44-.27-7.44-2.42-13.93-9.29-19.46-2.17,9.43-4.52,18.23-15.88,18.99.54-16.35-8.36-27.57-19.25-36.9,3.49,6.47,7.29,13.47,11.04,20.51.62,1.17,1.07,2.44,1.46,3.71,2.48,8.03,1.02,8.85-6.96,8.21-9.68-.77-19.65-.73-29.23.73-11.14,1.69-22.13,3.13-33.25,1.14-13.09-2.34-24.1-8.42-32.52-19.01,2.46,7.32,6.72,13.23,13.64,17.09,12.88,7.18,26.81,9.74,41.4,9.52,5.32-.08,10.65-.01,15.51-.01-20.51,11.11-50.86,13.88-63.18-1.05,2.11.17,4.2.33,7.59.6-3-8.19-9.51-12.41-14.51-17.25-5.08-4.92-12.14-7.8-18.23-12.32,10.62-1.45,17.72-8.85,26.29-13.39,15.35-8.12,32.11-9.43,49.07-9.26,4.45.05,8.89.63,13.71.09-1.48-.79-2.87-1.91-4.44-2.31-25.84-6.44-50.21-5.12-71.25,13.65-2.35,2.1-4.89,4.06-7.59,5.66-6.69,3.95-11.94,2.55-16.83-4.58,5.55.56,9.64-1.59,13.43-5.19,13.88-13.22,31.07-18.19,49.72-19.16,3.28-.17,6.57-.02,9.86-.02.12-.58.23-1.15.35-1.73-6.47-2.48-12.81-5.4-19.45-7.33-6.98-2.03-14.23-4.25-21.38-4.31-6.94-.06-14.26,1.62-20.77,4.17-6.51,2.55-12.23,7.12-19.38,10.11,1.3-2.52,2.06-5.59,3.99-7.47,7.61-7.39,15.51-14.49,23.46-21.52,2.09-1.85,4.92-2.85,7.13-4.59,8.8-6.92,18.47-7.56,28.84-4.61,11.53,3.28,22.99,7.01,34.71,9.37,10.85,2.19,21.98,3.54,33.04,3.99,12.4.51,27.11,11.25,30.02,23.3,1.39,5.75.79,10.93-3.61,15.24-3.25,3.18-3.4,5.76.42,8.96,10.66,8.94,16.17,20.66,16.67,34.5.5,13.82.6,27.65.72,41.48.11,12.49.02,24.98.02,37.47-.4.02-.8.04-1.19.06ZM276.56,394.72c-6.48-2.65-12.86-5.73-21.68-4.97,6.61,6.25,12.29,11.62,17.98,16.99-3.6-.5-6.88-1.57-9.9-3.14-15.93-8.28-31.76-16.74-47.68-25.03-7.61-3.97-15.54-6.5-23.72-1.77-5.18,2.99-10.03,6.55-14.99,9.9-1.79,1.21-3.51,2.53-5.2,3.88-1.55,1.24-3.01,2.58-4.51,3.88,15.83-7.84,31.86-7.57,48.05-2.91,11.18,3.22,22.18,7.06,33.27,10.59,9.82,3.13,19.59,6.45,29.52,9.2,2.76.77,6.01-.2,9.03-.38-.49-2.89-.98-5.77-1.47-8.66,1.66,1.6,3.09,4.13,5.03,4.59,3.07.74,7.31,1.31,9.53-.24,2.97-2.07,1.14-5.8-1.23-8.17-5.96-5.95-13.14-8.02-21.36-6.05-.38.09-.44,1.49-.65,2.28ZM204.74,438.62c-4.66,2.69-10.21,4.26-10.33,10.27-.12,5.98,4.19,9.65,9.16,12.06,3.86,1.87,7.97,3.37,12.13,4.42,16.24,4.1,32.03-.14,47.85-3.11,1.72-.32,3.46-1.36,4.83-2.51,2.82-2.35,3.58-5.4.96-8.28-2.3-2.53-5.09-4.6-7.63-6.85-6.96,11.88-14.87,23.24-31.77,20.6-11.99-1.87-22.5-12.94-25.19-26.61ZM253.33,447.26c-15.51,7.72-29.4,8.83-40.21-8.14-2.5,7.1.11,12.28,4.19,16.53,6.66,6.94,14.71,9.35,24.11,5.74,6.45-2.48,10.88-6.55,11.9-14.13ZM242.09,433.05c-2.67-1.49-4.2-3.01-5.07-2.7-1.87.68-3.39,2.3-5.05,3.54,1.3,1,2.69,2.89,3.88,2.78,1.72-.17,3.29-1.8,6.24-3.62Z"/>
  <path class="cls-1" d="M478.01,371.46c6.66-2.79,13.12-2.53,18.75,2.2,12.84,10.81,25.54,21.79,38.18,32.83,1.76,1.54,2.87,3.81,4.28,5.74l-1,1.78c-2.91-.93-6.02-1.48-8.7-2.86-4.87-2.51-9.42-5.63-14.23-8.27-11.13-6.11-22.61-7.23-34.61-2.49-8.77,3.47-17.7,6.53-27.97,10.29,6.36.62,11.41,1.15,16.46,1.6,18.52,1.64,35.6,6.73,49.43,20.04,3.59,3.45,8.14,4.35,13.03,2.97,1.23-.35,2.48-.59,4.09-.97-4.94,7.65-14.17,10.58-21.46,6.78-3.05-1.59-5.98-3.72-8.42-6.14-8.47-8.42-18.7-12.88-30.29-15.23-34.07-6.89-65.06,6.31-83.06,35.93-1.69,2.78-2.4,6.15-3.54,9.25-.81,2.21-1.58,4.44-2.37,6.66-.5.02-1,.05-1.5.07-1.09-1.73-2.25-3.41-3.24-5.19-1.46-2.61-2.56-5.45-4.22-7.92-4.21-6.29-10.79-6.06-13.95.88-2.02,4.44-3.24,9.49-3.65,14.37-1.3,15.43-2.05,30.9-3.02,46.36-.07,1.14-.22,2.27-.49,4.84,0-20.42-.72-39.41.24-58.31.7-13.58,7.41-24.71,19.51-31.96,1.07-.64,1.88-1.72,3.2-2.95-1.94-1.65-3.52-3.06-5.17-4.39-9.1-7.31-10.93-17.32-4.3-26.9,5.46-7.9,13.08-13.87,22.95-12.76,16.22,1.82,31.42-2.09,46.69-6.06,10.31-2.68,20.42-6.07,30.67-9,2.54-.73,5.23-.9,7.85-1.33-22.51,11.46-45.02,22.92-67.53,34.38l.74,1.56c1.11-.18,2.27-.23,3.33-.56,13.65-4.24,27.26-8.62,40.94-12.77,16.32-4.96,32.72-9.5,49.9-4.18,4.06,1.26,8.05,2.76,12.08,4.14.26-.42.51-.84.77-1.26-7.18-5.2-14.56-10.14-21.47-15.67-5.68-4.54-11.71-6.74-18.91-5.52ZM405.35,393.31c-.8-.93-1.46-2.5-2.41-2.7-7.79-1.69-17.37,2.54-21.46,9.41-1.81,3.05-3.53,6.4.47,9.14,3.6,2.47,8.64,1.08,11.09-2.57,2.27-3.39,4.85-6.58,7.29-9.86-1.89,3.96-3.77,7.92-5.66,11.87l1.83,1.35c8.53-6.8,17.06-13.6,25.6-20.41-.42-.73-.84-1.46-1.27-2.2-5.16,1.99-10.32,3.97-15.49,5.96Z"/>
  <path class="cls-1" d="M501.66,449.98c-13.76,16.26-31.51,21.49-52.04,19.18-4.96-.56-9.9-1.32-14.85-1.99-10.77-1.45-21.46-2.44-32.13,1.11-2.01.67-5.13-.08-6.87-1.36-.8-.59.02-4.28.95-6.14,2.54-5.05,5.27-10.04,8.39-14.75,6.17-9.34,14.5-15.85,25.5-18.88,24.43-6.72,47.35-3.88,68.95,9.75,6.22,3.92,13.14,6.73,19.56,9.96-3.28,2.46-7.73,5.56-11.87,9.04-1.5,1.26-3.11,3.36-3.22,5.17-.46,7.32-4.73,11.88-10.34,15.58-11.17,7.38-23.61,7.43-36.16,5.63-7.36-1.06-14.59-2.99-21.76-5.53,3.99,0,7.98-.12,11.96.02,11.68.42,22.92-1.6,33.58-6.34,9.32-4.14,17.35-9.73,20.35-20.46ZM433.63,442.01c-3.45,3.48-1.72,6.78-.15,9.76,7.41,14.05,29.99,14.85,38.64,1.44,1.71-2.65,2.63-5.33-.28-7.84-17.64,9.95-21.64,9.61-38.21-3.36ZM482.9,438.26c-4.1,14.04-11.55,24.59-26.59,27.8,10.89.54,21.12-.97,29.76-7.95,10.17-8.2,9.41-13.82-3.17-19.86ZM408.57,458.5c13.47,5.26,25.78,5.95,39.42,6.66-12.15-4.1-20-11.32-25.3-22.72-4.72,5.36-8.98,10.21-14.12,16.06ZM463.03,433.91c.02-.6.04-1.19.06-1.79-1.94-1.19-3.8-3.1-5.84-3.31-1.21-.12-2.69,2.43-4.05,3.78,1.59,1.38,3.03,3.54,4.83,3.88,1.45.28,3.32-1.63,5-2.57Z"/>
  <path class="cls-1" d="M386.27,604.41c10.74-7.59,9.16-23.36-3.75-37.04,5.93,1.03,9.82,3.41,11.91,8.39,5.85,13.95.41,31.03-12.46,39.05-4.09,2.55-8.31,4.9-12.37,7.5-4.83,3.09-8.41,7.23-8.91,13.17-.85,10.14-8.01,13.94-16.31,16.48-8.2,2.51-14.49-2.09-20.57-6.45-1.3-.93-2.07-3.56-1.95-5.33.78-11.91-5.85-18.36-15.86-22.66-6.54-2.8-11.79-7.06-16.08-12.96-6.66-9.15-6.53-18.56-2.38-28.33,2.33-5.48,6.32-7.82,13.91-8.36-10.57,5.51-14.92,13.42-14.01,24.02.48,5.59,3.2,9.71,8.81,12.2,1.39-5.77,5.38-4.66,8.89-2.7,3.59,2,6.68,4.87,10.02,7.32,4.81,3.54,9.39,7.48,14.53,10.46,8.11,4.7,16.41,3.97,23.94-1.5,3.88-2.82,7-6.65,10.81-9.58,3.5-2.7,7.27-5.2,11.25-7.09,4.11-1.95,8.14-1.5,10.59,3.42Z"/>
  <path class="cls-1" d="M422.88,681.02c-1.12.31-3.5,1.61-4.1,1.04-4.76-4.55-10.27-2.68-15.79-2.88-7.76-.29-15.49-1.95-23.17-3.36-6.02-1.1-11.75-1.08-17.64,1.01-13.15,4.66-26.51,4.59-39.68.17-5.92-1.99-11.52-2.42-17.57-.77-5.28,1.44-10.76,2.15-16.19,2.97-2.44.37-5.2.93-7.4.17-4.27-1.46-7.5-1.03-10.78,2.21-1.13,1.12-3.63.86-5.5,1.23-.33-1.86-1.18-3.8-.9-5.55,1.17-7.29,7.49-10.52,14.03-7.73,1.21.51,3.19-.04,4.52-.69,7.62-3.73,15.17-7.59,22.7-11.5,8.43-4.38,16.55-5.81,25.48-.47,6.16,3.69,13.35,4.05,20.13.5,9.38-4.91,18.39-4.23,27.56.93,7.38,4.16,15.15,7.64,22.77,11.36,2.56,1.25,5.04,2.56,7.39-.81.69-.99,3.01-1.4,4.47-1.21,4.94.65,9.86,6.89,9.67,13.38ZM288.61,672.68c.21.61.43,1.23.64,1.84,4.78-1.2,9.64-2.15,14.32-3.65,10.17-3.26,20.12-3.87,30.24.46,6.69,2.86,13.51,2.77,20.28-.69,6.1-3.12,12.5-3.9,19.35-1.7,7.08,2.27,14.42,3.74,21.65,5.56.2-.4.4-.81.59-1.21-5.17-3.47-10.38-6.9-15.52-10.43-8.63-5.93-17.51-6.71-26.77-1.52-1.59.89-3.3,2.02-5.02,2.14-4.03.28-8.17.47-12.12-.17-2.86-.46-5.56-2.18-8.21-3.58-6.12-3.23-12.29-3.16-18.18.12-7.22,4.03-14.19,8.52-21.26,12.81Z"/>
  <path class="cls-1" d="M300.03,725.84c5.65-3.64,11.3-7.28,16.96-10.94-9.27-6.75-18.42-13.42-27.57-20.08.34-.53.68-1.07,1.02-1.6,1.05.58,2.15,1.09,3.15,1.75,6.6,4.35,13.92,6.46,21.73,6.5,16.66.08,33.33-.09,49.99-.13,11.3-.03,20.96-4.77,30.5-10.26-8.15,9.25-17.95,16.45-29.6,22.72,6.3,3.9,11.74,7.26,17.17,10.62l-.51,1.82c-2.07-.21-4.17-.25-6.19-.66-9.92-2.01-19.73-4.9-29.73-5.99-13.59-1.48-26.85,1.4-39.72,5.97-2.19.78-4.55,1.05-6.83,1.56-.12-.42-.25-.84-.37-1.26Z"/>
  <path class="cls-1" d="M386.73,194.18c13.25-9.64,27.17-7.28,40.85-4.22,3.14.7,7.08,4.33,7.8,7.3.59,2.42-2.63,6.31-4.99,8.75-2.15,2.23-5.41,3.41-8.18,5.05l-1.02-1.26c1.89-2.03,3.78-4.05,6.09-6.52-7.66-4.08-15.51-3.92-22.87-1.8-7.17,2.06-13.82,5.92-20.36,8.83,6.41-8.88,15.06-15.63,26.37-18.9-.11-.44-.23-.89-.34-1.33-3.78.38-7.6.55-11.33,1.2-3.88.68-7.68,1.84-12.02,2.91Z"/>
  <path class="cls-1" d="M256.65,204.87c-2.3-1.04-4.6-2.08-7.07-3.19,2.06-5.44,6.1-7.36,10.84-8.23,15.89-2.93,36.4,8.75,42.03,23.89.27.74.38,1.54.67,2.78-4.24-4.52-7.76-9.06-12.05-12.68-8.09-6.8-17.49-10.38-28.15-7.66-2.39.61-4.22,3.39-6.31,5.18,0,.01.05-.09.05-.09Z"/>
  <path class="cls-1" d="M315.84,216.24c1.04,12.8-2.22,24.6-11.31,33.97-12.79,13.2-33.14,20.48-44.53,15.34,16.04,2.45,28.14-3.64,39.16-12.62,11.61-9.46,15.17-22.56,16.68-36.69Z"/>
  <path class="cls-1" d="M291.08,195.9c-14.57-7.89-29.08-15.07-44.69-2.17,2.97-11.36,28.62-13.27,44.69,2.17Z"/>
  <path class="cls-1" d="M316.16,178.33c-.65-16.31,6.36-29.69,16.49-41.82-6.82,13.38-15.89,25.88-16.49,41.82Z"/>
  <path class="cls-1" d="M257.42,266.56c-7.11-3.88-8.82-7.6-7.15-13.69,2.18,4.18,4.41,8.43,7.15,13.69Z"/>
  <path class="cls-1" d="M574.83,242.12c-.94-1.41-1.17-2.1-1.66-2.44-2.44-1.72-5.6-5.2-7.28-4.61-2.76.98-5.4,4.29-6.61,7.22-2.22,5.37,1.69,15.9,6.36,19.45,3.77,2.87,7.28,2.05,9.15-2.48,1.76-4.28,2.98-8.79,4.64-13.11.94-2.45,2.27-4.74,4.09-6.83-2.5,7.37-4.69,14.86-7.63,22.05-1.6,3.91-5.24,4.83-9.25,3.01-10.47-4.75-14.03-23.53-5.62-31.42,1.62-1.53,5.22-1.98,7.58-1.47,4.42.96,5.97,3.99,6.23,10.62Z"/>
  <path class="cls-1" d="M539.2,240.45c.79-3.36,1.72-6.7,2.33-10.1.85-4.81-.71-8.87-4.46-12.01-4.85-4.07-8.54-4.46-11.99-1.33-5.82,5.28-6.72,9.6-2.42,15.03,2.3,2.9,5.47,5.11,9.29,8.57-2.72-.53-4.79-.49-6.41-1.32-6.76-3.5-10.27-15.37-6.55-21.99,2.34-4.15,6.1-6.05,10.87-5.64,5.6.49,10.58,4.25,11.86,9.3,1.73,6.82.92,13.47-2.52,19.48Z"/>
  <path class="cls-1" d="M489.9,212.37c-1.1.89-2.86,3.33-5.06,3.83-3.77.86-8.69-4.15-8.54-8.02.14-3.49,1.98-5.56,5.63-5.62,4.08-.07,7.88,3.82,7.96,9.81Z"/>
  <path class="cls-1" d="M598.52,252.43c-2.47,1.99-4.7,3.79-7.8,6.28,3.62-.67,5.84-1.08,8.05-1.49.25,1.92.5,3.84.89,6.86-2.54-1.45-3.87-2.22-6.07-3.47v13.28c-.48.14-.97.29-1.45.43-.95-1.52-2.41-2.93-2.77-4.58-1.33-6.11-.52-11.96,3.53-16.98,2.07-2.57,4.25-3.09,5.62-.34Z"/>
  <path class="cls-1" d="M524.42,219.5c5.93-2.02,11.05,1.95,10.09,7.12-.24,1.28-1.33,3.04-2.39,3.35-.98.29-2.98-.73-3.59-1.74-1.59-2.63-2.67-5.57-4.11-8.73Z"/>
  <path class="cls-1" d="M573.39,246.03c-2.66,2.81-4.4,4.65-6.15,6.48-1.22-2.11-3.3-4.18-3.41-6.35-.09-1.8,2.15-3.72,3.36-5.58,1.76,1.54,3.51,3.09,6.2,5.45Z"/>
  <path class="cls-1" d="M611.68,264.81c1.19,1.25,1.84,1.94,2.54,2.67-4.97,2.04-8.51,13.42-5.42,22.34.54,1.55,2.02,2.77,3.52,4.73-1.08,2.23-2.52,1.01-3.92-1.65-3.79-7.22-3.24-14.41.13-21.58.91-1.93,1.86-3.84,3.15-6.52Z"/>
  <path class="cls-2" d="M210.51,197.47c1.14,1.97,2.27,3.94,3.41,5.92.65,7.53.33,14.58-6.84,19.52-6.3,4.35-13.1,4.69-17.25.28-5.27-5.59-5.58-15.61-.81-20.95,6.06-6.79,13.18-8.32,21.49-4.77ZM194.85,211.18c-.18,3.44.96,6.17,5.37,6.29,5.01.14,8.86-3.97,8.75-9.34-.08-4.08-2.41-6.05-6.25-6.19-4.73-.17-7.84,3.46-7.87,9.23Z"/>
  <path class="cls-1" d="M210.51,197.47c-8.3-3.54-15.43-2.01-21.49,4.77-4.77,5.34-4.45,15.35.81,20.95,4.15,4.41,10.95,4.07,17.25-.28,7.17-4.95,7.49-12,6.84-19.52,4.67,12.32.3,22.2-10.72,23.92-5.71.89-11.52,1.1-15.28-4.47-4.39-6.5-5.32-13.56-1.76-20.75,4.54-9.17,17.36-11.52,24.35-4.63Z"/>
  <path class="cls-1" d="M153.89,240.18c3.83-3.15,7.62-5.53,10.45-8.76,4.45-5.06,3.53-12.34-1.41-16.51-3.84-3.24-10.06-1.84-14.43,3.31-.84.99-1.54,2.12-2.86,3.97-.16-5.34,2.89-7.44,6.09-9.17,4.11-2.22,8.63-3.47,12.7-.25,4.92,3.88,5.98,9.37,5.06,15.34-.92,5.97-4.19,10.15-9.94,11.99-1.83.58-4,.09-5.66.09Z"/>
  <path class="cls-1" d="M160.99,222.19c-.39,5.34-1.95,7.93-6.04,8.25-3.18.25-4.69-1.43-4.56-4.44.16-3.75,1.38-7.35,5.77-7.2,1.87.06,3.66,2.51,4.83,3.38Z"/>
  <path class="cls-1" d="M94.8,270.74c-4.79-10.09-4.7-12.08.59-16.54,4.93,5.51,4.82,11.52-.59,16.54Z"/>
  <path class="cls-1" d="M120.31,248.77c-3.23-5.52-3.12-9.76.65-10.93,1.5-.46,4.52.31,5.15,1.45,1.89,3.43-1.23,8.08-5.81,9.47Z"/>
  <path class="cls-1" d="M100.19,275.97c4.1-9.91.2-18.83-4.24-28.63,7.82,5.94,9.82,21.26,4.24,28.63Z"/>
  <path class="cls-1" d="M77.49,268.12c.45,5.93.89,11.85,1.34,17.78-.19.04-.37.09-.56.13-1.73-4.38-3.8-8.67-5-13.2-.38-1.42,1.59-3.45,2.48-5.21.58.16,1.16.33,1.74.49Z"/>
  <path class="cls-1" d="M73.23,298.3c-1.46-6.46-2.93-12.93-4.39-19.39l1.59-.29c5.48,5.77,2.65,13.07,2.8,19.67Z"/>
  <path class="cls-1" d="M78.04,265c7.19,8.27,7.68,20.72,1.11,28.18,7.29-9.69,1.61-18.88-1.11-28.18Z"/>
  <path class="cls-1" d="M84.64,261.58c4.25,6.51,2.88,15.29,10.17,18.54-4.63.49-8.58-5.89-10.17-18.54Z"/>
  <path class="cls-1" d="M145.01,235.73c2.69,4.02,5.31,7.92,7.59,11.32-3.99-.22-7.53-4.89-7.59-11.32Z"/>
  <path class="cls-2" d="M285.25,402.3c.49,2.89.98,5.77,1.47,8.66-3.02.17-6.27,1.14-9.03.38-9.93-2.75-19.7-6.07-29.52-9.2-11.09-3.54-22.09-7.37-33.27-10.59-16.19-4.66-32.22-4.94-48.05,2.91,1.5-1.3,2.96-2.64,4.51-3.88,1.69-1.35,3.41-2.67,5.2-3.88,4.96-3.36,9.82-6.91,14.99-9.9,8.18-4.73,16.11-2.2,23.72,1.77,15.92,8.29,31.75,16.75,47.68,25.03,3.02,1.57,6.3,2.64,9.9,3.14-5.69-5.37-11.37-10.75-17.98-16.99,8.82-.76,15.2,2.32,21.68,4.97,2.9,2.53,5.79,5.06,8.69,7.58Z"/>
  <path class="cls-2" d="M204.74,438.62c2.69,13.67,13.19,24.74,25.19,26.61,16.9,2.63,24.8-8.72,31.77-20.6,2.54,2.24,5.33,4.32,7.63,6.85,2.62,2.88,1.86,5.93-.96,8.28-1.37,1.14-3.11,2.18-4.83,2.51-15.82,2.98-31.61,7.21-47.85,3.11-4.16-1.05-8.27-2.55-12.13-4.42-4.97-2.41-9.28-6.08-9.16-12.06.12-6,5.67-7.58,10.33-10.27Z"/>
  <path class="cls-2" d="M253.33,447.26c-1.02,7.57-5.45,11.65-11.9,14.13-9.4,3.61-17.46,1.2-24.11-5.74-4.08-4.26-6.69-9.43-4.19-16.53,10.81,16.97,24.7,15.86,40.21,8.14Z"/>
  <path class="cls-2" d="M285.25,402.3c-2.9-2.53-5.79-5.06-8.69-7.58.21-.79.28-2.19.65-2.28,8.22-1.97,15.4.1,21.36,6.05,2.37,2.37,4.2,6.1,1.23,8.17-2.22,1.55-6.46.98-9.53.24-1.93-.47-3.37-2.99-5.03-4.59Z"/>
  <path class="cls-2" d="M242.09,433.05c-2.94,1.81-4.52,3.45-6.24,3.62-1.19.12-2.58-1.78-3.88-2.78,1.66-1.24,3.18-2.86,5.05-3.54.87-.32,2.4,1.21,5.07,2.7Z"/>
  <path class="cls-2" d="M478.01,371.46c7.2-1.22,13.23.97,18.91,5.52,6.91,5.53,14.29,10.47,21.47,15.67-.26.42-.51.84-.77,1.26-4.02-1.39-8.01-2.88-12.08-4.14-17.18-5.32-33.59-.79-49.9,4.18-13.68,4.16-27.29,8.53-40.94,12.77-1.07.33-2.22.38-3.33.56l-.74-1.56c22.51-11.46,45.02-22.92,67.53-34.38,0,0-.16.13-.16.13Z"/>
  <path class="cls-2" d="M400.33,396.73c-2.44,3.28-5.01,6.47-7.29,9.86-2.45,3.65-7.49,5.04-11.09,2.57-4-2.74-2.29-6.09-.47-9.14,4.09-6.87,13.67-11.1,21.46-9.41.95.21,1.61,1.77,2.41,2.7l-5.02,3.42Z"/>
  <path class="cls-2" d="M400.33,396.73l5.02-3.42c5.16-1.99,10.32-3.97,15.49-5.96.42.73.84,1.46,1.27,2.2-8.53,6.8-17.06,13.6-25.6,20.41l-1.83-1.35c1.89-3.96,3.77-7.92,5.66-11.87Z"/>
  <path class="cls-2" d="M433.63,442.01c16.58,12.98,20.57,13.31,38.21,3.36,2.91,2.51,1.99,5.19.28,7.84-8.65,13.41-31.24,12.61-38.64-1.44-1.57-2.98-3.3-6.28.15-9.76Z"/>
  <path class="cls-2" d="M482.9,438.26c12.58,6.04,13.33,11.66,3.17,19.86-8.65,6.97-18.87,8.49-29.76,7.95,15.04-3.22,22.49-13.76,26.59-27.8Z"/>
  <path class="cls-2" d="M408.57,458.5c5.14-5.85,9.41-10.7,14.12-16.06,5.3,11.4,13.15,18.62,25.3,22.72-13.64-.71-25.95-1.4-39.42-6.66Z"/>
  <path class="cls-2" d="M463.03,433.91c-1.68.94-3.55,2.85-5,2.57-1.79-.34-3.23-2.51-4.83-3.88,1.36-1.35,2.84-3.9,4.05-3.78,2.04.21,3.9,2.11,5.84,3.31-.02.6-.04,1.19-.06,1.79Z"/>
  <path class="cls-2" d="M288.61,672.68c7.08-4.29,14.04-8.78,21.26-12.81,5.89-3.28,12.06-3.36,18.18-.12,2.64,1.4,5.35,3.11,8.21,3.58,3.95.64,8.09.45,12.12.17,1.72-.12,3.43-1.25,5.02-2.14,9.26-5.2,18.14-4.41,26.77,1.52,5.14,3.53,10.34,6.96,15.52,10.43-.2.4-.4.81-.59,1.21-7.23-1.82-14.57-3.29-21.65-5.56-6.85-2.2-13.25-1.41-19.35,1.7-6.77,3.46-13.59,3.54-20.28.69-10.12-4.33-20.07-3.72-30.24-.46-4.68,1.5-9.54,2.45-14.32,3.65-.21-.61-.43-1.23-.64-1.84Z"/>
  <path class="cls-1" d="M194.85,211.18c.03-5.77,3.15-9.4,7.87-9.23,3.84.14,6.17,2.1,6.25,6.19.11,5.37-3.75,9.48-8.75,9.34-4.41-.12-5.55-2.86-5.37-6.29Z"/>
</svg>