<?xml version="1.0" encoding="UTF-8"?>
<svg id="Layer_1" data-name="Layer 1" xmlns="http://www.w3.org/2000/svg" viewBox="0 0 841.99 950.72">
  <defs>
    <style>
      .cls-1 {
        fill: #000;
      }

      .cls-1, .cls-2 {
        stroke-width: 0px;
      }

      .cls-2 {
        fill: #fff;
      }
    </style>
  </defs>
  <path class="cls-2" d="M789.15,534.81c-1.88-.66-3.74-1.38-5.61-2.07,28.78-2.17,45.79-18.6,50.81-44.93,5.69-29.84-8.7-51.52-33.8-64.93,2.44-2.93,4.86-6.39,7.81-9.31,26.49-26.13,38.17-57.34,32.03-94.4-3.05-18.39-10.37-34.61-27.87-43.89-6.17-3.27-10.58-7.81-14.02-13.72-5.68-9.73-14.18-15.71-25.21-18.11-1.26-.27-2.49-.68-4.02-1.1.2-2.07.3-3.87.56-5.65,2.1-14.44-.24-28.2-6.23-41.42-14.14-31.21-59.43-44.63-84.13-11.99-1.17,1.54-2.98,2.59-4.85,4.18-2.44-5.3.02-8.66,1.97-12.04,13.51-23.45,6.88-48.63-16.55-62.33-13.46-7.87-27.86-9.37-43.5-5.67,1.39-22.91-7.28-40.4-27.79-51.16-9.4-4.93-17.96-5.04-21.17-5.15-24.38-.86-42,16.2-45.82,20.08-3.78-29.81-30.81-48.05-56.94-38.86-4.71,1.66-7.59.68-10.5-2.54-1.9-2.1-3.71-4.28-5.54-6.44-5.92-6.99-11.79-14.02-17.75-20.98-2.73-3.19-5.63-3.2-8.4.04-4.98,5.82-10.14,11.5-14.85,17.53-4.16,5.34-7.81,11.07-11.7,16.64-19.38-15.87-61.02,2.25-64.37,36.17-2.76-4.28-9.88-14-22.79-18.97-11.47-4.42-22.08-3-27.34-2.3-2.39.32-5.77.53-9.78,2.11-19.88,7.81-32.27,21.88-34.23,43.88-.26,2.91-.54,5.83-.83,8.98-1.5-.23-2.3-.31-3.09-.47-18.51-3.62-35.49.06-50.73,11.07-19.64,14.19-25.27,36.78-14.82,58.13.1.2-.16.57-.32,1.1-1.68-1.15-3.29-2.29-4.93-3.38-9.7-6.4-20.35-9.05-31.87-7.64-21.29,2.59-39.54,19.02-45.26,40.55-2.74,10.31-3.07,20.75-1.39,31.23.59,3.66.03,5.9-3.7,7.85-13.46,7.07-22.35,18.26-27.03,32.65-1.8,5.52-2.71,11.33-4.3,16.92-.43,1.52-1.55,3.44-2.86,4.01-13,5.6-25.01,23.61-26.74,39-4.83,4.22-7.37,8.48-8.79,11.8-7.72,18.11,4.92,38.39,14.41,53.61,5.9,9.46,12.41,15.26,18.33,20.41,1.74,1.51,3.86,2.58,5.8,3.86-.27.75-.54,1.5-.8,2.26-4.56,2.9-9.15,5.77-13.69,8.71-10.62,6.89-18.35,15.22-23.24,24.95-.59,1.17-.99,2.38-1.73,4.31-.35.91-3.62,9.46-5.76,17.97-3.57,14.18-5.92,23.56-2.63,34.65,1.95,6.57,5.06,11.02,6.73,13.32,5.31,7.29,12.6,12.72,21.43,16.7,1.72.78,11.12,3.18,17.86,1.43.64-.17,3.36-.92,3.65-.32.25.53-1.52,1.86-1.85,2.12-4.08,3.16-18.23,19.3-23.16,33.1-10.54,29.52-3.5,55.78,18.63,75.96,4.64,4.23,10.37,6.37,16.59,3.43,4.82-2.28,7.25-9.73,5.98-16.83-.23-1.31-.67-2.58-.94-3.89-.81-3.91-1.95-7.79-2.3-11.74-1.36-15.09,8.86-27.13,23.88-28.48-20.02,27.57-9.04,57.39,14.09,77.79-.96,1.83-1.9,3.76-2.97,5.61-7.16,12.38-12.19,25.49-14.37,39.7-5.64,36.76,13.4,64.76,49.56,72.5,2.64.57,3.97,1.43,3.97,4.52,0,7.28,3.31,11.06,10.59,11.95,3.4.41,6.97-.04,10.39-.53,3.54-.51,7-1.54,10.53-2.35,1.35,11.12,4,15.38,12.22,19.26,2.53,1.19,5.35,2.48,8.04,2.49,5.68.03,8.19,2.98,10.56,7.75,15.25,30.71,43.06,42.07,71.4,38.22,8.72-1.18,17.25-3.74,25.94-5.24,10.92-1.89,21.05-1.31,30,3.01,8.23,3.96,12.89,9.82,14.2,11.38,14.88,17.71,93.9,57.26,154.6,59.71,89.1,3.6,161.22-71.81,177.8-90.72,1.7.98,3.43,1.94,5.18,2.86,5.04,2.65,9.28,3.07,13.67-.82,3.48-3.09,7.31-5.83,10.58-9.12,12.78-12.87,20.95-38.57,3.56-59.04-.83-.98-1.43-2.14-2.19-3.3,4.22-3.01,7.7-2.41,10.56,1.4,1.99,2.66,3.93,5.39,5.5,8.3,2.88,5.36,3.79,5.93,8.89,2.36,8.54-5.98,14.67-13.86,17.88-23.98.68-2.16,2.77-5.49,4.22-5.5,4.6-.02,10.25-4.31,13.83,2.41.45.84,2.62,1.47,3.67,1.14,2.5-.79,5.2-1.74,7.11-3.43,12.7-11.2,22.56-24.47,27.67-40.8.96-3.06,1.25-6.39,1.14-10.87-.75-31.3-36.02-52.73-45.27-58.34-1.36-.83-2.66-1.58-3.89-2.26.08.01.15.03.23.05,14.58,2.82,16.08,1.93,23.82-10.86,7.1-11.74,12.82-23.94,8.67-38.26-1.03-3.55-2.39-7-3.9-11.34,4.51,1.3,8.19,2.22,11.78,3.44,10.67,3.63,15.4,10.72,13.49,21.87-.37,2.16-.81,3.85-5.7,19.04-.57,1.77-1.41,4.37-.2,5.59,1.2,1.22,3.86.49,5.69-.01,3.71-1.02,6.19-2.91,6.71-3.25,13.77-9.02,21.2-21.89,22.2-38.25,1.97-32-19.4-63.25-50.4-74.08Z"/>
  <g>
    <path class="cls-1" d="M789.15,534.81c-1.88-.66-3.74-1.38-5.61-2.07,28.78-2.17,45.79-18.6,50.81-44.93,5.69-29.84-8.7-51.52-33.8-64.93,2.44-2.93,4.86-6.39,7.81-9.31,26.49-26.13,38.17-57.34,32.03-94.4-3.05-18.39-10.37-34.61-27.87-43.89-6.17-3.27-10.58-7.81-14.02-13.72-5.68-9.73-14.18-15.71-25.21-18.11-1.26-.27-2.49-.68-4.02-1.1.2-2.07.3-3.87.56-5.65,2.1-14.44-.24-28.2-6.23-41.42-14.14-31.21-59.43-44.63-84.13-11.99-1.17,1.54-2.98,2.59-4.85,4.18-2.44-5.3.02-8.66,1.97-12.04,13.51-23.45,6.88-48.63-16.55-62.33-13.46-7.87-27.86-9.37-43.5-5.67,1.39-22.91-7.28-40.4-27.79-51.16-9.4-4.93-17.96-5.04-21.17-5.15-24.38-.86-42,16.2-45.82,20.08-3.78-29.81-30.81-48.05-56.94-38.86-4.71,1.66-7.59.68-10.5-2.54-1.9-2.1-3.71-4.28-5.54-6.44-5.92-6.99-11.79-14.02-17.75-20.98-2.73-3.19-5.63-3.2-8.4.04-4.98,5.82-10.14,11.5-14.85,17.53-4.16,5.34-7.81,11.07-11.7,16.64-19.38-15.87-61.02,2.25-64.37,36.17-2.76-4.28-9.88-14-22.79-18.97-11.47-4.42-22.08-3-27.34-2.3-2.39.32-5.77.53-9.78,2.11-19.88,7.81-32.27,21.88-34.23,43.88-.26,2.91-.54,5.83-.83,8.98-1.5-.23-2.3-.31-3.09-.47-18.51-3.62-35.49.06-50.73,11.07-19.64,14.19-25.27,36.78-14.82,58.13.1.2-.16.57-.32,1.1-1.68-1.15-3.29-2.29-4.93-3.38-9.7-6.4-20.35-9.05-31.87-7.64-21.29,2.59-39.54,19.02-45.26,40.55-2.74,10.31-3.07,20.75-1.39,31.23.59,3.66.03,5.9-3.7,7.85-13.46,7.07-22.35,18.26-27.03,32.64-1.8,5.52-2.71,11.33-4.3,16.92-.43,1.52-1.55,3.44-2.86,4.01-13,5.6-25.01,23.61-26.74,39-4.83,4.22-7.37,8.48-8.79,11.8-7.72,18.11,4.92,38.39,14.41,53.61,5.9,9.46,12.41,15.26,18.33,20.41,1.74,1.51,3.86,2.58,5.8,3.86-.27.75-.54,1.5-.8,2.26-4.56,2.9-9.15,5.77-13.69,8.71-10.62,6.89-18.35,15.22-23.24,24.95-.59,1.17-.99,2.38-1.73,4.31-.35.91-3.62,9.46-5.76,17.97-3.57,14.18-5.92,23.56-2.63,34.65,1.95,6.57,5.06,11.02,6.73,13.32,5.31,7.29,12.6,12.72,21.43,16.7,1.72.78,11.12,3.18,17.86,1.43.64-.17,3.36-.92,3.65-.32.25.53-1.52,1.86-1.85,2.12-4.08,3.16-18.23,19.3-23.16,33.1-10.54,29.52-3.5,55.78,18.63,75.96,4.64,4.23,10.37,6.37,16.59,3.43,4.82-2.28,7.25-9.73,5.98-16.83-.23-1.31-.67-2.58-.94-3.89-.81-3.91-1.95-7.79-2.3-11.74-1.36-15.09,8.86-27.13,23.88-28.48-20.02,27.57-9.04,57.39,14.09,77.79-.96,1.83-1.9,3.76-2.97,5.61-7.16,12.38-12.19,25.49-14.37,39.7-5.64,36.76,13.4,64.76,49.56,72.5,2.64.57,3.97,1.43,3.97,4.52,0,7.28,3.31,11.06,10.59,11.95,3.4.41,6.97-.04,10.39-.53,3.54-.51,7-1.54,10.53-2.35,1.35,11.12,4,15.38,12.22,19.26,2.53,1.19,5.35,2.48,8.04,2.49,5.68.03,8.19,2.98,10.56,7.75,15.25,30.71,43.06,42.07,71.4,38.22,8.72-1.18,17.25-3.74,25.94-5.24,10.92-1.89,21.05-1.31,30,3.01,8.23,3.96,12.89,9.82,14.2,11.38,14.88,17.71,93.9,57.26,154.6,59.71,89.1,3.6,161.22-71.81,177.8-90.72,1.7.98,3.43,1.94,5.18,2.86,5.04,2.65,9.28,3.07,13.67-.82,3.48-3.09,7.31-5.83,10.58-9.12,12.78-12.87,20.95-38.57,3.56-59.04-.83-.98-1.43-2.14-2.19-3.3,4.22-3.01,7.7-2.41,10.56,1.4,1.99,2.66,3.93,5.39,5.5,8.3,2.88,5.36,3.79,5.93,8.89,2.36,8.54-5.98,14.67-13.86,17.88-23.98.68-2.16,2.77-5.49,4.22-5.5,4.6-.02,10.25-4.31,13.83,2.41.45.84,2.62,1.47,3.67,1.14,2.5-.79,5.2-1.74,7.11-3.43,12.7-11.2,22.56-24.47,27.67-40.8.96-3.06,1.25-6.39,1.14-10.87-.75-31.3-36.02-52.73-45.27-58.34-1.36-.83-2.66-1.58-3.89-2.26.08.01.15.03.23.05,14.58,2.82,16.08,1.93,23.82-10.86,7.1-11.74,12.82-23.94,8.67-38.26-1.03-3.55-2.39-7-3.9-11.34,4.51,1.3,8.19,2.22,11.78,3.44,10.67,3.63,15.4,10.72,13.49,21.87-.37,2.16-.81,3.85-5.7,19.04-.57,1.77-1.41,4.37-.2,5.59,1.2,1.22,3.86.49,5.69-.01,3.71-1.02,6.19-2.91,6.71-3.25,13.77-9.02,21.2-21.89,22.2-38.25,1.97-32-19.4-63.25-50.4-74.08ZM807.01,434.29c19.38,11.02,30.78,47.46,7.97,67.11-11.68,10.07-23.85,16.95-39.83,13.24-6.52-1.51-11.68-5.04-15.19-11,4.65,1.59,9.2,3.69,13.98,4.65,10.63,2.14,21.28,3.74,31.55-2.17,9.1-5.24,13.49-13.1,13.98-23.24.54-11.07-2.2-21.43-7.77-31.03-4.23-7.28-10.8-11.56-18.4-14.59-2.83-1.13-5.56-2.52-9.55-4.34,9.08-3.42,16.22-2.63,23.26,1.37ZM371.8,269.68c1.32.5,2.46,1.47,3.37,3.42-3.27-.59-6.57-1.07-9.81-1.78-13.97-3.07-27.46-1.93-40.39,4.42-8.42,4.13-14.37,10.69-18.42,19.02-3.13,6.44-6.21,12.91-9.04,19.49-7.03,16.35-20.21,23.93-37.11,25.41-14.73,1.29-28.46-2.02-40.28-11.58-3.23-2.61-6.95-4.63-10.11-7.32-1.43-1.22-3.23-3.88-2.76-5.04.7-1.73,3.38-3.91,5.01-3.75,4.18.41,8.47,1.49,12.3,3.22,5.74,2.59,10.98,6.3,16.71,8.93,16.05,7.36,28.57,3.82,38.57-10.74,2.43-3.53,4.29-7.46,6.41-11.2l-.99-.8c-2.86,3.2-5.6,6.52-8.59,9.59-12.76,13.12-29.98,16.37-45.02,3.23,2.37.75,3.77,1.06,5.07,1.62,8.59,3.71,16.87,2.71,24.06-2.86,5.06-3.92,9.52-8.75,13.63-13.7,4.46-5.36,7.82-11.64,12.31-16.97,18.19-21.64,41.45-30.31,69.12-24.41,8.49,1.81,16.24,7.09,24.33,10.78-.21.21-.42.42-.63.63-8.82-2.49-17.65-4.97-26.47-7.46-.07.29-.13.58-.2.87,6.32,2.31,12.66,4.57,18.94,6.96ZM85.92,494.1c-13.99-3.75-27.56-20.25-28.55-34.71-.68-9.99,5.4-18.38,15.44-18.99,10.12-.62,20.35.47,30.54.81.07.64.14,1.28.21,1.93-3.89,1.62-7.84,3.15-11.67,4.9-4.37,2-8.93,3.78-12.92,6.41-7.6,5.02-11.1,12.36-9.48,21.48,1.58,8.89,7.95,13.76,16.01,16.08,9.09,2.62,17.79,1.46,25.65-6.17-5.15,8.06-14.98,11-25.23,8.26ZM95.05,505.55c-3.4,10.02-23.62,17.14-34.19,8.25,13.42,3.69,23.35-3.24,34.19-8.25ZM105.69,485.33c-8.4,4.72-16.78,4.96-25.09-.01-4.34-2.59-6.36-6.68-6.53-11.68-.17-5.16,1.58-6.41,6.12-4.09,7.53,3.84,15.31,5.3,23.67,3.41,8.25-1.86,13.73-6.73,17.44-14.28,3.07-6.25,6.42-12.46,10.48-18.08,5.09-7.04,11.18-12.47,20.91-13.48,10.53-1.09,20.86-4.1,31.28-6.26,1.41-.29,2.84-.48,4.27-.72l.81,1.68c-2.64,1.46-5.15,3.31-7.96,4.3-6.42,2.27-12.86,4.77-19.52,6.03-20.32,3.84-32.54,16.5-40.65,34.71-3.26,7.32-7.76,14.28-15.24,18.48ZM132.92,384.77c-3.22-4.78-2.06-10.21,2.83-13.31,6.15-3.9,13.06-2.81,20.38,2.42,6.05,4.32,12.26,8.6,18.89,11.89,9.23,4.58,18.7,3.76,27.8-1.17,2.77-1.5,5.69-2.71,8.65-4.1-2.95,6.71-15.01,14.99-24.87,17.22-13.89,3.14-26.28-1.25-38.31-7.54-3.17-1.66-6.43-3.15-9.64-4.72,24.41,20.71,47.77,27.37,80.3-2.13-.98,1.58-1.82,3.27-2.97,4.73-21.03,26.73-64,25.02-83.07-3.28ZM90.98,316.4c17.94,5.58,33.26,1.39,48.62-8.43-7.44,18.1-36.22,23.11-48.62,8.43ZM163.43,374.54c11.89-1.11,24.67-2.29,37.09-3.45-3.45,10.71-25.71,12.74-37.09,3.45ZM184.98,349.46c-3.94-2.07-7.48-4.99-11-7.79-11.65-9.28-12.74-9.53-25.9-4.51,1.67-7.01,8.48-11.72,16.55-10.87,4.1.43,8.29,1.32,12.11,2.83,8.76,3.46,17.7,4.44,26.98,3.43,1.69-.19,3.42-.03,6.28-.03-2.17,2.61-3.47,4.18-5.02,6.05,5.37,1.11,10.38,2.15,15.82,3.28-6.74,4.57-17.53,5.26-31.45,2.66,11.37,8.05,23.98,6.88,36.79,4.16.12.41.25.81.37,1.22-3.73,1.84-7.46,3.68-11.77,5.81,10.26,1.31,19.27-2.71,28.55-4.67.19.4.38.8.56,1.2-2.6,1.4-5.06,3.32-7.84,4.13-17.98,5.22-34.92,1.57-51.05-6.9ZM184.86,325.2c6.25-2.68,12.5-5.36,18.86-8.09,1.61,4.72.31,6.84-3.98,7.46-4.77.69-9.48,1.78-14.22,2.69-.22-.68-.43-1.37-.65-2.05ZM337.44,252.12c-21.98,3.19-42.02,10.57-57.1,27.78-6.02,6.88-11.43,14.3-17.05,21.53-5.58,7.18-12.9,11.41-21.79,12.97-1.65.29-3.39.04-5.26-.87.48-.29.93-.76,1.44-.85,12.59-2.38,20.93-10.52,27.5-20.73,7.29-11.33,15.53-21.83,27.16-28.84,24.5-14.77,50.78-20.29,79-13.4,8.33,2.03,13.97,7.79,17.93,15.16-.46-.19-.98-.28-1.36-.57-15.03-11.55-32.05-14.85-50.5-12.17ZM379.45,207.3c.96,7.23-3.57,6.69-7.93,6.47-57.66-2.88-109.93,15.38-160.2,41.13-6.6,3.38-12.3,8.52-18.4,12.87-2.38,1.7-4.7,3.48-7.05,5.22-.29-.36-.57-.72-.86-1.08l23.69-19.28-.57-.83c-6.78,4.72-13.56,9.44-20.34,14.15-.32-.38-.65-.75-.97-1.13,3.62-3.44,7.01-7.17,10.9-10.28,20.88-16.74,44.34-28.85,69.42-37.86,36.26-13.03,73.7-20.63,112.08-23.65,1.31-.1,2.63-.01,4.99-.01-.79,2.51-1.26,4.22-1.86,5.89-1,2.82-3.26,5.78-2.91,8.4ZM187.07,221.5c-.31-.44-.61-.87-.92-1.31,2.95-3.24,5.64-6.79,8.91-9.68,20.42-18.04,39.35-38.36,64.7-49.62,21.24-9.44,42.99-18.09,65.21-24.83,17.39-5.27,35.8-7.26,53.82-10.3,6.93-1.17,7.97.25,8,8.28-76.1,6.84-143.95,33.32-199.72,87.46ZM203.19,224.03c-.38.11-.76.22-1.14.32-.5-1.96-1.2-3.91-1.43-5.9-.2-1.68-4.64-3.39.64-5.41.7,3.95,1.32,7.47,1.94,10.99ZM247.06,188.8c-1.49-3.53.02-4.81,2.9-5.9,3.71-1.41,7.36-2.96,11.58-4.67,2.84,5.62,5.39,10.64,8.08,15.96-1.24.46-2.41.89-3.4,1.25-1.28-2.59-2.14-5.21-3.72-7.27-1.42-1.85-4.14-4.67-5.41-4.27-3.46,1.09-8.17,2.23-6.7,8,.67,2.64-.43,4.39-3.11,5.34-2.93,1.04-5.76,2.38-9.12,2.72,1.72-.95,3.36-2.11,5.18-2.82,4.1-1.59,5.28-4.66,3.72-8.35ZM298.88,169.74c-.27-3.67.78-5.46,4.36-6.36,6.44-1.62,12.81-3.53,19.17-5.43,3-.9,4.6.13,5.63,3.03,1.92,5.38,4.1,10.66,6.33,16.36-.51.15-1.82.62-3.17.94-17.47,4.19-35,8.18-52.39,12.68-4.25,1.1-6.74.2-8.54-3.42-1.68-3.39-3.18-6.86-4.83-10.43,1.13-.72,1.77-1.23,2.49-1.56.71-.32,1.51-.46,2.41-.73.42.78.77,1.32,1.01,1.91,5.14,12.77,4.12,11,16.56,7.66.32-.09.62-.23.94-.34,10.69-3.72,10.99-1.33,10.02-14.31ZM344.23,154.7c-.79.36-1.44,2.66-1.04,3.61.82,1.94,2.11,4.7,3.71,5.09,6.35,1.58,9.81-1.93,9.13-8.47-.19-1.79-.24-3.59-.35-5.41,3.42-1.49,4.87-.62,5.11,2.86.46,6.54-1.61,11.33-6.18,13.63-8.01,4.03-13.14,1.92-15.76-6.5-.54-1.73-1.05-3.47-1.74-5.77,5.15-1.12,10.1-2.2,15.69-3.41.51,3.24.92,5.89,1.51,9.64-3.31-.26-5.89-.46-8.47-.66,1.12-1.48,2.23-2.96,4.02-5.34-2.07.2-4.06,0-5.62.71ZM338.29,166.8c1.07,3.09,2.87,4.36,6.35,4.18,13.34-.67,17.08-3.88,18.92-16.96.12-.82-.07-1.93.39-2.42,1.15-1.21,2.61-2.15,3.94-3.19.94,1.27,2.8,2.66,2.65,3.79-.72,5.42-1.98,10.77-3.32,17.51,5.36-4.39,3.86-10.25,5.91-15.02,3.12,4.9,3.3,11.68,9.88,13.73-3.16-6.62-6.31-13.22-9.54-19.99,4.2-1.59,6.62-1.72,7.92,2.69,2.12,7.14,5.56,13.57,12.55,17.33.65.35,1.04,1.18,2.25,2.6-2.3.34-3.8.63-5.32.77-16.37,1.51-32.73,3.11-49.12,4.36-2.05.16-5.32-.92-6.17-2.45-2.94-5.32-5.06-11.09-7.62-16.99,2.21-.76,3.88-1.34,5.89-2.03,1.53,4.14,3.06,8.1,4.44,12.11ZM380.8,148.63c14.17-3.37,16.65,2.14,17.54,11.3.45,4.58-2.49,6.1-5.77,2.97-4.2-4.02-7.5-8.99-11.78-14.27ZM233.22,195.94c1.11,2.85,2.11,5.42,3.37,8.69,5.3-2.34,10.4-4.6,15.5-6.86.38.37.77.74,1.15,1.11.16-2.41.09-4.86.58-7.2.26-1.24,1.31-2.9,2.36-3.22,1-.3,2.95.53,3.63,1.47,3.32,4.58,3.99,6.05-1.73,8.29-6.91,2.71-13.45,6.36-20.64,9.84-2.6-4.41-5.04-8.56-7.48-12.7,3.85-1.61,7.7-3.23,11.56-4.84.14.31.28.62.43.93-2.82,1.45-5.64,2.9-8.73,4.49ZM237.5,211.92c49.11-24.77,101.62-35.12,156.12-37.04,2.74-.1,6.97-1.34,7.35,2.75.33,3.54-3.34,4.25-6.51,4.54-15.91,1.48-31.9,2.45-47.71,4.68-41.82,5.91-82.29,16.72-119.59,37.06-11.47,6.26-21.78,14.66-32.61,22.09-2.12,1.45-4.2,2.97-6.3,4.46,13.28-17.18,30.35-29,49.25-38.53ZM391.15,193.17c-2.45,7.22-4.76,14-7.11,20.92-3.57-3.5,1.64-18.75,7.11-20.92ZM409.59,180.17c5-5.95,10.9-11.15,16.7-17,15.01,15.06,29.97,29.85,33.54,51.93,4.04,25-12.65,45.42-30.07,53.61-5.29,2.49-10.42,1.11-15.23-1.71-15.44-9.07-22.2-23.43-23.7-40.48-1.62-18.45,7.55-33,18.76-46.36ZM453.36,147.23h27.07c-4.72,8.12-8.65,14.88-12.58,21.65.23.23.45.46.68.69,2.38-2.63,5.14-5.03,7.05-7.97,1.97-3.03,3.35-6.52,4.58-9.95,1.41-3.92,3.6-4.9,7.65-2.51-.74,3.18-1.53,6.53-2.3,9.87-1.46,6.3-1.48,6.35,4.93,8.08,2.89.78,5.99.94,8.74,2.02,5.42,2.13,7.92-.4,9.66-5.07,1.39-3.72,3.07-7.33,4.99-11.87,10.03,2.82,20.1,5.53,30.07,8.59,1.24.38,2.87,2.71,2.69,3.88-.71,4.51,1.55,10.31-4.63,12.82,3.06,2.45,5.32,1.62,5.94-2.07.71-4.22.75-8.55,1.08-12.84,10.13,1.84,11.89,5.57,7.94,17.82-4.52-3.99-1.41-9.79-3.91-13.85-.09.09-.23.18-.25.28-1.63,11.79-1.65,11.83,9.22,16,3.72,1.43,7.47,2.83,11.33,3.8,1.52.38,3.35-.45,4.78-1.6-2.95-.46-6.03-.52-8.81-1.45-8.01-2.68-9.36-4.2-8.89-12.68.33-6.05-2.21-8.5-7.59-10.14-31.38-9.59-63.26-15.99-96.2-16.14-.65,0-1.29-.06-1.93-.09-.24-7.51.27-7.92,7.2-7.54,42.65,2.35,83.79,11.3,122.83,28.79,18.25,8.17,35.79,17.76,50.8,31.35,9.22,8.35,18.44,16.68,27.86,24.8,4.23,3.64,4.89,7.51,2.53,12.34-.93,1.9-1.47,4-2.24,6.17-4.74-4.45-9.17-8.6-13.72-12.87,1.3-4.22,2.69-8.73,4.08-13.25-.41-.14-.83-.27-1.24-.41-1.44,4.22-2.87,8.44-4.66,13.68-5.39-4.81-10.33-8.75-14.58-13.32-1.14-1.22-.49-4.44-.09-6.64.34-1.9,1.5-3.64,2.27-5.4,4.13,3.7,8.1,7.25,12.08,10.81.33-.34.65-.68.98-1.02-1.83-6.8-9.59-8.03-13.36-13.51-2.54,4.24-4.89,8.16-7.29,12.19.83,1.56,1.82,3.41,2.81,5.26-.24.26-.48.52-.72.78-4.86-2.94-9.7-5.89-14.57-8.81-14.25-8.55-11.29-3.6-6.02-18.83.32-.93.92-1.76,1.92-3.61-15.46-7.03-30.77-14-45.9-20.89.41,3.41.87,5.9.97,8.41.24,5.91,2.9,8.17,9.58,7.18-2.09-.97-3.62-1.68-5.15-2.4.07-.32.14-.63.21-.95,1.9.29,3.81.58,5.97.92-2.97-2.27-5.82-4.45-8.67-6.63.22-.42.45-.83.67-1.25,2.18.83,4.39,1.57,6.53,2.49,9.5,4.13,19.03,8.2,28.41,12.59,1.23.58,2.22,2.85,2.31,4.39.11,1.89-.82,3.85-1.34,5.78-1.15,4.26-3.55,5.23-7.88,3.95-18.68-5.51-37.42-10.78-56.19-15.99-25.97-7.21-52.56-10.35-79.42-11.59-3.49-.16-7.03-.24-10.43-.93-1.33-.27-2.34-2.14-3.5-3.28,1.39-.81,2.71-2.14,4.17-2.31,3.13-.36,6.34-.11,9.49-.49-13.25-1.81-14.82-5.39-7.99-17.19ZM487.91,158.99c.95-3.17,1.79-6.36,2.86-10.22,6.65,1.27,13.07,2.5,20.18,3.86-2.04,4.92-2.92,9.71-5.63,12.96-4.43,5.31-9.63-.07-14.49-.6-3.59-.39-3.81-3.04-2.92-6ZM455.22,174.67c40.39-.17,79.58,7.2,117.67,20.09,17.76,6.01,35.29,13.06,52.18,21.18,18.68,8.98,34.28,22.25,45.96,39.76,5.89,8.83,12.83,17.04,18.01,26.26,3.74,6.66,5.37,14.5,7.94,21.82-.45.16-.9.31-1.34.47-.66-1.79-1.45-3.54-1.97-5.37-6.07-21.33-19.45-37.66-35.64-52.02-23.63-20.96-51.48-34.23-81.26-43.72-38.47-12.26-77.89-19.36-118.29-20.37-5.83-.15-9.21-2.6-12.69-8.08,3.64,0,6.54.01,9.44,0ZM682.37,259.83c1.23-2.22,1.73-4.85,2.53-7.3,2.26,7.59,4.51,15.17,6.77,22.76-.35.12-.71.25-1.06.37-1.89-4.94-3.78-9.87-5.68-14.81-.22.07-.44.14-.66.21v7.08c-3.14-2.35-3.83-4.82-1.9-8.3ZM458.03,192.47c2.79,0,4.84-.07,6.88.01,39.58,1.57,77.95,9.34,115.27,22.48,23.49,8.26,45.96,18.68,66.47,32.89,14.11,9.78,25.96,21.86,34.48,36.94,1.47,2.6,2.59,5.39,3.79,8.13.31.7.32,1.53.11,2.54-10.33-13.74-21.54-26.48-36.24-35.68,18.58,16.23,35.04,33.94,42.24,59.09-3.72-6.33-6.86-12.28-10.56-17.86-17.5-26.46-41.43-45.01-70.23-58.05-27.92-12.65-56.79-21.91-86.87-27.55-17.62-3.3-35.12-2.68-52.54,1.41-1.45.34-2.95.44-4.42.66-.39-.53-.78-1.06-1.17-1.58,1.24-.82,2.4-2.2,3.73-2.38,6.42-.89,12.89-1.46,19.33-2.15,0-.4.02-.81.03-1.21-6.68,0-13.38.17-20.05-.12-1.69-.07-4.18-1.24-4.81-2.59-2.07-4.49-3.46-9.29-5.46-14.98ZM480.44,245.88c23.9-2.8,46.5.36,66.03,15.97,9.82,7.85,14.89,18.54,18.42,30.2,2.91,9.61,6.68,18.59,16.68,23.06,2.26,1.01,4.56,1.95,7.65,3.26-10.72,1.43-16.42-4.33-20.57-12.09-2.97-5.57-5.24-11.51-7.95-17.22-10.77-22.68-28.99-34.89-53.62-38.19-14.09-1.89-27.92-1.95-41.06,4.54-.52.26-1.23.15-2.9.31,5.42-5.33,10.84-9.07,17.34-9.83ZM570.7,282.34c9.06,12.15,15.97,24.81,31.01,28.37-15.79,2.01-28.62-9.44-31.01-28.37ZM584.17,281.08c-.64-.67-1.16-1.46-1.53-2.46,12.66,9.27,25.64,17.67,41.97,18.53-2.69-.75-5.47-1.3-8.06-2.31-2.76-1.08-5.66-2.21-7.97-4-7.34-5.71-14.67-11.47-21.58-17.69-18.2-16.39-40-24.75-63.6-29.32-19.29-3.73-38.67-4.13-58.32-2,14.66-13.16,32.77-13.23,50.87-13.71-15.75-6.23-31.6-4.67-47.68-.12-1.11-4.65,1.81-5.37,4.47-6.14,16.61-4.83,33.46-5.57,50.47-2.6,31.4,5.48,61.22,15.95,89.98,29.4,14.08,6.59,26.81,15.52,37.53,26.99,1.56,1.67,2.93,3.52,4.39,5.29-.26.41-.52.82-.78,1.23-2.63-1.34-5.44-2.41-7.85-4.06-9.74-6.68-18.98-14.18-29.11-20.2-17.33-10.29-36.48-16.16-56.1-20.45-.76-.17-1.55-.2-1.27-.17,11.94,6.3,24.95,12.52,37.29,19.88,12.38,7.38,24.07,15.9,36.07,23.93l-.6,1.97c-8.98-1.36-17.96-2.72-26.87-4.07,6.58,5.34,14.72,6.77,22.99,7.55,6.8.64,13.63.91,20.46,1.18,16.36.63,30.29,18.63,32.27,32.16-1.99-1.71-3.69-2.99-5.18-4.47-11.43-11.37-25.71-14.24-41-13.19-20.69,1.42-37.32-6.47-51.26-21.13ZM659.63,326.31c-8.19,2.39-15.93,1.78-23.64-1.97,1.95-4.47,4.16-6.86,9.22-4.48,4.72,2.22,9.75,3.76,14.42,6.45ZM630.07,312.08c2.23.31,4.18,2.57,6.27,3.94-1.34,1.89-2.32,4.31-4.1,5.56-5.45,3.82-11.23,7.15-16.84,10.73-10.25,6.55-21.49,8.63-33.45,7.55-.82-.07-1.65-.25-2.45-.47-.27-.07-.46-.43-1.4-1.36,13.64-2.92,23.53-11.02,33.18-19.59,5.33-4.73,11.64-7.35,18.8-6.36ZM600.76,351.79c9.22,1.68,17.81,7.22,28.04,5.34-6.08-2.93-11.8-5.69-17.53-8.45.19-.67.37-1.35.56-2.02,12.36,4.61,24.63,6.68,36.65-.39-9.61,1.21-19.01,1.28-27.79-3.64.23-.58.29-1.08.47-1.13,5.36-1.53,9.41-4.41,9.96-10.7,13.05,4.13,25.03,1.8,37.03-1.49,5.11-1.4,10.38-2.54,15.65-2.95,9.72-.76,17.85,4.77,21.36,14.64-2.17-1.18-3.71-1.83-5.06-2.78-6.32-4.42-12.86-4.15-19.33-.67-6,3.23-11.84,6.77-17.68,10.3-15.63,9.43-32.32,14.13-50.57,10.71-4.29-.81-8.3-3.17-12.44-4.81.23-.65.46-1.31.68-1.96ZM646.91,368.88c.3-.56.59-1.11.89-1.67,12.87,6.14,26.47,6.16,40.39,5.46-14.14,13.01-39.42,13.12-47.57-3.19,5.36,3.16,9.94,5.85,14.51,8.54l.32-.47c-2.85-2.89-5.69-5.78-8.54-8.67ZM688.71,346.85c-3.4.79-6.79,1.58-10.19,2.37-.14-.16-.28-.32-.42-.49,1.81-1.13,3.52-2.47,5.45-3.33,3.11-1.39,6.39-4.75,9.71-.66,2.89,3.56,1.82,10.8-1.95,13.54-6.16,4.48-13.23,5.07-20.47,3.85-2.83-.48-5.53-1.72-8.29-2.62l.3-1.21c8.76-3.34,17.52-6.67,26.28-10.01-.14-.48-.28-.97-.41-1.45ZM676.67,384.56c7.02-3.37,13.54-7.77,20.33-11.61,5.64-3.19,11.63-5.45,18.09-3.19,2.64.93,5.38,2.83,6.98,5.07,1.21,1.69,1.51,5.01.65,6.88-.63,1.38-3.76,1.74-5.84,2.29-3.64.96-7.52,1.27-10.96,2.67-5.22,2.13-10.1,5.09-15.23,7.47-23.7,10.99-45,2.31-60.62-15.83-.15-.17-.02-.58-.02-1.29.66.45,1.19.71,1.59,1.1,13.46,13,28.73,14.25,45.03,6.44ZM625.46,382.86c4.93,3.31,9.86,6.61,14.78,9.92,17.35,11.68,35.29,13.78,54.06,3.47,4.81-2.64,9.64-5.23,14.54-7.69,2.26-1.14,4.7-1.92,7.39-2.12-10.16,13.97-24.33,20.26-41,21.34-21.23,1.37-37.82-7.33-50.71-23.51.31-.47.63-.94.94-1.41ZM708.46,423.61c.31-.31.61-.62.92-.94,1.3,1.01,2.87,1.8,3.84,3.06,4.55,5.92,9.13,11.84,13.33,18.02,3.17,4.68,5.69,9.79,8.65,14.62,8.08,13.2,20.56,17.63,35.25,12.59,1.26-.43,2.45-1.12,3.74-1.4,2.38-.52,4.81-.82,7.21-1.22-.11,3.48,1.04,7.77-.57,10.27-5.01,7.77-13,10.98-22.06,9.61-5.47-.83-10.69-3.28-16.72-4.59,3.04,2.11,5.82,4.81,9.15,6.22,11.91,5.03,27.19.18,33.8-10.9,1.62-2.71,2.27-6.76,1.69-9.88-1.75-9.4-7.97-15.49-16.56-19.24-6.23-2.72-12.49-5.34-18.72-9.22,4.24-.67,8.47-1.87,12.71-1.89,7.09-.03,14.45-.35,21.23,1.33,11.06,2.73,16.12,12.58,13.61,23.68-3.84,16.99-22.84,31.45-40.3,30.68-7.1-.31-12.99-2.9-16.84-9.1-2.55-4.1-5.36-8.12-7.25-12.52-6.77-15.79-14.46-31-26.44-44.98,1.87.96,2.74,1.41,3.96,2.03-1.38-2.37-2.5-4.3-3.63-6.23ZM825.09,338.79c-1.37-15.55-7.26-29.64-16.05-42.57-1.19-1.75-.94-4.45-1.49-6.69-.76-3.13-1.64-6.22-2.76-10.44,8.62,2.75,14.85,7.3,19.51,14.07,7.11,10.33,10.09,22.04,11.11,34.31,3.49,42.27-17.81,77.79-57.16,93.62-19.56,7.87-38.9,6.6-56.26-6.78-2.57-1.98-4.51-4.77-6.74-7.18.37-.42.73-.85,1.1-1.27,6.61,3.72,13.21,7.44,19.82,11.16.11-.22.21-.44.32-.66-3.89-2.83-7.85-5.56-11.63-8.53-1.54-1.21-3.02-2.78-3.85-4.5-.61-1.26-.13-3.05-.13-4.61,1.49.1,3.14-.19,4.45.35,7.35,3.03,14.35,7.27,21.95,9.25,34.32,8.92,82.57-15.81,77.83-69.52ZM728.74,356.88c2.64,1.54,5.12,2.57,7.08,4.21,3.57,2.98,6.7,6.48,10.24,9.5,15.41,13.15,32.52,12.2,46.65-2.47,1.46-1.52,2.85-3.1,4.55-4.96-3.09,15.94-22.03,28.79-38.24,26.38-16.05-2.39-31.66-18.52-30.28-32.66ZM771.7,248.76c8.48,1.62,14.79,6.61,19.51,13.65,13.07,19.52,12.86,51.77-.38,71.22-10.11,14.84-29.75,22.09-48.17,17.78-13.45-3.15-23.48-9.79-30.36-20.72,13.03,11.12,27.53,14.32,43.7,8.62-15.9,3.5-29.21-1.13-40.22-13.18,3.45,1.01,6.9,2.01,10.34,3.04,23.19,6.95,43.29.08,56.48-19.32,11.26-16.57,5.3-39.19-12.7-48.12-2.22-1.1-4.5-2.06-7.31-3.33,1.53-3.01,2.64-5.98,4.47-8.41.78-1.03,3.18-1.51,4.65-1.23ZM710.5,304.68c15.7,10.63,32.32,17.26,51.82,11.08-7.05,11.28-23.04,13.56-38.9,5.92-10.56-5.09-15.08-10.74-12.92-17.01ZM703.86,172c13.43-4.69,26.02-2.39,37.58,5.42,27.97,18.89,34.12,74.75-3.91,95.42-8.95,4.86-18.6,7.07-28.7,7.77-3.35.23-4.94-1.2-5.31-4.88,17.47.73,32.57-4.17,43.53-18.51,6.71-8.78,9.72-18.73,9.25-29.94-5.32,17.12-14.72,30.27-33.09,34.6-7.1,1.67-14.06,1-21.54-2.78,1.9-.89,2.85-1.34,4.36-2.05-10.84-4-15.14-12.91-19.27-23.93,9.81,11.33,21.36,13.13,33.8,10.75,12.22-2.34,22.88-14.05,24.91-26.47,2.02-12.39-4.17-26.28-14.97-32.64-9.87-5.82-19.97-5.55-29.93,0-8.45,4.71-13.19,16.77-6.72,25.29.57.75.86,1.72,1.52,3.1-7.72.18-12.48-4.6-12.86-12.12-.61-12.05,8.5-24.54,21.34-29.03ZM694.6,231.61c12.89,3.21,24.98,1.87,36.31-5.34-3.73,7.48-9.53,12.25-17.72,13.46-7.63,1.12-13.87-1.71-18.6-8.12ZM466.54,74.48c.02-.81.13-1.63.29-3.48,6.84.93,13.53,1.63,20.15,2.78,57.98,10.1,108.45,34.54,149.03,77.96,15.12,16.17,25.94,34.96,34.37,55.26.44,1.05.7,2.17,1.04,3.26-.31.22-.61.44-.92.66-2.01-2.82-3.88-5.75-6.04-8.44-12.61-15.69-24.4-32.16-38.13-46.81-29.78-31.77-66.92-51.93-108.55-63.68-14.36-4.05-29.21-6.5-43.93-9.14-7.36-1.32-7.46-.76-7.29-8.38ZM464.53,101.2c.32-1.11,3.01-2.2,4.57-2.15,6.29.19,12.56.82,18.84,1.29.09-.54.18-1.08.26-1.63-6.01-.98-12-2.19-18.05-2.84-3.48-.37-4.99-1.43-4.89-5.18.1-3.75,1.29-5.19,5.08-4.36,17.7,3.85,35.76,6.47,53.06,11.67,33.21,9.97,63.27,26.24,89.14,49.69,11.78,10.68,22.01,22.63,29.61,36.79-14.06-9.57-25.86-21.62-37.72-33.74,2.62,3.26,5.23,6.52,7.85,9.78-.33.4-.66.8-.99,1.2-3.95-2.93-7.91-5.85-11.85-8.79-12.01-8.94-23.7-18.37-36.14-26.67-8.5-5.67-18.04-9.76-27.41-14.05,22.05,12.76,44.39,25.01,62.15,43.68-.23.48-.45.96-.68,1.43-1.85-.7-3.72-1.36-5.56-2.1-19.76-7.96-39.33-16.45-59.33-23.78-21.66-7.93-44.13-12.8-67.29-13.86-1.12-.05-2.23-.36-4.02-.67,1.1-5.42,1.91-10.67,3.38-15.72ZM466.76,123.53c37.75,1.25,72.95,12.2,107.31,27.17,24.46,10.66,47.54,23.24,67.29,41.37,14.99,13.77,29.73,27.81,38.07,46.97,1.93,4.42,3.64,8.93,5.45,13.41,0,0,0,.02,0,.02-1.76,2.55-3.55,5.12-5.33,7.7-.17,0-.35-.01-.52-.02,1.21-3.92,2.41-7.84,3.62-11.76-.6-.18-1.21-.35-1.81-.52-1.18,3.17-2.35,6.35-3.8,10.25-4.03-5.01-7.86-9.56-11.38-14.34-.61-.83-.36-2.89.25-3.95,5.18-9.02,3.15-15.78-4.3-23.19-33.78-33.57-73.79-55.88-119.38-68.87-27.65-7.87-55.63-13.45-84.42-14.12-.75-8.4,1.06-10.37,8.94-10.11ZM420.55,13.66c7.03-7.48,6.85-7.53,13.61-.03,23.45,26.04,30.46,56.37,22.81,90.1-3.93,17.35-9.13,34.41-13.75,51.6-1.07,3.96-2.14,7.92-3.27,12.11-4.73-1.13-6.53-3.84-7.49-8.02-.78-3.41-2.82-6.53-4.77-10.81-2.56,5.42-4.33,9.17-6.11,12.93-.71-.05-1.41-.1-2.12-.14-1.67-5.96-3.55-11.88-4.84-17.92-.25-1.19,1.59-3.06,2.81-4.27,1.97-1.94,4.21-3.59,6.35-5.37,3.92,6.2,7.84,12.4,12,19,1.67-5.37,3.41-10.86,5.09-16.38,6.22-20.48,10.73-41.32,10.58-62.8-.14-20.66-9.37-37.8-22.71-52.99-.42-.48-1.05-.77-1.87-1.35-11.72,12.31-19.62,26.45-22.34,43.24-3.06,18.86-1.04,37.59,2.44,56.13,2.72,14.52,6.61,28.82,9.69,43.28.38,1.8-.98,3.98-1.53,5.98l-1.85-.11c-.72-1.39-1.59-2.73-2.13-4.19-9.56-25.75-15.93-52.29-17.48-79.71-1.54-27.21,8.3-50.51,26.89-70.28ZM427.31,33.53c-4,7.6-7.66,14.21-10.9,21.03-.56,1.18.7,3.22,1.12,4.87l1.46-.02c2.69-4.91,5.38-9.82,8.35-15.25,5.55,7.72,9.58,16.04,10.92,25.23.43,2.94-1.79,6.72-3.73,9.45-3.16,4.44-7.09,8.33-10.66,12.42-1.66-3.02-3.81-6.94-5.97-10.86l-1.62.84c2.61,5.21,5.21,10.42,8.08,16.15,4.39-5.79,8.74-11.53,13.17-17.39,2.15,7.52-2.7,18.63-12.15,28.2q.95,1.56,11.23-3.4c-.83,11.47-7.6,20.33-10.28,31.13-1.16-.97-1.86-1.56-2.55-2.14-2.64-5.83-5.28-11.66-8.03-17.74-2.1,7.84,4.28,16.12-.2,23.64-.65.02-1.3.05-1.94.07-1.51-8.58-3.23-17.13-4.5-25.74-2.69-18.19-4.39-36.47-.51-54.68,2.83-13.29,9.55-24.68,19.01-35.28,1.72,1.86,3.27,3.28,4.51,4.93,14.06,18.71,19.51,39.65,15.15,62.68-3.19,16.83-7.3,33.5-11.03,50.23-.13.59-.61,1.1-.93,1.65-.53.03-1.05.07-1.58.1-.34-2.47-1.28-5.03-.93-7.39,2.63-17.44,5.72-34.81,8.28-52.27,2.66-18.18-2.04-34.54-13.79-50.47ZM389.82,141.29c.37,4.24-2.79,3.45-5.01,3.63-24.61,1.97-48.97,5.36-72.66,12.62-6.02,1.85-11.99,3.88-18.44,5.97.78,1.46,1.71,2.39,1.7,3.3-.04,4.19,1.26,10.48-.89,12.1-4.02,3.04-10.05,4.12-15.33,4.4-1.78.09-4.01-4.6-5.51-7.38-.19-.36,2.64-2.8,4.38-3.63,2.79-1.33,5.84-2.13,8.77-3.15.36.5.72,1,1.09,1.5-1.3,1.06-2.66,2.05-3.87,3.2-1.71,1.63-6.59.28-5.24,4.25.6,1.78,4.41,2.48,6.76,3.67.24-.56.48-1.12.73-1.68-1.18-.24-2.36-.47-3.55-.71-.09-.32-.18-.64-.27-.96,1.56-.55,3.07-1.33,4.67-1.62,4.46-.82,5.58-3.45,4.81-7.61-.55-3.01-2.04-4.07-4.87-3.08-5.18,1.8-10.4,3.53-15.48,5.57-13.78,5.53-27.08,12-38.95,21.07-.99.76-1.84,1.71-2.74,2.58,0,0,0,0,0-.01,0,0,0,.01,0,.01-.04.04-.07.07-.11.11.04-.02.08-.03.12-.05.57,2.99,1.06,5.98,1.85,8.89.47,1.72,1.41,3.31,2.18,5.07-6.88,3.96-13.61,7.83-20.76,11.95-1.79-3.17-3.35-5.92-4.91-8.67-.34.15-.69.3-1.03.45,1.29,3.67,2.59,7.34,3.94,11.17-5.95,4.04-11.9,8.08-17.85,12.11l-.65-.89c3.13-2.28,6.23-4.6,9.4-6.83,3.02-2.13,4.07-4.59,3.17-8.48-2.4-10.32-2.15-10.3,6.4-16.23,8.33-5.78,16.45-11.89,24.84-17.58,36.8-24.97,77.88-38.63,121.46-45.5,8.55-1.35,17.18-2.12,25.77-3.19,3.02-.38,5.69-.55,6.06,3.67ZM379.93,74.18c.17-1.1,2.41-1.88,3.72-2.8.39.39.78.79,1.16,1.18-.17,2.47-.05,5.01-.67,7.35-.21.78-2.33,1.05-3.58,1.55-.27-2.44-.99-4.94-.63-7.28ZM383.1,86.59c.16,2.9.28,5,.38,6.94-14.14,2.92-27.93,5.76-41.71,8.6.1.53.19,1.06.29,1.59,5.77-.9,11.53-1.89,17.31-2.68,5.11-.7,10.24-1.4,15.39-1.68,1.77-.1,3.6,1.06,5.81,1.79.12-.15.85-.7,1.63-.75.57-.04,1.58,1.2,1.77,2.01,1.11,4.81,2.04,9.67,3.07,14.66-7.23,1.44-14,2.79-20.78,4.14.01.14.02.27.03.41,4.74-.52,9.48-1.05,14.22-1.57l.18,1.05c-2.2.43-4.39,1.14-6.6,1.25-30.47,1.49-58.48,12.28-86.47,22.99-12.74,4.87-25.16,10.6-37.72,15.93-1.91.81-3.84,1.58-6.07,1.86,9.77-13.21,22.36-23.11,36.36-31.01,13.98-7.88,28.52-14.75,42.74-22.36-4.25,1.73-8.59,3.27-12.74,5.23-20.96,9.88-41.82,20.08-59.84,34.86-12.34,10.13-23.81,21.32-35.7,32-1.45,1.3-3.07,2.41-5.05,3.1,19.26-29.31,44.92-51.71,75.68-68.11,30.44-16.23,62.43-27.99,97.83-30.25ZM182.32,202.26c10.7-24.64,27.83-44.45,47.17-62.57,39.98-37.46,88-57.87,141.5-66.57,2.28-.37,5.91-2.55,6.73,2.2.93,5.38-.45,7.47-5.65,8.29-30.03,4.74-58.64,14.11-85.59,27.97-42.42,21.82-75.74,53.89-102.15,93.37-1.26,1.88-2.6,3.7-3.91,5.54-.39-.2-.78-.39-1.16-.59,1.01-2.55,1.95-5.13,3.05-7.65ZM201.07,288.56c12.88,2.34,23.21-1.63,35.72-11.91-9.26,3.33-18.07,6.5-26.89,9.67-.32-.67-.63-1.34-.95-2.01,25.77-16.25,52.13-31.49,79.75-45.56-21.67,3.74-40.41,13.51-58.62,24.6-.25-.4-.49-.79-.74-1.19,7.25-5.24,14.5-10.49,21.75-15.73-21.65,8.79-40.84,21.87-59.75,35.42-.37-.4-.74-.8-1.12-1.2.95-1.13,1.85-2.3,2.86-3.37,13.65-14.64,30.26-25.05,48.41-32.96,28.98-12.62,59-22.03,90.47-25.9,9.86-1.21,20-1.13,29.93-.43,8.61.61,16.35,4.04,20.99,13.97-7.99-1.91-14.79-3.74-21.69-5.11-6.98-1.38-14.05-2.38-21,.86,16.97.97,32.27,6.03,45.07,17.74-3.96-.95-7.88-2.28-11.89-2.79-28.89-3.69-56.72.73-83.88,10.83-15.83,5.88-30.07,14.06-42.36,25.78-10.07,9.6-21.86,16.3-35.75,18.87-.61.11-1.15.57-2.46,1.24,16.79.23,30.04-7.07,42.84-15.64.33.51.66,1.02,1,1.53-4.49,3.42-8.73,7.24-13.52,10.16-7.82,4.75-16.55,6.89-25.73,7.14-6.16.17-12.34.21-18.47.76-11.45,1.02-15.42,2.85-26.4,11.55,2.2-3.42,3.79-5.88,5.37-8.33-.24-.25-.47-.5-.71-.75-1.9,2.05-3.9,4.02-5.68,6.18-1.78,2.16-3.33,4.49-5.56,7.53,5.16-20.91,23.69-33.72,39.01-30.94ZM106.09,182.74c13.07-12.82,34.18-15.77,49.46-6.91,11.03,6.4,15.92,16.84,12.93,27.58-1.58,5.66-5.1,8.45-11.32,8.73.34-1,.51-1.97.98-2.77,6.06-10.24-1.31-21.71-9.32-25.53-17.31-8.26-36.53,3.58-38.52,23.92-2.16,22.07,18.1,39.79,41.26,36.09,1.27-.2,2.54-.42,4.54-.76-2.49,9.86-9.37,13.24-17.57,15.54,2.08.18,4.17.37,6.8.6-19.04,9.12-41.54-9.31-45.43-36.44-4.09,9.74,1.5,29.96,9.83,38.4,10.38,10.51,23.18,14.32,37.41,15.16.02.43.05.86.07,1.29-1.72.38-3.46,1.13-5.17,1.08-21.72-.63-37.65-11.11-46.94-30.26-10.92-22.52-5.87-49.19,10.97-65.72ZM155.98,233.6c-2.92,5.61-7.23,6.66-11.79,6.25-8.35-.75-14.84-4.87-19.32-12.3,9.47,5.59,19.49,8.19,31.12,6.05ZM57.16,286.26c2.91-12.41,8.6-23.41,18.96-31.46.26-.2.51-.44.79-.61,10.22-6.43,10.75-6.31,14.75,5.26-3.35,1.74-6.68,2.98-9.45,4.99-11.6,8.4-15.61,20.32-13.32,33.87,3.92,23.18,25.42,37.5,48.45,33.01,4.22-.82,8.37-2.05,12.92-3.18.5,3.99-1.88,5.81-4.72,7.23-13.87,6.9-27.63,6.09-41.27-.71-1.43-.71-2.8-1.54-4.34-1.83,12.57,9.63,26.89,11.21,43.86,8.45-1.64,2.38-2.3,4.27-3.63,5.12-14.61,9.39-36.69,6.82-49.28-6.05-14.95-15.28-18.48-33.81-13.72-54.09ZM60.23,372.49c7.1,7.56,15.9,9.12,25.66,6.49,9.54-2.57,17.47-7.99,24.98-14.16,2.8-2.3,5.67-4.52,8.72-6.95.39.83.84,1.35.72,1.6-5.97,12.86-12.6,25.06-27.63,29.5-17.77,5.25-39.94-9.23-41.04-27.24,3.02,3.83,5.55,7.53,8.59,10.77ZM26.1,339.31c2.36-11.9,6.09-23.19,17.15-30.58-6.71,16.52-13.81,32.81-11.81,51.75-4.83-3.59-7.05-12.58-5.35-21.17ZM30.18,395.37c-6.68-9.06-17.58-23.86-14.06-41.37.77-3.82,2.09-7.09,3.51-9.8.05.49.12.97.2,1.45,1.45,8.49,3.38,17.12,6.63,25.05,9.69,23.64,27.42,37.65,53.02,40.7,14.86,1.77,28.67-2.65,42.08-8.61,1.58-.7,3.6-.43,5.42-.62-.54,2.1-.43,4.87-1.75,6.15-3.05,2.96-6.53,5.77-10.33,7.64-15.62,7.69-31.78,7.69-48.13,2.4-1.56-.51-3.13-1.01-4.69-1.52,22.18,11.2,43.78,7.84,65.14-3.13-5.51,7.37-12.99,11.02-21.36,12.83-10.41,2.25-20.67,2.22-30.4.08-26.24-5.76-41.07-25.56-45.28-31.27ZM29.46,457.49c-5.63,12.11-11.19,24.08-16.36,35.2-4.2-12.23,3.05-28.87,16.36-35.2ZM39.47,526.86c-3.72,2.93-7.55,3.99-11.97,1.52-2.73-1.53-2.74-3.49-2.08-6.29.57-2.45.35-5.24-.12-7.76-1.8-9.57-2.7-19.11.16-28.6.72-2.38,2.17-4.53,3.28-6.78.63.15,1.26.3,1.89.46-2.15,15.11,3.87,28.08,10.18,40.94,1.31,2.66,1.04,4.66-1.33,6.52ZM33.75,447.45c-.16-.39-.32-.78-.48-1.17,5.54-3.53,10.15-9.03,18.28-7.04l-17.8,8.21ZM65.75,588.96c-19.74,11.64-26.53,30.31-19.97,52.27.61,2.05,1.36,4.06,1.61,6.3-4.54-3.94-7.12-8.96-7.69-14.99-2.51-26.68,12.27-48.07,39.11-56.63,4.92-1.57,9.93-2.85,14.81-4.52,2.85-.98,5.53-2.46,8.29-3.72-.15-.46-.31-.92-.46-1.38-2.35.41-4.73.75-7.06,1.25-12.64,2.74-24.9,6.76-35.42,14.37-16.51,11.95-23.95,28.5-22.73,48.88.04.67.11,1.33.13,1.99,0,.32-.09.65-.34,2.27-1.23-2.27-2.13-3.62-2.73-5.1-4.45-10.95-5.8-22.2-2.94-33.78,6.5-26.32,20.82-45.81,47.54-54.55,6.48-2.12,12.8-4.75,19.31-6.78,1.94-.6,4.27.08,6.42.17-.59,2.14-.85,4.48-1.9,6.37-.72,1.29-2.5,2.07-3.91,2.88-2.7,1.55-5.48,2.96-9.39,5.04h4.95c-5.36,4.42-9.84,8.12-15.41,12.7,9.67-2.2,16.76-6.55,23.36-11.53,19.85-14.96,29.1-34.66,27.22-59.84-.67-8.96-.02-18.4,2.08-27.12,3.65-15.13,14.07-24.08,29.57-26.87,5.57-1,11.19-1.91,16.61-3.47,10.55-3.03,20.01-8.12,27.68-16.23-4.45,10.52-17.49,21.26-32.25,26.69h10.94c.15.42.3.83.45,1.25-3.31,1.55-6.52,3.42-9.96,4.58-5.2,1.76-10.56,3.01-15.85,4.5-15.84,4.46-24.63,14.93-24.98,31.45-.33,15.54-.12,31.02-6.73,45.58-.09.2.23.58.49,1.18,4.98-1.52,9.89-2.75,11.35-9.02,1.4-5.99,3.28-11.86,4.99-17.78.49-1.7,1.11-3.36,2.15-4.88-.72,16.96-4.42,33.11-13.82,47.48-9.96,15.22-23.86,25.1-41.32,30.51-8.36,2.59-16.69,6-24.21,10.43ZM135.12,483.94c2.22-13.89,10.06-22.36,23.84-25.4,8.42-1.86,17.03-3.43,25.01-6.52,6.33-2.45,11.83-7.03,17.84-10.75-2.88,5.84-6.98,10.73-13.06,12.91-7.47,2.67-15.3,4.33-22.96,6.47-4.95,1.38-10.09,2.36-14.77,4.37-8.32,3.58-13.03,10.57-15.9,18.92ZM116.45,657.34c17.05-11.96,25.6-29.19,32.13-48.04,5.68,17.87-12.12,44.55-32.13,48.04ZM99.99,657.62c-5.01.07-8.88-2.13-12-6.22,15.52-4.06,23.3-16.49,30.6-28.54,5.61-9.27,8.86-19.97,13.09-30.06.7-1.66,1.07-3.45,1.6-5.18.49,0,.98,0,1.47,0v27.42c.22-.07,1.15-.34,2.46-.73-1.53,15.03-7.34,27.61-19.13,37.09-5.24,4.21-11.39,6.14-18.09,6.24ZM124.09,732.22v24.34c.37.03.75.06,1.12.09.75-4.19,1.54-8.38,2.26-12.58.79-4.6,1.17-9.29,2.37-13.77,1.11-4.13,3.09-8.03,5.56-11.86-9.48,26.79,4.08,48.35,16,71.44-28.8-14.14-40.21-38.09-27.31-57.67ZM136.82,735.65c2.43,8.7,3.99,18.93,8.16,27.94,4.1,8.86,10.85,16.48,15.91,23.88-17.16-7.42-28.94-32.58-24.07-51.82ZM168.88,767.39c-7.74-9.26-5.9-34.63,3.84-41.65-.71,3.33-1.28,6.02-1.85,8.71.27.1.53.2.8.3,1.9-3.64,3.79-7.27,5.69-10.91.44.19.88.39,1.32.58-3.27,14.36-6.54,28.72-9.79,42.97ZM173.2,673.4c-7.76,5.04-15.41,10.89-23.99,13.89-23.38,8.17-39.3,23.1-47.12,46.63-.14.41-.57.72-1.27,1.58-1.28-11.43,1.8-21.34,7.69-30.1,5.68-8.44,12.47-16.13,19.21-24.69-24.33,14.99-31.72,37.83-32.8,64.07-3.07-7.06-2.71-14.45-1.69-21.71,3.35-23.82,15.02-42.39,35.71-55.03,2.27-1.39,4.47-2.92,6.81-4.18,18.8-10.13,27.89-26.29,30.07-47.14,1.34-12.78.08-25.26-2.35-37.74-.43-2.21-.59-4.46-.21-6.82,9.06,14.47,9.42,30.91,10.8,46.85v-25.48c10.73,36.86-1.99,65.72-30.61,89.38,13.74-2.65,26.2-7.41,36.61-17.12-2.25,2.58-4.08,5.82-6.85,7.61ZM172.31,529.79c-1.34-2.3-3.15-4.41-4.01-6.87-1.11-3.15-1.48-6.56-2.16-9.86.43-.07.85-.14,1.28-.21,8.07,9,16.14,18,24.48,27.3,3.13-2.15,2.29-5.68.46-8.61-1.81-2.9-4.36-5.47-6.98-7.71-7.83-6.7-11.44-15.33-12.34-25.33-.55-6.15,1.43-10.21,6.3-12.19,1.36-.55,3.27-.42,4.64.13.49.2.51,2.65.11,3.87-4.94,15.05-2.12,24.08,11.07,33.11,12.81,8.77,17.54,22.24,20.82,36.21,1.18,5.02-.41,10.76-1.05,16.13-.5,4.19-3.63,4.37-6.79,3.41-7.91-2.4-12.31-8.41-16.12-15.36-6.3-11.49-13.1-22.7-19.71-34.02ZM234.98,725.93c-2.83,7.9-8.62,14.79-13.37,21.92-2.79,4.2-5.94,3.53-9.28,0-18.65-19.72-23.76-42.76-15.8-68.34,2.93-9.43,8.09-18.2,12.55-27.11.63-1.26,3.12-1.59,4.74-2.35-.34,1.64-.18,3.68-1.11,4.85-19.46,24.58-19.65,61.73-.32,84.76,4.56,5.43,5.76,5.57,10.21-.13,10.39-13.32,12.36-28.77,10.64-44.97-1.53-14.39-5.29-28.12-13.33-40.4-.4-.62-.64-1.34-.95-2.02.31-.18.63-.36.94-.53,2.53,4.2,5.41,8.23,7.54,12.62,9.53,19.68,15.26,40.17,7.53,61.68ZM253.77,788.85c0,8.11-10.18,18.74-19.91,21.01,8.27-5.15,15.8-10.95,19.91-21.01ZM214.63,659.22c0-.36,1.75-.67,2.63-.99,2.17,10.14,4.34,20.29,6.5,30.43l-.79.28c-1.23-2.78-2.46-5.55-3.69-8.33,3.52,15.36,3.49,30.62.05,45.56-.55-12.25-1.12-24.8-1.68-37.35h-2.37v36.39c-.89.04-1.78.09-2.67.13-1.49-10.23-2.99-20.46-4.42-30.27-2.9,6.81-2.39,12,3.56,33.94-13.24-13.3-12.75-49.59,1.27-66.16.56,5.45,1.07,10.32,1.48,14.28,0-5.41-.05-11.67.12-17.93ZM220.52,666.43c4.01,5.54,8.06,27.04,6.95,37.79-2.23-12.12-4.68-25.46-6.95-37.79ZM212.85,635.06c-6.59-2.8-10.59-15.06-7.04-21.22.42-.72,1.36-1.14,3-2.47-1.23,10.25-.89,18.93,11.6,20.29-1.3,4.62-4.36,4.76-7.56,3.4ZM211.7,591.15c2.19,7.74,4.37,15.47,6.56,23.21-5.02-6.91-7.21-14.65-6.56-23.21ZM195.87,806.18c-9.86-7.97-14.49-18.24-12.42-31.13,2.37,8.98,5.59,17.43,12.5,23.95-2.36-6.38-4.71-12.77-7.07-19.15.39-.2.78-.39,1.17-.59,9.8,17.16,21.68,30.88,44.47,28.4-6.55,1.42-13.1,2.85-20.04,4.36,5.39-.25,10.47-.49,15.56-.73-12.27,4.17-23.84,3.24-34.16-5.1ZM239.5,855.55c-9.59-1.09-20.19-12.29-20.35-21.82-.03-1.56.91-3.62,2.11-4.54.69-.53,3.1.38,4.2,1.3,14.25,11.92,19.32,13.02,37.89,7.66-2.65,9.96-14.56,18.46-23.84,17.4ZM256.9,869.77c4.94-3.71,12.34-8.08,18.23-13.95,12.14-12.11,15.47-27.18,9.9-43.28-4.11-11.86-9.65-23.26-15.1-34.6-2.86-5.95-6.9-11.32-10.46-17.03.43.14.96.16,1.28.42,15.24,12.89,28.52,27.28,32.17,47.78,5.63,31.65-11.11,54.61-36.02,60.66ZM293.74,842.27c5.16-20.97,3.94-31.54-6.54-60.93,13.37,8.04,17.35,41.24,6.54,60.93ZM245.42,623.28c-16.05-43.03-28.83-86.91-35.23-132.48-1.7-12.13-1.36-24.22,1.4-36.25,4.12-17.99,7.41-36.19,12.19-53.99,2.6-9.71,7.18-18.98,11.63-28.07,1.44-2.94,5.22-4.81,8.09-6.96,5.96-4.48,12-8.87,18.06-13.22,3.5-2.51,6.8-5.59,10.7-7.17,14.89-6.03,25.25-16.49,31.6-31.01,7.38-16.88,20.46-27.15,37.5-32.8,4.23-1.4,8.76-2.05,13.21-2.58,10.89-1.3,21.86-1.95,32.68-3.62,5.15-.8,10.03-3.32,16.47-5.57,12.56,10.23,26.99,11.1,41.27-1.39,1.01,1.07,1.41,1.39,1.67,1.8,4.51,6.79,9.5,7.95,15.69,2.97,10.02-8.05,20.87-12.79,34.08-11.14,25.64,3.22,39.25,15.78,43.41,41.37,1.81,11.11,6.79,19.76,16.39,25.5,2.01,1.2,4.33,1.89,6.65,2.59-3.61-4.39-7.42-8.65-10.46-13.4-3.56-5.56-7.08-11.45-9-17.7-7.03-22.86-21.96-36.29-45.49-40.31-2.75-.47-5.46-1.21-8.19-1.82-.04-.45-.08-.91-.13-1.36,3.56-.59,7.13-1.72,10.68-1.7,32.6.2,47.28,14.2,58.3,41.08,2.02,4.92,3.71,10.03,6.25,14.68,4.88,8.93,11.37,11.72,21.29,9.61,5.2-1.11,10.31-2.63,15.49-3.87,2.63-.63,5.31-1.04,8.14-.95-8.95,9.5-19.63,15.63-31.92,19.43-20.77,6.43-35.91-6.49-41.22-23.02-.86-2.69-1.38-5.49-2.09-8.23-4.98-19.17-19.22-31.61-38.84-33.82-12.2-1.37-23.8.57-34.78,7.59,2.62.25,5.27.84,7.87.69,11.94-.67,23.64-.04,34.69,5.21,11.11,5.28,19.45,13.18,24.25,24.71,2.49,5.99,5.37,11.81,8.1,17.7,2.83,6.1,7.87,9.91,13.84,12.34,11.22,4.56,22.63,8.66,33.87,13.16,2.39.96,4.55,2.67,6.59,4.3,3.12,2.49,5.7,5.84,9.12,7.71,5.68,3.11,8.6,7.63,10.44,13.64,1.44,4.73,3.99,9.14,6.22,13.61,14.39,28.81,21.77,59.32,21.44,91.51-.1,9.44-1.04,19.03-2.92,28.28-5.81,28.71-10.66,57.71-20.79,85.34-27.75,75.73-77.55,131.06-151.81,163.8-27.34,12.05-54.74,12.73-81.88.58-62.6-28-110.04-71.12-134.54-136.8ZM656.37,519.44c13.67-7.15,16.33-23.37,6.27-35.13-1.91-2.23-3.76-4.5-5.64-6.75.25-.32.5-.64.75-.96,5.42,3.03,11.2,5.6,16.11,9.31,2.11,1.59,3.15,5.47,3.46,8.44,1.03,9.89-2.5,18.27-9.66,25.14-3.24,3.11-6.7,6.02-9.64,9.39-3.24,3.7-2.85,7.13-.06,10.22,8.99-10.44,18.03-20.94,28.16-32.7-1.45,4.92-2.2,8.78-3.72,12.31-1.43,3.33-3.47,6.45-5.58,9.43-7.5,10.62-14.38,21.51-19.07,33.78-3.7,9.67-11.16,15.67-21.47,17.43-8.3,1.42-10.42-.93-8.78-9.1,1.14-5.71,2.39-11.39,3.62-17.08,3.25-15.1,11.32-26.43,25.25-33.72ZM640.25,520.71c.96-6.44,1.83-12.29,2.8-18.78,8.65,6.62,7.69,13.48-2.8,18.78ZM631.88,750.65c-11.95-10.9-18.8-24.46-20.41-40.49-1.42-14.1,1.73-27.52,7.8-40.17,3.95-8.23,8.56-16.14,13.06-24.09,1.26-2.23,3.17-4.09,5.54-7.09,11.88,24.19,26.88,45.87,22.8,73.67-2.39,16.25-11.14,28.54-22.83,39.26-2.51,2.3-4.22.51-5.97-1.08ZM661.77,787.38c-31.95.33-63.27-33-66.44-72.78,8.52,36.76,28.23,63.23,66.44,72.78ZM625.61,624.2c1.39,2.27,4.95,4.5,7.49,4.43,2.49-.07,6.2-2.57,7.05-4.87,1.53-4.12,1.32-8.88,1.82-13.23,4.17,1.41,6.23,5.47,5.23,11.52-1.24,7.5-7.44,13.92-13.5,13.98-6.62.07-13.61-6.35-15-13.78-1.3-6.95.85-12.25,6.74-14.43-.6,2.79-1.45,4.86-1.38,6.9.11,3.22,0,6.94,1.55,9.49ZM638.47,586.21c1.87,5.43-2.35,25.95-5.86,28.51-1.18-5.48,3.03-25.99,5.86-28.51ZM560.32,922.74c-18.27,6.82-44.03,14.97-76.53,16.94-29.99,1.82-48.4-2.67-52.69-3.76-2.33-.59-15.98-6.46-43.28-18.19-18.21-7.82-27.35-11.9-29.06-19.67-1.3-5.9,4.13-8.67,4.72-17.11.93-13.29-2.35-26.14-6.44-38.7-6.59-20.25-13.35-40.45-20.01-60.69-.53-1.62-.85-3.32-1.26-4.98,4.35,7.6,7.18,15.82,11.28,23.35,10.64,19.59,21.82,38.88,32.81,58.29,8.05,14.22,15.98,28.45,5.44,45.53,6.79-2.3,11.96-5.6,14.35-11.72,2.41-6.16,5.3-12.5,5.9-18.95,2.29-24.9,14.31-44.35,32.25-60.71,7.63-6.95,15.49-13.68,23.54-20.13,27.58-22.09,54.62-44.77,79.09-70.35.37-.39.88-.64,1.33-.95.23.2.46.4.69.61-4.5,7.62-9.01,15.25-13.51,22.87.38.25.76.5,1.14.75,14.05-19.61,28.1-39.23,42.14-58.84.49.2.98.4,1.47.59-5.66,47.85-12.79,95.46-23.88,142.48.94-1.2,1.59-2.47,1.97-3.82,2.97-10.58,6.47-21.05,8.7-31.78,4.71-22.66,8.74-45.47,13.11-68.2.41-2.12,1.26-4.16,1.9-6.23,1.98,5.22,2.67,10.31,3.67,15.33,5.4,27,18.91,49.97,35.74,71.23,16.71,21.11,35.52,39.82,58.85,53.42-13.17,10.55-54.43,41.37-113.42,63.41ZM739.37,762.07c-5.63,4.6-11.53,9.02-17.83,12.61-13.72,7.81-28.08,13.78-44.44,12.81-12.79-.76-23.63-6.23-33.8-13.45-1.06-.76-1.89-1.87-2.74-2.9-.26-.32-.23-.88-.62-2.6,12.25,6.59,24.11,11.8,37.64,10.67-12.41-2.68-24.75-5.49-34.66-15.1,1.11-1.58,2.3-3.25,3.42-4.85,3.89,2.37,7.47,4.54,11.04,6.72.14-.21.27-.41.41-.62-2.41-2.96-4.83-5.93-7.24-8.89.19-.42.37-.84.56-1.27,1.83.3,3.65.6,5.2.85-.11-2.33-.22-4.71-.35-7.63,28.08,29.76,64.63,32.09,88.97,5.47-1.82,2.77-3.12,6.18-5.57,8.18ZM720.24,748.19c5.31-2.82,7.54-5.67,15.62-19.88,4.99,10.45-3.27,25.21-15.58,27.67-13.43,2.68-26.49,1.65-39.02-4.29,12.08,10.56,26.25,10.84,41.07,7.9.1.44.21.89.31,1.33-1.95.85-3.83,2.09-5.88,2.5-19.9,4.02-38.92-4.11-50.4-20.91-3.85-5.63-3.69-11.46-2.61-18.97,13.84,14.85,30.26,22.32,50.07,21.45.02.57.04,1.15.07,1.72-6.15.86-12.29,1.72-18.02,2.52,5.31,3.68,16.04,3.37,24.36-1.06ZM780.43,754.45c-.41,1.09-.88,2.16-1.41,3.19-.2.38-.67.61-.91.81,0-3.62.27-7.24-.05-10.81-1.6-17.91-10.42-31.64-24.84-41.98-14.62-10.49-31.17-16.36-48.63-19.92-13.43-2.74-25.05-8.44-34.32-18.93-12.46-14.11-16.41-33.81-9.02-56.36-1.83,15.89-3.69,31.9,5.62,46.25,9.23,14.21,22.16,22.69,40.52,23.49-10.82-9.68-20.25-19.6-26.44-32.04-6.47-13.02-7.95-26.91-4.99-40.92,2.79-13.22,6.95-26.12,13.53-37.95-1.24,4.96-2.75,12.52-3.11,21.82-.32,8.34-.87,28.89,10.72,50.75,2.46,4.63,7.16,12.83,15.28,20.98,7.51,7.54,17.09,13.14,26.13,19.01,16.21,10.52,30.16,23.14,38.72,40.74,4.9,10.08,7.41,20.74,3.19,31.89ZM755.77,664.85c8.73,6.54,11.83,7.68,16.99,11.4,4.64,3.35,15.94,11.43,21.81,25.8,2.6,6.37,3.94,13.42,3.82,21.23-.09,5.75-1.4,11.31-5.84,17.43,2.19-18.05-4.94-31.23-15.48-44.37,3.35,7.98,6.25,14.88,9.15,21.79-.44.21-.89.43-1.33.64-.42-.45-.96-.84-1.24-1.36-10.01-19.08-25.23-31.84-44.95-40.72-16.61-7.47-30.19-19.69-39.13-35.98-12.95-23.59-11.48-47.87-2.4-72.28.08,1.3-.11,2.58-.32,3.86-2.1,12.38-3.21,24.79-1.3,37.3,3.07,20.13,12.28,36.03,32.12,43.47,6.76,2.53,13.79,4.48,20.87,6.09,2,1.66,4.44,3.6,7.25,5.71ZM696.67,498.96c6.56,14.49,13.12,28.99,19.91,44.01-11.73-12.71-16.96-27.83-19.91-44.01ZM707.66,601.91c10.71,24.85,26.06,43.31,52.63,50.58-20.52,6.35-49.73-21.56-52.63-50.58ZM728.1,622.05c1.86,1.66,3.24,2.88,4.46,3.97-2.89-6.59-5.17-12.27-6.89-16.75-1.73-4.51-2.85-7.69-3.75-11.92-.69-3.25-1.01-6.01-1.18-7.98.85.97,1.74,1.95,2.67,2.94,1.56,1.66,3.11,3.2,4.63,4.63-.79-1.4-1.59-3.12-2.18-5.17-1.63-5.64-.79-10.58-.1-13.27,8.3,27.91,23.91,49.13,52.57,58.88-11.46,14.87-38.25,7.24-50.24-15.32ZM779.32,628.88c-3.96-11.14-7.52-21.15-11.06-31.1,6.81-.13,10.81,4.22,13.37,10.82,2.63,6.79,2.23,13.05-2.3,20.28ZM832.57,611.95c-1.21,7.7-4.41,14.39-9.97,20.16-.7-6.24-.48-12.2-2.15-17.56-4.92-15.8-16.42-26.05-30.99-32.71-7.36-3.37-15.33-5.63-23.21-7.6-28.01-7.03-44.65-24.6-49.81-52.93-1.85-10.15-2.98-20.42-4.69-30.6-2.73-16.24-10.83-24.65-26.87-28.22-6.01-1.34-12.11-2.34-18.07-3.87-7.92-2.03-13.96-6.76-18.91-14.79,2.26,1.3,3.64,1.95,4.87,2.82,8.81,6.2,18.91,9.08,29.3,10.8,24.43,4.06,31.32,17.29,33.37,37.11.66,6.41,1.32,12.82,2.55,19.16.75-12.76.37-25.39-4.01-37.59-4.28-11.92-13.42-18.21-24.98-21.75-7.16-2.2-14.42-4.15-21.41-6.79-3.93-1.48-7.41-4.12-11.1-6.23.26-.47.52-.95.78-1.42,3.57,1.22,7.14,2.44,10.71,3.66l.27-.49c-4.04-2.56-8.24-4.88-12.06-7.73-4.13-3.08-8.24-6.32-11.73-10.08-3.31-3.56-5.82-7.88-8.68-11.87.35-.31.69-.61,1.04-.92.44.29.98.5,1.3.89,10.03,12,23.01,19.06,38.12,22.16,15.67,3.22,29.81,8.68,38.96,24.79-1.92-8.85-11.6-18.83-21.21-22.56-6.67-2.59-13.54-4.65-20.3-6.99-7.77-2.69-14.72-6.76-20.42-13.09,1.31.46,2.6,1.03,3.95,1.37,8.18,2.07,16.28,4.83,24.6,5.92,10.66,1.39,19.9,5.31,27.83,12.28,7.48,6.57,10.38,15.56,10.73,25.06.42,11.29-.62,22.63-.27,33.93.21,6.86,1.76,13.69,2.96,20.5.25,1.45,1.58,2.7,2.5,4.19-.69-8.05-1.35-15.69-2-23.34.79-.32,1.58-.64,2.37-.96,5.93,28.74,20.81,49.51,50.34,57.96-10.64-9.4-24.51-14.38-31.05-27.69,13.42,3.82,26.54,7.35,39.52,11.3,30.09,9.15,52.53,43.86,47.83,73.71Z"/>
    <path class="cls-1" d="M565.8,332.19c-.96-.34-1.94-.64-2.92-.94.5.6.99,1.21,1.48,1.82.48-.29.96-.59,1.45-.88Z"/>
    <path class="cls-1" d="M380.61,101.16s-.03-.01-.04-.02c-.03.04-.03.06.04.02Z"/>
    <path class="cls-1" d="M366.68,485.3c.7-1.45-1.53-3.88-2.75-5.18-10.25-10.92-18.24-21.4-28.86-28.11-1.46-.92-2.26-2.87-3.66-4.73-7.72,1.57-9.69.81-12.25-5.23-6.42,3.45-13.1,1.79-15.7-4.81-.77,6.26-5.27,5.66-8.08,4.37-2.99-1.38-5-4.88-8.31-8.38,19.71-3.71,36.44-1.53,51.03,9.87,7.58,5.93,14.4,12.83,21.64,19.2,2.25,1.97,4.78,3.62,7.18,5.42.47-.34.94-.69,1.42-1.03-.65-2.46-.97-5.08-2.01-7.36-5.6-12.28-15.03-20.66-27.4-25.64-31.58-12.72-61.9-7.4-91.48,6.87-2.81,1.36-5.7,2.91-7.94,5.02-2.99,2.82-5.38,6.27-8.74,10.3,2.13,1.96,4.87,4.47,8.02,7.35-4.22-.76-8.1-1.47-12.46-2.26,4.48,7.29,11.81,8.87,19.49,11.7-3.8,1.86-6.6,3.24-9.84,4.83,3.76.26,6.93.48,11.08.77-1.88,2.45-2.99,3.9-4.48,5.85,3.82-.46,6.94-.83,11.12-1.33-2.22,2.93-3.62,4.77-5.01,6.61.3.39.61.77.91,1.16,3.07-1.52,6.14-3.04,10.41-5.15-2.35,3.9-3.94,6.55-5.54,9.2.29.22.58.43.86.65,2.91-1.68,5.82-3.37,9.44-5.46-.96,3.59-1.67,6.24-2.38,8.89.42.23.85.46,1.27.69,1.98-2.87,3.96-5.75,5.94-8.62.69.54,1.37,1.08,2.06,1.62-.63,3.1-1.26,6.2-2.14,10.48,4-3.7,4.64-9.59,11.08-9.4-.68,3.55-1.3,6.75-2.13,11.07,4.02-3.73,2.69-9.92,9.06-11.03-.71,4.46-1.32,8.31-1.94,12.16,2.04-2.4,2.67-5.43,4.36-7.66,1.58-2.09,4.29-3.33,7.5-5.67-.79,3.53-1.44,5.6-1.67,7.71-.23,2.13-.05,4.3-.05,6.45.68-7.38,4.49-12.01,11.35-14.65.41,1.57.77,2.94,1.46,5.59,2.36-3.24,4.13-5.69,5.63-7.76-16.91.72-33.82-2.48-48.51-13.26l.47-1.62c5.4,1.77,10.79,3.54,16.19,5.31-3.88-2.8-7.83-5.52-11.63-8.43-2.95-2.26-3.39-4.69,0-7.12,2.01-1.44,3.86-3.08,5.52-4.42,2.86,6.97,5.66,13.81,8.43,20.55-.21.01-.68.04-1.15.07,5.42,1.5,10.75,3.74,16.27,4.35,9.91,1.09,19.49.06,25.31-9.88,2.65-4.54,5.27-9.09,8.03-13.86.9.55,2.07,1.14,3.09,1.93,2.5,1.93,5.08,3.79,7.37,5.96,4.57,4.33,3.44,9.5-2.65,11.23-7.4,2.11-14.94,3.73-22.41,5.56.92.45,1.78.62,2.56.42,18.58-4.69,22.72-1.44,39.06-.16,2.24.17,5.83.54,6.56-.99ZM264.78,448.96c-1.25,0-2.97.51-3.64-.11-1.2-1.12-1.77-2.91-2.6-4.43.46-.35.92-.7,1.38-1.05,1.74,1.49,3.47,2.99,5.21,4.48-.12.37-.23.73-.35,1.1ZM272.04,438.62c7.49-3.67,5.93,3.05,8.7,5.65-5.67,1.57-5.72-3.28-8.7-5.65ZM280.01,435.43c7.42-3.04,8.85-1.99,9.36,6.88-4.62,1.47-6.78-.13-9.36-6.88ZM322.36,472.77c-2.73,6.72-12.26,10.67-20.51,9.96-.63-.05-8.75-.87-14.06-7.06-1.05-1.23-3.87-4.51-2.77-6.84,1.02-2.15,4.77-2.17,5-2.17,2.95.01,4.53,1.2,6.96,3.1,6.38,4.99,14.92,3.77,20.76-1.87.07-.06.62-.62,1.48-1.23.99-.7,2.51-1.77,3.25-1.45,1.14.49,1.11,4.54-.12,7.56Z"/>
    <path class="cls-1" d="M601.92,464.24c9.53-6.96,11.39-8.89,11.54-13.65-3.75,2.53-7.46,5.04-11.17,7.54-.27-.35-.53-.71-.8-1.06,2.41-2.69,4.81-5.37,7.22-8.06-.27-.4-.54-.8-.81-1.2-3.73,1.02-7.46,2.03-11.31,3.08.4-2,.76-3.81,1.24-6.2-5.83.97-8.49,8.43-14.86,5.86,2.94-2.1,5.75-4.11,9.38-6.7-3.94-1.43-6.87-1.89-9.09-3.39-14.32-9.66-30.19-13.6-47.28-13.55-30.79.08-53.28,13.49-66.81,41.38-.22.45-.13,1.05-.32,2.81,8.04-7.49,15.17-14.2,22.38-20.84,19.23-17.73,41.55-22.88,66.7-16.16,2.12.57,4.11,1.6,6.26,2.46-5.23,8.39-12.24,9.86-18.33,4.37-5.16,2.81-12.11,2.4-14.22,0-5.95,3.07-13.44.73-18.41,5.85-1.47,1.51-4.71,1.31-7.05,1.87-1.11,1.26-2.28,2.98-3.83,4.25-3.47,2.85-7.51,5.1-10.6,8.29-5.9,6.07-11.4,12.55-16.83,19.06-1,1.19-1.75,4.16-1.1,4.81,1.18,1.18,3.46,1.3,5.32,1.71.99.22,1.76-.28,1.95-.34,2.43-.72,5-.92,10.15-1.33,5.93-.47,9.88-.79,14.77.49,2.55.67,4.93,1.66,5.06,1.36.12-.27-1.82-1.5-3.51-2.34-7.71-3.84-13.87-1.58-15.96-5.31-.46-.81-.59-1.58-.59-2.12.02-2.56,1.5-5.75,3.39-7.51,3.58-3.33,7.94-5.82,12.64-9.14,1.29,9.08,4.95,15.69,11.8,20.24,6.35,4.22,13.49,4.76,20.94,5.19,10.7.62,22.82-13.88,24.53-26.81,3.51,2.96,6.74,5.44,9.69,8.22.42.4,1.03,1.14,1.13,2.17.21,2.11-1.98,4-4.08,5.53-5.68,4.11-13.38,7.41-17.67,9.11,2.55-.08,4.59-.43,5.98-.73,3.85-.85,6.73-2.23,10.13-3.9,2.02-.99,3.64-1.89,4.72-2.52-2.55,1.78-4.92,3.92-7.68,5.27-9.92,4.84-20.07,7.48-30.46,7.63-10.4.15-19.88-4.4-20.42-2.91-.15.41.43,1.14.82,1.62,1.08,1.34,2.56,1.83,3.34,2.02-2.29-.11-3.63-.17-5.95-.27,4.84,1.2,8.6,2.14,12.66,3.15,7.13-4.56,10.43,2.5,15.32,6-.89-2.33-1.77-4.65-2.85-7.48,7.07,1.47,9.01,7.27,12.81,11.53-.72-3.21-1.45-6.41-2.17-9.62.4-.21.81-.42,1.21-.63,2.07,2.95,4.15,5.9,6.22,8.86.2-.07.4-.15.6-.22-.72-2.26-1.43-4.51-2.21-6.96,7.41-1.76,6.96,6.57,12.43,9.07-1.41-4.19-2.48-7.37-3.59-10.67,5.22-1.7,5.32,4.61,9.23,6.26-.98-2.82-1.77-5.09-2.56-7.36.28-.39.56-.77.84-1.16,2.7,2.01,5.41,4.02,9.34,6.94-1.88-3.89-3.1-6.41-4.32-8.94.24-.28.47-.56.71-.84,3.23,1.45,6.47,2.91,9.7,4.36.63-.75,1.26-1.5,1.89-2.25-2.78-1.51-5.56-3.02-8.34-4.53.51-.61,1.02-1.23,1.53-1.84,3.37,1.17,6.74,2.34,10.11,3.5.14-.33.28-.66.41-.98-1.64-1.27-3.29-2.55-5.3-4.11,1.75-.4,2.98-.68,4.61-1.05-1.39-1.29-2.32-2.15-3.36-3.11,4.21.6,8.16,1.17,12.12,1.74.1-.4.2-.79.31-1.19-3.04-1.31-6.08-2.63-9.12-3.94.06-.39.12-.79.18-1.18,4.89-.71,9.77-1.43,14.66-2.14-.02-.2-.05-.41-.07-.61-1.9-.13-3.81-.26-5.67-.38,5.51-3.34,10.92-6.62,16.33-9.9-.17-.26-.33-.51-.5-.77-5.05,1.44-10.11,2.89-15.16,4.33ZM478.06,484.5c3.33-4.66,5.96-7.11,11.36-3.72-4.03,1.32-7.05,2.31-11.36,3.72ZM553.84,471.31c-.54,3.61-3.45,5.84-4.84,6.88-10.8,8.06-29.76,3.19-32.32-2.79-.38-.88-1.03-3.26-1.39-5.78-.3-2.09-.44-3.15.08-3.72,1.54-1.73,6.9.76,7.73,1.15,4.29,2,4.17,3.63,7.83,5.11,3.29,1.33,6.22,1.6,8.84.86,4.39-1.25,6.99-5.22,7.6-6.13,1.68-2.53,1.68-4.07,2.65-4.16,1.71-.15,4.47,4.41,3.84,8.59ZM564.45,446.44c-.4-.44-.79-.88-1.19-1.31,2.32-2.22,1.69-7.81,6.71-6.95.51.57,1.01,1.13,1.52,1.7-2.35,2.19-4.69,4.38-7.04,6.56Z"/>
    <path class="cls-1" d="M467.4,434.2c1.52.55,3.14.88,6.47-.18,3.95-1.26,8.15-1.94,11.86-3.7,22.51-10.65,45.92-18.52,70.23-23.93,23.15-5.15,43.54-.39,61.08,15.79,1.11,1.02,2.42,1.82,3.64,2.72l.84-1.16c-11.07-14.26-23.46-27.2-42.11-31-34.06-6.93-67.33-1.35-99.83,8.99-2.16.69-7.92,3.04-12.71,8.54-1.81,2.08-7.43,8.53-5.76,15.78.1.44,1.56,6.42,6.29,8.13Z"/>
    <path class="cls-1" d="M280.9,405.57c20.74,4.1,40.32,11.27,59.74,19.36,8.83,3.68,18.22,6.3,27.59,8.29,6.01,1.28,9.57-.53,10.97-2.85,1.09-1.82.67-4.07.2-5.56-1.76-13.54-10.29-20.52-22.38-24.28-23.24-7.23-47.1-10.51-71.38-10.81-6.41-.08-12.43.64-18.13,2.04-4.28,1.06-38.9,8.14-43.65,28.12-.35,1.46-.46,2.66-.5,3.31,4.3-2.79,8.63-5.53,12.9-8.37,13.65-9.09,28.2-12.5,44.65-9.25Z"/>
    <path class="cls-1" d="M371.84,589.54c.1,7.03,3.07,12.85,9.65,16.34,6.61,3.5,13.12,7.18,19.78,10.59,4.48,2.3,6.51,5.12,4.49,10.4-1.48,3.87.61,6.75,4.77,6.75,4.46,0,8.91-.87,13.38-1.23,4.2-.34,6.42-2.52,6.34-6.7-.13-6.06,3.23-9.35,8.37-11.72,5.73-2.65,11.52-5.31,16.85-8.65,13.2-8.28,14.88-23.51,3.42-32.69.81,1.4,1.69,2.76,2.42,4.19,2.94,5.72,3.14,11.48,0,17.2-1.95,3.55-4.52,5.48-8.97,4.31-2.32-.61-4.93-.33-7.39-.15-6.69.5-8.97,6.28-12.37,10.65-7.65,9.82-21.91,9.08-27.99-1.57-4.06-7.12-10.3-10.07-18.26-9.64-7.13.39-10.52-2.39-11.06-9.59-.4-5.43,1.13-10.28,5.23-13.99,1.14-1.03,2.92-1.36,4.4-2.02-.63-.71-1.25-1.41-1.88-2.12-.88.27-1.92.34-2.62.85-6.29,4.66-8.69,11.35-8.58,18.77Z"/>
    <path class="cls-1" d="M385.95,664.65c8.82-.86,17.15-.37,25.58,2.28,3.85,1.21,8.48,2.45,12.09,1.4,11.85-3.47,23.61-4.6,35.96-3.69,6.53.48,13.29-2.01,19.93-3.21,2.49-.45,4.93-1.1,7.42-1.56,2.67-.5,5.36-.88,8.05-1.31.17-.71.33-1.42.5-2.12-1.79-1.45-3.87-2.66-5.3-4.41-2.39-2.93-5.23-2.92-7.29-.61-4.06,4.57-8.51,3.72-13.18,1.92-8.55-3.28-17.04-6.7-25.55-10.07-5.26-2.08-10.05-1.38-14.35,2.34,8.05-3.45,15.17-.44,22.26,3.09,6.21,3.1,12.5,6.04,18.75,9.04.02.46.04.91.06,1.37-2.75.45-5.54,1.45-8.24,1.24-6.12-.46-12.24-1.27-18.28-2.39-5.64-1.05-10.77-1.08-15.59,2.73-4.44,3.51-9.6,3.14-14.08.3-6.5-4.12-13.46-3.41-20.44-2.95-6.31.42-12.58,1.32-18.89,1.78-2.19.16-4.43-.35-6.7-1.14,10.66-5.7,20.6-12.8,32.7-14.35,3.97-.51,8.46,1.01,12.35,2.54,5.84,2.29,11.15,2.95,16.24-1.43-6.77,2.99-12.94,2.02-19.44-1.57-3.16-1.75-7.86-2.2-11.44-1.39-6.43,1.46-12.57,4.26-18.79,6.62-4.2,1.59-8.21,3.8-12.52,4.94-2.26.6-5-.37-7.46-.92-2.21-.49-4.86-2.5-6.38-1.8-2.42,1.11-4.07,3.92-6.6,6.58,2.27.87,3.09,1.5,3.77,1.39,4.29-.71,7.68.9,10.69,3.74.34.32.88.56,1.34.59,7.61.44,15.31,1.74,22.82,1.02Z"/>
    <path class="cls-1" d="M396.03,706.84c.02.51.05,1.03.07,1.54,15.65-2.99,31.29-4.2,47.05-1.11-3.63-1.3-7.25-2.61-11.98-4.31,12.47-6.5,24.48-11.5,32.14-22.53-29.52,16.45-58.79,14.67-88.96-1.01,8.49,11.64,20.65,16.34,32.39,22.52-4.11,1.89-7.41,3.4-10.7,4.91Z"/>
    <path class="cls-1" d="M407.7,606.67c6.99,6.14,17.17,5.99,24.03-.33,2.69-2.47,5.3-5.04,7.8-7.7,4.86-5.17,5.73-12.11,2.42-18.19-.3,14.14-9.66,24.97-21.69,25.24-7.42.17-12.79-3.43-17.82-8.49-5.66-5.69-4.55-12.57-4.14-20.21-5.22,10.36-4.48,15.85,2.64,23.05,2.22,2.25,4.39,4.55,6.76,6.63Z"/>
    <path class="cls-1" d="M439.41,472.16c-6.93,17.97-6.74,36.98-5.84,51.92,1.65-14.66,3.75-33.39,5.84-51.92Z"/>
    <path class="cls-1" d="M760.36,562.8c1.12,1.21,2.4,2.26,3.86,2.8,7.47,2.76,15.09,5.16,22.48,8.12,17.16,6.89,30.43,17.79,35.31,36.51,1.23,4.73,1.43,9.73,2.15,14.93,2.66-11.44.26-21.6-6.03-30.99-13.77-20.55-35.54-26.37-57.76-31.37Z"/>
    <path class="cls-1" d="M613.5,197.43c-.17.28-.34.57-.51.85,3.67,2.09,7.34,4.19,11,6.28,1.24-2.03,2.3-3.78,3.4-5.58-4.16-3.71-8.61-7.69-14.1-12.58.22,3.62-.26,6.15.67,7.96,1.01,1.96,3.33,3.24,5.08,4.82-.12.18-.24.36-.36.55-1.73-.76-3.46-1.52-5.19-2.28Z"/>
    <path class="cls-1" d="M538.52,171.62c.74-.25,1.5-1.36,1.67-2.19.32-1.56.22-3.2.25-3.84-4.59-1.9-8.53-3.54-12.88-5.34-.84,5.34,6.84,12.77,10.96,11.37Z"/>
    <path class="cls-1" d="M662.74,233.51c1.42-6.24-4.91-8.28-6.15-13.86-4.05,6.38-3.69,7.1,6.15,13.86Z"/>
    <path class="cls-1" d="M600.05,193.17c-3.41-1.04-6.83-2.08-10.24-3.12.11-.34.22-.67.34-1.01,2.52.66,5.05,1.32,7.57,1.98.14-.41.27-.81.41-1.22-3.34-1.35-6.69-2.7-10.44-4.21-.35,2.34-.64,4.22-.88,5.84,4.67,1.14,8.77,2.14,12.86,3.14.13-.46.26-.93.39-1.39Z"/>
    <path class="cls-1" d="M523.57,156.51c-7.48,2.04-7.06,10.27-11.04,15.05,6.56-2.76,5-11.89,11.04-15.05Z"/>
    <path class="cls-1" d="M636.66,207.75c-.19,6.24,5.67,7.82,9,11.41-.29-5.78-6.42-7.27-9-11.41Z"/>
    <path class="cls-1" d="M456.07,159.03c4.17.15,4.63-.23,6.56-5.66-5-1.87-5.62-1.3-6.56,5.66Z"/>
    <path class="cls-1" d="M540.96,177.17c.29.12.57.23.86.36,0,0,0,0,.01-.01.05-.02.09-.04.14-.06-.01-.01-.02-.02-.04-.03-.32-.09-.65-.17-.97-.26Z"/>
    <path class="cls-1" d="M523.16,166c.32,2.49.71,6.01,2.27,6.65,4.97,2.02,10.31,3.13,15.53,4.52-6.49-2.64-14.32-3.22-17.8-11.17Z"/>
    <path class="cls-1" d="M469.14,149.79c-1.35,4.61-2.64,9-4.02,13.7,6.27-5.91,7.58-11.94,4.02-13.7Z"/>
    <path class="cls-1" d="M585.84,179.57c-.78-.34-1.55-.69-2.33-1.03-1.53,3.53-3.05,7.05-4.58,10.58.75.28,1.5.56,2.25.83,1.55-3.46,3.1-6.92,4.66-10.38Z"/>
    <path class="cls-1" d="M265.71,331.87c.12.65.24,1.29.36,1.94,3.68-.89,8.05-.83,10.88-2.88,5-3.62,10.38-7.81,13.27-13.05,5.9-10.72,10.24-22.29,15.22-33.51-5.11,7.1-9.78,14.54-13.53,22.42-5.6,11.76-13.24,21.08-26.2,25.08Z"/>
    <path class="cls-1" d="M419.77,145.9c-.07,3.01.52,6.03.84,9.04.51.06,1.01.11,1.52.17.84-2.9,1.98-5.76,2.37-8.72.15-1.12-1.45-2.47-2.25-3.72-.87,1.07-2.46,2.13-2.48,3.22Z"/>
    <path class="cls-1" d="M426.42,63.53c.38.1.75.2,1.13.3v12.63c7.68-6.53,7.19-13.35-.74-19.79-4.63,6.08-4.77,6.51-3.15,10.43.98-1.27,1.87-2.42,2.75-3.56Z"/>
    <path class="cls-1" d="M421.86,104.91c-2.64-8.39-5.27-16.73-7.81-24.79-.82,13.85-.4,19.04,7.81,24.79Z"/>
    <path class="cls-1" d="M415.1,106.95c-.36.29-.72.57-1.08.86,4,5.92,8,11.84,12.77,18.89.95-3.99,1.64-6.85,2.19-9.17-7.84-.1-9.56-7.09-13.88-10.58Z"/>
    <path class="cls-1" d="M412.15,65.97c4.08,5.11,8.17,10.22,12.95,16.21-.76-8.77-7.33-12.15-11.93-16.91-.34.23-.68.46-1.03.7Z"/>
    <path class="cls-1" d="M420.63,263.24c-.57.52-1.12,1.02-1.91,1.73,17.07,3.51,35.07-27.3,30.06-44.28-.56,2.61-.97,4.31-1.28,6.03-2.17,11.87-7.53,21.99-16.72,29.9-5.33,4.59-7.56,4.46-13.01-.06-7.7-6.4-11.34-15.17-13.64-24.43-4.4-17.73,3.21-31.4,15.67-43.15.38-.36,1.01-.47,1.52-.7-.45,2.1-1.33,3.67-2.56,4.9-13.79,13.87-16.68,38.34-.46,57.82,6.57,7.88,7.98,9.84,15.71-.41,16.64-22.07,14.1-45.04-3.22-65.76-5.76-6.89-9.85-6.49-15.98.22-.9.98-1.8,1.97-2.66,2.98-19.04,22.52-20.83,61.42,8.48,75.21ZM425.8,189.29l2.17.03c7.34,10.25,14.74,20.48,13.08,34.82-9.11-7.78-11.49-18.56-16.31-27.9-.87-1.69.64-4.6,1.06-6.95ZM437.09,222.82c2.26,2.68,2.3,5.15.38,7.59-3.86,4.9-7.98,9.6-12.27,14.71-2.71-8.1-5.23-15.61-7.98-23.83,5.92-6.25,13.53-5.99,19.87,1.52Z"/>
    <path class="cls-1" d="M674.57,247.21c-.35-3.76-.63-6.66-.9-9.57-.61.03-1.22.06-1.83.08.55,2.91-4.63,6.47,2.74,9.49Z"/>
    <path class="cls-1" d="M224.27,201.9c-5.52-1.69-8.21,2.46-11.81,4.94-3.83,2.64-1.74,5.37-.17,7.58.56.78,3.52.24,5.2-.29,1.69-.53,3.17-1.76,4.69-2.75,6.72-4.4,7.1-6.58,2.08-14.33v4.86Z"/>
    <path class="cls-1" d="M642.62,657.69c-1.48-2.56-3.54-4.79-5.33-7.17-.81.11-1.62.22-2.43.33-3.66,4.76-8.21,9.1-10.77,14.39-3.27,6.8-5.68,14.22-7.16,21.63-4.12,20.61,1.35,38.84,15.16,54.63,2.23,2.54,4.37,4.26,7.24.8,6.63-7.98,13.01-16.15,14.87-26.71,3.66-20.77-1.2-39.93-11.59-57.91ZM645.64,725.99c2.88-12.05,5.38-23.33,2.5-34.64-2.82-11.06-6.59-21.87-9.95-32.8-.58.14-1.17.29-1.75.43.38,1.9.43,3.95,1.19,5.68,7.66,17.28,11.48,35.11,7.8,53.99-.73,3.74-2.02,7.38-3.06,11.06-.47-.1-.95-.21-1.42-.31v-18.42c-.12-.03-.25-.05-.37-.08-1.07,5.67-2.14,11.34-3.21,17.01-.46,0-.92-.02-1.38-.03v-24.32c-.61-.05-1.23-.1-1.84-.16-1.05,6.14-2.1,12.27-3.15,18.41-.13,0-.26,0-.39,0v-35.28c-3.21,11.36-5.88,24.02-2.13,37.23-6.26-10.63-4.65-22.2-4.6-33.85-.93,4.4-1.87,8.8-2.8,13.2-.45-.12-.89-.24-1.34-.37-1.11-18.41,4.59-34.53,16.17-49.3,17.41,24.12,21.68,55.1,9.73,72.53Z"/>
    <path class="cls-1" d="M321.35,161.62c-4,.97-7.58,1.84-11.15,2.71.13.6.26,1.21.39,1.81,3.24-.39,6.47-.78,9.71-1.16.07.46.13.93.2,1.39-2.7,1.15-5.4,2.31-9.34,4,5.35,1.27,9.61-5.61,13.61,1.33-4.35,1.14-8.07,1.97-11.69,3.1-3.14.98-4.18-.27-4.49-3.23-.28-2.64-.99-5.23-1.52-7.84-.49.07-.99.14-1.48.21v14.87c8.29-2.11,15.75-4,22.94-5.83-2.57-4.07-4.9-7.76-7.18-11.37Z"/>
    <path class="cls-1" d="M503.44,162.29c-2.77-.9-5.29-1.71-8.37-2.71,3.33-3.16,8.54,2,10.1-3.07h-9.35c-.03-.58-.07-1.16-.1-1.74,1.62-.23,3.25-.47,4.87-.7-.11-.38-.22-.76-.33-1.15-2.12.6-4.73.67-6.17,2-.89.81-.56,3.86.22,5.38,1.34,2.6,5.76,3.37,9.13,1.98Z"/>
    <path class="cls-1" d="M396.31,159.97c-1.19-2.36-2.1-4.85-3.72-6.99-.52-.68-2.95-.43-4.5-.6-.2.5-.4.99-.59,1.49,1.67,1.95,3.16,4.02,5.1,5.77.62.55,2.44.24,3.72.32Z"/>
  </g>
</svg>