<svg id="Layer_1" data-name="Layer 1" xmlns="http://www.w3.org/2000/svg" viewBox="0 0 334.39 334.39"><defs><style>.cls-1{stroke:#fff;stroke-miterlimit:10;}.cls-2{fill:#fff;}</style></defs><circle class="cls-1" cx="167.19" cy="167.19" r="166.69"/><path class="cls-2" d="M168.67,314.75c-.36-4,3.3-6,6.09-2.87,2.66,2.59,1.56,7-2.4,7.22-2.49.1-3.76-2.23-3.69-4.35Zm.19,0c.06,1.73,2.08,2.37,3.42,2.28a3.07,3.07,0,0,0,2.83-2.5,2.24,2.24,0,0,0-3-2.52c-1.35.32-3.32.95-3.25,2.74Z" transform="translate(0.16 -0.06)"/><path class="cls-2" d="M158.66,302.73a163.42,163.42,0,0,1,27-1.55c-.05,8.13.25,16.89.81,25l0,.62-.47,0q-13.61,1.31-27.26,1.47c-.19-8.5-.17-17.25-.1-25.58Zm.13.16c.53,7,1.28,17.32,1.62,24.2l-.88-1.15c8.8-.51,17.62-.61,26.44-.39l-.43.66-.07-6.08c-.07-5.86-.41-12.35-.83-18.23l.53.7c-8.63,1-17.68.64-26.38.29Z" transform="translate(0.16 -0.06)"/><path class="cls-2" d="M130.44,310.15c.68-3.92,4.73-4.91,6.63-1.2,1.9,3.19-.3,7.15-4.19,6.35-2.44-.54-3-3.12-2.44-5.15Zm.19,0c-.39,1.68,1.39,2.83,2.71,3.09a3.08,3.08,0,0,0,3.38-1.69,2.25,2.25,0,0,0-2.25-3.21c-1.38,0-3.45.06-3.84,1.81Z" transform="translate(0.16 -0.06)"/><path class="cls-2" d="M123.88,295.94a163.71,163.71,0,0,1,26.47,5.49c-2.15,7.84-4.13,16.38-5.69,24.36l-.12.6-.47-.07q-13.48-2.26-26.71-5.63c2-8.27,4.3-16.72,6.52-24.75Zm.08.19c-1.3,6.93-3.24,17.06-4.69,23.8l-.55-1.34c8.63,1.78,17.17,4,25.64,6.46l-.59.53,1.51-5.89c1.45-5.68,2.79-12,3.91-17.82l.33.81c-8.59-1.25-17.24-3.95-25.56-6.55Z" transform="translate(0.16 -0.06)"/><path class="cls-2" d="M94.7,295.8c1.68-3.6,5.85-3.51,6.72.56,1,3.57-2.14,6.83-5.7,5.06-2.2-1.16-2.13-3.81-1-5.62Zm.18.09c-.81,1.53.61,3.1,1.82,3.69a3.06,3.06,0,0,0,3.69-.75,2.25,2.25,0,0,0-1.33-3.69c-1.33-.39-3.35-.84-4.18.75Z" transform="translate(0.16 -0.06)"/><path class="cls-2" d="M92.05,280.39a163.27,163.27,0,0,1,24.14,12.15c-4.1,7-8.22,14.75-11.8,22l-.27.56-.44-.2q-12.42-5.67-24.33-12.35c4.07-7.46,8.47-15,12.7-22.21Zm0,.2c-3,6.35-7.55,15.64-10.7,21.77l-.18-1.43c7.88,3.95,15.56,8.28,23.09,12.88l-.71.35,3-5.3c2.87-5.11,5.81-10.9,8.39-16.2l.11.87c-8-3.43-15.63-8.28-23-12.94Z" transform="translate(0.16 -0.06)"/><path class="cls-2" d="M63.9,272.7c2.55-3.05,6.55-1.88,6.34,2.28.05,3.71-3.84,6-6.81,3.41-1.83-1.69-1.08-4.23.47-5.69Zm.14.13c-1.18,1.27-.2,3.15.81,4a3.06,3.06,0,0,0,3.76.22,2.24,2.24,0,0,0-.33-3.9c-1.19-.72-3-1.68-4.24-.36Z" transform="translate(0.16 -0.06)"/><path class="cls-2" d="M65.32,257.12a163.26,163.26,0,0,1,20.18,18c-5.78,5.72-11.76,12.12-17.11,18.25l-.41.46-.36-.3q-10.55-8.7-20.32-18.23c5.87-6.15,12.08-12.32,18-18.17Zm0,.21c-4.59,5.35-11.34,13.15-16,18.26l.19-1.43c6.59,5.86,12.89,12,19,18.41l-.78.16L72,288.39c4.09-4.2,8.44-9,12.3-13.48l-.12.87c-6.82-5.38-13-12-18.86-18.45Z" transform="translate(0.16 -0.06)"/><path class="cls-2" d="M40.12,242.41c3.25-2.28,6.82-.12,5.53,3.85-.91,3.59-5.26,4.84-7.45,1.53-1.34-2.11,0-4.37,1.92-5.38Zm.11.17c-1.47.91-1,3-.27,4.1a3.07,3.07,0,0,0,3.58,1.2,2.25,2.25,0,0,0,.69-3.86c-1-1-2.48-2.4-4-1.44Z" transform="translate(0.16 -0.06)"/><path class="cls-2" d="M45.53,227.74a163.42,163.42,0,0,1,14.83,22.59c-7.06,4-14.5,8.66-21.24,13.2l-.52.34-.28-.38q-7.92-11.13-14.9-22.87c7.27-4.42,14.86-8.78,22.11-12.88Zm-.08.19c-5.81,4-14.35,9.76-20.14,13.5l.55-1.33c4.85,7.36,9.34,15,13.57,22.7l-.8-.05,5.24-3.09c5-3,10.49-6.54,15.37-9.84l-.34.81c-5.2-7-9.4-15-13.45-22.7Z" transform="translate(0.16 -0.06)"/><path class="cls-2" d="M25,207c3.73-1.36,6.61,1.65,4.34,5.15-1.81,3.24-6.34,3.32-7.59-.45-.75-2.38,1.18-4.21,3.25-4.7Zm.05.19c-1.65.51-1.75,2.62-1.32,3.9a3.08,3.08,0,0,0,3.15,2.08,2.25,2.25,0,0,0,1.66-3.55c-.66-1.22-1.77-3-3.49-2.43Z" transform="translate(0.16 -0.06)"/><path class="cls-2" d="M34,194.23a163.73,163.73,0,0,1,8.48,25.66c-7.87,2.06-16.25,4.61-23.94,7.26l-.59.19-.17-.44Q13,214.09,9.33,201c8.16-2.39,16.62-4.63,24.69-6.72Zm-.13.16c-6.64,2.34-16.39,5.72-23,7.83l.88-1.14c2.78,8.37,5.15,16.86,7.23,25.44l-.76-.25,5.86-1.64c5.64-1.58,11.82-3.6,17.39-5.52l-.53.69c-3.22-8.07-5.21-16.91-7.12-25.41Z" transform="translate(0.16 -0.06)"/><path class="cls-2" d="M19.55,168.89c4-.36,6,3.3,2.87,6.09-2.59,2.66-7,1.56-7.22-2.4-.11-2.49,2.23-3.76,4.35-3.69Zm0,.19c-1.73.06-2.37,2.08-2.29,3.42a3.07,3.07,0,0,0,2.5,2.83,2.25,2.25,0,0,0,2.53-3c-.33-1.35-.95-3.32-2.74-3.25Z" transform="translate(0.16 -0.06)"/><path class="cls-2" d="M31.57,158.88a163.42,163.42,0,0,1,1.55,27c-8.13-.05-16.89.25-25,.81l-.62,0,0-.47C6.59,177.17,6.08,168.08,6,159c8.5-.19,17.26-.17,25.59-.1Zm-.16.13c-7,.53-17.32,1.28-24.2,1.62l1.14-.88c.52,8.81.62,17.62.4,26.44l-.66-.43,6.08-.07c5.86-.07,12.35-.41,18.23-.83l-.7.53c-1-8.63-.65-17.68-.29-26.38Z" transform="translate(0.16 -0.06)"/><path class="cls-2" d="M24.15,130.66c3.92.68,4.91,4.73,1.2,6.63-3.19,1.9-7.15-.3-6.36-4.19.55-2.44,3.13-3,5.16-2.44Zm0,.19c-1.68-.39-2.83,1.39-3.09,2.71a3.07,3.07,0,0,0,1.68,3.38,2.25,2.25,0,0,0,3.22-2.25c0-1.38-.06-3.45-1.81-3.84Z" transform="translate(0.16 -0.06)"/><path class="cls-2" d="M38.36,124.1a162.67,162.67,0,0,1-5.5,26.47c-7.84-2.15-16.37-4.13-24.35-5.69l-.61-.12.08-.47q2.27-13.48,5.63-26.71c8.26,2,16.71,4.3,24.75,6.52Zm-.19.08c-6.93-1.3-17.06-3.24-23.8-4.69l1.33-.55c-1.77,8.63-4,17.17-6.46,25.64L8.72,144l5.89,1.51c5.68,1.45,12,2.79,17.82,3.91l-.81.33c1.25-8.59,3.95-17.24,6.55-25.56Z" transform="translate(0.16 -0.06)"/><path class="cls-2" d="M38.49,94.92c3.61,1.68,3.52,5.85-.56,6.72-3.57,1-6.83-2.14-5-5.7,1.16-2.2,3.81-2.13,5.61-1Zm-.09.18c-1.52-.81-3.09.61-3.69,1.82a3.06,3.06,0,0,0,.76,3.69,2.24,2.24,0,0,0,3.68-1.33c.4-1.33.84-3.35-.75-4.18Z" transform="translate(0.16 -0.06)"/><path class="cls-2" d="M53.91,92.27a163.27,163.27,0,0,1-12.15,24.14c-7-4.1-14.75-8.22-22.06-11.8l-.55-.27.19-.44Q25,91.48,31.7,79.57c7.46,4.07,15,8.47,22.21,12.7Zm-.2,0c-6.36-3-15.64-7.55-21.78-10.7l1.44-.18c-4,7.88-8.28,15.56-12.88,23.09l-.36-.71,5.3,3c5.11,2.87,10.91,5.81,16.21,8.39l-.87.11c3.43-8,8.28-15.63,12.94-23Z" transform="translate(0.16 -0.06)"/><path class="cls-2" d="M61.6,64.12c3.05,2.55,1.88,6.55-2.28,6.34-3.71.05-6-3.84-3.41-6.81,1.69-1.83,4.23-1.08,5.69.47Zm-.14.14c-1.26-1.18-3.14-.2-4,.81a3.06,3.06,0,0,0-.23,3.76,2.25,2.25,0,0,0,3.91-.33c.72-1.19,1.67-3,.35-4.24Z" transform="translate(0.16 -0.06)"/><path class="cls-2" d="M77.17,65.54a162.45,162.45,0,0,1-18,20.18C53.47,79.94,47.07,74,40.94,68.61l-.47-.41.3-.36Q49.49,57.3,59,47.52c6.15,5.87,12.32,12.08,18.16,18Zm-.2,0c-5.35-4.59-13.15-11.34-18.26-16l1.43.19c-5.86,6.59-12,12.89-18.42,19l-.16-.78,4.35,4.26c4.19,4.09,9,8.44,13.48,12.3l-.87-.12c5.38-6.82,12-13,18.45-18.86Z" transform="translate(0.16 -0.06)"/><path class="cls-2" d="M91.88,40.34c2.29,3.25.13,6.82-3.84,5.53-3.6-.91-4.85-5.26-1.53-7.45,2.11-1.34,4.37,0,5.37,1.92Zm-.16.11c-.92-1.47-3-1-4.11-.27a3.08,3.08,0,0,0-1.19,3.58,2.25,2.25,0,0,0,3.86.69c1-1,2.4-2.48,1.44-4Z" transform="translate(0.16 -0.06)"/><path class="cls-2" d="M106.56,45.75A162.92,162.92,0,0,1,84,60.58c-4-7.06-8.66-14.5-13.2-21.24l-.34-.52.39-.28q11.13-7.92,22.87-14.9c4.42,7.27,8.77,14.86,12.88,22.11Zm-.19-.08c-4-5.81-9.77-14.35-13.51-20.14l1.34.55c-7.37,4.85-15,9.34-22.7,13.57l0-.8,3.1,5.24c3,5,6.54,10.49,9.84,15.37l-.81-.34c7-5.2,15-9.4,22.7-13.45Z" transform="translate(0.16 -0.06)"/><path class="cls-2" d="M127.29,25.22c1.37,3.73-1.64,6.61-5.14,4.34-3.24-1.81-3.32-6.34.45-7.59,2.38-.75,4.2,1.18,4.69,3.25Zm-.18.05c-.51-1.65-2.63-1.75-3.9-1.32a3.07,3.07,0,0,0-2.08,3.15,2.24,2.24,0,0,0,3.55,1.66c1.22-.66,3-1.77,2.43-3.49Z" transform="translate(0.16 -0.06)"/><path class="cls-2" d="M140.07,34.24a163.85,163.85,0,0,1-25.67,8.48c-2.06-7.87-4.61-16.25-7.25-23.94l-.19-.59.44-.17q12.81-4.77,25.95-8.47c2.39,8.16,4.63,16.62,6.72,24.69Zm-.16-.13c-2.34-6.64-5.72-16.39-7.84-22.95l1.15.88c-8.37,2.78-16.86,5.15-25.44,7.23l.25-.76,1.64,5.86c1.58,5.64,3.6,11.82,5.52,17.39l-.69-.53c8.06-3.22,16.91-5.21,25.41-7.12Z" transform="translate(0.16 -0.06)"/><path class="cls-2" d="M165.41,19.77c.35,4-3.3,6-6.09,2.87-2.66-2.59-1.57-7,2.4-7.22,2.49-.11,3.75,2.23,3.69,4.35Zm-.19,0c-.07-1.73-2.09-2.37-3.43-2.29A3.05,3.05,0,0,0,159,20a2.25,2.25,0,0,0,3,2.53c1.35-.33,3.32-.95,3.25-2.74Z" transform="translate(0.16 -0.06)"/><path class="cls-2" d="M175.42,31.79a163.49,163.49,0,0,1-27,1.55c0-8.13-.25-16.89-.81-25l0-.62.48,0c9.07-.86,18.15-1.37,27.25-1.47.2,8.5.17,17.26.11,25.59Zm-.13-.16c-.54-7-1.28-17.32-1.62-24.2l.87,1.14c-8.8.52-17.61.62-26.44.4l.44-.66.06,6.08c.07,5.86.42,12.35.84,18.23l-.53-.7c8.62-1,17.68-.65,26.38-.29Z" transform="translate(0.16 -0.06)"/><path class="cls-2" d="M203.64,24.37c-.68,3.92-4.74,4.91-6.63,1.2-1.9-3.19.3-7.15,4.19-6.36,2.43.55,3.05,3.13,2.44,5.16Zm-.19,0c.39-1.68-1.4-2.83-2.72-3.09a3.05,3.05,0,0,0-3.37,1.68,2.25,2.25,0,0,0,2.24,3.22c1.39,0,3.45-.06,3.85-1.81Z" transform="translate(0.16 -0.06)"/><path class="cls-2" d="M210.19,38.58a162.78,162.78,0,0,1-26.46-5.5c2.14-7.84,4.13-16.37,5.68-24.35l.13-.61.47.08q13.47,2.27,26.71,5.63c-2,8.26-4.31,16.71-6.53,24.75Zm-.08-.19c1.3-6.93,3.25-17.06,4.7-23.8l.55,1.33c-8.64-1.77-17.18-4-25.64-6.46l.59-.52-1.51,5.89c-1.45,5.68-2.8,12-3.91,17.82l-.34-.81c8.6,1.25,17.25,3.95,25.56,6.55Z" transform="translate(0.16 -0.06)"/><path class="cls-2" d="M239.37,38.71c-1.67,3.61-5.84,3.52-6.71-.56-1-3.57,2.14-6.83,5.69-5,2.21,1.16,2.14,3.81,1,5.61Zm-.17-.09c.81-1.52-.62-3.09-1.82-3.68a3.06,3.06,0,0,0-3.7.75A2.25,2.25,0,0,0,235,39.38c1.33.39,3.34.83,4.18-.76Z" transform="translate(0.16 -0.06)"/><path class="cls-2" d="M242,54.13A162.89,162.89,0,0,1,217.88,42c4.11-7,8.23-14.75,11.8-22.06l.28-.55.43.19q12.44,5.69,24.34,12.36c-4.08,7.46-8.48,15-12.7,22.21Zm0-.2c3.05-6.36,7.55-15.64,10.7-21.77l.18,1.43c-7.88-4-15.56-8.28-23.1-12.88l.71-.36-3,5.3c-2.87,5.11-5.82,10.91-8.39,16.21L219,41c8,3.43,15.64,8.28,23,12.94Z" transform="translate(0.16 -0.06)"/><path class="cls-2" d="M270.18,61.82c-2.55,3.05-6.56,1.88-6.34-2.28,0-3.71,3.83-6,6.81-3.41,1.83,1.69,1.07,4.23-.47,5.69Zm-.14-.14c1.17-1.26.2-3.14-.81-4a3.06,3.06,0,0,0-3.76-.23,2.24,2.24,0,0,0,.33,3.91c1.18.72,3,1.67,4.24.35Z" transform="translate(0.16 -0.06)"/><path class="cls-2" d="M268.75,77.39a162.36,162.36,0,0,1-20.17-18c5.78-5.71,11.76-12.11,17.1-18.24l.41-.47.37.3Q277,49.71,286.77,59.23c-5.87,6.15-12.08,12.32-18,18.16Zm0-.2c4.59-5.35,11.34-13.15,16-18.26l-.19,1.43c-6.59-5.86-12.89-12-19-18.42l.77-.16-4.25,4.35c-4.1,4.19-8.44,9-12.3,13.48l.12-.87c6.82,5.38,13,12,18.86,18.45Z" transform="translate(0.16 -0.06)"/><path class="cls-2" d="M294,92.1c-3.25,2.29-6.81.13-5.53-3.84.91-3.6,5.27-4.85,7.46-1.53,1.33,2.11-.06,4.37-1.93,5.37Zm-.1-.16c1.46-.92,1-3,.27-4.11a3.08,3.08,0,0,0-3.58-1.19,2.25,2.25,0,0,0-.69,3.86c1,1,2.48,2.4,4,1.44Z" transform="translate(0.16 -0.06)"/><path class="cls-2" d="M288.54,106.78a162.92,162.92,0,0,1-14.83-22.6c7.07-4,14.5-8.66,21.25-13.2l.51-.34.28.39q7.94,11.13,14.9,22.87c-7.26,4.42-14.85,8.77-22.11,12.88Zm.08-.19c5.82-4,14.36-9.77,20.15-13.51l-.55,1.34c-4.85-7.37-9.34-15-13.57-22.7l.8,0-5.24,3.1c-5,3-10.49,6.54-15.37,9.84l.34-.81c5.19,7,9.4,15,13.44,22.7Z" transform="translate(0.16 -0.06)"/><path class="cls-2" d="M309.08,127.51c-3.73,1.37-6.62-1.64-4.35-5.14,1.81-3.24,6.34-3.32,7.6.45.74,2.38-1.18,4.2-3.25,4.69Zm-.05-.18c1.64-.51,1.75-2.63,1.31-3.9a3.05,3.05,0,0,0-3.14-2.08,2.25,2.25,0,0,0-1.67,3.55c.67,1.22,1.78,3,3.5,2.43Z" transform="translate(0.16 -0.06)"/><path class="cls-2" d="M300.06,140.29a162.81,162.81,0,0,1-8.48-25.67c7.86-2.06,16.25-4.61,23.94-7.25l.58-.19.17.44q4.78,12.81,8.48,25.95c-8.16,2.39-16.62,4.63-24.69,6.72Zm.12-.16c6.65-2.34,16.4-5.72,23-7.84l-.88,1.15c-2.78-8.37-5.15-16.86-7.23-25.44l.76.25-5.86,1.64c-5.65,1.58-11.83,3.6-17.39,5.52l.53-.69c3.22,8.06,5.2,16.91,7.11,25.41Z" transform="translate(0.16 -0.06)"/><path class="cls-2" d="M314.53,165.63c-4,.36-6-3.3-2.87-6.09,2.59-2.66,7-1.57,7.22,2.4.1,2.49-2.23,3.75-4.35,3.69Zm0-.19c1.73-.07,2.37-2.08,2.28-3.43a3.06,3.06,0,0,0-2.5-2.82,2.24,2.24,0,0,0-2.52,3c.32,1.35,1,3.32,2.74,3.25Z" transform="translate(0.16 -0.06)"/><path class="cls-2" d="M302.51,175.64a163.49,163.49,0,0,1-1.55-27c8.13,0,16.89-.25,25-.81l.61,0,.05.48q1.31,13.6,1.47,27.25c-8.5.2-17.25.17-25.58.11Zm.16-.13c7-.54,17.32-1.28,24.2-1.62l-1.15.87c-.51-8.8-.61-17.61-.39-26.44l.66.44-6.08.06c-5.86.07-12.35.42-18.23.84l.7-.53c1,8.62.64,17.68.29,26.38Z" transform="translate(0.16 -0.06)"/><path class="cls-2" d="M309.92,203.86c-3.91-.68-4.9-4.73-1.19-6.63,3.19-1.9,7.15.3,6.35,4.19-.54,2.43-3.12,3.05-5.16,2.44Zm.05-.19c1.68.39,2.82-1.4,3.09-2.72a3.06,3.06,0,0,0-1.69-3.37,2.24,2.24,0,0,0-3.21,2.24c0,1.39.06,3.45,1.81,3.85Z" transform="translate(0.16 -0.06)"/><path class="cls-2" d="M295.72,210.41A163.82,163.82,0,0,1,301.21,184c7.84,2.14,16.38,4.13,24.36,5.68l.6.13-.07.47q-2.27,13.47-5.64,26.71c-8.26-2-16.71-4.31-24.74-6.53Zm.19-.08c6.92,1.3,17.06,3.25,23.8,4.7l-1.34.55c1.78-8.64,4-17.18,6.46-25.64l.53.59L319.47,189c-5.68-1.45-12-2.8-17.83-3.91l.81-.34c-1.24,8.6-3.95,17.25-6.54,25.56Z" transform="translate(0.16 -0.06)"/><path class="cls-2" d="M295.58,239.59c-3.6-1.67-3.51-5.84.56-6.71,3.57-1,6.83,2.14,5.06,5.69-1.16,2.21-3.81,2.14-5.62,1Zm.09-.17c1.53.81,3.1-.62,3.69-1.82a3.08,3.08,0,0,0-.75-3.7,2.25,2.25,0,0,0-3.69,1.34c-.39,1.33-.84,3.34.75,4.18Z" transform="translate(0.16 -0.06)"/><path class="cls-2" d="M280.17,242.25a162.89,162.89,0,0,1,12.15-24.15c7,4.11,14.75,8.23,22.05,11.8l.56.28-.2.43Q309.06,243,302.38,255c-7.46-4.08-15-8.48-22.21-12.7Zm.2,0c6.35,3.05,15.64,7.55,21.77,10.7l-1.43.18c4-7.88,8.28-15.56,12.88-23.1l.35.71-5.3-3c-5.11-2.87-10.9-5.82-16.2-8.39l.87-.12c-3.43,8-8.28,15.64-12.94,23Z" transform="translate(0.16 -0.06)"/><path class="cls-2" d="M272.48,270.4c-3.05-2.55-1.88-6.55,2.28-6.34,3.71-.05,6,3.83,3.41,6.81-1.69,1.83-4.23,1.07-5.69-.47Zm.13-.14c1.27,1.17,3.15.2,4-.81a3.06,3.06,0,0,0,.22-3.76,2.24,2.24,0,0,0-3.9.33c-.72,1.19-1.68,3-.36,4.24Z" transform="translate(0.16 -0.06)"/><path class="cls-2" d="M256.9,269a163.9,163.9,0,0,1,18-20.17c5.72,5.78,12.12,11.76,18.25,17.1l.46.41-.3.37q-8.7,10.54-18.23,20.31c-6.15-5.87-12.32-12.08-18.17-18Zm.21,0c5.34,4.59,13.15,11.34,18.26,16l-1.43-.2c5.86-6.59,12-12.89,18.41-19l.16.78-4.34-4.26c-4.2-4.1-9-8.44-13.48-12.3l.87.12c-5.38,6.82-12.05,13-18.45,18.86Z" transform="translate(0.16 -0.06)"/><path class="cls-2" d="M242.19,294.17c-2.28-3.25-.12-6.81,3.85-5.53,3.59.91,4.84,5.27,1.53,7.46-2.11,1.33-4.37-.06-5.38-1.93Zm.17-.1c.91,1.46,3,1,4.1.27a3.07,3.07,0,0,0,1.2-3.58,2.25,2.25,0,0,0-3.86-.69c-1,1-2.4,2.48-1.44,4Z" transform="translate(0.16 -0.06)"/><path class="cls-2" d="M227.52,288.76a163.42,163.42,0,0,1,22.59-14.83c4,7.07,8.66,14.5,13.2,21.25l.34.51-.38.28q-11.13,7.93-22.87,14.9c-4.42-7.26-8.78-14.85-12.88-22.11Zm.19.08c4,5.82,9.76,14.36,13.5,20.15l-1.33-.55c7.36-4.85,15-9.34,22.7-13.57l-.05.8-3.09-5.24c-3-5-6.54-10.49-9.84-15.37l.81.34c-7,5.19-15,9.4-22.7,13.44Z" transform="translate(0.16 -0.06)"/><path class="cls-2" d="M206.78,309.3c-1.36-3.73,1.65-6.62,5.15-4.35,3.24,1.81,3.32,6.34-.45,7.6-2.38.74-4.21-1.18-4.7-3.25Zm.19-.05c.51,1.64,2.62,1.75,3.9,1.31a3.06,3.06,0,0,0,2.08-3.14,2.25,2.25,0,0,0-3.55-1.67c-1.22.67-3,1.78-2.43,3.5Z" transform="translate(0.16 -0.06)"/><path class="cls-2" d="M194,300.28a162.7,162.7,0,0,1,25.66-8.48c2.06,7.86,4.61,16.25,7.25,23.94l.2.58-.45.17q-12.79,4.78-25.94,8.48c-2.39-8.16-4.63-16.62-6.72-24.69Zm.16.12c2.34,6.65,5.72,16.4,7.83,23l-1.14-.88c8.37-2.78,16.86-5.15,25.44-7.23l-.25.76-1.64-5.86c-1.58-5.65-3.6-11.83-5.52-17.39l.69.53c-8.07,3.22-16.91,5.2-25.41,7.11Z" transform="translate(0.16 -0.06)"/><path class="cls-2" d="M296.35,167.42c.15,92.39-93,156.09-178.6,119.81-47.37-19.67-80.13-68.47-80-119.81-.86-92.54,94.21-156.16,179.5-120.35,47.56,19.47,79.78,69.14,79.13,120.35Zm-.3,0c.14-80.1-75.39-140.64-153.51-124.82-58.83,11.1-103.26,65-103.18,124.82-.67,81.08,73.79,141.09,152.89,125.08,58.9-11.31,104.34-64.71,103.8-125.08Z" transform="translate(0.16 -0.06)"/><path class="cls-2" d="M124.6,45.66a126,126,0,0,1,.26,16.82c-.25,2.82-.46,6-2,8.48a15.57,15.57,0,0,1-2.69,3.42,28.18,28.18,0,0,0-4.59,6.84,6,6,0,0,0-1,3.26c.22,2.28,2.24,4.47,3.59,6.43s3.57,4.75,5,6.68c1.66,2.27,3.28,4.56,4.75,7,.09.13-.1.31-.22.2a86.57,86.57,0,0,1-12.09-12c-2.31-2.95-5.14-7-3.3-10.92a24.75,24.75,0,0,1,4-5.31c1.82-2.12,4.49-3.55,5.67-6.1s.45-5.23.32-8a33.33,33.33,0,0,1,0-4.24,53.34,53.34,0,0,1,2-12.6.15.15,0,0,1,.3,0Z" transform="translate(0.16 -0.06)"/><path class="cls-2" d="M110.51,208.36A10.2,10.2,0,0,1,112.7,205c2-1.88,2-4.86,3.86-6.9s4.63-2.83,7.17-3.76c5.75-1.83,11.94-1.61,17.86-1.34,3.07-.65,3.54-4.09,5.22-7a9.88,9.88,0,0,1,6.9-5,54.94,54.94,0,0,1,8.1-.39,111.6,111.6,0,0,0,15.65-1.28c5-.87,10.09-2.05,14.09-5.27s6.25-7.8,8.44-12.55a59.66,59.66,0,0,0,2.91-7.18c2.24-7.52,1.54-15.47,1.95-23.31q.24-8,.78-15.9l1.21-15.83c.25-5.14.74-10.62-1.33-15.42-2.15-5.13-7.68-6.56-12.44-8.44-4.94-1.89-9.88-3.79-14.91-5.34-6.35-1.8-17-5.1-21.21,1.82A21.41,21.41,0,0,1,155,75.5c-8.06,9-15.7-3.85-20.69,13.46-2.94,10.16-5.41,20.6-9.75,30.33-2,4.5-4.26,10.32-6.76,14.6-1.41,2.2-3.31,4.21-4.5,6.36a3.46,3.46,0,0,0-.43,2c.27,1.14,1.4,2.4,2.17,3.58s2.72,3.72,3.51,4.78c3.63,4.15,1,7.41-2.12,10.35a16.44,16.44,0,0,0-4,6.11c-4.22,9.87-11.49,17.92-16.36,27.3-.64,1.41-1.9,3.06-1.87,4.55.43,1.25,2,1.6,3.46,2a27.74,27.74,0,0,0,7.52.53,5.94,5.94,0,0,1,2.52.33,7.83,7.83,0,0,1,4.21,8.09c-.62,3.07-1,6.17-2.34,9.06a8.51,8.51,0,0,1-1.71,2.2l-.06.07a.91.91,0,0,0,0,.34c0,.07,0,.13.05.21.72,1.56,3,2.83,4.09,4.47a4.83,4.83,0,0,1-1,6.72c-.75.82-1.61,1.36-1.46,2.42,0,.36.26.64.72,1a15,15,0,0,1,3,2.91c1.3,1.69,1.68,4,2.09,5.95.47,2.67.85,5.24,1.19,7.91,1.64,7.36-5.94,12.36-11.76,14.95-4.39,1.27-5.14,5.37-4.13,9.35a.15.15,0,0,1-.29.07,13.57,13.57,0,0,1-.55-4,6.63,6.63,0,0,1,1.26-3.88,8.1,8.1,0,0,1,3.38-2.31c4.4-2.2,9.27-5.42,10.77-10.29a13.61,13.61,0,0,0-.18-3.72c-.4-2.56-.86-5.22-1.38-7.75-.46-1.84-.76-3.68-1.92-5.16-1-1.4-2.5-2-3.63-3.38-1.52-2-.19-4.27,1.34-5.64,4.47-4.36-4.6-5.88-4-10.41.07-1.41,1.49-2,2-3.27,1.08-2.55,1.42-5.51,1.93-8.24a5.24,5.24,0,0,0-2.61-5.14c-1.58-.33-3.77.17-5.5-.06-3.5-.31-8.9-.6-10-4.9-.33-2.56,1.19-4.38,2.14-6.48a139.38,139.38,0,0,1,8.39-13.66,86,86,0,0,0,7.77-13.51,25.75,25.75,0,0,1,1.92-3.76c1.4-2.25,3.78-4,5.23-6a2.07,2.07,0,0,0,.37-2.14c-1.1-1.78-3.25-4.54-4.46-6.3a20.07,20.07,0,0,1-2.53-4.26c-.85-3,1.38-5.83,3-7.93,2.6-3,4.09-6.29,5.75-10,1.85-4.14,4.66-10.28,6.21-14.51,1.86-4.9,3.41-9.92,4.86-15,2-5.9,3.16-14.77,9.31-17.85,3.75-1.92,8.05.36,11.72-1.39a8.23,8.23,0,0,0,2.87-2.13c1.46-2,2.29-5.09,4.87-6.4,8.72-5,25.89,3.28,34.75,6.43,2.45,1,4.94,1.87,7.37,3.06,5.15,2.38,7.18,8.44,7.33,13.73s-.6,18.47-.82,23.85c-.57,10.65-.11,21.09-.52,31.79a40.34,40.34,0,0,1-4.37,15.62c-2.24,4.93-4.81,10-9.21,13.49-8.47,6.37-21.16,6.45-31.34,6.79-8,0-11.74-.71-15.11,7.59-.89,1.88-2.68,4.06-5.05,4.22-2.11-.06-3.95-.32-6-.34a40.78,40.78,0,0,0-11.61,1.09c-2.38.76-5.1,1.38-6.89,3.22s-2,4.95-4.13,6.67a10,10,0,0,0-2.27,3.13c-.06.16-.35.06-.27-.12Z" transform="translate(0.16 -0.06)"/><path class="cls-2" d="M137.53,145.21c-.5-3.93,2.77-6.82,6.64-6.66,3.3.16,6.54.44,9.73-.63l4.64-1.38c3.06-1.16,7-1.78,10.08-.15,1.33.62,3.49,1.92,4.09,3.11a37.85,37.85,0,0,0-4.61-1.63c-4.75-1.39-9.22,1.1-14,1.13a57.87,57.87,0,0,0-9.75,1.2c-1.57.28-3,.44-4.12,1.29a7.67,7.67,0,0,0-2.47,3.75.1.1,0,0,1-.2,0Z" transform="translate(0.16 -0.06)"/><path class="cls-2" d="M142.57,139.62a4.34,4.34,0,0,1,.68,3.17,13.18,13.18,0,0,0-.53,1.57,3.46,3.46,0,0,0,.19,1.58,8.2,8.2,0,0,1,.44,3.17,7,7,0,0,1-1,3.12.13.13,0,0,1-.17,0,6.66,6.66,0,0,1-.9-3.22c-.13-1.67.89-3.17.84-4.7-.25-1.12-.79-1.93-.4-3.16a4.42,4.42,0,0,1,.7-1.57.13.13,0,0,1,.2,0Z" transform="translate(0.16 -0.06)"/><path class="cls-2" d="M142.57,139.63a44.45,44.45,0,0,0,2.18,6.7c.68,2.08,2.4,4.47,4.68,4.8,2.06.28,1.43-3.71,1.63-5.06.23-2.52-.52-5.92-.4-7.24a12.27,12.27,0,0,1,2.42,9.15c-.22,1.41-.31,2.85-1.53,4-2,1.49-4.13-1-5.52-2.08a9,9,0,0,1-4-6.43,9.09,9.09,0,0,1,.33-3.81.11.11,0,0,1,.2,0Z" transform="translate(0.16 -0.06)"/><path class="cls-2" d="M126.92,135.23c3.65,2.87,6.85,2,9.82-1.24a39.28,39.28,0,0,1,6.32-5.52,88,88,0,0,1,11.18-6.15,41,41,0,0,1,33.23.68.15.15,0,0,1-.09.28,123.59,123.59,0,0,0-16.44-.93,75.22,75.22,0,0,0-16.19,1.52A25.32,25.32,0,0,0,149,126c-5.88,2.89-8.13,9.82-14.22,12.48a6.48,6.48,0,0,1-8-3c-.08-.14.1-.3.22-.2Z" transform="translate(0.16 -0.06)"/><path class="cls-2" d="M236.28,240.52c.22,4-3.51,5.85-6.19,2.66-2.57-2.68-1.32-7,2.66-7.13,2.49,0,3.67,2.35,3.53,4.47Zm-.19,0c0-1.72-2-2.44-3.34-2.4a3.08,3.08,0,0,0-2.91,2.4,2.24,2.24,0,0,0,2.91,2.63c1.36-.28,3.35-.83,3.34-2.63Z" transform="translate(0.16 -0.06)"/><path class="cls-2" d="M245.86,252.89a162.52,162.52,0,0,1-27,.6c.33-8.12.34-16.88.07-25l0-.62.48,0q13.63-.83,27.28-.52c-.1,8.51-.43,17.26-.79,25.58Zm-.12-.17c-.29-7-.67-17.35-.77-24.24l.83,1.18c-8.81.21-17.63,0-26.43-.53l.46-.65-.16,6.08c-.13,5.86,0,12.36.2,18.25l-.5-.72c8.65-.71,17.69,0,26.37.63Z" transform="translate(0.16 -0.06)"/></svg>