<svg id="Layer_1" data-name="Layer 1" xmlns="http://www.w3.org/2000/svg" viewBox="0 0 333.33 333.33"><defs><style>.cls-1{fill:#1d1d1b;}</style></defs><path class="cls-1" d="M168.67,314.94c-.36-4,3.31-6,6.1-2.87,2.66,2.59,1.57,7-2.41,7.23-2.49.1-3.75-2.23-3.69-4.36Zm.19,0c.07,1.72,2.09,2.37,3.43,2.28a3.07,3.07,0,0,0,2.83-2.5,2.25,2.25,0,0,0-3-2.53c-1.36.33-3.33.95-3.26,2.75Z" transform="translate(-0.38 -0.6)"/><path class="cls-1" d="M158.65,302.9a163.84,163.84,0,0,1,27-1.54c0,8.14.25,16.91.81,25l0,.62-.48,0c-9.08.87-18.17,1.38-27.29,1.48-.19-8.51-.17-17.28-.1-25.63Zm.12.17c.54,7,1.29,17.34,1.63,24.23l-.88-1.15c8.82-.52,17.64-.61,26.48-.39l-.44.66-.06-6.09c-.07-5.87-.42-12.37-.84-18.25l.53.69c-8.63,1-17.7.65-26.42.3Z" transform="translate(-0.38 -0.6)"/><path class="cls-1" d="M130.39,310.33c.68-3.92,4.74-4.91,6.64-1.19,1.9,3.19-.3,7.16-4.2,6.36-2.43-.55-3.05-3.13-2.44-5.17Zm.19.05c-.39,1.68,1.4,2.83,2.72,3.09a3.07,3.07,0,0,0,3.38-1.69,2.25,2.25,0,0,0-2.25-3.21c-1.39,0-3.45.05-3.85,1.81Z" transform="translate(-0.38 -0.6)"/><path class="cls-1" d="M123.83,296.11a163.25,163.25,0,0,1,26.5,5.5c-2.15,7.85-4.14,16.4-5.7,24.39l-.12.6-.47-.07q-13.5-2.26-26.74-5.64c2-8.27,4.3-16.74,6.53-24.78Zm.08.19c-1.3,6.94-3.25,17.08-4.71,23.83l-.54-1.34c8.64,1.78,17.19,4,25.67,6.47l-.59.53,1.51-5.9c1.45-5.69,2.8-12.05,3.92-17.85l.33.82c-8.61-1.25-17.27-4-25.59-6.56Z" transform="translate(-0.38 -0.6)"/><path class="cls-1" d="M94.61,296c1.67-3.61,5.85-3.52,6.72.56,1,3.58-2.14,6.84-5.7,5.06-2.21-1.15-2.14-3.81-1-5.62Zm.17.09c-.81,1.53.62,3.1,1.83,3.7a3.08,3.08,0,0,0,3.7-.76A2.25,2.25,0,0,0,99,295.31c-1.33-.39-3.35-.84-4.19.75Z" transform="translate(-0.38 -0.6)"/><path class="cls-1" d="M92,280.54a162.84,162.84,0,0,1,24.18,12.17c-4.11,7-8.24,14.76-11.82,22.08l-.27.55-.44-.19q-12.45-5.68-24.37-12.37c4.08-7.47,8.49-15,12.72-22.24Zm0,.2c-3,6.36-7.56,15.66-10.71,21.8l-.19-1.43c7.9,3.95,15.59,8.29,23.13,12.89l-.71.36,3-5.31c2.87-5.12,5.82-10.92,8.4-16.22l.11.86c-8-3.43-15.65-8.29-23-12.95Z" transform="translate(-0.38 -0.6)"/><path class="cls-1" d="M63.76,272.84c2.55-3,6.56-1.89,6.35,2.28,0,3.72-3.84,6.05-6.82,3.41-1.83-1.69-1.08-4.23.47-5.69Zm.14.13c-1.17,1.27-.2,3.15.81,4a3.07,3.07,0,0,0,3.77.23,2.25,2.25,0,0,0-.33-3.91c-1.19-.72-3-1.68-4.25-.36Z" transform="translate(-0.38 -0.6)"/><path class="cls-1" d="M65.19,257.24a164.42,164.42,0,0,1,20.2,18C79.6,281,73.61,287.39,68.27,293.53l-.42.46-.37-.3Q56.94,285,47.15,275.43c5.87-6.16,12.09-12.34,18-18.19Zm0,.21c-4.59,5.35-11.35,13.17-16,18.28l.19-1.43c6.6,5.86,12.91,12,19,18.44l-.78.16,4.27-4.35c4.09-4.2,8.44-9,12.31-13.5l-.12.87c-6.83-5.39-13-12.06-18.89-18.47Z" transform="translate(-0.38 -0.6)"/><path class="cls-1" d="M40,242.51c3.25-2.29,6.82-.12,5.53,3.85-.91,3.6-5.27,4.85-7.46,1.53-1.34-2.11,0-4.37,1.93-5.38Zm.1.17c-1.47.91-1,3-.27,4.11A3.07,3.07,0,0,0,43.38,248a2.24,2.24,0,0,0,.68-3.86c-1-1-2.48-2.4-4-1.44Z" transform="translate(-0.38 -0.6)"/><path class="cls-1" d="M45.37,227.82a162.94,162.94,0,0,1,14.85,22.62c-7.07,4-14.52,8.67-21.27,13.22l-.52.34-.27-.39q-7.95-11.15-14.93-22.89c7.28-4.43,14.88-8.79,22.14-12.9Zm-.08.19c-5.82,4-14.37,9.78-20.17,13.52l.56-1.33c4.85,7.37,9.35,15,13.58,22.73l-.8-.05,5.25-3.1c5-3,10.5-6.55,15.38-9.85l-.33.81c-5.21-7-9.42-15-13.47-22.73Z" transform="translate(-0.38 -0.6)"/><path class="cls-1" d="M24.81,207.06c3.74-1.37,6.62,1.65,4.35,5.15-1.81,3.24-6.35,3.32-7.6-.46-.75-2.38,1.18-4.2,3.25-4.69Zm.06.18c-1.66.51-1.76,2.63-1.32,3.91a3.07,3.07,0,0,0,3.15,2.08,2.25,2.25,0,0,0,1.66-3.56c-.66-1.22-1.78-3-3.49-2.43Z" transform="translate(-0.38 -0.6)"/><path class="cls-1" d="M33.84,194.26A162.51,162.51,0,0,1,42.33,220c-7.87,2.07-16.27,4.62-24,7.26l-.58.2-.17-.45q-4.78-12.81-8.49-26c8.17-2.39,16.65-4.63,24.72-6.73Zm-.12.17c-6.66,2.34-16.42,5.72-23,7.84l.88-1.15c2.79,8.38,5.16,16.89,7.24,25.47l-.76-.25L24,224.71c5.65-1.59,11.84-3.61,17.42-5.54l-.54.7c-3.22-8.08-5.21-16.93-7.12-25.44Z" transform="translate(-0.38 -0.6)"/><path class="cls-1" d="M19.35,168.89c4-.36,6,3.31,2.88,6.1-2.59,2.66-7,1.57-7.23-2.41-.11-2.49,2.23-3.75,4.35-3.69Zm0,.19c-1.72.07-2.37,2.09-2.28,3.43a3.07,3.07,0,0,0,2.5,2.83,2.25,2.25,0,0,0,2.53-3c-.33-1.36-.95-3.33-2.75-3.26Z" transform="translate(-0.38 -0.6)"/><path class="cls-1" d="M31.39,158.87a162.76,162.76,0,0,1,1.55,27c-8.14,0-16.91.25-25,.81l-.62,0,0-.48c-.86-9.08-1.37-18.17-1.47-27.29,8.51-.19,17.28-.17,25.62-.1Zm-.16.12c-7,.54-17.34,1.29-24.23,1.63l1.15-.88c.51,8.82.61,17.64.39,26.48l-.66-.44,6.09-.06c5.87-.07,12.37-.42,18.25-.84l-.7.53c-1-8.63-.64-17.7-.29-26.42Z" transform="translate(-0.38 -0.6)"/><path class="cls-1" d="M24,130.61c3.93.68,4.92,4.74,1.2,6.64-3.19,1.9-7.16-.3-6.36-4.2.54-2.43,3.13-3.05,5.16-2.44Zm0,.19c-1.68-.39-2.83,1.4-3.09,2.72a3.07,3.07,0,0,0,1.68,3.38,2.25,2.25,0,0,0,3.22-2.25c0-1.39-.06-3.45-1.81-3.85Z" transform="translate(-0.38 -0.6)"/><path class="cls-1" d="M38.19,124.05a163.25,163.25,0,0,1-5.5,26.5c-7.85-2.15-16.4-4.14-24.39-5.7l-.61-.12.08-.47q2.27-13.5,5.64-26.74c8.27,2,16.73,4.3,24.78,6.53Zm-.19.08c-6.94-1.3-17.09-3.25-23.83-4.71l1.33-.54c-1.78,8.64-4,17.19-6.46,25.67L8.51,144l5.9,1.51c5.68,1.45,12.05,2.8,17.84,3.92l-.81.33c1.25-8.61,4-17.27,6.56-25.59Z" transform="translate(-0.38 -0.6)"/><path class="cls-1" d="M38.33,94.83c3.61,1.67,3.51,5.85-.57,6.72-3.57,1-6.84-2.14-5.06-5.7,1.16-2.21,3.82-2.14,5.63-1Zm-.1.17c-1.52-.81-3.09.62-3.69,1.83a3.07,3.07,0,0,0,.76,3.7A2.25,2.25,0,0,0,39,99.19c.39-1.33.84-3.35-.76-4.19Z" transform="translate(-0.38 -0.6)"/><path class="cls-1" d="M53.76,92.17a163.81,163.81,0,0,1-12.17,24.18c-7-4.11-14.77-8.24-22.08-11.82l-.56-.27.2-.44q5.69-12.45,12.37-24.37C39,83.53,46.57,87.94,53.76,92.17Zm-.2,0c-6.36-3-15.66-7.56-21.8-10.71l1.43-.19c-4,7.9-8.29,15.59-12.89,23.13l-.36-.71,5.31,3c5.11,2.87,10.92,5.82,16.22,8.4l-.87.11c3.44-8,8.29-15.65,13-23Z" transform="translate(-0.38 -0.6)"/><path class="cls-1" d="M61.46,64c3.05,2.55,1.88,6.56-2.29,6.35-3.71,0-6.05-3.84-3.41-6.82,1.69-1.83,4.24-1.08,5.7.47Zm-.14.14c-1.26-1.17-3.15-.2-4,.81a3.07,3.07,0,0,0-.22,3.77A2.25,2.25,0,0,0,61,68.37c.72-1.19,1.67-3,.35-4.25Z" transform="translate(-0.38 -0.6)"/><path class="cls-1" d="M77.06,65.41a163.68,163.68,0,0,1-18,20.2c-5.72-5.79-12.13-11.78-18.27-17.12l-.46-.42.3-.37q8.72-10.55,18.25-20.33c6.16,5.87,12.34,12.09,18.2,18Zm-.21,0C71.5,60.79,63.68,54,58.57,49.4l1.43.19c-5.87,6.6-12,12.91-18.44,19l-.16-.78,4.35,4.27c4.2,4.09,9,8.44,13.5,12.31l-.87-.12c5.38-6.83,12.06-13,18.47-18.89Z" transform="translate(-0.38 -0.6)"/><path class="cls-1" d="M91.79,40.18c2.28,3.25.12,6.82-3.85,5.53-3.6-.91-4.86-5.27-1.53-7.46,2.1-1.34,4.37,0,5.38,1.93Zm-.17.1c-.92-1.47-3-1-4.11-.27a3.08,3.08,0,0,0-1.2,3.59,2.25,2.25,0,0,0,3.87.68c1-1,2.4-2.48,1.44-4Z" transform="translate(-0.38 -0.6)"/><path class="cls-1" d="M106.48,45.59A162.45,162.45,0,0,1,83.85,60.44c-4-7.07-8.67-14.51-13.21-21.27l-.34-.52.38-.27q11.14-8,22.9-14.93c4.43,7.28,8.79,14.88,12.9,22.14Zm-.19-.08c-4-5.82-9.78-14.37-13.52-20.17l1.33.56c-7.37,4.85-15,9.35-22.73,13.58l0-.8,3.1,5.25c3,5,6.54,10.5,9.85,15.38L83.56,59c7-5.21,15-9.42,22.73-13.47Z" transform="translate(-0.38 -0.6)"/><path class="cls-1" d="M127.24,25c1.37,3.74-1.65,6.62-5.15,4.35-3.24-1.81-3.32-6.35.45-7.6,2.38-.75,4.21,1.18,4.7,3.25Zm-.19.06c-.5-1.66-2.62-1.76-3.9-1.32a3.06,3.06,0,0,0-2.08,3.15,2.24,2.24,0,0,0,3.55,1.66c1.22-.66,3-1.78,2.43-3.49Z" transform="translate(-0.38 -0.6)"/><path class="cls-1" d="M140,34.06a161.84,161.84,0,0,1-25.7,8.49c-2.06-7.87-4.61-16.26-7.26-24l-.19-.58.44-.17q12.83-4.78,26-8.49c2.4,8.17,4.64,16.65,6.73,24.72Zm-.16-.12c-2.34-6.66-5.73-16.42-7.84-23l1.14.88c-8.38,2.79-16.88,5.16-25.47,7.24l.25-.75,1.64,5.86c1.59,5.65,3.61,11.84,5.53,17.42l-.69-.54c8.08-3.22,16.93-5.21,25.44-7.12Z" transform="translate(-0.38 -0.6)"/><path class="cls-1" d="M165.41,19.57c.35,4-3.31,6-6.1,2.88-2.67-2.59-1.57-7,2.4-7.23,2.5-.11,3.76,2.23,3.7,4.35Zm-.2,0c-.06-1.72-2.08-2.37-3.42-2.28A3.07,3.07,0,0,0,159,19.8a2.25,2.25,0,0,0,3,2.53c1.35-.33,3.32-.95,3.25-2.75Z" transform="translate(-0.38 -0.6)"/><path class="cls-1" d="M175.43,31.61a162.76,162.76,0,0,1-27,1.55c0-8.14-.25-16.91-.81-25l0-.62.47,0c9.08-.86,18.18-1.37,27.29-1.47.2,8.51.18,17.28.11,25.62Zm-.13-.16c-.54-7-1.28-17.34-1.62-24.23l.87,1.15c-8.81.51-17.64.61-26.47.39l.44-.66.06,6.09c.07,5.87.42,12.37.84,18.25l-.54-.7c8.64-1,17.71-.64,26.42-.29Z" transform="translate(-0.38 -0.6)"/><path class="cls-1" d="M203.69,24.18c-.69,3.93-4.74,4.92-6.64,1.2-1.9-3.19.3-7.16,4.2-6.36,2.43.54,3.05,3.13,2.44,5.16Zm-.19,0c.39-1.68-1.4-2.83-2.72-3.09a3.07,3.07,0,0,0-3.38,1.68A2.25,2.25,0,0,0,199.65,26c1.39,0,3.45-.05,3.85-1.81Z" transform="translate(-0.38 -0.6)"/><path class="cls-1" d="M210.25,38.41a163,163,0,0,1-26.5-5.5c2.15-7.85,4.13-16.4,5.69-24.39l.13-.61L190,8q13.5,2.26,26.74,5.64c-2,8.27-4.31,16.73-6.53,24.78Zm-.08-.19c1.3-6.94,3.25-17.09,4.7-23.83l.55,1.33c-8.64-1.78-17.19-4-25.67-6.46l.59-.53-1.51,5.9c-1.45,5.68-2.8,12-3.92,17.84l-.33-.81c8.6,1.25,17.26,4,25.59,6.56Z" transform="translate(-0.38 -0.6)"/><path class="cls-1" d="M239.47,38.55c-1.68,3.61-5.85,3.52-6.72-.57-1-3.57,2.14-6.84,5.7-5.06,2.21,1.16,2.14,3.82,1,5.63Zm-.17-.1c.81-1.52-.62-3.09-1.83-3.69a3.07,3.07,0,0,0-3.7.76,2.25,2.25,0,0,0,1.34,3.69c1.33.39,3.35.84,4.19-.76Z" transform="translate(-0.38 -0.6)"/><path class="cls-1" d="M242.13,54A163.32,163.32,0,0,1,218,41.81c4.11-7,8.24-14.77,11.82-22.08l.27-.56.44.2q12.44,5.68,24.37,12.37c-4.09,7.47-8.49,15.05-12.72,22.24Zm0-.2c3.05-6.36,7.56-15.66,10.71-21.8l.18,1.43c-7.89-4-15.58-8.29-23.12-12.89l.71-.36-3,5.31c-2.88,5.12-5.82,10.92-8.4,16.22l-.12-.87c8,3.44,15.66,8.29,23,13Z" transform="translate(-0.38 -0.6)"/><path class="cls-1" d="M270.31,61.68c-2.55,3.05-6.56,1.88-6.34-2.29-.05-3.71,3.83-6,6.81-3.41,1.84,1.69,1.08,4.24-.47,5.7Zm-.14-.14c1.18-1.26.21-3.15-.81-4a3.06,3.06,0,0,0-3.76-.22,2.24,2.24,0,0,0,.33,3.91c1.19.72,3,1.68,4.24.35Z" transform="translate(-0.38 -0.6)"/><path class="cls-1" d="M268.89,77.28a163.77,163.77,0,0,1-20.21-18c5.79-5.72,11.78-12.13,17.13-18.27l.41-.46.37.3q10.56,8.72,20.34,18.25c-5.88,6.16-12.1,12.34-18,18.2Zm0-.21c4.6-5.35,11.36-13.17,16-18.28l-.19,1.43c-6.6-5.87-12.91-12-19-18.44l.78-.16L262.22,46c-4.1,4.2-8.45,9-12.31,13.5l.12-.87c6.82,5.38,13,12.06,18.88,18.47Z" transform="translate(-0.38 -0.6)"/><path class="cls-1" d="M294.12,92c-3.25,2.28-6.82.12-5.54-3.85.91-3.6,5.28-4.86,7.47-1.53,1.33,2.1-.06,4.37-1.93,5.38Zm-.1-.17c1.46-.92,1-3,.26-4.11a3.07,3.07,0,0,0-3.58-1.2A2.26,2.26,0,0,0,290,90.4c1,1,2.49,2.4,4,1.44Z" transform="translate(-0.38 -0.6)"/><path class="cls-1" d="M288.71,106.7a163.42,163.42,0,0,1-14.86-22.63c7.08-4,14.52-8.67,21.28-13.21l.51-.34.28.38Q303.85,82,310.84,93.8c-7.27,4.43-14.87,8.79-22.13,12.9Zm.07-.19c5.83-4,14.38-9.78,20.18-13.52l-.56,1.33c-4.85-7.37-9.35-15-13.58-22.73l.8,0-5.25,3.1c-5.05,3-10.5,6.54-15.39,9.85l.34-.81c5.2,7,9.41,15,13.46,22.73Z" transform="translate(-0.38 -0.6)"/><path class="cls-1" d="M309.27,127.46c-3.74,1.37-6.63-1.65-4.35-5.15,1.81-3.24,6.34-3.32,7.6.45.75,2.39-1.18,4.21-3.25,4.7Zm-.06-.19c1.65-.5,1.76-2.62,1.32-3.9a3.06,3.06,0,0,0-3.15-2.08,2.24,2.24,0,0,0-1.66,3.55c.66,1.22,1.78,3,3.49,2.43Z" transform="translate(-0.38 -0.6)"/><path class="cls-1" d="M300.23,140.25a162.82,162.82,0,0,1-8.48-25.7c7.87-2.06,16.26-4.61,24-7.26l.59-.19.17.44q4.78,12.83,8.49,26c-8.17,2.4-16.65,4.64-24.73,6.73Zm.13-.16c6.65-2.34,16.42-5.73,23-7.84l-.89,1.14c-2.78-8.38-5.15-16.88-7.23-25.47l.75.25-5.86,1.64c-5.65,1.59-11.84,3.61-17.42,5.53l.54-.69c3.22,8.08,5.21,16.93,7.12,25.44Z" transform="translate(-0.38 -0.6)"/><path class="cls-1" d="M314.72,165.63c-4,.35-6-3.31-2.87-6.1,2.59-2.67,7-1.57,7.23,2.4.1,2.5-2.23,3.76-4.36,3.7Zm0-.2c1.72-.06,2.37-2.08,2.28-3.42a3.07,3.07,0,0,0-2.5-2.83,2.24,2.24,0,0,0-2.53,3c.33,1.35.95,3.32,2.75,3.25Z" transform="translate(-0.38 -0.6)"/><path class="cls-1" d="M302.68,175.65a163.84,163.84,0,0,1-1.54-27c8.14,0,16.91-.25,25-.81l.62,0,0,.47c.87,9.08,1.38,18.18,1.48,27.29-8.51.2-17.28.18-25.63.11Zm.17-.13c7-.54,17.34-1.28,24.23-1.62l-1.15.87c-.52-8.81-.61-17.64-.39-26.47l.66.44-6.09.06c-5.87.07-12.37.42-18.25.84l.69-.54c1,8.64.65,17.71.3,26.42Z" transform="translate(-0.38 -0.6)"/><path class="cls-1" d="M310.11,203.91c-3.92-.69-4.91-4.74-1.19-6.64,3.19-1.9,7.16.3,6.36,4.2-.55,2.43-3.13,3.05-5.17,2.44Zm.05-.19c1.68.39,2.83-1.4,3.09-2.72a3.07,3.07,0,0,0-1.69-3.38,2.25,2.25,0,0,0-3.22,2.25c0,1.39.06,3.45,1.82,3.85Z" transform="translate(-0.38 -0.6)"/><path class="cls-1" d="M295.89,210.47a163,163,0,0,1,5.5-26.5c7.85,2.15,16.4,4.13,24.39,5.69l.6.13-.07.47c-1.52,9-3.38,17.91-5.64,26.74-8.28-2-16.74-4.31-24.78-6.53Zm.19-.08c6.93,1.3,17.08,3.25,23.83,4.7l-1.34.55c1.78-8.64,4-17.19,6.47-25.67l.53.59-5.9-1.51c-5.69-1.45-12.06-2.8-17.85-3.92l.81-.33c-1.24,8.6-3.95,17.26-6.55,25.59Z" transform="translate(-0.38 -0.6)"/><path class="cls-1" d="M295.75,239.69c-3.61-1.68-3.52-5.85.56-6.72,3.58-1,6.84,2.14,5.06,5.7-1.15,2.21-3.81,2.14-5.62,1Zm.09-.17c1.53.81,3.1-.62,3.7-1.83a3.08,3.08,0,0,0-.76-3.7,2.25,2.25,0,0,0-3.69,1.34c-.39,1.33-.84,3.35.75,4.19Z" transform="translate(-0.38 -0.6)"/><path class="cls-1" d="M280.32,242.35a162.36,162.36,0,0,1,12.17-24.18c7,4.11,14.76,8.24,22.08,11.82l.55.27-.19.44q-5.69,12.44-12.37,24.37c-7.47-4.09-15.05-8.49-22.24-12.72Zm.2,0c6.36,3.05,15.66,7.56,21.8,10.71l-1.43.18c3.95-7.89,8.29-15.58,12.89-23.12l.36.71-5.31-3c-5.12-2.88-10.92-5.82-16.22-8.4l.86-.12c-3.43,8-8.29,15.66-13,23Z" transform="translate(-0.38 -0.6)"/><path class="cls-1" d="M272.62,270.54c-3.05-2.56-1.89-6.57,2.28-6.35,3.72-.05,6.05,3.84,3.41,6.81-1.69,1.84-4.23,1.08-5.69-.46Zm.13-.15c1.27,1.18,3.15.21,4-.81a3.06,3.06,0,0,0,.23-3.76,2.24,2.24,0,0,0-3.91.33c-.72,1.19-1.68,3-.36,4.24Z" transform="translate(-0.38 -0.6)"/><path class="cls-1" d="M257,269.11a164.42,164.42,0,0,1,18-20.2c5.73,5.78,12.14,11.78,18.28,17.12l.46.41-.3.37q-8.72,10.56-18.26,20.34c-6.16-5.88-12.34-12.09-18.19-18Zm.21,0c5.35,4.6,13.17,11.36,18.28,16l-1.43-.19c5.86-6.6,12-12.91,18.44-19l.16.78-4.35-4.27c-4.2-4.1-9-8.45-13.5-12.31l.87.12c-5.39,6.83-12.06,13-18.47,18.88Z" transform="translate(-0.38 -0.6)"/><path class="cls-1" d="M242.29,294.34c-2.29-3.25-.12-6.82,3.85-5.54,3.6.91,4.85,5.28,1.53,7.47-2.11,1.33-4.37-.06-5.38-1.93Zm.17-.1c.91,1.46,3,1,4.11.26a3,3,0,0,0,1.19-3.58,2.25,2.25,0,0,0-3.86-.69c-1,1-2.4,2.49-1.44,4Z" transform="translate(-0.38 -0.6)"/><path class="cls-1" d="M227.6,288.93a163.92,163.92,0,0,1,22.62-14.86c4,7.08,8.67,14.52,13.22,21.28l.34.51-.39.28q-11.14,7.94-22.89,14.92c-4.43-7.27-8.79-14.87-12.9-22.13Zm.19.07c4,5.83,9.78,14.38,13.52,20.18l-1.33-.56c7.37-4.85,15-9.35,22.73-13.58l0,.8-3.1-5.25c-3-5-6.55-10.5-9.85-15.39l.81.34c-7,5.2-15,9.41-22.73,13.46Z" transform="translate(-0.38 -0.6)"/><path class="cls-1" d="M206.84,309.49c-1.37-3.74,1.65-6.63,5.15-4.35,3.24,1.81,3.32,6.34-.46,7.6-2.38.75-4.2-1.18-4.69-3.25Zm.18-.06c.51,1.65,2.63,1.76,3.91,1.32A3.08,3.08,0,0,0,213,307.6a2.25,2.25,0,0,0-3.56-1.66c-1.22.66-3,1.78-2.43,3.49Z" transform="translate(-0.38 -0.6)"/><path class="cls-1" d="M194,300.45a163.5,163.5,0,0,1,25.7-8.48c2.07,7.87,4.62,16.26,7.26,24l.2.59-.45.17q-12.81,4.79-26,8.49c-2.39-8.17-4.63-16.65-6.73-24.73Zm.17.13c2.34,6.65,5.72,16.42,7.84,23l-1.15-.89c8.38-2.78,16.89-5.15,25.47-7.23l-.25.75-1.63-5.86c-1.59-5.65-3.61-11.84-5.54-17.42l.7.54c-8.08,3.22-16.93,5.21-25.44,7.12Z" transform="translate(-0.38 -0.6)"/><path class="cls-1" d="M167,333.92C75.14,333.92.38,259.16.38,167.26S75.14.6,167,.6,333.7,75.36,333.7,167.26,258.94,333.92,167,333.92ZM167,2.59C76.24,2.59,2.37,76.46,2.37,167.26S76.24,331.93,167,331.93s164.67-73.87,164.67-164.67S257.84,2.59,167,2.59Z" transform="translate(-0.38 -0.6)"/><path class="cls-1" d="M296.52,167.42c.16,92.51-93.11,156.3-178.84,120-47.43-19.7-80.23-68.56-80.13-120C36.69,74.75,131.89,11.05,217.29,46.91c47.62,19.5,79.88,69.23,79.23,120.51Zm-.3,0c.14-80.2-75.49-140.83-153.71-125-58.9,11.11-103.4,65.05-103.32,125-.67,81.19,73.89,141.27,153.1,125.25,59-11.33,104.47-64.8,103.93-125.25Z" transform="translate(-0.38 -0.6)"/><path class="cls-1" d="M124.54,45.5a124.62,124.62,0,0,1,.26,16.84c-.25,2.82-.45,6-2,8.49a15.4,15.4,0,0,1-2.69,3.43,28.27,28.27,0,0,0-4.6,6.85,6,6,0,0,0-1,3.26c.22,2.29,2.24,4.48,3.6,6.44s3.57,4.75,5,6.69c1.66,2.27,3.29,4.57,4.76,7a.15.15,0,0,1-.22.19,86.24,86.24,0,0,1-12.11-12c-2.31-3-5.14-7-3.3-10.94a25,25,0,0,1,4-5.31c1.83-2.12,4.5-3.55,5.68-6.11s.45-5.23.32-8.06a33.48,33.48,0,0,1,0-4.25,53.42,53.42,0,0,1,1.95-12.61.15.15,0,0,1,.3,0Z" transform="translate(-0.38 -0.6)"/><path class="cls-1" d="M110.43,208.42a10.33,10.33,0,0,1,2.2-3.38c2-1.88,2-4.86,3.86-6.91s4.64-2.83,7.19-3.76c5.76-1.84,11.95-1.61,17.88-1.34,3.07-.66,3.54-4.1,5.22-7a9.87,9.87,0,0,1,6.91-5,53.87,53.87,0,0,1,8.12-.39,111.74,111.74,0,0,0,15.66-1.28c5-.87,10.1-2.06,14.11-5.28s6.26-7.81,8.45-12.56a60.69,60.69,0,0,0,2.92-7.2c2.24-7.53,1.54-15.49,2-23.34q.24-8,.78-15.92L206.9,99.2c.24-5.15.73-10.63-1.34-15.44-2.15-5.14-7.69-6.57-12.45-8.45-5-1.89-9.89-3.8-14.93-5.35-6.36-1.8-17.05-5.11-21.25,1.83a22.22,22.22,0,0,1-2,3.59c-8.07,9-15.71-3.85-20.71,13.47-2.94,10.18-5.42,20.63-9.77,30.38-2,4.5-4.26,10.33-6.76,14.62-1.42,2.2-3.32,4.21-4.51,6.37a3.27,3.27,0,0,0-.43,2c.27,1.15,1.4,2.41,2.17,3.59s2.72,3.73,3.52,4.79c3.63,4.16,1,7.42-2.13,10.37a16.48,16.48,0,0,0-4,6.11C108.11,177,100.84,185,96,194.43c-.64,1.41-1.9,3.06-1.87,4.55.44,1.25,2,1.61,3.47,2a27.82,27.82,0,0,0,7.53.54,5.93,5.93,0,0,1,2.52.32,7.87,7.87,0,0,1,4.22,8.11c-.62,3.07-1,6.18-2.35,9.06a8.19,8.19,0,0,1-1.71,2.21l-.06.07a1.35,1.35,0,0,0,0,.34c0,.07,0,.13,0,.22.72,1.55,3,2.82,4.1,4.46a4.85,4.85,0,0,1-1,6.74c-.75.81-1.61,1.36-1.47,2.42a1.7,1.7,0,0,0,.73,1,15.52,15.52,0,0,1,3,2.91c1.3,1.7,1.68,4,2.1,6,.47,2.67.84,5.25,1.18,7.92,1.65,7.38-5.94,12.38-11.77,15-4.4,1.27-5.15,5.38-4.13,9.36a.15.15,0,0,1-.12.18.16.16,0,0,1-.18-.1,13.67,13.67,0,0,1-.55-4,6.65,6.65,0,0,1,1.27-3.89,7.91,7.91,0,0,1,3.38-2.32c4.4-2.2,9.28-5.42,10.78-10.3a13.59,13.59,0,0,0-.18-3.72c-.4-2.57-.86-5.23-1.38-7.77-.46-1.83-.76-3.69-1.92-5.16-1-1.41-2.51-2-3.64-3.39-1.52-2-.18-4.27,1.34-5.65,4.48-4.36-4.6-5.89-4-10.42.07-1.41,1.49-2,2-3.28a39.52,39.52,0,0,0,1.93-8.24,5.25,5.25,0,0,0-2.61-5.15c-1.58-.33-3.77.17-5.51-.06-3.5-.31-8.91-.61-10-4.91-.33-2.56,1.19-4.38,2.14-6.48a138.6,138.6,0,0,1,8.4-13.68,85.11,85.11,0,0,0,7.78-13.53,25.26,25.26,0,0,1,1.92-3.76c1.41-2.26,3.8-4.05,5.24-6a2.09,2.09,0,0,0,.38-2.15c-1.1-1.77-3.26-4.54-4.47-6.31a19.82,19.82,0,0,1-2.53-4.26c-.85-3,1.38-5.84,3-7.94,2.6-3,4.1-6.3,5.75-10,1.86-4.14,4.67-10.29,6.23-14.53,1.86-4.9,3.41-9.93,4.86-15,2-5.92,3.17-14.8,9.32-17.88,3.76-1.92,8.06.36,11.74-1.38a8.19,8.19,0,0,0,2.87-2.15c1.47-2,2.29-5.08,4.88-6.4,8.73-5.05,25.92,3.28,34.79,6.44,2.46,1,5,1.87,7.38,3.06C206,79.9,208,86,208.16,91.26c.3,5.16-.59,18.5-.81,23.88-.57,10.67-.11,21.12-.52,31.84a40.72,40.72,0,0,1-4.38,15.64c-2.24,4.93-4.82,10-9.23,13.5-8.48,6.38-21.18,6.46-31.38,6.8-8,0-11.76-.71-15.12,7.6-.89,1.89-2.69,4.06-5.07,4.23-2.11-.06-3.94-.32-6-.35A41.65,41.65,0,0,0,124,195.49c-2.38.77-5.1,1.39-6.89,3.23s-2,5-4.14,6.68a9.83,9.83,0,0,0-2.27,3.14c-.07.16-.36.06-.28-.12Z" transform="translate(-0.38 -0.6)"/><path class="cls-1" d="M137.49,145.19c-.5-3.95,2.78-6.83,6.65-6.67,3.31.15,6.55.43,9.74-.64l4.65-1.38c3.06-1.16,7-1.78,10.09-.15,1.33.62,3.5,1.93,4.1,3.12a38.06,38.06,0,0,0-4.62-1.64c-4.75-1.39-9.23,1.1-14,1.13a57,57,0,0,0-9.77,1.21c-1.57.27-3,.43-4.12,1.28a7.64,7.64,0,0,0-2.48,3.76c0,.1-.2.08-.2,0Z" transform="translate(-0.38 -0.6)"/><path class="cls-1" d="M142.54,139.59a4.34,4.34,0,0,1,.68,3.17,13.24,13.24,0,0,0-.54,1.57,3.47,3.47,0,0,0,.2,1.58,8.23,8.23,0,0,1,.44,3.18,7,7,0,0,1-1.06,3.13.12.12,0,0,1-.16,0,6.78,6.78,0,0,1-.91-3.22c-.12-1.68.9-3.17.85-4.71-.25-1.12-.8-1.93-.4-3.16a4.27,4.27,0,0,1,.7-1.57.12.12,0,0,1,.2,0Z" transform="translate(-0.38 -0.6)"/><path class="cls-1" d="M142.54,139.59a43.62,43.62,0,0,0,2.19,6.72c.67,2.08,2.4,4.47,4.68,4.79,2.06.29,1.43-3.7,1.63-5.06.23-2.52-.52-5.93-.4-7.25a12.25,12.25,0,0,1,2.42,9.16c-.22,1.42-.31,2.85-1.53,4-2,1.49-4.13-1-5.52-2.08a9,9,0,0,1-3.67-10.25.1.1,0,0,1,.2,0Z" transform="translate(-0.38 -0.6)"/><path class="cls-1" d="M126.87,135.18c3.65,2.88,6.85,2,9.83-1.23a39,39,0,0,1,6.33-5.53,88.16,88.16,0,0,1,11.19-6.16,41.16,41.16,0,0,1,33.28.68.15.15,0,0,1-.09.29,124.06,124.06,0,0,0-16.47-.94,76,76,0,0,0-16.2,1.52,25.47,25.47,0,0,0-5.8,2.1c-5.88,2.9-8.13,9.84-14.23,12.5a6.46,6.46,0,0,1-8.06-3,.15.15,0,0,1,.22-.2Z" transform="translate(-0.38 -0.6)"/><path class="cls-1" d="M236.37,240.62c.22,4-3.51,5.86-6.19,2.66-2.58-2.68-1.32-7,2.65-7.14,2.5,0,3.68,2.36,3.54,4.48Zm-.19,0c0-1.73-2-2.44-3.35-2.4a3.07,3.07,0,0,0-2.91,2.4,2.25,2.25,0,0,0,2.91,2.63c1.37-.28,3.36-.83,3.35-2.63Z" transform="translate(-0.38 -0.6)"/><path class="cls-1" d="M246,253a164.12,164.12,0,0,1-27.06.61c.33-8.14.34-16.91.06-25.05v-.62l.47,0c9.11-.55,18.22-.74,27.33-.52-.1,8.52-.43,17.28-.79,25.61Zm-.12-.16c-.3-7.05-.68-17.38-.78-24.28l.84,1.18c-8.83.21-17.65,0-26.48-.53l.47-.65-.16,6.09c-.13,5.87,0,12.38.2,18.27l-.51-.71c8.67-.72,17.72,0,26.42.63Z" transform="translate(-0.38 -0.6)"/></svg>