<?xml version="1.0" encoding="UTF-8"?>
<svg id="Layer_1" data-name="Layer 1" xmlns="http://www.w3.org/2000/svg" viewBox="0 0 115.52 182.27">
  <defs>
    <style>
      .cls-1 {
        fill: #fff;
        stroke-width: 0px;
      }
    </style>
  </defs>
  <path class="cls-1" d="m97.42,16.85C85.66,5.27,69.94-.81,54.26.09,23.37,1.91-1.41,30.48.06,62.51c0,21.28-.01,42.56-.02,63.85,1.85,29.61,25.62,54.13,54.12,55.82,1.04.06,2.08.09,3.12.09,14.62,0,29.07-6.05,40.04-16.86,12.18-12,18.75-28.62,18.04-45.64l.09-57.27c.71-17.02-5.87-33.65-18.05-45.65Zm4.61,45.2l-.04,23.88-37.5.12V14.09c8.61,1.53,16.86,5.8,23.5,12.35,9.51,9.37,14.63,22.35,14.04,35.62ZM51.04,13.97v72.12l-37.54.12v-23.85s0-.33,0-.33c-1.15-23.47,15.71-44.55,37.54-48.05ZM13.48,125.72v-26.07s37.56-.12,37.56-.12v68.78c-20-3.17-36.13-21.12-37.56-42.6Zm74.42,30.11c-6.62,6.52-14.84,10.78-23.41,12.32v-68.66l37.48-.12-.04,20.52v.31c.59,13.27-4.52,26.26-14.03,35.62Z"/>
</svg>