<svg id="Layer_1" data-name="Layer 1" xmlns="http://www.w3.org/2000/svg" viewBox="0 0 333.13 333.13"><defs><style>.cls-1{stroke:#fff;stroke-miterlimit:10;}.cls-2{fill:#fff;}</style></defs><circle class="cls-1" cx="166.56" cy="166.56" r="166.06"/><path class="cls-2" d="M261.84,79.17c61.58,65.24,39.58,170.72-42.42,206.69-66.38,29.62-143.59-2-172.11-68.49A123.47,123.47,0,0,1,36.92,162a91.19,91.19,0,0,1,.89-10.29,99.16,99.16,0,0,1,1.77-10.19c9.23-42.21,40.81-77.82,80.21-94.73l.08.18c-37.17,17-67,50.23-77.2,90-18.12,67.86,28.79,140.46,96.45,155.92,61.77,14.93,126.24-20.8,148.05-80.16,17.42-46.52,7-96.7-25.33-133.54Z" transform="translate(-0.48 -0.7)"/><path class="cls-2" d="M191.31,103.2c-4.5-6.94-11.29-13.37-19.76-14.34-4.24-.5-8.21,1.16-12.39,1.84-12.64,2-27.57-1.62-37-10.59-8.49-8-9.13-21.22-5.46-30.82,6.57-19,24.4-22.22,42.22-22.58,22.19-1.28,44.72,3.16,64,14.48a110.52,110.52,0,0,1,38.92,38.16,123.5,123.5,0,0,0-14.13-16.59,112.23,112.23,0,0,0-77.82-32.34c-10.6.09-21.69,0-31.88,3.13a26.29,26.29,0,0,0-17.71,17.06,29.5,29.5,0,0,0-1.44,16.9c1.76,8,8.32,13.88,15.67,17.12,7.54,3.33,16.06,5.05,24.28,4,4.21-.56,8.56-2,12.91-1.23,8.82,1.48,15.46,8.31,19.56,15.81Z" transform="translate(-0.48 -0.7)"/><path class="cls-2" d="M118.08,70.41A133.9,133.9,0,0,1,106.6,85.34c-3.89,4.69-9.2,8.21-12.82,13-6.92,9.63-9.5,21.86-8.64,33.87a45.55,45.55,0,0,0,2.57,11.92c1.41,4,3.7,7.34,5.28,11.35a23.58,23.58,0,0,1-1.44,19.71c-2.74,5.33-5.63,11.26-8.2,16.68-4.06,8.57-9.4,18.87-12,27.93-3,9.73-3.8,19.76-3.37,30.14a.3.3,0,0,1-.29.32.31.31,0,0,1-.3-.22c-8-26.61,3.43-49.36,16.36-72,1.6-2.93,4.61-7.45,5.61-10.44a21.5,21.5,0,0,0,.5-11.15c-1-3.89-2.91-7.76-4.07-11.68a76.59,76.59,0,0,1-2.57-12.37c-2.2-15-1.84-31.8,11.05-42.15l4.83-3.88c6.45-5.12,12.18-11.06,18.53-16.39a.3.3,0,0,1,.44,0,.32.32,0,0,1,0,.36Z" transform="translate(-0.48 -0.7)"/><path class="cls-2" d="M134.05,86c-2.44,7.84-3.78,16-6.17,23.8-.79,2.63-1.62,5.25-2.56,7.84-.63,2-2.19,5.34-2.16,7.24.07,2.78,1.75,4.36,2.6,7.21,1,3-.23,6.17-1.24,9-3.41,10.53-9.52,19.84-15.17,29.21-3.23,6-5.86,12.31-8.86,18.39-2.61,5,7.52,6.78,10.86,6.82,2.91.21,6.53-1.24,9,1.13a13.36,13.36,0,0,1,1.92,3.92c.68,2,2.32,5,.93,7.19a40.09,40.09,0,0,1-4,4.59c.09-.16,0-.07.08-.15s0-.09,0,0a5,5,0,0,0,.21.59,40.67,40.67,0,0,0,3,4.94,15.67,15.67,0,0,1,2,2.93,5.5,5.5,0,0,1-.55,4.49,11.73,11.73,0,0,0-.82,1.56,3.64,3.64,0,0,0,.88,3.55c.42.33.33.24,1,.44,2.8.72,3.21,3.82,2.42,6-1.35,3.92-2.84,7.32-3.16,11.4-1.25,6.72,5.86,9.3,11.37,10.62,15.71,3.5,32.51.95,47-5.83a.2.2,0,0,1,.19.35,68.49,68.49,0,0,1-48,9.27c-17.15-3.48-17.27-12.77-11.38-27a4.27,4.27,0,0,0,.23-1.08s0,0,0,0a.14.14,0,0,0,.07.1c.06.08.29.15,0,.06-4.78-1.21-6-7.74-3.19-11.3a1.83,1.83,0,0,0,.35-1.39,1.54,1.54,0,0,0-.23-.37,37.87,37.87,0,0,1-3.44-5.39c-.81-1.62-2.1-3.68-1-5.56a5.78,5.78,0,0,1,1-1c.44-.4,1.66-1.66,2.09-2.11s1-1.07,1.26-1.41a6.54,6.54,0,0,0-.39-2.6,37.34,37.34,0,0,0-1.69-5,2.31,2.31,0,0,0-1.33-.74c-1.9-.31-4,0-6-.17a24.67,24.67,0,0,1-8.18-2.13c-1.91-.89-4.26-2.51-4.34-4.93.23-2.27,1.57-3.94,2.42-5.92,1.22-2.43,2.31-4.92,3.41-7.41,4-10.14,10.17-19.33,13.85-29.55,1.42-3.71,2.83-7.6,4-11.38a4.3,4.3,0,0,0,.2-1.49c0-2.55-1.94-4.66-2.5-7.33-1.13-3.72,1.15-7.51,2.35-10.77,2-5,3.88-10.12,5.55-15.27a120.26,120.26,0,0,1,5.7-15.41c.09-.22.46-.09.38.14Z" transform="translate(-0.48 -0.7)"/><path class="cls-2" d="M201.27,120.76c13.14,10.09,17,27,12.32,42.58a53.46,53.46,0,0,0-1.91,5.87c-.94,4-.24,7.77,1.28,11.67S216,189,217.61,193c2.51,6.62,6,12.89,7.73,19.82,1.92,11-5.37,20.89-12.29,28.57-5.77,6.52-12,13-19.11,18.12-3.55,2.59-7.19,4.92-10.61,7.36-10.47,7.36-17.73,17.89-23,29.61a.26.26,0,0,1-.48-.16,61.16,61.16,0,0,1,15.54-28.83c4.63-4.62,10.29-8.42,15.38-12.27a152.49,152.49,0,0,0,18.82-17,90.48,90.48,0,0,0,8.22-9.53c3.27-4.48,5.73-9.85,5.31-15.49a35.4,35.4,0,0,0-2.07-7.58,190.18,190.18,0,0,0-7.68-17.8c-2.27-4.76-5.92-10.16-6-15.69-.35-5.71,2.66-10.59,3.24-16,2.14-13-1.24-24.84-9.73-34.94-.19-.21.13-.55.35-.36Z" transform="translate(-0.48 -0.7)"/><path class="cls-2" d="M135.06,167.41a17.44,17.44,0,0,1,25.39-13.68,18,18,0,0,1,7.78,7.72,22.29,22.29,0,0,0-8.44-6.3c-10.47-4.43-21.39,1.67-24.73,12.26Z" transform="translate(-0.48 -0.7)"/><path class="cls-2" d="M144.38,154.73c2,3.73,7.79,22.09-.76,20.68-5.15-1.29-6.74-9.19-6.4-13.66.7,3.64,3.22,12.09,7.6,11.8,3.22-1.27,0-15.58-.44-18.82Z" transform="translate(-0.48 -0.7)"/><path class="cls-2" d="M144,154.38a15.18,15.18,0,0,1,1.81,4.25c.38.75,1.36.43,2,.12,2.37-1.15,1.35-4.31-.64-5.35l.16,0c-1,.19-2.35.67-3.33,1Zm0,0a20,20,0,0,1,3.29-1.45,4.35,4.35,0,0,1,2.57,3,3.18,3.18,0,0,1-3.77,3.73,1.27,1.27,0,0,1-.81-.82,25.91,25.91,0,0,0-1.28-4.46Z" transform="translate(-0.48 -0.7)"/><path class="cls-2" d="M130.26,140.52c-.19,2.09,2.25,3.94,4.19,3.84,1.77-.17,4.25-1.82,5.87-2.6l.28-.06c1.92-1,4-2,5.94-2.85,6.47-2.77,13.81-2.33,20.51-.81a38.89,38.89,0,0,1,8.63,3.17l-.69.85a23.77,23.77,0,0,0-4.71-3.65c-5.15-3.12-11.27-4.08-17.25-4.07-7,.15-14.4.61-20.58,4.26-.81.49-1.92,1-2.19,1.92Zm-.19,0c.27-1.09,1.4-1.55,2.23-2.14l2.65-1.59c11.69-6.86,31.81-6.57,40.87,4.58l2.23,2.67-2.92-1.82c-7.56-5-17.46-5.48-25.85-2.46-2.82,1-5.83,2.41-8.68,3.34l.28-.06c-1.9.62-4.35,1.95-6.43,1.93-2.16-.2-4.6-2.15-4.38-4.45Z" transform="translate(-0.48 -0.7)"/><path class="cls-2" d="M158.7,316.06c-.94,8.56-10.61,11.58-15.77,4.42-5-6.64-.26-16.11,8.29-15.15,5.23.58,8.26,5.88,7.48,10.73Zm-.2,0c.77-6.74-8.05-11.07-13.22-7.14-5.91,4.34-3.91,13.47,3.77,13.84,4.11.27,8.92-2.17,9.45-6.7Z" transform="translate(-0.48 -0.7)"/><path class="cls-2" d="M132.31,312c-2.46,8.25-12.5,9.5-16.3,1.53-3.77-7.42,2.61-15.89,10.86-13.42,5,1.5,7.07,7.26,5.44,11.89Zm-.19-.06c2-6.5-6-12.33-11.73-9.39-6.59,3.22-6.25,12.55,1.23,14.29,4,1,9.16-.54,10.5-4.9Z" transform="translate(-0.48 -0.7)"/><path class="cls-2" d="M107.08,303.23c-3.89,7.68-14,7.11-16.32-1.4-2.38-8,5.41-15.17,13.08-11.27,4.7,2.38,5.67,8.41,3.24,12.67Zm-.18-.09c3.09-6.05-3.65-13.2-9.87-11.34-7.06,2-8.39,11.24-1.34,14.28,3.76,1.71,9.12,1.11,11.21-2.94Z" transform="translate(-0.48 -0.7)"/><path class="cls-2" d="M83.81,290.12c-5.2,6.87-15,4.51-15.81-4.28-.91-8.28,8-14,14.89-8.76,4.19,3.18,4.07,9.29.92,13Zm-.16-.12c4.12-5.39-1.24-13.63-7.68-12.91-7.31.7-10.27,9.56-3.87,13.81,3.39,2.35,8.77,2.72,11.55-.9Z" transform="translate(-0.48 -0.7)"/><path class="cls-2" d="M63.25,273.08c-6.34,5.83-15.6,1.74-14.78-7,.58-8.31,10.4-12.31,16.21-6,3.56,3.88,2.34,9.86-1.43,13Zm-.13-.15c5-4.57,1.21-13.63-5.25-14.08-7.32-.61-11.81,7.58-6.28,12.91,2.92,2.91,8.15,4.23,11.53,1.17Z" transform="translate(-0.48 -0.7)"/><path class="cls-2" d="M46.07,252.64c-7.28,4.6-15.67-1.08-13.29-9.57,2-8.07,12.43-10.25,17-3,2.82,4.45.55,10.12-3.72,12.54Zm-.1-.17c5.75-3.61,3.63-13.2-2.66-14.79-7.08-1.91-13,5.34-8.47,11.57,2.35,3.39,7.25,5.62,11.13,3.22Z" transform="translate(-0.48 -0.7)"/><path class="cls-2" d="M32.81,229.45c-8,3.23-15.22-3.85-11.36-11.78,3.46-7.58,14.06-7.87,17.27.12,2,4.87-1.27,10.05-5.91,11.66Zm-.07-.18c6.31-2.52,5.93-12.34,0-15-6.63-3.14-13.72,2.94-10.4,9.88,1.7,3.75,6.13,6.82,10.37,5.15Z" transform="translate(-0.48 -0.7)"/><path class="cls-2" d="M23.91,204.28c-8.43,1.75-14.29-6.51-9.08-13.63,4.76-6.83,15.24-5.23,17,3.2,1.07,5.15-3,9.67-7.89,10.43Zm0-.2c6.66-1.35,8-11.08,2.72-14.78-6-4.28-14,.45-12,7.86,1,4,4.82,7.81,9.29,6.92Z" transform="translate(-0.48 -0.7)"/><path class="cls-2" d="M19.65,177.92c-8.61.21-12.9-9-6.5-15,5.9-5.88,15.93-2.43,16.12,6.18.14,5.26-4.72,9-9.62,8.85Zm0-.2c6.78-.15,9.88-9.47,5.3-14.06-5.1-5.27-13.87-2.07-13.21,5.59.28,4.11,3.35,8.55,7.91,8.47Z" transform="translate(-0.48 -0.7)"/><path class="cls-2" d="M20.16,151.22c-8.51-1.33-11.09-11.12-3.71-15.95,6.85-4.73,16.1.46,14.76,9-.81,5.2-6.25,8-11,7Zm0-.2c6.71,1.07,11.42-7.55,7.73-12.88-4.07-6.1-13.28-4.52-14,3.14-.46,4.09,1.76,9,6.26,9.74Z" transform="translate(-0.48 -0.7)"/><path class="cls-2" d="M25.43,125c-8.13-2.82-8.93-12.92-.81-16.36,7.59-3.42,15.77,3.33,12.93,11.46-1.72,5-7.57,6.74-12.12,4.9Zm.07-.19c6.4,2.25,12.58-5.39,9.91-11.3-2.93-6.73-12.27-6.81-14.34.59-1.18,4,.13,9.18,4.43,10.71Z" transform="translate(-0.48 -0.7)"/><path class="cls-2" d="M35.29,100.22C27.79,96,28.81,85.92,37.42,84c8.08-2,14.92,6.08,10.67,13.57-2.58,4.59-8.65,5.28-12.8,2.66Zm.1-.17c5.9,3.36,13.34-3.06,11.77-9.35-1.68-7.14-10.85-8.89-14.21-2-1.87,3.68-1.51,9.06,2.44,11.33Z" transform="translate(-0.48 -0.7)"/><path class="cls-2" d="M49.42,77.56c-6.62-5.5-3.82-15.23,5-15.59,8.31-.54,13.59,8.65,8.07,15.26-3.36,4-9.45,3.65-13.07.33Zm.13-.15c5.21,4.36,13.68-.62,13.25-7.09-.37-7.33-9.09-10.69-13.63-4.49-2.49,3.29-3.1,8.64.38,11.58Z" transform="translate(-0.48 -0.7)"/><path class="cls-2" d="M67.38,57.79c-5.54-6.59-1-15.66,7.69-14.45,8.27.95,11.83,10.94,5.23,16.46-4,3.38-10,1.9-12.92-2Zm.15-.12c4.34,5.22,13.57,1.82,14.3-4.62.94-7.28-7-12.14-12.61-6.84-3,2.78-4.59,7.94-1.69,11.46Z" transform="translate(-0.48 -0.7)"/><path class="cls-2" d="M88.57,41.55C84.3,34.07,90.34,26,98.72,28.7c8,2.41,9.69,12.88,2.2,17.13-4.57,2.61-10.13.09-12.35-4.28Zm.17-.1c3.35,5.91,13,4.22,14.9-2,2.22-7-4.76-13.2-11.18-9-3.49,2.19-5.95,7-3.72,11Z" transform="translate(-0.48 -0.7)"/><path class="cls-2" d="M112.32,29.35c-2.86-8.12,4.53-15,12.29-10.83,7.41,3.8,7.22,14.4-.9,17.25-5,1.75-10-1.72-11.39-6.42Zm.19-.07c2.24,6.41,12.06,6.48,15,.7,3.44-6.48-2.32-13.83-9.4-10.83C114.3,20.69,111,25,112.51,29.28Z" transform="translate(-0.48 -0.7)"/><path class="cls-2" d="M137.87,21.58c-1.37-8.5,7.15-14,14-8.46,6.62,5.06,4.54,15.46-4,16.81-5.19.84-9.52-3.47-10.06-8.35Zm.2,0c1.05,6.71,10.71,8.53,14.64,3.37,4.54-5.76.19-14-7.31-12.34-4,.83-8,4.46-7.33,9Z" transform="translate(-0.48 -0.7)"/><path class="cls-2" d="M164.4,18.5c.17-8.6,9.52-12.48,15.3-5.82,5.61,6.16,1.71,16-6.89,15.84-5.26-.11-8.75-5.12-8.41-10Zm.2,0c-.16,6.79,9,10.3,13.8,5.93,5.5-4.86,2.69-13.77-5-13.45-4.12.1-8.69,3-8.81,7.52Z" transform="translate(-0.48 -0.7)"/><path class="cls-2" d="M191.05,20.21c1.7-8.44,11.6-10.58,16.1-3,4.41,7.06-1.18,16.07-9.62,14.35-5.15-1.05-7.69-6.6-6.48-11.36Zm.19.05c-1.37,6.64,7,11.74,12.53,8.3,6.27-3.8,5.1-13.07-2.51-14.13-4.07-.64-9.08,1.36-10,5.83Z" transform="translate(-0.48 -0.7)"/><path class="cls-2" d="M217,26.65c3.19-8,13.31-8.34,16.38-.07,3.08,7.74-4,15.6-12,12.4-4.89-1.94-6.4-7.86-4.36-12.33Zm.19.08C214.61,33,222,39.54,228,37.13c6.85-2.61,7.35-11.94,0-14.34-3.89-1.36-9.17-.28-10.89,3.94Z" transform="translate(-0.48 -0.7)"/><path class="cls-2" d="M241.31,37.62c4.57-7.31,14.58-5.83,16.13,2.85,1.65,8.16-6.75,14.63-14,10.06-4.47-2.79-4.89-8.89-2.09-12.91Zm.17.11c-3.62,5.74,2.46,13.46,8.81,12.17,7.21-1.35,9.37-10.44,2.61-14.11-3.58-2-9-1.91-11.42,1.94Z" transform="translate(-0.48 -0.7)"/><path class="cls-2" d="M263.31,52.75c5.8-6.37,15.39-3.13,15.36,5.69.17,8.33-9.25,13.19-15.61,7.39-3.89-3.54-3.22-9.62.25-13.08Zm.15.14c-4.59,5,0,13.69,6.49,13.55,7.34,0,11.09-8.6,5.09-13.41-3.16-2.64-8.48-3.49-11.58-.14Z" transform="translate(-0.48 -0.7)"/><path class="cls-2" d="M282.26,71.57c6.84-5.23,15.7-.33,14.09,8.34-1.32,8.22-11.46,11.32-16.68,4.48-3.2-4.18-1.45-10,2.59-12.82Zm.12.16c-5.41,4.11-2.43,13.47,4,14.49,7.23,1.27,12.44-6.48,7.4-12.28-2.64-3.16-7.73-5-11.37-2.21Z" transform="translate(-0.48 -0.7)"/><path class="cls-2" d="M297.54,93.47c7.66-3.93,15.5,2.48,12.38,10.72-2.77,7.86-13.3,9.1-17.21,1.43-2.41-4.68.36-10.13,4.83-12.15Zm.09.18c-6.06,3.08-4.8,12.82,1.31,15,6.89,2.54,13.4-4.16,9.48-10.77-2-3.58-6.72-6.25-10.79-4.2Z" transform="translate(-0.48 -0.7)"/><path class="cls-2" d="M308.66,117.75c8.24-2.5,14.82,5.2,10.27,12.76-4.13,7.23-14.71,6.57-17.19-1.67-1.53-5,2.16-9.9,6.92-11.09Zm.06.19c-6.51,2-7,11.76-1.38,15,6.32,3.73,13.93-1.69,11.25-8.9-1.36-3.89-5.5-7.35-9.87-6.06Z" transform="translate(-0.48 -0.7)"/><path class="cls-2" d="M315.27,143.62c8.56-1,13.65,7.77,7.82,14.39-5.35,6.38-15.64,3.84-16.61-4.71-.6-5.23,3.9-9.36,8.79-9.68Zm0,.2c-6.75.75-9,10.32-4,14.48,5.55,4.79,14,.81,12.65-6.75-.64-4.07-4.09-8.21-8.63-7.73Z" transform="translate(-0.48 -0.7)"/><path class="cls-2" d="M317.16,170.26c8.59.56,12,10.08,5.12,15.55-6.4,5.33-16.08,1-15.5-7.6.34-5.25,5.5-8.51,10.38-8Zm0,.2C310.37,170,306.45,179,310.6,184c4.6,5.71,13.63,3.3,13.66-4.39.08-4.12-2.57-8.81-7.12-9.14Z" transform="translate(-0.48 -0.7)"/><path class="cls-2" d="M314.25,196.81c8.36,2.08,10.05,12.06,2.27,16.21-7.25,4.1-16-1.9-13.9-10.24,1.27-5.11,6.94-7.4,11.63-6Zm-.05.19c-6.58-1.67-12.05,6.5-8.85,12.14,3.51,6.44,12.82,5.68,14.22-1.87.82-4-.95-9.13-5.37-10.27Z" transform="translate(-0.48 -0.7)"/><path class="cls-2" d="M306.66,222.41c7.85,3.54,7.73,13.66-.67,16.36-7.86,2.73-15.4-4.73-11.85-12.56,2.17-4.8,8.15-6,12.52-3.8Zm-.09.18c-6.18-2.82-13,4.24-10.88,10.36,2.31,7,11.61,7.89,14.33.7,1.53-3.83.69-9.15-3.45-11.06Z" transform="translate(-0.48 -0.7)"/><path class="cls-2" d="M294.61,246.24c7.09,4.89,5.17,14.83-3.57,16-8.23,1.29-14.31-7.4-9.42-14.48,3-4.33,9.1-4.48,13-1.5Zm-.11.16c-5.58-3.87-13.57,1.85-12.56,8.26,1,7.26,10,9.83,14,3.24,2.19-3.49,2.32-8.88-1.41-11.5Z" transform="translate(-0.48 -0.7)"/><path class="cls-2" d="M278.5,267.54c6.11,6.07,2.45,15.51-6.37,15.09-8.32-.21-12.76-9.84-6.67-15.93,3.71-3.73,9.74-2.79,13,.84Zm-.14.14c-4.79-4.81-13.67-.6-13.82,5.88-.29,7.33,8.09,11.46,13.16,5.69,2.78-3.05,3.87-8.33.66-11.57Z" transform="translate(-0.48 -0.7)"/><path class="cls-2" d="M258.85,285.62c4.93,7.07-.36,15.7-9,13.71-8.15-1.69-10.8-12-3.72-16.87,4.31-3,10.08-1,12.68,3.16Zm-.16.11c-3.86-5.58-13.35-3-14.66,3.32C242.44,296.21,250,301.77,256,297c3.27-2.5,5.29-7.5,2.71-11.27Z" transform="translate(-0.48 -0.7)"/><path class="cls-2" d="M236.29,299.9c3.58,7.83-3.17,15.38-11.27,11.89-7.72-3.12-8.49-13.7-.65-17.26,4.78-2.19,10.1.81,11.92,5.37Zm-.18.08c-2.8-6.18-12.59-5.37-15,.65-2.85,6.76,3.55,13.57,10.33,9.95,3.67-1.87,6.54-6.43,4.68-10.6Z" transform="translate(-0.48 -0.7)"/><path class="cls-2" d="M211.54,309.93c2.12,8.34-5.86,14.56-13.21,9.68-7-4.45-5.91-15,2.44-17.1,5.1-1.3,9.8,2.61,10.77,7.42Zm-.2,0c-1.65-6.58-11.43-7.53-14.88-2-4,6.15,1.07,14,8.39,11.63,3.94-1.18,7.59-5.16,6.49-9.59Z" transform="translate(-0.48 -0.7)"/><path class="cls-2" d="M185.39,315.37c.6,8.59-8.36,13.29-14.72,7.17-6.13-5.63-3.14-15.81,5.45-16.39,5.25-.37,9.17,4.31,9.27,9.22Zm-.2,0c-.44-6.77-9.9-9.45-14.28-4.67-5,5.33-1.44,14,6.18,13,4.09-.47,8.39-3.73,8.1-8.28Z" transform="translate(-0.48 -0.7)"/><path class="cls-2" d="M235.29,241.32c-.13-8.61,9.09-12.81,15.09-6.35,5.82,6,2.26,15.95-6.34,16.06-5.26.08-8.93-4.81-8.75-9.71Zm.2,0c.07,6.78,9.36,10,14,5.45,5.33-5.05,2.21-13.86-5.45-13.27-4.12.24-8.58,3.25-8.55,7.82Z" transform="translate(-0.48 -0.7)"/></svg>