<svg id="Layer_1" data-name="Layer 1" xmlns="http://www.w3.org/2000/svg" viewBox="0 0 333.13 333.13"><defs><style>.cls-1{stroke:#fff;stroke-miterlimit:10;}.cls-2{fill:#fff;}</style></defs><circle class="cls-1" cx="166.56" cy="166.56" r="166.06"/><path class="cls-2" d="M150.6,301.63a167.33,167.33,0,0,1,27.78,0c-.52,8.34-.73,17.34-.63,25.7V328l-.49,0c-9.35.36-18.71.35-28-.08.3-8.73.83-17.72,1.39-26.26Zm.12.17c.14,7.24.3,17.85.25,24.93l-.83-1.23c9.06,0,18.11.4,27.15,1.14l-.49.66.3-6.25c.27-6,.29-12.7.21-18.75l.5.74c-8.91.55-18.18-.37-27.09-1.24Z" transform="translate(-0.48 -0.7)"/><path class="cls-2" d="M163.54,326.62a76.38,76.38,0,0,1,.55-25.06,76.93,76.93,0,0,1-.55,25.06Z" transform="translate(-0.48 -0.7)"/><path class="cls-2" d="M177.29,314.93a88.37,88.37,0,0,1-26.87-.52,87.73,87.73,0,0,1,26.87.52Z" transform="translate(-0.48 -0.7)"/><path class="cls-2" d="M116.39,292.79A167.55,167.55,0,0,1,143.22,300c-2.66,7.92-5.2,16.56-7.26,24.66l-.16.61-.48-.11q-13.69-3.11-27.08-7.34c2.55-8.36,5.4-16.89,8.15-25Zm.06.2c-1.73,7-4.32,17.32-6.21,24.15l-.48-1.41c8.76,2.33,17.39,5.08,25.93,8.13l-.64.51,1.9-6c1.82-5.74,3.57-12.19,5.06-18.05l.29.85c-8.75-1.79-17.46-5.07-25.85-8.22Z" transform="translate(-0.48 -0.7)"/><path class="cls-2" d="M122.41,320.28a76.39,76.39,0,0,1,7-24.06,76.92,76.92,0,0,1-7,24.06Z" transform="translate(-0.48 -0.7)"/><path class="cls-2" d="M138.72,312.55a88,88,0,0,1-25.81-7.46,87.79,87.79,0,0,1,25.81,7.46Z" transform="translate(-0.48 -0.7)"/><path class="cls-2" d="M85.62,275.4a168.24,168.24,0,0,1,24.06,13.89c-4.62,7-9.3,14.65-13.4,21.94l-.31.55-.44-.23Q83.11,305,71.28,297.45c4.63-7.41,9.58-14.92,14.34-22.05Zm0,.22c-3.5,6.34-8.67,15.6-12.25,21.71l-.11-1.48c7.86,4.52,15.48,9.41,23,14.56l-.75.33,3.37-5.26c3.25-5.08,6.61-10.86,9.56-16.14l.06.9c-8-4-15.55-9.41-22.83-14.62Z" transform="translate(-0.48 -0.7)"/><path class="cls-2" d="M84.32,303.52a76.53,76.53,0,0,1,13-21.43,76.82,76.82,0,0,1-13,21.43Z" transform="translate(-0.48 -0.7)"/><path class="cls-2" d="M102.08,300.27a87.73,87.73,0,0,1-23-13.89,88.16,88.16,0,0,1,23,13.89Z" transform="translate(-0.48 -0.7)"/><path class="cls-2" d="M60.41,250.65a167.88,167.88,0,0,1,19.64,19.64C73.79,275.82,67.27,282,61.43,288l-.44.45-.37-.33q-10.29-9.54-19.77-19.9c6.38-6,13.12-11.93,19.56-17.58Zm0,.21c-5,5.22-12.41,12.83-17.46,17.8l.29-1.46c6.41,6.4,12.52,13.1,18.39,20l-.81.12,4.62-4.21c4.45-4.07,9.19-8.77,13.41-13.11l-.17.88c-6.68-5.92-12.59-13.12-18.27-20Z" transform="translate(-0.48 -0.7)"/><path class="cls-2" d="M51.88,277.47A76.88,76.88,0,0,1,70,260.13a76.68,76.68,0,0,1-18.11,17.34Z" transform="translate(-0.48 -0.7)"/><path class="cls-2" d="M69.87,278.92a88,88,0,0,1-18.63-19.36,88.2,88.2,0,0,1,18.63,19.36Z" transform="translate(-0.48 -0.7)"/><path class="cls-2" d="M42.46,220.21a168.54,168.54,0,0,1,13.89,24c-7.48,3.72-15.38,8-22.57,12.3l-.55.32-.26-.41Q25.49,244.59,19,232.13C26.73,228,34.78,224,42.46,220.21Zm-.1.19c-6.2,3.74-15.3,9.18-21.46,12.68l.65-1.34c4.54,7.84,8.7,15.89,12.59,24.09l-.82-.09,5.56-2.87c5.35-2.78,11.14-6.1,16.34-9.2l-.39.81c-4.92-7.44-8.77-15.93-12.47-24.08Z" transform="translate(-0.48 -0.7)"/><path class="cls-2" d="M27.28,243.91a76.63,76.63,0,0,1,22-12.06,77,77,0,0,1-22,12.06Z" transform="translate(-0.48 -0.7)"/><path class="cls-2" d="M44.28,250a88.24,88.24,0,0,1-13-23.53,88.24,88.24,0,0,1,13,23.53Z" transform="translate(-0.48 -0.7)"/><path class="cls-2" d="M33,186.16A167.76,167.76,0,0,1,40.19,213c-8.19,1.65-16.94,3.78-25,6l-.62.17-.14-.47q-4.15-13.42-7.18-27.12c8.51-2,17.33-3.78,25.73-5.45Zm-.14.16c-7,2-17.16,4.91-24,6.69l1-1.12c2.36,8.75,4.29,17.6,5.92,26.52l-.76-.3,6.11-1.33c5.88-1.3,12.34-3,18.17-4.65l-.59.68c-2.83-8.47-4.35-17.66-5.81-26.49Z" transform="translate(-0.48 -0.7)"/><path class="cls-2" d="M12.2,205.12a76.81,76.81,0,0,1,24.35-6,76.68,76.68,0,0,1-24.35,6Z" transform="translate(-0.48 -0.7)"/><path class="cls-2" d="M27.06,215.38a87.67,87.67,0,0,1-6.45-26.09,88.36,88.36,0,0,1,6.45,26.09Z" transform="translate(-0.48 -0.7)"/><path class="cls-2" d="M32.67,150.82a167.33,167.33,0,0,1,0,27.78c-8.34-.52-17.34-.73-25.7-.63H6.35l0-.49c-.35-9.35-.34-18.71.09-28,8.73.3,17.72.84,26.26,1.39Zm-.17.12c-7.24.14-17.85.3-24.93.25l1.23-.83c0,9.06-.41,18.11-1.14,27.15L7,177l6.25.3c6,.27,12.7.29,18.75.21l-.75.5c-.54-8.91.37-18.18,1.25-27.09Z" transform="translate(-0.48 -0.7)"/><path class="cls-2" d="M7.68,163.76a76.66,76.66,0,0,1,25.06.55,76.93,76.93,0,0,1-25.06-.55Z" transform="translate(-0.48 -0.7)"/><path class="cls-2" d="M19.37,177.51a88.29,88.29,0,0,1,.52-26.86,88,88,0,0,1-.52,26.86Z" transform="translate(-0.48 -0.7)"/><path class="cls-2" d="M41.51,116.61a168.61,168.61,0,0,1-7.19,26.83c-7.92-2.66-16.56-5.19-24.66-7.26L9.05,136l.1-.48c2.08-9.13,4.51-18.16,7.35-27.08,8.36,2.55,16.89,5.4,25,8.15Zm-.2.07c-7-1.74-17.32-4.33-24.15-6.22l1.4-.48c-2.33,8.76-5.07,17.39-8.13,25.93l-.5-.64,6,1.9c5.75,1.82,12.19,3.57,18.06,5.06l-.85.29c1.79-8.75,5.07-17.46,8.22-25.84Z" transform="translate(-0.48 -0.7)"/><path class="cls-2" d="M14,122.63a76.72,76.72,0,0,1,24.07,7,77.06,77.06,0,0,1-24.07-7Z" transform="translate(-0.48 -0.7)"/><path class="cls-2" d="M21.75,138.94a87.79,87.79,0,0,1,7.46-25.81,88.1,88.1,0,0,1-7.46,25.81Z" transform="translate(-0.48 -0.7)"/><path class="cls-2" d="M58.89,85.84A167.24,167.24,0,0,1,45,109.9c-7-4.62-14.65-9.3-21.94-13.4l-.55-.31.22-.44Q29.3,83.33,36.84,71.5c7.42,4.63,14.93,9.58,22,14.34Zm-.21,0c-6.34-3.5-15.6-8.67-21.71-12.25l1.48-.11C33.93,81.36,29,89,23.88,96.45l-.32-.75,5.26,3.37c5.08,3.25,10.85,6.61,16.14,9.56l-.9.06c4-8,9.41-15.55,14.62-22.83Z" transform="translate(-0.48 -0.7)"/><path class="cls-2" d="M30.78,84.54a76.82,76.82,0,0,1,21.43,13,76.67,76.67,0,0,1-21.43-13Z" transform="translate(-0.48 -0.7)"/><path class="cls-2" d="M34,102.3a88.12,88.12,0,0,1,13.88-23A87.85,87.85,0,0,1,34,102.3Z" transform="translate(-0.48 -0.7)"/><path class="cls-2" d="M83.65,60.62A167.19,167.19,0,0,1,64,80.27C58.48,74,52.27,67.49,46.29,61.65l-.45-.44.33-.37q9.54-10.29,19.89-19.77C72,47.45,78,54.19,83.65,60.62Zm-.21,0c-5.22-5-12.83-12.4-17.8-17.45l1.46.29c-6.4,6.41-13.1,12.52-20,18.39L47,61l4.21,4.62C55.24,70.07,60,74.81,64.29,79l-.88-.17c5.91-6.68,13.11-12.59,20-18.28Z" transform="translate(-0.48 -0.7)"/><path class="cls-2" d="M56.83,52.1A76.64,76.64,0,0,1,74.16,70.21,76.83,76.83,0,0,1,56.83,52.1Z" transform="translate(-0.48 -0.7)"/><path class="cls-2" d="M55.38,70.09A88,88,0,0,1,74.74,51.46,88.2,88.2,0,0,1,55.38,70.09Z" transform="translate(-0.48 -0.7)"/><path class="cls-2" d="M114.09,42.68A168.09,168.09,0,0,1,90,56.57C86.32,49.09,82,41.19,77.73,34l-.31-.55.41-.26q11.88-7.48,24.33-13.95C106.28,27,110.3,35,114.09,42.68Zm-.19-.1c-3.74-6.2-9.18-15.3-12.68-21.46l1.33.65c-7.84,4.54-15.88,8.7-24.08,12.59l.09-.81,2.87,5.55c2.78,5.35,6.1,11.14,9.2,16.35l-.81-.4c7.44-4.92,15.93-8.77,24.08-12.47Z" transform="translate(-0.48 -0.7)"/><path class="cls-2" d="M90.39,27.5a76.63,76.63,0,0,1,12.06,22,76.77,76.77,0,0,1-12.06-22Z" transform="translate(-0.48 -0.7)"/><path class="cls-2" d="M84.33,44.5a88.18,88.18,0,0,1,23.52-13,87.91,87.91,0,0,1-23.52,13Z" transform="translate(-0.48 -0.7)"/><path class="cls-2" d="M148.14,33.22a167.76,167.76,0,0,1-26.83,7.19c-1.66-8.19-3.78-16.94-6-25l-.17-.62.47-.14Q129,10.52,142.69,7.49c2,8.51,3.78,17.33,5.45,25.73Zm-.16-.14c-2-7-4.91-17.16-6.69-24l1.12,1c-8.75,2.36-17.6,4.29-26.52,5.92l.3-.76,1.33,6.11c1.3,5.88,3,12.34,4.65,18.17l-.68-.59c8.47-2.83,17.66-4.35,26.49-5.81Z" transform="translate(-0.48 -0.7)"/><path class="cls-2" d="M129.18,12.42a76.8,76.8,0,0,1,5.95,24.35,76.67,76.67,0,0,1-5.95-24.35Z" transform="translate(-0.48 -0.7)"/><path class="cls-2" d="M118.92,27.28A87.69,87.69,0,0,1,145,20.83a88.3,88.3,0,0,1-26.08,6.45Z" transform="translate(-0.48 -0.7)"/><path class="cls-2" d="M183.47,32.89a167.33,167.33,0,0,1-27.78,0c.53-8.34.74-17.34.64-25.7V6.57l.49,0c9.35-.35,18.7-.34,28.05.09-.3,8.73-.84,17.72-1.4,26.26Zm-.11-.17c-.14-7.24-.3-17.85-.25-24.93L183.94,9c-9.06,0-18.11-.41-27.15-1.14l.48-.66L157,13.47c-.27,6-.29,12.7-.21,18.75l-.5-.75c8.91-.54,18.18.37,27.09,1.25Z" transform="translate(-0.48 -0.7)"/><path class="cls-2" d="M170.54,7.9A76.66,76.66,0,0,1,170,33a76.66,76.66,0,0,1,.55-25.06Z" transform="translate(-0.48 -0.7)"/><path class="cls-2" d="M156.79,19.59a88.3,88.3,0,0,1,26.86.52,88,88,0,0,1-26.86-.52Z" transform="translate(-0.48 -0.7)"/><path class="cls-2" d="M217.69,41.73a168.32,168.32,0,0,1-26.83-7.19c2.66-7.92,5.19-16.56,7.26-24.66l.16-.61.48.1c9.13,2.08,18.16,4.51,27.07,7.35-2.54,8.36-5.39,16.89-8.14,25Zm-.07-.2c1.74-7,4.33-17.32,6.21-24.15l.49,1.4c-8.76-2.33-17.39-5.07-25.93-8.12l.64-.51-1.9,6c-1.82,5.75-3.57,12.19-5.06,18.06l-.29-.85c8.74,1.79,17.46,5.07,25.84,8.22Z" transform="translate(-0.48 -0.7)"/><path class="cls-2" d="M211.67,14.23a77,77,0,0,1-7,24.07,76.53,76.53,0,0,1,7-24.07Z" transform="translate(-0.48 -0.7)"/><path class="cls-2" d="M195.36,22a87.79,87.79,0,0,1,25.81,7.46A88.1,88.1,0,0,1,195.36,22Z" transform="translate(-0.48 -0.7)"/><path class="cls-2" d="M248.46,59.11A166.7,166.7,0,0,1,224.4,45.23c4.62-7,9.3-14.65,13.39-21.94l.32-.55.43.22q12.42,6.55,24.25,14.1c-4.62,7.42-9.58,14.93-14.33,22Zm0-.21c3.5-6.34,8.66-15.6,12.25-21.71l.11,1.48c-7.86-4.52-15.49-9.41-23-14.57l.75-.32L235.22,29c-3.24,5.08-6.6,10.85-9.55,16.14l-.07-.9c8,4,15.56,9.41,22.84,14.62Z" transform="translate(-0.48 -0.7)"/><path class="cls-2" d="M249.75,31a76.82,76.82,0,0,1-13,21.43,76.67,76.67,0,0,1,13-21.43Z" transform="translate(-0.48 -0.7)"/><path class="cls-2" d="M232,34.25a88.29,88.29,0,0,1,23,13.88,87.85,87.85,0,0,1-23-13.88Z" transform="translate(-0.48 -0.7)"/><path class="cls-2" d="M273.67,83.87A167.11,167.11,0,0,1,254,64.23c6.26-5.53,12.78-11.74,18.61-17.72l.45-.45.36.33q10.31,9.54,19.78,19.89c-6.39,6-13.12,11.94-19.56,17.59Zm0-.21c5-5.22,12.41-12.83,17.45-17.8l-.28,1.46c-6.42-6.4-12.52-13.1-18.39-20l.81-.12-4.63,4.21c-4.44,4.06-9.18,8.77-13.4,13.11l.17-.88c6.68,5.92,12.59,13.12,18.27,20Z" transform="translate(-0.48 -0.7)"/><path class="cls-2" d="M282.2,57.05a76.64,76.64,0,0,1-18.11,17.33A76.83,76.83,0,0,1,282.2,57.05Z" transform="translate(-0.48 -0.7)"/><path class="cls-2" d="M264.21,55.6A88,88,0,0,1,282.84,75,88,88,0,0,1,264.21,55.6Z" transform="translate(-0.48 -0.7)"/><path class="cls-2" d="M291.62,114.31a168.09,168.09,0,0,1-13.89-24.06c7.48-3.71,15.38-8,22.57-12.3l.55-.31.26.41q7.49,11.88,13.95,24.33c-7.71,4.12-15.76,8.14-23.44,11.93Zm.09-.19c6.2-3.74,15.31-9.18,21.47-12.68l-.65,1.33c-4.55-7.84-8.71-15.88-12.59-24.08l.81.09-5.55,2.87c-5.35,2.78-11.15,6.1-16.35,9.2l.4-.81c4.92,7.44,8.76,15.93,12.46,24.08Z" transform="translate(-0.48 -0.7)"/><path class="cls-2" d="M306.8,90.61a76.77,76.77,0,0,1-22,12.06,76.77,76.77,0,0,1,22-12.06Z" transform="translate(-0.48 -0.7)"/><path class="cls-2" d="M289.8,84.55a88.18,88.18,0,0,1,13,23.52,87.63,87.63,0,0,1-13-23.52Z" transform="translate(-0.48 -0.7)"/><path class="cls-2" d="M301.08,148.36a168.85,168.85,0,0,1-7.2-26.83c8.19-1.66,16.95-3.78,25-6l.61-.17.15.47q4.15,13.41,7.18,27.12c-8.51,2-17.33,3.78-25.73,5.45Zm.14-.16c7-2,17.16-4.91,24-6.69l-1,1.12c-2.36-8.75-4.3-17.6-5.92-26.52l.76.3L313,117.74c-5.89,1.3-12.34,3-18.17,4.65l.59-.68c2.83,8.47,4.35,17.66,5.81,26.49Z" transform="translate(-0.48 -0.7)"/><path class="cls-2" d="M321.88,129.4a76.79,76.79,0,0,1-24.36,5.95,76.73,76.73,0,0,1,24.36-5.95Z" transform="translate(-0.48 -0.7)"/><path class="cls-2" d="M307,119.14a88,88,0,0,1,6.45,26.08A88.3,88.3,0,0,1,307,119.14Z" transform="translate(-0.48 -0.7)"/><path class="cls-2" d="M301.41,183.7a167.45,167.45,0,0,1,0-27.79c8.34.53,17.34.74,25.7.64h.63l0,.49c.36,9.35.35,18.7-.08,28.05-8.74-.3-17.72-.84-26.26-1.39Zm.17-.12c7.24-.14,17.85-.3,24.93-.25l-1.23.83c0-9.06.4-18.11,1.14-27.15l.66.48-6.25-.29c-6-.27-12.7-.29-18.75-.21l.74-.5c.55,8.91-.37,18.18-1.24,27.09Z" transform="translate(-0.48 -0.7)"/><path class="cls-2" d="M326.4,170.76a76.66,76.66,0,0,1-25.06-.55,76.66,76.66,0,0,1,25.06.55Z" transform="translate(-0.48 -0.7)"/><path class="cls-2" d="M314.71,157a88.3,88.3,0,0,1-.52,26.86,87.67,87.67,0,0,1,.52-26.86Z" transform="translate(-0.48 -0.7)"/><path class="cls-2" d="M292.57,217.91a167.27,167.27,0,0,1,7.19-26.83c7.92,2.66,16.56,5.19,24.66,7.26l.61.16-.11.48q-3.1,13.7-7.34,27.07c-8.36-2.54-16.9-5.39-25-8.14Zm.2-.07c7,1.74,17.32,4.33,24.15,6.21l-1.41.49c2.33-8.76,5.08-17.39,8.13-25.93l.51.64-6-1.9c-5.74-1.82-12.19-3.57-18.06-5.06L301,192c-1.78,8.74-5.06,17.46-8.21,25.84Z" transform="translate(-0.48 -0.7)"/><path class="cls-2" d="M320.06,211.89a76.84,76.84,0,0,1-24.06-7,76.39,76.39,0,0,1,24.06,7Z" transform="translate(-0.48 -0.7)"/><path class="cls-2" d="M312.33,195.58a88.1,88.1,0,0,1-7.46,25.81,87.79,87.79,0,0,1,7.46-25.81Z" transform="translate(-0.48 -0.7)"/><path class="cls-2" d="M275.18,248.68a167.69,167.69,0,0,1,13.89-24.06c7,4.62,14.65,9.3,21.94,13.39l.55.32-.23.43q-6.56,12.42-14.1,24.25c-7.41-4.62-14.92-9.58-22.05-14.33Zm.21,0c6.35,3.5,15.61,8.66,21.72,12.25l-1.48.11c4.52-7.86,9.4-15.49,14.56-22.95l.33.75-5.27-3.38c-5.07-3.24-10.85-6.6-16.13-9.55l.9-.07c-4,8-9.41,15.56-14.63,22.84Z" transform="translate(-0.48 -0.7)"/><path class="cls-2" d="M303.3,250a76.53,76.53,0,0,1-21.43-13,76.82,76.82,0,0,1,21.43,13Z" transform="translate(-0.48 -0.7)"/><path class="cls-2" d="M300.05,232.22a88.16,88.16,0,0,1-13.89,23,87.89,87.89,0,0,1,13.89-23Z" transform="translate(-0.48 -0.7)"/><path class="cls-2" d="M250.43,273.89a168,168,0,0,1,19.64-19.65c5.52,6.27,11.74,12.79,17.72,18.62l.45.45-.33.36Q278.37,284,268,293.45c-6-6.39-11.93-13.12-17.58-19.56Zm.21,0c5.21,5,12.83,12.41,17.8,17.45L267,291.1c6.4-6.42,13.09-12.52,20-18.39l.12.81-4.21-4.63c-4.07-4.44-8.77-9.18-13.11-13.4l.88.17c-5.92,6.68-13.12,12.59-20,18.27Z" transform="translate(-0.48 -0.7)"/><path class="cls-2" d="M277.25,282.42a76.88,76.88,0,0,1-17.34-18.11,76.68,76.68,0,0,1,17.34,18.11Z" transform="translate(-0.48 -0.7)"/><path class="cls-2" d="M278.7,264.43a87.93,87.93,0,0,1-19.36,18.62,88.16,88.16,0,0,1,19.36-18.62Z" transform="translate(-0.48 -0.7)"/><path class="cls-2" d="M220,291.84A168,168,0,0,1,244,278c3.72,7.48,8,15.38,12.3,22.57l.32.55-.41.26q-11.88,7.49-24.34,13.95c-4.11-7.71-8.13-15.76-11.92-23.44Zm.19.09c3.74,6.2,9.18,15.31,12.68,21.47l-1.34-.65c7.84-4.54,15.89-8.71,24.09-12.59l-.1.81-2.86-5.55c-2.78-5.35-6.1-11.15-9.2-16.35l.81.4c-7.45,4.92-15.93,8.76-24.08,12.46Z" transform="translate(-0.48 -0.7)"/><path class="cls-2" d="M243.68,307a76.74,76.74,0,0,1-12.05-22,76.74,76.74,0,0,1,12.05,22Z" transform="translate(-0.48 -0.7)"/><path class="cls-2" d="M249.75,290a88.24,88.24,0,0,1-23.53,13,87.69,87.69,0,0,1,23.53-13Z" transform="translate(-0.48 -0.7)"/><path class="cls-2" d="M185.94,301.3a167.76,167.76,0,0,1,26.83-7.19c1.66,8.18,3.78,16.94,6,25l.17.61-.47.15Q205.1,324,191.39,327c-2-8.51-3.78-17.33-5.45-25.73Zm.16.14c2,7,4.91,17.16,6.69,24l-1.12-1c8.75-2.36,17.6-4.3,26.52-5.92l-.3.76-1.33-6.11c-1.3-5.89-3-12.34-4.65-18.17l.68.59c-8.47,2.83-17.66,4.35-26.49,5.81Z" transform="translate(-0.48 -0.7)"/><path class="cls-2" d="M204.9,322.1a76.52,76.52,0,0,1-6-24.36,77.06,77.06,0,0,1,6,24.36Z" transform="translate(-0.48 -0.7)"/><path class="cls-2" d="M215.16,307.24a88,88,0,0,1-26.08,6.45,88.22,88.22,0,0,1,26.08-6.45Z" transform="translate(-0.48 -0.7)"/><path class="cls-2" d="M167,297.57c-71.85,0-130.31-58.46-130.31-130.31S95.19,37,167,37,297.35,95.41,297.35,167.26,238.89,297.57,167,297.57ZM167,39A128.31,128.31,0,1,0,295.35,167.26,128.46,128.46,0,0,0,167,39Z" transform="translate(-0.48 -0.7)"/><path class="cls-2" d="M138.42,41.11a133.47,133.47,0,0,1,7.2,21.39A32.52,32.52,0,0,0,148,69.3l.13.57a.7.7,0,0,0,0-.29c0-.08,0,0,0,0a23,23,0,0,0,4.59,7.18,33.72,33.72,0,0,0,7,5.47c10.42,6.81,22.64,9.63,34.72,11.93,7.54,1.51,15.23,3.22,22.66,5.3,7.43,1.88,15.07,3,22.63,4.28,6.5.74,16,3.93,20.68-1.83,2-2.34,2.54-5.43,4.11-8.15,4.35-4.43,5.93,9.12,6.29,11.53l-.29.06a59.47,59.47,0,0,0-2.91-8.72c-.37-.71-.85-1.87-1.51-2.09-.77,1.14-1,3-1.55,4.42-1,3.15-3,6.28-6.16,7.81-6.07,2.75-12.91.87-19.16.15a203.2,203.2,0,0,1-22.89-4.81c-7.33-2.3-14.8-4.56-22.23-6.57-14.8-4.41-40.3-7.66-47.53-23a17.36,17.36,0,0,1-.75-1.71l-.11-.3a2.83,2.83,0,0,1-.17-.71l.13.56c-2.22-4.7-2.63-9.77-3.88-14.7-1.09-4.87-2.34-9.7-3.64-14.52l.28-.1Z" transform="translate(-0.48 -0.7)"/><path class="cls-2" d="M146.79,70.26a24.82,24.82,0,0,1-3.38-10l.32.41c-3.56-1.06-7.87-.23-9.64,3.29a16.73,16.73,0,0,0-1.54,8.19,12,12,0,0,1-.43,6.3c-1.54,3.5-3.22,7.07-3.6,10.9-.11,2.75,2.21,4.66,4.14,6.32a22.65,22.65,0,0,0,10.11,4.64c4.12.28,8.52.44,11.9,3.29,2.49,2.09,4,4.09,6.75,5.37l1.24.59,1.3.46c3.72,1.19,7.46.69,11.39.46,3.63-.42,7.66,1.57,7.2,5.75-.4,3-1.92,5.67-1.64,8.62.26,6.6,6.34,8.86,11.15,12a21.48,21.48,0,0,1,6.36,6.48c3.87,6.07,3.8,13.53,3.81,20.42.08,2.17.49,3.39,2.33,1.22a20,20,0,0,0,2.8-5c1.26-3.66.57-8.08,2.49-11.66,1.88-4.91,6.78-9.35,12.39-8.38,5.71,1.39,7.07,8.15,8,13a96.36,96.36,0,0,1,1.08,12c.08,6,1.19,12.66-1.78,18.35-2.05,3.92-6.35,6.34-10.46,7.25a36.13,36.13,0,0,0-5.45,1.59,6.29,6.29,0,0,0-3.36,3.25c-1.14,2.26.15,5.16.76,7.67a11.13,11.13,0,0,1-1.92,9.78c-8.11,10.51-35.2,10.68-46.89,6.89-3.85-1-7.44-3.14-11.06-4.64a54,54,0,0,0-11.3-3c-2.85-.39-5.81-.75-8.61-.06a3.85,3.85,0,0,0-2.23,1.31,1.68,1.68,0,0,0-.43,1.12,12.1,12.1,0,0,1-.91,4.47,15.56,15.56,0,0,1-3.31,5l-.22-.2a14.61,14.61,0,0,0,3.54-7.87c.09-1-.18-2.24.55-3.09,3.92-4.95,18.29-1.3,23.6.53,3.77,1.41,7.16,3.22,11,4.22,7.49,2.17,15.46,2.05,23.17,1.31,7.11-.92,15.85-2.21,20.54-7.89,4.41-5.37-2-11.1.77-16.84a9.47,9.47,0,0,1,2-2.92c4.52-4.24,11.9-2.59,16-7.24,4.67-5,3.11-12.46,3.2-18.87-.19-5.87-.3-11.76-2.07-17.32-1-3.4-3.43-6.71-7.29-5.78-3.78.6-6.4,3.62-7.93,7-2,3.59-1.28,7.63-2.77,11.45a20.69,20.69,0,0,1-1.39,2.74c-.9,1.41-1.79,3-3.36,3.87-2.19.94-2.66-1.74-2.64-3.23.35-14.29-1.11-22.33-14.84-29-3.68-1.86-6.75-5.49-7-9.77-.41-3.11,1-6,1.33-8.9s-2.77-3.72-5.14-3.36c-3.94.42-8.28,1-12.26-.24l-1.52-.5-1.45-.66c-4.67-2-6.93-7-12.08-7.81-1.9-.47-3.83-.24-5.83-.6a24.74,24.74,0,0,1-13.52-7.46,8.27,8.27,0,0,1-2.62-6.18A27.82,27.82,0,0,1,129,80.38a13.59,13.59,0,0,0,1.9-5.24,11.37,11.37,0,0,0-.12-2.8,18.14,18.14,0,0,1,2-9.1c2.2-4.08,7.54-4.88,11.53-3.33a25.85,25.85,0,0,0,2.75,10.21l-.27.14Z" transform="translate(-0.48 -0.7)"/><path class="cls-2" d="M161.16,110.36a62.54,62.54,0,0,0-7-5.16c-1.82-1.11-3.58-2.44-5.64-3a11,11,0,0,0-4.19.13,7.71,7.71,0,0,1-4.45-1c-.55-.31-1-.73-1.62-.61-2.56.62-4.53,12.72-5.09,15.51A67,67,0,0,1,130,128.94a11.27,11.27,0,0,0,.46,7.82,19.28,19.28,0,0,1,2,8.88,34.74,34.74,0,0,1-3.69,13,180.21,180.21,0,0,0-10.38,19c-2.57,5.18-5.67,10.17-8.4,15.22-.43.9-1,2-.69,2.8,1.13,1.76,4.37,2.44,6.53,2.83,3.72,1,9.1-1,11.21,3.34,1,3,.65,5.64,2.11,8.37a8.64,8.64,0,0,1-.1,7.51c-.91,2.1-2.5,3.54-3.21,5.42a2,2,0,0,0,.9,2.31c.44.39,1.07.69,1.83,1.42a3.34,3.34,0,0,1-.11,4.83c-1.14,1.12-3.16,2.13-3.46,3.3a1,1,0,0,0,0,1.06,16.1,16.1,0,0,1,1,2.1c1.24,3.48.3,7.22-1.15,10.41a15.51,15.51,0,0,1-1.85,3c-5.07,6.5-14.47,7.24-19.55,13.5-2.67,3.67-3.4,9.54-.83,13.32a4,4,0,0,0,1.4,1.21c1.93.93,4,1.84,5.87,2.81,7.66,4.12,15.88,7,24.08,9.83-5.58-1.55-11.13-3.28-16.57-5.34-4.77-1.8-9.27-4.14-14-6.06-6.07-3.27-4.59-14.6.08-18.62,5.2-5.15,13.12-6.38,17.61-12.12a13.67,13.67,0,0,0,1.85-3.53c1.26-3.15,1.61-6.45-.32-9.37-1.08-1.77-.06-4.24,1.35-5.45.82-.82,2.36-1.65,2.76-2.43,0-.24.06-.29-.17-.52s-1-.67-1.63-1.2a5,5,0,0,1-1.89-5.33c1.16-3.35,4.45-5.6,3.93-9.26-.15-1.26-1.06-2.49-1.41-3.81-.7-2-.76-4.39-1.28-6.22-.85-1.43-2.47-1-4.47-1.11-4.37-.32-10.67-.78-13.21-4.93-1.48-3.29,1.52-6.56,2.88-9.31,2.92-5,5.76-10,8.18-15.21,1.31-2.67,2.78-5.19,4.25-7.71,2.15-3.79,4.81-7.07,6.16-11.16,1.29-3.88,2.61-8.07,1.64-12.11-.59-2.76-2.33-5.52-2.3-8.52-.22-3.07,1.17-6,2.08-8.75a55.93,55.93,0,0,0,2-8.33,82.53,82.53,0,0,1,2.05-8.52,26.79,26.79,0,0,1,2.44-6.23,3.27,3.27,0,0,1,2-1.56,3.17,3.17,0,0,1,2.36.81c1.82,1.27,3.92,1.09,6,.85,3.08-.18,5.58,2,8,3.57a60.49,60.49,0,0,1,6.73,5.53Z" transform="translate(-0.48 -0.7)"/><path class="cls-2" d="M136.74,135.6c3.31,9.65,11.3,5,18.91,6.25,7.55,1,14.31,3.45,22,3.57a16.68,16.68,0,0,1,7.63,1.7,12.17,12.17,0,0,1,5.22,5.6,13.52,13.52,0,0,0-5.83-4.26,16.85,16.85,0,0,0-7.05-.7,51.6,51.6,0,0,1-7.65-.23c-7.45-.89-14.49-3.63-22-3.44-5.76.32-10.85-2.15-11.27-8.49Z" transform="translate(-0.48 -0.7)"/><path class="cls-2" d="M143.77,156.08c.35-3.92,2.57-9.56,7.35-6.26,3.7,2,8.11,1.64,12,3.17,1.66.65,3.51,1.38,5.09,2.18-1.24-.13-2.44-.35-3.63-.56-3.65-.82-7-.93-10.81-1.63a17.72,17.72,0,0,1-5-2.39c-2.39-.7-4,3.74-5,5.49Z" transform="translate(-0.48 -0.7)"/><path class="cls-2" d="M149.7,150.09c-1,3.71-1.93,8-.84,11.62a5.43,5.43,0,0,0,3.7,3c.17,0,.23-.05.21,0a1,1,0,0,0,.14-.46c.22-3.94.22-8.31,1.33-12.2.15,3.47.3,6.83.54,10.25,0,1.22.32,2.44-.53,3.64-1.13,1.3-3,.66-4.1,0a7.25,7.25,0,0,1-3.28-8,17.74,17.74,0,0,1,2.83-7.86Z" transform="translate(-0.48 -0.7)"/><path class="cls-2" d="M146.52,164.78a18.89,18.89,0,0,0,11.31,0c-2.35,3.85-8.89,3.81-11.31,0Z" transform="translate(-0.48 -0.7)"/><path class="cls-2" d="M251.86,246.79a168.3,168.3,0,0,1-27.77.62c.33-8.35.35-17.36.06-25.71v-.63l.49,0q14-.84,28-.53c-.1,8.74-.44,17.73-.81,26.29Zm-.12-.17c-.3-7.24-.7-17.84-.8-24.92l.86,1.21c-9.06.22-18.12,0-27.17-.54l.47-.67-.16,6.25c-.13,6,0,12.7.21,18.75l-.52-.73c8.89-.74,18.18,0,27.11.65Z" transform="translate(-0.48 -0.7)"/><path class="cls-2" d="M238.38,222.09a76.7,76.7,0,0,1,0,25.07,76.7,76.7,0,0,1,0-25.07Z" transform="translate(-0.48 -0.7)"/><path class="cls-2" d="M224.89,234.08a88,88,0,0,1,26.87-.07,88,88,0,0,1-26.87.07Z" transform="translate(-0.48 -0.7)"/></svg>