<svg id="Layer_1" data-name="Layer 1" xmlns="http://www.w3.org/2000/svg" viewBox="0 0 334.13 334.13"><defs><style>.cls-1,.cls-2{fill:#1d1d1b;}.cls-2{stroke:#1d1d1b;stroke-miterlimit:10;stroke-width:0.5px;}</style></defs><path class="cls-1" d="M167,334.32C74.92,334.32,0,259.38,0,167.26S74.92.2,167,.2,334.1,75.14,334.1,167.26,259.16,334.32,167,334.32ZM167,2.2C76,2.2,2,76.24,2,167.26S76,332.32,167,332.32,332.1,258.27,332.1,167.26,258.05,2.2,167,2.2Z" transform="translate(0.02 -0.2)"/><path class="cls-1" d="M167,298.07A130.81,130.81,0,1,1,297.85,167.26,131,131,0,0,1,167,298.07Zm0-258.62A127.81,127.81,0,1,0,294.85,167.26,127.95,127.95,0,0,0,167,39.45Z" transform="translate(0.02 -0.2)"/><path class="cls-1" d="M139.76,133.09c-1.56,5.1,8.32,5.36,12.65,4.75,14.43-3.17,33-6.87,43.27,4.43a19.66,19.66,0,0,1,4.06,6.37c-4.69-5.63-11.66-10.4-20.61-10.71a70.07,70.07,0,0,0-17.23,1.16c-4.44.6-9.37,1.81-13.93,1.1-4.24-.49-11.28-3-8.21-7.1Z" transform="translate(0.02 -0.2)"/><path class="cls-2" d="M151.92,157.78c-.06-5.85,3.19-11.8,10.26-9.68a126.31,126.31,0,0,1,15.55,4,10.14,10.14,0,0,1,2.52,1.32,8.24,8.24,0,0,1,2.78,7.33,10.8,10.8,0,0,0-1.9-4.59c-2-2.74-5.92-2.82-9.08-3.67-2.59-.55-7.78-1.76-10.34-2.41-6-2.24-8.45,3-9.79,7.69Z" transform="translate(0.02 -0.2)"/><path class="cls-1" d="M163.22,149.59c-6.75-3.11-3.61,9.7-3.07,12.73.91,4.3,1.63,6.16,5.56,2.42,2.44-2.62,2.83-6.72,2.86-10.16-.11-1.46,0-4.51-2.18-4.45a1.56,1.56,0,0,1,1.49.26c2.38,2.63,2.15,6.71,1.85,10a10.12,10.12,0,0,1-4.94,7.79c-4.62,2.56-6.24-1.85-6.73-5.45-.55-4.27-1.55-9.15.84-13.09,1.1-1.54,3.16-1,4.32,0Z" transform="translate(0.02 -0.2)"/><path d="M176.55,302.11c8.49-2,17.37-4.18,26.07-5.05l1-.13-.33.86c-3.91,9.86-5.92,20.32-9.1,30.42-6.36-8.21-12.06-17.35-17.61-26.1Zm.18.08c5.32,6.69,13.18,16.25,17.84,23.27l-1.75.28c3-9.46,7.08-18.59,9.35-28.29l.64.74c-8.41,2.13-17.43,2.95-26.08,4Z" transform="translate(0.02 -0.2)"/><path d="M132.24,297.89c8.69.85,17.79,1.68,26.3,3.69l1,.2-.59.7c-6.89,8.06-12.19,17.3-18.48,25.82-3.35-9.84-5.77-20.33-8.19-30.41Zm.16.13c2.85,8.06,7.19,19.66,9.32,27.81l-1.75-.31c5.93-8,12.73-15.28,18-23.72l.37.91c-8.65-.72-17.45-2.87-26-4.69Z" transform="translate(0.02 -0.2)"/><path d="M91.71,279.52c7.94,3.62,16.28,7.36,23.68,12l.84.5-.78.48c-9.14,5.38-17.15,12.4-25.86,18.41,0-10.38,1.13-21.09,2.12-31.41Zm.1.17c.08,8.55.42,20.93-.21,29.32L90,308.16c8.2-5.61,17-10.32,24.76-16.59l0,1c-7.95-3.49-15.57-8.37-23-12.86Z" transform="translate(0.02 -0.2)"/><path d="M59.34,249c6.34,6,13,12.25,18.5,19l.63.75-.9.2c-10.39,2.12-20.25,6.16-30.44,9,3.4-9.82,7.93-19.59,12.21-29Zm0,.19c-2.7,8.11-6.4,19.93-9.72,27.67l-1.19-1.32c9.57-2.64,19.43-4.24,28.79-7.65l-.26.95c-6.39-5.88-12-13-17.62-19.65Z" transform="translate(0.02 -0.2)"/><path d="M38.65,209.58c4,7.73,8.32,15.81,11.3,24l.35.91-.91-.1c-10.52-1.37-21.15-.75-31.72-1.35,6.4-8.19,13.86-16,21-23.49Zm0,.2c-5.19,6.79-12.52,16.77-18.18,23l-.7-1.63c9.91.61,19.76,2.3,29.72,2.11l-.56.81c-4.13-7.64-7.15-16.18-10.28-24.3Z" transform="translate(0.02 -0.2)"/><path d="M31.86,165.6c1.31,8.63,2.74,17.66,2.89,26.4l0,1-.83-.39C24.45,187.87,14.2,185,4.4,181c8.71-5.66,18.28-10.59,27.46-15.4Zm-.09.18c-7.11,4.74-17.29,11.79-24.66,15.86L7,179.87c9.18,3.79,17.94,8.59,27.42,11.65l-.78.58c-1.43-8.56-1.51-17.62-1.84-26.32Z" transform="translate(0.02 -0.2)"/><path d="M39.72,121.8c-1.56,8.58-3.14,17.59-5.84,25.9l-.28.94L33,148c-7.46-7.54-16.23-13.59-24.2-20.55,10.07-2.53,20.73-4.08,31-5.65Zm-.14.14c-8.27,2.17-20.18,5.54-28.48,7l.45-1.72c7.45,6.57,14.18,14,22.15,19.92l-.93.3c1.43-8.57,4.3-17.16,6.81-25.49Z" transform="translate(0.02 -0.2)"/><path d="M61.38,82.92c-4.26,7.61-8.68,15.62-13.93,22.6l-.57.8-.41-.82C41.86,96,35.53,87.38,30.25,78.21c10.35.88,20.93,2.87,31.13,4.71ZM61.2,83c-8.52-.62-20.89-1.31-29.2-2.63l1-1.48c4.91,8.64,8.88,17.8,14.48,26l-1,0C50.62,97.27,56.12,90.07,61.2,83Z" transform="translate(0.02 -0.2)"/><path d="M94.49,53.18C88,59,81.21,65.13,74,70l-.79.57-.12-.91C71.8,59.16,68.59,49,66.58,38.62c9.5,4.19,18.86,9.51,27.91,14.56Zm-.19,0c-7.87-3.36-19.34-8-26.77-12l1.41-1.08c1.84,9.76,2.61,19.72,5.24,29.33l-.92-.34c6.39-5.88,13.93-10.9,21-15.93Z" transform="translate(0.02 -0.2)"/><path d="M135.46,35.81c-8,3.39-16.44,7-24.88,9.28l-.93.28.18-.9c2.23-10.37,2.49-21,4-31.5,7.63,7,14.75,15.12,21.67,22.84Zm-.19,0c-6.35-5.73-15.68-13.87-21.43-20l1.68-.57C114.1,25,111.6,34.69,111,44.63L110.2,44c8-3.49,16.71-5.79,25.07-8.24Z" transform="translate(0.02 -0.2)"/><path d="M179.86,32.68c-8.71.59-17.83,1.27-26.55.7l-1,0,.47-.8c5.47-9.08,9.18-19.07,14-28.5,4.93,9.14,9,19.09,13.09,28.64Zm-.17-.1c-4.14-7.48-10.33-18.21-13.77-25.9l1.77,0c-4.54,8.83-10,17.17-13.87,26.36l-.52-.83c8.65-.72,17.69,0,26.39.35Z" transform="translate(0.02 -0.2)"/><path d="M222.86,44.13c-8.43-2.26-17.27-4.58-25.33-8l-.91-.35.69-.6c8.13-6.82,14.88-15.06,22.48-22.42,1.69,10.25,2.35,21,3.07,31.33Zm-.13-.15c-1.48-8.42-3.85-20.57-4.61-29l1.67.59c-7.16,6.88-15.08,13-21.68,20.43l-.22-.95c8.42,2.13,16.74,5.7,24.84,8.89Z" transform="translate(0.02 -0.2)"/><path d="M259.81,68.93C252.58,64.05,245,59,238.44,53.17l-.75-.63.85-.34c9.91-3.8,19-9.41,28.54-13.91-1.73,10.25-4.59,20.63-7.27,30.64Zm-.07-.19c1.33-8.44,3-20.71,5-28.89l1.39,1.1c-9,4.19-18.47,7.38-27.14,12.29l.11-1c7.26,4.74,14,10.82,20.6,16.47Z" transform="translate(0.02 -0.2)"/><path d="M286.71,104.38c-5.25-7-10.81-14.22-15.1-21.84l-.5-.84.92,0c10.6-.38,21-2.74,31.51-3.89-5,9.13-11,18-16.83,26.62Zm0-.2c4-7.56,9.59-18.6,14.14-25.69l1,1.5c-9.88,1-19.87,1-29.66,2.8l.42-.88c5.33,6.85,9.71,14.78,14.14,22.27Z" transform="translate(0.02 -0.2)"/><path d="M300.65,146.65c-2.72-8.3-5.61-17-7.2-25.57l-.2-1,.89.25c10.15,3.08,20.74,4.22,31.06,6.55-7.66,7-16.29,13.46-24.55,19.72Zm.06-.19c6.23-5.85,15.11-14.48,21.71-19.71l.43,1.73c-9.68-2.23-19.11-5.53-29-7l.68-.7c2.82,8.21,4.39,17.13,6.15,25.66Z" transform="translate(0.02 -0.2)"/><path d="M300.1,191.15c.13-8.73.2-17.87,1.5-26.52l.12-1,.75.53c8.6,6.21,18.25,10.72,27.26,16.28-9.53,4.16-19.78,7.44-29.63,10.68Zm.12-.16c7.79-3.51,19-8.79,26.94-11.59l-.16,1.77c-8.43-5.25-16.28-11.43-25.13-16l.87-.44c0,8.68-1.41,17.63-2.52,26.27Z" transform="translate(0.02 -0.2)"/><path d="M285.13,233.06c3-8.21,6-16.84,10-24.59l.43-.88.54.74c6.12,8.67,13.78,16.07,20.49,24.25-10.36.84-21.12.61-31.49.48Zm.17-.12c8.51-.78,20.82-2.14,29.24-2.21l-.72,1.62c-6.27-7.7-11.69-16.09-18.58-23.29l1-.14c-2.82,8.21-7.06,16.21-10.91,24Z" transform="translate(0.02 -0.2)"/><path d="M257.37,267.84c5.46-6.81,11.14-14,17.47-20l.69-.69.27.88c3,10.18,7.81,19.67,11.5,29.59-10.06-2.57-20.17-6.28-29.93-9.77Zm.19-.06c8.31,2,20.39,4.73,28.38,7.41l-1.22,1.3c-3.42-9.33-5.82-19-10-28.07l1,.19c-5.34,6.85-11.95,13-18.13,19.17Z" transform="translate(0.02 -0.2)"/><path d="M219.82,291.72c7.37-4.67,15.07-9.6,23-13.25l.88-.43,0,.92c-.49,10.6,1,21.14,1.28,31.72-8.69-5.7-17.05-12.49-25.14-19Zm.2,0c7.2,4.61,17.74,11.1,24.43,16.22l-1.57.83c-.21-9.93.66-19.88-.34-29.79l.85.49c-7.27,4.74-15.54,8.45-23.37,12.25Z" transform="translate(0.02 -0.2)"/><path d="M258.81,241.27c-7.24.6-14.81,1.13-22.07.46l.48-.78c4.59-7.22,7.39-15.37,11.33-22.94,4,7.38,7.18,15.47,10.26,23.26Zm-.17-.11c-3.3-5.9-8.34-14.39-11-20.51l1.78,0c-3.65,7-8.28,13.46-11.23,20.81l-.51-.84c6.86-.66,14,.08,20.92.52Z" transform="translate(0.02 -0.2)"/><path d="M228.09,217.31a15.2,15.2,0,0,0-3.33,6.46c-.55,2.37-.28,4.79-.47,7.11a13.6,13.6,0,0,1-2.27,6.59,32,32,0,0,1-2.27,2.89,22.22,22.22,0,0,1-2.64,2.58c-3.86,3.18-8.91,5-13.93,6.56-7.93,2.52-7,1.88-15.38,4.4-4.75,1.43-8,2.37-14.63,4.26-.76.22-2.42.69-4.66,1.19s-4.39.87-5.78,1.08l-2,.24c-1.33.15-2.66.28-4,.4a140.07,140.07,0,0,1-16,.46,44.21,44.21,0,0,1-7.88-.69c-7.22-1.43-10.16-4.33-11-5.16a9.7,9.7,0,0,1-2.07-3.1c-.28-.75-.52-1.68-.46-5.5,0-1,.06-2.71.23-5.16.25-3.53.37-5.3.49-5.71a7.14,7.14,0,0,0,.32-3.54,8.37,8.37,0,0,0-.33-1,9.59,9.59,0,0,0-.51-.88,7.62,7.62,0,0,0-1.32-1.38,2.65,2.65,0,0,1-.7-.72,1.36,1.36,0,0,1-.14-.68c0-.42.47-1,1.1-2.12a5.06,5.06,0,0,0,.65-1.87,4.22,4.22,0,0,0-.28-2.1,5,5,0,0,0-1.28-1.72,13.89,13.89,0,0,1-1-1,2.22,2.22,0,0,1-.46-.77,2.25,2.25,0,0,1-.08-.89,4.18,4.18,0,0,1,1-2,27.55,27.55,0,0,0,1.89-2.58,6.64,6.64,0,0,0,1-3.5,6.49,6.49,0,0,0-.27-1.78c-.16-.56-.32-1-.39-1.33a4.92,4.92,0,0,1,.09-2.28c.1-.4.26-.75.45-1.37a3.22,3.22,0,0,0,.15-1.2,2.9,2.9,0,0,0-.46-1.29,4.18,4.18,0,0,0-2-1.52,12.73,12.73,0,0,0-1.82-.56c-1.12-.27-2.12-.48-3.06-.79a21.45,21.45,0,0,1-2.77-1.13,14.54,14.54,0,0,1-4.56-3.29c-1.1-1.35-1.11-2.34-.09-3.87a43.15,43.15,0,0,1,3.86-4.46c1.41-1.52,2.82-3,4.12-4.71a50.14,50.14,0,0,0,3.5-5.14c3-5.11,3.18-6.21,5.7-10.62,3.51-6.12,5.27-7.4,6.81-12.24a22.44,22.44,0,0,0,.78-2.87,18.4,18.4,0,0,0,.14-5.48c-.57-4.54-2.33-4.38-2.29-7.8,0-1.22.26-2.38.2-5.12,0-.91-.07-1.5-.08-2,0-2.28.07-4.64.34-10.43.41-8.79.12-7.73.55-10a28.34,28.34,0,0,1,4.72-10.82,19.78,19.78,0,0,0,6.49,1.85,25,25,0,0,0,7.32-.76c2.36-.54,4.7-1.12,7-1.86l6.86-2.15-6.95,1.88c-2.3.65-4.67,1.13-7,1.6a24.26,24.26,0,0,1-7.07.56,18.87,18.87,0,0,1-6.57-2.18l-.48-.27-.28.45a23.28,23.28,0,0,0-6.22,10.78c-.62,2.56-.25,3.26-1,12.71-.31,4-.39,4.34-.54,7.16-.4,7.23-.08,9.51.46,11.47.67,2.47,1.07,2.2,1.53,4.43a16,16,0,0,1-.59,8.92,15.06,15.06,0,0,1-1.7,3.19c-1.33,2.18-2.42,3.23-5,7.89-2.09,3.76-3,5.9-5.74,10.42a47.54,47.54,0,0,1-3.37,4.84c-1.21,1.53-2.61,3-4,4.5a44.57,44.57,0,0,0-4.21,4.79,6,6,0,0,0-1.21,3.48,5.64,5.64,0,0,0,1.45,3.5,17.52,17.52,0,0,0,5.59,4.12,24.44,24.44,0,0,0,3.24,1.33c1.13.38,2.29.63,3.3.88a9.32,9.32,0,0,1,1.32.39,1.23,1.23,0,0,1,.51.32c0,.12.07,0,0,.32s-.34.88-.48,1.44A7.5,7.5,0,0,0,116,207a10.76,10.76,0,0,1,.6,2.59,4,4,0,0,1-.63,2.1c-.43.71-1.06,1.44-1.72,2.31a6.81,6.81,0,0,0-1.56,3.32,4.83,4.83,0,0,0,.19,2,5.07,5.07,0,0,0,1.07,1.8,14.74,14.74,0,0,0,1.24,1.16,2.08,2.08,0,0,1,.56.69,1.67,1.67,0,0,1,.09.77,2.51,2.51,0,0,1-.32.9c-.18.34-.47.74-.78,1.26a4.33,4.33,0,0,0-.64,2,4,4,0,0,0,.47,2.15,5.73,5.73,0,0,0,1.38,1.53,3.7,3.7,0,0,1,1,1.17,2.3,2.3,0,0,1,.18.52,10.44,10.44,0,0,1,.17,3.52c0,.8-.08,2.18-.23,3.9-.46,5.42-1.2,6.88-.69,10a13.36,13.36,0,0,0,1.61,4.59,12.94,12.94,0,0,0,2.75,3.21c1.12,1,4.57,3.71,11.62,5a46.84,46.84,0,0,0,8.25.64,127.78,127.78,0,0,0,16.39-.69c1.35-.14,2.71-.29,4.06-.47l7.36-1.14c.4,2.95.93,5.88,1.56,8.8.36,1.69.8,3.36,1.25,5.05.24.85.48,1.7.79,2.57a9.54,9.54,0,0,0,1.44,2.66,12.52,12.52,0,0,0,2.21,2.15,13.78,13.78,0,0,0,2.66,1.54,32.75,32.75,0,0,1,4.84,2.51,20.16,20.16,0,0,1,6.62,8,16,16,0,0,0-5.24-9.34,26.27,26.27,0,0,0-4.85-3.18,10.52,10.52,0,0,1-3.66-3.15,6.81,6.81,0,0,1-.91-2c-.25-.76-.47-1.58-.68-2.39-.42-1.64-.77-3.31-1.16-5-.73-3.13-1.37-6.28-2-9.43l1.7-.48c5.15-1.48,10.26-3,15.39-4.52s10.25-3,15.34-4.69a68.8,68.8,0,0,0,7.48-3,28.27,28.27,0,0,0,6.68-4.27,22,22,0,0,0,2.68-2.78,31.75,31.75,0,0,0,2.21-3,14.13,14.13,0,0,0,2.13-7c.11-2.4-.26-4.76.16-7.08A14.81,14.81,0,0,1,228.09,217.31Z" transform="translate(0.02 -0.2)"/><path class="cls-1" d="M122.72,46a25.92,25.92,0,0,1-2,13.4c-.84,2-2.29,4-3.2,5.81a3.48,3.48,0,0,0,1,4.37c2.75,2.24,5.37,5.5,5.73,9.25.14,3.33,0,6.14,1.7,9,6.21,10.75,16.77,11,27.81,8.76a36.25,36.25,0,0,0,12.06-5.08,16.41,16.41,0,0,1,9.87-3,22,22,0,0,1,3.5.42c7.05,1.42,12.2,7.78,19.48,8a14.59,14.59,0,0,0,7.3-1.22c5.44-2.11,7.78-.78,10.54,4,4.41,7.77,7,16.45,11.16,24.25,2,4.09,4.83,7.21,7,11.33,3.94,8.67,3.83,18.26,1.41,26.85l-.39-.09a61,61,0,0,0,.46-6.6c0-6.39-1.17-13.07-4.26-18.67-2.25-3.58-5.54-7.07-7.62-10.93a121.82,121.82,0,0,1-5.94-12.17c-1.76-4.07-3.46-8.2-5.44-11.9a9.85,9.85,0,0,0-2.24-3c-2-.3-4.44,1.24-6.81,1.59a21.75,21.75,0,0,1-5.46.17,19.87,19.87,0,0,1-8.53-2.86c-4.26-2.57-7.8-6-12.74-7a14,14,0,0,0-10.62,2A45.11,45.11,0,0,1,154,97.88c-6.66,1.53-13.66,3-20.41.86-5.62-2.21-10.49-6.69-12.28-12.59-1.11-3.17.18-6.62-1.3-9.57-1-2.64-3.41-4-5-6.38a6.36,6.36,0,0,1,.06-6.16c1.18-2.1,2.61-3.56,3.72-5.58A29.37,29.37,0,0,0,122.32,46Z" transform="translate(0.02 -0.2)"/></svg>