<?xml version="1.0" encoding="UTF-8"?>
<svg id="Layer_1" data-name="Layer 1" xmlns="http://www.w3.org/2000/svg" viewBox="0 0 114.84 182.75">
  <defs>
    <style>
      .cls-1 {
        fill: #fff;
        stroke-width: 0px;
      }
    </style>
  </defs>
  <polygon class="cls-1" points="114.84 55.86 72.9 55.86 102.77 25.99 93.27 16.48 64.6 45.15 64.6 0 51.16 0 51.16 46.08 21.57 16.48 12.06 25.99 41.93 55.86 0 55.86 0 69.31 40.44 69.31 12.06 97.69 21.57 107.19 51.16 77.6 51.16 123.71 19.41 123.67 19.39 137.11 51.16 137.15 51.16 182.75 64.6 182.75 64.6 137.17 95.62 137.21 95.64 123.77 64.6 123.73 64.6 78.53 93.27 107.19 102.77 97.69 74.39 69.31 114.84 69.31 114.84 55.86"/>
</svg>