<svg id="Layer_1" data-name="Layer 1" xmlns="http://www.w3.org/2000/svg" viewBox="0 0 334.13 334.13"><defs><style>.cls-1{stroke:#fff;stroke-miterlimit:10;stroke-width:2px;}.cls-2{fill:#fff;}</style></defs><circle class="cls-1" cx="167.06" cy="167.06" r="166.06"/><path class="cls-2" d="M296.5,167.26c.15,92.73-93.34,156.67-179.27,120.25-47.55-19.74-80.42-68.72-80.32-120.25-.86-92.89,94.56-156.75,180.17-120.8,47.73,19.54,80.07,69.39,79.42,120.8Zm-.3,0C296.34,86.86,220.52,26.09,142.11,42c-59,11.15-103.64,65.21-103.56,125.29C37.88,248.64,112.61,308.87,192,292.8c59.11-11.35,104.72-65,104.18-125.54Z" transform="translate(0.02 -0.2)"/><path class="cls-2" d="M131.52,43c-3.35,2.82-10.54,6.52-10.23,11.27.11,1,.91,2.55,1.09,4.16a10.61,10.61,0,0,1-.45,4.62c-1.07,2.78-3,4.86-2.31,8,1.19,5.42,5.39,9.55,9.15,13.5a69.24,69.24,0,0,0,13,11l-.12.27a33.73,33.73,0,0,1-15.18-9c-4.1-4.18-8.49-9.43-8.52-15.65a11,11,0,0,1,1.13-4.49A18.36,18.36,0,0,0,121,62.82a7.42,7.42,0,0,0-1.13-5.77c-4-5.61,2.55-10.83,7.35-12.79a25.55,25.55,0,0,1,4.17-1.49l.13.27Z" transform="translate(0.02 -0.2)"/><path class="cls-2" d="M120.15,209a30.05,30.05,0,0,1,8-.85c2.66,0,5.31.81,7.94.84,5.27-.12,10.57-1.44,15.85-1.92,5.26-.66,10.73-.88,16-1.43,9.36-1-.71-10.4,9.47-15a19.82,19.82,0,0,1,4.1-1.13,85.22,85.22,0,0,0,15.25-4.05c3.53-1.45,6.89-3.3,9.21-6.32,1.54-2,1.81-4.53,2.5-7a41.08,41.08,0,0,1,5.14-11.27c1.42-2.31,3.25-4.08,4.43-6.55,4.73-9.35,4.19-20.64,5.3-30.94.24-3.91.75-8,.46-11.85a5.64,5.64,0,0,0-.71-1.62c-.16-.28-.28-.58-.46-.84l-.56-.79C217.32,101.61,208,100.52,203,94a17.74,17.74,0,0,1-3.3-7.46c-.56-2.48-.36-5.41-2.23-7.26-4.17-3.53-10.16-.63-14.78.59-5.23,1.54-9.5,4.44-14.21,7.16a22.76,22.76,0,0,1-12.12,2.25c-2.58-.19-5.08-1.25-7.5-.3-2.5.8-3.71,2.76-4.79,5.12a120.43,120.43,0,0,1-5.81,10.64c-3.57,5.65-6.91,11.63-11.36,16.76l-2.68,3c-1.64,1.79-1.91,4.16-1.77,6.51a23.79,23.79,0,0,0,3.73,10.56c.77,1.15,1.88,2.33,2.22,3.88.79,3.27-1.12,6.35-3.13,8.52-1.7,2-3.35,4-4.85,6.19a178.43,178.43,0,0,0-15.57,27.66c-1.28,3.3-5.82,9.9-.89,11.94a13.87,13.87,0,0,0,3.48.83c2.54.35,5.27-.5,7.93-.15,7.17.6,8.35,3.18,6,9.66-.43,1.3-.91,2.59-1.46,3.85-.65,1.8-1.87,3.26-1.87,5,0,2.08,1.88,3.11,2.36,5.18a6.09,6.09,0,0,1-1,4.78c-.82,1.31-2.49,2.41-1.27,3.84.83.88,2.08,1.49,3.06,2.45a3.83,3.83,0,0,1,.57,5c-1.23,1.45-2,2.58-1.12,4.39,2.83,4.42,8.43,7.31,9.18,13.09.37,2.77-.69,5.49-1.19,8.17a44.79,44.79,0,0,1-2.48,7.72,33.39,33.39,0,0,1-9.81,12.7l-.19-.23a34.49,34.49,0,0,0,11.23-20.46c.32-2.25,1.36-5.52,1-7.65-.92-5.49-6.64-7.93-9.42-12.42-1.35-2.33-.52-4.73,1.1-6.53a1.28,1.28,0,0,0,.26-1.1c-.22-1.5-2.79-2.26-3.88-3.63a4,4,0,0,1-.17-5.11c1.44-1.72,2.75-3.8,1-5.76-1.5-1.73-2.38-4.56-1.44-6.78a72.44,72.44,0,0,0,2.92-7.41c.37-1.52,1.25-3.37.8-4.71a.61.61,0,0,0-.23-.25c-2.31-1.08-5.25-1.05-7.85-.76-3.54.42-7.78.16-10.79-2.23-4.41-4.2-.56-10.43,1.32-14.83a171.51,171.51,0,0,1,15.93-28.14,81.55,81.55,0,0,1,5.11-6.38c1.82-2,3.65-4.69,1.9-7.12-4.24-5.79-8-15.89-2.75-22.12,5.73-5.77,9.73-12.37,14.1-19.19,2.07-3.26,4.14-6.92,5.92-10.36.92-1.78,2.11-4,4.05-5.07a9.26,9.26,0,0,1,6.42-1.2c1.39.24,2.63.56,3.91.7a21.06,21.06,0,0,0,11.29-1.84c2.32-1.13,4.54-2.69,7-3.9a60.41,60.41,0,0,1,15.38-5c4.3-.84,9.19.69,9.79,5.62.47,2.63.61,5.27,1.78,7.69a13.06,13.06,0,0,0,2,3.34c5.46,6.88,16.1,7.69,20.46,15.8a6.7,6.7,0,0,1,.91,2c.46,4.11,0,8.1-.11,12.18-.5,8-.5,16.16-2.06,24.13a31.37,31.37,0,0,1-2.69,7.86c-1.1,2.42-3.06,4.54-4.44,6.79a40.36,40.36,0,0,0-4.76,10.57c-.71,3-1.36,6.42-3.64,8.78A22.6,22.6,0,0,1,205,183.8c-4.47,3.42-9.83,5.1-15.17,6.41-2.64.63-5.28,1.14-7.92,1.63-2.4.43-4.84,1-6.33,3-1.68,2.09-.81,4.47-1,7.13a5.8,5.8,0,0,1-4.27,5.29c-3.38.77-6.84.58-10.2.84-8.06.2-15.93,1.87-24,1.94-2.72-.13-5.25-1-8-1.16a30.5,30.5,0,0,0-7.92.45l-.07-.3Z" transform="translate(0.02 -0.2)"/><path class="cls-2" d="M133,129.11c5,12.31,14.36,3.39,21.66-1.25,13.42-9.33,28.94-13.68,44.83-8.38-12.24-1.58-24.56.26-35.36,6.2-6.86,3.28-13,8.75-20.58,11.07-5.6,1.59-9.68-2.32-10.55-7.64Z" transform="translate(0.02 -0.2)"/><path class="cls-2" d="M142.89,155.71c-.16-4.05.87-9,4.76-11.1a45.56,45.56,0,0,1,7.2-1.69c4.7-.61,9.79-2.28,14.52-.69a12.53,12.53,0,0,1,4.17,2.55,16.41,16.41,0,0,0-4.43-1.61c-3.08-.62-6.15.27-9.2.83-2.34.45-7.06,1.31-9.41,1.71-5,.38-6.65,5.81-7.61,10Z" transform="translate(0.02 -0.2)"/><path class="cls-2" d="M147.24,145.85c.66,3.76.84,7.59,1.75,11.23a4,4,0,0,0,.62,1.43s0,0,0,0a.23.23,0,0,0-.14,0c3.33-3.5,4.71-9,4.79-13.92a16.47,16.47,0,0,1-3.13,15.15c-5.73,4.21-4.42-11.21-3.89-13.85Z" transform="translate(0.02 -0.2)"/><path class="cls-2" d="M81.13,270.58c7.12,4.73,14,9.83,20.86,15-6,1-13.89,1.89-20,2.57l.35-.45c.46,6,1.19,12,2.06,17.92l.17,1.18-1-.71c-6.21-4.39-12.88-9.37-19-14l-.32-.23-.07-.42C63,285,62,278.39,61.06,271.81c6.68-.53,13.43-1,20.07-1.23Zm-.06.2c-6.34,1-12.59,1.93-18.89,2.74l.79-1c.59,3.1,1.17,6.21,1.72,9.32s1.07,6.24,1.56,9.36l-.39-.65,4.62,3.65c4.49,3.52,9.36,7.49,13.73,11.12l-.83.46c-.43-6-1-12-1.85-17.94l0-.38.4-.08c5.2-1,12.58-2.47,17.76-3.19l-.41,1.59c-6.07-4.73-12.36-9.86-18.16-15Z" transform="translate(0.02 -0.2)"/><path class="cls-2" d="M56.44,243.57c5.58,6.47,10.86,13.25,16,20.09-6-.63-13.88-1.93-19.94-2.92l.46-.34c-1.18,5.9-2.09,11.84-2.86,17.81L50,279.39l-.77-1c-4.8-5.89-9.88-12.49-14.53-18.55l-.24-.31,0-.42c.63-6.62,1.43-13.22,2.29-19.81,6.58,1.29,13.2,2.7,19.66,4.23Zm-.11.18c-6.39-.72-12.64-1.54-18.93-2.46l1-.79c-.27,3.15-.55,6.3-.86,9.44s-.65,6.29-1,9.43l-.2-.73,3.46,4.76c3.38,4.61,7,9.74,10.23,14.41l-.93.23c1.2-5.9,2.27-11.82,3.06-17.78l0-.38.41,0c5.28.45,12.78,1,18,1.72l-.82,1.42c-4.57-6.2-9.24-12.83-13.45-19.31Z" transform="translate(0.02 -0.2)"/><path class="cls-2" d="M40,210.9c3.63,7.74,6.89,15.69,10,23.67-5.65-2.23-12.85-5.6-18.42-8.19l.54-.21c-2.73,5.37-5.21,10.85-7.56,16.38l-.46,1.1-.49-1.13c-3-7-6.14-14.7-9-21.78l-.15-.37.15-.39c2.39-6.2,4.95-12.34,7.56-18.46,6,3,12,6.16,17.78,9.38Zm-.15.14c-6-2.41-11.76-4.89-17.57-7.48l1.22-.47q-1.66,4.44-3.38,8.86c-1.13,3-2.32,5.88-3.52,8.8V220l2.05,5.52c2,5.35,4.11,11.27,6,16.64l-.95,0c2.74-5.36,5.36-10.77,7.74-16.3l.15-.35.38.14c5,1.86,12,4.42,16.83,6.51l-1.17,1.14c-2.73-7.19-5.43-14.84-7.74-22.22Z" transform="translate(0.02 -0.2)"/><path class="cls-2" d="M32.89,175c1.41,8.43,2.4,17,3.27,25.49-4.84-3.67-10.86-8.86-15.53-12.85l.58-.06c-4.08,4.43-7.94,9-11.7,13.74l-.74.92L8.61,201c-1-7.53-1.95-15.81-2.78-23.4l0-.39L6,176.9c4-5.33,8.09-10.55,12.25-15.73,4.95,4.52,9.87,9.16,14.6,13.83Zm-.18.09c-5.09-3.93-10-7.88-14.9-11.94l1.3-.13c-1.87,2.55-3.74,5.1-5.65,7.62s-3.82,5-5.77,7.53l.21-.74.49,5.87c.49,5.69.92,12,1.25,17.63l-.91-.29c4.09-4.41,8.07-8.92,11.85-13.6l.24-.3.33.25c4.28,3.12,10.39,7.5,14.45,10.8l-1.44.78c-.69-7.66-1.22-15.76-1.45-23.48Z" transform="translate(0.02 -0.2)"/><path class="cls-2" d="M35.77,138.52C34.86,147,33.51,155.5,32,164c-3.66-4.84-8.06-11.47-11.47-16.57l.56.1c-5.11,3.17-10.08,6.56-15,10.07l-1,.7L5.37,157c1-7.53,2.39-15.75,3.64-23.27l.07-.4.33-.25c5.27-4.06,10.64-8,16-11.85,3.54,5.69,7,11.49,10.32,17.26Zm-.19,0c-3.84-5.16-7.51-10.29-11.13-15.52l1.29.22q-3.73,2.94-7.49,5.82t-7.59,5.69l.4-.65-1.12,5.79c-1.06,5.61-2.34,11.76-3.55,17.31l-.8-.53c5.13-3.14,10.18-6.41,15.08-9.9l.31-.22.26.32c3.27,4.17,8,10,11,14.3l-1.6.37c1.41-7.56,3.07-15.5,4.94-23Z" transform="translate(0.02 -0.2)"/><path class="cls-2" d="M48.4,104.17c-3.18,7.93-6.76,15.74-10.46,23.48-2.22-5.65-4.67-13.21-6.58-19.05l.52.25c-5.78,1.67-11.48,3.6-17.13,5.66l-1.12.41.5-1.12c3-7,6.54-14.53,9.78-21.44l.17-.36.39-.15c6.16-2.49,12.39-4.81,18.64-7.08,1.88,6.43,3.68,13,5.29,19.4Zm-.2,0c-2.31-6-4.46-11.93-6.53-17.94l1.18.56q-4.38,1.82-8.79,3.58c-2.93,1.19-5.88,2.32-8.84,3.43l.56-.51-2.63,5.27c-2.54,5.11-5.43,10.69-8.09,15.71l-.63-.72c5.79-1.65,11.53-3.43,17.19-5.47l.36-.13.16.38c2,4.9,5,11.81,6.74,16.74L37.23,125c3.4-6.9,7.15-14.1,11-20.82Z" transform="translate(0.02 -0.2)"/><path class="cls-2" d="M69.82,74.5c-5.2,6.78-10.76,13.33-16.4,19.79-.62-6-.94-14-1.2-20.12l.43.38c-6,0-12,.37-18,.83l-1.19.09.78-1c4.8-5.9,10.22-12.22,15.21-18l.25-.31.42,0c6.61-.73,13.24-1.29,19.87-1.79.07,6.7,0,13.47-.15,20.11Zm-.19-.07c-.6-6.4-1.07-12.69-1.44-19l1,.86c-3.14.38-6.28.75-9.42,1.08s-6.29.64-9.44.92L51,57.9,47,62.26C43.2,66.5,38.91,71.1,35,75.21l-.4-.86c6,0,12-.19,18-.63l.39,0,0,.4c.64,5.26,1.62,12.72,2,17.94l-1.56-.52c5.13-5.73,10.68-11.65,16.17-17.09Z" transform="translate(0.02 -0.2)"/><path class="cls-2" d="M98.45,51.71c-6.83,5.13-14,9.94-21.13,14.63,1-6,2.87-13.72,4.27-19.7l.31.49c-5.8-1.58-11.67-2.89-17.57-4.07l-1.17-.23,1-.7c6.21-4.39,13.13-9,19.49-13.23l.33-.22.42.07C91,29.83,97.5,31.08,104,32.39c-1.74,6.47-3.6,13-5.57,19.32Zm-.16-.12c1.15-6.32,2.39-12.51,3.74-18.72l.72,1.09q-4.69-.72-9.37-1.5c-3.12-.51-6.23-1.08-9.33-1.66l.74-.15-5,3.13C75,36.83,69.61,40.09,64.73,43l-.17-.93c5.8,1.6,11.64,3.06,17.53,4.26l.38.08-.06.4c-.81,5.24-1.88,12.68-3,17.8l-1.36-.91c6.49-4.14,13.43-8.34,20.19-12.1Z" transform="translate(0.02 -0.2)"/><path class="cls-2" d="M132.17,37.49c-8,3.09-16.12,5.8-24.3,8.38,2.62-5.47,6.47-12.43,9.43-17.81l.17.55C112.31,25.53,107,22.68,101.64,20l-1-.54,1.15-.41c7.16-2.55,15.08-5.13,22.34-7.47l.38-.13.38.18c6,2.81,12,5.78,17.9,8.8-3.42,5.76-7,11.52-10.57,17.1Zm-.13-.16c2.82-5.78,5.69-11.4,8.66-17l.4,1.25q-4.32-2-8.62-4c-2.86-1.33-5.7-2.71-8.54-4.11l.76,0-5.65,1.67c-5.47,1.64-11.52,3.33-17,4.81l.09-.95c5.16,3.11,10.38,6.09,15.73,8.84l.34.17-.17.37c-2.19,4.83-5.23,11.71-7.63,16.35l-1.07-1.25c7.37-2.23,15.19-4.4,22.7-6.2Z" transform="translate(0.02 -0.2)"/><path class="cls-2" d="M168.47,32.89c-8.5.83-17.08,1.24-25.65,1.52,4-4.57,9.58-10.22,13.88-14.6l0,.57c-4.15-4.37-8.48-8.53-12.91-12.6L142.94,7l1.22-.08c7.58-.52,15.9-.87,23.53-1.17l.4,0,.32.28c5,4.33,10,8.79,14.86,13.3-4.85,4.62-9.82,9.22-14.8,13.61Zm-.07-.18c4.26-4.81,8.54-9.45,12.93-14l0,1.3q-3.63-3-7.22-6.15c-2.4-2.06-4.77-4.16-7.12-6.27l.72.26-5.89.08c-5.71.1-12,.1-17.67,0l.35-.88c4.12,4.38,8.34,8.66,12.76,12.75l.28.26-.27.31c-3.41,4.06-8.19,9.86-11.76,13.69l-.69-1.5c7.7-.16,15.81-.14,23.54.16Z" transform="translate(0.02 -0.2)"/><path class="cls-2" d="M204.67,38.26c-8.41-1.49-16.79-3.41-25.11-5.46,5.07-3.32,12-7.26,17.31-10.32l-.14.56c-2.81-5.32-5.86-10.5-9-15.62l-.62-1,1.19.26c7.45,1.54,15.55,3.45,23,5.22l.38.09.24.35c3.69,5.53,7.23,11.16,10.72,16.81-5.91,3.15-11.94,6.23-17.92,9.12Zm0-.2c5.4-3.47,10.77-6.78,16.24-10l-.31,1.27q-2.69-3.91-5.3-7.87c-1.75-2.63-3.46-5.29-5.16-8l.62.44-5.69-1.5c-5.53-1.45-11.57-3.14-17-4.73l.58-.76c2.79,5.33,5.7,10.59,8.85,15.72l.19.33-.33.23c-4.38,3-10.55,7.28-15,10L182,31.57c7.45,1.92,15.26,4.12,22.62,6.49Z" transform="translate(0.02 -0.2)"/><path class="cls-2" d="M238.08,53.2c-7.7-3.71-15.24-7.82-22.71-12,5.78-1.83,13.5-3.76,19.45-5.27l-.28.5c-1.28-5.88-2.81-11.7-4.48-17.48l-.33-1.14,1.08.57c6.76,3.5,14.05,7.52,20.72,11.23l.34.19.13.4c2.07,6.32,4,12.69,5.79,19.08-6.54,1.43-13.17,2.78-19.71,4Zm0-.2c6.14-1.89,12.21-3.63,18.35-5.29l-.65,1.14q-1.51-4.5-3-9c-1-3-1.91-6-2.82-9.05l.48.59-5.08-3c-4.93-2.88-10.3-6.14-15.12-9.14l.76-.58c1.25,5.89,2.63,11.74,4.28,17.53l.1.36-.38.14c-5,1.69-12.13,4.16-17.17,5.58l.19-1.64c6.66,3.86,13.59,8.09,20,12.36Z" transform="translate(0.02 -0.2)"/><path class="cls-2" d="M266.22,76.59C259.81,71,253.65,65,247.59,58.88c6.07-.2,14,0,20.16.18l-.41.4c.36-6,.45-12,.4-18V40.24l.89.84c5.56,5.19,11.5,11,16.92,16.4l.28.28,0,.42c.28,6.64.38,13.29.43,19.93-6.69-.38-13.44-.87-20-1.52Zm.08-.18c6.43-.16,12.73-.2,19.09-.14l-.92.92c-.17-3.16-.32-6.31-.43-9.47s-.22-6.32-.28-9.48l.3.7L280,54.69c-4-4.1-8.26-8.7-12.09-12.89l.88-.34c-.38,6-.63,12-.6,18v.39l-.41,0c-5.29.27-12.8.74-18,.74l.62-1.52c5.37,5.51,10.9,11.45,16,17.3Z" transform="translate(0.02 -0.2)"/><path class="cls-2" d="M287,106.72c-4.65-7.17-9-14.61-13.15-22.08,5.89,1.44,13.48,3.8,19.35,5.6l-.5.28c2-5.69,3.68-11.45,5.25-17.26l.32-1.14.63,1c4,6.5,8.09,13.73,11.86,20.36l.2.34-.1.41c-1.52,6.47-3.21,12.9-5,19.32-6.34-2.18-12.71-4.47-18.9-6.87Zm.13-.16c6.23,1.58,12.31,3.24,18.42,5l-1.14.63c.7-3.08,1.4-6.16,2.14-9.24s1.5-6.14,2.3-9.2l.1.76-2.79-5.19c-2.71-5-5.6-10.61-8.16-15.68l.94-.09c-2,5.67-3.85,11.39-5.45,17.2l-.1.36L293,91c-5.17-1.16-12.52-2.74-17.56-4.15l1-1.29c3.68,6.76,7.4,14,10.69,21Z" transform="translate(0.02 -0.2)"/><path class="cls-2" d="M298.89,141.33c-2.55-8.16-4.69-16.48-6.71-24.81,5.29,3,12,7.3,17.12,10.62l-.55.13c3.43-4.94,6.63-10,9.71-15.2l.61-1,.33,1.18c2.05,7.32,4.08,15.4,5.93,22.8l.1.39-.21.36c-3.21,5.82-6.58,11.56-10,17.26-5.51-3.8-11-7.73-16.34-11.71Zm.16-.12c5.58,3.2,11,6.45,16.39,9.8l-1.27.31q2.25-4.17,4.55-8.32t4.69-8.24l-.1.75L322,129.76c-1.26-5.57-2.54-11.72-3.64-17.29l.94.16c-3.45,4.93-6.78,9.93-9.89,15.09l-.2.33-.36-.2c-4.66-2.51-11.32-6-15.79-8.73l1.33-1c1.72,7.5,3.36,15.45,4.63,23.07Z" transform="translate(0.02 -0.2)"/><path class="cls-2" d="M301,177.86c-.26-8.54-.08-17.13.23-25.7,4.28,4.29,9.55,10.26,13.62,14.85l-.57,0c4.64-3.83,9.09-7.87,13.45-12l.87-.82v1.23c0,7.6-.22,15.92-.43,23.55l0,.4-.29.3c-4.66,4.74-9.45,9.35-14.28,13.92-4.28-5.15-8.53-10.42-12.57-15.69Zm.18-.07c4.51,4.59,8.84,9.18,13.14,13.86l-1.3,0q3.28-3.42,6.62-6.79c2.22-2.25,4.48-4.47,6.74-6.67l-.3.7.32-5.88c.29-5.71.71-12,1.16-17.64l.86.41c-4.65,3.82-9.21,7.74-13.59,11.87l-.28.26-.29-.29c-3.82-3.68-9.28-8.85-12.85-12.67l1.53-.58c-.36,7.69-.93,15.78-1.76,23.46Z" transform="translate(0.02 -0.2)"/><path class="cls-2" d="M293.17,213.61c2.06-8.29,4.55-16.52,7.16-24.69,3,5.3,6.42,12.46,9.11,18l-.55-.18c5.5-2.44,10.88-5.13,16.2-7.94l1.05-.55-.33,1.17c-2.05,7.33-4.51,15.28-6.78,22.57l-.12.38-.36.21c-5.77,3.3-11.63,6.45-17.51,9.55-2.73-6.12-5.4-12.34-7.87-18.5Zm.2,0c3.1,5.63,6,11.21,8.91,16.89l-1.25-.4q4.1-2.4,8.22-4.75c2.74-1.57,5.51-3.09,8.29-4.6l-.49.59,1.9-5.58c1.82-5.41,3.92-11.33,5.88-16.67l.71.63c-5.51,2.42-11,5-16.28,7.76l-.34.17-.21-.35c-2.68-4.57-6.55-11-8.95-15.67l1.63-.14c-2.42,7.3-5.15,14.94-8,22.12Z" transform="translate(0.02 -0.2)"/><path class="cls-2" d="M276,245.92c4.22-7.43,8.84-14.68,13.55-21.84,1.43,5.9,2.83,13.73,3.93,19.77l-.48-.32c5.95-.87,11.86-2,17.74-3.28l1.16-.25-.64,1.05c-3.95,6.5-8.46,13.49-12.61,19.9l-.22.33-.41.1c-6.44,1.63-12.93,3.08-19.43,4.48-1-6.63-1.88-13.34-2.59-19.94Zm.19,0c1.47,6.26,2.79,12.43,4,18.67l-1.1-.72c3.06-.81,6.12-1.6,9.19-2.35s6.15-1.5,9.23-2.2l-.63.43,3.33-4.85c3.21-4.73,6.84-9.86,10.16-14.47l.52.8c-6,.84-11.89,1.82-17.78,3.07l-.37.08-.1-.39c-1.35-5.13-3.33-12.38-4.4-17.5l1.62.3c-4.31,6.38-9,13-13.7,19.13Z" transform="translate(0.02 -0.2)"/><path class="cls-2" d="M250.72,272.4c6.08-6,12.48-11.75,19-17.38-.22,6.07-1,14-1.55,20.1l-.38-.44c6,.77,12,1.27,18,1.63l1.18.08-.9.83c-5.55,5.19-11.79,10.71-17.51,15.76l-.3.26h-.42c-6.64-.18-13.28-.53-19.92-.94.84-6.64,1.79-13.34,2.88-19.89Zm.18.09c-.28,6.42-.67,12.72-1.16,19.06l-.86-1c3.16.05,6.33.12,9.49.22s6.31.22,9.47.37l-.72.25,4.52-3.78c4.37-3.68,9.24-7.65,13.68-11.18l.29.9c-6-.79-11.94-1.45-17.95-1.83l-.38,0v-.41c.09-5.3.13-12.82.49-18l1.47.73c-5.87,5-12.17,10.09-18.35,14.73Z" transform="translate(0.02 -0.2)"/><path class="cls-2" d="M219.25,291.08c7.47-4.16,15.18-7.95,22.93-11.62-1.84,5.78-4.71,13.19-6.91,18.93l-.25-.52c5.54,2.35,11.18,4.45,16.86,6.41l1.12.4-1.09.55c-6.75,3.51-14.24,7.14-21.11,10.45l-.36.18-.4-.13c-6.35-2-12.65-4.09-18.93-6.27,2.6-6.18,5.33-12.37,8.14-18.38Zm.15.13c-2,6.11-4.08,12.07-6.26,18l-.56-1.18c3,.9,6.06,1.82,9.07,2.76s6,1.92,9,2.92l-.76.05,5.37-2.42c5.19-2.37,11-4.87,16.19-7.08l0,.95c-5.53-2.38-11.11-4.62-16.79-6.61l-.36-.13.12-.39c1.52-5.08,3.59-12.31,5.34-17.24L241,282c-7,3.21-14.44,6.43-21.64,9.23Z" transform="translate(0.02 -0.2)"/><path class="cls-2" d="M183.91,300.57c8.32-2,16.76-3.56,25.21-5-3.33,5.07-8.1,11.44-11.76,16.36l-.09-.56c4.69,3.75,9.55,7.3,14.5,10.72l1,.68-1.2.25c-7.44,1.55-15.64,3-23.15,4.36l-.39.07-.35-.23c-5.59-3.6-11.08-7.35-16.54-11.15,4.17-5.24,8.47-10.47,12.8-15.5Zm.11.17c-3.58,5.34-7.18,10.52-10.9,15.68l-.22-1.28q4,2.52,8,5.11c2.66,1.71,5.29,3.47,7.9,5.24l-.74-.16,5.82-.88c5.65-.88,11.87-1.74,17.5-2.45l-.22.92c-4.68-3.78-9.45-7.44-14.38-10.89l-.31-.22.22-.35c2.82-4.48,6.77-10.88,9.79-15.16l.88,1.39c-7.6,1.21-15.64,2.3-23.33,3.05Z" transform="translate(0.02 -0.2)"/><path class="cls-2" d="M147.32,300.18c8.54.33,17.1,1.1,25.63,2-4.58,4-10.89,8.82-15.75,12.58l.07-.57c3.5,4.88,7.23,9.61,11.07,14.24l.75.92-1.22-.09c-7.59-.52-15.88-1.31-23.47-2.05l-.4,0-.28-.32c-4.4-5-8.68-10.07-12.91-15.2,5.43-3.92,11-7.8,16.51-11.47Zm.05.19c-4.88,4.18-9.75,8.19-14.72,12.16l.14-1.3c2.12,2.35,4.23,4.7,6.31,7.08s4.16,4.77,6.2,7.18l-.68-.35,5.85.72c5.67.68,11.89,1.53,17.51,2.36l-.46.83c-3.49-4.9-7.09-9.72-10.91-14.37l-.24-.29.3-.28c3.93-3.55,9.46-8.65,13.52-11.95l.47,1.57c-7.64-.89-15.68-2-23.29-3.36Z" transform="translate(0.02 -0.2)"/><path class="cls-2" d="M112.19,289.93c8.13,2.63,16.17,5.67,24.14,8.83-5.48,2.6-12.86,5.56-18.55,7.86l.21-.53c2.06,5.65,4.37,11.21,6.82,16.7l.48,1.09-1.16-.41c-7.16-2.55-14.93-5.54-22-8.31l-.37-.14-.18-.38c-2.9-6-5.65-12-8.33-18.12,6.28-2.3,12.67-4.54,19-6.59Zm0,.2c-5.83,2.71-11.6,5.26-17.46,7.74l.48-1.22c1.41,2.84,2.81,5.67,4.18,8.52s2.71,5.71,4,8.59l-.55-.52,5.43,2.27c5.28,2.18,11,4.68,16.23,7l-.67.67c-2-5.66-4.21-11.27-6.63-16.78l-.15-.35.36-.18c4.75-2.36,11.45-5.78,16.25-7.87l0,1.65c-7.12-2.92-14.56-6.17-21.52-9.52Z" transform="translate(0.02 -0.2)"/></svg>