<svg id="Layer_1" data-name="Layer 1" xmlns="http://www.w3.org/2000/svg" viewBox="0 0 332.19 332.19"><defs><style>.cls-1{fill:none;stroke-width:2px;}.cls-1,.cls-3{stroke:#1d1d1b;stroke-miterlimit:10;}.cls-2,.cls-3{fill:#1d1d1b;}.cls-3{stroke-width:0.5px;}</style></defs><circle class="cls-1" cx="166.1" cy="166.1" r="165.1"/><path class="cls-2" d="M295.75,167.26C295.9,259.45,203,323,117.52,286.81c-47.27-19.63-80-68.32-79.86-119.55-.86-92.36,94-155.85,179.13-120.1,47.46,19.43,79.61,69,79,120.1Zm-.3,0c.13-79.93-75.24-140.34-153.19-124.55-58.69,11.08-103,64.82-103,124.55C38.64,248.17,112.93,308,191.87,292.07c58.76-11.3,104.11-64.58,103.58-124.81Z" transform="translate(-0.94 -1.16)"/><path class="cls-2" d="M131.73,43.77c-3.35,2.82-10.44,6.44-10.17,11.2.12,1,.91,2.54,1.08,4.13a10.66,10.66,0,0,1-.44,4.6c-1.07,2.76-2.94,4.83-2.3,7.9C121.09,77,125.26,81.09,129,85A68.8,68.8,0,0,0,142,95.92l-.12.27a33.44,33.44,0,0,1-15.1-8.92c-4.08-4.17-8.44-9.39-8.47-15.57a10.94,10.94,0,0,1,1.13-4.47,18.86,18.86,0,0,0,1.88-3.8,7.4,7.4,0,0,0-1.13-5.74c-3.94-5.57,2.53-10.77,7.3-12.72a26,26,0,0,1,4.16-1.47l.13.27Z" transform="translate(-0.94 -1.16)"/><path class="cls-2" d="M120.43,208.75a29.61,29.61,0,0,1,8-.85c2.65,0,5.28.81,7.9.83,5.24-.11,10.51-1.42,15.76-1.91,5.23-.66,10.67-.87,15.86-1.42,1.89-.26,3.35-.61,4.06-2.29s.2-3.39.27-5.5a7.94,7.94,0,0,1,5.08-7.12c3.89-1.44,7.89-1.69,11.81-2.8,4.94-1.26,10-2.91,14-6a18.79,18.79,0,0,0,2-1.9c2-2.13,2.32-4.89,3-7.67a41.11,41.11,0,0,1,7.52-14.53c3.88-5.17,5.21-11.59,5.91-18.09.58-5.24.93-10.56,1.36-15.85.23-3.89.74-7.93.45-11.78-2.16-6.33-9-9.08-14.43-12.21a19.31,19.31,0,0,1-7.37-6.87A18.05,18.05,0,0,1,199.52,87c-.56-2.46-.36-5.37-2.21-7.21-4.2-3.5-10.07-.65-14.7.58a43.48,43.48,0,0,0-7.23,3.07c-2.32,1.21-4.45,2.78-6.9,4a22.7,22.7,0,0,1-12,2.24c-3.14-.37-6.29-1.47-9.06.48-2.58,1.75-3.35,5.25-4.94,7.88a208.83,208.83,0,0,1-12.71,20.49c-1.41,1.83-3.6,4.42-5.23,6.12-3.2,3.86-1.6,9.41.16,13.65a25.1,25.1,0,0,0,1.79,3.31c.76,1.15,1.86,2.32,2.21,3.86.78,3.25-1.12,6.32-3.12,8.48-1.68,2-3.32,4-4.82,6.15a177.6,177.6,0,0,0-15.47,27.5c-1.27,3.28-5.79,9.83-.91,11.86,3.68,1.63,7.45.39,11.35.68,7.13.6,8.31,3.16,5.92,9.6-.42,1.29-.9,2.58-1.44,3.84-.65,1.78-1.86,3.23-1.87,5,0,2.07,1.87,3.1,2.35,5.15a6.09,6.09,0,0,1-1,4.76c-.82,1.3-2.48,2.38-1.27,3.81.82.87,2.06,1.48,3,2.43a3.82,3.82,0,0,1,.59,5c-1.24,1.44-2,2.56-1.12,4.37,2.8,4.38,8.39,7.27,9.1,13a10.32,10.32,0,0,1-.3,4.21A58.1,58.1,0,0,1,126.36,273a33.19,33.19,0,0,1-9.75,12.63l-.19-.23a34.34,34.34,0,0,0,11.16-20.34c.29-1.59.87-4.34,1-5.82.42-6.43-6.41-9.29-9.44-14.14a5,5,0,0,1-.1-4.78c.54-1.15,1.65-1.65,1.46-2.8-.23-1.49-2.78-2.25-3.87-3.61a4,4,0,0,1-.15-5.09c1.43-1.7,2.72-3.78,1-5.72-1.49-1.72-2.36-4.54-1.43-6.75A68.58,68.58,0,0,0,119,209c.38-1.5,1.25-3.34.8-4.67a.66.66,0,0,0-.23-.24c-2.3-1.07-5.21-1-7.8-.76-3.52.42-7.75.17-10.73-2.22-4.39-4.19-.56-10.37,1.31-14.75,4.54-9.71,9.53-19.25,15.85-28a80.42,80.42,0,0,1,5.07-6.34c1.81-2,3.63-4.65,1.88-7.07-4.21-5.75-8-15.81-2.72-22,5.7-5.73,9.67-12.29,14-19.08,2.07-3.24,4.12-6.87,5.89-10.3.92-1.76,2.1-4,4-5a9.18,9.18,0,0,1,6.39-1.19c1.38.23,2.62.55,3.89.69a20.88,20.88,0,0,0,11.21-1.83c2.31-1.13,4.53-2.67,6.95-3.88a60.49,60.49,0,0,1,15.29-5c4.24-.85,9.17.73,9.74,5.59.46,2.62.6,5.25,1.76,7.65a13.2,13.2,0,0,0,2,3.32c5.43,6.84,16,7.65,20.34,15.71a6.65,6.65,0,0,1,.91,2c.45,4.09,0,8.05-.11,12.11-.5,8-.49,16.06-2,24a31,31,0,0,1-2.68,7.81c-1.09,2.41-3,4.51-4.41,6.75a39.83,39.83,0,0,0-4.72,10.51c-.72,3-1.37,6.39-3.64,8.74a24.3,24.3,0,0,1-2.35,2.2c-4.45,3.4-9.79,5.07-15.09,6.38-2.62.62-5.26,1.13-7.87,1.62-2.39.42-4.82,1-6.3,2.93-1.66,2.08-.8,4.45-1,7.09a5.75,5.75,0,0,1-4.25,5.26c-3.36.76-6.8.58-10.14.84-8,.2-15.83,1.85-23.87,1.92-2.7-.13-5.22-1-7.91-1.15a30.61,30.61,0,0,0-7.87.44l-.06-.29Z" transform="translate(-0.94 -1.16)"/><path class="cls-2" d="M133.22,129.34c5,12.23,14.28,3.36,21.54-1.26,13.34-9.28,28.77-13.6,44.57-8.32-12.17-1.56-24.41.26-35.15,6.17-6.81,3.26-13,8.7-20.46,11-5.57,1.58-9.63-2.31-10.5-7.6Z" transform="translate(-0.94 -1.16)"/><path class="cls-2" d="M143,155.78c-.16-4,.86-8.92,4.73-11.05a45,45,0,0,1,7.16-1.67c4.67-.61,9.74-2.27,14.44-.69a12.53,12.53,0,0,1,4.14,2.54,16.22,16.22,0,0,0-4.41-1.59c-3.06-.62-6.1.26-9.14.82-2.33.45-7,1.31-9.35,1.7-5,.38-6.62,5.77-7.57,9.94Z" transform="translate(-0.94 -1.16)"/><path class="cls-2" d="M147.36,146c.65,3.73.83,7.54,1.74,11.16a4,4,0,0,0,.62,1.42s0,0,0,0-.11-.05-.14,0c3.3-3.5,4.67-9,4.76-13.83a16.37,16.37,0,0,1-3.11,15.06c-5.71,4.19-4.41-11.15-3.87-13.77Z" transform="translate(-0.94 -1.16)"/><path class="cls-2" d="M81.63,270c7.09,4.69,14,9.77,20.75,14.93-5.95,1-13.81,1.87-19.88,2.55l.35-.45c.45,6,1.18,11.9,2,17.82l.17,1.17-1-.71c-6.18-4.35-12.82-9.31-18.89-13.86l-.32-.24-.07-.41c-1.17-6.51-2.18-13-3.12-19.59,6.64-.52,13.36-.95,20-1.21Zm-.06.19c-6.3,1-12.51,1.93-18.78,2.73l.79-1c.59,3.09,1.17,6.18,1.71,9.28s1.06,6.19,1.55,9.3l-.39-.66L71,293.41c4.47,3.51,9.31,7.45,13.66,11.06l-.83.47c-.43-6-1-11.92-1.85-17.84l0-.38.4-.08c5.18-1,12.51-2.46,17.66-3.17l-.41,1.59c-6-4.7-12.28-9.81-18.05-14.89Z" transform="translate(-0.94 -1.16)"/><path class="cls-2" d="M57.08,243.13c5.56,6.43,10.81,13.17,16,20-6-.62-13.81-1.92-19.84-2.9l.46-.35c-1.17,5.87-2.07,11.78-2.83,17.71l-.16,1.18-.77-.95c-4.77-5.86-9.82-12.42-14.44-18.44l-.24-.32,0-.42c.62-6.58,1.42-13.14,2.28-19.7,6.53,1.29,13.12,2.69,19.54,4.22Zm-.1.17c-6.36-.71-12.57-1.52-18.83-2.44l1-.79c-.26,3.13-.54,6.27-.85,9.39s-.65,6.25-1,9.38l-.2-.74,3.45,4.74c3.35,4.58,7,9.68,10.16,14.33l-.92.22c1.19-5.86,2.25-11.74,3-17.67l.06-.38.4,0c5.25.45,12.71,1,17.86,1.71l-.82,1.42c-4.54-6.15-9.18-12.75-13.36-19.2Z" transform="translate(-0.94 -1.16)"/><path class="cls-2" d="M40.69,210.65c3.62,7.69,6.86,15.6,10,23.54C45.05,232,37.89,228.61,32.35,226l.53-.21c-2.71,5.33-5.17,10.78-7.5,16.29l-.47,1.09-.48-1.13c-3-6.93-6.12-14.61-8.94-21.65l-.15-.37.16-.39c2.37-6.17,4.91-12.27,7.51-18.35,5.94,3,11.91,6.12,17.68,9.33Zm-.15.13c-5.92-2.39-11.69-4.85-17.47-7.43l1.22-.47c-1.1,2.94-2.21,5.88-3.36,8.81s-2.31,5.85-3.5,8.75v-.76l2,5.49c2,5.32,4.08,11.2,5.92,16.54l-.95,0c2.73-5.32,5.34-10.7,7.69-16.2l.16-.35.38.14c4.93,1.85,12,4.39,16.74,6.46l-1.18,1.15c-2.71-7.15-5.4-14.76-7.69-22.1Z" transform="translate(-0.94 -1.16)"/><path class="cls-2" d="M33.67,175c1.41,8.38,2.39,16.87,3.25,25.36-4.8-3.65-10.79-8.82-15.43-12.79l.57-.06c-4,4.41-7.89,9-11.63,13.66l-.74.93-.16-1.22c-1-7.49-1.95-15.71-2.76-23.26l0-.39.26-.34c3.95-5.3,8-10.49,12.18-15.65,4.92,4.5,9.81,9.12,14.51,13.76Zm-.18.09c-5.06-3.9-10-7.83-14.82-11.87L20,163q-2.77,3.81-5.61,7.58c-1.87,2.52-3.8,5-5.73,7.49l.21-.74.48,5.84c.48,5.66.91,11.89,1.24,17.52l-.91-.28c4.06-4.39,8-8.87,11.78-13.53l.24-.29.33.24c4.25,3.11,10.34,7.46,14.37,10.74l-1.44.78c-.68-7.62-1.22-15.67-1.44-23.35Z" transform="translate(-0.94 -1.16)"/><path class="cls-2" d="M36.54,138.68c-.91,8.46-2.25,16.9-3.71,25.3-3.64-4.82-8-11.4-11.41-16.48l.56.1c-5.08,3.15-10,6.52-14.88,10l-1,.69.17-1.21c1-7.49,2.37-15.66,3.62-23.14l.06-.39.34-.26c5.23-4,10.57-7.93,16-11.78,3.52,5.66,7,11.42,10.26,17.16Zm-.2,0c-3.81-5.12-7.46-10.22-11.06-15.42l1.28.22q-3.7,2.92-7.44,5.79c-2.49,1.92-5,3.79-7.55,5.65l.4-.64-1.11,5.75c-1.06,5.57-2.33,11.69-3.53,17.2l-.8-.52c5.1-3.12,10.12-6.37,15-9.84l.31-.22.26.32C25.35,151.15,30,157,33,161.23l-1.6.37c1.4-7.53,3-15.42,4.91-22.88Z" transform="translate(-0.94 -1.16)"/><path class="cls-2" d="M49.09,104.53c-3.16,7.9-6.72,15.67-10.4,23.36-2.21-5.62-4.64-13.14-6.54-19l.52.25c-5.75,1.66-11.41,3.58-17,5.63l-1.12.41.49-1.12c3-6.94,6.51-14.44,9.73-21.31l.17-.36.39-.16c6.13-2.47,12.32-4.78,18.54-7,1.86,6.4,3.65,12.89,5.25,19.29Zm-.2,0c-2.29-6-4.43-11.86-6.5-17.84l1.18.56q-4.35,1.82-8.73,3.57C31.93,92,29,93.11,26.05,94.22l.56-.52L24,98.94c-2.52,5.08-5.4,10.63-8,15.62l-.62-.72c5.75-1.64,11.46-3.41,17.09-5.44l.36-.12.16.37c2,4.87,5,11.75,6.7,16.65L38,125.22c3.37-6.87,7.1-14,10.9-20.7Z" transform="translate(-0.94 -1.16)"/><path class="cls-2" d="M70.38,75c-5.16,6.75-10.69,13.26-16.3,19.69-.62-6-.93-13.91-1.2-20l.43.38c-6,0-12,.37-17.91.83L34.21,76l.78-1c4.77-5.87,10.16-12.15,15.12-17.89l.25-.3.42,0c6.57-.73,13.16-1.28,19.76-1.77.07,6.66,0,13.39-.16,20ZM70.2,75c-.6-6.36-1.07-12.62-1.44-18.93l1,.86q-4.68.57-9.37,1.07c-3.12.35-6.25.64-9.38.92l.67-.35-3.93,4.34c-3.8,4.21-8.07,8.78-12,12.86l-.41-.85c6,0,12-.19,17.92-.63l.38,0,.05.4c.63,5.23,1.61,12.65,2,17.84L54.11,92c5.11-5.7,10.62-11.58,16.09-17Z" transform="translate(-0.94 -1.16)"/><path class="cls-2" d="M98.85,52.38c-6.8,5.11-13.88,9.89-21,14.56,1-5.95,2.86-13.65,4.26-19.59l.31.48c-5.77-1.57-11.61-2.87-17.48-4l-1.16-.24,1-.7c6.18-4.36,13.06-9,19.38-13.15l.33-.22.42.07c6.52,1.07,13,2.32,19.5,3.62-1.73,6.43-3.58,12.9-5.54,19.21Zm-.16-.12c1.14-6.28,2.38-12.43,3.72-18.61l.71,1.09c-3.11-.48-6.21-1-9.31-1.49s-6.19-1.07-9.28-1.65l.74-.15-5,3.11c-4.79,3-10.13,6.28-15,9.16l-.16-.94c5.77,1.59,11.57,3,17.43,4.24l.37.08-.06.4C82.1,52.71,81,60.11,80,65.2l-1.36-.92C85.07,60.17,92,56,98.69,52.26Z" transform="translate(-0.94 -1.16)"/><path class="cls-2" d="M132.37,38.24c-7.92,3.09-16,5.78-24.16,8.35,2.6-5.45,6.43-12.37,9.38-17.72l.17.55c-5.14-3.07-10.4-5.9-15.74-8.6L101,20.28l1.16-.41c7.12-2.53,15-5.1,22.21-7.43l.38-.13.38.18c6,2.79,11.91,5.75,17.8,8.75-3.4,5.73-6.93,11.46-10.52,17Zm-.12-.15c2.79-5.75,5.64-11.34,8.6-16.93l.39,1.25q-4.29-1.95-8.56-3.95c-2.85-1.32-5.67-2.7-8.49-4.09l.76.05-5.62,1.66c-5.44,1.63-11.45,3.31-16.9,4.78l.09-.95C107.65,23,112.84,26,118.16,28.7l.34.17-.17.37c-2.18,4.8-5.2,11.64-7.59,16.26l-1.06-1.25c7.32-2.22,15.09-4.38,22.57-6.16Z" transform="translate(-0.94 -1.16)"/><path class="cls-2" d="M168.47,33.67c-8.46.84-17,1.24-25.52,1.52,4-4.55,9.53-10.17,13.81-14.53v.58c-4.11-4.34-8.42-8.49-12.83-12.53l-.87-.81,1.22-.08c7.54-.52,15.82-.86,23.4-1.16l.39,0,.32.27c5,4.31,9.92,8.75,14.78,13.23-4.82,4.6-9.76,9.17-14.71,13.53Zm-.08-.18c4.24-4.78,8.49-9.39,12.85-14l0,1.3q-3.61-3-7.18-6.11c-2.39-2.05-4.73-4.13-7.07-6.23l.71.25-5.85.09c-5.68.1-11.92.09-17.57,0l.35-.89c4.1,4.36,8.3,8.61,12.69,12.68l.28.26-.27.31c-3.39,4-8.14,9.8-11.69,13.61l-.69-1.5c7.65-.16,15.72-.14,23.4.16Z" transform="translate(-0.94 -1.16)"/><path class="cls-2" d="M204.45,39c-8.37-1.48-16.7-3.39-25-5.42,5.05-3.31,11.92-7.22,17.22-10.26l-.14.55c-2.79-5.29-5.82-10.44-9-15.52l-.63-1,1.2.26c7.4,1.53,15.46,3.43,22.84,5.19l.39.09.23.35c3.67,5.5,7.19,11.09,10.66,16.72-5.88,3.13-11.87,6.19-17.82,9.06Zm0-.2c5.37-3.45,10.71-6.75,16.14-10l-.31,1.27q-2.65-3.9-5.26-7.83c-1.75-2.61-3.45-5.26-5.13-7.91l.62.44-5.66-1.5c-5.5-1.43-11.51-3.12-16.93-4.7l.57-.76c2.78,5.3,5.67,10.54,8.8,15.63l.2.33-.34.23c-4.35,3-10.49,7.24-14.93,9.94l-.26-1.62c7.41,1.91,15.18,4.1,22.49,6.46Z" transform="translate(-0.94 -1.16)"/><path class="cls-2" d="M237.67,53.86c-7.66-3.68-15.17-7.77-22.6-12,5.76-1.82,13.43-3.74,19.35-5.24l-.28.5c-1.26-5.85-2.79-11.63-4.45-17.37l-.33-1.14,1.08.56c6.72,3.48,14,7.48,20.6,11.16l.35.19.13.41c2,6.28,3.93,12.62,5.75,19-6.51,1.43-13.1,2.77-19.6,3.92Zm0-.2c6.1-1.87,12.13-3.6,18.24-5.26l-.65,1.14q-1.5-4.47-3-8.95c-1-3-1.89-6-2.8-9l.48.59-5-3c-4.9-2.87-10.24-6.11-15-9.1l.76-.57c1.24,5.85,2.61,11.67,4.25,17.42l.11.37-.39.13c-5,1.68-12,4.14-17.06,5.55l.19-1.63c6.62,3.83,13.5,8,19.91,12.28Z" transform="translate(-0.94 -1.16)"/><path class="cls-2" d="M265.64,77.12c-6.38-5.61-12.5-11.57-18.53-17.61,6-.2,13.94,0,20.05.18l-.41.4c.36-6,.45-12,.4-17.93V41l.89.84c5.53,5.16,11.43,11,16.82,16.3l.29.28v.42c.28,6.61.39,13.22.43,19.83-6.65-.39-13.37-.88-19.94-1.52Zm.08-.18c6.39-.16,12.66-.2,19-.14l-.93.92c-.16-3.14-.32-6.28-.43-9.42s-.21-6.28-.27-9.43l.29.7-4.05-4.22c-3.95-4.08-8.21-8.65-12-12.81l.88-.35c-.38,6-.63,11.94-.6,17.92v.38l-.41,0c-5.26.27-12.72.73-17.92.74l.62-1.52c5.34,5.48,10.83,11.38,15.85,17.2Z" transform="translate(-0.94 -1.16)"/><path class="cls-2" d="M286.3,107.07c-4.63-7.13-8.92-14.52-13.09-22,5.87,1.43,13.42,3.78,19.26,5.58L292,91c2-5.66,3.65-11.39,5.22-17.16l.31-1.15.63,1c3.94,6.46,8.05,13.64,11.8,20.24l.2.34-.1.41c-1.51,6.44-3.2,12.83-4.94,19.21-6.3-2.17-12.63-4.45-18.79-6.84Zm.13-.16c6.2,1.57,12.24,3.23,18.32,5l-1.14.63c.69-3.06,1.39-6.13,2.12-9.18s1.49-6.11,2.28-9.15l.1.75-2.76-5.16c-2.7-5-5.57-10.54-8.12-15.58l.95-.1c-2,5.65-3.83,11.33-5.42,17.1l-.1.37-.4-.09c-5.14-1.16-12.46-2.72-17.46-4.12l1-1.3c3.66,6.72,7.35,13.89,10.62,20.84Z" transform="translate(-0.94 -1.16)"/><path class="cls-2" d="M298.12,141.48c-2.54-8.12-4.67-16.39-6.68-24.68,5.26,3,11.9,7.26,17,10.57l-.56.13c3.41-4.91,6.59-10,9.66-15.11l.61-1,.32,1.18c2.05,7.28,4.07,15.31,5.9,22.67l.1.38-.2.37c-3.2,5.79-6.54,11.49-9.94,17.16-5.49-3.78-11-7.69-16.25-11.65Zm.16-.12c5.55,3.19,10.93,6.41,16.3,9.74l-1.27.31q2.24-4.16,4.52-8.27c1.52-2.76,3.09-5.48,4.67-8.2l-.11.76L321.12,130c-1.25-5.54-2.52-11.65-3.61-17.19l.93.16c-3.43,4.9-6.74,9.88-9.82,15l-.2.33-.36-.2c-4.64-2.5-11.26-6-15.7-8.68l1.32-1c1.71,7.45,3.34,15.35,4.6,22.93Z" transform="translate(-0.94 -1.16)"/><path class="cls-2" d="M300.21,177.8c-.25-8.5-.07-17,.23-25.57,4.27,4.28,9.5,10.21,13.55,14.78l-.57,0c4.61-3.81,9-7.82,13.38-11.94l.86-.82v1.22c0,7.56-.21,15.84-.43,23.42v.4l-.29.3c-4.64,4.71-9.4,9.3-14.21,13.84-4.25-5.12-8.48-10.36-12.5-15.6Zm.19-.07c4.48,4.56,8.79,9.12,13.07,13.78l-1.31,0c2.18-2.26,4.38-4.52,6.59-6.75s4.45-4.44,6.7-6.63l-.3.7.31-5.85c.29-5.67.72-11.9,1.16-17.53l.86.41c-4.62,3.79-9.16,7.69-13.51,11.8l-.28.26-.29-.29c-3.79-3.66-9.23-8.79-12.78-12.59l1.54-.59c-.37,7.65-.93,15.69-1.76,23.33Z" transform="translate(-0.94 -1.16)"/><path class="cls-2" d="M292.43,213.34c2.05-8.25,4.53-16.43,7.12-24.56,2.95,5.27,6.39,12.39,9.06,17.88l-.54-.17c5.46-2.43,10.81-5.1,16.1-7.9l1.05-.55-.33,1.18c-2,7.28-4.48,15.19-6.74,22.43L318,222l-.36.21c-5.74,3.29-11.56,6.42-17.41,9.5-2.72-6.08-5.37-12.27-7.83-18.4Zm.2,0c3.08,5.6,6,11.14,8.86,16.78l-1.24-.39q4.06-2.39,8.17-4.72c2.72-1.56,5.48-3.08,8.24-4.58l-.49.59,1.89-5.54c1.81-5.39,3.9-11.27,5.84-16.57l.72.62c-5.48,2.41-10.89,4.94-16.19,7.71l-.34.18-.21-.35c-2.66-4.55-6.51-11-8.9-15.58l1.63-.14c-2.41,7.26-5.12,14.85-8,22Z" transform="translate(-0.94 -1.16)"/><path class="cls-2" d="M275.35,245.46c4.2-7.39,8.79-14.6,13.48-21.72,1.42,5.86,2.81,13.65,3.9,19.66l-.48-.32c5.92-.86,11.8-2,17.64-3.26l1.16-.24-.64,1c-3.92,6.46-8.41,13.42-12.54,19.78l-.21.34-.41.1c-6.41,1.62-12.86,3.06-19.33,4.45-1-6.59-1.86-13.26-2.57-19.83Zm.2,0c1.45,6.23,2.77,12.36,4,18.56l-1.09-.72c3-.8,6.08-1.59,9.14-2.34s6.1-1.48,9.17-2.18l-.63.43,3.31-4.83c3.19-4.69,6.8-9.79,10.1-14.37l.52.79c-5.92.84-11.82,1.81-17.67,3.06L292,244l-.11-.4c-1.34-5.1-3.31-12.31-4.37-17.4l1.62.3c-4.28,6.34-8.95,12.92-13.62,19Z" transform="translate(-0.94 -1.16)"/><path class="cls-2" d="M250.24,271.78c6-6,12.4-11.68,18.83-17.28-.21,6-1,13.91-1.54,20l-.38-.44c5.94.77,11.9,1.27,17.87,1.62l1.18.08-.9.83c-5.52,5.16-11.72,10.65-17.41,15.67l-.29.26h-.43c-6.6-.17-13.21-.52-19.81-.93.84-6.61,1.79-13.27,2.88-19.79Zm.17.1c-.27,6.38-.66,12.64-1.15,18.95l-.85-1c3.14.05,6.28.11,9.42.21s6.29.22,9.42.37l-.71.25,4.49-3.75c4.34-3.66,9.18-7.61,13.6-11.12l.29.9c-5.93-.79-11.88-1.44-17.84-1.82l-.39,0v-.41c.09-5.26.13-12.74.48-17.93l1.48.73c-5.83,4.95-12.1,10-18.25,14.64Z" transform="translate(-0.94 -1.16)"/><path class="cls-2" d="M219,290.35c7.43-4.13,15.1-7.9,22.8-11.56-1.83,5.76-4.69,13.13-6.88,18.83l-.24-.52c5.5,2.34,11.11,4.43,16.76,6.38l1.12.4-1.09.55c-6.71,3.49-14.16,7.1-21,10.39l-.36.18-.4-.13c-6.32-1.95-12.58-4.07-18.82-6.24,2.59-6.14,5.3-12.3,8.1-18.28Zm.14.14c-2,6.07-4,12-6.22,17.94l-.55-1.18q4.52,1.33,9,2.74c3,.93,6,1.91,9,2.9l-.76.05,5.34-2.41c5.16-2.35,10.89-4.84,16.09-7l0,.95c-5.5-2.36-11.05-4.6-16.69-6.57l-.36-.13.12-.39c1.5-5.05,3.56-12.24,5.3-17.14l1.22,1.09c-7,3.2-14.35,6.4-21.52,9.18Z" transform="translate(-0.94 -1.16)"/><path class="cls-2" d="M183.81,299.79c8.27-2,16.68-3.54,25.08-5-3.32,5.05-8.06,11.38-11.71,16.28l-.09-.57c4.67,3.74,9.5,7.26,14.42,10.67l1,.68-1.2.24c-7.4,1.55-15.54,3-23,4.34l-.39.07-.36-.22c-5.55-3.59-11-7.32-16.44-11.09,4.15-5.21,8.42-10.42,12.73-15.42Zm.11.18c-3.56,5.31-7.14,10.45-10.83,15.59l-.22-1.29c2.66,1.68,5.31,3.36,7.94,5.08s5.26,3.45,7.86,5.21l-.74-.16,5.79-.88c5.61-.87,11.79-1.72,17.4-2.43l-.23.93c-4.65-3.76-9.39-7.41-14.3-10.83l-.31-.22.22-.35c2.81-4.45,6.73-10.82,9.73-15.07l.88,1.39c-7.55,1.2-15.54,2.28-23.19,3Z" transform="translate(-0.94 -1.16)"/><path class="cls-2" d="M147.43,299.41c8.5.32,17,1.08,25.49,2-4.55,4-10.82,8.78-15.66,12.51l.06-.57c3.49,4.86,7.2,9.55,11,14.16l.76.92-1.23-.09c-7.54-.51-15.78-1.3-23.33-2l-.4,0-.27-.32c-4.39-4.94-8.64-10-12.85-15.11,5.41-3.9,10.92-7.75,16.42-11.4Zm.06.19c-4.86,4.16-9.69,8.14-14.64,12.09l.14-1.3q3.16,3.5,6.28,7c2.09,2.35,4.13,4.74,6.16,7.14l-.67-.36,5.81.72c5.63.67,11.82,1.52,17.41,2.35l-.47.83c-3.47-4.87-7-9.66-10.84-14.29l-.24-.29.3-.28c3.91-3.53,9.4-8.6,13.44-11.88l.47,1.57c-7.6-.88-15.59-2-23.15-3.34Z" transform="translate(-0.94 -1.16)"/><path class="cls-2" d="M112.51,289.22c8.09,2.6,16.08,5.63,24,8.77-5.45,2.59-12.79,5.53-18.46,7.82l.22-.53c2,5.62,4.35,11.14,6.77,16.61l.48,1.08-1.15-.41c-7.12-2.53-14.85-5.51-21.92-8.25l-.37-.14-.18-.38c-2.89-6-5.62-12-8.29-18,6.25-2.3,12.6-4.52,18.89-6.55Zm0,.2c-5.8,2.69-11.53,5.23-17.36,7.69l.49-1.21c1.4,2.81,2.79,5.63,4.14,8.47s2.7,5.67,4,8.53l-.55-.52,5.4,2.26c5.24,2.17,11,4.66,16.13,7l-.67.67c-2-5.63-4.18-11.2-6.59-16.68l-.15-.35.36-.18c4.72-2.35,11.38-5.75,16.15-7.82l0,1.64c-7.08-2.9-14.47-6.13-21.39-9.46Z" transform="translate(-0.94 -1.16)"/><path class="cls-3" d="M246.37,246.65c-4.4.21-9,.29-13.41.3,2.13-2.27,5.12-5.2,7.36-7.41v.21c-2.1-2.29-4.48-4.73-6.7-6.93l-.32-.32.46,0c3.64-.12,8.9-.15,12.59-.19h.16l.11.11c2.59,2.36,5.13,4.77,7.65,7.2-2.6,2.39-5.25,4.76-7.9,7.06Zm0-.08c2.39-2.45,4.78-4.85,7.21-7.22v.48c-1.26-1.13-2.52-2.26-3.76-3.4s-2.48-2.3-3.71-3.46l.26.11-6.29-.07c-2.1,0-4.2-.08-6.3-.13l.14-.33c2.11,2.31,4.44,4.79,6.65,7l.1.1-.1.11c-1.91,2.1-4.59,5.1-6.55,7.09l-.24-.57c4.12,0,8.45.11,12.58.3Z" transform="translate(-0.94 -1.16)"/></svg>