<svg id="Layer_1" data-name="Layer 1" xmlns="http://www.w3.org/2000/svg" viewBox="0 0 327.88 327.88"><defs><style>.cls-1{stroke:#fff;stroke-miterlimit:10;}.cls-2{fill:#fff;}</style></defs><circle class="cls-1" cx="163.94" cy="163.94" r="163.44"/><path class="cls-2" d="M285.75,115.55c23.14,50.81,10.67,111.21-31.09,148.38-66.67,58.79-170.78,36.35-207-45-19.11-41-13.72-88.8,12.67-125.35a143,143,0,0,1,57.45-46.88l.13.27C73.58,68.67,40.18,114,39.43,164,38.09,213.55,68.7,261.6,112.92,283.3a122.49,122.49,0,0,0,63,12.47C235.75,292.18,286.45,243.09,294.1,184c2.65-17.6,1-35.64-3.38-52.86a125.39,125.39,0,0,0-5.24-15.47l.27-.12Z" transform="translate(-3.1 -3.32)"/><path class="cls-2" d="M293.33,140.36c-.92-5.89-11.8-68.4-68.18-94.7-32.31-15.08-62.76-10.43-74.6-7.95-23.7,2.25-30.12,6.2-31.22,9.59-.4,1.26-1.59,5.62-2.91,9.36-.54,1.53-1.14,3.06-1.59,4.49-.37,1.27-.67,2.19,0,3.29.49.85,1.83,1.49,3.32,2.43a14.61,14.61,0,0,1,5.32,5.89,7.66,7.66,0,0,0,4.63,3.8C134.4,78.38,135,83.31,137,88.4c1.64,3.35,3.66,2.68,6.22.9a15.18,15.18,0,0,1,14.61-1.52,48.09,48.09,0,0,0,18.71,3.51c.18,0,.2.29,0,.3a47.65,47.65,0,0,1-14.53-1c-3.08-.62-6.07-2.22-9.17-2.29a13.77,13.77,0,0,0-8.43,2.83c-1.78,1.35-4.33,2.8-6.65,1.51-5-2.51-3.61-10.17-8.54-12.56-2.18-1-5-1.56-6.74-3.58-1.27-1.19-1.82-2.87-2.83-4.15a10.79,10.79,0,0,0-3.14-2.83c-2.87-1.43-4.34-2.89-4.93-4.52s-.24-3.06,1.84-9.42c1.4-4.32,1.44-5.42,2.4-7.53,1.92-4.22,6.85-6.45,18.54-9.27a216.69,216.69,0,0,1,35.47-5.51c7.1-.5,10.65-.75,14.61-.67,5.52.1,33.44,1.1,58.71,19.44a108.74,108.74,0,0,1,26.72,28.23c2.17,3.32,7.16,11.34,15,33.54C287.25,120.43,290.26,129.44,293.33,140.36Z" transform="translate(-3.1 -3.32)"/><path class="cls-2" d="M129.92,78.68a10.09,10.09,0,0,0-2.6,1.68c-3.29,2.92-3.58,7.12-4.23,12.82-1.67,14.46-2.65,13.07-2,15.58,1.26,5.21,3.89,9.81,6.38,14.58,1.73,4-.64,7.21-3.61,9.68a15.19,15.19,0,0,0-2.84,4.81c-2,4.92-3.61,10.12-5.61,15.06-3.67,9.19-7.91,18.83-12.22,27.75a7.5,7.5,0,0,1-1.34,2c-3.93,3.92,3.5,7.4,6.77,8.15a26.36,26.36,0,0,0,11.31-.31c1.91-.33,4.3-1.42,6.14.09a2.86,2.86,0,0,1,.94,1.73c.25,2.36-.38,4.32-.74,6.49-.67,4.18-2.3,8.5-5.49,11.43-.73.8-1.46,1.08-1.16,2,.12.58,1.22,1.33,2.35,2.3a7,7,0,0,1,2.44,4.18c.19,3-.66,5.6-1.44,8.49l-.35,1c-.69,2,1,3.09,2.56,4.56,3,2.89,5.83,6.25,7.12,10.31a8.35,8.35,0,0,1,0,4.49c-.85,3-3.53,4.76-3.55,6.93a4.46,4.46,0,0,0,1.18,3.16,3.8,3.8,0,0,1,1,2.26,3.35,3.35,0,0,1-.93,2.33c-2.15,2.06-4.7,2.79-7.24,4-3.13,1.54-8,2.46-10.94,4.91-1.84,1.55-4,4.39-4.82,10l3.9,2.44-5-3.51a14.8,14.8,0,0,1,3.35-7.48c3.37-3.81,9.69-5.79,13-7.44,1.2-.59,2.4-1.19,3.56-1.82,1.46-.91,3.47-1.7,3.56-3.48-.13-1.14-1.47-2-1.87-3.22a5.55,5.55,0,0,1,.15-4.58c.87-1.75,2.41-3.3,2.84-5.09.63-2.28-.3-4.67-1.75-6.75a29.4,29.4,0,0,0-5.09-5.83,13.13,13.13,0,0,1-3-3.21,4.86,4.86,0,0,1-.32-3.89l.31-.93a33.64,33.64,0,0,0,.87-3.77c.53-2.51.83-4.44-1.25-6.11-1.12-1-2.53-1.7-3.16-3.4a3.66,3.66,0,0,1,.22-3.1c1.37-1.88,2.77-2.72,3.81-4.67,2-3.24,2.4-7.3,3-11a6.27,6.27,0,0,0,0-1.66s.07.09,0,.07,0,0-.16-.05a5.52,5.52,0,0,0-1.49.17c-4.76,1.17-9.66,1.91-14.57.8-5.67-1.14-14.05-7.09-8.23-13.06a14.26,14.26,0,0,0,1.79-3.09l1.7-3.61c4.42-9.6,9-19.58,12.71-29.45,1.84-4.38,3-9.37,6.42-13,1.35-1.19,3-2.46,3.53-4.19.87-2.44-.84-4.57-1.91-6.79a50.51,50.51,0,0,1-4.29-11.48c-.8-3.7.29-4.41,2.69-16,2.17-10.47,2.45-15.63,4.7-16C128.07,76.81,129.14,77.76,129.92,78.68Z" transform="translate(-3.1 -3.32)"/><path class="cls-2" d="M138.46,135.92a11.16,11.16,0,0,1,4.15-8.07c2.57-1.87,6-2,9-2.32,5.89-.78,12.29-.16,17.31,3.21a48.42,48.42,0,0,0-12.74-.67c-2.49.28-6.13.6-8.56.83-4.44.19-7,3.13-9.12,7Z" transform="translate(-3.1 -3.32)"/><path class="cls-2" d="M170.66,126.05c-2.63.44-6.47.93-9.16,1.26a20.11,20.11,0,0,1-9.25-.37c-.09,0-.09-.16,0-.2a20.45,20.45,0,0,1,9.17-1c2.72,0,6.55,0,9.23.14a.1.1,0,0,1,0,.2Z" transform="translate(-3.1 -3.32)"/><path class="cls-2" d="M142.62,129.28c.37,3.1.5,6.17.86,9.13.25,1.59.46,3.91,1.39,4.81a2.11,2.11,0,0,0,.87-.44c4.86-3.61,4.64-10,3.08-15.47,4.24,5.16,4.58,13.64-1.33,17.9-1.14.9-3,1.44-4.38.37-3.53-3.18-1.58-12.24-.49-16.3Z" transform="translate(-3.1 -3.32)"/><path class="cls-2" d="M130.51,114.37c3,2.55,7.44,5.14,11.21,3.26,1.63-.9,3.5-2.49,5.59-3.53,6.18-3.28,13.7-3.38,20.29-2.1a33.25,33.25,0,0,1,12.6,4.81c-8.32-2.49-17.26-3.55-25.68-2.08-4.51.69-7.85,3-11.87,5-4.91,1.85-9.61-1.58-12.14-5.4Z" transform="translate(-3.1 -3.32)"/><path class="cls-2" d="M195.52,117.22c1.87,0,2.52,7,6.49,10.18,4.73,3.8,10.91,5.69,16.77,7.16,3,.74,6.42.87,9.18,2.63,3.88,2.47,5.26,7.14,5.67,11.44,1,7.49-1.52,15.05-5.23,21.46-3.27,5.52-7.47,10.71-13.1,14-1.88,1.1-3.76,1.95-5.39,3a29.45,29.45,0,0,0-8.17,8.32c-2.47,3.46-3.8,7.53-7,10.67a28.25,28.25,0,0,1-11.65,6.41,25.38,25.38,0,0,1-13.32.31,24.3,24.3,0,0,0-11.54-1.3c-3.79.7-7.31,0-9.75-3.32-1.49-1.89-3-3.64-5.23-4.45A17.78,17.78,0,0,1,136,200a14,14,0,0,0-2.34-1.76c-3.71-1.89-7.7,1.18-8.69-.16a2,2,0,0,1,.34-2.18c1.6-1.84,6.55.05,9,1,3,1.13,2.48,3.5,8.08,4.08a11.34,11.34,0,0,1,6.1,2.84c2.1,1.76,3.52,4.57,6.48,4.5,3-.31,6.25-1,9.42-.71a36.09,36.09,0,0,1,6.37,1.26,22.44,22.44,0,0,0,11.23-.44,25,25,0,0,0,10-5.25,18.88,18.88,0,0,0,3.41-4.5,48.5,48.5,0,0,1,7.65-10.3c2.88-3.11,7.12-5.15,10.74-7,5.26-2.88,9.23-7.63,12.38-12.66,4.23-6.79,6.68-14.92,5-22.88-.6-3.85-2.84-7.4-6.73-8.48s-8.16-1.81-12-3.38c-5.94-2.13-11-5-14.24-9.72-1.35-2-3.91-6.24-3.09-7A.54.54,0,0,1,195.52,117.22Z" transform="translate(-3.1 -3.32)"/><path class="cls-2" d="M154.3,303.06a281.07,281.07,0,0,1,31.93-1.19,217.64,217.64,0,0,0,.34,22.12l0,.52-.56,0q-16.11,1-32.23,1.1c-.06-7.39.2-15.22.49-22.59Zm.15.14c.48,6.22,1.13,15.32,1.37,21.42l-1-1c10.4-.36,20.81-.39,31.22-.17l-.53.55.07-5.38c.06-5.18-.22-10.93-.6-16.13l.65.62c-10.2.78-20.89.4-31.15.08Z" transform="translate(-3.1 -3.32)"/><path class="cls-2" d="M163,324.47a57,57,0,0,1-.82-15,54.42,54.42,0,0,0,8.17.25l0,.33c.13,2.29.44,4.57.64,6.85l-.84-.8c1.22-.1,2.45-.17,3.68-.24s2.46-.16,3.69-.18l-1,1.09a92.73,92.73,0,0,1,.63-14.13h.2a95,95,0,0,1,1.3,14.08v1.06l-1.05,0c-2.75,0-5.51,0-8.26-.09.09-2.55.35-5.11.39-7.66l.33.32a48.51,48.51,0,0,0-7.22.51l.67-.7a57.21,57.21,0,0,1-.3,14.26Z" transform="translate(-3.1 -3.32)"/><path class="cls-2" d="M119.59,295.13a280.67,280.67,0,0,1,31.15,7.12,217.24,217.24,0,0,0-5.4,21.46l-.11.51-.55-.11q-15.81-3.19-31.42-7.28c1.87-7.16,4.14-14.65,6.33-21.7Zm.1.18c-1.14,6.13-2.86,15.09-4.22,21l-.73-1.21c10.14,2.33,20.2,5,30.2,7.9l-.66.41,1.46-5.18c1.4-5,2.61-10.62,3.6-15.74l.46.77c-10.05-1.89-20.28-5-30.11-8Z" transform="translate(-3.1 -3.32)"/><path class="cls-2" d="M122.46,318.07a57,57,0,0,1,3.09-14.68,53.42,53.42,0,0,0,7.83,2.35l-.07.33c-.47,2.24-.76,4.53-1.16,6.79l-.61-1c1.22.22,2.42.47,3.62.73s2.42.48,3.61.77l-1.29.79a94.31,94.31,0,0,1,4.27-13.49l.19,0a95.09,95.09,0,0,1-2.38,13.94l-.27,1-1-.24c-2.66-.69-5.32-1.44-8-2.24.75-2.44,1.67-4.84,2.37-7.29l.23.4a47.5,47.5,0,0,0-7.11-1.38l.83-.51a57,57,0,0,1-4,13.7l-.2-.05Z" transform="translate(-3.1 -3.32)"/><path class="cls-2" d="M88.11,278.5a278.16,278.16,0,0,1,28.25,14.94,215.68,215.68,0,0,0-10.77,19.32l-.24.47-.5-.25q-14.44-7.19-28.47-15.16c3.66-6.44,7.79-13.08,11.73-19.32Zm0,.19c-2.69,5.63-6.67,13.84-9.52,19.23l-.39-1.36c9.19,4.88,18.22,10.06,27.12,15.46l-.74.21,2.76-4.62c2.64-4.46,5.26-9.58,7.54-14.27l.25.86c-9.22-4.43-18.29-10.1-27-15.51Z" transform="translate(-3.1 -3.32)"/><path class="cls-2" d="M85,301.4A56.78,56.78,0,0,1,91.73,288a53.52,53.52,0,0,0,7,4.3l-.15.3c-1,2-1.9,4.18-2.87,6.25l-.33-1.12c1.11.53,2.21,1.09,3.31,1.64s2.2,1.09,3.28,1.69l-1.45.42a94.72,94.72,0,0,1,7.61-11.92l.18.1a93.86,93.86,0,0,1-5.92,12.84l-.51.93-.93-.5q-3.6-2-7.11-4.22c1.36-2.16,2.86-4.24,4.17-6.43l.13.45a49,49,0,0,0-6.51-3.18l.93-.27a57.29,57.29,0,0,1-7.39,12.2L85,301.4Z" transform="translate(-3.1 -3.32)"/><path class="cls-2" d="M62,254.28A279.55,279.55,0,0,1,85.42,276,217.78,217.78,0,0,0,70,291.9l-.34.39-.43-.38q-12.09-10.67-23.57-22c5.2-5.27,10.91-10.62,16.33-15.63Zm0,.2c-4.06,4.74-10,11.64-14.18,16.11l0-1.42Q59.23,279.82,70,291.12l-.78,0,3.86-3.75c3.71-3.63,7.57-7.89,11-11.83l0,.89c-7.76-6.66-15-14.48-22.08-22Z" transform="translate(-3.1 -3.32)"/><path class="cls-2" d="M53,275.58a56.3,56.3,0,0,1,10-11.17,54.31,54.31,0,0,0,5.6,5.95l-.22.25c-1.53,1.7-2.92,3.54-4.39,5.29l0-1.16c.94.79,1.85,1.62,2.77,2.44s1.85,1.62,2.73,2.47l-1.5,0a94.42,94.42,0,0,1,10.43-9.55l.15.14a93.33,93.33,0,0,1-9,10.88l-.74.76L68,281.2c-2-1.93-3.89-3.91-5.77-5.91,1.87-1.74,3.86-3.36,5.69-5.14v.46a48.63,48.63,0,0,0-5.47-4.75l1,0a57,57,0,0,1-10.29,9.88l-.14-.14Z" transform="translate(-3.1 -3.32)"/><path class="cls-2" d="M43.07,224.13a281.82,281.82,0,0,1,17,27.06,215.37,215.37,0,0,0-19,11.35l-.44.29-.31-.47Q31.39,248.92,23.25,235c6.38-3.75,13.29-7.43,19.82-10.87Zm0,.19c-5.15,3.53-12.7,8.65-17.87,11.9l.34-1.38c5.52,8.83,10.75,17.83,15.77,27l-.76-.18L45.2,259c4.52-2.55,9.35-5.66,13.67-8.58l-.21.87c-5.78-8.45-10.79-17.89-15.64-27Z" transform="translate(-3.1 -3.32)"/><path class="cls-2" d="M28.88,242.38a56.81,56.81,0,0,1,12.56-8.2,54.16,54.16,0,0,0,3.87,7.2l-.28.18c-1.91,1.25-3.73,2.67-5.61,4l.27-1.13c.7,1,1.37,2,2.05,3.07s1.37,2.05,2,3.1l-1.47-.35a92.73,92.73,0,0,1,12.55-6.52l.11.17a94.06,94.06,0,0,1-11.55,8.17l-.91.54-.55-.9c-1.4-2.37-2.75-4.78-4.05-7.2,2.26-1.2,4.6-2.25,6.83-3.49l-.11.45a49.47,49.47,0,0,0-4.06-6l.95.24A57.36,57.36,0,0,1,29,242.55l-.1-.17Z" transform="translate(-3.1 -3.32)"/><path class="cls-2" d="M32.57,190.1A280.67,280.67,0,0,1,42,220.64a214.92,214.92,0,0,0-21.28,6.05l-.49.17-.19-.54q-5.13-15.28-9.4-30.84c7.13-2,14.75-3.74,22-5.38Zm-.1.18c-5.88,2.08-14.5,5.06-20.33,6.87l.68-1.25c3,10,5.77,20,8.25,30.11l-.67-.37,5.21-1.32c5-1.29,10.5-3,15.43-4.75l-.43.78c-3.4-9.65-5.8-20.07-8.14-30.07Z" transform="translate(-3.1 -3.32)"/><path class="cls-2" d="M14.14,204.06a57,57,0,0,1,14.26-4.67,54.16,54.16,0,0,0,1.88,8l-.32.1c-2.18.72-4.3,1.61-6.46,2.39l.57-1c.41,1.16.79,2.33,1.17,3.5s.8,2.33,1.13,3.51l-1.32-.72a93,93,0,0,1,13.81-3.05l.06.19a93.09,93.09,0,0,1-13.27,4.9l-1,.29-.3-1q-1.11-4-2-8c2.49-.57,5-1,7.5-1.6l-.22.4a50.37,50.37,0,0,0-2.36-6.85l.85.47a57.27,57.27,0,0,1-13.85,3.4l-.06-.19Z" transform="translate(-3.1 -3.32)"/><path class="cls-2" d="M31.24,154.52a281.06,281.06,0,0,1,1.18,31.93,217.44,217.44,0,0,0-22.11.34l-.53,0,0-.56C9.08,175.52,8.69,164.78,8.64,154c7.4-.05,15.23.2,22.6.49Zm-.14.15c-6.22.48-15.32,1.13-21.42,1.37l1-1c.37,10.4.4,20.81.18,31.22l-.56-.53,5.38.07c5.19.06,10.93-.22,16.13-.6l-.62.65c-.77-10.2-.4-20.89-.07-31.15Z" transform="translate(-3.1 -3.32)"/><path class="cls-2" d="M9.83,163.23a57,57,0,0,1,15-.82,55.77,55.77,0,0,0-.24,8.17l-.33,0c-2.29.13-4.57.44-6.86.64l.81-.84c.1,1.22.16,2.45.23,3.68s.17,2.46.19,3.69l-1.1-1a92.73,92.73,0,0,1,14.13.63v.2a95.12,95.12,0,0,1-14.08,1.3H16.5l0-1.05c0-2.75,0-5.51.1-8.26,2.55.09,5.11.35,7.66.39l-.32.33a48.51,48.51,0,0,0-.51-7.22l.7.67a57.21,57.21,0,0,1-14.26-.3v-.2Z" transform="translate(-3.1 -3.32)"/><path class="cls-2" d="M39.16,119.81A280.67,280.67,0,0,1,32,151a216.35,216.35,0,0,0-21.45-5.4l-.51-.11.11-.55q3.2-15.81,7.27-31.42c7.16,1.87,14.65,4.14,21.7,6.33Zm-.17.1c-6.13-1.14-15.09-2.86-21-4.22l1.22-.73c-2.34,10.14-5,20.2-7.91,30.2l-.4-.66L16,146c5,1.4,10.61,2.61,15.73,3.6L31,150c1.89-10.05,5-20.28,8-30.11Z" transform="translate(-3.1 -3.32)"/><path class="cls-2" d="M16.22,122.68a56.9,56.9,0,0,1,14.68,3.09,53.38,53.38,0,0,0-2.34,7.83l-.33-.07c-2.24-.47-4.53-.76-6.79-1.16l1-.61c-.22,1.22-.48,2.42-.73,3.62s-.48,2.42-.78,3.61l-.78-1.29A93.78,93.78,0,0,1,33.63,142l0,.19a94.86,94.86,0,0,1-13.94-2.38l-1-.27.24-1c.69-2.66,1.44-5.32,2.23-8,2.44.75,4.84,1.67,7.29,2.37l-.39.23A48.8,48.8,0,0,0,29.37,126l.5.83a57.1,57.1,0,0,1-13.69-4l0-.2Z" transform="translate(-3.1 -3.32)"/><path class="cls-2" d="M55.8,88.33a280.18,280.18,0,0,1-14.94,28.25,215.68,215.68,0,0,0-19.32-10.77l-.47-.24.25-.5Q28.51,90.63,36.48,76.6c6.43,3.66,13.08,7.79,19.32,11.73Zm-.19.06c-5.63-2.7-13.84-6.68-19.24-9.53l1.37-.39q-7.34,13.78-15.46,27.12l-.22-.74,4.63,2.76c4.46,2.64,9.58,5.26,14.26,7.54l-.86.25c4.43-9.22,10.1-18.29,15.52-27Z" transform="translate(-3.1 -3.32)"/><path class="cls-2" d="M32.9,85.17A56.52,56.52,0,0,1,46.28,92a54.56,54.56,0,0,0-4.29,7l-.3-.15c-2-1-4.18-1.9-6.26-2.87l1.12-.33c-.52,1.11-1.08,2.21-1.64,3.31s-1.08,2.2-1.68,3.28l-.43-1.45a94.83,94.83,0,0,1,11.93,7.61l-.1.18a94,94,0,0,1-12.85-5.92l-.92-.51.5-.93c1.35-2.4,2.76-4.77,4.21-7.11,2.16,1.36,4.25,2.86,6.43,4.17l-.44.13a49,49,0,0,0,3.18-6.51l.27.93A57.6,57.6,0,0,1,32.8,85.34l.1-.17Z" transform="translate(-3.1 -3.32)"/><path class="cls-2" d="M80,62.23A281.25,281.25,0,0,1,58.28,85.65,215.86,215.86,0,0,0,42.4,70.24L42,69.9l.37-.43q10.68-12.09,22-23.57C69.66,51.1,75,56.81,80,62.23Zm-.2,0c-4.74-4.06-11.64-10-16.12-14.18l1.42,0q-10.64,11.42-22,22.2v-.78l3.75,3.86c3.63,3.71,7.89,7.57,11.83,11l-.9,0c6.67-7.76,14.49-15,22-22.08Z" transform="translate(-3.1 -3.32)"/><path class="cls-2" d="M58.72,53.25a56.61,56.61,0,0,1,11.17,10,54.4,54.4,0,0,0-6,5.61l-.25-.23c-1.71-1.52-3.54-2.92-5.3-4.39l1.17,0c-.8.94-1.62,1.85-2.44,2.77s-1.62,1.85-2.48,2.74l0-1.51a93.36,93.36,0,0,1,9.54,10.43L64,78.8a94.06,94.06,0,0,1-10.87-9L52.38,69l.72-.77c1.93-2,3.9-3.89,5.91-5.77,1.74,1.87,3.36,3.86,5.13,5.69h-.46a47.64,47.64,0,0,0,4.75-5.47l0,1a57.28,57.28,0,0,1-9.87-10.29l.14-.14Z" transform="translate(-3.1 -3.32)"/><path class="cls-2" d="M110.17,43.29a283.06,283.06,0,0,1-27.06,17,213.06,213.06,0,0,0-11.36-19l-.28-.44.47-.31Q85.38,31.62,99.3,23.47c3.74,6.38,7.43,13.29,10.87,19.82Zm-.2,0c-3.52-5.15-8.64-12.7-11.89-17.87l1.38.34c-8.83,5.52-17.83,10.75-26.95,15.77l.18-.76,2.63,4.7c2.54,4.52,5.66,9.35,8.58,13.67L83,58.88C91.48,53.1,100.92,48.09,110,43.24Z" transform="translate(-3.1 -3.32)"/><path class="cls-2" d="M91.92,29.1a57.17,57.17,0,0,1,8.2,12.56,54.16,54.16,0,0,0-7.2,3.87l-.18-.28c-1.26-1.91-2.67-3.73-4-5.61l1.13.27c-1,.7-2,1.37-3.07,2.05s-2,1.37-3.1,2l.35-1.47A95.06,95.06,0,0,1,90.59,55l-.17.11A93,93,0,0,1,82.25,43.6l-.54-.91.9-.55c2.36-1.4,4.77-2.75,7.2-4,1.19,2.26,2.25,4.6,3.48,6.83l-.44-.11a49.65,49.65,0,0,0,6-4.05l-.23.94a57.36,57.36,0,0,1-6.87-12.5l.17-.1Z" transform="translate(-3.1 -3.32)"/><path class="cls-2" d="M144.19,32.79a281.18,281.18,0,0,1-30.53,9.41,215,215,0,0,0-6.06-21.28l-.16-.49.54-.19q15.28-5.13,30.84-9.4c2,7.13,3.74,14.75,5.37,22Zm-.17-.1c-2.08-5.88-5.07-14.5-6.87-20.33l1.25.68c-10,3.05-20,5.77-30.12,8.26l.38-.68L110,25.83c1.28,5,3,10.5,4.75,15.43l-.79-.43C123.6,37.43,134,35,144,32.69Z" transform="translate(-3.1 -3.32)"/><path class="cls-2" d="M130.24,14.36a56.6,56.6,0,0,1,4.66,14.26,54.34,54.34,0,0,0-8,1.88l-.1-.32c-.72-2.18-1.61-4.3-2.4-6.46l1,.57c-1.16.41-2.33.79-3.5,1.17s-2.33.8-3.51,1.13l.72-1.32a94.27,94.27,0,0,1,3,13.81l-.19.06a94.37,94.37,0,0,1-4.91-13.27l-.28-1,1-.3q4-1.11,8-2.05c.57,2.49,1,5,1.6,7.5l-.4-.22a50.37,50.37,0,0,0,6.85-2.36l-.47.85A57.29,57.29,0,0,1,130,14.42l.2-.06Z" transform="translate(-3.1 -3.32)"/><path class="cls-2" d="M179.78,31.46a281.15,281.15,0,0,1-31.94,1.18,214.58,214.58,0,0,0-.34-22.11l0-.53.56,0c10.73-.67,21.48-1.06,32.23-1.11,0,7.4-.21,15.23-.49,22.6Zm-.15-.14c-.48-6.22-1.14-15.32-1.37-21.42l1,1c-10.41.37-20.82.4-31.23.18l.54-.56-.07,5.39c-.06,5.18.22,10.92.59,16.12l-.64-.62c10.2-.77,20.89-.4,31.15-.07Z" transform="translate(-3.1 -3.32)"/><path class="cls-2" d="M171.06,10.05a56.55,56.55,0,0,1,.82,15,55.73,55.73,0,0,0-8.17-.24l0-.33c-.12-2.29-.44-4.57-.63-6.86l.84.81c-1.23.1-2.46.16-3.69.23s-2.45.17-3.68.19l1-1.09a94,94,0,0,1-.63,14.12h-.2a93.79,93.79,0,0,1-1.3-14.08V16.72l1,0c2.75,0,5.51,0,8.26.09-.09,2.55-.35,5.11-.39,7.66l-.34-.32a48.64,48.64,0,0,0,7.23-.51l-.67.7a57.21,57.21,0,0,1,.29-14.26Z" transform="translate(-3.1 -3.32)"/><path class="cls-2" d="M214.49,39.38a280.67,280.67,0,0,1-31.15-7.12,213.56,213.56,0,0,0,5.39-21.45l.11-.51.56.11q15.81,3.19,31.41,7.27c-1.86,7.17-4.14,14.65-6.32,21.7Zm-.11-.17c1.15-6.13,2.87-15.09,4.22-21l.74,1.21c-10.14-2.34-20.21-5-30.2-7.91l.66-.4-1.47,5.18c-1.39,5-2.61,10.62-3.59,15.73l-.47-.76c10.06,1.89,20.29,5,30.11,8Z" transform="translate(-3.1 -3.32)"/><path class="cls-2" d="M211.62,16.44a56.9,56.9,0,0,1-3.09,14.68,53.75,53.75,0,0,0-7.83-2.34l.07-.33c.47-2.24.76-4.53,1.16-6.79l.6,1c-1.21-.22-2.41-.48-3.62-.73s-2.41-.48-3.6-.78l1.28-.78a92.51,92.51,0,0,1-4.26,13.48l-.2,0a93.57,93.57,0,0,1,2.39-13.94l.26-1,1,.24c2.66.69,5.32,1.44,7.95,2.23-.75,2.44-1.66,4.85-2.36,7.3l-.24-.4a47.88,47.88,0,0,0,7.12,1.38l-.83.5a57.1,57.1,0,0,1,4-13.69l.2,0Z" transform="translate(-3.1 -3.32)"/><path class="cls-2" d="M246,56a280.18,280.18,0,0,1-28.25-14.94,215.68,215.68,0,0,0,10.77-19.32l.23-.47.51.25q14.45,7.18,28.46,15.16C254,43.13,249.9,49.78,246,56Zm-.06-.19c2.69-5.63,6.68-13.84,9.53-19.24l.39,1.37Q242,30.63,228.7,22.5l.75-.22-2.76,4.63c-2.64,4.46-5.27,9.58-7.54,14.26l-.25-.85c9.22,4.42,18.29,10.09,27,15.51Z" transform="translate(-3.1 -3.32)"/><path class="cls-2" d="M249.13,33.12a56.9,56.9,0,0,1-6.78,13.38,54.56,54.56,0,0,0-6.95-4.29l.15-.3c1-2,1.9-4.18,2.87-6.26l.33,1.12c-1.11-.52-2.21-1.08-3.31-1.64s-2.21-1.08-3.28-1.68L233.6,33A93.64,93.64,0,0,1,226,45l-.18-.1A93.92,93.92,0,0,1,231.73,32l.52-.92.93.5c2.39,1.35,4.77,2.76,7.11,4.21-1.36,2.16-2.86,4.25-4.17,6.43l-.13-.44A49,49,0,0,0,242.5,45l-.93.27A56.79,56.79,0,0,1,249,33l.17.1Z" transform="translate(-3.1 -3.32)"/><path class="cls-2" d="M272.07,80.24A281.25,281.25,0,0,1,248.65,58.5a213.7,213.7,0,0,0,15.4-15.88l.35-.39.43.37q12.09,10.68,23.57,22c-5.2,5.27-10.91,10.62-16.33,15.63Zm0-.2c4.06-4.74,10-11.64,14.18-16.12l0,1.43q-11.41-10.65-22.2-22h.77L261,47.13c-3.7,3.63-7.56,7.89-11,11.83l0-.9c7.77,6.67,15.06,14.49,22.08,22Z" transform="translate(-3.1 -3.32)"/><path class="cls-2" d="M281.05,58.94a56.93,56.93,0,0,1-10,11.17,55.38,55.38,0,0,0-5.61-6l.22-.25c1.53-1.71,2.92-3.54,4.4-5.3l0,1.17c-.94-.8-1.86-1.62-2.77-2.44s-1.85-1.62-2.74-2.48l1.51,0a93.45,93.45,0,0,1-10.44,9.54l-.14-.14a93.06,93.06,0,0,1,9-10.87l.74-.76.76.72c2,1.93,3.89,3.9,5.77,5.91C270,61,268,62.59,266.12,64.36V63.9a48.4,48.4,0,0,0,5.46,4.75l-1,0a57.67,57.67,0,0,1,10.3-9.87l.14.14Z" transform="translate(-3.1 -3.32)"/><path class="cls-2" d="M291,110.39a283.06,283.06,0,0,1-17-27.06A214.5,214.5,0,0,0,293,72l.43-.28.32.47q8.91,13.44,17.07,27.36c-6.38,3.74-13.29,7.43-19.82,10.87Zm.05-.19c5.15-3.53,12.7-8.65,17.87-11.9l-.34,1.38c-5.52-8.83-10.75-17.83-15.77-26.95l.75.18-4.7,2.63c-4.51,2.54-9.35,5.66-13.66,8.58l.21-.87c5.78,8.45,10.79,17.89,15.64,27Z" transform="translate(-3.1 -3.32)"/><path class="cls-2" d="M305.2,92.14a57.17,57.17,0,0,1-12.56,8.2,54.23,54.23,0,0,0-3.88-7.2L289,93c1.92-1.26,3.74-2.67,5.62-4l-.28,1.13c-.7-1-1.37-2-2-3.07s-1.37-2.05-2-3.1l1.46.35a92.68,92.68,0,0,1-12.55,6.52l-.1-.17a93.64,93.64,0,0,1,11.54-8.17l.91-.54.56.9c1.39,2.37,2.75,4.77,4,7.2-2.25,1.19-4.59,2.25-6.82,3.49l.11-.45a49.65,49.65,0,0,0,4.05,6l-.94-.23A57.36,57.36,0,0,1,305.1,92l.1.17Z" transform="translate(-3.1 -3.32)"/><path class="cls-2" d="M301.51,144.41a281.18,281.18,0,0,1-9.41-30.53,215.75,215.75,0,0,0,21.28-6.06l.49-.16.18.54q5.15,15.28,9.41,30.84c-7.13,2-14.75,3.74-21.95,5.37Zm.09-.17c5.89-2.08,14.51-5.07,20.34-6.87l-.68,1.25c-3.05-10-5.77-20-8.26-30.12l.68.38-5.22,1.32c-5,1.28-10.49,3-15.42,4.75l.43-.79c3.39,9.66,5.79,20.08,8.13,30.08Z" transform="translate(-3.1 -3.32)"/><path class="cls-2" d="M319.94,130.46a56.73,56.73,0,0,1-14.26,4.66,54.34,54.34,0,0,0-1.88-8l.32-.1c2.17-.72,4.3-1.61,6.45-2.39l-.56,1c-.41-1.16-.79-2.33-1.18-3.5s-.79-2.33-1.13-3.51l1.33.72a93,93,0,0,1-13.81,3l-.06-.19a94.37,94.37,0,0,1,13.27-4.91l1-.28.3,1c.73,2.65,1.42,5.32,2,8-2.48.57-5,1-7.49,1.6l.22-.4a49,49,0,0,0,2.36,6.85l-.85-.47a57.76,57.76,0,0,1,13.85-3.41l.06.2Z" transform="translate(-3.1 -3.32)"/><path class="cls-2" d="M302.84,180a281.16,281.16,0,0,1-1.19-31.94,214.78,214.78,0,0,0,22.12-.34l.52,0,0,.56q1,16.1,1.1,32.23c-7.39,0-15.22-.21-22.59-.49Zm.14-.15c6.22-.48,15.32-1.14,21.42-1.37l-1,1c-.36-10.41-.39-20.82-.17-31.23l.55.54-5.38-.07c-5.18-.06-10.93.22-16.13.59l.62-.64c.78,10.2.4,20.89.08,31.15Z" transform="translate(-3.1 -3.32)"/><path class="cls-2" d="M324.25,171.28a56.6,56.6,0,0,1-15,.82,53.09,53.09,0,0,0,.24-8.17l.34,0c2.29-.12,4.57-.44,6.85-.63l-.8.84c-.1-1.23-.17-2.46-.24-3.68s-.16-2.46-.18-3.69l1.09,1a94,94,0,0,1-14.13-.63V157a93.67,93.67,0,0,1,14.08-1.3h1.06l0,1c0,2.75,0,5.51-.09,8.26-2.55-.09-5.11-.35-7.66-.39l.32-.34a48.64,48.64,0,0,0,.51,7.23l-.7-.67a57.21,57.21,0,0,1,14.26.29v.2Z" transform="translate(-3.1 -3.32)"/><path class="cls-2" d="M294.91,214.71A280.67,280.67,0,0,1,302,183.56a217.24,217.24,0,0,0,21.46,5.4l.51.1-.11.56q-3.19,15.81-7.28,31.41c-7.16-1.86-14.65-4.14-21.7-6.32Zm.17-.1c6.14,1.14,15.1,2.86,21.05,4.22l-1.21.73c2.33-10.14,5-20.21,7.9-30.2l.41.66-5.18-1.47c-5-1.39-10.62-2.61-15.74-3.59l.77-.47c-1.89,10.06-5,20.29-8,30.12Z" transform="translate(-3.1 -3.32)"/><path class="cls-2" d="M317.85,211.84a57,57,0,0,1-14.68-3.09,53.79,53.79,0,0,0,2.35-7.83l.33.07c2.24.47,4.53.76,6.79,1.16l-1,.6c.22-1.21.47-2.41.73-3.62s.48-2.41.77-3.6l.79,1.28a93,93,0,0,1-13.49-4.26l.05-.2a93.8,93.8,0,0,1,13.94,2.39l1,.26-.24,1c-.69,2.66-1.44,5.32-2.24,7.95-2.44-.75-4.84-1.66-7.29-2.36l.4-.24a47.88,47.88,0,0,0-1.38,7.12l-.51-.83a57,57,0,0,1,13.7,4l0,.2Z" transform="translate(-3.1 -3.32)"/><path class="cls-2" d="M278.27,246.19a280.26,280.26,0,0,1,15-28.25,215.68,215.68,0,0,0,19.32,10.77l.47.23-.25.51q-7.18,14.45-15.16,28.46c-6.44-3.65-13.08-7.79-19.33-11.72Zm.2-.06c5.63,2.69,13.84,6.68,19.23,9.53l-1.36.39c4.88-9.19,10.06-18.22,15.46-27.13l.21.75-4.62-2.76c-4.46-2.64-9.58-5.27-14.27-7.54l.86-.25c-4.43,9.22-10.1,18.29-15.51,27Z" transform="translate(-3.1 -3.32)"/><path class="cls-2" d="M301.18,249.35a57.16,57.16,0,0,1-13.39-6.78,53.52,53.52,0,0,0,4.3-6.95l.3.15c2,1,4.18,1.9,6.25,2.87l-1.12.33c.53-1.11,1.09-2.21,1.64-3.31s1.09-2.21,1.69-3.28l.42,1.44a93.53,93.53,0,0,1-11.92-7.6l.1-.18A93.8,93.8,0,0,1,302.29,232l.93.52-.5.93c-1.35,2.39-2.76,4.77-4.22,7.11-2.16-1.36-4.24-2.86-6.43-4.17l.45-.13a49,49,0,0,0-3.18,6.51l-.27-.93a56.48,56.48,0,0,1,12.2,7.39l-.09.17Z" transform="translate(-3.1 -3.32)"/><path class="cls-2" d="M254.06,272.29a281.25,281.25,0,0,1,21.74-23.42,213.7,213.7,0,0,0,15.88,15.4l.39.35-.38.43q-10.67,12.09-22,23.57c-5.27-5.2-10.62-10.91-15.63-16.33Zm.2,0c4.74,4,11.64,10,16.11,14.17l-1.42,0q10.65-11.42,21.95-22.2l0,.77-3.75-3.85c-3.63-3.71-7.89-7.57-11.83-11h.89c-6.66,7.76-14.48,15-22,22.08Z" transform="translate(-3.1 -3.32)"/><path class="cls-2" d="M275.36,281.27a56.93,56.93,0,0,1-11.17-10,55.38,55.38,0,0,0,5.95-5.61l.25.23c1.7,1.52,3.54,2.91,5.29,4.39l-1.16,0c.79-.94,1.62-1.86,2.44-2.77s1.62-1.85,2.47-2.74l0,1.51a93.62,93.62,0,0,1-9.55-10.44l.14-.14a93.33,93.33,0,0,1,10.88,9l.76.74-.72.76c-1.93,2-3.91,3.89-5.91,5.78-1.74-1.87-3.36-3.86-5.14-5.69h.46a49.43,49.43,0,0,0-4.75,5.46l0-1a57,57,0,0,1,9.88,10.29l-.14.14Z" transform="translate(-3.1 -3.32)"/><path class="cls-2" d="M223.91,291.23a281.82,281.82,0,0,1,27.06-17,216.84,216.84,0,0,0,11.35,19l.29.43-.47.32q-13.44,8.91-27.36,17.07c-3.75-6.38-7.43-13.29-10.87-19.82Zm.19,0c3.53,5.15,8.65,12.7,11.9,17.87l-1.38-.34c8.83-5.52,17.83-10.75,26.95-15.77l-.18.75-2.63-4.69c-2.55-4.52-5.66-9.36-8.58-13.67l.87.21c-8.45,5.78-17.89,10.79-27,15.64Z" transform="translate(-3.1 -3.32)"/><path class="cls-2" d="M242.16,305.42a56.81,56.81,0,0,1-8.2-12.56,54.23,54.23,0,0,0,7.2-3.88l.18.28c1.25,1.92,2.67,3.74,4,5.62l-1.13-.28c1-.7,2-1.37,3.07-2s2.05-1.37,3.1-2L250,292a91.56,91.56,0,0,1-6.52-12.55l.17-.1a94.72,94.72,0,0,1,8.17,11.54l.54.91-.9.56c-2.37,1.39-4.78,2.75-7.2,4-1.2-2.25-2.25-4.59-3.49-6.82l.45.11a50.57,50.57,0,0,0-6,4.05l.24-.94a57.36,57.36,0,0,1,6.87,12.5l-.17.1Z" transform="translate(-3.1 -3.32)"/><path class="cls-2" d="M189.88,301.73a280.67,280.67,0,0,1,30.54-9.41,215.7,215.7,0,0,0,6.05,21.28l.17.49-.54.18q-15.28,5.14-30.84,9.41c-2-7.13-3.74-14.75-5.38-21.95Zm.18.09c2.08,5.89,5.06,14.51,6.87,20.34l-1.25-.68c10-3.05,20-5.77,30.11-8.26l-.37.68-1.32-5.22c-1.29-5-3-10.49-4.75-15.42l.78.43c-9.65,3.39-20.07,5.79-30.07,8.13Z" transform="translate(-3.1 -3.32)"/><path class="cls-2" d="M203.84,320.16a57.16,57.16,0,0,1-4.67-14.26,54.16,54.16,0,0,0,8-1.88l.1.32c.72,2.17,1.61,4.3,2.39,6.45l-1-.56c1.16-.41,2.33-.79,3.5-1.18s2.33-.79,3.51-1.13l-.72,1.33a93,93,0,0,1-3-13.81l.19-.06a93.09,93.09,0,0,1,4.9,13.27l.29,1-1,.3c-2.65.73-5.32,1.42-8,2-.57-2.48-1-5-1.6-7.49l.4.22a49,49,0,0,0-6.85,2.36l.47-.85A57.27,57.27,0,0,1,204,320.1l-.19.06Z" transform="translate(-3.1 -3.32)"/><path class="cls-2" d="M244.77,244a230.42,230.42,0,0,1-29.15.53,178.75,178.75,0,0,0,.12-20.18l0-.52.57,0q14.72-.68,29.44-.45c-.1,6.78-.52,13.91-1,20.65Zm-.14-.14c-.35-5.66-.83-14-.93-19.51l1,1c-9.47.16-18.95,0-28.41-.45l.54-.55-.18,4.89c-.16,4.72,0,9.95.27,14.69l-.63-.63c9.29-.57,19,0,28.34.56Z" transform="translate(-3.1 -3.32)"/><path class="cls-2" d="M237.24,224.39a46.78,46.78,0,0,1,.51,13.72,45.9,45.9,0,0,0-7.5-.42l0-.33c-.08-2.08-.35-4.17-.5-6.25l.83.82c-2.24.12-4.48.23-6.71.27l1.06-1.07A77.82,77.82,0,0,1,224,244h-.2a63.84,63.84,0,0,1-.77-6.42c-.18-2.48-.28-5-.23-7.48,2.58,0,5.18.1,7.77.21l.88.06c-.15,2.34-.46,4.68-.56,7l-.32-.33a40.21,40.21,0,0,0,6.58-.36l-.68.69a47.43,47.43,0,0,1,.58-13Z" transform="translate(-3.1 -3.32)"/></svg>