<svg id="Layer_1" data-name="Layer 1" xmlns="http://www.w3.org/2000/svg" viewBox="0 0 331.59 331.59"><defs><style>.cls-1,.cls-3{stroke:#fff;stroke-miterlimit:10;}.cls-2{fill:#fff;}.cls-3{fill:none;stroke-width:2px;}</style></defs><circle class="cls-1" cx="165.79" cy="165.79" r="165.29"/><path class="cls-2" d="M293.11,167.42c.16,90.07-90.66,152.18-174.13,116.81C72.8,265.05,40.86,217.47,41,167.42,40.12,77.19,132.81,15.16,216,50.08c46.37,19,77.78,67.41,77.14,117.34Zm-.29,0c.14-78.1-73.5-137.13-149.67-121.7C85.8,56.54,42.48,109.06,42.56,167.42c-.65,79.05,71.94,137.55,149.06,122,57.42-11,101.72-63.1,101.2-122Z" transform="translate(-1.24 -1.46)"/><path class="cls-2" d="M127.05,103.22a115.72,115.72,0,0,1-7.16,21.17c-1.06,2.39-2.67,5.63-3.49,8-.62,1.9-1.2,3.77-.55,5.61.87,2.33,3.71,2.77,5.55,4.46a2.29,2.29,0,0,1,.45,2.89c-.65,1.08-1.79,1.44-2.53,2.36a56,56,0,0,0-5.87,9.31,89.94,89.94,0,0,0-5.67,12c-1.34,4.37-2.36,8.73-5,12.59-2.26,3.82-5.27,7.08-7.15,11-1.41,3.21-1.69,8.47.66,10.84,1.76,1.51,5.17,1.18,7.58,1.27l4.42,0c3-.07,6.2-.29,9,.87a15.36,15.36,0,0,1,4,2.17.15.15,0,0,1,0,.21.16.16,0,0,1-.19,0,15.51,15.51,0,0,0-8.34-1.79c-5.27.37-10.6,1.69-15.91.71-6.36-1.8-6.38-10.61-4.17-15.6,2-4.17,5.27-7.45,7.67-11.19,3.55-4.77,4.45-10.83,7.6-15.84,1.5-2.61,3.1-5.09,4.59-7.66,2.43-3.7,4.17-8.18,7.59-11.11.48-.45.74-1,.61-1.32s-.59-.67-1.19-1a22.35,22.35,0,0,1-4.14-2.09c-4.37-3.45-1.73-9.73.2-13.75,4-8,7.59-16,11.13-24.18a.15.15,0,0,1,.29.09Z" transform="translate(-1.24 -1.46)"/><path class="cls-3" d="M114.66,205.44A41.21,41.21,0,0,1,112,220.55c-1.24,3.2-3.84,8.6-1.93,10.7a10.36,10.36,0,0,0,1.93,1.48c2,1.18,3.09,1,3.26,1.62.32,1.13-3.39,2.07-4.15,4.62-.68,2.32,1.46,4.73,2.08,5.64,2.12,3.1,1.37,10.48-12.05,29.61" transform="translate(-1.24 -1.46)"/><path class="cls-2" d="M113.74,213.55c.06-.24.5-2.57.54-2.72a67,67,0,0,1,14,2.49,22.2,22.2,0,0,0,6.51,1.27,15.91,15.91,0,0,0,6.29-1.42c3-1.28,6.94-3.64,10.62-2.55a11.58,11.58,0,0,1,3.52,1.65c4.59,3.15,8.33,7.75,9.45,13.31.21,1.26.46,3.08,1.21,3.56a.51.51,0,0,0,.46.06c1.56-.53,3.24-1.54,5.28-1.44,5.13.07,7.32,6.26,11.92,7.33,4.58,1.44,10.66.44,13.5-3.62,1.61-2.87,2.46-6.34,4.24-9.31,2.38-4.16,5.7-7.42,8.59-11.11A136.46,136.46,0,0,0,217.91,200c4.79-7.57,9.65-15.79,10.13-24.92.22-5.69-2.09-7.83-7.5-8.47-7.87-1.58-18.39-7.8-12.89-17,.51-1,1-2,1.38-3.08,3.29-8.33-3.27-17.73-10.72-21.16a10.58,10.58,0,0,0-6-1c-2.3.24-4.64.41-7,.54-2.92.15-5.79.31-8.72.36a6.9,6.9,0,0,1-2.17-.25c-5.25-1.2-7.15-6.78-9.82-10.68-3.88-5.12-8.3-2.72-13.48-.85-4.79,1.72-10.91,1.4-15.09-1.9-1.09-.9-1.85-1.79-2.6-2.47a19.73,19.73,0,0,0-8.22-4.19c-4.47-1.45-10.59-.1-14.08-4.2-3.7-4.22-4.16-11.31-.2-15.49,2.23-2.43,5-3.26,7.08-4.78.07-.07,0,0,0,.21a.87.87,0,0,0,.13.58c.12.16.14.12,0,0a25.2,25.2,0,0,1-2.32-1.34,11.05,11.05,0,0,1-4.12-7c-1-5.09.28-11.42,5.15-14.12,4.36-2.17,9.35-1.62,13.86-2.91a27,27,0,0,0,6.15-2.31,27.67,27.67,0,0,0,7.88-6.11c4.51-4,10.75-5.52,16.51-6a47.76,47.76,0,0,1,13.87.92.22.22,0,0,1,.15.24.21.21,0,0,1-.23.16c-8.87-1.19-18.56-.4-26.28,4.28-2,1.19-3.22,2.84-4.87,4.53a28.65,28.65,0,0,1-5.78,4.3c-4.08,2.45-9,3.62-13.58,4.25-2.25.36-4.47.69-6,1.62-4.55,2.75-4.57,12-.46,15,1.19.85,2.48.94,3.45,2.37a3.27,3.27,0,0,1-.41,4C118.85,85.27,116,85.83,114,88c-2.49,2.6-1.88,7.39.35,9.85,1.29,1.43,2.91,1.56,4.89,1.79A34.91,34.91,0,0,1,129.92,102a20.19,20.19,0,0,1,6.48,4c1.95,2,3.43,3.57,6.17,4.08a13,13,0,0,0,7.42-.41c4.75-1.67,9.92-4,14.81-.44a16.37,16.37,0,0,1,4.8,6c1.45,2.75,2.93,5.66,6.09,6.49,3.14.2,6.41,0,9.56-.06,3.55.1,7.16-.85,10.68-.13,8.31,2.12,14.79,10,15.86,18.39a14.69,14.69,0,0,1-.09,3.69c-.44,3.47-2.9,6.64-3.88,9.69a6.22,6.22,0,0,0,1.43,5.79c2.84,3.35,7.27,5.35,11.54,6.27,2.28.45,5,.81,6.59,2.77,4.15,5.27.86,15-1.33,20.53a114.85,114.85,0,0,1-14.06,24c-2.63,3.66-5.82,7.08-7.87,11-1.72,3-2.35,6.46-4.14,9.61-2.13,3.45-6.18,5.24-10,5.8a15.88,15.88,0,0,1-14-4.85,31.41,31.41,0,0,0-2.34-2.25c-2.24-1.94-4.22-.13-6.77.45a4.23,4.23,0,0,1-4.5-2.59c-.8-1.76-.69-3.52-1.23-5.26a20.4,20.4,0,0,0-7.53-10.09c-3.83-3.15-7.67-.86-11.77.7a18,18,0,0,1-7.16,1.27c-4.85-.4-8.81-2.82-13.46-3.73-2.22-.57-4.48-.91-6.74-1.34l.33-.23-.69,2.43a.2.2,0,0,1-.25.13.19.19,0,0,1-.14-.23Z" transform="translate(-1.24 -1.46)"/><path class="cls-2" d="M127.88,142.14c1,4.29,4.35,6.2,8.52,6.35s8.14,0,12.08-1.41c5.36-2,10.15-6.17,16.17-6.16,9-.39,17.19,5.17,22.87,11.51a.15.15,0,0,1-.19.23c-7.35-4-14.37-8.34-22.67-8.91-5.44-.22-10.86,1.95-15.81,4.23a34.47,34.47,0,0,1-8.2,3c-4.35.67-10.12-.06-12.35-4.41a7.68,7.68,0,0,1-.72-4.43.16.16,0,0,1,.3,0Z" transform="translate(-1.24 -1.46)"/><path class="cls-2" d="M139.91,162.35c-.07-4.56,2.91-9.5,7.57-10.8s9.16-.5,13.67.27a30.8,30.8,0,0,1,8.46,3.1,76.6,76.6,0,0,0-8.71-1.56c-9.41-.8-17.72-2.1-21,9Z" transform="translate(-1.24 -1.46)"/><path class="cls-2" d="M146.66,154c-1.58,1.38-1.75,3.62-1.4,5.56a27.8,27.8,0,0,0,1.39,5.67c.73,1.72,1.59,3.79,3.15,4.92,3.26,1.83,5.46.26,5.73-3.31a22,22,0,0,0-.92-8.72c-.51-1.9-1.16-3.69-2.56-4.72a4.55,4.55,0,0,0-5.39.6Zm-.13-.15c2.56-2.42,6.84-2.75,8.8.63,2.42,4.28,3.37,11.47.33,15.7a3.72,3.72,0,0,1-3.07,1.4c-3.43-.11-5.82-2.89-7.45-5.64-1.93-3.7-1.7-9.13,1.39-12.09Z" transform="translate(-1.24 -1.46)"/><path class="cls-2" d="M144.36,170.49a32.68,32.68,0,0,0,15.15-2.2c-3.45,4.4-10.64,5.56-15.15,2.2Z" transform="translate(-1.24 -1.46)"/><path class="cls-2" d="M156.83,298.5a163,163,0,0,1,27-1.19c-.15,8.12,0,16.86.49,25l0,.61-.47,0c-9.06.75-18.14,1.14-27.23,1.12-.08-8.49.06-17.23.23-25.55Zm.13.17c.44,7,1,17.3,1.3,24.18l-.86-1.16c8.8-.4,17.6-.38,26.4-.05l-.44.66v-6.08c0-5.85-.25-12.33-.59-18.2l.52.7c-8.63.91-17.66.42-26.34-.05Z" transform="translate(-1.24 -1.46)"/><path class="cls-2" d="M170.07,314.92a44.34,44.34,0,0,1-5.23-8.81c3.66.34,7.33-.25,11-.21a69.59,69.59,0,0,1-5.76,9Zm0-.1a68,68,0,0,1,4.51-8.66l.42.73c-3.27,0-6.53-.55-9.8-.3l.2-.34a42.55,42.55,0,0,1,4.67,8.57Z" transform="translate(-1.24 -1.46)"/><path class="cls-2" d="M123.21,291.39a162.71,162.71,0,0,1,26.35,5.83c-2.24,7.8-4.33,16.29-6,24.24l-.14.6L143,322c-8.95-1.63-17.82-3.6-26.59-6,2.11-8.22,4.51-16.63,6.83-24.62Zm.08.19c-1.39,6.9-3.46,17-5,23.7l-.53-1.34c8.6,1.88,17.09,4.18,25.51,6.78l-.6.52,1.59-5.86c1.52-5.66,3-12,4.14-17.75l.32.82c-8.57-1.36-17.17-4.17-25.43-6.87Z" transform="translate(-1.24 -1.46)"/><path class="cls-2" d="M131.75,310.67a44.77,44.77,0,0,1-2.78-9.86c3.45,1.27,7.15,1.65,10.68,2.64a69.28,69.28,0,0,1-7.9,7.22Zm0-.09a68.19,68.19,0,0,1,6.6-7.2l.22.82c-3.15-.86-6.17-2.23-9.38-2.84l.27-.27a42.6,42.6,0,0,1,2.29,9.49Z" transform="translate(-1.24 -1.46)"/><path class="cls-2" d="M92.58,275.82a161.81,161.81,0,0,1,23.94,12.45c-4.19,7-8.4,14.61-12.06,21.86l-.29.54-.43-.2q-12.33-5.82-24.13-12.64c4.17-7.4,8.66-14.9,13-22Zm0,.2c-3.12,6.31-7.74,15.52-11,21.6l-.16-1.43c7.81,4,15.42,8.46,22.89,13.15l-.72.35,3-5.26c2.93-5.06,6-10.81,8.59-16.06l.1.87c-7.92-3.53-15.5-8.47-22.79-13.22Z" transform="translate(-1.24 -1.46)"/><path class="cls-2" d="M95.83,296.65a44.29,44.29,0,0,1-.12-10.24c3,2.12,6.47,3.44,9.62,5.31a68.1,68.1,0,0,1-9.5,4.93Zm0-.09a69,69,0,0,1,8.24-5.24v.85c-2.83-1.65-5.38-3.74-8.33-5.17l.33-.19a42.62,42.62,0,0,1-.24,9.75Z" transform="translate(-1.24 -1.46)"/><path class="cls-2" d="M67,252.85a161.91,161.91,0,0,1,19.9,18.22c-5.84,5.63-11.9,11.94-17.31,18l-.41.46-.37-.31q-10.39-8.82-20-18.46C54.73,264.68,61,258.6,67,252.85Zm0,.2c-4.65,5.28-11.49,13-16.18,18l.21-1.42c6.51,5.93,12.71,12.17,18.71,18.62l-.78.16,4.31-4.29c4.14-4.13,8.54-8.9,12.45-13.29l-.13.86C78.84,266.25,72.8,259.52,67,253.05Z" transform="translate(-1.24 -1.46)"/><path class="cls-2" d="M64.77,273.81a44.18,44.18,0,0,1,2.53-9.93c2.35,2.83,5.36,5,7.92,7.63a68,68,0,0,1-10.45,2.3Zm.07-.07a68.9,68.9,0,0,1,9.31-2.93l-.22.81c-2.3-2.31-4.23-5-6.71-7.14l.38-.1a42.69,42.69,0,0,1-2.76,9.36Z" transform="translate(-1.24 -1.46)"/><path class="cls-2" d="M48.27,224a163.88,163.88,0,0,1,14.52,22.75c-7.11,3.93-14.59,8.46-21.38,12.9l-.52.34-.27-.39q-7.77-11.22-14.58-23C33.34,232.3,41,228.05,48.27,224Zm-.08.19c-5.85,3.9-14.46,9.57-20.29,13.22l.58-1.32c4.74,7.41,9.12,15.05,13.24,22.84l-.79-.06,5.27-3c5.07-2.92,10.55-6.39,15.47-9.62l-.35.8c-5.1-7-9.19-15.08-13.13-22.84Z" transform="translate(-1.24 -1.46)"/><path class="cls-2" d="M40.68,243.71a44.17,44.17,0,0,1,5-8.93c1.54,3.34,3.88,6.22,5.68,9.41a68.61,68.61,0,0,1-10.69-.48Zm.08-.05a68.7,68.7,0,0,1,9.76-.42l-.43.73c-1.62-2.83-2.78-5.93-4.63-8.64h.39a42.72,42.72,0,0,1-5.09,8.32Z" transform="translate(-1.24 -1.46)"/><path class="cls-2" d="M37.62,191.37a162.18,162.18,0,0,1,8.13,25.73c-7.87,2-16.27,4.39-24,6.93l-.58.19-.17-.45c-3.06-8.56-5.79-17.23-8.12-26,8.18-2.28,16.65-4.41,24.73-6.39Zm-.12.16c-6.67,2.25-16.44,5.5-23,7.52l.89-1.13c2.67,8.39,4.93,16.9,6.89,25.49l-.75-.26,5.87-1.56c5.65-1.51,11.85-3.44,17.43-5.29l-.54.69c-3.11-8.1-5-17-6.77-25.46Z" transform="translate(-1.24 -1.46)"/><path class="cls-2" d="M25.2,208.4a43.77,43.77,0,0,1,7.15-7.33c.62,3.62,2.14,7,3,10.56a67,67,0,0,1-10.2-3.23Zm.09,0a68.19,68.19,0,0,1,9.53,2.11l-.6.6c-.83-3.16-1.15-6.45-2.24-9.54l.38.1a42.72,42.72,0,0,1-7.07,6.73Z" transform="translate(-1.24 -1.46)"/><path class="cls-2" d="M35.79,157.05A163,163,0,0,1,37,184c-8.12-.15-16.86,0-25,.48l-.61,0-.05-.47c-.74-9.06-1.13-18.14-1.11-27.23,8.49-.08,17.23.06,25.54.23Zm-.16.13c-7,.44-17.3,1-24.18,1.3l1.16-.86c.4,8.8.38,17.6.05,26.4l-.66-.44h6.08c5.85,0,12.33-.25,18.2-.59l-.7.52c-.91-8.63-.42-17.66.05-26.34Z" transform="translate(-1.24 -1.46)"/><path class="cls-2" d="M19.38,170.29a44.34,44.34,0,0,1,8.81-5.23c-.34,3.66.25,7.33.21,11a68.26,68.26,0,0,1-9-5.76Zm.1,0a68,68,0,0,1,8.66,4.51l-.74.42c0-3.27.56-6.53.31-9.8l.34.2a42.55,42.55,0,0,1-8.57,4.67Z" transform="translate(-1.24 -1.46)"/><path class="cls-2" d="M42.91,123.43a163.77,163.77,0,0,1-5.83,26.35c-7.8-2.24-16.29-4.33-24.24-6l-.6-.14.08-.46c1.63-8.95,3.6-17.82,6-26.59,8.22,2.11,16.63,4.51,24.62,6.83Zm-.19.08c-6.9-1.39-17-3.46-23.7-5l1.34-.53c-1.89,8.6-4.18,17.09-6.78,25.51l-.52-.6,5.86,1.59c5.65,1.52,12,3,17.74,4.14l-.81.32c1.36-8.57,4.17-17.17,6.87-25.43Z" transform="translate(-1.24 -1.46)"/><path class="cls-2" d="M23.63,132a44.77,44.77,0,0,1,9.86-2.78c-1.27,3.45-1.65,7.15-2.64,10.68a68.37,68.37,0,0,1-7.22-7.9Zm.09,0a68.19,68.19,0,0,1,7.2,6.6l-.82.22c.86-3.15,2.22-6.17,2.83-9.38l.28.27A42.6,42.6,0,0,1,23.72,132Z" transform="translate(-1.24 -1.46)"/><path class="cls-2" d="M58.48,92.8A162.77,162.77,0,0,1,46,116.74c-7-4.19-14.61-8.4-21.86-12.06l-.55-.29.2-.43q5.84-12.33,12.65-24.13c7.4,4.17,14.89,8.66,22,13Zm-.2,0c-6.31-3.12-15.52-7.74-21.6-11l1.43-.16c-4,7.81-8.46,15.42-13.15,22.89l-.35-.72,5.25,3c5.07,2.93,10.82,6,16.07,8.59l-.87.1c3.53-7.92,8.47-15.5,13.22-22.79Z" transform="translate(-1.24 -1.46)"/><path class="cls-2" d="M37.65,96.05a44.28,44.28,0,0,1,10.24-.12c-2.12,3-3.45,6.47-5.31,9.62a67,67,0,0,1-4.93-9.5Zm.08,0A67.88,67.88,0,0,1,43,104.34h-.85C43.77,101.51,45.87,99,47.3,96l.19.33a42.7,42.7,0,0,1-9.76-.24Z" transform="translate(-1.24 -1.46)"/><path class="cls-2" d="M81.45,67.24a162.71,162.71,0,0,1-18.22,19.9c-5.63-5.84-11.94-11.9-18-17.31l-.46-.41.31-.37q8.82-10.39,18.46-20C69.61,55,75.69,61.23,81.45,67.24Zm-.2,0c-5.28-4.65-13-11.49-18-16.18l1.42.21C58.72,57.75,52.48,64,46,70l-.15-.78,4.28,4.31c4.14,4.14,8.91,8.54,13.3,12.45l-.86-.13C68,79.06,74.78,73,81.25,67.21Z" transform="translate(-1.24 -1.46)"/><path class="cls-2" d="M60.49,65a44.1,44.1,0,0,1,9.92,2.53c-2.82,2.35-5,5.36-7.62,7.92A68,68,0,0,1,60.49,65Zm.07.07a68.9,68.9,0,0,1,2.93,9.31l-.82-.22c2.32-2.3,5-4.23,7.15-6.71l.1.38a42.69,42.69,0,0,1-9.36-2.76Z" transform="translate(-1.24 -1.46)"/><path class="cls-2" d="M110.25,48.49A162.7,162.7,0,0,1,87.5,63c-3.92-7.11-8.45-14.59-12.9-21.38l-.33-.52.39-.28c7.48-5.17,15.14-10,23-14.57,4.32,7.3,8.57,14.94,12.57,22.23Zm-.18-.08c-3.9-5.85-9.57-14.46-13.23-20.29l1.33.58c-7.42,4.74-15,9.12-22.84,13.24l.06-.79,3,5.27C81.33,51.49,84.8,57,88,61.89l-.8-.35c7-5.1,15.08-9.19,22.84-13.13Z" transform="translate(-1.24 -1.46)"/><path class="cls-2" d="M90.59,40.9a44.17,44.17,0,0,1,8.93,5c-3.34,1.54-6.22,3.88-9.41,5.68a66.25,66.25,0,0,1,.48-10.69Zm0,.08a68.7,68.7,0,0,1,.42,9.76l-.73-.43c2.83-1.62,5.93-2.79,8.63-4.63v.39A42.72,42.72,0,0,1,90.64,41Z" transform="translate(-1.24 -1.46)"/><path class="cls-2" d="M142.93,37.84A162.18,162.18,0,0,1,117.2,46c-2-7.87-4.4-16.27-6.93-24l-.19-.58.45-.17c8.56-3.06,17.23-5.79,26-8.12,2.28,8.18,4.4,16.65,6.39,24.73Zm-.16-.12c-2.25-6.67-5.5-16.44-7.52-23l1.13.89c-8.39,2.67-16.9,4.93-25.49,6.89l.26-.75,1.56,5.87c1.51,5.65,3.44,11.85,5.29,17.43l-.69-.54c8.1-3.11,16.95-5,25.46-6.77Z" transform="translate(-1.24 -1.46)"/><path class="cls-2" d="M125.9,25.42a44.15,44.15,0,0,1,7.33,7.15c-3.62.62-7,2.14-10.57,3a68.17,68.17,0,0,1,3.24-10.2Zm0,.09A69.64,69.64,0,0,1,123.81,35l-.6-.6c3.16-.83,6.45-1.15,9.54-2.24l-.1.38a42.72,42.72,0,0,1-6.73-7.07Z" transform="translate(-1.24 -1.46)"/><path class="cls-2" d="M177.24,36a162.86,162.86,0,0,1-27,1.2c.15-8.12,0-16.86-.49-25l0-.61.48-.05c9.06-.74,18.14-1.13,27.22-1.11.09,8.49-.05,17.23-.23,25.54Zm-.12-.16c-.44-7-1.05-17.31-1.3-24.18l.85,1.16c-8.79.4-17.59.38-26.39.05l.44-.66,0,6.07c0,5.86.26,12.34.6,18.21l-.52-.7c8.62-.91,17.66-.42,26.34.05Z" transform="translate(-1.24 -1.46)"/><path class="cls-2" d="M164,19.6a44.34,44.34,0,0,1,5.23,8.81c-3.66-.34-7.33.25-11,.21a67.25,67.25,0,0,1,5.76-9Zm0,.1a68,68,0,0,1-4.51,8.66l-.42-.74c3.26,0,6.53.56,9.79.31l-.19.34A42.82,42.82,0,0,1,164,19.7Z" transform="translate(-1.24 -1.46)"/><path class="cls-2" d="M210.87,43.13a163.77,163.77,0,0,1-26.35-5.83c2.24-7.8,4.33-16.29,6-24.24l.13-.6.47.08c8.95,1.63,17.82,3.6,26.59,6-2.11,8.22-4.51,16.63-6.83,24.62Zm-.08-.19c1.39-6.9,3.46-17,5-23.7l.53,1.34c-8.6-1.89-17.1-4.18-25.52-6.78l.6-.52-1.58,5.86c-1.52,5.65-2.95,12-4.14,17.74l-.32-.81c8.56,1.36,17.16,4.17,25.43,6.87Z" transform="translate(-1.24 -1.46)"/><path class="cls-2" d="M202.33,23.85a44.22,44.22,0,0,1,2.77,9.86c-3.44-1.28-7.14-1.66-10.67-2.64a66.76,66.76,0,0,1,7.9-7.22Zm0,.09a69.28,69.28,0,0,1-6.6,7.2l-.22-.82c3.15.86,6.16,2.22,9.38,2.83l-.27.28a42.6,42.6,0,0,1-2.29-9.49Z" transform="translate(-1.24 -1.46)"/><path class="cls-2" d="M241.5,58.7a162.77,162.77,0,0,1-23.94-12.45c4.18-7,8.4-14.61,12.06-21.86l.28-.55.44.2q12.33,5.84,24.13,12.65c-4.17,7.39-8.66,14.89-13,22Zm0-.2c3.12-6.31,7.74-15.52,11-21.6l.16,1.43c-7.82-4-15.43-8.46-22.89-13.15l.72-.35-3.06,5.25c-2.93,5.07-5.94,10.82-8.58,16.07l-.1-.87c7.92,3.53,15.5,8.47,22.79,13.22Z" transform="translate(-1.24 -1.46)"/><path class="cls-2" d="M238.25,37.87a44.28,44.28,0,0,1,.12,10.24c-3-2.12-6.47-3.45-9.63-5.31a67.69,67.69,0,0,1,9.51-4.93Zm-.05.08A69.47,69.47,0,0,1,230,43.2v-.85c2.82,1.64,5.38,3.74,8.33,5.17l-.33.19A42.7,42.7,0,0,1,238.2,38Z" transform="translate(-1.24 -1.46)"/><path class="cls-2" d="M267.06,81.67a163.53,163.53,0,0,1-19.91-18.22c5.85-5.63,11.91-11.94,17.32-18l.41-.46.37.31q10.39,8.82,20,18.46c-6,6.06-12.22,12.14-18.23,17.9Zm0-.2c4.65-5.28,11.49-13,16.17-18l-.21,1.42c-6.5-5.93-12.71-12.17-18.7-18.63l.78-.15-4.31,4.28c-4.14,4.14-8.54,8.91-12.45,13.3l.13-.86c6.74,5.45,12.78,12.19,18.59,18.66Z" transform="translate(-1.24 -1.46)"/><path class="cls-2" d="M269.31,60.71a44.1,44.1,0,0,1-2.53,9.92c-2.35-2.82-5.36-5-7.93-7.62a68.11,68.11,0,0,1,10.46-2.3Zm-.07.07a68.58,68.58,0,0,1-9.32,2.93l.23-.82c2.3,2.32,4.22,5,6.71,7.15l-.38.1a42.53,42.53,0,0,1,2.76-9.36Z" transform="translate(-1.24 -1.46)"/><path class="cls-2" d="M285.8,110.47a163.56,163.56,0,0,1-14.51-22.75c7.1-3.92,14.59-8.45,21.38-12.9l.52-.33.27.39q7.77,11.22,14.58,23c-7.31,4.32-14.94,8.57-22.24,12.57Zm.09-.18c5.85-3.9,14.45-9.57,20.28-13.23l-.57,1.33c-4.74-7.42-9.13-15-13.24-22.84l.79.06-5.27,3c-5.07,2.92-10.55,6.39-15.47,9.62l.35-.8c5.1,7,9.19,15.08,13.13,22.84Z" transform="translate(-1.24 -1.46)"/><path class="cls-2" d="M293.4,90.81a44.17,44.17,0,0,1-5,8.93c-1.54-3.34-3.88-6.22-5.68-9.41a66.25,66.25,0,0,1,10.69.48Zm-.08,0a70.28,70.28,0,0,1-9.76.42l.43-.73c1.62,2.83,2.78,5.93,4.63,8.63h-.39a42.72,42.72,0,0,1,5.09-8.32Z" transform="translate(-1.24 -1.46)"/><path class="cls-2" d="M296.45,143.15a164.26,164.26,0,0,1-8.13-25.73c7.88-2,16.28-4.4,24-6.93l.59-.19.16.45q4.6,12.84,8.13,26c-8.18,2.28-16.66,4.4-24.74,6.39Zm.13-.16c6.67-2.25,16.44-5.5,23-7.52l-.9,1.13c-2.66-8.39-4.92-16.9-6.88-25.49l.75.26-5.87,1.56c-5.65,1.51-11.85,3.44-17.43,5.29l.54-.69c3.11,8.09,5,16.95,6.77,25.46Z" transform="translate(-1.24 -1.46)"/><path class="cls-2" d="M308.88,126.12a44.55,44.55,0,0,1-7.15,7.33c-.62-3.62-2.14-7-3.05-10.57a68.17,68.17,0,0,1,10.2,3.24Zm-.09,0a70.12,70.12,0,0,1-9.54-2.11l.61-.6c.83,3.16,1.15,6.45,2.23,9.54l-.37-.1a42.72,42.72,0,0,1,7.07-6.73Z" transform="translate(-1.24 -1.46)"/><path class="cls-2" d="M298.28,177.46a162.85,162.85,0,0,1-1.19-27c8.12.15,16.86,0,25-.49l.61,0,0,.48c.75,9.06,1.14,18.14,1.12,27.22-8.49.09-17.23-.05-25.55-.23Zm.17-.12c7-.44,17.3-1.05,24.18-1.3l-1.16.85c-.4-8.79-.38-17.59-.05-26.39l.66.44-6.08,0c-5.85,0-12.33.26-18.2.6l.7-.52c.9,8.62.41,17.66-.05,26.34Z" transform="translate(-1.24 -1.46)"/><path class="cls-2" d="M314.7,164.23a44.34,44.34,0,0,1-8.81,5.23c.34-3.66-.25-7.33-.21-11a68.55,68.55,0,0,1,9,5.76Zm-.1,0a68,68,0,0,1-8.66-4.51l.73-.42c0,3.26-.55,6.53-.3,9.79l-.34-.19a42.55,42.55,0,0,1,8.57-4.67Z" transform="translate(-1.24 -1.46)"/><path class="cls-2" d="M291.17,211.09A161.65,161.65,0,0,1,297,184.74c7.79,2.24,16.29,4.33,24.23,6l.61.13-.08.47c-1.63,8.95-3.6,17.82-6,26.59-8.23-2.11-16.63-4.51-24.62-6.83Zm.19-.08c6.9,1.39,17,3.46,23.7,5l-1.34.53c1.88-8.6,4.18-17.1,6.78-25.52l.52.6L315.15,190c-5.65-1.52-12-2.95-17.74-4.14l.82-.32c-1.36,8.56-4.17,17.16-6.87,25.43Z" transform="translate(-1.24 -1.46)"/><path class="cls-2" d="M310.45,202.55a44.22,44.22,0,0,1-9.86,2.77c1.27-3.44,1.65-7.14,2.64-10.67a67.63,67.63,0,0,1,7.22,7.9Zm-.1,0a69,69,0,0,1-7.19-6.59l.82-.22c-.86,3.15-2.23,6.16-2.84,9.38l-.27-.27a43.21,43.21,0,0,1,9.48-2.3Z" transform="translate(-1.24 -1.46)"/><path class="cls-2" d="M275.6,241.72A162.71,162.71,0,0,1,288,217.78c7,4.18,14.62,8.4,21.87,12.06l.54.28-.2.44q-5.82,12.33-12.64,24.13c-7.4-4.17-14.9-8.66-22-13Zm.2,0c6.3,3.12,15.51,7.73,21.6,11l-1.44.16c4.05-7.82,8.47-15.43,13.16-22.89l.34.72-5.25-3.06c-5.06-2.93-10.81-5.94-16.06-8.58l.86-.1c-3.52,7.92-8.46,15.5-13.21,22.79Z" transform="translate(-1.24 -1.46)"/><path class="cls-2" d="M296.43,238.47a44.29,44.29,0,0,1-10.24.12c2.12-3,3.44-6.47,5.31-9.63a68.77,68.77,0,0,1,4.93,9.51Zm-.09-.05a70.67,70.67,0,0,1-5.24-8.24H292c-1.65,2.82-3.75,5.38-5.17,8.33l-.19-.33a42.62,42.62,0,0,1,9.75.24Z" transform="translate(-1.24 -1.46)"/><path class="cls-2" d="M252.63,267.28a163.53,163.53,0,0,1,18.22-19.91c5.63,5.85,11.94,11.91,18,17.32l.46.41-.31.37q-8.82,10.39-18.46,20c-6.06-5.95-12.14-12.22-17.9-18.23Zm.2,0c5.28,4.65,13,11.49,18,16.17l-1.42-.21c5.93-6.5,12.17-12.71,18.63-18.7l.15.78L283.92,261c-4.13-4.14-8.9-8.54-13.29-12.45l.86.13c-5.45,6.74-12.19,12.78-18.66,18.59Z" transform="translate(-1.24 -1.46)"/><path class="cls-2" d="M273.59,269.53a44.18,44.18,0,0,1-9.93-2.53c2.83-2.35,5-5.36,7.63-7.93a68.11,68.11,0,0,1,2.3,10.46Zm-.07-.07a68.58,68.58,0,0,1-2.93-9.32l.82.23c-2.32,2.3-5,4.22-7.15,6.71l-.1-.38a42.69,42.69,0,0,1,9.36,2.76Z" transform="translate(-1.24 -1.46)"/><path class="cls-2" d="M223.82,286a164.75,164.75,0,0,1,22.75-14.51c3.93,7.1,8.46,14.59,12.91,21.38l.33.52-.39.27q-11.22,7.77-23,14.58c-4.32-7.31-8.57-14.94-12.58-22.24Zm.19.09c3.9,5.85,9.57,14.45,13.22,20.28l-1.32-.57c7.42-4.74,15.05-9.13,22.84-13.24l-.06.79-3-5.27c-2.92-5.07-6.39-10.55-9.62-15.47l.8.35c-7,5.09-15.08,9.19-22.84,13.13Z" transform="translate(-1.24 -1.46)"/><path class="cls-2" d="M243.49,293.62a44.17,44.17,0,0,1-8.93-5c3.34-1.54,6.22-3.88,9.41-5.68a68.61,68.61,0,0,1-.48,10.69Zm-.05-.08a68.76,68.76,0,0,1-.42-9.76l.73.43c-2.83,1.62-5.93,2.78-8.64,4.63v-.39a42.72,42.72,0,0,1,8.32,5.09Z" transform="translate(-1.24 -1.46)"/><path class="cls-2" d="M191.15,296.67a164.26,164.26,0,0,1,25.73-8.13c2,7.88,4.39,16.28,6.93,24l.19.59-.45.16q-12.84,4.61-26,8.13c-2.28-8.18-4.41-16.66-6.39-24.74Zm.16.13c2.25,6.67,5.5,16.44,7.52,23l-1.13-.9c8.39-2.66,16.9-4.92,25.49-6.88l-.26.75-1.56-5.87c-1.51-5.65-3.44-11.85-5.29-17.43l.69.54c-8.1,3.11-17,5-25.46,6.77Z" transform="translate(-1.24 -1.46)"/><path class="cls-2" d="M208.18,309.1a44.16,44.16,0,0,1-7.33-7.15c3.62-.62,7-2.14,10.56-3.05a68.15,68.15,0,0,1-3.23,10.2Zm0-.09a68.65,68.65,0,0,1,2.11-9.54l.6.61c-3.16.83-6.45,1.15-9.54,2.23l.1-.37a42.33,42.33,0,0,1,6.73,7.07Z" transform="translate(-1.24 -1.46)"/><path class="cls-2" d="M255.11,242.48a163.12,163.12,0,0,1-27,.6c.33-8.11.34-16.86.07-25l0-.62.48,0c9.08-.54,18.16-.73,27.24-.51-.1,8.48-.43,17.22-.79,25.53Zm-.12-.17c-.29-7-.67-17.32-.77-24.2l.83,1.18c-8.8.2-17.6,0-26.39-.53l.46-.65-.15,6.07c-.14,5.85,0,12.34.19,18.22l-.5-.72c8.64-.71,17.66,0,26.33.63Z" transform="translate(-1.24 -1.46)"/><path class="cls-2" d="M242.24,225.78a43.43,43.43,0,0,1,5,8.93c-3.67-.43-7.36.1-11,0a66,66,0,0,1,6-8.91Zm0,.1a66.93,66.93,0,0,1-4.69,8.57l-.42-.77c3.27.08,6.52.71,9.79.53l-.21.34a41.26,41.26,0,0,1-4.47-8.67Z" transform="translate(-1.24 -1.46)"/></svg>