<svg id="Layer_1" data-name="Layer 1" xmlns="http://www.w3.org/2000/svg" viewBox="0 0 334.12 334.13"><defs><style>.cls-1{fill:#1d1d1b;}.cls-2{fill:none;stroke:#1d1d1b;stroke-miterlimit:10;stroke-width:2px;}</style></defs><path class="cls-1" d="M167.28,334.52C75.17,334.52.22,259.57.22,167.46S75.17.39,167.28.39s167.07,75,167.07,167.07S259.4,334.52,167.28,334.52Zm0-332.13c-91,0-165.06,74.05-165.06,165.07S76.27,332.52,167.28,332.52s165.07-74,165.07-165.06S258.3,2.39,167.28,2.39Z" transform="translate(-0.22 -0.39)"/><path class="cls-1" d="M296.74,167.46c.16,92.72-93.33,156.67-179.27,120.25C69.93,268,37.05,219,37.15,167.45,36.29,74.56,131.71,10.71,217.32,46.66c47.74,19.54,80.08,69.39,79.42,120.8Zm-.3,0c.14-80.4-75.67-141.17-154.08-125.29-59,11.14-103.64,65.2-103.56,125.29-.67,81.38,74.06,141.6,153.46,125.54C251.37,281.64,297,228,296.44,167.46Z" transform="translate(-0.22 -0.39)"/><path class="cls-1" d="M125.78,101.36a120.74,120.74,0,0,1-7.4,21.78c-1.09,2.46-2.75,5.8-3.6,8.26-.64,2-1.24,3.9-.56,5.8.9,2.41,3.83,2.86,5.73,4.6a2.31,2.31,0,0,1,.46,2.94c-.66,1.11-1.84,1.49-2.59,2.44a58.21,58.21,0,0,0-6,9.58,92.8,92.8,0,0,0-5.85,12.3c-1,2.89-1.52,6-2.89,8.8a43.62,43.62,0,0,1-2.29,4.15c-2.33,3.93-5.43,7.29-7.36,11.29-1.47,3.33-1.76,8.74.69,11.2,1.83,1.58,5.34,1.23,7.82,1.32l4.56,0c3-.08,6.38-.31,9.29.88a16.24,16.24,0,0,1,4.1,2.22.15.15,0,0,1,0,.21.16.16,0,0,1-.19,0,16,16,0,0,0-8.59-1.87c-5.42.37-10.91,1.72-16.37.72-6.52-1.86-6.53-10.89-4.26-16,2-4.29,5.42-7.66,7.9-11.52,3.65-4.91,4.57-11.16,7.8-16.32,1.54-2.69,3.18-5.25,4.72-7.89,2.5-3.81,4.29-8.41,7.81-11.43.49-.46.78-1,.64-1.38s-.62-.7-1.24-1a23,23,0,0,1-4.25-2.16c-4.48-3.54-1.76-10,.22-14.11,4.12-8.22,7.8-16.44,11.43-24.91a.15.15,0,0,1,.29.09Z" transform="translate(-0.22 -0.39)"/><path class="cls-2" d="M113,206.59a42.69,42.69,0,0,1-2.75,15.57c-1.27,3.29-4,8.84-2,11a10.24,10.24,0,0,0,2,1.53c2,1.22,3.18,1,3.36,1.67.32,1.16-3.5,2.13-4.28,4.75-.7,2.39,1.51,4.87,2.15,5.81,2.17,3.19,1.41,10.79-12.42,30.48" transform="translate(-0.22 -0.39)"/><path class="cls-1" d="M112.08,215l.52-2.55.05-.25A69.5,69.5,0,0,1,127,214.73a22.94,22.94,0,0,0,6.71,1.32,16.27,16.27,0,0,0,6.48-1.47c3.14-1.31,7.13-3.73,10.92-2.61,6.21,1.91,12.12,9,13.32,15.37.19,1.24.49,3.24,1.26,3.7a.62.62,0,0,0,.51.07c10.27-4.81,10.06,3.41,17.68,6.07,4.74,1.48,11,.44,14-3.75,1.66-3,2.53-6.54,4.36-9.6,2.45-4.28,5.86-7.64,8.84-11.44A140.31,140.31,0,0,0,219.35,201c4.93-7.8,9.93-16.26,10.41-25.67.21-5.9-2.12-8.05-7.73-8.73-8.08-1.64-18.91-8-13.25-17.49.52-1.07,1-2.11,1.43-3.17,3.38-8.59-3.36-18.29-11.05-21.84a10.92,10.92,0,0,0-6.17-1c-2.37.24-4.78.42-7.16.55-3,.15-6,.31-9,.36a6.9,6.9,0,0,1-2.22-.26c-5.39-1.24-7.33-7-10.07-11-4-5.29-8.6-2.82-13.95-.88-4.91,1.75-11.19,1.42-15.48-2-2-1.71-3-3.19-5.15-4.4a25.08,25.08,0,0,0-6-2.47c-4.6-1.49-10.88-.1-14.46-4.31-3.79-4.33-4.25-11.58-.21-15.87,2.3-2.49,5.18-3.33,7.32-4.92.05-.06,0,0-.06.21a.74.74,0,0,0,.13.54c.11.15.12.1,0,0a25.65,25.65,0,0,1-2.38-1.38,11.25,11.25,0,0,1-4.2-7.2c-1-5.21.29-11.68,5.25-14.45,4.49-2.23,9.62-1.69,14.26-3a27.85,27.85,0,0,0,6.33-2.39,28.54,28.54,0,0,0,8.12-6.3c4.64-4.1,11-5.68,17-6.23a49.12,49.12,0,0,1,14.27,1,.21.21,0,0,1,.15.24.2.2,0,0,1-.23.15c-9.13-1.23-19.12-.43-27.07,4.39-2.08,1.22-3.32,2.92-5,4.66a29.27,29.27,0,0,1-5.95,4.42c-4.2,2.52-9.21,3.72-14,4.36-2.31.36-4.6.7-6.25,1.65-4.76,2.85-4.77,12.43-.48,15.61,1.21.87,2.54,1,3.54,2.42a3.37,3.37,0,0,1-.42,4c-2.3,2.22-5.27,2.81-7.29,5.06-3,3.24-1.81,10,2.4,11.55,3.24.87,6.92.65,10.37,1.72a24.14,24.14,0,0,1,10.28,5.36c2,2.1,3.55,3.69,6.38,4.21a13.4,13.4,0,0,0,7.68-.42c4.88-1.71,10.17-4.11,15.19-.47a16.84,16.84,0,0,1,4.93,6.18c1.5,2.84,3,5.86,6.31,6.71a166.9,166.9,0,0,0,16.88-.43,11.21,11.21,0,0,1,4,.23c8.81,2.22,15.72,10.84,16.39,19.83a15.33,15.33,0,0,1-1.22,6.46c-1.92,4.35-5.17,8-1.46,12.34,2.93,3.46,7.49,5.52,11.89,6.47,2.34.46,5.14.83,6.77,2.84,4.27,5.37.88,15.44-1.37,21.11a118.23,118.23,0,0,1-14.49,24.7c-2.7,3.76-6,7.28-8.11,11.34-1.77,3.11-2.42,6.65-4.26,9.89-2.19,3.53-6.34,5.38-10.24,6a16.32,16.32,0,0,1-14.38-5,31.46,31.46,0,0,0-2.41-2.32c-2.31-2-4.39-.15-7,.46a4.29,4.29,0,0,1-4.58-2.64c-.83-1.81-.71-3.62-1.27-5.41a21,21,0,0,0-7.77-10.41c-3.95-3.24-7.93-.89-12.15.73a18.47,18.47,0,0,1-7.36,1.3c-5-.4-9.07-2.89-13.86-3.82-2.28-.58-4.61-.93-6.93-1.38l.32-.22-.71,2.49a.19.19,0,0,1-.24.14.2.2,0,0,1-.15-.23Z" transform="translate(-0.22 -0.39)"/><path class="cls-1" d="M126.64,141.43c1,4.47,4.42,6.39,8.77,6.57,4.19.17,8.38,0,12.44-1.47,5.51-2,10.45-6.32,16.64-6.32,9.25-.39,17.67,5.32,23.54,11.82a.15.15,0,0,1-.19.23c-7.54-4.18-14.79-8.64-23.34-9.21-5.61-.23-11.18,2-16.28,4.38a36,36,0,0,1-8.44,3.09c-4.47.68-10.39-.06-12.69-4.52a7.76,7.76,0,0,1-.75-4.55.16.16,0,0,1,.3,0Z" transform="translate(-0.22 -0.39)"/><path class="cls-1" d="M139,162.23c-.05-4.68,3-9.75,7.8-11.09s9.42-.51,14.06.28a31.35,31.35,0,0,1,8.71,3.17,74.37,74.37,0,0,0-9-1.63c-9.69-.84-18.28-2.17-21.61,9.27Z" transform="translate(-0.22 -0.39)"/><path class="cls-1" d="M146,153.6c-1.63,1.42-1.81,3.73-1.46,5.72.66,3.87,1.59,8.26,4.69,10.92,1.58,1,4.14,1.26,5.13-.63,1.65-3.65.86-8-.14-11.78-1-4.5-4.06-7.37-8.22-4.23Zm-.14-.15c4.52-3.87,9-1.65,10.41,3.79,1.18,4.08,1.91,11.61-2.44,14.12-2.74,1.08-5.75-.66-7.44-2.78-3.81-3.87-4.53-11.19-.53-15.13Z" transform="translate(-0.22 -0.39)"/><path class="cls-1" d="M143.61,170.61a32.62,32.62,0,0,0,15.59-2.26c-3.58,4.49-10.94,5.69-15.59,2.26Z" transform="translate(-0.22 -0.39)"/><path class="cls-1" d="M156.44,302.4a168.28,168.28,0,0,1,27.76-1.22c-.16,8.35,0,17.35.49,25.7l0,.63-.48.05c-9.33.76-18.68,1.16-28,1.14-.09-8.73,0-17.73.23-26.3Zm.13.17c.46,7.23,1.09,17.82,1.34,24.9l-.88-1.19c9.05-.42,18.11-.4,27.18-.06l-.46.68,0-6.25c0-6-.27-12.7-.62-18.75l.54.73c-8.88.93-18.18.42-27.12-.06Z" transform="translate(-0.22 -0.39)"/><path d="M170.07,319.3a45.45,45.45,0,0,1-5.39-9.07c3.77.35,7.55-.25,11.32-.21a70.16,70.16,0,0,1-5.93,9.28Zm0-.1a71.42,71.42,0,0,1,4.64-8.92l.44.76c-3.37,0-6.73-.57-10.09-.32l.2-.34a43.78,43.78,0,0,1,4.81,8.82Z" transform="translate(-0.22 -0.39)"/><path class="cls-1" d="M121.83,295.08a168.32,168.32,0,0,1,27.13,6c-2.32,8-4.47,16.77-6.18,24.95l-.13.62-.48-.08q-13.81-2.51-27.37-6.15c2.17-8.46,4.64-17.11,7-25.34Zm.08.2c-1.43,7.1-3.56,17.49-5.14,24.39l-.55-1.38c8.85,1.95,17.6,4.31,26.26,7l-.61.54,1.63-6c1.57-5.81,3-12.33,4.26-18.26l.33.84c-8.82-1.4-17.67-4.29-26.18-7.07Z" transform="translate(-0.22 -0.39)"/><path d="M130.62,314.93a45.61,45.61,0,0,1-2.86-10.15c3.55,1.31,7.36,1.7,11,2.72a70.7,70.7,0,0,1-8.13,7.43Zm0-.1a72.28,72.28,0,0,1,6.8-7.41l.22.85c-3.24-.89-6.34-2.29-9.66-2.92l.28-.28a43.24,43.24,0,0,1,2.36,9.76Z" transform="translate(-0.22 -0.39)"/><path class="cls-1" d="M90.29,279.05a168,168,0,0,1,24.65,12.81c-4.31,7.16-8.65,15.05-12.42,22.51l-.29.56-.44-.2q-12.71-6-24.85-13c4.29-7.61,8.92-15.33,13.35-22.66Zm0,.21c-3.22,6.49-8,16-11.28,22.23L78.87,300c8,4.16,15.88,8.71,23.56,13.54l-.74.36,3.15-5.41c3-5.22,6.12-11.13,8.83-16.54l.11.89c-8.16-3.63-16-8.71-23.46-13.6Z" transform="translate(-0.22 -0.39)"/><path d="M93.64,300.49A45.76,45.76,0,0,1,93.52,290c3.08,2.19,6.66,3.55,9.91,5.47a69,69,0,0,1-9.79,5.07Zm0-.08a71.39,71.39,0,0,1,8.48-5.4v.87c-2.9-1.69-5.54-3.85-8.57-5.32l.34-.19a43.46,43.46,0,0,1-.25,10Z" transform="translate(-0.22 -0.39)"/><path class="cls-1" d="M64,255.4a167.74,167.74,0,0,1,20.49,18.76c-6,5.8-12.25,12.29-17.82,18.52l-.43.47-.37-.31q-10.71-9.09-20.63-19c6.11-6.24,12.58-12.5,18.76-18.43Zm0,.21C59.16,261.05,52.12,269,47.3,274.16l.22-1.46c6.69,6.1,13.08,12.53,19.25,19.17L66,292l4.43-4.41c4.27-4.26,8.79-9.17,12.82-13.69l-.13.89C76.15,269.2,69.93,262.27,64,255.61Z" transform="translate(-0.22 -0.39)"/><path d="M61.67,277a45.81,45.81,0,0,1,2.6-10.22c2.42,2.91,5.52,5.16,8.16,7.85A69.93,69.93,0,0,1,61.67,277Zm.07-.07a71.18,71.18,0,0,1,9.59-3l-.23.84c-2.37-2.38-4.35-5.15-6.91-7.35l.39-.1a44.61,44.61,0,0,1-2.84,9.63Z" transform="translate(-0.22 -0.39)"/><path class="cls-1" d="M44.68,225.75a166.49,166.49,0,0,1,14.94,23.42c-7.31,4-15,8.71-22,13.28l-.53.35-.28-.41q-8-11.53-15-23.69c7.52-4.45,15.39-8.82,22.89-12.95Zm-.08.19c-6,4-14.89,9.85-20.89,13.62l.59-1.37c4.89,7.64,9.4,15.49,13.64,23.51l-.82-.06,5.43-3.11c5.22-3,10.86-6.58,15.92-9.9l-.36.82c-5.24-7.22-9.46-15.52-13.51-23.51Z" transform="translate(-0.22 -0.39)"/><path d="M36.86,246A46.08,46.08,0,0,1,42,236.8c1.58,3.44,4,6.41,5.85,9.69a70.27,70.27,0,0,1-11-.49ZM37,246a71.25,71.25,0,0,1,10-.44l-.44.75c-1.67-2.91-2.86-6.1-4.76-8.89h.39A43.53,43.53,0,0,1,37,246Z" transform="translate(-0.22 -0.39)"/><path class="cls-1" d="M33.72,192.11a168,168,0,0,1,8.37,26.49c-8.11,2-16.76,4.52-24.7,7.13l-.6.2-.17-.46q-4.74-13.23-8.36-26.78c8.41-2.35,17.14-4.54,25.46-6.58Zm-.13.17c-6.86,2.31-16.93,5.66-23.7,7.74l.92-1.16c2.75,8.63,5.07,17.39,7.09,26.23l-.77-.26,6-1.6c5.82-1.56,12.2-3.55,17.95-5.45l-.56.7c-3.2-8.33-5.12-17.44-7-26.2Z" transform="translate(-0.22 -0.39)"/><path d="M20.93,209.65a45.6,45.6,0,0,1,7.36-7.55c.64,3.73,2.2,7.22,3.14,10.87a69.47,69.47,0,0,1-10.5-3.32Zm.09,0a70.6,70.6,0,0,1,9.82,2.18l-.62.61c-.86-3.25-1.19-6.64-2.31-9.82l.39.1A44,44,0,0,1,21,209.62Z" transform="translate(-0.22 -0.39)"/><path class="cls-1" d="M31.83,156.78a167.2,167.2,0,0,1,1.23,27.76c-8.35-.16-17.35,0-25.7.49l-.63,0-.05-.48c-.76-9.34-1.16-18.68-1.14-28,8.73-.09,17.73,0,26.29.23Zm-.16.13c-7.23.46-17.82,1.09-24.9,1.34L8,157.37c.42,9,.4,18.11.06,27.18l-.68-.46,6.25,0c6,0,12.7-.27,18.75-.62l-.73.54c-.93-8.88-.42-18.18.06-27.12Z" transform="translate(-0.22 -0.39)"/><path d="M14.94,170.41A45.45,45.45,0,0,1,24,165c-.35,3.77.25,7.55.21,11.32a70.16,70.16,0,0,1-9.28-5.93Zm.1,0A71.42,71.42,0,0,1,24,175.05l-.76.44c0-3.37.57-6.73.31-10.09l.35.2A43.78,43.78,0,0,1,15,170.41Z" transform="translate(-0.22 -0.39)"/><path class="cls-1" d="M39.16,122.17a168.32,168.32,0,0,1-6,27.13c-8-2.32-16.77-4.47-24.95-6.18L7.59,143l.08-.48q2.51-13.83,6.15-27.37c8.46,2.17,17.11,4.64,25.34,7Zm-.2.08c-7.1-1.43-17.49-3.56-24.39-5.15l1.38-.54c-1.95,8.85-4.31,17.6-7,26.26l-.54-.61,6,1.63c5.81,1.57,12.33,3,18.26,4.26l-.84.33c1.4-8.82,4.29-17.67,7.07-26.18Z" transform="translate(-0.22 -0.39)"/><path d="M19.31,131a45.61,45.61,0,0,1,10.15-2.86c-1.31,3.55-1.7,7.36-2.72,11A70.7,70.7,0,0,1,19.31,131Zm.1,0a72.28,72.28,0,0,1,7.41,6.8L26,138c.89-3.24,2.29-6.35,2.92-9.66l.28.28A43.24,43.24,0,0,1,19.41,131Z" transform="translate(-0.22 -0.39)"/><path class="cls-1" d="M55.19,90.63a168,168,0,0,1-12.81,24.65c-7.16-4.31-15.05-8.65-22.51-12.42l-.56-.29.2-.44q6-12.7,13-24.85c7.61,4.29,15.33,8.91,22.66,13.35Zm-.21,0c-6.49-3.22-16-8-22.23-11.28l1.47-.17c-4.16,8-8.71,15.88-13.54,23.56l-.36-.74,5.41,3.15c5.22,3,11.13,6.11,16.54,8.83l-.89.11C45,106,50.09,98.16,55,90.66Z" transform="translate(-0.22 -0.39)"/><path d="M33.75,94a46.31,46.31,0,0,1,10.54-.13c-2.19,3.09-3.55,6.67-5.47,9.92A69.52,69.52,0,0,1,33.75,94Zm.08,0a71.39,71.39,0,0,1,5.4,8.48h-.87c1.69-2.9,3.85-5.54,5.32-8.57l.19.34a43.46,43.46,0,0,1-10-.25Z" transform="translate(-0.22 -0.39)"/><path class="cls-1" d="M78.84,64.32A167.74,167.74,0,0,1,60.08,84.81c-5.8-6-12.29-12.25-18.52-17.82l-.47-.43.31-.37q9.09-10.71,19-20.63c6.24,6.11,12.5,12.58,18.43,18.76Zm-.21,0C73.19,59.5,65.27,52.46,60.08,47.64l1.46.21C55.44,54.55,49,60.94,42.37,67.11l-.16-.8,4.41,4.43c4.26,4.27,9.17,8.79,13.69,12.82l-.89-.13C65,76.49,72,70.27,78.63,64.29Z" transform="translate(-0.22 -0.39)"/><path d="M57.26,62a45.81,45.81,0,0,1,10.22,2.6c-2.91,2.42-5.16,5.52-7.85,8.16A69.93,69.93,0,0,1,57.26,62Zm.07.07a71.18,71.18,0,0,1,3,9.59l-.84-.23c2.38-2.37,5.15-4.35,7.35-6.91l.1.39a44.61,44.61,0,0,1-9.63-2.84Z" transform="translate(-0.22 -0.39)"/><path class="cls-1" d="M108.49,45A166.49,166.49,0,0,1,85.07,60c-4-7.31-8.7-15-13.28-22l-.34-.53.4-.28q11.54-8,23.7-15C100,29.65,104.37,37.52,108.49,45Zm-.19-.08c-4-6-9.85-14.89-13.61-20.89l1.36.59C88.41,29.53,80.56,34,72.54,38.28l.06-.82,3.11,5.43c3,5.22,6.58,10.86,9.9,15.92l-.82-.36C92,53.21,100.32,49,108.3,44.94Z" transform="translate(-0.22 -0.39)"/><path d="M88.24,37.2a46.08,46.08,0,0,1,9.2,5.16c-3.44,1.58-6.4,4-9.69,5.85a70.27,70.27,0,0,1,.49-11Zm.05.09a69.78,69.78,0,0,1,.44,10L88,46.89c2.91-1.67,6.1-2.86,8.89-4.76v.39a43.53,43.53,0,0,1-8.58-5.23Z" transform="translate(-0.22 -0.39)"/><path class="cls-1" d="M142.13,34.06a168,168,0,0,1-26.49,8.37c-2-8.11-4.52-16.76-7.13-24.7l-.2-.6.46-.17Q122,12.22,135.55,8.6c2.35,8.41,4.54,17.14,6.58,25.46Zm-.17-.13c-2.31-6.86-5.66-16.93-7.74-23.7l1.16.92c-8.63,2.75-17.39,5.07-26.23,7.09l.26-.77,1.6,6c1.56,5.82,3.55,12.2,5.45,18l-.7-.56c8.33-3.2,17.44-5.12,26.2-7Z" transform="translate(-0.22 -0.39)"/><path d="M124.6,21.27a45.54,45.54,0,0,1,7.54,7.36c-3.73.64-7.22,2.2-10.87,3.14a69.49,69.49,0,0,1,3.33-10.5Zm0,.09a70.6,70.6,0,0,1-2.18,9.82l-.61-.62c3.25-.86,6.64-1.19,9.82-2.31l-.1.39a44,44,0,0,1-6.93-7.28Z" transform="translate(-0.22 -0.39)"/><path class="cls-1" d="M177.46,32.17A167.2,167.2,0,0,1,149.7,33.4c.16-8.35,0-17.35-.49-25.7l0-.63.48-.05c9.34-.76,18.68-1.16,28-1.14.09,8.73-.05,17.73-.23,26.29Zm-.13-.17c-.46-7.22-1.08-17.81-1.34-24.89l.88,1.19c-9.05.42-18.11.4-27.18.06l.46-.68,0,6.25c0,6,.27,12.7.62,18.75l-.54-.73c8.88-.93,18.18-.43,27.12.05Z" transform="translate(-0.22 -0.39)"/><path d="M163.83,15.28a45.45,45.45,0,0,1,5.39,9.07c-3.77-.35-7.55.25-11.32.21a70.16,70.16,0,0,1,5.93-9.28Zm0,.1a71.42,71.42,0,0,1-4.64,8.92l-.43-.76c3.36,0,6.72.57,10.08.31l-.2.35a43.78,43.78,0,0,1-4.81-8.82Z" transform="translate(-0.22 -0.39)"/><path class="cls-1" d="M212.07,39.5a168.32,168.32,0,0,1-27.13-6c2.32-8,4.47-16.77,6.18-24.95l.13-.62.48.08q13.83,2.51,27.37,6.15c-2.17,8.46-4.64,17.11-7,25.34Zm-.08-.2c1.43-7.1,3.56-17.49,5.15-24.39l.54,1.38c-8.85-1.95-17.6-4.31-26.26-7l.61-.54-1.63,6c-1.57,5.81-3,12.33-4.26,18.26l-.33-.84c8.82,1.4,17.67,4.29,26.18,7.07Z" transform="translate(-0.22 -0.39)"/><path d="M203.28,19.65a45.61,45.61,0,0,1,2.86,10.15c-3.55-1.31-7.36-1.7-11-2.72a70.7,70.7,0,0,1,8.13-7.43Zm0,.1a72.28,72.28,0,0,1-6.8,7.41l-.22-.85c3.24.89,6.35,2.29,9.66,2.92l-.28.28a43.24,43.24,0,0,1-2.36-9.76Z" transform="translate(-0.22 -0.39)"/><path class="cls-1" d="M243.61,55.53A168,168,0,0,1,219,42.72c4.31-7.16,8.65-15,12.42-22.51l.29-.56.44.2q12.7,6,24.85,13c-4.29,7.61-8.91,15.33-13.35,22.66Zm0-.21c3.22-6.49,8-16,11.28-22.23l.17,1.47c-8-4.17-15.88-8.71-23.56-13.54l.74-.36-3.14,5.41c-3,5.21-6.12,11.13-8.84,16.54l-.11-.89c8.16,3.63,16,8.71,23.46,13.6Z" transform="translate(-0.22 -0.39)"/><path d="M240.26,34.09a46.31,46.31,0,0,1,.13,10.54c-3.09-2.19-6.67-3.55-9.91-5.47a68.87,68.87,0,0,1,9.78-5.07Zm0,.08a71.39,71.39,0,0,1-8.48,5.4V38.7c2.9,1.69,5.54,3.85,8.57,5.32l-.34.19a43.46,43.46,0,0,1,.25-10Z" transform="translate(-0.22 -0.39)"/><path class="cls-1" d="M269.92,79.18a167.74,167.74,0,0,1-20.49-18.76c6-5.8,12.25-12.29,17.82-18.52l.43-.47.37.31q10.71,9.09,20.63,19c-6.11,6.24-12.58,12.5-18.76,18.43Zm0-.21c4.79-5.44,11.83-13.37,16.65-18.55l-.21,1.46c-6.7-6.1-13.09-12.53-19.26-19.17l.8-.16L263.5,47c-4.26,4.26-8.79,9.17-12.82,13.69l.13-.89C257.75,65.37,264,72.31,270,79Z" transform="translate(-0.22 -0.39)"/><path d="M272.23,57.6a45.81,45.81,0,0,1-2.6,10.22c-2.42-2.92-5.52-5.16-8.16-7.85a68.77,68.77,0,0,1,10.76-2.37Zm-.07.07a71.18,71.18,0,0,1-9.59,3l.23-.84c2.37,2.38,4.35,5.15,6.91,7.35l-.38.1a44,44,0,0,1,2.83-9.63Z" transform="translate(-0.22 -0.39)"/><path class="cls-1" d="M289.22,108.83a167.4,167.4,0,0,1-14.94-23.42c7.31-4,15-8.7,22-13.28l.53-.34.28.4q8,11.53,15,23.7c-7.52,4.44-15.39,8.82-22.89,12.94Zm.08-.19c6-4,14.89-9.85,20.89-13.61l-.59,1.36c-4.89-7.64-9.4-15.49-13.64-23.51l.82.06-5.43,3.11c-5.22,3-10.86,6.58-15.92,9.9l.36-.82c5.24,7.22,9.46,15.52,13.51,23.51Z" transform="translate(-0.22 -0.39)"/><path d="M297,88.58a45.59,45.59,0,0,1-5.16,9.2c-1.58-3.44-4-6.41-5.85-9.69a70.27,70.27,0,0,1,11,.49Zm-.09,0a69.78,69.78,0,0,1-10,.44l.44-.75c1.67,2.91,2.87,6.1,4.76,8.89h-.39A43.53,43.53,0,0,1,297,88.63Z" transform="translate(-0.22 -0.39)"/><path class="cls-1" d="M300.18,142.47A168,168,0,0,1,291.81,116c8.11-2,16.76-4.52,24.7-7.13l.6-.2.17.46q4.74,13.23,8.36,26.78c-8.41,2.35-17.14,4.54-25.46,6.58Zm.13-.17c6.86-2.31,16.93-5.66,23.7-7.74l-.92,1.16c-2.75-8.63-5.07-17.39-7.09-26.23l.77.26-6,1.6c-5.82,1.56-12.2,3.55-18,5.45l.56-.7c3.2,8.33,5.12,17.44,7,26.2Z" transform="translate(-0.22 -0.39)"/><path d="M313,124.94a45.93,45.93,0,0,1-7.36,7.54c-.64-3.73-2.2-7.22-3.14-10.87a68.38,68.38,0,0,1,10.5,3.33Zm-.09,0a70.6,70.6,0,0,1-9.82-2.18l.62-.61c.86,3.25,1.19,6.64,2.31,9.82l-.39-.1a44,44,0,0,1,7.28-6.93Z" transform="translate(-0.22 -0.39)"/><path class="cls-1" d="M302.07,177.8A167.2,167.2,0,0,1,300.84,150c8.35.16,17.35,0,25.7-.49l.63,0,.05.48c.76,9.34,1.16,18.68,1.14,28-8.73.09-17.73-.05-26.29-.23Zm.16-.13c7.23-.46,17.82-1.09,24.9-1.34l-1.19.88c-.42-9.05-.4-18.11-.06-27.18l.68.46-6.25,0c-6,0-12.7.27-18.75.62l.73-.54c.93,8.88.43,18.18-.06,27.12Z" transform="translate(-0.22 -0.39)"/><path d="M319,164.17a45.45,45.45,0,0,1-9.07,5.39c.35-3.77-.25-7.55-.21-11.32a70.16,70.16,0,0,1,9.28,5.93Zm-.1,0a71.42,71.42,0,0,1-8.92-4.64l.76-.44c0,3.37-.57,6.73-.31,10.09L310,169a43.78,43.78,0,0,1,8.82-4.81Z" transform="translate(-0.22 -0.39)"/><path class="cls-1" d="M294.74,212.41a168.32,168.32,0,0,1,6-27.13c8,2.32,16.77,4.47,24.95,6.18l.62.13-.08.48q-2.5,13.83-6.15,27.37c-8.46-2.17-17.11-4.64-25.34-7Zm.2-.08c7.1,1.43,17.49,3.56,24.39,5.14L318,218c1.95-8.85,4.31-17.6,7-26.26l.54.61-6-1.63c-5.81-1.57-12.33-3-18.26-4.26l.84-.33c-1.4,8.82-4.29,17.67-7.07,26.18Z" transform="translate(-0.22 -0.39)"/><path d="M314.59,203.62a45.61,45.61,0,0,1-10.15,2.86c1.31-3.55,1.7-7.36,2.72-11a70.7,70.7,0,0,1,7.43,8.13Zm-.1,0a72.28,72.28,0,0,1-7.41-6.8l.85-.22c-.89,3.24-2.29,6.34-2.92,9.66l-.28-.28a43.24,43.24,0,0,1,9.76-2.36Z" transform="translate(-0.22 -0.39)"/><path class="cls-1" d="M278.71,244a167.05,167.05,0,0,1,12.82-24.65c7.15,4.31,15,8.65,22.5,12.42l.57.29-.21.44q-6,12.7-13,24.85C293.76,253,286,248.38,278.71,244Zm.21,0c6.49,3.22,16,8,22.23,11.28l-1.47.17c4.17-8,8.71-15.88,13.54-23.56l.36.74-5.41-3.15c-5.21-3-11.13-6.12-16.54-8.83l.89-.11c-3.63,8.16-8.71,16-13.6,23.46Z" transform="translate(-0.22 -0.39)"/><path d="M300.16,240.6a45.85,45.85,0,0,1-10.55.12c2.19-3.08,3.55-6.66,5.47-9.91a70.1,70.1,0,0,1,5.08,9.79Zm-.09,0a71.39,71.39,0,0,1-5.4-8.48h.87c-1.69,2.9-3.85,5.54-5.31,8.57l-.2-.34a43.46,43.46,0,0,1,10,.25Z" transform="translate(-0.22 -0.39)"/><path class="cls-1" d="M255.06,270.26a168.54,168.54,0,0,1,18.76-20.49c5.8,6,12.29,12.25,18.52,17.82l.47.43-.31.37q-9.09,10.71-19,20.63c-6.24-6.11-12.5-12.58-18.43-18.76Zm.21,0c5.44,4.79,13.37,11.83,18.56,16.65l-1.47-.21c6.11-6.7,12.53-13.09,19.18-19.26l.15.8-4.41-4.43c-4.25-4.26-9.17-8.79-13.69-12.82l.89.13c-5.61,6.94-12.55,13.16-19.21,19.14Z" transform="translate(-0.22 -0.39)"/><path d="M276.64,272.57a45.81,45.81,0,0,1-10.22-2.6c2.92-2.42,5.16-5.52,7.85-8.16a68.77,68.77,0,0,1,2.37,10.76Zm-.07-.07a71.18,71.18,0,0,1-3-9.59l.84.23c-2.38,2.37-5.15,4.35-7.35,6.91l-.1-.38a44,44,0,0,1,9.63,2.83Z" transform="translate(-0.22 -0.39)"/><path class="cls-1" d="M225.41,289.56a166.49,166.49,0,0,1,23.42-14.94c4,7.31,8.71,15,13.28,22l.34.53-.4.28q-11.53,8-23.7,15c-4.44-7.52-8.82-15.39-12.94-22.89Zm.19.08c4,6,9.85,14.89,13.61,20.89l-1.36-.59c7.64-4.89,15.49-9.4,23.51-13.64l-.06.82-3.11-5.43c-3-5.22-6.58-10.86-9.9-15.92l.82.36c-7.22,5.24-15.52,9.46-23.51,13.51Z" transform="translate(-0.22 -0.39)"/><path d="M245.66,297.38a46.08,46.08,0,0,1-9.2-5.16c3.44-1.58,6.41-4,9.69-5.85a70.27,70.27,0,0,1-.49,11Zm0-.09a69.78,69.78,0,0,1-.44-10l.75.44c-2.91,1.67-6.1,2.86-8.89,4.76v-.39a43.53,43.53,0,0,1,8.58,5.23Z" transform="translate(-0.22 -0.39)"/><path class="cls-1" d="M191.77,300.52a168,168,0,0,1,26.49-8.37c2,8.11,4.52,16.76,7.13,24.7l.2.6-.46.17q-13.23,4.74-26.78,8.36c-2.35-8.41-4.54-17.14-6.58-25.46Zm.17.13c2.31,6.86,5.66,16.93,7.74,23.7l-1.16-.92c8.63-2.75,17.39-5.07,26.23-7.09l-.26.77-1.6-6c-1.56-5.82-3.55-12.2-5.45-17.95l.7.56c-8.33,3.2-17.44,5.12-26.2,7Z" transform="translate(-0.22 -0.39)"/><path d="M209.3,313.31a45.93,45.93,0,0,1-7.54-7.36c3.73-.64,7.22-2.2,10.87-3.14a68.38,68.38,0,0,1-3.33,10.5Zm0-.09a70.6,70.6,0,0,1,2.18-9.82l.61.62c-3.25.86-6.64,1.19-9.82,2.31l.1-.39a44,44,0,0,1,6.93,7.28Z" transform="translate(-0.22 -0.39)"/><path class="cls-1" d="M257.62,244.73a168.45,168.45,0,0,1-27.78.62c.34-8.35.36-17.36.07-25.71V219l.49,0q14-.84,28-.53c-.1,8.74-.44,17.73-.81,26.29Zm-.12-.17c-.3-7.24-.7-17.84-.8-24.92l.86,1.21c-9.06.22-18.12,0-27.17-.54l.47-.67-.16,6.25c-.13,6,0,12.7.21,18.75l-.52-.73c8.89-.74,18.18,0,27.11.65Z" transform="translate(-0.22 -0.39)"/><path d="M244.2,228.33a45.68,45.68,0,0,1,5.19,9.18c-3.76-.43-7.55.09-11.32,0a69.48,69.48,0,0,1,6.13-9.15Zm0,.1a70.81,70.81,0,0,1-4.84,8.81l-.42-.77c3.36.09,6.71.72,10.08.54l-.21.34a43.94,43.94,0,0,1-4.61-8.92Z" transform="translate(-0.22 -0.39)"/></svg>