<?xml version="1.0" encoding="UTF-8"?>
<svg id="Layer_1" data-name="Layer 1" xmlns="http://www.w3.org/2000/svg" viewBox="0 0 76.76 182.96">
  <defs>
    <style>
      .cls-1 {
        fill: #fff;
        stroke-width: 0px;
      }
    </style>
  </defs>
  <path class="cls-1" d="m63.31.02c0,14.37,0,28.75,0,43.12-6.03,0-12.07-.02-18.1-.02V.02c-4.48,0-8.96-.01-13.45-.02,0,14.37,0,28.73,0,43.1-5.95,0-11.89-.02-17.84-.02,0-14.35,0-28.7,0-43.06-4.48,0-8.96.01-13.44.02,0,18.85,0,37.71,0,56.56h13.44v-.08l17.84.02v67.37l-31.75-.04-.02,13.44,31.77.04v45.6h13.44v-45.59l31.02.04.02-13.44-31.04-.04V56.56l18.1.02v.02h13.44V0c-4.48,0-8.96,0-13.45.01Z"/>
</svg>