<svg id="Layer_1" data-name="Layer 1" xmlns="http://www.w3.org/2000/svg" viewBox="0 0 333.81 333.81"><defs><style>.cls-1{fill:#070707;stroke:#fff;}.cls-1,.cls-3{stroke-miterlimit:10;}.cls-2,.cls-3{fill:#fff;}.cls-3{stroke:#fffffa;stroke-width:0.5px;}</style></defs><circle class="cls-1" cx="166.91" cy="166.91" r="166.41"/><path class="cls-2" d="M121.17,307.16c2.26-11.32,14.9-17.36,24.52-10.07,11.23,8.6,8.29,26.72-6.11,29.68-11.74,2.3-21-8.29-18.41-19.61Zm.2,0c-2.57,12.7,12.49,22.35,23.17,15.52,6.81-4.05,9.53-14,4.82-20.64-7-10.5-25.43-7.42-28,5.12Z" transform="translate(-0.13 -0.35)"/><path class="cls-2" d="M139.81,295.05c12.1,2,12.37,18.89.72,21.87a10.83,10.83,0,0,1-13.42-9.55l.19,0c2.21,5.07,7.25,8.74,12.86,7.76,9.74-1.8,9.86-10,4-16.44a17.88,17.88,0,0,0-4.45-3.41l.06-.19Z" transform="translate(-0.13 -0.35)"/><path class="cls-2" d="M78.23,284.68c5.81-10,19.73-11.57,26.46-1.56,7.83,11.78-.84,28-15.42,26.1-11.85-1.65-17.17-14.66-11-24.54Zm.17.1C71.85,296,83,310,95.28,307c7.76-1.62,13.55-10.12,11.26-18-3.21-12.19-21.64-15.27-28.14-4.25Z" transform="translate(-0.13 -0.35)"/><path class="cls-2" d="M99.79,279.28c10.79,5.84,5.57,21.88-6.42,20.92a10.82,10.82,0,0,1-9.59-13.38l.2,0c.44,5.51,4,10.62,9.64,11.51,9.8,1.46,12.56-6.22,9.15-14.24a17.82,17.82,0,0,0-3.1-4.67l.12-.16Z" transform="translate(-0.13 -0.35)"/><path class="cls-2" d="M44.92,249.49c8.72-7.55,22.42-4.55,25.52,7.11,3.59,13.68-9.86,26.18-23,19.67-10.67-5.4-11.48-19.44-2.47-26.78Zm.13.15c-9.83,8.45-3.88,25.31,8.75,26.48,7.86,1,16.1-5.17,16.48-13.33.93-12.58-15.51-21.47-25.23-13.15Z" transform="translate(-0.13 -0.35)"/><path class="cls-2" d="M67.06,251.38c8.31,9-1.84,22.5-12.86,17.7a10.82,10.82,0,0,1-4.73-15.77l.18.08c-1.37,5.35.35,11.35,5.38,14,8.79,4.56,13.9-1.81,13.28-10.5a17.69,17.69,0,0,0-1.42-5.42l.17-.11Z" transform="translate(-0.13 -0.35)"/><path class="cls-2" d="M24.84,205.38c10.7-4.3,22.67,3,21.83,15C45.62,234.5,28.84,242,18.48,231.52c-8.34-8.58-4.55-22.12,6.36-26.14Zm.07.18c-12,4.81-11.88,22.68-.32,27.89,7.11,3.49,16.9.34,19.91-7.25,5-11.6-7.69-25.35-19.59-20.64Z" transform="translate(-0.13 -0.35)"/><path class="cls-2" d="M45.16,214.36c4.94,11.23-9,20.68-17.91,12.56a10.82,10.82,0,0,1,.65-16.45l.14.13c-3,4.62-3.35,10.85.54,15,6.84,7.16,13.74,2.8,16-5.62a17.8,17.8,0,0,0,.42-5.59l.19,0Z" transform="translate(-0.13 -0.35)"/><path class="cls-2" d="M20.16,157.14c11.52-.6,20.48,10.18,15.78,21.29-5.58,13-23.87,14.6-30.28,1.37C.56,169,8.55,157.41,20.16,157.14Zm0,.2c-12.94.63-18.6,17.59-9.36,26.27,5.6,5.61,15.88,5.81,21.19-.4,8.46-9.35,1-26.46-11.83-25.87Z" transform="translate(-0.13 -0.35)"/><path class="cls-2" d="M36.47,172.23c1,12.23-15.27,16.63-21,6.07a10.82,10.82,0,0,1,6-15.35l.09.17c-4.37,3.39-6.69,9.17-4.37,14.38,4.14,9,12.08,7.11,16.93-.13a18.2,18.2,0,0,0,2.22-5.15Z" transform="translate(-0.13 -0.35)"/><path class="cls-2" d="M31.41,110c11.09,3.18,16.06,16.28,8,25.26-9.49,10.48-27.31,6.05-29.07-8.54C9,114.83,20.33,106.48,31.41,110Zm-.06.19C18.9,106.58,8.05,120.79,14,132c3.47,7.12,13.13,10.65,20.17,6.5,11-6.1,9.5-24.72-2.79-28.31Z" transform="translate(-0.13 -0.35)"/><path class="cls-2" d="M41.93,129.57c-3,11.89-19.84,10.77-21.85-1.09A10.82,10.82,0,0,1,30.7,115.9l0,.19c-5.23,1.78-9.31,6.5-8.8,12.18,1,9.85,9.12,10.65,16,5.38a18,18,0,0,0,3.77-4.16l.18.08Z" transform="translate(-0.13 -0.35)"/><path class="cls-2" d="M57.35,69.06c9.45,6.61,9.91,20.62-.63,26.49C44.34,102.39,28.92,92.41,32,78c2.61-11.68,16-15.9,25.36-9Zm-.12.16c-10.6-7.45-25.48,2.46-23.52,15,1,7.86,9,14.34,17,12.7,12.42-2.19,17-20.3,6.55-27.69Z" transform="translate(-0.13 -0.35)"/><path class="cls-2" d="M61,91c-6.71,10.27-22.26,3.74-20.32-8.12a10.83,10.83,0,0,1,14.13-8.46l0,.2c-5.53,0-10.92,3.12-12.28,8.65-2.26,9.65,5.17,13,13.44,10.3a17.84,17.84,0,0,0,4.91-2.7L61,91Z" transform="translate(-0.13 -0.35)"/><path class="cls-2" d="M95.18,38.76c6.8,9.32,2.67,22.72-9.2,24.86-13.93,2.44-25.27-12-17.7-24.6,6.26-10.19,20.32-9.84,26.9-.26Zm-.16.12c-7.61-10.49-24.91-6-27.12,6.54-1.63,7.75,3.82,16.47,11.92,17.52,12.46,2,22.68-13.68,15.2-24.06Z" transform="translate(-0.13 -0.35)"/><path class="cls-2" d="M91.46,60.67C81.78,68.21,69.19,57,74.88,46.39A10.83,10.83,0,0,1,91,43l-.1.17c-5.22-1.81-11.34-.59-14.42,4.2-5.27,8.39.65,14,9.36,14.11a18,18,0,0,0,5.53-1l.09.17Z" transform="translate(-0.13 -0.35)"/><path class="cls-2" d="M140.79,22.39c3.41,11-4.84,22.36-16.76,20.52-14-2.21-20-19.55-8.76-29,9.23-7.6,22.41-2.7,25.52,8.49Zm-.19.06C136.81,10.06,119,8.74,112.84,19.83c-4.06,6.8-1.74,16.82,5.58,20.44,11.15,5.91,25.9-5.57,22.18-17.82Z" transform="translate(-0.13 -0.35)"/><path class="cls-2" d="M130.17,41.91c-11.61,4-19.87-10.72-11-18.89a10.83,10.83,0,0,1,16.35,2l-.15.13c-4.35-3.41-10.53-4.24-15-.71-7.7,6.23-3.92,13.46,4.28,16.38a17.66,17.66,0,0,0,5.54.88l0,.2Z" transform="translate(-0.13 -0.35)"/><path class="cls-2" d="M189.25,21.72c-.36,11.53-11.84,19.57-22.52,14-12.49-6.62-12.58-25,1.14-30.28,11.2-4.2,22.08,4.72,21.38,16.32Zm-.2,0c.44-12.95-16-20-25.41-11.49-6,5.11-7.1,15.34-1.35,21.15,8.62,9.2,26.3,3.13,26.76-9.66Z" transform="translate(-0.13 -0.35)"/><path class="cls-2" d="M172.86,36.73c-12.26,0-15.3-16.59-4.31-21.45a10.82,10.82,0,0,1,14.81,7.2l-.18.08c-3-4.64-8.59-7.43-14-5.54-9.3,3.38-8.08,11.45-1.27,16.88a17.8,17.8,0,0,0,5,2.63l0,.2Z" transform="translate(-0.13 -0.35)"/><path class="cls-2" d="M235.31,36.82c-4.09,10.79-17.56,14.66-25.84,5.89-9.66-10.32-3.78-27.72,10.91-28.27,12-.33,19.35,11.63,14.93,22.38Zm-.19-.07c4.62-12.11-8.64-24.1-20.3-19.13-7.38,2.88-11.7,12.21-8.15,19.57,5.17,11.5,23.86,11.5,28.45-.44Z" transform="translate(-0.13 -0.35)"/><path class="cls-2" d="M214.93,45.69c-11.6-4-9.09-20.66,2.89-21.69a10.82,10.82,0,0,1,11.66,11.63h-.19c-1.35-5.36-5.71-9.81-11.41-9.77-9.9.17-11.36,8.21-6.69,15.55a18,18,0,0,0,3.83,4.1l-.09.17Z" transform="translate(-0.13 -0.35)"/><path class="cls-2" d="M274,66.05c-7.36,8.88-21.37,8.17-26.35-2.81C241.82,50.33,253,35.79,267.11,40c11.42,3.57,14.52,17.28,6.85,26Zm-.15-.12c8.3-10-.35-25.61-13-24.68-7.92.32-15,7.74-14.06,15.85,1.15,12.56,18.82,18.63,27.05,8.83Z" transform="translate(-0.13 -0.35)"/><path class="cls-2" d="M251.81,67.83c-9.69-7.53-1.89-22.49,9.77-19.58A10.83,10.83,0,0,1,268.84,63l-.19-.06c.47-5.5-2.21-11.13-7.62-12.94-9.42-3-13.41,4.07-11.37,12.54A18.07,18.07,0,0,0,252,67.7l-.14.13Z" transform="translate(-0.13 -0.35)"/><path class="cls-2" d="M301,106.25c-9.85,6-22.86.79-24-11.21-1.28-14.09,14-24.2,26-15.62,9.65,7.09,8.13,21.07-2,26.83Zm-.1-.17c11.08-6.71,8-24.32-4.28-27.56C289.06,76.26,279.92,81,278.21,89c-3,12.25,11.75,23.73,22.72,17.12Z" transform="translate(-0.13 -0.35)"/><path class="cls-2" d="M279.5,100.74C272.79,90.47,285,78.85,295.1,85.4a10.83,10.83,0,0,1,2.07,16.34l-.17-.11c2.24-5.06,1.53-11.25-3-14.72-7.92-5.94-14-.5-14.83,8.17a17.84,17.84,0,0,0,.51,5.58l-.18.08Z" transform="translate(-0.13 -0.35)"/><path class="cls-2" d="M313.58,153.07c-11.27,2.48-21.88-6.68-19.07-18.41,3.36-13.74,21.14-18.33,29.64-6.33,6.82,9.83.84,22.56-10.57,24.74Zm0-.2c12.66-2.75,15.45-20.41,4.9-27.45-6.44-4.61-16.62-3.12-20.83,3.88-6.81,10.61,3.41,26.26,15.93,23.57Z" transform="translate(-0.13 -0.35)"/><path class="cls-2" d="M295,140.86c-3-11.89,12.33-18.91,19.74-9.44a10.82,10.82,0,0,1-3.35,16.12l-.12-.16c3.76-4,5.1-10.14,1.94-14.89-5.56-8.2-13.08-5-16.67,2.91a17.86,17.86,0,0,0-1.34,5.45Z" transform="translate(-0.13 -0.35)"/><path class="cls-2" d="M310.25,201.42c-11.46-1.31-18.53-13.42-12.06-23.6,7.64-11.91,25.94-10.47,30.09,3.63,3.25,11.51-6.53,21.61-18,20Zm0-.2c12.87,1.5,21.24-14.29,13.56-24.38-4.6-6.45-14.71-8.34-21-3.09-9.88,7.83-5.3,25.95,7.41,27.47Z" transform="translate(-0.13 -0.35)"/><path class="cls-2" d="M296.64,183.84c1-12.22,17.8-13.88,21.74-2.52A10.82,10.82,0,0,1,310,195.48l-.06-.19c4.87-2.62,8.12-7.94,6.68-13.46-2.61-9.55-10.75-9-16.72-2.66a17.76,17.76,0,0,0-3,4.72l-.2,0Z" transform="translate(-0.13 -0.35)"/><path class="cls-2" d="M291.4,246.06c-10.42-5-13.17-18.7-3.74-26.23,11.08-8.78,27.93-1.48,27.27,13.21-.66,11.94-13.19,18.32-23.53,13Zm.08-.17c11.69,5.6,24.73-6.62,20.74-18.66-2.26-7.59-11.2-12.66-18.83-9.73-11.89,4.2-13.43,22.82-1.91,28.39Z" transform="translate(-0.13 -0.35)"/><path class="cls-2" d="M284.23,225c4.93-11.24,21.35-7.36,21.38,4.67a10.82,10.82,0,0,1-12.55,10.66v-.2c5.45-.89,10.25-4.87,10.68-10.56.64-9.88-7.24-12-14.95-7.94a18,18,0,0,0-4.4,3.47l-.17-.1Z" transform="translate(-0.13 -0.35)"/><path class="cls-2" d="M259.07,282.17c-8.24-8.07-6.38-22,5-26,13.34-4.71,26.9,7.67,21.51,21.34-4.5,11.09-18.43,13.05-26.49,4.68Zm.14-.14c9.23,9.1,25.54,1.77,25.67-10.91.33-7.91-6.48-15.61-14.64-15.32-12.62.11-20.12,17.23-11,26.23Z" transform="translate(-0.13 -0.35)"/><path class="cls-2" d="M259.13,260c8.3-9,22.57,0,18.7,11.36a10.82,10.82,0,0,1-15.33,6l.07-.19c5.45.93,11.28-1.28,13.53-6.52,3.82-9.14-3-13.7-11.56-12.37a18.31,18.31,0,0,0-5.29,1.87l-.12-.16Z" transform="translate(-0.13 -0.35)"/><path class="cls-2" d="M216.77,305.83c-5.17-10.31,1.1-22.85,13.16-23,14.15-.12,23,16,13.42,27.17-7.86,9-21.67,6.36-26.58-4.17Zm.18-.09c5.78,11.6,23.58,10,27.82-2,2.89-7.38-1.06-16.88-8.88-19.25-12-4-24.62,9.76-18.94,21.23Z" transform="translate(-0.13 -0.35)"/><path class="cls-2" d="M224,284.83c10.79-5.84,21.36,7.31,14,16.81a10.83,10.83,0,0,1-16.46.71l.12-.15c4.86,2.64,11.09,2.45,14.92-1.77,6.58-7.41,1.66-13.92-6.91-15.46a17.92,17.92,0,0,0-5.61,0l-.07-.19Z" transform="translate(-0.13 -0.35)"/><path class="cls-2" d="M169.08,314.47C167.54,303,177.54,293.22,189,297c13.41,4.48,16.52,22.58,3.86,30.06-10.36,6-22.55-1-23.78-12.58Zm.2,0c1.7,12.85,19.07,17.09,27,7.16,5.12-6,4.48-16.3-2.15-21.08-10-7.66-26.46,1.23-24.81,13.92Z" transform="translate(-0.13 -0.35)"/><path class="cls-2" d="M182.78,297c12.1-2,17.83,13.84,7.78,20.45a10.82,10.82,0,0,1-15.79-4.67l.17-.11c3.73,4.08,9.69,5.92,14.68,3.17,8.63-4.87,6.09-12.63-1.52-16.86a17.84,17.84,0,0,0-5.32-1.78V297Z" transform="translate(-0.13 -0.35)"/><path class="cls-2" d="M295.39,167.26c.15,91.93-92.54,155.33-177.73,119.22C70.52,266.9,37.92,218.35,38,167.26c-.86-92.1,93.74-155.4,178.62-119.76C264,66.87,296,116.29,295.39,167.26Zm-.3,0c.14-79.71-75-140-152.76-124.21-58.54,11-102.75,64.64-102.68,124.21C39,247.94,113.08,307.65,191.8,291.73c58.6-11.26,103.82-64.4,103.29-124.47Z" transform="translate(-0.13 -0.35)"/><path class="cls-2" d="M148.71,89.63a12.47,12.47,0,0,1-5.35-5,12.67,12.67,0,0,1-1.61-7.28l1.32.25c-1.8,6.94-3.63,13.89-5.54,20.8a37.81,37.81,0,0,1-4.43,10c-1.92,3.68-1.88,8.78,2.17,10.84,1.2.78,2.71,1.65,3,3.4.38,3.12-2.49,5.23-4.66,6.75l-.74.23a1.18,1.18,0,0,0,.79-.28,1.31,1.31,0,0,1-.12.13l-.21.22-.44.53c-4.41,5.76-8.27,12-12.17,18.1q-6.23,9.9-12,20.09l-2.87,5.1c-1.49,2.59-1.68,5.46,1.81,6.22a60.06,60.06,0,0,0,8.57,1.41l5.85.6A3.34,3.34,0,0,1,124.5,183c2.69,3.9-.89,11.38-2.74,15.15l-.09.17,0,.08,0,0s.05-.09.06-.14c-.27.87-.86,1.75-1,2.6-.11.69.2,1,.64,1.6a6.84,6.84,0,0,1,1.49,2.95,6.06,6.06,0,0,1-.44,3.43c-.56,1.55-2.12,3.19-2.36,4.51a.13.13,0,0,0,0,.11s0,.06,0,.09a.55.55,0,0,1,0,.1,4.06,4.06,0,0,1,1,.66c1.7,1.41,2.33,3.77,2.65,5.82,1.54,9.56-1.8,20.74-10.56,25.84a13.54,13.54,0,0,1-5.95,1.71,23.84,23.84,0,0,0-5.2.43c-4.93,1.36-7.9,6.14-9,11.08a35.65,35.65,0,0,0-.55,10.64l-.45-.84a109.15,109.15,0,0,0,27.36,16.86c3.3,1.43,6.69,2.67,10.12,3.8a.14.14,0,0,1,.09.19C115.42,287,101.74,279.93,90.36,271l-.4-.31,0-.54c-.61-5.66-.45-11.79,2.13-17.08a15,15,0,0,1,9.06-7.89c3.82-1,7.14.09,10.44-1.92,6.68-3.9,9.91-12.45,9.52-20-.15-2.2-.33-5.46-1.88-6.8a5.35,5.35,0,0,0-.72-.49c-2.2-1.55-1-4.43.15-5.88,4.27-5.83-.88-5.05-.3-9.64l0,.24c.39-1.07.82-2.14,1.27-3.18,1.46-2.66,6-10.93,3.33-13.86a2.81,2.81,0,0,0-1.07-.33c-4.59-.68-10-1.25-14.49-2.53-4-1-4.17-4.55-2.31-7.65l2.89-5.11c4.07-7.08,13.16-23.87,17.34-30.62a80.68,80.68,0,0,1,6.43-9.63,1.35,1.35,0,0,1,.17-.17l.09-.1.23-.17a1.44,1.44,0,0,1,.7-.22l-.73.23c1.33-1,4.77-3.5,3-4.89-1.44-1.05-3.22-1.93-4.36-3.62a8.67,8.67,0,0,1-1.45-3.92,14.11,14.11,0,0,1,.71-5.85c.57-1.78,1.88-3.34,2.67-4.89,2.2-4,3.27-8.73,4.75-13.24s2.84-9.1,4.29-13.64l1.32.25a11.5,11.5,0,0,0,1,6.72,12.4,12.4,0,0,0,4.73,5.12c.16.09,0,.35-.15.27Z" transform="translate(-0.13 -0.35)"/><path class="cls-2" d="M140.84,41.74c-4.59,2.27-10.49,5-11.54,10.53-.13,2.66.41,5.8-.94,8.38a12.33,12.33,0,0,1-2.55,3.5c-.74.85-.45,1.94,0,2.89,1.93,3,5.84,5.36,9.38,6.45,2.68.87,6.57.4,8.35,3.22,1.83,2.36.27,5.74,1.75,8a7.06,7.06,0,0,0,8.94,3L156.2,87c3.91-1.59,7.78-.14,8.21,4.52A4,4,0,0,0,167,94.91c3.08,1.25,7.56.43,10.84-.67,1.24-.48,2.81-1.39,4.26-1.47,7.6-.92,15.58,4.49,18.89,11,.67,1.33,1.21,2.61,1.78,3.81a23.15,23.15,0,0,0,7.13,8.93c1.7,1.46,4,2.7,5,5.12.93,2-.19,4.67-1.71,5.8-1.28,1.15-3,2.16-3.25,3.7a5.58,5.58,0,0,0,.4,3,44.52,44.52,0,0,0,3.48,7.16,4.38,4.38,0,0,1,.29,4.74c-1.06,1.79-3.19,2.07-4.42,3.33-1.72,1.72-1.92,5.39-.63,7.72a14.21,14.21,0,0,1,1.7,3.08,4,4,0,0,1-2,4.23,22.91,22.91,0,0,1-3.89,2.24c-1.41.56-2.12.66-3.07,1.68-1.41,1.54-2.42,4.33-1.85,6.36a11.21,11.21,0,0,1-6,15.32,15.34,15.34,0,0,1-4.32.89,97.64,97.64,0,0,0-12.14,2.29,21.6,21.6,0,0,0-12.91,9.48c4.48-8.51,11.94-10.72,20.68-12.65,2.48-.68,5.61-.81,7.86-1.77,3.06-1.79,5.64-5.51,5.48-9.16-.07-1.42-.66-2.18-1.16-3.62-1.37-4.71,1.53-10.25,6.22-11.55a16.8,16.8,0,0,0,3.78-2.48c.14-.18.2-.31.15-.47-.32-.73-1-1.36-1.45-2.27a10.75,10.75,0,0,1-1.22-7.12,8.81,8.81,0,0,1,2.18-4.6c1.21-1.34,3-2,3.63-2.51s.19-.76-.1-1.33c-1.84-3.1-3.77-6.39-4.55-10.06a7.66,7.66,0,0,1,2.9-7.2c1.33-1.24,3.48-2.16,1.48-3.84s-4.49-3.43-6.34-5.42a25.72,25.72,0,0,1-5-7.36c-1.13-2.45-2-4.81-3.71-6.81-3.12-3.45-8.13-6.53-12.83-5.93-1.32.09-2.17.83-3.53,1.27-4.4,1.35-9.09,2.17-13.55.39a7.72,7.72,0,0,1-3.9-3.58c-.82-1.7-.77-3.47-1.08-4.06a1.52,1.52,0,0,0-1.7-.75c-2.43.43-5.48,2-8.37,1.67-4.9-.49-9.27-5-8.81-10.06.28-2.51-.34-4.27-3.07-4.64A22.37,22.37,0,0,1,130.5,74c-3.38-2.11-9.28-6.54-6-10.92a9.53,9.53,0,0,0,3.55-6.74c.12-1.3,0-2.71.21-4.19,1.31-5.82,7.6-8.37,12.57-10.37Z" transform="translate(-0.13 -0.35)"/><path class="cls-2" d="M148.33,134.73a10.54,10.54,0,0,1,5.77-7.52c1.9-.67,3.76-.46,5.68-.87,3.59-.31,7.6-2.19,11.25-.79a9.26,9.26,0,0,1,3.22,2.06,10.23,10.23,0,0,0-6.91-1,68.88,68.88,0,0,1-7.27,1.69c-1.73.33-3.7.18-5.37.54-2.82,1-4.74,3.26-6.37,5.89Z" transform="translate(-0.13 -0.35)"/><path class="cls-2" d="M153.94,128.22a42.12,42.12,0,0,0-.41,7.29,6.25,6.25,0,0,0,1.66,4.35,1,1,0,0,0,.91.25c2.27-.58,2-3.17,2-5.18a51.94,51.94,0,0,1,.59-7.45c.45,2.48.67,4.92.95,7.38.42,2.92.31,6.3-3.19,7.19a3.27,3.27,0,0,1-3.31-1.58c-2.37-3.79-.85-8.57.77-12.25Z" transform="translate(-0.13 -0.35)"/><path class="cls-3" d="M143.18,116.24c-.11,4.63,1.58,7.05,6.39,5.24,3.54-1.27,6.93-3,10.37-4.54,7-3.12,13.89-6.31,21.33-8.44,4.86-1.47,11.42-1.55,13.74,4-2.95-4.74-8.69-4.12-13.3-2.46s-9.39,3.7-14,5.68-9.28,4.06-14.07,5.86c-5.68,2.31-11.9,3.07-10.44-5.29Z" transform="translate(-0.13 -0.35)"/><path class="cls-2" d="M247.17,231.69c.16,9.09-8.53,16-17.18,11.78-10-4.88-10.85-19.34-.19-24,8.8-3.75,17.54,3,17.37,12.22Zm-.2,0c-.05-9.88-13.22-14.75-20.07-8-7.55,7.29-2.83,19.93,8,19.35,6-.16,12.19-5,12.1-11.38Z" transform="translate(-0.13 -0.35)"/><path class="cls-2" d="M234.86,244a8.48,8.48,0,0,1-8.17-4.26c-2.13-4.41-.62-10.45,4-12.56a8.43,8.43,0,0,1,11.91,5.31l-.18.08c-2.87-3.52-6.86-5.15-11-3.67-7.3,2.94-5.81,8.8-.41,12.9a15.72,15.72,0,0,0,3.87,2l0,.19Z" transform="translate(-0.13 -0.35)"/><path class="cls-2" d="M122.19,194.74c.3-1.39.65-2.76,1-4.12l.21-.15c9.38-6.18,18.35-1.57,23.28,7.68a29.9,29.9,0,0,0,9.13,12.23c-5-1.82-9.08-6.09-11.47-10.86-5-7.85-11-11.77-20.43-8.08l.26-.28c-.64,1.21-1.31,2.4-2,3.58Z" transform="translate(-0.13 -0.35)"/></svg>