<svg id="Layer_1" data-name="Layer 1" xmlns="http://www.w3.org/2000/svg" viewBox="0 0 334.13 334.13"><defs><style>.cls-1,.cls-2{fill:#1d1d1b;}.cls-2{stroke:#1d1d1b;stroke-miterlimit:10;stroke-width:0.75px;}</style></defs><path class="cls-1" d="M120.78,308.37c2.27-11.41,15-17.51,24.72-10.16,11.33,8.67,8.36,27-6.16,30-11.84,2.31-21.18-8.37-18.56-19.79Zm.19,0c-2.58,12.81,12.6,22.54,23.38,15.65C151.21,320,154,310,149.2,303.25c-7-10.59-25.64-7.49-28.23,5.16Z" transform="translate(0.02 -0.2)"/><path class="cls-1" d="M139.57,296.16c12.21,2,12.48,19,.73,22.06a10.92,10.92,0,0,1-13.53-9.63l.19,0c2.23,5.11,7.31,8.82,13,7.83,9.83-1.82,9.95-10.05,4.07-16.58a18,18,0,0,0-4.49-3.44l.06-.19Z" transform="translate(0.02 -0.2)"/><path class="cls-1" d="M77.47,285.7c5.85-10.05,19.9-11.68,26.68-1.57,7.9,11.87-.84,28.2-15.55,26.32-11.95-1.66-17.32-14.79-11.13-24.75Zm.17.1c-6.61,11.28,4.59,25.41,17,22.4,7.82-1.63,13.67-10.2,11.35-18.11-3.23-12.31-21.82-15.41-28.37-4.29Z" transform="translate(0.02 -0.2)"/><path class="cls-1" d="M99.21,280.25c10.88,5.89,5.61,22.07-6.47,21.11a10.93,10.93,0,0,1-9.68-13.51l.2,0c.44,5.56,4,10.72,9.72,11.62,9.89,1.47,12.67-6.28,9.24-14.37a18.31,18.31,0,0,0-3.13-4.71l.12-.16Z" transform="translate(0.02 -0.2)"/><path class="cls-1" d="M43.86,250.2c8.8-7.61,22.61-4.58,25.75,7.17,3.61,13.8-10,26.41-23.25,19.85-10.77-5.45-11.58-19.61-2.5-27Zm.13.15c-9.91,8.52-3.91,25.53,8.83,26.71,7.93,1,16.24-5.21,16.62-13.44C70.38,250.93,53.8,242,44,250.35Z" transform="translate(0.02 -0.2)"/><path class="cls-1" d="M66.19,252.11c8.39,9.1-1.85,22.69-13,17.85a10.92,10.92,0,0,1-4.77-15.91l.18.08c-1.38,5.4.35,11.45,5.43,14.15,8.87,4.6,14-1.83,13.4-10.59A18,18,0,0,0,66,252.22l.16-.11Z" transform="translate(0.02 -0.2)"/><path class="cls-1" d="M23.6,205.71c10.8-4.34,22.88,3,22,15.15-1.06,14.22-18,21.74-28.44,11.22-8.41-8.65-4.58-22.31,6.41-26.37Zm.08.18c-12.14,4.85-12,22.88-.33,28.13,7.18,3.52,17.06.35,20.09-7.31,5-11.7-7.76-25.57-19.76-20.82Z" transform="translate(0.02 -0.2)"/><path class="cls-1" d="M44.11,214.77c5,11.33-9.13,20.86-18.07,12.67a10.92,10.92,0,0,1,.66-16.6l.14.14c-3.06,4.66-3.38,10.94.54,15.14,6.9,7.23,13.86,2.83,16.11-5.66a18.12,18.12,0,0,0,.42-5.64l.2,0Z" transform="translate(0.02 -0.2)"/><path class="cls-1" d="M18.89,157.05c11.62-.6,20.66,10.27,15.91,21.48-5.62,13.11-24.07,14.72-30.53,1.38C-.88,169,7.17,157.32,18.89,157.05Zm0,.2C5.84,157.89.14,175,9.46,183.75c5.65,5.66,16,5.86,21.37-.4,8.54-9.43,1-26.7-11.93-26.1Z" transform="translate(0.02 -0.2)"/><path class="cls-1" d="M35.34,172.27c1,12.34-15.4,16.77-21.2,6.13a10.92,10.92,0,0,1,6-15.49l.09.18c-4.41,3.41-6.75,9.25-4.4,14.5,4.17,9.07,12.18,7.17,17.07-.13a18,18,0,0,0,2.23-5.2Z" transform="translate(0.02 -0.2)"/><path class="cls-1" d="M30.23,109.5c11.19,3.21,16.21,16.43,8.08,25.48-9.58,10.58-27.55,6.11-29.33-8.61-1.33-12,10.08-20.42,21.25-16.87Zm-.05.19c-12.56-3.63-23.51,10.7-17.54,22,3.51,7.19,13.25,10.75,20.35,6.57,11.13-6.16,9.58-24.94-2.81-28.57Z" transform="translate(0.02 -0.2)"/><path class="cls-1" d="M40.85,129.24c-3,12-20,10.86-22-1.09a10.92,10.92,0,0,1,10.71-12.7l0,.2c-5.28,1.8-9.39,6.56-8.88,12.28,1,9.94,9.2,10.74,16.2,5.43a18.3,18.3,0,0,0,3.8-4.2l.18.08Z" transform="translate(0.02 -0.2)"/><path class="cls-1" d="M56.4,68.21c9.54,6.66,10,20.8-.64,26.72-12.48,6.89-28-3.17-24.94-17.67,2.64-11.77,16.17-16,25.58-9.05Zm-.12.16c-10.69-7.51-25.7,2.48-23.72,15.12,1,7.93,9,14.46,17.11,12.81,12.53-2.21,17.16-20.48,6.61-27.93Z" transform="translate(0.02 -0.2)"/><path class="cls-1" d="M60,90.33c-6.76,10.36-22.45,3.77-20.49-8.19a10.91,10.91,0,0,1,14.25-8.53l0,.19c-5.58,0-11,3.15-12.39,8.74-2.27,9.72,5.22,13.14,13.56,10.38a17.64,17.64,0,0,0,5-2.73l.15.14Z" transform="translate(0.02 -0.2)"/><path class="cls-1" d="M94.56,37.65c6.85,9.4,2.69,22.92-9.28,25.07-14,2.46-25.49-12.1-17.86-24.81,6.32-10.28,20.5-9.92,27.14-.26Zm-.17.12c-7.67-10.58-25.11-6-27.35,6.59C65.4,52.18,70.9,61,79.07,62,91.63,64,102,48.24,94.39,37.77Z" transform="translate(0.02 -0.2)"/><path class="cls-1" d="M90.81,59.75C81.05,67.36,68.34,56,74.09,45.35a10.92,10.92,0,0,1,16.25-3.44l-.1.17C85,40.26,78.8,41.49,75.69,46.32c-5.31,8.47.67,14.13,9.45,14.23a18.29,18.29,0,0,0,5.57-1l.1.17Z" transform="translate(0.02 -0.2)"/><path class="cls-1" d="M140.57,21.14c3.43,11.12-4.89,22.55-16.92,20.7-14.09-2.24-20.18-19.73-8.83-29.27,9.31-7.67,22.61-2.72,25.75,8.57Zm-.2.06c-3.82-12.5-21.8-13.83-28-2.65-4.1,6.86-1.75,17,5.63,20.62,11.24,6,26.12-5.62,22.37-18Z" transform="translate(0.02 -0.2)"/><path class="cls-1" d="M129.85,40.82c-11.71,4-20-10.81-11.14-19a10.91,10.91,0,0,1,16.48,2l-.14.13c-4.4-3.44-10.63-4.28-15.14-.71-7.77,6.27-4,13.57,4.32,16.52a18.17,18.17,0,0,0,5.58.89l0,.19Z" transform="translate(0.02 -0.2)"/><path class="cls-1" d="M189.45,20.46c-.37,11.63-11.95,19.74-22.72,14.08C154.13,27.86,154,9.34,167.87,4c11.31-4.23,22.27,4.76,21.58,16.46Zm-.2,0C189.69,7.39,173.11.29,163.61,8.86c-6.1,5.16-7.16,15.48-1.36,21.33,8.7,9.28,26.53,3.16,27-9.74Z" transform="translate(0.02 -0.2)"/><path class="cls-1" d="M172.92,35.6c-12.38,0-15.45-16.74-4.36-21.64a10.92,10.92,0,0,1,14.94,7.27l-.18.08c-3-4.68-8.66-7.5-14.09-5.59-9.39,3.41-8.15,11.55-1.28,17a18.08,18.08,0,0,0,5,2.65l0,.2Z" transform="translate(0.02 -0.2)"/><path class="cls-1" d="M235.9,35.69c-4.12,10.88-17.71,14.79-26.06,5.94-9.75-10.41-3.82-28,11-28.51,12.06-.34,19.52,11.73,15.06,22.57Zm-.19-.07c4.66-12.22-8.71-24.31-20.48-19.29-7.44,2.9-11.8,12.31-8.22,19.73,5.22,11.61,24.07,11.61,28.7-.44Z" transform="translate(0.02 -0.2)"/><path class="cls-1" d="M215.35,44.64c-11.71-4-9.17-20.84,2.91-21.88A10.93,10.93,0,0,1,230,34.49h-.2c-1.36-5.41-5.76-9.9-11.51-9.86-10,.18-11.46,8.28-6.74,15.69a17.69,17.69,0,0,0,3.86,4.13l-.09.18Z" transform="translate(0.02 -0.2)"/><path class="cls-1" d="M274.89,65.18c-7.43,8.95-21.55,8.24-26.58-2.84-5.84-13,5.47-27.68,19.66-23.4,11.52,3.6,14.65,17.43,6.92,26.24Zm-.16-.13c8.38-10-.35-25.82-13.1-24.9-8,.33-15.16,7.82-14.18,16,1.16,12.67,19,18.79,27.28,8.9Z" transform="translate(0.02 -0.2)"/><path class="cls-1" d="M252.54,67c-9.77-7.6-1.9-22.69,9.86-19.75a10.92,10.92,0,0,1,7.32,14.91l-.19-.05c.48-5.55-2.23-11.23-7.68-13.06-9.51-3.07-13.53,4.11-11.47,12.65a18,18,0,0,0,2.31,5.16l-.15.14Z" transform="translate(0.02 -0.2)"/><path class="cls-1" d="M302.19,105.73c-9.94,6-23.06.79-24.22-11.32-1.29-14.21,14.17-24.4,26.2-15.75,9.73,7.15,8.2,21.25-2,27.07Zm-.1-.18c11.17-6.77,8.05-24.53-4.32-27.8-7.65-2.28-16.87,2.47-18.6,10.53-3,12.36,11.86,23.94,22.92,17.27Z" transform="translate(0.02 -0.2)"/><path class="cls-1" d="M280.47,100.17C273.7,89.81,286,78.09,296.21,84.69a10.91,10.91,0,0,1,2.08,16.48l-.16-.11c2.25-5.1,1.54-11.35-3-14.85-8-6-14.13-.5-15,8.24a17.94,17.94,0,0,0,.51,5.64l-.19.08Z" transform="translate(0.02 -0.2)"/><path class="cls-1" d="M314.85,152.94c-11.37,2.51-22.07-6.73-19.23-18.56,3.38-13.86,21.32-18.49,29.89-6.39,6.87,9.92.85,22.76-10.66,25Zm-.05-.19c12.78-2.78,15.59-20.59,4.95-27.7-6.5-4.64-16.76-3.14-21,3.92-6.87,10.71,3.44,26.49,16.06,23.78Z" transform="translate(0.02 -0.2)"/><path class="cls-1" d="M296.11,140.64c-3-12,12.44-19.08,19.91-9.53a10.92,10.92,0,0,1-3.38,16.26l-.12-.16c3.79-4.09,5.14-10.23,2-15-5.61-8.27-13.2-5.07-16.82,2.93a18.19,18.19,0,0,0-1.35,5.5l-.2,0Z" transform="translate(0.02 -0.2)"/><path class="cls-1" d="M311.49,201.71c-11.56-1.32-18.69-13.53-12.16-23.8,7.7-12,26.16-10.56,30.34,3.66,3.29,11.62-6.58,21.8-18.18,20.14Zm0-.2c13,1.52,21.43-14.41,13.67-24.58-4.63-6.51-14.83-8.42-21.14-3.13-10,7.91-5.35,26.18,7.47,27.71Z" transform="translate(0.02 -0.2)"/><path class="cls-1" d="M297.76,184c1-12.34,18-14,21.93-2.55a10.92,10.92,0,0,1-8.48,14.28l-.06-.19c4.91-2.64,8.18-8,6.73-13.57-2.62-9.64-10.84-9.08-16.86-2.68A17.85,17.85,0,0,0,298,184l-.2,0Z" transform="translate(0.02 -0.2)"/><path class="cls-1" d="M292.47,246.75c-10.5-5-13.28-18.87-3.77-26.46,11.18-8.86,28.18-1.5,27.51,13.32-.66,12-13.3,18.48-23.74,13.14Zm.09-.18c11.79,5.65,24.95-6.68,20.91-18.82-2.27-7.66-11.29-12.77-19-9.82-12,4.24-13.56,23-1.93,28.64Z" transform="translate(0.02 -0.2)"/><path class="cls-1" d="M285.25,225.53c5-11.34,21.53-7.42,21.56,4.71A10.9,10.9,0,0,1,294.16,241v-.2c5.5-.9,10.34-4.91,10.77-10.65.65-10-7.3-12.11-15.08-8a17.84,17.84,0,0,0-4.43,3.51l-.17-.11Z" transform="translate(0.02 -0.2)"/><path class="cls-1" d="M259.87,283.17c-8.31-8.15-6.44-22.16,5-26.25,13.45-4.75,27.14,7.74,21.7,21.53-4.54,11.18-18.59,13.16-26.72,4.72ZM260,283c9.31,9.17,25.76,1.78,25.89-11,.34-8-6.54-15.75-14.77-15.45-12.72.11-20.3,17.37-11.12,26.46Z" transform="translate(0.02 -0.2)"/><path class="cls-1" d="M259.92,260.75c8.38-9.1,22.78,0,18.87,11.46a10.91,10.91,0,0,1-15.46,6.06l.06-.18c5.5.93,11.38-1.3,13.65-6.58,3.85-9.22-3-13.82-11.66-12.48a18.28,18.28,0,0,0-5.33,1.88l-.13-.16Z" transform="translate(0.02 -0.2)"/><path class="cls-1" d="M217.2,307c-5.22-10.4,1.11-23,13.28-23.2,14.26-.12,23.15,16.13,13.53,27.41-7.93,9.1-21.86,6.41-26.81-4.21Zm.18-.09c5.83,11.7,23.79,10.05,28.06-2,2.91-7.44-1.07-17-8.95-19.41-12.07-4-24.84,9.84-19.11,21.41Z" transform="translate(0.02 -0.2)"/><path class="cls-1" d="M224.53,285.85c10.88-5.9,21.55,7.37,14.13,17a10.93,10.93,0,0,1-16.6.71l.13-.15c4.89,2.66,11.18,2.47,15-1.79,6.64-7.47,1.68-14-7-15.59a18.24,18.24,0,0,0-5.66.05l-.07-.19Z" transform="translate(0.02 -0.2)"/><path class="cls-1" d="M169.1,315.74c-1.56-11.53,8.53-21.43,20.09-17.63,13.53,4.52,16.66,22.78,3.9,30.32-10.45,6-22.75-1-24-12.69Zm.2,0c1.71,13,19.23,17.23,27.19,7.22,5.17-6.1,4.52-16.45-2.17-21.27-10.1-7.72-26.68,1.25-25,14.05Z" transform="translate(0.02 -0.2)"/><path class="cls-1" d="M182.91,298.09c12.21-2,18,14,7.86,20.63A10.92,10.92,0,0,1,174.84,314l.16-.11c3.77,4.11,9.78,6,14.82,3.19,8.7-4.91,6.14-12.73-1.54-17a18.08,18.08,0,0,0-5.37-1.8v-.2Z" transform="translate(0.02 -0.2)"/><path class="cls-1" d="M167,334.32C74.92,334.32,0,259.38,0,167.26S74.92.2,167,.2,334.1,75.14,334.1,167.26,259.16,334.32,167,334.32ZM167,2.2C76,2.2,2,76.24,2,167.26S76,332.32,167,332.32,332.1,258.27,332.1,167.26,258.05,2.2,167,2.2Z" transform="translate(0.02 -0.2)"/><path class="cls-1" d="M296.5,167.26c.15,92.73-93.34,156.67-179.27,120.25-47.55-19.74-80.42-68.72-80.32-120.25-.86-92.89,94.56-156.75,180.17-120.8,47.73,19.54,80.07,69.39,79.42,120.8Zm-.3,0C296.34,86.86,220.52,26.09,142.11,42c-59,11.15-103.64,65.21-103.56,125.29C37.88,248.64,112.61,308.87,192,292.8c59.11-11.35,104.72-65,104.18-125.54Z" transform="translate(0.02 -0.2)"/><path class="cls-1" d="M148.56,89a12.44,12.44,0,0,1-5.4-5,12.75,12.75,0,0,1-1.63-7.35l1.33.26q-2.72,10.5-5.58,21a38,38,0,0,1-4.48,10.09c-1.93,3.71-1.89,8.86,2.2,10.94,1.2.78,2.73,1.66,3,3.42.38,3.15-2.51,5.28-4.7,6.81l-.74.23a1.23,1.23,0,0,0,.8-.28c0,.06-.07.06-.13.13l-.21.23-.44.53c-4.46,5.81-8.35,12.07-12.28,18.26q-6.28,10-12.12,20.26l-2.9,5.14c-1.5,2.62-1.69,5.52,1.83,6.28a59.64,59.64,0,0,0,8.64,1.42l5.9.61a3.35,3.35,0,0,1,2.46,1.23c2.72,3.94-.9,11.49-2.76,15.29l-.09.17,0,.08,0,0a.77.77,0,0,0,.06-.14c-.28.88-.87,1.76-1.07,2.62-.1.7.21,1,.66,1.61a7,7,0,0,1,1.49,3,6.08,6.08,0,0,1-.44,3.46c-.56,1.57-2.13,3.21-2.38,4.54a.15.15,0,0,0,0,.12s0,.06,0,.09l0,.1a3.87,3.87,0,0,1,1,.67c1.71,1.42,2.36,3.8,2.68,5.87,1.55,9.64-1.82,20.92-10.65,26.06a13.68,13.68,0,0,1-6,1.73,24.23,24.23,0,0,0-5.24.43c-5,1.37-8,6.19-9.06,11.18a35.92,35.92,0,0,0-.56,10.73l-.45-.85a110.25,110.25,0,0,0,27.59,17c3.33,1.44,6.75,2.69,10.21,3.83a.15.15,0,0,1,.1.19c-14.21-2.93-28-10-39.5-19.09l-.39-.31-.06-.54c-.61-5.71-.45-11.89,2.15-17.22a15.14,15.14,0,0,1,9.14-8c3.86-1,7.2.1,10.53-1.93,6.74-3.93,10-12.56,9.6-20.16-.15-2.23-.33-5.52-1.9-6.87a5.67,5.67,0,0,0-.72-.49c-2.22-1.56-1-4.47.16-5.93,4.3-5.88-.9-5.09-.31-9.72l0,.24c.39-1.08.82-2.16,1.28-3.21,1.47-2.68,6.09-11,3.36-14a2.74,2.74,0,0,0-1.08-.34c-4.63-.69-10.13-1.27-14.61-2.55-4-1-4.22-4.59-2.34-7.72l2.91-5.15c4.11-7.15,13.29-24.08,17.5-30.89a82,82,0,0,1,6.48-9.71l.17-.18.1-.09s-.06,0,.22-.18a1.63,1.63,0,0,1,.71-.22l-.73.23c1.34-1,4.81-3.53,3-4.93-1.45-1.05-3.25-2-4.39-3.65a8.7,8.7,0,0,1-1.47-4,14.2,14.2,0,0,1,.72-5.9c.58-1.79,1.89-3.36,2.7-4.92,2.21-4,3.29-8.81,4.78-13.36s2.87-9.18,4.33-13.76l1.33.25a11.66,11.66,0,0,0,1.05,6.79,12.66,12.66,0,0,0,4.77,5.16c.16.09,0,.35-.14.26Z" transform="translate(0.02 -0.2)"/><path class="cls-1" d="M140.61,40.65C136,43,130,45.74,129,51.27c-.13,2.69.41,5.86-.94,8.46a12.56,12.56,0,0,1-2.58,3.53,2.54,2.54,0,0,0,0,2.91c2,3.06,5.89,5.41,9.46,6.51,2.71.88,6.64.4,8.43,3.25,1.85,2.37.27,5.79,1.76,8.11a7.13,7.13,0,0,0,9,3l2-.69c3.94-1.6,7.85-.13,8.28,4.57A4,4,0,0,0,167,94.28c3.1,1.26,7.63.44,10.94-.67,1.25-.48,2.83-1.41,4.29-1.49,7.66-.93,15.71,4.54,19,11.13.68,1.34,1.22,2.64,1.8,3.85a23.37,23.37,0,0,0,7.2,9c1.71,1.47,4,2.71,5,5.15.93,2-.19,4.72-1.73,5.86-1.29,1.16-3,2.17-3.27,3.73a5.57,5.57,0,0,0,.39,3.06,44.81,44.81,0,0,0,3.52,7.21,4.42,4.42,0,0,1,.29,4.78c-1.07,1.81-3.22,2.1-4.46,3.37-1.74,1.73-1.93,5.43-.63,7.78a14.93,14.93,0,0,1,1.71,3.11,4.05,4.05,0,0,1-2,4.27,23,23,0,0,1-3.93,2.26c-1.42.56-2.13.67-3.09,1.69-1.42,1.55-2.44,4.37-1.87,6.41a11.28,11.28,0,0,1-6,15.46,15.53,15.53,0,0,1-4.36.89,97.45,97.45,0,0,0-12.24,2.32,21.8,21.8,0,0,0-13,9.55c4.52-8.58,12-10.81,20.86-12.75,2.5-.69,5.66-.82,7.92-1.78,3.1-1.81,5.69-5.57,5.53-9.25-.06-1.43-.66-2.2-1.17-3.65-1.37-4.75,1.55-10.33,6.28-11.65a17,17,0,0,0,3.81-2.5.52.52,0,0,0,.16-.48c-.33-.73-1-1.37-1.47-2.28a10.89,10.89,0,0,1-1.23-7.19,8.93,8.93,0,0,1,2.2-4.64c1.22-1.34,3-2,3.66-2.52s.2-.77-.1-1.35c-1.86-3.13-3.81-6.44-4.59-10.15a7.73,7.73,0,0,1,2.92-7.26c1.35-1.25,3.51-2.17,1.5-3.87s-4.53-3.46-6.4-5.47a26.13,26.13,0,0,1-5.06-7.42c-1.14-2.47-2-4.86-3.74-6.87-3.15-3.48-8.2-6.59-12.94-6-1.34.1-2.19.84-3.56,1.29-4.45,1.36-9.18,2.19-13.67.39A7.8,7.8,0,0,1,161.66,94c-.84-1.71-.79-3.5-1.1-4.1a1.53,1.53,0,0,0-1.71-.75c-2.45.43-5.53,2-8.44,1.68-4.95-.49-9.35-5.07-8.89-10.14.28-2.54-.35-4.31-3.09-4.68a22.56,22.56,0,0,1-8.25-2.87c-3.41-2.13-9.36-6.59-6-11a9.59,9.59,0,0,0,3.58-6.79c.13-1.32,0-2.74.21-4.23,1.33-5.87,7.67-8.44,12.68-10.46Z" transform="translate(0.02 -0.2)"/><path class="cls-1" d="M148.17,134.45c.66-3.07,2.68-6.28,5.82-7.58,1.92-.68,3.79-.47,5.73-.89,3.62-.3,7.66-2.2,11.35-.79a9.2,9.2,0,0,1,3.24,2.08,10.35,10.35,0,0,0-7-1A67.07,67.07,0,0,1,160,128c-1.75.34-3.74.18-5.42.55-2.84,1-4.78,3.29-6.42,5.94Z" transform="translate(0.02 -0.2)"/><path class="cls-1" d="M153.82,127.88a42.86,42.86,0,0,0-.41,7.35,6.33,6.33,0,0,0,1.68,4.39,1,1,0,0,0,.91.25c2.29-.58,2-3.2,2.05-5.22a52.77,52.77,0,0,1,.59-7.51c.46,2.5.69,5,1,7.44.42,2.95.31,6.35-3.22,7.25a3.3,3.3,0,0,1-3.34-1.59c-2.39-3.82-.85-8.65.77-12.36Z" transform="translate(0.02 -0.2)"/><path class="cls-2" d="M143,115.8c-.11,4.67,1.6,7.11,6.45,5.28,3.57-1.28,7-3,10.46-4.57,7.06-3.15,14-6.37,21.51-8.52,4.9-1.48,11.52-1.56,13.86,4-3-4.78-8.76-4.16-13.42-2.49s-9.47,3.74-14.13,5.73-9.36,4.1-14.2,5.91c-5.72,2.33-12,3.1-10.53-5.33Z" transform="translate(0.02 -0.2)"/><path class="cls-1" d="M247.86,232.25c.17,9.17-8.6,16.14-17.33,11.88-10.06-4.92-10.94-19.51-.18-24.21,8.87-3.78,17.69,3,17.51,12.33Zm-.2,0c0-10-13.33-14.88-20.24-8-7.62,7.35-2.86,20.1,8,19.52,6.07-.17,12.29-5,12.2-11.48Z" transform="translate(0.02 -0.2)"/><path class="cls-1" d="M235.44,244.66a8.56,8.56,0,0,1-8.23-4.3c-2.15-4.45-.63-10.54,4-12.67a8.5,8.5,0,0,1,12,5.35l-.18.09c-2.9-3.56-6.92-5.2-11.08-3.7-7.37,3-5.86,8.87-.42,13a15.71,15.71,0,0,0,3.91,2l0,.2Z" transform="translate(0.02 -0.2)"/><path class="cls-1" d="M121.8,195c.31-1.4.66-2.79,1-4.16l.21-.14c9.46-6.25,18.52-1.59,23.48,7.74a30.33,30.33,0,0,0,9.21,12.33c-5.07-1.83-9.16-6.14-11.56-10.95-5.09-7.91-11.13-11.87-20.61-8.15l.25-.28c-.64,1.22-1.31,2.42-2,3.61Z" transform="translate(0.02 -0.2)"/></svg>