<svg id="Layer_1" data-name="Layer 1" xmlns="http://www.w3.org/2000/svg" viewBox="0 0 334.13 334.12"><defs><style>.cls-1{fill:#1d1d1b;}</style></defs><path class="cls-1" d="M167,334.32C74.92,334.32,0,259.38,0,167.26S74.92.2,167,.2,334.1,75.14,334.1,167.26,259.16,334.32,167,334.32ZM167,2.2C76,2.2,2,76.24,2,167.26S76,332.32,167,332.32,332.1,258.27,332.1,167.26,258.05,2.2,167,2.2Z" transform="translate(0.02 -0.2)"/><path class="cls-1" d="M296.5,167.26c.15,92.73-93.34,156.67-179.27,120.25-47.55-19.74-80.42-68.72-80.32-120.25-.86-92.89,94.56-156.75,180.17-120.8,47.73,19.54,80.07,69.39,79.42,120.8Zm-.3,0C296.34,86.86,220.52,26.09,142.11,42c-59,11.15-103.64,65.21-103.56,125.29C37.88,248.64,112.62,308.87,192,292.8c59.11-11.35,104.72-65,104.18-125.54Z" transform="translate(0.02 -0.2)"/><path class="cls-1" d="M154.34,38.71a19.57,19.57,0,0,0-10.53,3.17c-2.84,1.92-5.52,4.61-5.62,8.1-.07,1.82.83,3.47,1.21,5.35.82,3.42-1.36,6.26-4.3,7.6a29.15,29.15,0,0,0-13.45,13.81c-2.73,6.86.11,14.46,4.58,20a26.13,26.13,0,0,0,8.81,6.93.16.16,0,0,1,.07.2.14.14,0,0,1-.17.08,21.1,21.1,0,0,1-10.44-5.61c-5.93-5.58-9.26-15-5.45-22.73,2.66-5.52,7.75-9.38,13-12.15,3.27-1.57,7.37-3.43,5.73-7.69-.73-1.79-2-3.57-2.12-5.7-.31-4.62,3.18-8.13,6.9-10.17a15.9,15.9,0,0,1,11.78-1.48.15.15,0,0,1,0,.29Z" transform="translate(0.02 -0.2)"/><path class="cls-1" d="M126.94,98.92c1,7.11-1.63,15.15-7.62,19.5-3,2.25-6.17,3.7-8.93,5.54a36.83,36.83,0,0,0-15.82,24.69c-1.07,5.22.49,10.19,1.76,15.24A23.78,23.78,0,0,1,96,174.76c-1.23,5.44-6,9.57-9.72,13-10.15,9.25-15.74,22-19.69,34.93a121.47,121.47,0,0,0-4.17,20.27.2.2,0,0,1-.22.18.21.21,0,0,1-.18-.19c-.13-1.75-.17-3.5-.16-5.26a78.84,78.84,0,0,1,1.67-15.76c2.78-13.86,9-27.86,20.23-37,3.3-2.93,6.61-5.22,8.62-8.87,3-5.18,2.83-11.34,1.38-17-1.58-7-.21-14.24,1.82-21A30.64,30.64,0,0,1,108.48,121c3-1.88,6.19-3.22,9-5.08,5.68-3.64,8.43-10.31,9-17,0-.22.38-.24.4,0Z" transform="translate(0.02 -0.2)"/><path class="cls-1" d="M162.2,82.41c-11.64,7.08-19.41,19.41-22.32,32.56-.82,4.28-.44,8.82,2.18,12.39,3.86,5,2,8.66-.7,13.61a36.59,36.59,0,0,0-2.93,5.93,59.56,59.56,0,0,1-2.14,6.55,102.92,102.92,0,0,1-14,22.79c-.11.11-.33.4-.43.51l0,0v0a1.13,1.13,0,0,0,.26-.84l-.36.95c-.78.92-2,2.08-1.76,3.13s2,1.84,3.16,2.37a78.58,78.58,0,0,0,9.73,3.18c2.58.56,4.88,1.83,4.35,4.89s-2.44,5-4.09,7.45c-.74,1.07-1.92,2.22-1.73,3.37a21,21,0,0,0,2.44,3.94,8.58,8.58,0,0,1,1.76,2.58,4,4,0,0,1-.87,3.73c-1.22,1.57-.51,4,.79,5.26a21.8,21.8,0,0,1,3.6,4.2c1.92,2.62,2,6,2.87,9a12.92,12.92,0,0,1,.54,7.12c-1.62,5.84,3.49,10.43,8.31,13,8.36,4.67,18.42,3,27.34.83a117.52,117.52,0,0,0,19.8-6.39,122,122,0,0,0,18.38-9.91,110.18,110.18,0,0,1-48.13,20.08c-9,1.39-18.68-.63-25.17-7.37a12.17,12.17,0,0,1-3.47-7.88c0-1.86.61-3.44.53-5.17-.12-2.49-1.41-5-1.69-7.42a12.14,12.14,0,0,0-3.17-6.25c-1.19-1.34-2.94-2.61-3.52-4.47a6.51,6.51,0,0,1,.65-6.37c.43-.61.51-.58.42-1.09a46.65,46.65,0,0,1-3.57-5.11c-1.87-2.76-.19-5.37,1.49-7.46a44,44,0,0,0,2.77-4.19,4.34,4.34,0,0,0,.77-2.57c0-.15,0-.12-.18-.23-4.31-2-18.13-3.55-17-10.26a9.15,9.15,0,0,1,2.46-3.9l-.36,1a2.78,2.78,0,0,1,.89-1.57,100.48,100.48,0,0,0,13.86-21.95,67,67,0,0,0,2.2-6.36,38.74,38.74,0,0,1,3.24-6.22c1.37-2.69,3.68-5.53,2.55-8.64-.74-2-2.43-3.89-3.15-6a18.93,18.93,0,0,1-.48-10.57,47.19,47.19,0,0,1,5.07-12.84A45.87,45.87,0,0,1,162.2,82.41Z" transform="translate(0.02 -0.2)"/><path class="cls-1" d="M157.92,150.9c1.12-6.33,6.69-11.5,12.92-12.81a17.75,17.75,0,0,1,9.59,0,11.06,11.06,0,0,0,8.37-.67,7.92,7.92,0,0,1-4,2.62,12,12,0,0,1-5.49.25,14.91,14.91,0,0,0-1.5-.11c-8.27.05-15.43,3.57-19.94,10.7Z" transform="translate(0.02 -0.2)"/><path class="cls-1" d="M172.05,139.36A46.73,46.73,0,0,1,173.72,154c0,3.49-1.76,7-5.77,6-5.89-1.4-5.66-12.09-4.55-16.67.54,3.13,1.89,13.32,5.24,13.79,2,.54,2-1.87,2.25-3.33.54-4.78.71-9.56,1.16-14.41Z" transform="translate(0.02 -0.2)"/><path class="cls-1" d="M151.63,127.48c3.13,4.33,7,3.62,11.24,1.38,4-1.92,7.75-4.21,11.65-6.49s8.49-4.53,13.18-4.52a29,29,0,0,1,13.37,3.08,44.07,44.07,0,0,0-13.19-.74c-6.67.75-11.9,5.17-17.82,8.05-5.67,2.77-15.21,7.71-18.43-.76Z" transform="translate(0.02 -0.2)"/><path class="cls-1" d="M193.54,79.2c12.46-.14,27.07,4.16,32.74,16.3,4.59,10.54,3.44,23.18-2.32,33-2.38,3.83-4.51,7.37-1.41,11.44,1.91,2.53,5,4.36,6.09,7.75,1.46,4-.91,6.89-2.9,9.85a44.65,44.65,0,0,0-4,8.22c-4,10-3.47,27.86,10.23,28.89l-.82,1.7c-3-3.59-6-8.45-4.9-13.44.75-3.27,3.17-5.49,4.72-8.29a39.15,39.15,0,0,0,4.77-13,36.75,36.75,0,0,1-4,13.48c-1.29,2.72-3.59,5.17-4.09,8.12-.71,4.52,2.05,8.55,5,11.81l1.61,1.76c-4.22.11-8.56-.68-11.74-3.8-4.9-4.86-6.07-12.05-5.65-18.61A42.47,42.47,0,0,1,223.24,156c.83-1.38,1.88-2.74,2.44-3.87,1.13-2.54-.24-4.9-2.15-6.81-4.06-3.58-7.19-8.55-4.43-14,1.45-3,3.3-5.32,4.55-8.27a37.8,37.8,0,0,0,2.86-17.87c-1.1-17.64-17.19-24.93-33-26Z" transform="translate(0.02 -0.2)"/><path class="cls-1" d="M244.69,148.42c4.34-5.13,12.09-5,15.09,1.49,2.41,5.62.33,12.74-4.37,16.5a21.92,21.92,0,0,0-6.69,8.79,18.21,18.21,0,0,1,5.65-10c3.79-3.57,5.56-9.66,3.68-14.57-2.38-5.77-8.88-5.74-13.36-2.25Z" transform="translate(0.02 -0.2)"/><path class="cls-1" d="M232.06,189.88c4.42,5.41,12.42,3.77,11.92-3.83a5.5,5.5,0,0,1,.47,5.08c-2.48,6-11,4.69-12.39-1.25Z" transform="translate(0.02 -0.2)"/><path class="cls-1" d="M236.56,182.73c-2.14.73-1.94,2.9-1.31,4.65a4.35,4.35,0,0,0,1.39,2.49c1.76,1.22,3.65-.65,4.13-2.25.86-2.52-1.39-5.7-4.21-4.89Zm-.06-.19c2.36-.88,5.23-.88,6.28,2a4.88,4.88,0,0,1-3,6.21c-2.41.74-4.75-.72-6-2.67-1.62-2.64.24-4.84,2.76-5.54Z" transform="translate(0.02 -0.2)"/><path class="cls-1" d="M42.35,248.92c9,1.25,18.68,2.56,27.59,4.34.35,9.36.72,18.73,1.74,28.05l0,.52c-2.45-.4-4.9-.76-7.35-1.18-6.76-1.14-14.26-2.46-21-3.74-.54-8.25-.79-19.64-1-28Zm.1.11c.81,8,1.95,19.31,2.49,27.16l-.64-.73c3.91.73,9.58,1.84,13.54,2.64,4.51.89,9,1.85,13.51,2.84l-.48.43c-.12-2.3-.19-4.61-.33-6.91-.35-6.9-1.15-13.76-1.82-20.64l.51.57c-8.66-1.39-18.16-3.5-26.78-5.36Z" transform="translate(0.02 -0.2)"/><path class="cls-1" d="M72,282.12l-.32-.05-2.78-.44c-1.52-.24-3-.47-4.57-.74-5.4-.91-13.43-2.29-21-3.74l-.19,0v-.2c-.45-6.87-.7-15.75-.91-23.59,0-1.53-.09-3-.13-4.41v-.29l2,.27c8.62,1.2,17.54,2.45,25.9,4.11l.19,0v.2c.32,8.54.68,18.2,1.69,27.55h0c0,.16,0,.32.05.48Zm-.89-.65.33.06,0-.2s0-.08,0-.12ZM43.63,276.7c7.5,1.43,15.44,2.8,20.79,3.7,1.52.26,3,.5,4.57.74l1.63.25h0c0-.12,0-.24,0-.35-4.7-1-8.89-1.91-12.81-2.68-3.7-.76-8.83-1.76-12.62-2.47,0,.1,0,.2,0,.29l.05.74-1.61-1.83.71.14.29,0c-.43-5.86-1.14-13.38-1.87-20.67C43,262,43.21,270.23,43.63,276.7Zm27.45,3.92.28.06q-.33-3.12-.57-6.26v0c.09,1.51.15,3,.22,4.53C71,279.53,71.06,280.08,71.08,280.62Zm-25.95-5.25c3.8.71,9,1.73,12.76,2.49s8,1.63,12.69,2.65c0-.5,0-1-.07-1.5-.07-1.51-.13-3-.22-4.53-.27-5.31-.82-10.69-1.35-15.88-.13-1.36-.27-2.72-.4-4.07-7.51-1.23-15.48-2.95-23.19-4.62l-2.62-.57C43.63,258.18,44.61,268.07,45.13,275.37Zm23.92-20.76.39,3.94c.32,3.14.65,6.36.92,9.58-.27-4.61-.46-9.13-.62-13.41l-.55-.09Zm-.52-1.37,1.21,1.34c0-.38,0-.75,0-1.11ZM47.8,249.93c6.93,1.49,14,3,20.69,4.08,0,0,0-.11,0-.17l-.06-.63C61.73,251.93,54.71,250.9,47.8,249.93Z" transform="translate(0.02 -0.2)"/><path class="cls-1" d="M52.22,259.94c5.05-4.59,12.36-1.36,11.76,5.6-.24,3.83-3.52,7.4-7.55,7.17-7-.33-9.39-8.35-4.21-12.77Zm.1.11c-4,3.62-1,10.94,4.19,11.26,5.84.48,9.41-6.08,5-10.35-2.33-2.35-6.52-3.35-9.22-.91Z" transform="translate(0.02 -0.2)"/><path class="cls-1" d="M56.81,273h-.4a7.35,7.35,0,0,1-6.83-4.9,7.59,7.59,0,0,1,2.48-8.31,7.47,7.47,0,0,1,8.42-1.49,7.06,7.06,0,0,1,3.74,7.3C64,269.22,61,273,56.81,273Zm-6.32-10.5a6.77,6.77,0,0,0,5.95,10,7.06,7.06,0,0,0,6.92-5.06c0,.13-.11.26-.16.38a6.66,6.66,0,0,1-6.72,3.78,6.84,6.84,0,0,1-5.85-4.79A6.91,6.91,0,0,1,50.49,262.47Zm5.62-3.59a5.28,5.28,0,0,0-3.62,1.36h0a5.82,5.82,0,0,0-1.39,6.36,6.36,6.36,0,0,0,5.42,4.46,6.11,6.11,0,0,0,6.22-3.48,5.53,5.53,0,0,0-1.38-6.44A7.62,7.62,0,0,0,56.11,258.88Zm0-.49a8.11,8.11,0,0,1,5.61,2.4,6.32,6.32,0,0,1,2,4.64,6.59,6.59,0,0,0-3.47-6.73,6.52,6.52,0,0,0-5.16-.24A6.82,6.82,0,0,1,56.1,258.39Z" transform="translate(0.02 -0.2)"/><path class="cls-1" d="M21.94,201.35c8,4.25,16.68,8.8,24.44,13.51-2.87,8.92-5.73,17.85-8,27l-.13.5c-2.16-1.21-4.35-2.39-6.5-3.62-6-3.38-12.56-7.18-18.44-10.7,2.31-7.93,6-18.72,8.59-26.65Zm.06.13c-2,7.76-4.78,18.82-6.95,26.38l-.36-.9c3.43,2,8.38,5,11.83,7.11,3.93,2.38,7.84,4.82,11.72,7.28l-.6.24c.68-2.2,1.4-4.39,2-6.59,2-6.61,3.63-13.34,5.35-20l.29.71c-7.67-4.26-15.86-9.5-23.33-14.2Z" transform="translate(0.02 -0.2)"/><path class="cls-1" d="M38.45,242.7l-.28-.16-2.46-1.37q-2-1.11-4-2.25c-4.76-2.7-11.83-6.75-18.45-10.7l-.17-.1.06-.19c1.92-6.59,4.72-15,7.18-22.41.5-1.48,1-2.91,1.41-4.25l.1-.28,1.83,1c7.68,4.07,15.62,8.27,22.88,12.69l.17.1-.06.19C44,223.07,41,232.27,38.78,241.4h0c0,.15-.07.31-.11.47Zm-.61-.92.29.16,0-.18,0-.13Zm-24.2-13.89c6.57,3.92,13.56,7.92,18.28,10.59,1.33.77,2.68,1.51,4,2.25l1.45.8h0c0-.11.07-.22.1-.34-4-2.56-7.68-4.82-11.11-6.9-3.22-2-7.71-4.67-11-6.63,0,.09-.06.19-.08.28l-.21.71-.89-2.27.63.37.25.15c1.61-5.68,3.51-13,5.32-20.07C18,213.87,15.46,221.67,13.64,227.89ZM38.1,241l.24.15q.75-3.06,1.61-6.11l0,.06c-.43,1.44-.89,2.91-1.34,4.32C38.43,239.91,38.26,240.44,38.1,241ZM15.51,227.15c3.33,2,7.88,4.71,11.14,6.71s7,4.29,11,6.83c.15-.48.3-1,.46-1.45.45-1.44.9-2.87,1.33-4.32,1.56-5.08,2.89-10.31,4.17-15.38.34-1.32.67-2.64,1-4-6.64-3.73-13.55-8.08-20.24-12.29l-2.23-1.41C20,210.47,17.52,220.09,15.51,227.15Zm29.57-11.32c-.33,1.28-.65,2.55-1,3.83-.78,3.07-1.57,6.19-2.42,9.31,1.32-4.42,2.7-8.73,4-12.8l-.49-.27Zm0-1.47.67,1.67.34-1.06ZM26.73,204.17c6,3.77,12.12,7.59,18,10.91,0-.06,0-.12,0-.17l.16-.61C39.12,210.81,32.88,207.44,26.73,204.17Z" transform="translate(0.02 -0.2)"/><path class="cls-1" d="M27.45,215.08c6.32-2.58,12.08,2.95,9.13,9.29-1.54,3.51-5.84,5.75-9.55,4.15-6.41-2.69-6-11.06.42-13.44Zm.05.14c-5,2-4.7,9.93.08,12,5.33,2.45,10.93-2.49,8.27-8-1.38-3-5-5.38-8.35-4Z" transform="translate(0.02 -0.2)"/><path class="cls-1" d="M29.62,229.31a6.69,6.69,0,0,1-2.69-.56,7.33,7.33,0,0,1-4.74-6.94,7.58,7.58,0,0,1,5.17-7,7.49,7.49,0,0,1,8.43,1.47,7.09,7.09,0,0,1,1,8.15A8.13,8.13,0,0,1,29.62,229.31ZM25,216.87a6.77,6.77,0,0,0,2.17,11.42,7.06,7.06,0,0,0,8.23-2.39c-.09.11-.19.21-.28.31a6.65,6.65,0,0,1-7.6,1.25A7.23,7.23,0,0,1,25,216.87Zm4.58-1.8a5.15,5.15,0,0,0-1.94.38h0A5.82,5.82,0,0,0,24.12,221a6.33,6.33,0,0,0,3.56,6,6.14,6.14,0,0,0,7-1.14,5.53,5.53,0,0,0,.9-6.52A7.13,7.13,0,0,0,29.54,215.07Zm1.12-.39a8,8,0,0,1,5.42,4.44,6.36,6.36,0,0,1,.31,5,6.57,6.57,0,0,0-1-7.5A6.45,6.45,0,0,0,30.66,214.68Z" transform="translate(0.02 -0.2)"/><path class="cls-1" d="M19,149.66c6.09,6.75,12.67,14,18.35,21.06-5.75,7.4-11.49,14.81-16.7,22.61l-.29.43c-1.62-1.88-3.27-3.73-4.87-5.63-4.45-5.21-9.35-11-13.68-16.36,4.89-6.66,12-15.55,17.19-22.11Zm0,.15c-4.49,6.62-10.92,16.05-15.55,22.41l0-1C6,174.33,9.62,178.81,12.14,182c2.89,3.58,5.72,7.21,8.53,10.85l-.65,0c1.39-1.83,2.81-3.65,4.18-5.5,4.17-5.51,8-11.29,11.88-17l0,.76C30.36,164.5,24.45,156.78,19,149.81Z" transform="translate(0.02 -0.2)"/><path class="cls-1" d="M20.41,194.17l-.21-.25-1.83-2.1c-1-1.17-2-2.34-3.05-3.53-3.54-4.16-8.8-10.37-13.67-16.36l-.13-.15.12-.15c4.08-5.57,9.6-12.54,14.48-18.69l2.72-3.43.18-.23,1.37,1.51c5.83,6.46,11.86,13.13,17.18,19.78l.12.15-.12.16c-5.24,6.74-11.17,14.37-16.41,22.18h0l-.27.4Zm-.26-1.07.21.25.12-.16.06-.1Zm-18-21.33c4.84,5.93,10,12.08,13.55,16.2,1,1.18,2,2.35,3,3.52.36.41.72.81,1.07,1.22h0l.21-.28c-2.94-3.81-5.59-7.18-8.08-10.28s-5.67-7.06-8.09-10l-.17.24-.43.6-.07-2.44.46.56a2,2,0,0,0,.19.22c3.45-4.77,7.73-11,11.86-17C11.08,160.1,6,166.54,2.16,171.77Zm18.5,20.65.18.23q1.76-2.61,3.6-5.19l0,0c-.89,1.22-1.83,2.43-2.73,3.61C21.33,191.54,21,192,20.66,192.42ZM4.16,171.71c2.43,3,5.77,7.09,8.18,10.11s5.1,6.42,8,10.19l.92-1.21c.91-1.17,1.84-2.39,2.73-3.6,3.22-4.24,6.26-8.72,9.2-13l2.29-3.36c-5-5.76-10-12.21-14.81-18.45l-1.63-2.1C14.07,157.58,8.46,165.77,4.16,171.71Zm31.66-.52-2.2,3.24c-1.79,2.62-3.61,5.3-5.48,7.95,2.76-3.71,5.52-7.29,8.15-10.66l-.37-.42A.52.52,0,0,0,35.82,171.19Zm.49-1.39.07,1.8.68-.87ZM22.56,154c4.35,5.59,8.8,11.28,13.22,16.42a.71.71,0,0,1,.1-.14l.35-.52C31.94,164.43,27.23,159.13,22.56,154Z" transform="translate(0.02 -0.2)"/><path class="cls-1" d="M19.51,164.46c6.82-.27,10.34,6.89,5.4,11.84-2.64,2.78-7.44,3.41-10.39.64-5.1-4.72-1.82-12.43,5-12.48Zm0,.14c-5.4.19-7.82,7.72-4,11.32,4.17,4.12,11.12,1.39,10.51-4.7-.27-3.29-2.84-6.75-6.47-6.62Z" transform="translate(0.02 -0.2)"/><path class="cls-1" d="M19.16,179a6.89,6.89,0,0,1-4.81-1.87A7.35,7.35,0,0,1,12.26,169a7.58,7.58,0,0,1,7.25-4.77,7.49,7.49,0,0,1,7.41,4.26,7.09,7.09,0,0,1-1.83,8A8.34,8.34,0,0,1,19.16,179Zm-2.6-13.71a6.78,6.78,0,0,0-1.87,11.48,7.07,7.07,0,0,0,8.56.56l-.38.2a6.62,6.62,0,0,1-7.56-1.42,7.22,7.22,0,0,1,1.25-10.82Zm3.17-.43h-.21a5.82,5.82,0,0,0-5.15,4,6.36,6.36,0,0,0,1.28,6.9,6.17,6.17,0,0,0,7,1.33,5.55,5.55,0,0,0,3.08-5.82C25.49,168.13,23.13,164.85,19.73,164.85Zm2.94.33a7.93,7.93,0,0,1,3.57,6,6.33,6.33,0,0,1-1.44,4.86,6.59,6.59,0,0,0,1.66-7.39A6.46,6.46,0,0,0,22.67,165.18Z" transform="translate(0.02 -0.2)"/><path class="cls-1" d="M34,100.1c3.41,8.43,7.12,17.47,10,26.07-7.93,5-15.86,10-23.42,15.53l-.42.3c-.88-2.32-1.8-4.62-2.66-6.95-2.39-6.42-5-13.57-7.25-20.05,6.87-4.59,16.6-10.5,23.72-14.9Zm0,.15c-6.48,4.68-15.75,11.34-22.28,15.74l.31-.93c1.33,3.76,3.2,9.22,4.49,13.05q2.22,6.54,4.3,13.12l-.62-.2c1.94-1.25,3.9-2.47,5.82-3.74,5.8-3.75,11.34-7.88,17-11.9l-.24.73c-3.13-8.2-6-17.48-8.75-25.87Z" transform="translate(0.02 -0.2)"/><path class="cls-1" d="M20.05,142.39l-.12-.3c-.32-.86-.66-1.72-1-2.58-.56-1.45-1.12-2.91-1.66-4.37C15.37,130,12.57,122.4,10,115.08L10,114.9l.16-.11c5.72-3.82,13.28-8.47,20-12.57l3.78-2.33.25-.15.77,1.9c3.27,8.06,6.65,16.39,9.38,24.45l.06.18-.17.11c-7.22,4.54-15.39,9.68-23,15.24h0l-.39.28Zm.12-1.09.12.31.15-.11.11-.07Zm.72-.46a2.76,2.76,0,0,0,.08.27c1.69-1.23,3.41-2.44,5.14-3.63l0,0c-1.25.83-2.52,1.63-3.78,2.44ZM10.56,115.1c2.52,7.26,5.3,14.8,7.19,19.86.54,1.47,1.1,2.92,1.66,4.37l.57,1.49h0l.29-.19c-1.46-4.6-2.8-8.68-4.08-12.43C15,124.62,13.32,119.67,12,116l-.25.16-.61.41.77-2.3.25.68.09.27c4.86-3.29,11-7.67,17-12C22.93,107.2,16,111.51,10.56,115.1Zm1.9.64c1.29,3.66,3,8.68,4.23,12.29s2.59,7.76,4,12.32l1.3-.83c1.26-.81,2.53-1.61,3.78-2.44,4.46-2.89,8.85-6.05,13.09-9.11l3.31-2.38c-2.69-7.12-5.19-14.9-7.6-22.42l-.81-2.52C26.59,105.85,18.51,111.64,12.46,115.74ZM42.4,126.07l-3.21,2.31c-2.56,1.85-5.18,3.73-7.83,5.57,3.85-2.53,7.67-4.95,11.29-7.22l-.2-.52A.78.78,0,0,1,42.4,126.07Zm.93-1.13-.56,1.71.94-.59C43.58,125.69,43.46,125.31,43.33,124.94Zm-7.5-19.61c2.16,6.74,4.4,13.61,6.8,20l.14-.1.52-.37C41.06,118.39,38.44,111.8,35.83,105.33Z" transform="translate(0.02 -0.2)"/><path class="cls-1" d="M29.37,114.17c6.5,2.08,7.36,10,1,13-3.43,1.7-8.16.65-10-3-3.18-6.18,2.54-12.31,9-10Zm-.05.14c-5.14-1.67-10,4.58-7.66,9.25,2.5,5.3,10,5.11,11.48-.82.87-3.19-.36-7.32-3.82-8.43Z" transform="translate(0.02 -0.2)"/><path class="cls-1" d="M26.88,128.2A7.48,7.48,0,0,1,21,115.94a7.61,7.61,0,0,1,8.44-2,7.48,7.48,0,0,1,5.5,6.55,7.07,7.07,0,0,1-4.45,6.89A8.09,8.09,0,0,1,26.88,128.2Zm-.56-14.27a6.78,6.78,0,0,0-5.69,10.15,7.07,7.07,0,0,0,7.84,3.46l-.41,0a6.63,6.63,0,0,1-6.63-3.92,6.87,6.87,0,0,1,1.23-7.47A7,7,0,0,1,26.32,113.93Zm1.3.36A6.1,6.1,0,0,0,23,116.53a6.35,6.35,0,0,0-1.16,6.92A6.13,6.13,0,0,0,28,127.09a5.54,5.54,0,0,0,4.89-4.41c.84-3.08-.32-7.06-3.66-8.13h0A5,5,0,0,0,27.62,114.29Zm4.47,1.63a8,8,0,0,1,1.29,6.89,6.31,6.31,0,0,1-3,4.07,6.4,6.4,0,0,0,1.72-11Z" transform="translate(0.02 -0.2)"/><path class="cls-1" d="M65,58.64c.33,9.09.72,18.85.51,27.93-9.16,2-18.32,4-27.32,6.58l-.5.14c0-2.48-.1-5-.11-7.44-.06-6.85-.06-14.47,0-21.32,8-2,19.19-4.19,27.38-5.89Zm-.09.12c-7.7,2.18-18.69,5.28-26.32,7.17l.6-.76c0,4-.14,9.76-.24,13.8-.09,4.6-.25,9.2-.45,13.79l-.51-.4c2.25-.51,4.51-1,6.74-1.52,6.74-1.54,13.37-3.53,20-5.38l-.47.61c-.14-8.78.3-18.49.63-27.31Z" transform="translate(0.02 -0.2)"/><path class="cls-1" d="M37.42,93.62V93.3c0-.93,0-1.85,0-2.77,0-1.56-.06-3.12-.06-4.68,0-5.45-.07-13.58,0-21.32v-.2l.19,0c6.69-1.64,15.4-3.43,23.08-5l4.31-.89.29-.06.07,2c.32,8.69.65,17.68.45,26.18v.2l-.19,0c-8.35,1.8-17.8,3.83-26.84,6.45h0l-.47.13Zm.48-1c0,.11,0,.22,0,.34l.19-.06.12,0Zm.84-.19,0,.29c2-.58,4-1.13,6.06-1.65h0c-1.45.35-2.91.68-4.37,1Zm-.91-27.71c-.1,7.68-.07,15.71,0,21.12,0,1.56,0,3.12.06,4.67l0,1.6h0l.34-.08c.2-4.82.34-9.11.42-13.08.1-3.8.19-9,.23-12.86l-.28.07-.71.18,1.51-1.9v1C45.1,64,52.39,62,59.45,60,52.17,61.53,44.13,63.19,37.83,64.73ZM39.41,66c0,3.84-.14,9.15-.24,13s-.22,8.18-.41,13l1.52-.34c1.46-.32,2.91-.64,4.37-1,5.18-1.19,10.39-2.66,15.42-4.09L64,85.41c-.1-7.61.22-15.76.52-23.65l.11-2.66C56.06,61.52,46.48,64.2,39.41,66ZM64,85.92,60.21,87c-3.05.86-6.15,1.74-9.28,2.57,4.48-1.07,8.91-2,13.08-2.93v-.71Zm1.26-.74L64.15,86.6l1.09-.24C65.25,86,65.26,85.57,65.26,85.18Zm-.34-21c-.27,7.07-.51,14.29-.43,21.07l.16,0,.61-.17C65.37,78.25,65.17,71.17,64.92,64.2Z" transform="translate(0.02 -0.2)"/><path class="cls-1" d="M55.83,70.28c5.4,4.18,3.49,11.93-3.48,12.55-3.81.43-7.89-2.18-8.37-6.19-.87-6.9,6.59-10.7,11.85-6.36Zm-.09.12c-4.26-3.33-11,.88-10.37,6.07.54,5.84,7.63,8.22,11.07,3.16,1.91-2.7,2.16-7-.7-9.23Z" transform="translate(0.02 -0.2)"/><path class="cls-1" d="M51.53,83.12c-3.54,0-7.32-2.42-7.8-6.45a7.35,7.35,0,0,1,3.64-7.58,7.57,7.57,0,0,1,8.61,1,7.45,7.45,0,0,1,2.94,8,7.07,7.07,0,0,1-6.55,5A7.63,7.63,0,0,1,51.53,83.12Zm6.25-10.26a7.91,7.91,0,0,1-1.14,6.91,6.32,6.32,0,0,1-4.22,2.8,6.59,6.59,0,0,0,6-4.59A6.49,6.49,0,0,0,57.78,72.86Zm-6.89-4.18a6.74,6.74,0,0,0-3.28.85,6.86,6.86,0,0,0-3.38,7.08,7.05,7.05,0,0,0,6.18,5.93l-.4-.09a6.63,6.63,0,0,1-4.89-6,6.85,6.85,0,0,1,3.71-6.6A6.92,6.92,0,0,1,53,69,7,7,0,0,0,50.89,68.68Zm1.37.79a6.55,6.55,0,0,0-3.19.87,6.35,6.35,0,0,0-3.45,6.11A6.14,6.14,0,0,0,50.13,82a5.54,5.54,0,0,0,6.1-2.48c1.85-2.6,2.12-6.74-.65-8.89h0A5.33,5.33,0,0,0,52.26,69.47Z" transform="translate(0.02 -0.2)"/><path class="cls-1" d="M108.27,30.29c-2.79,8.64-5.77,18-9.06,26.41-9.29-1.28-18.57-2.54-27.93-3.15l-.52,0c.82-2.34,1.6-4.69,2.44-7,2.29-6.46,4.89-13.61,7.33-20,8.21.9,19.47,2.63,27.74,3.84Zm-.12.07c-8-.58-19.36-1.43-27.19-2.26l.83-.51c-1.39,3.73-3.47,9.12-5,12.88q-2.49,6.44-5.14,12.81l-.34-.55c2.29.29,4.57.62,6.86.88,6.86.85,13.76,1.25,20.65,1.79l-.65.41c2.87-8.29,6.6-17.27,9.93-25.45Z" transform="translate(0.02 -0.2)"/><path class="cls-1" d="M99.37,57l-.2,0c-8.45-1.17-18-2.49-27.42-3.12h0l-.49,0-.84-.06.11-.31.91-2.64c.5-1.47,1-2.93,1.52-4.39,1.83-5.14,4.58-12.79,7.33-20l.07-.18.2,0c6.85.75,15.65,2.05,23.41,3.2l4.34.64.29,0-.64,2c-2.67,8.26-5.43,16.81-8.52,24.73ZM98,56.27l1.1.15.42-1.1ZM84.52,54.53c4.58.54,9.06,1.14,13.28,1.72l.18-.52a1.21,1.21,0,0,0,0-.14l-4-.3C90.93,55.06,87.73,54.83,84.52,54.53Zm14.2.61h.17l.63.05c2.42-6.36,4.66-13.08,6.81-19.72C103.66,42,101,48.74,98.72,55.14ZM72.26,52.6l1.53.2c1.49.19,3,.39,4.46.56,5.27.66,10.65,1,15.86,1.43l4.09.31c2.51-7.18,5.6-14.74,8.58-22.05l1-2.46c-8.87-.65-18.78-1.41-26.05-2.16C80.4,32,78.49,37,77.07,40.56S74.08,48.17,72.26,52.6Zm-.31.74c2.09.14,4.18.32,6.27.52h0c-1.49-.17-3-.37-4.46-.57l-1.67-.22Zm-.85-.06.2,0h.12L71.21,53C71.18,53.07,71.14,53.18,71.1,53.28Zm.28-.8h0l.34.05c1.84-4.47,3.44-8.45,4.87-12.15s3.28-8.43,4.62-12l-.29,0-.73-.08L82.28,27l-.25.68-.11.27c5.85.6,13.38,1.2,20.69,1.75-7.36-1.08-15.48-2.27-21.92-3C78,33.9,75.25,41.46,73.44,46.56c-.53,1.45-1,2.92-1.53,4.38C71.73,51.45,71.56,52,71.38,52.48Z" transform="translate(0.02 -0.2)"/><path class="cls-1" d="M95.7,38.09c3.65,5.78-.8,12.41-7.55,10.61C84.42,47.8,81.47,44,82.4,40c1.53-6.79,9.85-7.8,13.3-1.93Zm-.12.08c-2.87-4.58-10.6-2.91-11.82,2.17-1.49,5.66,4.36,10.33,9.32,6.75,2.72-1.88,4.43-5.84,2.5-8.92Z" transform="translate(0.02 -0.2)"/><path class="cls-1" d="M90.38,49.25a8.94,8.94,0,0,1-2.3-.31c-3.67-.89-6.93-4.71-5.93-9a7.37,7.37,0,0,1,6-5.88A7.59,7.59,0,0,1,95.92,38a7.47,7.47,0,0,1,0,8.55A6.71,6.71,0,0,1,90.38,49.25Zm-2.07-.77a6.41,6.41,0,0,0,8.35-7.29,8,8,0,0,1-3.44,6.1A6.35,6.35,0,0,1,88.31,48.48Zm2.17-12.74a6.27,6.27,0,0,0-1.14.1A6.35,6.35,0,0,0,84,40.39a6.16,6.16,0,0,0,2.36,6.74,5.52,5.52,0,0,0,6.57-.25c2.63-1.81,4.3-5.6,2.43-8.57h0A5.61,5.61,0,0,0,90.48,35.74ZM89.3,34.49a7.68,7.68,0,0,0-1.06.08,6.88,6.88,0,0,0-5.6,5.5,7.07,7.07,0,0,0,3.78,7.69l-.35-.22a6.64,6.64,0,0,1-2.55-7.27,7.23,7.23,0,0,1,10-4.32A6.87,6.87,0,0,0,89.3,34.49Z" transform="translate(0.02 -0.2)"/><path class="cls-1" d="M158.67,18.45c-5.59,7.17-11.57,14.89-17.56,21.72-8.28-4.38-16.58-8.74-25.16-12.52l-.47-.22c1.56-1.92,3.1-3.86,4.69-5.77,4.37-5.28,9.26-11.12,13.74-16.31,7.41,3.66,17.4,9.13,24.76,13.1Zm-.15,0c-7.3-3.28-17.7-8-24.77-11.43l.95-.19c-2.59,3-6.38,7.38-9,10.41q-4.55,5.19-9.21,10.28l-.13-.63c2,1,4.08,2.14,6.14,3.16,6.15,3.15,12.5,5.89,18.79,8.75l-.75.16c5.53-6.81,12.11-14,18-20.51Z" transform="translate(0.02 -0.2)"/><path class="cls-1" d="M141.17,40.48l-.17-.09c-7.56-4-16.1-8.5-24.71-12.31h0l-.44-.2-.77-.35.2-.25L117,25.12c1-1.21,2-2.42,3-3.62,3.47-4.21,8.68-10.45,13.74-16.31l.12-.15.18.09c6.19,3.05,14,7.29,20.93,11l3.83,2.07.27.14-1.23,1.57c-5.36,6.88-10.9,14-16.52,20.39Zm-1.1-1.15,1,.52.77-.89Zm-12-6.23c4.12,2.07,8.12,4.17,11.89,6.17l.36-.44.09-.11-3.61-1.62C133.9,35.8,131,34.48,128.05,33.1Zm13.14,5.43.15.07.58.27c4.45-5.15,8.85-10.71,13.14-16.2C150.31,27.91,145.48,33.29,141.19,38.53Zm-24-11.44,1.35.7c1.33.7,2.67,1.4,4,2.07,4.73,2.42,9.66,4.64,14.42,6.78l3.73,1.68c4.82-5.89,10.31-11.94,15.61-17.79l1.78-2C150,14.93,141,10.83,134.37,7.63c-2.48,2.9-6,6.9-8.54,9.81S120.38,23.6,117.19,27.09Zm-.54.6q2.86,1.27,5.72,2.64l0,0c-1.35-.68-2.68-1.37-4-2.07l-1.47-.76Zm-.78-.35.18.09.12.05-.09-.4Zm.54-.65h0l.31.17c3.22-3.53,6.08-6.73,8.73-9.75s6-6.82,8.44-9.7l-.26-.13L133,7l2.38-.48-.47.55c-.06.07-.12.15-.19.22C140,9.81,146.87,13,153.55,16,147,12.43,139.78,8.53,134,5.66c-5,5.81-10.16,12-13.61,16.16-1,1.2-2,2.41-2.94,3.61Z" transform="translate(0.02 -0.2)"/><path class="cls-1" d="M144.18,21.49c1.45,6.67-5,11.38-10.72,7.37-3.2-2.12-4.66-6.74-2.44-10.12,3.76-5.85,11.93-4,13.16,2.75Zm-.14,0c-1.13-5.29-9-6.36-11.85-2-3.33,4.82.56,11.19,6.45,9.53,3.2-.84,6.16-4,5.4-7.52Z" transform="translate(0.02 -0.2)"/><path class="cls-1" d="M137.85,30.6a7.93,7.93,0,0,1-4.54-1.53c-3.15-2.09-4.91-6.8-2.5-10.47a7.38,7.38,0,0,1,7.66-3.47,7.61,7.61,0,0,1,6,6.31,7.48,7.48,0,0,1-2.92,8A6.51,6.51,0,0,1,137.85,30.6Zm-4.17-1.89a6.57,6.57,0,0,0,7.55.35A6.48,6.48,0,0,0,144,24.72a8,8,0,0,1-5.32,4.56A6.32,6.32,0,0,1,133.68,28.71Zm3.89-11.66a6.23,6.23,0,0,0-5.26,9.73,5.53,5.53,0,0,0,6.26,2c3.09-.81,6-3.8,5.22-7.23h0A5.79,5.79,0,0,0,139,17.19,7.47,7.47,0,0,0,137.57,17.05Zm-.48-1.55a7,7,0,0,0-5.86,3.38,7.07,7.07,0,0,0,.93,8.52l-.26-.33a6.63,6.63,0,0,1,.09-7.7,7.21,7.21,0,0,1,10.87-.64,6.79,6.79,0,0,0-4.49-3.1A6.25,6.25,0,0,0,137.09,15.5Z" transform="translate(0.02 -0.2)"/><path class="cls-1" d="M210.07,24.56c-7.71,4.82-16,10-23.93,14.4C179.85,32,173.55,25.08,166.78,18.6l-.37-.37c2.13-1.27,4.24-2.57,6.38-3.82,5.91-3.47,12.5-7.28,18.49-10.62,5.71,6,13.23,14.53,18.79,20.77Zm-.15,0C204.18,19,196,11,190.55,5.33l1,.14c-3.47,2-8.52,4.76-12.07,6.69q-6,3.33-12.17,6.51l.09-.64c1.57,1.69,3.11,3.4,4.69,5.08,4.71,5.06,9.74,9.8,14.67,14.64l-.76-.1c7.53-4.51,16.16-9,24-13.11Z" transform="translate(0.02 -0.2)"/><path class="cls-1" d="M186.09,39.28l-.13-.15c-5.73-6.32-12.21-13.48-19-20h0l-.35-.33-.6-.6.28-.16,2.41-1.45c1.32-.8,2.64-1.6,4-2.37,4.7-2.77,11.73-6.86,18.49-10.63l.17-.1.13.14c4.76,5,10.66,11.62,15.86,17.48l2.93,3.3.2.22-1.72,1.08c-7.38,4.63-15,9.4-22.47,13.49Zm-.64-1.45.75.82,1-.57Zm1.32-.38.12.12.45.45c5.95-3.31,12-7,17.9-10.73C199,30.59,192.6,34,186.77,37.45Zm-10.48-9.58c3.17,3.35,6.2,6.69,9.06,9.85l.48-.29.13-.07-2.82-2.75C180.88,32.41,178.57,30.17,176.29,27.87Zm-8.15-9.37,1,1.12c1,1.11,2,2.22,3.07,3.31,3.63,3.9,7.51,7.68,11.26,11.33l2.91,2.83c6.54-3.89,13.76-7.69,20.75-11.37l2.35-1.24c-6.38-6.2-13.48-13.15-18.57-18.39-3.33,1.87-8,4.44-11.37,6.29S172.32,16.31,168.14,18.5Zm-.72.37c1.51,1.45,3,2.93,4.47,4.42a0,0,0,0,1,0,0c-1-1.09-2.06-2.2-3.08-3.32l-1.11-1.21Zm24-13c4.09,4.22,9.47,9.52,14.72,14.64-4.93-5.56-10.39-11.69-14.87-16.37-6.7,3.75-13.65,7.79-18.31,10.53-1.33.77-2.65,1.57-4,2.37l-1.41.85h0l.24.26c4.22-2.21,8-4.24,11.53-6.18,3.36-1.82,7.93-4.36,11.25-6.23l-.2-.21-.18-.19.2-.17c.08-.07.09-.08,1.16.09l.72.1-.63.36ZM166.81,18.28l.14.14.09.09.06-.4Z" transform="translate(0.02 -0.2)"/><path class="cls-1" d="M195.42,22.46c-.92,6.76-8.59,9-12.61,3.26-2.27-3.08-2.06-7.92,1.18-10.34,5.54-4.21,12.56.36,11.43,7.08Zm-.15,0c.75-5.35-6.24-9-10.44-5.94-4.78,3.39-3.3,10.71,2.8,11.16,3.29.31,7.14-1.62,7.64-5.22Z" transform="translate(0.02 -0.2)"/><path class="cls-1" d="M188.58,29.25a7.35,7.35,0,0,1-6-3.38c-2.24-3-2.29-8.07,1.23-10.69a7.35,7.35,0,0,1,8.38-.64,7.57,7.57,0,0,1,3.44,8,7.46,7.46,0,0,1-5.49,6.56A6.65,6.65,0,0,1,188.58,29.25Zm-5.51-3.6a6.58,6.58,0,0,0,7,2.92,6.46,6.46,0,0,0,4.1-3.13,7.94,7.94,0,0,1-6.56,2.47A6.34,6.34,0,0,1,183.07,25.65Zm5.32-10A5.73,5.73,0,0,0,185,16.7a6.13,6.13,0,0,0-2.53,6.67,5.53,5.53,0,0,0,5.2,4c3.17.29,6.89-1.53,7.37-5h0a5.79,5.79,0,0,0-3-5.76A7,7,0,0,0,188.39,15.61Zm.18-1.59a7.3,7.3,0,0,0-4.43,1.56,7.05,7.05,0,0,0-2,8.33c0-.13-.09-.27-.13-.41a6.62,6.62,0,0,1,2.71-7.2,6.84,6.84,0,0,1,7.57-.09,6.88,6.88,0,0,1,2.87,3.2A6.88,6.88,0,0,0,192,15,6.55,6.55,0,0,0,188.57,14Z" transform="translate(0.02 -0.2)"/><path class="cls-1" d="M256.28,47.88c-8.89,1.9-18.43,4-27.41,5.36-3.53-8.68-7.08-17.36-11.23-25.77l-.22-.47c2.43-.46,4.86-1,7.3-1.4,6.75-1.24,14.24-2.57,21-3.67,3.33,7.57,7.46,18.18,10.55,26Zm-.13-.07c-3.49-7.2-8.44-17.48-11.63-24.67l.85.46c-3.93.66-9.63,1.56-13.63,2.15-4.55.71-9.1,1.35-13.66,2l.31-.57c.89,2.12,1.75,4.26,2.66,6.37,2.69,6.37,5.8,12.55,8.77,18.78l-.67-.36c8.61-1.66,18.26-2.92,27-4.12Z" transform="translate(0.02 -0.2)"/><path class="cls-1" d="M228.71,53.51l-.07-.18c-3.22-7.91-6.86-16.85-11-25.31h0c-.07-.15-.14-.29-.22-.44l-.36-.76.32-.06,2.73-.53c1.53-.3,3.05-.6,4.58-.88,5.38-1,13.39-2.43,21-3.66l.19,0,.08.17c2.78,6.33,6.06,14.61,8.95,21.92l1.6,4,.11.27-2,.43c-8.5,1.82-17.3,3.7-25.71,5Zm-.1-1.58.42,1,1.17-.19ZM230,52s.05.1.07.16l.27.57c6.72-1.08,13.67-2.51,20.49-4C243.79,49.76,236.64,50.77,230,52Zm-6.59-12.62c1.83,4.24,3.55,8.43,5.16,12.38l.55-.1.14,0-1.71-3.56C226.15,45.25,224.75,42.34,223.39,39.41ZM219,27.85c.19.46.39.92.58,1.39.57,1.39,1.15,2.79,1.75,4.17,2.07,4.9,4.42,9.76,6.7,14.47l1.77,3.68c7.49-1.42,15.59-2.52,23.43-3.59l2.59-.36c-3.87-8-8.17-17-11.15-23.63-3.78.62-9,1.45-12.84,2S223.68,27.21,219,27.85Zm26.18-4c2.4,5.37,5.64,12.19,8.82,18.8-2.74-6.92-5.77-14.54-8.37-20.48-7.56,1.23-15.48,2.65-20.81,3.64-1.53.27-3.05.57-4.57.87l-1.59.31h0l.13.33c4.78-.64,9-1.25,12.95-1.86,3.77-.57,8.94-1.38,12.71-2l-.12-.27-.3-.67,2.14,1.16-.72.12Zm-27,4.06c.92,1.88,1.82,3.79,2.69,5.7a.08.08,0,0,0,0,0c-.6-1.38-1.18-2.78-1.75-4.18l-.63-1.52Zm-.37-.76.08.18.06.11.19-.35Z" transform="translate(0.02 -0.2)"/><path class="cls-1" d="M243.23,40.9c-3.18,6-11.14,5.51-13-1.25-1.08-3.67.77-8.15,4.64-9.32,6.64-2,11.68,4.64,8.32,10.57Zm-.13-.07c2.54-4.77-2.77-10.63-7.78-9.15-5.65,1.54-6.77,8.93-1.19,11.44,3,1.42,7.27.92,9-2.29Z" transform="translate(0.02 -0.2)"/><path class="cls-1" d="M236.81,45.35c-.25,0-.51,0-.76,0a7.09,7.09,0,0,1-6-5.59c-1.07-3.62.61-8.36,4.81-9.62a7.34,7.34,0,0,1,8.1,2.26,7.59,7.59,0,0,1,.51,8.66A7.58,7.58,0,0,1,236.81,45.35Zm-6.27-5.68a6.57,6.57,0,0,0,5.56,5.14A6.5,6.5,0,0,0,241,43.27a8,8,0,0,1-7,.08A6.33,6.33,0,0,1,230.54,39.67Zm6.39-8a5.37,5.37,0,0,0-1.54.23,6.13,6.13,0,0,0-4.65,5.4,5.52,5.52,0,0,0,3.49,5.57c2.88,1.37,7,.92,8.65-2.18h0a5.8,5.8,0,0,0-.88-6.45A6.62,6.62,0,0,0,236.93,31.69Zm0-.5a7.16,7.16,0,0,1,5.46,2.75,6.84,6.84,0,0,1,1.6,4,6.77,6.77,0,0,0-9-7.36,7.06,7.06,0,0,0-4.77,7.13c0-.14,0-.28,0-.42a6.62,6.62,0,0,1,5-5.85A6,6,0,0,1,236.93,31.19Z" transform="translate(0.02 -0.2)"/><path class="cls-1" d="M291.73,85.6c-9-1.25-18.68-2.56-27.59-4.34-.35-9.37-.72-18.73-1.74-28.05l0-.52c2.45.4,4.9.76,7.34,1.18,6.77,1.14,14.26,2.46,21,3.74.54,8.25.79,19.64,1,28Zm-.1-.11c-.81-8-1.95-19.31-2.49-27.16l.64.72c-3.92-.72-9.58-1.83-13.54-2.63-4.52-.89-9-1.85-13.51-2.84l.48-.43c.11,2.3.19,4.6.33,6.9.35,6.91,1.15,13.77,1.82,20.65l-.51-.57c8.66,1.39,18.15,3.5,26.78,5.36Z" transform="translate(0.02 -0.2)"/><path class="cls-1" d="M292,85.89l-2-.28c-8.62-1.2-17.54-2.44-25.9-4.1l-.19,0v-.2c-.32-8.53-.69-18.18-1.69-27.55h0c0-.16,0-.32-.05-.48l-.08-.85.32.06,2.78.44c1.53.23,3.05.47,4.57.74,5.38.9,13.39,2.29,21,3.74l.19,0,0,.2c.45,6.87.69,15.76.91,23.6,0,1.53.09,3,.13,4.4ZM265.54,80c7.52,1.23,15.51,3,23.24,4.63l2.56.56c-.9-8.83-1.87-18.71-2.4-26-3.79-.71-9-1.72-12.75-2.49S268.15,55,263.5,54c0,.5.05,1,.07,1.5.06,1.51.13,3,.22,4.53.27,5.31.81,10.69,1.34,15.89C265.27,77.28,265.41,78.64,265.54,80Zm.13,1.32c6.68,1.28,13.69,2.31,20.6,3.28-6.92-1.5-14-3-20.68-4.08,0,0,0,.11,0,.17Zm-1.29-.26,1.16.23-1.2-1.34C264.36,80.31,264.37,80.68,264.38,81.05Zm25.07-21.8c.43,5.88,1.14,13.39,1.87,20.68-.21-7.43-.45-15.64-.87-22.11-7.54-1.44-15.46-2.8-20.8-3.7-1.51-.26-3-.5-4.55-.74l-1.64-.26v0c0,.12,0,.23,0,.35,4.69,1,8.89,1.91,12.81,2.68,3.7.76,8.84,1.76,12.62,2.47,0-.1,0-.2,0-.3l-.05-.73,1.61,1.82-.71-.13ZM264.34,79.8l.55.09.14,0L264.64,76c-.32-3.14-.65-6.35-.92-9.57C264,71,264.17,75.53,264.34,79.8Zm-1.62-26q.33,3.14.57,6.28v0c-.09-1.51-.16-3-.22-4.54,0-.54-.05-1.09-.07-1.63Zm-.09-.84,0,.19a.53.53,0,0,0,0,.13L263,53Z" transform="translate(0.02 -0.2)"/><path class="cls-1" d="M281.85,74.58c-5.05,4.59-12.35,1.36-11.75-5.6.24-3.83,3.52-7.4,7.55-7.17,7,.33,9.39,8.35,4.2,12.77Zm-.1-.11c4-3.62,1-10.94-4.18-11.26-5.84-.48-9.41,6.08-5,10.34,2.33,2.36,6.52,3.36,9.21.92Z" transform="translate(0.02 -0.2)"/><path class="cls-1" d="M276.64,77a6.79,6.79,0,0,1-3-.72A7.09,7.09,0,0,1,269.85,69c.23-3.65,3.24-7.4,7.42-7.4h.4a7.35,7.35,0,0,1,6.83,4.89A7.6,7.6,0,0,1,282,74.77,8.07,8.07,0,0,1,276.64,77Zm-6.3-7.89a6.58,6.58,0,0,0,3.48,6.72,6.41,6.41,0,0,0,5.15.24,7.93,7.93,0,0,1-6.61-2.32A6.36,6.36,0,0,1,270.34,69.09ZM277,63.43a6.08,6.08,0,0,0-5.64,3.51,5.53,5.53,0,0,0,1.38,6.44c2.24,2.27,6.27,3.26,8.87.9h0A5.8,5.8,0,0,0,283,67.92a6.33,6.33,0,0,0-5.41-4.46Zm0-.5c.2,0,.41,0,.61,0a7.23,7.23,0,0,1,6,9.09,6.77,6.77,0,0,0-5.94-10,7.07,7.07,0,0,0-6.92,5.06c0-.13.1-.26.16-.39A6.58,6.58,0,0,1,277,62.93Z" transform="translate(0.02 -0.2)"/><path class="cls-1" d="M312.14,133.17c-8-4.25-16.68-8.8-24.44-13.51,2.87-8.92,5.73-17.85,7.95-27l.14-.5c2.16,1.21,4.34,2.39,6.49,3.62,6,3.38,12.56,7.18,18.45,10.69-2.31,7.94-6,18.73-8.59,26.66Zm-.06-.13c2-7.76,4.78-18.82,6.95-26.38l.36.9c-3.43-2-8.38-5-11.83-7.11-3.94-2.38-7.84-4.82-11.72-7.28l.6-.24c-.68,2.2-1.4,4.39-2.05,6.59-2,6.61-3.63,13.34-5.36,20l-.28-.71c7.67,4.26,15.86,9.5,23.33,14.2Z" transform="translate(0.02 -0.2)"/><path class="cls-1" d="M312.28,133.53l-1.76-.93c-7.7-4.08-15.66-8.3-22.95-12.73l-.17-.1.06-.19c2.62-8.13,5.58-17.33,7.83-26.46h0c0-.15.07-.31.11-.47l.22-.82.28.16,2.44,1.36c1.36.75,2.72,1.49,4.06,2.26,4.75,2.7,11.81,6.74,18.45,10.7l.16.1,0,.19c-1.93,6.61-4.73,15-7.21,22.47-.48,1.46-.95,2.87-1.39,4.19Zm-22.83-14.59c6.65,3.73,13.57,8.09,20.27,12.32l2.2,1.38c2.18-8.61,4.64-18.23,6.65-25.27-3.32-2-7.87-4.7-11.14-6.71s-7-4.28-11-6.83L296,95.26c-.46,1.44-.91,2.88-1.34,4.34-1.57,5.07-2.89,10.31-4.17,15.37C290.12,116.3,289.79,117.62,289.45,118.94Zm-.33,1.28c5.84,3.5,12.08,6.86,18.24,10.14-6-3.78-12.13-7.6-18-10.92,0,.06,0,.12,0,.17ZM319,107.63c-1.61,5.66-3.51,13-5.32,20.06,2.35-7,4.93-14.84,6.75-21.06-6.59-3.93-13.57-7.92-18.28-10.59-1.34-.77-2.69-1.52-4.05-2.27L296.68,93h0c0,.11-.07.22-.11.34,4.07,2.57,7.71,4.83,11.12,6.9,3.24,2,7.72,4.67,11,6.63,0-.1.05-.19.08-.28l.2-.71.9,2.26-.63-.36Zm-31,11.92,1,.61-.67-1.67C288.22,118.84,288.11,119.2,288,119.55Zm.38-1.2.49.27.13.07c.32-1.28.65-2.56,1-3.84.78-3.06,1.57-6.18,2.42-9.29C291.06,110,289.69,114.28,288.38,118.35Zm7.36-24.95c-.5,2-1,4.06-1.6,6.08v0c.43-1.45.88-2.89,1.34-4.34.17-.52.33-1,.49-1.56Zm.15-.64h0l0,.13.37-.15-.3-.16C295.92,92.65,295.91,92.71,295.89,92.76Z" transform="translate(0.02 -0.2)"/><path class="cls-1" d="M306.63,119.44c-6.32,2.58-12.08-3-9.13-9.29,1.53-3.51,5.83-5.75,9.55-4.15,6.41,2.69,6,11.06-.42,13.44Zm-.06-.14c5-2,4.71-9.93-.08-12-5.32-2.45-10.92,2.49-8.26,8,1.38,3,5,5.38,8.34,4Z" transform="translate(0.02 -0.2)"/><path class="cls-1" d="M303.43,120.34a7,7,0,0,1-5.14-2.15,7.09,7.09,0,0,1-1-8.14c1.52-3.46,5.84-6,9.88-4.28a7.36,7.36,0,0,1,4.74,6.94,7.58,7.58,0,0,1-5.17,7A8.71,8.71,0,0,1,303.43,120.34Zm-5.74-10a6.6,6.6,0,0,0,1,7.51,6.49,6.49,0,0,0,4.77,2,7.92,7.92,0,0,1-5.42-4.45A6.31,6.31,0,0,1,297.69,110.34Zm5.93-3.45a5.92,5.92,0,0,0-4.26,1.77,5.54,5.54,0,0,0-.91,6.52c1.33,2.9,4.78,5.21,8,3.89h0a5.84,5.84,0,0,0,3.48-5.51,6.33,6.33,0,0,0-3.56-6A6.65,6.65,0,0,0,303.62,106.89Zm0-.5a7.13,7.13,0,0,1,3,.67,7.23,7.23,0,0,1,2.52,10.59A6.77,6.77,0,0,0,307,106.23a7.05,7.05,0,0,0-8.23,2.39,4.12,4.12,0,0,1,.28-.31A6.43,6.43,0,0,1,303.62,106.39Z" transform="translate(0.02 -0.2)"/><path class="cls-1" d="M315,184.86c-6.09-6.75-12.66-14-18.34-21.06,5.75-7.41,11.49-14.82,16.7-22.61l.29-.43c1.62,1.88,3.27,3.73,4.87,5.63,4.45,5.21,9.35,11,13.68,16.35-4.89,6.67-12,15.56-17.2,22.12Zm0-.15c4.49-6.62,10.92-16.05,15.55-22.42l0,1c-2.54-3.08-6.17-7.57-8.68-10.73-2.89-3.58-5.72-7.21-8.53-10.85l.65,0c-1.4,1.83-2.82,3.64-4.19,5.49-4.17,5.52-8,11.29-11.88,17l0-.76c5.75,6.63,11.66,14.35,17.07,21.32Z" transform="translate(0.02 -0.2)"/><path class="cls-1" d="M315.06,185.24l-1.35-1.49c-5.84-6.46-11.87-13.15-17.2-19.8l-.13-.15.12-.16c5.24-6.74,11.16-14.36,16.42-22.19h0l.27-.4.48-.7.21.25c.6.69,1.21,1.38,1.81,2.08q1.55,1.75,3.06,3.54c3.54,4.15,8.78,10.36,13.68,16.37l.12.15-.11.15c-4.07,5.55-9.57,12.5-14.43,18.63-1,1.21-1.9,2.38-2.77,3.49Zm-16.47-21.52c5,5.78,10,12.24,14.83,18.49l1.6,2.07c5-7.34,10.6-15.54,14.89-21.48-2.43-3-5.77-7.09-8.17-10.1s-5.1-6.41-8-10.19l-.92,1.2c-.92,1.2-1.84,2.39-2.74,3.6-3.2,4.24-6.24,8.71-9.17,13Zm-.75,1.09c4.3,5.28,9,10.58,13.68,15.76-4.35-5.59-8.8-11.28-13.22-16.42l-.1.14Zm32.4-1.61c-3.45,4.77-7.73,11-11.86,17,4.62-5.82,9.71-12.27,13.54-17.49-4.86-6-10-12.09-13.55-16.2q-1.51-1.78-3.06-3.54l-1-1.2h0l-.22.28c2.95,3.82,5.6,7.19,8.09,10.28s5.66,7.05,8.09,10l.17-.24.43-.6.07,2.44-.47-.56Zm-33.22.59.74.92-.06-1.79Zm.77-1,.37.42.09.11,2.23-3.27c1.78-2.61,3.58-5.27,5.45-7.91C303.17,155.85,300.41,159.43,297.79,162.8Zm15.45-20.93c-1.17,1.74-2.38,3.47-3.6,5.18l0,0c.9-1.22,1.82-2.42,2.74-3.61l1-1.31C313.36,142,313.3,142,313.24,141.87Zm.47-.7-.11.16a.61.61,0,0,1-.07.1h.4C313.86,141.34,313.79,141.25,313.71,141.17Z" transform="translate(0.02 -0.2)"/><path class="cls-1" d="M314.57,170.06c-6.82.27-10.35-6.89-5.41-11.84,2.65-2.78,7.45-3.41,10.4-.64,5.1,4.72,1.82,12.43-5,12.48Zm0-.15c5.4-.18,7.82-7.71,4-11.31-4.17-4.12-11.13-1.39-10.51,4.69.27,3.3,2.84,6.76,6.47,6.62Z" transform="translate(0.02 -0.2)"/><path class="cls-1" d="M314.2,170.32a7.4,7.4,0,0,1-7-4.27,7.09,7.09,0,0,1,1.83-8c2.6-2.74,7.54-3.65,10.74-.64a7.33,7.33,0,0,1,2.08,8.14,7.57,7.57,0,0,1-7.24,4.77ZM314,156.88a5.94,5.94,0,0,0-2.53.57,5.55,5.55,0,0,0-3.08,5.82c.26,3.18,2.71,6.54,6.21,6.39h0a5.82,5.82,0,0,0,5.16-4,6.31,6.31,0,0,0-5.76-8.8Zm-4.67,1.58a6.59,6.59,0,0,0-1.66,7.39,6.46,6.46,0,0,0,3.79,3.49,7.93,7.93,0,0,1-3.57-6A6.31,6.31,0,0,1,309.28,158.46Zm4.67-2.08a7,7,0,0,1,3.56,12.86,6.77,6.77,0,0,0,1.88-11.48,7.05,7.05,0,0,0-8.56-.56c.12-.07.24-.14.37-.2A6.37,6.37,0,0,1,314,156.38Z" transform="translate(0.02 -0.2)"/><path class="cls-1" d="M300.1,234.41c-3.41-8.42-7.12-17.46-10-26.06,7.93-5,15.86-10,23.42-15.53l.42-.3c.88,2.32,1.8,4.62,2.65,6.95,2.4,6.42,5,13.57,7.26,20.05-6.87,4.59-16.61,10.5-23.72,14.89Zm0-.14c6.48-4.68,15.75-11.34,22.28-15.74l-.31.92c-1.33-3.75-3.21-9.21-4.49-13-1.49-4.36-2.91-8.73-4.3-13.12l.62.2c-1.94,1.25-3.9,2.47-5.82,3.74-5.8,3.75-11.35,7.88-17,11.9l.24-.73c3.13,8.2,6,17.47,8.75,25.87Z" transform="translate(0.02 -0.2)"/><path class="cls-1" d="M300,234.78l-.75-1.85c-3.28-8.07-6.66-16.42-9.4-24.5l-.06-.18.17-.11c7.22-4.55,15.4-9.69,23-15.24h0l.39-.29.69-.48.12.3c.33.87.66,1.74,1,2.61.56,1.44,1.11,2.89,1.65,4.34,1.91,5.12,4.72,12.76,7.26,20.05l.06.19-.16.11c-5.71,3.81-13.25,8.45-19.91,12.54l-3.82,2.36Zm-8.11-25.85c2.69,7.12,5.18,14.89,7.6,22.41l.81,2.53c7.2-5.2,15.28-11,21.34-15.09-1.28-3.62-3-8.65-4.23-12.3s-2.61-7.8-4-12.31l-1.27.81c-1.25.8-2.55,1.62-3.81,2.46-4.46,2.88-8.84,6-13.07,9.1Zm29.92,10.34c-4.87,3.3-11,7.67-17,11.95,6.33-3.89,13.32-8.21,18.71-11.8-2.52-7.24-5.3-14.79-7.19-19.86-.53-1.46-1.09-2.9-1.65-4.34-.19-.51-.39-1-.59-1.52h0l-.29.19c1.44,4.56,2.78,8.63,4.08,12.43,1.2,3.61,2.9,8.56,4.17,12.17l.25-.16.61-.42-.77,2.31-.25-.68Zm-31-9.57c2.23,6.43,4.84,13,7.46,19.48-2.17-6.74-4.41-13.61-6.8-20l-.14.1Zm-.42-1.24c.12.37.25.74.38,1.12l.56-1.71C291,208.06,290.68,208.26,290.37,208.46Zm1.06-.67.2.52a.78.78,0,0,1,.05.14l3.22-2.32c2.56-1.85,5.18-3.73,7.83-5.57C298.87,203.1,295.05,205.52,291.43,207.79Zm21.68-14.39q-2.55,1.86-5.15,3.64l0,0c1.26-.84,2.56-1.66,3.81-2.46l1.38-.88C313.16,193.59,313.14,193.5,313.11,193.4Zm.42-.31.38.13-.12-.31-.16.11Z" transform="translate(0.02 -0.2)"/><path class="cls-1" d="M304.71,220.35c-6.5-2.08-7.36-10-1-13,3.43-1.7,8.16-.65,10,3,3.18,6.18-2.54,12.3-9,10Zm.05-.14c5.14,1.67,10-4.58,7.66-9.25-2.51-5.3-10-5.12-11.48.82-.88,3.19.36,7.32,3.82,8.43Z" transform="translate(0.02 -0.2)"/><path class="cls-1" d="M307.48,221.09a8.52,8.52,0,0,1-2.85-.5,7.5,7.5,0,0,1-5.51-6.55,7.09,7.09,0,0,1,4.46-6.89c3.38-1.69,8.34-.86,10.31,3.06a7.27,7.27,0,0,1-6.41,10.88Zm-.84-14.19a6.69,6.69,0,0,1,6,3.95,7.22,7.22,0,0,1-4.88,9.73,6.78,6.78,0,0,0,4.92-2.33,6.85,6.85,0,0,0,.76-7.81A7.06,7.06,0,0,0,305.6,207l.42,0Zm0,.5-.57,0a5.55,5.55,0,0,0-4.89,4.42c-.84,3.07.31,7.06,3.66,8.13h0a5.81,5.81,0,0,0,6.2-2,6.35,6.35,0,0,0,1.16-6.92A6.18,6.18,0,0,0,306.64,207.4Zm-2.94.24a6.4,6.4,0,0,0-1.7,11,7.93,7.93,0,0,1-1.3-6.89A6.33,6.33,0,0,1,303.7,207.64Z" transform="translate(0.02 -0.2)"/><path class="cls-1" d="M269.11,275.87c-.33-9.08-.72-18.84-.52-27.92,9.16-2,18.32-4,27.32-6.59l.5-.13c0,2.48.11,5,.12,7.44.05,6.85.06,14.46,0,21.32-8,2-19.2,4.19-27.38,5.88Zm.09-.11c7.69-2.18,18.68-5.28,26.32-7.17l-.61.76c0-4,.14-9.76.25-13.8.09-4.6.25-9.2.45-13.79l.5.4c-2.24.5-4.5,1-6.74,1.52-6.74,1.54-13.36,3.52-20,5.37l.48-.6c.14,8.77-.3,18.49-.63,27.31Z" transform="translate(0.02 -0.2)"/><path class="cls-1" d="M268.87,276.18l-.07-2c-.32-8.72-.65-17.73-.46-26.26v-.2l.19,0c8.35-1.8,17.8-3.84,26.84-6.45h0l.46-.14.82-.22v.32c0,.94,0,1.89,0,2.83,0,1.54.06,3.08.07,4.61,0,5.46.07,13.59,0,21.33v.19l-.19.05c-6.67,1.63-15.34,3.41-23,5l-4.4.91Zm1.22-27.07c.09,7.61-.22,15.77-.53,23.67l-.1,2.64c8.56-2.42,18.13-5.1,25.21-6.88,0-3.85.14-9.15.24-13s.21-8.22.41-12.95l-1.46.32c-1.48.33-3,.66-4.43,1-5.18,1.19-10.38,2.66-15.41,4.08Zm24.58,19.95c-5.7,1.43-13,3.44-20,5.42,7.28-1.49,15.32-3.15,21.61-4.69.11-7.68.08-15.71,0-21.12,0-1.54,0-3.08-.07-4.61l0-1.66h0l-.35.08c-.19,4.77-.33,9.06-.41,13.08-.1,3.79-.2,9-.24,12.85l.29-.07.71-.17-1.51,1.9v-1Zm-25.83-20.9c-.16,7.2.06,14.75.32,22.17.27-7.08.51-14.3.43-21.08l-.17.05-.32.08v-.32c0-.09,0-.09.53-.76l.29-.38Zm1.23-.27v.7l3.8-1.07c3-.86,6.14-1.74,9.26-2.56C278.66,246,274.24,247,270.07,247.89Zm25.28-6.1c-2,.58-4,1.13-6.06,1.65h0c1.47-.35,2.95-.68,4.44-1l1.58-.36Zm.51-.15.31.25v-.34l-.19,0Z" transform="translate(0.02 -0.2)"/><path class="cls-1" d="M278.25,264.24c-5.4-4.18-3.49-11.93,3.47-12.55,3.81-.43,7.9,2.18,8.38,6.19.87,6.9-6.6,10.7-11.85,6.36Zm.09-.12c4.26,3.32,11-.89,10.36-6.08-.54-5.83-7.62-8.21-11.06-3.15-1.92,2.7-2.17,7,.7,9.23Z" transform="translate(0.02 -0.2)"/><path class="cls-1" d="M283.18,266.34a8,8,0,0,1-5.09-1.91,7.46,7.46,0,0,1-2.93-8,7.07,7.07,0,0,1,6.54-5c3.77-.43,8.13,2.05,8.64,6.41a7.25,7.25,0,0,1-7.16,8.49ZM281,265.5a6.78,6.78,0,0,0,8.82-7.59,7.05,7.05,0,0,0-6.2-5.93l.42.09A6.62,6.62,0,0,1,289,258,7.22,7.22,0,0,1,281,265.5Zm1.5-13.13a5.64,5.64,0,0,0-4.68,2.66c-1.85,2.6-2.13,6.74.64,8.89h0a5.8,5.8,0,0,0,6.5.26,6.34,6.34,0,0,0,3.46-6.11,6.15,6.15,0,0,0-4.52-5.52A5.68,5.68,0,0,0,282.53,252.37Zm-.88-.42a6.58,6.58,0,0,0-6,4.59,6.45,6.45,0,0,0,.66,5.12,7.94,7.94,0,0,1,1.14-6.92A6.29,6.29,0,0,1,281.65,252Z" transform="translate(0.02 -0.2)"/><path class="cls-1" d="M225.8,304.23c2.8-8.65,5.77-18,9.07-26.41,9.29,1.28,18.57,2.54,27.93,3.15l.52,0c-.82,2.34-1.6,4.69-2.44,7-2.3,6.47-4.89,13.62-7.33,20-8.21-.9-19.47-2.63-27.75-3.84Zm.13-.08c8,.59,19.36,1.44,27.19,2.27l-.83.51c1.39-3.73,3.46-9.12,5-12.88,1.66-4.3,3.38-8.56,5.13-12.81l.34.55c-2.28-.29-4.56-.62-6.85-.88-6.86-.85-13.76-1.26-20.65-1.79l.65-.41c-2.87,8.29-6.6,17.27-9.93,25.44Z" transform="translate(0.02 -0.2)"/><path class="cls-1" d="M253.72,308.34l-.2,0c-6.85-.75-15.65-2.05-23.41-3.2l-4.34-.64-.3,0,.64-2c2.68-8.27,5.44-16.82,8.53-24.74l.07-.18.19,0c8.46,1.17,18,2.48,27.43,3.12h0l.49,0,.84.07-.11.31-.9,2.61c-.5,1.47-1,3-1.54,4.42-1.82,5.15-4.58,12.8-7.33,20Zm-22.25-3.53c7.36,1.09,15.48,2.28,21.92,3,2.72-7.17,5.44-14.74,7.25-19.84.53-1.46,1-2.94,1.54-4.41.17-.51.34-1,.52-1.51h0l-.35,0c-1.82,4.44-3.42,8.42-4.86,12.15-1.38,3.51-3.26,8.39-4.62,12l.29,0,.73.08-2.07,1.27.25-.68c0-.09.07-.18.1-.27C246.31,306,238.78,305.36,231.47,304.81Zm-5.18-.88c8.87.65,18.78,1.41,26.05,2.15,1.36-3.61,3.26-8.57,4.66-12.13s3-7.64,4.82-12l-1.49-.19c-1.5-.2-3-.4-4.5-.57-5.28-.66-10.67-1.06-15.88-1.44l-4.07-.3c-2.52,7.19-5.6,14.75-8.59,22.07Zm8.27-24.61c-2.42,6.36-4.66,13.08-6.81,19.72,2.67-6.56,5.37-13.26,7.61-19.66h-.17Zm28.09,1.89.21.34c0-.1.08-.21.11-.31l-.19,0Zm-6.79-.55h0c1.5.17,3,.37,4.51.57l1.62.21.11-.26C260,281,258,280.86,255.86,280.66Zm-19.81-1.73,3.94.29c3.14.23,6.35.47,9.57.77-4.58-.54-9.06-1.14-13.28-1.72l-.18.52A.78.78,0,0,0,236.05,278.93Zm-1-.84-.42,1.11,1.52-.95Z" transform="translate(0.02 -0.2)"/><path class="cls-1" d="M238.38,296.42c-3.65-5.77.8-12.4,7.55-10.6,3.73.9,6.68,4.75,5.75,8.68-1.53,6.78-9.85,7.8-13.3,1.92Zm.12-.07c2.87,4.58,10.59,2.91,11.82-2.17,1.48-5.67-4.36-10.33-9.32-6.75-2.72,1.88-4.43,5.84-2.5,8.92Z" transform="translate(0.02 -0.2)"/><path class="cls-1" d="M244.77,300.53a7.68,7.68,0,0,1-6.61-4,7.47,7.47,0,0,1,0-8.55,7.09,7.09,0,0,1,7.85-2.42c3.67.89,6.93,4.71,5.93,9a7.37,7.37,0,0,1-6,5.88A7.52,7.52,0,0,1,244.77,300.53Zm-4.21-2a6.78,6.78,0,0,0,5.28,1.38,6.86,6.86,0,0,0,5.6-5.49,7.05,7.05,0,0,0-3.79-7.69l.36.22a6.65,6.65,0,0,1,2.55,7.27,7.22,7.22,0,0,1-10,4.31Zm4.11-12.14a6.06,6.06,0,0,0-3.52,1.21c-2.63,1.82-4.3,5.61-2.44,8.58h0a5.82,5.82,0,0,0,6,2.47,6.34,6.34,0,0,0,5.34-4.56,6.15,6.15,0,0,0-2.36-6.73A5.33,5.33,0,0,0,244.67,286.42Zm-1-.65a6.25,6.25,0,0,0-5.16,2.52,6.55,6.55,0,0,0-1.13,5,7.91,7.91,0,0,1,3.44-6.11,6.35,6.35,0,0,1,4.91-1.19A8.39,8.39,0,0,0,243.71,285.77Z" transform="translate(0.02 -0.2)"/><path class="cls-1" d="M175.41,316.07C181,308.9,187,301.17,193,294.35c8.28,4.38,16.58,8.74,25.16,12.52l.47.21c-1.57,1.92-3.11,3.87-4.69,5.78-4.37,5.28-9.26,11.12-13.74,16.31-7.41-3.66-17.4-9.13-24.76-13.1Zm.15,0c7.29,3.28,17.7,8,24.77,11.43l-1,.19c2.58-3,6.37-7.38,9.05-10.41Q213,312,217.64,307l.13.63c-2-1.05-4.08-2.14-6.14-3.16-6.15-3.15-12.5-5.89-18.79-8.75l.75-.16c-5.53,6.81-12.11,14-18,20.51Z" transform="translate(0.02 -0.2)"/><path class="cls-1" d="M200.24,329.48l-.18-.09c-6.17-3-14-7.26-20.86-11l-3.91-2.11-.26-.14,1.24-1.59c5.35-6.87,10.89-14,16.51-20.37l.13-.15.17.09c7.56,4,16.11,8.51,24.71,12.31h0l.44.2.15.07.33.15.29.13-.2.25c-.6.73-1.19,1.46-1.78,2.2q-1.46,1.8-2.92,3.58c-3.46,4.19-8.65,10.42-13.74,16.31Zm-19.7-10.92c6.54,3.53,13.76,7.42,19.57,10.3,5-5.84,10.17-12,13.61-16.16,1-1.18,1.94-2.38,2.91-3.58l1-1.29h0l-.31-.16c-3.25,3.56-6.11,6.75-8.73,9.75-2.51,2.85-6,6.79-8.44,9.7l.26.13.66.32-2.39.49.48-.55.18-.22C194.09,324.72,187.22,321.57,180.54,318.56ZM176,316c8.11,3.64,17.17,7.74,23.74,10.94,2.51-2.93,6-6.93,8.54-9.81s5.43-6.14,8.64-9.65l-1.35-.71c-1.34-.69-2.67-1.39-4-2.06-4.73-2.42-9.66-4.64-14.42-6.78l-3.74-1.68c-4.82,5.9-10.31,11.95-15.63,17.81Zm16.19-20.3c-4.45,5.15-8.85,10.71-13.14,16.2,4.75-5.24,9.58-10.62,13.87-15.87l-.15-.07ZM217.91,307l.08.39.21-.25-.17-.09h0Zm-6.22-2.85.06,0c1.34.67,2.68,1.37,4,2.07l1.46.76.2-.21C215.51,306,213.6,305.09,211.69,304.19Zm-18-8.39,3.61,1.62c2.89,1.3,5.84,2.63,8.77,4-4.13-2.07-8.15-4.18-11.94-6.18l-.35.43Zm-.67-1.13c-.26.29-.51.59-.77.89l1.76-.38Z" transform="translate(0.02 -0.2)"/><path class="cls-1" d="M189.9,313c-1.45-6.67,5-11.38,10.72-7.37,3.2,2.11,4.65,6.74,2.44,10.12-3.77,5.85-11.93,4-13.16-2.75Zm.14,0c1.13,5.29,9,6.36,11.85,2,3.33-4.82-.56-11.19-6.45-9.53-3.2.84-6.16,4-5.4,7.52Z" transform="translate(0.02 -0.2)"/><path class="cls-1" d="M197,319.52a6.56,6.56,0,0,1-1.39-.14,7.59,7.59,0,0,1-6-6.3,7.46,7.46,0,0,1,2.92-8,7.08,7.08,0,0,1,8.2.41c3.14,2.09,4.9,6.8,2.5,10.47A7.47,7.47,0,0,1,197,319.52Zm-5.78-3.73a6.78,6.78,0,0,0,11.63-.15,7.07,7.07,0,0,0-.93-8.52l.26.33a6.64,6.64,0,0,1-.09,7.7,7.23,7.23,0,0,1-10.87.64Zm6.11-10.33a6.9,6.9,0,0,0-1.82.26c-3.09.81-6,3.8-5.22,7.23h0a5.79,5.79,0,0,0,4.82,4.38,6.33,6.33,0,0,0,6.57-2.46,6.15,6.15,0,0,0,.09-7.13A5.34,5.34,0,0,0,197.33,305.46Zm-1.1-1a6.09,6.09,0,0,0-3.39,1,6.48,6.48,0,0,0-2.78,4.34,7.93,7.93,0,0,1,5.31-4.56,6.34,6.34,0,0,1,5,.57A7.4,7.4,0,0,0,196.23,304.42Z" transform="translate(0.02 -0.2)"/><path class="cls-1" d="M124,310c7.7-4.83,16-10,23.92-14.41,6.29,6.95,12.6,13.89,19.37,20.37l.37.37c-2.13,1.27-4.24,2.57-6.39,3.81-5.91,3.48-12.5,7.29-18.48,10.63-5.71-6-13.23-14.53-18.79-20.77Zm.15,0c5.73,5.57,13.91,13.55,19.37,19.21l-1-.14c3.46-2,8.51-4.76,12.07-6.69q6-3.33,12.17-6.51l-.1.64c-1.56-1.69-3.1-3.41-4.68-5.08-4.71-5.06-9.74-9.8-14.67-14.64l.76.1c-7.53,4.51-16.16,9-24,13.11Z" transform="translate(0.02 -0.2)"/><path class="cls-1" d="M142.75,331.05l-.13-.14c-4.76-5-10.66-11.62-15.87-17.49l-2.93-3.29-.19-.23,1.72-1.08c7.37-4.62,15-9.4,22.46-13.49l.18-.09.13.15c5.73,6.33,12.22,13.49,19,20h0l.35.33.6.6-.27.16L165.39,318c-1.32.79-2.64,1.59-4,2.37-4.7,2.76-11.72,6.85-18.49,10.63Zm-14.77-17c4.93,5.56,10.39,11.69,14.87,16.37,6.7-3.75,13.65-7.79,18.31-10.53q2-1.17,4-2.37l1.41-.85h0l-.24-.26c-4.21,2.2-8,4.23-11.53,6.18-3.35,1.81-7.92,4.35-11.26,6.22l.21.22.51.52-2.41-.36.63-.35.25-.14C138.6,324.47,133.23,319.17,128,314.05Zm-3.4-4c6.37,6.2,13.48,13.15,18.56,18.39,3.35-1.88,8-4.45,11.38-6.29s7.25-3.94,11.42-6.12l-1-1.12c-1-1.11-2-2.22-3.08-3.31-3.61-3.9-7.49-7.67-11.24-11.31l-2.92-2.85c-6.54,3.88-13.76,7.69-20.75,11.37ZM167,316l-.06.4.28-.17-.13-.14Zm-4.85-4.79,0,0q1.56,1.65,3.07,3.32l1.12,1.22.25-.13C165.15,314.2,163.66,312.71,162.19,311.22ZM146.74,296.5c-6,3.31-12,7-17.9,10.73,6.26-3.31,12.64-6.7,18.47-10.17l-.12-.12Zm1.38.66,2.83,2.76c2.26,2.2,4.58,4.45,6.85,6.74-3.16-3.35-6.21-6.7-9.07-9.86l-.48.29Zm-1.27-.72,1.78.25-.75-.82Z" transform="translate(0.02 -0.2)"/><path class="cls-1" d="M138.66,312.06c.92-6.76,8.59-9,12.6-3.26,2.28,3.08,2.07,7.92-1.17,10.34-5.54,4.21-12.56-.36-11.43-7.08Zm.15,0c-.75,5.35,6.24,9,10.44,5.94,4.78-3.39,3.3-10.71-2.8-11.16-3.29-.31-7.15,1.62-7.64,5.22Z" transform="translate(0.02 -0.2)"/><path class="cls-1" d="M145.51,321a7,7,0,0,1-3.65-1,7.59,7.59,0,0,1-3.45-8,7.48,7.48,0,0,1,5.49-6.56,7.1,7.1,0,0,1,7.57,3.19c2.24,3,2.29,8.07-1.23,10.69A7.85,7.85,0,0,1,145.51,321ZM139,315.11a6.78,6.78,0,0,0,11,3.83,7.06,7.06,0,0,0,2-8.32c.05.13.09.26.13.4a6.63,6.63,0,0,1-2.71,7.2A7.24,7.24,0,0,1,139,315.11Zm6.79-8c-3,0-6.25,1.81-6.69,5h0a5.8,5.8,0,0,0,3,5.76,6.36,6.36,0,0,0,7-.06,6.15,6.15,0,0,0,2.53-6.67,5.53,5.53,0,0,0-5.2-4C146.21,307.09,146,307.07,145.75,307.07Zm-.26-1.3A6.16,6.16,0,0,0,144,306a6.46,6.46,0,0,0-4.1,3.13,7.89,7.89,0,0,1,6.55-2.47,6.35,6.35,0,0,1,4.53,2.25A6.81,6.81,0,0,0,145.49,305.77Z" transform="translate(0.02 -0.2)"/><path class="cls-1" d="M77.8,286.64c8.89-1.9,18.43-4,27.41-5.36,3.53,8.68,7.08,17.36,11.23,25.77l.22.46c-2.44.47-4.87,1-7.31,1.41-6.74,1.24-14.23,2.57-21,3.66C85,305,80.89,294.41,77.8,286.64Zm.13.07c3.48,7.2,8.44,17.48,11.63,24.67l-.85-.46c3.93-.66,9.63-1.56,13.63-2.16,4.54-.7,9.1-1.34,13.66-1.95l-.31.57c-.89-2.13-1.75-4.26-2.67-6.37-2.69-6.37-5.79-12.55-8.77-18.79l.68.36c-8.62,1.67-18.26,2.92-27,4.13Z" transform="translate(0.02 -0.2)"/><path class="cls-1" d="M88.2,312.86l-.08-.18c-2.78-6.32-6.06-14.6-9-21.91-.56-1.41-1.1-2.76-1.6-4l-.11-.28,2-.42c8.51-1.82,17.31-3.71,25.72-5l.19,0,.08.18c3.22,7.9,6.86,16.85,11,25.31h0l.21.44.36.76-.31.06-2.74.53c-1.52.3-3,.6-4.57.87-5.38,1-13.39,2.44-21,3.67Zm-8.07-21c2.73,6.92,5.77,14.54,8.37,20.48,7.56-1.23,15.48-2.65,20.81-3.64,1.52-.27,3-.57,4.57-.87l1.59-.31h0l-.13-.33c-4.78.64-9,1.25-13,1.86-3.76.56-8.93,1.38-12.7,2l.12.27.3.67L88,310.79l.72-.12.28-.05C86.54,305.24,83.3,298.43,80.13,291.83Zm-1.83-4.92c3.87,8,8.16,16.93,11.16,23.63,3.79-.63,9-1.45,12.84-2s8.1-1.21,12.83-1.85c-.2-.46-.39-.93-.58-1.39-.58-1.4-1.15-2.79-1.76-4.18-2.06-4.89-4.42-9.75-6.69-14.46L104.32,283c-7.47,1.42-15.56,2.53-23.38,3.6ZM116.16,307l-.19.35.33-.06-.09-.18A1.17,1.17,0,0,1,116.16,307Zm-2.93-6.18s0,0,0,.05c.6,1.38,1.18,2.78,1.76,4.18l.63,1.51.28,0C115,304.68,114.11,302.78,113.23,300.86Zm-8.4-18c.57,1.19,1.15,2.37,1.72,3.56,1.38,2.85,2.78,5.76,4.13,8.69-1.83-4.24-3.54-8.43-5.16-12.39l-.54.11Zm-1.08-1.1c-6.72,1.08-13.66,2.51-20.49,4,7-1,14.18-2,20.84-3.23l-.07-.16Zm.13,0,1.59.85-.42-1Z" transform="translate(0.02 -0.2)"/><path class="cls-1" d="M90.85,293.62c3.17-6,11.14-5.51,13,1.24,1.09,3.68-.77,8.16-4.64,9.32-6.64,2.06-11.68-4.63-8.31-10.56Zm.13.07c-2.54,4.77,2.77,10.63,7.78,9.15,5.65-1.55,6.77-8.93,1.19-11.44-3-1.42-7.28-.92-9,2.29Z" transform="translate(0.02 -0.2)"/><path class="cls-1" d="M96.76,304.81a7.13,7.13,0,0,1-5.62-2.65,7.59,7.59,0,0,1-.51-8.66,7.48,7.48,0,0,1,7.4-4.29,7.12,7.12,0,0,1,6,5.59c1.07,3.62-.61,8.36-4.82,9.62A8.26,8.26,0,0,1,96.76,304.81Zm-6.67-8.22a6.77,6.77,0,0,0,9,7.35,7.07,7.07,0,0,0,4.77-7.13c0,.14,0,.29,0,.43a6.63,6.63,0,0,1-5,5.84,7.23,7.23,0,0,1-8.74-6.49Zm6.44-5.7a5.82,5.82,0,0,0-5.33,2.92h0a5.8,5.8,0,0,0,.87,6.45,6.36,6.36,0,0,0,6.62,2.34,6.13,6.13,0,0,0,4.65-5.4,5.54,5.54,0,0,0-3.5-5.58A7.89,7.89,0,0,0,96.53,290.89Zm0-.5a8.34,8.34,0,0,1,3.51.78,6.31,6.31,0,0,1,3.49,3.67A6.59,6.59,0,0,0,98,289.71a6.49,6.49,0,0,0-4.93,1.54A7.25,7.25,0,0,1,96.54,290.39Z" transform="translate(0.02 -0.2)"/><path class="cls-1" d="M258.31,239.77c-5.27,4.56-10.91,9.49-16.44,13.74-5.58-4.52-11.18-9-17.08-13.15l-.32-.23c1.46-1.22,2.91-2.45,4.38-3.65,4.07-3.33,8.62-7,12.76-10.24,5,3.85,11.75,9.45,16.7,13.53Zm-.12,0c-5-3.55-12.14-8.63-16.95-12.27H242c-2.4,1.9-5.9,4.61-8.36,6.49q-4.2,3.24-8.46,6.38v-.5c1.38,1.1,2.75,2.22,4.15,3.29,4.16,3.29,8.54,6.29,12.85,9.38h-.59c5.17-4.3,11.19-8.72,16.61-12.76Z" transform="translate(0.02 -0.2)"/><path class="cls-1" d="M241.87,253.83l-.15-.12c-5.09-4.12-10.84-8.77-16.73-12.91l-.06,0v-.09l-.28-.19-.59-.43.25-.2.6-.51v-.09l.06,0,1-.83c.91-.76,1.82-1.53,2.75-2.28,3.25-2.65,8.1-6.59,12.76-10.24l.15-.12.15.12c4.2,3.21,9.45,7.54,14.08,11.37l2.85,2.35-1.22,1.06c-5,4.38-10.26,8.91-15.44,12.89Zm-.49-1,.5.4.54-.42Zm-5.72-4.59c1.88,1.49,3.71,3,5.47,4.39l.29-.25,0,0L239,250.6Zm6.61,4.09,0,0,.36.26c3.69-2.88,7.39-6,11-9.16C249.79,246.34,245.86,249.32,242.27,252.29ZM225.9,240.13l.83.66c.91.73,1.82,1.46,2.74,2.17,3.2,2.52,6.58,4.92,9.85,7.24l2.53,1.79c4.48-3.71,9.49-7.43,14.34-11l1.58-1.18c-5.21-3.69-11.62-8.26-16.15-11.67-2.31,1.82-5.51,4.3-7.84,6.08S228.8,238,225.9,240.13Zm-.49.36,1.31.93-.3-.24-.93-.75Zm-.54-.38,0,0v-.07Zm.5-.41.13.11c2.94-2.18,5.55-4.15,8-6s5.43-4.19,7.74-6l-.12-.1-.47-.35c-4.29,3.38-8.63,6.89-11.61,9.33-.92.75-1.83,1.51-2.74,2.28ZM242,227.78c3.25,2.45,7.45,5.48,11.48,8.35-3.66-3-7.55-6.2-10.91-8.81l-.46.37Zm-.42-1.22-.88.69h1.77Z" transform="translate(0.02 -0.2)"/><path class="cls-1" d="M247,239.91c.11,5.23-5.44,7.82-9.16,4-2.09-2.07-2.5-5.77-.33-8,3.69-3.84,9.56-1.21,9.49,4Zm-.11,0c-.06-4.15-5.8-6.12-8.62-3.27-3.22,3.13-1.23,8.51,3.44,8.13,2.54-.16,5.23-2.08,5.18-4.86Z" transform="translate(0.02 -0.2)"/><path class="cls-1" d="M241.81,246a5.84,5.84,0,0,1-4.2-1.94c-2.08-2.06-2.71-5.9-.33-8.33a5.71,5.71,0,0,1,6.34-1.49,5.88,5.88,0,0,1,3.58,5.68,5.79,5.79,0,0,1-3.42,5.68A5.06,5.06,0,0,1,241.81,246Zm-2.94-1.5a4.77,4.77,0,0,0,7.19-1.66,6.26,6.26,0,0,1-4.38,2.2A5.15,5.15,0,0,1,238.87,244.48Zm2.73-8.93a4.46,4.46,0,0,0-3.2,1.26,4.65,4.65,0,0,0-1.11,5.29,4.19,4.19,0,0,0,4.35,2.42c2.42-.15,5-2,5-4.61h0a4.41,4.41,0,0,0-2.94-4A5.57,5.57,0,0,0,241.6,235.55Zm-.06-1.24a5.43,5.43,0,0,0-3.9,1.75,5.09,5.09,0,0,0-1.22,4.77,5.25,5.25,0,0,1,1.63-4.37,5.3,5.3,0,0,1,5.79-1,5.53,5.53,0,0,1,2.23,1.62,5.12,5.12,0,0,0-2.64-2.42A4.83,4.83,0,0,0,241.54,234.31Z" transform="translate(0.02 -0.2)"/></svg>