<svg id="Layer_1" data-name="Layer 1" xmlns="http://www.w3.org/2000/svg" viewBox="0 0 332.77 332.77"><defs><style>.cls-1{stroke:#fff;stroke-miterlimit:10;}.cls-2{fill:#fff;}</style></defs><circle class="cls-1" cx="166.39" cy="166.39" r="165.89"/><path class="cls-2" d="M294.88,167.26C295,258.83,202.71,322,117.85,286c-46.95-19.5-79.41-67.86-79.31-118.75C37.68,75.53,131.91,12.47,216.45,48c47.14,19.3,79.08,68.53,78.43,119.29Zm-.3,0c.14-79.39-74.73-139.41-152.15-123.72-58.31,11-102.35,64.39-102.27,123.72-.66,80.36,73.14,139.84,151.54,124,58.38-11.22,103.41-64.15,102.88-124Z" transform="translate(-0.65 -0.87)"/><path class="cls-2" d="M154.5,40.32a19.46,19.46,0,0,0-10.4,3.12c-2.8,1.9-5.45,4.56-5.55,8-.07,1.8.82,3.43,1.2,5.29.8,3.38-1.34,6.18-4.25,7.51a28.73,28.73,0,0,0-13.28,13.63c-2.69,6.77.11,14.29,4.52,19.75a26,26,0,0,0,8.7,6.85.16.16,0,0,1,.07.2.16.16,0,0,1-.17.08A20.85,20.85,0,0,1,125,99.2c-5.86-5.51-9.14-14.84-5.38-22.45,2.63-5.45,7.66-9.26,12.87-12,3.23-1.56,7.27-3.39,5.65-7.6-.71-1.77-2-3.52-2.08-5.63-.32-4.56,3.14-8,6.8-10A15.78,15.78,0,0,1,154.53,40a.15.15,0,0,1,0,.29Z" transform="translate(-0.65 -0.87)"/><path class="cls-2" d="M127.44,99.77c1,7-1.61,15-7.52,19.27-3,2.21-6.1,3.65-8.82,5.46a36.46,36.46,0,0,0-15.63,24.38c-1,5.16.49,10.06,1.75,15.05a23.59,23.59,0,0,1-.37,10.73c-1.21,5.38-5.9,9.45-9.6,12.83-10,9.13-15.54,21.69-19.45,34.48a120.8,120.8,0,0,0-4.11,20,.2.2,0,0,1-.4,0c-.13-1.73-.17-3.46-.16-5.2a79.16,79.16,0,0,1,1.65-15.57c2.75-13.68,8.93-27.51,20-36.49,3.26-2.89,6.53-5.15,8.52-8.76,2.93-5.12,2.79-11.2,1.36-16.8-1.56-6.9-.21-14.06,1.8-20.73a30.17,30.17,0,0,1,12.77-16.88c2.91-1.86,6.11-3.18,8.93-5,5.61-3.59,8.33-10.18,8.9-16.76,0-.22.38-.24.4,0Z" transform="translate(-0.65 -0.87)"/><path class="cls-2" d="M162.26,83.47c-11.49,7-19.17,19.17-22,32.15-.81,4.23-.43,8.71,2.16,12.24,3.81,5,2,8.55-.7,13.44a37.36,37.36,0,0,0-2.9,5.85,56.24,56.24,0,0,1-2.11,6.48,101.75,101.75,0,0,1-13.83,22.5c-.11.1-.32.39-.42.5l0,0,0,0a1.07,1.07,0,0,0,.26-.83l-.35.94c-.77.91-2,2.06-1.74,3.09s2,1.82,3.12,2.34a77.77,77.77,0,0,0,9.61,3.14,9.77,9.77,0,0,1,2.84,1.09c4.46,3.51-2,9.8-4,13-.82,1.41,0,1.91.71,3.29a23.58,23.58,0,0,0,2.19,3,4.84,4.84,0,0,1,.92,1.57,3.91,3.91,0,0,1-.86,3.68c-1.2,1.54-.49,3.92.79,5.19.55.53,1.29,1.24,1.88,1.92a16.14,16.14,0,0,1,3,4.79c.79,2.11.82,4.28,1.53,6.33a14.09,14.09,0,0,1,.81,4.18c.09,1.76-.56,3.54-.59,5.16.12,4.79,4.44,8.31,8.52,10.52,8.25,4.61,18.18,2.93,27,.82a115.47,115.47,0,0,0,19.55-6.31,119.89,119.89,0,0,0,18.15-9.79,108.68,108.68,0,0,1-47.53,19.83c-7,1-14.59.2-20.59-3.84-3.92-2.39-7.58-6.31-7.69-11.21.12-2.81,1.08-5.22,0-7.9-1.13-2.9-1-6.28-2.83-8.82-1.12-1.89-2.9-3.08-4.22-4.89-1.44-2.23-1.82-5.53-.07-7.7.43-.6.51-.58.42-1.07a11,11,0,0,0-1.25-1.64,19.52,19.52,0,0,1-3-4.91c-.62-2.43,1-4.25,2.16-5.87a42.85,42.85,0,0,0,2.73-4.14,4.28,4.28,0,0,0,.76-2.53c0-.15,0-.12-.18-.23a8.53,8.53,0,0,0-2-.71c-4.18-1.42-12.94-2.92-14.66-7.41-.83-2.22,1-4.45,2.33-5.87l-.36,1a2.77,2.77,0,0,1,.88-1.56,99.8,99.8,0,0,0,13.69-21.67c1-2.07,1.4-4.09,2.17-6.29a38.6,38.6,0,0,1,3.2-6.14c1.35-2.65,3.63-5.46,2.51-8.53-.72-2-2.39-3.84-3.11-5.92a18.62,18.62,0,0,1-.47-10.43,46.35,46.35,0,0,1,5-12.68,45.31,45.31,0,0,1,18.6-19.17Z" transform="translate(-0.65 -0.87)"/><path class="cls-2" d="M158,151.1c1.11-6.24,6.61-11.35,12.77-12.64a17.6,17.6,0,0,1,9.47,0,10.91,10.91,0,0,0,8.26-.65,7.88,7.88,0,0,1-3.9,2.58,12,12,0,0,1-5.42.25,12.28,12.28,0,0,0-1.48-.11c-8.17,0-15.24,3.53-19.7,10.56Z" transform="translate(-0.65 -0.87)"/><path class="cls-2" d="M172,139.7a46.25,46.25,0,0,1,1.65,14.48c0,3.46-1.74,6.9-5.7,5.9-5.81-1.39-5.59-12-4.5-16.47.54,3.09,1.88,13.16,5.18,13.62,2,.53,1.95-1.85,2.22-3.3.53-4.71.71-9.43,1.15-14.23Z" transform="translate(-0.65 -0.87)"/><path class="cls-2" d="M151.83,128c3.08,4.28,6.93,3.58,11.09,1.37,3.91-1.89,7.66-4.16,11.51-6.41s8.38-4.47,13-4.46a28.59,28.59,0,0,1,13.21,3,43.66,43.66,0,0,0-13-.73c-6.59.74-11.75,5.1-17.6,7.94-5.59,2.74-15,7.62-18.19-.75Z" transform="translate(-0.65 -0.87)"/><path class="cls-2" d="M193.21,80.3c12.3-.14,26.73,4.11,32.33,16.1,4.53,10.4,3.4,22.88-2.29,32.59-2.35,3.79-4.46,7.28-1.4,11.3,1.89,2.5,4.92,4.3,6,7.65,1.44,3.95-.9,6.8-2.86,9.74a44.11,44.11,0,0,0-4,8.11c-4,9.88-3.43,27.52,10.09,28.53l-.8,1.68c-3-3.55-5.92-8.35-4.84-13.27.74-3.23,3.13-5.43,4.66-8.19a38.71,38.71,0,0,0,4.71-12.87A36.13,36.13,0,0,1,231,175c-1.27,2.68-3.54,5.1-4,8-.7,4.46,2,8.45,5,11.66l1.59,1.74c-4.17.11-8.45-.67-11.6-3.75-4.83-4.8-6-11.9-5.57-18.38a41.85,41.85,0,0,1,6.26-18.13c.82-1.37,1.85-2.7,2.41-3.82,1.12-2.51-.24-4.84-2.13-6.72-4-3.54-7.1-8.45-4.37-13.85,1.43-2.93,3.26-5.24,4.49-8.15A37.27,37.27,0,0,0,225.77,106c-1.09-17.42-17-24.62-32.56-25.65Z" transform="translate(-0.65 -0.87)"/><path class="cls-2" d="M243.72,148.66c4.28-5.07,11.93-4.94,14.9,1.46,2.38,5.56.32,12.59-4.32,16.3a21.68,21.68,0,0,0-6.6,8.68,18,18,0,0,1,5.58-9.83c3.75-3.53,5.49-9.54,3.63-14.39-2.35-5.7-8.76-5.67-13.19-2.22Z" transform="translate(-0.65 -0.87)"/><path class="cls-2" d="M231.25,189.59c4.37,5.35,12.27,3.73,11.77-3.77a5.44,5.44,0,0,1,.47,5c-2.46,5.88-10.83,4.63-12.24-1.24Z" transform="translate(-0.65 -0.87)"/><path class="cls-2" d="M235.69,182.54c-2.12.71-1.92,2.86-1.29,4.59a4.24,4.24,0,0,0,1.37,2.45c1.74,1.21,3.6-.63,4.08-2.21.84-2.49-1.37-5.63-4.16-4.83Zm-.06-.19c2.33-.87,5.17-.87,6.2,2a4.83,4.83,0,0,1-3,6.14c-2.38.73-4.69-.71-5.93-2.64-1.61-2.61.23-4.78,2.72-5.47Z" transform="translate(-0.65 -0.87)"/><path class="cls-2" d="M43.91,247.89c8.89,1.24,18.45,2.54,27.24,4.29.35,9.25.71,18.5,1.72,27.7l0,.51c-2.42-.39-4.84-.74-7.25-1.16-6.68-1.12-14.08-2.42-20.73-3.69-.54-8.15-.79-19.39-1-27.65Zm.1.11c.8,7.86,1.92,19.08,2.46,26.83l-.64-.72c3.87.72,9.46,1.81,13.38,2.61q6.67,1.32,13.34,2.8l-.48.42c-.11-2.27-.19-4.55-.33-6.82-.34-6.81-1.13-13.59-1.79-20.38l.5.56C61.9,251.93,52.52,249.84,44,248Z" transform="translate(-0.65 -0.87)"/><path class="cls-2" d="M73.2,280.69l-.32-.05-2.75-.44c-1.5-.23-3-.47-4.51-.73-5.3-.89-13.2-2.25-20.73-3.69l-.19,0v-.19c-.44-6.79-.69-15.56-.9-23.29,0-1.52-.09-3-.13-4.36v-.29l2,.27c8.52,1.19,17.33,2.41,25.58,4.06l.19,0v.19c.32,8.44.68,18,1.67,27.21h0c0,.16,0,.32.05.48Zm-.88-.64.33.05,0-.19s0-.08,0-.13Zm-27.15-4.72c7.47,1.42,15.28,2.77,20.54,3.66q2.25.38,4.5.72l1.61.26v0c0-.11,0-.23,0-.34-4.65-1-8.79-1.89-12.65-2.65-3.71-.76-8.78-1.75-12.47-2.44,0,.1,0,.2,0,.29l0,.73-1.59-1.8.71.13.28.05c-.42-5.79-1.12-13.21-1.84-20.41C44.52,260.85,44.76,269,45.17,275.33Zm27.11,3.87.28.07q-.33-3.09-.57-6.19v0c.09,1.49.16,3,.22,4.48C72.23,278.13,72.26,278.67,72.28,279.2ZM46.66,274c3.7.7,8.84,1.7,12.6,2.46s7.93,1.62,12.52,2.63l-.06-1.49c-.07-1.49-.13-3-.22-4.47-.27-5.25-.81-10.56-1.33-15.69-.13-1.34-.27-2.68-.4-4-7.41-1.21-15.28-2.92-22.9-4.56l-2.58-.56C45.18,257.05,46.14,266.81,46.66,274Zm23.61-20.49.39,3.88c.32,3.1.64,6.27.9,9.44-.26-4.54-.44-9-.6-13.21l-.55-.09Zm-.5-1.36L71,253.48c0-.36,0-.73,0-1.09Zm-20.48-3.27c6.84,1.48,13.82,3,20.43,4,0-.06,0-.11,0-.17l-.06-.62C63,250.87,56.12,249.85,49.29,248.89Z" transform="translate(-0.65 -0.87)"/><path class="cls-2" d="M53.66,258.78c5-4.53,12.2-1.35,11.6,5.53-.23,3.78-3.47,7.31-7.45,7.08-6.86-.33-9.27-8.24-4.15-12.61Zm.1.11c-4,3.57-1,10.8,4.13,11.12,5.76.47,9.3-6,5-10.22-2.29-2.32-6.43-3.31-9.09-.9Z" transform="translate(-0.65 -0.87)"/><path class="cls-2" d="M58.19,271.65h-.4a7.26,7.26,0,0,1-6.74-4.84,7.47,7.47,0,0,1,2.45-8.2,7.36,7.36,0,0,1,8.31-1.48,7,7,0,0,1,3.7,7.21C65.29,267.94,62.32,271.65,58.19,271.65ZM52,261.28a6.7,6.7,0,0,0,5.87,9.87,6.94,6.94,0,0,0,6.83-5c0,.13-.1.25-.15.38a6.56,6.56,0,0,1-6.63,3.73,7.15,7.15,0,0,1-5.92-9Zm5.55-3.54a5.23,5.23,0,0,0-3.58,1.34h0a5.74,5.74,0,0,0-1.37,6.28,6.29,6.29,0,0,0,5.35,4.41,6.06,6.06,0,0,0,6.15-3.45A5.45,5.45,0,0,0,62.68,260,7.53,7.53,0,0,0,57.5,257.74Zm0-.49A8,8,0,0,1,63,259.62a6.26,6.26,0,0,1,2,4.57,6.33,6.33,0,0,0-8.53-6.87A6.59,6.59,0,0,1,57.49,257.25Z" transform="translate(-0.65 -0.87)"/><path class="cls-2" d="M23.76,200.92c7.93,4.2,16.47,8.69,24.13,13.35-2.84,8.81-5.66,17.62-7.86,26.61l-.13.5c-2.13-1.2-4.29-2.36-6.42-3.58-5.89-3.33-12.4-7.09-18.21-10.56,2.28-7.83,5.89-18.48,8.49-26.32Zm0,.14c-1.93,7.65-4.71,18.58-6.86,26l-.35-.89c3.38,2,8.27,4.94,11.67,7q5.83,3.53,11.58,7.2l-.59.23c.67-2.17,1.38-4.33,2-6.51,2-6.53,3.59-13.17,5.29-19.78l.28.7c-7.57-4.21-15.66-9.38-23-14Z" transform="translate(-0.65 -0.87)"/><path class="cls-2" d="M40.06,241.75l-.28-.16-2.42-1.34q-2-1.09-4-2.23c-4.67-2.65-11.62-6.63-18.22-10.56l-.16-.1,0-.19c1.9-6.53,4.68-14.85,7.12-22.2.48-1.43.94-2.82,1.37-4.13l.09-.28,1.8.95c7.59,4,15.43,8.18,22.61,12.54l.16.11-.06.18c-2.58,8-5.5,17.11-7.73,26.14h0l-.12.46Zm-.6-.9.28.16,0-.19,0-.12Zm-23.9-13.72C22.1,231,29,235,33.61,237.59c1.32.76,2.66,1.49,4,2.23l1.42.78h0c0-.11.07-.22.1-.33-4-2.54-7.6-4.78-11-6.82s-7.66-4.64-10.88-6.55c0,.1-.06.19-.08.28l-.21.7-.88-2.24.62.37.25.14c1.58-5.58,3.46-12.8,5.25-19.81C19.9,213.29,17.36,221,15.56,227.13ZM39.71,240l.24.16q.73-3,1.58-6v0c-.43,1.44-.88,2.87-1.33,4.3ZM17.41,226.4c3.24,1.92,7.73,4.62,11,6.62s6.91,4.24,10.88,6.75c.14-.46.29-.93.44-1.39.45-1.43.9-2.87,1.33-4.3,1.54-5,2.85-10.19,4.12-15.19l1-3.92c-6.55-3.67-13.37-8-20-12.13L24,201.44C21.82,210,19.38,219.45,17.41,226.4Zm29.2-11.18c-.33,1.26-.65,2.52-1,3.79-.76,3-1.54,6.1-2.38,9.17,1.31-4.36,2.66-8.61,4-12.62l-.48-.27Zm0-1.45.67,1.65.33-1ZM28.47,203.7c5.92,3.72,12,7.5,17.82,10.78,0-.06,0-.11,0-.17l.16-.6C40.72,210.26,34.56,206.93,28.47,203.7Z" transform="translate(-0.65 -0.87)"/><path class="cls-2" d="M29.2,214.48c6.23-2.55,11.92,2.91,9,9.17-1.51,3.47-5.76,5.68-9.43,4.1-6.33-2.65-5.89-10.92.42-13.27Zm.05.14c-4.95,2-4.65,9.8.08,11.86,5.25,2.42,10.79-2.46,8.16-7.9-1.36-3-4.92-5.31-8.24-4Z" transform="translate(-0.65 -0.87)"/><path class="cls-2" d="M31.34,228.53a6.71,6.71,0,0,1-2.66-.55A7.25,7.25,0,0,1,24,221.13a7.49,7.49,0,0,1,5.11-6.88,7.39,7.39,0,0,1,8.32,1.46,7,7,0,0,1,1,8A8,8,0,0,1,31.34,228.53Zm-4.6-12.29a6.69,6.69,0,0,0,2.14,11.29A7,7,0,0,0,37,225.16a4.12,4.12,0,0,1-.28.31,6.56,6.56,0,0,1-7.51,1.24,7.14,7.14,0,0,1-2.48-10.47Zm4.52-1.77a5.09,5.09,0,0,0-1.92.38h0a5.74,5.74,0,0,0-3.43,5.44,6.25,6.25,0,0,0,3.52,6,6.08,6.08,0,0,0,7-1.14,5.47,5.47,0,0,0,.89-6.43A7.05,7.05,0,0,0,31.26,214.47Zm1.1-.38a7.82,7.82,0,0,1,5.35,4.39,6.25,6.25,0,0,1,.31,5,6.51,6.51,0,0,0-1-7.42A6.4,6.4,0,0,0,32.36,214.09Z" transform="translate(-0.65 -0.87)"/><path class="cls-2" d="M20.89,149.88c6,6.67,12.5,13.8,18.11,20.8C33.32,178,27.65,185.31,22.51,193l-.29.42c-1.6-1.86-3.23-3.69-4.81-5.56C13,182.72,8.18,177,3.91,171.72c4.82-6.58,11.86-15.36,17-21.84Zm0,.15c-4.44,6.53-10.79,15.85-15.36,22.13l0-1c2.5,3,6.08,7.47,8.57,10.59q4.28,5.31,8.42,10.72l-.64,0c1.37-1.81,2.78-3.6,4.13-5.43,4.12-5.44,7.87-11.15,11.73-16.77l0,.75c-5.68-6.54-11.52-14.17-16.86-21.05Z" transform="translate(-0.65 -0.87)"/><path class="cls-2" d="M22.24,193.83l-.21-.24-1.8-2.08c-1-1.15-2-2.31-3-3.48-3.49-4.09-8.67-10.22-13.51-16.16l-.12-.14.12-.16c4-5.49,9.48-12.37,14.29-18.44l2.69-3.4.18-.23L22.26,151C28,157.4,34,164,39.19,170.52l.12.16-.12.15C34,177.49,28.16,185,23,192.74h0l-.26.39ZM22,192.77c.07.09.15.17.22.25l.11-.16.07-.1ZM4.22,171.71c4.8,5.88,9.92,11.94,13.38,16,1,1.17,2,2.32,3,3.48l1,1.2h0l.21-.27c-2.9-3.77-5.52-7.1-8-10.16s-5.59-6.95-8-9.88l-.17.24-.07.1H5.53c-.24,0-.24,0-.27-1.2l0-.72.46.55.18.22c3.4-4.7,7.64-10.84,11.71-16.82C13,160.19,8,166.55,4.22,171.71Zm18.27,20.4.18.22q1.72-2.57,3.53-5.1v0c-.89,1.2-1.81,2.4-2.72,3.59ZM6.2,171.66c2.41,2.93,5.71,7,8.07,10s5,6.33,7.91,10.06l.9-1.16c.91-1.19,1.82-2.38,2.71-3.58,3.17-4.19,6.17-8.61,9.07-12.87l2.27-3.34c-4.9-5.69-9.84-12.06-14.62-18.23l-1.61-2.07C16,157.71,10.44,165.81,6.2,171.66Zm31.27-.52c-.74,1.07-1.47,2.15-2.2,3.22-1.75,2.58-3.54,5.21-5.38,7.82,2.71-3.65,5.45-7.19,8-10.52l-.36-.41Zm.48-1.37.06,1.78.67-.87ZM24.37,154.11c4.29,5.52,8.68,11.14,13.05,16.22l.1-.14.35-.51C33.63,164.46,29,159.23,24.37,154.11Z" transform="translate(-0.65 -0.87)"/><path class="cls-2" d="M21.36,164.49c6.73-.27,10.21,6.81,5.33,11.7-2.61,2.74-7.35,3.36-10.26.63-5-4.66-1.8-12.28,4.93-12.33Zm0,.15c-5.33.18-7.72,7.62-4,11.17,4.11,4.07,11,1.38,10.37-4.64-.26-3.25-2.8-6.67-6.39-6.53Z" transform="translate(-0.65 -0.87)"/><path class="cls-2" d="M21,178.85A6.81,6.81,0,0,1,16.26,177a7.26,7.26,0,0,1-2.06-8,7.51,7.51,0,0,1,7.15-4.72,7.38,7.38,0,0,1,7.32,4.22,7,7,0,0,1-1.8,7.9A8.28,8.28,0,0,1,21,178.85ZM18.45,165.3a6.69,6.69,0,0,0-1.85,11.34,7,7,0,0,0,8.45.55c-.12.07-.24.14-.37.2A6.58,6.58,0,0,1,17.2,176a7.15,7.15,0,0,1,1.25-10.69Zm3.12-.42h-.2a5.74,5.74,0,0,0-5.09,3.94,6.26,6.26,0,0,0,1.27,6.81,6.06,6.06,0,0,0,6.92,1.31,5.44,5.44,0,0,0,3-5.74C27.26,168.12,24.93,164.88,21.57,164.88Zm2.9.32a7.84,7.84,0,0,1,3.53,6,6.29,6.29,0,0,1-1.42,4.8,6.5,6.5,0,0,0,1.64-7.29A6.43,6.43,0,0,0,24.47,165.2Z" transform="translate(-0.65 -0.87)"/><path class="cls-2" d="M35.64,100.94c3.37,8.32,7,17.25,9.91,25.74-7.84,4.93-15.66,9.86-23.13,15.34l-.42.3c-.87-2.29-1.77-4.57-2.62-6.87-2.36-6.34-4.94-13.4-7.16-19.8,6.78-4.53,16.4-10.37,23.42-14.71Zm0,.14c-6.41,4.63-15.56,11.21-22,15.55l.3-.91c1.31,3.7,3.16,9.1,4.43,12.88,1.47,4.3,2.87,8.62,4.25,13l-.61-.2c1.91-1.23,3.84-2.43,5.74-3.69,5.73-3.7,11.21-7.78,16.76-11.75l-.23.72c-3.1-8.09-6-17.25-8.64-25.55Z" transform="translate(-0.65 -0.87)"/><path class="cls-2" d="M21.89,142.7l-.12-.29c-.33-.88-.66-1.75-1-2.62-.55-1.41-1.09-2.83-1.62-4.25-1.87-5-4.63-12.54-7.16-19.8l-.07-.19.16-.1c5.65-3.78,13.12-8.37,19.71-12.42l3.72-2.3.25-.15.77,1.88c3.22,8,6.56,16.19,9.25,24.14l.07.18-.17.11c-7.14,4.49-15.22,9.57-22.72,15h0l-.38.28Zm.11-1.08.12.31.16-.11.1-.07Zm.71-.45.09.27c1.66-1.21,3.35-2.41,5.06-3.58h0c-1.25.83-2.52,1.64-3.79,2.45Zm-10.2-25.42c2.52,7.21,5.25,14.64,7.11,19.62.52,1.42,1.06,2.83,1.61,4.24.2.52.4,1,.59,1.54h0l.29-.18c-1.43-4.5-2.75-8.52-4-12.28-1.19-3.56-2.87-8.45-4.13-12l-.24.16-.6.41.76-2.28.24.67.1.27c4.82-3.27,10.89-7.58,16.76-11.8C24.74,107.94,17.84,112.2,12.51,115.75Zm1.89.63c1.26,3.58,3,8.54,4.17,12.14s2.57,7.71,4,12.16l1.22-.78c1.27-.8,2.54-1.61,3.79-2.44,4.42-2.86,8.75-6,12.94-9l3.26-2.35c-2.66-7-5.13-14.73-7.52-22.17l-.78-2.46C28.36,106.61,20.4,112.32,14.4,116.38ZM44,126.59l-3.15,2.27c-2.53,1.82-5.12,3.69-7.74,5.51,3.8-2.51,7.57-4.89,11.14-7.13l-.19-.52Zm.92-1.12-.55,1.69.93-.59C45.13,126.21,45,125.84,44.87,125.47Zm-7.4-19.36c2.14,6.65,4.35,13.44,6.72,19.7l.14-.1.5-.36C42.63,119,40.05,112.49,37.47,106.11Z" transform="translate(-0.65 -0.87)"/><path class="cls-2" d="M31.09,114.83c6.42,2,7.27,9.89,1,12.82-3.39,1.68-8.06.65-9.86-2.92-3.14-6.1,2.51-12.15,8.85-9.9ZM31,115c-5.07-1.65-9.86,4.52-7.56,9.14,2.47,5.23,9.85,5,11.33-.81.87-3.15-.35-7.23-3.77-8.33Z" transform="translate(-0.65 -0.87)"/><path class="cls-2" d="M28.64,128.68a7.37,7.37,0,0,1-5.8-12.1,7.5,7.5,0,0,1,8.33-2,7.38,7.38,0,0,1,5.44,6.46,7,7,0,0,1-4.4,6.81A8,8,0,0,1,28.64,128.68Zm-.56-14.08a6.7,6.7,0,0,0-5.62,10A7,7,0,0,0,30.21,128c-.13,0-.27,0-.41.06a6.55,6.55,0,0,1-6.55-3.88,7.15,7.15,0,0,1,4.83-9.61Zm1.28.35a6,6,0,0,0-4.52,2.21A6.26,6.26,0,0,0,23.7,124a6,6,0,0,0,6.05,3.6,5.46,5.46,0,0,0,4.82-4.36c.84-3-.3-7-3.6-8h0A5.25,5.25,0,0,0,29.36,115Zm4.41,1.61a7.85,7.85,0,0,1,1.28,6.81,6.26,6.26,0,0,1-3,4,6.49,6.49,0,0,0,4-6.29A6.4,6.4,0,0,0,33.77,116.56Z" transform="translate(-0.65 -0.87)"/><path class="cls-2" d="M66.25,60c.32,9,.71,18.61.5,27.58-9,2-18.09,3.91-27,6.5l-.49.14c0-2.45-.1-4.9-.11-7.35-.06-6.77-.06-14.29,0-21.05,7.92-1.94,18.95-4.14,27-5.82Zm-.09.12c-7.6,2.15-18.45,5.21-26,7.08l.59-.75c0,3.93-.14,9.63-.24,13.62-.09,4.54-.25,9.09-.44,13.62l-.5-.39c2.22-.5,4.44-1,6.65-1.5,6.66-1.53,13.2-3.49,19.77-5.31l-.46.59c-.14-8.66.29-18.25.62-27Z" transform="translate(-0.65 -0.87)"/><path class="cls-2" d="M39,94.54v-.32c0-.91,0-1.82,0-2.73,0-1.54-.06-3.08-.07-4.62,0-5.38-.07-13.41,0-21.06v-.19l.19,0C45.74,64,54.31,62.2,61.87,60.65l4.33-.89.28-.06.08,2c.31,8.59.63,17.46.44,25.86v.2l-.19,0c-8.24,1.77-17.56,3.78-26.5,6.36h0l-.46.13-.12,0h0l-.37.1Zm.48-1v.34l.19-.05h0l.13,0Zm.82-.18v.29c2-.58,4-1.12,6-1.64h0c-1.46.35-2.95.68-4.39,1ZM39.45,66c-.11,7.58-.08,15.52,0,20.86,0,1.54,0,3.08.07,4.61l0,1.58h0l.34-.08c.2-4.76.33-9,.41-12.91.1-3.75.2-8.92.24-12.7l-.28.07-.71.17L41,65.73v1c5.62-1.42,12.81-3.4,19.78-5.36C53.6,62.85,45.66,64.5,39.45,66ZM41,67.25c0,3.79-.13,9-.23,12.83s-.21,8.08-.41,12.79l1.44-.32c1.44-.32,2.92-.64,4.38-1,5.11-1.17,10.24-2.62,15.2-4l3.9-1.1c-.1-7.51.22-15.57.52-23.38l.1-2.6C57.45,62.84,48,65.49,41,67.25ZM65.29,86.94,61.51,88c-3,.84-6,1.71-9.12,2.52,4.43-1.06,8.79-2,12.91-2.89v-.7Zm1.24-.73-1.09,1.4,1.07-.23C66.52,87,66.53,86.6,66.53,86.21ZM66.2,65.49c-.27,7-.51,14.11-.43,20.8l.17,0,.6-.17C66.64,79.36,66.44,72.37,66.2,65.49Z" transform="translate(-0.65 -0.87)"/><path class="cls-2" d="M57.22,71.5c5.33,4.12,3.44,11.78-3.43,12.38-3.76.43-7.8-2.14-8.27-6.11C44.66,71,52,67.21,57.22,71.5Zm-.09.11c-4.21-3.28-10.81.88-10.24,6,.54,5.76,7.53,8.11,10.93,3.12,1.89-2.67,2.14-6.92-.69-9.12Z" transform="translate(-0.65 -0.87)"/><path class="cls-2" d="M53,84.18c-3.5,0-7.23-2.39-7.71-6.38a7.27,7.27,0,0,1,3.59-7.48,7.51,7.51,0,0,1,8.51,1,7.38,7.38,0,0,1,2.9,7.94,7,7,0,0,1-6.46,4.89A7.86,7.86,0,0,1,53,84.18ZM59.15,74A7.84,7.84,0,0,1,58,80.87a6.24,6.24,0,0,1-4.17,2.76A6.49,6.49,0,0,0,59.8,79.1,6.43,6.43,0,0,0,59.15,74Zm-6.81-4.13a6.72,6.72,0,0,0-3.24.84,6.8,6.8,0,0,0-3.34,7,7,7,0,0,0,6.13,5.86,3.15,3.15,0,0,1-.42-.09,6.54,6.54,0,0,1-4.82-5.88,7.14,7.14,0,0,1,7.82-7.38A6.78,6.78,0,0,0,52.34,69.91Zm1.35.78a6.46,6.46,0,0,0-3.14.86,6.25,6.25,0,0,0-3.41,6A6.06,6.06,0,0,0,51.6,83a5.46,5.46,0,0,0,6-2.44c1.82-2.57,2.09-6.66-.64-8.78h0A5.3,5.3,0,0,0,53.69,70.69Z" transform="translate(-0.65 -0.87)"/><path class="cls-2" d="M109,32c-2.76,8.54-5.7,17.73-9,26.08C90.89,56.82,81.72,55.57,72.48,55l-.51,0c.8-2.32,1.57-4.64,2.4-7,2.27-6.38,4.84-13.44,7.24-19.77,8.11.89,19.23,2.59,27.4,3.79Zm-.12.08C101,31.5,89.77,30.66,82,29.84l.82-.5c-1.38,3.68-3.43,9-4.89,12.72-1.64,4.24-3.34,8.45-5.07,12.65l-.34-.55c2.26.29,4.51.61,6.77.87,6.77.84,13.59,1.24,20.39,1.77l-.64.4c2.83-8.19,6.52-17.06,9.81-25.12Z" transform="translate(-0.65 -0.87)"/><path class="cls-2" d="M100.22,58.35l-.2,0c-8.35-1.15-17.8-2.46-27.08-3.08h0l-.48,0-.83-.07.1-.3c.31-.87.61-1.75.91-2.63.49-1.44,1-2.88,1.5-4.31,1.8-5.07,4.52-12.62,7.24-19.78l.07-.18.19,0c6.74.73,15.39,2,23,3.14l4.39.64.28.05-.6,1.85c-2.65,8.2-5.39,16.67-8.44,24.52Zm-1.41-.69,1.09.15.42-1.09ZM85.55,55.94c4.52.53,8.94,1.13,13.12,1.7l.18-.52s0-.09,0-.14L95,56.69C91.9,56.47,88.72,56.23,85.55,55.94Zm14,.6h.17l.62.05c2.4-6.28,4.6-12.92,6.73-19.47C104.45,43.61,101.79,50.22,99.57,56.54ZM73.44,54l1.48.19c1.48.2,3,.4,4.44.56,5.21.65,10.53,1,15.68,1.42l4,.3c2.49-7.11,5.54-14.59,8.5-21.83l1-2.37c-8.75-.64-18.54-1.39-25.72-2.13-1.33,3.55-3.22,8.44-4.61,12S75.23,49.7,73.44,54Zm-.3.73c2.06.15,4.13.32,6.19.52h0c-1.48-.16-3-.36-4.45-.56l-1.6-.21C73.21,54.59,73.18,54.68,73.14,54.76Zm-.84,0h.32l-.21-.34C72.38,54.5,72.34,54.6,72.3,54.71Zm.28-.79h0l.35,0c1.8-4.37,3.37-8.3,4.8-12,1.38-3.5,3.23-8.32,4.56-11.85l-.29,0L81.29,30l2-1.26-.25.68c0,.08-.07.17-.1.26,5.77.59,13.21,1.19,20.43,1.73-7.26-1.07-15.29-2.24-21.65-2.94-2.69,7.1-5.38,14.56-7.16,19.59-.52,1.43-1,2.86-1.5,4.3Z" transform="translate(-0.65 -0.87)"/><path class="cls-2" d="M96.6,39.71c3.59,5.7-.8,12.25-7.47,10.47-3.68-.89-6.59-4.69-5.67-8.57,1.51-6.7,9.73-7.7,13.14-1.9Zm-.13.08C93.64,35.26,86,36.91,84.8,41.92c-1.47,5.6,4.3,10.2,9.2,6.67,2.69-1.86,4.38-5.77,2.47-8.8Z" transform="translate(-0.65 -0.87)"/><path class="cls-2" d="M91.34,50.72a9,9,0,0,1-2.27-.3c-3.63-.88-6.85-4.65-5.85-8.87a7.24,7.24,0,0,1,5.93-5.8,7.49,7.49,0,0,1,7.66,3.83,7.4,7.4,0,0,1,0,8.45A6.62,6.62,0,0,1,91.34,50.72Zm-2-.76a6.51,6.51,0,0,0,7.13-2.22,6.42,6.42,0,0,0,1.12-5,7.85,7.85,0,0,1-3.4,6A6.23,6.23,0,0,1,89.29,50Zm2.15-12.57a7.27,7.27,0,0,0-1.13.09A6.27,6.27,0,0,0,85,42a6.06,6.06,0,0,0,2.33,6.65,5.44,5.44,0,0,0,6.49-.24c2.59-1.79,4.25-5.54,2.4-8.47h0A5.54,5.54,0,0,0,91.44,37.39Zm-1.16-1.24a7.68,7.68,0,0,0-1.06.08,6.78,6.78,0,0,0-5.52,5.43,7,7,0,0,0,3.73,7.6L87.09,49a6.57,6.57,0,0,1-2.53-7.18,7.13,7.13,0,0,1,9.87-4.26A6.69,6.69,0,0,0,90.28,36.15Z" transform="translate(-0.65 -0.87)"/><path class="cls-2" d="M158.77,20.31c-5.52,7.08-11.42,14.71-17.33,21.45-8.19-4.33-16.38-8.64-24.85-12.36l-.47-.22c1.55-1.89,3.07-3.82,4.64-5.7,4.31-5.22,9.14-11,13.56-16.1,7.32,3.61,17.18,9,24.45,12.93Zm-.14,0c-7.21-3.24-17.48-7.87-24.46-11.28l.94-.2c-2.56,3-6.3,7.29-9,10.29-3,3.42-6,6.79-9.09,10.15l-.13-.63c2,1,4,2.11,6.06,3.13,6.08,3.11,12.35,5.81,18.56,8.64l-.74.15c5.46-6.72,12-13.79,17.81-20.25Z" transform="translate(-0.65 -0.87)"/><path class="cls-2" d="M141.49,42.07l-.17-.1c-7.45-3.93-15.89-8.39-24.39-12.15h0l-.44-.2-.19-.08h0l-.57-.27.2-.24c.58-.71,1.16-1.43,1.73-2.15,1-1.19,1.93-2.38,2.91-3.55C124,19.16,129.15,13,134.13,7.22l.13-.15.17.09c6.12,3,13.85,7.2,20.67,10.89l3.79,2,.26.14-1.23,1.58c-5.29,6.78-10.75,13.79-16.3,20.11Zm-1.08-1.14,1,.52.77-.88Zm-11.88-6.15c4.07,2,8,4.12,11.75,6.09l.35-.43.09-.11-3.56-1.61C134.32,37.45,131.41,36.14,128.53,34.78Zm13,5.36.15.07.57.26c4.4-5.08,8.74-10.57,13-16C150.52,29.66,145.75,35,141.51,40.14ZM117.82,28.85l1.33.69q2,1,4,2c4.68,2.39,9.54,4.58,14.25,6.69L141,39.93c4.76-5.82,10.18-11.79,15.42-17.57l1.76-1.93c-8-3.6-16.95-7.65-23.44-10.8-2.45,2.86-5.89,6.81-8.43,9.68S121,25.37,117.82,28.85Zm-.54.58c1.89.84,3.78,1.72,5.65,2.61l0,0c-1.33-.66-2.65-1.35-4-2l-1.45-.76Zm-.59-.26.11,0-.08-.38-.21.25.17.09Zm.35-.72h0l.31.16c3.21-3.51,6-6.67,8.62-9.63s5.9-6.73,8.34-9.57l-.26-.13L133.41,9l2.35-.48L135.3,9l-.19.22c5.22,2.53,12,5.64,18.6,8.62-6.46-3.5-13.59-7.34-19.33-10.18-4.94,5.73-10,11.83-13.43,16-1,1.18-1.94,2.37-2.9,3.56C117.71,27.61,117.38,28,117,28.45Z" transform="translate(-0.65 -0.87)"/><path class="cls-2" d="M144.47,23.31c1.43,6.58-4.94,11.24-10.59,7.28-3.16-2.09-4.6-6.65-2.41-10,3.72-5.78,11.78-3.91,13,2.71Zm-.15,0c-1.11-5.22-8.84-6.28-11.69-2-3.29,4.75.55,11,6.37,9.41,3.16-.83,6.08-3.92,5.32-7.43Z" transform="translate(-0.65 -0.87)"/><path class="cls-2" d="M138.21,32.31a7.9,7.9,0,0,1-4.48-1.51c-3.11-2.07-4.84-6.71-2.46-10.34A7.25,7.25,0,0,1,138.83,17a7.49,7.49,0,0,1,5.88,6.22,7.37,7.37,0,0,1-2.88,7.94A6.45,6.45,0,0,1,138.21,32.31Zm-4.12-1.87a6.32,6.32,0,0,0,10.22-3.94A7.86,7.86,0,0,1,139.06,31,6.28,6.28,0,0,1,134.09,30.44Zm3.85-11.51a6.15,6.15,0,0,0-5.2,9.6,5.48,5.48,0,0,0,6.19,2c3-.8,5.88-3.75,5.15-7.14h0a5.73,5.73,0,0,0-4.76-4.33A8.06,8.06,0,0,0,137.94,18.93Zm-.48-1.53a6.89,6.89,0,0,0-5.78,3.33,7,7,0,0,0,.91,8.42l-.25-.33a6.54,6.54,0,0,1,.09-7.6,7.14,7.14,0,0,1,10.73-.64,6.68,6.68,0,0,0-5.7-3.18Z" transform="translate(-0.65 -0.87)"/><path class="cls-2" d="M209.53,26.34c-7.61,4.77-15.76,9.92-23.62,14.23-6.22-6.86-12.44-13.71-19.13-20.11l-.36-.36c2.1-1.26,4.19-2.54,6.3-3.77,5.84-3.44,12.35-7.2,18.26-10.5,5.64,5.89,13.06,14.35,18.55,20.51Zm-.15,0c-5.66-5.5-13.73-13.37-19.12-19l1,.15c-3.43,1.93-8.41,4.69-11.92,6.6-4,2.19-8,4.32-12,6.43l.09-.64c1.55,1.68,3.07,3.37,4.63,5,4.65,5,9.61,9.68,14.48,14.46l-.75-.1c7.44-4.45,16-8.88,23.66-13Z" transform="translate(-0.65 -0.87)"/><path class="cls-2" d="M185.85,40.88l-.13-.15C180.07,34.49,173.67,27.42,167,21h0l-.35-.34-.59-.58.27-.17,2.38-1.42c1.3-.79,2.61-1.58,3.93-2.35,4.65-2.73,11.6-6.78,18.26-10.5l.16-.09.13.14c4.71,4.91,10.53,11.47,15.67,17.26l2.89,3.26.2.22-1.72,1.07C200.91,32,193.39,36.75,186,40.79Zm-.63-1.44.74.82c6.23-3.42,12.58-7.33,18.8-11.22-6.18,3.26-12.48,6.62-18.24,10l.13.12.19.18-.21.18c-.08.07-.08.07-.94-.05Zm-9.06-9.84c3.13,3.31,6.13,6.61,9,9.74l.48-.29.12-.07-2.78-2.71C180.7,34.09,178.41,31.87,176.16,29.6Zm-8-9.24,1,1.09c1,1.1,2,2.21,3,3.29,3.58,3.85,7.41,7.58,11.12,11.18l2.87,2.8c6.45-3.84,13.58-7.59,20.47-11.22L209,26.26c-6.3-6.12-13.32-13-18.33-18.16-3.27,1.84-7.86,4.38-11.24,6.22S172.26,18.2,168.12,20.36Zm-.7.37c1.49,1.43,3,2.9,4.42,4.37l0,0c-1-1.09-2-2.19-3.05-3.29l-1.09-1.19ZM191.08,7.85c4,4.16,9.35,9.4,14.53,14.46-4.87-5.49-10.26-11.55-14.68-16.17-6.6,3.69-13.47,7.69-18.08,10.4-1.32.76-2.62,1.55-3.93,2.34l-1.39.84h0l.24.25c4.18-2.18,7.91-4.18,11.39-6.1S187,9.57,190.28,7.73l-.2-.2L189.57,7l2.38.36-.62.35ZM166.82,20.14l.13.14.09.09.06-.39Z" transform="translate(-0.65 -0.87)"/><path class="cls-2" d="M195.06,24.27c-.9,6.68-8.48,8.88-12.44,3.22-2.25-3-2-7.82,1.16-10.21,5.47-4.16,12.4.35,11.28,7Zm-.14,0c.74-5.28-6.17-8.93-10.31-5.86-4.73,3.34-3.27,10.57,2.76,11,3.25.3,7.06-1.61,7.55-5.16Z" transform="translate(-0.65 -0.87)"/><path class="cls-2" d="M188.31,31a7.23,7.23,0,0,1-5.89-3.35c-2.22-3-2.26-8,1.21-10.55a7.25,7.25,0,0,1,8.28-.63,7.51,7.51,0,0,1,3.4,7.86,7.4,7.4,0,0,1-5.42,6.48A7.18,7.18,0,0,1,188.31,31Zm-5.44-3.55a6.52,6.52,0,0,0,6.9,2.88,6.41,6.41,0,0,0,4-3.1,7.78,7.78,0,0,1-6.47,2.44A6.23,6.23,0,0,1,182.87,27.43Zm5.26-9.92a5.69,5.69,0,0,0-3.38,1.07,6.08,6.08,0,0,0-2.49,6.59,5.46,5.46,0,0,0,5.13,4c3.14.29,6.81-1.51,7.28-4.94h0a5.73,5.73,0,0,0-3-5.69A7,7,0,0,0,188.13,17.51Zm.17-1.58a7.23,7.23,0,0,0-4.37,1.54,7,7,0,0,0-2,8.23c0-.13-.09-.26-.13-.4a6.57,6.57,0,0,1,2.68-7.12,7.17,7.17,0,0,1,10.31,3.08,6.74,6.74,0,0,0-3.12-4.39A6.41,6.41,0,0,0,188.3,15.93Z" transform="translate(-0.65 -0.87)"/><path class="cls-2" d="M255.16,49.37c-8.77,1.88-18.2,3.93-27.06,5.29-3.49-8.57-7-17.14-11.09-25.44l-.22-.46c2.4-.46,4.8-1,7.21-1.39,6.66-1.23,14.06-2.54,20.74-3.62,3.29,7.47,7.37,18,10.42,25.62Zm-.13-.06c-3.44-7.12-8.33-17.27-11.48-24.37l.84.46c-3.88.64-9.51,1.53-13.46,2.12q-6.74,1.05-13.49,1.93l.3-.56c.88,2.1,1.73,4.21,2.64,6.3C223,41.47,226.1,47.57,229,53.73l-.67-.35c8.51-1.64,18-2.89,26.66-4.07Z" transform="translate(-0.65 -0.87)"/><path class="cls-2" d="M227.94,54.94l-.07-.18c-3.18-7.82-6.78-16.65-10.87-25h0c-.07-.14-.14-.29-.22-.43l-.35-.75.31-.06,2.7-.53c1.51-.29,3-.59,4.52-.86,5.31-1,13.22-2.4,20.74-3.62l.19,0,.08.17c2.74,6.23,6,14.39,8.82,21.59l1.6,4,.11.28-2,.42c-8.4,1.8-17.08,3.65-25.38,4.93Zm-.1-1.57c.14.34.28.68.41,1l1.16-.18Zm1.35.1c0,.05.05.1.07.16l.27.56c6.64-1.07,13.5-2.48,20.24-3.92C242.84,51.23,235.77,52.23,229.19,53.47ZM222.69,41c1.81,4.18,3.5,8.32,5.1,12.23l.54-.11.14,0c-.57-1.18-1.13-2.35-1.7-3.52C225.41,46.78,224,43.91,222.69,41ZM218.3,29.59l.57,1.38c.57,1.37,1.14,2.75,1.74,4.12,2,4.83,4.36,9.64,6.6,14.28.59,1.21,1.18,2.43,1.76,3.64,7.38-1.4,15.37-2.49,23.1-3.55l2.59-.35c-3.81-7.89-8-16.73-11-23.34-3.74.62-8.92,1.44-12.68,2S223,29,218.3,29.59Zm25.85-3.9c2.38,5.31,5.58,12,8.72,18.56-2.71-6.83-5.7-14.36-8.28-20.22-7.46,1.21-15.28,2.61-20.54,3.58-1.51.28-3,.57-4.51.87l-1.57.3v0c.05.1.09.21.14.32,4.71-.63,8.9-1.24,12.78-1.84,3.72-.56,8.82-1.36,12.55-2l-.12-.26-.29-.66,2.11,1.14-.71.12Zm-26.64,4q1.37,2.79,2.66,5.63l0,0c-.59-1.37-1.16-2.75-1.73-4.13-.21-.49-.42-1-.62-1.49Zm-.36-.75.08.18a.37.37,0,0,1,.05.11l.19-.35Z" transform="translate(-0.65 -0.87)"/><path class="cls-2" d="M242.28,42.48c-3.14,6-11,5.44-12.8-1.23-1.07-3.63.76-8,4.59-9.2,6.55-2,11.53,4.57,8.21,10.43Zm-.13-.07c2.5-4.71-2.74-10.5-7.69-9-5.58,1.53-6.68,8.83-1.17,11.3,3,1.4,7.18.91,8.86-2.26Z" transform="translate(-0.65 -0.87)"/><path class="cls-2" d="M235.94,46.87a6.56,6.56,0,0,1-.76,0,7,7,0,0,1-5.94-5.52c-1.05-3.57.6-8.25,4.75-9.5a7.27,7.27,0,0,1,8,2.24,7.5,7.5,0,0,1,.51,8.55A7.48,7.48,0,0,1,235.94,46.87Zm-6.2-5.6a6.5,6.5,0,0,0,5.5,5.07,6.4,6.4,0,0,0,4.87-1.52,7.83,7.83,0,0,1-6.92.08A6.29,6.29,0,0,1,229.74,41.27Zm6.32-7.88a5.29,5.29,0,0,0-1.53.22,6.06,6.06,0,0,0-4.59,5.33,5.45,5.45,0,0,0,3.45,5.51c2.85,1.35,6.92.91,8.54-2.16h0a5.72,5.72,0,0,0-.86-6.37A6.59,6.59,0,0,0,236.06,33.39Zm0-.49a7,7,0,0,1,5.39,2.71A6.78,6.78,0,0,1,243,39.55a6.7,6.7,0,0,0-8.89-7.27,7,7,0,0,0-4.71,7c0-.13,0-.27,0-.41a6.54,6.54,0,0,1,5-5.78A5.84,5.84,0,0,1,236.06,32.9Z" transform="translate(-0.65 -0.87)"/><path class="cls-2" d="M290.17,86.62c-8.89-1.24-18.45-2.53-27.24-4.28-.35-9.25-.71-18.5-1.72-27.71l0-.5c2.42.39,4.84.74,7.25,1.16,6.68,1.12,14.08,2.42,20.73,3.69.54,8.15.79,19.39,1,27.64Zm-.1-.11c-.8-7.85-1.92-19.07-2.46-26.82l.64.72c-3.87-.72-9.46-1.81-13.38-2.61q-6.69-1.32-13.34-2.8l.48-.42c.11,2.27.19,4.54.32,6.81.35,6.82,1.14,13.6,1.8,20.39l-.5-.56c8.55,1.37,17.92,3.46,26.44,5.29Z" transform="translate(-0.65 -0.87)"/><path class="cls-2" d="M290.42,86.91l-2-.27c-8.52-1.19-17.33-2.42-25.58-4.06l-.19,0v-.19c-.32-8.43-.68-18-1.67-27.21h0c0-.16,0-.32-.05-.48v-.11h0c0-.15,0-.4,0-.4l0-.32.32.05,2.75.44c1.5.23,3,.47,4.5.73,5.35.9,13.28,2.27,20.74,3.69l.18,0,0,.19c.44,6.76.68,15.5.9,23.21,0,1.55.08,3,.13,4.44Zm-26.11-5.83c7.41,1.21,15.29,2.92,22.91,4.57l2.57.55c-.89-8.71-1.85-18.47-2.37-25.7-3.71-.69-8.85-1.69-12.6-2.45s-7.94-1.62-12.52-2.63l.06,1.49c.07,1.49.13,3,.22,4.47.27,5.24.81,10.56,1.33,15.69C264,78.41,264.18,79.75,264.31,81.08Zm.13,1.3c6.6,1.27,13.52,2.29,20.34,3.24-6.83-1.47-13.81-3-20.42-4,0,.06,0,.11,0,.17Zm-1.27-.25,1.14.23L263.13,81C263.14,81.4,263.15,81.77,263.17,82.13ZM287.92,60.6c.42,5.81,1.12,13.23,1.84,20.42-.2-7.34-.44-15.45-.85-21.83-7.4-1.41-15.24-2.77-20.54-3.66-1.5-.26-3-.49-4.5-.72l-1.61-.26v0c0,.11,0,.23,0,.34,4.64,1,8.78,1.89,12.65,2.65,3.7.75,8.77,1.74,12.47,2.44l0-.29-.05-.73,1.6,1.8-.71-.13Zm-24.8,20.29.54.09.15,0-.39-3.88c-.32-3.1-.64-6.28-.91-9.46C262.78,72.21,263,76.68,263.12,80.89Zm-1.6-25.64q.33,3.11.57,6.21v-.05c-.09-1.49-.16-3-.22-4.48,0-.54-.05-1.08-.07-1.62Zm-.07-.64v.13l.3-.27-.33,0a1.42,1.42,0,0,1,0,.19Z" transform="translate(-0.65 -0.87)"/><path class="cls-2" d="M280.42,75.74c-5,4.53-12.2,1.34-11.61-5.53.24-3.78,3.47-7.31,7.46-7.08,6.86.33,9.27,8.24,4.15,12.61Zm-.1-.11c4-3.57,1-10.8-4.13-11.12-5.77-.48-9.3,6-5,10.22,2.3,2.32,6.44,3.31,9.1.9Z" transform="translate(-0.65 -0.87)"/><path class="cls-2" d="M275.27,78.1a6.81,6.81,0,0,1-3-.7,7,7,0,0,1-3.69-7.22c.23-3.72,3.36-7.53,7.71-7.3A7.26,7.26,0,0,1,283,67.71a7.49,7.49,0,0,1-2.45,8.21A7.91,7.91,0,0,1,275.27,78.1Zm-6.22-7.78A6.52,6.52,0,0,0,272.48,77a6.41,6.41,0,0,0,5.1.23,7.83,7.83,0,0,1-6.53-2.29A6.26,6.26,0,0,1,269.05,70.32Zm6.56-5.59A6,6,0,0,0,270,68.2a5.46,5.46,0,0,0,1.37,6.35c2.21,2.24,6.19,3.22,8.76.89h0a5.72,5.72,0,0,0,1.36-6.28,6.27,6.27,0,0,0-5.34-4.41Zm0-.49c.21,0,.41,0,.61,0a7.15,7.15,0,0,1,5.92,9,6.7,6.7,0,0,0-5.87-9.87,7,7,0,0,0-6.83,5c0-.13.1-.25.15-.38A6.5,6.5,0,0,1,275.6,64.24Z" transform="translate(-0.65 -0.87)"/><path class="cls-2" d="M310.32,133.6c-7.93-4.21-16.47-8.69-24.13-13.35,2.84-8.81,5.66-17.62,7.86-26.62l.13-.49c2.13,1.19,4.29,2.36,6.41,3.57,5.89,3.34,12.41,7.1,18.22,10.56-2.28,7.84-5.89,18.49-8.49,26.33Zm-.05-.14c1.93-7.66,4.71-18.58,6.86-26.05l.35.9c-3.39-2-8.27-4.94-11.68-7q-5.82-3.52-11.57-7.19l.59-.23c-.67,2.17-1.38,4.33-2,6.51-2,6.53-3.59,13.17-5.29,19.78l-.28-.7c7.57,4.21,15.66,9.38,23,14Z" transform="translate(-0.65 -0.87)"/><path class="cls-2" d="M310.46,134l-1.79-.95c-7.59-4-15.43-8.17-22.61-12.54l-.16-.1.05-.18c2.59-8,5.51-17.11,7.74-26.14h0l.12-.47.21-.8.28.15,2.46,1.37c1.33.73,2.65,1.46,4,2.21,4.67,2.65,11.62,6.63,18.22,10.56l.16.1-.05.18c-1.91,6.53-4.68,14.86-7.12,22.2-.48,1.44-.94,2.83-1.37,4.14Zm-22.54-14.4c6.55,3.67,13.37,8,20,12.12l2.22,1.4c2.15-8.5,4.58-18,6.56-24.95-3.26-1.93-7.75-4.64-11-6.62s-6.92-4.24-10.88-6.75c-.14.46-.29.93-.44,1.39-.45,1.43-.9,2.86-1.33,4.3-1.54,5-2.85,10.19-4.12,15.19Zm-.33,1.26c5.77,3.45,11.93,6.78,18,10-5.92-3.73-12-7.5-17.82-10.78,0,.06,0,.11,0,.17Zm29.52-12.43c-1.59,5.58-3.46,12.8-5.25,19.81,2.32-7,4.86-14.66,6.66-20.8-6.54-3.9-13.42-7.84-18-10.46-1.31-.75-2.63-1.48-3.94-2.21l-1.47-.81v0c0,.11-.07.22-.1.33,4,2.54,7.59,4.77,11,6.81,3.21,2,7.64,4.63,10.88,6.55a2.76,2.76,0,0,0,.08-.27l.2-.7.89,2.23-.62-.36A2,2,0,0,0,317.11,108.38Zm-30.62,11.76,1,.61-.67-1.65Zm.38-1.18.48.27.12.07c.33-1.26.65-2.53,1-3.79.77-3,1.55-6.1,2.39-9.17C289.51,110.7,288.16,115,286.87,119Zm7.26-24.64c-.5,2-1,4-1.58,6v0c.43-1.44.88-2.87,1.33-4.31l.48-1.52Zm.2-.81-.05.19s0,.07,0,.11l.36-.14Z" transform="translate(-0.65 -0.87)"/><path class="cls-2" d="M304.88,120c-6.23,2.56-11.92-2.9-9-9.16,1.51-3.47,5.76-5.68,9.43-4.11,6.33,2.66,5.89,10.92-.42,13.27Zm-.05-.13c4.95-2,4.65-9.8-.08-11.86-5.26-2.42-10.79,2.46-8.16,7.9,1.36,3,4.92,5.31,8.24,4Z" transform="translate(-0.65 -0.87)"/><path class="cls-2" d="M301.72,120.93a6.92,6.92,0,0,1-5.07-2.12,7,7,0,0,1-1-8c1.49-3.42,5.76-5.94,9.75-4.22a7.25,7.25,0,0,1,4.68,6.85,7.48,7.48,0,0,1-5.11,6.87A8.52,8.52,0,0,1,301.72,120.93Zm-5.66-9.88a6.51,6.51,0,0,0,.95,7.42,6.39,6.39,0,0,0,4.7,2,7.86,7.86,0,0,1-5.35-4.39A6.25,6.25,0,0,1,296.06,111.05Zm5.85-3.4a5.84,5.84,0,0,0-4.21,1.75,5.45,5.45,0,0,0-.89,6.43c1.31,2.87,4.71,5.14,7.93,3.84h0a5.74,5.74,0,0,0,3.43-5.44,6.25,6.25,0,0,0-3.52-6A6.57,6.57,0,0,0,301.91,107.65Zm0-.5a7.06,7.06,0,0,1,2.94.66,7.13,7.13,0,0,1,2.49,10.46,6.73,6.73,0,0,0,2.25-4.89A6.8,6.8,0,0,0,305.2,107a7,7,0,0,0-8.13,2.37,4.12,4.12,0,0,1,.28-.31A6.33,6.33,0,0,1,301.91,107.15Z" transform="translate(-0.65 -0.87)"/><path class="cls-2" d="M313.19,184.64c-6-6.67-12.5-13.8-18.11-20.8,5.68-7.31,11.34-14.63,16.49-22.33l.29-.42c1.6,1.86,3.23,3.69,4.81,5.56,4.39,5.15,9.23,10.9,13.5,16.15-4.82,6.58-11.86,15.36-17,21.84Zm0-.15c4.44-6.54,10.78-15.85,15.36-22.13l0,1c-2.5-3-6.08-7.47-8.57-10.6q-4.28-5.29-8.42-10.71l.64,0c-1.38,1.81-2.78,3.6-4.13,5.43-4.12,5.44-7.87,11.14-11.73,16.77l0-.75c5.68,6.54,11.51,14.17,16.86,21.05Z" transform="translate(-0.65 -0.87)"/><path class="cls-2" d="M313.2,185l-1.35-1.5c-5.75-6.38-11.71-13-17-19.53l-.12-.15.12-.15c5.17-6.66,11-14.2,16.2-21.91h0l.26-.39.48-.69.21.24,1.83,2.11c1,1.14,2,2.29,3,3.45,3.48,4.08,8.65,10.21,13.5,16.15l.12.15-.11.16c-4,5.49-9.48,12.37-14.3,18.45-.93,1.18-1.84,2.31-2.68,3.39ZM297,163.77c4.9,5.69,9.84,12.06,14.62,18.23l1.6,2.07c4.93-7.25,10.46-15.34,14.71-21.21-2.41-2.92-5.7-7-8.07-10s-5.06-6.36-7.91-10.06L311,144c-.91,1.19-1.82,2.38-2.71,3.58-3.17,4.19-6.17,8.6-9.07,12.87Zm-.74,1.07c4.24,5.22,8.89,10.45,13.5,15.57-4.29-5.53-8.69-11.14-13-16.22l-.1.14Zm32-1.59c-3.41,4.72-7.64,10.85-11.71,16.83,4.56-5.76,9.58-12.12,13.37-17.27-4.81-5.9-9.93-11.95-13.38-16-1-1.16-2-2.31-3-3.45l-1.08-1.24v0l-.21.27c2.88,3.75,5.5,7.07,8,10.16s5.59,7,8,9.88l.17-.24.42-.59.07,2.41-.46-.56Zm-32.8.59.73.9-.06-1.77Zm.76-1,.36.41.09.11c.74-1.07,1.47-2.15,2.2-3.23,1.75-2.57,3.54-5.2,5.37-7.8C301.47,156,298.74,159.53,296.16,162.86Zm15.25-20.67q-1.73,2.56-3.53,5.09h0c.89-1.21,1.81-2.4,2.72-3.59.33-.42.65-.84,1-1.27Zm.47-.7-.11.16-.07.11.4,0A2.62,2.62,0,0,1,311.88,141.49Z" transform="translate(-0.65 -0.87)"/><path class="cls-2" d="M312.72,170c-6.73.26-10.21-6.81-5.33-11.7,2.61-2.74,7.35-3.37,10.26-.63,5,4.66,1.8,12.28-4.93,12.33Zm0-.15c5.33-.19,7.72-7.62,4-11.17-4.11-4.07-11-1.38-10.37,4.63.26,3.26,2.8,6.68,6.39,6.54Z" transform="translate(-0.65 -0.87)"/><path class="cls-2" d="M312.36,170.28a7.31,7.31,0,0,1-6.95-4.22,7,7,0,0,1,1.8-7.9c2.58-2.71,7.45-3.61,10.61-.64a7.25,7.25,0,0,1,2.06,8,7.51,7.51,0,0,1-7.15,4.72ZM312.11,157a5.67,5.67,0,0,0-2.5.57,5.46,5.46,0,0,0-3,5.74c.25,3.08,2.58,6.32,5.94,6.32h.2a5.72,5.72,0,0,0,5.09-3.93,6.24,6.24,0,0,0-5.69-8.69Zm-4.61,1.56a6.48,6.48,0,0,0-1.64,7.29,6.4,6.4,0,0,0,3.75,3.46,7.85,7.85,0,0,1-3.53-6A6.25,6.25,0,0,1,307.5,158.57Zm4.62-2.06a6.95,6.95,0,0,1,3.51,12.7,6.68,6.68,0,0,0,1.85-11.33,7,7,0,0,0-8.45-.56l.37-.19A6.21,6.21,0,0,1,312.12,156.51Z" transform="translate(-0.65 -0.87)"/><path class="cls-2" d="M298.44,233.57c-3.38-8.31-7-17.24-9.91-25.73,7.83-4.93,15.66-9.87,23.13-15.34l.41-.3c.87,2.29,1.78,4.57,2.62,6.87,2.37,6.34,4.95,13.4,7.17,19.79-6.79,4.54-16.4,10.38-23.42,14.71Zm0-.14c6.41-4.62,15.56-11.2,22-15.54l-.3.91c-1.31-3.71-3.17-9.1-4.43-12.88q-2.21-6.45-4.25-12.95l.61.2c-1.91,1.23-3.85,2.43-5.74,3.68-5.73,3.71-11.21,7.79-16.76,11.75l.23-.71c3.1,8.09,6,17.25,8.64,25.54Z" transform="translate(-0.65 -0.87)"/><path class="cls-2" d="M298.32,233.94l-.77-1.88c-3.22-8-6.56-16.19-9.25-24.14l-.07-.19.17-.1c7.13-4.49,15.2-9.56,22.72-15h0l.38-.28.68-.48.12.29c.33.88.66,1.75,1,2.62.55,1.41,1.09,2.83,1.61,4.25,1.89,5.06,4.67,12.6,7.17,19.8l.07.18-.16.11c-5.65,3.77-13.12,8.37-19.71,12.42l-3.73,2.29Zm-8-25.53c2.66,7,5.12,14.72,7.51,22.16l.79,2.47c7.12-5.14,15.09-10.85,21.07-14.91-1.26-3.57-3-8.53-4.17-12.14s-2.58-7.7-4-12.15l-1.25.8c-1.24.78-2.52,1.6-3.77,2.42-4.41,2.86-8.75,6-12.94,9Zm29.54,10.21c-4.81,3.25-10.88,7.57-16.75,11.8,6.25-3.85,13.14-8.11,18.46-11.66-2.48-7.14-5.23-14.59-7.1-19.61-.52-1.42-1.07-2.83-1.61-4.24-.2-.52-.4-1-.59-1.54h0a2.9,2.9,0,0,1-.29.19c1.43,4.5,2.75,8.52,4,12.28,1.19,3.56,2.87,8.44,4.12,12l.25-.16.6-.41-.76,2.28-.24-.68A2,2,0,0,1,319.85,218.62Zm-30.6-9.45c2.2,6.35,4.78,12.85,7.36,19.24-2.14-6.66-4.35-13.44-6.72-19.7l-.14.09Zm-.43-1.23c.13.37.26.74.38,1.11l.55-1.69Zm1.06-.66.19.52a.69.69,0,0,1,.05.13c1.06-.75,2.11-1.51,3.15-2.27,2.53-1.82,5.12-3.68,7.74-5.5C297.21,202.66,293.44,205,289.88,207.28Zm21.4-14.2q-2.5,1.83-5.07,3.58h0c1.25-.83,2.53-1.64,3.77-2.43l1.37-.87Zm.42-.31.38.12-.12-.3-.16.11Z" transform="translate(-0.65 -0.87)"/><path class="cls-2" d="M303,219.69c-6.42-2.06-7.27-9.89-1-12.82,3.39-1.68,8.06-.65,9.86,2.92,3.14,6.1-2.51,12.15-8.85,9.9Zm.05-.14c5.07,1.65,9.86-4.52,7.56-9.14-2.47-5.23-9.85-5-11.33.81-.87,3.15.35,7.23,3.77,8.33Z" transform="translate(-0.65 -0.87)"/><path class="cls-2" d="M305.72,220.42a8.26,8.26,0,0,1-2.81-.5,7.38,7.38,0,0,1-5.44-6.46,7,7,0,0,1,4.4-6.81c3.34-1.66,8.24-.84,10.19,3a7.19,7.19,0,0,1-6.34,10.74Zm-.82-14a6.56,6.56,0,0,1,5.92,3.91,7.14,7.14,0,0,1-4.82,9.61,6.7,6.7,0,0,0,5.62-10,7,7,0,0,0-7.74-3.42l.4,0C304.49,206.41,304.69,206.4,304.9,206.4Zm0,.49-.56,0a5.45,5.45,0,0,0-4.82,4.36c-.84,3,.3,7,3.6,8h0a5.75,5.75,0,0,0,6.13-1.95,6.27,6.27,0,0,0,1.14-6.84A6.11,6.11,0,0,0,304.89,206.89Zm-2.9.25a6.53,6.53,0,0,0-4,6.29,6.45,6.45,0,0,0,2.35,4.53,7.85,7.85,0,0,1-1.28-6.81A6.21,6.21,0,0,1,302,207.14Z" transform="translate(-0.65 -0.87)"/><path class="cls-2" d="M267.83,274.52c-.32-9-.71-18.61-.51-27.58,9.05-1.95,18.1-3.91,27-6.5l.49-.14c0,2.45.1,4.9.11,7.35.06,6.77.06,14.29,0,21-7.92,1.94-18.95,4.14-27,5.82Zm.09-.12c7.6-2.15,18.45-5.21,26-7.08l-.59.75c0-3.93.13-9.63.24-13.62.09-4.55.25-9.09.44-13.63l.5.4c-2.22.5-4.44,1-6.66,1.5-6.65,1.53-13.19,3.48-19.76,5.31l.46-.59c.14,8.66-.29,18.25-.62,27Z" transform="translate(-0.65 -0.87)"/><path class="cls-2" d="M267.59,274.82l-.07-2c-.31-8.58-.63-17.45-.44-25.85v-.2l.19,0c8.25-1.77,17.58-3.79,26.5-6.36h0l.46-.13.8-.22v.32c0,.93,0,1.86,0,2.8,0,1.51.06,3,.07,4.55,0,5.39.07,13.42,0,21.06v.19l-.19,0c-6.58,1.62-15.15,3.37-22.71,4.92l-4.34.9Zm1.21-26.73c.09,7.51-.22,15.57-.52,23.37l-.1,2.61c8.45-2.39,17.9-5,24.9-6.8,0-3.77.13-9,.23-12.83s.22-8.13.41-12.79l-1.43.31c-1.46.33-2.93.65-4.39,1-5.12,1.18-10.26,2.63-15.23,4Zm24.27,19.69c-5.63,1.42-12.81,3.4-19.78,5.36,7.18-1.47,15.13-3.12,21.34-4.63.1-7.57.08-15.51,0-20.86,0-1.52,0-3-.06-4.54l0-1.65h0l-.33.08c-.2,4.7-.33,8.94-.42,12.91-.09,3.77-.19,8.94-.23,12.7l.28-.07.71-.18-1.5,1.89v-1Zm-25.53-19.34c-.1,6.72.1,13.72.34,20.6.27-7,.51-14.12.43-20.82l-.17.05Zm0-1.3,0,1.17,1.1-1.4Zm1.21-.26v.7l3.74-1.06c3-.85,6.08-1.72,9.18-2.53C277.27,245,272.91,246,268.78,246.88Zm25-6c-2,.58-4,1.12-6,1.64h0c1.46-.35,2.93-.67,4.4-1l1.55-.34Zm.5-.14.31.24v-.33l-.19.06Z" transform="translate(-0.65 -0.87)"/><path class="cls-2" d="M276.86,263c-5.33-4.12-3.45-11.78,3.43-12.39,3.76-.42,7.8,2.15,8.27,6.12.86,6.81-6.51,10.56-11.7,6.27Zm.09-.11c4.21,3.28,10.81-.88,10.24-6-.54-5.76-7.54-8.11-10.93-3.12-1.89,2.67-2.14,6.92.69,9.12Z" transform="translate(-0.65 -0.87)"/><path class="cls-2" d="M281.73,265.1a7.92,7.92,0,0,1-5-1.88,7.38,7.38,0,0,1-2.9-7.94,7,7,0,0,1,6.46-4.89c3.72-.42,8,2,8.53,6.33a7.24,7.24,0,0,1-3.59,7.48A7.08,7.08,0,0,1,281.73,265.1Zm-2.12-.83a6.68,6.68,0,0,0,8.7-7.49,7,7,0,0,0-6.12-5.86l.42.09a6.54,6.54,0,0,1,4.82,5.88,7.14,7.14,0,0,1-7.82,7.38Zm1.48-13a5.59,5.59,0,0,0-4.63,2.62c-1.82,2.57-2.09,6.66.64,8.78h0a5.73,5.73,0,0,0,6.43.26,6.26,6.26,0,0,0,3.41-6,6.06,6.06,0,0,0-4.46-5.45A5.58,5.58,0,0,0,281.09,251.31Zm-.86-.42a6.49,6.49,0,0,0-6,4.53,6.43,6.43,0,0,0,.65,5.06,7.84,7.84,0,0,1,1.13-6.83A6.24,6.24,0,0,1,280.23,250.89Z" transform="translate(-0.65 -0.87)"/><path class="cls-2" d="M225.07,302.52c2.76-8.54,5.7-17.73,9-26.08,9.17,1.26,18.34,2.51,27.58,3.11l.51,0c-.8,2.32-1.58,4.64-2.4,7-2.27,6.38-4.84,13.44-7.24,19.77-8.11-.89-19.23-2.6-27.4-3.79Zm.12-.08c7.88.58,19.12,1.42,26.85,2.24l-.82.5c1.38-3.68,3.43-9,4.89-12.72,1.64-4.24,3.34-8.45,5.07-12.65l.34.54c-2.26-.28-4.51-.6-6.77-.86-6.77-.84-13.59-1.24-20.39-1.77l.64-.4c-2.83,8.19-6.52,17.05-9.81,25.12Z" transform="translate(-0.65 -0.87)"/><path class="cls-2" d="M252.63,306.57l-.19,0c-6.74-.73-15.39-2-23-3.14l-4.38-.65-.29,0,.63-1.93c2.64-8.17,5.37-16.62,8.42-24.44l.07-.18.2,0c8.35,1.15,17.81,2.46,27.08,3.08h0l.48,0,.83.06-.11.3-.9,2.64c-.49,1.44-1,2.88-1.5,4.31-1.81,5.09-4.53,12.65-7.24,19.78Zm-22-3.48c7.26,1.08,15.28,2.25,21.65,3,2.68-7.07,5.37-14.54,7.16-19.59.52-1.43,1-2.86,1.5-4.3l.53-1.55h0l-.35,0c-1.8,4.37-3.37,8.3-4.8,12-1.38,3.49-3.23,8.32-4.56,11.85l.29,0,.72.08-2,1.25.25-.67c0-.08.07-.17.1-.26C245.32,304.23,237.88,303.64,230.66,303.09Zm-5.11-.87c8.76.64,18.54,1.39,25.72,2.13,1.33-3.55,3.22-8.44,4.61-12s3-7.55,4.75-11.88l-1.47-.2c-1.48-.19-3-.39-4.44-.56-5.21-.64-10.54-1-15.69-1.41l-4-.3c-2.48,7.09-5.53,14.56-8.48,21.79Zm8.17-24.3c-2.4,6.27-4.6,12.92-6.73,19.47,2.64-6.48,5.3-13.09,7.52-19.41l-.17,0Zm27.74,1.87.21.34c0-.11.07-.21.1-.32h-.31Zm-6.7-.55h0c1.48.17,3,.37,4.44.57l1.61.21.11-.27Q257.85,279.54,254.76,279.24Zm-19.58-1.71,3.88.29c3.12.23,6.3.47,9.48.76-4.52-.53-8.95-1.13-13.13-1.7l-.18.52Zm-1-.82-.42,1.09,1.51-.94Z" transform="translate(-0.65 -0.87)"/><path class="cls-2" d="M237.48,294.81c-3.59-5.7.8-12.25,7.47-10.47,3.67.89,6.59,4.69,5.67,8.57-1.51,6.7-9.73,7.7-13.14,1.9Zm.13-.08c2.83,4.53,10.46,2.88,11.67-2.13,1.46-5.6-4.3-10.2-9.2-6.67-2.69,1.86-4.38,5.76-2.47,8.8Z" transform="translate(-0.65 -0.87)"/><path class="cls-2" d="M243.8,298.86a7.61,7.61,0,0,1-6.53-3.92,7.4,7.4,0,0,1,0-8.45A7,7,0,0,1,245,284.1c3.63.88,6.85,4.65,5.85,8.87a7.18,7.18,0,0,1-7.06,5.89Zm-4.16-1.94a6.69,6.69,0,0,0,10.74-4.06,7,7,0,0,0-3.74-7.6c.12.07.24.14.35.22a6.56,6.56,0,0,1,2.53,7.18,7.14,7.14,0,0,1-9.88,4.26Zm4.06-12a5.91,5.91,0,0,0-3.48,1.2c-2.59,1.79-4.25,5.54-2.4,8.47h0a5.73,5.73,0,0,0,6,2.44,6.29,6.29,0,0,0,5.27-4.5,6.06,6.06,0,0,0-2.33-6.65A5.27,5.27,0,0,0,243.7,284.93Zm-.95-.64a6.14,6.14,0,0,0-5.09,2.49,6.42,6.42,0,0,0-1.12,5,7.82,7.82,0,0,1,3.4-6,6.22,6.22,0,0,1,4.86-1.17A8.25,8.25,0,0,0,242.75,284.29Z" transform="translate(-0.65 -0.87)"/><path class="cls-2" d="M175.31,314.21c5.52-7.08,11.41-14.71,17.33-21.45,8.18,4.32,16.38,8.63,24.85,12.36l.47.21c-1.55,1.9-3.07,3.82-4.64,5.7-4.31,5.23-9.14,11-13.56,16.11-7.32-3.61-17.19-9-24.45-12.93Zm.14,0c7.21,3.23,17.48,7.87,24.46,11.28l-.94.19c2.56-3,6.3-7.29,8.94-10.28q4.49-5.13,9.1-10.15l.13.63c-2-1-4-2.12-6.07-3.13-6.07-3.11-12.34-5.81-18.55-8.64l.74-.16c-5.46,6.73-12,13.8-17.81,20.26Z" transform="translate(-0.65 -0.87)"/><path class="cls-2" d="M199.82,327.45l-.17-.09c-6.09-3-13.8-7.17-20.6-10.85l-3.86-2.08-.26-.14,1.25-1.61c5.28-6.77,10.74-13.77,16.28-20.08l.12-.15.18.09c7.46,3.94,15.9,8.4,24.39,12.16h0l.44.19.15.07.32.15.29.13-.2.25-1.74,2.15c-1,1.19-1.92,2.38-2.9,3.55C210.09,315.34,205,321.5,200,327.3Zm-19.45-10.79c6.45,3.49,13.59,7.34,19.33,10.17,5-5.76,10-11.84,13.43-15.95q1.47-1.77,2.89-3.55l1-1.26h0l-.31-.16c-3.21,3.51-6,6.67-8.62,9.62s-5.9,6.73-8.34,9.58l.26.13.65.32-2.35.48.46-.55.19-.21C193.76,322.75,187,319.65,180.37,316.66Zm-4.51-2.57c8,3.6,17,7.66,23.44,10.8,2.45-2.86,5.89-6.81,8.43-9.68s5.36-6.06,8.53-9.54l-1.33-.69c-1.32-.69-2.64-1.38-4-2-4.67-2.39-9.54-4.58-14.25-6.7L193,294.59c-4.76,5.81-10.17,11.77-15.4,17.54Zm16-20c-4.4,5.08-8.75,10.57-13,16,4.7-5.19,9.47-10.49,13.71-15.68l-.15-.07Zm25.43,11.24.08.39.2-.25-.16-.09h0Zm-6.13-2.81,0,0c1.33.66,2.65,1.35,4,2l1.45.75.19-.21C214.91,304.25,213,303.37,211.15,302.48Zm-17.79-8.29,3.55,1.6c2.85,1.28,5.76,2.59,8.65,3.95-4.07-2-8-4.12-11.76-6.09l-.35.43Zm-.66-1.12-.77.88,1.74-.37Z" transform="translate(-0.65 -0.87)"/><path class="cls-2" d="M189.61,311.21c-1.43-6.59,4.93-11.24,10.59-7.28,3.16,2.09,4.6,6.65,2.41,10-3.72,5.77-11.78,3.91-13-2.71Zm.14,0c1.11,5.22,8.85,6.28,11.7,2,3.29-4.76-.55-11.05-6.37-9.41-3.16.83-6.08,3.92-5.33,7.43Z" transform="translate(-0.65 -0.87)"/><path class="cls-2" d="M196.62,317.62a7.16,7.16,0,0,1-1.37-.14,7.49,7.49,0,0,1-5.88-6.22,7.37,7.37,0,0,1,2.88-7.94,7,7,0,0,1,8.09.4c3.11,2.07,4.85,6.71,2.47,10.34A7.37,7.37,0,0,1,196.62,317.62Zm-5.7-3.69a6.68,6.68,0,0,0,11.48-.14,7,7,0,0,0-.92-8.42l.26.33a6.55,6.55,0,0,1-.09,7.6,7.13,7.13,0,0,1-10.73.63Zm6-10.2a6.69,6.69,0,0,0-1.8.26c-3.05.79-5.88,3.75-5.15,7.14h0a5.73,5.73,0,0,0,4.76,4.33,6.27,6.27,0,0,0,6.48-2.43,6,6,0,0,0,.09-7A5.27,5.27,0,0,0,197,303.73Zm-1.09-1a6,6,0,0,0-3.34,1,6.37,6.37,0,0,0-2.75,4.29,7.84,7.84,0,0,1,5.25-4.51,6.28,6.28,0,0,1,5,.57A7.33,7.33,0,0,0,195.86,302.71Z" transform="translate(-0.65 -0.87)"/><path class="cls-2" d="M124.55,308.17c7.61-4.76,15.76-9.91,23.62-14.22,6.22,6.86,12.44,13.71,19.13,20.11l.36.36c-2.1,1.25-4.19,2.54-6.3,3.77-5.84,3.43-12.35,7.2-18.26,10.5-5.64-5.9-13.06-14.35-18.55-20.52Zm.14,0c5.67,5.5,13.74,13.37,19.13,19l-.95-.14c3.43-1.93,8.41-4.69,11.92-6.6q6-3.29,12-6.43l-.09.63c-1.55-1.67-3.07-3.36-4.63-5-4.65-5-9.61-9.69-14.48-14.46l.74.1c-7.43,4.45-15.95,8.88-23.66,12.95Z" transform="translate(-0.65 -0.87)"/><path class="cls-2" d="M143.06,329l-.13-.14c-4.71-4.91-10.53-11.47-15.67-17.26-1-1.14-2-2.23-2.89-3.26l-.2-.22,1.72-1.08c7.27-4.56,14.8-9.27,22.17-13.31l.17-.09.13.14c5.65,6.25,12,13.32,18.76,19.77h0l.35.33.59.59-.27.16-2.4,1.44q-1.95,1.19-3.91,2.34c-4.65,2.73-11.6,6.77-18.26,10.49Zm-14.6-16.79c4.88,5.49,10.27,11.54,14.69,16.17,6.6-3.69,13.47-7.69,18.08-10.4,1.31-.76,2.61-1.55,3.91-2.33l1.41-.85h0l-.24-.25c-4.17,2.18-7.9,4.18-11.39,6.1-3.32,1.8-7.84,4.3-11.11,6.14l.2.21.5.52-2.37-.35.62-.35.25-.14C139,322.51,133.65,317.27,128.46,312.21Zm-3.35-3.95c6.3,6.11,13.32,13,18.33,18.16,3.29-1.85,7.87-4.39,11.23-6.22s7.16-3.88,11.29-6l-1-1.09c-1-1.09-2-2.21-3-3.29-3.57-3.85-7.4-7.57-11.1-11.17l-2.89-2.81c-6.46,3.84-13.6,7.6-20.5,11.24ZM167,314.15l-.06.39.28-.17-.13-.13Zm-4.8-4.74,0,0c1,1.09,2.06,2.21,3,3.29l1.09,1.19.25-.13C165.17,312.35,163.69,310.89,162.24,309.41ZM147,294.89c-5.87,3.27-11.83,6.94-17.67,10.59,6.18-3.27,12.48-6.62,18.24-10l-.13-.12Zm1.37.65,2.79,2.72c2.24,2.17,4.52,4.39,6.77,6.66-3.13-3.31-6.13-6.62-9-9.74l-.48.28Zm-1.26-.72,1.76.25-.74-.81Z" transform="translate(-0.65 -0.87)"/><path class="cls-2" d="M139,310.25c.9-6.68,8.48-8.88,12.44-3.22,2.25,3,2,7.82-1.16,10.21-5.47,4.15-12.4-.36-11.28-7Zm.14,0c-.74,5.28,6.16,8.93,10.31,5.86,4.72-3.34,3.26-10.58-2.76-11-3.25-.31-7.06,1.6-7.55,5.16Z" transform="translate(-0.65 -0.87)"/><path class="cls-2" d="M145.78,319.08a6.92,6.92,0,0,1-3.61-1,7.51,7.51,0,0,1-3.4-7.86,7.39,7.39,0,0,1,5.42-6.48,7,7,0,0,1,7.47,3.15c2.22,3,2.26,8-1.21,10.56A7.72,7.72,0,0,1,145.78,319.08Zm-6.47-5.83A6.69,6.69,0,0,0,150.15,317a7,7,0,0,0,2-8.22,2.64,2.64,0,0,1,.12.4,6.54,6.54,0,0,1-2.67,7.11,7.15,7.15,0,0,1-10.31-3.08Zm6.71-7.92c-3,0-6.17,1.78-6.61,5h0a5.73,5.73,0,0,0,3,5.7,6.27,6.27,0,0,0,6.93-.07,6.06,6.06,0,0,0,2.49-6.58,5.46,5.46,0,0,0-5.13-4C146.47,305.34,146.24,305.33,146,305.33Zm-.26-1.29a6,6,0,0,0-1.45.17,6.4,6.4,0,0,0-4.05,3.09,7.85,7.85,0,0,1,6.47-2.44,6.28,6.28,0,0,1,4.48,2.23A6.75,6.75,0,0,0,145.76,304Z" transform="translate(-0.65 -0.87)"/><path class="cls-2" d="M78.92,285.14c8.77-1.87,18.2-3.92,27.06-5.28,3.49,8.57,7,17.13,11.09,25.44l.22.46c-2.4.46-4.8.95-7.21,1.39-6.66,1.23-14.06,2.54-20.75,3.62-3.28-7.47-7.36-17.95-10.41-25.63Zm.12.07c3.45,7.11,8.34,17.27,11.49,24.37l-.84-.46c3.88-.65,9.51-1.53,13.46-2.12q6.73-1,13.49-1.94l-.3.57c-.88-2.1-1.73-4.21-2.64-6.3C111,293,108,286.94,105,280.79l.67.35c-8.51,1.64-18,2.89-26.67,4.07Z" transform="translate(-0.65 -0.87)"/><path class="cls-2" d="M89.18,311l-.07-.17c-2.73-6.21-6-14.35-8.8-21.53-.56-1.43-1.11-2.81-1.62-4.1l-.11-.28,1.93-.41c8.41-1.8,17.11-3.66,25.43-4.94l.2,0,.07.18c3.18,7.81,6.78,16.65,10.87,25h0l.21.43.36.75-.31.06-2.7.53c-1.5.29-3,.59-4.52.86-5.3,1-13.21,2.4-20.75,3.62Zm-8-20.76c2.71,6.82,5.7,14.36,8.27,20.21,7.48-1.21,15.29-2.62,20.55-3.59,1.51-.27,3-.56,4.52-.86l1.56-.3v0l-.14-.32c-4.72.63-8.91,1.24-12.79,1.84-3.7.55-8.8,1.36-12.54,2l.12.27.29.66L88.94,309l.71-.12.28-.05C87.55,303.53,84.35,296.8,81.21,290.28Zm-1.8-4.87c3.82,7.9,8.07,16.74,11,23.34,3.75-.62,8.93-1.44,12.68-2s8-1.19,12.67-1.82c-.2-.46-.39-.93-.58-1.4-.57-1.37-1.13-2.74-1.73-4.1-2-4.84-4.37-9.65-6.62-14.3l-1.74-3.62c-7.38,1.4-15.37,2.49-23.1,3.55Zm37.39,19.88-.19.35.32-.06-.08-.18A.37.37,0,0,1,116.8,305.29Zm-2.88-6.06h0c.59,1.36,1.16,2.73,1.73,4.11.2.5.41,1,.62,1.51l.28,0Q115.21,302.06,113.92,299.23Zm-8.31-17.82c.56,1.17,1.13,2.34,1.69,3.5,1.36,2.81,2.74,5.67,4.08,8.57-1.81-4.18-3.5-8.3-5.09-12.2l-.54.1Zm-1.06-1.08c-6.64,1.07-13.5,2.48-20.23,3.91,6.93-.95,14-1.95,20.57-3.19l-.07-.16Zm.12,0,1.57.84-.42-1Z" transform="translate(-0.65 -0.87)"/><path class="cls-2" d="M91.8,292c3.14-6,11-5.44,12.8,1.23,1.07,3.63-.76,8.05-4.59,9.2-6.55,2-11.53-4.58-8.21-10.43Zm.13.07c-2.5,4.71,2.74,10.5,7.68,9,5.59-1.53,6.69-8.83,1.18-11.31-3-1.4-7.18-.9-8.86,2.27Z" transform="translate(-0.65 -0.87)"/><path class="cls-2" d="M97.64,303.09a7,7,0,0,1-5.55-2.62,7.5,7.5,0,0,1-.51-8.55,7.39,7.39,0,0,1,7.31-4.23,7,7,0,0,1,6,5.52c1,3.57-.61,8.25-4.76,9.5A8.38,8.38,0,0,1,97.64,303.09ZM91.05,295a6.7,6.7,0,0,0,8.89,7.27,7,7,0,0,0,4.71-7c0,.13,0,.27,0,.4a6.55,6.55,0,0,1-4.95,5.78A7.15,7.15,0,0,1,91.05,295Zm6.37-5.62a5.73,5.73,0,0,0-5.27,2.88h0A5.72,5.72,0,0,0,93,298.6a6.26,6.26,0,0,0,6.54,2.31,6.06,6.06,0,0,0,4.59-5.34,5.46,5.46,0,0,0-3.45-5.5A7.77,7.77,0,0,0,97.42,289.35Zm0-.49a8.14,8.14,0,0,1,3.47.76,6.23,6.23,0,0,1,3.44,3.62,6.49,6.49,0,0,0-5.49-5.06A6.39,6.39,0,0,0,94,289.7,7.07,7.07,0,0,1,97.42,288.86Z" transform="translate(-0.65 -0.87)"/><path class="cls-2" d="M262.6,261c-5.26,4.57-10.91,9.5-16.43,13.75-5.59-4.52-11.18-9-17.08-13.15l-.33-.24c1.47-1.21,2.92-2.45,4.39-3.64,4.07-3.34,8.62-7,12.76-10.24,5,3.85,11.74,9.45,16.69,13.52Zm-.11,0c-5-3.54-12.14-8.62-17-12.27h.74c-2.39,1.89-5.89,4.61-8.36,6.49q-4.18,3.24-8.45,6.37v-.49c1.39,1.09,2.76,2.21,4.16,3.29,4.16,3.28,8.53,6.29,12.84,9.37h-.58c5.17-4.31,11.18-8.72,16.61-12.77Z" transform="translate(-0.65 -0.87)"/><path class="cls-2" d="M246.17,275.09,246,275c-5.18-4.18-11-8.93-17.08-13.14l-.58-.42.24-.21.61-.5v-.09l.06,0,1-.84c.91-.76,1.81-1.52,2.72-2.26,3.21-2.63,8-6.54,12.76-10.24l.16-.12.15.12c4.19,3.2,9.43,7.53,14.06,11.35L263,261l-1.19,1c-5.06,4.39-10.29,8.92-15.47,12.92Zm-.5-1,.51.41.54-.42ZM240,269.46c1.88,1.49,3.71,3,5.47,4.38l.29-.24,0,0-2.41-1.72Zm6.6,4.09.05,0,.36.26c3.69-2.89,7.39-6,11-9.16C254.09,267.6,250.16,270.58,246.56,273.55ZM230.2,261.38l.85.69c.9.72,1.81,1.44,2.72,2.14,3.2,2.53,6.58,4.92,9.85,7.24.84.6,1.68,1.19,2.52,1.8,4.51-3.73,9.53-7.46,14.39-11.08l1.54-1.14c-5.52-3.91-11.67-8.3-16.15-11.68-2.32,1.83-5.51,4.31-7.84,6.09S233.11,259.23,230.2,261.38Zm-.49.37,1.31.93-.28-.23-1-.76Zm-.54-.38.05,0v-.07Zm.5-.41.13.1c2.95-2.18,5.56-4.15,8-6s5.43-4.18,7.74-6l-.12-.09-.47-.36c-4.35,3.43-8.66,6.92-11.61,9.34-.91.74-1.82,1.5-2.72,2.25ZM246.33,249c3.25,2.46,7.37,5.43,11.48,8.36-3.66-3-7.55-6.21-10.91-8.81l-.46.36Zm-.42-1.22-.88.69h1.76Z" transform="translate(-0.65 -0.87)"/><path class="cls-2" d="M251.25,261.16c.1,5.24-5.45,7.83-9.17,4-2.08-2.06-2.5-5.76-.33-8a5.45,5.45,0,0,1,9.5,4Zm-.11,0c-.06-4.14-5.8-6.11-8.62-3.26-3.22,3.13-1.24,8.51,3.44,8.13,2.53-.16,5.23-2.08,5.18-4.87Z" transform="translate(-0.65 -0.87)"/><path class="cls-2" d="M246.11,267.24a5.84,5.84,0,0,1-4.2-1.94c-2.08-2.06-2.72-5.9-.34-8.33a5.7,5.7,0,0,1,6.34-1.49,5.87,5.87,0,0,1,3.59,5.68,5.79,5.79,0,0,1-3.42,5.68A5.29,5.29,0,0,1,246.11,267.24Zm-2.93-1.5a4.77,4.77,0,0,0,4.71.63,4.88,4.88,0,0,0,2.47-2.29,6.3,6.3,0,0,1-4.38,2.2A5.09,5.09,0,0,1,243.18,265.74Zm2.72-8.94a4.45,4.45,0,0,0-3.2,1.27,4.67,4.67,0,0,0-1.12,5.29,4.22,4.22,0,0,0,4.36,2.42c2.42-.15,5-2,4.95-4.61h0a4.41,4.41,0,0,0-2.94-4A5.39,5.39,0,0,0,245.9,256.8Zm-.06-1.23a5.42,5.42,0,0,0-3.91,1.75,5.09,5.09,0,0,0-1.18,5,5.23,5.23,0,0,1,1.6-4.58,5.29,5.29,0,0,1,5.78-1,5.5,5.5,0,0,1,2.24,1.62,5.24,5.24,0,0,0-2.64-2.42A5,5,0,0,0,245.84,255.57Z" transform="translate(-0.65 -0.87)"/></svg>