<?xml version="1.0" encoding="UTF-8"?>
<svg id="Layer_1" data-name="Layer 1" xmlns="http://www.w3.org/2000/svg" viewBox="0 0 393.34 393.34">
  <defs>
    <style>
      .cls-1 {
        fill: none;
      }

      .cls-1, .cls-2, .cls-3, .cls-4 {
        stroke-width: 0px;
      }

      .cls-3 {
        fill: #1d1e1c;
      }

      .cls-4 {
        fill: #fff;
      }
    </style>
  </defs>
  <rect class="cls-1" width="393.34" height="393.34" rx="25.48" ry="25.48"/>
  <g>
    <g>
      <path class="cls-2" d="m134.56,54.85c-3.88,2.03-11.33,5.94-14.86,13.93-2.73,6.16-2.02,12.25-1.17,15.92-3.23,1.49-11.08,5.62-11.8,12.16-.11.99-.15,1.19,2.4,9.4,2.61,8.42,2.82,10.29,4.98,11.98,2.15,1.69,4.71,2.01,6.45,2.03-8.61,12.42-12.46,23.02-13.09,26.17-.92,4.67-.92,9.22-.92,9.22h0c-.05,1.8,0,2.96,0,3.5.05,6.37-4.78,12.61-11.98,25.43-2.42,4.31-3.63,6.73-2.76,9.22,1.06,3.04,4.81,5.05,5.71,5.53,3.28,1.76,6.6,1.97,6.9,3.84.03.17,0,.43-.08.95-.09.65-.37,2.41-1.53,4.22-.94,1.46-1.38,1.59-2.44,3.24-.22.35-.43.77-.59,1.32-.14.46-.72,2.42.1,4.33.88,2.04,2.45,1.88,2.85,3.52.41,1.69-1.14,2.23-1.17,4.73,0,.16,0,2.82,1.82,4.47,1.33,1.21,2.39.52,3.09,1.36,1.47,1.75-2.29,5.54-3.17,11.29-.08.5-.78,5.41,1.04,8.88.68,1.3,3.26,5.31,19.37,6.59,17.45,1.38,28.67-1.5,31.26-2.09,2.79-.64,5.08-1.29,6.67-1.77,1.36.08,3.74.41,6.04,1.95,1.45.97,2.89,2.43,4.51,5.74,1.31,2.68,4.27,8.69,3.42,13.99-.88,5.49-5.73,9.88-18.06,15.85-16.41,7.95-24.72,8.39-34.65,12.16-21.65,8.24-39.91,28.12-36.86,34.65,4.28,9.16,52.09-4.78,68.56-9.58,24.03-7.01,42.51-15.37,55.66-22.12,1.24-.64,5.66-2.93,9.85-5.35,10.03-5.79,17.1-11.33,28.53-20.38,10.62-8.4,6.48-5.85,15.43-12.92,7.16-5.66,11.73-8.81,10.99-10.8-.49-1.33-2.98-1.12-7.52-1.74-4.35-.59-12.8-1.73-17.74-5.68-7.24-5.79-7.8-18.29-5.25-19.63,1.8-.94,4.17,4.49,10.23,5.25,5.18.65,11.69-2.28,12.95-6.59,1.56-5.37-5.72-10.38-3.63-13.81,1.3-2.14,4.44-.38,7.92-3.13,3.08-2.44,5.42-6.99,4.8-11.25-.86-5.95-7.09-8.5-6.11-10.58.81-1.72,5.06.06,9.98-1.59,5.37-1.8,8.25-6.57,9.95-9.4,5.44-9.04,4.26-17.44,4.98-25.99,1.65-19.65,11.62-19.51,13.27-34.83,1.42-13.2-5.56-17.13-16.86-35.64-5.91-9.68-10.32-16.01-13-25.18-.68-2.32-1.47-5.54-3.79-9.45-.85-1.43-4.93-8.33-11.61-11.61-6.89-3.39-11.91.52-23.31.06-12.58-.51-13.16-6.18-30.56-10.15-10.9-2.49-17.38-3.97-25.07-1.84-13.89,3.84-13.53,14.43-30.96,22.49-.7.33-3.1,1.11-6.61,2.48-6.53,2.54-9.81,3.82-12.56,5.26Z"/>
      <path class="cls-4" d="m134.56,54.85c-12.19,5.85-19.27,16.12-16,29.88-5.13,2.45-11.01,6.17-11.8,12.27-.1.98.26,1.94.49,2.89,0,0,.84,2.84.84,2.84,0,0,1.74,5.67,1.74,5.67,2.02,6.58,2.47,11.61,10.71,11.8,0,0,.14,0,.14,0,0,0-.08.12-.08.12-4.94,7.23-9.29,14.94-12.21,23.21-1.81,5.2-1.73,10.8-1.77,16.25-.12,3.33-1.56,6.44-3.05,9.36-3.11,5.81-6.65,11.36-9.79,17.15-2.55,4.42-3.38,7.9,1.26,11.32,1.73,1.32,3.72,2.26,5.78,2.98,1.31.59,3.85,1.03,3.74,2.98-.17,1.66-.65,3.3-1.53,4.73-.85,1.44-2.16,2.49-2.85,3.99-.61,1.45-.8,3.19-.23,4.68.38,1.06,1.16,1.73,2.06,2.38.95.7,1.25,2.17.65,3.18-1.73,2.54-.91,7.14,2.24,8.01.48.12,1.15.08,1.63.56,1.19,1.49-.22,3.39-.75,4.82-1.41,2.94-2.51,6.08-2.46,9.38-.06,5.01,1.52,8.24,6.49,9.9,8.26,2.86,17.27,3,25.94,2.96,6.56-.19,13.12-.92,19.49-2.52,0,0,6.35-1.68,6.35-1.68,2.16.05,4.34.73,6.16,1.91,1.84,1.16,3.15,2.98,4.15,4.83,1.93,3.73,3.71,7.67,4.11,11.96,1.01,9.33-8.7,14.35-15.69,18.06-7.49,3.85-15.35,7.01-23.46,9.29-4.04,1.17-8.12,2.2-12.07,3.58-11.79,4.23-22.56,11.41-31.17,20.49-3.05,3.39-10.49,11.98-6.17,15.51,9.15,5.51,43.87-4.73,55.08-7.62,28.35-7.62,56.06-18.13,81.3-33.22,10.68-6.65,20.47-14.67,30.23-22.57,4.48-4.09,9.71-8.37,14.57-12.07,1.63-1.31,3.31-2.59,4.75-4.05.68-.71,1.43-1.6,1.34-2.34-.03-.74-1.23-.94-2.2-1.08-2.05-.25-4.18-.42-6.26-.74-6.16-.94-12.93-2.1-17.7-6.51-3.83-3.79-5.69-9.26-5.75-14.57.09-1.57.14-5.08,2.48-4.89,1.36.42,2.26,1.61,3.31,2.39,3.11,2.82,7.46,3.72,11.45,2.5,2.89-.82,5.83-2.47,7.12-5.28,2.45-5.39-5.86-10.48-3.19-14.72,1.49-1.75,4.16-.95,6.04-1.93,5.42-2.58,8.53-10.3,5.18-15.61-1.04-1.79-2.6-3.18-4.01-4.78-.34-.42-.7-.86-.84-1.48-.28-2.22,2.7-1.86,4.11-1.87,2.09.04,4.17-.09,6.13-.74,3.99-1.31,6.94-4.56,9.09-8.07,4.89-7.07,5.35-15.74,5.51-24.07.25-6.29,1.36-12.74,4.5-18.3,2.02-3.69,4.77-6.93,6.58-10.73,2.54-5.64,3.45-12.3,1.68-18.28-1.22-4.01-3.63-7.53-5.99-10.96-7.19-10.34-14.22-20.89-19.95-32.12-1.87-3.78-2.99-7.88-4.23-11.88-2.81-7.67-8.33-15.25-16.22-18.12-4.06-1.29-8.32-.1-12.43.39-4.17.57-8.42.68-12.6.08-4.21-.56-8.02-2.54-11.75-4.46-7.48-3.92-15.8-5.65-24.01-7.3-8.15-1.76-17.22-1.2-24.09,3.92-3.38,2.51-6.02,5.83-8.98,8.81-2.95,3-6.28,5.62-9.94,7.7-7.36,4.08-15.74,5.93-23.2,9.82h0Zm0,0c7.45-3.9,15.82-5.77,23.17-9.86,3.65-2.08,6.97-4.71,9.91-7.71,2.95-2.98,5.59-6.31,8.97-8.84,6.88-5.14,16-5.75,24.17-3.98,8.23,1.63,16.58,3.36,24.07,7.27,3.72,1.91,7.5,3.87,11.7,4.42,4.15.59,8.38.47,12.53-.1,4.13-.51,8.42-1.71,12.53-.41,8,2.86,13.57,10.54,16.42,18.26,1.26,4.02,2.36,8.06,4.24,11.84,5.74,11.2,12.78,21.73,19.98,32.04,2.38,3.46,4.82,7,6.06,11.06,2.32,8.21.15,17.3-4.89,24.05-2.39,3.44-4.57,7.03-5.82,11.05-2.71,8.06-1.44,16.66-2.86,24.95-1.11,6.24-4.1,12.22-8.57,16.73-3.06,3.08-7.5,4.34-11.75,4.11-8.01-.48,0,4.3,1.28,7.24,2.39,3.73,1.7,8.68-.69,12.23-1.7,2.73-4.59,4.87-7.9,5.01-1.03.12-2.09.25-2.62,1-1.21,1.72.33,3.85,1.18,5.46,1.59,2.68,3.5,5.96,2.12,9.13-2.45,4.91-8.81,6.92-13.96,6-2.14-.43-4.07-1.57-5.7-2.93-1.29-.87-3.35-3.83-4.18-1.04-1.34,5.88.91,12.73,5.13,17.01,4.64,4.26,11.22,5.34,17.28,6.26,2.08.32,4.14.48,6.26.73,1.1.17,2.71.39,2.9,1.77.12,1.31-.8,2.17-1.56,3.03-1.51,1.54-3.18,2.82-4.82,4.14,0,0-4.96,3.89-4.96,3.89-3.36,2.56-6.39,5.39-9.57,8.18-3.23,2.72-6.54,5.29-9.84,7.91-9.84,7.93-20.19,15.27-31.47,21-22.22,12.05-46.2,20.52-70.55,27.08-12.17,3.32-24.42,6.5-36.92,8.33-5.2.66-10.59,1.38-15.83.34-10.31-2.35-.92-13.66,3.05-17.94,5.79-6.16,12.62-11.29,19.97-15.42,7.33-4.24,15.53-6.6,23.64-8.78,8.08-2.26,15.89-5.38,23.36-9.21,6.81-3.63,16.34-8.38,15.4-17.46-.37-4.14-2.11-8.05-4.02-11.74-.99-1.82-2.22-3.54-3.96-4.64-1.59-1.1-4.13-1.79-5.71-1.86,0,0-6.38,1.68-6.38,1.68-6.4,1.59-13.01,2.33-19.6,2.5-8.76.03-17.75-.13-26.11-3.03-5.09-1.76-6.82-5.05-6.74-10.32-.04-3.35,1.08-6.57,2.52-9.54.45-1.33,1.83-3.07.84-4.38-.32-.35-.88-.34-1.43-.46-3.45-.95-4.3-5.83-2.49-8.55.53-.92.28-2.11-.55-2.75-.87-.64-1.81-1.44-2.15-2.53-.78-2.13-.26-4.63,1.14-6.37,1.83-2.05,3.3-4.38,3.49-7.18.02-1.72-2.24-2.06-3.52-2.64-4.85-1.62-11.58-5.82-8.64-11.77,4.04-8.99,10.67-16.75,13.8-26.13,1.08-4.24.18-8.76.93-13.08.26-2.18.63-4.37,1.4-6.44,2.94-8.1,7.38-16.54,12.33-23.12-8.32-.21-8.82-5.28-10.83-11.92,0,0-1.73-5.67-1.73-5.67,0,0-.83-2.85-.83-2.85-.23-.95-.59-1.91-.49-2.93.76-6.09,6.84-9.99,11.83-12.28-3.23-13.7,3.84-24.05,16.07-29.87h0Z"/>
    </g>
    <g>
      <path class="cls-2" d="m281.5,260.38c-3.65-3.01-22.83,22.69-59.72,45.71-8.87,5.54-28.31,16.87-54.92,25.8-10.33,3.47-19.13,6.42-31.7,8.48-27.04,4.43-50.13,1.23-50.87,5.53-.23,1.34,1.98,1.94,5.9,7,3.7,4.79,5.07,8.58,5.92,10.1,6.02,10.79,37.95,5.38,37.95,5.38,28.93-4.9,47.16-12.7,80.04-24.98,37.98-14.18,52.32-18.21,56.35-31.42,1.99-6.54-.12-10.13,2.95-24.33,3.87-17.92,10.14-25.6,8.11-27.28Z"/>
      <path class="cls-4" d="m281.47,260.41c-2.21-1.71-11.7,8.29-13.86,9.99-34.86,33.49-74.84,56.45-121.86,68.12-17.22,4.17-35.02,4.42-52.61,5.13-2.32.2-10.65.42-8.13,3.39,3.82,3.47,7.13,7.53,9.5,12.14,1.3,2.6,2.33,5.41,5.03,6.86,19.1,9.92,63.61-4.27,83.42-11.49,13.86-5.03,33.68-12.68,47.72-17.82,7.94-2.99,15.96-5.82,23.59-9.48,3.78-1.86,7.5-3.96,10.57-6.82,3.09-2.84,5.08-6.73,5.92-10.83.72-4.16.37-8.47.91-12.67.97-8.46,3.15-16.74,6.17-24.69,1.11-2.98,2.47-5.87,3.55-8.86.29-.94.81-2.15.07-2.96h0Zm.06-.08c.45.38.45,1.01.38,1.53-.27,1.58-.96,3.04-1.54,4.53-.8,1.97-1.6,3.93-2.34,5.92-2.95,7.94-5.06,16.23-5.95,24.66-.51,4.24-.12,8.49-.81,12.72-1.56,9.16-8.82,14.44-16.66,18.26-7.66,3.74-15.64,6.73-23.59,9.7-23.27,8.33-48.33,18.93-72,25.65-13.93,3.71-28.1,6.95-42.55,6.78-5.87-.16-12.04-.54-17.25-3.56-2.72-1.48-3.93-4.48-5.19-7.11-1.34-2.6-2.95-5.05-4.8-7.32-1.37-1.74-2.98-3.21-4.56-4.77-.25-.28-.53-.6-.61-1.05-.07-.44.11-.88.39-1.19,1.17-1.1,2.77-1.18,4.24-1.46,13.18-1.12,26.47-.62,39.59-2.51,23.32-2.98,45.66-11.38,66.93-21.11,21.3-9.96,41.12-22.87,59.03-38.09,6.78-5.64,13.17-11.73,19.8-17.54,1.69-1.41,3.36-2.9,5.33-3.92.67-.31,1.48-.62,2.14-.14h0Z"/>
    </g>
    <path class="cls-4" d="m109.79,197.2c-.15-.16-2.85-2.95-6.44-2.61-.45.04-2.09.19-2.17.76-.13.91,3.94,2.72,6.32,2.98.35.04,1.01.08,1.85.4,1.12.42,1.65.99,1.81.89.21-.14-.36-1.37-1.36-2.42Z"/>
    <path class="cls-4" d="m102.57,210.59c.11-.04.24-.06.5-.1,1.57-.27,2.83-.03,3.5.1,2.84.57,5.61,1.51,7,2,1.66.59,2.46.93,3.25,1.33.91.46,1.76,1.01,2.36,1.34,2.29,1.28,2.97,1.97,3.46,1.66.43-.26.32-1.01.59-1.03.26-.02.33.65.91,1.38.7.88,1.53,1.05,1.45,1.31-.07.23-.75.28-1.24.21-.04,0-.08-.01-.09-.02,0,0,0,0,0,0-.41-.09-.96-.3-.96-.3s-.09-.03-.85-.27c-1.34-.42-3.37.74-4.92.52-.15-.02-.92-.13-1.3-.19-.64-.09-.64-.09-.68-.1-1.37-.21-2.02-.88-3.35-1.08-.48-.07-.83-.05-1.31-.02-3.54.24-5.04,2.81-7.31,2.25-1.35-.33-2.3-1.61-2.41-1.76-.17-.24-.5-.74-.71-1.44-.65-2.12.35-5.16,2.12-5.8Z"/>
    <path class="cls-4" d="m108.43,231.72c4.47-.11,8.65-1.56,12.16-4.33-2.89,3.45-7.75,5.14-12.16,4.33h0Z"/>
    <path class="cls-4" d="m171.94,116.52c7.75,8.68,20.59,12.65,31.47,7.79,1.55-.61,3.03-1.39,4.47-2.26-2.58,2.17-5.67,3.77-8.96,4.69-10.01,2.99-21.22-1.73-26.98-10.22h0Z"/>
    <path class="cls-4" d="m171.94,116.52c1.07,10.69,10.89,21.45,22.19,18.85,6.52-1.65,11.28-7.03,13.75-13.32-.93,6.96-6.14,13.65-13.14,15.63-12.39,3.46-24.26-9.03-22.8-21.16h0Z"/>
    <path class="cls-4" d="m177.62,130.94c3.37,10.88,16.59,16.38,25.96,9.19,2.89-2.13,5.09-5.21,6.33-8.69-.74,3.68-2.83,7.05-5.73,9.45-9.54,8.16-24.39,2.1-26.56-9.96h0Z"/>
    <path class="cls-4" d="m183.38,140.1c2.73,6.42,10.1,12.02,17.18,9.13,6.84-2.71,10.34-10.7,9.35-17.79,2.03,7.35-1.59,16.06-8.89,18.96-7.53,3.11-15.68-3.04-17.64-10.31h0Z"/>
    <path class="cls-4" d="m189.78,148.38c5.84,4.8,16.87,7.34,21.61.19,2.32-4.42,1.02-9.71-1.15-14.18,5.15,4.96,6.59,15.75-.89,19.42-6.8,3.48-15.45.54-19.57-5.43Z"/>
    <path class="cls-4" d="m167.52,109.7c4.89,12.32,19.92,11.83,30.35,7.55,1.38-.53,3.34-1.4,4.67-2.02-1.19.84-3.1,1.9-4.42,2.59-10.38,5.44-27.02,5.46-30.6-8.12h0Z"/>
    <path class="cls-4" d="m163.74,96.32c.71,12.83,7.87,17.6,19.88,18.58,6.32.94,12.5,1.01,18.91.32-4.04,1.46-8.35,2.21-12.69,2.31-6.54-.1-13.38-.27-19.21-3.64-5.93-3.53-8.25-11.23-6.9-17.57h0Z"/>
    <path class="cls-4" d="m215.07,155.04c4.4,4.72,4.05,13.24-1.11,17.33,3.55-5.27,3.76-11.69,1.11-17.33h0Z"/>
    <path class="cls-4" d="m201.44,154.1c5.2,1.32,11.13,2.22,15.81-.6,4.7-2.86,7.16-8.12,7.77-13.58.73,2.81.49,5.94-.66,8.75-3.76,9.72-15.09,11.07-22.93,5.42h0Z"/>
    <path class="cls-4" d="m221.34,161.98c19.02-.58,33.97-9.92,37.35-29.48,1.13-5.64.45-11.79-.43-17.29,2.05,5.51,2.66,11.61,1.76,17.51-1.35,8.94-6.73,16.7-13.84,22.06-6.7,5.58-16.41,8.78-24.84,7.2h0Z"/>
    <path class="cls-4" d="m220.22,155.34c9.31-2.23,19.36-5.59,24.84-13.94,5.15-8.32,9.41-17.11,13.08-26.2,0,0,.12.04.12.04-4.42,18.12-17.31,40.08-38.04,40.1h0Z"/>
    <path class="cls-4" d="m221.39,162c7.24,9.21,14.67,18.25,22.94,26.52,6.89,6.9,11.05,6.87,16.06-1.84,4.25-8.22,8.55-16.73,11.74-25.41,2.97-8.78,3.07-18.61,2.04-27.63,2.19,9.16,2.06,18.99-.8,28.02-1.42,4.55-3.61,8.76-5.7,12.95-2.1,4.19-4.15,8.43-6.69,12.42-5.59,8.73-9.63,8.75-17.13,2-8.66-7.78-16.57-17.28-22.47-27.04h0Z"/>
    <path class="cls-4" d="m215.12,179.53c5.5,5.41,9.78,12.52,10.56,20.33.45,3.84-.51,7.74.58,11.48,2,7.09,8.43,13.88,16.26,12.91,3.65-.33,7.38-1.99,9.2-5.08,1.6-2.86,2.14-7.59-.31-10.08-3-2.41-7.39.45-9.38,3.13,0,0-.1-.07-.1-.07,1.89-3.19,6.55-6.49,10.12-3.81,3.07,2.91,2.67,7.99.84,11.51-3.22,5.3-10.61,6.77-16.17,4.78-5.6-2.16-9.03-7.72-10.87-13.15-1.16-3.79-.59-7.77-1.2-11.47-.51-3.74-1.65-7.4-3.35-10.79-1.85-4.02-4.32-6.71-6.17-9.67h0Z"/>
    <path class="cls-4" d="m262.08,220.44c1.97,2.15,2.71,5.67,1.32,8.48-2.11,3.79-8.07,6.88-11.37,2.8-3.72-4.13.36-10.37,5.58-9.1,0,0-.01.13-.01.13-2.71.07-5.33,1.97-5.62,4.67-.36,2.45,1.58,5.2,4.22,5.58,2.78.39,5.41-2.01,6.25-4.5.99-2.5.72-5.36-.47-7.99l.11-.07h0Z"/>
    <path class="cls-4" d="m262.46,183.88c-.72,1.62-1.82,3.3-2.24,4.93.01.26.19.54.39.81,4.04,4.25,10.65,6.31,13.35,11.91,1.57,4.24-3.8,6.36-6.57,8.26-2.54,1.5-5.73,3.89-8.8,2.33-5.98-3.3-5.05-13.8,1.71-15.57,3.48-.59,5.83,3.36,5.33,6.41,0,0-.13,0-.13,0,.04-2.7-2.08-6.07-5.01-5.43-5.41,1.79-6.14,10.63-1.36,13.54,2.58,1.36,5.51-.77,7.92-1.88,2.42-1.39,5.76-2.59,6.71-5.41.77-5.08-11.12-9.47-13.84-13.69-.21-.35-.44-.74-.45-1.25,0-.56.27-.83.43-1.18.71-1.38,1.59-2.61,2.44-3.85l.11.07h0Z"/>
    <path class="cls-4" d="m217.31,174.62c4.23,1.94,8.18,4.79,11.05,8.58,5.04,7.82,7.54,17.31,8.93,26.41.4,3.06,1.08,7.31,5,7.16,1.11.01,2.25-.25,3.35-.61l.05.12c-2.07,1.12-4.88,1.84-6.95.2-1.06-.82-1.59-2.05-1.98-3.18-1.03-3.39-1.19-6.92-1.87-10.34-.9-4.52-1.66-9.15-3.56-13.38-2.95-6.35-8.8-10.8-14.01-14.96h0Z"/>
    <path class="cls-4" d="m161.81,70.84c36.26,9.04,68.62,33.87,85.99,67.05-20.36-31.13-50.98-54.64-85.99-67.05h0Z"/>
    <path class="cls-4" d="m180.47,57.56c33.64,9.53,59.29,37.43,73.61,68.49-17.55-29.34-41.29-55.55-73.61-68.49h0Z"/>
    <path class="cls-4" d="m155.3,74.19c4.19-3.54,8.91-6.01,13.51-8.87,1.44-1.09,2.69-2.39,3.91-3.76,4.85-6.23,13.79-7.89,20.64-3.96,0,0-.07.24-.07.24-9.82-.94-16.74,1.6-23.96,8.11-2.56,2.6-5.22,5.28-8.68,6.71-1.67.77-3.4,1.43-5.25,1.76l-.11-.23h0Z"/>
    <path class="cls-4" d="m192.18,111.24c-3.25-5.38-7.65-10.89-13.93-12.52-3.18-.91-6.33-.1-9.64-.34-3.44-.25-6.71-1.64-9.53-3.34-2.62-1.73-5.49-2.26-8.05-.41-1.22.84-2.54,2.05-4.16,2.83-7.94,3.55-18.15.87-23.52-5.93-7.58-10.98-.12-29.61,12.3-33.53,6.18-2.17,12.75-2.9,18.71-5.64,4.43-2,8.3-4.97,11.65-8.47,3.33-3.64,6.38-7.59,10.58-10.39,8.39-5.82,19.42-7.46,29.03-3.55,10.48,4.68,3.13,17.69-4.41,21.26-4.65,2.65-10.06.52-14.96.96-4.62.36-9.12,2.22-12.83,5.01-1.48,1.03-2.8,2.44-4.52,3.47-.25.13-.58.29-1.12.31-2.41-.06-2.14-3.26-1.75-4.7,1.27-4.99,4.03-9.41,7.56-13.1,4.54-4.64,12.6-8.33,18.65-4.35,1.84,1.39,4.64,4.21,3.51,6.73-2.17,2.51-9.49-.49-12.21-1.27,0,0,.08-.24.08-.24,3.09.79,6.33,1.74,9.51,1.67,4.38-.1.16-4.8-1.6-5.82-10.21-5.31-21.28,7.64-23.23,16.88-.17.72-.22,1.7-.11,2.01-.01-.05-.3-.23-.45-.2,1.04-.73,2.75-2.36,4.16-3.4,4.07-3.13,8.97-5.21,14.13-5.67,3.25-.39,6.72.48,9.82.42,5.73-.28,11.16-5.8,12.4-11.25,1.24-7-7.53-8.05-12.74-8.58-6.29-.49-12.65,1.53-17.97,4.86-4.11,2.53-7.28,6.34-10.64,9.81-3.55,3.49-7.63,6.4-12.18,8.42-6.01,2.67-12.67,3.36-18.78,5.59-11.52,3.73-18.11,21.6-10.92,31.5,3.83,4.74,10.53,6.99,16.54,6.41,3.33-.27,5.6-1.74,8.27-3.82,2.25-1.6,5.48-1.92,7.98-.73,3.55,1.89,6.93,4.26,10.94,4.6,3.18.32,6.67-.34,9.84.72,6.59,1.97,10.84,7.87,13.8,13.67,0,0-.22.12-.22.12h0Z"/>
    <path class="cls-4" d="m196.26,64.39c6.01,1.06,12.18.68,17.66-1.98,3.7-1.89,6.36-5.17,10.22-6.88,3.9-1.9,8.71-1.09,12.19,1.31,1.75,1.15,3.29,2.56,4.62,4.12l-.09.09c-7.28-5.93-13.73-7.23-21.53-1.55-3.47,2.19-6.87,4.63-10.87,5.82-3.91,1.06-8.84.88-12.2-.94h0Z"/>
    <path class="cls-4" d="m214.54,76.55c14.03-10.27,20.37,1.15,26.33-3.83.98-.83,1.65-2,2.21-3.2-.3,1.3-.86,2.58-1.78,3.64-3.07,3.54-7.94,1.19-11.69.47-5.19-1.08-10.4.63-15.08,2.92h0Z"/>
    <path class="cls-4" d="m272.15,181.18c7.3-18.73,10.45-39.25,7.19-59.18-2.9-19.27-5.61-28.08-23.65-37.62-8.4-4.42-14.34-11.58-15.2-21.32-.72-8.45-1.29-20.73,8.3-24.38,4.5-1.48,9.41-.54,13.53,1.54,8.65,4.09,11.92,14.41,10.99,23.35-.46,4.37-1.65,9.31-3.74,12.91,3.35-8.13,4.62-17.72,1.06-25.94-4.91-12.3-25.96-17.27-28.63-.83-1.29,8.46-1.01,18.22,4.02,25.51,2.52,3.62,6.21,6.25,10.03,8.56,7.71,4.45,15.51,9.98,19.05,18.5,2.65,6.25,3.8,12.95,5.11,19.56,3.71,19.85.38,41.41-8.05,59.33h0Z"/>
    <path class="cls-4" d="m256.85,61.17c.27,2.37.12,4.76-.19,7.12-.1.49-.14,1.07-.51,1.47-.08.1-.27.15-.4.11-1.6-.87-2.13-3.12-2.54-4.75-.65-3.2.24-6.64,2.36-9.16,3.29-3.58,5.65,2.5,6.18,5.14,1.07,4.75.88,9.71-.65,14.36-3.41,8.03-12.49-4.23-13.8-8.35-2.53-5.88-2.34-13.77,2.54-18.45,5.27-4.63,14.53-.71,16.25,5.68,1.69,6.2,2.99,12.34,3.84,18.7.5,3.14-.63,6.4-.4,9.46.4,3.08,2.06,5.88,3.78,8.5,1.76,2.66,2.97,5.65,3.73,8.72-.89-3.04-2.2-5.96-4-8.54-1.8-2.58-3.59-5.35-4.11-8.6-.29-1.64.13-3.27.25-4.8.5-4.74-.85-9.33-1.83-13.94-.97-3.79-1.49-7.75-3.15-11.27-2-3.02-5.98-5.06-9.6-4.74-4.81.46-7.06,5.46-7.55,9.83-.8,7,3.59,16.19,10.1,19.18,3.3,1,3.49-4.08,3.98-6.29.66-4.51.38-9.56-1.81-13.57-2.19-3.73-4.72,1.23-5.37,3.47-.84,2.89-.37,6.41,1.48,8.82,1.38,1.92,1.61-7.38,1.44-8.11h0Z"/>
    <path class="cls-4" d="m276.32,70.24c2.89,12.19,4.87,24.51,6.73,36.88.63,4.07,1.94,8.21,4.77,11.2,2.73,2.78,6.78,4.92,10.69,4.82,4.44-.19,5.27-5.3,4.29-8.85-.91-3.84-3.76-7.3-7.45-8.68-2.4-.9-3.24.68-3.13,2.88.07,2.02.65,4.05,1.42,5.98l-.11.05c-.92-1.87-1.74-3.84-1.94-5.99-.63-7.06,6.87-3.37,9.46-.29,2.9,3.26,4.32,8.03,2.89,12.28-3.16,7.22-12.94,2.75-16.62-1.74-2.79-3.25-3.9-7.48-4.69-11.58-.75-4.1-1.68-8.16-2.49-12.25-1.42-8.12-3.18-16.7-3.81-24.71h0Z"/>
    <path class="cls-4" d="m299.15,129.65c-8.55,7.05-9.76,18.69-8.82,29.05.3,3.55,1.51,7.05,1.07,10.65-.26,3.54-1.04,7.3-3.4,10.26-2.39,3.27-10.83,7.83-11.2.9-.45-5.35,5.49-18.51,9.1-7.44,0,0-.12.05-.12.05-.71-1.34-1.59-3.44-3.15-3.75-.68-.02-1.33.65-1.81,1.31-1.43,2.12-2.26,4.71-2.63,7.23-.27,2-.47,5.59,2.53,4.83,8.08-1.79,10.9-11.31,9.99-18.7-1.32-8.7-3.01-18.27,1.24-26.47,1.66-3.24,4.16-6,7.12-8.01l.08.1h0Z"/>
    <path class="cls-4" d="m184.84,111.54c9.61.56,18.12-5.04,21.57-13.99.56-1.21,1-2.47,1.42-3.75-.14,1.34-.47,2.66-.84,3.96-2.64,9.69-12.24,16.04-22.15,13.77h0Z"/>
    <path class="cls-4" d="m203.27,118.54c5.73-4.96,10.28-10.66,13.86-17.33-1.89,7.32-7.14,13.88-13.86,17.33h0Z"/>
    <path class="cls-4" d="m217.14,101.21c-1.63,5.15-7.4,8.82-12.76,8.11,5.22-1.22,9.45-3.89,12.76-8.11h0Z"/>
    <path class="cls-4" d="m213.96,122.97c5.11-3.86,8.77-9.27,10.8-15.29,3.19,10,1.98,21.6-4.53,30.03,4.91-8.38,6.25-18.57,3.86-27.96,0,0,1.13.07,1.13.07-2.21,5.43-6.19,10.21-11.25,13.15h0Z"/>
    <path class="cls-4" d="m222.81,150.14c-.26,0-.51-.17-.6-.43-.11-.33.07-.69.4-.8,2.24-.74,9.85-3.77,13.63-11.83,2.31-4.92,2.27-9.61,1.83-12.67-.05-.34.19-.66.53-.71.34-.05.66.19.71.54.46,3.24.5,8.19-1.94,13.39-4,8.52-12.02,11.72-14.38,12.5-.07.02-.13.03-.2.03Z"/>
    <path class="cls-4" d="m243.08,70.99c-.43,8.14-5.15,16.2-12.79,19.5,0,0-.07-1.16-.07-1.16,2.13.65,4.33,1.07,6.56,1.15,6.78.35,13.47-2.26,18.58-6.69-6.61,7.42-17.84,9.87-27.08,6.22,8.13-2.93,13.42-10.62,14.8-19.02h0Z"/>
    <path class="cls-4" d="m238.42,101.4c9.4-1.2,17.74-6.16,23.46-13.63-4.19,8.55-13.9,14.3-23.46,13.63h0Z"/>
    <path class="cls-4" d="m243.77,108.87c10.69,1.14,21.51-3.79,27.31-12.92-.52,1.25-1.21,2.43-1.95,3.57-5.35,8.08-16.05,11.95-25.35,9.35h0Z"/>
    <path class="cls-4" d="m243.77,108.87c8.27,7.2,20.61,7.65,29.2.74,1.24-.9,2.37-1.93,3.46-3.04-7.58,11.07-23.73,12.59-32.66,2.3h0Z"/>
    <path class="cls-4" d="m238.58,41.78c-2.29,4.22-3.01,8.54-2.21,13.27-2.63-4.08-1.58-10.26,2.21-13.27h0Z"/>
    <path class="cls-4" d="m170.13,79.41c4.86,1.71,8.96,5.03,12.15,9,5.94,6.06,10.41,14.05,10.08,22.75,0,.07-.11.08-.13.01-1.83-8.09-4.66-16.23-10.25-22.49-3.54-3.47-8.29-6.28-11.85-9.28h0Z"/>
    <path class="cls-4" d="m192.29,111.18c1.94-8.52,1.69-17.07-.82-25.44,4.21,7.68,4.48,17.52.82,25.44h0Z"/>
    <path class="cls-4" d="m201.97,89.72c.94,8.1-2.96,16.81-9.67,21.46,5.47-6.05,8.75-13.36,9.67-21.46h0Z"/>
    <path class="cls-4" d="m276.76,63.52c4.44,6.75,8.7,14.08,9.77,22.23.35,5.79.29,11.59.39,17.36.03,2.24.84,4.4,2.05,6.32,1.19,1.94,2.84,3.58,4.62,5.06-1.95-1.25-3.72-2.82-5.13-4.71-1.36-1.91-2.35-4.2-2.5-6.6-.28-4.66-.37-9.26-.52-13.89.16-9.26-4.57-17.69-8.67-25.76h0Z"/>
    <path class="cls-4" d="m289.89,127.8c-3.18,9.26-4.65,19.06-3.94,28.83.06,1.4.22,2.8.35,4.2-.41-1.35-.69-2.74-.96-4.13-1.66-9.77-.16-20.16,4.56-28.91h0Z"/>
    <path class="cls-4" d="m220.53,168.07c4.59,8.69,13.14,14.35,18.21,22.73,1.85,2.92,2.99,6.34,3.43,9.78.06.42.17,1.13.14,1.54-.08,8.58-.32,6.76-1.02-.34-1.34-7.28-5.08-14.38-10.21-19.89-2.78-2.75-6.22-4.9-8.26-8.37-1.07-1.67-1.79-3.53-2.4-5.4,0,0,.12-.05.12-.05h0Z"/>
    <path class="cls-4" d="m221.39,162c6.06,7.14,17.94,21.44,28.32,18.64,3.07-1.33,4.82-4.53,6.77-7.09,4.3-6.35,8.75-12.6,12.4-19.28,1.81-3.33,3.52-6.76,4.46-10.4,1.1-3.92.75-7.58.76-11.34,1.88,7.64-.2,15.68-4.04,22.38-3.72,6.8-8.34,12.97-13.03,19.05-2.45,2.82-4.63,6.77-8.63,7.42-10.78,1.61-22.23-11.11-27.02-19.38h0Z"/>
    <path class="cls-4" d="m161.65,254.21c14.96-3.79,28.2-14.33,32.21-29.65-.28,1.92-.77,3.81-1.38,5.66-4.41,13.21-17.33,22.19-30.84,23.99h0Z"/>
    <path class="cls-4" d="m116.4,154.28c.02-.65.13-1.65.56-2.76,0,0,.94-2.43,3.24-4.07,4.24-3.01,14.64,1.41,21.58,7.38,3.72,3.2,6.06,6.51,7.34,8.57-2.82-3.18-9.73-10.45-18.18-13.82-5.67-2.26-8.5-1.36-9.65-.84-2.06.94-3.37,2.6-3.37,2.6-.88,1.12-1.31,2.23-1.52,2.94Z"/>
    <path class="cls-4" d="m127.57,160.58c1.18-.35,2.75.72,3,.88.1.06.57.38,1,.88,1.4,1.62,1.52,4.2,1,6.17-.17.66-.99,3.76-3,4.08-.93.15-1.72-.37-2-.55-2.82-1.85-2.09-6.86-2-7.45.19-1.2.56-3.58,2-4Z"/>
    <path class="cls-4" d="m136.03,113.09c1.69,11.88,8.38,22.96,19.23,28.47,3.52,1.84,7.34,3.14,11.37,3.97-17.43.97-32.37-15.19-30.6-32.44h0Z"/>
    <path class="cls-4" d="m176.21,151.43c1.64,15.14,13.07,28.65,28.95,28.79,2.14.09,4.29-.09,6.43-.41-2.08.6-4.25.9-6.43,1.02-16.4.91-28.95-13.6-28.96-29.41h0Z"/>
    <path class="cls-4" d="m196.86,186.08c8.26,4.05,16.11,10.08,19.84,18.77,1.79,4.25,2.35,8.88,4.93,12.71,2.41,3.79,6.78,6.04,11.35,6.49-2.3,0-4.63-.46-6.77-1.43-13.98-7.62-2.52-20.11-29.36-36.53h0Z"/>
    <path class="cls-4" d="m215.01,33.01c4.82,3.12,6.79,9.41,4.78,14.75-.46,1.76-1.14,3.45-2.09,5.07-1.88,3.27-5.4,5.39-8.92,6.45-3.56.93-8.03.85-10.91-1.17,3.55-.11,7.01-.25,10.12-1.4,4.52-1.5,10-3.95,11.01-9.12.41-3.39-.91-6.57-1.96-9.72-.61-1.56-1.39-3.07-2.21-4.69-.06-.11.08-.25.19-.17h0Z"/>
    <path class="cls-4" d="m224.87,36.42c8.1,3.72,8.21,15.64.12,19.42,6.47-5.22,6.28-14.35-.12-19.42h0Z"/>
    <path class="cls-4" d="m150.09,85.11c-3.35,5.74-11.23,8.25-16.54,3.47-4.84-4.25-6.39-11.94-2.4-17.22,3.46-5.73,10.04-7.4,15.85-9.51,5.79-2.1,11.08-5.54,15.98-9.25-4.15,4.57-9.68,8.15-15.49,10.5-5.8,2.15-11.98,3.37-15.79,8.67-4.36,4.93-2.46,12.31,2.51,16,5.87,4.49,11.44,1.87,15.87-2.65h0Z"/>
    <path class="cls-3" d="m126.36,163.79c.63-.23,1.07.74,2.21.65,1.08-.09,1.57-1.03,1.94-.83.09.05.38.28-.18,2.86-.35,1.57-.75,3.42-1.29,3.41-.18,0-.4-.42-.92-1.2-.52-.77-.6-1.13-.74-1.11-.38.06-.05,2.77-.46,2.86-.28.06-.84-1.12-1.11-2.3-.37-1.65-.35-3.99.55-4.33Z"/>
    <path class="cls-4" d="m121.96,86.47c-4.81,2.45-13.67,6.48-12.98,12.81,1.36,4.98,2.94,10.01,4.87,14.79,1.1,2.76,4.27,3.61,6.99,3.69,2.85.03,5.82-.59,8.52-1.46,5.5-1.83,10.17-5.74,13.8-10.42l.1.07c-3.32,5.77-8.94,10.72-15.67,12.26-3.69.82-7.79,1.38-11.31-.41-1.41-.69-2.66-1.97-3.08-3.47-.95-2.86-1.74-5.71-2.74-8.51-.73-2.13-1.61-4.16-2.34-6.3-.29-.73-.28-1.65-.13-2.42.6-3.17,3.19-5.37,5.71-7.07,2.56-1.63,5.34-2.8,8.2-3.67l.05.12h0Z"/>
    <path class="cls-4" d="m122.87,88.79c-7.68,3.15-12.4,10.59-7.35,18.25,2.88,4.42,5.36,9.74,11.5,6.67,7.03-3.46,12.38-9.4,16.27-16.21,0,0,.11.05.11.05-2.85,7.4-8.48,14.03-15.91,17.24-4.93,2.12-7.73.05-10.18-4.22-1.99-3.29-4.99-6.77-4.94-10.83.08-5.53,5.55-10.28,10.5-10.96h0Z"/>
    <path class="cls-4" d="m124.27,91.02c-1.34,1.28-2.6,2.59-3.71,4.01-2.33,2.83-4.56,5.74-2.76,9.48,1.31,3.06,4.97,5.92,8.31,4.83,1.52-.56,2.87-1.91,4.25-3.05,2.69-2.36,4.82-5.32,6.53-8.59l.12.05c-1.19,4.49-4.08,8.6-7.92,11.33-1.51,1.2-3.7,2.05-5.63,1.39-4.17-1.33-7.93-6.98-6.88-11.4.65-1.89,2-3.2,3.25-4.67,1.29-1.36,2.75-2.57,4.38-3.48l.08.1h0Z"/>
    <path class="cls-4" d="m125.88,100.31c6.16-2.75,1.8,10.31-4.2,2.83-3.41-4.58,3.2-8.76,7.34-8.14,0,0,.01.13.01.13-3.36,1.09-8.63,3.41-6.77,7.65,2,3.75,4.99,2.12,5.6-1.41.12-1.1-1.16-.91-1.95-.94,0,0-.03-.12-.03-.12h0Z"/>
    <path class="cls-4" d="m154.1,92.45c-9.53,12.86-9.54,29.83.54,42.38,3.09,4.07,6.85,7.64,11.02,10.62-5.6-3.2-10.46-7.8-14.13-13.14-8.49-12.42-7.39-28.63,2.57-39.86h0Z"/>
    <path class="cls-4" d="m163.74,96.32c-6.36,15.75-.47,34.03,14.72,42.08,2.04,1.16,4.2,2.1,6.45,2.84-20.21-4.33-30.63-26.57-21.17-44.91h0Z"/>
    <path class="cls-4" d="m159.14,93.94c-6.5,17.4-4.3,36.98,7.49,51.59-1.62-1.64-3.06-3.44-4.4-5.31-9.5-13.34-10.27-31.72-3.09-46.27h0Z"/>
    <path class="cls-4" d="m167.91,130.42c-2.72,11.47-.15,24.34,10.42,30.9-1.36-.59-2.64-1.37-3.87-2.24-8.84-6.38-10.5-19.03-6.56-28.67h0Z"/>
    <path class="cls-4" d="m181.22,140.01c1.36,6.98,6.27,27.3,23.51,36.84,2,1.11,4.28,2.13,6.86,2.96-2.7-.57-5.06-1.42-7.09-2.38-18.26-8.65-22.47-32.23-23.28-37.41Z"/>
    <path class="cls-4" d="m199.19,153.78c.5,10.06,4.9,19.32,12.41,26.03-8.71-5.25-13.79-15.97-12.41-26.03h0Z"/>
    <path class="cls-4" d="m156.33,65.23c-4.58,2.36-9.49,4.11-14.14,6.25-11.44,6.6,1.51,18.29,8.67,8.75.67-.97,1.26-2.1,1.22-3.15-.08-2.15-3.19-3.52-5.18-3.34-2.66.11-3.75,3.07-3.43,5.43,0,0-.12.02-.12.02-.34-1.26-.37-2.67.18-3.95,1.5-3.65,6.83-3,9.05-.36,2.47,3.16-.94,7.24-3.75,8.84-3.6,2.29-8.6.8-10.72-2.79-2.23-3.63.23-8.35,3.56-10.36,2.32-1.35,4.78-2.05,7.24-3,2.45-.87,4.9-1.72,7.39-2.45l.04.12h0Z"/>
    <path class="cls-4" d="m158.89,78.81c2.06,3.74,1.28,8.75-2.15,11.41-3.11,2.68-6.07,5.59-10.06,7.01-2.63.92-5.45,1.14-8.12.65,1.35-.03,2.69-.12,3.99-.4,4-.66,7.26-2.94,10.3-5.57,4.82-3.69,7.92-6.51,6.03-13.1h0Z"/>
    <path class="cls-4" d="m163.31,78.72c4,2.51,7.54,6.81,7.29,11.84-.04,3.62-2.46,8.64-6.8,6.79-1.13-.51-2.09-1.26-2.84-2.18.94.71,1.95,1.33,3.04,1.59,3.77,1.13,5.29-3.28,5.34-6.28.24-4.65-2.85-8.62-6.03-11.77h0Z"/>
    <path class="cls-4" d="m156.13,82.25c-2.92,7.7-11.13,12.91-19.39,11.5-9.08-1.32-12.61-11.16-10.58-19.26,1.56-5.98,6.06-11.06,11.68-13.55,1.91-.8,3.92-1.15,5.86-1.61,7.79-1.73,14.99-5.68,21.07-10.9-5.82,5.56-13.03,9.73-20.88,11.65-1.95.51-3.91.91-5.71,1.66-5.3,2.37-9.63,7.36-11.04,12.99-4.58,21.25,20.9,24.9,29,7.52h0Z"/>
    <path class="cls-4" d="m165.09,52.83c-2.25,4.58-6.02,8.46-10.71,10.58-4.7,2.21-10.13,2.07-14.19,4.95-2.91,2.08-5.77,4.98-6.44,8.61-1.02,6.1,6.25,12.37,12.06,9.5-4.72,2.82-10.78-.93-12.51-5.7-.98-2.5-.4-5.4.98-7.63,2.67-4.53,7.46-7.52,12.55-8.4,2.48-.56,4.94-1.07,7.23-2.04,4.61-1.91,8.43-5.54,11.02-9.88h0Z"/>
    <path class="cls-4" d="m164.07,58.74c-.23,2.72-2.85,5.11-5.58,5.07,2.47-1.09,4.26-2.72,5.58-5.07h0Z"/>
    <path class="cls-4" d="m169.82,61.45c-3.06,2.41-6.2,4.72-9.57,6.68-3.3,2.05-7.31,3.4-11.23,2.62,8,.29,14.11-5.77,20.8-9.3h0Z"/>
    <path class="cls-4" d="m156.8,76.84c3.06,5.8-.37,13.22-6.26,15.58.64-.44,1.25-.89,1.81-1.4,4.16-3.37,6.06-9.02,4.45-14.18h0Z"/>
    <path class="cls-4" d="m158.99,73.37c5.91,5.6,4.96,16.14-3.04,19.2,6.88-4.33,7.47-12.83,3.04-19.2h0Z"/>
    <path class="cls-4" d="m159.08,95.04c3.92-4.07,5.03-9.89,3.05-15.11,3.47,4.63,1.96,12.2-3.05,15.11h0Z"/>
    <path class="cls-4" d="m163.74,96.32c4.26-5.25,2.99-12.28-.43-17.61,4.78,4.5,6,13.24.43,17.61h0Z"/>
    <path class="cls-4" d="m158.99,73.37c8.12,2.79,17.53,11.84,13.07,21.01-.64,1.16-1.45,2.21-2.41,3.09,7.68-9.27-2.22-19.83-10.66-24.1h0Z"/>
    <path class="cls-4" d="m171.4,79.91c6.21,4.14,7.09,13.39.62,17.72,5.12-5.33,4.28-12.57-.62-17.72h0Z"/>
    <path class="cls-4" d="m141.84,73.88c-3.25,4.29.09,9.54,5.12,6.52,1.35-.9.89-2.64.13-3.82,1.14,1.08,1.68,3.16.24,4.26-1.83,1.56-5.16,1.65-6.61-.48-1.34-2.05-.64-4.99,1.13-6.49h0Z"/>
    <path class="cls-4" d="m176.5,83.6c6.26,4,4.76,13.75-3.13,14.2,1.49-.48,2.85-1.23,3.93-2.24,3.49-3.27,2.3-8.81-.8-11.96h0Z"/>
    <path class="cls-4" d="m180.21,87.09c4.09,1.66,4.76,7.94.71,10.08-1.2.69-2.63.9-3.92.63,5.92-.52,7.61-6.98,3.2-10.71h0Z"/>
    <path class="cls-4" d="m181.58,99.58c2.44-1.91,3.54-4.35,3.47-7.44,1.67,2.75-.23,6.96-3.47,7.44h0Z"/>
    <path class="cls-4" d="m137.07,113.35c3.97,12.55,11.45,25.11,24.16,30.2,1.74.79,3.56,1.41,5.39,1.97-7.61-1.4-14.79-5.39-19.78-11.36-4.82-6.06-8.21-13.26-9.77-20.81h0Z"/>
    <path class="cls-4" d="m138.45,112.11c3.75,12.05,11.57,22.68,21.96,29.84,1.46,1.05,3,2.01,4.55,2.94-1.66-.74-3.25-1.61-4.82-2.53-10.92-6.59-19.14-17.71-21.69-30.25h0Z"/>
    <path class="cls-4" d="m140.1,110.38c2.61,8.48,6.82,16.33,12.37,23.25-.84-.73-1.62-1.54-2.39-2.35-5.26-5.79-8.89-13.14-9.99-20.9h0Z"/>
    <path class="cls-4" d="m142.08,107.83c1.56,5.52,3.3,10.76,5.33,16.12-3.26-4.69-5.15-10.41-5.33-16.12h0Z"/>
    <path class="cls-4" d="m144.79,112.18c-1.25-6.33,1.28-13.43,6.24-17.55-3.89,5.14-6.02,11.1-6.24,17.55h0Z"/>
    <path class="cls-4" d="m145.89,97.48c-1.54,6.4-6.17,12.16-12.11,15.01,5.18-4.09,9.22-9.08,12.11-15.01h0Z"/>
    <path class="cls-4" d="m114.24,92.51c-2.05,1.51-3.26,3.7-2.85,6.23.07,2.51.5,5.06,1.49,7.38,1.61,3.35,2.31,7.43,5.76,9.09,1.08.57,2.28.95,3.52,1.21v.1c-6.85.21-8.32-4.56-9.81-10.23,0,0-.9-3.72-.9-3.72-.45-1.87-1.15-3.75-.97-5.73.19-2.03,1.92-3.72,3.7-4.42,0,0,.05.09.05.09h0Z"/>
    <path class="cls-4" d="m122.67,90.46c-4.84,3.14-10.13,9.87-6.26,15.55,1.17,1.74,2.51,3.46,3.96,4.96,1.46,1.6,3.57,1.73,5.44.79,5.67-2.78,10.04-7.93,13.82-12.7-1.94,3.81-4.64,7.29-7.95,10.08-2.53,1.9-5.44,4.38-8.86,3.98-1.17-.18-2.16-.95-2.85-1.77-1.37-1.68-2.58-3.4-3.84-5.16-2.13-2.68-2.41-6.39-.57-9.3,1.46-2.79,4.24-5.55,7.11-6.42h0Z"/>
    <path class="cls-4" d="m125.56,92.81c-2,2-3.87,4.1-5.44,6.42-.48.75-.93,1.45-.94,2.36-.2,3.92,3.79,6.81,7.47,5.24,2.24-1.22,4.06-3.98,5.69-5.91.11-.17.18-.35.18-.42-.02-.07.04.02-.02-.03-.22-.09-.79-.12-1.27-.23-1-.21-2-.64-2.74-1.41-.39-.41-.49-.57-.89-.6-1.19-.2-3.99,1.63-3.06,2.96.28.32.72.53,1.15.7l-.03.1c-.47-.09-.95-.23-1.35-.56-.45-.33-.5-1.04-.28-1.52.74-1.85,3.54-3.6,5.14-1.76.62.55,1.43.91,2.28,1.06.45.1.84.06,1.51.31.84.34.73,1.44.27,1.99-1.91,2.13-3.69,4.75-6.39,5.86-3.88,1.26-8.31-1.58-8.48-5.77-.03-2.05,1.63-3.63,2.84-5.1,1.3-1.41,2.73-2.69,4.31-3.75l.06.08h0Z"/>
    <path class="cls-4" d="m155.23,93.52c-6.42,12.9-7.38,29.44,1.34,41.5,2.75,4.01,6.23,7.5,10.06,10.51-4.09-2.69-7.75-6.09-10.68-10.07-9.22-12-8.28-29.36-.72-41.94h0Z"/>
    <path class="cls-4" d="m157.55,93.27c-6.93,15.41-7.09,33.66,4.14,47.07,1.49,1.86,3.15,3.58,4.93,5.19-16.66-12.55-18.71-34.65-9.08-52.26h0Z"/>
    <path class="cls-4" d="m160.5,95.84c-4.24,13.99-3.23,29.48,3.15,42.67.87,1.9,1.89,3.73,2.95,5.54-10.03-13.62-12.42-32.52-6.11-48.21h0Z"/>
    <path class="cls-4" d="m162.38,96.1c-3.12,12.96-2.85,26.78,1.84,39.32.63,1.8,1.38,3.56,2.16,5.31-7.81-13.32-9-30.1-4-44.63h0Z"/>
    <path class="cls-4" d="m163.4,122.62c.87,4.81,1.78,9.39,2.79,14.17-2.31-4.29-3.3-9.33-2.79-14.17h0Z"/>
    <path class="cls-4" d="m163.38,99.57c-1.41,13.65,4.06,27.64,14.61,36.46,1.46,1.29,3.04,2.46,4.67,3.56-14.18-7.34-22.47-24.33-19.28-40.02h0Z"/>
    <path class="cls-4" d="m165.58,107.37c2.87,9.44,7.33,18.06,13.3,25.91-8.06-5.92-13.2-15.91-13.3-25.91h0Z"/>
    <path class="cls-4" d="m164.8,96.92c3.71,13.92,12.29,14.39,24.62,16.19,3.58.49,7.18.75,10.79.9-7.26.51-14.53-.28-21.66-1.73-7.7-1.4-12.83-7.77-13.75-15.37h0Z"/>
    <path class="cls-4" d="m166.55,97.61c3.06,7.04,9.93,12.1,17.63,12.57,1.09.11,2.19.1,3.3.05-1.08.27-2.19.38-3.31.44-7.96.33-15.7-5.3-17.61-13.06h0Z"/>
    <path class="cls-4" d="m168.61,98.38c2.9,3.44,6.4,6.57,10.83,7.7,3.27.77,6.8,1.85,9.76,3.41,1.02.55,2.03,1.1,2.98,1.74-1.06-.44-2.11-.9-3.18-1.29-3.2-1.3-6.45-2.09-9.83-2.9-4.58-1.2-8.22-4.66-10.56-8.67h0Z"/>
    <path class="cls-4" d="m170.74,97.62c1.64,1.37,3.37,2.61,5.26,3.51,1.86.93,3.94,1.35,5.97,2.22,3.96,1.74,7.5,4.42,10.19,7.8-3.18-2.77-6.71-5.21-10.58-6.88-4.07-1.42-8.14-3.08-10.83-6.65h0Z"/>
    <path class="cls-4" d="m160.65,72.66c13.66,5.15,31.71,15.59,32.2,31.95.07,2.29-.11,4.57-.59,6.79.86-6.71-.48-13.68-4.5-19.15-6.93-8.96-17.01-14.79-27.11-19.59h0Z"/>
    <path class="cls-4" d="m171.68,74.68c14.12,3.03,23.43,16.6,21.74,30.85-.23,1.95-.57,3.88-1.18,5.74.77-3.8.93-7.71.46-11.55-1.21-11.74-9.87-21.53-21.02-25.04h0Z"/>
    <path class="cls-4" d="m196.76,86.81c3.27,7.87,1.36,17.6-4.59,23.69.57-.89,1.13-1.76,1.61-2.69,3.57-6.34,4.54-13.93,2.97-21.01h0Z"/>
    <path class="cls-4" d="m196.91,112.03c5.2-1.98,9.4-5.87,11.36-11.03.65-1.69,1.11-3.48,1.33-5.33.77,7.63-5.09,15.24-12.69,16.36h0Z"/>
    <path class="cls-4" d="m213.42,98.12c.35,3.24-1.82,6.7-4.89,7.8,2.26-2.34,3.77-4.74,4.89-7.8h0Z"/>
    <path class="cls-4" d="m174.81,119.08c11.77,5.9,27.58,5.69,37.45-3.74,3.26-3.05,5.69-6.93,7.28-11.11-1.2,4.34-3.53,8.41-6.75,11.66-9.76,9.94-26.49,10.27-37.98,3.19h0Z"/>
    <path class="cls-4" d="m176.74,119.83c9.64,2.5,19.96,2.82,27.84-4.15,1.39-1.17,2.78-2.73,3.95-4.41-.83,1.63-1.98,3.25-3.21,4.51-7.69,7.99-18.86,7.9-28.58,4.05h0Z"/>
    <path class="cls-4" d="m171.94,116.52c4.81,11.02,15.09,15.65,26.49,11.78,3.41-1.14,6.57-3.02,9.31-5.42-2.47,2.72-5.61,4.82-9.05,6.15-11.54,4.47-22.93-.66-26.75-12.51h0Z"/>
    <path class="cls-4" d="m172.3,117.41c2.66,9.41,12.02,17.64,22.16,15.12,3.23-.75,6.19-2.46,8.72-4.61-2.27,2.47-5.22,4.41-8.52,5.35-10.41,3.15-20.75-5.77-22.36-15.87h0Z"/>
    <path class="cls-4" d="m169.07,132.52c-.93,8.36,1.21,16.89,6.03,23.78.66,1.01,1.4,1.96,2.14,2.91-7.28-6.52-10.73-17.19-8.17-26.69h0Z"/>
    <path class="cls-4" d="m170.93,133.51c-.26,8.07,1.66,15.85,5.69,22.85-5.22-6.15-7.4-14.97-5.69-22.85h0Z"/>
    <path class="cls-4" d="m172.68,135.7c.83,5.88,1.99,11.49,3.57,17.21-2.87-5.18-4.13-11.32-3.57-17.21h0Z"/>
    <path class="cls-4" d="m176.05,137.9c-.03,11.33,3.13,23.33,11.22,31.58,6.19,6.49,15.05,9.92,23.93,10.43-7.69.13-15.69-2.2-21.69-7.16-10.39-8.03-14.49-22.13-13.46-34.84h0Z"/>
    <path class="cls-4" d="m177.86,138.83c-.11,14.5,7.72,28.12,20.27,35.37,4.07,2.47,8.49,4.38,13.08,5.7-4.71-.93-9.26-2.67-13.47-5.03-12.91-6.98-21.16-21.31-19.88-36.03h0Z"/>
    <path class="cls-4" d="m179.4,139.52c1.34,9.07,4.7,17.78,9.99,25.27.73,1.09,1.53,2.13,2.33,3.18-.96-.9-1.84-1.89-2.71-2.89-5.95-7.11-9.52-16.27-9.6-25.57h0Z"/>
    <path class="cls-4" d="m183.34,140.68c3.45,16.32,13.94,30.63,28.26,39.13-1.88-.9-3.68-1.96-5.45-3.08-12.29-8.01-20.99-21.44-22.81-36.04h0Z"/>
    <path class="cls-4" d="m186.67,145.66c4.15,9.18,8.76,18.29,15.44,25.91-7.72-6.7-12.57-16.23-15.44-25.91h0Z"/>
    <path class="cls-4" d="m190.28,148.77c3.56,5.76,6.7,11.69,9.54,17.83-4.03-5.44-7.21-11.47-9.54-17.83h0Z"/>
    <path class="cls-4" d="m195.39,152.62c1.52,2.68,2.73,5.23,3.84,8.11-2.25-2.08-3.65-5.05-3.84-8.11h0Z"/>
    <path class="cls-4" d="m178.88,133.28c7.68,7.89,20.16,7.93,27.25-.72,2.19-2.64,3.47-6.01,3.63-9.52.26,3.55-.88,7.15-3.02,9.99-6.95,9.33-20.72,9.32-27.85.25h0Z"/>
    <path class="cls-4" d="m183,137.86c7.74,5.33,18.04,4.02,23.9-3.42.84-.97,1.58-2.03,2.24-3.15-4.21,10.72-17.43,14.41-26.14,6.57h0Z"/>
    <path class="cls-4" d="m220.91,105c-.85,6.93-5.77,13.39-12.23,16.05,5.75-3.96,9.94-9.46,12.23-16.05h0Z"/>
    <path class="cls-4" d="m223.01,107.8c-1.1,6.68-6.33,12.67-12.87,14.55,5.94-3.24,10.35-8.28,12.87-14.55h0Z"/>
    <path class="cls-4" d="m184.15,141.3c5.62,6.82,16.31,8.38,21.83.64.76-.96,1.37-2.04,1.91-3.16-3.34,11.63-17.65,12.28-23.73,2.52h0Z"/>
    <path class="cls-4" d="m193.93,150.98c8.8,3.21,18.95-2.37,17.4-12.45-.14-1.25-.45-2.49-.88-3.7,1.23,2.25,1.84,4.88,1.65,7.52-.57,8.67-11.09,12.58-18.17,8.63h0Z"/>
    <path class="cls-4" d="m201.9,154.41c.61,7.67,3.05,15.27,7.95,21.28.67.88,1.42,1.7,2.16,2.53-.9-.66-1.72-1.42-2.53-2.2-5.57-5.6-8.27-13.79-7.58-21.61h0Z"/>
    <path class="cls-4" d="m203.7,154.62c1.66,7.71,4.49,14.88,8.54,21.65-5.19-5.91-8.28-13.79-8.54-21.65h0Z"/>
    <path class="cls-4" d="m206.13,156.52c1.85,6.09,4.07,11.83,6.79,17.57-3.91-5-6.32-11.25-6.79-17.57h0Z"/>
    <path class="cls-4" d="m211.32,156.78c2.87,3.6,3.96,8.79,2.52,13.18,0-4.63-.9-8.86-2.52-13.18h0Z"/>
    <path class="cls-4" d="m209.14,156.67c1.5,2.83,2.35,5.86,2.52,9.06-1.5-2.83-2.34-5.86-2.52-9.06h0Z"/>
    <path class="cls-4" d="m211.55,128.35c7.12-2.67,12.23-9.3,12.93-16.89.85,7.77-5.23,15.64-12.93,16.89h0Z"/>
    <path class="cls-4" d="m211.44,132.93c7.49-2.76,12.95-10.01,13.13-18.04.08-1.14.02-2.28-.08-3.43,2.71,9.24-3.57,19.65-13.04,21.47h0Z"/>
    <path class="cls-4" d="m215.91,134.42c4.93,7.24,1.09,16.64-6.81,19.69-1.06.4-2.14.72-3.24.91,2.09-.77,4.07-1.78,5.77-3.14,5.43-4.09,7.18-11.33,4.28-17.46h0Z"/>
    <path class="cls-4" d="m212.47,153.8c5.39-2.86,8.81-8.46,8.14-14.68,2.27,6.07-2.01,13.21-8.14,14.68h0Z"/>
    <path class="cls-4" d="m225.21,109.82c5.52,7.59,6.21,18.89-.05,26.27-.86,1.02-1.79,1.98-2.83,2.81.88-.99,1.72-2,2.44-3.1,5.45-7.64,4.68-17.96.44-25.97h0Z"/>
    <path class="cls-4" d="m230.24,114.59c3.82,7.64,2.38,17.59-3.44,23.85.55-.9,1.09-1.79,1.54-2.74,3.38-6.46,3.96-14.15,1.9-21.11h0Z"/>
    <path class="cls-4" d="m235.4,120.32c1.61,7.58-1.19,15.97-7.25,20.86-.86.68-1.76,1.32-2.71,1.85.83-.71,1.65-1.42,2.38-2.21,5.39-5.35,7.87-12.99,7.58-20.5h0Z"/>
    <path class="cls-4" d="m215.79,156.8c17.1.39,34-7.62,40.01-24.43,1.91-5.23,2.77-10.89,2.55-16.59,2.67,14.67-4.08,29.76-17.34,36.9-7.65,4-16.75,5.46-25.21,4.11h0Z"/>
    <path class="cls-4" d="m243.41,131.51c-.66,11-10.35,20-21.15,20.91,1.29-.33,2.56-.71,3.78-1.19,8.73-3.07,15.5-10.61,17.37-19.72h0Z"/>
    <path class="cls-4" d="m221.36,161.93c8.58,3.66,19.94,4.29,26.67-3.19,2.22-2.33,4.06-5,5.96-7.6,3.67-5.18,7.74-10.39,9.08-16.7,1.38-6.2.4-12.78-2.03-18.74,3.19,5.32,4.4,12.59,3.04,18.95-1.31,6.51-5.63,11.78-9.66,16.81-2.03,2.51-3.99,5.09-6.15,7.51-3.2,3.77-7.89,6.19-12.86,6.44-4.79.2-10.17-.99-14.07-3.49h0Z"/>
    <path class="cls-4" d="m221.37,161.94c9.41,5.72,19.91,9.08,27.73-.92,6.87-7.78,13.61-16.11,16.88-26.08,2.33-6.55,1.48-14.05-3.05-19.49,3.81,3.37,5.67,9.38,5.14,14.58-.52,5.33-2.98,10.24-5.53,14.83-3.56,6.13-8.76,10.94-13.19,16.39-2.32,2.61-4.75,5.55-8.27,6.49-6.9,1.86-14.61-1.55-19.72-5.81h0Z"/>
    <path class="cls-4" d="m222.13,162.25c6.27,4.85,14.56,9.9,22.62,6.97,2.5-1.15,4.21-3.52,5.94-5.61,6.62-8.89,13.17-18.19,18.2-28.01,3.26-6.88.24-14.84-2.81-21.06,4.02,6.06,7,14.46,3.75,21.48-4.67,9.82-12.48,19.03-18.87,27.8-2.04,2.49-3.95,5.66-7.28,6.54-7.65,2.38-16.54-2.88-21.56-8.11h0Z"/>
    <path class="cls-4" d="m222.13,162.25c5.69,4.62,18.81,15.85,25.86,9.28,1.28-1.5,2.37-3.24,3.55-4.87,2.36-3.28,4.76-6.53,7.29-9.69,2.48-3.2,5.43-6.03,7.51-9.41,2.01-3.4,3.9-7.02,5.04-10.82,1.09-3.81,1.35-7.85.77-11.79-.46-3.98-2.2-7.88-3.78-11.37,5.75,8.5,6.72,20.04,1.74,29.15-.94,1.81-1.87,3.6-2.98,5.33-2.21,3.45-5.25,6.18-7.88,9.26-2.64,3.04-5.15,6.21-7.42,9.54-1.03,1.45-2.32,3.63-3.41,5.03-7.06,7.58-21.35-4.13-26.29-9.64h0Z"/>
    <path class="cls-4" d="m222.14,162.26c4.82,6.19,11,11.17,18.11,14.45,5.35,2.64,8.47-.91,11.33-5.04,3.64-5.12,7.64-10.05,11.93-14.63,4.39-4.53,7.51-9.98,9.1-16.08-.61,6.09-4.04,12.25-8.33,16.77-4.25,4.65-8.32,9.37-12.27,14.28-3.2,4.12-6.36,7.58-11.98,5.22-7.32-2.78-14.16-8.29-17.89-14.97h0Z"/>
    <path class="cls-4" d="m230.74,172.92c4.98,6.3,15.49,17.99,24.28,13.18,2.77-1.89,4.42-5.01,6.24-7.76,7.37-11.27,11.23-24.59,13.5-37.57-.58,10.1-3.22,20.16-7.78,29.21-1.51,3.03-3.29,5.94-5.27,8.66-2.49,3.25-4.61,7.62-8.85,8.8-8.98,2.27-18.2-7.63-22.13-14.52h0Z"/>
    <path class="cls-4" d="m244.59,109.76c9.17,3.6,20.01,1.93,27.46-4.55,1.09-.89,2.09-1.87,3.05-2.92-.78,1.18-1.72,2.25-2.72,3.28-7.08,7.24-18.9,9.11-27.79,4.19h0Z"/>
    <path class="cls-4" d="m272.69,110.75c3.69,8.85,5.34,18.42,5.96,27.94.71,9.59-.96,19.19-4.55,28.09-2.11,5.58-3.73,11.46-6.96,16.57-1.16,1.51-3.38,3.65-1.98,5.55,2.96,1.94,5.78,4.45,7.79,7.37,1.01,1.48,2.51,2.86,2.79,4.74,1.11,5.41-3.97,11.87-9.5,10.62,5.97.59,10.79-6.73,8.1-11.97-2.08-2.77-4.24-5.75-6.97-7.9-1.33-1.19-3.87-1.94-3.71-4.13.06-1.98,1.54-3.49,2.69-4.88.67-.92,1.23-1.96,1.75-3.01,2.03-4.27,3.71-8.75,5.5-13.16,1.79-4.41,3.5-8.88,4.09-13.63,1.07-7.09.19-14.24-.58-21.31-.62-7.08-2.55-14.25-4.4-20.91h0Z"/>
    <path class="cls-4" d="m242.39,106.22c8.69-.58,17.19-4.07,23.26-10.38.9-.87,1.7-1.83,2.52-2.79-.63,1.09-1.37,2.12-2.15,3.11-5.6,6.95-14.75,10.77-23.63,10.06h0Z"/>
    <path class="cls-4" d="m234.48,95.9c8.79-.57,17.19-4.2,23.67-10.16-.67.88-1.44,1.69-2.22,2.49-5.62,5.44-13.65,8.42-21.45,7.67h0Z"/>
    <path class="cls-4" d="m245.04,75.42c-.79,7.06-6.59,13.3-13.6,14.52,6.51-2.66,11.36-7.87,13.6-14.52h0Z"/>
    <path class="cls-4" d="m231.93,89.79c7.16-.32,13.76-3.14,18.83-8.22-3.94,6.06-11.74,9.39-18.83,8.22h0Z"/>
    <path class="cls-4" d="m215.91,77.79c4.29-2.59,9.58-3.98,14.52-2.58,3.69,1.3,6.95,2.08,9.9-1.14.87-.85,1.57-1.88,2.23-2.94-.46,1.16-1.08,2.26-1.86,3.26-3.03,3.75-6.48,3.17-10.53,1.78-4.76-1.37-9.75-.21-14.26,1.62h0Z"/>
    <path class="cls-4" d="m217.43,78.56c3.41-1.5,7.31-1.99,10.98-1.22,1.24.25,2.43.71,3.56,1.06,3.51,1.31,6.78-1.61,8.69-4.37.74-.97,1.37-2.02,2.02-3.06-1.4,3.35-3.42,7.11-7.1,8.42-2.53.95-5.01-.59-7.38-1.12-3.55-.87-7.22-.62-10.77.3h0Z"/>
    <path class="cls-4" d="m218.83,79.94c3.78-.56,7.68-.39,11.42.44,1.25.26,2.49.7,3.64.88,5.17.44,7.2-6.4,8.79-10.29-.23,1.25-.56,2.48-.94,3.7-1.17,3.51-3.58,8.18-8,7.58-1.34-.24-2.5-.67-3.72-.95-3.66-.95-7.4-1.32-11.2-1.36h0Z"/>
    <path class="cls-4" d="m221.81,83c2.25-.65,4.7-.23,6.81.68,1.64.42,3.59.6,5.32.36,3.42-.87,5.38-4.8,6.86-7.81.74-1.7,1.36-3.46,1.87-5.27-.22,1.86-.63,3.72-1.28,5.5-2.43,6.42-5.77,10.46-13.1,7.86-1.83-.95-4.24-1.61-6.49-1.33h0Z"/>
    <path class="cls-4" d="m247.52,77.73c-.69,3.91-3.51,7.51-7.17,9.09,2.86-2.78,5.13-5.65,7.17-9.09h0Z"/>
    <path class="cls-4" d="m201.48,67.19c5.21,1.11,10.49.55,14.62-2.94,8.28-5.95,15.53-8.81,24.37-1.87,0,0-.06.08-.06.08-4.54-2.55-9.74-3.97-14.78-2.49-3.25,1.05-6.56,2.49-9.33,4.54-1.39,1.08-2.66,2.41-4.35,3.1-3.24,1.35-7.53,1.13-10.46-.42h0Z"/>
    <path class="cls-4" d="m206.45,70.34c3.11-.16,6.12-.86,8.77-2.3,2.57-1.59,5.12-3.6,7.91-4.96,5.51-2.94,13.23-2.97,17.86,1.59,0,0-.06.08-.06.08-6.58-4.19-15.36-3.2-21.67.97-1.28.87-2.23,2.12-3.6,3.03-2.67,1.61-6.4,2.39-9.2,1.58h0Z"/>
    <path class="cls-4" d="m208.52,72.64c4.39-.19,8.97-.73,12.24-3.83,1.02-1.09,2.05-2.25,3.39-2.98,5.2-2.86,12.48-1.63,17.52,1.02,0,0-.04.09-.04.09-5.42-1.49-14.39-3.19-19.08.51-1.65,1.53-2.99,3.43-5.11,4.42-2.72,1.27-6.29,1.61-8.92.77h0Z"/>
    <path class="cls-4" d="m220.63,71.62c1.55-2.61,4.42-4.6,7.59-4.56,3-.26,6.06-.43,9.02.29.97.24,1.99.6,2.71,1.4,2.07,2.43-.25,3.92-2.67,4.12-1.09.13-2.15-.16-3.1-.42-1.92-.55-3.82-.96-5.8-1.33-.49-.09-1.43-.32-1.13-1.09.43-.76,1.53-.84,2.26-1.03,2.89-.48,6.52-.47,8.96.93-3.28-.84-7.5-.58-10.26.48.07-.1-.04-.41-.11-.43-.08-.05.05.01.14.03l.34.07c2.9.31,5.76,1.82,8.63,2.01,1.96-.07,4.2-.86,2.46-3.1-3.04-2.77-7.7-1.06-11.4-1.03-.96.08-1.94.08-2.85.4-1.82.59-3.38,1.88-4.73,3.33l-.08-.06h0Z"/>
    <path class="cls-4" d="m187.37,42.35c1.31-.1,2.72.11,3.96-.09.02-.03-.14.11-.14.24,0,.13.03.11.01.1-1.39-1.27-3.7-2.8-5.62-2.05-.65.34-.6,1.39-.15,1.86,2.03,1.64,5.08,1.46,7.66,1.84-1.23.65-4.16.58-5.72.26-.95-.24-1.96-.6-2.69-1.52-1.17-1.8.18-3.49,2.2-2.98,1.74.45,3.77.71,5.07,2.09.64,1.2-1.15,1.13-1.83,1.01-.95-.12-1.87-.35-2.77-.67v-.1h.01Z"/>
    <path class="cls-4" d="m182.5,41.75c-1.73,1.57-4.32,3.58-6.06,5.17-1.37,1.26-3.41,2.57-3.92,4.38.44-.07.91-.45,1.34-.69,2.22-1.48,4.74-2.7,7.42-3.25,2.6-.44,5.79-.57,8.06.43-2.68-.13-5.3.02-7.84.61-2.92.58-5.6,1.86-8.31,3.1-.29.08-.62.3-.92.05-.31-.47.2-.97.39-1.34,2.48-3.51,5.92-6.96,9.84-8.47h0Z"/>
    <path class="cls-4" d="m167.83,46.65c5.01-5.85,11.26-10.94,18.49-13.79,4.92-2.04,20.49-2.6,20.36,5.09-.73,3.83-3.21,7.24-6.22,9.64-.89.64-2.83,1.89-3.5.35-.2-1.45.49-2.73.53-4.13.52-4.46-3.72-5.85-7.24-6.86-.37-.13-1.21-.52-1.16-1.21.4-1.92,4.92-2.05,6.52-2.12,3.71-.07,9.85.66,9.01,5.79-.44,2.38-1.78,4.48-3.66,5.95-.27.17-.56.35-.93.34-1.13-.17-.61-1.74-.61-2.49.39-2.71-.33-5.39-3.12-6.36-.13-.06-.33-.15-.44-.25-.25-.21-.1-.57.15-.66,3.03-.91,6.44,1.39,5.23,4.72,0,0-.1-.03-.1-.03.95-3.14-2.12-5.03-4.89-4.22-.08.01.03.07-.01-.18-.07-.09.02,0,.07.01.85.33,1.69.7,2.37,1.35,1.99,1.83,1.62,4.66,1.49,7.07,0,.12.05.27.03.22-.02-.03-.1-.08-.12-.07,2.37-1.42,5.11-6.34,2.57-8.61-2.17-1.92-10.26-2.11-12.58-.42,2.2,1.12,5.72,1.51,7.31,4.15,1.64,2.34.42,5.2.09,7.68-.03.56.54.65,1.12.47,2.95-1.15,5.03-3.9,6.51-6.61,6.08-10.72-12.61-10.02-18.49-7.77-2.41.77-4.6,2.06-6.78,3.42-4.4,2.54-8.41,6.2-12,9.54h0Z"/>
    <path class="cls-4" d="m175.71,31.74c9.74-9.45,26.22-8.92,36.04.14,6.83,5.98,1.96,14.81-4.04,19.22-4.58,3.6-10.79,4.81-16.46,3.97,3.18-.14,6.38-.2,9.56-1.36,3.05-1,5.77-2.75,8.08-4.98,3.27-3.17,6.42-7.75,4.95-12.48-.95-3.07-3.63-5.27-6.25-7-1.31-.9-2.8-1.68-4.31-2.2-6.07-2.13-12.93-1.71-19,.19-3.04,1.05-5.9,2.63-8.51,4.59l-.06-.08h0Z"/>
    <path class="cls-4" d="m216.48,39.27c1.75,9.33-6.23,17.76-15.59,16.97,1.08-.12,2.14-.3,3.17-.6,7.46-1.74,12.61-8.77,12.42-16.37h0Z"/>
    <path class="cls-4" d="m208.86,27.61c2.33,1.26,4.77,2.1,7.38,2.57,1.35.33,2.6,1.09,3.56,2.09,6.22,7.27,4.35,19.27-2.34,25.63-5.85,5.76-15.89,6.05-22.52,1.97,5.98,2.33,13.06,2.77,18.75-.46,9.44-5.18,12.85-18.16,5.47-26.53-.84-.92-1.91-1.62-3.12-1.95-2.33-.58-5.57-1.68-7.18-3.31h0Z"/>
    <path class="cls-4" d="m225.58,39.72c2.03,4.53,1.08,10.5-2.52,13.99,2.4-4.38,3.11-9.05,2.52-13.99h0Z"/>
    <path class="cls-4" d="m223.74,33.69c8.12,1.08,11.78,7.73,9.44,15.4-.64,2.22-1.75,4.29-3.25,6,.57-.98,1.11-1.97,1.51-3.01,3.21-8.25,1.4-15.68-7.7-18.39h0Z"/>
    <path class="cls-4" d="m238.28,58.3c-1.55-6.98.14-18.39,8.32-20.33-7.29,3.24-8.36,13.22-8.32,20.33h0Z"/>
    <path class="cls-4" d="m270.47,66.31c.76-6.27-.63-12.93-4.93-17.66-9.77-11.03-19.09-7.12-21.51,6.72-.7,8.2,2.51,17.13,8.53,22.79,3.11,2.84,7.35,4.21,10.71,6.8,3.37,2.52,6.92,5.6,9.12,8.98-2.83-3.18-6.05-6-9.57-8.34-3.49-2.51-7.73-3.71-10.96-6.67-6.26-5.73-9.5-15.26-8.38-23.63,1.7-9.04,8.13-17.76,17.83-11.5,3.61,2.41,6.67,5.76,8.27,9.82,1.51,3.95,2.01,8.84.88,12.7h0Z"/>
    <path class="cls-4" d="m268.1,86.36c-1.13-3.49-1.22-7.29-1.14-10.89-.06-3.66-1.51-7.04-2.36-10.57-.94-3.52-1.26-7.23-2.33-10.69-1.45-4.43-8.16-4.98-11.14-1.87-3.84,4.6-1.61,12.86,1.36,17.44.89,1.34,3.87,5.3,5.52,3.97,1.04-1.24,1.1-3.33,1.34-4.95.47-3.01.08-5.4-.17-8.14.79,2.63,1.05,5.45.83,8.2-.17,8.47-4.43,7.25-8.37,1.5-3.04-4.64-4.47-10.78-2.59-16.11,2.03-5.6,11.49-5.76,13.55-.14.58,1.49,1,3.76,1.41,5.32,1.09,5.38,3.6,10.49,3.72,16.05,0,1.85-.25,3.63-.15,5.47.06,1.81.28,3.62.62,5.41l-.1.02h0Z"/>
    <path class="cls-4" d="m251.41,64.64c-1.14-3.43-1.08-7.51,1.12-10.57,1.09-1.6,3.35-2.66,5.18-1.71,1.76.78,2.98,2.22,3.94,3.72-.63-.63-1.28-1.25-1.99-1.76-6.64-5.25-9.13,5.38-8.25,10.32h0Z"/>
    <path class="cls-4" d="m256.46,36.9c13.63,1.12,24.42,16.62,18.04,29.43.52-1.57.92-3.17,1.08-4.79,1.36-11.61-7.99-22.38-19.12-24.63h0Z"/>
    <path class="cls-4" d="m264.02,67.85c.47,2.28,2.16,16.17-2.85,13.33-1.48-.77-2.99-1.4-4.64-1.79,1.68,0,3.41.41,4.96,1.07,1.78.96,1.86-1.35,2.01-2.61.31-3.31.38-6.63.52-10h0Z"/>
    <path class="cls-4" d="m276.25,66.32c-1.04,3.5-2.32,6.92-3.39,10.4-.45,1.68-1.13,3.45-1.04,5.18.1,1.73.79,3.37,1.82,4.8,2.23,2.79,4.62,5.95,5.32,9.61.86,3.62.84,7.36.34,10.97.03-1.83.04-3.65-.15-5.46-.29-3.57-1.19-7.15-3.07-10.21-1.93-2.99-5.18-5.72-5.21-9.67-.05-1.94.66-3.69,1.25-5.47,1.25-3.44,2.68-6.81,4.12-10.17h0Z"/>
    <path class="cls-4" d="m275.6,74.46c-2.47,4.02-3.45,10.74,1.29,13.27-.02,0,0,0-.05.02-.06.06-.05.06-.05.01-.13-.82-.46-1.78-.62-2.64-.41-1.77-.66-3.76-.77-5.58-.01-.15-.03-.29-.05-.4,0-.04-.06-.11.06.01.11.11.38.09.44,0-.65,1.24-.78,2.84-.54,4.28,0,0-.1.03-.1.03-.55-1.15-.67-2.51-.43-3.81.08-.47.42-1.72,1.19-1.19.23.23.21.32.26.43.45,2.02.51,4.04.86,6.06.08.74.43,2.11.37,2.88-.45,1.54-2.12-.63-2.52-1.21-1.09-1.57-2.04-3.32-2.24-5.26-.19-2.45,1.07-5.63,2.89-6.91h0Z"/>
    <path class="cls-4" d="m276.25,66.32c3.81,6.89,6.33,14.58,6.85,22.52.19,3.94.45,7.82,1.15,11.7,1.1,5.6,1.98,11.82,6.25,15.92,2.84,2.84,9.83,7.26,9.83.06.07-2.81-1.12-5.76-3.31-7.53-.36-.27-.8-.48-1.11-.42-.31.03-.54.46-.67.88-.25.89-.26,1.88-.23,2.84.01.79.5,5.69,1.83,4.39.64-.67.98-1.67.99-2.62.03-.97-.54-1.91-1.39-2.41.88.45,1.52,1.38,1.55,2.4.18,1.09-1.08,4.46-2.35,2.61-.95-1.62-2.14-7.89.16-8.69.68-.11,1.18.21,1.61.49,3.19,2.52,4.75,7.28,3.16,11.11-3.13,5.57-13.07-3.47-14.2-7.38-2.94-7.42-3.8-15.43-4.02-23.32-.33-7.84-2.66-15.51-6.08-22.56h0Z"/>
    <path class="cls-4" d="m276.61,53.24c1.53,5.1,1.96,10.47,4.96,15.02,2.64,4.63,5.43,9.29,7,14.44,1.65,5.11,2.48,10.54,2.06,15.97-.29,2.69-1.11,5.16-.58,7.84.38,2.58,1.56,5.02,3.14,7.16l-.08.06c-1.85-1.94-3.27-4.38-3.83-7.08-.68-2.66.03-5.47.29-8.08.45-7.81-.72-16.13-4.37-23.16-1.94-3.51-4.66-6.59-6.26-10.32-.55-1.23-.91-2.62-1.13-3.93-.47-2.63-.93-5.27-1.3-7.92l.1-.02h0Z"/>
    <path class="cls-4" d="m290.32,82.3c3.96,6.82,4.85,15.66,1.89,23.02,1.56-7.78.77-15.57-1.89-23.02h0Z"/>
    <path class="cls-4" d="m294.6,89.25c1.11,3.08,1.67,6.43,1.33,9.73-.19,1.24-.65,2.54.14,3.6.35.48.89.76,1.5.98,2.48,1.1,4.68,2.82,6.47,4.87,1.86,2.03,2.86,4.82,3.04,7.54.93,8.64-4.51,13.23-12.93,10.99-9.43-2.26-15.37-12.96-13.24-22.19-1.81,10.5,6.33,21.9,17.3,21.8,6.01.2,8.59-5.12,7.94-10.52-.18-5.38-4.28-9.61-8.88-11.91-.49-.17-1.3-.62-1.69-1.21-.88-1.2-.42-2.76-.14-4.01.49-3.23.05-6.52-.85-9.67h0Z"/>
    <path class="cls-4" d="m297.08,93.12c2.75,3.15,5.15,7.08,7.05,10.8,0,0,1.08,1.87,1.08,1.87.26.58.78,1.09.73,1.77-.02.06-.09.17-.2.2-.13.04-.17.01-.24,0-1.25-.97-2.17-2.23-3.45-3.03-1.17-.83-2.35-1.24-3.78-1.53-.37-.1-.77-.25-1.15-.51-1.12-.78-1.08-2.42-.61-3.51.2-.54.86-1.41,1.58-1.05.87.51,1.15,1.57,1.43,2.42,0,0-.09.04-.09.04-.44-.71-.83-1.56-1.55-1.92-.11-.03-.14,0-.23.06-.89,1.07-.86,3.23.88,3.44,3.01.4,5.48,2.81,7.15,5.12,0-.04-.23.02-.22.11-.01.05,0,.01,0-.01-.77-2.55-2.59-4.65-4.08-6.8-1.43-2.27-3.44-5.07-4.3-7.46h0Z"/>
    <path class="cls-4" d="m278.93,109.97c7.27,16.88,6.56,36.05,1.16,53.35-.76,2.48-1.58,4.93-2.54,7.33,6.23-20.27,8.41-40.29,1.38-60.69h0Z"/>
    <path class="cls-4" d="m284.12,119.98c1.68,3.67,2.18,7.81,2.03,11.82,0,.28,0,.61.05.85-.09-.14-.31-.18-.42-.12,1.2-1.98,2.03-4.7,3.08-6.96-.55,2.52-1.04,5.13-2.27,7.43-.16.3-.69.68-1.1.29-.38-.46-.27-.97-.31-1.48.07-3.97-.22-7.88-1.06-11.82h0Z"/>
    <path class="cls-4" d="m295.36,126.76c-6.81,9.58-8.91,21.7-7.15,33.18.3,2.93,1.54,5.75,1.13,8.77-.44,3-1.7,5.79-3.45,8.19-4.95,6.57-7.63,4.66-4.79-2.76,1.16-2.49,2.15-.79,2.72.88-2.04-5.1-3.25,1.28-3.33,3.44,0,.58-.03,1.46.35,1.86.1.11.45.04.73-.11,1.54-.86,2.67-2.32,3.69-3.75,1.59-2.37,2.81-5.05,3.18-7.85.35-2.85-.91-5.67-1.21-8.51-1.7-11.6.57-24.11,8.13-33.32h0Z"/>
    <path class="cls-4" d="m304.21,124.9c-.81,4.45-3.22,8.66-6.45,11.78-3.15,3.21-4.37,7.82-4.51,12.23-.25,4.53,1,8.89.93,13.44-.11,4.59-1.52,9.1-3.85,12.96l-.09-.05c2.81-6.25,3.37-12.9,2.44-19.59-.51-4.51.1-9.11,1.36-13.45.65-2.16,1.61-4.29,3.08-6.08,1.48-1.71,2.95-3.3,4.1-5.24,1.17-1.88,2.09-3.92,2.87-6.03l.1.03h0Z"/>
    <path class="cls-4" d="m280.87,167.21c.18-3.17.6-6.38,1.9-9.31.26-.46.39-1.04.98-1.24.34-.01.44.28.49.42.73,4.08,1.94,7.97,2.93,11.99.03.26.11.55,0,.87-1.11,1.95-3.53-4.08-3.93-4.9,0,0,.09-.05.09-.05.73.91,2.55,3.66,3.38,4.37.03.03.02,0,0,0-.04-.02-.14-.04-.21-.01-.12.02-.27.2-.28.26-.68-2.85-1.53-5.74-1.74-8.7-.16-.87-.33-5.99-1.19-2.81-.8,2.97-1.2,6.41-2.42,9.12h0Z"/>
    <path class="cls-4" d="m276.79,173.33c-.96,3.19-1.96,6.38-2.71,9.61-.23,1.01-.34,1.88.55,2.55,3.63,2.22,8.86.67,11.64-2.37-2.45,3.84-8.28,5.72-12.27,3.14-1.12-.8-1.22-2.34-.83-3.53.89-3.26,2.11-6.39,3.63-9.4h0Z"/>
    <path class="cls-4" d="m273.35,174.17c-.68,3.03-1.89,5.96-3.54,8.61-.88,1.44-2.57,3.48-.24,4.37,2.81,1.06,5.96.86,8.81-.21-1.77,1.06-3.86,1.72-6,1.64-4.8-.2-6.54-2.23-3.37-6.31,1.72-2.55,3.09-5.27,4.33-8.1h0Z"/>
    <path class="cls-4" d="m258.14,190.89c1.69,4.23,6.61,4.06,9.55,7.08,1.32,1.17,4.83,5.11,2.69,6.63,0,0-1.29.83-1.29.83-1.24.78-2.56,1.75-3.76,2.61-1.22,1.16-3.24,1.19-4.69.49-2.16-.79-3.53-3.37-2.7-5.58.43-1.28,1.34-2.85,2.89-3.02,2.18.09,3.31,3.25,1.77,4.75-1.15,1.28-2.17.22-2.07-1.16,0,0,.1,0,.1,0,.07.48.24,1.01.58,1.28.75.41,1.49-1.04,1.45-1.68-.01-1.03-1.08-2.83-2.26-2.06-1.34,1-2.07,3.25-1.31,4.8,1.01,1.98,4.01,3.1,5.87,1.62.84-.49,3.08-1.84,3.95-2.34.32-.25,1.66-.84,1.76-1.25.35-2.91-3.81-5.54-5.96-6.98-1.71-1.06-3.87-1.61-5.23-3.22-.71-.79-1.19-1.76-1.43-2.76l.09-.03h0Z"/>
    <path class="cls-4" d="m218.3,156.96c1.38,4.63,3.33,9.05,6.01,12.99,4.15,5.87,9.77,10.72,14.33,16.32,1.53,1.88,3.06,3.79,4.25,5.98,1.19,2.25,1.62,4.73,1.8,7.17.14,2.46-.15,4.91-.79,7.25l-.1-.02c.6-4.69.35-9.67-1.86-13.9-3.74-6.1-8.53-11.67-13.33-16.99-1.66-1.76-3.48-3.37-4.98-5.32-2.77-3.92-4.96-8.88-5.33-13.48h0Z"/>
    <path class="cls-4" d="m243.86,189.04c4.32,5.31,5.58,13.46,2.05,19.52,2.12-6.6,1.01-13.4-2.05-19.52h0Z"/>
    <path class="cls-4" d="m248.96,192.83c2.19,4.46,2.14,10.08-.06,14.53.83-4.91.89-9.61.06-14.53h0Z"/>
    <path class="cls-4" d="m250.95,194.88c2.59,1.17,5.82,1.72,7.34-1.15-.15,3.96-5.54,3.8-7.34,1.15h0Z"/>
    <path class="cls-4" d="m252.94,198.71c.6,3.1-.08,6.44-1.87,9.04.5-3.14,1.09-5.97,1.87-9.04h0Z"/>
    <path class="cls-4" d="m254.93,210.63c1.55,3.49,6.43,6.02,9.17,2.37-.48,2.26-3.32,3.21-5.35,2.46-2.11-.63-3.6-2.71-3.82-4.83h0Z"/>
    <path class="cls-4" d="m253.55,212.62c1.94,3.74,6.42,6.75,9.17,1.99-1.5,6.24-8.71,2.94-9.17-1.99h0Z"/>
    <path class="cls-4" d="m245.39,225.02c1.7,4.71,5.66,8.88,10.82,9.06,3.24-.02,6.76-1.8,8.12-4.78,1.34-3.2-.08-6.37-1.22-9.53-.46-1.7-.62-3.46-.44-5.17h.1c.21,2.59.93,4.96,2.11,7.24,1.15,2.4,1.46,5.34.3,7.86-2.51,4.7-9.55,5.8-14.09,3.7-3.08-1.57-5.6-5.16-5.7-8.38h0Z"/>
    <path class="cls-4" d="m248.69,227.82c.27-7.25,9.21-11.4,12.42-3.54.87,2.81-.7,7.16-4.1,7.21-2.27-.18-4.25-2.34-3.84-4.67.34-1.68,1.71-3.31,3.55-3.29,1.27.09,2.19,1.09,2.53,2.23.61,1.76-1.32,4.14-2.97,2.53-.96-.92-1.09-2.36.65-2.12,0,0,0,.1,0,.1-1.51.07-1.12.93-.32,1.64.78.65,1.55.15,1.81-.7.3-.78-.08-1.68-.7-2.21-1.44-1.28-3.23.56-3.52,2.02-.39,1.69,1.24,3.48,2.88,3.69,2.9.12,4.64-3.82,3.73-6.32-1.52-3.9-6.45-4.57-9.26-1.59-1.39,1.31-2.29,3.11-2.76,5.04h-.1Z"/>
    <path class="cls-4" d="m214.65,175.01c11.8,5.4,17.37,17.23,18.73,29.6.73,4.36-.32,10.71,5.16,12.02,2.25.76,4.79.64,7.01-.35-3.17,1.74-7.67,1.6-10.45-.94-2.41-2.75-2.04-7.23-2.62-10.63-1.6-12.33-6.58-23.41-17.83-29.71h0Z"/>
    <path class="cls-4" d="m213.42,175.7c8.55,6.09,14.79,15.55,16.51,25.97.74,3.85-.1,7.86,1.45,11.47,1.62,3.2,4.37,6.84,8.29,6.94,2.6.07,4.91-1.66,6.46-3.65-1.43,2.18-3.73,4.04-6.45,4.14-4.19.03-7.3-3.63-9.09-7.08-1.67-3.67-.88-7.89-1.65-11.68-1.6-10.26-7.6-19.51-15.52-26.13h0Z"/>
    <path class="cls-4" d="m225.93,194.87c1.01,2.89,1.66,5.91,2,8.96.46,2.98-.23,6.09.89,8.94,1.91,5.82,7.78,9.97,13.98,8.65,2.91-.52,5.82-1.93,7.33-4.39.9-1.6,1.57-4.34-.09-5.58-2.14-1.05-5,.34-6.4,2.09-.79.87.9,1.15,1.53,1.25,1.27.22,4.48-.04,3.67-1.94-.85-.63-2.16-.04-3.06.33,0,0-.05-.09-.05-.09.99-.51,2.3-1.29,3.4-.54,1.03,1.25-.45,2.6-1.66,2.83-1.34.4-5.26.45-4.9-1.72,1.34-3.42,8.56-5.73,9.42-.87.79,7.16-7.88,10.32-13.74,8.98-4.59-.95-8.41-4.4-10.21-8.73-1.29-2.91-.52-6.12-.88-9.16-.21-3.02-.68-6.02-1.33-9l.1-.03h0Z"/>
    <path class="cls-4" d="m195.29,182.87c9.66,2.18,17.64,9.47,22.02,18.21,1.14,2.22,1.58,4.69,2.41,6.92.83,2.25,1.87,4.46,2.98,6.59,1.13,2.12,2.38,4.17,4.35,5.51,1.91,1.41,4.19,2.31,6.58,2.78v.1c-2.46-.14-4.91-.87-7.02-2.24-4.23-2.78-6.07-7.89-7.77-12.44-.81-2.36-1.09-4.79-2.02-7-1.75-4.55-5.12-8.29-9.02-11.14-3.68-3.12-8.25-5.37-12.5-7.29h0Z"/>
    <path class="cls-4" d="m196.29,179.72c18.13,2.04,21.34,15,26.4,29.94.78,2.2,1.77,4.32,3.19,6.16,1.4,1.85,3.16,3.45,5.15,4.74l-.05.09c-7.26-3.27-9.47-10.37-11.43-17.42-1.44-4.48-2.67-9.14-5.33-13.08-4.15-5.91-11.45-8.35-17.92-10.42h0Z"/>
    <path class="cls-4" d="m209.87,180.2c2.74,1.31,5.22,3.27,7.06,5.72,2.49,3.82,4.33,8.11,5.35,12.56.59,2.98.71,5.94,1.47,8.87.37,1.44.88,2.85,1.26,4.33l-.09.04c-.67-1.35-1.38-2.71-1.92-4.14-1.06-2.85-1.27-5.96-1.65-8.93-.5-2.92-1.05-5.94-2.46-8.59-2.18-3.94-5.87-6.93-9.03-9.86h0Z"/>
    <path class="cls-4" d="m120.16,86.92c-4.35-12.56,2.26-25.91,14.68-30.41,4.9-1.54,10.19-3.46,14.98-5.22,3.21-1.25,6.69-2.25,9.52-4.2,5.63-4.16,10.13-9.72,14.91-14.81-1.77,2.79-4.39,5.61-6.6,8.29-2.34,2.65-4.79,5.26-7.71,7.36-2.97,2.12-6.46,3.02-9.81,4.25-3.34,1.14-6.69,2.26-10.1,3.21-3.36,1.03-6.95,1.6-9.77,3.76-5.73,4-9.59,10.44-10.53,17.34-.59,3.45-.03,7.16.43,10.45h0Z"/>
    <path class="cls-4" d="m149.62,56.43c-2.93,1.11-5.88,2.27-8.97,2.92-1.55.33-3.05.61-4.44,1.24-4.21,1.88-7.53,5.5-9.93,9.39-3.13,5.31-3.16,12.36-.29,17.74,4.96,8.68,16.58,9.32,24.1,3.95-7.01,6.79-20.37,5.54-24.93-3.5-4.54-8.89-.32-19.51,6.63-25.83,2.37-2.19,5.59-3.3,8.7-3.74,3.05-.41,6.23-1.75,9.13-2.17h0Z"/>
    <path class="cls-4" d="m148.61,60.06c-2.03.95-4.15,1.7-6.32,2.27-6.57,1.61-11.92,5.96-13.93,12.56.16-1.11.47-2.2.85-3.26,1.95-5.51,7.33-9.04,12.91-10.04,2.19-.4,4.32-.97,6.49-1.53h0Z"/>
    <path class="cls-4" d="m134.7,70.14c-5.38,6.12-2.98,14.98,4.68,17.63.99.36,2.04.54,3.12.63-1.07.13-2.17.05-3.25-.16-8.49-1.97-11.41-12.45-4.55-18.11h0Z"/>
    <path class="cls-4" d="m145.7,86.04c-4.92,1.1-10.68-2.49-10.5-7.86-.02-5.12,4.15-9.51,9.13-10.18-4.51,1.4-8.14,5.39-8.13,10.18-.14,4.94,4.88,8.09,9.5,7.85h0Z"/>
    <path class="cls-4" d="m145.7,78.32c-.34-1.19-.27-3.36,1.34-3.81,2.24-.2,3.76,2.61,3.2,4.59-.31,1.14-1.17,2.03-2.17,2.44.76-.75,1.28-1.66,1.4-2.6.18-1.32-.61-2.82-1.77-3.45-1.41-.58-1.84,1.7-2,2.84h0Z"/>
    <path class="cls-4" d="m143.41,72.67c6.62-5.27,13.53,1.07,11.56,8.56-.57,2.1-1.83,3.95-3.46,5.28.67-.81,1.26-1.67,1.71-2.59,3.69-7.13-1.66-15.8-9.81-11.24h0Z"/>
    <path class="cls-4" d="m243.39,52.34c-.94-5.96,4.05-12.24,10.32-11.69-5.91,1.05-9.67,5.95-10.32,11.69h0Z"/>
    <path class="cls-4" d="m244.84,55.39c.67-6.19,6.44-13.92,13.37-11.49,6.09,2.57,10.41,8.85,10.93,15.39-1.28-6.19-5.43-11.96-11.27-14.45-6.49-2.16-11.62,4.93-13.03,10.55h0Z"/>
    <path class="cls-4" d="m262,82.83c1.4.46,3.3,1.13,3.11-1.1-.12-2.77.04-5.59.67-8.3.34,2.8.28,5.53.27,8.34-.06,2.77-2.44,2.52-4.06,1.06h0Z"/>
    <path class="cls-4" d="m260.74,60.09c-1.06-2.13-2.99-3.28-4.56-.89-1.11,1.78-1.1,4.01-.94,6.08.13,1.32.25,2.74.77,3.94,0,0,.02-.02-.16-.05-.08-.01-.21.05-.22.08.83-2.54.79-5.42,1.22-8.07.12,2.2.14,4.39-.05,6.6-.11.67-.05,1.61-.63,2.17-.41.3-.89-.09-1.02-.41-.61-1.33-.75-2.76-.91-4.18-.15-2.23-.12-4.71,1.32-6.6,1.98-2.55,4.41-1.39,5.17,1.34h0Z"/>
    <path class="cls-4" d="m237.7,98.67c4.99-1.17,9.64-2.63,14.4-4.53-4.05,3.11-9.3,4.76-14.4,4.53h0Z"/>
    <path class="cls-4" d="m240.33,104.39c8.43-1.13,16.63-4.82,22.18-11.39.82-.91,1.55-1.89,2.27-2.89-.53,1.11-1.19,2.17-1.89,3.19-5.04,7.19-13.87,11.24-22.57,11.09h0Z"/>
    <path class="cls-4" d="m273.08,99.37c-1.5,3.58-4.85,6.45-8.62,7.37,3.2-2.23,5.92-4.55,8.62-7.37h0Z"/>
    <path class="cls-4" d="m273.35,94.64c2.69,3.67,4.21,8.07,4.82,12.55-1.61-4.21-3.04-8.39-4.82-12.55h0Z"/>
    <path class="cls-4" d="m288.88,111.67c1.76,2.58,3.93,5.12,7,5.98,1.69.57,2.58.16,2.36-1.74-.16-1.53-.72-3.04-1.81-4.27,1.38.94,2.27,2.51,2.58,4.15.56,2.5-1.14,3.61-3.42,2.81-3.29-.94-5.59-3.86-6.71-6.94h0Z"/>
    <path class="cls-4" d="m232.72,37.13c1.39,1.15,2.52,2.64,3.88,3.76.21.05.5-.02.76-.19,1.79-1.35,3.84-2.76,6.14-3.07-1.01.58-1.98,1.16-2.89,1.82-1.23.71-2.19,2.24-3.79,2.44-.33.04-.89-.2-1.09-.47-1.21-1.31-2.14-2.74-3.01-4.28h0Z"/>
    <path class="cls-4" d="m125.07,163.09c.32-7.31,13.03,2.59,15,5-2.62-1.65-5.16-3.33-7.83-4.8-2.19-1.09-6.28-4.18-7.17-.2h0Z"/>
    <path class="cls-4" d="m125.07,160.09c2.65-7.55,8.94-.67,12.36,2.36,1.26,1.17,2.48,2.38,3.64,3.64-1.43-.97-2.81-1.98-4.15-3.04-2.57-1.8-5.09-4.83-8.13-5.64-1.65-.13-2.91,1.36-3.72,2.68h0Z"/>
    <path class="cls-4" d="m125.07,171.09c3.56,1.71,7.19,2.03,11,1-3.16,2.43-8.33,1.97-11-1h0Z"/>
  </g>
</svg>