<svg id="Layer_1" data-name="Layer 1" xmlns="http://www.w3.org/2000/svg" viewBox="0 0 992.01 285.78"><defs><style>.cls-1{fill:#e48807;}.cls-2{fill:#e58906;}</style></defs><path class="cls-1" d="M176,221.9q-18.9,0-33.43-7.48a57.37,57.37,0,0,1-22.85-20.66,55.07,55.07,0,0,1-8.3-30q0-17,8.3-30.11A58.41,58.41,0,0,1,142.59,113q14.52-7.58,33.43-7.58,19.1,0,33,8.2a45.4,45.4,0,0,1,19.72,22.74l-30.52,15.78q-3.94-7.89-9.76-11.52A23.49,23.49,0,0,0,175.81,137a24.56,24.56,0,0,0-12.35,3.12,23.18,23.18,0,0,0-8.83,8.93q-3.33,5.81-3.32,14.74a29.65,29.65,0,0,0,3.32,14.54,22.86,22.86,0,0,0,8.83,9.13,24.56,24.56,0,0,0,12.35,3.12,23.48,23.48,0,0,0,12.67-3.63q5.81-3.65,9.76-11.53L228.76,191A45.34,45.34,0,0,1,209,213.69Q195.12,221.9,176,221.9Z" transform="translate(-18.08 -7.11)"/><path class="cls-1" d="M299,221.9q-18.48,0-32.81-7.48a57,57,0,0,1-22.53-20.66,55.61,55.61,0,0,1-8.2-30q0-17,8.2-30.21a57.1,57.1,0,0,1,22.53-20.67q14.34-7.47,32.81-7.47t32.92,7.47a56.91,56.91,0,0,1,22.63,20.67q8.21,13.19,8.21,30.21a55.61,55.61,0,0,1-8.21,30,56.82,56.82,0,0,1-22.63,20.66Q317.43,221.91,299,221.9Zm0-31.36a23,23,0,0,0,11.94-3.12,22.45,22.45,0,0,0,8.52-9.24,31.14,31.14,0,0,0,3.22-14.64q0-8.72-3.22-14.53a23.21,23.21,0,0,0-40.91,0q-3.22,5.81-3.22,14.53a31,31,0,0,0,3.22,14.64,22.43,22.43,0,0,0,8.51,9.24A23.07,23.07,0,0,0,299,190.54Z" transform="translate(-18.08 -7.11)"/><path class="cls-1" d="M429.78,221.9A55.5,55.5,0,0,1,402,214.73a52.34,52.34,0,0,1-20-20.14q-7.37-13-7.37-30.84,0-18.06,7.37-31a52.43,52.43,0,0,1,20-20.15,55.6,55.6,0,0,1,27.83-7.16q14.33,0,24.5,6.33t15.37,19.21q5.19,12.88,5.19,32.81T470,196.56q-4.87,12.88-14.95,19.11T429.78,221.9Zm8.3-31.36A23.11,23.11,0,0,0,450,187.42a21.83,21.83,0,0,0,8.41-9.24,31.52,31.52,0,0,0,3.11-14.43q0-8.92-3.11-14.74a22.26,22.26,0,0,0-8.41-8.93A23.11,23.11,0,0,0,438.08,137a23.47,23.47,0,0,0-12.14,3.12,22.2,22.2,0,0,0-8.41,8.93q-3.12,5.81-3.12,14.74a31.39,31.39,0,0,0,3.12,14.43,21.77,21.77,0,0,0,8.41,9.24A23.47,23.47,0,0,0,438.08,190.54ZM462.8,220V200.72l.2-37.18-2.07-37.17V65.94h39.45V220Z" transform="translate(-18.08 -7.11)"/><path class="cls-1" d="M525.72,220V65.94h39.45v60.43l-2.07,37.17.41,37.18V220Zm70.81,1.87q-15.16,0-25.23-6.23t-15.06-19.11q-5-12.87-5-32.81t5.29-32.81q5.3-12.87,15.48-19.21t24.5-6.33a55.46,55.46,0,0,1,27.93,7.16,52.74,52.74,0,0,1,19.94,20.15q7.36,13,7.37,31,0,17.87-7.37,30.84a52.64,52.64,0,0,1-19.94,20.14A55.37,55.37,0,0,1,596.53,221.9Zm-8.31-31.36a23.07,23.07,0,0,0,11.94-3.12,22.51,22.51,0,0,0,8.52-9.24,30.66,30.66,0,0,0,3.22-14.43q0-8.92-3.22-14.74a23.21,23.21,0,0,0-40.91,0q-3.22,5.81-3.22,14.74a30.54,30.54,0,0,0,3.22,14.43,22.43,22.43,0,0,0,8.51,9.24A23.07,23.07,0,0,0,588.22,190.54Z" transform="translate(-18.08 -7.11)"/><path class="cls-1" d="M729.22,221.9q-20.15,0-35-7.58a56.93,56.93,0,0,1-23.05-20.77,55.23,55.23,0,0,1-8.2-29.8q0-17,8-30.21a56.09,56.09,0,0,1,22-20.67q14-7.47,31.87-7.47a65.48,65.48,0,0,1,30.22,6.95,55.14,55.14,0,0,1,21.8,19.94q8.21,13,8.2,31.67c0,1.38-.07,3-.2,4.77s-.28,3.47-.42,5H695.38V153h68.11l-15,5.82a26.32,26.32,0,0,0-2.81-13.19,22.09,22.09,0,0,0-8.2-8.83,23.43,23.43,0,0,0-12.25-3.11,25,25,0,0,0-12.67,3.11,20.31,20.31,0,0,0-8.2,8.83A30.06,30.06,0,0,0,701.6,159v6A28.57,28.57,0,0,0,705,179.33a22.82,22.82,0,0,0,9.87,9.24,33.94,33.94,0,0,0,15.36,3.21,37.87,37.87,0,0,0,14.33-2.38A43.56,43.56,0,0,0,756.22,182l20.56,21.8a51.74,51.74,0,0,1-19.73,13.39Q745.21,221.9,729.22,221.9Z" transform="translate(-18.08 -7.11)"/><path class="cls-1" d="M787,220l51.92-67.91-1,22.43-49.42-67.28h44.44l27.62,39.87-16.41.83,29.7-40.7h41.53L865.45,173.1l.21-21.6L916.74,220H871.47l-28.66-42.36L859.43,180,829.94,220Z" transform="translate(-18.08 -7.11)"/><path class="cls-2" d="M957,292.89H71.2a53.18,53.18,0,0,1-53.12-53.12V60.23A53.18,53.18,0,0,1,71.2,7.11H957a53.19,53.19,0,0,1,53.13,53.12V239.77A53.19,53.19,0,0,1,957,292.89ZM71.2,19.11A41.16,41.16,0,0,0,30.08,60.23V239.77A41.17,41.17,0,0,0,71.2,280.89H957a41.17,41.17,0,0,0,41.13-41.12V60.23A41.17,41.17,0,0,0,957,19.11Z" transform="translate(-18.08 -7.11)"/></svg>