<svg width="3000" height="800" viewBox="-60 -30 2400 500" xmlns="http://www.w3.org/2000/svg"><g id="codbex" stroke-linecap="round" fill-rule="nonzero" font-size="9pt" stroke="#ffffff" stroke-width="0.25mm" fill="#ffffff" style="stroke:#ffffff;stroke-width:0.25mm;fill:#ffffff"><path d="M 324.605 199.8 L 252.005 238.8 A 100.507 100.507 0 0 0 239.774 221.147 A 75.049 75.049 0 0 0 220.505 205.2 Q 201.605 194.4 179.405 194.4 A 91.658 91.658 0 0 0 151.937 198.41 A 81.635 81.635 0 0 0 136.205 205.2 Q 117.005 216 105.905 235.8 A 83.977 83.977 0 0 0 96.929 260.733 Q 94.871 271.127 94.807 283.03 A 142.416 142.416 0 0 0 94.805 283.8 A 119.49 119.49 0 0 0 96.78 306.099 Q 99.487 320.353 105.905 331.8 Q 117.005 351.6 136.205 362.4 Q 155.405 373.2 179.405 373.2 Q 201.605 373.2 220.505 362.7 A 71.712 71.712 0 0 0 240.727 345.683 A 100.854 100.854 0 0 0 252.005 328.8 L 324.605 368.4 Q 306.605 407.4 268.805 428.7 A 163.436 163.436 0 0 1 213.507 447.483 A 215.106 215.106 0 0 1 180.005 450 A 218.791 218.791 0 0 1 127.76 443.989 A 180.689 180.689 0 0 1 87.005 428.7 Q 46.205 407.4 23.105 369.6 A 158.281 158.281 0 0 1 0.366 295.641 A 191.943 191.943 0 0 1 0.005 283.8 A 173.91 173.91 0 0 1 7.112 233.3 A 150.53 150.53 0 0 1 23.105 197.7 Q 46.205 160.2 87.005 138.9 A 187.329 187.329 0 0 1 151.544 119.285 A 234.394 234.394 0 0 1 180.005 117.6 A 206.203 206.203 0 0 1 224.917 122.28 A 159.48 159.48 0 0 1 268.805 138.9 Q 306.605 160.2 324.605 199.8 Z" id="0" vector-effect="non-scaling-stroke"/><path d="M 476.836 443.993 A 172.418 172.418 0 0 1 436.505 428.4 Q 396.605 406.8 373.505 369.3 Q 350.405 331.8 350.405 283.8 A 173.91 173.91 0 0 1 357.512 233.3 A 150.53 150.53 0 0 1 373.505 197.7 Q 396.605 160.2 436.505 138.9 A 180.536 180.536 0 0 1 499.905 119.285 A 228.238 228.238 0 0 1 528.005 117.6 A 209.068 209.068 0 0 1 581.26 124.154 A 176.41 176.41 0 0 1 619.205 138.9 Q 659.405 160.2 682.205 197.4 Q 705.005 234.6 705.005 283.8 A 172.442 172.442 0 0 1 697.384 335.791 A 152.02 152.02 0 0 1 682.205 369.3 Q 659.405 406.8 619.205 428.4 Q 579.005 450 528.005 450 A 209.825 209.825 0 0 1 476.836 443.993 Z M 528.005 373.2 A 86.876 86.876 0 0 0 554.741 369.19 A 77.602 77.602 0 0 0 570.005 362.4 Q 588.605 351.6 599.405 331.5 A 88.51 88.51 0 0 0 608.422 304.987 A 120.395 120.395 0 0 0 610.205 283.8 A 122.717 122.717 0 0 0 608.283 261.501 Q 605.823 248.193 600.218 237.333 A 75.782 75.782 0 0 0 599.405 235.8 Q 588.605 216 570.005 205.2 A 80.472 80.472 0 0 0 534.136 194.591 A 97.474 97.474 0 0 0 528.005 194.4 A 86.876 86.876 0 0 0 501.268 198.41 A 77.602 77.602 0 0 0 486.005 205.2 Q 467.405 216 456.305 235.8 A 83.977 83.977 0 0 0 447.329 260.733 Q 445.271 271.127 445.207 283.03 A 142.416 142.416 0 0 0 445.205 283.8 A 115.254 115.254 0 0 0 447.484 307.273 A 85.974 85.974 0 0 0 456.305 331.5 A 81.806 81.806 0 0 0 474.606 354.311 A 76.241 76.241 0 0 0 486.005 362.4 A 80.472 80.472 0 0 0 521.874 373.009 A 97.474 97.474 0 0 0 528.005 373.2 Z" id="1" vector-effect="non-scaling-stroke"/><path d="M 1096.205 445.2 L 1006.805 445.2 L 1006.805 379.2 L 1008.605 283.2 L 1002.605 187.8 L 1002.605 0 L 1096.205 0 L 1096.205 445.2 Z M 852.52 441.914 A 155.352 155.352 0 0 1 823.805 429.3 Q 787.205 408.6 765.905 371.4 A 159.169 159.169 0 0 1 747.122 316.89 A 209.777 209.777 0 0 1 744.605 283.8 A 205.52 205.52 0 0 1 748.978 240.415 A 155.574 155.574 0 0 1 765.905 195.6 Q 787.205 158.4 823.805 138 A 162.505 162.505 0 0 1 893.358 118.003 A 195.83 195.83 0 0 1 906.005 117.6 A 156.25 156.25 0 0 1 943.976 122.03 A 125.579 125.579 0 0 1 977.405 135.6 A 112.624 112.624 0 0 1 1016.172 174.065 A 145.647 145.647 0 0 1 1024.805 190.2 A 166.321 166.321 0 0 1 1035.99 224.712 Q 1039.499 241.046 1040.815 260.044 A 344.033 344.033 0 0 1 1041.605 283.8 A 324.065 324.065 0 0 1 1039.42 322.59 Q 1035.656 353.749 1025.405 377.1 A 132.186 132.186 0 0 1 1007.297 407.322 A 105.906 105.906 0 0 1 978.905 432 A 125.421 125.421 0 0 1 937.409 447.253 A 171.61 171.61 0 0 1 906.005 450 A 172.689 172.689 0 0 1 852.52 441.914 Z M 922.205 373.2 Q 945.005 373.2 963.605 362.4 A 78.308 78.308 0 0 0 991.888 333.976 A 93.618 93.618 0 0 0 993.305 331.5 Q 1004.405 311.4 1004.405 283.8 A 119.49 119.49 0 0 0 1002.429 261.501 Q 999.722 247.247 993.305 235.8 A 80.984 80.984 0 0 0 972.043 210.858 A 78.089 78.089 0 0 0 963.605 205.2 A 80.612 80.612 0 0 0 923.714 194.412 A 95.397 95.397 0 0 0 922.205 194.4 A 86.876 86.876 0 0 0 895.468 198.41 A 77.602 77.602 0 0 0 880.205 205.2 Q 861.605 216 850.505 235.8 A 83.977 83.977 0 0 0 841.529 260.733 Q 839.471 271.127 839.407 283.03 A 142.416 142.416 0 0 0 839.405 283.8 A 115.254 115.254 0 0 0 841.684 307.273 A 85.974 85.974 0 0 0 850.505 331.5 A 81.806 81.806 0 0 0 868.806 354.311 A 76.241 76.241 0 0 0 880.205 362.4 A 80.472 80.472 0 0 0 916.074 373.009 A 97.474 97.474 0 0 0 922.205 373.2 Z" id="2" vector-effect="non-scaling-stroke"/><path d="M 1272.005 445.2 L 1182.605 445.2 L 1182.605 0 L 1276.205 0 L 1276.205 187.8 L 1270.205 283.2 L 1272.005 379.2 L 1272.005 445.2 Z M 1338.427 446.555 A 126.116 126.116 0 0 1 1300.205 432 A 109.284 109.284 0 0 1 1261.789 393.359 A 142.047 142.047 0 0 1 1253.405 377.1 Q 1240.424 347.533 1237.844 305.447 A 354.051 354.051 0 0 1 1237.205 283.8 A 312.815 312.815 0 0 1 1239.413 245.466 Q 1243.35 213.647 1254.305 190.2 Q 1271.405 153.6 1302.005 135.6 A 129.77 129.77 0 0 1 1350.669 119.104 A 166.864 166.864 0 0 1 1373.405 117.6 A 174.985 174.985 0 0 1 1424.276 124.792 A 154.185 154.185 0 0 1 1455.305 138 Q 1491.605 158.4 1512.905 195.6 A 158.18 158.18 0 0 1 1531.209 247.491 A 211.323 211.323 0 0 1 1534.205 283.8 Q 1534.205 334.2 1512.905 371.4 Q 1491.605 408.6 1455.305 429.3 A 158.564 158.564 0 0 1 1387.428 449.495 A 191.88 191.88 0 0 1 1373.405 450 A 169.373 169.373 0 0 1 1338.427 446.555 Z M 1357.205 373.2 Q 1380.605 373.2 1398.905 362.4 A 78.414 78.414 0 0 0 1425.79 335.786 A 94.54 94.54 0 0 0 1428.305 331.5 Q 1439.405 311.4 1439.405 283.8 A 119.49 119.49 0 0 0 1437.429 261.501 Q 1434.722 247.247 1428.305 235.8 A 83.01 83.01 0 0 0 1409.889 213.042 A 77.285 77.285 0 0 0 1398.905 205.2 Q 1380.605 194.4 1357.205 194.4 A 86.876 86.876 0 0 0 1330.468 198.41 A 77.602 77.602 0 0 0 1315.205 205.2 Q 1296.605 216 1285.805 235.8 A 85.101 85.101 0 0 0 1277.222 259.968 Q 1275.143 270.331 1275.013 282.209 A 145.418 145.418 0 0 0 1275.005 283.8 A 119.023 119.023 0 0 0 1277.072 306.514 A 87.838 87.838 0 0 0 1285.805 331.5 A 79.174 79.174 0 0 0 1304.594 354.955 A 74.962 74.962 0 0 0 1315.205 362.4 A 80.472 80.472 0 0 0 1351.074 373.009 A 97.474 97.474 0 0 0 1357.205 373.2 Z" id="3" vector-effect="non-scaling-stroke"/><path d="M 1911.005 310.2 L 1648.805 310.2 L 1648.805 255.6 L 1861.805 255.6 L 1825.805 271.8 A 104.837 104.837 0 0 0 1823.582 249.712 A 79.802 79.802 0 0 0 1815.605 228 Q 1805.405 209.4 1787.405 198.9 A 76.656 76.656 0 0 0 1759.126 189.325 A 98.708 98.708 0 0 0 1745.405 188.4 A 93.054 93.054 0 0 0 1722.17 191.192 A 76.266 76.266 0 0 0 1703.105 198.9 Q 1684.805 209.4 1674.605 228.3 A 83.296 83.296 0 0 0 1665.961 253.897 A 112.363 112.363 0 0 0 1664.405 273 L 1664.405 287.4 A 101.021 101.021 0 0 0 1667.515 312.95 A 83.058 83.058 0 0 0 1676.105 333.9 Q 1687.805 354 1709.105 364.5 A 99.437 99.437 0 0 0 1736.641 373.2 A 135.219 135.219 0 0 0 1759.205 375 A 144.546 144.546 0 0 0 1781.829 373.315 A 105.261 105.261 0 0 0 1804.505 367.2 A 109.135 109.135 0 0 0 1837.138 346.656 A 125.577 125.577 0 0 0 1840.205 343.8 L 1890.005 397.8 A 142.97 142.97 0 0 1 1841.418 433.407 A 168.905 168.905 0 0 1 1834.205 436.5 A 182.296 182.296 0 0 1 1793.177 447.416 A 244.992 244.992 0 0 1 1756.805 450 Q 1701.605 450 1659.905 428.4 Q 1618.205 406.8 1595.405 369.3 A 157.352 157.352 0 0 1 1573.161 298.544 A 192.389 192.389 0 0 1 1572.605 283.8 A 178.565 178.565 0 0 1 1579.334 233.963 A 152.599 152.599 0 0 1 1595.105 197.7 Q 1617.605 160.2 1656.605 138.9 A 175.105 175.105 0 0 1 1725.975 118.413 A 214.445 214.445 0 0 1 1744.805 117.6 A 192.595 192.595 0 0 1 1797.814 124.686 A 168.261 168.261 0 0 1 1830.305 137.7 Q 1868.405 157.8 1890.605 195.3 A 156.116 156.116 0 0 1 1909.683 247.917 A 211.122 211.122 0 0 1 1912.805 285 A 116.025 116.025 0 0 1 1912.69 290.012 Q 1912.579 292.567 1912.362 295.389 A 195.576 195.576 0 0 1 1912.205 297.3 Q 1911.605 304.2 1911.005 310.2 Z" id="4" vector-effect="non-scaling-stroke"/><path d="M 2027.405 445.2 L 1925.405 445.2 L 2070.005 255.6 L 2068.205 307.2 L 1929.605 122.4 L 2034.605 122.4 L 2122.205 243 L 2082.605 244.2 L 2173.205 122.4 L 2272.805 122.4 L 2133.605 305.4 L 2133.605 255 L 2277.605 445.2 L 2171.405 445.2 L 2079.605 316.8 L 2118.605 322.2 L 2027.405 445.2 Z" id="5" vector-effect="non-scaling-stroke"/></g></svg>