<?xml version="1.0" encoding="UTF-8"?>
<svg id="Layer_1" data-name="Layer 1" xmlns="http://www.w3.org/2000/svg" viewBox="0 0 787.67 882.64">
  <defs>
    <style>
      .cls-1 {
        fill: #000;
      }

      .cls-1, .cls-2 {
        stroke-width: 0px;
      }

      .cls-2 {
        fill: #fff;
      }
    </style>
  </defs>
  <path class="cls-1" d="M127.79,696.7c-30.9,1.12-47.83-18.8-39.32-44.5-7.14-6.61-13.98-12.96-21.04-19.5-.44,3.61-1.9,8-1.19,12.01.68,3.85,3.61,7.29,6.07,11.88-7.49-1.95-13.58-4.81-17.63-11.19-5.33-8.39-5.58-17.79-5.04-27.21.26-4.59-.82-7.61-4.24-11.19-9.52-9.98-14.13-22.54-15.05-36.25-1.13-16.75.87-32.81,11.61-46.7.94-1.22,1.31-3.39,1.04-4.96-3.77-22.22,5.81-40.63,26.64-50,6.86-3.08,14.14-5.2,21.71-7.93-3.09-15.23.11-29.71,6.37-44.81-3.57.95-6.11,1.54-8.6,2.32-18.67,5.8-36.58,5.33-53.41-5.88-17.51-11.66-25.63-34.59-18.12-52.6,1.41-3.39,3.63-6.77,6.34-9.18,1.58-1.41,4.87-.88,7.4-1.23.15,2.28.56,4.59.4,6.85-.38,5.49-2.08,11.1-1.35,16.4,1.37,10.04,7.38,16.91,17.32,20.16,18.65,6.1,37.23.51,48.4-15.57,8.15-11.74,14.29-17.69,24.72-31.94,3.98-5.44,9.98-13.46,17.69-23.08-7.79-7.27-17.38-18.2-24.72-33.45-3.52-7.31-12.14-25.74-10.76-49.74.37-6.48,1.04-16.46,6.4-27.63,2.36-4.92,5.35-9,11.34-17.16,6.8-9.26,10.07-12.12,13.16-14.21,2.75-1.86,5.78-3.52,8.58-4.82,3.94-1.84,6.32-2.36,10.98-4.95,15.26-8.5,13.59-24.78,26.44-47.76,9.45-16.9,26.6-30.84,60.89-58.73,20.13-16.37,31.74-22.6,46.57-32.53,8.04-5.39,21.74-11.87,39.82-16.45,16.13-4.09,21.77-2.46,28.91-4.38,3.59-.96,5.97-2.34,7.04-2.87,9.21-4.59,25.91-7.07,37.79-7.61,14.03-.63,46.2-2.07,70.6,18.89,4.82,4.14,8.18,8.16,10.17,10.75,5.87-.78,14.68-1.51,25.28-.58,31.07,2.72,58.19,17.95,68.87,28.53,6.92,6.86,14.75,12.74,21.81,19.45,1.78,1.69,3.19,1.85,4.25,2.46,11.56,6.68,26.67,41.95,26.67,41.95,9.23,25.01,13.85,37.51,14.05,40.44.31,4.48,2.94,9.97,6.87,16.81,4.23,7.36,7.71,10.1,15.57,18.53,15.48,16.6,23.22,25.09,23.06,34.55-.09,5.04-1.96,4.19-3.7,14.5-1.97,11.69-.65,15.89-1.99,21.89-1.4,6.28-5.92,14.53-19.9,22.75,2.61-.55,7.14-1.11,9.62,1.4,2.88,2.92,1.43,8.37.05,14.23-3.73,15.87-5.6,23.81-5.26,27.4,1.48,15.52,21.18,13.98,40.62,40.17,5.57,7.5,7.56,12.81,15.12,17.06,6.9,3.87,15.16,5.14,24.33,3.76,19.43-2.92,29.97-20.41,23.59-38.86-.61-1.77.04-3.97.1-5.97,2.21.09,4.93-.62,6.56.41,9.04,5.7,11.17,14.76,10.22,24.56-2.36,24.36-22.85,43.6-48.67,45.82-5.71.49-11.58.43-17.26-.29-5.61-.71-11.07-2.58-17.29-4.11.68,2.58,1.13,4.82,1.87,6.96,3.26,9.52,5.21,19.14,2.86,29.21-1.05,4.51.55,7.68,4.9,9.54,4.47,1.91,8.89,3.97,13.28,6.08,20.71,9.93,30.48,26.52,29.57,49.43-.11,2.66,1.17,5.59,2.47,8.05,5.58,10.5,9.36,21.58,10.13,33.43,1.21,18.68-4.13,35.22-16.93,49.24-2.16,2.37-4.02,5.71-4.47,8.82-2.78,19.5-13.46,32.09-31.96,38.46-1.39.48-2.61,2.62-3.13,4.24-7.88,24.49-24.04,40.56-48.65,48.07-2.2.67-4.53.94-6.88,1.41-.79,8.25-1.03,16.56-2.46,24.67-4.62,26.17-15.12,49.39-36.76,65.97-6.88,5.27-12.39,10.89-17.22,18.3-11.21,17.2-28.87,25.26-48.71,27.77-9.17,1.16-18.66.31-27.95-.36-4.01-.29-6.77.32-9.54,3.27-9.54,10.15-21.26,15.84-35.3,16.63-1.66.09-3.71.71-4.84,1.84-9.96,9.96-22.71,13.2-35.96,14.31-24.95,2.1-48.57-1.9-69.1-17.59-.7-.53-1.51-1.16-2.33-1.25-8.83-.94-15.07-6.61-21.41-11.89-2.93-2.43-5.51-3.79-9.56-3.44-10.49.91-19.94-1.92-27.9-9.22-1.25-1.14-3.52-1.66-5.31-1.64-23.5.23-39.02-14.04-40.74-37.81-.2-2.78-.87-4.44-3.96-4.53-20.92-.6-34.72-12.65-45.32-29.08-4.06-6.29-6.81-13.48-9.67-20.45-1.11-2.71-2.22-3.78-5.23-4.12-18.72-2.14-33.74-10.66-44.58-26.34-1.46-2.11-2.58-1.46-5.55-3.19-5.41-3.15-12.41-7.86-20.09-14.88ZM232.22,170.75c5.61,2.79,10.37.46,15.18-2.31,3.73-2.15,7.56-4.23,11.54-5.85,5.78-2.35,11.77-3.33,17.9-.99,6.85,2.62,10.22,9.43,8.16,16.65-2.26,7.93-8.06,11.97-15.63,10.28,1.61-.34,2.62-.55,3.63-.77,7.08-1.53,11.31-8,10.11-15.48-.94-5.88-6.37-9.71-13.29-9.1-2.48.22-4.98.85-7.34,1.68-8.25,2.9-10.95,6.34-11.24,13.89-.25,6.6,3.8,12.68,10.43,15.62,10.33,4.59,25.84-2.1,29.75-12.9.42-1.15.68-2.5.5-3.68-1.19-7.6-2.52-15.18-3.83-22.96-19.16,3.2-37.89,8.02-55.68,16.11-8.1.03-13.36,5.02-18.32,10.97,2.6.41,5.14.37,7.19-.66,7.74-3.9,14.75-3.57,21.57,2.16,3.29,2.76,4.03,5.6,2.58,9.49-2.87,7.73-8,12.13-16.58,12.01,1.51.47,3.02.93,4.54,1.4-.13.42-.25.83-.38,1.25-3.32-.83-6.64-1.65-10.26-2.55-1.1,2.25-2.36,4.85-4.06,8.35,7.3-2.4,13.56-4.12,19.52-6.57,3.19-1.3,6.84-3.23,8.59-5.95,6.14-9.57,2.08-21.56-8.22-26.39-2.2-1.03-4.23-2.45-6.33-3.69ZM465.23,156.08c-6.42-3.79-13.45-2.48-21.03-3.25.89,1.72,1.22,2.54,1.7,3.26,7.82,11.57,9.01,10.7,16.8,2.06-3.21,6.52-4.76,12.98-4.03,20.64.5,5.23-2.42,11.19-5.02,16.2-3.1,5.99-8.87,7.23-15.34,4.81-1.37-.51-2.93-.48-5.43-.84,4.98,6.37,13.07,9.16,17.92,5.22,4.78-3.88,7.79-9.93,10.92-14.13-.39,9.04-5.19,16.07-14.44,20.98-3.48,1.85-6.43,4.69-9.63,7.08.31.44.61.88.92,1.32,12.54-9.2,27-13.61,41.94-16.06,14.93-2.45,30.06-3.67,45.11-5.42-3.17-.4-4.39-4.81-9.09-3.34-1.92.6-5.72-4.77-8.01-6.84-5.5,2.81-10.92,6.64-16.94,8.47-16.45,4.97-30.52-6.43-29.74-23.45.38-8.33,6.99-16.7,14.03-17.75,7.46-1.12,17.45,5.1,20.27,12.61,2.28,6.06.28,10.55-5.68,13.17-7.31,3.22-12.81.78-17.79-5.43-.35,2.22-.44,4.37.56,5.66,3.8,4.92,9,7.43,15.2,6.13,5.93-1.25,10.26-4.8,12.33-10.89.24,1.42.84,3.33.14,4.27-4.26,5.77-9.77,9.55-17.31,9.32-6.01-.18-11.2-4.19-13.33-10.2-2.38-6.72,1.41-13.79,8.38-14.71,1.69-.23,3.67,1.7,5.52,2.64-1.12,1.91-2.01,4.02-3.45,5.64-.74.84-2.47.81-3.75,1.17-.11.63-.22,1.25-.33,1.88,2.01.72,4.07,2.17,6.01,2.01,3.89-.32,6.78-2.52,7.1-6.84.38-5.08-1.83-8.86-6.5-10.77-8.9-3.64-19.04,3.41-19.04,13.05,0,13.02,10.73,21.37,24.88,19.36,7.58-1.08,19.84-10.72,19.77-16.93-.12-9.88,1.62-20.08-3.51-30.37,29.37,6.56,57.88,13.19,85.29,25.02-1.2-2.23-3.18-3.42-4.91-4.92-13.47-11.71-29.77-17.6-46.64-21.73-33.36-8.17-67.29-12.77-101.61-14.46-3.86-.19-7.73-.03-11.93-.03,5.51,8,7.35,8.78,15.38,9.48,17.6,1.52,35.2,3.2,52.74,5.26,2.72.32,6.82,2.46,7.46,4.6,2.22,7.43,3.2,15.24,4.66,22.9-4.77-17.82-7.55-21.15-22.34-22.99-11.26-1.4-22.62-2.03-33.94-2.93-2.05-.16-4.13-.02-6.2-.02-.05.75-.11,1.5-.16,2.25,10.47.96,20.94,1.93,30.98,2.85-2.7,1.52-5.8,3.26-8.9,5ZM437.27,521.27c-1.54-1.23-3.08-2.46-4.89-3.9-1.23,2.25-1.73,3.91-2.81,5.01-4.2,4.31-2.32,8.05.68,11.92,5.62,7.24,13.61,10.68,21.88,14.35-2.04-3.89-3.79-7.38-5.68-10.78-2.78-5-5.67-9.94-8.51-14.91,3.87,3.21,8.09,6.07,11.52,9.69,5.57,5.88,10.37,12.5,15.98,18.35,5.11,5.33,10.85,10.04,16.31,15.02.41-.4.82-.79,1.23-1.19-.85-3.09-1.78-6.15-2.54-9.26-.77-3.11-1.38-6.26-2.07-9.39,10.71,13.72,19.42,28.88,37.81,35.15-3.46-7.67-6.5-14.43-9.54-21.19,1.44.23,2.07.85,2.58,1.56,10.98,15.39,26.52,19.11,44.02,16.4,13.5-2.09,21.2-14.8,17.64-27.55-11.95,14.09-25.24,17.28-40.21,8.63-6.13-3.54-11.61-8.49-16.68-13.51-4.71-4.67-8.51-10.25-12.63-15.49-10.08-12.81-23.09-21.12-38.93-24.72-5.37-1.22-11.05-2.22-16.47-1.8-7.99.62-12.65,10.86-8.69,17.6ZM255.38,253.91c.65,1.55,1.25,3.24,2.03,4.84,9.62,19.75,4.8,37.06-8.88,52.89-1.77,2.05-3.95,3.84-5.27,6.14-1.75,3.05-3.81,6.43-4.02,9.77-.5,8.08-4.86,13.2-10.87,17.72-1.33,1-2.54,3.4-2.34,4.97,1.61,12.69.89,25.11-2.06,37.6-1.33,5.66-1.67,11.86-.96,17.63,1.99,16.09,10.61,28.79,23.4,38.13,10.91,7.96,23.57,10.8,37.46,7.75-.88,2.34-1.99,4.45-2.41,6.7-.37,1.96-.64,4.44.23,6.05,4.5,8.34,4.9,17.09,4.05,26.28-1.56,17.04-2.66,34.13-3.9,51.2-.05.72.42,1.48,1.25,4.18,7.4-10.06,14.53-18.45,20.21-27.74,14.25-23.29,31.21-44.16,52.13-61.74,3.6-3.02,7.88-6.32,12.67-3.13,5.56,3.7,10.79,8.15,11.03,15.77-1.58-1.22-2.69-2.79-3.91-4.26-4.09-4.98-8.55-6-14.44-3.37-6.25,2.79-10.51,12.26-8.93,19.82.75,3.61,2.01,5.5,6.6,4.67,12.56-2.27,19.55,1.38,26.34,12.18,2.09,3.32,4.57,6.53,7.42,9.21,9.45,8.9,23.41,7.6,31.38-2.65,3.1-3.99,5.99-8.15,9.27-11.97,3.42-3.98,7.77-6.5,13.27-6.05,6.77.56,8.52-.93,7.98-7.88-.25-3.19-1.04-6.43-2.13-9.44-1.57-4.32-3.91-8.6-9.01-9.13-5.29-.55-7.91,3.47-10.13,7.57-.09.17-.36.24-1.04.66,2.02-5.99,3.81-11.82,9.96-13.75,6.09-1.91,10.35,2.29,13.91,6.4,11.79,13.62,23.89,27.02,34.87,41.29,10.1,13.13,18.9,27.27,28.31,40.94.42.61,1.14,1.01,2.38,2.07,0-3.8.2-6.66-.03-9.48-1.19-14.37-2.56-28.73-3.73-43.1-.54-6.59-.04-13.02,4.46-18.45,2.04-2.46,1.85-4.52-.41-7.03-7.27-8.06-14.27-16.37-19.69-22.63,5.93,2.23,13.72,7.18,21.88,7.86,35.29,2.94,65.2-33.17,56.24-67.45-2.91-11.14-3.25-21.97-1.49-33.18.4-2.53-.65-5.48-1.65-8-2.18-5.5-4.67-10.87-7.18-16.23-2.87-6.14-4.9-13.02-9.04-18.17-11.56-14.38-13.41-30.09-7.91-46.87,2-6.12,3.14-10.83-3.25-14.63-1.17-.69-1.99-2.09-2.77-3.29-7.74-12-19.23-16.48-32.91-15.96-36.72,1.38-69.03,13.07-95.1,40.13-12.18,12.64-14.69,12.46-26.26-.62-12.11-13.69-26.03-24.57-43.58-29.86-13.58-4.09-27.35-8.1-41.33-10.12-15.86-2.29-30.44,1.63-41.09,15.22-2.96,3.77-6.97,6.72-11.01,10.53ZM516.65,751.85c-.19-.97-.49-1.54-.35-1.96.83-2.37,1.65-4.77,2.69-7.05,7.8-17.12,13.51-34.74,11.38-53.87-2.39-21.5-10.75-39.06-31.03-50.11-8.95-4.88-16.32-12.84-23.95-19.89-8.06-7.46-15.36-15.74-23.4-23.23-7.58-7.06-16.83-11.25-27.15-12.3-7.15-.73-14.4-.58-21.61-.73-15.62-.33-29,5.11-39.99,16.14-16.41,16.48-32.79,32.99-48.93,49.74-8.75,9.09-15.22,19.64-17.93,32.22-4.95,22.98,2.27,43.04,14.65,61.91,7.52,11.46,14.94,22.99,22.42,34.48,1.39,2.13,2.89,4.19,4.34,6.29.3-.17.61-.35.91-.52-1.18-3.5-2.36-7-3.55-10.49.44-.21.89-.42,1.33-.63,7.31,15.24,14.62,30.47,21.93,45.71.36-.48.72-.97,1.07-1.45,2.36,0,4.78-.35,7.07.06,10.48,1.88,20.84,3.94,27.49,13.79,1.63,2.42,4.47,4.25,7.11,5.71,9.15,5.04,18.4,9.91,27.75,14.58,3.62,1.81,7.6,2.91,11.41,4.33.21-.39.41-.78.62-1.17-1.96-1.43-3.8-3.05-5.9-4.23-4.71-2.65-9.48-5.21-14.34-7.58-17.65-8.63-29.42-21.9-36.74-40.52-5.89-14.96-14.95-28.68-22.78-42.84-1.57-2.83-3.96-5.21-5.98-7.8,18.98,14.64,33.54,32.64,42.62,55.01.79-2.02,1.17-3.78,1.21-5.54.71-25.9-7.09-48.71-25.44-67.29-9.25-9.36-14.81-20.41-17.06-33.09-.88-4.99-.14-10.27-.14-15.41,5.51,25.29,8.17,29.68,28.94,45.83.85.66,1.61,1.55,2.56,1.97,1.99.88,4.08,1.52,6.13,2.26.05-2.11.57-4.34.09-6.32-3.01-12.24-6.99-24.3-4.7-37.25,2.13-12.04,7.64-22.37,15-31.92.02,2.65-.57,5.05-1.27,7.42-2.11,7.08-4.7,14.06-6.29,21.25-2.8,12.6-2.62,25.12,3.62,36.89.83,1.56,2.88,3.83,3.9,3.6,1.74-.38,3.64-2.18,4.55-3.88,8.18-15.22,10.1-31.03,3.87-47.47-1.02-2.7-1.82-5.48-2.7-8.23-3.64-11.41-5.93-22.98-4.97-35.07.34-4.29-.14-8.65-.2-12.97-.04-3.04-1.69-4.15-4.52-3.97-3.63.24-6.65,1.14-7.84,5.26-1.1,3.8-2.62,7.49-4.07,11.18-2.47,6.27-5.02,12.51-7.54,18.76-.64-.21-1.28-.43-1.93-.64,2.7-9.26,5.39-18.53,8.47-29.09-34.79,14.48-49.35,41.14-52.46,75.81-3.67-18.69-.71-36.08,10.08-51.31,9.58-13.51,20.31-26.23,30.84-39.04,5.32-6.47,12.33-10.72,20.91-11.18,7.18-.39,14.43-.5,21.6,0,7.49.53,13.62,4.29,18.65,9.91,10.33,11.53,20.76,22.95,31.1,34.47,11.85,13.19,18.55,28.28,16.7,46.39-.3,2.95-1.23,5.84-1.86,8.76-5.53-37.51-32.79-73.17-61.72-78.48,5.97,11.45,11.66,22.34,17.34,33.23-.56.29-1.11.59-1.67.88-.95-1.47-1.98-2.88-2.83-4.4-5.25-9.45-10.53-18.9-15.66-28.42-1.86-3.45-4.92-4.57-8.12-3.59-1.2.37-2.01,3.68-2.11,5.69-.41,8.64-.62,17.3-.62,25.96,0,2.96.31,6.15,1.43,8.84,3.19,7.65,6.9,15.07,10.34,22.61,3.79,8.29,5.12,16.98,2.92,25.87-2.29,9.27-5.11,18.4-7.62,27.62-.45,1.67-.49,3.45-.92,6.65,17.43-15.53,33.16-30.04,33.86-54.17.81,5.04,1.11,9.88.75,14.68-.96,13.14-7.43,23.88-15.17,34.09-10.69,14.12-16.03,29.9-14.04,48.45,3.32-17.46,12.04-31.46,22.32-44.67-.37,2.33-1.42,4.31-2.46,6.3-7.69,14.71-13.73,29.84-12.31,46.95.73,8.8,2.46,10.6,12.17,11.4.23-3.21.46-6.42.69-9.63.26-.03.52-.06.78-.09,1.57,3.7,3.15,7.39,4.71,11.07,8.74-3.62,14.86-.95,19.24,6.8,3.34,5.91,7.38,11.53,11.76,16.73,4.6,5.45,11.07,8.16,18.07,9.53-2.76-2.11-5.94-3.52-8.87-5.32-17.9-10.99-24.51-34.58-14.76-56.03,3.91-8.6,9.58-16.52,15.26-24.15,10.67-14.35,19.5-29.46,23.18-47.19.43-2.07,1.46-4.01,2.2-6.01.56.16,1.12.32,1.68.47-.8,6.39-.91,12.96-2.55,19.12-3.05,11.48-7.48,22.6-10.39,34.1-2.15,8.47-2.9,17.31-4.06,26.01-.47,3.49.81,5.68,4.95,4.54,1.03-.28,2.21-.03,3.22-.35,5.44-1.72,8.66.26,11.24,5.31,3.59,7.04,13.03,12.4,21.05,12.91-9.42-8.19-12.57-14.41-10.73-24.3,1.1-5.92,2.99-11.94,5.79-17.26,4.35-8.28,9.85-15.95,14.74-23.95,16.96-27.77,15.5-69.52-4.75-93.8-8.43-10.11-19.52-18.05-29.72-26.6-2.99-2.51-7.07-3.73-11.04-5.73-.32,2.47-.55,4.28-.9,6.99-2.66-10.03-5.07-19.11-7.48-28.19-.57-.08-1.15-.16-1.72-.24-1.93,4.37-4.56,8.57-5.67,13.14-4.13,17.02,3.92,31.28,21.53,39.54,3.87,1.82,8,3.71,11.04,6.6,15.51,14.72,22.27,32.81,19.88,54.23-2.05,18.37-10.48,34.35-18.66,50.43-.37.73-1.15,1.26-2,2.16ZM461.2,50.96c.5.08,1,.16,1.49.25,0,4.62.34,9.27-.07,13.85-1.07,12.11-8.15,21.75-13.43,32.18-3.12,6.16-5.59,12.9-6.87,19.67-1.26,6.63.76,8.21,7.48,8.85,3.41.32,6.85.76,10.25.61,3.43-.15,7.32-.1,10.16-1.67,5.79-3.19,10.87-7.64,16.5-11.15,8.55-5.33,17.59-9.93,25.94-15.55,7.71-5.2,9.95-13.3,7.79-22.05-5.11-20.74-21.85-30.41-37.97-40.18,4.16,7.87,9.18,15.37,12.19,23.6,3.51,9.63-.16,20.89-6.22,24.31,7.17-29.68-8.96-53.75-37.57-55.76-38.09-13.46-71.37-13.2-82.8-1.23-3.83,4.01-7.16,9.5-7.16,9.5-5.82,9.12-10.17,18.67-8.25,30.01,1.57,9.25,7.54,15.64,13.21,22.49,5.22,6.31,9.58,13.36,14.07,20.25,1.29,1.98,1.71,4.52,2.73,7.36,12.38-13.05-.44-20.07-5.84-28.67.44-.31.89-.61,1.33-.92,4.92,6.39,9.84,12.78,15.07,19.56,2.83-3.32,6.03-7.39,9.57-11.13,2.62-2.76,1.95-4.89-.23-7.4-3.25-3.76-6.29-7.69-9.42-11.54.41-.33.81-.67,1.22-1,7.34,9.07,14.69,18.14,22.77,28.11,5.82-18.8,17.04-35.81,6-55.88.79-.1,1.57-.2,2.36-.3,2.39,7.85,4.78,15.69,7.29,23.95,4.67-8.62,3.49-17.8,3.84-26.74,4.99,13.07,1.97,24.94-4.99,36.42-3.44,5.67-6.54,11.6-9.18,17.67-2.93,6.75-.37,14.12,5.67,18.41,3.68,2.61,5.33,1.59,6.83-2.48,2.78-7.51,4.99-15.75,9.73-21.92,9.55-12.43,16.14-25.55,16.52-41.48ZM228.96,88.12c.44.5.88.99,1.32,1.49,6.11-4.09,12.03-8.53,18.4-12.17,6.26-3.58,12.99-6.35,19.51-9.48.25.49.49.98.74,1.48-2.58,1.62-5.32,3.04-7.71,4.9-7.8,6.09-15.5,12.29-23.15,18.56-1.87,1.53-2.46,3.07-1.13,5.98,2.64,5.78,5.13,11.94,5.9,18.17,1.01,8.21,4.35,14.73,9.88,20.47,3.86,4.01,8.23,4.62,13.8,1.8-6.38-5.37-12.5-10.53-14.55-19.18,4.96,4.06,9.54,7.54,13.82,11.35,8.65,7.69,17.59,2.78,27.68,1.55-17.15-12.2-25.09-27.3-21.17-47.28,2.77-14.12,14.11-28.31,25.5-31.92-1.79,1.92-3.11,3.33-4.42,4.75-6.85,7.37-12.39,15.56-14.68,25.48-1.64,7.07-2.9,14.48,1.24,21.07,8.25,13.11,22.19,18.2,35.79,22.49,6.96,2.19,15.22.31,22.89.12,1.86-.05,3.71-.67,6.26-1.16-11.57-13.3-29.96-20.58-30.75-41.68,7.67,18.93,10.43,20.95,26.08,28.46,3.7,1.77,7.93,3.61,10.31,6.67,4.09,5.23,9,5.79,14.8,5.46,7.68-.43,9.77-2.75,8.62-10.45-.26-1.77-.63-3.65-1.49-5.17-4.23-7.51-8.07-15.32-13.1-22.27-10.62-14.68-12.6-30.24-6.76-47.11.5-1.44.86-2.92,1.5-5.16-16.94,8.83-31.44,18.49-33.73,38.99-.61-3.26-1.15-6.49-.52-9.47,2.65-12.63,9.81-22.24,20.51-29.35,5.4-3.59,10.79-7.22,15.96-11.13,2.07-1.56,3.54-3.93,5.21-5.85-12.77,3.14-25.18,5.4-37.03,9.35-10.86,3.62-21.66,8.13-31.48,13.95-13.92,8.25-27.08,17.84-40.25,27.29-8.24,5.92-15.9,12.65-23.81,19.02ZM241.85,530.02c2.37-3.05,4.27-5.92,6.58-8.4,5.98-6.42,6.31-8.05,2.15-16.21-1.21,1.87-2.34,3.61-3.46,5.34-.15-.08-.3-.16-.45-.24,1.15-4.1,2.3-8.2,3.45-12.31-.34-.11-.68-.22-1.02-.33-2.83,3.35-5.65,6.7-9.36,11.09,1.39-9.36,3.92-17.16.74-26.47-4.56,5.36-8.41,9.9-12.27,14.44,2.73-14.58,4.01-28.82,1.18-44.63-3.91,6.64-7.06,11.99-10.13,17.2v-36.19c-4.75,5.64-7.93,11.07-8.17,17.94-.17,4.86-.81,9.71-1.01,14.58-1.4,33.78-15.07,61.12-42.19,81.67-9.5,7.2-18.16,15.34-24.29,25.86-11.24,19.27-9.42,43.69,4.72,60.23,1.96,2.29,3.59,4.36,7.19,2.24,1.11-.65,3.63.48,5.17,1.37,1.69.98,3.01,2.61,4.64,4.1-3.24-7.23-6.8-13.76-9.14-20.7-4.64-13.74-4.57-27.59,3.42-40.13,3.71-5.81,8.96-10.78,14.07-15.53,16.48-15.31,31.3-31.92,42.48-51.57,1.08-1.9,2.51-3.61,3.78-5.4-3.64,21.71-14.03,39.26-31.09,52.72-.94.75-2.64.51-3.97.81-1.86.41-4.39.26-5.44,1.43-12.72,14.08-19.7,30.23-15.64,49.5,1.04,4.95,4.11,9.47,6.24,14.18.83.1,1.66.2,2.49.3-3.84-8.44,2.45-7.63,6.47-8.66-.38-1.29-.57-2.18-.91-3.01-6.73-16.28-4.26-31.13,7.28-44.33,7.35-8.41,15.09-16.48,22.6-24.75,1.94-2.13,3.65-4.47,5.47-6.71-.7,4.18-2.51,7.65-4.05,11.23-3.71,8.6-7.78,17.08-10.79,25.92-3.55,10.46-3.76,21.29-.17,31.89.5,1.46,3.14,3.57,4.11,3.26,4-1.29,7.74-3.4,11.44-5.14-3.9-12.78-6.38-24.71.48-36.47-1.42,10.29.8,19.42,6.81,27.9,3.28-4.27,6.12-7.97,9.15-11.92-10-16.79-8.76-34.46.57-52.09,3-5.68,5.2-6.38,10.89-4.01ZM608.36,623.21c1.13-3.74,2.31-6.71,2.93-9.8,2.32-11.58,1.67-23.08-2.72-34.04-3.75-9.35-8.25-18.4-12.4-27.59-1.93-4.27-3.97-8.5-5.72-12.84-1.72-4.28-3.14-8.69-4.46-12.41,8.26,14.39,16.26,29.53,25.4,43.97,12.76,20.16,14.31,40.67,4.52,62.26-.6,1.33-1.23,3.6-.58,4.39,3.5,4.22,7.4,8.1,11.32,12.27,1.08-1.34,1.65-1.83,1.96-2.45,11.44-23.13,14.58-46.9,3.39-70.86-5-10.7-11.66-20.71-18.27-30.57-10.94-16.31-18.07-34.05-21.31-53.3-1.29-7.64-1.35-15.49-1.96-23.24,3.57,1.07,6.23,1.86,8.88,2.66.35-.43.71-.86,1.06-1.29-6.43-6.64-6.63-14.66-5.85-22.88.39-4.13.79-8.25,1.32-12.36,1.26-9.74-1.58-18.59-6.03-27.21-.55,10.28-1.11,20.56-1.7,31.65-2.31-2.65-4.1-4.7-6.82-7.82,0,3.99-.06,6.59.02,9.2.08,2.48.64,4.99.39,7.43-.45,4.4-1.73,8.74-1.98,13.14-.35,6.34-.09,12.71-.09,19.07-.27.05-.55.1-.82.16-1.74-8.45-3.48-16.9-5.22-25.35-7.08,17.2-5.3,34.71-2.45,52.28-.44.03-.88.06-1.31.09-2.78-4.91-5.57-9.82-8.35-14.73-.46,7.95-.05,15.63.58,23.28.08.99,1.2,2.09,2.11,2.77,19.46,14.64,24.61,47.05,10.47,66.82-2.05,2.86-4.67,5.3-7.56,8.53,4.28,1.36,8.18,2.35,11.89,3.84,4.03,1.61,6.09-.34,6.44-3.76.84-8.16,1.22-16.38,1.62-24.58.09-1.76-.53-3.56-.77-5.34-.23-1.73-.4-3.47-.59-5.21,8.31,14.82,11.95,29.94,4.89,46.12-.7,1.6-.79,4.83.17,5.57,5.38,4.15,11.16,7.77,17.65,12.13ZM659.96,207.61c-7.52-6.79-13.01-13.76-16.96-19.72.28.72,2.49,6.71-1,12.54-3.01,5.03-8.1,6.3-9.03,6.52,8.26,10.88,16.52,21.77,24.78,32.65.66.17,1.33.35,1.99.52,2.49-5.62,5.03-11.22,7.46-16.86,1.07-2.48,1.95-5.05,2.91-7.58-3.24-2.25-6.67-4.91-10.16-8.06ZM152.23,200.68c.27-7.77-1.9-9.21-2.66-9.56-2.9-1.34-8.06,2.53-15.66,8.24-.44.33-1.8,1.36-3.71,2.68-3.04,2.1-3.81,1.96-4.74,3.09-1.71,2.09-2.18,5.82-.69,7.16,1.7,1.52,4.63-1.24,7.5.41,1.63.94,2.38,2.67,2.97,4.99.71,2.77.6,5.73,1.13,8.56.99,5.3,2.77,10.26,7.3,14.78,2.96-13.95,5.72-26.98,8.55-40.36ZM375.51,191.47c2.22,3.4,5.03,7.32,7.42,11.48,6.01,10.47,11.48,21.26,17.82,31.52,4.42,7.15,6.6,6.84,10.69-.63,5.27-9.65,10-19.6,15.42-29.16,5.32-9.37,12.04-17.33,22.61-21.53,6.58-2.61,7.3-7.81,2.63-13.37-4.4-5.25-9.71-9.89-13.29-15.64-10.05-16.17-19.41-32.78-29.06-49.21-1.13-1.93-2.33-3.82-3.82-6.25-1.57,2.12-2.65,3.52-3.66,4.96-5.51,7.81-10.91,15.7-16.61,23.37-1.1,1.48-3.31,2.84-5.12,2.99-23.33,2.01-46.77,3.06-70,5.83-26.75,3.19-52.98,9.23-77.47,20.96-5.62,2.69-10.43,7.05-15.62,10.65.24.26.47.51.71.77,25.36-7.49,50.72-14.99,77.4-22.87-.97,4.5-1.58,7.08-2.09,9.68-2.69,13.76,2.23,27.11,12.51,33.99,13.99,9.37,30.35,1.43,31.49-15.29.35-5.07.08-10.12-5.44-12.36-5.51-2.24-11.05-1.75-15.81,2.14-2.98,2.44-4.83,5.75-2.82,9.54,2.08,3.93,5.73,4.86,9.06,4.21-1.74-1.99-4.27-3.75-4.93-6.05-.45-1.57,1.63-5.52,2.71-5.57,2.95-.14,6.55.44,8.84,2.15,5.24,3.92,5.12,11.7.41,16.25-6.11,5.91-14.53,6.25-19.31.77,11.7,3.96,20.45.29,19.59-8.55-.92,1.05-1.61,2.05-2.5,2.82-5.01,4.38-14.42,3.97-18.85-.77-3.99-4.27-3.27-10.41,2.28-15.8,2.42-2.35,5.24-4.51,8.26-5.99,9.65-4.76,21.26,1.95,21.65,12.67.38,10.39-2.86,19.39-13.09,25.5,8.85-2.57,15.56-10.4,16.22-18.3.33-3.95.16-7.96.75-11.87.24-1.57,2.33-4.33,2.85-4.17,7.76,2.37,8.42-5.21,13.61-8.15-11.52-2.04-21.63,5.39-32.81-.44,13.39-1.64,25.71-3.15,38.03-4.65-.09-.7-.17-1.39-.26-2.09-15.5,1.37-31.1,2.06-46.48,4.3-13.63,1.99-15.6,4.94-18.22,18.86-.15.81-.38,1.61-.57,2.41-.55-.08-1.1-.15-1.64-.23.85-7.82,1.7-15.65,2.72-25.05,24.65-2.74,49.72-5.52,75.71-8.41-2.25,3.12-4.04,5.76-5.99,8.29-6.93,9-14.19,17.76-20.78,27-3.97,5.56-2.84,7.28,3.45,9.87,5.46,2.24,11.06,4.51,15.88,7.82,4.61,3.16,3.26,8.88-1.94,11.08-7.04,2.98-15.91-2.04-17.41-9.57-.55-2.76-2.05-5.32-3.61-9.23-3.12,11.31,2.21,20.28,12.25,23.16,5.06,1.45,10.17,1.32,13.31-3.08,1.94-2.71,1.93-6.81,2.93-10.78ZM325.31,587.28c-4.29,2.26-7.73,3.56-10.51,5.72-1.82,1.42-3.86,4.14-3.76,6.19.95,20.61-8.44,37.24-19.81,53.17-.5.71-1.33,1.18-2.73,2.4,3-14.19,12.36-25.2,13.28-38.74-6.21,6.49-11.92,13.22-18.41,19.1-18.24,16.53-25.43,37.59-23.81,61.29,1.76,25.63,14.4,46.77,30.96,65.91,7.39,8.54,13.77,17.96,20.67,26.92.78,1.01,2.2,2.56,2.97,2.38,7-1.67,9.29,3,11.38,8.04,1.89,4.57,3.71,9.17,5.56,13.76.61-.19,1.21-.37,1.82-.56-1.97-6.78-2.9-14.12-6.16-20.21-5.33-9.96-11.79-19.39-18.48-28.52-16.71-22.84-24.25-48.09-21.39-76.32,1.86-18.38,11.11-32.12,25.68-43.28,14.82-11.35,20.43-27.05,17.2-45.51-.71-4.04-2.92-7.82-4.46-11.75ZM297.08,584.46c6.56-4.82,12.72-8.77,18.2-13.52,5.71-4.94,10.97-10.46,16.05-16.06,4.78-5.28,9.07-11.01,13.58-16.54.31.26.62.51.93.77-2.32,6.73-4.64,13.47-7.49,21.73,12.84-10.48,19.38-24.13,28.57-35.55.39.23.78.47,1.17.7-2.42,6.96-4.83,13.93-7.77,22.38,9.86-3.55,18.75-6.36,27.26-10.04,3.09-1.34,5.5-4.58,7.83-7.29,2.48-2.88,2.16-5.48-1.65-7.32-3.7-1.78-7.05-1.77-9.77,1.46-4.4,5.23-8.46,10.76-12.96,15.91-1.76,2.01-4.33,3.3-6.54,4.93-.63-.73-1.25-1.46-1.88-2.18,6.33-6.5,12.57-13.08,19.04-19.45,2.84-2.79,3.98-9.01,1.47-12.02-3.82-4.57-8.43-7.91-14.74-7.94-16.43-.06-32.74,1.07-46.23,11.78-7.98,6.33-15.25,13.59-22.45,20.83-6.34,6.37-11.54,13.99-18.32,19.79-9.09,7.78-20.24,10-32.02,7.25-9.17-2.14-12.07-9.64-14.29-18.67-2.43,7.23-4.34,13.6-.62,19.7,5.34,8.75,13.11,14.73,23.58,15.29,19.36,1.04,35.72-5.56,48.08-20.94,1.24-1.54,2.42-3.13,3.62-4.7.57.36,1.13.71,1.7,1.07-4.53,9.03-9.05,18.07-14.34,28.62ZM589.64,90.87c-.05-.42.03-.85-.14-1.08-17.42-22.85-39.47-39.36-66.84-48.43-8.38-2.78-17.07-3.04-26.98-1.98,2.19,1.55,3.46,2.24,4.47,3.19,6.54,6.12,14.09,11.52,19.3,18.64,10.6,14.5,7.47,32.6-6.46,43.81-6.18,4.97-12.73,9.47-19,14.32-2.76,2.13-5.26,4.6-8.09,7.11,1.21.85,1.6,1.25,2.06,1.42.85.29,1.74.44,2.62.65,11.56,2.76,22.29-.46,32.43-5.38,15.19-7.38,20.52-20.93,15.34-37.04-.61-1.89-1.34-3.73-2.04-5.58-.68-1.79-1.41-3.57-2.11-5.36,6.83,6.5,10.33,14.43,11.45,23.45,1.91,15.32-7.11,25.62-17.34,35.46,11.08,3.61,29.53-5.07,34.4-16.32,3.41-7.89,6.85-15.46,15.48-21.11-10.43-10.76-20.32-20.96-30.25-31.19,12.71,5.91,23.43,14.62,33.74,23.87,2.44,2.19,4.74,3.96,7.96,1.54ZM540.77,609.66c1.68,2.21,2.69,4.17,4.25,5.48,6.75,5.66,13.3,11.64,20.57,16.56,23.7,16.07,39.24,37.92,47.15,65.22,4.63,15.97,4.01,32.04-.62,48.03-.44,1.53.19,4.69,1.16,5.11,8.29,3.53,13.25.49,15.25-8.25,5.72-25.02-.2-47.85-12.62-69.53-.87-1.52-1.7-3.06-2.55-4.6,18.69,20.9,29.34,55.54,12.35,88.06-.79,1.52-.29,3.72-.39,5.6,1.8-.97,4.27-1.49,5.3-2.99,9.25-13.59,11.68-29.03,10.52-44.94-2.5-34.18-17.37-62.44-44.16-83.5-12.05-9.47-26.28-16.19-39.56-24.09-.64-.38-1.75-.27-2.55-.06-4.33,1.14-8.64,2.38-14.09,3.9ZM652.45,416.51c-.63-.05-1.26-.09-1.89-.14-1.52,8.96-3.36,17.89-4.5,26.9-4.22,33.35,9.93,59.91,39.78,75.31,6.73,3.47,13.43,6.99,20.05,10.66,11.35,6.29,20.46,15,25.75,26.88,3.72,8.36,6.17,17.28,8.77,24.78-.96-19.99-8.45-38.42-25.31-52-7.08-5.7-15.52-9.72-23.31-14.55-3.24-2.01-6.38-4.18-9.57-6.28,1.08-.99,1.65-1.14,2.09-.97,4.53,1.78,9.08,3.5,13.54,5.44,22.39,9.75,37.94,25.81,45.1,49.43,3.18,10.48,3.79,20.9-1.97,30.89-.8,1.38-1.04,3.09-1.83,5.53,7.89-5.04,12.71-14.31,14.19-25.58,3.5-26.69-12.5-65.78-45.92-77.69-6.44-2.3-12.9-4.62-19.48-6.48-15.42-4.35-25.95-13.91-30.82-29.13-2.18-6.81-3.76-13.93-4.51-21.03-.76-7.25-.17-14.65-.17-21.99ZM168.91,228.78c2.37,10.43,12.8,15.68,23.6,11.99,4.4-1.5,8.44-4.03,12.67-6.04,11.69-5.55,23.12-11.77,35.15-16.44,15.83-6.15,32.24-10.8,49.5-10.29,43.64,1.28,81.35,16.24,111.06,49.05,3.33,3.67,5.78,3.97,9.12.14,17.96-20.62,40.83-33.3,66.64-41.44,36.88-11.63,72.57-9.6,106.99,8.48,7.17,3.77,14,8.18,20.94,12.38,6.42,3.89,13.19,5.77,20.68,4,5.97-1.41,10.39-5.72,11.53-11.59-14.37,6.77-26.64,2.33-39.49-4.88-12.63-7.09-26.26-12.89-40.09-17.25-29.86-9.42-59.87-5.73-88.85,3.87-21.31,7.06-40.52,18.76-56.87,34.59-5.12,4.95-6.57,4.8-11.48-.28-4.13-4.26-7.92-9.16-12.8-12.32-16.82-10.88-34.15-20.75-54.1-25.17-25.44-5.63-51.28-9.51-76.56-2.31-18.74,5.34-36.55,14.26-54.35,22.51-11.09,5.14-21.64,6.18-33.3.98ZM62.68,598.17c-.56-5.34-1.58-9.79-1.39-14.19.99-22.4,10.51-40.28,29.59-52.37,9.73-6.16,19.95-11.59,30.14-16.98,35.28-18.66,41.83-65.62,31.17-95.79-.64,8.35-.92,15.85-1.86,23.28-2.36,18.76-10.37,34.09-27.93,42.89-4.95,2.48-10.36,4.23-15.74,5.64-25.75,6.78-44.47,21.65-54.26,46.78-5.91,15.16-8.12,30.68-2.34,46.46,2.2,6,5.66,11.15,12.63,14.27ZM278.69,761.84c-1.1-2.47-1.63-3.91-2.36-5.24-3.9-7.11-8.11-14.06-11.74-21.3-19.9-39.78-10.19-78,17.01-102.26,4.62-4.12,8.19-9.57,11.6-14.83,1.42-2.19,1.14-5.49,1.63-8.28-3.8-.16-7.62-.59-11.39-.35-1.36.09-2.66,1.74-3.92,2.75-4.08,3.26-8.25,6.43-12.18,9.86-24.37,21.25-36.81,47.56-33.79,80.34,1.87,20.31,10.99,37.51,23.08,53.37,5.99,7.86,12.35,15.44,18.54,23.15.29-.19.58-.37.87-.56-3.44-6.35-6.87-12.7-10.31-19.05.37-.5.74-1,1.11-1.5,3.56,1.17,7.12,2.34,11.85,3.89ZM127.77,240.82c.29,5.45-.04,11.02.99,16.32,3.73,19.13,14.29,33.43,33.16,39.19,19.44,5.94,37.74,3.18,51.39-13.8,6.92-8.6,14.97-15.53,24.81-20.48,1.71-.86,3.19-2.18,4.78-3.28-3.26-.74-5.94-.56-8.61-.29-10.91,1.11-20.13,4.94-26.09,14.95-2.37,3.99-5.64,7.48-8.77,10.96-1.4,1.55-3.45,2.51-5.2,3.74,3.47-6.96,7.73-12.99,11.23-19.44,7.17-13.19,16.57-23.39,31.72-27.43,4.16-1.11,7.86-3.97,11.77-6.03-.23-.5-.46-1-.69-1.5-4.81-.35-9.63-.55-14.42-1.09-6.68-.76-12.42,1.09-17.55,5.38-3.59,3-7.18,6.1-11.13,8.56-12.12,7.56-29.3,10.86-41.64-4.95-.4-.52-1.03-.85-2.4-1.95,1.32,11.42,5.86,19.48,17.08,24.65-12.96,1.04-21.67-5.53-31.19-10.09,4.45,9.55,12.91,13.36,22.26,15.66,9.54,2.35,18.9.74,29.13-2.95-22.95,20.85-54.29,17-70.64-26.15ZM567.31,256.83c15.44,5.29,22.63,18.65,32,29.99,3.66,4.43,9.61,7.76,15.17,9.7,23.97,8.34,48.9-4.53,58.79-29.62,3.52-8.92,4.29-17.98,2.38-27.5-.56.28-.78.31-.82.42-.42,1.18-.82,2.36-1.22,3.54-3.99,12.01-11.06,21.83-21.32,29.2-8.62,6.2-18.2,8.5-28.69,5.77-6.47-1.68-10.66-4.9-12.41-9.43,22.76,3.15,40.74-2.87,44.09-15.47-5.08,2.6-9.56,5.22-14.31,7.22-4.54,1.91-9.35,3.16-14.04,4.71-.15-.51-.3-1.01-.44-1.52,12.06-6.98,17.73-15.38,15.95-23.65-10.69,11.44-22.33,15.19-34.25,9.94-4.96-2.19-9.34-6.02-13.5-9.67-6.81-5.97-14.53-8.78-23.39-7.45-3.34.5-6.44,2.53-9.65,3.86-.04.9-.08,1.81-.12,2.71,17.18-2.98,27.21,7.5,38.67,18.93-11.67-3.59-21.91-6.06-32.89-1.67ZM591.2,731.56c.6.12,1.19.23,1.79.35,1.84-5.95,4.49-11.78,5.38-17.87,4.8-32.87-8.96-58.38-33.49-78.56-10.92-8.98-24.1-15.17-33.67-26.01-.24-.27-.5-.63-.8-.7-.96-.24-2.27-.81-2.82-.4-.58.43-.88,2.06-.52,2.77,1.3,2.55,2.68,5.15,4.5,7.34,4.95,5.96,10.43,11.5,15.2,17.6,26.97,34.52,36.15,72.3,20.58,114.53-.63,1.71-.2,3.82-.27,5.74,1.83-.95,4.29-1.42,5.4-2.91,16.51-22.12,21.97-46.58,14.98-73.52-1.22-4.69-2.61-9.34-3.93-14,13.51,20.59,15.25,42.6,7.67,65.66ZM667.89,659.81c6.5-4.08,10.42-8.39,12.79-14.61,13.33-35.1,2.78-72.88-28.58-95.67-20.81-15.13-36.8-33.23-44.81-57.92-.48-1.48-1.46-2.8-2.2-4.2-1.28,2.57-1.51,4.69-1.25,6.75,2.88,22.53,11,42.47,28.54,57.79,4.21,3.68,8.35,7.45,12.28,11.42,12.62,12.74,21.05,27.77,24.52,45.47,3.27,16.66,3.23,33.27-1.28,50.96ZM577.98,125.93c-6.85,1.09-7.61,2.49-5.58,8.98,5.71,18.29,20.66,27.31,36.24,35.81-11.5-11.96-26.18-21.28-31.11-38.88,4.97,6.98,11.09,9.37,18.91,5.81M180.76,170.62c3.94,2.44,12.58-4.58,29-17.91,8.63-7.01,15.24-13.39,19.61-17.86-6.7,19.1-24.75,27.54-36.92,41.42,9.65-6.32,18.81-13.2,27.74-20.35,10.38-8.31,17.17-16.88,15.18-24.43-1.97-7.46-12.46-11.47-19.7-12.13-8.11-.74-14.32,2.52-16.14,3.51-19.78,10.72-25.52,43.58-18.76,47.76ZM668.03,295.03c-1.64,1.8-2.6,2.8-3.5,3.86-15.25,17.96-39.53,19.94-57.1,4.25-4.65-4.15-8.56-9.23-12.29-14.26-5.15-6.95-11.9-10.9-20.27-12.14-2.38-.35-4.91.3-8.15.56,5.91,4.17,11.74,6.73,15.16,11.15,3.36,4.34,4.28,10.57,6.27,15.98-.37.16-.75.32-1.12.48-.71-.85-1.42-1.7-3.16-3.76.24,3.86.03,6.38.6,8.7,3.57,14.41,12.48,23.9,26.48,28.98,4.76,1.73,7.46.47,9.92-4.33-3.78-2.18-7.58-4.15-11.13-6.48-3.43-2.25-6.62-4.88-9.92-7.35.21-.4.43-.81.64-1.21,12.74,8.61,26.75,9.5,40.98,6.25,15.51-3.54,26.46-16.26,26.57-30.66ZM246.47,606.34c-7.25,2.66-13.69,5.42-20.37,7.4-31.29,9.28-53.72,41.14-51.43,73.57.28,4.01,1.23,7.98,1.98,12.62,6.76-4.94,8.64,1.54,12.45,4.38-.25-2.64-.49-4.6-.62-6.57-1.25-18.35,2.87-34.87,15.32-49.12,9-10.3,20.2-17.23,31.98-23.58,4.53-2.44,8.89-5.21,13.17-7.74-.91-2.51-1.7-4.14-2.06-5.86-.36-1.7-.3-3.5-.41-5.11ZM218.56,710.56c.29-.04.59-.07.88-.11-.19-2.13-.42-4.27-.55-6.4-1.26-21.77,2.53-42.07,17.83-58.77,7.05-7.69,14.52-15,21.64-22.63,3.79-4.06,7.22-8.45,10.81-12.69-8.97,4.06-17.06,8.73-24.87,13.82-6.62,4.32-13.32,8.67-19.32,13.78-30.67,26.1-30.06,66.36-12.03,92.04-.39-1.36-.56-2.01-.76-2.65-1.63-5.34-3.34-10.65-4.86-16.02-.81-2.89-1.17-6.42,2.51-7.08,1.9-.34,4.43,1.75,6.39,3.14,1.08.76,1.57,2.36,2.32,3.58ZM218.94,303.55c-.32-.27-.64-.55-.96-.82,3.41-5.02,6.11-10.82,10.45-14.85,4.38-4.08,10.39-6.41,17.21-10.4-3.23-.46-4.87-1.02-6.43-.86-11.92,1.2-21.97,5.83-30.16,15-5.35,5.98-11.31,11.81-18.01,16.1-18.03,11.55-37.59,7.74-50.89-8.95-.93-1.17-2.01-2.21-3.97-4.36.51,12.83,5.4,21.49,15.09,27.33,23.54,14.18,54.52,5.18,69.75-17.87.12-.19-.09-.59-.16-.99-.65.23-1.28.45-1.9.68ZM346.54,563.08c.14.63.28,1.26.42,1.88,21.88,13.09,97.28,11.05,111.55-3.22-4.38-1.38-8.63-2.79-12.92-4.07-10.95-3.27-21.75-4.52-32.73.58-2.89,1.34-7.32,1.23-10.35.03-9.78-3.86-19.76-4.49-29.76-2.5-8.87,1.77-17.49,4.81-26.22,7.29ZM549.49,473.68c-.52.42-1.97,1.38-3.2,2.57-16.92,16.44-22.49,50.9-11.66,72.04,2.64,5.15,9.45,8.57,15.04,6.71,2.83-.94,5.11-3.52,7.64-5.35-1.65-1.67-3.12-3.58-4.97-4.98-8.45-6.38-8.6-20.05.25-24.57,4.2-2.15,5.37-4.82,4.81-8.91-.42-3.02-.99-6.02-1.63-9-2.03-9.39-4.12-18.76-6.27-28.53ZM148.41,553.78c-20.87,3.46-38.35,30.22-39.28,52.86-.94,23.05,15.65,50.44,33.69,55.63-.46-4.96,1.3-6.47,6.1-5.04,4.87,1.44,9.69,3.03,14.53,4.55-4.71-4.01-10.04-6.69-14.57-10.37-4.72-3.83-9.02-8.33-12.89-13.03-20.52-24.95-18.7-55.15,4.5-77.61,2.53-2.44,5.27-4.67,7.91-6.99ZM606.25,444.55c-2.22,3.88-5.32,8.07-7.11,12.76-1.75,4.57.9,7.91,5.31,9.76,4.31,1.81,8.3,1.95,10.3-3.09,1.91-4.8,3.9-9.72,4.74-14.78,1.26-7.56,3.75-14.1,9.5-19.43,2.73-2.53,5.03-5.71,6.87-8.96,12.21-21.53,14.51-44.57,9.83-68.54-.41-2.12-.36-6.12-4.1-4.61-1.61.65-3.04,4.12-2.94,6.23.42,8.97,2.27,17.93,2,26.85-.25,8.66-2.44,17.27-3.79,25.9-2.31-17.45-3.51-22.15-8.18-26.59-2.93,3.67-5.86,7.32-9.09,11.36.94,1.37,2.3,3.26,3.56,5.22,5.65,8.75,4.46,19.01-1.04,27.3-3.61,5.45-4.9,12.43-7.27,18.71-.73,1.93-1.59,3.81-2.39,5.71-1.72-1.05-3.45-2.1-6.21-3.79ZM258,474.35v39.31c5.17,1.53,8.51,7.27,7.86,15.94-.31,4.18-1.14,8.98-3.52,12.16-2.37,3.17-6.97,4.68-10.46,6.84.48,1.22,1.26,3.23,2.03,5.2,1.91,0,3.87-.24,5.74.04,11.26,1.71,17.79-3.27,18.15-14.63.34-10.79.39-21.61-.08-32.39-.23-5.32-1.43-10.73-3.08-15.81-2.58-7.92-8.46-12.98-16.64-16.67ZM593.16,346.26l-1.82-.05c-8.96,20.52-6.02,39.95,7.72,58.39-.56.15-1.12.3-1.68.45-2.08-1.7-4.16-3.4-6.24-5.1l-1.81.82c10.28,10.41,11.22,23.59,12.31,37,2.45-3.2,4.35-6.28,5.27-9.63,2.81-10.3,4.12-20.52-2.81-30.07-1.45-2-1.65-4.91-2.5-7.64,2.12-.37,3.45-.6,5.51-.96-9.66-13.83.49-27.14.12-40.94-2.61-.25-5.11-.35-7.57-.75-3.95-.65-5.57.85-5.71,4.89-.19,5.38-.87,10.74-1.33,16.11-.16,0-.31-.02-.47-.03.34-7.5.67-14.99,1.01-22.49ZM146.51,342.92l-.63-.82c-1.71.88-3.78,1.41-5.06,2.71-5.51,5.61-11.15,11.16-16.07,17.27-5.41,6.71-9.85,14.19-15.12,21.03-6.98,9.06-15.82,16.05-26.04,21.36,15.47-2,30.13-5.77,41.81-16.86,6.13-5.83,12.09-11.86,18.45-17.43,5.62-4.92,4.77-11.22,5.72-18.87-6.9,5.39-12.49,9.76-18.08,14.13-.35-.26-.7-.52-1.06-.78,5.36-7.24,10.72-14.49,16.08-21.73ZM207.49,357.84q-4.28-7.42-8.46-7.34c.51,1.2,1.11,2.33,1.49,3.52,4.93,15.52,10.55,31.05-.62,46.4-1.03,1.41-1.95,3.33-1.91,5,.12,5.07.05,10.33,1.36,15.15,1.38,5.08,4.17,9.81,6.56,14.57.94,1.87,2.48,3.45,3.74,5.16.59-.19,1.17-.38,1.76-.58.87-12.41,1.73-24.81,2.61-37.34-3.56,4.09-7.39,8.48-11.46,13.14-.41-6.54,2.29-11.68,5.87-16.46,9.31-12.43,12.85-26.11,8.74-41.31-.91-3.38-1.01-8.65-6.1-7.79-1.69.29-2.54,5.44-3.57,7.88ZM723.04,405.81c-6.53-5.17-14.41-10.3-20.87-16.83-5.75-5.82-10.12-13.06-14.75-19.91-6.09-9.02-12.58-17.6-21.98-23.47-1.71-1.07-3.64-1.76-5.47-2.63-.14.25-.29.51-.43.76,4.49,5.66,8.97,11.32,13.46,16.98-2.08.02-3.25-.77-4.28-1.7-2.74-2.49-5.52-2.66-7.99.16-2.68,3.06.21,4.85,1.98,6.74,5.05,5.38,10.29,10.59,15.23,16.08,12.51,13.89,28.35,21.1,45.1,23.83ZM167.47,346.65c-.65,0-1.31.02-1.96.03-.97,2.28-2.25,4.49-2.86,6.86-6.28,24.71-.52,47.86,9.46,70.38,1.05,2.37,3.23,4.29,5.05,6.27,4.51,4.92,7.53,10.3,7.91,17.27.24,4.41,1.58,8.88,3.11,13.07.87,2.38,2.76,4.73,4.82,6.26,4.18,3.11,10.24.86,10.88-3.86.22-1.6-.51-3.49-1.24-5.04-2.43-5.19-4.97-10.35-7.68-15.41-.88-1.65-2.15-3.79-3.69-4.27-10.65-3.3-15.12-11.98-18.2-21.3-6.64-20.11-9.96-40.58-4.64-61.71.66-2.6-.6-5.69-.97-8.55ZM542.09,161.38c4.03,2.21,6.65,4.08,9.57,5.13,2.88,1.04,6.06,1.25,9.11,1.83.17-.91.34-1.82.5-2.73-15.9-4.31-31.8-8.61-47.43-12.85,0,10.42.1,19.41-.04,28.4-.07,4.85,2.22,8.21,5.96,10.85,7.85,5.56,20.02,4.8,25.16-2.05,6.64-8.85,9.06-18.13-1.33-25.95-.33-.25-.46-.78-1.5-2.63ZM674.47,419.66c-.52,27.63,9.62,49.41,35.16,61.93,12.47,6.12,23.81,13.5,32.84,24.18.13.15.59.02,2.19.02-2.49-4.7-4.38-9.12-6.99-13.06-5.86-8.85-15.11-13.39-24.47-17.14-17.94-7.17-28.09-20.7-33.51-38.54-1.76-5.79-3.48-11.6-5.22-17.4ZM277.84,198.97c31.13-1.02,60.18,4.12,88.61,13.72-2.39-1.92-4.81-3.89-7.55-4.56-7.88-1.95-14.03-5.3-15.55-14.22-.47-2.73-2.3-3.85-5.17-1.86-10.46,7.22-24.28,7.23-34.79.27-2.97-1.97-6.06-3.76-8.83-5.47-5.48,3.98-10.66,7.73-16.72,12.13ZM122.68,440.19c-.77-.28-1.54-.56-2.32-.84-.7,1.18-1.64,2.28-2.05,3.55-5.92,18.53-18.83,29.42-37.02,35.35-10.23,3.33-18.25,10.06-22.78,20.2-.93,2.08-1.24,4.43-1.66,6.01,3.25-2.71,6.3-5.82,9.88-8.12,8.44-5.44,16.99-10.76,25.76-15.64,10.32-5.75,19.11-13.06,24.43-23.67,2.63-5.25,3.88-11.2,5.76-16.84ZM612.46,93.96c-.37-.66-.74-1.31-1.1-1.97-10.42,3.32-20.91,6.42-31.22,10.04-6.2,2.17-9.37,7.49-8.61,12.87.45,3.15,1.92,5.08,5.43,4.31,15.54-3.43,25.98-13.73,35.5-25.25ZM313.05,512.81c.38.39.75.78,1.13,1.17,12.82-9.71,27.85-14.1,42.47-17.02-3.2-6.75-6.13-12.91-9.52-20.06-11.42,12.04-22.75,23.97-34.08,35.91ZM191.84,114.33c3.67-1.65,14.57-5.97,27.68-2.61,7.18,1.84,12.36,5.3,15.39,7.74.75-4.49,2.63-8.56,1.18-12.17,0,0-.84-1.79-2.4-3.18-6.7-5.99-39.74,9.24-41.85,10.22ZM190.86,432.26c-1.71-5.23-2.64-10.02-4.77-14.2-5.47-10.78-4.41-20.09,4.88-28.15.13-.12-.03-.58,0-.24-4.6-1.7-8.92-3.29-13.31-4.91-9.3,13.74-2.25,42.07,13.19,47.5ZM488.11,508.29c-9.88-11.02-17.69-23.17-29.84-29.81-2.21,6.28-4.24,12.02-6.27,17.78,11.59,3.86,23.45,7.81,36.11,12.03ZM187.2,339.13c1.37,3.04,4.27,3.31,7.82,2.77,17.6-2.69,29.9-22.63,31.29-35.98.06-.58-.31-1.2-.68-2.54-5.52,7.69-9.68,15.75-15.94,21.56-6.25,5.81-14.6,9.37-22.49,14.19ZM191.95,202.2c3.53,8.61,7.37,11.64,13.71,11.18,8-.59,15.93-12.64,13.32-20.23-2.57-7.47-10.07-10.08-16.12-5.12-5.79,4.74-11.05,10.13-17.09,15.75,2.47-.63,4.18-1.06,6.18-1.57ZM427.03,538.85c-4.37-5.98-5.02-5.75-11.81-3.44-4.15,1.42-9.15,5.82-13.25-.65-.28-.44-1.81-.6-2.38-.25-2.81,1.71-5.49,3.64-8.33,5.57,9.32,9.52,20.49,8.91,35.78-1.22ZM584.6,188.55c.11-5.14-1.8-9.17-6.62-11.36-4.04-1.83-12.23.42-15.38,4.16-3.47,4.12-1.47,8.18.52,12.05,3.18,6.19,8.98,9.97,13.47,9.04,4.76-.99,7.88-6.4,8.01-13.89ZM589.13,185.37c.94-1,1.88-2,2.82-2.99-5.64-6.54-12.95-11.04-20.32-15.44-.35-.21-1.09,0-1.54.23-8.28,4.31-15.85,9.32-18.41,19.25,2.11-.81,3.8-2.09,5.16-3.66,10-11.59,19.12-15.13,30.47-1.9,1,1.17,1.24,3,1.83,4.52ZM602.27,186.96c-7.38,1.17-11.87,6.39-12.14,13.07-.24,5.95,4.76,12.34,10.85,13.86,4.72,1.18,10.87-1.99,13.09-7.05-5.84,1.75-11.95,7.57-17.09.41-5.57-7.75-1.84-14.4,5.3-20.29ZM246.52,541.76c5.43.93,10.07,1.17,13.18-3.44,3.35-4.97,2.45-10.04-.28-15.92-4.5,6.77-11.09,11.18-12.9,19.36ZM564.73,539.3c-.53-2.66-.56-4.37-1.22-5.78-1.57-3.38-1.99-8.23-7.29-7.89-2.93.19-5.13,6.67-4.17,11.2.07.35.04.88.25,1.02,2.99,2,5.93,4.14,9.16,5.65.4.19,2.4-3.05,3.27-4.19ZM378.16,218.36c2.62-1.24,6.81-1.41,3.93-5.23-1.57-2.09-4.51-3.56-7.12-4.3-1.24-.35-4.64,2.01-4.52,2.51.67,2.73,1.45,6.25,3.48,7.68,4.39,3.08,9.55,5.05,14.86,7.71-.74-7-7.01-5.33-10.64-8.37ZM131.1,522c17.84-10.68,27.32-26.8,30.7-46.89-5.28,18.85-15.98,34.18-30.7,46.89ZM582.68,207.51c-.24-.4-.48-.8-.71-1.2-13.29,2.71-23.67-6.3-23.93-20.76-5.23,8.9-3.21,16.15,6.04,19.77,4.63,1.82,9.64,2.78,14.55,3.75,1.2.24,2.7-1,4.05-1.56ZM224.81,186.86c-.41-.15-.82-.3-1.24-.45-.34,1.46-1.31,3.14-.89,4.33.83,2.31,1.95,5.09,3.83,6.31,2.73,1.78,6.4,3.53,9.38,3.13,3.57-.48,6.31-3.62,6.41-9.31-2.26,1.24-3.95,1.85-5.24,2.94-3.72,3.14-6.52,3.1-9.36-.82-1.3-1.8-1.95-4.07-2.9-6.13ZM428.84,215.27c-.37-.06-.73-.13-1.1-.19v8.85c-2.23,1.98-4.58,4.06-6.94,6.14,15.64-8.74,16.98-10.29,16.03-19.35-.47-.18-.94-.37-1.41-.55-1.19,3.05-2.39,6.11-4.05,10.36-1.14-2.36-1.83-3.81-2.53-5.25ZM639.05,476.26c2.18,11.55,7.47,22.42,15.85,32.19-5.54-11.24-10.9-22.13-15.85-32.19ZM723.04,634c-.13-.6-.26-1.2-.4-1.81-3.51,0-7.1.46-10.52-.11-4.69-.79-4.61,1.54-4.1,6.04,5.33-1.46,10.17-2.79,15.02-4.12ZM231.26,183.56c3.41,1.75,7.03,3.62,10.8,5.55-2.1-6.27-5.65-7.91-10.8-5.55ZM695.55,566.75c.4-.39.8-.78,1.21-1.17-3.27-3.07-6.54-6.15-9.81-9.22-.16.15-.31.31-.47.46,3.02,3.31,6.05,6.62,9.07,9.93Z"/>
  <path class="cls-2" d="M255.38,253.91c4.04-3.81,8.05-6.76,11.01-10.53,10.65-13.59,25.23-17.52,41.09-15.22,13.98,2.02,27.75,6.03,41.33,10.12,17.55,5.28,31.47,16.16,43.58,29.86,11.57,13.08,14.08,13.26,26.26.62,26.07-27.06,58.38-38.75,95.1-40.13,13.68-.51,25.17,3.96,32.91,15.96.78,1.2,1.6,2.6,2.77,3.29,6.39,3.8,5.25,8.51,3.25,14.63-5.49,16.78-3.65,32.49,7.91,46.87,4.14,5.15,6.17,12.02,9.04,18.17,2.51,5.36,5,10.74,7.18,16.23,1,2.51,2.05,5.47,1.65,8-1.77,11.21-1.42,22.04,1.49,33.18,8.96,34.27-20.95,70.39-56.24,67.45-8.15-.68-15.95-5.64-21.88-7.86,5.42,6.26,12.42,14.57,19.69,22.63,2.26,2.51,2.45,4.57.41,7.03-4.49,5.43-4.99,11.86-4.46,18.45,1.17,14.37,2.54,28.73,3.73,43.1.23,2.82.03,5.68.03,9.48-1.24-1.06-1.96-1.46-2.38-2.07-9.4-13.67-18.2-27.81-28.31-40.94-10.97-14.26-23.07-27.67-34.87-41.29-3.56-4.11-7.82-8.31-13.91-6.4-6.15,1.93-7.94,7.76-9.96,13.75.68-.42.95-.49,1.04-.66,2.22-4.1,4.85-8.13,10.13-7.57,5.11.53,7.44,4.81,9.01,9.13,1.1,3.01,1.89,6.25,2.13,9.44.54,6.95-1.2,8.43-7.98,7.88-5.5-.45-9.85,2.07-13.27,6.05-3.29,3.82-6.18,7.99-9.27,11.97-7.97,10.26-21.94,11.55-31.38,2.65-2.85-2.68-5.33-5.89-7.42-9.21-6.79-10.79-13.78-14.44-26.34-12.18-4.59.83-5.84-1.06-6.6-4.67-1.58-7.56,2.69-17.02,8.93-19.82,5.89-2.63,10.34-1.61,14.44,3.37,1.22,1.48,2.32,3.05,3.91,4.26-.24-7.63-5.47-12.07-11.03-15.77-4.79-3.19-9.07.11-12.67,3.13-20.92,17.57-37.89,38.44-52.13,61.74-5.68,9.29-12.82,17.68-20.21,27.74-.83-2.7-1.3-3.46-1.25-4.18,1.24-17.07,2.34-34.16,3.9-51.2.84-9.19.44-17.94-4.05-26.28-.87-1.61-.6-4.09-.23-6.05.42-2.24,1.53-4.36,2.41-6.7-13.89,3.05-26.55.21-37.46-7.75-12.79-9.34-21.41-22.04-23.4-38.13-.71-5.77-.37-11.97.96-17.63,2.95-12.49,3.66-24.91,2.06-37.6-.2-1.57,1.01-3.97,2.34-4.97,6.01-4.53,10.37-9.64,10.87-17.72.21-3.34,2.27-6.72,4.02-9.77,1.32-2.3,3.5-4.1,5.27-6.14,13.68-15.83,18.5-33.14,8.88-52.89-.78-1.6-1.39-3.28-2.03-4.84ZM312.57,409.53h17.64c-1.56,5.14-5.69,8.55-10.14,11.56-4.32,2.92-8.85,5.53-13.29,8.27.09.31.19.61.28.92h9.5c-6.43,5.26-12.67,9.83-18.26,15.1-5.67,5.34-8.29,13.83-7.46,22.92,2.07-16.22,11.49-25.28,23.15-32.69,16.43-10.44,32.84-20.91,49.28-31.33,1.31-.83,2.82-1.34,5.11-2.41v10.33c.41.13.82.25,1.23.38,2.42-3.12,4.83-6.25,7.66-9.9,3.53,17.93,6.88,34.93,10.23,51.92.6-.1,1.2-.21,1.8-.31-1.87-12.07-3.8-24.13-5.59-36.21-.74-4.96-1.95-10.02-1.59-14.94.62-8.41,6.18-12.32,13.81-10.84-6.62-2.18-11.86-5.7-13.32-13.4,4.16.74,8.03.6,9.49-3.99,2.69-8.5,8.44-11.3,16.88-9.72,1.22.23,2.64-.32,3.76.07,1.88.66,4.37,1.33,5.24,2.8,5.4,9.14,5.75,9.07-3.31,14.4-2.2,1.3-5.16,2.03-7.71,1.87-6.08-.37-12.13-1.43-18.4-2.24,5.88,6.23,13.73,3.13,20.66,4.28,8.57,1.43,13.51-5.25,19.88-8.75.37.49.75.97,1.12,1.46-4.32,4.58-8.64,9.16-12.58,13.35,4.38-1.43,6.23,1.83,6.71,5.89.39,3.34-.14,6.8-.36,10.2-1.01,15.28-2.08,30.56-3.04,45.85-.13,2.04.26,4.12.41,6.17,3.77-20.4,4.68-41.11,9.07-61.61,7.55,3.7,8.31,7.18,5.17,19.43.41.19.82.38,1.23.57,2.48-5.43,4.95-10.85,7.65-16.76,12.46,11.36,26.93,20.68,41.73,29.51.59-.43,1.17-.86,1.76-1.29-3.35-7.53-6.7-15.05-10.6-23.8,19.36,3.95,35.5-3.11,52.44-8.16-2.5,3.4-5.18,6.81-8.67,8.72-3.68,2.02-8.07,3.06-12.27,3.69-4.02.6-8.19.13-12.56.13,17.53,6.48,28.47,3.85,40.42-9.65,2.39-2.69,4.85-5.41,6.69-8.48,2.3-3.83,4.61-3.46,7.28-.8.92.91,1.48,2.19,2.2,3.3.42-.24.83-.48,1.25-.72-.53-2.72-3.22-6.17,4.09-6.61-4.32-1.59-6.6-2.43-7.68-2.83,4.24-1.57,9.39-3.48,14.53-5.38-.18-.48-.36-.97-.54-1.45-4.06.18-8.12.37-12.18.55,2.17-2.21,4.51-3.11,6.76-4.18,14.65-6.98,17.64-23.95,6.01-34.97-3.38-3.21-7.26-5.94-11.11-8.6-8.83-6.1-18.17-6.65-27.58-1.52-6.01,3.28-11.89,6.85-17.57,10.67-20.67,13.91-43.37,21.89-68.21,23.74-1.92.14-4.06.18-5.78-.51-10.75-4.36-15.14-14.82-10.26-25.31,1.94-4.17,4.79-8.09,7.93-11.47,4.03-4.35,8.79-8.01,13.18-12.02,1.41-1.29,2.67-2.75,3.99-4.13-.44-.42-.87-.85-1.31-1.27-6.76,5.63-13.78,10.96-20.2,16.95-7.95,7.42-12.16,16.79-12.92,27.78-.13,1.85-2.23,3.57-3.42,5.34-1.63-1.51-4.16-2.75-4.7-4.59-.93-3.17-.95-6.72-.78-10.08.26-5.15.99-10.28,1.52-15.42l-1.52-.18c-.55,2.4-.98,4.83-1.66,7.18-1.45,5.02-2.54,10.23-4.75,14.9-1.31,2.77-4.48,4.66-6.81,6.94-.92-2.75-2.38-5.45-2.66-8.27-1.88-18.96-17.31-35.99-36.15-38.47,4.51,3.09,8.48,5.31,11.84,8.21,5.94,5.14,12.6,9.94,17.02,16.25,8.88,12.69,2.2,26.55-13.22,27.84-7.58.63-15.62.04-23-1.82-18.98-4.79-36.9-12.37-53.02-23.78-4.41-3.12-8.96-6.09-13.64-8.79-6.83-3.94-13.65-4.04-21.19-.91-11.37,4.71-17.11,15.14-25.38,22.99-.54.52-.76,1.62-.75,2.45.12,9.24,8.2,20.35,17.22,23.81,1.2.46,2.38.94,3.57,1.41-.17.63-.33,1.27-.5,1.9l-14.05-3.09c-.15.4-.31.81-.46,1.21,5.6,2.01,11.19,4.03,16.9,6.09-2.25,1.54-4.62,3.17-6.99,4.79,1.89.65,3.27.32,4.67.2,1.32-.12,2.67-.03,4.21-.03-1.03,1.66-1.9,3.06-3.14,5.06q7.44-3.85,12.49,2.69c1.55,1.99,3.22,3.88,4.82,5.83,11.63,14.16,28.41,11.52,40.75,5.73v.03ZM250.03,322.92l.7.71c3.05-2.99,6.39-5.73,9.11-9,12.36-14.87,17.53-14.71,32.38-2.83,15.43,12.34,31.99,23.29,48.29,34.52,3.08,2.12,7.23,2.7,10.88,3.99.29-.64.57-1.28.86-1.93-1.93-1.43-3.74-3.04-5.79-4.27-19.38-11.53-38.73-23.1-55.52-38.39-1.71-1.56-3.8-2.76-5.85-3.87-8.66-4.71-17.01-3.24-23.16,4.47-4.24,5.31-7.95,11.05-11.9,16.6ZM558.86,325.96l1.68-1.13c-3.18-5.04-5.97-10.4-9.63-15.07-10.16-12.96-22.58-14.23-35.73-4.47-17.91,13.3-35.99,26.38-53.98,39.58-1.39,1.02-2.63,2.26-3.94,3.4.34.5.69,1.01,1.03,1.51,3.21-1.37,6.74-2.28,9.58-4.2,12.21-8.27,24.35-16.66,36.26-25.36,5.95-4.35,11.18-9.66,17.01-14.17,7.22-5.59,13.65-5.72,20.62.19,4.32,3.67,7.64,8.53,11.38,12.88,1.94,2.25,3.82,4.55,5.72,6.83ZM360.27,291.33c31.23,12.43,62.36,9.67,93.46.18-31.17,3.97-62.33,6.27-93.46-.18ZM328.73,287.68c-14.02-3.48-27.98-7.23-42.09-10.3-5.74-1.25-8.87.68-11.99,4.95,18.82-5.31,35.81,4.82,54.08,5.35ZM387.5,313.49c8.24,6.6,25.19,6.62,34.41,0h-34.41ZM536.57,286.7c-5.02-6.84-11.18-10.06-18.42-8.57-8.41,1.72-16.63,4.39-24.93,6.65,14.64-.61,29.16-8.61,43.35,1.92Z"/>
  <path class="cls-2" d="M516.65,751.85c.85-.9,1.63-1.43,2-2.16,8.19-16.08,16.62-32.06,18.66-50.43,2.39-21.41-4.37-39.51-19.88-54.23-3.04-2.88-7.16-4.78-11.04-6.6-17.61-8.26-25.66-22.52-21.53-39.54,1.11-4.57,3.74-8.77,5.67-13.14.57.08,1.15.16,1.72.24,2.41,9.08,4.82,18.17,7.48,28.19.35-2.7.58-4.52.9-6.99,3.96,2,8.04,3.22,11.04,5.73,10.2,8.55,21.29,16.49,29.72,26.6,20.24,24.27,21.71,66.02,4.75,93.8-4.89,8-10.38,15.68-14.74,23.95-2.79,5.31-4.68,11.33-5.79,17.26-1.84,9.89,1.3,16.1,10.73,24.3-8.01-.51-17.46-5.87-21.05-12.91-2.57-5.05-5.8-7.03-11.24-5.31-1.01.32-2.19.06-3.22.35-4.14,1.14-5.42-1.05-4.95-4.54,1.17-8.7,1.92-17.54,4.06-26.01,2.91-11.51,7.34-22.62,10.39-34.1,1.64-6.16,1.75-12.73,2.55-19.12-.56-.16-1.12-.32-1.68-.47-.75,2-1.78,3.94-2.2,6.01-3.68,17.73-12.51,32.84-23.18,47.19-5.67,7.63-11.35,15.55-15.26,24.15-9.75,21.45-3.14,45.05,14.76,56.03,2.93,1.8,6.1,3.21,8.87,5.32-7-1.38-13.47-4.08-18.07-9.53-4.38-5.2-8.42-10.82-11.76-16.73-4.38-7.75-10.5-10.42-19.24-6.8-1.57-3.68-3.14-7.38-4.71-11.07-.26.03-.52.06-.78.09-.23,3.21-.46,6.42-.69,9.63-9.71-.8-11.45-2.59-12.17-11.4-1.41-17.11,4.62-32.24,12.31-46.95,1.04-1.99,2.09-3.98,2.46-6.3-10.28,13.22-19,27.22-22.32,44.67-1.99-18.55,3.34-34.33,14.04-48.45,7.74-10.22,14.21-20.95,15.17-34.09.35-4.79.06-9.63-.75-14.68-.7,24.13-16.44,38.64-33.86,54.17.43-3.2.47-4.98.92-6.65,2.5-9.22,5.32-18.35,7.62-27.62,2.2-8.89.88-17.57-2.92-25.87-3.45-7.54-7.16-14.96-10.34-22.61-1.12-2.69-1.43-5.88-1.43-8.84,0-8.65.21-17.31.62-25.96.1-2.01.91-5.32,2.11-5.69,3.2-.98,6.26.14,8.12,3.59,5.13,9.52,10.41,18.96,15.66,28.42.85,1.52,1.88,2.94,2.83,4.4.56-.29,1.11-.59,1.67-.88-5.68-10.89-11.37-21.78-17.34-33.23,28.93,5.31,56.19,40.97,61.72,78.48.64-2.92,1.56-5.81,1.86-8.76,1.85-18.1-4.85-33.2-16.7-46.39-10.34-11.51-20.77-22.94-31.1-34.47-5.03-5.61-11.16-9.38-18.65-9.91-7.17-.51-14.41-.39-21.6,0-8.58.46-15.59,4.71-20.91,11.18-10.53,12.81-21.26,25.53-30.84,39.04-10.79,15.23-13.75,32.62-10.08,51.31,3.11-34.67,17.67-61.33,52.46-75.81-3.07,10.57-5.77,19.83-8.47,29.09.64.21,1.28.43,1.93.64,2.52-6.25,5.08-12.49,7.54-18.76,1.45-3.69,2.96-7.38,4.07-11.18,1.2-4.12,4.22-5.02,7.84-5.26,2.83-.18,4.48.93,4.52,3.97.06,4.33.54,8.68.2,12.97-.96,12.1,1.33,23.67,4.97,35.07.88,2.75,1.67,5.53,2.7,8.23,6.23,16.45,4.31,32.25-3.87,47.47-.91,1.7-2.81,3.5-4.55,3.88-1.02.22-3.08-2.05-3.9-3.6-6.24-11.76-6.42-24.29-3.62-36.89,1.6-7.19,4.19-14.17,6.29-21.25.7-2.37,1.3-4.77,1.27-7.42-7.36,9.55-12.87,19.89-15,31.92-2.29,12.95,1.69,25,4.7,37.25.49,1.98-.03,4.21-.09,6.32-2.05-.74-4.14-1.38-6.13-2.26-.96-.42-1.71-1.31-2.56-1.97-20.77-16.15-23.43-20.53-28.94-45.83,0,5.15-.74,10.42.14,15.41,2.25,12.69,7.81,23.73,17.06,33.09,18.35,18.58,26.15,41.39,25.44,67.29-.05,1.76-.42,3.52-1.21,5.54-9.08-22.37-23.64-40.37-42.62-55.01,2.01,2.59,4.41,4.96,5.98,7.8,7.83,14.17,16.89,27.89,22.78,42.84,7.33,18.61,19.09,31.89,36.74,40.52,4.86,2.37,9.63,4.93,14.34,7.58,2.1,1.18,3.94,2.81,5.9,4.23-.21.39-.41.78-.62,1.17-3.81-1.42-7.79-2.52-11.41-4.33-9.35-4.67-18.6-9.55-27.75-14.58-2.64-1.45-5.48-3.29-7.11-5.71-6.65-9.85-17.01-11.91-27.49-13.79-2.29-.41-4.71-.06-7.07-.06-.36.48-.72.97-1.07,1.45-7.31-15.24-14.62-30.47-21.93-45.71-.44.21-.89.42-1.33.63,1.18,3.5,2.36,6.99,3.55,10.49-.3.17-.61.35-.91.52-1.45-2.09-2.95-4.16-4.34-6.29-7.49-11.48-14.91-23.01-22.42-34.48-12.38-18.88-19.6-38.93-14.65-61.91,2.71-12.58,9.18-23.13,17.93-32.22,16.13-16.75,32.52-33.26,48.93-49.74,10.98-11.03,24.36-16.47,39.99-16.14,7.21.15,14.45,0,21.61.73,10.32,1.05,19.57,5.24,27.15,12.3,8.03,7.49,15.33,15.77,23.4,23.23,7.63,7.06,15,15.01,23.95,19.89,20.28,11.06,28.64,28.62,31.03,50.11,2.13,19.12-3.58,36.75-11.38,53.87-1.04,2.29-1.86,4.68-2.69,7.05-.15.41.16.99.35,1.96Z"/>
  <path class="cls-2" d="M461.2,50.96c-.37,15.93-6.97,29.05-16.52,41.48-4.74,6.17-6.95,14.41-9.73,21.92-1.5,4.07-3.15,5.09-6.83,2.48-6.04-4.29-8.6-11.66-5.67-18.41,2.64-6.08,5.74-12,9.18-17.67,6.96-11.48,9.98-23.35,4.99-36.42-.35,8.94.83,18.13-3.84,26.74-2.51-8.25-4.9-16.1-7.29-23.95-.79.1-1.57.2-2.36.3,11.04,20.06-.18,37.08-6,55.88-8.08-9.97-15.42-19.04-22.77-28.11-.41.33-.81.67-1.22,1,3.13,3.86,6.18,7.79,9.42,11.54,2.17,2.52,2.84,4.64.23,7.4-3.54,3.74-6.74,7.81-9.57,11.13-5.23-6.79-10.15-13.18-15.07-19.56-.44.31-.89.61-1.33.92,5.39,8.6,18.22,15.62,5.84,28.67-1.02-2.84-1.44-5.38-2.73-7.36-4.49-6.89-8.85-13.94-14.07-20.25-5.67-6.85-11.65-13.24-13.21-22.49-1.92-11.35,2.43-20.89,8.25-30.01,2.13-3.33,4.58-6.5,7.16-9.5,2.11-2.46,2.27-4.23,4.09-6.01,2.86-2.78,6.17-3.8,8.42-4.39,29.26-7.73,51.43-3.49,51.43-3.49,7.26,1.39,12.44,3.19,14.82,4.07,7.01,2.59,12.57,5.65,16.54,8.14,4.56,3.03,10.54,7.9,15.63,15.33,12.28,17.93,10.28,37.47,9.45,43.33,6.06-3.42,9.73-14.67,6.22-24.31-3-8.23-8.03-15.73-12.19-23.6,16.12,9.77,32.85,19.44,37.97,40.18,2.16,8.75-.07,16.85-7.79,22.05-8.35,5.62-17.38,10.22-25.94,15.55-5.63,3.51-10.71,7.96-16.5,11.15-2.84,1.57-6.72,1.52-10.16,1.67-3.4.15-6.84-.29-10.25-.61-6.72-.63-8.74-2.22-7.48-8.85,1.29-6.76,3.75-13.51,6.87-19.67,7.67-15.14,12.64-22.68,13.43-32.18.51-6.04-.56-11.04-1.43-14.1ZM413.09,33.38c-5.2-3.59-10.39-2.76-14.73,1.8-7.31,7.69-7.29,20.85.04,28.56,3.62,3.81,10.85,5.57,15.48,3.76,4.08-1.59,7.18-7.08,7.01-12.41-.18-5.49-3.99-10.71-8.82-12.3,1.68,2.64,3.89,5.25,5.14,8.26,1.68,4.06,1.65,8.42-2.62,11.04-4.2,2.58-8.68,2.29-12.58-.92-4.8-3.96-6.52-13.88-3.77-20.63,2.32-5.71,5.72-7.45,14.85-7.15ZM0,570.52h0"/>
  <path class="cls-2" d="M252.77,69.11c17.51-13.18,26.85-19.35,40.25-27.29,9.82-5.82,20.62-10.33,31.48-13.95,11.85-3.95,24.26-6.21,37.03-9.35-1.68,1.93-3.14,4.29-5.21,5.85-5.17,3.91-10.56,7.54-15.96,11.13-10.71,7.11-17.86,16.72-20.51,29.35-.63,2.98-.09,6.21.52,9.47,2.29-20.5,16.79-30.16,33.73-38.99-.65,2.23-1.01,3.72-1.5,5.16-5.84,16.87-3.85,32.43,6.76,47.11,5.03,6.95,8.87,14.76,13.1,22.27.86,1.52,1.22,3.41,1.49,5.17,1.15,7.7-.94,10.02-8.62,10.45-5.79.33-10.71-.23-14.8-5.46-2.39-3.06-6.62-4.9-10.31-6.67-15.65-7.51-18.4-9.52-26.08-28.46.78,21.11,19.17,28.39,30.75,41.68-2.55.49-4.4,1.11-6.26,1.16-7.67.19-15.93,2.08-22.89-.12-13.6-4.29-27.54-9.37-35.79-22.49-4.14-6.59-2.88-13.99-1.24-21.07,2.3-9.92,7.83-18.11,14.68-25.48,1.32-1.42,2.64-2.83,4.42-4.75-11.39,3.61-22.73,17.8-25.5,31.92-3.92,19.98,4.03,35.07,21.17,47.28-10.08,1.22-19.03,6.14-27.68-1.55-4.28-3.81-8.86-7.3-13.82-11.35,2.04,8.65,8.17,13.81,14.55,19.18-5.57,2.83-9.94,2.21-13.8-1.8-5.53-5.74-8.87-12.26-9.88-20.47-.77-6.23-3.26-12.39-5.9-18.17-1.33-2.9-.74-4.44,1.13-5.98,7.65-6.27,15.36-12.47,23.15-18.56,2.39-1.87,5.13-3.28,7.71-4.9-38.73,23.27-47.55,27.12-48.19,26.15-1.05-1.58,18.96-16.64,32.03-26.48Z"/>
  <path class="cls-2" d="M241.85,530.02c-5.68-2.37-7.88-1.66-10.89,4.01-9.33,17.63-10.58,35.3-.57,52.09-3.04,3.95-5.87,7.65-9.15,11.92-6.01-8.48-8.24-17.61-6.81-27.9-6.86,11.75-4.38,23.69-.48,36.47-3.69,1.74-7.43,3.85-11.44,5.14-.97.31-3.61-1.8-4.11-3.26-3.59-10.6-3.38-21.43.17-31.89,3-8.84,7.08-17.32,10.79-25.92,1.54-3.58,3.35-7.05,4.05-11.23-1.82,2.24-3.53,4.58-5.47,6.71-7.51,8.27-15.25,16.34-22.6,24.75-11.54,13.2-14.01,28.05-7.28,44.33.34.83.52,1.72.91,3.01-4.02,1.02-10.32.21-6.47,8.66-.83-.1-1.66-.2-2.49-.3-2.14-4.72-5.2-9.24-6.24-14.18-4.06-19.27,2.92-35.42,15.64-49.5,1.05-1.17,3.58-1.02,5.44-1.43,1.33-.29,3.02-.06,3.97-.81,17.06-13.46,27.45-31.01,31.09-52.72-1.27,1.8-2.69,3.5-3.78,5.4-11.18,19.65-26,36.26-42.48,51.57-5.11,4.75-10.36,9.72-14.07,15.53-8,12.54-8.06,26.39-3.42,40.13,2.34,6.94,5.9,13.47,9.14,20.7-1.63-1.49-2.94-3.13-4.64-4.1-1.54-.89-4.07-2.02-5.17-1.37-3.6,2.12-5.23.05-7.19-2.24-14.13-16.54-15.96-40.96-4.72-60.23,6.14-10.53,14.79-18.66,24.29-25.86,27.12-20.56,40.79-47.9,42.19-81.67.2-4.86.84-9.71,1.01-14.58.24-6.87,3.42-12.3,8.17-17.94v36.19c3.07-5.21,6.22-10.55,10.13-17.2,2.83,15.81,1.55,30.05-1.18,44.63,3.86-4.54,7.72-9.08,12.27-14.44,3.17,9.3.65,17.11-.74,26.47,3.71-4.39,6.53-7.74,9.36-11.09.34.11.68.22,1.02.33-1.15,4.1-2.3,8.2-3.45,12.31.15.08.3.16.45.24,1.12-1.74,2.25-3.47,3.46-5.34,4.15,8.16,3.83,9.79-2.15,16.21-2.31,2.48-4.21,5.34-6.58,8.4Z"/>
  <path class="cls-2" d="M608.36,623.21c-6.49-4.37-12.27-7.98-17.65-12.13-.96-.74-.87-3.97-.17-5.57,7.06-16.17,3.42-31.3-4.89-46.12.2,1.74.36,3.48.59,5.21.24,1.79.86,3.58.77,5.34-.4,8.2-.78,16.42-1.62,24.58-.35,3.43-2.41,5.37-6.44,3.76-3.71-1.48-7.62-2.48-11.89-3.84,2.88-3.22,5.51-5.67,7.56-8.53,14.14-19.77,8.99-52.18-10.47-66.82-.91-.69-2.03-1.79-2.11-2.77-.64-7.66-1.04-15.33-.58-23.28,2.78,4.91,5.57,9.82,8.35,14.73.44-.03.88-.06,1.31-.09-2.85-17.57-4.62-35.08,2.45-52.28,1.74,8.45,3.48,16.9,5.22,25.35.27-.05.55-.1.82-.16,0-6.36-.26-12.73.09-19.07.25-4.4,1.52-8.74,1.98-13.14.25-2.44-.31-4.95-.39-7.43-.08-2.6-.02-5.21-.02-9.2,2.71,3.11,4.51,5.16,6.82,7.82.6-11.1,1.15-21.38,1.7-31.65,4.45,8.62,7.3,17.47,6.03,27.21-.53,4.11-.93,8.24-1.32,12.36-.77,8.22-.58,16.24,5.85,22.88-.35.43-.71.86-1.06,1.29-2.66-.79-5.31-1.59-8.88-2.66.62,7.75.68,15.59,1.96,23.24,3.24,19.25,10.36,37,21.31,53.3,6.61,9.85,13.27,19.86,18.27,30.57,11.19,23.96,8.05,47.73-3.39,70.86-.31.62-.88,1.11-1.96,2.45-3.92-4.17-7.82-8.05-11.32-12.27-.65-.78-.02-3.06.58-4.39,9.78-21.6,8.24-42.1-4.52-62.26-9.14-14.43-17.14-29.58-25.4-43.97,1.32,3.72,2.74,8.12,4.46,12.41,1.75,4.34,3.79,8.57,5.72,12.84,4.16,9.19,8.65,18.24,12.4,27.59,4.4,10.97,5.04,22.46,2.72,34.04-.62,3.09-1.79,6.06-2.93,9.8Z"/>
  <path class="cls-2" d="M679.32,236.15c-.62.19-1.59-5.19-6.7-7.62-3.25-1.55-6.45-1.36-7.97-1.17.3,1.67,1.15,7.46-2.23,13.2-5,8.49-14.77,9.27-15.67,9.33.61-1.72,3.09-9.32-.55-17.55-.36-.8-4.21-9.15-13.11-12.31-9.95-3.53-19.95,1.59-20.72-.29-.47-1.14,3.06-2.51,5.1-5.87,2.99-4.93.97-11.21-1.28-15.84,7.89,8.57,19.22,8.86,24.25,3.75,4.72-4.79,2.75-13.18,2.57-13.89,3.17,4.41,8.09,10.39,15.3,16.11,6.34,5.03,9.05,5.61,13,10.14,8.54,9.76,8.92,21.73,8,22.01Z"/>
  <path class="cls-2" d="M183.63,185.05c-4.48,3.94-9.41,9.5-8.35,14.88,1.33,6.73,11.1,8.48,10.68,12.31-.58,5.33-19.6,3.11-27.2,13.21-5.3,7.04-3.15,17.56-.78,24.86-3.36-1.16-12.94-4.93-17.79-13.61-1.65-2.96-3.01-6.13-3.83-10.46-.53-2.83-.42-5.79-1.13-8.56-.49-1.88-1.59-4.6-2.97-4.99-2.15-.62-4.65,1.64-5.38,2.33-1.89,1.77-5.63,6.43-4.92,23.72.52,12.58,2.99,21.91,3.79,24.78,2.53,9.09,5.78,16.38,8.45,21.57-2.17,1.43-4.75,3.69-5.54,7-1.15,4.82,2.14,9.28,2.04,9.33-.18.1-13.82-14.56-18.36-36.73-4.46-21.77-.38-51.85,19.7-68.42,12.98-10.71,29.86-13.49,30.5-12.16.63,1.31-11.79,7.79-10.86,9.87.33.73,2.18.36,7.84-.38,10.47-1.38,18.68-5.33,24.09-8.55Z"/>
  <path class="cls-2" d="M375.51,191.47c-.99,3.98-.99,8.07-2.93,10.78-3.14,4.4-8.26,4.53-13.31,3.08-10.04-2.88-15.37-11.85-12.25-23.16,1.57,3.91,3.06,6.48,3.61,9.23,1.5,7.52,10.37,12.54,17.41,9.57,5.2-2.2,6.55-7.92,1.94-11.08-4.82-3.31-10.42-5.58-15.88-7.82-6.29-2.58-7.42-4.31-3.45-9.87,6.6-9.24,13.85-18,20.78-27,1.95-2.53,3.74-5.17,5.99-8.29-25.99,2.89-51.06,5.67-75.71,8.41-1.02,9.4-1.87,17.22-2.72,25.05.55.08,1.1.15,1.64.23.19-.8.42-1.6.57-2.41,2.62-13.92,4.6-16.87,18.22-18.86,15.37-2.24,30.97-2.93,46.48-4.3.09.7.17,1.39.26,2.09-12.32,1.51-24.63,3.01-38.03,4.65,11.17,5.83,21.28-1.6,32.81.44-5.19,2.94-5.86,10.52-13.61,8.15-.52-.16-2.61,2.6-2.85,4.17-.59,3.9-.42,7.91-.75,11.87-.66,7.9-7.37,15.73-16.22,18.3,10.23-6.11,13.47-15.11,13.09-25.5-.39-10.72-12-17.43-21.65-12.67-3.01,1.49-5.84,3.64-8.26,5.99-5.55,5.39-6.27,11.53-2.28,15.8,4.43,4.74,13.84,5.16,18.85.77.89-.77,1.58-1.77,2.5-2.82.86,8.83-7.89,12.51-19.59,8.55,4.78,5.47,13.2,5.14,19.31-.77,4.7-4.55,4.83-12.33-.41-16.25-2.29-1.71-5.89-2.29-8.84-2.15-1.08.05-3.16,4-2.71,5.57.66,2.3,3.19,4.05,4.93,6.05-3.34.65-6.98-.28-9.06-4.21-2-3.79-.16-7.1,2.82-9.54,4.76-3.89,10.3-4.38,15.81-2.14,5.52,2.24,5.79,7.29,5.44,12.36-1.14,16.72-17.5,24.65-31.49,15.29-10.27-6.88-15.2-20.23-12.51-33.99.51-2.6,1.11-5.18,2.09-9.68-26.67,7.88-52.04,15.38-77.4,22.87-.24-.26-.47-.51-.71-.77,5.18-3.59,10-7.96,15.62-10.65,24.49-11.73,50.72-17.77,77.47-20.96,23.23-2.77,46.67-3.82,70-5.83,1.81-.16,4.02-1.51,5.12-2.99,5.7-7.67,11.1-15.56,16.61-23.37,1.02-1.44,2.09-2.84,3.66-4.96,1.48,2.43,2.68,4.32,3.82,6.25,9.64,16.43,19,33.03,29.06,49.21,3.57,5.74,8.88,10.39,13.29,15.64,4.67,5.57,3.95,10.77-2.63,13.37-10.58,4.2-17.3,12.16-22.61,21.53-5.43,9.56-10.15,19.51-15.42,29.16-4.08,7.47-6.27,7.77-10.69.63-6.34-10.26-11.82-21.05-17.82-31.52-2.39-4.16-5.2-8.07-7.42-11.48ZM406.08,230.32c2.02-2.68,4.49-5.14,5.97-8.09,4.53-9.01,8.62-18.24,13-27.32,4.25-8.82,10.49-15.43,20.41-17.9,2.29-.57,4.42-1.79,7.31-3-20.83-17.73-33.75-40.19-46.63-62.6-8.96,10.88-17.46,21.34-26.13,31.66-6.26,7.45-12.86,14.62-19.07,22.1-2.96,3.57-5.37,7.59-8.76,12.44,4.04,0,6.19.04,8.33,0,11.58-.26,20.15,4.15,24.89,15.25,2.96,6.95,6.16,13.85,9.81,20.46,3.19,5.77,7.15,11.1,10.78,16.63.03,0,.06.14.09.38Z"/>
  <path class="cls-2" d="M325.31,587.28c1.53,3.93,3.75,7.71,4.46,11.75,3.23,18.46-2.38,34.16-17.2,45.51-14.57,11.16-23.81,24.9-25.68,43.28-2.86,28.23,4.67,53.48,21.39,76.32,6.69,9.14,13.15,18.57,18.48,28.52,3.26,6.09,4.19,13.43,6.16,20.21-.61.19-1.21.37-1.82.56-1.85-4.59-3.67-9.19-5.56-13.76-2.08-5.04-4.38-9.71-11.38-8.04-.77.18-2.19-1.37-2.97-2.38-6.9-8.97-13.28-18.38-20.67-26.92-16.55-19.14-29.2-40.28-30.96-65.91-1.63-23.69,5.56-44.76,23.81-61.29,6.49-5.88,12.2-12.61,18.41-19.1-.91,13.53-10.28,24.54-13.28,38.74,1.41-1.22,2.23-1.7,2.73-2.4,11.37-15.93,20.77-32.56,19.81-53.17-.09-2.05,1.94-4.77,3.76-6.19,2.77-2.16,6.22-3.46,10.51-5.72Z"/>
  <path class="cls-2" d="M297.08,584.46c5.29-10.55,9.81-19.59,14.34-28.62-.57-.36-1.13-.71-1.7-1.07-1.21,1.57-2.38,3.16-3.62,4.7-12.36,15.38-28.72,21.98-48.08,20.94-10.46-.56-18.24-6.54-23.58-15.29-3.72-6.1-1.81-12.47.62-19.7,2.22,9.03,5.12,16.53,14.29,18.67,11.78,2.75,22.93.52,32.02-7.25,6.78-5.8,11.98-13.42,18.32-19.79,7.2-7.23,14.48-14.5,22.45-20.83,13.5-10.71,29.8-11.84,46.23-11.78,6.31.02,10.91,3.36,14.74,7.94,2.51,3,1.37,9.22-1.47,12.02-6.46,6.36-12.7,12.95-19.04,19.45.63.73,1.25,1.46,1.88,2.18,2.2-1.62,4.78-2.92,6.54-4.93,4.5-5.14,8.56-10.67,12.96-15.91,2.72-3.23,6.07-3.24,9.77-1.46,3.81,1.84,4.13,4.44,1.65,7.32-2.33,2.71-4.74,5.95-7.83,7.29-8.51,3.68-17.4,6.48-27.26,10.04,2.93-8.45,5.35-15.41,7.77-22.38-.39-.23-.78-.47-1.17-.7-9.19,11.42-15.74,25.07-28.57,35.55,2.85-8.27,5.17-15,7.49-21.73-.31-.26-.62-.51-.93-.77-4.51,5.53-8.8,11.26-13.58,16.54-5.08,5.61-10.34,11.12-16.05,16.06-5.48,4.74-11.64,8.7-18.2,13.52Z"/>
  <path class="cls-2" d="M589.64,90.87c-3.22,2.42-5.53.64-7.96-1.54-10.32-9.25-21.03-17.96-33.74-23.87,9.93,10.24,19.82,20.44,30.25,31.19-8.63,5.65-12.07,13.22-15.48,21.11-4.87,11.25-23.32,19.93-34.4,16.32,10.23-9.85,19.25-20.14,17.34-35.46-1.12-9.02-4.62-16.95-11.45-23.45.71,1.78,1.43,3.56,2.11,5.36.71,1.85,1.44,3.7,2.04,5.58,5.17,16.11-.16,29.66-15.34,37.04-10.14,4.92-20.87,8.14-32.43,5.38-.87-.21-1.77-.36-2.62-.65-.47-.16-.85-.57-2.06-1.42,2.83-2.51,5.33-4.98,8.09-7.11,6.28-4.85,12.83-9.35,19-14.32,13.94-11.21,17.07-29.31,6.46-43.81-5.2-7.11-12.76-12.51-19.3-18.64-1.01-.95-2.27-1.64-4.47-3.19,9.91-1.06,18.6-.8,26.98,1.98,27.36,9.07,49.42,25.58,66.84,48.43.18.23.09.66.14,1.08Z"/>
  <path class="cls-2" d="M437.27,521.27c-3.97-6.74.7-16.98,8.69-17.6,5.42-.42,11.1.59,16.47,1.8,15.85,3.6,28.85,11.9,38.93,24.72,4.12,5.24,7.93,10.83,12.63,15.49,5.07,5.02,10.55,9.97,16.68,13.51,14.97,8.64,28.26,5.45,40.21-8.63,3.56,12.75-4.14,25.45-17.64,27.55-17.49,2.71-33.04-1.01-44.02-16.4-.51-.71-1.14-1.34-2.58-1.56,3.04,6.76,6.09,13.52,9.54,21.19-18.39-6.27-27.1-21.43-37.81-35.15.68,3.13,1.3,6.28,2.07,9.39.77,3.11,1.69,6.18,2.54,9.26-.41.4-.82.79-1.23,1.19-5.46-4.98-11.21-9.7-16.31-15.02-5.61-5.85-10.4-12.47-15.98-18.35-3.43-3.62-7.66-6.49-11.52-9.68-.22-.56-.45-1.13-.68-1.7Z"/>
  <path class="cls-2" d="M540.77,609.66c5.45-1.52,9.76-2.76,14.09-3.9.8-.21,1.91-.32,2.55.06,13.28,7.9,27.5,14.62,39.56,24.09,26.8,21.06,41.66,49.32,44.16,83.5,1.16,15.92-1.27,31.36-10.52,44.94-1.02,1.5-3.5,2.02-5.3,2.99.1-1.88-.41-4.08.39-5.6,16.99-32.53,6.34-67.17-12.35-88.06.85,1.53,1.68,3.08,2.55,4.6,12.43,21.68,18.34,44.51,12.62,69.53-2,8.74-6.96,11.77-15.25,8.25-.98-.42-1.61-3.58-1.16-5.11,4.63-15.98,5.25-32.05.62-48.03-7.91-27.3-23.45-49.15-47.15-65.22-7.26-4.92-13.82-10.91-20.57-16.56-1.56-1.31-2.57-3.27-4.25-5.48Z"/>
  <path class="cls-2" d="M652.45,416.51c0,7.33-.59,14.73.17,21.99.75,7.1,2.33,14.22,4.51,21.03,4.87,15.22,15.4,24.77,30.82,29.13,6.58,1.86,13.03,4.18,19.48,6.48,33.42,11.91,49.42,51,45.92,77.69-1.48,11.27-6.3,20.54-14.19,25.58.79-2.45,1.04-4.15,1.83-5.53,5.76-10,5.15-20.41,1.97-30.89-7.16-23.61-22.71-39.68-45.1-49.43-4.46-1.94-9.01-3.66-13.54-5.44-.44-.17-1.01-.02-2.09.97,3.19,2.1,6.33,4.26,9.57,6.28,7.79,4.84,16.23,8.85,23.31,14.55,16.87,13.58,24.36,32.02,25.31,52-2.61-7.5-5.05-16.42-8.77-24.78-5.29-11.88-14.41-20.59-25.75-26.88-6.62-3.67-13.32-7.19-20.05-10.66-29.85-15.4-44-41.96-39.78-75.31,1.14-9.01,2.98-17.94,4.5-26.9.63.05,1.26.09,1.89.14Z"/>
  <path class="cls-2" d="M168.91,228.78c11.66,5.2,22.21,4.16,33.3-.98,17.8-8.25,35.61-17.17,54.35-22.51,25.28-7.2,51.12-3.32,76.56,2.31,19.95,4.42,37.29,14.29,54.1,25.17,4.88,3.16,8.67,8.06,12.8,12.32,4.91,5.07,6.36,5.23,11.48.28,16.35-15.82,35.56-27.53,56.87-34.59,28.98-9.6,58.99-13.29,88.85-3.87,13.82,4.36,27.46,10.16,40.09,17.25,12.85,7.21,25.12,11.64,39.49,4.88-1.14,5.86-5.56,10.17-11.53,11.59-7.48,1.77-14.26-.11-20.68-4-6.93-4.2-13.77-8.61-20.94-12.38-34.42-18.08-70.11-20.11-106.99-8.48-25.81,8.14-48.69,20.82-66.64,41.44-3.34,3.83-5.79,3.54-9.12-.14-29.71-32.82-67.42-47.77-111.06-49.05-17.26-.51-33.67,4.14-49.5,10.29-12.03,4.67-23.46,10.89-35.15,16.44-4.23,2.01-8.27,4.54-12.67,6.04-10.8,3.69-21.23-1.56-23.6-11.99Z"/>
  <path class="cls-2" d="M465.23,156.08c3.1-1.74,6.2-3.48,8.9-5-10.04-.92-20.51-1.89-30.98-2.85.05-.75.11-1.5.16-2.25,2.07,0,4.15-.14,6.2.02,11.32.91,22.68,1.53,33.94,2.93,14.79,1.84,17.57,5.17,22.34,22.99-1.45-7.66-2.43-15.47-4.66-22.9-.64-2.14-4.73-4.28-7.46-4.6-17.55-2.05-35.14-3.74-52.74-5.26-8.03-.69-9.86-1.47-15.38-9.48,4.19,0,8.07-.16,11.93.03,34.31,1.69,68.25,6.3,101.61,14.46,16.87,4.13,33.17,10.02,46.64,21.73,1.72,1.5,3.71,2.69,4.91,4.92-27.41-11.83-55.92-18.46-85.29-25.02,5.13,10.29,3.39,20.49,3.51,30.37.07,6.22-12.18,15.86-19.77,16.93-14.15,2.01-24.88-6.34-24.88-19.36,0-9.64,10.15-16.69,19.04-13.05,4.67,1.91,6.88,5.68,6.5,10.77-.33,4.32-3.22,6.52-7.1,6.84-1.93.16-4-1.29-6.01-2.01.11-.63.22-1.25.33-1.88,1.28-.36,3-.33,3.75-1.17,1.44-1.62,2.33-3.73,3.45-5.64-1.85-.94-3.83-2.86-5.52-2.64-6.96.93-10.76,8-8.38,14.71,2.13,6.01,7.33,10.01,13.33,10.2,7.55.23,13.05-3.55,17.31-9.32.7-.95.1-2.85-.14-4.27-2.07,6.09-6.4,9.64-12.33,10.89-6.21,1.31-11.4-1.21-15.2-6.13-1-1.3-.92-3.44-.56-5.66,4.98,6.21,10.48,8.65,17.79,5.43,5.96-2.62,7.96-7.12,5.68-13.17-2.83-7.51-12.82-13.72-20.27-12.61-7.04,1.05-13.65,9.42-14.03,17.75-.78,17.01,13.28,28.42,29.74,23.45,6.02-1.82,11.44-5.65,16.94-8.47,2.29,2.07,6.08,7.44,8.01,6.84,4.7-1.47,5.92,2.94,9.09,3.34-15.04,1.76-30.18,2.97-45.11,5.42-14.94,2.45-29.4,6.87-41.94,16.06-.31-.44-.61-.88-.92-1.32,3.19-2.39,6.15-5.23,9.63-7.08,9.26-4.92,14.05-11.94,14.44-20.98-3.12,4.2-6.14,10.25-10.92,14.13-4.84,3.93-12.93,1.14-17.92-5.22,2.49.37,4.06.33,5.43.84,6.47,2.41,12.24,1.17,15.34-4.81,2.6-5.01,5.52-10.97,5.02-16.2-.73-7.66.82-14.12,4.03-20.64.84-.69,1.68-1.38,2.52-2.07Z"/>
  <path class="cls-2" d="M62.68,598.17c-6.96-3.12-10.43-8.27-12.63-14.27-5.77-15.77-3.56-31.29,2.34-46.46,9.79-25.13,28.52-40,54.26-46.78,5.38-1.42,10.79-3.16,15.74-5.64,17.56-8.81,25.58-24.14,27.93-42.89.93-7.43,1.21-14.94,1.86-23.28,10.67,30.17,4.12,77.13-31.17,95.79-10.19,5.39-20.41,10.82-30.14,16.98-19.08,12.09-28.6,29.97-29.59,52.37-.19,4.4.83,8.85,1.39,14.19ZM59.85,587.9c.21-2.48.52-4.96.63-7.44,1.19-27.53,15.11-47.02,38.3-60.61,7.46-4.37,15.08-8.47,22.58-12.75,1.7-.97,3.25-2.22,4.87-3.34-10.88,3.51-21.35,7.5-31.16,12.75-21.49,11.5-35.88,28.65-39.53,53.49-.93,6.35-.23,12.47,4.31,17.9Z"/>
  <path class="cls-2" d="M278.69,761.84c-4.73-1.56-8.29-2.72-11.85-3.89-.37.5-.74,1-1.11,1.5,3.44,6.35,6.87,12.7,10.31,19.05-.29.19-.58.37-.87.56-6.19-7.71-12.55-15.29-18.54-23.15-12.09-15.86-21.22-33.07-23.08-53.37-3.01-32.78,9.43-59.09,33.79-80.34,3.93-3.43,8.1-6.6,12.18-9.86,1.27-1.01,2.56-2.66,3.92-2.75,3.78-.24,7.59.18,11.39.35-.49,2.79-.21,6.09-1.63,8.28-3.41,5.26-6.98,10.71-11.6,14.83-27.2,24.25-36.91,62.48-17.01,102.26,3.63,7.24,7.84,14.2,11.74,21.3.73,1.33,1.26,2.77,2.36,5.24Z"/>
  <path class="cls-2" d="M127.77,240.82c16.34,43.15,47.68,47,70.64,26.15-10.23,3.69-19.6,5.3-29.13,2.95-9.36-2.3-17.81-6.11-22.26-15.66,9.52,4.56,18.23,11.13,31.19,10.09-11.22-5.16-15.76-13.23-17.08-24.65,1.37,1.1,2,1.43,2.4,1.95,12.33,15.81,29.52,12.52,41.64,4.95,3.95-2.47,7.54-5.57,11.13-8.56,5.13-4.28,10.87-6.13,17.55-5.38,4.79.54,9.61.74,14.42,1.09.23.5.46,1,.69,1.5-3.91,2.06-7.61,4.92-11.77,6.03-15.16,4.03-24.55,14.23-31.72,27.43-3.5,6.44-7.76,12.47-11.23,19.44,1.75-1.23,3.81-2.19,5.2-3.74,3.13-3.48,6.4-6.97,8.77-10.96,5.95-10.02,15.18-13.85,26.09-14.95,2.67-.27,5.36-.45,8.61.29-1.59,1.11-3.07,2.42-4.78,3.28-9.84,4.95-17.89,11.87-24.81,20.48-13.65,16.97-31.95,19.73-51.39,13.8-18.86-5.76-29.43-20.06-33.16-39.19-1.03-5.3-.7-10.87-.99-16.32Z"/>
  <path class="cls-2" d="M567.31,256.83c10.98-4.4,21.21-1.93,32.89,1.67-11.46-11.42-21.49-21.9-38.67-18.93.04-.9.08-1.81.12-2.71,3.21-1.33,6.32-3.36,9.65-3.86,8.87-1.33,16.59,1.48,23.39,7.45,4.15,3.64,8.53,7.48,13.5,9.67,11.92,5.26,23.56,1.5,34.25-9.94,1.78,8.28-3.89,16.68-15.95,23.65.15.51.3,1.01.44,1.52,4.69-1.54,9.5-2.8,14.04-4.71,4.75-2,9.23-4.62,14.31-7.22-3.34,12.6-21.33,18.62-44.09,15.47,1.75,4.53,5.94,7.75,12.41,9.43,10.49,2.73,20.07.44,28.69-5.77,10.25-7.37,17.33-17.19,21.32-29.2.39-1.19.79-2.37,1.22-3.54.04-.1.26-.14.82-.42,1.9,9.52,1.13,18.58-2.38,27.5-9.89,25.1-34.82,37.97-58.79,29.62-5.56-1.94-11.51-5.27-15.17-9.7-9.37-11.34-16.56-24.7-32-29.99Z"/>
  <path class="cls-2" d="M591.2,731.56c7.58-23.06,5.83-45.07-7.67-65.66,1.31,4.67,2.71,9.31,3.93,14,6.99,26.94,1.52,51.4-14.98,73.52-1.11,1.49-3.57,1.96-5.4,2.91.06-1.92-.36-4.02.27-5.74,15.57-42.23,6.39-80.01-20.58-114.53-4.77-6.1-10.25-11.64-15.2-17.6-1.82-2.19-3.19-4.79-4.5-7.34-.36-.71-.06-2.34.52-2.77.55-.41,1.87.17,2.82.4.31.08.57.43.8.7,9.57,10.85,22.75,17.03,33.67,26.01,24.53,20.18,38.3,45.68,33.49,78.56-.89,6.09-3.54,11.92-5.38,17.87-.6-.12-1.19-.23-1.79-.35Z"/>
  <path class="cls-2" d="M667.89,659.81c4.51-17.7,4.55-34.3,1.28-50.96-3.47-17.7-11.9-32.74-24.52-45.47-3.93-3.97-8.07-7.75-12.28-11.42-17.54-15.32-25.66-35.27-28.54-57.79-.26-2.06-.04-4.18,1.25-6.75.75,1.4,1.72,2.72,2.2,4.2,8.01,24.68,24.01,42.79,44.81,57.92,31.36,22.8,41.91,60.57,28.58,95.67-2.36,6.22-6.29,10.53-12.79,14.61Z"/>
  <path class="cls-2" d="M596.43,137.65c-7.82,3.56-13.94,1.17-18.91-5.81,4.93,17.59,19.61,26.91,31.11,38.88-15.57-8.5-30.53-17.52-36.24-35.81-2.03-6.49-1.27-7.89,5.58-8.98"/>
  <path class="cls-2" d="M668.03,295.03c-.11,14.4-11.05,27.11-26.57,30.66-14.23,3.25-28.24,2.36-40.98-6.25-.21.4-.43.81-.64,1.21,3.3,2.46,6.48,5.09,9.92,7.35,3.55,2.33,7.35,4.3,11.13,6.48-2.46,4.81-5.16,6.06-9.92,4.33-14-5.08-22.91-14.57-26.48-28.98-.58-2.32-.36-4.84-.6-8.7,1.73,2.06,2.45,2.91,3.16,3.76.37-.16.75-.32,1.12-.48-1.99-5.4-2.91-11.64-6.27-15.98-3.43-4.42-9.26-6.98-15.16-11.15,3.24-.25,5.77-.91,8.15-.56,8.36,1.24,15.12,5.2,20.27,12.14,3.73,5.04,7.64,10.12,12.29,14.26,17.57,15.69,41.85,13.72,57.1-4.25.9-1.06,1.86-2.05,3.5-3.86Z"/>
  <path class="cls-2" d="M246.47,606.34c.11,1.61.05,3.4.41,5.11.36,1.72,1.15,3.34,2.06,5.86-4.28,2.53-8.63,5.29-13.17,7.74-11.78,6.35-22.98,13.28-31.98,23.58-12.45,14.25-16.57,30.77-15.32,49.12.13,1.97.37,3.93.62,6.57-3.81-2.84-5.68-9.32-12.45-4.38-.75-4.65-1.7-8.61-1.98-12.62-2.29-32.43,20.14-64.28,51.43-73.57,6.68-1.98,13.12-4.74,20.37-7.4Z"/>
  <path class="cls-2" d="M218.56,710.56c-.75-1.22-1.24-2.81-2.32-3.58-1.96-1.39-4.49-3.49-6.39-3.14-3.68.66-3.32,4.19-2.51,7.08,1.51,5.37,3.23,10.69,4.86,16.02.2.64.37,1.29.76,2.65-18.03-25.68-18.64-65.94,12.03-92.04,6-5.11,12.69-9.46,19.32-13.78,7.81-5.09,15.9-9.76,24.87-13.82-3.59,4.24-7.03,8.63-10.81,12.69-7.12,7.63-14.59,14.94-21.64,22.63-15.3,16.7-19.09,36.99-17.83,58.77.12,2.14.36,4.27.55,6.4-.29.04-.59.07-.88.11Z"/>
  <path class="cls-2" d="M218.94,303.55c.63-.22,1.25-.45,1.9-.68.07.4.28.81.16.99-15.23,23.04-46.21,32.05-69.75,17.87-9.69-5.84-14.58-14.49-15.09-27.33,1.96,2.14,3.04,3.19,3.97,4.36,13.3,16.69,32.87,20.5,50.89,8.95,6.71-4.3,12.67-10.12,18.01-16.1,8.19-9.17,18.24-13.79,30.16-15,1.56-.16,3.2.4,6.43.86-6.82,3.99-12.83,6.32-17.21,10.4-4.34,4.03-7.03,9.83-10.45,14.85.32.27.64.55.96.82Z"/>
  <path class="cls-2" d="M346.54,563.08c8.73-2.48,17.35-5.52,26.22-7.29,9.99-1.99,19.98-1.36,29.76,2.5,3.03,1.2,7.46,1.31,10.35-.03,10.98-5.1,21.77-3.85,32.73-.58,4.29,1.28,8.54,2.68,12.92,4.07-14.27,14.26-89.67,16.31-111.55,3.22-.14-.63-.28-1.26-.42-1.88Z"/>
  <path class="cls-2" d="M549.49,473.68c2.15,9.76,4.24,19.14,6.27,28.53.64,2.98,1.21,5.98,1.63,9,.56,4.08-.61,6.76-4.81,8.91-8.85,4.52-8.7,18.19-.25,24.57,1.85,1.4,3.33,3.31,4.97,4.98-2.53,1.84-4.81,4.41-7.64,5.35-5.59,1.86-12.4-1.56-15.04-6.71-10.82-21.14-5.26-55.6,11.66-72.04,1.23-1.19,2.68-2.16,3.2-2.57Z"/>
  <path class="cls-2" d="M148.41,553.78c-2.64,2.32-5.38,4.55-7.91,6.99-23.2,22.46-25.02,52.66-4.5,77.61,3.87,4.71,8.17,9.2,12.89,13.03,4.53,3.67,9.86,6.36,14.57,10.37-4.84-1.52-9.67-3.11-14.53-4.55-4.8-1.42-6.56.09-6.1,5.04-18.04-5.19-34.63-32.58-33.69-55.63.93-22.65,18.41-49.4,39.28-52.86Z"/>
  <path class="cls-2" d="M606.25,444.55c2.76,1.68,4.48,2.73,6.21,3.79.8-1.9,1.66-3.78,2.39-5.71,2.37-6.28,3.66-13.26,7.27-18.71,5.5-8.29,6.69-18.56,1.04-27.3-1.26-1.95-2.62-3.84-3.56-5.22,3.23-4.04,6.16-7.69,9.09-11.36,4.67,4.44,5.87,9.14,8.18,26.59,1.34-8.63,3.53-17.24,3.79-25.9.26-8.92-1.59-17.88-2-26.85-.1-2.11,1.33-5.58,2.94-6.23,3.74-1.51,3.69,2.49,4.1,4.61,4.68,23.97,2.38,47.01-9.83,68.54-1.84,3.25-4.15,6.43-6.87,8.96-5.75,5.34-8.24,11.88-9.5,19.43-.84,5.05-2.83,9.97-4.74,14.78-2.01,5.05-6,4.9-10.3,3.09-4.41-1.85-7.07-5.19-5.31-9.76,1.8-4.69,4.89-8.88,7.11-12.76Z"/>
  <path class="cls-2" d="M258,474.35c8.18,3.69,14.06,8.74,16.64,16.67,1.65,5.08,2.85,10.5,3.08,15.81.47,10.78.43,21.6.08,32.39-.36,11.36-6.89,16.34-18.15,14.63-1.88-.29-3.83-.04-5.74-.04-.77-1.97-1.56-3.98-2.03-5.2,3.49-2.16,8.1-3.66,10.46-6.84,2.38-3.19,3.21-7.98,3.52-12.16.65-8.68-2.69-14.41-7.86-15.94v-39.31Z"/>
  <path class="cls-2" d="M593.16,346.26c-.34,7.5-.67,14.99-1.01,22.49.16,0,.31.02.47.03.47-5.37,1.15-10.73,1.33-16.11.14-4.03,1.77-5.53,5.71-4.89,2.45.4,4.96.5,7.57.75.36,13.8-9.78,27.11-.12,40.94-2.05.36-3.39.59-5.51.96.85,2.73,1.05,5.64,2.5,7.64,6.93,9.55,5.62,19.77,2.81,30.07-.91,3.35-2.82,6.43-5.27,9.63-1.08-13.41-2.03-26.59-12.31-37l1.81-.82c2.08,1.7,4.16,3.4,6.24,5.1.56-.15,1.12-.3,1.68-.45-13.74-18.44-16.68-37.88-7.72-58.39l1.82.05Z"/>
  <path class="cls-2" d="M146.51,342.92c-5.36,7.24-10.72,14.49-16.08,21.73.35.26.7.52,1.06.78,5.59-4.37,11.19-8.74,18.08-14.13-.95,7.66-.1,13.95-5.72,18.87-6.36,5.57-12.31,11.6-18.45,17.43-11.68,11.1-26.34,14.86-41.81,16.86,10.22-5.31,19.05-12.3,26.04-21.36,5.27-6.83,9.71-14.31,15.12-21.03,4.92-6.11,10.55-11.66,16.07-17.27,1.28-1.3,3.35-1.83,5.06-2.71l.63.82Z"/>
  <path class="cls-2" d="M207.49,357.84c1.03-2.44,1.89-7.59,3.57-7.88,5.08-.87,5.18,4.41,6.1,7.79,4.11,15.2.57,28.88-8.74,41.31-3.58,4.78-6.27,9.92-5.87,16.46,4.06-4.66,7.89-9.05,11.46-13.14-.88,12.52-1.74,24.93-2.61,37.34-.59.19-1.17.38-1.76.58-1.27-1.71-2.8-3.28-3.74-5.16-2.39-4.77-5.18-9.49-6.56-14.57-1.31-4.83-1.24-10.08-1.36-15.15-.04-1.66.89-3.59,1.91-5,11.17-15.35,5.55-30.87.62-46.4-.38-1.19-.97-2.31-1.49-3.52q4.19-.08,8.46,7.34Z"/>
  <path class="cls-2" d="M723.04,405.81c-16.75-2.73-32.59-9.94-45.1-23.83-4.94-5.48-10.18-10.69-15.23-16.08-1.77-1.88-4.66-3.67-1.98-6.74,2.46-2.82,5.24-2.65,7.99-.16,1.03.93,2.2,1.72,4.28,1.7-4.49-5.66-8.97-11.32-13.46-16.98.14-.25.29-.51.43-.76,1.83.87,3.77,1.56,5.47,2.63,9.4,5.87,15.88,14.45,21.98,23.47,4.63,6.85,9,14.1,14.75,19.91,6.46,6.54,14.34,11.66,20.87,16.83Z"/>
  <path class="cls-2" d="M232.38,170.92c17.81-8.07,36.55-12.89,55.7-16.09,1.31,7.77,2.64,15.35,3.83,22.96.18,1.18-.08,2.54-.5,3.68-3.92,10.8-19.43,17.49-29.75,12.9-6.63-2.94-10.68-9.02-10.43-15.62.29-7.55,2.98-10.99,11.24-13.89,2.36-.83,4.86-1.46,7.34-1.68,6.92-.61,12.35,3.22,13.29,9.1,1.2,7.48-3.03,13.95-10.11,15.48-1.01.22-2.02.43-3.63.77,7.57,1.69,13.37-2.35,15.63-10.28,2.06-7.22-1.3-14.03-8.16-16.65-6.12-2.34-12.12-1.37-17.9.99-3.98,1.62-7.81,3.7-11.54,5.85-4.81,2.77-9.57,5.1-15.18,2.31l.16.17ZM262.27,175.62c2.1,3.05,3.49,6.77,6.17,8.52,3.72,2.45,7.58.2,10.66-2.66.57-.53.91-1.32,1.44-2.1-1.63.42-2.93.74-2.98.76-.9-4.17-.56-9.1-2.63-10.51-2.4-1.64-6.92-.31-10.5-.05-.98.07-1.95.9-2.84,1.5-5.16,3.47-6.93,8.19-4.87,12.87,2.67,6.07,8.46,9.38,14.36,8.2-11.6-4.81-14.77-11.75-8.79-16.53Z"/>
  <path class="cls-2" d="M167.47,346.65c.37,2.86,1.62,5.95.97,8.55-5.32,21.13-2,41.61,4.64,61.71,3.08,9.32,7.55,18.01,18.2,21.3,1.54.48,2.81,2.62,3.69,4.27,2.71,5.06,5.24,10.21,7.68,15.41.73,1.55,1.45,3.43,1.24,5.04-.64,4.72-6.7,6.97-10.88,3.86-2.05-1.53-3.95-3.88-4.82-6.26-1.53-4.19-2.87-8.65-3.11-13.07-.38-6.98-3.4-12.36-7.91-17.27-1.82-1.98-4-3.9-5.05-6.27-9.97-22.52-15.74-45.67-9.46-70.38.6-2.38,1.89-4.58,2.86-6.86.65,0,1.31-.02,1.96-.03Z"/>
  <path class="cls-2" d="M542.09,161.38c1.04,1.85,1.16,2.38,1.5,2.63,10.39,7.83,7.97,17.1,1.33,25.95-5.14,6.85-17.31,7.6-25.16,2.05-3.74-2.64-6.03-6-5.96-10.85.13-8.99.04-17.98.04-28.4,15.63,4.23,31.53,8.54,47.43,12.85-.17.91-.34,1.82-.5,2.73-3.05-.58-6.23-.79-9.11-1.83-2.91-1.05-5.53-2.91-9.57-5.13ZM538.92,162.16c-5.83-3.37-11.87-3.11-16.31.48-4.72,3.81-7.76,14.24-5.79,19.83,1.96,5.54,8.06,10.17,13.46,10.21,6.33.04,13.32-6.1,14.72-13.09,1.45-7.24-4.16-8.4-8.98-10.2-.5-.19-1-.87-1.37-.79-2.62.61-5.82.69-7.62,2.3-1.36,1.21-1.8,4.73-1.14,6.71,2.01,6.05,7.3,7.75,13.2,4.84-2.65,4.6-7,7.19-10.64,6.31-4.57-1.09-8.93-6.92-9.45-12.74-.47-5.21,2.12-8.87,6.68-10.61,4.09-1.56,8.55-2.14,13.25-3.25Z"/>
  <path class="cls-2" d="M674.47,419.66c1.74,5.8,3.46,11.61,5.22,17.4,5.42,17.84,15.57,31.36,33.51,38.54,9.36,3.74,18.6,8.29,24.47,17.14,2.61,3.94,4.5,8.35,6.99,13.06-1.61,0-2.07.13-2.19-.02-9.02-10.68-20.36-18.07-32.84-24.18-25.54-12.52-35.68-34.3-35.16-61.93Z"/>
  <path class="cls-2" d="M277.84,198.97c6.06-4.4,11.24-8.15,16.72-12.13,2.77,1.71,5.86,3.5,8.83,5.47,10.51,6.96,24.33,6.95,34.79-.27,2.87-1.98,4.7-.87,5.17,1.86,1.52,8.92,7.66,12.27,15.55,14.22,2.74.68,5.15,2.64,7.55,4.56-28.44-9.6-57.49-14.74-88.61-13.72Z"/>
  <path class="cls-2" d="M122.68,440.19c-1.87,5.64-3.12,11.59-5.76,16.84-5.32,10.61-14.11,17.92-24.43,23.67-8.77,4.89-17.32,10.2-25.76,15.64-3.57,2.3-6.63,5.41-9.88,8.12.42-1.58.73-3.93,1.66-6.01,4.53-10.14,12.56-16.87,22.78-20.2,18.19-5.92,31.09-16.82,37.02-35.35.41-1.27,1.35-2.37,2.05-3.55.77.28,1.54.56,2.32.84Z"/>
  <path class="cls-2" d="M612.46,93.96c-9.52,11.52-19.96,21.82-35.5,25.25-3.51.77-4.99-1.15-5.43-4.31-.76-5.38,2.4-10.69,8.61-12.87,10.31-3.61,20.8-6.72,31.22-10.04.37.66.74,1.31,1.1,1.97Z"/>
  <path class="cls-2" d="M313.05,512.81c11.33-11.94,22.65-23.87,34.08-35.91,3.39,7.15,6.32,13.31,9.52,20.06-14.63,2.92-29.66,7.31-42.47,17.02-.38-.39-.75-.78-1.13-1.17Z"/>
  <path class="cls-2" d="M190.86,432.26c-15.44-5.43-22.5-33.76-13.19-47.5,4.39,1.62,8.71,3.21,13.31,4.91-.03-.34.14.12,0,.24-9.29,8.07-10.35,17.37-4.88,28.15,2.12,4.18,3.06,8.97,4.77,14.2Z"/>
  <path class="cls-2" d="M488.11,508.29c-12.66-4.22-24.52-8.17-36.11-12.03,2.03-5.77,4.06-11.51,6.27-17.78,12.14,6.64,19.95,18.79,29.84,29.81Z"/>
  <path class="cls-2" d="M232.22,170.75c2.11,1.24,4.13,2.66,6.33,3.69,10.3,4.82,14.37,16.81,8.22,26.39-1.75,2.73-5.41,4.65-8.59,5.95-5.96,2.44-12.22,4.16-19.52,6.57,1.7-3.5,2.97-6.09,4.06-8.35,3.62.9,6.94,1.73,10.26,2.55.13-.42.25-.83.38-1.25-1.51-.47-3.02-.93-4.54-1.4,8.59.12,13.72-4.28,16.58-12.01,1.44-3.89.7-6.73-2.58-9.49-6.82-5.73-13.83-6.06-21.57-2.16-2.04,1.03-4.58,1.07-7.19.66,4.96-5.95,10.22-10.93,18.31-10.98-.01-.01-.17-.18-.17-.18Z"/>
  <path class="cls-2" d="M187.2,339.13c7.89-4.83,16.23-8.38,22.49-14.19,6.25-5.81,10.42-13.87,15.94-21.56.37,1.33.74,1.96.68,2.54-1.38,13.35-13.68,33.29-31.29,35.98-3.55.54-6.45.28-7.82-2.77Z"/>
  <path class="cls-2" d="M437.27,521.27c.23.57.46,1.14.68,1.7,2.84,4.96,5.72,9.9,8.5,14.9,1.89,3.4,3.64,6.89,5.68,10.78-8.27-3.67-16.26-7.11-21.88-14.35-3-3.87-4.88-7.6-.68-11.92,1.08-1.1,1.58-2.77,2.81-5.01,1.81,1.44,3.35,2.67,4.89,3.9Z"/>
  <path class="cls-2" d="M191.95,202.2c-2,.51-3.7.94-6.18,1.57,6.04-5.62,11.3-11.01,17.09-15.75,6.05-4.96,13.54-2.34,16.12,5.12,2.61,7.59-5.32,19.64-13.32,20.23-6.33.47-10.17-2.57-13.71-11.18ZM215.99,196.87c-2.62-3.2-4.41-6.29-7.05-8.2-1.21-.87-5.34-.1-6,1.1-2.26,4.14-4.24,8.7-4.95,13.31-.31,1.99,2.28,5.32,4.4,6.48,1.52.83,5.24-.22,6.59-1.7,2.66-2.89,4.35-6.66,7.01-11Z"/>
  <path class="cls-2" d="M427.03,538.85c-15.29,10.13-26.46,10.74-35.78,1.22,2.85-1.93,5.53-3.86,8.33-5.57.56-.34,2.1-.19,2.38.25,4.11,6.48,9.1,2.07,13.25.65,6.8-2.32,7.45-2.55,11.81,3.44Z"/>
  <path class="cls-2" d="M584.6,188.55c-.13,7.49-3.25,12.9-8.01,13.89-4.5.93-10.29-2.84-13.47-9.04-1.99-3.87-3.99-7.94-.52-12.05,3.15-3.74,11.34-5.99,15.38-4.16,4.82,2.19,6.73,6.22,6.62,11.36ZM572.96,180.53c-3.28.75-7.87.48-8.9,5.5-.72,3.54,5.68,9.61,9.56,9.53,3.51-.07,7.13-4.12,7.29-8.17.15-3.84-3.02-6.76-7.95-6.85Z"/>
  <path class="cls-2" d="M594.06,143.6c6.57-3.25,16.83,4.46,23.32,0,6.6-4.53-4.93-25.93,0-32.2"/>
  <path class="cls-2" d="M589.13,185.37c-.59-1.52-.83-3.35-1.83-4.52-11.36-13.24-20.47-9.69-30.47,1.9-1.36,1.57-3.05,2.85-5.16,3.66,2.57-9.93,10.14-14.94,18.41-19.25.45-.23,1.19-.44,1.54-.23,7.38,4.4,14.68,8.9,20.32,15.44-.94,1-1.88,2-2.82,2.99Z"/>
  <path class="cls-2" d="M602.27,186.96c-7.13,5.89-10.87,12.54-5.3,20.29,5.15,7.16,11.25,1.34,17.09-.41-2.22,5.06-8.36,8.23-13.09,7.05-6.09-1.53-11.09-7.91-10.85-13.86.27-6.68,4.76-11.89,12.14-13.07Z"/>
  <path class="cls-2" d="M246.52,541.76c1.81-8.19,8.39-12.59,12.9-19.36,2.73,5.88,3.63,10.95.28,15.92-3.11,4.61-7.75,4.38-13.18,3.44Z"/>
  <path class="cls-2" d="M564.73,539.3c-.88,1.15-2.88,4.38-3.27,4.19-3.23-1.51-6.17-3.65-9.16-5.65-.22-.14-.18-.67-.25-1.02-.95-4.53,1.24-11.01,4.17-11.2,5.3-.34,5.72,4.51,7.29,7.89.66,1.41.69,3.12,1.22,5.78Z"/>
  <path class="cls-2" d="M465.23,156.08c-.84.69-1.68,1.38-2.52,2.07-7.79,8.64-8.98,9.51-16.8-2.06-.48-.72-.81-1.54-1.7-3.26,7.57.76,14.6-.55,21.03,3.25Z"/>
  <path class="cls-2" d="M378.16,218.36c3.62,3.04,9.9,1.36,10.64,8.37-5.31-2.65-10.47-4.63-14.86-7.71-2.03-1.42-2.81-4.94-3.48-7.68-.12-.5,3.27-2.87,4.52-2.51,2.61.74,5.55,2.21,7.12,4.3,2.87,3.82-1.32,3.99-3.93,5.23Z"/>
  <path class="cls-2" d="M131.1,522c14.73-12.71,25.43-28.03,30.7-46.89-3.38,20.09-12.86,36.21-30.7,46.89Z"/>
  <path class="cls-2" d="M582.68,207.51c-1.36.56-2.85,1.8-4.05,1.56-4.91-.97-9.92-1.93-14.55-3.75-9.24-3.63-11.27-10.87-6.04-19.77.25,14.46,10.64,23.47,23.93,20.76.24.4.48.8.71,1.2Z"/>
  <path class="cls-2" d="M224.81,186.86c.94,2.06,1.59,4.33,2.9,6.13,2.84,3.92,5.63,3.96,9.36.82,1.29-1.09,2.99-1.7,5.24-2.94-.1,5.68-2.85,8.82-6.41,9.31-2.98.4-6.65-1.35-9.38-3.13-1.88-1.23-3.01-4-3.83-6.31-.42-1.19.55-2.87.89-4.33.41.15.82.3,1.24.45Z"/>
  <path class="cls-2" d="M428.84,215.27c.7,1.44,1.39,2.88,2.53,5.25,1.66-4.26,2.86-7.31,4.05-10.36.47.18.94.37,1.41.55.95,9.07-.39,10.62-16.03,19.35,2.35-2.08,4.71-4.16,6.94-6.14v-8.85c.37.06.73.13,1.1.19Z"/>
  <path class="cls-2" d="M639.05,476.26c4.95,10.06,10.32,20.95,15.85,32.19-8.38-9.77-13.67-20.64-15.85-32.19Z"/>
  <path class="cls-2" d="M723.04,634c-4.85,1.33-9.69,2.66-15.02,4.12-.51-4.5-.59-6.83,4.1-6.04,3.41.58,7.01.11,10.52.11.13.6.26,1.2.4,1.81Z"/>
  <path class="cls-2" d="M231.26,183.56c5.15-2.36,8.7-.72,10.8,5.55-3.77-1.94-7.39-3.8-10.8-5.55Z"/>
  <path class="cls-2" d="M695.55,566.75c-3.02-3.31-6.05-6.62-9.07-9.93.16-.15.31-.31.47-.46,3.27,3.07,6.54,6.15,9.81,9.22-.4.39-.8.78-1.21,1.17Z"/>
  <path class="cls-1" d="M312.57,409.5c-12.34,5.8-29.12,8.43-40.75-5.73-1.6-1.95-3.28-3.84-4.82-5.83q-5.06-6.52-12.49-2.69c1.24-2,2.11-3.4,3.14-5.06-1.55,0-2.89-.09-4.21.03-1.4.13-2.78.45-4.67-.2,2.37-1.63,4.74-3.25,6.99-4.79-5.71-2.06-11.31-4.07-16.9-6.09.15-.4.31-.81.46-1.21l14.05,3.09c.17-.63.33-1.27.5-1.9-1.19-.47-2.38-.96-3.57-1.41-9.02-3.46-17.1-14.58-17.22-23.81-.01-.83.2-1.93.75-2.45,8.27-7.84,14.01-18.28,25.38-22.99,7.54-3.13,14.36-3.02,21.19.91,4.68,2.7,9.23,5.67,13.64,8.79,16.12,11.41,34.04,18.99,53.02,23.78,7.37,1.86,15.41,2.46,23,1.82,15.42-1.29,22.1-15.16,13.22-27.84-4.41-6.31-11.08-11.11-17.02-16.25-3.36-2.91-7.33-5.12-11.84-8.21,18.83,2.49,34.26,19.52,36.15,38.47.28,2.82,1.75,5.52,2.66,8.27,2.33-2.28,5.5-4.17,6.81-6.94,2.21-4.67,3.3-9.88,4.75-14.9.68-2.36,1.12-4.79,1.66-7.18l1.52.18c-.53,5.14-1.27,10.27-1.52,15.42-.17,3.36-.15,6.91.78,10.08.54,1.83,3.06,3.08,4.7,4.59,1.19-1.78,3.3-3.49,3.42-5.34.75-10.99,4.97-20.36,12.92-27.78,6.42-5.99,13.44-11.32,20.2-16.95.44.42.87.85,1.31,1.27-1.33,1.38-2.58,2.84-3.99,4.13-4.4,4.01-9.15,7.68-13.18,12.02-3.14,3.38-5.99,7.31-7.93,11.47-4.88,10.49-.49,20.95,10.26,25.31,1.72.7,3.87.66,5.78.51,24.84-1.84,47.54-9.83,68.21-23.74,5.68-3.82,11.56-7.39,17.57-10.67,9.4-5.13,18.75-4.57,27.58,1.52,3.85,2.66,7.72,5.4,11.11,8.6,11.63,11.02,8.64,27.99-6.01,34.97-2.25,1.07-4.59,1.97-6.76,4.18,4.06-.18,8.12-.37,12.18-.55.18.48.36.97.54,1.45-5.14,1.91-10.29,3.81-14.53,5.38,1.09.4,3.36,1.24,7.68,2.83-7.31.44-4.62,3.89-4.09,6.61-.42.24-.83.48-1.25.72-.72-1.11-1.28-2.39-2.2-3.3-2.67-2.65-4.98-3.03-7.28.8-1.84,3.06-4.3,5.78-6.69,8.48-11.95,13.5-22.89,16.12-40.42,9.65,4.36,0,8.54.47,12.56-.13,4.2-.63,8.6-1.67,12.27-3.69,3.49-1.92,6.16-5.33,8.67-8.72-16.94,5.05-33.08,12.1-52.44,8.16,3.9,8.75,7.25,16.28,10.6,23.8-.59.43-1.17.86-1.76,1.29-14.79-8.83-29.27-18.15-41.73-29.51-2.7,5.91-5.17,11.33-7.65,16.76-.41-.19-.82-.38-1.23-.57,3.15-12.25,2.38-15.73-5.17-19.43-4.39,20.5-5.3,41.21-9.07,61.61-.15-2.06-.54-4.13-.41-6.17.96-15.29,2.04-30.57,3.04-45.85.22-3.4.76-6.86.36-10.2-.48-4.06-2.33-7.32-6.71-5.89,3.95-4.19,8.26-8.77,12.58-13.35-.37-.49-.75-.97-1.12-1.46-6.38,3.5-11.32,10.17-19.88,8.75-6.93-1.15-14.78,1.95-20.66-4.28,6.27.81,12.32,1.87,18.4,2.24,2.54.16,5.5-.58,7.71-1.87,9.06-5.33,8.71-5.27,3.31-14.4-.87-1.47-3.36-2.14-5.24-2.8-1.12-.39-2.54.15-3.76-.07-8.43-1.58-14.18,1.22-16.88,9.72-1.46,4.6-5.33,4.73-9.49,3.99,1.46,7.7,6.7,11.22,13.32,13.4-7.63-1.48-13.19,2.44-13.81,10.84-.36,4.92.86,9.98,1.59,14.94,1.79,12.08,3.72,24.14,5.59,36.21-.6.1-1.2.21-1.8.31-3.35-16.99-6.7-33.98-10.23-51.92-2.83,3.65-5.24,6.78-7.66,9.9-.41-.13-.82-.25-1.23-.38v-10.33c-2.29,1.06-3.8,1.58-5.11,2.41-16.44,10.42-32.85,20.89-49.28,31.33-11.65,7.4-21.08,16.46-23.15,32.69-.82-9.09,1.79-17.58,7.46-22.92,5.59-5.26,11.83-9.83,18.26-15.1h-9.5c-.09-.31-.19-.61-.28-.92,4.44-2.74,8.97-5.35,13.29-8.27,4.45-3.01,8.57-6.42,10.14-11.56-6.13,0-11.89,0-17.65.02-14.44-4.22-29.54-7.22-38.88-20.6-1.25,7.47,2.75,17.21,9.27,19.53,9.63,3.42,19.62,4.34,29.62,1.02ZM512.57,387.33c-1.31.46-2.58,1.18-3.93,1.35-4.28.54-8.57,1.03-12.87,1.25-4.11.21-8.24.04-12.36.04,14.11,4.56,27.72,3.09,40.77-3.32,3.09-1.52,6.05-3.68,4.97-9.1-3.28,2.45-5.82,4.69-8.67,6.39-2.5,1.48-5.35,2.36-8.05,3.5,3.96-2.26,8.66-3.99,8.56-9.67-.03-1.53-.85-3.51-1.99-4.4-.7-.54-2.86.33-4.08,1.05-1.19.71-1.98,2.06-3.01,3.07-11.03,10.78-20.84,11.25-32.05.6-3.82-3.63-6.65-3.24-10.31-.88-2.17,1.4-4.33,2.82-6.72,4.38,16.5,6.52,32.79,9.28,49.74,5.75ZM284.04,385.91c15.29,2.68,30.61,4.41,45.99.84,2.58-.6,5.27-1.48,7.42-2.95,1.61-1.1,3.52-3.52,3.29-5.06-.22-1.49-2.92-3.48-4.68-3.64-2.09-.19-4.91.74-6.44,2.21-12.68,12.19-22.96,11.72-33.3-2.16-3.48-4.66-6.41-1.52-9.12.2-3.66,2.32-.43,4.25,1.1,5.93,1.12,1.23,2.65,2.09,4,3.12-5.95.38-7.89-7.82-15.69-5.18,2.13,2.59,3.65,4.44,5.18,6.3,1.81,1.53,3.37,3.8,5.45,4.48,17.82,5.83,35.48,4.44,50.13-.61-11.69.11-26.2.54-40.7.2-4.24-.1-8.42-2.39-12.63-3.68ZM266.44,370.21c11.39-2.47,22.79-4.94,35.17-7.63-12.71-4.3-30.16-.98-35.17,7.63ZM539.95,370.1c-4.53-8.77-21.73-12.61-29.85-7.97,9.54,2.55,19.13,5.11,29.85,7.97ZM507.57,376.16c-8.93,3.24-9.63,3.19-22.36-2.78.87,2.79.89,4.78,1.9,5.76,5.7,5.59,12.39,6,18.37,1.17,1.1-.89,1.41-2.74,2.09-4.15ZM324.27,375.11q-9.02,3.33-17.64.58c-.74-.24-2.14-.26-2.37.13-.47.8-.83,2.44-.4,2.86,1.73,1.66,3.59,3.72,5.76,4.29,5.3,1.39,11.16-1.86,14.66-7.85Z"/>
  <path class="cls-1" d="M250.03,322.92c3.95-5.55,7.66-11.29,11.9-16.6,6.15-7.71,14.5-9.18,23.16-4.47,2.05,1.11,4.14,2.31,5.85,3.87,16.79,15.29,36.14,26.86,55.52,38.39,2.05,1.22,3.87,2.83,5.79,4.27-.29.64-.57,1.28-.86,1.93-3.65-1.29-7.8-1.87-10.88-3.99-16.3-11.23-32.86-22.18-48.29-34.52-14.85-11.88-20.03-12.04-32.38,2.83-2.71,3.27-6.05,6.01-9.11,9l-.7-.71Z"/>
  <path class="cls-1" d="M558.86,325.96c-1.9-2.28-3.78-4.58-5.72-6.83-3.74-4.35-7.06-9.21-11.38-12.88-6.97-5.92-13.39-5.78-20.62-.19-5.83,4.51-11.06,9.83-17.01,14.17-11.91,8.7-24.04,17.09-36.26,25.36-2.84,1.92-6.37,2.82-9.58,4.2-.34-.5-.69-1.01-1.03-1.51,1.31-1.14,2.54-2.38,3.94-3.4,17.99-13.2,36.07-26.27,53.98-39.58,13.14-9.76,25.57-8.49,35.73,4.47,3.66,4.67,6.45,10.02,9.63,15.07l-1.68,1.13Z"/>
  <path class="cls-1" d="M360.27,291.33c31.13,6.45,62.29,4.15,93.46.18-31.1,9.49-62.23,12.25-93.46-.18Z"/>
  <path class="cls-1" d="M328.73,287.68c-18.27-.53-35.26-10.66-54.08-5.35,3.12-4.27,6.26-6.2,11.99-4.95,14.11,3.08,28.07,6.82,42.09,10.3Z"/>
  <path class="cls-1" d="M387.5,313.49h34.41c-9.22,6.62-26.17,6.6-34.41,0Z"/>
  <path class="cls-1" d="M536.57,286.7c-14.19-10.54-28.72-2.53-43.35-1.92,8.3-2.26,16.52-4.93,24.93-6.65,7.25-1.48,13.4,1.73,18.42,8.57Z"/>
  <path class="cls-1" d="M413.09,33.38c-9.13-.3-12.53,1.44-14.85,7.15-2.74,6.75-1.03,16.67,3.77,20.63,3.9,3.22,8.37,3.5,12.58.92,4.27-2.62,4.3-6.98,2.62-11.04-1.25-3.01-3.46-5.63-5.14-8.26,4.83,1.6,8.64,6.82,8.82,12.3.17,5.33-2.93,10.82-7.01,12.41-4.63,1.81-11.85.05-15.48-3.76-7.33-7.71-7.35-20.87-.04-28.56,4.34-4.56,9.52-5.39,14.73-1.8Z"/>
  <path class="cls-1" d="M405.99,229.93c-3.62-5.53-7.59-10.86-10.78-16.63-3.65-6.61-6.85-13.5-9.81-20.46-4.73-11.1-13.31-15.51-24.89-15.25-2.14.05-4.29,0-8.33,0,3.38-4.85,5.8-8.87,8.76-12.44,6.21-7.49,12.81-14.65,19.07-22.1,8.67-10.32,17.17-20.79,26.13-31.66,12.88,22.41,25.8,44.88,46.63,62.6-2.9,1.21-5.02,2.43-7.31,3-9.92,2.47-16.15,9.08-20.41,17.9-4.38,9.08-8.47,18.31-13,27.32-1.48,2.95-3.96,5.41-5.97,8.09.63-2.58.95-5.29,1.95-7.73,6.45-15.85,12.94-31.69,19.68-47.42,1.48-3.45.14-4.33-2.58-5.19-6.3,17.63-12.49,34.95-18.68,52.27l-1.83.17c-4.89-13.85-9.96-27.63-14.62-41.55-4.56-13.62-4.4-13.7,7.35-22.13,1.96-1.41,4.15-2.49,6.24-3.72.46.42.93.83,1.39,1.25-12.58,7.76-12.77,18.24-7.87,30.18,2.66,6.48,4.76,13.22,6.69,19.97.82,2.87.57,6.06.81,9.1,1.21-.82,1.73-1.69,1.92-2.62.64-3.22.89-6.53,1.78-9.67,2.99-10.52,6.2-20.98,9.32-31.47,2.77-9.32-1.75-15.29-9.03-20.2-2.32-1.57-3.76-1.69-6.05.23-5.8,4.85-12.09,9.12-17.91,13.95-4.43,3.67-8.91,3.8-14.11,2.11-1.96-.64-4.4.24-6.63.42,5.33,3.01,10.52,4.55,15.47,6.64,1.98.84,4.22,2.54,5.05,4.42,7.36,16.8,14.43,33.72,21.59,50.61ZM375.33,164.79c1.16-.35,2.42-.51,3.46-1.09,9.39-5.26,18.74-10.6,28.83-16.33,9.63,7.27,19.15,16.72,33.81,18.15-5.19-3.34-10.01-5.8-14.05-9.2-3.91-3.29-7.01-7.54-10.46-11.37l1.62-1.49c1.54,2.09,3.08,4.17,5.4,7.32-6.53-11.81-12.33-22.3-17.96-32.49-9.37,12.22-18.86,24.6-28.36,36.99.33.37.66.74.99,1.11,9.49-7.49,18.99-14.99,28.86-22.78-.24,1.09-.2,2.02-.62,2.66-8.01,12.25-20.12,19.84-31.52,28.53Z"/>
  <path class="cls-2" d="M405.99,229.93c-7.16-16.89-14.23-33.81-21.59-50.61-.82-1.88-3.06-3.59-5.05-4.42-4.95-2.09-10.13-3.63-15.47-6.64,2.22-.19,4.67-1.06,6.63-.42,5.2,1.69,9.68,1.56,14.11-2.11,5.82-4.83,12.1-9.1,17.91-13.95,2.3-1.92,3.73-1.8,6.05-.23,7.28,4.91,11.81,10.88,9.03,20.2-3.12,10.49-6.33,20.95-9.32,31.47-.89,3.14-1.14,6.45-1.78,9.67-.19.94-.71,1.81-1.92,2.62-.24-3.04.01-6.23-.81-9.1-1.93-6.75-4.03-13.49-6.69-19.97-4.9-11.93-4.7-22.41,7.87-30.18-.46-.42-.93-.83-1.39-1.25-2.09,1.23-4.28,2.31-6.24,3.72-11.75,8.43-11.91,8.52-7.35,22.13,4.67,13.92,9.73,27.71,14.62,41.55l1.83-.17c6.19-17.32,12.38-34.63,18.68-52.27,2.71.86,4.05,1.74,2.58,5.19-6.74,15.73-13.23,31.57-19.68,47.42-.99,2.44-1.31,5.14-1.95,7.73-.02-.25-.05-.37-.09-.38ZM408.86,196.88c6.84-14.76,7.17-28.86.36-34.43,4.1,4.71,4.64,9.42,3.02,14.32-1.4,4.23-3.17,8.34-4.91,12.45-1.17,2.79-3,5.56,1.53,7.67Z"/>
  <path class="cls-1" d="M59.85,587.9c-4.54-5.43-5.24-11.55-4.31-17.9,3.65-24.85,18.04-41.99,39.53-53.49,9.81-5.25,20.28-9.24,31.16-12.75-1.62,1.12-3.17,2.37-4.87,3.34-7.51,4.29-15.12,8.38-22.58,12.75-23.2,13.59-37.11,33.08-38.3,60.61-.11,2.49-.41,4.96-.63,7.44Z"/>
  <path class="cls-1" d="M262.27,175.62c-5.97,4.78-2.81,11.72,8.79,16.53-5.9,1.18-11.68-2.13-14.36-8.2-2.06-4.67-.28-9.4,4.87-12.87.89-.6,1.86-1.42,2.84-1.5,3.58-.27,8.1-1.6,10.5.05,2.07,1.41,1.73,6.34,2.63,10.51.06-.01,1.35-.34,2.98-.76-.52.78-.86,1.57-1.44,2.1-3.08,2.85-6.93,5.1-10.66,2.66-2.68-1.76-4.07-5.48-6.17-8.52ZM272.38,177.19c.58.08,1.16.16,1.74.23.11-1.72.96-4.07.16-5-1.13-1.31-3.49-1.56-5.32-2.27-.1.38-.2.76-.3,1.15,1.24,1.96,2.48,3.93,3.73,5.89Z"/>
  <path class="cls-1" d="M538.92,162.16c-4.7,1.11-9.16,1.69-13.25,3.25-4.56,1.74-7.15,5.41-6.68,10.61.52,5.82,4.88,11.64,9.45,12.74,3.64.87,7.99-1.71,10.64-6.31-5.89,2.91-11.19,1.21-13.2-4.84-.66-1.99-.22-5.5,1.14-6.71,1.8-1.61,4.99-1.69,7.62-2.3.37-.09.87.6,1.37.79,4.82,1.81,10.43,2.96,8.98,10.2-1.4,6.99-8.39,13.13-14.72,13.09-5.4-.04-11.5-4.67-13.46-10.21-1.97-5.58,1.07-16.01,5.79-19.83,4.44-3.59,10.49-3.84,16.31-.48ZM537.95,177.78c.28-.76.56-1.51.84-2.27-2.5-.77-5-1.56-7.54-2.19-.06-.01-.56,1.79-.86,2.74,2.52.57,5.04,1.15,7.56,1.72Z"/>
  <path class="cls-1" d="M215.99,196.87c-2.66,4.34-4.35,8.11-7.01,11-1.36,1.48-5.08,2.53-6.59,1.7-2.12-1.16-4.71-4.5-4.4-6.48.72-4.61,2.69-9.17,4.95-13.31.66-1.2,4.79-1.98,6-1.1,2.64,1.91,4.43,5,7.05,8.2Z"/>
  <path class="cls-1" d="M572.96,180.53c4.93.09,8.1,3.01,7.95,6.85-.16,4.05-3.77,8.11-7.29,8.17-3.88.08-10.29-5.99-9.56-9.53,1.03-5.02,5.62-4.75,8.9-5.5Z"/>
  <path class="cls-2" d="M281.79,385.52c-1.52-1.85-3.05-3.7-5.18-6.3,7.8-2.64,9.74,5.56,15.69,5.18-1.35-1.03-2.88-1.89-4-3.12-1.53-1.68-4.76-3.62-1.1-5.93,2.71-1.72,5.65-4.86,9.12-.2,10.34,13.88,20.62,14.34,33.3,2.16,1.52-1.46,4.34-2.4,6.44-2.21,1.76.16,4.45,2.15,4.68,3.64.23,1.53-1.68,3.95-3.29,5.06-2.15,1.47-4.84,2.35-7.42,2.95-15.38,3.57-30.7,1.84-45.99-.84-.75-.13-1.5-.26-2.25-.39Z"/>
  <path class="cls-2" d="M512.6,387.31c-16.98,3.55-33.27.78-49.77-5.73,2.4-1.56,4.56-2.98,6.72-4.38,3.66-2.36,6.49-2.75,10.31.88,11.21,10.66,21.02,10.19,32.05-.6,1.03-1.01,1.82-2.36,3.01-3.07,1.22-.72,3.38-1.6,4.08-1.05,1.14.89,1.96,2.87,1.99,4.4.1,5.68-4.6,7.41-8.56,9.67l.17-.12Z"/>
  <path class="cls-2" d="M312.57,409.5c-10,3.33-19.99,2.41-29.62-1.02-6.52-2.31-10.51-12.06-9.27-19.53,9.34,13.38,24.44,16.38,38.88,20.6.01-.02,0-.05,0-.05Z"/>
  <path class="cls-2" d="M266.44,370.21c5.01-8.61,22.46-11.93,35.17-7.63-12.38,2.69-23.78,5.16-35.17,7.63Z"/>
  <path class="cls-2" d="M512.43,387.43c2.7-1.14,5.55-2.02,8.05-3.5,2.86-1.7,5.4-3.93,8.67-6.39,1.08,5.42-1.88,7.59-4.97,9.1-13.05,6.41-26.66,7.88-40.77,3.32,4.12,0,8.25.16,12.36-.04,4.3-.22,8.59-.71,12.87-1.25,1.34-.17,2.62-.88,3.94-1.36.02,0-.15.11-.15.11Z"/>
  <path class="cls-2" d="M281.79,385.52c.75.13,1.5.26,2.25.39,4.21,1.29,8.39,3.58,12.63,3.68,14.5.34,29.01-.09,40.7-.2-14.65,5.05-32.31,6.44-50.13.61-2.08-.68-3.65-2.95-5.45-4.48Z"/>
  <path class="cls-2" d="M539.95,370.1c-10.72-2.86-20.31-5.42-29.85-7.97,8.12-4.64,25.32-.8,29.85,7.97Z"/>
  <path class="cls-2" d="M507.57,376.16c-.68,1.41-.99,3.26-2.09,4.15-5.98,4.84-12.67,4.43-18.37-1.17-1-.99-1.03-2.97-1.9-5.76,12.73,5.97,13.43,6.02,22.36,2.78Z"/>
  <path class="cls-2" d="M324.27,375.11c-3.5,5.99-9.35,9.25-14.66,7.85-2.16-.57-4.03-2.63-5.76-4.29-.44-.42-.07-2.06.4-2.86.23-.39,1.63-.36,2.37-.13q8.62,2.73,17.64-.58Z"/>
  <path class="cls-2" d="M375.33,164.79c11.39-8.69,23.5-16.28,31.52-28.53.42-.64.38-1.57.62-2.66-9.88,7.79-19.37,15.29-28.86,22.78-.33-.37-.66-.74-.99-1.11,9.49-12.38,18.99-24.77,28.36-36.99,5.63,10.19,11.43,20.68,17.96,32.49-2.32-3.15-3.86-5.23-5.4-7.32l-1.62,1.49c3.46,3.83,6.56,8.08,10.46,11.37,4.04,3.4,8.86,5.87,14.05,9.2-14.65-1.43-24.17-10.88-33.81-18.15-10.08,5.73-19.44,11.06-28.83,16.33-1.03.58-2.3.73-3.46,1.09Z"/>
  <path class="cls-1" d="M408.86,196.88c-4.53-2.11-2.7-4.88-1.53-7.67,1.73-4.11,3.51-8.22,4.91-12.45,1.62-4.89,1.08-9.61-3.02-14.32,6.81,5.58,6.48,19.68-.36,34.43Z"/>
  <path class="cls-2" d="M272.38,177.19c-1.24-1.96-2.48-3.93-3.73-5.89.1-.38.2-.76.3-1.15,1.83.71,4.19.96,5.32,2.27.8.93-.04,3.28-.16,5-.58-.08-1.16-.16-1.74-.23Z"/>
  <path class="cls-2" d="M537.95,177.78c-2.52-.57-5.04-1.15-7.56-1.72.3-.95.8-2.75.86-2.74,2.54.63,5.03,1.42,7.54,2.19-.28.76-.56,1.51-.84,2.27Z"/>
  <path class="cls-2" d="M220.86,114.04c5.71,1.39,10.43,3.45,14.06,5.42,1.41.02,2.69-.26,3.53-1.13,3.04-3.13-.55-12.9-4.93-16.52-7.32-6.05-24.02-.83-41.67,12.52,5.97-1.52,16.58-3.31,29.01-.29Z"/>
  <path class="cls-2" d="M178.4,157.25c.09-3.8.74-10.08,4.06-16.83,1.22-2.48,9.14-17.87,25.47-20.64,8.04-1.37,14.59.92,16.88,1.84,4.42,1.76,9.57,3.81,11.28,8.08,3.91,9.75-12.7,24.57-19.31,30.46-9.16,8.18-18.12,13.16-24.33,16.11,15.66-17.3,19.7-22.67,19.19-23.19-1.19-1.18-24.3,25.35-37.11,19.52-2.36-1.07-3.83-3-4.72-4.5.72-.12,4.25-.79,6.65-4.08,2.1-2.88,2-5.92,1.95-6.77Z"/>
  <path class="cls-2" d="M625.24,135.33c4.27,12.78,2.12,26.18-6.04,34.82-5.17,5.47-11.38,7.59-14.95,8.47,14.96,13.39,24.86,18.59,29.7,15.6,6.67-4.12,3.76-23.75-8.71-58.89Z"/>
</svg>