<?xml version="1.0" encoding="UTF-8"?>
<svg id="Layer_1" data-name="Layer 1" xmlns="http://www.w3.org/2000/svg" viewBox="0 0 767.12 843.78">
  <defs>
    <style>
      .cls-1 {
        fill: #000;
      }

      .cls-1, .cls-2 {
        stroke-width: 0px;
      }

      .cls-2 {
        fill: #fff;
      }
    </style>
  </defs>
  <path class="cls-1" d="M140.64,690.01c-1.7,0-3.44.25-5.09-.04-41.04-7.13-65.77-46.51-54.72-87.88,2.99-11.2,7.63-21.96,11.58-33.13-5.38-.39-11.12-.47-16.74-1.3-13.55-2-22.78-9.86-27.75-22.4-5.17-13.05,2.29-24.88,16.22-26.39,1.32-.14,2.66-.09,3.99-.17,7.14-.43,10.22-3.28,10.81-10.51.68-8.3.07-16.85,1.84-24.89,3.03-13.77,6.97-27.4,11.51-40.75,2.66-7.81,4.9-15.16,1.38-23.32-12.19,8.97-26.11,13-41.44,11.47-12.91-1.29-24.54-5.42-31.55-17.32-1.77-3.01-2.8-6.84-2.95-10.34-.3-6.76,3.81-10.84,10.54-10.34,6.08.45,10.32-2.04,13.79-6.43,8.12-10.27,13.11-21.86,14.68-34.79-11.37-5.7-11.84-6.86-6.19-13.61-24.91-8.73-40-27.18-49.31-50.99-3.3-8.42.25-18.59,6.81-23.43,7.73-5.7,16.87-4.13,22.07,3.93,1.98,3.07,3.64,6.36,5.48,9.53,1.95,3.35,4.5,4.09,7.13.97,7.81-9.28,15.45-18.69,22.91-27.74-2-1.91-3.95-3.18-5.12-4.97-20.2-30.82-25.49-64-14.63-99.29,4.04-13.12,19.03-15.92,28.27-5.71,2.85,3.15,4.67,7.23,6.98,10.87,3.25,5.14,6.52,10.27,9.79,15.4.52-.13,1.04-.25,1.56-.38.57-1.64,1.16-3.27,1.72-4.91,3.77-10.89,7.98-21.5,15.11-30.82,2.09-2.74,3.14-6.62,3.69-10.13,4.08-26.01,15.84-48.22,32.93-67.88,1.09-1.25,2.31-2.43,3.63-3.42,5.28-3.97,11.16-5.69,17.31-2.67,6.04,2.97,7.93,8.8,8.05,15.07.06,3.12-.79,6.26-1.27,9.38-1.34,8.82-.34,17.19,4.57,25.26,3.62-5.1,6.76-10.13,10.49-14.66,12.39-15.06,27.97-25.96,45.28-34.72,6.19-3.13,11.78-7.45,17.66-11.2,3.37-2.15,2.79-4.42.34-6.87-1.64-1.65-3.4-3.24-4.71-5.14-2.69-3.9-2.9-8.14-.51-12.26,2.33-4.02,6.3-4.97,10.42-4.18,3.71.71,7.73,1.6,10.79,3.63,11.48,7.64,23,15.33,33.74,23.95,4.9,3.93,8.39,9.85,11.85,15.28,3.61,5.68,7.34,6.95,13.56,3.63,1.35-.72,3.08-1.18,4.58-1.08,5.33.38,7.36-.84,8.07-6.27,1.16-8.91-1.31-16.9-7.44-23.5-5.57-5.99-6.8-9.76-4.18-14.97,2.91-5.8,8.71-8.75,16.05-7.17,16.62,3.59,30.45,12.4,42.35,24.24,6.35,6.32,12.15,13.19,18.49,20.13,1.7-1.98,3.47-3.93,5.12-5.97,9.72-12.02,21.54-21.36,35.89-27.14,4.39-1.77,9.29-2.85,14.01-3.06,7.45-.33,12.74,4.87,12.89,12.33.08,3.92-1.01,7.87-1.66,11.79-.71,4.27-1.06,8.41,3.42,11.02,16.13,9.4,30.58,20.73,41.52,36.88,7.49-5.67,11.77-12.67,13.79-21.16.73-3.08,1.08-6.25,1.86-9.3,1.65-6.4,5.1-11.37,12.04-12.53,7.24-1.21,13.6,1.15,17.17,7.58,5.09,9.15,9.91,18.55,13.75,28.28,3.38,8.57,5.24,17.73,7.98,27.36,6.37.49,12.83,3.35,17.77,9.47.68.84,3.4.86,4.69.25,6.12-2.92,10.34-7.75,12.62-14.17,1.06-2.98,1.92-6.04,3.03-9,2.33-6.21,6.98-9.71,13.46-10.44,6.09-.69,10.8,2.16,13.81,7.25,15.71,26.51,20.71,54.52,11.26,84.42-.45,1.43-.94,2.84-1.34,4.29-.12.45-.02.96-.02,2.27,2.26-.61,4.51-.69,6.13-1.74,7.78-5.06,15.45-10.31,23.03-15.66,2.29-1.62,4.08-3.93,6.29-5.7,9.78-7.87,21.42-4.16,23.45,8.16,3.47,21.01-.5,41.22-9.71,60.22-3.52,7.27-8.65,13.78-13.21,20.52-2.45,3.61-2.11,6.14,2.1,6.95,3.43.66,7.61.84,10.63-.57,5.19-2.42,9.77-6.16,14.52-9.49,1.62-1.14,2.83-2.87,4.45-3.99,4.76-3.28,10.04-5.09,15.5-2.29,5.18,2.65,5.91,8.03,5.52,13.05-1.29,16.64-7.45,31.68-16.22,45.69-6.96,11.11-15.66,20.71-26.21,28.57-.78.58-1.44,1.32-2.25,2.08,5.31,7.72,12.5,11.27,21.49,10.17,5.41-.66,10.71-2.32,16-3.77,14.53-3.97,23.52,2.96,22.38,18-1.01,13.41-7.71,24.35-17.1,33.57-11.04,10.84-23.85,18.62-39.45,21.06-1.9.3-3.76.92-6.26,1.54,11.82,11.15,19.51,24.06,23.41,38.99,2.06,7.87,2.88,16.05,4.46,24.05.64,3.24,1.43,6.56,2.83,9.52,3.83,8.13,10.27,10.96,18.94,8.75,1.29-.33,2.55-.77,3.82-1.18,3.73-1.21,7.49-2.27,10.78.95,3.55,3.49,4.43,7.82,3.06,12.44-2.87,9.69-10.08,15.54-18.74,19.62-12.3,5.78-25.37,6.17-39.15,4.39.71,1.1,1.05,2.01,1.7,2.58,8.88,7.7,13.13,17.83,15.41,29.03.37,1.79.71,3.6,1.22,5.36,1.65,5.64,3.19,6.47,8.66,4.67,3.6-1.18,7.24-2.19,10.23,1.08,3.21,3.51,4.01,7.86,2.14,12.11-5.19,11.81-13.77,20.02-26.72,22.52-3.41.66-4.36,2.25-5.69,5.03-2.6,5.46-5.23,11.34-9.4,15.47-3.21,3.18-8.82,3.93-14.18,6.1.41,1.5.93,3.84,1.69,6.1,3.26,9.69,5.98,19.47,4.58,29.86-1.26,9.32-5.13,17.23-13.03,22.69-2,1.39-4.36,2.61-6.72,3.07-6.86,1.32-9.86-.78-13.14-8.74-3.46,2.31-7.09,4.33-10.15,6.99-1.18,1.02-1.42,3.5-1.51,5.34-.29,5.63.38,11.4-.58,16.9-1.55,8.87-8.76,14.38-17.02,13.51-2.82-.3-5.82-1.56-8.17-3.19-4.71-3.28-9.45-3.41-13.7.48-1.09,1-2.05,2.2-2.9,3.42-9.57,13.78-23.07,18.88-39.15,16.44-10.42-1.58-19.68,1.02-27.94,6.32-6.76,4.34-12.76,10.15-18.31,16.06-13.95,14.85-28.06,29.44-45.54,40.25-19.27,11.92-40.7,17.19-62.83,20.01-15.43,1.96-29.7,6.69-43.09,14.79-12.93,7.82-27.02,12.13-42.48,9.79-9.74-1.47-18.14-5.66-24.77-12.89-2.65-2.89-5.39-3.72-9.15-3.68-22.87.25-42.23-7.96-57.96-24.63-6.99-7.4-10.41-16.16-10.02-26.35.24-6.33.61-12.65.81-18.98.06-1.89-.28-3.78-.43-5.68-.74-.51-1.47-1.02-2.21-1.52-.86,1.63-1.4,3.58-2.65,4.84-6.12,6.18-13.79,7.94-22.08,6.5-7.23-1.25-11.72-9.62-8.72-16.23.79-1.74,3.37-2.89,5.36-3.81,4.21-1.96,7.86-4.14,7.6-8.95-7.3,1.44-14.34,3.53-21.51,4.08-12.53.96-23.34-3.71-31.55-13.17-2.78-3.21-4.81-7.69-5.6-11.88-1.27-6.78,4.17-10.85,10.87-8.95,5.33,1.52,6.63.82,8.1-4.4,1.85-6.57-2.76-19.23-8.45-22.8-.87-.55-2.18-.71-3.24-.59-23.65,2.67-43.98-10.55-51.28-33.61-5.38-16.99-3.01-33.43,5.13-48.88,4.87-9.25,11.07-17.81,16.6-26.72,8.1-13.05,12.54-27.51,16.19-42.27.21-.87.03-1.83.03-3.95-1.26,1.88-1.97,2.75-2.46,3.72-7.28,14.45-17.38,26.76-28.65,38.25-17.73,18.08-25.88,40.07-25.65,65.2.27,28.76,20.09,53.3,48.13,60.09,2.26.55,4.44,1.42,6.66,2.15-.15.67-.29,1.34-.44,2ZM199.78,231.99c14.35,10.24,38.88,6.05,42.82-7.82-7.12,2.46-13.94,4.87-20.79,7.18-9.3,3.14-17.67,2.2-24.43-5.71-.43-.5-1.15-.76-1.74-1.13-.22.23-.45.46-.67.7,1.58,2.25,3.16,4.5,4.73,6.74-.41.54-1.25,1.17-1.16,1.6,2.3,10.73,12.98,18.59,24.01,17.78,13.73-1.01,24.78-10.69,29.03-26.47-3.53,2.67-6.3,4.57-8.84,6.74-7.84,6.67-16.81,10.09-27.12,9.13-6.42-.6-12.35-2.58-15.84-8.73ZM556.42,195.05l-.11-.11c2.76,2.84,5.87,3.2,9.49,1.7,3.53-1.47,7.25-2.49,10.79-3.93,12.61-5.13,26.16-8.27,37.08-17.02,4.73-3.79,9.2-7.9,13.79-11.87-3,4.96-6.58,9.44-10.43,13.67-13.35,14.64-32.33,18.45-49.84,25.53,4.46,4.58,8.87,8.86,12.98,13.41,3.15,3.48,6.72,4.26,11.22,3.49,15.97-2.75,28.1-11.59,38.31-23.6,4.59-5.41,4.62-6.22.46-12.26,8.34-9.61,14.25-20.52,16.16-33.52,2.71-18.44,1.54-32.84-3.62-36.56l-3.53,10.08c-.41-.07-.82-.15-1.23-.22,2.03-9.14,3.35-18.23-1.21-26.89-.51,9.31-.25,18.61-.67,27.88-.13,2.94-1.44,6.33-3.31,8.61-8.86,10.79-19.57,18.62-33.71,21.73-8.32,1.83-17.53,3.99-23.97,9.03-9.12,7.13-16.06,17.06-24.26,26.16,2.39,2.01,4,3.35,5.6,4.7ZM447.18,173.73c.84.15,1.69.29,1.77.31-4.73,6.35-9.6,12.64-14.21,19.12-4.81,6.77-10.32,12.55-18.21,15.8-16.55,6.81-30.94,2.04-44.39-8.01-3.13-2.34-6.14-4.83-10.34-8.15,3.81,8.25,9.9,12.08,15.73,16.1,22.76,15.71,50.68,9.33,64.38-14.73,3.13-5.5,6.2-11.05,8.92-16.76,1.8-3.79,4.4-4.75,8.05-3.53,5.53,1.85,10.96,3.99,16.51,5.76,26.6,8.48,50.94,21.35,73.54,37.61,22.28,16.03,39.7,36.38,53.13,60.23,1.09,1.94,2.25,3.83,3.37,5.75.66-.23,1.31-.47,1.97-.7-.47-1.67-.65-3.49-1.45-4.98-8.88-16.46-18.42-32.47-31.41-46.13-.89-.93-1.55-2.07-2.32-3.12.47-.4.94-.79,1.41-1.19,1.55,1.93,2.93,4.03,4.67,5.78,11.9,11.93,20.58,26.13,29.01,40.53,1.22,2.08,2.98,3.83,4.49,5.74.47-.33.95-.66,1.42-1-.5-10.65-7.65-18.44-12.8-26.89-5.27-8.64-11.94-16.43-18-24.59.3-.34.61-.68.91-1.01,6.22,6.71,12.09,13.75,16.91,20.92,8.04-5.4,16.92-6.55,26.19-6.64-1.52.8-3.04,1.6-4.61,2.43.4.72.75,1.38.65,1.18-4.54.69-9.31,1.4-14.63,2.21,2.92,3.94,5.03,6.8,7.77,10.49-4.94-2.28-5.89-8.03-11.62-8.59,2.88,5.98,5.29,11.23,7.98,16.33.44.83,2.12,1.51,3.17,1.45,15.89-.97,31.44-3.71,46.22-9.87,1.71-.71,3.05-2.31,5.7-4.39-5.08-1.62-8.51-2.72-12.94-4.14,17.83-5.05,28.57-17.19,36.45-32.22,7.77-14.83,12.1-30.57,10.97-47.88-2.21,1.16-3.35,3.01-4.8,4.55-13.43,14.2-29.54,22.39-49.48,22.39-2.03,0-4.46,1.63-6,3.2-4.3,4.38-8.09,9.24-12.35,13.67-2.46,2.55-5.42,4.62-9.09,7.68,25.48-.17,47.93-5.38,67.14-21.41-1.43,2.66-3.12,4.83-5.1,6.68-9.8,9.14-21.2,15.58-34.12,19.08-16.74,4.53-33.02,10.18-48.99,19.25-3.76-11.29-13.17-17.52-21.61-24.61-10.81-9.08-21.28-18.68-32.75-26.85-13.81-9.84-28.79-17.75-44.43-24.66-22.78-10.06-46.4-16.91-70.8-20.56-44.22-6.63-88.42-5.45-132.14,4.42-17.16,3.87-34.89,5.63-51.16,13.09-7.22,3.31-14.87,5.76-21.93,9.37-11.51,5.87-22.83,12.15-34.01,18.64-25.92,15.06-44.67,36.62-56.48,64.09-3.49,8.12-5.92,16.7-8.8,24.94,5.47,2.31,8.46.87,10.8-2.92,1.74-2.83,3.95-5.38,5.71-8.19,9.97-15.93,21.63-30.46,36.36-42.21,10.91-8.7,22.31-16.78,33.53-25.09,3.71-2.75,7.5-5.39,11.61-8.33.96,2.04,1.71,3.5,2.34,5.01,6.79,16.37,23.2,22.05,38.09,12.49,5.64-3.62,10.39-8.75,15.18-13.56,8.9-8.93,19.03-13.83,31.93-11.37,7.53,1.44,13.37,5.73,18.82,10.74.19.17.16.57.26.98-.74-.07-1.44-.14-3.48-.34,5.46,4.92,9.8,9.49,14.81,13.15,6.09,4.46,9.03,10.02,8.69,17.46-.06,1.25,0,2.51,0,4.93,4.17-4.93,3.96-9.84,2.49-13.94-1.51-4.22-4.9-7.78-7.31-11.4,1.58,1.08,3.5,2.4,5.42,3.72.06-2.67-.37-4.93-1.68-6.4-6.99-7.77-13.55-16.11-21.48-22.8-12.27-10.35-35.3-13.15-50.74.76-2.97,2.67-5.9,5.53-9.29,7.55-5.8,3.46-11.68,7.19-18.04,9.22-7.79,2.49-18.04-2.42-21.43-9.04,71.91-28.65,145.66-34.76,222.3-19.98-1.25,1.95-1.74,2.72-2.24,3.48-4.24,1.09-8.73,1.61-12.65,3.39-6.49,2.94-12.51,6.92-18.93,10.03-12.09,5.87-24.32,4.46-36.28-.44-3.21-1.31-5.89-3.91-8.82-5.92.17-.7.34-1.4.51-2.09,23.67,14.05,45.17,8.16,66.11-6.2-1.86-.37-3.45-.78-5.06-1-17.15-2.31-33.9.29-50.35,4.84-6.65,1.84-12.74,4.13-17.63-3.29,8.28,15.04,18.74,26.53,37.57,26.27-1.59.77-3.11,1.21-4.67,1.36-9.21.89-16.73-2.94-22.72-9.35-4.97-5.32-9.04-11.48-13.57-17.21-1.04-1.32-2.36-2.43-3.55-3.63-.49.4-.98.8-1.46,1.21,3.83,6.91,7.03,14.26,11.61,20.63,10.78,14.98,32.07,20.5,48.22,11.83,6.78-3.64,12.11-10.11,17.77-15.63,4.84-4.72,9.23-9.91,13.81-14.89ZM222.66,408.88c-.26.57-.52,1.14-.79,1.7,13.28,10.08,27.4,18.97,44.72,19.11,11.72.1,23.46-2.19,35.2-3.38,4.79-.48,9.59-.87,14.38-1.3-23.35,4.56-46.62,10.01-70.76,7.07,5.79,7.73,14.47,9.64,23.84,12.52-4.54,0-7.89.29-11.17-.05-17-1.73-30.34-8.74-36.06-26.05-2.83-8.57-2.74-8.95-11.78-7.33-8.68,1.56-14.96-1.18-19.47-8.62-2.38-3.92-4.96-7.71-8.33-12.93-.94,5.05-2.17,8.55-2.16,12.05.06,41.97,10.39,79.62,46.01,106.13,15.54,11.57,22.95,27.68,26.83,45.92.85,4.01,1.25,8.12,1.86,12.18-2.95-4.91-4.81-10.13-7.57-14.82-2.76-4.7-6.43-8.87-9.7-13.27-.53.35-1.06.7-1.59,1.05,3.38,18.52,7.9,36.79,16.8,53.51,15.9,29.89,37.41,55.88,58.94,81.73,10.29,12.36,24.52,16.72,40.46,15.34,9.45-.82,17.69-3.53,20.73-15.42,4.43,15.47,15.85,17.03,28,17.01,13.55-.03,25.6-4.68,35.7-13.54,28.47-24.95,56.3-50.62,79.95-80.3,6.64-8.33,12.81-17.98,15.86-28.03,7.29-24.01,12.75-48.59,18.59-73.02,1.47-6.15,1.58-12.62,2.31-18.94-.5-.17-.99-.34-1.49-.52-6.94,24.67-24.82,42.19-39.33,61.96-.19-.96-.04-1.75.12-2.54,1.3-6.36,2.64-12.71,3.9-19.07.62-3.12-.36-4.6-3.75-3.38-.77.28-1.59.41-2.38.61,2.85-3.81,6.13-6.85,9.75-9.41,12.85-9.06,24.05-19.71,31.08-33.93,7.56-15.3,12.63-31.48,15.8-48.3,1.6-8.5.82-16.41-2.48-24.41-2.47-5.97-3.87-12.37-5.88-18.53-1.9-5.83-3.32-11.92-6.07-17.33-7.1-13.95-11.36-28.47-10.5-44.19.25-4.54-1.58-6.86-5.73-7.86-1.62-.39-3.2-1.03-4.84-1.21-14.24-1.61-24.37-8.83-30.84-21.66-3.42-6.77-9.03-11.91-16.35-13.85-5.49-1.46-6.48-4.32-6.15-9.19,1.02-15.18-4.53-28.07-14.46-39.22-6.83-7.66-15.2-12.51-25.66-9.55-5.11,1.45-9.55,5.18-14.35,7.78-15.25,8.28-30.45,10.56-45.52-.5-1.12-.82-2.46-1.35-4.06-2.2,3.43,10.4,13.99,17.19,26.04,15.16,9.22-1.55,17.95-5.81,27.08-8.17,5-1.29,10.89-2.76,15.44-1.27,6.39,2.09,12.56,6.12,17.66,10.63,10.46,9.27,13.67,22.32,15.13,35.53.95,8.6-2.85,16.01-9.8,21.34-6.32,4.85-15.88,4.24-21.15-.98-3.9-3.88-3.33-5.84,1.08-7.32,2.48,2.07,4.23,4.7,6.42,5.12,5.69,1.11,10.87-3.64,11.04-9.49.18-6-2.95-10.1-8.04-12.77-6.49-3.4-13.13-6.5-19.61-9.93-5.28-2.8-10.5-3.2-16.37-1.77-26.7,6.5-42.77.27-58.44-22.23-2.23-3.2-4.54-4.04-7.82-1.3-10.48,8.77-22.27,12.89-36.14,10.61-13.43-2.21-24.09,2.73-31.92,13.82-7.09-6.67-4.36-24.12,3.26-32.12,6.8-7.15,14.11-12.69,24.84-11.11,9.88,1.45,17.54,6.86,24.74,13.37-4.05-9.5-10.54-16.68-19.56-21.23-11.39-5.74-23.84-2.94-32.11,6.77-5.56,6.53-8.8,14.13-9.93,22.56-1.54,11.48,2.03,21,11.62,28.33,0-.89,0-1.56,0-1.44,3.85,1.05,7.72,2.7,11.71,3.04,5.48.48,6.14-4.81,7.85-8.74,2.98,3.46,2.87,7.1.54,9.6-3.52,3.79-7.45,7.81-12.04,9.89-11.35,5.14-22.73,4.17-33.33-2.77-3.91-2.56-8.05-4.22-12.73-2.77-10.91,3.39-20.47,8.3-25.94,19.42-2.88,5.86-6.86,11.59-11.63,15.99-5.22,4.83-8.13,9.9-7.81,16.88.71,15.21-3.99,28.86-11.8,41.67-1.15,1.88-1.72,4.11-3.04,7.37,2.44-.85,3.71-1.05,4.72-1.68,10.88-6.78,21.96-13.27,32.49-20.56,10.82-7.49,21.79-9.09,33.97-4,17.64,7.37,35.91,12.57,55.13,13.04,12.16.3,19.58,6.13,23.57,17.17.04.11.52.07,2.36.26-2.72-5.43-5.06-10.1-7.13-14.23,4.93,1.22,7.74,4.68,9.59,12.69,1.73,7.47-.97,10.52-8.57,9.38-4.07-.61-8.08-1.65-12.12-2.5-.11.49-.23.99-.34,1.48,7.22,1.76,14.36,4.17,21.68,5.12,9.35,1.21,15.89-3.97,18.32-13.16.53-2,.82-4.05,1.22-6.08l1.56.21c-.52,3.77-.42,7.77-1.73,11.24-1.51,3.98-3.94,7.74-6.58,11.12-2.34,3-2.52,5.45-.47,8.51,4.77,7.12,7,15.07,7.16,23.59.34,17.49.66,34.98.89,52.47.11,8.61.02,17.22.02,25.83-1.46-2.3-1.87-4.6-1.99-6.92-.81-15.48-1.47-30.96-2.36-46.43-.34-5.81-1-11.62-1.89-17.37-.24-1.54-1.85-2.86-2.82-4.28-1.15.82-2.42,1.52-3.44,2.47-4.7,4.38-9.34,8.83-14.99,14.21.53-4.66.88-7.78,1.39-12.34-6.12,1.41-11.08,2.55-16.81,3.87,3-3.26,5.48-6.36,8.38-9,5.76-5.26,5.69-11-.42-15.97-2.71-2.2-5.68-4.22-7.9-6.85-25.38-30.09-62.74-27.13-88.29-16.31-9.33,3.95-17.77,9.99-26.68,15.11,6.12.82,11.4-1.51,16.63-4.53,16.07-9.3,33.27-13.93,52.02-13.44,23.19.61,39.46,11.4,49.77,31.76,1.02,2.01,1.13,4.48,1.77,7.2-5.45-.91-9.89-2.54-14.16-2.19-10.77.87-21.48,2.54-32.19,4.06-11.46,1.63-23.74,0-31.39-4.39,1.51.18,3.03.35,3.96.46-2.83-6.36-5.64-12.65-8.56-19.21-1.65.3-3.66.47-5.54,1.05-5.09,1.56-5.88,4.11-2.62,8.4,1.68,2.22,3.55,4.29,5.34,6.42-.11.19-.22.39-.33.58-6.51-3.26-13.01-6.52-19.52-9.78ZM321.18,821c.06.54.12,1.07.18,1.61,3.91,1.05,7.75,2.53,11.73,3.08,13.25,1.84,25.01-2.44,35.85-9.63,14.64-9.71,30.79-15.29,48.19-16.36,30.54-1.87,56.8-12.78,78.79-34.28,15.16-14.83,28.85-31.43,48.21-41.32-.43-.78-.52-1.13-.74-1.31-1.04-.83-2.12-1.62-3.18-2.42-19.02-14.27-28.62-32.98-26.38-56.99.83-8.93,2.53-17.79,3.87-26.67.75-5,1.56-9.99,2.35-15.06-10.96-.38-19.16,2.32-24.84,11.74-4.79,7.95-10.79,15.2-16.57,22.51-20.39,25.76-39.81,52.09-54.49,81.71-8.54,17.24-20.45,31.89-36.73,42.7-5.81,3.86-11.32,8.21-16.81,12.53-11.41,8.99-24.15,11.95-36.07-2.91-7.39-9.22-14.75-18.47-22.23-27.61-1.53-1.87-3.55-3.33-5.34-4.98-.3.32-.6.63-.9.95.96,1.73,1.94,3.45,2.88,5.19,7.18,13.34,15,26.4,16.7,41.94.64,5.82.73,11.36-4.48,15.58ZM436.76,143.48c8.09,1.76,15.52,3.48,23,5,15.6,3.15,20.52-.41,26.38-15.17.61-1.53.94-3.21,1.16-4.85,2.37-17.13-.68-33.37-9.75-47.97-7.36-11.84-15.93-22.93-23.99-34.33-.11-.16-.61-.05-1.01-.07-.87,2.73-1.74,5.48-2.62,8.23-.61-.15-1.23-.31-1.84-.46,1.72-8.94,3.44-17.89,5.14-26.7-22.12,5.25-37.41,26.12-35.4,48.65.31,3.48.98,6.92,1.36,10.39.16,1.44.03,2.91.03,4.37-.44.08-.88.16-1.32.23-1.13-1.57-2.22-3.17-3.4-4.7-1.68-2.2-3.49-2.46-5.26-.11-10.7,14.26-14.61,30.02-10.41,47.55.8,3.35,2.83,4.82,6.41,5.04,4.63.28,9.22,1.21,13.82,1.91q9.03,1.37,13.14-6.8c1.5-2.97,3.05-5.92,4.75-8.79,3.95-6.64,5.92-13.85,5.34-21.5-.47-6.1-1.58-12.18-2.74-18.2-1.44-7.47-3.21-14.87-4.84-22.31,3.75,10.33,7.12,20.72,9.76,31.3,3.98,15.93,5.05,31.68-5.8,45.83-.69.9-1.11,2-1.91,3.46ZM332.96,70.32c-8,6.09-20.33,27.32-20.52,37.26-.15,8.34,1.35,16.81,3.05,25.03.55,2.67,3.73,6.03,6.34,6.74,4.13,1.13,8.81.3,13.74.3-.84-1.13-1.29-1.73-1.99-2.66,6.59,2.74,8.59,2.56,9.11-.52,1.49.85,2.98,1.71,5.2,2.97.44-3.96.75-7.05,1.12-10.14,1.2-9.87,3.69-19.28,9.77-27.43,10.91-14.62,19.28-30.18,18-49.33,2.93,9.94,2.54,19.93-1.32,29.24-3.6,8.69-8.51,16.89-13.31,25.03-5.82,9.88-7.27,20.01-3.72,31.33,2.85-.47,5.26-.99,7.71-1.23,2.58-.25,5.19-.1,7.77-.33,6.85-.59,9.32-2.27,10.28-9.28.78-5.64-.09-11.5-.02-17.26.02-1.55.34-3.85,1.37-4.52,10.14-6.63,12.67-16.54,11.21-27.5-3.47-26.1-18.42-44.34-40.68-57.22-1.37-.79-2.97-1.17-5.61-2.18,4.67,11.56,7.53,22.36,4.98,33.92-2.56,11.66-10.59,19.55-18.5,28.28-1.4-3.7-2.61-6.88-3.99-10.52ZM558.29,162.05c-5.39,8.75-11.52,15.32-20.35,19.2,12.78-.36,21.37-7.19,27.68-17.47,5.5-8.97,8.41-18.42,5.44-29.58-5.33,2.41-9.75,4.41-14.16,6.41,6.18-14.64,9.57-29.06,7.28-44.67-2.2-15.07-11.1-37.05-17.45-40.82-.36,3.19-.55,6.32-1.09,9.39-3.06,17.24-14.05,28.3-28.82,36.13-8.99,4.76-16.22,10.53-16.81,21.66-.04.8-.57,1.57-.72,2.38-1.95,10.46-3.94,20.91-5.71,31.4-.17,1,1.09,3.21,1.65,3.2,2.62-.05,4.99-.47,6.5-3.55,1.58-3.2,4.15-5.98,6.6-8.67,11.63-12.8,23.39-25.48,35.02-38.27,2.17-2.39,4-5.09,5.99-7.65.33.25.66.5.99.75-10.28,24.5-30.19,42.24-45.43,62.55,2.31,1.45,4.09,2.71,5.99,3.72,3.68,1.94,7.64,3.41,11.12,5.65,6.95,4.48,13.74,4.7,20.49-.03,5.09-3.57,9.99-7.4,15.78-11.71ZM284.21,90.07l1.35.71c-2.35,4.52-4.77,9-7.05,13.55-6.49,12.94-6.78,26.26-2.1,39.77,2.23,6.43,4.2,7.45,10.4,4.57,3.23-1.5,5.74-4.53,9.13-7.32-.5,1.82-.81,2.96-1.43,5.22,3.88-1.07,6.91-1.9,9.17-2.52-1.12-11.11-2.15-21.25-3.23-31.93-2.56.97-4.62,1.76-7.76,2.95,1.59-4.96,3.28-8.94,4.08-13.09,1.02-5.33,3.09-11.44,1.42-16.03-1.6-4.41-1.07-7.73-.37-11.68.58-3.27,1.26-6.62,1.1-9.89-.57-11.44-6.65-19.83-15.59-26.89,4.55,14.86-3.3,25.06-11.96,34.96-8.45,9.67-18.76,17.84-23.75,30.85-2-2.38-3.45-4.11-5.62-6.69-2.04,5.68-4.29,10.53-5.51,15.63-3.63,15.21-1.62,29.16,10.49,40.35,4.68,4.33,5.49,4.31,11.08.63.35-.23.95-.08,1.43-.13,3.84-.44,7.69-.9,12.37-1.44-8.35-13-6.19-25.51-.19-38,1.73-3.6,2.77-7.54,4.66-11.03,2.34-4.34,5.23-8.38,7.89-12.54ZM72.3,188.11c14.97,16.76,34.55,24.53,56.11,30.15-1.84-7.36-4.08-13.56-4.8-19.93-.69-6.12-3.24-8.13-9.19-8.78-22.57-2.47-40.02-12.75-49.57-34.28-.62-1.4-1.74-2.58-3.5-5.13-5.83,15.48-5.86,29.85-3.25,44.38,2.65,14.74,9.03,27.59,21.1,37.97-2.97.42-4.84.68-7.04.99.49,1.02.65,1.69,1.05,2.14.99,1.12,2.02,2.21,3.16,3.18,12.77,10.85,27.59,16.28,44.27,17.39,4.52.3,6.86-1.35,8.84-5.2-1.65.26-2.86.45-4.95.79,3.02-2.57,5.3-4.52,8.12-6.92-3.82.67-6.87,1.21-9.92,1.75-.13-.42-.27-.84-.4-1.26,2.38-1.52,4.76-3.04,7.14-4.57-.07-.36-.15-.72-.22-1.09-5.41.63-10.82,1.27-16.97,1.99,1.35-1.82,2.27-3.07,3.36-4.55-1.44-.67-2.57-1.2-3.7-1.73,7.58.03,14.98.84,22.41,1.37,1.77.13,3.61-.65,5.42-1.02.08-.63.15-1.25.23-1.88-26.93-8.87-54.54-16.75-67.71-45.75ZM119.48,268.63c0-.56-.01-1.12-.02-1.68-1.88-.34-3.74-.9-5.63-1-16.81-.95-31.91,3.31-44.82,14.56-4.75,4.14-9.58,8.38-15.01,11.48-12.27,7.01-23.66,4.1-31.81-7.37-1.4-1.97-2.72-4.01-4.87-7.21-1.13,8.04,1.92,13.3,5.45,18.23,11.42,15.96,27.38,24.22,46.48,27.26,13.59,2.16,26.34-.34,39.24-5.65-.59-4.29-1.14-8.21-1.8-12.96,1.94-3.97,4.4-9.03,7.35-15.09-14.3,4.23-25.48,12.84-39.73,13.81,4.92-3.04,9.27-5.71,13.6-8.41,6.65-4.15,12.38-10.16,21.07-10.22,1.41-.01,3-.71,4.16-1.56,1.39-1.02,2.4-2.55,3.84-4.15-4.49-1.64-7.95-2.9-11.18-4.08.71-1.48,1.08-2.27,1.74-3.64,3.25-.62,7.6-1.45,11.95-2.28ZM610.75,472.62c-.43.17-.87.34-1.3.51-.23.79-.55,1.56-.68,2.37-.14.81-.21,1.67-.12,2.48,3.61,33.76,17.75,60.34,50.45,74.48,7.31,3.16,14.6,6.58,21.35,10.76,8.87,5.49,15.17,13.44,18.21,23.61.78,2.62,1.05,5.39,1.74,9.08,3.8-6.49,3.49-12.39,1.94-18.24-3.71-13.98-13.51-22.04-26.63-26.79-8.76-3.17-17.6-6.16-26.13-9.88-5.33-2.32-10.13-5.84-15.17-8.82l.73-1.36c12.66,7.52,26.56,11.11,40.84,13.91,14.73,2.89,27.32,9.55,34.81,23.49.38.72,1.23,1.18,2.41,2.28.06-14.48-6.44-24.56-17.81-31.08-7.72-4.43-16.15-7.94-24.65-10.63-15.12-4.78-26.59-13.73-33.89-27.62-4.94-9.39-8.94-19.28-13.36-28.95-.98-2.15-1.95-4.31-2.92-6.47-4.11,9.96,1.79,18.21,3.34,28.2-4.76-7.71-8.96-14.52-13.17-21.33ZM639.48,660.73c0,.71.01,1.43.02,2.14,3.42-.26,7.11.21,10.22-.91,14.4-5.14,20.74-16.6,22.3-30.95,2.18-20.02-4.17-37.53-17.56-52.31-5.22-5.76-11.3-10.81-17.41-15.66-18.53-14.69-32.43-32.37-37.71-55.96-.99-4.42-2.41-8.74-3.93-14.15-4.16,9.69-8.58,17.95-5.12,28.03,3.67,10.68,6.21,21.76,10.05,32.37,4.32,11.92,11.85,20.94,23.74,26.98,8.26,4.2,15.8,10.59,22.3,17.32,9.11,9.43,14.2,21.14,14.51,34.66.31,13.63-5.46,22.43-18.3,27.13-1.05.39-2.07.87-3.11,1.31ZM237.44,673.63c-.4.24-.8.49-1.2.73.86,2.84,1.77,5.66,2.56,8.52,7.24,26.25,11.99,52.9,12.21,80.2.04,4.6-.2,9.55-1.87,13.72-2.17,5.41-.85,9.29,2.6,13.13,12.5,13.9,28.68,19.28,46.8,19.94,1.29.05,3.65-.98,3.71-1.66.12-1.43-.61-3.26-1.59-4.42-9.64-11.34-15.41-24.81-21.34-38.2-12.47-28.13-24.93-56.27-37.47-84.37-1.18-2.66-2.92-5.07-4.4-7.59ZM237.93,63.08c-4.08,2.49-8.2,4.93-12.25,7.48-15.35,9.7-28.05,21.84-36,38.52-10.07,21.12-8.17,51.21,14.26,69.31,4.88-2.41,9.73-4.82,14.98-7.41-2.7-1.56-5.16-2.99-8.28-4.8h4.02c-2-1.37-3.43-2.36-5.55-3.81,1.58-.08,2.32-.12,3.05-.15-3.46-6.29-6.79-12.33-10.11-18.38.15-.06.29-.12.44-.19,6.91,9.16,13.82,18.32,20.73,27.48.63-.42,1.25-.85,1.88-1.27.78-4.88-4.07-6.74-6.33-9.97-2.43-3.48-4.96-6.89-7.45-10.33.19-.13.37-.25.56-.38,5.04,5.76,10.08,11.52,15.9,18.18,1.18-4.66,1.95-7.68,3.01-11.87v10.51c2.84-1.4,5.3-2.61,7.44-3.67-3.94-9.42-7.62-18.22-11.29-26.99-5.93,2.37-8.87,1.15-11.6-4.65-6.68-14.19-6.62-28.23.86-42.24,5.39-10.1,13.56-17.58,21.73-25.38ZM550.1,580.05c-8.98,13.65-19.34,26.22-22.34,42.37-3.83,20.67,1.02,38.68,17.78,52.49,1.44,1.19,3.14,2.05,4.72,3.07-18.92-24.61-19.55-50.75-8.77-78.13-.54,6.69-1.75,13.39-2.89,20.1-3.2,18.71,3.4,43.73,27.19,53.59,2.75,1.14,5.37,2.68,7.88,4.31,11.57,7.48,15.31,19.47,10.16,32.19-.41,1.02-.81,2.04-1.72,4.33,8.75-6.26,11.71-13.73,10.73-22.76-.98-8.93-5.14-16.48-11.41-22.78-4.1-4.12-8.62-7.84-12.8-11.89-9.09-8.82-11.54-19.87-10.48-32.04.19-2.15.89-4.41.47-6.43-2.69-12.83-5.64-25.62-8.5-38.42ZM587.16,465.33c-.55-.37-1.11-.74-1.66-1.11-.73-4.56,1.19-7.8,5.1-10.24,7.35-4.58,12.5-10.97,14.9-19.32,1.9-6.6-.43-15.5-4.96-17.65-4.98-2.36-10.33-3.96-15.52-5.89,1.34,2.62,3.26,4.71,5.44,6.5,11.24,9.25,9.98,23.22-2.78,30.22-10.7,5.87-11.52,7.75-9.25,19.49.33,1.72-.31,3.64-.57,6.09-9.46-6.24-11.25-15.81-5.51-24.13,1.98-2.87,4.31-5.55,5.95-8.6,2.85-5.31,2.33-11.22-.81-14.45-1.83,4.82-3.16,9.88-5.58,14.36-7.76,14.37-10.14,30.18-12.9,45.89-.54,3.08-.72,6.33-.44,9.44.63,6.92,5.9,10.98,12.8,10.23,5.57-.6,9.8-3.55,12.31-8.36,2.53-4.84,4.33-10.06,6.48-15.1,2.35-5.49,4.21-11.28,7.21-16.39,6.37-10.88,13.81-21.15,19.94-32.15,6.66-11.97,12.2-24.54,10.99-38.83-.18-2.14-1.01-4.22-1.54-6.33-.55-.01-1.1-.02-1.66-.03-3.59,12.51-7.18,25.02-10.99,38.31-3.27-10.31-6.14-19.37-9.02-28.44-1.77,1.67-3.07,3.66-2.8,5.41.66,4.2,1.51,8.52,3.26,12.35,3.98,8.71,5.49,17.78.31,25.87-5.28,8.24-12.4,15.29-18.72,22.86ZM183.06,187.49c-5.97-5.35-11.85-10.61-17.73-15.87.33-.42.65-.84.98-1.26,8.17,5.06,16.34,10.12,24.52,15.18.36-.36.73-.72,1.09-1.08-.82-1.23-1.45-2.67-2.51-3.64-2.94-2.69-5.88-5.45-9.15-7.69-26.82-18.35-38.64-44.01-37.31-76.12.19-4.5.6-8.98.99-14.7-1.29,1.98-2.01,2.86-2.5,3.86-12.03,24.47-15.24,49.86-7.16,76.15,4.22,13.74,11.59,25.36,24.55,32.78,8.86,5.07,14.81,4.46,22.61-3.08-1.78-.66-3.46-1.28-4.64-1.71,1.96-.88,4.33-1.93,6.27-2.8ZM523.59,255.98c.24-.13.52-.4.72-.34.29.07.54.35.76.59,11.18,11.76,16.4,13.06,29.76,7.43,1.84-.78,3.71-1.5,5.53-2.33,6.28-2.85,12.32-2.1,18.21,1.15,1.31.72,2.63,1.42,4.59,2.49-6.02-9.61-9.6-11.07-19.53-8.61-3.07.76-6.15,1.52-9.27,2.04-5.09.85-10.05.4-14.27-2.89-5.72-4.45-11.33-8.97-19.33-5.88-.41.16-.98-.12-1.48-.16-11.58-.86-21.23-5.16-29.5-13.8-5.44-5.69-12.76-9.59-19.23-14.28-.47.56-.94,1.12-1.41,1.68,1.57,1.22,3.14,2.43,5.11,3.96-2.11-.26-3.5-.43-5.25-.64,3.45,6.45,7.25,12.17,9.66,18.43,2.37,6.14,6.35,9.76,12.39,11.05,3.67.78,7.59.92,11.35.64,5.05-.37,8.08,1.64,10.36,6.02,1.65,3.16,3.52,6.85,6.34,8.65,9.01,5.74,18.9,8.06,29.54,4.64,4.76-1.53,9.51-3.09,14.33-4.4,12.04-3.27,21.78-1.31,28.49,14.38-.47-.43-.86-.72-1.17-1.08-9.63-11.15-18.65-12.46-31.3-4.66-2.54,1.57-5.2,3-7.94,4.19-13.65,5.95-25.04,2.86-33.84-9.13-1.87-2.55-3.42-5.34-5.35-7.84-1.33-1.72-3.05-3.13-5.05-5.12-2.06,12.64,8.18,25.88,20.65,28.57,11.88,2.56,21.86-1.92,31.74-7.53,10.96-6.22,19.44-4.91,28.31,4.07,2.06,2.09,4.05,4.24,6.03,6.31,3.81-2.37,3.57-5.13,1.94-8.05-2.11-3.78-4.29-7.53-6.54-11.22-6.59-10.8-18.06-14.49-29.84-9.67-3.39,1.38-6.73,2.98-10.24,3.96-11.6,3.24-20.55-1.32-25.27-12.61ZM123.62,386.81c-.59.08-1.17.15-1.76.23-2.14,13.97-3.19,27.95.86,41.86,3.92,13.46,10.99,25.28,19.18,36.52,6.41,8.79,11.95,17.93,13.72,29.04.69,4.32,2.57,8.7,4.88,12.45,1.92,3.12,4.88,6.05,8.07,7.84,6.4,3.6,15.43-.2,14.71-6.03-1.44-11.68-3.75-23.25-5.7-34.85-8.45,1.25-10.04.18-10.46-8.03-.38-7.49-3.21-11.97-10.8-14.65-15.81-5.59-19.53-21.86-8.61-34.71,1.4-1.65,3.05-3.1,4.32-4.84.95-1.31,1.48-2.93,2.34-4.7-14.84-.58-22.21,7.29-20.79,20.74,1.34,12.69,6.7,22.41,18.48,28.25,4.99,2.47,8.78,6.26,8.38,12.46-.12,1.9-.99,3.75-1.52,5.62-1.68-1.13-3.79-1.93-4.97-3.45-3.45-4.46-6.04-9.66-9.84-13.75-8.96-9.66-14.02-21.06-15.89-33.83-1.47-10.03-1.96-20.2-3.02-30.3-.21-2-1.04-3.93-1.59-5.89ZM627.97,291.22c.81,4.79,2.05,9.15,2.2,13.55.25,7.49.58,8.36,7.8,10.38,1.27.36,2.59.63,3.9.78,34.49,3.8,67.71-14.13,83.64-49.64.44-.99.5-2.15.73-3.23-26.55,31.97-61.74,33-98.28,28.17ZM646.44,371.44c25.09,23.08,74.31,12.9,88.1-8.75-4.3,1.46-8.25,3.29-12.4,4.13-20.84,4.24-39.19-1.17-55.27-14.88-5.92-5.05-11.92-10-18.81-15.76,2.29,10.75,4.32,20.29,6.34,29.83-.45.12-.91.24-1.36.37-.76-1.49-1.52-2.98-2.39-4.69-1.48,3.43-2.79,6.47-4.21,9.75ZM158.72,535.22c-.42-.18-.84-.35-1.26-.53-4.31,5.88-8.68,11.72-12.91,17.65-9.48,13.3-18.45,26.89-24.21,42.35-6.81,18.27-5.5,35.61,5.67,51.83,2.6,3.77,5.79,7.1,11.59,8.41-1.51-1.89-2.38-3.05-3.33-4.14-10.61-12.2-12.73-26.03-4.8-40.14,3.68-6.54,8.95-12.39,14.31-17.72,11.45-11.39,21.81-23.38,27.03-39.01.52-1.54.92-3.12,1.38-4.69-10.28,11.72-18.46,24.85-32.78,34.13,8.85-16.05,17.33-30.87,19.3-48.15ZM408.27,698.78c-4.18.84-8.33,1.85-12.53,2.49-37.24,5.69-70.15-1.1-96.93-30.33-17.06-18.63-36.03-35.53-54.34-52.99-11.27-10.74-20.56-22.73-25.54-37.63-5.49-16.42-10.76-32.91-16.14-49.36-.8-2.43-1.68-4.83-2.53-7.25-1.07,1.63-1.33,3.07-1.03,4.37,3.7,16.22,6.9,32.58,11.4,48.58,4.83,17.19,12.81,32.85,26.63,44.94,24.93,21.82,49.34,44.26,74.77,65.48,18.58,15.5,41.04,20.81,65.03,19.3,10.78-.68,21.45-2.29,31.23-7.59ZM611.15,650.94c.13.53.26,1.05.39,1.58,2.89-.73,6.06-.92,8.6-2.29,11.7-6.31,16.52-18.62,13.64-34.03-2.66-14.18-9.36-26.32-19.46-36.46-16.41-16.49-27.53-35.77-32.19-58.66-.38-1.85-1.2-3.61-1.82-5.41-.55.16-1.1.31-1.65.47.03,15.94,7.2,30.17,11.91,45.03-11.34-11.43-14.79-26.53-19.45-41.28-.9,1.97-1.35,3.85-1.13,5.65,2.19,17.9,7.65,34.45,20.61,47.65,4.66,4.75,9.8,9.01,14.65,13.57,6.95,6.54,13.09,13.67,17.1,22.51,7.13,15.74,4.72,32.37-10.74,40.87-.24.13-.32.54-.48.81ZM598.55,654.79l2.08-.34c-.34-4.67-.21-9.44-1.11-14-2.21-11.1-8.79-19.95-15.52-28.71-11.71-15.24-20.21-32.04-24.14-50.99-.34-1.62-1.15-3.14-1.75-4.71-.5.04-1.01.08-1.51.12-.52,3.36-1.69,6.76-1.46,10.06.93,13.24.41,26.98,4.03,39.5,3.48,12.06,11.39,22.84,17.76,34.94,1.6-10.7-3.93-18.62-7.3-27.15,8.77,14.48,25.99,22.8,28.92,41.27ZM635.45,282.2c40.1,13.32,81.04.63,92.35-29.52-1.81,1.56-2.98,2.59-4.17,3.59-8.42,7.06-17.96,11.67-29.07,11.41-8.11-.19-16.18-1.55-24.28-2.31-1.94-.18-4.31-.78-5.8.05-9.81,5.43-19.43,11.19-29.02,16.79ZM743.54,345.17c-8.47.76-17.5,2.48-26.47,2.15-12.42-.46-22.07-7.57-30.87-15.86-1.49-1.4-4-2.71-5.89-2.52-9.41.94-18.78,2.38-27.58,3.58,21.78,29.63,73.03,36.76,90.8,12.66ZM196.8,603.01c-6.44,12.48-10.92,25.27-8.52,39.51-6.78-12.28-1.77-24.99-1.39-37.68-3.03,4.8-5.69,9.61-7.59,14.7-6.65,17.74-3.42,33.33,10.71,46.37,3.18,2.93,6.42,5.86,9.14,9.2,9.55,11.71,8.02,26.71-3.6,36.32-2.89,2.39-6.13,4.35-9.21,6.51.21.45.42.9.63,1.35,4.12-1.81,8.64-3.04,12.28-5.54,11.63-7.97,15.99-22.54,10.71-36.39-2.47-6.49-5.81-12.75-9.49-18.66-6.88-11.08-8.29-23.03-6.79-35.56.8-6.74,2.07-13.42,3.13-20.13ZM664.45,484.25c7.71,9.38,13.06,20.15,13.94,33.19,1.57-2.88,2.57-5.64,2.6-8.41.19-16.51-5.39-31.37-17.51-42.12-12.19-10.81-26.34-19.43-39.63-29-.47.33-.95.66-1.42.99.82,2.57,1.11,5.5,2.57,7.62,3.68,5.32,7.67,10.46,11.94,15.32,12.59,14.34,24.53,29.05,30.26,47.72.2.65.21,1.36.31,2.04.53-.38,1.06-.77,1.59-1.15,0-2.8.47-5.7-.09-8.39-1.27-6.08-3.05-12.05-4.55-17.8ZM343.37,231.33c.61-.16,1.23-.32,1.84-.48-1.27-4.5-1.53-9.69-4.03-13.37-4.72-6.95-10.07-13.76-16.31-19.34-14.49-12.95-31.25-11.74-44.06,2.8-5.03,5.71-9.4,12.09-13.48,18.54-7.62,12.03-7.4,24.54-1.08,37.08.68,1.34,1.78,2.46,2.69,3.68-.06-3.29-1.06-6.06-1.66-8.92-.56-2.71-.71-5.52-1.03-8.28,4.85,17.87,6.95,21.46,13.4,22.81-1.51-2.9-3.85-5.94-4.76-9.35-4.71-17.72-.73-33.9,11.01-47.58,9.09-10.6,24.85-13.53,34.45-6.98,10.63,7.25,20.53,15.5,23.02,29.39ZM443.06,207.66c5.86,2.14,12.06,3.59,17.42,6.54,11.18,6.16,22.26,12.62,32.75,19.88,10.81,7.48,22.22,10.71,34.9,7.52,9.79-2.46,17.15-8.19,20.52-20.2-7.04,2.38-12.83,4.16-18.5,6.29-6.03,2.26-12,3.02-19.48.35h16.35c-6.27-2.5-11.57-4.85-17.05-6.69-2.87-.96-6.65-2.31-8.94-1.21-4.08,1.96-8.06.96-12.03,1.56-6.28.95-11.76-.85-17-4.22-4.61-2.97-9.3-5.89-14.24-8.23-4.72-2.24-9.83-3.08-14.7-1.58ZM619.44,324.34c-5.56.86-11.02,2.59-16.38,2.33-8.88-.43-16.06-5.27-21.68-11.99-2.95-3.53-5.26-7.64-7.63-11.63-2.28-3.84-5.6-5.29-9.7-4.19-2.68.72-6.21,1.11-6.12,5.31.34,16.92,12.48,33.43,31.05,34.18-10.17-4.54-18.5-10.4-23.51-19.97,1.33.89,2.3,2.14,3.35,3.33,9.94,11.2,21.84,17.34,37.2,14.09,6.85-1.45,11.41-5.61,13.4-11.46ZM740.99,497.5c.06-.47.12-.94.18-1.41-12.74-.04-21.78-6.85-28.5-16.6-4.39-6.37-7.8-13.54-10.85-20.7-8.14-19.13-23.95-29.57-41.72-37.99-.11-.05-.42.33-.74.59.42.53.76,1.11,1.24,1.54,16.2,14.98,28.6,32.65,38.45,52.38,5.84,11.69,16.5,18.05,28.96,21.08,4.17,1.01,8.64.77,12.98,1.1ZM71.35,538.02c6.36,3.04,11.33,1.65,16.07-.97,10.44-5.78,17.53-14.65,22.43-25.32,6.14-13.37,7.28-27.89,9.26-42.2.32-2.35.42-4.72.63-7.09-.5-.18-1.01-.36-1.51-.53-2.42,4.4-5.36,8.59-7.17,13.23-4.65,11.9-8.6,24.08-13.21,36-4.74,12.24-12.66,21.7-26.5,26.88ZM176.06,665.77c0-1.06.13-1.45-.02-1.67-9.61-14.47-9.2-29.78-3.9-45.53,3.66-10.89,7.46-21.75,10.81-32.74,1.35-4.43,1.7-9.17,2.71-14.95-1.7,1.2-2.24,1.38-2.43,1.74-6.47,12.37-13.4,24.53-19.18,37.22-4.54,9.96-6.05,20.79-4.04,31.79,1.84,10.1,6.47,18.42,16.05,24.13ZM587.53,360.91c3.86,12.32,15.8,20.06,29.2,18.85,16.78-1.52,26.1-12.92,29.03-27.55,1.35-6.75-3.18-16.28-7.47-17.87.75,7.7,1.7,15.54,2.11,23.42.09,1.71-1.38,3.98-2.81,5.2-8.46,7.24-18.37,7.16-26.9,1.73-7.27-4.63-13.91-6.53-21.95-4.16-.31.09-.62.19-1.21.38ZM122.39,319.47c-2.5,11.4,10.33,27.39,30.52,29.42,23.75,2.39,39.75-15.87,41.68-30.71-1.53,2.22-2.68,4.03-3.97,5.73-10.76,14.2-23.77,23.91-42.88,20.85-10.18-1.63-16.64-8.03-20.92-17.17,9.18,10.29,20.5,10.16,31.63,5.39,6.82-2.92,12.9-8.1,14.11-17.53-5.68,3.04-10.62,5.72-15.59,8.33-11.26,5.9-22.05,5.58-32.2-2.58-.61-.49-1.27-.93-2.37-1.73ZM207.29,370.35c5.26,8.17,12.83,10.93,21.19,8.7,8.33-2.21,16.72-4.34,25.2-5.86,5.2-.93,10.63-.65,15.95-.91-9.12-3.33-18.33-6-27.61-8.38-12.39-3.18-23.55.56-34.73,6.45ZM272.9,422.98c3.29-.42,6.6-.73,9.87-1.28,6.91-1.15,11.53-5.16,13.29-11.89.52-2.01.29-5.06-.94-6.49-1.96-2.28-4.42-1.29-6.87.73-8.02,6.65-19.37,9.62-29.72,1.41-1.39-1.1-3.83-.9-5.78-1.3-.04,2.07-.65,4.34-.03,6.18,2.78,8.19,9.83,12.36,20.17,12.62ZM101.2,336.97l-2.6-.78c-1.22,3-3.17,5.91-3.52,9-1.17,10.32,5.98,22.38,15.43,27.01,11.91,5.83,26.74,1.9,32.47-8.73.68-1.27.48-3.02.69-4.55-1.7-.14-3.62-.84-5.07-.29-3.24,1.22-6.16,3.31-9.38,4.62-15.34,6.23-27.81-2.07-28.02-18.54-.03-2.58,0-5.16,0-7.74ZM512.87,202.17c-2.43.89-4.95,1.6-7.28,2.71-11.71,5.56-22.91,4.64-33.73-2.32-1.82-1.17-3.62-2.51-5.63-3.22-3.88-1.39-7.84-2.68-11.87-3.46-4.09-.79-6.61,1.09-6.76,4.5,6.02,3.35,11.7,6.08,16.9,9.52,6.35,4.2,13.28,6.45,20.68,6.56,11.48.17,21.41-3.45,27.69-14.28ZM193.69,223.12c-2.11,15.97,6.6,29.98,20.6,34.09,11.31,3.31,22.6,2.36,32.89-3.44,3.5-1.97,7.01-5.63,8.37-9.32,2.54-6.87,3.51-14.32,5.13-21.52-2.07,1.55-3.39,3.54-4.63,5.58-2.67,4.4-4.84,9.2-8.06,13.15-8.04,9.88-18.99,13.46-31.26,11.59-11.89-1.81-17.4-10.67-20.55-21.36-.86-2.92-1.67-5.85-2.5-8.78ZM158.7,209.95c2.67-2.7,1.39-4.74-1.52-6.47-5.71-3.4-11.31-7.03-17.19-10.11-3.49-1.83-7.45-2.77-11.49-4.22-.73,11.56,5.49,25.77,13.03,31.25,5.62,4.09,7.92,3.46,10.93-3.01-4.29-3.25-8.6-6.51-12.9-9.77.16-.23.32-.46.48-.69,4.21,2.71,8.42,5.42,13.8,8.89-3.4-8.83-11.51-10.9-15.63-17.09,6.78,3.72,13.57,7.43,20.48,11.22ZM599.84,307.45c.71-.21,1.42-.42,2.13-.63,1.69,4.01,3.25,8.08,5.14,11.99.54,1.11,2.04,1.75,3.1,2.6.72-.97,2.02-1.91,2.07-2.92.43-8.55-1.21-16.61-6.99-23.24-.91-1.04-3.68-1.67-4.86-1.07-5.45,2.79-10.7,6-15.89,9.28-.81.51-1.45,2.18-1.31,3.19.8,5.49,11.69,13.69,17.87,13.19-.42-4.12-.84-8.26-1.26-12.4ZM186.06,259.36c-9.5,11.8-10.63,12.81-15.23,13.79,10.58-8.8,16.21-22.12,13.04-29.2-.8,2.04-1.15,3.93-2.16,5.34-4.29,6.02-8.24,12.41-13.33,17.69-4.92,5.11-11.46,6.33-18.43,3.31-1.51-.66-3.45-.32-5.19-.45-.3.59-.59,1.18-.89,1.77,2.18,2.54,3.89,5.9,6.63,7.47,13.44,7.74,34.15-3.53,35.55-19.73ZM157.22,288.69c2.93,11.92,14.46,16.69,33.13,15.04,14.71-1.3,26.44-11.46,27.3-23.8-17.86,15.91-36.88,24.49-60.43,8.76ZM675.81,412.31c15.05,14.36,26.65,31.25,36.62,49.35-1.94-26.98-15.05-45.22-36.62-49.35ZM570.91,360.89c-2.63,10.57,5.91,23.79,17.11,27.93,10.91,4.04,27.87,2.57,30.6-2.97-15.09.44-27.69-4.5-36.79-17.1-.39.36-.78.73-1.17,1.09,2.77,4.58,5.53,9.16,8.56,14.18-10.71-3.98-14.95-12.76-18.31-23.14ZM165.63,288.41c6.82,4.91,14.24,7.08,22.28,4.69,8.62-2.56,14.91-8.07,17.9-16.98-6,4.94-11.82,10.03-20.88,11.58,7.71-6.13,13.66-12.22,13.47-22.55-5.07,5.55-9.45,10.74-14.25,15.51-4.99,4.97-11.25,7.41-18.53,7.76ZM372.55,230.49c-.18.14-.35.29-.53.43,3.2,2.91,6.01,6.51,9.67,8.6,9.05,5.16,18.93,6.22,28.97,3.29,5.42-1.58,10.65-3.8,15.95-5.79,6.59-2.47,13.38-2.72,19.3.93,5.42,3.34,10.73,7.44,14.76,12.31,4.33,5.23,7.12,11.75,10.72,17.94-.41-7.38-2.93-13.95-6.77-20.06-10.42-16.55-25.44-20.76-42.69-11.75-11.46,5.98-23.24,8.58-35.45,3.1-4.98-2.24-9.3-5.95-13.93-8.99ZM551.86,304.77c-6,12.15,2.85,30.66,16.79,38.52,13.2,7.45,32.01,5.27,38.04-5.03-12.96,7.89-24.91,7.81-35.79-.08-11-7.98-16.59-19.14-19.04-33.42ZM85.33,357.88c-.62-.31-1.24-.61-1.86-.92-3.78,5.91-7.81,11.69-11.29,17.77-7.72,13.5-15.43,26.91-32.09,32.26,6.99,2.19,12.23.81,18.84-4.79,9.29-7.88,16.2-17.56,20.91-28.75,2.13-5.06,3.68-10.37,5.49-15.57ZM113.6,440.41c-15.89,19.92-22.51,42.72-22,67.73.58.19,1.16.37,1.74.56,4.26-13.03,8.53-26.06,12.95-39.58-5.53.57-3.61-3.04-2.78-5.12,3.15-7.94,6.69-15.74,10.09-23.58ZM454.4,188.73c7.35,3.86,15.27,7.83,23.01,12.15,8.79,4.9,17.39,5.26,27.01-.46-17.96-2.16-32.35-15.91-50.02-11.68ZM159,64.6c-11.09,22.4-.72,57.12,19.48,65.84-15.74-19.27-23.98-40.7-19.48-65.84ZM557.16,246.16c-6.26,2.97-10.81-5.42-17.56-2.79,7.92,8.93,19.42,9.77,31.43,3.04-7.73-11.05-12.25-15.34-17.8-15.19,3.78,3.86,7.56,7.73,11.34,11.59-4.16-1.9-7.55-4.52-10.87-7.24-2.09-1.71-3.84-2.33-5.78.34-1.94,2.68-.69,4.38,1.44,5.77,2.45,1.6,5.08,2.93,7.8,4.47ZM182.57,318.51c-13.4,10.16-24.8,25.05-45.12,18.24,17,13.11,38.28,4.65,45.12-18.24ZM173.36,365.03c-8.98,12.54-20.15,20.26-36.27,18.78,3.86,5.59,11.52,6.74,19.99,3.7,10.35-3.71,16.97-12.51,16.28-22.48ZM175.87,403.62c-.57-.2-1.14-.4-1.71-.6-5.63,7.56-10.8,15.42-12.78,24.86-1.15,5.51-.61,11.17,3.18,15.62,2.1,2.47,5.27,4.03,7.96,6,.27-.4.54-.81.82-1.21-6.47-11.03-7.77-14.62-5.94-21.59,1.3-4.93,3.65-9.58,5.46-14.39,1.08-2.87,2.02-5.79,3.02-8.69ZM179.66,244.55c-9.85,8.26-19.26,16.15-28.65,24.03,10.53,5.21,27.43-8.56,28.65-24.03ZM148.44,300.46c-2.04-1.94-3.25-3.83-4.95-4.5-1.59-.63-4.6-.71-5.42.28-4.42,5.31-7.32,11.47-7.03,18.59.06,1.36,1.46,2.66,2.24,3.98,1.05-1.02,2.58-1.85,3.07-3.09,2.42-6.09,5.1-11.91,12.1-15.26ZM630.97,684.64c-.51-.29-1.03-.57-1.54-.86-12.39,8.5-23.26,7-32.96-4.84,2.65,4.68,5.36,9.09,9.1,12.33,6.31,5.47,16.81,4.84,22.37-.87,1.45-1.49,2.04-3.82,3.03-5.76ZM228.29,223.31c-.04-.53-.09-1.05-.13-1.58-5.03.5-10.07.99-15.1,1.49-.09-.58-.17-1.16-.26-1.74,3.61-1.02,7.21-2.04,11.24-3.17-1.52-1.07-3.45-3.48-4.82-3.19-5.88,1.22-11.77,2.89-16.47,7.08,5.38,7.34,17.46,7.66,25.55,1.12ZM505.03,88.21c-7.62-9.59-13.68-19.74-24.84-25.28,6.55,9.81,12.9,19.32,19.42,29.1,1.14-.8,3.01-2.12,5.42-3.82ZM618.65,118.98c-10.21,5.59-19.26,15.72-30.22,1.72-.35,6.15-.63,11.2-.99,17.43,9.8-7.98,23.44-7.62,31.2-19.15ZM293.41,421.31c4.71-.75,8.98-1.29,13.18-2.15,4.62-.95,5.66-4.32,2.61-7.96-1.98-2.36-4.02-4.68-6.22-7.23-3.49,6.32-6.35,11.5-9.57,17.34ZM156.62,361.97c-12.64,10.32-25.12,17.61-41.33,14.15,9.33,9.13,37.14-.18,41.33-14.15ZM609.2,290.55c4.12,7.15,8.27,14.38,12.36,21.47,1.17-5.33.94-11.15-1.29-16.79-2.41-6.09-5.84-7.19-11.06-4.69ZM130.96,288.99c-4.57-.41-7.37,1.54-9.94,7.49-2.78,6.43-2.64,12.16-.18,14.27,3.29-7.08,6.67-14.33,10.12-21.76ZM625.52,338.12c.82,7.89,1.53,14.63,2.36,22.62,5.15-6.82,4.03-17.15-2.36-22.62ZM539.65,689.99c-.14,13.35,6.96,24.29,16.96,25.31-9.03-6.8-15.94-14.23-16.96-25.31ZM144.98,321.16c7.79.36,14.55-5.84,13.23-12.76-4.61,4.45-8.58,8.27-13.23,12.76ZM357.71,203.82c.72-.24,1.43-.47,2.15-.71-2.74-7.52-5.48-15.03-8.22-22.55-.6.22-1.21.44-1.81.65l7.89,22.6ZM467.63,223.16c-6.89-7.12-15.3-9.99-22.91-11.05,6.61,3.19,14.54,7.01,22.91,11.05ZM491.26,144.54c-4.53,4.84-4.79,10.15-1.19,12.71.41-4.41.8-8.56,1.19-12.71Z"/>
  <path class="cls-2" d="M222.66,408.88c6.51,3.26,13.01,6.52,19.52,9.78.11-.19.22-.39.33-.58-1.79-2.14-3.66-4.21-5.34-6.42-3.26-4.29-2.47-6.85,2.62-8.4,1.88-.58,3.89-.75,5.54-1.05,2.92,6.56,5.73,12.85,8.56,19.21-.93-.11-2.44-.28-3.96-.46,7.65,4.39,19.93,6.02,31.39,4.39,10.71-1.52,21.42-3.19,32.19-4.06,4.27-.35,8.7,1.28,14.16,2.19-.64-2.72-.75-5.19-1.77-7.2-10.31-20.36-26.57-31.16-49.77-31.76-18.76-.49-35.95,4.14-52.02,13.44-5.23,3.03-10.51,5.36-16.63,4.53,8.91-5.12,17.35-11.16,26.68-15.11,25.55-10.82,62.91-13.78,88.29,16.31,2.22,2.63,5.2,4.65,7.9,6.85,6.11,4.97,6.18,10.71.42,15.97-2.9,2.64-5.38,5.75-8.38,9,5.73-1.32,10.69-2.46,16.81-3.87-.51,4.56-.87,7.68-1.39,12.34,5.66-5.37,10.29-9.83,14.99-14.21,1.03-.96,2.29-1.65,3.44-2.47.98,1.42,2.59,2.75,2.82,4.28.89,5.75,1.56,11.56,1.89,17.37.9,15.47,1.56,30.96,2.36,46.43.12,2.32.53,4.62,1.99,6.92,0-8.61.09-17.22-.02-25.83-.23-17.49-.55-34.98-.89-52.47-.17-8.52-2.4-16.47-7.16-23.59-2.05-3.06-1.87-5.51.47-8.51,2.64-3.38,5.08-7.14,6.58-11.12,1.31-3.47,1.21-7.47,1.73-11.24l-1.56-.21c-.4,2.03-.69,4.09-1.22,6.08-2.44,9.19-8.97,14.37-18.32,13.16-7.33-.95-14.46-3.36-21.68-5.12.11-.49.23-.99.34-1.48,4.04.85,8.05,1.88,12.12,2.5,7.6,1.14,10.3-1.92,8.57-9.38-1.86-8.01-4.66-11.47-9.59-12.69,2.07,4.13,4.41,8.81,7.13,14.23-1.84-.19-2.32-.15-2.36-.26-3.99-11.04-11.42-16.87-23.57-17.17-19.22-.47-37.49-5.67-55.13-13.04-12.18-5.09-23.16-3.49-33.97,4-10.53,7.29-21.61,13.78-32.49,20.56-1.01.63-2.29.83-4.72,1.68,1.32-3.26,1.9-5.49,3.04-7.37,7.82-12.81,12.51-26.46,11.8-41.67-.33-6.98,2.59-12.05,7.81-16.88,4.76-4.41,8.74-10.14,11.63-15.99,5.47-11.12,15.03-16.03,25.94-19.42,4.68-1.45,8.81.21,12.73,2.77,10.6,6.93,21.99,7.9,33.33,2.77,4.59-2.08,8.51-6.1,12.04-9.89,2.33-2.51,2.44-6.14-.54-9.6-1.71,3.93-2.37,9.22-7.85,8.74-3.99-.35-7.86-2-11.71-3.04,0-.12,0,.55,0,1.44-9.59-7.32-13.16-16.85-11.62-28.33,1.13-8.44,4.37-16.03,9.93-22.56,8.27-9.71,20.71-12.51,32.11-6.77,9.03,4.55,15.52,11.73,19.56,21.23-7.2-6.5-14.87-11.91-24.74-13.37-10.73-1.58-18.03,3.97-24.84,11.11-7.62,8-10.35,25.45-3.26,32.12,7.83-11.09,18.48-16.04,31.92-13.82,13.87,2.29,25.65-1.84,36.14-10.61,3.28-2.74,5.59-1.9,7.82,1.3,15.67,22.5,31.74,28.73,58.44,22.23,5.87-1.43,11.09-1.02,16.37,1.77,6.47,3.43,13.12,6.53,19.61,9.93,5.09,2.66,8.22,6.77,8.04,12.77-.17,5.84-5.35,10.6-11.04,9.49-2.18-.43-3.94-3.06-6.42-5.12-4.41,1.47-4.99,3.44-1.08,7.32,5.26,5.22,14.83,5.83,21.15.98,6.95-5.33,10.75-12.74,9.8-21.34-1.46-13.21-4.67-26.26-15.13-35.53-5.1-4.52-11.27-8.54-17.66-10.63-4.55-1.49-10.44-.02-15.44,1.27-9.13,2.36-17.86,6.62-27.08,8.17-12.05,2.03-22.61-4.75-26.04-15.16,1.59.85,2.94,1.37,4.06,2.2,15.06,11.07,30.26,8.78,45.52.5,4.8-2.6,9.24-6.33,14.35-7.78,10.47-2.97,18.84,1.88,25.66,9.55,9.93,11.15,15.48,24.04,14.46,39.22-.33,4.87.66,7.73,6.15,9.19,7.32,1.95,12.94,7.08,16.35,13.85,6.47,12.83,16.6,20.06,30.84,21.66,1.64.18,3.22.82,4.84,1.21,4.15,1,5.98,3.32,5.73,7.86-.86,15.73,3.4,30.24,10.5,44.19,2.75,5.41,4.18,11.5,6.07,17.33,2.01,6.17,3.42,12.56,5.88,18.53,3.3,8,4.09,15.9,2.48,24.41-3.17,16.82-8.24,33-15.8,48.3-7.03,14.22-18.23,24.87-31.08,33.93-3.62,2.55-6.9,5.59-9.75,9.41.8-.2,1.61-.33,2.38-.61,3.39-1.22,4.37.25,3.75,3.38-1.27,6.36-2.6,12.72-3.9,19.07-.16.79-.31,1.58-.12,2.54,14.52-19.77,32.39-37.29,39.33-61.96.5.17.99.34,1.49.52-.73,6.32-.84,12.8-2.31,18.94-5.84,24.43-11.3,49.01-18.59,73.02-3.05,10.05-9.22,19.7-15.86,28.03-23.65,29.68-51.49,55.35-79.95,80.3-10.1,8.85-22.15,13.5-35.7,13.54-12.14.03-23.56-1.53-28-17.01-3.04,11.89-11.28,14.6-20.73,15.42-15.94,1.38-30.16-2.98-40.46-15.34-21.53-25.85-43.04-51.85-58.94-81.73-8.9-16.72-13.42-34.99-16.8-53.51.53-.35,1.06-.7,1.59-1.05,3.27,4.4,6.93,8.57,9.7,13.27,2.76,4.69,4.62,9.91,7.57,14.82-.61-4.06-1.01-8.17-1.86-12.18-3.88-18.24-11.28-34.35-26.83-45.92-35.61-26.51-45.95-64.16-46.01-106.13,0-3.5,1.22-7,2.16-12.05,3.37,5.22,5.95,9.01,8.33,12.93,4.51,7.43,10.79,10.18,19.47,8.62,9.04-1.62,8.95-1.24,11.78,7.33,5.72,17.31,19.06,24.32,36.06,26.05,3.28.34,6.63.05,11.17.05-9.38-2.88-18.05-4.78-23.84-12.52,24.14,2.93,47.41-2.51,70.76-7.07-4.79.43-9.59.81-14.38,1.3-11.74,1.18-23.48,3.47-35.2,3.38-17.32-.14-31.45-9.03-44.72-19.11.26-.57.52-1.14.79-1.7ZM549.08,374.55c.54-.91,1.07-1.82,1.61-2.73-1.53-.97-3.17-1.81-4.58-2.93-8.36-6.61-16.63-13.35-25.01-19.93-9.18-7.21-19.38-8.24-30.23-4.61-3.63,1.21-7.27,2.44-10.84,3.83-15.3,5.93-31,10.22-47.42,11.55-9.13.74-16.09,4.11-18.05,14.08-.28,1.41-1.28,2.67-1.95,4-2.54-7,.09-12.06,5.62-16.63-8,1.36-12.54,5.46-14.01,11.98-1.61,7.13.55,10.41,7.8,10.44,4.75.01,9.53-1.04,14.25-1.87,2.37-.42,4.65-1.42,6.96-2.16-9.49,7.08-25.51,8.44-32.57,3.81,1.59,2.25,3.18,4.49,4.91,6.95-8.62,8.33-12.16,19.1-13.13,30.86-.86,10.46-1.81,20.93-2.06,31.42-.35,14.63-.09,29.27-.09,43.9,1.98-14.07,3.03-28.18,3.91-42.3.72-11.63,1.11-23.29,1.9-34.92.2-2.87,1.41-5.67,2.27-8.93,3.44,6.03,6.41,11.25,9.39,16.47,1.01-7.84,4.7-13.1,10.13-17.47,3.37-2.71,6.77-5.42,9.93-8.36,21.48-19.97,46.42-25.53,74.54-18.16,9.9,2.59,17.98,8.47,26.18,14.21,7.52,5.26,12.76,5.25,18.65,1.02-20.38-16.49-42.89-28.67-70.83-25.79,24.52-10.83,48.87-20.34,72.72,2.29ZM435.08,426.75c23.33,4.58,46.75,9.27,70.98,4.54-3.85,6.94-10.59,8.9-16.43,12.14,16.63-1.71,28.55-10.28,35.59-25.25,2.5-5.31,5.83-8.08,11.64-8.42,4.18-.25,7.37-2.37,9.54-7.35-9.05,4.36-15.83.53-22.52-3.89-16.88-11.16-35.32-15.49-55.56-13.91-23.64,1.84-36.69,16.72-46.58,35.93-.56,1.1.09,3.14.79,4.39.23.41,2.45-.19,3.72-.5,4.61-1.14,9.28-3.57,13.79-3.28,9.24.6,18.34,3.21,27.58,3.93,7.36.57,14.86-.27,22.27-.85,1.47-.11,3.27-1.59,4.12-2.94,3.99-6.4,7.71-12.97,11.62-19.66,11.02,3.79,11.09,5.5,0,17.28,6.72-3.2,13.44-6.4,20.16-9.6-13.43,14.52-28.69,21.08-47.59,20.69-8.44-.17-16.85-1.7-25.26-2.71-6-.72-11.99-2.47-17.87-.54ZM405.64,514.5c8.93-.05,10.56.77,11.55,5.74.42,2.11.62,4.29.74,6.44.26,4.62-1.64,7.23-6.63,7.26-6.21.04-11.88,1.55-15.89,6.85-9.41,12.44-31.51,12.91-41.07-1.39-4.17-6.24-10.43-6.4-16.9-4.65-4.53,1.22-7.32.24-7.53-4.4-.18-4.07.62-8.8,2.68-12.21,2.77-4.57,8.16-3.61,12.78-2.74,4.36.82,3.59,4.56,3.87,7.6.18,1.92.25,3.85.36,5.78,1.12-2.19,1.17-4.41,1.11-6.63-.16-6.47-2.53-8.93-9.03-9.47-9.99-.82-20.39,14.64-15.6,23.9,2.79,5.39,6.46,10.58,10.73,14.86,5.15,5.16,9.83,10.38,12.23,17.34,1.09,3.14,3.13,3.92,6.42,4.17,4.52.34,9.3,1.12,13.33,3.04,5.97,2.83,11.05,1.46,16.07-1.49,4.24-2.49,1.87-6.63,1.72-10.04-.31-6.94.18-7.96,7.16-9.48,5.12-1.12,8.57-3.75,10.67-8.73.76-1.79,3.3-3.49,5.32-3.95,6.27-1.42,10.44-4.44,10.71-10.69.21-4.97-.87-10.28-2.64-14.96-1.78-4.71-6.8-5.33-12.2-2.17ZM443.02,594.5c-2.45-2.69-4.6-5.8-7.48-7.89-1.44-1.04-5.51-1.07-6.2-.06-4.3,6.28-8.86,3.23-13.49,1.02-5.7-2.72-11.33-5.61-17.08-8.24-4.89-2.24-9.08-1.29-13.2,2.49-8.47,7.79-15.17,7.89-23.7.09-4.41-4.04-8.92-4.95-14.16-3.08-3.9,1.39-7.63,3.29-11.4,5.03-3.63,1.67-7.15,3.57-10.83,5.11-2.89,1.21-5.42,1.2-8.12-1.46-1.26-1.24-5.27-1.29-6.88-.19-2.44,1.67-4.12,4.68-5.64,7.39-.69,1.24-.23,3.14-.28,4.74,1.58.05,3.23.41,4.73.1,3.2-.67,6.28-2.02,9.49-2.49,5.73-.85,11.59-.95,17.3-1.92,10.82-1.84,21.41-4.32,32.52-.7,3.94,1.28,8.81-.25,13.25-.54,5.75-.39,11.55-1.57,17.21-1.07,8.58.77,17.05,2.69,25.57,4.12,4.04.68,8.14,1.15,12.1,2.15,3.5.88,5.09-.21,6.29-4.59ZM344.65,615.63c-2.58,1.21-5.04,2.36-8.55,4.01,4.87,4.38,9.07,8.35,13.51,12.02.98.81,2.9,1.07,4.21.78,14.28-3.07,28.48-2.1,40.75.58,5.58-5.07,10.26-9.32,15.49-14.07-3.08-1.44-4.82-2.25-6.52-3.05,6.13-3.88,12.04-7.62,17.96-11.36-6.71,2.19-12.65,6.44-19.12,7.54-19.61,3.32-39.43,3.15-59.04-.61-3.82-.73-7.37-2.99-10.96-4.71-2.02-.97-3.87-2.27-5.79-3.42-.29.51-.58,1.02-.87,1.54,6.2,3.52,12.39,7.04,18.93,10.76ZM333.3,305.65c24.7,5.23,49.4,4.93,74.09,0h-74.09ZM380.11,372.63c4.71-7.13,3.35-15.92-3.26-23.5-3.97,8.4-.96,15.74,3.26,23.5Z"/>
  <path class="cls-2" d="M447.28,173.85c.49-.76.98-1.53,2.23-3.48-76.64-14.78-150.39-8.67-222.3,19.98,3.39,6.62,13.65,11.54,21.43,9.04,6.35-2.04,12.23-5.76,18.04-9.22,3.39-2.02,6.32-4.88,9.29-7.55,15.44-13.91,38.47-11.11,50.74-.76,7.93,6.69,14.49,15.03,21.48,22.8,1.32,1.46,1.74,3.73,1.68,6.4-1.92-1.32-3.84-2.63-5.42-3.72,2.41,3.62,5.8,7.17,7.31,11.4,1.47,4.1,1.68,9.02-2.49,13.94,0-2.43-.05-3.68,0-4.93.34-7.44-2.6-13-8.69-17.46-5.01-3.66-9.34-8.24-14.81-13.15,2.04.2,2.74.27,3.48.34-.1-.41-.07-.81-.26-.98-5.46-5.01-11.29-9.31-18.82-10.74-12.9-2.46-23.04,2.44-31.93,11.37-4.79,4.81-9.54,9.94-15.18,13.56-14.89,9.56-31.3,3.88-38.09-12.49-.63-1.51-1.38-2.97-2.34-5.01-4.11,2.94-7.9,5.58-11.61,8.33-11.21,8.32-22.62,16.39-33.53,25.09-14.73,11.75-26.39,26.28-36.36,42.21-1.76,2.82-3.97,5.36-5.71,8.19-2.33,3.79-5.33,5.23-10.8,2.92,2.87-8.25,5.31-16.82,8.8-24.94,11.81-27.47,30.56-49.03,56.48-64.09,11.18-6.49,22.49-12.77,34.01-18.64,7.06-3.6,14.71-6.05,21.93-9.37,16.28-7.46,34-9.22,51.16-13.09,43.72-9.87,87.92-11.05,132.14-4.42,24.4,3.66,48.02,10.5,70.8,20.56,15.65,6.91,30.62,14.82,44.43,24.66,11.47,8.17,21.94,17.77,32.75,26.85,8.44,7.09,17.85,13.32,21.61,24.61,15.97-9.07,32.25-14.71,48.99-19.25,12.92-3.5,24.32-9.94,34.12-19.08,1.99-1.85,3.67-4.02,5.1-6.68-19.2,16.03-41.65,21.24-67.14,21.41,3.67-3.06,6.63-5.13,9.09-7.68,4.26-4.42,8.05-9.29,12.35-13.67,1.54-1.57,3.98-3.2,6-3.2,19.94,0,36.05-8.19,49.48-22.39,1.46-1.54,2.59-3.39,4.8-4.55,1.13,17.31-3.2,33.05-10.97,47.88-7.88,15.03-18.62,27.16-36.45,32.22,4.42,1.41,7.86,2.51,12.94,4.14-2.65,2.08-3.99,3.67-5.7,4.39-14.78,6.16-30.32,8.9-46.22,9.87-1.06.06-2.73-.61-3.17-1.45-2.69-5.1-5.1-10.34-7.98-16.33,5.73.56,6.67,6.3,11.62,8.59-2.74-3.7-4.85-6.55-7.77-10.49,5.31-.8,10.08-1.52,14.63-2.21.11.19-.25-.46-.65-1.18,1.58-.83,3.1-1.63,4.61-2.43-9.27.09-18.15,1.24-26.19,6.64-4.82-7.17-10.69-14.21-16.91-20.92-.3.34-.61.68-.91,1.01,6.06,8.16,12.73,15.95,18,24.59,5.15,8.45,12.3,16.24,12.8,26.89-.47.33-.95.66-1.42,1-1.51-1.91-3.27-3.66-4.49-5.74-8.43-14.4-17.11-28.61-29.01-40.53-1.74-1.74-3.12-3.84-4.67-5.78-.47.4-.94.79-1.41,1.19.77,1.04,1.43,2.19,2.32,3.12,12.99,13.66,22.54,29.67,31.41,46.13.8,1.49.98,3.31,1.45,4.98-.66.23-1.31.47-1.97.7-1.13-1.91-2.28-3.81-3.37-5.75-13.43-23.85-30.85-44.2-53.13-60.23-22.6-16.26-46.95-29.13-73.54-37.61-5.55-1.77-10.98-3.91-16.51-5.76-3.66-1.23-6.25-.26-8.05,3.53-2.71,5.71-5.78,11.27-8.92,16.76-13.7,24.06-41.63,30.44-64.38,14.73-5.83-4.03-11.92-7.85-15.73-16.1,4.2,3.32,7.21,5.82,10.34,8.15,13.45,10.05,27.83,14.82,44.39,8.01,7.89-3.25,13.4-9.03,18.21-15.8,4.6-6.48,9.48-12.77,14.21-19.12-.08-.01-.93-.16-1.77-.31l.1.12ZM500.75,175.06c1.03.11,2.6-.11,3.81.45,16.55,7.6,31.96,17.05,46.14,28.51,1.29,1.04,2.88,1.7,4.33,2.53.29-.44.58-.87.87-1.31-3.78-3.06-7.42-6.29-11.35-9.15-30.97-22.52-65.8-36.57-102.97-44.21-59.98-12.32-119.3-6.37-177.87,9.69-8.8,2.41-17.27,6.04-25.82,9.3-2.14.82-3.98,2.4-5.96,3.63,1.81.71,3.09.5,4.3.08,15.33-5.33,30.55-10.72,46.35-14.84,21.75-5.67,43.82-8.66,65.94-10.89,51.44-5.19,100.73,5.49,148.78,23.07,1.36.5,2.33,2.09,3.42,3.13ZM349.58,153.73c-.03.7-.06,1.39-.09,2.09,2.22,0,4.45.05,6.67,0,23.68-.56,47.42-.37,70.67,4.25,17.39,3.46,34.35,9.1,51.5,13.75,2.78.75,5.58,1.44,8.37,2.15.1-.57.21-1.14.31-1.71-44.29-17.21-89.97-24.97-137.44-20.53ZM226.28,185.55c.19.45.38.91.57,1.36,1.65-.62,3.32-1.18,4.94-1.88,7.94-3.43,15.66-7.48,23.83-10.23,25.32-8.53,51.37-13.95,77.93-16.93,2.31-.26,4.56-1.09,6.83-1.66-.18-.61-.36-1.22-.54-1.83-39.62,3.92-78.27,11.4-113.55,31.18ZM146.87,240.48c1.11-1.23,2.37-2.35,3.3-3.7,9.33-13.67,22.2-23.81,34.49-34.52,1.73-1.51,3.86-2.57,5.82-3.82,9.62-6.13,19.25-12.25,28.84-18.42.42-.27.52-1.01,1.34-2.69-29.21,16.93-57.15,33.33-73.78,63.16ZM129.07,278.77c16.26-24.01,32.03-48.22,56.22-65.43-.91-.47-1.31-.55-1.51-.38-13.91,11.41-27.87,22.7-37.34,38.49-2.78,4.64-6.75,8.58-10.17,12.84-.39-.31-.78-.63-1.17-.94.09-.79.17-1.58.35-3.16-2.31,6.73-4.35,12.66-6.38,18.58ZM224.94,193.41c5.67,7.07,11.07,13.16,20.34,13.37,17.11.38,25.65-12.23,35.19-23.2-4.43,3.59-8.2,7.99-12.54,11.74-12.34,10.67-30.97,13.29-41.27-1.65-.11-.16-.55-.1-1.73-.26ZM549.99,211.35c-1.38-1.82-2.79-4.83-5.15-6.55-5.35-3.9-11.21-7.09-16.77-10.72-1.09-.71-1.73-2.12-2.58-3.21-.04.3-.07.61-.11.91-8.07-3.51-16.13-7.03-24.36-10.61.37.69.57,1.76,1.12,1.99,17.5,7.3,33.47,17.23,47.85,28.19ZM221.28,187.96c-.52-.74-1.04-1.49-1.56-2.23-8.91,6.58-17.82,13.15-26.73,19.73.45.62.9,1.23,1.35,1.85,8.98-6.45,17.96-12.9,26.94-19.34Z"/>
  <path class="cls-2" d="M321.18,821c5.21-4.22,5.11-9.75,4.48-15.58-1.7-15.54-9.53-28.6-16.7-41.94-.94-1.74-1.92-3.46-2.88-5.19.3-.32.6-.63.9-.95,1.79,1.65,3.81,3.12,5.34,4.98,7.48,9.14,14.84,18.39,22.23,27.61,11.92,14.87,24.66,11.9,36.07,2.91,5.49-4.32,10.99-8.67,16.81-12.53,16.28-10.81,28.18-25.47,36.73-42.7,14.67-29.61,34.1-55.95,54.49-81.71,5.78-7.31,11.78-14.56,16.57-22.51,5.68-9.42,13.88-12.12,24.84-11.74-.79,5.07-1.6,10.06-2.35,15.06-1.33,8.89-3.03,17.74-3.87,26.67-2.24,24.01,7.37,42.73,26.38,56.99,1.07.8,2.14,1.58,3.18,2.42.22.18.31.53.74,1.31-19.36,9.88-33.04,26.49-48.21,41.32-21.99,21.5-48.25,32.41-78.79,34.28-17.41,1.07-33.55,6.65-48.19,16.36-10.85,7.2-22.61,11.48-35.85,9.63-3.98-.55-7.82-2.03-11.73-3.08-.06-.54-.12-1.07-.18-1.61Z"/>
  <path class="cls-2" d="M436.76,143.48c.79-1.46,1.22-2.56,1.91-3.46,10.86-14.15,9.78-29.9,5.8-45.83-2.64-10.57-6.02-20.96-9.76-31.3,1.63,7.43,3.41,14.84,4.84,22.31,1.16,6.02,2.27,12.1,2.74,18.2.59,7.65-1.39,14.85-5.34,21.5-1.7,2.86-3.25,5.82-4.75,8.79q-4.14,8.17-13.14,6.8c-4.6-.7-9.19-1.63-13.82-1.91-3.57-.22-5.6-1.69-6.41-5.04-4.21-17.53-.3-33.29,10.41-47.55,1.76-2.35,3.58-2.09,5.26.11,1.17,1.54,2.27,3.13,3.4,4.7.44-.08.88-.16,1.32-.23,0-1.46.13-2.93-.03-4.37-.39-3.47-1.05-6.91-1.36-10.39-2.01-22.53,13.28-43.4,35.4-48.65-1.7,8.81-3.42,17.76-5.14,26.7.61.15,1.23.31,1.84.46.87-2.75,1.75-5.5,2.62-8.23.41.02.9-.09,1.01.07,8.06,11.4,16.63,22.49,23.99,34.33,9.08,14.6,12.13,30.84,9.75,47.97-.23,1.64-.56,3.32-1.16,4.85-5.86,14.77-10.78,18.32-26.38,15.17-7.48-1.51-14.91-3.23-23-5Z"/>
  <path class="cls-2" d="M332.96,70.32c1.38,3.64,2.58,6.82,3.99,10.52,7.92-8.72,15.94-16.62,18.5-28.28,2.54-11.56-.32-22.36-4.98-33.92,2.64,1.01,4.25,1.39,5.61,2.18,22.26,12.88,37.22,31.12,40.68,57.22,1.45,10.96-1.07,20.86-11.21,27.5-1.02.67-1.34,2.97-1.37,4.52-.08,5.76.79,11.62.02,17.26-.96,7.02-3.43,8.69-10.28,9.28-2.58.22-5.19.08-7.77.33-2.44.23-4.86.76-7.71,1.23-3.55-11.32-2.1-21.45,3.72-31.33,4.8-8.14,9.71-16.34,13.31-25.03,3.86-9.31,4.25-19.31,1.32-29.24,1.28,19.15-7.09,34.71-18,49.33-6.08,8.15-8.57,17.56-9.77,27.43-.38,3.09-.69,6.18-1.12,10.14-2.21-1.27-3.71-2.12-5.2-2.97-.52,3.08-2.51,3.25-9.11.52.7.93,1.15,1.53,1.99,2.66-4.94,0-9.61.83-13.74-.3-2.61-.71-5.78-4.07-6.34-6.74-1.71-8.22-3.21-16.69-3.05-25.03.18-9.94,12.52-31.17,20.52-37.26Z"/>
  <path class="cls-2" d="M558.29,162.05c-5.78,4.31-10.69,8.14-15.78,11.71-6.76,4.74-13.54,4.51-20.49.03-3.48-2.24-7.44-3.71-11.12-5.65-1.91-1.01-3.68-2.27-5.99-3.72,15.23-20.31,35.15-38.05,45.43-62.55-.33-.25-.66-.5-.99-.75-1.99,2.56-3.81,5.26-5.99,7.65-11.64,12.79-23.4,25.47-35.02,38.27-2.44,2.69-5.02,5.47-6.6,8.67-1.52,3.08-3.88,3.5-6.5,3.55-.56.01-1.82-2.2-1.65-3.2,1.77-10.49,3.76-20.94,5.71-31.4.15-.81.68-1.58.72-2.38.59-11.13,7.82-16.9,16.81-21.66,14.76-7.82,25.76-18.89,28.82-36.13.54-3.07.73-6.2,1.09-9.39,6.35,3.77,15.25,25.75,17.45,40.82,2.28,15.61-1.1,30.03-7.28,44.67,4.41-2,8.83-4,14.16-6.41,2.97,11.16.06,20.62-5.44,29.58-6.31,10.28-14.9,17.11-27.68,17.47,8.82-3.88,14.96-10.46,20.35-19.2Z"/>
  <path class="cls-2" d="M284.21,90.07c-2.65,4.17-5.55,8.21-7.89,12.54-1.89,3.5-2.93,7.44-4.66,11.03-6,12.5-8.16,25.01.19,38-4.68.55-8.52,1-12.37,1.44-.48.06-1.08-.1-1.43.13-5.59,3.68-6.39,3.7-11.08-.63-12.11-11.19-14.13-25.14-10.49-40.35,1.22-5.1,3.47-9.95,5.51-15.63,2.17,2.58,3.62,4.31,5.62,6.69,4.98-13.01,15.29-21.19,23.75-30.85,8.66-9.9,16.51-20.09,11.96-34.96,8.94,7.05,15.02,15.44,15.59,26.89.16,3.27-.52,6.62-1.1,9.89-.7,3.94-1.23,7.27.37,11.68,1.66,4.59-.4,10.7-1.42,16.03-.79,4.15-2.49,8.13-4.08,13.09,3.14-1.19,5.19-1.98,7.76-2.95,1.08,10.68,2.11,20.82,3.23,31.93-2.26.62-5.29,1.46-9.17,2.52.62-2.26.93-3.4,1.43-5.22-3.39,2.79-5.9,5.82-9.13,7.32-6.2,2.88-8.17,1.85-10.4-4.57-4.68-13.5-4.39-26.83,2.1-39.77,2.28-4.55,4.7-9.04,7.05-13.55l-1.35-.71Z"/>
  <path class="cls-2" d="M556.42,195.05c-1.6-1.35-3.21-2.69-5.6-4.7,8.2-9.1,15.14-19.03,24.26-26.16,6.44-5.04,15.65-7.19,23.97-9.03,14.14-3.12,24.85-10.94,33.71-21.73,1.87-2.28,3.17-5.67,3.31-8.61.42-9.27.15-18.56.67-27.88,4.56,8.65,3.23,17.74,1.21,26.89.41.07.82.15,1.23.22,1.18-3.36,2.35-6.72,3.53-10.08,5.17,3.72,6.34,18.12,3.62,36.56-1.91,13-7.82,23.92-16.16,33.52,4.16,6.03,4.13,6.85-.46,12.26-10.21,12.01-22.34,20.85-38.31,23.6-4.5.78-8.07,0-11.22-3.49-4.11-4.55-8.53-8.83-12.98-13.41,17.51-7.07,36.5-10.89,49.84-25.53,3.86-4.23,7.43-8.72,10.43-13.67-4.59,3.97-9.06,8.08-13.79,11.87-10.92,8.75-24.47,11.88-37.08,17.02-3.54,1.44-7.26,2.47-10.79,3.93-3.62,1.5-6.74,1.14-9.5-1.71,2.87-3.62,5.75-7.24,8.63-10.86-.49-.33-.97-.67-1.46-1-3.05,3.56-7.44,6.27-7.05,11.98Z"/>
  <path class="cls-2" d="M72.3,188.11c13.17,29.01,40.78,36.89,67.71,45.75-.08.63-.15,1.25-.23,1.88-1.81.36-3.64,1.15-5.42,1.02-7.42-.53-14.83-1.34-22.41-1.37,1.13.53,2.26,1.06,3.7,1.73-1.1,1.48-2.02,2.73-3.36,4.55,6.15-.72,11.56-1.36,16.97-1.99.07.36.15.72.22,1.09-2.38,1.52-4.76,3.04-7.14,4.57.13.42.27.84.4,1.26,3.05-.54,6.1-1.07,9.92-1.75-2.82,2.4-5.1,4.34-8.12,6.92,2.09-.33,3.29-.52,4.95-.79-1.99,3.84-4.32,5.5-8.84,5.2-16.67-1.11-31.5-6.54-44.27-17.39-1.13-.96-2.17-2.06-3.16-3.18-.4-.46-.57-1.12-1.05-2.14,2.2-.31,4.08-.57,7.04-.99-12.07-10.38-18.46-23.23-21.1-37.97-2.61-14.53-2.58-28.9,3.25-44.38,1.76,2.55,2.88,3.73,3.5,5.13,9.55,21.53,27,31.82,49.57,34.28,5.95.65,8.51,2.66,9.19,8.78.71,6.37,2.95,12.57,4.8,19.93-21.57-5.63-41.15-13.39-56.11-30.15Z"/>
  <path class="cls-2" d="M119.48,268.63c-4.35.83-8.7,1.66-11.95,2.28-.65,1.37-1.03,2.16-1.74,3.64,3.23,1.18,6.69,2.44,11.18,4.08-1.44,1.6-2.45,3.13-3.84,4.15-1.16.85-2.75,1.55-4.16,1.56-8.69.07-14.41,6.07-21.07,10.22-4.33,2.7-8.68,5.37-13.6,8.41,14.26-.98,25.43-9.58,39.73-13.81-2.95,6.06-5.42,11.12-7.35,15.09.66,4.75,1.2,8.67,1.8,12.96-12.9,5.31-25.65,7.81-39.24,5.65-19.11-3.03-35.07-11.29-46.48-27.26-3.53-4.93-6.57-10.19-5.45-18.23,2.16,3.2,3.47,5.24,4.87,7.21,8.15,11.47,19.54,14.38,31.81,7.37,5.42-3.1,10.26-7.34,15.01-11.48,12.92-11.25,28.01-15.52,44.82-14.56,1.89.11,3.75.66,5.63,1,0,.56.01,1.12.02,1.68Z"/>
  <path class="cls-2" d="M610.75,472.62c4.2,6.81,8.41,13.62,13.17,21.33-1.55-9.99-7.45-18.24-3.34-28.2.97,2.16,1.94,4.32,2.92,6.47,4.42,9.67,8.42,19.56,13.36,28.95,7.3,13.88,18.78,22.83,33.89,27.62,8.5,2.69,16.92,6.21,24.65,10.63,11.37,6.52,17.87,16.6,17.81,31.08-1.18-1.09-2.03-1.56-2.41-2.28-7.49-13.94-20.08-20.6-34.81-23.49-14.28-2.8-28.18-6.39-40.84-13.91l-.73,1.36c5.04,2.98,9.85,6.5,15.17,8.82,8.53,3.71,17.37,6.71,26.13,9.88,13.12,4.75,22.91,12.81,26.63,26.79,1.55,5.85,1.86,11.75-1.94,18.24-.69-3.69-.96-6.46-1.74-9.08-3.04-10.17-9.34-18.12-18.21-23.61-6.75-4.18-14.04-7.6-21.35-10.76-32.69-14.14-46.83-40.71-50.45-74.48-.09-.82-.02-1.67.12-2.48.13-.8.45-1.58.68-2.37.43-.17.87-.34,1.3-.51Z"/>
  <path class="cls-2" d="M639.48,660.73c1.04-.44,2.05-.92,3.11-1.31,12.83-4.7,18.61-13.5,18.3-27.13-.31-13.51-5.4-25.23-14.51-34.66-6.5-6.73-14.03-13.12-22.3-17.32-11.88-6.04-19.42-15.05-23.74-26.98-3.84-10.61-6.38-21.69-10.05-32.37-3.46-10.08.96-18.34,5.12-28.03,1.52,5.41,2.95,9.73,3.93,14.15,5.28,23.59,19.18,41.27,37.71,55.96,6.11,4.85,12.2,9.9,17.41,15.66,13.39,14.78,19.73,32.29,17.56,52.31-1.56,14.35-7.9,25.8-22.3,30.95-3.12,1.11-6.8.65-10.22.91,0-.71-.01-1.43-.02-2.14ZM632.66,575.38c15.08,11.86,25.67,26.67,29.81,45.71-1.19-20.98-13.23-34.83-29.81-45.71Z"/>
  <path class="cls-2" d="M237.44,673.63c1.48,2.52,3.21,4.93,4.4,7.59,12.54,28.1,25,56.24,37.47,84.37,5.94,13.39,11.71,26.86,21.34,38.2.98,1.16,1.71,2.99,1.59,4.42-.06.68-2.42,1.71-3.71,1.66-18.13-.66-34.3-6.05-46.8-19.94-3.45-3.84-4.77-7.72-2.6-13.13,1.67-4.16,1.91-9.12,1.87-13.72-.22-27.3-4.97-53.95-12.21-80.2-.79-2.86-1.7-5.68-2.56-8.52.4-.24.8-.49,1.2-.73Z"/>
  <path class="cls-2" d="M237.93,63.08c-8.18,7.8-16.34,15.28-21.73,25.38-7.48,14.01-7.55,28.04-.86,42.24,2.73,5.81,5.68,7.03,11.6,4.65,3.67,8.77,7.35,17.57,11.29,26.99-2.15,1.06-4.6,2.27-7.44,3.67v-10.51c-1.06,4.19-1.83,7.21-3.01,11.87-5.82-6.66-10.86-12.42-15.9-18.18-.19.13-.37.25-.56.38,2.49,3.44,5.02,6.85,7.45,10.33,2.26,3.24,7.12,5.09,6.33,9.97-.63.42-1.25.85-1.88,1.27-6.91-9.16-13.82-18.32-20.73-27.48-.15.06-.29.12-.44.19,3.33,6.04,6.65,12.08,10.11,18.38-.72.04-1.47.07-3.05.15,2.12,1.45,3.55,2.43,5.55,3.81h-4.02c3.12,1.81,5.58,3.23,8.28,4.8-5.25,2.6-10.1,5-14.98,7.41-22.43-18.11-24.32-48.19-14.26-69.31,7.95-16.68,20.65-28.82,36-38.52,4.04-2.56,8.16-4.99,12.25-7.48Z"/>
  <path class="cls-2" d="M550.1,580.05c2.86,12.8,5.81,25.58,8.5,38.42.42,2.02-.28,4.28-.47,6.43-1.05,12.17,1.39,23.23,10.48,32.04,4.18,4.05,8.7,7.76,12.8,11.89,6.27,6.3,10.43,13.85,11.41,22.78.99,9.03-1.97,16.5-10.73,22.76.91-2.29,1.31-3.31,1.72-4.33,5.15-12.72,1.41-24.71-10.16-32.19-2.51-1.62-5.13-3.17-7.88-4.31-23.79-9.86-30.39-34.88-27.19-53.59,1.15-6.71,2.35-13.41,2.89-20.1-10.78,27.39-10.15,53.52,8.77,78.13-1.58-1.01-3.28-1.88-4.72-3.07-16.76-13.81-21.61-31.82-17.78-52.49,2.99-16.14,13.35-28.71,22.34-42.37Z"/>
  <path class="cls-2" d="M587.16,465.33c6.32-7.57,13.44-14.63,18.72-22.86,5.18-8.09,3.67-17.16-.31-25.87-1.75-3.83-2.6-8.16-3.26-12.35-.27-1.75,1.03-3.74,2.8-5.41,2.87,9.07,5.75,18.13,9.02,28.44,3.81-13.28,7.4-25.79,10.99-38.31.55.01,1.1.02,1.66.03.53,2.11,1.36,4.19,1.54,6.33,1.21,14.29-4.34,26.86-10.99,38.83-6.12,11.01-13.56,21.27-19.94,32.15-3,5.12-4.86,10.9-7.21,16.39-2.15,5.04-3.95,10.26-6.48,15.1-2.51,4.8-6.74,7.75-12.31,8.36-6.9.75-12.16-3.31-12.8-10.23-.29-3.11-.1-6.36.44-9.44,2.76-15.72,5.14-31.52,12.9-45.89,2.42-4.48,3.74-9.55,5.58-14.36,3.15,3.22,3.66,9.14.81,14.45-1.64,3.05-3.97,5.73-5.95,8.6-5.75,8.32-3.96,17.89,5.51,24.13.26-2.45.91-4.36.57-6.09-2.27-11.75-1.44-13.63,9.25-19.49,12.76-7,14.02-20.97,2.78-30.22-2.17-1.79-4.1-3.89-5.44-6.5,5.19,1.93,10.53,3.53,15.52,5.89,4.53,2.15,6.86,11.05,4.96,17.65-2.41,8.36-7.55,14.74-14.9,19.32-3.91,2.44-5.83,5.68-5.1,10.24.55.37,1.11.74,1.66,1.11Z"/>
  <path class="cls-2" d="M183.06,187.49c-1.94.87-4.31,1.93-6.27,2.8,1.17.43,2.86,1.06,4.64,1.71-7.8,7.54-13.75,8.15-22.61,3.08-12.96-7.42-20.33-19.04-24.55-32.78-8.07-26.29-4.87-51.68,7.16-76.15.49-.99,1.21-1.88,2.5-3.86-.39,5.71-.8,10.2-.99,14.7-1.33,32.11,10.49,57.77,37.31,76.12,3.28,2.24,6.21,5.01,9.15,7.69,1.06.97,1.68,2.41,2.51,3.64-.36.36-.73.72-1.09,1.08-8.17-5.06-16.34-10.12-24.52-15.18-.33.42-.65.84-.98,1.26,5.88,5.26,11.76,10.52,17.73,15.87Z"/>
  <path class="cls-2" d="M523.59,255.98c4.72,11.29,13.68,15.85,25.27,12.61,3.51-.98,6.85-2.57,10.24-3.96,11.78-4.82,23.25-1.13,29.84,9.67,2.25,3.7,4.43,7.44,6.54,11.22,1.63,2.92,1.87,5.69-1.94,8.05-1.98-2.08-3.97-4.23-6.03-6.31-8.87-8.98-17.35-10.29-28.31-4.07-9.88,5.61-19.87,10.09-31.74,7.53-12.47-2.69-22.7-15.93-20.65-28.57,2,2,3.73,3.41,5.05,5.12,1.93,2.5,3.48,5.29,5.35,7.84,8.8,12,20.19,15.09,33.84,9.13,2.74-1.19,5.4-2.62,7.94-4.19,12.66-7.8,21.67-6.49,31.3,4.66.31.36.7.65,1.17,1.08-6.71-15.69-16.46-17.65-28.49-14.38-4.82,1.31-9.57,2.87-14.33,4.4-10.63,3.42-20.52,1.1-29.54-4.64-2.82-1.8-4.69-5.49-6.34-8.65-2.28-4.38-5.31-6.39-10.36-6.02-3.76.28-7.68.14-11.35-.64-6.04-1.29-10.02-4.91-12.39-11.05-2.41-6.26-6.21-11.98-9.66-18.43,1.75.21,3.14.38,5.25.64-1.96-1.52-3.53-2.74-5.11-3.96.47-.56.94-1.12,1.41-1.68,6.48,4.7,13.79,8.6,19.23,14.28,8.27,8.65,17.92,12.94,29.5,13.8.5.04,1.07.32,1.48.16,7.99-3.09,13.61,1.43,19.33,5.88,4.23,3.29,9.18,3.74,14.27,2.89,3.12-.52,6.2-1.28,9.27-2.04,9.92-2.47,13.51-1.01,19.53,8.61-1.96-1.06-3.28-1.76-4.59-2.49-5.89-3.25-11.93-4-18.21-1.15-1.82.83-3.68,1.55-5.53,2.33-13.35,5.63-18.58,4.33-29.76-7.43-.22-.23-.48-.51-.76-.59-.2-.05-.48.22-.72.35Z"/>
  <path class="cls-2" d="M123.62,386.81c.54,1.96,1.38,3.89,1.59,5.89,1.06,10.1,1.55,20.27,3.02,30.3,1.87,12.77,6.93,24.17,15.89,33.83,3.8,4.1,6.39,9.29,9.84,13.75,1.18,1.52,3.29,2.32,4.97,3.45.53-1.87,1.4-3.72,1.52-5.62.4-6.2-3.39-9.99-8.38-12.46-11.78-5.84-17.14-15.57-18.48-28.25-1.42-13.45,5.95-21.32,20.79-20.74-.86,1.77-1.38,3.39-2.34,4.7-1.27,1.74-2.92,3.19-4.32,4.84-10.92,12.85-7.2,29.12,8.61,34.71,7.59,2.68,10.42,7.16,10.8,14.65.42,8.2,2.01,9.28,10.46,8.03,1.95,11.6,4.26,23.17,5.7,34.85.72,5.83-8.3,9.63-14.71,6.03-3.19-1.79-6.15-4.72-8.07-7.84-2.31-3.75-4.19-8.12-4.88-12.45-1.78-11.11-7.32-20.25-13.72-29.04-8.19-11.24-15.26-23.06-19.18-36.52-4.05-13.91-3-27.89-.86-41.86.59-.08,1.17-.15,1.76-.23Z"/>
  <path class="cls-2" d="M447.18,173.73c-4.59,4.98-8.97,10.17-13.81,14.89-5.66,5.52-11,11.99-17.77,15.63-16.15,8.66-37.44,3.15-48.22-11.83-4.58-6.36-7.78-13.72-11.61-20.63.49-.4.98-.8,1.46-1.21,1.19,1.21,2.51,2.31,3.55,3.63,4.53,5.73,8.6,11.89,13.57,17.21,6,6.42,13.52,10.24,22.72,9.35,1.55-.15,3.08-.59,4.67-1.36-18.83.26-29.29-11.23-37.57-26.27,4.89,7.42,10.99,5.13,17.63,3.29,16.44-4.55,33.19-7.15,50.35-4.84,1.61.22,3.2.63,5.06,1-20.94,14.36-42.44,20.25-66.11,6.2-.17.7-.34,1.4-.51,2.09,2.92,2.01,5.61,4.61,8.82,5.92,11.96,4.89,24.19,6.31,36.28.44,6.42-3.12,12.44-7.1,18.93-10.03,3.92-1.77,8.41-2.3,12.65-3.38,0,0-.1-.11-.1-.11Z"/>
  <path class="cls-2" d="M627.97,291.22c36.54,4.84,71.73,3.8,98.28-28.17-.24,1.08-.29,2.24-.73,3.23-15.93,35.51-49.15,53.45-83.64,49.64-1.31-.14-2.63-.42-3.9-.78-7.22-2.02-7.55-2.89-7.8-10.38-.15-4.4-1.38-8.77-2.2-13.55Z"/>
  <path class="cls-2" d="M646.44,371.44c1.42-3.29,2.73-6.33,4.21-9.75.87,1.7,1.63,3.2,2.39,4.69.45-.12.91-.24,1.36-.37-2.03-9.54-4.06-19.08-6.34-29.83,6.89,5.77,12.89,10.72,18.81,15.76,16.08,13.71,34.42,19.12,55.27,14.88,4.15-.85,8.11-2.67,12.4-4.13-13.79,21.66-63,31.83-88.1,8.75Z"/>
  <path class="cls-2" d="M158.72,535.22c-1.97,17.28-10.45,32.1-19.3,48.15,14.32-9.28,22.5-22.41,32.78-34.13-.46,1.56-.86,3.14-1.38,4.69-5.22,15.63-15.58,27.62-27.03,39.01-5.37,5.34-10.63,11.19-14.31,17.72-7.93,14.11-5.81,27.94,4.8,40.14.95,1.09,1.81,2.25,3.33,4.14-5.8-1.31-8.99-4.64-11.59-8.41-11.17-16.22-12.48-33.56-5.67-51.83,5.76-15.46,14.73-29.05,24.21-42.35,4.23-5.94,8.6-11.77,12.91-17.65.42.18.84.35,1.26.53Z"/>
  <path class="cls-2" d="M408.27,698.78c-9.78,5.3-20.45,6.91-31.23,7.59-23.99,1.52-46.45-3.8-65.03-19.3-25.43-21.21-49.84-43.66-74.77-65.48-13.82-12.09-21.8-27.75-26.63-44.94-4.5-16-7.7-32.36-11.4-48.58-.3-1.31-.04-2.74,1.03-4.37.85,2.42,1.73,4.82,2.53,7.25,5.38,16.45,10.65,32.95,16.14,49.36,4.99,14.9,14.28,26.89,25.54,37.63,18.32,17.46,37.28,34.36,54.34,52.99,26.78,29.23,59.7,36.02,96.93,30.33,4.21-.64,8.36-1.65,12.53-2.49Z"/>
  <path class="cls-2" d="M611.15,650.94c.16-.28.24-.68.48-.81,15.45-8.49,17.87-25.13,10.74-40.87-4.01-8.84-10.15-15.97-17.1-22.51-4.85-4.56-9.99-8.83-14.65-13.57-12.96-13.2-18.43-29.75-20.61-47.65-.22-1.8.23-3.67,1.13-5.65,4.66,14.75,8.11,29.85,19.45,41.28-4.71-14.85-11.88-29.09-11.91-45.03.55-.16,1.1-.31,1.65-.47.62,1.8,1.44,3.56,1.82,5.41,4.66,22.89,15.78,42.18,32.19,58.66,10.1,10.14,16.8,22.28,19.46,36.46,2.89,15.41-1.94,27.72-13.64,34.03-2.54,1.37-5.72,1.55-8.6,2.29-.13-.53-.26-1.05-.39-1.58Z"/>
  <path class="cls-2" d="M598.55,654.79c-2.93-18.47-20.15-26.79-28.92-41.27,3.38,8.53,8.9,16.46,7.3,27.15-6.37-12.11-14.28-22.89-17.76-34.94-3.61-12.52-3.1-26.27-4.03-39.5-.23-3.3.93-6.7,1.46-10.06.5-.04,1.01-.08,1.51-.12.59,1.57,1.41,3.09,1.75,4.71,3.94,18.95,12.43,35.75,24.14,50.99,6.73,8.76,13.31,17.61,15.52,28.71.91,4.56.77,9.33,1.11,14l-2.08.34Z"/>
  <path class="cls-2" d="M635.45,282.2c9.59-5.6,19.21-11.36,29.02-16.79,1.49-.82,3.86-.23,5.8-.05,8.1.76,16.17,2.12,24.28,2.31,11.11.26,20.66-4.35,29.07-11.41,1.2-1,2.37-2.03,4.17-3.59-11.31,30.15-52.25,42.84-92.35,29.52Z"/>
  <path class="cls-2" d="M743.54,345.17c-17.77,24.11-69.03,16.98-90.8-12.66,8.81-1.19,18.17-2.64,27.58-3.58,1.89-.19,4.4,1.12,5.89,2.52,8.8,8.29,18.45,15.4,30.87,15.86,8.96.33,18-1.39,26.47-2.15Z"/>
  <path class="cls-2" d="M196.8,603.01c-1.06,6.71-2.32,13.39-3.13,20.13-1.5,12.53-.09,24.49,6.79,35.56,3.67,5.91,7.01,12.17,9.49,18.66,5.27,13.85.92,28.42-10.71,36.39-3.65,2.5-8.16,3.73-12.28,5.54-.21-.45-.42-.9-.63-1.35,3.08-2.16,6.32-4.12,9.21-6.51,11.63-9.61,13.15-24.61,3.6-36.32-2.72-3.33-5.96-6.27-9.14-9.2-14.13-13.04-17.36-28.63-10.71-46.37,1.91-5.09,4.56-9.89,7.59-14.7-.38,12.68-5.38,25.39,1.39,37.68-2.4-14.24,2.08-27.03,8.52-39.51Z"/>
  <path class="cls-2" d="M664.45,484.25c1.5,5.75,3.28,11.72,4.55,17.8.56,2.69.09,5.59.09,8.39-.53.38-1.06.77-1.59,1.15-.1-.68-.11-1.39-.31-2.04-5.73-18.67-17.67-33.38-30.26-47.72-4.27-4.86-8.26-10-11.94-15.32-1.47-2.12-1.75-5.06-2.57-7.62.47-.33.95-.66,1.42-.99,13.29,9.58,27.43,18.19,39.63,29,12.12,10.75,17.7,25.61,17.51,42.12-.03,2.77-1.03,5.53-2.6,8.41-.87-13.03-6.23-23.8-13.94-33.19Z"/>
  <path class="cls-2" d="M343.37,231.33c-2.49-13.89-12.39-22.13-23.02-29.39-9.6-6.55-25.36-3.62-34.45,6.98-11.74,13.69-15.72,29.86-11.01,47.58.91,3.42,3.24,6.45,4.76,9.35-6.45-1.35-8.55-4.95-13.4-22.81.33,2.76.47,5.57,1.03,8.28.59,2.86,1.59,5.63,1.66,8.92-.91-1.22-2.01-2.34-2.69-3.68-6.32-12.54-6.54-25.06,1.08-37.08,4.08-6.45,8.45-12.83,13.48-18.54,12.81-14.54,29.57-15.75,44.06-2.8,6.24,5.58,11.6,12.39,16.31,19.34,2.49,3.67,2.76,8.86,4.03,13.37-.61.16-1.23.32-1.84.48Z"/>
  <path class="cls-2" d="M443.06,207.66c4.86-1.5,9.98-.66,14.7,1.58,4.94,2.34,9.63,5.26,14.24,8.23,5.24,3.37,10.72,5.18,17,4.22,3.97-.6,7.94.4,12.03-1.56,2.28-1.09,6.07.25,8.94,1.21,5.48,1.84,10.78,4.2,17.05,6.69h-16.35c7.48,2.67,13.45,1.91,19.48-.35,5.66-2.13,11.46-3.91,18.5-6.29-3.37,12.01-10.73,17.74-20.52,20.2-12.68,3.19-24.09-.04-34.9-7.52-10.49-7.26-21.57-13.72-32.75-19.88-5.36-2.95-11.56-4.4-17.42-6.54Z"/>
  <path class="cls-2" d="M619.44,324.34c-1.99,5.85-6.55,10.01-13.4,11.46-15.37,3.25-27.27-2.89-37.2-14.09-1.05-1.18-2.02-2.44-3.35-3.33,5.02,9.57,13.34,15.43,23.51,19.97-18.57-.74-30.71-17.25-31.05-34.18-.08-4.2,3.44-4.59,6.12-5.31,4.1-1.1,7.42.35,9.7,4.19,2.37,3.98,4.67,8.09,7.63,11.63,5.62,6.72,12.79,11.56,21.68,11.99,5.36.26,10.82-1.47,16.38-2.33Z"/>
  <path class="cls-2" d="M740.99,497.5c-4.33-.33-8.81-.09-12.98-1.1-12.46-3.03-23.12-9.39-28.96-21.08-9.85-19.73-22.25-37.4-38.45-52.38-.47-.44-.82-1.02-1.24-1.54.32-.27.63-.65.74-.59,17.76,8.41,33.58,18.86,41.72,37.99,3.04,7.16,6.45,14.33,10.85,20.7,6.72,9.75,15.76,16.56,28.5,16.6-.06.47-.12.94-.18,1.41Z"/>
  <path class="cls-2" d="M71.35,538.02c13.84-5.18,21.76-14.64,26.5-26.88,4.61-11.92,8.56-24.1,13.21-36,1.81-4.64,4.75-8.83,7.17-13.23.5.18,1.01.36,1.51.53-.2,2.36-.3,4.74-.63,7.09-1.98,14.31-3.12,28.83-9.26,42.2-4.9,10.67-11.99,19.54-22.43,25.32-4.74,2.62-9.71,4.01-16.07.97Z"/>
  <path class="cls-2" d="M176.06,665.77c-9.58-5.71-14.21-14.03-16.05-24.13-2.01-11-.5-21.83,4.04-31.79,5.78-12.69,12.71-24.85,19.18-37.22.19-.36.73-.54,2.43-1.74-1.01,5.78-1.36,10.52-2.71,14.95-3.36,10.99-7.15,21.84-10.81,32.74-5.29,15.75-5.7,31.06,3.9,45.53.14.22.02.62.02,1.67Z"/>
  <path class="cls-2" d="M587.53,360.91c.59-.19.9-.29,1.21-.38,8.05-2.37,14.68-.47,21.95,4.16,8.53,5.43,18.44,5.51,26.9-1.73,1.43-1.22,2.9-3.49,2.81-5.2-.41-7.88-1.37-15.72-2.11-23.42,4.29,1.58,8.82,11.12,7.47,17.87-2.93,14.62-12.25,26.03-29.03,27.55-13.4,1.21-25.33-6.54-29.2-18.85Z"/>
  <path class="cls-2" d="M122.39,319.47c1.1.8,1.76,1.24,2.37,1.73,10.15,8.15,20.94,8.48,32.2,2.58,4.97-2.61,9.91-5.29,15.59-8.33-1.21,9.43-7.29,14.62-14.11,17.53-11.13,4.77-22.45,4.9-31.63-5.39,4.28,9.14,10.74,15.53,20.92,17.17,19.11,3.07,32.12-6.64,42.88-20.85,1.29-1.7,2.44-3.51,3.97-5.73-1.93,14.84-17.92,33.09-41.68,30.71-20.19-2.03-33.02-18.02-30.52-29.42Z"/>
  <path class="cls-2" d="M207.29,370.35c11.18-5.9,22.34-9.63,34.73-6.45,9.28,2.38,18.49,5.05,27.61,8.38-5.32.26-10.75-.02-15.95.91-8.48,1.52-16.87,3.65-25.2,5.86-8.37,2.22-15.93-.54-21.19-8.7Z"/>
  <path class="cls-2" d="M272.9,422.98c-10.34-.26-17.39-4.43-20.17-12.62-.63-1.85-.02-4.11.03-6.18,1.95.4,4.38.2,5.78,1.3,10.36,8.2,21.7,5.24,29.72-1.41,2.44-2.03,4.9-3.02,6.87-.73,1.23,1.43,1.46,4.48.94,6.49-1.76,6.73-6.38,10.74-13.29,11.89-3.27.54-6.58.86-9.87,1.28Z"/>
  <path class="cls-2" d="M101.2,336.97c0,2.58-.03,5.16,0,7.74.21,16.47,12.69,24.77,28.02,18.54,3.22-1.31,6.13-3.4,9.38-4.62,1.45-.55,3.37.16,5.07.29-.21,1.53,0,3.28-.69,4.55-5.73,10.63-20.57,14.56-32.47,8.73-9.45-4.63-16.61-16.69-15.43-27.01.35-3.09,2.3-6.01,3.52-9l2.6.78Z"/>
  <path class="cls-2" d="M512.87,202.17c-6.27,10.83-16.21,14.45-27.69,14.28-7.4-.11-14.33-2.36-20.68-6.56-5.2-3.44-10.88-6.16-16.9-9.52.15-3.4,2.67-5.29,6.76-4.5,4.03.78,7.99,2.07,11.87,3.46,2,.72,3.81,2.05,5.63,3.22,10.83,6.97,22.03,7.88,33.73,2.32,2.33-1.11,4.85-1.82,7.28-2.71Z"/>
  <path class="cls-2" d="M193.69,223.12c.83,2.93,1.64,5.86,2.5,8.78,3.15,10.68,8.66,19.55,20.55,21.36,12.27,1.86,23.23-1.71,31.26-11.59,3.21-3.95,5.38-8.75,8.06-13.15,1.24-2.04,2.55-4.04,4.63-5.58-1.62,7.21-2.59,14.65-5.13,21.52-1.36,3.68-4.87,7.34-8.37,9.32-10.29,5.81-21.58,6.76-32.89,3.44-14.01-4.11-22.71-18.13-20.6-34.09Z"/>
  <path class="cls-2" d="M158.7,209.95c-6.92-3.79-13.7-7.51-20.48-11.22,4.12,6.19,12.23,8.27,15.63,17.09-5.39-3.47-9.6-6.18-13.8-8.89-.16.23-.32.46-.48.69,4.3,3.26,8.6,6.52,12.9,9.77-3.01,6.47-5.3,7.1-10.93,3.01-7.54-5.47-13.76-19.69-13.03-31.25,4.05,1.45,8,2.39,11.49,4.22,5.88,3.07,11.48,6.71,17.19,10.11,2.91,1.73,4.19,3.78,1.52,6.47Z"/>
  <path class="cls-2" d="M599.84,307.45c.42,4.14.84,8.28,1.26,12.4-6.18.49-17.06-7.7-17.87-13.19-.15-1.01.49-2.68,1.31-3.19,5.19-3.27,10.43-6.49,15.89-9.28,1.18-.6,3.95.02,4.86,1.07,5.78,6.63,7.41,14.69,6.99,23.24-.05,1-1.35,1.95-2.07,2.92-1.06-.85-2.56-1.49-3.1-2.6-1.89-3.91-3.45-7.98-5.14-11.99-.71.21-1.42.42-2.13.63Z"/>
  <path class="cls-2" d="M199.78,231.99c3.49,6.15,9.42,8.14,15.84,8.73,10.31.96,19.27-2.46,27.12-9.13,2.55-2.16,5.32-4.07,8.84-6.74-4.25,15.78-15.3,25.46-29.03,26.47-11.03.81-21.71-7.05-24.01-17.78-.09-.43.75-1.06,1.16-1.6,0,0,.08.03.08.03Z"/>
  <path class="cls-2" d="M186.06,259.36c-1.4,16.2-22.11,27.47-35.55,19.73-2.74-1.58-4.44-4.94-6.63-7.47.3-.59.59-1.18.89-1.77,1.74.12,3.68-.21,5.19.45,6.96,3.02,13.51,1.8,18.43-3.31,5.09-5.28,9.04-11.67,13.33-17.69,1.01-1.42,1.36-3.3,2.16-5.34,3.17,7.09-2.46,20.4-13.04,29.2,4.6-.98,5.73-1.99,15.23-13.79Z"/>
  <path class="cls-2" d="M157.22,288.69c23.55,15.74,42.57,7.15,60.43-8.76-.86,12.34-12.59,22.5-27.3,23.8-18.67,1.65-30.2-3.12-33.13-15.04Z"/>
  <path class="cls-2" d="M675.81,412.31c21.56,4.13,34.68,22.37,36.62,49.35-9.96-18.09-21.56-34.99-36.62-49.35Z"/>
  <path class="cls-2" d="M570.91,360.89c3.36,10.38,7.61,19.16,18.31,23.14-3.03-5.02-5.8-9.6-8.56-14.18.39-.36.78-.73,1.17-1.09,9.1,12.6,21.7,17.54,36.79,17.1-2.73,5.54-19.69,7.01-30.6,2.97-11.19-4.14-19.74-17.36-17.11-27.93Z"/>
  <path class="cls-2" d="M165.63,288.41c7.28-.34,13.54-2.79,18.53-7.76,4.8-4.77,9.18-9.95,14.25-15.51.18,10.34-5.76,16.42-13.47,22.55,9.06-1.56,14.88-6.65,20.88-11.58-2.99,8.91-9.29,14.42-17.9,16.98-8.04,2.39-15.47.22-22.28-4.69Z"/>
  <path class="cls-2" d="M372.55,230.49c4.62,3.04,8.94,6.75,13.93,8.99,12.22,5.48,23.99,2.88,35.45-3.1,17.26-9.01,32.27-4.8,42.69,11.75,3.84,6.11,6.36,12.67,6.77,20.06-3.6-6.19-6.39-12.71-10.72-17.94-4.03-4.87-9.34-8.97-14.76-12.31-5.92-3.65-12.72-3.4-19.3-.93-5.3,1.99-10.53,4.21-15.95,5.79-10.04,2.93-19.92,1.87-28.97-3.29-3.67-2.09-6.47-5.69-9.67-8.6.18-.14.35-.29.53-.43Z"/>
  <path class="cls-2" d="M551.86,304.77c2.45,14.28,8.04,25.44,19.04,33.42,10.88,7.89,22.83,7.98,35.79.08-6.03,10.29-24.83,12.48-38.04,5.03-13.94-7.87-22.79-26.38-16.79-38.52Z"/>
  <path class="cls-2" d="M85.33,357.88c-1.81,5.2-3.36,10.5-5.49,15.57-4.7,11.19-11.62,20.87-20.91,28.75-6.6,5.6-11.84,6.98-18.84,4.79,16.66-5.35,24.37-18.76,32.09-32.26,3.48-6.09,7.51-11.86,11.29-17.77.62.31,1.24.61,1.86.92Z"/>
  <path class="cls-2" d="M113.6,440.41c-3.4,7.85-6.94,15.64-10.09,23.58-.83,2.08-2.75,5.7,2.78,5.12-4.43,13.52-8.69,26.55-12.95,39.58-.58-.19-1.16-.37-1.74-.56-.51-25.01,6.11-47.81,22-67.73Z"/>
  <path class="cls-2" d="M454.4,188.73c17.68-4.23,32.07,9.52,50.02,11.68-9.63,5.72-18.22,5.36-27.01.46-7.74-4.31-15.66-8.28-23.01-12.15Z"/>
  <path class="cls-2" d="M159,64.6c-4.5,25.14,3.74,46.57,19.48,65.84-20.2-8.72-30.57-43.45-19.48-65.84Z"/>
  <path class="cls-2" d="M557.16,246.16c-2.72-1.55-5.35-2.88-7.8-4.47-2.13-1.38-3.38-3.08-1.44-5.77,1.93-2.67,3.69-2.05,5.78-.34,3.32,2.72,6.71,5.34,10.87,7.24-3.78-3.86-7.56-7.73-11.34-11.59,5.55-.15,10.07,4.14,17.8,15.19-12.01,6.72-23.52,5.89-31.43-3.04,6.75-2.63,11.3,5.76,17.56,2.79Z"/>
  <path class="cls-2" d="M182.57,318.51c-6.84,22.89-28.12,31.35-45.12,18.24,20.32,6.82,31.72-8.08,45.12-18.24Z"/>
  <path class="cls-2" d="M199.78,231.99s-.08-.03-.08-.03c-1.58-2.25-3.15-4.49-4.73-6.74.22-.23.45-.46.67-.7.59.37,1.31.63,1.74,1.13,6.75,7.9,15.13,8.84,24.43,5.71,6.85-2.31,13.67-4.72,20.79-7.18-3.95,13.86-28.47,18.05-42.82,7.82Z"/>
  <path class="cls-2" d="M173.36,365.03c.69,9.98-5.93,18.78-16.28,22.48-8.47,3.03-16.13,1.89-19.99-3.7,16.12,1.48,27.29-6.24,36.27-18.78Z"/>
  <path class="cls-2" d="M175.87,403.62c-1,2.9-1.94,5.82-3.02,8.69-1.81,4.8-4.16,9.45-5.46,14.39-1.83,6.97-.53,10.56,5.94,21.59-.27.4-.54.81-.82,1.21-2.69-1.97-5.85-3.53-7.96-6-3.79-4.45-4.34-10.1-3.18-15.62,1.98-9.44,7.15-17.31,12.78-24.86.57.2,1.14.4,1.71.6Z"/>
  <path class="cls-2" d="M179.66,244.55c-1.22,15.47-18.12,29.25-28.65,24.03,9.4-7.88,18.8-15.77,28.65-24.03Z"/>
  <path class="cls-2" d="M148.44,300.46c-7,3.35-9.67,9.17-12.1,15.26-.49,1.24-2.02,2.07-3.07,3.09-.78-1.33-2.18-2.63-2.24-3.98-.29-7.13,2.61-13.28,7.03-18.59.82-.98,3.83-.9,5.42-.28,1.7.67,2.91,2.56,4.95,4.5Z"/>
  <path class="cls-2" d="M630.97,684.64c-.99,1.94-1.58,4.27-3.03,5.76-5.56,5.71-16.06,6.33-22.37.87-3.74-3.24-6.45-7.66-9.1-12.33,9.7,11.84,20.57,13.34,32.96,4.84.51.29,1.03.57,1.54.86Z"/>
  <path class="cls-2" d="M228.29,223.31c-8.09,6.54-20.17,6.22-25.55-1.12,4.71-4.19,10.59-5.86,16.47-7.08,1.37-.28,3.3,2.13,4.82,3.19-4.03,1.14-7.63,2.16-11.24,3.17.09.58.17,1.16.26,1.74,5.03-.5,10.07-.99,15.1-1.49.04.53.09,1.05.13,1.58Z"/>
  <path class="cls-2" d="M505.03,88.21c-2.41,1.7-4.28,3.02-5.42,3.82-6.53-9.78-12.88-19.29-19.42-29.1,11.17,5.54,17.23,15.68,24.84,25.28Z"/>
  <path class="cls-2" d="M618.65,118.98c-7.76,11.52-21.41,11.17-31.2,19.15.35-6.23.64-11.28.99-17.43,10.96,14,20.01,3.87,30.22-1.72Z"/>
  <path class="cls-2" d="M293.41,421.31c3.22-5.84,6.08-11.01,9.57-17.34,2.2,2.55,4.24,4.86,6.22,7.23,3.05,3.64,2.01,7.01-2.61,7.96-4.2.86-8.47,1.4-13.18,2.15Z"/>
  <path class="cls-2" d="M156.62,361.97c-4.19,13.97-32,23.28-41.33,14.15,16.21,3.46,28.69-3.83,41.33-14.15Z"/>
  <path class="cls-2" d="M609.2,290.55c5.22-2.5,8.65-1.4,11.06,4.69,2.23,5.64,2.47,11.46,1.29,16.79-4.08-7.1-8.24-14.32-12.36-21.47Z"/>
  <path class="cls-2" d="M130.96,288.99c-3.45,7.43-6.83,14.68-10.12,21.76-2.46-2.11-2.6-7.84.18-14.27,2.57-5.95,5.37-7.91,9.94-7.49Z"/>
  <path class="cls-2" d="M625.52,338.12c6.4,5.48,7.52,15.8,2.36,22.62-.84-7.99-1.54-14.73-2.36-22.62Z"/>
  <path class="cls-2" d="M539.65,689.99c1.02,11.08,7.93,18.5,16.96,25.31-10-1.02-17.1-11.95-16.96-25.31Z"/>
  <path class="cls-2" d="M144.98,321.16c4.65-4.48,8.62-8.31,13.23-12.76,1.32,6.91-5.44,13.11-13.23,12.76Z"/>
  <path class="cls-2" d="M357.71,203.82l-7.89-22.6c.6-.22,1.21-.44,1.81-.65,2.74,7.52,5.48,15.03,8.22,22.55-.72.24-1.43.47-2.15.71Z"/>
  <path class="cls-2" d="M467.63,223.16c-8.37-4.04-16.3-7.87-22.91-11.05,7.61,1.06,16.02,3.94,22.91,11.05Z"/>
  <path class="cls-2" d="M491.26,144.54c-.39,4.15-.78,8.3-1.19,12.71-3.6-2.57-3.34-7.87,1.19-12.71Z"/>
  <path class="cls-1" d="M549.08,374.55c-23.85-22.64-48.2-13.12-72.72-2.29,27.94-2.88,50.45,9.3,70.83,25.79-5.89,4.23-11.13,4.25-18.65-1.02-8.2-5.74-16.28-11.62-26.18-14.21-28.12-7.36-53.07-1.8-74.54,18.16-3.17,2.94-6.56,5.65-9.93,8.36-5.43,4.37-9.12,9.62-10.13,17.47-2.98-5.22-5.95-10.44-9.39-16.47-.86,3.26-2.07,6.06-2.27,8.93-.8,11.63-1.18,23.28-1.9,34.92-.87,14.12-1.93,28.22-3.91,42.3,0-14.63-.26-29.27.09-43.9.25-10.48,1.2-20.96,2.06-31.42.97-11.76,4.51-22.53,13.13-30.86-1.73-2.46-3.32-4.7-4.91-6.95,7.06,4.63,23.08,3.27,32.57-3.81-2.32.74-4.59,1.74-6.96,2.16-4.72.83-9.5,1.89-14.25,1.87-7.24-.02-9.4-3.3-7.8-10.44,1.47-6.51,6.01-10.61,14.01-11.98-5.53,4.56-8.16,9.63-5.62,16.63.67-1.33,1.68-2.59,1.95-4,1.96-9.97,8.92-13.34,18.05-14.08,16.42-1.33,32.12-5.61,47.42-11.55,3.57-1.38,7.2-2.61,10.84-3.83,10.86-3.63,21.05-2.61,30.23,4.61,8.38,6.59,16.65,13.32,25.01,19.93,1.41,1.12,3.05,1.96,4.58,2.93-.54.91-1.07,1.82-1.61,2.73Z"/>
  <path class="cls-1" d="M435.08,426.75c5.89-1.93,11.87-.17,17.87.54,8.41,1,16.82,2.53,25.26,2.71,18.9.39,34.16-6.17,47.59-20.69-6.72,3.2-13.44,6.4-20.16,9.6,11.09-11.79,11.02-13.49,0-17.28-3.92,6.69-7.63,13.26-11.62,19.66-.84,1.35-2.65,2.83-4.12,2.94-7.41.58-14.91,1.43-22.27.85-9.24-.72-18.34-3.33-27.58-3.93-4.5-.29-9.18,2.14-13.79,3.28-1.27.31-3.49.91-3.72.5-.7-1.26-1.36-3.29-.79-4.39,9.89-19.22,22.94-34.09,46.58-35.93,20.24-1.58,38.68,2.75,55.56,13.91,6.69,4.42,13.47,8.25,22.52,3.89-2.17,4.98-5.37,7.11-9.54,7.35-5.81.34-9.15,3.11-11.64,8.42-7.04,14.97-18.96,23.54-35.59,25.25,5.84-3.24,12.58-5.21,16.43-12.14-24.23,4.73-47.65.04-70.98-4.54ZM476.44,423.06c3.22-.76,6.54-1.23,9.64-2.33,6.26-2.22,9.37-7.29,10.58-13.47.28-1.42-.96-3.23-1.83-4.66-.12-.19-2.35.48-3.22,1.21-10.16,8.52-18.14,8.7-29.3.88-1.67-1.17-4.09-1.26-6.17-1.85-.19,2.32-1.12,4.88-.45,6.93,2.52,7.8,11.05,12.88,20.75,13.29ZM459.46,422.88c-4.33-7-7.82-12.65-11.61-18.8-1.15.75-3.2,1.76-4.86,3.22-4.76,4.2-4.99,8.14.46,11.11,4.5,2.45,10.08,2.91,16.02,4.47ZM438.17,418.57c-3.38-4.03-6.97-3.22-11.79,2.79,4.14-.98,7.92-1.88,11.79-2.79Z"/>
  <path class="cls-1" d="M405.64,514.5c5.4-3.16,10.42-2.54,12.2,2.17,1.77,4.68,2.85,9.99,2.64,14.96-.27,6.25-4.44,9.27-10.71,10.69-2.02.46-4.57,2.16-5.32,3.95-2.1,4.98-5.55,7.61-10.67,8.73-6.98,1.52-7.47,2.54-7.16,9.48.15,3.4,2.52,7.54-1.72,10.04-5.02,2.95-10.11,4.32-16.07,1.49-4.04-1.92-8.82-2.7-13.33-3.04-3.29-.25-5.34-1.03-6.42-4.17-2.4-6.96-7.08-12.18-12.23-17.34-4.27-4.28-7.95-9.48-10.73-14.86-4.79-9.26,5.61-24.72,15.6-23.9,6.5.53,8.87,3,9.03,9.47.05,2.22,0,4.44-1.11,6.63-.12-1.93-.19-3.85-.36-5.78-.28-3.04.49-6.78-3.87-7.6-4.63-.87-10.01-1.84-12.78,2.74-2.07,3.41-2.86,8.13-2.68,12.21.2,4.64,3,5.62,7.53,4.4,6.47-1.74,12.73-1.59,16.9,4.65,9.56,14.3,31.66,13.83,41.07,1.39,4.01-5.3,9.68-6.8,15.89-6.85,4.99-.03,6.88-2.64,6.63-7.26-.12-2.16-.32-4.33-.74-6.44-.99-4.97-2.62-5.79-11.55-5.74Z"/>
  <path class="cls-1" d="M443.02,594.5c-1.2,4.39-2.79,5.47-6.29,4.59-3.96-1-8.06-1.47-12.1-2.15-8.52-1.44-16.99-3.36-25.57-4.12-5.66-.5-11.47.68-17.21,1.07-4.44.3-9.31,1.83-13.25.54-11.11-3.62-21.71-1.14-32.52.7-5.71.97-11.56,1.07-17.3,1.92-3.22.48-6.29,1.82-9.49,2.49-1.5.31-3.15-.04-4.73-.1.06-1.6-.41-3.49.28-4.74,1.51-2.71,3.19-5.72,5.64-7.39,1.61-1.1,5.63-1.05,6.88.19,2.7,2.67,5.23,2.68,8.12,1.46,3.68-1.54,7.2-3.44,10.83-5.11,3.77-1.74,7.5-3.63,11.4-5.03,5.23-1.87,9.75-.95,14.16,3.08,8.53,7.81,15.22,7.7,23.7-.09,4.11-3.78,8.3-4.73,13.2-2.49,5.75,2.63,11.37,5.52,17.08,8.24,4.63,2.21,9.19,5.26,13.49-1.02.69-1.01,4.77-.98,6.2.06,2.89,2.09,5.03,5.2,7.48,7.89Z"/>
  <path class="cls-1" d="M344.65,615.63c-6.54-3.72-12.74-7.24-18.93-10.76.29-.51.58-1.02.87-1.54,1.93,1.15,3.78,2.46,5.79,3.42,3.59,1.72,7.14,3.98,10.96,4.71,19.61,3.76,39.42,3.94,59.04.61,6.47-1.1,12.42-5.34,19.12-7.54-5.91,3.74-11.83,7.48-17.96,11.36,1.7.79,3.43,1.61,6.52,3.05-5.23,4.75-9.91,9-15.49,14.07-12.28-2.68-26.47-3.66-40.75-.58-1.31.28-3.24.03-4.21-.78-4.44-3.68-8.64-7.64-13.51-12.02,3.51-1.64,5.97-2.8,8.55-4.01Z"/>
  <path class="cls-1" d="M333.3,305.65h74.09c-24.7,4.93-49.39,5.23-74.09,0Z"/>
  <path class="cls-1" d="M380.11,372.63c-4.22-7.76-7.24-15.1-3.26-23.5,6.62,7.58,7.97,16.37,3.26,23.5Z"/>
  <path class="cls-1" d="M500.75,175.06c-1.09-1.03-2.06-2.63-3.42-3.13-48.06-17.58-97.34-28.27-148.78-23.07-22.12,2.23-44.19,5.22-65.94,10.89-15.8,4.12-31.03,9.51-46.35,14.84-1.21.42-2.49.64-4.3-.08,1.98-1.23,3.82-2.81,5.96-3.63,8.55-3.26,17.02-6.89,25.82-9.3,58.57-16.06,117.89-22.01,177.87-9.69,37.16,7.63,72,21.69,102.97,44.21,3.92,2.85,7.57,6.09,11.35,9.15-.29.44-.58.87-.87,1.31-1.45-.84-3.05-1.49-4.33-2.53-14.17-11.46-29.59-20.91-46.14-28.51-1.21-.56-2.78-.34-3.81-.45Z"/>
  <path class="cls-1" d="M349.58,153.73c47.47-4.44,93.15,3.32,137.44,20.53-.1.57-.21,1.14-.31,1.71-2.79-.72-5.59-1.4-8.37-2.15-17.15-4.65-34.11-10.29-51.5-13.75-23.25-4.63-46.99-4.82-70.67-4.25-2.22.05-4.45,0-6.67,0,.03-.7.06-1.39.09-2.09Z"/>
  <path class="cls-1" d="M226.28,185.55c35.28-19.78,73.93-27.25,113.55-31.18.18.61.36,1.22.54,1.83-2.28.57-4.52,1.4-6.83,1.66-26.56,2.98-52.61,8.4-77.93,16.93-8.17,2.75-15.89,6.81-23.83,10.23-1.62.7-3.29,1.26-4.94,1.88-.19-.45-.38-.91-.57-1.36Z"/>
  <path class="cls-1" d="M146.87,240.48c16.63-29.84,44.58-46.24,73.78-63.16-.81,1.68-.92,2.42-1.34,2.69-9.59,6.17-19.22,12.29-28.84,18.42-1.96,1.25-4.08,2.31-5.82,3.82-12.29,10.71-25.15,20.85-34.49,34.52-.92,1.35-2.19,2.47-3.3,3.7Z"/>
  <path class="cls-1" d="M129.07,278.77c2.03-5.93,4.07-11.85,6.38-18.58-.17,1.58-.26,2.37-.35,3.16.39.31.78.63,1.17.94,3.42-4.26,7.39-8.2,10.17-12.84,9.46-15.79,23.43-27.08,37.34-38.49.2-.16.6-.09,1.51.38-24.19,17.2-39.96,41.41-56.22,65.43Z"/>
  <path class="cls-1" d="M224.94,193.41c1.18.17,1.62.1,1.73.26,10.3,14.95,28.93,12.32,41.27,1.65,4.34-3.75,8.11-8.16,12.54-11.74-9.55,10.97-18.09,23.58-35.19,23.2-9.27-.21-14.67-6.3-20.34-13.37Z"/>
  <path class="cls-1" d="M549.99,211.35c-14.38-10.97-30.35-20.89-47.85-28.19-.55-.23-.75-1.3-1.12-1.99,8.23,3.59,16.3,7.1,24.36,10.61.04-.3.07-.61.11-.91.85,1.09,1.49,2.49,2.58,3.21,5.55,3.63,11.41,6.83,16.77,10.72,2.36,1.71,3.77,4.73,5.15,6.55Z"/>
  <path class="cls-1" d="M221.28,187.96c-8.98,6.45-17.96,12.9-26.94,19.34-.45-.62-.9-1.23-1.35-1.85,8.91-6.58,17.82-13.15,26.73-19.73.52.74,1.04,1.49,1.56,2.23Z"/>
  <path class="cls-1" d="M556.42,195.05c-.38-5.71,4.01-8.42,7.05-11.98.49.33.97.67,1.46,1-2.88,3.62-5.76,7.23-8.63,10.86,0,0,.12.12.12.12Z"/>
  <path class="cls-1" d="M632.66,575.38c16.58,10.88,28.62,24.73,29.81,45.71-4.14-19.04-14.73-33.85-29.81-45.71Z"/>
  <path class="cls-2" d="M476.44,423.06c-9.7-.41-18.22-5.49-20.75-13.29-.66-2.05.26-4.6.45-6.93,2.08.59,4.5.68,6.17,1.85,11.16,7.82,19.14,7.64,29.3-.88.87-.73,3.1-1.4,3.22-1.21.86,1.44,2.1,3.25,1.83,4.66-1.21,6.18-4.32,11.25-10.58,13.47-3.1,1.1-6.42,1.57-9.64,2.33Z"/>
  <path class="cls-2" d="M459.46,422.88c-5.94-1.56-11.52-2.02-16.02-4.47-5.45-2.97-5.22-6.91-.46-11.11,1.66-1.46,3.72-2.48,4.86-3.22,3.8,6.15,7.29,11.79,11.61,18.8Z"/>
  <path class="cls-2" d="M438.17,418.57c-3.86.92-7.64,1.81-11.79,2.79,4.82-6.01,8.4-6.82,11.79-2.79Z"/>
</svg>