<?xml version="1.0" encoding="UTF-8"?>
<svg id="Layer_1" data-name="Layer 1" xmlns="http://www.w3.org/2000/svg" viewBox="0 0 684.86 857.69">
  <defs>
    <style>
      .cls-1 {
        fill: #000;
      }

      .cls-1, .cls-2 {
        stroke-width: 0px;
      }

      .cls-2 {
        fill: #fff;
      }
    </style>
  </defs>
  <path class="cls-1" d="M603.73,658.03c1.35.12,2.32.21,3.29.3-1.33,1.52-2.66,3.04-4.39,5.03-1.81-3.66-3.11-6.28-4.41-8.9-.4.12-.8.24-1.2.36,0,2.2-.11,4.41.02,6.6,1.28,22.96-4.11,43.67-20.51,60.6-11.56,11.94-26.35,17.14-42.31,19.49-6.87,1.01-13.85,1.29-21.7,1.99,1.28,1.69,2.08,3.26,3.33,4.3,7.14,5.99,14.36,11.88,21.6,17.74,2.69,2.17,6.32,3.81,4.86,8.25-1.51,4.61-5.56,4.11-9.2,4.04-10.8-.21-21.65-1.28-32.39-.63-26.44,1.6-48.45,14.37-69.61,29.04-15.86,11-31.43,22.53-48.01,32.36-27.2,16.12-56.67,22.85-88.31,17-22.71-4.2-41.74-15.71-58.25-31.17-14.09-13.19-26.73-27.92-40.77-41.17-10-9.44-20.96-17.93-32-26.18-11.43-8.55-24.62-13.52-38.92-14.21-37.98-1.85-58.93-39.38-53.59-70.13,1.79-10.33,1.2-18.09-5.97-27.29-14.17-18.17-12.85-39.12-3.88-59.69,1.66-3.81,3.7-7.46,5.69-11.12,3.39-6.26,3.82-12.81,1.31-19.33-9.29-24.16-3.03-44.93,13.13-63.91,4.7-5.52,9.68-11.37,12.26-17.96,2.76-7.08,3.13-15.18,3.92-22.89.24-2.37-1.28-5.07-2.45-7.39-1.65-3.26-3.92-6.21-5.54-9.48-1.61-3.25-3.26-3.74-6.61-2.03-13.96,7.13-36.3,1.51-44.71-11.6-2.01-3.14-1.94-7.73-2.37-11.7-.11-1.03,1.49-2.25,2.3-3.38.75,1.12,1.89,2.15,2.19,3.39,3.27,13.38,17.94,18.81,29,10.53,1.71-1.28,2.87-3.32,5.33-6.26-11.59,1.19-21.17.59-28.17-6.71,1.99-2.6,4.93-4.71,4.95-6.85.05-4.53-1.11-8.82-5.89-11.75-12.96-7.92-17.97-20.4-14.95-35.21,1.02-5.01,2.54-6.38,7.11-6.35.17.42.56.89.51,1.31-2.93,21.49,18.34,30.65,33.05,26.64,3.84-1.05,7.61-2.45,11.24-4.08,6.49-2.91,12.86-6.11,19.62-10.28-3.52-.32-7.11-1.24-10.54-.82-6.09.75-12.08,2.35-18.13,3.55-7.13,1.41-14.16,1.01-20.05-3.51-2.58-1.98-4.16-5.35-5.91-8.27-.43-.72-.07-2.72.54-3.06.94-.53,2.8-.67,3.57-.07,9.74,7.63,18.37,3.23,26.3-2.87,2.48-1.91,4.49-6.09,4.5-9.24.02-7.96-1.06-15.94-2.11-23.86-.18-1.38-2.21-3.07-3.74-3.63-6.56-2.43-12.58-5.38-15.88-12.05-.28-.57-.81-1.51-1.18-1.49-8.1.49-8.05-6.44-10.35-11.23-.22-.45-.48-.87-.93-1.7-2.6.31-5.36.72-8.13.95-7.42.62-13.98-1.71-19.03-7.03-4.54-4.78-7.31-10.51-3.92-17.26,1.81-3.6,1.08-6.1-2.13-8.54-8.21-6.23-12.8-14.79-14.77-24.75-.54-2.72-.59-5.67-.15-8.41,1.2-7.5,2.51-8.05,9.87-6.49,10.97,2.33,21.44-.52,30.97-5.34,16.77-8.49,31.81-19.61,43.64-34.43,4.12-5.16,7.45-11.04,10.53-16.92,8.89-16.96,21.97-29.57,38.73-38.54,13.66-7.32,24.09-17.88,32.35-30.93,13.48-21.31,33.19-33.18,58.18-34.75,10.54-.66,17.88-3.16,25.29-11.71,17.81-20.58,41.27-29.85,68.81-27.1,4.91.49,8.59-.16,12.4-4.05,6.09-6.22,14.35-6.77,22.43-4.76,5.36,1.33,8.71,5.44,10.02,10.86.71,2.92,2.23,4.44,5.19,5.24,9.46,2.56,18.82,5.52,28.29,8.04,2.13.56,4.64.28,6.85-.19,33.56-7.25,61.76,2,83.81,28.19,6.02,7.15,12.21,10.77,21.62,11.5,24.99,1.94,46.43,21.07,52.18,45.58,1,4.26,2.89,7.07,6.62,9.27,15.15,8.97,24.28,22.41,28.56,39.35.44,1.74.92,3.76,2.09,4.96,10.98,11.35,21.67,23.03,33.4,33.56,5.13,4.61,12.15,7.87,18.87,9.77,10.41,2.94,21.33,4.32,28.47-8.32,1.24,2.35,2.43,3.96,3,5.77,4.95,15.91,2.45,30.27-9.16,42.64-1.6,1.7-3.54,3.15-4.81,5.06-.88,1.33-1.74,3.7-1.14,4.82,3.44,6.42.36,11.37-3.34,15.99-5.42,6.77-14.99,9.76-26.88,8.87-3.23,9.11-9.53,15.77-17.93,20.44-2.72,1.51-5.79,3.06-8.78,3.23-4.78.28-6.09,2.59-6.44,6.81-.49,5.95-2.15,11.88-2.03,17.8.28,13.15,16.93,22.66,28.75,16.86.75-.37,1.47-1.01,2.24-1.07,1.72-.13,4.19-.63,4.99.26.86.96.6,3.47.06,5.04-2.11,6.14-8.33,9.88-15.64,8.86-4.55-.63-8.92-2.55-13.41-3.72-6.55-1.71-13.1-4.26-19.73-4.55-5.09-.23-10.3,2.48-15.28,3.84,8.38,5.04,15.96,9.69,23.62,14.2,17.82,10.47,46.95,3.66,52.74-19.27.31-1.24.83-2.42,1.33-3.84,5.05,1.06,6.24,4.5,6.06,8.57-.44,9.77-4.3,18.12-11.45,24.75-3.16,2.92-6.76,5.4-10.31,7.86-8.64,5.99-8.45,12.88.59,17.9q-2.58,5.38-24.02,6.74c1.18,5.31,7.34,9.49,14.31,9.74,9.49.33,18.46-5.9,21.99-15.2.74-1.94,1.67-3.8,2.64-6,5.31,2.94,4.98,7.14,3.58,11.08-4.3,12.05-13.21,18.85-25.57,21.31-8.35,1.66-16.64,1.08-24.64-1.76-3.27-1.16-5.16-.32-7.17,2.28-12.55,16.2-10.65,38.71,4.79,53.1,3.15,2.93,6.69,5.57,10.39,7.75,15.69,9.25,20.62,23.47,18.23,40.51-.95,6.79-3.61,13.47-6.3,19.86-4.1,9.71-3.7,13.49,3.85,20.7,2.61,2.49,1.84,7.38-1.6,8.48-.93.3-2.83-.89-3.58-1.91-2.36-3.2-4.17-6.82-6.6-9.96-3.64-4.71-4.21-9.67-2.04-15.03,1.76-4.32,4.19-8.42,5.45-12.87,1.66-5.86,3.17-11.94,3.46-17.98.49-10.28-3.64-18.7-13.29-23.27-10.04-4.75-16.36-13.41-23.61-21.13-1.7-1.81-3.28-3.73-5.09-5.81-4.14,3.61-3.88,7.57-2.57,11.33,1.36,3.91,3.14,7.74,5.27,11.29,6.71,11.17,10.25,23.08,9.38,36.18-.05.74.13,1.49.7,2.21,3.76-10.37,2.76-20.56-.18-31.04,1.37,3.79,3.26,7.48,3.97,11.38.77,4.2.74,8.62.53,12.93-.2,4.2-1.05,8.36-1.09,12.57,8.55-13.71,6.01-27.77.99-42.26,12.75,12.99,15.88,33.73,6.02,48.14-5.9,8.62-4.75,15.6-.54,24,4.16,8.28,8.2,16.91,10.32,25.86,3.65,15.42.19,30.21-8.33,43.51-3.22,5.03-4.19,9.87-2.42,15.38ZM125,271.99c-1.97-1.16-4.56-5.63-4.07-7.25.55-1.86,1.26-3.68,2.1-6.1-6.46,8.5-7.36,22.74-1.91,30.27,1.38,1.91,3.95,2.95,6.22,4.58-1.57-5.4-3.22-9.56-3.87-13.88-.37-2.45.92-5.15,1.44-7.77,3.49-3.27,6.99-6.54,10.48-9.8-.45-.42-.9-.85-1.36-1.27-3.7,3.12-8.03,5.68-9.03,11.23ZM551.53,622.09c-1.6-4.65-2.93-9.42-4.87-13.93-4-9.31-8.31-18.48-12.5-27.72-.49.2-.98.4-1.47.6,1,5.01,2,10.02,3,15.04-.31.08-.62.16-.93.24-1.48-2-2.96-4-4.87-6.59-.42,14.95,5.2,27.85,8.19,41.25,2.99,13.41,6.48,26.71,9.67,39.71,3.69-12.32,6.75-25.2,4.37-38.72,5.56,22.41,3.47,43.44-11.69,62.16,7.16-3.29,12.31-8.34,16.35-14.54,8.06-12.37,11-26.06,9.26-40.57-2.99-24.98-13.73-47.03-26.81-69.33,4.27,18.21,8.28,35.3,12.29,52.4ZM350.61,278.16c-.78-1.3-2.12-2.55-2.24-3.91-.51-5.9-.66-11.84-.96-18.15,2.41-.14,4.25-.02,5.99-.38,7.77-1.62,15.85-2.49,23.19-5.28,13.55-5.15,19.29-18.14,14.39-31.71-2.05-5.67-5.27-11.1-8.86-15.97-4.21-5.71-9.41-10.7-14.19-16,1.95,1.51,4.17,2.78,5.8,4.59,3.35,3.73,7.36,4.99,12.31,5.42,40.08,3.49,79.54,10.68,118.45,20.81,24.24,6.32,47.89,14.36,69.52,27.28,12.05,7.2,23.38,15.31,26.77,30.63.84-3.47,2.16-7.31.98-10.1-2.88-6.77-5.91-13.94-10.69-19.36-12.82-14.53-29.65-23.43-47.49-30.42-44.36-17.39-90.6-26.74-137.8-31.83-13.41-1.45-26.88-2.24-40.34-3.19-.87-.06-4.83-2.3-2.48,2.07-3.06-2.22-6.38-4.15-9.12-6.71-5.15-4.79-10.01-5.09-15.47-.54-3.7,3.08-7.47,6.08-11.29,9.02-10.54,8.1-19.55,17.62-25.99,29.28-7.74,14-4.17,26.73,10.02,34,6.39,3.27,13.61,5.04,20.59,7.01,3.6,1.02,7.5.97,11.37,1.42-.38,3.93-.84,7.52-1.04,11.13-.19,3.38,1.53,7-.77,10.07-2.93-11.05-11.88-18.81-23.79-18.58,4.6,3.16,8.02,5.59,11.52,7.9,7.68,5.07,7.95,5.78,4.64,14.45,2.55,1.34,5.04,3.06,7.8,3.99,6.2,2.09,9.89-.93,9.1-7.07,1.14,1.4,2.28,2.79,3.39,4.15-4.69,7.02-16.85,6.32-23.7-.94.17,2.14.49,4.59,1.89,5.86,4.83,4.36,19.15,4.33,24.19.31,3.17-2.52,3.27-5.26.29-7.77-4.43-3.72-4.49-5.61.31-9.18,4.4-3.27,9.13-6.1,13.6-9.3,1.81-1.3,3.29-3.06,4.92-4.61-6.84,2.6-12.89,6-18.88,9.51-4.6,2.7-6.91,6.62-5.9,12.1ZM150.61,268.45c5.16,9.78,11.77,11.86,20.06,5.26,3.99-3.17,6.63-8.05,9.81-12.21.58-.76.82-1.79,1.22-2.7,1.68,11.65-5.78,18.4-13.08,25.58,40.95-12.08,82.84-18.87,125.2-23.72-7.08-20-2.99-37.74,7.59-55.13-29.41,2.73-57.2,9.52-84.77,17.84.56,1.25,1.06,2.35,1.22,2.7-2.95-1.04-6.13-3.12-9.31-3.11-10.74.06-20.13,8.12-22.58,18.49-1.59,6.72,1.72,15.55,7.15,19.06,5.26,3.4,10.78,2.61,17.55-2.11,6.7-4.67,11.39-10.59,12.39-19.08,1.38,13.62-4.71,24.85-15.62,29.79-10.23,4.63-20.49-1.53-21.96-12.52-.79-5.95-2.22-12.15-4.92-17.43-2.99-5.85-8.74-6.41-14.12-2.88,9.39-.31,14.04,12.55,10.7,20.76-.21-1.75-.25-3.61-.69-5.37-1.69-6.7-6.62-8.86-12.38-5.1-3.07,2-5.61,4.82-8.84,7.67v-6.35c-3.99,5.26-5.72,10.93-4.59,17.28-1.55-3.09-3-6.22-4.66-9.25-3.51-6.41-9.53-8.01-15.89-3.97,5.44-1.6,8.5,1.27,10.51,5.11,5.8,11.07,1.21,20.7-4.03,30.59,3.9-4.81,7.79-9.61,11.63-14.35.62,1.89,1.22,3.71,1.81,5.54.47-.12.94-.23,1.41-.35-.26-3.34-.52-6.69-.78-10.03ZM521.39,363.32c-3.18-7.28-6.39-13.99-9.08-20.91-2.77-7.13-4.94-14.5-7.52-21.7-2.31-6.44-6.47-11.19-13.18-13.35-3.96-1.28-7.85-2.98-11.91-3.69-23.62-4.12-47.22-8.42-70.95-11.79-13.99-1.99-28.2-2.35-42.31-3.48-3.94-.32-6.35.51-5.94,5.35.15,1.83-1.06,4.09-2.29,5.65-2.15,2.73-4.8,5.07-7.23,7.58-5.72,5.89-9.85,6.29-16.51,1.47-1.75-1.26-3.23-2.91-5.03-4.1-3.89-2.6-5.56-5.66-4-10.52,1.19-3.72-.84-5.67-4.82-5.34-1.33.11-2.68.04-3.99.23-21.1,2.97-42.27,5.56-63.28,9.08-17.75,2.97-35.11,7.71-51.67,15.05-9.68,4.29-15.52,11.34-18.17,21.68-2.76,10.76-7.46,20.68-16.12,28.21-.74.64-1.15,1.65-1.72,2.48,2.38.06,4.29-.47,5.79-1.56,6.19-4.51,12.55-8.85,18.3-13.88,10.53-9.21,22.19-11.96,35.74-8.55,19.4,4.88,38.98,8.97,59.17,8.29,11.19-.37,20.56,3.35,27.93,11.87,2.07,2.39,4.22,4.72,6.2,7.18,4.66,5.8,4.69,11.82.19,17.74-.88,1.16-1.86,2.24-2.92,3.52,7.03,9.94,11.01,20.81,11.08,32.8.13,20.99-.05,41.98-.13,62.98,0,.73-.32,1.45-.5,2.18-1.42-8.81-2.18-17.58-2.75-26.36-.71-10.97-1.09-21.97-1.99-32.92-.24-2.98-1.81-5.85-2.77-8.77-2.38,1.87-5.01,3.49-7.07,5.65-3.27,3.45-6.16,7.26-8.66,10.26-.43-6.36.49-13.32-1.69-19.11-2.18-5.77-7.47-10.36-11.4-15.46l-1.43,1.08c2.17,4.06,4.57,8.01,6.46,12.19,2.57,5.66.65,8.94-5.38,7.98-11.89-1.9-23.18.96-34.64,2.92-18.59,3.19-35.83.44-50.93-11.67-.92-.74-2.07-1.18-3.11-1.76-.41.42-.82.83-1.22,1.25,2.13,2.52,3.86,5.58,6.45,7.46,15.44,11.16,33.02,13.38,51.43,11.57,4.25-.42,8.47-1.11,12.71-1.68-15.48,9.69-31.79,16.25-50.34,13.85-12.48-1.61-21.75-7.85-26.29-20.12-.74-2.01-1.97-3.85-2.95-5.77-2.16-4.22-5.49-6.14-10.33-6.53-7.56-.62-15.63,2.83-22.83-3.18-.04,6.4.45,12.17.86,17.95,1.95,27.54,12.38,50.78,33.82,68.87,6.71,5.66,12.53,12.43,18.42,19,8.32,9.28,13.73,20.29,15.31,32.57,2.06,16,3.03,32.15,4.4,48.24.14,1.63-.19,3.31-.3,4.96-2.93-4.57-4.66-9.22-6.4-13.86-5.14-13.63-10.95-26.84-21.7-37.23-6.37-6.15-13.8-9.23-22.65-8.3-6.46.68-8.86,3.52-8.16,10.01.92,8.44,2.38,16.82,3.45,25.24,3.25,25.5,12.22,48.54,30.38,67.1,19.68,20.11,39.59,40.03,60.15,59.22,14.68,13.71,31.72,24.2,52.42,25.83,14.58,1.15,29.27,1.25,43.9,1.11,19.38-.18,36.73-6.61,51.06-19.78,18.75-17.25,37.42-34.62,55.52-52.55,23.83-23.6,40.73-51.32,47.24-84.7,3.44-17.66,6.85-35.32,10.33-52.97.62-3.13,1.49-6.22,2.34-9.7,11.9,10,23.98,8.01,31.54-4.76,1.91-3.22,3.24-7.01,3.88-10.7,1.67-9.69,4.65-18.65,10.94-26.46,2.02-2.5,3.2-5.83,4.22-8.96,2.9-8.86,5.83-17.72,8.14-26.74,1.77-6.9,2.74-14.01,3.78-21.07.29-1.97-.41-4.09-.65-6.14-4.16,11.79-7.63,23.54-10.06,35.51-1.74,8.55-4.75,16.1-10.21,22.96-4.1,5.16-7.29,11.04-10.91,16.58-.67,1.02-1.47,1.95-2.41,3.18-3.77-9.37-2.46-13.81,6.15-19.35,10.37-6.68,15.02-16.43,14.97-28.24-.02-3.95-2.63-7.97-4.47-11.76-.38-.78-2.56-.68-3.91-.99-.14,1.2-.52,2.44-.35,3.59.19,1.29.96,2.47,1.37,3.74,3.38,10.54.34,19.04-8.39,25.46-4.36,3.21-8.06,7.31-12.19,10.86-1.27,1.09-2.98,1.68-4.49,2.5-.47-1.95-1.77-4.17-1.23-5.79,1.23-3.75,3.26-7.27,5.13-10.79,3.47-6.51-.16-18.98-6.74-22.8-.2-.12-.62.14-1.41.35-.35,2.75-.65,5.7-1.1,8.63-3.99,25.94-11.98,50.13-29.77,70.29-11.54,13.07-25.87,23.62-35,38.95-.98,1.64-5.29,1.55-8.06,1.61-.41,0-1.42-3.59-1.29-5.46,1.33-18.61,10.66-32.46,25.53-43.19,6.47-4.67,12.86-9.61,18.54-15.18,23.06-22.58,27.36-51.24,25.09-81.62-.31-4.19-3.58-8.15-5.74-12.78-2.5,2.29-4.15,3.48-5.39,5-3.36,4.12-7.55,5.53-12.42,3.57-5.5-2.21-11.28-4.2-16.09-7.51-8.53-5.89-16.7-12.21-27.09-14.48-25.21-5.53-46.92,2.19-66.67,17.54-3.65,2.84-7.39,5.88-11.6,7.61-6.63,2.73-10.21,7.72-12.85,13.84-.57,1.33-1,2.72-1.5,4.09-7.33-3.12-9.3-1.91-9.95,5.95-.43,5.21-.72,10.43-1.07,15.65-.67-9.27-1.14-18.54-.54-27.74.64-9.73,4.91-18.2,11.88-25.07-15.09-14.77-9.43-22.53-1.23-29.41,2.12,4.27,4.23,4.59,7.1-.3,4.81-8.21,12.01-11.16,20.82-11.24,18.48-.17,36.47-3.42,54.15-8.48,11.55-3.31,22.29-2.41,32.62,4.01,10.45,6.48,21.1,12.63,32.16,19.22ZM358.42,139.6c-.44,10.29-.85,20.58-1.35,30.87-.34,6.97-.28,7.1,6.77,7.74,1,.09,2,.11,2.99.19,17.77,1.41,35.54,2.74,53.29,4.29,5.67.5,11.29,1.58,17.46,2.48-5.19-10.98-13.65-17.5-22.67-23.67-8.08-5.52-15.79-11.59-23.41-17.74-2.25-1.81-3.63-4.7-5.41-7.1.32-.3.64-.6.96-.9,12.59,6.04,25.32,11.82,37.74,18.2,10.56,5.42,16.95,14.47,19.07,26.1.9,4.92,3.09,6.57,7.92,7.32,9.29,1.43,18.42,3.84,28.88,6.11-1.74-2.62-2.75-4.25-3.87-5.82-6.26-8.79-12.5-17.6-18.83-26.35-3.8-5.25-7.31-10.79-11.68-15.53-11.21-12.13-26.09-16.76-41.84-19.2-9.75-1.51-19.57-2.98-27.78-8.92-3.62-2.62-6.55-6.21-9.56-9.13,13.74,3.9,27.03,8.15,40.56,11.39,13.39,3.21,25.58,8.39,36.05,17.42,9.46,8.16,19.12,16.09,28.42,24.43,10.2,9.15,20.26,18.51,23.36,32.8.22,1,1.01,2.41,1.84,2.67,7,2.18,14.08,4.15,22.33,6.52-13.71-36.78-34.82-65.72-69.46-84.82,1.73-.15,2.26-.35,2.66-.21,1.56.57,3.11,1.2,4.61,1.91,17.35,8.18,31.31,20.58,44.04,34.71,9.57,10.62,19.14,21.4,29.85,30.8,12.55,11.02,28.07,18.53,38.67,32.18-2.9-23.05-15.23-41.76-27.4-60.56,16.27,14.71,29.85,31.28,37.17,52.36.69-.32,1.39-.64,2.08-.95-3.69-10.62-7.39-21.24-11.56-33.24,7.25,10.04,13.94,18.91,20.21,28.07,6.31,9.23,12.21,18.74,18.25,28.07.06-.1.34-.35.4-.64.14-.82.29-1.65.27-2.48-.36-17.24-3.2-33.9-12.82-48.64-5.22-8-9.87-16.13-12.67-25.35-1.04-3.42-2.87-6.96-5.31-9.51-6.64-6.92-13.62-13.55-20.83-19.88-3.15-2.77-5.43-5.44-6.18-9.74-4.07-23.15-26.63-41.89-50.33-40.91-8.1.34-13.38-2.25-17.67-8.52-1.88-2.74-3.97-5.36-6.13-7.89-11.5-13.48-26.07-21.42-43.57-24.14-12.62-1.96-24.99.06-37.18,2.7-9.06,1.96-17.9,5.03-26.69,8.04-1.75.6-4.05,3.34-3.9,4.87.22,2.22,2.1,4.65,3.94,6.2,1.34,1.12,3.74,1.25,5.69,1.3,3.32.09,6.66-.34,9.99-.37,20.52-.19,38.95,5.12,53.09,20.93,3.09,3.45,5.36,7.64,8.41,12.08-8.38.48-13.98-.82-19.59-6.36-12.41-12.26-27.63-20.17-45.16-22.89-6.42-.99-12.71-.4-18.44,2.79-1.47.82-2.25,2.9-3.35,4.39,1.23.89,2.35,2.04,3.72,2.62,1.98.83,4.23,1.03,6.21,1.88,5.68,2.44,11.27,5.07,16.89,7.62l-.5.86c-8.97-1.14-17.94-2.28-27.41-3.48-.22,2.91-.46,4.54-.44,6.16.14,8.66.42,17.33.53,25.99.13,10.83,2.86,21.01,9.57,29.43,5.87,7.36,12.84,13.85,19.48,20.57,1.95,1.97,4.44,3.4,6.68,5.07-16.11-2.93-28.74-10.73-37.05-25.19ZM495.14,651.42c-.5-.21-1-.41-1.5-.62-1.64,1.79-3.46,3.44-4.9,5.38-9.03,12.17-18.4,24.12-26.88,36.67-23.67,35-48.5,68.97-80.21,97.32-16.01,14.32-32.74,27.38-54.33,32.3-16.78,3.82-31.24.32-41.79-13.94-6.92-9.36-13.54-19-19.61-28.93-12.93-21.19-25.16-42.8-38.14-63.95-8.36-13.61-17.41-26.81-26.49-39.96-1.35-1.95-4.62-2.57-7-3.81-1.06,2.4-2.93,4.77-3.04,7.22-.52,11.65-.46,23.33-.81,34.99-.14,4.48-.5,9.01-1.35,13.4-.94,4.86-2.69,5.48-7.01,3-5.77-3.32-11.4-6.88-17.18-10.17-9.82-5.58-19.76-10.93-29.55-16.55-6.07-3.48-12.32-5.6-19.47-5.2-3.43.19-4.68,1.6-4,4.58.96,4.2,2.34,8.3,3.58,12.58-5.32-1.72-8.49-6.02-11.31-10.49-11.29-17.87-13.1-37.03-7.4-57.14.95-3.36,1.68-6.78,2.83-11.44-1.82,1.3-2.36,1.63-2.84,2.04-9.53,8.11-12.93,19.17-14.5,30.93-3.77,28.18,8.6,60.17,46.9,61.22,10.96.3,21.15,4.25,30.74,9.62,15.81,8.86,30.11,19.67,42.76,32.65,13.61,13.96,26.85,28.3,40.86,41.84,19.73,19.07,42.86,30.67,71.11,30.55,24.7-.11,46.85-8.27,67.34-21.04,18.22-11.36,35.58-24.08,53.57-35.82,22.99-15,47.57-25.5,75.76-24.77.85.02,1.72-.38,2.86-.65-7.28-7.74-14.19-15.09-20.66-21.97-2.41.47-4.2.81-6,1.16-.33-1.88-.69-3.75-.96-5.63-.09-.65.04-1.33.11-1.99,2.6-24.69,5.21-49.38,7.79-74.07.32-3.08.49-6.18.74-9.27ZM292.39,86.28c10.09-9.55,22.87-13,36.03-16.82-1.97-1.69-4.11-3.56-6.33-3.67-5.09-.26-10.38-.38-15.31.72-14.11,3.14-26.15,10.46-37.14,19.7-2.7,2.27-5.94,3.91-8.94,5.84,14.41-27.44,41.12-33.65,68.08-39.95-.87-1.79-1.34-3.01-2.02-4.1-4.12-6.62-10.97-7.68-17.82-8.34-11.8-1.15-23.11.88-33.82,6.19,11.15-8.94,24.05-13.73,38.04-14.12,8.88-.25,12.54-7.38,20.23-10.61-33.55-7.43-76.17,11.77-79.79,35.34,3.36-1.13,6.56-2.21,10.71-3.62-1.09,2.41-1.56,3.47-2.26,5.02,1.88-.34,3.08-.55,4.28-.76.16.42.32.84.49,1.27-2.59,1.08-5.21,2.08-7.75,3.26-8.56,3.99-17.56,7.3-25.5,12.28-9.73,6.1-17.36,14.58-20.56,26.13-1.94,7.01-4.33,9.11-13.36,10.12,2.84-7.2,4.8-14.1,8.15-20.25,6.46-11.84,17.02-19.88,27.8-27.55,2.16-1.54,4.13-3.33,6.86-5.55-23.16-2.9-54.38,11.73-57.29,22.71,7.94-2.32,16.17-4.73,24.39-7.14.15.43.3.87.45,1.3-1.12.58-2.21,1.24-3.38,1.72-17.83,7.27-33.93,17.05-46.03,32.41-4.24,5.38-9.36,9.21-15.63,11.99-18.05,7.99-31.89,20.64-39.63,38.97-3.87,9.16-8.6,17.58-14.67,25.39-10.1,13-18.41,27-22.06,43.28-1.16,5.19-1.69,10.52-2.51,15.79.51.16,1.02.31,1.53.47,2.56-15.63,11.03-28.01,20.78-39.75,9.72-11.7,19.51-23.23,34.82-29.97-2.76,5.51-5.29,9.84-7.14,14.44-1.78,4.42-2.86,9.13-4.24,13.71,15.7-27.95,33.46-53.38,63.95-66.86-28.01,22.53-49.92,49.36-60.45,84.32,23.46-19.94,45.27-41.65,69.4-60.64.29.32.58.65.88.97-3.66,5.62-7.33,11.24-10.99,16.87,8.53-8.01,15.93-16.75,24.04-24.76,8.1-8,17.58-14.18,28.43-18.06-23.22,18.21-43.14,38.85-53.32,68.28,1.25-.73,1.73-.9,2.06-1.23.94-.94,1.94-1.86,2.71-2.93,8.92-12.25,20.45-21.32,33.92-28.1,10.56-5.32,19.45-12.8,27.1-21.77,10.94-12.81,24.71-21.03,40.76-25.87,8.92-2.69,17.8-5.66,26.41-9.19,5.27-2.16,10-5.63,15.59-8.87-2.84,8.33-8.3,13.64-15.3,16.88-6.13,2.84-12.75,4.93-19.37,6.3-21.54,4.45-38.46,15.24-49.79,34.38-6.16,10.4-12.54,20.67-18.76,30.9,11.3-2.42,22.95-4.9,34.46-7.36,4.03-20.97,11.75-29.56,32.19-36.03,3.18-1,6.38-1.91,9.57-2.89,10.05-3.08,18.95-8.15,26.51-15.47,5.23-5.05,8.45-11.12,8.85-18.48.39-7.15.86-14.3.93-21.46.15-15.2,0-15.4-14.97-11.85-8.19,1.94-16.18,4.69-24.26,7.07ZM479.2,222.86c-30.01-10.79-60.75-15.7-92.69-17.91,10.63,17.99,13.14,35.97,6.02,55.44,55.67,2.9,108.89,15.85,162.23,31.37-7.04-10.31-8.27-16.45-5.34-24.9.75,9.38,7.01,20.36,14.11,24.73,5.15,3.17,8.77,2.11,11.29-3.31.67-1.45,1.28-2.93,1.96-4.47,4.56,8.55,8.94,16.74,13.72,25.69.92-1.69,1.48-2.25,1.49-2.81.07-9.28.26-18.57-.08-27.83-.06-1.58-2.38-3.07-3.65-4.61-1.14,1.72-2.31,3.42-3.4,5.17-.25.4-.25.96-.56,2.32-.47-2.05-.71-3.11-.95-4.16-.44.1-.88.19-1.32.29,1.22,5.66,2.45,11.33,3.57,16.53-5.94-8.01-5.37-21.02,2.65-28.17-2.99.18-4.87,0-6.54.48-1.76.51-3.33,1.67-4.61,2.35-2.32-5.26-3.96-10.62-6.84-15.19-5.52-8.76-14.53-8.54-20.07,0-.58.9-1.27,1.72-1.44,1.94-2.6-5.09-4.66-10.6-7.97-15.22-4.45-6.21-11.18-7.48-17.78-4.53-7.29,3.26-11.05,9.69-9.66,17.3,1.29,7.06,4.68,13.14,9.89,18.11,7.43,7.1,12.22,7.63,20.72,2.42-2.67,7.75-8.77,11.07-16.2,8.39-7.2-2.59-12.29-7.84-13.99-15.18-1.48-6.4-2.72-13.34-1.8-19.71,1.48-10.23-9.07-23.41-19.86-25.38-8.5-1.55-16.15,3.16-17.31,11.65-1.45,10.57,2.28,19.31,10.69,25.96,7.01,5.54,14.17,6.61,21.85-.64-3.28,10.09-9.13,12.53-17.77,9.63-17.7-5.95-22.48-34.88-10.34-45.75ZM86.96,277.1c.15-7.11,3.92-12.34,8.71-16.91,3.11-2.98,6.29-6.19,10.03-8.15,13.54-7.09,26.91-14.83,41.12-20.29,48.82-18.76,99.86-28.54,151.66-33.92,13.03-1.35,19.7-9.68,28.07-17.31-21.97,1.9-43.84,4.01-65.57,7.13-45.54,6.54-89.65,18.28-131.31,38.27-15.8,7.58-30.02,17.27-40.49,31.67-4.33,5.95-6.43,12.35-2.21,19.53ZM353.6,12.59c-3.72,0-6.73.29-9.66-.07-4.82-.59-6.3,1.22-6.28,6.05.19,49.77.18,99.55.25,149.32,0,1.24.26,2.47.29,2.76h15.46c1.35-51.93,2.43-104.63-.06-158.05ZM101.87,610.38c.4.08.8.16,1.21.24,2.03-5.91,3.45-12.13,6.21-17.68,5.64-11.3,11.82-22.35,18.14-33.29,2.95-5.12,4.47-9.52-1-13.87-1.25-.99-1.98-2.66-2.9-4.04-4.36-6.55-4.6-6.6-10.8-1.67-1.17.93-2.29,1.95-3.33,3.02-7.88,8.12-15.93,16.09-23.51,24.48-4.56,5.04-8.75,10.5-12.44,16.21-7.72,11.92-9.56,25.16-6.55,38.87,2.01,9.15,5.61,17.7,15.19,24.04.48-2.99,1.36-5.14,1.01-7.08-.48-2.74-1.9-5.3-2.87-7.96-4.14-11.35-6.45-22.81-1.65-34.56.85-2.08,2.14-3.97,3.23-5.95-1.96,15.81-.88,24.77,3.41,30.17.43-8.3.11-17.92,1.63-27.23,1.68-10.34,10.62-22.47,15.34-23.2-3.43,8.69-8.02,17.13-9.98,26.15-2.03,9.35.09,18.85,6.13,26.91-.15-9.79-1.85-19.59,3.54-30.15v16.6ZM93.53,329.05c14.8-6.81,28.73-14.41,43.46-19.78,48.11-17.55,97.94-27.78,148.87-32.81,6.51-.64,13.01-1.39,20.44-2.19-2.54-2.72-4.6-4.29-5.81-6.36-2.28-3.89-5.26-4.84-9.58-4.17-22.04,3.39-44.22,5.97-66.15,9.96-37.42,6.8-74.31,15.72-108.08,34.14-7.09,3.86-13.73,8.6-20.32,13.29-2.8,2-4.1,5.13-2.84,7.92ZM382.62,274.31c8.92.6,17.19,1,25.42,1.75,46.42,4.24,92.14,12.25,136.51,26.83,16.57,5.44,33.43,10.59,46.75,22.85.43.39,1.14.48,2.21.91.95-5.65-1.05-10.11-4.75-13.18-5.34-4.41-10.9-9.18-17.2-11.69-15.28-6.08-30.84-11.68-46.66-16.14-40.33-11.35-81.43-18.65-123.24-22.26-9.45-.81-14.54,2.56-19.04,10.92ZM593.22,643.67c11.77-15.97,15.06-33.02,9.05-51.09-7.06-21.25-20.76-38.51-35.7-54.79-1.1-1.2-2.61-2.06-4-2.95-.67-.43-1.54-.88-2.29-.82-5.73.42-12.71,12.59-10.12,17.78,4.53,9.09,9.11,18.16,13.88,27.12,6.76,12.71,10.96,26.05,10.82,40.59,0,.64.31,1.28.72,2.87,4.54-10.39,4.45-20.39,4.55-30.38,4.33,9.9,4.16,20.16,3.19,30.52,7.3-16.34,5.21-32.52-1.68-49.71,12.5,13.4,16.59,36.67,9.35,53.51-2.77,6.44-1.58,11.43,2.23,17.35ZM498.34,716.27c-3.51,10.57-.47,15.82,9.88,16.6,13.5,1.03,26.48-2.16,39.14-6.48,14.87-5.07,26.26-14.59,32.91-28.83,8.81-18.84,11.58-37.91-1.22-56.43-1.14-1.65-2.73-2.99-4.11-4.48-.43.11-.86.21-1.28.32,5.88,25.28,1.87,48.02-16.49,67.11.64-2.59,1.28-5.17,2.25-9.07-9.41,7.65-18.87,11.03-29.67,10.47-1.37-.07-3.07.47-4.14,1.32-8.06,6.42-16.86,10.62-27.27,9.46ZM114.28,474.98c.87,1.31,1.48,2.98,2.67,3.87,4.14,3.09,4.56,7.56,5.59,12.12,1.45,6.42,3.29,12.89,6.03,18.84,2.9,6.29,8.63,9.54,15.66,10.04,10.74.77,16.57-6.42,13.73-16.78-2.07-7.54-4.43-15.04-5.95-22.7-2.31-11.58-3.99-23.28-5.99-34.92-.55-3.21-1.29-6.38-2.07-10.2-7.2,9.8-7.22,22.11-1.07,30.91,1.49,2.13,2.04,5.1,2.38,7.76.13,1.04-1.3,2.97-2.36,3.27-1.01.29-2.61-.84-3.7-1.68-2.85-2.17-5.31-4.96-8.37-6.73-8.62-4.97-13.74-12-14.06-22.08-.14-4.32.22-8.65.33-12.97.03-1.33,0-2.66,0-4.84-5.83,4.75-5.75,10.52-7.22,16.36-3.24-9.43-6.49-18.86-9.73-28.28-2.31,3.94-2.35,7.52-.17,13.72,2.8,8.01,5.66,16.01,8.37,24.05,3.49,10.37,10.84,17.32,19.88,22.83,2.12,1.3,4.53,2.29,6.31,3.96,4.83,4.51,3.72,11.67-2.65,14.42-1.77-10.29-10.52-14.88-17.59-20.97ZM142.25,572.88c-.22-.15-.43-.3-.65-.45-.44.46-.95.87-1.3,1.39-12.42,18.32-21.78,38.14-28.3,59.25-6.69,21.66-1.4,40.73,13.41,57.45,1.27,1.43,2.91,2.52,4.38,3.77-11.75-15.75-13.32-33.15-10.78-51.43.74,5.42,1.05,10.92,1.94,16.32.87,5.27,2.32,10.44,3.51,15.66.47-.05.93-.11,1.4-.16,3.44-27.05,16.23-51.02,25.58-76.91-2.24,1.16-3.71,1.92-5.85,3.03,1.01-6.18,1.9-11.62,2.78-17.05-.35-.12-.71-.24-1.06-.36-2.32,5.07-4.65,10.14-7.15,15.61-.15-1.3-.25-2.25-.42-3.74-1.92,2.15-3.41,3.82-4.9,5.48-.44-.21-.89-.41-1.33-.62,2.92-9.08,5.83-18.16,8.75-27.24ZM158.15,329.6c3.18-3.74,6.24-7,8.84-10.59.79-1.09.99-3.59.27-4.52-.75-.96-3.31-1.52-4.43-.96-2.25,1.12-4.29,2.92-6.01,4.81-8.5,9.3-18.09,17.03-31.08,18.21-7.9.72-15.98.39-23.9-.34-7.27-.67-12,2.13-15.4,8.2,9.51-4.17,10.78-3.75,18.3,4.27,2.35,2.51,5.13,4.82,8.11,6.51,18.94,10.7,47.02,3.06,59.03-15.98,4.61-7.31,6.09-15.54,6.63-24.36-8.61,2.38-11.78,11.86-20.36,14.75ZM601.37,348.01c-4.43-9.44-11.36-12.97-20.46-12.87-2.5.03-4.99-.02-7.49-.02-11.77,0-22.24-3.58-31.13-11.42-3.99-3.52-7.86-7.18-11.89-10.64-1.74-1.5-3.62-3.05-5.71-3.84-1.49-.56-3.99-.51-5.04.41-.91.81-1.07,3.53-.42,4.84,2.23,4.48,4.96,8.7,7.5,13.03-4.17-3.75-7.64-8.14-11.38-12.28-1.13-1.25-3.03-1.79-4.58-2.65-.5,1.77-1.96,4.03-1.34,5.22,2.56,4.9,4.82,10.56,8.86,13.97,15.26,12.91,32.68,18.12,52.47,11.64,10.51-3.44,20.61-3.52,30.62,4.62ZM267.18,183.92c2.48-.36,4.23-.62,5.99-.88,5.93-.87,11.83-2.07,17.78-2.53,11.78-.91,23.6-1.52,35.41-2.03,3.95-.17,5.65-1.45,5.35-5.69-.54-7.64-.58-15.31-.89-22.97-.12-2.94-.41-5.87-.75-10.51-8.51,13.82-20.95,18.97-34.12,23.16-5.69,1.81-11.32,3.99-16.65,6.67-5.77,2.9-9.94,7.56-12.12,14.78ZM439.77,370.94c11.15,1.34,22.68,2.47,34.13,4.2,6.05.91,11.91,3.03,17.91,4.31,7.8,1.66,13.13-.35,16.7-5.79,1.63-2.48,1.82-4.72-.96-6.35-3.55-2.09-7.07-4.39-10.88-5.89-21.2-8.34-39.43.81-56.91,9.52ZM248.58,372.88c.07-.38.15-.75.22-1.13-8.43-3.42-16.74-7.17-25.32-10.17-13.16-4.6-25.91-2.47-38.09,3.76-4.64,2.37-4.63,3.33-1.24,7.4,5.69,6.84,12.54,9.13,21.32,6.82,8.65-2.28,17.46-4.11,26.29-5.57,5.52-.91,11.2-.77,16.82-1.1ZM680.63,209.87c-12.26,11.97-25.1,10.58-37.47,4.26-9.08-4.64-17.18-11.22-25.7-16.95-1.12-.75-2.15-1.63-4.26-3.24,4.08,14.16,10.68,25.02,21.43,33.07,5.93,4.44,12.45,8.01,20.09,7.81,3.66-.09,7.28-1.6,10.92-2.47-.12-.51-.23-1.01-.35-1.52-2.3.22-4.61.44-6.91.66,13.13-6.6,20.04-12.71,22.26-21.63ZM19.07,230.84c18.25,12.09,52.97-18.82,55.56-38.84-8.89,6.37-17.95,13.71-27.82,19.73-13.24,8.07-27.21,13.31-42.28,2.21,2.66,13.38,13.96,13.29,22.96,16.9h-8.42ZM160.09,621.25c-.64-.33-1.29-.66-1.93-.99-4.34,7.66-8.69,15.32-13.03,22.99-.36-.18-.71-.37-1.07-.55,4.64-9.59,9.28-19.18,13.91-28.77-12.11,11.59-27.22,39.9-20.05,60.48,3.9,11.19,15.48,29.34,22.2,28.6-1.04-1.48-1.94-2.85-2.93-4.16-7.33-9.69-11.41-20.54-9.34-32.66,1.81-10.61,4.71-21.04,7.44-31.47,1.2-4.59,3.17-8.99,4.79-13.47ZM85.37,554.21c-6.57-22.14-3.99-42.53,6.28-49.76-7.04,10.98-8.32,22.27-3.74,34.1,1.24-19.03,1.83-21.1,8.11-33.89,2.77-5.64,5.17-11.47,7.46-17.33.9-2.29,1.02-4.88,1.5-7.33-.51-.24-1.03-.48-1.54-.72-9.18,11.44-21.62,20.23-28.13,33.77-7.01,14.59-2.37,32.58,10.06,41.15ZM63.45,390.86c1.59.23,3.18.56,4.78.68,15.57,1.13,29.7-3.27,42.38-11.96,3.26-2.24,5.14-6.5,7.65-9.83-3.83-1.72-7.5-4.21-11.51-5.02-9.17-1.85-15.87,3.22-21.98,9.26-6.35,6.28-11.99,13.51-21.32,16.87ZM515.18,696.82c13-6.09,18.09-16.97,20.59-29.29,4.24-20.86-1.96-38.77-16.6-53.99,3.27,8.39,6.55,16.78,9.82,25.17l-.74.23c-3.76-6.67-7.51-13.34-11.27-20-.46.23-.93.47-1.39.7.75,1.96,1.53,3.9,2.23,5.87,8.52,23.8,12.52,47.46-2.65,71.31ZM215.62,400.51c-.56-.13-1.11-.27-1.67-.4-.57,2.36-1.77,4.77-1.58,7.06.73,8.83,6.55,14.34,16.83,16.38,14.11,2.8,27.83-.13,41.48-3.21,1.43-.32,3.1-1.61,3.77-2.9,4.73-9.06,1.49-16.71-8.25-20.02-1.49,11.91-10.35,20.96-22.62,23.12-11.04,1.94-20.53-4.85-27.96-20.03ZM619.53,392.19c.12-.46.25-.92.37-1.39-8.14-1.52-14.23-6.08-19.33-12.18-2.14-2.55-4.31-5.11-6.73-7.37-6.88-6.42-14.79-9.45-24.25-6.67-3.58,1.05-4.87,3.39-2.32,6.21,3.49,3.86,7.02,8.47,11.54,10.46,9.39,4.12,19.38,6.94,29.26,9.83,3.62,1.06,7.64.78,11.48,1.11ZM279.99,390.54c-.76-.66-1.52-1.45-2.4-2.07-19.94-13.95-41.49-16.18-63.41-6.38-11.78,5.27-22.33,13.27-33.43,20.04,2.85.03,5.77-.26,8.36-1.35,3.97-1.67,7.82-3.71,11.54-5.9,25.71-15.13,52.06-17.14,79.35-4.34ZM104.51,394.63c17.24,4.15,35.48-6.82,34.34-20.13-11.26,6.6-22.35,13.1-34.34,20.13ZM580.89,390.78c-11.27-6.86-21.71-13.21-32.66-19.87-.1,14.74,20.23,25.35,32.66,19.87ZM586.34,332.34c.43-9.03-1.99-11.59-9.88-10.81-10.06.99-20.19,2.98-29.47-3.8,1.93,5.4,5.51,9.4,10.59,10.27,5.75.98,11.88.84,17.69.04,4.63-.63,8.5-1.24,11.07,4.31ZM255.16,406.14c-10.36,5.86-20.69,9.12-29.44-2.86-2,9.05,9.56,16.81,16.55,16.16,7.78-.72,13.85-6.29,12.89-13.3ZM134.63,417.73c.45.01.9.02,1.35.04-.22-7.04,1.69-12.94,7.91-16.8,1.66-1.03,3.14-2.53,4.35-4.09,2.7-3.47,3.98-7.35,2.57-12.94-5.54,9.63-12.33,16.32-22.73,18.36,2.33,5.48,4.44,10.46,6.56,15.43ZM563.23,401.06c-11.9-1.73-20.7-6.91-26.09-17.34.45,6,1.24,12.1,6.4,15.33,5.92,3.71,10.85,7.55,11.26,15.32h1.21c2.24-4.12,4.49-8.25,7.22-13.3ZM386.11,33.5c.14-.5.28-1,.41-1.51-8.69-2.14-17.37-4.28-27.11-6.68.91,4.14,1.33,7.25,2.38,10.12.38,1.04,2.4,2.32,3.45,2.14,6.99-1.16,13.92-2.68,20.87-4.08ZM127.74,274.48c-1.22,2.61-2.62,4.34-2.72,6.13-.11,2.1.35,4.8,1.67,6.19.72.76,4.02-.14,5.64-1.14,6.05-3.72,10.76-15.72,8.76-22.42-.76-2.54-2.55-4.78-3.86-7.15-.35.21-.7.42-1.05.63,2.61,3.73,6.85,7.31,1.01,11.83,1.1,5.53-1.23,8.94-6.39,11.09-1.01-1.7-1.75-2.95-3.06-5.15ZM389.51,366.01c6.74.87,17.75-7.35,20.3-15.15-10.17-.43-17.83,5.29-20.3,15.15ZM585.75,547.76c.6-.23,1.2-.45,1.8-.68-2.07-13.2-8.03-24.59-16.03-35.04-.55.25-1.1.5-1.65.75,5.29,11.66,10.58,23.31,15.87,34.97ZM115.64,513.99l-1.56-.76c-6.28,11.12-12.56,22.23-18.83,33.35.49.28.99.56,1.48.84,8.75-9.74,16.28-20.18,18.91-33.43ZM107.79,265.67c7.02,11.91,1.78,22.76-1.06,33.75,13.28-12.76,11.37-29.79,1.06-33.75ZM114.79,325.35c6.85,8.57,22.76,8.3,27.31,0h-27.31ZM284.81,353.66c3.32,3.82,5.83,7.08,8.74,9.93,1.83,1.8,4.15,3.18,6.45,4.39.78.41,2.54.05,3.12-.6.55-.62.46-2.22.09-3.17-2.4-6.14-10.12-10.86-18.39-10.55ZM246.08,398.62c1.86-2.82,4.19-5.06,3.76-5.96-.94-1.95-3.33-4.48-5.07-4.43-1.82.05-3.57,2.83-5.35,4.42,1.86,1.67,3.72,3.34,6.66,5.97ZM287.54,364.93c-.59-10.03-5.51-14.41-11.01-12.88,3.1,3.63,6.64,7.76,11.01,12.88ZM100.94,304.38c4.49-4.51-.79-6.84-1.72-10.1-3.62,3.92-2.35,7.06,1.72,10.1Z"/>
  <path class="cls-2" d="M521.39,363.32c-11.06-6.59-21.71-12.73-32.16-19.22-10.33-6.41-21.07-7.31-32.62-4.01-17.68,5.06-35.67,8.32-54.15,8.48-8.81.08-16.01,3.03-20.82,11.24-2.87,4.89-4.98,4.57-7.1.3-8.19,6.88-13.86,14.64,1.23,29.41-6.97,6.87-11.24,15.34-11.88,25.07-.61,9.2-.13,18.48.54,27.74.35-5.22.64-10.44,1.07-15.65.65-7.86,2.62-9.07,9.95-5.95.5-1.38.93-2.76,1.5-4.09,2.64-6.12,6.22-11.11,12.85-13.84,4.2-1.73,7.94-4.77,11.6-7.61,19.75-15.34,41.46-23.06,66.67-17.54,10.39,2.28,18.56,8.6,27.09,14.48,4.81,3.32,10.59,5.3,16.09,7.51,4.87,1.96,9.06.56,12.42-3.57,1.24-1.52,2.89-2.71,5.39-5,2.16,4.62,5.42,8.59,5.74,12.78,2.27,30.38-2.03,59.03-25.09,81.62-5.69,5.57-12.07,10.52-18.54,15.18-14.87,10.73-24.21,24.59-25.53,43.19-.13,1.87.88,5.47,1.29,5.46,2.78-.07,7.08.03,8.06-1.61,9.14-15.32,23.46-25.87,35-38.95,17.79-20.15,25.78-44.35,29.77-70.29.45-2.93.75-5.87,1.1-8.63.79-.21,1.21-.47,1.41-.35,6.59,3.82,10.21,16.29,6.74,22.8-1.87,3.52-3.9,7.03-5.13,10.79-.53,1.62.77,3.84,1.23,5.79,1.51-.82,3.22-1.4,4.49-2.5,4.13-3.55,7.83-7.65,12.19-10.86,8.74-6.43,11.77-14.93,8.39-25.46-.41-1.27-1.17-2.45-1.37-3.74-.17-1.15.21-2.39.35-3.59,1.35.31,3.53.21,3.91.99,1.83,3.79,4.45,7.81,4.47,11.76.06,11.81-4.59,21.56-14.97,28.24-8.61,5.54-9.92,9.98-6.15,19.35.94-1.23,1.75-2.16,2.41-3.18,3.62-5.54,6.81-11.42,10.91-16.58,5.46-6.86,8.47-14.41,10.21-22.96,2.43-11.96,5.9-23.72,10.06-35.51.24,2.05.94,4.17.65,6.14-1.05,7.06-2.02,14.17-3.78,21.07-2.31,9.02-5.25,17.89-8.14,26.74-1.02,3.13-2.2,6.45-4.22,8.96-6.29,7.81-9.27,16.76-10.94,26.46-.64,3.69-1.97,7.48-3.88,10.7-7.55,12.77-19.63,14.75-31.54,4.76-.85,3.48-1.72,6.56-2.34,9.7-3.48,17.65-6.88,35.32-10.33,52.97-6.51,33.38-23.4,61.1-47.24,84.7-18.1,17.92-36.77,35.3-55.52,52.55-14.32,13.18-31.68,19.6-51.06,19.78-14.63.14-29.33.03-43.9-1.11-20.7-1.63-37.74-12.12-52.42-25.83-20.56-19.19-40.47-39.11-60.15-59.22-18.16-18.56-27.13-41.61-30.38-67.1-1.07-8.42-2.53-16.8-3.45-25.24-.71-6.49,1.7-9.33,8.16-10.01,8.84-.94,16.28,2.14,22.65,8.3,10.75,10.39,16.57,23.6,21.7,37.23,1.75,4.64,3.47,9.29,6.4,13.86.11-1.66.44-3.33.3-4.96-1.37-16.09-2.34-32.23-4.4-48.24-1.58-12.28-7-23.29-15.31-32.57-5.88-6.57-11.71-13.34-18.42-19-21.45-18.09-31.87-41.33-33.82-68.87-.41-5.78-.9-11.55-.86-17.95,7.21,6.02,15.28,2.57,22.83,3.18,4.84.39,8.17,2.31,10.33,6.53.98,1.93,2.2,3.76,2.95,5.77,4.54,12.27,13.81,18.51,26.29,20.12,18.55,2.4,34.87-4.17,50.34-13.85-4.24.57-8.46,1.26-12.71,1.68-18.41,1.81-35.99-.41-51.43-11.57-2.59-1.87-4.32-4.94-6.45-7.46.41-.42.82-.83,1.22-1.25,1.04.58,2.19,1.03,3.11,1.76,15.1,12.11,32.34,14.86,50.93,11.67,11.46-1.96,22.74-4.82,34.64-2.92,6.03.96,7.95-2.32,5.38-7.98-1.9-4.18-4.29-8.14-6.46-12.19l1.43-1.08c3.93,5.11,9.22,9.7,11.4,15.46,2.18,5.78,1.26,12.74,1.69,19.11,2.5-3,5.39-6.81,8.66-10.26,2.06-2.17,4.69-3.79,7.07-5.65.96,2.92,2.53,5.79,2.77,8.77.89,10.95,1.28,21.95,1.99,32.92.57,8.78,1.33,17.56,2.75,26.36.17-.73.49-1.45.5-2.18.08-20.99.26-41.99.13-62.98-.07-11.99-4.05-22.86-11.08-32.8,1.07-1.28,2.05-2.36,2.92-3.52,4.51-5.93,4.47-11.95-.19-17.74-1.98-2.46-4.13-4.79-6.2-7.18-7.37-8.52-16.74-12.24-27.93-11.87-20.2.67-39.77-3.41-59.17-8.29-13.55-3.41-25.22-.66-35.74,8.55-5.75,5.03-12.11,9.37-18.3,13.88-1.5,1.09-3.41,1.62-5.79,1.56.57-.84.98-1.84,1.72-2.48,8.67-7.53,13.36-17.46,16.12-28.21,2.65-10.34,8.49-17.39,18.17-21.68,16.56-7.34,33.92-12.08,51.67-15.05,21.01-3.52,42.18-6.11,63.28-9.08,1.31-.19,2.66-.12,3.99-.23,3.97-.33,6.01,1.62,4.82,5.34-1.56,4.86.11,7.93,4,10.52,1.79,1.19,3.28,2.84,5.03,4.1,6.66,4.81,10.79,4.42,16.51-1.47,2.44-2.51,5.08-4.85,7.23-7.58,1.23-1.56,2.44-3.82,2.29-5.65-.41-4.84,2-5.67,5.94-5.35,14.11,1.14,28.33,1.5,42.31,3.48,23.73,3.37,47.33,7.68,70.95,11.79,4.06.71,7.95,2.41,11.91,3.69,6.71,2.16,10.86,6.92,13.18,13.35,2.59,7.21,4.76,14.57,7.52,21.7,2.68,6.92,5.89,13.63,9.08,20.91ZM511.22,404.39c-6.35-2.9-13.75-6.45-21.29-9.69-9.3-4-18.38-9.39-28.12-11.28-34.63-6.74-56.02,4.59-68.8,31.7-2.53,5.37-1.03,7.4,4.98,6.9,4.46-.37,8.97-1.66,13.35-1.31,8.44.68,16.85,1.99,25.19,3.48,19.29,3.44,36.77.22,51.73-13.16.65-.58,1.55-.89,2.34-1.33-.1,2.44-.85,4.4-2.08,5.98-4.64,5.96-10.71,9.83-17.9,12.16-11.48,3.72-23.23,4.12-35.1,3.25-4.79-.35-9.57-.79-14.36-1.19,11.54,6.53,23.66,11.05,36.75,12.25,7.94.73,15.65-.77,22.56-4.98,5.28-3.22,5.57-6.55,1.15-10.45,10.26-7.74,20.5-15.46,29.59-22.32ZM306.64,509.44c-6.89,4.34-11.39,15.34-9.43,25.44,2.84,14.69,9.96,27.11,21.07,37.11,1.98,1.79,4.99,2.4,7.42,3.73,1.47.81,3.35,1.69,4,3.04,2.94,6.08,7.67,9.79,14.24,10.29,6.42.49,10.62-3.82,13.41-8.9,1.68-3.06,2.58-6.91,2.66-10.43.11-4.97,1.86-8.19,6.47-10.04,11.13-4.47,18.01-13.3,23.62-23.36,4.98-8.94,3.03-20.19-4.68-26.9-.62-.54-1.65-.61-1.84-.67,2.14,4.96,4.93,9.89,6.37,15.18,1.54,5.69-.72,8.79-6.46,9.49-7.32.88-12.9,4.55-18.64,8.81-3.95,2.93-8.97,5.13-13.8,5.99-9.92,1.76-19.18-.6-27.07-7.31-4.34-3.7-9.32-5.53-15.15-5.4-7.35.16-10.64-3.52-8.73-10.67,1.47-5.48,4.44-10.56,6.55-15.39ZM294.68,617.55c3.43-.8,7.3-1.75,11.2-2.59,7.15-1.53,14.38-3.91,21.58-.82,11.36,4.88,22.72,4.23,34.2.81,8.19-2.44,16.24-2.45,24.58-.13,4.87,1.35,10.24,1.83,15.27,1.38,4.63-.41,8.94-1.96,13.38.98.8.53,4.17-.83,4.41-1.8,1-3.98-6.37-11.26-10.02-9.49-6.84,3.31-11.42-.72-16.59-3.46-6.46-3.43-12.74-7.25-19.42-10.18-6.83-3-14.22-3.47-20.56,1.07-6.31,4.51-12.22,4.17-17.95-.09-5.91-4.4-11.66-4.01-17.75-.91-8.3,4.23-16.54,8.58-24.96,12.57-2.72,1.29-6.17,2.75-8.81,2.13-5.76-1.36-8.12-.97-10.7,4.72-.81,1.78-.69,3.98-.99,5.99,1.92-.09,4.18.44,5.69-.4,4.02-2.23,7.86-2.09,11.99-.67,1.54.53,3.27.55,5.45.88ZM384.26,662.78c.2-.45.39-.91.59-1.36-5.19-3.4-10.38-6.81-15.82-10.38,10.21-4.93,19.1-11.33,24.88-23.2-3.54,1.9-5.92,3.03-8.13,4.39-7.04,4.34-14.72,5.78-22.9,5.82-12.14.06-24.27.4-36.4.91-8.57.36-16.53-1.09-23.78-5.92-2.55-1.7-5.34-3.01-8.03-4.51,5.22,11.54,13.32,19.81,24.56,24.16-6.75,4.42-13.41,8.77-20.07,13.13.31.63.63,1.27.94,1.9,12.98-7.17,26.81-10.42,41.51-10.61,14.51-.18,28.83.5,42.67,5.66Z"/>
  <path class="cls-2" d="M358.42,139.6c8.31,14.47,20.94,22.26,37.05,25.19-2.24-1.68-4.73-3.11-6.68-5.07-6.64-6.72-13.61-13.21-19.48-20.57-6.72-8.42-9.44-18.6-9.57-29.43-.11-8.66-.38-17.33-.53-25.99-.03-1.62.22-3.24.44-6.16,9.47,1.2,18.44,2.34,27.41,3.48l.5-.86c-5.63-2.56-11.22-5.18-16.89-7.62-1.97-.85-4.22-1.05-6.21-1.88-1.37-.57-2.49-1.72-3.72-2.62,1.1-1.5,1.87-3.58,3.35-4.39,5.73-3.18,12.02-3.78,18.44-2.79,17.54,2.71,32.75,10.63,45.16,22.89,5.61,5.54,11.21,6.84,19.59,6.36-3.05-4.44-5.32-8.63-8.41-12.08-14.15-15.81-32.58-21.12-53.09-20.93-3.33.03-6.66.45-9.99.37-1.94-.05-4.35-.18-5.69-1.3-1.84-1.55-3.72-3.98-3.94-6.2-.15-1.53,2.15-4.27,3.9-4.87,8.79-3.02,17.63-6.08,26.69-8.04,12.2-2.64,24.57-4.66,37.18-2.7,17.5,2.72,32.07,10.66,43.57,24.14,2.16,2.53,4.26,5.14,6.13,7.89,4.29,6.27,9.57,8.86,17.67,8.52,23.7-.98,46.26,17.75,50.33,40.91.76,4.3,3.04,6.98,6.18,9.74,7.21,6.33,14.19,12.95,20.83,19.88,2.45,2.55,4.28,6.1,5.31,9.51,2.8,9.22,7.45,17.36,12.67,25.35,9.62,14.74,12.45,31.4,12.82,48.64.02.82-.12,1.66-.27,2.48-.05.29-.33.55-.4.64-6.04-9.33-11.93-18.85-18.25-28.07-6.27-9.16-12.95-18.03-20.21-28.07,4.17,12,7.87,22.62,11.56,33.24-.69.32-1.39.64-2.08.95-7.32-21.08-20.9-37.65-37.17-52.36,12.18,18.8,24.51,37.52,27.4,60.56-10.6-13.65-26.12-21.15-38.67-32.18-10.71-9.41-20.27-20.18-29.85-30.8-12.73-14.13-26.69-26.53-44.04-34.71-1.5-.71-3.05-1.33-4.61-1.91-.4-.15-.93.05-2.66.21,34.64,19.1,55.75,48.04,69.46,84.82-8.26-2.37-15.33-4.34-22.33-6.52-.83-.26-1.62-1.66-1.84-2.67-3.1-14.29-13.16-23.65-23.36-32.8-9.3-8.34-18.96-16.27-28.42-24.43-10.47-9.03-22.66-14.22-36.05-17.42-13.53-3.24-26.82-7.48-40.56-11.39,3.01,2.92,5.94,6.51,9.56,9.13,8.22,5.94,18.04,7.41,27.78,8.92,15.76,2.44,30.64,7.07,41.84,19.2,4.37,4.73,7.88,10.28,11.68,15.53,6.32,8.75,12.57,17.55,18.83,26.35,1.11,1.56,2.13,3.2,3.87,5.82-10.46-2.28-19.6-4.68-28.88-6.11-4.83-.75-7.03-2.4-7.92-7.32-2.12-11.64-8.52-20.68-19.07-26.1-12.42-6.38-25.15-12.16-37.74-18.2-.32.3-.64.6-.96.9,1.78,2.4,3.16,5.29,5.41,7.1,7.62,6.15,15.34,12.22,23.41,17.74,9.02,6.17,17.48,12.69,22.67,23.67-6.17-.89-11.79-1.98-17.46-2.48-17.75-1.55-35.53-2.88-53.29-4.29-1-.08-2-.1-2.99-.19-7.06-.64-7.11-.77-6.77-7.74.5-10.29.9-20.58,1.35-30.87ZM503.42,110.44c.42-.45.83-.9,1.25-1.34-1.28-19.53-39.78-62.64-75.07-64.16,4.33,2.02,8.76,3.76,12.88,6.06,20.81,11.65,36.84,28.18,49.64,48.2,2.8,4.37,7.49,7.53,11.31,11.25ZM531.62,119.62c.72-10.41-15.21-29.56-25.85-32.72,7.96,10.07,16.93,21.43,25.85,32.72Z"/>
  <path class="cls-2" d="M495.14,651.42c-.24,3.09-.41,6.19-.74,9.27-2.58,24.69-5.19,49.38-7.79,74.07-.07.66-.2,1.35-.11,1.99.27,1.89.63,3.76.96,5.63,1.79-.35,3.59-.69,6-1.16,6.47,6.88,13.38,14.23,20.66,21.97-1.14.27-2.01.67-2.86.65-28.2-.73-52.77,9.77-75.76,24.77-17.99,11.74-35.35,24.46-53.57,35.82-20.49,12.77-42.64,20.93-67.34,21.04-28.25.13-51.37-11.48-71.11-30.55-14.01-13.54-27.26-27.88-40.86-41.84-12.65-12.98-26.95-23.8-42.76-32.65-9.58-5.37-19.77-9.32-30.74-9.62-38.3-1.05-50.68-33.04-46.9-61.22,1.58-11.76,4.98-22.83,14.5-30.93.48-.41,1.02-.74,2.84-2.04-1.14,4.66-1.87,8.08-2.83,11.44-5.7,20.11-3.89,39.27,7.4,57.14,2.82,4.47,5.99,8.77,11.31,10.49-1.24-4.28-2.62-8.39-3.58-12.58-.68-2.98.57-4.39,4-4.58,7.15-.39,13.4,1.72,19.47,5.2,9.79,5.62,19.73,10.97,29.55,16.55,5.79,3.29,11.41,6.85,17.18,10.17,4.32,2.48,6.07,1.86,7.01-3,.85-4.39,1.22-8.92,1.35-13.4.35-11.66.29-23.33.81-34.99.11-2.45,1.98-4.81,3.04-7.22,2.38,1.24,5.65,1.86,7,3.81,9.09,13.14,18.14,26.34,26.49,39.96,12.98,21.15,25.22,42.76,38.14,63.95,6.06,9.94,12.68,19.57,19.61,28.93,10.55,14.26,25.01,17.77,41.79,13.94,21.6-4.92,38.32-17.98,54.33-32.3,31.71-28.35,56.55-62.33,80.21-97.32,8.48-12.55,17.85-24.5,26.88-36.67,1.44-1.94,3.26-3.59,4.9-5.38.5.21,1,.41,1.5.62Z"/>
  <path class="cls-2" d="M292.39,86.28c8.08-2.38,16.08-5.13,24.26-7.07,14.98-3.55,15.12-3.35,14.97,11.85-.07,7.16-.53,14.31-.93,21.46-.4,7.35-3.63,13.42-8.85,18.48-7.57,7.32-16.46,12.39-26.51,15.47-3.19.97-6.39,1.88-9.57,2.89-20.44,6.47-28.16,15.06-32.19,36.03-11.52,2.46-23.16,4.95-34.46,7.36,6.22-10.23,12.61-20.5,18.76-30.9,11.33-19.14,28.25-29.93,49.79-34.38,6.62-1.37,13.25-3.47,19.37-6.3,7-3.24,12.46-8.55,15.3-16.88-5.59,3.24-10.32,6.71-15.59,8.87-8.61,3.53-17.49,6.49-26.41,9.19-16.04,4.84-29.82,13.06-40.76,25.87-7.66,8.97-16.54,16.45-27.1,21.77-13.47,6.78-25,15.85-33.92,28.1-.78,1.07-1.77,1.99-2.71,2.93-.33.33-.82.5-2.06,1.23,10.17-29.43,30.09-50.07,53.32-68.28-10.85,3.88-20.34,10.07-28.43,18.06-8.11,8.01-15.51,16.75-24.04,24.76,3.66-5.62,7.33-11.24,10.99-16.87-.29-.32-.58-.65-.88-.97-24.13,19-45.94,40.71-69.4,60.64,10.53-34.96,32.44-61.79,60.45-84.32-30.49,13.49-48.25,38.92-63.95,66.86,1.39-4.58,2.46-9.29,4.24-13.71,1.85-4.6,4.38-8.93,7.14-14.44-15.31,6.74-25.1,18.27-34.82,29.97-9.75,11.74-18.22,24.12-20.78,39.75-.51-.16-1.02-.31-1.53-.47.82-5.27,1.35-10.6,2.51-15.79,3.65-16.28,11.95-30.28,22.06-43.28,6.07-7.82,10.8-16.24,14.67-25.39,7.75-18.33,21.58-30.98,39.63-38.97,6.27-2.78,11.39-6.61,15.63-11.99,12.1-15.36,28.19-25.14,46.03-32.41,1.17-.48,2.25-1.14,3.38-1.72-.15-.43-.3-.87-.45-1.3-8.22,2.41-16.45,4.81-24.39,7.14,2.9-10.97,34.13-25.6,57.29-22.71-2.73,2.22-4.7,4.02-6.86,5.55-10.78,7.67-21.34,15.71-27.8,27.55-3.35,6.14-5.31,13.04-8.15,20.25,9.04-1,11.42-3.11,13.36-10.12,3.2-11.55,10.83-20.03,20.56-26.13,7.95-4.98,16.95-8.29,25.5-12.28,2.54-1.18,5.16-2.18,7.75-3.26-.16-.42-.32-.84-.49-1.27-1.2.21-2.4.43-4.28.76.7-1.55,1.17-2.61,2.26-5.02-4.16,1.4-7.36,2.49-10.71,3.62,3.62-23.57,46.24-42.78,79.79-35.34-7.69,3.22-11.35,10.36-20.23,10.61-13.99.39-26.89,5.18-38.04,14.12,10.71-5.31,22.01-7.34,33.82-6.19,6.85.67,13.7,1.73,17.82,8.34.68,1.09,1.15,2.3,2.02,4.1-26.96,6.3-53.66,12.51-68.08,39.95,2.99-1.93,6.23-3.57,8.94-5.84,10.99-9.24,23.03-16.56,37.14-19.7,4.93-1.1,10.22-.98,15.31-.72,2.22.11,4.35,1.98,6.33,3.67-13.16,3.82-25.94,7.27-36.03,16.82ZM189.52,100.06c-11.39,2.3-31.75,18.95-32.86,30.56,11.24-10.45,22.16-20.6,32.86-30.56Z"/>
  <path class="cls-2" d="M479.2,222.86c-12.13,10.87-7.35,39.8,10.34,45.75,8.64,2.9,14.49.47,17.77-9.63-7.69,7.25-14.84,6.18-21.85.64-8.42-6.64-12.14-15.39-10.69-25.96,1.17-8.49,8.82-13.2,17.31-11.65,10.79,1.97,21.34,15.15,19.86,25.38-.92,6.37.32,13.31,1.8,19.71,1.7,7.34,6.79,12.58,13.99,15.18,7.44,2.68,13.54-.64,16.2-8.39-8.5,5.22-13.29,4.68-20.72-2.42-5.21-4.98-8.61-11.05-9.89-18.11-1.39-7.61,2.37-14.04,9.66-17.3,6.6-2.95,13.34-1.69,17.78,4.53,3.31,4.62,5.37,10.13,7.97,15.22.17-.23.86-1.05,1.44-1.94,5.54-8.55,14.56-8.77,20.07,0,2.88,4.58,4.52,9.93,6.84,15.19,1.28-.68,2.85-1.84,4.61-2.35,1.68-.49,3.56-.3,6.54-.48-8.02,7.15-8.59,20.17-2.65,28.17-1.12-5.2-2.35-10.86-3.57-16.53.44-.1.88-.19,1.32-.29.24,1.05.48,2.11.95,4.16.31-1.36.31-1.92.56-2.32,1.09-1.75,2.26-3.45,3.4-5.17,1.27,1.53,3.59,3.03,3.65,4.61.33,9.27.15,18.55.08,27.83,0,.56-.57,1.12-1.49,2.81-4.78-8.95-9.15-17.14-13.72-25.69-.67,1.54-1.28,3.02-1.96,4.47-2.52,5.43-6.15,6.48-11.29,3.31-7.1-4.37-13.36-15.35-14.11-24.73-2.93,8.45-1.7,14.59,5.34,24.9-53.34-15.52-106.56-28.47-162.23-31.37,7.12-19.47,4.61-37.45-6.02-55.44,31.94,2.21,62.68,7.12,92.69,17.91ZM421.46,226.06c-.54,2.51-1.44,5.01-1.56,7.54-.52,11.19,7.06,22.29,18.09,26.86,12.36,5.12,26.32-3.77,27.19-17.31-8.83,11.46-14.74,14.12-24.42,10.97-11.75-3.83-17.89-13.18-19.3-28.05ZM429.9,229.84c5.11-6.17,11-6.13,17.32-3.59,6.19,2.48,9.8,7.28,11.9,14.54,2.21-11.72-5.24-22-15.53-23.06-7.76-.79-13.54,3.94-13.7,12.11ZM567.73,258.94c-3.78,1.85-7.29,2.45-8.71,4.51-2.39,3.45,1.89,13.4,7.53,16.73-2.17-6.2-3.9-11.18-5.92-16.95,7.78,3.17,9.03,9.47,10.9,15.46.21-7.79,1.25-15.8-4.29-22.29-1.51-1.76-4.95-3.67-6.61-3.07-2.34.85-4.59,3.72-5.49,6.23-.93,2.62-.21,5.83-.21,8.78,1.25-4.29.29-9.67,5.82-11.25,1.94-.55,4.53,1.14,6.97,1.85ZM539.47,264.25c1.14-6.46-.11-11.35-3.68-14.99-1.77-1.8-5.3-2.82-7.86-2.55-1.55.17-3.85,3.49-3.84,5.4,0,2.41,2.01,4.81,3.15,7.22.43-.2.85-.39,1.28-.59-.58-2.06-1.17-4.12-1.86-6.57,8.81-.75,10.1,5.66,12.82,12.09ZM504.36,238.39c-1.2-7.31-7.53-12.97-13.66-12.7-4.76.21-9.24,4.65-9.52,9.42,8.01-6.73,14.57-5.91,23.18,3.28ZM499.27,250.57c2.27-3.76,2.27-7.7.12-10.07-2.77-3.05-9.89-4.86-12.65-2.9-.97.69-1.24,2.36-1.84,3.58,1.11.26,2.37,1,3.31.71,3.88-1.19,6.41.43,8.32,3.53,1,1.62,1.8,3.37,2.75,5.16ZM542.26,252.2c-1.17-7.11-6.11-12.54-11.77-12.7-4.59-.13-7.7,1.91-9.24,7.04,8.74-6.7,12.85-5.48,21.01,5.66ZM446.21,244.13c4.32-.76,5.46-1.74,5.13-4.71-.53-4.78-6.91-9.88-11.71-8.66-2.05.52-3.6,2.99-5.37,4.57.32.25.64.49.96.74,1.71-3.02,4.61-3.89,7.54-2.53,2.51,1.17,4.95,3.16,6.44,5.43.51.77-1.98,3.5-2.99,5.16ZM585.89,291.3c.88.03,1.77.07,2.65.1.21-3.36.41-6.72.62-10.08-.83-.04-1.67-.08-2.5-.12-.26,3.37-.51,6.74-.77,10.1ZM520.5,257.15c.72,6.28,3.19,11.2,8.82,13.99-2.87-4.55-5.78-9.17-8.82-13.99Z"/>
  <path class="cls-2" d="M150.61,265.16c-1.13-6.35.6-12.01,4.59-17.28v6.35c3.23-2.85,5.77-5.66,8.84-7.67,5.76-3.76,10.69-1.6,12.38,5.1.44,1.76.48,3.62.69,5.37,3.34-8.2-1.32-21.07-10.7-20.76,5.39-3.52,11.13-2.97,14.12,2.88,2.7,5.29,4.13,11.48,4.92,17.43,1.47,10.99,11.73,17.15,21.96,12.52,10.92-4.94,17.01-16.17,15.62-29.79-1,8.49-5.69,14.4-12.39,19.08-6.76,4.72-12.29,5.51-17.55,2.11-5.43-3.51-8.74-12.34-7.15-19.06,2.45-10.37,11.85-18.43,22.58-18.49,3.17-.02,6.36,2.07,9.31,3.11-.16-.35-.65-1.45-1.22-2.7,27.57-8.33,55.36-15.11,84.77-17.84-10.58,17.39-14.67,35.13-7.59,55.13-42.36,4.85-84.24,11.64-125.2,23.72,7.3-7.18,14.76-13.93,13.08-25.58-.4.91-.63,1.94-1.22,2.7-3.18,4.16-5.82,9.04-9.81,12.21-8.3,6.6-14.9,4.52-20.06-5.26v-3.29ZM193.69,250.46c1.3,7.24,6.49,9.18,12.11,4.53,1.96-2.06,3.92-4.12,5.87-6.18,5.46-7.07,5.81-14.51.75-18.59-3.87-3.12-8.07-4.39-12.84-1.76-5.01,2.77-7.85,7.33-7.29,12.41.36,3.27.97,6.52,1.46,9.78l-.06-.19ZM273.94,230.81c-1.25,10.61-7.24,17.61-16.53,21.59-3.83,1.64-8.57,2.73-12.54,2.03-4.05-.71-8.39-3.23-11.24-6.24-2.61-2.75-3.4-7.23-5.05-11.07.67,4.58,1,9.25,2.09,13.73,1.57,6.43,8.54,11.75,14.98,12.05,15.72.73,31.08-16.45,28.29-32.08ZM260.35,243.21c6.13-5.31,8.2-13.19,5.35-18.5-2.76-5.15-9.43-7.84-15.96-6.42-8.04,1.74-12.27,6.8-12.75,14.79,3.39-2.24,6.8-5.12,10.71-6.92,5.14-2.37,11.79-.79,14.68,2.94,3.55,4.58,1.24,8.75-1.31,12.81-.26.42-.48.87-.72,1.3ZM172.22,254.09c-.92-.76-2.54-3.12-4.51-3.47-3.26-.58-8.44,4.38-7.49,6.96.9,2.46,2.83,5.39,5.05,6.29,2.77,1.13,7.03-4.29,6.96-9.78ZM242.64,240.43c2.18-1.48,4.49-4.26,6.93-4.37,2.53-.11,5.17,2.37,8.41,4.05,1.74-1.33,2.34-2.97,1.09-5.44-1.73-3.41-6.92-5.22-10.85-3.79-4.15,1.51-6.29,5.54-5.58,9.54ZM171.69,267.98c-13.12,3.61-14.9,1.96-13.82-11.9-3.24,5.16-2.59,11.97,1.43,15.05,3.67,2.81,7.87,1.88,12.39-3.15Z"/>
  <path class="cls-2" d="M362.97,182.66c-2.35-4.37,1.61-2.13,2.48-2.07,13.45.95,26.93,1.74,40.34,3.19,47.19,5.09,93.44,14.44,137.8,31.83,17.83,6.99,34.67,15.89,47.49,30.42,4.78,5.42,7.81,12.59,10.69,19.36,1.18,2.78-.14,6.63-.98,10.1-3.39-15.31-14.72-23.43-26.77-30.63-21.64-12.92-45.28-20.96-69.52-27.28-38.91-10.14-78.37-17.32-118.45-20.81-4.95-.43-8.96-1.69-12.31-5.42-1.62-1.81-3.85-3.07-5.79-4.58-1.65-1.36-3.31-2.73-4.96-4.11Z"/>
  <path class="cls-2" d="M362.97,182.66c1.66,1.37,3.32,2.74,4.96,4.11,4.76,5.29,9.96,10.28,14.18,15.99,3.59,4.87,6.82,10.3,8.86,15.97,4.9,13.57-.84,26.56-14.39,31.71-7.34,2.79-15.42,3.66-23.19,5.28-1.74.36-3.58.24-5.99.38.3,6.31.45,12.24.96,18.15.12,1.36,1.46,2.61,2.24,3.91l-.1-.16c.8,6.17-2.89,9.18-9.09,7.1-2.76-.93-5.24-2.66-7.8-3.99,3.32-8.67,3.04-9.38-4.64-14.45-3.5-2.31-6.92-4.74-11.52-7.9,11.91-.23,20.87,7.53,23.79,18.58,2.3-3.07.58-6.69.77-10.07.21-3.61.66-7.2,1.04-11.13-3.86-.45-7.76-.4-11.37-1.42-6.98-1.97-14.2-3.74-20.59-7.01-14.2-7.27-17.77-20-10.02-34,6.44-11.66,15.45-21.17,25.99-29.28,3.82-2.93,7.59-5.94,11.29-9.02,5.47-4.55,10.33-4.25,15.47.54,2.74,2.56,6.06,4.49,9.12,6.71ZM349.58,250.96c.49.11,1.57.62,2.58.52,10.98-1.11,21.27-4.3,29.85-11.46,4.86-4.06,7.11-9.34,5.87-16.02-2.01-10.82-8.75-18.53-16.3-25.69-6.52-6.19-13.5-11.9-19.99-18.12-3.65-3.5-6.87-3.43-10.49-.36-8.51,7.22-17.13,14.31-25.52,21.67-5.71,5.01-10.16,10.98-12.24,18.5-2.69,9.74.58,19.23,9.71,23.19,8.15,3.53,17.05,5.34,25.66,7.75,1.32.37,2.89-.17,5.52-.38-2.85-1.94-4.63-2.89-6.1-4.2-4.82-4.32-9.66-8.65-14.17-13.29-.88-.91-.34-3.2-.45-4.86,1.63.29,3.64.08,4.79.98,2.06,1.61,3.62,3.88,5.35,5.9,2.33,2.71,4.63,5.44,6.94,8.15l1.33-.46c-.53-9.48-1.07-18.96-1.66-29.52-2.02,1.15-3.23,1.74-4.35,2.49-7.16,4.8-14.01,10.17-21.54,14.29-7,3.83-10.04,1.43-9.87-6.76.04-2.1.4-4.54,1.53-6.2,3.06-4.49,6.02-9.36,10.1-12.79,7.87-6.64,16.58-12.27,24.74-18.58,3.31-2.56,5.85-2.92,9.02.16,2.24,2.18,5.09,3.74,7.71,5.51,11.03,7.42,20.96,15.91,27.39,27.85,1.81,3.36,2,6.29-.77,9.59-2.83,3.38-5.86,3.14-8.83,1.34-8.44-5.12-16.69-10.58-25.18-16.01v31.02c1.82-2,3.24-3.58,4.7-5.14,3.28-3.52,6.46-7.14,9.93-10.46.81-.78,2.59-.54,3.92-.77.03,1.4.37,2.89,0,4.17-.35,1.2-1.29,2.36-2.25,3.22-5.52,4.91-11.12,9.72-16.95,14.79ZM350.16,208.2c1.75.76,3.23,1.1,4.35,1.94,5.59,4.17,11,8.58,16.64,12.68,2.57,1.87,5.51,3.24,9.54,5.55-.54-3.46-.28-5.71-1.23-7.18-3.84-5.96-7.6-12.06-12.24-17.36-4.47-5.11-14.38-2.1-17.05,4.38ZM340.61,207.08c-1.74-1.34-4.05-2.89-6.1-4.73-3.75-3.35-7.39-2.98-10.46.55-4.45,5.12-8.74,10.41-12.65,15.94-1.39,1.96-1.48,4.84-2.55,8.66,3.3-1.44,5.44-1.96,7.09-3.16,5.24-3.81,10.22-7.98,15.47-11.79,2.69-1.96,5.73-3.44,9.2-5.48ZM357.44,196.68c-4.2-3.22-8.17-6.25-12.47-9.55-3.4,2.73-6.65,5.35-10.45,8.4,3.4,3.03,6.05,5.39,8.09,7.21,5.37-2.19,9.99-4.07,14.83-6.05Z"/>
  <path class="cls-2" d="M86.96,277.1c-4.21-7.18-2.11-13.57,2.21-19.53,10.46-14.4,24.68-24.08,40.49-31.67,41.66-19.99,85.77-31.73,131.31-38.27,21.72-3.12,43.59-5.24,65.57-7.13-8.36,7.63-15.03,15.95-28.07,17.31-51.8,5.38-102.84,15.16-151.66,33.92-14.21,5.46-27.58,13.2-41.12,20.29-3.75,1.96-6.92,5.18-10.03,8.15-4.78,4.57-8.55,9.81-8.71,16.91Z"/>
  <path class="cls-2" d="M353.6,12.59c2.49,53.43,1.41,106.13.06,158.05h-15.46c-.03-.28-.29-1.52-.29-2.76-.07-49.77-.06-99.55-.25-149.32-.02-4.83,1.46-6.63,6.28-6.05,2.93.36,5.94.07,9.66.07Z"/>
  <path class="cls-2" d="M101.87,610.38v-16.6c-5.39,10.56-3.69,20.36-3.54,30.15-6.04-8.06-8.16-17.56-6.13-26.91,1.96-9.01,6.55-17.45,9.98-26.15-4.71.74-13.65,12.86-15.33,23.2-1.51,9.32-1.2,18.93-1.63,27.23-4.29-5.4-5.37-14.36-3.41-30.17-1.09,1.98-2.38,3.87-3.23,5.95-4.8,11.75-2.49,23.21,1.65,34.56.97,2.66,2.38,5.22,2.87,7.96.34,1.94-.53,4.09-1.01,7.08-9.57-6.33-13.17-14.88-15.19-24.04-3.02-13.71-1.17-26.95,6.55-38.87,3.69-5.7,7.89-11.17,12.44-16.21,7.59-8.39,15.64-16.36,23.51-24.48,1.04-1.07,2.16-2.09,3.33-3.02,6.2-4.93,6.43-4.87,10.8,1.67.92,1.39,1.65,3.05,2.9,4.04,5.47,4.35,3.96,8.75,1,13.87-6.32,10.94-12.5,21.99-18.14,33.29-2.76,5.55-4.18,11.76-6.21,17.68-.4-.08-.8-.16-1.21-.24Z"/>
  <path class="cls-2" d="M93.53,329.05c-1.26-2.79.04-5.93,2.84-7.92,6.59-4.7,13.23-9.43,20.32-13.29,33.77-18.42,70.66-27.34,108.08-34.14,21.93-3.98,44.11-6.57,66.15-9.96,4.32-.66,7.3.28,9.58,4.17,1.21,2.07,3.27,3.64,5.81,6.36-7.44.8-13.94,1.55-20.44,2.19-50.93,5.02-100.76,15.25-148.87,32.81-14.73,5.38-28.66,12.97-43.46,19.78Z"/>
  <path class="cls-2" d="M382.62,274.31c4.5-8.36,9.59-11.74,19.04-10.92,41.81,3.6,82.9,10.9,123.24,22.26,15.82,4.45,31.38,10.06,46.66,16.14,6.3,2.51,11.86,7.28,17.2,11.69,3.71,3.06,5.7,7.53,4.75,13.18-1.07-.43-1.78-.52-2.21-.91-13.32-12.26-30.18-17.4-46.75-22.85-44.37-14.58-90.09-22.58-136.51-26.83-8.24-.75-16.51-1.15-25.42-1.75Z"/>
  <path class="cls-2" d="M593.22,643.67c-3.81-5.92-4.99-10.91-2.23-17.35,7.24-16.85,3.15-40.12-9.35-53.51,6.9,17.18,8.98,33.37,1.68,49.71.97-10.36,1.14-20.62-3.19-30.52-.1,9.99,0,19.99-4.55,30.38-.41-1.6-.72-2.24-.72-2.87.14-14.53-4.06-27.87-10.82-40.59-4.77-8.97-9.35-18.03-13.88-27.12-2.59-5.19,4.39-17.36,10.12-17.78.74-.06,1.62.39,2.29.82,1.39.9,2.9,1.75,4,2.95,14.94,16.28,28.64,33.54,35.7,54.79,6,18.07,2.71,35.12-9.05,51.09Z"/>
  <path class="cls-2" d="M498.34,716.27c10.4,1.16,19.21-3.05,27.27-9.46,1.07-.85,2.77-1.39,4.14-1.32,10.8.57,20.26-2.82,29.67-10.47-.97,3.9-1.61,6.49-2.25,9.07,18.36-19.09,22.37-41.84,16.49-67.11.43-.11.86-.21,1.28-.32,1.38,1.49,2.97,2.83,4.11,4.48,12.79,18.52,10.02,37.59,1.22,56.43-6.65,14.24-18.04,23.76-32.91,28.83-12.66,4.32-25.64,7.51-39.14,6.48-10.35-.79-13.39-6.03-9.88-16.6Z"/>
  <path class="cls-2" d="M114.28,474.98c7.07,6.09,15.82,10.68,17.59,20.97,6.37-2.75,7.48-9.91,2.65-14.42-1.78-1.66-4.18-2.66-6.31-3.96-9.03-5.51-16.38-12.46-19.88-22.83-2.71-8.04-5.57-16.04-8.37-24.05-2.17-6.21-2.14-9.78.17-13.72,3.24,9.42,6.48,18.85,9.73,28.28,1.47-5.84,1.39-11.61,7.22-16.36,0,2.18.03,3.51,0,4.84-.11,4.33-.47,8.66-.33,12.97.32,10.07,5.44,17.11,14.06,22.08,3.06,1.77,5.52,4.55,8.37,6.73,1.09.83,2.7,1.96,3.7,1.68,1.07-.3,2.5-2.24,2.36-3.27-.34-2.66-.9-5.63-2.38-7.76-6.14-8.8-6.12-21.11,1.07-30.91.78,3.82,1.52,7,2.07,10.2,2,11.64,3.68,23.34,5.99,34.92,1.53,7.66,3.89,15.15,5.95,22.7,2.84,10.36-2.98,17.55-13.73,16.78-7.02-.5-12.76-3.74-15.66-10.04-2.74-5.95-4.58-12.42-6.03-18.84-1.03-4.56-1.45-9.03-5.59-12.12-1.19-.89-1.8-2.56-2.67-3.87Z"/>
  <path class="cls-2" d="M142.25,572.88c-2.92,9.08-5.83,18.16-8.75,27.24.44.21.89.41,1.33.62,1.49-1.67,2.98-3.33,4.9-5.48.17,1.5.28,2.44.42,3.74,2.51-5.47,4.83-10.54,7.15-15.61.35.12.71.24,1.06.36-.89,5.43-1.77,10.87-2.78,17.05,2.14-1.11,3.61-1.87,5.85-3.03-9.36,25.9-22.14,49.86-25.58,76.91-.47.05-.93.11-1.4.16-1.2-5.22-2.65-10.39-3.51-15.66-.89-5.41-1.2-10.91-1.94-16.32-2.53,18.29-.97,35.69,10.78,51.43-1.47-1.25-3.12-2.34-4.38-3.77-14.81-16.72-20.1-35.79-13.41-57.45,6.52-21.11,15.88-40.93,28.3-59.25.35-.52.86-.93,1.3-1.39.22.15.43.3.65.45Z"/>
  <path class="cls-2" d="M158.15,329.6c8.58-2.89,11.75-12.37,20.36-14.75-.55,8.82-2.03,17.05-6.63,24.36-12.01,19.03-40.09,26.68-59.03,15.98-2.99-1.69-5.76-4-8.11-6.51-7.51-8.03-8.78-8.44-18.3-4.27,3.4-6.07,8.13-8.87,15.4-8.2,7.92.73,16,1.06,23.9.34,13-1.18,22.58-8.91,31.08-18.21,1.72-1.89,3.76-3.68,6.01-4.81,1.12-.56,3.68,0,4.43.96.72.93.52,3.43-.27,4.52-2.61,3.59-5.66,6.85-8.84,10.59ZM168.9,334.94c-20.58,13.19-40.71,18.67-63.22,6.11,3.89,11.7,14.89,18.84,26.93,17.67,15.55-1.51,27.35-9.41,36.29-23.78Z"/>
  <path class="cls-2" d="M601.37,348.01c-10.01-8.14-20.11-8.06-30.62-4.62-19.79,6.48-37.2,1.28-52.47-11.64-4.04-3.41-6.3-9.07-8.86-13.97-.62-1.18.84-3.45,1.34-5.22,1.55.86,3.45,1.41,4.58,2.65,3.75,4.14,7.22,8.53,11.38,12.28-2.54-4.32-5.27-8.55-7.5-13.03-.65-1.31-.49-4.03.42-4.84,1.04-.92,3.54-.98,5.04-.41,2.09.79,3.97,2.35,5.71,3.84,4.04,3.46,7.9,7.12,11.89,10.64,8.89,7.84,19.36,11.41,31.13,11.42,2.5,0,4.99.05,7.49.02,9.1-.1,16.03,3.42,20.46,12.87Z"/>
  <path class="cls-2" d="M267.18,183.92c2.18-7.22,6.35-11.87,12.12-14.78,5.32-2.68,10.96-4.86,16.65-6.67,13.17-4.19,25.61-9.33,34.12-23.16.34,4.64.63,7.57.75,10.51.31,7.66.35,15.33.89,22.97.3,4.24-1.4,5.52-5.35,5.69-11.81.51-23.62,1.11-35.41,2.03-5.96.46-11.86,1.67-17.78,2.53-1.75.26-3.51.51-5.99.88Z"/>
  <path class="cls-2" d="M551.53,622.09c-4.01-17.09-8.02-34.18-12.29-52.4,13.08,22.29,23.82,44.35,26.81,69.33,1.74,14.51-1.19,28.2-9.26,40.57-4.05,6.21-9.19,11.26-16.35,14.54,15.17-18.72,17.25-39.75,11.69-62.16-.2-3.3-.4-6.59-.59-9.89Z"/>
  <path class="cls-2" d="M551.53,622.09c.2,3.3.4,6.59.59,9.89,2.38,13.52-.68,26.4-4.37,38.72-3.19-13.01-6.68-26.3-9.67-39.71-2.99-13.41-8.61-26.3-8.19-41.25,1.91,2.58,3.39,4.59,4.87,6.59.31-.08.62-.16.93-.24-1-5.01-2-10.02-3-15.04.49-.2.98-.4,1.47-.6,4.19,9.23,8.5,18.4,12.5,27.72,1.94,4.51,3.26,9.28,4.87,13.93Z"/>
  <path class="cls-2" d="M439.77,370.94c17.48-8.71,35.71-17.86,56.91-9.52,3.81,1.5,7.33,3.79,10.88,5.89,2.78,1.63,2.59,3.87.96,6.35-3.57,5.44-8.9,7.45-16.7,5.79-6.01-1.28-11.86-3.39-17.91-4.31-11.45-1.73-22.98-2.86-34.13-4.2Z"/>
  <path class="cls-2" d="M248.58,372.88c-5.61.33-11.3.19-16.82,1.1-8.83,1.46-17.63,3.29-26.29,5.57-8.78,2.32-15.63.03-21.32-6.82-3.39-4.07-3.4-5.02,1.24-7.4,12.18-6.23,24.93-8.37,38.09-3.76,8.58,3,16.89,6.76,25.32,10.17-.07.38-.15.75-.22,1.13Z"/>
  <path class="cls-2" d="M680.63,209.87c-2.22,8.92-9.13,15.03-22.26,21.63,2.3-.22,4.61-.44,6.91-.66.12.51.23,1.01.35,1.52-3.64.87-7.26,2.37-10.92,2.47-7.64.2-14.16-3.37-20.09-7.81-10.75-8.06-17.35-18.91-21.43-33.07,2.11,1.61,3.15,2.49,4.26,3.24,8.52,5.73,16.61,12.31,25.7,16.95,12.37,6.32,25.21,7.71,37.47-4.26Z"/>
  <path class="cls-2" d="M19.07,230.84h8.42c-9-3.61-20.3-3.52-22.96-16.9,15.07,11.1,29.04,5.86,42.28-2.21,9.87-6.01,18.93-13.36,27.82-19.73-2.59,20.02-37.32,50.93-55.56,38.84Z"/>
  <path class="cls-2" d="M160.09,621.25c-1.62,4.48-3.59,8.88-4.79,13.47-2.73,10.43-5.63,20.86-7.44,31.47-2.07,12.13,2.01,22.97,9.34,32.66.99,1.31,1.89,2.68,2.93,4.16-6.72.74-18.3-17.41-22.2-28.6-7.17-20.58,7.94-48.9,20.06-60.49-4.64,9.59-9.28,19.18-13.92,28.77.36.18.71.37,1.07.55,4.34-7.66,8.69-15.32,13.03-22.99.64.33,1.29.66,1.93.99Z"/>
  <path class="cls-2" d="M85.37,554.21c-12.42-8.57-17.07-26.57-10.06-41.15,6.51-13.54,18.95-22.32,28.13-33.77.51.24,1.03.48,1.54.72-.48,2.45-.61,5.04-1.5,7.33-2.29,5.85-4.69,11.69-7.46,17.33-6.28,12.79-6.88,14.86-8.11,33.89-4.59-11.83-3.3-23.12,3.74-34.1-10.27,7.22-12.85,27.61-6.28,49.76Z"/>
  <path class="cls-2" d="M63.45,390.86c9.33-3.36,14.97-10.59,21.32-16.87,6.11-6.04,12.82-11.12,21.98-9.26,4.01.81,7.68,3.3,11.51,5.02-2.51,3.33-4.39,7.59-7.65,9.83-12.68,8.69-26.82,13.09-42.38,11.96-1.6-.12-3.19-.45-4.78-.68Z"/>
  <path class="cls-2" d="M515.18,696.82c15.17-23.85,11.16-47.51,2.65-71.31-.71-1.97-1.49-3.91-2.23-5.87.46-.23.93-.47,1.39-.7,3.76,6.67,7.51,13.34,11.27,20l.74-.23c-3.27-8.39-6.55-16.78-9.82-25.17,14.63,15.22,20.83,33.13,16.6,53.99-2.5,12.32-7.59,23.19-20.59,29.29Z"/>
  <path class="cls-2" d="M215.62,400.51c7.43,15.18,16.92,21.97,27.96,20.03,12.27-2.16,21.13-11.21,22.62-23.12,9.74,3.31,12.98,10.95,8.25,20.02-.68,1.3-2.35,2.58-3.77,2.9-13.66,3.08-27.37,6.02-41.48,3.21-10.28-2.04-16.1-7.55-16.83-16.38-.19-2.29,1.02-4.7,1.58-7.06.56.13,1.11.27,1.67.4Z"/>
  <path class="cls-2" d="M619.53,392.19c-3.84-.33-7.85-.05-11.48-1.11-9.88-2.88-19.87-5.71-29.26-9.83-4.52-1.98-8.05-6.6-11.54-10.46-2.55-2.81-1.26-5.16,2.32-6.21,9.46-2.78,17.37.25,24.25,6.67,2.43,2.26,4.6,4.82,6.73,7.37,5.11,6.1,11.2,10.66,19.33,12.18-.12.46-.25.92-.37,1.39Z"/>
  <path class="cls-2" d="M279.99,390.54c-27.29-12.8-53.63-10.79-79.35,4.34-3.72,2.19-7.56,4.23-11.54,5.9-2.59,1.09-5.51,1.38-8.36,1.35,11.11-6.77,21.66-14.77,33.43-20.04,21.92-9.8,43.46-7.57,63.41,6.38.88.62,1.65,1.41,2.4,2.07Z"/>
  <path class="cls-2" d="M104.51,394.63c11.99-7.03,23.08-13.53,34.34-20.13,1.14,13.31-17.1,24.27-34.34,20.13Z"/>
  <path class="cls-2" d="M580.89,390.78c-12.43,5.48-32.76-5.13-32.66-19.87,10.95,6.66,21.38,13.01,32.66,19.87Z"/>
  <path class="cls-2" d="M350.61,278.16c-1-5.48,1.3-9.4,5.9-12.1,5.99-3.51,12.05-6.91,18.88-9.51-1.63,1.55-3.11,3.31-4.92,4.61-4.46,3.2-9.19,6.03-13.6,9.3-4.8,3.57-4.74,5.46-.31,9.18,2.98,2.5,2.88,5.24-.29,7.77-5.04,4.01-19.35,4.05-24.19-.31-1.4-1.26-1.72-3.72-1.89-5.86,6.85,7.26,19.01,7.96,23.7.94-1.11-1.35-2.25-2.75-3.4-4.16,0-.01.09.15.09.15Z"/>
  <path class="cls-2" d="M586.34,332.34c-2.57-5.55-6.44-4.94-11.07-4.31-5.81.8-11.94.94-17.69-.04-5.07-.87-8.66-4.86-10.59-10.27,9.28,6.78,19.41,4.79,29.47,3.8,7.89-.78,10.31,1.78,9.88,10.81Z"/>
  <path class="cls-2" d="M150.61,265.16v3.29c.26,3.34.52,6.69.78,10.03-.47.12-.94.23-1.41.35-.6-1.82-1.19-3.65-1.81-5.54-3.84,4.74-7.73,9.54-11.63,14.35,5.24-9.89,9.83-19.52,4.03-30.59-2.01-3.84-5.07-6.71-10.51-5.11,6.36-4.04,12.39-2.44,15.89,3.97,1.66,3.02,3.11,6.16,4.66,9.25Z"/>
  <path class="cls-2" d="M255.16,406.14c.96,7.01-5.11,12.58-12.89,13.3-6.99.65-18.55-7.1-16.55-16.16,8.75,11.97,19.08,8.72,29.44,2.86Z"/>
  <path class="cls-2" d="M134.63,417.73c-2.11-4.98-4.23-9.95-6.56-15.43,10.4-2.05,17.2-8.73,22.73-18.36,1.41,5.59.13,9.47-2.57,12.94-1.21,1.56-2.69,3.06-4.35,4.09-6.21,3.86-8.13,9.76-7.91,16.8-.45-.01-.9-.02-1.35-.04Z"/>
  <path class="cls-2" d="M563.23,401.06c-2.74,5.04-4.98,9.17-7.22,13.31h-1.21c-.41-7.77-5.35-11.62-11.26-15.33-5.15-3.23-5.95-9.33-6.4-15.33,5.39,10.44,14.19,15.62,26.09,17.34Z"/>
  <path class="cls-2" d="M386.11,33.5c-6.95,1.4-13.88,2.92-20.87,4.08-1.05.17-3.07-1.1-3.45-2.14-1.05-2.88-1.46-5.98-2.38-10.12,9.74,2.4,18.42,4.54,27.11,6.68-.14.5-.28,1-.41,1.51Z"/>
  <path class="cls-2" d="M127.74,274.48c1.31,2.2,2.05,3.46,3.06,5.15,5.16-2.15,7.49-5.56,6.39-11.09,5.84-4.52,1.6-8.1-1.01-11.83.35-.21.7-.42,1.05-.63,1.32,2.38,3.11,4.61,3.86,7.15,2,6.7-2.71,18.71-8.76,22.42-1.62,1-4.92,1.9-5.64,1.14-1.32-1.39-1.78-4.09-1.67-6.19.1-1.8,1.5-3.52,2.72-6.13Z"/>
  <path class="cls-2" d="M389.51,366.01c2.46-9.86,10.13-15.58,20.3-15.15-2.54,7.8-13.55,16.02-20.3,15.15Z"/>
  <path class="cls-2" d="M124.92,271.87c-.54,2.59-1.83,5.29-1.46,7.74.64,4.32,2.3,8.49,3.87,13.88-2.27-1.62-4.84-2.67-6.22-4.58-5.45-7.53-4.55-21.77,1.91-30.27-.84,2.41-1.54,4.23-2.1,6.1-.48,1.62,2.1,6.09,4.07,7.25l-.08-.13Z"/>
  <path class="cls-2" d="M585.75,547.76c-5.29-11.66-10.58-23.31-15.87-34.97.55-.25,1.1-.5,1.65-.75,8,10.45,13.95,21.85,16.03,35.04-.6.23-1.2.45-1.8.68Z"/>
  <path class="cls-2" d="M115.64,513.99c-2.63,13.25-10.16,23.69-18.91,33.43-.49-.28-.99-.56-1.48-.84,6.28-11.12,12.56-22.23,18.83-33.35l1.56.76Z"/>
  <path class="cls-2" d="M107.79,265.67c10.31,3.95,12.23,20.99-1.06,33.75,2.83-10.99,8.08-21.83,1.06-33.75Z"/>
  <path class="cls-2" d="M114.79,325.35h27.31c-4.55,8.3-20.46,8.57-27.31,0Z"/>
  <path class="cls-2" d="M284.81,353.66c8.27-.31,15.99,4.41,18.39,10.55.37.95.46,2.55-.09,3.17-.58.65-2.34,1.01-3.12.6-2.29-1.21-4.62-2.59-6.45-4.39-2.9-2.86-5.42-6.11-8.74-9.93Z"/>
  <path class="cls-2" d="M246.08,398.62c-2.94-2.63-4.8-4.3-6.66-5.97,1.78-1.59,3.53-4.37,5.35-4.42,1.74-.05,4.13,2.48,5.07,4.43.44.9-1.9,3.14-3.76,5.96Z"/>
  <path class="cls-2" d="M287.54,364.93c-4.37-5.11-7.91-9.25-11.01-12.88,5.5-1.54,10.42,2.85,11.01,12.88Z"/>
  <path class="cls-2" d="M100.94,304.38c-4.07-3.03-5.34-6.17-1.72-10.1.92,3.25,6.21,5.58,1.72,10.1Z"/>
  <path class="cls-2" d="M125,271.99c1-5.55,5.33-8.11,9.03-11.23.45.42.9.85,1.36,1.27-3.49,3.27-6.99,6.54-10.47,9.82.01.01.09.14.09.14Z"/>
  <path class="cls-1" d="M511.22,404.39c-9.1,6.86-19.34,14.59-29.59,22.32,4.42,3.9,4.14,7.23-1.15,10.45-6.91,4.21-14.62,5.71-22.56,4.98-13.09-1.2-25.21-5.72-36.75-12.25,4.79.4,9.57.84,14.36,1.19,11.88.86,23.63.47,35.1-3.25,7.18-2.33,13.26-6.2,17.9-12.16,1.23-1.58,1.98-3.54,2.08-5.98-.79.44-1.69.74-2.34,1.33-14.97,13.38-32.44,16.6-51.73,13.16-8.34-1.49-16.75-2.8-25.19-3.48-4.39-.35-8.89.94-13.35,1.31-6.01.5-7.51-1.53-4.98-6.9,12.77-27.11,34.17-38.43,68.8-31.7,9.74,1.89,18.82,7.29,28.12,11.28,7.54,3.24,14.94,6.79,21.29,9.69ZM475.09,397.25c-4.42,14.18-13.32,22.7-28.07,21.88-11.45-.64-20.08-10.42-23.15-24.45-3.69,2.85-7.27,5.16-10.29,8.06-4.89,4.7-2.38,15.03,4.26,16.53,12.13,2.74,24.37,5.93,36.94,4.2,5.65-.77,11.44-2.48,16.51-5.04,7.84-3.97,9.78-14.87,3.8-21.18ZM434.38,403.42c-1.19,7.74,3.47,12.96,12.13,14.58,7.8,1.46,16.01-3.75,17.89-12.13-10.57,6.06-20.49,6.32-30.03-2.46ZM449.05,398.16c2.2-3.27,4.26-5.03,4.54-7.04.44-3.12-2.15-4.16-4.97-3.95-2.94.22-5.61,1.55-4.99,4.78.35,1.83,2.73,3.26,5.42,6.22ZM404.79,416.32l.72-1.48c-1.48-.75-3.48-2.5-4.34-2.06-2.43,1.25-4.4,3.41-6.56,5.21.38.51.75,1.01,1.13,1.52,3.02-1.06,6.03-2.13,9.05-3.19Z"/>
  <path class="cls-1" d="M306.64,509.44c-2.11,4.83-5.08,9.91-6.55,15.39-1.92,7.15,1.38,10.83,8.73,10.67,5.83-.13,10.81,1.7,15.15,5.4,7.89,6.71,17.16,9.07,27.07,7.31,4.84-.86,9.86-3.06,13.8-5.99,5.73-4.26,11.32-7.93,18.64-8.81,5.74-.69,8.01-3.79,6.46-9.49-1.44-5.29-4.23-10.21-6.37-15.18.19.06,1.22.13,1.84.67,7.71,6.71,9.66,17.97,4.68,26.9-5.61,10.07-12.49,18.9-23.62,23.36-4.61,1.85-6.36,5.06-6.47,10.04-.08,3.52-.97,7.36-2.66,10.43-2.79,5.08-7,9.39-13.41,8.9-6.57-.5-11.3-4.21-14.24-10.29-.65-1.35-2.53-2.23-4-3.04-2.43-1.34-5.44-1.95-7.42-3.73-11.1-9.99-18.23-22.42-21.07-37.11-1.95-10.1,2.55-21.1,9.43-25.44ZM356.21,554.6h-22.17c6.07,4.44,15.81,4.57,22.17,0Z"/>
  <path class="cls-1" d="M294.68,617.55c-2.19-.34-3.91-.35-5.45-.88-4.13-1.42-7.97-1.56-11.99.67-1.51.83-3.77.3-5.69.4.3-2.01.18-4.21.99-5.99,2.58-5.69,4.93-6.08,10.7-4.72,2.64.62,6.09-.84,8.81-2.13,8.41-3.99,16.66-8.35,24.96-12.57,6.1-3.1,11.84-3.49,17.75.91,5.73,4.26,11.64,4.6,17.95.09,6.35-4.54,13.73-4.06,20.56-1.07,6.68,2.93,12.96,6.75,19.42,10.18,5.17,2.74,9.75,6.77,16.59,3.46,3.65-1.76,11.02,5.51,10.02,9.49-.24.97-3.61,2.33-4.41,1.8-4.44-2.94-8.75-1.39-13.38-.98-5.03.45-10.4-.03-15.27-1.38-8.34-2.32-16.39-2.32-24.58.13-11.48,3.42-22.84,4.08-34.2-.81-7.2-3.09-14.44-.71-21.58.82-3.9.83-7.77,1.79-11.2,2.59ZM390.02,609.63c-4.74-6.79-10.69-11.59-18.01-14.59-5.56-2.28-11.14-2.47-16.21,1.08-7.8,5.46-15.14,4.93-23.25.25-3.21-1.85-8.53-2.68-11.76-1.31-7.49,3.18-14.3,7.99-22.05,12.53,1.52.7,1.8.96,2.06.93,1.32-.12,2.64-.27,3.95-.47,11.24-1.7,22.26-2.68,33.53,1.11,4.81,1.61,10.95,1.03,16.02-.32,8.1-2.16,15.93-2.99,24.1-1.06,3.81.9,7.74,1.25,11.61,1.85Z"/>
  <path class="cls-1" d="M384.26,662.78c-13.84-5.16-28.16-5.84-42.67-5.66-14.7.19-28.53,3.44-41.51,10.61-.31-.63-.63-1.27-.94-1.9,6.66-4.35,13.32-8.71,20.07-13.13-11.23-4.36-19.34-12.63-24.56-24.16,2.68,1.49,5.48,2.81,8.03,4.51,7.25,4.83,15.21,6.28,23.78,5.92,12.13-.51,24.26-.85,36.4-.91,8.19-.04,15.86-1.47,22.9-5.82,2.22-1.37,4.59-2.49,8.13-4.39-5.78,11.87-14.67,18.26-24.88,23.2,5.44,3.57,10.63,6.97,15.82,10.38-.2.45-.39.91-.59,1.36Z"/>
  <path class="cls-1" d="M503.42,110.44c-3.82-3.72-8.51-6.88-11.31-11.25-12.81-20.01-28.83-36.55-49.64-48.2-4.12-2.3-8.55-4.04-12.88-6.06,35.29,1.52,73.79,44.63,75.07,64.16-.42.45-.83.9-1.25,1.34Z"/>
  <path class="cls-1" d="M531.62,119.62c-8.92-11.29-17.89-22.65-25.85-32.72,10.64,3.16,26.57,22.3,25.85,32.72Z"/>
  <path class="cls-1" d="M189.52,100.06c-10.7,9.95-21.62,20.1-32.86,30.56,1.11-11.6,21.47-28.26,32.86-30.56Z"/>
  <path class="cls-1" d="M421.46,226.06c1.41,14.87,7.55,24.23,19.3,28.05,9.68,3.15,15.58.5,24.42-10.97-.87,13.55-14.83,22.43-27.19,17.31-11.03-4.57-18.61-15.67-18.09-26.86.12-2.53,1.02-5.02,1.56-7.54Z"/>
  <path class="cls-1" d="M429.9,229.84c.15-8.17,5.93-12.9,13.7-12.11,10.29,1.05,17.74,11.34,15.53,23.06-2.1-7.26-5.71-12.06-11.9-14.54-6.32-2.54-12.21-2.57-17.32,3.59Z"/>
  <path class="cls-1" d="M567.73,258.94c-2.45-.71-5.03-2.4-6.97-1.85-5.53,1.58-4.57,6.96-5.82,11.25,0-2.95-.72-6.16.21-8.78.89-2.5,3.15-5.37,5.49-6.23,1.66-.61,5.11,1.3,6.61,3.07,5.54,6.49,4.51,14.49,4.29,22.29-1.87-5.99-3.12-12.29-10.9-15.46,2.01,5.77,3.75,10.74,5.92,16.95-5.64-3.33-9.92-13.28-7.53-16.73,1.42-2.05,4.94-2.66,8.71-4.51Z"/>
  <path class="cls-1" d="M539.47,264.25c-2.73-6.42-4.02-12.84-12.82-12.09.69,2.45,1.28,4.51,1.86,6.57-.43.2-.85.39-1.28.59-1.14-2.41-3.14-4.81-3.15-7.22,0-1.9,2.3-5.23,3.84-5.4,2.56-.27,6.09.75,7.86,2.55,3.57,3.64,4.83,8.54,3.68,14.99Z"/>
  <path class="cls-1" d="M504.36,238.39c-8.62-9.19-15.17-10.02-23.18-3.28.28-4.77,4.76-9.21,9.52-9.42,6.13-.27,12.47,5.38,13.66,12.7Z"/>
  <path class="cls-1" d="M499.27,250.57c-.94-1.79-1.74-3.53-2.75-5.16-1.91-3.1-4.44-4.72-8.32-3.53-.94.29-2.2-.44-3.31-.71.59-1.22.87-2.9,1.84-3.58,2.76-1.96,9.88-.15,12.65,2.9,2.16,2.37,2.15,6.32-.12,10.07Z"/>
  <path class="cls-1" d="M542.26,252.2c-8.15-11.14-12.27-12.36-21.01-5.66,1.54-5.14,4.65-7.18,9.24-7.04,5.66.17,10.59,5.59,11.77,12.7Z"/>
  <path class="cls-1" d="M446.21,244.13c1.01-1.65,3.49-4.39,2.99-5.16-1.49-2.27-3.93-4.27-6.44-5.43-2.93-1.36-5.83-.49-7.54,2.53-.32-.25-.64-.49-.96-.74,1.78-1.58,3.33-4.05,5.37-4.57,4.8-1.22,11.18,3.89,11.71,8.66.33,2.97-.8,3.95-5.13,4.71Z"/>
  <path class="cls-1" d="M585.89,291.3c.26-3.37.51-6.74.77-10.1.83.04,1.67.08,2.5.12-.21,3.36-.41,6.72-.62,10.08-.88-.03-1.77-.07-2.65-.1Z"/>
  <path class="cls-1" d="M520.5,257.15c3.04,4.83,5.95,9.45,8.82,13.99-5.63-2.79-8.1-7.71-8.82-13.99Z"/>
  <path class="cls-1" d="M273.94,230.81c2.78,15.64-12.58,32.82-28.29,32.08-6.44-.3-13.42-5.63-14.98-12.05-1.09-4.48-1.42-9.15-2.09-13.73,1.65,3.84,2.44,8.31,5.05,11.07,2.85,3.01,7.19,5.53,11.24,6.24,3.97.7,8.71-.39,12.54-2.03,9.29-3.98,15.28-10.98,16.53-21.59Z"/>
  <path class="cls-1" d="M260.35,243.21c.24-.44.46-.88.72-1.3,2.54-4.06,4.86-8.23,1.31-12.81-2.89-3.73-9.54-5.3-14.68-2.94-3.91,1.8-7.32,4.68-10.71,6.92.49-8,4.72-13.06,12.75-14.79,6.53-1.41,13.2,1.27,15.96,6.42,2.84,5.31.78,13.19-5.35,18.5Z"/>
  <path class="cls-2" d="M211.67,248.81c-1.96,2.06-3.92,4.12-5.87,6.18-5.14,1.42-9.49.76-12.11-4.53,0,0,.06.19.06.19-.95-7.29,6.94-15.98,14.32-15.28,1.55.15,3.93,2.25,4.13,3.71.44,3.16-.28,6.48-.53,9.73ZM198.89,245.28l1.42.8c2.59-.18,5.21-.22,7.77-.62,1.29-.2,2.47-1.06,3.7-1.62-.64-1.27-.99-3.26-1.99-3.66-1.81-.74-4.47-1.37-5.93-.54-2.06,1.17-3.35,3.69-4.97,5.64Z"/>
  <path class="cls-1" d="M211.67,248.81c.25-3.25.97-6.57.53-9.73-.2-1.45-2.58-3.56-4.13-3.71-7.38-.7-15.26,7.98-14.32,15.28-.5-3.26-1.1-6.51-1.46-9.78-.56-5.08,2.28-9.64,7.29-12.41,4.77-2.63,8.97-1.36,12.84,1.76,5.06,4.08,4.7,11.52-.75,18.59Z"/>
  <path class="cls-1" d="M172.22,254.09c.07,5.5-4.18,10.92-6.96,9.78-2.22-.91-4.15-3.84-5.05-6.29-.94-2.58,4.23-7.55,7.49-6.96,1.97.35,3.59,2.72,4.51,3.47Z"/>
  <path class="cls-1" d="M242.64,240.43c-.71-4,1.43-8.03,5.58-9.54,3.93-1.43,9.12.38,10.85,3.79,1.25,2.47.65,4.1-1.09,5.44-3.24-1.68-5.88-4.16-8.41-4.05-2.43.11-4.75,2.89-6.93,4.37Z"/>
  <path class="cls-1" d="M171.69,267.98c-4.52,5.02-8.72,5.96-12.39,3.15-4.02-3.07-4.66-9.89-1.43-15.05-1.08,13.86.7,15.51,13.82,11.9Z"/>
  <path class="cls-1" d="M193.69,250.46c2.62,5.29,6.97,5.96,12.11,4.53-5.61,4.65-10.81,2.7-12.11-4.53Z"/>
  <path class="cls-1" d="M349.58,250.96c5.83-5.07,11.43-9.88,16.95-14.79.97-.86,1.91-2.02,2.25-3.22.37-1.28.03-2.77,0-4.17-1.33.23-3.11,0-3.92.77-3.47,3.32-6.65,6.94-9.93,10.46-1.45,1.56-2.88,3.15-4.7,5.14v-31.02c8.49,5.43,16.73,10.88,25.18,16.01,2.97,1.8,5.99,2.04,8.83-1.34,2.77-3.3,2.58-6.23.77-9.59-6.43-11.94-16.36-20.43-27.39-27.85-2.62-1.77-5.47-3.33-7.71-5.51-3.17-3.08-5.71-2.73-9.02-.16-8.16,6.31-16.87,11.94-24.74,18.58-4.08,3.44-7.04,8.3-10.1,12.79-1.13,1.66-1.49,4.1-1.53,6.2-.17,8.2,2.87,10.59,9.87,6.76,7.53-4.12,14.37-9.49,21.54-14.29,1.12-.75,2.33-1.34,4.35-2.49.59,10.56,1.13,20.04,1.66,29.52l-1.33.46c-2.31-2.72-4.61-5.45-6.94-8.15-1.74-2.02-3.29-4.29-5.35-5.9-1.15-.9-3.17-.69-4.79-.98.11,1.66-.43,3.95.45,4.86,4.51,4.64,9.35,8.97,14.17,13.29,1.46,1.31,3.25,2.26,6.1,4.2-2.63.21-4.2.75-5.52.38-8.61-2.4-17.52-4.21-25.66-7.75-9.13-3.96-12.4-13.44-9.71-23.19,2.07-7.52,6.53-13.49,12.24-18.5,8.38-7.36,17.01-14.46,25.52-21.67,3.62-3.07,6.84-3.14,10.49.36,6.49,6.22,13.46,11.93,19.99,18.12,7.55,7.16,14.29,14.87,16.3,25.69,1.24,6.68-1,11.97-5.87,16.02-8.58,7.16-18.87,10.35-29.85,11.46-1.02.1-2.09-.41-2.58-.52Z"/>
  <path class="cls-1" d="M350.16,208.2c2.67-6.48,12.58-9.49,17.05-4.38,4.64,5.31,8.41,11.41,12.24,17.36.95,1.47.69,3.72,1.23,7.18-4.02-2.31-6.96-3.68-9.54-5.55-5.64-4.1-11.05-8.51-16.64-12.68-1.12-.83-2.6-1.18-4.35-1.94Z"/>
  <path class="cls-1" d="M340.61,207.08c-3.47,2.04-6.51,3.53-9.2,5.48-5.24,3.81-10.22,7.98-15.47,11.79-1.65,1.2-3.79,1.72-7.09,3.16,1.07-3.82,1.16-6.7,2.55-8.66,3.92-5.53,8.2-10.82,12.65-15.94,3.07-3.53,6.71-3.91,10.46-.55,2.05,1.84,4.35,3.39,6.1,4.73Z"/>
  <path class="cls-1" d="M357.44,196.68c-4.85,1.98-9.46,3.86-14.83,6.05-2.04-1.82-4.69-4.18-8.09-7.21,3.8-3.05,7.06-5.67,10.45-8.4,4.31,3.3,8.27,6.34,12.47,9.55Z"/>
  <path class="cls-1" d="M168.9,334.94c-8.93,14.37-20.73,22.27-36.29,23.78-12.04,1.17-23.05-5.97-26.93-17.67,22.51,12.56,42.64,7.08,63.22-6.11Z"/>
  <path class="cls-2" d="M475.09,397.25c5.98,6.32,4.05,17.21-3.8,21.18-5.07,2.57-10.86,4.27-16.51,5.04-12.56,1.72-24.81-1.46-36.94-4.2-6.64-1.5-9.15-11.83-4.26-16.53,3.01-2.9,6.6-5.21,10.29-8.06,3.06,14.02,11.7,23.81,23.15,24.45,14.75.82,23.65-7.7,28.07-21.88Z"/>
  <path class="cls-2" d="M434.38,403.42c9.53,8.78,19.46,8.52,30.03,2.46-1.89,8.38-10.09,13.58-17.89,12.13-8.67-1.62-13.33-6.84-12.13-14.58Z"/>
  <path class="cls-2" d="M449.05,398.16c-2.69-2.96-5.06-4.39-5.42-6.22-.63-3.23,2.05-4.56,4.99-4.78,2.82-.21,5.41.83,4.97,3.95-.28,2.01-2.34,3.77-4.54,7.04Z"/>
  <path class="cls-2" d="M404.79,416.32c-3.02,1.06-6.03,2.13-9.05,3.19-.38-.51-.75-1.01-1.13-1.52,2.15-1.8,4.12-3.96,6.56-5.21.87-.44,2.86,1.31,4.34,2.06l-.72,1.48Z"/>
  <path class="cls-2" d="M356.21,554.6c-6.36,4.57-16.1,4.44-22.17,0h22.17Z"/>
  <path class="cls-2" d="M390.02,609.63c-3.88-.6-7.81-.95-11.61-1.85-8.18-1.93-16-1.1-24.1,1.06-5.07,1.35-11.21,1.93-16.02.32-11.27-3.79-22.3-2.81-33.53-1.11-1.31.2-2.63.36-3.95.47-.26.02-.54-.23-2.06-.93,7.75-4.54,14.56-9.35,22.05-12.53,3.23-1.37,8.56-.54,11.76,1.31,8.11,4.68,15.46,5.21,23.25-.25,5.06-3.55,10.65-3.36,16.21-1.08,7.32,3,13.27,7.8,18.01,14.59Z"/>
  <path class="cls-1" d="M198.89,245.28c1.62-1.95,2.91-4.47,4.97-5.64,1.46-.82,4.12-.2,5.93.54.99.41,1.34,2.39,1.99,3.66-1.23.56-2.41,1.42-3.7,1.62-2.56.4-5.17.43-7.77.62l-1.42-.8Z"/>
</svg>