<?xml version="1.0" encoding="UTF-8"?>
<svg id="Layer_1" data-name="Layer 1" xmlns="http://www.w3.org/2000/svg" viewBox="0 0 801.35 968.68">
  <defs>
    <style>
      .cls-1 {
        fill: #000;
      }

      .cls-1, .cls-2 {
        stroke-width: 0px;
      }

      .cls-2 {
        fill: #fff;
      }
    </style>
  </defs>
  <path class="cls-1" d="M746.78,322.87c2.69,7.81,5.06,14.93,7.59,21.99,2.88,8.02,6.79,14.12,16.97,14.59,9.17.42,13.09,9.61,9.44,19.39-5.86,15.7-23.65,24.12-39.78,18.75-3.53-1.17-6.97-2.62-11.79-4.45,2.52,18.23,4.37,35.55,7.59,52.61,1.08,5.72,4.92,11.41,8.82,15.97,5.13,5.99,13.55,6.67,19.63,3.08,6.19-3.65,7.13-9.88,2.1-14.92-2.36-2.37-4.97-4.47-7.96-7.13,8.35-5.87,16.79-7.68,26.01-4.7,9.26,2.98,13.95,9.97,15.43,19.16,2.19,13.61-2.67,24.89-12.64,33.94-11.95,10.85-26.18,16.18-42.32,15.72-4.4-.13-8.76-1.66-13.39-2.59-1.51,5.72,0,10.27,5.05,13.97,1.92,1.4,4.61,5.02,4.1,5.84-1.45,2.31-4.28,4.97-6.75,5.16-3.83.28-8.46-.35-11.6-2.38-10.88-7.03-14.65-21.5-7.57-32.41,16.85-26,10.79-51.21-1.82-76.03-6.68-13.14-19.11-18.34-34.66-19.9,6.93,5.86,12.91,10.91,18.77,15.86-13.44-4.15-26.92-8.31-42.05-12.99,1,3.75,1.27,6.61,2.49,9,4.58,8.97,13.23,12.93,21.64,17.3,5.81,3.02,11.3,6.66,16.81,10.21,1.95,1.25,3.56,3.04,5.54,4.78-11.11-5.54-21.55-10.96-32.17-15.98-8.65-4.09-16.41-9.16-22.25-16.89-1.19-1.57-2.69-2.91-4.04-4.35-.47.29-.93.57-1.4.86,1.23,2.6,2.23,5.34,3.73,7.77,7.11,11.47,17.3,18.99,29.78,24.03,7.05,2.85,14.17,6.31,20.12,10.95,10.33,8.06,12.54,20.13,12.87,32.5.13,5.07-.06,10.18-.52,15.24-1.62,18.01,7.74,30.82,19.78,42.39,2.85,2.74,5.98,5.18,8.89,7.85,33.79,30.97,33.26,83.28-1.29,113.32-2.79,2.43-3,4.66-3.1,8.11-.27,9.16-1.72,18.28-2.39,27.44-.13,1.75.76,4.91,1.79,5.2,16.46,4.5,22.45,23.48,18.88,40.57-8.39,40.17-52.3,53.91-81.78,38.54-3.9-2.03-7.19-5.25-11.26-8.29-.57,3.23-.98,6.35-1.68,9.4-2.59,11.17-4.69,22.49-8.12,33.4-3.11,9.91-8.93,18.09-19.44,22.13-2.37.91-4.15,4.18-5.52,6.73-6.03,11.19-15.09,19.15-26.12,25.02-10.2,5.43-17.05,6.18-24.62-2.97-.68-.83-1.79-1.3-3.33-2.38-1.27,2.23-2.5,4.21-3.56,6.27-6.13,12.05-12.9,23.6-25.84,29.6-3.68,1.71-7.88,2.25-11.68,3.73-1.74.68-3.71,2.01-4.52,3.59-1.95,3.83-2.91,8.17-4.91,11.97-16.87,32.13-54.22,45.04-87.43,30.06-4.03-1.82-5.75.07-8.2,2.21-20.16,17.57-43.05,22.83-68.18,13.25-6.46-2.46-11.77-8.34-17.09-13.21-2.27-2.08-3.68-3.58-7.07-2.63-25.5,7.13-45.35-2.06-61.18-21.89-2.86-3.58-5.57-5.62-10.44-6.18-13.42-1.52-26.31-5.61-34.02-17.53-4.42-6.84-9.15-11.13-16.9-14.19-12.93-5.11-17.43-22.4-11.04-36.52.77-1.7,1.68-3.35,2.83-5.62-40.66-4.63-54.99-32.65-60.54-66.9-9.22,3.58-18.28,8.35-27.93,10.59-20.9,4.87-42.41-4.35-52.99-20.59-12.96-19.9-10.57-55.43,22.57-63.48-2.43-5.51-4.92-10.91-7.2-16.4-14.53-34.9-7.68-69.57,18.72-96.91,5.49-5.68,10.06-12.25,15.06-18.4-.5-.54-.99-1.08-1.49-1.62-3.06,1.18-6.1,2.45-9.2,3.54-11.04,3.88-22.91.84-29.22-7.44-4.13-5.43-3.59-8.88,2.13-12.24,5.94-3.49,4.17-9.33,5.23-14.43-21.54,4.91-41.51,3.01-59.06-10.19-12.7-9.55-18.27-22.82-15.33-38.81,3.31-18.04,25.07-26.97,40.67-14.89-2.97,2.28-6.03,4.12-8.44,6.6-3.79,3.89-4.82,8.52-1.54,13.33,3.28,4.81,8.15,4.6,12.69,2.85,11.09-4.28,16.46-13.28,18.51-24.46,1.39-7.59,2.08-15.3,3.47-22.89,2.26-12.32,6.37-24,12.93-34.75,1.06-1.74,2-3.57,2.33-6.22-3.3,1.75-6.57,3.56-9.91,5.24-17.17,8.63-36.19,5.12-46.32-8.67-1.75-2.39-3.24-5.13-4.18-7.94-2.64-7.86.78-14.82,8.5-17.76,1.92-.73,3.97-1.19,6-1.55,10.71-1.94,10.98-1.88,12.62-13,1.7-11.54,2.69-23.19,4.26-34.75.55-4.08,1.68-8.12,2.96-12.04,2.84-8.73,7.39-15.82,17.48-16.3-2-6.68-4.63-12.93-5.59-19.42-.95-6.38-.21-13-.21-20.35-.83-.15-2.98-.56-5.13-.96-19.81-3.65-32.91-15.22-38.93-34.26-4.79-15.17,1.93-26.77,17.51-29.19,11.8-1.84,19-8.39,24.11-18.18,3.13-6,5.8-12.25,8.42-18.5,2.77-6.62,6.73-11.49,14.25-13.12,7.41-1.61,12.45-6.78,16.5-12.91,7.53-11.38,11.24-24.03,13.48-37.42,1.39-8.27,3.48-16.71,6.98-24.28,8-17.3,28.27-20.3,41.62-6.62,2.69,2.76,4.8,2.92,8.36,1.85,10.74-3.23,19.22-9.07,26.82-17.49,18.23-20.2,40.87-27.2,67.58-19.97,3.01.81,6.64.15,9.81-.57,10.62-2.44,21.06-5.89,31.78-7.63,7.81-1.27,14.14-4.05,19.96-9.31,20.45-18.48,44.35-21.1,69.66-13.23,7.14,2.22,13.4,7.41,19.87,11.53,2.74,1.74,4.65,2.62,8.03.73,11.02-6.14,22.87-9.41,35.68-9.07,17.71.46,32.2,7.2,42.72,21.55,3.2,4.37,6.89,6.68,12.2,7.99,5.91,1.47,11.34,4.83,17.09,7.08,1.87.73,4.35,1.3,6.12.68,19.38-6.75,36.74-2.18,51.65,10.6,9.35,8.02,17.28,17.77,25.38,27.15,5.8,6.72,5.26,6.57,13.35,2.99,6.1-2.7,12.66-5.13,19.22-5.82,14.25-1.5,24.01,5.99,26.87,20.06,1.95,9.6,5.04,18.51,11.28,26.15,8.31,10.16,18.36,17.11,32.03,17.77,8.45.41,17.16.39,22.41,9.09,5.84,9.69,6.48,19.93,3.36,30.48-3.04,10.3-8.78,18.78-18.45,23.96-3.08,1.65-3.77,3.43-2.91,6.7,2.77,10.53,4.23,21.47,10.76,30.71,6.04,8.56,7.89,9.08,16.95,4.16,16.94-9.2,29.77-2.47,32,16.78,2.92,25.23-10.23,46.79-33.96,55.66-1.56.58-3.13,1.17-4.65,1.74ZM122.2,266.3c-4.65,3.54-7.63,7.98-8.55,14.51,11.03-5.09,14.43-6.73,21.9-3.4,18.11,8.07,35.38,6.09,52.81-1.44,2.74-1.19,5.9-1.46,8.56-2.78,5.18-2.57,10.32-5.32,15.11-8.54,2.28-1.53,3.71-4.32,6.13-7.29-2.39-.19-3.48-.46-4.54-.34-13.62,1.47-27.23,3.14-40.86,4.44-5.55.53-11.23.84-16.74.26-11.01-1.16-21.73-1.34-31.75,4.32,2.73-1.77,5.34-4.75,8.23-5.07,7.91-.86,16.04-1.43,23.9-.54,8.88,1.01,16.88.38,24.78-4.88-5.43-3.84-10.16-7.55-15.24-10.69-8.42-5.2-17.09-7.17-25.26.48-5.73,5.37-11.24,10.97-16.68,16.62-1.01,1.05-1.22,2.86-1.8,4.32ZM183.38,113.24c3.16,1.6,5.12,1.04,7-2.41,8.51-15.6,20.72-28.11,34.3-39.29,7.4-6.09,15.81-10.29,25.71-10.24,9.74.04,17.37,6.81,18.16,14.7-5.69-1.25-11.76-3.78-17.73-3.57-6.44.23-11.74,4.57-15.93,10.23,12.56-1.21,23.54.1,29.59,13.37-3.91,0-7.32-.42-10.57.09-5.31.83-9.27,5.18-8.73,8.83.51,3.45,5.89,6.64,10.78,6.39,15.76-.82,24.83-9.72,26.92-26.39,2.48-19.86-14.18-38.73-33.34-37.69-12.64.69-24.12,4.78-33.22,13.64-7.93,7.71-15.66,15.81-22.29,24.62-6.06,8.04-11.22,17.03-10.44,27.93-10.24-2.19-20.49-4.38-31.22-6.68,3.03,8.86,4.11,9.56,11.98,10.46,4.83.55,9.6,1.67,14.4,2.57,3.02.57,6.03,1.19,9.04,1.79.36-.51.73-1.02,1.09-1.52-1.83-2.27-3.66-4.54-5.48-6.81ZM427.11,63.42c-1.68-1.29-3.47-2.45-5.01-3.88-5.91-5.5-11.49-11.37-17.71-16.49-2.57-2.12-6.34-3.35-9.72-3.82-14.67-2-41.8,15.77-44.11,33.98-.69,5.45.6,9.02,5.42,11.66,11.77,6.43,23.97,2.54,37.59,2.87-8.19-11.45-15.16-21.11-30.17-13.03,2.92-9.69,10.91-15.96,19.85-16.52,10.59-.66,18.81,4.32,26.22,11.13,3.57,3.29,7.03,6.7,9.6,9.16,9.25-6.1,17.54-12.28,26.48-17.26,8.01-4.46,24.74-.38,29.04,6-3.2,3.63-6.58,7.08-9.5,10.89-2.37,3.09-2.32,6.36,1.39,8.67,6.81,4.23,15.58,1.89,19.61-4.99,6.64-11.34-2.15-38.19-20.79-38.7-15.25-.41-26.59,6.75-37.28,16.01-.94.81-.73,2.95-1.05,4.47l.14-.17ZM314.07,457.64s-.07-.03-.07-.03c-.75.5-1.47,1.38-2.24,1.43-12.55.8-25.11,1.47-37.66,2.23-3.16.19-6.32.57-9.48.87l-.17,2.06c8.02,9.47,19.03,11.64,30.68,10.04,11.1-1.52,21.98-4.55,34.15-7.17-18.97,9.13-37.19,14.19-56.99,6.98-3.3-1.2-6.83-1.8-10.25-2.67-.42.66-.85,1.32-1.27,1.98,2.88,3.78,5.76,7.55,9.24,12.12-6.77-3.7-12.64-6.91-18.26-9.98,1.01-.7,3.07-2.12,5.39-3.73-4.92-6.26-9.82-11.74-13.83-17.8-5.77-8.7-5.49-8.88-15.9-6.58-.18.04-.37.07-.55.14-7.62,3.01-14.93,4.55-19.94-5.89-.99,3-1.59,4.54-2,6.12-9.88,38.19,11.53,75.4,49.39,86.02,10.44,2.93,17.2,7.29,9.8,20.93-.18.33-.3.69-.44,1.04-9.98,24.5-18.49,49.29-14.93,75.97,11.34-14.17,21.87-29.41,34.51-42.62,17.93-18.74,37.68-35.73,56.14-53.98,10.18-10.07,22.89-13.33,36.04-16.02,1.25-.26,4.11,1.25,4.11,1.93-.04,9.92-.58,19.83-.68,29.74-.05,4.78-.58,10.03,1.12,14.26,7.75,19.26,32.21,24.65,48.05,11.24,5-4.23,10.42-8,15.88-11.65,1.95-1.3,4.58-2.34,6.85-2.23,5.66.26,11.28,1.24,17.96,2.05-.4.48.4-.13.73-.93,4.9-11.87-5.2-30.71-17.8-33.28-8.12-1.66-14.43,4.22-13.39,12.47.41,3.21.83,6.42,1.43,11.11-8.4-11.09-6.61-21.43,3.39-28.05,5.62-3.72,11.16-4.58,16.63-.07,17.72,14.58,35.56,29.01,52.99,43.93,16.21,13.88,26.87,31.94,34.72,51.38,3.21,7.96,7.99,12.08,15.89,14.37,2.16-6.93,1.45-13.62-.24-20.52-1.74-7.09-3.6-14.38-3.62-21.59-.01-5.01,2.73-10.14,4.76-15,1.17-2.8,3.81-4.97,5.06-7.75,2.94-6.54,4.96-13.68,13.65-14.98.65-.1,1.53-1.2,1.66-1.94.73-4.19,1.27-8.41,1.87-12.63-.44-.42-.89-.84-1.33-1.26-4.55,2.38-9.48,4.24-13.59,7.24-7.97,5.81-9.22,14.86-9.48,25.57-1.2-2.1-1.66-2.65-1.86-3.28-2.71-8.58-5.38-17.18-8.07-25.77-1.98-6.33-.38-10.02,6.37-11.84,39.14-10.53,65.59-66.77,45.19-106.54-2.09,2.87-6.7,4.1-4.43,9.09.17.37-.6,1.34-1.12,1.81-6.32,5.6-12.92,11-22.13,8.41-5.48-1.54-8.42.52-10.92,4.99-2.2,3.94-4.73,7.7-7.31,11.41-1.47,2.12-2.98,4.51-5.06,5.88-18.35,12.08-37.94,12.33-58.59,5.81,7.53.5,14.66,1.6,21.73,1.27,7.07-.33,14.31-1.35,21.05-3.42,8.16-2.51,13.78-8.36,16.03-17.31-6.63,6.34-14.85,5.3-22.58,5.51-12.77.33-25.55.12-38.32-.02-6.73-.07-13.46-.48-20.19-.68-2.92-.09-5.84-.01-8.76-.01,0-.81,0-1.61,0-2.42,5.85,0,11.98-1.15,17.5.21,20.09,4.95,39.63,3.06,58.99-3.14,6.31-2.02,11.76-5.48,14.64-12.43-2.92-.07-5.5.58-7.83,1.72-5.29,2.59-10.46,5.42-15.67,8.15l-.74-1.38c2.84-2.03,5.83-3.89,8.51-6.13,8.94-7.47,8.52-9.72-2.34-13.87-.3-.11-.72.09-1.08.15-6.3,19.56-18.49,26.04-36.73,20.7-4.96-7.15-9.27-13.34-14.28-20.57-3.28,3.04-8.99,5.98-9.02,8.97-.03,3.42,5,6.87,7.74,10.19-1.24.1-3.24.43-5.24.41-5-.05-10.02-.62-14.99-.29-4.63.31-6.49-1.41-4.71-5.77.98-2.4,2.59-4.54,3.92-6.8-1.97.85-3.42,2.04-4.87,3.23-8.73,7.22-8.6,10.78-1.3,19.33,6.89,8.06,12.9,16.88,19.74,25.97-11.5-4.35-20.27-11.2-27.48-22.22-1.6,5.09-2.53,8.05-3.46,11.02-1.55-8.59-2.9-17.08-10.06-24.76-.46,23.77,1.02,46.24-4.86,68.22-.93-9.87-.7-19.72-.98-29.57-.36-12.39-1.2-24.76-1.7-37.14-.18-4.41-.5-8.92.24-13.21.57-3.32-.32-5.07-2.59-7.26-7.86-7.55-17.14-9.5-27.56-7.97-8.97,1.32-14.79,9.68-13.28,18.69.41,2.45.25,5.42-.79,7.62-3.98,8.4-3.98,17.03-2.97,25.98,1.19,10.47,2.07,20.99,2.68,31.51.2,3.54-.83,7.15-1.3,10.73-10.84-14-11.4-30.52-14.33-47-5.68,5.41-10.88,10.36-17.13,16.31v-11c-8.44,4.64-15.83,8.69-23.22,12.75-.37-.59-.74-1.18-1.11-1.76,1.89-1.94,3.91-3.77,5.64-5.85,8.13-9.8,16.85-19.21,24.04-29.66,4.84-7.04,1.39-11.9-7.93-13.26,1.45,2.4,2.87,4.6,4.14,6.88,2.09,3.75.86,5.71-3.36,5.88-9.97.4-19.94.89-29.92,1.08-2.07.04-4.16-1.04-6.24-1.6,6.07,2.2,11.73.47,16.44-3.03,2.54-1.88,4.98-5.72,4.91-8.62-.04-1.84-4.78-3.57-7.49-5.4-1.66,2.78-2.49,4.75-3.82,6.29-3.22,3.7-6.68,7.19-10.04,10.77-7.67,4.1-16.27,4.7-23.69,1.56-9.39-3.98-13.11-13.53-15.61-23.32-4.86,2.21-10.79,3.26-10.99,9.02-.27,7.51,5.77,10.75,12.78,13.01-9.66.98-15.24-5.54-22.79-11.07,1.17,7.25,4.61,10.74,9.28,12.19,10,3.11,20.1,6.28,30.4,7.93,7.43,1.19,15.25-.03,22.89-.17ZM608.84,509.09c-3.14,12.21,4.47,22.2,5.41,33.69-3.53-5.79-6.85-11.22-10.71-17.54-6.13,12.31-2.7,23.87-3.78,35.06-2.5-4.48-1.5-10.47-7.07-14.71v15.52c-1.38-1.83-2.24-2.97-3.11-4.12-.62.2-1.23.39-1.85.59,2.1,10.13,4.21,20.26,6.31,30.39-3.73-6.78-6.28-13.96-9.22-20.97-.77-1.84-2.74-3.17-4.16-4.74-1.6,1.7-3.45,3.23-4.71,5.15-.75,1.15-.82,2.91-.78,4.38.21,7.34.28,14.7.98,22,.3,3.09,2.02,6.05,3.32,9.72,5.25-4.39,8.76-3.27,12.98,0,23.68,18.34,18.74,53.03-.28,67.49-.73.55-1.37,1.22-2.26,2.02,1,.14,1.76.1,2.4.37.63.26,1.14.83,2.08,1.56-6.52,8.24-15.96,11.08-25.33,14.76,18.62,13.52,30.31,29.62,26.71,54.43-.55-3.34-1.01-5.52-1.27-7.73-1.71-14.8-9.36-26.43-19.74-36.49-1.83-1.77-4.62-2.54-6.97-3.77-.36.54-.71,1.09-1.07,1.63,2.4,3.06,4.89,6.05,7.2,9.18,9.61,13.06,12.72,27.92,11.52,43.78-.19,2.56-2.03,5-3.11,7.5-.49-.26-.99-.52-1.48-.78,5.27-25.41-12.72-55.07-27.18-60.34-3.82,10.15-10.61.09-16.1,2.15,7.06,11.82,15.71,22.54,16.85,36.79,1.13,14.09-1,26.92-12.8,37.85,6.92-19.34,8.52-37.89.19-55.93-7.96-17.25-28.52-37.64-41.93-35.05,2.34,5.11,4.72,9.97,6.8,14.95,4.48,10.74,9.42,21.34,12.98,32.39,2.93,9.11,2.47,18.71-2.05,27.52-1.45,2.83-3.87,5.17-6.43,8.49-2.67-4.76-5-8.21-6.63-11.96-9.71-22.34-24.95-38.68-48.69-46.32-11.51-3.71-20.82-10.34-26.2-21.69-1.11-2.34-2.75-4.59-4.61-6.39-1.57-1.51-4.62-3.7-5.61-3.14-1.85,1.06-3.63,3.84-3.78,6.01-1.1,16.31,3.39,30.46,16.74,41.01,3.98,3.14,8.02,6.36,11.3,10.18,3,3.49,5.03,7.82,7.48,11.78-6.7-5.96-11.98-12.98-18.62-18.32-9.39-7.54-15.33-16.71-18.79-28.08-1.51-4.95-4.63-9.4-7.02-14.08-.52,14.33,6.38,28.93-4.99,40.63.9-7.53,2.61-15.52,2.6-23.51-.02-8.08-1.75-16.15-2.8-24.8-1.04.87-1.6,1.13-1.8,1.56-.94,2.05-2.07,4.07-2.62,6.23-3.61,14.26-11.67,25.43-22.93,34.7-8.11,6.68-12.69,15.74-15.34,25.81-.37,1.4-1.02,2.72-1.55,4.08-2.11-10.72,1.01-19.69,8.09-27.11,5.06-5.3,10.64-10.11,16.01-15.12,7.95-7.4,11.49-17.06,13.7-27.31.31-1.44-.94-3.22-1.47-4.84-1.31.66-2.94,1.02-3.87,2.03-5.08,5.53-9.59,11.64-15.06,16.74-4.89,4.57-10.77,8.08-16.21,12.06-.38-.5-.77-1.01-1.15-1.51,11.24-8.11,21.15-17.36,27.11-30.41-10-1.18-15.6.31-18.75,6.6-6.53,13.06-17.35,20.22-30.56,25.04-9.62,3.51-18.67,8.39-25.04,16.76-10.84,14.23-18.16,29.9-18.32,48.24-.01,1.65-.24,3.3-.36,4.94-.35-.02-.71-.04-1.06-.06-1.23-2.42-2.47-4.84-4.33-8.48-2.94,11.22-3.65,21.26-2.19,31.28,2.82,19.36,12.33,34.58,28.07,46.58,7.76,5.91,14.71,13.5,20.21,21.57,5.47,8.03,4.48,17.44-1.79,25.33-6.31,7.94-14.38,11.98-24.84,9.3-1.08-.28-2.25-.18-4.11-.3,4.46,5.49,9.8,6.14,15.34,5.88,18.49-.87,35.13-16.61,37.76-35.43,1.77-12.67-.85-24.58-6.17-36.26,6.62,2.01,14.43,9.47,17.7,19.43,7.26,22.1,6.66,43.18-13.04,61.24,10.48-2.52,18.16-8.96,23.53-18.68,16.09-29.11,10.67-61.81-14.01-84.3-6.26-5.7-12.88-11.04-18.88-17-15.51-15.41-17.23-39.64-4.29-57.32,1.77-2.43,3.92-4.58,5.89-6.86.54,1.54.21,2.38-.2,3.16-13.48,25.72-6.72,49.44,18.19,64.43,6.44,3.88,12.61,8.23,18.91,12.33.96.63,2.03,1.1,4.2,2.26-1.19-5.55-2.13-9.88-3.24-15.05,6.05,10.42,4.1,21.15,4.57,31.63,4.67-7.04,5.97-14.82,5.7-22.95-.41-12.37-6.13-22.68-12.6-32.78-2.91-4.55-5.76-9.4-7.31-14.51-2.41-7.92-.91-15.62,4.08-22.45-3.14,11.18.79,20.51,7.29,29.09,3.63,4.8,7.51,9.44,11.61,13.84,8.62,9.24,9.37,20.09,6.98,31.67-.57,2.75-1.3,5.46-2.21,9.26,15.41-12.97,31.35-23.9,32.18-45.73.72.23,1.43.46,2.15.69-.98,7.9-1.96,15.8-2.85,23.01,12.29-11.53,12.67-26.73,1.16-48.85,3.58,3.05,7.29,6.2,9.5,10.18,8.37,15.08,5.03,35.45-7.55,47.27-4.24,3.98-9.03,7.37-13.57,11.04-11.03,8.92-20.31,19.13-24.04,33.29-5.64,21.38-3.75,41.2,12.92,57.47,2.89,2.82,7.03,4.35,10.6,6.47.24-.48.49-.97.73-1.45-22.74-29.7-1.6-62.21,20.28-67.74-3.57,3.74-6.95,7.02-10.02,10.56-12.92,14.88-15.42,31.35-7.19,49.32,1.49,3.25,3.04,6.5,4.96,9.5,16.95,26.51,44.92,22.39,62.63,3.58,2.76-2.93,3.82-7.69,4.89-11.81.34-1.3-1.54-4.36-2.89-4.69-3.98-.99-5.04-3.45-5.2-6.96-.54-12.11,4.56-21.16,15.05-27.01,24.68-13.75,35.96-34.8,33.24-62.72-.99-10.2-4.37-20.17-6.7-30.23-.38-1.63-1.01-3.19-1.52-4.79,20.41,23.16,25.34,49.69,17.12,80.1,17.87-8.86,27.29-22.88,32.56-39.95,5.19-16.8,4.59-33.81-1.09-51.95,14.92,12.71,23.22,27.14,23.83,45.36.59,17.66-4.64,33.46-16.25,47.18,12.84-5.78,21.31-15.5,27.14-27.92,5.82-12.4,8.23-25.4,7.17-39.12.46-.02.92-.03,1.39-.05,1.35,8.29,2.71,16.57,4.06,24.86l2.37-.41c18.91-44.2,21.17-86.12-18.49-122.53,21.52,11.89,37.68,27.98,44.54,52.45,1.58-3.35,2.68-6.46,3.1-9.66,3.02-23.16-2.08-43.99-17.2-62.31-8.54-10.35-16.2-21.42-24.26-32.17,11.48,2.76,13.02,15.31,22.01,21.14,3.59-7.96,4.39-15.87,2.85-24-2.27-11.94-7.1-22.51-16.35-30.86-5.58-5.03-10.26-10.82-11.39-19.89,5.39,4.59,9.96,8.48,14.53,12.37-5.62-12.06-7.5-24.59-8.77-37.57,4.35,5.2,9.76,5.79,15.63,4.86,5.11-.81,6.12-2.49,3.3-6.64-11.77-17.34-16.19-36.6-15.58-57.29.08-2.78-.68-5.58-1.05-8.37-7.94,9.19-4.87,19.54-4.29,30.95-3.19-4.75-5.59-8.32-7.98-11.88ZM527.53,305.49c-4.5.3-9.12.03-13.46,1.01-23.48,5.31-47.03,10.39-70.27,16.61-24.61,6.58-49.09,9.75-74.09,2.75-14.14-3.96-28.26-7.99-42.42-11.87-19.39-5.31-39-8.14-59.21-6.16-10.04.99-17.06,5.57-22.39,14.07-8.18,13.03-16.94,25.7-25.52,38.48-4.64,6.92-7.94,14.27-7.8,22.84,1.02-.92,1.7-1.98,2.13-3.15,5.68-15.45,19.02-24.03,31.14-33.26,4.64-3.53,11.97-4.07,18.21-4.72,3.36-.35,7.2,1.52,10.47,3.11,7.4,3.59,14.49,7.82,21.88,11.43,4.01,1.96,8.28,2.83,10.15-4.54,7.39,4.48,14.31,8.21,20.74,12.68,8.69,6.04,17.79,10.31,28.58,10.93,3.41.2,6.71,2.18,10.37,3.44-22.28.99-39.41-10.2-56.59-21.67-.3,1.34-.16,2.02.05,2.68,6.18,19.49,21.14,29.55,39.26,35.8,3.23,1.12,7.28-.14,10.37-.27-1.58,2.68-3.66,3.67-9.68,2.3-17.43-3.94-31.87-12.85-43.69-26.33-4.14-4.72-8.98-9.01-14.13-12.6-6.15-4.28-12.95-7.63-19.51-11.31-11.46-6.43-29.63,1.06-31.81,12.57,6.65.82,13.39,1.27,19.98,2.54,19.45,3.75,36.02,13.46,52.28,24.42,12.09,8.15,25.31,14.79,38.51,21.1,9.37,4.48,15.36,2.23,22.21-5.66.51-.59,1.38-1,2.16-1.18,6.63-1.57,8.44-6.3,4.76-12.03-2.29-3.57-4.25-7.36-6.35-11.05.45-.25.91-.51,1.36-.76,3.03,5.23,6.05,10.46,9.08,15.68,4.85-17.95,8.17-35.4-11.43-49.03,12.82,3.99,18.42,10.9,18.9,22.05.18,4.32-.22,8.66-.19,12.99.12,19.11.63,15.4,16.04,15.72,4.83.1,6.02-2.29,6.01-6.67-.02-6.38.06-12.83.93-19.13,1.52-10.98,7.87-18.66,17.92-23.43-8.29,7.84-13.72,17.18-13.86,28.68-.13,11.07,2.8,21.21,12.05,29.54.29-1.63.47-2.15.47-2.68-.18-15.01,5.62-23.46,20.17-26.92,12.37-2.95,23.14-8.79,33.67-15.46,2.92-1.85,6-3.46,9.66-5.56-.2,6.31,2.81,6.79,6.53,5.13,9.59-4.29,19.34-8.35,28.55-13.37,11.05-6.04,23.58-5.68,33.22,2.35,4.33,3.61,8.19,7.79,12.49,11.44,2.08,1.76,4.69,2.89,7.06,4.31.4-.47.79-.94,1.19-1.4-2.68-5.34-5.45-10.65-8.03-16.03-5.29-11.01-11.18-21.81-15.39-33.23-1.74-4.72-.95-11.18.73-16.15,2.19-6.47,6.98-12.02,9.56-18.41,1.31-3.25,1.55-8.15,0-11.12-5.1-9.81-10.62-19.53-17.14-28.42-6.61-9.01-16.29-13.77-27.64-14.48-9.96-.62-19.95-1.81-29.88-1.49-8.92.28-18.57.48-26.49,3.93-11.65,5.08-23.78,2.08-35.56,5.06-10.53,2.66-21.29-11.94-18.7-22.87,3.68-15.52,14.74-24.52,28.93-32.14-4.19,5.98-8.52,10.63-10.98,16.12-2.46,5.49-3.98,11.79-4.18,17.79-.19,5.89.78,12.32,7.07,16.62-2.84-16.06-1.02-22.57,10.02-33.61,3.83-3.83,8.18-7.27,12.73-10.21,9.01-5.83,18.34-11.15,27.48-16.77,1.96-1.21,3.7-2.77,6.93-5.23-16.71-1.69-31.62-3.26-46.54-4.62-1.73-.16-3.88.37-5.3,1.35-13.88,9.62-25.39,21.48-31.45,37.49-4.57,12.06-5.42,23.32,8.66,34.08.47.36.66,1.11,1.96,3.42-5.29-1.38-8.97-2.35-12.67-3.3-1.4-.36-2.83-.96-4.22-.9-4.27.18-8.53.54-12.78,1-2.36.26-4.76.62-7.02,1.33-4.43,1.4-8.66,3.66-13.18,4.53-14.79,2.83-28.27-2.11-41.46-7.97-13.41-5.95-27.11-6.96-40.56-1.07-9.76,4.28-19.03,9.76-28.32,15.04-12.3,6.99-19.43,17.47-22.26,31.57-2.11,10.5,1.6,18.19,7.9,25.68q16.74-16.44,24.08-15.34c-9.45,4.41-19.62,19.33-19.72,28.9,8.71-5.67,16.54-7.58,31.16-8.01,21.13-.62,41.72,3.16,61.87,8.76,32.15,8.94,64.43,11.41,97.21,4.75,18.26-3.71,36.41-7.99,54.7-11.57,10.65-2.09,21.45-4.09,32.36-.89ZM225.52,689.45c-22.27-11.89-29.87-25.13-28.15-48.13,1.5-20.11,12.69-33.75,29.62-44.8.95,2.97,1.64,5.12,2.34,7.29,7.31-5.12,8.99-14.22,4.25-23.04-1.79,1.48-3.55,2.93-5.93,4.89-.53-6.4-.98-11.91-1.52-18.36-11.74,5.84-12.11,17.13-17.53,25.3,1.88-8.47,4.62-16.6,7.16-24.8.72-2.34.84-4.88,1.24-7.32l-2.05-.58c-9.83,7.6-13.52,18.76-16.97,30.3.05-5.11.49-10.11,1.9-14.83,2.31-7.75,5.34-15.28,7.86-22.97.67-2.04.57-4.34.83-6.51-.58-.21-1.17-.42-1.75-.63-3.15,3.43-6.3,6.86-9.45,10.29-.42-.21-.84-.41-1.26-.62.8-4.15,1.54-8.32,2.4-12.46.86-4.14,1.83-8.26,2.75-12.39-.79-.33-1.58-.66-2.37-1-3.22,3.65-6.44,7.29-9.14,10.34,2.04-9.31,4.24-19.35,6.45-29.4-8.44,4.99-9.92,13.21-12.18,20.83-2.78,9.38-6.86,17.9-13.49,25.14-1.35,1.47-2.63,3-4.32,4.95,7.84.89,12.58-3.05,17.7-9.07-.85,2.64-1.45,3.84-1.59,5.08-.56,4.96-2.81,10.87-.92,14.66,1.84,3.69,1.6,6.29,1.32,9.75-.69,8.42-6.57,13.1-12.12,18.2-13.35,12.27-20.3,27.46-19.5,45.69.19,4.38,2.17,8.67,3.33,13.01,2.41-6.04,3.31-11.73,4.42-17.38,2.66-13.6,8.06-25.88,18.09-35.73,1.8-1.76,4.1-3.01,6.18-4.49-7.72,13.63-14.81,26.87-17.61,41.94-.58,3.12-.08,6.44-.08,9.67.36.02.71.05,1.07.07,1.48-3.34,2.97-6.67,4.45-10.01.35.16.69.31,1.04.47-.65,4.54-1.3,9.09-2.09,14.56,3.57-2.27,6.27-3.98,8.97-5.69-9.64,12.86-20.48,24.4-26.02,39.63-5.54,15.21-8.27,30.53-3.72,47.32,4.19-5.57,7.67-10.42,11.39-15.08,6.8-8.53,8.49-9.7,13.51-10.12-12.84,17.2-15.8,36.78-13.28,57.4,1.91,15.68,11.03,26.46,25.06,33.49-7.02-12.29-11.51-25.05-9.01-39.34,2.43-13.88,9.03-25.6,19.29-36.82,0,2.05.14,2.77-.02,3.43-7.34,30.21,1.07,56.45,20.17,79.98,7.93,9.78,8.62,30.56,1.37,40.95-1.95,2.79-3.71,5.72-5.55,8.59.37.34.74.68,1.1,1.02,1.65-1.06,3.4-1.99,4.94-3.19,13.29-10.37,15.55-24.57,13.89-40.15-.45-4.19-.62-8.4-.92-12.61,3.91,7.23,5.78,15.21,11.62,21.2.11-12.32-.81-24.47,5.25-35.86-1.51,20.35,3.71,38.69,14.86,55.55,11.68,17.65,29.21,24.96,49.44,28.21-1.81-2.9-3.91-5.66-6.66-7.32-6.11-3.68-12.81-6.42-18.78-10.3-4.58-2.99-8.4-7.15-12.56-10.78.36-.35.71-.7,1.07-1.05,5.29,3.27,10.58,6.55,15.88,9.82.34-.46.69-.91,1.03-1.37-.93-1.29-1.69-2.76-2.83-3.84-8.87-8.4-13.18-19.16-15.68-30.73-3.55-16.41-2.28-32.55,6.74-46.89,3.52-5.59,5.04-10.68,5.17-17.02.23-10.93,5.5-19.77,13.26-27.21,2.45-2.35,5.27-4.37,7.36-6.98,1.23-1.54,2.04-3.99,1.89-5.95-.61-7.8-1.66-15.57-2.61-23.84-15.28,7.59-19.57,23.14-24.99,37.9-.46-.16-.92-.32-1.38-.48,2.78-10.59,5.56-21.18,8.48-32.26-8.39,3.91-14.42,10.1-17.65,18.27-3.1,7.85-4.77,16.26-6.79,23.46-2.13-15.66,1.54-25.02,18.51-45.62-11.3,6.19-24.97,9.16-29.39,23.95-3.76,12.57-7.58,25-2.08,39.5-8.12-10.02-9.3-20.38-8.54-31.29-.72.03-1.44.05-2.16.08-1.59,6.89-3.17,13.78-4.89,21.25-4.48-18.33,6.47-31.57,14.38-46.01-7.01-.96-13.1-1.16-18.81-2.75-4.78-1.34-8.26-.33-10.94,3.22-2.46,3.26-4.89,6.81-6.21,10.62-5.05,14.59-6.24,29.4-.86,44.27.25.68.17,1.48.32,2.95-5.84-4.55-7.57-10.37-8.33-16.33-2.74-21.46,4.82-39.09,21.36-53.08ZM513.13,125.25c-3.68,6.66-9.33,10.28-16.7,10.89-3.55.29-7.16.25-10.72.05-14.08-.78-26.71-4.62-35.15-17.1-.72-1.06-1.78-2.54-2.81-2.65-8.56-.94-17.18-2.34-25.7-1.95-2.81.13-5.67,4.86-8.05,7.85-11.43,14.36-29.96,13.32-39.92-2.29-1.29-2.03-2.71-4.35-4.67-5.5-4.15-2.43-19.15,1.55-22.61,5.29-3.18,3.44-6.33,7.06-10.07,9.8-15.79,11.56-34.1,10.36-48.43-2.67-1.12-1.02-3.02-1.93-4.41-1.75-7.23.95-14.24,2.71-18.05,9.88-6.32,11.88-16.9,16.97-29.5,19.48-7.69,1.53-14.1-.29-19.95-5.14-4.22-3.5-6.88-3.27-10.06,1.17-1.4,1.96-2.37,4.28-3.27,6.54-4.42,11.12-12.2,19.34-23.27,23.28-9.83,3.5-17.72,9.74-26.22,15.2-1.64,1.05-3.01,2.52-4.65,3.93,4.03,4.64,7.25,2.12,10.3,0,27.25-18.95,57.63-31.06,89.35-39.79,50.23-13.83,101.53-19.88,153.62-19.51,74.38.53,147.3,8.43,215.8,40.54,26.15,12.25,48.97,28.63,68.01,50.33,1.32,1.5,3.15,2.56,4.75,3.82.51-.3,1.02-.6,1.52-.91-1.01-7-1.5-14.13-3.2-20.96-1.12-4.49-4.97-6.83-10.02-6.49-11.96.8-23.23-8.42-22.2-20.16.65-7.41-3.27-9.53-7.66-12.61-2.33-1.63-4.07-1.57-6.41.46-7.06,6.13-12.12,6.29-19.77.8-8.23-5.91-14.65-13.4-19.41-22.43-1.28-2.43-3.69-4.73-6.15-6-16.14-8.36-33.55-13.06-51.13-17.18-2.97-.7-6.01-1.08-9.01-1.6,12.02,16.28,25.33,27.83,46.39,13.94-5.86,8.75-13.07,11.62-22.76,9.26-10.37-2.52-17.89-8.58-23.65-17.11-4.25-6.28-9.82-9.46-17.45-9.71-3.29-.11-6.52-1.59-9.82-2.16-8.73-1.52-17.5-2.88-27.23-4.46,1.81,9.4,8.51,7,13.46,8.22-5.38,3.52-12.15,2.44-14.97-3.46-2.23-4.68-5.56-5-9.44-5.57-2.98-.44-5.99-.72-8.92-1.36-1.33-.29-2.51-1.29-3.76-1.97,1.55-1.14,2.65-1.21,3.73-1.13,54.19,3.72,106.67,14.72,155.82,38.49,23.63,11.43,45.67,25.62,63.51,45.35,7.1,7.85,13.73,16.12,20.12,23.67-1.82-3.55-3.74-8.19-6.41-12.36-14.48-22.72-34.54-39.56-57.33-53.36-32.77-19.84-68.45-31.53-105.91-38.91-47.14-9.29-94.65-13.52-142.61-13.04-37.78.38-75.13,5.14-112.14,12.47-36.5,7.23-72.27,17.08-103.74,37.84-12.95,8.55-24.62,19.05-36.78,28.78-1.44,1.15-2.3,3.03-3.43,4.57,2.2-.13,3.36-1.21,4.65-2.1,14.53-10.02,28.12-22.03,43.86-29.53,21.81-10.39,45.06-17.96,68.04-25.69,27.46-9.24,56.4-11.43,84.85-15.82.9-.14,1.9.34,4.39.83-6.01,2.39-10.64,3.94-15.01,6.04-4.3,2.07-8.34,4.68-12.5,7.05-.22-.41-.44-.83-.67-1.24,2.95-1.79,5.89-3.59,8.84-5.38-.15-.35-.3-.71-.46-1.06-9.95,1.59-19.91,3.18-29.86,4.77-.16.75-.31,1.5-.47,2.24,3.82,2.07,7.42,5.24,11.49,6.01,15.4,2.91,30.49,1.41,40.32-12.19,4.92-6.81,10.43-7.97,17.39-8.32,5.08-.26,10.15-.69,15.22-.96,2.05-.11,4.1-.02,6.15-.02,0,.34,0,.69,0,1.03-2.02.63-4.03,1.27-6.08,1.91,4.48,10.73,10.83,15.11,21.3,15.02,8.57-.07,16.9-6.61,20.9-16.61-1.79-.31-3.52-.62-3.76-.66,8.73,0,18.91-.32,29.04.2,2.9.15,6.37,2.1,8.4,4.31,9.33,10.13,20.22,16.36,34.29,17.44,10.71.83,20.05-1.65,28.82-7.84ZM700.07,300.83c-4.37-6.76-9.45-10.7-16.79-9.68-5.34.74-10.79,1.89-15.73,3.95-14.22,5.92-26.91,4.84-39.87-4.3-8.29-5.84-18.46-9.01-27.78-13.38,5.54,8.52,11.09,16.39,17.54,23.42,9.36,10.21,21.27,15.85,35.29,16.95-.97.44-1.87.59-2.77.65-13.29.92-23.47-5.33-32.68-14.02-5.05-4.77-10.12-9.59-15.67-13.73-3.02-2.25-7.06-3.13-10.64-4.62-.42.46-.85.92-1.27,1.39,7.31,8.66,6.42,18.55,5.47,28.63-.8,8.48,1.44,16.63,6.12,23.65,2.72,4.07,6.96,7.11,10.52,10.62l1.43-1.37c-4.89-6.42-11.23-12.03-12.26-19.14,6.62,6.07,12.99,14.24,21.31,19,13.17,7.54,26.49,14.15,32.82,29.37.43-.3.85-.61,1.28-.91-2.35-7.15-4.71-14.3-7.06-21.45,2.38,3.61,4.43,7.46,5.95,11.52,1.5,4,2.47,8.2,3.67,12.31.32-.04.64-.07.95-.11v-20.83c-.4-.23.22-.07.53.34,10.07,12.95,25.9,15.26,42.27,6.54,3.75-2,8.27-2.56,12.31-3.75-3.93-4.21-10-5.49-16.19-4.84-21.12,2.2-34.72-8.97-45.63-25.55,3.4.41,7.01.78,9.73,2.54,9.96,6.46,20.43,7.73,31.91,5.33,5.62-1.18,11.59-1.34,17.35-1.01,7.91.46,13.22,4.87,15.42,12.7,1.42,5.07,2.61,10.24,4.46,15.15,3.82,10.16,14.12,16.82,23.86,15.1,3.21-.56,6.07-3.09,9.09-4.71-.16-.62-.32-1.24-.48-1.86-13.71.25-18.27-9.53-22.33-19.75-1.53-3.84-2.52-7.89-3.93-11.78-8.53-23.63-28.38-37.5-53.52-37.5-1.75,0-3.49-.18-5.24-.28,5.84-5.4,12.85-4.39,20.56-4.61ZM94.12,373.45c-.18.22-.37.44-.55.65,2.07,2.32,3.98,4.8,6.22,6.95,15.85,15.18,40.65,11.72,51.7-7.21,2.75-4.71,5.66-9.39,7.85-14.36,5.09-11.54,12.95-20.66,24.55-25.34,17.44-7.03,24.81-21.91,31.33-38.22-5.24,2.21-10.32,4.75-14.77,8.13-8.23,6.25-15.93,13.18-24.13,19.48-12.48,9.58-25.21,5.86-37.76-.05-1.4-.66-2.33-2.31-3.48-3.5,13.24,3.31,25.55,1.69,36.92-3.96,11.75-5.83,22.88-12.91,34.15-19.67,2.81-1.68,5.11-4.19,7.65-6.32-.43-.61-.85-1.23-1.28-1.84-7.67-.35-15.04.84-21.32,5.93-7.02,5.68-13.72,11.75-20.73,17.43-8.01,6.49-17.26,7.72-27.11,5.73,2.93-.55,6.09-.27,8.85-1.18,5.97-1.98,12.48-3.54,17.44-7.12,13.42-9.68,26.17-20.3,39.14-30.6,1.59-1.26,2.91-2.86,5.2-5.14-8.19,2.67-15.03,4.57-21.61,7.14-5.37,2.1-11.06,4.19-15.5,7.69-19.53,15.39-41.4,22.97-66.14,21.27,11.38-7.64,26.13-1.68,38.44-8.2-5.15-1.81-9.74-3.31-14.26-5.02-16.05-6.1-24.23-2.9-30.92,12.8-3.32,7.8-8.02,13.7-16.72,16.44,12.88,3.42,26.48-4.26,40.15,2.77-9.22,3.46-17.44,7.26-26.06,9.6-11.37,3.08-20.23-1.42-25.98-11.77-.52-.95-1.11-1.86-1.81-3.03-4.6,2.88-2.98,6.78-2.08,10.13,3.98,14.79,18.69,25.72,35.51,26.99,14.75,1.11,27.2-4.53,38.96-12.57,4.41-3.02,8.93-5.87,13.4-8.79.38.38.75.76,1.13,1.15-6.39,8.48-12.17,17.52-19.3,25.32-10.06,11.01-22.87,15.63-37.85,11.92-3.18-.79-6.16-2.39-9.23-3.62ZM312.51,584.2c-.81-.11-1.19-.23-1.54-.19-.55.07-1.11.22-1.64.41-20.19,7.01-32.76,20.21-35.91,42.09-2.35,16.34-18.6,26.13-35.67,22.54-15.13-3.18-23.57-17.7-19.68-33.9.55-2.31,1.22-4.58,1.84-6.87-.59-.26-1.19-.51-1.78-.77-2.22,4.6-5.08,9.01-6.56,13.83-7.38,24.06,9.87,44.9,33.83,40.05,7.73-1.57,14.97-6.62,21.84-11.02,4.86-3.11,8.73-7.78,12.61-11.37-2.85,12.92-12.13,21.34-23.96,27.69.38.6.76,1.21,1.13,1.81,7.86-3.57,15.71-7.14,24.85-11.29-3.6,4.66-6.51,8.42-9.42,12.19,18.95-7.07,25.61-25,35.04-39.24-1.41,12.22-2.85,24.71-4.29,37.2.57.19,1.14.39,1.71.58,5.93-15.16,11.87-30.33,17.8-45.49.4.14.8.29,1.21.43-1.14,6.29-2.28,12.57-3.43,18.86,11.78-5.83,15.27-18.39,25.02-26.71-.65,3.42-1.1,5.8-1.61,8.53,5.47-4.69,10.5-9,15.53-13.31.36.28.72.57,1.08.85-3.46,6.52-6.92,13.04-10.81,20.36,11.33-1.65,16.49-10.86,24.85-17.07-1.34,4.75-2.42,8.55-3.84,13.56,8.97-3.97,16.95-6.86,24.22-11.01,2.99-1.7,4.44-6.09,6.84-9.63-9.91-2.69-19.03-.28-26.84-5.28-.92-.59-2.89.32-4.32.73-1.72.49-3.38,1.18-6.48,2.29,2.57-4.68,4.45-8.12,6.58-12.01-7.51-1.78-14.5-4.94-21.3-4.6-6.6.33-13.02,4.27-19.51,6.62-.3-.42-.6-.84-.9-1.26,5.13-3.79,10.26-7.58,15.52-11.48-3.71-3.59-8.41-2.5-12.93-1.71-13.74,2.4-22.2,11.89-29.81,22.48-1.9,2.64-3.9,5.21-5.86,7.81,1.03-8.8,4.94-14.76,16.56-26.7ZM519.46,653.86c12.55,8.7,24.88,16.51,41.85,11.54-7.35-3.84-13.99-6.52-19.7-10.52-5.95-4.17-9.74-10.39-11.24-17.74,1.88,1.1,3.17,2.79,4.86,3.85,7.89,4.97,15.47,10.71,23.94,14.4,9.67,4.21,19.62,2.35,28.52-3.59,12.99-8.67,16.27-27.25,6.74-37.83,4.6,24.39-15.69,35.6-33.71,30.76-8.49-2.28-14.29-8.15-19.02-15.14-3.59-5.29-6.69-10.91-10.15-16.29-10.91-16.93-26.17-27.97-45.83-32.28-6.24-1.37-12.91-.75-19.38-1.04-.1.66-.2,1.32-.3,1.98,11.01,6.54,20.47,14.71,27.51,25.47-8.56-5.84-16.89-11.93-24.88-18.45-6.37-5.21-13.23-7.87-20.74-3.73-4.92,2.72-8.99,7-13.53,10.66,2.77,2.28,4.69,3.86,6.6,5.43-.27.5-.55,1-.82,1.51-3.67-1.17-7.34-2.33-11.14-3.54.52,12.91,13.48,29.27,22.77,28.69-1.98-3.79-3.89-7.44-5.79-11.09.36-.29.73-.58,1.09-.87,10.28,7.82,20.56,15.63,30.84,23.45l1.59-1.57c-2.64-5.88-5.28-11.76-7.92-17.65,3.84,3.36,7.11,6.99,10.14,10.81,3.16,3.98,5.87,8.33,9.19,12.16,2.99,3.44,6.54,6.38,10.19,9.86-5.25-11.97-10.1-23-14.94-34.04.54-.29,1.08-.57,1.62-.86,12.32,17.58,24.44,35.33,41.73,48.53-1.4-2.42-3.54-4.17-5.32-6.23-1.77-2.05-3.19-4.41-4.76-6.63ZM187.28,85.46c-5.39,1.47-10,2.95-14.71,3.97-5.71,1.23-10.63.12-14.52-4.93-6.25-8.11-17.1-6.94-21.58,2.29-1.7,3.51-2.79,7.39-3.62,11.22-1.35,6.25-1.83,12.7-3.42,18.88-4.73,18.44-11.65,36.64-29.23,45.72-11.17,5.77-16.14,13.62-20.69,24.18-7.11,16.49-19.02,28.35-37.92,31.11-4.7.69-5.72,3.45-4.29,7.75,5.45,16.44,28.17,27.01,44.14,20.47,4.83-1.98,8.94-4.65,10.48-11.02-14.11,4.73-26.8,3.7-38.32-6.5,27.43-11.03,39.84-26.22,40.32-49.03,15.82-2.08,26-12.39,34.66-24.69,8.62-12.23,12.59-26.23,15.16-40.86.84,2.61,1.15,5.19,1.65,7.73,1.83,9.38,3.54,18.8,5.74,28.1.59,2.49,1.37,6.74,5.88,4.67,4.38-2.01,1.56-4.66.44-7.39-1.96-4.79-3.43-9.78-5.11-14.68.58-.27,1.17-.53,1.75-.8,2.65,1.36,5.24,2.88,7.98,4.02,2.15.89,4.49,1.3,6.74,1.93.22-2.1.44-4.19.65-6.25,7.3-1.15,13.64,6.74,22.18,3.52-13.92-12.99-17.94-14.54-34.56-14.31-1.55.02-3.62-1.1-4.61-2.35-5.61-7.14-4.88-15.87-6.13-24.11,11.2,13.33,34.93,12.66,40.92-8.64ZM570.27,362.14c-2.6-3-5.4-6.04-7.98-9.26-10.25-12.79-23.06-9.61-33.21-3.6-8.82,5.23-18.34,9.26-27.38,14.13-3.33,1.79-6.88,3.96-9.08,6.9-8.2,10.95-18.48,19.24-30.61,25.26-2.6,1.29-5.89,1.18-8.86,1.72-.32-.78-.64-1.56-.96-2.35,15.96-9.27,32-18.47,39.97-37.26-1.64.89-2.6,1.37-3.52,1.92-12.13,7.24-24.45,13.83-38.37,17.37-4.44,1.13-8.61,5.18-11.81,8.84-4.89,5.61-5.1,12.25-1.84,17.23,3.49,5.32,9.77,8.05,16.91,5.77,7.65-2.44,15.48-5.22,22.17-9.5,10.88-6.96,21.03-15.11,31.26-23.04,10.63-8.24,22.6-13.37,36.3-17.43-15.8,13.13-30.69,25.5-46.86,38.94,3.26-1.08,5.04-1.56,6.73-2.25,11.5-4.68,22.95-9.46,34.46-14.08,19.51-7.83,36.7-2.52,48.22,14.77,1.98,2.97,4.03,5.91,6.07,8.84,2.79,4,6.47,4.48,10.64,3.05-4.21-8.87-8.55-17.36-12.32-26.09-4.16-9.64-11.08-14.87-21.62-15.32-2.41-.1-4.8-.62-7.2-.95,0-.52.02-1.04.03-1.57,3.21-.74,6.42-1.47,8.85-2.03ZM86.25,562.11c.22.43.43.86.65,1.28,2-.45,4.22-.49,5.96-1.42,9.41-5.02,14.86-18.9,10.57-28.78-9.89-22.79-5.7-43.65,7.23-63.78,5.08-7.9,12.11-12.8,20.97-15.17,23.21-6.2,36.02-22.04,41.46-44.61,1.4-5.79-.07-11.23-4.23-17.38-1.85,4.32-3.05,7.22-4.33,10.08-4.17,9.25-8.01,18.67-12.68,27.67-3.94,7.6-10.43,13.24-18.67,15.52-12.23,3.38-22.53,9.26-30.36,19.3-.09.11-.61-.12-1.7-.37,3.22-4.06,5.77-8.37,9.34-11.54,7.15-6.35,14.73-12.25,22.38-18.01,6.12-4.61,10.61-10.11,13.04-17.96-13.38,3.56-25.82,6.86-39.37,10.46,5.16-4.67,9.54-8.64,13.92-12.6-.38-.51-.76-1.01-1.13-1.52-1.81.8-3.7,1.45-5.41,2.43-37.98,21.8-43.74,68.82-26.45,97.21,2.35,3.85,4.33,7.93,6.35,11.97,5.98,11.92,4.4,22.92-4.15,33.04-1.16,1.37-2.25,2.79-3.37,4.18ZM423.34,54.31c7.04-4.51,13.61-9.68,20.97-13.24,23.67-11.45,46.22,1.36,49.48,27.62.16,1.27.5,2.52.74,3.7,11.19,1.57,11.94.89,9.94-9.68-.73-3.87-1.55-7.8-3.01-11.44-6.38-15.92-17.55-25.95-35.17-27.68-12.25-1.2-23.48,2.13-34.11,7.88-10.02,5.42-9.99,5.47-18.87-2.11-22.79-19.45-57.65-18.29-77.81,2.75-9.88,10.31-15.66,22.99-21.06,36.67,8.1-.25,14.17-1.79,17.56-9.12,1.71-3.71,4.42-6.98,6.75-10.39,15.53-22.74,45.94-22.99,63.45-11.66,7.66,4.96,14.41,11.32,21.15,16.7ZM694.23,653.81c7.87,10.29,9.54,23.06,11.75,36.08,2.59-3.06,4.96-6.08,5.25-9.3.55-6.11.58-12.43-.36-18.47-2.27-14.62-12.24-24.33-23.15-32.9-15.24-11.96-27.2-26.43-35.96-43.64-.78-1.54-1.82-2.94-2.74-4.41-.61.13-1.23.26-1.84.39,0,2.7-.15,5.41.03,8.1.34,5.05,1.39,10.12-2.72,14.43-.64.67-.28,2.86.29,4.01,9.25,18.47,18.03,37.07,31.01,53.55,13.84,17.58,17.16,37.72,8.65,59.1-.66,1.65-.95,3.45-1.42,5.19,5.5-8.85,10.48-17.91,13.92-27.52,2.14-5.97,3.09-12.87,2.53-19.17-.77-8.69-3.47-17.2-5.27-25.44ZM122.06,683.52c-13.78-34.7-13.04-46.01,3.03-77.58,4.73-9.29,7.66-19.58,10.6-29.65,2.1-7.22,2.11-14.8-.7-22.19-1.7,5.33-3.12,10.57-5.02,15.63-4.88,12.93-14.78,22.05-24.25,31.5-12.94,12.91-21.48,27.97-22.59,46.67-1.45,24.61,10.73,42.75,27.62,58.68.97.91,2.18,1.56,3.27,2.34-12.06-18.82-14.77-38.84-9.96-60.25,3.23,13.16,8.08,25.4,18,34.85ZM732.58,638.78c-.42.39.31-.14.85-.82,16.81-21.07,16.23-52.66-1.75-72.8-5.09-5.7-11.1-10.67-17.07-15.49-9.68-7.82-17.67-16.87-22.46-28.46-1.51-3.66-2.62-7.48-4.02-11.53-9.26,16.43-7.6,39.64,4.15,53.47,4.84,5.69,10.58,10.67,16.2,15.65,12.43,10.99,22.61,23.32,24.01,40.67.53,6.64.09,13.35.09,19.31ZM651.39,107.95c10.77,37.22,30.53,63.34,73.05,64.97-8.21,10.87-19.65,14.41-31.71,16.82,4.67,7.83,8.35,10.7,12.92,10.2,14.57-1.6,27.62-15.55,28.2-30.15.24-6.13-1.8-8.39-7.77-9.54-7.36-1.43-15.04-2.24-21.88-5.03-22.02-8.97-34.56-26.32-40.56-48.83-2.77-10.38-9.41-13.53-19.12-8.91-1.18.56-2.3,1.27-3.45,1.9-7.92,4.31-15.95,6.71-25.33.55,1.04,5.16,1.71,9.37,2.84,13.46.28,1.02,2.09,2.42,3.07,2.33,8.73-.8,17.79-.29,25.58-5.53,1.49-1,3.17-1.71,4.15-2.24ZM398.98,225.27c-2.13-7.04-4.13-12.84-5.59-18.77-1.21-4.92-1.78-9.99-2.62-14.99-3.02-18-26.28-37.67-45.94-33.19-7.65,1.75-15.67,1.86-23.51,2.79-1.54.18-3.03.74-6,1.5,6.38,3.49,11.86,5.7,16.41,9.14,8.48,6.41,17.1,12.89,24.38,20.56,7.29,7.68,12.86,16.97,19.51,25.29,2.54,3.18,5.9,5.74,9.07,8.36,1.15.95,2.84,1.25,4.96,2.12-3.6-5.51-6.67-10.21-9.74-14.9l.99-.49c5.92,4.12,11.84,8.23,18.09,12.58ZM558.28,57.87c-11.21.24-19.76,6.3-25.08,16.83-5.62,11.14-4.53,22.26,3.32,31.77,4.87,5.91,12.36,7.77,20.03,6.39,4.94-.89,10.34-8.39,9.7-12.52-.58-3.76-5.76-6.82-11.81-6.77-2.05.01-4.14.31-6.15.74-4.45.96-6.1-1.04-6.51-5.26-.9-9.25,5.31-17.23,14.65-16.82,5.79.26,12.06,1.82,17.08,4.63,15.46,8.66,23.05,23.2,27.2,39.84.68,2.74.67,5.74,1.83,8.23.91,1.95,2.89,3.99,4.84,4.62.96.31,3.68-2.24,4.25-3.94.93-2.75,1.32-5.96.93-8.83-2.75-20.3-11.86-37.13-28.29-49.62-7.34-5.58-15.67-8.9-25.99-9.3ZM467.6,646.58c-9.33-2.9-17.88-6.51-26.78-8.05-7.78-1.35-16.28-1.8-23.87-.05-7.24,1.67-13.77,2.2-20.89.42-16.7-4.17-31.92,2.12-48.2,6.91,4.12,2.41,7.72,3.87,10.5,6.27,5.15,4.44,11.02,6.4,17.59,6.51,20.87.36,41.75.93,62.62.78,11.12-.08,20.3-5.66,29.03-12.79ZM371.86,229.65c.4-.63.8-1.27,1.2-1.9-14-5.5-19.76-17.86-25.94-29.92-2.22-4.34-4.82-8.5-7.29-12.71-6.84-11.62-18.53-18.44-30.12-21.41-11.97-3.07-24.69,3.33-37.38,6.59,3.89,9.35,9.54,16.12,18.84,17.21,23.57,2.77,42.68,13.44,58.7,30.48,1.77,1.89,3.97,3.57,6.29,4.71,5.13,2.53,10.46,4.65,15.71,6.93ZM448.85,223.57c4.29-5.22,7.87-10.71,12.55-15.02,9.25-8.53,20.22-14.16,32.59-17.09,5.64-1.34,11.3-3.02,16.55-5.43,8.14-3.73,13.46-10.19,16.48-19.58-6.93-1.23-13.04-2.05-19.02-3.45-7.05-1.66-12.83-1.61-18.78,4.18-7.2,7-16.64,11.7-23.85,18.7-6.78,6.58-12.45,14.5-17.61,22.48-4.13,6.39-2.85,11.35,1.1,15.21ZM693.38,280.05c-8.25-18.67-16.33-25.94-36.64-24.76-5.76.34-11.48,2.02-17.11,3.49-12.19,3.19-24.4,4.24-36.89,1.99-5.39-.97-10.89-1.29-16.34-1.9-.17.59-.33,1.18-.5,1.76,12.08,7.6,23.71,16.01,38.18,19.14,11.38,2.46,21.99-.33,32.61-3.98,12.4-4.27,24.62-5.26,36.69,4.26ZM711.75,231.91l-2.37.41c0,1.62-.3,3.32.06,4.86,1.08,4.77,1.87,9.71,3.76,14.17,3.12,7.38,6.34,14.89,10.75,21.53,5.73,8.63,14.9,10.36,24.61,8.74,3.58-.6,6.99-2.3,10.47-3.5.41.41.83.82,1.24,1.23-3.49,3.92-6.48,8.48-10.56,11.63-10.06,7.76-21.56,5.83-33.37,3.99,5.34,4.83,10.68,9.66,16.23,14.68,3.47-1.17,7.89-2.66,12.31-4.15,18.69-6.31,25.9-21.12,25.62-38.84-.03-2.25-1.57-5.33-3.37-6.42-1.25-.75-4.56.76-6.27,2.12-9.37,7.39-16.19,7.87-26.29,1.43-8.57-5.47-14.21-13.29-18.24-22.45-1.41-3.19-3.05-6.28-4.58-9.42ZM126.4,726.91c-1.5,3.86-2.44,6.45-3.5,8.98-5.62,13.4-19.06,20.36-31.37,16.37-5.63-1.83-8.61-5.85-9.6-11.45-.95-5.38.06-9.96,5.14-13.26,1.32-.86,2.5-3.77,2.03-5.17-.96-2.9-3.47-3.36-6.46-2-12.99,5.88-18.69,24.6-11.11,36.81,8.88,14.31,26.72,19.22,42.06,11.58,15.92-7.93,20.74-22.32,12.81-41.85ZM599.88,253.5c4.47,3.96,10.11,7.15,16.68,6.47,8.35-.86,16.71-2.32,24.82-4.47,13.37-3.54,26.44-5.83,39.23,2.49-2.7-19.35-23.92-31.45-40.79-23.61-13.22,6.14-26.3,12.57-39.94,19.12ZM718.64,716.87c8.36,6.6,10.32,14.81,5.8,22.95-9.67,17.4-36.83,18.22-47.46,1.44-.83-1.31-1.75-2.58-2.68-3.94-2.1,3.96-3.63,7.66-5.88,10.84-2.99,4.24-2.23,7.28,1.35,10.76,10.93,10.65,23.65,12.49,37.57,7.9,14.58-4.8,24.12-14.76,26.49-30.06.84-5.4-.37-11.64-2.41-16.81-2.15-5.45-7.87-6.32-12.79-3.1ZM452.92,666.13c8.08,24.2,23.16,40.67,49,46.26-5.62-8.43-11.24-16.86-16.87-25.29.18-.12.35-.24.53-.35,5.42,4.12,10.83,8.24,16.25,12.36.52-.46,1.03-.91,1.55-1.37-7.09-9.03-13.28-19.01-21.52-26.83-7.84-7.43-18.1-10.72-28.93-4.78ZM640.11,489.75c5.96-9.42.36-30.77-9.48-37.51,1.06,5.88,2.1,11.62,3.26,18.04-2.5-.81-3.84-1.25-5.48-1.78-6.3,16.81-6.57,33.38-.47,49.83,1.3,3.51,4.3,6.64,7.13,9.28,7.76,7.21,16.89,5.7,22.02-3.62,1.39-2.53,2.05-5.7,2.22-8.62.57-9.48,3.97-17.88,8.81-25.87,1.1-1.82,1.9-3.83,3.57-7.24-2.44,1.31-3.7,1.56-4.19,2.31-2.74,4.2-5.48,8.42-7.87,12.82-3.41,6.27-6.28,12.75-13.17,16.36-3.55,1.86-6.53,4.78-10.16,7.51-8.48-6.09-6.92-24.24-.63-37.21,1.42,1.84,2.77,3.58,4.42,5.71ZM602.88,397.48c.42-.14.85-.29,1.27-.43,0-6.2-.24-12.42.06-18.6.41-8.36-1.2-15.96-5.92-23.05-7.24-10.87-10.05-22.88-8.95-36,.43-5.17-.18-10.54-1.11-15.68-.81-4.43-3.04-8.4-8.02-9.7-4.66,7.1-6.63,14.27-5.91,22.82,1.25,14.82,5.6,28.71,12.59,41.86,2.81,5.29,5.09,10.88,7.36,16.44,3.01,7.4,5.77,14.89,8.63,22.35ZM620.62,201.1c-3.23-2.11-6.14-4.14-9.17-5.98-8.21-5.01-8.62-5.18-15.24,1.82-11.91,12.58-26.32,19.13-43.64,19.3-3.62.04-7.25,0-12.42,0,30.78,20.04,66.56,6.91,80.47-15.14ZM205.41,407.4c6.12,1.82,10.32.32,14.65-5.22,3.36-4.29,6.37-8.89,10.03-12.9,7.74-8.47,17.45-12.93,28.88-10.16,9.43,2.29,18.56,5.89,27.7,9.25,8.55,3.14,16.93,6.73,26.38,10.52-.8-1.61-.87-2.1-1.12-2.23-19.04-9.76-37.93-19.83-57.24-29.01-6.15-2.93-13.29-2.16-19.59,1.56-14.95,8.81-23.78,22.34-29.69,38.21ZM284.94,106.43c.18.47.35.94.53,1.41,38.73-5.35,77.46-11.53,116.66-10.98,39.25.56,78.42,3.13,117.35,10.2-2.63-2.1-5.41-4.2-8.46-4.75-11.28-2.03-22.62-3.75-33.99-5.23-36.09-4.69-72.31-7.57-108.62-3.52-26.13,2.92-52.12,7.08-78.16,10.79-1.83.26-3.53,1.37-5.29,2.08ZM709.17,631.11c.17-16.68-14.44-42-29.66-54.55,3.45,10.63,6.9,21.24,10.35,31.86-.69.27-1.39.55-2.08.82-11.33-16.94-20.8-34.77-25.12-55.82-.72,1.26-.97,1.56-1.07,1.91-.21.72-.36,1.46-.5,2.19-3.58,18.33,3.4,33.73,15.4,46.33,9.72,10.21,21.7,18.26,32.67,27.27ZM163.88,359.47c-5.59,9.79-11.66,20.43-17.74,31.07.63.47,1.25.93,1.88,1.4,4.57-4.87,10.13-9.14,13.52-14.72,7.6-12.52,17.74-21.62,30.81-28.01,9-4.39,15.73-11.59,20.73-20.2,2.91-5.01,4.82-10.42,1.06-17.74-1.16,1.86-1.9,2.94-2.53,4.08-7.15,12.96-18.85,20.6-31.53,27.17-3.32,1.72-6.54,3.77-9.47,6.09-2.62,2.07-4.89,4.63-7.04,7.2-.49.58.14,2.1.31,3.67ZM358.76,665.11c-2.1.13-4.11.06-6.05.41-20.27,3.66-29.48,19.82-39.1,35.24-2.2,3.52.12,6.05,4.16,4.72,7.28-2.4,14.38-5.39,21.48-8.32,13.98-5.77,18.67-17.39,19.5-32.04ZM211.89,190.6c2.29,16.12,13.43,24.56,27.1,30.25,15.42,6.43,30.52,5.21,44.73-3.9-3.76-.54-7.48-.44-11.2-.55-17.78-.56-32.37-7.45-43.14-21.89-5.23-7.02-8.65-7.77-17.49-3.91ZM557.34,174.17c-2.04-.7-3.76-1.39-5.54-1.87-9.68-2.62-10.15-2.38-15.89,5.6-3.18,4.42-6.57,8.7-9.89,13.02-7.44,9.68-17.26,15.43-29.19,17.75-1.31.25-2.55.85-4.43,1.5,20.38,8.46,58.75-12.86,64.94-36ZM671.2,447.21c-3.05-1.51-4.66-2.35-6.31-3.11-12.57-5.77-22.03-14.87-26.35-27.97-2.73-8.26-3.24-17.25-4.95-25.86-.36-1.8-1.59-3.43-2.43-5.14-1.4,1.22-3.42,2.17-4.09,3.71-9.69,22.09,1.51,48.75,24.05,57.52,6.1,2.37,12.29,2.36,20.08.86ZM233.91,637.17c.72-1.09,1.39-2.18,2.14-3.21,1.62-2.23,4.3-4.25,4.77-6.69,3.72-19.54,7.06-39.16,10.45-58.77,1.32-7.61-3.56-14.16-12.4-15.72,0,7.22-1.64,14.79.33,21.25,4.54,14.92,1.74,27.69-7.35,39.71-1.02,1.34-1.82,2.84-2.73,4.27-6.03,9.53-4.95,13.67,4.78,19.15ZM294.59,205.54c-2.72-1.41-3.94-2.36-5.32-2.72-12.81-3.32-23.13-10.81-31.99-20.15-5.52-5.82-11-6.39-18.06-3.77-3.75,1.39-4.16,2.9-2.68,6.14,4.56,9.98,12.05,16.58,22.43,19.97,11.24,3.67,22.58,2.44,35.61.52ZM504.83,746.2c.38-.17.77-.34,1.15-.51-1.41-3.58-2.17-7.63-4.37-10.63-4.31-5.87-8.93-11.7-14.3-16.56-11.36-10.28-23.69-19.29-32.59-32.31-5.68-8.31-15.17-11.67-26.62-10.62,5.03,10.44,10.29,19.71,20.04,25.18,6.37,3.57,13.12,6.53,19.91,9.25,12.73,5.1,23.62,12.24,30.23,24.77,2.05,3.88,4.36,7.63,6.56,11.44ZM374.55,562.86c1.05-8.11-.63-16.83-4.84-24.94-2.21-4.24-6.59-5.69-11.14-4.77-12.36,2.52-16.86,13.5-13.87,25.14.29,1.13,2.38,2.42,3.74,2.55,8.37.82,16.78,1.33,26.12,2.01ZM140.12,461.22c32.36.19,54.29-40.02,41.32-73.66-4.51-.62-5.91,1.68-5.98,5.84-.11,6.2-.46,12.4-.93,18.58-1.24,16.34-6.15,31.03-20.05,41.13-4.15,3.01-8.97,5.1-14.37,8.11ZM68.69,352.75c-.55-.02-1.11-.04-1.66-.05-.23,1.79-.37,3.59-.69,5.36-1.05,5.73-1.76,11.55-3.33,17.14-3.41,12.16-10.17,20.97-24.03,21.79-.65.04-1.28.45-2,.71,5.56,7.44,17.64,7.74,27.49.87,8.5-5.93,11.89-14.95,13.88-24.45,1.96-9.34-8.05-13.44-9.66-21.37ZM638.76,212.81c-1.47-1.14-2.65-2.06-3.82-2.98-7.1-5.55-7.29-5.69-12.46,1.69-5.64,8.06-12.33,14.91-21.72,18.16-7.66,2.65-15.66,4.34-23.18,6.37,12.49,13.36,46.7.84,61.19-23.24ZM591.81,186.54c-7.22-2.59-13.94-4.91-20.59-7.41-3.69-1.39-5.74-.54-7.37,3.29-1.28,3.02-3.67,5.65-5.91,8.15-4.45,4.95-9.13,9.7-13.87,14.68,17.05,3.68,37.5-4.2,47.73-18.71ZM472.05,548.41c1.72,10.03,1.65,18.67-4.95,27.49,19.27-2.81,34.3,4.01,49.39,11.24-12.23-15.32-25.24-29.53-44.44-38.73ZM227.1,225.15c-2.93-1.77-5.2-3.01-7.34-4.46-7.15-4.84-14.46-9.48-21.32-14.7-7.09-5.4-8.26-5.6-15.98-.7-3.42,2.17-4.14,4.59-1.11,7.07,6.35,5.19,12.51,10.99,19.7,14.68,8.16,4.19,17.07,2.98,26.05-1.89ZM233.68,231.03c-2.29.32-4.67.35-6.86,1.01-16.96,5.1-32.73,2.46-47.49-7.06-3.95-2.55-7.75-5.34-11.83-7.65-1.1-.63-2.97.1-4.49.2.15,1.18-.1,2.65.51,3.48,10.46,14.1,23.83,22.76,42.08,22.17,10.83-.35,20.46-3.5,28.08-12.15ZM649.95,153.38v-38.13c-9.17,2.65-18.39,5.09-27.44,8.04-4.7,1.53-8.21,4.74-9.34,9.4,7.71,5.77,12.13-4.33,18.97-2.85-.7,3.62-6.88,5.11-3.66,10.23,5.41-3.91,10.59-7.65,15.77-11.39.58.41,1.15.82,1.73,1.23-1.19,4.43-2.23,8.92-3.62,13.29-2.06,6.46-1.12,8.15,7.6,10.18ZM201.93,127.95c-.68-.32-1.36-.65-2.04-.97.41-2.03.31-4.38,1.33-6.04,4.4-7.18,9.14-14.15,13.73-21.22,1.1-1.69,2.08-3.46,3.84-6.41-2.36.73-3.08.9-3.75,1.18-.87.36-1.77.69-2.54,1.22-10.07,6.96-15.8,16.88-19.18,28.37-.21.7-.21,1.51-.12,2.24.38,3.36,1.13,5.44,5.66,4.49,8.85-1.86,15.86-5.17,20.69-13.68,4.55-8.02,11-14.96,16.61-22.38-7.09-1.89-7.85-1.64-11.84,3.87-5.51,7.62-10.96,15.29-16.57,22.83-1.73,2.33-3.88,4.34-5.84,6.5ZM568.19,578.9c-.72-.04-1.43-.07-2.15-.11-.37,5.88-1.6,11.87-.87,17.61.69,5.44,3.21,10.71,5.34,15.88,3.14,7.6,4.71,15.05.23,22.67-.19.32.15.96.25,1.45,11.57-1.78,17.3-11.53,12.71-21.76-4.49-10.01-11.61-18.85-12.93-30.26-.22-1.9-1.7-3.66-2.6-5.48ZM374.36,39.93c-12.47-.95-23.26,2.89-29.84,13.32-6.79,10.75-11.97,22.52-17.71,33.92-.77,1.52-.71,3.46-1.06,5.31,4.7.09,7.6-.86,9.46-5.22,8.29-19.52,18.3-37.77,39.15-47.33ZM335.7,550.75c-15.08,9.43-26.71,21.63-38.98,34,13.62-3.69,26.39-7.15,38.98-10.56v-23.43ZM358.64,946.57c19.02,8.45,40.16,3.38,53.14-14.64.64-.88.62-3.05-.03-3.91-3.05-4.06-8.22-4.12-11.76-.22-7.21,7.95-15.47,14.35-26.1,16.82-4.66,1.08-9.53,1.25-15.25,1.95ZM173.53,522.93c-6.78-4.73-12.82-8.12-17.78-12.67-3.64-3.34-5.77-8.28-8.77-12.36-1.22-1.66-2.96-2.95-4.46-4.4-.57.41-1.13.81-1.7,1.22.57,2.05.92,4.18,1.74,6.12,3.14,7.42,6.13,14.93,9.78,22.11,1.73,3.39,4.34,6.74,7.38,8.97,6.25,4.58,10.62,2.76,12.66-4.53.55-1.97,1.01-3.96,1.14-4.46ZM402.93,213.58c.5-.14,1-.27,1.5-.41-1.22-7.2-2.54-14.38-3.64-21.6-1.89-12.43-8.58-21.89-18.13-29.52-4.58-3.66-9.69-6.08-16.96-3.67,18.5,11.25,28.17,27.71,33.38,47.29.74,2.78,2.54,5.28,3.85,7.91ZM180.28,526.75c8.22-9.59,9.7-20.55,10.77-31.63.1-1.02-.44-3.01-.81-3.04-4.54-.4-2.81-3.98-3.22-6.29-.69-3.86-1.04-7.77-1.61-12.24-5.4,3.67-8.92,8.96-7.88,13.36,2.88,12.27,3.08,24.55,1.83,36.97-.07.65.42,1.35.92,2.86ZM217.22,144.35c12.09,13.76,43.16-1.24,46.22-15.07-7.13,2.56-15.05,2.25-19.71,9.64-.66,1.05-3.76.84-5.7.72-1.71-.1-3.62-1.64-5.03-1.21-5.25,1.63-10.33,3.82-15.78,5.92ZM283.85,434.7c-1.59,6.16,1.03,10.73,6.96,12.44,6.76,1.94,13.69,1.6,19.68-1.92,3.1-1.82,5.21-5.64,7.16-8.91.69-1.16-.39-3.38-.66-5.11-1.49.44-3.28.5-4.42,1.38-6.84,5.34-14.45,5.78-22.48,3.92-1.97-.46-3.9-1.12-6.25-1.8ZM563.92,430.13c-5.58-20.64-34.84-29.5-57.11-22.42,20.89,5.2,41.94,6.49,57.11,22.42ZM290.32,89.27c9.89-2.32,19.53-4.63,29.2-6.84,6.36-1.45,8.03-3.51,8.37-11.15-2.07.29-4.11.38-6.05.87-8.53,2.2-16.95,4.92-25.56,6.65-6.1,1.23-7.61,4.29-5.97,10.47ZM734.87,473c2.41,9.51,6.42,13.07,14.93,13.62,13.63.88,23.97-5.21,31.86-15.77,1.82-2.44,2.37-5.84,3.51-8.8-16.57,20.47-34.77,22.48-50.3,10.94ZM316.6,40.66c-12.08,2.53-24.12,4.46-35.25,10.24,5.02,8.26,5.03,8.3,13.22,5.77,3.95-1.22,7.76-3.13,11.79-3.78,6.9-1.11,9.78-5.15,10.25-12.24ZM509.31,448.65c7.92-1.61,14.22-3.59,17.52-10.63.67-1.43.81-4.27-.04-4.97-1.11-.93-4.08-1.19-5.16-.35-6.92,5.39-14.22,4.98-21.97,2.5-1.37-.44-3.11.29-4.67.48.29,1.93-.11,4.88.99,5.62,4.19,2.84,8.85,4.96,13.34,7.35ZM296.71,407.73c-18.33-6.14-46.68,4.13-52.53,19.17,15.91-10.82,34.33-14.67,52.53-19.17ZM607.19,149.91c-.36.44-.72.88-1.08,1.32,5.52,9.04,12.92,16.31,22.26,21.39,5.09,2.76,9.9,1.31,13.86-3.67-11.79-6.4-23.42-12.72-35.05-19.04ZM290.06,75.53c14.9-2.1,20.56-7.37,20.1-18.85-7.76,2.39-15.38,4.74-23.42,7.22,1.23,4.31,2.29,8.01,3.32,11.63ZM412.69,610.06c4.66,7.95,13.46,14.24,21.92,15.34-.77-3.06-1.23-5.96-2.21-8.66-4.63-12.7-7.54-13.79-19.2-7.45-.14.07-.2.29-.51.77ZM574.83,94.92c-.33,8.18,14.53,28.2,22.03,29.69.26-10.22-12.58-27.52-22.03-29.69ZM489.58,84c5.39,1.2,10.88,2.34,16.34,3.65,5.39,1.29,10.74,2.74,16.11,4.13l1.4-1.55c-1.79-2.16-3.15-5.38-5.44-6.28-6.42-2.54-13.23-4.07-19.86-6.1-5.28-1.62-8.33-.13-8.55,6.16ZM18.28,495.03c-4.21,6.05-.67,14.56,7.36,20.37,9.18,6.64,22.91,6,28.27-1.53-16.94,3.86-29.3-1.22-35.63-18.84ZM424.81,86.89c5.97,2.78,24.9-8.06,31.44-18.01-7.64-2.2-27.09,8.94-31.44,18.01ZM174.47,502.03c-1.26-17.1-1.19-17.07,6.26-33.35,1.57-3.42,2.4-7.17,3.88-11.7-14.66,6.39-20.37,33.69-10.15,45.05ZM408.54,187.62c4.71-9.84,12.25-17.22,13.42-28.28-12.64,3.59-19.34,17.16-13.42,28.28ZM510.9,50.99c-1.29,10.45-.1,11.57,15.29,15.36,1.68-2.23,3.43-4.55,5.98-7.92-7.55-2.65-14.15-4.95-21.27-7.45ZM671.19,201.42c1.45-8.18-3.63-16.09-12.5-18.36,4.41,6.63,2.63,16,12.5,18.36ZM316.5,931.25c-7.89-3.93-15.6-7.77-23.29-11.6-.23,7.11,13.36,13.9,23.29,11.6ZM182.39,164.39c8.07,2.71,13.13-1.72,13.75-11.69-5.22,3.3-11.99,4.06-13.75,11.69ZM520.09,79.79c1.46-1.76,3.6-3.23,3.41-4.29-.96-5.48-6.26-5.41-10.19-6.69-.89-.29-3.95,2.33-3.9,3.54.24,6.68,6.99,3.55,10.69,7.44ZM255.86,902.58q-7.72-12.87-17.25-11.03c3.65,6.43,9.49,9.04,17.25,11.03ZM86.93,290.07c.64-9.19,1.28-18.5,2-28.94-5.74,6.55-6.26,22.37-2,28.94ZM408.06,618.31c-4.68,2.95-10.97.4-14.32,6.31,7.64,3.73,13.55,1.4,14.32-6.31ZM108.43,186.16c6.32.6,13.96-4.15,16.97-10.37-5.92,3.58-12.7,3.82-16.97,10.37ZM503.24,198.17c-9.95,1.1-19.16,3.78-26.5,10.79,8.83-3.6,17.67-7.19,26.5-10.79ZM688.09,170.69c-4.61-.31-8.43-.05-11.94-.95-3.48-.9-6.66-2.98-9.81-4.46,4.88,8.39,11.92,10.22,21.75,5.41ZM588.78,439.36c-.04-.61-.08-1.22-.11-1.83-4.36.25-8.73.5-13.09.75.03.36.05.72.08,1.08h13.13Z"/>
  <path class="cls-2" d="M608.84,509.09c2.39,3.57,4.79,7.13,7.98,11.88-.58-11.42-3.65-21.76,4.29-30.95.37,2.79,1.13,5.59,1.05,8.37-.61,20.7,3.8,39.96,15.58,57.29,2.82,4.15,1.81,5.83-3.3,6.64-5.88.93-11.28.34-15.63-4.86,1.27,12.97,3.15,25.51,8.77,37.57-4.57-3.89-9.15-7.79-14.53-12.37,1.13,9.07,5.81,14.86,11.39,19.89,9.26,8.34,14.08,18.92,16.35,30.86,1.55,8.13.74,16.04-2.85,24-8.99-5.83-10.53-18.39-22.01-21.14,8.06,10.75,15.72,21.82,24.26,32.17,15.12,18.32,20.22,39.15,17.2,62.31-.42,3.2-1.51,6.31-3.1,9.66-6.87-24.47-23.02-40.57-44.54-52.45,39.66,36.41,37.41,78.33,18.49,122.53l-2.37.41c-1.35-8.29-2.71-16.57-4.06-24.86-.46.02-.92.03-1.39.05,1.06,13.72-1.35,26.72-7.17,39.12-5.83,12.42-14.3,22.14-27.14,27.92,11.6-13.72,16.84-29.52,16.25-47.18-.61-18.22-8.91-32.65-23.83-45.36,5.68,18.14,6.27,35.14,1.09,51.95-5.27,17.07-14.68,31.09-32.56,39.95,8.23-30.41,3.3-56.94-17.12-80.1.51,1.59,1.15,3.16,1.52,4.79,2.34,10.06,5.71,20.03,6.7,30.23,2.72,27.92-8.57,48.97-33.24,62.72-10.49,5.85-15.59,14.9-15.05,27.01.16,3.51,1.22,5.97,5.2,6.96,1.34.34,3.23,3.4,2.89,4.69-1.08,4.12-2.14,8.88-4.89,11.81-17.71,18.81-45.68,22.92-62.63-3.58-1.92-3-3.47-6.26-4.96-9.5-8.23-17.97-5.73-34.45,7.19-49.32,3.07-3.54,6.45-6.81,10.02-10.56-21.87,5.53-43.02,38.04-20.28,67.74-.24.48-.49.97-.73,1.45-3.56-2.13-7.71-3.66-10.6-6.47-16.67-16.27-18.56-36.09-12.92-57.47,3.73-14.16,13.01-24.38,24.04-33.29,4.54-3.67,9.33-7.06,13.57-11.04,12.58-11.82,15.92-32.19,7.55-47.27-2.21-3.98-5.92-7.13-9.5-10.18,11.51,22.12,11.13,37.32-1.16,48.85.89-7.21,1.87-15.11,2.85-23.01-.72-.23-1.43-.46-2.15-.69-.84,21.83-16.77,32.76-32.18,45.73.92-3.81,1.65-6.52,2.21-9.26,2.39-11.59,1.65-22.43-6.98-31.67-4.1-4.4-7.98-9.05-11.61-13.84-6.5-8.58-10.43-17.91-7.29-29.09-5,6.83-6.49,14.53-4.08,22.45,1.55,5.11,4.4,9.96,7.31,14.51,6.47,10.1,12.19,20.41,12.6,32.78.27,8.13-1.03,15.91-5.7,22.95-.47-10.49,1.47-21.21-4.57-31.63,1.11,5.16,2.04,9.49,3.24,15.05-2.17-1.16-3.24-1.63-4.2-2.26-6.31-4.11-12.47-8.46-18.91-12.33-24.91-14.99-31.67-38.71-18.19-64.43.41-.79.74-1.62.2-3.16-1.97,2.28-4.12,4.44-5.89,6.86-12.94,17.68-11.22,41.91,4.29,57.32,6,5.96,12.62,11.29,18.88,17,24.68,22.48,30.1,55.18,14.01,84.3-5.38,9.73-13.05,16.17-23.53,18.68,19.71-18.07,20.31-39.15,13.04-61.24-3.28-9.96-11.08-17.42-17.7-19.43,5.32,11.68,7.94,23.59,6.17,36.26-2.62,18.81-19.26,34.55-37.76,35.43-5.54.26-10.88-.39-15.34-5.88,1.85.12,3.03.02,4.11.3,10.46,2.68,18.53-1.35,24.84-9.3,6.27-7.89,7.26-17.3,1.79-25.33-5.5-8.07-12.45-15.66-20.21-21.57-15.74-12-25.25-27.22-28.07-46.58-1.46-10.02-.75-20.06,2.19-31.28,1.86,3.64,3.09,6.06,4.33,8.48.35.02.71.04,1.06.06.12-1.65.35-3.3.36-4.94.16-18.34,7.48-34.01,18.32-48.24,6.37-8.36,15.43-13.25,25.04-16.76,13.21-4.82,24.03-11.98,30.56-25.04,3.15-6.29,8.74-7.78,18.75-6.6-5.96,13.05-15.88,22.3-27.11,30.41.38.5.77,1.01,1.15,1.51,5.44-3.98,11.31-7.5,16.21-12.06,5.46-5.1,9.98-11.21,15.06-16.74.93-1.01,2.56-1.37,3.87-2.03.53,1.62,1.78,3.4,1.47,4.84-2.21,10.24-5.75,19.9-13.7,27.31-5.37,5-10.95,9.81-16.01,15.12-7.08,7.42-10.2,16.39-8.09,27.11.52-1.36,1.18-2.68,1.55-4.08,2.66-10.08,7.23-19.14,15.34-25.81,11.26-9.27,19.33-20.44,22.93-34.7.55-2.16,1.68-4.18,2.62-6.23.2-.43.76-.68,1.8-1.56,1.05,8.65,2.78,16.73,2.8,24.8.02,7.99-1.7,15.98-2.6,23.51,11.37-11.7,4.47-26.29,4.99-40.63,2.39,4.68,5.52,9.14,7.02,14.08,3.46,11.37,9.4,20.54,18.79,28.08,6.64,5.34,11.93,12.36,18.62,18.32-2.46-3.96-4.48-8.29-7.48-11.78-3.29-3.81-7.33-7.03-11.3-10.18-13.35-10.54-17.83-24.7-16.74-41.01.15-2.17,1.93-4.95,3.78-6.01.98-.57,4.04,1.62,5.61,3.14,1.87,1.8,3.5,4.04,4.61,6.39,5.38,11.35,14.68,17.98,26.2,21.69,23.74,7.64,38.98,23.99,48.69,46.32,1.63,3.75,3.96,7.2,6.63,11.96,2.56-3.32,4.97-5.66,6.43-8.49,4.53-8.81,4.98-18.41,2.05-27.52-3.55-11.05-8.5-21.65-12.98-32.39-2.08-4.99-4.47-9.84-6.8-14.95,13.41-2.59,33.97,17.81,41.93,35.05,8.33,18.03,6.73,36.58-.19,55.93,11.8-10.92,13.93-23.76,12.8-37.85-1.14-14.25-9.79-24.97-16.85-36.79,5.49-2.06,12.28,8,16.1-2.15,14.46,5.27,32.45,34.93,27.18,60.34.49.26.99.52,1.48.78,1.08-2.5,2.91-4.94,3.11-7.5,1.2-15.86-1.9-30.72-11.52-43.78-2.3-3.13-4.79-6.13-7.2-9.18.36-.54.71-1.09,1.07-1.63,2.35,1.23,5.14,2,6.97,3.77,10.38,10.05,18.04,21.68,19.74,36.49.25,2.21.71,4.39,1.27,7.73,3.6-24.81-8.09-40.91-26.71-54.43,9.37-3.68,18.82-6.52,25.33-14.76-.94-.73-1.44-1.3-2.08-1.56-.64-.27-1.4-.23-2.4-.37.89-.8,1.53-1.46,2.26-2.02,19.03-14.46,23.97-49.15.28-67.49-4.22-3.27-7.74-4.39-12.98,0-1.3-3.67-3.02-6.63-3.32-9.72-.7-7.3-.77-14.66-.98-22-.04-1.47.02-3.24.78-4.38,1.26-1.92,3.11-3.45,4.71-5.15,1.42,1.57,3.39,2.9,4.16,4.74,2.94,7.01,5.49,14.19,9.22,20.97-2.1-10.13-4.21-20.26-6.31-30.39.62-.2,1.23-.39,1.85-.59.87,1.15,1.73,2.29,3.11,4.12v-15.52c5.57,4.24,4.57,10.23,7.07,14.71,1.08-11.19-2.35-22.75,3.78-35.06,3.86,6.32,7.17,11.75,10.71,17.54-.94-11.49-8.54-21.48-5.41-33.69ZM493.86,762.7c-.17,1.84-.32,2.39-.26,2.92,1.43,12.83,3.97,25.64,4.06,38.48.12,17.37-6.77,32.24-21,43.03-4.64,3.52-9.63,6.6-14.14,10.28-6.82,5.57-14.16,10.79-19.82,17.4-10.14,11.86-9.29,27.78.86,39.78,9.01,10.66,21.68,12.98,34.62,6.34,6.37-3.27,6.48-3.58,3.51-10.31-9.95-22.61-2.68-42.16,19.28-53.19,5.28-2.65,10-6.61,14.51-10.51,1.57-1.35,1.72-4.35,2.52-6.59-.75-.52-1.5-1.04-2.25-1.56-8.69,11.15-20.4,17.94-32.42,24.44,2.19-3.92,4.8-7.32,7.59-10.57,20.56-23.96,23.78-54.24,8.59-81.9-1.4-2.55-3.35-4.79-5.65-8.03ZM339.52,873.67c.56-.09,1.11-.17,1.67-.26-.94-5.34-1.89-10.68-3.08-17.43-1.69,2.02-2.4,2.52-2.33,2.83,1.19,4.97,2.48,9.91,3.74,14.86Z"/>
  <path class="cls-2" d="M527.53,305.49c-10.91-3.2-21.71-1.2-32.36.89-18.29,3.58-36.43,7.86-54.7,11.57-32.78,6.65-65.07,4.18-97.21-4.75-20.15-5.6-40.73-9.38-61.87-8.76-14.61.43-22.45,2.34-31.16,8.01.1-9.58,10.27-24.49,19.72-28.9q-7.35-1.1-24.08,15.34c-6.3-7.49-10.02-15.19-7.9-25.68,2.84-14.1,9.97-24.58,22.26-31.57,9.29-5.28,18.56-10.76,28.32-15.04,13.45-5.89,27.15-4.88,40.56,1.07,13.19,5.85,26.67,10.8,41.46,7.97,4.51-.87,8.75-3.13,13.18-4.53,2.26-.71,4.66-1.08,7.02-1.33,4.25-.46,8.51-.82,12.78-1,1.39-.06,2.82.55,4.22.9,3.69.94,7.38,1.92,12.67,3.3-1.3-2.31-1.48-3.06-1.96-3.42-14.08-10.75-13.23-22.02-8.66-34.08,6.07-16,17.57-27.87,31.45-37.49,1.42-.98,3.57-1.51,5.3-1.35,14.92,1.36,29.83,2.93,46.54,4.62-3.23,2.46-4.97,4.03-6.93,5.23-9.15,5.62-18.48,10.94-27.48,16.77-4.55,2.94-8.9,6.38-12.73,10.21-11.03,11.04-12.86,17.55-10.02,33.61-6.29-4.3-7.26-10.73-7.07-16.62.2-6,1.72-12.3,4.18-17.79,2.46-5.49,6.79-10.14,10.98-16.12-14.19,7.63-25.25,16.63-28.93,32.14-2.59,10.93,8.17,25.53,18.7,22.87,11.78-2.97,23.9.02,35.56-5.06,7.92-3.45,17.57-3.65,26.49-3.93,9.94-.32,19.92.87,29.88,1.49,11.35.71,21.04,5.47,27.64,14.48,6.52,8.9,12.04,18.62,17.14,28.42,1.55,2.97,1.31,7.87,0,11.12-2.58,6.39-7.36,11.94-9.56,18.41-1.69,4.97-2.47,11.43-.73,16.15,4.21,11.42,10.1,22.22,15.39,33.23,2.59,5.39,5.35,10.69,8.03,16.03-.4.47-.79.94-1.19,1.4-2.37-1.42-4.98-2.55-7.06-4.31-4.3-3.65-8.16-7.83-12.49-11.44-9.64-8.03-22.17-8.38-33.22-2.35-9.21,5.03-18.95,9.08-28.55,13.37-3.72,1.66-6.73,1.18-6.53-5.13-3.66,2.1-6.74,3.71-9.66,5.56-10.53,6.67-21.3,12.52-33.67,15.46-14.55,3.47-20.35,11.91-20.17,26.92,0,.52-.17,1.05-.47,2.68-9.25-8.33-12.19-18.46-12.05-29.54.14-11.5,5.57-20.85,13.86-28.68-10.05,4.77-16.4,12.46-17.92,23.43-.87,6.3-.95,12.75-.93,19.13.01,4.37-1.18,6.77-6.01,6.67-15.41-.32-15.91,3.39-16.04-15.72-.03-4.33.38-8.67.19-12.99-.48-11.16-6.08-18.06-18.9-22.05,19.6,13.63,16.28,31.08,11.43,49.03-3.03-5.23-6.05-10.46-9.08-15.68-.45.25-.91.51-1.36.76,2.11,3.69,4.06,7.48,6.35,11.05,3.68,5.74,1.87,10.46-4.76,12.03-.78.18-1.65.6-2.16,1.18-6.85,7.89-12.84,10.14-22.21,5.66-13.2-6.31-26.42-12.94-38.51-21.1-16.26-10.96-32.84-20.67-52.28-24.42-6.59-1.27-13.33-1.72-19.98-2.54,2.18-11.51,20.34-19,31.81-12.57,6.56,3.68,13.36,7.03,19.51,11.31,5.15,3.59,9.99,7.88,14.13,12.6,11.83,13.48,26.26,22.39,43.69,26.33,6.02,1.36,8.1.38,9.68-2.3-3.09.13-7.14,1.39-10.37.27-18.12-6.25-33.07-16.31-39.26-35.8-.21-.66-.35-1.34-.05-2.68,17.18,11.47,34.31,22.67,56.59,21.67-3.66-1.27-6.96-3.25-10.37-3.44-10.78-.62-19.89-4.9-28.58-10.93-6.42-4.46-13.35-8.2-20.74-12.68-1.87,7.37-6.13,6.5-10.15,4.54-7.39-3.61-14.48-7.83-21.88-11.43-3.27-1.59-7.11-3.46-10.47-3.11-6.24.65-13.57,1.19-18.21,4.72-12.13,9.22-25.46,17.81-31.14,33.26-.43,1.16-1.1,2.23-2.13,3.15-.13-8.57,3.16-15.92,7.8-22.84,8.57-12.78,17.34-25.45,25.52-38.48,5.33-8.5,12.35-13.08,22.39-14.07,20.2-1.98,39.82.85,59.21,6.16,14.16,3.88,28.28,7.91,42.42,11.87,24.99,7,49.47,3.83,74.09-2.75,23.25-6.21,46.8-11.29,70.27-16.61,4.34-.98,8.97-.71,13.46-1.01ZM451.27,287.7c-44.23-.68-88.32-1.36-132.42-2.04,44.06,6.55,88.14,9.45,132.42,2.04ZM534.98,282.83c-1.69.63-1.86.69-2.03.76,6.75,2.52,13.49,5.05,20.24,7.57.15-.38.3-.76.46-1.13-6.6-2.54-13.2-5.09-18.67-7.2Z"/>
  <path class="cls-2" d="M311.8,448.48c2.08.56,4.17,1.64,6.24,1.6,9.98-.19,19.94-.68,29.92-1.08,4.22-.17,5.45-2.14,3.36-5.88-1.28-2.28-2.69-4.48-4.14-6.88,9.32,1.36,12.77,6.21,7.93,13.26-7.19,10.46-15.9,19.87-24.04,29.66-1.72,2.08-3.75,3.91-5.64,5.85.37.59.74,1.18,1.11,1.76,7.39-4.06,14.78-8.12,23.22-12.75v11c6.25-5.95,11.45-10.9,17.13-16.31,2.93,16.47,3.49,33,14.33,47,.47-3.58,1.51-7.19,1.3-10.73-.61-10.52-1.49-21.04-2.68-31.51-1.02-8.95-1.01-17.58,2.97-25.98,1.04-2.19,1.2-5.17.79-7.62-1.52-9.01,4.3-17.37,13.28-18.69,10.42-1.53,19.7.41,27.56,7.97,2.27,2.18,3.17,3.93,2.59,7.26-.74,4.29-.42,8.81-.24,13.21.5,12.38,1.34,24.75,1.7,37.14.28,9.84.06,19.7.98,29.57,5.88-21.98,4.4-44.45,4.86-68.22,7.16,7.68,8.51,16.17,10.06,24.76.93-2.97,1.86-5.94,3.46-11.02,7.21,11.02,15.99,17.87,27.48,22.22-6.84-9.08-12.85-17.9-19.74-25.97-7.31-8.55-7.44-12.11,1.3-19.33,1.44-1.19,2.9-2.38,4.87-3.23-1.33,2.26-2.94,4.4-3.92,6.8-1.77,4.36.08,6.08,4.71,5.77,4.97-.33,9.99.24,14.99.29,2,.02,4-.31,5.24-.41-2.74-3.32-7.76-6.78-7.74-10.19.02-2.99,5.73-5.93,9.02-8.97,5.02,7.23,9.32,13.42,14.28,20.57,18.24,5.34,30.43-1.14,36.73-20.71.36-.06.78-.26,1.08-.15,10.87,4.15,11.28,6.41,2.34,13.87-2.67,2.24-5.66,4.1-8.51,6.13l.74,1.38c5.22-2.73,10.38-5.56,15.67-8.15,2.34-1.14,4.92-1.79,7.83-1.72-2.88,6.95-8.33,10.41-14.64,12.43-19.36,6.19-38.89,8.09-58.99,3.14-5.51-1.36-11.65-.21-17.5-.21,0,.81,0,1.61,0,2.42,2.92,0,5.84-.07,8.76.01,6.73.2,13.46.61,20.19.68,12.77.13,25.56.35,38.32.02,7.73-.2,15.95.83,22.58-5.51-2.25,8.95-7.87,14.81-16.03,17.31-6.75,2.07-13.98,3.09-21.05,3.42-7.07.33-14.2-.77-21.73-1.27,20.65,6.52,40.23,6.27,58.59-5.81,2.08-1.37,3.59-3.75,5.06-5.88,2.57-3.71,5.11-7.47,7.31-11.41,2.49-4.46,5.44-6.53,10.92-4.99,9.21,2.59,15.81-2.81,22.13-8.41.53-.47,1.29-1.44,1.12-1.81-2.27-4.99,2.34-6.22,4.43-9.09,20.4,39.77-6.05,96-45.19,106.54-6.75,1.82-8.35,5.51-6.37,11.84,2.69,8.59,5.36,17.18,8.07,25.77.2.63.66,1.19,1.86,3.28.26-10.71,1.51-19.76,9.48-25.57,4.11-2.99,9.03-4.86,13.59-7.24.44.42.89.84,1.33,1.26-.6,4.21-1.14,8.44-1.87,12.63-.13.75-1,1.85-1.66,1.94-8.69,1.29-10.71,8.43-13.65,14.98-1.25,2.78-3.89,4.95-5.06,7.75-2.04,4.86-4.78,9.99-4.76,15,.02,7.21,1.88,14.5,3.62,21.59,1.69,6.9,2.4,13.59.24,20.52-7.91-2.29-12.68-6.42-15.89-14.37-7.85-19.45-18.51-37.51-34.72-51.38-17.43-14.92-35.27-29.35-52.99-43.93-5.48-4.51-11.02-3.65-16.63.07-9.99,6.62-11.79,16.96-3.39,28.05-.6-4.69-1.02-7.9-1.43-11.11-1.04-8.25,5.27-14.13,13.39-12.47,12.6,2.57,22.7,21.42,17.8,33.28-.33.8-1.13,1.41-.73.93-6.68-.82-12.3-1.8-17.96-2.05-2.27-.1-4.9.93-6.85,2.23-5.45,3.65-10.88,7.41-15.88,11.65-15.84,13.42-40.3,8.02-48.05-11.24-1.7-4.23-1.17-9.48-1.12-14.26.1-9.92.64-19.83.68-29.74,0-.68-2.86-2.18-4.11-1.93-13.15,2.69-25.86,5.95-36.04,16.02-18.46,18.26-38.21,35.24-56.14,53.98-12.64,13.21-23.17,28.45-34.51,42.62-3.56-26.68,4.94-51.47,14.93-75.97.14-.35.27-.71.44-1.04,7.4-13.64.65-18-9.8-20.93-37.85-10.61-59.26-47.82-49.39-86.02.41-1.59,1.01-3.12,2-6.12,5.01,10.44,12.31,8.9,19.94,5.89.17-.07.36-.1.55-.14,10.41-2.3,10.14-2.12,15.9,6.58,4.02,6.06,8.92,11.54,13.83,17.8-2.32,1.61-4.38,3.03-5.39,3.73,5.61,3.07,11.48,6.28,18.26,9.98-3.48-4.57-6.36-8.34-9.24-12.12.42-.66.85-1.32,1.27-1.98,3.42.88,6.95,1.47,10.25,2.67,19.8,7.21,38.02,2.15,56.99-6.98-12.16,2.62-23.05,5.65-34.15,7.17-11.65,1.59-22.66-.58-30.68-10.04l.17-2.06c3.16-.29,6.31-.68,9.48-.87,12.55-.76,25.11-1.43,37.66-2.23.77-.05,1.5-.93,2.27-1.42,6.46,1.14,29.42-.88,32.66-3.71-4.94.25-8.81.2-12.61.68-6.69.84-13.34,2.01-20,3.04-7.65.14-15.46,1.36-22.89.17-10.3-1.65-20.4-4.82-30.4-7.93-4.67-1.45-8.1-4.95-9.28-12.19,7.55,5.53,13.13,12.05,22.79,11.07-7-2.26-13.04-5.5-12.78-13.01.2-5.77,6.14-6.81,10.99-9.02,2.5,9.79,6.22,19.35,15.61,23.32,7.42,3.14,16.02,2.54,23.69-1.56h0ZM534.2,486.21c9.1-3.23,18.42-7.66,24.79-17.17-2.26-.64-3.96-1.12-5.67-1.6.25.45.51.89.76,1.34-6.79,5.96-13.59,11.91-19.88,17.43Z"/>
  <path class="cls-2" d="M225.52,689.45c-16.53,13.99-24.09,31.62-21.36,53.08.76,5.96,2.48,11.77,8.33,16.33-.15-1.47-.07-2.27-.32-2.95-5.38-14.87-4.18-29.68.86-44.27,1.32-3.81,3.75-7.36,6.21-10.62,2.68-3.55,6.16-4.56,10.94-3.22,5.7,1.59,11.79,1.8,18.81,2.75-7.92,14.44-18.87,27.68-14.38,46.01,1.72-7.46,3.3-14.35,4.89-21.25.72-.03,1.44-.05,2.16-.08-.76,10.91.42,21.27,8.54,31.29-5.5-14.49-1.67-26.93,2.08-39.5,4.42-14.79,18.08-17.76,29.39-23.95-16.97,20.6-20.65,29.96-18.51,45.62,2.02-7.19,3.69-15.61,6.79-23.46,3.23-8.17,9.26-14.36,17.65-18.27-2.91,11.08-5.69,21.67-8.48,32.26.46.16.92.32,1.38.48,5.41-14.76,9.71-30.31,24.99-37.9.95,8.27,2.01,16.04,2.61,23.84.15,1.95-.66,4.41-1.89,5.95-2.1,2.61-4.92,4.64-7.36,6.98-7.76,7.44-13.03,16.27-13.26,27.21-.13,6.34-1.66,11.43-5.17,17.02-9.02,14.34-10.29,30.48-6.74,46.89,2.5,11.56,6.82,22.33,15.68,30.73,1.14,1.08,1.9,2.55,2.83,3.84-.34.46-.69.91-1.03,1.37-5.29-3.27-10.58-6.55-15.88-9.82-.36.35-.71.7-1.07,1.05,4.16,3.64,7.98,7.8,12.56,10.78,5.96,3.89,12.67,6.62,18.78,10.3,2.76,1.66,4.85,4.42,6.66,7.32-20.23-3.26-37.77-10.56-49.44-28.21-11.15-16.86-16.37-35.19-14.86-55.55-6.06,11.39-5.14,23.53-5.25,35.86-5.84-5.98-7.71-13.97-11.62-21.2.3,4.2.47,8.42.92,12.61,1.67,15.58-.6,29.78-13.89,40.15-1.54,1.2-3.29,2.13-4.94,3.19-.37-.34-.74-.68-1.1-1.02,1.85-2.87,3.6-5.8,5.55-8.59,7.25-10.39,6.56-31.17-1.37-40.95-19.1-23.54-27.51-49.77-20.17-79.98.16-.65.02-1.38.02-3.43-10.27,11.22-16.86,22.94-19.29,36.82-2.5,14.28,1.99,27.05,9.01,39.34-14.03-7.02-23.14-17.8-25.06-33.49-2.51-20.62.44-40.2,13.28-57.4-5.02.42-6.71,1.59-13.51,10.12-3.72,4.66-7.2,9.52-11.39,15.08-4.54-16.79-1.82-32.1,3.72-47.32,5.55-15.23,16.39-26.77,26.02-39.63-2.7,1.71-5.4,3.43-8.97,5.69.79-5.48,1.44-10.02,2.09-14.56-.35-.16-.69-.31-1.04-.47-1.48,3.34-2.97,6.67-4.45,10.01-.36-.02-.71-.05-1.07-.07,0-3.23-.5-6.55.08-9.67,2.8-15.07,9.89-28.31,17.61-41.94-2.07,1.48-4.38,2.73-6.18,4.49-10.04,9.85-15.43,22.13-18.09,35.73-1.11,5.65-2.01,11.35-4.42,17.38-1.16-4.33-3.14-8.63-3.33-13.01-.8-18.23,6.15-33.42,19.5-45.69,5.55-5.1,11.43-9.78,12.12-18.2.28-3.46.52-6.06-1.32-9.75-1.9-3.79.36-9.69.92-14.66.14-1.25.74-2.44,1.59-5.08-5.12,6.01-9.86,9.95-17.7,9.07,1.7-1.95,2.97-3.48,4.32-4.95,6.63-7.24,10.71-15.76,13.49-25.14,2.26-7.63,3.74-15.84,12.18-20.83-2.2,10.05-4.41,20.09-6.45,29.4,2.7-3.05,5.92-6.7,9.14-10.34.79.33,1.58.66,2.37,1-.92,4.13-1.9,8.25-2.75,12.39-.86,4.14-1.61,8.3-2.4,12.46.42.21.84.41,1.26.62,3.15-3.43,6.3-6.86,9.45-10.29.58.21,1.17.42,1.75.63-.26,2.18-.16,4.47-.83,6.51-2.52,7.69-5.55,15.22-7.86,22.97-1.41,4.72-1.84,9.73-1.9,14.83,3.45-11.54,7.14-22.7,16.97-30.3l2.05.58c-.39,2.45-.51,4.98-1.24,7.32-2.53,8.19-5.27,16.32-7.16,24.8,5.42-8.18,5.79-19.46,17.53-25.3.53,6.45.99,11.95,1.52,18.36,2.38-1.96,4.14-3.41,5.93-4.89,4.74,8.82,3.06,17.91-4.25,23.04-.7-2.17-1.38-4.32-2.34-7.29-16.93,11.06-28.12,24.69-29.62,44.8-1.72,23,5.88,36.24,28.15,48.13Z"/>
  <path class="cls-2" d="M513.13,125.25c-8.77,6.18-18.12,8.66-28.82,7.84-14.06-1.08-24.96-7.31-34.29-17.44-2.03-2.21-5.5-4.16-8.4-4.31-10.13-.52-20.31-.2-29.04-.2.24.04,1.97.34,3.76.66-3.99,10-12.32,16.53-20.9,16.61-10.47.09-16.82-4.29-21.3-15.02,2.05-.64,4.07-1.28,6.08-1.91,0-.34,0-.69,0-1.03-2.05,0-4.11-.09-6.15.02-5.08.28-10.15.7-15.22.96-6.96.35-12.47,1.51-17.39,8.32-9.83,13.6-24.92,15.09-40.32,12.19-4.06-.77-7.67-3.94-11.49-6.01.16-.75.31-1.5.47-2.24,9.95-1.59,19.91-3.18,29.86-4.77.15.35.3.71.46,1.06-2.95,1.79-5.89,3.59-8.84,5.38.22.41.44.83.67,1.24,4.16-2.37,8.2-4.99,12.5-7.05,4.37-2.1,9-3.65,15.01-6.04-2.49-.5-3.49-.97-4.39-.83-28.45,4.39-57.39,6.58-84.85,15.82-22.98,7.73-46.22,15.3-68.04,25.69-15.74,7.5-29.33,19.51-43.86,29.53-1.29.89-2.45,1.97-4.65,2.1,1.13-1.54,1.99-3.41,3.43-4.57,12.16-9.73,23.83-20.23,36.78-28.78,31.48-20.77,67.24-30.62,103.74-37.84,37-7.33,74.35-12.09,112.14-12.47,47.97-.48,95.48,3.75,142.61,13.04,37.46,7.38,73.14,19.07,105.91,38.91,22.8,13.8,42.85,30.64,57.33,53.36,2.66,4.17,4.59,8.82,6.41,12.36-6.39-7.55-13.03-15.82-20.12-23.67-17.84-19.73-39.87-33.92-63.51-45.35-49.15-23.77-101.63-34.78-155.82-38.49-1.08-.07-2.18,0-3.73,1.13,1.25.68,2.43,1.68,3.76,1.97,2.93.64,5.94.93,8.92,1.36,3.88.57,7.2.88,9.44,5.57,2.82,5.91,9.59,6.98,14.97,3.46-4.95-1.22-11.64,1.18-13.46-8.22,9.73,1.58,18.49,2.94,27.23,4.46,3.3.57,6.53,2.05,9.82,2.16,7.62.25,13.2,3.43,17.45,9.71,5.76,8.52,13.28,14.59,23.65,17.11,9.69,2.36,16.9-.52,22.76-9.26-21.06,13.89-34.37,2.35-46.39-13.94,3.01.53,6.05.91,9.01,1.6,17.58,4.12,35,8.82,51.13,17.18,2.45,1.27,4.87,3.57,6.15,6,4.76,9.03,11.18,16.53,19.41,22.43,7.65,5.49,12.71,5.32,19.77-.8,2.34-2.03,4.08-2.09,6.41-.46,4.39,3.08,8.31,5.2,7.66,12.61-1.03,11.74,10.24,20.96,22.2,20.16,5.05-.34,8.91,2,10.02,6.49,1.7,6.83,2.2,13.96,3.2,20.96-.51.3-1.02.6-1.52.91-1.6-1.26-3.43-2.32-4.75-3.82-19.04-21.69-41.86-38.07-68.01-50.33-68.5-32.1-141.43-40-215.8-40.54-52.09-.37-103.39,5.68-153.62,19.51-31.72,8.73-62.1,20.84-89.35,39.79-3.05,2.12-6.26,4.65-10.3,0,1.64-1.41,3.01-2.87,4.65-3.93,8.5-5.46,16.39-11.7,26.22-15.2,11.07-3.94,18.85-12.15,23.27-23.28.9-2.26,1.86-4.58,3.27-6.54,3.18-4.44,5.84-4.67,10.06-1.17,5.85,4.85,12.26,6.67,19.95,5.14,12.6-2.51,23.18-7.6,29.5-19.48,3.81-7.17,10.82-8.92,18.05-9.88,1.39-.18,3.3.73,4.41,1.75,14.33,13.03,32.64,14.23,48.43,2.67,3.74-2.74,6.89-6.36,10.07-9.8,3.46-3.73,18.46-7.72,22.61-5.29,1.97,1.15,3.38,3.47,4.67,5.5,9.97,15.61,28.49,16.64,39.92,2.29,2.38-2.99,5.24-7.72,8.05-7.85,8.53-.39,17.14,1.01,25.7,1.95,1.03.11,2.09,1.59,2.81,2.65,8.43,12.48,21.06,16.32,35.15,17.1,3.56.2,7.17.24,10.72-.05,7.38-.61,13.02-4.23,16.7-10.89Z"/>
  <path class="cls-2" d="M700.07,300.83c-7.7.22-14.72-.8-20.56,4.61,1.75.1,3.49.28,5.24.28,25.14,0,44.99,13.87,53.52,37.5,1.41,3.89,2.4,7.94,3.93,11.78,4.06,10.22,8.62,20,22.33,19.75.16.62.32,1.24.48,1.86-3.02,1.63-5.88,4.15-9.09,4.71-9.74,1.71-20.04-4.95-23.86-15.1-1.85-4.91-3.04-10.08-4.46-15.15-2.2-7.83-7.51-12.24-15.42-12.7-5.76-.34-11.73-.17-17.35,1.01-11.48,2.4-21.95,1.12-31.91-5.33-2.71-1.76-6.32-2.13-9.73-2.54,10.91,16.59,24.5,27.75,45.63,25.55,6.19-.65,12.26.63,16.19,4.84-4.04,1.19-8.56,1.75-12.31,3.75-16.37,8.73-32.2,6.41-42.27-6.54-.31-.4-.93-.57-.53-.34v20.83c-.32.04-.64.07-.95.11-1.2-4.11-2.17-8.31-3.67-12.31-1.52-4.05-3.57-7.91-5.95-11.52,2.35,7.15,4.71,14.3,7.06,21.45-.43.3-.85.61-1.28.91-6.33-15.22-19.65-21.83-32.82-29.37-8.32-4.76-14.69-12.93-21.31-19,1.02,7.11,7.37,12.72,12.26,19.14l-1.43,1.37c-3.56-3.5-7.81-6.55-10.52-10.62-4.68-7.01-6.91-15.17-6.12-23.65.95-10.08,1.84-19.97-5.47-28.63.42-.46.85-.92,1.27-1.39,3.58,1.5,7.62,2.37,10.64,4.62,5.55,4.14,10.62,8.96,15.67,13.73,9.21,8.69,19.39,14.94,32.68,14.02.9-.06,1.8-.21,2.77-.65-14.02-1.09-25.93-6.74-35.29-16.95-6.45-7.04-11.99-14.91-17.54-23.42,9.33,4.37,19.5,7.54,27.78,13.38,12.97,9.14,25.65,10.21,39.87,4.3,4.95-2.06,10.4-3.21,15.73-3.95,7.34-1.02,12.42,2.92,16.79,9.68ZM610,308.32c16.07,21.5,38.71,24.51,57.45,8.76-20.48,5.73-40.03,5.64-57.45-8.76ZM642.72,350.59c.41-.47.82-.94,1.23-1.42-11.59-8.23-23.19-16.46-34.78-24.69,6.56,14.79,20.63,19.69,33.55,26.11Z"/>
  <path class="cls-2" d="M94.12,373.45c3.07,1.23,6.05,2.83,9.23,3.62,14.98,3.71,27.79-.91,37.85-11.92,7.13-7.8,12.92-16.84,19.3-25.32-.38-.38-.75-.76-1.13-1.15-4.47,2.93-8.99,5.78-13.4,8.79-11.75,8.04-24.2,13.68-38.96,12.57-16.82-1.27-31.53-12.2-35.51-26.99-.9-3.36-2.52-7.25,2.08-10.13.7,1.17,1.29,2.09,1.81,3.03,5.74,10.35,14.61,14.85,25.98,11.77,8.62-2.34,16.84-6.14,26.06-9.6-13.67-7.02-27.27.66-40.15-2.77,8.71-2.74,13.4-8.64,16.72-16.44,6.69-15.7,14.87-18.91,30.92-12.8,4.51,1.72,9.11,3.22,14.26,5.02-12.31,6.52-27.06.56-38.44,8.2,24.75,1.7,46.61-5.88,66.14-21.27,4.44-3.5,10.13-5.59,15.5-7.69,6.58-2.57,13.42-4.48,21.61-7.14-2.29,2.28-3.61,3.88-5.2,5.14-12.97,10.3-25.72,20.92-39.14,30.6-4.96,3.58-11.47,5.14-17.44,7.12-2.76.92-5.92.63-8.85,1.18,9.85,1.99,19.1.76,27.11-5.73,7.02-5.68,13.72-11.75,20.73-17.43,6.28-5.09,13.66-6.28,21.32-5.93.43.61.85,1.23,1.28,1.84-2.54,2.13-4.85,4.64-7.65,6.32-11.27,6.75-22.4,13.84-34.15,19.67-11.38,5.64-23.68,7.27-36.92,3.96,1.15,1.19,2.08,2.84,3.48,3.5,12.55,5.91,25.28,9.62,37.76.05,8.2-6.29,15.9-13.23,24.13-19.48,4.45-3.38,9.54-5.92,14.77-8.13-6.52,16.31-13.89,31.19-31.33,38.22-11.6,4.68-19.46,13.8-24.55,25.34-2.2,4.97-5.1,9.65-7.85,14.36-11.05,18.93-35.85,22.4-51.7,7.21-2.24-2.14-4.16-4.62-6.22-6.95.18-.22.37-.44.55-.65Z"/>
  <path class="cls-2" d="M312.51,584.2c-11.62,11.94-15.53,17.9-16.56,26.7,1.96-2.6,3.96-5.17,5.86-7.81,7.61-10.59,16.07-20.08,29.81-22.48,4.52-.79,9.22-1.88,12.93,1.71-5.27,3.89-10.39,7.69-15.52,11.48.3.42.6.84.9,1.26,6.5-2.35,12.91-6.29,19.51-6.62,6.81-.34,13.79,2.83,21.3,4.6-2.13,3.89-4.02,7.33-6.58,12.01,3.09-1.11,4.76-1.8,6.48-2.29,1.43-.41,3.4-1.31,4.32-.73,7.81,5,16.93,2.59,26.84,5.28-2.4,3.53-3.86,7.92-6.84,9.63-7.27,4.14-15.25,7.04-24.22,11.01,1.42-5.01,2.5-8.82,3.84-13.56-8.35,6.21-13.52,15.42-24.85,17.07,3.89-7.32,7.35-13.84,10.81-20.36-.36-.28-.72-.57-1.08-.85-5.03,4.31-10.06,8.62-15.53,13.31.52-2.73.97-5.11,1.61-8.53-9.75,8.32-13.24,20.87-25.02,26.71,1.14-6.29,2.28-12.57,3.43-18.86-.4-.14-.8-.29-1.21-.43-5.93,15.16-11.87,30.33-17.8,45.49-.57-.19-1.14-.39-1.71-.58,1.44-12.49,2.88-24.98,4.29-37.2-9.43,14.24-16.09,32.17-35.04,39.24,2.91-3.76,5.82-7.53,9.42-12.19-9.14,4.15-16.99,7.72-24.85,11.29-.38-.6-.76-1.21-1.13-1.81,11.83-6.35,21.11-14.77,23.96-27.69-3.88,3.58-7.75,8.26-12.61,11.37-6.87,4.39-14.11,9.45-21.84,11.02-23.96,4.85-41.22-15.99-33.83-40.05,1.48-4.83,4.34-9.23,6.56-13.83.59.26,1.19.51,1.78.77-.62,2.29-1.29,4.57-1.84,6.87-3.89,16.2,4.55,30.71,19.68,33.9,17.07,3.59,33.32-6.2,35.67-22.54,3.14-21.88,15.71-35.08,35.91-42.09.53-.18,1.08-.33,1.64-.41.35-.05.73.08,1.54.19Z"/>
  <path class="cls-2" d="M519.46,653.86c1.57,2.22,2.98,4.58,4.76,6.63,1.78,2.06,3.93,3.81,5.32,6.23-17.29-13.2-29.41-30.95-41.73-48.53-.54.29-1.08.57-1.62.86,4.84,11.03,9.69,22.07,14.94,34.04-3.65-3.49-7.21-6.43-10.19-9.86-3.33-3.83-6.03-8.18-9.19-12.16-3.03-3.82-6.3-7.45-10.14-10.81,2.64,5.88,5.28,11.76,7.92,17.65l-1.59,1.57c-10.28-7.82-20.56-15.63-30.84-23.45-.36.29-.73.58-1.09.87,1.91,3.65,3.81,7.29,5.79,11.09-9.29.57-22.25-15.79-22.77-28.69,3.8,1.21,7.47,2.38,11.14,3.54.27-.5.55-1,.82-1.51-1.91-1.57-3.83-3.15-6.6-5.43,4.55-3.66,8.61-7.94,13.53-10.66,7.5-4.14,14.37-1.47,20.74,3.73,7.98,6.52,16.31,12.62,24.88,18.45-7.03-10.76-16.5-18.93-27.51-25.47.1-.66.2-1.32.3-1.98,6.47.29,13.14-.32,19.38,1.04,19.65,4.31,34.92,15.34,45.83,32.28,3.47,5.38,6.57,11,10.15,16.29,4.73,6.98,10.54,12.86,19.02,15.14,18.02,4.84,38.31-6.36,33.71-30.76,9.53,10.58,6.25,29.15-6.74,37.83-8.89,5.94-18.85,7.8-28.52,3.59-8.47-3.68-16.06-9.42-23.94-14.4-1.69-1.06-2.98-2.75-4.86-3.85,1.5,7.35,5.28,13.57,11.24,17.74,5.71,4,12.35,6.67,19.7,10.52-16.97,4.96-29.3-2.84-41.85-11.54Z"/>
  <path class="cls-2" d="M187.28,85.46c-6,21.3-29.73,21.97-40.92,8.64,1.25,8.23.52,16.97,6.13,24.11.98,1.25,3.05,2.37,4.61,2.35,16.62-.23,20.64,1.32,34.56,14.31-8.54,3.21-14.88-4.67-22.18-3.52-.22,2.06-.43,4.16-.65,6.25-2.26-.62-4.6-1.04-6.74-1.93-2.74-1.14-5.33-2.66-7.98-4.02-.58.27-1.17.53-1.75.8,1.68,4.91,3.15,9.89,5.11,14.68,1.11,2.72,3.93,5.38-.44,7.39-4.51,2.07-5.29-2.18-5.88-4.67-2.2-9.3-3.9-18.72-5.74-28.1-.5-2.55-.8-5.13-1.65-7.73-2.57,14.63-6.55,28.63-15.16,40.86-8.66,12.29-18.84,22.6-34.66,24.69-.47,22.81-12.89,38-40.32,49.03,11.51,10.2,24.21,11.23,38.32,6.5-1.54,6.37-5.66,9.04-10.48,11.02-15.98,6.54-38.69-4.03-44.14-20.47-1.43-4.3-.41-7.07,4.29-7.75,18.9-2.76,30.8-14.62,37.92-31.11,4.55-10.55,9.52-18.4,20.69-24.18,17.58-9.08,24.5-27.28,29.23-45.72,1.58-6.18,2.07-12.63,3.42-18.88.83-3.83,1.91-7.72,3.62-11.22,4.48-9.23,15.34-10.4,21.58-2.29,3.89,5.05,8.81,6.17,14.52,4.93,4.71-1.02,9.32-2.49,14.71-3.97Z"/>
  <path class="cls-2" d="M570.27,362.14c-2.43.56-5.64,1.29-8.85,2.03,0,.52-.02,1.04-.03,1.57,2.4.33,4.79.84,7.2.95,10.54.45,17.45,5.68,21.62,15.32,3.77,8.73,8.1,17.22,12.32,26.09-4.17,1.43-7.86.95-10.64-3.05-2.04-2.93-4.09-5.87-6.07-8.84-11.52-17.29-28.71-22.6-48.22-14.77-11.52,4.62-22.97,9.41-34.46,14.08-1.69.69-3.47,1.17-6.73,2.25,16.17-13.43,31.06-25.81,46.86-38.94-13.7,4.07-25.67,9.19-36.3,17.43-10.23,7.93-20.38,16.08-31.26,23.04-6.69,4.28-14.53,7.07-22.17,9.5-7.15,2.28-13.43-.44-16.91-5.77-3.26-4.98-3.05-11.61,1.84-17.23,3.2-3.67,7.37-7.72,11.81-8.84,13.92-3.54,26.24-10.13,38.37-17.37.92-.55,1.87-1.03,3.52-1.92-7.97,18.8-24.01,27.99-39.97,37.26.32.78.64,1.56.96,2.35,2.97-.54,6.26-.43,8.86-1.72,12.12-6.02,22.4-14.31,30.61-25.26,2.2-2.94,5.76-5.1,9.08-6.9,9.04-4.88,18.56-8.91,27.38-14.13,10.15-6.02,22.96-9.19,33.21,3.6,2.58,3.22,5.38,6.25,7.98,9.26Z"/>
  <path class="cls-2" d="M86.25,562.11c1.12-1.39,2.22-2.81,3.37-4.18,8.55-10.11,10.14-21.12,4.15-33.04-2.03-4.04-4.01-8.12-6.35-11.97-17.29-28.39-11.53-75.41,26.45-97.21,1.71-.98,3.6-1.63,5.41-2.43.38.51.76,1.01,1.13,1.52-4.38,3.97-8.76,7.93-13.92,12.6,13.55-3.6,25.99-6.91,39.37-10.46-2.43,7.85-6.92,13.35-13.04,17.96-7.65,5.76-15.23,11.66-22.38,18.01-3.57,3.17-6.12,7.48-9.34,11.54,1.09.25,1.61.48,1.7.37,7.83-10.05,18.13-15.92,30.36-19.3,8.23-2.28,14.72-7.92,18.67-15.52,4.67-8.99,8.51-18.42,12.68-27.67,1.29-2.86,2.48-5.76,4.33-10.08,4.17,6.15,5.63,11.58,4.23,17.38-5.44,22.57-18.25,38.42-41.46,44.61-8.86,2.37-15.89,7.26-20.97,15.17-12.93,20.13-17.11,40.99-7.23,63.78,4.29,9.88-1.16,23.76-10.57,28.78-1.74.93-3.96.97-5.96,1.42-.22-.43-.43-.86-.65-1.28Z"/>
  <path class="cls-2" d="M426.96,63.59c.32-1.52.11-3.66,1.05-4.47,10.69-9.26,22.03-16.42,37.28-16.01,18.64.51,27.44,27.36,20.79,38.7-4.03,6.88-12.8,9.23-19.61,4.99-3.71-2.31-3.76-5.58-1.39-8.67,2.92-3.81,6.3-7.27,9.5-10.89-4.3-6.38-21.03-10.45-29.04-6-8.95,4.98-17.23,11.15-26.48,17.26-2.57-2.46-6.03-5.87-9.6-9.16-7.41-6.81-15.63-11.79-26.22-11.13-8.94.56-16.93,6.83-19.85,16.52,15.01-8.08,21.98,1.58,30.17,13.03-13.62-.33-25.81,3.56-37.59-2.87-4.82-2.63-6.11-6.21-5.42-11.66,2.31-18.21,29.44-35.98,44.11-33.98,3.38.46,7.15,1.7,9.72,3.82,6.22,5.11,11.8,10.99,17.71,16.49,1.54,1.43,3.34,2.59,5.01,3.89.3,1.26.62,2.5,1,4.03,4.96-3.87,9.28-7.25,13.59-10.62-2.85.63-5.1,2.19-7.49,3.47-2.33,1.24-4.82,2.2-7.23,3.29Z"/>
  <path class="cls-2" d="M423.34,54.31c-6.74-5.38-13.49-11.74-21.15-16.7-17.51-11.33-47.92-11.08-63.45,11.66-2.33,3.41-5.03,6.68-6.75,10.39-3.38,7.33-9.46,8.87-17.56,9.12,5.39-13.67,11.17-26.36,21.06-36.67,20.17-21.04,55.03-22.2,77.81-2.75,8.88,7.58,8.85,7.53,18.87,2.11,10.63-5.75,21.86-9.09,34.11-7.88,17.62,1.73,28.8,11.76,35.17,27.68,1.46,3.63,2.27,7.57,3.01,11.44,2,10.56,1.25,11.25-9.94,9.68-.24-1.17-.58-2.42-.74-3.7-3.26-26.26-25.81-39.07-49.48-27.62-7.35,3.56-13.92,8.73-20.97,13.24Z"/>
  <path class="cls-2" d="M694.23,653.81c1.8,8.24,4.5,16.75,5.27,25.44.56,6.3-.39,13.2-2.53,19.17-3.44,9.61-8.42,18.67-13.92,27.52.46-1.73.76-3.53,1.42-5.19,8.51-21.38,5.19-41.53-8.65-59.1-12.98-16.49-21.76-35.08-31.01-53.55-.58-1.15-.93-3.34-.29-4.01,4.11-4.31,3.06-9.37,2.72-14.43-.18-2.69-.03-5.4-.03-8.1.61-.13,1.23-.26,1.84-.39.92,1.47,1.95,2.88,2.74,4.41,8.76,17.21,20.72,31.68,35.96,43.64,10.92,8.57,20.88,18.28,23.15,32.9.94,6.05.91,12.37.36,18.47-.29,3.21-2.66,6.24-5.25,9.3-2.2-13.01-3.88-25.79-11.75-36.08Z"/>
  <path class="cls-2" d="M122.06,683.52c-9.92-9.45-14.77-21.69-18-34.85-4.81,21.41-2.1,41.43,9.96,60.25-1.1-.77-2.31-1.43-3.27-2.34-16.89-15.94-29.07-34.07-27.62-58.68,1.1-18.7,9.65-33.77,22.59-46.67,9.48-9.45,19.37-18.57,24.25-31.5,1.91-5.05,3.33-10.29,5.02-15.63,2.81,7.38,2.8,14.97.7,22.19-2.93,10.07-5.87,20.36-10.6,29.65-16.07,31.57-16.81,42.88-3.03,77.58Z"/>
  <path class="cls-2" d="M183.56,113.42c-.76-10.88,4.4-19.87,10.46-27.91,6.64-8.81,14.37-16.91,22.29-24.62,9.1-8.85,20.58-12.95,33.22-13.64,19.16-1.04,35.82,17.83,33.34,37.69-2.08,16.67-11.15,25.57-26.92,26.39-4.89.26-10.27-2.93-10.78-6.39-.53-3.65,3.43-8,8.73-8.83,3.26-.51,6.66-.09,10.57-.09-6.06-13.27-17.04-14.58-29.59-13.37,4.19-5.66,9.49-10,15.93-10.23,5.97-.21,12.04,2.32,17.73,3.57-.79-7.89-8.42-14.66-18.16-14.7-9.9-.04-18.31,4.15-25.71,10.24-13.58,11.19-25.79,23.7-34.3,39.29-1.88,3.45-3.84,4.01-7,2.41l.18.18Z"/>
  <path class="cls-2" d="M732.58,638.78c0-5.96.45-12.68-.09-19.31-1.4-17.36-11.58-29.68-24.01-40.67-5.62-4.97-11.36-9.95-16.2-15.65-11.75-13.83-13.42-37.03-4.15-53.47,1.4,4.05,2.51,7.87,4.02,11.53,4.79,11.59,12.78,20.64,22.46,28.46,5.97,4.82,11.98,9.79,17.07,15.49,17.98,20.13,18.55,51.72,1.75,72.8-.54.68-1.27,1.21-.85.82Z"/>
  <path class="cls-2" d="M651.39,107.95c-.98.52-2.67,1.24-4.15,2.24-7.8,5.23-16.85,4.73-25.58,5.53-.98.09-2.79-1.31-3.07-2.33-1.12-4.09-1.8-8.3-2.84-13.46,9.38,6.16,17.41,3.76,25.33-.55,1.15-.63,2.27-1.34,3.45-1.9,9.71-4.62,16.35-1.46,19.12,8.91,6,22.51,18.54,39.86,40.56,48.83,6.85,2.79,14.53,3.61,21.88,5.03,5.96,1.15,8.01,3.41,7.77,9.54-.58,14.6-13.64,28.55-28.2,30.15-4.57.5-8.25-2.36-12.92-10.2,12.06-2.41,23.49-5.95,31.71-16.82-42.52-1.63-62.28-27.75-73.05-64.97Z"/>
  <path class="cls-2" d="M398.98,225.27c-6.25-4.35-12.17-8.46-18.09-12.58l-.99.49c3.07,4.7,6.14,9.39,9.74,14.9-2.12-.87-3.81-1.17-4.96-2.12-3.17-2.62-6.53-5.18-9.07-8.36-6.65-8.32-12.22-17.61-19.51-25.29-7.28-7.67-15.9-14.14-24.38-20.56-4.55-3.44-10.03-5.65-16.41-9.14,2.97-.76,4.47-1.32,6-1.5,7.84-.94,15.86-1.05,23.51-2.79,19.66-4.48,42.92,15.19,45.94,33.19.84,5.01,1.41,10.08,2.62,14.99,1.46,5.93,3.46,11.72,5.59,18.77Z"/>
  <path class="cls-2" d="M558.28,57.87c10.32.4,18.65,3.72,25.99,9.3,16.43,12.5,25.54,29.32,28.29,49.62.39,2.88,0,6.08-.93,8.83-.58,1.71-3.29,4.25-4.25,3.94-1.95-.63-3.94-2.67-4.84-4.62-1.15-2.49-1.14-5.5-1.83-8.23-4.15-16.64-11.74-31.18-27.2-39.84-5.03-2.81-11.3-4.38-17.08-4.63-9.35-.41-15.55,7.57-14.65,16.82.41,4.22,2.07,6.22,6.51,5.26,2.01-.44,4.1-.73,6.15-.74,6.06-.04,11.24,3.01,11.81,6.77.63,4.13-4.76,11.63-9.7,12.52-7.67,1.38-15.15-.48-20.03-6.39-7.84-9.51-8.94-20.63-3.32-31.77,5.32-10.53,13.87-16.58,25.08-16.83Z"/>
  <path class="cls-2" d="M467.6,646.58c-8.73,7.13-17.91,12.71-29.03,12.79-20.87.15-41.75-.41-62.62-.78-6.57-.11-12.44-2.07-17.59-6.51-2.78-2.4-6.38-3.86-10.5-6.27,16.28-4.79,31.49-11.08,48.2-6.91,7.12,1.78,13.65,1.25,20.89-.42,7.58-1.75,16.09-1.3,23.87.05,8.9,1.55,17.45,5.15,26.78,8.05Z"/>
  <path class="cls-2" d="M371.86,229.65c-5.25-2.29-10.58-4.41-15.71-6.93-2.32-1.14-4.52-2.83-6.29-4.71-16.02-17.04-35.13-27.71-58.7-30.48-9.3-1.09-14.95-7.87-18.84-17.21,12.69-3.26,25.42-9.65,37.38-6.59,11.58,2.97,23.28,9.79,30.12,21.41,2.48,4.21,5.07,8.36,7.29,12.71,6.18,12.06,11.94,24.42,25.94,29.92-.4.63-.8,1.27-1.2,1.9Z"/>
  <path class="cls-2" d="M448.85,223.57c-3.95-3.86-5.23-8.82-1.1-15.21,5.16-7.98,10.83-15.9,17.61-22.48,7.21-7,16.65-11.7,23.85-18.7,5.95-5.79,11.74-5.84,18.78-4.18,5.97,1.41,12.09,2.22,19.02,3.45-3.02,9.39-8.33,15.85-16.48,19.58-5.25,2.4-10.91,4.09-16.55,5.43-12.37,2.93-23.34,8.56-32.59,17.09-4.67,4.31-8.25,9.8-12.55,15.02Z"/>
  <path class="cls-2" d="M693.38,280.05c-12.07-9.52-24.29-8.52-36.69-4.26-10.62,3.65-21.24,6.45-32.61,3.98-14.47-3.13-26.1-11.54-38.18-19.14.17-.59.33-1.18.5-1.76,5.45.61,10.96.93,16.34,1.9,12.49,2.25,24.71,1.19,36.89-1.99,5.63-1.47,11.36-3.16,17.11-3.49,20.31-1.18,28.39,6.09,36.64,24.76Z"/>
  <path class="cls-2" d="M124.26,266.05c10.02-5.66,20.74-5.47,31.75-4.32,5.51.58,11.19.26,16.74-.26,13.64-1.3,27.24-2.97,40.86-4.44,1.06-.11,2.16.15,4.54.34-2.42,2.96-3.85,5.76-6.13,7.29-4.79,3.22-9.93,5.96-15.11,8.54-2.66,1.32-5.82,1.6-8.56,2.78-17.43,7.53-34.7,9.51-52.81,1.44-7.47-3.33-10.87-1.69-21.9,3.4.91-6.53,3.9-10.97,8.55-14.51.69-.09,1.38-.17,2.07-.26Z"/>
  <path class="cls-2" d="M711.75,231.91c1.53,3.14,3.18,6.22,4.58,9.42,4.03,9.16,9.67,16.99,18.24,22.45,10.1,6.44,16.92,5.96,26.29-1.43,1.72-1.35,5.02-2.87,6.27-2.12,1.81,1.09,3.34,4.17,3.37,6.42.27,17.72-6.93,32.53-25.62,38.84-4.42,1.49-8.84,2.98-12.31,4.15-5.55-5.02-10.89-9.85-16.23-14.68,11.81,1.84,23.31,3.77,33.37-3.99,4.08-3.15,7.07-7.71,10.56-11.63-.41-.41-.83-.82-1.24-1.23-3.48,1.2-6.89,2.9-10.47,3.5-9.71,1.62-18.88-.11-24.61-8.74-4.41-6.64-7.63-14.14-10.75-21.53-1.89-4.46-2.68-9.4-3.76-14.17-.35-1.55-.06-3.24-.06-4.86l2.37-.41Z"/>
  <path class="cls-2" d="M126.4,726.91c7.92,19.54,3.11,33.93-12.81,41.85-15.34,7.64-33.17,2.72-42.06-11.58-7.58-12.21-1.88-30.92,11.11-36.81,2.99-1.36,5.5-.9,6.46,2,.46,1.41-.71,4.32-2.03,5.17-5.08,3.3-6.09,7.88-5.14,13.26.99,5.6,3.96,9.62,9.6,11.45,12.31,4,25.75-2.97,31.37-16.37,1.06-2.53,2-5.12,3.5-8.98Z"/>
  <path class="cls-2" d="M599.88,253.5c13.65-6.55,26.73-12.98,39.94-19.12,16.88-7.84,38.09,4.26,40.79,23.61-12.79-8.32-25.86-6.03-39.23-2.49-8.11,2.15-16.48,3.6-24.82,4.47-6.57.68-12.21-2.51-16.68-6.47Z"/>
  <path class="cls-2" d="M718.64,716.87c4.92-3.22,10.64-2.35,12.79,3.1,2.04,5.16,3.24,11.41,2.41,16.81-2.37,15.29-11.91,25.26-26.49,30.06-13.92,4.58-26.64,2.75-37.57-7.9-3.58-3.48-4.34-6.52-1.35-10.76,2.25-3.19,3.77-6.89,5.88-10.84.93,1.36,1.84,2.62,2.68,3.94,10.63,16.77,37.79,15.95,47.46-1.44,4.52-8.14,2.56-16.35-5.8-22.95Z"/>
  <path class="cls-2" d="M452.92,666.13c10.83-5.94,21.09-2.65,28.93,4.78,8.24,7.81,14.43,17.79,21.52,26.83-.52.46-1.03.91-1.55,1.37-5.42-4.12-10.83-8.24-16.25-12.36-.18.12-.35.24-.53.35,5.62,8.43,11.24,16.86,16.87,25.29-25.83-5.59-40.92-22.06-49-46.26Z"/>
  <path class="cls-2" d="M640.11,489.75c-1.65-2.13-3-3.87-4.42-5.71-6.29,12.97-7.85,31.12.63,37.21,3.62-2.73,6.61-5.66,10.16-7.51,6.89-3.61,9.77-10.08,13.17-16.36,2.39-4.4,5.13-8.62,7.87-12.82.49-.75,1.75-1.01,4.19-2.31-1.67,3.41-2.47,5.42-3.57,7.24-4.84,7.98-8.24,16.39-8.81,25.87-.18,2.92-.83,6.09-2.22,8.62-5.14,9.32-14.27,10.83-22.02,3.62-2.84-2.64-5.83-5.77-7.13-9.28-6.09-16.45-5.83-33.02.47-49.83,1.64.53,2.97.97,5.48,1.78-1.16-6.42-2.2-12.15-3.26-18.04,9.84,6.74,15.44,28.09,9.48,37.51Z"/>
  <path class="cls-2" d="M602.88,397.48c-2.87-7.45-5.62-14.95-8.63-22.35-2.26-5.56-4.55-11.15-7.36-16.44-6.99-13.15-11.33-27.04-12.59-41.86-.72-8.54,1.25-15.71,5.91-22.82,4.97,1.3,7.21,5.26,8.02,9.7.94,5.14,1.54,10.51,1.11,15.68-1.1,13.12,1.71,25.13,8.95,36,4.72,7.09,6.33,14.69,5.92,23.05-.3,6.19-.06,12.4-.06,18.6-.42.14-.85.29-1.27.43Z"/>
  <path class="cls-2" d="M620.62,201.1c-13.91,22.05-49.69,35.19-80.47,15.14,5.18,0,8.8.03,12.42,0,17.31-.17,31.72-6.73,43.64-19.3,6.63-6.99,7.03-6.82,15.24-1.82,3.03,1.84,5.94,3.87,9.17,5.98Z"/>
  <path class="cls-2" d="M205.41,407.4c5.91-15.87,14.73-29.39,29.69-38.21,6.3-3.71,13.44-4.49,19.59-1.56,19.31,9.19,38.2,19.26,57.24,29.01.26.13.33.62,1.12,2.23-9.45-3.79-17.83-7.37-26.38-10.52-9.14-3.36-18.27-6.96-27.7-9.25-11.43-2.77-21.14,1.69-28.88,10.16-3.66,4.01-6.67,8.61-10.03,12.9-4.34,5.54-8.53,7.04-14.65,5.22Z"/>
  <path class="cls-2" d="M284.94,106.43c1.76-.71,3.47-1.82,5.29-2.08,26.04-3.71,52.03-7.88,78.16-10.79,36.31-4.05,72.54-1.17,108.62,3.52,11.37,1.48,22.71,3.2,33.99,5.23,3.05.55,5.83,2.64,8.46,4.75-38.92-7.07-78.1-9.64-117.35-10.2-39.2-.55-77.92,5.63-116.66,10.98-.18-.47-.35-.94-.53-1.41Z"/>
  <path class="cls-2" d="M709.17,631.11c-10.98-9.01-22.96-17.06-32.67-27.27-11.99-12.6-18.97-28-15.4-46.33.14-.74.29-1.47.5-2.19.1-.35.35-.65,1.07-1.91,4.32,21.04,13.79,38.88,25.12,55.82.69-.27,1.39-.55,2.08-.82-3.45-10.62-6.9-21.23-10.35-31.86,15.22,12.56,29.83,37.87,29.66,54.55Z"/>
  <path class="cls-2" d="M163.88,359.47c-.16-1.57-.79-3.09-.31-3.67,2.15-2.57,4.42-5.13,7.04-7.2,2.93-2.32,6.15-4.37,9.47-6.09,12.68-6.57,24.38-14.21,31.53-27.17.63-1.14,1.37-2.22,2.53-4.08,3.76,7.32,1.85,12.73-1.06,17.74-5.01,8.61-11.74,15.81-20.73,20.2-13.08,6.38-23.21,15.49-30.81,28.01-3.39,5.59-8.95,9.86-13.52,14.72-.63-.47-1.25-.93-1.88-1.4,6.07-10.64,12.15-21.28,17.74-31.07Z"/>
  <path class="cls-2" d="M358.76,665.11c-.84,14.66-5.52,26.27-19.5,32.04-7.1,2.93-14.19,5.92-21.48,8.32-4.05,1.33-6.36-1.19-4.16-4.72,9.62-15.42,18.82-31.57,39.1-35.24,1.93-.35,3.95-.28,6.05-.41Z"/>
  <path class="cls-2" d="M211.89,190.6c8.84-3.87,12.26-3.11,17.49,3.91,10.77,14.44,25.35,21.33,43.14,21.89,3.72.12,7.45.02,11.2.55-14.21,9.11-29.31,10.32-44.73,3.9-13.67-5.7-24.81-14.14-27.1-30.25Z"/>
  <path class="cls-2" d="M557.34,174.17c-6.19,23.14-44.55,44.46-64.94,36,1.88-.65,3.12-1.25,4.43-1.5,11.93-2.32,21.75-8.07,29.19-17.75,3.32-4.32,6.71-8.6,9.89-13.02,5.74-7.98,6.21-8.22,15.89-5.6,1.78.48,3.5,1.18,5.54,1.87Z"/>
  <path class="cls-2" d="M671.2,447.21c-7.8,1.5-13.98,1.51-20.08-.86-22.54-8.77-33.75-35.43-24.05-57.52.67-1.54,2.7-2.48,4.09-3.71.83,1.71,2.07,3.34,2.43,5.14,1.71,8.62,2.22,17.6,4.95,25.86,4.33,13.11,13.78,22.21,26.35,27.97,1.65.76,3.26,1.6,6.31,3.11Z"/>
  <path class="cls-2" d="M233.91,637.17c-9.73-5.48-10.82-9.61-4.78-19.15.9-1.43,1.71-2.93,2.73-4.27,9.09-12.02,11.89-24.78,7.35-39.71-1.97-6.47-.33-14.03-.33-21.25,8.84,1.56,13.72,8.11,12.4,15.72-3.39,19.61-6.73,39.22-10.45,58.77-.47,2.44-3.15,4.45-4.77,6.69-.75,1.03-1.42,2.12-2.14,3.21Z"/>
  <path class="cls-2" d="M294.59,205.54c-13.03,1.92-24.36,3.15-35.61-.52-10.38-3.39-17.87-10-22.43-19.97-1.48-3.24-1.07-4.75,2.68-6.14,7.06-2.62,12.54-2.05,18.06,3.77,8.86,9.34,19.17,16.83,31.99,20.15,1.38.36,2.6,1.3,5.32,2.72Z"/>
  <path class="cls-2" d="M504.83,746.2c-2.19-3.81-4.51-7.55-6.56-11.44-6.61-12.53-17.5-19.66-30.23-24.77-6.79-2.72-13.55-5.67-19.91-9.25-9.74-5.47-15-14.74-20.04-25.18,11.45-1.05,20.94,2.31,26.62,10.62,8.9,13.02,21.23,22.03,32.59,32.31,5.38,4.86,9.99,10.69,14.3,16.56,2.2,3,2.96,7.05,4.37,10.63-.38.17-.77.34-1.15.51Z"/>
  <path class="cls-2" d="M124.26,266.05c-.69.09-1.38.17-2.07.26.58-1.46.79-3.27,1.8-4.32,5.44-5.66,10.95-11.26,16.68-16.62,8.18-7.66,16.85-5.69,25.26-.48,5.08,3.14,9.81,6.85,15.24,10.69-7.9,5.26-15.9,5.89-24.78,4.88-7.86-.89-15.99-.32-23.9.54-2.89.31-5.49,3.3-8.23,5.07Z"/>
  <path class="cls-2" d="M374.55,562.86c-9.34-.68-17.74-1.19-26.12-2.01-1.36-.13-3.45-1.42-3.74-2.55-3-11.64,1.5-22.63,13.87-25.14,4.55-.93,8.94.52,11.14,4.77,4.22,8.11,5.89,16.84,4.84,24.94Z"/>
  <path class="cls-2" d="M140.12,461.22c5.4-3.01,10.22-5.1,14.37-8.11,13.89-10.09,18.8-24.79,20.05-41.13.47-6.18.82-12.38.93-18.58.07-4.16,1.47-6.47,5.98-5.84,12.97,33.64-8.96,73.85-41.32,73.66Z"/>
  <path class="cls-2" d="M68.69,352.75c1.61,7.93,11.62,12.03,9.66,21.37-2,9.5-5.38,18.52-13.88,24.45-9.85,6.87-21.93,6.57-27.49-.87.72-.27,1.35-.67,2-.71,13.86-.83,20.62-9.63,24.03-21.79,1.57-5.58,2.28-11.41,3.33-17.14.32-1.77.47-3.57.69-5.36.55.02,1.11.04,1.66.05Z"/>
  <path class="cls-2" d="M638.76,212.81c-14.49,24.08-48.69,36.6-61.19,23.24,7.53-2.03,15.52-3.71,23.18-6.37,9.39-3.25,16.07-10.1,21.72-18.16,5.17-7.38,5.36-7.24,12.46-1.69,1.18.92,2.36,1.84,3.82,2.98Z"/>
  <path class="cls-2" d="M591.81,186.54c-10.23,14.52-30.68,22.4-47.73,18.71,4.73-4.98,9.42-9.73,13.87-14.68,2.24-2.5,4.63-5.13,5.91-8.15,1.63-3.83,3.67-4.68,7.37-3.29,6.65,2.5,13.36,4.82,20.59,7.41Z"/>
  <path class="cls-2" d="M472.05,548.41c19.2,9.2,32.21,23.41,44.44,38.73-15.09-7.23-30.12-14.05-49.39-11.24,6.6-8.82,6.67-17.47,4.95-27.49Z"/>
  <path class="cls-2" d="M227.1,225.15c-8.98,4.87-17.89,6.08-26.05,1.89-7.19-3.69-13.35-9.49-19.7-14.68-3.03-2.48-2.31-4.9,1.11-7.07,7.72-4.9,8.9-4.7,15.98.7,6.86,5.23,14.17,9.87,21.32,14.7,2.14,1.45,4.42,2.69,7.34,4.46Z"/>
  <path class="cls-2" d="M233.68,231.03c-7.62,8.64-17.26,11.8-28.08,12.15-18.25.59-31.61-8.07-42.08-22.17-.62-.83-.36-2.31-.51-3.48,1.52-.1,3.39-.83,4.49-.2,4.08,2.31,7.88,5.1,11.83,7.65,14.76,9.52,30.53,12.16,47.49,7.06,2.19-.66,4.57-.69,6.86-1.01Z"/>
  <path class="cls-2" d="M649.95,153.38c-8.72-2.03-9.66-3.72-7.6-10.18,1.39-4.37,2.43-8.86,3.62-13.29-.58-.41-1.15-.82-1.73-1.23-5.18,3.74-10.35,7.48-15.77,11.39-3.22-5.11,2.96-6.6,3.66-10.23-6.84-1.48-11.27,8.62-18.97,2.85,1.13-4.66,4.65-7.87,9.34-9.4,9.05-2.95,18.27-5.38,27.44-8.04v38.13Z"/>
  <path class="cls-2" d="M201.93,127.95c1.96-2.16,4.11-4.17,5.84-6.5,5.61-7.55,11.06-15.21,16.57-22.83,3.98-5.51,4.75-5.76,11.84-3.87-5.61,7.42-12.07,14.36-16.62,22.38-4.83,8.51-11.84,11.82-20.69,13.68-4.53.95-5.29-1.13-5.66-4.49-.08-.74-.08-1.54.12-2.24,3.37-11.49,9.11-21.41,19.18-28.37.76-.53,1.67-.86,2.54-1.22.67-.28,1.39-.44,3.75-1.18-1.76,2.95-2.75,4.71-3.84,6.41-4.59,7.07-9.33,14.04-13.73,21.22-1.02,1.66-.92,4.01-1.33,6.04.68.32,1.36.65,2.04.97Z"/>
  <path class="cls-2" d="M568.19,578.9c.9,1.82,2.38,3.58,2.6,5.48,1.32,11.41,8.44,20.26,12.93,30.26,4.59,10.23-1.14,19.98-12.71,21.76-.09-.49-.44-1.12-.25-1.45,4.48-7.62,2.91-15.08-.23-22.67-2.14-5.17-4.65-10.44-5.34-15.88-.73-5.74.5-11.73.87-17.61.72.04,1.43.07,2.15.11Z"/>
  <path class="cls-2" d="M374.36,39.93c-20.85,9.55-30.86,27.81-39.15,47.33-1.85,4.36-4.76,5.32-9.46,5.22.35-1.85.29-3.79,1.06-5.31,5.74-11.4,10.93-23.17,17.71-33.92,6.58-10.43,17.37-14.27,29.84-13.32Z"/>
  <path class="cls-2" d="M335.7,550.75v23.43c-12.59,3.41-25.37,6.87-38.98,10.56,12.27-12.37,23.91-24.57,38.98-34Z"/>
  <path class="cls-2" d="M358.64,946.57c5.72-.7,10.59-.87,15.25-1.95,10.63-2.48,18.89-8.87,26.1-16.82,3.54-3.9,8.71-3.84,11.76.22.65.87.67,3.03.03,3.91-12.98,18.02-34.13,23.1-53.14,14.64Z"/>
  <path class="cls-2" d="M173.53,522.93c-.13.5-.59,2.49-1.14,4.46-2.04,7.29-6.41,9.11-12.66,4.53-3.04-2.23-5.65-5.58-7.38-8.97-3.65-7.17-6.65-14.68-9.78-22.11-.82-1.94-1.18-4.08-1.74-6.12.57-.41,1.13-.81,1.7-1.22,1.5,1.46,3.24,2.74,4.46,4.4,3,4.08,5.13,9.03,8.77,12.36,4.96,4.56,11,7.94,17.78,12.67Z"/>
  <path class="cls-2" d="M402.93,213.58c-1.31-2.63-3.11-5.13-3.85-7.91-5.21-19.58-14.89-36.04-33.38-47.29,7.27-2.41,12.38,0,16.96,3.67,9.55,7.63,16.25,17.1,18.13,29.52,1.1,7.22,2.42,14.4,3.64,21.6-.5.14-1,.27-1.5.41Z"/>
  <path class="cls-2" d="M180.28,526.75c-.5-1.51-.98-2.21-.92-2.86,1.25-12.42,1.05-24.71-1.83-36.97-1.03-4.4,2.48-9.69,7.88-13.36.57,4.47.92,8.38,1.61,12.24.41,2.31-1.32,5.89,3.22,6.29.37.03.91,2.02.81,3.04-1.07,11.07-2.55,22.03-10.77,31.63Z"/>
  <path class="cls-2" d="M217.22,144.35c5.44-2.09,10.53-4.28,15.78-5.92,1.4-.44,3.32,1.11,5.03,1.21,1.94.11,5.04.33,5.7-.72,4.66-7.38,12.58-7.08,19.71-9.64-3.06,13.83-34.13,28.83-46.22,15.07Z"/>
  <path class="cls-2" d="M283.85,434.7c2.35.68,4.28,1.34,6.25,1.8,8.03,1.87,15.64,1.42,22.48-3.92,1.14-.89,2.93-.94,4.42-1.38.27,1.73,1.35,3.95.66,5.11-1.96,3.27-4.07,7.08-7.16,8.91-5.99,3.53-12.92,3.86-19.68,1.92-5.93-1.7-8.56-6.28-6.96-12.44Z"/>
  <path class="cls-2" d="M563.92,430.13c-15.18-15.92-36.22-17.21-57.11-22.42,22.27-7.08,51.53,1.78,57.11,22.42Z"/>
  <path class="cls-2" d="M290.32,89.27c-1.64-6.18-.14-9.24,5.97-10.47,8.62-1.73,17.03-4.45,25.56-6.65,1.93-.5,3.97-.59,6.05-.87-.34,7.64-2.02,9.7-8.37,11.15-9.67,2.21-19.32,4.52-29.2,6.84Z"/>
  <path class="cls-2" d="M734.87,473c15.53,11.54,33.73,9.53,50.3-10.94-1.14,2.96-1.68,6.35-3.51,8.8-7.89,10.56-18.23,16.65-31.86,15.77-8.51-.55-12.52-4.11-14.93-13.62Z"/>
  <path class="cls-2" d="M316.6,40.66c-.47,7.09-3.35,11.13-10.25,12.24-4.03.65-7.84,2.56-11.79,3.78-8.18,2.52-8.19,2.49-13.22-5.77,11.13-5.78,23.17-7.71,35.25-10.24Z"/>
  <path class="cls-2" d="M509.31,448.65c-4.49-2.39-9.15-4.52-13.34-7.35-1.1-.74-.7-3.68-.99-5.62,1.57-.19,3.31-.92,4.67-.48,7.75,2.48,15.05,2.9,21.97-2.5,1.08-.84,4.05-.58,5.16.35.85.71.71,3.54.04,4.97-3.3,7.05-9.6,9.02-17.52,10.63Z"/>
  <path class="cls-2" d="M296.71,407.73c-18.19,4.5-36.62,8.35-52.53,19.17,5.85-15.04,34.19-25.31,52.53-19.17Z"/>
  <path class="cls-2" d="M607.19,149.91c11.63,6.32,23.26,12.64,35.05,19.04-3.96,4.97-8.77,6.43-13.86,3.67-9.34-5.08-16.74-12.35-22.26-21.39.36-.44.72-.88,1.08-1.32Z"/>
  <path class="cls-2" d="M290.06,75.53c-1.03-3.62-2.09-7.33-3.32-11.63,8.03-2.48,15.65-4.83,23.42-7.22.46,11.49-5.2,16.76-20.1,18.85Z"/>
  <path class="cls-2" d="M183.38,113.24c1.83,2.27,3.66,4.54,5.48,6.81-.36.51-.73,1.02-1.09,1.52-3.01-.6-6.02-1.23-9.04-1.79-4.79-.9-9.56-2.02-14.4-2.57-7.86-.9-8.94-1.6-11.98-10.46,10.74,2.3,20.98,4.49,31.22,6.68,0,0-.19-.19-.19-.19Z"/>
  <path class="cls-2" d="M412.69,610.06c.31-.48.37-.69.51-.77,11.66-6.34,14.57-5.26,19.2,7.45.99,2.71,1.45,5.6,2.21,8.66-8.46-1.1-17.26-7.39-21.92-15.34Z"/>
  <path class="cls-2" d="M574.83,94.92c9.45,2.17,22.29,19.47,22.03,29.69-7.5-1.49-22.36-21.51-22.03-29.69Z"/>
  <path class="cls-2" d="M489.58,84c.23-6.29,3.27-7.79,8.55-6.16,6.63,2.04,13.44,3.56,19.86,6.1,2.28.9,3.65,4.12,5.44,6.28l-1.4,1.55c-5.37-1.38-10.72-2.84-16.11-4.13-5.45-1.31-10.95-2.45-16.34-3.65Z"/>
  <path class="cls-2" d="M18.28,495.03c6.33,17.62,18.69,22.7,35.63,18.84-5.37,7.53-19.09,8.17-28.27,1.53-8.03-5.81-11.57-14.32-7.36-20.37Z"/>
  <path class="cls-2" d="M424.81,86.89c4.35-9.07,23.8-20.21,31.44-18.01-6.54,9.95-25.47,20.79-31.44,18.01Z"/>
  <path class="cls-2" d="M174.47,502.03c-10.23-11.36-4.51-38.66,10.15-45.05-1.48,4.53-2.32,8.28-3.88,11.7-7.46,16.28-7.53,16.25-6.26,33.35Z"/>
  <path class="cls-2" d="M408.54,187.62c-5.93-11.12.77-24.69,13.42-28.28-1.16,11.06-8.71,18.44-13.42,28.28Z"/>
  <path class="cls-2" d="M510.9,50.99c7.12,2.49,13.71,4.8,21.27,7.45-2.55,3.37-4.3,5.69-5.98,7.92-15.39-3.79-16.58-4.91-15.29-15.36Z"/>
  <path class="cls-2" d="M311.8,448.49c3.36-3.58,6.82-7.07,10.04-10.77,1.33-1.53,2.16-3.5,3.82-6.29,2.71,1.83,7.45,3.56,7.49,5.4.07,2.9-2.37,6.74-4.91,8.62-4.72,3.5-10.38,5.23-16.44,3.03,0,0,0,0,0,0Z"/>
  <path class="cls-2" d="M671.19,201.42c-9.87-2.36-8.09-11.73-12.5-18.36,8.87,2.27,13.95,10.18,12.5,18.36Z"/>
  <path class="cls-2" d="M316.5,931.25c-9.93,2.3-23.52-4.49-23.29-11.6,7.69,3.83,15.4,7.67,23.29,11.6Z"/>
  <path class="cls-2" d="M182.39,164.39c1.77-7.63,8.54-8.39,13.75-11.69-.62,9.97-5.69,14.4-13.75,11.69Z"/>
  <path class="cls-2" d="M520.09,79.79c-3.7-3.89-10.44-.76-10.69-7.44-.04-1.21,3.01-3.83,3.9-3.54,3.93,1.28,9.23,1.21,10.19,6.69.19,1.06-1.95,2.53-3.41,4.29Z"/>
  <path class="cls-2" d="M255.86,902.58c-7.76-1.99-13.61-4.6-17.25-11.03q9.53-1.84,17.25,11.03Z"/>
  <path class="cls-2" d="M86.93,290.07c-4.26-6.57-3.74-22.39,2-28.94-.72,10.44-1.37,19.75-2,28.94Z"/>
  <path class="cls-2" d="M408.06,618.31c-.77,7.71-6.68,10.04-14.32,6.31,3.35-5.91,9.64-3.36,14.32-6.31Z"/>
  <path class="cls-2" d="M108.43,186.16c4.27-6.55,11.05-6.79,16.97-10.37-3.01,6.22-10.65,10.97-16.97,10.37Z"/>
  <path class="cls-2" d="M503.24,198.17c-8.83,3.6-17.67,7.19-26.5,10.79,7.34-7,16.56-9.68,26.5-10.79Z"/>
  <path class="cls-2" d="M688.09,170.69c-9.83,4.81-16.87,2.98-21.75-5.41,3.15,1.48,6.33,3.56,9.81,4.46,3.51.91,7.33.64,11.94.95Z"/>
  <path class="cls-2" d="M588.78,439.36h-13.13c-.03-.36-.05-.72-.08-1.08,4.36-.25,8.73-.5,13.09-.75.04.61.08,1.22.11,1.83Z"/>
  <path class="cls-1" d="M493.86,762.7c2.3,3.24,4.25,5.48,5.65,8.03,15.2,27.66,11.97,57.94-8.59,81.9-2.79,3.25-5.41,6.65-7.59,10.57,12.02-6.5,23.74-13.29,32.42-24.44.75.52,1.5,1.04,2.25,1.56-.8,2.24-.95,5.23-2.52,6.59-4.51,3.9-9.23,7.86-14.51,10.51-21.96,11.03-29.24,30.58-19.28,53.19,2.96,6.73,2.86,7.04-3.51,10.31-12.94,6.64-25.61,4.32-34.62-6.34-10.14-11.99-11-27.92-.86-39.78,5.66-6.62,13-11.84,19.82-17.4,4.51-3.68,9.49-6.76,14.14-10.28,14.23-10.79,21.13-25.65,21-43.03-.09-12.83-2.63-25.65-4.06-38.48-.06-.52.09-1.07.26-2.92Z"/>
  <path class="cls-1" d="M339.52,873.67c-1.26-4.95-2.55-9.89-3.74-14.86-.07-.31.63-.81,2.33-2.83,1.19,6.74,2.14,12.09,3.08,17.43-.56.09-1.11.17-1.67.26Z"/>
  <path class="cls-1" d="M451.27,287.7c-44.28,7.41-88.36,4.51-132.42-2.04,44.09.68,88.18,1.36,132.42,2.04Z"/>
  <path class="cls-1" d="M534.98,282.83c5.47,2.11,12.07,4.65,18.67,7.2-.15.38-.3.76-.46,1.13-6.75-2.52-13.49-5.05-20.24-7.57.17-.06.34-.13,2.03-.76Z"/>
  <path class="cls-1" d="M534.2,486.21c6.3-5.52,13.09-11.48,19.88-17.43-.25-.45-.51-.89-.76-1.34,1.7.48,3.41.96,5.67,1.6-6.36,9.51-15.68,13.94-24.79,17.17Z"/>
  <path class="cls-1" d="M314.07,457.64c6.67-1.03,13.31-2.2,20-3.04,3.8-.48,7.67-.43,12.61-.68-3.23,2.82-26.2,4.84-32.66,3.71-.02-.01.04.02.04.02Z"/>
  <path class="cls-1" d="M610,308.32c17.42,14.4,36.97,14.49,57.45,8.76-18.74,15.75-41.38,12.74-57.45-8.76Z"/>
  <path class="cls-1" d="M642.72,350.59c-12.92-6.42-26.99-11.32-33.55-26.11,11.59,8.23,23.19,16.46,34.78,24.69-.41.47-.82.94-1.23,1.42Z"/>
  <path class="cls-1" d="M426.96,63.59c2.42-1.08,4.9-2.04,7.23-3.29,2.39-1.28,4.64-2.83,7.49-3.47-4.32,3.37-8.63,6.75-13.59,10.62-.38-1.53-.69-2.77-1-4.03,0-.01-.13.16-.13.16Z"/>
</svg>