<?xml version="1.0" encoding="UTF-8"?>
<svg id="Layer_1" data-name="Layer 1" xmlns="http://www.w3.org/2000/svg" viewBox="0 0 739.49 863.65">
  <defs>
    <style>
      .cls-1 {
        fill: #000;
      }

      .cls-1, .cls-2 {
        stroke-width: 0px;
      }

      .cls-2 {
        fill: #fff;
      }
    </style>
  </defs>
  <path class="cls-1" d="M388.16,20.01c11.8-6.09,23.66-9.86,36.45-9.32,5.62.24,11.3.99,16.77,2.28,15.56,3.68,25,13.71,29.32,29,.55,1.94,2.61,4.12,4.51,4.91,12.55,5.27,25.22,10.28,37.93,15.17,2.21.85,4.79,1.03,7.19,1,6.62-.09,13.36-1.39,19.82-.5,11.76,1.61,20.08,8.47,24.25,19.8,1.32,3.59,2.88,7.26,3.21,10.99.54,6.16,3.8,9.68,8.78,12.82,21.23,13.39,36.99,31.85,48.72,53.87,6.12,11.48,11.81,23.28,22.51,31.43,3.5,2.66,7.43,4.77,11.61,7.42,1.01-2.07,1.66-3.17,2.09-4.35,3.34-9,9.14-15.03,19.17-15.91,10.69-.94,19.35,2.68,25.27,11.85,5.77,8.94,5.82,18.95,4.83,29.01-1.2,12.26-6.12,22.89-13.38,32.89-2.58,3.55-2.22,9.23-3.14,13.69,19.71,9.5,27.34,20.63,25.96,38.24-1.41,17.98-11.29,30.6-26.66,39.11-5.06,2.8-10.64,4.67-15.39,6.72-1.57,10.01-2.34,20.19-4.94,29.87-2.33,8.71-1.43,16.56,2.46,24.14,1.98,3.87,4.96,7.48,8.21,10.39,2.5,2.24,6.12,3.49,10.01.52-.97-1.89-1.99-3.72-2.88-5.61-3.04-6.46-1.49-11.15,4.8-14.63,10.82-5.98,23.66-4.17,32.71,4.68,10.1,9.87,12.84,22.15,10.19,35.43-3.52,17.64-12.49,31.45-30.31,37.88-1.4.51-2.95,1.18-4.34,1.02-7.2-.84-12.34,3.13-18.1,6.52-5.87,3.46-12.69,5.3-19.73,8.1,1.11,2.35,2.38,5.55,4.08,8.52,17.68,30.83,1.62,79.04-38.39,92.65-4.13,1.41-8.29,3.68-11.53,6.57-6.24,5.55-13.57,6.53-21.25,6.77-1.51,3.77-3.23,7.37-4.34,11.15-.56,1.9-.42,4.23.09,6.18,4.99,19.12,4.45,37.96-2.76,56.44-4.55,11.63-11.92,21.16-22.45,27.99-2.54,1.65-3.11,3.08-2.36,6.03,5.57,21.91.63,41.74-13.45,59.01-12.7,15.57-34.7,21.45-53.43,15.11-3.39-1.15-5.64-.25-8.1,1.88-5.28,4.57-10.5,9.27-16.15,13.36-12.65,9.17-26.88,13.98-42.58,13.28-5.6-.25-8.33,1.21-10.39,6.87-8.23,22.64-24.27,36.46-48.62,38.65-7.21.65-14.78-1.36-22.01-2.93-3.79-.82-6.76-1.1-10.35.9-27.41,15.28-61.2,3.86-73.89-24.9-1.63-3.69-3.65-5.74-7.62-7.44-8.32-3.56-15.98-8.65-24.04-12.85-1.85-.97-4.37-1.5-6.4-1.17-16.72,2.77-33.13,2.6-49.23-3.56-25.72-9.83-40.91-28.79-48.13-54.8-.7-2.52-.88-4.96-4.36-5.83-21.76-5.48-33.71-20.93-40.44-41.14-5.39-16.18-4.7-32.55.36-48.69,1.55-4.95,1.17-8.17-3.12-12-10.35-9.25-14.97-21.38-14.5-35.33.07-2.15.23-4.3.37-6.7-16.61-6.99-29.11-18.09-34.92-35.5-5.8-17.36-1.74-33.85,5.62-50.33-3.64-1.09-6.78-2-9.89-2.98-25.78-8.06-38.94-36.69-28.07-61.08,6.33-14.21,18.45-21.57,32.19-18.79,4.55.92,8.74,3.6,13.9,5.83,1.01-6.33,3.97-12.78,1.75-20.05-1.45-4.75-3.09-9.55-3.62-14.44-.43-4.01-1.6-5.78-5.73-6.4-14.51-2.17-25.71-9.66-33.46-22.14-10.54-16.98-8.57-39.07,4.57-52.25,6.66-6.68,14.77-10.17,24.06-8.14,11.72,2.57,22.97-4.96,25.94-17.46-3.37,1.47-6.33,2.57-9.11,4.02-16.06,8.4-49.71-2.98-52.91-27.85-2.04-15.85,11.52-36.19,32.41-29.87,3.57,1.08,5.44-.02,6.68-3,2.81-6.77,5.46-13.6,8.26-20.37,1.25-3.04-.92-4.02-2.79-5.49-20.67-16.12-32.85-36.46-31.16-63.54.57-9.18,3.06-17.73,8.97-24.99,7.66-9.41,20.33-12.63,30.6-7.9,10.97,5.06,15.03,16.55,9.9,27.49-.54,1.16-.3,3.3.46,4.34,1.64,2.27,3.73,4.26,5.85,6.12,4.44,3.89,8.71,4.51,14.84,2.14,8.37-3.23,12.74-7.93,15.18-16.62,3.85-13.7,10.76-26.18,20.07-37.11,2.35-2.75,2.51-5.15,1.42-8.56-5.58-17.48-2.07-33.17,11.28-45.79,12.42-11.73,27.82-14.84,43.05-7.69,8.94,4.2,13.81,2.79,20.95-2.84,19.19-15.1,41.35-22.57,66.01-21.74,7.97.27,15.47,2.06,22.23,6.56,1.29.86,3.29,1.8,4.52,1.38,8.44-2.83,17.75-4.11,23.83-11.69,17.51-21.82,55.51-20.71,72.42,1.8.6.79,1.15,1.62,1.75,2.47ZM373.56,586.11c2.52.54,5.03,1.08,7.82,1.68-4.25-5.66-7.95-10.91-12.01-15.87-1.84-2.25-3.92-5.93-7.45-3.28-.79.59.4,5.23,1.84,7.13,2.84,3.76,6.5,6.91,9.81,10.32-7.85-4.91-15.71-9.82-24.24-15.16,3.59,7.96,16.04,15.43,24.23,15.18ZM311.09,581.59c-1.96,1.53-3.91,3.05-5.87,4.58,8.82-.85,16.54-4.07,23.02-9.84,1.06-.95.98-3.18,1.42-4.82-1.78.06-3.95-.51-5.27.3-3.51,2.15-6.66,4.89-9.95,7.4,2.79-4.21,7.83-7.1,8.03-13.11-9.74,1.31-26.5,12.61-32.61,22.61,7.88-2.64,14.56-4.88,21.23-7.11ZM136.91,410.76c-1.76,2.31-3.33,4.78-5.3,6.89-8.18,8.77-8.11,18.94-4.69,29.38.92,2.82,3.76,5.01,5.72,7.49.6-.41,1.21-.83,1.81-1.24-1.09-2.87-1.94-5.87-3.32-8.6-3.58-7.08-2.95-13.31,2.41-19.16,1.79-1.95,3.91-3.6,5.78-5.48,8.38-8.45,13.16-18.3,11.46-30.52-.22-1.6-.93-3.13-1.41-4.69-5.17,9.4-6.05,20.05-12.72,29.35.09-1.94.13-2.72.17-3.51,6.33-9.88,9-20.65-.12-25.37,3.49,8.83,3.02,17.17.23,25.45ZM157.44,105.94c1.02-.67,2.05-1.33,3.48-2.27-5.79-3.03-11.22-6-14.07-13.12,8.16,7.96,12.47,10.25,17.16,9.43-17.7-17.16-20.34-23.27-13.86-32.17-1.13,14.99,10.06,27.03,29.48,30.69-1.75-2.83-3.84-5.37-6.11-7.74-4.11-4.28-9.1-7.94-12.32-12.79-3.9-5.88-2-12.02,4.13-17.85-10.1.52-17.25,3.62-22.32,10.69-5.14,7.18-5.66,14.8-1.02,22.46,3.65,6.03,9.01,10.09,15.59,12.57-20.03,4.25-28.25,19.92-35.62,36.73,13.44-11.05,28.29-11.65,44.1-7.48,2.01.53,4.87-.68,6.87-1.86,9.52-5.62,19.8-8.59,30.73-9.62,1.68-.16,3.34-.6,6.15-1.12-2.36-2.15-3.72-3.54-5.22-4.75-13.91-11.12-30.01-13.56-47.13-11.81ZM449.03,164.2c-25.38-6.2-47.14,7.37-52.34,32.62-.37,1.79-.75,3.59-1.09,5.39-1.64,8.66-5.96,15.82-12.22,21.89-1.74,1.68-3.53,3.31-5.46,5.11.68.17,1.02.37,1.28.3.63-.18,1.26-.43,1.84-.74,12.61-6.55,22.74-15.6,28.93-28.66,1.71-3.61,3.53-7.19,5.56-10.62,6.47-10.93,15.96-16.46,28.77-14.77,6.9.91,13.76,2.48,20.46,4.35,7.21,2.01,14.11,5.13,21.33,7.06,17.28,4.62,32.5.22,44.85-12.46,10-10.27,15.99-22.66,14.13-37.47-.44-3.49-2.62-7.15-4.97-9.9-2.22-2.6-5.32-2.51-6.77,1.57-.89,2.51-1.88,4.98-2.74,7.5-2.71,7.95-7.7,13.88-15.25,17.66-9.01,4.51-18.6,6.07-28.58,5.88-11.4-.23-21.89-3.92-32.22-8.29-14.96-6.33-30.46-9.03-46.38-4.97-22.69,5.79-38.77,18.54-43.21,43.04-1.24,6.84-3.57,13.5-5.59,20.18-.62,2.04-1.88,3.88-2.84,5.81.53.37,1.06.74,1.59,1.11,2.9-3.26,6.18-6.26,8.58-9.85,2.29-3.42,3.58-7.5,5.45-11.21,4.91-9.77,9.58-19.72,18.23-27.04-7.69,8.93-11.54,19.4-14.07,30.8-3.91,17.6-14.94,28.58-33.15,31.64-1.99.33-3.93.93-6.42,1.54,5.39,3.59,9.64,4.3,15.88,2.6,9.35-2.55,17.27-7.74,22.46-15.73,7.15-11,13.6-22.49,19.69-34.12,9.57-18.28,30.32-27.92,50.14-22.54,1.46.4,2.72,1.54,4.08,2.34h.01ZM486.03,306.54c2.48-8.2-.86-17.01-9.69-26.28,10.23-.16,17.54-16.5,11.18-25.72-7.79-11.29-18.12-20.13-31.31-24.54-4.34-1.45-9.65-1.36-14.22-.45-11.53,2.28-22.95,4.05-34.7,1.92-1.47-.27-3.2.39-4.7.93-9.97,3.6-19.68,8.29-29.93,10.68-13.44,3.13-26.95,3.02-37.75-8.15-.79-.81-3.12-.8-4.43-.32-6.8,2.49-13.45,3.9-20.17-.27-.85-.53-2.23-.2-3.35-.33-4.55-.53-9.16-.75-13.61-1.72-3.53-.77-6.9-3.65-10.26-3.53-6.82.24-12.3-2-17.61-5.79-1.08-.77-3.26-1.01-4.42-.45-6.28,3.02-12.69,2.99-18.99.79-10.98-3.83-20.04-.72-27.75,7.17-6.74,6.91-13.09,14.21-19.65,21.29-9.32,10.06-13.05,21.16-8.22,34.81,4.49,12.72,3.53,25.52-1.82,38.02-2.36,5.5-4.11,11.26-6.03,16.94-.55,1.61-.73,3.34-1.08,5.02.45.3.9.59,1.35.89,1.61-1.44,3.4-2.73,4.81-4.34,4.07-4.63,7.88-9.48,12-14.06,5.29-5.89,11.83-7.32,19.06-4.2,5.95,2.57,11.67,5.69,17.55,8.42,7.99,3.71,15.88,7.73,24.13,10.74,4.39,1.6,9.52,2.15,14.19,1.74,7.04-.62,16.49,3.51,20.63,11.32-4.04-2.33-6.88-4.25-9.96-5.64-2.47-1.12-5.19-1.97-7.88-2.28-5.73-.67-11.52-.88-17.28-1.35-1.66-.14-3.29-.54-4.94-.82,1.05,2.82,2.43,4.66,4.07,6.23,10.07,9.64,20.11,19.31,30.39,28.74,2.11,1.94,5.03,3.4,7.82,4.12,4.99,1.28,7.48-1.17,6.36-6.18-.99-4.46-2.69-8.75-4.27-13.73,5.78,3.68,8.76,8.62,10.72,14.41.48,1.42,1.87,3.77,2.51,3.67,2.14-.35,4.54-1.2,6.04-2.67,1.27-1.24,1.71-3.57,2.02-5.5,1.9-11.81-.88-22.12-10-30.37-3.21-2.9-6.25-6-9.25-9.12-1.15-1.2-2-2.69-3.57-4.85,8.23,2.64,19.85,12.26,25.78,20.1,4.17,5.52,3.07,11.69,3.12,17.78,0,1.33-.07,2.67-.04,4,.14,8.28,5.88,14.16,14.25,14.18,8.86.01,14.44-2.53,14.14-12.9-.49-17.43,9.04-29.4,22.75-38.66,1.87-1.26,4.14-1.92,6.23-2.86.32.49.64.99.96,1.48-1.18.88-2.49,1.63-3.51,2.66-5.37,5.43-11.11,10.58-15.86,16.51-5.08,6.34-6.83,14.07-5.3,22.19,1.8,9.58,7.63,11.77,15.39,5.99,8.21-6.12,13.51-14.26,15.98-24.1,1.84-7.31,7.41-10.94,13.7-11.24,13.48-.66,25.22-5.37,36.62-11.93,5.46-3.15,11.09-6.3,17.04-8.27,12.83-4.24,24.96-3.49,34.95,7.22,4.24,4.54,8.8,8.77,13.22,13.15-7.6-16.7-11.5-35.81-30.63-44.48.25-.37.51-.73.76-1.1,4.05,1.65,8.09,3.3,12.48,5.1ZM232.79,496.93c.47.3.95.61,1.42.91-13.21,8.65-12.97,21.95-13.73,35.03-.47,8.11-3.34,15.45-7.87,22.35-3.21,4.89-5.27,10.53-7.84,15.84,7.72-9.24,16.25-16.95,27.24-21.59,11.52-4.86,20.34-12.84,28.45-22.2,8.05-9.29,16.81-18.02,25.84-26.37,7.5-6.92,20.47-2.82,22.98,6.78.45,1.73.06,3.67.06,5.52-2.95-7.49-8.79-9.99-15.39-6.01-1.94,1.17-3.86,2.8-5.07,4.68-3.56,5.48-4.3,11.52-1.87,17.66,1.86,4.68,6.06,6.47,10.58,5.88,8.03-1.03,13.01,2.31,16.13,9.34.4.9,1.18,1.63,1.62,2.51,9,17.88,41.9,15.04,49.21-2.35,3.46-8.23,9.77-11.16,18.14-11.47,9.25-.35,12.76-5.3,9.91-14.18-1.1-3.43-2.85-6.77-4.92-9.73-3.12-4.45-7.7-5.37-13.4-3.71-5.05,1.48-7.94,4.24-7.78,9.94.12,3.96-.59,7.95-.93,11.93-.48-.03-.97-.06-1.45-.1-.85-6.85-1.89-13.69-2.5-20.57-1.23-13.9-2.5-27.8-3.24-41.73-.59-10.95.12-21.98-.77-32.89-.56-6.83.3-15.08-8.98-18.33,2.11-.07,3.76.66,5.27.46,1.59-.22,3.3-1.09,4.43-2.21.37-.37-.53-2.85-1.46-3.59-5.46-4.31-9.68-9.56-18.9-6.95-6.84,1.93-12.66,3.73-17.55,8.89-2.13,2.25-2.85,4.02-1.69,7,.79,2.03,1.27,4.73.59,6.68-3.4,9.76-2.42,19.67-2.12,29.68.43,14.46.12,28.95,0,43.42-.02,1.93-.72,3.85-1.11,5.77-.43-.07-.87-.14-1.3-.22,0-2.98-.19-5.97.03-8.93,1.32-17.43.1-34.56-5.03-51.4-2.13-6.98-2.94-7.74-8.6-3.1-6.56,5.38-12.69,11.29-19.23,16.71-3.24,2.68-6.96,4.78-11.13,7.59,4.05-4.43,7.65-7.92,10.72-11.83,3.1-3.94,5.67-8.3,8.47-12.47-25.99,14.14-44.09,19.69-55.85,16.25,2.28-2.93,2.34-3.3-1.97-4.41-12.61-3.23-22.25-10.37-28.87-21.47-3.8-6.38-8.7-10.19-16.5-9.47-1.82.17-3.72-.41-5.58-.64,0-.25,0-.5-.01-.76,3.16-.87,6.32-1.73,9.91-2.72-5.69-2.87-10.61-5.36-16.06-8.11-.86,4.89-1.56,9.29-2.42,13.66-4.6,23.62,2.33,44.48,17.09,62.39,10.51,12.76,24.19,20.08,41.59,12.69.41-.18.94-.07,1.42-.1ZM315.23,633.51c-13.17-.28-24,1.62-33.33,8.66-12.59,9.5-21.15,22-26.45,36.8-.85,2.38-2.03,4.65-3.05,6.98-.68-.25-1.36-.5-2.05-.75-1.19-15.43,6.38-28.24,15.14-42.04-9.43,3.73-16.89,7.49-21.79,14.9-4.68,7.08-9.16,14.3-13.76,21.44-1.55,2.4-3.18,4.74-4.77,7.11-.59-1.11-.46-1.75-.17-2.3,4.91-9.23,9.86-18.44,14.74-27.69,1.05-1.99,1.86-4.11,2.79-6.17-7.54,3.81-13.5,9.51-21.95,9.15-.21-.42-.41-.84-.62-1.25,3.7-2.26,7.41-4.52,11.11-6.78l-.69-1.25c-1.32.49-2.65.94-3.95,1.47-12.07,4.92-24.05,10.1-37.63,5.97-1.39-.42-3.81.84-5.08,2.03-14.91,13.94-25.89,30.47-31.42,50.21-5.5,19.67-2.69,38.33,8.52,55.52,8.64,13.26,25.86,24.05,38.84,24.39-3.08-1.6-5.94-2.93-8.64-4.53-13.14-7.73-31.08-33.62-24.55-35.38.78,1.1,1.57,2.22,2.93,4.15-1.56-24.99,6.38-44.94,24.69-60.52-7.78,13.77-10.93,28.65-10.07,44.26,1.12,20.51,8.7,37.87,26.52,49.53,2.12,1.39,4.73,2.04,7.12,3.03-11.94-14.39-18.62-29.87-16.56-48.31,1.98-17.69,8.3-33.61,20.01-47.15-20.06,59.72,23.28,108.07,57.81,108.94-14.38-8.93-27.15-18.65-35.57-32.97-8.4-14.28-12.64-29.43-9.71-46.18,1.82,15.18,4.14,30.15,16.29,42.22,0-1.55.17-2.24-.02-2.82-4.07-12.37-1.48-24.35,1.9-36.34.98-3.49,1.44-7.13,1.99-10.73.7-4.63,1.25-9.29,1.83-13.73,1.73,11.91,2.84,23.81,5.32,35.43,2.52,11.81,7.95,22.6,15.12,32.4,8.01,10.95,21.84,21.76,26.58,21.38-6.97-9.53-14.14-19.32-21.3-29.11,12.73,10.79,24.83,21.88,36.35,33.55,4.12,4.18,7.36,9.49,10.04,14.77,3.23,6.35,3.9,13.22-.93,19.35-5.01,6.36-11.79,8.68-19.59,7-5.24-1.13-10.31-3.1-15.45-4.7,2.2,2.58,4.74,5.36,7.78,6.12,6.2,1.56,12.75,3.13,19.02,2.72,15.9-1.04,24.87-13.83,21.48-29.48-2.95-13.6-11.19-23.96-20.86-33.41-7.14-6.98-14.82-13.52-21.22-21.13-15.13-18.02-21.78-38.72-17.1-62.32,2.76-13.88,9.96-25.65,17.83-37.12,5.41-7.89,10.48-16.03,16.53-25.33ZM628.71,303.62c1.23,1.54,2.44,3.09,3.69,4.61,16.29,19.72,35.03,22.68,55.41,11.45,7.96-4.39,13.76-11.15,14.51-20.89.28-3.6-.05-7.19-3.9-9.22-3.41,12.06-11.49,18.84-23.05,21.44-10.02,2.26-18.31-1.52-25.26-8.61,1.15.12,2.15.62,3.18,1.06,8.26,3.57,16.77,4.92,25.19,1.12,3.31-1.5,6.58-4.12,8.65-7.08,3.46-4.94-.94-8.11-3.83-11.52-2.88-3.4-5.24-1.22-7.71.35-2.39,1.52-4.69,3.17-7.09,4.67-19.02,11.89-38.11.25-44.34-19.52,8.63,5.09,16.72,10.1,26.68,9.81,9.87-.29,18.4-3.09,24-11.9-1.67.18-3.16.77-4.66,1.33-7.56,2.81-15.28,5.2-23.41,3.79-17.18-2.99-33.01-9.26-46.34-20.85-2.8-2.43-5.17-5.35-7.37-7.66,6.11,3.43,12.04,8.33,18.84,10.31,25.54,7.43,47.92.03,67.56-16.86,2.95-2.54,5.21-6.11,7.11-9.58,3.91-7.13,6.22-14.8,4.82-23.05-.76-4.47-2.44-8.57-8.34-9.71.16,2.35.71,4.22.33,5.88-1,4.27-1.32,9.31-3.86,12.49-9.18,11.5-21.41,17.11-36.4,15.79-13.87-1.22-23.83-8.67-31.4-19.81-7.3-10.74-14.23-21.75-21.81-32.29-6.44-8.96-13.87-17.14-24.12-21.99-2.86-1.35-6.05-1.98-9.6-3.11-1.71,13.56-7.09,24.41-16.09,34.81,13.15-.8,24.11,2.12,34.16,8.77,9.88,6.53,16.69,15.66,23.2,25.14-5.11-5-9.74-10.47-14.87-15.43-15.89-15.38-35.89-18.24-55.76-8.52-3.4,1.66-3.53,3.18-1.7,6.07,5.98,9.41,17.5,14.46,28.53,12.28,5.39-1.06,10.72-2.61,16.15-3.22,10.1-1.13,19.48,8.63,17.63,18.61-1.99,10.76-3.87,21.8-14.09,29.2,9.12,8.08,19.3,13.19,30.51,16.52-1.9.1-3.72.01-5.51-.27-10.99-1.75-20.35-7.31-29.35-13.31-9.29-6.19-18.96-3.06-28.75-2.46,10.42,8.88,20.99,17.14,34.42,20.97-6.82-1-13.61-2.21-19.58-5.11-7.13-3.47-13.54-8.42-20.31-12.63-1.5-.93-3.23-1.48-4.86-2.2-.39.5-.77,1.01-1.16,1.51,6.34,7.19,12.44,14.61,19.15,21.43,1.99,2.03,5.63,2.68,8.65,3.41,9.34,2.28,18.15-.76,26.96-3.24,8.28-2.33,16.16-1.66,23.63,2.68,11.69,6.79,17.87,17.31,19.4,30.41,1.11,9.46-1.77,17.8-9.66,23.89-1.13.87-2.12,1.94-3.22,2.95,5.58,4.36,9.54,4.09,16.67-.11,1.82-1.07,4.87-1.88,6.54-1.09,7.13,3.37,11.22,2.99,18.2-3.21-16.09-7.66-23.71-21.25-26.35-38.32ZM461.99,495.19c1.51-.63,2.22-1.05,2.99-1.23,29.21-6.85,49.79-35.35,47.03-65.31-.34-3.67-1.55-6.91-6.47-6.27-1.24.16-2.6-.46-3.89-.77-9.44-2.24-12.86-.82-17.84,7.4-14.08,23.26-34.28,30.81-60.18,22.85-10.61-3.26-16.68-11.17-23.12-20.44,12.4-2.32,22.8,2.85,33.69,4.01-.84.43-1.66.54-2.48.54-1.66,0-3.36-.28-4.98-.06-1.61.22-3.16.92-4.74,1.42,1.05,1.36,1.84,3.15,3.21,4,11.62,7.19,23.88,7.84,36.31,2.53,3-1.28,5.39-3.96,9.1-6.79-5.8-1.15-10.02-1.99-14.59-2.9,7.72-5.69,17.93-8.25,20.87-18.74-5.38,2.95-10.25,6.15-15.52,8.42-15.23,6.55-30.99,3.94-46.71,2.29-6.18-.65-12.46-.43-18.69-.49-2.07-.02-4.15.33-7.63.64,2.47-4.23,4.26-7.3,6.43-11.01-10.5,3.8-12.28,8.17-6.73,16.22,3.38,4.9,7.62,9.2,11.45,13.79,1.79,2.14,3.55,4.32,5.32,6.48-.23.2-.46.41-.69.61-8.78-4.94-17.56-9.89-25.34-14.26-3.29,5.7-5.73,11.14-9.23,15.77-6.98,9.22-7.78,23.28-1.85,33.41,1.49,2.54,1.22,6.19,1.41,9.36.09,1.47-.67,3-1.36,5.73,2.75-1.57,4.47-2.24,5.81-3.37,4.54-3.82,9.95-4.54,15.07-2.77,4.91,1.7,9.91,4.25,13.76,7.68,10.56,9.39,20.46,19.52,30.76,29.2,4.7,4.42,9.6,8.65,14.67,12.64,6.65,5.24,13.55,10.15,20.32,15.23,1.28.96,2.44,2.09,4.53,3.9-1.09-7.8-2.2-14.43-2.9-21.1-.79-7.58-2.31-15.3-1.53-22.76.99-9.37.98-17.93-6.26-25.89ZM314.85,226.35c.56-.35,1.11-.69,1.67-1.04-2.13-4.51-4.14-9.08-6.43-13.51-4.37-8.41-9.14-16.63-13.3-25.13-3.63-7.42-3.98-15.45-2.38-23.48,2.51-12.63,8.76-23.29,17.68-32.45.82-.84,1.88-1.45,2.83-2.17-1.53,3.38-3.65,6.15-5.5,9.09-7.87,12.49-13.62,25.54-11.72,40.91,1.17,9.45,6.65,15.79,14.53,22.39-2.58-7.13-4.7-12.98-6.82-18.84l1.28-.47c5.29,11.19,10.58,22.37,15.88,33.56.31.02.62.03.94.05v-15.29c.36-.1.72-.2,1.08-.3.97,3.89,1.93,7.77,2.89,11.61,2.69-4.56,3.17-7.98,1.39-13.2-1.29-3.78-2.94-7.43-4.39-11.16-7.71-19.83-1.59-41.45,20.58-57.64-28.82,32.87-19.48,52.18-8.16,72.35-.48-5.19-1.3-10.34-2.63-15.35-3.23-12.14-2.22-23.76,3.55-34.94,8.79-17.03,22.57-29.15,39.91-36.17,13.94-5.65,28.94-8.67,43.49-12.83,1.62-.46,3.3-.73,4.95-1.09-.01-.53-.02-1.06-.03-1.58-17.1-9.45-35.86-9.15-54.61-8-19.17,1.17-36.83,7.81-53.83,16.45,13.88-12.67,31.46-17.57,48.78-23.41-2.36-1.14-4.56-1.76-6.79-1.93-46.5-3.58-92.4,29.55-103.39,75.05-5.39,22.33-.3,41.65,18.62,56.11,1.84,1.41,4.08,2.3,6.74,3.77v-3.41c2.7,2.74,5.44,5.52,8.17,8.29.15-.24.29-.48.44-.71-2.07-6.3-4.14-12.59-6.21-18.89,3.48,3.16,6.07,6.83,9.12,10.08,3.02,3.21,6.5,5.98,9.79,8.94.33-.33.67-.67,1-1-.56-1.82-1.13-3.64-1.69-5.47l.69-.55c3.97,3.79,7.94,7.57,11.9,11.36ZM165.05,139.58c-12.59-2.59-23.55-3.59-33.61,3.1-8.41,5.59-14.99,13.02-20.59,21.48-8.71,13.16-24.75,18.67-39.49,14.08-15.49-4.83-26.62-19.61-26.38-35.04.03-1.75,0-3.49,0-5.21-6.07-.16-9.01,2.3-10.66,8.31-3.3,12.04-.8,23.17,5.7,33.46,10.34,16.37,24.84,28.18,42.09,36.55,15.64,7.59,30.48,5.54,43.84-5.51,2.61-2.16,4.28-5.44,6.38-8.21-.33-.5-.67-1-1-1.5-18.06,9.25-36.47,10.46-55,2.59-18.07-7.68-36.16-28.27-36.58-40.83,3.4,4.5,6.81,9.16,10.38,13.7,16.14,20.52,37.99,27.42,62.97,24.9,11.49-1.16,21.64-6.05,23.76-19.62.15-.97.64-1.89,1.01-2.82,2.4-6.08,6.23-11.03,11.89-14.36,5.55-3.27,11.62-2.03,15.67,2.94,4.63,5.68,4.54,6.86-1.05,13.32-5.45,6.31-5.5,14.61.09,19.79,4.13,3.83,9.44,4.68,14.54,3.48,7.08-1.67,14.14-3.84,20.83-6.68,20.98-8.91,32.59-6.83,48.56,9.54,1.53,1.57,2.59,3.58,3.87,5.39.55-.54,1.1-1.08,1.64-1.62-3.12-11.88-9.34-21.56-21.12-26.49-11.91-4.98-23.09.15-34.25,3.83,14.87-10.46,30.16-16.8,47.32-4.41-2.4-18.5-20.24-27.88-45.26-23.58,8.46-4.29,16.82-6.24,24.91-4.18,7.79,1.98,14.97,6.33,22.03,9.46-.12-14.78-6.65-25.05-21.29-30.4-18.51-6.76-36.18-4.09-52.28,7.14-11.05,7.7-21.39,16.43-32.53,23.99-14.09,9.57-28.93,17.87-46.03,21-14.09,2.59-27.3.58-39.21-7.76.94.1,1.81.48,2.67.85,15.73,6.85,31.9,8.68,47.28.3,15.6-8.51,30.48-18.37,45.34-28.16,4.74-3.12,8.41-7.87,13.55-12.82ZM357.43,798.65c.34-.22.67-.44,1.01-.66-.07-.45-.05-.96-.24-1.35-8.84-18.46-6.86-35.87,5.19-52.2,5.64-7.64,11.91-14.82,17.26-22.65,8.45-12.36,11.36-26.13,8.67-40.97-.51-2.84-.97-5.69-1.46-8.53,6.89,16.54,10.33,33.28,3.26,50.83,2.61-4.46,5.23-8.93,7.84-13.39.65,2.01.55,3.77.26,5.49-2.06,12.53-8.06,23.22-15.82,32.99-7.6,9.57-12.93,20.14-15.16,32.21-2.52,13.63.21,25.85,9.75,36.18,2.7,2.92,5.76,5.51,10.38,4.84-14.37-22.23-14.15-41.14.38-53.57-1.54,4.1-3.14,8.36-4.74,12.62,5.43-7.58,8.52-16.66,16.42-23.08-.99,6.5-2.29,12.16-2.59,17.88-.3,5.65.58,11.3,4.19,16.09-.04-8.81,1.82-17.02,6.13-24.54,3.48-6.06,7.02-12.13,11.03-17.84,6.21-8.86,10.57-18.4,13.02-28.96,2.29-9.88,2.88-19.71,1.07-29.7,7.24,16,6.57,32.48,2.81,49.54,12.1-14.89,11.81-50.96-.67-71.28-8.47-13.79-19.78-24.24-36.03-28.17,11.26,12.87,19.26,26.64,16.86,44.69-5.56-29.49-23.82-46.16-52.79-53.45-.49,11.78,11.24,16.21,14.01,26.82-8.3-9.27-15.76-17.59-24.06-26.86,0,3.31-.89,6.45.16,8.66,3.35,7.01,7.01,13.95,11.3,20.42,13.7,20.65,13.35,40.83-1.35,60.66-4.26,5.75-8.75,11.44-12.15,17.69-8.66,15.95-9.33,32.46-1.3,48.9,1.88,3.84,4.87,7.14,7.35,10.69ZM135.69,722.48c.44-.74.61-.89.59-1.02-.06-.49-.18-.97-.29-1.45-4.23-16.91-2.08-32.96,7.87-47.29,5.08-7.31,11.52-13.73,17.72-20.2,5.77-6.03,6.41-6.12,1.5-12.91-16.79-23.19-7.79-58.44,9.47-73.63,4.74-4.18,9.66-8.16,14.56-12.15,4.75-3.86,6.27-7.95,4.44-11.52-1.73,2.8-3.59,5.81-5.45,8.82-.39-.16-.79-.32-1.18-.48,2.49-8.2,4.91-16.41,1.24-25.2-4.91,5.73-8.9,11.96-13.53,17.69-4.66,5.77-9.94,11.03-14.95,16.51-.58-4.88.13-8.86-.17-12.76-.47-6.22.81-11.87,3.57-17.36,3.22-6.4,6.51-12.78,9.32-19.36,1.18-2.76,1.21-6.01,1.76-9.03-.64-.27-1.27-.54-1.91-.81-1.73,1.62-4.04,2.93-5.1,4.91-3.93,7.32-7.41,14.87-11.15,22.29-1.15,2.29-2.13,4.91-3.93,6.58-8.43,7.81-17.3,15.15-25.66,23.03-10.83,10.2-19.74,21.78-22.85,36.78-1.74,8.36-1.18,16.62,2.47,25.92,4.09-25.17,25.47-52.93,42.13-55.35-22.09,21-32.17,46.27-29.42,76.44,8.65-7.65,13.95-18.83,25.98-22.55-8.98,10.25-17.75,20.18-26.43,30.18-17.03,19.63-15.68,52.1,2.92,70.17,1.67,1.62,3.75,2.83,5.63,4.23-9.54-16.43-10.17-33.06-4.61-50.34-.42,18.3.46,36.07,15.45,49.88ZM232.52,635.06c.09.19.17.38.26.57,1.56-.76,3.25-1.34,4.67-2.32,8.51-5.87,15.78-12.97,19.57-22.79,2.63-6.81,4.47-13.93,6.76-20.88,2.71-8.23,6.15-16.02,14.52-22.21-5.28,12.66-10.03,24.08-14.79,35.49.41.17.81.34,1.22.51.67-1.32,1.62-2.58,1.97-3.98,2.5-9.9,9.65-15.61,17.95-20.38,7.51-4.32,15.04-8.61,22.41-13.16,2.86-1.77,5.31-4.2,7.95-6.33-.24-.69-.47-1.38-.71-2.08-5.58.85-11.17,1.7-18.07,2.75,3.19-3.75,5.53-6.5,8.35-9.81-2.92.6-5.1,1.05-8.05,1.66,2.28-1.98,3.93-3.4,5.57-4.83-.14-.5-.28-1-.42-1.5h-11.62c-.98-4.78-2.97-8.44-8-7.53-12.12,2.2-23.37,6.25-32.36,15.38-6.96,7.06-14.44,13.61-21.69,20.39-.43-.4-.87-.8-1.3-1.2,6.86-7.9,13.72-15.79,20.58-23.69-5.43,1.11-10.85,2.68-15.59,5.41-13.17,7.58-19.52,19.88-22.81,34.27-2.98,13.06-16,19.68-28.63,14.97-6.44-2.4-10.79-8.75-10.58-15.45.23-7.45,5.2-15.08,11.52-16.5,2.18-.49,4.8.96,7.22,1.53-.71,1.83-.98,4.05-2.21,5.41-4,4.43-6.08,9.3-3.9,15.07.77,2.05,2.8,3.62,5.02,6.34.69-4.65,1.11-7.44,1.56-10.5,2.7,1.3,4.7,2.26,6.42,3.09-.88-4.59-2.89-9.06-2.27-13.14,1.25-8.16,3.93-16.1,6.18-24.72,3.99,6.92-3.32,14.39,3.01,20.71,3.84-11.36,7.66-22.73,9.96-34.4,2.91-14.81-9.42-29.42-19.51-33.68-.68,2.17-2.14,4.38-1.85,6.33.71,4.68,1.78,9.43,3.52,13.82,6.78,17.06,3.09,25.47-8.56,32.72-6.63,4.12-12.67,9.91-17.43,16.13-10.14,13.23-3.45,32.83,12.44,37.83,13.33,4.2,25.33,1.3,35.77-7.98,1-.88,1.91-1.86,2.88-2.77.94-.87,1.91-1.71,2.86-2.56.21.46.42.92.64,1.38-14.14,20.53-32.14,27.59-56.13,14.12,6.04,15.22,21.82,22.16,37.69,16.97,13.8-4.51,24.58-13.08,32.4-25.35,5.1-8,10.17-16.04,15.53-23.87,1.98-2.9,4.72-5.27,6.97-7.72-2.54,10.16-5.29,20.02-7.4,30.01-1.82,8.65-5.76,15.9-12.16,21.88-2.4,2.24-4.87,4.4-7.3,6.6ZM544.52,609.16c20.68,20.25,30.29,44.26,24.25,73.67,1.43-1.5,2.42-2.96,3.07-4.56,5.75-14.09,7.27-28.59,4.61-43.62-3.08-17.43-11.75-32.03-22.25-45.83-6.11-8.03-12-16.24-17.99-24.37.38-.36.75-.73,1.13-1.09,7.96,6.93,15.93,13.86,23.89,20.79.45-.26.9-.53,1.35-.79-2.08-7.77-4.15-15.54-6.51-24.34,14.33,10.96,19.49,25.93,23.53,41.72.51-2.32.8-4.59.69-6.85-.95-19-9.66-34.08-24.07-45.94-16.36-13.46-25.33-30.95-29.43-51.37-1.11-5.54-2.54-11.04-4.18-16.44-.5-1.64-2.21-2.91-3.99-5.13v60.12c-.79.07-1.57.14-2.36.22-.8-4.79-2.09-9.57-2.3-14.39-.28-6.64.5-13.33.32-19.98-.09-3.32-1.32-6.61-2.03-9.91-.41.11-.82.22-1.22.33-.85,2.95-1.69,5.9-2.47,8.61-2.64-.28-4.65-.5-7.11-.76.23,4.68.51,8.64.59,12.61.04,2.15.38,4.63-.52,6.41-4.95,9.86-2.83,19.59.74,28.99,1.29,3.39,4.47,6.72,7.65,8.62,10.32,6.16,16.44,14.77,18.11,26.66.67,4.77,1.72,9.49,2.54,14.24,1.53,8.87.89,17.22-5.53,24.33-.78.86-.85,2.39-1.16,3.63-1.27,5.13-2.09,10.42-3.89,15.35-1.25,3.4-1.66,6.18.17,9.42,8.98,15.94,11.23,33.27,10.28,51.23-.06,1.05.13,2.1.27,4.23,16.8-25.34,16.28-51.84,10.69-79.11,9.54,10.37,12.52,23.47,16.02,36.37-.49-18.63-5.78-36-12.88-53.06ZM415.86,581.47c.15-.18.31-.36.46-.54,2.2,5.35,4.73,10.59,6.54,16.06,3.06,9.31,7.43,17.81,13.81,25.25,14.31,16.7,39.65,21.02,58.67,9.98,1.63-.94,3.09-2.17,4.63-3.27-18,1.82-34.85,1.52-47.52-13.62,1.78.26,3.4,1.05,5.11,1.55,1.72.5,3.52.7,5.28,1.03-11.87-10.12-18.99-22.91-25.42-36.19,4.26,5.07,8.11,10.48,12.48,15.44,17.06,19.36,43.15,17.88,58.89,8.43,4.68-2.81,8.82-7.17,12-11.67,5.1-7.22,2.92-21.7-3.41-27.88-1.05-1.03-2.45-1.7-3.69-2.54-.35.22-.69.44-1.04.66,2.91,7.5,4.78,14.91,1.25,22.73-3.46,7.67-9.21,12.45-16.89,15.29-12.97,4.8-29.43-.36-36.39-11.43,18.67,12.86,40.42,13.16,45.11.35-13.83,3.18-27.09,1.44-37.99-7.38-12.95-10.46-24.81-22.28-37.48-33.81,12.83,4.34,22.74,12.57,32.85,20.64.11-.93-.03-1.54-.33-2.06-.67-1.15-1.37-2.29-2.16-3.35-7.99-10.75-19.24-16.02-31.86-19.08-2.72-.66-5.37-1.64-7.98-2.66-7.48-2.91-15.18-4.03-24.1-3.62,4.16,5.25,7.7,9.71,11.23,14.17-.34.29-.67.59-1.01.88-4.81-4.27-8.83-10.16-16.82-8.63v5.86c-5.2-.6-9.95-1.15-16.05-1.85,1.9,4.13,3.03,6.58,4.5,9.78-3.77-.45-6.75-.8-9.79-1.16.5,11.18,18.91,29.43,32.62,32.04-2.54-6.4-4.87-12.26-7.45-18.73,7.37,6.18,10.16,11.33,12.84,23.22,3.82,16.9,12.88,30.15,27.55,39.47,1.1.7,2.32,1.2,3.48,1.79-1.19-2.65-2.76-4.59-4.54-6.31-7.34-7.11-11.4-15.87-13.21-25.8-1.4-7.67-2.79-15.35-4.18-23.02ZM479.11,123.65c-.23.71-.46,1.43-.69,2.14.68.64,1.32,1.34,2.04,1.92,7.9,6.35,15.77,12.74,23.8,18.94,1.09.84,3.11,1.21,4.46.87,10.31-2.62,14.09-8.32,12.74-18.79-.79-6.13,1.08-9.43,6.71-11.84,11.13-4.77,22.27-.59,26.62,10.9,1.95,5.13,2.14,11.01,2.56,16.6.2,2.67.82,4.07,3.31,5.27,13.61,6.55,24.81,16.12,33.94,28.09,5.15,6.75,9.94,13.78,15.12,20.5,7.02,9.11,15.4,16.89,26.36,20.72,5.62,1.97,11.95,2.14,18,2.54,2.01.13,4.14-1.55,5.93-2.29-8.03-4.36-15.75-7.91-22.77-12.52-10.99-7.21-18.31-17.75-24.23-29.33-7.23-14.13-15.08-28-26.76-38.94-23.5-22-50.59-38.28-81.08-48.79-2.36-.81-5.22-1.11-6.93-2.66-6.16-5.55-13.68-7.44-21.43-8.61-14.23-2.14-28.22.65-42.17,2.93-6.1,1-12.1,2.66-18.14,4.01.05.43.1.87.15,1.3,1.57.44,3.22.71,4.71,1.36,5.31,2.32,10.96,4.16,15.75,7.31,6.39,4.21,9.26,4.86,16.15,1.05,8.3-4.58,17.23-7.14,25.73-8.4-8.82,3.29-18.35,6.85-28.59,10.67,4.67,3.78,8.58,6.17,11.47,9.46,3.94,4.47,7.75,5.01,13.21,2.88,9.74-3.8,19.87-4.63,30.11-1.26-12.01-.2-23.52,1.48-34.23,8.25,2.48,1.85,5.02,3.27,7.72,3.75,4.08.72,8.3.67,12.43,1.16,7.61.89,14.92,2.75,19.96,6.05-9.64-1.59-20.79-3.43-31.95-5.27ZM335.86,743.28c5.58-6.73,10.86-13.2,16.26-19.58,2.9-3.43,6.19-6.54,8.98-10.05,13.9-17.54,12.88-40.81-2.72-56.83-6.62-6.79-14.08-12.84-15.01-24.18-13.94,6.28-10.76,17.78-11.44,28.12-1.42-4.5-2.29-8.97-2.12-13.4.17-4.44,1.38-8.83,2.14-13.25-.67-.27-1.35-.55-2.02-.82-2.33,4.36-5.45,8.49-6.84,13.13-3.32,11.13-9.02,20.59-16.84,29.09-16.02,17.41-12.84,48.75.6,62.69,8.48,8.79,18.46,16.13,27.83,24.05.85.72,2.15.92,2.12.9-3.24-11.15-7.8-22.36-9.54-33.99-1.99-13.34,4.02-27.7,11.02-32.64-11.43,21.37-12.04,38.7-2.41,46.76ZM257.7,129.46l.75-.54c-.67-1.39-1.19-2.88-2.04-4.14-9.49-14.08-8.91-31.8,1.74-45.16,8.27-10.37,19.44-16.47,31.62-21.04,6.23-2.34,12.35-4.95,18.52-7.44,7.56-3.06,15.02-6.4,22.71-9.09,6.21-2.17,12.89-3.08,19-5.46,4.06-1.58,7.87-4.35,11.09-7.34,3.23-3,2.07-7.3-1.72-8.98-7.38-3.27-22.97.17-27.65,6.91-6.09,8.76-14.66,13.49-24.37,16.37-14.68,4.35-29.59,7.92-44.24,12.33-14.38,4.33-27.65,10.7-36.71,23.53-12.44,17.59-9.24,37.76,8,50.4,3.22,2.36,6.46,4.76,9.35,7.49,2.17,2.05,3.8,4.66,5.66,7.03.62-.5,1.24-1,1.86-1.5-3.07-7.6-6.14-15.2-9.2-22.8.32-.18.63-.36.95-.54,3.81,5.83,7.62,11.66,11.44,17.48.43-.1.86-.2,1.3-.3-.17-2.81-.33-5.62-.51-8.69.79.49,1.62.99,2.45,1.5ZM503.31,150c-10.05-6.78-18.99-12.8-27.93-18.84-10.49-7.08-22.12-10.79-34.69-11.44-6.25-.32-12.54-.06-18.81-.06,14.61-4.35,29.11-2.65,43.94,1.07-5.65-8.37-14.35-13.53-22.47-14.21-21.95-1.86-42.33,3.51-61.71,13.28-12.73,6.42-23.49,15.26-30.44,27.99-2.04,3.74-3.22,7.96-4.79,11.95.97.72,1.94,1.43,2.91,2.15.83-1.64,1.32-3.59,2.53-4.87,9.61-10.17,21.21-17.03,34.75-20.69,21.82-5.9,42.75-4.21,63.11,6.08,13.41,6.78,27.77,10.39,42.98,9.32,3.22-.23,6.4-1.02,10.62-1.73ZM418.81,32.87c-.2-.69-.39-1.38-.59-2.07-6.79,1.96-13.78,3.41-20.33,5.99-8.88,3.49-17.73,6.67-27.35,7.09-15.48.67-30.85,1.88-45.99,5.71-20.31,5.14-39.04,13.34-55.34,26.63-7.18,5.85-12.13,13.27-13.81,22.53-1.74,9.63,1.46,17.73,8.2,25.83,2.38-5.68,4.82-10.34,6.26-15.28,1.52-5.21,1.39-10.94,3.19-16.02,4.76-13.43,17.34-23.65,29.51-24.84-18.98,11.48-30.69,28.48-27.48,39.3,5.74-4.8,11.4-9.98,17.51-14.54,11.18-8.34,22.57-16.4,34.02-24.36,3.11-2.17,6.55-4.27,10.16-5.23,11.86-3.18,23.83-5.99,35.83-8.65,17.17-3.8,32.78-10.64,46.19-22.09ZM511.34,362.39c-7.89,1.84-10.08-4.15-13.29-8.98-3.23-4.85-6.61-9.6-10.14-14.23-5.6-7.34-13.05-10.5-22.32-9.49-9.09.99-17.49,3.73-25.29,8.62-10.38,6.51-21.17,11.83-33.99,11.6-10.79-.2-8.95-.5-11.93,8.78-3.65,11.34-8.6,21.69-18.75,28.71-2.21,1.53-4.47,2.99-7.6,5.09,9.63.59,16.96-2.11,22.88-8.03,5.17-5.18,9.76-10.92,14.81-16.23,1.87-1.96,4.3-3.39,6.48-5.06.38.48.75.96,1.13,1.43-4.74,10.5-14.47,16.71-21.9,24.99,26.19-8.49,39.31-31.62,56.32-50.47-3.08,15.14-14.7,24.66-23.59,36.02,2.08-.4,3.8-1.04,5.33-1.98,7.8-4.8,15.36-10.01,23.38-14.4,5.77-3.16,11.9-6.17,18.25-7.6,9.33-2.1,19.1,4.06,21.15,12.02-5.05-4.82-9.21-11.33-18.85-9.92,8.58,5.66,16.02,10.67,23.56,15.5,6.44,4.13,11.12,2.22,14.38-6.38ZM458.82,763.06c.34.24.69.48,1.03.72,2.03-1.79,4.17-3.48,6.08-5.4,10.01-10.03,16.87-21.99,20.27-35.65,5.37-21.57,2.08-41.73-11.86-59.48-1.94-2.47-5.45-4.7-8.5-5.13-9.54-1.37-18.52-3.97-26.88-8.79-2.5-1.44-5.19-2.53-7.8-3.78,3.1,6.19,6.91,11.41,10.42,16.83,17.64,27.25,19.59,55.23,3.98,84.13-4.82,8.92-9.16,18.11-13.58,27.24-.98,2.03-1.38,4.36-2.04,6.54,4.9-6.07,9.1-12.25,13.45-18.32,5.82-8.12,12.04-15.97,17.58-24.28,11.62-17.45,16.49-36.27,10.25-57.01-.12-.42-.02-.9-.02-1.35.52-.14,1.04-.27,1.55-.41,1.92,6.95,4.73,13.8,5.6,20.88,2.93,23.77-5.92,44.29-19.54,63.26ZM597.58,317.83c-3.6.25-7.23-.04-10.55.83-8.52,2.25-16.82,5.35-25.37,7.5-9.76,2.45-19.22,1.39-27.65-4.67-1.52-1.09-2.69-2.67-4.02-4.02.2-.36.41-.73.61-1.09,10.84,7.84,22.32,8.18,34.29,3.61,4.97-1.9,10.03-3.57,15.04-5.38,9.3-3.36,18.5-7.71,28.65-2.39-6.28-9.43-15.12-5.79-24.28-4.67,7.14-3.39,13.37-4.21,20.14-1.63,7.13,2.72,7.42,10.14,11.42,15.19-.2-4.65-.76-9.11-2.16-13.28-4.43-13.24-14.95-18.66-28.32-14.87-4.32,1.23-8.56,2.78-12.91,3.87-15.46,3.87-28.47-1.44-36.93-14.88-2.3-3.66-4.33-7.57-7.14-10.8-2.11-2.43-5.25-3.95-8.03-5.94-4.13,7.42-5.52,13.59.3,19.51,1.13,1.15,1.81,2.79,2.54,4.28,9.97,20.49,28,29.48,49.89,22.07.1-.03.27.17.73.48-12.95,5.75-25.92,6.69-37.91-.78-6.44-4.01-11.27-10.58-16.9-15.91-1.2-1.14-2.76-1.9-4.16-2.84-.63,1.88-2.15,4.02-1.71,5.6,1.41,5.1,2.99,10.29,5.49,14.92,12.21,22.6,35.69,28.76,56.76,15.71,6.66-4.12,14.24-6.75,22.16-10.41ZM640.19,560.56c12.54-9.48,19.74-27.23,17.42-41.9-2.21-13.96-8.16-26.01-19.32-35.05-4.52-3.66-9.25-7.08-14.06-10.35-11.39-7.74-18.06-18.38-20.27-31.92-.22-1.36-.64-2.69-.97-4.04-.47-.11-.93-.22-1.4-.33-2.46,4.63-4.88,9.28-7.37,13.9-3.79,7.03-4.01,14.32.13,20.97,4.19,6.73,9.32,12.89,14.23,19.15,4.93,6.27,10.73,11.94,15.02,18.61,8.12,12.63,10.61,26.6,5.88,41.11-1.68,5.15-5.07,9.74-8.27,15.68,12.92-12.2,21.18-25.64,22.95-42.41.75-7.06-2.04-13.39-6.35-18.99-.92-1.19-1.75-2.45-2.62-3.68,7.57,3.69,10.43,10.61,12.87,17.71,5.09,14.79.74,28.07-7.87,41.55ZM135.78,198.59c-.56,1.16-1.37,2.26-1.62,3.48-1.17,5.69-4.82,9.33-9.6,12.12-3.01,1.76-6.18,3.33-8.98,5.4-6.1,4.53-12.32,8.97-17.9,14.09-6.85,6.29-12.79,13.57-19.65,19.85-10.27,9.41-22.22,15.13-36.62,14.31-1.13-.06-2.29.26-3.44.4,10.85,4.48,21.28,1.03,32.39-1.31-11.65,9.83-29.15,9.15-40.16-.61-1.55-1.38-5.14-1.79-7.06-.97-1.28.56-2.22,4.42-1.61,6.23.9,2.66,2.84,5.75,5.2,6.96,5.37,2.76,11.11,5.32,16.99,6.5,23.98,4.8,44.2-3.54,61.89-19.25,1.51-1.34,3.04-4.58,2.43-6.05-2.94-7.12-2.21-14.1-.13-21.04,4.39-14.65,15.46-18.04,27.43-8.6.65.52,1.3,1.04,1.99,1.51,5.94,4.09,11.51,3.57,17.25-1.86-10.57-7.7-17.84-17.38-18.82-31.18ZM325.41,75.36c.22.51.44,1.02.66,1.53,3.06-.56,6.16-1,9.19-1.71,12.15-2.86,24.45-3.27,36.72-1.49,7.2,1.04,14.25,3.14,21.39,4.66,3.81.81,7.78,2.39,11.49,1.95,13.01-1.54,25.29-5.82,36.82-12,2.86-1.53,5.38-3.93,7.61-6.34,5.16-5.58,6.05-12.21,3.09-19.03-3.13-7.19-8.79-10.87-16.86-11.1-9.13-.26-15.57,5.15-22.32,9.93-13.1,9.25-27.16,15.86-43.28,18.12-8.68,1.22-17.37,3.28-25.67,6.1-6.58,2.23-12.57,6.19-18.82,9.38ZM145.79,267.02c-6.64-1.48-11.89-2.74-17.18-3.78-1.4-.28-3.08-.29-4.38.23-6.46,2.58-12.98,5.09-19.2,8.17-10.41,5.16-20.67,10.61-30.83,16.24-2.07,1.15-4.04,3.37-4.95,5.55-3.39,8.1-6.33,16.39-9.4,24.63-.57,1.54-1.44,3.17-1.34,4.71.22,3.55,7.33,9.27,10.83,9.09,4.32-.22,9.57-5.82,9.53-10.31-.09-8.12,1.19-15.94,4.91-23.23,5.5-10.81,15.42-15.27,27.1-12.17,3.05.81,6.13,1.65,9.04,2.87,6.95,2.91,13.54,1.72,19.57-2.03,3.75-2.34,7-5.57,10.2-8.68,4.28-4.15,8.29-8.57,12.41-12.89.82-.85,1.58-1.75,2.37-2.63-15.19,4.43-25.12,18.91-41.58,20.42,7.5-5.3,15.01-10.61,22.9-16.18ZM270.06,39.3c-.05-.35-.11-.69-.16-1.04-.58-.11-1.15-.31-1.73-.31-25.32.33-48.11,7.92-67.53,24.37-11.17,9.46-16.45,21.61-13.84,36.42.35,1.97,1.81,4.2,3.42,5.41,6.78,5.08,13.81,9.81,20.75,14.67,1.79,1.25,3.59,2.5,5.39,3.75,0-2.42-.82-4-1.68-5.55-9.45-16.98-6.55-38.2,7.11-51.97,12.01-12.11,26.34-20.13,42.89-24.22,1.81-.45,3.59-1.01,5.38-1.52ZM714.49,412.94c-1.77,4.33-2.68,9.29-5.45,12.76-6.63,8.33-15.94,9.92-25.81,7.18-12.04-3.35-20.07-11.8-25.11-22.77-2.94-6.39-4.35-13.49-6.49-20.41-7.78.83-12.99,6.82-12.02,15.15,1.86,16.01,10.32,28.24,23.75,36.37,14.33,8.68,29.77,10.29,45.29,2.47,5.72-2.89,9.85-7.42,11.74-13.65,2.36-7.79-.56-15.09-5.9-17.09ZM389.44,607.58c-2.78-1.25-4.6-2.32-6.57-2.89-4.95-1.45-9.9-3.28-14.97-3.85-6.52-.73-13.16-.49-19.75-.46-6.26.04-12.69,1.36-18.74.34-12.9-2.19-24.46,2.08-36.57,4.97,4.3,9.88,14.28,16,23.16,15.07,6.6-.69,13.26-1.28,19.89-1.22,9.48.08,18.96.91,28.45,1.19,10.39.31,17.54-5.67,25.11-13.14ZM495.79,747.22c14.17-16.57,17.34-36.83,18.44-57.84.78,1.49,1.38,2.91,1.38,4.34.08,12.23.04,24.46.04,36.33,12.85-16.15,12.24-66.81-1.14-80.72-7.79,4.04-15.54,8.06-23.53,12.21,15.19,27.91,17.86,56.31,4.81,85.69ZM240.38,358.91c12.39,9.8,23.85,20.75,38.88,27.11-11.21-12.53-22.02-24.69-32.96-36.74-1.76-1.94-3.92-3.68-6.21-4.95-8.29-4.61-16.63-9.13-25.09-13.41-7.42-3.76-9.92-3.21-16.14,2.3-8.31,7.36-16.7,14.64-24.97,22.05-.72.64-1.31,2.16-1.04,2.95.29.84,1.78,1.92,2.59,1.81,3.23-.45,6.68-.77,9.52-2.18,4.89-2.44,9.39-5.68,14.06-8.58,4.32-2.69,9.15-4.1,13.78-1.89,4.12,1.96,7.69,5.13,11.37,7.93,5.54,4.23,10.89,8.71,16.49,12.86,1.51,1.12,3.62,1.45,5.45,2.14.34-.44.67-.89,1.01-1.33l-6.75-10.08ZM71.49,537.97c.44.19.88.39,1.32.58,2.16-14.58,12.62-21.5,24.14-27.45.29-.15.56-.36.83-.55,9.26-6.86,16.4-15.27,18.22-27.01.36-2.31-1.45-4.97-2.26-7.46-1.61,1.4-3.75,2.5-4.74,4.26-5.36,9.46-13.13,16.22-22.54,21.37-4.09,2.24-8.16,4.53-12.03,7.11-12.74,8.47-18.2,21.07-18.58,35.75-.26,9.9,5.2,17.34,13.53,22.81-4.17-11.39-3.73-22.47,1.26-33.51.28,1.37.56,2.73.84,4.1ZM73.03,416.88c-.99,16.69-3.94,27.29-12.34,37.48-4.03,4.9-9.34,8.97-14.67,12.51-5.29,3.5-11.27,6.66-17.8,1.17,2.77,6.97,7.56,10.6,14.35,11.59,6.81.99,13.22-.22,19.29-3.51,20.05-10.87,30.09-39.82,21.14-61.1-3.27.61-6.54,1.22-9.97,1.85ZM242.25,211.75c-3.51-9.79-13.59-16-23.92-14.51-5.67.82-11.2,2.98-16.61,5.02-5.13,1.93-9.9,4.8-15.03,6.71-17.49,6.53-33.62-3.81-34.94-22.39-.24-3.39.6-6.85.94-10.28.44.04.87.08,1.31.12-.32,3.05-.65,6.1-.97,9.15.48.05.96.11,1.44.16,1.23-4.4,2.47-8.81,3.7-13.21-.6-.44-1.19-.87-1.79-1.31-2.71,2.38-6.33,4.26-7.97,7.23-6.24,11.36-4.36,22.62,2.46,33.07,6.67,10.21,16.68,14.49,28.46,12.45,6.03-1.05,11.81-4.27,17.33-7.2,4.38-2.32,8.09-5.85,12.29-8.54,7.93-5.06,16.24-5.53,24.7-1.3,2.66,1.33,5.2,2.9,8.6,4.81ZM576.45,231.86c.67.2,1.34.41,2.01.61-1.06-2.68-1.43-6.09-3.33-7.88-3.43-3.23-8.18-3.97-12.61-2.01-3.78,1.67-7.31,3.97-10.78,6.25-10.01,6.58-20.48,6.72-30.86,1.57-5.29-2.62-9.88-6.65-14.89-9.9-1.23-.8-3.1-1.76-4.23-1.37-5.45,1.92-10.75,4.28-17.2,6.95,6.14,4.36,11.31,8.48,16.91,11.92,17.16,10.54,34.62,12.97,52.73,1.84,5.35-3.29,11.4-5.49,17.24-7.9,1.44-.6,3.33-.09,5.02-.09ZM690.3,451.3c-.01-.44-.02-.88-.04-1.32-.62-.07-1.25-.15-1.87-.19-21.94-1.32-38.76-10.81-49.02-30.74-1.6-3.1-2.73-6.49-4.66-9.36-1.27-1.89-3.76-4.5-5.36-4.28-3.33.46-6.56,2.29-6.33,6.91.84,16.77,6.65,30.94,21.57,39.89,15.41,9.25,30.65,4.88,45.7-.92ZM172.79,265.41c-4.01,2.15-7.66,3.39-10.35,5.73-3.6,3.13-6.42,7.14-9.62,10.74-2.97,3.35-5.64,7.07-9.04,9.9-9.62,8.03-20.26,6.53-31.17,2.86-13.92-4.69-26.64,6.71-24.22,22.57.44-1.78.63-2.72.9-3.63,2.82-9.36,9.78-13.43,19.2-10.68,4.59,1.34,9.05,3.34,13.33,5.51,5.86,2.96,11.84,3.25,17.95,1.5,13.94-3.99,34-22.83,33.02-44.5ZM632.02,364.37c-10.67,8.46-20.63,16.66-35.64,15.71,7.17-2.06,14.07-2.6,19-9.55-3.02.76-4.91,1.26-6.81,1.71-15.88,3.73-29.28-.56-40.21-12.59-1.9-2.09-3.54-4.41-5.28-6.64-2.2-2.8-8.27-4.19-11.18-2.27-3.54,2.34-1.38,5.5-.48,8.08,4.24,12.18,13.22,20.26,24.17,26.17,20.11,10.86,46.43,1.46,56.45-20.63ZM104.63,320.76c14.07,20.43,38.32,22.96,55.97,4.9,7.71-7.88,14.26-16.85,15.41-28.42.25-2.48-.62-5.08-.98-7.63-7.65,12.7-17.11,22.44-30.86,25.66-12.94,3.02-26.41,3.76-39.54,5.49ZM484.19,551.27c-.74.17-1.37.37-2.02.44-5.98.7-7.17,1.36-5.13,7.03,2.77,7.7,7.14,14.84,10.92,22.16.25.49,1.32.56,2.01.82.49-.26.97-.53,1.46-.79-2.39-6.9-4.78-13.79-7.4-21.34,8.46,7.04,12.63,16.18,15.61,26.13,9.54-6.75,10.97-14.22,4.65-22.53-1.49-1.96-3.66-3.39-5.3-5.25-1.84-2.1-3.44-4.43-5.14-6.66.34-.27.69-.55,1.03-.82,1.67,1.42,3.33,2.85,5.54,4.74-.08-1.34.01-1.85-.15-2.25-4.18-10.37-5.43-20.79-1.76-31.7.65-1.93-1.37-4.75-2.15-7.15-1.82,1.12-4.35,1.81-5.36,3.43-6.41,10.3-10.31,21.25-6.81,33.73ZM95.21,623.43c-2.54-14.89-1.26-29.25,5.8-42.76,6.84-13.09,16.83-23.46,28.6-32.22,5.47-4.07,10.9-8.21,16.22-12.48,1.21-.97,2.69-2.6,2.69-3.92,0-4.86-.58-9.71-.94-14.61-7.86,6.22-15.05,12.37-22.71,17.87-18.03,12.95-28.1,30.74-32.48,52.09-2.51,12.23-2.74,24.37,2.81,36.03ZM28.73,455.08c-.43-.56-.87-1.12-1.3-1.68-2.29,1.76-5.22,3.08-6.75,5.35-6.64,9.83-1.99,24.38,9.72,29.77,30.47,14.03,58.46-8.64,63.35-30.15.51-2.25,1.12-4.71.72-6.89-.51-2.79-2-5.39-3.38-8.84-3.11,7.53-5.22,13.89-8.26,19.76-8.96,17.32-27.89,24.71-46.19,18.43-10.31-3.54-14.39-13.7-9.33-23.25.45-.85.95-1.68,1.42-2.51ZM208.4,415.86c-.81,4.96,2.94,7.51,5.97,10.11,3.17,2.72,6.81,4.89,10,7.13-3.04,1.07-5.93,2.08-9.33,3.28,11.78,13.97,38.23,13.9,45.94.33h-19.86c12.79-2.34,24.7-4.62,36.64-6.65,3.08-.52,6.34-.63,9.43-.25,1.92.24,3.69,1.76,5.84,2.88,7.09-5.27,6.12-10.71-4.66-17.1,2.17,3.2,3.9,5.73,6.34,9.33-2.93,0-4.37-.09-5.81.02-8.61.64-17.29.88-25.82,2.1-19.3,2.75-38.27,4.8-53.5-11.34-.06-.06-.3.04-1.19.18ZM37.89,336.97c-7.82-5.01-17.53,4.34-18.09,12.2-1,14.13,11.87,26.9,28.19,27.81,4.17.23,5.9-1.02,6.21-5.47.39-5.59,1.2-11.31,2.95-16.61,2.2-6.66,9.04-8.4,15.52-5.89,4.33,1.68,9.31,2.57,13.94,2.38,6.03-.25,9.39-3.98,10.63-10.75-4.08.97-7.83,1.28-11.04,2.76-6.29,2.9-11.93,2.29-17.41-1.62-1.46-1.04-2.82-2.24-3.67-2.91-5.37,6.58-10.28,13.25-15.89,19.26-4.51,4.82-12.78,4.24-17.12-.4-4.58-4.91-4.16-11.2,1.13-16.4,1.48-1.46,3.03-2.85,4.64-4.35ZM540.32,97.82c.61.48,1.43,1.39,2.46,1.87,1.81.84,3.74,1.42,5.62,2.1.47-2.15,1.46-4.35,1.29-6.45-.42-5.16-4.4-7.93-7.66-11.53-4.63-5.12-9.49-5.45-14.74-3.24-8.3,3.5-15.69,2.42-23.31-1.92-12.93-7.37-26.74-12.7-41.25-16.1-1.4-.33-3.5-1-4.2-.35-2.92,2.71-5.43,5.86-8.57,9.41,6.55.39,12.33.05,17.79,1.2,8.55,1.8,18.09,2.77,25.06,7.37,11.98,7.91,25.22,10.83,38.45,14.59,4.62,1.31,7.34-.45,9.3-4.34.54-1.06,1.06-2.13,1.59-3.2.37.14.75.27,1.12.41-.93,3.22-1.86,6.45-2.94,10.2ZM65.29,365.98c-.47.15-.93.29-1.4.44,1.06,2.81,1.56,6.04,3.28,8.37,7.56,10.27,17.74,16.06,30.71,15.46,19.51-.9,33.3-11.11,42.8-27.66,3.55-6.19,2.51-8.3-4.53-9.01-1.39-.14-3.37.94-4.34,2.08-2.26,2.64-3.93,5.77-6.09,8.5-16.21,20.52-43.45,21.31-60.42,1.81ZM97.93,413.58c1.71,7.04,2.5,13.73,4.96,19.75,5.45,13.36,11.74,26.38,17.71,39.53.41.9.98,1.75,1.57,2.54,4.19,5.57,13.23,8.44,19.08,5.96-.55-11.61-8.79-19.32-15.63-26.91-7.88-8.75-14.24-17.69-15.37-29.4-.68-7.07-4.22-10.25-12.32-11.47ZM604.08,402.25c-7.27-2.82-7.46-2.66-9.28,3.55-3.59,12.2-7.15,24.46-19.53,31.15-2.7,6.8-12.17,10.62-8.78,20.17.36,1.02-.61,2.5-.92,3.77-.51,2.06-1.42,4.13-1.38,6.18.06,3.02-.32,6.88,3.95,7.53,4.09.62,7.34-1.39,8.62-5.28,1.18-3.59,1.84-7.43,2.2-11.21.55-5.79,2.46-10.73,5.89-15.57,4.98-7.03,9.54-14.47,13.32-22.2,2.78-5.68,4.02-12.11,5.92-18.1ZM317.81,649.08c-.58-.29-1.15-.59-1.73-.88-14.58,10.41-26.22,23.29-31.03,41.21-4.54,16.91-3.56,33.16,8.21,47.36.22-1.46-.02-2.84-.33-4.2-5.34-23.04-1.15-43.87,13.98-62.38,3.34-4.09,6.08-8.74,8.65-13.37,1.27-2.29,1.54-5.14,2.26-7.74ZM351,210.21c.59.1,1.17.19,1.76.29,1.93-7.68,4.37-15.26,5.7-23.04,3.31-19.43,14.84-32.24,31.79-40.83,5.7-2.89,11.75-5.09,18.03-7.78-15.18-.03-28.77,3.87-40.32,13.18-9.85,7.94-17.24,17.99-18.11,31-.6,8.99.7,18.12,1.16,27.18ZM171.76,239.79c-3.49-1.26-6.64-2.64-9.93-3.51-2.1-.55-4.7-1.08-6.57-.34-9.39,3.7-18.02,3.58-26.2-3.09-2.9-2.37-6.84-2.9-9.46.26-2.5,3.02-.82,6.27,1.53,8.95.65.75,1.4,1.42,2.14,2.08,12.32,10.95,35.97,8.83,48.49-4.35ZM231.4,366.93c.22-.42.44-.85.66-1.27-4.23-3.98-8.34-8.09-12.71-11.91-6.1-5.32-12.37-5.89-19.33-1.77-3.72,2.2-7.12,4.93-10.78,7.25-7.26,4.6-14.63,7.57-22.49-.18-1.2,7.34,4.73,9.36,8.89,13.76-4.68,1.24-8.55,2.27-12.42,3.3-.62.6-1.24,1.21-1.85,1.81,1.3.38,2.72.55,3.88,1.18,5.5,3.01,9.96,1.88,14.61-3.13,4.5-4.85,9.26-9.5,14.21-13.9,6.55-5.84,13.76-6.65,21.66-2.35,5.04,2.74,10.44,4.83,15.67,7.21ZM76.64,367.27c1.54,2.03,2.57,4.07,4.18,5.41,4.48,3.75,9.83,4.42,15.52,3.86,12.16-1.21,19.72-8.84,25.76-18.44.95-1.52,1.24-5.33.64-5.62-2.3-1.11-5.47-2.26-7.59-1.46-2.87,1.08-5.43,3.64-7.47,6.11-4.17,5.04-9.36,7.88-15.75,8.62-4.73.55-9.48.95-15.29,1.52ZM555.1,452.1c.6.02,1.2.03,1.8.05.47-2.59.91-5.18,1.41-7.75.93-4.71,1.22-9.7,3.04-14.06,2.01-4.83,1.6-8.7-.63-13.24-4.53-9.23-11.34-18.42-2.3-29.49-6.5-1.35-6.64,3.21-7.54,6.2-1.04,3.43-1.29,7.09-2.09,11.88-1.61-2.43-2.38-3.59-3.66-5.52-.49,2.01-1.26,3.33-.99,4.4,1.56,6.23,2.41,12.89,5.32,18.45,3.51,6.71,6.13,13.21,5.67,20.83-.17,2.74-.03,5.51-.03,8.26ZM146.05,509.17c.33-.15.67-.3,1-.46,2.81-8.41,5.55-16.85,8.47-25.22,1.37-3.92,3.41-7.63,4.59-11.6,2.76-9.27,2.72-18.58-.38-28.17-6.66,5.84-10.13,12.31-10.42,21.06-.38,11.12-2.21,22.18-3.21,33.29-.33,3.67-.05,7.4-.05,11.1ZM54.02,258.71c15.81-5.42,27.39-15.38,37.51-26.98-7.62-1.78-15.06-3.52-21.94-5.12-5.09,10.48-10.12,20.85-15.58,32.1ZM483.83,201.37c.17-.15.34-.31.51-.46-9.19-3.62-18.1-8.47-27.62-10.6-16.64-3.71-31.42,6.05-33.85,19.65,9.27-3.46,18.88-8.88,29.05-10.32,10.35-1.47,21.25.99,31.92,1.72ZM532.57,446.56c-.6.11-1.2.22-1.79.33-1.44,5.06-3.08,10.09-4.17,15.23-.24,1.13,1.26,2.85,2.3,3.97,1.51,1.63,3.64,2.74,4.95,4.48,1.7,2.27,2.85,4.95,4.24,7.45,1.25-2.59,1.5-4.87,1.84-7.15.58-4.01-.73-8.86,5.15-10.46.91-.25,1.54-2.47,1.84-3.88,1.84-8.62-1.54-11.96-13.01-18.21,2.5,6.58,5,13.16,7.49,19.74-.43.14-.86.27-1.29.41-2.51-3.97-5.03-7.94-7.54-11.91ZM614.4,364.69c-9.96.13-17.93-3.08-23.58-10.99-5.56-7.78-7.47-8.31-16.96-4.31.36,2.37,0,5.36,1.25,7.32,7.84,12.31,26.1,16.06,39.28,7.97ZM553.49,222.72c-12.45.7-22.01-3.73-30.52-10.95-5.55-4.71-7.73-4.68-12.66.65-.75.81-.95,3.16-.33,4.05,9.05,13.03,29.94,16.34,43.51,6.25ZM605.68,499.8c2.43,8.19,5.98,16.72,7.35,25.59,2.12,13.72-4.59,23.86-17.35,29.07-.85.35-1.65.85-2.67,1.38,4.85,2.98,8.34,2.89,13.15-.13,19.79-12.44,17.51-42.57-.48-55.91ZM86.67,565.98c-1.67-24.78,13.49-39.81,27.35-55.51-4.17,2.53-8.18,5.07-12,7.88-4.41,3.24-9.07,6.29-12.88,10.15-9.66,9.8-11.08,26.39-2.47,37.49ZM441.34,425.3c9.15-.39,16.75-3.74,21-12.44.74-1.51.01-3.74-.04-5.63-1.54.81-3.46,1.26-4.56,2.47-9.22,10.22-18.88,10.65-28.95,1.4-1.2-1.11-3.69-.81-5.59-1.16-.03,1.92-.8,4.26.02,5.68,3.93,6.81,10.43,9.35,18.11,9.68ZM163.46,548.2c.72.29,1.45.58,2.17.87,1.75-2.14,3.63-4.2,5.24-6.45,5.32-7.45,7.52-15.9,7.42-24.94-.02-1.63-1.08-3.24-1.66-4.87-1.68.88-4.26,1.34-4.88,2.7-3.48,7.65-6.86,15.39-9.43,23.36-.87,2.7.69,6.18,1.14,9.31ZM251.75,425.46c1.96-.43,5.78-.9,9.34-2.12,4.75-1.64,8.43-4.78,9.49-9.99.24-1.17-.33-3.2-1.19-3.71-.84-.5-2.64.24-3.82.83-.98.5-1.63,1.62-2.5,2.39-6.9,6.16-15.54,5.65-22.13-.84-1.26-1.24-3.96-1-5.99-1.45-.31,2.09-1.54,4.64-.76,6.18,3.16,6.29,9.05,8.34,17.56,8.71ZM398.94,513.56v21.12c9.49,1.96,18.53,3.83,27.57,5.7.32-.47.65-.94.97-1.41-9.28-8.26-18.56-16.53-28.54-25.41ZM151.68,525.66c4.72-10.47,9.47-20.3,13.57-30.39,2.34-5.76,2.95-11.96.55-19.3-10.77,15.79-16.12,31.63-14.12,49.7ZM252.46,390.93c-23.27-7.66-53.01,1.32-57.9,18.55,18.21-12.11,36.68-19.73,57.9-18.55ZM151.28,420.07c-5.96,5.68-10.76,11.09-13.22,18.5-2.8,8.4,4.89,13.51,5.36,20.92,6.22-4.63,11.29-14.75,10.56-20.28-2.68,2.36-5.48,4.83-9.34,8.22,0-2.89-.26-4.1.04-5.15,2.04-7.12,4.21-14.2,6.61-22.21ZM435.69,388.5c9.39,1.53,18.03,2.31,26.32,4.46,8.18,2.12,16.01,5.61,24.43,8.66-9.85-14.98-32.12-20.14-50.75-13.12ZM147.86,677.88c11.11-7.68,21.09-14.57,31.72-21.92-3.43-2.35-6.49-4.45-9.96-6.83-7.11,9.62-16.43,16.83-21.76,28.75ZM283.7,514.55c-9.93,6.83-16.62,15.76-23,25.03,6.19-1.51,12.03-3.33,17.73-5.49,1.26-.48,2.69-2.05,2.94-3.34.97-4.99,1.49-10.06,2.33-16.2ZM417.26,222.35c.26.35.51.71.77,1.06,8.19-4.23,16.27-8.7,24.61-12.63,8.73-4.12,18-4.03,27.52-2.26-3.67-2.28-7.37-4.12-11.28-4.79-18.14-3.12-29.3,9.06-41.62,18.62ZM90.97,314.12c5.13-5.59,10.3-3.81,15.5-1.7,2.46,1,4.86,2.38,7.42,2.88,4.5.88,9.1,1.21,13.66,1.77.14-.63.28-1.25.42-1.88-7.61-3.61-15.07-7.6-22.88-10.71-6.08-2.42-12.2,1.8-14.13,9.64ZM225.37,407.22c-6.4,1.73-8.14,4.95-5.34,10.5,2.84,5.62,12.91,10.29,18.35,9.12-4.12-6.21-8.43-12.71-13.01-19.62ZM427.18,425.92c-3.6-4.96-7.15-9.12-9.82-13.78-2.29-4.01-4.63-2.53-7.42-1.28-3.33,1.49-3.94,3.71-2.11,6.79,4.4,7.41,11.67,7.8,19.35,8.26ZM549.08,447.22c.73-.22,1.46-.43,2.19-.65-1.06-4.01-1.89-8.11-3.22-12.03-2.82-8.3-5.9-16.51-8.87-24.75-.35-.97-.71-1.94-1.06-2.91-2.6,15.32,3.76,27.96,10.96,40.34ZM348.22,587.06c-2.81-2.51-5.13-4.92-7.82-6.81-1.01-.7-3.21-.75-4.28-.11-3.64,2.17-7.01,4.78-10.47,7.21,6.03,5.79,13.92,5.85,22.58-.29ZM547.9,729.52c-5.14,18.63-12.62,34.91-35.19,37.23,19.01,3.21,38.07-17.1,35.19-37.23ZM620.22,355.55c-5.19-3.57-9.99-7.04-14.98-10.2-1.44-.91-3.44-.92-5.19-1.35.12,2.1-.49,4.65.49,6.23,3.64,5.89,11.98,7.99,19.68,5.32ZM655.15,373.79c-.19-1.91.4-4.85-.81-6.45-2.78-3.7-7.16-3.67-11.42-2.83-3.85.75-6.56,2.69-7.13,5.8,6.13,1.1,11.97,2.16,19.35,3.49ZM71.87,384.7c5.66,10.68,25.8,15.8,34.56,8.87-5.76-.32-12.17.26-18.05-1.25-5.91-1.52-11.28-5.11-16.51-7.62ZM533.81,474.84c-.73.09-1.46.19-2.19.28-.91,10.52,1.46,20.6,3.89,30.68.71-.09,1.43-.19,2.14-.28l-3.84-30.68ZM511.68,410.06c-6.71,2.6-12.64,4.9-18.58,7.2,2.8,1.39,5.38,1.69,7.89,2.27,6.87,1.57,9.54-.48,10.69-9.47ZM577.32,532.45c-6.04-8.54-12.1-17.13-18.1-25.61.59,10.74,10.28,24.28,18.1,25.61ZM360.01,39.89c.21.38.42.75.62,1.13,4.93-1.77,9.87-3.54,15.3-5.48-2.63-2.76-4.75-4.98-7.12-7.48-3.16,4.25-5.98,8.04-8.8,11.83ZM518,373.47c-5.88.79-11.38,1.52-16.81,2.25,6.69,4.85,13.04,4.23,16.81-2.25ZM366.39,834.89c5.32-2.84,7.2-6.07,6.09-10.49-2.03,3.49-4.09,7.04-6.09,10.49Z"/>
  <path class="cls-2" d="M486.03,306.54c-4.39-1.79-8.44-3.44-12.48-5.1-.25.37-.51.73-.76,1.1,19.13,8.67,23.03,27.78,30.63,44.48-4.42-4.37-8.98-8.61-13.22-13.15-9.99-10.71-22.13-11.46-34.95-7.22-5.95,1.97-11.57,5.12-17.04,8.27-11.4,6.57-23.14,11.28-36.62,11.93-6.29.31-11.87,3.93-13.7,11.24-2.47,9.85-7.77,17.98-15.98,24.1-7.76,5.79-13.59,3.6-15.39-5.99-1.53-8.12.22-15.85,5.3-22.19,4.75-5.93,10.49-11.08,15.86-16.51,1.02-1.03,2.33-1.78,3.51-2.66-.32-.49-.64-.99-.96-1.48-2.09.94-4.36,1.6-6.23,2.86-13.71,9.26-23.24,21.24-22.75,38.66.29,10.37-5.28,12.91-14.14,12.9-8.37-.01-14.11-5.89-14.25-14.18-.02-1.33.05-2.67.04-4-.04-6.09,1.06-12.26-3.12-17.78-5.93-7.84-17.55-17.46-25.78-20.1,1.57,2.16,2.42,3.66,3.57,4.85,3.01,3.12,6.05,6.21,9.25,9.12,9.12,8.25,11.9,18.56,10,30.37-.31,1.93-.75,4.26-2.02,5.5-1.5,1.47-3.91,2.32-6.04,2.67-.64.11-2.03-2.25-2.51-3.67-1.96-5.8-4.94-10.74-10.72-14.41,1.58,4.98,3.27,9.28,4.27,13.73,1.12,5.01-1.37,7.46-6.36,6.18-2.79-.72-5.71-2.18-7.82-4.12-10.27-9.42-20.32-19.1-30.39-28.74-1.64-1.57-3.02-3.41-4.07-6.23,1.65.28,3.28.69,4.94.82,5.76.48,11.55.68,17.28,1.35,2.69.31,5.41,1.16,7.88,2.28,3.08,1.39,5.91,3.31,9.96,5.64-4.14-7.81-13.6-11.94-20.63-11.32-4.67.41-9.8-.14-14.19-1.74-8.25-3.01-16.14-7.03-24.13-10.74-5.89-2.73-11.6-5.85-17.55-8.42-7.23-3.13-13.77-1.7-19.06,4.2-4.11,4.58-7.93,9.44-12,14.06-1.42,1.61-3.2,2.9-4.81,4.34-.45-.3-.9-.59-1.35-.89.35-1.68.54-3.41,1.08-5.02,1.92-5.68,3.67-11.44,6.03-16.94,5.36-12.5,6.32-25.3,1.82-38.02-4.82-13.66-1.09-24.75,8.22-34.81,6.56-7.09,12.91-14.38,19.65-21.29,7.7-7.89,16.77-11,27.75-7.17,6.3,2.2,12.71,2.24,18.99-.79,1.17-.56,3.35-.32,4.42.45,5.31,3.79,10.79,6.02,17.61,5.79,3.37-.12,6.73,2.76,10.26,3.53,4.45.98,9.07,1.2,13.61,1.72,1.13.13,2.5-.2,3.35.33,6.72,4.17,13.37,2.77,20.17.27,1.3-.48,3.64-.49,4.43.32,10.81,11.17,24.31,11.27,37.75,8.15,10.25-2.38,19.96-7.08,29.93-10.68,1.5-.54,3.23-1.2,4.7-.93,11.75,2.14,23.17.37,34.7-1.92,4.57-.91,9.88-1,14.22.45,13.19,4.41,23.52,13.25,31.31,24.54,6.36,9.22-.95,25.56-11.18,25.72,8.84,9.26,12.17,18.08,9.69,26.28ZM420.94,292.25c-9.86-.59-21.73-1.45-33.62-1.92-4.96-.19-9.98.16-14.91.8-18.86,2.46-37.7,3.54-56.76,2.05-18.21-1.42-36.52-1.59-54.78-2.32,2.4,1.72,4.92,2.48,7.5,2.91,7.55,1.25,15.18,2.09,22.68,3.57,22.66,4.47,45.3,7.14,68.42,3.37,15.75-2.57,31.66-4.14,47.48-6.24,5.41-.72,10.79-1.71,13.99-2.22ZM291.46,315.08c12.95,4.76,25.8,9.17,39.88,9.8,20.97.94,40.47-5.45,60.33-10.34,1.13-.28,2.26-.57,3.37-.95,1.03-.35,2.03-.82,3.04-1.24-35.5,5.23-70.91,8.13-106.61,2.72ZM216.33,278.58c-11.63-2.93-20.89,8.58-23.26,19.36,3.77-3.62,6.86-7.96,10.79-11.31,3.9-3.32,8.66-5.65,12.47-8.05ZM197.23,310.24c5.82-5.65,9.18-13.47,19.1-15.04-10.1.16-16.03,5.04-19.1,15.04ZM345.94,344.56c-5.84-.27-10.89-.5-16.92-.78,5.98,3.77,11.06,2.58,16.92.78Z"/>
  <path class="cls-2" d="M232.79,496.93c-.48.03-1.01-.07-1.42.1-17.4,7.39-31.08.07-41.59-12.69-14.75-17.91-21.69-38.77-17.09-62.39.85-4.37,1.56-8.77,2.42-13.66,5.45,2.75,10.37,5.23,16.06,8.11-3.59.98-6.75,1.85-9.91,2.72,0,.25,0,.5.01.76,1.86.23,3.76.81,5.58.64,7.8-.73,12.7,3.09,16.5,9.47,6.61,11.1,16.26,18.24,28.87,21.47,4.31,1.1,4.25,1.48,1.97,4.41,11.76,3.43,29.86-2.12,55.85-16.25-2.8,4.17-5.38,8.53-8.47,12.47-3.07,3.91-6.66,7.4-10.72,11.83,4.17-2.81,7.89-4.9,11.13-7.59,6.54-5.42,12.67-11.32,19.23-16.71,5.67-4.65,6.48-3.89,8.6,3.1,5.13,16.84,6.35,33.97,5.03,51.4-.22,2.96-.03,5.96-.03,8.93.43.07.87.14,1.3.22.39-1.92,1.09-3.84,1.11-5.77.11-14.47.43-28.96,0-43.42-.3-10.01-1.28-19.92,2.12-29.68.68-1.95.2-4.65-.59-6.68-1.16-2.98-.43-4.75,1.69-7,4.89-5.16,10.72-6.96,17.55-8.89,9.22-2.61,13.44,2.63,18.9,6.95.93.74,1.84,3.22,1.46,3.59-1.13,1.12-2.84,2-4.43,2.21-1.52.21-3.16-.53-5.27-.46,9.28,3.25,8.42,11.5,8.98,18.33.89,10.91.19,21.94.77,32.89.75,13.93,2.01,27.83,3.24,41.73.61,6.88,1.65,13.71,2.5,20.57.48.03.97.06,1.45.1.34-3.98,1.04-7.97.93-11.93-.17-5.7,2.73-8.47,7.78-9.94,5.7-1.67,10.28-.74,13.4,3.71,2.07,2.95,3.83,6.3,4.92,9.73,2.85,8.88-.66,13.83-9.91,14.18-8.36.32-14.68,3.24-18.14,11.47-7.31,17.39-40.21,20.23-49.21,2.35-.45-.89-1.22-1.61-1.62-2.51-3.13-7.03-8.1-10.38-16.13-9.34-4.52.58-8.72-1.2-10.58-5.88-2.43-6.13-1.68-12.17,1.87-17.66,1.22-1.88,3.13-3.51,5.07-4.68,6.6-3.98,12.44-1.48,15.39,6.01,0-1.85.39-3.79-.06-5.52-2.52-9.6-15.49-13.7-22.98-6.78-9.04,8.34-17.79,17.08-25.84,26.37-8.11,9.36-16.93,17.34-28.45,22.2-10.99,4.63-19.52,12.34-27.24,21.59,2.57-5.31,4.63-10.95,7.84-15.84,4.53-6.9,7.39-14.24,7.87-22.35.76-13.08.52-26.38,13.73-35.03-.47-.3-.95-.61-1.42-.91Z"/>
  <path class="cls-2" d="M315.23,633.51c-6.05,9.3-11.11,17.43-16.53,25.33-7.87,11.47-15.07,23.23-17.83,37.12-4.69,23.6,1.96,44.3,17.1,62.32,6.39,7.61,14.08,14.15,21.22,21.13,9.67,9.45,17.91,19.8,20.86,33.41,3.39,15.64-5.57,28.43-21.48,29.48-6.27.41-12.82-1.17-19.02-2.72-3.04-.76-5.58-3.54-7.78-6.12,5.14,1.6,10.21,3.57,15.45,4.7,7.8,1.68,14.58-.64,19.59-7,4.83-6.14,4.16-13,.93-19.35-2.69-5.28-5.92-10.59-10.04-14.77-11.52-11.67-23.62-22.77-36.35-33.55,7.16,9.79,14.32,19.58,21.3,29.11-4.74.39-18.57-10.43-26.58-21.38-7.17-9.8-12.6-20.59-15.12-32.4-2.48-11.62-3.59-23.53-5.32-35.43-.58,4.44-1.13,9.1-1.83,13.73-.54,3.6-1,7.24-1.99,10.73-3.38,11.99-5.96,23.97-1.9,36.34.19.58.02,1.27.02,2.82-12.15-12.06-14.47-27.03-16.29-42.22-2.93,16.75,1.31,31.9,9.71,46.18,8.42,14.32,21.19,24.04,35.57,32.97-34.53-.87-77.87-49.22-57.81-108.94-11.72,13.54-18.04,29.46-20.01,47.15-2.06,18.44,4.62,33.93,16.56,48.31-2.38-.99-4.99-1.64-7.12-3.03-17.81-11.67-25.39-29.03-26.52-49.53-.85-15.61,2.29-30.49,10.07-44.26-18.31,15.57-26.26,35.53-24.69,60.52-1.37-1.93-2.15-3.04-2.93-4.15-6.53,1.76,11.4,27.65,24.55,35.38,2.71,1.59,5.56,2.92,8.64,4.53-12.97-.33-30.19-11.13-38.84-24.39-11.21-17.19-14.02-35.86-8.52-55.52,5.52-19.73,16.51-36.27,31.42-50.21,1.27-1.19,3.7-2.45,5.08-2.03,13.58,4.14,25.56-1.04,37.63-5.97,1.3-.53,2.64-.98,3.95-1.47l.69,1.25c-3.7,2.26-7.41,4.52-11.11,6.78.21.42.41.84.62,1.25,8.45.37,14.41-5.34,21.95-9.15-.92,2.06-1.74,4.18-2.79,6.17-4.88,9.25-9.83,18.46-14.74,27.69-.29.55-.41,1.18.17,2.3,1.59-2.37,3.23-4.71,4.77-7.11,4.6-7.14,9.08-14.35,13.76-21.44,4.89-7.41,12.36-11.17,21.79-14.9-8.76,13.8-16.33,26.6-15.14,42.04.68.25,1.36.5,2.05.75,1.02-2.32,2.2-4.59,3.05-6.98,5.3-14.81,13.86-27.3,26.45-36.8,9.33-7.04,20.16-8.94,33.33-8.66Z"/>
  <path class="cls-2" d="M628.71,303.62c2.64,17.06,10.26,30.66,26.35,38.32-6.98,6.2-11.07,6.58-18.2,3.21-1.67-.79-4.71.02-6.54,1.09-7.13,4.2-11.09,4.46-16.67.11,1.1-1.02,2.09-2.08,3.22-2.95,7.89-6.08,10.77-14.42,9.66-23.89-1.54-13.1-7.71-23.62-19.4-30.41-7.47-4.34-15.35-5.01-23.63-2.68-8.81,2.48-17.62,5.51-26.96,3.24-3.02-.73-6.65-1.39-8.65-3.41-6.71-6.82-12.82-14.24-19.15-21.43.39-.5.77-1.01,1.16-1.51,1.62.72,3.36,1.27,4.86,2.2,6.78,4.22,13.18,9.17,20.31,12.63,5.97,2.9,12.76,4.11,19.58,5.11-13.43-3.83-24-12.09-34.42-20.97,9.79-.6,19.46-3.73,28.75,2.46,9,6,18.36,11.56,29.35,13.31,1.79.28,3.61.37,5.51.27-11.22-3.34-21.39-8.44-30.51-16.52,10.22-7.41,12.09-18.45,14.09-29.2,1.85-9.98-7.53-19.74-17.63-18.61-5.44.61-10.77,2.15-16.15,3.22-11.03,2.18-22.55-2.88-28.53-12.28-1.83-2.88-1.7-4.4,1.7-6.07,19.86-9.71,39.86-6.86,55.76,8.52,5.12,4.96,9.75,10.43,14.87,15.43-6.51-9.48-13.33-18.6-23.2-25.14-10.05-6.65-21.01-9.57-34.16-8.77,9-10.4,14.38-21.25,16.09-34.81,3.55,1.12,6.75,1.76,9.6,3.11,10.25,4.84,17.68,13.03,24.12,21.99,7.58,10.54,14.51,21.55,21.81,32.29,7.57,11.14,17.53,18.59,31.4,19.81,14.99,1.32,27.22-4.28,36.4-15.79,2.54-3.18,2.86-8.22,3.86-12.49.39-1.66-.16-3.53-.33-5.88,5.91,1.15,7.59,5.24,8.34,9.71,1.4,8.25-.91,15.92-4.82,23.05-1.9,3.47-4.16,7.05-7.11,9.58-19.64,16.89-42.03,24.28-67.56,16.86-6.79-1.97-12.73-6.88-18.84-10.31,2.2,2.31,4.57,5.23,7.37,7.66,13.33,11.59,29.16,17.86,46.34,20.85,8.13,1.42,15.86-.98,23.41-3.79,1.5-.56,2.99-1.16,4.66-1.33-5.6,8.81-14.12,11.6-24,11.9-9.96.3-18.05-4.72-26.68-9.81,6.23,19.77,25.32,31.41,44.34,19.52,2.4-1.5,4.7-3.16,7.09-4.67,2.47-1.57,4.83-3.76,7.71-.35,2.88,3.41,7.29,6.58,3.83,11.52-2.07,2.96-5.34,5.58-8.65,7.08-8.41,3.8-16.93,2.45-25.19-1.12-1.03-.44-2.03-.94-3.18-1.06,6.95,7.09,15.24,10.86,25.26,8.61,11.57-2.6,19.64-9.39,23.05-21.44,3.85,2.04,4.18,5.63,3.9,9.22-.75,9.74-6.55,16.5-14.51,20.89-20.38,11.24-39.11,8.27-55.41-11.45-1.25-1.52-2.46-3.07-3.69-4.61ZM683.12,215.62c-8.35,15.71-21.71,24.02-38.59,28.67,17.22-.49,37.91-12.07,38.59-28.67Z"/>
  <path class="cls-2" d="M461.99,495.19c7.24,7.95,7.24,16.51,6.26,25.89-.78,7.45.74,15.18,1.53,22.76.7,6.67,1.81,13.31,2.9,21.1-2.09-1.81-3.24-2.94-4.53-3.9-6.77-5.09-13.68-9.99-20.32-15.23-5.06-3.99-9.97-8.23-14.67-12.64-10.31-9.68-20.21-19.81-30.76-29.2-3.85-3.43-8.85-5.98-13.76-7.68-5.12-1.77-10.53-1.05-15.07,2.77-1.34,1.13-3.06,1.8-5.81,3.37.69-2.74,1.45-4.26,1.36-5.73-.19-3.16.08-6.82-1.41-9.36-5.93-10.13-5.13-24.19,1.85-33.41,3.51-4.63,5.95-10.07,9.23-15.77,7.78,4.38,16.56,9.32,25.34,14.26.23-.2.46-.41.69-.61-1.77-2.16-3.53-4.34-5.32-6.48-3.84-4.59-8.08-8.89-11.45-13.79-5.55-8.05-3.76-12.42,6.73-16.22-2.17,3.71-3.96,6.78-6.43,11.01,3.49-.31,5.56-.66,7.63-.64,6.23.06,12.51-.16,18.69.49,15.72,1.64,31.49,4.26,46.71-2.29,5.27-2.27,10.14-5.46,15.52-8.42-2.94,10.49-13.14,13.05-20.87,18.74,4.57.91,8.79,1.75,14.59,2.9-3.71,2.83-6.11,5.51-9.1,6.79-12.44,5.31-24.69,4.66-36.31-2.53-1.37-.85-2.15-2.64-3.21-4,1.58-.49,3.12-1.19,4.74-1.42,1.63-.22,3.32.05,4.98.06.82,0,1.63-.11,2.48-.54-10.89-1.16-21.29-6.34-33.69-4.01,6.45,9.27,12.51,17.17,23.12,20.44,25.91,7.96,46.1.4,60.18-22.85,4.98-8.22,8.4-9.64,17.84-7.4,1.29.31,2.64.93,3.89.77,4.92-.64,6.13,2.6,6.47,6.27,2.76,29.96-17.83,58.46-47.03,65.31-.77.18-1.48.6-2.99,1.23Z"/>
  <path class="cls-2" d="M314.85,226.35c-3.97-3.79-7.94-7.57-11.9-11.36l-.69.55c.56,1.82,1.13,3.64,1.69,5.47-.33.33-.67.67-1,1-3.28-2.96-6.77-5.73-9.79-8.94-3.05-3.24-5.64-6.92-9.12-10.08,2.07,6.3,4.14,12.59,6.21,18.89-.15.24-.29.48-.44.71-2.74-2.78-5.47-5.55-8.17-8.29v3.41c-2.67-1.47-4.9-2.37-6.74-3.77-18.91-14.46-24.01-33.78-18.62-56.11,10.99-45.49,56.9-78.63,103.39-75.05,2.23.17,4.42.79,6.79,1.93-17.32,5.84-34.91,10.74-48.78,23.41,17-8.64,34.67-15.27,53.83-16.45,18.75-1.15,37.52-1.45,54.61,8,.01.53.02,1.06.03,1.58-1.65.36-3.33.62-4.95,1.09-14.54,4.16-29.55,7.18-43.49,12.83-17.33,7.03-31.12,19.14-39.91,36.17-5.77,11.18-6.78,22.81-3.55,34.94,1.33,5.01,2.15,10.16,2.63,15.35-11.32-20.16-20.66-39.48,8.16-72.35-22.17,16.19-28.29,37.81-20.58,57.64,1.45,3.72,3.1,7.38,4.39,11.16,1.78,5.21,1.3,8.64-1.39,13.2-.96-3.84-1.92-7.73-2.89-11.61-.36.1-.72.2-1.08.3v15.29c-.31-.02-.62-.03-.94-.05-5.29-11.19-10.58-22.37-15.88-33.56l-1.28.47c2.12,5.85,4.24,11.71,6.82,18.84-7.88-6.6-13.37-12.94-14.53-22.39-1.9-15.37,3.85-28.42,11.72-40.91,1.85-2.94,3.97-5.7,5.5-9.09-.95.72-2.01,1.33-2.83,2.17-8.92,9.16-15.17,19.83-17.68,32.45-1.6,8.03-1.25,16.05,2.38,23.48,4.17,8.51,8.93,16.72,13.3,25.13,2.3,4.42,4.3,9,6.43,13.51-.56.35-1.11.69-1.67,1.04ZM277.29,188.89c-4.72-22.49.31-42.89,13.28-61.58-19.56,19.64-21.96,49.34-13.28,61.58Z"/>
  <path class="cls-2" d="M165.05,139.58c-5.14,4.95-8.81,9.7-13.55,12.82-14.86,9.78-29.75,19.65-45.34,28.16-15.38,8.39-31.55,6.55-47.28-.3-.86-.37-1.72-.75-2.67-.85,11.91,8.34,25.12,10.35,39.21,7.76,17.1-3.14,31.93-11.43,46.03-21,11.14-7.56,21.48-16.28,32.53-23.99,16.1-11.23,33.77-13.9,52.28-7.14,14.64,5.35,21.17,15.62,21.29,30.4-7.06-3.13-14.24-7.47-22.03-9.46-8.09-2.06-16.44-.1-24.91,4.18,25.02-4.3,42.87,5.08,45.26,23.58-17.16-12.39-32.45-6.05-47.32,4.41,11.17-3.68,22.34-8.81,34.25-3.83,11.78,4.93,18,14.61,21.12,26.49-.55.54-1.1,1.08-1.64,1.62-1.28-1.81-2.35-3.83-3.87-5.39-15.97-16.37-27.58-18.45-48.56-9.54-6.69,2.84-13.75,5.02-20.83,6.68-5.1,1.2-10.41.35-14.54-3.48-5.59-5.19-5.54-13.48-.09-19.79,5.58-6.46,5.68-7.64,1.05-13.32-4.05-4.97-10.12-6.21-15.67-2.94-5.66,3.33-9.48,8.29-11.89,14.36-.37.93-.86,1.85-1.01,2.82-2.12,13.57-12.27,18.46-23.76,19.62-24.98,2.52-46.83-4.38-62.97-24.9-3.57-4.54-6.98-9.2-10.38-13.7.42,12.56,18.51,33.15,36.58,40.83,18.53,7.87,36.94,6.66,55-2.59.33.5.67,1,1,1.5-2.1,2.76-3.78,6.05-6.38,8.21-13.36,11.05-28.2,13.1-43.84,5.51-17.25-8.37-31.76-20.18-42.09-36.55-6.49-10.29-9-21.42-5.7-33.46,1.65-6.02,4.59-8.48,10.66-8.31,0,1.72.02,3.47,0,5.21-.24,15.43,10.89,30.21,26.38,35.04,14.74,4.59,30.78-.92,39.49-14.08,5.6-8.46,12.18-15.89,20.59-21.48,10.06-6.69,21.02-5.68,33.61-3.1Z"/>
  <path class="cls-2" d="M357.43,798.65c-2.48-3.55-5.48-6.84-7.35-10.69-8.03-16.45-7.36-32.96,1.3-48.9,3.4-6.25,7.89-11.94,12.15-17.69,14.7-19.84,15.05-40.01,1.35-60.66-4.29-6.47-7.95-13.41-11.3-20.42-1.06-2.21-.16-5.35-.16-8.66,8.3,9.27,15.76,17.59,24.06,26.86-2.78-10.6-14.51-15.04-14.01-26.82,28.96,7.29,47.23,23.96,52.79,53.45,2.41-18.05-5.6-31.83-16.86-44.69,16.25,3.93,27.56,14.39,36.03,28.17,12.48,20.31,12.77,56.38.67,71.28,3.75-17.06,4.43-33.54-2.81-49.54,1.81,9.99,1.22,19.82-1.07,29.7-2.45,10.56-6.81,20.1-13.02,28.96-4.01,5.72-7.55,11.78-11.03,17.84-4.32,7.52-6.17,15.73-6.13,24.54-3.61-4.8-4.49-10.45-4.19-16.09.3-5.71,1.6-11.38,2.59-17.88-7.9,6.42-10.99,15.5-16.42,23.08,1.6-4.26,3.2-8.52,4.74-12.62-14.53,12.43-14.75,31.34-.38,53.57-4.62.68-7.68-1.91-10.38-4.84-9.55-10.33-12.28-22.54-9.75-36.18,2.23-12.08,7.56-22.64,15.16-32.21,7.76-9.77,13.76-20.46,15.82-32.99.28-1.72.39-3.48-.26-5.49-2.61,4.46-5.23,8.93-7.84,13.39,7.07-17.55,3.63-34.29-3.26-50.83.48,2.84.94,5.69,1.46,8.53,2.68,14.84-.22,28.61-8.67,40.97-5.35,7.83-11.62,15.01-17.26,22.65-12.05,16.33-14.03,33.75-5.19,52.2.19.4.16.9.24,1.35-.34.22-.67.44-1.01.66Z"/>
  <path class="cls-2" d="M135.69,722.48c-14.98-13.81-15.87-31.58-15.45-49.88-5.56,17.28-4.94,33.91,4.61,50.34-1.89-1.4-3.96-2.61-5.63-4.23-18.6-18.07-19.95-50.53-2.92-70.17,8.68-10,17.44-19.93,26.43-30.18-12.03,3.71-17.33,14.89-25.98,22.55-2.75-30.17,7.33-55.43,29.42-76.44-16.65,2.42-38.04,30.18-42.13,55.35-3.65-9.31-4.21-17.56-2.47-25.92,3.12-15,12.03-26.58,22.85-36.78,8.36-7.88,17.23-15.22,25.66-23.03,1.8-1.67,2.78-4.29,3.93-6.58,3.73-7.42,7.22-14.98,11.15-22.29,1.06-1.98,3.37-3.29,5.1-4.91.64.27,1.27.54,1.91.81-.55,3.03-.58,6.28-1.76,9.03-2.81,6.58-6.1,12.96-9.32,19.36-2.77,5.49-4.04,11.15-3.57,17.36.3,3.9-.41,7.89.17,12.76,5.01-5.48,10.29-10.74,14.95-16.51,4.62-5.73,8.62-11.96,13.53-17.69,3.67,8.8,1.25,17-1.24,25.2.39.16.79.32,1.18.48,1.86-3.01,3.72-6.02,5.45-8.82,1.82,3.57.31,7.66-4.44,11.52-4.91,3.98-9.82,7.97-14.56,12.15-17.26,15.19-26.25,50.44-9.47,73.63,4.91,6.78,4.28,6.88-1.5,12.91-6.2,6.47-12.64,12.89-17.72,20.2-9.94,14.33-12.09,30.38-7.87,47.29.12.48.23.96.29,1.45.02.13-.16.28-.59,1.02Z"/>
  <path class="cls-2" d="M232.52,635.06c2.44-2.2,4.9-4.36,7.3-6.6,6.41-5.98,10.34-13.22,12.16-21.88,2.11-9.99,4.86-19.84,7.4-30.01-2.25,2.45-5,4.83-6.97,7.72-5.35,7.84-10.42,15.87-15.53,23.87-7.83,12.27-18.6,20.84-32.4,25.35-15.88,5.19-31.66-1.74-37.69-16.97,23.99,13.48,41.99,6.41,56.13-14.12-.21-.46-.42-.92-.64-1.38-.95.85-1.92,1.69-2.86,2.56-.98.91-1.89,1.89-2.88,2.77-10.44,9.28-22.44,12.18-35.77,7.98-15.89-5.01-22.58-24.61-12.44-37.83,4.77-6.22,10.81-12.01,17.43-16.13,11.66-7.25,15.34-15.66,8.56-32.72-1.75-4.39-2.82-9.14-3.52-13.82-.3-1.95,1.16-4.17,1.85-6.33,10.09,4.26,22.42,18.86,19.51,33.68-2.29,11.67-6.11,23.03-9.96,34.4-6.32-6.32.99-13.79-3.01-20.71-2.25,8.62-4.93,16.56-6.18,24.72-.62,4.07,1.39,8.55,2.27,13.14-1.72-.83-3.71-1.78-6.42-3.09-.45,3.06-.87,5.85-1.56,10.5-2.22-2.72-4.25-4.29-5.02-6.34-2.18-5.77-.1-10.64,3.9-15.07,1.23-1.36,1.5-3.58,2.21-5.41-2.42-.56-5.04-2.02-7.22-1.53-6.32,1.42-11.3,9.05-11.52,16.5-.2,6.7,4.14,13.05,10.58,15.45,12.63,4.71,25.64-1.91,28.63-14.97,3.29-14.4,9.64-26.69,22.81-34.27,4.74-2.73,10.15-4.3,15.59-5.41-6.86,7.9-13.72,15.79-20.58,23.69.43.4.87.8,1.3,1.2,7.25-6.78,14.73-13.32,21.69-20.39,8.99-9.12,20.25-13.18,32.36-15.38,5.04-.91,7.02,2.75,8,7.53h11.62c.14.5.28,1,.42,1.5-1.64,1.43-3.29,2.85-5.57,4.83,2.94-.61,5.12-1.06,8.05-1.66-2.82,3.31-5.16,6.06-8.35,9.81,6.91-1.05,12.49-1.9,18.07-2.75.24.69.47,1.38.71,2.08-2.64,2.13-5.09,4.56-7.95,6.33-7.37,4.55-14.9,8.84-22.41,13.16-8.3,4.77-15.45,10.49-17.95,20.38-.35,1.4-1.3,2.66-1.97,3.98-.41-.17-.81-.34-1.22-.51,4.76-11.41,9.51-22.83,14.79-35.49-8.37,6.2-11.81,13.98-14.52,22.21-2.28,6.95-4.12,14.06-6.76,20.88-3.79,9.82-11.06,16.91-19.57,22.79-1.42.98-3.11,1.56-4.67,2.32-.09-.19-.17-.38-.26-.57Z"/>
  <path class="cls-2" d="M544.52,609.16c7.1,17.06,12.39,34.43,12.88,53.06-3.5-12.9-6.48-26-16.02-36.37,5.59,27.27,6.11,53.77-10.69,79.11-.14-2.12-.33-3.18-.27-4.23.95-17.96-1.3-35.29-10.28-51.23-1.82-3.24-1.41-6.02-.17-9.42,1.81-4.93,2.62-10.22,3.89-15.35.31-1.24.38-2.77,1.16-3.63,6.42-7.11,7.07-15.46,5.53-24.33-.82-4.75-1.87-9.47-2.54-14.24-1.67-11.89-7.78-20.51-18.11-26.66-3.19-1.9-6.36-5.23-7.65-8.62-3.57-9.4-5.69-19.13-.74-28.99.89-1.78.56-4.26.52-6.41-.08-3.97-.36-7.93-.59-12.61,2.46.26,4.48.48,7.11.76.78-2.71,1.63-5.66,2.47-8.61.41-.11.82-.22,1.22-.33.71,3.3,1.94,6.59,2.03,9.91.18,6.65-.61,13.34-.32,19.98.21,4.82,1.49,9.59,2.3,14.39.79-.07,1.57-.14,2.36-.22v-60.12c1.78,2.22,3.49,3.49,3.99,5.13,1.64,5.41,3.06,10.9,4.18,16.44,4.1,20.42,13.07,37.9,29.43,51.37,14.41,11.86,23.11,26.94,24.07,45.94.11,2.26-.17,4.53-.69,6.85-4.04-15.78-9.2-30.75-23.53-41.72,2.35,8.8,4.43,16.57,6.51,24.34-.45.26-.9.53-1.35.79-7.96-6.93-15.93-13.86-23.89-20.79-.38.36-.75.73-1.13,1.09,5.99,8.13,11.88,16.33,17.99,24.37,10.5,13.8,19.17,28.4,22.25,45.83,2.66,15.03,1.14,29.54-4.61,43.62-.65,1.6-1.64,3.06-3.07,4.56,6.04-29.41-3.57-53.42-24.25-73.67ZM509.9,522.91c-5.88,7.5-.84,23.93,7.44,27.37-2.57-9.44-5-18.41-7.44-27.37Z"/>
  <path class="cls-2" d="M415.86,581.47c1.39,7.67,2.79,15.35,4.18,23.02,1.81,9.93,5.87,18.69,13.21,25.8,1.78,1.72,3.34,3.66,4.54,6.31-1.16-.59-2.38-1.09-3.48-1.79-14.67-9.32-23.73-22.57-27.55-39.47-2.68-11.88-5.47-17.04-12.84-23.22,2.57,6.47,4.9,12.34,7.45,18.73-13.71-2.61-32.12-20.86-32.62-32.04,3.04.36,6.02.71,9.79,1.16-1.48-3.21-2.6-5.65-4.5-9.78,6.1.7,10.85,1.25,16.05,1.85v-5.86c7.99-1.53,12.01,4.36,16.82,8.63.34-.29.67-.59,1.01-.88-3.53-4.46-7.07-8.92-11.23-14.17,8.92-.41,16.62.71,24.1,3.62,2.61,1.02,5.26,2,7.98,2.66,12.62,3.06,23.87,8.33,31.86,19.08.79,1.06,1.48,2.21,2.16,3.35.3.52.45,1.13.33,2.06-10.11-8.07-20.02-16.3-32.85-20.64,12.66,11.53,24.53,23.34,37.48,33.81,10.91,8.81,24.16,10.55,37.99,7.38-4.69,12.81-26.43,12.51-45.11-.35,6.96,11.07,23.42,16.23,36.39,11.43,7.68-2.84,13.42-7.62,16.89-15.29,3.53-7.82,1.66-15.22-1.25-22.73.35-.22.69-.44,1.04-.66,1.24.84,2.64,1.51,3.69,2.54,6.33,6.18,8.51,20.66,3.41,27.88-3.18,4.5-7.32,8.86-12,11.67-15.74,9.45-41.84,10.93-58.89-8.43-4.37-4.96-8.22-10.36-12.48-15.44,6.43,13.28,13.55,26.07,25.42,36.19-1.76-.33-3.57-.53-5.28-1.03-1.71-.49-3.32-1.29-5.11-1.55,12.67,15.14,29.52,15.44,47.52,13.62-1.54,1.1-3,2.32-4.63,3.27-19.02,11.05-44.37,6.72-58.67-9.98-6.38-7.45-10.75-15.95-13.81-25.25-1.8-5.48-4.33-10.72-6.54-16.06-.15.18-.31.36-.46.54Z"/>
  <path class="cls-2" d="M479.11,123.65c11.16,1.84,22.31,3.68,31.95,5.27-5.04-3.3-12.35-5.16-19.96-6.05-4.13-.48-8.35-.44-12.43-1.16-2.7-.48-5.24-1.89-7.72-3.75,10.71-6.77,22.23-8.45,34.23-8.25-10.24-3.36-20.37-2.54-30.11,1.26-5.46,2.13-9.27,1.6-13.21-2.88-2.89-3.29-6.8-5.69-11.47-9.46,10.25-3.82,19.77-7.38,28.59-10.67-8.5,1.26-17.43,3.82-25.73,8.4-6.9,3.81-9.77,3.15-16.15-1.05-4.78-3.15-10.44-4.99-15.75-7.31-1.48-.65-3.13-.92-4.71-1.36-.05-.43-.1-.87-.15-1.3,6.04-1.36,12.04-3.01,18.14-4.01,13.95-2.29,27.93-5.07,42.17-2.93,7.75,1.16,15.27,3.05,21.43,8.61,1.72,1.55,4.58,1.85,6.93,2.66,30.49,10.51,57.58,26.79,81.08,48.79,11.68,10.93,19.53,24.8,26.76,38.94,5.92,11.57,13.24,22.12,24.23,29.33,7.02,4.61,14.74,8.15,22.77,12.52-1.78.73-3.92,2.42-5.93,2.29-6.05-.4-12.38-.57-18-2.54-10.96-3.83-19.34-11.61-26.36-20.72-5.18-6.72-9.97-13.75-15.12-20.5-9.14-11.96-20.33-21.54-33.94-28.09-2.49-1.2-3.11-2.61-3.31-5.27-.42-5.58-.62-11.47-2.56-16.6-4.36-11.49-15.5-15.66-26.62-10.9-5.62,2.41-7.49,5.72-6.71,11.84,1.35,10.47-2.43,16.17-12.74,18.79-1.35.34-3.37-.03-4.46-.87-8.02-6.2-15.89-12.59-23.8-18.94-.73-.58-1.36-1.28-2.04-1.92.23-.71.46-1.43.69-2.14Z"/>
  <path class="cls-2" d="M449.02,164.21c-1.35-.8-2.61-1.94-4.08-2.34-19.82-5.37-40.57,4.26-50.14,22.54-6.09,11.63-12.55,23.12-19.69,34.12-5.19,7.99-13.12,13.19-22.46,15.73-6.24,1.7-10.49.99-15.88-2.6,2.49-.61,4.43-1.21,6.42-1.54,18.21-3.06,29.24-14.03,33.15-31.64,2.53-11.41,6.37-21.88,14.07-30.8-8.65,7.32-13.31,17.27-18.23,27.04-1.87,3.72-3.16,7.79-5.45,11.21-2.4,3.59-5.68,6.59-8.58,9.85-.53-.37-1.06-.74-1.59-1.11.97-1.93,2.23-3.77,2.84-5.81,2.02-6.68,4.35-13.34,5.59-20.18,4.44-24.49,20.52-37.24,43.21-43.04,15.92-4.06,31.42-1.36,46.38,4.97,10.33,4.37,20.82,8.07,32.22,8.29,9.97.2,19.56-1.37,28.58-5.88,7.55-3.78,12.54-9.71,15.25-17.66.86-2.52,1.84-4.99,2.74-7.5,1.46-4.08,4.55-4.17,6.77-1.57,2.35,2.75,4.53,6.41,4.97,9.9,1.86,14.81-4.13,27.2-14.13,37.47-12.35,12.69-27.57,17.08-44.85,12.46-7.22-1.93-14.12-5.05-21.33-7.06-6.71-1.87-13.57-3.44-20.46-4.35-12.81-1.69-22.3,3.84-28.77,14.77-2.03,3.43-3.85,7.01-5.56,10.62-6.19,13.06-16.31,22.11-28.93,28.66-.59.3-1.21.56-1.84.74-.26.07-.6-.13-1.28-.3,1.93-1.8,3.72-3.43,5.46-5.11,6.26-6.07,10.58-13.23,12.22-21.89.34-1.8.72-3.59,1.09-5.39,5.2-25.26,26.96-38.82,52.34-32.62,3.35.92,6.74,1.72,10.04,2.78,10.42,3.35,20.58,8.02,31.24,9.95,24.29,4.41,46.89-12.27,51.02-36.62.51-3,.23-6.36-.63-9.27-.52-1.76-2.86-2.99-4.38-4.46,3.82,11.81.7,21.28-6.53,29.52-12.67,14.44-29.29,18.37-47.55,15.91-7.5-1.01-14.71-3.99-22.12-5.85-3.65-.92-7.42-1.33-11.13-1.97Z"/>
  <path class="cls-2" d="M335.86,743.28c-9.63-8.06-9.02-25.39,2.41-46.76-6.99,4.94-13.01,19.3-11.02,32.64,1.74,11.63,6.3,22.84,9.54,33.99.03.01-1.26-.18-2.12-.9-9.37-7.92-19.36-15.26-27.83-24.05-13.44-13.94-16.62-45.28-.6-62.69,7.82-8.5,13.52-17.96,16.84-29.09,1.39-4.64,4.51-8.77,6.84-13.13.67.27,1.35.55,2.02.82-.76,4.41-1.97,8.81-2.14,13.25-.17,4.43.71,8.9,2.12,13.4.68-10.34-2.5-21.84,11.44-28.12.92,11.34,8.39,17.38,15.01,24.18,15.6,16.02,16.63,39.29,2.72,56.83-2.79,3.51-6.08,6.62-8.98,10.05-5.4,6.38-10.68,12.85-16.26,19.58Z"/>
  <path class="cls-2" d="M257.7,129.46c-.83-.51-1.66-1.02-2.45-1.5.18,3.07.35,5.88.51,8.69-.43.1-.86.2-1.3.3-3.81-5.83-7.62-11.66-11.44-17.48-.32.18-.63.36-.95.54,3.07,7.6,6.14,15.2,9.2,22.8-.62.5-1.24,1-1.86,1.5-1.87-2.36-3.5-4.98-5.66-7.03-2.89-2.73-6.13-5.13-9.35-7.49-17.25-12.64-20.44-32.81-8-50.4,9.07-12.82,22.33-19.19,36.71-23.53,14.66-4.41,29.57-7.98,44.24-12.33,9.71-2.88,18.28-7.61,24.37-16.37,4.68-6.74,20.27-10.18,27.65-6.91,3.79,1.68,4.95,5.98,1.72,8.98-3.22,2.99-7.04,5.76-11.09,7.34-6.11,2.38-12.79,3.29-19,5.46-7.69,2.69-15.15,6.03-22.71,9.09-6.17,2.49-12.29,5.11-18.52,7.44-12.19,4.57-23.36,10.67-31.62,21.04-10.65,13.36-11.24,31.08-1.74,45.16.85,1.26,1.37,2.75,2.04,4.14l-.75.54ZM336.57,37.35c.31.35.61.69.92,1.04,3.42-2.57,6.84-5.13,10.26-7.7-.3-.39-.6-.79-.9-1.18l-10.28,7.84Z"/>
  <path class="cls-2" d="M503.31,150c-4.22.7-7.4,1.5-10.62,1.73-15.21,1.07-29.57-2.54-42.98-9.32-20.36-10.29-41.28-11.98-63.11-6.08-13.54,3.66-25.15,10.51-34.75,20.69-1.21,1.28-1.7,3.23-2.53,4.87-.97-.72-1.94-1.43-2.91-2.15,1.57-4,2.75-8.21,4.79-11.95,6.95-12.73,17.71-21.57,30.44-27.99,19.37-9.77,39.76-15.13,61.71-13.28,8.12.69,16.81,5.84,22.47,14.21-14.83-3.72-29.33-5.42-43.94-1.07,6.27,0,12.56-.27,18.81.06,12.56.65,24.2,4.36,34.69,11.44,8.94,6.03,17.89,12.06,27.93,18.84Z"/>
  <path class="cls-2" d="M418.81,32.87c-13.41,11.45-29.03,18.29-46.19,22.09-11.99,2.65-23.97,5.46-35.83,8.65-3.6.97-7.05,3.07-10.16,5.23-11.45,7.97-22.84,16.03-34.02,24.36-6.12,4.56-11.77,9.74-17.51,14.54-3.21-10.83,8.5-27.82,27.48-39.3-12.17,1.19-24.75,11.41-29.51,24.84-1.8,5.08-1.67,10.81-3.19,16.02-1.44,4.95-3.89,9.6-6.26,15.28-6.74-8.1-9.95-16.2-8.2-25.83,1.68-9.27,6.63-16.68,13.81-22.53,16.3-13.29,35.03-21.49,55.34-26.63,15.14-3.83,30.51-5.04,45.99-5.71,9.62-.42,18.47-3.6,27.35-7.09,6.55-2.58,13.54-4.04,20.33-5.99.2.69.39,1.38.59,2.07Z"/>
  <path class="cls-2" d="M511.34,362.39c-3.25,8.6-7.94,10.5-14.38,6.38-7.54-4.84-14.98-9.84-23.56-15.5,9.64-1.41,13.79,5.1,18.85,9.92-2.05-7.96-11.82-14.12-21.15-12.02-6.34,1.43-12.48,4.45-18.25,7.6-8.02,4.39-15.58,9.6-23.38,14.4-1.53.94-3.24,1.59-5.33,1.98,8.89-11.36,20.51-20.88,23.59-36.02-17,18.85-30.13,41.99-56.32,50.47,7.44-8.28,17.16-14.5,21.9-24.99-.38-.48-.75-.96-1.13-1.43-2.18,1.67-4.61,3.09-6.48,5.06-5.05,5.31-9.64,11.05-14.81,16.23-5.91,5.92-13.25,8.62-22.88,8.03,3.13-2.09,5.39-3.55,7.6-5.09,10.15-7.02,15.1-17.36,18.75-28.71,2.99-9.28,1.14-8.98,11.93-8.78,12.82.23,23.61-5.09,33.99-11.6,7.8-4.89,16.19-7.63,25.29-8.62,9.27-1.01,16.72,2.14,22.32,9.49,3.53,4.63,6.91,9.38,10.14,14.23,3.21,4.83,5.4,10.82,13.29,8.98Z"/>
  <path class="cls-2" d="M458.82,763.06c13.61-18.97,22.46-39.49,19.54-63.26-.87-7.08-3.68-13.92-5.6-20.88-.52.14-1.04.27-1.55.41,0,.45-.11.94.02,1.35,6.24,20.74,1.37,39.56-10.25,57.01-5.53,8.31-11.76,16.16-17.58,24.28-4.35,6.07-8.55,12.25-13.45,18.32.67-2.19,1.06-4.51,2.04-6.54,4.42-9.13,8.76-18.32,13.58-27.24,15.6-28.9,13.66-56.88-3.98-84.13-3.51-5.42-7.31-10.64-10.42-16.83,2.6,1.25,5.3,2.34,7.8,3.78,8.36,4.82,17.34,7.41,26.88,8.79,3.05.44,6.56,2.66,8.5,5.13,13.94,17.74,17.23,37.91,11.86,59.48-3.4,13.66-10.27,25.62-20.27,35.65-1.91,1.91-4.05,3.6-6.08,5.4-.34-.24-.69-.48-1.03-.72Z"/>
  <path class="cls-2" d="M597.58,317.83c-7.92,3.66-15.51,6.28-22.16,10.41-21.07,13.05-44.55,6.9-56.76-15.71-2.5-4.63-4.08-9.82-5.49-14.92-.44-1.59,1.09-3.72,1.71-5.6,1.4.94,2.95,1.7,4.16,2.84,5.64,5.33,10.46,11.9,16.9,15.91,11.99,7.47,24.96,6.54,37.91.78-.46-.31-.64-.51-.73-.48-21.89,7.41-39.92-1.58-49.89-22.07-.73-1.49-1.41-3.13-2.54-4.28-5.82-5.93-4.43-12.1-.3-19.51,2.78,1.99,5.92,3.52,8.03,5.94,2.8,3.23,4.83,7.14,7.14,10.8,8.47,13.45,21.48,18.76,36.93,14.88,4.35-1.09,8.59-2.64,12.91-3.87,13.36-3.79,23.89,1.63,28.32,14.87,1.4,4.17,1.96,8.63,2.16,13.28-3.99-5.05-4.29-12.47-11.42-15.19-6.76-2.58-12.99-1.76-20.14,1.63,9.16-1.12,17.99-4.76,24.28,4.67-10.15-5.32-19.35-.97-28.65,2.39-5.01,1.81-10.07,3.48-15.04,5.38-11.97,4.57-23.46,4.23-34.29-3.61-.2.36-.41.73-.61,1.09,1.33,1.35,2.5,2.92,4.02,4.02,8.42,6.06,17.89,7.12,27.65,4.67,8.54-2.15,16.84-5.24,25.37-7.5,3.32-.88,6.95-.58,10.55-.83Z"/>
  <path class="cls-2" d="M640.19,560.56c8.61-13.47,12.96-26.76,7.87-41.55-2.44-7.1-5.3-14.02-12.87-17.71.87,1.23,1.71,2.49,2.62,3.68,4.31,5.61,7.1,11.94,6.35,18.99-1.77,16.77-10.03,30.2-22.95,42.41,3.2-5.95,6.6-10.53,8.27-15.68,4.73-14.51,2.24-28.48-5.88-41.11-4.29-6.66-10.09-12.33-15.02-18.61-4.91-6.26-10.04-12.42-14.23-19.15-4.14-6.65-3.93-13.94-.13-20.97,2.49-4.61,4.92-9.26,7.37-13.9.47.11.93.22,1.4.33.33,1.35.74,2.68.97,4.04,2.2,13.54,8.88,24.18,20.27,31.92,4.81,3.27,9.54,6.69,14.06,10.35,11.16,9.04,17.11,21.09,19.32,35.05,2.32,14.67-4.88,32.42-17.42,41.9Z"/>
  <path class="cls-2" d="M135.78,198.59c.98,13.8,8.25,23.48,18.82,31.18-5.74,5.43-11.32,5.95-17.25,1.86-.68-.47-1.33-.99-1.99-1.51-11.97-9.44-23.04-6.05-27.43,8.6-2.08,6.94-2.81,13.92.13,21.04.61,1.48-.92,4.71-2.43,6.05-17.69,15.71-37.91,24.04-61.89,19.25-5.88-1.18-11.61-3.74-16.99-6.5-2.36-1.22-4.3-4.31-5.2-6.96-.61-1.81.33-5.68,1.61-6.23,1.91-.83,5.5-.41,7.06.97,11.01,9.75,28.52,10.43,40.16.61-11.1,2.34-21.54,5.79-32.39,1.31,1.15-.14,2.3-.46,3.44-.4,14.4.81,26.35-4.9,36.62-14.31,6.86-6.28,12.8-13.56,19.65-19.85,5.57-5.13,11.8-9.57,17.9-14.09,2.79-2.07,5.96-3.63,8.98-5.4,4.78-2.8,8.43-6.43,9.6-12.12.25-1.22,1.07-2.32,1.62-3.48Z"/>
  <path class="cls-2" d="M325.41,75.36c6.25-3.19,12.24-7.14,18.82-9.38,8.3-2.82,16.99-4.88,25.67-6.1,16.12-2.26,30.19-8.87,43.28-18.12,6.76-4.77,13.19-10.19,22.32-9.93,8.06.23,13.73,3.92,16.86,11.1,2.97,6.82,2.07,13.45-3.09,19.03-2.23,2.41-4.75,4.8-7.61,6.34-11.53,6.19-23.81,10.47-36.82,12-3.7.44-7.67-1.14-11.49-1.95-7.14-1.52-14.19-3.62-21.39-4.66-12.28-1.78-24.57-1.37-36.72,1.49-3.03.71-6.12,1.15-9.19,1.71-.22-.51-.44-1.02-.66-1.53ZM435.31,32.43c.83,12.22-6.2,18.99-15.5,22.65-9.18,3.61-19.15,5.26-28.83,7.49-4.35,1-8.85,1.31-13.29,1.94.1.58.2,1.16.3,1.75,13.42-2.22,26.94-4,40.22-6.89,5.34-1.16,10.59-4.14,15.08-7.39,6.54-4.73,7.5-13.8,2.02-19.53Z"/>
  <path class="cls-2" d="M145.79,267.02c-7.89,5.58-15.4,10.88-22.89,16.18,16.45-1.51,26.38-15.99,41.57-20.42-.79.88-1.56,1.78-2.37,2.63-4.12,4.32-8.13,8.74-12.41,12.89-3.2,3.11-6.45,6.34-10.2,8.68-6.03,3.75-12.62,4.94-19.57,2.03-2.91-1.22-5.99-2.06-9.04-2.87-11.68-3.1-21.6,1.36-27.1,12.17-3.71,7.29-4.99,15.11-4.91,23.23.05,4.49-5.21,10.09-9.53,10.31-3.5.18-10.61-5.54-10.83-9.09-.1-1.54.77-3.17,1.34-4.71,3.07-8.23,6.01-16.52,9.4-24.63.91-2.19,2.88-4.4,4.95-5.55,10.16-5.63,20.42-11.08,30.83-16.24,6.22-3.08,12.74-5.59,19.2-8.17,1.29-.52,2.98-.51,4.38-.23,5.29,1.05,10.54,2.3,17.18,3.78Z"/>
  <path class="cls-2" d="M270.06,39.3c-1.79.51-3.57,1.07-5.38,1.52-16.55,4.09-30.88,12.11-42.89,24.22-13.66,13.77-16.55,34.99-7.11,51.97.86,1.55,1.68,3.14,1.68,5.55-1.8-1.25-3.59-2.49-5.39-3.75-6.94-4.86-13.97-9.59-20.75-14.67-1.62-1.21-3.08-3.44-3.42-5.41-2.61-14.81,2.67-26.96,13.84-36.42,19.43-16.45,42.21-24.04,67.53-24.37.57,0,1.15.2,1.73.31.05.35.11.69.16,1.04Z"/>
  <path class="cls-2" d="M714.49,412.94c5.35,2.01,8.26,9.3,5.9,17.09-1.89,6.24-6.01,10.77-11.74,13.65-15.52,7.82-30.96,6.22-45.29-2.47-13.42-8.13-21.88-20.36-23.75-36.37-.97-8.32,4.24-14.32,12.02-15.15,2.14,6.92,3.55,14.02,6.49,20.41,5.04,10.97,13.07,19.42,25.11,22.77,9.86,2.75,19.18,1.15,25.81-7.18,2.77-3.48,3.67-8.43,5.45-12.76Z"/>
  <path class="cls-2" d="M157.42,105.95c17.14-1.77,33.24.67,47.15,11.8,1.51,1.2,2.87,2.59,5.22,4.75-2.81.52-4.46.96-6.15,1.12-10.93,1.04-21.21,4-30.73,9.62-2,1.18-4.86,2.39-6.87,1.86-15.81-4.17-30.66-3.57-44.1,7.48,7.38-16.82,15.6-32.48,35.62-36.73l-.15.11Z"/>
  <path class="cls-2" d="M389.44,607.58c-7.57,7.47-14.72,13.45-25.11,13.14-9.49-.28-18.96-1.11-28.45-1.19-6.63-.06-13.29.53-19.89,1.22-8.88.93-18.86-5.18-23.16-15.07,12.11-2.89,23.67-7.16,36.57-4.97,6.05,1.03,12.48-.3,18.74-.34,6.59-.04,13.23-.28,19.75.46,5.07.57,10.02,2.4,14.97,3.85,1.97.58,3.79,1.65,6.57,2.89Z"/>
  <path class="cls-2" d="M495.79,747.22c13.05-29.38,10.38-57.78-4.81-85.69,7.99-4.15,15.74-8.17,23.53-12.21,13.38,13.91,13.99,64.58,1.14,80.72,0-11.87.03-24.1-.04-36.33,0-1.43-.61-2.85-1.38-4.34-1.1,21.01-4.26,41.27-18.44,57.84Z"/>
  <path class="cls-2" d="M240.38,358.91l6.75,10.08c-.34.44-.67.89-1.01,1.33-1.83-.69-3.94-1.02-5.45-2.14-5.6-4.15-10.95-8.63-16.49-12.86-3.68-2.81-7.25-5.97-11.37-7.93-4.63-2.21-9.46-.8-13.78,1.89-4.67,2.9-9.16,6.13-14.06,8.58-2.84,1.42-6.3,1.73-9.52,2.18-.81.11-2.3-.97-2.59-1.81-.28-.79.32-2.31,1.04-2.95,8.27-7.41,16.66-14.69,24.97-22.05,6.21-5.5,8.71-6.05,16.14-2.3,8.46,4.28,16.81,8.8,25.09,13.41,2.29,1.27,4.45,3.01,6.21,4.95,10.94,12.04,21.74,24.21,32.96,36.74-15.03-6.37-26.49-17.31-38.88-27.11Z"/>
  <path class="cls-2" d="M71.49,537.97c-.28-1.37-.56-2.73-.84-4.1-4.98,11.03-5.43,22.12-1.26,33.51-8.34-5.47-13.79-12.91-13.53-22.81.38-14.68,5.84-27.28,18.58-35.75,3.88-2.58,7.95-4.87,12.03-7.11,9.41-5.15,17.18-11.91,22.54-21.37.99-1.75,3.13-2.85,4.74-4.26.81,2.5,2.62,5.15,2.26,7.46-1.82,11.74-8.96,20.15-18.22,27.01-.27.2-.54.4-.83.55-11.53,5.94-21.99,12.86-24.14,27.45-.44-.19-.88-.39-1.32-.58Z"/>
  <path class="cls-2" d="M73.03,416.88c3.42-.64,6.7-1.25,9.96-1.85,8.96,21.27-1.08,50.22-21.14,61.09-6.07,3.29-12.48,4.5-19.29,3.51-6.79-.98-11.58-4.61-14.35-11.59,6.53,5.49,12.51,2.33,17.8-1.17,5.34-3.53,10.64-7.61,14.67-12.51,8.4-10.2,11.36-20.79,12.34-37.48Z"/>
  <path class="cls-2" d="M242.25,211.75c-3.4-1.91-5.94-3.48-8.6-4.81-8.46-4.24-16.77-3.77-24.7,1.3-4.2,2.69-7.92,6.22-12.29,8.54-5.53,2.93-11.31,6.15-17.33,7.2-11.78,2.04-21.79-2.24-28.46-12.45-6.82-10.45-8.7-21.7-2.46-33.07,1.63-2.97,5.26-4.85,7.97-7.23.6.44,1.19.87,1.79,1.31-1.23,4.4-2.47,8.81-3.7,13.21-.48-.05-.96-.11-1.44-.16.32-3.05.65-6.1.97-9.15-.44-.04-.87-.08-1.31-.12-.34,3.43-1.18,6.89-.94,10.28,1.32,18.59,17.45,28.92,34.94,22.39,5.13-1.91,9.91-4.78,15.03-6.71,5.41-2.04,10.95-4.2,16.61-5.02,10.33-1.49,20.42,4.72,23.92,14.51Z"/>
  <path class="cls-2" d="M576.45,231.86c-1.69,0-3.58-.51-5.02.09-5.84,2.42-11.89,4.61-17.24,7.9-18.11,11.13-35.58,8.7-52.73-1.84-5.59-3.44-10.77-7.56-16.91-11.92,6.46-2.66,11.75-5.02,17.2-6.95,1.12-.4,3,.57,4.23,1.37,5.01,3.24,9.59,7.27,14.89,9.9,10.38,5.15,20.85,5,30.86-1.57,3.47-2.28,7-4.58,10.78-6.25,4.44-1.96,9.18-1.22,12.61,2.01,1.9,1.79,2.27,5.2,3.33,7.88-.67-.2-1.34-.41-2.01-.61Z"/>
  <path class="cls-2" d="M690.3,451.3c-15.05,5.79-30.29,10.17-45.7.92-14.92-8.96-20.73-23.13-21.57-39.89-.23-4.62,3-6.45,6.33-6.91,1.6-.22,4.09,2.4,5.36,4.28,1.92,2.87,3.06,6.26,4.66,9.36,10.26,19.92,27.08,29.42,49.02,30.74.63.04,1.25.13,1.87.19.01.44.02.88.04,1.32Z"/>
  <path class="cls-2" d="M172.79,265.41c.99,21.68-19.08,40.51-33.02,44.5-6.11,1.75-12.08,1.46-17.95-1.5-4.28-2.17-8.74-4.17-13.33-5.51-9.42-2.75-16.38,1.31-19.2,10.68-.27.91-.46,1.85-.9,3.63-2.42-15.86,10.3-27.26,24.22-22.57,10.91,3.67,21.55,5.17,31.17-2.86,3.4-2.84,6.07-6.56,9.04-9.9,3.19-3.6,6.02-7.61,9.62-10.74,2.69-2.34,6.34-3.58,10.35-5.73Z"/>
  <path class="cls-2" d="M632.02,364.37c-10.03,22.09-36.34,31.49-56.45,20.63-10.94-5.91-19.92-14-24.17-26.17-.9-2.58-3.06-5.74.48-8.08,2.91-1.92,8.98-.54,11.18,2.27,1.75,2.22,3.39,4.55,5.28,6.64,10.93,12.03,24.33,16.32,40.21,12.59,1.9-.45,3.79-.95,6.81-1.71-4.93,6.95-11.82,7.49-19,9.55,15.01.95,24.97-7.25,35.64-15.71Z"/>
  <path class="cls-2" d="M104.63,320.76c13.13-1.73,26.6-2.46,39.54-5.49,13.75-3.21,23.21-12.95,30.86-25.66.35,2.54,1.22,5.14.98,7.63-1.15,11.57-7.7,20.53-15.41,28.42-17.65,18.06-41.9,15.53-55.97-4.9ZM121.26,327.6c15.2,7.36,32.83,1.31,40.16-13.62-11.79,9.14-23.35,18.98-40.16,13.62Z"/>
  <path class="cls-2" d="M484.19,551.27c-3.5-12.48.4-23.43,6.81-33.73,1.01-1.63,3.53-2.31,5.36-3.43.78,2.41,2.8,5.23,2.15,7.15-3.67,10.91-2.42,21.33,1.76,31.7.16.4.07.91.15,2.25-2.21-1.89-3.88-3.31-5.54-4.74-.34.27-.69.55-1.03.82,1.7,2.23,3.29,4.55,5.14,6.66,1.64,1.87,3.81,3.29,5.3,5.25,6.32,8.32,4.88,15.78-4.65,22.53-2.98-9.95-7.15-19.09-15.61-26.13,2.62,7.54,5.01,14.44,7.4,21.34-.49.26-.97.53-1.46.79-.69-.26-1.76-.33-2.01-.82-3.78-7.33-8.14-14.46-10.92-22.16-2.04-5.67-.85-6.33,5.13-7.03.65-.08,1.28-.28,2.02-.44Z"/>
  <path class="cls-2" d="M95.21,623.43c-5.55-11.66-5.32-23.8-2.81-36.03,4.38-21.35,14.45-39.14,32.48-52.09,7.66-5.5,14.85-11.66,22.71-17.87.36,4.89.94,9.75.94,14.61,0,1.33-1.48,2.95-2.69,3.92-5.32,4.27-10.75,8.4-16.22,12.48-11.77,8.77-21.77,19.13-28.6,32.22-7.05,13.51-8.34,27.87-5.8,42.76Z"/>
  <path class="cls-2" d="M28.73,455.08c-.48.84-.97,1.66-1.42,2.51-5.06,9.55-.98,19.71,9.33,23.25,18.3,6.28,37.23-1.11,46.19-18.43,3.04-5.87,5.15-12.23,8.26-19.76,1.37,3.45,2.87,6.05,3.38,8.84.4,2.18-.2,4.64-.72,6.89-4.89,21.51-32.88,44.18-63.35,30.15-11.71-5.39-16.36-19.94-9.72-29.77,1.53-2.27,4.46-3.59,6.75-5.35.43.56.87,1.12,1.3,1.68Z"/>
  <path class="cls-2" d="M208.4,415.86c.88-.14,1.12-.24,1.19-.18,15.23,16.14,34.2,14.09,53.5,11.34,8.53-1.22,17.21-1.45,25.82-2.1,1.43-.11,2.88-.02,5.81-.02-2.44-3.59-4.16-6.13-6.34-9.33,10.78,6.39,11.75,11.83,4.66,17.1-2.15-1.11-3.91-2.64-5.84-2.88-3.09-.38-6.35-.27-9.43.25-11.95,2.03-23.86,4.31-36.64,6.65h19.86c-7.71,13.57-34.17,13.65-45.94-.33,3.4-1.19,6.29-2.21,9.33-3.28-3.19-2.24-6.83-4.41-10-7.13-3.02-2.6-6.78-5.15-5.97-10.11Z"/>
  <path class="cls-2" d="M37.89,336.97c-1.61,1.51-3.16,2.9-4.64,4.35-5.29,5.2-5.71,11.49-1.13,16.4,4.33,4.64,12.61,5.22,17.12.4,5.62-6,10.52-12.68,15.89-19.26.85.68,2.21,1.87,3.67,2.91,5.48,3.91,11.12,4.52,17.41,1.62,3.21-1.48,6.96-1.79,11.04-2.76-1.24,6.77-4.6,10.5-10.63,10.75-4.63.19-9.6-.7-13.94-2.38-6.48-2.51-13.32-.77-15.52,5.89-1.75,5.3-2.55,11.02-2.95,16.61-.31,4.45-2.04,5.71-6.21,5.47-16.32-.91-29.19-13.68-28.19-27.81.56-7.87,10.27-17.22,18.09-12.2Z"/>
  <path class="cls-2" d="M540.32,97.82c1.08-3.75,2.01-6.97,2.94-10.2-.37-.14-.75-.27-1.12-.41-.53,1.07-1.05,2.14-1.59,3.2-1.96,3.89-4.68,5.65-9.3,4.34-13.23-3.75-26.47-6.68-38.45-14.59-6.96-4.59-16.51-5.57-25.06-7.37-5.46-1.15-11.24-.82-17.79-1.2,3.15-3.54,5.65-6.7,8.57-9.41.7-.65,2.8.03,4.2.35,14.51,3.41,28.32,8.73,41.25,16.1,7.62,4.34,15.01,5.42,23.31,1.92,5.25-2.21,10.11-1.88,14.74,3.24,3.26,3.6,7.23,6.37,7.66,11.53.17,2.1-.83,4.3-1.29,6.45-1.88-.69-3.81-1.26-5.62-2.1-1.03-.48-1.85-1.39-2.46-1.87Z"/>
  <path class="cls-2" d="M65.29,365.98c16.97,19.5,44.21,18.71,60.42-1.81,2.16-2.73,3.83-5.87,6.09-8.5.98-1.14,2.95-2.22,4.34-2.08,7.04.71,8.09,2.82,4.53,9.01-9.5,16.55-23.29,26.76-42.8,27.66-12.96.6-23.15-5.2-30.71-15.46-1.72-2.33-2.22-5.56-3.28-8.37.47-.15.93-.29,1.4-.44Z"/>
  <path class="cls-2" d="M97.93,413.58c8.1,1.22,11.64,4.4,12.32,11.47,1.13,11.71,7.48,20.65,15.37,29.4,6.84,7.59,15.08,15.3,15.63,26.91-5.85,2.48-14.88-.39-19.08-5.96-.6-.79-1.17-1.64-1.57-2.54-5.97-13.15-12.25-26.17-17.71-39.53-2.46-6.02-3.25-12.72-4.96-19.75Z"/>
  <path class="cls-2" d="M604.08,402.25c-1.9,6-3.14,12.42-5.92,18.1-3.78,7.73-8.33,15.17-13.32,22.2-3.43,4.84-5.34,9.78-5.89,15.57-.36,3.78-1.03,7.61-2.2,11.21-1.28,3.89-4.53,5.9-8.62,5.28-4.27-.65-3.89-4.51-3.95-7.53-.04-2.05.87-4.12,1.38-6.18.32-1.27,1.28-2.75.92-3.77-3.39-9.55,6.08-13.37,8.78-20.17,12.39-6.7,15.95-18.95,19.53-31.15,1.83-6.2,2.01-6.37,9.28-3.55Z"/>
  <path class="cls-2" d="M317.81,649.08c-.72,2.6-.99,5.45-2.26,7.74-2.57,4.64-5.3,9.28-8.65,13.37-15.13,18.51-19.32,39.34-13.98,62.38.32,1.36.55,2.74.33,4.2-11.76-14.2-12.74-30.45-8.21-47.36,4.81-17.92,16.45-30.8,31.03-41.21.58.29,1.15.59,1.73.88Z"/>
  <path class="cls-2" d="M157.57,105.83c-6.58-2.48-11.93-6.54-15.59-12.57-4.64-7.66-4.12-15.28,1.02-22.46,5.07-7.07,12.22-10.18,22.32-10.69-6.13,5.83-8.03,11.97-4.13,17.85,3.22,4.85,8.21,8.51,12.32,12.79,2.28,2.37,4.37,4.91,6.11,7.74-19.42-3.65-30.61-15.69-29.48-30.69-6.47,8.91-3.84,15.01,13.86,32.17-4.69.82-9.01-1.46-17.16-9.43,2.84,7.12,8.27,10.09,14.07,13.12-1.43.93-2.46,1.6-3.49,2.27,0,0,.14-.11.14-.11Z"/>
  <path class="cls-2" d="M351,210.21c-.45-9.07-1.76-18.19-1.16-27.18.87-13,8.26-23.06,18.11-31,11.55-9.31,25.14-13.21,40.32-13.18-6.28,2.69-12.33,4.89-18.03,7.78-16.95,8.58-28.49,21.4-31.79,40.83-1.32,7.78-3.76,15.37-5.7,23.04-.59-.1-1.17-.19-1.76-.29Z"/>
  <path class="cls-2" d="M171.76,239.79c-12.52,13.18-36.17,15.3-48.49,4.35-.74-.66-1.49-1.33-2.14-2.08-2.35-2.68-4.03-5.93-1.53-8.95,2.62-3.16,6.55-2.62,9.46-.26,8.18,6.67,16.82,6.79,26.2,3.09,1.87-.74,4.47-.21,6.57.34,3.29.86,6.44,2.24,9.93,3.51Z"/>
  <path class="cls-2" d="M231.4,366.93c-5.24-2.38-10.63-4.47-15.67-7.21-7.91-4.29-15.11-3.49-21.66,2.35-4.94,4.41-9.71,9.05-14.21,13.9-4.65,5.01-9.1,6.14-14.61,3.13-1.16-.64-2.58-.8-3.88-1.18.62-.6,1.24-1.21,1.85-1.81,3.87-1.03,7.74-2.05,12.42-3.3-4.15-4.4-10.08-6.42-8.89-13.76,7.86,7.76,15.23,4.78,22.49.18,3.66-2.32,7.06-5.05,10.78-7.25,6.96-4.13,13.23-3.56,19.33,1.77,4.37,3.82,8.48,7.93,12.71,11.91-.22.42-.44.85-.66,1.27Z"/>
  <path class="cls-2" d="M76.64,367.27c5.81-.57,10.56-.97,15.29-1.52,6.39-.74,11.58-3.58,15.75-8.62,2.04-2.46,4.6-5.02,7.47-6.11,2.12-.8,5.29.35,7.59,1.46.6.29.32,4.1-.64,5.62-6.04,9.6-13.6,17.23-25.76,18.44-5.69.57-11.04-.11-15.52-3.86-1.61-1.35-2.65-3.38-4.18-5.41Z"/>
  <path class="cls-2" d="M555.1,452.1c0-2.75-.14-5.52.03-8.26.46-7.62-2.16-14.12-5.67-20.83-2.91-5.56-3.76-12.23-5.32-18.45-.27-1.07.51-2.39.99-4.4,1.28,1.93,2.05,3.09,3.66,5.52.8-4.78,1.05-8.45,2.09-11.88.9-2.98,1.05-7.54,7.54-6.2-9.04,11.08-2.23,20.26,2.3,29.49,2.23,4.54,2.64,8.41.63,13.24-1.81,4.35-2.11,9.34-3.04,14.06-.51,2.58-.94,5.17-1.41,7.75-.6-.02-1.2-.03-1.8-.05Z"/>
  <path class="cls-2" d="M146.05,509.17c0-3.7-.28-7.43.05-11.1,1-11.11,2.83-22.17,3.21-33.29.3-8.75,3.76-15.22,10.42-21.06,3.09,9.59,3.13,18.9.38,28.17-1.18,3.97-3.22,7.68-4.59,11.6-2.92,8.37-5.66,16.81-8.47,25.22-.33.15-.67.3-1,.46Z"/>
  <path class="cls-2" d="M54.02,258.71c5.46-11.25,10.49-21.62,15.58-32.1,6.88,1.61,14.32,3.34,21.94,5.12-10.12,11.6-21.7,21.56-37.51,26.98Z"/>
  <path class="cls-2" d="M483.83,201.37c-10.66-.74-21.57-3.19-31.92-1.72-10.17,1.44-19.78,6.86-29.05,10.32,2.43-13.6,17.21-23.36,33.85-19.65,9.52,2.12,18.43,6.98,27.62,10.6-.17.15-.34.31-.51.46Z"/>
  <path class="cls-2" d="M136.81,410.67c-.04.79-.08,1.57-.17,3.51,6.68-9.29,7.55-19.95,12.72-29.35.48,1.56,1.19,3.09,1.41,4.69,1.7,12.22-3.07,22.07-11.46,30.52-1.87,1.89-3.99,3.53-5.78,5.48-5.37,5.85-6,12.08-2.41,19.16,1.38,2.73,2.23,5.72,3.32,8.6-.6.41-1.21.83-1.81,1.24-1.96-2.48-4.79-4.67-5.72-7.49-3.42-10.44-3.49-20.61,4.69-29.38,1.97-2.11,3.54-4.58,5.3-6.89,0,0-.11-.09-.11-.09Z"/>
  <path class="cls-2" d="M532.57,446.56c2.51,3.97,5.03,7.94,7.54,11.91.43-.14.86-.27,1.29-.41-2.5-6.58-5-13.16-7.49-19.74,11.47,6.25,14.85,9.59,13.01,18.21-.3,1.41-.93,3.63-1.84,3.88-5.89,1.6-4.57,6.45-5.15,10.46-.33,2.28-.59,4.56-1.84,7.15-1.39-2.5-2.54-5.18-4.24-7.45-1.31-1.75-3.44-2.86-4.95-4.48-1.04-1.13-2.54-2.85-2.3-3.97,1.09-5.14,2.73-10.16,4.17-15.23.6-.11,1.2-.22,1.79-.33Z"/>
  <path class="cls-2" d="M614.4,364.69c-13.18,8.09-31.45,4.33-39.28-7.97-1.25-1.96-.89-4.95-1.25-7.32,9.49-4,11.4-3.47,16.96,4.31,5.65,7.9,13.62,11.12,23.58,10.99Z"/>
  <path class="cls-2" d="M553.49,222.72c-13.58,10.09-34.46,6.79-43.51-6.25-.62-.89-.42-3.24.33-4.05,4.93-5.33,7.11-5.36,12.66-.65,8.51,7.22,18.07,11.64,30.52,10.95Z"/>
  <path class="cls-2" d="M605.68,499.8c17.99,13.34,20.27,43.47.48,55.91-4.81,3.02-8.3,3.11-13.15.13,1.02-.53,1.81-1.03,2.67-1.38,12.76-5.2,19.47-15.35,17.35-29.07-1.37-8.87-4.92-17.4-7.35-25.59Z"/>
  <path class="cls-2" d="M86.67,565.98c-8.61-11.1-7.19-27.68,2.47-37.49,3.81-3.86,8.47-6.91,12.88-10.15,3.82-2.8,7.83-5.34,12-7.88-13.86,15.7-29.01,30.73-27.35,55.51Z"/>
  <path class="cls-2" d="M441.34,425.3c-7.68-.34-14.17-2.87-18.11-9.68-.82-1.42-.06-3.76-.02-5.68,1.89.35,4.38.06,5.59,1.16,10.07,9.25,19.73,8.82,28.95-1.4,1.09-1.21,3.02-1.67,4.56-2.47.05,1.9.77,4.12.04,5.63-4.25,8.7-11.85,12.05-21,12.44Z"/>
  <path class="cls-2" d="M163.46,548.2c-.45-3.13-2.02-6.61-1.14-9.31,2.58-7.98,5.96-15.72,9.43-23.36.62-1.36,3.2-1.83,4.88-2.7.58,1.62,1.64,3.24,1.66,4.87.1,9.04-2.1,17.49-7.42,24.94-1.61,2.25-3.49,4.3-5.24,6.45-.72-.29-1.45-.58-2.17-.87Z"/>
  <path class="cls-2" d="M251.75,425.46c-8.52-.36-14.4-2.42-17.56-8.71-.78-1.54.45-4.09.76-6.18,2.03.45,4.73.21,5.99,1.45,6.59,6.49,15.23,7,22.13.84.86-.77,1.52-1.9,2.5-2.39,1.18-.6,2.98-1.33,3.82-.83.86.51,1.43,2.54,1.19,3.71-1.06,5.21-4.74,8.35-9.49,9.99-3.56,1.23-7.38,1.7-9.34,2.12Z"/>
  <path class="cls-2" d="M398.94,513.56c9.98,8.88,19.26,17.15,28.54,25.41-.32.47-.65.94-.97,1.41-9.04-1.87-18.08-3.74-27.57-5.7v-21.12Z"/>
  <path class="cls-2" d="M151.68,525.66c-2.01-18.07,3.35-33.91,14.12-49.7,2.4,7.35,1.79,13.54-.55,19.3-4.1,10.09-8.85,19.92-13.57,30.39Z"/>
  <path class="cls-2" d="M252.46,390.93c-21.22-1.18-39.69,6.44-57.9,18.55,4.89-17.24,34.63-26.21,57.9-18.55Z"/>
  <path class="cls-2" d="M151.28,420.07c-2.4,8.01-4.56,15.09-6.61,22.21-.3,1.05-.04,2.26-.04,5.15,3.86-3.4,6.67-5.87,9.34-8.22.73,5.54-4.33,15.65-10.56,20.28-.47-7.41-8.16-12.52-5.36-20.92,2.47-7.41,7.27-12.82,13.22-18.5Z"/>
  <path class="cls-2" d="M311.09,581.59c-6.68,2.24-13.35,4.47-21.23,7.11,6.11-9.99,22.87-21.3,32.61-22.61-.19,6.01-5.24,8.9-8.02,13.1-1.11.79-2.24,1.59-3.36,2.4Z"/>
  <path class="cls-2" d="M435.69,388.5c18.64-7.02,40.9-1.87,50.75,13.12-8.42-3.05-16.25-6.54-24.43-8.66-8.29-2.14-16.93-2.93-26.32-4.46Z"/>
  <path class="cls-2" d="M147.86,677.88c5.33-11.92,14.65-19.13,21.76-28.75,3.47,2.38,6.53,4.48,9.96,6.83-10.63,7.34-20.61,14.24-31.72,21.92Z"/>
  <path class="cls-2" d="M283.7,514.55c-.84,6.14-1.36,11.21-2.33,16.2-.25,1.28-1.68,2.86-2.94,3.34-5.7,2.16-11.54,3.98-17.73,5.49,6.38-9.27,13.07-18.19,23-25.03Z"/>
  <path class="cls-2" d="M417.26,222.35c12.32-9.56,23.47-21.74,41.62-18.62,3.91.67,7.62,2.51,11.28,4.79-9.52-1.77-18.79-1.86-27.52,2.26-8.33,3.93-16.41,8.4-24.61,12.63-.26-.35-.51-.71-.77-1.06Z"/>
  <path class="cls-2" d="M90.97,314.12c1.93-7.85,8.05-12.06,14.13-9.64,7.81,3.11,15.27,7.1,22.88,10.71-.14.63-.28,1.25-.42,1.88-4.56-.56-9.16-.89-13.66-1.77-2.56-.5-4.96-1.88-7.42-2.88-5.2-2.11-10.38-3.89-15.5,1.7Z"/>
  <path class="cls-2" d="M225.37,407.22c4.58,6.91,8.89,13.41,13.01,19.62-5.44,1.17-15.51-3.49-18.35-9.12-2.8-5.55-1.06-8.78,5.34-10.5Z"/>
  <path class="cls-2" d="M427.18,425.92c-7.68-.46-14.95-.85-19.35-8.26-1.83-3.08-1.22-5.3,2.11-6.79,2.79-1.25,5.13-2.73,7.42,1.28,2.67,4.66,6.22,8.81,9.82,13.78Z"/>
  <path class="cls-2" d="M549.08,447.22c-7.21-12.38-13.56-25.02-10.96-40.34.35.97.71,1.94,1.06,2.91,2.97,8.25,6.05,16.45,8.87,24.75,1.33,3.92,2.16,8.01,3.22,12.03-.73.22-1.46.43-2.19.65Z"/>
  <path class="cls-2" d="M348.22,587.06c-8.66,6.14-16.55,6.09-22.58.29,3.46-2.43,6.84-5.04,10.47-7.21,1.07-.64,3.28-.59,4.28.11,2.69,1.89,5.02,4.3,7.82,6.81Z"/>
  <path class="cls-2" d="M547.9,729.52c2.88,20.14-16.18,40.45-35.19,37.23,22.57-2.32,30.05-18.61,35.19-37.23Z"/>
  <path class="cls-2" d="M373.58,586.09c-3.32-3.4-6.97-6.55-9.81-10.32-1.44-1.9-2.63-6.53-1.84-7.13,3.53-2.65,5.61,1.03,7.45,3.28,4.06,4.96,7.76,10.21,12.01,15.87-2.79-.6-5.31-1.14-7.82-1.68l.02-.02Z"/>
  <path class="cls-2" d="M620.22,355.55c-7.7,2.67-16.04.57-19.68-5.32-.97-1.57-.37-4.12-.49-6.23,1.74.43,3.75.44,5.19,1.35,5,3.16,9.8,6.63,14.98,10.2Z"/>
  <path class="cls-2" d="M311.09,581.59c1.12-.8,2.25-1.61,3.36-2.4,3.28-2.49,6.43-5.23,9.94-7.38,1.32-.81,3.49-.24,5.27-.3-.44,1.64-.36,3.87-1.42,4.82-6.48,5.77-14.2,8.99-23.02,9.84,1.96-1.53,3.91-3.05,5.87-4.58Z"/>
  <path class="cls-2" d="M655.15,373.79c-7.38-1.33-13.22-2.38-19.35-3.49.56-3.11,3.28-5.05,7.13-5.8,4.26-.83,8.64-.87,11.42,2.83,1.2,1.6.62,4.54.81,6.45Z"/>
  <path class="cls-2" d="M71.87,384.7c5.23,2.51,10.61,6.1,16.51,7.62,5.88,1.51,12.29.94,18.05,1.25-8.76,6.93-28.91,1.81-34.56-8.87Z"/>
  <path class="cls-2" d="M533.81,474.84l3.84,30.68c-.71.09-1.43.19-2.14.28-2.43-10.08-4.81-20.16-3.89-30.68.73-.09,1.46-.19,2.19-.28Z"/>
  <path class="cls-2" d="M511.68,410.06c-1.15,8.99-3.82,11.04-10.69,9.47-2.51-.57-5.09-.88-7.89-2.27,5.94-2.3,11.88-4.6,18.58-7.2Z"/>
  <path class="cls-2" d="M577.32,532.45c-7.82-1.33-17.51-14.87-18.1-25.61,5.99,8.48,12.06,17.07,18.1,25.61Z"/>
  <path class="cls-2" d="M360.01,39.89c2.82-3.79,5.64-7.59,8.8-11.83,2.37,2.49,4.49,4.72,7.12,7.48-5.43,1.95-10.36,3.71-15.3,5.48-.21-.38-.42-.75-.62-1.13Z"/>
  <path class="cls-2" d="M373.56,586.11c-8.18.25-20.63-7.22-24.23-15.18,8.53,5.33,16.39,10.25,24.24,15.16,0,0-.02.02-.02.02Z"/>
  <path class="cls-2" d="M136.91,410.76c2.79-8.28,3.26-16.62-.23-25.45,9.12,4.72,6.45,15.48.12,25.37,0,0,.11.09.11.09Z"/>
  <path class="cls-2" d="M518,373.47c-3.76,6.48-10.12,7.1-16.81,2.25,5.43-.73,10.93-1.46,16.81-2.25Z"/>
  <path class="cls-2" d="M366.39,834.89c2.01-3.46,4.07-7,6.09-10.49,1.11,4.42-.77,7.65-6.09,10.49Z"/>
  <path class="cls-1" d="M420.94,292.25c-3.2.51-8.58,1.5-13.99,2.22-15.83,2.1-31.73,3.67-47.48,6.24-23.12,3.77-45.77,1.11-68.42-3.37-7.5-1.48-15.13-2.33-22.68-3.57-2.58-.43-5.1-1.19-7.5-2.91,18.27.72,36.57.89,54.78,2.32,19.06,1.49,37.9.41,56.76-2.05,4.93-.64,9.95-.99,14.91-.8,11.88.47,23.75,1.33,33.62,1.92Z"/>
  <path class="cls-1" d="M291.46,315.08c35.7,5.41,71.11,2.51,106.61-2.72-1.01.42-2.01.88-3.04,1.24-1.1.37-2.23.67-3.37.95-19.85,4.89-39.36,11.27-60.33,10.34-14.08-.63-26.93-5.04-39.88-9.8Z"/>
  <path class="cls-1" d="M216.33,278.58c-3.81,2.4-8.57,4.73-12.47,8.05-3.93,3.35-7.02,7.69-10.79,11.31,2.37-10.78,11.63-22.29,23.26-19.36Z"/>
  <path class="cls-1" d="M197.23,310.24c3.08-10,9-14.88,19.1-15.04-9.92,1.58-13.28,9.4-19.1,15.04Z"/>
  <path class="cls-1" d="M345.94,344.56c-5.86,1.8-10.94,2.99-16.92-.78,6.03.28,11.08.51,16.92.78Z"/>
  <path class="cls-1" d="M683.12,215.62c-.68,16.59-21.37,28.17-38.59,28.67,16.88-4.65,30.24-12.96,38.59-28.67Z"/>
  <path class="cls-1" d="M277.29,188.89c-8.69-12.24-6.28-41.94,13.28-61.58-12.97,18.69-18,39.09-13.28,61.58Z"/>
  <path class="cls-1" d="M509.9,522.91c2.44,8.96,4.87,17.93,7.44,27.37-8.28-3.44-13.32-19.87-7.44-27.37Z"/>
  <path class="cls-1" d="M449.02,164.21c3.71.64,7.49,1.05,11.13,1.97,7.4,1.86,14.62,4.84,22.12,5.85,18.26,2.46,34.89-1.48,47.55-15.91,7.23-8.24,10.35-17.71,6.53-29.52,1.52,1.47,3.86,2.69,4.38,4.46.86,2.91,1.14,6.27.63,9.27-4.14,24.35-26.74,41.03-51.02,36.62-10.66-1.94-20.83-6.61-31.24-9.95-3.3-1.06-6.69-1.86-10.04-2.78,0,0-.02,0-.02,0Z"/>
  <path class="cls-1" d="M336.57,37.35l10.28-7.84c.3.39.6.79.9,1.18-3.42,2.57-6.84,5.13-10.26,7.7-.31-.35-.61-.69-.92-1.04Z"/>
  <path class="cls-1" d="M435.31,32.43c5.48,5.73,4.51,14.8-2.02,19.53-4.49,3.25-9.75,6.23-15.08,7.39-13.28,2.89-26.8,4.67-40.22,6.89-.1-.58-.2-1.16-.3-1.75,4.43-.63,8.94-.94,13.29-1.94,9.69-2.23,19.66-3.88,28.83-7.49,9.3-3.65,16.32-10.42,15.5-22.65Z"/>
  <path class="cls-1" d="M121.26,327.6c16.81,5.36,28.36-4.48,40.16-13.62-7.33,14.93-24.95,20.97-40.16,13.62Z"/>
</svg>