<?xml version="1.0" encoding="UTF-8"?>
<svg id="Layer_1" data-name="Layer 1" xmlns="http://www.w3.org/2000/svg" viewBox="0 0 798.58 899.69">
  <defs>
    <style>
      .cls-1 {
        fill: #000;
      }

      .cls-1, .cls-2 {
        stroke-width: 0px;
      }

      .cls-2 {
        fill: #fff;
      }
    </style>
  </defs>
  <path class="cls-2" d="M294.78,606.52c-9.93-6.78-22.06-18.46-30-14.32-18.43,9.6,27.75,82.33,1.36,141.16-26.52,59.12-105.02,56.75-104.34,87.97.66,30.42,75.93,66.72,137.07,68.87,7.51.26,39.63,7.98,82.81,7.98,48.12,0,84.35-8,112.28-14.35,35.75-8.12,59.25-16.87,100.16-32.11,54.1-20.14,81.49-30.4,83.21-41.99,4.6-31.05-78.79-42.02-104.34-108.43-22.94-59.61,23.78-104.01,1.36-126.16-39.59-39.11-197.29,87.52-279.59,31.37Z"/>
  <path class="cls-1" d="M691.01,231.83c1.36.42,2.34-1.75,6.41-5.45,10.34-9.39,20.63-18.83,30.97-28.22.82-.75,1.85-1.26,3.75-2.52-1.97,7.64-3.67,14.26-5.38,20.89,9.72-7.07,18.06-15.01,22.38-26.27,1.91-4.98,3.52-10.07,5.65-14.95.6-1.39,2.53-2.2,3.85-3.28.73,1.37,2.1,2.74,2.09,4.1-.08,10.14.65,20.45-.93,30.38-3.22,20.27-22.42,36.47-43.28,36.97-11.17.27-19,5.44-25.28,12.64,14.25-2.62,28.92-5.31,43.59-8.01.19.59.38,1.17.57,1.76-1.8,1.02-3.74,1.86-5.37,3.1-3.01,2.3-6.65,4.32-8.61,7.37-6.49,10.09-15.4,17.39-25.17,23.91-1.1.73-2.13,1.58-3.2,2.37.09.47.18.94.27,1.42,3.95-.7,8.55-.36,11.73-2.32,6.71-4.13,13.42-8.76,18.79-14.46,9.55-10.15,16.82-22.27,27.93-31.19,9.97-8.01,19.14-17.01,28.83-25.38,1.45-1.26,3.79-1.87,5.74-1.94.54-.02,1.57,2.97,1.72,4.64,1.16,13-.88,25.7-5.19,37.86-5.13,14.45-16.84,21.27-31.13,24.36-2.26.49-4.65.75-6.96.63-12.59-.64-23.78,3.3-34.72,9.26-5.43,2.96-11.94,3.9-17.89,5.94-1.45.5-2.63,1.75-3.94,2.66,1.46.2,3.03.88,4.35.53,12.88-3.36,25.74-6.82,38.57-10.39,18.03-5.02,35.63-3.62,52.84,3.38,1.87.76,3.36,2.43,5.03,3.68-1.49,1.64-2.7,3.72-4.51,4.86-11.04,6.96-22.58,12.79-35.69,14.93-6.91,1.13-13.51.58-20.13-1.82-7.5-2.71-15.07-5.46-22.84-7.09-4.53-.95-9.6-.16-14.26.69-2.32.42-4.28,2.76-6.14,5.21,22.4,5.08,43.69,14.52,67.28,8.85,8.13-1.96,16.81-2.02,25.25-2.16,5.26-.09,10.61,1.04,15.8,2.17,1.79.39,3.21,2.44,4.79,3.74-1.21,1.26-2.19,3.1-3.66,3.68-8.95,3.51-17.82,7.48-27.09,9.85-12.49,3.19-23.72-.89-33.41-9.07-3.84-3.24-8.05-3.15-13.34-2.56,11.14,10.04,20.19,21.29,36.42,22.44,23.64,1.68,34.84,20.46,37.45,38.05.19,1.31.39,2.68.23,3.97-.11.87-.75,2.28-1.3,2.36-.93.13-2.54-.32-2.91-1.02-2.92-5.66-8.09-5.24-13.08-4.93-11.46.7-21.17-2.85-29.58-10.76-6.16-5.79-8.89-13.17-11.08-20.9-3.02-10.66-9.27-18.67-18.97-23.99-1.02-.56-2.07-1.06-3.13-1.53-.55-.24-1.15-.37-1.93-.28,16.76,12.53,25.94,28.9,27.04,49.54-.59.39-1.18.77-1.76,1.16-2.63-3.81-5.78-7.38-7.78-11.5-3.7-7.63-6.51-15.69-10.09-23.38-3.71-7.97-9.98-13.06-19.67-15.28,1.18,2.72,1.98,4.79,2.96,6.77,6.9,13.94,10.16,28.45,7.48,44.06-1.49,8.65-2.42,17.4-3.88,26.06-1.2,7.15.53,14.34,4.41,16.47,3.73,2.05,11.25-.35,16.26-5.19,4.62-4.47,5.18-8.77,2.44-15.5-.67-1.65-1.24-4.76-.5-5.28,1.65-1.17,4.3-1.86,6.29-1.47,10.19,2.02,14.81,8,14.74,18.33-.13,20.53-19.34,39.72-39.9,39.86-2.82.02-5.63,0-9.15,0,2.07,9.44,6.84,17.38,10.75,25.68,3.91,8.31,8.89,16.34,7.34,26.55-5.32-9.67-10.86-19.23-15.88-29.05-4.92-9.63-9.3-19.52-13.91-29.3-.72.21-1.45.41-2.17.62,0,1.67-.15,3.36.02,5.02,3.11,30.63,16.06,56.41,38.48,77.41,8.14,7.63,17.2,14.35,24.81,22.45,28.2,30.04,36.5,65.19,23.75,104.39-3.67,11.28-3.14,19.75,3.28,30.18,14.44,23.48,17.83,49.03,6.52,75.07-9.6,22.11-27.75,34.55-50.24,40.66-17.5,4.75-35.34,8.25-53.08,12.07-3.34.72-5.32,2.11-6.45,5.3-8.14,22.97-31.23,38.01-57.84,36.91-9.36-.39-17.75,1.4-26.05,5.24-12.93,5.98-64.59,18.86-111.45,26.67-20.36,3.39-46.15,6.9-76.3,9.04l-29.3-9.48c35.68-1.04,65.06-2.45,86.74-3.41,9.38-.41,21.22-.91,34.57-7.1,8.01-3.71,10.17-6.59,19.23-11.19,6.82-3.46,16.24-7.01,32.89-10.72,38.45-8.58,74.01-24.13,108.31-43,2.33-1.28,4.68-2.61,6.75-4.26,3.25-2.59,2.69-6.05-1.06-7.86-.45-.22-.94-.33-1.42-.48-2.69-.82-5.39-1.63-9.74-2.94,4.06,3.22,2.73,4.76.44,6.57-22.2,17.63-48.09,26.91-75.31,32.85-23.69,5.17-47.83,6.52-72.03,6.91-7.99.13-16,.56-23.95,1.32-11.03,1.06-21.63,3.85-31.9,8.59,2.23-1.59,4.36-3.34,6.71-4.74,12.72-7.6,26.86-9.41,41.3-10.13,18.13-.9,36.33-1.3,54.37-3.11,24.16-2.43,47.45-8.9,69.88-18.25,2.56-1.07,4.96-2.5,8.73-4.43-3.65-1.72-6.05-3.04-8.59-4.01-16.75-6.37-32.7-14.21-46.6-25.69-25.09-20.72-39.15-47.05-40.45-79.87-1.03-25.94,2.09-51.58,5.42-77.19,1.7-13.05,3.71-26.05,5.56-39.08.21-1.45.29-2.92-.42-4.93-1.57,1.95-3.18,3.87-4.7,5.85-16.18,21.16-31.6,42.96-48.72,63.33-18.22,21.67-40.13,39.26-65.31,52.75-20.92,11.2-41.24,9.89-61.55-.81-22.13-11.66-36.91-30.72-50.41-50.96-7.12-10.67-13.95-21.53-20.95-32.27-1.45-2.23-2.84-4.6-4.73-6.42-1.52-1.47-3.73-2.22-5.64-3.3-.37,2.02-1.22,4.09-1.02,6.05,1.59,15.91,3.8,31.77,5.01,47.7,2.24,29.5.82,58.87-10.63,86.52-13.75,33.21-37.69,55.93-72.96,65.78-2.52.7-5.52,2.73-6.56,4.95-1.62,3.49,1.8,5.54,4.29,7.52,20.86,16.65,44.87,26.56,70.55,32.87,15.36,3.77,30.76,7.4,46.14,11.13,2.41.58,4.76,1.36,7.01,2.82-6.2-.94-12.4-1.92-18.61-2.82-24.11-3.49-48.06-7.51-70.53-17.65-16.17-7.31-31.6-15.74-44.81-27.78-.61-.56-1.22-1.26-1.96-1.51-1.29-.44-2.68-.59-4.03-.86-.08,1.51-.81,3.45-.14,4.45,2.86,4.28,5.81,8.59,9.33,12.32,14.96,15.82,34.04,24.88,54.18,31.87,26.08,9.05,47.3,10.24,84.17,12.81,18.2,1.27,33.18,1.66,43.13,1.79l29.3,9.48c-34.47.46-63.07-.5-83.66-1.54-40.66-2.06-60.95-5.48-83.63-9.28-25.16-4.21-48.49-12.9-68.74-29.04-8.39-6.68-6.86-5.33-14.05.39-15.7,12.5-34.19,14.87-53.37,14.01-5.94-.27-11.9-1.5-17.7-2.88-1.93-.46-4.54-2.6-4.77-4.26-.22-1.54,1.96-4.02,3.69-5.14,4.88-3.17,10.14-5.75,15.11-8.79,3.07-1.88,4.65-4.68,1.88-7.89-8.96-10.38-8.93-21.33-2.54-32.85.56-1,.88-2.14,1.55-3.78-1.63-.79-3.13-1.7-4.75-2.28-22.91-8.21-35.15-25.28-38.59-48.54-4.21-28.4,6.09-52.7,23.57-74.47,4.59-5.72,9.33-11.32,14.09-16.89,2.25-2.64,2.98-5.21,1.64-8.67-9.99-25.91-7.78-51.6,1.69-77.12.74-1.98,1.42-3.98,2.62-7.36-4.17,2.76-7.08,4.83-10.13,6.66-15.91,9.6-37.48-.77-39.71-19.07-1.2-9.85,3.84-14.98,13.59-13.76,2.74.34,5.39.88,6.43-2.77.74-2.59.94-6.03,2.7-7.43,1.85-1.46,5.27-.94,8.67-1.36-10.14-36.1,4.65-61.82,34.7-80.92-6.73,1.54-13.41,3.37-20.2,4.53-7.82,1.34-15.61.98-23.02-2.44-9.95-4.59-15.71-14.24-14.69-25,.6-6.38,3.58-11.38,9.34-14.47,4.07-2.18,6.04-1.73,9.66,2.15-.62.32-1.15.7-1.74.89-5.93,1.86-8.03,4.53-7.05,9.02.97,4.45,6.68,8.51,11.38,8.1,4.28-.37,6.78-4.03,7.09-9.41.49-8.44.73-16.96,2.15-25.26,1.65-9.65,6.1-18.24,12.76-25.63,1.37-1.52,2.62-4.08,2.4-5.98-2.19-18.83-2.17-19.45,6.92-36.31-5.41.79-9.13,3.48-12.36,7-6.24,6.78-9.45,15.15-12.58,23.65-2.38,6.46-5.55,12.63-8.36,18.93l-2.23-.12c-.84-2.14-2.12-4.21-2.45-6.42-2.1-14.04,1.5-26.11,12.92-35.2,3.25-2.59,6.76-4.86,10.07-7.38,1.62-1.23,3.06-2.69,5.62-4.97-9.15-1.18-16.2.64-21.48,6.09-5.16,5.32-10.65,11.07-13.56,17.7-7.97,18.16-22.61,28.24-39.63,36.05-4,1.84-5.53.9-5.06-3.82,1.51-15.15,7.04-28.67,19.17-38.25,8.31-6.57,17.72-11.76,26.64-17.55,2.23-1.45,4.51-2.83,6.76-4.24-.07-.48-.14-.96-.2-1.45-3.65.56-7.73.25-10.87,1.82-18.58,9.3-38.48,8.32-58.29,8.13-1.07-.01-2.74-.98-3.01-1.84-.29-.93.42-2.8,1.28-3.34,2.51-1.58,5.21-2.97,8.01-3.98,18.01-6.46,36.16-8.11,55.49-5.97,15.63,1.73,31.78-1.18,47.69-2.19,1.88-.12,3.69-1.27,5.3-1.87-.73-3.51-1.36-6.56-2.15-10.37-4.24.88-8.27,1.61-12.26,2.56-33.4,7.97-63.37,1.18-89.64-21-3.4-2.87-6.25-6.47-8.94-10.03-.9-1.19-1.28-4.26-.56-4.85,1.26-1.04,3.55-1.07,5.4-1.05,1.04.01,2.11.91,3.11,1.5,29.26,17.44,60.83,26.79,94.99,26.96,2.34.01,4.68-.54,7.02-.83,0-.52,0-1.05,0-1.57-.66-.35-1.28-.89-1.99-1.03-15.49-3.19-31.17-5.63-46.44-9.64-29.59-7.78-50.42-25.6-59.56-55.56-.96-3.15-1.53-6.53-1.51-9.8,0-1.55,1.55-3.91,2.92-4.39,1.31-.46,4.13.54,4.89,1.76,16.2,26.08,41.68,42.29,64.76,61.02,8.42,6.83,18.04,11.39,29.27,11.3,1.9-.02,3.79-.39,5.83-1.17-20.61-6.37-34.98-20.3-48.4-37.59,16.5,2.48,31.72,4.77,46.95,7.06.29-.26.58-.52.87-.77-4.61-5.24-8.99-10.73-13.99-15.57-1.34-1.3-4.71-1.3-6.9-.82-24.86,5.52-43.66-3.97-58.27-23.48-7.51-10.03-8.9-22.13-9.82-34.13-.5-6.61-.33-13.34.32-19.94.23-2.31,2.76-6.12,4.31-6.15,2.34-.05,5.09,2.27,7,4.23,1.54,1.58,2.27,4.05,3.04,6.24,5.22,14.88,14.58,26.92,26.08,37.31,10.87,9.81,22.18,19.13,33.66,28.4-2.01-7.88-6.59-14.09-12.06-19.96-5.87-6.3-11.71-12.76-16.64-19.79-5.5-7.86-7.71-17.07-8.12-27.96,1.71,1.82,2.66,2.64,3.39,3.63,6.99,9.54,14.62,18.71,20.71,28.8,5.99,9.93,10.72,20.67,15.38,31.33,3.18,7.27,7.79,13.07,14.92,18.69-4.25-12.46-4.8-24.96-12.46-35.12-1.09-1.44-1.87-3.17-2.54-4.86-4.98-12.5-9.89-25.02-14.74-37.31,12.04,2.29,21.86,12.54,23.58,25.07.32,2.31.86,4.71.52,6.96-1.97,13.22,3.85,25.09,6.08,37.84,5.34-8.53,6.12-16.31,3.15-24.9-1.07-3.1-1-6.58-1.94-9.74-3.27-10.95-5.97-22.15-10.35-32.65-5.33-12.78-17.12-18.02-29.69-21.42-9.52-2.57-16.65-8.17-21.66-16.52-1.14-1.89-1.74-4.11-3.09-7.4,7.94,1.11,14.14,2.92,18.99,7.94,3.36,3.47,6.22,7.45,9.76,10.7,2.9,2.66,6.49,4.56,9.77,6.8.34-.41.68-.83,1.03-1.24-.15-.57-.14-1.28-.47-1.7-11.19-13.9-10.04-30.12-8.58-46.33.34-3.8,2.81-4.63,5.35-1.75,9.54,10.8,14,23.41,11.63,37.81-.53,3.23-3.11,6.13-5.03,9.72,3.22,3.85,6.81,8.14,11.56,13.81-.31-9.7,2.33-17.01,8.32-23.25-8.75,18.64-1.43,34.44,8.39,50.94-1.29-13.07-5.15-25.26.66-37.14,1.35.4,1.83.39,1.95.6,6.18,10.55,10.33,27.61,3.74,37.44-3.98,5.94-3.97,8.54-3.12,14.2,2.53-3.59,5.57-7.25,7.82-11.34,1.64-2.98,2.88-6.47,3.16-9.83.87-10.27,3.19-20,8.03-29.18.78-1.48.54-4.5-.5-5.77-7.89-9.63-12.6-19.94-9.1-32.73,3.98-14.54,12.44-25.64,25.28-33.38,3.26-1.97,7.09-3.03,10.29-5.07,2.94-1.88,5.65-4.3,8-6.89,1.99-2.19,3.34-4.96,4.93-7.5,13.2-21.09,32.04-32.48,57.09-32.92,6.68-.12,12.17-2.34,17.18-6.76C278.65,8.08,302.36-.38,329.31,2.75c10.72,1.25,20.6,2.57,31.55-.75,12.7-3.85,26.13-2.02,38.32,4.51,9.11,4.88,18.43,4.87,28.04,1.5,19.02-6.65,38.21-9,57.75-1.95,1.65.6,4.01.2,5.73-.5,22.02-9.01,40.74-2.16,57.81,12.04,4.33,3.61,8.51,7.61,11.93,12.06,6.44,8.37,14.13,12.04,24.98,11.15,15.73-1.29,29.78,4.19,42.38,13.56,16.39,12.19,25.36,28.66,28.77,48.57,1.09,6.35,2.66,12.69,4.76,18.78,1.5,4.37,1.34,8.17-.98,11.91-7.4,11.92-5.1,24.79-3.29,37.41.46,3.2,3.88,5.97,5.95,8.93.45-.25.9-.5,1.36-.75,2.05-11.14,4.1-22.29,6.16-33.43,6.78,10.92,5.85,21.98,3.07,33.25,4.81-7.54,10.03-14.88,14.21-22.76,1.3-2.45.56-6.67-.53-9.59-7.35-19.57-1.12-36.94,8.15-53.91.39-.72.93-1.39,1.53-1.96.46-.44,1.11-.68,2.49-1.49,5.12,10.36,6.85,21.03,6.92,32.31.07,11.68-8.22,20.18-11.99,31.64,8.04-3.41,13.13-7.89,17.28-13.73,4.88-6.88,10.52-13,19.16-15.2,1.71-.44,3.48-.68,5.3-1.03.07,11.75-11.64,26.07-23.78,29.49-2.4.68-5.06.71-7.27,1.75-4.41,2.09-9.22,4-12.7,7.24-3.95,3.67-6.8,8.58-9.8,13.17-3.61,5.52-6.89,11.26-10.75,17.64,11.15,6.16,7.4,19.2,11.29,29.25.53,0,1.05-.01,1.58-.02.34-3.76.66-7.52,1.04-11.27.79-7.93,1.14-15.94,2.58-23.75,1.17-6.37,3.69-12.46,10.92-15.62-2.8,7.3-6.23,17.87-8.34,31.01-.54,3.38-4.53,28.19.13,29.63ZM208.98,235.79c-5.03,3.09-10.05,6.18-15.22,9.36,4.41-1.56,8.81-3.25,13.3-4.66,2.76-.87,2.21-2.75,1.92-4.69-7.45-6.38-25.13-4.42-32.14,3.63,11.32,3.75,21.95,2.03,32.14-3.64ZM406.08,123.3c-.65,1.63-.91,2.05-.98,2.51-2.68,17.74-12.9,28.65-29.99,33.61-4.11,1.19-8.11,2.99-11.93,4.95-8.97,4.6-17.87,9.36-26.66,14.3-3.09,1.74-6.85,3.6-8.46,6.44-6.58,11.67-16.53,18.07-29.02,22.02-5.3,1.67-10.65,5.11-14.47,9.17-8.52,9.05-15.97,19.09-24.1,28.52-3.82,4.43-5.9,9.16-5.18,15.04.78,6.28-1.12,11.88-4.69,16.94-2.4,3.39-4.96,6.67-7.59,9.89-8.99,11.01-16.06,22.72-17.07,37.52-.42,6.22-2.13,12.53-4.31,18.41-3.2,8.65-4.06,17.36-3.83,26.47.26,10.3.32,20.68-.7,30.91-.66,6.68-3.39,13.16-5.19,19.73-.68.05-1.35.1-2.03.14-.81-1.61-1.61-3.22-2.49-4.97-4.36,5.41-4.21,8.97-.48,12.23,2,1.75,4.53,3.22,5.81,5.42,2.01,3.47,3.73,7.34,4.41,11.24.26,1.5-2.36,4.16-4.26,5.1-.99.49-3.44-1.36-4.91-2.55-3.57-2.87-6.55-6.76-10.51-8.81-8.79-4.55-12.26-11.2-10.84-20.83.18-1.21-.7-2.57-1.09-3.86-1.09.85-2.57,1.47-3.2,2.57-3.12,5.44-1.81,13.98,3.04,19.56,3.17,3.64,6.8,6.88,9.89,10.57,1.17,1.39,1.42,3.56,2.08,5.37-.79.42-1.58.84-2.37,1.26-6.16-7.49-12.44-14.89-18.42-22.52-2.07-2.64-3.63-5.5-8.34-5.07.93,7.14,4.45,12.75,8.52,17.91,6.24,7.92,11.45,16.29,14.82,25.87,1.3,3.7,3.42,7.34,5.98,10.3,3,3.46,6.89,6.13,11.33,9.95.46-4.65.73-7.37,1-10.08.41-.08.82-.15,1.24-.23,1.08,3.16,2.2,6.31,3.22,9.5.91,2.84,2.68,3.69,5.35,2.44,7.4-3.48,13-8.71,9.08-18.04-.73-1.74-.94-3.7-1.38-5.55.46-.13.92-.25,1.39-.38,1.15,2.32,2.47,4.57,3.41,6.97,4.12,10.55,8.33,21.06,12.15,31.72,19.39,54.25,56.03,92.41,107.89,116.68,26.21,12.26,53.33,17.57,82.1,12.8,19.43-3.22,36.47-12.25,53.39-21.73,32.61-18.28,58.13-43.59,74.6-77.12,8.78-17.88,15.32-36.87,22.82-55.38,1.76-4.35,3.28-8.8,5.11-13.73,5.67,8.81,14.36,10.52,22.88,5.01,6.66-4.3,11-10.49,13.98-17.78,3.58-8.78,7.52-17.41,11.02-26.22,2.08-5.24,3.72-10.68,5.29-16.1.47-1.62.07-3.49.07-5.25-.44-.03-.88-.06-1.32-.1-3.03,5.66-5.8,11.47-9.16,16.93-3.43,5.58-8.01,10.08-14.67,11.88.73-2.02,1.99-3.48,3.19-4.98,2.69-3.38,6.15-6.44,7.79-10.27,1.52-3.54,1.33-7.92,1.33-11.93,0-.96-2.23-1.92-3.43-2.87-.66,1.31-1.51,2.55-1.96,3.93-1.35,4.14-1.54,9.11-4.03,12.32-3.89,5.01-8.02,9.39-9.45,16.02-.5,2.3-4.74,3.79-7.27,5.64-1.12-2.4-3.36-4.92-3.11-7.17.41-3.8,2.17-7.54,3.79-11.11,1.09-2.39,3.61-4.25,4.26-6.67.8-2.99,1.01-6.51.18-9.43-.56-1.96-3.35-3.29-5.15-4.9-1.22,1.78-2.94,3.41-3.58,5.38-2.37,7.27-4.38,14.65-6.53,21.99,1.21-8.98,3.48-17.68,5.21-26.47,3.36-17.07,5.25-34.33,2.41-51.64-1.59-9.66-5.42-19-6.56-28.68-1.81-15.38-6.85-29.11-16.59-41.07-7.08-8.7-11.53-18.15-10.6-29.77.41-5.11-2.23-8.89-7.16-10.89-2.62-1.06-5.06-2.7-7.75-3.43-13.26-3.61-23.11-11.67-30.15-23.16-4.18-6.82-9.68-11.1-17.62-12.59-13.12-2.45-23.5-8.77-29.58-21.31-2.68-5.52-7.69-8.6-13.71-9.93-4.55-1.01-9.1-2.03-13.64-3.1-21.71-5.12-35.07-18.7-40.66-40.16-.36-1.4-.96-2.73-1.88-5.31ZM690.27,525.25c.47-.28.94-.55,1.4-.83,8.88,7.54,17.9,14.92,26.59,22.67,8.32,7.42,17.01,14.61,24.28,22.98,19.56,22.51,25.85,48.65,19.08,77.82-.32,1.37-.46,2.78-.9,5.53,7.13-5.1,10.25-11.25,11.4-18.19,4.19-25.23-1.96-48.26-17.64-68.05-8.71-11-19.35-20.62-29.89-30-23.77-21.15-42.48-45.44-50.91-76.7-1.39-5.14-3.11-10.2-4.98-15.18-1.42-3.78-6.72-5.28-11.69-3.4-3.98,1.5-1.63,4.6-1.09,6.77,4.59,18.46,9.78,36.71,20.28,52.92.61.95.95,2.08,1.42,3.12-3.57-2.84-6.57-6-8.89-9.59-8.88-13.69-17.5-27.52-21.82-43.53-.46-1.69-2.1-3.06-3.19-4.58-1.23,1.64-3.43,3.25-3.5,4.93-.19,5.25-.44,10.76.89,15.75,6.07,22.69,17.5,42.73,31.67,61.3,2.45,3.21,4.86,6.46,7.29,9.7-2.06-.29-3.36-1.23-4.6-2.24-19.72-16.05-33.7-36.2-42.99-59.77-.6-1.52-2.5-2.52-3.8-3.76-.17,1.65-.78,3.38-.46,4.93,5.57,26.77,18.08,49.61,38.95,67.53,6.44,5.53,13.52,10.33,19.83,16,7.16,6.43,14.65,12.78,20.48,20.34,13.29,17.24,20.84,36.39,14.46,59.02,2.03.83,3.84,1.59,5.66,2.32,11.54,4.57,11.84,4.46,13.59-8.05,2.99-21.35-3.08-40.72-14.3-58.45-6.21-9.81-14.14-18.5-20.96-27.95-5.48-7.6-10.46-15.56-15.66-23.36ZM704.03,696.27c-.34.18-.68.37-1.02.55-3.93-6.07-7.1-12.86-11.96-18.06-10.08-10.79-20.56-21.35-31.81-30.89-14.21-12.05-27.63-24.55-37.12-40.79-1.15-1.97-2.61-3.77-3.92-5.66-.22,2.54.32,4.72,1.07,6.82,7.1,19.86,21.61,33.57,37.81,46.03,9.09,6.99,18.29,14.06,26.22,22.27,11.66,12.06,19.55,26.49,21.5,43.58,1.9,16.71-5.45,30.6-19.3,35.76-3.68,1.37-7.78,1.62-11.68,2.39,2.12,1.03,4.51,2,6.52,1.49,5.9-1.5,12.26-2.59,17.35-5.65,14.71-8.84,18.44-23.51,17.73-39.35-1-22.17-9.77-41.61-23.06-59.12-2.64-3.47-5.42-6.84-8.13-10.25,2.17.37,3.43,1.63,4.84,2.67,8.72,6.38,17.29,12.97,26.26,18.97,6.63,4.43,13.86,7.97,20.7,12.09,25.53,15.41,40.37,37.22,40.43,67.85,0,1.82.59,3.63.9,5.45.43.08.86.16,1.28.23.93-1.43,2.34-2.76,2.7-4.32,1.11-4.85,2.45-9.77,2.58-14.69.69-26.96-11.29-47.69-33.18-62.37-12.66-8.49-26.38-15.49-39.94-22.55-35.44-18.43-61.92-44.56-73.91-83.69-1.94-6.34-4.42-12.62-7.5-18.49-2.61-4.97-6.43-9.29-9.72-13.9-.39.28-.78.55-1.17.83,3.78,9.48,7.55,18.95,11.33,28.43-.35.13-.7.27-1.06.4-4.62-9.67-9.24-19.33-13.86-29-.5.2-1.01.39-1.51.59,2.06,8.69,4.12,17.37,6.17,26.06-1.59-2.97-2.76-6.07-4-9.14-1.2-2.96-2.47-5.89-3.71-8.83-.86,1.09-.93,1.92-.85,2.72.34,3.14.74,6.28,1.11,9.42,4.47,38.26,19.44,70.62,51.56,93.82,11.36,8.21,21.37,18.14,29.3,29.83,4.02,5.93,7.39,12.32,11.05,18.5ZM150.43,205.95l1.13.95c1.29-1.48,2.55-2.98,3.86-4.44,7.7-8.53,15.28-17.17,23.15-25.54,18.89-20.11,40.29-37.32,65.43-48.59,42.39-19.01,86.9-30.86,133.41-34.22,27.99-2.02,56.07-2.39,83.73,2.75,21.09,3.92,41.96,9.28,62.68,14.9,33.78,9.16,64.67,24.18,89.63,49.28,12.54,12.61,23.84,26.44,35.67,39.75.81.91,1.29,2.11,1.92,3.17-6.98-7.03-15.19-10.87-24.79-12.93-6.68-1.43-12.92-4.87-19.37-7.37-2.57-1-5.18-1.87-7.77-2.8-.24.48-.48.96-.73,1.43,1.33,1.39,2.58,2.87,3.99,4.17,6.79,6.28,15.07,9.49,23.78,12.17,8.4,2.59,16.54,6.05,24.75,9.23,2.33.9,4.54,2.12,7.38,3.47-2.42-4.14-4.73-7.43-6.39-11.03-10.68-23.07-27.44-41.45-46.58-57.37-19.9-16.56-42.31-29.16-67.23-37.3-44.47-14.53-89.76-21.73-136.67-20.23-32.28,1.03-64.01,4.24-95.46,11.97-45.51,11.19-86.77,29.98-120.81,62.9-13.91,13.45-25.87,28.4-34.73,45.67ZM201.96,544.91c-.23-.14-.45-.28-.68-.42-.96,1.43-2.04,2.8-2.86,4.3-3.16,5.86-6.69,11.58-9.27,17.69-11.71,27.73-29.09,51.35-50.03,72.83-8.03,8.24-14.37,18.32-20.55,28.14-10.16,16.15-15.35,33.92-14.39,53.18.76,15.37,7.31,27.86,19.47,37.28,8.8,6.82,23.04,8.26,30.67,3.13-2.93.2-5.53.46-8.13.55-13.85.46-24.77-5.64-29.26-18.74-2.73-7.94-4.18-17.11-3.24-25.39,3.24-28.59,17.05-51.79,39.29-69.98.42-.34,1.02-.45,1.54-.66-9.41,9.99-19.18,19.4-26.27,32.12,1.14-.55,1.58-.67,1.9-.93,11.86-9.4,23.77-18.76,35.55-28.26,8.8-7.09,18.05-13.78,26.04-21.71,17.55-17.42,27.12-38.49,26.04-63.71-.05-1.15-.39-2.29-.6-3.43-.35,0-.69,0-1.04,0-.85,3.63-1.71,7.26-2.56,10.9-.45-.05-.9-.1-1.36-.16-.73-6.41-1.46-12.81-2.19-19.22-.3,0-.6,0-.9,0-3.23,14.52-6.46,29.04-9.69,43.57-.22-7.65.03-15.14,1.02-22.54,1-7.51,2.73-14.92,4.14-22.38-.22-.08-.45-.17-.67-.25-3.6,9.57-7.2,19.13-10.8,28.7l-1.36-.48c3.39-11.37,6.77-22.74,10.16-34.1ZM567.66,64.45c-.16-2.37.02-3.3-.31-3.97-4.27-8.76-7.57-18.23-13.15-26.08-12.9-18.15-33.12-32.44-63.06-22.87-1.73.55-3.87-.16-5.81-.34-9.39-.87-18.79-2.6-28.16-2.41-9.23.19-17.59,4.08-24.13,11.23,10.33-3.76,20.85-5.47,31.73-4.33-4.7,2.35-9.56,4.08-14.2,6.27-4.56,2.15-9.56,3.83-13.9,9.08,16.87-2.83,32.19-5.55,47.59-1.26-11.73,1.77-23.54,2.85-33.98,9.24,7.15-.33,14.31-.66,21.46-.99,0,.34,0,.69.01,1.03-4.33.61-8.66,1.22-12.99,1.83,26.94,7.89,54.65,12.96,78.97,28.02-13.37-18.91-33.89-24.47-54.76-29.95,25.38-1.14,47.77,6.76,68.44,20.75-7.16-13.15-19.02-20.88-30.73-28.79,21.03,2.74,32.9,18.51,46.99,33.54ZM141.8,536.68c.49.08.99.17,1.48.25,0,7.09-.27,14.2.06,21.27.54,11.7,2.19,17.6,5.2,20.56.19-.48.49-.91.5-1.34.28-16.74,5.47-32.41,10.24-48.22,3.61-11.94,6.66-24.05,9.79-36.13.37-1.42.2-3.47-.61-4.6-3-4.22-6.36-8.17-9.57-12.2-7.31,12.27-14.81,24.46-21.92,36.88-9.04,15.78-17.63,31.78-20.26,50.2-2.03,14.23-2.39,28.32,4.06,41.63,3.8,7.85,8.74,14.97,16.54,19.54,3.14,1.84,5.75,1.44,8.31-1.38,2.6-2.87.41-4.78-.73-7.09-3.37-6.83-7.73-13.41-9.72-20.64-4.76-17.24-2-34.36,3.39-51.11.84-2.61,2.15-5.08,3.24-7.61ZM426.43,104.12c8.6,11.69,21.68,15.05,33.45,20.55-14.58.49-27.39-3.84-38.68-13.34.56,9.17,8.82,12.49,13.76,18.2-.32.31-.64.62-.96.92-5.17-4.64-10.34-9.29-15.51-13.93-.44.25-.87.51-1.31.76,1.5,2.94,2.54,6.27,4.6,8.75,5.93,7.14,13.73,11.49,22.76,13.58,12.08,2.79,24.28,2.02,36.27.06,17.57-2.87,34.21-2.65,48.72,9.47.07.06.28-.03,1.48-.18-10.77-23.84-32.15-29.13-54.33-33.24h23.58c-16.53-9.37-62.45-17.2-73.84-11.61ZM315.3,115.3c6.99-.62,12.71-1.12,18.43-1.63.06.49.12.97.17,1.46-3.66.81-7.32,1.63-10.98,2.44-14.32,3.17-27.12,9.19-36.92,20.41-1.94,2.22-2.91,5.27-4.33,7.94.44.25.89.49,1.33.74.57-.3,1.2-.52,1.7-.91,11.7-9.28,25-10.49,39.28-8.54,10.19,1.39,20.54,2.35,30.81,2.21,11.66-.16,21.53-5.42,29.34-14.4-3.14.87-6.29,1.75-9.43,2.62-.17-.42-.34-.83-.51-1.25,1.26-.98,2.65-1.83,3.74-2.97,3.99-4.18,8.05-8.32,11.74-12.75,1.88-2.26,2.51-5.1-1.06-8.27-14.72,11.31-29.63,23.2-49.87,22.83,14.43-4.71,27.36-11.95,38.55-22.39-21.13.08-41.78,1.89-61.99,12.45ZM419.07,80.31c21.56,2.39,43.68,3.93,65.47,7.53,18.01,2.98,35.59,8.51,53.42,12.63,2.99.69,6.31-.05,9.47-.12-1.05-3.02-1.52-6.42-3.24-8.98-7.34-10.91-18.74-16.49-30.55-20.51-13.19-4.49-26.76-8.23-40.44-10.86-12.19-2.34-24.75-2.75-37.16-3.94-3.7-.36-4.85,1.65-4.74,5.16.22,7.21,3.61,10.95,11.82,12.27,11.01,1.76,22.02,3.45,33.05,5.08,11.69,1.73,23.38,3.46,35.11,4.89,1.37.17,2.98-1.53,4.47-2.36-1.32-.88-2.55-2-3.99-2.56-1.55-.61-3.31-.7-5.31-1.08,2.69-3.55,5.72-4.02,10.2-1.11,1.93,1.25,4.27,4.25,3.95,5.99-.44,2.4-2.85,5.11-5.14,6.29-2.1,1.09-5.24.77-7.78.31-21.78-3.93-43.5-8.19-65.3-12.03-10.17-1.79-11.12-2.26-13.6-11.65-3.34,5.17-6.82,10.55-9.72,15.04ZM375.44,55.67c-1.41,0-2.88-.11-4.32.02-22.82,1.97-45.19,6.12-66.75,14.03-14.83,5.45-29.86,10.6-41.37,22.26-2.58,2.61-5.92,5.22-3.77,9.36,2.3,4.44,6.16,1.81,9.3,1.01,31.47-7.98,62.98-15.8,95.39-19.01,8.66-.86,17.37-1.26,26-1.87-4.15-4.61-8.03-8.93-12.05-13.41-3.26,5.47-8.46,8.73-14.92,10.14-18.21,3.99-36.37,8.22-54.64,11.86-3.84.76-8.22-.14-12.11-1.18-1.52-.41-3.59-3.63-3.24-5.05.57-2.33,2.51-4.87,4.6-6.12,1.65-.99,4.38-.2,6.63-.2.18.44.36.89.54,1.33l-6.67,4.44c.05.55.09,1.1.14,1.65,2.73.06,5.55.59,8.19.11,15.71-2.87,31.39-5.96,47.07-9,4.24-.82,8.6-1.35,12.68-2.71,8.72-2.91,11.34-8.12,9.32-17.66ZM322.66,18.89c16.66-.69,32.73,2.69,49.83,7.31-23.52-27.51-92.34-21.07-115.23,10.33,1.89-1.34,2.97-1.99,3.92-2.79,10.74-9,23.18-14.23,36.89-16.52,2.7-.45,5.54-.06,8.31-.06-.25,1.86-.48,2.35-.86,2.54-2.09,1.01-4.19,2.04-6.35,2.9-20.38,8.1-34.87,22.23-43.35,42.45-.89,2.13-1.18,4.51-1.75,6.77.48.52.95,1.04,1.43,1.57,26.76-33.01,61.05-46.27,103.18-39.88-5.61-6.8-19.34-12.08-36.02-14.61ZM210.95,748.05c37.58-14.54,49.98-69.98,22.62-99.09-.82-.87-2.25-1.81-3.29-1.71-4.62.48-9.37,8.07-8.17,12.62,5.53,20.85,7,41.76-.27,62.47-3.02,8.59-7.08,16.81-10.89,25.71ZM189.2,353.5c-5.53,1.95-10.15,3.66-14.82,5.21-12.17,4.03-24.82,4.25-37.46,5.04-6.26.39-13.15,1.9-18.41,5.1-18.61,11.31-26.94,28.75-27.05,50.3,0,1.28.45,2.56.69,3.84.42,0,.84-.01,1.27-.02.59-2.02,1.15-4.04,1.77-6.04,1.86-6.03,3.29-12.25,5.72-18.04,5.62-13.37,16.84-19.25,31.03-16.8,3.44.59,6.85,1.41,10.27,2.1,21.9,4.44,38.59-2.38,50.86-20.87,1.59-2.4,2.81-5.05,3.92-7.07-6.68,5.55-13.12,11.81-20.46,16.75-7.55,5.08-18.56,6.51-25.55,4.9,15.92-2.76,28.62-10.25,38.23-24.39ZM587.7,646.84c-12.05,30.04-.28,79.3,22.55,94.28-8.71-17.25-12.44-28.51-11.58-34.93,5.24,22.44,15.51,37.15,26.82,39.61-9.87-11.59-14.66-24.88-16.71-38.99-1.43-9.84-1.22-19.9-1.94-29.85-.24-3.38-.04-7.5-1.85-9.94-5.21-7.02-11.34-13.36-17.29-20.17ZM158.42,329.9c8.89-4.93,18.62-8.55,25.1-17.09-10.02,4.53-20.45,4.25-30.95,3.63-3.15-.19-6.33-.06-9.48.17-11.43.83-25.32,14.9-23.34,24.37,11.03-4.58,15.27-4.67,26.94-.7,4.25,1.45,8.53,2.81,12.81,4.16,17.43,5.5,34.05-5.34,40.81-16.74,1.22-2.06,2.12-4.32,3.16-6.48-7.76,9.06-15.9,16.99-27.67,20.05,13.88-7.43,20.62-14.69,18.14-21.05-10.72,7.22-22.33,11.32-35.53,9.69ZM605.13,540.37c-5.75,22.36-3.18,44.59.42,66.83-6.69-22.33-9.07-45.07-6.93-68.3-10.76,20.5-12.71,41.67-4.99,63.63-9.18-21.98-5.64-43.55,1.81-65.14-1.47,1.61-2.68,3.32-3.57,5.17-6.94,14.51-9.34,29.73-7.08,45.7,1.75,12.4,7.74,22.54,16.39,31.28,1.76,1.77,3.93,4.21,5.48-.16,1.84-5.17,4-10.31,5.03-15.66,4.2-21.73-1.37-42.53-6.56-63.36ZM188.33,740.9c.33.32.65.64.98.96,24.84-8.23,41.1-51.53,27.27-72.63-9.33,3.52-10.09,4.69-10.29,14.24-.07,3.15-.62,6.29-.95,9.43-.55-.02-1.11-.05-1.66-.07-.23-3.56-.43-7.12-.71-10.67-.19-2.47-.56-4.52-4.05-4.26-3.04.23-4.48,1.13-4.56,4.41-.2,7.49-.57,14.99-1.13,22.46-.77,10.19-2.14,20.27-8.4,28.86-2.47,3.39-5.13,6.63-8.02,10.34,9.84-1.54,15.35-9.25,22.53-14.18.29.34.59.67.88,1.01-3.96,3.37-7.93,6.74-11.89,10.11ZM529.87,129.46c-.43.5-.86,1.01-1.29,1.51,6.04,7.19,11.37,15.2,18.36,21.31,5.28,4.62,12.37,8.45,19.2,9.74,12.09,2.28,24.59,2.35,37.7,3.42-5.79-3.32-11.33-6.5-16.87-9.68,8.24-.13,13.98,5.03,20.22,9.3-.32-1.09-.86-1.88-1.42-2.66-7.28-10.17-17.92-16.2-28.1-22.81-14.82-9.62-30.72-16.6-48.22-19.47-3.53-.58-7.25-.08-10.88-.08-.09.62-.18,1.24-.27,1.86,4.2,1.25,8.41,2.44,12.58,3.77,9.46,3.01,19.09,5.63,28.26,9.37,3.72,1.52,6.84,5.22,9.37,8.59,1.04,1.39.55,5.08-.66,6.63-.98,1.26-4.17,1.47-6.18,1.09-2-.38-3.74-2.08-5.42-3.1,2.58-1.1,4.66-2,6.74-2.89-1.43-2.13-2.39-4.95-4.36-6.28-8.66-5.88-18.17-9.57-28.78-9.61ZM678.26,306.57c.78-1.98,1.3-2.86,1.48-3.8,3.51-18.35-9.61-46.19-31.88-49.05-7.96-1.02-16.25-.28-24.32.45-9.72.89-19.27,1.57-28.5-2.47-1.75-.77-3.49-1.56-5.53-2.47-.05,1.13-.25,1.68-.07,2.05.51,1.04,1.08,2.08,1.78,3,9.72,12.77,22.23,19.79,38.68,18.81,7.14-.43,14.33-1.07,21.45-.75,13.09.59,19.68,5.89,23.55,18.48,1.45,4.7,2.09,9.65,3.36,15.75ZM222.38,154.56c.15.49.29.97.44,1.46-5.07,2.99-10.15,5.99-15.22,8.98,34.2,3.71,63.84-10.58,73.46-34.08-15.03-1.48-29.86,4.8-34.3,15.73,1.89-1.42,3.78-2.85,5.99-4.51,1.17,2.49,3.72,5.31.16,7.17-2.36,1.23-5.9.87-8.66.2-.64-.16-1.09-4.87-.19-6.83,2.53-5.55,7.26-9.38,13.05-10.83,8.65-2.17,17.54-3.4,26.3-5.15,2.37-.48,4.65-1.42,6.97-2.16-.18-.46-.36-.92-.54-1.39-23.21-5.64-67.23,20.76-87.79,39.59,6.07-2.44,13.2-5.31,20.33-8.18ZM492.71,167c-.2.4-.39.8-.59,1.21,6.58,5.69,13.16,11.38,19.73,17.07-.18.23-.37.46-.55.69-7.85-4.36-15.71-8.73-23.56-13.09-.24.43-.48.86-.72,1.3,5.28,6.68,11.19,12.84,20.03,14.25,7.83,1.25,15.89,2.35,23.73,1.81,13.07-.9,26.05-3.16,39.06-4.88.22-.03.39-.45.57-.68-5.61-10.03-53.05-23.31-70.09-19.63,1.88,1.44,3.8,2.91,6.54,5.01-5.57-1.2-9.87-2.13-14.17-3.06ZM703.18,391.62c3.15-14.19-6.99-27.59-20.66-28.86-4.93-.46-9.98.48-14.94.19-5.9-.35-12.27-.12-17.53-2.33-7.39-3.1-13.93-8.22-20.22-12.09,3.01,9.85,10.69,17.5,19.22,24.61-7.49-1.72-8.92-3.04-27.7-25.12,2.39,8.31,5.88,16.05,11.75,22.6,7.89,8.8,17.65,12.89,29.45,11.31,4.1-.55,8.15-1.65,12.16-2.71,13.59-3.58,19.17-1.65,27.34,9.68.37.52.51,1.21,1.13,2.71ZM621.19,314.59l-1.19.85c1.91,3.67,3.54,7.52,5.77,10.98,9.9,15.32,24.7,20.14,41.18,13.09,9.15-3.92,17.87-4.97,26.63.63.44.28,1.11.22,1.82.34-2.99-14.41-14.72-23.88-28.73-24.03-11.27-.12-23.16,3.47-33.21-5.26,6.45,10.58,17.22,13.67,27.88,17.04-16.32,4.04-28.94-2.68-40.15-13.65ZM382.16,53.69c1.1,4.49,1.43,9.36,3.43,13.4,5.95,12,14.07,16.92,26.04,12.26,7-2.73,10.8-8.62,13-15.48,3.69-11.5-5.19-32.49-16.07-37.98-1.43-.72-3.59-.82-5.15-.35-10.82,3.25-20.64,16.72-21.25,28.15ZM112.21,833.82c.61.22,1.22.45,1.84.67,1.76-1.87,3.73-3.59,5.26-5.64,7.4-9.92,17.29-15.31,29.48-16.88,7.43-.95,14.79-2.59,22.23-3.21,10.73-.9,21.52-1.16,32.28-1.66,1.86-.09,3.72-.01,5.59-.01.14-.56.27-1.13.41-1.69-4.87-1.87-9.59-4.44-14.63-5.48-18.5-3.83-37.13-3.91-55.45.94-11.44,3.03-20.37,9.95-24.84,21.32-1.42,3.61-1.48,7.75-2.16,11.65ZM140.28,281.34c8.55-9.21,18.44-10.06,28.9-8.99,3.64.37,7.3.58,10.96.62,13.96.15,26.23-3.93,35.72-14.68,1.1-1.25,1.98-2.7,3.79-5.19-2.85,0-4.24-.07-5.61.01-8.74.53-17.47,1.24-26.21,1.58-6.29.25-12.68-.6-18.9.13-13.8,1.63-26.14,12.91-28.65,26.5ZM272.99,185.74c15.4-1.29,27.25-9.32,38.38-19.27-3.23-.65-6.44-1.13-9.46-.57-16.16,3.04-32.31,6.13-48.36,9.71-3.73.83-7.02,3.66-10.51,5.57.14.73.27,1.46.41,2.19,13.23,2.12,26.42,4.56,39.71,6.18,4.8.59,10.33.33,14.68-1.53,9.59-4.08,18.64-9.42,27.9-14.29.11-.06-.02-.57-.05-.93-8.8-1.69-16.51,1.23-23.45,6.16-8.89,6.32-18.61,8.41-29.27,6.74ZM391.23,127.15c-1.14.47-1.49.54-1.75.73-1.33,1-2.64,2.03-3.94,3.07-11.61,9.24-24.95,13.11-39.62,12.27-6.97-.4-13.91-1.43-20.85-2.24-8.75-1.02-17.31-.58-25.36,3.42-6.22,3.09-10.5,8.1-13.9,14.2,9.31-5.66,19.23-7.46,29.75-6.53,7.3.65,14.58,1.6,21.89,1.94,15.29.72,29.95-1.49,42.65-10.89,5.26-3.89,9.65-8.55,11.13-15.98ZM565.02,112.28c-1.97-12.73-8.36-22.11-16.32-30.17-11.73-11.9-27.06-17.99-42.49-23.31-23.76-8.2-48.45-11.75-73.46-13.3-1.22-.08-2.45.14-3.7.22.34,4.78,2.33,6.69,7.01,6.75,27.78.37,54.36,6.96,80.4,16.1,11.46,4.02,21.85,9.84,30.04,19.04,5,5.62,9.52,11.43,4.12,19.56,4.87,1.73,9.23,3.27,14.4,5.11ZM651.7,745.22c-4.18-6.1-8.7-11.48-11.86-17.58-5.53-10.69-9.43-22.06-10.16-34.24-.23-3.79-2.07-5.69-5.25-7.62-2.86-1.74-4.8-5.04-7.05-7.73-.99-1.18-1.77-2.53-2.87-4.13-10.24,23.47,15.59,72.64,37.19,71.29ZM258.07,107.94c-5.73-6.74-5.6-13.06,1.37-19.26,4.31-3.83,9.19-7.21,14.25-9.99,17.2-9.45,35.69-15.69,54.75-19.95,14.28-3.19,28.82-5.21,43.26-7.68,3.04-.52,5.66-1.16,4.65-5.87-4.19.46-8.42.99-12.66,1.38-37.37,3.48-71.47,16.67-103.68,35.23-4.04,2.33-7.86,5.87-10.45,9.75-5.55,8.31-10.23,17.21-14.53,24.6,6.4-2.28,14.58-5.19,23.05-8.21ZM205.06,134.23c7.55-9.14,15.11-16.92,21.02-25.81,6.01-9.04,9.32-19.46,9.72-30.97-24.14,7.76-43.62,37.75-42.03,64.1,4.85-17.91,13.93-33.16,27.99-45.33-9.35,10.67-15.15,22.85-16.69,38.01ZM620.71,149.51c.87-.95,1.79-1.86,2.61-2.85,10.42-12.56,9.34-27.21,7.25-41.87-1.09-7.63-3.83-8.52-9.74-3.21-8.02,7.2-13.9,16.07-17.97,26.06-2.39,5.85-1.51,7.88,4.32,11.17,3.22-6.11,6.45-12.23,9.68-18.35.33.17.65.34.98.51-1.64,6.2-3.28,12.39-4.92,18.59l1.57.49c2.97-7.35,5.95-14.7,8.92-22.05.45.16.9.32,1.35.48-2.35,7.21-4.6,14.46-7.08,21.62-1.34,3.88-1.39,7.12,3.04,9.41ZM428.77,145.72c3.31,6.13,9.14,9.09,15.35,9.64,8.7.77,17.55.31,26.3-.24,6.62-.42,13.16-2.05,19.78-2.69,12.96-1.25,25.42.56,36.91,7.49-4.43-11.15-13.29-15.6-24.21-17.43-12.54-2.09-24.47,1.23-36.56,3.5-12.44,2.34-24.93,4.88-37.57-.28ZM551.76,200.13c-.27.52-.53,1.05-.8,1.57,3.98,1.65,7.96,3.31,11.94,4.96l-.07.93c-8.22-.81-16.44-1.62-24.66-2.43-.47.45-.94.9-1.41,1.36,1.6.91,3.38,1.59,4.77,2.75,9.44,7.92,20.41,10.02,31.92,6.95,9.89-2.64,19.39-6.77,30.3-10.68-16.92-12.79-34.64-7.34-51.98-5.4ZM228.73,263.31c-1.21.06-1.56-.02-1.81.11-.74.38-1.48.78-2.14,1.27-9.01,6.66-19.13,10.57-30.11,12.6-8.34,1.54-16.63,3.34-24.9,5.23-2.07.47-3.94,1.78-6.5,2.98,26.45,15.09,60.55,7.65,68.61-14.17-25.53,18.26-41.88,23.58-54.37,17.23,10.52.41,20.49,1.03,29.77-4.03,9.1-4.96,15.98-11.88,21.45-21.21ZM149.25,434.46c-.54.59-1.15,1.13-1.6,1.78-6.86,9.92-15.97,17.16-26.28,23.27-6.54,3.88-12.76,8.45-18.6,13.34-9.84,8.25-16.38,18.78-18.86,31.49-1.53,7.83-1.31,15.66,1.81,24.31,4.08-31.34,10.6-42.39,34.71-59.5,4.2-2.98,8.59-5.7,12.79-8.69,8.91-6.34,13.66-15.43,16.03-26.01ZM640.69,111.87l1.49-.38c.54-4.67,1.08-9.33,1.62-14,.36-.04.72-.08,1.07-.12,1.04,3,2.09,6,3.27,9.39.29-.83.57-1.24.57-1.66-.03-24.13-21.11-50.45-44.57-55.16-4.44-.89-9.21-.13-13.83-.13l-.44,1.74c29.13,9.79,46.49,29.54,50.82,60.31ZM173.22,514.18c-.64.05-1.27.1-1.91.15-.86,2.25-1.8,4.47-2.58,6.74-6.5,18.98-9.15,38.46-7.16,58.47.17,1.66,1.83,4.64,2.42,4.54,2.22-.35,4.42-1.51,6.36-2.77.8-.52,1.13-2.03,1.33-3.15.78-4.41,1.76-8.82,2.04-13.26.84-13.6,1.57-27.21,1.9-40.82.08-3.28-1.54-6.6-2.38-9.91ZM646.42,288.01c.13-.51.27-1.02.4-1.53-1.59-1.21-3.01-2.85-4.79-3.54-3.55-1.38-7.24-2.67-10.99-3.22-15.44-2.27-30.29-5.97-42.96-15.92,4.43,10.54,12.67,17.11,22.25,22.43-12.47-1.6-20.3-10.15-28.31-18.54,4.04,12.8,13.2,20.22,25.69,23.8,9.8,2.8,19.5.11,29.17-1.42,3.21-.51,6.36-1.36,9.53-2.05ZM596.02,118.96c4.47-13.59-14.66-43.9-28.63-43.97-2.12,23.24,7.05,42.71,23.36,47.64-4.54-10.45-8.79-20.26-13.05-30.06.36-.21.72-.41,1.08-.62,5.85,9.17,11.71,18.35,17.23,27ZM230.02,615.93c-.03-18.6,8.36-36.88.71-55.82-2.57,2.64-5.43,5.32-6.14,8.47-1.67,7.43-2.72,15.07-3.26,22.67-.5,7.09-.49,14.29.22,21.36.42,4.2,2.6,8.22,4.11,12.67,6.96-4.96,10.77-15.85,9.69-26.73-1.98,6.46-3.65,11.92-5.33,17.38ZM96.33,865.42c16.18.78,30.65-1.47,43.51-10.59,6.22-4.41,10.53-10.37,12.84-17.41,1.1-3.37.57-7.47,0-11.12-.46-2.94-2.57-3.33-4.52-.81-.91,1.18-1.55,2.56-2.27,3.87-6.46,11.66-15.21,21.08-27.38,26.82-6.88,3.25-14.05,5.88-22.17,9.24ZM249.42,201.65c.01-.47.02-.95.03-1.42-1.36-.43-2.71-1.22-4.07-1.24-6.82-.09-13.74-.67-20.42.29-4.75.69-9.26,3.42-13.7,5.59-.76.37-.97,2.52-.84,3.79.08.76,1.2,1.8,2.04,2.03,5.78,1.58,11.57,3.14,17.42,4.41,10.51,2.29,20.24.66,28.53-6.61,1.52-1.33,2.45-3.33,3.65-5.03-.34-.32-.67-.63-1.01-.95-8.53,2.65-17.06,5.31-26.89,2.49,5.63-1.24,10.44-2.3,15.26-3.36ZM85.07,543.64c-1.44,1.11-2.24,1.69-2.98,2.32-6.48,5.55-13.24,10.08-22.53,8.24-2.97-.59-4.01,1.69-4.02,4.4-.02,5.43,3.65,10.76,8.85,12.8,9.38,3.68,17.23.36,20.94-9.09,2.33-5.95,3.72-12.03-.26-18.67ZM531.01,210.92c-.19.3-.38.61-.56.91.39.68.68,1.42,1.17,2.02,12.34,15.17,30.52,20.09,48.44,12.59,9.92-4.15,19.38-9.54,31.94-8.32-5.15-5.02-9.95-6.45-15.46-5-4.98,1.31-9.96,2.69-14.78,4.48-14.24,5.26-27.99,4.54-41.44-2.57-2.99-1.58-6.19-2.75-9.3-4.1ZM100.79,633.41c-1.14-7.46-2.07-13.59-3-19.72,4.68,10.68,9.69,20.73,20.27,27.11-4.16-10.63-9.78-20.59-11.75-31.23-2.01-10.84-.45-22.34-.45-33.69-12.11,15.65-15.62,47.84-5.07,57.53ZM169.48,109.02c-1.38,3.9-2.86,7.16-3.67,10.58-2.97,12.52-4.33,25.02,3.04,36.66.84,1.32,2.91,1.87,4.41,2.77.15-1.79.73-3.67.37-5.34-1.19-5.43-2.72-10.78-4.12-16.17.39-.12.79-.23,1.18-.35,1.73,3.66,3.46,7.31,5.19,10.97.3-.12.61-.24.91-.36-1.08-3.18-2.16-6.36-3.23-9.55.24-.1.47-.21.71-.31,2.92,4.28,5.84,8.55,9.23,13.53.78-6.1-9.27-36.27-14.02-42.43ZM276.43,66.28c12.37-4.86,24.51-10.33,37.1-14.39,12.58-4.05,25.62-6.69,38.42-9.94-29.41-6.22-59.53,3.68-75.52,24.32ZM273.45,210.67c-.23-.43-.46-.87-.69-1.3-2.08.7-4.28,1.18-6.24,2.15-15.46,7.71-31.16,10.93-48.06,4.37-5.75-2.23-11.63-.31-17.09,3.09,18.33,5.94,36.16,12.35,54.98,3.64,6.5-3.01,12.45-6.57,17.09-11.95ZM585.18,54.91c.49,5.97,1.29,11.52,5.36,15.51,6.45,6.33,13.41,12.14,20.16,18.17.15-.08.29-.16.44-.23-5.33-6.75-10.66-13.49-15.99-20.24,6.59,2.81,13.14,5.68,18.31,10.15,5.12,4.44,8.84,10.5,13.41,16.14-.56-16.17-24.41-38.89-41.68-39.5ZM213.74,869.18c-.99-.8-2.05-1.52-2.96-2.41-7.65-7.4-15.35-14.75-22.88-22.27-4.23-4.23-7.92-9.04-12.36-13.01-1.79-1.6-4.95-1.66-7.49-2.42.39,2.3.18,4.95,1.28,6.84,9.96,17.22,25.38,27.5,44.42,33.27ZM696.79,428.23c5.26,8.84,11.83,13.86,21.15,13.68,11.18-.22,19.33-5.88,23.9-16.02,1.78-3.95,3.89-8.43.42-13.11-16.58,22.52-22.8,24.71-45.47,15.45ZM145.9,220.53l.61,1.78c10.44,0,21.16,3.29,31.19-1.93,9.57-4.98,17.41-12.1,24.08-21.13-1-.2-1.18-.3-1.29-.25-.59.28-1.25.5-1.74.91-12.17,10.47-26.09,15.97-42.32,16.08-3.52.02-7.02,2.94-10.53,4.52ZM234.82,41.32c-21.92-.21-48.19,21.81-49.22,41.19,10.42-20.93,29.74-31.09,49.22-41.19ZM631.59,238.43c-14.26-10.89-29.86-12.03-37.31-3.32,11.66,6.95,24.05,6.2,37.31,3.32ZM140.33,258.1c-15.16,5.63-25.18,39.27-15.18,52.07-1.59-19.64,7.86-35.29,15.18-52.07ZM664.17,224.32c-4.41-7.94-10.57-10.02-17.5-10.03-9.55-.02-18.92-.53-27.48-5.4-.15-.09-.54.24-.81.38,5.37,10.68,11.04,13.81,22.76,12.61,7.4-.76,14.86-2.34,23.05,2.44ZM641.57,158.6c.37,5.51-3.03,10.61.98,15.66,4.22-13.62,3.93-28.64-1.19-32.88-2.94,4.67-6.02,9.14-8.65,13.86-3.07,5.51-2.29,8.02,3.42,12.46,1.7-2.84,3.38-5.64,5.45-9.1ZM207.24,179.76l-.63-1.41c-1.42.51-3.1.67-4.2,1.57-10.12,8.24-22.14,12.61-34.01,17.42-4.04,1.64-7.48,4.72-11.2,7.15,19.65-2.96,36.79-10.26,50.05-24.73ZM159.5,179.43c4.85-5.18,2.62-16.17-3.92-22.98-4.54,4.87-6.03,21.71-1.77,28.85,1.04-2.3,1.69-4.73,1.9-7.2.23-2.67.05-5.38.05-8.07.38-.02.77-.03,1.15-.05.81,2.97,1.62,5.93,2.59,9.45ZM675.93,216.73c-.74-.04-1.48-.08-2.23-.12-.27,3.37-1.31,6.9-.66,10.08,2.01,9.76,4.67,19.38,7.09,29.05.24.96.56,1.89.85,2.84,3.52-14.74.41-28.46-5.05-41.85ZM80.21,328.99c-19.2,5.12-27.37,20.96-37.71,34.5.29.31.58.62.88.94,12.1-11.64,24.21-23.28,36.84-35.43ZM668.35,222.48c2.01-5.41,3.57-9.34,4.93-13.34,1.69-4.96-.5-9.19-5.5-10.93-3.38-1.18-7.69,2.09-6.63,5.44,1.87,5.9,4.39,11.59,7.2,18.82ZM657.32,199.91c.54,0,1.08,0,1.63,0,1.31-2.49,4.29-5.66,3.61-7.35-2.07-5.15-5.41-9.83-8.62-14.44-.57-.82-3.31-1.09-4.25-.45-.99.68-1.81,3.11-1.34,4.16,2.77,6.13,5.93,12.08,8.96,18.09ZM71.59,715.43c4.05,2.71,6.28,1.94,8.03-1.85,1.81-3.92,4.08-7.63,6.22-11.38,2.33-4.07,4.74-8.09,7.12-12.13-.37-.24-.75-.49-1.12-.73-8.56,7.11-15.68,15.35-20.24,26.08ZM608.64,500.61c-2.45,4.98-4.53,8.75-6.11,12.71-.44,1.09.24,3.66,1.08,4.04,2.68,1.19,5.65,2.05,8.57,2.33,3.02.28,4.37-1.85,3.26-4.57-1.86-4.56-4.15-8.93-6.8-14.51ZM579.54,680.07c-4.16,1.67-5.78,6.53-4.8,12.47,1.55,9.42,3.54,12.82,8.18,13.01-1.13-8.5-2.24-16.89-3.38-25.48ZM718.57,258.3c-.13-.44-.26-.88-.39-1.32-12.27-.46-22.14,4.05-29.66,13.49.26.55.52,1.1.78,1.65,9.75-4.61,19.51-9.21,29.26-13.82ZM133.13,222.92l-1.83.43c-6.33,10.67-8.98,22.27-9,34.98,4.23-10.75,8.35-21,12.19-31.34.39-1.05-.87-2.7-1.36-4.08ZM136.2,219.68c2.25-4.84,4.47-9.61,7.28-15.65-3.19-.15-7.16-1.32-7.96-.2-2.97,4.14-4.89,9.04-7.25,13.73,3.32.89,5.5,1.48,7.93,2.13ZM112.92,269.31c.23-.58.46-1.16.68-1.73-11.54-5.56-23.43-9.94-36.57-9.95-.16.53-.31,1.07-.47,1.6,12.12,3.36,24.24,6.72,36.36,10.09ZM757.09,355.25c-.35.47-.71.93-1.06,1.4,8.1,5.94,16.21,11.89,24.32,17.83.28-.38.56-.75.83-1.13-5.02-10.02-13.51-15.45-24.09-18.1ZM84.83,233.6c-13.95-6.21-25.79-15.21-35.8-26.69,8.47,13.47,19.82,23.14,35.8,26.69ZM208.9,500.49c-3.42,5.26-4.3,10.61-2.12,16.27,2.66,6.92,2.6,6.94.62,13.14,1.9-.72,4.01-.88,4.44-1.81.73-1.6.83-3.77.43-5.53-.87-3.81-2.62-7.45-3.24-11.29-.57-3.51-.12-7.18-.12-10.78ZM775.09,254.41c-7.74,5.94-14.86,11.4-22.39,17.18,9.15.28,19.5-7.58,22.39-17.18ZM223.71,64.33c-.34-.4-.67-.8-1.01-1.21-9.62,3.47-16.62,9.99-22.36,19.7,8.37-6.63,15.87-12.56,23.36-18.49ZM694.97,360.62c-.53-9.45-11.13-18.07-18.21-15.65,5.86,5.04,11.82,10.15,18.21,15.65ZM635.83,695.22c-2.04,7.48.77,14.06,3.49,20.66,1.46-7.32,1.69-14.44-3.49-20.66ZM86.72,446.74c-11.48,0-18.66-4.7-23.27-14.35.6,11.88,12.74,19.9,23.27,14.35ZM601.36,521.34c1.94,3.23,3.39,7.45,7.95,6.76,3.06-.47,5.56-3.1,5.49-6.76h-13.44ZM150.8,192.87c-5.28-1.59-7.96-.04-10.62,5.79,6.47,3.2,6.78,3.04,10.62-5.79ZM762.31,246.08c-.47-.52-.94-1.05-1.41-1.57-6.81,2.32-10.37,8.17-14.51,13.39.33.37.67.75,1,1.12,4.97-4.31,9.94-8.63,14.92-12.94ZM203.9,531.63c3.11,6.47,9.47,6.32,12.5.88-4.38-.31-8.44-.59-12.5-.88ZM119.9,360.04c3.85-4.08,7.7-8.15,11.55-12.23-6.72,1.31-10.41,5.56-11.55,12.23ZM609.26,484.8c-3.86,2.89-3.61,8.81,0,15.27v-15.27ZM649.18,840.93c4.23-2.24,9.48-6.01,11.49-13.11-4.18,4.77-8.36,9.54-11.49,13.11ZM615.82,244.25c-7.37-2.11-14.44-4.15-22.46-6.45,7.05,5.79,14.12,7.83,22.46,6.45ZM580.69,751.53c.35-.24.7-.48,1.04-.72-2.05-3.01-4.09-6.02-6.14-9.03l-1.11.76c2.07,3,4.14,5.99,6.21,8.99Z"/>
  <path class="cls-1" d="M691.01,231.83c-.32.27-.64.54-.97.81.51-4.41.07-9.22,1.69-13.17,6.6-16,13.8-31.75,20.84-47.58,2.8-6.29,7.61-10.27,15.29-12.43-.78,11.5-1.35,22.72-9.15,31.17-11.42,12.37-20.89,25.83-27.7,41.19Z"/>
  <path class="cls-2" d="M406.08,123.3c.92,2.58,1.51,3.91,1.88,5.31,5.59,21.46,18.95,35.04,40.66,40.16,4.54,1.07,9.09,2.1,13.64,3.1,6.02,1.33,11.03,4.41,13.71,9.93,6.08,12.53,16.46,18.85,29.58,21.31,7.94,1.48,13.44,5.77,17.62,12.59,7.04,11.49,16.89,19.56,30.15,23.16,2.69.73,5.13,2.37,7.75,3.43,4.93,2,7.57,5.78,7.16,10.89-.93,11.61,3.52,21.06,10.6,29.77,9.74,11.96,14.78,25.69,16.59,41.07,1.14,9.68,4.97,19.02,6.56,28.68,2.84,17.3.95,34.56-2.41,51.64-1.73,8.8-4,17.49-5.21,26.47,2.15-7.34,4.16-14.72,6.53-21.99.64-1.97,2.36-3.6,3.58-5.38,1.79,1.61,4.59,2.94,5.15,4.9.83,2.93.62,6.45-.18,9.43-.65,2.43-3.17,4.29-4.26,6.67-1.63,3.57-3.38,7.31-3.79,11.11-.24,2.25,1.99,4.77,3.11,7.17,2.53-1.86,6.77-3.35,7.27-5.64,1.43-6.64,5.56-11.01,9.45-16.02,2.49-3.21,2.68-8.18,4.03-12.32.45-1.38,1.29-2.62,1.96-3.93,1.2.96,3.43,1.92,3.43,2.87,0,4.01.19,8.39-1.33,11.93-1.64,3.83-5.1,6.9-7.79,10.27-1.2,1.51-2.46,2.96-3.19,4.98,6.66-1.8,11.23-6.3,14.67-11.88,3.36-5.46,6.13-11.27,9.16-16.93.44.03.88.06,1.32.1,0,1.76.4,3.63-.07,5.25-1.58,5.42-3.21,10.85-5.29,16.1-3.49,8.81-7.43,17.44-11.02,26.22-2.98,7.29-7.32,13.48-13.98,17.78-8.52,5.51-17.21,3.8-22.88-5.01-1.82,4.92-3.35,9.37-5.11,13.73-7.49,18.51-14.03,37.5-22.82,55.38-16.47,33.53-41.99,58.85-74.6,77.12-16.92,9.48-33.95,18.51-53.39,21.73-28.77,4.77-55.9-.54-82.1-12.8-51.87-24.27-88.5-62.43-107.89-116.68-3.81-10.66-8.02-21.18-12.15-31.72-.94-2.4-2.26-4.65-3.41-6.97-.46.13-.92.25-1.39.38.45,1.86.65,3.82,1.38,5.55,3.92,9.32-1.68,14.56-9.08,18.04-2.66,1.25-4.44.4-5.35-2.44-1.02-3.18-2.14-6.33-3.22-9.5-.41.08-.82.15-1.24.23-.27,2.72-.54,5.44-1,10.08-4.44-3.82-8.33-6.49-11.33-9.95-2.57-2.96-4.68-6.6-5.98-10.3-3.37-9.58-8.58-17.95-14.82-25.87-4.07-5.16-7.59-10.78-8.52-17.91,4.71-.44,6.27,2.43,8.34,5.07,5.98,7.63,12.26,15.03,18.42,22.52.79-.42,1.58-.84,2.37-1.26-.67-1.81-.92-3.98-2.08-5.37-3.1-3.69-6.73-6.93-9.89-10.57-4.85-5.57-6.16-14.12-3.04-19.56.63-1.11,2.11-1.73,3.2-2.57.39,1.29,1.27,2.65,1.09,3.86-1.42,9.62,2.05,16.28,10.84,20.83,3.96,2.05,6.94,5.94,10.51,8.81,1.48,1.19,3.93,3.04,4.91,2.55,1.9-.95,4.52-3.6,4.26-5.1-.68-3.9-2.4-7.77-4.41-11.24-1.27-2.19-3.8-3.66-5.81-5.42-3.73-3.26-3.88-6.82.48-12.23.88,1.76,1.69,3.36,2.49,4.97.68-.05,1.35-.1,2.03-.14,1.8-6.57,4.52-13.05,5.19-19.73,1.01-10.23.95-20.61.7-30.91-.23-9.11.63-17.83,3.83-26.47,2.17-5.88,3.89-12.19,4.31-18.41,1-14.8,8.07-26.51,17.07-37.52,2.63-3.22,5.2-6.5,7.59-9.89,3.57-5.05,5.47-10.66,4.69-16.94-.73-5.87,1.36-10.61,5.18-15.04,8.13-9.43,15.58-19.47,24.1-28.52,3.82-4.06,9.17-7.5,14.47-9.17,12.5-3.94,22.44-10.35,29.02-22.02,1.6-2.85,5.36-4.7,8.46-6.44,8.79-4.94,17.69-9.69,26.66-14.3,3.82-1.96,7.82-3.75,11.93-4.95,17.09-4.97,27.31-15.88,29.99-33.61.07-.45.33-.88.98-2.51ZM294.49,379.01c.36.11.71.22,1.07.33,2.78-2.44,5.55-4.88,9.35-8.23-.3,3.8-.46,5.82-.62,7.85,4.8-4.6,7.71-11.22,15.96-10.93-17.39-2.02-35.45-.25-49.93-14.42,7.22,3.07,13.6,5.78,19.98,8.49.2-.47.41-.94.61-1.41-1.71-.96-3.5-1.79-5.11-2.9-1.77-1.22-3.61-2.48-5.02-4.07-5.9-6.68-4.41-11.11,4.31-13.23,6.79,16.2,13.1,21.73,25.59,22.02,15.9.37,22.96-9.55,26.54-25.33,4.05,4.17,8.72,6.8,9.65,10.41,1.67,6.45-5.91,7.7-9.11,11.06,7.56,0,15.19.14,22.81-.09,2.14-.06,5.94-1.02,6.03-1.89.25-2.3-.46-5.3-1.93-7.1-10.51-12.95-23.61-21.98-40.29-25.03-15.17-2.77-29.84-.2-44.22,4.71-3.82,1.3-7.64,2.63-12.29,4.23.65-1.54.72-2.1,1.04-2.38,14.52-12.93,31.17-19.81,50.84-16.73,13.98,2.19,25.41,9.4,35.24,19.46,5.62,5.75,11.59,11.14,17.41,16.7.71-.14,1.42-.28,2.13-.42,2.27-7.38,4.54-14.77,6.94-22.54,6.98,3.91,6.96,10.86,8.21,18.21,2.23-6.24,1.94-11.76-.41-16.41-3.86-7.64-8.71-14.8-13.36-22.02-1.35-2.1-3.36-3.55-1.69-6.54,3.22-5.77,2.79-8.04-1.99-12.59-6.04-5.74-13.54-8.77-21.57-9.57-14.24-1.42-28.55-2.2-42.84-2.98-16.6-.91-32.02,3.68-46.63,11.11-11,5.59-20.44,13.22-26.98,23.89-1.62,2.65-2.46,5.77-3.66,8.68.49.34.97.69,1.46,1.03,10.57-15.97,25.96-24.12,44.05-27.53,18.7-3.53,42.98,2.2,51.27,10.22-8.64,1.33-16.78,2.99-25,3.76-18.79,1.75-36.02,7.51-51.77,18.02-12.04,8.03-12.39,9.34-2.13,19.45-4.39.75-8.62,1.47-12.86,2.2-.05.6-.1,1.19-.15,1.79,4.16,1.44,8.32,2.87,13.14,4.53-2.54.49-4.33.84-6.13,1.19-.02.45-.04.9-.06,1.35,3.77.64,7.54,1.29,11.62,1.99-1.06,1.33-1.97,2.48-3.26,4.1h11.43c-.84,1.91-1.39,3.18-2.12,4.84,2.27-.66,4.16-1.68,5.94-1.53.79.07,1.39,2.48,2.09,3.85,1.03-.24,2.64-.62,5.18-1.22-1.22,2.25-1.88,3.45-2.68,4.93,2.86-.69,5.29-1.27,8.39-2.02-.84,2.45-1.36,3.95-2.07,5.99,3.47-2.04,6.38-3.75,10.24-6.02-1.23,3.32-2.09,5.63-3.19,8.61,4.53-2.7,8.26-4.92,12.06-7.18-.53,2.56-1.01,4.93-1.5,7.3ZM456.09,303.65c-15.87,10.18-24.84,24.49-25.68,43-.66,14.45.04,28.98.41,43.46.16,6.44.97,12.87,1.49,19.3.9-1.21.91-2.36.9-3.52-.08-17.33-.09-34.66-.26-51.99-.09-9.08,2.53-17.06,8.81-23.7,2.68-2.84,5.86-3.75,9.49-1.88,3.62,1.86,5.73,4.43,4.36,8.87-.45,1.45-.23,3.1-.32,4.66l1.21.69c4.56-4.25,9.06-8.55,13.68-12.73,23.42-21.24,53.51-24.4,78.09-8.14,2.35,1.55,4.4,3.56,6.59,5.35-.27.66-.53,1.31-.8,1.97-3.77-.58-7.67-.73-11.3-1.81-14.52-4.31-29.09-7.7-44.2-3.48-15.9,4.44-30.55,10.83-38.65,26.67-2.92,5.71-1.74,7.53,4.93,7.51,7.71-.02,15.43,0,23.89,0-4.03-1.7-7.47-2.94-10.71-4.58-3.36-1.7-4.15-4.7-1.53-7.36,3.04-3.09,6.73-5.52,10.67-8.66,3.63,12.78,8.07,23.31,22.63,24.21,15.83.98,24.77-7.27,29.16-21.87,1.42.94,2.42,1.51,3.31,2.22,4.61,3.63,4.78,4.56.96,9.1-1.81,2.16-4.04,3.97-6.07,5.94.28.34.57.68.85,1.02,3.27-1.9,6.53-3.79,9.8-5.69-10.45,12.44-24.97,13.04-39.81,14.18,1.34,1.56,2.94,3.26,4.48,3.2,3.94-.15,5.77,1.75,6.96,5.09.42,1.17,1.4,2.14,2.12,3.2.28-.19.55-.38.83-.57-.08-1.75-.16-3.49-.31-6.49,3.16,2.78,5.49,4.83,8.89,7.82-.51-3.5-.81-5.57-1.23-8.51,3.07,2.46,5.4,4.33,8.44,6.77-.81-2.32-1.28-3.67-1.73-4.97,4.77-4.17,5.61,2.97,8.98,2.88-.82-1.94-1.55-3.7-2.28-5.45.32-.4.63-.81.95-1.21,2.53,1.01,5.06,2.03,7.54,3.02-.57-1.45-1.25-3.17-1.94-4.9.24-.47.48-.94.72-1.41,2.86.88,5.72,1.75,9.12,2.8-1.5-2.11-2.78-3.92-4.71-6.63,3.62.41,6.52.74,10.11,1.14-1.76-1.93-3-3.28-4.79-5.24,4.45-.31,8.03-.55,11.62-.8.03-.38.05-.76.08-1.13-1.84-.91-3.67-1.82-5.15-2.55,5.18-1.98,10.41-3.99,15.65-6-.14-.64-.29-1.27-.43-1.91h-12.5c1.06-1.25,2.16-1.53,3.28-1.63,5.5-.49,7.91-4.12,9.54-8.88,1.63-4.74-1.38-7.22-4.35-9.63-2.57-2.09-5.34-4.02-8.25-5.59-6.25-3.37-12.43-7.36-20.12-4-1.04.45-2.69.09-3.84-.4-13.75-5.93-28.11-7.87-42.99-7.16-2.13.1-4.35-1.58-6.53-2.44.22-.73.43-1.46.65-2.18,32.87-19.38,64.31-23.5,92.61,9.95-.71-3.4-1.61-6.22-3.2-8.57-14.65-21.71-36.44-30.4-61.3-30.68-17.39-.2-34.89,2.21-52.17,4.66-5.84.83-11.89,4.45-16.55,8.34-7.89,6.59-7.48,9.45-.33,16.58.1.1.1.29.25.79ZM452.18,438.05c2.89,8.34,6.82,16.35-.45,24.58-.78-6.21-3.86-9.77-9.62-9.93-.31-4.5-.6-8.53-.88-12.57-1.62,12.54-10.6,25.18-21.33,25.81-18.88,1.11-28.73-8.22-27.63-28.28-1.15,4.16-.94,7.89-1.25,11.58-.12,1.48-.98,3.55-2.14,4.19-6.1,3.35-6.17,3.22-9.85,10.54-1.15-.97-1.8-2.46-2.41-3.96-3.08-7.6-.27-14.52,2.47-21.72-1.85.85-3.5,1.84-4.58,3.26-8.37,10.98-5.8,24.72,6.07,31.79,5.71,3.4,11.68,6.38,17.59,9.42,3.05,1.57,4.19,3.71,3.97,7.23-.12,1.93.75,4.83,2.18,5.78,6.38,4.25,13.22,3.92,19.84.31,1.09-.6,2.52-2.52,2.26-3.36-2.31-7.43,2.84-11.42,7.02-15.78,2.4-2.5,4.62-5.56,9.18-3.12,1.38.73,4.36-.4,6.02-1.53,7.57-5.21,12.38-12.06,11.33-21.81-.58-5.37-3.04-9.64-7.78-12.41ZM357.49,521.71c-2.37,1.83-5.07,3.42-7.04,5.65-.91,1.03-1.07,3.78-.31,4.9.7,1.03,3.09,1.25,4.73,1.21,1.95-.04,3.86-.92,5.82-1.12,6.91-.74,14.05-.48,20.69-2.2,10-2.59,19.66-2.81,29.54-.06,2,.56,4.5,1.06,6.29.36,12.04-4.71,23.85-3.96,36.15-.6,8.3,2.27,17.15,2.67,25.8,3.43,1.28.11,4.19-2.89,3.94-3.6-.88-2.48-2.39-5.2-4.49-6.62-1.65-1.12-5.12-1.42-6.7-.4-2.78,1.79-4.43.92-6.69-.47-8.08-4.96-16.23-9.81-24.41-14.59-4.66-2.72-9.63-3.03-14.25-.14-7.53,4.71-14.77,4.13-22.06-.37-4.37-2.7-8.93-2.64-13.28-.17-6.22,3.52-12.18,7.5-18.45,10.93-4.52,2.47-7.97,8.79-15.28,3.87ZM438.51,566.4c11.08-7.43,20.51-15.73,27.57-26.6-14.23,12.77-31.69,12.54-49.09,13.07-17.6.53-34.83.03-50.05-10.77,7.13,10.43,16.5,18.06,27.85,24.01-5.19,3.11-9.38,5.62-13.57,8.13,45.9-7.89,41.28-6.18,69.42.43-4.5-3.06-7.88-5.37-12.13-8.26ZM472.52,614.69c-19.29,8.04-38.15,13.72-58.34,12.85-19.76-.85-38.77-5.33-57.15-12.7,35.72,25.73,91.12,23.15,115.5-.14Z"/>
  <path class="cls-2" d="M690.27,525.25c5.2,7.8,10.17,15.77,15.66,23.36,6.82,9.44,14.75,18.14,20.96,27.95,11.23,17.73,17.29,37.1,14.3,58.45-1.75,12.51-2.05,12.61-13.59,8.05-1.83-.72-3.64-1.49-5.66-2.32,6.38-22.64-1.17-41.79-14.46-59.02-5.83-7.56-13.32-13.92-20.48-20.34-6.31-5.66-13.39-10.46-19.83-16-20.87-17.92-33.38-40.76-38.95-67.53-.32-1.54.28-3.28.46-4.93,1.3,1.24,3.2,2.24,3.8,3.76,9.29,23.57,23.28,43.72,42.99,59.77,1.24,1.01,2.54,1.94,4.6,2.24-2.43-3.23-4.84-6.48-7.29-9.7-14.17-18.57-25.59-38.61-31.67-61.3-1.34-4.99-1.08-10.5-.89-15.75.06-1.68,2.27-3.29,3.5-4.93,1.09,1.52,2.73,2.89,3.19,4.58,4.32,16.01,12.94,29.84,21.82,43.53,2.33,3.59,5.32,6.74,8.89,9.59-.47-1.04-.8-2.17-1.42-3.12-10.5-16.21-15.69-34.46-20.28-52.92-.54-2.17-2.89-5.27,1.09-6.77,4.97-1.87,10.27-.38,11.69,3.4,1.87,4.98,3.6,10.04,4.98,15.18,8.43,31.26,27.14,55.54,50.91,76.7,10.54,9.38,21.18,19,29.89,30,15.67,19.78,21.83,42.82,17.64,68.05-1.15,6.93-4.27,13.09-11.4,18.19.44-2.75.58-4.16.9-5.53,6.77-29.16.48-55.31-19.08-77.82-7.28-8.37-15.96-15.56-24.28-22.98-8.69-7.75-17.72-15.13-26.59-22.67-.47.28-.94.55-1.4.83Z"/>
  <path class="cls-2" d="M704.03,696.27c-3.66-6.18-7.03-12.56-11.05-18.5-7.93-11.69-17.94-21.62-29.3-29.83-32.12-23.2-47.09-55.56-51.56-93.82-.37-3.14-.76-6.28-1.11-9.42-.09-.8-.01-1.63.85-2.72,1.24,2.94,2.52,5.87,3.71,8.83,1.24,3.07,2.41,6.18,4,9.14-2.06-8.69-4.12-17.37-6.17-26.06.5-.2,1.01-.39,1.51-.59,4.62,9.67,9.24,19.33,13.86,29,.35-.13.7-.27,1.06-.4-3.78-9.48-7.55-18.95-11.33-28.43.39-.28.78-.55,1.17-.83,3.29,4.61,7.12,8.93,9.72,13.9,3.08,5.87,5.56,12.14,7.5,18.49,11.99,39.13,38.46,65.25,73.91,83.69,13.56,7.05,27.28,14.05,39.94,22.55,21.89,14.68,33.87,35.42,33.18,62.37-.13,4.92-1.47,9.85-2.58,14.69-.36,1.56-1.77,2.89-2.7,4.32-.43-.08-.86-.16-1.28-.23-.31-1.82-.89-3.63-.9-5.45-.06-30.63-14.89-52.44-40.43-67.85-6.84-4.13-14.07-7.66-20.7-12.09-8.97-6-17.55-12.59-26.26-18.97-1.42-1.04-2.67-2.29-4.84-2.67,2.71,3.41,5.5,6.78,8.13,10.25,13.3,17.52,22.06,36.95,23.06,59.12.71,15.84-3.02,30.51-17.73,39.35-5.09,3.06-11.45,4.15-17.35,5.65-2.01.51-4.41-.46-6.52-1.49,3.91-.77,8-1.02,11.68-2.39,13.85-5.16,21.2-19.06,19.3-35.76-1.95-17.1-9.84-31.52-21.5-43.58-7.93-8.21-17.14-15.28-26.22-22.27-16.2-12.47-30.71-26.17-37.81-46.03-.75-2.1-1.3-4.28-1.07-6.82,1.31,1.88,2.77,3.68,3.92,5.66,9.49,16.24,22.92,28.74,37.12,40.79,11.25,9.54,21.73,20.1,31.81,30.89,4.86,5.2,8.03,11.99,11.96,18.06.34-.18.68-.37,1.02-.55Z"/>
  <path class="cls-2" d="M150.43,205.95c8.86-17.27,20.82-32.22,34.73-45.67,34.04-32.92,75.29-51.72,120.81-62.9,31.44-7.73,63.17-10.94,95.46-11.97,46.91-1.49,92.21,5.7,136.67,20.23,24.92,8.14,47.33,20.74,67.23,37.3,19.14,15.92,35.9,34.29,46.58,57.37,1.66,3.6,3.97,6.89,6.39,11.03-2.84-1.35-5.05-2.57-7.38-3.47-8.22-3.17-16.35-6.64-24.75-9.23-8.72-2.68-16.99-5.9-23.78-12.17-1.41-1.3-2.67-2.78-3.99-4.17.24-.48.48-.96.73-1.43,2.59.93,5.21,1.81,7.77,2.8,6.45,2.5,12.69,5.94,19.37,7.37,9.6,2.06,17.81,5.9,24.79,12.93-.63-1.06-1.11-2.26-1.92-3.17-11.82-13.31-23.13-27.14-35.67-39.75-24.96-25.1-55.85-40.13-89.63-49.28-20.72-5.62-41.59-10.97-62.68-14.9-27.66-5.15-55.74-4.77-83.73-2.75-46.51,3.36-91.02,15.21-133.41,34.22-25.14,11.27-46.54,28.49-65.43,48.59-7.87,8.37-15.45,17.01-23.15,25.54-1.31,1.46-2.58,2.96-3.86,4.44l-1.13-.95Z"/>
  <path class="cls-2" d="M201.96,544.91c-3.39,11.37-6.77,22.74-10.16,34.1l1.36.48c3.6-9.57,7.2-19.13,10.8-28.7.22.08.45.17.67.25-1.41,7.46-3.14,14.87-4.14,22.38-.99,7.4-1.25,14.89-1.02,22.54,3.23-14.52,6.46-29.04,9.69-43.57.3,0,.6,0,.9,0,.73,6.41,1.46,12.81,2.19,19.22.45.05.9.1,1.36.16.85-3.63,1.71-7.26,2.56-10.9.35,0,.69,0,1.04,0,.21,1.14.55,2.28.6,3.43,1.07,25.22-8.49,46.29-26.04,63.71-7.99,7.93-17.24,14.61-26.04,21.71-11.79,9.5-23.69,18.85-35.55,28.26-.33.26-.76.38-1.9.93,7.08-12.72,16.86-22.13,26.27-32.12-.52.22-1.12.32-1.54.66-22.25,18.19-36.05,41.39-39.29,69.98-.94,8.28.51,17.44,3.24,25.39,4.5,13.1,15.41,19.2,29.26,18.74,2.61-.09,5.21-.35,8.13-.55-7.63,5.14-21.86,3.69-30.67-3.13-12.16-9.42-18.7-21.92-19.47-37.28-.96-19.25,4.23-37.03,14.39-53.18,6.18-9.82,12.51-19.9,20.55-28.14,20.94-21.48,38.32-45.1,50.03-72.83,2.58-6.11,6.11-11.83,9.27-17.69.81-1.51,1.9-2.87,2.86-4.3.23.14.45.28.68.42Z"/>
  <path class="cls-2" d="M567.66,64.45c-14.09-15.04-25.96-30.81-46.99-33.54,11.72,7.91,23.58,15.64,30.73,28.79-20.67-13.99-43.05-21.89-68.44-20.75,20.88,5.48,41.39,11.04,54.76,29.95-24.31-15.06-52.03-20.13-78.97-28.02,4.33-.61,8.66-1.22,12.99-1.83,0-.34,0-.69-.01-1.03-7.15.33-14.31.66-21.46.99,10.45-6.39,22.26-7.47,33.98-9.24-15.41-4.29-30.73-1.57-47.59,1.26,4.35-5.25,9.34-6.93,13.9-9.08,4.64-2.19,9.5-3.91,14.2-6.27-10.88-1.14-21.4.57-31.73,4.33,6.54-7.15,14.9-11.04,24.13-11.23,9.37-.19,18.77,1.54,28.16,2.41,1.94.18,4.09.89,5.81.34,29.94-9.57,50.16,4.71,63.06,22.87,5.58,7.85,8.88,17.32,13.15,26.08.33.67.14,1.6.31,3.97Z"/>
  <path class="cls-2" d="M141.8,536.68c-1.09,2.53-2.4,5-3.24,7.61-5.39,16.75-8.15,33.87-3.39,51.11,2,7.23,6.35,13.81,9.72,20.64,1.14,2.31,3.33,4.22.73,7.09-2.55,2.82-5.17,3.22-8.31,1.38-7.8-4.57-12.74-11.69-16.54-19.54-6.45-13.31-6.09-27.4-4.06-41.63,2.63-18.41,11.22-34.41,20.26-50.2,7.11-12.41,14.61-24.61,21.92-36.88,3.21,4.03,6.57,7.99,9.57,12.2.8,1.13.98,3.19.61,4.6-3.13,12.08-6.19,24.19-9.79,36.13-4.77,15.8-9.96,31.47-10.24,48.22,0,.43-.32.86-.5,1.34-3.01-2.95-4.66-8.85-5.2-20.56-.32-7.08-.06-14.18-.06-21.27-.49-.08-.99-.17-1.48-.25Z"/>
  <path class="cls-2" d="M426.43,104.12c11.39-5.59,57.31,2.23,73.84,11.61h-23.58c22.18,4.1,43.56,9.4,54.33,33.24-1.21.16-1.41.25-1.48.18-14.51-12.12-31.15-12.33-48.72-9.47-11.98,1.96-24.19,2.73-36.27-.06-9.04-2.09-16.83-6.44-22.76-13.58-2.06-2.48-3.09-5.81-4.6-8.75.44-.25.87-.51,1.31-.76,5.17,4.64,10.34,9.29,15.51,13.93.32-.31.64-.62.96-.92-4.94-5.71-13.2-9.03-13.76-18.2,11.29,9.49,24.11,13.83,38.68,13.34-11.77-5.5-24.85-8.86-33.45-20.55Z"/>
  <path class="cls-2" d="M315.3,115.3c20.21-10.55,40.86-12.37,61.99-12.45-11.19,10.43-24.12,17.67-38.55,22.39,20.24.37,35.14-11.52,49.87-22.83,3.57,3.16,2.94,6,1.06,8.27-3.69,4.44-7.75,8.57-11.74,12.75-1.09,1.14-2.49,1.99-3.74,2.97.17.42.34.83.51,1.25,3.14-.87,6.29-1.75,9.43-2.62-7.81,8.97-17.67,14.24-29.34,14.4-10.26.14-20.62-.82-30.81-2.21-14.28-1.95-27.57-.73-39.28,8.54-.5.39-1.13.61-1.7.91-.44-.25-.89-.49-1.33-.74,1.42-2.67,2.4-5.72,4.33-7.94,9.8-11.23,22.6-17.25,36.92-20.41,3.66-.81,7.32-1.62,10.98-2.44-.06-.49-.12-.97-.17-1.46-5.72.5-11.43,1.01-18.43,1.63Z"/>
  <path class="cls-2" d="M419.07,80.31c2.9-4.49,6.38-9.87,9.72-15.04,2.47,9.38,3.43,9.85,13.6,11.65,21.8,3.84,43.52,8.1,65.3,12.03,2.54.46,5.68.77,7.78-.31,2.29-1.18,4.7-3.89,5.14-6.29.32-1.75-2.02-4.74-3.95-5.99-4.48-2.91-7.51-2.44-10.2,1.11,2.01.38,3.76.47,5.31,1.08,1.44.57,2.67,1.69,3.99,2.56-1.5.83-3.1,2.52-4.47,2.36-11.73-1.43-23.42-3.16-35.11-4.89-11.03-1.63-22.04-3.33-33.05-5.08-8.21-1.31-11.6-5.05-11.82-12.27-.11-3.51,1.04-5.52,4.74-5.16,12.4,1.19,24.97,1.6,37.16,3.94,13.68,2.63,27.25,6.37,40.44,10.86,11.81,4.02,23.2,9.6,30.55,20.51,1.72,2.56,2.19,5.97,3.24,8.98-3.17.08-6.49.81-9.47.12-17.83-4.12-35.41-9.65-53.42-12.63-21.78-3.61-43.91-5.15-65.47-7.53ZM439.56,65.64c3.01,2.78,5.38,4.97,8.68,8.01,1.12-2.93,3.32-6.34,2.59-7.16-2.65-2.99-6.43-3.37-11.26-.85ZM488.2,70.65c1.85,1.93,3.16,3.3,4.48,4.67.9-1.2,2.75-2.72,2.48-3.53-.53-1.59-2.17-2.88-3.58-4-.18-.14-1.75,1.46-3.39,2.86ZM468.49,70.42c2.33.66,4.64,1.4,7.01,1.83.19.03,1.42-2.73,1.06-3.1-2.35-2.41-5.03-2.44-8.06,1.27Z"/>
  <path class="cls-2" d="M375.44,55.67c2.01,9.55-.6,14.75-9.32,17.66-4.07,1.36-8.43,1.88-12.68,2.71-15.68,3.04-31.36,6.13-47.07,9-2.64.48-5.46-.05-8.19-.11-.05-.55-.09-1.1-.14-1.65l6.67-4.44c-.18-.44-.36-.89-.54-1.33-2.25,0-4.98-.79-6.63.2-2.08,1.25-4.03,3.79-4.6,6.12-.34,1.42,1.72,4.64,3.24,5.05,3.89,1.05,8.27,1.95,12.11,1.18,18.28-3.64,36.44-7.87,54.64-11.86,6.47-1.42,11.66-4.68,14.92-10.14,4.03,4.48,7.9,8.8,12.05,13.41-8.63.61-17.34,1.01-26,1.87-32.42,3.21-63.92,11.02-95.39,19.01-3.14.8-7,3.43-9.3-1.01-2.15-4.14,1.2-6.74,3.77-9.36,11.51-11.66,26.54-16.82,41.37-22.26,21.56-7.91,43.93-12.06,66.75-14.03,1.45-.12,2.91-.02,4.32-.02ZM367.7,63.78c-.22-.38-.44-.76-.66-1.15-3.06.44-6.33.36-9.11,1.48-2.24.9-4.02,3.14-5.69,5.06-.42.48.11,2.22.71,2.97.31.39,2.43.13,2.55-.23,1.49-4.41,5.01-5.15,8.97-5.66,1.16-.15,2.15-1.61,3.23-2.48ZM276.93,90.45c1.97,1.15,3.16,2.43,4.09,2.27,2.12-.37,4.21-1.3,6.1-2.37.42-.24.02-2.92-.09-2.92-2.03-.11-4.12-.24-6.09.17-1.13.24-2.07,1.42-4.01,2.85ZM264.57,97.49c.67.36,1.34.72,2,1.08,2.15-1.67,4.3-3.34,6.46-5.01-.24-.65-.48-1.3-.72-1.96-2.2.28-4.69.03-6.5,1.03-1,.56-.87,3.17-1.25,4.86ZM326.04,73.17c-1.74-1.7-2.94-2.87-4.14-4.04-.92,1.15-2.8,2.59-2.56,3.4.48,1.62,2.12,2.9,3.28,4.33.95-1.02,1.89-2.04,3.42-3.68Z"/>
  <path class="cls-2" d="M322.66,18.89c16.68,2.53,30.41,7.81,36.02,14.61-42.13-6.38-76.42,6.87-103.18,39.88-.48-.52-.95-1.04-1.43-1.57.57-2.26.86-4.64,1.75-6.77,8.48-20.22,22.97-34.34,43.35-42.45,2.16-.86,4.25-1.89,6.35-2.9.38-.19.61-.68.86-2.54-2.77,0-5.61-.39-8.31.06-13.71,2.29-26.16,7.52-36.89,16.52-.95.8-2.02,1.45-3.92,2.79,22.9-31.4,91.72-37.84,115.23-10.33-17.1-4.63-33.17-8.01-49.83-7.31Z"/>
  <path class="cls-2" d="M210.95,748.05c3.81-8.89,7.87-17.12,10.89-25.71,7.27-20.71,5.81-41.62.27-62.47-1.21-4.55,3.55-12.14,8.17-12.62,1.04-.11,2.47.84,3.29,1.71,27.37,29.11,14.96,84.55-22.62,99.09Z"/>
  <path class="cls-2" d="M189.2,353.5c-9.61,14.14-22.31,21.63-38.23,24.39,6.99,1.62,18,.18,25.55-4.9,7.34-4.94,13.78-11.2,20.46-16.75-1.11,2.02-2.32,4.67-3.92,7.07-12.27,18.49-28.97,25.3-50.86,20.87-3.42-.69-6.83-1.51-10.27-2.1-14.2-2.44-25.41,3.43-31.03,16.8-2.43,5.79-3.86,12.01-5.72,18.04-.62,2.01-1.18,4.03-1.77,6.04-.42,0-.84.01-1.27.02-.24-1.28-.7-2.56-.69-3.84.12-21.55,8.45-38.99,27.05-50.3,5.27-3.2,12.15-4.71,18.41-5.1,12.65-.79,25.29-1.01,37.46-5.04,4.67-1.54,9.29-3.26,14.82-5.21Z"/>
  <path class="cls-2" d="M587.7,646.84c5.95,6.81,12.08,13.14,17.29,20.17,1.81,2.44,1.61,6.55,1.85,9.94.72,9.95.51,20.02,1.94,29.85,2.05,14.12,6.84,27.41,16.71,38.99-11.31-2.46-21.58-17.17-26.82-39.61-.87,6.42,2.86,17.68,11.58,34.93-22.83-14.97-34.6-64.23-22.55-94.28Z"/>
  <path class="cls-2" d="M158.42,329.9c13.21,1.64,24.82-2.47,35.53-9.69,2.48,6.36-4.26,13.62-18.14,21.05,11.77-3.06,19.91-10.99,27.67-20.05-1.05,2.17-1.94,4.42-3.16,6.48-6.76,11.4-23.38,22.24-40.81,16.74-4.28-1.35-8.56-2.72-12.81-4.16-11.68-3.97-15.91-3.88-26.94.7-1.98-9.46,11.91-23.54,23.34-24.37,3.15-.23,6.33-.36,9.48-.17,10.5.63,20.94.91,30.95-3.63-6.48,8.54-16.21,12.16-25.1,17.09Z"/>
  <path class="cls-2" d="M605.13,540.37c5.19,20.82,10.75,41.62,6.56,63.36-1.03,5.35-3.19,10.49-5.03,15.66-1.55,4.37-3.73,1.94-5.48.16-8.65-8.74-14.64-18.89-16.39-31.28-2.26-15.96.14-31.18,7.08-45.7.89-1.86,2.1-3.56,3.57-5.17-7.45,21.59-10.99,43.16-1.81,65.14-7.71-21.96-5.77-43.13,4.99-63.63-2.14,23.23.23,45.97,6.93,68.3-3.6-22.24-6.17-44.48-.42-66.83Z"/>
  <path class="cls-2" d="M188.33,740.9c3.96-3.37,7.93-6.74,11.89-10.11-.29-.34-.59-.67-.88-1.01-7.18,4.93-12.69,12.63-22.53,14.18,2.89-3.71,5.55-6.95,8.02-10.34,6.26-8.59,7.63-18.67,8.4-28.86.56-7.47.93-14.97,1.13-22.46.09-3.27,1.52-4.18,4.56-4.41,3.48-.27,3.86,1.79,4.05,4.26.27,3.55.47,7.11.71,10.67.55.02,1.11.05,1.66.07.33-3.14.88-6.28.95-9.43.2-9.55.97-10.72,10.29-14.24,13.83,21.11-2.43,64.41-27.27,72.63-.33-.32-.65-.64-.98-.96Z"/>
  <path class="cls-2" d="M529.87,129.46c10.61.05,20.12,3.73,28.78,9.61,1.97,1.34,2.93,4.15,4.36,6.28-2.08.89-4.17,1.79-6.74,2.89,1.68,1.02,3.42,2.72,5.42,3.1,2.01.38,5.2.18,6.18-1.09,1.2-1.55,1.7-5.24.66-6.63-2.52-3.36-5.65-7.07-9.37-8.59-9.17-3.74-18.8-6.36-28.26-9.37-4.17-1.33-8.39-2.52-12.58-3.77.09-.62.18-1.24.27-1.86,3.63,0,7.34-.5,10.88.08,17.5,2.87,33.4,9.85,48.22,19.47,10.18,6.61,20.82,12.63,28.1,22.81.56.78,1.09,1.57,1.42,2.66-6.23-4.27-11.97-9.43-20.22-9.3,5.54,3.18,11.08,6.36,16.87,9.68-13.12-1.06-25.62-1.14-37.7-3.42-6.83-1.29-13.92-5.12-19.2-9.74-6.99-6.11-12.32-14.12-18.36-21.31.43-.5.86-1.01,1.29-1.51Z"/>
  <path class="cls-2" d="M678.26,306.57c-1.27-6.1-1.92-11.05-3.36-15.75-3.87-12.59-10.46-17.89-23.55-18.48-7.13-.32-14.31.33-21.45.75-16.45.98-28.95-6.03-38.68-18.81-.7-.92-1.27-1.96-1.78-3-.18-.37.01-.92.07-2.05,2.04.91,3.78,1.71,5.53,2.47,9.23,4.04,18.78,3.35,28.5,2.47,8.07-.74,16.35-1.48,24.32-.45,22.27,2.86,35.4,30.7,31.88,49.05-.18.94-.69,1.82-1.48,3.8Z"/>
  <path class="cls-2" d="M222.38,154.56c-7.13,2.87-14.26,5.74-20.33,8.18,20.56-18.82,64.58-45.23,87.79-39.59.18.46.36.92.54,1.39-2.32.73-4.6,1.68-6.97,2.16-8.76,1.76-17.65,2.99-26.3,5.15-5.79,1.45-10.53,5.28-13.05,10.83-.89,1.96-.45,6.68.19,6.83,2.76.68,6.3,1.04,8.66-.2,3.56-1.86,1.01-4.68-.16-7.17-2.21,1.66-4.1,3.09-5.99,4.51,4.44-10.93,19.26-17.21,34.3-15.73-9.62,23.5-39.27,37.79-73.46,34.08,5.07-2.99,10.15-5.99,15.22-8.98-.15-.49-.29-.97-.44-1.46Z"/>
  <path class="cls-2" d="M492.71,167c4.3.93,8.6,1.86,14.17,3.06-2.74-2.1-4.65-3.57-6.54-5.01,17.04-3.68,64.48,9.6,70.09,19.63-.19.23-.35.65-.57.68-13.01,1.72-25.99,3.98-39.06,4.88-7.84.54-15.91-.57-23.73-1.81-8.84-1.41-14.75-7.57-20.03-14.25.24-.43.48-.86.72-1.3,7.85,4.36,15.71,8.73,23.56,13.09.18-.23.37-.46.55-.69-6.58-5.69-13.16-11.38-19.73-17.07.2-.4.39-.8.59-1.21Z"/>
  <path class="cls-2" d="M703.18,391.62c-.61-1.5-.75-2.19-1.13-2.71-8.17-11.33-13.75-13.26-27.34-9.68-4.02,1.06-8.06,2.16-12.16,2.71-11.81,1.58-21.56-2.51-29.45-11.31-5.87-6.55-9.36-14.3-11.75-22.6,18.79,22.08,20.21,23.39,27.7,25.12-8.53-7.11-16.21-14.77-19.22-24.61,6.29,3.87,12.83,8.99,20.22,12.09,5.25,2.21,11.62,1.98,17.53,2.33,4.96.29,10.01-.65,14.94-.19,13.67,1.27,23.81,14.66,20.66,28.86Z"/>
  <path class="cls-2" d="M621.19,314.59c11.21,10.97,23.83,17.68,40.15,13.65-10.66-3.37-21.43-6.46-27.88-17.04,10.05,8.73,21.94,5.14,33.21,5.26,14.01.15,25.74,9.61,28.73,24.03-.71-.12-1.38-.06-1.82-.34-8.76-5.6-17.48-4.55-26.63-.63-16.48,7.06-31.28,2.23-41.18-13.09-2.23-3.46-3.86-7.31-5.77-10.98l1.19-.85Z"/>
  <path class="cls-2" d="M382.16,53.69c.61-11.44,10.43-24.9,21.25-28.15,1.56-.47,3.72-.37,5.15.35,10.88,5.49,19.76,26.49,16.07,37.98-2.2,6.86-6,12.75-13,15.48-11.97,4.66-20.09-.26-26.04-12.26-2-4.04-2.34-8.91-3.43-13.4ZM417.18,54.92c-.41-.23-.83-.46-1.24-.68.06-5.11-6.76-16.37-11.51-18.38-1.17-.49-3.3-.07-4.37.75-9.76,7.45-10.78,24.24-2.16,32.89,3.12,3.13,8.25,3.88,10.6.63,3.4-4.7,5.83-10.11,8.67-15.21Z"/>
  <path class="cls-2" d="M112.21,833.82c.68-3.9.74-8.04,2.16-11.65,4.47-11.36,13.41-18.28,24.84-21.32,18.31-4.86,36.94-4.78,55.45-.94,5.04,1.04,9.76,3.61,14.63,5.48-.14.56-.27,1.13-.41,1.69-1.86,0-3.73-.07-5.59.01-10.76.5-21.55.77-32.28,1.66-7.45.62-14.81,2.26-22.23,3.21-12.19,1.56-22.08,6.95-29.48,16.88-1.53,2.05-3.49,3.77-5.26,5.64-.61-.22-1.22-.45-1.84-.67Z"/>
  <path class="cls-2" d="M140.28,281.34c2.51-13.59,14.85-24.87,28.65-26.5,6.22-.74,12.6.11,18.9-.13,8.74-.34,17.47-1.06,26.21-1.58,1.38-.08,2.76-.01,5.61-.01-1.81,2.49-2.69,3.94-3.79,5.19-9.49,10.75-21.75,14.84-35.72,14.68-3.66-.04-7.32-.25-10.96-.62-10.46-1.08-20.35-.23-28.9,8.99Z"/>
  <path class="cls-2" d="M272.99,185.74c10.66,1.67,20.37-.42,29.27-6.74,6.94-4.93,14.64-7.85,23.45-6.16.02.35.16.87.05.93-9.25,4.86-18.31,10.2-27.9,14.29-4.35,1.85-9.88,2.11-14.68,1.53-13.29-1.62-26.48-4.07-39.71-6.18-.14-.73-.27-1.46-.41-2.19,3.49-1.91,6.78-4.74,10.51-5.57,16.04-3.58,32.2-6.67,48.36-9.71,3.01-.57,6.22-.08,9.46.57-11.13,9.95-22.97,17.98-38.38,19.27Z"/>
  <path class="cls-2" d="M391.23,127.15c-1.47,7.42-5.87,12.09-11.13,15.98-12.7,9.4-27.37,11.61-42.65,10.89-7.31-.34-14.59-1.3-21.89-1.94-10.52-.93-20.45.87-29.75,6.53,3.4-6.1,7.68-11.12,13.9-14.2,8.05-4,16.61-4.44,25.36-3.42,6.94.81,13.88,1.84,20.85,2.24,14.67.83,28-3.03,39.62-12.27,1.3-1.04,2.61-2.06,3.94-3.07.26-.19.6-.26,1.75-.73Z"/>
  <path class="cls-2" d="M565.02,112.28c-5.17-1.84-9.52-3.38-14.4-5.11,5.4-8.13.88-13.94-4.12-19.56-8.19-9.2-18.58-15.02-30.04-19.04-26.04-9.14-52.62-15.73-80.4-16.1-4.68-.06-6.67-1.97-7.01-6.75,1.25-.08,2.48-.29,3.7-.22,25.01,1.54,49.7,5.1,73.46,13.3,15.43,5.33,30.76,11.41,42.49,23.31,7.95,8.07,14.34,17.44,16.32,30.17Z"/>
  <path class="cls-2" d="M651.7,745.22c-21.6,1.35-47.43-47.82-37.19-71.29,1.1,1.6,1.88,2.95,2.87,4.13,2.26,2.68,4.19,5.98,7.05,7.73,3.18,1.94,5.02,3.83,5.25,7.62.72,12.18,4.63,23.55,10.16,34.24,3.15,6.1,7.68,11.48,11.86,17.58Z"/>
  <path class="cls-2" d="M258.07,107.94c-8.47,3.02-16.65,5.93-23.05,8.21,4.3-7.39,8.98-16.28,14.53-24.6,2.59-3.87,6.4-7.42,10.45-9.75,32.21-18.56,66.31-31.75,103.68-35.23,4.24-.4,8.47-.92,12.66-1.38,1.01,4.71-1.61,5.35-4.65,5.87-14.44,2.47-28.98,4.49-43.26,7.68-19.06,4.26-37.55,10.5-54.75,19.95-5.06,2.78-9.94,6.15-14.25,9.99-6.97,6.19-7.1,12.52-1.37,19.26Z"/>
  <path class="cls-2" d="M205.06,134.23c1.54-15.16,7.34-27.34,16.69-38.01-14.06,12.17-23.14,27.41-27.99,45.33-1.59-26.35,17.89-56.33,42.03-64.1-.39,11.51-3.7,21.93-9.72,30.97-5.91,8.88-13.47,16.67-21.02,25.81Z"/>
  <path class="cls-2" d="M620.71,149.51c-4.42-2.29-4.38-5.53-3.04-9.41,2.48-7.17,4.73-14.41,7.08-21.62-.45-.16-.9-.32-1.35-.48-2.97,7.35-5.95,14.7-8.92,22.05l-1.57-.49c1.64-6.2,3.28-12.39,4.92-18.59-.33-.17-.65-.34-.98-.51-3.23,6.12-6.45,12.24-9.68,18.35-5.84-3.29-6.71-5.32-4.32-11.17,4.07-9.99,9.96-18.85,17.97-26.06,5.9-5.3,8.64-4.42,9.74,3.21,2.1,14.65,3.17,29.31-7.25,41.87-.82.99-1.74,1.9-2.61,2.85Z"/>
  <path class="cls-2" d="M428.77,145.72c12.64,5.15,25.13,2.61,37.57.28,12.09-2.27,24.01-5.6,36.56-3.5,10.92,1.82,19.78,6.28,24.21,17.43-11.49-6.93-23.95-8.73-36.91-7.49-6.62.64-13.16,2.27-19.78,2.69-8.75.55-17.6,1.01-26.3.24-6.21-.55-12.04-3.51-15.35-9.64Z"/>
  <path class="cls-2" d="M551.76,200.13c17.34-1.93,35.06-7.39,51.98,5.4-10.91,3.91-20.4,8.04-30.3,10.68-11.5,3.07-22.47.97-31.92-6.95-1.39-1.16-3.17-1.85-4.77-2.75.47-.45.94-.9,1.41-1.36,8.22.81,16.44,1.62,24.66,2.43l.07-.93c-3.98-1.65-7.96-3.31-11.94-4.96.27-.52.53-1.05.8-1.57Z"/>
  <path class="cls-2" d="M228.73,263.31c-5.46,9.33-12.35,16.25-21.45,21.21-9.28,5.06-19.25,4.44-29.77,4.03,12.49,6.35,28.84,1.03,54.37-17.23-8.06,21.82-42.15,29.26-68.61,14.17,2.56-1.2,4.43-2.5,6.5-2.98,8.27-1.9,16.56-3.69,24.9-5.23,10.97-2.03,21.1-5.94,30.11-12.6.66-.49,1.4-.89,2.14-1.27.25-.13.6-.05,1.81-.11Z"/>
  <path class="cls-2" d="M149.25,434.46c-2.37,10.57-7.11,19.66-16.03,26.01-4.2,2.99-8.59,5.71-12.79,8.69-24.11,17.11-30.63,28.15-34.71,59.5-3.12-8.65-3.34-16.48-1.81-24.31,2.48-12.71,9.02-23.24,18.86-31.49,5.83-4.89,12.06-9.46,18.6-13.34,10.31-6.12,19.42-13.36,26.28-23.27.45-.65,1.06-1.19,1.6-1.78Z"/>
  <path class="cls-2" d="M640.69,111.87c-4.33-30.78-21.7-50.52-50.82-60.31l.44-1.74c4.62,0,9.39-.76,13.83.13,23.46,4.7,44.54,31.03,44.57,55.16,0,.42-.27.83-.57,1.66-1.18-3.38-2.22-6.39-3.27-9.39-.36.04-.72.08-1.07.12-.54,4.67-1.08,9.33-1.62,14l-1.49.38Z"/>
  <path class="cls-2" d="M173.22,514.18c.84,3.3,2.46,6.63,2.38,9.91-.33,13.62-1.06,27.22-1.9,40.82-.27,4.45-1.26,8.86-2.04,13.26-.2,1.12-.53,2.63-1.33,3.15-1.94,1.26-4.13,2.43-6.36,2.77-.59.09-2.25-2.88-2.42-4.54-1.99-20.01.66-39.49,7.16-58.47.78-2.28,1.72-4.5,2.58-6.74.64-.05,1.27-.1,1.91-.15Z"/>
  <path class="cls-2" d="M646.42,288.01c-3.18.69-6.33,1.55-9.53,2.05-9.67,1.52-19.37,4.22-29.17,1.42-12.49-3.57-21.65-10.99-25.69-23.8,8,8.4,15.84,16.94,28.31,18.54-9.57-5.32-17.81-11.89-22.25-22.43,12.66,9.96,27.52,13.66,42.96,15.92,3.75.55,7.44,1.85,10.99,3.22,1.79.69,3.21,2.33,4.79,3.54-.13.51-.27,1.02-.4,1.53Z"/>
  <path class="cls-2" d="M596.02,118.96c-5.52-8.66-11.38-17.83-17.23-27-.36.21-.72.41-1.08.62,4.25,9.8,8.51,19.6,13.05,30.06-16.31-4.93-25.49-24.4-23.36-47.64,13.97.06,33.1,30.38,28.63,43.97Z"/>
  <path class="cls-2" d="M230.02,615.93c1.67-5.46,3.35-10.93,5.33-17.38,1.08,10.88-2.73,21.77-9.69,26.73-1.51-4.45-3.69-8.47-4.11-12.67-.7-7.06-.72-14.27-.22-21.36.54-7.61,1.59-15.24,3.26-22.67.71-3.16,3.57-5.83,6.14-8.47,7.65,18.94-.74,37.22-.71,55.82Z"/>
  <path class="cls-2" d="M96.33,865.42c8.12-3.36,15.29-5.99,22.17-9.24,12.17-5.74,20.91-15.16,27.38-26.82.73-1.31,1.37-2.69,2.27-3.87,1.94-2.52,4.05-2.13,4.52.81.57,3.65,1.11,7.76,0,11.12-2.31,7.04-6.61,13-12.84,17.41-12.86,9.12-27.32,11.37-43.51,10.59Z"/>
  <path class="cls-2" d="M249.42,201.65c-4.82,1.06-9.63,2.12-15.26,3.36,9.83,2.82,18.36.16,26.89-2.49.34.32.67.63,1.01.95-1.2,1.69-2.13,3.7-3.65,5.03-8.29,7.27-18.02,8.89-28.53,6.61-5.85-1.27-11.64-2.83-17.42-4.41-.84-.23-1.96-1.27-2.04-2.03-.13-1.27.09-3.42.84-3.79,4.44-2.17,8.95-4.9,13.7-5.59,6.68-.97,13.61-.38,20.42-.29,1.36.02,2.71.81,4.07,1.24-.01.47-.02.95-.03,1.42Z"/>
  <path class="cls-2" d="M85.07,543.64c3.99,6.64,2.6,12.71.26,18.67-3.71,9.45-11.56,12.77-20.94,9.09-5.2-2.04-8.87-7.37-8.85-12.8,0-2.71,1.04-4.99,4.02-4.4,9.28,1.85,16.04-2.69,22.53-8.24.74-.64,1.55-1.21,2.98-2.32Z"/>
  <path class="cls-2" d="M531.01,210.92c3.11,1.36,6.31,2.53,9.3,4.1,13.45,7.1,27.21,7.83,41.44,2.57,4.82-1.78,9.8-3.17,14.78-4.48,5.51-1.45,10.31-.02,15.46,5-12.56-1.23-22.02,4.16-31.94,8.32-17.92,7.5-36.1,2.58-48.44-12.59-.48-.6-.78-1.34-1.17-2.02.19-.3.37-.61.56-.91Z"/>
  <path class="cls-2" d="M100.79,633.41c-10.55-9.69-7.04-41.87,5.07-57.53,0,11.35-1.57,22.85.45,33.69,1.98,10.64,7.59,20.6,11.75,31.23-10.58-6.38-15.59-16.43-20.27-27.11.93,6.13,1.87,12.26,3,19.72Z"/>
  <path class="cls-2" d="M169.48,109.02c4.75,6.16,14.81,36.33,14.02,42.43-3.4-4.98-6.32-9.25-9.23-13.53-.24.1-.47.21-.71.31,1.08,3.18,2.16,6.36,3.23,9.55-.3.12-.61.24-.91.36-1.73-3.66-3.46-7.31-5.19-10.97-.39.12-.79.23-1.18.35,1.4,5.38,2.94,10.74,4.12,16.17.37,1.67-.22,3.55-.37,5.34-1.5-.9-3.58-1.45-4.41-2.77-7.37-11.64-6.01-24.14-3.04-36.66.81-3.42,2.29-6.67,3.67-10.58Z"/>
  <path class="cls-2" d="M276.43,66.28c15.99-20.64,46.11-30.54,75.52-24.32-12.8,3.25-25.84,5.88-38.42,9.94-12.59,4.06-24.73,9.52-37.1,14.39Z"/>
  <path class="cls-2" d="M273.45,210.67c-4.64,5.37-10.59,8.94-17.09,11.95-18.83,8.7-36.65,2.29-54.98-3.64,5.45-3.4,11.33-5.32,17.09-3.09,16.9,6.56,32.6,3.34,48.06-4.37,1.95-.97,4.15-1.44,6.24-2.15.23.43.46.87.69,1.3Z"/>
  <path class="cls-2" d="M585.18,54.91c17.28.62,41.13,23.34,41.68,39.5-4.58-5.65-8.29-11.71-13.41-16.14-5.16-4.47-11.72-7.34-18.31-10.15,5.33,6.75,10.66,13.49,15.99,20.24-.15.08-.29.16-.44.23-6.75-6.03-13.71-11.84-20.16-18.17-4.06-3.99-4.87-9.54-5.36-15.51Z"/>
  <path class="cls-2" d="M213.74,869.18c-19.03-5.77-34.46-16.05-44.42-33.27-1.1-1.89-.88-4.54-1.28-6.84,2.54.76,5.7.82,7.49,2.42,4.45,3.97,8.13,8.78,12.36,13.01,7.53,7.52,15.23,14.87,22.88,22.27.91.88,1.97,1.61,2.96,2.41Z"/>
  <path class="cls-2" d="M696.79,428.23c22.68,9.26,28.89,7.07,45.47-15.45,3.47,4.68,1.36,9.16-.42,13.11-4.58,10.14-12.72,15.81-23.9,16.02-9.33.18-15.89-4.84-21.15-13.68Z"/>
  <path class="cls-2" d="M145.9,220.53c3.51-1.58,7.01-4.5,10.53-4.52,16.23-.11,30.15-5.61,42.32-16.08.48-.42,1.14-.63,1.74-.91.11-.05.29.05,1.29.25-6.67,9.03-14.51,16.15-24.08,21.13-10.03,5.22-20.75,1.93-31.19,1.93l-.61-1.78Z"/>
  <path class="cls-2" d="M234.82,41.32c-19.48,10.1-38.8,20.27-49.22,41.19,1.03-19.39,27.3-41.41,49.22-41.19Z"/>
  <path class="cls-2" d="M631.59,238.43c-13.26,2.88-25.65,3.62-37.31-3.32,7.45-8.71,23.05-7.57,37.31,3.32Z"/>
  <path class="cls-2" d="M140.33,258.1c-7.32,16.78-16.77,32.43-15.18,52.07-9.99-12.8.03-46.44,15.18-52.07Z"/>
  <path class="cls-2" d="M664.17,224.32c-8.19-4.79-15.65-3.2-23.05-2.44-11.71,1.2-17.38-1.93-22.76-12.61.28-.14.66-.46.82-.37,8.57,4.87,17.93,5.38,27.48,5.4,6.93.01,13.1,2.09,17.5,10.03Z"/>
  <path class="cls-2" d="M641.57,158.6c-2.07,3.46-3.75,6.26-5.45,9.1-5.71-4.44-6.49-6.95-3.42-12.46,2.63-4.72,5.71-9.19,8.65-13.86,5.13,4.24,5.41,19.26,1.19,32.88-4.01-5.05-.61-10.15-.98-15.66Z"/>
  <path class="cls-2" d="M207.24,179.76c-13.26,14.47-30.4,21.77-50.05,24.73,3.72-2.42,7.17-5.51,11.2-7.15,11.87-4.81,23.9-9.19,34.01-17.42,1.1-.89,2.79-1.06,4.2-1.57l.63,1.41Z"/>
  <path class="cls-2" d="M159.5,179.43c-.96-3.52-1.78-6.48-2.59-9.45-.38.02-.77.03-1.15.05,0,2.69.18,5.4-.05,8.07-.21,2.47-.86,4.89-1.9,7.2-4.26-7.14-2.77-23.98,1.77-28.85,6.54,6.81,8.77,17.8,3.92,22.98Z"/>
  <path class="cls-2" d="M208.98,235.78c-10.19,5.67-20.82,7.4-32.14,3.64,7.01-8.05,24.69-10.01,32.14-3.63h0Z"/>
  <path class="cls-2" d="M675.93,216.73c5.46,13.39,8.58,27.11,5.05,41.85-.29-.94-.61-1.88-.85-2.84-2.42-9.67-5.08-19.3-7.09-29.05-.66-3.18.39-6.71.66-10.08.74.04,1.48.08,2.23.12Z"/>
  <path class="cls-2" d="M80.21,328.99c-12.63,12.15-24.73,23.79-36.84,35.43-.29-.31-.58-.62-.88-.94,10.34-13.54,18.51-29.38,37.71-34.5Z"/>
  <path class="cls-2" d="M668.35,222.48c-2.81-7.23-5.33-12.92-7.2-18.82-1.06-3.36,3.25-6.62,6.63-5.44,5,1.74,7.19,5.98,5.5,10.93-1.37,4-2.92,7.93-4.93,13.34Z"/>
  <path class="cls-2" d="M657.32,199.91c-3.03-6.01-6.2-11.96-8.96-18.09-.47-1.05.35-3.48,1.34-4.16.94-.64,3.67-.37,4.25.45,3.21,4.61,6.55,9.29,8.62,14.44.68,1.69-2.3,4.86-3.61,7.35-.54,0-1.08,0-1.63,0Z"/>
  <path class="cls-2" d="M71.59,715.43c4.56-10.73,11.68-18.98,20.24-26.08.37.24.75.49,1.12.73-2.38,4.04-4.79,8.06-7.12,12.13-2.15,3.76-4.42,7.46-6.22,11.38-1.75,3.79-3.98,4.55-8.03,1.85Z"/>
  <path class="cls-2" d="M608.64,500.61c2.64,5.57,4.94,9.95,6.8,14.51,1.11,2.72-.24,4.86-3.26,4.57-2.92-.28-5.89-1.13-8.57-2.33-.84-.37-1.51-2.94-1.08-4.04,1.58-3.97,3.66-7.74,6.11-12.71Z"/>
  <path class="cls-2" d="M579.54,680.07c1.14,8.58,2.25,16.98,3.38,25.48-4.64-.19-6.62-3.59-8.18-13.01-.98-5.94.64-10.8,4.8-12.47Z"/>
  <path class="cls-2" d="M718.57,258.3c-9.75,4.61-19.51,9.21-29.26,13.82-.26-.55-.52-1.1-.78-1.65,7.51-9.43,17.39-13.94,29.66-13.49.13.44.26.88.39,1.32Z"/>
  <path class="cls-2" d="M133.13,222.92c.49,1.37,1.75,3.03,1.36,4.08-3.84,10.34-7.96,20.59-12.19,31.34.02-12.72,2.67-24.31,9-34.98l1.83-.43Z"/>
  <path class="cls-2" d="M136.2,219.68c-2.42-.65-4.61-1.24-7.93-2.13,2.36-4.7,4.28-9.59,7.25-13.73.8-1.11,4.77.05,7.96.2-2.81,6.05-5.03,10.82-7.28,15.65Z"/>
  <path class="cls-2" d="M112.92,269.31c-12.12-3.36-24.24-6.72-36.36-10.09.16-.53.31-1.07.47-1.6,13.14.01,25.03,4.39,36.57,9.95-.23.58-.46,1.16-.68,1.73Z"/>
  <path class="cls-2" d="M757.09,355.25c10.58,2.65,19.07,8.08,24.09,18.1-.28.38-.56.75-.83,1.13-8.11-5.94-16.21-11.89-24.32-17.83.35-.47.71-.93,1.06-1.4Z"/>
  <path class="cls-2" d="M84.83,233.6c-15.99-3.55-27.34-13.22-35.8-26.69,10.01,11.48,21.86,20.47,35.8,26.69Z"/>
  <path class="cls-2" d="M208.9,500.49c0,3.6-.45,7.27.12,10.78.62,3.83,2.38,7.47,3.24,11.29.4,1.76.3,3.94-.43,5.53-.42.93-2.54,1.1-4.44,1.81,1.98-6.2,2.04-6.23-.62-13.14-2.17-5.66-1.3-11.01,2.12-16.27Z"/>
  <path class="cls-2" d="M775.09,254.41c-2.88,9.6-13.24,17.46-22.39,17.18,7.53-5.78,14.64-11.24,22.39-17.18Z"/>
  <path class="cls-2" d="M223.71,64.33c-7.49,5.93-14.99,11.86-23.36,18.49,5.74-9.71,12.74-16.23,22.36-19.7.34.4.67.8,1.01,1.21Z"/>
  <path class="cls-2" d="M694.97,360.62c-6.4-5.5-12.35-10.62-18.21-15.65,7.08-2.42,17.68,6.2,18.21,15.65Z"/>
  <path class="cls-2" d="M635.83,695.22c5.18,6.22,4.95,13.33,3.49,20.66-2.73-6.6-5.53-13.18-3.49-20.66Z"/>
  <path class="cls-2" d="M86.72,446.74c-10.53,5.54-22.67-2.47-23.27-14.35,4.61,9.66,11.79,14.36,23.27,14.35Z"/>
  <path class="cls-2" d="M601.36,521.34h13.44c.07,3.66-2.43,6.29-5.49,6.76-4.56.69-6.01-3.53-7.95-6.76Z"/>
  <path class="cls-2" d="M150.8,192.87c-3.85,8.84-4.15,8.99-10.62,5.79,2.66-5.83,5.34-7.39,10.62-5.79Z"/>
  <path class="cls-2" d="M762.31,246.08c-4.97,4.31-9.94,8.63-14.92,12.94-.33-.37-.67-.75-1-1.12,4.13-5.23,7.69-11.08,14.51-13.39.47.52.94,1.05,1.41,1.57Z"/>
  <path class="cls-2" d="M203.9,531.63c4.06.28,8.12.57,12.5.88-3.03,5.45-9.39,5.59-12.5-.88Z"/>
  <path class="cls-2" d="M119.9,360.04c1.15-6.67,4.83-10.93,11.55-12.23-3.85,4.08-7.7,8.15-11.55,12.23Z"/>
  <path class="cls-2" d="M609.26,484.8v15.27c-3.61-6.46-3.86-12.38,0-15.27Z"/>
  <path class="cls-2" d="M649.18,840.93c3.13-3.57,7.31-8.34,11.49-13.11-2.01,7.11-7.26,10.87-11.49,13.11Z"/>
  <path class="cls-2" d="M615.82,244.25c-8.34,1.38-15.41-.66-22.46-6.45,8.02,2.3,15.09,4.33,22.46,6.45Z"/>
  <path class="cls-2" d="M208.98,235.8c.29,1.94.85,3.82-1.92,4.69-4.49,1.41-8.9,3.1-13.3,4.66,5.17-3.18,10.19-6.27,15.22-9.36,0,0,0,.01,0,.01Z"/>
  <path class="cls-2" d="M580.69,751.53c-2.07-3-4.14-5.99-6.21-8.99l1.11-.76c2.05,3.01,4.09,6.02,6.14,9.03-.35.24-.7.48-1.04.72Z"/>
  <path class="cls-1" d="M294.49,379.01c.49-2.37.97-4.74,1.5-7.3-3.79,2.26-7.53,4.48-12.06,7.18,1.1-2.97,1.96-5.28,3.19-8.61-3.86,2.27-6.77,3.98-10.24,6.02.7-2.04,1.22-3.54,2.07-5.99-3.1.75-5.53,1.33-8.39,2.02.81-1.48,1.46-2.68,2.68-4.93-2.54.6-4.15.98-5.18,1.22-.7-1.37-1.29-3.78-2.09-3.85-1.79-.15-3.67.86-5.94,1.53.73-1.67,1.29-2.94,2.12-4.84h-11.43c1.29-1.62,2.2-2.77,3.26-4.1-4.08-.7-7.85-1.34-11.62-1.99.02-.45.04-.9.06-1.35,1.79-.35,3.59-.7,6.13-1.19-4.81-1.66-8.97-3.1-13.14-4.53.05-.6.1-1.19.15-1.79,4.23-.72,8.46-1.45,12.86-2.2-10.26-10.1-9.91-11.42,2.13-19.45,15.76-10.51,32.98-16.26,51.77-18.02,8.22-.77,16.36-2.43,25-3.76-8.28-8.02-32.57-13.75-51.27-10.22-18.1,3.41-33.48,11.56-44.05,27.53-.49-.34-.97-.69-1.46-1.03,1.2-2.91,2.04-6.03,3.66-8.68,6.55-10.67,15.98-18.3,26.98-23.89,14.61-7.42,30.03-12.01,46.63-11.11,14.29.78,28.6,1.56,42.84,2.98,8.03.8,15.53,3.83,21.57,9.57,4.78,4.55,5.21,6.82,1.99,12.59-1.67,2.99.34,4.44,1.69,6.54,4.65,7.22,9.5,14.38,13.36,22.02,2.35,4.66,2.64,10.17.41,16.41-1.26-7.35-1.23-14.3-8.21-18.21-2.39,7.78-4.66,15.16-6.94,22.54-.71.14-1.42.28-2.13.42-5.81-5.55-11.79-10.95-17.41-16.7-9.82-10.05-21.26-17.26-35.24-19.46-19.67-3.09-36.32,3.79-50.84,16.73-.31.28-.38.84-1.04,2.38,4.65-1.6,8.47-2.93,12.29-4.23,14.39-4.91,29.05-7.48,44.22-4.71,16.68,3.04,29.79,12.07,40.29,25.03,1.46,1.8,2.18,4.8,1.93,7.1-.1.87-3.89,1.83-6.03,1.89-7.62.23-15.25.09-22.81.09,3.2-3.36,10.78-4.61,9.11-11.06-.93-3.6-5.6-6.24-9.65-10.41-3.58,15.78-10.65,25.7-26.54,25.33-12.5-.29-18.8-5.82-25.59-22.02-8.71,2.11-10.21,6.55-4.31,13.23,1.41,1.59,3.24,2.85,5.02,4.07,1.61,1.1,3.4,1.94,5.11,2.9-.2.47-.41.94-.61,1.41-6.38-2.71-12.76-5.42-19.98-8.49,14.47,14.17,32.53,12.4,49.93,14.42-8.25-.29-11.16,6.32-15.96,10.93.16-2.03.32-4.05.62-7.85-3.8,3.34-6.57,5.78-9.35,8.23-.36-.11-.71-.22-1.07-.33ZM329.03,337.87c-2.07.96-2.59,1.07-2.94,1.38-12.03,10.68-13.39,10.83-27.37,2.19-3.15-1.95-4.68.1-5.02,2.37-.31,2.08.32,4.7,1.45,6.53,4.06,6.62,10.33,9.17,17.92,8.38,7.35-.77,12.97-4.51,15.8-11.33,1.02-2.47.16-5.72.16-9.52Z"/>
  <path class="cls-1" d="M456.09,303.65c-.15-.5-.15-.7-.25-.79-7.15-7.13-7.56-9.98.33-16.58,4.66-3.89,10.71-7.51,16.55-8.34,17.28-2.44,34.78-4.86,52.17-4.66,24.86.29,46.65,8.98,61.3,30.68,1.59,2.35,2.49,5.17,3.2,8.57-28.3-33.45-59.74-29.33-92.61-9.95-.22.73-.43,1.46-.65,2.18,2.18.86,4.39,2.54,6.53,2.44,14.88-.71,29.24,1.23,42.99,7.16,1.15.49,2.8.86,3.84.4,7.7-3.37,13.88.63,20.12,4,2.91,1.57,5.68,3.5,8.25,5.59,2.97,2.41,5.98,4.89,4.35,9.63-1.63,4.75-4.04,8.39-9.54,8.88-1.12.1-2.22.38-3.28,1.63h12.5c.14.64.29,1.27.43,1.91-5.24,2.01-10.47,4.01-15.65,6,1.48.73,3.31,1.64,5.15,2.55-.03.38-.05.76-.08,1.13-3.58.25-7.17.5-11.62.8,1.79,1.96,3.03,3.31,4.79,5.24-3.59-.41-6.49-.73-10.11-1.14,1.93,2.71,3.21,4.52,4.71,6.63-3.4-1.04-6.26-1.92-9.12-2.8-.24.47-.48.94-.72,1.41.68,1.72,1.36,3.45,1.94,4.9-2.48-.99-5.01-2.01-7.54-3.02-.32.4-.63.81-.95,1.21.73,1.75,1.47,3.5,2.28,5.45-3.37.09-4.22-7.05-8.98-2.88.45,1.3.92,2.65,1.73,4.97-3.04-2.44-5.37-4.31-8.44-6.77.43,2.94.73,5.01,1.23,8.51-3.4-2.99-5.72-5.04-8.89-7.82.14,3,.22,4.74.31,6.49-.28.19-.55.38-.83.57-.72-1.06-1.7-2.03-2.12-3.2-1.19-3.34-3.02-5.23-6.96-5.09-1.54.06-3.14-1.64-4.48-3.2,14.83-1.14,29.36-1.74,39.81-14.18-3.27,1.9-6.53,3.79-9.8,5.69-.28-.34-.57-.68-.85-1.02,2.04-1.97,4.26-3.78,6.07-5.94,3.81-4.55,3.64-5.48-.96-9.1-.89-.7-1.9-1.28-3.31-2.22-4.39,14.6-13.33,22.84-29.16,21.87-14.55-.9-19-11.43-22.63-24.21-3.94,3.14-7.63,5.58-10.67,8.66-2.62,2.66-1.84,5.66,1.53,7.36,3.23,1.64,6.67,2.88,10.71,4.58-8.46,0-16.17-.02-23.89,0-6.67.02-7.86-1.8-4.93-7.51,8.1-15.83,22.76-22.23,38.65-26.67,15.11-4.22,29.69-.84,44.2,3.48,3.63,1.08,7.53,1.23,11.3,1.81.27-.66.53-1.31.8-1.97-2.19-1.79-4.24-3.8-6.59-5.35-24.58-16.25-54.67-13.1-78.09,8.14-4.61,4.18-9.12,8.49-13.68,12.73l-1.21-.69c.09-1.56-.12-3.21.32-4.66,1.37-4.44-.74-7.01-4.36-8.87-3.63-1.86-6.81-.95-9.49,1.88-6.28,6.65-8.9,14.63-8.81,23.7.17,17.33.18,34.66.26,51.99,0,1.15,0,2.31-.9,3.52-.52-6.43-1.32-12.86-1.49-19.3-.36-14.49-1.06-29.01-.41-43.46.84-18.51,9.81-32.82,25.68-43ZM511.86,357.99c9.38,0,17.15-5.38,19.19-13.74.44-1.8-.57-3.95-.91-5.93-1.7.63-3.96.76-5.02,1.96-7.22,8.15-18.26,9.36-24.79-.06-.74-1.06-3.12-2.08-4.05-1.64-1.17.56-2.34,2.66-2.25,4.02.17,2.55.72,5.36,2.04,7.48,3.56,5.71,9.18,7.92,15.77,7.92Z"/>
  <path class="cls-1" d="M452.18,438.05c4.75,2.77,7.21,7.04,7.78,12.41,1.05,9.75-3.76,16.6-11.33,21.81-1.65,1.14-4.64,2.27-6.02,1.53-4.56-2.43-6.78.62-9.18,3.12-4.18,4.36-9.33,8.35-7.02,15.78.26.84-1.17,2.76-2.26,3.36-6.62,3.61-13.45,3.94-19.84-.31-1.43-.95-2.31-3.86-2.18-5.78.23-3.52-.92-5.66-3.97-7.23-5.92-3.04-11.88-6.02-17.59-9.42-11.86-7.06-14.43-20.81-6.07-31.79,1.08-1.42,2.73-2.4,4.58-3.26-2.74,7.2-5.55,14.11-2.47,21.72.61,1.5,1.26,2.99,2.41,3.96,3.68-7.33,3.75-7.2,9.85-10.54,1.16-.64,2.02-2.71,2.14-4.19.3-3.69.1-7.42,1.25-11.58-1.09,20.05,8.75,29.38,27.63,28.28,10.74-.63,19.71-13.26,21.33-25.81.28,4.04.56,8.07.88,12.57,5.76.16,8.84,3.73,9.62,9.93,7.27-8.22,3.34-16.24.45-24.58ZM434.18,462.4c-8.37,11.36-18.18,16.76-31.49,7.75,9.38,10.62,22.63,7.41,31.49-7.75Z"/>
  <path class="cls-1" d="M357.49,521.71c7.31,4.92,10.76-1.4,15.28-3.87,6.27-3.43,12.23-7.4,18.45-10.93,4.36-2.47,8.91-2.53,13.28.17,7.29,4.5,14.53,5.08,22.06.37,4.62-2.89,9.58-2.58,14.25.14,8.19,4.78,16.33,9.63,24.41,14.59,2.26,1.39,3.91,2.26,6.69.47,1.58-1.02,5.05-.72,6.7.4,2.09,1.42,3.6,4.15,4.49,6.62.25.7-2.66,3.71-3.94,3.6-8.65-.76-17.49-1.16-25.8-3.43-12.31-3.36-24.12-4.1-36.15.6-1.79.7-4.29.19-6.29-.36-9.88-2.75-19.54-2.53-29.54.06-6.64,1.72-13.79,1.47-20.69,2.2-1.96.21-3.87,1.08-5.82,1.12-1.63.04-4.03-.18-4.73-1.21-.76-1.12-.6-3.87.31-4.9,1.97-2.23,4.67-3.82,7.04-5.65ZM380.3,517.01c.17.53.34,1.05.52,1.58,2.72.28,5.63,1.33,8.11.69,6.26-1.62,12.02-1.26,17.9,1.47,6.41,2.98,12.97,2.76,19.1-.94,4.81-2.9,9.7-2.98,14.84-1.36,2.53.8,5.05,1.71,7.65,2.2,1.46.28,3.07-.19,4.61-.31l.37-1.66c-4.24-2.8-8.37-5.8-12.76-8.35-4.47-2.6-9.36-2.73-13.78,0-6.98,4.29-13.62,3.61-20.85.44-3.4-1.49-8-2.25-11.42-1.23-5.06,1.51-9.56,4.9-14.3,7.49Z"/>
  <path class="cls-1" d="M438.51,566.4c4.25,2.89,7.63,5.2,12.13,8.26-28.14-6.6-23.53-8.31-69.42-.43,4.19-2.51,8.38-5.02,13.57-8.13-11.35-5.95-20.71-13.59-27.85-24.01,15.22,10.8,32.46,11.3,50.05,10.77,17.4-.52,34.86-.3,49.09-13.07-7.06,10.87-16.5,19.17-27.57,26.6Z"/>
  <path class="cls-1" d="M472.52,614.69c-24.37,23.29-79.77,25.87-115.5.14,18.38,7.37,37.39,11.85,57.15,12.7,20.19.87,39.05-4.8,58.34-12.85Z"/>
  <path class="cls-1" d="M439.56,65.64c4.83-2.52,8.62-2.13,11.26.85.73.82-1.46,4.23-2.59,7.16-3.3-3.05-5.67-5.24-8.68-8.01Z"/>
  <path class="cls-1" d="M488.2,70.65c1.64-1.41,3.21-3.01,3.39-2.86,1.41,1.12,3.05,2.41,3.58,4,.27.81-1.59,2.33-2.48,3.53-1.32-1.37-2.63-2.74-4.48-4.67Z"/>
  <path class="cls-1" d="M468.49,70.42c3.04-3.71,5.71-3.67,8.06-1.27.36.37-.87,3.13-1.06,3.1-2.37-.43-4.68-1.17-7.01-1.83Z"/>
  <path class="cls-1" d="M367.7,63.78c-1.07.86-2.06,2.33-3.23,2.48-3.96.5-7.49,1.25-8.97,5.66-.12.36-2.23.62-2.55.23-.6-.75-1.13-2.49-.71-2.97,1.67-1.92,3.46-4.16,5.69-5.06,2.78-1.12,6.05-1.04,9.11-1.48.22.38.44.76.66,1.15Z"/>
  <path class="cls-1" d="M276.93,90.45c1.94-1.43,2.87-2.61,4.01-2.85,1.97-.41,4.06-.29,6.09-.17.11,0,.5,2.69.09,2.92-1.89,1.07-3.97,2-6.1,2.37-.93.16-2.12-1.12-4.09-2.27Z"/>
  <path class="cls-1" d="M264.57,97.49c.38-1.69.24-4.31,1.25-4.86,1.8-1,4.29-.76,6.5-1.03.24.65.48,1.3.72,1.96-2.15,1.67-4.3,3.34-6.46,5.01-.67-.36-1.34-.72-2-1.08Z"/>
  <path class="cls-1" d="M326.04,73.17c-1.53,1.65-2.48,2.66-3.42,3.68-1.16-1.42-2.8-2.7-3.28-4.33-.24-.81,1.64-2.25,2.56-3.4,1.2,1.17,2.4,2.35,4.14,4.04Z"/>
  <path class="cls-1" d="M417.18,54.92c-2.84,5.11-5.27,10.51-8.67,15.21-2.35,3.25-7.48,2.5-10.6-.63-8.63-8.65-7.6-25.45,2.16-32.89,1.07-.82,3.2-1.24,4.37-.75,4.76,2.01,11.57,13.27,11.51,18.38.41.23.83.46,1.24.68ZM411.82,52.41c-.36-5.48-2.86-9.51-6.68-12.73-.76-.64-2.92-.64-3.75-.02-6.94,5.22-8.01,19.97-2.09,26.38,3.18,3.44,6.27,3.27,8.2-.98,1.83-4.03,2.9-8.41,4.31-12.63Z"/>
  <path class="cls-2" d="M329.03,337.87c0,3.81.86,7.06-.16,9.52-2.82,6.81-8.44,10.56-15.8,11.33-7.59.79-13.86-1.76-17.92-8.38-1.12-1.83-1.76-4.45-1.45-6.53.34-2.27,1.88-4.32,5.02-2.37,13.97,8.65,15.34,8.5,27.37-2.19.35-.31.87-.42,2.94-1.38Z"/>
  <path class="cls-2" d="M511.86,357.98c-6.59,0-12.22-2.2-15.77-7.92-1.32-2.12-1.87-4.93-2.04-7.48-.09-1.35,1.08-3.46,2.25-4.02.92-.44,3.31.58,4.05,1.64,6.52,9.43,17.57,8.22,24.79.06,1.06-1.2,3.31-1.33,5.02-1.96.34,1.99,1.35,4.14.91,5.93-2.05,8.36-9.82,13.74-19.19,13.74Z"/>
  <path class="cls-2" d="M434.18,462.4c-8.86,15.16-22.1,18.37-31.49,7.75,13.3,9.01,23.12,3.61,31.49-7.75Z"/>
  <path class="cls-2" d="M380.3,517.01c4.74-2.59,9.24-5.98,14.3-7.49,3.42-1.02,8.02-.26,11.42,1.23,7.23,3.16,13.87,3.85,20.85-.44,4.42-2.72,9.31-2.59,13.78,0,4.39,2.55,8.52,5.55,12.76,8.35l-.37,1.66c-1.54.13-3.14.59-4.61.31-2.6-.49-5.12-1.4-7.65-2.2-5.15-1.63-10.04-1.55-14.84,1.36-6.13,3.7-12.69,3.92-19.1.94-5.88-2.73-11.64-3.09-17.9-1.47-2.48.64-5.4-.41-8.11-.69-.17-.53-.34-1.05-.52-1.58Z"/>
  <path class="cls-2" d="M411.82,52.41c-1.41,4.22-2.48,8.6-4.31,12.63-1.93,4.25-5.02,4.42-8.2.98-5.92-6.41-4.85-21.16,2.09-26.38.82-.62,2.99-.62,3.75.02,3.81,3.23,6.31,7.26,6.68,12.73Z"/>
</svg>