<?xml version="1.0" encoding="UTF-8"?>
<svg id="Layer_1" data-name="Layer 1" xmlns="http://www.w3.org/2000/svg" viewBox="0 0 554.98 854.4">
  <defs>
    <style>
      .cls-1 {
        fill: #000;
      }

      .cls-1, .cls-2 {
        stroke-width: 0px;
      }

      .cls-2 {
        fill: #fff;
      }
    </style>
  </defs>
  <g>
    <path class="cls-1" d="M124.27,77.14c-9.57,5.02-27.94,14.65-36.67,34.38-6.73,15.2-4.98,30.22-2.89,39.29-7.97,3.68-27.33,13.86-29.1,30.01-.27,2.45-.37,2.94,5.91,23.19,6.44,20.78,6.96,25.38,12.28,29.56,5.3,4.16,11.63,4.95,15.92,5-21.25,30.64-30.75,56.78-32.29,64.57-2.27,11.53-2.27,22.74-2.27,22.74h0c-.12,4.45-.01,7.3,0,8.64.13,15.71-11.79,31.12-29.56,62.75-5.97,10.63-8.95,16.6-6.82,22.74,2.6,7.49,11.87,12.45,14.1,13.64,8.1,4.33,16.27,4.87,17.03,9.48.07.42-.02,1.06-.21,2.35-.23,1.59-.9,5.94-3.77,10.4-2.31,3.6-3.4,3.93-6.03,8-.55.86-1.05,1.9-1.46,3.25-.34,1.14-1.78,5.96.26,10.67,2.18,5.04,6.04,4.63,7.04,8.69,1.02,4.16-2.82,5.51-2.89,11.66,0,.4.01,6.96,4.49,11.03,3.29,2.99,5.9,1.29,7.63,3.34,3.63,4.33-5.64,13.68-7.81,27.86-.19,1.24-1.93,13.35,2.57,21.9,1.69,3.2,8.04,13.11,47.79,16.26,43.06,3.41,70.74-3.7,77.13-5.17,6.88-1.58,12.55-3.18,16.47-4.36,3.36.19,9.22,1.01,14.91,4.82,3.58,2.4,7.13,6,11.12,14.15,3.23,6.6,10.53,21.44,8.43,34.51-2.17,13.56-14.15,24.37-44.56,39.11-40.5,19.62-60.99,20.69-85.49,30.01-53.42,20.32-98.47,69.39-90.95,85.49,10.57,22.61,128.52-11.79,169.16-23.65,59.29-17.29,104.88-37.91,137.33-54.57,3.06-1.57,13.96-7.24,24.29-13.2,24.75-14.27,42.18-27.96,70.39-50.28,26.2-20.73,15.98-14.43,38.06-31.88,17.67-13.96,28.94-21.73,27.12-26.64-1.22-3.28-7.35-2.77-18.56-4.28-10.74-1.45-31.59-4.26-43.77-14.01-17.86-14.29-19.24-45.14-12.96-48.43,4.44-2.33,10.29,11.07,25.24,12.96,12.78,1.61,28.84-5.62,31.94-16.26,3.86-13.24-14.12-25.61-8.96-34.08,3.21-5.28,10.96-.94,19.53-7.72,7.61-6.01,13.37-17.25,11.84-27.75-2.13-14.68-17.49-20.96-15.08-26.09,2-4.25,12.49.14,24.63-3.92,13.25-4.43,20.35-16.21,24.56-23.19,13.43-22.29,10.51-43.03,12.28-64.12,4.06-48.49,28.66-48.13,32.74-85.95,3.51-32.57-13.72-42.26-41.61-87.93-14.59-23.89-25.47-39.5-32.06-62.13-1.67-5.72-3.62-13.66-9.34-23.33-2.09-3.53-12.17-20.55-28.65-28.65-17.01-8.35-29.4,1.28-57.51.14-31.03-1.26-32.48-15.25-75.4-25.05-26.9-6.14-42.88-9.79-61.84-4.55-34.27,9.47-33.39,35.59-76.4,55.48-1.74.8-7.66,2.75-16.3,6.11-16.11,6.27-24.2,9.42-30.99,12.99Z"/>
    <path class="cls-2" d="M124.27,77.14c-30.41,14.89-47.35,39.11-39.53,73.66-8.69,4.18-17.4,9.37-23.47,17.07-3.54,4.7-6.62,10.86-5.35,16.87,1.41,6.24,5.41,18.17,7.27,24.55,1.43,4.66,2.77,9.36,4.32,13.98,1.44,4.65,3.86,9.14,8.24,11.59,4.2,2.6,9.2,3.61,14.09,3.64-6.18,8.95-11.89,18.22-17.03,27.8-7.33,14.34-14.99,29.19-16.63,45.43-.61,5.37-.98,10.78-.93,16.19-.05,4.05.2,8.15-.45,12.17-1.14,6.7-4.04,12.96-7.13,18.95-8.79,16.78-19.7,32.42-27.73,49.58-6.99,14.67,9.21,24.21,21.06,28.32,2.52.98,5.21,1.73,7.38,3.43,1.05.86,1.89,2.23,1.67,3.67-.17,1.35-.36,2.69-.67,4.02-.91,3.99-2.84,7.72-5.46,10.85-2.65,3.03-5.24,6.3-5.82,10.39-.74,3.9-.12,8.29,2.62,11.29,1.78,1.93,4.83,3.13,5.24,6.07.75,2.81-1.54,5.2-2.31,7.71-1.93,5.87.98,14.99,7.4,16.49,8.33.48,3.99,8.37,1.94,12.89-2.29,4.89-4.39,9.9-5.39,15.22-.95,5.29-.99,10.78-.05,16.08,1.29,7.5,4.86,11.85,11.8,15.11,25.15,11.18,72.83,10.44,100.13,5.99,10.66-1.77,21.2-4.34,31.57-7.42,5.24.21,10.47,1.81,14.88,4.68,4.46,2.81,7.63,7.21,10.11,11.77,2.41,4.61,4.64,9.3,6.45,14.19,6.15,16.47,5.66,30.56-8.61,42.62-7.89,6.81-17.07,11.87-26.27,16.65-9.24,4.71-18.68,9.06-28.33,12.89-19.2,7.97-39.65,12.2-59.28,18.8-29.2,10.44-55.82,28.19-77.17,50.64-3.52,3.79-6.85,7.75-9.86,11.95-4.24,6.26-8.88,13.12-8.77,20.91.78,8.45,11.29,9.66,18.11,10.19,10.32.59,20.68-.54,30.91-1.96,51.16-8.12,101.14-22.85,150.44-38.5,39.3-13.17,77.56-29.46,114.21-48.8,18.36-9.62,36.08-20.4,52.73-32.76,16.62-12.36,32.95-25.19,48.94-38.35,7.8-6.83,15.41-13.9,23.67-20.19,0,0,12.24-9.59,12.24-9.59,3.78-3.27,15.7-11.4,15.25-16.34-.36-3.77-10.62-3.39-13.7-3.99-12.87-1.52-25.87-3.4-37.93-8.46-15.52-6.19-24.04-20.11-26.57-36.15-.69-5.01-1.71-15.38,2.76-18.96,1.2-.93,2.91-.29,4.01.44,2.22,1.49,4.03,3.34,6.04,4.96,1.98,1.64,4.08,3.15,6.34,4.36,6.79,3.77,15.02,3.98,22.39,1.88,9.32-2.49,20.35-9.85,18.87-20.74-.75-5.12-3.55-9.62-6.1-14.05-1.84-3.37-4.22-6.91-4.17-10.93.02-2.76,2-5.35,4.67-6.01,3.78-.96,7.76-.81,11.35-2.4,9.28-4.28,15.36-14.51,16.43-24.47.88-7.83-2.79-15.26-8.08-20.84-2.4-2.97-6.06-5.39-7.29-9.17-.61-5.11,6.45-4.02,9.67-4.12,2.59.04,5.17,0,7.73-.26,5.13-.5,10.11-2.16,14.5-4.85,6.61-4.1,11.61-10.26,15.68-16.82,2.68-4.31,5.32-8.99,7.14-13.73,5.93-14.52,5.9-30.39,6.5-45.84.56-12.91,2.36-26.06,7.6-37.99,5.43-13.24,15.89-23.76,21.2-37.04,3.27-8.38,4.86-17.54,4.83-26.53.31-16.33-8.02-29.48-17.05-42.38-12.07-16.87-23.3-34.32-34.02-52.07-8.16-13.21-16.12-26.74-21.07-41.55-1.73-4.89-2.9-9.96-4.6-14.85-6.52-18.87-23.54-41.57-43.91-45.75-9.01-1.54-18.05.81-26.99,1.91-10.27,1.41-20.75,1.69-31.03.22-10.39-1.38-19.76-6.25-28.95-10.98-9.23-4.73-18.97-8.4-28.96-11.15-9.88-2.52-20.32-4.93-30.33-6.84-10.16-1.91-20.61-3.1-30.9-1.6-5.14.7-10.15,2.12-15.02,3.87,0,0-3.56,1.55-3.56,1.55-.59.27-1.2.49-1.77.8l-1.7.95c-11.56,6.14-19.67,16.76-28.71,25.92-9.95,10.25-21.9,18.41-34.86,24.36-10.95,4.02-21.86,8.15-32.67,12.53-4.8,1.95-9.59,3.96-14.18,6.36h0ZM124.27,77.14c4.6-2.4,9.38-4.42,14.18-6.37,10.81-4.38,21.72-8.52,32.66-12.55,12.96-5.95,24.88-14.12,34.83-24.37,9.04-9.17,17.14-19.81,28.71-25.96,0,0,1.7-.95,1.7-.95.57-.31,1.18-.53,1.77-.8,0,0,3.57-1.56,3.57-1.56,4.87-1.75,9.9-3.21,15.04-3.89,10.3-1.51,20.77-.33,30.94,1.58,10.02,1.89,20.46,4.31,30.35,6.82,10,2.74,19.76,6.41,29,11.14,9.19,4.72,18.53,9.56,28.9,10.94,10.26,1.46,20.72,1.17,30.97-.24,8.95-1.11,18.03-3.47,27.06-1.92,20.5,4.14,37.62,27.05,44.15,45.89,1.7,4.9,2.88,9.96,4.61,14.85,4.96,14.78,12.91,28.26,21.07,41.47,10.74,17.75,21.96,35.16,34.05,52.03,9.08,12.98,17.45,26.15,17.15,42.6.04,9.04-1.56,18.26-4.84,26.7-5.31,13.31-15.75,23.82-21.18,37.06-5.21,11.88-6.98,24.94-7.53,37.83-.53,18-.87,36.89-9.75,53.11-4.96,9.04-10.81,18.2-19.77,23.74-4.46,2.74-9.53,4.43-14.74,4.95-3.89.44-7.79.21-11.68.26-2.23-.01-5.74.48-5.21,3.43,1.23,3.58,4.8,5.98,7.16,8.88,5.38,5.67,9.17,13.31,8.25,21.3-1.06,10.19-7.34,20.65-16.8,25.01-3.63,1.62-7.66,1.48-11.41,2.43-7.69,2.61-2.96,11.3-.11,15.99,3.85,6.53,8.57,14.41,5.18,22.09-5.48,11.62-21.88,16.84-33.89,14.5-5.17-1.04-9.83-3.8-13.83-7.14-2.02-1.63-3.87-3.51-5.97-4.9-1.03-.68-2.28-1.13-3.23-.44-4.03,3.47-3.1,13.31-2.41,18.23,2.47,15.73,10.87,29.5,26.14,35.55,11.92,4.99,24.92,6.87,37.71,8.37,2.57.29,5.15.48,7.74.83,2.53.45,6.12.75,6.68,3.84.26,2.92-1.96,5.01-3.69,6.98-3.67,3.74-7.8,6.91-11.85,10.15l-12.24,9.6c-8.26,6.29-15.84,13.35-23.63,20.19-16.02,13.2-32.31,26.02-48.96,38.42-16.66,12.39-34.45,23.23-52.82,32.87-36.68,19.41-75.01,35.69-114.37,48.84-49.39,15.64-99.38,30.33-150.62,38.43-10.29,1.41-20.67,2.54-31.08,1.94-7.22-.46-18.13-2.06-18.85-10.94-.15-8.01,4.62-15.07,8.93-21.42,3.04-4.23,6.4-8.21,9.94-12.01,21.45-22.52,48.16-40.32,77.49-50.78,19.67-6.59,40.06-10.79,59.27-18.74,9.63-3.81,19.05-8.15,28.28-12.85,9.16-4.74,18.32-9.8,26.16-16.55,14.08-11.9,14.53-25.65,8.47-41.97-1.79-4.84-4.01-9.54-6.4-14.12-2.44-4.5-5.54-8.81-9.92-11.58-4.17-2.78-9.77-4.41-14.43-4.63-10.39,3.08-20.94,5.64-31.64,7.41-27.49,4.45-75.14,5.13-100.4-6.11-6.94-3.32-10.72-7.65-12.02-15.43-2.07-10.93.57-21.75,5.49-31.54,1.08-2.44,2.38-4.89,2.88-7.51.23-1.29.07-2.7-.86-3.62-1.42-1.37-3.92-.85-5.64-1.89-5.35-3.12-7.44-10.57-5.71-16.31.43-1.31,1.13-2.5,1.71-3.7,1.35-2.34.7-5.47-1.43-7.1-6.44-4.04-7.48-11.43-4.65-18.14,1.74-3.74,5-6.4,7.08-9.9,1.41-2.29,2.43-4.81,3.05-7.43.31-1.31.5-2.65.67-3.98.21-1.3-.56-2.56-1.56-3.38-2.1-1.66-4.8-2.42-7.28-3.38-5.11-1.78-10.08-4.14-14.4-7.45-7.24-5.45-10.9-12.36-6.81-21.28,8.04-17.17,18.98-32.82,27.78-49.58,3.1-5.98,5.98-12.2,7.12-18.88.66-4.01.41-8.08.46-12.14-.04-5.42.33-10.83.95-16.21,1.65-16.27,9.33-31.13,16.68-45.49,5.11-9.36,10.91-19.29,17.04-27.56-4.86-.06-9.84-1.08-14.02-3.67-4.38-2.44-6.87-7.01-8.29-11.67-1.55-4.63-2.89-9.32-4.31-13.98,0,0-4.29-13.99-4.29-13.99-.7-2.34-1.41-4.67-2.06-7.02-.59-2.36-1.47-4.73-1.21-7.19.48-4.89,2.71-9.45,5.68-13.3,6.05-7.64,14.86-13.04,23.47-17.01-7.77-34.47,9.05-58.76,39.6-73.67h0Z"/>
  </g>
  <g>
    <path class="cls-1" d="M486.81,584.23c-9.01-7.44-56.34,55.98-147.33,112.77-21.89,13.66-69.84,41.63-135.51,63.66-25.49,8.55-47.2,15.83-78.21,20.92-66.72,10.94-123.68,3.04-125.51,13.64-.57,3.32,4.89,4.78,14.55,17.28,9.13,11.81,12.5,21.17,14.6,24.92,14.85,26.62,93.63,13.28,93.63,13.28,71.37-12.09,116.37-31.34,197.49-61.63,93.71-34.99,129.08-44.92,139.02-77.52,4.92-16.13-.3-24.99,7.28-60.03,9.56-44.22,25.02-63.16,20.01-67.3Z"/>
    <path class="cls-2" d="M486.78,584.26c-3.97-3.01-14.86,7.48-18.15,10.06-5.48,4.75-10.81,9.67-16.16,14.56-85.29,81.66-185.92,139.12-300.7,167.75-35.35,8.47-71.76,10.86-107.98,11.9-10.86.42-21.77.46-32.55,1.83-3.44.61-7.37.95-10,3.39-.59.61-.91,1.48-.76,2.31.83,2.52,3.48,4.03,5.23,5.95,7.87,7.55,14.37,16.5,19.42,26.15,1.72,3.17,3.07,6.6,4.87,9.71,1.86,3.06,4.6,5.52,7.66,7.4,6.18,3.76,13.33,5.58,20.42,6.76,21.46,3.19,43.51,1.42,64.86-1.74,83.05-13.5,160.04-48.95,238.77-77.03,19.58-7.39,39.35-14.42,58.2-23.54,19.3-9.35,36.78-21.44,40.79-44,1.75-10.31.86-20.91,2.17-31.3,1.11-10.43,3.12-20.74,5.64-30.91,3.75-15.28,9.14-30.09,15.29-44.55,1.44-3.64,3.14-7.23,3.84-11.1.22-1.26.16-2.71-.85-3.6h0ZM486.84,584.19c3.05,2.54-1.91,11.69-2.91,14.84-6.09,14.48-11.43,29.29-15.13,44.57-2.49,10.17-4.46,20.47-5.53,30.88-1.28,10.42-.36,20.97-2.07,31.36-3.98,22.79-21.5,35.08-40.96,44.6-37.93,17.87-78.07,30.48-117.1,45.68-65.38,24.61-131.64,51.08-201.69,57.5-19.74,1.28-46.73,2.31-64.11-7.85-3.1-1.92-5.91-4.45-7.82-7.6-1.83-3.17-3.12-6.54-4.86-9.75-3.33-6.43-7.33-12.5-11.91-18.1-3.38-4.28-7.39-7.94-11.28-11.76-5.38-6.04,5.49-8.09,9.71-8.59,10.81-1.35,21.73-1.36,32.6-1.76,21.74-.6,43.5-1.69,65.08-4.41,28.84-3.39,57.06-10.52,84.5-19.92,27.58-8.98,54.64-19.5,80.86-31.91,13.07-6.16,26.07-12.82,38.71-19.8,50.96-27.9,96.81-64.08,139.37-103.44,5.37-4.87,10.72-9.78,16.21-14.51,4.46-3.55,14.25-12.92,18.33-10.01h0Z"/>
  </g>
  <path class="cls-2" d="M45.34,461.38c.28-.1.6-.15,1.23-.26,3.86-.66,6.99-.08,8.64.26,7.01,1.42,13.85,3.73,17.27,4.93,4.09,1.44,6.06,2.3,8.01,3.29,2.24,1.14,4.34,2.49,5.81,3.32,5.64,3.16,7.32,4.85,8.54,4.1,1.05-.65.79-2.49,1.46-2.55.63-.05.81,1.61,2.23,3.4,1.73,2.17,3.76,2.59,3.58,3.24-.16.57-1.86.7-3.07.51-.1-.01-.19-.03-.21-.04,0,0,0,0,0,0-1.02-.21-2.37-.74-2.37-.74s-.21-.08-2.1-.68c-3.31-1.04-8.32,1.82-12.15,1.29-.37-.05-2.27-.33-3.2-.46-1.58-.22-1.59-.23-1.68-.24-3.38-.51-4.99-2.18-8.27-2.67-1.18-.18-2.04-.12-3.22-.04-8.75.59-12.44,6.93-18.03,5.54-3.33-.82-5.68-3.97-5.94-4.33-.43-.59-1.23-1.84-1.76-3.56-1.61-5.23.86-12.72,5.23-14.32Z"/>
  <path class="cls-2" d="M59.81,513.51c11.02-.26,21.34-3.86,30.01-10.69-7.14,8.51-19.11,12.68-30.01,10.69h0Z"/>
  <path class="cls-2" d="M216.5,229.29c19.12,21.43,50.8,31.2,77.64,19.21,3.82-1.5,7.47-3.44,11.03-5.57-6.37,5.35-13.98,9.3-22.11,11.58-24.69,7.38-52.35-4.27-66.57-25.22h0Z"/>
  <path class="cls-2" d="M216.5,229.29c2.64,26.38,26.87,52.93,54.76,46.51,16.1-4.07,27.84-17.34,33.92-32.87-2.31,17.16-15.14,33.67-32.41,38.57-30.56,8.55-59.86-22.28-56.26-52.21h0Z"/>
  <path class="cls-2" d="M230.52,264.88c8.32,26.86,40.94,40.42,64.05,22.68,7.12-5.27,12.57-12.84,15.61-21.44-1.82,9.07-6.99,17.39-14.13,23.32-23.53,20.13-60.17,5.19-65.53-24.57h0Z"/>
  <path class="cls-2" d="M244.73,287.48c6.73,15.83,24.93,29.66,42.38,22.54,16.87-6.68,25.52-26.4,23.07-43.89,5.02,18.14-3.93,39.63-21.93,46.79-18.58,7.66-38.68-7.51-43.51-25.43h0Z"/>
  <path class="cls-2" d="M260.52,307.91c14.41,11.85,41.62,18.12,53.31.47,5.73-10.9,2.52-23.96-2.84-34.98,12.7,12.23,16.27,38.85-2.19,47.91-16.78,8.58-38.11,1.32-48.29-13.39Z"/>
  <path class="cls-2" d="M205.59,212.46c12.07,30.4,49.15,29.2,74.89,18.64,3.4-1.32,8.24-3.45,11.51-4.99-2.95,2.08-7.66,4.68-10.9,6.39-25.62,13.42-66.67,13.46-75.5-20.03h0Z"/>
  <path class="cls-2" d="M196.27,179.47c1.76,31.65,19.41,43.42,49.06,45.84,15.6,2.32,30.84,2.5,46.66.8-9.96,3.6-20.6,5.45-31.3,5.7-16.12-.25-33.02-.68-47.4-8.98-14.62-8.7-20.36-27.71-17.02-43.35h0Z"/>
  <path class="cls-2" d="M322.91,324.33c10.85,11.64,10,32.66-2.73,42.75,8.77-13,9.28-28.84,2.73-42.75h0Z"/>
  <path class="cls-2" d="M289.28,322.01c12.83,3.26,27.45,5.47,39-1.47,11.58-7.05,17.68-20.03,19.18-33.5,1.8,6.94,1.21,14.64-1.62,21.59-9.27,23.99-37.23,27.3-56.56,13.38h0Z"/>
  <path class="cls-2" d="M338.11,341.05c.69.01,1.74.02,3,0,6.79-.11,44.38-.71,69.53-29.11,14.49-16.37,18.13-34.45,19.88-43.21,2.78-13.92,1.1-29.08-1.06-42.66,5.07,13.6,6.55,28.65,4.34,43.2-2.88,18.97-15.36,40.01-34.14,54.42-5.79,4.44-28.04,21.51-55.55,18.36-2.51-.29-4.58-.69-6-1Z"/>
  <path class="cls-2" d="M335.62,325.08c22.98-5.51,47.77-13.78,61.28-34.39,12.7-20.53,23.23-42.21,32.27-64.64,0,0,.3.09.3.09-10.9,44.71-42.7,98.89-93.84,98.93h0Z"/>
  <path class="cls-2" d="M338.5,341.52c17.86,22.73,36.2,45.02,56.61,65.43,17,17.02,27.26,16.95,39.64-4.54,10.48-20.28,21.09-41.28,28.95-62.68,7.32-21.66,7.58-45.91,5.04-68.16,5.41,22.61,5.09,46.86-1.98,69.14-3.5,11.22-8.9,21.62-14.06,31.94-5.17,10.33-10.23,20.8-16.49,30.64-13.79,21.54-23.75,21.59-42.25,4.93-21.37-19.2-40.89-42.64-55.44-66.71h0Z"/>
  <path class="cls-2" d="M323.02,384.75c13.56,13.36,24.12,30.88,26.06,50.16,1.11,9.48-1.25,19.09,1.43,28.31,4.93,17.5,20.8,34.25,40.11,31.85,8.99-.83,18.21-4.9,22.7-12.55,3.95-7.07,5.29-18.72-.76-24.87-7.4-5.94-18.23,1.12-23.14,7.72,0,0-.26-.18-.26-.18,4.67-7.87,16.15-16,24.97-9.41,7.58,7.19,6.6,19.72,2.06,28.39-7.95,13.07-26.18,16.71-39.89,11.78-13.82-5.33-22.27-19.06-26.83-32.45-2.86-9.34-1.44-19.16-2.96-28.31-1.26-9.24-4.06-18.25-8.28-26.62-4.57-9.91-10.67-16.56-15.22-23.85h0Z"/>
  <path class="cls-2" d="M438.91,485.69c4.86,5.31,6.69,13.98,3.26,20.93-5.22,9.35-19.9,16.96-28.05,6.9-9.18-10.2.89-25.59,13.76-22.45,0,0-.03.31-.03.31-6.69.16-13.14,4.87-13.87,11.51-.89,6.05,3.89,12.82,10.41,13.78,6.85.95,13.35-4.96,15.41-11.11,2.44-6.17,1.77-13.23-1.16-19.71l.26-.17h0Z"/>
  <path class="cls-2" d="M439.84,395.5c-1.78,4-4.5,8.13-5.52,12.17.03.63.47,1.34.95,1.99,9.97,10.49,26.29,15.56,32.93,29.38,3.88,10.45-9.38,15.69-16.2,20.39-6.27,3.69-14.14,9.6-21.72,5.74-14.75-8.15-12.46-34.05,4.22-38.41,8.59-1.45,14.37,8.29,13.16,15.8,0,0-.31-.02-.31-.02.09-6.67-5.13-14.97-12.37-13.4-13.36,4.41-15.14,26.23-3.36,33.42,6.38,3.35,13.6-1.89,19.54-4.63,5.97-3.43,14.22-6.38,16.57-13.35,1.9-12.54-27.44-23.35-34.15-33.77-.53-.87-1.1-1.83-1.11-3.09,0-1.38.67-2.06,1.07-2.92,1.75-3.41,3.93-6.43,6.03-9.5l.26.17h0Z"/>
  <path class="cls-2" d="M328.44,372.66c10.45,4.78,20.19,11.81,27.26,21.17,12.43,19.28,18.61,42.7,22.04,65.16.98,7.56,2.66,18.04,12.33,17.67,2.74.03,5.54-.63,8.27-1.49l.12.29c-5.1,2.77-12.05,4.55-17.15.48-2.6-2.03-3.92-5.05-4.88-7.84-2.53-8.35-2.94-17.06-4.61-25.51-2.22-11.14-4.11-22.59-8.8-33.02-7.28-15.65-21.71-26.65-34.58-36.9h0Z"/>
  <path class="cls-2" d="M191.5,116.6c89.45,22.3,169.3,83.57,212.16,165.42-50.23-76.82-125.79-134.81-212.16-165.42h0Z"/>
  <path class="cls-2" d="M237.55,83.84c83,23.52,146.29,92.36,181.61,168.98-43.31-72.4-101.87-137.05-181.61-168.98h0Z"/>
  <path class="cls-2" d="M175.44,124.87c10.34-8.73,21.99-14.82,33.33-21.89,3.55-2.68,6.63-5.9,9.64-9.28,11.97-15.36,34.03-19.46,50.92-9.78,0,0-.17.6-.17.6-24.24-2.33-41.3,3.95-59.11,20-6.33,6.42-12.88,13.02-21.41,16.55-4.12,1.91-8.39,3.53-12.94,4.35l-.26-.56h0Z"/>
  <path class="cls-2" d="M266.45,216.27c-8.02-13.28-18.86-26.87-34.38-30.89-7.84-2.26-15.62-.24-23.78-.83-8.5-.62-16.55-4.05-23.52-8.24-6.46-4.27-13.55-5.57-19.85-1-3.01,2.08-6.27,5.06-10.27,6.99-19.59,8.75-44.78,2.14-58.02-14.64-18.7-27.09-.29-73.06,30.36-82.73,15.25-5.34,31.45-7.16,46.15-13.91,10.94-4.93,20.48-12.27,28.74-20.9,8.21-8.99,15.74-18.73,26.1-25.63,20.69-14.36,47.92-18.41,71.63-8.76,25.86,11.54,7.73,43.64-10.89,52.46-11.48,6.54-24.82,1.27-36.9,2.36-11.39.88-22.5,5.47-31.65,12.36-3.64,2.54-6.92,6.01-11.16,8.55-.61.31-1.44.72-2.76.77-5.96-.15-5.27-8.04-4.32-11.59,3.14-12.32,9.93-23.23,18.66-32.32,11.2-11.45,31.08-20.54,46.01-10.73,4.55,3.43,11.44,10.39,8.67,16.59-5.36,6.2-23.41-1.22-30.12-3.13,0,0,.19-.59.19-.59,7.63,1.95,15.61,4.28,23.47,4.11,10.79-.24.39-11.85-3.96-14.37-25.2-13.09-52.5,18.84-57.32,41.64-.41,1.78-.53,4.18-.28,4.96-.03-.12-.73-.56-1.1-.5,2.58-1.79,6.79-5.81,10.26-8.39,10.05-7.71,22.12-12.84,34.86-13.98,8.02-.96,16.57,1.18,24.24,1.03,14.13-.69,27.53-14.31,30.6-27.75,3.07-17.26-18.57-19.85-31.42-21.18-15.51-1.22-31.21,3.78-44.34,12-10.15,6.25-17.96,15.63-26.26,24.2-8.76,8.6-18.82,15.78-30.04,20.78-14.83,6.6-31.26,8.29-46.33,13.8-28.42,9.19-44.68,53.29-26.93,77.73,9.45,11.69,25.98,17.24,40.8,15.81,8.22-.67,13.83-4.3,20.41-9.42,5.55-3.96,13.52-4.73,19.7-1.81,8.75,4.66,17.1,10.5,27,11.35,7.84.79,16.47-.84,24.28,1.78,16.25,4.87,26.74,19.41,34.05,33.74,0,0-.55.3-.55.3h0Z"/>
  <path class="cls-2" d="M276.5,100.69c14.84,2.61,30.04,1.68,43.58-4.88,9.12-4.66,15.7-12.76,25.21-16.97,9.63-4.69,21.5-2.69,30.08,3.23,4.32,2.83,8.11,6.33,11.4,10.18l-.22.22c-17.97-14.63-33.87-17.84-53.13-3.82-8.57,5.4-16.95,11.43-26.82,14.35-9.65,2.62-21.81,2.17-30.11-2.31h0Z"/>
  <path class="cls-2" d="M321.6,130.68c34.62-25.34,50.27,2.85,64.97-9.44,2.41-2.04,4.07-4.93,5.46-7.9-.73,3.21-2.13,6.35-4.38,8.98-7.58,8.75-19.6,2.94-28.84,1.15-12.81-2.66-25.66,1.55-37.21,7.21h0Z"/>
  <path class="cls-2" d="M463.73,388.84c18.02-46.22,25.78-96.84,17.73-146.01-7.16-47.55-13.84-69.29-58.34-92.82-20.73-10.9-35.38-28.58-37.5-52.59-1.78-20.85-3.19-51.14,20.49-60.14,11.1-3.64,23.2-1.33,33.37,3.8,21.33,10.09,29.4,35.55,27.12,57.6-1.14,10.79-4.08,22.97-9.22,31.86,8.27-20.06,11.41-43.72,2.62-64.01-12.12-30.34-64.06-42.6-70.64-2.05-3.19,20.88-2.49,44.94,9.91,62.94,6.23,8.94,15.33,15.43,24.74,21.12,19.03,10.98,38.26,24.61,47.01,45.65,6.54,15.41,9.37,31.94,12.6,48.26,9.17,48.98.94,102.16-19.87,146.38h0Z"/>
  <path class="cls-2" d="M426,92.73c.67,5.84.31,11.75-.48,17.58-.25,1.21-.34,2.63-1.26,3.64-.2.25-.67.36-.98.27-3.94-2.16-5.25-7.7-6.27-11.73-1.62-7.9.58-16.37,5.81-22.61,8.12-8.83,13.95,6.17,15.25,12.68,2.64,11.72,2.17,23.96-1.6,35.44-8.41,19.82-30.8-10.43-34.04-20.6-6.25-14.51-5.77-33.97,6.26-45.51,13-11.42,35.86-1.75,40.1,14.01,4.17,15.29,7.37,30.44,9.47,46.14,1.24,7.76-1.55,15.78-.99,23.35.98,7.6,5.08,14.5,9.32,20.97,4.35,6.56,7.33,13.94,9.2,21.53-2.19-7.5-5.42-14.7-9.88-21.07-4.44-6.37-8.86-13.2-10.15-21.22-.72-4.06.31-8.08.62-11.85,1.22-11.68-2.1-23.01-4.52-34.4-2.38-9.35-3.67-19.13-7.76-27.8-4.93-7.44-14.76-12.49-23.69-11.69-11.87,1.13-17.41,13.48-18.62,24.26-1.98,17.27,8.85,39.96,24.92,47.31,8.14,2.47,8.6-10.06,9.82-15.52,1.63-11.12.93-23.58-4.47-33.49-5.41-9.2-11.65,3.03-13.26,8.57-2.07,7.13-.91,15.82,3.64,21.76,3.4,4.73,3.97-18.21,3.56-20.02h0Z"/>
  <path class="cls-2" d="M474.03,115.12c7.14,30.07,12.01,60.48,16.6,90.99,1.56,10.05,4.78,20.25,11.77,27.63,6.74,6.85,16.73,12.14,26.38,11.88,10.95-.46,13.01-13.07,10.58-21.82-2.24-9.47-9.29-18-18.39-21.41-5.91-2.22-8,1.68-7.72,7.09.18,4.99,1.6,10,3.5,14.74l-.28.13c-2.28-4.6-4.28-9.48-4.79-14.78-1.54-17.43,16.95-8.32,23.33-.7,7.14,8.04,10.65,19.81,7.12,30.31-7.8,17.82-31.93,6.77-41-4.3-6.88-8.03-9.63-18.45-11.56-28.56-1.85-10.11-4.15-20.14-6.15-30.23-3.51-20.04-7.84-41.21-9.4-60.97h0Z"/>
  <path class="cls-2" d="M530.36,261.7c-21.1,17.4-24.08,46.11-21.76,71.67.75,8.75,3.73,17.39,2.63,26.28-.64,8.73-2.56,18.01-8.38,25.32-5.9,8.07-26.72,19.32-27.63,2.23-1.1-13.19,13.54-45.66,22.46-18.36,0,0-.29.12-.29.12-1.75-3.3-3.92-8.49-7.76-9.25-1.68-.05-3.28,1.6-4.46,3.23-3.54,5.24-5.57,11.61-6.49,17.83-.67,4.93-1.15,13.79,6.24,11.91,19.93-4.42,26.89-27.89,24.64-46.15-3.26-21.47-7.43-45.08,3.05-65.31,4.11-7.98,10.27-14.81,17.56-19.76l.19.25h0Z"/>
  <path class="cls-2" d="M248.33,217.01c23.7,1.38,44.71-12.44,53.22-34.51,1.37-2.98,2.46-6.09,3.5-9.25-.34,3.31-1.15,6.56-2.07,9.78-6.51,23.92-30.2,39.57-54.65,33.98h0Z"/>
  <path class="cls-2" d="M293.8,234.29c14.14-12.23,25.35-26.3,34.2-42.76-4.67,18.05-17.62,34.23-34.2,42.76h0Z"/>
  <path class="cls-2" d="M328.01,191.53c-4.01,12.7-18.27,21.77-31.47,20.02,12.88-3.01,23.31-9.61,31.47-20.02h0Z"/>
  <path class="cls-2" d="M320.18,245.21c12.6-9.52,21.64-22.87,26.64-37.72,7.87,24.68,4.87,53.29-11.18,74.09,12.12-20.67,15.42-45.82,9.52-68.99,0,0,2.78.17,2.78.17-5.45,13.41-15.26,25.18-27.76,32.44h0Z"/>
  <path class="cls-2" d="M342.01,312.24c-.65,0-1.26-.41-1.48-1.07-.27-.82.17-1.7.99-1.97,5.53-1.82,24.3-9.31,33.64-29.19,5.7-12.14,5.6-23.7,4.52-31.27-.12-.85.47-1.64,1.32-1.76.84-.12,1.64.47,1.76,1.32,1.15,7.98,1.24,20.19-4.79,33.03-9.87,21.01-29.65,28.91-35.48,30.83-.16.05-.33.08-.49.08Z"/>
  <path class="cls-2" d="M392.03,116.97c-1.07,20.08-12.71,39.97-31.56,48.1,0,0-.17-2.87-.17-2.87,5.25,1.6,10.69,2.63,16.18,2.85,16.72.85,33.24-5.58,45.84-16.51-16.31,18.31-44.02,24.35-66.81,15.35,20.05-7.22,33.12-26.21,36.52-46.93h0Z"/>
  <path class="cls-2" d="M380.53,191.99c23.2-2.97,43.76-15.2,57.88-33.64-10.33,21.11-34.3,35.27-57.88,33.64h0Z"/>
  <path class="cls-2" d="M393.73,210.43c26.37,2.82,53.07-9.35,67.37-31.89-1.29,3.09-2.97,5.99-4.82,8.81-13.21,19.95-39.6,29.49-62.55,23.08h0Z"/>
  <path class="cls-2" d="M393.73,210.43c20.4,17.78,50.86,18.86,72.05,1.83,3.06-2.21,5.86-4.76,8.53-7.5-18.7,27.31-58.56,31.06-80.57,5.66h0Z"/>
  <path class="cls-2" d="M380.92,44.91c-5.65,10.41-7.43,21.06-5.46,32.74-6.49-10.06-3.91-25.31,5.46-32.74h0Z"/>
  <path class="cls-2" d="M212.02,137.75c11.98,4.23,22.11,12.4,29.99,22.21,14.65,14.95,25.69,34.68,24.86,56.14,0,.17-.28.21-.31.03-4.52-19.95-11.49-40.04-25.29-55.48-8.73-8.57-20.44-15.49-29.25-22.9h0Z"/>
  <path class="cls-2" d="M266.72,216.12c4.79-21.01,4.17-42.11-2.02-62.77,10.39,18.95,11.06,43.22,2.02,62.77h0Z"/>
  <path class="cls-2" d="M290.59,163.17c2.31,19.99-7.31,41.48-23.87,52.94,13.49-14.93,21.58-32.95,23.87-52.94h0Z"/>
  <path class="cls-2" d="M475.11,98.53c10.96,16.67,21.46,34.74,24.1,54.85.85,14.29.71,28.6.97,42.83.07,5.52,2.06,10.87,5.05,15.59,2.94,4.78,7.01,8.84,11.39,12.48-4.81-3.08-9.17-6.96-12.66-11.63-3.36-4.71-5.79-10.35-6.17-16.29-.69-11.5-.91-22.84-1.28-34.28.39-22.85-11.28-43.66-21.4-63.56h0Z"/>
  <path class="cls-2" d="M507.51,257.12c-7.84,22.85-11.48,47.02-9.73,71.14.15,3.46.54,6.9.86,10.37-1.01-3.34-1.71-6.76-2.38-10.19-4.11-24.12-.39-49.73,11.24-71.32h0Z"/>
  <path class="cls-2" d="M338.11,341.05c5.5,5.03,9.4,9.63,12,13,2.92,3.78,3.46,5.07,6,8,2.46,2.84,5.42,5.66,13,11,10.73,7.56,16.09,11.35,22,13,4.28,1.2,10.54,2.95,17.08.85,7.7-2.47,11.42-8.86,16.76-17.41,18.42-29.49,18.92-25.86,30.69-47.32,4.48-8.18,8.71-16.58,11.05-25.54,2.72-9.63,1.86-18.6,1.88-27.82,4.66,18.75-.48,38.48-10,54.94-5.37,9.29-13.53,22.17-32.23,46.75-11.33,14.89-14.71,18.12-20.22,19.55-14.08,3.67-28.97-7.76-41-17-7.56-5.81-14.21-13-17-18-1.13-2.03-1.76-3.02-3-5-2.17-3.45-3.81-5.73-6-8-.42-.43-.77-.78-1-1Z"/>
  <path class="cls-2" d="M191.12,569.02c36.92-9.35,69.58-35.34,79.48-73.16-.68,4.74-1.91,9.4-3.39,13.98-10.87,32.6-42.75,54.75-76.08,59.19h0Z"/>
  <path class="cls-2" d="M79.47,322.47c.06-1.61.32-4.06,1.39-6.81,0,0,2.32-6,7.99-10.03,10.46-7.44,36.12,3.48,53.23,18.2,9.19,7.9,14.94,16.06,18.12,21.15-6.96-7.86-24.01-25.78-44.85-34.09-13.98-5.58-20.98-3.36-23.81-2.07-5.08,2.31-8.31,6.41-8.31,6.41-2.18,2.76-3.23,5.5-3.75,7.25Z"/>
  <path class="cls-2" d="M107.02,338.01c2.92-.87,6.79,1.77,7.4,2.17.24.16,1.4.93,2.47,2.17,3.45,4,3.75,10.35,2.47,15.21-.43,1.62-2.45,9.28-7.4,10.06-2.3.36-4.24-.91-4.93-1.37-6.96-4.56-5.16-16.93-4.93-18.37.47-2.97,1.39-8.82,4.93-9.88Z"/>
  <path class="cls-2" d="M127.91,220.83c4.18,29.31,20.67,56.66,47.44,70.23,8.67,4.53,18.11,7.75,28.04,9.8-43.01,2.39-79.85-37.49-75.49-80.03h0Z"/>
  <path class="cls-2" d="M227.04,315.42c4.05,37.36,32.24,70.69,71.43,71.03,5.28.22,10.59-.22,15.88-1-5.14,1.47-10.49,2.23-15.87,2.53-40.46,2.24-71.43-33.55-71.44-72.56h0Z"/>
  <path class="cls-2" d="M277.97,400.91c20.39,10,39.75,24.87,48.95,46.3,4.41,10.48,5.8,21.92,12.17,31.37,5.95,9.35,16.73,14.9,28.01,16.01-5.68.02-11.42-1.13-16.69-3.54-34.5-18.8-6.22-49.62-72.43-90.14h0Z"/>
  <path class="cls-2" d="M322.77,23.27c11.89,7.7,16.74,23.23,11.8,36.4-1.15,4.33-2.81,8.51-5.15,12.51-4.64,8.06-13.32,13.31-22.02,15.91-8.79,2.3-19.82,2.09-26.92-2.89,8.75-.27,17.29-.62,24.97-3.47,11.16-3.71,24.66-9.74,27.15-22.5,1.02-8.36-2.24-16.2-4.84-23.97-1.51-3.86-3.44-7.58-5.46-11.57-.16-.27.2-.61.46-.42h0Z"/>
  <path class="cls-2" d="M347.09,31.66c19.99,9.19,20.25,38.59.29,47.92,15.96-12.87,15.49-35.4-.29-47.92h0Z"/>
  <path class="cls-2" d="M162.6,151.8c-8.26,14.17-27.71,20.35-40.81,8.55-11.95-10.48-15.76-29.45-5.92-42.48,8.54-14.14,24.78-18.27,39.11-23.47,14.29-5.17,27.33-13.68,39.43-22.81-10.24,11.27-23.88,20.1-38.22,25.9-14.31,5.3-29.57,8.31-38.95,21.39-10.77,12.16-6.06,30.38,6.19,39.47,14.47,11.07,28.22,4.6,39.16-6.55h0Z"/>
  <path class="cls-1" d="M105.04,345.92c1.55-.58,2.64,1.81,5.46,1.59,2.67-.21,3.87-2.54,4.78-2.05.23.12.95.69-.45,7.05-.86,3.88-1.86,8.43-3.18,8.41-.45,0-.99-1.04-2.27-2.96-1.27-1.89-1.48-2.78-1.82-2.73-.93.14-.12,6.84-1.14,7.05-.7.14-2.07-2.77-2.73-5.68-.92-4.06-.86-9.86,1.36-10.69Z"/>
  <path class="cls-2" d="M93.19,155.16c-11.86,6.04-33.73,15.99-32.01,31.6,3.35,12.3,7.25,24.69,12.01,36.48,2.73,6.8,10.53,8.91,17.26,9.1,7.04.07,14.35-1.44,21.02-3.6,13.57-4.52,25.1-14.17,34.05-25.72l.26.17c-8.19,14.24-22.06,26.45-38.67,30.25-9.1,2.03-19.23,3.4-27.91-1-3.47-1.7-6.55-4.87-7.59-8.56-2.35-7.05-4.29-14.08-6.75-21-1.8-5.25-3.98-10.27-5.78-15.54-.71-1.79-.69-4.07-.31-5.98,1.48-7.83,7.88-13.26,14.09-17.43,6.3-4.03,13.18-6.91,20.22-9.05l.11.29h0Z"/>
  <path class="cls-2" d="M95.43,160.87c-18.96,7.78-30.6,26.12-18.13,45.02,7.12,10.92,13.21,24.02,28.37,16.46,17.33-8.53,30.54-23.2,40.14-39.99,0,0,.28.14.28.14-7.04,18.27-20.93,34.63-39.25,42.54-12.16,5.24-19.07.11-25.12-10.42-4.9-8.11-12.32-16.69-12.2-26.72.19-13.65,13.69-25.35,25.9-27.03h0Z"/>
  <path class="cls-2" d="M98.9,166.39c-3.3,3.15-6.41,6.39-9.15,9.9-5.74,6.97-11.25,14.15-6.81,23.38,3.22,7.54,12.26,14.6,20.49,11.91,3.76-1.38,7.09-4.72,10.48-7.52,6.64-5.82,11.88-13.14,16.1-21.2l.29.11c-2.92,11.08-10.07,21.23-19.53,27.96-3.72,2.95-9.12,5.05-13.88,3.42-10.29-3.29-19.57-17.23-16.98-28.12,1.6-4.67,4.93-7.91,8.02-11.52,3.19-3.36,6.79-6.33,10.79-8.58l.19.25h0Z"/>
  <path class="cls-2" d="M102.86,189.31c15.19-6.79,4.44,25.45-10.37,6.99-8.41-11.29,7.89-21.62,18.12-20.07,0,0,.03.31.03.31-8.3,2.68-21.29,8.42-16.7,18.87,4.94,9.25,12.32,5.24,13.81-3.48.31-2.7-2.85-2.24-4.81-2.32,0,0-.07-.3-.07-.3h0Z"/>
  <path class="cls-2" d="M172.47,169.9c-23.51,31.73-23.53,73.6,1.34,104.56,7.63,10.04,16.91,18.85,27.19,26.19-13.81-7.9-25.8-19.25-34.86-32.41-20.95-30.64-18.23-70.63,6.33-98.34h0Z"/>
  <path class="cls-2" d="M196.27,179.47c-15.68,38.86-1.17,83.97,36.32,103.81,5.03,2.86,10.37,5.18,15.91,6.99-49.86-10.69-75.58-65.56-52.23-110.81h0Z"/>
  <path class="cls-2" d="M183.37,173.59c-18,42.92-11.9,91.24,20.74,127.28-4.47-4.04-8.46-8.49-12.19-13.11-26.28-32.91-28.41-78.27-8.55-114.16h0Z"/>
  <path class="cls-2" d="M206.55,263.6c-6.71,28.29-.37,60.05,25.71,76.24-3.37-1.45-6.52-3.38-9.54-5.52-21.82-15.74-25.9-46.96-16.17-70.73h0Z"/>
  <path class="cls-2" d="M239.4,287.26c3.35,17.22,15.46,67.35,58.01,90.89,4.93,2.73,10.55,5.25,16.94,7.3-6.67-1.42-12.47-3.5-17.5-5.88-45.05-21.34-55.44-79.53-57.45-92.31Z"/>
  <path class="cls-2" d="M283.73,321.22c1.24,24.83,12.08,47.66,30.62,64.23-21.49-12.95-34.01-39.4-30.62-64.23h0Z"/>
  <path class="cls-2" d="M177.98,102.75c-11.3,5.83-23.42,10.15-34.9,15.41-28.22,16.28,3.72,45.14,21.39,21.59,1.65-2.39,3.11-5.19,3.01-7.77-.2-5.31-7.88-8.67-12.77-8.25-6.55.26-9.26,7.57-8.47,13.4,0,0-.31.06-.31.06-.83-3.1-.91-6.58.44-9.74,3.69-8.99,16.86-7.4,22.32-.9,6.08,7.8-2.32,17.86-9.24,21.8-8.88,5.64-21.22,1.98-26.44-6.87-5.51-8.96.57-20.59,8.78-25.56,5.72-3.32,11.79-5.06,17.86-7.41,6.04-2.14,12.08-4.25,18.23-6.05l.11.29h0Z"/>
  <path class="cls-2" d="M184.3,136.25c5.08,9.22,3.15,21.59-5.3,28.15-7.68,6.6-14.98,13.8-24.83,17.3-6.48,2.26-13.45,2.81-20.04,1.59,3.34-.07,6.65-.29,9.86-.99,9.87-1.63,17.91-7.25,25.42-13.74,11.89-9.09,19.55-16.07,14.89-32.32h0Z"/>
  <path class="cls-2" d="M195.21,136.03c9.86,6.2,18.6,16.81,17.98,29.21-.09,8.93-6.07,21.31-16.77,16.75-2.79-1.25-5.16-3.11-7-5.38,2.31,1.75,4.81,3.27,7.5,3.93,9.3,2.78,13.06-8.09,13.17-15.48.59-11.48-7.03-21.26-14.87-29.04h0Z"/>
  <path class="cls-2" d="M177.48,144.74c-7.2,18.99-27.45,31.85-47.84,28.38-22.41-3.25-31.12-27.54-26.11-47.53,3.86-14.77,14.96-27.3,28.81-33.42,4.72-1.96,9.67-2.84,14.45-3.97,19.22-4.27,36.98-14.01,51.97-26.9-14.36,13.71-32.16,24-51.52,28.74-4.81,1.27-9.65,2.24-14.09,4.1-13.07,5.85-23.76,18.15-27.23,32.04-11.3,52.43,51.58,61.43,71.56,18.55h0Z"/>
  <path class="cls-2" d="M199.6,72.15c-5.55,11.31-14.86,20.86-26.43,26.11-11.59,5.44-24.98,5.1-35.01,12.21-7.19,5.13-14.23,12.29-15.88,21.25-2.51,15.05,15.43,30.51,29.75,23.45-11.65,6.96-26.6-2.29-30.87-14.07-2.43-6.18-.99-13.33,2.43-18.83,6.6-11.17,18.4-18.55,30.97-20.72,6.13-1.38,12.18-2.64,17.85-5.02,11.37-4.72,20.79-13.66,27.18-24.38h0Z"/>
  <path class="cls-2" d="M197.09,86.75c-.57,6.71-7.02,12.6-13.77,12.52,6.09-2.69,10.52-6.71,13.77-12.52h0Z"/>
  <path class="cls-2" d="M211.28,93.43c-7.55,5.93-15.29,11.66-23.62,16.48-8.15,5.06-18.04,8.4-27.7,6.46,19.75.73,34.82-14.24,51.32-22.95h0Z"/>
  <path class="cls-2" d="M179.15,131.39c7.56,14.31-.92,32.61-15.46,38.44,1.57-1.08,3.08-2.2,4.47-3.46,10.26-8.31,14.95-22.25,10.98-34.98h0Z"/>
  <path class="cls-2" d="M184.56,122.83c14.59,13.8,12.24,39.82-7.49,47.36,16.99-10.68,18.43-31.66,7.49-47.36h0Z"/>
  <path class="cls-2" d="M184.77,176.31c9.66-10.03,12.42-24.41,7.53-37.27,8.56,11.42,4.84,30.09-7.53,37.27h0Z"/>
  <path class="cls-2" d="M196.27,179.47c10.5-12.94,7.38-30.3-1.06-43.44,11.78,11.09,14.8,32.68,1.06,43.44h0Z"/>
  <path class="cls-2" d="M184.56,122.83c20.04,6.89,43.24,29.21,32.24,51.83-1.58,2.86-3.58,5.45-5.94,7.63,18.94-22.86-5.47-48.94-26.3-59.46h0Z"/>
  <path class="cls-2" d="M215.18,138.98c15.32,10.21,17.48,33.04,1.52,43.73,12.64-13.16,10.55-31.01-1.52-43.73h0Z"/>
  <path class="cls-2" d="M142.23,124.09c-8.02,10.59.21,23.54,12.62,16.1,3.33-2.21,2.19-6.52.31-9.42,2.82,2.67,4.16,7.79.6,10.52-4.53,3.86-12.74,4.07-16.31-1.18-3.31-5.07-1.57-12.3,2.78-16.01h0Z"/>
  <path class="cls-2" d="M227.76,148.08c15.46,9.87,11.74,33.93-7.72,35.04,3.67-1.18,7.04-3.05,9.7-5.53,8.6-8.07,5.66-21.74-1.98-29.52h0Z"/>
  <path class="cls-2" d="M236.92,156.69c10.09,4.08,11.75,19.6,1.76,24.88-2.97,1.71-6.5,2.21-9.67,1.56,14.6-1.28,18.78-17.22,7.91-26.43h0Z"/>
  <path class="cls-2" d="M240.27,187.51c6.02-4.7,8.73-10.74,8.55-18.36,4.12,6.8-.56,17.16-8.55,18.36h0Z"/>
  <path class="cls-2" d="M131.88,220.43c8.81,28.91,27.15,54.4,51.55,71.56,3.44,2.53,7.04,4.81,10.69,7.06-3.89-1.77-7.63-3.86-11.31-6.07-25.63-15.8-44.93-42.46-50.92-72.55h0Z"/>
  <path class="cls-2" d="M137.95,214.14c6.44,20.92,16.84,40.29,30.53,57.36-2.08-1.81-3.99-3.79-5.89-5.79-12.97-14.29-21.94-32.41-24.64-51.57h0Z"/>
  <path class="cls-2" d="M142.82,207.85c3.84,13.61,8.13,26.54,13.15,39.77-8.05-11.58-12.7-25.67-13.15-39.77h0Z"/>
  <path class="cls-2" d="M149.51,218.6c-3.07-15.61,3.15-33.14,15.41-43.3-9.6,12.68-14.85,27.4-15.41,43.3h0Z"/>
  <path class="cls-2" d="M152.24,182.31c-3.79,15.8-15.23,30.01-29.89,37.04,12.79-10.08,22.74-22.41,29.89-37.04h0Z"/>
  <path class="cls-2" d="M74.14,170.05c-5.06,3.73-8.04,9.12-7.03,15.37.17,6.2,1.22,12.47,3.68,18.22,3.96,8.27,5.7,18.34,14.22,22.42,2.65,1.41,5.62,2.34,8.69,2.98l-.02.25c-16.89.51-20.51-11.25-24.18-25.23,0,0-2.22-9.18-2.22-9.18-1.11-4.62-2.84-9.24-2.4-14.13.47-5.01,4.73-9.17,9.14-10.9,0,0,.12.21.12.21h0Z"/>
  <path class="cls-2" d="M94.94,165c-11.93,7.74-24.98,24.36-15.45,38.36,2.89,4.29,6.2,8.53,9.78,12.24,3.61,3.94,8.8,4.27,13.41,1.96,13.99-6.87,24.77-19.56,34.11-31.34-4.79,9.4-11.44,17.98-19.62,24.87-6.24,4.68-13.41,10.82-21.86,9.82-2.89-.45-5.32-2.35-7.02-4.38-3.39-4.14-6.36-8.4-9.47-12.73-5.25-6.62-5.95-15.77-1.41-22.95,3.6-6.88,10.45-13.69,17.53-15.85h0Z"/>
  <path class="cls-2" d="M102.06,170.79c-4.92,4.93-9.54,10.1-13.42,15.84-1.17,1.86-2.3,3.57-2.31,5.83-.5,9.66,9.35,16.81,18.44,12.93,5.53-3.01,10.01-9.82,14.04-14.58.27-.41.44-.86.45-1.03-.06-.17.1.04-.06-.08-.54-.23-1.96-.31-3.13-.56-2.46-.53-4.92-1.58-6.77-3.48-.96-1.01-1.22-1.4-2.2-1.49-2.93-.5-9.84,4.02-7.56,7.31.7.79,1.78,1.3,2.85,1.72l-.07.24c-1.15-.23-2.34-.56-3.34-1.39-1.11-.82-1.24-2.57-.7-3.76,1.83-4.55,8.73-8.88,12.67-4.34,1.52,1.36,3.53,2.24,5.62,2.61,1.1.26,2.07.15,3.73.76,2.07.83,1.8,3.55.66,4.9-4.72,5.26-9.12,11.71-15.76,14.46-9.58,3.1-20.5-3.89-20.93-14.23-.08-5.07,4.02-8.95,7.01-12.57,3.2-3.47,6.73-6.64,10.63-9.26l.16.19h0Z"/>
  <path class="cls-2" d="M175.26,172.55c-15.85,31.84-18.22,72.64,3.32,102.38,6.79,9.9,15.37,18.51,24.81,25.94-10.09-6.63-19.12-15.02-26.36-24.83-22.74-29.61-20.42-72.44-1.77-103.48h0Z"/>
  <path class="cls-2" d="M188.28,178.29c-10.47,34.52-7.97,72.74,7.78,105.27,2.15,4.69,4.66,9.21,7.29,13.68-24.74-33.6-30.64-80.24-15.07-118.95h0Z"/>
  <path class="cls-2" d="M195.43,244.34c2.15,11.87,4.39,23.16,6.87,34.96-5.71-10.58-8.14-23.01-6.87-34.96h0Z"/>
  <path class="cls-2" d="M195.37,187.47c-3.48,33.67,10.02,68.2,36.06,89.95,3.61,3.19,7.5,6.07,11.52,8.78-34.98-18.12-55.44-60.03-47.58-98.73h0Z"/>
  <path class="cls-2" d="M200.8,206.72c7.08,23.28,18.09,44.57,32.81,63.93-19.89-14.59-32.57-39.26-32.81-63.93h0Z"/>
  <path class="cls-2" d="M198.88,180.94c9.15,34.34,30.33,35.5,60.73,39.96,8.83,1.21,17.71,1.86,26.62,2.23-17.9,1.25-35.84-.7-53.44-4.27-19.01-3.45-31.65-19.16-33.91-37.92h0Z"/>
  <path class="cls-2" d="M203.21,182.64c7.56,17.36,24.51,29.85,43.49,31.02,2.69.27,5.4.25,8.13.13-2.66.68-5.41.94-8.17,1.08-19.64.82-38.72-13.06-43.46-32.23h0Z"/>
  <path class="cls-2" d="M208.28,184.54c7.16,8.5,15.79,16.21,26.71,19,8.06,1.9,16.78,4.57,24.09,8.42,2.51,1.35,5,2.71,7.36,4.3-2.62-1.1-5.2-2.23-7.85-3.19-7.9-3.21-15.9-5.15-24.26-7.15-11.31-2.96-20.29-11.5-26.05-21.38h0Z"/>
  <path class="cls-2" d="M213.53,182.67c4.05,3.38,8.32,6.43,12.97,8.66,4.59,2.3,9.72,3.33,14.72,5.48,9.77,4.3,18.49,10.91,25.14,19.24-7.85-6.83-16.56-12.85-26.11-16.97-10.04-3.51-20.08-7.6-26.72-16.41h0Z"/>
  <path class="cls-2" d="M188.65,121.08c33.69,12.72,78.24,38.45,79.44,78.84.17,5.64-.27,11.28-1.47,16.75,2.12-16.56-1.19-33.76-11.1-47.25-17.1-22.11-41.97-36.5-66.88-48.33h0Z"/>
  <path class="cls-2" d="M215.85,126.07c34.84,7.47,57.8,40.94,53.63,76.12-.56,4.8-1.41,9.58-2.9,14.16,1.9-9.37,2.3-19.02,1.13-28.49-2.99-28.95-24.34-53.13-51.86-61.79h0Z"/>
  <path class="cls-2" d="M277.74,155.99c8.06,19.41,3.35,43.43-11.31,58.46,1.4-2.19,2.8-4.35,3.98-6.63,8.8-15.64,11.2-34.36,7.34-51.83h0Z"/>
  <path class="cls-2" d="M278.12,218.22c12.83-4.87,23.2-14.49,28.02-27.22,1.6-4.17,2.73-8.58,3.28-13.14,1.89,18.81-12.56,37.59-31.3,40.36h0Z"/>
  <path class="cls-2" d="M318.85,183.9c.86,8-4.48,16.54-12.07,19.23,5.57-5.78,9.3-11.7,12.07-19.23h0Z"/>
  <path class="cls-2" d="M223.58,235.61c29.04,14.56,68.04,14.04,92.39-9.23,8.04-7.54,14.05-17.09,17.97-27.4-2.97,10.71-8.7,20.76-16.64,28.76-24.07,24.53-65.36,25.34-93.71,7.87h0Z"/>
  <path class="cls-2" d="M228.33,237.46c23.8,6.16,49.25,6.96,68.69-10.23,3.44-2.88,6.85-6.74,9.75-10.89-2.05,4.03-4.89,8.03-7.93,11.13-18.97,19.72-46.52,19.48-70.52,9.99h0Z"/>
  <path class="cls-2" d="M216.5,229.29c11.87,27.2,37.24,38.6,65.35,29.07,8.4-2.81,16.2-7.45,22.97-13.38-6.1,6.72-13.85,11.89-22.34,15.17-28.47,11.03-56.58-1.63-65.99-30.86h0Z"/>
  <path class="cls-2" d="M217.38,231.51c6.57,23.21,29.66,43.53,54.69,37.31,7.97-1.86,15.27-6.08,21.51-11.37-5.61,6.09-12.87,10.88-21.03,13.21-25.69,7.76-51.19-14.25-55.17-39.15h0Z"/>
  <path class="cls-2" d="M209.43,268.78c-2.29,20.62,3,41.66,14.87,58.66,1.62,2.49,3.44,4.83,5.28,7.19-17.95-16.1-26.47-42.42-20.15-65.85h0Z"/>
  <path class="cls-2" d="M226.65,282.04c-.08,27.96,7.73,57.55,27.69,77.91,15.26,16.02,37.14,24.48,59.04,25.72-18.97.32-38.71-5.44-53.52-17.67-25.62-19.82-35.75-54.59-33.21-85.96h0Z"/>
  <path class="cls-2" d="M231.1,284.35c-.26,35.78,19.04,69.38,50.02,87.26,10.05,6.11,20.94,10.81,32.27,14.06-11.61-2.28-22.85-6.58-33.23-12.42-31.86-17.21-52.22-52.58-49.06-88.9h0Z"/>
  <path class="cls-2" d="M234.91,286.06c3.32,22.37,11.6,43.87,24.65,62.35,1.8,2.69,3.78,5.25,5.74,7.86-2.38-2.23-4.55-4.66-6.7-7.12-14.67-17.54-23.49-40.15-23.69-63.08h0Z"/>
  <path class="cls-2" d="M244.63,288.91c8.51,40.26,34.4,75.57,69.72,96.53-4.64-2.23-9.09-4.83-13.43-7.61-30.32-19.76-51.78-52.91-56.29-88.93h0Z"/>
  <path class="cls-2" d="M256.85,304.2c10.25,22.66,21.61,45.12,38.09,63.93-19.04-16.52-31.02-40.04-38.09-63.93h0Z"/>
  <path class="cls-2" d="M274.35,318.36c3.75,6.62,6.75,12.91,9.48,20.01-5.56-5.14-9.02-12.45-9.48-20.01h0Z"/>
  <path class="cls-2" d="M233.61,270.65c18.94,19.47,49.73,19.55,67.23-1.78,5.4-6.51,8.57-14.83,8.96-23.49.65,8.75-2.18,17.63-7.46,24.66-17.14,23.01-51.11,22.99-68.72.61h0Z"/>
  <path class="cls-2" d="M243.8,281.96c19.09,13.14,44.52,9.91,58.97-8.44,2.08-2.39,3.9-5.01,5.53-7.78-10.39,26.45-43,35.56-64.49,16.22h0Z"/>
  <path class="cls-2" d="M337.33,200.87c-2.11,17.1-14.24,33.04-30.17,39.6,14.17-9.78,24.52-23.33,30.17-39.6h0Z"/>
  <path class="cls-2" d="M342.5,207.79c-2.72,16.48-15.61,31.27-31.76,35.89,14.66-7.98,25.53-20.43,31.76-35.89h0Z"/>
  <path class="cls-2" d="M246.63,290.45c13.85,16.83,40.25,20.68,53.85,1.57,1.87-2.38,3.39-5.02,4.7-7.79-8.23,28.69-43.54,30.3-58.55,6.22h0Z"/>
  <path class="cls-2" d="M270.75,314.32c21.71,7.91,46.76-5.86,42.92-30.72-.34-3.1-1.11-6.15-2.17-9.13,3.03,5.56,4.55,12.05,4.07,18.56-1.42,21.4-27.37,31.04-44.82,21.29h0Z"/>
  <path class="cls-2" d="M290.41,322.79c1.5,18.93,7.52,37.68,19.61,52.51,1.65,2.17,3.49,4.19,5.34,6.23-2.22-1.63-4.26-3.5-6.24-5.43-13.73-13.83-20.4-34.01-18.71-53.31h0Z"/>
  <path class="cls-2" d="M294.87,323.31c4.09,19.01,11.07,36.72,21.06,53.41-12.8-14.58-20.44-34.02-21.06-53.41h0Z"/>
  <path class="cls-2" d="M300.86,327.99c4.56,15.01,10.04,29.18,16.76,43.35-9.65-12.33-15.58-27.75-16.76-43.35h0Z"/>
  <path class="cls-2" d="M313.67,328.63c7.07,8.87,9.76,21.67,6.22,32.53,0-11.43-2.21-21.85-6.22-32.53h0Z"/>
  <path class="cls-2" d="M308.29,328.35c3.7,6.98,5.79,14.46,6.22,22.35-3.71-6.97-5.78-14.46-6.22-22.35h0Z"/>
  <path class="cls-2" d="M314.23,258.48c17.57-6.6,30.18-22.94,31.9-41.66,2.1,19.17-12.91,38.59-31.9,41.66h0Z"/>
  <path class="cls-2" d="M313.95,269.8c18.47-6.81,31.94-24.71,32.38-44.52.19-2.81.05-5.62-.2-8.46,6.68,22.79-8.81,48.48-32.18,52.97h0Z"/>
  <path class="cls-2" d="M324.98,273.47c12.17,17.87,2.68,41.06-16.81,48.58-2.6,1-5.27,1.78-7.99,2.24,5.17-1.9,10.03-4.4,14.24-7.74,13.39-10.08,17.72-27.95,10.56-43.08h0Z"/>
  <path class="cls-2" d="M316.49,321.28c13.29-7.06,21.75-20.88,20.08-36.21,5.6,14.97-4.95,32.58-20.08,36.21h0Z"/>
  <path class="cls-2" d="M347.94,212.77c13.61,18.72,15.32,46.6-.13,64.8-2.13,2.52-4.42,4.9-6.99,6.93,2.18-2.44,4.25-4.95,6.02-7.66,13.44-18.85,11.54-44.3,1.1-64.08h0Z"/>
  <path class="cls-2" d="M360.34,224.54c9.43,18.85,5.87,43.41-8.49,58.84,1.35-2.22,2.69-4.43,3.8-6.75,8.33-15.93,9.76-34.9,4.69-52.08h0Z"/>
  <path class="cls-2" d="M373.07,238.68c3.98,18.7-2.94,39.4-17.89,51.47-2.13,1.68-4.33,3.26-6.69,4.57,2.04-1.76,4.06-3.51,5.88-5.46,13.3-13.19,19.42-32.04,18.71-50.58h0Z"/>
  <path class="cls-2" d="M324.7,328.69c42.18.96,83.89-18.81,98.71-60.27,4.71-12.91,6.83-26.88,6.28-40.92,6.6,36.2-10.08,73.42-42.78,91.05-18.87,9.88-41.32,13.48-62.21,10.14h0Z"/>
  <path class="cls-2" d="M392.82,266.28c-1.63,27.15-25.54,49.33-52.19,51.58,3.18-.83,6.31-1.74,9.34-2.94,21.54-7.57,38.25-26.18,42.85-48.64h0Z"/>
  <path class="cls-2" d="M338.43,341.34c21.17,9.03,49.19,10.59,65.8-7.86,5.47-5.75,10.03-12.32,14.71-18.76,9.06-12.79,19.09-25.63,22.41-41.2,3.41-15.31,1-31.53-5.02-46.23,7.87,13.13,10.86,31.07,7.5,46.76-3.24,16.06-13.89,29.07-23.82,41.48-5.01,6.2-9.83,12.55-15.16,18.52-7.9,9.31-19.47,15.26-31.72,15.88-11.83.49-25.1-2.44-34.7-8.6h0Z"/>
  <path class="cls-2" d="M338.45,341.35c23.22,14.11,49.13,22.41,68.41-2.26,16.96-19.2,33.58-39.74,41.66-64.35,5.75-16.17,3.66-34.65-7.52-48.08,9.39,8.31,14,23.14,12.69,35.97-1.27,13.16-7.35,25.26-13.65,36.59-8.79,15.11-21.61,26.98-32.53,40.44-5.72,6.45-11.71,13.68-20.4,16.02-17.03,4.59-36.05-3.82-48.64-14.33h0Z"/>
  <path class="cls-2" d="M340.34,342.12c15.46,11.96,35.92,24.43,55.82,17.2,6.18-2.84,10.38-8.68,14.66-13.83,16.32-21.93,32.48-44.87,44.91-69.1,8.03-16.96.58-36.6-6.93-51.96,9.93,14.95,17.26,35.67,9.25,52.99-11.52,24.22-30.79,46.96-46.56,68.59-5.03,6.15-9.75,13.97-17.97,16.13-18.87,5.88-40.8-7.1-53.19-20.02h0Z"/>
  <path class="cls-2" d="M340.34,342.12c14.05,11.39,46.41,39.1,63.81,22.89,3.15-3.71,5.84-8,8.75-12.02,5.83-8.09,11.74-16.12,17.98-23.91,6.11-7.91,13.39-14.88,18.53-23.21,4.95-8.39,9.62-17.32,12.43-26.68,2.68-9.39,3.33-19.36,1.9-29.08-1.14-9.81-5.42-19.45-9.32-28.05,14.19,20.97,16.57,49.44,4.3,71.92-2.31,4.46-4.6,8.88-7.36,13.14-5.44,8.51-12.94,15.24-19.45,22.83-6.52,7.5-12.71,15.31-18.32,23.53-2.55,3.59-5.71,8.95-8.41,12.42-17.41,18.7-52.68-10.2-64.86-23.78h0Z"/>
  <path class="cls-2" d="M338.11,341.05h3c5.3,5.82,26.51,28.71,43.92,36.76,2.94,1.36,6.63,2.75,10.89,2.06,7.05-1.14,12.22-7.48,17.07-14.51,8.98-12.63,18.84-24.8,29.44-36.1,10.82-11.16,18.53-24.61,22.44-39.68-1.49,15.03-9.96,30.23-20.55,41.38-10.5,11.46-20.53,23.11-30.27,35.23-5.43,6.99-10.81,13.2-18.14,14.52-1.74.31-4.81.5-11.42-1.64-22.14-7.15-36.73-25.46-43.39-34.02-1.35-1.73-2.4-3.16-3-4Z"/>
  <path class="cls-2" d="M360.11,368.45c12.45,15.55,38.72,44.38,60.71,32.51,6.92-4.67,11.06-12.36,15.59-19.15,18.43-27.8,28.09-60.66,33.77-92.7-1.46,24.91-8.06,49.73-19.46,72.07-3.77,7.47-8.23,14.64-13.17,21.38-6.22,8.03-11.52,18.79-22.12,21.72-22.47,5.59-45.52-18.82-55.33-35.83h0Z"/>
  <path class="cls-2" d="M395.75,212.62c22.62,8.88,49.36,4.76,67.74-11.22,2.68-2.19,5.15-4.63,7.52-7.2-1.93,2.92-4.25,5.56-6.7,8.09-17.48,17.86-46.62,22.47-68.56,10.33h0Z"/>
  <path class="cls-2" d="M465.08,215.07c9.1,21.82,13.17,45.45,14.7,68.95,1.76,23.67-2.38,47.35-11.22,69.31-5.2,13.76-9.21,28.28-17.17,40.88-2.86,3.74-8.33,9-4.89,13.71,7.31,4.79,14.27,10.98,19.23,18.19,2.49,3.66,6.18,7.06,6.87,11.7,2.75,13.36-9.79,29.27-23.44,26.21,14.72,1.45,26.62-16.59,19.99-29.52-5.14-6.84-10.47-14.19-17.2-19.49-3.29-2.94-9.54-4.78-9.16-10.18.14-4.88,3.79-8.61,6.63-12.05,1.65-2.26,3.02-4.83,4.31-7.43,5.01-10.52,9.16-21.58,13.57-32.47,4.42-10.89,8.64-21.9,10.09-33.62,2.64-17.49.47-35.13-1.44-52.58-1.54-17.48-6.29-35.15-10.87-51.58h0Z"/>
  <path class="cls-2" d="M390.32,203.89c21.43-1.44,42.4-10.04,57.39-25.62,2.21-2.15,4.21-4.5,6.21-6.88-1.55,2.7-3.38,5.23-5.31,7.68-13.82,17.16-36.39,26.57-58.29,24.81h0Z"/>
  <path class="cls-2" d="M370.8,178.43c21.68-1.41,42.41-10.35,58.41-25.07-1.66,2.18-3.55,4.18-5.48,6.14-13.86,13.42-33.67,20.79-52.93,18.93h0Z"/>
  <path class="cls-2" d="M396.86,127.9c-1.95,17.42-16.26,32.81-33.56,35.83,16.05-6.56,28.02-19.41,33.56-35.83h0Z"/>
  <path class="cls-2" d="M364.51,163.35c17.66-.8,33.94-7.75,46.46-20.28-9.72,14.96-28.97,23.16-46.46,20.28h0Z"/>
  <path class="cls-2" d="M324.98,133.74c10.59-6.39,23.63-9.82,35.83-6.37,9.11,3.2,17.14,5.14,24.43-2.82,2.15-2.1,3.87-4.64,5.49-7.24-1.13,2.86-2.66,5.57-4.59,8.05-7.47,9.26-15.98,7.83-25.98,4.4-11.74-3.38-24.06-.51-35.19,3.99h0Z"/>
  <path class="cls-2" d="M328.73,135.65c8.42-3.71,18.04-4.91,27.09-3,3.05.61,5.99,1.76,8.78,2.61,8.65,3.23,16.74-3.98,21.45-10.78,1.82-2.39,3.37-4.98,4.99-7.56-3.45,8.26-8.44,17.53-17.51,20.78-6.24,2.36-12.36-1.45-18.21-2.77-8.75-2.16-17.8-1.52-26.57.73h0Z"/>
  <path class="cls-2" d="M332.19,139.04c9.33-1.39,18.95-.96,28.16,1.08,3.08.65,6.14,1.73,8.99,2.18,12.76,1.08,17.76-15.79,21.68-25.4-.58,3.08-1.39,6.11-2.31,9.12-2.88,8.67-8.84,20.18-19.73,18.71-3.31-.59-6.16-1.64-9.17-2.35-9.03-2.34-18.26-3.26-27.62-3.35h0Z"/>
  <path class="cls-2" d="M339.55,146.61c5.55-1.62,11.59-.58,16.81,1.67,4.05,1.03,8.85,1.49,13.12.9,8.43-2.16,13.28-11.83,16.93-19.28,1.82-4.19,3.35-8.54,4.62-12.99-.55,4.6-1.56,9.18-3.15,13.58-6,15.84-14.23,25.8-32.33,19.4-4.51-2.34-10.45-3.96-16-3.28h0Z"/>
  <path class="cls-2" d="M402.98,133.6c-1.7,9.66-8.66,18.53-17.68,22.42,7.07-6.86,12.65-13.95,17.68-22.42h0Z"/>
  <path class="cls-2" d="M289.37,107.6c12.86,2.74,25.89,1.36,36.07-7.26,20.43-14.69,38.32-21.74,60.12-4.6,0,0-.14.2-.14.2-11.2-6.29-24.03-9.79-36.48-6.15-8.01,2.6-16.18,6.15-23.03,11.19-3.44,2.68-6.57,5.96-10.72,7.64-7.99,3.34-18.59,2.79-25.82-1.03h0Z"/>
  <path class="cls-2" d="M301.65,115.37c7.68-.4,15.11-2.12,21.64-5.67,6.34-3.93,12.63-8.89,19.51-12.24,13.58-7.27,32.65-7.33,44.06,3.93,0,0-.15.19-.15.19-16.23-10.34-37.9-7.9-53.48,2.39-3.15,2.15-5.5,5.24-8.89,7.48-6.59,3.98-15.79,5.91-22.7,3.91h0Z"/>
  <path class="cls-2" d="M306.75,121.03c10.84-.47,22.13-1.81,30.21-9.45,2.51-2.68,5.07-5.54,8.36-7.35,12.82-7.05,30.8-4.02,43.22,2.53,0,0-.1.23-.1.23-13.36-3.68-35.51-7.88-47.07,1.25-4.06,3.77-7.38,8.46-12.61,10.91-6.7,3.13-15.52,3.96-22.01,1.89h0Z"/>
  <path class="cls-2" d="M336.62,118.53c3.83-6.45,10.92-11.35,18.72-11.24,7.4-.65,14.96-1.07,22.26.7,2.4.6,4.92,1.49,6.69,3.46,5.12,5.99-.61,9.66-6.58,10.16-2.68.31-5.31-.39-7.65-1.04-4.75-1.36-9.43-2.38-14.3-3.28-1.22-.22-3.52-.78-2.79-2.69,1.06-1.88,3.79-2.07,5.58-2.54,7.14-1.18,16.08-1.16,22.11,2.29-8.1-2.08-18.49-1.43-25.31,1.18.18-.24-.09-1.01-.28-1.06-.21-.13.14.03.36.07l.84.17c7.17.77,14.21,4.5,21.29,4.95,4.84-.18,10.35-2.13,6.07-7.64-7.51-6.83-19.01-2.61-28.12-2.55-2.38.2-4.79.19-7.03.99-4.49,1.45-8.33,4.63-11.67,8.23l-.2-.15h0Z"/>
  <path class="cls-2" d="M254.56,46.3c3.22-.24,6.72.27,9.78-.21.04-.07-.35.26-.34.6.02.32.06.27.03.25-3.44-3.13-9.13-6.92-13.88-5.06-1.62.84-1.48,3.43-.38,4.6,5.01,4.04,12.53,3.6,18.91,4.54-3.03,1.61-10.27,1.43-14.11.63-2.34-.6-4.84-1.49-6.63-3.75-2.89-4.44.43-8.62,5.42-7.34,4.3,1.12,9.3,1.76,12.52,5.15,1.59,2.95-2.85,2.78-4.51,2.48-2.35-.3-4.62-.87-6.85-1.65l.04-.24h0Z"/>
  <path class="cls-2" d="M242.54,44.83c-4.26,3.86-10.65,8.84-14.94,12.75-3.39,3.12-8.41,6.34-9.67,10.81,1.08-.18,2.26-1.12,3.29-1.71,5.48-3.66,11.68-6.65,18.31-8.01,6.41-1.1,14.28-1.4,19.89,1.07-6.6-.31-13.09.05-19.34,1.5-7.21,1.44-13.82,4.59-20.5,7.66-.71.2-1.52.73-2.28.11-.76-1.17.48-2.4.96-3.29,6.11-8.65,14.62-17.16,24.27-20.89h0Z"/>
  <path class="cls-2" d="M206.37,56.9c12.35-14.44,27.78-26.98,45.63-34.03,12.14-5.04,50.55-6.41,50.24,12.55-1.81,9.45-7.91,17.86-15.34,23.79-2.2,1.58-6.99,4.66-8.64.87-.5-3.59,1.21-6.74,1.31-10.2,1.28-11-9.17-14.44-17.87-16.93-.91-.33-2.97-1.28-2.85-2.99,1-4.75,12.14-5.06,16.09-5.24,9.16-.18,24.3,1.62,22.23,14.27-1.09,5.87-4.39,11.05-9.04,14.67-.66.42-1.37.87-2.31.85-2.79-.41-1.51-4.3-1.5-6.13.96-6.67-.81-13.31-7.7-15.69-.33-.15-.81-.37-1.1-.61-.63-.52-.24-1.42.37-1.62,7.47-2.24,15.9,3.42,12.91,11.65,0,0-.24-.07-.24-.07,2.34-7.76-5.24-12.41-12.05-10.42-.19.03.07.18-.03-.45-.17-.22.06,0,.17.03,2.09.82,4.18,1.73,5.85,3.34,4.92,4.51,3.98,11.5,3.67,17.44,0,.31.12.66.08.55-.04-.08-.25-.21-.3-.18,5.84-3.5,12.62-15.63,6.34-21.24-5.35-4.75-25.31-5.21-31.05-1.04,5.43,2.76,14.12,3.73,18.03,10.25,4.05,5.77,1.04,12.84.22,18.94-.07,1.38,1.32,1.61,2.75,1.16,7.27-2.83,12.42-9.63,16.07-16.32,14.99-26.46-31.12-24.73-45.62-19.18-5.94,1.89-11.34,5.09-16.72,8.44-10.86,6.27-20.74,15.29-29.6,23.54h0Z"/>
  <path class="cls-2" d="M225.8,20.12c24.03-23.31,64.69-22.01,88.92.34,16.86,14.75,4.84,36.55-9.97,47.41-11.29,8.89-26.63,11.87-40.6,9.8,7.85-.34,15.74-.49,23.59-3.36,7.54-2.46,14.24-6.77,19.93-12.27,8.07-7.83,15.83-19.12,12.21-30.79-2.35-7.59-8.97-13-15.42-17.28-3.24-2.23-6.91-4.14-10.64-5.43-14.99-5.25-31.9-4.23-46.87.47-7.51,2.58-14.56,6.5-20.99,11.31l-.16-.19h0Z"/>
  <path class="cls-2" d="M326.39,38.69c4.32,23.02-15.38,43.81-38.47,41.86,2.67-.3,5.29-.74,7.83-1.49,18.42-4.29,31.11-21.63,30.64-40.38h0Z"/>
  <path class="cls-2" d="M307.6,9.93c5.76,3.11,11.77,5.18,18.22,6.34,3.33.81,6.4,2.69,8.77,5.15,15.35,17.93,10.72,47.56-5.76,63.23-14.43,14.2-39.21,14.92-55.56,4.86,14.74,5.75,32.21,6.84,46.25-1.14,23.29-12.78,31.7-44.81,13.49-65.46-2.08-2.27-4.71-3.99-7.7-4.81-5.74-1.42-13.75-4.16-17.72-8.16h0Z"/>
  <path class="cls-2" d="M348.84,39.83c5.01,11.18,2.67,25.92-6.22,34.51,5.91-10.81,7.68-22.34,6.22-34.51h0Z"/>
  <path class="cls-2" d="M344.31,24.93c20.04,2.66,29.05,19.07,23.29,38-1.57,5.49-4.31,10.6-8.02,14.8,1.41-2.42,2.74-4.85,3.73-7.43,7.92-20.36,3.46-38.68-19-45.37h0Z"/>
  <path class="cls-2" d="M380.17,85.65c-3.82-17.22.36-45.38,20.53-50.17-17.99,7.99-20.62,32.63-20.53,50.17h0Z"/>
  <path class="cls-2" d="M459.6,105.43c1.87-15.48-1.56-31.9-12.16-43.56-24.1-27.22-47.1-17.58-53.06,16.58-1.73,20.23,6.2,42.26,21.04,56.23,7.68,7.02,18.14,10.38,26.42,16.77,8.32,6.21,17.08,13.82,22.5,22.16-6.99-7.84-14.92-14.79-23.6-20.57-8.61-6.2-19.08-9.16-27.03-16.47-15.44-14.14-23.45-37.65-20.67-58.31,4.2-22.32,20.06-43.82,43.98-28.37,8.91,5.93,16.45,14.2,20.41,24.22,3.74,9.76,4.96,21.8,2.16,31.32h0Z"/>
  <path class="cls-2" d="M453.75,154.89c-2.78-8.6-3-17.98-2.82-26.86-.14-9.02-3.74-17.37-5.81-26.07-2.32-8.68-3.11-17.85-5.75-26.38-3.58-10.92-20.13-12.28-27.49-4.62-9.47,11.35-3.98,31.73,3.36,43.02,2.2,3.3,9.56,13.08,13.62,9.78,2.56-3.07,2.71-8.22,3.32-12.2,1.15-7.42.2-13.32-.43-20.08,1.94,6.5,2.6,13.45,2.04,20.23-.41,20.91-10.92,17.89-20.66,3.69-7.51-11.44-11.03-26.59-6.39-39.75,5.01-13.82,28.36-14.22,33.44-.36,1.42,3.68,2.46,9.27,3.48,13.12,2.69,13.28,8.88,25.89,9.17,39.59.01,4.56-.61,8.96-.36,13.49.16,4.47.68,8.93,1.52,13.35l-.24.06h0Z"/>
  <path class="cls-2" d="M412.57,101.3c-2.81-8.46-2.66-18.54,2.77-26.09,2.68-3.94,8.26-6.55,12.77-4.22,4.35,1.93,7.36,5.49,9.73,9.18-1.56-1.56-3.15-3.07-4.91-4.33-16.39-12.95-22.52,13.27-20.35,25.45h0Z"/>
  <path class="cls-2" d="M425.02,32.85c33.63,2.77,60.26,41.01,44.5,72.6,1.29-3.87,2.27-7.82,2.66-11.83,3.35-28.64-19.72-55.22-47.16-60.77h0Z"/>
  <path class="cls-2" d="M443.69,109.22c1.17,5.63,5.33,39.9-7.03,32.88-3.65-1.91-7.38-3.44-11.45-4.41,4.16-.01,8.41,1,12.23,2.65,4.38,2.37,4.6-3.33,4.97-6.44.77-8.16.95-16.36,1.29-24.68h0Z"/>
  <path class="cls-2" d="M473.86,105.45c-2.57,8.64-5.73,17.06-8.37,25.66-1.11,4.15-2.79,8.52-2.56,12.78.24,4.28,1.94,8.31,4.49,11.85,5.51,6.88,11.4,14.68,13.14,23.72,2.12,8.94,2.08,18.15.84,27.07.08-4.51.09-9.01-.36-13.46-.71-8.81-2.93-17.65-7.57-25.19-4.77-7.38-12.79-14.12-12.86-23.86-.12-4.79,1.63-9.09,3.08-13.49,3.08-8.49,6.62-16.81,10.17-25.08h0Z"/>
  <path class="cls-2" d="M472.26,125.52c-6.09,9.93-8.5,26.51,3.19,32.75-.04,0-.02.02-.13.05-.14.14-.12.15-.13.03-.32-2.03-1.12-4.4-1.52-6.52-1.01-4.37-1.62-9.28-1.9-13.78-.03-.36-.07-.72-.13-.99.01-.11-.16-.27.14.03.26.26.94.23,1.08-.01-1.61,3.05-1.93,7.01-1.33,10.56,0,0-.24.07-.24.07-1.35-2.84-1.64-6.2-1.05-9.39.19-1.15,1.04-4.25,2.93-2.95.57.57.52.8.64,1.05,1.11,4.98,1.25,9.96,2.13,14.96.21,1.83,1.06,5.21.92,7.1-1.11,3.81-5.23-1.56-6.21-2.98-2.68-3.88-5.03-8.19-5.53-12.97-.47-6.04,2.64-13.88,7.14-17.05h0Z"/>
  <path class="cls-2" d="M473.86,105.45c9.39,16.99,15.62,35.97,16.89,55.55.46,9.73,1.1,19.29,2.84,28.86,2.72,13.82,4.88,29.16,15.42,39.27,7,7,24.26,17.92,24.26.14.18-6.93-2.77-14.21-8.16-18.59-.88-.67-1.97-1.2-2.75-1.04-.76.07-1.32,1.12-1.64,2.17-.62,2.19-.65,4.64-.57,7.01.03,1.94,1.22,14.05,4.51,10.84,1.59-1.65,2.43-4.11,2.43-6.46.06-2.4-1.33-4.71-3.44-5.94,2.16,1.11,3.75,3.41,3.81,5.93.43,2.68-2.67,11-5.81,6.44-2.35-4.01-5.28-19.47.4-21.43,1.67-.28,2.91.51,3.97,1.21,7.87,6.23,11.71,17.96,7.8,27.42-7.71,13.74-32.25-8.55-35.04-18.2-7.26-18.31-9.39-38.07-9.91-57.54-.83-19.35-6.57-38.26-15.01-55.65h0Z"/>
  <path class="cls-2" d="M474.74,73.18c3.77,12.57,4.85,25.83,12.24,37.06,6.51,11.43,13.41,22.93,17.27,35.63,4.08,12.62,6.12,26.02,5.08,39.41-.71,6.63-2.74,12.74-1.44,19.34.94,6.36,3.84,12.38,7.75,17.66l-.19.16c-4.56-4.78-8.06-10.8-9.46-17.47-1.67-6.57.07-13.5.72-19.93,1.11-19.26-1.78-39.79-10.78-57.14-4.78-8.66-11.49-16.25-15.44-25.45-1.36-3.04-2.24-6.45-2.78-9.69-1.17-6.49-2.29-12.99-3.21-19.54l.24-.05h0Z"/>
  <path class="cls-2" d="M508.56,144.86c9.78,16.82,11.97,38.63,4.66,56.79,3.85-19.19,1.9-38.41-4.66-56.79h0Z"/>
  <path class="cls-2" d="M519.12,162.03c2.73,7.6,4.13,15.88,3.28,24-.48,3.05-1.61,6.26.35,8.88.87,1.18,2.2,1.88,3.7,2.43,6.11,2.71,11.55,6.95,15.97,12.01,4.58,5,7.05,11.9,7.49,18.6,2.31,21.31-11.13,32.65-31.89,27.12-23.27-5.59-37.91-31.98-32.66-54.75-4.45,25.92,15.61,54.03,42.69,53.78,14.82.5,21.18-12.63,19.59-25.95-.43-13.27-10.57-23.72-21.9-29.38-1.22-.42-3.22-1.54-4.18-3-2.18-2.95-1.03-6.82-.34-9.89,1.21-7.98.12-16.09-2.1-23.85h0Z"/>
  <path class="cls-2" d="M525.26,171.57c6.78,7.77,12.71,17.46,17.39,26.66,0,0,2.66,4.61,2.66,4.61.65,1.43,1.92,2.68,1.8,4.37-.05.15-.21.42-.48.49-.32.1-.42.03-.6-.01-3.08-2.4-5.36-5.5-8.51-7.48-2.89-2.04-5.79-3.06-9.32-3.78-.92-.26-1.91-.61-2.83-1.26-2.75-1.93-2.67-5.98-1.51-8.66.49-1.33,2.13-3.48,3.91-2.59,2.16,1.26,2.84,3.87,3.54,5.98,0,0-.23.09-.23.09-1.07-1.75-2.06-3.86-3.83-4.74-.27-.07-.35-.02-.56.15-2.2,2.63-2.11,7.97,2.18,8.49,7.43,1,13.52,6.93,17.64,12.62,0-.09-.56.06-.55.28-.03.11,0,.03,0-.03-1.9-6.28-6.39-11.47-10.08-16.79-3.52-5.59-8.49-12.51-10.6-18.39h0Z"/>
  <path class="cls-2" d="M480.46,213.13c17.93,41.64,16.19,88.95,2.87,131.63-1.88,6.11-3.89,12.17-6.27,18.1,15.37-50.01,20.74-99.4,3.39-149.73h0Z"/>
  <path class="cls-2" d="M493.29,237.83c4.14,9.07,5.37,19.26,5.02,29.15,0,.69-.01,1.5.12,2.1-.22-.35-.76-.44-1.05-.3,2.95-4.89,5-11.6,7.6-17.18-1.35,6.22-2.57,12.66-5.61,18.33-.4.73-1.71,1.69-2.71.72-.93-1.13-.66-2.4-.76-3.65.18-9.8-.53-19.45-2.61-29.17h0Z"/>
  <path class="cls-2" d="M521.02,254.56c-16.81,23.63-22,53.55-17.63,81.86.73,7.24,3.8,14.18,2.78,21.63-1.08,7.39-4.19,14.28-8.52,20.19-12.22,16.22-18.82,11.49-11.82-6.81,2.85-6.13,5.31-1.95,6.7,2.17-5.03-12.57-8.02,3.16-8.21,8.48,0,1.43-.07,3.61.86,4.59.25.26,1.1.09,1.81-.28,3.8-2.11,6.59-5.72,9.11-9.24,3.92-5.85,6.94-12.46,7.84-19.38.87-7.03-2.25-13.98-2.99-21-4.2-28.62,1.41-59.49,20.07-82.21h0Z"/>
  <path class="cls-2" d="M542.85,249.97c-2.01,10.98-7.95,21.36-15.9,29.07-7.77,7.92-10.77,19.3-11.13,30.17-.61,11.19,2.46,21.93,2.3,33.16-.26,11.33-3.74,22.45-9.49,31.97l-.22-.11c6.93-15.42,8.32-31.82,6.02-48.34-1.25-11.12.25-22.47,3.36-33.18,1.6-5.34,3.97-10.59,7.6-15.01,3.65-4.23,7.28-8.15,10.13-12.93,2.9-4.63,5.15-9.67,7.09-14.87l.24.07h0Z"/>
  <path class="cls-2" d="M485.24,354.35c.45-7.82,1.49-15.75,4.69-22.98.65-1.13.97-2.56,2.41-3.07.84-.03,1.08.7,1.21,1.03,1.81,10.06,4.78,19.67,7.24,29.59.08.63.27,1.35-.01,2.14-2.73,4.81-8.72-10.07-9.69-12.09,0,0,.21-.12.21-.12,1.81,2.24,6.29,9.03,8.34,10.78.07.06.05.02.02,0-.11-.04-.35-.09-.52-.03-.29.04-.67.49-.7.65-1.68-7.03-3.77-14.16-4.3-21.47-.38-2.15-.82-14.78-2.93-6.93-1.99,7.32-2.97,15.8-5.98,22.5h0Z"/>
  <path class="cls-2" d="M475.18,369.46c-2.36,7.88-4.84,15.74-6.68,23.7-.56,2.49-.83,4.63,1.35,6.29,8.96,5.49,21.87,1.66,28.71-5.85-6.04,9.47-20.42,14.11-30.27,7.76-2.76-1.98-3.02-5.77-2.06-8.71,2.2-8.04,5.2-15.77,8.95-23.19h0Z"/>
  <path class="cls-2" d="M466.7,371.54c-1.68,7.47-4.66,14.71-8.73,21.24-2.18,3.55-6.34,8.59-.59,10.78,6.93,2.61,14.7,2.13,21.75-.51-4.36,2.62-9.51,4.24-14.8,4.05-11.85-.49-16.14-5.51-8.32-15.58,4.24-6.28,7.62-12.99,10.68-19.97h0Z"/>
  <path class="cls-2" d="M429.19,412.79c4.16,10.44,16.31,10.02,23.56,17.47,3.26,2.9,11.92,12.6,6.64,16.37,0,0-3.19,2.04-3.19,2.04-3.07,1.93-6.33,4.31-9.28,6.44-3.01,2.87-7.98,2.93-11.58,1.22-5.33-1.95-8.7-8.32-6.67-13.76,1.06-3.16,3.32-7.02,7.14-7.45,5.38.22,8.16,8.03,4.38,11.71-2.83,3.15-5.34.53-5.11-2.86,0,0,.25-.01.25-.01.18,1.19.58,2.5,1.42,3.15,1.85,1.02,3.68-2.57,3.59-4.13-.03-2.55-2.67-6.97-5.58-5.09-3.3,2.46-5.11,8.02-3.24,11.85,2.48,4.88,9.88,7.64,14.48,3.99,2.07-1.21,7.6-4.53,9.75-5.77.79-.61,4.1-2.07,4.34-3.08.85-7.19-9.41-13.67-14.7-17.22-4.22-2.6-9.54-3.96-12.9-7.96-1.74-1.95-2.95-4.33-3.53-6.8l.23-.08h0Z"/>
  <path class="cls-2" d="M330.87,329.06c3.41,11.42,8.22,22.33,14.82,32.04,10.25,14.49,24.1,26.45,35.35,40.27,3.77,4.65,7.54,9.34,10.48,14.74,2.93,5.54,3.99,11.66,4.44,17.69.33,6.06-.36,12.12-1.94,17.9l-.24-.05c1.47-11.56.85-23.85-4.58-34.29-9.23-15.04-21.06-28.8-32.89-41.92-4.09-4.33-8.58-8.3-12.29-13.13-6.84-9.68-12.24-21.9-13.15-33.25h0Z"/>
  <path class="cls-2" d="M393.94,408.23c10.66,13.11,13.78,33.21,5.06,48.16,5.23-16.29,2.48-33.06-5.06-48.16h0Z"/>
  <path class="cls-2" d="M406.52,417.58c5.4,11.01,5.28,24.86-.14,35.84,2.05-12.12,2.19-23.71.14-35.84h0Z"/>
  <path class="cls-2" d="M411.44,422.64c6.39,2.89,14.36,4.25,18.1-2.83-.37,9.78-13.67,9.38-18.1,2.83h0Z"/>
  <path class="cls-2" d="M416.35,432.07c1.49,7.65-.2,15.89-4.62,22.31,1.23-7.74,2.69-14.73,4.62-22.31h0Z"/>
  <path class="cls-2" d="M421.25,461.49c3.83,8.61,15.86,14.85,22.63,5.85-1.19,5.58-8.2,7.92-13.21,6.07-5.21-1.54-8.88-6.68-9.42-11.92h0Z"/>
  <path class="cls-2" d="M417.85,466.39c4.78,9.23,15.83,16.67,22.63,4.9-3.69,15.4-21.48,7.26-22.63-4.9h0Z"/>
  <path class="cls-2" d="M397.72,497c4.2,11.62,13.98,21.9,26.7,22.35,7.99-.05,16.68-4.43,20.02-11.78,3.32-7.91-.19-15.71-3.01-23.51-1.15-4.18-1.53-8.53-1.08-12.76h.25c.51,6.38,2.29,12.23,5.21,17.85,2.84,5.92,3.61,13.19.73,19.39-6.2,11.59-23.57,14.32-34.76,9.13-7.61-3.87-13.82-12.73-14.07-20.66h0Z"/>
  <path class="cls-2" d="M405.85,503.9c.67-17.88,22.73-28.12,30.65-8.73,2.15,6.94-1.73,17.67-10.11,17.8-5.59-.44-10.48-5.78-9.48-11.53.83-4.14,4.23-8.16,8.76-8.11,3.13.22,5.4,2.69,6.23,5.5,1.5,4.34-3.26,10.22-7.34,6.24-2.36-2.28-2.7-5.82,1.6-5.23,0,0,0,.25,0,.25-3.73.18-2.77,2.29-.78,4.05,1.91,1.59,3.82.37,4.47-1.72.74-1.91-.19-4.14-1.74-5.46-3.55-3.17-7.96,1.37-8.67,4.98-.97,4.18,3.05,8.57,7.12,9.1,7.14.3,11.44-9.42,9.2-15.59-3.76-9.63-15.92-11.27-22.84-3.93-3.43,3.23-5.65,7.68-6.8,12.44l-.24-.03h0Z"/>
  <path class="cls-2" d="M321.87,373.61c29.11,13.33,42.86,42.51,46.21,73.03,1.8,10.76-.78,26.42,12.73,29.66,5.55,1.88,11.81,1.57,17.29-.86-7.83,4.29-18.92,3.95-25.79-2.31-5.95-6.77-5.04-17.83-6.46-26.22-3.96-30.42-16.24-57.76-43.99-73.3h0Z"/>
  <path class="cls-2" d="M318.85,375.31c21.1,15.03,36.49,38.36,40.74,64.08,1.84,9.51-.26,19.4,3.57,28.31,4.01,7.91,10.79,16.88,20.47,17.13,6.42.16,12.11-4.1,15.94-9-3.52,5.39-9.2,9.98-15.92,10.21-10.33.08-18.02-8.96-22.42-17.46-4.11-9.04-2.17-19.46-4.06-28.81-3.94-25.31-18.76-48.13-38.3-64.46h0Z"/>
  <path class="cls-2" d="M349.71,422.61c2.48,7.13,4.09,14.57,4.94,22.11,1.13,7.35-.57,15.03,2.2,22.06,4.72,14.36,19.18,24.6,34.49,21.35,7.18-1.28,14.37-4.77,18.09-10.82,2.23-3.94,3.86-10.72-.22-13.76-5.27-2.58-12.34.84-15.8,5.16-1.94,2.16,2.22,2.83,3.76,3.09,3.14.54,11.05-.1,9.06-4.79-2.09-1.56-5.32-.1-7.55.82,0,0-.12-.22-.12-.22,2.44-1.26,5.69-3.18,8.4-1.34,2.55,3.09-1.12,6.42-4.11,6.98-3.3.98-12.98,1.1-12.09-4.24,3.3-8.43,21.11-14.14,23.25-2.14,1.95,17.67-19.45,25.47-33.9,22.16-11.34-2.35-20.75-10.86-25.18-21.54-3.18-7.18-1.27-15.09-2.17-22.61-.53-7.45-1.69-14.86-3.29-22.22l.24-.07h0Z"/>
  <path class="cls-2" d="M274.1,393.01c23.84,5.37,43.52,23.36,54.32,44.93,2.82,5.48,3.91,11.57,5.95,17.07,2.04,5.56,4.61,10.99,7.34,16.25,2.78,5.24,5.86,10.28,10.74,13.6,4.71,3.49,10.35,5.7,16.24,6.86l-.03.24c-6.03-.36-12.08-2.16-17.3-5.52-10.43-6.87-14.99-19.46-19.18-30.68-1.99-5.83-2.68-11.81-4.99-17.28-4.31-11.23-12.64-20.45-22.25-27.48-9.07-7.69-20.36-13.24-30.83-18h0Z"/>
  <path class="cls-2" d="M276.57,385.23c44.73,5.03,52.66,37,65.12,73.86,1.93,5.42,4.36,10.65,7.86,15.2,3.45,4.57,7.79,8.51,12.7,11.69l-.12.22c-17.91-8.06-23.36-25.59-28.21-42.99-3.56-11.04-6.59-22.55-13.15-32.26-10.24-14.59-28.26-20.59-44.21-25.72h0Z"/>
  <path class="cls-2" d="M310.09,386.41c6.76,3.23,12.87,8.06,17.43,14.12,6.15,9.43,10.68,20.01,13.19,30.99,1.46,7.36,1.76,14.66,3.63,21.89.91,3.56,2.18,7.02,3.1,10.67l-.22.1c-1.66-3.32-3.41-6.69-4.73-10.22-2.63-7.03-3.13-14.71-4.07-22.03-1.24-7.21-2.6-14.65-6.06-21.19-5.37-9.73-14.47-17.1-22.27-24.32h0Z"/>
  <path class="cls-2" d="M88.76,156.28c-10.74-30.99,5.57-63.93,36.21-75.03,12.08-3.81,25.13-8.53,36.95-12.88,7.91-3.09,16.51-5.56,23.48-10.37,13.88-10.26,24.99-23.99,36.8-36.55-4.36,6.89-10.83,13.84-16.28,20.46-5.76,6.54-11.83,12.97-19.03,18.15-7.32,5.22-15.93,7.46-24.2,10.49-8.24,2.81-16.51,5.57-24.92,7.91-8.28,2.55-17.15,3.95-24.1,9.27-14.14,9.87-23.66,25.75-25.98,42.77-1.44,8.5-.08,17.65,1.06,25.77h0Z"/>
  <path class="cls-2" d="M161.43,81.05c-7.23,2.73-14.5,5.59-22.13,7.2-3.82.82-7.53,1.5-10.96,3.05-10.39,4.64-18.58,13.57-24.5,23.16-7.71,13.11-7.8,30.51-.71,43.76,12.24,21.43,40.89,23.01,59.46,9.74-17.3,16.75-50.25,13.67-61.5-8.63-11.2-21.94-.79-48.13,16.35-63.72,5.84-5.4,13.79-8.15,21.47-9.22,7.52-1.01,15.36-4.31,22.51-5.35h0Z"/>
  <path class="cls-2" d="M158.94,89.99c-5.01,2.34-10.23,4.19-15.6,5.61-16.22,3.98-29.42,14.7-34.37,30.98.39-2.74,1.16-5.42,2.1-8.05,4.8-13.58,18.09-22.3,31.86-24.78,5.41-.98,10.67-2.4,16.01-3.76h0Z"/>
  <path class="cls-2" d="M124.62,114.88c-13.28,15.09-7.36,36.95,11.55,43.5,2.44.89,5.04,1.32,7.69,1.57-2.64.32-5.35.13-8.01-.4-20.95-4.86-28.16-30.71-11.23-44.67h0Z"/>
  <path class="cls-2" d="M151.77,154.1c-12.14,2.71-26.34-6.15-25.91-19.38-.06-12.64,10.25-23.46,22.51-25.12-11.12,3.45-20.08,13.3-20.05,25.13-.34,12.18,12.04,19.95,23.44,19.38h0Z"/>
  <path class="cls-2" d="M151.77,135.06c-.85-2.95-.66-8.29,3.3-9.41,5.53-.48,9.29,6.45,7.9,11.32-.77,2.82-2.9,5.02-5.35,6.02,1.88-1.86,3.16-4.1,3.46-6.41.44-3.26-1.51-6.97-4.37-8.52-3.47-1.43-4.53,4.19-4.94,7.01h0Z"/>
  <path class="cls-2" d="M146.11,121.1c16.34-12.99,33.37,2.64,28.53,21.11-1.42,5.19-4.52,9.75-8.54,13.02,1.65-1.99,3.1-4.12,4.21-6.4,9.11-17.59-4.1-38.99-24.2-27.73h0Z"/>
  <path class="cls-2" d="M392.77,70.94c-2.31-14.7,10-30.19,25.46-28.85-14.59,2.58-23.86,14.68-25.46,28.85h0Z"/>
  <path class="cls-2" d="M396.36,78.49c1.65-15.28,15.89-34.35,32.99-28.36,15.04,6.34,25.67,21.85,26.98,37.98-3.15-15.28-13.4-29.51-27.81-35.66-16.02-5.32-28.66,12.16-32.15,26.04h0Z"/>
  <path class="cls-2" d="M438.69,146.18c3.46,1.13,8.15,2.79,7.68-2.71-.29-6.83.1-13.8,1.66-20.48.84,6.91.69,13.65.67,20.59-.14,6.84-6.02,6.21-10.01,2.61h0Z"/>
  <path class="cls-2" d="M435.58,90.08c-2.62-5.26-7.37-8.09-11.24-2.2-2.75,4.38-2.72,9.9-2.31,14.99.32,3.25.61,6.76,1.9,9.71-.02.01.05-.05-.39-.13-.2-.02-.52.13-.53.2,2.04-6.26,1.94-13.38,3-19.92.3,5.42.35,10.82-.12,16.29-.26,1.66-.11,3.96-1.56,5.36-1.02.74-2.2-.21-2.53-1.02-1.51-3.29-1.85-6.81-2.23-10.32-.36-5.5-.29-11.63,3.25-16.29,4.89-6.28,10.87-3.44,12.77,3.32h0Z"/>
  <path class="cls-2" d="M378.75,185.27c12.31-2.88,23.78-6.5,35.52-11.17-9.99,7.68-22.94,11.73-35.52,11.17h0Z"/>
  <path class="cls-2" d="M385.23,199.36c20.8-2.79,41.04-11.89,54.73-28.1,2.02-2.24,3.82-4.67,5.61-7.13-1.31,2.75-2.93,5.34-4.66,7.88-12.45,17.73-34.22,27.73-55.69,27.36h0Z"/>
  <path class="cls-2" d="M466.04,186.99c-3.71,8.83-11.95,15.9-21.27,18.17,7.9-5.51,14.61-11.23,21.27-18.17h0Z"/>
  <path class="cls-2" d="M466.7,175.32c6.63,9.05,10.38,19.92,11.88,30.97-3.98-10.39-7.5-20.7-11.88-30.97h0Z"/>
  <path class="cls-2" d="M505.02,217.33c4.35,6.37,9.7,12.63,17.27,14.76,4.18,1.4,6.37.39,5.82-4.28-.41-3.77-1.78-7.5-4.46-10.53,3.4,2.32,5.6,6.2,6.37,10.25,1.39,6.17-2.82,8.89-8.43,6.93-8.11-2.33-13.8-9.53-16.56-17.13h0Z"/>
  <path class="cls-2" d="M366.47,33.41c3.44,2.83,6.21,6.51,9.58,9.28.52.13,1.23-.04,1.87-.47,4.43-3.32,9.46-6.81,15.14-7.58-2.49,1.43-4.88,2.87-7.13,4.48-3.04,1.76-5.39,5.53-9.35,6.02-.82.11-2.18-.49-2.69-1.16-3-3.22-5.28-6.76-7.43-10.56h0Z"/>
  <path class="cls-2" d="M100.85,343.19c.11-11.79,13.31-5.13,19.03-1.9,6.68,3.78,12.89,8.47,17.98,14.24-8.15-4.85-15.99-9.96-24.38-14.31-4.93-2.6-10.64-5.44-12.63,1.97h0Z"/>
  <path class="cls-2" d="M100.85,336.79c2.83-7.11,8.45-10.47,15.29-5.67,5.34,3.48,10.15,7.64,14.96,11.78,3.16,2.8,6.27,5.67,9.22,8.69-2.9-2.41-6.84-5.77-9.72-8.11-4.9-3.96-9.75-8.05-14.95-11.6-6.53-4.7-11.47-1.56-14.8,4.9h0Z"/>
  <path class="cls-2" d="M100.85,363.93c8.39,4.49,18.08,5.33,27.14,2.47-8.05,5.68-20.26,4.59-27.14-2.47h0Z"/>
  <path class="cls-2" d="M217.61,276.55c-.1,16.97,3.35,33.8,11,49-10.16-13.84-13.93-32.17-11-49h0Z"/>
  <path class="cls-2" d="M332.61,349.55c1.67,7.36,4.58,14.49,9.08,20.43,4.45,5.98,10.7,10.36,15.95,15.99,10.57,11.19,17.93,25.12,22.22,39.83,1.03,3.69,1.85,7.5,2.3,11.33,1.22,8.79,2.42,19.36,3.54,28.07.07.34.13.74.23,1.02-.27-.41-.96-.53-1.39-.23-.14.11-.14.13-.16.15,1.5-4.34,1.73-9.34,2.21-13.98.87-11.28-.34-22.58-2.98-33.6,4.79,14.49,6.25,30.01,3.88,45.14-.28,1.3-.36,2.64-1.15,3.92-.25.37-.82.78-1.48.64-.33-.06-.64-.23-.84-.48-.35-.38-.5-.9-.62-1.34-1.15-5.91-1.61-11.78-2.59-17.7-.97-6.52-1.88-15.87-3.84-22.12-4.08-14.31-11.16-27.89-21.05-39.06-5-5.64-11.15-10.38-15.43-16.72-4.24-6.38-6.87-13.74-7.9-21.28h0Z"/>
</svg>