<svg id="Layer_1" data-name="Layer 1" xmlns="http://www.w3.org/2000/svg" viewBox="0 0 291.35 283.78"><defs><style>.cls-1{fill:#e58906;}</style></defs><path class="cls-1" d="M215.39,184.58l-26.84-15.5a37.87,37.87,0,1,1-59-46.25H66.3a97.25,97.25,0,0,0-3.9,27.32c0,52.62,41.79,95.28,93.35,95.28,34.84,0,65.22-19.49,81.26-48.37Z" transform="translate(-4.03 -8.26)"/><path class="cls-1" d="M188.55,131.21l26.85-15.5L237,103.23c-16-28.87-46.42-48.36-81.26-48.36-38.37,0-71.32,23.63-85.67,57.4h85.67A37.85,37.85,0,0,1,188.55,131.21Z" transform="translate(-4.03 -8.26)"/><path class="cls-1" d="M243.26,292H56.15A52.18,52.18,0,0,1,4,239.92V60.38A52.18,52.18,0,0,1,56.15,8.26H243.26a52.18,52.18,0,0,1,52.12,52.12V239.92A52.18,52.18,0,0,1,243.26,292ZM56.15,18.26A42.16,42.16,0,0,0,14,60.38V239.92A42.17,42.17,0,0,0,56.15,282H243.26a42.17,42.17,0,0,0,42.12-42.12V60.38a42.17,42.17,0,0,0-42.12-42.12Z" transform="translate(-4.03 -8.26)"/></svg>